<?xml version="1.0" encoding="utf-8" standalone="no"?>
<!DOCTYPE svg PUBLIC "-//W3C//DTD SVG 1.1//EN"
  "http://www.w3.org/Graphics/SVG/1.1/DTD/svg11.dtd">
<!-- Created with matplotlib (https://matplotlib.org/) -->
<svg height="345.6pt" version="1.1" viewBox="0 0 460.8 345.6" width="460.8pt" xmlns="http://www.w3.org/2000/svg" xmlns:xlink="http://www.w3.org/1999/xlink">
 <metadata>
  <rdf:RDF xmlns:cc="http://creativecommons.org/ns#" xmlns:dc="http://purl.org/dc/elements/1.1/" xmlns:rdf="http://www.w3.org/1999/02/22-rdf-syntax-ns#">
   <cc:Work>
    <dc:type rdf:resource="http://purl.org/dc/dcmitype/StillImage"/>
    <dc:date>2021-01-22T09:29:01.162480</dc:date>
    <dc:format>image/svg+xml</dc:format>
    <dc:creator>
     <cc:Agent>
      <dc:title>Matplotlib v3.3.3, https://matplotlib.org/</dc:title>
     </cc:Agent>
    </dc:creator>
   </cc:Work>
  </rdf:RDF>
 </metadata>
 <defs>
  <style type="text/css">*{stroke-linecap:butt;stroke-linejoin:round;}</style>
 </defs>
 <g id="figure_1">
  <g id="patch_1">
   <path d="M 0 345.6 
L 460.8 345.6 
L 460.8 0 
L 0 0 
z
" style="fill:#ffffff;"/>
  </g>
  <g id="axes_1">
   <g id="patch_2">
    <path d="M 57.6 307.584 
L 414.72 307.584 
L 414.72 41.472 
L 57.6 41.472 
z
" style="fill:#7d9051;"/>
   </g>
   <g id="matplotlib.axis_1">
    <g id="xtick_1">
     <g id="line2d_1">
      <defs>
       <path d="M 0 0 
L 0 3.5 
" id="m3db249afbc" style="stroke:#000000;stroke-width:0.8;"/>
      </defs>
      <g>
       <use style="stroke:#000000;stroke-width:0.8;" x="61.698882" xlink:href="#m3db249afbc" y="307.584"/>
      </g>
     </g>
     <g id="text_1">
      <!-- 0 -->
      <g transform="translate(58.517632 322.182437)scale(0.1 -0.1)">
       <defs>
        <path d="M 31.78125 66.40625 
Q 24.171875 66.40625 20.328125 58.90625 
Q 16.5 51.421875 16.5 36.375 
Q 16.5 21.390625 20.328125 13.890625 
Q 24.171875 6.390625 31.78125 6.390625 
Q 39.453125 6.390625 43.28125 13.890625 
Q 47.125 21.390625 47.125 36.375 
Q 47.125 51.421875 43.28125 58.90625 
Q 39.453125 66.40625 31.78125 66.40625 
z
M 31.78125 74.21875 
Q 44.046875 74.21875 50.515625 64.515625 
Q 56.984375 54.828125 56.984375 36.375 
Q 56.984375 17.96875 50.515625 8.265625 
Q 44.046875 -1.421875 31.78125 -1.421875 
Q 19.53125 -1.421875 13.0625 8.265625 
Q 6.59375 17.96875 6.59375 36.375 
Q 6.59375 54.828125 13.0625 64.515625 
Q 19.53125 74.21875 31.78125 74.21875 
z
" id="DejaVuSans-48"/>
       </defs>
       <use xlink:href="#DejaVuSans-48"/>
      </g>
     </g>
    </g>
    <g id="xtick_2">
     <g id="line2d_2">
      <g>
       <use style="stroke:#000000;stroke-width:0.8;" x="105.108795" xlink:href="#m3db249afbc" y="307.584"/>
      </g>
     </g>
     <g id="text_2">
      <!-- 20 -->
      <g transform="translate(98.746295 322.182437)scale(0.1 -0.1)">
       <defs>
        <path d="M 19.1875 8.296875 
L 53.609375 8.296875 
L 53.609375 0 
L 7.328125 0 
L 7.328125 8.296875 
Q 12.9375 14.109375 22.625 23.890625 
Q 32.328125 33.6875 34.8125 36.53125 
Q 39.546875 41.84375 41.421875 45.53125 
Q 43.3125 49.21875 43.3125 52.78125 
Q 43.3125 58.59375 39.234375 62.25 
Q 35.15625 65.921875 28.609375 65.921875 
Q 23.96875 65.921875 18.8125 64.3125 
Q 13.671875 62.703125 7.8125 59.421875 
L 7.8125 69.390625 
Q 13.765625 71.78125 18.9375 73 
Q 24.125 74.21875 28.421875 74.21875 
Q 39.75 74.21875 46.484375 68.546875 
Q 53.21875 62.890625 53.21875 53.421875 
Q 53.21875 48.921875 51.53125 44.890625 
Q 49.859375 40.875 45.40625 35.40625 
Q 44.1875 33.984375 37.640625 27.21875 
Q 31.109375 20.453125 19.1875 8.296875 
z
" id="DejaVuSans-50"/>
       </defs>
       <use xlink:href="#DejaVuSans-50"/>
       <use x="63.623047" xlink:href="#DejaVuSans-48"/>
      </g>
     </g>
    </g>
    <g id="xtick_3">
     <g id="line2d_3">
      <g>
       <use style="stroke:#000000;stroke-width:0.8;" x="148.518708" xlink:href="#m3db249afbc" y="307.584"/>
      </g>
     </g>
     <g id="text_3">
      <!-- 40 -->
      <g transform="translate(142.156208 322.182437)scale(0.1 -0.1)">
       <defs>
        <path d="M 37.796875 64.3125 
L 12.890625 25.390625 
L 37.796875 25.390625 
z
M 35.203125 72.90625 
L 47.609375 72.90625 
L 47.609375 25.390625 
L 58.015625 25.390625 
L 58.015625 17.1875 
L 47.609375 17.1875 
L 47.609375 0 
L 37.796875 0 
L 37.796875 17.1875 
L 4.890625 17.1875 
L 4.890625 26.703125 
z
" id="DejaVuSans-52"/>
       </defs>
       <use xlink:href="#DejaVuSans-52"/>
       <use x="63.623047" xlink:href="#DejaVuSans-48"/>
      </g>
     </g>
    </g>
    <g id="xtick_4">
     <g id="line2d_4">
      <g>
       <use style="stroke:#000000;stroke-width:0.8;" x="191.928621" xlink:href="#m3db249afbc" y="307.584"/>
      </g>
     </g>
     <g id="text_4">
      <!-- 60 -->
      <g transform="translate(185.566121 322.182437)scale(0.1 -0.1)">
       <defs>
        <path d="M 33.015625 40.375 
Q 26.375 40.375 22.484375 35.828125 
Q 18.609375 31.296875 18.609375 23.390625 
Q 18.609375 15.53125 22.484375 10.953125 
Q 26.375 6.390625 33.015625 6.390625 
Q 39.65625 6.390625 43.53125 10.953125 
Q 47.40625 15.53125 47.40625 23.390625 
Q 47.40625 31.296875 43.53125 35.828125 
Q 39.65625 40.375 33.015625 40.375 
z
M 52.59375 71.296875 
L 52.59375 62.3125 
Q 48.875 64.0625 45.09375 64.984375 
Q 41.3125 65.921875 37.59375 65.921875 
Q 27.828125 65.921875 22.671875 59.328125 
Q 17.53125 52.734375 16.796875 39.40625 
Q 19.671875 43.65625 24.015625 45.921875 
Q 28.375 48.1875 33.59375 48.1875 
Q 44.578125 48.1875 50.953125 41.515625 
Q 57.328125 34.859375 57.328125 23.390625 
Q 57.328125 12.15625 50.6875 5.359375 
Q 44.046875 -1.421875 33.015625 -1.421875 
Q 20.359375 -1.421875 13.671875 8.265625 
Q 6.984375 17.96875 6.984375 36.375 
Q 6.984375 53.65625 15.1875 63.9375 
Q 23.390625 74.21875 37.203125 74.21875 
Q 40.921875 74.21875 44.703125 73.484375 
Q 48.484375 72.75 52.59375 71.296875 
z
" id="DejaVuSans-54"/>
       </defs>
       <use xlink:href="#DejaVuSans-54"/>
       <use x="63.623047" xlink:href="#DejaVuSans-48"/>
      </g>
     </g>
    </g>
    <g id="xtick_5">
     <g id="line2d_5">
      <g>
       <use style="stroke:#000000;stroke-width:0.8;" x="235.338534" xlink:href="#m3db249afbc" y="307.584"/>
      </g>
     </g>
     <g id="text_5">
      <!-- 80 -->
      <g transform="translate(228.976034 322.182437)scale(0.1 -0.1)">
       <defs>
        <path d="M 31.78125 34.625 
Q 24.75 34.625 20.71875 30.859375 
Q 16.703125 27.09375 16.703125 20.515625 
Q 16.703125 13.921875 20.71875 10.15625 
Q 24.75 6.390625 31.78125 6.390625 
Q 38.8125 6.390625 42.859375 10.171875 
Q 46.921875 13.96875 46.921875 20.515625 
Q 46.921875 27.09375 42.890625 30.859375 
Q 38.875 34.625 31.78125 34.625 
z
M 21.921875 38.8125 
Q 15.578125 40.375 12.03125 44.71875 
Q 8.5 49.078125 8.5 55.328125 
Q 8.5 64.0625 14.71875 69.140625 
Q 20.953125 74.21875 31.78125 74.21875 
Q 42.671875 74.21875 48.875 69.140625 
Q 55.078125 64.0625 55.078125 55.328125 
Q 55.078125 49.078125 51.53125 44.71875 
Q 48 40.375 41.703125 38.8125 
Q 48.828125 37.15625 52.796875 32.3125 
Q 56.78125 27.484375 56.78125 20.515625 
Q 56.78125 9.90625 50.3125 4.234375 
Q 43.84375 -1.421875 31.78125 -1.421875 
Q 19.734375 -1.421875 13.25 4.234375 
Q 6.78125 9.90625 6.78125 20.515625 
Q 6.78125 27.484375 10.78125 32.3125 
Q 14.796875 37.15625 21.921875 38.8125 
z
M 18.3125 54.390625 
Q 18.3125 48.734375 21.84375 45.5625 
Q 25.390625 42.390625 31.78125 42.390625 
Q 38.140625 42.390625 41.71875 45.5625 
Q 45.3125 48.734375 45.3125 54.390625 
Q 45.3125 60.0625 41.71875 63.234375 
Q 38.140625 66.40625 31.78125 66.40625 
Q 25.390625 66.40625 21.84375 63.234375 
Q 18.3125 60.0625 18.3125 54.390625 
z
" id="DejaVuSans-56"/>
       </defs>
       <use xlink:href="#DejaVuSans-56"/>
       <use x="63.623047" xlink:href="#DejaVuSans-48"/>
      </g>
     </g>
    </g>
    <g id="xtick_6">
     <g id="line2d_6">
      <g>
       <use style="stroke:#000000;stroke-width:0.8;" x="278.748447" xlink:href="#m3db249afbc" y="307.584"/>
      </g>
     </g>
     <g id="text_6">
      <!-- 100 -->
      <g transform="translate(269.204697 322.182437)scale(0.1 -0.1)">
       <defs>
        <path d="M 12.40625 8.296875 
L 28.515625 8.296875 
L 28.515625 63.921875 
L 10.984375 60.40625 
L 10.984375 69.390625 
L 28.421875 72.90625 
L 38.28125 72.90625 
L 38.28125 8.296875 
L 54.390625 8.296875 
L 54.390625 0 
L 12.40625 0 
z
" id="DejaVuSans-49"/>
       </defs>
       <use xlink:href="#DejaVuSans-49"/>
       <use x="63.623047" xlink:href="#DejaVuSans-48"/>
       <use x="127.246094" xlink:href="#DejaVuSans-48"/>
      </g>
     </g>
    </g>
    <g id="xtick_7">
     <g id="line2d_7">
      <g>
       <use style="stroke:#000000;stroke-width:0.8;" x="322.15836" xlink:href="#m3db249afbc" y="307.584"/>
      </g>
     </g>
     <g id="text_7">
      <!-- 120 -->
      <g transform="translate(312.61461 322.182437)scale(0.1 -0.1)">
       <use xlink:href="#DejaVuSans-49"/>
       <use x="63.623047" xlink:href="#DejaVuSans-50"/>
       <use x="127.246094" xlink:href="#DejaVuSans-48"/>
      </g>
     </g>
    </g>
    <g id="xtick_8">
     <g id="line2d_8">
      <g>
       <use style="stroke:#000000;stroke-width:0.8;" x="365.568272" xlink:href="#m3db249afbc" y="307.584"/>
      </g>
     </g>
     <g id="text_8">
      <!-- 140 -->
      <g transform="translate(356.024522 322.182437)scale(0.1 -0.1)">
       <use xlink:href="#DejaVuSans-49"/>
       <use x="63.623047" xlink:href="#DejaVuSans-52"/>
       <use x="127.246094" xlink:href="#DejaVuSans-48"/>
      </g>
     </g>
    </g>
    <g id="xtick_9">
     <g id="line2d_9">
      <g>
       <use style="stroke:#000000;stroke-width:0.8;" x="408.978185" xlink:href="#m3db249afbc" y="307.584"/>
      </g>
     </g>
     <g id="text_9">
      <!-- 160 -->
      <g transform="translate(399.434435 322.182437)scale(0.1 -0.1)">
       <use xlink:href="#DejaVuSans-49"/>
       <use x="63.623047" xlink:href="#DejaVuSans-54"/>
       <use x="127.246094" xlink:href="#DejaVuSans-48"/>
      </g>
     </g>
    </g>
   </g>
   <g id="matplotlib.axis_2">
    <g id="ytick_1">
     <g id="line2d_10">
      <defs>
       <path d="M 0 0 
L -3.5 0 
" id="m55b3c92ee7" style="stroke:#000000;stroke-width:0.8;"/>
      </defs>
      <g>
       <use style="stroke:#000000;stroke-width:0.8;" x="57.6" xlink:href="#m55b3c92ee7" y="297.28499"/>
      </g>
     </g>
     <g id="text_10">
      <!-- −20 -->
      <g transform="translate(29.495313 301.084208)scale(0.1 -0.1)">
       <defs>
        <path d="M 10.59375 35.5 
L 73.1875 35.5 
L 73.1875 27.203125 
L 10.59375 27.203125 
z
" id="DejaVuSans-8722"/>
       </defs>
       <use xlink:href="#DejaVuSans-8722"/>
       <use x="83.789062" xlink:href="#DejaVuSans-50"/>
       <use x="147.412109" xlink:href="#DejaVuSans-48"/>
      </g>
     </g>
    </g>
    <g id="ytick_2">
     <g id="line2d_11">
      <g>
       <use style="stroke:#000000;stroke-width:0.8;" x="57.6" xlink:href="#m55b3c92ee7" y="253.875077"/>
      </g>
     </g>
     <g id="text_11">
      <!-- 0 -->
      <g transform="translate(44.2375 257.674296)scale(0.1 -0.1)">
       <use xlink:href="#DejaVuSans-48"/>
      </g>
     </g>
    </g>
    <g id="ytick_3">
     <g id="line2d_12">
      <g>
       <use style="stroke:#000000;stroke-width:0.8;" x="57.6" xlink:href="#m55b3c92ee7" y="210.465164"/>
      </g>
     </g>
     <g id="text_12">
      <!-- 20 -->
      <g transform="translate(37.875 214.264383)scale(0.1 -0.1)">
       <use xlink:href="#DejaVuSans-50"/>
       <use x="63.623047" xlink:href="#DejaVuSans-48"/>
      </g>
     </g>
    </g>
    <g id="ytick_4">
     <g id="line2d_13">
      <g>
       <use style="stroke:#000000;stroke-width:0.8;" x="57.6" xlink:href="#m55b3c92ee7" y="167.055251"/>
      </g>
     </g>
     <g id="text_13">
      <!-- 40 -->
      <g transform="translate(37.875 170.85447)scale(0.1 -0.1)">
       <use xlink:href="#DejaVuSans-52"/>
       <use x="63.623047" xlink:href="#DejaVuSans-48"/>
      </g>
     </g>
    </g>
    <g id="ytick_5">
     <g id="line2d_14">
      <g>
       <use style="stroke:#000000;stroke-width:0.8;" x="57.6" xlink:href="#m55b3c92ee7" y="123.645338"/>
      </g>
     </g>
     <g id="text_14">
      <!-- 60 -->
      <g transform="translate(37.875 127.444557)scale(0.1 -0.1)">
       <use xlink:href="#DejaVuSans-54"/>
       <use x="63.623047" xlink:href="#DejaVuSans-48"/>
      </g>
     </g>
    </g>
    <g id="ytick_6">
     <g id="line2d_15">
      <g>
       <use style="stroke:#000000;stroke-width:0.8;" x="57.6" xlink:href="#m55b3c92ee7" y="80.235425"/>
      </g>
     </g>
     <g id="text_15">
      <!-- 80 -->
      <g transform="translate(37.875 84.034644)scale(0.1 -0.1)">
       <use xlink:href="#DejaVuSans-56"/>
       <use x="63.623047" xlink:href="#DejaVuSans-48"/>
      </g>
     </g>
    </g>
   </g>
   <g id="line2d_16">
    <path clip-path="url(#p140137787d)" d="M 83.403839 232.17012 
L 82.7961 227.761844 
L 82.529129 223.390465 
L 82.568198 219.051645 
L 82.876408 214.745381 
L 83.421203 210.465164 
L 84.165683 206.208822 
L 85.578675 199.860122 
L 87.243446 193.54398 
L 89.661378 185.159355 
L 90.98321 181.009367 
L 92.465658 176.926665 
L 94.18035 172.939465 
L 96.19457 169.075982 
L 98.56041 165.377458 
L 101.271359 161.898153 
L 104.303541 158.703184 
L 105.931413 157.231588 
L 107.630911 155.857664 
L 109.397695 154.585754 
L 111.231763 153.424538 
L 113.124436 152.38053 
L 117.070397 150.609406 
L 121.183486 149.192072 
L 125.411611 148.04388 
L 131.851472 146.652592 
L 140.420589 145.070301 
L 153.241707 142.958408 
L 161.832528 141.664793 
L 168.311458 140.9507 
L 172.648108 140.696752 
L 177.002122 140.679388 
L 181.356137 140.926824 
L 185.690616 141.445573 
L 189.979516 142.242145 
L 194.198959 143.31654 
L 198.322901 144.677441 
L 202.349171 146.300972 
L 206.284279 148.141552 
L 210.145591 150.155772 
L 215.821437 153.398492 
L 234.48987 164.46802 
L 238.349011 166.458365 
L 242.28412 168.305456 
L 246.295196 169.98542 
L 250.380069 171.483062 
L 254.543079 172.776678 
L 258.775546 173.846732 
L 263.068786 174.662838 
L 267.396755 175.201121 
L 271.746428 175.431194 
L 276.096101 175.32701 
L 280.42841 174.871206 
L 284.71731 174.074634 
L 288.943265 172.96117 
L 293.078059 171.550347 
L 297.102158 169.863872 
L 300.996027 167.92562 
L 304.766178 165.763806 
L 308.421293 163.408818 
L 311.972224 160.888873 
L 315.429823 158.234357 
L 328.988909 147.340639 
L 332.565886 144.914025 
L 336.309991 142.737018 
L 340.206031 140.809618 
L 344.225789 139.120972 
L 348.343219 137.651547 
L 352.525764 136.386148 
L 358.870123 134.810368 
L 373.668562 131.476486 
L 377.812038 130.300078 
L 381.883888 128.895767 
L 385.864577 127.196269 
L 389.738912 125.129957 
L 391.629414 123.936185 
L 393.487358 122.627376 
L 393.487358 122.627376 
" style="fill:none;stroke:#fea952;stroke-linecap:square;"/>
   </g>
   <g id="line2d_17">
    <path clip-path="url(#p140137787d)" d="M 74.82844 233.526347 
L 74.141278 228.448054 
L 73.847424 223.45985 
L 73.899961 218.563293 
L 74.250772 213.757846 
L 74.853605 209.060497 
L 75.661801 204.459303 
L 77.160525 197.736078 
L 78.883548 191.201134 
L 81.368767 182.588473 
L 82.789324 178.13934 
L 84.434925 173.627553 
L 86.401137 169.08451 
L 88.773456 164.569999 
L 90.129214 162.355371 
L 91.586212 160.206637 
L 93.154456 158.108109 
L 94.8283 156.078892 
L 96.601821 154.131079 
L 98.481382 152.262742 
L 100.473191 150.479948 
L 102.558444 148.811609 
L 104.753414 147.250395 
L 107.038386 145.822407 
L 109.367755 144.553386 
L 111.721958 143.436069 
L 116.445775 141.597704 
L 121.130512 140.178698 
L 125.735934 139.057322 
L 132.400795 137.70248 
L 143.281759 135.776523 
L 158.474638 133.368505 
L 165.34112 132.5081 
L 170.078663 132.123783 
L 174.91806 131.974051 
L 179.809352 132.1093 
L 184.694915 132.549242 
L 189.573021 133.300024 
L 194.386669 134.368067 
L 199.138956 135.765533 
L 203.715526 137.456544 
L 208.097824 139.377292 
L 212.304579 141.468811 
L 218.334655 144.807253 
L 225.929703 149.368034 
L 234.97983 154.803166 
L 240.31775 157.728434 
L 245.723979 160.333995 
L 249.386301 161.872351 
L 253.068435 163.22779 
L 256.788702 164.390141 
L 260.526293 165.343103 
L 264.286927 166.066737 
L 268.010406 166.540853 
L 271.711804 166.74928 
L 275.360784 166.676222 
L 279.010913 166.305721 
L 282.656289 165.640832 
L 286.278124 164.698371 
L 289.850676 163.49052 
L 293.355044 162.032145 
L 296.784099 160.33375 
L 300.15227 158.409306 
L 303.470424 156.276798 
L 306.749209 153.953677 
L 311.618567 150.156331 
L 322.073228 141.662557 
L 325.998437 138.837939 
L 330.190642 136.208211 
L 334.515785 133.901111 
L 338.954662 131.885628 
L 343.464689 130.144479 
L 348.012171 128.654466 
L 352.550007 127.397836 
L 359.16406 125.852655 
L 369.462294 123.581045 
L 373.279659 122.588419 
L 376.89455 121.470511 
L 380.316893 120.174473 
L 383.553877 118.650371 
L 386.629499 116.838461 
L 388.487443 115.529653 
L 388.487443 115.529653 
" style="fill:none;stroke:#ffffff;stroke-linecap:square;"/>
   </g>
   <g id="line2d_18">
    <path clip-path="url(#p140137787d)" d="M 91.979238 230.813893 
L 91.450922 227.075634 
L 91.210834 223.321081 
L 91.236435 219.539996 
L 91.502044 215.732916 
L 91.9888 211.869831 
L 92.669564 207.958341 
L 93.996826 201.984166 
L 95.603343 195.886826 
L 97.953988 187.730237 
L 99.827979 182.014307 
L 101.209032 178.478847 
L 102.761155 175.160443 
L 104.534605 172.050319 
L 106.592663 169.104558 
L 108.897111 166.39212 
L 111.389635 163.983227 
L 114.041975 161.921112 
L 116.881116 160.207673 
L 120.061757 158.759779 
L 123.577708 157.537401 
L 127.373849 156.50121 
L 133.504451 155.175765 
L 141.890185 153.627 
L 154.597109 151.533938 
L 162.925407 150.277716 
L 168.927557 149.610795 
L 172.812707 149.377174 
L 176.647522 149.354126 
L 180.458942 149.562325 
L 184.249314 150.007084 
L 187.981843 150.691176 
L 191.623172 151.607628 
L 195.197526 152.77737 
L 198.76439 154.208321 
L 202.335912 155.873771 
L 207.735436 158.74608 
L 213.190674 161.942623 
L 228.416522 171.04007 
L 232.503767 173.23485 
L 236.692177 175.293118 
L 241.013277 177.21071 
L 245.443491 178.948751 
L 249.989091 180.483139 
L 254.640483 181.787078 
L 259.424071 182.840237 
L 264.303816 183.601486 
L 269.268513 184.031917 
L 274.304692 184.096119 
L 279.347722 183.756924 
L 284.331824 183.018522 
L 289.202395 181.910295 
L 293.963967 180.459035 
L 298.588831 178.691056 
L 303.056338 176.634928 
L 307.32205 174.34064 
L 311.39664 171.850225 
L 315.307525 169.195084 
L 319.063506 166.415181 
L 324.358469 162.16322 
L 332.427457 155.601611 
L 335.51729 153.360292 
L 338.643996 151.375547 
L 341.96768 149.584751 
L 345.451112 147.988529 
L 349.084784 146.573777 
L 352.841618 145.333307 
L 356.716624 144.254484 
L 362.826017 142.826086 
L 373.690115 140.422447 
L 378.216135 139.235896 
L 382.818741 137.79262 
L 387.457618 136.002212 
L 389.767944 134.951303 
L 392.082169 133.775698 
L 394.374396 132.470878 
L 398.487273 129.725099 
L 398.487273 129.725099 
" style="fill:none;stroke:#ffffff;stroke-linecap:square;"/>
   </g>
   <g id="patch_3">
    <path d="M 57.6 307.584 
L 57.6 41.472 
" style="fill:none;stroke:#000000;stroke-linecap:square;stroke-linejoin:miter;stroke-width:0.8;"/>
   </g>
   <g id="patch_4">
    <path d="M 414.72 307.584 
L 414.72 41.472 
" style="fill:none;stroke:#000000;stroke-linecap:square;stroke-linejoin:miter;stroke-width:0.8;"/>
   </g>
   <g id="patch_5">
    <path d="M 57.6 307.584 
L 414.72 307.584 
" style="fill:none;stroke:#000000;stroke-linecap:square;stroke-linejoin:miter;stroke-width:0.8;"/>
   </g>
   <g id="patch_6">
    <path d="M 57.6 41.472 
L 414.72 41.472 
" style="fill:none;stroke:#000000;stroke-linecap:square;stroke-linejoin:miter;stroke-width:0.8;"/>
   </g>
  </g>
 </g>
 <defs>
  <clipPath id="p140137787d">
   <rect height="266.112" width="357.12" x="57.6" y="41.472"/>
  </clipPath>
 </defs>
</svg>
