<?xml version="1.0" encoding="utf-8" standalone="no"?>
<!DOCTYPE svg PUBLIC "-//W3C//DTD SVG 1.1//EN"
  "http://www.w3.org/Graphics/SVG/1.1/DTD/svg11.dtd">
<!-- Created with matplotlib (https://matplotlib.org/) -->
<svg height="345.6pt" version="1.1" viewBox="0 0 460.8 345.6" width="460.8pt" xmlns="http://www.w3.org/2000/svg" xmlns:xlink="http://www.w3.org/1999/xlink">
 <metadata>
  <rdf:RDF xmlns:cc="http://creativecommons.org/ns#" xmlns:dc="http://purl.org/dc/elements/1.1/" xmlns:rdf="http://www.w3.org/1999/02/22-rdf-syntax-ns#">
   <cc:Work>
    <dc:type rdf:resource="http://purl.org/dc/dcmitype/StillImage"/>
    <dc:date>2021-01-23T14:08:36.882769</dc:date>
    <dc:format>image/svg+xml</dc:format>
    <dc:creator>
     <cc:Agent>
      <dc:title>Matplotlib v3.3.3, https://matplotlib.org/</dc:title>
     </cc:Agent>
    </dc:creator>
   </cc:Work>
  </rdf:RDF>
 </metadata>
 <defs>
  <style type="text/css">*{stroke-linecap:butt;stroke-linejoin:round;}</style>
 </defs>
 <g id="figure_1">
  <g id="patch_1">
   <path d="M 0 345.6 
L 460.8 345.6 
L 460.8 0 
L 0 0 
z
" style="fill:#ffffff;"/>
  </g>
  <g id="axes_1">
   <g id="patch_2">
    <path d="M 57.6 307.584 
L 414.72 307.584 
L 414.72 41.472 
L 57.6 41.472 
z
" style="fill:#7d9051;"/>
   </g>
   <g id="matplotlib.axis_1">
    <g id="xtick_1">
     <g id="line2d_1">
      <defs>
       <path d="M 0 0 
L 0 3.5 
" id="m471a36bed2" style="stroke:#000000;stroke-width:0.8;"/>
      </defs>
      <g>
       <use style="stroke:#000000;stroke-width:0.8;" x="88.065752" xlink:href="#m471a36bed2" y="307.584"/>
      </g>
     </g>
     <g id="text_1">
      <!-- 0 -->
      <g transform="translate(84.884502 322.182437)scale(0.1 -0.1)">
       <defs>
        <path d="M 31.78125 66.40625 
Q 24.171875 66.40625 20.328125 58.90625 
Q 16.5 51.421875 16.5 36.375 
Q 16.5 21.390625 20.328125 13.890625 
Q 24.171875 6.390625 31.78125 6.390625 
Q 39.453125 6.390625 43.28125 13.890625 
Q 47.125 21.390625 47.125 36.375 
Q 47.125 51.421875 43.28125 58.90625 
Q 39.453125 66.40625 31.78125 66.40625 
z
M 31.78125 74.21875 
Q 44.046875 74.21875 50.515625 64.515625 
Q 56.984375 54.828125 56.984375 36.375 
Q 56.984375 17.96875 50.515625 8.265625 
Q 44.046875 -1.421875 31.78125 -1.421875 
Q 19.53125 -1.421875 13.0625 8.265625 
Q 6.59375 17.96875 6.59375 36.375 
Q 6.59375 54.828125 13.0625 64.515625 
Q 19.53125 74.21875 31.78125 74.21875 
z
" id="DejaVuSans-48"/>
       </defs>
       <use xlink:href="#DejaVuSans-48"/>
      </g>
     </g>
    </g>
    <g id="xtick_2">
     <g id="line2d_2">
      <g>
       <use style="stroke:#000000;stroke-width:0.8;" x="142.557704" xlink:href="#m471a36bed2" y="307.584"/>
      </g>
     </g>
     <g id="text_2">
      <!-- 20 -->
      <g transform="translate(136.195204 322.182437)scale(0.1 -0.1)">
       <defs>
        <path d="M 19.1875 8.296875 
L 53.609375 8.296875 
L 53.609375 0 
L 7.328125 0 
L 7.328125 8.296875 
Q 12.9375 14.109375 22.625 23.890625 
Q 32.328125 33.6875 34.8125 36.53125 
Q 39.546875 41.84375 41.421875 45.53125 
Q 43.3125 49.21875 43.3125 52.78125 
Q 43.3125 58.59375 39.234375 62.25 
Q 35.15625 65.921875 28.609375 65.921875 
Q 23.96875 65.921875 18.8125 64.3125 
Q 13.671875 62.703125 7.8125 59.421875 
L 7.8125 69.390625 
Q 13.765625 71.78125 18.9375 73 
Q 24.125 74.21875 28.421875 74.21875 
Q 39.75 74.21875 46.484375 68.546875 
Q 53.21875 62.890625 53.21875 53.421875 
Q 53.21875 48.921875 51.53125 44.890625 
Q 49.859375 40.875 45.40625 35.40625 
Q 44.1875 33.984375 37.640625 27.21875 
Q 31.109375 20.453125 19.1875 8.296875 
z
" id="DejaVuSans-50"/>
       </defs>
       <use xlink:href="#DejaVuSans-50"/>
       <use x="63.623047" xlink:href="#DejaVuSans-48"/>
      </g>
     </g>
    </g>
    <g id="xtick_3">
     <g id="line2d_3">
      <g>
       <use style="stroke:#000000;stroke-width:0.8;" x="197.049656" xlink:href="#m471a36bed2" y="307.584"/>
      </g>
     </g>
     <g id="text_3">
      <!-- 40 -->
      <g transform="translate(190.687156 322.182437)scale(0.1 -0.1)">
       <defs>
        <path d="M 37.796875 64.3125 
L 12.890625 25.390625 
L 37.796875 25.390625 
z
M 35.203125 72.90625 
L 47.609375 72.90625 
L 47.609375 25.390625 
L 58.015625 25.390625 
L 58.015625 17.1875 
L 47.609375 17.1875 
L 47.609375 0 
L 37.796875 0 
L 37.796875 17.1875 
L 4.890625 17.1875 
L 4.890625 26.703125 
z
" id="DejaVuSans-52"/>
       </defs>
       <use xlink:href="#DejaVuSans-52"/>
       <use x="63.623047" xlink:href="#DejaVuSans-48"/>
      </g>
     </g>
    </g>
    <g id="xtick_4">
     <g id="line2d_4">
      <g>
       <use style="stroke:#000000;stroke-width:0.8;" x="251.541608" xlink:href="#m471a36bed2" y="307.584"/>
      </g>
     </g>
     <g id="text_4">
      <!-- 60 -->
      <g transform="translate(245.179108 322.182437)scale(0.1 -0.1)">
       <defs>
        <path d="M 33.015625 40.375 
Q 26.375 40.375 22.484375 35.828125 
Q 18.609375 31.296875 18.609375 23.390625 
Q 18.609375 15.53125 22.484375 10.953125 
Q 26.375 6.390625 33.015625 6.390625 
Q 39.65625 6.390625 43.53125 10.953125 
Q 47.40625 15.53125 47.40625 23.390625 
Q 47.40625 31.296875 43.53125 35.828125 
Q 39.65625 40.375 33.015625 40.375 
z
M 52.59375 71.296875 
L 52.59375 62.3125 
Q 48.875 64.0625 45.09375 64.984375 
Q 41.3125 65.921875 37.59375 65.921875 
Q 27.828125 65.921875 22.671875 59.328125 
Q 17.53125 52.734375 16.796875 39.40625 
Q 19.671875 43.65625 24.015625 45.921875 
Q 28.375 48.1875 33.59375 48.1875 
Q 44.578125 48.1875 50.953125 41.515625 
Q 57.328125 34.859375 57.328125 23.390625 
Q 57.328125 12.15625 50.6875 5.359375 
Q 44.046875 -1.421875 33.015625 -1.421875 
Q 20.359375 -1.421875 13.671875 8.265625 
Q 6.984375 17.96875 6.984375 36.375 
Q 6.984375 53.65625 15.1875 63.9375 
Q 23.390625 74.21875 37.203125 74.21875 
Q 40.921875 74.21875 44.703125 73.484375 
Q 48.484375 72.75 52.59375 71.296875 
z
" id="DejaVuSans-54"/>
       </defs>
       <use xlink:href="#DejaVuSans-54"/>
       <use x="63.623047" xlink:href="#DejaVuSans-48"/>
      </g>
     </g>
    </g>
    <g id="xtick_5">
     <g id="line2d_5">
      <g>
       <use style="stroke:#000000;stroke-width:0.8;" x="306.03356" xlink:href="#m471a36bed2" y="307.584"/>
      </g>
     </g>
     <g id="text_5">
      <!-- 80 -->
      <g transform="translate(299.67106 322.182437)scale(0.1 -0.1)">
       <defs>
        <path d="M 31.78125 34.625 
Q 24.75 34.625 20.71875 30.859375 
Q 16.703125 27.09375 16.703125 20.515625 
Q 16.703125 13.921875 20.71875 10.15625 
Q 24.75 6.390625 31.78125 6.390625 
Q 38.8125 6.390625 42.859375 10.171875 
Q 46.921875 13.96875 46.921875 20.515625 
Q 46.921875 27.09375 42.890625 30.859375 
Q 38.875 34.625 31.78125 34.625 
z
M 21.921875 38.8125 
Q 15.578125 40.375 12.03125 44.71875 
Q 8.5 49.078125 8.5 55.328125 
Q 8.5 64.0625 14.71875 69.140625 
Q 20.953125 74.21875 31.78125 74.21875 
Q 42.671875 74.21875 48.875 69.140625 
Q 55.078125 64.0625 55.078125 55.328125 
Q 55.078125 49.078125 51.53125 44.71875 
Q 48 40.375 41.703125 38.8125 
Q 48.828125 37.15625 52.796875 32.3125 
Q 56.78125 27.484375 56.78125 20.515625 
Q 56.78125 9.90625 50.3125 4.234375 
Q 43.84375 -1.421875 31.78125 -1.421875 
Q 19.734375 -1.421875 13.25 4.234375 
Q 6.78125 9.90625 6.78125 20.515625 
Q 6.78125 27.484375 10.78125 32.3125 
Q 14.796875 37.15625 21.921875 38.8125 
z
M 18.3125 54.390625 
Q 18.3125 48.734375 21.84375 45.5625 
Q 25.390625 42.390625 31.78125 42.390625 
Q 38.140625 42.390625 41.71875 45.5625 
Q 45.3125 48.734375 45.3125 54.390625 
Q 45.3125 60.0625 41.71875 63.234375 
Q 38.140625 66.40625 31.78125 66.40625 
Q 25.390625 66.40625 21.84375 63.234375 
Q 18.3125 60.0625 18.3125 54.390625 
z
" id="DejaVuSans-56"/>
       </defs>
       <use xlink:href="#DejaVuSans-56"/>
       <use x="63.623047" xlink:href="#DejaVuSans-48"/>
      </g>
     </g>
    </g>
    <g id="xtick_6">
     <g id="line2d_6">
      <g>
       <use style="stroke:#000000;stroke-width:0.8;" x="360.525512" xlink:href="#m471a36bed2" y="307.584"/>
      </g>
     </g>
     <g id="text_6">
      <!-- 100 -->
      <g transform="translate(350.981762 322.182437)scale(0.1 -0.1)">
       <defs>
        <path d="M 12.40625 8.296875 
L 28.515625 8.296875 
L 28.515625 63.921875 
L 10.984375 60.40625 
L 10.984375 69.390625 
L 28.421875 72.90625 
L 38.28125 72.90625 
L 38.28125 8.296875 
L 54.390625 8.296875 
L 54.390625 0 
L 12.40625 0 
z
" id="DejaVuSans-49"/>
       </defs>
       <use xlink:href="#DejaVuSans-49"/>
       <use x="63.623047" xlink:href="#DejaVuSans-48"/>
       <use x="127.246094" xlink:href="#DejaVuSans-48"/>
      </g>
     </g>
    </g>
   </g>
   <g id="matplotlib.axis_2">
    <g id="ytick_1">
     <g id="line2d_7">
      <defs>
       <path d="M 0 0 
L -3.5 0 
" id="m771b434084" style="stroke:#000000;stroke-width:0.8;"/>
      </defs>
      <g>
       <use style="stroke:#000000;stroke-width:0.8;" x="57.6" xlink:href="#m771b434084" y="267.154395"/>
      </g>
     </g>
     <g id="text_7">
      <!-- 20 -->
      <g transform="translate(37.875 270.953614)scale(0.1 -0.1)">
       <use xlink:href="#DejaVuSans-50"/>
       <use x="63.623047" xlink:href="#DejaVuSans-48"/>
      </g>
     </g>
    </g>
    <g id="ytick_2">
     <g id="line2d_8">
      <g>
       <use style="stroke:#000000;stroke-width:0.8;" x="57.6" xlink:href="#m771b434084" y="212.662443"/>
      </g>
     </g>
     <g id="text_8">
      <!-- 40 -->
      <g transform="translate(37.875 216.461662)scale(0.1 -0.1)">
       <use xlink:href="#DejaVuSans-52"/>
       <use x="63.623047" xlink:href="#DejaVuSans-48"/>
      </g>
     </g>
    </g>
    <g id="ytick_3">
     <g id="line2d_9">
      <g>
       <use style="stroke:#000000;stroke-width:0.8;" x="57.6" xlink:href="#m771b434084" y="158.170491"/>
      </g>
     </g>
     <g id="text_9">
      <!-- 60 -->
      <g transform="translate(37.875 161.96971)scale(0.1 -0.1)">
       <use xlink:href="#DejaVuSans-54"/>
       <use x="63.623047" xlink:href="#DejaVuSans-48"/>
      </g>
     </g>
    </g>
    <g id="ytick_4">
     <g id="line2d_10">
      <g>
       <use style="stroke:#000000;stroke-width:0.8;" x="57.6" xlink:href="#m771b434084" y="103.678539"/>
      </g>
     </g>
     <g id="text_10">
      <!-- 80 -->
      <g transform="translate(37.875 107.477758)scale(0.1 -0.1)">
       <use xlink:href="#DejaVuSans-56"/>
       <use x="63.623047" xlink:href="#DejaVuSans-48"/>
      </g>
     </g>
    </g>
    <g id="ytick_5">
     <g id="line2d_11">
      <g>
       <use style="stroke:#000000;stroke-width:0.8;" x="57.6" xlink:href="#m771b434084" y="49.186587"/>
      </g>
     </g>
     <g id="text_11">
      <!-- 100 -->
      <g transform="translate(31.5125 52.985806)scale(0.1 -0.1)">
       <use xlink:href="#DejaVuSans-49"/>
       <use x="63.623047" xlink:href="#DejaVuSans-48"/>
       <use x="127.246094" xlink:href="#DejaVuSans-48"/>
      </g>
     </g>
    </g>
   </g>
   <g id="line2d_12">
    <path clip-path="url(#p12ac0782ff)" d="M 115.311728 294.400371 
L 114.834923 288.921205 
L 114.641477 283.458387 
L 114.68507 278.011916 
L 114.930284 272.579069 
L 115.581463 264.44342 
L 116.755764 253.613145 
L 118.254293 240.066446 
L 118.938167 231.91445 
L 119.374103 223.748831 
L 119.521231 215.575038 
L 119.35503 207.395796 
L 118.801937 191.04821 
L 118.840082 185.609913 
L 119.107092 180.17979 
L 119.578448 174.755117 
L 120.591998 166.635816 
L 121.864385 158.532862 
L 123.332943 150.45988 
L 124.520868 145.133291 
L 125.967629 139.877543 
L 127.75769 134.719879 
L 128.80666 132.186004 
L 129.970063 129.687548 
L 131.247899 127.232685 
L 132.634719 124.835039 
L 134.133248 122.505508 
L 135.74076 120.252266 
L 137.451808 118.086211 
L 139.269114 116.018241 
L 141.187231 114.059256 
L 143.206158 112.222877 
L 145.32317 110.514554 
L 147.532819 108.945186 
L 149.829655 107.506599 
L 152.202779 106.187893 
L 154.644019 104.972723 
L 159.687249 102.820291 
L 164.880332 100.956666 
L 172.784389 98.496354 
L 188.469898 93.793699 
L 193.592141 92.02816 
L 198.635372 90.047377 
L 203.602313 87.854076 
L 210.9669 84.298476 
L 223.224865 78.249869 
L 230.690262 74.871368 
L 235.733492 72.7925 
L 240.839388 70.893456 
L 246.010675 69.196032 
L 251.2528 67.730198 
L 256.565766 66.515028 
L 261.941397 65.566868 
L 267.37152 64.899341 
L 272.85341 64.531521 
L 278.37072 64.485202 
L 283.879857 64.801256 
L 289.329052 65.525999 
L 292.012781 66.057295 
L 294.661089 66.708474 
L 297.265805 67.484984 
L 299.824202 68.392275 
L 302.328107 69.435796 
L 304.780245 70.604649 
L 307.177891 71.890659 
L 311.826054 74.767834 
L 316.29167 77.980134 
L 320.582911 81.443098 
L 324.716126 85.072262 
L 328.696763 88.826757 
L 332.519373 92.717483 
L 336.175783 96.749887 
L 339.657819 100.934869 
L 342.96548 105.283327 
L 346.060623 109.797985 
L 348.896929 114.481568 
L 351.419907 119.336801 
L 353.572339 124.366409 
L 354.495977 126.946602 
L 355.307907 129.567665 
L 356.005404 132.229597 
L 356.585744 134.9215 
L 357.046201 137.635199 
L 357.384051 140.36797 
L 357.596569 143.11164 
L 357.683757 145.860759 
L 357.637438 148.604429 
L 357.46034 151.342649 
L 357.149735 154.061798 
L 356.697452 156.759149 
L 356.106215 159.42653 
L 355.370573 162.061216 
L 354.490528 164.649584 
L 353.46063 167.191634 
L 352.28088 169.676467 
L 350.945827 172.095909 
L 349.455472 174.449962 
L 347.80709 176.727725 
L 345.995233 178.921026 
L 345.995233 178.921026 
" style="fill:none;stroke:#fea952;stroke-linecap:square;"/>
   </g>
   <g id="line2d_13">
    <path clip-path="url(#p12ac0782ff)" d="M 104.467744 295.488 
L 103.948991 289.442167 
L 103.743108 283.480184 
L 103.794177 277.607741 
L 104.057205 271.83673 
L 104.736728 263.363311 
L 105.929732 252.359375 
L 107.40301 239.05424 
L 108.062117 231.216988 
L 108.480613 223.422026 
L 108.623189 215.662135 
L 108.464485 207.809223 
L 107.903569 191.070051 
L 107.95002 185.183923 
L 108.241968 179.328907 
L 108.747381 173.545611 
L 109.812911 165.027646 
L 111.121401 156.698959 
L 112.672033 148.197156 
L 113.973319 142.390276 
L 115.608018 136.493258 
L 116.586139 133.522643 
L 117.688053 130.551266 
L 118.926872 127.585492 
L 120.302937 124.655492 
L 121.813944 121.776 
L 123.46897 118.938943 
L 125.26124 116.176023 
L 127.18873 113.4967 
L 129.265319 110.892024 
L 131.481988 108.393573 
L 133.854014 105.99707 
L 136.362107 103.741493 
L 139.012469 101.629175 
L 141.747823 99.708914 
L 144.536 97.980207 
L 147.346301 96.431381 
L 150.195627 95.023515 
L 155.884192 92.606982 
L 161.508149 90.59311 
L 169.713329 88.03961 
L 185.007091 83.46007 
L 189.730619 81.836812 
L 194.32115 80.03926 
L 198.956559 77.995481 
L 206.106046 74.544144 
L 218.60896 68.377264 
L 226.457661 64.828461 
L 231.842388 62.612411 
L 237.324318 60.577488 
L 242.956193 58.734433 
L 248.69169 57.13701 
L 254.531045 55.808262 
L 260.464033 54.769076 
L 266.484366 54.037119 
L 272.595023 53.636194 
L 278.800726 53.595298 
L 281.949309 53.726581 
L 285.098772 53.971244 
L 288.270093 54.3371 
L 291.445526 54.835094 
L 294.615018 55.474135 
L 297.774673 56.264313 
L 300.908453 57.213372 
L 304.016668 58.332547 
L 307.01751 59.597889 
L 309.931543 61.000533 
L 312.735407 62.515749 
L 315.43851 64.127439 
L 320.584765 67.591389 
L 325.402881 71.286939 
L 329.93726 75.119684 
L 334.279562 79.076198 
L 338.475202 83.192426 
L 342.512209 87.474116 
L 346.389982 91.942244 
L 350.07686 96.584057 
L 353.6127 101.477386 
L 356.923449 106.617842 
L 359.953605 112.026504 
L 361.353299 114.853205 
L 362.646765 117.739257 
L 363.833111 120.693334 
L 364.906328 123.721775 
L 365.850393 126.805254 
L 366.659028 129.932814 
L 367.330555 133.098334 
L 367.862248 136.298021 
L 368.249894 139.526326 
L 368.489483 142.766176 
L 368.580594 146.044718 
L 368.513106 149.30783 
L 368.288316 152.579512 
L 367.898076 155.864045 
L 367.337597 159.117588 
L 366.603112 162.357412 
L 365.688872 165.569438 
L 364.591411 168.741903 
L 363.305738 171.865901 
L 361.822953 174.9418 
L 360.153958 177.925594 
L 358.28444 180.839346 
L 356.209332 183.668708 
L 354.397475 185.862009 
L 354.397475 185.862009 
" style="fill:none;stroke:#ffffff;stroke-linecap:square;"/>
   </g>
   <g id="line2d_14">
    <path clip-path="url(#p12ac0782ff)" d="M 126.155711 293.312742 
L 125.720855 288.400243 
L 125.539845 283.43659 
L 125.575963 278.416092 
L 125.803363 273.321408 
L 126.426198 265.52353 
L 127.581797 254.866915 
L 129.105577 241.078652 
L 129.814217 232.611912 
L 130.267592 224.075635 
L 130.419273 215.487941 
L 130.245576 206.982369 
L 129.700306 191.02637 
L 129.730143 186.035904 
L 129.972216 181.030674 
L 130.409514 175.964622 
L 131.371084 168.243986 
L 132.607369 160.366766 
L 133.993853 152.722603 
L 135.068416 147.876307 
L 136.327239 143.261827 
L 137.827326 138.888492 
L 139.637189 134.719603 
L 141.800469 130.731135 
L 144.292791 127.007833 
L 145.638296 125.280398 
L 148.520448 122.121442 
L 150.050209 120.704261 
L 151.633871 119.399934 
L 153.317815 118.181459 
L 155.12331 117.03299 
L 159.09241 114.92193 
L 163.490306 113.033599 
L 168.252515 111.320222 
L 175.85545 108.953099 
L 191.932705 104.127328 
L 197.453664 102.219507 
L 202.949593 100.055494 
L 208.248067 97.712671 
L 215.827755 94.052809 
L 227.84077 88.122475 
L 234.922864 84.914276 
L 239.624597 82.97259 
L 244.354459 81.209424 
L 249.065156 79.657631 
L 253.813911 78.323386 
L 258.600486 77.221793 
L 263.418761 76.36466 
L 268.258673 75.761563 
L 273.111797 75.426848 
L 277.940714 75.375106 
L 282.660941 75.631268 
L 287.212578 76.216904 
L 291.547506 77.152636 
L 295.631736 78.452004 
L 297.638705 79.273703 
L 301.620375 81.265568 
L 305.602371 83.714379 
L 309.549375 86.542633 
L 313.469053 89.699485 
L 317.313617 93.070873 
L 320.995877 96.53852 
L 324.518735 100.1178 
L 327.872679 103.809163 
L 331.053979 107.624327 
L 334.059141 111.564412 
L 336.826121 115.585807 
L 339.312737 119.66984 
L 341.486515 123.820398 
L 343.311567 128.039483 
L 344.765422 132.330077 
L 345.840932 136.744665 
L 346.518208 141.209614 
L 346.786919 145.6768 
L 346.632363 150.105786 
L 346.401395 152.259551 
L 345.609317 156.495649 
L 345.052274 158.552995 
L 344.389645 160.557265 
L 343.615523 162.517367 
L 342.738806 164.411133 
L 341.737695 166.266224 
L 340.626504 168.060577 
L 339.404848 169.786743 
L 337.592991 171.980044 
L 337.592991 171.980044 
" style="fill:none;stroke:#ffffff;stroke-linecap:square;"/>
   </g>
   <g id="patch_3">
    <path d="M 57.6 307.584 
L 57.6 41.472 
" style="fill:none;stroke:#000000;stroke-linecap:square;stroke-linejoin:miter;stroke-width:0.8;"/>
   </g>
   <g id="patch_4">
    <path d="M 414.72 307.584 
L 414.72 41.472 
" style="fill:none;stroke:#000000;stroke-linecap:square;stroke-linejoin:miter;stroke-width:0.8;"/>
   </g>
   <g id="patch_5">
    <path d="M 57.6 307.584 
L 414.72 307.584 
" style="fill:none;stroke:#000000;stroke-linecap:square;stroke-linejoin:miter;stroke-width:0.8;"/>
   </g>
   <g id="patch_6">
    <path d="M 57.6 41.472 
L 414.72 41.472 
" style="fill:none;stroke:#000000;stroke-linecap:square;stroke-linejoin:miter;stroke-width:0.8;"/>
   </g>
  </g>
 </g>
 <defs>
  <clipPath id="p12ac0782ff">
   <rect height="266.112" width="357.12" x="57.6" y="41.472"/>
  </clipPath>
 </defs>
</svg>
