<?xml version="1.0" encoding="utf-8" standalone="no"?>
<!DOCTYPE svg PUBLIC "-//W3C//DTD SVG 1.1//EN"
  "http://www.w3.org/Graphics/SVG/1.1/DTD/svg11.dtd">
<!-- Created with matplotlib (https://matplotlib.org/) -->
<svg height="345.6pt" version="1.1" viewBox="0 0 460.8 345.6" width="460.8pt" xmlns="http://www.w3.org/2000/svg" xmlns:xlink="http://www.w3.org/1999/xlink">
 <metadata>
  <rdf:RDF xmlns:cc="http://creativecommons.org/ns#" xmlns:dc="http://purl.org/dc/elements/1.1/" xmlns:rdf="http://www.w3.org/1999/02/22-rdf-syntax-ns#">
   <cc:Work>
    <dc:type rdf:resource="http://purl.org/dc/dcmitype/StillImage"/>
    <dc:date>2021-01-23T12:32:01.919484</dc:date>
    <dc:format>image/svg+xml</dc:format>
    <dc:creator>
     <cc:Agent>
      <dc:title>Matplotlib v3.3.3, https://matplotlib.org/</dc:title>
     </cc:Agent>
    </dc:creator>
   </cc:Work>
  </rdf:RDF>
 </metadata>
 <defs>
  <style type="text/css">*{stroke-linecap:butt;stroke-linejoin:round;}</style>
 </defs>
 <g id="figure_1">
  <g id="patch_1">
   <path d="M 0 345.6 
L 460.8 345.6 
L 460.8 0 
L 0 0 
z
" style="fill:#ffffff;"/>
  </g>
  <g id="axes_1">
   <g id="patch_2">
    <path d="M 57.6 307.584 
L 414.72 307.584 
L 414.72 41.472 
L 57.6 41.472 
z
" style="fill:#7d9051;"/>
   </g>
   <g id="matplotlib.axis_1">
    <g id="xtick_1">
     <g id="line2d_1">
      <defs>
       <path d="M 0 0 
L 0 3.5 
" id="m0a90b6a9d9" style="stroke:#000000;stroke-width:0.8;"/>
      </defs>
      <g>
       <use style="stroke:#000000;stroke-width:0.8;" x="96.061343" xlink:href="#m0a90b6a9d9" y="307.584"/>
      </g>
     </g>
     <g id="text_1">
      <!-- −20 -->
      <g transform="translate(85.509 322.182437)scale(0.1 -0.1)">
       <defs>
        <path d="M 10.59375 35.5 
L 73.1875 35.5 
L 73.1875 27.203125 
L 10.59375 27.203125 
z
" id="DejaVuSans-8722"/>
        <path d="M 19.1875 8.296875 
L 53.609375 8.296875 
L 53.609375 0 
L 7.328125 0 
L 7.328125 8.296875 
Q 12.9375 14.109375 22.625 23.890625 
Q 32.328125 33.6875 34.8125 36.53125 
Q 39.546875 41.84375 41.421875 45.53125 
Q 43.3125 49.21875 43.3125 52.78125 
Q 43.3125 58.59375 39.234375 62.25 
Q 35.15625 65.921875 28.609375 65.921875 
Q 23.96875 65.921875 18.8125 64.3125 
Q 13.671875 62.703125 7.8125 59.421875 
L 7.8125 69.390625 
Q 13.765625 71.78125 18.9375 73 
Q 24.125 74.21875 28.421875 74.21875 
Q 39.75 74.21875 46.484375 68.546875 
Q 53.21875 62.890625 53.21875 53.421875 
Q 53.21875 48.921875 51.53125 44.890625 
Q 49.859375 40.875 45.40625 35.40625 
Q 44.1875 33.984375 37.640625 27.21875 
Q 31.109375 20.453125 19.1875 8.296875 
z
" id="DejaVuSans-50"/>
        <path d="M 31.78125 66.40625 
Q 24.171875 66.40625 20.328125 58.90625 
Q 16.5 51.421875 16.5 36.375 
Q 16.5 21.390625 20.328125 13.890625 
Q 24.171875 6.390625 31.78125 6.390625 
Q 39.453125 6.390625 43.28125 13.890625 
Q 47.125 21.390625 47.125 36.375 
Q 47.125 51.421875 43.28125 58.90625 
Q 39.453125 66.40625 31.78125 66.40625 
z
M 31.78125 74.21875 
Q 44.046875 74.21875 50.515625 64.515625 
Q 56.984375 54.828125 56.984375 36.375 
Q 56.984375 17.96875 50.515625 8.265625 
Q 44.046875 -1.421875 31.78125 -1.421875 
Q 19.53125 -1.421875 13.0625 8.265625 
Q 6.59375 17.96875 6.59375 36.375 
Q 6.59375 54.828125 13.0625 64.515625 
Q 19.53125 74.21875 31.78125 74.21875 
z
" id="DejaVuSans-48"/>
       </defs>
       <use xlink:href="#DejaVuSans-8722"/>
       <use x="83.789062" xlink:href="#DejaVuSans-50"/>
       <use x="147.412109" xlink:href="#DejaVuSans-48"/>
      </g>
     </g>
    </g>
    <g id="xtick_2">
     <g id="line2d_2">
      <g>
       <use style="stroke:#000000;stroke-width:0.8;" x="141.505744" xlink:href="#m0a90b6a9d9" y="307.584"/>
      </g>
     </g>
     <g id="text_2">
      <!-- 0 -->
      <g transform="translate(138.324494 322.182437)scale(0.1 -0.1)">
       <use xlink:href="#DejaVuSans-48"/>
      </g>
     </g>
    </g>
    <g id="xtick_3">
     <g id="line2d_3">
      <g>
       <use style="stroke:#000000;stroke-width:0.8;" x="186.950145" xlink:href="#m0a90b6a9d9" y="307.584"/>
      </g>
     </g>
     <g id="text_3">
      <!-- 20 -->
      <g transform="translate(180.587645 322.182437)scale(0.1 -0.1)">
       <use xlink:href="#DejaVuSans-50"/>
       <use x="63.623047" xlink:href="#DejaVuSans-48"/>
      </g>
     </g>
    </g>
    <g id="xtick_4">
     <g id="line2d_4">
      <g>
       <use style="stroke:#000000;stroke-width:0.8;" x="232.394546" xlink:href="#m0a90b6a9d9" y="307.584"/>
      </g>
     </g>
     <g id="text_4">
      <!-- 40 -->
      <g transform="translate(226.032046 322.182437)scale(0.1 -0.1)">
       <defs>
        <path d="M 37.796875 64.3125 
L 12.890625 25.390625 
L 37.796875 25.390625 
z
M 35.203125 72.90625 
L 47.609375 72.90625 
L 47.609375 25.390625 
L 58.015625 25.390625 
L 58.015625 17.1875 
L 47.609375 17.1875 
L 47.609375 0 
L 37.796875 0 
L 37.796875 17.1875 
L 4.890625 17.1875 
L 4.890625 26.703125 
z
" id="DejaVuSans-52"/>
       </defs>
       <use xlink:href="#DejaVuSans-52"/>
       <use x="63.623047" xlink:href="#DejaVuSans-48"/>
      </g>
     </g>
    </g>
    <g id="xtick_5">
     <g id="line2d_5">
      <g>
       <use style="stroke:#000000;stroke-width:0.8;" x="277.838947" xlink:href="#m0a90b6a9d9" y="307.584"/>
      </g>
     </g>
     <g id="text_5">
      <!-- 60 -->
      <g transform="translate(271.476447 322.182437)scale(0.1 -0.1)">
       <defs>
        <path d="M 33.015625 40.375 
Q 26.375 40.375 22.484375 35.828125 
Q 18.609375 31.296875 18.609375 23.390625 
Q 18.609375 15.53125 22.484375 10.953125 
Q 26.375 6.390625 33.015625 6.390625 
Q 39.65625 6.390625 43.53125 10.953125 
Q 47.40625 15.53125 47.40625 23.390625 
Q 47.40625 31.296875 43.53125 35.828125 
Q 39.65625 40.375 33.015625 40.375 
z
M 52.59375 71.296875 
L 52.59375 62.3125 
Q 48.875 64.0625 45.09375 64.984375 
Q 41.3125 65.921875 37.59375 65.921875 
Q 27.828125 65.921875 22.671875 59.328125 
Q 17.53125 52.734375 16.796875 39.40625 
Q 19.671875 43.65625 24.015625 45.921875 
Q 28.375 48.1875 33.59375 48.1875 
Q 44.578125 48.1875 50.953125 41.515625 
Q 57.328125 34.859375 57.328125 23.390625 
Q 57.328125 12.15625 50.6875 5.359375 
Q 44.046875 -1.421875 33.015625 -1.421875 
Q 20.359375 -1.421875 13.671875 8.265625 
Q 6.984375 17.96875 6.984375 36.375 
Q 6.984375 53.65625 15.1875 63.9375 
Q 23.390625 74.21875 37.203125 74.21875 
Q 40.921875 74.21875 44.703125 73.484375 
Q 48.484375 72.75 52.59375 71.296875 
z
" id="DejaVuSans-54"/>
       </defs>
       <use xlink:href="#DejaVuSans-54"/>
       <use x="63.623047" xlink:href="#DejaVuSans-48"/>
      </g>
     </g>
    </g>
    <g id="xtick_6">
     <g id="line2d_6">
      <g>
       <use style="stroke:#000000;stroke-width:0.8;" x="323.283348" xlink:href="#m0a90b6a9d9" y="307.584"/>
      </g>
     </g>
     <g id="text_6">
      <!-- 80 -->
      <g transform="translate(316.920848 322.182437)scale(0.1 -0.1)">
       <defs>
        <path d="M 31.78125 34.625 
Q 24.75 34.625 20.71875 30.859375 
Q 16.703125 27.09375 16.703125 20.515625 
Q 16.703125 13.921875 20.71875 10.15625 
Q 24.75 6.390625 31.78125 6.390625 
Q 38.8125 6.390625 42.859375 10.171875 
Q 46.921875 13.96875 46.921875 20.515625 
Q 46.921875 27.09375 42.890625 30.859375 
Q 38.875 34.625 31.78125 34.625 
z
M 21.921875 38.8125 
Q 15.578125 40.375 12.03125 44.71875 
Q 8.5 49.078125 8.5 55.328125 
Q 8.5 64.0625 14.71875 69.140625 
Q 20.953125 74.21875 31.78125 74.21875 
Q 42.671875 74.21875 48.875 69.140625 
Q 55.078125 64.0625 55.078125 55.328125 
Q 55.078125 49.078125 51.53125 44.71875 
Q 48 40.375 41.703125 38.8125 
Q 48.828125 37.15625 52.796875 32.3125 
Q 56.78125 27.484375 56.78125 20.515625 
Q 56.78125 9.90625 50.3125 4.234375 
Q 43.84375 -1.421875 31.78125 -1.421875 
Q 19.734375 -1.421875 13.25 4.234375 
Q 6.78125 9.90625 6.78125 20.515625 
Q 6.78125 27.484375 10.78125 32.3125 
Q 14.796875 37.15625 21.921875 38.8125 
z
M 18.3125 54.390625 
Q 18.3125 48.734375 21.84375 45.5625 
Q 25.390625 42.390625 31.78125 42.390625 
Q 38.140625 42.390625 41.71875 45.5625 
Q 45.3125 48.734375 45.3125 54.390625 
Q 45.3125 60.0625 41.71875 63.234375 
Q 38.140625 66.40625 31.78125 66.40625 
Q 25.390625 66.40625 21.84375 63.234375 
Q 18.3125 60.0625 18.3125 54.390625 
z
" id="DejaVuSans-56"/>
       </defs>
       <use xlink:href="#DejaVuSans-56"/>
       <use x="63.623047" xlink:href="#DejaVuSans-48"/>
      </g>
     </g>
    </g>
    <g id="xtick_7">
     <g id="line2d_7">
      <g>
       <use style="stroke:#000000;stroke-width:0.8;" x="368.727749" xlink:href="#m0a90b6a9d9" y="307.584"/>
      </g>
     </g>
     <g id="text_7">
      <!-- 100 -->
      <g transform="translate(359.183999 322.182437)scale(0.1 -0.1)">
       <defs>
        <path d="M 12.40625 8.296875 
L 28.515625 8.296875 
L 28.515625 63.921875 
L 10.984375 60.40625 
L 10.984375 69.390625 
L 28.421875 72.90625 
L 38.28125 72.90625 
L 38.28125 8.296875 
L 54.390625 8.296875 
L 54.390625 0 
L 12.40625 0 
z
" id="DejaVuSans-49"/>
       </defs>
       <use xlink:href="#DejaVuSans-49"/>
       <use x="63.623047" xlink:href="#DejaVuSans-48"/>
       <use x="127.246094" xlink:href="#DejaVuSans-48"/>
      </g>
     </g>
    </g>
    <g id="xtick_8">
     <g id="line2d_8">
      <g>
       <use style="stroke:#000000;stroke-width:0.8;" x="414.17215" xlink:href="#m0a90b6a9d9" y="307.584"/>
      </g>
     </g>
     <g id="text_8">
      <!-- 120 -->
      <g transform="translate(404.6284 322.182437)scale(0.1 -0.1)">
       <use xlink:href="#DejaVuSans-49"/>
       <use x="63.623047" xlink:href="#DejaVuSans-50"/>
       <use x="127.246094" xlink:href="#DejaVuSans-48"/>
      </g>
     </g>
    </g>
   </g>
   <g id="matplotlib.axis_2">
    <g id="ytick_1">
     <g id="line2d_9">
      <defs>
       <path d="M 0 0 
L -3.5 0 
" id="mdee20dc879" style="stroke:#000000;stroke-width:0.8;"/>
      </defs>
      <g>
       <use style="stroke:#000000;stroke-width:0.8;" x="57.6" xlink:href="#mdee20dc879" y="270.689121"/>
      </g>
     </g>
     <g id="text_9">
      <!-- 20 -->
      <g transform="translate(37.875 274.48834)scale(0.1 -0.1)">
       <use xlink:href="#DejaVuSans-50"/>
       <use x="63.623047" xlink:href="#DejaVuSans-48"/>
      </g>
     </g>
    </g>
    <g id="ytick_2">
     <g id="line2d_10">
      <g>
       <use style="stroke:#000000;stroke-width:0.8;" x="57.6" xlink:href="#mdee20dc879" y="225.244721"/>
      </g>
     </g>
     <g id="text_10">
      <!-- 40 -->
      <g transform="translate(37.875 229.043939)scale(0.1 -0.1)">
       <use xlink:href="#DejaVuSans-52"/>
       <use x="63.623047" xlink:href="#DejaVuSans-48"/>
      </g>
     </g>
    </g>
    <g id="ytick_3">
     <g id="line2d_11">
      <g>
       <use style="stroke:#000000;stroke-width:0.8;" x="57.6" xlink:href="#mdee20dc879" y="179.80032"/>
      </g>
     </g>
     <g id="text_11">
      <!-- 60 -->
      <g transform="translate(37.875 183.599538)scale(0.1 -0.1)">
       <use xlink:href="#DejaVuSans-54"/>
       <use x="63.623047" xlink:href="#DejaVuSans-48"/>
      </g>
     </g>
    </g>
    <g id="ytick_4">
     <g id="line2d_12">
      <g>
       <use style="stroke:#000000;stroke-width:0.8;" x="57.6" xlink:href="#mdee20dc879" y="134.355919"/>
      </g>
     </g>
     <g id="text_12">
      <!-- 80 -->
      <g transform="translate(37.875 138.155137)scale(0.1 -0.1)">
       <use xlink:href="#DejaVuSans-56"/>
       <use x="63.623047" xlink:href="#DejaVuSans-48"/>
      </g>
     </g>
    </g>
    <g id="ytick_5">
     <g id="line2d_13">
      <g>
       <use style="stroke:#000000;stroke-width:0.8;" x="57.6" xlink:href="#mdee20dc879" y="88.911518"/>
      </g>
     </g>
     <g id="text_13">
      <!-- 100 -->
      <g transform="translate(31.5125 92.710737)scale(0.1 -0.1)">
       <use xlink:href="#DejaVuSans-49"/>
       <use x="63.623047" xlink:href="#DejaVuSans-48"/>
       <use x="127.246094" xlink:href="#DejaVuSans-48"/>
      </g>
     </g>
    </g>
    <g id="ytick_6">
     <g id="line2d_14">
      <g>
       <use style="stroke:#000000;stroke-width:0.8;" x="57.6" xlink:href="#mdee20dc879" y="43.467117"/>
      </g>
     </g>
     <g id="text_14">
      <!-- 120 -->
      <g transform="translate(31.5125 47.266336)scale(0.1 -0.1)">
       <use xlink:href="#DejaVuSans-49"/>
       <use x="63.623047" xlink:href="#DejaVuSans-50"/>
       <use x="127.246094" xlink:href="#DejaVuSans-48"/>
      </g>
     </g>
    </g>
   </g>
   <g id="line2d_15">
    <path clip-path="url(#pea3a63ef9d)" d="M 306.90973 293.411322 
L 307.432341 291.184546 
L 307.834524 288.935048 
L 308.116279 286.662828 
L 308.282151 284.379247 
L 308.33214 282.086577 
L 308.095829 277.498965 
L 307.423252 272.940891 
L 306.330314 268.462346 
L 304.832921 264.101955 
L 302.949251 259.905165 
L 300.692936 255.919691 
L 298.082155 252.184161 
L 296.648385 250.425463 
L 293.54226 247.133016 
L 290.186191 244.083697 
L 286.650616 241.207066 
L 272.219747 230.016383 
L 267.066352 225.560559 
L 263.751183 222.458979 
L 260.54508 219.232426 
L 251.054017 209.40053 
L 247.670681 206.38075 
L 244.04649 203.640452 
L 240.165539 201.231899 
L 236.068726 199.168723 
L 231.806041 197.460014 
L 227.422929 196.117132 
L 222.962561 195.144622 
L 218.463565 194.476589 
L 204.934767 192.806507 
L 200.490304 191.865808 
L 196.118553 190.566098 
L 191.860413 188.902833 
L 187.745422 186.882829 
L 183.812209 184.506087 
L 180.09713 181.777151 
L 176.645627 178.711926 
L 175.036895 177.060022 
L 173.514508 175.333135 
L 172.085282 173.533537 
L 170.758305 171.6635 
L 169.538123 169.727568 
L 168.436096 167.728014 
L 167.454497 165.669383 
L 166.600142 163.551674 
L 165.873032 161.386248 
L 165.268622 159.17765 
L 164.784639 156.932697 
L 164.416539 154.662749 
L 164.021173 150.072865 
L 164.057528 145.467075 
L 164.498339 140.904457 
L 165.311794 136.416822 
L 166.456993 132.008715 
L 167.893036 127.680136 
L 169.579023 123.431085 
L 171.476327 119.266105 
L 173.566769 115.196559 
L 175.859439 111.247441 
L 178.363426 107.446017 
L 181.092362 103.812737 
L 184.050792 100.372596 
L 187.225084 97.123321 
L 190.572064 94.042191 
L 194.055377 91.097393 
L 199.438267 86.875609 
L 206.75936 81.499536 
L 212.360382 77.625401 
L 218.077288 73.87851 
L 223.939615 70.292947 
L 227.959173 68.107071 
L 232.090069 66.189317 
L 236.352753 64.621486 
L 238.538629 63.996625 
L 240.763132 63.492192 
L 243.021719 63.105915 
L 245.303028 62.837793 
L 247.600243 62.685554 
L 249.904274 62.651471 
L 252.208305 62.730998 
L 254.505519 62.924137 
L 256.784556 63.233159 
L 259.038598 63.651248 
L 261.26083 64.182947 
L 265.587136 65.559912 
L 269.774838 67.302705 
L 273.848929 69.33407 
L 277.836675 71.581296 
L 283.714908 75.194125 
L 293.44001 81.235958 
L 297.382312 83.442284 
L 301.395052 85.416843 
L 301.395052 85.416843 
" style="fill:none;stroke:#fea952;stroke-linecap:square;"/>
   </g>
   <g id="line2d_16">
    <path clip-path="url(#pea3a63ef9d)" d="M 298.061276 291.334644 
L 298.814723 287.816593 
L 299.195431 284.181122 
L 299.205311 280.474295 
L 298.85296 276.745073 
L 298.149642 273.044921 
L 297.103821 269.409897 
L 295.732506 265.889061 
L 294.062205 262.543132 
L 292.105461 259.399756 
L 289.897211 256.510642 
L 287.319033 253.757153 
L 284.376565 251.073403 
L 281.093758 248.399358 
L 266.376196 236.977751 
L 260.913652 232.250255 
L 257.36538 228.926534 
L 253.961755 225.49881 
L 244.887319 216.077324 
L 242.018469 213.49835 
L 239.084567 211.255376 
L 235.903859 209.259715 
L 232.5156 207.53431 
L 228.961606 206.092333 
L 225.307983 204.956518 
L 221.509606 204.116615 
L 217.392127 203.502095 
L 203.224093 201.732948 
L 198.079697 200.629182 
L 192.990726 199.099822 
L 190.489394 198.174445 
L 188.031659 197.145914 
L 185.601771 196.008014 
L 183.21285 194.760871 
L 180.88873 193.41406 
L 178.600079 191.951988 
L 176.380357 190.386665 
L 174.225034 188.714459 
L 172.141342 186.937288 
L 170.134296 185.053086 
L 168.219092 183.070454 
L 166.397165 180.985671 
L 164.672961 178.793312 
L 163.069258 176.509765 
L 161.578124 174.114613 
L 160.232115 171.639847 
L 159.0257 169.069842 
L 157.984023 166.44481 
L 157.106494 163.785322 
L 156.383868 161.093088 
L 155.812955 158.387565 
L 155.382377 155.65857 
L 155.092968 152.938785 
L 154.933285 150.207169 
L 154.90247 147.488278 
L 154.993702 144.792683 
L 155.202743 142.102678 
L 155.951449 136.847031 
L 157.090027 131.765488 
L 158.56006 126.838137 
L 160.304661 122.083206 
L 162.275943 117.477044 
L 164.463252 112.967504 
L 166.888538 108.537889 
L 169.568161 104.216895 
L 172.522225 100.029265 
L 175.75697 96.018037 
L 179.207748 92.275758 
L 182.801626 88.806612 
L 186.495146 85.561232 
L 192.10114 81.047503 
L 197.73265 76.806829 
L 205.372725 71.385031 
L 211.237354 67.472461 
L 217.351299 63.625552 
L 221.699688 61.131983 
L 226.333376 58.796948 
L 228.753764 57.734921 
L 231.266416 56.754084 
L 233.854646 55.882652 
L 236.528646 55.132782 
L 239.230943 54.53339 
L 241.960806 54.079165 
L 244.702017 53.768806 
L 247.465806 53.597668 
L 250.217806 53.568 
L 252.969768 53.674072 
L 255.726735 53.917674 
L 258.442124 54.296705 
L 261.153544 54.811861 
L 263.814089 55.460068 
L 266.400842 56.227609 
L 268.913891 57.101754 
L 273.708174 59.109012 
L 278.228337 61.369867 
L 282.511543 63.786852 
L 288.581136 67.517696 
L 297.961132 73.351341 
L 301.516814 75.348235 
L 305.284683 77.202313 
L 305.284683 77.202313 
" style="fill:none;stroke:#ffffff;stroke-linecap:square;"/>
   </g>
   <g id="line2d_17">
    <path clip-path="url(#pea3a63ef9d)" d="M 315.758185 295.488 
L 316.37935 292.784163 
L 316.854324 290.053504 
L 317.181277 287.321281 
L 317.368872 284.577372 
L 317.41753 281.834705 
L 317.331725 279.108975 
L 317.115349 276.378249 
L 316.770643 273.68115 
L 316.299894 270.988209 
L 315.706174 268.333322 
L 314.991342 265.706564 
L 314.15712 263.115777 
L 313.20719 260.569341 
L 312.142827 258.070343 
L 310.960114 255.611703 
L 309.668599 253.222647 
L 308.263681 250.890618 
L 306.753703 248.63593 
L 305.126687 246.441138 
L 303.399558 244.340284 
L 301.600542 242.358393 
L 297.889591 238.753432 
L 294.098903 235.519915 
L 288.485917 231.166791 
L 281.435432 225.778116 
L 276.425578 221.68158 
L 271.661965 217.440557 
L 268.641342 214.517009 
L 262.427418 207.989901 
L 259.030065 204.48526 
L 255.32441 200.979471 
L 253.322894 199.263149 
L 251.202329 197.592214 
L 249.008414 196.025529 
L 246.757204 194.56916 
L 244.427219 193.204083 
L 242.053842 191.953644 
L 239.621851 190.803137 
L 234.650476 188.827695 
L 232.106025 187.997732 
L 226.95705 186.667867 
L 221.934289 185.77399 
L 214.92489 184.927259 
L 208.577733 184.176419 
L 204.758061 183.525199 
L 201.061168 182.604299 
L 197.45776 181.385375 
L 193.960892 179.866265 
L 190.621185 178.061201 
L 187.472177 175.98519 
L 184.530976 173.635862 
L 181.854699 171.04959 
L 179.497603 168.273761 
L 177.498122 165.340523 
L 175.883294 162.268924 
L 174.63957 158.987175 
L 173.756322 155.477829 
L 173.235677 151.810462 
L 173.071708 148.044845 
L 173.253147 144.250676 
L 173.767795 140.453799 
L 174.601504 136.641872 
L 175.721802 132.830264 
L 177.112864 129.005293 
L 178.73169 125.199697 
L 180.529855 121.470166 
L 182.485409 117.8743 
L 184.60017 114.437935 
L 186.876757 111.181772 
L 189.327106 108.112762 
L 192.015867 105.174714 
L 194.956894 102.322544 
L 198.1073 99.546541 
L 203.158019 95.475823 
L 210.20973 90.208228 
L 217.404083 85.186408 
L 224.772654 80.399151 
L 228.38569 78.220126 
L 231.936632 76.279437 
L 235.426373 74.643713 
L 238.850861 73.360319 
L 242.295322 72.450994 
L 245.904039 71.90678 
L 249.590742 71.734941 
L 253.284304 71.9306 
L 256.923653 72.490634 
L 260.483479 73.415273 
L 264.039886 74.710472 
L 267.647755 76.35897 
L 271.308768 78.307402 
L 276.936958 81.671959 
L 288.918888 89.120576 
L 293.247809 91.536333 
L 297.505421 93.631374 
L 297.505421 93.631374 
" style="fill:none;stroke:#ffffff;stroke-linecap:square;"/>
   </g>
   <g id="patch_3">
    <path d="M 57.6 307.584 
L 57.6 41.472 
" style="fill:none;stroke:#000000;stroke-linecap:square;stroke-linejoin:miter;stroke-width:0.8;"/>
   </g>
   <g id="patch_4">
    <path d="M 414.72 307.584 
L 414.72 41.472 
" style="fill:none;stroke:#000000;stroke-linecap:square;stroke-linejoin:miter;stroke-width:0.8;"/>
   </g>
   <g id="patch_5">
    <path d="M 57.6 307.584 
L 414.72 307.584 
" style="fill:none;stroke:#000000;stroke-linecap:square;stroke-linejoin:miter;stroke-width:0.8;"/>
   </g>
   <g id="patch_6">
    <path d="M 57.6 41.472 
L 414.72 41.472 
" style="fill:none;stroke:#000000;stroke-linecap:square;stroke-linejoin:miter;stroke-width:0.8;"/>
   </g>
  </g>
 </g>
 <defs>
  <clipPath id="pea3a63ef9d">
   <rect height="266.112" width="357.12" x="57.6" y="41.472"/>
  </clipPath>
 </defs>
</svg>
