<?xml version="1.0" encoding="utf-8" standalone="no"?>
<!DOCTYPE svg PUBLIC "-//W3C//DTD SVG 1.1//EN"
  "http://www.w3.org/Graphics/SVG/1.1/DTD/svg11.dtd">
<!-- Created with matplotlib (https://matplotlib.org/) -->
<svg height="345.6pt" version="1.1" viewBox="0 0 460.8 345.6" width="460.8pt" xmlns="http://www.w3.org/2000/svg" xmlns:xlink="http://www.w3.org/1999/xlink">
 <metadata>
  <rdf:RDF xmlns:cc="http://creativecommons.org/ns#" xmlns:dc="http://purl.org/dc/elements/1.1/" xmlns:rdf="http://www.w3.org/1999/02/22-rdf-syntax-ns#">
   <cc:Work>
    <dc:type rdf:resource="http://purl.org/dc/dcmitype/StillImage"/>
    <dc:date>2021-01-25T10:07:48.488601</dc:date>
    <dc:format>image/svg+xml</dc:format>
    <dc:creator>
     <cc:Agent>
      <dc:title>Matplotlib v3.3.3, https://matplotlib.org/</dc:title>
     </cc:Agent>
    </dc:creator>
   </cc:Work>
  </rdf:RDF>
 </metadata>
 <defs>
  <style type="text/css">*{stroke-linecap:butt;stroke-linejoin:round;}</style>
 </defs>
 <g id="figure_1">
  <g id="patch_1">
   <path d="M 0 345.6 
L 460.8 345.6 
L 460.8 0 
L 0 0 
z
" style="fill:#ffffff;"/>
  </g>
  <g id="axes_1">
   <g id="patch_2">
    <path d="M 57.6 307.584 
L 414.72 307.584 
L 414.72 41.472 
L 57.6 41.472 
z
" style="fill:#7d9051;"/>
   </g>
   <g id="matplotlib.axis_1">
    <g id="xtick_1">
     <g id="line2d_1">
      <defs>
       <path d="M 0 0 
L 0 3.5 
" id="mbda8e4c30b" style="stroke:#000000;stroke-width:0.8;"/>
      </defs>
      <g>
       <use style="stroke:#000000;stroke-width:0.8;" x="61.355761" xlink:href="#mbda8e4c30b" y="307.584"/>
      </g>
     </g>
     <g id="text_1">
      <!-- 0 -->
      <g transform="translate(58.174511 322.182437)scale(0.1 -0.1)">
       <defs>
        <path d="M 31.78125 66.40625 
Q 24.171875 66.40625 20.328125 58.90625 
Q 16.5 51.421875 16.5 36.375 
Q 16.5 21.390625 20.328125 13.890625 
Q 24.171875 6.390625 31.78125 6.390625 
Q 39.453125 6.390625 43.28125 13.890625 
Q 47.125 21.390625 47.125 36.375 
Q 47.125 51.421875 43.28125 58.90625 
Q 39.453125 66.40625 31.78125 66.40625 
z
M 31.78125 74.21875 
Q 44.046875 74.21875 50.515625 64.515625 
Q 56.984375 54.828125 56.984375 36.375 
Q 56.984375 17.96875 50.515625 8.265625 
Q 44.046875 -1.421875 31.78125 -1.421875 
Q 19.53125 -1.421875 13.0625 8.265625 
Q 6.59375 17.96875 6.59375 36.375 
Q 6.59375 54.828125 13.0625 64.515625 
Q 19.53125 74.21875 31.78125 74.21875 
z
" id="DejaVuSans-48"/>
       </defs>
       <use xlink:href="#DejaVuSans-48"/>
      </g>
     </g>
    </g>
    <g id="xtick_2">
     <g id="line2d_2">
      <g>
       <use style="stroke:#000000;stroke-width:0.8;" x="106.602113" xlink:href="#mbda8e4c30b" y="307.584"/>
      </g>
     </g>
     <g id="text_2">
      <!-- 20 -->
      <g transform="translate(100.239613 322.182437)scale(0.1 -0.1)">
       <defs>
        <path d="M 19.1875 8.296875 
L 53.609375 8.296875 
L 53.609375 0 
L 7.328125 0 
L 7.328125 8.296875 
Q 12.9375 14.109375 22.625 23.890625 
Q 32.328125 33.6875 34.8125 36.53125 
Q 39.546875 41.84375 41.421875 45.53125 
Q 43.3125 49.21875 43.3125 52.78125 
Q 43.3125 58.59375 39.234375 62.25 
Q 35.15625 65.921875 28.609375 65.921875 
Q 23.96875 65.921875 18.8125 64.3125 
Q 13.671875 62.703125 7.8125 59.421875 
L 7.8125 69.390625 
Q 13.765625 71.78125 18.9375 73 
Q 24.125 74.21875 28.421875 74.21875 
Q 39.75 74.21875 46.484375 68.546875 
Q 53.21875 62.890625 53.21875 53.421875 
Q 53.21875 48.921875 51.53125 44.890625 
Q 49.859375 40.875 45.40625 35.40625 
Q 44.1875 33.984375 37.640625 27.21875 
Q 31.109375 20.453125 19.1875 8.296875 
z
" id="DejaVuSans-50"/>
       </defs>
       <use xlink:href="#DejaVuSans-50"/>
       <use x="63.623047" xlink:href="#DejaVuSans-48"/>
      </g>
     </g>
    </g>
    <g id="xtick_3">
     <g id="line2d_3">
      <g>
       <use style="stroke:#000000;stroke-width:0.8;" x="151.848465" xlink:href="#mbda8e4c30b" y="307.584"/>
      </g>
     </g>
     <g id="text_3">
      <!-- 40 -->
      <g transform="translate(145.485965 322.182437)scale(0.1 -0.1)">
       <defs>
        <path d="M 37.796875 64.3125 
L 12.890625 25.390625 
L 37.796875 25.390625 
z
M 35.203125 72.90625 
L 47.609375 72.90625 
L 47.609375 25.390625 
L 58.015625 25.390625 
L 58.015625 17.1875 
L 47.609375 17.1875 
L 47.609375 0 
L 37.796875 0 
L 37.796875 17.1875 
L 4.890625 17.1875 
L 4.890625 26.703125 
z
" id="DejaVuSans-52"/>
       </defs>
       <use xlink:href="#DejaVuSans-52"/>
       <use x="63.623047" xlink:href="#DejaVuSans-48"/>
      </g>
     </g>
    </g>
    <g id="xtick_4">
     <g id="line2d_4">
      <g>
       <use style="stroke:#000000;stroke-width:0.8;" x="197.094818" xlink:href="#mbda8e4c30b" y="307.584"/>
      </g>
     </g>
     <g id="text_4">
      <!-- 60 -->
      <g transform="translate(190.732318 322.182437)scale(0.1 -0.1)">
       <defs>
        <path d="M 33.015625 40.375 
Q 26.375 40.375 22.484375 35.828125 
Q 18.609375 31.296875 18.609375 23.390625 
Q 18.609375 15.53125 22.484375 10.953125 
Q 26.375 6.390625 33.015625 6.390625 
Q 39.65625 6.390625 43.53125 10.953125 
Q 47.40625 15.53125 47.40625 23.390625 
Q 47.40625 31.296875 43.53125 35.828125 
Q 39.65625 40.375 33.015625 40.375 
z
M 52.59375 71.296875 
L 52.59375 62.3125 
Q 48.875 64.0625 45.09375 64.984375 
Q 41.3125 65.921875 37.59375 65.921875 
Q 27.828125 65.921875 22.671875 59.328125 
Q 17.53125 52.734375 16.796875 39.40625 
Q 19.671875 43.65625 24.015625 45.921875 
Q 28.375 48.1875 33.59375 48.1875 
Q 44.578125 48.1875 50.953125 41.515625 
Q 57.328125 34.859375 57.328125 23.390625 
Q 57.328125 12.15625 50.6875 5.359375 
Q 44.046875 -1.421875 33.015625 -1.421875 
Q 20.359375 -1.421875 13.671875 8.265625 
Q 6.984375 17.96875 6.984375 36.375 
Q 6.984375 53.65625 15.1875 63.9375 
Q 23.390625 74.21875 37.203125 74.21875 
Q 40.921875 74.21875 44.703125 73.484375 
Q 48.484375 72.75 52.59375 71.296875 
z
" id="DejaVuSans-54"/>
       </defs>
       <use xlink:href="#DejaVuSans-54"/>
       <use x="63.623047" xlink:href="#DejaVuSans-48"/>
      </g>
     </g>
    </g>
    <g id="xtick_5">
     <g id="line2d_5">
      <g>
       <use style="stroke:#000000;stroke-width:0.8;" x="242.34117" xlink:href="#mbda8e4c30b" y="307.584"/>
      </g>
     </g>
     <g id="text_5">
      <!-- 80 -->
      <g transform="translate(235.97867 322.182437)scale(0.1 -0.1)">
       <defs>
        <path d="M 31.78125 34.625 
Q 24.75 34.625 20.71875 30.859375 
Q 16.703125 27.09375 16.703125 20.515625 
Q 16.703125 13.921875 20.71875 10.15625 
Q 24.75 6.390625 31.78125 6.390625 
Q 38.8125 6.390625 42.859375 10.171875 
Q 46.921875 13.96875 46.921875 20.515625 
Q 46.921875 27.09375 42.890625 30.859375 
Q 38.875 34.625 31.78125 34.625 
z
M 21.921875 38.8125 
Q 15.578125 40.375 12.03125 44.71875 
Q 8.5 49.078125 8.5 55.328125 
Q 8.5 64.0625 14.71875 69.140625 
Q 20.953125 74.21875 31.78125 74.21875 
Q 42.671875 74.21875 48.875 69.140625 
Q 55.078125 64.0625 55.078125 55.328125 
Q 55.078125 49.078125 51.53125 44.71875 
Q 48 40.375 41.703125 38.8125 
Q 48.828125 37.15625 52.796875 32.3125 
Q 56.78125 27.484375 56.78125 20.515625 
Q 56.78125 9.90625 50.3125 4.234375 
Q 43.84375 -1.421875 31.78125 -1.421875 
Q 19.734375 -1.421875 13.25 4.234375 
Q 6.78125 9.90625 6.78125 20.515625 
Q 6.78125 27.484375 10.78125 32.3125 
Q 14.796875 37.15625 21.921875 38.8125 
z
M 18.3125 54.390625 
Q 18.3125 48.734375 21.84375 45.5625 
Q 25.390625 42.390625 31.78125 42.390625 
Q 38.140625 42.390625 41.71875 45.5625 
Q 45.3125 48.734375 45.3125 54.390625 
Q 45.3125 60.0625 41.71875 63.234375 
Q 38.140625 66.40625 31.78125 66.40625 
Q 25.390625 66.40625 21.84375 63.234375 
Q 18.3125 60.0625 18.3125 54.390625 
z
" id="DejaVuSans-56"/>
       </defs>
       <use xlink:href="#DejaVuSans-56"/>
       <use x="63.623047" xlink:href="#DejaVuSans-48"/>
      </g>
     </g>
    </g>
    <g id="xtick_6">
     <g id="line2d_6">
      <g>
       <use style="stroke:#000000;stroke-width:0.8;" x="287.587523" xlink:href="#mbda8e4c30b" y="307.584"/>
      </g>
     </g>
     <g id="text_6">
      <!-- 100 -->
      <g transform="translate(278.043773 322.182437)scale(0.1 -0.1)">
       <defs>
        <path d="M 12.40625 8.296875 
L 28.515625 8.296875 
L 28.515625 63.921875 
L 10.984375 60.40625 
L 10.984375 69.390625 
L 28.421875 72.90625 
L 38.28125 72.90625 
L 38.28125 8.296875 
L 54.390625 8.296875 
L 54.390625 0 
L 12.40625 0 
z
" id="DejaVuSans-49"/>
       </defs>
       <use xlink:href="#DejaVuSans-49"/>
       <use x="63.623047" xlink:href="#DejaVuSans-48"/>
       <use x="127.246094" xlink:href="#DejaVuSans-48"/>
      </g>
     </g>
    </g>
    <g id="xtick_7">
     <g id="line2d_7">
      <g>
       <use style="stroke:#000000;stroke-width:0.8;" x="332.833875" xlink:href="#mbda8e4c30b" y="307.584"/>
      </g>
     </g>
     <g id="text_7">
      <!-- 120 -->
      <g transform="translate(323.290125 322.182437)scale(0.1 -0.1)">
       <use xlink:href="#DejaVuSans-49"/>
       <use x="63.623047" xlink:href="#DejaVuSans-50"/>
       <use x="127.246094" xlink:href="#DejaVuSans-48"/>
      </g>
     </g>
    </g>
    <g id="xtick_8">
     <g id="line2d_8">
      <g>
       <use style="stroke:#000000;stroke-width:0.8;" x="378.080227" xlink:href="#mbda8e4c30b" y="307.584"/>
      </g>
     </g>
     <g id="text_8">
      <!-- 140 -->
      <g transform="translate(368.536477 322.182437)scale(0.1 -0.1)">
       <use xlink:href="#DejaVuSans-49"/>
       <use x="63.623047" xlink:href="#DejaVuSans-52"/>
       <use x="127.246094" xlink:href="#DejaVuSans-48"/>
      </g>
     </g>
    </g>
   </g>
   <g id="matplotlib.axis_2">
    <g id="ytick_1">
     <g id="line2d_9">
      <defs>
       <path d="M 0 0 
L -3.5 0 
" id="m2182da9f4e" style="stroke:#000000;stroke-width:0.8;"/>
      </defs>
      <g>
       <use style="stroke:#000000;stroke-width:0.8;" x="57.6" xlink:href="#m2182da9f4e" y="265.07331"/>
      </g>
     </g>
     <g id="text_9">
      <!-- 0 -->
      <g transform="translate(44.2375 268.872529)scale(0.1 -0.1)">
       <use xlink:href="#DejaVuSans-48"/>
      </g>
     </g>
    </g>
    <g id="ytick_2">
     <g id="line2d_10">
      <g>
       <use style="stroke:#000000;stroke-width:0.8;" x="57.6" xlink:href="#m2182da9f4e" y="219.826958"/>
      </g>
     </g>
     <g id="text_10">
      <!-- 20 -->
      <g transform="translate(37.875 223.626177)scale(0.1 -0.1)">
       <use xlink:href="#DejaVuSans-50"/>
       <use x="63.623047" xlink:href="#DejaVuSans-48"/>
      </g>
     </g>
    </g>
    <g id="ytick_3">
     <g id="line2d_11">
      <g>
       <use style="stroke:#000000;stroke-width:0.8;" x="57.6" xlink:href="#m2182da9f4e" y="174.580606"/>
      </g>
     </g>
     <g id="text_11">
      <!-- 40 -->
      <g transform="translate(37.875 178.379824)scale(0.1 -0.1)">
       <use xlink:href="#DejaVuSans-52"/>
       <use x="63.623047" xlink:href="#DejaVuSans-48"/>
      </g>
     </g>
    </g>
    <g id="ytick_4">
     <g id="line2d_12">
      <g>
       <use style="stroke:#000000;stroke-width:0.8;" x="57.6" xlink:href="#m2182da9f4e" y="129.334253"/>
      </g>
     </g>
     <g id="text_12">
      <!-- 60 -->
      <g transform="translate(37.875 133.133472)scale(0.1 -0.1)">
       <use xlink:href="#DejaVuSans-54"/>
       <use x="63.623047" xlink:href="#DejaVuSans-48"/>
      </g>
     </g>
    </g>
    <g id="ytick_5">
     <g id="line2d_13">
      <g>
       <use style="stroke:#000000;stroke-width:0.8;" x="57.6" xlink:href="#m2182da9f4e" y="84.087901"/>
      </g>
     </g>
     <g id="text_13">
      <!-- 80 -->
      <g transform="translate(37.875 87.88712)scale(0.1 -0.1)">
       <use xlink:href="#DejaVuSans-56"/>
       <use x="63.623047" xlink:href="#DejaVuSans-48"/>
      </g>
     </g>
    </g>
   </g>
   <g id="line2d_14">
    <path clip-path="url(#p6884dc234f)" d="M 387.830816 242.450134 
L 388.437117 240.135783 
L 388.89863 237.828219 
L 389.215355 235.527442 
L 389.39634 233.235715 
L 389.443849 230.957561 
L 389.362405 228.692981 
L 389.156534 226.446499 
L 388.833023 224.218116 
L 387.848915 219.826958 
L 386.446278 215.537604 
L 384.663572 211.368152 
L 382.541518 207.33444 
L 380.116313 203.454565 
L 377.426418 199.746627 
L 374.505766 196.230985 
L 371.363406 192.925739 
L 368.008389 189.860299 
L 364.447501 187.052763 
L 360.683005 184.532541 
L 356.730736 182.31547 
L 352.613318 180.394762 
L 348.366948 178.761369 
L 344.021036 177.403978 
L 339.607254 176.311279 
L 335.155013 175.467434 
L 330.673362 174.836247 
L 323.911294 174.186962 
L 314.866548 173.648531 
L 305.815016 173.311445 
L 299.030325 173.241314 
L 292.250159 173.379315 
L 283.214463 173.84309 
L 269.656393 174.578343 
L 260.609385 174.818149 
L 237.992996 175.270612 
L 226.688195 175.750224 
L 208.607752 176.673249 
L 201.829849 176.754693 
L 192.789627 176.56692 
L 183.735832 176.392722 
L 176.930781 176.510363 
L 172.397096 176.770529 
L 167.88151 177.193582 
L 163.395335 177.797621 
L 158.952143 178.596219 
L 154.554197 179.591639 
L 136.982776 183.994109 
L 132.471715 184.779133 
L 127.91767 185.281368 
L 123.3591 185.430681 
L 121.087733 185.349237 
L 118.827677 185.152416 
L 116.585721 184.833429 
L 114.361862 184.380966 
L 112.165152 183.790501 
L 110.002376 183.064297 
L 107.87806 182.204616 
L 105.805777 181.220508 
L 103.78779 180.116497 
L 101.83541 178.897108 
L 99.953162 177.569127 
L 98.152357 176.134818 
L 96.442045 174.603229 
L 94.824487 172.976622 
L 93.310997 171.261786 
L 91.899311 169.465505 
L 90.593954 167.594569 
L 89.390401 165.6535 
L 88.288652 163.651349 
L 86.39283 159.486422 
L 84.906487 155.154084 
L 83.827362 150.706368 
L 83.153191 146.186257 
L 82.881713 141.632212 
L 83.017452 137.075904 
L 83.558146 132.555793 
L 84.501532 128.108077 
L 85.849873 123.764427 
L 87.60317 119.565566 
L 88.632524 117.52948 
L 89.761421 115.543165 
L 90.992121 113.608883 
L 92.322364 111.733422 
L 93.754411 109.919043 
L 93.754411 109.919043 
" style="fill:none;stroke:#fea952;stroke-linecap:square;"/>
   </g>
   <g id="line2d_15">
    <path clip-path="url(#p6884dc234f)" d="M 379.076953 240.156845 
L 379.933903 236.594137 
L 380.349037 233.047042 
L 380.350896 229.518809 
L 379.957391 225.98233 
L 379.185797 222.442239 
L 378.05174 218.917106 
L 376.573257 215.422299 
L 374.781043 211.988935 
L 372.705803 208.64818 
L 370.371494 205.413844 
L 367.839157 202.350268 
L 365.142566 199.497683 
L 362.272158 196.859223 
L 359.268403 194.473425 
L 356.09919 192.334972 
L 352.756043 190.445114 
L 349.219939 188.783699 
L 345.535002 187.356098 
L 341.7185 186.155414 
L 337.809973 185.180274 
L 333.798044 184.414385 
L 329.670069 183.829728 
L 323.269132 183.213419 
L 314.451136 182.688261 
L 305.643111 182.359083 
L 299.111847 182.290217 
L 292.621238 182.420974 
L 283.765993 182.875538 
L 269.97324 183.622065 
L 260.7543 183.866259 
L 238.309526 184.314345 
L 227.176631 184.786303 
L 208.825089 185.71991 
L 201.730213 185.803415 
L 192.545386 185.612894 
L 183.762926 185.441952 
L 177.372342 185.548854 
L 171.066971 185.961926 
L 166.93758 186.426883 
L 162.873526 187.057799 
L 158.827863 187.880733 
L 152.516756 189.457621 
L 143.495598 191.808112 
L 138.655855 192.887371 
L 133.623811 193.754765 
L 128.401758 194.317681 
L 125.745082 194.452161 
L 123.034832 194.47414 
L 120.30263 194.364386 
L 117.55298 194.111458 
L 114.781531 193.701021 
L 112.012843 193.120039 
L 109.284684 192.36909 
L 106.607704 191.452711 
L 103.996137 190.378964 
L 101.462541 189.159374 
L 98.994085 187.791761 
L 96.618592 186.291302 
L 94.315322 184.64755 
L 92.115483 182.876142 
L 90.02542 180.984156 
L 88.039786 178.964704 
L 86.196012 176.853411 
L 84.477858 174.643472 
L 82.903115 172.363247 
L 81.462232 170.016233 
L 80.145246 167.597769 
L 78.966917 165.142209 
L 77.905486 162.625577 
L 76.971962 160.072194 
L 76.163211 157.487412 
L 75.475556 154.874271 
L 74.91008 152.2463 
L 74.459682 149.58214 
L 74.133833 146.921433 
L 73.924847 144.251605 
L 73.832727 141.560394 
L 73.862606 138.884664 
L 74.010288 136.203953 
L 74.278216 133.53182 
L 74.665095 130.881596 
L 75.171996 128.240457 
L 75.799763 125.624428 
L 76.547362 123.039889 
L 77.41777 120.479777 
L 78.411491 117.957701 
L 79.527282 115.482756 
L 80.765101 113.058131 
L 82.126532 110.685411 
L 83.611021 108.373556 
L 86.651115 104.312576 
L 86.651115 104.312576 
" style="fill:none;stroke:#ffffff;stroke-linecap:square;"/>
   </g>
   <g id="line2d_16">
    <path clip-path="url(#p6884dc234f)" d="M 396.584679 244.743424 
L 397.310657 241.910491 
L 397.863358 239.062302 
L 398.236537 236.239875 
L 398.443644 233.424387 
L 398.487273 230.632323 
L 398.373915 227.867153 
L 398.111923 225.146377 
L 397.708655 222.453903 
L 397.17375 219.817465 
L 396.512032 217.211677 
L 395.732079 214.660719 
L 394.840816 212.158102 
L 392.753886 207.314006 
L 390.301993 202.679945 
L 387.526824 198.260951 
L 384.481341 194.07941 
L 381.172374 190.111702 
L 377.584246 186.353795 
L 373.744621 182.861374 
L 369.6266 179.6321 
L 365.26682 176.73011 
L 360.705429 174.185825 
L 356.006697 172.005824 
L 351.198893 170.166639 
L 346.323572 168.652542 
L 341.404535 167.442283 
L 336.511982 166.520483 
L 331.676655 165.842767 
L 324.553457 165.160505 
L 315.281961 164.6088 
L 305.986921 164.263808 
L 298.948803 164.19241 
L 291.87908 164.337656 
L 282.662932 164.810642 
L 269.339546 165.534621 
L 260.46447 165.770039 
L 237.676465 166.22688 
L 226.199758 166.714145 
L 208.390415 167.626589 
L 201.929484 167.705971 
L 193.033869 167.520947 
L 183.708739 167.343492 
L 176.489219 167.471872 
L 171.638872 167.75308 
L 166.769105 168.212945 
L 161.900298 168.872703 
L 157.036219 169.752095 
L 152.346604 170.815773 
L 135.309698 175.100847 
L 131.319619 175.803501 
L 127.433581 176.245055 
L 123.683367 176.387222 
L 120.102375 176.193373 
L 116.710882 175.641892 
L 113.397049 174.675882 
L 110.149013 173.281642 
L 107.052227 171.502913 
L 104.18923 169.393494 
L 101.609189 166.988541 
L 99.320764 164.287539 
L 97.318569 161.290768 
L 95.615023 158.043071 
L 94.225551 154.606772 
L 93.156488 151.008804 
L 92.416804 147.324059 
L 92.010515 143.569127 
L 91.937017 139.818928 
L 92.195577 136.086303 
L 92.785877 132.400791 
L 93.704502 128.800943 
L 94.939747 125.33157 
L 96.499947 122.000828 
L 98.373221 118.844211 
L 99.425661 117.339889 
L 100.857708 115.525511 
L 100.857708 115.525511 
" style="fill:none;stroke:#ffffff;stroke-linecap:square;"/>
   </g>
   <g id="patch_3">
    <path d="M 57.6 307.584 
L 57.6 41.472 
" style="fill:none;stroke:#000000;stroke-linecap:square;stroke-linejoin:miter;stroke-width:0.8;"/>
   </g>
   <g id="patch_4">
    <path d="M 414.72 307.584 
L 414.72 41.472 
" style="fill:none;stroke:#000000;stroke-linecap:square;stroke-linejoin:miter;stroke-width:0.8;"/>
   </g>
   <g id="patch_5">
    <path d="M 57.6 307.584 
L 414.72 307.584 
" style="fill:none;stroke:#000000;stroke-linecap:square;stroke-linejoin:miter;stroke-width:0.8;"/>
   </g>
   <g id="patch_6">
    <path d="M 57.6 41.472 
L 414.72 41.472 
" style="fill:none;stroke:#000000;stroke-linecap:square;stroke-linejoin:miter;stroke-width:0.8;"/>
   </g>
  </g>
 </g>
 <defs>
  <clipPath id="p6884dc234f">
   <rect height="266.112" width="357.12" x="57.6" y="41.472"/>
  </clipPath>
 </defs>
</svg>
