<?xml version="1.0" encoding="utf-8" standalone="no"?>
<!DOCTYPE svg PUBLIC "-//W3C//DTD SVG 1.1//EN"
  "http://www.w3.org/Graphics/SVG/1.1/DTD/svg11.dtd">
<!-- Created with matplotlib (https://matplotlib.org/) -->
<svg height="345.6pt" version="1.1" viewBox="0 0 460.8 345.6" width="460.8pt" xmlns="http://www.w3.org/2000/svg" xmlns:xlink="http://www.w3.org/1999/xlink">
 <metadata>
  <rdf:RDF xmlns:cc="http://creativecommons.org/ns#" xmlns:dc="http://purl.org/dc/elements/1.1/" xmlns:rdf="http://www.w3.org/1999/02/22-rdf-syntax-ns#">
   <cc:Work>
    <dc:type rdf:resource="http://purl.org/dc/dcmitype/StillImage"/>
    <dc:date>2021-01-25T14:19:07.573127</dc:date>
    <dc:format>image/svg+xml</dc:format>
    <dc:creator>
     <cc:Agent>
      <dc:title>Matplotlib v3.3.3, https://matplotlib.org/</dc:title>
     </cc:Agent>
    </dc:creator>
   </cc:Work>
  </rdf:RDF>
 </metadata>
 <defs>
  <style type="text/css">*{stroke-linecap:butt;stroke-linejoin:round;}</style>
 </defs>
 <g id="figure_1">
  <g id="patch_1">
   <path d="M 0 345.6 
L 460.8 345.6 
L 460.8 0 
L 0 0 
z
" style="fill:#ffffff;"/>
  </g>
  <g id="axes_1">
   <g id="patch_2">
    <path d="M 57.6 307.584 
L 414.72 307.584 
L 414.72 41.472 
L 57.6 41.472 
z
" style="fill:#7d9051;"/>
   </g>
   <g id="matplotlib.axis_1">
    <g id="xtick_1">
     <g id="line2d_1">
      <defs>
       <path d="M 0 0 
L 0 3.5 
" id="md0bc10320e" style="stroke:#000000;stroke-width:0.8;"/>
      </defs>
      <g>
       <use style="stroke:#000000;stroke-width:0.8;" x="125.929214" xlink:href="#md0bc10320e" y="307.584"/>
      </g>
     </g>
     <g id="text_1">
      <!-- 20 -->
      <g transform="translate(119.566714 322.182437)scale(0.1 -0.1)">
       <defs>
        <path d="M 19.1875 8.296875 
L 53.609375 8.296875 
L 53.609375 0 
L 7.328125 0 
L 7.328125 8.296875 
Q 12.9375 14.109375 22.625 23.890625 
Q 32.328125 33.6875 34.8125 36.53125 
Q 39.546875 41.84375 41.421875 45.53125 
Q 43.3125 49.21875 43.3125 52.78125 
Q 43.3125 58.59375 39.234375 62.25 
Q 35.15625 65.921875 28.609375 65.921875 
Q 23.96875 65.921875 18.8125 64.3125 
Q 13.671875 62.703125 7.8125 59.421875 
L 7.8125 69.390625 
Q 13.765625 71.78125 18.9375 73 
Q 24.125 74.21875 28.421875 74.21875 
Q 39.75 74.21875 46.484375 68.546875 
Q 53.21875 62.890625 53.21875 53.421875 
Q 53.21875 48.921875 51.53125 44.890625 
Q 49.859375 40.875 45.40625 35.40625 
Q 44.1875 33.984375 37.640625 27.21875 
Q 31.109375 20.453125 19.1875 8.296875 
z
" id="DejaVuSans-50"/>
        <path d="M 31.78125 66.40625 
Q 24.171875 66.40625 20.328125 58.90625 
Q 16.5 51.421875 16.5 36.375 
Q 16.5 21.390625 20.328125 13.890625 
Q 24.171875 6.390625 31.78125 6.390625 
Q 39.453125 6.390625 43.28125 13.890625 
Q 47.125 21.390625 47.125 36.375 
Q 47.125 51.421875 43.28125 58.90625 
Q 39.453125 66.40625 31.78125 66.40625 
z
M 31.78125 74.21875 
Q 44.046875 74.21875 50.515625 64.515625 
Q 56.984375 54.828125 56.984375 36.375 
Q 56.984375 17.96875 50.515625 8.265625 
Q 44.046875 -1.421875 31.78125 -1.421875 
Q 19.53125 -1.421875 13.0625 8.265625 
Q 6.59375 17.96875 6.59375 36.375 
Q 6.59375 54.828125 13.0625 64.515625 
Q 19.53125 74.21875 31.78125 74.21875 
z
" id="DejaVuSans-48"/>
       </defs>
       <use xlink:href="#DejaVuSans-50"/>
       <use x="63.623047" xlink:href="#DejaVuSans-48"/>
      </g>
     </g>
    </g>
    <g id="xtick_2">
     <g id="line2d_2">
      <g>
       <use style="stroke:#000000;stroke-width:0.8;" x="199.016409" xlink:href="#md0bc10320e" y="307.584"/>
      </g>
     </g>
     <g id="text_2">
      <!-- 40 -->
      <g transform="translate(192.653909 322.182437)scale(0.1 -0.1)">
       <defs>
        <path d="M 37.796875 64.3125 
L 12.890625 25.390625 
L 37.796875 25.390625 
z
M 35.203125 72.90625 
L 47.609375 72.90625 
L 47.609375 25.390625 
L 58.015625 25.390625 
L 58.015625 17.1875 
L 47.609375 17.1875 
L 47.609375 0 
L 37.796875 0 
L 37.796875 17.1875 
L 4.890625 17.1875 
L 4.890625 26.703125 
z
" id="DejaVuSans-52"/>
       </defs>
       <use xlink:href="#DejaVuSans-52"/>
       <use x="63.623047" xlink:href="#DejaVuSans-48"/>
      </g>
     </g>
    </g>
    <g id="xtick_3">
     <g id="line2d_3">
      <g>
       <use style="stroke:#000000;stroke-width:0.8;" x="272.103604" xlink:href="#md0bc10320e" y="307.584"/>
      </g>
     </g>
     <g id="text_3">
      <!-- 60 -->
      <g transform="translate(265.741104 322.182437)scale(0.1 -0.1)">
       <defs>
        <path d="M 33.015625 40.375 
Q 26.375 40.375 22.484375 35.828125 
Q 18.609375 31.296875 18.609375 23.390625 
Q 18.609375 15.53125 22.484375 10.953125 
Q 26.375 6.390625 33.015625 6.390625 
Q 39.65625 6.390625 43.53125 10.953125 
Q 47.40625 15.53125 47.40625 23.390625 
Q 47.40625 31.296875 43.53125 35.828125 
Q 39.65625 40.375 33.015625 40.375 
z
M 52.59375 71.296875 
L 52.59375 62.3125 
Q 48.875 64.0625 45.09375 64.984375 
Q 41.3125 65.921875 37.59375 65.921875 
Q 27.828125 65.921875 22.671875 59.328125 
Q 17.53125 52.734375 16.796875 39.40625 
Q 19.671875 43.65625 24.015625 45.921875 
Q 28.375 48.1875 33.59375 48.1875 
Q 44.578125 48.1875 50.953125 41.515625 
Q 57.328125 34.859375 57.328125 23.390625 
Q 57.328125 12.15625 50.6875 5.359375 
Q 44.046875 -1.421875 33.015625 -1.421875 
Q 20.359375 -1.421875 13.671875 8.265625 
Q 6.984375 17.96875 6.984375 36.375 
Q 6.984375 53.65625 15.1875 63.9375 
Q 23.390625 74.21875 37.203125 74.21875 
Q 40.921875 74.21875 44.703125 73.484375 
Q 48.484375 72.75 52.59375 71.296875 
z
" id="DejaVuSans-54"/>
       </defs>
       <use xlink:href="#DejaVuSans-54"/>
       <use x="63.623047" xlink:href="#DejaVuSans-48"/>
      </g>
     </g>
    </g>
    <g id="xtick_4">
     <g id="line2d_4">
      <g>
       <use style="stroke:#000000;stroke-width:0.8;" x="345.190799" xlink:href="#md0bc10320e" y="307.584"/>
      </g>
     </g>
     <g id="text_4">
      <!-- 80 -->
      <g transform="translate(338.828299 322.182437)scale(0.1 -0.1)">
       <defs>
        <path d="M 31.78125 34.625 
Q 24.75 34.625 20.71875 30.859375 
Q 16.703125 27.09375 16.703125 20.515625 
Q 16.703125 13.921875 20.71875 10.15625 
Q 24.75 6.390625 31.78125 6.390625 
Q 38.8125 6.390625 42.859375 10.171875 
Q 46.921875 13.96875 46.921875 20.515625 
Q 46.921875 27.09375 42.890625 30.859375 
Q 38.875 34.625 31.78125 34.625 
z
M 21.921875 38.8125 
Q 15.578125 40.375 12.03125 44.71875 
Q 8.5 49.078125 8.5 55.328125 
Q 8.5 64.0625 14.71875 69.140625 
Q 20.953125 74.21875 31.78125 74.21875 
Q 42.671875 74.21875 48.875 69.140625 
Q 55.078125 64.0625 55.078125 55.328125 
Q 55.078125 49.078125 51.53125 44.71875 
Q 48 40.375 41.703125 38.8125 
Q 48.828125 37.15625 52.796875 32.3125 
Q 56.78125 27.484375 56.78125 20.515625 
Q 56.78125 9.90625 50.3125 4.234375 
Q 43.84375 -1.421875 31.78125 -1.421875 
Q 19.734375 -1.421875 13.25 4.234375 
Q 6.78125 9.90625 6.78125 20.515625 
Q 6.78125 27.484375 10.78125 32.3125 
Q 14.796875 37.15625 21.921875 38.8125 
z
M 18.3125 54.390625 
Q 18.3125 48.734375 21.84375 45.5625 
Q 25.390625 42.390625 31.78125 42.390625 
Q 38.140625 42.390625 41.71875 45.5625 
Q 45.3125 48.734375 45.3125 54.390625 
Q 45.3125 60.0625 41.71875 63.234375 
Q 38.140625 66.40625 31.78125 66.40625 
Q 25.390625 66.40625 21.84375 63.234375 
Q 18.3125 60.0625 18.3125 54.390625 
z
" id="DejaVuSans-56"/>
       </defs>
       <use xlink:href="#DejaVuSans-56"/>
       <use x="63.623047" xlink:href="#DejaVuSans-48"/>
      </g>
     </g>
    </g>
   </g>
   <g id="matplotlib.axis_2">
    <g id="ytick_1">
     <g id="line2d_5">
      <defs>
       <path d="M 0 0 
L -3.5 0 
" id="mb00655f22f" style="stroke:#000000;stroke-width:0.8;"/>
      </defs>
      <g>
       <use style="stroke:#000000;stroke-width:0.8;" x="57.6" xlink:href="#mb00655f22f" y="280.675394"/>
      </g>
     </g>
     <g id="text_5">
      <!-- 0 -->
      <g transform="translate(44.2375 284.474613)scale(0.1 -0.1)">
       <use xlink:href="#DejaVuSans-48"/>
      </g>
     </g>
    </g>
    <g id="ytick_2">
     <g id="line2d_6">
      <g>
       <use style="stroke:#000000;stroke-width:0.8;" x="57.6" xlink:href="#mb00655f22f" y="244.131797"/>
      </g>
     </g>
     <g id="text_6">
      <!-- 10 -->
      <g transform="translate(37.875 247.931016)scale(0.1 -0.1)">
       <defs>
        <path d="M 12.40625 8.296875 
L 28.515625 8.296875 
L 28.515625 63.921875 
L 10.984375 60.40625 
L 10.984375 69.390625 
L 28.421875 72.90625 
L 38.28125 72.90625 
L 38.28125 8.296875 
L 54.390625 8.296875 
L 54.390625 0 
L 12.40625 0 
z
" id="DejaVuSans-49"/>
       </defs>
       <use xlink:href="#DejaVuSans-49"/>
       <use x="63.623047" xlink:href="#DejaVuSans-48"/>
      </g>
     </g>
    </g>
    <g id="ytick_3">
     <g id="line2d_7">
      <g>
       <use style="stroke:#000000;stroke-width:0.8;" x="57.6" xlink:href="#mb00655f22f" y="207.588199"/>
      </g>
     </g>
     <g id="text_7">
      <!-- 20 -->
      <g transform="translate(37.875 211.387418)scale(0.1 -0.1)">
       <use xlink:href="#DejaVuSans-50"/>
       <use x="63.623047" xlink:href="#DejaVuSans-48"/>
      </g>
     </g>
    </g>
    <g id="ytick_4">
     <g id="line2d_8">
      <g>
       <use style="stroke:#000000;stroke-width:0.8;" x="57.6" xlink:href="#mb00655f22f" y="171.044602"/>
      </g>
     </g>
     <g id="text_8">
      <!-- 30 -->
      <g transform="translate(37.875 174.843821)scale(0.1 -0.1)">
       <defs>
        <path d="M 40.578125 39.3125 
Q 47.65625 37.796875 51.625 33 
Q 55.609375 28.21875 55.609375 21.1875 
Q 55.609375 10.40625 48.1875 4.484375 
Q 40.765625 -1.421875 27.09375 -1.421875 
Q 22.515625 -1.421875 17.65625 -0.515625 
Q 12.796875 0.390625 7.625 2.203125 
L 7.625 11.71875 
Q 11.71875 9.328125 16.59375 8.109375 
Q 21.484375 6.890625 26.8125 6.890625 
Q 36.078125 6.890625 40.9375 10.546875 
Q 45.796875 14.203125 45.796875 21.1875 
Q 45.796875 27.640625 41.28125 31.265625 
Q 36.765625 34.90625 28.71875 34.90625 
L 20.21875 34.90625 
L 20.21875 43.015625 
L 29.109375 43.015625 
Q 36.375 43.015625 40.234375 45.921875 
Q 44.09375 48.828125 44.09375 54.296875 
Q 44.09375 59.90625 40.109375 62.90625 
Q 36.140625 65.921875 28.71875 65.921875 
Q 24.65625 65.921875 20.015625 65.03125 
Q 15.375 64.15625 9.8125 62.3125 
L 9.8125 71.09375 
Q 15.4375 72.65625 20.34375 73.4375 
Q 25.25 74.21875 29.59375 74.21875 
Q 40.828125 74.21875 47.359375 69.109375 
Q 53.90625 64.015625 53.90625 55.328125 
Q 53.90625 49.265625 50.4375 45.09375 
Q 46.96875 40.921875 40.578125 39.3125 
z
" id="DejaVuSans-51"/>
       </defs>
       <use xlink:href="#DejaVuSans-51"/>
       <use x="63.623047" xlink:href="#DejaVuSans-48"/>
      </g>
     </g>
    </g>
    <g id="ytick_5">
     <g id="line2d_9">
      <g>
       <use style="stroke:#000000;stroke-width:0.8;" x="57.6" xlink:href="#mb00655f22f" y="134.501004"/>
      </g>
     </g>
     <g id="text_9">
      <!-- 40 -->
      <g transform="translate(37.875 138.300223)scale(0.1 -0.1)">
       <use xlink:href="#DejaVuSans-52"/>
       <use x="63.623047" xlink:href="#DejaVuSans-48"/>
      </g>
     </g>
    </g>
    <g id="ytick_6">
     <g id="line2d_10">
      <g>
       <use style="stroke:#000000;stroke-width:0.8;" x="57.6" xlink:href="#mb00655f22f" y="97.957407"/>
      </g>
     </g>
     <g id="text_10">
      <!-- 50 -->
      <g transform="translate(37.875 101.756626)scale(0.1 -0.1)">
       <defs>
        <path d="M 10.796875 72.90625 
L 49.515625 72.90625 
L 49.515625 64.59375 
L 19.828125 64.59375 
L 19.828125 46.734375 
Q 21.96875 47.46875 24.109375 47.828125 
Q 26.265625 48.1875 28.421875 48.1875 
Q 40.625 48.1875 47.75 41.5 
Q 54.890625 34.8125 54.890625 23.390625 
Q 54.890625 11.625 47.5625 5.09375 
Q 40.234375 -1.421875 26.90625 -1.421875 
Q 22.3125 -1.421875 17.546875 -0.640625 
Q 12.796875 0.140625 7.71875 1.703125 
L 7.71875 11.625 
Q 12.109375 9.234375 16.796875 8.0625 
Q 21.484375 6.890625 26.703125 6.890625 
Q 35.15625 6.890625 40.078125 11.328125 
Q 45.015625 15.765625 45.015625 23.390625 
Q 45.015625 31 40.078125 35.4375 
Q 35.15625 39.890625 26.703125 39.890625 
Q 22.75 39.890625 18.8125 39.015625 
Q 14.890625 38.140625 10.796875 36.28125 
z
" id="DejaVuSans-53"/>
       </defs>
       <use xlink:href="#DejaVuSans-53"/>
       <use x="63.623047" xlink:href="#DejaVuSans-48"/>
      </g>
     </g>
    </g>
    <g id="ytick_7">
     <g id="line2d_11">
      <g>
       <use style="stroke:#000000;stroke-width:0.8;" x="57.6" xlink:href="#mb00655f22f" y="61.413809"/>
      </g>
     </g>
     <g id="text_11">
      <!-- 60 -->
      <g transform="translate(37.875 65.213028)scale(0.1 -0.1)">
       <use xlink:href="#DejaVuSans-54"/>
       <use x="63.623047" xlink:href="#DejaVuSans-48"/>
      </g>
     </g>
    </g>
   </g>
   <g id="line2d_12">
    <path clip-path="url(#p80f4131dfe)" d="M 257.332681 191.238594 
L 256.320424 187.60616 
L 255.5457 183.944492 
L 255.004854 180.260897 
L 254.690579 176.562685 
L 254.602875 172.864473 
L 254.734432 169.177224 
L 255.081596 165.504593 
L 255.637059 161.861196 
L 256.40082 158.254343 
L 257.361916 154.694996 
L 258.520348 151.19412 
L 259.868807 147.759022 
L 261.403638 144.400665 
L 263.121187 141.130013 
L 265.014146 137.954374 
L 267.082513 134.884712 
L 269.315327 131.93199 
L 271.712587 129.103515 
L 274.266985 126.410252 
L 276.974865 123.863163 
L 279.82892 121.469558 
L 282.818186 119.240398 
L 285.935355 117.190302 
L 289.162155 115.326579 
L 292.491277 113.660191 
L 295.908103 112.202101 
L 299.398017 110.963273 
L 302.957363 109.958324 
L 306.564216 109.190909 
L 310.214921 108.675644 
L 313.887553 108.423493 
L 317.578456 108.419839 
L 321.26936 108.664681 
L 324.945646 109.139748 
L 328.592697 109.845039 
L 332.19955 110.765938 
L 335.747933 111.895135 
L 339.230538 113.221668 
L 342.625438 114.738227 
L 345.925325 116.43385 
L 349.111927 118.297573 
L 352.188897 120.329397 
L 355.145274 122.514704 
L 357.984712 124.853495 
L 360.703556 127.331151 
L 363.301805 129.944018 
L 365.775807 132.684788 
L 368.118252 135.542497 
L 370.336448 138.517146 
L 372.423087 141.597771 
L 374.374515 144.777064 
L 376.176115 148.044062 
L 377.824231 151.391455 
L 379.300592 154.811936 
L 380.594236 158.290886 
L 381.690544 161.824652 
L 382.578553 165.40227 
L 383.247301 169.012778 
L 383.68217 172.648866 
L 383.872196 176.299571 
L 383.806418 179.957585 
L 383.492143 183.611945 
L 382.940335 187.244379 
L 382.158302 190.851232 
L 381.157007 194.417887 
L 379.947414 197.933381 
L 378.533177 201.386751 
L 376.932567 204.763379 
L 375.14924 208.055957 
L 373.194157 211.249868 
L 371.074629 214.334147 
L 368.801617 217.301488 
L 366.382431 220.137271 
L 363.820725 222.837843 
L 361.131116 225.388586 
L 358.313604 227.782191 
L 355.375499 230.007696 
L 352.331417 232.057792 
L 349.181359 233.92517 
L 345.936288 235.591558 
L 342.603512 237.060611 
L 339.19034 238.335982 
L 335.711389 239.435945 
L 332.173969 240.375115 
L 328.585388 241.168111 
L 324.956609 241.82955 
L 317.622309 242.819882 
L 310.251465 243.463049 
L 302.906202 243.868683 
L 291.939468 244.146414 
L 277.358573 244.153723 
L 251.792672 243.912535 
L 240.829593 243.627495 
L 229.877477 243.134157 
L 207.984207 242.048812 
L 200.668179 241.88802 
L 178.679897 241.814933 
L 171.389449 241.383718 
L 167.764324 240.992702 
L 164.150162 240.455511 
L 160.557927 239.753874 
L 156.987617 238.891445 
L 153.453851 237.86457 
L 149.956629 236.687866 
L 146.514222 235.357679 
L 143.126631 233.884972 
L 139.808472 232.266091 
L 136.563401 230.511998 
L 133.402379 228.622694 
L 130.332717 226.605488 
L 127.361723 224.464033 
L 124.489396 222.205638 
L 121.708428 219.830305 
L 119.022474 217.352649 
L 116.424224 214.772671 
L 113.913679 212.097679 
L 111.487184 209.334983 
L 109.141085 206.491891 
L 104.682766 200.579137 
L 100.542377 194.403269 
L 98.620183 191.220322 
L 96.818584 187.982559 
L 95.152196 184.682672 
L 93.635637 181.331625 
L 92.283524 177.922107 
L 91.117783 174.461428 
L 90.145723 170.949589 
L 89.385616 167.390242 
L 88.85208 163.783389 
L 88.537805 160.139992 
L 88.442791 156.47467 
L 88.559731 152.794729 
L 88.881315 149.111135 
L 89.407542 145.438503 
L 90.123797 141.784143 
L 91.033732 138.166327 
L 92.122732 134.588709 
L 93.394449 131.065906 
L 94.837921 127.612536 
L 96.449494 124.235908 
L 98.225512 120.946984 
L 100.155014 117.760382 
L 102.237999 114.687066 
L 104.463505 111.734343 
L 106.83153 108.916832 
L 109.334766 106.249149 
L 111.965905 103.73495 
L 114.721292 101.392505 
L 114.721292 101.392505 
" style="fill:none;stroke:#fea952;stroke-linecap:square;"/>
   </g>
   <g id="line2d_13">
    <path clip-path="url(#p80f4131dfe)" d="M 243.251769 195.16255 
L 242.019568 190.63189 
L 241.083317 186.067937 
L 240.439912 181.498629 
L 240.077249 176.909246 
L 239.994731 172.343271 
L 240.181865 167.801608 
L 240.63113 163.301512 
L 241.336712 158.833058 
L 242.288792 154.443806 
L 243.484489 150.102988 
L 244.913738 145.852801 
L 246.573994 141.683046 
L 248.462132 137.604567 
L 250.565216 133.645556 
L 252.891813 129.786231 
L 255.423285 126.068142 
L 258.164229 122.48093 
L 261.106692 119.044464 
L 264.251846 115.762881 
L 267.581791 112.663177 
L 271.090578 109.751584 
L 274.786042 107.027529 
L 278.624489 104.532469 
L 282.619299 102.255215 
L 286.754017 100.215736 
L 291.018234 98.426808 
L 295.426191 96.895789 
L 299.915362 95.660921 
L 304.521342 94.716926 
L 309.213693 94.092535 
L 313.87308 93.806061 
L 318.546001 93.834457 
L 323.142716 94.167783 
L 327.721043 94.788208 
L 332.208806 95.681944 
L 336.632203 96.836792 
L 340.951077 98.235091 
L 345.192558 99.875363 
L 349.30614 101.736775 
L 353.305019 103.81602 
L 357.166654 106.099586 
L 360.877781 108.574704 
L 364.438704 111.2319 
L 367.830469 114.049301 
L 371.068598 117.024094 
L 374.152463 120.149491 
L 377.080703 123.418243 
L 379.836343 126.804313 
L 382.438929 130.319617 
L 384.880992 133.951195 
L 387.17468 137.71836 
L 389.290191 141.587241 
L 391.2449 145.598773 
L 393.001469 149.717282 
L 394.55525 153.959651 
L 395.877489 158.303276 
L 396.951521 162.740071 
L 397.761307 167.276932 
L 398.279847 171.889027 
L 398.487273 176.56238 
L 398.3701 181.210062 
L 397.943782 185.807315 
L 397.225847 190.341744 
L 396.231671 194.802157 
L 394.979142 199.173736 
L 393.474487 203.473039 
L 391.741763 207.647964 
L 389.785813 211.72496 
L 387.61639 215.687451 
L 385.241205 219.528645 
L 382.6788 223.223057 
L 379.922228 226.788401 
L 376.987587 230.197101 
L 373.879385 233.444109 
L 370.595141 236.528682 
L 367.13962 239.434271 
L 363.540806 242.13194 
L 359.785422 244.631866 
L 355.858674 246.928362 
L 351.832141 248.967224 
L 347.719968 250.753361 
L 343.597014 252.273369 
L 339.462312 253.563935 
L 335.328006 254.648222 
L 331.206607 255.54861 
L 327.122848 256.285585 
L 323.044174 256.890542 
L 315.065343 257.751966 
L 307.273223 258.294036 
L 299.609855 258.609459 
L 288.32174 258.793059 
L 269.962049 258.726951 
L 251.485774 258.526752 
L 240.259946 258.23383 
L 229.087708 257.730245 
L 207.575488 256.660536 
L 200.609885 256.505343 
L 178.02212 256.417564 
L 173.960699 256.228821 
L 169.821862 255.91686 
L 165.61527 255.451301 
L 161.348028 254.801854 
L 157.125714 253.962654 
L 152.908671 252.928244 
L 148.792342 251.718806 
L 144.687942 250.322765 
L 140.686396 248.763125 
L 136.717145 247.022248 
L 132.857631 245.125147 
L 129.064133 243.059129 
L 125.374805 240.838568 
L 121.785532 238.463613 
L 118.32688 235.954949 
L 114.995752 233.320504 
L 111.797354 230.574611 
L 108.722919 227.725146 
L 105.765709 224.775949 
L 102.930953 221.743883 
L 100.212749 218.638566 
L 97.587241 215.44612 
L 92.66132 208.895048 
L 90.308039 205.482225 
L 88.029626 201.959764 
L 85.847006 198.327745 
L 83.770462 194.571644 
L 81.835041 190.70952 
L 80.047674 186.720206 
L 78.430901 182.588408 
L 77.030054 178.360841 
L 75.850612 174.002343 
L 74.925523 169.529222 
L 74.28872 165.039607 
L 73.925274 160.518782 
L 73.832727 156.010397 
L 73.997679 151.523439 
L 74.411653 147.03787 
L 75.063036 142.62698 
L 75.947866 138.218682 
L 77.049783 133.909722 
L 78.373736 129.625379 
L 79.90777 125.428617 
L 81.645959 121.316373 
L 83.58753 117.290448 
L 85.72163 113.375826 
L 88.054903 109.559356 
L 90.564885 105.888889 
L 93.273434 102.329459 
L 96.172119 98.914508 
L 99.236195 95.680877 
L 102.498086 92.598077 
L 105.253474 90.255633 
L 105.253474 90.255633 
" style="fill:none;stroke:#ffffff;stroke-linecap:square;"/>
   </g>
   <g id="line2d_14">
    <path clip-path="url(#p80f4131dfe)" d="M 271.413594 187.314637 
L 270.62128 184.58043 
L 270.008082 181.821047 
L 269.569797 179.023165 
L 269.30391 176.216124 
L 269.211019 173.385675 
L 269.286999 170.55284 
L 269.532062 167.707673 
L 269.937405 164.889334 
L 270.512848 162.06488 
L 271.239343 159.287005 
L 272.126959 156.535438 
L 273.16362 153.834997 
L 274.345144 151.196763 
L 275.677159 148.61447 
L 277.136479 146.122518 
L 278.741742 143.701282 
L 280.466425 141.383049 
L 282.318482 139.162566 
L 284.282123 137.057623 
L 286.367939 135.063149 
L 288.567262 133.187531 
L 290.850331 131.453267 
L 293.246222 129.848136 
L 295.705011 128.397943 
L 298.228536 127.104646 
L 300.797972 125.977395 
L 303.369842 125.030758 
L 305.999364 124.255728 
L 308.60709 123.664892 
L 311.21615 123.258753 
L 313.902026 123.040925 
L 316.610911 123.005221 
L 319.396003 123.161579 
L 322.170248 123.491287 
L 324.976587 124.008135 
L 327.766897 124.695084 
L 330.544789 125.55518 
L 333.268518 126.567972 
L 335.944736 127.739679 
L 338.545631 129.05168 
L 341.057199 130.49556 
L 343.500014 132.084091 
L 345.851845 133.797509 
L 348.138955 135.657688 
L 350.338513 137.638207 
L 352.451148 139.738545 
L 354.470911 141.951333 
L 356.40016 144.280681 
L 358.233967 146.714674 
L 359.965182 149.244347 
L 361.574351 151.835768 
L 363.062039 154.500883 
L 364.403562 157.184137 
L 365.599716 159.90659 
L 366.633221 162.622121 
L 367.503598 165.346029 
L 368.205585 168.06447 
L 368.733295 170.748624 
L 369.084493 173.408705 
L 369.25712 176.036763 
L 369.242736 178.705109 
L 369.040504 181.416575 
L 368.654823 184.147013 
L 368.084933 186.900306 
L 367.334872 189.662038 
L 366.420341 192.393722 
L 365.324591 195.125538 
L 364.079322 197.801799 
L 362.68209 200.424464 
L 361.147109 202.971091 
L 359.470457 205.445238 
L 357.681005 207.814574 
L 355.777274 210.077441 
L 353.762065 212.231576 
L 351.667091 214.248489 
L 349.487589 216.130111 
L 347.210192 217.883453 
L 344.877413 219.483718 
L 342.504045 220.921978 
L 340.040435 222.215892 
L 337.487056 223.367861 
L 334.783666 224.398596 
L 331.960466 225.307955 
L 329.019932 226.102008 
L 325.964169 226.787613 
L 319.553015 227.864866 
L 312.812085 228.604052 
L 305.877135 229.092511 
L 298.879212 229.383712 
L 288.263094 229.55824 
L 270.166893 229.492791 
L 252.099571 229.298318 
L 241.39924 229.02116 
L 230.667245 228.538069 
L 208.392927 227.437088 
L 200.726474 227.270697 
L 176.097684 227.072152 
L 169.913378 226.534103 
L 166.952296 226.109168 
L 163.99014 225.545094 
L 161.066563 224.854646 
L 158.11536 224.010334 
L 155.225316 223.052967 
L 152.342048 221.952234 
L 149.536117 220.747696 
L 146.759313 219.407034 
L 144.062669 217.964867 
L 141.429954 216.40682 
L 138.879903 214.747362 
L 136.396565 212.973117 
L 133.98304 211.090772 
L 131.619503 209.085998 
L 129.322028 206.980151 
L 127.082739 204.769392 
L 122.761619 200.031401 
L 118.662042 194.922932 
L 114.825745 189.558651 
L 111.393361 184.112899 
L 109.866706 181.393475 
L 108.469351 178.655825 
L 107.223599 175.943044 
L 106.136146 173.255806 
L 105.205511 170.562015 
L 104.440834 167.896834 
L 103.845709 165.251262 
L 103.415439 162.527172 
L 103.150335 159.761203 
L 103.052856 156.938942 
L 103.121782 154.06602 
L 103.350976 151.1844 
L 103.752049 148.250026 
L 104.299727 145.349605 
L 105.017682 142.422933 
L 105.871727 139.552039 
L 106.881127 136.703195 
L 108.029882 133.9087 
L 109.311457 131.181368 
L 110.729395 128.518142 
L 112.255125 125.961409 
L 113.911114 123.485243 
L 115.653575 121.139227 
L 117.490941 118.919156 
L 119.433337 116.817422 
L 121.433724 114.871822 
L 124.189111 112.529378 
L 124.189111 112.529378 
" style="fill:none;stroke:#ffffff;stroke-linecap:square;"/>
   </g>
   <g id="patch_3">
    <path d="M 57.6 307.584 
L 57.6 41.472 
" style="fill:none;stroke:#000000;stroke-linecap:square;stroke-linejoin:miter;stroke-width:0.8;"/>
   </g>
   <g id="patch_4">
    <path d="M 414.72 307.584 
L 414.72 41.472 
" style="fill:none;stroke:#000000;stroke-linecap:square;stroke-linejoin:miter;stroke-width:0.8;"/>
   </g>
   <g id="patch_5">
    <path d="M 57.6 307.584 
L 414.72 307.584 
" style="fill:none;stroke:#000000;stroke-linecap:square;stroke-linejoin:miter;stroke-width:0.8;"/>
   </g>
   <g id="patch_6">
    <path d="M 57.6 41.472 
L 414.72 41.472 
" style="fill:none;stroke:#000000;stroke-linecap:square;stroke-linejoin:miter;stroke-width:0.8;"/>
   </g>
  </g>
 </g>
 <defs>
  <clipPath id="p80f4131dfe">
   <rect height="266.112" width="357.12" x="57.6" y="41.472"/>
  </clipPath>
 </defs>
</svg>
