<?xml version="1.0" encoding="utf-8" standalone="no"?>
<!DOCTYPE svg PUBLIC "-//W3C//DTD SVG 1.1//EN"
  "http://www.w3.org/Graphics/SVG/1.1/DTD/svg11.dtd">
<!-- Created with matplotlib (https://matplotlib.org/) -->
<svg height="345.6pt" version="1.1" viewBox="0 0 460.8 345.6" width="460.8pt" xmlns="http://www.w3.org/2000/svg" xmlns:xlink="http://www.w3.org/1999/xlink">
 <metadata>
  <rdf:RDF xmlns:cc="http://creativecommons.org/ns#" xmlns:dc="http://purl.org/dc/elements/1.1/" xmlns:rdf="http://www.w3.org/1999/02/22-rdf-syntax-ns#">
   <cc:Work>
    <dc:type rdf:resource="http://purl.org/dc/dcmitype/StillImage"/>
    <dc:date>2021-01-22T10:03:31.594527</dc:date>
    <dc:format>image/svg+xml</dc:format>
    <dc:creator>
     <cc:Agent>
      <dc:title>Matplotlib v3.3.3, https://matplotlib.org/</dc:title>
     </cc:Agent>
    </dc:creator>
   </cc:Work>
  </rdf:RDF>
 </metadata>
 <defs>
  <style type="text/css">*{stroke-linecap:butt;stroke-linejoin:round;}</style>
 </defs>
 <g id="figure_1">
  <g id="patch_1">
   <path d="M 0 345.6 
L 460.8 345.6 
L 460.8 0 
L 0 0 
z
" style="fill:#ffffff;"/>
  </g>
  <g id="axes_1">
   <g id="patch_2">
    <path d="M 57.6 307.584 
L 414.72 307.584 
L 414.72 41.472 
L 57.6 41.472 
z
" style="fill:#7d9051;"/>
   </g>
   <g id="matplotlib.axis_1">
    <g id="xtick_1">
     <g id="line2d_1">
      <defs>
       <path d="M 0 0 
L 0 3.5 
" id="mc786e52320" style="stroke:#000000;stroke-width:0.8;"/>
      </defs>
      <g>
       <use style="stroke:#000000;stroke-width:0.8;" x="78.212334" xlink:href="#mc786e52320" y="307.584"/>
      </g>
     </g>
     <g id="text_1">
      <!-- −40 -->
      <g transform="translate(67.65999 322.182437)scale(0.1 -0.1)">
       <defs>
        <path d="M 10.59375 35.5 
L 73.1875 35.5 
L 73.1875 27.203125 
L 10.59375 27.203125 
z
" id="DejaVuSans-8722"/>
        <path d="M 37.796875 64.3125 
L 12.890625 25.390625 
L 37.796875 25.390625 
z
M 35.203125 72.90625 
L 47.609375 72.90625 
L 47.609375 25.390625 
L 58.015625 25.390625 
L 58.015625 17.1875 
L 47.609375 17.1875 
L 47.609375 0 
L 37.796875 0 
L 37.796875 17.1875 
L 4.890625 17.1875 
L 4.890625 26.703125 
z
" id="DejaVuSans-52"/>
        <path d="M 31.78125 66.40625 
Q 24.171875 66.40625 20.328125 58.90625 
Q 16.5 51.421875 16.5 36.375 
Q 16.5 21.390625 20.328125 13.890625 
Q 24.171875 6.390625 31.78125 6.390625 
Q 39.453125 6.390625 43.28125 13.890625 
Q 47.125 21.390625 47.125 36.375 
Q 47.125 51.421875 43.28125 58.90625 
Q 39.453125 66.40625 31.78125 66.40625 
z
M 31.78125 74.21875 
Q 44.046875 74.21875 50.515625 64.515625 
Q 56.984375 54.828125 56.984375 36.375 
Q 56.984375 17.96875 50.515625 8.265625 
Q 44.046875 -1.421875 31.78125 -1.421875 
Q 19.53125 -1.421875 13.0625 8.265625 
Q 6.59375 17.96875 6.59375 36.375 
Q 6.59375 54.828125 13.0625 64.515625 
Q 19.53125 74.21875 31.78125 74.21875 
z
" id="DejaVuSans-48"/>
       </defs>
       <use xlink:href="#DejaVuSans-8722"/>
       <use x="83.789062" xlink:href="#DejaVuSans-52"/>
       <use x="147.412109" xlink:href="#DejaVuSans-48"/>
      </g>
     </g>
    </g>
    <g id="xtick_2">
     <g id="line2d_2">
      <g>
       <use style="stroke:#000000;stroke-width:0.8;" x="120.074103" xlink:href="#mc786e52320" y="307.584"/>
      </g>
     </g>
     <g id="text_2">
      <!-- −20 -->
      <g transform="translate(109.521759 322.182437)scale(0.1 -0.1)">
       <defs>
        <path d="M 19.1875 8.296875 
L 53.609375 8.296875 
L 53.609375 0 
L 7.328125 0 
L 7.328125 8.296875 
Q 12.9375 14.109375 22.625 23.890625 
Q 32.328125 33.6875 34.8125 36.53125 
Q 39.546875 41.84375 41.421875 45.53125 
Q 43.3125 49.21875 43.3125 52.78125 
Q 43.3125 58.59375 39.234375 62.25 
Q 35.15625 65.921875 28.609375 65.921875 
Q 23.96875 65.921875 18.8125 64.3125 
Q 13.671875 62.703125 7.8125 59.421875 
L 7.8125 69.390625 
Q 13.765625 71.78125 18.9375 73 
Q 24.125 74.21875 28.421875 74.21875 
Q 39.75 74.21875 46.484375 68.546875 
Q 53.21875 62.890625 53.21875 53.421875 
Q 53.21875 48.921875 51.53125 44.890625 
Q 49.859375 40.875 45.40625 35.40625 
Q 44.1875 33.984375 37.640625 27.21875 
Q 31.109375 20.453125 19.1875 8.296875 
z
" id="DejaVuSans-50"/>
       </defs>
       <use xlink:href="#DejaVuSans-8722"/>
       <use x="83.789062" xlink:href="#DejaVuSans-50"/>
       <use x="147.412109" xlink:href="#DejaVuSans-48"/>
      </g>
     </g>
    </g>
    <g id="xtick_3">
     <g id="line2d_3">
      <g>
       <use style="stroke:#000000;stroke-width:0.8;" x="161.935872" xlink:href="#mc786e52320" y="307.584"/>
      </g>
     </g>
     <g id="text_3">
      <!-- 0 -->
      <g transform="translate(158.754622 322.182437)scale(0.1 -0.1)">
       <use xlink:href="#DejaVuSans-48"/>
      </g>
     </g>
    </g>
    <g id="xtick_4">
     <g id="line2d_4">
      <g>
       <use style="stroke:#000000;stroke-width:0.8;" x="203.797641" xlink:href="#mc786e52320" y="307.584"/>
      </g>
     </g>
     <g id="text_4">
      <!-- 20 -->
      <g transform="translate(197.435141 322.182437)scale(0.1 -0.1)">
       <use xlink:href="#DejaVuSans-50"/>
       <use x="63.623047" xlink:href="#DejaVuSans-48"/>
      </g>
     </g>
    </g>
    <g id="xtick_5">
     <g id="line2d_5">
      <g>
       <use style="stroke:#000000;stroke-width:0.8;" x="245.65941" xlink:href="#mc786e52320" y="307.584"/>
      </g>
     </g>
     <g id="text_5">
      <!-- 40 -->
      <g transform="translate(239.29691 322.182437)scale(0.1 -0.1)">
       <use xlink:href="#DejaVuSans-52"/>
       <use x="63.623047" xlink:href="#DejaVuSans-48"/>
      </g>
     </g>
    </g>
    <g id="xtick_6">
     <g id="line2d_6">
      <g>
       <use style="stroke:#000000;stroke-width:0.8;" x="287.521179" xlink:href="#mc786e52320" y="307.584"/>
      </g>
     </g>
     <g id="text_6">
      <!-- 60 -->
      <g transform="translate(281.158679 322.182437)scale(0.1 -0.1)">
       <defs>
        <path d="M 33.015625 40.375 
Q 26.375 40.375 22.484375 35.828125 
Q 18.609375 31.296875 18.609375 23.390625 
Q 18.609375 15.53125 22.484375 10.953125 
Q 26.375 6.390625 33.015625 6.390625 
Q 39.65625 6.390625 43.53125 10.953125 
Q 47.40625 15.53125 47.40625 23.390625 
Q 47.40625 31.296875 43.53125 35.828125 
Q 39.65625 40.375 33.015625 40.375 
z
M 52.59375 71.296875 
L 52.59375 62.3125 
Q 48.875 64.0625 45.09375 64.984375 
Q 41.3125 65.921875 37.59375 65.921875 
Q 27.828125 65.921875 22.671875 59.328125 
Q 17.53125 52.734375 16.796875 39.40625 
Q 19.671875 43.65625 24.015625 45.921875 
Q 28.375 48.1875 33.59375 48.1875 
Q 44.578125 48.1875 50.953125 41.515625 
Q 57.328125 34.859375 57.328125 23.390625 
Q 57.328125 12.15625 50.6875 5.359375 
Q 44.046875 -1.421875 33.015625 -1.421875 
Q 20.359375 -1.421875 13.671875 8.265625 
Q 6.984375 17.96875 6.984375 36.375 
Q 6.984375 53.65625 15.1875 63.9375 
Q 23.390625 74.21875 37.203125 74.21875 
Q 40.921875 74.21875 44.703125 73.484375 
Q 48.484375 72.75 52.59375 71.296875 
z
" id="DejaVuSans-54"/>
       </defs>
       <use xlink:href="#DejaVuSans-54"/>
       <use x="63.623047" xlink:href="#DejaVuSans-48"/>
      </g>
     </g>
    </g>
    <g id="xtick_7">
     <g id="line2d_7">
      <g>
       <use style="stroke:#000000;stroke-width:0.8;" x="329.382948" xlink:href="#mc786e52320" y="307.584"/>
      </g>
     </g>
     <g id="text_7">
      <!-- 80 -->
      <g transform="translate(323.020448 322.182437)scale(0.1 -0.1)">
       <defs>
        <path d="M 31.78125 34.625 
Q 24.75 34.625 20.71875 30.859375 
Q 16.703125 27.09375 16.703125 20.515625 
Q 16.703125 13.921875 20.71875 10.15625 
Q 24.75 6.390625 31.78125 6.390625 
Q 38.8125 6.390625 42.859375 10.171875 
Q 46.921875 13.96875 46.921875 20.515625 
Q 46.921875 27.09375 42.890625 30.859375 
Q 38.875 34.625 31.78125 34.625 
z
M 21.921875 38.8125 
Q 15.578125 40.375 12.03125 44.71875 
Q 8.5 49.078125 8.5 55.328125 
Q 8.5 64.0625 14.71875 69.140625 
Q 20.953125 74.21875 31.78125 74.21875 
Q 42.671875 74.21875 48.875 69.140625 
Q 55.078125 64.0625 55.078125 55.328125 
Q 55.078125 49.078125 51.53125 44.71875 
Q 48 40.375 41.703125 38.8125 
Q 48.828125 37.15625 52.796875 32.3125 
Q 56.78125 27.484375 56.78125 20.515625 
Q 56.78125 9.90625 50.3125 4.234375 
Q 43.84375 -1.421875 31.78125 -1.421875 
Q 19.734375 -1.421875 13.25 4.234375 
Q 6.78125 9.90625 6.78125 20.515625 
Q 6.78125 27.484375 10.78125 32.3125 
Q 14.796875 37.15625 21.921875 38.8125 
z
M 18.3125 54.390625 
Q 18.3125 48.734375 21.84375 45.5625 
Q 25.390625 42.390625 31.78125 42.390625 
Q 38.140625 42.390625 41.71875 45.5625 
Q 45.3125 48.734375 45.3125 54.390625 
Q 45.3125 60.0625 41.71875 63.234375 
Q 38.140625 66.40625 31.78125 66.40625 
Q 25.390625 66.40625 21.84375 63.234375 
Q 18.3125 60.0625 18.3125 54.390625 
z
" id="DejaVuSans-56"/>
       </defs>
       <use xlink:href="#DejaVuSans-56"/>
       <use x="63.623047" xlink:href="#DejaVuSans-48"/>
      </g>
     </g>
    </g>
    <g id="xtick_8">
     <g id="line2d_8">
      <g>
       <use style="stroke:#000000;stroke-width:0.8;" x="371.244717" xlink:href="#mc786e52320" y="307.584"/>
      </g>
     </g>
     <g id="text_8">
      <!-- 100 -->
      <g transform="translate(361.700967 322.182437)scale(0.1 -0.1)">
       <defs>
        <path d="M 12.40625 8.296875 
L 28.515625 8.296875 
L 28.515625 63.921875 
L 10.984375 60.40625 
L 10.984375 69.390625 
L 28.421875 72.90625 
L 38.28125 72.90625 
L 38.28125 8.296875 
L 54.390625 8.296875 
L 54.390625 0 
L 12.40625 0 
z
" id="DejaVuSans-49"/>
       </defs>
       <use xlink:href="#DejaVuSans-49"/>
       <use x="63.623047" xlink:href="#DejaVuSans-48"/>
       <use x="127.246094" xlink:href="#DejaVuSans-48"/>
      </g>
     </g>
    </g>
    <g id="xtick_9">
     <g id="line2d_9">
      <g>
       <use style="stroke:#000000;stroke-width:0.8;" x="413.106486" xlink:href="#mc786e52320" y="307.584"/>
      </g>
     </g>
     <g id="text_9">
      <!-- 120 -->
      <g transform="translate(403.562736 322.182437)scale(0.1 -0.1)">
       <use xlink:href="#DejaVuSans-49"/>
       <use x="63.623047" xlink:href="#DejaVuSans-50"/>
       <use x="127.246094" xlink:href="#DejaVuSans-48"/>
      </g>
     </g>
    </g>
   </g>
   <g id="matplotlib.axis_2">
    <g id="ytick_1">
     <g id="line2d_10">
      <defs>
       <path d="M 0 0 
L -3.5 0 
" id="ma2ecad0c89" style="stroke:#000000;stroke-width:0.8;"/>
      </defs>
      <g>
       <use style="stroke:#000000;stroke-width:0.8;" x="57.6" xlink:href="#ma2ecad0c89" y="274.332782"/>
      </g>
     </g>
     <g id="text_10">
      <!-- 20 -->
      <g transform="translate(37.875 278.132001)scale(0.1 -0.1)">
       <use xlink:href="#DejaVuSans-50"/>
       <use x="63.623047" xlink:href="#DejaVuSans-48"/>
      </g>
     </g>
    </g>
    <g id="ytick_2">
     <g id="line2d_11">
      <g>
       <use style="stroke:#000000;stroke-width:0.8;" x="57.6" xlink:href="#ma2ecad0c89" y="232.471013"/>
      </g>
     </g>
     <g id="text_11">
      <!-- 40 -->
      <g transform="translate(37.875 236.270232)scale(0.1 -0.1)">
       <use xlink:href="#DejaVuSans-52"/>
       <use x="63.623047" xlink:href="#DejaVuSans-48"/>
      </g>
     </g>
    </g>
    <g id="ytick_3">
     <g id="line2d_12">
      <g>
       <use style="stroke:#000000;stroke-width:0.8;" x="57.6" xlink:href="#ma2ecad0c89" y="190.609244"/>
      </g>
     </g>
     <g id="text_12">
      <!-- 60 -->
      <g transform="translate(37.875 194.408463)scale(0.1 -0.1)">
       <use xlink:href="#DejaVuSans-54"/>
       <use x="63.623047" xlink:href="#DejaVuSans-48"/>
      </g>
     </g>
    </g>
    <g id="ytick_4">
     <g id="line2d_13">
      <g>
       <use style="stroke:#000000;stroke-width:0.8;" x="57.6" xlink:href="#ma2ecad0c89" y="148.747475"/>
      </g>
     </g>
     <g id="text_13">
      <!-- 80 -->
      <g transform="translate(37.875 152.546694)scale(0.1 -0.1)">
       <use xlink:href="#DejaVuSans-56"/>
       <use x="63.623047" xlink:href="#DejaVuSans-48"/>
      </g>
     </g>
    </g>
    <g id="ytick_5">
     <g id="line2d_14">
      <g>
       <use style="stroke:#000000;stroke-width:0.8;" x="57.6" xlink:href="#ma2ecad0c89" y="106.885706"/>
      </g>
     </g>
     <g id="text_14">
      <!-- 100 -->
      <g transform="translate(31.5125 110.684925)scale(0.1 -0.1)">
       <use xlink:href="#DejaVuSans-49"/>
       <use x="63.623047" xlink:href="#DejaVuSans-48"/>
       <use x="127.246094" xlink:href="#DejaVuSans-48"/>
      </g>
     </g>
    </g>
    <g id="ytick_6">
     <g id="line2d_15">
      <g>
       <use style="stroke:#000000;stroke-width:0.8;" x="57.6" xlink:href="#ma2ecad0c89" y="65.023937"/>
      </g>
     </g>
     <g id="text_15">
      <!-- 120 -->
      <g transform="translate(31.5125 68.823156)scale(0.1 -0.1)">
       <use xlink:href="#DejaVuSans-49"/>
       <use x="63.623047" xlink:href="#DejaVuSans-50"/>
       <use x="127.246094" xlink:href="#DejaVuSans-48"/>
      </g>
     </g>
    </g>
   </g>
   <g id="line2d_16">
    <path clip-path="url(#pc5cd024c0d)" d="M 226.457417 295.263667 
L 226.700215 282.765836 
L 226.576723 276.354706 
L 226.315087 272.078526 
L 225.865072 267.833743 
L 225.189005 263.645473 
L 224.245022 259.543019 
L 222.997541 255.547314 
L 221.41098 251.687658 
L 219.512549 247.957775 
L 217.381785 244.32208 
L 213.942841 238.976332 
L 209.317115 231.876576 
L 206.012128 226.486873 
L 202.882961 221.01554 
L 199.956824 215.441646 
L 196.31485 207.862572 
L 187.486203 188.696161 
L 185.933131 184.784179 
L 184.606113 180.796846 
L 183.576313 176.706951 
L 182.870943 172.531239 
L 182.49 168.303201 
L 182.439766 164.06051 
L 182.716054 159.838751 
L 183.318863 155.669319 
L 184.206333 151.5564 
L 185.307297 147.491622 
L 187.218287 141.450969 
L 193.813609 121.441043 
L 200.752197 99.367332 
L 202.280152 95.403023 
L 203.990205 91.505692 
L 205.920033 87.72976 
L 208.109403 84.125462 
L 210.595992 80.743031 
L 213.413289 77.632702 
L 216.536177 74.800753 
L 219.918608 72.245092 
L 223.510348 69.955253 
L 227.263256 67.924958 
L 231.135469 66.154205 
L 235.101872 64.657646 
L 239.156184 63.4604 
L 243.287941 62.591768 
L 247.486676 62.074775 
L 251.737739 61.934538 
L 255.997174 62.194081 
L 260.206375 62.870149 
L 262.274346 63.370397 
L 264.308828 63.981579 
L 266.301448 64.705787 
L 268.248021 65.547209 
L 270.140173 66.505844 
L 271.969532 67.579598 
L 273.738192 68.7601 
L 275.435686 70.045256 
L 277.059923 71.426695 
L 278.606715 72.898136 
L 280.069784 74.455394 
L 281.447036 76.092189 
L 282.734286 77.802242 
L 283.92316 79.581367 
L 285.013659 81.419099 
L 286.001597 83.315437 
L 286.882787 85.259916 
L 287.65723 87.250443 
L 288.320739 89.276553 
L 288.871221 91.334059 
L 289.306584 93.418775 
L 289.624733 95.522329 
L 289.821483 97.638441 
L 289.896835 99.762926 
L 289.848693 101.887411 
L 289.67706 104.007709 
L 289.384028 106.115449 
L 288.973782 108.206445 
L 288.448417 110.274416 
L 287.812118 112.308898 
L 287.062793 114.307798 
L 286.20672 116.262742 
L 285.243899 118.167453 
L 284.178517 120.013557 
L 283.01476 121.798961 
L 281.750534 123.515294 
L 280.39212 125.154182 
L 278.94161 126.71144 
L 277.399003 128.178695 
L 275.770581 129.551761 
L 274.054248 130.824359 
L 272.256285 131.988116 
L 270.378785 133.036753 
L 268.42384 133.963991 
L 268.42384 133.963991 
" style="fill:none;stroke:#fea952;stroke-linecap:square;"/>
   </g>
   <g id="line2d_17">
    <path clip-path="url(#pc5cd024c0d)" d="M 218.088069 295.039334 
L 218.328006 282.815132 
L 218.215164 276.779731 
L 217.979023 272.857214 
L 217.581041 269.046644 
L 216.996946 265.373615 
L 216.201781 261.867366 
L 215.184108 258.555065 
L 213.882712 255.351192 
L 212.240236 252.106242 
L 210.289501 248.771329 
L 206.961424 243.597601 
L 202.219706 236.317645 
L 198.790571 230.723076 
L 195.520489 225.001805 
L 192.456719 219.162498 
L 188.718215 211.382152 
L 179.744643 191.884352 
L 178.034854 187.561503 
L 176.531269 183.008904 
L 175.350092 178.264382 
L 174.548 173.439497 
L 174.121564 168.559293 
L 174.076065 163.679966 
L 174.408353 158.800288 
L 175.108775 154.028966 
L 176.101396 149.457279 
L 177.293773 145.066804 
L 179.278068 138.795932 
L 185.816741 118.961847 
L 192.909531 96.436652 
L 194.572446 92.133836 
L 196.475505 87.814405 
L 198.676461 83.53131 
L 201.246197 79.330391 
L 202.68893 77.282407 
L 204.24572 75.28681 
L 205.90659 73.371377 
L 207.644867 71.564621 
L 209.461846 69.850095 
L 213.294347 66.7024 
L 217.326023 63.922503 
L 221.515486 61.474892 
L 225.833168 59.334753 
L 230.293852 57.483764 
L 234.904061 55.945367 
L 239.661239 54.756013 
L 244.544669 53.955702 
L 247.016783 53.715618 
L 249.526748 53.58352 
L 252.049739 53.568 
L 254.576754 53.671555 
L 257.114457 53.896613 
L 259.648661 54.248766 
L 262.174894 54.732505 
L 264.683151 55.352045 
L 267.168695 56.112813 
L 269.6234 57.020676 
L 272.031854 58.078681 
L 274.378263 59.285393 
L 276.617481 60.615915 
L 278.791842 62.085002 
L 280.859936 63.667653 
L 282.830475 65.360638 
L 284.708517 67.165394 
L 286.476015 69.064984 
L 288.136067 71.056994 
L 289.695461 73.150539 
L 291.123293 75.308851 
L 292.438798 77.550815 
L 293.627438 79.859593 
L 294.685398 82.2242 
L 295.613805 84.644829 
L 296.408622 87.112653 
L 297.066769 89.622539 
L 297.584792 92.166747 
L 297.961131 94.747233 
L 298.188576 97.341677 
L 298.26704 99.952596 
L 298.193751 102.562924 
L 297.969656 105.160603 
L 297.599751 107.727343 
L 297.08837 110.267944 
L 296.439076 112.773552 
L 295.651735 115.247728 
L 294.732055 117.666179 
L 293.678687 120.039781 
L 292.495364 122.352255 
L 291.192434 124.585348 
L 289.755798 126.764312 
L 288.196503 128.858121 
L 286.51852 130.860628 
L 284.71174 132.777897 
L 282.795988 134.579387 
L 280.757174 136.277101 
L 278.603558 137.852878 
L 276.338854 139.297626 
L 273.966704 140.601351 
L 272.01176 141.528589 
L 272.01176 141.528589 
" style="fill:none;stroke:#ffffff;stroke-linecap:square;"/>
   </g>
   <g id="line2d_18">
    <path clip-path="url(#pc5cd024c0d)" d="M 234.826764 295.488 
L 235.072423 282.716539 
L 234.938281 275.92968 
L 234.65115 271.299838 
L 234.149104 266.620842 
L 233.381064 261.91733 
L 232.288263 257.218673 
L 230.810974 252.539562 
L 228.939249 248.024125 
L 226.784862 243.809308 
L 224.474069 239.872832 
L 220.924258 234.355063 
L 215.335114 225.711131 
L 212.213454 220.512327 
L 209.29811 215.281084 
L 206.561128 209.916123 
L 203.030744 202.442025 
L 194.504844 183.759722 
L 193.22351 180.29242 
L 192.208835 176.888522 
L 191.464107 173.397064 
L 190.991947 169.827246 
L 190.797269 166.240698 
L 190.877976 162.657525 
L 191.239259 159.103158 
L 191.88718 155.496654 
L 192.790255 151.797917 
L 194.513212 146.07095 
L 203.06848 119.832074 
L 207.289204 106.055731 
L 209.276147 100.469829 
L 210.735836 96.902192 
L 212.319359 93.529318 
L 214.043596 90.39579 
L 215.936928 87.523294 
L 218.018968 84.933191 
L 220.416455 82.514288 
L 223.101832 80.274374 
L 226.056886 78.210864 
L 229.226721 76.33834 
L 232.54044 74.67743 
L 235.920465 73.254829 
L 239.335157 72.093142 
L 242.766142 71.210338 
L 246.217389 70.616652 
L 249.691388 70.327418 
L 253.164438 70.356596 
L 256.573725 70.708717 
L 259.865541 71.388749 
L 262.979497 72.390899 
L 265.902082 73.726294 
L 268.684542 75.435198 
L 271.289371 77.492751 
L 273.663553 79.845803 
L 275.77311 82.453945 
L 277.58852 85.287383 
L 279.080176 88.295632 
L 280.232856 91.440452 
L 281.028375 94.670802 
L 281.454391 97.935205 
L 281.503636 101.211898 
L 281.168305 104.503556 
L 280.457759 107.77528 
L 279.393531 110.949416 
L 277.992434 113.982651 
L 276.273721 116.833611 
L 274.265719 119.447736 
L 272.002018 121.778002 
L 269.504938 123.795839 
L 266.790865 125.472155 
L 264.83592 126.399393 
L 264.83592 126.399393 
" style="fill:none;stroke:#ffffff;stroke-linecap:square;"/>
   </g>
   <g id="patch_3">
    <path d="M 57.6 307.584 
L 57.6 41.472 
" style="fill:none;stroke:#000000;stroke-linecap:square;stroke-linejoin:miter;stroke-width:0.8;"/>
   </g>
   <g id="patch_4">
    <path d="M 414.72 307.584 
L 414.72 41.472 
" style="fill:none;stroke:#000000;stroke-linecap:square;stroke-linejoin:miter;stroke-width:0.8;"/>
   </g>
   <g id="patch_5">
    <path d="M 57.6 307.584 
L 414.72 307.584 
" style="fill:none;stroke:#000000;stroke-linecap:square;stroke-linejoin:miter;stroke-width:0.8;"/>
   </g>
   <g id="patch_6">
    <path d="M 57.6 41.472 
L 414.72 41.472 
" style="fill:none;stroke:#000000;stroke-linecap:square;stroke-linejoin:miter;stroke-width:0.8;"/>
   </g>
  </g>
 </g>
 <defs>
  <clipPath id="pc5cd024c0d">
   <rect height="266.112" width="357.12" x="57.6" y="41.472"/>
  </clipPath>
 </defs>
</svg>
