<?xml version="1.0" encoding="utf-8" standalone="no"?>
<!DOCTYPE svg PUBLIC "-//W3C//DTD SVG 1.1//EN"
  "http://www.w3.org/Graphics/SVG/1.1/DTD/svg11.dtd">
<!-- Created with matplotlib (https://matplotlib.org/) -->
<svg height="345.6pt" version="1.1" viewBox="0 0 460.8 345.6" width="460.8pt" xmlns="http://www.w3.org/2000/svg" xmlns:xlink="http://www.w3.org/1999/xlink">
 <metadata>
  <rdf:RDF xmlns:cc="http://creativecommons.org/ns#" xmlns:dc="http://purl.org/dc/elements/1.1/" xmlns:rdf="http://www.w3.org/1999/02/22-rdf-syntax-ns#">
   <cc:Work>
    <dc:type rdf:resource="http://purl.org/dc/dcmitype/StillImage"/>
    <dc:date>2021-01-23T13:10:09.770037</dc:date>
    <dc:format>image/svg+xml</dc:format>
    <dc:creator>
     <cc:Agent>
      <dc:title>Matplotlib v3.3.3, https://matplotlib.org/</dc:title>
     </cc:Agent>
    </dc:creator>
   </cc:Work>
  </rdf:RDF>
 </metadata>
 <defs>
  <style type="text/css">*{stroke-linecap:butt;stroke-linejoin:round;}</style>
 </defs>
 <g id="figure_1">
  <g id="patch_1">
   <path d="M 0 345.6 
L 460.8 345.6 
L 460.8 0 
L 0 0 
z
" style="fill:#ffffff;"/>
  </g>
  <g id="axes_1">
   <g id="patch_2">
    <path d="M 57.6 307.584 
L 414.72 307.584 
L 414.72 41.472 
L 57.6 41.472 
z
" style="fill:#7d9051;"/>
   </g>
   <g id="matplotlib.axis_1">
    <g id="xtick_1">
     <g id="line2d_1">
      <defs>
       <path d="M 0 0 
L 0 3.5 
" id="m6df6af4cde" style="stroke:#000000;stroke-width:0.8;"/>
      </defs>
      <g>
       <use style="stroke:#000000;stroke-width:0.8;" x="73.570205" xlink:href="#m6df6af4cde" y="307.584"/>
      </g>
     </g>
     <g id="text_1">
      <!-- −20 -->
      <g transform="translate(63.017861 322.182437)scale(0.1 -0.1)">
       <defs>
        <path d="M 10.59375 35.5 
L 73.1875 35.5 
L 73.1875 27.203125 
L 10.59375 27.203125 
z
" id="DejaVuSans-8722"/>
        <path d="M 19.1875 8.296875 
L 53.609375 8.296875 
L 53.609375 0 
L 7.328125 0 
L 7.328125 8.296875 
Q 12.9375 14.109375 22.625 23.890625 
Q 32.328125 33.6875 34.8125 36.53125 
Q 39.546875 41.84375 41.421875 45.53125 
Q 43.3125 49.21875 43.3125 52.78125 
Q 43.3125 58.59375 39.234375 62.25 
Q 35.15625 65.921875 28.609375 65.921875 
Q 23.96875 65.921875 18.8125 64.3125 
Q 13.671875 62.703125 7.8125 59.421875 
L 7.8125 69.390625 
Q 13.765625 71.78125 18.9375 73 
Q 24.125 74.21875 28.421875 74.21875 
Q 39.75 74.21875 46.484375 68.546875 
Q 53.21875 62.890625 53.21875 53.421875 
Q 53.21875 48.921875 51.53125 44.890625 
Q 49.859375 40.875 45.40625 35.40625 
Q 44.1875 33.984375 37.640625 27.21875 
Q 31.109375 20.453125 19.1875 8.296875 
z
" id="DejaVuSans-50"/>
        <path d="M 31.78125 66.40625 
Q 24.171875 66.40625 20.328125 58.90625 
Q 16.5 51.421875 16.5 36.375 
Q 16.5 21.390625 20.328125 13.890625 
Q 24.171875 6.390625 31.78125 6.390625 
Q 39.453125 6.390625 43.28125 13.890625 
Q 47.125 21.390625 47.125 36.375 
Q 47.125 51.421875 43.28125 58.90625 
Q 39.453125 66.40625 31.78125 66.40625 
z
M 31.78125 74.21875 
Q 44.046875 74.21875 50.515625 64.515625 
Q 56.984375 54.828125 56.984375 36.375 
Q 56.984375 17.96875 50.515625 8.265625 
Q 44.046875 -1.421875 31.78125 -1.421875 
Q 19.53125 -1.421875 13.0625 8.265625 
Q 6.59375 17.96875 6.59375 36.375 
Q 6.59375 54.828125 13.0625 64.515625 
Q 19.53125 74.21875 31.78125 74.21875 
z
" id="DejaVuSans-48"/>
       </defs>
       <use xlink:href="#DejaVuSans-8722"/>
       <use x="83.789062" xlink:href="#DejaVuSans-50"/>
       <use x="147.412109" xlink:href="#DejaVuSans-48"/>
      </g>
     </g>
    </g>
    <g id="xtick_2">
     <g id="line2d_2">
      <g>
       <use style="stroke:#000000;stroke-width:0.8;" x="124.261249" xlink:href="#m6df6af4cde" y="307.584"/>
      </g>
     </g>
     <g id="text_2">
      <!-- 0 -->
      <g transform="translate(121.079999 322.182437)scale(0.1 -0.1)">
       <use xlink:href="#DejaVuSans-48"/>
      </g>
     </g>
    </g>
    <g id="xtick_3">
     <g id="line2d_3">
      <g>
       <use style="stroke:#000000;stroke-width:0.8;" x="174.952293" xlink:href="#m6df6af4cde" y="307.584"/>
      </g>
     </g>
     <g id="text_3">
      <!-- 20 -->
      <g transform="translate(168.589793 322.182437)scale(0.1 -0.1)">
       <use xlink:href="#DejaVuSans-50"/>
       <use x="63.623047" xlink:href="#DejaVuSans-48"/>
      </g>
     </g>
    </g>
    <g id="xtick_4">
     <g id="line2d_4">
      <g>
       <use style="stroke:#000000;stroke-width:0.8;" x="225.643337" xlink:href="#m6df6af4cde" y="307.584"/>
      </g>
     </g>
     <g id="text_4">
      <!-- 40 -->
      <g transform="translate(219.280837 322.182437)scale(0.1 -0.1)">
       <defs>
        <path d="M 37.796875 64.3125 
L 12.890625 25.390625 
L 37.796875 25.390625 
z
M 35.203125 72.90625 
L 47.609375 72.90625 
L 47.609375 25.390625 
L 58.015625 25.390625 
L 58.015625 17.1875 
L 47.609375 17.1875 
L 47.609375 0 
L 37.796875 0 
L 37.796875 17.1875 
L 4.890625 17.1875 
L 4.890625 26.703125 
z
" id="DejaVuSans-52"/>
       </defs>
       <use xlink:href="#DejaVuSans-52"/>
       <use x="63.623047" xlink:href="#DejaVuSans-48"/>
      </g>
     </g>
    </g>
    <g id="xtick_5">
     <g id="line2d_5">
      <g>
       <use style="stroke:#000000;stroke-width:0.8;" x="276.334381" xlink:href="#m6df6af4cde" y="307.584"/>
      </g>
     </g>
     <g id="text_5">
      <!-- 60 -->
      <g transform="translate(269.971881 322.182437)scale(0.1 -0.1)">
       <defs>
        <path d="M 33.015625 40.375 
Q 26.375 40.375 22.484375 35.828125 
Q 18.609375 31.296875 18.609375 23.390625 
Q 18.609375 15.53125 22.484375 10.953125 
Q 26.375 6.390625 33.015625 6.390625 
Q 39.65625 6.390625 43.53125 10.953125 
Q 47.40625 15.53125 47.40625 23.390625 
Q 47.40625 31.296875 43.53125 35.828125 
Q 39.65625 40.375 33.015625 40.375 
z
M 52.59375 71.296875 
L 52.59375 62.3125 
Q 48.875 64.0625 45.09375 64.984375 
Q 41.3125 65.921875 37.59375 65.921875 
Q 27.828125 65.921875 22.671875 59.328125 
Q 17.53125 52.734375 16.796875 39.40625 
Q 19.671875 43.65625 24.015625 45.921875 
Q 28.375 48.1875 33.59375 48.1875 
Q 44.578125 48.1875 50.953125 41.515625 
Q 57.328125 34.859375 57.328125 23.390625 
Q 57.328125 12.15625 50.6875 5.359375 
Q 44.046875 -1.421875 33.015625 -1.421875 
Q 20.359375 -1.421875 13.671875 8.265625 
Q 6.984375 17.96875 6.984375 36.375 
Q 6.984375 53.65625 15.1875 63.9375 
Q 23.390625 74.21875 37.203125 74.21875 
Q 40.921875 74.21875 44.703125 73.484375 
Q 48.484375 72.75 52.59375 71.296875 
z
" id="DejaVuSans-54"/>
       </defs>
       <use xlink:href="#DejaVuSans-54"/>
       <use x="63.623047" xlink:href="#DejaVuSans-48"/>
      </g>
     </g>
    </g>
    <g id="xtick_6">
     <g id="line2d_6">
      <g>
       <use style="stroke:#000000;stroke-width:0.8;" x="327.025425" xlink:href="#m6df6af4cde" y="307.584"/>
      </g>
     </g>
     <g id="text_6">
      <!-- 80 -->
      <g transform="translate(320.662925 322.182437)scale(0.1 -0.1)">
       <defs>
        <path d="M 31.78125 34.625 
Q 24.75 34.625 20.71875 30.859375 
Q 16.703125 27.09375 16.703125 20.515625 
Q 16.703125 13.921875 20.71875 10.15625 
Q 24.75 6.390625 31.78125 6.390625 
Q 38.8125 6.390625 42.859375 10.171875 
Q 46.921875 13.96875 46.921875 20.515625 
Q 46.921875 27.09375 42.890625 30.859375 
Q 38.875 34.625 31.78125 34.625 
z
M 21.921875 38.8125 
Q 15.578125 40.375 12.03125 44.71875 
Q 8.5 49.078125 8.5 55.328125 
Q 8.5 64.0625 14.71875 69.140625 
Q 20.953125 74.21875 31.78125 74.21875 
Q 42.671875 74.21875 48.875 69.140625 
Q 55.078125 64.0625 55.078125 55.328125 
Q 55.078125 49.078125 51.53125 44.71875 
Q 48 40.375 41.703125 38.8125 
Q 48.828125 37.15625 52.796875 32.3125 
Q 56.78125 27.484375 56.78125 20.515625 
Q 56.78125 9.90625 50.3125 4.234375 
Q 43.84375 -1.421875 31.78125 -1.421875 
Q 19.734375 -1.421875 13.25 4.234375 
Q 6.78125 9.90625 6.78125 20.515625 
Q 6.78125 27.484375 10.78125 32.3125 
Q 14.796875 37.15625 21.921875 38.8125 
z
M 18.3125 54.390625 
Q 18.3125 48.734375 21.84375 45.5625 
Q 25.390625 42.390625 31.78125 42.390625 
Q 38.140625 42.390625 41.71875 45.5625 
Q 45.3125 48.734375 45.3125 54.390625 
Q 45.3125 60.0625 41.71875 63.234375 
Q 38.140625 66.40625 31.78125 66.40625 
Q 25.390625 66.40625 21.84375 63.234375 
Q 18.3125 60.0625 18.3125 54.390625 
z
" id="DejaVuSans-56"/>
       </defs>
       <use xlink:href="#DejaVuSans-56"/>
       <use x="63.623047" xlink:href="#DejaVuSans-48"/>
      </g>
     </g>
    </g>
    <g id="xtick_7">
     <g id="line2d_7">
      <g>
       <use style="stroke:#000000;stroke-width:0.8;" x="377.716469" xlink:href="#m6df6af4cde" y="307.584"/>
      </g>
     </g>
     <g id="text_7">
      <!-- 100 -->
      <g transform="translate(368.172719 322.182437)scale(0.1 -0.1)">
       <defs>
        <path d="M 12.40625 8.296875 
L 28.515625 8.296875 
L 28.515625 63.921875 
L 10.984375 60.40625 
L 10.984375 69.390625 
L 28.421875 72.90625 
L 38.28125 72.90625 
L 38.28125 8.296875 
L 54.390625 8.296875 
L 54.390625 0 
L 12.40625 0 
z
" id="DejaVuSans-49"/>
       </defs>
       <use xlink:href="#DejaVuSans-49"/>
       <use x="63.623047" xlink:href="#DejaVuSans-48"/>
       <use x="127.246094" xlink:href="#DejaVuSans-48"/>
      </g>
     </g>
    </g>
   </g>
   <g id="matplotlib.axis_2">
    <g id="ytick_1">
     <g id="line2d_8">
      <defs>
       <path d="M 0 0 
L -3.5 0 
" id="mb4d41f9cf2" style="stroke:#000000;stroke-width:0.8;"/>
      </defs>
      <g>
       <use style="stroke:#000000;stroke-width:0.8;" x="57.6" xlink:href="#mb4d41f9cf2" y="263.974929"/>
      </g>
     </g>
     <g id="text_8">
      <!-- 20 -->
      <g transform="translate(37.875 267.774148)scale(0.1 -0.1)">
       <use xlink:href="#DejaVuSans-50"/>
       <use x="63.623047" xlink:href="#DejaVuSans-48"/>
      </g>
     </g>
    </g>
    <g id="ytick_2">
     <g id="line2d_9">
      <g>
       <use style="stroke:#000000;stroke-width:0.8;" x="57.6" xlink:href="#mb4d41f9cf2" y="213.283886"/>
      </g>
     </g>
     <g id="text_9">
      <!-- 40 -->
      <g transform="translate(37.875 217.083104)scale(0.1 -0.1)">
       <use xlink:href="#DejaVuSans-52"/>
       <use x="63.623047" xlink:href="#DejaVuSans-48"/>
      </g>
     </g>
    </g>
    <g id="ytick_3">
     <g id="line2d_10">
      <g>
       <use style="stroke:#000000;stroke-width:0.8;" x="57.6" xlink:href="#mb4d41f9cf2" y="162.592842"/>
      </g>
     </g>
     <g id="text_10">
      <!-- 60 -->
      <g transform="translate(37.875 166.39206)scale(0.1 -0.1)">
       <use xlink:href="#DejaVuSans-54"/>
       <use x="63.623047" xlink:href="#DejaVuSans-48"/>
      </g>
     </g>
    </g>
    <g id="ytick_4">
     <g id="line2d_11">
      <g>
       <use style="stroke:#000000;stroke-width:0.8;" x="57.6" xlink:href="#mb4d41f9cf2" y="111.901798"/>
      </g>
     </g>
     <g id="text_11">
      <!-- 80 -->
      <g transform="translate(37.875 115.701016)scale(0.1 -0.1)">
       <use xlink:href="#DejaVuSans-56"/>
       <use x="63.623047" xlink:href="#DejaVuSans-48"/>
      </g>
     </g>
    </g>
    <g id="ytick_5">
     <g id="line2d_12">
      <g>
       <use style="stroke:#000000;stroke-width:0.8;" x="57.6" xlink:href="#mb4d41f9cf2" y="61.210754"/>
      </g>
     </g>
     <g id="text_12">
      <!-- 100 -->
      <g transform="translate(31.5125 65.009972)scale(0.1 -0.1)">
       <use xlink:href="#DejaVuSans-49"/>
       <use x="63.623047" xlink:href="#DejaVuSans-48"/>
       <use x="127.246094" xlink:href="#DejaVuSans-48"/>
      </g>
     </g>
    </g>
   </g>
   <g id="line2d_13">
    <path clip-path="url(#p700ca2b483)" d="M 149.606771 192.150789 
L 148.854009 187.203343 
L 148.473826 182.146912 
L 148.476361 177.032185 
L 148.859078 171.902252 
L 149.627048 166.805267 
L 150.782803 161.784319 
L 152.331415 156.887565 
L 154.270347 152.160625 
L 155.390619 149.874459 
L 156.609739 147.649122 
L 157.930241 145.487149 
L 159.34959 143.398678 
L 160.867787 141.383709 
L 164.167773 137.561604 
L 167.759234 133.970144 
L 171.561062 130.56624 
L 177.491914 125.702434 
L 195.37318 111.521615 
L 201.096199 106.548823 
L 206.639265 101.352991 
L 212.020119 95.964533 
L 217.261573 90.411329 
L 224.229057 82.99523 
L 227.863605 79.462064 
L 231.693313 76.157008 
L 233.705748 74.616 
L 235.791684 73.161167 
L 237.948588 71.800113 
L 240.168856 70.532837 
L 242.447418 69.364408 
L 244.779206 68.297361 
L 247.154082 67.334232 
L 249.56951 66.477553 
L 252.017887 65.734929 
L 254.49161 65.10636 
L 256.988144 64.594381 
L 259.497351 64.20406 
L 262.01923 63.927793 
L 267.090869 63.704753 
L 272.177715 63.884706 
L 277.262027 64.4271 
L 282.323528 65.291383 
L 287.334338 66.449673 
L 292.243765 67.93999 
L 294.643986 68.822014 
L 296.993516 69.807955 
L 299.292355 70.897812 
L 301.52783 72.104259 
L 303.694872 73.42983 
L 305.785878 74.879594 
L 307.793243 76.45862 
L 309.709364 78.161839 
L 311.529173 79.979113 
L 313.245065 81.902838 
L 314.851971 83.922876 
L 316.339753 86.029089 
L 317.703342 88.216407 
L 318.935134 90.474693 
L 320.030061 92.793808 
L 320.980518 95.163615 
L 321.781437 97.581578 
L 322.437886 100.037559 
L 322.962538 102.523954 
L 323.360463 105.03823 
L 323.816682 110.127611 
L 323.874977 115.252476 
L 323.608849 120.372271 
L 323.079127 125.448979 
L 322.316227 130.474996 
L 321.340424 135.450322 
L 320.17453 140.380026 
L 318.841356 145.266643 
L 316.575466 152.517997 
L 313.229857 162.093535 
L 305.522284 183.57133 
L 302.323679 193.189956 
L 300.088204 200.461586 
L 298.083373 207.79658 
L 296.920014 212.733888 
L 295.92647 217.716817 
L 295.133155 222.742834 
L 294.56795 227.804335 
L 294.261269 232.883578 
L 294.246061 237.960286 
L 294.552742 243.024321 
L 295.201588 248.055407 
L 296.182459 253.038337 
L 297.48015 257.960437 
L 299.076918 262.801432 
L 300.955021 267.548648 
L 303.094183 272.184344 
L 305.479197 276.695847 
L 308.09232 281.065415 
L 310.913277 285.280375 
L 313.929394 289.320451 
L 313.929394 289.320451 
" style="fill:none;stroke:#fea952;stroke-linecap:square;"/>
   </g>
   <g id="line2d_14">
    <path clip-path="url(#p700ca2b483)" d="M 139.615555 193.870927 
L 139.132978 191.022791 
L 138.493349 185.252257 
L 138.291785 179.404121 
L 138.524464 173.519675 
L 139.199634 167.64356 
L 139.705354 164.721213 
L 140.322436 161.819818 
L 141.056078 158.925282 
L 141.905876 156.064198 
L 142.871293 153.242104 
L 143.956573 150.451757 
L 145.166414 147.699495 
L 146.499247 145.003445 
L 147.957736 142.364604 
L 149.545173 139.788559 
L 151.252487 137.297842 
L 153.058575 134.918456 
L 154.942062 132.657041 
L 158.880148 128.455225 
L 162.961992 124.61878 
L 167.09784 121.07224 
L 173.239967 116.141669 
L 186.96639 105.317708 
L 192.459902 100.667851 
L 197.791665 95.792515 
L 202.999121 90.686761 
L 208.096931 85.382673 
L 217.075476 75.811251 
L 221.107361 71.903199 
L 225.52959 68.107673 
L 227.906116 66.3005 
L 230.381364 64.58727 
L 232.922958 62.995209 
L 235.542826 61.511577 
L 238.228807 60.14559 
L 240.969066 58.902357 
L 243.765201 57.779193 
L 246.626846 56.7758 
L 249.521127 55.90897 
L 252.454893 55.174842 
L 255.42983 54.57665 
L 258.393338 54.126142 
L 261.371064 53.810326 
L 264.308486 53.63028 
L 267.262679 53.568 
L 273.092866 53.787886 
L 278.824688 54.410046 
L 284.461421 55.381151 
L 290.095724 56.694776 
L 292.933211 57.505514 
L 295.740681 58.423958 
L 298.566915 59.473543 
L 301.336584 60.647112 
L 304.107321 61.975963 
L 306.818081 63.455761 
L 309.471417 65.098275 
L 312.053924 66.911226 
L 314.528702 68.881228 
L 316.873163 70.988049 
L 319.095004 73.23067 
L 321.179127 75.591425 
L 323.132628 78.073603 
L 324.943092 80.665709 
L 326.603631 83.361704 
L 328.102918 86.146297 
L 329.439677 89.019898 
L 330.604503 91.975796 
L 331.575817 94.963678 
L 332.357661 97.944395 
L 332.976111 100.939145 
L 333.436909 103.920862 
L 333.756291 106.882268 
L 333.950714 109.836634 
L 334.006046 115.632891 
L 333.70476 121.297394 
L 333.11964 126.853035 
L 332.285348 132.318878 
L 331.227818 137.691465 
L 329.97696 142.967624 
L 328.555066 148.169591 
L 326.181187 155.760434 
L 322.757087 165.559825 
L 315.11771 186.84411 
L 311.989153 196.249676 
L 309.835186 203.250785 
L 307.93302 210.198191 
L 306.843858 214.807678 
L 305.923163 219.404833 
L 305.194003 223.99288 
L 304.678568 228.551773 
L 304.397842 233.065672 
L 304.374471 237.514636 
L 304.628323 241.899181 
L 305.18029 246.264099 
L 306.023881 250.603242 
L 307.153091 254.924405 
L 308.555888 259.205266 
L 310.219018 263.430197 
L 312.11942 267.566079 
L 314.247314 271.606308 
L 316.588012 275.533101 
L 319.113292 279.318578 
L 321.975798 283.152903 
L 321.975798 283.152903 
" style="fill:none;stroke:#ffffff;stroke-linecap:square;"/>
   </g>
   <g id="line2d_15">
    <path clip-path="url(#p700ca2b483)" d="M 159.597988 190.430652 
L 158.947097 186.247905 
L 158.610416 181.965721 
L 158.599083 177.592336 
L 158.911462 173.218635 
L 159.548741 168.889321 
L 160.509528 164.643357 
L 161.791536 160.533025 
L 163.374281 156.621754 
L 165.261742 152.933639 
L 167.446693 149.499514 
L 170.012393 146.222373 
L 172.983496 143.023297 
L 176.312683 139.879585 
L 179.937633 136.765322 
L 185.748455 132.100079 
L 199.886898 120.944402 
L 205.961083 115.795681 
L 211.83204 110.421288 
L 217.487675 104.871784 
L 222.958948 99.175916 
L 231.382638 90.179209 
L 234.619849 87.020929 
L 237.857036 84.206343 
L 241.202005 81.735064 
L 244.794885 79.554096 
L 248.589347 77.692366 
L 252.512174 76.179306 
L 256.528328 75.037879 
L 260.601364 74.281978 
L 264.79401 73.900884 
L 269.08853 73.871417 
L 273.487167 74.178027 
L 277.94694 74.790545 
L 282.409506 75.676878 
L 286.677841 76.792905 
L 290.721057 78.170485 
L 294.477389 79.819661 
L 297.918327 81.761385 
L 299.517831 82.847961 
L 301.057784 84.036011 
L 302.545566 85.335629 
L 303.963342 86.727555 
L 305.311002 88.21425 
L 306.571314 89.772149 
L 307.736414 91.392468 
L 308.803053 93.07111 
L 309.76735 94.80309 
L 310.620445 96.567719 
L 311.356533 98.351434 
L 311.987056 100.199477 
L 312.948964 104.108764 
L 313.527305 108.268366 
L 313.752153 112.627402 
L 313.662776 117.145057 
L 313.306284 121.737664 
L 312.721948 126.329507 
L 311.927895 130.910579 
L 310.936481 135.496077 
L 309.769821 140.079416 
L 307.717607 146.974298 
L 305.376591 153.931104 
L 300.220084 168.180856 
L 295.926859 180.29855 
L 292.658205 190.130235 
L 290.341223 197.672387 
L 288.233727 205.394969 
L 286.99617 210.660098 
L 285.929776 216.028801 
L 285.072307 221.492789 
L 284.457331 227.056897 
L 284.124695 232.701484 
L 284.117652 238.405936 
L 284.477161 244.149461 
L 285.222886 249.846716 
L 286.341037 255.473432 
L 287.807209 260.99647 
L 289.597948 266.397598 
L 291.691024 271.667099 
L 294.068946 276.802609 
L 296.71108 281.785386 
L 299.596628 286.597729 
L 302.713262 291.242173 
L 305.882989 295.488 
L 305.882989 295.488 
" style="fill:none;stroke:#ffffff;stroke-linecap:square;"/>
   </g>
   <g id="patch_3">
    <path d="M 57.6 307.584 
L 57.6 41.472 
" style="fill:none;stroke:#000000;stroke-linecap:square;stroke-linejoin:miter;stroke-width:0.8;"/>
   </g>
   <g id="patch_4">
    <path d="M 414.72 307.584 
L 414.72 41.472 
" style="fill:none;stroke:#000000;stroke-linecap:square;stroke-linejoin:miter;stroke-width:0.8;"/>
   </g>
   <g id="patch_5">
    <path d="M 57.6 307.584 
L 414.72 307.584 
" style="fill:none;stroke:#000000;stroke-linecap:square;stroke-linejoin:miter;stroke-width:0.8;"/>
   </g>
   <g id="patch_6">
    <path d="M 57.6 41.472 
L 414.72 41.472 
" style="fill:none;stroke:#000000;stroke-linecap:square;stroke-linejoin:miter;stroke-width:0.8;"/>
   </g>
  </g>
 </g>
 <defs>
  <clipPath id="p700ca2b483">
   <rect height="266.112" width="357.12" x="57.6" y="41.472"/>
  </clipPath>
 </defs>
</svg>
