<?xml version="1.0" encoding="utf-8" standalone="no"?>
<!DOCTYPE svg PUBLIC "-//W3C//DTD SVG 1.1//EN"
  "http://www.w3.org/Graphics/SVG/1.1/DTD/svg11.dtd">
<!-- Created with matplotlib (https://matplotlib.org/) -->
<svg height="345.6pt" version="1.1" viewBox="0 0 460.8 345.6" width="460.8pt" xmlns="http://www.w3.org/2000/svg" xmlns:xlink="http://www.w3.org/1999/xlink">
 <metadata>
  <rdf:RDF xmlns:cc="http://creativecommons.org/ns#" xmlns:dc="http://purl.org/dc/elements/1.1/" xmlns:rdf="http://www.w3.org/1999/02/22-rdf-syntax-ns#">
   <cc:Work>
    <dc:type rdf:resource="http://purl.org/dc/dcmitype/StillImage"/>
    <dc:date>2021-01-23T12:05:03.713028</dc:date>
    <dc:format>image/svg+xml</dc:format>
    <dc:creator>
     <cc:Agent>
      <dc:title>Matplotlib v3.3.3, https://matplotlib.org/</dc:title>
     </cc:Agent>
    </dc:creator>
   </cc:Work>
  </rdf:RDF>
 </metadata>
 <defs>
  <style type="text/css">*{stroke-linecap:butt;stroke-linejoin:round;}</style>
 </defs>
 <g id="figure_1">
  <g id="patch_1">
   <path d="M 0 345.6 
L 460.8 345.6 
L 460.8 0 
L 0 0 
z
" style="fill:#ffffff;"/>
  </g>
  <g id="axes_1">
   <g id="patch_2">
    <path d="M 57.6 307.584 
L 414.72 307.584 
L 414.72 41.472 
L 57.6 41.472 
z
" style="fill:#7d9051;"/>
   </g>
   <g id="matplotlib.axis_1">
    <g id="xtick_1">
     <g id="line2d_1">
      <defs>
       <path d="M 0 0 
L 0 3.5 
" id="m381517c35f" style="stroke:#000000;stroke-width:0.8;"/>
      </defs>
      <g>
       <use style="stroke:#000000;stroke-width:0.8;" x="57.813469" xlink:href="#m381517c35f" y="307.584"/>
      </g>
     </g>
     <g id="text_1">
      <!-- −20 -->
      <g transform="translate(47.261126 322.182437)scale(0.1 -0.1)">
       <defs>
        <path d="M 10.59375 35.5 
L 73.1875 35.5 
L 73.1875 27.203125 
L 10.59375 27.203125 
z
" id="DejaVuSans-8722"/>
        <path d="M 19.1875 8.296875 
L 53.609375 8.296875 
L 53.609375 0 
L 7.328125 0 
L 7.328125 8.296875 
Q 12.9375 14.109375 22.625 23.890625 
Q 32.328125 33.6875 34.8125 36.53125 
Q 39.546875 41.84375 41.421875 45.53125 
Q 43.3125 49.21875 43.3125 52.78125 
Q 43.3125 58.59375 39.234375 62.25 
Q 35.15625 65.921875 28.609375 65.921875 
Q 23.96875 65.921875 18.8125 64.3125 
Q 13.671875 62.703125 7.8125 59.421875 
L 7.8125 69.390625 
Q 13.765625 71.78125 18.9375 73 
Q 24.125 74.21875 28.421875 74.21875 
Q 39.75 74.21875 46.484375 68.546875 
Q 53.21875 62.890625 53.21875 53.421875 
Q 53.21875 48.921875 51.53125 44.890625 
Q 49.859375 40.875 45.40625 35.40625 
Q 44.1875 33.984375 37.640625 27.21875 
Q 31.109375 20.453125 19.1875 8.296875 
z
" id="DejaVuSans-50"/>
        <path d="M 31.78125 66.40625 
Q 24.171875 66.40625 20.328125 58.90625 
Q 16.5 51.421875 16.5 36.375 
Q 16.5 21.390625 20.328125 13.890625 
Q 24.171875 6.390625 31.78125 6.390625 
Q 39.453125 6.390625 43.28125 13.890625 
Q 47.125 21.390625 47.125 36.375 
Q 47.125 51.421875 43.28125 58.90625 
Q 39.453125 66.40625 31.78125 66.40625 
z
M 31.78125 74.21875 
Q 44.046875 74.21875 50.515625 64.515625 
Q 56.984375 54.828125 56.984375 36.375 
Q 56.984375 17.96875 50.515625 8.265625 
Q 44.046875 -1.421875 31.78125 -1.421875 
Q 19.53125 -1.421875 13.0625 8.265625 
Q 6.59375 17.96875 6.59375 36.375 
Q 6.59375 54.828125 13.0625 64.515625 
Q 19.53125 74.21875 31.78125 74.21875 
z
" id="DejaVuSans-48"/>
       </defs>
       <use xlink:href="#DejaVuSans-8722"/>
       <use x="83.789062" xlink:href="#DejaVuSans-50"/>
       <use x="147.412109" xlink:href="#DejaVuSans-48"/>
      </g>
     </g>
    </g>
    <g id="xtick_2">
     <g id="line2d_2">
      <g>
       <use style="stroke:#000000;stroke-width:0.8;" x="115.034781" xlink:href="#m381517c35f" y="307.584"/>
      </g>
     </g>
     <g id="text_2">
      <!-- 0 -->
      <g transform="translate(111.853531 322.182437)scale(0.1 -0.1)">
       <use xlink:href="#DejaVuSans-48"/>
      </g>
     </g>
    </g>
    <g id="xtick_3">
     <g id="line2d_3">
      <g>
       <use style="stroke:#000000;stroke-width:0.8;" x="172.256093" xlink:href="#m381517c35f" y="307.584"/>
      </g>
     </g>
     <g id="text_3">
      <!-- 20 -->
      <g transform="translate(165.893593 322.182437)scale(0.1 -0.1)">
       <use xlink:href="#DejaVuSans-50"/>
       <use x="63.623047" xlink:href="#DejaVuSans-48"/>
      </g>
     </g>
    </g>
    <g id="xtick_4">
     <g id="line2d_4">
      <g>
       <use style="stroke:#000000;stroke-width:0.8;" x="229.477405" xlink:href="#m381517c35f" y="307.584"/>
      </g>
     </g>
     <g id="text_4">
      <!-- 40 -->
      <g transform="translate(223.114905 322.182437)scale(0.1 -0.1)">
       <defs>
        <path d="M 37.796875 64.3125 
L 12.890625 25.390625 
L 37.796875 25.390625 
z
M 35.203125 72.90625 
L 47.609375 72.90625 
L 47.609375 25.390625 
L 58.015625 25.390625 
L 58.015625 17.1875 
L 47.609375 17.1875 
L 47.609375 0 
L 37.796875 0 
L 37.796875 17.1875 
L 4.890625 17.1875 
L 4.890625 26.703125 
z
" id="DejaVuSans-52"/>
       </defs>
       <use xlink:href="#DejaVuSans-52"/>
       <use x="63.623047" xlink:href="#DejaVuSans-48"/>
      </g>
     </g>
    </g>
    <g id="xtick_5">
     <g id="line2d_5">
      <g>
       <use style="stroke:#000000;stroke-width:0.8;" x="286.698717" xlink:href="#m381517c35f" y="307.584"/>
      </g>
     </g>
     <g id="text_5">
      <!-- 60 -->
      <g transform="translate(280.336217 322.182437)scale(0.1 -0.1)">
       <defs>
        <path d="M 33.015625 40.375 
Q 26.375 40.375 22.484375 35.828125 
Q 18.609375 31.296875 18.609375 23.390625 
Q 18.609375 15.53125 22.484375 10.953125 
Q 26.375 6.390625 33.015625 6.390625 
Q 39.65625 6.390625 43.53125 10.953125 
Q 47.40625 15.53125 47.40625 23.390625 
Q 47.40625 31.296875 43.53125 35.828125 
Q 39.65625 40.375 33.015625 40.375 
z
M 52.59375 71.296875 
L 52.59375 62.3125 
Q 48.875 64.0625 45.09375 64.984375 
Q 41.3125 65.921875 37.59375 65.921875 
Q 27.828125 65.921875 22.671875 59.328125 
Q 17.53125 52.734375 16.796875 39.40625 
Q 19.671875 43.65625 24.015625 45.921875 
Q 28.375 48.1875 33.59375 48.1875 
Q 44.578125 48.1875 50.953125 41.515625 
Q 57.328125 34.859375 57.328125 23.390625 
Q 57.328125 12.15625 50.6875 5.359375 
Q 44.046875 -1.421875 33.015625 -1.421875 
Q 20.359375 -1.421875 13.671875 8.265625 
Q 6.984375 17.96875 6.984375 36.375 
Q 6.984375 53.65625 15.1875 63.9375 
Q 23.390625 74.21875 37.203125 74.21875 
Q 40.921875 74.21875 44.703125 73.484375 
Q 48.484375 72.75 52.59375 71.296875 
z
" id="DejaVuSans-54"/>
       </defs>
       <use xlink:href="#DejaVuSans-54"/>
       <use x="63.623047" xlink:href="#DejaVuSans-48"/>
      </g>
     </g>
    </g>
    <g id="xtick_6">
     <g id="line2d_6">
      <g>
       <use style="stroke:#000000;stroke-width:0.8;" x="343.920029" xlink:href="#m381517c35f" y="307.584"/>
      </g>
     </g>
     <g id="text_6">
      <!-- 80 -->
      <g transform="translate(337.557529 322.182437)scale(0.1 -0.1)">
       <defs>
        <path d="M 31.78125 34.625 
Q 24.75 34.625 20.71875 30.859375 
Q 16.703125 27.09375 16.703125 20.515625 
Q 16.703125 13.921875 20.71875 10.15625 
Q 24.75 6.390625 31.78125 6.390625 
Q 38.8125 6.390625 42.859375 10.171875 
Q 46.921875 13.96875 46.921875 20.515625 
Q 46.921875 27.09375 42.890625 30.859375 
Q 38.875 34.625 31.78125 34.625 
z
M 21.921875 38.8125 
Q 15.578125 40.375 12.03125 44.71875 
Q 8.5 49.078125 8.5 55.328125 
Q 8.5 64.0625 14.71875 69.140625 
Q 20.953125 74.21875 31.78125 74.21875 
Q 42.671875 74.21875 48.875 69.140625 
Q 55.078125 64.0625 55.078125 55.328125 
Q 55.078125 49.078125 51.53125 44.71875 
Q 48 40.375 41.703125 38.8125 
Q 48.828125 37.15625 52.796875 32.3125 
Q 56.78125 27.484375 56.78125 20.515625 
Q 56.78125 9.90625 50.3125 4.234375 
Q 43.84375 -1.421875 31.78125 -1.421875 
Q 19.734375 -1.421875 13.25 4.234375 
Q 6.78125 9.90625 6.78125 20.515625 
Q 6.78125 27.484375 10.78125 32.3125 
Q 14.796875 37.15625 21.921875 38.8125 
z
M 18.3125 54.390625 
Q 18.3125 48.734375 21.84375 45.5625 
Q 25.390625 42.390625 31.78125 42.390625 
Q 38.140625 42.390625 41.71875 45.5625 
Q 45.3125 48.734375 45.3125 54.390625 
Q 45.3125 60.0625 41.71875 63.234375 
Q 38.140625 66.40625 31.78125 66.40625 
Q 25.390625 66.40625 21.84375 63.234375 
Q 18.3125 60.0625 18.3125 54.390625 
z
" id="DejaVuSans-56"/>
       </defs>
       <use xlink:href="#DejaVuSans-56"/>
       <use x="63.623047" xlink:href="#DejaVuSans-48"/>
      </g>
     </g>
    </g>
    <g id="xtick_7">
     <g id="line2d_7">
      <g>
       <use style="stroke:#000000;stroke-width:0.8;" x="401.141341" xlink:href="#m381517c35f" y="307.584"/>
      </g>
     </g>
     <g id="text_7">
      <!-- 100 -->
      <g transform="translate(391.597591 322.182437)scale(0.1 -0.1)">
       <defs>
        <path d="M 12.40625 8.296875 
L 28.515625 8.296875 
L 28.515625 63.921875 
L 10.984375 60.40625 
L 10.984375 69.390625 
L 28.421875 72.90625 
L 38.28125 72.90625 
L 38.28125 8.296875 
L 54.390625 8.296875 
L 54.390625 0 
L 12.40625 0 
z
" id="DejaVuSans-49"/>
       </defs>
       <use xlink:href="#DejaVuSans-49"/>
       <use x="63.623047" xlink:href="#DejaVuSans-48"/>
       <use x="127.246094" xlink:href="#DejaVuSans-48"/>
      </g>
     </g>
    </g>
   </g>
   <g id="matplotlib.axis_2">
    <g id="ytick_1">
     <g id="line2d_8">
      <defs>
       <path d="M 0 0 
L -3.5 0 
" id="mdc31cba5a2" style="stroke:#000000;stroke-width:0.8;"/>
      </defs>
      <g>
       <use style="stroke:#000000;stroke-width:0.8;" x="57.6" xlink:href="#mdc31cba5a2" y="259.569779"/>
      </g>
     </g>
     <g id="text_8">
      <!-- 20 -->
      <g transform="translate(37.875 263.368998)scale(0.1 -0.1)">
       <use xlink:href="#DejaVuSans-50"/>
       <use x="63.623047" xlink:href="#DejaVuSans-48"/>
      </g>
     </g>
    </g>
    <g id="ytick_2">
     <g id="line2d_9">
      <g>
       <use style="stroke:#000000;stroke-width:0.8;" x="57.6" xlink:href="#mdc31cba5a2" y="202.348468"/>
      </g>
     </g>
     <g id="text_9">
      <!-- 40 -->
      <g transform="translate(37.875 206.147686)scale(0.1 -0.1)">
       <use xlink:href="#DejaVuSans-52"/>
       <use x="63.623047" xlink:href="#DejaVuSans-48"/>
      </g>
     </g>
    </g>
    <g id="ytick_3">
     <g id="line2d_10">
      <g>
       <use style="stroke:#000000;stroke-width:0.8;" x="57.6" xlink:href="#mdc31cba5a2" y="145.127156"/>
      </g>
     </g>
     <g id="text_10">
      <!-- 60 -->
      <g transform="translate(37.875 148.926374)scale(0.1 -0.1)">
       <use xlink:href="#DejaVuSans-54"/>
       <use x="63.623047" xlink:href="#DejaVuSans-48"/>
      </g>
     </g>
    </g>
    <g id="ytick_4">
     <g id="line2d_11">
      <g>
       <use style="stroke:#000000;stroke-width:0.8;" x="57.6" xlink:href="#mdc31cba5a2" y="87.905844"/>
      </g>
     </g>
     <g id="text_11">
      <!-- 80 -->
      <g transform="translate(37.875 91.705063)scale(0.1 -0.1)">
       <use xlink:href="#DejaVuSans-56"/>
       <use x="63.623047" xlink:href="#DejaVuSans-48"/>
      </g>
     </g>
    </g>
   </g>
   <g id="line2d_12">
    <path clip-path="url(#p6bdceb6310)" d="M 331.877804 288.180435 
L 328.124086 283.760089 
L 324.210148 279.522851 
L 320.150296 275.448694 
L 315.970279 271.509006 
L 309.518576 265.804041 
L 300.677883 258.445381 
L 278.261434 240.354863 
L 273.65798 236.904418 
L 268.922916 233.639942 
L 264.01905 230.615796 
L 258.937797 227.866312 
L 253.707769 225.408656 
L 248.346133 223.251413 
L 242.881497 221.408887 
L 237.333891 219.889661 
L 231.726203 218.647958 
L 223.23456 217.105844 
L 209.017925 214.653911 
L 203.36732 213.460846 
L 197.78252 212.027452 
L 192.292135 210.27648 
L 189.594151 209.260802 
L 186.93336 208.133542 
L 184.309762 206.89184 
L 181.734803 205.527111 
L 179.217066 204.042218 
L 176.767994 202.437161 
L 174.399031 200.720521 
L 172.121623 198.8923 
L 169.947213 196.952498 
L 167.887246 194.906836 
L 165.953166 192.758176 
L 164.156416 190.509378 
L 162.508443 188.160443 
L 161.009244 185.719954 
L 159.644516 183.199356 
L 158.405675 180.604369 
L 156.239848 175.245593 
L 154.403044 169.726598 
L 152.03122 161.335092 
L 149.879699 152.972198 
L 147.89412 144.603581 
L 146.057315 136.160576 
L 144.400758 127.585963 
L 143.565327 121.823776 
L 143.279221 118.939822 
L 143.110418 116.058729 
L 143.070363 113.183358 
L 143.181945 110.319432 
L 143.462329 107.46981 
L 143.928683 104.637355 
L 144.581006 101.83065 
L 145.419298 99.058278 
L 146.432115 96.331682 
L 147.610874 93.662308 
L 148.952714 91.058738 
L 150.44619 88.529556 
L 152.08272 86.089067 
L 153.862302 83.745854 
L 155.767772 81.508501 
L 157.799129 79.388452 
L 159.947789 77.394289 
L 162.202309 75.528874 
L 164.556966 73.797929 
L 167.003177 72.210038 
L 169.53522 70.7652 
L 172.144512 69.471998 
L 174.822469 68.333294 
L 177.560509 67.357671 
L 180.352909 66.547989 
L 183.191086 65.909972 
L 186.063596 65.443618 
L 188.964716 65.146067 
L 191.880142 65.011597 
L 194.798429 65.043069 
L 197.713855 65.23476 
L 200.612114 65.586671 
L 203.481763 66.090219 
L 206.317079 66.748264 
L 209.100896 67.552223 
L 211.830352 68.507819 
L 214.499727 69.600746 
L 217.106157 70.825282 
L 219.652506 72.175705 
L 222.138772 73.643432 
L 224.567816 75.22274 
L 226.933918 76.899324 
L 231.494456 80.532878 
L 235.817526 84.475426 
L 239.874517 88.698359 
L 241.779987 90.909963 
L 243.58818 93.190232 
L 245.290515 95.536306 
L 246.875545 97.951045 
L 248.334688 100.431589 
L 249.656501 102.977937 
L 250.829537 105.592951 
L 251.848077 108.270909 
L 252.71498 111.006087 
L 253.435968 113.795626 
L 254.019626 116.62522 
L 254.474535 119.489147 
L 254.806419 122.378823 
L 255.138302 128.203953 
L 255.069637 134.034804 
L 254.671949 139.817018 
L 254.033931 145.550593 
L 252.405985 156.92619 
L 251.252975 165.43786 
L 250.695067 171.125659 
L 250.417544 176.844929 
L 250.511959 182.607115 
L 250.7294 185.511097 
L 251.075589 188.429383 
L 251.56197 191.367698 
L 251.56197 191.367698 
" style="fill:none;stroke:#fea952;stroke-linecap:square;"/>
   </g>
   <g id="line2d_13">
    <path clip-path="url(#p6bdceb6310)" d="M 323.070384 295.488 
L 319.639099 291.439682 
L 316.038557 287.535107 
L 312.236656 283.715824 
L 308.293067 279.996147 
L 302.113995 274.530055 
L 293.465071 267.330564 
L 271.32229 249.45538 
L 267.054691 246.251488 
L 262.78098 243.29643 
L 258.430452 240.602723 
L 253.928848 238.156189 
L 249.280415 235.961839 
L 244.533691 234.041984 
L 239.705961 232.403754 
L 234.74639 231.037574 
L 229.54977 229.883361 
L 221.358666 228.395315 
L 206.751734 225.871554 
L 200.666505 224.581851 
L 194.485693 222.986562 
L 188.260098 220.986934 
L 185.129834 219.798402 
L 182.037622 218.477762 
L 178.950487 217.00368 
L 175.921076 215.384683 
L 172.943961 213.614015 
L 170.052784 211.70415 
L 167.234827 209.644944 
L 164.503137 207.432196 
L 161.883143 205.07296 
L 159.381356 202.56327 
L 157.012261 199.901799 
L 154.787886 197.082184 
L 152.757134 194.150696 
L 150.9454 191.168824 
L 149.316789 188.129792 
L 147.875618 185.086451 
L 146.588573 182.043149 
L 144.382762 175.975485 
L 142.558358 170.029096 
L 140.207422 161.388026 
L 137.385518 149.967191 
L 134.844497 138.450518 
L 133.098551 129.38353 
L 132.176969 122.953574 
L 131.854551 119.609192 
L 131.667266 116.218136 
L 131.634777 112.737816 
L 131.792681 109.198801 
L 132.170101 105.610585 
L 132.78153 102.04658 
L 133.626573 98.518319 
L 134.691262 95.073257 
L 135.963141 91.708727 
L 137.438182 88.419459 
L 139.09827 85.239711 
L 140.941166 82.15573 
L 142.968872 79.16744 
L 145.14962 76.325591 
L 147.504453 73.590881 
L 150.01401 71.000182 
L 152.652213 68.576936 
L 155.423906 66.308006 
L 158.325896 64.198715 
L 161.331281 62.270182 
L 164.4532 60.511214 
L 167.666289 58.9403 
L 170.981198 57.552952 
L 174.373417 56.366147 
L 177.842896 55.382373 
L 181.357115 54.613614 
L 184.895951 54.059078 
L 188.437426 53.713958 
L 192.003553 53.568 
L 195.549276 53.623464 
L 199.093303 53.873939 
L 202.590059 54.314632 
L 206.069079 54.942262 
L 209.492389 55.753331 
L 212.882521 56.750814 
L 216.16662 57.916883 
L 219.366088 59.242673 
L 222.468093 60.714853 
L 225.470334 62.320553 
L 228.376953 64.048838 
L 231.184365 65.885051 
L 233.906172 67.824149 
L 236.530567 69.849379 
L 241.534407 74.137843 
L 246.280326 78.773889 
L 248.544619 81.228388 
L 250.747107 83.799273 
L 252.85089 86.46912 
L 254.857816 89.256347 
L 256.739746 92.148574 
L 258.491965 95.158935 
L 260.09832 98.29397 
L 261.526231 101.524551 
L 262.757499 104.813215 
L 263.795134 108.142294 
L 264.644275 111.483701 
L 265.322191 114.829908 
L 265.844056 118.183341 
L 266.217956 121.513972 
L 266.462627 124.848411 
L 266.582477 128.159074 
L 266.495825 134.677739 
L 266.056459 140.984951 
L 265.376207 147.075032 
L 263.731544 158.570223 
L 262.630145 166.675256 
L 262.116595 171.846657 
L 261.861784 176.867703 
L 261.924274 181.752597 
L 262.366213 186.560439 
L 262.852594 189.498753 
L 262.852594 189.498753 
" style="fill:none;stroke:#ffffff;stroke-linecap:square;"/>
   </g>
   <g id="line2d_14">
    <path clip-path="url(#p6bdceb6310)" d="M 340.685223 280.872871 
L 336.609072 276.080496 
L 332.381739 271.510595 
L 328.063935 267.181563 
L 323.647491 263.021865 
L 316.923157 257.078027 
L 307.890695 249.560197 
L 285.200579 231.254346 
L 280.261269 227.557348 
L 275.064852 223.983454 
L 269.607648 220.628869 
L 263.946746 217.576434 
L 258.135124 214.855473 
L 252.158574 212.460841 
L 246.057034 210.414019 
L 239.921393 208.741747 
L 233.902635 207.412555 
L 225.110454 205.816373 
L 211.284115 203.436267 
L 206.068136 202.339842 
L 201.079348 201.068343 
L 196.324173 199.566027 
L 191.829097 197.789322 
L 187.54853 195.66954 
L 185.490171 194.470422 
L 181.563235 191.796098 
L 179.740109 190.352405 
L 178.011284 188.832035 
L 176.393136 187.250402 
L 174.89407 185.614552 
L 173.524947 183.936572 
L 172.259751 182.170191 
L 171.073089 180.271085 
L 169.972243 178.268919 
L 167.962534 173.855452 
L 166.191464 169.028177 
L 164.594033 163.839299 
L 162.378709 155.703081 
L 159.690201 144.830493 
L 157.270134 133.870634 
L 155.702966 125.788395 
L 154.953685 120.693979 
L 154.55357 115.899322 
L 154.505949 113.628901 
L 154.571208 111.440062 
L 154.754557 109.329036 
L 155.075836 107.228131 
L 155.535439 105.142981 
L 156.147334 103.043298 
L 156.901089 100.954637 
L 157.783567 98.905157 
L 158.807158 96.877765 
L 159.951214 94.903382 
L 161.196567 93.010695 
L 162.574984 91.166118 
L 164.031091 89.426121 
L 165.584247 87.776721 
L 167.243365 86.211642 
L 168.980711 84.749742 
L 170.788035 83.397144 
L 172.675072 82.149894 
L 174.617239 81.019186 
L 176.622734 80.003696 
L 178.66374 79.113636 
L 180.7476 78.349194 
L 182.862921 77.713605 
L 185.025056 77.206329 
L 187.231241 76.828158 
L 189.492007 76.578176 
L 191.756731 76.455194 
L 194.047581 76.462673 
L 196.334407 76.595582 
L 198.634169 76.858711 
L 200.894447 77.238175 
L 203.141769 77.743197 
L 205.31927 78.353633 
L 207.494085 79.098755 
L 209.633365 79.958819 
L 211.744222 80.935712 
L 215.90059 83.238026 
L 219.961664 85.9745 
L 223.921944 89.113565 
L 227.708474 92.55097 
L 231.204415 96.16833 
L 234.325471 99.911344 
L 237.011344 103.753516 
L 238.177412 105.704243 
L 239.214681 107.661905 
L 240.132844 109.661352 
L 240.938654 111.728602 
L 241.634825 113.869881 
L 242.227661 116.107552 
L 242.71706 118.420533 
L 243.394882 123.243674 
L 243.694128 128.248832 
L 243.643449 133.39187 
L 243.287438 138.649085 
L 242.691655 144.026155 
L 241.080425 155.282157 
L 239.875805 164.200464 
L 239.273539 170.40466 
L 238.973304 176.822154 
L 238.974438 180.117038 
L 239.099644 183.461633 
L 239.364822 186.859247 
L 239.784965 190.298328 
L 240.271346 193.236642 
L 240.271346 193.236642 
" style="fill:none;stroke:#ffffff;stroke-linecap:square;"/>
   </g>
   <g id="patch_3">
    <path d="M 57.6 307.584 
L 57.6 41.472 
" style="fill:none;stroke:#000000;stroke-linecap:square;stroke-linejoin:miter;stroke-width:0.8;"/>
   </g>
   <g id="patch_4">
    <path d="M 414.72 307.584 
L 414.72 41.472 
" style="fill:none;stroke:#000000;stroke-linecap:square;stroke-linejoin:miter;stroke-width:0.8;"/>
   </g>
   <g id="patch_5">
    <path d="M 57.6 307.584 
L 414.72 307.584 
" style="fill:none;stroke:#000000;stroke-linecap:square;stroke-linejoin:miter;stroke-width:0.8;"/>
   </g>
   <g id="patch_6">
    <path d="M 57.6 41.472 
L 414.72 41.472 
" style="fill:none;stroke:#000000;stroke-linecap:square;stroke-linejoin:miter;stroke-width:0.8;"/>
   </g>
  </g>
 </g>
 <defs>
  <clipPath id="p6bdceb6310">
   <rect height="266.112" width="357.12" x="57.6" y="41.472"/>
  </clipPath>
 </defs>
</svg>
