<?xml version="1.0" encoding="utf-8" standalone="no"?>
<!DOCTYPE svg PUBLIC "-//W3C//DTD SVG 1.1//EN"
  "http://www.w3.org/Graphics/SVG/1.1/DTD/svg11.dtd">
<!-- Created with matplotlib (https://matplotlib.org/) -->
<svg height="345.6pt" version="1.1" viewBox="0 0 460.8 345.6" width="460.8pt" xmlns="http://www.w3.org/2000/svg" xmlns:xlink="http://www.w3.org/1999/xlink">
 <metadata>
  <rdf:RDF xmlns:cc="http://creativecommons.org/ns#" xmlns:dc="http://purl.org/dc/elements/1.1/" xmlns:rdf="http://www.w3.org/1999/02/22-rdf-syntax-ns#">
   <cc:Work>
    <dc:type rdf:resource="http://purl.org/dc/dcmitype/StillImage"/>
    <dc:date>2021-01-23T11:53:27.124513</dc:date>
    <dc:format>image/svg+xml</dc:format>
    <dc:creator>
     <cc:Agent>
      <dc:title>Matplotlib v3.3.3, https://matplotlib.org/</dc:title>
     </cc:Agent>
    </dc:creator>
   </cc:Work>
  </rdf:RDF>
 </metadata>
 <defs>
  <style type="text/css">*{stroke-linecap:butt;stroke-linejoin:round;}</style>
 </defs>
 <g id="figure_1">
  <g id="patch_1">
   <path d="M 0 345.6 
L 460.8 345.6 
L 460.8 0 
L 0 0 
z
" style="fill:#ffffff;"/>
  </g>
  <g id="axes_1">
   <g id="patch_2">
    <path d="M 57.6 307.584 
L 414.72 307.584 
L 414.72 41.472 
L 57.6 41.472 
z
" style="fill:#7d9051;"/>
   </g>
   <g id="matplotlib.axis_1">
    <g id="xtick_1">
     <g id="line2d_1">
      <defs>
       <path d="M 0 0 
L 0 3.5 
" id="mc9bf3e9db0" style="stroke:#000000;stroke-width:0.8;"/>
      </defs>
      <g>
       <use style="stroke:#000000;stroke-width:0.8;" x="111.963108" xlink:href="#mc9bf3e9db0" y="307.584"/>
      </g>
     </g>
     <g id="text_1">
      <!-- 20 -->
      <g transform="translate(105.600608 322.182437)scale(0.1 -0.1)">
       <defs>
        <path d="M 19.1875 8.296875 
L 53.609375 8.296875 
L 53.609375 0 
L 7.328125 0 
L 7.328125 8.296875 
Q 12.9375 14.109375 22.625 23.890625 
Q 32.328125 33.6875 34.8125 36.53125 
Q 39.546875 41.84375 41.421875 45.53125 
Q 43.3125 49.21875 43.3125 52.78125 
Q 43.3125 58.59375 39.234375 62.25 
Q 35.15625 65.921875 28.609375 65.921875 
Q 23.96875 65.921875 18.8125 64.3125 
Q 13.671875 62.703125 7.8125 59.421875 
L 7.8125 69.390625 
Q 13.765625 71.78125 18.9375 73 
Q 24.125 74.21875 28.421875 74.21875 
Q 39.75 74.21875 46.484375 68.546875 
Q 53.21875 62.890625 53.21875 53.421875 
Q 53.21875 48.921875 51.53125 44.890625 
Q 49.859375 40.875 45.40625 35.40625 
Q 44.1875 33.984375 37.640625 27.21875 
Q 31.109375 20.453125 19.1875 8.296875 
z
" id="DejaVuSans-50"/>
        <path d="M 31.78125 66.40625 
Q 24.171875 66.40625 20.328125 58.90625 
Q 16.5 51.421875 16.5 36.375 
Q 16.5 21.390625 20.328125 13.890625 
Q 24.171875 6.390625 31.78125 6.390625 
Q 39.453125 6.390625 43.28125 13.890625 
Q 47.125 21.390625 47.125 36.375 
Q 47.125 51.421875 43.28125 58.90625 
Q 39.453125 66.40625 31.78125 66.40625 
z
M 31.78125 74.21875 
Q 44.046875 74.21875 50.515625 64.515625 
Q 56.984375 54.828125 56.984375 36.375 
Q 56.984375 17.96875 50.515625 8.265625 
Q 44.046875 -1.421875 31.78125 -1.421875 
Q 19.53125 -1.421875 13.0625 8.265625 
Q 6.59375 17.96875 6.59375 36.375 
Q 6.59375 54.828125 13.0625 64.515625 
Q 19.53125 74.21875 31.78125 74.21875 
z
" id="DejaVuSans-48"/>
       </defs>
       <use xlink:href="#DejaVuSans-50"/>
       <use x="63.623047" xlink:href="#DejaVuSans-48"/>
      </g>
     </g>
    </g>
    <g id="xtick_2">
     <g id="line2d_2">
      <g>
       <use style="stroke:#000000;stroke-width:0.8;" x="169.964688" xlink:href="#mc9bf3e9db0" y="307.584"/>
      </g>
     </g>
     <g id="text_2">
      <!-- 40 -->
      <g transform="translate(163.602188 322.182437)scale(0.1 -0.1)">
       <defs>
        <path d="M 37.796875 64.3125 
L 12.890625 25.390625 
L 37.796875 25.390625 
z
M 35.203125 72.90625 
L 47.609375 72.90625 
L 47.609375 25.390625 
L 58.015625 25.390625 
L 58.015625 17.1875 
L 47.609375 17.1875 
L 47.609375 0 
L 37.796875 0 
L 37.796875 17.1875 
L 4.890625 17.1875 
L 4.890625 26.703125 
z
" id="DejaVuSans-52"/>
       </defs>
       <use xlink:href="#DejaVuSans-52"/>
       <use x="63.623047" xlink:href="#DejaVuSans-48"/>
      </g>
     </g>
    </g>
    <g id="xtick_3">
     <g id="line2d_3">
      <g>
       <use style="stroke:#000000;stroke-width:0.8;" x="227.966268" xlink:href="#mc9bf3e9db0" y="307.584"/>
      </g>
     </g>
     <g id="text_3">
      <!-- 60 -->
      <g transform="translate(221.603768 322.182437)scale(0.1 -0.1)">
       <defs>
        <path d="M 33.015625 40.375 
Q 26.375 40.375 22.484375 35.828125 
Q 18.609375 31.296875 18.609375 23.390625 
Q 18.609375 15.53125 22.484375 10.953125 
Q 26.375 6.390625 33.015625 6.390625 
Q 39.65625 6.390625 43.53125 10.953125 
Q 47.40625 15.53125 47.40625 23.390625 
Q 47.40625 31.296875 43.53125 35.828125 
Q 39.65625 40.375 33.015625 40.375 
z
M 52.59375 71.296875 
L 52.59375 62.3125 
Q 48.875 64.0625 45.09375 64.984375 
Q 41.3125 65.921875 37.59375 65.921875 
Q 27.828125 65.921875 22.671875 59.328125 
Q 17.53125 52.734375 16.796875 39.40625 
Q 19.671875 43.65625 24.015625 45.921875 
Q 28.375 48.1875 33.59375 48.1875 
Q 44.578125 48.1875 50.953125 41.515625 
Q 57.328125 34.859375 57.328125 23.390625 
Q 57.328125 12.15625 50.6875 5.359375 
Q 44.046875 -1.421875 33.015625 -1.421875 
Q 20.359375 -1.421875 13.671875 8.265625 
Q 6.984375 17.96875 6.984375 36.375 
Q 6.984375 53.65625 15.1875 63.9375 
Q 23.390625 74.21875 37.203125 74.21875 
Q 40.921875 74.21875 44.703125 73.484375 
Q 48.484375 72.75 52.59375 71.296875 
z
" id="DejaVuSans-54"/>
       </defs>
       <use xlink:href="#DejaVuSans-54"/>
       <use x="63.623047" xlink:href="#DejaVuSans-48"/>
      </g>
     </g>
    </g>
    <g id="xtick_4">
     <g id="line2d_4">
      <g>
       <use style="stroke:#000000;stroke-width:0.8;" x="285.967848" xlink:href="#mc9bf3e9db0" y="307.584"/>
      </g>
     </g>
     <g id="text_4">
      <!-- 80 -->
      <g transform="translate(279.605348 322.182437)scale(0.1 -0.1)">
       <defs>
        <path d="M 31.78125 34.625 
Q 24.75 34.625 20.71875 30.859375 
Q 16.703125 27.09375 16.703125 20.515625 
Q 16.703125 13.921875 20.71875 10.15625 
Q 24.75 6.390625 31.78125 6.390625 
Q 38.8125 6.390625 42.859375 10.171875 
Q 46.921875 13.96875 46.921875 20.515625 
Q 46.921875 27.09375 42.890625 30.859375 
Q 38.875 34.625 31.78125 34.625 
z
M 21.921875 38.8125 
Q 15.578125 40.375 12.03125 44.71875 
Q 8.5 49.078125 8.5 55.328125 
Q 8.5 64.0625 14.71875 69.140625 
Q 20.953125 74.21875 31.78125 74.21875 
Q 42.671875 74.21875 48.875 69.140625 
Q 55.078125 64.0625 55.078125 55.328125 
Q 55.078125 49.078125 51.53125 44.71875 
Q 48 40.375 41.703125 38.8125 
Q 48.828125 37.15625 52.796875 32.3125 
Q 56.78125 27.484375 56.78125 20.515625 
Q 56.78125 9.90625 50.3125 4.234375 
Q 43.84375 -1.421875 31.78125 -1.421875 
Q 19.734375 -1.421875 13.25 4.234375 
Q 6.78125 9.90625 6.78125 20.515625 
Q 6.78125 27.484375 10.78125 32.3125 
Q 14.796875 37.15625 21.921875 38.8125 
z
M 18.3125 54.390625 
Q 18.3125 48.734375 21.84375 45.5625 
Q 25.390625 42.390625 31.78125 42.390625 
Q 38.140625 42.390625 41.71875 45.5625 
Q 45.3125 48.734375 45.3125 54.390625 
Q 45.3125 60.0625 41.71875 63.234375 
Q 38.140625 66.40625 31.78125 66.40625 
Q 25.390625 66.40625 21.84375 63.234375 
Q 18.3125 60.0625 18.3125 54.390625 
z
" id="DejaVuSans-56"/>
       </defs>
       <use xlink:href="#DejaVuSans-56"/>
       <use x="63.623047" xlink:href="#DejaVuSans-48"/>
      </g>
     </g>
    </g>
    <g id="xtick_5">
     <g id="line2d_5">
      <g>
       <use style="stroke:#000000;stroke-width:0.8;" x="343.969428" xlink:href="#mc9bf3e9db0" y="307.584"/>
      </g>
     </g>
     <g id="text_5">
      <!-- 100 -->
      <g transform="translate(334.425678 322.182437)scale(0.1 -0.1)">
       <defs>
        <path d="M 12.40625 8.296875 
L 28.515625 8.296875 
L 28.515625 63.921875 
L 10.984375 60.40625 
L 10.984375 69.390625 
L 28.421875 72.90625 
L 38.28125 72.90625 
L 38.28125 8.296875 
L 54.390625 8.296875 
L 54.390625 0 
L 12.40625 0 
z
" id="DejaVuSans-49"/>
       </defs>
       <use xlink:href="#DejaVuSans-49"/>
       <use x="63.623047" xlink:href="#DejaVuSans-48"/>
       <use x="127.246094" xlink:href="#DejaVuSans-48"/>
      </g>
     </g>
    </g>
    <g id="xtick_6">
     <g id="line2d_6">
      <g>
       <use style="stroke:#000000;stroke-width:0.8;" x="401.971009" xlink:href="#mc9bf3e9db0" y="307.584"/>
      </g>
     </g>
     <g id="text_6">
      <!-- 120 -->
      <g transform="translate(392.427259 322.182437)scale(0.1 -0.1)">
       <use xlink:href="#DejaVuSans-49"/>
       <use x="63.623047" xlink:href="#DejaVuSans-50"/>
       <use x="127.246094" xlink:href="#DejaVuSans-48"/>
      </g>
     </g>
    </g>
   </g>
   <g id="matplotlib.axis_2">
    <g id="ytick_1">
     <g id="line2d_7">
      <defs>
       <path d="M 0 0 
L -3.5 0 
" id="m52987e2f54" style="stroke:#000000;stroke-width:0.8;"/>
      </defs>
      <g>
       <use style="stroke:#000000;stroke-width:0.8;" x="57.6" xlink:href="#m52987e2f54" y="266.289638"/>
      </g>
     </g>
     <g id="text_7">
      <!-- 20 -->
      <g transform="translate(37.875 270.088857)scale(0.1 -0.1)">
       <use xlink:href="#DejaVuSans-50"/>
       <use x="63.623047" xlink:href="#DejaVuSans-48"/>
      </g>
     </g>
    </g>
    <g id="ytick_2">
     <g id="line2d_8">
      <g>
       <use style="stroke:#000000;stroke-width:0.8;" x="57.6" xlink:href="#m52987e2f54" y="208.288058"/>
      </g>
     </g>
     <g id="text_8">
      <!-- 40 -->
      <g transform="translate(37.875 212.087276)scale(0.1 -0.1)">
       <use xlink:href="#DejaVuSans-52"/>
       <use x="63.623047" xlink:href="#DejaVuSans-48"/>
      </g>
     </g>
    </g>
    <g id="ytick_3">
     <g id="line2d_9">
      <g>
       <use style="stroke:#000000;stroke-width:0.8;" x="57.6" xlink:href="#m52987e2f54" y="150.286478"/>
      </g>
     </g>
     <g id="text_9">
      <!-- 60 -->
      <g transform="translate(37.875 154.085696)scale(0.1 -0.1)">
       <use xlink:href="#DejaVuSans-54"/>
       <use x="63.623047" xlink:href="#DejaVuSans-48"/>
      </g>
     </g>
    </g>
    <g id="ytick_4">
     <g id="line2d_10">
      <g>
       <use style="stroke:#000000;stroke-width:0.8;" x="57.6" xlink:href="#m52987e2f54" y="92.284897"/>
      </g>
     </g>
     <g id="text_10">
      <!-- 80 -->
      <g transform="translate(37.875 96.084116)scale(0.1 -0.1)">
       <use xlink:href="#DejaVuSans-56"/>
       <use x="63.623047" xlink:href="#DejaVuSans-48"/>
      </g>
     </g>
    </g>
   </g>
   <g id="line2d_11">
    <path clip-path="url(#p471143510b)" d="M 108.175604 295.290428 
L 108.338009 280.804533 
L 108.259707 269.192617 
L 108.019 260.48658 
L 107.581088 251.792143 
L 106.90247 243.118007 
L 105.948344 234.472871 
L 104.70711 225.865437 
L 103.201969 217.292803 
L 101.461921 208.757871 
L 99.495668 200.266439 
L 98.025328 194.646086 
L 96.395483 189.077934 
L 94.577134 183.570684 
L 92.547079 178.138836 
L 86.062502 161.982496 
L 84.226752 156.478146 
L 83.446631 153.67667 
L 82.782513 150.834592 
L 82.240198 147.957714 
L 81.825486 145.054735 
L 81.541279 142.134355 
L 81.399175 139.205276 
L 81.399175 136.273296 
L 81.549979 133.344216 
L 81.857387 130.432537 
L 82.3272 127.541158 
L 82.962317 124.67878 
L 83.768539 121.854103 
L 84.745866 119.078727 
L 85.882697 116.358453 
L 87.176132 113.710681 
L 88.620372 111.138311 
L 90.209615 108.655843 
L 91.938062 106.274878 
L 93.802813 104.001216 
L 95.795167 101.849358 
L 97.909325 99.825103 
L 100.139485 97.942951 
L 102.479849 96.197104 
L 104.915916 94.58466 
L 107.438984 93.10562 
L 110.037455 91.754183 
L 112.705528 90.530349 
L 115.428702 89.428319 
L 118.198277 88.448093 
L 121.002654 87.583869 
L 123.836031 86.832749 
L 129.552087 85.661117 
L 135.314544 84.898396 
L 141.114702 84.503985 
L 146.93226 84.443084 
L 152.758519 84.67799 
L 158.570277 85.182604 
L 164.350135 85.962725 
L 170.071991 87.035754 
L 175.709744 88.419092 
L 181.240195 90.130139 
L 186.651742 92.168894 
L 191.961787 94.471557 
L 199.812301 98.24456 
L 212.862657 104.734936 
L 218.149501 107.179703 
L 223.503046 109.438865 
L 228.940695 111.442819 
L 234.476945 113.121965 
L 240.126299 114.427001 
L 245.865556 115.363726 
L 251.662814 115.949542 
L 257.491972 116.204749 
L 263.321131 116.152548 
L 269.124189 115.816138 
L 274.901147 115.230322 
L 280.649103 114.432801 
L 289.227537 112.93636 
L 297.750869 111.181812 
L 306.2278 109.224259 
L 314.65253 107.0492 
L 323.027958 104.656634 
L 331.333784 102.000162 
L 336.800433 100.042609 
L 342.19168 97.90235 
L 347.490124 95.550386 
L 352.678366 92.966416 
L 357.759304 90.162039 
L 362.73004 87.157558 
L 367.593472 83.973271 
L 372.358302 80.62658 
L 377.018729 77.137785 
L 381.580553 73.524286 
L 388.244935 67.915533 
L 394.700511 62.135676 
L 394.700511 62.135676 
" style="fill:none;stroke:#fea952;stroke-linecap:square;"/>
   </g>
   <g id="line2d_12">
    <path clip-path="url(#p471143510b)" d="M 96.576971 295.092856 
L 96.737699 280.792945 
L 96.661943 269.435927 
L 96.428902 260.973364 
L 96.008398 252.592259 
L 95.358014 244.255049 
L 94.449584 236.004492 
L 93.26182 227.755591 
L 91.816793 219.516561 
L 90.136484 211.268208 
L 88.253382 203.126217 
L 86.127637 195.206549 
L 84.529371 190.052078 
L 82.761701 185.010436 
L 79.64252 177.199879 
L 76.225434 168.780281 
L 74.043171 162.745807 
L 73.051631 159.590059 
L 72.150616 156.316249 
L 71.382971 152.983498 
L 70.756471 149.598246 
L 70.279716 146.178355 
L 69.95459 142.696482 
L 69.798859 139.205276 
L 69.814203 135.676842 
L 70.01378 132.126251 
L 70.407241 128.572031 
L 71.002312 125.028341 
L 71.807472 121.494953 
L 72.826812 118.00106 
L 74.042614 114.605727 
L 75.459553 111.266753 
L 77.061016 108.031619 
L 78.850586 104.883822 
L 80.822091 101.841027 
L 82.968584 98.918534 
L 85.290745 96.120097 
L 87.772592 93.470479 
L 90.427566 90.959968 
L 93.203285 88.644755 
L 96.077077 86.52385 
L 99.04941 84.577091 
L 102.086423 82.814 
L 105.200972 81.210191 
L 108.353876 79.777189 
L 111.558301 78.49272 
L 114.781955 77.362242 
L 118.030119 76.370869 
L 121.302501 75.512477 
L 124.562943 74.790498 
L 127.838651 74.188041 
L 134.342572 73.338872 
L 140.83693 72.906995 
L 147.267189 72.847604 
L 153.634994 73.110833 
L 159.989239 73.669399 
L 166.337747 74.533957 
L 172.677894 75.731923 
L 178.971649 77.286827 
L 185.172744 79.216734 
L 191.153846 81.477851 
L 196.859766 83.955991 
L 205.009357 87.873545 
L 220.294719 95.413654 
L 225.221564 97.605004 
L 230.075104 99.540038 
L 234.882622 101.173362 
L 239.714288 102.476711 
L 244.673221 103.463387 
L 249.764267 104.140486 
L 254.920273 104.522585 
L 260.152675 104.618812 
L 265.41407 104.447145 
L 270.729441 104.023432 
L 276.085577 103.380022 
L 281.5209 102.541043 
L 289.741784 101.009985 
L 297.970363 99.249836 
L 306.140107 97.29066 
L 314.265784 95.12336 
L 322.276581 92.754649 
L 330.077492 90.153123 
L 335.132024 88.251665 
L 340.036221 86.201346 
L 344.816841 83.957151 
L 349.527991 81.488563 
L 354.167537 78.809062 
L 358.740109 75.933668 
L 363.250765 72.874638 
L 367.684167 69.661063 
L 372.049118 66.300768 
L 378.482013 61.011885 
L 384.751222 55.511053 
L 386.87988 53.568 
L 386.87988 53.568 
" style="fill:none;stroke:#ffffff;stroke-linecap:square;"/>
   </g>
   <g id="line2d_13">
    <path clip-path="url(#p471143510b)" d="M 119.774238 295.488 
L 119.938319 280.816122 
L 119.857471 268.949307 
L 119.609098 259.999796 
L 119.153778 250.992027 
L 118.446926 241.980965 
L 117.447103 232.94125 
L 116.152399 223.975282 
L 114.587145 215.069045 
L 112.787359 206.247533 
L 110.737954 197.406661 
L 109.184983 191.479157 
L 107.44377 185.542019 
L 105.48208 179.614741 
L 103.310488 173.812595 
L 96.16198 155.743836 
L 94.742646 151.037091 
L 93.723925 146.317182 
L 93.127967 141.572229 
L 92.999491 139.205276 
L 92.984147 136.86975 
L 93.086178 134.562181 
L 93.307534 132.293042 
L 93.652088 130.053975 
L 94.117163 127.862606 
L 94.710267 125.707146 
L 95.449118 123.551728 
L 96.305841 121.450153 
L 97.291249 119.389743 
L 98.390157 117.3928 
L 99.597139 115.47066 
L 100.90754 113.631223 
L 102.31488 111.882336 
L 103.817743 110.228237 
L 105.391084 108.690238 
L 107.075686 107.241148 
L 108.882622 105.870357 
L 110.782422 104.592229 
L 112.791545 103.397239 
L 114.873938 102.298175 
L 119.299103 100.363919 
L 123.975189 98.796869 
L 128.810674 97.598964 
L 133.756619 96.755661 
L 138.813525 96.239485 
L 143.985919 96.034648 
L 149.244526 96.112005 
L 154.537007 96.443515 
L 159.780433 97.016729 
L 164.92997 97.833909 
L 169.97996 98.914415 
L 174.895955 100.263228 
L 179.714467 101.905679 
L 184.58942 103.88453 
L 189.550244 106.144106 
L 197.196441 109.909014 
L 207.921052 115.230073 
L 213.533882 117.822231 
L 219.347333 120.269256 
L 225.394655 122.48786 
L 231.679844 124.380009 
L 238.076653 125.844806 
L 244.537633 126.887786 
L 250.993791 127.53055 
L 257.445802 127.804973 
L 263.853651 127.740634 
L 270.178611 127.368434 
L 276.39706 126.733782 
L 282.503538 125.883932 
L 291.478002 124.316287 
L 300.26856 122.505617 
L 309.035829 120.479582 
L 317.735162 118.232433 
L 326.428067 115.747468 
L 332.244151 113.924513 
L 338.071225 111.933149 
L 343.88039 109.739695 
L 349.671684 107.306492 
L 355.37775 104.614753 
L 360.93868 101.689194 
L 366.345007 98.556936 
L 371.609504 95.237761 
L 376.72711 91.760014 
L 381.718964 88.135202 
L 386.576265 84.390304 
L 393.611337 78.600884 
L 400.392483 72.646405 
L 402.521141 70.703352 
L 402.521141 70.703352 
" style="fill:none;stroke:#ffffff;stroke-linecap:square;"/>
   </g>
   <g id="patch_3">
    <path d="M 57.6 307.584 
L 57.6 41.472 
" style="fill:none;stroke:#000000;stroke-linecap:square;stroke-linejoin:miter;stroke-width:0.8;"/>
   </g>
   <g id="patch_4">
    <path d="M 414.72 307.584 
L 414.72 41.472 
" style="fill:none;stroke:#000000;stroke-linecap:square;stroke-linejoin:miter;stroke-width:0.8;"/>
   </g>
   <g id="patch_5">
    <path d="M 57.6 307.584 
L 414.72 307.584 
" style="fill:none;stroke:#000000;stroke-linecap:square;stroke-linejoin:miter;stroke-width:0.8;"/>
   </g>
   <g id="patch_6">
    <path d="M 57.6 41.472 
L 414.72 41.472 
" style="fill:none;stroke:#000000;stroke-linecap:square;stroke-linejoin:miter;stroke-width:0.8;"/>
   </g>
  </g>
 </g>
 <defs>
  <clipPath id="p471143510b">
   <rect height="266.112" width="357.12" x="57.6" y="41.472"/>
  </clipPath>
 </defs>
</svg>
