<?xml version="1.0" encoding="utf-8" standalone="no"?>
<!DOCTYPE svg PUBLIC "-//W3C//DTD SVG 1.1//EN"
  "http://www.w3.org/Graphics/SVG/1.1/DTD/svg11.dtd">
<!-- Created with matplotlib (https://matplotlib.org/) -->
<svg height="345.6pt" version="1.1" viewBox="0 0 460.8 345.6" width="460.8pt" xmlns="http://www.w3.org/2000/svg" xmlns:xlink="http://www.w3.org/1999/xlink">
 <metadata>
  <rdf:RDF xmlns:cc="http://creativecommons.org/ns#" xmlns:dc="http://purl.org/dc/elements/1.1/" xmlns:rdf="http://www.w3.org/1999/02/22-rdf-syntax-ns#">
   <cc:Work>
    <dc:type rdf:resource="http://purl.org/dc/dcmitype/StillImage"/>
    <dc:date>2021-01-22T09:19:05.923064</dc:date>
    <dc:format>image/svg+xml</dc:format>
    <dc:creator>
     <cc:Agent>
      <dc:title>Matplotlib v3.3.3, https://matplotlib.org/</dc:title>
     </cc:Agent>
    </dc:creator>
   </cc:Work>
  </rdf:RDF>
 </metadata>
 <defs>
  <style type="text/css">*{stroke-linecap:butt;stroke-linejoin:round;}</style>
 </defs>
 <g id="figure_1">
  <g id="patch_1">
   <path d="M 0 345.6 
L 460.8 345.6 
L 460.8 0 
L 0 0 
z
" style="fill:#ffffff;"/>
  </g>
  <g id="axes_1">
   <g id="patch_2">
    <path d="M 57.6 307.584 
L 414.72 307.584 
L 414.72 41.472 
L 57.6 41.472 
z
" style="fill:#7d9051;"/>
   </g>
   <g id="matplotlib.axis_1">
    <g id="xtick_1">
     <g id="line2d_1">
      <defs>
       <path d="M 0 0 
L 0 3.5 
" id="m8834908790" style="stroke:#000000;stroke-width:0.8;"/>
      </defs>
      <g>
       <use style="stroke:#000000;stroke-width:0.8;" x="117.572391" xlink:href="#m8834908790" y="307.584"/>
      </g>
     </g>
     <g id="text_1">
      <!-- 20 -->
      <g transform="translate(111.209891 322.182437)scale(0.1 -0.1)">
       <defs>
        <path d="M 19.1875 8.296875 
L 53.609375 8.296875 
L 53.609375 0 
L 7.328125 0 
L 7.328125 8.296875 
Q 12.9375 14.109375 22.625 23.890625 
Q 32.328125 33.6875 34.8125 36.53125 
Q 39.546875 41.84375 41.421875 45.53125 
Q 43.3125 49.21875 43.3125 52.78125 
Q 43.3125 58.59375 39.234375 62.25 
Q 35.15625 65.921875 28.609375 65.921875 
Q 23.96875 65.921875 18.8125 64.3125 
Q 13.671875 62.703125 7.8125 59.421875 
L 7.8125 69.390625 
Q 13.765625 71.78125 18.9375 73 
Q 24.125 74.21875 28.421875 74.21875 
Q 39.75 74.21875 46.484375 68.546875 
Q 53.21875 62.890625 53.21875 53.421875 
Q 53.21875 48.921875 51.53125 44.890625 
Q 49.859375 40.875 45.40625 35.40625 
Q 44.1875 33.984375 37.640625 27.21875 
Q 31.109375 20.453125 19.1875 8.296875 
z
" id="DejaVuSans-50"/>
        <path d="M 31.78125 66.40625 
Q 24.171875 66.40625 20.328125 58.90625 
Q 16.5 51.421875 16.5 36.375 
Q 16.5 21.390625 20.328125 13.890625 
Q 24.171875 6.390625 31.78125 6.390625 
Q 39.453125 6.390625 43.28125 13.890625 
Q 47.125 21.390625 47.125 36.375 
Q 47.125 51.421875 43.28125 58.90625 
Q 39.453125 66.40625 31.78125 66.40625 
z
M 31.78125 74.21875 
Q 44.046875 74.21875 50.515625 64.515625 
Q 56.984375 54.828125 56.984375 36.375 
Q 56.984375 17.96875 50.515625 8.265625 
Q 44.046875 -1.421875 31.78125 -1.421875 
Q 19.53125 -1.421875 13.0625 8.265625 
Q 6.59375 17.96875 6.59375 36.375 
Q 6.59375 54.828125 13.0625 64.515625 
Q 19.53125 74.21875 31.78125 74.21875 
z
" id="DejaVuSans-48"/>
       </defs>
       <use xlink:href="#DejaVuSans-50"/>
       <use x="63.623047" xlink:href="#DejaVuSans-48"/>
      </g>
     </g>
    </g>
    <g id="xtick_2">
     <g id="line2d_2">
      <g>
       <use style="stroke:#000000;stroke-width:0.8;" x="179.875203" xlink:href="#m8834908790" y="307.584"/>
      </g>
     </g>
     <g id="text_2">
      <!-- 40 -->
      <g transform="translate(173.512703 322.182437)scale(0.1 -0.1)">
       <defs>
        <path d="M 37.796875 64.3125 
L 12.890625 25.390625 
L 37.796875 25.390625 
z
M 35.203125 72.90625 
L 47.609375 72.90625 
L 47.609375 25.390625 
L 58.015625 25.390625 
L 58.015625 17.1875 
L 47.609375 17.1875 
L 47.609375 0 
L 37.796875 0 
L 37.796875 17.1875 
L 4.890625 17.1875 
L 4.890625 26.703125 
z
" id="DejaVuSans-52"/>
       </defs>
       <use xlink:href="#DejaVuSans-52"/>
       <use x="63.623047" xlink:href="#DejaVuSans-48"/>
      </g>
     </g>
    </g>
    <g id="xtick_3">
     <g id="line2d_3">
      <g>
       <use style="stroke:#000000;stroke-width:0.8;" x="242.178015" xlink:href="#m8834908790" y="307.584"/>
      </g>
     </g>
     <g id="text_3">
      <!-- 60 -->
      <g transform="translate(235.815515 322.182437)scale(0.1 -0.1)">
       <defs>
        <path d="M 33.015625 40.375 
Q 26.375 40.375 22.484375 35.828125 
Q 18.609375 31.296875 18.609375 23.390625 
Q 18.609375 15.53125 22.484375 10.953125 
Q 26.375 6.390625 33.015625 6.390625 
Q 39.65625 6.390625 43.53125 10.953125 
Q 47.40625 15.53125 47.40625 23.390625 
Q 47.40625 31.296875 43.53125 35.828125 
Q 39.65625 40.375 33.015625 40.375 
z
M 52.59375 71.296875 
L 52.59375 62.3125 
Q 48.875 64.0625 45.09375 64.984375 
Q 41.3125 65.921875 37.59375 65.921875 
Q 27.828125 65.921875 22.671875 59.328125 
Q 17.53125 52.734375 16.796875 39.40625 
Q 19.671875 43.65625 24.015625 45.921875 
Q 28.375 48.1875 33.59375 48.1875 
Q 44.578125 48.1875 50.953125 41.515625 
Q 57.328125 34.859375 57.328125 23.390625 
Q 57.328125 12.15625 50.6875 5.359375 
Q 44.046875 -1.421875 33.015625 -1.421875 
Q 20.359375 -1.421875 13.671875 8.265625 
Q 6.984375 17.96875 6.984375 36.375 
Q 6.984375 53.65625 15.1875 63.9375 
Q 23.390625 74.21875 37.203125 74.21875 
Q 40.921875 74.21875 44.703125 73.484375 
Q 48.484375 72.75 52.59375 71.296875 
z
" id="DejaVuSans-54"/>
       </defs>
       <use xlink:href="#DejaVuSans-54"/>
       <use x="63.623047" xlink:href="#DejaVuSans-48"/>
      </g>
     </g>
    </g>
    <g id="xtick_4">
     <g id="line2d_4">
      <g>
       <use style="stroke:#000000;stroke-width:0.8;" x="304.480827" xlink:href="#m8834908790" y="307.584"/>
      </g>
     </g>
     <g id="text_4">
      <!-- 80 -->
      <g transform="translate(298.118327 322.182437)scale(0.1 -0.1)">
       <defs>
        <path d="M 31.78125 34.625 
Q 24.75 34.625 20.71875 30.859375 
Q 16.703125 27.09375 16.703125 20.515625 
Q 16.703125 13.921875 20.71875 10.15625 
Q 24.75 6.390625 31.78125 6.390625 
Q 38.8125 6.390625 42.859375 10.171875 
Q 46.921875 13.96875 46.921875 20.515625 
Q 46.921875 27.09375 42.890625 30.859375 
Q 38.875 34.625 31.78125 34.625 
z
M 21.921875 38.8125 
Q 15.578125 40.375 12.03125 44.71875 
Q 8.5 49.078125 8.5 55.328125 
Q 8.5 64.0625 14.71875 69.140625 
Q 20.953125 74.21875 31.78125 74.21875 
Q 42.671875 74.21875 48.875 69.140625 
Q 55.078125 64.0625 55.078125 55.328125 
Q 55.078125 49.078125 51.53125 44.71875 
Q 48 40.375 41.703125 38.8125 
Q 48.828125 37.15625 52.796875 32.3125 
Q 56.78125 27.484375 56.78125 20.515625 
Q 56.78125 9.90625 50.3125 4.234375 
Q 43.84375 -1.421875 31.78125 -1.421875 
Q 19.734375 -1.421875 13.25 4.234375 
Q 6.78125 9.90625 6.78125 20.515625 
Q 6.78125 27.484375 10.78125 32.3125 
Q 14.796875 37.15625 21.921875 38.8125 
z
M 18.3125 54.390625 
Q 18.3125 48.734375 21.84375 45.5625 
Q 25.390625 42.390625 31.78125 42.390625 
Q 38.140625 42.390625 41.71875 45.5625 
Q 45.3125 48.734375 45.3125 54.390625 
Q 45.3125 60.0625 41.71875 63.234375 
Q 38.140625 66.40625 31.78125 66.40625 
Q 25.390625 66.40625 21.84375 63.234375 
Q 18.3125 60.0625 18.3125 54.390625 
z
" id="DejaVuSans-56"/>
       </defs>
       <use xlink:href="#DejaVuSans-56"/>
       <use x="63.623047" xlink:href="#DejaVuSans-48"/>
      </g>
     </g>
    </g>
    <g id="xtick_5">
     <g id="line2d_5">
      <g>
       <use style="stroke:#000000;stroke-width:0.8;" x="366.783639" xlink:href="#m8834908790" y="307.584"/>
      </g>
     </g>
     <g id="text_5">
      <!-- 100 -->
      <g transform="translate(357.239889 322.182437)scale(0.1 -0.1)">
       <defs>
        <path d="M 12.40625 8.296875 
L 28.515625 8.296875 
L 28.515625 63.921875 
L 10.984375 60.40625 
L 10.984375 69.390625 
L 28.421875 72.90625 
L 38.28125 72.90625 
L 38.28125 8.296875 
L 54.390625 8.296875 
L 54.390625 0 
L 12.40625 0 
z
" id="DejaVuSans-49"/>
       </defs>
       <use xlink:href="#DejaVuSans-49"/>
       <use x="63.623047" xlink:href="#DejaVuSans-48"/>
       <use x="127.246094" xlink:href="#DejaVuSans-48"/>
      </g>
     </g>
    </g>
   </g>
   <g id="matplotlib.axis_2">
    <g id="ytick_1">
     <g id="line2d_6">
      <defs>
       <path d="M 0 0 
L -3.5 0 
" id="mb195753345" style="stroke:#000000;stroke-width:0.8;"/>
      </defs>
      <g>
       <use style="stroke:#000000;stroke-width:0.8;" x="57.6" xlink:href="#mb195753345" y="278.729557"/>
      </g>
     </g>
     <g id="text_6">
      <!-- 10 -->
      <g transform="translate(37.875 282.528776)scale(0.1 -0.1)">
       <use xlink:href="#DejaVuSans-49"/>
       <use x="63.623047" xlink:href="#DejaVuSans-48"/>
      </g>
     </g>
    </g>
    <g id="ytick_2">
     <g id="line2d_7">
      <g>
       <use style="stroke:#000000;stroke-width:0.8;" x="57.6" xlink:href="#mb195753345" y="247.578151"/>
      </g>
     </g>
     <g id="text_7">
      <!-- 20 -->
      <g transform="translate(37.875 251.37737)scale(0.1 -0.1)">
       <use xlink:href="#DejaVuSans-50"/>
       <use x="63.623047" xlink:href="#DejaVuSans-48"/>
      </g>
     </g>
    </g>
    <g id="ytick_3">
     <g id="line2d_8">
      <g>
       <use style="stroke:#000000;stroke-width:0.8;" x="57.6" xlink:href="#mb195753345" y="216.426745"/>
      </g>
     </g>
     <g id="text_8">
      <!-- 30 -->
      <g transform="translate(37.875 220.225964)scale(0.1 -0.1)">
       <defs>
        <path d="M 40.578125 39.3125 
Q 47.65625 37.796875 51.625 33 
Q 55.609375 28.21875 55.609375 21.1875 
Q 55.609375 10.40625 48.1875 4.484375 
Q 40.765625 -1.421875 27.09375 -1.421875 
Q 22.515625 -1.421875 17.65625 -0.515625 
Q 12.796875 0.390625 7.625 2.203125 
L 7.625 11.71875 
Q 11.71875 9.328125 16.59375 8.109375 
Q 21.484375 6.890625 26.8125 6.890625 
Q 36.078125 6.890625 40.9375 10.546875 
Q 45.796875 14.203125 45.796875 21.1875 
Q 45.796875 27.640625 41.28125 31.265625 
Q 36.765625 34.90625 28.71875 34.90625 
L 20.21875 34.90625 
L 20.21875 43.015625 
L 29.109375 43.015625 
Q 36.375 43.015625 40.234375 45.921875 
Q 44.09375 48.828125 44.09375 54.296875 
Q 44.09375 59.90625 40.109375 62.90625 
Q 36.140625 65.921875 28.71875 65.921875 
Q 24.65625 65.921875 20.015625 65.03125 
Q 15.375 64.15625 9.8125 62.3125 
L 9.8125 71.09375 
Q 15.4375 72.65625 20.34375 73.4375 
Q 25.25 74.21875 29.59375 74.21875 
Q 40.828125 74.21875 47.359375 69.109375 
Q 53.90625 64.015625 53.90625 55.328125 
Q 53.90625 49.265625 50.4375 45.09375 
Q 46.96875 40.921875 40.578125 39.3125 
z
" id="DejaVuSans-51"/>
       </defs>
       <use xlink:href="#DejaVuSans-51"/>
       <use x="63.623047" xlink:href="#DejaVuSans-48"/>
      </g>
     </g>
    </g>
    <g id="ytick_4">
     <g id="line2d_9">
      <g>
       <use style="stroke:#000000;stroke-width:0.8;" x="57.6" xlink:href="#mb195753345" y="185.275339"/>
      </g>
     </g>
     <g id="text_9">
      <!-- 40 -->
      <g transform="translate(37.875 189.074558)scale(0.1 -0.1)">
       <use xlink:href="#DejaVuSans-52"/>
       <use x="63.623047" xlink:href="#DejaVuSans-48"/>
      </g>
     </g>
    </g>
    <g id="ytick_5">
     <g id="line2d_10">
      <g>
       <use style="stroke:#000000;stroke-width:0.8;" x="57.6" xlink:href="#mb195753345" y="154.123933"/>
      </g>
     </g>
     <g id="text_10">
      <!-- 50 -->
      <g transform="translate(37.875 157.923152)scale(0.1 -0.1)">
       <defs>
        <path d="M 10.796875 72.90625 
L 49.515625 72.90625 
L 49.515625 64.59375 
L 19.828125 64.59375 
L 19.828125 46.734375 
Q 21.96875 47.46875 24.109375 47.828125 
Q 26.265625 48.1875 28.421875 48.1875 
Q 40.625 48.1875 47.75 41.5 
Q 54.890625 34.8125 54.890625 23.390625 
Q 54.890625 11.625 47.5625 5.09375 
Q 40.234375 -1.421875 26.90625 -1.421875 
Q 22.3125 -1.421875 17.546875 -0.640625 
Q 12.796875 0.140625 7.71875 1.703125 
L 7.71875 11.625 
Q 12.109375 9.234375 16.796875 8.0625 
Q 21.484375 6.890625 26.703125 6.890625 
Q 35.15625 6.890625 40.078125 11.328125 
Q 45.015625 15.765625 45.015625 23.390625 
Q 45.015625 31 40.078125 35.4375 
Q 35.15625 39.890625 26.703125 39.890625 
Q 22.75 39.890625 18.8125 39.015625 
Q 14.890625 38.140625 10.796875 36.28125 
z
" id="DejaVuSans-53"/>
       </defs>
       <use xlink:href="#DejaVuSans-53"/>
       <use x="63.623047" xlink:href="#DejaVuSans-48"/>
      </g>
     </g>
    </g>
    <g id="ytick_6">
     <g id="line2d_11">
      <g>
       <use style="stroke:#000000;stroke-width:0.8;" x="57.6" xlink:href="#mb195753345" y="122.972527"/>
      </g>
     </g>
     <g id="text_11">
      <!-- 60 -->
      <g transform="translate(37.875 126.771746)scale(0.1 -0.1)">
       <use xlink:href="#DejaVuSans-54"/>
       <use x="63.623047" xlink:href="#DejaVuSans-48"/>
      </g>
     </g>
    </g>
    <g id="ytick_7">
     <g id="line2d_12">
      <g>
       <use style="stroke:#000000;stroke-width:0.8;" x="57.6" xlink:href="#mb195753345" y="91.821121"/>
      </g>
     </g>
     <g id="text_12">
      <!-- 70 -->
      <g transform="translate(37.875 95.62034)scale(0.1 -0.1)">
       <defs>
        <path d="M 8.203125 72.90625 
L 55.078125 72.90625 
L 55.078125 68.703125 
L 28.609375 0 
L 18.3125 0 
L 43.21875 64.59375 
L 8.203125 64.59375 
z
" id="DejaVuSans-55"/>
       </defs>
       <use xlink:href="#DejaVuSans-55"/>
       <use x="63.623047" xlink:href="#DejaVuSans-48"/>
      </g>
     </g>
    </g>
    <g id="ytick_8">
     <g id="line2d_13">
      <g>
       <use style="stroke:#000000;stroke-width:0.8;" x="57.6" xlink:href="#mb195753345" y="60.669715"/>
      </g>
     </g>
     <g id="text_13">
      <!-- 80 -->
      <g transform="translate(37.875 64.468934)scale(0.1 -0.1)">
       <use xlink:href="#DejaVuSans-56"/>
       <use x="63.623047" xlink:href="#DejaVuSans-48"/>
      </g>
     </g>
    </g>
   </g>
   <g id="line2d_14">
    <path clip-path="url(#p49f0bcc236)" d="M 86.420985 278.729557 
L 86.293265 266.244074 
L 86.40541 250.687061 
L 86.670197 222.675717 
L 86.651506 197.667368 
L 87.08451 191.462008 
L 87.445867 188.374904 
L 87.925598 185.303375 
L 88.533051 182.247423 
L 89.271339 179.213276 
L 90.134233 176.207165 
L 91.115502 173.232206 
L 92.212032 170.291513 
L 93.420706 167.391317 
L 94.735296 164.537848 
L 97.672873 158.983553 
L 99.283401 156.295186 
L 102.775474 151.111592 
L 106.594636 146.17721 
L 110.706622 141.479578 
L 115.080279 137.009351 
L 119.684457 132.754069 
L 124.488004 128.713731 
L 129.481574 124.922605 
L 134.668283 121.418072 
L 140.038785 118.249974 
L 145.593081 115.458808 
L 151.321825 113.06015 
L 157.184519 110.973006 
L 166.121858 108.172494 
L 178.062192 104.493513 
L 186.902961 101.453136 
L 195.659621 98.204044 
L 221.873529 88.182637 
L 227.817217 86.313553 
L 233.857475 84.759098 
L 240.009877 83.59715 
L 246.243274 82.858862 
L 249.377105 82.653263 
L 252.510937 82.562923 
L 255.644768 82.59096 
L 258.772369 82.737371 
L 261.884395 83.008389 
L 264.980844 83.400896 
L 268.052373 83.921125 
L 274.123782 85.310477 
L 280.104852 87.092338 
L 285.998698 89.198173 
L 291.808435 91.553219 
L 297.534064 94.076483 
L 306.001016 98.060748 
L 342.342246 115.83574 
L 347.787512 118.894808 
L 353.101942 122.240469 
L 358.217002 125.922565 
L 360.671733 127.897565 
L 363.042355 129.962903 
L 365.322638 132.12481 
L 367.493891 134.380172 
L 369.546769 136.738334 
L 371.471926 139.199295 
L 373.253786 141.76617 
L 374.889235 144.435846 
L 376.372042 147.202091 
L 377.702207 150.05556 
L 378.882845 152.980677 
L 379.910842 155.964981 
L 380.789311 159.002243 
L 381.515139 162.076887 
L 382.094555 165.179567 
L 382.521329 168.297823 
L 382.795462 171.419194 
L 382.926298 174.534334 
L 382.923183 177.643245 
L 382.586747 183.848605 
L 381.923222 190.044619 
L 380.608633 199.349544 
L 379.306504 208.691851 
L 378.614943 214.934593 
L 378.153902 221.171104 
L 378.004376 227.382695 
L 378.241126 233.550673 
L 378.527719 236.612856 
L 378.938918 239.659464 
L 379.487182 242.68738 
L 380.178744 245.693491 
L 381.022947 248.674681 
L 382.032252 251.634064 
L 383.216006 254.562296 
L 384.580437 257.462492 
L 386.141123 260.331537 
L 387.901177 263.166315 
L 387.901177 263.166315 
" style="fill:none;stroke:#fea952;stroke-linecap:square;"/>
   </g>
   <g id="line2d_15">
    <path clip-path="url(#p49f0bcc236)" d="M 73.962429 278.95314 
L 73.832727 266.219128 
L 73.945904 250.524763 
L 74.209734 222.72546 
L 74.210514 196.969277 
L 74.708445 190.013347 
L 75.134562 186.452043 
L 75.704145 182.874035 
L 76.425757 179.301397 
L 77.294434 175.775345 
L 78.300773 172.303982 
L 79.440202 168.878704 
L 80.71034 165.498112 
L 82.103408 162.177453 
L 83.620028 158.906113 
L 85.244708 155.71644 
L 86.98366 152.579934 
L 88.834221 149.506942 
L 90.771125 146.538257 
L 92.798074 143.647203 
L 94.916921 140.826164 
L 99.363162 135.45195 
L 104.076205 130.379138 
L 109.010144 125.602287 
L 114.158694 121.070289 
L 119.562647 116.756194 
L 125.225844 112.706662 
L 131.164323 108.964747 
L 134.247672 107.216905 
L 137.395624 105.573405 
L 140.607831 104.038962 
L 147.016455 101.367015 
L 153.32638 99.124783 
L 162.54476 96.236415 
L 174.118083 92.673631 
L 182.649658 89.740962 
L 191.189043 86.573071 
L 217.996784 76.340489 
L 224.529142 74.294643 
L 231.339867 72.555522 
L 234.816013 71.845552 
L 238.327395 71.250698 
L 241.870349 70.775628 
L 245.427535 70.425029 
L 249.018053 70.197874 
L 252.622408 70.10286 
L 256.227443 70.144028 
L 259.853432 70.323793 
L 263.451364 70.646745 
L 267.06167 71.115304 
L 270.620636 71.728109 
L 274.088856 72.466305 
L 280.868927 74.269314 
L 287.39318 76.426561 
L 293.695558 78.843959 
L 299.781581 81.427539 
L 308.583636 85.478602 
L 322.648687 92.340165 
L 336.604713 99.034141 
L 345.363088 103.351868 
L 351.304051 106.539102 
L 357.240822 110.074043 
L 360.214475 112.009268 
L 363.132306 114.045879 
L 366.028069 116.214174 
L 368.856949 118.502467 
L 371.615466 120.920371 
L 374.29938 123.482836 
L 376.892155 126.198592 
L 379.361097 129.060796 
L 381.707951 132.093705 
L 383.879102 135.257079 
L 385.8715 138.548956 
L 387.665797 141.937425 
L 389.257065 145.391778 
L 390.66403 148.92244 
L 391.880789 152.502904 
L 392.916539 156.139382 
L 393.763947 159.789459 
L 394.440029 163.489927 
L 394.934113 167.207678 
L 395.245048 170.896311 
L 395.386854 174.54682 
L 395.374686 178.118302 
L 394.9896 185.046466 
L 394.273937 191.695519 
L 392.490923 204.186085 
L 391.331049 213.087384 
L 390.786064 218.839426 
L 390.495461 224.405114 
L 390.511093 229.780332 
L 390.876314 234.946175 
L 391.630551 239.893776 
L 392.167877 242.298449 
L 392.816479 244.652465 
L 393.584565 246.96398 
L 394.491105 249.257792 
L 395.526316 251.50822 
L 396.727218 253.758851 
L 398.487273 256.593629 
L 398.487273 256.593629 
" style="fill:none;stroke:#ffffff;stroke-linecap:square;"/>
   </g>
   <g id="line2d_16">
    <path clip-path="url(#p49f0bcc236)" d="M 98.879542 278.505974 
L 98.753802 266.26902 
L 98.864915 250.84936 
L 99.13066 222.625975 
L 99.092498 198.36546 
L 99.460576 192.91067 
L 100.147052 187.732716 
L 100.640344 185.193448 
L 101.967693 180.110348 
L 103.713724 175.084914 
L 105.850563 170.169584 
L 108.362086 165.387172 
L 111.203641 160.806219 
L 114.372195 156.400335 
L 117.869562 152.142534 
L 121.648393 148.050603 
L 125.704749 144.10506 
L 129.963924 140.338324 
L 134.360204 136.808495 
L 138.877286 133.556137 
L 143.499133 130.619191 
L 148.189515 128.035693 
L 153.078832 125.780892 
L 158.29313 123.768614 
L 163.854772 121.904424 
L 188.125537 114.239177 
L 197.159016 110.960105 
L 208.963914 106.398643 
L 220.283779 101.983849 
L 225.750274 100.024785 
L 231.105292 98.332462 
L 236.375082 96.962674 
L 241.69236 95.943602 
L 247.059012 95.292694 
L 252.399465 95.022987 
L 257.691307 95.150949 
L 262.900019 95.686489 
L 268.109105 96.659383 
L 273.384628 98.040047 
L 278.735291 99.795417 
L 284.133381 101.857591 
L 289.579609 104.164782 
L 297.798682 107.945182 
L 311.713824 114.734165 
L 325.800293 121.491366 
L 333.801374 125.428762 
L 338.856858 128.129143 
L 343.686013 130.986471 
L 348.24271 134.029932 
L 352.486517 137.292662 
L 356.345896 140.766784 
L 358.095627 142.561752 
L 359.732441 144.415871 
L 361.235901 146.304885 
L 362.62847 148.275262 
L 363.90697 150.322736 
L 365.078286 152.466756 
L 366.147349 154.719342 
L 367.10166 157.038914 
L 367.940894 159.427058 
L 368.662084 161.865105 
L 369.266331 164.364315 
L 369.749081 166.869207 
L 370.108546 169.387968 
L 370.345875 171.942076 
L 370.465742 174.521849 
L 370.374905 179.872337 
L 369.912394 185.489869 
L 369.173333 191.38373 
L 366.540556 210.53906 
L 365.914248 217.272501 
L 365.575593 224.154915 
L 365.628494 231.165497 
L 365.834781 234.711796 
L 366.179125 238.279538 
L 366.677734 241.879596 
L 367.343814 245.480984 
L 368.189611 249.088533 
L 369.229415 252.696896 
L 370.47994 256.304148 
L 371.940907 259.8668 
L 373.634559 263.416765 
L 375.555027 266.904222 
L 377.315082 269.739 
L 377.315082 269.739 
" style="fill:none;stroke:#ffffff;stroke-linecap:square;"/>
   </g>
   <g id="patch_3">
    <path d="M 57.6 307.584 
L 57.6 41.472 
" style="fill:none;stroke:#000000;stroke-linecap:square;stroke-linejoin:miter;stroke-width:0.8;"/>
   </g>
   <g id="patch_4">
    <path d="M 414.72 307.584 
L 414.72 41.472 
" style="fill:none;stroke:#000000;stroke-linecap:square;stroke-linejoin:miter;stroke-width:0.8;"/>
   </g>
   <g id="patch_5">
    <path d="M 57.6 307.584 
L 414.72 307.584 
" style="fill:none;stroke:#000000;stroke-linecap:square;stroke-linejoin:miter;stroke-width:0.8;"/>
   </g>
   <g id="patch_6">
    <path d="M 57.6 41.472 
L 414.72 41.472 
" style="fill:none;stroke:#000000;stroke-linecap:square;stroke-linejoin:miter;stroke-width:0.8;"/>
   </g>
  </g>
 </g>
 <defs>
  <clipPath id="p49f0bcc236">
   <rect height="266.112" width="357.12" x="57.6" y="41.472"/>
  </clipPath>
 </defs>
</svg>
