<?xml version="1.0" encoding="utf-8" standalone="no"?>
<!DOCTYPE svg PUBLIC "-//W3C//DTD SVG 1.1//EN"
  "http://www.w3.org/Graphics/SVG/1.1/DTD/svg11.dtd">
<!-- Created with matplotlib (https://matplotlib.org/) -->
<svg height="345.6pt" version="1.1" viewBox="0 0 460.8 345.6" width="460.8pt" xmlns="http://www.w3.org/2000/svg" xmlns:xlink="http://www.w3.org/1999/xlink">
 <metadata>
  <rdf:RDF xmlns:cc="http://creativecommons.org/ns#" xmlns:dc="http://purl.org/dc/elements/1.1/" xmlns:rdf="http://www.w3.org/1999/02/22-rdf-syntax-ns#">
   <cc:Work>
    <dc:type rdf:resource="http://purl.org/dc/dcmitype/StillImage"/>
    <dc:date>2021-01-25T13:33:57.280399</dc:date>
    <dc:format>image/svg+xml</dc:format>
    <dc:creator>
     <cc:Agent>
      <dc:title>Matplotlib v3.3.3, https://matplotlib.org/</dc:title>
     </cc:Agent>
    </dc:creator>
   </cc:Work>
  </rdf:RDF>
 </metadata>
 <defs>
  <style type="text/css">*{stroke-linecap:butt;stroke-linejoin:round;}</style>
 </defs>
 <g id="figure_1">
  <g id="patch_1">
   <path d="M 0 345.6 
L 460.8 345.6 
L 460.8 0 
L 0 0 
z
" style="fill:#ffffff;"/>
  </g>
  <g id="axes_1">
   <g id="patch_2">
    <path d="M 57.6 307.584 
L 414.72 307.584 
L 414.72 41.472 
L 57.6 41.472 
z
" style="fill:#7d9051;"/>
   </g>
   <g id="matplotlib.axis_1">
    <g id="xtick_1">
     <g id="line2d_1">
      <defs>
       <path d="M 0 0 
L 0 3.5 
" id="m57183b0754" style="stroke:#000000;stroke-width:0.8;"/>
      </defs>
      <g>
       <use style="stroke:#000000;stroke-width:0.8;" x="93.830258" xlink:href="#m57183b0754" y="307.584"/>
      </g>
     </g>
     <g id="text_1">
      <!-- 0 -->
      <g transform="translate(90.649008 322.182437)scale(0.1 -0.1)">
       <defs>
        <path d="M 31.78125 66.40625 
Q 24.171875 66.40625 20.328125 58.90625 
Q 16.5 51.421875 16.5 36.375 
Q 16.5 21.390625 20.328125 13.890625 
Q 24.171875 6.390625 31.78125 6.390625 
Q 39.453125 6.390625 43.28125 13.890625 
Q 47.125 21.390625 47.125 36.375 
Q 47.125 51.421875 43.28125 58.90625 
Q 39.453125 66.40625 31.78125 66.40625 
z
M 31.78125 74.21875 
Q 44.046875 74.21875 50.515625 64.515625 
Q 56.984375 54.828125 56.984375 36.375 
Q 56.984375 17.96875 50.515625 8.265625 
Q 44.046875 -1.421875 31.78125 -1.421875 
Q 19.53125 -1.421875 13.0625 8.265625 
Q 6.59375 17.96875 6.59375 36.375 
Q 6.59375 54.828125 13.0625 64.515625 
Q 19.53125 74.21875 31.78125 74.21875 
z
" id="DejaVuSans-48"/>
       </defs>
       <use xlink:href="#DejaVuSans-48"/>
      </g>
     </g>
    </g>
    <g id="xtick_2">
     <g id="line2d_2">
      <g>
       <use style="stroke:#000000;stroke-width:0.8;" x="161.085403" xlink:href="#m57183b0754" y="307.584"/>
      </g>
     </g>
     <g id="text_2">
      <!-- 20 -->
      <g transform="translate(154.722903 322.182437)scale(0.1 -0.1)">
       <defs>
        <path d="M 19.1875 8.296875 
L 53.609375 8.296875 
L 53.609375 0 
L 7.328125 0 
L 7.328125 8.296875 
Q 12.9375 14.109375 22.625 23.890625 
Q 32.328125 33.6875 34.8125 36.53125 
Q 39.546875 41.84375 41.421875 45.53125 
Q 43.3125 49.21875 43.3125 52.78125 
Q 43.3125 58.59375 39.234375 62.25 
Q 35.15625 65.921875 28.609375 65.921875 
Q 23.96875 65.921875 18.8125 64.3125 
Q 13.671875 62.703125 7.8125 59.421875 
L 7.8125 69.390625 
Q 13.765625 71.78125 18.9375 73 
Q 24.125 74.21875 28.421875 74.21875 
Q 39.75 74.21875 46.484375 68.546875 
Q 53.21875 62.890625 53.21875 53.421875 
Q 53.21875 48.921875 51.53125 44.890625 
Q 49.859375 40.875 45.40625 35.40625 
Q 44.1875 33.984375 37.640625 27.21875 
Q 31.109375 20.453125 19.1875 8.296875 
z
" id="DejaVuSans-50"/>
       </defs>
       <use xlink:href="#DejaVuSans-50"/>
       <use x="63.623047" xlink:href="#DejaVuSans-48"/>
      </g>
     </g>
    </g>
    <g id="xtick_3">
     <g id="line2d_3">
      <g>
       <use style="stroke:#000000;stroke-width:0.8;" x="228.340548" xlink:href="#m57183b0754" y="307.584"/>
      </g>
     </g>
     <g id="text_3">
      <!-- 40 -->
      <g transform="translate(221.978048 322.182437)scale(0.1 -0.1)">
       <defs>
        <path d="M 37.796875 64.3125 
L 12.890625 25.390625 
L 37.796875 25.390625 
z
M 35.203125 72.90625 
L 47.609375 72.90625 
L 47.609375 25.390625 
L 58.015625 25.390625 
L 58.015625 17.1875 
L 47.609375 17.1875 
L 47.609375 0 
L 37.796875 0 
L 37.796875 17.1875 
L 4.890625 17.1875 
L 4.890625 26.703125 
z
" id="DejaVuSans-52"/>
       </defs>
       <use xlink:href="#DejaVuSans-52"/>
       <use x="63.623047" xlink:href="#DejaVuSans-48"/>
      </g>
     </g>
    </g>
    <g id="xtick_4">
     <g id="line2d_4">
      <g>
       <use style="stroke:#000000;stroke-width:0.8;" x="295.595692" xlink:href="#m57183b0754" y="307.584"/>
      </g>
     </g>
     <g id="text_4">
      <!-- 60 -->
      <g transform="translate(289.233192 322.182437)scale(0.1 -0.1)">
       <defs>
        <path d="M 33.015625 40.375 
Q 26.375 40.375 22.484375 35.828125 
Q 18.609375 31.296875 18.609375 23.390625 
Q 18.609375 15.53125 22.484375 10.953125 
Q 26.375 6.390625 33.015625 6.390625 
Q 39.65625 6.390625 43.53125 10.953125 
Q 47.40625 15.53125 47.40625 23.390625 
Q 47.40625 31.296875 43.53125 35.828125 
Q 39.65625 40.375 33.015625 40.375 
z
M 52.59375 71.296875 
L 52.59375 62.3125 
Q 48.875 64.0625 45.09375 64.984375 
Q 41.3125 65.921875 37.59375 65.921875 
Q 27.828125 65.921875 22.671875 59.328125 
Q 17.53125 52.734375 16.796875 39.40625 
Q 19.671875 43.65625 24.015625 45.921875 
Q 28.375 48.1875 33.59375 48.1875 
Q 44.578125 48.1875 50.953125 41.515625 
Q 57.328125 34.859375 57.328125 23.390625 
Q 57.328125 12.15625 50.6875 5.359375 
Q 44.046875 -1.421875 33.015625 -1.421875 
Q 20.359375 -1.421875 13.671875 8.265625 
Q 6.984375 17.96875 6.984375 36.375 
Q 6.984375 53.65625 15.1875 63.9375 
Q 23.390625 74.21875 37.203125 74.21875 
Q 40.921875 74.21875 44.703125 73.484375 
Q 48.484375 72.75 52.59375 71.296875 
z
" id="DejaVuSans-54"/>
       </defs>
       <use xlink:href="#DejaVuSans-54"/>
       <use x="63.623047" xlink:href="#DejaVuSans-48"/>
      </g>
     </g>
    </g>
    <g id="xtick_5">
     <g id="line2d_5">
      <g>
       <use style="stroke:#000000;stroke-width:0.8;" x="362.850837" xlink:href="#m57183b0754" y="307.584"/>
      </g>
     </g>
     <g id="text_5">
      <!-- 80 -->
      <g transform="translate(356.488337 322.182437)scale(0.1 -0.1)">
       <defs>
        <path d="M 31.78125 34.625 
Q 24.75 34.625 20.71875 30.859375 
Q 16.703125 27.09375 16.703125 20.515625 
Q 16.703125 13.921875 20.71875 10.15625 
Q 24.75 6.390625 31.78125 6.390625 
Q 38.8125 6.390625 42.859375 10.171875 
Q 46.921875 13.96875 46.921875 20.515625 
Q 46.921875 27.09375 42.890625 30.859375 
Q 38.875 34.625 31.78125 34.625 
z
M 21.921875 38.8125 
Q 15.578125 40.375 12.03125 44.71875 
Q 8.5 49.078125 8.5 55.328125 
Q 8.5 64.0625 14.71875 69.140625 
Q 20.953125 74.21875 31.78125 74.21875 
Q 42.671875 74.21875 48.875 69.140625 
Q 55.078125 64.0625 55.078125 55.328125 
Q 55.078125 49.078125 51.53125 44.71875 
Q 48 40.375 41.703125 38.8125 
Q 48.828125 37.15625 52.796875 32.3125 
Q 56.78125 27.484375 56.78125 20.515625 
Q 56.78125 9.90625 50.3125 4.234375 
Q 43.84375 -1.421875 31.78125 -1.421875 
Q 19.734375 -1.421875 13.25 4.234375 
Q 6.78125 9.90625 6.78125 20.515625 
Q 6.78125 27.484375 10.78125 32.3125 
Q 14.796875 37.15625 21.921875 38.8125 
z
M 18.3125 54.390625 
Q 18.3125 48.734375 21.84375 45.5625 
Q 25.390625 42.390625 31.78125 42.390625 
Q 38.140625 42.390625 41.71875 45.5625 
Q 45.3125 48.734375 45.3125 54.390625 
Q 45.3125 60.0625 41.71875 63.234375 
Q 38.140625 66.40625 31.78125 66.40625 
Q 25.390625 66.40625 21.84375 63.234375 
Q 18.3125 60.0625 18.3125 54.390625 
z
" id="DejaVuSans-56"/>
       </defs>
       <use xlink:href="#DejaVuSans-56"/>
       <use x="63.623047" xlink:href="#DejaVuSans-48"/>
      </g>
     </g>
    </g>
   </g>
   <g id="matplotlib.axis_2">
    <g id="ytick_1">
     <g id="line2d_6">
      <defs>
       <path d="M 0 0 
L -3.5 0 
" id="m169b5ec88a" style="stroke:#000000;stroke-width:0.8;"/>
      </defs>
      <g>
       <use style="stroke:#000000;stroke-width:0.8;" x="57.6" xlink:href="#m169b5ec88a" y="281.092095"/>
      </g>
     </g>
     <g id="text_6">
      <!-- 10 -->
      <g transform="translate(37.875 284.891313)scale(0.1 -0.1)">
       <defs>
        <path d="M 12.40625 8.296875 
L 28.515625 8.296875 
L 28.515625 63.921875 
L 10.984375 60.40625 
L 10.984375 69.390625 
L 28.421875 72.90625 
L 38.28125 72.90625 
L 38.28125 8.296875 
L 54.390625 8.296875 
L 54.390625 0 
L 12.40625 0 
z
" id="DejaVuSans-49"/>
       </defs>
       <use xlink:href="#DejaVuSans-49"/>
       <use x="63.623047" xlink:href="#DejaVuSans-48"/>
      </g>
     </g>
    </g>
    <g id="ytick_2">
     <g id="line2d_7">
      <g>
       <use style="stroke:#000000;stroke-width:0.8;" x="57.6" xlink:href="#m169b5ec88a" y="247.464522"/>
      </g>
     </g>
     <g id="text_7">
      <!-- 20 -->
      <g transform="translate(37.875 251.263741)scale(0.1 -0.1)">
       <use xlink:href="#DejaVuSans-50"/>
       <use x="63.623047" xlink:href="#DejaVuSans-48"/>
      </g>
     </g>
    </g>
    <g id="ytick_3">
     <g id="line2d_8">
      <g>
       <use style="stroke:#000000;stroke-width:0.8;" x="57.6" xlink:href="#m169b5ec88a" y="213.83695"/>
      </g>
     </g>
     <g id="text_8">
      <!-- 30 -->
      <g transform="translate(37.875 217.636169)scale(0.1 -0.1)">
       <defs>
        <path d="M 40.578125 39.3125 
Q 47.65625 37.796875 51.625 33 
Q 55.609375 28.21875 55.609375 21.1875 
Q 55.609375 10.40625 48.1875 4.484375 
Q 40.765625 -1.421875 27.09375 -1.421875 
Q 22.515625 -1.421875 17.65625 -0.515625 
Q 12.796875 0.390625 7.625 2.203125 
L 7.625 11.71875 
Q 11.71875 9.328125 16.59375 8.109375 
Q 21.484375 6.890625 26.8125 6.890625 
Q 36.078125 6.890625 40.9375 10.546875 
Q 45.796875 14.203125 45.796875 21.1875 
Q 45.796875 27.640625 41.28125 31.265625 
Q 36.765625 34.90625 28.71875 34.90625 
L 20.21875 34.90625 
L 20.21875 43.015625 
L 29.109375 43.015625 
Q 36.375 43.015625 40.234375 45.921875 
Q 44.09375 48.828125 44.09375 54.296875 
Q 44.09375 59.90625 40.109375 62.90625 
Q 36.140625 65.921875 28.71875 65.921875 
Q 24.65625 65.921875 20.015625 65.03125 
Q 15.375 64.15625 9.8125 62.3125 
L 9.8125 71.09375 
Q 15.4375 72.65625 20.34375 73.4375 
Q 25.25 74.21875 29.59375 74.21875 
Q 40.828125 74.21875 47.359375 69.109375 
Q 53.90625 64.015625 53.90625 55.328125 
Q 53.90625 49.265625 50.4375 45.09375 
Q 46.96875 40.921875 40.578125 39.3125 
z
" id="DejaVuSans-51"/>
       </defs>
       <use xlink:href="#DejaVuSans-51"/>
       <use x="63.623047" xlink:href="#DejaVuSans-48"/>
      </g>
     </g>
    </g>
    <g id="ytick_4">
     <g id="line2d_9">
      <g>
       <use style="stroke:#000000;stroke-width:0.8;" x="57.6" xlink:href="#m169b5ec88a" y="180.209378"/>
      </g>
     </g>
     <g id="text_9">
      <!-- 40 -->
      <g transform="translate(37.875 184.008597)scale(0.1 -0.1)">
       <use xlink:href="#DejaVuSans-52"/>
       <use x="63.623047" xlink:href="#DejaVuSans-48"/>
      </g>
     </g>
    </g>
    <g id="ytick_5">
     <g id="line2d_10">
      <g>
       <use style="stroke:#000000;stroke-width:0.8;" x="57.6" xlink:href="#m169b5ec88a" y="146.581805"/>
      </g>
     </g>
     <g id="text_10">
      <!-- 50 -->
      <g transform="translate(37.875 150.381024)scale(0.1 -0.1)">
       <defs>
        <path d="M 10.796875 72.90625 
L 49.515625 72.90625 
L 49.515625 64.59375 
L 19.828125 64.59375 
L 19.828125 46.734375 
Q 21.96875 47.46875 24.109375 47.828125 
Q 26.265625 48.1875 28.421875 48.1875 
Q 40.625 48.1875 47.75 41.5 
Q 54.890625 34.8125 54.890625 23.390625 
Q 54.890625 11.625 47.5625 5.09375 
Q 40.234375 -1.421875 26.90625 -1.421875 
Q 22.3125 -1.421875 17.546875 -0.640625 
Q 12.796875 0.140625 7.71875 1.703125 
L 7.71875 11.625 
Q 12.109375 9.234375 16.796875 8.0625 
Q 21.484375 6.890625 26.703125 6.890625 
Q 35.15625 6.890625 40.078125 11.328125 
Q 45.015625 15.765625 45.015625 23.390625 
Q 45.015625 31 40.078125 35.4375 
Q 35.15625 39.890625 26.703125 39.890625 
Q 22.75 39.890625 18.8125 39.015625 
Q 14.890625 38.140625 10.796875 36.28125 
z
" id="DejaVuSans-53"/>
       </defs>
       <use xlink:href="#DejaVuSans-53"/>
       <use x="63.623047" xlink:href="#DejaVuSans-48"/>
      </g>
     </g>
    </g>
    <g id="ytick_6">
     <g id="line2d_11">
      <g>
       <use style="stroke:#000000;stroke-width:0.8;" x="57.6" xlink:href="#m169b5ec88a" y="112.954233"/>
      </g>
     </g>
     <g id="text_11">
      <!-- 60 -->
      <g transform="translate(37.875 116.753452)scale(0.1 -0.1)">
       <use xlink:href="#DejaVuSans-54"/>
       <use x="63.623047" xlink:href="#DejaVuSans-48"/>
      </g>
     </g>
    </g>
    <g id="ytick_7">
     <g id="line2d_12">
      <g>
       <use style="stroke:#000000;stroke-width:0.8;" x="57.6" xlink:href="#m169b5ec88a" y="79.326661"/>
      </g>
     </g>
     <g id="text_12">
      <!-- 70 -->
      <g transform="translate(37.875 83.12588)scale(0.1 -0.1)">
       <defs>
        <path d="M 8.203125 72.90625 
L 55.078125 72.90625 
L 55.078125 68.703125 
L 28.609375 0 
L 18.3125 0 
L 43.21875 64.59375 
L 8.203125 64.59375 
z
" id="DejaVuSans-55"/>
       </defs>
       <use xlink:href="#DejaVuSans-55"/>
       <use x="63.623047" xlink:href="#DejaVuSans-48"/>
      </g>
     </g>
    </g>
    <g id="ytick_8">
     <g id="line2d_13">
      <g>
       <use style="stroke:#000000;stroke-width:0.8;" x="57.6" xlink:href="#m169b5ec88a" y="45.699089"/>
      </g>
     </g>
     <g id="text_13">
      <!-- 80 -->
      <g transform="translate(37.875 49.498307)scale(0.1 -0.1)">
       <use xlink:href="#DejaVuSans-56"/>
       <use x="63.623047" xlink:href="#DejaVuSans-48"/>
      </g>
     </g>
    </g>
   </g>
   <g id="line2d_14">
    <path clip-path="url(#pa4231970c1)" d="M 127.457831 165.924385 
L 127.017309 152.749102 
L 126.950054 145.973146 
L 127.081202 139.136661 
L 127.484733 132.296813 
L 128.234628 125.50068 
L 128.76258 122.137923 
L 129.404867 118.805431 
L 130.168213 115.506566 
L 131.066069 112.25478 
L 132.105161 109.053435 
L 133.295577 105.905894 
L 134.644043 102.822246 
L 136.160646 99.809215 
L 137.855476 96.870165 
L 139.718444 94.02191 
L 141.742823 91.271175 
L 143.915165 88.628047 
L 146.235467 86.112705 
L 148.69028 83.72851 
L 151.269515 81.488914 
L 153.963083 79.41073 
L 156.770985 77.497321 
L 159.673045 75.765501 
L 162.669262 74.225358 
L 165.749547 72.863442 
L 168.897088 71.676388 
L 172.111884 70.647385 
L 175.380484 69.773068 
L 178.696163 69.036624 
L 182.045469 68.431327 
L 188.814699 67.570462 
L 195.62092 67.109764 
L 202.410327 67.029058 
L 209.15938 67.372059 
L 212.512049 67.71506 
L 215.847904 68.182483 
L 219.16022 68.774329 
L 222.445634 69.500684 
L 225.704146 70.368276 
L 228.92903 71.37374 
L 232.116924 72.523803 
L 235.257739 73.808376 
L 238.34475 75.22746 
L 241.371232 76.777691 
L 244.323733 78.455707 
L 247.202253 80.254782 
L 249.993341 82.174916 
L 252.690273 84.209384 
L 255.286321 86.354824 
L 257.778124 88.611234 
L 260.17577 90.961801 
L 264.739032 95.891603 
L 269.093802 101.033259 
L 279.773919 114.087482 
L 286.42209 121.683951 
L 295.488084 131.61081 
L 306.81385 144.039561 
L 313.428394 151.666294 
L 317.695733 156.865117 
L 321.81511 162.184999 
L 325.749536 167.646117 
L 329.46202 173.265284 
L 332.908846 179.052589 
L 336.046299 185.024846 
L 338.830662 191.18878 
L 340.078245 194.349772 
L 341.214857 197.55448 
L 342.233772 200.802903 
L 343.128265 204.084954 
L 343.884886 207.393907 
L 344.496908 210.729762 
L 344.957605 214.082431 
L 345.250165 217.445189 
L 345.371225 220.814671 
L 345.314058 224.187517 
L 345.061851 227.553637 
L 344.628055 230.902943 
L 344.005945 234.232073 
L 343.202246 237.527575 
L 342.223684 240.782724 
L 341.073621 243.987431 
L 339.752057 247.134972 
L 338.262356 250.211895 
L 336.611242 253.214837 
L 334.802079 256.130348 
L 332.834866 258.948338 
L 330.719691 261.662083 
L 328.463281 264.254769 
L 326.072361 266.716307 
L 323.550293 269.029884 
L 320.907166 271.188775 
L 318.149705 273.176164 
L 315.281273 274.978602 
L 312.311958 276.589363 
L 309.248486 277.98827 
L 306.097583 279.17196 
L 302.865973 280.143797 
L 299.573834 280.907143 
L 296.231253 281.472086 
L 292.848319 281.845352 
L 289.435121 282.037029 
L 286.008471 282.047118 
L 282.581822 281.889068 
L 279.161897 281.569606 
L 275.765513 281.092095 
L 272.399393 280.466622 
L 269.076989 279.689825 
L 265.801663 278.765067 
L 262.580142 277.685622 
L 259.422513 276.458215 
L 256.332139 275.076122 
L 253.315745 273.539342 
L 250.383421 271.847875 
L 247.541891 269.998359 
L 244.791156 267.994155 
L 242.148029 265.831902 
L 239.619235 263.521688 
L 237.221589 261.070238 
L 234.961816 258.487641 
L 232.860093 255.783984 
L 230.923145 252.965993 
L 229.167786 250.040394 
L 227.607466 247.017276 
L 226.252275 243.910088 
L 225.119026 240.722194 
L 224.214444 237.463682 
L 223.535167 234.151366 
L 223.081195 230.791972 
L 222.842439 227.39895 
L 222.8189 223.989114 
L 223.000489 220.572553 
L 223.387206 217.162717 
L 223.968963 213.773058 
L 224.742397 210.413663 
L 225.704146 207.101347 
L 226.847483 203.842836 
L 228.169047 200.654942 
L 229.662111 197.551117 
L 231.323313 194.544812 
L 233.142565 191.642752 
L 235.123229 188.865115 
L 237.251854 186.221988 
L 239.528441 183.723459 
L 241.949626 181.38298 
L 244.501959 179.217364 
L 244.501959 179.217364 
" style="fill:none;stroke:#fea952;stroke-linecap:square;"/>
   </g>
   <g id="line2d_15">
    <path clip-path="url(#pa4231970c1)" d="M 114.01676 166.441887 
L 113.567985 152.963221 
L 113.499678 145.84063 
L 113.645101 138.503132 
L 114.09495 131.014672 
L 114.463762 127.221945 
L 114.946373 123.414424 
L 115.55463 119.592294 
L 116.300106 115.773035 
L 117.20235 111.92654 
L 118.272103 108.102116 
L 119.523877 104.295129 
L 120.971393 100.516583 
L 122.629211 96.774602 
L 124.508227 93.089743 
L 126.598544 89.507308 
L 128.884956 86.049099 
L 131.351176 82.730457 
L 134.028262 79.507777 
L 136.863954 76.463616 
L 139.871216 73.57202 
L 143.052865 70.839179 
L 146.388515 68.295151 
L 149.878064 65.946658 
L 153.523671 63.802417 
L 157.229968 61.923153 
L 161.003007 60.277714 
L 164.796568 58.865615 
L 168.636072 57.653197 
L 172.463956 56.642034 
L 176.304005 55.800017 
L 180.13578 55.116551 
L 183.937714 54.57817 
L 191.487852 53.863508 
L 199.057297 53.568 
L 202.878022 53.586162 
L 206.691569 53.725755 
L 210.528368 53.990876 
L 214.378586 54.394166 
L 218.213865 54.941169 
L 222.063923 55.640453 
L 225.906452 56.502495 
L 229.707864 57.52692 
L 233.493662 58.720902 
L 237.208887 60.07382 
L 240.875923 61.58683 
L 244.477007 63.255592 
L 248.01754 65.083386 
L 251.452764 67.049257 
L 254.826048 69.172908 
L 258.09392 71.436629 
L 261.259066 73.840876 
L 264.315023 76.38423 
L 267.19467 79.006087 
L 269.913287 81.682203 
L 274.935676 87.118996 
L 279.521024 92.536011 
L 292.076032 107.770395 
L 298.610113 115.114922 
L 319.202831 137.746002 
L 326.02536 145.78077 
L 330.47974 151.360391 
L 334.79642 157.139122 
L 338.93633 163.141063 
L 342.870493 169.407159 
L 346.515523 175.930099 
L 348.215827 179.294859 
L 349.829575 182.737863 
L 351.342446 186.250619 
L 352.755544 189.853521 
L 354.049332 193.528759 
L 355.211452 197.265953 
L 356.240867 201.086646 
L 357.115091 204.966591 
L 357.822715 208.898633 
L 358.358016 212.916596 
L 358.692521 216.96223 
L 358.820322 221.042622 
L 358.727489 225.192519 
L 358.40146 229.281357 
L 357.850207 233.373749 
L 357.073968 237.41907 
L 356.083796 241.400024 
L 354.884154 245.326145 
L 353.475796 249.194755 
L 351.858786 252.996481 
L 350.049197 256.692678 
L 348.040591 260.307098 
L 345.831475 263.829867 
L 343.443965 267.217388 
L 340.866228 270.492597 
L 338.111992 273.626672 
L 335.165143 276.628497 
L 332.059329 279.447489 
L 328.771923 282.100959 
L 325.306319 284.565328 
L 321.695103 286.802009 
L 317.899276 288.825051 
L 313.978821 290.580097 
L 309.971315 292.053124 
L 305.904249 293.247196 
L 301.815456 294.170073 
L 297.70646 294.841976 
L 293.602509 295.275221 
L 289.474721 295.488 
L 285.38872 295.483862 
L 281.33078 295.281793 
L 277.289181 294.889633 
L 273.308183 294.316757 
L 269.337054 293.564418 
L 265.422098 292.634783 
L 261.52811 291.519161 
L 257.706799 290.222795 
L 253.931034 288.737215 
L 250.22597 287.061316 
L 246.594735 285.190874 
L 243.045734 283.12123 
L 239.620897 280.86979 
L 236.274177 278.405267 
L 233.075594 275.762719 
L 230.002979 272.926888 
L 227.098658 269.927803 
L 224.342084 266.74303 
L 221.77511 263.403256 
L 219.388983 259.88649 
L 217.214924 256.209614 
L 215.278091 252.394698 
L 213.578237 248.415521 
L 212.158144 244.32021 
L 211.037645 240.165929 
L 210.2053 235.9527 
L 209.663344 231.736142 
L 209.391731 227.491805 
L 209.38683 223.275205 
L 209.63514 219.056759 
L 210.130011 214.887425 
L 210.860853 210.755174 
L 211.824866 206.662989 
L 213.011755 202.647877 
L 214.421862 198.691708 
L 216.047557 194.824019 
L 217.888918 191.045572 
L 219.926519 187.400356 
L 222.190745 183.833283 
L 224.647102 180.428234 
L 227.309199 177.162529 
L 230.179678 174.052326 
L 233.247114 171.126448 
L 235.799446 168.960832 
L 235.799446 168.960832 
" style="fill:none;stroke:#ffffff;stroke-linecap:square;"/>
   </g>
   <g id="line2d_16">
    <path clip-path="url(#pa4231970c1)" d="M 140.898901 165.406883 
L 140.466634 152.534984 
L 140.40043 146.105662 
L 140.517303 139.77019 
L 140.874516 133.578954 
L 141.522882 127.586936 
L 142.509628 121.837827 
L 143.134076 119.086592 
L 143.860035 116.407443 
L 144.686445 113.811741 
L 145.619761 111.295205 
L 146.658875 108.86989 
L 147.813065 106.528688 
L 149.112408 104.233023 
L 150.551931 101.994721 
L 152.13447 99.811892 
L 153.802067 97.748318 
L 155.60698 95.761794 
L 157.509344 93.885 
L 159.486164 92.138649 
L 161.537651 90.526309 
L 163.663907 89.047984 
L 165.822419 87.728585 
L 168.108556 86.527564 
L 170.496088 85.449169 
L 172.997608 84.487162 
L 175.587695 83.641572 
L 178.297012 82.904101 
L 181.08832 82.273231 
L 186.90564 81.316011 
L 192.947766 80.725923 
L 198.977312 80.469939 
L 204.894952 80.567753 
L 210.645513 81.035954 
L 216.256518 81.908204 
L 218.984816 82.498873 
L 221.700428 83.209632 
L 224.364398 84.026578 
L 227.024961 84.973787 
L 229.639556 86.029923 
L 232.212494 87.199327 
L 234.724924 88.471996 
L 237.194702 89.862156 
L 239.578458 91.336656 
L 241.892763 92.913203 
L 244.121479 94.577893 
L 246.25762 96.325417 
L 248.361578 98.21638 
L 252.489954 102.386131 
L 256.603745 107.057714 
L 262.881478 114.729137 
L 269.564931 122.84572 
L 276.432057 130.691138 
L 285.594422 140.723748 
L 296.735999 152.948382 
L 303.082907 160.262869 
L 307.128279 165.187323 
L 310.975825 170.149926 
L 314.60534 175.178519 
L 317.99713 180.299947 
L 321.091544 185.477661 
L 323.87677 190.754833 
L 326.318878 196.126942 
L 328.380381 201.5802 
L 330.015664 207.083262 
L 330.654681 209.821223 
L 331.1711 212.560891 
L 331.557195 215.248267 
L 331.807809 217.928147 
L 331.922127 220.58672 
L 331.900626 223.182514 
L 331.722242 225.825916 
L 331.405903 228.432137 
L 330.937922 231.045075 
L 330.320697 233.655125 
L 329.563214 236.239302 
L 328.671445 238.780108 
L 327.645328 241.273463 
L 326.475514 243.731112 
L 325.181893 246.122577 
L 323.772682 248.430829 
L 322.225766 250.679288 
L 320.573155 252.83157 
L 318.814571 254.882866 
L 316.979579 256.804118 
L 315.041257 258.61228 
L 313.042408 260.27659 
L 310.993091 261.787 
L 308.867443 263.155195 
L 306.724641 264.353675 
L 304.518152 265.396442 
L 302.223851 266.290796 
L 299.827698 267.040398 
L 297.332212 267.644213 
L 294.756047 268.102197 
L 292.09413 268.415483 
L 289.39552 268.586059 
L 286.628223 268.610374 
L 283.832863 268.496343 
L 281.034614 268.249579 
L 278.222843 267.867432 
L 275.461732 267.368826 
L 272.731879 266.744866 
L 270.075217 266.010972 
L 267.453484 265.148448 
L 264.913991 264.179215 
L 262.438308 263.090928 
L 260.036755 261.88781 
L 257.721108 260.57452 
L 255.462886 259.126927 
L 253.308134 257.583043 
L 251.220463 255.901086 
L 249.235492 254.116488 
L 247.34452 252.212674 
L 245.581549 250.232251 
L 243.945077 248.164711 
L 242.457307 246.045496 
L 241.120648 243.871175 
L 239.936842 241.639853 
L 238.926314 239.404654 
L 238.079908 237.124178 
L 237.391244 234.761435 
L 236.865035 232.350033 
L 236.499046 229.847802 
L 236.293148 227.306095 
L 236.25097 224.703023 
L 236.365838 222.088347 
L 236.644401 219.438009 
L 237.077074 216.790941 
L 237.659929 214.164337 
L 238.396536 211.554818 
L 239.273104 208.993963 
L 240.290537 206.485864 
L 241.435304 204.056662 
L 242.720108 201.689268 
L 244.094385 199.452222 
L 245.599355 197.301995 
L 247.194509 195.281446 
L 248.877203 193.394592 
L 250.652138 191.639512 
L 253.204471 189.473897 
L 253.204471 189.473897 
" style="fill:none;stroke:#ffffff;stroke-linecap:square;"/>
   </g>
   <g id="patch_3">
    <path d="M 57.6 307.584 
L 57.6 41.472 
" style="fill:none;stroke:#000000;stroke-linecap:square;stroke-linejoin:miter;stroke-width:0.8;"/>
   </g>
   <g id="patch_4">
    <path d="M 414.72 307.584 
L 414.72 41.472 
" style="fill:none;stroke:#000000;stroke-linecap:square;stroke-linejoin:miter;stroke-width:0.8;"/>
   </g>
   <g id="patch_5">
    <path d="M 57.6 307.584 
L 414.72 307.584 
" style="fill:none;stroke:#000000;stroke-linecap:square;stroke-linejoin:miter;stroke-width:0.8;"/>
   </g>
   <g id="patch_6">
    <path d="M 57.6 41.472 
L 414.72 41.472 
" style="fill:none;stroke:#000000;stroke-linecap:square;stroke-linejoin:miter;stroke-width:0.8;"/>
   </g>
  </g>
 </g>
 <defs>
  <clipPath id="pa4231970c1">
   <rect height="266.112" width="357.12" x="57.6" y="41.472"/>
  </clipPath>
 </defs>
</svg>
