<?xml version="1.0" encoding="utf-8" standalone="no"?>
<!DOCTYPE svg PUBLIC "-//W3C//DTD SVG 1.1//EN"
  "http://www.w3.org/Graphics/SVG/1.1/DTD/svg11.dtd">
<!-- Created with matplotlib (https://matplotlib.org/) -->
<svg height="345.6pt" version="1.1" viewBox="0 0 460.8 345.6" width="460.8pt" xmlns="http://www.w3.org/2000/svg" xmlns:xlink="http://www.w3.org/1999/xlink">
 <metadata>
  <rdf:RDF xmlns:cc="http://creativecommons.org/ns#" xmlns:dc="http://purl.org/dc/elements/1.1/" xmlns:rdf="http://www.w3.org/1999/02/22-rdf-syntax-ns#">
   <cc:Work>
    <dc:type rdf:resource="http://purl.org/dc/dcmitype/StillImage"/>
    <dc:date>2021-01-22T09:42:31.352763</dc:date>
    <dc:format>image/svg+xml</dc:format>
    <dc:creator>
     <cc:Agent>
      <dc:title>Matplotlib v3.3.3, https://matplotlib.org/</dc:title>
     </cc:Agent>
    </dc:creator>
   </cc:Work>
  </rdf:RDF>
 </metadata>
 <defs>
  <style type="text/css">*{stroke-linecap:butt;stroke-linejoin:round;}</style>
 </defs>
 <g id="figure_1">
  <g id="patch_1">
   <path d="M 0 345.6 
L 460.8 345.6 
L 460.8 0 
L 0 0 
z
" style="fill:#ffffff;"/>
  </g>
  <g id="axes_1">
   <g id="patch_2">
    <path d="M 57.6 307.584 
L 414.72 307.584 
L 414.72 41.472 
L 57.6 41.472 
z
" style="fill:#7d9051;"/>
   </g>
   <g id="matplotlib.axis_1">
    <g id="xtick_1">
     <g id="line2d_1">
      <defs>
       <path d="M 0 0 
L 0 3.5 
" id="mf4674c7b50" style="stroke:#000000;stroke-width:0.8;"/>
      </defs>
      <g>
       <use style="stroke:#000000;stroke-width:0.8;" x="69.918527" xlink:href="#mf4674c7b50" y="307.584"/>
      </g>
     </g>
     <g id="text_1">
      <!-- −20 -->
      <g transform="translate(59.366183 322.182437)scale(0.1 -0.1)">
       <defs>
        <path d="M 10.59375 35.5 
L 73.1875 35.5 
L 73.1875 27.203125 
L 10.59375 27.203125 
z
" id="DejaVuSans-8722"/>
        <path d="M 19.1875 8.296875 
L 53.609375 8.296875 
L 53.609375 0 
L 7.328125 0 
L 7.328125 8.296875 
Q 12.9375 14.109375 22.625 23.890625 
Q 32.328125 33.6875 34.8125 36.53125 
Q 39.546875 41.84375 41.421875 45.53125 
Q 43.3125 49.21875 43.3125 52.78125 
Q 43.3125 58.59375 39.234375 62.25 
Q 35.15625 65.921875 28.609375 65.921875 
Q 23.96875 65.921875 18.8125 64.3125 
Q 13.671875 62.703125 7.8125 59.421875 
L 7.8125 69.390625 
Q 13.765625 71.78125 18.9375 73 
Q 24.125 74.21875 28.421875 74.21875 
Q 39.75 74.21875 46.484375 68.546875 
Q 53.21875 62.890625 53.21875 53.421875 
Q 53.21875 48.921875 51.53125 44.890625 
Q 49.859375 40.875 45.40625 35.40625 
Q 44.1875 33.984375 37.640625 27.21875 
Q 31.109375 20.453125 19.1875 8.296875 
z
" id="DejaVuSans-50"/>
        <path d="M 31.78125 66.40625 
Q 24.171875 66.40625 20.328125 58.90625 
Q 16.5 51.421875 16.5 36.375 
Q 16.5 21.390625 20.328125 13.890625 
Q 24.171875 6.390625 31.78125 6.390625 
Q 39.453125 6.390625 43.28125 13.890625 
Q 47.125 21.390625 47.125 36.375 
Q 47.125 51.421875 43.28125 58.90625 
Q 39.453125 66.40625 31.78125 66.40625 
z
M 31.78125 74.21875 
Q 44.046875 74.21875 50.515625 64.515625 
Q 56.984375 54.828125 56.984375 36.375 
Q 56.984375 17.96875 50.515625 8.265625 
Q 44.046875 -1.421875 31.78125 -1.421875 
Q 19.53125 -1.421875 13.0625 8.265625 
Q 6.59375 17.96875 6.59375 36.375 
Q 6.59375 54.828125 13.0625 64.515625 
Q 19.53125 74.21875 31.78125 74.21875 
z
" id="DejaVuSans-48"/>
       </defs>
       <use xlink:href="#DejaVuSans-8722"/>
       <use x="83.789062" xlink:href="#DejaVuSans-50"/>
       <use x="147.412109" xlink:href="#DejaVuSans-48"/>
      </g>
     </g>
    </g>
    <g id="xtick_2">
     <g id="line2d_2">
      <g>
       <use style="stroke:#000000;stroke-width:0.8;" x="118.181236" xlink:href="#mf4674c7b50" y="307.584"/>
      </g>
     </g>
     <g id="text_2">
      <!-- 0 -->
      <g transform="translate(114.999986 322.182437)scale(0.1 -0.1)">
       <use xlink:href="#DejaVuSans-48"/>
      </g>
     </g>
    </g>
    <g id="xtick_3">
     <g id="line2d_3">
      <g>
       <use style="stroke:#000000;stroke-width:0.8;" x="166.443946" xlink:href="#mf4674c7b50" y="307.584"/>
      </g>
     </g>
     <g id="text_3">
      <!-- 20 -->
      <g transform="translate(160.081446 322.182437)scale(0.1 -0.1)">
       <use xlink:href="#DejaVuSans-50"/>
       <use x="63.623047" xlink:href="#DejaVuSans-48"/>
      </g>
     </g>
    </g>
    <g id="xtick_4">
     <g id="line2d_4">
      <g>
       <use style="stroke:#000000;stroke-width:0.8;" x="214.706655" xlink:href="#mf4674c7b50" y="307.584"/>
      </g>
     </g>
     <g id="text_4">
      <!-- 40 -->
      <g transform="translate(208.344155 322.182437)scale(0.1 -0.1)">
       <defs>
        <path d="M 37.796875 64.3125 
L 12.890625 25.390625 
L 37.796875 25.390625 
z
M 35.203125 72.90625 
L 47.609375 72.90625 
L 47.609375 25.390625 
L 58.015625 25.390625 
L 58.015625 17.1875 
L 47.609375 17.1875 
L 47.609375 0 
L 37.796875 0 
L 37.796875 17.1875 
L 4.890625 17.1875 
L 4.890625 26.703125 
z
" id="DejaVuSans-52"/>
       </defs>
       <use xlink:href="#DejaVuSans-52"/>
       <use x="63.623047" xlink:href="#DejaVuSans-48"/>
      </g>
     </g>
    </g>
    <g id="xtick_5">
     <g id="line2d_5">
      <g>
       <use style="stroke:#000000;stroke-width:0.8;" x="262.969365" xlink:href="#mf4674c7b50" y="307.584"/>
      </g>
     </g>
     <g id="text_5">
      <!-- 60 -->
      <g transform="translate(256.606865 322.182437)scale(0.1 -0.1)">
       <defs>
        <path d="M 33.015625 40.375 
Q 26.375 40.375 22.484375 35.828125 
Q 18.609375 31.296875 18.609375 23.390625 
Q 18.609375 15.53125 22.484375 10.953125 
Q 26.375 6.390625 33.015625 6.390625 
Q 39.65625 6.390625 43.53125 10.953125 
Q 47.40625 15.53125 47.40625 23.390625 
Q 47.40625 31.296875 43.53125 35.828125 
Q 39.65625 40.375 33.015625 40.375 
z
M 52.59375 71.296875 
L 52.59375 62.3125 
Q 48.875 64.0625 45.09375 64.984375 
Q 41.3125 65.921875 37.59375 65.921875 
Q 27.828125 65.921875 22.671875 59.328125 
Q 17.53125 52.734375 16.796875 39.40625 
Q 19.671875 43.65625 24.015625 45.921875 
Q 28.375 48.1875 33.59375 48.1875 
Q 44.578125 48.1875 50.953125 41.515625 
Q 57.328125 34.859375 57.328125 23.390625 
Q 57.328125 12.15625 50.6875 5.359375 
Q 44.046875 -1.421875 33.015625 -1.421875 
Q 20.359375 -1.421875 13.671875 8.265625 
Q 6.984375 17.96875 6.984375 36.375 
Q 6.984375 53.65625 15.1875 63.9375 
Q 23.390625 74.21875 37.203125 74.21875 
Q 40.921875 74.21875 44.703125 73.484375 
Q 48.484375 72.75 52.59375 71.296875 
z
" id="DejaVuSans-54"/>
       </defs>
       <use xlink:href="#DejaVuSans-54"/>
       <use x="63.623047" xlink:href="#DejaVuSans-48"/>
      </g>
     </g>
    </g>
    <g id="xtick_6">
     <g id="line2d_6">
      <g>
       <use style="stroke:#000000;stroke-width:0.8;" x="311.232074" xlink:href="#mf4674c7b50" y="307.584"/>
      </g>
     </g>
     <g id="text_6">
      <!-- 80 -->
      <g transform="translate(304.869574 322.182437)scale(0.1 -0.1)">
       <defs>
        <path d="M 31.78125 34.625 
Q 24.75 34.625 20.71875 30.859375 
Q 16.703125 27.09375 16.703125 20.515625 
Q 16.703125 13.921875 20.71875 10.15625 
Q 24.75 6.390625 31.78125 6.390625 
Q 38.8125 6.390625 42.859375 10.171875 
Q 46.921875 13.96875 46.921875 20.515625 
Q 46.921875 27.09375 42.890625 30.859375 
Q 38.875 34.625 31.78125 34.625 
z
M 21.921875 38.8125 
Q 15.578125 40.375 12.03125 44.71875 
Q 8.5 49.078125 8.5 55.328125 
Q 8.5 64.0625 14.71875 69.140625 
Q 20.953125 74.21875 31.78125 74.21875 
Q 42.671875 74.21875 48.875 69.140625 
Q 55.078125 64.0625 55.078125 55.328125 
Q 55.078125 49.078125 51.53125 44.71875 
Q 48 40.375 41.703125 38.8125 
Q 48.828125 37.15625 52.796875 32.3125 
Q 56.78125 27.484375 56.78125 20.515625 
Q 56.78125 9.90625 50.3125 4.234375 
Q 43.84375 -1.421875 31.78125 -1.421875 
Q 19.734375 -1.421875 13.25 4.234375 
Q 6.78125 9.90625 6.78125 20.515625 
Q 6.78125 27.484375 10.78125 32.3125 
Q 14.796875 37.15625 21.921875 38.8125 
z
M 18.3125 54.390625 
Q 18.3125 48.734375 21.84375 45.5625 
Q 25.390625 42.390625 31.78125 42.390625 
Q 38.140625 42.390625 41.71875 45.5625 
Q 45.3125 48.734375 45.3125 54.390625 
Q 45.3125 60.0625 41.71875 63.234375 
Q 38.140625 66.40625 31.78125 66.40625 
Q 25.390625 66.40625 21.84375 63.234375 
Q 18.3125 60.0625 18.3125 54.390625 
z
" id="DejaVuSans-56"/>
       </defs>
       <use xlink:href="#DejaVuSans-56"/>
       <use x="63.623047" xlink:href="#DejaVuSans-48"/>
      </g>
     </g>
    </g>
    <g id="xtick_7">
     <g id="line2d_7">
      <g>
       <use style="stroke:#000000;stroke-width:0.8;" x="359.494784" xlink:href="#mf4674c7b50" y="307.584"/>
      </g>
     </g>
     <g id="text_7">
      <!-- 100 -->
      <g transform="translate(349.951034 322.182437)scale(0.1 -0.1)">
       <defs>
        <path d="M 12.40625 8.296875 
L 28.515625 8.296875 
L 28.515625 63.921875 
L 10.984375 60.40625 
L 10.984375 69.390625 
L 28.421875 72.90625 
L 38.28125 72.90625 
L 38.28125 8.296875 
L 54.390625 8.296875 
L 54.390625 0 
L 12.40625 0 
z
" id="DejaVuSans-49"/>
       </defs>
       <use xlink:href="#DejaVuSans-49"/>
       <use x="63.623047" xlink:href="#DejaVuSans-48"/>
       <use x="127.246094" xlink:href="#DejaVuSans-48"/>
      </g>
     </g>
    </g>
    <g id="xtick_8">
     <g id="line2d_8">
      <g>
       <use style="stroke:#000000;stroke-width:0.8;" x="407.757493" xlink:href="#mf4674c7b50" y="307.584"/>
      </g>
     </g>
     <g id="text_8">
      <!-- 120 -->
      <g transform="translate(398.213743 322.182437)scale(0.1 -0.1)">
       <use xlink:href="#DejaVuSans-49"/>
       <use x="63.623047" xlink:href="#DejaVuSans-50"/>
       <use x="127.246094" xlink:href="#DejaVuSans-48"/>
      </g>
     </g>
    </g>
   </g>
   <g id="matplotlib.axis_2">
    <g id="ytick_1">
     <g id="line2d_9">
      <defs>
       <path d="M 0 0 
L -3.5 0 
" id="m56706cbbed" style="stroke:#000000;stroke-width:0.8;"/>
      </defs>
      <g>
       <use style="stroke:#000000;stroke-width:0.8;" x="57.6" xlink:href="#m56706cbbed" y="262.152149"/>
      </g>
     </g>
     <g id="text_9">
      <!-- 20 -->
      <g transform="translate(37.875 265.951367)scale(0.1 -0.1)">
       <use xlink:href="#DejaVuSans-50"/>
       <use x="63.623047" xlink:href="#DejaVuSans-48"/>
      </g>
     </g>
    </g>
    <g id="ytick_2">
     <g id="line2d_10">
      <g>
       <use style="stroke:#000000;stroke-width:0.8;" x="57.6" xlink:href="#m56706cbbed" y="213.889439"/>
      </g>
     </g>
     <g id="text_10">
      <!-- 40 -->
      <g transform="translate(37.875 217.688658)scale(0.1 -0.1)">
       <use xlink:href="#DejaVuSans-52"/>
       <use x="63.623047" xlink:href="#DejaVuSans-48"/>
      </g>
     </g>
    </g>
    <g id="ytick_3">
     <g id="line2d_11">
      <g>
       <use style="stroke:#000000;stroke-width:0.8;" x="57.6" xlink:href="#m56706cbbed" y="165.62673"/>
      </g>
     </g>
     <g id="text_11">
      <!-- 60 -->
      <g transform="translate(37.875 169.425948)scale(0.1 -0.1)">
       <use xlink:href="#DejaVuSans-54"/>
       <use x="63.623047" xlink:href="#DejaVuSans-48"/>
      </g>
     </g>
    </g>
    <g id="ytick_4">
     <g id="line2d_12">
      <g>
       <use style="stroke:#000000;stroke-width:0.8;" x="57.6" xlink:href="#m56706cbbed" y="117.36402"/>
      </g>
     </g>
     <g id="text_12">
      <!-- 80 -->
      <g transform="translate(37.875 121.163239)scale(0.1 -0.1)">
       <use xlink:href="#DejaVuSans-56"/>
       <use x="63.623047" xlink:href="#DejaVuSans-48"/>
      </g>
     </g>
    </g>
    <g id="ytick_5">
     <g id="line2d_13">
      <g>
       <use style="stroke:#000000;stroke-width:0.8;" x="57.6" xlink:href="#m56706cbbed" y="69.101311"/>
      </g>
     </g>
     <g id="text_13">
      <!-- 100 -->
      <g transform="translate(31.5125 72.900529)scale(0.1 -0.1)">
       <use xlink:href="#DejaVuSans-49"/>
       <use x="63.623047" xlink:href="#DejaVuSans-48"/>
       <use x="127.246094" xlink:href="#DejaVuSans-48"/>
      </g>
     </g>
    </g>
   </g>
   <g id="line2d_14">
    <path clip-path="url(#pc630aed601)" d="M 227.201871 133.696121 
L 226.654089 131.246789 
L 226.236617 128.797456 
L 225.949454 126.34571 
L 225.787774 123.898791 
L 225.74675 121.456698 
L 225.823971 119.024257 
L 226.017021 116.601469 
L 226.733723 111.804156 
L 227.870309 107.084063 
L 229.400237 102.465322 
L 231.296962 97.96965 
L 233.531525 93.618767 
L 236.077383 89.439216 
L 238.910404 85.44789 
L 242.01611 81.67616 
L 245.389673 78.152982 
L 249.031094 74.907315 
L 252.935548 71.975355 
L 257.100619 69.386061 
L 259.272441 68.232582 
L 261.497352 67.180455 
L 263.770526 66.239332 
L 266.084723 65.411627 
L 268.435117 64.704578 
L 270.814468 64.127839 
L 273.220364 63.683822 
L 275.645566 63.379767 
L 278.082832 63.2205 
L 280.527339 63.21326 
L 282.971845 63.353222 
L 285.409112 63.637972 
L 287.827073 64.062684 
L 290.223317 64.622531 
L 292.58819 65.317514 
L 294.909626 66.142807 
L 297.185213 67.095995 
L 299.405297 68.16984 
L 301.560227 69.364342 
L 303.645176 70.677088 
L 305.655318 72.098425 
L 307.581 73.628353 
L 309.41981 75.257219 
L 311.16692 76.985024 
L 312.815091 78.804528 
L 314.359498 80.710905 
L 315.795314 82.701742 
L 317.117712 84.767386 
L 318.31704 86.905424 
L 319.395712 89.113443 
L 320.346487 91.376964 
L 321.166953 93.693574 
L 321.85711 96.053621 
L 322.414544 98.449864 
L 322.83443 100.875066 
L 323.11918 103.317159 
L 323.261555 105.773731 
L 323.259142 108.235129 
L 323.114353 110.691701 
L 322.824777 113.13862 
L 322.392826 115.563821 
L 321.823326 117.962478 
L 321.121104 120.327351 
L 320.288572 122.643961 
L 319.328144 124.912308 
L 318.247059 127.115501 
L 317.047731 129.253539 
L 315.730159 131.311943 
L 314.303996 133.285888 
L 312.771655 135.170547 
L 311.142788 136.975572 
L 307.638916 140.351549 
L 303.862359 143.457254 
L 299.892751 146.328885 
L 295.800073 149.007466 
L 289.562118 152.78161 
L 281.24404 157.747842 
L 277.158601 160.370921 
L 273.169689 163.182223 
L 269.323151 166.213122 
L 265.672077 169.466028 
L 262.271969 172.953009 
L 259.173503 176.67889 
L 256.422528 180.648498 
L 253.96837 184.818396 
L 251.731393 189.135495 
L 247.559082 197.965158 
L 243.299898 206.72484 
L 239.914269 213.167912 
L 236.323523 219.480674 
L 232.50353 225.658301 
L 225.83121 235.79347 
L 214.996232 251.97113 
L 212.044967 255.820081 
L 208.862041 259.475981 
L 205.391952 262.885742 
L 201.649179 266.022818 
L 197.669919 268.867905 
L 193.485542 271.401697 
L 189.137072 273.60489 
L 184.658292 275.470243 
L 180.070922 277.043608 
L 175.401505 278.380485 
L 168.292408 280.084158 
L 149.257595 284.268535 
L 144.60507 285.559563 
L 142.312591 286.283503 
L 142.312591 286.283503 
" style="fill:none;stroke:#fea952;stroke-linecap:square;"/>
   </g>
   <g id="line2d_15">
    <path clip-path="url(#pc630aed601)" d="M 217.782032 135.802824 
L 217.138772 132.868611 
L 216.64961 129.920344 
L 216.317914 126.982114 
L 216.136593 124.060916 
L 216.099069 121.150422 
L 216.201926 118.257561 
L 216.440652 115.391216 
L 216.809103 112.554254 
L 217.304092 109.741724 
L 217.917695 106.976009 
L 218.649179 104.230588 
L 219.488231 101.54465 
L 220.436103 98.885396 
L 222.629449 93.721617 
L 225.200432 88.743887 
L 228.109438 83.990968 
L 231.348939 79.448239 
L 234.914978 75.138156 
L 238.821956 71.079322 
L 240.903097 69.157925 
L 243.071343 67.314362 
L 245.319303 65.561108 
L 247.658325 63.893122 
L 250.073626 62.327446 
L 252.573002 60.861259 
L 255.146017 59.506518 
L 257.805013 58.262036 
L 260.519822 57.150631 
L 263.304121 56.16826 
L 266.16125 55.323688 
L 269.06264 54.635596 
L 272.019595 54.106258 
L 275.016148 53.747768 
L 278.054246 53.568 
L 281.079098 53.576501 
L 284.091949 53.76589 
L 287.079004 54.130973 
L 290.02311 54.66327 
L 292.944893 55.361614 
L 295.821512 56.222615 
L 298.638895 57.239767 
L 301.388248 58.406573 
L 304.084957 59.727545 
L 306.70323 61.196045 
L 309.217948 62.795732 
L 311.65977 64.540771 
L 313.981431 66.402978 
L 316.207164 68.394029 
L 318.320802 70.504783 
L 320.315269 72.728435 
L 322.188365 75.064632 
L 323.924684 77.497426 
L 325.536208 80.045047 
L 326.989979 82.66848 
L 328.295047 85.375343 
L 329.445236 88.154491 
L 330.431481 90.984316 
L 331.258617 93.866563 
L 331.925589 96.803176 
L 332.422016 99.757145 
L 332.755551 102.758666 
L 332.914092 105.783194 
L 332.894961 108.803055 
L 332.700005 111.826097 
L 332.327764 114.831192 
L 331.784296 117.793587 
L 331.076544 120.710117 
L 330.204867 123.591828 
L 329.177202 126.407445 
L 327.993669 129.164395 
L 326.665555 131.83784 
L 325.177445 134.457318 
L 323.554265 136.964812 
L 321.793415 139.375237 
L 319.937752 141.637279 
L 317.992073 143.776959 
L 315.971821 145.798084 
L 311.775818 149.502119 
L 307.448096 152.817002 
L 303.064174 155.816834 
L 296.566157 159.852579 
L 284.480641 167.114208 
L 280.802693 169.576098 
L 277.304357 172.168418 
L 274.008276 174.911372 
L 270.97444 177.785901 
L 268.233138 180.796861 
L 265.806689 183.956601 
L 263.559559 187.472737 
L 261.445584 191.312401 
L 258.370744 197.613431 
L 253.01645 208.885094 
L 249.560104 215.618416 
L 245.878739 222.260517 
L 241.954325 228.776117 
L 236.563041 237.092248 
L 222.729764 257.747292 
L 219.435776 262.028745 
L 215.763673 266.224244 
L 213.789733 268.232024 
L 211.733308 270.16302 
L 207.411708 273.766514 
L 202.818221 277.032864 
L 198.011057 279.927615 
L 193.002973 282.449457 
L 187.917581 284.55587 
L 182.836629 286.291441 
L 177.785366 287.734028 
L 170.333784 289.51837 
L 151.743495 293.595478 
L 147.511753 294.764059 
L 145.219274 295.488 
L 145.219274 295.488 
" style="fill:none;stroke:#ffffff;stroke-linecap:square;"/>
   </g>
   <g id="line2d_16">
    <path clip-path="url(#pc630aed601)" d="M 236.62171 131.589418 
L 235.823623 127.674569 
L 235.438954 123.736666 
L 235.446015 119.790954 
L 235.83305 115.836893 
L 236.587398 111.888079 
L 237.690617 107.975777 
L 239.124586 104.122313 
L 240.875365 100.343719 
L 242.920698 96.673471 
L 245.232142 93.141263 
L 247.769531 89.801855 
L 250.508799 86.691821 
L 253.452516 83.827565 
L 256.579771 81.241928 
L 259.8998 78.944683 
L 263.398866 76.958645 
L 267.021229 75.328033 
L 270.708984 74.085468 
L 274.421134 73.261385 
L 278.111418 72.872999 
L 279.975579 72.850019 
L 281.851741 72.940554 
L 283.73922 73.144971 
L 287.501741 73.883449 
L 291.180357 75.045846 
L 294.725638 76.612136 
L 298.072405 78.558445 
L 301.180569 80.853728 
L 304.013037 83.465266 
L 306.530631 86.357179 
L 308.699216 89.489725 
L 310.496376 92.851544 
L 311.902425 96.402833 
L 312.903499 100.096553 
L 313.482808 103.875652 
L 313.609017 105.764267 
L 313.528702 109.557304 
L 313.32179 111.446048 
L 312.570108 115.214839 
L 311.399941 118.880477 
L 309.828563 122.393161 
L 308.918017 124.049759 
L 306.814577 127.19654 
L 304.293504 130.174185 
L 301.373633 133.008675 
L 298.098264 135.714724 
L 294.52971 138.303341 
L 290.71349 140.803916 
L 284.659686 144.4667 
L 276.102312 149.578742 
L 271.690158 152.416821 
L 267.302369 155.517621 
L 263.021 158.901866 
L 258.88982 162.5978 
L 254.983354 166.624686 
L 253.130287 168.772297 
L 251.362143 171.008421 
L 249.702469 173.310458 
L 246.766184 177.95072 
L 244.213156 182.61012 
L 240.873882 189.455852 
L 235.76482 200.220942 
L 232.570565 206.450984 
L 229.2104 212.52128 
L 225.644442 218.447807 
L 220.485497 226.405862 
L 207.262699 246.194968 
L 204.654158 249.611417 
L 201.960409 252.727719 
L 199.050597 255.608464 
L 195.88665 258.279122 
L 192.521617 260.702946 
L 188.960027 262.875779 
L 185.271171 264.760322 
L 181.399004 266.384617 
L 177.305215 267.795774 
L 173.017644 269.026941 
L 166.251031 270.649947 
L 146.771695 274.941592 
L 141.698387 276.355066 
L 139.405908 277.079007 
L 139.405908 277.079007 
" style="fill:none;stroke:#ffffff;stroke-linecap:square;"/>
   </g>
   <g id="patch_3">
    <path d="M 57.6 307.584 
L 57.6 41.472 
" style="fill:none;stroke:#000000;stroke-linecap:square;stroke-linejoin:miter;stroke-width:0.8;"/>
   </g>
   <g id="patch_4">
    <path d="M 414.72 307.584 
L 414.72 41.472 
" style="fill:none;stroke:#000000;stroke-linecap:square;stroke-linejoin:miter;stroke-width:0.8;"/>
   </g>
   <g id="patch_5">
    <path d="M 57.6 307.584 
L 414.72 307.584 
" style="fill:none;stroke:#000000;stroke-linecap:square;stroke-linejoin:miter;stroke-width:0.8;"/>
   </g>
   <g id="patch_6">
    <path d="M 57.6 41.472 
L 414.72 41.472 
" style="fill:none;stroke:#000000;stroke-linecap:square;stroke-linejoin:miter;stroke-width:0.8;"/>
   </g>
  </g>
 </g>
 <defs>
  <clipPath id="pc630aed601">
   <rect height="266.112" width="357.12" x="57.6" y="41.472"/>
  </clipPath>
 </defs>
</svg>
