<?xml version="1.0" encoding="utf-8" standalone="no"?>
<!DOCTYPE svg PUBLIC "-//W3C//DTD SVG 1.1//EN"
  "http://www.w3.org/Graphics/SVG/1.1/DTD/svg11.dtd">
<!-- Created with matplotlib (https://matplotlib.org/) -->
<svg height="345.6pt" version="1.1" viewBox="0 0 460.8 345.6" width="460.8pt" xmlns="http://www.w3.org/2000/svg" xmlns:xlink="http://www.w3.org/1999/xlink">
 <metadata>
  <rdf:RDF xmlns:cc="http://creativecommons.org/ns#" xmlns:dc="http://purl.org/dc/elements/1.1/" xmlns:rdf="http://www.w3.org/1999/02/22-rdf-syntax-ns#">
   <cc:Work>
    <dc:type rdf:resource="http://purl.org/dc/dcmitype/StillImage"/>
    <dc:date>2021-01-22T09:57:01.276920</dc:date>
    <dc:format>image/svg+xml</dc:format>
    <dc:creator>
     <cc:Agent>
      <dc:title>Matplotlib v3.3.3, https://matplotlib.org/</dc:title>
     </cc:Agent>
    </dc:creator>
   </cc:Work>
  </rdf:RDF>
 </metadata>
 <defs>
  <style type="text/css">*{stroke-linecap:butt;stroke-linejoin:round;}</style>
 </defs>
 <g id="figure_1">
  <g id="patch_1">
   <path d="M 0 345.6 
L 460.8 345.6 
L 460.8 0 
L 0 0 
z
" style="fill:#ffffff;"/>
  </g>
  <g id="axes_1">
   <g id="patch_2">
    <path d="M 57.6 307.584 
L 414.72 307.584 
L 414.72 41.472 
L 57.6 41.472 
z
" style="fill:#7d9051;"/>
   </g>
   <g id="matplotlib.axis_1">
    <g id="xtick_1">
     <g id="line2d_1">
      <defs>
       <path d="M 0 0 
L 0 3.5 
" id="mbdfcaab4c8" style="stroke:#000000;stroke-width:0.8;"/>
      </defs>
      <g>
       <use style="stroke:#000000;stroke-width:0.8;" x="89.068743" xlink:href="#mbdfcaab4c8" y="307.584"/>
      </g>
     </g>
     <g id="text_1">
      <!-- 0 -->
      <g transform="translate(85.887493 322.182437)scale(0.1 -0.1)">
       <defs>
        <path d="M 31.78125 66.40625 
Q 24.171875 66.40625 20.328125 58.90625 
Q 16.5 51.421875 16.5 36.375 
Q 16.5 21.390625 20.328125 13.890625 
Q 24.171875 6.390625 31.78125 6.390625 
Q 39.453125 6.390625 43.28125 13.890625 
Q 47.125 21.390625 47.125 36.375 
Q 47.125 51.421875 43.28125 58.90625 
Q 39.453125 66.40625 31.78125 66.40625 
z
M 31.78125 74.21875 
Q 44.046875 74.21875 50.515625 64.515625 
Q 56.984375 54.828125 56.984375 36.375 
Q 56.984375 17.96875 50.515625 8.265625 
Q 44.046875 -1.421875 31.78125 -1.421875 
Q 19.53125 -1.421875 13.0625 8.265625 
Q 6.59375 17.96875 6.59375 36.375 
Q 6.59375 54.828125 13.0625 64.515625 
Q 19.53125 74.21875 31.78125 74.21875 
z
" id="DejaVuSans-48"/>
       </defs>
       <use xlink:href="#DejaVuSans-48"/>
      </g>
     </g>
    </g>
    <g id="xtick_2">
     <g id="line2d_2">
      <g>
       <use style="stroke:#000000;stroke-width:0.8;" x="148.556457" xlink:href="#mbdfcaab4c8" y="307.584"/>
      </g>
     </g>
     <g id="text_2">
      <!-- 20 -->
      <g transform="translate(142.193957 322.182437)scale(0.1 -0.1)">
       <defs>
        <path d="M 19.1875 8.296875 
L 53.609375 8.296875 
L 53.609375 0 
L 7.328125 0 
L 7.328125 8.296875 
Q 12.9375 14.109375 22.625 23.890625 
Q 32.328125 33.6875 34.8125 36.53125 
Q 39.546875 41.84375 41.421875 45.53125 
Q 43.3125 49.21875 43.3125 52.78125 
Q 43.3125 58.59375 39.234375 62.25 
Q 35.15625 65.921875 28.609375 65.921875 
Q 23.96875 65.921875 18.8125 64.3125 
Q 13.671875 62.703125 7.8125 59.421875 
L 7.8125 69.390625 
Q 13.765625 71.78125 18.9375 73 
Q 24.125 74.21875 28.421875 74.21875 
Q 39.75 74.21875 46.484375 68.546875 
Q 53.21875 62.890625 53.21875 53.421875 
Q 53.21875 48.921875 51.53125 44.890625 
Q 49.859375 40.875 45.40625 35.40625 
Q 44.1875 33.984375 37.640625 27.21875 
Q 31.109375 20.453125 19.1875 8.296875 
z
" id="DejaVuSans-50"/>
       </defs>
       <use xlink:href="#DejaVuSans-50"/>
       <use x="63.623047" xlink:href="#DejaVuSans-48"/>
      </g>
     </g>
    </g>
    <g id="xtick_3">
     <g id="line2d_3">
      <g>
       <use style="stroke:#000000;stroke-width:0.8;" x="208.044171" xlink:href="#mbdfcaab4c8" y="307.584"/>
      </g>
     </g>
     <g id="text_3">
      <!-- 40 -->
      <g transform="translate(201.681671 322.182437)scale(0.1 -0.1)">
       <defs>
        <path d="M 37.796875 64.3125 
L 12.890625 25.390625 
L 37.796875 25.390625 
z
M 35.203125 72.90625 
L 47.609375 72.90625 
L 47.609375 25.390625 
L 58.015625 25.390625 
L 58.015625 17.1875 
L 47.609375 17.1875 
L 47.609375 0 
L 37.796875 0 
L 37.796875 17.1875 
L 4.890625 17.1875 
L 4.890625 26.703125 
z
" id="DejaVuSans-52"/>
       </defs>
       <use xlink:href="#DejaVuSans-52"/>
       <use x="63.623047" xlink:href="#DejaVuSans-48"/>
      </g>
     </g>
    </g>
    <g id="xtick_4">
     <g id="line2d_4">
      <g>
       <use style="stroke:#000000;stroke-width:0.8;" x="267.531885" xlink:href="#mbdfcaab4c8" y="307.584"/>
      </g>
     </g>
     <g id="text_4">
      <!-- 60 -->
      <g transform="translate(261.169385 322.182437)scale(0.1 -0.1)">
       <defs>
        <path d="M 33.015625 40.375 
Q 26.375 40.375 22.484375 35.828125 
Q 18.609375 31.296875 18.609375 23.390625 
Q 18.609375 15.53125 22.484375 10.953125 
Q 26.375 6.390625 33.015625 6.390625 
Q 39.65625 6.390625 43.53125 10.953125 
Q 47.40625 15.53125 47.40625 23.390625 
Q 47.40625 31.296875 43.53125 35.828125 
Q 39.65625 40.375 33.015625 40.375 
z
M 52.59375 71.296875 
L 52.59375 62.3125 
Q 48.875 64.0625 45.09375 64.984375 
Q 41.3125 65.921875 37.59375 65.921875 
Q 27.828125 65.921875 22.671875 59.328125 
Q 17.53125 52.734375 16.796875 39.40625 
Q 19.671875 43.65625 24.015625 45.921875 
Q 28.375 48.1875 33.59375 48.1875 
Q 44.578125 48.1875 50.953125 41.515625 
Q 57.328125 34.859375 57.328125 23.390625 
Q 57.328125 12.15625 50.6875 5.359375 
Q 44.046875 -1.421875 33.015625 -1.421875 
Q 20.359375 -1.421875 13.671875 8.265625 
Q 6.984375 17.96875 6.984375 36.375 
Q 6.984375 53.65625 15.1875 63.9375 
Q 23.390625 74.21875 37.203125 74.21875 
Q 40.921875 74.21875 44.703125 73.484375 
Q 48.484375 72.75 52.59375 71.296875 
z
" id="DejaVuSans-54"/>
       </defs>
       <use xlink:href="#DejaVuSans-54"/>
       <use x="63.623047" xlink:href="#DejaVuSans-48"/>
      </g>
     </g>
    </g>
    <g id="xtick_5">
     <g id="line2d_5">
      <g>
       <use style="stroke:#000000;stroke-width:0.8;" x="327.019599" xlink:href="#mbdfcaab4c8" y="307.584"/>
      </g>
     </g>
     <g id="text_5">
      <!-- 80 -->
      <g transform="translate(320.657099 322.182437)scale(0.1 -0.1)">
       <defs>
        <path d="M 31.78125 34.625 
Q 24.75 34.625 20.71875 30.859375 
Q 16.703125 27.09375 16.703125 20.515625 
Q 16.703125 13.921875 20.71875 10.15625 
Q 24.75 6.390625 31.78125 6.390625 
Q 38.8125 6.390625 42.859375 10.171875 
Q 46.921875 13.96875 46.921875 20.515625 
Q 46.921875 27.09375 42.890625 30.859375 
Q 38.875 34.625 31.78125 34.625 
z
M 21.921875 38.8125 
Q 15.578125 40.375 12.03125 44.71875 
Q 8.5 49.078125 8.5 55.328125 
Q 8.5 64.0625 14.71875 69.140625 
Q 20.953125 74.21875 31.78125 74.21875 
Q 42.671875 74.21875 48.875 69.140625 
Q 55.078125 64.0625 55.078125 55.328125 
Q 55.078125 49.078125 51.53125 44.71875 
Q 48 40.375 41.703125 38.8125 
Q 48.828125 37.15625 52.796875 32.3125 
Q 56.78125 27.484375 56.78125 20.515625 
Q 56.78125 9.90625 50.3125 4.234375 
Q 43.84375 -1.421875 31.78125 -1.421875 
Q 19.734375 -1.421875 13.25 4.234375 
Q 6.78125 9.90625 6.78125 20.515625 
Q 6.78125 27.484375 10.78125 32.3125 
Q 14.796875 37.15625 21.921875 38.8125 
z
M 18.3125 54.390625 
Q 18.3125 48.734375 21.84375 45.5625 
Q 25.390625 42.390625 31.78125 42.390625 
Q 38.140625 42.390625 41.71875 45.5625 
Q 45.3125 48.734375 45.3125 54.390625 
Q 45.3125 60.0625 41.71875 63.234375 
Q 38.140625 66.40625 31.78125 66.40625 
Q 25.390625 66.40625 21.84375 63.234375 
Q 18.3125 60.0625 18.3125 54.390625 
z
" id="DejaVuSans-56"/>
       </defs>
       <use xlink:href="#DejaVuSans-56"/>
       <use x="63.623047" xlink:href="#DejaVuSans-48"/>
      </g>
     </g>
    </g>
    <g id="xtick_6">
     <g id="line2d_6">
      <g>
       <use style="stroke:#000000;stroke-width:0.8;" x="386.507313" xlink:href="#mbdfcaab4c8" y="307.584"/>
      </g>
     </g>
     <g id="text_6">
      <!-- 100 -->
      <g transform="translate(376.963563 322.182437)scale(0.1 -0.1)">
       <defs>
        <path d="M 12.40625 8.296875 
L 28.515625 8.296875 
L 28.515625 63.921875 
L 10.984375 60.40625 
L 10.984375 69.390625 
L 28.421875 72.90625 
L 38.28125 72.90625 
L 38.28125 8.296875 
L 54.390625 8.296875 
L 54.390625 0 
L 12.40625 0 
z
" id="DejaVuSans-49"/>
       </defs>
       <use xlink:href="#DejaVuSans-49"/>
       <use x="63.623047" xlink:href="#DejaVuSans-48"/>
       <use x="127.246094" xlink:href="#DejaVuSans-48"/>
      </g>
     </g>
    </g>
   </g>
   <g id="matplotlib.axis_2">
    <g id="ytick_1">
     <g id="line2d_7">
      <defs>
       <path d="M 0 0 
L -3.5 0 
" id="mebe16c96c4" style="stroke:#000000;stroke-width:0.8;"/>
      </defs>
      <g>
       <use style="stroke:#000000;stroke-width:0.8;" x="57.6" xlink:href="#mebe16c96c4" y="283.438817"/>
      </g>
     </g>
     <g id="text_7">
      <!-- 10 -->
      <g transform="translate(37.875 287.238036)scale(0.1 -0.1)">
       <use xlink:href="#DejaVuSans-49"/>
       <use x="63.623047" xlink:href="#DejaVuSans-48"/>
      </g>
     </g>
    </g>
    <g id="ytick_2">
     <g id="line2d_8">
      <g>
       <use style="stroke:#000000;stroke-width:0.8;" x="57.6" xlink:href="#mebe16c96c4" y="253.69496"/>
      </g>
     </g>
     <g id="text_8">
      <!-- 20 -->
      <g transform="translate(37.875 257.494179)scale(0.1 -0.1)">
       <use xlink:href="#DejaVuSans-50"/>
       <use x="63.623047" xlink:href="#DejaVuSans-48"/>
      </g>
     </g>
    </g>
    <g id="ytick_3">
     <g id="line2d_9">
      <g>
       <use style="stroke:#000000;stroke-width:0.8;" x="57.6" xlink:href="#mebe16c96c4" y="223.951103"/>
      </g>
     </g>
     <g id="text_9">
      <!-- 30 -->
      <g transform="translate(37.875 227.750322)scale(0.1 -0.1)">
       <defs>
        <path d="M 40.578125 39.3125 
Q 47.65625 37.796875 51.625 33 
Q 55.609375 28.21875 55.609375 21.1875 
Q 55.609375 10.40625 48.1875 4.484375 
Q 40.765625 -1.421875 27.09375 -1.421875 
Q 22.515625 -1.421875 17.65625 -0.515625 
Q 12.796875 0.390625 7.625 2.203125 
L 7.625 11.71875 
Q 11.71875 9.328125 16.59375 8.109375 
Q 21.484375 6.890625 26.8125 6.890625 
Q 36.078125 6.890625 40.9375 10.546875 
Q 45.796875 14.203125 45.796875 21.1875 
Q 45.796875 27.640625 41.28125 31.265625 
Q 36.765625 34.90625 28.71875 34.90625 
L 20.21875 34.90625 
L 20.21875 43.015625 
L 29.109375 43.015625 
Q 36.375 43.015625 40.234375 45.921875 
Q 44.09375 48.828125 44.09375 54.296875 
Q 44.09375 59.90625 40.109375 62.90625 
Q 36.140625 65.921875 28.71875 65.921875 
Q 24.65625 65.921875 20.015625 65.03125 
Q 15.375 64.15625 9.8125 62.3125 
L 9.8125 71.09375 
Q 15.4375 72.65625 20.34375 73.4375 
Q 25.25 74.21875 29.59375 74.21875 
Q 40.828125 74.21875 47.359375 69.109375 
Q 53.90625 64.015625 53.90625 55.328125 
Q 53.90625 49.265625 50.4375 45.09375 
Q 46.96875 40.921875 40.578125 39.3125 
z
" id="DejaVuSans-51"/>
       </defs>
       <use xlink:href="#DejaVuSans-51"/>
       <use x="63.623047" xlink:href="#DejaVuSans-48"/>
      </g>
     </g>
    </g>
    <g id="ytick_4">
     <g id="line2d_10">
      <g>
       <use style="stroke:#000000;stroke-width:0.8;" x="57.6" xlink:href="#mebe16c96c4" y="194.207246"/>
      </g>
     </g>
     <g id="text_10">
      <!-- 40 -->
      <g transform="translate(37.875 198.006465)scale(0.1 -0.1)">
       <use xlink:href="#DejaVuSans-52"/>
       <use x="63.623047" xlink:href="#DejaVuSans-48"/>
      </g>
     </g>
    </g>
    <g id="ytick_5">
     <g id="line2d_11">
      <g>
       <use style="stroke:#000000;stroke-width:0.8;" x="57.6" xlink:href="#mebe16c96c4" y="164.463389"/>
      </g>
     </g>
     <g id="text_11">
      <!-- 50 -->
      <g transform="translate(37.875 168.262608)scale(0.1 -0.1)">
       <defs>
        <path d="M 10.796875 72.90625 
L 49.515625 72.90625 
L 49.515625 64.59375 
L 19.828125 64.59375 
L 19.828125 46.734375 
Q 21.96875 47.46875 24.109375 47.828125 
Q 26.265625 48.1875 28.421875 48.1875 
Q 40.625 48.1875 47.75 41.5 
Q 54.890625 34.8125 54.890625 23.390625 
Q 54.890625 11.625 47.5625 5.09375 
Q 40.234375 -1.421875 26.90625 -1.421875 
Q 22.3125 -1.421875 17.546875 -0.640625 
Q 12.796875 0.140625 7.71875 1.703125 
L 7.71875 11.625 
Q 12.109375 9.234375 16.796875 8.0625 
Q 21.484375 6.890625 26.703125 6.890625 
Q 35.15625 6.890625 40.078125 11.328125 
Q 45.015625 15.765625 45.015625 23.390625 
Q 45.015625 31 40.078125 35.4375 
Q 35.15625 39.890625 26.703125 39.890625 
Q 22.75 39.890625 18.8125 39.015625 
Q 14.890625 38.140625 10.796875 36.28125 
z
" id="DejaVuSans-53"/>
       </defs>
       <use xlink:href="#DejaVuSans-53"/>
       <use x="63.623047" xlink:href="#DejaVuSans-48"/>
      </g>
     </g>
    </g>
    <g id="ytick_6">
     <g id="line2d_12">
      <g>
       <use style="stroke:#000000;stroke-width:0.8;" x="57.6" xlink:href="#mebe16c96c4" y="134.719532"/>
      </g>
     </g>
     <g id="text_12">
      <!-- 60 -->
      <g transform="translate(37.875 138.518751)scale(0.1 -0.1)">
       <use xlink:href="#DejaVuSans-54"/>
       <use x="63.623047" xlink:href="#DejaVuSans-48"/>
      </g>
     </g>
    </g>
    <g id="ytick_7">
     <g id="line2d_13">
      <g>
       <use style="stroke:#000000;stroke-width:0.8;" x="57.6" xlink:href="#mebe16c96c4" y="104.975675"/>
      </g>
     </g>
     <g id="text_13">
      <!-- 70 -->
      <g transform="translate(37.875 108.774894)scale(0.1 -0.1)">
       <defs>
        <path d="M 8.203125 72.90625 
L 55.078125 72.90625 
L 55.078125 68.703125 
L 28.609375 0 
L 18.3125 0 
L 43.21875 64.59375 
L 8.203125 64.59375 
z
" id="DejaVuSans-55"/>
       </defs>
       <use xlink:href="#DejaVuSans-55"/>
       <use x="63.623047" xlink:href="#DejaVuSans-48"/>
      </g>
     </g>
    </g>
    <g id="ytick_8">
     <g id="line2d_14">
      <g>
       <use style="stroke:#000000;stroke-width:0.8;" x="57.6" xlink:href="#mebe16c96c4" y="75.231818"/>
      </g>
     </g>
     <g id="text_14">
      <!-- 80 -->
      <g transform="translate(37.875 79.031037)scale(0.1 -0.1)">
       <use xlink:href="#DejaVuSans-56"/>
       <use x="63.623047" xlink:href="#DejaVuSans-48"/>
      </g>
     </g>
    </g>
    <g id="ytick_9">
     <g id="line2d_15">
      <g>
       <use style="stroke:#000000;stroke-width:0.8;" x="57.6" xlink:href="#mebe16c96c4" y="45.487961"/>
      </g>
     </g>
     <g id="text_15">
      <!-- 90 -->
      <g transform="translate(37.875 49.28718)scale(0.1 -0.1)">
       <defs>
        <path d="M 10.984375 1.515625 
L 10.984375 10.5 
Q 14.703125 8.734375 18.5 7.8125 
Q 22.3125 6.890625 25.984375 6.890625 
Q 35.75 6.890625 40.890625 13.453125 
Q 46.046875 20.015625 46.78125 33.40625 
Q 43.953125 29.203125 39.59375 26.953125 
Q 35.25 24.703125 29.984375 24.703125 
Q 19.046875 24.703125 12.671875 31.3125 
Q 6.296875 37.9375 6.296875 49.421875 
Q 6.296875 60.640625 12.9375 67.421875 
Q 19.578125 74.21875 30.609375 74.21875 
Q 43.265625 74.21875 49.921875 64.515625 
Q 56.59375 54.828125 56.59375 36.375 
Q 56.59375 19.140625 48.40625 8.859375 
Q 40.234375 -1.421875 26.421875 -1.421875 
Q 22.703125 -1.421875 18.890625 -0.6875 
Q 15.09375 0.046875 10.984375 1.515625 
z
M 30.609375 32.421875 
Q 37.25 32.421875 41.125 36.953125 
Q 45.015625 41.5 45.015625 49.421875 
Q 45.015625 57.28125 41.125 61.84375 
Q 37.25 66.40625 30.609375 66.40625 
Q 23.96875 66.40625 20.09375 61.84375 
Q 16.21875 57.28125 16.21875 49.421875 
Q 16.21875 41.5 20.09375 36.953125 
Q 23.96875 32.421875 30.609375 32.421875 
z
" id="DejaVuSans-57"/>
       </defs>
       <use xlink:href="#DejaVuSans-57"/>
       <use x="63.623047" xlink:href="#DejaVuSans-48"/>
      </g>
     </g>
    </g>
   </g>
   <g id="line2d_16">
    <path clip-path="url(#p3726e92521)" d="M 222.927997 131.798685 
L 223.64185 128.949224 
L 224.19806 126.040275 
L 224.590679 123.08671 
L 224.825655 120.100426 
L 224.905963 117.087374 
L 224.825655 114.062423 
L 224.590679 111.034499 
L 224.19806 108.018472 
L 223.650773 105.020291 
L 222.951792 102.054828 
L 222.098143 99.131007 
L 221.092801 96.260725 
L 219.935765 93.455879 
L 218.627035 90.725393 
L 217.169586 88.081164 
L 215.563418 85.53509 
L 213.80853 83.096094 
L 211.904924 80.776073 
L 209.855572 78.5899 
L 207.660475 76.543522 
L 205.319634 74.648839 
L 202.850894 72.911797 
L 200.263178 71.341322 
L 197.574333 69.94336 
L 194.796257 68.720888 
L 191.940847 67.679853 
L 189.025949 66.832153 
L 186.060486 66.177788 
L 183.06528 65.722707 
L 180.049253 65.478808 
L 177.027277 65.446089 
L 174.014224 65.618604 
L 171.016043 65.993376 
L 168.044632 66.55851 
L 165.111888 67.311029 
L 162.232682 68.242012 
L 159.412965 69.342535 
L 156.667607 70.609623 
L 154.005532 72.031379 
L 151.438637 73.604829 
L 148.975845 75.32105 
L 146.617158 77.171118 
L 144.362573 79.143135 
L 142.215067 81.231154 
L 140.168689 83.423276 
L 138.223441 85.713553 
L 136.379322 88.087113 
L 134.636332 90.538007 
L 131.447791 95.630155 
L 128.651868 100.924562 
L 126.230718 106.385534 
L 124.172443 111.983328 
L 122.459197 117.700097 
L 121.076108 123.509072 
L 120.014252 129.38051 
L 119.261732 135.302512 
L 118.815574 141.251283 
L 118.666855 147.211952 
L 118.8126 153.166672 
L 119.237937 159.097597 
L 119.907174 165.007702 
L 120.77272 170.896985 
L 122.343196 179.698193 
L 124.11593 188.463707 
L 125.436557 194.272682 
L 126.938622 200.031093 
L 128.678637 205.721093 
L 130.716092 211.32781 
L 133.101549 216.824475 
L 135.852856 222.163497 
L 137.363844 224.754187 
L 138.970012 227.282415 
L 140.668386 229.742232 
L 142.461941 232.127689 
L 144.350676 234.429864 
L 146.337565 236.639832 
L 148.416661 238.754621 
L 150.582014 240.783152 
L 155.138773 244.602263 
L 159.927534 248.162603 
L 164.876911 251.535556 
L 172.434825 256.374881 
L 180.046278 261.047641 
L 187.75886 265.512194 
L 192.987831 268.340835 
L 198.309007 271.032654 
L 203.725363 273.554933 
L 209.239874 275.857108 
L 214.846591 277.888613 
L 220.539565 279.601859 
L 226.321771 280.946282 
L 232.178336 281.927829 
L 238.091415 282.611938 
L 244.043161 283.06107 
L 253.002011 283.438817 
L 261.951937 283.590511 
L 267.906657 283.531023 
L 273.846506 283.296046 
L 279.774456 282.840965 
L 285.681586 282.127113 
L 291.558972 281.127719 
L 297.38282 279.824938 
L 303.129333 278.209847 
L 308.774717 276.264599 
L 314.295177 273.977296 
L 319.663943 271.34199 
L 324.851272 268.370579 
L 329.827419 265.066036 
L 334.565615 261.431337 
L 339.030168 257.481353 
L 341.15388 255.387385 
L 343.194308 253.216084 
L 345.154428 250.967448 
L 347.028291 248.644453 
L 348.812923 246.247098 
L 350.502374 243.775384 
L 352.09367 241.229309 
L 353.586812 238.61185 
L 354.969901 235.923005 
L 354.969901 235.923005 
" style="fill:none;stroke:#fea952;stroke-linecap:square;"/>
   </g>
   <g id="line2d_17">
    <path clip-path="url(#p3726e92521)" d="M 211.387104 128.907439 
L 211.956006 126.714814 
L 212.404262 124.472519 
L 212.729797 122.153433 
L 212.932336 119.783428 
L 213.012611 117.403126 
L 212.963776 114.982943 
L 212.792681 112.570333 
L 212.493914 110.154943 
L 212.070567 107.749828 
L 211.531062 105.389263 
L 210.869456 103.063957 
L 210.094305 100.797751 
L 209.20694 98.598236 
L 208.20742 96.468488 
L 207.106995 94.429061 
L 205.90592 92.483778 
L 204.610857 90.642903 
L 203.224855 88.912899 
L 201.742704 87.292365 
L 200.175238 85.791374 
L 198.473257 84.379134 
L 196.678159 83.08278 
L 194.774949 81.897404 
L 192.782343 80.833188 
L 190.721007 79.898717 
L 188.618489 79.104102 
L 186.462286 78.450206 
L 184.273326 77.940338 
L 182.106282 77.581537 
L 179.920448 77.375653 
L 177.707365 77.324179 
L 175.489933 77.424272 
L 173.238992 77.681405 
L 171.001657 78.082724 
L 168.772325 78.631485 
L 166.55844 79.325303 
L 164.398727 80.14502 
L 162.272536 81.104207 
L 160.223287 82.174901 
L 158.240843 83.366054 
L 156.318581 84.682447 
L 154.450071 86.126395 
L 152.656431 87.673285 
L 150.912043 89.349906 
L 149.2368 91.125282 
L 146.075041 94.98237 
L 143.191325 99.187213 
L 140.617562 103.629288 
L 138.352421 108.266507 
L 136.38693 113.09886 
L 134.719444 118.06854 
L 133.338651 123.188912 
L 132.241412 128.408252 
L 131.421333 133.688643 
L 130.874773 139.009424 
L 130.599237 144.374093 
L 130.591971 149.749843 
L 130.851463 155.158895 
L 131.357285 160.616575 
L 132.080083 166.147998 
L 133.480893 174.560795 
L 135.733501 185.897863 
L 136.974658 191.370315 
L 138.35706 196.688821 
L 139.920944 201.827242 
L 141.704721 206.766938 
L 143.76884 211.555658 
L 146.13013 216.169404 
L 148.760595 220.522532 
L 151.660062 224.581427 
L 154.82169 228.2989 
L 158.377708 231.795456 
L 162.360644 235.147312 
L 166.711406 238.388627 
L 171.364256 241.562297 
L 178.729831 246.279118 
L 186.106125 250.809 
L 193.485196 255.083359 
L 200.922556 259.048047 
L 205.918115 261.485387 
L 210.926107 263.706918 
L 215.934293 265.671409 
L 220.932381 267.345149 
L 225.926845 268.69084 
L 231.041875 269.717991 
L 236.364523 270.469393 
L 241.856598 270.990752 
L 247.523741 271.331566 
L 256.189918 271.620317 
L 264.730043 271.685763 
L 270.306503 271.555011 
L 275.788479 271.243324 
L 281.161687 270.72614 
L 286.489575 269.958997 
L 291.72838 268.939975 
L 296.888424 267.650086 
L 301.925607 266.087638 
L 306.828898 264.24325 
L 311.593154 262.102723 
L 316.198498 259.674454 
L 320.62378 256.956809 
L 324.822897 253.977987 
L 328.792382 250.727648 
L 332.483815 247.2399 
L 335.89416 243.497578 
L 338.990606 239.533409 
L 341.759377 235.334065 
L 343.00688 233.169739 
L 344.389969 230.480895 
L 344.389969 230.480895 
" style="fill:none;stroke:#ffffff;stroke-linecap:square;"/>
   </g>
   <g id="line2d_18">
    <path clip-path="url(#p3726e92521)" d="M 234.46889 134.689932 
L 235.327693 131.183634 
L 235.991857 127.60803 
L 236.45156 124.019986 
L 236.718974 120.417425 
L 236.799316 116.771621 
L 236.687534 113.141904 
L 236.388676 109.498665 
L 235.902205 105.882001 
L 235.230978 102.290754 
L 234.372522 98.720394 
L 233.326831 95.198058 
L 232.091297 91.7237 
L 230.66459 88.313523 
L 229.046651 84.982298 
L 227.232177 81.733268 
L 225.220916 78.586403 
L 223.006204 75.549285 
L 220.584992 72.639247 
L 217.968439 69.887434 
L 215.145712 67.295671 
L 212.16601 64.918543 
L 209.023628 62.740815 
L 205.751407 60.78524 
L 202.366324 59.053533 
L 198.871507 57.543059 
L 195.263205 56.255604 
L 191.589611 55.2141 
L 187.847646 54.415238 
L 184.024278 53.863877 
L 180.178057 53.581962 
L 176.347189 53.568 
L 172.538516 53.812935 
L 168.793095 54.305347 
L 165.087607 55.034295 
L 161.451451 55.990573 
L 157.906925 57.15872 
L 154.427202 58.540049 
L 151.062678 60.115039 
L 147.787776 61.887857 
L 144.63643 63.843604 
L 141.63311 65.959652 
L 138.784244 68.215841 
L 136.068716 70.612986 
L 133.51809 73.112403 
L 131.100579 75.721271 
L 128.828287 78.41406 
L 126.683603 81.191857 
L 124.668718 84.041994 
L 122.797617 86.927411 
L 121.024719 89.893335 
L 119.386916 92.883788 
L 117.860852 95.914024 
L 116.434984 99.001947 
L 113.927 105.240258 
L 111.822965 111.59109 
L 110.116346 117.999437 
L 108.774588 124.469432 
L 107.780291 130.985455 
L 107.1252 137.538422 
L 106.805858 144.089142 
L 106.813124 150.628781 
L 107.136612 157.111323 
L 107.737261 163.497647 
L 108.561144 169.762638 
L 109.554052 175.926333 
L 111.250983 184.974258 
L 113.173396 194.081764 
L 114.676612 200.261114 
L 116.439607 206.502227 
L 118.534814 212.769855 
L 121.027428 219.004772 
L 122.434258 222.093291 
L 123.949612 225.145677 
L 125.575581 228.157591 
L 127.321483 231.13404 
L 129.179429 234.042297 
L 131.158896 236.892135 
L 133.263819 239.673952 
L 135.503158 242.384294 
L 137.853441 244.980765 
L 140.282616 247.437296 
L 142.78632 249.770848 
L 147.916901 254.057213 
L 153.143662 257.936578 
L 158.389567 261.508814 
L 166.13982 266.470645 
L 173.986431 271.286283 
L 182.032525 275.94103 
L 187.534436 278.914955 
L 193.178681 281.767238 
L 199.014417 284.480066 
L 205.038968 286.988321 
L 211.241668 289.226869 
L 217.65679 291.144872 
L 224.18823 292.650961 
L 230.679201 293.730545 
L 237.094539 294.467644 
L 243.415353 294.942037 
L 252.69401 295.332372 
L 261.987559 295.488 
L 268.275673 295.422842 
L 274.64424 295.166815 
L 281.059584 294.668897 
L 287.5335 293.879642 
L 294.001624 292.771815 
L 300.440994 291.322725 
L 306.841814 289.513342 
L 313.160634 287.324221 
L 319.373083 284.736775 
L 325.40668 281.761803 
L 328.364307 280.124373 
L 331.26939 278.388527 
L 334.111423 276.560115 
L 336.90321 274.6308 
L 339.6326 272.602669 
L 342.287899 270.482186 
L 344.877761 268.262376 
L 347.383465 265.953304 
L 349.823944 263.53487 
L 352.162803 261.033859 
L 354.414696 258.437319 
L 356.57184 255.748832 
L 358.635239 252.960787 
L 360.59147 250.081069 
L 362.427963 247.124554 
L 364.166743 244.053961 
L 365.549833 241.365116 
L 365.549833 241.365116 
" style="fill:none;stroke:#ffffff;stroke-linecap:square;"/>
   </g>
   <g id="patch_3">
    <path d="M 57.6 307.584 
L 57.6 41.472 
" style="fill:none;stroke:#000000;stroke-linecap:square;stroke-linejoin:miter;stroke-width:0.8;"/>
   </g>
   <g id="patch_4">
    <path d="M 414.72 307.584 
L 414.72 41.472 
" style="fill:none;stroke:#000000;stroke-linecap:square;stroke-linejoin:miter;stroke-width:0.8;"/>
   </g>
   <g id="patch_5">
    <path d="M 57.6 307.584 
L 414.72 307.584 
" style="fill:none;stroke:#000000;stroke-linecap:square;stroke-linejoin:miter;stroke-width:0.8;"/>
   </g>
   <g id="patch_6">
    <path d="M 57.6 41.472 
L 414.72 41.472 
" style="fill:none;stroke:#000000;stroke-linecap:square;stroke-linejoin:miter;stroke-width:0.8;"/>
   </g>
  </g>
 </g>
 <defs>
  <clipPath id="p3726e92521">
   <rect height="266.112" width="357.12" x="57.6" y="41.472"/>
  </clipPath>
 </defs>
</svg>
