<?xml version="1.0" encoding="utf-8" standalone="no"?>
<!DOCTYPE svg PUBLIC "-//W3C//DTD SVG 1.1//EN"
  "http://www.w3.org/Graphics/SVG/1.1/DTD/svg11.dtd">
<!-- Created with matplotlib (https://matplotlib.org/) -->
<svg height="345.6pt" version="1.1" viewBox="0 0 460.8 345.6" width="460.8pt" xmlns="http://www.w3.org/2000/svg" xmlns:xlink="http://www.w3.org/1999/xlink">
 <metadata>
  <rdf:RDF xmlns:cc="http://creativecommons.org/ns#" xmlns:dc="http://purl.org/dc/elements/1.1/" xmlns:rdf="http://www.w3.org/1999/02/22-rdf-syntax-ns#">
   <cc:Work>
    <dc:type rdf:resource="http://purl.org/dc/dcmitype/StillImage"/>
    <dc:date>2021-01-22T11:01:52.103481</dc:date>
    <dc:format>image/svg+xml</dc:format>
    <dc:creator>
     <cc:Agent>
      <dc:title>Matplotlib v3.3.3, https://matplotlib.org/</dc:title>
     </cc:Agent>
    </dc:creator>
   </cc:Work>
  </rdf:RDF>
 </metadata>
 <defs>
  <style type="text/css">*{stroke-linecap:butt;stroke-linejoin:round;}</style>
 </defs>
 <g id="figure_1">
  <g id="patch_1">
   <path d="M 0 345.6 
L 460.8 345.6 
L 460.8 0 
L 0 0 
z
" style="fill:#ffffff;"/>
  </g>
  <g id="axes_1">
   <g id="patch_2">
    <path d="M 57.6 307.584 
L 414.72 307.584 
L 414.72 41.472 
L 57.6 41.472 
z
" style="fill:#7d9051;"/>
   </g>
   <g id="matplotlib.axis_1">
    <g id="xtick_1">
     <g id="line2d_1">
      <defs>
       <path d="M 0 0 
L 0 3.5 
" id="m1302180667" style="stroke:#000000;stroke-width:0.8;"/>
      </defs>
      <g>
       <use style="stroke:#000000;stroke-width:0.8;" x="84.142803" xlink:href="#m1302180667" y="307.584"/>
      </g>
     </g>
     <g id="text_1">
      <!-- −20 -->
      <g transform="translate(73.590459 322.182437)scale(0.1 -0.1)">
       <defs>
        <path d="M 10.59375 35.5 
L 73.1875 35.5 
L 73.1875 27.203125 
L 10.59375 27.203125 
z
" id="DejaVuSans-8722"/>
        <path d="M 19.1875 8.296875 
L 53.609375 8.296875 
L 53.609375 0 
L 7.328125 0 
L 7.328125 8.296875 
Q 12.9375 14.109375 22.625 23.890625 
Q 32.328125 33.6875 34.8125 36.53125 
Q 39.546875 41.84375 41.421875 45.53125 
Q 43.3125 49.21875 43.3125 52.78125 
Q 43.3125 58.59375 39.234375 62.25 
Q 35.15625 65.921875 28.609375 65.921875 
Q 23.96875 65.921875 18.8125 64.3125 
Q 13.671875 62.703125 7.8125 59.421875 
L 7.8125 69.390625 
Q 13.765625 71.78125 18.9375 73 
Q 24.125 74.21875 28.421875 74.21875 
Q 39.75 74.21875 46.484375 68.546875 
Q 53.21875 62.890625 53.21875 53.421875 
Q 53.21875 48.921875 51.53125 44.890625 
Q 49.859375 40.875 45.40625 35.40625 
Q 44.1875 33.984375 37.640625 27.21875 
Q 31.109375 20.453125 19.1875 8.296875 
z
" id="DejaVuSans-50"/>
        <path d="M 31.78125 66.40625 
Q 24.171875 66.40625 20.328125 58.90625 
Q 16.5 51.421875 16.5 36.375 
Q 16.5 21.390625 20.328125 13.890625 
Q 24.171875 6.390625 31.78125 6.390625 
Q 39.453125 6.390625 43.28125 13.890625 
Q 47.125 21.390625 47.125 36.375 
Q 47.125 51.421875 43.28125 58.90625 
Q 39.453125 66.40625 31.78125 66.40625 
z
M 31.78125 74.21875 
Q 44.046875 74.21875 50.515625 64.515625 
Q 56.984375 54.828125 56.984375 36.375 
Q 56.984375 17.96875 50.515625 8.265625 
Q 44.046875 -1.421875 31.78125 -1.421875 
Q 19.53125 -1.421875 13.0625 8.265625 
Q 6.59375 17.96875 6.59375 36.375 
Q 6.59375 54.828125 13.0625 64.515625 
Q 19.53125 74.21875 31.78125 74.21875 
z
" id="DejaVuSans-48"/>
       </defs>
       <use xlink:href="#DejaVuSans-8722"/>
       <use x="83.789062" xlink:href="#DejaVuSans-50"/>
       <use x="147.412109" xlink:href="#DejaVuSans-48"/>
      </g>
     </g>
    </g>
    <g id="xtick_2">
     <g id="line2d_2">
      <g>
       <use style="stroke:#000000;stroke-width:0.8;" x="126.947493" xlink:href="#m1302180667" y="307.584"/>
      </g>
     </g>
     <g id="text_2">
      <!-- 0 -->
      <g transform="translate(123.766243 322.182437)scale(0.1 -0.1)">
       <use xlink:href="#DejaVuSans-48"/>
      </g>
     </g>
    </g>
    <g id="xtick_3">
     <g id="line2d_3">
      <g>
       <use style="stroke:#000000;stroke-width:0.8;" x="169.752184" xlink:href="#m1302180667" y="307.584"/>
      </g>
     </g>
     <g id="text_3">
      <!-- 20 -->
      <g transform="translate(163.389684 322.182437)scale(0.1 -0.1)">
       <use xlink:href="#DejaVuSans-50"/>
       <use x="63.623047" xlink:href="#DejaVuSans-48"/>
      </g>
     </g>
    </g>
    <g id="xtick_4">
     <g id="line2d_4">
      <g>
       <use style="stroke:#000000;stroke-width:0.8;" x="212.556874" xlink:href="#m1302180667" y="307.584"/>
      </g>
     </g>
     <g id="text_4">
      <!-- 40 -->
      <g transform="translate(206.194374 322.182437)scale(0.1 -0.1)">
       <defs>
        <path d="M 37.796875 64.3125 
L 12.890625 25.390625 
L 37.796875 25.390625 
z
M 35.203125 72.90625 
L 47.609375 72.90625 
L 47.609375 25.390625 
L 58.015625 25.390625 
L 58.015625 17.1875 
L 47.609375 17.1875 
L 47.609375 0 
L 37.796875 0 
L 37.796875 17.1875 
L 4.890625 17.1875 
L 4.890625 26.703125 
z
" id="DejaVuSans-52"/>
       </defs>
       <use xlink:href="#DejaVuSans-52"/>
       <use x="63.623047" xlink:href="#DejaVuSans-48"/>
      </g>
     </g>
    </g>
    <g id="xtick_5">
     <g id="line2d_5">
      <g>
       <use style="stroke:#000000;stroke-width:0.8;" x="255.361565" xlink:href="#m1302180667" y="307.584"/>
      </g>
     </g>
     <g id="text_5">
      <!-- 60 -->
      <g transform="translate(248.999065 322.182437)scale(0.1 -0.1)">
       <defs>
        <path d="M 33.015625 40.375 
Q 26.375 40.375 22.484375 35.828125 
Q 18.609375 31.296875 18.609375 23.390625 
Q 18.609375 15.53125 22.484375 10.953125 
Q 26.375 6.390625 33.015625 6.390625 
Q 39.65625 6.390625 43.53125 10.953125 
Q 47.40625 15.53125 47.40625 23.390625 
Q 47.40625 31.296875 43.53125 35.828125 
Q 39.65625 40.375 33.015625 40.375 
z
M 52.59375 71.296875 
L 52.59375 62.3125 
Q 48.875 64.0625 45.09375 64.984375 
Q 41.3125 65.921875 37.59375 65.921875 
Q 27.828125 65.921875 22.671875 59.328125 
Q 17.53125 52.734375 16.796875 39.40625 
Q 19.671875 43.65625 24.015625 45.921875 
Q 28.375 48.1875 33.59375 48.1875 
Q 44.578125 48.1875 50.953125 41.515625 
Q 57.328125 34.859375 57.328125 23.390625 
Q 57.328125 12.15625 50.6875 5.359375 
Q 44.046875 -1.421875 33.015625 -1.421875 
Q 20.359375 -1.421875 13.671875 8.265625 
Q 6.984375 17.96875 6.984375 36.375 
Q 6.984375 53.65625 15.1875 63.9375 
Q 23.390625 74.21875 37.203125 74.21875 
Q 40.921875 74.21875 44.703125 73.484375 
Q 48.484375 72.75 52.59375 71.296875 
z
" id="DejaVuSans-54"/>
       </defs>
       <use xlink:href="#DejaVuSans-54"/>
       <use x="63.623047" xlink:href="#DejaVuSans-48"/>
      </g>
     </g>
    </g>
    <g id="xtick_6">
     <g id="line2d_6">
      <g>
       <use style="stroke:#000000;stroke-width:0.8;" x="298.166255" xlink:href="#m1302180667" y="307.584"/>
      </g>
     </g>
     <g id="text_6">
      <!-- 80 -->
      <g transform="translate(291.803755 322.182437)scale(0.1 -0.1)">
       <defs>
        <path d="M 31.78125 34.625 
Q 24.75 34.625 20.71875 30.859375 
Q 16.703125 27.09375 16.703125 20.515625 
Q 16.703125 13.921875 20.71875 10.15625 
Q 24.75 6.390625 31.78125 6.390625 
Q 38.8125 6.390625 42.859375 10.171875 
Q 46.921875 13.96875 46.921875 20.515625 
Q 46.921875 27.09375 42.890625 30.859375 
Q 38.875 34.625 31.78125 34.625 
z
M 21.921875 38.8125 
Q 15.578125 40.375 12.03125 44.71875 
Q 8.5 49.078125 8.5 55.328125 
Q 8.5 64.0625 14.71875 69.140625 
Q 20.953125 74.21875 31.78125 74.21875 
Q 42.671875 74.21875 48.875 69.140625 
Q 55.078125 64.0625 55.078125 55.328125 
Q 55.078125 49.078125 51.53125 44.71875 
Q 48 40.375 41.703125 38.8125 
Q 48.828125 37.15625 52.796875 32.3125 
Q 56.78125 27.484375 56.78125 20.515625 
Q 56.78125 9.90625 50.3125 4.234375 
Q 43.84375 -1.421875 31.78125 -1.421875 
Q 19.734375 -1.421875 13.25 4.234375 
Q 6.78125 9.90625 6.78125 20.515625 
Q 6.78125 27.484375 10.78125 32.3125 
Q 14.796875 37.15625 21.921875 38.8125 
z
M 18.3125 54.390625 
Q 18.3125 48.734375 21.84375 45.5625 
Q 25.390625 42.390625 31.78125 42.390625 
Q 38.140625 42.390625 41.71875 45.5625 
Q 45.3125 48.734375 45.3125 54.390625 
Q 45.3125 60.0625 41.71875 63.234375 
Q 38.140625 66.40625 31.78125 66.40625 
Q 25.390625 66.40625 21.84375 63.234375 
Q 18.3125 60.0625 18.3125 54.390625 
z
" id="DejaVuSans-56"/>
       </defs>
       <use xlink:href="#DejaVuSans-56"/>
       <use x="63.623047" xlink:href="#DejaVuSans-48"/>
      </g>
     </g>
    </g>
    <g id="xtick_7">
     <g id="line2d_7">
      <g>
       <use style="stroke:#000000;stroke-width:0.8;" x="340.970946" xlink:href="#m1302180667" y="307.584"/>
      </g>
     </g>
     <g id="text_7">
      <!-- 100 -->
      <g transform="translate(331.427196 322.182437)scale(0.1 -0.1)">
       <defs>
        <path d="M 12.40625 8.296875 
L 28.515625 8.296875 
L 28.515625 63.921875 
L 10.984375 60.40625 
L 10.984375 69.390625 
L 28.421875 72.90625 
L 38.28125 72.90625 
L 38.28125 8.296875 
L 54.390625 8.296875 
L 54.390625 0 
L 12.40625 0 
z
" id="DejaVuSans-49"/>
       </defs>
       <use xlink:href="#DejaVuSans-49"/>
       <use x="63.623047" xlink:href="#DejaVuSans-48"/>
       <use x="127.246094" xlink:href="#DejaVuSans-48"/>
      </g>
     </g>
    </g>
    <g id="xtick_8">
     <g id="line2d_8">
      <g>
       <use style="stroke:#000000;stroke-width:0.8;" x="383.775637" xlink:href="#m1302180667" y="307.584"/>
      </g>
     </g>
     <g id="text_8">
      <!-- 120 -->
      <g transform="translate(374.231887 322.182437)scale(0.1 -0.1)">
       <use xlink:href="#DejaVuSans-49"/>
       <use x="63.623047" xlink:href="#DejaVuSans-50"/>
       <use x="127.246094" xlink:href="#DejaVuSans-48"/>
      </g>
     </g>
    </g>
   </g>
   <g id="matplotlib.axis_2">
    <g id="ytick_1">
     <g id="line2d_9">
      <defs>
       <path d="M 0 0 
L -3.5 0 
" id="m170179cca4" style="stroke:#000000;stroke-width:0.8;"/>
      </defs>
      <g>
       <use style="stroke:#000000;stroke-width:0.8;" x="57.6" xlink:href="#m170179cca4" y="273.594144"/>
      </g>
     </g>
     <g id="text_9">
      <!-- 20 -->
      <g transform="translate(37.875 277.393363)scale(0.1 -0.1)">
       <use xlink:href="#DejaVuSans-50"/>
       <use x="63.623047" xlink:href="#DejaVuSans-48"/>
      </g>
     </g>
    </g>
    <g id="ytick_2">
     <g id="line2d_10">
      <g>
       <use style="stroke:#000000;stroke-width:0.8;" x="57.6" xlink:href="#m170179cca4" y="230.789454"/>
      </g>
     </g>
     <g id="text_10">
      <!-- 40 -->
      <g transform="translate(37.875 234.588673)scale(0.1 -0.1)">
       <use xlink:href="#DejaVuSans-52"/>
       <use x="63.623047" xlink:href="#DejaVuSans-48"/>
      </g>
     </g>
    </g>
    <g id="ytick_3">
     <g id="line2d_11">
      <g>
       <use style="stroke:#000000;stroke-width:0.8;" x="57.6" xlink:href="#m170179cca4" y="187.984763"/>
      </g>
     </g>
     <g id="text_11">
      <!-- 60 -->
      <g transform="translate(37.875 191.783982)scale(0.1 -0.1)">
       <use xlink:href="#DejaVuSans-54"/>
       <use x="63.623047" xlink:href="#DejaVuSans-48"/>
      </g>
     </g>
    </g>
    <g id="ytick_4">
     <g id="line2d_12">
      <g>
       <use style="stroke:#000000;stroke-width:0.8;" x="57.6" xlink:href="#m170179cca4" y="145.180073"/>
      </g>
     </g>
     <g id="text_12">
      <!-- 80 -->
      <g transform="translate(37.875 148.979292)scale(0.1 -0.1)">
       <use xlink:href="#DejaVuSans-56"/>
       <use x="63.623047" xlink:href="#DejaVuSans-48"/>
      </g>
     </g>
    </g>
    <g id="ytick_5">
     <g id="line2d_13">
      <g>
       <use style="stroke:#000000;stroke-width:0.8;" x="57.6" xlink:href="#m170179cca4" y="102.375382"/>
      </g>
     </g>
     <g id="text_13">
      <!-- 100 -->
      <g transform="translate(31.5125 106.174601)scale(0.1 -0.1)">
       <use xlink:href="#DejaVuSans-49"/>
       <use x="63.623047" xlink:href="#DejaVuSans-48"/>
       <use x="127.246094" xlink:href="#DejaVuSans-48"/>
      </g>
     </g>
    </g>
    <g id="ytick_6">
     <g id="line2d_14">
      <g>
       <use style="stroke:#000000;stroke-width:0.8;" x="57.6" xlink:href="#m170179cca4" y="59.570692"/>
      </g>
     </g>
     <g id="text_14">
      <!-- 120 -->
      <g transform="translate(31.5125 63.36991)scale(0.1 -0.1)">
       <use xlink:href="#DejaVuSans-49"/>
       <use x="63.623047" xlink:href="#DejaVuSans-50"/>
       <use x="127.246094" xlink:href="#DejaVuSans-48"/>
      </g>
     </g>
    </g>
   </g>
   <g id="line2d_15">
    <path clip-path="url(#pf814cebf25)" d="M 323.587961 294.99649 
L 323.977484 286.688099 
L 323.996746 280.12186 
L 323.784863 275.687294 
L 323.333273 271.26771 
L 322.588472 266.916613 
L 321.499092 262.68965 
L 320.809937 260.641445 
L 320.01377 258.642466 
L 319.10845 256.701273 
L 318.083278 254.824288 
L 316.933972 253.01793 
L 315.656252 251.28862 
L 314.260819 249.64064 
L 312.754094 248.078268 
L 311.148918 246.601507 
L 309.455993 245.212494 
L 307.681738 243.919793 
L 305.838996 242.721261 
L 303.936328 241.623321 
L 299.994016 239.737774 
L 295.92329 238.267433 
L 291.754113 237.160932 
L 287.514308 236.349783 
L 283.227418 235.76978 
L 276.76605 235.196197 
L 270.306823 234.879442 
L 263.851875 234.830217 
L 257.403349 235.072063 
L 250.969804 235.611402 
L 244.559801 236.431112 
L 238.184043 237.50551 
L 231.855369 238.802492 
L 219.223705 241.479925 
L 214.98176 242.203325 
L 210.709852 242.759786 
L 206.414401 243.127906 
L 202.103969 243.282003 
L 197.784976 243.198534 
L 193.463842 242.856096 
L 189.161971 242.224727 
L 184.920026 241.272323 
L 180.785093 239.964639 
L 178.773272 239.168472 
L 176.806397 238.267433 
L 174.888747 237.261523 
L 173.026743 236.144321 
L 171.228946 234.917966 
L 169.495356 233.588881 
L 167.838814 232.163484 
L 166.259321 230.648198 
L 164.767578 229.049443 
L 163.365724 227.371499 
L 162.060181 225.625068 
L 160.859509 223.81443 
L 159.76799 221.943865 
L 158.789903 220.024074 
L 157.156904 216.051799 
L 155.877043 211.942549 
L 154.856151 207.736988 
L 153.612675 201.341967 
L 151.401813 188.588309 
L 150.145495 180.093719 
L 149.385712 173.687997 
L 148.814269 167.254452 
L 148.441869 160.801645 
L 148.292052 154.335996 
L 148.386222 147.870348 
L 148.760764 141.421821 
L 149.447779 135.005398 
L 150.453689 128.627499 
L 151.73997 122.296685 
L 153.259537 116.008676 
L 154.982425 109.772033 
L 156.934319 103.608157 
L 159.162303 97.551294 
L 160.823125 93.585439 
L 163.571186 87.749019 
L 166.556814 82.017471 
L 170.777356 74.490267 
L 180.365607 57.668023 
L 180.365607 57.668023 
" style="fill:none;stroke:#fea952;stroke-linecap:square;"/>
   </g>
   <g id="line2d_16">
    <path clip-path="url(#pf814cebf25)" d="M 315.041144 294.50498 
L 315.418214 286.519111 
L 315.441273 280.427708 
L 315.256109 276.428925 
L 314.870359 272.559505 
L 314.25259 268.866673 
L 313.385136 265.419737 
L 312.255118 262.260889 
L 310.860392 259.419892 
L 310.048584 258.105277 
L 308.098578 255.583404 
L 305.718701 253.219845 
L 303.014076 251.096323 
L 300.047667 249.250114 
L 296.902146 247.720882 
L 293.562448 246.496412 
L 290.01316 245.542981 
L 286.268011 244.819518 
L 282.346216 244.285245 
L 276.230976 243.740397 
L 270.11965 243.438334 
L 264.047746 243.388914 
L 257.990898 243.612815 
L 251.931072 244.118201 
L 245.86922 244.891318 
L 239.817155 245.909235 
L 233.684561 247.165728 
L 220.730405 249.907233 
L 216.180555 250.679913 
L 211.543173 251.280069 
L 206.830892 251.678707 
L 202.061547 251.842836 
L 197.243586 251.742336 
L 192.367752 251.346576 
L 187.452271 250.613206 
L 182.531391 249.493277 
L 180.062376 248.766006 
L 177.634863 247.924898 
L 175.207775 246.951588 
L 172.829636 245.848662 
L 170.48418 244.602467 
L 168.202484 243.216533 
L 166.020201 241.711981 
L 163.911553 240.078165 
L 161.912183 238.341244 
L 159.999966 236.488587 
L 158.197757 234.53826 
L 156.508915 232.4973 
L 154.925394 230.356292 
L 153.465365 228.12909 
L 152.139986 225.83015 
L 150.957348 223.479613 
L 149.924909 221.111956 
L 148.257572 216.401056 
L 146.994876 211.760203 
L 146.008788 207.230635 
L 144.037558 196.407645 
L 142.269095 185.56448 
L 141.108567 176.754656 
L 140.448789 170.074791 
L 139.990849 163.354249 
L 139.755167 156.584722 
L 139.768665 149.787616 
L 140.066173 142.947041 
L 140.441037 138.368625 
L 140.971357 133.805423 
L 142.042092 127.035425 
L 143.397123 120.376641 
L 144.984004 113.816595 
L 146.786049 107.300379 
L 148.852681 100.783837 
L 150.402573 96.464094 
L 152.108172 92.185471 
L 153.963858 87.978121 
L 156.95498 81.86302 
L 160.114693 75.959999 
L 165.528574 66.465212 
L 171.825152 55.447126 
L 172.850324 53.568 
L 172.850324 53.568 
" style="fill:none;stroke:#ffffff;stroke-linecap:square;"/>
   </g>
   <g id="line2d_17">
    <path clip-path="url(#pf814cebf25)" d="M 332.134778 295.488 
L 332.536754 286.857088 
L 332.588882 282.203902 
L 332.463235 277.395789 
L 332.094711 272.473317 
L 331.410009 267.483122 
L 330.329551 262.461985 
L 329.613048 259.959562 
L 328.763258 257.473741 
L 327.772421 255.024043 
L 326.621767 252.597649 
L 325.306164 250.228684 
L 323.81936 247.930583 
L 322.189623 245.756467 
L 320.42306 243.697876 
L 318.550333 241.778009 
L 316.579135 239.983168 
L 314.497248 238.293289 
L 312.3494 236.743262 
L 310.117811 235.306317 
L 307.824989 233.996528 
L 305.480062 232.813367 
L 303.085886 231.754667 
L 300.693962 230.837933 
L 295.87973 229.355752 
L 291.11785 228.289471 
L 286.425568 227.538786 
L 281.830172 227.019498 
L 275.037944 226.510978 
L 268.221891 226.27169 
L 261.385661 226.324311 
L 254.541519 226.688726 
L 247.740494 227.361866 
L 241.002186 228.319722 
L 234.341471 229.53171 
L 223.749285 231.814801 
L 217.717004 233.052618 
L 211.835334 234.004258 
L 207.936681 234.431704 
L 204.066037 234.674067 
L 200.232784 234.71522 
L 196.434196 234.539108 
L 192.698278 234.130468 
L 189.070897 233.476078 
L 185.608499 232.567267 
L 182.338769 231.385356 
L 179.293313 229.920579 
L 176.43769 228.123951 
L 173.765445 225.985725 
L 171.337398 223.560626 
L 169.194968 220.893844 
L 167.395994 218.057579 
L 165.921307 215.006721 
L 164.699326 211.623255 
L 163.684813 207.938596 
L 162.821738 203.992835 
L 160.910583 193.499089 
L 159.216146 183.123968 
L 158.129428 174.897526 
L 157.517907 168.731703 
L 157.09407 162.555192 
L 156.876022 156.397702 
L 156.883927 150.263512 
L 157.14288 144.189912 
L 157.677873 138.195821 
L 158.520405 132.212439 
L 159.651255 126.213859 
L 161.030702 120.197998 
L 162.611373 114.214724 
L 164.380881 108.349076 
L 166.368223 102.649292 
L 168.624282 97.111289 
L 171.211231 91.611581 
L 174.06396 86.132374 
L 178.195121 78.764191 
L 187.880889 61.768046 
L 187.880889 61.768046 
" style="fill:none;stroke:#ffffff;stroke-linecap:square;"/>
   </g>
   <g id="patch_3">
    <path d="M 57.6 307.584 
L 57.6 41.472 
" style="fill:none;stroke:#000000;stroke-linecap:square;stroke-linejoin:miter;stroke-width:0.8;"/>
   </g>
   <g id="patch_4">
    <path d="M 414.72 307.584 
L 414.72 41.472 
" style="fill:none;stroke:#000000;stroke-linecap:square;stroke-linejoin:miter;stroke-width:0.8;"/>
   </g>
   <g id="patch_5">
    <path d="M 57.6 307.584 
L 414.72 307.584 
" style="fill:none;stroke:#000000;stroke-linecap:square;stroke-linejoin:miter;stroke-width:0.8;"/>
   </g>
   <g id="patch_6">
    <path d="M 57.6 41.472 
L 414.72 41.472 
" style="fill:none;stroke:#000000;stroke-linecap:square;stroke-linejoin:miter;stroke-width:0.8;"/>
   </g>
  </g>
 </g>
 <defs>
  <clipPath id="pf814cebf25">
   <rect height="266.112" width="357.12" x="57.6" y="41.472"/>
  </clipPath>
 </defs>
</svg>
