<?xml version="1.0" encoding="utf-8" standalone="no"?>
<!DOCTYPE svg PUBLIC "-//W3C//DTD SVG 1.1//EN"
  "http://www.w3.org/Graphics/SVG/1.1/DTD/svg11.dtd">
<!-- Created with matplotlib (https://matplotlib.org/) -->
<svg height="345.6pt" version="1.1" viewBox="0 0 460.8 345.6" width="460.8pt" xmlns="http://www.w3.org/2000/svg" xmlns:xlink="http://www.w3.org/1999/xlink">
 <metadata>
  <rdf:RDF xmlns:cc="http://creativecommons.org/ns#" xmlns:dc="http://purl.org/dc/elements/1.1/" xmlns:rdf="http://www.w3.org/1999/02/22-rdf-syntax-ns#">
   <cc:Work>
    <dc:type rdf:resource="http://purl.org/dc/dcmitype/StillImage"/>
    <dc:date>2021-01-23T11:39:25.799836</dc:date>
    <dc:format>image/svg+xml</dc:format>
    <dc:creator>
     <cc:Agent>
      <dc:title>Matplotlib v3.3.3, https://matplotlib.org/</dc:title>
     </cc:Agent>
    </dc:creator>
   </cc:Work>
  </rdf:RDF>
 </metadata>
 <defs>
  <style type="text/css">*{stroke-linecap:butt;stroke-linejoin:round;}</style>
 </defs>
 <g id="figure_1">
  <g id="patch_1">
   <path d="M 0 345.6 
L 460.8 345.6 
L 460.8 0 
L 0 0 
z
" style="fill:#ffffff;"/>
  </g>
  <g id="axes_1">
   <g id="patch_2">
    <path d="M 57.6 307.584 
L 414.72 307.584 
L 414.72 41.472 
L 57.6 41.472 
z
" style="fill:#7d9051;"/>
   </g>
   <g id="matplotlib.axis_1">
    <g id="xtick_1">
     <g id="line2d_1">
      <defs>
       <path d="M 0 0 
L 0 3.5 
" id="m5374a5fb1f" style="stroke:#000000;stroke-width:0.8;"/>
      </defs>
      <g>
       <use style="stroke:#000000;stroke-width:0.8;" x="73.197491" xlink:href="#m5374a5fb1f" y="307.584"/>
      </g>
     </g>
     <g id="text_1">
      <!-- −20 -->
      <g transform="translate(62.645148 322.182437)scale(0.1 -0.1)">
       <defs>
        <path d="M 10.59375 35.5 
L 73.1875 35.5 
L 73.1875 27.203125 
L 10.59375 27.203125 
z
" id="DejaVuSans-8722"/>
        <path d="M 19.1875 8.296875 
L 53.609375 8.296875 
L 53.609375 0 
L 7.328125 0 
L 7.328125 8.296875 
Q 12.9375 14.109375 22.625 23.890625 
Q 32.328125 33.6875 34.8125 36.53125 
Q 39.546875 41.84375 41.421875 45.53125 
Q 43.3125 49.21875 43.3125 52.78125 
Q 43.3125 58.59375 39.234375 62.25 
Q 35.15625 65.921875 28.609375 65.921875 
Q 23.96875 65.921875 18.8125 64.3125 
Q 13.671875 62.703125 7.8125 59.421875 
L 7.8125 69.390625 
Q 13.765625 71.78125 18.9375 73 
Q 24.125 74.21875 28.421875 74.21875 
Q 39.75 74.21875 46.484375 68.546875 
Q 53.21875 62.890625 53.21875 53.421875 
Q 53.21875 48.921875 51.53125 44.890625 
Q 49.859375 40.875 45.40625 35.40625 
Q 44.1875 33.984375 37.640625 27.21875 
Q 31.109375 20.453125 19.1875 8.296875 
z
" id="DejaVuSans-50"/>
        <path d="M 31.78125 66.40625 
Q 24.171875 66.40625 20.328125 58.90625 
Q 16.5 51.421875 16.5 36.375 
Q 16.5 21.390625 20.328125 13.890625 
Q 24.171875 6.390625 31.78125 6.390625 
Q 39.453125 6.390625 43.28125 13.890625 
Q 47.125 21.390625 47.125 36.375 
Q 47.125 51.421875 43.28125 58.90625 
Q 39.453125 66.40625 31.78125 66.40625 
z
M 31.78125 74.21875 
Q 44.046875 74.21875 50.515625 64.515625 
Q 56.984375 54.828125 56.984375 36.375 
Q 56.984375 17.96875 50.515625 8.265625 
Q 44.046875 -1.421875 31.78125 -1.421875 
Q 19.53125 -1.421875 13.0625 8.265625 
Q 6.59375 17.96875 6.59375 36.375 
Q 6.59375 54.828125 13.0625 64.515625 
Q 19.53125 74.21875 31.78125 74.21875 
z
" id="DejaVuSans-48"/>
       </defs>
       <use xlink:href="#DejaVuSans-8722"/>
       <use x="83.789062" xlink:href="#DejaVuSans-50"/>
       <use x="147.412109" xlink:href="#DejaVuSans-48"/>
      </g>
     </g>
    </g>
    <g id="xtick_2">
     <g id="line2d_2">
      <g>
       <use style="stroke:#000000;stroke-width:0.8;" x="122.458341" xlink:href="#m5374a5fb1f" y="307.584"/>
      </g>
     </g>
     <g id="text_2">
      <!-- 0 -->
      <g transform="translate(119.277091 322.182437)scale(0.1 -0.1)">
       <use xlink:href="#DejaVuSans-48"/>
      </g>
     </g>
    </g>
    <g id="xtick_3">
     <g id="line2d_3">
      <g>
       <use style="stroke:#000000;stroke-width:0.8;" x="171.71919" xlink:href="#m5374a5fb1f" y="307.584"/>
      </g>
     </g>
     <g id="text_3">
      <!-- 20 -->
      <g transform="translate(165.35669 322.182437)scale(0.1 -0.1)">
       <use xlink:href="#DejaVuSans-50"/>
       <use x="63.623047" xlink:href="#DejaVuSans-48"/>
      </g>
     </g>
    </g>
    <g id="xtick_4">
     <g id="line2d_4">
      <g>
       <use style="stroke:#000000;stroke-width:0.8;" x="220.980039" xlink:href="#m5374a5fb1f" y="307.584"/>
      </g>
     </g>
     <g id="text_4">
      <!-- 40 -->
      <g transform="translate(214.617539 322.182437)scale(0.1 -0.1)">
       <defs>
        <path d="M 37.796875 64.3125 
L 12.890625 25.390625 
L 37.796875 25.390625 
z
M 35.203125 72.90625 
L 47.609375 72.90625 
L 47.609375 25.390625 
L 58.015625 25.390625 
L 58.015625 17.1875 
L 47.609375 17.1875 
L 47.609375 0 
L 37.796875 0 
L 37.796875 17.1875 
L 4.890625 17.1875 
L 4.890625 26.703125 
z
" id="DejaVuSans-52"/>
       </defs>
       <use xlink:href="#DejaVuSans-52"/>
       <use x="63.623047" xlink:href="#DejaVuSans-48"/>
      </g>
     </g>
    </g>
    <g id="xtick_5">
     <g id="line2d_5">
      <g>
       <use style="stroke:#000000;stroke-width:0.8;" x="270.240888" xlink:href="#m5374a5fb1f" y="307.584"/>
      </g>
     </g>
     <g id="text_5">
      <!-- 60 -->
      <g transform="translate(263.878388 322.182437)scale(0.1 -0.1)">
       <defs>
        <path d="M 33.015625 40.375 
Q 26.375 40.375 22.484375 35.828125 
Q 18.609375 31.296875 18.609375 23.390625 
Q 18.609375 15.53125 22.484375 10.953125 
Q 26.375 6.390625 33.015625 6.390625 
Q 39.65625 6.390625 43.53125 10.953125 
Q 47.40625 15.53125 47.40625 23.390625 
Q 47.40625 31.296875 43.53125 35.828125 
Q 39.65625 40.375 33.015625 40.375 
z
M 52.59375 71.296875 
L 52.59375 62.3125 
Q 48.875 64.0625 45.09375 64.984375 
Q 41.3125 65.921875 37.59375 65.921875 
Q 27.828125 65.921875 22.671875 59.328125 
Q 17.53125 52.734375 16.796875 39.40625 
Q 19.671875 43.65625 24.015625 45.921875 
Q 28.375 48.1875 33.59375 48.1875 
Q 44.578125 48.1875 50.953125 41.515625 
Q 57.328125 34.859375 57.328125 23.390625 
Q 57.328125 12.15625 50.6875 5.359375 
Q 44.046875 -1.421875 33.015625 -1.421875 
Q 20.359375 -1.421875 13.671875 8.265625 
Q 6.984375 17.96875 6.984375 36.375 
Q 6.984375 53.65625 15.1875 63.9375 
Q 23.390625 74.21875 37.203125 74.21875 
Q 40.921875 74.21875 44.703125 73.484375 
Q 48.484375 72.75 52.59375 71.296875 
z
" id="DejaVuSans-54"/>
       </defs>
       <use xlink:href="#DejaVuSans-54"/>
       <use x="63.623047" xlink:href="#DejaVuSans-48"/>
      </g>
     </g>
    </g>
    <g id="xtick_6">
     <g id="line2d_6">
      <g>
       <use style="stroke:#000000;stroke-width:0.8;" x="319.501738" xlink:href="#m5374a5fb1f" y="307.584"/>
      </g>
     </g>
     <g id="text_6">
      <!-- 80 -->
      <g transform="translate(313.139238 322.182437)scale(0.1 -0.1)">
       <defs>
        <path d="M 31.78125 34.625 
Q 24.75 34.625 20.71875 30.859375 
Q 16.703125 27.09375 16.703125 20.515625 
Q 16.703125 13.921875 20.71875 10.15625 
Q 24.75 6.390625 31.78125 6.390625 
Q 38.8125 6.390625 42.859375 10.171875 
Q 46.921875 13.96875 46.921875 20.515625 
Q 46.921875 27.09375 42.890625 30.859375 
Q 38.875 34.625 31.78125 34.625 
z
M 21.921875 38.8125 
Q 15.578125 40.375 12.03125 44.71875 
Q 8.5 49.078125 8.5 55.328125 
Q 8.5 64.0625 14.71875 69.140625 
Q 20.953125 74.21875 31.78125 74.21875 
Q 42.671875 74.21875 48.875 69.140625 
Q 55.078125 64.0625 55.078125 55.328125 
Q 55.078125 49.078125 51.53125 44.71875 
Q 48 40.375 41.703125 38.8125 
Q 48.828125 37.15625 52.796875 32.3125 
Q 56.78125 27.484375 56.78125 20.515625 
Q 56.78125 9.90625 50.3125 4.234375 
Q 43.84375 -1.421875 31.78125 -1.421875 
Q 19.734375 -1.421875 13.25 4.234375 
Q 6.78125 9.90625 6.78125 20.515625 
Q 6.78125 27.484375 10.78125 32.3125 
Q 14.796875 37.15625 21.921875 38.8125 
z
M 18.3125 54.390625 
Q 18.3125 48.734375 21.84375 45.5625 
Q 25.390625 42.390625 31.78125 42.390625 
Q 38.140625 42.390625 41.71875 45.5625 
Q 45.3125 48.734375 45.3125 54.390625 
Q 45.3125 60.0625 41.71875 63.234375 
Q 38.140625 66.40625 31.78125 66.40625 
Q 25.390625 66.40625 21.84375 63.234375 
Q 18.3125 60.0625 18.3125 54.390625 
z
" id="DejaVuSans-56"/>
       </defs>
       <use xlink:href="#DejaVuSans-56"/>
       <use x="63.623047" xlink:href="#DejaVuSans-48"/>
      </g>
     </g>
    </g>
    <g id="xtick_7">
     <g id="line2d_7">
      <g>
       <use style="stroke:#000000;stroke-width:0.8;" x="368.762587" xlink:href="#m5374a5fb1f" y="307.584"/>
      </g>
     </g>
     <g id="text_7">
      <!-- 100 -->
      <g transform="translate(359.218837 322.182437)scale(0.1 -0.1)">
       <defs>
        <path d="M 12.40625 8.296875 
L 28.515625 8.296875 
L 28.515625 63.921875 
L 10.984375 60.40625 
L 10.984375 69.390625 
L 28.421875 72.90625 
L 38.28125 72.90625 
L 38.28125 8.296875 
L 54.390625 8.296875 
L 54.390625 0 
L 12.40625 0 
z
" id="DejaVuSans-49"/>
       </defs>
       <use xlink:href="#DejaVuSans-49"/>
       <use x="63.623047" xlink:href="#DejaVuSans-48"/>
       <use x="127.246094" xlink:href="#DejaVuSans-48"/>
      </g>
     </g>
    </g>
   </g>
   <g id="matplotlib.axis_2">
    <g id="ytick_1">
     <g id="line2d_8">
      <defs>
       <path d="M 0 0 
L -3.5 0 
" id="mce00935cb2" style="stroke:#000000;stroke-width:0.8;"/>
      </defs>
      <g>
       <use style="stroke:#000000;stroke-width:0.8;" x="57.6" xlink:href="#mce00935cb2" y="270.327389"/>
      </g>
     </g>
     <g id="text_8">
      <!-- 20 -->
      <g transform="translate(37.875 274.126608)scale(0.1 -0.1)">
       <use xlink:href="#DejaVuSans-50"/>
       <use x="63.623047" xlink:href="#DejaVuSans-48"/>
      </g>
     </g>
    </g>
    <g id="ytick_2">
     <g id="line2d_9">
      <g>
       <use style="stroke:#000000;stroke-width:0.8;" x="57.6" xlink:href="#mce00935cb2" y="221.06654"/>
      </g>
     </g>
     <g id="text_9">
      <!-- 40 -->
      <g transform="translate(37.875 224.865759)scale(0.1 -0.1)">
       <use xlink:href="#DejaVuSans-52"/>
       <use x="63.623047" xlink:href="#DejaVuSans-48"/>
      </g>
     </g>
    </g>
    <g id="ytick_3">
     <g id="line2d_10">
      <g>
       <use style="stroke:#000000;stroke-width:0.8;" x="57.6" xlink:href="#mce00935cb2" y="171.805691"/>
      </g>
     </g>
     <g id="text_10">
      <!-- 60 -->
      <g transform="translate(37.875 175.60491)scale(0.1 -0.1)">
       <use xlink:href="#DejaVuSans-54"/>
       <use x="63.623047" xlink:href="#DejaVuSans-48"/>
      </g>
     </g>
    </g>
    <g id="ytick_4">
     <g id="line2d_11">
      <g>
       <use style="stroke:#000000;stroke-width:0.8;" x="57.6" xlink:href="#mce00935cb2" y="122.544842"/>
      </g>
     </g>
     <g id="text_11">
      <!-- 80 -->
      <g transform="translate(37.875 126.34406)scale(0.1 -0.1)">
       <use xlink:href="#DejaVuSans-56"/>
       <use x="63.623047" xlink:href="#DejaVuSans-48"/>
      </g>
     </g>
    </g>
    <g id="ytick_5">
     <g id="line2d_12">
      <g>
       <use style="stroke:#000000;stroke-width:0.8;" x="57.6" xlink:href="#mce00935cb2" y="73.283992"/>
      </g>
     </g>
     <g id="text_12">
      <!-- 100 -->
      <g transform="translate(31.5125 77.083211)scale(0.1 -0.1)">
       <use xlink:href="#DejaVuSans-49"/>
       <use x="63.623047" xlink:href="#DejaVuSans-48"/>
       <use x="127.246094" xlink:href="#DejaVuSans-48"/>
      </g>
     </g>
    </g>
   </g>
   <g id="line2d_13">
    <path clip-path="url(#p24a92a69b1)" d="M 147.088765 294.957814 
L 146.7932 287.556372 
L 146.783348 280.167244 
L 146.997633 272.785506 
L 147.532113 262.95304 
L 149.610921 230.992601 
L 149.783334 223.605937 
L 149.704516 216.214347 
L 149.386784 201.433629 
L 149.485306 196.514933 
L 149.773481 191.601163 
L 150.667566 181.783476 
L 151.288253 174.418979 
L 151.529631 169.502746 
L 151.588744 164.581587 
L 151.413868 157.19246 
L 150.85722 147.337827 
L 149.931116 132.566961 
L 149.763629 125.187686 
L 149.872003 120.271453 
L 150.194662 115.36261 
L 150.751309 110.466081 
L 151.559187 105.594183 
L 152.633074 100.754305 
L 153.995136 95.953835 
L 155.674931 91.239572 
L 157.711867 86.685406 
L 158.879349 84.493299 
L 160.152742 82.367693 
L 161.536972 80.320905 
L 163.036965 78.365249 
L 164.657647 76.503189 
L 166.403944 74.749503 
L 168.266004 73.106653 
L 170.236438 71.579567 
L 172.300468 70.170707 
L 174.453167 68.884999 
L 176.679757 67.724906 
L 178.970387 66.697817 
L 181.315203 65.803732 
L 183.706817 65.050041 
L 186.130451 64.436744 
L 188.578715 63.971229 
L 191.044221 63.646107 
L 193.522042 63.461379 
L 196.007252 63.414581 
L 198.492461 63.498325 
L 200.972745 63.710146 
L 203.440714 64.050046 
L 205.891441 64.510635 
L 208.322464 65.08945 
L 210.72393 65.784028 
L 213.090914 66.589443 
L 215.418489 67.505695 
L 217.696804 68.527857 
L 219.923394 69.658394 
L 222.088408 70.892378 
L 224.18692 72.22981 
L 226.211541 73.665764 
L 228.154882 75.202702 
L 230.014479 76.8357 
L 231.778017 78.564755 
L 233.445497 80.384944 
L 235.014455 82.291339 
L 236.489818 84.276551 
L 239.172071 88.446482 
L 241.516887 92.83316 
L 243.546434 97.375011 
L 245.292731 102.007994 
L 246.817355 106.690237 
L 251.139994 120.805934 
L 252.856735 125.461084 
L 254.851799 130.027565 
L 257.167059 134.436411 
L 258.457693 136.559553 
L 259.83946 138.613731 
L 261.322212 140.591554 
L 262.905948 142.485633 
L 264.598058 144.283654 
L 266.401005 145.980691 
L 268.3074 147.571816 
L 270.307391 149.054568 
L 272.388661 150.428945 
L 274.546287 151.690023 
L 276.770414 152.840264 
L 279.048728 153.872279 
L 281.371377 154.788531 
L 283.733435 155.584093 
L 286.122586 156.258967 
L 288.528979 156.813151 
L 293.391025 157.58901 
L 298.299868 157.98556 
L 303.245657 158.079155 
L 308.216077 157.948614 
L 315.676633 157.495414 
L 328.026328 156.694925 
L 332.8933 156.581625 
L 335.302155 156.608719 
L 335.302155 156.608719 
" style="fill:none;stroke:#fea952;stroke-linecap:square;"/>
   </g>
   <g id="line2d_14">
    <path clip-path="url(#p24a92a69b1)" d="M 137.250871 295.488 
L 136.941863 287.684439 
L 136.933152 279.970043 
L 137.155463 272.341721 
L 137.70146 262.302265 
L 139.842867 228.295638 
L 139.934336 221.261112 
L 139.718276 211.561551 
L 139.535211 201.325153 
L 139.644989 196.031791 
L 139.953666 190.803365 
L 140.858066 180.867529 
L 141.452679 173.847372 
L 141.679435 169.305545 
L 141.712317 162.354929 
L 141.462703 155.260132 
L 140.85847 145.552972 
L 140.085697 132.931607 
L 139.928943 127.717298 
L 139.946077 122.413831 
L 140.182148 117.056402 
L 140.668403 111.681391 
L 141.424698 106.280807 
L 142.474465 100.898468 
L 143.840122 95.522258 
L 145.572678 90.110912 
L 146.597386 87.410286 
L 147.740006 84.724858 
L 149.016073 82.054163 
L 150.427729 79.430161 
L 151.991683 76.848421 
L 153.719496 74.32488 
L 155.605427 71.897058 
L 157.676419 69.551376 
L 159.885859 67.361688 
L 162.230844 65.31935 
L 164.682131 63.442312 
L 167.248657 61.712311 
L 169.900844 60.14763 
L 172.648836 58.735082 
L 175.460246 57.492158 
L 178.353964 56.407121 
L 181.289919 55.498924 
L 184.290123 54.757981 
L 187.290679 54.203618 
L 190.311748 53.821203 
L 193.336553 53.610955 
L 196.339049 53.568 
L 199.330807 53.681888 
L 202.316942 53.950106 
L 205.260468 54.367394 
L 208.173406 54.926383 
L 211.059818 55.625194 
L 213.897633 56.457031 
L 216.699685 57.421999 
L 219.451368 58.516749 
L 222.157162 59.743186 
L 224.801998 61.098927 
L 227.383474 62.584098 
L 229.886527 64.193658 
L 232.323048 65.938233 
L 234.65576 67.799741 
L 236.911898 69.800725 
L 239.042625 71.909628 
L 241.05267 74.12426 
L 242.922016 76.414628 
L 244.660089 78.770925 
L 246.271771 81.178691 
L 247.773803 83.64279 
L 250.4465 88.670557 
L 252.716713 93.77345 
L 254.633392 98.874734 
L 256.246371 103.833858 
L 260.429228 117.523346 
L 261.946716 121.661413 
L 263.6619 125.617647 
L 265.585784 129.318763 
L 267.722374 132.704 
L 270.080586 135.733611 
L 271.350693 137.109592 
L 272.713976 138.416852 
L 274.174946 139.657452 
L 277.360127 141.923078 
L 280.835572 143.86587 
L 284.5161 145.451723 
L 288.333634 146.658107 
L 292.293449 147.493534 
L 296.459365 147.997751 
L 300.829118 148.212383 
L 305.377461 148.191366 
L 312.509561 147.839281 
L 327.698104 146.848224 
L 333.004104 146.730079 
L 335.41296 146.757172 
L 335.41296 146.757172 
" style="fill:none;stroke:#ffffff;stroke-linecap:square;"/>
   </g>
   <g id="line2d_15">
    <path clip-path="url(#p24a92a69b1)" d="M 156.926659 294.427628 
L 156.644538 287.428304 
L 156.633544 280.364445 
L 156.839802 273.229291 
L 157.362766 263.603816 
L 159.45772 231.317871 
L 159.635499 223.615789 
L 159.553358 215.958277 
L 159.238356 201.542104 
L 159.325622 196.998075 
L 159.593297 192.398962 
L 160.477066 182.699423 
L 161.123827 174.990585 
L 161.379827 169.699947 
L 161.440318 164.47322 
L 161.255631 156.739739 
L 160.68602 146.65964 
L 159.776536 132.202316 
L 159.615087 125.306141 
L 159.709754 120.80429 
L 159.996463 116.357567 
L 160.492302 111.941989 
L 161.206625 107.592231 
L 162.149019 103.306176 
L 163.332962 99.095533 
L 164.752476 95.068857 
L 166.407662 91.31665 
L 168.313801 87.886965 
L 170.468503 84.83344 
L 171.638875 83.455002 
L 172.92203 82.137318 
L 174.301164 80.893957 
L 175.790746 79.716822 
L 177.352279 78.629102 
L 179.00549 77.622367 
L 180.710678 76.714729 
L 184.276442 75.200344 
L 187.970779 74.115506 
L 191.776694 73.471011 
L 193.70753 73.311803 
L 197.654116 73.314761 
L 201.620959 73.732698 
L 205.58511 74.553706 
L 209.482143 75.756886 
L 213.236445 77.312529 
L 216.793342 79.200659 
L 220.100034 81.393295 
L 223.11706 83.870674 
L 225.838324 86.645628 
L 228.319546 89.782177 
L 230.570338 93.250173 
L 232.587274 96.995764 
L 234.376156 100.976572 
L 235.952071 105.141253 
L 237.388338 109.546616 
L 241.85076 124.088522 
L 243.766754 129.260754 
L 246.041698 134.437482 
L 247.335959 137.006435 
L 248.748334 139.554058 
L 250.282882 142.058437 
L 251.956546 144.523462 
L 253.764049 146.911318 
L 255.731309 149.237656 
L 257.845423 151.457717 
L 260.088034 153.544529 
L 262.439854 155.48618 
L 264.878367 157.275939 
L 267.417196 158.934813 
L 270.020501 160.441167 
L 272.705256 161.814658 
L 275.433333 163.037112 
L 278.226655 164.125338 
L 281.055249 165.065263 
L 283.911539 165.859827 
L 286.765702 166.506247 
L 289.611776 167.014538 
L 295.219212 167.663025 
L 300.711482 167.916371 
L 306.079348 167.883201 
L 313.873284 167.496373 
L 328.354551 166.541626 
L 332.782495 166.433172 
L 335.19135 166.460266 
L 335.19135 166.460266 
" style="fill:none;stroke:#ffffff;stroke-linecap:square;"/>
   </g>
   <g id="patch_3">
    <path d="M 57.6 307.584 
L 57.6 41.472 
" style="fill:none;stroke:#000000;stroke-linecap:square;stroke-linejoin:miter;stroke-width:0.8;"/>
   </g>
   <g id="patch_4">
    <path d="M 414.72 307.584 
L 414.72 41.472 
" style="fill:none;stroke:#000000;stroke-linecap:square;stroke-linejoin:miter;stroke-width:0.8;"/>
   </g>
   <g id="patch_5">
    <path d="M 57.6 307.584 
L 414.72 307.584 
" style="fill:none;stroke:#000000;stroke-linecap:square;stroke-linejoin:miter;stroke-width:0.8;"/>
   </g>
   <g id="patch_6">
    <path d="M 57.6 41.472 
L 414.72 41.472 
" style="fill:none;stroke:#000000;stroke-linecap:square;stroke-linejoin:miter;stroke-width:0.8;"/>
   </g>
  </g>
 </g>
 <defs>
  <clipPath id="p24a92a69b1">
   <rect height="266.112" width="357.12" x="57.6" y="41.472"/>
  </clipPath>
 </defs>
</svg>
