<?xml version="1.0" encoding="utf-8" standalone="no"?>
<!DOCTYPE svg PUBLIC "-//W3C//DTD SVG 1.1//EN"
  "http://www.w3.org/Graphics/SVG/1.1/DTD/svg11.dtd">
<!-- Created with matplotlib (https://matplotlib.org/) -->
<svg height="345.6pt" version="1.1" viewBox="0 0 460.8 345.6" width="460.8pt" xmlns="http://www.w3.org/2000/svg" xmlns:xlink="http://www.w3.org/1999/xlink">
 <metadata>
  <rdf:RDF xmlns:cc="http://creativecommons.org/ns#" xmlns:dc="http://purl.org/dc/elements/1.1/" xmlns:rdf="http://www.w3.org/1999/02/22-rdf-syntax-ns#">
   <cc:Work>
    <dc:type rdf:resource="http://purl.org/dc/dcmitype/StillImage"/>
    <dc:date>2021-01-23T11:55:03.186515</dc:date>
    <dc:format>image/svg+xml</dc:format>
    <dc:creator>
     <cc:Agent>
      <dc:title>Matplotlib v3.3.3, https://matplotlib.org/</dc:title>
     </cc:Agent>
    </dc:creator>
   </cc:Work>
  </rdf:RDF>
 </metadata>
 <defs>
  <style type="text/css">*{stroke-linecap:butt;stroke-linejoin:round;}</style>
 </defs>
 <g id="figure_1">
  <g id="patch_1">
   <path d="M 0 345.6 
L 460.8 345.6 
L 460.8 0 
L 0 0 
z
" style="fill:#ffffff;"/>
  </g>
  <g id="axes_1">
   <g id="patch_2">
    <path d="M 57.6 307.584 
L 414.72 307.584 
L 414.72 41.472 
L 57.6 41.472 
z
" style="fill:#7d9051;"/>
   </g>
   <g id="matplotlib.axis_1">
    <g id="xtick_1">
     <g id="line2d_1">
      <defs>
       <path d="M 0 0 
L 0 3.5 
" id="ma2b9e82b60" style="stroke:#000000;stroke-width:0.8;"/>
      </defs>
      <g>
       <use style="stroke:#000000;stroke-width:0.8;" x="108.019971" xlink:href="#ma2b9e82b60" y="307.584"/>
      </g>
     </g>
     <g id="text_1">
      <!-- 20 -->
      <g transform="translate(101.657471 322.182437)scale(0.1 -0.1)">
       <defs>
        <path d="M 19.1875 8.296875 
L 53.609375 8.296875 
L 53.609375 0 
L 7.328125 0 
L 7.328125 8.296875 
Q 12.9375 14.109375 22.625 23.890625 
Q 32.328125 33.6875 34.8125 36.53125 
Q 39.546875 41.84375 41.421875 45.53125 
Q 43.3125 49.21875 43.3125 52.78125 
Q 43.3125 58.59375 39.234375 62.25 
Q 35.15625 65.921875 28.609375 65.921875 
Q 23.96875 65.921875 18.8125 64.3125 
Q 13.671875 62.703125 7.8125 59.421875 
L 7.8125 69.390625 
Q 13.765625 71.78125 18.9375 73 
Q 24.125 74.21875 28.421875 74.21875 
Q 39.75 74.21875 46.484375 68.546875 
Q 53.21875 62.890625 53.21875 53.421875 
Q 53.21875 48.921875 51.53125 44.890625 
Q 49.859375 40.875 45.40625 35.40625 
Q 44.1875 33.984375 37.640625 27.21875 
Q 31.109375 20.453125 19.1875 8.296875 
z
" id="DejaVuSans-50"/>
        <path d="M 31.78125 66.40625 
Q 24.171875 66.40625 20.328125 58.90625 
Q 16.5 51.421875 16.5 36.375 
Q 16.5 21.390625 20.328125 13.890625 
Q 24.171875 6.390625 31.78125 6.390625 
Q 39.453125 6.390625 43.28125 13.890625 
Q 47.125 21.390625 47.125 36.375 
Q 47.125 51.421875 43.28125 58.90625 
Q 39.453125 66.40625 31.78125 66.40625 
z
M 31.78125 74.21875 
Q 44.046875 74.21875 50.515625 64.515625 
Q 56.984375 54.828125 56.984375 36.375 
Q 56.984375 17.96875 50.515625 8.265625 
Q 44.046875 -1.421875 31.78125 -1.421875 
Q 19.53125 -1.421875 13.0625 8.265625 
Q 6.59375 17.96875 6.59375 36.375 
Q 6.59375 54.828125 13.0625 64.515625 
Q 19.53125 74.21875 31.78125 74.21875 
z
" id="DejaVuSans-48"/>
       </defs>
       <use xlink:href="#DejaVuSans-50"/>
       <use x="63.623047" xlink:href="#DejaVuSans-48"/>
      </g>
     </g>
    </g>
    <g id="xtick_2">
     <g id="line2d_2">
      <g>
       <use style="stroke:#000000;stroke-width:0.8;" x="173.039395" xlink:href="#ma2b9e82b60" y="307.584"/>
      </g>
     </g>
     <g id="text_2">
      <!-- 40 -->
      <g transform="translate(166.676895 322.182437)scale(0.1 -0.1)">
       <defs>
        <path d="M 37.796875 64.3125 
L 12.890625 25.390625 
L 37.796875 25.390625 
z
M 35.203125 72.90625 
L 47.609375 72.90625 
L 47.609375 25.390625 
L 58.015625 25.390625 
L 58.015625 17.1875 
L 47.609375 17.1875 
L 47.609375 0 
L 37.796875 0 
L 37.796875 17.1875 
L 4.890625 17.1875 
L 4.890625 26.703125 
z
" id="DejaVuSans-52"/>
       </defs>
       <use xlink:href="#DejaVuSans-52"/>
       <use x="63.623047" xlink:href="#DejaVuSans-48"/>
      </g>
     </g>
    </g>
    <g id="xtick_3">
     <g id="line2d_3">
      <g>
       <use style="stroke:#000000;stroke-width:0.8;" x="238.05882" xlink:href="#ma2b9e82b60" y="307.584"/>
      </g>
     </g>
     <g id="text_3">
      <!-- 60 -->
      <g transform="translate(231.69632 322.182437)scale(0.1 -0.1)">
       <defs>
        <path d="M 33.015625 40.375 
Q 26.375 40.375 22.484375 35.828125 
Q 18.609375 31.296875 18.609375 23.390625 
Q 18.609375 15.53125 22.484375 10.953125 
Q 26.375 6.390625 33.015625 6.390625 
Q 39.65625 6.390625 43.53125 10.953125 
Q 47.40625 15.53125 47.40625 23.390625 
Q 47.40625 31.296875 43.53125 35.828125 
Q 39.65625 40.375 33.015625 40.375 
z
M 52.59375 71.296875 
L 52.59375 62.3125 
Q 48.875 64.0625 45.09375 64.984375 
Q 41.3125 65.921875 37.59375 65.921875 
Q 27.828125 65.921875 22.671875 59.328125 
Q 17.53125 52.734375 16.796875 39.40625 
Q 19.671875 43.65625 24.015625 45.921875 
Q 28.375 48.1875 33.59375 48.1875 
Q 44.578125 48.1875 50.953125 41.515625 
Q 57.328125 34.859375 57.328125 23.390625 
Q 57.328125 12.15625 50.6875 5.359375 
Q 44.046875 -1.421875 33.015625 -1.421875 
Q 20.359375 -1.421875 13.671875 8.265625 
Q 6.984375 17.96875 6.984375 36.375 
Q 6.984375 53.65625 15.1875 63.9375 
Q 23.390625 74.21875 37.203125 74.21875 
Q 40.921875 74.21875 44.703125 73.484375 
Q 48.484375 72.75 52.59375 71.296875 
z
" id="DejaVuSans-54"/>
       </defs>
       <use xlink:href="#DejaVuSans-54"/>
       <use x="63.623047" xlink:href="#DejaVuSans-48"/>
      </g>
     </g>
    </g>
    <g id="xtick_4">
     <g id="line2d_4">
      <g>
       <use style="stroke:#000000;stroke-width:0.8;" x="303.078244" xlink:href="#ma2b9e82b60" y="307.584"/>
      </g>
     </g>
     <g id="text_4">
      <!-- 80 -->
      <g transform="translate(296.715744 322.182437)scale(0.1 -0.1)">
       <defs>
        <path d="M 31.78125 34.625 
Q 24.75 34.625 20.71875 30.859375 
Q 16.703125 27.09375 16.703125 20.515625 
Q 16.703125 13.921875 20.71875 10.15625 
Q 24.75 6.390625 31.78125 6.390625 
Q 38.8125 6.390625 42.859375 10.171875 
Q 46.921875 13.96875 46.921875 20.515625 
Q 46.921875 27.09375 42.890625 30.859375 
Q 38.875 34.625 31.78125 34.625 
z
M 21.921875 38.8125 
Q 15.578125 40.375 12.03125 44.71875 
Q 8.5 49.078125 8.5 55.328125 
Q 8.5 64.0625 14.71875 69.140625 
Q 20.953125 74.21875 31.78125 74.21875 
Q 42.671875 74.21875 48.875 69.140625 
Q 55.078125 64.0625 55.078125 55.328125 
Q 55.078125 49.078125 51.53125 44.71875 
Q 48 40.375 41.703125 38.8125 
Q 48.828125 37.15625 52.796875 32.3125 
Q 56.78125 27.484375 56.78125 20.515625 
Q 56.78125 9.90625 50.3125 4.234375 
Q 43.84375 -1.421875 31.78125 -1.421875 
Q 19.734375 -1.421875 13.25 4.234375 
Q 6.78125 9.90625 6.78125 20.515625 
Q 6.78125 27.484375 10.78125 32.3125 
Q 14.796875 37.15625 21.921875 38.8125 
z
M 18.3125 54.390625 
Q 18.3125 48.734375 21.84375 45.5625 
Q 25.390625 42.390625 31.78125 42.390625 
Q 38.140625 42.390625 41.71875 45.5625 
Q 45.3125 48.734375 45.3125 54.390625 
Q 45.3125 60.0625 41.71875 63.234375 
Q 38.140625 66.40625 31.78125 66.40625 
Q 25.390625 66.40625 21.84375 63.234375 
Q 18.3125 60.0625 18.3125 54.390625 
z
" id="DejaVuSans-56"/>
       </defs>
       <use xlink:href="#DejaVuSans-56"/>
       <use x="63.623047" xlink:href="#DejaVuSans-48"/>
      </g>
     </g>
    </g>
    <g id="xtick_5">
     <g id="line2d_5">
      <g>
       <use style="stroke:#000000;stroke-width:0.8;" x="368.097668" xlink:href="#ma2b9e82b60" y="307.584"/>
      </g>
     </g>
     <g id="text_5">
      <!-- 100 -->
      <g transform="translate(358.553918 322.182437)scale(0.1 -0.1)">
       <defs>
        <path d="M 12.40625 8.296875 
L 28.515625 8.296875 
L 28.515625 63.921875 
L 10.984375 60.40625 
L 10.984375 69.390625 
L 28.421875 72.90625 
L 38.28125 72.90625 
L 38.28125 8.296875 
L 54.390625 8.296875 
L 54.390625 0 
L 12.40625 0 
z
" id="DejaVuSans-49"/>
       </defs>
       <use xlink:href="#DejaVuSans-49"/>
       <use x="63.623047" xlink:href="#DejaVuSans-48"/>
       <use x="127.246094" xlink:href="#DejaVuSans-48"/>
      </g>
     </g>
    </g>
   </g>
   <g id="matplotlib.axis_2">
    <g id="ytick_1">
     <g id="line2d_6">
      <defs>
       <path d="M 0 0 
L -3.5 0 
" id="mcccb71cbf2" style="stroke:#000000;stroke-width:0.8;"/>
      </defs>
      <g>
       <use style="stroke:#000000;stroke-width:0.8;" x="57.6" xlink:href="#mcccb71cbf2" y="286.749007"/>
      </g>
     </g>
     <g id="text_6">
      <!-- 10 -->
      <g transform="translate(37.875 290.548226)scale(0.1 -0.1)">
       <use xlink:href="#DejaVuSans-49"/>
       <use x="63.623047" xlink:href="#DejaVuSans-48"/>
      </g>
     </g>
    </g>
    <g id="ytick_2">
     <g id="line2d_7">
      <g>
       <use style="stroke:#000000;stroke-width:0.8;" x="57.6" xlink:href="#mcccb71cbf2" y="254.239295"/>
      </g>
     </g>
     <g id="text_7">
      <!-- 20 -->
      <g transform="translate(37.875 258.038514)scale(0.1 -0.1)">
       <use xlink:href="#DejaVuSans-50"/>
       <use x="63.623047" xlink:href="#DejaVuSans-48"/>
      </g>
     </g>
    </g>
    <g id="ytick_3">
     <g id="line2d_8">
      <g>
       <use style="stroke:#000000;stroke-width:0.8;" x="57.6" xlink:href="#mcccb71cbf2" y="221.729583"/>
      </g>
     </g>
     <g id="text_8">
      <!-- 30 -->
      <g transform="translate(37.875 225.528802)scale(0.1 -0.1)">
       <defs>
        <path d="M 40.578125 39.3125 
Q 47.65625 37.796875 51.625 33 
Q 55.609375 28.21875 55.609375 21.1875 
Q 55.609375 10.40625 48.1875 4.484375 
Q 40.765625 -1.421875 27.09375 -1.421875 
Q 22.515625 -1.421875 17.65625 -0.515625 
Q 12.796875 0.390625 7.625 2.203125 
L 7.625 11.71875 
Q 11.71875 9.328125 16.59375 8.109375 
Q 21.484375 6.890625 26.8125 6.890625 
Q 36.078125 6.890625 40.9375 10.546875 
Q 45.796875 14.203125 45.796875 21.1875 
Q 45.796875 27.640625 41.28125 31.265625 
Q 36.765625 34.90625 28.71875 34.90625 
L 20.21875 34.90625 
L 20.21875 43.015625 
L 29.109375 43.015625 
Q 36.375 43.015625 40.234375 45.921875 
Q 44.09375 48.828125 44.09375 54.296875 
Q 44.09375 59.90625 40.109375 62.90625 
Q 36.140625 65.921875 28.71875 65.921875 
Q 24.65625 65.921875 20.015625 65.03125 
Q 15.375 64.15625 9.8125 62.3125 
L 9.8125 71.09375 
Q 15.4375 72.65625 20.34375 73.4375 
Q 25.25 74.21875 29.59375 74.21875 
Q 40.828125 74.21875 47.359375 69.109375 
Q 53.90625 64.015625 53.90625 55.328125 
Q 53.90625 49.265625 50.4375 45.09375 
Q 46.96875 40.921875 40.578125 39.3125 
z
" id="DejaVuSans-51"/>
       </defs>
       <use xlink:href="#DejaVuSans-51"/>
       <use x="63.623047" xlink:href="#DejaVuSans-48"/>
      </g>
     </g>
    </g>
    <g id="ytick_4">
     <g id="line2d_9">
      <g>
       <use style="stroke:#000000;stroke-width:0.8;" x="57.6" xlink:href="#mcccb71cbf2" y="189.219871"/>
      </g>
     </g>
     <g id="text_9">
      <!-- 40 -->
      <g transform="translate(37.875 193.01909)scale(0.1 -0.1)">
       <use xlink:href="#DejaVuSans-52"/>
       <use x="63.623047" xlink:href="#DejaVuSans-48"/>
      </g>
     </g>
    </g>
    <g id="ytick_5">
     <g id="line2d_10">
      <g>
       <use style="stroke:#000000;stroke-width:0.8;" x="57.6" xlink:href="#mcccb71cbf2" y="156.710159"/>
      </g>
     </g>
     <g id="text_10">
      <!-- 50 -->
      <g transform="translate(37.875 160.509378)scale(0.1 -0.1)">
       <defs>
        <path d="M 10.796875 72.90625 
L 49.515625 72.90625 
L 49.515625 64.59375 
L 19.828125 64.59375 
L 19.828125 46.734375 
Q 21.96875 47.46875 24.109375 47.828125 
Q 26.265625 48.1875 28.421875 48.1875 
Q 40.625 48.1875 47.75 41.5 
Q 54.890625 34.8125 54.890625 23.390625 
Q 54.890625 11.625 47.5625 5.09375 
Q 40.234375 -1.421875 26.90625 -1.421875 
Q 22.3125 -1.421875 17.546875 -0.640625 
Q 12.796875 0.140625 7.71875 1.703125 
L 7.71875 11.625 
Q 12.109375 9.234375 16.796875 8.0625 
Q 21.484375 6.890625 26.703125 6.890625 
Q 35.15625 6.890625 40.078125 11.328125 
Q 45.015625 15.765625 45.015625 23.390625 
Q 45.015625 31 40.078125 35.4375 
Q 35.15625 39.890625 26.703125 39.890625 
Q 22.75 39.890625 18.8125 39.015625 
Q 14.890625 38.140625 10.796875 36.28125 
z
" id="DejaVuSans-53"/>
       </defs>
       <use xlink:href="#DejaVuSans-53"/>
       <use x="63.623047" xlink:href="#DejaVuSans-48"/>
      </g>
     </g>
    </g>
    <g id="ytick_6">
     <g id="line2d_11">
      <g>
       <use style="stroke:#000000;stroke-width:0.8;" x="57.6" xlink:href="#mcccb71cbf2" y="124.200447"/>
      </g>
     </g>
     <g id="text_11">
      <!-- 60 -->
      <g transform="translate(37.875 127.999666)scale(0.1 -0.1)">
       <use xlink:href="#DejaVuSans-54"/>
       <use x="63.623047" xlink:href="#DejaVuSans-48"/>
      </g>
     </g>
    </g>
    <g id="ytick_7">
     <g id="line2d_12">
      <g>
       <use style="stroke:#000000;stroke-width:0.8;" x="57.6" xlink:href="#mcccb71cbf2" y="91.690735"/>
      </g>
     </g>
     <g id="text_12">
      <!-- 70 -->
      <g transform="translate(37.875 95.489954)scale(0.1 -0.1)">
       <defs>
        <path d="M 8.203125 72.90625 
L 55.078125 72.90625 
L 55.078125 68.703125 
L 28.609375 0 
L 18.3125 0 
L 43.21875 64.59375 
L 8.203125 64.59375 
z
" id="DejaVuSans-55"/>
       </defs>
       <use xlink:href="#DejaVuSans-55"/>
       <use x="63.623047" xlink:href="#DejaVuSans-48"/>
      </g>
     </g>
    </g>
    <g id="ytick_8">
     <g id="line2d_13">
      <g>
       <use style="stroke:#000000;stroke-width:0.8;" x="57.6" xlink:href="#mcccb71cbf2" y="59.181023"/>
      </g>
     </g>
     <g id="text_13">
      <!-- 80 -->
      <g transform="translate(37.875 62.980242)scale(0.1 -0.1)">
       <use xlink:href="#DejaVuSans-56"/>
       <use x="63.623047" xlink:href="#DejaVuSans-48"/>
      </g>
     </g>
    </g>
   </g>
   <g id="line2d_14">
    <path clip-path="url(#p5597a20a4e)" d="M 341.355178 286.749007 
L 340.698482 280.338092 
L 340.360381 273.849154 
L 340.35713 267.314702 
L 340.695231 260.767246 
L 341.381186 254.239295 
L 342.427999 247.76011 
L 343.845422 241.3687 
L 345.643209 235.087824 
L 346.68352 232.002652 
L 349.066482 225.959097 
L 350.409133 223.007215 
L 353.380521 217.256247 
L 356.660751 211.658075 
L 360.142541 206.160682 
L 370.789472 189.697764 
L 374.085957 184.06058 
L 377.112611 178.290106 
L 379.78816 172.363586 
L 380.965012 169.33043 
L 382.021577 166.245258 
L 382.951355 163.111322 
L 383.744592 159.928621 
L 384.394786 156.710159 
L 384.901938 153.459188 
L 385.256294 150.191962 
L 385.454603 146.911732 
L 385.493614 143.625 
L 385.363576 140.348021 
L 385.061235 137.080795 
L 384.580092 133.836326 
L 383.920144 130.624366 
L 383.084645 127.451418 
L 382.080095 124.320733 
L 380.909745 121.248565 
L 379.580098 118.238166 
L 378.100906 115.296037 
L 376.47542 112.435183 
L 374.710143 109.658853 
L 372.811576 106.980053 
L 370.786221 104.398782 
L 368.64058 101.931295 
L 366.381155 99.571089 
L 364.017699 97.314915 
L 361.556714 95.166023 
L 359.004701 93.121163 
L 356.371414 91.180333 
L 353.663355 89.337032 
L 350.887026 87.591261 
L 345.165317 84.389054 
L 339.258302 81.570462 
L 333.195241 79.145237 
L 330.106818 78.088672 
L 326.985886 77.142639 
L 323.829193 76.30714 
L 320.646492 75.588675 
L 317.434532 74.987245 
L 314.193314 74.502851 
L 310.93259 74.145244 
L 307.65236 73.917676 
L 304.365628 73.823398 
L 301.078896 73.862409 
L 297.798666 74.047715 
L 294.534691 74.379314 
L 291.296724 74.863708 
L 288.088015 75.500899 
L 284.921569 76.300638 
L 281.800637 77.266176 
L 278.738222 78.397514 
L 275.737576 79.691401 
L 272.798698 81.141334 
L 269.931341 82.731059 
L 267.138757 84.460575 
L 264.427447 86.31688 
L 261.797411 88.290219 
L 259.255152 90.377343 
L 256.80717 92.565247 
L 254.456718 94.847428 
L 252.207046 97.214135 
L 250.051652 99.662117 
L 246.004193 104.76289 
L 242.265576 110.100985 
L 238.780535 115.617883 
L 235.503556 121.261569 
L 232.389126 126.983279 
L 227.964554 135.682878 
L 223.780554 144.489759 
L 218.465216 156.339549 
L 210.575109 174.171126 
L 206.404113 183.020269 
L 203.44898 188.84601 
L 200.298789 194.561217 
L 196.904775 200.120378 
L 193.218174 205.468225 
L 189.19022 210.559246 
L 184.817664 215.377186 
L 180.146019 219.925294 
L 175.214295 224.210074 
L 170.064757 228.24453 
L 164.746168 232.02866 
L 159.278034 235.57547 
L 153.670109 238.881707 
L 147.932145 241.950624 
L 142.067393 244.78222 
L 136.088857 247.379746 
L 130.003039 249.726947 
L 123.819691 251.804318 
L 117.551819 253.58585 
L 111.209174 255.048787 
L 104.804761 256.16387 
L 98.348332 256.911594 
L 91.852892 257.262699 
L 85.328192 257.197679 
L 82.057715 256.99937 
L 78.783987 256.687277 
L 75.510259 256.261399 
L 75.510259 256.261399 
" style="fill:none;stroke:#fea952;stroke-linecap:square;"/>
   </g>
   <g id="line2d_15">
    <path clip-path="url(#p5597a20a4e)" d="M 328.436543 288.235571 
L 327.722256 281.185785 
L 327.357586 274.017517 
L 327.362987 266.811453 
L 327.745493 259.581797 
L 328.515838 252.346196 
L 329.69328 245.12801 
L 331.290541 237.98108 
L 332.25138 234.443301 
L 333.320998 230.932811 
L 334.511884 227.425285 
L 335.807774 223.998039 
L 337.229521 220.575105 
L 338.770278 217.207381 
L 342.090789 210.803109 
L 345.627635 204.775388 
L 349.261199 199.040471 
L 359.628475 183.024445 
L 362.653103 177.864543 
L 365.352054 172.741203 
L 367.664824 167.659783 
L 369.554782 162.546603 
L 370.333463 159.966515 
L 370.99821 157.353594 
L 371.546302 154.705796 
L 371.973868 152.057039 
L 372.276108 149.407233 
L 372.451634 146.757394 
L 372.499956 144.140622 
L 372.415013 141.546246 
L 372.198024 138.988366 
L 371.842298 136.453504 
L 371.344919 133.935671 
L 370.70257 131.424483 
L 369.928124 128.950055 
L 369.014493 126.502516 
L 367.961936 124.079342 
L 366.794593 121.720079 
L 365.501899 119.412492 
L 364.100679 117.178182 
L 362.58102 115.007303 
L 360.973417 112.931654 
L 359.247082 110.923692 
L 357.40198 108.977228 
L 355.464662 107.110148 
L 353.425371 105.314042 
L 351.289487 103.589041 
L 346.74121 100.345435 
L 341.888578 97.393391 
L 336.818816 94.755828 
L 331.619101 92.459241 
L 326.334516 90.53338 
L 320.965741 88.991842 
L 315.512469 87.848299 
L 310.032601 87.117947 
L 307.279504 86.916214 
L 301.812337 86.845594 
L 299.113013 86.985006 
L 296.458642 87.240085 
L 293.829597 87.618534 
L 291.272369 88.108869 
L 288.764919 88.723587 
L 286.306949 89.464298 
L 283.887234 90.338565 
L 281.491086 91.353224 
L 279.104087 92.514244 
L 276.778211 93.786437 
L 274.48507 95.190566 
L 272.231835 96.718445 
L 270.048748 98.340914 
L 267.920805 100.073088 
L 265.865815 101.894876 
L 263.881941 103.806569 
L 260.110319 107.903734 
L 256.553353 112.36659 
L 253.186029 117.161065 
L 249.973345 122.237705 
L 246.883217 127.554768 
L 243.914468 133.00553 
L 239.659901 141.367935 
L 235.60275 149.906095 
L 230.375532 161.559261 
L 222.387042 179.609807 
L 218.042899 188.820242 
L 214.901432 195.005747 
L 211.479173 201.202002 
L 207.718651 207.342642 
L 203.5505 213.364051 
L 201.309056 216.285049 
L 198.958087 219.143523 
L 196.533421 221.892458 
L 194.019286 224.565829 
L 188.802182 229.629513 
L 183.353503 234.351786 
L 177.717123 238.75844 
L 171.938478 242.862482 
L 166.004727 246.704379 
L 159.917968 250.286324 
L 153.711268 253.599777 
L 147.374039 256.654058 
L 140.898256 259.46158 
L 134.289647 262.004 
L 127.528955 264.267961 
L 120.641537 266.217345 
L 113.614275 267.828322 
L 106.496128 269.057291 
L 99.258193 269.883609 
L 95.597654 270.133668 
L 91.943644 270.266267 
L 88.242588 270.28464 
L 84.541132 270.177724 
L 80.823616 269.944563 
L 73.832727 269.156627 
L 73.832727 269.156627 
" style="fill:none;stroke:#ffffff;stroke-linecap:square;"/>
   </g>
   <g id="line2d_16">
    <path clip-path="url(#p5597a20a4e)" d="M 354.273814 285.262443 
L 353.674708 279.490399 
L 353.363176 273.680791 
L 353.351274 267.81795 
L 353.64497 261.952694 
L 354.246535 256.132395 
L 355.162718 250.39221 
L 356.400304 244.75632 
L 357.965421 239.242837 
L 359.84795 233.921448 
L 362.047988 228.807049 
L 364.670252 223.709384 
L 367.693867 218.540761 
L 371.023884 213.280893 
L 380.119073 199.328673 
L 383.755911 193.346701 
L 387.236988 187.07617 
L 390.441088 180.4987 
L 391.911496 177.067388 
L 393.26746 173.543597 
L 394.488372 169.943913 
L 395.569247 166.256128 
L 396.490974 162.503647 
L 397.24327 158.714523 
L 397.830008 154.861337 
L 398.236479 150.976691 
L 398.457572 147.06607 
L 398.487273 143.109379 
L 398.312138 139.149796 
L 397.924446 135.173225 
L 397.317886 131.219148 
L 396.495369 127.313062 
L 395.46672 123.478354 
L 394.232066 119.691411 
L 392.804997 115.994615 
L 391.19826 112.396991 
L 389.407219 108.871996 
L 387.448942 105.457873 
L 385.319607 102.139525 
L 383.042132 98.952803 
L 380.599024 95.865909 
L 378.034077 92.938897 
L 375.36033 90.164951 
L 372.570735 87.519683 
L 369.688056 85.018005 
L 366.719916 82.653284 
L 363.68857 80.430437 
L 360.585501 78.32863 
L 357.423269 76.349439 
L 354.215781 74.492645 
L 350.949822 72.742573 
L 347.647066 71.10941 
L 344.29009 69.579543 
L 340.870202 68.152427 
L 337.404438 66.84143 
L 333.87912 65.643964 
L 330.313127 64.571622 
L 326.692644 63.622438 
L 323.039834 62.806933 
L 319.356596 62.126192 
L 315.610963 61.576471 
L 311.832579 61.17254 
L 308.025216 60.919137 
L 304.21129 60.820429 
L 300.345456 60.879224 
L 296.48432 61.110423 
L 292.610741 61.518542 
L 288.763851 62.108883 
L 284.903661 62.892929 
L 281.078219 63.877688 
L 277.294325 65.068055 
L 273.58921 66.456463 
L 269.984065 68.029577 
L 266.493309 69.768423 
L 263.084471 71.67568 
L 259.792444 73.730584 
L 256.623059 75.915315 
L 253.546074 78.239525 
L 250.589499 80.681597 
L 247.748526 83.235617 
L 245.031495 85.888288 
L 242.447169 88.620777 
L 239.992986 91.4205 
L 237.675268 94.259289 
L 233.347556 100.091232 
L 229.427392 106.01252 
L 225.821586 111.98755 
L 222.463978 117.972318 
L 217.756225 126.996144 
L 213.364577 136.053774 
L 209.215377 145.114647 
L 196.108768 174.432313 
L 193.392668 179.977764 
L 190.578404 185.328738 
L 187.618712 190.452837 
L 184.503857 195.284529 
L 181.187114 199.807442 
L 177.555738 204.108993 
L 173.576937 208.237835 
L 169.308032 212.173207 
L 164.763072 215.928448 
L 160.00081 219.489577 
L 155.068747 222.848193 
L 150.010867 225.985762 
L 144.798381 228.917536 
L 139.487759 231.627034 
L 134.036074 234.131425 
L 128.51003 236.40356 
L 122.925857 238.428088 
L 117.294832 240.182744 
L 111.633767 241.650853 
L 105.957964 242.809815 
L 100.282676 243.647793 
L 94.610072 244.144656 
L 88.941747 244.28627 
L 83.291815 244.054177 
L 80.46152 243.792049 
L 77.187792 243.366171 
L 77.187792 243.366171 
" style="fill:none;stroke:#ffffff;stroke-linecap:square;"/>
   </g>
   <g id="patch_3">
    <path d="M 57.6 307.584 
L 57.6 41.472 
" style="fill:none;stroke:#000000;stroke-linecap:square;stroke-linejoin:miter;stroke-width:0.8;"/>
   </g>
   <g id="patch_4">
    <path d="M 414.72 307.584 
L 414.72 41.472 
" style="fill:none;stroke:#000000;stroke-linecap:square;stroke-linejoin:miter;stroke-width:0.8;"/>
   </g>
   <g id="patch_5">
    <path d="M 57.6 307.584 
L 414.72 307.584 
" style="fill:none;stroke:#000000;stroke-linecap:square;stroke-linejoin:miter;stroke-width:0.8;"/>
   </g>
   <g id="patch_6">
    <path d="M 57.6 41.472 
L 414.72 41.472 
" style="fill:none;stroke:#000000;stroke-linecap:square;stroke-linejoin:miter;stroke-width:0.8;"/>
   </g>
  </g>
 </g>
 <defs>
  <clipPath id="p5597a20a4e">
   <rect height="266.112" width="357.12" x="57.6" y="41.472"/>
  </clipPath>
 </defs>
</svg>
