<?xml version="1.0" encoding="utf-8" standalone="no"?>
<!DOCTYPE svg PUBLIC "-//W3C//DTD SVG 1.1//EN"
  "http://www.w3.org/Graphics/SVG/1.1/DTD/svg11.dtd">
<!-- Created with matplotlib (https://matplotlib.org/) -->
<svg height="345.6pt" version="1.1" viewBox="0 0 460.8 345.6" width="460.8pt" xmlns="http://www.w3.org/2000/svg" xmlns:xlink="http://www.w3.org/1999/xlink">
 <metadata>
  <rdf:RDF xmlns:cc="http://creativecommons.org/ns#" xmlns:dc="http://purl.org/dc/elements/1.1/" xmlns:rdf="http://www.w3.org/1999/02/22-rdf-syntax-ns#">
   <cc:Work>
    <dc:type rdf:resource="http://purl.org/dc/dcmitype/StillImage"/>
    <dc:date>2021-01-23T13:38:48.444552</dc:date>
    <dc:format>image/svg+xml</dc:format>
    <dc:creator>
     <cc:Agent>
      <dc:title>Matplotlib v3.3.3, https://matplotlib.org/</dc:title>
     </cc:Agent>
    </dc:creator>
   </cc:Work>
  </rdf:RDF>
 </metadata>
 <defs>
  <style type="text/css">*{stroke-linecap:butt;stroke-linejoin:round;}</style>
 </defs>
 <g id="figure_1">
  <g id="patch_1">
   <path d="M 0 345.6 
L 460.8 345.6 
L 460.8 0 
L 0 0 
z
" style="fill:#ffffff;"/>
  </g>
  <g id="axes_1">
   <g id="patch_2">
    <path d="M 57.6 307.584 
L 414.72 307.584 
L 414.72 41.472 
L 57.6 41.472 
z
" style="fill:#7d9051;"/>
   </g>
   <g id="matplotlib.axis_1">
    <g id="xtick_1">
     <g id="line2d_1">
      <defs>
       <path d="M 0 0 
L 0 3.5 
" id="mc8c6440103" style="stroke:#000000;stroke-width:0.8;"/>
      </defs>
      <g>
       <use style="stroke:#000000;stroke-width:0.8;" x="109.374723" xlink:href="#mc8c6440103" y="307.584"/>
      </g>
     </g>
     <g id="text_1">
      <!-- 20 -->
      <g transform="translate(103.012223 322.182437)scale(0.1 -0.1)">
       <defs>
        <path d="M 19.1875 8.296875 
L 53.609375 8.296875 
L 53.609375 0 
L 7.328125 0 
L 7.328125 8.296875 
Q 12.9375 14.109375 22.625 23.890625 
Q 32.328125 33.6875 34.8125 36.53125 
Q 39.546875 41.84375 41.421875 45.53125 
Q 43.3125 49.21875 43.3125 52.78125 
Q 43.3125 58.59375 39.234375 62.25 
Q 35.15625 65.921875 28.609375 65.921875 
Q 23.96875 65.921875 18.8125 64.3125 
Q 13.671875 62.703125 7.8125 59.421875 
L 7.8125 69.390625 
Q 13.765625 71.78125 18.9375 73 
Q 24.125 74.21875 28.421875 74.21875 
Q 39.75 74.21875 46.484375 68.546875 
Q 53.21875 62.890625 53.21875 53.421875 
Q 53.21875 48.921875 51.53125 44.890625 
Q 49.859375 40.875 45.40625 35.40625 
Q 44.1875 33.984375 37.640625 27.21875 
Q 31.109375 20.453125 19.1875 8.296875 
z
" id="DejaVuSans-50"/>
        <path d="M 31.78125 66.40625 
Q 24.171875 66.40625 20.328125 58.90625 
Q 16.5 51.421875 16.5 36.375 
Q 16.5 21.390625 20.328125 13.890625 
Q 24.171875 6.390625 31.78125 6.390625 
Q 39.453125 6.390625 43.28125 13.890625 
Q 47.125 21.390625 47.125 36.375 
Q 47.125 51.421875 43.28125 58.90625 
Q 39.453125 66.40625 31.78125 66.40625 
z
M 31.78125 74.21875 
Q 44.046875 74.21875 50.515625 64.515625 
Q 56.984375 54.828125 56.984375 36.375 
Q 56.984375 17.96875 50.515625 8.265625 
Q 44.046875 -1.421875 31.78125 -1.421875 
Q 19.53125 -1.421875 13.0625 8.265625 
Q 6.59375 17.96875 6.59375 36.375 
Q 6.59375 54.828125 13.0625 64.515625 
Q 19.53125 74.21875 31.78125 74.21875 
z
" id="DejaVuSans-48"/>
       </defs>
       <use xlink:href="#DejaVuSans-50"/>
       <use x="63.623047" xlink:href="#DejaVuSans-48"/>
      </g>
     </g>
    </g>
    <g id="xtick_2">
     <g id="line2d_2">
      <g>
       <use style="stroke:#000000;stroke-width:0.8;" x="163.575829" xlink:href="#mc8c6440103" y="307.584"/>
      </g>
     </g>
     <g id="text_2">
      <!-- 40 -->
      <g transform="translate(157.213329 322.182437)scale(0.1 -0.1)">
       <defs>
        <path d="M 37.796875 64.3125 
L 12.890625 25.390625 
L 37.796875 25.390625 
z
M 35.203125 72.90625 
L 47.609375 72.90625 
L 47.609375 25.390625 
L 58.015625 25.390625 
L 58.015625 17.1875 
L 47.609375 17.1875 
L 47.609375 0 
L 37.796875 0 
L 37.796875 17.1875 
L 4.890625 17.1875 
L 4.890625 26.703125 
z
" id="DejaVuSans-52"/>
       </defs>
       <use xlink:href="#DejaVuSans-52"/>
       <use x="63.623047" xlink:href="#DejaVuSans-48"/>
      </g>
     </g>
    </g>
    <g id="xtick_3">
     <g id="line2d_3">
      <g>
       <use style="stroke:#000000;stroke-width:0.8;" x="217.776936" xlink:href="#mc8c6440103" y="307.584"/>
      </g>
     </g>
     <g id="text_3">
      <!-- 60 -->
      <g transform="translate(211.414436 322.182437)scale(0.1 -0.1)">
       <defs>
        <path d="M 33.015625 40.375 
Q 26.375 40.375 22.484375 35.828125 
Q 18.609375 31.296875 18.609375 23.390625 
Q 18.609375 15.53125 22.484375 10.953125 
Q 26.375 6.390625 33.015625 6.390625 
Q 39.65625 6.390625 43.53125 10.953125 
Q 47.40625 15.53125 47.40625 23.390625 
Q 47.40625 31.296875 43.53125 35.828125 
Q 39.65625 40.375 33.015625 40.375 
z
M 52.59375 71.296875 
L 52.59375 62.3125 
Q 48.875 64.0625 45.09375 64.984375 
Q 41.3125 65.921875 37.59375 65.921875 
Q 27.828125 65.921875 22.671875 59.328125 
Q 17.53125 52.734375 16.796875 39.40625 
Q 19.671875 43.65625 24.015625 45.921875 
Q 28.375 48.1875 33.59375 48.1875 
Q 44.578125 48.1875 50.953125 41.515625 
Q 57.328125 34.859375 57.328125 23.390625 
Q 57.328125 12.15625 50.6875 5.359375 
Q 44.046875 -1.421875 33.015625 -1.421875 
Q 20.359375 -1.421875 13.671875 8.265625 
Q 6.984375 17.96875 6.984375 36.375 
Q 6.984375 53.65625 15.1875 63.9375 
Q 23.390625 74.21875 37.203125 74.21875 
Q 40.921875 74.21875 44.703125 73.484375 
Q 48.484375 72.75 52.59375 71.296875 
z
" id="DejaVuSans-54"/>
       </defs>
       <use xlink:href="#DejaVuSans-54"/>
       <use x="63.623047" xlink:href="#DejaVuSans-48"/>
      </g>
     </g>
    </g>
    <g id="xtick_4">
     <g id="line2d_4">
      <g>
       <use style="stroke:#000000;stroke-width:0.8;" x="271.978042" xlink:href="#mc8c6440103" y="307.584"/>
      </g>
     </g>
     <g id="text_4">
      <!-- 80 -->
      <g transform="translate(265.615542 322.182437)scale(0.1 -0.1)">
       <defs>
        <path d="M 31.78125 34.625 
Q 24.75 34.625 20.71875 30.859375 
Q 16.703125 27.09375 16.703125 20.515625 
Q 16.703125 13.921875 20.71875 10.15625 
Q 24.75 6.390625 31.78125 6.390625 
Q 38.8125 6.390625 42.859375 10.171875 
Q 46.921875 13.96875 46.921875 20.515625 
Q 46.921875 27.09375 42.890625 30.859375 
Q 38.875 34.625 31.78125 34.625 
z
M 21.921875 38.8125 
Q 15.578125 40.375 12.03125 44.71875 
Q 8.5 49.078125 8.5 55.328125 
Q 8.5 64.0625 14.71875 69.140625 
Q 20.953125 74.21875 31.78125 74.21875 
Q 42.671875 74.21875 48.875 69.140625 
Q 55.078125 64.0625 55.078125 55.328125 
Q 55.078125 49.078125 51.53125 44.71875 
Q 48 40.375 41.703125 38.8125 
Q 48.828125 37.15625 52.796875 32.3125 
Q 56.78125 27.484375 56.78125 20.515625 
Q 56.78125 9.90625 50.3125 4.234375 
Q 43.84375 -1.421875 31.78125 -1.421875 
Q 19.734375 -1.421875 13.25 4.234375 
Q 6.78125 9.90625 6.78125 20.515625 
Q 6.78125 27.484375 10.78125 32.3125 
Q 14.796875 37.15625 21.921875 38.8125 
z
M 18.3125 54.390625 
Q 18.3125 48.734375 21.84375 45.5625 
Q 25.390625 42.390625 31.78125 42.390625 
Q 38.140625 42.390625 41.71875 45.5625 
Q 45.3125 48.734375 45.3125 54.390625 
Q 45.3125 60.0625 41.71875 63.234375 
Q 38.140625 66.40625 31.78125 66.40625 
Q 25.390625 66.40625 21.84375 63.234375 
Q 18.3125 60.0625 18.3125 54.390625 
z
" id="DejaVuSans-56"/>
       </defs>
       <use xlink:href="#DejaVuSans-56"/>
       <use x="63.623047" xlink:href="#DejaVuSans-48"/>
      </g>
     </g>
    </g>
    <g id="xtick_5">
     <g id="line2d_5">
      <g>
       <use style="stroke:#000000;stroke-width:0.8;" x="326.179149" xlink:href="#mc8c6440103" y="307.584"/>
      </g>
     </g>
     <g id="text_5">
      <!-- 100 -->
      <g transform="translate(316.635399 322.182437)scale(0.1 -0.1)">
       <defs>
        <path d="M 12.40625 8.296875 
L 28.515625 8.296875 
L 28.515625 63.921875 
L 10.984375 60.40625 
L 10.984375 69.390625 
L 28.421875 72.90625 
L 38.28125 72.90625 
L 38.28125 8.296875 
L 54.390625 8.296875 
L 54.390625 0 
L 12.40625 0 
z
" id="DejaVuSans-49"/>
       </defs>
       <use xlink:href="#DejaVuSans-49"/>
       <use x="63.623047" xlink:href="#DejaVuSans-48"/>
       <use x="127.246094" xlink:href="#DejaVuSans-48"/>
      </g>
     </g>
    </g>
    <g id="xtick_6">
     <g id="line2d_6">
      <g>
       <use style="stroke:#000000;stroke-width:0.8;" x="380.380255" xlink:href="#mc8c6440103" y="307.584"/>
      </g>
     </g>
     <g id="text_6">
      <!-- 120 -->
      <g transform="translate(370.836505 322.182437)scale(0.1 -0.1)">
       <use xlink:href="#DejaVuSans-49"/>
       <use x="63.623047" xlink:href="#DejaVuSans-50"/>
       <use x="127.246094" xlink:href="#DejaVuSans-48"/>
      </g>
     </g>
    </g>
   </g>
   <g id="matplotlib.axis_2">
    <g id="ytick_1">
     <g id="line2d_7">
      <defs>
       <path d="M 0 0 
L -3.5 0 
" id="m0016bc54b5" style="stroke:#000000;stroke-width:0.8;"/>
      </defs>
      <g>
       <use style="stroke:#000000;stroke-width:0.8;" x="57.6" xlink:href="#m0016bc54b5" y="297.65379"/>
      </g>
     </g>
     <g id="text_7">
      <!-- 0 -->
      <g transform="translate(44.2375 301.453008)scale(0.1 -0.1)">
       <use xlink:href="#DejaVuSans-48"/>
      </g>
     </g>
    </g>
    <g id="ytick_2">
     <g id="line2d_8">
      <g>
       <use style="stroke:#000000;stroke-width:0.8;" x="57.6" xlink:href="#m0016bc54b5" y="243.452683"/>
      </g>
     </g>
     <g id="text_8">
      <!-- 20 -->
      <g transform="translate(37.875 247.251902)scale(0.1 -0.1)">
       <use xlink:href="#DejaVuSans-50"/>
       <use x="63.623047" xlink:href="#DejaVuSans-48"/>
      </g>
     </g>
    </g>
    <g id="ytick_3">
     <g id="line2d_9">
      <g>
       <use style="stroke:#000000;stroke-width:0.8;" x="57.6" xlink:href="#m0016bc54b5" y="189.251576"/>
      </g>
     </g>
     <g id="text_9">
      <!-- 40 -->
      <g transform="translate(37.875 193.050795)scale(0.1 -0.1)">
       <use xlink:href="#DejaVuSans-52"/>
       <use x="63.623047" xlink:href="#DejaVuSans-48"/>
      </g>
     </g>
    </g>
    <g id="ytick_4">
     <g id="line2d_10">
      <g>
       <use style="stroke:#000000;stroke-width:0.8;" x="57.6" xlink:href="#m0016bc54b5" y="135.05047"/>
      </g>
     </g>
     <g id="text_10">
      <!-- 60 -->
      <g transform="translate(37.875 138.849689)scale(0.1 -0.1)">
       <use xlink:href="#DejaVuSans-54"/>
       <use x="63.623047" xlink:href="#DejaVuSans-48"/>
      </g>
     </g>
    </g>
    <g id="ytick_5">
     <g id="line2d_11">
      <g>
       <use style="stroke:#000000;stroke-width:0.8;" x="57.6" xlink:href="#m0016bc54b5" y="80.849363"/>
      </g>
     </g>
     <g id="text_11">
      <!-- 80 -->
      <g transform="translate(37.875 84.648582)scale(0.1 -0.1)">
       <use xlink:href="#DejaVuSans-56"/>
       <use x="63.623047" xlink:href="#DejaVuSans-48"/>
      </g>
     </g>
    </g>
   </g>
   <g id="line2d_12">
    <path clip-path="url(#pf53f7f0b42)" d="M 386.878968 270.553236 
L 387.399299 265.087055 
L 387.632363 259.647974 
L 387.602553 254.233283 
L 387.347808 248.834853 
L 386.900648 243.452683 
L 385.933159 235.401109 
L 384.708214 227.365795 
L 382.393826 213.975411 
L 380.884326 205.956357 
L 379.719002 200.655489 
L 378.339584 195.419662 
L 376.68103 190.267847 
L 374.689139 185.224434 
L 372.369332 180.308394 
L 369.751418 175.533276 
L 366.854369 170.915342 
L 363.705285 166.476271 
L 360.331266 162.224195 
L 356.767543 158.137431 
L 353.043927 154.191591 
L 347.238989 148.481504 
L 339.266006 141.118284 
L 325.25502 128.340373 
L 315.523211 118.925641 
L 309.639681 113.310406 
L 303.569157 107.876745 
L 299.365861 104.421425 
L 295.016223 101.158518 
L 290.49585 98.144936 
L 285.791194 95.429461 
L 280.883284 93.063583 
L 278.352092 92.031052 
L 275.78025 91.104213 
L 273.167757 90.291196 
L 270.520032 89.597422 
L 267.842498 89.03373 
L 265.143283 88.602832 
L 262.422387 88.312856 
L 259.685231 88.169223 
L 256.939945 88.180063 
L 254.189239 88.348086 
L 251.449373 88.676003 
L 248.725768 89.163813 
L 246.037393 89.806096 
L 243.392379 90.605562 
L 240.804276 91.559502 
L 238.286634 92.665205 
L 235.853005 93.92538 
L 233.511517 95.337319 
L 231.281141 96.898311 
L 229.164588 98.605646 
L 227.167277 100.451193 
L 225.286499 102.418694 
L 223.516833 104.500016 
L 221.855569 106.678901 
L 220.299997 108.944507 
L 218.847408 111.285995 
L 216.245754 116.142414 
L 214.026219 121.147886 
L 212.12647 126.24008 
L 210.448946 131.391895 
L 204.933983 149.522165 
L 203.126377 154.63333 
L 201.134486 159.679453 
L 198.928501 164.644274 
L 196.475901 169.506113 
L 193.749585 174.24329 
L 190.711613 178.793473 
L 189.06661 180.972357 
L 187.332174 183.07807 
L 185.505597 185.099772 
L 183.584168 187.029331 
L 181.559756 188.855908 
L 179.429653 190.574083 
L 177.193857 192.170306 
L 174.8605 193.641866 
L 172.44042 194.980633 
L 169.947169 196.178478 
L 167.388877 197.229979 
L 164.779094 198.129718 
L 162.13137 198.872273 
L 159.451125 199.449515 
L 156.75462 199.853313 
L 154.049985 200.080957 
L 151.35077 200.127028 
L 148.656975 200.002366 
L 145.97131 199.72865 
L 143.291065 199.316722 
L 137.965806 198.145978 
L 132.683908 196.620217 
L 127.456212 194.866811 
L 119.746104 191.999573 
L 114.721662 189.9047 
L 109.813752 187.628253 
L 105.046764 185.135002 
L 100.43696 182.389716 
L 96.01415 179.357164 
L 91.791884 176.004826 
L 87.797262 172.30018 
L 85.889383 170.30558 
L 84.049256 168.210707 
L 82.274169 166.007432 
L 82.274169 166.007432 
" style="fill:none;stroke:#fea952;stroke-linecap:square;"/>
   </g>
   <g id="line2d_13">
    <path clip-path="url(#pf53f7f0b42)" d="M 376.102471 269.379558 
L 376.5759 264.483359 
L 376.792337 259.582933 
L 376.769789 254.635301 
L 376.537502 249.639644 
L 376.121912 244.605605 
L 375.202975 236.941742 
L 374.014317 229.140895 
L 371.725024 215.89558 
L 370.278125 208.196647 
L 369.20436 203.292288 
L 367.97008 198.579375 
L 366.534583 194.083605 
L 364.812431 189.692211 
L 362.78835 185.379409 
L 360.48943 181.165858 
L 357.928821 177.067171 
L 355.12877 173.106037 
L 352.078627 169.253017 
L 348.820816 165.510349 
L 345.340961 161.818825 
L 339.804422 156.370586 
L 332.006502 149.168749 
L 317.776566 136.187865 
L 307.989205 126.719814 
L 302.300473 121.288277 
L 296.59656 116.176943 
L 292.753329 113.011233 
L 288.866671 110.085635 
L 284.913831 107.437485 
L 280.891567 105.09921 
L 276.788865 103.10082 
L 272.559113 101.454801 
L 268.286833 100.205118 
L 263.994506 99.382011 
L 261.854325 99.138183 
L 259.728035 99.00936 
L 257.600875 99.000117 
L 255.477441 99.111494 
L 253.360494 99.34643 
L 251.244727 99.707306 
L 249.173759 100.182685 
L 247.141382 100.776864 
L 245.163248 101.48471 
L 243.271254 102.291417 
L 241.45078 103.208446 
L 239.727251 104.218481 
L 238.087173 105.335629 
L 236.521332 106.567349 
L 235.003219 107.941749 
L 233.545028 109.440594 
L 232.137273 111.072566 
L 230.792107 112.814753 
L 228.299745 116.592944 
L 226.078809 120.705465 
L 224.132999 125.067503 
L 222.403884 129.687567 
L 220.822389 134.538651 
L 215.182726 153.053973 
L 213.246279 158.518939 
L 211.091492 163.965294 
L 208.67135 169.396883 
L 205.953988 174.766936 
L 202.870237 180.101968 
L 201.177222 182.725019 
L 199.363086 185.32512 
L 197.433882 187.86432 
L 195.375693 190.345271 
L 193.186956 192.748766 
L 190.846007 195.07769 
L 188.365571 197.293401 
L 185.72838 199.396579 
L 182.976448 201.339387 
L 180.107832 203.127429 
L 177.134773 204.751685 
L 174.06817 206.204831 
L 170.922032 207.478258 
L 167.7063 208.567239 
L 164.413687 209.46951 
L 161.056534 210.170198 
L 157.663808 210.655339 
L 154.234982 210.9196 
L 150.849646 210.955661 
L 147.557862 210.786723 
L 144.324604 210.443069 
L 141.163045 209.946018 
L 138.099027 209.324807 
L 132.179671 207.792944 
L 126.536371 206.014267 
L 118.385422 203.09621 
L 112.960601 200.940665 
L 107.572633 198.572728 
L 102.258197 195.949259 
L 97.038372 193.027272 
L 91.925304 189.748803 
L 86.980135 186.087127 
L 84.583317 184.100934 
L 82.235012 181.998215 
L 79.963664 179.793187 
L 77.745006 177.459566 
L 75.607814 175.011623 
L 73.832727 172.808348 
L 73.832727 172.808348 
" style="fill:none;stroke:#ffffff;stroke-linecap:square;"/>
   </g>
   <g id="line2d_14">
    <path clip-path="url(#pf53f7f0b42)" d="M 397.655465 271.726914 
L 398.222697 265.69075 
L 398.47239 259.713014 
L 398.435317 253.831265 
L 398.158113 248.030061 
L 397.679385 242.299761 
L 396.663343 233.860475 
L 395.40211 225.590694 
L 393.062629 212.055242 
L 391.490527 203.716068 
L 390.233644 198.018691 
L 388.709088 192.25995 
L 386.827477 186.452089 
L 384.565847 180.756657 
L 381.950313 175.237379 
L 379.013407 169.900695 
L 375.779917 164.763513 
L 372.2818 159.846506 
L 368.583905 155.195372 
L 364.714271 150.764513 
L 360.746893 146.564356 
L 354.673556 140.592422 
L 346.52551 133.067818 
L 332.733474 120.492881 
L 323.057218 111.131467 
L 316.978889 105.332535 
L 312.732186 101.478475 
L 308.279327 97.679203 
L 303.60782 94.010968 
L 298.652767 90.506382 
L 293.422289 87.264885 
L 290.690822 85.759712 
L 287.876276 84.343103 
L 284.977703 83.026345 
L 282.027311 81.832857 
L 279.001387 80.753625 
L 275.915424 79.80498 
L 272.753232 78.989726 
L 269.551377 78.329052 
L 266.29206 77.823652 
L 262.990449 77.487529 
L 259.642427 77.329086 
L 256.279016 77.360009 
L 252.901037 77.584679 
L 249.538252 78.005576 
L 246.206808 78.62032 
L 242.901026 79.429507 
L 239.643375 80.434261 
L 236.445304 81.634294 
L 233.302014 83.038992 
L 230.25523 84.642314 
L 227.295782 86.456157 
L 224.47511 88.460993 
L 221.807845 90.643942 
L 219.331336 92.960638 
L 217.02797 95.396793 
L 214.896393 97.927467 
L 212.919031 100.543048 
L 211.088392 103.2299 
L 209.39507 105.979045 
L 207.84289 108.761009 
L 206.4127 111.579362 
L 203.919439 117.228269 
L 201.849057 122.792593 
L 200.075503 128.245139 
L 193.860091 148.389142 
L 192.108122 153.092744 
L 190.20684 157.656074 
L 188.123572 162.077741 
L 185.840144 166.341713 
L 183.362568 170.368655 
L 180.699337 174.080395 
L 177.824237 177.450777 
L 176.322328 178.980972 
L 174.753942 180.418416 
L 173.130925 181.751588 
L 171.411266 183.001225 
L 169.613167 184.156303 
L 167.746067 185.209582 
L 165.826168 186.152125 
L 163.855722 186.981701 
L 161.851887 187.692196 
L 159.849053 188.275036 
L 157.845716 188.728831 
L 155.845431 189.051286 
L 153.864988 189.242315 
L 151.851893 189.298396 
L 149.756087 189.218009 
L 147.618015 189.014232 
L 143.149714 188.240875 
L 138.456493 187.041002 
L 133.590199 185.513411 
L 126.207111 182.875855 
L 121.480064 181.004258 
L 116.927549 179.014427 
L 112.561668 176.873618 
L 108.404702 174.565198 
L 104.477025 172.071249 
L 100.771697 169.358875 
L 97.294512 166.401643 
L 94.03376 163.151593 
L 92.490698 161.409791 
L 90.715611 159.206516 
L 90.715611 159.206516 
" style="fill:none;stroke:#ffffff;stroke-linecap:square;"/>
   </g>
   <g id="patch_3">
    <path d="M 57.6 307.584 
L 57.6 41.472 
" style="fill:none;stroke:#000000;stroke-linecap:square;stroke-linejoin:miter;stroke-width:0.8;"/>
   </g>
   <g id="patch_4">
    <path d="M 414.72 307.584 
L 414.72 41.472 
" style="fill:none;stroke:#000000;stroke-linecap:square;stroke-linejoin:miter;stroke-width:0.8;"/>
   </g>
   <g id="patch_5">
    <path d="M 57.6 307.584 
L 414.72 307.584 
" style="fill:none;stroke:#000000;stroke-linecap:square;stroke-linejoin:miter;stroke-width:0.8;"/>
   </g>
   <g id="patch_6">
    <path d="M 57.6 41.472 
L 414.72 41.472 
" style="fill:none;stroke:#000000;stroke-linecap:square;stroke-linejoin:miter;stroke-width:0.8;"/>
   </g>
  </g>
 </g>
 <defs>
  <clipPath id="pf53f7f0b42">
   <rect height="266.112" width="357.12" x="57.6" y="41.472"/>
  </clipPath>
 </defs>
</svg>
