<?xml version="1.0" encoding="utf-8" standalone="no"?>
<!DOCTYPE svg PUBLIC "-//W3C//DTD SVG 1.1//EN"
  "http://www.w3.org/Graphics/SVG/1.1/DTD/svg11.dtd">
<!-- Created with matplotlib (https://matplotlib.org/) -->
<svg height="345.6pt" version="1.1" viewBox="0 0 460.8 345.6" width="460.8pt" xmlns="http://www.w3.org/2000/svg" xmlns:xlink="http://www.w3.org/1999/xlink">
 <metadata>
  <rdf:RDF xmlns:cc="http://creativecommons.org/ns#" xmlns:dc="http://purl.org/dc/elements/1.1/" xmlns:rdf="http://www.w3.org/1999/02/22-rdf-syntax-ns#">
   <cc:Work>
    <dc:type rdf:resource="http://purl.org/dc/dcmitype/StillImage"/>
    <dc:date>2021-01-22T10:51:40.195907</dc:date>
    <dc:format>image/svg+xml</dc:format>
    <dc:creator>
     <cc:Agent>
      <dc:title>Matplotlib v3.3.3, https://matplotlib.org/</dc:title>
     </cc:Agent>
    </dc:creator>
   </cc:Work>
  </rdf:RDF>
 </metadata>
 <defs>
  <style type="text/css">*{stroke-linecap:butt;stroke-linejoin:round;}</style>
 </defs>
 <g id="figure_1">
  <g id="patch_1">
   <path d="M 0 345.6 
L 460.8 345.6 
L 460.8 0 
L 0 0 
z
" style="fill:#ffffff;"/>
  </g>
  <g id="axes_1">
   <g id="patch_2">
    <path d="M 57.6 307.584 
L 414.72 307.584 
L 414.72 41.472 
L 57.6 41.472 
z
" style="fill:#7d9051;"/>
   </g>
   <g id="matplotlib.axis_1">
    <g id="xtick_1">
     <g id="line2d_1">
      <defs>
       <path d="M 0 0 
L 0 3.5 
" id="m03c3e8f7b5" style="stroke:#000000;stroke-width:0.8;"/>
      </defs>
      <g>
       <use style="stroke:#000000;stroke-width:0.8;" x="61.339971" xlink:href="#m03c3e8f7b5" y="307.584"/>
      </g>
     </g>
     <g id="text_1">
      <!-- 0 -->
      <g transform="translate(58.158721 322.182437)scale(0.1 -0.1)">
       <defs>
        <path d="M 31.78125 66.40625 
Q 24.171875 66.40625 20.328125 58.90625 
Q 16.5 51.421875 16.5 36.375 
Q 16.5 21.390625 20.328125 13.890625 
Q 24.171875 6.390625 31.78125 6.390625 
Q 39.453125 6.390625 43.28125 13.890625 
Q 47.125 21.390625 47.125 36.375 
Q 47.125 51.421875 43.28125 58.90625 
Q 39.453125 66.40625 31.78125 66.40625 
z
M 31.78125 74.21875 
Q 44.046875 74.21875 50.515625 64.515625 
Q 56.984375 54.828125 56.984375 36.375 
Q 56.984375 17.96875 50.515625 8.265625 
Q 44.046875 -1.421875 31.78125 -1.421875 
Q 19.53125 -1.421875 13.0625 8.265625 
Q 6.59375 17.96875 6.59375 36.375 
Q 6.59375 54.828125 13.0625 64.515625 
Q 19.53125 74.21875 31.78125 74.21875 
z
" id="DejaVuSans-48"/>
       </defs>
       <use xlink:href="#DejaVuSans-48"/>
      </g>
     </g>
    </g>
    <g id="xtick_2">
     <g id="line2d_2">
      <g>
       <use style="stroke:#000000;stroke-width:0.8;" x="107.879714" xlink:href="#m03c3e8f7b5" y="307.584"/>
      </g>
     </g>
     <g id="text_2">
      <!-- 20 -->
      <g transform="translate(101.517214 322.182437)scale(0.1 -0.1)">
       <defs>
        <path d="M 19.1875 8.296875 
L 53.609375 8.296875 
L 53.609375 0 
L 7.328125 0 
L 7.328125 8.296875 
Q 12.9375 14.109375 22.625 23.890625 
Q 32.328125 33.6875 34.8125 36.53125 
Q 39.546875 41.84375 41.421875 45.53125 
Q 43.3125 49.21875 43.3125 52.78125 
Q 43.3125 58.59375 39.234375 62.25 
Q 35.15625 65.921875 28.609375 65.921875 
Q 23.96875 65.921875 18.8125 64.3125 
Q 13.671875 62.703125 7.8125 59.421875 
L 7.8125 69.390625 
Q 13.765625 71.78125 18.9375 73 
Q 24.125 74.21875 28.421875 74.21875 
Q 39.75 74.21875 46.484375 68.546875 
Q 53.21875 62.890625 53.21875 53.421875 
Q 53.21875 48.921875 51.53125 44.890625 
Q 49.859375 40.875 45.40625 35.40625 
Q 44.1875 33.984375 37.640625 27.21875 
Q 31.109375 20.453125 19.1875 8.296875 
z
" id="DejaVuSans-50"/>
       </defs>
       <use xlink:href="#DejaVuSans-50"/>
       <use x="63.623047" xlink:href="#DejaVuSans-48"/>
      </g>
     </g>
    </g>
    <g id="xtick_3">
     <g id="line2d_3">
      <g>
       <use style="stroke:#000000;stroke-width:0.8;" x="154.419457" xlink:href="#m03c3e8f7b5" y="307.584"/>
      </g>
     </g>
     <g id="text_3">
      <!-- 40 -->
      <g transform="translate(148.056957 322.182437)scale(0.1 -0.1)">
       <defs>
        <path d="M 37.796875 64.3125 
L 12.890625 25.390625 
L 37.796875 25.390625 
z
M 35.203125 72.90625 
L 47.609375 72.90625 
L 47.609375 25.390625 
L 58.015625 25.390625 
L 58.015625 17.1875 
L 47.609375 17.1875 
L 47.609375 0 
L 37.796875 0 
L 37.796875 17.1875 
L 4.890625 17.1875 
L 4.890625 26.703125 
z
" id="DejaVuSans-52"/>
       </defs>
       <use xlink:href="#DejaVuSans-52"/>
       <use x="63.623047" xlink:href="#DejaVuSans-48"/>
      </g>
     </g>
    </g>
    <g id="xtick_4">
     <g id="line2d_4">
      <g>
       <use style="stroke:#000000;stroke-width:0.8;" x="200.959201" xlink:href="#m03c3e8f7b5" y="307.584"/>
      </g>
     </g>
     <g id="text_4">
      <!-- 60 -->
      <g transform="translate(194.596701 322.182437)scale(0.1 -0.1)">
       <defs>
        <path d="M 33.015625 40.375 
Q 26.375 40.375 22.484375 35.828125 
Q 18.609375 31.296875 18.609375 23.390625 
Q 18.609375 15.53125 22.484375 10.953125 
Q 26.375 6.390625 33.015625 6.390625 
Q 39.65625 6.390625 43.53125 10.953125 
Q 47.40625 15.53125 47.40625 23.390625 
Q 47.40625 31.296875 43.53125 35.828125 
Q 39.65625 40.375 33.015625 40.375 
z
M 52.59375 71.296875 
L 52.59375 62.3125 
Q 48.875 64.0625 45.09375 64.984375 
Q 41.3125 65.921875 37.59375 65.921875 
Q 27.828125 65.921875 22.671875 59.328125 
Q 17.53125 52.734375 16.796875 39.40625 
Q 19.671875 43.65625 24.015625 45.921875 
Q 28.375 48.1875 33.59375 48.1875 
Q 44.578125 48.1875 50.953125 41.515625 
Q 57.328125 34.859375 57.328125 23.390625 
Q 57.328125 12.15625 50.6875 5.359375 
Q 44.046875 -1.421875 33.015625 -1.421875 
Q 20.359375 -1.421875 13.671875 8.265625 
Q 6.984375 17.96875 6.984375 36.375 
Q 6.984375 53.65625 15.1875 63.9375 
Q 23.390625 74.21875 37.203125 74.21875 
Q 40.921875 74.21875 44.703125 73.484375 
Q 48.484375 72.75 52.59375 71.296875 
z
" id="DejaVuSans-54"/>
       </defs>
       <use xlink:href="#DejaVuSans-54"/>
       <use x="63.623047" xlink:href="#DejaVuSans-48"/>
      </g>
     </g>
    </g>
    <g id="xtick_5">
     <g id="line2d_5">
      <g>
       <use style="stroke:#000000;stroke-width:0.8;" x="247.498944" xlink:href="#m03c3e8f7b5" y="307.584"/>
      </g>
     </g>
     <g id="text_5">
      <!-- 80 -->
      <g transform="translate(241.136444 322.182437)scale(0.1 -0.1)">
       <defs>
        <path d="M 31.78125 34.625 
Q 24.75 34.625 20.71875 30.859375 
Q 16.703125 27.09375 16.703125 20.515625 
Q 16.703125 13.921875 20.71875 10.15625 
Q 24.75 6.390625 31.78125 6.390625 
Q 38.8125 6.390625 42.859375 10.171875 
Q 46.921875 13.96875 46.921875 20.515625 
Q 46.921875 27.09375 42.890625 30.859375 
Q 38.875 34.625 31.78125 34.625 
z
M 21.921875 38.8125 
Q 15.578125 40.375 12.03125 44.71875 
Q 8.5 49.078125 8.5 55.328125 
Q 8.5 64.0625 14.71875 69.140625 
Q 20.953125 74.21875 31.78125 74.21875 
Q 42.671875 74.21875 48.875 69.140625 
Q 55.078125 64.0625 55.078125 55.328125 
Q 55.078125 49.078125 51.53125 44.71875 
Q 48 40.375 41.703125 38.8125 
Q 48.828125 37.15625 52.796875 32.3125 
Q 56.78125 27.484375 56.78125 20.515625 
Q 56.78125 9.90625 50.3125 4.234375 
Q 43.84375 -1.421875 31.78125 -1.421875 
Q 19.734375 -1.421875 13.25 4.234375 
Q 6.78125 9.90625 6.78125 20.515625 
Q 6.78125 27.484375 10.78125 32.3125 
Q 14.796875 37.15625 21.921875 38.8125 
z
M 18.3125 54.390625 
Q 18.3125 48.734375 21.84375 45.5625 
Q 25.390625 42.390625 31.78125 42.390625 
Q 38.140625 42.390625 41.71875 45.5625 
Q 45.3125 48.734375 45.3125 54.390625 
Q 45.3125 60.0625 41.71875 63.234375 
Q 38.140625 66.40625 31.78125 66.40625 
Q 25.390625 66.40625 21.84375 63.234375 
Q 18.3125 60.0625 18.3125 54.390625 
z
" id="DejaVuSans-56"/>
       </defs>
       <use xlink:href="#DejaVuSans-56"/>
       <use x="63.623047" xlink:href="#DejaVuSans-48"/>
      </g>
     </g>
    </g>
    <g id="xtick_6">
     <g id="line2d_6">
      <g>
       <use style="stroke:#000000;stroke-width:0.8;" x="294.038687" xlink:href="#m03c3e8f7b5" y="307.584"/>
      </g>
     </g>
     <g id="text_6">
      <!-- 100 -->
      <g transform="translate(284.494937 322.182437)scale(0.1 -0.1)">
       <defs>
        <path d="M 12.40625 8.296875 
L 28.515625 8.296875 
L 28.515625 63.921875 
L 10.984375 60.40625 
L 10.984375 69.390625 
L 28.421875 72.90625 
L 38.28125 72.90625 
L 38.28125 8.296875 
L 54.390625 8.296875 
L 54.390625 0 
L 12.40625 0 
z
" id="DejaVuSans-49"/>
       </defs>
       <use xlink:href="#DejaVuSans-49"/>
       <use x="63.623047" xlink:href="#DejaVuSans-48"/>
       <use x="127.246094" xlink:href="#DejaVuSans-48"/>
      </g>
     </g>
    </g>
    <g id="xtick_7">
     <g id="line2d_7">
      <g>
       <use style="stroke:#000000;stroke-width:0.8;" x="340.578431" xlink:href="#m03c3e8f7b5" y="307.584"/>
      </g>
     </g>
     <g id="text_7">
      <!-- 120 -->
      <g transform="translate(331.034681 322.182437)scale(0.1 -0.1)">
       <use xlink:href="#DejaVuSans-49"/>
       <use x="63.623047" xlink:href="#DejaVuSans-50"/>
       <use x="127.246094" xlink:href="#DejaVuSans-48"/>
      </g>
     </g>
    </g>
    <g id="xtick_8">
     <g id="line2d_8">
      <g>
       <use style="stroke:#000000;stroke-width:0.8;" x="387.118174" xlink:href="#m03c3e8f7b5" y="307.584"/>
      </g>
     </g>
     <g id="text_8">
      <!-- 140 -->
      <g transform="translate(377.574424 322.182437)scale(0.1 -0.1)">
       <use xlink:href="#DejaVuSans-49"/>
       <use x="63.623047" xlink:href="#DejaVuSans-52"/>
       <use x="127.246094" xlink:href="#DejaVuSans-48"/>
      </g>
     </g>
    </g>
   </g>
   <g id="matplotlib.axis_2">
    <g id="ytick_1">
     <g id="line2d_9">
      <defs>
       <path d="M 0 0 
L -3.5 0 
" id="mae05ea6bf6" style="stroke:#000000;stroke-width:0.8;"/>
      </defs>
      <g>
       <use style="stroke:#000000;stroke-width:0.8;" x="57.6" xlink:href="#mae05ea6bf6" y="263.902795"/>
      </g>
     </g>
     <g id="text_9">
      <!-- 20 -->
      <g transform="translate(37.875 267.702014)scale(0.1 -0.1)">
       <use xlink:href="#DejaVuSans-50"/>
       <use x="63.623047" xlink:href="#DejaVuSans-48"/>
      </g>
     </g>
    </g>
    <g id="ytick_2">
     <g id="line2d_10">
      <g>
       <use style="stroke:#000000;stroke-width:0.8;" x="57.6" xlink:href="#mae05ea6bf6" y="217.363052"/>
      </g>
     </g>
     <g id="text_10">
      <!-- 40 -->
      <g transform="translate(37.875 221.16227)scale(0.1 -0.1)">
       <use xlink:href="#DejaVuSans-52"/>
       <use x="63.623047" xlink:href="#DejaVuSans-48"/>
      </g>
     </g>
    </g>
    <g id="ytick_3">
     <g id="line2d_11">
      <g>
       <use style="stroke:#000000;stroke-width:0.8;" x="57.6" xlink:href="#mae05ea6bf6" y="170.823308"/>
      </g>
     </g>
     <g id="text_11">
      <!-- 60 -->
      <g transform="translate(37.875 174.622527)scale(0.1 -0.1)">
       <use xlink:href="#DejaVuSans-54"/>
       <use x="63.623047" xlink:href="#DejaVuSans-48"/>
      </g>
     </g>
    </g>
    <g id="ytick_4">
     <g id="line2d_12">
      <g>
       <use style="stroke:#000000;stroke-width:0.8;" x="57.6" xlink:href="#mae05ea6bf6" y="124.283565"/>
      </g>
     </g>
     <g id="text_12">
      <!-- 80 -->
      <g transform="translate(37.875 128.082784)scale(0.1 -0.1)">
       <use xlink:href="#DejaVuSans-56"/>
       <use x="63.623047" xlink:href="#DejaVuSans-48"/>
      </g>
     </g>
    </g>
    <g id="ytick_5">
     <g id="line2d_13">
      <g>
       <use style="stroke:#000000;stroke-width:0.8;" x="57.6" xlink:href="#mae05ea6bf6" y="77.743821"/>
      </g>
     </g>
     <g id="text_13">
      <!-- 100 -->
      <g transform="translate(31.5125 81.54304)scale(0.1 -0.1)">
       <use xlink:href="#DejaVuSans-49"/>
       <use x="63.623047" xlink:href="#DejaVuSans-48"/>
       <use x="127.246094" xlink:href="#DejaVuSans-48"/>
      </g>
     </g>
    </g>
   </g>
   <g id="line2d_14">
    <path clip-path="url(#p43f3f5e498)" d="M 393.512735 67.626081 
L 389.496355 70.039167 
L 385.317086 72.093897 
L 381.01216 73.869388 
L 376.618808 75.447085 
L 358.873204 81.339017 
L 354.577586 83.102873 
L 350.407625 85.141314 
L 346.400553 87.512514 
L 342.577313 90.204838 
L 338.956521 93.183381 
L 335.554466 96.415567 
L 332.39209 99.868816 
L 329.478702 103.51055 
L 326.77707 107.30354 
L 324.240654 111.212878 
L 320.647786 117.211851 
L 312.603391 131.371568 
L 304.503149 145.538266 
L 300.805566 151.479064 
L 298.173744 155.313939 
L 295.362743 159.006867 
L 292.346968 162.53458 
L 289.161322 165.920346 
L 284.160627 170.811673 
L 267.210852 186.802729 
L 262.375373 191.833675 
L 249.825931 205.611766 
L 246.419222 208.771815 
L 242.784468 211.682876 
L 238.933304 214.326333 
L 234.893655 216.692879 
L 230.693443 218.77786 
L 226.36292 220.571967 
L 221.930009 222.070547 
L 217.413327 223.275926 
L 212.833816 224.19974 
L 208.210093 224.841988 
L 203.560772 225.214306 
L 198.904471 225.323675 
L 194.24817 225.204998 
L 189.596522 224.895509 
L 182.641158 224.146219 
L 173.426289 222.81751 
L 159.627255 220.711586 
L 152.674217 219.887833 
L 148.017916 219.520169 
L 143.354633 219.361934 
L 138.696005 219.464321 
L 134.051339 219.878525 
L 129.43925 220.648758 
L 124.88999 221.779673 
L 120.440791 223.268945 
L 116.133537 225.114246 
L 112.003135 227.313249 
L 108.084489 229.858973 
L 104.39156 232.725821 
L 100.938311 235.883543 
L 97.731723 239.306541 
L 94.78343 242.964564 
L 92.105068 246.82969 
L 89.72456 250.878648 
L 87.665176 255.090495 
L 85.957168 259.437307 
L 84.628458 263.902795 
L 83.704644 268.461363 
L 83.402136 270.767407 
L 83.21365 273.08974 
L 83.139186 275.423708 
L 83.181072 277.764658 
L 83.346288 280.114915 
L 83.637162 282.467499 
L 84.058346 284.820083 
L 84.609842 287.172667 
L 84.609842 287.172667 
" style="fill:none;stroke:#fea952;stroke-linecap:square;"/>
   </g>
   <g id="line2d_15">
    <path clip-path="url(#p43f3f5e498)" d="M 398.487273 75.493221 
L 396.134532 76.969348 
L 393.755428 78.315531 
L 388.98479 80.64877 
L 384.243734 82.598353 
L 379.553906 84.280154 
L 360.362231 90.755123 
L 356.71852 92.366366 
L 353.286263 94.195713 
L 349.970487 96.32508 
L 346.785923 98.737389 
L 343.753666 101.407251 
L 340.914015 104.283198 
L 338.260224 107.37735 
L 335.752353 110.694738 
L 333.346065 114.23897 
L 329.859518 119.898827 
L 324.134819 129.870628 
L 312.476457 150.340793 
L 308.537341 156.661493 
L 305.653543 160.85384 
L 302.523245 164.953725 
L 299.193628 168.840224 
L 295.761602 172.483441 
L 290.530416 177.598697 
L 273.834353 193.342388 
L 269.26984 198.087013 
L 263.123382 204.997812 
L 258.085309 210.492216 
L 254.366102 214.146133 
L 250.308599 217.637754 
L 246.016467 220.801763 
L 241.502577 223.65321 
L 236.810291 226.175248 
L 231.961926 228.368403 
L 226.991756 230.224249 
L 221.932958 231.741595 
L 216.827422 232.925871 
L 211.667384 233.793403 
L 206.50075 234.348467 
L 201.326767 234.607889 
L 196.233669 234.592694 
L 191.215111 234.35349 
L 186.274097 233.932913 
L 179.021651 233.056525 
L 167.388779 231.289069 
L 158.419002 229.940781 
L 151.849071 229.159135 
L 147.591054 228.818324 
L 143.419657 228.669655 
L 139.355866 228.748851 
L 135.405322 229.087468 
L 131.50049 229.725607 
L 127.666844 230.66376 
L 123.932688 231.897071 
L 120.333138 233.420946 
L 116.90465 235.226091 
L 113.636578 237.32973 
L 110.538564 239.71526 
L 107.607188 242.376923 
L 104.868664 245.281654 
L 102.334529 248.406881 
L 100.039844 251.695616 
L 98.003185 255.133326 
L 96.257952 258.6685 
L 94.820339 262.280211 
L 93.706132 265.960401 
L 92.933525 269.672013 
L 92.516865 273.386553 
L 92.466107 277.111947 
L 92.799434 280.827171 
L 93.120624 282.695691 
L 93.67212 285.048275 
L 93.67212 285.048275 
" style="fill:none;stroke:#ffffff;stroke-linecap:square;"/>
   </g>
   <g id="line2d_16">
    <path clip-path="url(#p43f3f5e498)" d="M 388.538197 59.758942 
L 385.237282 61.762803 
L 381.649382 63.539023 
L 377.780585 65.140423 
L 373.683711 66.614016 
L 355.453303 72.682101 
L 350.648033 74.665069 
L 345.832801 77.035211 
L 341.190461 79.799353 
L 336.79771 82.908667 
L 332.662315 86.326204 
L 328.799521 90.011768 
L 325.209682 93.948433 
L 321.965933 98.015443 
L 319.016696 102.164035 
L 316.309634 106.340833 
L 312.584601 112.561802 
L 304.495041 126.80073 
L 296.529841 140.735738 
L 293.073792 146.296635 
L 290.693944 149.774037 
L 288.202241 153.06001 
L 285.500307 156.228936 
L 282.561043 159.357251 
L 277.790838 164.024649 
L 260.587351 180.26307 
L 255.480906 185.580338 
L 243.385509 198.891731 
L 240.460418 201.621251 
L 237.383993 204.101796 
L 234.092784 206.376033 
L 230.616867 208.425655 
L 226.987866 210.239323 
L 223.237005 211.804609 
L 219.383926 213.117593 
L 215.429501 214.181843 
L 211.414992 215.000564 
L 207.337255 215.575055 
L 203.216614 215.912722 
L 199.03477 216.016638 
L 194.777863 215.912134 
L 190.461013 215.627793 
L 183.859753 214.918384 
L 174.870325 213.622257 
L 160.835508 211.482392 
L 153.499363 210.616531 
L 148.444777 210.222013 
L 143.289609 210.054212 
L 138.036144 210.179791 
L 132.697355 210.669581 
L 127.37801 211.571908 
L 122.113137 212.895587 
L 116.948894 214.640819 
L 114.429668 215.668579 
L 111.933936 216.807546 
L 109.496854 218.048983 
L 107.101621 219.400407 
L 104.778132 220.849823 
L 102.5324 222.388215 
L 100.348132 224.021734 
L 96.221652 227.524763 
L 92.388028 231.332349 
L 88.869147 235.402677 
L 85.660666 239.713826 
L 82.766057 244.265958 
L 80.209804 249.045458 
L 78.036876 254.019058 
L 77.093997 256.594403 
L 76.269444 259.192432 
L 75.550784 261.845189 
L 74.951653 264.532779 
L 74.475764 267.250713 
L 74.124694 270.014428 
L 73.910435 272.792928 
L 73.832727 275.590226 
L 73.896037 278.417368 
L 74.108679 281.257052 
L 74.474889 284.107826 
L 74.996069 286.944474 
L 75.547565 289.297058 
L 75.547565 289.297058 
" style="fill:none;stroke:#ffffff;stroke-linecap:square;"/>
   </g>
   <g id="patch_3">
    <path d="M 57.6 307.584 
L 57.6 41.472 
" style="fill:none;stroke:#000000;stroke-linecap:square;stroke-linejoin:miter;stroke-width:0.8;"/>
   </g>
   <g id="patch_4">
    <path d="M 414.72 307.584 
L 414.72 41.472 
" style="fill:none;stroke:#000000;stroke-linecap:square;stroke-linejoin:miter;stroke-width:0.8;"/>
   </g>
   <g id="patch_5">
    <path d="M 57.6 307.584 
L 414.72 307.584 
" style="fill:none;stroke:#000000;stroke-linecap:square;stroke-linejoin:miter;stroke-width:0.8;"/>
   </g>
   <g id="patch_6">
    <path d="M 57.6 41.472 
L 414.72 41.472 
" style="fill:none;stroke:#000000;stroke-linecap:square;stroke-linejoin:miter;stroke-width:0.8;"/>
   </g>
  </g>
 </g>
 <defs>
  <clipPath id="p43f3f5e498">
   <rect height="266.112" width="357.12" x="57.6" y="41.472"/>
  </clipPath>
 </defs>
</svg>
