<?xml version="1.0" encoding="utf-8" standalone="no"?>
<!DOCTYPE svg PUBLIC "-//W3C//DTD SVG 1.1//EN"
  "http://www.w3.org/Graphics/SVG/1.1/DTD/svg11.dtd">
<!-- Created with matplotlib (https://matplotlib.org/) -->
<svg height="345.6pt" version="1.1" viewBox="0 0 460.8 345.6" width="460.8pt" xmlns="http://www.w3.org/2000/svg" xmlns:xlink="http://www.w3.org/1999/xlink">
 <metadata>
  <rdf:RDF xmlns:cc="http://creativecommons.org/ns#" xmlns:dc="http://purl.org/dc/elements/1.1/" xmlns:rdf="http://www.w3.org/1999/02/22-rdf-syntax-ns#">
   <cc:Work>
    <dc:type rdf:resource="http://purl.org/dc/dcmitype/StillImage"/>
    <dc:date>2021-01-23T11:50:07.928472</dc:date>
    <dc:format>image/svg+xml</dc:format>
    <dc:creator>
     <cc:Agent>
      <dc:title>Matplotlib v3.3.3, https://matplotlib.org/</dc:title>
     </cc:Agent>
    </dc:creator>
   </cc:Work>
  </rdf:RDF>
 </metadata>
 <defs>
  <style type="text/css">*{stroke-linecap:butt;stroke-linejoin:round;}</style>
 </defs>
 <g id="figure_1">
  <g id="patch_1">
   <path d="M 0 345.6 
L 460.8 345.6 
L 460.8 0 
L 0 0 
z
" style="fill:#ffffff;"/>
  </g>
  <g id="axes_1">
   <g id="patch_2">
    <path d="M 57.6 307.584 
L 414.72 307.584 
L 414.72 41.472 
L 57.6 41.472 
z
" style="fill:#7d9051;"/>
   </g>
   <g id="matplotlib.axis_1">
    <g id="xtick_1">
     <g id="line2d_1">
      <defs>
       <path d="M 0 0 
L 0 3.5 
" id="m861fcb8594" style="stroke:#000000;stroke-width:0.8;"/>
      </defs>
      <g>
       <use style="stroke:#000000;stroke-width:0.8;" x="62.875523" xlink:href="#m861fcb8594" y="307.584"/>
      </g>
     </g>
     <g id="text_1">
      <!-- −50 -->
      <g transform="translate(52.32318 322.182437)scale(0.1 -0.1)">
       <defs>
        <path d="M 10.59375 35.5 
L 73.1875 35.5 
L 73.1875 27.203125 
L 10.59375 27.203125 
z
" id="DejaVuSans-8722"/>
        <path d="M 10.796875 72.90625 
L 49.515625 72.90625 
L 49.515625 64.59375 
L 19.828125 64.59375 
L 19.828125 46.734375 
Q 21.96875 47.46875 24.109375 47.828125 
Q 26.265625 48.1875 28.421875 48.1875 
Q 40.625 48.1875 47.75 41.5 
Q 54.890625 34.8125 54.890625 23.390625 
Q 54.890625 11.625 47.5625 5.09375 
Q 40.234375 -1.421875 26.90625 -1.421875 
Q 22.3125 -1.421875 17.546875 -0.640625 
Q 12.796875 0.140625 7.71875 1.703125 
L 7.71875 11.625 
Q 12.109375 9.234375 16.796875 8.0625 
Q 21.484375 6.890625 26.703125 6.890625 
Q 35.15625 6.890625 40.078125 11.328125 
Q 45.015625 15.765625 45.015625 23.390625 
Q 45.015625 31 40.078125 35.4375 
Q 35.15625 39.890625 26.703125 39.890625 
Q 22.75 39.890625 18.8125 39.015625 
Q 14.890625 38.140625 10.796875 36.28125 
z
" id="DejaVuSans-53"/>
        <path d="M 31.78125 66.40625 
Q 24.171875 66.40625 20.328125 58.90625 
Q 16.5 51.421875 16.5 36.375 
Q 16.5 21.390625 20.328125 13.890625 
Q 24.171875 6.390625 31.78125 6.390625 
Q 39.453125 6.390625 43.28125 13.890625 
Q 47.125 21.390625 47.125 36.375 
Q 47.125 51.421875 43.28125 58.90625 
Q 39.453125 66.40625 31.78125 66.40625 
z
M 31.78125 74.21875 
Q 44.046875 74.21875 50.515625 64.515625 
Q 56.984375 54.828125 56.984375 36.375 
Q 56.984375 17.96875 50.515625 8.265625 
Q 44.046875 -1.421875 31.78125 -1.421875 
Q 19.53125 -1.421875 13.0625 8.265625 
Q 6.59375 17.96875 6.59375 36.375 
Q 6.59375 54.828125 13.0625 64.515625 
Q 19.53125 74.21875 31.78125 74.21875 
z
" id="DejaVuSans-48"/>
       </defs>
       <use xlink:href="#DejaVuSans-8722"/>
       <use x="83.789062" xlink:href="#DejaVuSans-53"/>
       <use x="147.412109" xlink:href="#DejaVuSans-48"/>
      </g>
     </g>
    </g>
    <g id="xtick_2">
     <g id="line2d_2">
      <g>
       <use style="stroke:#000000;stroke-width:0.8;" x="111.786512" xlink:href="#m861fcb8594" y="307.584"/>
      </g>
     </g>
     <g id="text_2">
      <!-- −25 -->
      <g transform="translate(101.234169 322.182437)scale(0.1 -0.1)">
       <defs>
        <path d="M 19.1875 8.296875 
L 53.609375 8.296875 
L 53.609375 0 
L 7.328125 0 
L 7.328125 8.296875 
Q 12.9375 14.109375 22.625 23.890625 
Q 32.328125 33.6875 34.8125 36.53125 
Q 39.546875 41.84375 41.421875 45.53125 
Q 43.3125 49.21875 43.3125 52.78125 
Q 43.3125 58.59375 39.234375 62.25 
Q 35.15625 65.921875 28.609375 65.921875 
Q 23.96875 65.921875 18.8125 64.3125 
Q 13.671875 62.703125 7.8125 59.421875 
L 7.8125 69.390625 
Q 13.765625 71.78125 18.9375 73 
Q 24.125 74.21875 28.421875 74.21875 
Q 39.75 74.21875 46.484375 68.546875 
Q 53.21875 62.890625 53.21875 53.421875 
Q 53.21875 48.921875 51.53125 44.890625 
Q 49.859375 40.875 45.40625 35.40625 
Q 44.1875 33.984375 37.640625 27.21875 
Q 31.109375 20.453125 19.1875 8.296875 
z
" id="DejaVuSans-50"/>
       </defs>
       <use xlink:href="#DejaVuSans-8722"/>
       <use x="83.789062" xlink:href="#DejaVuSans-50"/>
       <use x="147.412109" xlink:href="#DejaVuSans-53"/>
      </g>
     </g>
    </g>
    <g id="xtick_3">
     <g id="line2d_3">
      <g>
       <use style="stroke:#000000;stroke-width:0.8;" x="160.697501" xlink:href="#m861fcb8594" y="307.584"/>
      </g>
     </g>
     <g id="text_3">
      <!-- 0 -->
      <g transform="translate(157.516251 322.182437)scale(0.1 -0.1)">
       <use xlink:href="#DejaVuSans-48"/>
      </g>
     </g>
    </g>
    <g id="xtick_4">
     <g id="line2d_4">
      <g>
       <use style="stroke:#000000;stroke-width:0.8;" x="209.60849" xlink:href="#m861fcb8594" y="307.584"/>
      </g>
     </g>
     <g id="text_4">
      <!-- 25 -->
      <g transform="translate(203.24599 322.182437)scale(0.1 -0.1)">
       <use xlink:href="#DejaVuSans-50"/>
       <use x="63.623047" xlink:href="#DejaVuSans-53"/>
      </g>
     </g>
    </g>
    <g id="xtick_5">
     <g id="line2d_5">
      <g>
       <use style="stroke:#000000;stroke-width:0.8;" x="258.519479" xlink:href="#m861fcb8594" y="307.584"/>
      </g>
     </g>
     <g id="text_5">
      <!-- 50 -->
      <g transform="translate(252.156979 322.182437)scale(0.1 -0.1)">
       <use xlink:href="#DejaVuSans-53"/>
       <use x="63.623047" xlink:href="#DejaVuSans-48"/>
      </g>
     </g>
    </g>
    <g id="xtick_6">
     <g id="line2d_6">
      <g>
       <use style="stroke:#000000;stroke-width:0.8;" x="307.430468" xlink:href="#m861fcb8594" y="307.584"/>
      </g>
     </g>
     <g id="text_6">
      <!-- 75 -->
      <g transform="translate(301.067968 322.182437)scale(0.1 -0.1)">
       <defs>
        <path d="M 8.203125 72.90625 
L 55.078125 72.90625 
L 55.078125 68.703125 
L 28.609375 0 
L 18.3125 0 
L 43.21875 64.59375 
L 8.203125 64.59375 
z
" id="DejaVuSans-55"/>
       </defs>
       <use xlink:href="#DejaVuSans-55"/>
       <use x="63.623047" xlink:href="#DejaVuSans-53"/>
      </g>
     </g>
    </g>
    <g id="xtick_7">
     <g id="line2d_7">
      <g>
       <use style="stroke:#000000;stroke-width:0.8;" x="356.341458" xlink:href="#m861fcb8594" y="307.584"/>
      </g>
     </g>
     <g id="text_7">
      <!-- 100 -->
      <g transform="translate(346.797708 322.182437)scale(0.1 -0.1)">
       <defs>
        <path d="M 12.40625 8.296875 
L 28.515625 8.296875 
L 28.515625 63.921875 
L 10.984375 60.40625 
L 10.984375 69.390625 
L 28.421875 72.90625 
L 38.28125 72.90625 
L 38.28125 8.296875 
L 54.390625 8.296875 
L 54.390625 0 
L 12.40625 0 
z
" id="DejaVuSans-49"/>
       </defs>
       <use xlink:href="#DejaVuSans-49"/>
       <use x="63.623047" xlink:href="#DejaVuSans-48"/>
       <use x="127.246094" xlink:href="#DejaVuSans-48"/>
      </g>
     </g>
    </g>
    <g id="xtick_8">
     <g id="line2d_8">
      <g>
       <use style="stroke:#000000;stroke-width:0.8;" x="405.252447" xlink:href="#m861fcb8594" y="307.584"/>
      </g>
     </g>
     <g id="text_8">
      <!-- 125 -->
      <g transform="translate(395.708697 322.182437)scale(0.1 -0.1)">
       <use xlink:href="#DejaVuSans-49"/>
       <use x="63.623047" xlink:href="#DejaVuSans-50"/>
       <use x="127.246094" xlink:href="#DejaVuSans-53"/>
      </g>
     </g>
    </g>
   </g>
   <g id="matplotlib.axis_2">
    <g id="ytick_1">
     <g id="line2d_9">
      <defs>
       <path d="M 0 0 
L -3.5 0 
" id="m51e74ad2c6" style="stroke:#000000;stroke-width:0.8;"/>
      </defs>
      <g>
       <use style="stroke:#000000;stroke-width:0.8;" x="57.6" xlink:href="#m51e74ad2c6" y="275.684883"/>
      </g>
     </g>
     <g id="text_9">
      <!-- 20 -->
      <g transform="translate(37.875 279.484101)scale(0.1 -0.1)">
       <use xlink:href="#DejaVuSans-50"/>
       <use x="63.623047" xlink:href="#DejaVuSans-48"/>
      </g>
     </g>
    </g>
    <g id="ytick_2">
     <g id="line2d_10">
      <g>
       <use style="stroke:#000000;stroke-width:0.8;" x="57.6" xlink:href="#m51e74ad2c6" y="236.556091"/>
      </g>
     </g>
     <g id="text_10">
      <!-- 40 -->
      <g transform="translate(37.875 240.35531)scale(0.1 -0.1)">
       <defs>
        <path d="M 37.796875 64.3125 
L 12.890625 25.390625 
L 37.796875 25.390625 
z
M 35.203125 72.90625 
L 47.609375 72.90625 
L 47.609375 25.390625 
L 58.015625 25.390625 
L 58.015625 17.1875 
L 47.609375 17.1875 
L 47.609375 0 
L 37.796875 0 
L 37.796875 17.1875 
L 4.890625 17.1875 
L 4.890625 26.703125 
z
" id="DejaVuSans-52"/>
       </defs>
       <use xlink:href="#DejaVuSans-52"/>
       <use x="63.623047" xlink:href="#DejaVuSans-48"/>
      </g>
     </g>
    </g>
    <g id="ytick_3">
     <g id="line2d_11">
      <g>
       <use style="stroke:#000000;stroke-width:0.8;" x="57.6" xlink:href="#m51e74ad2c6" y="197.4273"/>
      </g>
     </g>
     <g id="text_11">
      <!-- 60 -->
      <g transform="translate(37.875 201.226519)scale(0.1 -0.1)">
       <defs>
        <path d="M 33.015625 40.375 
Q 26.375 40.375 22.484375 35.828125 
Q 18.609375 31.296875 18.609375 23.390625 
Q 18.609375 15.53125 22.484375 10.953125 
Q 26.375 6.390625 33.015625 6.390625 
Q 39.65625 6.390625 43.53125 10.953125 
Q 47.40625 15.53125 47.40625 23.390625 
Q 47.40625 31.296875 43.53125 35.828125 
Q 39.65625 40.375 33.015625 40.375 
z
M 52.59375 71.296875 
L 52.59375 62.3125 
Q 48.875 64.0625 45.09375 64.984375 
Q 41.3125 65.921875 37.59375 65.921875 
Q 27.828125 65.921875 22.671875 59.328125 
Q 17.53125 52.734375 16.796875 39.40625 
Q 19.671875 43.65625 24.015625 45.921875 
Q 28.375 48.1875 33.59375 48.1875 
Q 44.578125 48.1875 50.953125 41.515625 
Q 57.328125 34.859375 57.328125 23.390625 
Q 57.328125 12.15625 50.6875 5.359375 
Q 44.046875 -1.421875 33.015625 -1.421875 
Q 20.359375 -1.421875 13.671875 8.265625 
Q 6.984375 17.96875 6.984375 36.375 
Q 6.984375 53.65625 15.1875 63.9375 
Q 23.390625 74.21875 37.203125 74.21875 
Q 40.921875 74.21875 44.703125 73.484375 
Q 48.484375 72.75 52.59375 71.296875 
z
" id="DejaVuSans-54"/>
       </defs>
       <use xlink:href="#DejaVuSans-54"/>
       <use x="63.623047" xlink:href="#DejaVuSans-48"/>
      </g>
     </g>
    </g>
    <g id="ytick_4">
     <g id="line2d_12">
      <g>
       <use style="stroke:#000000;stroke-width:0.8;" x="57.6" xlink:href="#m51e74ad2c6" y="158.298509"/>
      </g>
     </g>
     <g id="text_12">
      <!-- 80 -->
      <g transform="translate(37.875 162.097728)scale(0.1 -0.1)">
       <defs>
        <path d="M 31.78125 34.625 
Q 24.75 34.625 20.71875 30.859375 
Q 16.703125 27.09375 16.703125 20.515625 
Q 16.703125 13.921875 20.71875 10.15625 
Q 24.75 6.390625 31.78125 6.390625 
Q 38.8125 6.390625 42.859375 10.171875 
Q 46.921875 13.96875 46.921875 20.515625 
Q 46.921875 27.09375 42.890625 30.859375 
Q 38.875 34.625 31.78125 34.625 
z
M 21.921875 38.8125 
Q 15.578125 40.375 12.03125 44.71875 
Q 8.5 49.078125 8.5 55.328125 
Q 8.5 64.0625 14.71875 69.140625 
Q 20.953125 74.21875 31.78125 74.21875 
Q 42.671875 74.21875 48.875 69.140625 
Q 55.078125 64.0625 55.078125 55.328125 
Q 55.078125 49.078125 51.53125 44.71875 
Q 48 40.375 41.703125 38.8125 
Q 48.828125 37.15625 52.796875 32.3125 
Q 56.78125 27.484375 56.78125 20.515625 
Q 56.78125 9.90625 50.3125 4.234375 
Q 43.84375 -1.421875 31.78125 -1.421875 
Q 19.734375 -1.421875 13.25 4.234375 
Q 6.78125 9.90625 6.78125 20.515625 
Q 6.78125 27.484375 10.78125 32.3125 
Q 14.796875 37.15625 21.921875 38.8125 
z
M 18.3125 54.390625 
Q 18.3125 48.734375 21.84375 45.5625 
Q 25.390625 42.390625 31.78125 42.390625 
Q 38.140625 42.390625 41.71875 45.5625 
Q 45.3125 48.734375 45.3125 54.390625 
Q 45.3125 60.0625 41.71875 63.234375 
Q 38.140625 66.40625 31.78125 66.40625 
Q 25.390625 66.40625 21.84375 63.234375 
Q 18.3125 60.0625 18.3125 54.390625 
z
" id="DejaVuSans-56"/>
       </defs>
       <use xlink:href="#DejaVuSans-56"/>
       <use x="63.623047" xlink:href="#DejaVuSans-48"/>
      </g>
     </g>
    </g>
    <g id="ytick_5">
     <g id="line2d_13">
      <g>
       <use style="stroke:#000000;stroke-width:0.8;" x="57.6" xlink:href="#m51e74ad2c6" y="119.169718"/>
      </g>
     </g>
     <g id="text_13">
      <!-- 100 -->
      <g transform="translate(31.5125 122.968936)scale(0.1 -0.1)">
       <use xlink:href="#DejaVuSans-49"/>
       <use x="63.623047" xlink:href="#DejaVuSans-48"/>
       <use x="127.246094" xlink:href="#DejaVuSans-48"/>
      </g>
     </g>
    </g>
    <g id="ytick_6">
     <g id="line2d_14">
      <g>
       <use style="stroke:#000000;stroke-width:0.8;" x="57.6" xlink:href="#m51e74ad2c6" y="80.040926"/>
      </g>
     </g>
     <g id="text_14">
      <!-- 120 -->
      <g transform="translate(31.5125 83.840145)scale(0.1 -0.1)">
       <use xlink:href="#DejaVuSans-49"/>
       <use x="63.623047" xlink:href="#DejaVuSans-50"/>
       <use x="127.246094" xlink:href="#DejaVuSans-48"/>
      </g>
     </g>
    </g>
   </g>
   <g id="line2d_15">
    <path clip-path="url(#pc064797019)" d="M 285.676817 295.249278 
L 285.903764 285.529686 
L 285.860722 279.625152 
L 285.555518 273.718661 
L 285.156404 269.805782 
L 284.563603 265.926162 
L 283.745811 262.093497 
L 282.675639 258.323438 
L 281.321783 254.627724 
L 279.672504 251.035701 
L 277.731716 247.588454 
L 275.507244 244.329026 
L 273.004958 241.300457 
L 270.232683 238.539921 
L 267.215853 236.053286 
L 264.00338 233.803381 
L 260.638303 231.754989 
L 257.171493 229.867025 
L 251.869541 227.263003 
L 246.504984 224.866365 
L 239.281809 221.894533 
L 228.36292 217.686232 
L 211.793833 211.404104 
L 208.209636 209.788085 
L 204.766302 207.950989 
L 201.516656 205.820426 
L 198.505696 203.349443 
L 195.735377 200.571299 
L 193.197875 197.54273 
L 190.885364 194.318518 
L 188.79393 190.959311 
L 186.911835 187.508152 
L 185.235166 183.974822 
L 183.760011 180.355409 
L 182.480499 176.645999 
L 181.394675 172.84855 
L 180.506452 168.963061 
L 179.878435 165.024748 
L 179.581056 161.07861 
L 179.577143 159.112388 
L 179.684747 157.161818 
L 179.909738 155.226899 
L 180.261897 153.315457 
L 180.747094 151.433363 
L 181.361416 149.580614 
L 182.093124 147.763082 
L 183.873484 144.239534 
L 186.015786 140.882284 
L 188.445684 137.712852 
L 191.094703 134.752759 
L 193.915889 132.003961 
L 196.891633 129.45472 
L 200.008241 127.085472 
L 203.248105 124.884478 
L 206.59753 122.834129 
L 210.04282 120.938339 
L 213.574193 119.210803 
L 217.183824 117.671085 
L 220.861931 116.336793 
L 224.600687 115.223579 
L 228.388354 114.306009 
L 234.136373 113.155622 
L 243.795315 111.281353 
L 247.639719 110.35987 
L 251.423473 109.258395 
L 255.111362 107.928016 
L 258.666212 106.313953 
L 262.052809 104.369252 
L 265.243762 102.09 
L 268.233202 99.519239 
L 271.00939 96.701966 
L 273.562543 93.681223 
L 275.886793 90.503965 
L 277.999748 87.203452 
L 279.948362 83.810986 
L 282.671726 78.606856 
L 287.993241 68.128166 
L 289.908596 64.716135 
L 291.976552 61.392145 
L 294.242109 58.179671 
L 294.242109 58.179671 
" style="fill:none;stroke:#fea952;stroke-linecap:square;"/>
   </g>
   <g id="line2d_16">
    <path clip-path="url(#pc064797019)" d="M 277.854701 295.010556 
L 278.078068 285.498539 
L 278.039677 279.896716 
L 277.761835 274.42647 
L 277.406058 270.889583 
L 276.885935 267.441388 
L 276.180155 264.094332 
L 275.275972 260.870481 
L 274.146123 257.750608 
L 272.776442 254.735271 
L 271.174158 251.859393 
L 269.358571 249.170133 
L 267.347701 246.707669 
L 265.12557 244.469499 
L 262.613428 242.382597 
L 259.841761 240.430856 
L 256.822644 238.587502 
L 253.625225 236.843161 
L 248.5995 234.372808 
L 243.444012 232.068652 
L 236.407916 229.173491 
L 225.612537 225.012751 
L 208.668952 218.578894 
L 204.656737 216.760846 
L 200.642032 214.601769 
L 198.658201 213.359808 
L 196.714831 211.999824 
L 194.857614 210.54265 
L 193.094579 209.002965 
L 189.83821 205.715801 
L 186.919706 202.214676 
L 184.305772 198.555435 
L 181.978801 194.805934 
L 179.890508 190.964083 
L 178.030063 187.029159 
L 176.396555 183.005315 
L 174.985852 178.898277 
L 173.791404 174.701319 
L 172.802181 170.336631 
L 172.09083 165.796562 
L 171.867425 163.453874 
L 171.755313 161.094183 
L 171.763266 158.681331 
L 171.911364 156.257936 
L 172.213508 153.808965 
L 172.683901 151.361878 
L 173.319015 148.970409 
L 174.101867 146.65804 
L 175.013113 144.429026 
L 176.047804 142.259969 
L 177.176574 140.190598 
L 179.710418 136.247111 
L 182.523488 132.597181 
L 185.545556 129.234656 
L 188.732262 126.141154 
L 192.067078 123.293052 
L 195.529386 120.668125 
L 199.09065 118.25439 
L 202.740905 116.024655 
L 206.515027 113.952842 
L 210.408878 112.05376 
L 214.41546 110.351341 
L 218.516988 108.870621 
L 222.674932 107.638465 
L 226.76311 106.650875 
L 232.706911 105.461525 
L 242.045235 103.653791 
L 247.247039 102.353666 
L 250.490631 101.315498 
L 253.516755 100.106978 
L 256.310515 98.704574 
L 258.973546 97.011933 
L 261.536905 95.013718 
L 263.969018 92.753295 
L 266.247533 90.269795 
L 268.35868 87.599972 
L 270.316945 84.742535 
L 272.165912 81.689258 
L 274.810336 76.796058 
L 282.144957 62.525765 
L 284.330367 58.820258 
L 286.759363 55.158585 
L 287.919532 53.568 
L 287.919532 53.568 
" style="fill:none;stroke:#ffffff;stroke-linecap:square;"/>
   </g>
   <g id="line2d_17">
    <path clip-path="url(#pc064797019)" d="M 293.498933 295.488 
L 293.72946 285.560834 
L 293.681767 279.353588 
L 293.349201 273.010851 
L 292.90675 268.721981 
L 292.241271 264.410936 
L 291.311467 260.092662 
L 290.075305 255.776395 
L 288.497442 251.504839 
L 286.568566 247.33613 
L 284.289274 243.317515 
L 281.655917 239.487919 
L 278.662214 235.893245 
L 277.033877 234.203483 
L 273.597291 231.119215 
L 270.006221 228.412405 
L 266.312452 226.016193 
L 262.584096 223.880266 
L 257.001777 221.036493 
L 251.414793 218.46627 
L 243.99718 215.3513 
L 232.956929 211.05648 
L 213.296158 203.525448 
L 210.280319 202.06635 
L 207.568021 200.491821 
L 205.104088 198.711346 
L 202.759414 196.599873 
L 200.535537 194.178726 
L 198.45239 191.50326 
L 196.51898 188.6193 
L 194.75014 185.597729 
L 193.16467 182.498189 
L 191.759605 179.322605 
L 190.527925 176.058762 
L 189.465457 172.707455 
L 188.576228 169.278626 
L 187.905642 165.908197 
L 187.498157 162.647527 
L 187.391021 159.543444 
L 187.605968 156.644833 
L 188.175173 153.896316 
L 189.173136 151.097138 
L 190.570395 148.288471 
L 192.321153 145.517457 
L 194.367879 142.828523 
L 196.64385 140.270862 
L 199.099516 137.866768 
L 201.716188 135.616389 
L 204.487097 133.50282 
L 207.40556 131.514565 
L 210.454154 129.643603 
L 213.570613 127.923836 
L 216.739509 126.367846 
L 219.952189 124.990829 
L 223.206874 123.802966 
L 226.526441 122.808694 
L 230.013598 121.961143 
L 235.565835 120.84972 
L 245.545396 118.908916 
L 249.71982 117.904118 
L 253.942606 116.66761 
L 258.188408 115.12345 
L 262.383884 113.200274 
L 264.457418 112.068628 
L 266.447749 110.844359 
L 270.219198 108.130491 
L 273.700631 105.11832 
L 276.894559 101.860189 
L 279.797901 98.410156 
L 282.417383 94.816029 
L 284.745238 91.170927 
L 286.838213 87.52211 
L 289.666601 82.116017 
L 294.849634 71.900747 
L 297.509783 67.262589 
L 299.404518 64.381927 
L 300.564687 62.791342 
L 300.564687 62.791342 
" style="fill:none;stroke:#ffffff;stroke-linecap:square;"/>
   </g>
   <g id="patch_3">
    <path d="M 57.6 307.584 
L 57.6 41.472 
" style="fill:none;stroke:#000000;stroke-linecap:square;stroke-linejoin:miter;stroke-width:0.8;"/>
   </g>
   <g id="patch_4">
    <path d="M 414.72 307.584 
L 414.72 41.472 
" style="fill:none;stroke:#000000;stroke-linecap:square;stroke-linejoin:miter;stroke-width:0.8;"/>
   </g>
   <g id="patch_5">
    <path d="M 57.6 307.584 
L 414.72 307.584 
" style="fill:none;stroke:#000000;stroke-linecap:square;stroke-linejoin:miter;stroke-width:0.8;"/>
   </g>
   <g id="patch_6">
    <path d="M 57.6 41.472 
L 414.72 41.472 
" style="fill:none;stroke:#000000;stroke-linecap:square;stroke-linejoin:miter;stroke-width:0.8;"/>
   </g>
  </g>
 </g>
 <defs>
  <clipPath id="pc064797019">
   <rect height="266.112" width="357.12" x="57.6" y="41.472"/>
  </clipPath>
 </defs>
</svg>
