<?xml version="1.0" encoding="utf-8" standalone="no"?>
<!DOCTYPE svg PUBLIC "-//W3C//DTD SVG 1.1//EN"
  "http://www.w3.org/Graphics/SVG/1.1/DTD/svg11.dtd">
<!-- Created with matplotlib (https://matplotlib.org/) -->
<svg height="345.6pt" version="1.1" viewBox="0 0 460.8 345.6" width="460.8pt" xmlns="http://www.w3.org/2000/svg" xmlns:xlink="http://www.w3.org/1999/xlink">
 <metadata>
  <rdf:RDF xmlns:cc="http://creativecommons.org/ns#" xmlns:dc="http://purl.org/dc/elements/1.1/" xmlns:rdf="http://www.w3.org/1999/02/22-rdf-syntax-ns#">
   <cc:Work>
    <dc:type rdf:resource="http://purl.org/dc/dcmitype/StillImage"/>
    <dc:date>2021-01-22T11:48:56.697192</dc:date>
    <dc:format>image/svg+xml</dc:format>
    <dc:creator>
     <cc:Agent>
      <dc:title>Matplotlib v3.3.3, https://matplotlib.org/</dc:title>
     </cc:Agent>
    </dc:creator>
   </cc:Work>
  </rdf:RDF>
 </metadata>
 <defs>
  <style type="text/css">*{stroke-linecap:butt;stroke-linejoin:round;}</style>
 </defs>
 <g id="figure_1">
  <g id="patch_1">
   <path d="M 0 345.6 
L 460.8 345.6 
L 460.8 0 
L 0 0 
z
" style="fill:#ffffff;"/>
  </g>
  <g id="axes_1">
   <g id="patch_2">
    <path d="M 57.6 307.584 
L 414.72 307.584 
L 414.72 41.472 
L 57.6 41.472 
z
" style="fill:#7d9051;"/>
   </g>
   <g id="matplotlib.axis_1">
    <g id="xtick_1">
     <g id="line2d_1">
      <defs>
       <path d="M 0 0 
L 0 3.5 
" id="mb1d1622046" style="stroke:#000000;stroke-width:0.8;"/>
      </defs>
      <g>
       <use style="stroke:#000000;stroke-width:0.8;" x="61.70165" xlink:href="#mb1d1622046" y="307.584"/>
      </g>
     </g>
     <g id="text_1">
      <!-- 0 -->
      <g transform="translate(58.5204 322.182437)scale(0.1 -0.1)">
       <defs>
        <path d="M 31.78125 66.40625 
Q 24.171875 66.40625 20.328125 58.90625 
Q 16.5 51.421875 16.5 36.375 
Q 16.5 21.390625 20.328125 13.890625 
Q 24.171875 6.390625 31.78125 6.390625 
Q 39.453125 6.390625 43.28125 13.890625 
Q 47.125 21.390625 47.125 36.375 
Q 47.125 51.421875 43.28125 58.90625 
Q 39.453125 66.40625 31.78125 66.40625 
z
M 31.78125 74.21875 
Q 44.046875 74.21875 50.515625 64.515625 
Q 56.984375 54.828125 56.984375 36.375 
Q 56.984375 17.96875 50.515625 8.265625 
Q 44.046875 -1.421875 31.78125 -1.421875 
Q 19.53125 -1.421875 13.0625 8.265625 
Q 6.59375 17.96875 6.59375 36.375 
Q 6.59375 54.828125 13.0625 64.515625 
Q 19.53125 74.21875 31.78125 74.21875 
z
" id="DejaVuSans-48"/>
       </defs>
       <use xlink:href="#DejaVuSans-48"/>
      </g>
     </g>
    </g>
    <g id="xtick_2">
     <g id="line2d_2">
      <g>
       <use style="stroke:#000000;stroke-width:0.8;" x="105.111206" xlink:href="#mb1d1622046" y="307.584"/>
      </g>
     </g>
     <g id="text_2">
      <!-- 20 -->
      <g transform="translate(98.748706 322.182437)scale(0.1 -0.1)">
       <defs>
        <path d="M 19.1875 8.296875 
L 53.609375 8.296875 
L 53.609375 0 
L 7.328125 0 
L 7.328125 8.296875 
Q 12.9375 14.109375 22.625 23.890625 
Q 32.328125 33.6875 34.8125 36.53125 
Q 39.546875 41.84375 41.421875 45.53125 
Q 43.3125 49.21875 43.3125 52.78125 
Q 43.3125 58.59375 39.234375 62.25 
Q 35.15625 65.921875 28.609375 65.921875 
Q 23.96875 65.921875 18.8125 64.3125 
Q 13.671875 62.703125 7.8125 59.421875 
L 7.8125 69.390625 
Q 13.765625 71.78125 18.9375 73 
Q 24.125 74.21875 28.421875 74.21875 
Q 39.75 74.21875 46.484375 68.546875 
Q 53.21875 62.890625 53.21875 53.421875 
Q 53.21875 48.921875 51.53125 44.890625 
Q 49.859375 40.875 45.40625 35.40625 
Q 44.1875 33.984375 37.640625 27.21875 
Q 31.109375 20.453125 19.1875 8.296875 
z
" id="DejaVuSans-50"/>
       </defs>
       <use xlink:href="#DejaVuSans-50"/>
       <use x="63.623047" xlink:href="#DejaVuSans-48"/>
      </g>
     </g>
    </g>
    <g id="xtick_3">
     <g id="line2d_3">
      <g>
       <use style="stroke:#000000;stroke-width:0.8;" x="148.520762" xlink:href="#mb1d1622046" y="307.584"/>
      </g>
     </g>
     <g id="text_3">
      <!-- 40 -->
      <g transform="translate(142.158262 322.182437)scale(0.1 -0.1)">
       <defs>
        <path d="M 37.796875 64.3125 
L 12.890625 25.390625 
L 37.796875 25.390625 
z
M 35.203125 72.90625 
L 47.609375 72.90625 
L 47.609375 25.390625 
L 58.015625 25.390625 
L 58.015625 17.1875 
L 47.609375 17.1875 
L 47.609375 0 
L 37.796875 0 
L 37.796875 17.1875 
L 4.890625 17.1875 
L 4.890625 26.703125 
z
" id="DejaVuSans-52"/>
       </defs>
       <use xlink:href="#DejaVuSans-52"/>
       <use x="63.623047" xlink:href="#DejaVuSans-48"/>
      </g>
     </g>
    </g>
    <g id="xtick_4">
     <g id="line2d_4">
      <g>
       <use style="stroke:#000000;stroke-width:0.8;" x="191.930318" xlink:href="#mb1d1622046" y="307.584"/>
      </g>
     </g>
     <g id="text_4">
      <!-- 60 -->
      <g transform="translate(185.567818 322.182437)scale(0.1 -0.1)">
       <defs>
        <path d="M 33.015625 40.375 
Q 26.375 40.375 22.484375 35.828125 
Q 18.609375 31.296875 18.609375 23.390625 
Q 18.609375 15.53125 22.484375 10.953125 
Q 26.375 6.390625 33.015625 6.390625 
Q 39.65625 6.390625 43.53125 10.953125 
Q 47.40625 15.53125 47.40625 23.390625 
Q 47.40625 31.296875 43.53125 35.828125 
Q 39.65625 40.375 33.015625 40.375 
z
M 52.59375 71.296875 
L 52.59375 62.3125 
Q 48.875 64.0625 45.09375 64.984375 
Q 41.3125 65.921875 37.59375 65.921875 
Q 27.828125 65.921875 22.671875 59.328125 
Q 17.53125 52.734375 16.796875 39.40625 
Q 19.671875 43.65625 24.015625 45.921875 
Q 28.375 48.1875 33.59375 48.1875 
Q 44.578125 48.1875 50.953125 41.515625 
Q 57.328125 34.859375 57.328125 23.390625 
Q 57.328125 12.15625 50.6875 5.359375 
Q 44.046875 -1.421875 33.015625 -1.421875 
Q 20.359375 -1.421875 13.671875 8.265625 
Q 6.984375 17.96875 6.984375 36.375 
Q 6.984375 53.65625 15.1875 63.9375 
Q 23.390625 74.21875 37.203125 74.21875 
Q 40.921875 74.21875 44.703125 73.484375 
Q 48.484375 72.75 52.59375 71.296875 
z
" id="DejaVuSans-54"/>
       </defs>
       <use xlink:href="#DejaVuSans-54"/>
       <use x="63.623047" xlink:href="#DejaVuSans-48"/>
      </g>
     </g>
    </g>
    <g id="xtick_5">
     <g id="line2d_5">
      <g>
       <use style="stroke:#000000;stroke-width:0.8;" x="235.339874" xlink:href="#mb1d1622046" y="307.584"/>
      </g>
     </g>
     <g id="text_5">
      <!-- 80 -->
      <g transform="translate(228.977374 322.182437)scale(0.1 -0.1)">
       <defs>
        <path d="M 31.78125 34.625 
Q 24.75 34.625 20.71875 30.859375 
Q 16.703125 27.09375 16.703125 20.515625 
Q 16.703125 13.921875 20.71875 10.15625 
Q 24.75 6.390625 31.78125 6.390625 
Q 38.8125 6.390625 42.859375 10.171875 
Q 46.921875 13.96875 46.921875 20.515625 
Q 46.921875 27.09375 42.890625 30.859375 
Q 38.875 34.625 31.78125 34.625 
z
M 21.921875 38.8125 
Q 15.578125 40.375 12.03125 44.71875 
Q 8.5 49.078125 8.5 55.328125 
Q 8.5 64.0625 14.71875 69.140625 
Q 20.953125 74.21875 31.78125 74.21875 
Q 42.671875 74.21875 48.875 69.140625 
Q 55.078125 64.0625 55.078125 55.328125 
Q 55.078125 49.078125 51.53125 44.71875 
Q 48 40.375 41.703125 38.8125 
Q 48.828125 37.15625 52.796875 32.3125 
Q 56.78125 27.484375 56.78125 20.515625 
Q 56.78125 9.90625 50.3125 4.234375 
Q 43.84375 -1.421875 31.78125 -1.421875 
Q 19.734375 -1.421875 13.25 4.234375 
Q 6.78125 9.90625 6.78125 20.515625 
Q 6.78125 27.484375 10.78125 32.3125 
Q 14.796875 37.15625 21.921875 38.8125 
z
M 18.3125 54.390625 
Q 18.3125 48.734375 21.84375 45.5625 
Q 25.390625 42.390625 31.78125 42.390625 
Q 38.140625 42.390625 41.71875 45.5625 
Q 45.3125 48.734375 45.3125 54.390625 
Q 45.3125 60.0625 41.71875 63.234375 
Q 38.140625 66.40625 31.78125 66.40625 
Q 25.390625 66.40625 21.84375 63.234375 
Q 18.3125 60.0625 18.3125 54.390625 
z
" id="DejaVuSans-56"/>
       </defs>
       <use xlink:href="#DejaVuSans-56"/>
       <use x="63.623047" xlink:href="#DejaVuSans-48"/>
      </g>
     </g>
    </g>
    <g id="xtick_6">
     <g id="line2d_6">
      <g>
       <use style="stroke:#000000;stroke-width:0.8;" x="278.749431" xlink:href="#mb1d1622046" y="307.584"/>
      </g>
     </g>
     <g id="text_6">
      <!-- 100 -->
      <g transform="translate(269.205681 322.182437)scale(0.1 -0.1)">
       <defs>
        <path d="M 12.40625 8.296875 
L 28.515625 8.296875 
L 28.515625 63.921875 
L 10.984375 60.40625 
L 10.984375 69.390625 
L 28.421875 72.90625 
L 38.28125 72.90625 
L 38.28125 8.296875 
L 54.390625 8.296875 
L 54.390625 0 
L 12.40625 0 
z
" id="DejaVuSans-49"/>
       </defs>
       <use xlink:href="#DejaVuSans-49"/>
       <use x="63.623047" xlink:href="#DejaVuSans-48"/>
       <use x="127.246094" xlink:href="#DejaVuSans-48"/>
      </g>
     </g>
    </g>
    <g id="xtick_7">
     <g id="line2d_7">
      <g>
       <use style="stroke:#000000;stroke-width:0.8;" x="322.158987" xlink:href="#mb1d1622046" y="307.584"/>
      </g>
     </g>
     <g id="text_7">
      <!-- 120 -->
      <g transform="translate(312.615237 322.182437)scale(0.1 -0.1)">
       <use xlink:href="#DejaVuSans-49"/>
       <use x="63.623047" xlink:href="#DejaVuSans-50"/>
       <use x="127.246094" xlink:href="#DejaVuSans-48"/>
      </g>
     </g>
    </g>
    <g id="xtick_8">
     <g id="line2d_8">
      <g>
       <use style="stroke:#000000;stroke-width:0.8;" x="365.568543" xlink:href="#mb1d1622046" y="307.584"/>
      </g>
     </g>
     <g id="text_8">
      <!-- 140 -->
      <g transform="translate(356.024793 322.182437)scale(0.1 -0.1)">
       <use xlink:href="#DejaVuSans-49"/>
       <use x="63.623047" xlink:href="#DejaVuSans-52"/>
       <use x="127.246094" xlink:href="#DejaVuSans-48"/>
      </g>
     </g>
    </g>
    <g id="xtick_9">
     <g id="line2d_9">
      <g>
       <use style="stroke:#000000;stroke-width:0.8;" x="408.978099" xlink:href="#mb1d1622046" y="307.584"/>
      </g>
     </g>
     <g id="text_9">
      <!-- 160 -->
      <g transform="translate(399.434349 322.182437)scale(0.1 -0.1)">
       <use xlink:href="#DejaVuSans-49"/>
       <use x="63.623047" xlink:href="#DejaVuSans-54"/>
       <use x="127.246094" xlink:href="#DejaVuSans-48"/>
      </g>
     </g>
    </g>
   </g>
   <g id="matplotlib.axis_2">
    <g id="ytick_1">
     <g id="line2d_10">
      <defs>
       <path d="M 0 0 
L -3.5 0 
" id="m6c26ecd97b" style="stroke:#000000;stroke-width:0.8;"/>
      </defs>
      <g>
       <use style="stroke:#000000;stroke-width:0.8;" x="57.6" xlink:href="#m6c26ecd97b" y="297.283981"/>
      </g>
     </g>
     <g id="text_10">
      <!-- −20 -->
      <g transform="translate(29.495313 301.0832)scale(0.1 -0.1)">
       <defs>
        <path d="M 10.59375 35.5 
L 73.1875 35.5 
L 73.1875 27.203125 
L 10.59375 27.203125 
z
" id="DejaVuSans-8722"/>
       </defs>
       <use xlink:href="#DejaVuSans-8722"/>
       <use x="83.789062" xlink:href="#DejaVuSans-50"/>
       <use x="147.412109" xlink:href="#DejaVuSans-48"/>
      </g>
     </g>
    </g>
    <g id="ytick_2">
     <g id="line2d_11">
      <g>
       <use style="stroke:#000000;stroke-width:0.8;" x="57.6" xlink:href="#m6c26ecd97b" y="253.874425"/>
      </g>
     </g>
     <g id="text_11">
      <!-- 0 -->
      <g transform="translate(44.2375 257.673644)scale(0.1 -0.1)">
       <use xlink:href="#DejaVuSans-48"/>
      </g>
     </g>
    </g>
    <g id="ytick_3">
     <g id="line2d_12">
      <g>
       <use style="stroke:#000000;stroke-width:0.8;" x="57.6" xlink:href="#m6c26ecd97b" y="210.464869"/>
      </g>
     </g>
     <g id="text_12">
      <!-- 20 -->
      <g transform="translate(37.875 214.264087)scale(0.1 -0.1)">
       <use xlink:href="#DejaVuSans-50"/>
       <use x="63.623047" xlink:href="#DejaVuSans-48"/>
      </g>
     </g>
    </g>
    <g id="ytick_4">
     <g id="line2d_13">
      <g>
       <use style="stroke:#000000;stroke-width:0.8;" x="57.6" xlink:href="#m6c26ecd97b" y="167.055312"/>
      </g>
     </g>
     <g id="text_13">
      <!-- 40 -->
      <g transform="translate(37.875 170.854531)scale(0.1 -0.1)">
       <use xlink:href="#DejaVuSans-52"/>
       <use x="63.623047" xlink:href="#DejaVuSans-48"/>
      </g>
     </g>
    </g>
    <g id="ytick_5">
     <g id="line2d_14">
      <g>
       <use style="stroke:#000000;stroke-width:0.8;" x="57.6" xlink:href="#m6c26ecd97b" y="123.645756"/>
      </g>
     </g>
     <g id="text_14">
      <!-- 60 -->
      <g transform="translate(37.875 127.444975)scale(0.1 -0.1)">
       <use xlink:href="#DejaVuSans-54"/>
       <use x="63.623047" xlink:href="#DejaVuSans-48"/>
      </g>
     </g>
    </g>
    <g id="ytick_6">
     <g id="line2d_15">
      <g>
       <use style="stroke:#000000;stroke-width:0.8;" x="57.6" xlink:href="#m6c26ecd97b" y="80.2362"/>
      </g>
     </g>
     <g id="text_15">
      <!-- 80 -->
      <g transform="translate(37.875 84.035419)scale(0.1 -0.1)">
       <use xlink:href="#DejaVuSans-56"/>
       <use x="63.623047" xlink:href="#DejaVuSans-48"/>
      </g>
     </g>
    </g>
   </g>
   <g id="line2d_16">
    <path clip-path="url(#pe81ac9d22a)" d="M 393.487399 122.627802 
L 391.62947 123.9366 
L 387.818111 126.213431 
L 383.887376 128.088724 
L 379.856798 129.631934 
L 375.748084 130.912516 
L 371.576426 132.002096 
L 363.118074 133.88173 
L 356.749892 135.303393 
L 352.526142 136.386461 
L 348.343631 137.651849 
L 344.226235 139.121263 
L 340.20651 140.809895 
L 336.310502 142.737279 
L 332.566428 144.914268 
L 328.98948 147.340862 
L 325.538421 149.9628 
L 318.81211 155.484495 
L 313.713658 159.578016 
L 310.210506 162.167396 
L 306.607513 164.609184 
L 302.898167 166.870822 
L 299.067273 168.924094 
L 295.106151 170.738613 
L 291.023483 172.290505 
L 286.840972 173.555893 
L 282.580324 174.515245 
L 278.267584 175.142513 
L 273.924458 175.422504 
L 269.57265 175.35522 
L 265.229524 174.968874 
L 260.916785 174.287344 
L 256.651796 173.341016 
L 252.454092 172.158106 
L 248.330184 170.760318 
L 244.282243 169.167187 
L 240.310269 167.400418 
L 236.41209 165.481716 
L 230.703734 162.358398 
L 223.256824 157.908919 
L 213.943304 152.296063 
L 208.224095 149.131507 
L 204.328087 147.197611 
L 200.349602 145.459058 
L 196.275615 143.961428 
L 192.101786 142.74379 
L 187.845479 141.808315 
L 183.530569 141.15283 
L 179.180931 140.768656 
L 174.824783 140.655791 
L 170.479486 140.796872 
L 166.149383 141.15283 
L 159.681359 141.966759 
L 148.96571 143.644539 
L 136.144697 145.834551 
L 127.556117 147.547058 
L 123.288957 148.588887 
L 119.112958 149.860787 
L 115.075869 151.445236 
L 113.12678 152.380712 
L 111.234124 153.424712 
L 109.40007 154.585917 
L 107.633301 155.857817 
L 105.933817 157.23173 
L 104.305958 158.703314 
L 101.273801 161.898257 
L 98.562874 165.377533 
L 96.197053 169.076027 
L 94.18285 172.939478 
L 92.468172 176.926645 
L 90.985736 181.009314 
L 89.043159 187.251608 
L 86.670826 195.647017 
L 85.075525 201.971789 
L 83.773238 208.333459 
L 83.124266 212.602789 
L 82.69234 216.893824 
L 82.514361 221.217416 
L 82.625056 225.571394 
L 83.056981 229.9601 
L 83.406428 232.169647 
L 83.406428 232.169647 
" style="fill:none;stroke:#fea952;stroke-linecap:square;"/>
   </g>
   <g id="line2d_17">
    <path clip-path="url(#pe81ac9d22a)" d="M 398.487273 129.725467 
L 396.264916 131.27746 
L 394.003095 132.692964 
L 391.721446 133.968401 
L 387.132804 136.141226 
L 382.55491 137.883951 
L 378.022083 139.291329 
L 373.564925 140.453217 
L 364.949037 142.368375 
L 356.863149 144.217248 
L 353.040447 145.273506 
L 349.300904 146.497023 
L 345.679593 147.892946 
L 342.214842 149.46291 
L 338.917888 151.216766 
L 335.745943 153.205698 
L 332.577495 155.488189 
L 327.706473 159.385743 
L 318.93663 166.513155 
L 315.161335 169.299359 
L 311.221383 171.963624 
L 307.11006 174.462629 
L 302.814356 176.755757 
L 298.333508 178.798375 
L 293.688601 180.553236 
L 288.901976 181.989626 
L 283.997809 183.080659 
L 279.002895 183.793229 
L 273.959082 184.104347 
L 268.959004 184.015417 
L 264.011393 183.564905 
L 259.166052 182.790904 
L 254.406192 181.727484 
L 249.765748 180.41331 
L 245.239104 178.87332 
L 240.842412 177.138583 
L 236.549392 175.225467 
L 232.360299 173.160164 
L 226.331873 169.859226 
L 218.72894 165.316607 
L 209.62749 159.829278 
L 204.27576 156.863662 
L 200.743336 155.104895 
L 197.224253 153.558921 
L 193.699848 152.252448 
L 190.10413 151.192752 
L 186.404188 150.369755 
L 182.633382 149.788259 
L 178.826334 149.443322 
L 174.98938 149.336142 
L 171.09558 149.456896 
L 167.10338 149.782168 
L 160.956511 150.554516 
L 150.359103 152.213905 
L 137.744152 154.367858 
L 129.518338 156.004319 
L 125.68316 156.934148 
L 122.104294 158.011093 
L 118.832519 159.272315 
L 115.878366 160.76001 
L 113.091478 162.609401 
L 110.453553 164.833784 
L 107.992849 167.396436 
L 105.76551 170.224967 
L 103.811925 173.246076 
L 102.101371 176.499339 
L 100.594441 179.982678 
L 99.237557 183.708023 
L 97.381172 189.670928 
L 94.531095 199.876407 
L 93.108343 205.83751 
L 92.340766 209.738115 
L 91.749831 213.590316 
L 91.360506 217.382171 
L 91.195995 221.148032 
L 91.279806 224.88519 
L 91.632309 228.603884 
L 91.981756 230.813431 
L 91.981756 230.813431 
" style="fill:none;stroke:#ffffff;stroke-linecap:square;"/>
   </g>
   <g id="line2d_18">
    <path clip-path="url(#pe81ac9d22a)" d="M 388.487525 115.530137 
L 385.474873 117.567762 
L 382.294348 119.282853 
L 378.921953 120.735155 
L 375.343991 121.976771 
L 371.554873 123.056208 
L 365.524639 124.484257 
L 354.6666 126.875138 
L 350.111438 128.047109 
L 345.533606 129.437268 
L 340.978037 131.069878 
L 336.480593 132.968139 
L 332.083859 135.153673 
L 327.80704 137.653152 
L 323.812409 140.371393 
L 320.104294 143.191843 
L 313.303572 148.773937 
L 308.490686 152.642878 
L 305.259678 155.035434 
L 301.993643 157.254744 
L 298.686274 159.279014 
L 295.32019 161.09243 
L 291.878795 162.678852 
L 288.358364 164.027774 
L 284.779968 165.122161 
L 281.162839 165.949831 
L 277.532274 166.491796 
L 273.889835 166.740662 
L 270.186297 166.695022 
L 266.447655 166.372844 
L 262.667518 165.783785 
L 258.8974 164.954548 
L 255.142436 163.902902 
L 251.421264 162.647316 
L 247.722073 161.195792 
L 244.071145 159.575369 
L 240.463882 157.803268 
L 235.075595 154.857571 
L 227.784709 150.501231 
L 218.259118 144.762848 
L 212.17243 141.399351 
L 207.912839 139.290327 
L 203.474951 137.359195 
L 198.851381 135.670409 
L 194.099442 134.294829 
L 189.28677 133.246874 
L 184.427756 132.517401 
L 179.535529 132.093989 
L 174.660185 131.97544 
L 169.863392 132.136848 
L 165.195386 132.523492 
L 158.406207 133.379002 
L 147.572317 135.075172 
L 134.545243 137.301244 
L 125.593895 139.089797 
L 120.894755 140.243626 
L 116.121622 141.710481 
L 113.721154 142.600691 
L 111.31922 143.618157 
L 108.933437 144.778643 
L 106.589882 146.089414 
L 104.327644 147.53992 
L 102.175124 149.106233 
L 100.111706 150.791341 
L 98.158364 152.572844 
L 96.30889 154.442503 
L 94.554753 156.400078 
L 92.901873 158.435645 
L 91.360238 160.530099 
L 89.913331 162.696958 
L 88.582181 164.905978 
L 86.264329 169.379616 
L 84.341904 173.870613 
L 82.733915 178.310605 
L 80.705145 184.832288 
L 78.278481 193.423478 
L 76.60097 200.085657 
L 75.632599 204.621747 
L 74.825852 209.260284 
L 74.229664 213.993694 
L 73.891827 218.825173 
L 73.85775 223.761189 
L 74.176074 228.77433 
L 74.831099 233.525863 
L 74.831099 233.525863 
" style="fill:none;stroke:#ffffff;stroke-linecap:square;"/>
   </g>
   <g id="patch_3">
    <path d="M 57.6 307.584 
L 57.6 41.472 
" style="fill:none;stroke:#000000;stroke-linecap:square;stroke-linejoin:miter;stroke-width:0.8;"/>
   </g>
   <g id="patch_4">
    <path d="M 414.72 307.584 
L 414.72 41.472 
" style="fill:none;stroke:#000000;stroke-linecap:square;stroke-linejoin:miter;stroke-width:0.8;"/>
   </g>
   <g id="patch_5">
    <path d="M 57.6 307.584 
L 414.72 307.584 
" style="fill:none;stroke:#000000;stroke-linecap:square;stroke-linejoin:miter;stroke-width:0.8;"/>
   </g>
   <g id="patch_6">
    <path d="M 57.6 41.472 
L 414.72 41.472 
" style="fill:none;stroke:#000000;stroke-linecap:square;stroke-linejoin:miter;stroke-width:0.8;"/>
   </g>
  </g>
 </g>
 <defs>
  <clipPath id="pe81ac9d22a">
   <rect height="266.112" width="357.12" x="57.6" y="41.472"/>
  </clipPath>
 </defs>
</svg>
