<?xml version="1.0" encoding="utf-8" standalone="no"?>
<!DOCTYPE svg PUBLIC "-//W3C//DTD SVG 1.1//EN"
  "http://www.w3.org/Graphics/SVG/1.1/DTD/svg11.dtd">
<!-- Created with matplotlib (https://matplotlib.org/) -->
<svg height="345.6pt" version="1.1" viewBox="0 0 460.8 345.6" width="460.8pt" xmlns="http://www.w3.org/2000/svg" xmlns:xlink="http://www.w3.org/1999/xlink">
 <metadata>
  <rdf:RDF xmlns:cc="http://creativecommons.org/ns#" xmlns:dc="http://purl.org/dc/elements/1.1/" xmlns:rdf="http://www.w3.org/1999/02/22-rdf-syntax-ns#">
   <cc:Work>
    <dc:type rdf:resource="http://purl.org/dc/dcmitype/StillImage"/>
    <dc:date>2021-01-22T09:47:14.807407</dc:date>
    <dc:format>image/svg+xml</dc:format>
    <dc:creator>
     <cc:Agent>
      <dc:title>Matplotlib v3.3.3, https://matplotlib.org/</dc:title>
     </cc:Agent>
    </dc:creator>
   </cc:Work>
  </rdf:RDF>
 </metadata>
 <defs>
  <style type="text/css">*{stroke-linecap:butt;stroke-linejoin:round;}</style>
 </defs>
 <g id="figure_1">
  <g id="patch_1">
   <path d="M 0 345.6 
L 460.8 345.6 
L 460.8 0 
L 0 0 
z
" style="fill:#ffffff;"/>
  </g>
  <g id="axes_1">
   <g id="patch_2">
    <path d="M 57.6 307.584 
L 414.72 307.584 
L 414.72 41.472 
L 57.6 41.472 
z
" style="fill:#7d9051;"/>
   </g>
   <g id="matplotlib.axis_1">
    <g id="xtick_1">
     <g id="line2d_1">
      <defs>
       <path d="M 0 0 
L 0 3.5 
" id="m7dc09a7309" style="stroke:#000000;stroke-width:0.8;"/>
      </defs>
      <g>
       <use style="stroke:#000000;stroke-width:0.8;" x="72.452891" xlink:href="#m7dc09a7309" y="307.584"/>
      </g>
     </g>
     <g id="text_1">
      <!-- 0 -->
      <g transform="translate(69.271641 322.182437)scale(0.1 -0.1)">
       <defs>
        <path d="M 31.78125 66.40625 
Q 24.171875 66.40625 20.328125 58.90625 
Q 16.5 51.421875 16.5 36.375 
Q 16.5 21.390625 20.328125 13.890625 
Q 24.171875 6.390625 31.78125 6.390625 
Q 39.453125 6.390625 43.28125 13.890625 
Q 47.125 21.390625 47.125 36.375 
Q 47.125 51.421875 43.28125 58.90625 
Q 39.453125 66.40625 31.78125 66.40625 
z
M 31.78125 74.21875 
Q 44.046875 74.21875 50.515625 64.515625 
Q 56.984375 54.828125 56.984375 36.375 
Q 56.984375 17.96875 50.515625 8.265625 
Q 44.046875 -1.421875 31.78125 -1.421875 
Q 19.53125 -1.421875 13.0625 8.265625 
Q 6.59375 17.96875 6.59375 36.375 
Q 6.59375 54.828125 13.0625 64.515625 
Q 19.53125 74.21875 31.78125 74.21875 
z
" id="DejaVuSans-48"/>
       </defs>
       <use xlink:href="#DejaVuSans-48"/>
      </g>
     </g>
    </g>
    <g id="xtick_2">
     <g id="line2d_2">
      <g>
       <use style="stroke:#000000;stroke-width:0.8;" x="123.242546" xlink:href="#m7dc09a7309" y="307.584"/>
      </g>
     </g>
     <g id="text_2">
      <!-- 20 -->
      <g transform="translate(116.880046 322.182437)scale(0.1 -0.1)">
       <defs>
        <path d="M 19.1875 8.296875 
L 53.609375 8.296875 
L 53.609375 0 
L 7.328125 0 
L 7.328125 8.296875 
Q 12.9375 14.109375 22.625 23.890625 
Q 32.328125 33.6875 34.8125 36.53125 
Q 39.546875 41.84375 41.421875 45.53125 
Q 43.3125 49.21875 43.3125 52.78125 
Q 43.3125 58.59375 39.234375 62.25 
Q 35.15625 65.921875 28.609375 65.921875 
Q 23.96875 65.921875 18.8125 64.3125 
Q 13.671875 62.703125 7.8125 59.421875 
L 7.8125 69.390625 
Q 13.765625 71.78125 18.9375 73 
Q 24.125 74.21875 28.421875 74.21875 
Q 39.75 74.21875 46.484375 68.546875 
Q 53.21875 62.890625 53.21875 53.421875 
Q 53.21875 48.921875 51.53125 44.890625 
Q 49.859375 40.875 45.40625 35.40625 
Q 44.1875 33.984375 37.640625 27.21875 
Q 31.109375 20.453125 19.1875 8.296875 
z
" id="DejaVuSans-50"/>
       </defs>
       <use xlink:href="#DejaVuSans-50"/>
       <use x="63.623047" xlink:href="#DejaVuSans-48"/>
      </g>
     </g>
    </g>
    <g id="xtick_3">
     <g id="line2d_3">
      <g>
       <use style="stroke:#000000;stroke-width:0.8;" x="174.032201" xlink:href="#m7dc09a7309" y="307.584"/>
      </g>
     </g>
     <g id="text_3">
      <!-- 40 -->
      <g transform="translate(167.669701 322.182437)scale(0.1 -0.1)">
       <defs>
        <path d="M 37.796875 64.3125 
L 12.890625 25.390625 
L 37.796875 25.390625 
z
M 35.203125 72.90625 
L 47.609375 72.90625 
L 47.609375 25.390625 
L 58.015625 25.390625 
L 58.015625 17.1875 
L 47.609375 17.1875 
L 47.609375 0 
L 37.796875 0 
L 37.796875 17.1875 
L 4.890625 17.1875 
L 4.890625 26.703125 
z
" id="DejaVuSans-52"/>
       </defs>
       <use xlink:href="#DejaVuSans-52"/>
       <use x="63.623047" xlink:href="#DejaVuSans-48"/>
      </g>
     </g>
    </g>
    <g id="xtick_4">
     <g id="line2d_4">
      <g>
       <use style="stroke:#000000;stroke-width:0.8;" x="224.821856" xlink:href="#m7dc09a7309" y="307.584"/>
      </g>
     </g>
     <g id="text_4">
      <!-- 60 -->
      <g transform="translate(218.459356 322.182437)scale(0.1 -0.1)">
       <defs>
        <path d="M 33.015625 40.375 
Q 26.375 40.375 22.484375 35.828125 
Q 18.609375 31.296875 18.609375 23.390625 
Q 18.609375 15.53125 22.484375 10.953125 
Q 26.375 6.390625 33.015625 6.390625 
Q 39.65625 6.390625 43.53125 10.953125 
Q 47.40625 15.53125 47.40625 23.390625 
Q 47.40625 31.296875 43.53125 35.828125 
Q 39.65625 40.375 33.015625 40.375 
z
M 52.59375 71.296875 
L 52.59375 62.3125 
Q 48.875 64.0625 45.09375 64.984375 
Q 41.3125 65.921875 37.59375 65.921875 
Q 27.828125 65.921875 22.671875 59.328125 
Q 17.53125 52.734375 16.796875 39.40625 
Q 19.671875 43.65625 24.015625 45.921875 
Q 28.375 48.1875 33.59375 48.1875 
Q 44.578125 48.1875 50.953125 41.515625 
Q 57.328125 34.859375 57.328125 23.390625 
Q 57.328125 12.15625 50.6875 5.359375 
Q 44.046875 -1.421875 33.015625 -1.421875 
Q 20.359375 -1.421875 13.671875 8.265625 
Q 6.984375 17.96875 6.984375 36.375 
Q 6.984375 53.65625 15.1875 63.9375 
Q 23.390625 74.21875 37.203125 74.21875 
Q 40.921875 74.21875 44.703125 73.484375 
Q 48.484375 72.75 52.59375 71.296875 
z
" id="DejaVuSans-54"/>
       </defs>
       <use xlink:href="#DejaVuSans-54"/>
       <use x="63.623047" xlink:href="#DejaVuSans-48"/>
      </g>
     </g>
    </g>
    <g id="xtick_5">
     <g id="line2d_5">
      <g>
       <use style="stroke:#000000;stroke-width:0.8;" x="275.61151" xlink:href="#m7dc09a7309" y="307.584"/>
      </g>
     </g>
     <g id="text_5">
      <!-- 80 -->
      <g transform="translate(269.24901 322.182437)scale(0.1 -0.1)">
       <defs>
        <path d="M 31.78125 34.625 
Q 24.75 34.625 20.71875 30.859375 
Q 16.703125 27.09375 16.703125 20.515625 
Q 16.703125 13.921875 20.71875 10.15625 
Q 24.75 6.390625 31.78125 6.390625 
Q 38.8125 6.390625 42.859375 10.171875 
Q 46.921875 13.96875 46.921875 20.515625 
Q 46.921875 27.09375 42.890625 30.859375 
Q 38.875 34.625 31.78125 34.625 
z
M 21.921875 38.8125 
Q 15.578125 40.375 12.03125 44.71875 
Q 8.5 49.078125 8.5 55.328125 
Q 8.5 64.0625 14.71875 69.140625 
Q 20.953125 74.21875 31.78125 74.21875 
Q 42.671875 74.21875 48.875 69.140625 
Q 55.078125 64.0625 55.078125 55.328125 
Q 55.078125 49.078125 51.53125 44.71875 
Q 48 40.375 41.703125 38.8125 
Q 48.828125 37.15625 52.796875 32.3125 
Q 56.78125 27.484375 56.78125 20.515625 
Q 56.78125 9.90625 50.3125 4.234375 
Q 43.84375 -1.421875 31.78125 -1.421875 
Q 19.734375 -1.421875 13.25 4.234375 
Q 6.78125 9.90625 6.78125 20.515625 
Q 6.78125 27.484375 10.78125 32.3125 
Q 14.796875 37.15625 21.921875 38.8125 
z
M 18.3125 54.390625 
Q 18.3125 48.734375 21.84375 45.5625 
Q 25.390625 42.390625 31.78125 42.390625 
Q 38.140625 42.390625 41.71875 45.5625 
Q 45.3125 48.734375 45.3125 54.390625 
Q 45.3125 60.0625 41.71875 63.234375 
Q 38.140625 66.40625 31.78125 66.40625 
Q 25.390625 66.40625 21.84375 63.234375 
Q 18.3125 60.0625 18.3125 54.390625 
z
" id="DejaVuSans-56"/>
       </defs>
       <use xlink:href="#DejaVuSans-56"/>
       <use x="63.623047" xlink:href="#DejaVuSans-48"/>
      </g>
     </g>
    </g>
    <g id="xtick_6">
     <g id="line2d_6">
      <g>
       <use style="stroke:#000000;stroke-width:0.8;" x="326.401165" xlink:href="#m7dc09a7309" y="307.584"/>
      </g>
     </g>
     <g id="text_6">
      <!-- 100 -->
      <g transform="translate(316.857415 322.182437)scale(0.1 -0.1)">
       <defs>
        <path d="M 12.40625 8.296875 
L 28.515625 8.296875 
L 28.515625 63.921875 
L 10.984375 60.40625 
L 10.984375 69.390625 
L 28.421875 72.90625 
L 38.28125 72.90625 
L 38.28125 8.296875 
L 54.390625 8.296875 
L 54.390625 0 
L 12.40625 0 
z
" id="DejaVuSans-49"/>
       </defs>
       <use xlink:href="#DejaVuSans-49"/>
       <use x="63.623047" xlink:href="#DejaVuSans-48"/>
       <use x="127.246094" xlink:href="#DejaVuSans-48"/>
      </g>
     </g>
    </g>
    <g id="xtick_7">
     <g id="line2d_7">
      <g>
       <use style="stroke:#000000;stroke-width:0.8;" x="377.19082" xlink:href="#m7dc09a7309" y="307.584"/>
      </g>
     </g>
     <g id="text_7">
      <!-- 120 -->
      <g transform="translate(367.64707 322.182437)scale(0.1 -0.1)">
       <use xlink:href="#DejaVuSans-49"/>
       <use x="63.623047" xlink:href="#DejaVuSans-50"/>
       <use x="127.246094" xlink:href="#DejaVuSans-48"/>
      </g>
     </g>
    </g>
   </g>
   <g id="matplotlib.axis_2">
    <g id="ytick_1">
     <g id="line2d_8">
      <defs>
       <path d="M 0 0 
L -3.5 0 
" id="mff6c1be5a2" style="stroke:#000000;stroke-width:0.8;"/>
      </defs>
      <g>
       <use style="stroke:#000000;stroke-width:0.8;" x="57.6" xlink:href="#mff6c1be5a2" y="263.341479"/>
      </g>
     </g>
     <g id="text_8">
      <!-- 20 -->
      <g transform="translate(37.875 267.140698)scale(0.1 -0.1)">
       <use xlink:href="#DejaVuSans-50"/>
       <use x="63.623047" xlink:href="#DejaVuSans-48"/>
      </g>
     </g>
    </g>
    <g id="ytick_2">
     <g id="line2d_9">
      <g>
       <use style="stroke:#000000;stroke-width:0.8;" x="57.6" xlink:href="#mff6c1be5a2" y="212.551824"/>
      </g>
     </g>
     <g id="text_9">
      <!-- 40 -->
      <g transform="translate(37.875 216.351043)scale(0.1 -0.1)">
       <use xlink:href="#DejaVuSans-52"/>
       <use x="63.623047" xlink:href="#DejaVuSans-48"/>
      </g>
     </g>
    </g>
    <g id="ytick_3">
     <g id="line2d_10">
      <g>
       <use style="stroke:#000000;stroke-width:0.8;" x="57.6" xlink:href="#mff6c1be5a2" y="161.762169"/>
      </g>
     </g>
     <g id="text_10">
      <!-- 60 -->
      <g transform="translate(37.875 165.561388)scale(0.1 -0.1)">
       <use xlink:href="#DejaVuSans-54"/>
       <use x="63.623047" xlink:href="#DejaVuSans-48"/>
      </g>
     </g>
    </g>
    <g id="ytick_4">
     <g id="line2d_11">
      <g>
       <use style="stroke:#000000;stroke-width:0.8;" x="57.6" xlink:href="#mff6c1be5a2" y="110.972514"/>
      </g>
     </g>
     <g id="text_11">
      <!-- 80 -->
      <g transform="translate(37.875 114.771733)scale(0.1 -0.1)">
       <use xlink:href="#DejaVuSans-56"/>
       <use x="63.623047" xlink:href="#DejaVuSans-48"/>
      </g>
     </g>
    </g>
    <g id="ytick_5">
     <g id="line2d_12">
      <g>
       <use style="stroke:#000000;stroke-width:0.8;" x="57.6" xlink:href="#mff6c1be5a2" y="60.18286"/>
      </g>
     </g>
     <g id="text_12">
      <!-- 100 -->
      <g transform="translate(31.5125 63.982078)scale(0.1 -0.1)">
       <use xlink:href="#DejaVuSans-49"/>
       <use x="63.623047" xlink:href="#DejaVuSans-48"/>
       <use x="127.246094" xlink:href="#DejaVuSans-48"/>
      </g>
     </g>
    </g>
   </g>
   <g id="line2d_13">
    <path clip-path="url(#p833e153aaf)" d="M 97.847718 129.823095 
L 96.999531 124.802537 
L 96.577977 119.710875 
L 96.580517 114.591277 
L 97.009689 109.481838 
L 97.868034 104.428267 
L 98.457194 101.931956 
L 99.153013 99.468658 
L 99.958029 97.035833 
L 100.869703 94.64364 
L 101.888035 92.297158 
L 103.013026 89.998926 
L 104.247215 87.756563 
L 105.590601 85.575148 
L 107.040646 83.457219 
L 108.597349 81.410396 
L 110.26325 79.439757 
L 112.03073 77.552922 
L 113.89217 75.760047 
L 115.845033 74.063672 
L 117.881698 72.476496 
L 119.997087 71.006135 
L 122.183582 69.660209 
L 124.436103 68.446336 
L 126.747032 67.372135 
L 129.11383 66.445224 
L 131.528878 65.673221 
L 133.982018 65.045969 
L 136.473251 64.553309 
L 138.994957 64.185084 
L 144.096778 63.781307 
L 149.246849 63.750833 
L 154.391841 64.002242 
L 159.491123 64.472046 
L 164.544693 65.132311 
L 169.550014 65.97542 
L 174.514702 66.993752 
L 179.441299 68.179691 
L 186.767707 70.239211 
L 194.035706 72.539983 
L 208.472666 77.428487 
L 220.446327 81.611015 
L 227.602589 84.280011 
L 234.705522 87.162324 
L 239.355315 89.270095 
L 243.888292 91.581024 
L 248.258742 94.138283 
L 252.431112 96.985044 
L 256.41556 100.098449 
L 262.190344 105.073296 
L 269.872279 111.792767 
L 273.849109 114.995055 
L 277.945295 118.034816 
L 282.160836 120.889195 
L 286.495734 123.535336 
L 290.947447 125.958002 
L 295.513437 128.144497 
L 300.165769 130.145609 
L 307.258544 132.944119 
L 319.156021 137.586294 
L 323.838827 139.633117 
L 328.402278 141.890717 
L 332.795583 144.437818 
L 334.910972 145.842152 
L 336.965414 147.345526 
L 338.951289 148.953018 
L 340.86098 150.66463 
L 342.689408 152.470202 
L 344.428953 154.367196 
L 346.074538 156.347992 
L 347.618544 158.407513 
L 349.055891 160.540678 
L 350.378961 162.73987 
L 351.580137 165.00001 
L 352.654338 167.313479 
L 353.596486 169.677737 
L 354.416739 172.085167 
L 355.117636 174.530689 
L 356.204535 179.513154 
L 356.925748 184.581961 
L 357.349842 189.691401 
L 357.542842 194.80084 
L 357.527605 202.426906 
L 357.187315 212.564522 
L 356.826708 222.722453 
L 356.778458 230.353598 
L 356.943524 235.435103 
L 357.329526 240.501371 
L 357.979633 245.542245 
L 358.919242 250.547565 
L 360.148352 255.494477 
L 361.664423 260.362666 
L 363.464916 265.134354 
L 365.547292 269.789226 
L 367.909011 274.304426 
L 370.552612 278.664718 
L 373.470478 282.844707 
L 376.662608 286.826615 
L 378.361522 288.736306 
L 378.361522 288.736306 
" style="fill:none;stroke:#fea952;stroke-linecap:square;"/>
   </g>
   <g id="line2d_14">
    <path clip-path="url(#p833e153aaf)" d="M 87.870258 131.729358 
L 87.320411 128.80187 
L 86.896093 125.853295 
L 86.596769 122.888524 
L 86.422254 119.922662 
L 86.369131 116.932187 
L 86.442998 113.947625 
L 86.640211 110.974908 
L 86.961429 107.993207 
L 87.409303 105.032197 
L 87.981715 102.094975 
L 88.681778 99.170653 
L 89.50933 96.277585 
L 90.466046 93.4184 
L 91.551445 90.599678 
L 92.76452 87.831172 
L 94.113976 85.100921 
L 95.597858 82.430009 
L 97.208913 79.836606 
L 98.955412 77.308027 
L 100.839891 74.852545 
L 102.849861 72.495318 
L 104.983998 70.236697 
L 107.230703 68.091382 
L 109.601061 66.051408 
L 112.084092 64.135553 
L 114.67222 62.355739 
L 117.364703 60.718064 
L 120.15432 59.234936 
L 123.04281 57.913684 
L 126.020893 56.769621 
L 129.012517 55.831906 
L 132.011377 55.081024 
L 135.005533 54.501973 
L 137.995204 54.076471 
L 140.933409 53.793692 
L 146.769347 53.568 
L 152.433062 53.707805 
L 157.978842 54.107417 
L 163.441097 54.718329 
L 168.829796 55.530009 
L 174.163159 56.530253 
L 179.43223 57.71005 
L 184.643696 59.054956 
L 192.270347 61.301927 
L 202.128232 64.535364 
L 221.481524 71.192053 
L 231.310608 74.823048 
L 238.806667 77.869091 
L 243.853449 80.162387 
L 248.877514 82.732791 
L 253.824816 85.641085 
L 258.578024 88.898076 
L 262.939509 92.312458 
L 268.940791 97.482839 
L 276.31841 103.942229 
L 279.98909 106.902824 
L 283.730978 109.685599 
L 287.559115 112.28442 
L 291.468529 114.677861 
L 295.441234 116.848148 
L 299.610575 118.849497 
L 303.978615 120.730421 
L 310.883983 123.455191 
L 323.133048 128.239272 
L 328.214711 130.466045 
L 333.334543 133.010609 
L 335.880408 134.432544 
L 338.413767 135.974984 
L 340.909654 137.644629 
L 343.356475 139.450091 
L 345.731011 141.388699 
L 347.998406 143.436856 
L 350.17612 145.604876 
L 352.242336 147.876078 
L 354.202085 150.254837 
L 356.042579 152.731317 
L 357.760031 155.304123 
L 359.348807 157.97275 
L 360.793333 160.722093 
L 362.090625 163.553154 
L 363.211634 166.40169 
L 364.181534 169.286534 
L 364.997921 172.171973 
L 365.674259 175.038473 
L 366.684175 180.771329 
L 367.302315 186.419715 
L 367.625728 191.965762 
L 367.731201 197.375845 
L 367.61904 205.29701 
L 366.918364 227.740543 
L 366.98585 232.469363 
L 367.224643 237.076392 
L 367.674256 241.584807 
L 368.369854 246.035752 
L 369.32054 250.439033 
L 370.521292 254.773342 
L 371.975208 259.030061 
L 373.67808 263.188195 
L 375.616774 267.215065 
L 377.797907 271.102468 
L 380.211552 274.829456 
L 382.850682 278.376008 
L 385.950869 281.984613 
L 385.950869 281.984613 
" style="fill:none;stroke:#ffffff;stroke-linecap:square;"/>
   </g>
   <g id="line2d_15">
    <path clip-path="url(#p833e153aaf)" d="M 107.825179 127.916832 
L 107.10297 123.75178 
L 106.7337 119.499087 
L 106.718035 115.234929 
L 107.05795 110.970469 
L 107.754354 106.761559 
L 108.796695 102.65973 
L 110.187961 98.687603 
L 111.912077 94.896932 
L 113.97229 91.313689 
L 116.354807 87.968247 
L 119.077461 84.869146 
L 122.089004 82.075937 
L 125.321953 79.656531 
L 127.00246 78.602355 
L 128.717886 77.657737 
L 130.451254 76.830587 
L 132.206767 76.120827 
L 134.045239 75.514537 
L 135.95266 75.010914 
L 139.99471 74.293697 
L 144.317333 73.936843 
L 148.866444 73.901638 
L 153.557423 74.125843 
L 158.277264 74.557189 
L 162.948955 75.16412 
L 167.595096 75.943462 
L 172.211996 76.88724 
L 176.824613 77.994808 
L 183.791113 79.951237 
L 190.838714 82.181705 
L 205.187305 87.040457 
L 216.967596 91.154704 
L 223.89457 93.736975 
L 230.604378 96.455557 
L 234.857181 98.377803 
L 238.89907 100.429257 
L 242.692668 102.635482 
L 246.2842 105.072011 
L 249.891612 107.884441 
L 255.439898 112.663753 
L 263.426149 119.643306 
L 267.709129 123.087286 
L 272.159612 126.384033 
L 276.762558 129.493969 
L 281.522938 132.392811 
L 286.45366 135.067856 
L 291.416299 137.439497 
L 296.352923 139.560797 
L 303.633106 142.433047 
L 315.178994 146.933316 
L 319.462943 148.800188 
L 323.470012 150.770825 
L 327.177399 152.900653 
L 330.574352 155.240961 
L 333.723554 157.892403 
L 336.615571 160.858314 
L 339.194508 164.083708 
L 341.409116 167.50699 
L 343.218051 171.073804 
L 344.651944 174.883799 
L 345.744412 178.979974 
L 346.527371 183.308549 
L 347.036762 187.848568 
L 347.317746 192.531557 
L 347.415431 197.314958 
L 347.314275 204.62561 
L 346.602999 227.882609 
L 346.687883 233.321878 
L 346.987459 238.862622 
L 347.563798 244.466427 
L 348.457916 250.066755 
L 349.675948 255.618246 
L 351.217837 261.106656 
L 353.080486 266.494893 
L 355.263022 271.768398 
L 357.768423 276.919219 
L 360.595151 281.909847 
L 363.742972 286.725679 
L 367.213838 291.346103 
L 370.772174 295.488 
L 370.772174 295.488 
" style="fill:none;stroke:#ffffff;stroke-linecap:square;"/>
   </g>
   <g id="patch_3">
    <path d="M 57.6 307.584 
L 57.6 41.472 
" style="fill:none;stroke:#000000;stroke-linecap:square;stroke-linejoin:miter;stroke-width:0.8;"/>
   </g>
   <g id="patch_4">
    <path d="M 414.72 307.584 
L 414.72 41.472 
" style="fill:none;stroke:#000000;stroke-linecap:square;stroke-linejoin:miter;stroke-width:0.8;"/>
   </g>
   <g id="patch_5">
    <path d="M 57.6 307.584 
L 414.72 307.584 
" style="fill:none;stroke:#000000;stroke-linecap:square;stroke-linejoin:miter;stroke-width:0.8;"/>
   </g>
   <g id="patch_6">
    <path d="M 57.6 41.472 
L 414.72 41.472 
" style="fill:none;stroke:#000000;stroke-linecap:square;stroke-linejoin:miter;stroke-width:0.8;"/>
   </g>
  </g>
 </g>
 <defs>
  <clipPath id="p833e153aaf">
   <rect height="266.112" width="357.12" x="57.6" y="41.472"/>
  </clipPath>
 </defs>
</svg>
