<?xml version="1.0" encoding="utf-8" standalone="no"?>
<!DOCTYPE svg PUBLIC "-//W3C//DTD SVG 1.1//EN"
  "http://www.w3.org/Graphics/SVG/1.1/DTD/svg11.dtd">
<!-- Created with matplotlib (https://matplotlib.org/) -->
<svg height="345.6pt" version="1.1" viewBox="0 0 460.8 345.6" width="460.8pt" xmlns="http://www.w3.org/2000/svg" xmlns:xlink="http://www.w3.org/1999/xlink">
 <metadata>
  <rdf:RDF xmlns:cc="http://creativecommons.org/ns#" xmlns:dc="http://purl.org/dc/elements/1.1/" xmlns:rdf="http://www.w3.org/1999/02/22-rdf-syntax-ns#">
   <cc:Work>
    <dc:type rdf:resource="http://purl.org/dc/dcmitype/StillImage"/>
    <dc:date>2021-01-25T10:31:35.967951</dc:date>
    <dc:format>image/svg+xml</dc:format>
    <dc:creator>
     <cc:Agent>
      <dc:title>Matplotlib v3.3.3, https://matplotlib.org/</dc:title>
     </cc:Agent>
    </dc:creator>
   </cc:Work>
  </rdf:RDF>
 </metadata>
 <defs>
  <style type="text/css">*{stroke-linecap:butt;stroke-linejoin:round;}</style>
 </defs>
 <g id="figure_1">
  <g id="patch_1">
   <path d="M 0 345.6 
L 460.8 345.6 
L 460.8 0 
L 0 0 
z
" style="fill:#ffffff;"/>
  </g>
  <g id="axes_1">
   <g id="patch_2">
    <path d="M 57.6 307.584 
L 414.72 307.584 
L 414.72 41.472 
L 57.6 41.472 
z
" style="fill:#7d9051;"/>
   </g>
   <g id="matplotlib.axis_1">
    <g id="xtick_1">
     <g id="line2d_1">
      <defs>
       <path d="M 0 0 
L 0 3.5 
" id="m224e037078" style="stroke:#000000;stroke-width:0.8;"/>
      </defs>
      <g>
       <use style="stroke:#000000;stroke-width:0.8;" x="79.316275" xlink:href="#m224e037078" y="307.584"/>
      </g>
     </g>
     <g id="text_1">
      <!-- −20 -->
      <g transform="translate(68.763932 322.182437)scale(0.1 -0.1)">
       <defs>
        <path d="M 10.59375 35.5 
L 73.1875 35.5 
L 73.1875 27.203125 
L 10.59375 27.203125 
z
" id="DejaVuSans-8722"/>
        <path d="M 19.1875 8.296875 
L 53.609375 8.296875 
L 53.609375 0 
L 7.328125 0 
L 7.328125 8.296875 
Q 12.9375 14.109375 22.625 23.890625 
Q 32.328125 33.6875 34.8125 36.53125 
Q 39.546875 41.84375 41.421875 45.53125 
Q 43.3125 49.21875 43.3125 52.78125 
Q 43.3125 58.59375 39.234375 62.25 
Q 35.15625 65.921875 28.609375 65.921875 
Q 23.96875 65.921875 18.8125 64.3125 
Q 13.671875 62.703125 7.8125 59.421875 
L 7.8125 69.390625 
Q 13.765625 71.78125 18.9375 73 
Q 24.125 74.21875 28.421875 74.21875 
Q 39.75 74.21875 46.484375 68.546875 
Q 53.21875 62.890625 53.21875 53.421875 
Q 53.21875 48.921875 51.53125 44.890625 
Q 49.859375 40.875 45.40625 35.40625 
Q 44.1875 33.984375 37.640625 27.21875 
Q 31.109375 20.453125 19.1875 8.296875 
z
" id="DejaVuSans-50"/>
        <path d="M 31.78125 66.40625 
Q 24.171875 66.40625 20.328125 58.90625 
Q 16.5 51.421875 16.5 36.375 
Q 16.5 21.390625 20.328125 13.890625 
Q 24.171875 6.390625 31.78125 6.390625 
Q 39.453125 6.390625 43.28125 13.890625 
Q 47.125 21.390625 47.125 36.375 
Q 47.125 51.421875 43.28125 58.90625 
Q 39.453125 66.40625 31.78125 66.40625 
z
M 31.78125 74.21875 
Q 44.046875 74.21875 50.515625 64.515625 
Q 56.984375 54.828125 56.984375 36.375 
Q 56.984375 17.96875 50.515625 8.265625 
Q 44.046875 -1.421875 31.78125 -1.421875 
Q 19.53125 -1.421875 13.0625 8.265625 
Q 6.59375 17.96875 6.59375 36.375 
Q 6.59375 54.828125 13.0625 64.515625 
Q 19.53125 74.21875 31.78125 74.21875 
z
" id="DejaVuSans-48"/>
       </defs>
       <use xlink:href="#DejaVuSans-8722"/>
       <use x="83.789062" xlink:href="#DejaVuSans-50"/>
       <use x="147.412109" xlink:href="#DejaVuSans-48"/>
      </g>
     </g>
    </g>
    <g id="xtick_2">
     <g id="line2d_2">
      <g>
       <use style="stroke:#000000;stroke-width:0.8;" x="127.836829" xlink:href="#m224e037078" y="307.584"/>
      </g>
     </g>
     <g id="text_2">
      <!-- 0 -->
      <g transform="translate(124.655579 322.182437)scale(0.1 -0.1)">
       <use xlink:href="#DejaVuSans-48"/>
      </g>
     </g>
    </g>
    <g id="xtick_3">
     <g id="line2d_3">
      <g>
       <use style="stroke:#000000;stroke-width:0.8;" x="176.357382" xlink:href="#m224e037078" y="307.584"/>
      </g>
     </g>
     <g id="text_3">
      <!-- 20 -->
      <g transform="translate(169.994882 322.182437)scale(0.1 -0.1)">
       <use xlink:href="#DejaVuSans-50"/>
       <use x="63.623047" xlink:href="#DejaVuSans-48"/>
      </g>
     </g>
    </g>
    <g id="xtick_4">
     <g id="line2d_4">
      <g>
       <use style="stroke:#000000;stroke-width:0.8;" x="224.877935" xlink:href="#m224e037078" y="307.584"/>
      </g>
     </g>
     <g id="text_4">
      <!-- 40 -->
      <g transform="translate(218.515435 322.182437)scale(0.1 -0.1)">
       <defs>
        <path d="M 37.796875 64.3125 
L 12.890625 25.390625 
L 37.796875 25.390625 
z
M 35.203125 72.90625 
L 47.609375 72.90625 
L 47.609375 25.390625 
L 58.015625 25.390625 
L 58.015625 17.1875 
L 47.609375 17.1875 
L 47.609375 0 
L 37.796875 0 
L 37.796875 17.1875 
L 4.890625 17.1875 
L 4.890625 26.703125 
z
" id="DejaVuSans-52"/>
       </defs>
       <use xlink:href="#DejaVuSans-52"/>
       <use x="63.623047" xlink:href="#DejaVuSans-48"/>
      </g>
     </g>
    </g>
    <g id="xtick_5">
     <g id="line2d_5">
      <g>
       <use style="stroke:#000000;stroke-width:0.8;" x="273.398489" xlink:href="#m224e037078" y="307.584"/>
      </g>
     </g>
     <g id="text_5">
      <!-- 60 -->
      <g transform="translate(267.035989 322.182437)scale(0.1 -0.1)">
       <defs>
        <path d="M 33.015625 40.375 
Q 26.375 40.375 22.484375 35.828125 
Q 18.609375 31.296875 18.609375 23.390625 
Q 18.609375 15.53125 22.484375 10.953125 
Q 26.375 6.390625 33.015625 6.390625 
Q 39.65625 6.390625 43.53125 10.953125 
Q 47.40625 15.53125 47.40625 23.390625 
Q 47.40625 31.296875 43.53125 35.828125 
Q 39.65625 40.375 33.015625 40.375 
z
M 52.59375 71.296875 
L 52.59375 62.3125 
Q 48.875 64.0625 45.09375 64.984375 
Q 41.3125 65.921875 37.59375 65.921875 
Q 27.828125 65.921875 22.671875 59.328125 
Q 17.53125 52.734375 16.796875 39.40625 
Q 19.671875 43.65625 24.015625 45.921875 
Q 28.375 48.1875 33.59375 48.1875 
Q 44.578125 48.1875 50.953125 41.515625 
Q 57.328125 34.859375 57.328125 23.390625 
Q 57.328125 12.15625 50.6875 5.359375 
Q 44.046875 -1.421875 33.015625 -1.421875 
Q 20.359375 -1.421875 13.671875 8.265625 
Q 6.984375 17.96875 6.984375 36.375 
Q 6.984375 53.65625 15.1875 63.9375 
Q 23.390625 74.21875 37.203125 74.21875 
Q 40.921875 74.21875 44.703125 73.484375 
Q 48.484375 72.75 52.59375 71.296875 
z
" id="DejaVuSans-54"/>
       </defs>
       <use xlink:href="#DejaVuSans-54"/>
       <use x="63.623047" xlink:href="#DejaVuSans-48"/>
      </g>
     </g>
    </g>
    <g id="xtick_6">
     <g id="line2d_6">
      <g>
       <use style="stroke:#000000;stroke-width:0.8;" x="321.919042" xlink:href="#m224e037078" y="307.584"/>
      </g>
     </g>
     <g id="text_6">
      <!-- 80 -->
      <g transform="translate(315.556542 322.182437)scale(0.1 -0.1)">
       <defs>
        <path d="M 31.78125 34.625 
Q 24.75 34.625 20.71875 30.859375 
Q 16.703125 27.09375 16.703125 20.515625 
Q 16.703125 13.921875 20.71875 10.15625 
Q 24.75 6.390625 31.78125 6.390625 
Q 38.8125 6.390625 42.859375 10.171875 
Q 46.921875 13.96875 46.921875 20.515625 
Q 46.921875 27.09375 42.890625 30.859375 
Q 38.875 34.625 31.78125 34.625 
z
M 21.921875 38.8125 
Q 15.578125 40.375 12.03125 44.71875 
Q 8.5 49.078125 8.5 55.328125 
Q 8.5 64.0625 14.71875 69.140625 
Q 20.953125 74.21875 31.78125 74.21875 
Q 42.671875 74.21875 48.875 69.140625 
Q 55.078125 64.0625 55.078125 55.328125 
Q 55.078125 49.078125 51.53125 44.71875 
Q 48 40.375 41.703125 38.8125 
Q 48.828125 37.15625 52.796875 32.3125 
Q 56.78125 27.484375 56.78125 20.515625 
Q 56.78125 9.90625 50.3125 4.234375 
Q 43.84375 -1.421875 31.78125 -1.421875 
Q 19.734375 -1.421875 13.25 4.234375 
Q 6.78125 9.90625 6.78125 20.515625 
Q 6.78125 27.484375 10.78125 32.3125 
Q 14.796875 37.15625 21.921875 38.8125 
z
M 18.3125 54.390625 
Q 18.3125 48.734375 21.84375 45.5625 
Q 25.390625 42.390625 31.78125 42.390625 
Q 38.140625 42.390625 41.71875 45.5625 
Q 45.3125 48.734375 45.3125 54.390625 
Q 45.3125 60.0625 41.71875 63.234375 
Q 38.140625 66.40625 31.78125 66.40625 
Q 25.390625 66.40625 21.84375 63.234375 
Q 18.3125 60.0625 18.3125 54.390625 
z
" id="DejaVuSans-56"/>
       </defs>
       <use xlink:href="#DejaVuSans-56"/>
       <use x="63.623047" xlink:href="#DejaVuSans-48"/>
      </g>
     </g>
    </g>
    <g id="xtick_7">
     <g id="line2d_7">
      <g>
       <use style="stroke:#000000;stroke-width:0.8;" x="370.439596" xlink:href="#m224e037078" y="307.584"/>
      </g>
     </g>
     <g id="text_7">
      <!-- 100 -->
      <g transform="translate(360.895846 322.182437)scale(0.1 -0.1)">
       <defs>
        <path d="M 12.40625 8.296875 
L 28.515625 8.296875 
L 28.515625 63.921875 
L 10.984375 60.40625 
L 10.984375 69.390625 
L 28.421875 72.90625 
L 38.28125 72.90625 
L 38.28125 8.296875 
L 54.390625 8.296875 
L 54.390625 0 
L 12.40625 0 
z
" id="DejaVuSans-49"/>
       </defs>
       <use xlink:href="#DejaVuSans-49"/>
       <use x="63.623047" xlink:href="#DejaVuSans-48"/>
       <use x="127.246094" xlink:href="#DejaVuSans-48"/>
      </g>
     </g>
    </g>
   </g>
   <g id="matplotlib.axis_2">
    <g id="ytick_1">
     <g id="line2d_8">
      <defs>
       <path d="M 0 0 
L -3.5 0 
" id="m8e81363649" style="stroke:#000000;stroke-width:0.8;"/>
      </defs>
      <g>
       <use style="stroke:#000000;stroke-width:0.8;" x="57.6" xlink:href="#m8e81363649" y="269.251564"/>
      </g>
     </g>
     <g id="text_8">
      <!-- 20 -->
      <g transform="translate(37.875 273.050783)scale(0.1 -0.1)">
       <use xlink:href="#DejaVuSans-50"/>
       <use x="63.623047" xlink:href="#DejaVuSans-48"/>
      </g>
     </g>
    </g>
    <g id="ytick_2">
     <g id="line2d_9">
      <g>
       <use style="stroke:#000000;stroke-width:0.8;" x="57.6" xlink:href="#m8e81363649" y="220.731011"/>
      </g>
     </g>
     <g id="text_9">
      <!-- 40 -->
      <g transform="translate(37.875 224.530229)scale(0.1 -0.1)">
       <use xlink:href="#DejaVuSans-52"/>
       <use x="63.623047" xlink:href="#DejaVuSans-48"/>
      </g>
     </g>
    </g>
    <g id="ytick_3">
     <g id="line2d_10">
      <g>
       <use style="stroke:#000000;stroke-width:0.8;" x="57.6" xlink:href="#m8e81363649" y="172.210457"/>
      </g>
     </g>
     <g id="text_10">
      <!-- 60 -->
      <g transform="translate(37.875 176.009676)scale(0.1 -0.1)">
       <use xlink:href="#DejaVuSans-54"/>
       <use x="63.623047" xlink:href="#DejaVuSans-48"/>
      </g>
     </g>
    </g>
    <g id="ytick_4">
     <g id="line2d_11">
      <g>
       <use style="stroke:#000000;stroke-width:0.8;" x="57.6" xlink:href="#m8e81363649" y="123.689904"/>
      </g>
     </g>
     <g id="text_11">
      <!-- 80 -->
      <g transform="translate(37.875 127.489123)scale(0.1 -0.1)">
       <use xlink:href="#DejaVuSans-56"/>
       <use x="63.623047" xlink:href="#DejaVuSans-48"/>
      </g>
     </g>
    </g>
    <g id="ytick_5">
     <g id="line2d_12">
      <g>
       <use style="stroke:#000000;stroke-width:0.8;" x="57.6" xlink:href="#m8e81363649" y="75.16935"/>
      </g>
     </g>
     <g id="text_12">
      <!-- 100 -->
      <g transform="translate(31.5125 78.968569)scale(0.1 -0.1)">
       <use xlink:href="#DejaVuSans-49"/>
       <use x="63.623047" xlink:href="#DejaVuSans-48"/>
       <use x="127.246094" xlink:href="#DejaVuSans-48"/>
      </g>
     </g>
    </g>
   </g>
   <g id="line2d_13">
    <path clip-path="url(#pabd08902ea)" d="M 181.328313 293.511841 
L 180.823699 291.085813 
L 180.437961 288.645229 
L 180.171098 286.194941 
L 180.015832 283.739801 
L 179.972163 281.284661 
L 180.217192 276.384085 
L 180.889202 271.524752 
L 181.966358 266.735773 
L 183.438957 262.048688 
L 185.28759 257.495034 
L 187.495275 253.10635 
L 190.047456 248.914174 
L 192.924725 244.945193 
L 196.105247 241.218814 
L 199.559911 237.739891 
L 203.257177 234.5157 
L 207.165507 231.546242 
L 211.258216 228.838795 
L 215.508617 226.395785 
L 219.894875 224.219638 
L 224.402434 222.310355 
L 229.009461 220.665508 
L 233.69412 219.287524 
L 240.812085 217.548062 
L 247.932476 215.847417 
L 252.62684 214.534936 
L 257.241145 212.95074 
L 261.753556 211.060864 
L 266.149518 208.896848 
L 270.419327 206.48295 
L 274.548426 203.853136 
L 278.527111 201.031666 
L 282.365087 198.0428 
L 286.081762 194.898668 
L 289.701395 191.618679 
L 295.002265 186.4755 
L 298.447225 182.906813 
L 301.724788 179.202269 
L 304.730636 175.323051 
L 306.101342 173.309448 
L 307.362876 171.242472 
L 308.507961 169.114846 
L 309.519615 166.924143 
L 310.395411 164.670363 
L 311.147479 162.363211 
L 311.780673 160.009964 
L 312.736528 155.189447 
L 313.335756 150.274315 
L 313.653566 145.322792 
L 313.757885 140.393104 
L 313.665696 135.494954 
L 313.367295 130.628343 
L 312.848125 125.788418 
L 312.098482 120.963049 
L 311.106237 116.157088 
L 309.844703 111.399648 
L 308.282341 106.736822 
L 306.392465 102.219559 
L 304.138685 97.891526 
L 301.499167 93.798817 
L 298.500597 89.948711 
L 295.196347 86.326652 
L 291.637365 82.925361 
L 287.874596 79.735134 
L 283.954135 76.746268 
L 279.890539 73.985449 
L 275.681381 71.481788 
L 271.329087 69.266825 
L 266.831232 67.372097 
L 262.192667 65.829144 
L 257.435227 64.645242 
L 252.592876 63.825245 
L 247.699578 63.366726 
L 242.786872 63.272111 
L 237.886296 63.543826 
L 233.019684 64.164889 
L 228.211297 65.118318 
L 223.478117 66.384704 
L 218.844405 67.947066 
L 214.322289 69.778717 
L 209.894789 71.821432 
L 203.361496 75.13296 
L 192.517152 80.756492 
L 185.935339 83.963701 
L 177.06093 88.015167 
L 168.074924 91.814326 
L 158.984598 95.358753 
L 152.097105 97.855135 
L 152.097105 97.855135 
" style="fill:none;stroke:#fea952;stroke-linecap:square;"/>
   </g>
   <g id="line2d_14">
    <path clip-path="url(#pabd08902ea)" d="M 171.827547 295.488 
L 171.23857 292.600759 
L 170.790896 289.6959 
L 170.486334 286.807416 
L 170.313256 283.912377 
L 170.272042 281.006418 
L 170.36302 278.14124 
L 170.578181 275.261932 
L 170.919284 272.409775 
L 171.378362 269.597656 
L 171.956847 266.787118 
L 172.651701 264.014207 
L 173.457881 261.283109 
L 174.375755 258.580528 
L 175.401165 255.92294 
L 176.532693 253.309159 
L 177.768126 250.743378 
L 179.102999 248.234034 
L 180.545851 245.76561 
L 182.075041 243.38151 
L 183.706978 241.044367 
L 185.427451 238.783971 
L 189.096197 234.507408 
L 193.057083 230.536906 
L 197.258383 226.887841 
L 201.681285 223.540427 
L 206.292356 220.501529 
L 211.065246 217.768722 
L 215.971514 215.343997 
L 221.006692 213.219771 
L 226.146815 211.393236 
L 231.274815 209.889826 
L 238.613122 208.096379 
L 247.563579 205.905297 
L 251.638329 204.659915 
L 255.61737 203.154016 
L 259.549645 201.371944 
L 263.406415 199.341153 
L 267.180534 197.080662 
L 270.846621 194.619473 
L 274.419887 191.96391 
L 277.905094 189.132784 
L 281.329175 186.135826 
L 286.410255 181.331777 
L 291.265043 176.381016 
L 294.165856 173.116851 
L 296.708747 169.862367 
L 298.817749 166.643498 
L 300.474425 163.409274 
L 301.776664 159.841785 
L 302.751539 155.924137 
L 303.425328 151.726206 
L 303.833924 147.296705 
L 304.027659 142.747831 
L 304.038661 138.229075 
L 303.865935 133.76434 
L 303.49768 129.34644 
L 302.929648 124.972989 
L 302.154054 120.636169 
L 301.166516 116.39036 
L 299.954289 112.291418 
L 298.502232 108.375222 
L 296.807746 104.701372 
L 294.831096 101.257806 
L 292.511693 97.965319 
L 289.831413 94.777077 
L 286.850752 91.718932 
L 283.599935 88.789329 
L 280.147194 86.005891 
L 276.599775 83.438973 
L 272.975072 81.116882 
L 269.275313 79.059733 
L 265.498117 77.289041 
L 261.642656 75.821896 
L 257.654726 74.651868 
L 253.587053 73.786318 
L 249.434375 73.226196 
L 245.244438 72.976221 
L 241.05349 73.039287 
L 236.848704 73.413198 
L 232.653307 74.08774 
L 228.487016 75.049474 
L 224.394064 76.274134 
L 220.335402 77.775854 
L 216.250989 79.548606 
L 210.000708 82.620401 
L 194.57441 90.570654 
L 185.506934 94.863845 
L 176.326802 98.897914 
L 167.045419 102.666923 
L 157.638203 106.187665 
L 155.335903 107.00281 
L 155.335903 107.00281 
" style="fill:none;stroke:#ffffff;stroke-linecap:square;"/>
   </g>
   <g id="line2d_15">
    <path clip-path="url(#pabd08902ea)" d="M 190.829079 291.535681 
L 190.085025 287.594559 
L 189.718408 283.567226 
L 189.722016 279.522655 
L 190.082791 275.48208 
L 190.796819 271.449147 
L 191.852819 267.472239 
L 193.233193 263.584391 
L 194.927402 259.811911 
L 196.909543 256.201541 
L 199.182718 252.756775 
L 201.742284 249.489212 
L 204.561314 246.409744 
L 207.632918 243.517578 
L 210.929034 240.820924 
L 214.413557 238.337623 
L 218.068587 236.071983 
L 221.866212 234.031972 
L 225.779536 232.22318 
L 229.824333 230.639675 
L 233.956956 229.290488 
L 238.344958 228.109733 
L 253.01272 224.532855 
L 258.253916 222.90582 
L 263.401591 220.932794 
L 268.382541 218.653697 
L 273.196395 216.099295 
L 277.826036 213.308796 
L 282.267732 210.311423 
L 286.506276 207.149372 
L 290.566015 203.842648 
L 294.47339 200.415485 
L 300.086239 195.102998 
L 303.779038 191.386137 
L 307.463905 187.408534 
L 311.048307 183.085066 
L 312.752525 180.783734 
L 314.384566 178.364936 
L 315.908004 175.841446 
L 317.318043 173.183289 
L 318.564805 170.439012 
L 319.621709 167.677884 
L 320.518295 164.884636 
L 321.258421 162.093724 
L 321.862702 159.306813 
L 322.727014 153.756964 
L 323.216049 148.302829 
L 323.434739 142.958362 
L 323.438293 137.651705 
L 323.222854 132.354105 
L 322.771112 127.063042 
L 322.072758 121.776051 
L 321.111316 116.476689 
L 319.852352 111.144541 
L 318.250388 105.81594 
L 316.257485 100.537491 
L 315.097004 97.929947 
L 313.81802 95.35634 
L 312.410894 92.818033 
L 310.898946 90.371886 
L 309.278641 87.997993 
L 307.570556 85.721558 
L 303.933461 81.442487 
L 300.038759 77.479707 
L 295.953268 73.82022 
L 291.715501 70.422139 
L 287.28129 67.23452 
L 282.633239 64.282427 
L 277.769119 61.608822 
L 272.696167 59.26497 
L 267.415207 57.292009 
L 261.995002 55.735181 
L 256.460457 54.59198 
L 250.870209 53.87116 
L 245.244438 53.568 
L 239.614826 53.684461 
L 234.047572 54.20818 
L 228.563118 55.115407 
L 223.180565 56.380767 
L 217.899346 57.984856 
L 212.802179 59.889278 
L 207.944255 62.007875 
L 201.060022 65.394165 
L 183.947147 74.157211 
L 175.346811 78.157619 
L 166.64406 81.91121 
L 157.84218 85.41803 
L 148.858308 88.70746 
L 148.858308 88.70746 
" style="fill:none;stroke:#ffffff;stroke-linecap:square;"/>
   </g>
   <g id="patch_3">
    <path d="M 57.6 307.584 
L 57.6 41.472 
" style="fill:none;stroke:#000000;stroke-linecap:square;stroke-linejoin:miter;stroke-width:0.8;"/>
   </g>
   <g id="patch_4">
    <path d="M 414.72 307.584 
L 414.72 41.472 
" style="fill:none;stroke:#000000;stroke-linecap:square;stroke-linejoin:miter;stroke-width:0.8;"/>
   </g>
   <g id="patch_5">
    <path d="M 57.6 307.584 
L 414.72 307.584 
" style="fill:none;stroke:#000000;stroke-linecap:square;stroke-linejoin:miter;stroke-width:0.8;"/>
   </g>
   <g id="patch_6">
    <path d="M 57.6 41.472 
L 414.72 41.472 
" style="fill:none;stroke:#000000;stroke-linecap:square;stroke-linejoin:miter;stroke-width:0.8;"/>
   </g>
  </g>
 </g>
 <defs>
  <clipPath id="pabd08902ea">
   <rect height="266.112" width="357.12" x="57.6" y="41.472"/>
  </clipPath>
 </defs>
</svg>
