<?xml version="1.0" encoding="utf-8" standalone="no"?>
<!DOCTYPE svg PUBLIC "-//W3C//DTD SVG 1.1//EN"
  "http://www.w3.org/Graphics/SVG/1.1/DTD/svg11.dtd">
<!-- Created with matplotlib (https://matplotlib.org/) -->
<svg height="345.6pt" version="1.1" viewBox="0 0 460.8 345.6" width="460.8pt" xmlns="http://www.w3.org/2000/svg" xmlns:xlink="http://www.w3.org/1999/xlink">
 <metadata>
  <rdf:RDF xmlns:cc="http://creativecommons.org/ns#" xmlns:dc="http://purl.org/dc/elements/1.1/" xmlns:rdf="http://www.w3.org/1999/02/22-rdf-syntax-ns#">
   <cc:Work>
    <dc:type rdf:resource="http://purl.org/dc/dcmitype/StillImage"/>
    <dc:date>2021-01-22T09:52:10.824988</dc:date>
    <dc:format>image/svg+xml</dc:format>
    <dc:creator>
     <cc:Agent>
      <dc:title>Matplotlib v3.3.3, https://matplotlib.org/</dc:title>
     </cc:Agent>
    </dc:creator>
   </cc:Work>
  </rdf:RDF>
 </metadata>
 <defs>
  <style type="text/css">*{stroke-linecap:butt;stroke-linejoin:round;}</style>
 </defs>
 <g id="figure_1">
  <g id="patch_1">
   <path d="M 0 345.6 
L 460.8 345.6 
L 460.8 0 
L 0 0 
z
" style="fill:#ffffff;"/>
  </g>
  <g id="axes_1">
   <g id="patch_2">
    <path d="M 57.6 307.584 
L 414.72 307.584 
L 414.72 41.472 
L 57.6 41.472 
z
" style="fill:#7d9051;"/>
   </g>
   <g id="matplotlib.axis_1">
    <g id="xtick_1">
     <g id="line2d_1">
      <defs>
       <path d="M 0 0 
L 0 3.5 
" id="meebf290698" style="stroke:#000000;stroke-width:0.8;"/>
      </defs>
      <g>
       <use style="stroke:#000000;stroke-width:0.8;" x="120.884618" xlink:href="#meebf290698" y="307.584"/>
      </g>
     </g>
     <g id="text_1">
      <!-- 20 -->
      <g transform="translate(114.522118 322.182437)scale(0.1 -0.1)">
       <defs>
        <path d="M 19.1875 8.296875 
L 53.609375 8.296875 
L 53.609375 0 
L 7.328125 0 
L 7.328125 8.296875 
Q 12.9375 14.109375 22.625 23.890625 
Q 32.328125 33.6875 34.8125 36.53125 
Q 39.546875 41.84375 41.421875 45.53125 
Q 43.3125 49.21875 43.3125 52.78125 
Q 43.3125 58.59375 39.234375 62.25 
Q 35.15625 65.921875 28.609375 65.921875 
Q 23.96875 65.921875 18.8125 64.3125 
Q 13.671875 62.703125 7.8125 59.421875 
L 7.8125 69.390625 
Q 13.765625 71.78125 18.9375 73 
Q 24.125 74.21875 28.421875 74.21875 
Q 39.75 74.21875 46.484375 68.546875 
Q 53.21875 62.890625 53.21875 53.421875 
Q 53.21875 48.921875 51.53125 44.890625 
Q 49.859375 40.875 45.40625 35.40625 
Q 44.1875 33.984375 37.640625 27.21875 
Q 31.109375 20.453125 19.1875 8.296875 
z
" id="DejaVuSans-50"/>
        <path d="M 31.78125 66.40625 
Q 24.171875 66.40625 20.328125 58.90625 
Q 16.5 51.421875 16.5 36.375 
Q 16.5 21.390625 20.328125 13.890625 
Q 24.171875 6.390625 31.78125 6.390625 
Q 39.453125 6.390625 43.28125 13.890625 
Q 47.125 21.390625 47.125 36.375 
Q 47.125 51.421875 43.28125 58.90625 
Q 39.453125 66.40625 31.78125 66.40625 
z
M 31.78125 74.21875 
Q 44.046875 74.21875 50.515625 64.515625 
Q 56.984375 54.828125 56.984375 36.375 
Q 56.984375 17.96875 50.515625 8.265625 
Q 44.046875 -1.421875 31.78125 -1.421875 
Q 19.53125 -1.421875 13.0625 8.265625 
Q 6.59375 17.96875 6.59375 36.375 
Q 6.59375 54.828125 13.0625 64.515625 
Q 19.53125 74.21875 31.78125 74.21875 
z
" id="DejaVuSans-48"/>
       </defs>
       <use xlink:href="#DejaVuSans-50"/>
       <use x="63.623047" xlink:href="#DejaVuSans-48"/>
      </g>
     </g>
    </g>
    <g id="xtick_2">
     <g id="line2d_2">
      <g>
       <use style="stroke:#000000;stroke-width:0.8;" x="187.660971" xlink:href="#meebf290698" y="307.584"/>
      </g>
     </g>
     <g id="text_2">
      <!-- 40 -->
      <g transform="translate(181.298471 322.182437)scale(0.1 -0.1)">
       <defs>
        <path d="M 37.796875 64.3125 
L 12.890625 25.390625 
L 37.796875 25.390625 
z
M 35.203125 72.90625 
L 47.609375 72.90625 
L 47.609375 25.390625 
L 58.015625 25.390625 
L 58.015625 17.1875 
L 47.609375 17.1875 
L 47.609375 0 
L 37.796875 0 
L 37.796875 17.1875 
L 4.890625 17.1875 
L 4.890625 26.703125 
z
" id="DejaVuSans-52"/>
       </defs>
       <use xlink:href="#DejaVuSans-52"/>
       <use x="63.623047" xlink:href="#DejaVuSans-48"/>
      </g>
     </g>
    </g>
    <g id="xtick_3">
     <g id="line2d_3">
      <g>
       <use style="stroke:#000000;stroke-width:0.8;" x="254.437324" xlink:href="#meebf290698" y="307.584"/>
      </g>
     </g>
     <g id="text_3">
      <!-- 60 -->
      <g transform="translate(248.074824 322.182437)scale(0.1 -0.1)">
       <defs>
        <path d="M 33.015625 40.375 
Q 26.375 40.375 22.484375 35.828125 
Q 18.609375 31.296875 18.609375 23.390625 
Q 18.609375 15.53125 22.484375 10.953125 
Q 26.375 6.390625 33.015625 6.390625 
Q 39.65625 6.390625 43.53125 10.953125 
Q 47.40625 15.53125 47.40625 23.390625 
Q 47.40625 31.296875 43.53125 35.828125 
Q 39.65625 40.375 33.015625 40.375 
z
M 52.59375 71.296875 
L 52.59375 62.3125 
Q 48.875 64.0625 45.09375 64.984375 
Q 41.3125 65.921875 37.59375 65.921875 
Q 27.828125 65.921875 22.671875 59.328125 
Q 17.53125 52.734375 16.796875 39.40625 
Q 19.671875 43.65625 24.015625 45.921875 
Q 28.375 48.1875 33.59375 48.1875 
Q 44.578125 48.1875 50.953125 41.515625 
Q 57.328125 34.859375 57.328125 23.390625 
Q 57.328125 12.15625 50.6875 5.359375 
Q 44.046875 -1.421875 33.015625 -1.421875 
Q 20.359375 -1.421875 13.671875 8.265625 
Q 6.984375 17.96875 6.984375 36.375 
Q 6.984375 53.65625 15.1875 63.9375 
Q 23.390625 74.21875 37.203125 74.21875 
Q 40.921875 74.21875 44.703125 73.484375 
Q 48.484375 72.75 52.59375 71.296875 
z
" id="DejaVuSans-54"/>
       </defs>
       <use xlink:href="#DejaVuSans-54"/>
       <use x="63.623047" xlink:href="#DejaVuSans-48"/>
      </g>
     </g>
    </g>
    <g id="xtick_4">
     <g id="line2d_4">
      <g>
       <use style="stroke:#000000;stroke-width:0.8;" x="321.213677" xlink:href="#meebf290698" y="307.584"/>
      </g>
     </g>
     <g id="text_4">
      <!-- 80 -->
      <g transform="translate(314.851177 322.182437)scale(0.1 -0.1)">
       <defs>
        <path d="M 31.78125 34.625 
Q 24.75 34.625 20.71875 30.859375 
Q 16.703125 27.09375 16.703125 20.515625 
Q 16.703125 13.921875 20.71875 10.15625 
Q 24.75 6.390625 31.78125 6.390625 
Q 38.8125 6.390625 42.859375 10.171875 
Q 46.921875 13.96875 46.921875 20.515625 
Q 46.921875 27.09375 42.890625 30.859375 
Q 38.875 34.625 31.78125 34.625 
z
M 21.921875 38.8125 
Q 15.578125 40.375 12.03125 44.71875 
Q 8.5 49.078125 8.5 55.328125 
Q 8.5 64.0625 14.71875 69.140625 
Q 20.953125 74.21875 31.78125 74.21875 
Q 42.671875 74.21875 48.875 69.140625 
Q 55.078125 64.0625 55.078125 55.328125 
Q 55.078125 49.078125 51.53125 44.71875 
Q 48 40.375 41.703125 38.8125 
Q 48.828125 37.15625 52.796875 32.3125 
Q 56.78125 27.484375 56.78125 20.515625 
Q 56.78125 9.90625 50.3125 4.234375 
Q 43.84375 -1.421875 31.78125 -1.421875 
Q 19.734375 -1.421875 13.25 4.234375 
Q 6.78125 9.90625 6.78125 20.515625 
Q 6.78125 27.484375 10.78125 32.3125 
Q 14.796875 37.15625 21.921875 38.8125 
z
M 18.3125 54.390625 
Q 18.3125 48.734375 21.84375 45.5625 
Q 25.390625 42.390625 31.78125 42.390625 
Q 38.140625 42.390625 41.71875 45.5625 
Q 45.3125 48.734375 45.3125 54.390625 
Q 45.3125 60.0625 41.71875 63.234375 
Q 38.140625 66.40625 31.78125 66.40625 
Q 25.390625 66.40625 21.84375 63.234375 
Q 18.3125 60.0625 18.3125 54.390625 
z
" id="DejaVuSans-56"/>
       </defs>
       <use xlink:href="#DejaVuSans-56"/>
       <use x="63.623047" xlink:href="#DejaVuSans-48"/>
      </g>
     </g>
    </g>
    <g id="xtick_5">
     <g id="line2d_5">
      <g>
       <use style="stroke:#000000;stroke-width:0.8;" x="387.99003" xlink:href="#meebf290698" y="307.584"/>
      </g>
     </g>
     <g id="text_5">
      <!-- 100 -->
      <g transform="translate(378.44628 322.182437)scale(0.1 -0.1)">
       <defs>
        <path d="M 12.40625 8.296875 
L 28.515625 8.296875 
L 28.515625 63.921875 
L 10.984375 60.40625 
L 10.984375 69.390625 
L 28.421875 72.90625 
L 38.28125 72.90625 
L 38.28125 8.296875 
L 54.390625 8.296875 
L 54.390625 0 
L 12.40625 0 
z
" id="DejaVuSans-49"/>
       </defs>
       <use xlink:href="#DejaVuSans-49"/>
       <use x="63.623047" xlink:href="#DejaVuSans-48"/>
       <use x="127.246094" xlink:href="#DejaVuSans-48"/>
      </g>
     </g>
    </g>
   </g>
   <g id="matplotlib.axis_2">
    <g id="ytick_1">
     <g id="line2d_6">
      <defs>
       <path d="M 0 0 
L -3.5 0 
" id="m7dc3d6611c" style="stroke:#000000;stroke-width:0.8;"/>
      </defs>
      <g>
       <use style="stroke:#000000;stroke-width:0.8;" x="57.6" xlink:href="#m7dc3d6611c" y="274.993621"/>
      </g>
     </g>
     <g id="text_6">
      <!-- 10 -->
      <g transform="translate(37.875 278.79284)scale(0.1 -0.1)">
       <use xlink:href="#DejaVuSans-49"/>
       <use x="63.623047" xlink:href="#DejaVuSans-48"/>
      </g>
     </g>
    </g>
    <g id="ytick_2">
     <g id="line2d_7">
      <g>
       <use style="stroke:#000000;stroke-width:0.8;" x="57.6" xlink:href="#m7dc3d6611c" y="241.605445"/>
      </g>
     </g>
     <g id="text_7">
      <!-- 20 -->
      <g transform="translate(37.875 245.404663)scale(0.1 -0.1)">
       <use xlink:href="#DejaVuSans-50"/>
       <use x="63.623047" xlink:href="#DejaVuSans-48"/>
      </g>
     </g>
    </g>
    <g id="ytick_3">
     <g id="line2d_8">
      <g>
       <use style="stroke:#000000;stroke-width:0.8;" x="57.6" xlink:href="#m7dc3d6611c" y="208.217268"/>
      </g>
     </g>
     <g id="text_8">
      <!-- 30 -->
      <g transform="translate(37.875 212.016487)scale(0.1 -0.1)">
       <defs>
        <path d="M 40.578125 39.3125 
Q 47.65625 37.796875 51.625 33 
Q 55.609375 28.21875 55.609375 21.1875 
Q 55.609375 10.40625 48.1875 4.484375 
Q 40.765625 -1.421875 27.09375 -1.421875 
Q 22.515625 -1.421875 17.65625 -0.515625 
Q 12.796875 0.390625 7.625 2.203125 
L 7.625 11.71875 
Q 11.71875 9.328125 16.59375 8.109375 
Q 21.484375 6.890625 26.8125 6.890625 
Q 36.078125 6.890625 40.9375 10.546875 
Q 45.796875 14.203125 45.796875 21.1875 
Q 45.796875 27.640625 41.28125 31.265625 
Q 36.765625 34.90625 28.71875 34.90625 
L 20.21875 34.90625 
L 20.21875 43.015625 
L 29.109375 43.015625 
Q 36.375 43.015625 40.234375 45.921875 
Q 44.09375 48.828125 44.09375 54.296875 
Q 44.09375 59.90625 40.109375 62.90625 
Q 36.140625 65.921875 28.71875 65.921875 
Q 24.65625 65.921875 20.015625 65.03125 
Q 15.375 64.15625 9.8125 62.3125 
L 9.8125 71.09375 
Q 15.4375 72.65625 20.34375 73.4375 
Q 25.25 74.21875 29.59375 74.21875 
Q 40.828125 74.21875 47.359375 69.109375 
Q 53.90625 64.015625 53.90625 55.328125 
Q 53.90625 49.265625 50.4375 45.09375 
Q 46.96875 40.921875 40.578125 39.3125 
z
" id="DejaVuSans-51"/>
       </defs>
       <use xlink:href="#DejaVuSans-51"/>
       <use x="63.623047" xlink:href="#DejaVuSans-48"/>
      </g>
     </g>
    </g>
    <g id="ytick_4">
     <g id="line2d_9">
      <g>
       <use style="stroke:#000000;stroke-width:0.8;" x="57.6" xlink:href="#m7dc3d6611c" y="174.829092"/>
      </g>
     </g>
     <g id="text_9">
      <!-- 40 -->
      <g transform="translate(37.875 178.62831)scale(0.1 -0.1)">
       <use xlink:href="#DejaVuSans-52"/>
       <use x="63.623047" xlink:href="#DejaVuSans-48"/>
      </g>
     </g>
    </g>
    <g id="ytick_5">
     <g id="line2d_10">
      <g>
       <use style="stroke:#000000;stroke-width:0.8;" x="57.6" xlink:href="#m7dc3d6611c" y="141.440915"/>
      </g>
     </g>
     <g id="text_10">
      <!-- 50 -->
      <g transform="translate(37.875 145.240134)scale(0.1 -0.1)">
       <defs>
        <path d="M 10.796875 72.90625 
L 49.515625 72.90625 
L 49.515625 64.59375 
L 19.828125 64.59375 
L 19.828125 46.734375 
Q 21.96875 47.46875 24.109375 47.828125 
Q 26.265625 48.1875 28.421875 48.1875 
Q 40.625 48.1875 47.75 41.5 
Q 54.890625 34.8125 54.890625 23.390625 
Q 54.890625 11.625 47.5625 5.09375 
Q 40.234375 -1.421875 26.90625 -1.421875 
Q 22.3125 -1.421875 17.546875 -0.640625 
Q 12.796875 0.140625 7.71875 1.703125 
L 7.71875 11.625 
Q 12.109375 9.234375 16.796875 8.0625 
Q 21.484375 6.890625 26.703125 6.890625 
Q 35.15625 6.890625 40.078125 11.328125 
Q 45.015625 15.765625 45.015625 23.390625 
Q 45.015625 31 40.078125 35.4375 
Q 35.15625 39.890625 26.703125 39.890625 
Q 22.75 39.890625 18.8125 39.015625 
Q 14.890625 38.140625 10.796875 36.28125 
z
" id="DejaVuSans-53"/>
       </defs>
       <use xlink:href="#DejaVuSans-53"/>
       <use x="63.623047" xlink:href="#DejaVuSans-48"/>
      </g>
     </g>
    </g>
    <g id="ytick_6">
     <g id="line2d_11">
      <g>
       <use style="stroke:#000000;stroke-width:0.8;" x="57.6" xlink:href="#m7dc3d6611c" y="108.052738"/>
      </g>
     </g>
     <g id="text_11">
      <!-- 60 -->
      <g transform="translate(37.875 111.851957)scale(0.1 -0.1)">
       <use xlink:href="#DejaVuSans-54"/>
       <use x="63.623047" xlink:href="#DejaVuSans-48"/>
      </g>
     </g>
    </g>
    <g id="ytick_7">
     <g id="line2d_12">
      <g>
       <use style="stroke:#000000;stroke-width:0.8;" x="57.6" xlink:href="#m7dc3d6611c" y="74.664562"/>
      </g>
     </g>
     <g id="text_12">
      <!-- 70 -->
      <g transform="translate(37.875 78.463781)scale(0.1 -0.1)">
       <defs>
        <path d="M 8.203125 72.90625 
L 55.078125 72.90625 
L 55.078125 68.703125 
L 28.609375 0 
L 18.3125 0 
L 43.21875 64.59375 
L 8.203125 64.59375 
z
" id="DejaVuSans-55"/>
       </defs>
       <use xlink:href="#DejaVuSans-55"/>
       <use x="63.623047" xlink:href="#DejaVuSans-48"/>
      </g>
     </g>
    </g>
   </g>
   <g id="line2d_13">
    <path clip-path="url(#p9863fee3f9)" d="M 384.617824 237.378502 
L 385.018482 227.402114 
L 385.132002 217.312207 
L 384.991772 210.55444 
L 384.631179 203.800012 
L 384.020176 197.072295 
L 383.122034 190.387982 
L 381.900027 183.770445 
L 380.314088 177.243057 
L 378.334169 170.825849 
L 375.933559 164.542194 
L 373.132291 158.412125 
L 369.963753 152.459013 
L 366.451317 146.696214 
L 362.63171 141.150438 
L 358.524964 135.83504 
L 354.151113 130.746682 
L 349.520173 125.875347 
L 344.648838 121.214358 
L 339.547125 116.760375 
L 334.231727 112.526754 
L 328.695967 108.586949 
L 325.847956 106.760616 
L 322.946523 105.041125 
L 319.99167 103.441831 
L 316.980056 101.972752 
L 313.915022 100.647241 
L 310.796566 99.471977 
L 307.624689 98.453638 
L 304.409408 97.57219 
L 297.865325 96.129821 
L 291.221078 94.984606 
L 274.516973 92.340263 
L 267.906114 91.04814 
L 261.348676 89.57906 
L 254.847998 87.929684 
L 248.40408 86.096674 
L 238.83169 83.031639 
L 226.077407 78.858117 
L 219.613456 77.001734 
L 213.032646 75.459201 
L 209.69049 74.841519 
L 206.3283 74.340697 
L 202.946078 73.966749 
L 199.553839 73.733032 
L 196.164939 73.646223 
L 192.782717 73.723015 
L 189.41385 73.966749 
L 186.071694 74.394118 
L 182.759586 75.011799 
L 179.490884 75.833148 
L 176.268925 76.854826 
L 173.103726 78.070156 
L 170.005303 79.469121 
L 166.983673 81.041704 
L 164.048852 82.77455 
L 161.207518 84.660982 
L 158.466349 86.690983 
L 155.842038 88.854537 
L 153.334586 91.138288 
L 150.960687 93.538898 
L 148.710324 96.036334 
L 146.573481 98.627256 
L 142.586932 104.029463 
L 138.880845 109.652032 
L 133.618868 118.29957 
L 124.901215 132.676519 
L 117.719418 144.008466 
L 110.263839 155.176811 
L 104.701368 163.580615 
L 101.168899 169.293332 
L 97.876825 175.152957 
L 94.905277 181.199556 
L 93.563073 184.297978 
L 92.32771 187.436467 
L 91.205867 190.621699 
L 90.204222 193.843658 
L 89.332791 197.105683 
L 88.598251 200.404435 
L 88.00728 203.736575 
L 87.573234 207.102103 
L 87.296112 210.494342 
L 87.185931 213.903275 
L 87.24603 217.318885 
L 87.483086 220.727818 
L 87.900438 224.113379 
L 88.504764 227.465552 
L 89.299403 230.770981 
L 90.284354 234.012973 
L 91.472973 237.181511 
L 92.86526 240.259901 
L 94.461215 243.241465 
L 96.260837 246.112849 
L 98.240756 248.867373 
L 100.394294 251.505039 
L 102.704755 254.01583 
L 105.158786 256.389729 
L 107.743031 258.626737 
L 110.444135 260.720176 
L 113.248742 262.660029 
L 116.140158 264.439619 
L 119.108367 266.058945 
L 122.146691 267.521347 
L 125.248452 268.833503 
L 128.403635 269.99875 
L 131.612239 271.027106 
L 134.864247 271.928587 
L 138.156321 272.706531 
L 141.481784 273.370956 
L 148.202824 274.382618 
L 154.987301 275.020332 
L 161.785134 275.340858 
L 168.54624 275.407635 
L 175.227214 275.270743 
L 181.774635 274.993621 
L 181.774635 274.993621 
" style="fill:none;stroke:#fea952;stroke-linecap:square;"/>
   </g>
   <g id="line2d_14">
    <path clip-path="url(#p9863fee3f9)" d="M 371.277548 236.745814 
L 371.666417 227.109539 
L 371.778012 217.497129 
L 371.649685 211.147715 
L 371.318736 204.868702 
L 370.764209 198.697902 
L 369.957901 192.639393 
L 368.876994 186.730829 
L 367.490355 180.973356 
L 365.782974 175.38992 
L 363.701679 169.903571 
L 361.251157 164.51146 
L 358.461905 159.246556 
L 355.34925 154.119647 
L 351.960249 149.18058 
L 348.286991 144.411005 
L 344.355953 139.825123 
L 340.176354 135.417689 
L 335.761357 131.183105 
L 331.095781 127.10146 
L 326.32595 123.290673 
L 321.486664 119.829245 
L 316.589481 116.786391 
L 314.136403 115.445127 
L 311.678896 114.230849 
L 309.205151 113.144455 
L 306.714063 112.187968 
L 304.093712 111.333679 
L 298.471051 109.887255 
L 292.387609 108.710692 
L 282.516139 107.172153 
L 272.04297 105.464384 
L 265.067958 104.098356 
L 258.143976 102.544135 
L 251.281094 100.799822 
L 244.465265 98.857903 
L 234.588435 95.694895 
L 222.258052 91.655608 
L 216.377435 89.959026 
L 210.605493 88.592067 
L 204.860649 87.61508 
L 202.028108 87.290434 
L 199.211846 87.083923 
L 196.46809 86.998052 
L 193.746437 87.043469 
L 191.107824 87.214153 
L 188.52013 87.523033 
L 186.014278 87.964414 
L 183.527725 88.563709 
L 181.056136 89.322619 
L 178.599523 90.242233 
L 176.170915 91.315997 
L 173.773923 92.541954 
L 171.43589 93.900867 
L 169.155693 95.393632 
L 166.961905 96.995777 
L 164.834923 98.728304 
L 162.830872 100.528912 
L 160.882303 102.478964 
L 159.013526 104.53382 
L 157.188752 106.731531 
L 153.658273 111.498645 
L 150.22904 116.693462 
L 145.08025 125.155223 
L 136.239138 139.734475 
L 130.758532 148.435296 
L 125.095354 157.070905 
L 116.001928 170.698241 
L 112.734167 175.972241 
L 109.774066 181.220815 
L 107.160123 186.508228 
L 104.924524 191.873081 
L 103.107016 197.290566 
L 102.36879 200.008436 
L 101.748307 202.736659 
L 101.25285 205.444833 
L 100.884162 208.189511 
L 100.644412 210.925776 
L 100.539135 213.668321 
L 100.569126 216.392401 
L 100.738022 219.093827 
L 101.043833 221.743902 
L 101.490068 224.343832 
L 102.077952 226.888724 
L 102.788742 229.322181 
L 103.641538 231.677941 
L 104.639819 233.957282 
L 105.777582 236.148998 
L 107.105328 238.31796 
L 108.585912 240.421012 
L 110.22181 242.461633 
L 111.990339 244.416809 
L 113.899599 246.292133 
L 115.924295 248.070688 
L 118.041328 249.736282 
L 120.248937 251.286352 
L 122.536281 252.71559 
L 124.900501 254.025058 
L 127.350006 255.221398 
L 129.875269 256.305302 
L 132.479759 257.280713 
L 135.179879 258.157172 
L 137.935618 258.931282 
L 143.662463 260.194921 
L 149.6159 261.102314 
L 155.760033 261.687435 
L 162.03509 261.987927 
L 168.360029 262.053662 
L 174.726405 261.924866 
L 181.14524 261.65319 
L 181.14524 261.65319 
" style="fill:none;stroke:#ffffff;stroke-linecap:square;"/>
   </g>
   <g id="line2d_15">
    <path clip-path="url(#p9863fee3f9)" d="M 397.9581 238.011189 
L 398.370548 227.69469 
L 398.487273 220.684413 
L 398.43543 213.567655 
L 398.170941 206.344941 
L 397.647883 199.08394 
L 396.824391 191.792155 
L 395.654419 184.470415 
L 394.085001 177.149848 
L 393.137821 173.512758 
L 392.072113 169.874218 
L 390.885365 166.261778 
L 389.582931 162.700455 
L 388.16544 159.180818 
L 386.640751 155.718327 
L 385.013426 152.31279 
L 383.288215 148.965033 
L 379.551256 142.438194 
L 375.471778 136.168751 
L 371.075326 130.166853 
L 366.387652 124.430212 
L 361.429572 118.959148 
L 356.233905 113.762617 
L 350.803185 108.812787 
L 345.104573 104.05969 
L 339.070636 99.517736 
L 335.90527 97.344654 
L 332.656867 95.271405 
L 329.303565 93.295859 
L 325.846936 91.438535 
L 322.281216 89.714654 
L 318.624892 88.150026 
L 314.879068 86.755986 
L 311.155666 85.573597 
L 307.47572 84.573691 
L 300.236898 82.986804 
L 293.251843 81.784635 
L 276.990976 79.216141 
L 270.744271 77.997925 
L 264.553377 76.613986 
L 258.414903 75.059547 
L 252.342896 73.335444 
L 243.074945 70.368383 
L 229.896762 66.060626 
L 222.849477 64.044442 
L 219.197557 63.138165 
L 215.459799 62.326334 
L 211.658145 61.631993 
L 207.795952 61.066313 
L 203.864048 60.643064 
L 199.895832 60.382141 
L 195.861788 60.294393 
L 191.818997 60.402561 
L 187.719876 60.719345 
L 183.623257 61.265203 
L 179.504895 62.059184 
L 175.454043 63.102588 
L 171.481713 64.387033 
L 167.607928 65.898079 
L 163.839691 67.622244 
L 160.193423 69.541453 
L 156.661815 71.648233 
L 153.259344 73.928332 
L 149.970793 76.386189 
L 146.849154 78.98077 
L 143.838301 81.747664 
L 141.039071 84.598832 
L 138.407122 87.538847 
L 135.958209 90.522982 
L 133.662895 93.541172 
L 129.474839 99.590722 
L 125.681987 105.594502 
L 110.080734 131.182947 
L 104.761346 139.4141 
L 91.495002 159.492241 
L 87.769504 165.797884 
L 84.275561 172.439122 
L 82.650431 175.890883 
L 81.135851 179.406413 
L 79.730897 182.999853 
L 78.452664 186.656973 
L 77.301429 190.39675 
L 76.296791 194.20293 
L 75.448195 198.07221 
L 74.761711 202.028317 
L 74.262306 206.014695 
L 73.947812 210.062908 
L 73.832727 214.138228 
L 73.922934 218.245369 
L 74.22815 222.361809 
L 74.757043 226.482856 
L 75.51946 230.587271 
L 76.520853 234.653239 
L 77.779966 238.703766 
L 79.304408 242.685081 
L 81.090701 246.562521 
L 83.144848 250.333933 
L 85.416347 253.907737 
L 87.895601 257.313734 
L 90.566778 260.548445 
L 93.419172 263.614851 
L 96.417973 266.487325 
L 99.561767 269.182786 
L 102.846942 271.704069 
L 106.248546 274.033705 
L 109.744034 276.163648 
L 113.316232 278.092832 
L 116.943375 279.821297 
L 120.621635 281.361704 
L 124.327511 282.716787 
L 128.044598 283.89704 
L 131.792876 284.925891 
L 135.539666 285.802957 
L 139.301104 286.546991 
L 146.789747 287.662921 
L 154.214569 288.353229 
L 161.535178 288.69379 
L 168.73245 288.761607 
L 175.728023 288.616621 
L 182.40403 288.334053 
L 182.40403 288.334053 
" style="fill:none;stroke:#ffffff;stroke-linecap:square;"/>
   </g>
   <g id="patch_3">
    <path d="M 57.6 307.584 
L 57.6 41.472 
" style="fill:none;stroke:#000000;stroke-linecap:square;stroke-linejoin:miter;stroke-width:0.8;"/>
   </g>
   <g id="patch_4">
    <path d="M 414.72 307.584 
L 414.72 41.472 
" style="fill:none;stroke:#000000;stroke-linecap:square;stroke-linejoin:miter;stroke-width:0.8;"/>
   </g>
   <g id="patch_5">
    <path d="M 57.6 307.584 
L 414.72 307.584 
" style="fill:none;stroke:#000000;stroke-linecap:square;stroke-linejoin:miter;stroke-width:0.8;"/>
   </g>
   <g id="patch_6">
    <path d="M 57.6 41.472 
L 414.72 41.472 
" style="fill:none;stroke:#000000;stroke-linecap:square;stroke-linejoin:miter;stroke-width:0.8;"/>
   </g>
  </g>
 </g>
 <defs>
  <clipPath id="p9863fee3f9">
   <rect height="266.112" width="357.12" x="57.6" y="41.472"/>
  </clipPath>
 </defs>
</svg>
