<?xml version="1.0" encoding="utf-8" standalone="no"?>
<!DOCTYPE svg PUBLIC "-//W3C//DTD SVG 1.1//EN"
  "http://www.w3.org/Graphics/SVG/1.1/DTD/svg11.dtd">
<!-- Created with matplotlib (https://matplotlib.org/) -->
<svg height="345.6pt" version="1.1" viewBox="0 0 460.8 345.6" width="460.8pt" xmlns="http://www.w3.org/2000/svg" xmlns:xlink="http://www.w3.org/1999/xlink">
 <metadata>
  <rdf:RDF xmlns:cc="http://creativecommons.org/ns#" xmlns:dc="http://purl.org/dc/elements/1.1/" xmlns:rdf="http://www.w3.org/1999/02/22-rdf-syntax-ns#">
   <cc:Work>
    <dc:type rdf:resource="http://purl.org/dc/dcmitype/StillImage"/>
    <dc:date>2021-01-25T14:18:17.208208</dc:date>
    <dc:format>image/svg+xml</dc:format>
    <dc:creator>
     <cc:Agent>
      <dc:title>Matplotlib v3.3.3, https://matplotlib.org/</dc:title>
     </cc:Agent>
    </dc:creator>
   </cc:Work>
  </rdf:RDF>
 </metadata>
 <defs>
  <style type="text/css">*{stroke-linecap:butt;stroke-linejoin:round;}</style>
 </defs>
 <g id="figure_1">
  <g id="patch_1">
   <path d="M 0 345.6 
L 460.8 345.6 
L 460.8 0 
L 0 0 
z
" style="fill:#ffffff;"/>
  </g>
  <g id="axes_1">
   <g id="patch_2">
    <path d="M 57.6 307.584 
L 414.72 307.584 
L 414.72 41.472 
L 57.6 41.472 
z
" style="fill:#7d9051;"/>
   </g>
   <g id="matplotlib.axis_1">
    <g id="xtick_1">
     <g id="line2d_1">
      <defs>
       <path d="M 0 0 
L 0 3.5 
" id="m409220dcce" style="stroke:#000000;stroke-width:0.8;"/>
      </defs>
      <g>
       <use style="stroke:#000000;stroke-width:0.8;" x="93.070003" xlink:href="#m409220dcce" y="307.584"/>
      </g>
     </g>
     <g id="text_1">
      <!-- 0 -->
      <g transform="translate(89.888753 322.182437)scale(0.1 -0.1)">
       <defs>
        <path d="M 31.78125 66.40625 
Q 24.171875 66.40625 20.328125 58.90625 
Q 16.5 51.421875 16.5 36.375 
Q 16.5 21.390625 20.328125 13.890625 
Q 24.171875 6.390625 31.78125 6.390625 
Q 39.453125 6.390625 43.28125 13.890625 
Q 47.125 21.390625 47.125 36.375 
Q 47.125 51.421875 43.28125 58.90625 
Q 39.453125 66.40625 31.78125 66.40625 
z
M 31.78125 74.21875 
Q 44.046875 74.21875 50.515625 64.515625 
Q 56.984375 54.828125 56.984375 36.375 
Q 56.984375 17.96875 50.515625 8.265625 
Q 44.046875 -1.421875 31.78125 -1.421875 
Q 19.53125 -1.421875 13.0625 8.265625 
Q 6.59375 17.96875 6.59375 36.375 
Q 6.59375 54.828125 13.0625 64.515625 
Q 19.53125 74.21875 31.78125 74.21875 
z
" id="DejaVuSans-48"/>
       </defs>
       <use xlink:href="#DejaVuSans-48"/>
      </g>
     </g>
    </g>
    <g id="xtick_2">
     <g id="line2d_2">
      <g>
       <use style="stroke:#000000;stroke-width:0.8;" x="157.482746" xlink:href="#m409220dcce" y="307.584"/>
      </g>
     </g>
     <g id="text_2">
      <!-- 20 -->
      <g transform="translate(151.120246 322.182437)scale(0.1 -0.1)">
       <defs>
        <path d="M 19.1875 8.296875 
L 53.609375 8.296875 
L 53.609375 0 
L 7.328125 0 
L 7.328125 8.296875 
Q 12.9375 14.109375 22.625 23.890625 
Q 32.328125 33.6875 34.8125 36.53125 
Q 39.546875 41.84375 41.421875 45.53125 
Q 43.3125 49.21875 43.3125 52.78125 
Q 43.3125 58.59375 39.234375 62.25 
Q 35.15625 65.921875 28.609375 65.921875 
Q 23.96875 65.921875 18.8125 64.3125 
Q 13.671875 62.703125 7.8125 59.421875 
L 7.8125 69.390625 
Q 13.765625 71.78125 18.9375 73 
Q 24.125 74.21875 28.421875 74.21875 
Q 39.75 74.21875 46.484375 68.546875 
Q 53.21875 62.890625 53.21875 53.421875 
Q 53.21875 48.921875 51.53125 44.890625 
Q 49.859375 40.875 45.40625 35.40625 
Q 44.1875 33.984375 37.640625 27.21875 
Q 31.109375 20.453125 19.1875 8.296875 
z
" id="DejaVuSans-50"/>
       </defs>
       <use xlink:href="#DejaVuSans-50"/>
       <use x="63.623047" xlink:href="#DejaVuSans-48"/>
      </g>
     </g>
    </g>
    <g id="xtick_3">
     <g id="line2d_3">
      <g>
       <use style="stroke:#000000;stroke-width:0.8;" x="221.895489" xlink:href="#m409220dcce" y="307.584"/>
      </g>
     </g>
     <g id="text_3">
      <!-- 40 -->
      <g transform="translate(215.532989 322.182437)scale(0.1 -0.1)">
       <defs>
        <path d="M 37.796875 64.3125 
L 12.890625 25.390625 
L 37.796875 25.390625 
z
M 35.203125 72.90625 
L 47.609375 72.90625 
L 47.609375 25.390625 
L 58.015625 25.390625 
L 58.015625 17.1875 
L 47.609375 17.1875 
L 47.609375 0 
L 37.796875 0 
L 37.796875 17.1875 
L 4.890625 17.1875 
L 4.890625 26.703125 
z
" id="DejaVuSans-52"/>
       </defs>
       <use xlink:href="#DejaVuSans-52"/>
       <use x="63.623047" xlink:href="#DejaVuSans-48"/>
      </g>
     </g>
    </g>
    <g id="xtick_4">
     <g id="line2d_4">
      <g>
       <use style="stroke:#000000;stroke-width:0.8;" x="286.308232" xlink:href="#m409220dcce" y="307.584"/>
      </g>
     </g>
     <g id="text_4">
      <!-- 60 -->
      <g transform="translate(279.945732 322.182437)scale(0.1 -0.1)">
       <defs>
        <path d="M 33.015625 40.375 
Q 26.375 40.375 22.484375 35.828125 
Q 18.609375 31.296875 18.609375 23.390625 
Q 18.609375 15.53125 22.484375 10.953125 
Q 26.375 6.390625 33.015625 6.390625 
Q 39.65625 6.390625 43.53125 10.953125 
Q 47.40625 15.53125 47.40625 23.390625 
Q 47.40625 31.296875 43.53125 35.828125 
Q 39.65625 40.375 33.015625 40.375 
z
M 52.59375 71.296875 
L 52.59375 62.3125 
Q 48.875 64.0625 45.09375 64.984375 
Q 41.3125 65.921875 37.59375 65.921875 
Q 27.828125 65.921875 22.671875 59.328125 
Q 17.53125 52.734375 16.796875 39.40625 
Q 19.671875 43.65625 24.015625 45.921875 
Q 28.375 48.1875 33.59375 48.1875 
Q 44.578125 48.1875 50.953125 41.515625 
Q 57.328125 34.859375 57.328125 23.390625 
Q 57.328125 12.15625 50.6875 5.359375 
Q 44.046875 -1.421875 33.015625 -1.421875 
Q 20.359375 -1.421875 13.671875 8.265625 
Q 6.984375 17.96875 6.984375 36.375 
Q 6.984375 53.65625 15.1875 63.9375 
Q 23.390625 74.21875 37.203125 74.21875 
Q 40.921875 74.21875 44.703125 73.484375 
Q 48.484375 72.75 52.59375 71.296875 
z
" id="DejaVuSans-54"/>
       </defs>
       <use xlink:href="#DejaVuSans-54"/>
       <use x="63.623047" xlink:href="#DejaVuSans-48"/>
      </g>
     </g>
    </g>
    <g id="xtick_5">
     <g id="line2d_5">
      <g>
       <use style="stroke:#000000;stroke-width:0.8;" x="350.720975" xlink:href="#m409220dcce" y="307.584"/>
      </g>
     </g>
     <g id="text_5">
      <!-- 80 -->
      <g transform="translate(344.358475 322.182437)scale(0.1 -0.1)">
       <defs>
        <path d="M 31.78125 34.625 
Q 24.75 34.625 20.71875 30.859375 
Q 16.703125 27.09375 16.703125 20.515625 
Q 16.703125 13.921875 20.71875 10.15625 
Q 24.75 6.390625 31.78125 6.390625 
Q 38.8125 6.390625 42.859375 10.171875 
Q 46.921875 13.96875 46.921875 20.515625 
Q 46.921875 27.09375 42.890625 30.859375 
Q 38.875 34.625 31.78125 34.625 
z
M 21.921875 38.8125 
Q 15.578125 40.375 12.03125 44.71875 
Q 8.5 49.078125 8.5 55.328125 
Q 8.5 64.0625 14.71875 69.140625 
Q 20.953125 74.21875 31.78125 74.21875 
Q 42.671875 74.21875 48.875 69.140625 
Q 55.078125 64.0625 55.078125 55.328125 
Q 55.078125 49.078125 51.53125 44.71875 
Q 48 40.375 41.703125 38.8125 
Q 48.828125 37.15625 52.796875 32.3125 
Q 56.78125 27.484375 56.78125 20.515625 
Q 56.78125 9.90625 50.3125 4.234375 
Q 43.84375 -1.421875 31.78125 -1.421875 
Q 19.734375 -1.421875 13.25 4.234375 
Q 6.78125 9.90625 6.78125 20.515625 
Q 6.78125 27.484375 10.78125 32.3125 
Q 14.796875 37.15625 21.921875 38.8125 
z
M 18.3125 54.390625 
Q 18.3125 48.734375 21.84375 45.5625 
Q 25.390625 42.390625 31.78125 42.390625 
Q 38.140625 42.390625 41.71875 45.5625 
Q 45.3125 48.734375 45.3125 54.390625 
Q 45.3125 60.0625 41.71875 63.234375 
Q 38.140625 66.40625 31.78125 66.40625 
Q 25.390625 66.40625 21.84375 63.234375 
Q 18.3125 60.0625 18.3125 54.390625 
z
" id="DejaVuSans-56"/>
       </defs>
       <use xlink:href="#DejaVuSans-56"/>
       <use x="63.623047" xlink:href="#DejaVuSans-48"/>
      </g>
     </g>
    </g>
   </g>
   <g id="matplotlib.axis_2">
    <g id="ytick_1">
     <g id="line2d_6">
      <defs>
       <path d="M 0 0 
L -3.5 0 
" id="m4a61c08428" style="stroke:#000000;stroke-width:0.8;"/>
      </defs>
      <g>
       <use style="stroke:#000000;stroke-width:0.8;" x="57.6" xlink:href="#m4a61c08428" y="282.154562"/>
      </g>
     </g>
     <g id="text_6">
      <!-- 10 -->
      <g transform="translate(37.875 285.953781)scale(0.1 -0.1)">
       <defs>
        <path d="M 12.40625 8.296875 
L 28.515625 8.296875 
L 28.515625 63.921875 
L 10.984375 60.40625 
L 10.984375 69.390625 
L 28.421875 72.90625 
L 38.28125 72.90625 
L 38.28125 8.296875 
L 54.390625 8.296875 
L 54.390625 0 
L 12.40625 0 
z
" id="DejaVuSans-49"/>
       </defs>
       <use xlink:href="#DejaVuSans-49"/>
       <use x="63.623047" xlink:href="#DejaVuSans-48"/>
      </g>
     </g>
    </g>
    <g id="ytick_2">
     <g id="line2d_7">
      <g>
       <use style="stroke:#000000;stroke-width:0.8;" x="57.6" xlink:href="#m4a61c08428" y="249.948191"/>
      </g>
     </g>
     <g id="text_7">
      <!-- 20 -->
      <g transform="translate(37.875 253.747409)scale(0.1 -0.1)">
       <use xlink:href="#DejaVuSans-50"/>
       <use x="63.623047" xlink:href="#DejaVuSans-48"/>
      </g>
     </g>
    </g>
    <g id="ytick_3">
     <g id="line2d_8">
      <g>
       <use style="stroke:#000000;stroke-width:0.8;" x="57.6" xlink:href="#m4a61c08428" y="217.741819"/>
      </g>
     </g>
     <g id="text_8">
      <!-- 30 -->
      <g transform="translate(37.875 221.541038)scale(0.1 -0.1)">
       <defs>
        <path d="M 40.578125 39.3125 
Q 47.65625 37.796875 51.625 33 
Q 55.609375 28.21875 55.609375 21.1875 
Q 55.609375 10.40625 48.1875 4.484375 
Q 40.765625 -1.421875 27.09375 -1.421875 
Q 22.515625 -1.421875 17.65625 -0.515625 
Q 12.796875 0.390625 7.625 2.203125 
L 7.625 11.71875 
Q 11.71875 9.328125 16.59375 8.109375 
Q 21.484375 6.890625 26.8125 6.890625 
Q 36.078125 6.890625 40.9375 10.546875 
Q 45.796875 14.203125 45.796875 21.1875 
Q 45.796875 27.640625 41.28125 31.265625 
Q 36.765625 34.90625 28.71875 34.90625 
L 20.21875 34.90625 
L 20.21875 43.015625 
L 29.109375 43.015625 
Q 36.375 43.015625 40.234375 45.921875 
Q 44.09375 48.828125 44.09375 54.296875 
Q 44.09375 59.90625 40.109375 62.90625 
Q 36.140625 65.921875 28.71875 65.921875 
Q 24.65625 65.921875 20.015625 65.03125 
Q 15.375 64.15625 9.8125 62.3125 
L 9.8125 71.09375 
Q 15.4375 72.65625 20.34375 73.4375 
Q 25.25 74.21875 29.59375 74.21875 
Q 40.828125 74.21875 47.359375 69.109375 
Q 53.90625 64.015625 53.90625 55.328125 
Q 53.90625 49.265625 50.4375 45.09375 
Q 46.96875 40.921875 40.578125 39.3125 
z
" id="DejaVuSans-51"/>
       </defs>
       <use xlink:href="#DejaVuSans-51"/>
       <use x="63.623047" xlink:href="#DejaVuSans-48"/>
      </g>
     </g>
    </g>
    <g id="ytick_4">
     <g id="line2d_9">
      <g>
       <use style="stroke:#000000;stroke-width:0.8;" x="57.6" xlink:href="#m4a61c08428" y="185.535448"/>
      </g>
     </g>
     <g id="text_9">
      <!-- 40 -->
      <g transform="translate(37.875 189.334666)scale(0.1 -0.1)">
       <use xlink:href="#DejaVuSans-52"/>
       <use x="63.623047" xlink:href="#DejaVuSans-48"/>
      </g>
     </g>
    </g>
    <g id="ytick_5">
     <g id="line2d_10">
      <g>
       <use style="stroke:#000000;stroke-width:0.8;" x="57.6" xlink:href="#m4a61c08428" y="153.329076"/>
      </g>
     </g>
     <g id="text_10">
      <!-- 50 -->
      <g transform="translate(37.875 157.128295)scale(0.1 -0.1)">
       <defs>
        <path d="M 10.796875 72.90625 
L 49.515625 72.90625 
L 49.515625 64.59375 
L 19.828125 64.59375 
L 19.828125 46.734375 
Q 21.96875 47.46875 24.109375 47.828125 
Q 26.265625 48.1875 28.421875 48.1875 
Q 40.625 48.1875 47.75 41.5 
Q 54.890625 34.8125 54.890625 23.390625 
Q 54.890625 11.625 47.5625 5.09375 
Q 40.234375 -1.421875 26.90625 -1.421875 
Q 22.3125 -1.421875 17.546875 -0.640625 
Q 12.796875 0.140625 7.71875 1.703125 
L 7.71875 11.625 
Q 12.109375 9.234375 16.796875 8.0625 
Q 21.484375 6.890625 26.703125 6.890625 
Q 35.15625 6.890625 40.078125 11.328125 
Q 45.015625 15.765625 45.015625 23.390625 
Q 45.015625 31 40.078125 35.4375 
Q 35.15625 39.890625 26.703125 39.890625 
Q 22.75 39.890625 18.8125 39.015625 
Q 14.890625 38.140625 10.796875 36.28125 
z
" id="DejaVuSans-53"/>
       </defs>
       <use xlink:href="#DejaVuSans-53"/>
       <use x="63.623047" xlink:href="#DejaVuSans-48"/>
      </g>
     </g>
    </g>
    <g id="ytick_6">
     <g id="line2d_11">
      <g>
       <use style="stroke:#000000;stroke-width:0.8;" x="57.6" xlink:href="#m4a61c08428" y="121.122705"/>
      </g>
     </g>
     <g id="text_11">
      <!-- 60 -->
      <g transform="translate(37.875 124.921924)scale(0.1 -0.1)">
       <use xlink:href="#DejaVuSans-54"/>
       <use x="63.623047" xlink:href="#DejaVuSans-48"/>
      </g>
     </g>
    </g>
    <g id="ytick_7">
     <g id="line2d_12">
      <g>
       <use style="stroke:#000000;stroke-width:0.8;" x="57.6" xlink:href="#m4a61c08428" y="88.916333"/>
      </g>
     </g>
     <g id="text_12">
      <!-- 70 -->
      <g transform="translate(37.875 92.715552)scale(0.1 -0.1)">
       <defs>
        <path d="M 8.203125 72.90625 
L 55.078125 72.90625 
L 55.078125 68.703125 
L 28.609375 0 
L 18.3125 0 
L 43.21875 64.59375 
L 8.203125 64.59375 
z
" id="DejaVuSans-55"/>
       </defs>
       <use xlink:href="#DejaVuSans-55"/>
       <use x="63.623047" xlink:href="#DejaVuSans-48"/>
      </g>
     </g>
    </g>
    <g id="ytick_8">
     <g id="line2d_13">
      <g>
       <use style="stroke:#000000;stroke-width:0.8;" x="57.6" xlink:href="#m4a61c08428" y="56.709962"/>
      </g>
     </g>
     <g id="text_13">
      <!-- 80 -->
      <g transform="translate(37.875 60.509181)scale(0.1 -0.1)">
       <use xlink:href="#DejaVuSans-56"/>
       <use x="63.623047" xlink:href="#DejaVuSans-48"/>
      </g>
     </g>
    </g>
   </g>
   <g id="line2d_14">
    <path clip-path="url(#p66df216280)" d="M 241.322372 196.408319 
L 239.531698 199.071786 
L 237.911717 201.857637 
L 236.465651 204.75299 
L 235.190279 207.744962 
L 234.092042 210.82067 
L 233.167719 213.970453 
L 232.420531 217.174987 
L 231.853699 220.42461 
L 231.467222 223.703219 
L 231.261102 227.004372 
L 231.238557 230.308745 
L 231.399589 233.606678 
L 231.747418 236.885286 
L 232.282044 240.125247 
L 233.003466 243.32334 
L 233.914907 246.460241 
L 235.016365 249.523067 
L 236.311061 252.498935 
L 237.798995 255.378185 
L 239.483388 258.144712 
L 241.357799 260.785635 
L 243.415786 263.297732 
L 245.641246 265.674562 
L 248.021297 267.912905 
L 250.539836 270.00954 
L 253.183979 271.954804 
L 255.937623 273.745479 
L 258.787887 275.378342 
L 261.718667 276.850173 
L 264.720301 278.15131 
L 267.773465 279.284975 
L 270.874939 280.247945 
L 274.021501 281.043442 
L 277.20027 281.671467 
L 280.408025 282.14168 
L 283.638324 282.450861 
L 286.887946 282.605451 
L 290.147231 282.605451 
L 293.412957 282.454081 
L 296.675463 282.154562 
L 299.931527 281.706894 
L 303.168267 281.111076 
L 306.369581 280.363888 
L 309.525805 279.458889 
L 312.620837 278.396079 
L 315.641795 277.169016 
L 318.575795 275.777701 
L 321.409956 274.215692 
L 324.131394 272.482989 
L 326.727228 270.56993 
L 329.184574 268.482958 
L 331.496992 266.228512 
L 333.667701 263.822696 
L 335.690261 261.275172 
L 337.561451 258.598822 
L 339.281272 255.80975 
L 340.843281 252.917618 
L 342.250699 249.938529 
L 343.497086 246.885365 
L 344.58244 243.767788 
L 345.500322 240.598681 
L 346.253951 237.394147 
L 346.833666 234.160627 
L 347.245907 230.907784 
L 347.481014 227.645278 
L 347.538985 224.389214 
L 347.416601 221.142812 
L 347.110641 217.922175 
L 346.624324 214.733744 
L 345.94799 211.590402 
L 345.08486 208.498591 
L 344.047815 205.458309 
L 342.856179 202.472779 
L 341.516394 199.535557 
L 340.054225 196.646646 
L 336.807822 191.00409 
L 333.242577 185.538668 
L 329.477652 180.234279 
L 325.590343 175.068377 
L 319.593517 167.5031 
L 309.364773 155.11653 
L 296.929893 140.320923 
L 290.565914 133.045503 
L 279.72847 121.145249 
L 273.277534 113.953566 
L 269.081044 109.054977 
L 256.746003 94.108 
L 252.378819 89.380105 
L 250.085726 87.12888 
L 247.702454 84.964612 
L 245.216122 82.906624 
L 242.636392 80.958139 
L 239.963263 79.119155 
L 237.206398 77.396114 
L 234.378678 75.789016 
L 231.480105 74.304303 
L 228.52356 72.948414 
L 225.515485 71.71491 
L 222.462321 70.616673 
L 219.370509 69.650482 
L 216.249712 68.822778 
L 213.099929 68.12712 
L 209.927601 67.560288 
L 206.73595 67.11262 
L 203.524975 66.784115 
L 197.061156 66.45561 
L 190.558689 66.532905 
L 184.04012 66.974132 
L 177.556977 67.798615 
L 174.349223 68.37833 
L 171.173674 69.080429 
L 168.043215 69.921015 
L 164.964286 70.90653 
L 161.94977 72.043415 
L 158.999666 73.347773 
L 156.130078 74.822825 
L 153.350668 76.481453 
L 150.661436 78.310775 
L 148.078485 80.30435 
L 145.608257 82.449294 
L 143.260412 84.732726 
L 141.038173 87.141762 
L 138.957641 89.669962 
L 137.018817 92.307664 
L 135.234584 95.035544 
L 133.611383 97.850381 
L 132.158876 100.736072 
L 130.8674 103.689396 
L 129.727295 106.703912 
L 128.732118 109.769959 
L 127.872208 112.884315 
L 127.141123 116.04376 
L 126.525982 119.235411 
L 125.614541 125.702451 
L 125.070254 132.237124 
L 124.822265 138.79112 
L 124.802941 145.316131 
L 125.041268 154.939395 
L 125.276374 161.171328 
L 125.276374 161.171328 
" style="fill:none;stroke:#fea952;stroke-linecap:square;"/>
   </g>
   <g id="line2d_15">
    <path clip-path="url(#p66df216280)" d="M 252.013375 203.595982 
L 250.668233 205.547713 
L 249.436782 207.613759 
L 248.316457 209.804571 
L 247.322602 212.077027 
L 246.453326 214.448163 
L 245.71374 216.895757 
L 245.11146 219.388667 
L 244.647666 221.93274 
L 244.324732 224.506029 
L 244.14335 227.092262 
L 244.105776 229.680463 
L 244.210246 232.24759 
L 244.458084 234.7879 
L 244.848823 237.290445 
L 245.374405 239.728909 
L 246.037396 242.100733 
L 246.829344 244.383653 
L 247.755728 246.584577 
L 248.802507 248.678724 
L 249.988809 250.688426 
L 251.323217 252.621658 
L 252.819646 254.492763 
L 254.466925 256.290136 
L 256.263522 258.012107 
L 258.173988 259.632653 
L 260.207037 261.154957 
L 262.341396 262.567296 
L 264.569371 263.865978 
L 266.842288 265.030335 
L 269.204551 266.074408 
L 271.59345 266.981813 
L 274.032492 267.758353 
L 276.51842 268.405189 
L 279.068708 268.925134 
L 281.635441 269.317737 
L 284.250478 269.582865 
L 286.887946 269.722903 
L 289.550752 269.736719 
L 292.235208 269.625482 
L 294.920778 269.392073 
L 297.599297 269.037215 
L 300.240173 268.565705 
L 302.818791 267.980352 
L 305.341847 267.274696 
L 307.772824 266.460551 
L 310.122009 265.528912 
L 312.357613 264.495225 
L 314.491135 263.34877 
L 316.488601 262.112465 
L 318.387976 260.750718 
L 320.191595 259.25873 
L 321.9323 257.598522 
L 323.578324 255.812419 
L 325.13229 253.893485 
L 326.596013 251.837224 
L 327.94627 249.68784 
L 329.195199 247.414687 
L 330.323691 245.069592 
L 331.330747 242.64977 
L 332.208455 240.183859 
L 332.959897 237.649476 
L 333.573579 235.120774 
L 334.053342 232.540943 
L 334.396679 229.981828 
L 334.600507 227.415952 
L 334.665581 224.874521 
L 334.591794 222.361169 
L 334.375377 219.864624 
L 334.030008 217.443587 
L 333.539879 215.054333 
L 332.892114 212.657557 
L 332.083111 210.233865 
L 331.135391 207.819103 
L 330.022221 205.353121 
L 327.419185 200.408366 
L 324.346661 195.411066 
L 320.9295 190.40484 
L 317.306025 185.4488 
L 311.577826 178.087791 
L 303.555415 168.287754 
L 289.227624 151.138706 
L 280.985905 141.658486 
L 270.191492 129.805856 
L 263.54743 122.396619 
L 259.146626 117.256648 
L 245.256066 100.586051 
L 241.425119 96.665858 
L 239.488168 94.888601 
L 237.45173 93.186423 
L 235.334801 91.57166 
L 233.135526 90.043534 
L 230.840983 88.596183 
L 228.505589 87.254917 
L 226.109895 86.014166 
L 221.155085 83.837079 
L 218.619779 82.912808 
L 216.067957 82.102518 
L 213.47144 81.402176 
L 210.83396 80.808818 
L 205.42482 79.928274 
L 199.849522 79.443076 
L 194.155795 79.323896 
L 188.339838 79.550506 
L 182.631919 80.081887 
L 177.13033 80.957102 
L 174.514532 81.522243 
L 171.970434 82.190368 
L 169.510223 82.960348 
L 167.159183 83.825693 
L 164.889149 84.805262 
L 162.731685 85.885323 
L 160.596399 87.133188 
L 158.532647 88.509015 
L 156.52483 90.031596 
L 154.590031 91.684433 
L 152.729465 93.467547 
L 150.985527 95.327738 
L 149.337724 97.299767 
L 147.799998 99.359345 
L 146.394538 101.471032 
L 145.118433 103.642433 
L 143.962203 105.897614 
L 142.916962 108.246602 
L 141.98055 110.681072 
L 141.150005 113.198682 
L 140.423123 115.788553 
L 139.252635 121.233496 
L 138.438433 126.930405 
L 137.938505 132.843878 
L 137.704189 138.917911 
L 137.683857 145.111062 
L 137.915026 154.463568 
L 138.149385 160.675697 
L 138.149385 160.675697 
" style="fill:none;stroke:#ffffff;stroke-linecap:square;"/>
   </g>
   <g id="line2d_16">
    <path clip-path="url(#p66df216280)" d="M 230.631369 189.220655 
L 228.395162 192.595858 
L 226.386653 196.101514 
L 224.614846 199.701408 
L 223.057956 203.412896 
L 221.730757 207.193177 
L 220.621697 211.04515 
L 219.729602 214.961307 
L 219.059731 218.91648 
L 218.609713 222.900408 
L 218.378853 226.916481 
L 218.371338 230.937028 
L 218.588932 234.965765 
L 219.036752 238.982673 
L 219.715264 242.96005 
L 220.632528 246.917771 
L 221.792417 250.819748 
L 223.203385 254.66248 
L 224.866393 258.413294 
L 226.795483 262.077646 
L 228.977968 265.600998 
L 231.392382 268.949611 
L 234.011926 272.102701 
L 236.815568 275.058988 
L 239.779073 277.813703 
L 242.905683 280.386426 
L 246.16092 282.754652 
L 249.533851 284.923661 
L 253.006404 286.890705 
L 256.595046 288.670011 
L 260.236051 290.228212 
L 263.95348 291.588136 
L 267.717386 292.737537 
L 271.524582 293.681696 
L 275.331832 294.417799 
L 279.180608 294.965622 
L 283.026169 295.318857 
L 286.887946 295.488 
L 290.743711 295.474184 
L 294.590706 295.282681 
L 298.430147 294.917052 
L 302.263756 294.376573 
L 306.096362 293.656446 
L 309.92037 292.747424 
L 313.709763 291.643082 
L 317.46885 290.331607 
L 321.161581 288.80912 
L 324.793978 287.060177 
L 328.328777 285.082613 
L 331.774188 282.853513 
L 335.06648 280.389143 
L 338.177554 277.707185 
L 341.061684 274.858501 
L 343.757078 271.832972 
L 346.248233 268.656858 
L 348.52689 265.360421 
L 350.616273 261.931661 
L 352.491362 258.42055 
L 354.177707 254.807466 
L 355.663424 251.12096 
L 356.956426 247.351717 
L 358.040746 243.547886 
L 358.934323 239.667521 
L 359.61399 235.780312 
L 360.095135 231.83374 
L 360.361521 227.874605 
L 360.412389 223.903907 
L 360.241408 219.924455 
L 359.845904 215.979726 
L 359.218641 212.023901 
L 358.356102 208.126471 
L 357.277606 204.339624 
L 356.012518 200.682753 
L 354.576967 197.126454 
L 353.010567 193.717994 
L 351.324016 190.405504 
L 349.539481 187.197281 
L 345.76493 181.089824 
L 341.826156 175.33268 
L 337.790956 169.82165 
L 331.641445 161.92328 
L 323.386756 151.839103 
L 308.818991 134.40495 
L 302.347477 126.919064 
L 295.759499 119.581768 
L 283.007637 105.510514 
L 279.015462 100.853307 
L 266.33177 85.501425 
L 261.403847 80.18723 
L 258.746333 77.591902 
L 255.916741 75.040622 
L 252.980515 72.626825 
L 249.937983 70.344618 
L 246.791 68.194776 
L 243.571813 66.196045 
L 240.251768 64.323115 
L 236.850315 62.594439 
L 233.411253 61.02908 
L 229.875885 59.592742 
L 226.304863 58.320538 
L 222.673062 57.198446 
L 219.027984 56.24338 
L 215.365897 55.445423 
L 211.717021 54.802623 
L 208.04708 54.296965 
L 204.384463 53.93027 
L 200.74627 53.693589 
L 197.099458 53.573118 
L 189.859583 53.66934 
L 182.63141 54.168837 
L 178.949074 54.58136 
L 175.265919 55.121427 
L 171.568115 55.799558 
L 167.832817 56.638615 
L 164.115996 57.651663 
L 160.418348 58.852713 
L 156.740356 60.261137 
L 153.110182 61.890285 
L 149.528472 63.760328 
L 146.104938 65.829719 
L 142.790226 68.112535 
L 139.632141 70.577103 
L 136.626482 73.214155 
L 133.79136 75.997904 
L 131.090818 78.955786 
L 128.577557 82.040157 
L 126.237637 85.255983 
L 124.074631 88.600056 
L 122.104334 92.058328 
L 120.355548 95.574529 
L 118.817839 99.13219 
L 117.47404 102.726753 
L 116.314231 106.341235 
L 115.321293 109.980077 
L 114.49138 113.605717 
L 113.799328 117.237327 
L 113.237274 120.858165 
L 112.451818 128.054304 
L 112.038349 135.148532 
L 111.907611 142.114307 
L 112.059633 152.191109 
L 112.403363 161.666959 
L 112.403363 161.666959 
" style="fill:none;stroke:#ffffff;stroke-linecap:square;"/>
   </g>
   <g id="patch_3">
    <path d="M 57.6 307.584 
L 57.6 41.472 
" style="fill:none;stroke:#000000;stroke-linecap:square;stroke-linejoin:miter;stroke-width:0.8;"/>
   </g>
   <g id="patch_4">
    <path d="M 414.72 307.584 
L 414.72 41.472 
" style="fill:none;stroke:#000000;stroke-linecap:square;stroke-linejoin:miter;stroke-width:0.8;"/>
   </g>
   <g id="patch_5">
    <path d="M 57.6 307.584 
L 414.72 307.584 
" style="fill:none;stroke:#000000;stroke-linecap:square;stroke-linejoin:miter;stroke-width:0.8;"/>
   </g>
   <g id="patch_6">
    <path d="M 57.6 41.472 
L 414.72 41.472 
" style="fill:none;stroke:#000000;stroke-linecap:square;stroke-linejoin:miter;stroke-width:0.8;"/>
   </g>
  </g>
 </g>
 <defs>
  <clipPath id="p66df216280">
   <rect height="266.112" width="357.12" x="57.6" y="41.472"/>
  </clipPath>
 </defs>
</svg>
