<?xml version="1.0" encoding="utf-8" standalone="no"?>
<!DOCTYPE svg PUBLIC "-//W3C//DTD SVG 1.1//EN"
  "http://www.w3.org/Graphics/SVG/1.1/DTD/svg11.dtd">
<!-- Created with matplotlib (https://matplotlib.org/) -->
<svg height="345.6pt" version="1.1" viewBox="0 0 460.8 345.6" width="460.8pt" xmlns="http://www.w3.org/2000/svg" xmlns:xlink="http://www.w3.org/1999/xlink">
 <metadata>
  <rdf:RDF xmlns:cc="http://creativecommons.org/ns#" xmlns:dc="http://purl.org/dc/elements/1.1/" xmlns:rdf="http://www.w3.org/1999/02/22-rdf-syntax-ns#">
   <cc:Work>
    <dc:type rdf:resource="http://purl.org/dc/dcmitype/StillImage"/>
    <dc:date>2021-01-25T11:33:06.058830</dc:date>
    <dc:format>image/svg+xml</dc:format>
    <dc:creator>
     <cc:Agent>
      <dc:title>Matplotlib v3.3.3, https://matplotlib.org/</dc:title>
     </cc:Agent>
    </dc:creator>
   </cc:Work>
  </rdf:RDF>
 </metadata>
 <defs>
  <style type="text/css">*{stroke-linecap:butt;stroke-linejoin:round;}</style>
 </defs>
 <g id="figure_1">
  <g id="patch_1">
   <path d="M 0 345.6 
L 460.8 345.6 
L 460.8 0 
L 0 0 
z
" style="fill:#ffffff;"/>
  </g>
  <g id="axes_1">
   <g id="patch_2">
    <path d="M 57.6 307.584 
L 414.72 307.584 
L 414.72 41.472 
L 57.6 41.472 
z
" style="fill:#7d9051;"/>
   </g>
   <g id="matplotlib.axis_1">
    <g id="xtick_1">
     <g id="line2d_1">
      <defs>
       <path d="M 0 0 
L 0 3.5 
" id="mfe83a9d0e9" style="stroke:#000000;stroke-width:0.8;"/>
      </defs>
      <g>
       <use style="stroke:#000000;stroke-width:0.8;" x="95.742223" xlink:href="#mfe83a9d0e9" y="307.584"/>
      </g>
     </g>
     <g id="text_1">
      <!-- 0 -->
      <g transform="translate(92.560973 322.182437)scale(0.1 -0.1)">
       <defs>
        <path d="M 31.78125 66.40625 
Q 24.171875 66.40625 20.328125 58.90625 
Q 16.5 51.421875 16.5 36.375 
Q 16.5 21.390625 20.328125 13.890625 
Q 24.171875 6.390625 31.78125 6.390625 
Q 39.453125 6.390625 43.28125 13.890625 
Q 47.125 21.390625 47.125 36.375 
Q 47.125 51.421875 43.28125 58.90625 
Q 39.453125 66.40625 31.78125 66.40625 
z
M 31.78125 74.21875 
Q 44.046875 74.21875 50.515625 64.515625 
Q 56.984375 54.828125 56.984375 36.375 
Q 56.984375 17.96875 50.515625 8.265625 
Q 44.046875 -1.421875 31.78125 -1.421875 
Q 19.53125 -1.421875 13.0625 8.265625 
Q 6.59375 17.96875 6.59375 36.375 
Q 6.59375 54.828125 13.0625 64.515625 
Q 19.53125 74.21875 31.78125 74.21875 
z
" id="DejaVuSans-48"/>
       </defs>
       <use xlink:href="#DejaVuSans-48"/>
      </g>
     </g>
    </g>
    <g id="xtick_2">
     <g id="line2d_2">
      <g>
       <use style="stroke:#000000;stroke-width:0.8;" x="163.923179" xlink:href="#mfe83a9d0e9" y="307.584"/>
      </g>
     </g>
     <g id="text_2">
      <!-- 20 -->
      <g transform="translate(157.560679 322.182437)scale(0.1 -0.1)">
       <defs>
        <path d="M 19.1875 8.296875 
L 53.609375 8.296875 
L 53.609375 0 
L 7.328125 0 
L 7.328125 8.296875 
Q 12.9375 14.109375 22.625 23.890625 
Q 32.328125 33.6875 34.8125 36.53125 
Q 39.546875 41.84375 41.421875 45.53125 
Q 43.3125 49.21875 43.3125 52.78125 
Q 43.3125 58.59375 39.234375 62.25 
Q 35.15625 65.921875 28.609375 65.921875 
Q 23.96875 65.921875 18.8125 64.3125 
Q 13.671875 62.703125 7.8125 59.421875 
L 7.8125 69.390625 
Q 13.765625 71.78125 18.9375 73 
Q 24.125 74.21875 28.421875 74.21875 
Q 39.75 74.21875 46.484375 68.546875 
Q 53.21875 62.890625 53.21875 53.421875 
Q 53.21875 48.921875 51.53125 44.890625 
Q 49.859375 40.875 45.40625 35.40625 
Q 44.1875 33.984375 37.640625 27.21875 
Q 31.109375 20.453125 19.1875 8.296875 
z
" id="DejaVuSans-50"/>
       </defs>
       <use xlink:href="#DejaVuSans-50"/>
       <use x="63.623047" xlink:href="#DejaVuSans-48"/>
      </g>
     </g>
    </g>
    <g id="xtick_3">
     <g id="line2d_3">
      <g>
       <use style="stroke:#000000;stroke-width:0.8;" x="232.104135" xlink:href="#mfe83a9d0e9" y="307.584"/>
      </g>
     </g>
     <g id="text_3">
      <!-- 40 -->
      <g transform="translate(225.741635 322.182437)scale(0.1 -0.1)">
       <defs>
        <path d="M 37.796875 64.3125 
L 12.890625 25.390625 
L 37.796875 25.390625 
z
M 35.203125 72.90625 
L 47.609375 72.90625 
L 47.609375 25.390625 
L 58.015625 25.390625 
L 58.015625 17.1875 
L 47.609375 17.1875 
L 47.609375 0 
L 37.796875 0 
L 37.796875 17.1875 
L 4.890625 17.1875 
L 4.890625 26.703125 
z
" id="DejaVuSans-52"/>
       </defs>
       <use xlink:href="#DejaVuSans-52"/>
       <use x="63.623047" xlink:href="#DejaVuSans-48"/>
      </g>
     </g>
    </g>
    <g id="xtick_4">
     <g id="line2d_4">
      <g>
       <use style="stroke:#000000;stroke-width:0.8;" x="300.285091" xlink:href="#mfe83a9d0e9" y="307.584"/>
      </g>
     </g>
     <g id="text_4">
      <!-- 60 -->
      <g transform="translate(293.922591 322.182437)scale(0.1 -0.1)">
       <defs>
        <path d="M 33.015625 40.375 
Q 26.375 40.375 22.484375 35.828125 
Q 18.609375 31.296875 18.609375 23.390625 
Q 18.609375 15.53125 22.484375 10.953125 
Q 26.375 6.390625 33.015625 6.390625 
Q 39.65625 6.390625 43.53125 10.953125 
Q 47.40625 15.53125 47.40625 23.390625 
Q 47.40625 31.296875 43.53125 35.828125 
Q 39.65625 40.375 33.015625 40.375 
z
M 52.59375 71.296875 
L 52.59375 62.3125 
Q 48.875 64.0625 45.09375 64.984375 
Q 41.3125 65.921875 37.59375 65.921875 
Q 27.828125 65.921875 22.671875 59.328125 
Q 17.53125 52.734375 16.796875 39.40625 
Q 19.671875 43.65625 24.015625 45.921875 
Q 28.375 48.1875 33.59375 48.1875 
Q 44.578125 48.1875 50.953125 41.515625 
Q 57.328125 34.859375 57.328125 23.390625 
Q 57.328125 12.15625 50.6875 5.359375 
Q 44.046875 -1.421875 33.015625 -1.421875 
Q 20.359375 -1.421875 13.671875 8.265625 
Q 6.984375 17.96875 6.984375 36.375 
Q 6.984375 53.65625 15.1875 63.9375 
Q 23.390625 74.21875 37.203125 74.21875 
Q 40.921875 74.21875 44.703125 73.484375 
Q 48.484375 72.75 52.59375 71.296875 
z
" id="DejaVuSans-54"/>
       </defs>
       <use xlink:href="#DejaVuSans-54"/>
       <use x="63.623047" xlink:href="#DejaVuSans-48"/>
      </g>
     </g>
    </g>
    <g id="xtick_5">
     <g id="line2d_5">
      <g>
       <use style="stroke:#000000;stroke-width:0.8;" x="368.466048" xlink:href="#mfe83a9d0e9" y="307.584"/>
      </g>
     </g>
     <g id="text_5">
      <!-- 80 -->
      <g transform="translate(362.103548 322.182437)scale(0.1 -0.1)">
       <defs>
        <path d="M 31.78125 34.625 
Q 24.75 34.625 20.71875 30.859375 
Q 16.703125 27.09375 16.703125 20.515625 
Q 16.703125 13.921875 20.71875 10.15625 
Q 24.75 6.390625 31.78125 6.390625 
Q 38.8125 6.390625 42.859375 10.171875 
Q 46.921875 13.96875 46.921875 20.515625 
Q 46.921875 27.09375 42.890625 30.859375 
Q 38.875 34.625 31.78125 34.625 
z
M 21.921875 38.8125 
Q 15.578125 40.375 12.03125 44.71875 
Q 8.5 49.078125 8.5 55.328125 
Q 8.5 64.0625 14.71875 69.140625 
Q 20.953125 74.21875 31.78125 74.21875 
Q 42.671875 74.21875 48.875 69.140625 
Q 55.078125 64.0625 55.078125 55.328125 
Q 55.078125 49.078125 51.53125 44.71875 
Q 48 40.375 41.703125 38.8125 
Q 48.828125 37.15625 52.796875 32.3125 
Q 56.78125 27.484375 56.78125 20.515625 
Q 56.78125 9.90625 50.3125 4.234375 
Q 43.84375 -1.421875 31.78125 -1.421875 
Q 19.734375 -1.421875 13.25 4.234375 
Q 6.78125 9.90625 6.78125 20.515625 
Q 6.78125 27.484375 10.78125 32.3125 
Q 14.796875 37.15625 21.921875 38.8125 
z
M 18.3125 54.390625 
Q 18.3125 48.734375 21.84375 45.5625 
Q 25.390625 42.390625 31.78125 42.390625 
Q 38.140625 42.390625 41.71875 45.5625 
Q 45.3125 48.734375 45.3125 54.390625 
Q 45.3125 60.0625 41.71875 63.234375 
Q 38.140625 66.40625 31.78125 66.40625 
Q 25.390625 66.40625 21.84375 63.234375 
Q 18.3125 60.0625 18.3125 54.390625 
z
" id="DejaVuSans-56"/>
       </defs>
       <use xlink:href="#DejaVuSans-56"/>
       <use x="63.623047" xlink:href="#DejaVuSans-48"/>
      </g>
     </g>
    </g>
   </g>
   <g id="matplotlib.axis_2">
    <g id="ytick_1">
     <g id="line2d_6">
      <defs>
       <path d="M 0 0 
L -3.5 0 
" id="m6bfa861e4b" style="stroke:#000000;stroke-width:0.8;"/>
      </defs>
      <g>
       <use style="stroke:#000000;stroke-width:0.8;" x="57.6" xlink:href="#m6bfa861e4b" y="279.81074"/>
      </g>
     </g>
     <g id="text_6">
      <!-- 10 -->
      <g transform="translate(37.875 283.609959)scale(0.1 -0.1)">
       <defs>
        <path d="M 12.40625 8.296875 
L 28.515625 8.296875 
L 28.515625 63.921875 
L 10.984375 60.40625 
L 10.984375 69.390625 
L 28.421875 72.90625 
L 38.28125 72.90625 
L 38.28125 8.296875 
L 54.390625 8.296875 
L 54.390625 0 
L 12.40625 0 
z
" id="DejaVuSans-49"/>
       </defs>
       <use xlink:href="#DejaVuSans-49"/>
       <use x="63.623047" xlink:href="#DejaVuSans-48"/>
      </g>
     </g>
    </g>
    <g id="ytick_2">
     <g id="line2d_7">
      <g>
       <use style="stroke:#000000;stroke-width:0.8;" x="57.6" xlink:href="#m6bfa861e4b" y="245.720262"/>
      </g>
     </g>
     <g id="text_7">
      <!-- 20 -->
      <g transform="translate(37.875 249.519481)scale(0.1 -0.1)">
       <use xlink:href="#DejaVuSans-50"/>
       <use x="63.623047" xlink:href="#DejaVuSans-48"/>
      </g>
     </g>
    </g>
    <g id="ytick_3">
     <g id="line2d_8">
      <g>
       <use style="stroke:#000000;stroke-width:0.8;" x="57.6" xlink:href="#m6bfa861e4b" y="211.629784"/>
      </g>
     </g>
     <g id="text_8">
      <!-- 30 -->
      <g transform="translate(37.875 215.429003)scale(0.1 -0.1)">
       <defs>
        <path d="M 40.578125 39.3125 
Q 47.65625 37.796875 51.625 33 
Q 55.609375 28.21875 55.609375 21.1875 
Q 55.609375 10.40625 48.1875 4.484375 
Q 40.765625 -1.421875 27.09375 -1.421875 
Q 22.515625 -1.421875 17.65625 -0.515625 
Q 12.796875 0.390625 7.625 2.203125 
L 7.625 11.71875 
Q 11.71875 9.328125 16.59375 8.109375 
Q 21.484375 6.890625 26.8125 6.890625 
Q 36.078125 6.890625 40.9375 10.546875 
Q 45.796875 14.203125 45.796875 21.1875 
Q 45.796875 27.640625 41.28125 31.265625 
Q 36.765625 34.90625 28.71875 34.90625 
L 20.21875 34.90625 
L 20.21875 43.015625 
L 29.109375 43.015625 
Q 36.375 43.015625 40.234375 45.921875 
Q 44.09375 48.828125 44.09375 54.296875 
Q 44.09375 59.90625 40.109375 62.90625 
Q 36.140625 65.921875 28.71875 65.921875 
Q 24.65625 65.921875 20.015625 65.03125 
Q 15.375 64.15625 9.8125 62.3125 
L 9.8125 71.09375 
Q 15.4375 72.65625 20.34375 73.4375 
Q 25.25 74.21875 29.59375 74.21875 
Q 40.828125 74.21875 47.359375 69.109375 
Q 53.90625 64.015625 53.90625 55.328125 
Q 53.90625 49.265625 50.4375 45.09375 
Q 46.96875 40.921875 40.578125 39.3125 
z
" id="DejaVuSans-51"/>
       </defs>
       <use xlink:href="#DejaVuSans-51"/>
       <use x="63.623047" xlink:href="#DejaVuSans-48"/>
      </g>
     </g>
    </g>
    <g id="ytick_4">
     <g id="line2d_9">
      <g>
       <use style="stroke:#000000;stroke-width:0.8;" x="57.6" xlink:href="#m6bfa861e4b" y="177.539306"/>
      </g>
     </g>
     <g id="text_9">
      <!-- 40 -->
      <g transform="translate(37.875 181.338525)scale(0.1 -0.1)">
       <use xlink:href="#DejaVuSans-52"/>
       <use x="63.623047" xlink:href="#DejaVuSans-48"/>
      </g>
     </g>
    </g>
    <g id="ytick_5">
     <g id="line2d_10">
      <g>
       <use style="stroke:#000000;stroke-width:0.8;" x="57.6" xlink:href="#m6bfa861e4b" y="143.448828"/>
      </g>
     </g>
     <g id="text_10">
      <!-- 50 -->
      <g transform="translate(37.875 147.248046)scale(0.1 -0.1)">
       <defs>
        <path d="M 10.796875 72.90625 
L 49.515625 72.90625 
L 49.515625 64.59375 
L 19.828125 64.59375 
L 19.828125 46.734375 
Q 21.96875 47.46875 24.109375 47.828125 
Q 26.265625 48.1875 28.421875 48.1875 
Q 40.625 48.1875 47.75 41.5 
Q 54.890625 34.8125 54.890625 23.390625 
Q 54.890625 11.625 47.5625 5.09375 
Q 40.234375 -1.421875 26.90625 -1.421875 
Q 22.3125 -1.421875 17.546875 -0.640625 
Q 12.796875 0.140625 7.71875 1.703125 
L 7.71875 11.625 
Q 12.109375 9.234375 16.796875 8.0625 
Q 21.484375 6.890625 26.703125 6.890625 
Q 35.15625 6.890625 40.078125 11.328125 
Q 45.015625 15.765625 45.015625 23.390625 
Q 45.015625 31 40.078125 35.4375 
Q 35.15625 39.890625 26.703125 39.890625 
Q 22.75 39.890625 18.8125 39.015625 
Q 14.890625 38.140625 10.796875 36.28125 
z
" id="DejaVuSans-53"/>
       </defs>
       <use xlink:href="#DejaVuSans-53"/>
       <use x="63.623047" xlink:href="#DejaVuSans-48"/>
      </g>
     </g>
    </g>
    <g id="ytick_6">
     <g id="line2d_11">
      <g>
       <use style="stroke:#000000;stroke-width:0.8;" x="57.6" xlink:href="#m6bfa861e4b" y="109.35835"/>
      </g>
     </g>
     <g id="text_11">
      <!-- 60 -->
      <g transform="translate(37.875 113.157568)scale(0.1 -0.1)">
       <use xlink:href="#DejaVuSans-54"/>
       <use x="63.623047" xlink:href="#DejaVuSans-48"/>
      </g>
     </g>
    </g>
    <g id="ytick_7">
     <g id="line2d_12">
      <g>
       <use style="stroke:#000000;stroke-width:0.8;" x="57.6" xlink:href="#m6bfa861e4b" y="75.267871"/>
      </g>
     </g>
     <g id="text_12">
      <!-- 70 -->
      <g transform="translate(37.875 79.06709)scale(0.1 -0.1)">
       <defs>
        <path d="M 8.203125 72.90625 
L 55.078125 72.90625 
L 55.078125 68.703125 
L 28.609375 0 
L 18.3125 0 
L 43.21875 64.59375 
L 8.203125 64.59375 
z
" id="DejaVuSans-55"/>
       </defs>
       <use xlink:href="#DejaVuSans-55"/>
       <use x="63.623047" xlink:href="#DejaVuSans-48"/>
      </g>
     </g>
    </g>
   </g>
   <g id="line2d_13">
    <path clip-path="url(#p9e0a4795ae)" d="M 239.852901 170.04281 
L 237.391568 172.408689 
L 235.049552 174.917748 
L 232.83708 177.556351 
L 230.757561 180.314271 
L 228.814404 183.184689 
L 227.011018 186.157379 
L 225.354221 189.222113 
L 223.85083 192.372073 
L 222.500847 195.593623 
L 221.314499 198.876536 
L 220.291785 202.213994 
L 219.436114 205.599178 
L 218.757713 209.015044 
L 218.259992 212.454773 
L 217.94636 215.914957 
L 217.820225 219.375141 
L 217.888406 222.835324 
L 218.154312 226.278462 
L 218.62476 229.701146 
L 219.303161 233.08974 
L 220.189513 236.434016 
L 221.280408 239.727156 
L 222.569028 242.955524 
L 224.041737 246.105484 
L 225.691716 249.173627 
L 227.515557 252.139499 
L 229.503032 254.99969 
L 231.640505 257.743974 
L 233.927976 260.351895 
L 236.351809 262.823455 
L 238.908595 265.145016 
L 241.584697 267.31658 
L 244.376707 269.338145 
L 247.274398 271.213122 
L 250.267542 272.9381 
L 253.349321 274.51308 
L 256.512918 275.941471 
L 259.748104 277.223273 
L 263.048062 278.355077 
L 266.402565 279.340292 
L 269.804795 280.175508 
L 273.244524 280.853909 
L 276.704708 281.365266 
L 280.178527 281.702762 
L 283.655756 281.85276 
L 287.119349 281.811851 
L 290.562487 281.5664 
L 293.974944 281.112996 
L 297.339674 280.438005 
L 300.64986 279.538016 
L 303.891864 278.402803 
L 307.062278 277.05282 
L 310.147467 275.491477 
L 313.140611 273.735817 
L 316.034892 271.799478 
L 318.816675 269.689277 
L 321.48596 267.42226 
L 324.0257 265.008655 
L 326.432488 262.458687 
L 328.699505 259.785993 
L 330.816524 257.00421 
L 332.776726 254.120156 
L 334.580112 251.140648 
L 336.219864 248.075914 
L 337.692573 244.932772 
L 338.99142 241.724858 
L 340.112997 238.455581 
L 341.053894 235.135169 
L 341.810703 231.777256 
L 342.373196 228.381845 
L 342.748191 224.965979 
L 342.939098 221.529659 
L 342.959552 218.083111 
L 342.812963 214.629746 
L 342.509558 211.186608 
L 342.059563 207.750287 
L 341.473207 204.331013 
L 340.753898 200.93901 
L 339.911863 197.577689 
L 338.95733 194.257276 
L 336.73804 187.742586 
L 334.147163 181.381303 
L 331.239246 175.163199 
L 328.065422 169.071231 
L 324.683647 163.09517 
L 321.124601 157.217972 
L 317.40533 151.449863 
L 313.532651 145.787434 
L 309.509975 140.230687 
L 305.350936 134.789846 
L 298.8942 126.805856 
L 290.034085 116.343489 
L 274.304738 98.091447 
L 269.569571 93.124464 
L 267.108238 90.744948 
L 264.571907 88.450659 
L 261.94694 86.251823 
L 259.223111 84.165486 
L 256.407237 82.198466 
L 253.499319 80.343944 
L 250.512993 78.612147 
L 247.455077 76.999668 
L 244.328981 75.513323 
L 241.148339 74.149704 
L 237.919971 72.912219 
L 234.647285 71.80087 
L 231.347327 70.822473 
L 228.016687 69.97362 
L 224.669002 69.250902 
L 221.297454 68.647501 
L 214.503221 67.781602 
L 207.647626 67.314563 
L 200.737486 67.202064 
L 193.786438 67.389562 
L 186.835389 67.900919 
L 183.382024 68.313414 
L 179.95934 68.848634 
L 176.574155 69.523626 
L 173.240107 70.352024 
L 169.960603 71.354285 
L 166.752689 72.540633 
L 163.619774 73.928116 
L 160.575494 75.526959 
L 157.630077 77.337163 
L 154.793749 79.338275 
L 152.073329 81.516656 
L 149.485861 83.86549 
L 147.034756 86.360913 
L 144.737058 88.999516 
L 142.599585 91.760845 
L 140.629155 94.631263 
L 138.842814 97.600544 
L 137.24738 100.65505 
L 135.832625 103.781147 
L 134.591732 106.978834 
L 133.514472 110.237884 
L 132.587211 113.548069 
L 131.80313 116.90939 
L 131.152002 120.308211 
L 130.620191 123.741122 
L 129.873609 130.678535 
L 129.488387 137.663674 
L 129.372479 144.641994 
L 129.532705 154.968 
L 129.832701 164.963328 
L 129.832701 164.963328 
" style="fill:none;stroke:#fea952;stroke-linecap:square;"/>
   </g>
   <g id="line2d_14">
    <path clip-path="url(#p9e0a4795ae)" d="M 249.302631 179.873797 
L 247.359927 181.713394 
L 245.498559 183.679253 
L 243.725002 185.766032 
L 242.049629 187.958544 
L 240.472991 190.257387 
L 239.006562 192.642178 
L 237.660625 195.095624 
L 236.427427 197.642266 
L 235.325356 200.228025 
L 234.352283 202.871771 
L 233.512174 205.555703 
L 232.811081 208.255484 
L 232.253354 210.967833 
L 231.840511 213.685717 
L 231.5735 216.41171 
L 231.45377 219.106499 
L 231.484114 221.785358 
L 231.663488 224.421623 
L 231.995628 227.024282 
L 232.484262 229.596278 
L 233.133957 232.146001 
L 233.94498 234.672026 
L 234.921813 237.180196 
L 236.051436 239.646935 
L 237.307383 242.03066 
L 238.713656 244.358221 
L 240.26103 246.620479 
L 241.891985 248.752152 
L 243.663762 250.804111 
L 245.518472 252.728011 
L 247.500873 254.556416 
L 249.581847 256.271612 
L 251.784586 257.889606 
L 254.083272 259.398514 
L 256.47305 260.79572 
L 258.96072 262.08497 
L 261.535787 263.26407 
L 264.172015 264.32464 
L 266.890697 265.271504 
L 269.653597 266.097312 
L 272.443365 266.797031 
L 275.238073 267.364228 
L 278.023311 267.792978 
L 280.766209 268.07924 
L 283.49471 268.21752 
L 286.149724 268.210177 
L 288.766469 268.049002 
L 291.292852 267.743176 
L 293.762076 267.27949 
L 296.14333 266.668016 
L 298.549627 265.85664 
L 300.904906 264.885961 
L 303.248285 263.729376 
L 305.558139 262.402158 
L 307.793654 260.935422 
L 309.989457 259.295725 
L 312.092297 257.537686 
L 314.109069 255.64884 
L 316.03338 253.638015 
L 317.848269 251.527883 
L 319.53866 249.338996 
L 321.110963 247.059299 
L 322.556705 244.707657 
L 323.871888 242.290311 
L 325.053105 239.815198 
L 326.093146 237.299903 
L 326.993371 234.737905 
L 327.751378 232.137038 
L 328.357863 229.548623 
L 328.818439 226.893798 
L 329.132995 224.209579 
L 329.303147 221.448733 
L 329.335629 218.661422 
L 329.229407 215.826713 
L 328.988804 212.957183 
L 328.619557 210.055054 
L 328.133655 207.159802 
L 326.806449 201.345159 
L 325.058404 195.576089 
L 322.922037 189.851038 
L 320.444337 184.174056 
L 317.648628 178.517501 
L 314.583097 172.878939 
L 311.311202 167.289628 
L 307.873503 161.787059 
L 304.281795 156.375741 
L 300.54379 151.061723 
L 296.66695 145.846805 
L 290.551489 138.122678 
L 284.102374 130.401279 
L 266.453978 109.759578 
L 262.209392 105.10535 
L 257.960603 100.857638 
L 253.655087 97.077298 
L 251.414172 95.344314 
L 249.074966 93.695574 
L 246.658602 92.140142 
L 244.152566 90.674099 
L 241.59972 89.31472 
L 238.955801 88.046265 
L 236.26765 86.882519 
L 233.535266 85.824232 
L 230.771103 84.874543 
L 227.979635 84.036268 
L 222.26672 82.673821 
L 216.402995 81.712795 
L 210.336869 81.117958 
L 204.130497 80.855135 
L 197.757988 80.890656 
L 191.493432 81.181889 
L 185.488774 81.785879 
L 182.625847 82.221572 
L 179.862311 82.757437 
L 177.225543 83.392807 
L 174.69045 84.1439 
L 172.274501 85.008805 
L 169.960192 86.000597 
L 167.715434 87.144488 
L 165.49121 88.479349 
L 163.317089 89.982446 
L 161.238738 91.613239 
L 159.214102 93.420962 
L 157.318406 95.315926 
L 155.520141 97.346421 
L 153.841829 99.478205 
L 152.313799 101.66083 
L 150.929567 103.913714 
L 149.670574 106.277325 
L 148.545176 108.714376 
L 147.538952 111.258459 
L 146.645213 113.916114 
L 145.866895 116.645764 
L 145.195775 119.475083 
L 144.155748 125.394727 
L 143.479833 131.582073 
L 143.120524 137.996165 
L 143.008433 144.561546 
L 143.163061 154.56913 
L 143.462713 164.552871 
L 143.462713 164.552871 
" style="fill:none;stroke:#ffffff;stroke-linecap:square;"/>
   </g>
   <g id="line2d_15">
    <path clip-path="url(#p9e0a4795ae)" d="M 230.403171 160.211822 
L 227.423209 163.103984 
L 224.600546 166.156243 
L 221.949159 169.34667 
L 219.465494 172.669997 
L 217.155817 176.111991 
L 215.015473 179.672579 
L 213.047816 183.348602 
L 211.274234 187.10188 
L 209.676339 190.959221 
L 208.276715 194.881301 
L 207.071395 198.872284 
L 206.061146 202.942872 
L 205.262072 207.062256 
L 204.679473 211.22383 
L 204.319219 215.418204 
L 204.18668 219.643782 
L 204.292698 223.88529 
L 204.645135 228.135301 
L 205.253892 232.37801 
L 206.122059 236.583202 
L 207.245069 240.72203 
L 208.615837 244.782286 
L 210.216243 248.730852 
L 212.032039 252.564033 
L 214.076049 256.316595 
L 216.317457 259.920777 
L 218.745033 263.378901 
L 221.389024 266.735795 
L 224.19219 269.89968 
L 227.185145 272.918899 
L 230.316316 275.733617 
L 233.587547 278.361547 
L 236.968829 280.786684 
L 240.465524 283.027729 
L 244.062034 285.080479 
L 247.737922 286.94119 
L 251.490048 288.618872 
L 255.324193 290.121905 
L 259.205428 291.438649 
L 263.151533 292.583271 
L 267.166225 293.553986 
L 271.250975 294.343589 
L 275.386105 294.937554 
L 279.590846 295.326283 
L 283.816802 295.488 
L 288.088973 295.413525 
L 292.358505 295.083797 
L 296.657036 294.482817 
L 300.917272 293.596519 
L 305.156389 292.408016 
L 309.234101 290.948967 
L 313.219651 289.21968 
L 317.046649 287.253577 
L 320.723082 285.069476 
L 324.276131 282.663533 
L 327.643894 280.082829 
L 330.879622 277.306835 
L 333.942332 274.36847 
L 336.831596 271.279359 
L 339.550741 268.044103 
L 342.094387 264.669425 
L 344.442489 261.181012 
L 346.60352 257.573639 
L 348.56784 253.861517 
L 350.332041 250.050346 
L 351.889695 246.149813 
L 353.232623 242.173258 
L 354.35641 238.133299 
L 355.263543 234.00589 
L 355.927952 229.869892 
L 356.363387 225.722379 
L 356.575049 221.610584 
L 356.583475 217.504801 
L 356.396518 213.432779 
L 356.030311 209.416033 
L 355.499569 205.445521 
L 354.81276 201.502223 
L 353.981367 197.625435 
L 353.017277 193.810219 
L 351.93106 190.058702 
L 350.735828 186.386274 
L 349.432247 182.762343 
L 346.565265 175.747791 
L 343.392211 168.97845 
L 339.984959 162.447761 
L 336.398013 156.115247 
L 332.634502 149.905799 
L 328.711591 143.826599 
L 324.628876 137.861559 
L 320.396082 132.018598 
L 316.042611 126.32617 
L 309.354207 118.057487 
L 300.397951 107.481436 
L 284.286149 88.800744 
L 279.047493 83.320653 
L 276.255873 80.632259 
L 273.328261 77.997336 
L 270.238792 75.426349 
L 267.032049 72.986659 
L 263.739508 70.701357 
L 260.340037 68.547745 
L 256.87342 66.550196 
L 253.310435 64.684616 
L 249.702161 62.98038 
L 246.029028 61.416888 
L 242.304675 60.000206 
L 238.523467 58.727197 
L 234.715018 57.608679 
L 230.894255 56.644505 
L 227.071284 55.827983 
L 223.239208 55.150268 
L 219.414725 54.607218 
L 211.824206 53.886163 
L 204.264842 53.583084 
L 196.769345 53.636199 
L 189.118168 54.013139 
L 185.218081 54.360977 
L 181.275274 54.840949 
L 177.292833 55.475697 
L 173.286 56.289815 
L 169.25467 57.311242 
L 165.230756 58.564669 
L 161.230876 60.072462 
L 157.279355 61.855634 
L 153.435554 63.90943 
L 149.768943 66.194978 
L 146.270409 68.694103 
L 142.90792 71.420073 
L 139.75762 74.310018 
L 136.751106 77.4059 
L 133.953975 80.652611 
L 131.35734 84.043484 
L 128.944512 87.601696 
L 126.756061 91.287374 
L 124.824186 95.032776 
L 123.120074 98.847918 
L 121.644511 102.699209 
L 120.383732 106.559654 
L 119.307528 110.450374 
L 118.410486 114.343698 
L 117.67655 118.220653 
L 117.084634 122.087517 
L 116.267385 129.774996 
L 115.85625 137.331182 
L 115.736525 144.722442 
L 115.902348 155.36687 
L 116.202688 165.373786 
L 116.202688 165.373786 
" style="fill:none;stroke:#ffffff;stroke-linecap:square;"/>
   </g>
   <g id="patch_3">
    <path d="M 57.6 307.584 
L 57.6 41.472 
" style="fill:none;stroke:#000000;stroke-linecap:square;stroke-linejoin:miter;stroke-width:0.8;"/>
   </g>
   <g id="patch_4">
    <path d="M 414.72 307.584 
L 414.72 41.472 
" style="fill:none;stroke:#000000;stroke-linecap:square;stroke-linejoin:miter;stroke-width:0.8;"/>
   </g>
   <g id="patch_5">
    <path d="M 57.6 307.584 
L 414.72 307.584 
" style="fill:none;stroke:#000000;stroke-linecap:square;stroke-linejoin:miter;stroke-width:0.8;"/>
   </g>
   <g id="patch_6">
    <path d="M 57.6 41.472 
L 414.72 41.472 
" style="fill:none;stroke:#000000;stroke-linecap:square;stroke-linejoin:miter;stroke-width:0.8;"/>
   </g>
  </g>
 </g>
 <defs>
  <clipPath id="p9e0a4795ae">
   <rect height="266.112" width="357.12" x="57.6" y="41.472"/>
  </clipPath>
 </defs>
</svg>
