<?xml version="1.0" encoding="utf-8" standalone="no"?>
<!DOCTYPE svg PUBLIC "-//W3C//DTD SVG 1.1//EN"
  "http://www.w3.org/Graphics/SVG/1.1/DTD/svg11.dtd">
<!-- Created with matplotlib (https://matplotlib.org/) -->
<svg height="345.6pt" version="1.1" viewBox="0 0 460.8 345.6" width="460.8pt" xmlns="http://www.w3.org/2000/svg" xmlns:xlink="http://www.w3.org/1999/xlink">
 <metadata>
  <rdf:RDF xmlns:cc="http://creativecommons.org/ns#" xmlns:dc="http://purl.org/dc/elements/1.1/" xmlns:rdf="http://www.w3.org/1999/02/22-rdf-syntax-ns#">
   <cc:Work>
    <dc:type rdf:resource="http://purl.org/dc/dcmitype/StillImage"/>
    <dc:date>2021-01-22T09:33:06.085194</dc:date>
    <dc:format>image/svg+xml</dc:format>
    <dc:creator>
     <cc:Agent>
      <dc:title>Matplotlib v3.3.3, https://matplotlib.org/</dc:title>
     </cc:Agent>
    </dc:creator>
   </cc:Work>
  </rdf:RDF>
 </metadata>
 <defs>
  <style type="text/css">*{stroke-linecap:butt;stroke-linejoin:round;}</style>
 </defs>
 <g id="figure_1">
  <g id="patch_1">
   <path d="M 0 345.6 
L 460.8 345.6 
L 460.8 0 
L 0 0 
z
" style="fill:#ffffff;"/>
  </g>
  <g id="axes_1">
   <g id="patch_2">
    <path d="M 57.6 307.584 
L 414.72 307.584 
L 414.72 41.472 
L 57.6 41.472 
z
" style="fill:#7d9051;"/>
   </g>
   <g id="matplotlib.axis_1">
    <g id="xtick_1">
     <g id="line2d_1">
      <defs>
       <path d="M 0 0 
L 0 3.5 
" id="mc81b6fab30" style="stroke:#000000;stroke-width:0.8;"/>
      </defs>
      <g>
       <use style="stroke:#000000;stroke-width:0.8;" x="61.47352" xlink:href="#mc81b6fab30" y="307.584"/>
      </g>
     </g>
     <g id="text_1">
      <!-- 0 -->
      <g transform="translate(58.29227 322.182437)scale(0.1 -0.1)">
       <defs>
        <path d="M 31.78125 66.40625 
Q 24.171875 66.40625 20.328125 58.90625 
Q 16.5 51.421875 16.5 36.375 
Q 16.5 21.390625 20.328125 13.890625 
Q 24.171875 6.390625 31.78125 6.390625 
Q 39.453125 6.390625 43.28125 13.890625 
Q 47.125 21.390625 47.125 36.375 
Q 47.125 51.421875 43.28125 58.90625 
Q 39.453125 66.40625 31.78125 66.40625 
z
M 31.78125 74.21875 
Q 44.046875 74.21875 50.515625 64.515625 
Q 56.984375 54.828125 56.984375 36.375 
Q 56.984375 17.96875 50.515625 8.265625 
Q 44.046875 -1.421875 31.78125 -1.421875 
Q 19.53125 -1.421875 13.0625 8.265625 
Q 6.59375 17.96875 6.59375 36.375 
Q 6.59375 54.828125 13.0625 64.515625 
Q 19.53125 74.21875 31.78125 74.21875 
z
" id="DejaVuSans-48"/>
       </defs>
       <use xlink:href="#DejaVuSans-48"/>
      </g>
     </g>
    </g>
    <g id="xtick_2">
     <g id="line2d_2">
      <g>
       <use style="stroke:#000000;stroke-width:0.8;" x="108.887619" xlink:href="#mc81b6fab30" y="307.584"/>
      </g>
     </g>
     <g id="text_2">
      <!-- 20 -->
      <g transform="translate(102.525119 322.182437)scale(0.1 -0.1)">
       <defs>
        <path d="M 19.1875 8.296875 
L 53.609375 8.296875 
L 53.609375 0 
L 7.328125 0 
L 7.328125 8.296875 
Q 12.9375 14.109375 22.625 23.890625 
Q 32.328125 33.6875 34.8125 36.53125 
Q 39.546875 41.84375 41.421875 45.53125 
Q 43.3125 49.21875 43.3125 52.78125 
Q 43.3125 58.59375 39.234375 62.25 
Q 35.15625 65.921875 28.609375 65.921875 
Q 23.96875 65.921875 18.8125 64.3125 
Q 13.671875 62.703125 7.8125 59.421875 
L 7.8125 69.390625 
Q 13.765625 71.78125 18.9375 73 
Q 24.125 74.21875 28.421875 74.21875 
Q 39.75 74.21875 46.484375 68.546875 
Q 53.21875 62.890625 53.21875 53.421875 
Q 53.21875 48.921875 51.53125 44.890625 
Q 49.859375 40.875 45.40625 35.40625 
Q 44.1875 33.984375 37.640625 27.21875 
Q 31.109375 20.453125 19.1875 8.296875 
z
" id="DejaVuSans-50"/>
       </defs>
       <use xlink:href="#DejaVuSans-50"/>
       <use x="63.623047" xlink:href="#DejaVuSans-48"/>
      </g>
     </g>
    </g>
    <g id="xtick_3">
     <g id="line2d_3">
      <g>
       <use style="stroke:#000000;stroke-width:0.8;" x="156.301717" xlink:href="#mc81b6fab30" y="307.584"/>
      </g>
     </g>
     <g id="text_3">
      <!-- 40 -->
      <g transform="translate(149.939217 322.182437)scale(0.1 -0.1)">
       <defs>
        <path d="M 37.796875 64.3125 
L 12.890625 25.390625 
L 37.796875 25.390625 
z
M 35.203125 72.90625 
L 47.609375 72.90625 
L 47.609375 25.390625 
L 58.015625 25.390625 
L 58.015625 17.1875 
L 47.609375 17.1875 
L 47.609375 0 
L 37.796875 0 
L 37.796875 17.1875 
L 4.890625 17.1875 
L 4.890625 26.703125 
z
" id="DejaVuSans-52"/>
       </defs>
       <use xlink:href="#DejaVuSans-52"/>
       <use x="63.623047" xlink:href="#DejaVuSans-48"/>
      </g>
     </g>
    </g>
    <g id="xtick_4">
     <g id="line2d_4">
      <g>
       <use style="stroke:#000000;stroke-width:0.8;" x="203.715816" xlink:href="#mc81b6fab30" y="307.584"/>
      </g>
     </g>
     <g id="text_4">
      <!-- 60 -->
      <g transform="translate(197.353316 322.182437)scale(0.1 -0.1)">
       <defs>
        <path d="M 33.015625 40.375 
Q 26.375 40.375 22.484375 35.828125 
Q 18.609375 31.296875 18.609375 23.390625 
Q 18.609375 15.53125 22.484375 10.953125 
Q 26.375 6.390625 33.015625 6.390625 
Q 39.65625 6.390625 43.53125 10.953125 
Q 47.40625 15.53125 47.40625 23.390625 
Q 47.40625 31.296875 43.53125 35.828125 
Q 39.65625 40.375 33.015625 40.375 
z
M 52.59375 71.296875 
L 52.59375 62.3125 
Q 48.875 64.0625 45.09375 64.984375 
Q 41.3125 65.921875 37.59375 65.921875 
Q 27.828125 65.921875 22.671875 59.328125 
Q 17.53125 52.734375 16.796875 39.40625 
Q 19.671875 43.65625 24.015625 45.921875 
Q 28.375 48.1875 33.59375 48.1875 
Q 44.578125 48.1875 50.953125 41.515625 
Q 57.328125 34.859375 57.328125 23.390625 
Q 57.328125 12.15625 50.6875 5.359375 
Q 44.046875 -1.421875 33.015625 -1.421875 
Q 20.359375 -1.421875 13.671875 8.265625 
Q 6.984375 17.96875 6.984375 36.375 
Q 6.984375 53.65625 15.1875 63.9375 
Q 23.390625 74.21875 37.203125 74.21875 
Q 40.921875 74.21875 44.703125 73.484375 
Q 48.484375 72.75 52.59375 71.296875 
z
" id="DejaVuSans-54"/>
       </defs>
       <use xlink:href="#DejaVuSans-54"/>
       <use x="63.623047" xlink:href="#DejaVuSans-48"/>
      </g>
     </g>
    </g>
    <g id="xtick_5">
     <g id="line2d_5">
      <g>
       <use style="stroke:#000000;stroke-width:0.8;" x="251.129914" xlink:href="#mc81b6fab30" y="307.584"/>
      </g>
     </g>
     <g id="text_5">
      <!-- 80 -->
      <g transform="translate(244.767414 322.182437)scale(0.1 -0.1)">
       <defs>
        <path d="M 31.78125 34.625 
Q 24.75 34.625 20.71875 30.859375 
Q 16.703125 27.09375 16.703125 20.515625 
Q 16.703125 13.921875 20.71875 10.15625 
Q 24.75 6.390625 31.78125 6.390625 
Q 38.8125 6.390625 42.859375 10.171875 
Q 46.921875 13.96875 46.921875 20.515625 
Q 46.921875 27.09375 42.890625 30.859375 
Q 38.875 34.625 31.78125 34.625 
z
M 21.921875 38.8125 
Q 15.578125 40.375 12.03125 44.71875 
Q 8.5 49.078125 8.5 55.328125 
Q 8.5 64.0625 14.71875 69.140625 
Q 20.953125 74.21875 31.78125 74.21875 
Q 42.671875 74.21875 48.875 69.140625 
Q 55.078125 64.0625 55.078125 55.328125 
Q 55.078125 49.078125 51.53125 44.71875 
Q 48 40.375 41.703125 38.8125 
Q 48.828125 37.15625 52.796875 32.3125 
Q 56.78125 27.484375 56.78125 20.515625 
Q 56.78125 9.90625 50.3125 4.234375 
Q 43.84375 -1.421875 31.78125 -1.421875 
Q 19.734375 -1.421875 13.25 4.234375 
Q 6.78125 9.90625 6.78125 20.515625 
Q 6.78125 27.484375 10.78125 32.3125 
Q 14.796875 37.15625 21.921875 38.8125 
z
M 18.3125 54.390625 
Q 18.3125 48.734375 21.84375 45.5625 
Q 25.390625 42.390625 31.78125 42.390625 
Q 38.140625 42.390625 41.71875 45.5625 
Q 45.3125 48.734375 45.3125 54.390625 
Q 45.3125 60.0625 41.71875 63.234375 
Q 38.140625 66.40625 31.78125 66.40625 
Q 25.390625 66.40625 21.84375 63.234375 
Q 18.3125 60.0625 18.3125 54.390625 
z
" id="DejaVuSans-56"/>
       </defs>
       <use xlink:href="#DejaVuSans-56"/>
       <use x="63.623047" xlink:href="#DejaVuSans-48"/>
      </g>
     </g>
    </g>
    <g id="xtick_6">
     <g id="line2d_6">
      <g>
       <use style="stroke:#000000;stroke-width:0.8;" x="298.544013" xlink:href="#mc81b6fab30" y="307.584"/>
      </g>
     </g>
     <g id="text_6">
      <!-- 100 -->
      <g transform="translate(289.000263 322.182437)scale(0.1 -0.1)">
       <defs>
        <path d="M 12.40625 8.296875 
L 28.515625 8.296875 
L 28.515625 63.921875 
L 10.984375 60.40625 
L 10.984375 69.390625 
L 28.421875 72.90625 
L 38.28125 72.90625 
L 38.28125 8.296875 
L 54.390625 8.296875 
L 54.390625 0 
L 12.40625 0 
z
" id="DejaVuSans-49"/>
       </defs>
       <use xlink:href="#DejaVuSans-49"/>
       <use x="63.623047" xlink:href="#DejaVuSans-48"/>
       <use x="127.246094" xlink:href="#DejaVuSans-48"/>
      </g>
     </g>
    </g>
    <g id="xtick_7">
     <g id="line2d_7">
      <g>
       <use style="stroke:#000000;stroke-width:0.8;" x="345.958111" xlink:href="#mc81b6fab30" y="307.584"/>
      </g>
     </g>
     <g id="text_7">
      <!-- 120 -->
      <g transform="translate(336.414361 322.182437)scale(0.1 -0.1)">
       <use xlink:href="#DejaVuSans-49"/>
       <use x="63.623047" xlink:href="#DejaVuSans-50"/>
       <use x="127.246094" xlink:href="#DejaVuSans-48"/>
      </g>
     </g>
    </g>
    <g id="xtick_8">
     <g id="line2d_8">
      <g>
       <use style="stroke:#000000;stroke-width:0.8;" x="393.37221" xlink:href="#mc81b6fab30" y="307.584"/>
      </g>
     </g>
     <g id="text_8">
      <!-- 140 -->
      <g transform="translate(383.82846 322.182437)scale(0.1 -0.1)">
       <use xlink:href="#DejaVuSans-49"/>
       <use x="63.623047" xlink:href="#DejaVuSans-52"/>
       <use x="127.246094" xlink:href="#DejaVuSans-48"/>
      </g>
     </g>
    </g>
   </g>
   <g id="matplotlib.axis_2">
    <g id="ytick_1">
     <g id="line2d_9">
      <defs>
       <path d="M 0 0 
L -3.5 0 
" id="m1ce596a938" style="stroke:#000000;stroke-width:0.8;"/>
      </defs>
      <g>
       <use style="stroke:#000000;stroke-width:0.8;" x="57.6" xlink:href="#m1ce596a938" y="294.961851"/>
      </g>
     </g>
     <g id="text_9">
      <!-- 0 -->
      <g transform="translate(44.2375 298.761069)scale(0.1 -0.1)">
       <use xlink:href="#DejaVuSans-48"/>
      </g>
     </g>
    </g>
    <g id="ytick_2">
     <g id="line2d_10">
      <g>
       <use style="stroke:#000000;stroke-width:0.8;" x="57.6" xlink:href="#m1ce596a938" y="247.547752"/>
      </g>
     </g>
     <g id="text_10">
      <!-- 20 -->
      <g transform="translate(37.875 251.346971)scale(0.1 -0.1)">
       <use xlink:href="#DejaVuSans-50"/>
       <use x="63.623047" xlink:href="#DejaVuSans-48"/>
      </g>
     </g>
    </g>
    <g id="ytick_3">
     <g id="line2d_11">
      <g>
       <use style="stroke:#000000;stroke-width:0.8;" x="57.6" xlink:href="#m1ce596a938" y="200.133653"/>
      </g>
     </g>
     <g id="text_11">
      <!-- 40 -->
      <g transform="translate(37.875 203.932872)scale(0.1 -0.1)">
       <use xlink:href="#DejaVuSans-52"/>
       <use x="63.623047" xlink:href="#DejaVuSans-48"/>
      </g>
     </g>
    </g>
    <g id="ytick_4">
     <g id="line2d_12">
      <g>
       <use style="stroke:#000000;stroke-width:0.8;" x="57.6" xlink:href="#m1ce596a938" y="152.719555"/>
      </g>
     </g>
     <g id="text_12">
      <!-- 60 -->
      <g transform="translate(37.875 156.518774)scale(0.1 -0.1)">
       <use xlink:href="#DejaVuSans-54"/>
       <use x="63.623047" xlink:href="#DejaVuSans-48"/>
      </g>
     </g>
    </g>
    <g id="ytick_5">
     <g id="line2d_13">
      <g>
       <use style="stroke:#000000;stroke-width:0.8;" x="57.6" xlink:href="#m1ce596a938" y="105.305456"/>
      </g>
     </g>
     <g id="text_13">
      <!-- 80 -->
      <g transform="translate(37.875 109.104675)scale(0.1 -0.1)">
       <use xlink:href="#DejaVuSans-56"/>
       <use x="63.623047" xlink:href="#DejaVuSans-48"/>
      </g>
     </g>
    </g>
    <g id="ytick_6">
     <g id="line2d_14">
      <g>
       <use style="stroke:#000000;stroke-width:0.8;" x="57.6" xlink:href="#m1ce596a938" y="57.891358"/>
      </g>
     </g>
     <g id="text_14">
      <!-- 100 -->
      <g transform="translate(31.5125 61.690576)scale(0.1 -0.1)">
       <use xlink:href="#DejaVuSans-49"/>
       <use x="63.623047" xlink:href="#DejaVuSans-48"/>
       <use x="127.246094" xlink:href="#DejaVuSans-48"/>
      </g>
     </g>
    </g>
   </g>
   <g id="line2d_15">
    <path clip-path="url(#p729fc7d9cb)" d="M 85.180569 271.254801 
L 84.474099 268.879355 
L 83.93832 266.492055 
L 83.56849 264.095272 
L 83.359868 261.696119 
L 83.307712 259.299336 
L 83.404911 256.909666 
L 83.646723 254.534219 
L 84.030777 252.177739 
L 84.549962 249.847336 
L 85.199535 247.547752 
L 85.974755 245.283729 
L 86.868511 243.060008 
L 87.878432 240.8837 
L 88.999775 238.76192 
L 90.225429 236.697036 
L 91.550653 234.69379 
L 92.970706 232.761665 
L 94.480845 230.905403 
L 96.076329 229.127375 
L 97.750047 227.437062 
L 101.315587 224.312473 
L 105.118198 221.484222 
L 109.091499 218.876447 
L 115.238737 215.22082 
L 129.70952 207.046629 
L 135.996629 203.739496 
L 142.414128 200.648096 
L 146.773854 198.751532 
L 151.197589 197.013806 
L 155.685334 195.465735 
L 160.232346 194.133399 
L 164.836255 193.038134 
L 169.487578 192.146749 
L 176.535684 191.120233 
L 183.633574 190.347383 
L 197.829355 188.913107 
L 202.511498 188.21612 
L 207.143855 187.293916 
L 211.716945 186.091968 
L 216.226026 184.631614 
L 220.675839 182.953155 
L 225.061643 181.094522 
L 231.528926 178.057649 
L 237.844484 174.769481 
L 241.960028 172.41063 
L 245.983114 169.902424 
L 249.909001 167.225898 
L 253.721095 164.362087 
L 257.388575 161.31099 
L 260.873512 158.063124 
L 264.142714 154.613748 
L 267.15825 150.962863 
L 269.903527 147.112838 
L 272.442552 143.113458 
L 277.224263 134.901337 
L 280.87752 128.782547 
L 284.777329 122.836819 
L 288.907097 117.045187 
L 293.236005 111.386314 
L 297.76168 105.864943 
L 300.938425 102.327851 
L 304.292972 98.968562 
L 307.860883 95.83449 
L 311.68483 92.977791 
L 315.764813 90.45299 
L 317.888965 89.331646 
L 320.062901 88.312243 
L 322.279511 87.399522 
L 324.538792 86.605336 
L 326.833635 85.932056 
L 329.156926 85.389164 
L 331.508665 84.979032 
L 333.87937 84.711143 
L 336.261928 84.580754 
L 338.65397 84.587866 
L 341.04364 84.727738 
L 343.426199 84.997998 
L 345.796903 85.396276 
L 348.143901 85.917831 
L 350.464821 86.565034 
L 352.750181 87.328401 
L 354.992868 88.210303 
L 357.188141 89.205999 
L 359.328887 90.308377 
L 361.410366 91.519807 
L 363.425465 92.830807 
L 365.369443 94.239006 
L 367.237559 95.739662 
L 369.02507 97.328034 
L 370.727237 99.001752 
L 372.334574 100.756074 
L 373.844714 102.586258 
L 375.255283 104.487563 
L 377.784825 108.482201 
L 379.963503 112.702056 
L 381.829248 117.102084 
L 383.424732 121.637243 
L 384.790258 126.267229 
L 385.963757 130.949372 
L 387.457301 137.9714 
L 389.157097 147.112838 
L 389.157097 147.112838 
" style="fill:none;stroke:#fea952;stroke-linecap:square;"/>
   </g>
   <g id="line2d_16">
    <path clip-path="url(#p729fc7d9cb)" d="M 76.09121 273.958024 
L 75.221438 270.95592 
L 74.566413 267.938165 
L 74.12132 264.916765 
L 73.879293 261.902422 
L 73.832727 258.913945 
L 73.970846 255.949312 
L 74.287389 253.008855 
L 74.774881 250.115642 
L 75.424234 247.269553 
L 76.228066 244.475846 
L 77.176013 241.747347 
L 78.266742 239.068337 
L 79.494442 236.452832 
L 80.845285 233.921654 
L 82.316577 231.465026 
L 83.909626 229.077869 
L 85.614694 226.777273 
L 87.42297 224.572137 
L 89.337967 222.455168 
L 91.344847 220.444403 
L 93.408367 218.5667 
L 97.664701 215.160116 
L 101.981872 212.166086 
L 106.2971 209.468942 
L 114.671172 204.616184 
L 125.215983 198.69606 
L 131.767167 195.252122 
L 138.555772 191.985709 
L 143.21945 189.960055 
L 148.006372 188.08408 
L 152.903909 186.400001 
L 157.923483 184.935953 
L 162.956442 183.743502 
L 167.980883 182.784391 
L 172.949468 182.02568 
L 180.320729 181.148789 
L 198.68372 179.223711 
L 202.854365 178.513307 
L 206.891366 177.593042 
L 210.937265 176.41073 
L 215.019025 174.979301 
L 219.101707 173.343397 
L 225.242041 170.57 
L 231.25398 167.550789 
L 235.124792 165.42332 
L 238.885016 163.181477 
L 242.533199 160.808742 
L 246.046585 158.302089 
L 249.412965 155.653562 
L 252.592511 152.865262 
L 255.549805 149.952981 
L 258.26362 146.91256 
L 260.75135 143.683622 
L 263.133716 140.131684 
L 266.634192 134.298856 
L 271.555248 125.841181 
L 274.221757 121.576377 
L 278.410222 115.381385 
L 282.801609 109.379588 
L 287.377401 103.524549 
L 290.639798 99.60374 
L 294.129701 95.727461 
L 297.902366 91.962564 
L 302.021377 88.362941 
L 304.229373 86.648631 
L 306.518122 85.026124 
L 308.883935 83.499891 
L 311.337812 82.066958 
L 313.862936 80.745905 
L 316.45232 79.543688 
L 319.134734 78.453336 
L 321.869168 77.506052 
L 324.675879 76.697991 
L 327.527757 76.04734 
L 330.443883 75.556182 
L 333.361185 75.242491 
L 336.290123 75.097976 
L 339.208067 75.121249 
L 342.112449 75.305343 
L 344.997295 75.646232 
L 347.854016 76.13927 
L 350.691062 76.783509 
L 353.46915 77.570709 
L 356.220483 78.503387 
L 358.909859 79.574271 
L 361.529519 80.775323 
L 364.098877 82.112582 
L 366.581679 83.571135 
L 368.988503 85.151192 
L 371.308176 86.846081 
L 373.536434 88.651077 
L 375.673695 90.566402 
L 377.719105 92.595689 
L 379.648903 94.720805 
L 381.460494 96.936146 
L 383.146928 99.229636 
L 384.693537 101.56939 
L 386.121669 103.963252 
L 388.628625 108.849844 
L 390.727386 113.823822 
L 392.489219 118.851753 
L 393.96876 123.88417 
L 395.214336 128.863548 
L 396.769627 136.1813 
L 398.487273 145.418233 
L 398.487273 145.418233 
" style="fill:none;stroke:#ffffff;stroke-linecap:square;"/>
   </g>
   <g id="line2d_17">
    <path clip-path="url(#p729fc7d9cb)" d="M 94.269929 268.551579 
L 93.726761 266.802789 
L 93.310227 265.045945 
L 93.01566 263.273779 
L 92.840443 261.489816 
L 92.782698 259.684728 
L 93.006057 256.059584 
L 93.675689 252.425119 
L 94.773498 248.82011 
L 96.262421 245.314569 
L 98.134282 241.929045 
L 100.326718 238.746058 
L 102.814691 235.799582 
L 105.590887 233.102231 
L 108.716928 230.57257 
L 112.194635 228.147168 
L 115.949287 225.794711 
L 124.070579 221.088787 
L 134.203057 215.397198 
L 140.226092 212.22687 
L 146.272484 209.310484 
L 150.328258 207.54301 
L 154.388806 205.943532 
L 158.466758 204.53147 
L 162.541209 203.330846 
L 166.716068 202.332765 
L 170.994273 201.509106 
L 177.651348 200.537195 
L 184.521047 199.788584 
L 199.129237 198.306412 
L 204.233787 197.541225 
L 209.416913 196.500276 
L 214.518384 195.151538 
L 219.478858 193.53908 
L 224.301612 191.71544 
L 228.975002 189.732201 
L 235.784897 186.531761 
L 242.485896 183.038772 
L 246.89601 180.50754 
L 251.241049 177.794064 
L 255.516796 174.872892 
L 259.687397 171.732779 
L 263.755664 168.338369 
L 267.64938 164.697238 
L 271.340598 160.787428 
L 274.787665 156.59455 
L 277.854553 152.28053 
L 280.584021 147.975593 
L 285.422516 139.667103 
L 288.882493 133.866274 
L 292.56685 128.244891 
L 296.496763 122.73033 
L 300.650048 117.29866 
L 304.883562 112.126146 
L 307.747149 108.928241 
L 310.683579 105.974561 
L 313.700389 103.306039 
L 316.851538 100.929457 
L 320.191815 98.839022 
L 323.673483 97.080799 
L 327.208417 95.70462 
L 330.786095 94.730988 
L 332.573447 94.401883 
L 336.233734 94.063532 
L 339.974831 94.150132 
L 343.739791 94.653282 
L 347.460493 95.559359 
L 351.075877 96.846335 
L 354.558897 98.504172 
L 357.862427 100.510422 
L 360.938684 102.828247 
L 363.735368 105.407815 
L 366.228933 108.236369 
L 368.439029 111.341106 
L 370.403912 114.748631 
L 372.140254 118.43407 
L 373.668419 122.369784 
L 375.008272 126.523233 
L 376.179665 130.832228 
L 377.691051 137.505064 
L 379.419159 146.562384 
L 379.826921 148.807442 
L 379.826921 148.807442 
" style="fill:none;stroke:#ffffff;stroke-linecap:square;"/>
   </g>
   <g id="patch_3">
    <path d="M 57.6 307.584 
L 57.6 41.472 
" style="fill:none;stroke:#000000;stroke-linecap:square;stroke-linejoin:miter;stroke-width:0.8;"/>
   </g>
   <g id="patch_4">
    <path d="M 414.72 307.584 
L 414.72 41.472 
" style="fill:none;stroke:#000000;stroke-linecap:square;stroke-linejoin:miter;stroke-width:0.8;"/>
   </g>
   <g id="patch_5">
    <path d="M 57.6 307.584 
L 414.72 307.584 
" style="fill:none;stroke:#000000;stroke-linecap:square;stroke-linejoin:miter;stroke-width:0.8;"/>
   </g>
   <g id="patch_6">
    <path d="M 57.6 41.472 
L 414.72 41.472 
" style="fill:none;stroke:#000000;stroke-linecap:square;stroke-linejoin:miter;stroke-width:0.8;"/>
   </g>
  </g>
 </g>
 <defs>
  <clipPath id="p729fc7d9cb">
   <rect height="266.112" width="357.12" x="57.6" y="41.472"/>
  </clipPath>
 </defs>
</svg>
