<?xml version="1.0" encoding="utf-8" standalone="no"?>
<!DOCTYPE svg PUBLIC "-//W3C//DTD SVG 1.1//EN"
  "http://www.w3.org/Graphics/SVG/1.1/DTD/svg11.dtd">
<!-- Created with matplotlib (https://matplotlib.org/) -->
<svg height="345.6pt" version="1.1" viewBox="0 0 460.8 345.6" width="460.8pt" xmlns="http://www.w3.org/2000/svg" xmlns:xlink="http://www.w3.org/1999/xlink">
 <metadata>
  <rdf:RDF xmlns:cc="http://creativecommons.org/ns#" xmlns:dc="http://purl.org/dc/elements/1.1/" xmlns:rdf="http://www.w3.org/1999/02/22-rdf-syntax-ns#">
   <cc:Work>
    <dc:type rdf:resource="http://purl.org/dc/dcmitype/StillImage"/>
    <dc:date>2021-01-22T10:50:55.725294</dc:date>
    <dc:format>image/svg+xml</dc:format>
    <dc:creator>
     <cc:Agent>
      <dc:title>Matplotlib v3.3.3, https://matplotlib.org/</dc:title>
     </cc:Agent>
    </dc:creator>
   </cc:Work>
  </rdf:RDF>
 </metadata>
 <defs>
  <style type="text/css">*{stroke-linecap:butt;stroke-linejoin:round;}</style>
 </defs>
 <g id="figure_1">
  <g id="patch_1">
   <path d="M 0 345.6 
L 460.8 345.6 
L 460.8 0 
L 0 0 
z
" style="fill:#ffffff;"/>
  </g>
  <g id="axes_1">
   <g id="patch_2">
    <path d="M 57.6 307.584 
L 414.72 307.584 
L 414.72 41.472 
L 57.6 41.472 
z
" style="fill:#7d9051;"/>
   </g>
   <g id="matplotlib.axis_1">
    <g id="xtick_1">
     <g id="line2d_1">
      <defs>
       <path d="M 0 0 
L 0 3.5 
" id="m7610307586" style="stroke:#000000;stroke-width:0.8;"/>
      </defs>
      <g>
       <use style="stroke:#000000;stroke-width:0.8;" x="96.357022" xlink:href="#m7610307586" y="307.584"/>
      </g>
     </g>
     <g id="text_1">
      <!-- −20 -->
      <g transform="translate(85.804678 322.182437)scale(0.1 -0.1)">
       <defs>
        <path d="M 10.59375 35.5 
L 73.1875 35.5 
L 73.1875 27.203125 
L 10.59375 27.203125 
z
" id="DejaVuSans-8722"/>
        <path d="M 19.1875 8.296875 
L 53.609375 8.296875 
L 53.609375 0 
L 7.328125 0 
L 7.328125 8.296875 
Q 12.9375 14.109375 22.625 23.890625 
Q 32.328125 33.6875 34.8125 36.53125 
Q 39.546875 41.84375 41.421875 45.53125 
Q 43.3125 49.21875 43.3125 52.78125 
Q 43.3125 58.59375 39.234375 62.25 
Q 35.15625 65.921875 28.609375 65.921875 
Q 23.96875 65.921875 18.8125 64.3125 
Q 13.671875 62.703125 7.8125 59.421875 
L 7.8125 69.390625 
Q 13.765625 71.78125 18.9375 73 
Q 24.125 74.21875 28.421875 74.21875 
Q 39.75 74.21875 46.484375 68.546875 
Q 53.21875 62.890625 53.21875 53.421875 
Q 53.21875 48.921875 51.53125 44.890625 
Q 49.859375 40.875 45.40625 35.40625 
Q 44.1875 33.984375 37.640625 27.21875 
Q 31.109375 20.453125 19.1875 8.296875 
z
" id="DejaVuSans-50"/>
        <path d="M 31.78125 66.40625 
Q 24.171875 66.40625 20.328125 58.90625 
Q 16.5 51.421875 16.5 36.375 
Q 16.5 21.390625 20.328125 13.890625 
Q 24.171875 6.390625 31.78125 6.390625 
Q 39.453125 6.390625 43.28125 13.890625 
Q 47.125 21.390625 47.125 36.375 
Q 47.125 51.421875 43.28125 58.90625 
Q 39.453125 66.40625 31.78125 66.40625 
z
M 31.78125 74.21875 
Q 44.046875 74.21875 50.515625 64.515625 
Q 56.984375 54.828125 56.984375 36.375 
Q 56.984375 17.96875 50.515625 8.265625 
Q 44.046875 -1.421875 31.78125 -1.421875 
Q 19.53125 -1.421875 13.0625 8.265625 
Q 6.59375 17.96875 6.59375 36.375 
Q 6.59375 54.828125 13.0625 64.515625 
Q 19.53125 74.21875 31.78125 74.21875 
z
" id="DejaVuSans-48"/>
       </defs>
       <use xlink:href="#DejaVuSans-8722"/>
       <use x="83.789062" xlink:href="#DejaVuSans-50"/>
       <use x="147.412109" xlink:href="#DejaVuSans-48"/>
      </g>
     </g>
    </g>
    <g id="xtick_2">
     <g id="line2d_2">
      <g>
       <use style="stroke:#000000;stroke-width:0.8;" x="142.46311" xlink:href="#m7610307586" y="307.584"/>
      </g>
     </g>
     <g id="text_2">
      <!-- 0 -->
      <g transform="translate(139.28186 322.182437)scale(0.1 -0.1)">
       <use xlink:href="#DejaVuSans-48"/>
      </g>
     </g>
    </g>
    <g id="xtick_3">
     <g id="line2d_3">
      <g>
       <use style="stroke:#000000;stroke-width:0.8;" x="188.569198" xlink:href="#m7610307586" y="307.584"/>
      </g>
     </g>
     <g id="text_3">
      <!-- 20 -->
      <g transform="translate(182.206698 322.182437)scale(0.1 -0.1)">
       <use xlink:href="#DejaVuSans-50"/>
       <use x="63.623047" xlink:href="#DejaVuSans-48"/>
      </g>
     </g>
    </g>
    <g id="xtick_4">
     <g id="line2d_4">
      <g>
       <use style="stroke:#000000;stroke-width:0.8;" x="234.675286" xlink:href="#m7610307586" y="307.584"/>
      </g>
     </g>
     <g id="text_4">
      <!-- 40 -->
      <g transform="translate(228.312786 322.182437)scale(0.1 -0.1)">
       <defs>
        <path d="M 37.796875 64.3125 
L 12.890625 25.390625 
L 37.796875 25.390625 
z
M 35.203125 72.90625 
L 47.609375 72.90625 
L 47.609375 25.390625 
L 58.015625 25.390625 
L 58.015625 17.1875 
L 47.609375 17.1875 
L 47.609375 0 
L 37.796875 0 
L 37.796875 17.1875 
L 4.890625 17.1875 
L 4.890625 26.703125 
z
" id="DejaVuSans-52"/>
       </defs>
       <use xlink:href="#DejaVuSans-52"/>
       <use x="63.623047" xlink:href="#DejaVuSans-48"/>
      </g>
     </g>
    </g>
    <g id="xtick_5">
     <g id="line2d_5">
      <g>
       <use style="stroke:#000000;stroke-width:0.8;" x="280.781374" xlink:href="#m7610307586" y="307.584"/>
      </g>
     </g>
     <g id="text_5">
      <!-- 60 -->
      <g transform="translate(274.418874 322.182437)scale(0.1 -0.1)">
       <defs>
        <path d="M 33.015625 40.375 
Q 26.375 40.375 22.484375 35.828125 
Q 18.609375 31.296875 18.609375 23.390625 
Q 18.609375 15.53125 22.484375 10.953125 
Q 26.375 6.390625 33.015625 6.390625 
Q 39.65625 6.390625 43.53125 10.953125 
Q 47.40625 15.53125 47.40625 23.390625 
Q 47.40625 31.296875 43.53125 35.828125 
Q 39.65625 40.375 33.015625 40.375 
z
M 52.59375 71.296875 
L 52.59375 62.3125 
Q 48.875 64.0625 45.09375 64.984375 
Q 41.3125 65.921875 37.59375 65.921875 
Q 27.828125 65.921875 22.671875 59.328125 
Q 17.53125 52.734375 16.796875 39.40625 
Q 19.671875 43.65625 24.015625 45.921875 
Q 28.375 48.1875 33.59375 48.1875 
Q 44.578125 48.1875 50.953125 41.515625 
Q 57.328125 34.859375 57.328125 23.390625 
Q 57.328125 12.15625 50.6875 5.359375 
Q 44.046875 -1.421875 33.015625 -1.421875 
Q 20.359375 -1.421875 13.671875 8.265625 
Q 6.984375 17.96875 6.984375 36.375 
Q 6.984375 53.65625 15.1875 63.9375 
Q 23.390625 74.21875 37.203125 74.21875 
Q 40.921875 74.21875 44.703125 73.484375 
Q 48.484375 72.75 52.59375 71.296875 
z
" id="DejaVuSans-54"/>
       </defs>
       <use xlink:href="#DejaVuSans-54"/>
       <use x="63.623047" xlink:href="#DejaVuSans-48"/>
      </g>
     </g>
    </g>
    <g id="xtick_6">
     <g id="line2d_6">
      <g>
       <use style="stroke:#000000;stroke-width:0.8;" x="326.887462" xlink:href="#m7610307586" y="307.584"/>
      </g>
     </g>
     <g id="text_6">
      <!-- 80 -->
      <g transform="translate(320.524962 322.182437)scale(0.1 -0.1)">
       <defs>
        <path d="M 31.78125 34.625 
Q 24.75 34.625 20.71875 30.859375 
Q 16.703125 27.09375 16.703125 20.515625 
Q 16.703125 13.921875 20.71875 10.15625 
Q 24.75 6.390625 31.78125 6.390625 
Q 38.8125 6.390625 42.859375 10.171875 
Q 46.921875 13.96875 46.921875 20.515625 
Q 46.921875 27.09375 42.890625 30.859375 
Q 38.875 34.625 31.78125 34.625 
z
M 21.921875 38.8125 
Q 15.578125 40.375 12.03125 44.71875 
Q 8.5 49.078125 8.5 55.328125 
Q 8.5 64.0625 14.71875 69.140625 
Q 20.953125 74.21875 31.78125 74.21875 
Q 42.671875 74.21875 48.875 69.140625 
Q 55.078125 64.0625 55.078125 55.328125 
Q 55.078125 49.078125 51.53125 44.71875 
Q 48 40.375 41.703125 38.8125 
Q 48.828125 37.15625 52.796875 32.3125 
Q 56.78125 27.484375 56.78125 20.515625 
Q 56.78125 9.90625 50.3125 4.234375 
Q 43.84375 -1.421875 31.78125 -1.421875 
Q 19.734375 -1.421875 13.25 4.234375 
Q 6.78125 9.90625 6.78125 20.515625 
Q 6.78125 27.484375 10.78125 32.3125 
Q 14.796875 37.15625 21.921875 38.8125 
z
M 18.3125 54.390625 
Q 18.3125 48.734375 21.84375 45.5625 
Q 25.390625 42.390625 31.78125 42.390625 
Q 38.140625 42.390625 41.71875 45.5625 
Q 45.3125 48.734375 45.3125 54.390625 
Q 45.3125 60.0625 41.71875 63.234375 
Q 38.140625 66.40625 31.78125 66.40625 
Q 25.390625 66.40625 21.84375 63.234375 
Q 18.3125 60.0625 18.3125 54.390625 
z
" id="DejaVuSans-56"/>
       </defs>
       <use xlink:href="#DejaVuSans-56"/>
       <use x="63.623047" xlink:href="#DejaVuSans-48"/>
      </g>
     </g>
    </g>
    <g id="xtick_7">
     <g id="line2d_7">
      <g>
       <use style="stroke:#000000;stroke-width:0.8;" x="372.99355" xlink:href="#m7610307586" y="307.584"/>
      </g>
     </g>
     <g id="text_7">
      <!-- 100 -->
      <g transform="translate(363.4498 322.182437)scale(0.1 -0.1)">
       <defs>
        <path d="M 12.40625 8.296875 
L 28.515625 8.296875 
L 28.515625 63.921875 
L 10.984375 60.40625 
L 10.984375 69.390625 
L 28.421875 72.90625 
L 38.28125 72.90625 
L 38.28125 8.296875 
L 54.390625 8.296875 
L 54.390625 0 
L 12.40625 0 
z
" id="DejaVuSans-49"/>
       </defs>
       <use xlink:href="#DejaVuSans-49"/>
       <use x="63.623047" xlink:href="#DejaVuSans-48"/>
       <use x="127.246094" xlink:href="#DejaVuSans-48"/>
      </g>
     </g>
    </g>
   </g>
   <g id="matplotlib.axis_2">
    <g id="ytick_1">
     <g id="line2d_8">
      <defs>
       <path d="M 0 0 
L -3.5 0 
" id="m8176af8aad" style="stroke:#000000;stroke-width:0.8;"/>
      </defs>
      <g>
       <use style="stroke:#000000;stroke-width:0.8;" x="57.6" xlink:href="#m8176af8aad" y="271.528185"/>
      </g>
     </g>
     <g id="text_8">
      <!-- 20 -->
      <g transform="translate(37.875 275.327403)scale(0.1 -0.1)">
       <use xlink:href="#DejaVuSans-50"/>
       <use x="63.623047" xlink:href="#DejaVuSans-48"/>
      </g>
     </g>
    </g>
    <g id="ytick_2">
     <g id="line2d_9">
      <g>
       <use style="stroke:#000000;stroke-width:0.8;" x="57.6" xlink:href="#m8176af8aad" y="225.422097"/>
      </g>
     </g>
     <g id="text_9">
      <!-- 40 -->
      <g transform="translate(37.875 229.221315)scale(0.1 -0.1)">
       <use xlink:href="#DejaVuSans-52"/>
       <use x="63.623047" xlink:href="#DejaVuSans-48"/>
      </g>
     </g>
    </g>
    <g id="ytick_3">
     <g id="line2d_10">
      <g>
       <use style="stroke:#000000;stroke-width:0.8;" x="57.6" xlink:href="#m8176af8aad" y="179.316008"/>
      </g>
     </g>
     <g id="text_10">
      <!-- 60 -->
      <g transform="translate(37.875 183.115227)scale(0.1 -0.1)">
       <use xlink:href="#DejaVuSans-54"/>
       <use x="63.623047" xlink:href="#DejaVuSans-48"/>
      </g>
     </g>
    </g>
    <g id="ytick_4">
     <g id="line2d_11">
      <g>
       <use style="stroke:#000000;stroke-width:0.8;" x="57.6" xlink:href="#m8176af8aad" y="133.20992"/>
      </g>
     </g>
     <g id="text_11">
      <!-- 80 -->
      <g transform="translate(37.875 137.009139)scale(0.1 -0.1)">
       <use xlink:href="#DejaVuSans-56"/>
       <use x="63.623047" xlink:href="#DejaVuSans-48"/>
      </g>
     </g>
    </g>
    <g id="ytick_5">
     <g id="line2d_12">
      <g>
       <use style="stroke:#000000;stroke-width:0.8;" x="57.6" xlink:href="#m8176af8aad" y="87.103832"/>
      </g>
     </g>
     <g id="text_12">
      <!-- 100 -->
      <g transform="translate(31.5125 90.903051)scale(0.1 -0.1)">
       <use xlink:href="#DejaVuSans-49"/>
       <use x="63.623047" xlink:href="#DejaVuSans-48"/>
       <use x="127.246094" xlink:href="#DejaVuSans-48"/>
      </g>
     </g>
    </g>
   </g>
   <g id="line2d_13">
    <path clip-path="url(#pd1db93eb67)" d="M 185.48009 294.581229 
L 185.881213 289.917598 
L 186.056416 285.270104 
L 186.033363 280.634137 
L 185.835107 276.012002 
L 185.265697 269.098394 
L 184.440398 262.198618 
L 183.0941 253.01659 
L 180.454526 236.976282 
L 179.105923 230.159497 
L 177.485294 223.411871 
L 175.576502 216.74032 
L 172.72023 207.908699 
L 168.289435 194.637062 
L 167.044571 190.162466 
L 166.069427 185.637153 
L 165.456216 181.054208 
L 165.267181 176.41363 
L 165.495406 171.749999 
L 166.117838 167.109422 
L 167.11373 162.533392 
L 168.457722 158.065712 
L 170.122152 153.729435 
L 172.042471 149.508423 
L 174.154129 145.375012 
L 177.542927 139.279787 
L 186.715733 123.151877 
L 189.991571 117.022073 
L 196.400317 104.667947 
L 198.707927 100.647496 
L 201.206877 96.735394 
L 203.936357 92.963916 
L 206.894063 89.360725 
L 210.063856 85.944264 
L 213.436516 82.742196 
L 217.000517 79.77527 
L 220.744331 77.0504 
L 224.644906 74.553755 
L 228.686105 72.257672 
L 232.84718 70.146013 
L 237.107382 68.195726 
L 241.455186 66.422947 
L 245.883676 64.910667 
L 250.390546 63.741877 
L 252.670492 63.313091 
L 254.968881 63.001875 
L 257.283406 62.822061 
L 259.616374 62.780566 
L 261.956258 62.881999 
L 264.296142 63.124056 
L 266.6245 63.504431 
L 268.927499 64.023125 
L 271.198224 64.67322 
L 273.425148 65.459329 
L 275.596744 66.37684 
L 277.701487 67.421143 
L 279.730155 68.594543 
L 281.671222 69.894735 
L 283.522381 71.310192 
L 285.285939 72.836303 
L 286.95959 74.463848 
L 288.547945 76.1813 
L 290.051003 77.981743 
L 292.803536 81.792411 
L 295.226411 85.819778 
L 297.326544 90.0016 
L 299.124681 94.300993 
L 300.636961 98.697208 
L 301.886436 103.171804 
L 302.891549 107.701727 
L 303.675352 112.268535 
L 304.535231 119.163701 
L 305.358224 128.412582 
L 306.796734 146.928787 
L 307.041096 153.863143 
L 307.015738 158.482973 
L 306.789818 163.095887 
L 306.333368 167.706496 
L 305.604892 172.312494 
L 304.5652 176.911576 
L 304.5652 176.911576 
" style="fill:none;stroke:#fea952;stroke-linecap:square;"/>
   </g>
   <g id="line2d_14">
    <path clip-path="url(#pd1db93eb67)" d="M 176.303564 293.674457 
L 176.671296 289.46121 
L 176.835362 285.215108 
L 176.817439 280.946541 
L 176.635093 276.636978 
L 176.098882 270.098577 
L 175.305194 263.455167 
L 173.985574 254.453815 
L 171.390833 238.673431 
L 170.106673 232.170554 
L 168.587301 225.831905 
L 166.770635 219.476659 
L 163.989721 210.876707 
L 159.436247 197.216193 
L 158.06369 192.254029 
L 156.959192 187.063503 
L 156.547399 184.374223 
L 156.253676 181.640824 
L 156.088926 178.904158 
L 156.049498 176.158343 
L 156.133123 173.437611 
L 156.332486 170.714744 
L 156.646329 168.008157 
L 157.600781 162.668665 
L 158.966306 157.455142 
L 160.702142 152.431098 
L 162.712667 147.674145 
L 164.908211 143.154345 
L 168.376277 136.748213 
L 180.746163 114.802531 
L 189.582438 97.977668 
L 192.226396 93.607991 
L 195.151675 89.318946 
L 198.34831 85.185273 
L 201.79218 81.249701 
L 205.483161 77.52799 
L 209.414896 74.043191 
L 213.543334 70.842816 
L 217.813706 67.940566 
L 222.190162 65.31197 
L 226.666563 62.915261 
L 231.204693 60.733088 
L 235.892736 58.70314 
L 240.821915 56.856758 
L 246.006825 55.303022 
L 248.686202 54.679534 
L 251.433173 54.175263 
L 254.254643 53.80836 
L 257.119418 53.602302 
L 260.015737 53.568 
L 262.905114 53.709729 
L 265.78287 54.023479 
L 268.650598 54.508555 
L 271.465516 55.158063 
L 274.267701 55.977868 
L 277.013984 56.965148 
L 279.695246 58.116505 
L 282.318433 59.438997 
L 284.861952 60.933243 
L 287.272313 62.56953 
L 289.556431 64.337309 
L 291.714631 66.225496 
L 293.729447 68.202867 
L 295.626677 70.271782 
L 297.405119 72.418666 
L 299.0611 74.622667 
L 300.610905 76.885697 
L 303.392725 81.537 
L 305.771697 86.298865 
L 307.796841 91.166587 
L 309.482021 96.090339 
L 310.863727 101.064889 
L 311.962113 106.041695 
L 312.806446 110.982466 
L 313.450767 115.860519 
L 314.161586 123.005633 
L 315.863179 144.065933 
L 316.211878 151.360011 
L 316.270502 156.311084 
L 316.134551 161.352033 
L 315.75677 166.436599 
L 315.089694 171.582943 
L 314.084342 176.796764 
L 313.524153 179.095152 
L 313.524153 179.095152 
" style="fill:none;stroke:#ffffff;stroke-linecap:square;"/>
   </g>
   <g id="line2d_15">
    <path clip-path="url(#pd1db93eb67)" d="M 194.656615 295.488 
L 195.09113 290.373986 
L 195.27747 285.325101 
L 195.249287 280.321733 
L 195.035121 275.387026 
L 194.432511 268.098211 
L 193.575601 260.942069 
L 192.202626 251.579366 
L 189.51822 235.279133 
L 188.105173 228.14844 
L 186.992178 223.355673 
L 185.074269 216.313381 
L 182.943444 209.446278 
L 179.195759 198.343727 
L 177.142623 192.05793 
L 176.025451 188.070902 
L 175.179662 184.210803 
L 174.658756 180.467592 
L 174.484864 176.668917 
L 174.658326 172.785255 
L 175.165871 168.888172 
L 175.994092 165.017346 
L 177.12189 161.222141 
L 178.566657 157.433648 
L 180.295667 153.621281 
L 182.258119 149.774581 
L 185.542982 143.865631 
L 194.81135 127.566834 
L 198.191034 121.241036 
L 204.442442 109.179606 
L 206.545475 105.505859 
L 208.753458 102.034447 
L 211.149356 98.708783 
L 213.751766 95.525363 
L 216.519915 92.528347 
L 219.453428 89.729873 
L 222.543521 87.144528 
L 225.823255 84.746853 
L 229.294625 82.516856 
L 232.944358 80.4368 
L 236.762606 78.494683 
L 240.690594 76.692281 
L 244.574418 75.100576 
L 248.38925 73.784953 
L 252.09489 72.804221 
L 255.683118 72.19539 
L 259.217012 71.993131 
L 262.809414 72.224633 
L 266.389481 72.888186 
L 269.836311 73.95351 
L 273.084541 75.40329 
L 274.598358 76.255843 
L 276.07013 77.21994 
L 278.857247 79.447111 
L 281.469212 82.090818 
L 283.87643 85.089243 
L 286.062461 88.382575 
L 288.002368 91.886929 
L 289.695787 95.548399 
L 291.150157 99.352527 
L 292.377911 103.279033 
L 293.390715 107.318661 
L 294.203805 111.441044 
L 294.847241 115.696988 
L 295.579958 122.304509 
L 296.942191 138.425923 
L 297.586501 147.378738 
L 297.819952 153.899954 
L 297.800813 158.142361 
L 297.601733 162.314899 
L 297.205194 166.39986 
L 296.577651 170.431065 
L 295.606246 174.728 
L 295.606246 174.728 
" style="fill:none;stroke:#ffffff;stroke-linecap:square;"/>
   </g>
   <g id="patch_3">
    <path d="M 57.6 307.584 
L 57.6 41.472 
" style="fill:none;stroke:#000000;stroke-linecap:square;stroke-linejoin:miter;stroke-width:0.8;"/>
   </g>
   <g id="patch_4">
    <path d="M 414.72 307.584 
L 414.72 41.472 
" style="fill:none;stroke:#000000;stroke-linecap:square;stroke-linejoin:miter;stroke-width:0.8;"/>
   </g>
   <g id="patch_5">
    <path d="M 57.6 307.584 
L 414.72 307.584 
" style="fill:none;stroke:#000000;stroke-linecap:square;stroke-linejoin:miter;stroke-width:0.8;"/>
   </g>
   <g id="patch_6">
    <path d="M 57.6 41.472 
L 414.72 41.472 
" style="fill:none;stroke:#000000;stroke-linecap:square;stroke-linejoin:miter;stroke-width:0.8;"/>
   </g>
  </g>
 </g>
 <defs>
  <clipPath id="pd1db93eb67">
   <rect height="266.112" width="357.12" x="57.6" y="41.472"/>
  </clipPath>
 </defs>
</svg>
