<?xml version="1.0" encoding="utf-8" standalone="no"?>
<!DOCTYPE svg PUBLIC "-//W3C//DTD SVG 1.1//EN"
  "http://www.w3.org/Graphics/SVG/1.1/DTD/svg11.dtd">
<!-- Created with matplotlib (https://matplotlib.org/) -->
<svg height="345.6pt" version="1.1" viewBox="0 0 460.8 345.6" width="460.8pt" xmlns="http://www.w3.org/2000/svg" xmlns:xlink="http://www.w3.org/1999/xlink">
 <metadata>
  <rdf:RDF xmlns:cc="http://creativecommons.org/ns#" xmlns:dc="http://purl.org/dc/elements/1.1/" xmlns:rdf="http://www.w3.org/1999/02/22-rdf-syntax-ns#">
   <cc:Work>
    <dc:type rdf:resource="http://purl.org/dc/dcmitype/StillImage"/>
    <dc:date>2021-01-22T10:42:17.663447</dc:date>
    <dc:format>image/svg+xml</dc:format>
    <dc:creator>
     <cc:Agent>
      <dc:title>Matplotlib v3.3.3, https://matplotlib.org/</dc:title>
     </cc:Agent>
    </dc:creator>
   </cc:Work>
  </rdf:RDF>
 </metadata>
 <defs>
  <style type="text/css">*{stroke-linecap:butt;stroke-linejoin:round;}</style>
 </defs>
 <g id="figure_1">
  <g id="patch_1">
   <path d="M 0 345.6 
L 460.8 345.6 
L 460.8 0 
L 0 0 
z
" style="fill:#ffffff;"/>
  </g>
  <g id="axes_1">
   <g id="patch_2">
    <path d="M 57.6 307.584 
L 414.72 307.584 
L 414.72 41.472 
L 57.6 41.472 
z
" style="fill:#7d9051;"/>
   </g>
   <g id="matplotlib.axis_1">
    <g id="xtick_1">
     <g id="line2d_1">
      <defs>
       <path d="M 0 0 
L 0 3.5 
" id="mb83da4e748" style="stroke:#000000;stroke-width:0.8;"/>
      </defs>
      <g>
       <use style="stroke:#000000;stroke-width:0.8;" x="61.540759" xlink:href="#mb83da4e748" y="307.584"/>
      </g>
     </g>
     <g id="text_1">
      <!-- 0 -->
      <g transform="translate(58.359509 322.182437)scale(0.1 -0.1)">
       <defs>
        <path d="M 31.78125 66.40625 
Q 24.171875 66.40625 20.328125 58.90625 
Q 16.5 51.421875 16.5 36.375 
Q 16.5 21.390625 20.328125 13.890625 
Q 24.171875 6.390625 31.78125 6.390625 
Q 39.453125 6.390625 43.28125 13.890625 
Q 47.125 21.390625 47.125 36.375 
Q 47.125 51.421875 43.28125 58.90625 
Q 39.453125 66.40625 31.78125 66.40625 
z
M 31.78125 74.21875 
Q 44.046875 74.21875 50.515625 64.515625 
Q 56.984375 54.828125 56.984375 36.375 
Q 56.984375 17.96875 50.515625 8.265625 
Q 44.046875 -1.421875 31.78125 -1.421875 
Q 19.53125 -1.421875 13.0625 8.265625 
Q 6.59375 17.96875 6.59375 36.375 
Q 6.59375 54.828125 13.0625 64.515625 
Q 19.53125 74.21875 31.78125 74.21875 
z
" id="DejaVuSans-48"/>
       </defs>
       <use xlink:href="#DejaVuSans-48"/>
      </g>
     </g>
    </g>
    <g id="xtick_2">
     <g id="line2d_2">
      <g>
       <use style="stroke:#000000;stroke-width:0.8;" x="108.696905" xlink:href="#mb83da4e748" y="307.584"/>
      </g>
     </g>
     <g id="text_2">
      <!-- 20 -->
      <g transform="translate(102.334405 322.182437)scale(0.1 -0.1)">
       <defs>
        <path d="M 19.1875 8.296875 
L 53.609375 8.296875 
L 53.609375 0 
L 7.328125 0 
L 7.328125 8.296875 
Q 12.9375 14.109375 22.625 23.890625 
Q 32.328125 33.6875 34.8125 36.53125 
Q 39.546875 41.84375 41.421875 45.53125 
Q 43.3125 49.21875 43.3125 52.78125 
Q 43.3125 58.59375 39.234375 62.25 
Q 35.15625 65.921875 28.609375 65.921875 
Q 23.96875 65.921875 18.8125 64.3125 
Q 13.671875 62.703125 7.8125 59.421875 
L 7.8125 69.390625 
Q 13.765625 71.78125 18.9375 73 
Q 24.125 74.21875 28.421875 74.21875 
Q 39.75 74.21875 46.484375 68.546875 
Q 53.21875 62.890625 53.21875 53.421875 
Q 53.21875 48.921875 51.53125 44.890625 
Q 49.859375 40.875 45.40625 35.40625 
Q 44.1875 33.984375 37.640625 27.21875 
Q 31.109375 20.453125 19.1875 8.296875 
z
" id="DejaVuSans-50"/>
       </defs>
       <use xlink:href="#DejaVuSans-50"/>
       <use x="63.623047" xlink:href="#DejaVuSans-48"/>
      </g>
     </g>
    </g>
    <g id="xtick_3">
     <g id="line2d_3">
      <g>
       <use style="stroke:#000000;stroke-width:0.8;" x="155.853052" xlink:href="#mb83da4e748" y="307.584"/>
      </g>
     </g>
     <g id="text_3">
      <!-- 40 -->
      <g transform="translate(149.490552 322.182437)scale(0.1 -0.1)">
       <defs>
        <path d="M 37.796875 64.3125 
L 12.890625 25.390625 
L 37.796875 25.390625 
z
M 35.203125 72.90625 
L 47.609375 72.90625 
L 47.609375 25.390625 
L 58.015625 25.390625 
L 58.015625 17.1875 
L 47.609375 17.1875 
L 47.609375 0 
L 37.796875 0 
L 37.796875 17.1875 
L 4.890625 17.1875 
L 4.890625 26.703125 
z
" id="DejaVuSans-52"/>
       </defs>
       <use xlink:href="#DejaVuSans-52"/>
       <use x="63.623047" xlink:href="#DejaVuSans-48"/>
      </g>
     </g>
    </g>
    <g id="xtick_4">
     <g id="line2d_4">
      <g>
       <use style="stroke:#000000;stroke-width:0.8;" x="203.009198" xlink:href="#mb83da4e748" y="307.584"/>
      </g>
     </g>
     <g id="text_4">
      <!-- 60 -->
      <g transform="translate(196.646698 322.182437)scale(0.1 -0.1)">
       <defs>
        <path d="M 33.015625 40.375 
Q 26.375 40.375 22.484375 35.828125 
Q 18.609375 31.296875 18.609375 23.390625 
Q 18.609375 15.53125 22.484375 10.953125 
Q 26.375 6.390625 33.015625 6.390625 
Q 39.65625 6.390625 43.53125 10.953125 
Q 47.40625 15.53125 47.40625 23.390625 
Q 47.40625 31.296875 43.53125 35.828125 
Q 39.65625 40.375 33.015625 40.375 
z
M 52.59375 71.296875 
L 52.59375 62.3125 
Q 48.875 64.0625 45.09375 64.984375 
Q 41.3125 65.921875 37.59375 65.921875 
Q 27.828125 65.921875 22.671875 59.328125 
Q 17.53125 52.734375 16.796875 39.40625 
Q 19.671875 43.65625 24.015625 45.921875 
Q 28.375 48.1875 33.59375 48.1875 
Q 44.578125 48.1875 50.953125 41.515625 
Q 57.328125 34.859375 57.328125 23.390625 
Q 57.328125 12.15625 50.6875 5.359375 
Q 44.046875 -1.421875 33.015625 -1.421875 
Q 20.359375 -1.421875 13.671875 8.265625 
Q 6.984375 17.96875 6.984375 36.375 
Q 6.984375 53.65625 15.1875 63.9375 
Q 23.390625 74.21875 37.203125 74.21875 
Q 40.921875 74.21875 44.703125 73.484375 
Q 48.484375 72.75 52.59375 71.296875 
z
" id="DejaVuSans-54"/>
       </defs>
       <use xlink:href="#DejaVuSans-54"/>
       <use x="63.623047" xlink:href="#DejaVuSans-48"/>
      </g>
     </g>
    </g>
    <g id="xtick_5">
     <g id="line2d_5">
      <g>
       <use style="stroke:#000000;stroke-width:0.8;" x="250.165344" xlink:href="#mb83da4e748" y="307.584"/>
      </g>
     </g>
     <g id="text_5">
      <!-- 80 -->
      <g transform="translate(243.802844 322.182437)scale(0.1 -0.1)">
       <defs>
        <path d="M 31.78125 34.625 
Q 24.75 34.625 20.71875 30.859375 
Q 16.703125 27.09375 16.703125 20.515625 
Q 16.703125 13.921875 20.71875 10.15625 
Q 24.75 6.390625 31.78125 6.390625 
Q 38.8125 6.390625 42.859375 10.171875 
Q 46.921875 13.96875 46.921875 20.515625 
Q 46.921875 27.09375 42.890625 30.859375 
Q 38.875 34.625 31.78125 34.625 
z
M 21.921875 38.8125 
Q 15.578125 40.375 12.03125 44.71875 
Q 8.5 49.078125 8.5 55.328125 
Q 8.5 64.0625 14.71875 69.140625 
Q 20.953125 74.21875 31.78125 74.21875 
Q 42.671875 74.21875 48.875 69.140625 
Q 55.078125 64.0625 55.078125 55.328125 
Q 55.078125 49.078125 51.53125 44.71875 
Q 48 40.375 41.703125 38.8125 
Q 48.828125 37.15625 52.796875 32.3125 
Q 56.78125 27.484375 56.78125 20.515625 
Q 56.78125 9.90625 50.3125 4.234375 
Q 43.84375 -1.421875 31.78125 -1.421875 
Q 19.734375 -1.421875 13.25 4.234375 
Q 6.78125 9.90625 6.78125 20.515625 
Q 6.78125 27.484375 10.78125 32.3125 
Q 14.796875 37.15625 21.921875 38.8125 
z
M 18.3125 54.390625 
Q 18.3125 48.734375 21.84375 45.5625 
Q 25.390625 42.390625 31.78125 42.390625 
Q 38.140625 42.390625 41.71875 45.5625 
Q 45.3125 48.734375 45.3125 54.390625 
Q 45.3125 60.0625 41.71875 63.234375 
Q 38.140625 66.40625 31.78125 66.40625 
Q 25.390625 66.40625 21.84375 63.234375 
Q 18.3125 60.0625 18.3125 54.390625 
z
" id="DejaVuSans-56"/>
       </defs>
       <use xlink:href="#DejaVuSans-56"/>
       <use x="63.623047" xlink:href="#DejaVuSans-48"/>
      </g>
     </g>
    </g>
    <g id="xtick_6">
     <g id="line2d_6">
      <g>
       <use style="stroke:#000000;stroke-width:0.8;" x="297.32149" xlink:href="#mb83da4e748" y="307.584"/>
      </g>
     </g>
     <g id="text_6">
      <!-- 100 -->
      <g transform="translate(287.77774 322.182437)scale(0.1 -0.1)">
       <defs>
        <path d="M 12.40625 8.296875 
L 28.515625 8.296875 
L 28.515625 63.921875 
L 10.984375 60.40625 
L 10.984375 69.390625 
L 28.421875 72.90625 
L 38.28125 72.90625 
L 38.28125 8.296875 
L 54.390625 8.296875 
L 54.390625 0 
L 12.40625 0 
z
" id="DejaVuSans-49"/>
       </defs>
       <use xlink:href="#DejaVuSans-49"/>
       <use x="63.623047" xlink:href="#DejaVuSans-48"/>
       <use x="127.246094" xlink:href="#DejaVuSans-48"/>
      </g>
     </g>
    </g>
    <g id="xtick_7">
     <g id="line2d_7">
      <g>
       <use style="stroke:#000000;stroke-width:0.8;" x="344.477636" xlink:href="#mb83da4e748" y="307.584"/>
      </g>
     </g>
     <g id="text_7">
      <!-- 120 -->
      <g transform="translate(334.933886 322.182437)scale(0.1 -0.1)">
       <use xlink:href="#DejaVuSans-49"/>
       <use x="63.623047" xlink:href="#DejaVuSans-50"/>
       <use x="127.246094" xlink:href="#DejaVuSans-48"/>
      </g>
     </g>
    </g>
    <g id="xtick_8">
     <g id="line2d_8">
      <g>
       <use style="stroke:#000000;stroke-width:0.8;" x="391.633783" xlink:href="#mb83da4e748" y="307.584"/>
      </g>
     </g>
     <g id="text_8">
      <!-- 140 -->
      <g transform="translate(382.090033 322.182437)scale(0.1 -0.1)">
       <use xlink:href="#DejaVuSans-49"/>
       <use x="63.623047" xlink:href="#DejaVuSans-52"/>
       <use x="127.246094" xlink:href="#DejaVuSans-48"/>
      </g>
     </g>
    </g>
   </g>
   <g id="matplotlib.axis_2">
    <g id="ytick_1">
     <g id="line2d_9">
      <defs>
       <path d="M 0 0 
L -3.5 0 
" id="m2c6d4fb6f0" style="stroke:#000000;stroke-width:0.8;"/>
      </defs>
      <g>
       <use style="stroke:#000000;stroke-width:0.8;" x="57.6" xlink:href="#m2c6d4fb6f0" y="294.330052"/>
      </g>
     </g>
     <g id="text_9">
      <!-- 0 -->
      <g transform="translate(44.2375 298.129271)scale(0.1 -0.1)">
       <use xlink:href="#DejaVuSans-48"/>
      </g>
     </g>
    </g>
    <g id="ytick_2">
     <g id="line2d_10">
      <g>
       <use style="stroke:#000000;stroke-width:0.8;" x="57.6" xlink:href="#m2c6d4fb6f0" y="247.173906"/>
      </g>
     </g>
     <g id="text_10">
      <!-- 20 -->
      <g transform="translate(37.875 250.973125)scale(0.1 -0.1)">
       <use xlink:href="#DejaVuSans-50"/>
       <use x="63.623047" xlink:href="#DejaVuSans-48"/>
      </g>
     </g>
    </g>
    <g id="ytick_3">
     <g id="line2d_11">
      <g>
       <use style="stroke:#000000;stroke-width:0.8;" x="57.6" xlink:href="#m2c6d4fb6f0" y="200.01776"/>
      </g>
     </g>
     <g id="text_11">
      <!-- 40 -->
      <g transform="translate(37.875 203.816979)scale(0.1 -0.1)">
       <use xlink:href="#DejaVuSans-52"/>
       <use x="63.623047" xlink:href="#DejaVuSans-48"/>
      </g>
     </g>
    </g>
    <g id="ytick_4">
     <g id="line2d_12">
      <g>
       <use style="stroke:#000000;stroke-width:0.8;" x="57.6" xlink:href="#m2c6d4fb6f0" y="152.861614"/>
      </g>
     </g>
     <g id="text_12">
      <!-- 60 -->
      <g transform="translate(37.875 156.660833)scale(0.1 -0.1)">
       <use xlink:href="#DejaVuSans-54"/>
       <use x="63.623047" xlink:href="#DejaVuSans-48"/>
      </g>
     </g>
    </g>
    <g id="ytick_5">
     <g id="line2d_13">
      <g>
       <use style="stroke:#000000;stroke-width:0.8;" x="57.6" xlink:href="#m2c6d4fb6f0" y="105.705468"/>
      </g>
     </g>
     <g id="text_13">
      <!-- 80 -->
      <g transform="translate(37.875 109.504686)scale(0.1 -0.1)">
       <use xlink:href="#DejaVuSans-56"/>
       <use x="63.623047" xlink:href="#DejaVuSans-48"/>
      </g>
     </g>
    </g>
    <g id="ytick_6">
     <g id="line2d_14">
      <g>
       <use style="stroke:#000000;stroke-width:0.8;" x="57.6" xlink:href="#m2c6d4fb6f0" y="58.549321"/>
      </g>
     </g>
     <g id="text_14">
      <!-- 100 -->
      <g transform="translate(31.5125 62.34854)scale(0.1 -0.1)">
       <use xlink:href="#DejaVuSans-49"/>
       <use x="63.623047" xlink:href="#DejaVuSans-48"/>
       <use x="127.246094" xlink:href="#DejaVuSans-48"/>
      </g>
     </g>
    </g>
   </g>
   <g id="line2d_15">
    <path clip-path="url(#pe001e54079)" d="M 85.118832 270.751979 
L 84.416206 268.389456 
L 83.883341 266.015144 
L 83.515523 263.631401 
L 83.308036 261.2453 
L 83.256165 258.861557 
L 83.352835 256.484887 
L 83.593331 254.122364 
L 83.975296 251.778704 
L 84.491656 249.460979 
L 85.137695 247.173906 
L 85.908698 244.9222 
L 86.797591 242.710577 
L 87.802017 240.54611 
L 88.91726 238.435872 
L 90.136246 236.382222 
L 91.454261 234.389875 
L 92.866587 232.468262 
L 94.36851 230.622099 
L 95.955315 228.853743 
L 97.619927 227.172627 
L 101.166069 224.065037 
L 104.947992 221.252173 
L 108.899677 218.658585 
L 115.013471 215.022846 
L 129.405527 206.893126 
L 135.658432 203.603985 
L 142.041016 200.529404 
L 146.377024 198.643158 
L 150.776692 196.914886 
L 155.240022 195.375237 
L 159.762296 194.05015 
L 164.341158 192.960843 
L 168.967176 192.074307 
L 175.976937 191.053377 
L 183.036212 190.284731 
L 197.154762 188.858258 
L 201.811432 188.165063 
L 206.418587 187.247876 
L 210.966797 186.052467 
L 215.451347 184.600058 
L 219.876951 182.93073 
L 224.238895 181.082209 
L 230.670993 178.061858 
L 236.952192 174.79158 
L 241.045345 172.445561 
L 245.046544 169.951001 
L 248.951073 167.289037 
L 252.742427 164.440806 
L 256.389955 161.406307 
L 259.855932 158.176111 
L 263.107348 154.745502 
L 266.106479 151.114479 
L 268.83682 147.2854 
L 271.362032 143.307779 
L 276.117729 135.140334 
L 279.75111 129.054833 
L 283.629703 123.141453 
L 287.737003 117.383687 
L 292.04236 111.753243 
L 296.543414 106.259552 
L 299.702876 102.739346 
L 303.036815 99.395975 
L 306.587673 96.281312 
L 310.390816 93.449585 
L 314.45096 90.947952 
L 318.725665 88.825925 
L 320.932573 87.922885 
L 323.179563 87.130662 
L 325.459563 86.456329 
L 327.770214 85.909317 
L 330.106801 85.489628 
L 332.46225 85.206691 
L 334.829489 85.055791 
L 337.206159 85.036929 
L 339.582828 85.145388 
L 341.954783 85.378811 
L 344.314948 85.737198 
L 346.65625 86.215832 
L 348.973975 86.81 
L 351.261048 87.522058 
L 353.510396 88.344932 
L 355.717304 89.278624 
L 357.874697 90.318417 
L 359.980219 91.461954 
L 362.022081 92.704518 
L 364.000281 94.043753 
L 365.903031 95.474942 
L 367.730332 96.995727 
L 369.475109 98.603752 
L 371.127932 100.291942 
L 372.688801 102.062655 
L 374.148284 103.906461 
L 375.513454 105.818642 
L 377.975005 109.836346 
L 380.111178 114.063895 
L 381.962057 118.461205 
L 383.565366 122.981122 
L 384.963546 127.578846 
L 386.755479 134.524946 
L 388.790267 143.642587 
L 389.266544 145.858926 
L 389.266544 145.858926 
" style="fill:none;stroke:#fea952;stroke-linecap:square;"/>
   </g>
   <g id="line2d_16">
    <path clip-path="url(#pe001e54079)" d="M 76.078923 273.440495 
L 75.213883 270.454725 
L 74.562422 267.453387 
L 74.11975 264.448425 
L 73.879039 261.450481 
L 73.832727 258.478262 
L 73.970094 255.529758 
L 74.284916 252.605299 
L 74.769755 249.727825 
L 75.415576 246.897221 
L 76.215034 244.118712 
L 77.157824 241.405058 
L 78.242619 238.740623 
L 79.46364 236.139347 
L 80.807134 233.62194 
L 82.270422 231.178677 
L 83.854803 228.804507 
L 85.550595 226.516427 
L 87.349033 224.323288 
L 89.253612 222.217836 
L 91.249574 220.218011 
L 93.301867 218.350523 
L 97.535045 214.962472 
L 101.828729 211.984732 
L 106.12048 209.30226 
L 114.448994 204.475904 
L 124.936437 198.587988 
L 131.45198 195.162786 
L 138.203651 191.914144 
L 142.841958 189.89951 
L 147.602837 188.033741 
L 152.473729 186.358824 
L 157.465994 184.902741 
L 162.471572 183.716778 
L 167.468678 182.762885 
L 174.867343 181.687647 
L 182.153567 180.894895 
L 195.861953 179.516057 
L 200.098512 178.89069 
L 204.157895 178.091601 
L 208.180599 177.042185 
L 212.216211 175.741052 
L 216.270904 174.216116 
L 220.346826 172.491523 
L 226.438176 169.633849 
L 232.336031 166.567277 
L 236.136217 164.392702 
L 239.817214 162.102295 
L 243.373787 159.683646 
L 246.808584 157.110213 
L 250.057507 154.41716 
L 253.116927 151.57809 
L 255.948623 148.605409 
L 258.518572 145.51343 
L 260.92905 142.145822 
L 263.264856 138.472096 
L 267.964078 130.400496 
L 271.793957 123.992048 
L 275.885634 117.75838 
L 280.188629 111.729474 
L 284.664072 105.878811 
L 289.447437 100.047049 
L 292.926636 96.17957 
L 296.686121 92.423403 
L 300.791607 88.841305 
L 302.988329 87.1413 
L 305.265353 85.532659 
L 307.62307 84.017446 
L 310.062623 82.599863 
L 312.567068 81.294815 
L 315.153966 80.097177 
L 317.796599 79.028294 
L 320.504719 78.086697 
L 323.286915 77.278764 
L 326.102891 76.626639 
L 328.982006 76.125712 
L 331.862274 75.794565 
L 334.75464 75.624859 
L 337.636105 75.615505 
L 340.50649 75.759498 
L 343.370667 76.054469 
L 346.203916 76.497074 
L 348.998288 77.080027 
L 351.777558 77.805112 
L 354.501244 78.664902 
L 357.18518 79.659079 
L 359.812068 80.782684 
L 362.375899 82.030639 
L 364.883073 83.405272 
L 367.309304 84.894694 
L 369.669473 86.506622 
L 371.936156 88.225839 
L 374.121896 90.0606 
L 376.214213 92.005831 
L 378.202848 94.055465 
L 380.0837 96.209148 
L 381.824069 98.426461 
L 383.444036 100.714335 
L 384.935557 103.04882 
L 387.577284 107.831696 
L 389.815465 112.718143 
L 391.720558 117.670265 
L 393.33647 122.617246 
L 394.729004 127.543458 
L 396.495676 134.766921 
L 398.487273 143.87745 
L 398.487273 143.87745 
" style="fill:none;stroke:#ffffff;stroke-linecap:square;"/>
   </g>
   <g id="line2d_17">
    <path clip-path="url(#pe001e54079)" d="M 94.158742 268.063463 
L 93.618529 266.324188 
L 93.204261 264.576902 
L 92.911297 262.814377 
L 92.737033 261.040119 
L 92.679602 259.244852 
L 92.901746 255.63943 
L 93.567735 252.024738 
L 94.659572 248.439342 
L 96.140394 244.952872 
L 98.002071 241.585768 
L 100.182579 238.420097 
L 102.657017 235.489651 
L 105.41811 232.806975 
L 108.527144 230.291076 
L 111.98593 227.878869 
L 115.720155 225.539211 
L 123.797264 220.858888 
L 133.874617 215.198264 
L 139.864884 212.045184 
L 145.878381 209.144665 
L 149.912091 207.386807 
L 153.950548 205.79603 
L 158.006314 204.391651 
L 162.058598 203.197558 
L 166.210744 202.204907 
L 170.465674 201.38573 
L 177.086531 200.419106 
L 183.918857 199.674568 
L 198.447572 198.200459 
L 203.524352 197.439435 
L 208.679279 196.40415 
L 213.752996 195.062749 
L 218.686483 193.459064 
L 223.482999 191.645345 
L 228.130963 189.672896 
L 234.90381 186.489868 
L 241.568352 183.015882 
L 245.954474 180.49842 
L 250.275874 177.799708 
L 254.528359 174.894427 
L 258.67627 171.771398 
L 262.722404 168.395455 
L 266.594937 164.774133 
L 270.266074 160.885594 
L 273.694386 156.715527 
L 276.74459 152.424978 
L 279.459208 148.143461 
L 284.27138 139.880172 
L 287.708263 134.117619 
L 291.373773 128.524525 
L 295.285378 123.0379 
L 299.420647 117.627676 
L 303.63939 112.472056 
L 306.479115 109.299122 
L 309.387509 106.368548 
L 312.383739 103.721319 
L 315.516279 101.366511 
L 318.839297 99.29604 
L 322.297364 97.554673 
L 325.854407 96.174626 
L 329.437536 95.191996 
L 333.062226 94.618817 
L 336.776213 94.458353 
L 340.538898 94.703153 
L 344.314213 95.351638 
L 348.020851 96.379214 
L 351.622539 97.774564 
L 355.077366 99.518635 
L 358.331088 101.580883 
L 361.338768 103.930855 
L 364.053016 106.528419 
L 366.472498 109.386461 
L 368.637782 112.544865 
L 370.584348 116.019031 
L 372.321431 119.771589 
L 373.863452 123.746126 
L 375.23724 127.928575 
L 376.461872 132.244968 
L 378.090443 138.894843 
L 380.045815 147.840402 
L 380.045815 147.840402 
" style="fill:none;stroke:#ffffff;stroke-linecap:square;"/>
   </g>
   <g id="patch_3">
    <path d="M 57.6 307.584 
L 57.6 41.472 
" style="fill:none;stroke:#000000;stroke-linecap:square;stroke-linejoin:miter;stroke-width:0.8;"/>
   </g>
   <g id="patch_4">
    <path d="M 414.72 307.584 
L 414.72 41.472 
" style="fill:none;stroke:#000000;stroke-linecap:square;stroke-linejoin:miter;stroke-width:0.8;"/>
   </g>
   <g id="patch_5">
    <path d="M 57.6 307.584 
L 414.72 307.584 
" style="fill:none;stroke:#000000;stroke-linecap:square;stroke-linejoin:miter;stroke-width:0.8;"/>
   </g>
   <g id="patch_6">
    <path d="M 57.6 41.472 
L 414.72 41.472 
" style="fill:none;stroke:#000000;stroke-linecap:square;stroke-linejoin:miter;stroke-width:0.8;"/>
   </g>
  </g>
 </g>
 <defs>
  <clipPath id="pe001e54079">
   <rect height="266.112" width="357.12" x="57.6" y="41.472"/>
  </clipPath>
 </defs>
</svg>
