<?xml version="1.0" encoding="utf-8" standalone="no"?>
<!DOCTYPE svg PUBLIC "-//W3C//DTD SVG 1.1//EN"
  "http://www.w3.org/Graphics/SVG/1.1/DTD/svg11.dtd">
<!-- Created with matplotlib (https://matplotlib.org/) -->
<svg height="345.6pt" version="1.1" viewBox="0 0 460.8 345.6" width="460.8pt" xmlns="http://www.w3.org/2000/svg" xmlns:xlink="http://www.w3.org/1999/xlink">
 <metadata>
  <rdf:RDF xmlns:cc="http://creativecommons.org/ns#" xmlns:dc="http://purl.org/dc/elements/1.1/" xmlns:rdf="http://www.w3.org/1999/02/22-rdf-syntax-ns#">
   <cc:Work>
    <dc:type rdf:resource="http://purl.org/dc/dcmitype/StillImage"/>
    <dc:date>2021-01-22T10:14:38.635011</dc:date>
    <dc:format>image/svg+xml</dc:format>
    <dc:creator>
     <cc:Agent>
      <dc:title>Matplotlib v3.3.3, https://matplotlib.org/</dc:title>
     </cc:Agent>
    </dc:creator>
   </cc:Work>
  </rdf:RDF>
 </metadata>
 <defs>
  <style type="text/css">*{stroke-linecap:butt;stroke-linejoin:round;}</style>
 </defs>
 <g id="figure_1">
  <g id="patch_1">
   <path d="M 0 345.6 
L 460.8 345.6 
L 460.8 0 
L 0 0 
z
" style="fill:#ffffff;"/>
  </g>
  <g id="axes_1">
   <g id="patch_2">
    <path d="M 57.6 307.584 
L 414.72 307.584 
L 414.72 41.472 
L 57.6 41.472 
z
" style="fill:#7d9051;"/>
   </g>
   <g id="matplotlib.axis_1">
    <g id="xtick_1">
     <g id="line2d_1">
      <defs>
       <path d="M 0 0 
L 0 3.5 
" id="mc5a05d3f10" style="stroke:#000000;stroke-width:0.8;"/>
      </defs>
      <g>
       <use style="stroke:#000000;stroke-width:0.8;" x="94.806367" xlink:href="#mc5a05d3f10" y="307.584"/>
      </g>
     </g>
     <g id="text_1">
      <!-- −20 -->
      <g transform="translate(84.254023 322.182437)scale(0.1 -0.1)">
       <defs>
        <path d="M 10.59375 35.5 
L 73.1875 35.5 
L 73.1875 27.203125 
L 10.59375 27.203125 
z
" id="DejaVuSans-8722"/>
        <path d="M 19.1875 8.296875 
L 53.609375 8.296875 
L 53.609375 0 
L 7.328125 0 
L 7.328125 8.296875 
Q 12.9375 14.109375 22.625 23.890625 
Q 32.328125 33.6875 34.8125 36.53125 
Q 39.546875 41.84375 41.421875 45.53125 
Q 43.3125 49.21875 43.3125 52.78125 
Q 43.3125 58.59375 39.234375 62.25 
Q 35.15625 65.921875 28.609375 65.921875 
Q 23.96875 65.921875 18.8125 64.3125 
Q 13.671875 62.703125 7.8125 59.421875 
L 7.8125 69.390625 
Q 13.765625 71.78125 18.9375 73 
Q 24.125 74.21875 28.421875 74.21875 
Q 39.75 74.21875 46.484375 68.546875 
Q 53.21875 62.890625 53.21875 53.421875 
Q 53.21875 48.921875 51.53125 44.890625 
Q 49.859375 40.875 45.40625 35.40625 
Q 44.1875 33.984375 37.640625 27.21875 
Q 31.109375 20.453125 19.1875 8.296875 
z
" id="DejaVuSans-50"/>
        <path d="M 31.78125 66.40625 
Q 24.171875 66.40625 20.328125 58.90625 
Q 16.5 51.421875 16.5 36.375 
Q 16.5 21.390625 20.328125 13.890625 
Q 24.171875 6.390625 31.78125 6.390625 
Q 39.453125 6.390625 43.28125 13.890625 
Q 47.125 21.390625 47.125 36.375 
Q 47.125 51.421875 43.28125 58.90625 
Q 39.453125 66.40625 31.78125 66.40625 
z
M 31.78125 74.21875 
Q 44.046875 74.21875 50.515625 64.515625 
Q 56.984375 54.828125 56.984375 36.375 
Q 56.984375 17.96875 50.515625 8.265625 
Q 44.046875 -1.421875 31.78125 -1.421875 
Q 19.53125 -1.421875 13.0625 8.265625 
Q 6.59375 17.96875 6.59375 36.375 
Q 6.59375 54.828125 13.0625 64.515625 
Q 19.53125 74.21875 31.78125 74.21875 
z
" id="DejaVuSans-48"/>
       </defs>
       <use xlink:href="#DejaVuSans-8722"/>
       <use x="83.789062" xlink:href="#DejaVuSans-50"/>
       <use x="147.412109" xlink:href="#DejaVuSans-48"/>
      </g>
     </g>
    </g>
    <g id="xtick_2">
     <g id="line2d_2">
      <g>
       <use style="stroke:#000000;stroke-width:0.8;" x="135.376915" xlink:href="#mc5a05d3f10" y="307.584"/>
      </g>
     </g>
     <g id="text_2">
      <!-- 0 -->
      <g transform="translate(132.195665 322.182437)scale(0.1 -0.1)">
       <use xlink:href="#DejaVuSans-48"/>
      </g>
     </g>
    </g>
    <g id="xtick_3">
     <g id="line2d_3">
      <g>
       <use style="stroke:#000000;stroke-width:0.8;" x="175.947463" xlink:href="#mc5a05d3f10" y="307.584"/>
      </g>
     </g>
     <g id="text_3">
      <!-- 20 -->
      <g transform="translate(169.584963 322.182437)scale(0.1 -0.1)">
       <use xlink:href="#DejaVuSans-50"/>
       <use x="63.623047" xlink:href="#DejaVuSans-48"/>
      </g>
     </g>
    </g>
    <g id="xtick_4">
     <g id="line2d_4">
      <g>
       <use style="stroke:#000000;stroke-width:0.8;" x="216.518011" xlink:href="#mc5a05d3f10" y="307.584"/>
      </g>
     </g>
     <g id="text_4">
      <!-- 40 -->
      <g transform="translate(210.155511 322.182437)scale(0.1 -0.1)">
       <defs>
        <path d="M 37.796875 64.3125 
L 12.890625 25.390625 
L 37.796875 25.390625 
z
M 35.203125 72.90625 
L 47.609375 72.90625 
L 47.609375 25.390625 
L 58.015625 25.390625 
L 58.015625 17.1875 
L 47.609375 17.1875 
L 47.609375 0 
L 37.796875 0 
L 37.796875 17.1875 
L 4.890625 17.1875 
L 4.890625 26.703125 
z
" id="DejaVuSans-52"/>
       </defs>
       <use xlink:href="#DejaVuSans-52"/>
       <use x="63.623047" xlink:href="#DejaVuSans-48"/>
      </g>
     </g>
    </g>
    <g id="xtick_5">
     <g id="line2d_5">
      <g>
       <use style="stroke:#000000;stroke-width:0.8;" x="257.088559" xlink:href="#mc5a05d3f10" y="307.584"/>
      </g>
     </g>
     <g id="text_5">
      <!-- 60 -->
      <g transform="translate(250.726059 322.182437)scale(0.1 -0.1)">
       <defs>
        <path d="M 33.015625 40.375 
Q 26.375 40.375 22.484375 35.828125 
Q 18.609375 31.296875 18.609375 23.390625 
Q 18.609375 15.53125 22.484375 10.953125 
Q 26.375 6.390625 33.015625 6.390625 
Q 39.65625 6.390625 43.53125 10.953125 
Q 47.40625 15.53125 47.40625 23.390625 
Q 47.40625 31.296875 43.53125 35.828125 
Q 39.65625 40.375 33.015625 40.375 
z
M 52.59375 71.296875 
L 52.59375 62.3125 
Q 48.875 64.0625 45.09375 64.984375 
Q 41.3125 65.921875 37.59375 65.921875 
Q 27.828125 65.921875 22.671875 59.328125 
Q 17.53125 52.734375 16.796875 39.40625 
Q 19.671875 43.65625 24.015625 45.921875 
Q 28.375 48.1875 33.59375 48.1875 
Q 44.578125 48.1875 50.953125 41.515625 
Q 57.328125 34.859375 57.328125 23.390625 
Q 57.328125 12.15625 50.6875 5.359375 
Q 44.046875 -1.421875 33.015625 -1.421875 
Q 20.359375 -1.421875 13.671875 8.265625 
Q 6.984375 17.96875 6.984375 36.375 
Q 6.984375 53.65625 15.1875 63.9375 
Q 23.390625 74.21875 37.203125 74.21875 
Q 40.921875 74.21875 44.703125 73.484375 
Q 48.484375 72.75 52.59375 71.296875 
z
" id="DejaVuSans-54"/>
       </defs>
       <use xlink:href="#DejaVuSans-54"/>
       <use x="63.623047" xlink:href="#DejaVuSans-48"/>
      </g>
     </g>
    </g>
    <g id="xtick_6">
     <g id="line2d_6">
      <g>
       <use style="stroke:#000000;stroke-width:0.8;" x="297.659107" xlink:href="#mc5a05d3f10" y="307.584"/>
      </g>
     </g>
     <g id="text_6">
      <!-- 80 -->
      <g transform="translate(291.296607 322.182437)scale(0.1 -0.1)">
       <defs>
        <path d="M 31.78125 34.625 
Q 24.75 34.625 20.71875 30.859375 
Q 16.703125 27.09375 16.703125 20.515625 
Q 16.703125 13.921875 20.71875 10.15625 
Q 24.75 6.390625 31.78125 6.390625 
Q 38.8125 6.390625 42.859375 10.171875 
Q 46.921875 13.96875 46.921875 20.515625 
Q 46.921875 27.09375 42.890625 30.859375 
Q 38.875 34.625 31.78125 34.625 
z
M 21.921875 38.8125 
Q 15.578125 40.375 12.03125 44.71875 
Q 8.5 49.078125 8.5 55.328125 
Q 8.5 64.0625 14.71875 69.140625 
Q 20.953125 74.21875 31.78125 74.21875 
Q 42.671875 74.21875 48.875 69.140625 
Q 55.078125 64.0625 55.078125 55.328125 
Q 55.078125 49.078125 51.53125 44.71875 
Q 48 40.375 41.703125 38.8125 
Q 48.828125 37.15625 52.796875 32.3125 
Q 56.78125 27.484375 56.78125 20.515625 
Q 56.78125 9.90625 50.3125 4.234375 
Q 43.84375 -1.421875 31.78125 -1.421875 
Q 19.734375 -1.421875 13.25 4.234375 
Q 6.78125 9.90625 6.78125 20.515625 
Q 6.78125 27.484375 10.78125 32.3125 
Q 14.796875 37.15625 21.921875 38.8125 
z
M 18.3125 54.390625 
Q 18.3125 48.734375 21.84375 45.5625 
Q 25.390625 42.390625 31.78125 42.390625 
Q 38.140625 42.390625 41.71875 45.5625 
Q 45.3125 48.734375 45.3125 54.390625 
Q 45.3125 60.0625 41.71875 63.234375 
Q 38.140625 66.40625 31.78125 66.40625 
Q 25.390625 66.40625 21.84375 63.234375 
Q 18.3125 60.0625 18.3125 54.390625 
z
" id="DejaVuSans-56"/>
       </defs>
       <use xlink:href="#DejaVuSans-56"/>
       <use x="63.623047" xlink:href="#DejaVuSans-48"/>
      </g>
     </g>
    </g>
    <g id="xtick_7">
     <g id="line2d_7">
      <g>
       <use style="stroke:#000000;stroke-width:0.8;" x="338.229656" xlink:href="#mc5a05d3f10" y="307.584"/>
      </g>
     </g>
     <g id="text_7">
      <!-- 100 -->
      <g transform="translate(328.685906 322.182437)scale(0.1 -0.1)">
       <defs>
        <path d="M 12.40625 8.296875 
L 28.515625 8.296875 
L 28.515625 63.921875 
L 10.984375 60.40625 
L 10.984375 69.390625 
L 28.421875 72.90625 
L 38.28125 72.90625 
L 38.28125 8.296875 
L 54.390625 8.296875 
L 54.390625 0 
L 12.40625 0 
z
" id="DejaVuSans-49"/>
       </defs>
       <use xlink:href="#DejaVuSans-49"/>
       <use x="63.623047" xlink:href="#DejaVuSans-48"/>
       <use x="127.246094" xlink:href="#DejaVuSans-48"/>
      </g>
     </g>
    </g>
    <g id="xtick_8">
     <g id="line2d_8">
      <g>
       <use style="stroke:#000000;stroke-width:0.8;" x="378.800204" xlink:href="#mc5a05d3f10" y="307.584"/>
      </g>
     </g>
     <g id="text_8">
      <!-- 120 -->
      <g transform="translate(369.256454 322.182437)scale(0.1 -0.1)">
       <use xlink:href="#DejaVuSans-49"/>
       <use x="63.623047" xlink:href="#DejaVuSans-50"/>
       <use x="127.246094" xlink:href="#DejaVuSans-48"/>
      </g>
     </g>
    </g>
   </g>
   <g id="matplotlib.axis_2">
    <g id="ytick_1">
     <g id="line2d_9">
      <defs>
       <path d="M 0 0 
L -3.5 0 
" id="mf3b674a555" style="stroke:#000000;stroke-width:0.8;"/>
      </defs>
      <g>
       <use style="stroke:#000000;stroke-width:0.8;" x="57.6" xlink:href="#mf3b674a555" y="273.142015"/>
      </g>
     </g>
     <g id="text_9">
      <!-- 20 -->
      <g transform="translate(37.875 276.941233)scale(0.1 -0.1)">
       <use xlink:href="#DejaVuSans-50"/>
       <use x="63.623047" xlink:href="#DejaVuSans-48"/>
      </g>
     </g>
    </g>
    <g id="ytick_2">
     <g id="line2d_10">
      <g>
       <use style="stroke:#000000;stroke-width:0.8;" x="57.6" xlink:href="#mf3b674a555" y="232.571467"/>
      </g>
     </g>
     <g id="text_10">
      <!-- 40 -->
      <g transform="translate(37.875 236.370685)scale(0.1 -0.1)">
       <use xlink:href="#DejaVuSans-52"/>
       <use x="63.623047" xlink:href="#DejaVuSans-48"/>
      </g>
     </g>
    </g>
    <g id="ytick_3">
     <g id="line2d_11">
      <g>
       <use style="stroke:#000000;stroke-width:0.8;" x="57.6" xlink:href="#mf3b674a555" y="192.000918"/>
      </g>
     </g>
     <g id="text_11">
      <!-- 60 -->
      <g transform="translate(37.875 195.800137)scale(0.1 -0.1)">
       <use xlink:href="#DejaVuSans-54"/>
       <use x="63.623047" xlink:href="#DejaVuSans-48"/>
      </g>
     </g>
    </g>
    <g id="ytick_4">
     <g id="line2d_12">
      <g>
       <use style="stroke:#000000;stroke-width:0.8;" x="57.6" xlink:href="#mf3b674a555" y="151.43037"/>
      </g>
     </g>
     <g id="text_12">
      <!-- 80 -->
      <g transform="translate(37.875 155.229589)scale(0.1 -0.1)">
       <use xlink:href="#DejaVuSans-56"/>
       <use x="63.623047" xlink:href="#DejaVuSans-48"/>
      </g>
     </g>
    </g>
    <g id="ytick_5">
     <g id="line2d_13">
      <g>
       <use style="stroke:#000000;stroke-width:0.8;" x="57.6" xlink:href="#mf3b674a555" y="110.859822"/>
      </g>
     </g>
     <g id="text_13">
      <!-- 100 -->
      <g transform="translate(31.5125 114.659041)scale(0.1 -0.1)">
       <use xlink:href="#DejaVuSans-49"/>
       <use x="63.623047" xlink:href="#DejaVuSans-48"/>
       <use x="127.246094" xlink:href="#DejaVuSans-48"/>
      </g>
     </g>
    </g>
    <g id="ytick_6">
     <g id="line2d_14">
      <g>
       <use style="stroke:#000000;stroke-width:0.8;" x="57.6" xlink:href="#mf3b674a555" y="70.289274"/>
      </g>
     </g>
     <g id="text_14">
      <!-- 120 -->
      <g transform="translate(31.5125 74.088493)scale(0.1 -0.1)">
       <use xlink:href="#DejaVuSans-49"/>
       <use x="63.623047" xlink:href="#DejaVuSans-50"/>
       <use x="127.246094" xlink:href="#DejaVuSans-48"/>
      </g>
     </g>
    </g>
   </g>
   <g id="line2d_15">
    <path clip-path="url(#pf0614d3323)" d="M 223.479917 61.678175 
L 217.548503 61.956083 
L 213.501591 62.31919 
L 209.424251 62.852693 
L 205.352996 63.578905 
L 201.322312 64.520142 
L 197.370741 65.700745 
L 193.536824 67.140999 
L 189.853018 68.867276 
L 186.359894 70.897832 
L 183.089908 73.25701 
L 180.053202 75.92858 
L 177.225435 78.857774 
L 174.586321 81.985763 
L 172.111518 85.261835 
L 169.78074 88.627162 
L 167.585873 92.057402 
L 165.530975 95.55864 
L 163.62213 99.134934 
L 161.867454 102.792369 
L 160.271003 106.535002 
L 158.853063 110.358776 
L 157.635946 114.253549 
L 156.650082 118.20512 
L 155.92184 122.19929 
L 155.475564 126.225917 
L 155.297054 130.272829 
L 155.32951 134.331913 
L 155.652046 140.431695 
L 156.481714 150.562161 
L 157.303268 158.625557 
L 158.086279 164.666512 
L 159.0904 170.695295 
L 159.962667 174.673237 
L 161.064157 178.586267 
L 162.447613 182.410041 
L 164.167804 186.11616 
L 166.242988 189.666083 
L 168.65085 193.003011 
L 171.375162 196.074201 
L 172.847873 197.494171 
L 174.391582 198.826913 
L 176.002233 200.064315 
L 177.677797 201.206376 
L 181.201349 203.210561 
L 184.909497 204.894239 
L 188.751528 206.306094 
L 192.678757 207.498868 
L 198.624371 208.993893 
L 216.386157 213.093546 
L 222.203973 214.878651 
L 227.93862 216.949777 
L 233.567784 219.290698 
L 239.089436 221.860842 
L 251.883358 228.013365 
L 257.476008 230.400942 
L 265.03633 233.35245 
L 278.304927 238.42174 
L 283.905692 240.797145 
L 287.583412 242.527479 
L 291.200276 244.407924 
L 294.727885 246.466879 
L 298.129726 248.726659 
L 301.357113 251.209576 
L 304.373533 253.939974 
L 307.130302 256.936109 
L 309.601048 260.191896 
L 311.757373 263.676906 
L 313.576962 267.350569 
L 315.037502 271.180429 
L 316.116678 275.129972 
L 316.788121 279.162684 
L 317.031544 283.244081 
L 316.984888 285.292894 
L 316.822606 287.339678 
L 316.54064 289.380377 
L 316.138992 291.410933 
L 315.609546 293.427289 
L 315.609546 293.427289 
" style="fill:none;stroke:#fea952;stroke-linecap:square;"/>
   </g>
   <g id="line2d_16">
    <path clip-path="url(#pf0614d3323)" d="M 223.732571 69.78835 
L 218.199445 70.04404 
L 212.606868 70.595968 
L 208.912599 71.158555 
L 205.287284 71.895766 
L 201.780063 72.816765 
L 198.431621 73.927895 
L 195.272133 75.238624 
L 192.321741 76.76016 
L 189.60853 78.492679 
L 187.037001 80.52953 
L 184.554616 82.892839 
L 182.163837 85.53849 
L 179.86296 88.419132 
L 176.571576 93.068256 
L 173.57867 97.835247 
L 171.755325 101.082916 
L 170.079219 104.382058 
L 168.548355 107.748071 
L 167.180649 111.165297 
L 165.994909 114.613333 
L 165.014381 118.06727 
L 164.258163 121.519246 
L 163.741766 124.957369 
L 163.466574 128.481776 
L 163.40143 132.139269 
L 163.612166 137.857759 
L 164.385827 147.82762 
L 165.359733 157.660079 
L 166.11038 163.461279 
L 167.036834 169.054272 
L 167.80762 172.60068 
L 168.748002 175.979103 
L 169.885482 179.167066 
L 171.26836 182.189217 
L 172.938444 185.082456 
L 174.85597 187.774697 
L 177.007157 190.233019 
L 179.334925 192.392464 
L 181.866789 194.257195 
L 184.706522 195.892601 
L 187.832542 197.32492 
L 191.196859 198.569226 
L 194.774958 199.6602 
L 200.405132 201.077601 
L 216.543607 204.73196 
L 220.711233 205.897526 
L 226.881735 207.905733 
L 232.942245 210.207993 
L 238.849393 212.772753 
L 246.316679 216.360219 
L 255.156939 220.588916 
L 260.502097 222.872227 
L 267.896925 225.75931 
L 281.381304 230.913432 
L 287.29261 233.423709 
L 291.2477 235.287882 
L 295.198193 237.347086 
L 299.109137 239.637281 
L 302.960626 242.207366 
L 306.671599 245.078099 
L 310.207349 248.300349 
L 311.891905 250.057078 
L 313.475773 251.879058 
L 314.982369 253.784148 
L 316.400229 255.763588 
L 317.715894 257.799625 
L 318.941176 259.904406 
L 320.065085 262.064176 
L 321.086696 264.277676 
L 322.00289 266.541588 
L 322.80963 268.849594 
L 323.503259 271.196758 
L 324.083866 273.592868 
L 324.539559 276.010999 
L 324.871937 278.462194 
L 325.074368 280.933827 
L 325.143551 283.42881 
L 325.073613 285.93422 
L 324.860353 288.450261 
L 324.500526 290.954859 
L 323.987065 293.471644 
L 323.457619 295.488 
L 323.457619 295.488 
" style="fill:none;stroke:#ffffff;stroke-linecap:square;"/>
   </g>
   <g id="line2d_17">
    <path clip-path="url(#pf0614d3323)" d="M 223.227264 53.568 
L 216.897561 53.868126 
L 212.538631 54.262424 
L 208.101927 54.847055 
L 203.619748 55.652076 
L 199.122684 56.709866 
L 194.658452 58.053375 
L 190.251112 59.721911 
L 185.940804 61.758595 
L 183.838429 62.925836 
L 181.782083 64.198398 
L 179.780416 65.578993 
L 177.866583 67.04769 
L 174.319711 70.186991 
L 171.103004 73.532869 
L 168.172807 77.015289 
L 165.485 80.579096 
L 162.989903 84.186068 
L 160.630226 87.879155 
L 158.413224 91.66295 
L 156.345263 95.545229 
L 154.442041 99.520976 
L 152.698359 103.620583 
L 151.14174 107.834044 
L 149.793936 112.169884 
L 148.69292 116.616929 
L 147.874579 121.159886 
L 147.375654 125.746103 
L 147.183009 130.240373 
L 147.22123 134.639412 
L 147.560018 141.029907 
L 148.402068 151.309223 
L 149.246803 159.591035 
L 150.062179 165.871744 
L 151.143966 172.336319 
L 152.117714 176.745794 
L 153.380312 181.19343 
L 155.009745 185.653016 
L 155.984811 187.867203 
L 157.067249 190.043104 
L 158.256003 192.173598 
L 159.547532 194.249711 
L 160.944879 196.273267 
L 162.44573 198.231325 
L 164.044683 200.112668 
L 165.743168 201.915384 
L 167.545381 203.636023 
L 169.44824 205.261362 
L 171.432264 206.769101 
L 173.488804 208.155557 
L 175.582335 209.4054 
L 179.832018 211.544032 
L 184.142253 213.291415 
L 188.438647 214.714789 
L 192.684953 215.898732 
L 198.873827 217.366737 
L 212.317706 220.400299 
L 217.760459 221.965171 
L 223.156039 223.812719 
L 228.471178 225.922909 
L 233.754808 228.302611 
L 250.553874 236.294356 
L 256.389781 238.709112 
L 265.984294 242.376343 
L 275.228551 245.930047 
L 280.518773 248.170581 
L 285.578029 250.604571 
L 288.795484 252.367596 
L 291.850857 254.256529 
L 294.703823 256.280505 
L 297.321261 258.439364 
L 299.682928 260.748007 
L 301.826065 263.285029 
L 303.72164 266.016435 
L 305.356476 268.9207 
L 306.704886 271.956953 
L 307.748291 275.087271 
L 308.468695 278.265429 
L 308.854838 281.464824 
L 308.896163 284.651568 
L 308.580755 287.805894 
L 308.290919 289.350221 
L 307.761474 291.366578 
L 307.761474 291.366578 
" style="fill:none;stroke:#ffffff;stroke-linecap:square;"/>
   </g>
   <g id="patch_3">
    <path d="M 57.6 307.584 
L 57.6 41.472 
" style="fill:none;stroke:#000000;stroke-linecap:square;stroke-linejoin:miter;stroke-width:0.8;"/>
   </g>
   <g id="patch_4">
    <path d="M 414.72 307.584 
L 414.72 41.472 
" style="fill:none;stroke:#000000;stroke-linecap:square;stroke-linejoin:miter;stroke-width:0.8;"/>
   </g>
   <g id="patch_5">
    <path d="M 57.6 307.584 
L 414.72 307.584 
" style="fill:none;stroke:#000000;stroke-linecap:square;stroke-linejoin:miter;stroke-width:0.8;"/>
   </g>
   <g id="patch_6">
    <path d="M 57.6 41.472 
L 414.72 41.472 
" style="fill:none;stroke:#000000;stroke-linecap:square;stroke-linejoin:miter;stroke-width:0.8;"/>
   </g>
  </g>
 </g>
 <defs>
  <clipPath id="pf0614d3323">
   <rect height="266.112" width="357.12" x="57.6" y="41.472"/>
  </clipPath>
 </defs>
</svg>
