<?xml version="1.0" encoding="utf-8" standalone="no"?>
<!DOCTYPE svg PUBLIC "-//W3C//DTD SVG 1.1//EN"
  "http://www.w3.org/Graphics/SVG/1.1/DTD/svg11.dtd">
<!-- Created with matplotlib (https://matplotlib.org/) -->
<svg height="345.6pt" version="1.1" viewBox="0 0 460.8 345.6" width="460.8pt" xmlns="http://www.w3.org/2000/svg" xmlns:xlink="http://www.w3.org/1999/xlink">
 <metadata>
  <rdf:RDF xmlns:cc="http://creativecommons.org/ns#" xmlns:dc="http://purl.org/dc/elements/1.1/" xmlns:rdf="http://www.w3.org/1999/02/22-rdf-syntax-ns#">
   <cc:Work>
    <dc:type rdf:resource="http://purl.org/dc/dcmitype/StillImage"/>
    <dc:date>2021-01-23T14:01:28.973384</dc:date>
    <dc:format>image/svg+xml</dc:format>
    <dc:creator>
     <cc:Agent>
      <dc:title>Matplotlib v3.3.3, https://matplotlib.org/</dc:title>
     </cc:Agent>
    </dc:creator>
   </cc:Work>
  </rdf:RDF>
 </metadata>
 <defs>
  <style type="text/css">*{stroke-linecap:butt;stroke-linejoin:round;}</style>
 </defs>
 <g id="figure_1">
  <g id="patch_1">
   <path d="M 0 345.6 
L 460.8 345.6 
L 460.8 0 
L 0 0 
z
" style="fill:#ffffff;"/>
  </g>
  <g id="axes_1">
   <g id="patch_2">
    <path d="M 57.6 307.584 
L 414.72 307.584 
L 414.72 41.472 
L 57.6 41.472 
z
" style="fill:#7d9051;"/>
   </g>
   <g id="matplotlib.axis_1">
    <g id="xtick_1">
     <g id="line2d_1">
      <defs>
       <path d="M 0 0 
L 0 3.5 
" id="m31062cccb7" style="stroke:#000000;stroke-width:0.8;"/>
      </defs>
      <g>
       <use style="stroke:#000000;stroke-width:0.8;" x="68.3275" xlink:href="#m31062cccb7" y="307.584"/>
      </g>
     </g>
     <g id="text_1">
      <!-- 0 -->
      <g transform="translate(65.14625 322.182437)scale(0.1 -0.1)">
       <defs>
        <path d="M 31.78125 66.40625 
Q 24.171875 66.40625 20.328125 58.90625 
Q 16.5 51.421875 16.5 36.375 
Q 16.5 21.390625 20.328125 13.890625 
Q 24.171875 6.390625 31.78125 6.390625 
Q 39.453125 6.390625 43.28125 13.890625 
Q 47.125 21.390625 47.125 36.375 
Q 47.125 51.421875 43.28125 58.90625 
Q 39.453125 66.40625 31.78125 66.40625 
z
M 31.78125 74.21875 
Q 44.046875 74.21875 50.515625 64.515625 
Q 56.984375 54.828125 56.984375 36.375 
Q 56.984375 17.96875 50.515625 8.265625 
Q 44.046875 -1.421875 31.78125 -1.421875 
Q 19.53125 -1.421875 13.0625 8.265625 
Q 6.59375 17.96875 6.59375 36.375 
Q 6.59375 54.828125 13.0625 64.515625 
Q 19.53125 74.21875 31.78125 74.21875 
z
" id="DejaVuSans-48"/>
       </defs>
       <use xlink:href="#DejaVuSans-48"/>
      </g>
     </g>
    </g>
    <g id="xtick_2">
     <g id="line2d_2">
      <g>
       <use style="stroke:#000000;stroke-width:0.8;" x="118.103031" xlink:href="#m31062cccb7" y="307.584"/>
      </g>
     </g>
     <g id="text_2">
      <!-- 20 -->
      <g transform="translate(111.740531 322.182437)scale(0.1 -0.1)">
       <defs>
        <path d="M 19.1875 8.296875 
L 53.609375 8.296875 
L 53.609375 0 
L 7.328125 0 
L 7.328125 8.296875 
Q 12.9375 14.109375 22.625 23.890625 
Q 32.328125 33.6875 34.8125 36.53125 
Q 39.546875 41.84375 41.421875 45.53125 
Q 43.3125 49.21875 43.3125 52.78125 
Q 43.3125 58.59375 39.234375 62.25 
Q 35.15625 65.921875 28.609375 65.921875 
Q 23.96875 65.921875 18.8125 64.3125 
Q 13.671875 62.703125 7.8125 59.421875 
L 7.8125 69.390625 
Q 13.765625 71.78125 18.9375 73 
Q 24.125 74.21875 28.421875 74.21875 
Q 39.75 74.21875 46.484375 68.546875 
Q 53.21875 62.890625 53.21875 53.421875 
Q 53.21875 48.921875 51.53125 44.890625 
Q 49.859375 40.875 45.40625 35.40625 
Q 44.1875 33.984375 37.640625 27.21875 
Q 31.109375 20.453125 19.1875 8.296875 
z
" id="DejaVuSans-50"/>
       </defs>
       <use xlink:href="#DejaVuSans-50"/>
       <use x="63.623047" xlink:href="#DejaVuSans-48"/>
      </g>
     </g>
    </g>
    <g id="xtick_3">
     <g id="line2d_3">
      <g>
       <use style="stroke:#000000;stroke-width:0.8;" x="167.878562" xlink:href="#m31062cccb7" y="307.584"/>
      </g>
     </g>
     <g id="text_3">
      <!-- 40 -->
      <g transform="translate(161.516062 322.182437)scale(0.1 -0.1)">
       <defs>
        <path d="M 37.796875 64.3125 
L 12.890625 25.390625 
L 37.796875 25.390625 
z
M 35.203125 72.90625 
L 47.609375 72.90625 
L 47.609375 25.390625 
L 58.015625 25.390625 
L 58.015625 17.1875 
L 47.609375 17.1875 
L 47.609375 0 
L 37.796875 0 
L 37.796875 17.1875 
L 4.890625 17.1875 
L 4.890625 26.703125 
z
" id="DejaVuSans-52"/>
       </defs>
       <use xlink:href="#DejaVuSans-52"/>
       <use x="63.623047" xlink:href="#DejaVuSans-48"/>
      </g>
     </g>
    </g>
    <g id="xtick_4">
     <g id="line2d_4">
      <g>
       <use style="stroke:#000000;stroke-width:0.8;" x="217.654092" xlink:href="#m31062cccb7" y="307.584"/>
      </g>
     </g>
     <g id="text_4">
      <!-- 60 -->
      <g transform="translate(211.291592 322.182437)scale(0.1 -0.1)">
       <defs>
        <path d="M 33.015625 40.375 
Q 26.375 40.375 22.484375 35.828125 
Q 18.609375 31.296875 18.609375 23.390625 
Q 18.609375 15.53125 22.484375 10.953125 
Q 26.375 6.390625 33.015625 6.390625 
Q 39.65625 6.390625 43.53125 10.953125 
Q 47.40625 15.53125 47.40625 23.390625 
Q 47.40625 31.296875 43.53125 35.828125 
Q 39.65625 40.375 33.015625 40.375 
z
M 52.59375 71.296875 
L 52.59375 62.3125 
Q 48.875 64.0625 45.09375 64.984375 
Q 41.3125 65.921875 37.59375 65.921875 
Q 27.828125 65.921875 22.671875 59.328125 
Q 17.53125 52.734375 16.796875 39.40625 
Q 19.671875 43.65625 24.015625 45.921875 
Q 28.375 48.1875 33.59375 48.1875 
Q 44.578125 48.1875 50.953125 41.515625 
Q 57.328125 34.859375 57.328125 23.390625 
Q 57.328125 12.15625 50.6875 5.359375 
Q 44.046875 -1.421875 33.015625 -1.421875 
Q 20.359375 -1.421875 13.671875 8.265625 
Q 6.984375 17.96875 6.984375 36.375 
Q 6.984375 53.65625 15.1875 63.9375 
Q 23.390625 74.21875 37.203125 74.21875 
Q 40.921875 74.21875 44.703125 73.484375 
Q 48.484375 72.75 52.59375 71.296875 
z
" id="DejaVuSans-54"/>
       </defs>
       <use xlink:href="#DejaVuSans-54"/>
       <use x="63.623047" xlink:href="#DejaVuSans-48"/>
      </g>
     </g>
    </g>
    <g id="xtick_5">
     <g id="line2d_5">
      <g>
       <use style="stroke:#000000;stroke-width:0.8;" x="267.429623" xlink:href="#m31062cccb7" y="307.584"/>
      </g>
     </g>
     <g id="text_5">
      <!-- 80 -->
      <g transform="translate(261.067123 322.182437)scale(0.1 -0.1)">
       <defs>
        <path d="M 31.78125 34.625 
Q 24.75 34.625 20.71875 30.859375 
Q 16.703125 27.09375 16.703125 20.515625 
Q 16.703125 13.921875 20.71875 10.15625 
Q 24.75 6.390625 31.78125 6.390625 
Q 38.8125 6.390625 42.859375 10.171875 
Q 46.921875 13.96875 46.921875 20.515625 
Q 46.921875 27.09375 42.890625 30.859375 
Q 38.875 34.625 31.78125 34.625 
z
M 21.921875 38.8125 
Q 15.578125 40.375 12.03125 44.71875 
Q 8.5 49.078125 8.5 55.328125 
Q 8.5 64.0625 14.71875 69.140625 
Q 20.953125 74.21875 31.78125 74.21875 
Q 42.671875 74.21875 48.875 69.140625 
Q 55.078125 64.0625 55.078125 55.328125 
Q 55.078125 49.078125 51.53125 44.71875 
Q 48 40.375 41.703125 38.8125 
Q 48.828125 37.15625 52.796875 32.3125 
Q 56.78125 27.484375 56.78125 20.515625 
Q 56.78125 9.90625 50.3125 4.234375 
Q 43.84375 -1.421875 31.78125 -1.421875 
Q 19.734375 -1.421875 13.25 4.234375 
Q 6.78125 9.90625 6.78125 20.515625 
Q 6.78125 27.484375 10.78125 32.3125 
Q 14.796875 37.15625 21.921875 38.8125 
z
M 18.3125 54.390625 
Q 18.3125 48.734375 21.84375 45.5625 
Q 25.390625 42.390625 31.78125 42.390625 
Q 38.140625 42.390625 41.71875 45.5625 
Q 45.3125 48.734375 45.3125 54.390625 
Q 45.3125 60.0625 41.71875 63.234375 
Q 38.140625 66.40625 31.78125 66.40625 
Q 25.390625 66.40625 21.84375 63.234375 
Q 18.3125 60.0625 18.3125 54.390625 
z
" id="DejaVuSans-56"/>
       </defs>
       <use xlink:href="#DejaVuSans-56"/>
       <use x="63.623047" xlink:href="#DejaVuSans-48"/>
      </g>
     </g>
    </g>
    <g id="xtick_6">
     <g id="line2d_6">
      <g>
       <use style="stroke:#000000;stroke-width:0.8;" x="317.205154" xlink:href="#m31062cccb7" y="307.584"/>
      </g>
     </g>
     <g id="text_6">
      <!-- 100 -->
      <g transform="translate(307.661404 322.182437)scale(0.1 -0.1)">
       <defs>
        <path d="M 12.40625 8.296875 
L 28.515625 8.296875 
L 28.515625 63.921875 
L 10.984375 60.40625 
L 10.984375 69.390625 
L 28.421875 72.90625 
L 38.28125 72.90625 
L 38.28125 8.296875 
L 54.390625 8.296875 
L 54.390625 0 
L 12.40625 0 
z
" id="DejaVuSans-49"/>
       </defs>
       <use xlink:href="#DejaVuSans-49"/>
       <use x="63.623047" xlink:href="#DejaVuSans-48"/>
       <use x="127.246094" xlink:href="#DejaVuSans-48"/>
      </g>
     </g>
    </g>
    <g id="xtick_7">
     <g id="line2d_7">
      <g>
       <use style="stroke:#000000;stroke-width:0.8;" x="366.980684" xlink:href="#m31062cccb7" y="307.584"/>
      </g>
     </g>
     <g id="text_7">
      <!-- 120 -->
      <g transform="translate(357.436934 322.182437)scale(0.1 -0.1)">
       <use xlink:href="#DejaVuSans-49"/>
       <use x="63.623047" xlink:href="#DejaVuSans-50"/>
       <use x="127.246094" xlink:href="#DejaVuSans-48"/>
      </g>
     </g>
    </g>
   </g>
   <g id="matplotlib.axis_2">
    <g id="ytick_1">
     <g id="line2d_8">
      <defs>
       <path d="M 0 0 
L -3.5 0 
" id="m9318939923" style="stroke:#000000;stroke-width:0.8;"/>
      </defs>
      <g>
       <use style="stroke:#000000;stroke-width:0.8;" x="57.6" xlink:href="#m9318939923" y="269.197787"/>
      </g>
     </g>
     <g id="text_8">
      <!-- 20 -->
      <g transform="translate(37.875 272.997005)scale(0.1 -0.1)">
       <use xlink:href="#DejaVuSans-50"/>
       <use x="63.623047" xlink:href="#DejaVuSans-48"/>
      </g>
     </g>
    </g>
    <g id="ytick_2">
     <g id="line2d_9">
      <g>
       <use style="stroke:#000000;stroke-width:0.8;" x="57.6" xlink:href="#m9318939923" y="219.422256"/>
      </g>
     </g>
     <g id="text_9">
      <!-- 40 -->
      <g transform="translate(37.875 223.221475)scale(0.1 -0.1)">
       <use xlink:href="#DejaVuSans-52"/>
       <use x="63.623047" xlink:href="#DejaVuSans-48"/>
      </g>
     </g>
    </g>
    <g id="ytick_3">
     <g id="line2d_10">
      <g>
       <use style="stroke:#000000;stroke-width:0.8;" x="57.6" xlink:href="#m9318939923" y="169.646725"/>
      </g>
     </g>
     <g id="text_10">
      <!-- 60 -->
      <g transform="translate(37.875 173.445944)scale(0.1 -0.1)">
       <use xlink:href="#DejaVuSans-54"/>
       <use x="63.623047" xlink:href="#DejaVuSans-48"/>
      </g>
     </g>
    </g>
    <g id="ytick_4">
     <g id="line2d_11">
      <g>
       <use style="stroke:#000000;stroke-width:0.8;" x="57.6" xlink:href="#m9318939923" y="119.871195"/>
      </g>
     </g>
     <g id="text_11">
      <!-- 80 -->
      <g transform="translate(37.875 123.670413)scale(0.1 -0.1)">
       <use xlink:href="#DejaVuSans-56"/>
       <use x="63.623047" xlink:href="#DejaVuSans-48"/>
      </g>
     </g>
    </g>
    <g id="ytick_5">
     <g id="line2d_12">
      <g>
       <use style="stroke:#000000;stroke-width:0.8;" x="57.6" xlink:href="#m9318939923" y="70.095664"/>
      </g>
     </g>
     <g id="text_12">
      <!-- 100 -->
      <g transform="translate(31.5125 73.894883)scale(0.1 -0.1)">
       <use xlink:href="#DejaVuSans-49"/>
       <use x="63.623047" xlink:href="#DejaVuSans-48"/>
       <use x="127.246094" xlink:href="#DejaVuSans-48"/>
      </g>
     </g>
    </g>
   </g>
   <g id="line2d_13">
    <path clip-path="url(#p770fc92675)" d="M 93.215266 54.354152 
L 93.426812 57.02461 
L 93.795151 59.612937 
L 94.312816 62.119135 
L 94.967364 64.553159 
L 95.751329 66.919985 
L 96.649777 69.222103 
L 98.762749 73.662081 
L 101.22166 77.917889 
L 103.951848 82.036814 
L 108.369426 88.047209 
L 115.92784 97.997338 
L 120.206047 104.129683 
L 127.030272 114.53028 
L 132.577755 122.788041 
L 136.910715 128.865633 
L 141.393002 134.841185 
L 146.022126 140.714698 
L 150.822976 146.451328 
L 154.147982 150.164583 
L 157.592448 153.758376 
L 161.176286 157.210309 
L 164.91194 160.500471 
L 168.789454 163.628864 
L 172.793895 166.602952 
L 176.907843 169.425224 
L 181.118853 172.09817 
L 185.411992 174.631745 
L 191.989829 178.170785 
L 198.721969 181.411172 
L 205.590993 184.367838 
L 212.581966 187.020874 
L 217.310641 188.598759 
L 222.089092 190.004917 
L 226.917319 191.224418 
L 231.790343 192.239839 
L 236.703188 193.05118 
L 241.648387 193.655952 
L 246.623451 194.054157 
L 251.618426 194.248281 
L 256.628333 194.23086 
L 261.628285 193.984471 
L 266.60086 193.481738 
L 271.521172 192.700262 
L 276.36682 191.615156 
L 281.127849 190.226418 
L 285.826659 188.613691 
L 299.883269 183.464413 
L 304.659231 181.976124 
L 309.499902 180.714314 
L 314.392836 179.716315 
L 319.330569 179.016969 
L 324.300656 178.651119 
L 329.293141 178.656096 
L 334.278161 179.044345 
L 339.225849 179.823332 
L 344.101362 181.005501 
L 348.874835 182.598318 
L 351.211796 183.55152 
L 353.506448 184.60925 
L 355.748836 185.771508 
L 357.933982 187.040784 
L 360.046953 188.414589 
L 362.085261 189.892922 
L 364.033973 191.475784 
L 365.888112 193.163175 
L 367.637721 194.955094 
L 369.275336 196.851542 
L 370.791001 198.850029 
L 372.184716 200.945579 
L 373.451503 203.123258 
L 374.593852 205.375601 
L 375.609273 207.692652 
L 376.495277 210.061967 
L 377.254354 212.473592 
L 377.879037 214.920059 
L 378.374303 217.388925 
L 378.737665 219.870236 
L 378.966632 222.356523 
L 379.071161 227.331588 
L 378.779974 232.306652 
L 378.190134 237.27425 
L 376.948234 244.693293 
L 373.307154 264.299874 
L 372.592876 269.197787 
L 372.052811 274.11312 
L 371.734248 279.048364 
L 371.684472 284.018451 
L 371.948282 289.028358 
L 372.572965 294.085552 
L 372.572965 294.085552 
" style="fill:none;stroke:#fea952;stroke-linecap:square;"/>
   </g>
   <g id="line2d_14">
    <path clip-path="url(#p770fc92675)" d="M 103.139282 53.568 
L 103.282621 55.622052 
L 103.544454 57.599178 
L 103.926382 59.533892 
L 104.417553 61.42297 
L 105.731441 65.144416 
L 107.466979 68.83088 
L 109.58882 72.523933 
L 112.058725 76.259039 
L 116.27114 81.991876 
L 124.019913 92.198846 
L 128.487664 98.605287 
L 136.687417 111.097812 
L 140.731422 117.076487 
L 144.925882 122.961293 
L 149.261788 128.743125 
L 153.726511 134.410208 
L 158.290883 139.868433 
L 162.976174 145.022162 
L 166.19168 148.257792 
L 169.522971 151.332998 
L 172.998675 154.269686 
L 176.63199 157.084378 
L 180.395877 159.772875 
L 184.270652 162.331627 
L 188.242484 164.767195 
L 194.358814 168.18645 
L 200.649692 171.331857 
L 207.099754 174.216369 
L 213.62606 176.811536 
L 218.00571 178.360484 
L 222.41267 179.74854 
L 226.837667 180.963236 
L 231.275765 181.990668 
L 235.763755 182.83232 
L 240.275777 183.485966 
L 244.816778 183.950892 
L 249.397219 184.227359 
L 253.973863 184.31419 
L 258.515965 184.202596 
L 262.988622 183.874799 
L 267.366949 183.317444 
L 271.618348 182.520584 
L 275.830176 181.440965 
L 280.164282 180.056542 
L 286.98925 177.561846 
L 294.269997 174.870707 
L 299.401052 173.160391 
L 304.68454 171.649858 
L 310.094189 170.397 
L 315.624392 169.44704 
L 321.255265 168.850957 
L 326.995366 168.653193 
L 329.877725 168.718169 
L 335.633379 169.181916 
L 338.500242 169.583581 
L 341.3718 170.102271 
L 344.216501 170.738883 
L 347.047708 171.496391 
L 349.856903 172.376509 
L 352.634607 173.380496 
L 355.379212 174.51068 
L 358.087523 175.770817 
L 360.749067 177.163267 
L 363.360435 178.694663 
L 365.891729 180.355883 
L 368.361763 182.16572 
L 370.734436 184.113181 
L 373.011022 186.208444 
L 375.172419 188.448754 
L 377.207303 190.835891 
L 379.080204 193.33702 
L 380.789784 195.939888 
L 382.329968 198.620258 
L 383.711821 201.379756 
L 384.933745 204.20577 
L 385.991104 207.073085 
L 386.899983 210.010669 
L 387.639685 212.962026 
L 388.224355 215.946491 
L 388.650823 218.957312 
L 388.912529 221.928422 
L 389.028751 224.852766 
L 389.01791 227.739404 
L 388.679399 233.358094 
L 388.031074 238.77759 
L 386.732159 246.531485 
L 383.146846 265.811363 
L 382.204802 272.643282 
L 381.805148 277.09761 
L 381.62701 281.479899 
L 381.705303 285.828197 
L 382.067917 290.147041 
L 382.42879 292.683104 
L 382.42879 292.683104 
" style="fill:none;stroke:#ffffff;stroke-linecap:square;"/>
   </g>
   <g id="line2d_15">
    <path clip-path="url(#p770fc92675)" d="M 83.291249 55.140305 
L 83.571003 58.427167 
L 84.045847 61.626696 
L 84.69925 64.704378 
L 85.517176 67.683347 
L 86.477458 70.539301 
L 87.568114 73.29979 
L 88.765745 75.943218 
L 91.421997 80.937679 
L 94.330835 85.596011 
L 97.375193 89.959552 
L 102.00024 96.102319 
L 107.835768 103.795829 
L 111.92443 109.654079 
L 118.712042 119.999392 
L 124.424088 128.499595 
L 128.895548 134.769973 
L 133.524216 140.939246 
L 138.317741 147.019188 
L 143.355069 153.034223 
L 146.897796 156.986529 
L 150.608137 160.852284 
L 154.515021 164.608396 
L 158.576088 168.179086 
L 162.775116 171.561825 
L 167.089686 174.761759 
L 171.505485 177.786962 
L 175.988222 180.629335 
L 180.566387 183.327965 
L 185.200776 185.865445 
L 189.900996 188.253987 
L 197.069203 191.576694 
L 204.369033 194.59101 
L 209.344652 196.434903 
L 214.408141 198.121344 
L 219.553137 199.631603 
L 224.78519 200.94852 
L 230.068242 202.044863 
L 235.390091 202.919306 
L 240.744407 203.56993 
L 246.1278 203.996916 
L 251.539262 204.203073 
L 256.994591 204.179226 
L 262.500097 203.901329 
L 268.021239 203.334995 
L 273.534836 202.449585 
L 279.013211 201.212069 
L 284.272935 199.671659 
L 289.263115 197.956866 
L 305.124027 192.23037 
L 309.462149 190.978361 
L 313.788594 189.961455 
L 318.089058 189.204114 
L 322.368493 188.730023 
L 326.598431 188.559448 
L 330.82825 188.711534 
L 335.0187 189.187035 
L 339.128131 189.987911 
L 343.14916 191.122782 
L 347.044381 192.59236 
L 350.748604 194.37975 
L 354.202177 196.473295 
L 357.33351 198.838388 
L 360.103023 201.461434 
L 361.34337 202.867192 
L 362.501799 204.363038 
L 363.579648 205.95127 
L 364.573039 207.626259 
L 365.475883 209.371446 
L 366.2848 211.179535 
L 367.608725 214.936514 
L 368.524252 218.83136 
L 369.020735 222.784625 
L 369.124411 226.923771 
L 368.880549 231.25521 
L 368.349194 235.77091 
L 367.164309 242.855101 
L 363.467462 262.788386 
L 362.708302 268.014846 
L 362.12691 273.351132 
L 361.78227 278.798816 
L 361.735759 284.375178 
L 362.047234 290.064401 
L 362.717141 295.488 
L 362.717141 295.488 
" style="fill:none;stroke:#ffffff;stroke-linecap:square;"/>
   </g>
   <g id="patch_3">
    <path d="M 57.6 307.584 
L 57.6 41.472 
" style="fill:none;stroke:#000000;stroke-linecap:square;stroke-linejoin:miter;stroke-width:0.8;"/>
   </g>
   <g id="patch_4">
    <path d="M 414.72 307.584 
L 414.72 41.472 
" style="fill:none;stroke:#000000;stroke-linecap:square;stroke-linejoin:miter;stroke-width:0.8;"/>
   </g>
   <g id="patch_5">
    <path d="M 57.6 307.584 
L 414.72 307.584 
" style="fill:none;stroke:#000000;stroke-linecap:square;stroke-linejoin:miter;stroke-width:0.8;"/>
   </g>
   <g id="patch_6">
    <path d="M 57.6 41.472 
L 414.72 41.472 
" style="fill:none;stroke:#000000;stroke-linecap:square;stroke-linejoin:miter;stroke-width:0.8;"/>
   </g>
  </g>
 </g>
 <defs>
  <clipPath id="p770fc92675">
   <rect height="266.112" width="357.12" x="57.6" y="41.472"/>
  </clipPath>
 </defs>
</svg>
