<?xml version="1.0" encoding="utf-8" standalone="no"?>
<!DOCTYPE svg PUBLIC "-//W3C//DTD SVG 1.1//EN"
  "http://www.w3.org/Graphics/SVG/1.1/DTD/svg11.dtd">
<!-- Created with matplotlib (https://matplotlib.org/) -->
<svg height="345.6pt" version="1.1" viewBox="0 0 460.8 345.6" width="460.8pt" xmlns="http://www.w3.org/2000/svg" xmlns:xlink="http://www.w3.org/1999/xlink">
 <metadata>
  <rdf:RDF xmlns:cc="http://creativecommons.org/ns#" xmlns:dc="http://purl.org/dc/elements/1.1/" xmlns:rdf="http://www.w3.org/1999/02/22-rdf-syntax-ns#">
   <cc:Work>
    <dc:type rdf:resource="http://purl.org/dc/dcmitype/StillImage"/>
    <dc:date>2021-01-23T13:30:57.555809</dc:date>
    <dc:format>image/svg+xml</dc:format>
    <dc:creator>
     <cc:Agent>
      <dc:title>Matplotlib v3.3.3, https://matplotlib.org/</dc:title>
     </cc:Agent>
    </dc:creator>
   </cc:Work>
  </rdf:RDF>
 </metadata>
 <defs>
  <style type="text/css">*{stroke-linecap:butt;stroke-linejoin:round;}</style>
 </defs>
 <g id="figure_1">
  <g id="patch_1">
   <path d="M 0 345.6 
L 460.8 345.6 
L 460.8 0 
L 0 0 
z
" style="fill:#ffffff;"/>
  </g>
  <g id="axes_1">
   <g id="patch_2">
    <path d="M 57.6 307.584 
L 414.72 307.584 
L 414.72 41.472 
L 57.6 41.472 
z
" style="fill:#7d9051;"/>
   </g>
   <g id="matplotlib.axis_1">
    <g id="xtick_1">
     <g id="line2d_1">
      <defs>
       <path d="M 0 0 
L 0 3.5 
" id="mae1af1259d" style="stroke:#000000;stroke-width:0.8;"/>
      </defs>
      <g>
       <use style="stroke:#000000;stroke-width:0.8;" x="97.936521" xlink:href="#mae1af1259d" y="307.584"/>
      </g>
     </g>
     <g id="text_1">
      <!-- 20 -->
      <g transform="translate(91.574021 322.182437)scale(0.1 -0.1)">
       <defs>
        <path d="M 19.1875 8.296875 
L 53.609375 8.296875 
L 53.609375 0 
L 7.328125 0 
L 7.328125 8.296875 
Q 12.9375 14.109375 22.625 23.890625 
Q 32.328125 33.6875 34.8125 36.53125 
Q 39.546875 41.84375 41.421875 45.53125 
Q 43.3125 49.21875 43.3125 52.78125 
Q 43.3125 58.59375 39.234375 62.25 
Q 35.15625 65.921875 28.609375 65.921875 
Q 23.96875 65.921875 18.8125 64.3125 
Q 13.671875 62.703125 7.8125 59.421875 
L 7.8125 69.390625 
Q 13.765625 71.78125 18.9375 73 
Q 24.125 74.21875 28.421875 74.21875 
Q 39.75 74.21875 46.484375 68.546875 
Q 53.21875 62.890625 53.21875 53.421875 
Q 53.21875 48.921875 51.53125 44.890625 
Q 49.859375 40.875 45.40625 35.40625 
Q 44.1875 33.984375 37.640625 27.21875 
Q 31.109375 20.453125 19.1875 8.296875 
z
" id="DejaVuSans-50"/>
        <path d="M 31.78125 66.40625 
Q 24.171875 66.40625 20.328125 58.90625 
Q 16.5 51.421875 16.5 36.375 
Q 16.5 21.390625 20.328125 13.890625 
Q 24.171875 6.390625 31.78125 6.390625 
Q 39.453125 6.390625 43.28125 13.890625 
Q 47.125 21.390625 47.125 36.375 
Q 47.125 51.421875 43.28125 58.90625 
Q 39.453125 66.40625 31.78125 66.40625 
z
M 31.78125 74.21875 
Q 44.046875 74.21875 50.515625 64.515625 
Q 56.984375 54.828125 56.984375 36.375 
Q 56.984375 17.96875 50.515625 8.265625 
Q 44.046875 -1.421875 31.78125 -1.421875 
Q 19.53125 -1.421875 13.0625 8.265625 
Q 6.59375 17.96875 6.59375 36.375 
Q 6.59375 54.828125 13.0625 64.515625 
Q 19.53125 74.21875 31.78125 74.21875 
z
" id="DejaVuSans-48"/>
       </defs>
       <use xlink:href="#DejaVuSans-50"/>
       <use x="63.623047" xlink:href="#DejaVuSans-48"/>
      </g>
     </g>
    </g>
    <g id="xtick_2">
     <g id="line2d_2">
      <g>
       <use style="stroke:#000000;stroke-width:0.8;" x="144.60696" xlink:href="#mae1af1259d" y="307.584"/>
      </g>
     </g>
     <g id="text_2">
      <!-- 40 -->
      <g transform="translate(138.24446 322.182437)scale(0.1 -0.1)">
       <defs>
        <path d="M 37.796875 64.3125 
L 12.890625 25.390625 
L 37.796875 25.390625 
z
M 35.203125 72.90625 
L 47.609375 72.90625 
L 47.609375 25.390625 
L 58.015625 25.390625 
L 58.015625 17.1875 
L 47.609375 17.1875 
L 47.609375 0 
L 37.796875 0 
L 37.796875 17.1875 
L 4.890625 17.1875 
L 4.890625 26.703125 
z
" id="DejaVuSans-52"/>
       </defs>
       <use xlink:href="#DejaVuSans-52"/>
       <use x="63.623047" xlink:href="#DejaVuSans-48"/>
      </g>
     </g>
    </g>
    <g id="xtick_3">
     <g id="line2d_3">
      <g>
       <use style="stroke:#000000;stroke-width:0.8;" x="191.277399" xlink:href="#mae1af1259d" y="307.584"/>
      </g>
     </g>
     <g id="text_3">
      <!-- 60 -->
      <g transform="translate(184.914899 322.182437)scale(0.1 -0.1)">
       <defs>
        <path d="M 33.015625 40.375 
Q 26.375 40.375 22.484375 35.828125 
Q 18.609375 31.296875 18.609375 23.390625 
Q 18.609375 15.53125 22.484375 10.953125 
Q 26.375 6.390625 33.015625 6.390625 
Q 39.65625 6.390625 43.53125 10.953125 
Q 47.40625 15.53125 47.40625 23.390625 
Q 47.40625 31.296875 43.53125 35.828125 
Q 39.65625 40.375 33.015625 40.375 
z
M 52.59375 71.296875 
L 52.59375 62.3125 
Q 48.875 64.0625 45.09375 64.984375 
Q 41.3125 65.921875 37.59375 65.921875 
Q 27.828125 65.921875 22.671875 59.328125 
Q 17.53125 52.734375 16.796875 39.40625 
Q 19.671875 43.65625 24.015625 45.921875 
Q 28.375 48.1875 33.59375 48.1875 
Q 44.578125 48.1875 50.953125 41.515625 
Q 57.328125 34.859375 57.328125 23.390625 
Q 57.328125 12.15625 50.6875 5.359375 
Q 44.046875 -1.421875 33.015625 -1.421875 
Q 20.359375 -1.421875 13.671875 8.265625 
Q 6.984375 17.96875 6.984375 36.375 
Q 6.984375 53.65625 15.1875 63.9375 
Q 23.390625 74.21875 37.203125 74.21875 
Q 40.921875 74.21875 44.703125 73.484375 
Q 48.484375 72.75 52.59375 71.296875 
z
" id="DejaVuSans-54"/>
       </defs>
       <use xlink:href="#DejaVuSans-54"/>
       <use x="63.623047" xlink:href="#DejaVuSans-48"/>
      </g>
     </g>
    </g>
    <g id="xtick_4">
     <g id="line2d_4">
      <g>
       <use style="stroke:#000000;stroke-width:0.8;" x="237.947838" xlink:href="#mae1af1259d" y="307.584"/>
      </g>
     </g>
     <g id="text_4">
      <!-- 80 -->
      <g transform="translate(231.585338 322.182437)scale(0.1 -0.1)">
       <defs>
        <path d="M 31.78125 34.625 
Q 24.75 34.625 20.71875 30.859375 
Q 16.703125 27.09375 16.703125 20.515625 
Q 16.703125 13.921875 20.71875 10.15625 
Q 24.75 6.390625 31.78125 6.390625 
Q 38.8125 6.390625 42.859375 10.171875 
Q 46.921875 13.96875 46.921875 20.515625 
Q 46.921875 27.09375 42.890625 30.859375 
Q 38.875 34.625 31.78125 34.625 
z
M 21.921875 38.8125 
Q 15.578125 40.375 12.03125 44.71875 
Q 8.5 49.078125 8.5 55.328125 
Q 8.5 64.0625 14.71875 69.140625 
Q 20.953125 74.21875 31.78125 74.21875 
Q 42.671875 74.21875 48.875 69.140625 
Q 55.078125 64.0625 55.078125 55.328125 
Q 55.078125 49.078125 51.53125 44.71875 
Q 48 40.375 41.703125 38.8125 
Q 48.828125 37.15625 52.796875 32.3125 
Q 56.78125 27.484375 56.78125 20.515625 
Q 56.78125 9.90625 50.3125 4.234375 
Q 43.84375 -1.421875 31.78125 -1.421875 
Q 19.734375 -1.421875 13.25 4.234375 
Q 6.78125 9.90625 6.78125 20.515625 
Q 6.78125 27.484375 10.78125 32.3125 
Q 14.796875 37.15625 21.921875 38.8125 
z
M 18.3125 54.390625 
Q 18.3125 48.734375 21.84375 45.5625 
Q 25.390625 42.390625 31.78125 42.390625 
Q 38.140625 42.390625 41.71875 45.5625 
Q 45.3125 48.734375 45.3125 54.390625 
Q 45.3125 60.0625 41.71875 63.234375 
Q 38.140625 66.40625 31.78125 66.40625 
Q 25.390625 66.40625 21.84375 63.234375 
Q 18.3125 60.0625 18.3125 54.390625 
z
" id="DejaVuSans-56"/>
       </defs>
       <use xlink:href="#DejaVuSans-56"/>
       <use x="63.623047" xlink:href="#DejaVuSans-48"/>
      </g>
     </g>
    </g>
    <g id="xtick_5">
     <g id="line2d_5">
      <g>
       <use style="stroke:#000000;stroke-width:0.8;" x="284.618277" xlink:href="#mae1af1259d" y="307.584"/>
      </g>
     </g>
     <g id="text_5">
      <!-- 100 -->
      <g transform="translate(275.074527 322.182437)scale(0.1 -0.1)">
       <defs>
        <path d="M 12.40625 8.296875 
L 28.515625 8.296875 
L 28.515625 63.921875 
L 10.984375 60.40625 
L 10.984375 69.390625 
L 28.421875 72.90625 
L 38.28125 72.90625 
L 38.28125 8.296875 
L 54.390625 8.296875 
L 54.390625 0 
L 12.40625 0 
z
" id="DejaVuSans-49"/>
       </defs>
       <use xlink:href="#DejaVuSans-49"/>
       <use x="63.623047" xlink:href="#DejaVuSans-48"/>
       <use x="127.246094" xlink:href="#DejaVuSans-48"/>
      </g>
     </g>
    </g>
    <g id="xtick_6">
     <g id="line2d_6">
      <g>
       <use style="stroke:#000000;stroke-width:0.8;" x="331.288717" xlink:href="#mae1af1259d" y="307.584"/>
      </g>
     </g>
     <g id="text_6">
      <!-- 120 -->
      <g transform="translate(321.744967 322.182437)scale(0.1 -0.1)">
       <use xlink:href="#DejaVuSans-49"/>
       <use x="63.623047" xlink:href="#DejaVuSans-50"/>
       <use x="127.246094" xlink:href="#DejaVuSans-48"/>
      </g>
     </g>
    </g>
    <g id="xtick_7">
     <g id="line2d_7">
      <g>
       <use style="stroke:#000000;stroke-width:0.8;" x="377.959156" xlink:href="#mae1af1259d" y="307.584"/>
      </g>
     </g>
     <g id="text_7">
      <!-- 140 -->
      <g transform="translate(368.415406 322.182437)scale(0.1 -0.1)">
       <use xlink:href="#DejaVuSans-49"/>
       <use x="63.623047" xlink:href="#DejaVuSans-52"/>
       <use x="127.246094" xlink:href="#DejaVuSans-48"/>
      </g>
     </g>
    </g>
   </g>
   <g id="matplotlib.axis_2">
    <g id="ytick_1">
     <g id="line2d_8">
      <defs>
       <path d="M 0 0 
L -3.5 0 
" id="m48071d0048" style="stroke:#000000;stroke-width:0.8;"/>
      </defs>
      <g>
       <use style="stroke:#000000;stroke-width:0.8;" x="57.6" xlink:href="#m48071d0048" y="261.844667"/>
      </g>
     </g>
     <g id="text_8">
      <!-- 0 -->
      <g transform="translate(44.2375 265.643885)scale(0.1 -0.1)">
       <use xlink:href="#DejaVuSans-48"/>
      </g>
     </g>
    </g>
    <g id="ytick_2">
     <g id="line2d_9">
      <g>
       <use style="stroke:#000000;stroke-width:0.8;" x="57.6" xlink:href="#m48071d0048" y="215.174227"/>
      </g>
     </g>
     <g id="text_9">
      <!-- 20 -->
      <g transform="translate(37.875 218.973446)scale(0.1 -0.1)">
       <use xlink:href="#DejaVuSans-50"/>
       <use x="63.623047" xlink:href="#DejaVuSans-48"/>
      </g>
     </g>
    </g>
    <g id="ytick_3">
     <g id="line2d_10">
      <g>
       <use style="stroke:#000000;stroke-width:0.8;" x="57.6" xlink:href="#m48071d0048" y="168.503788"/>
      </g>
     </g>
     <g id="text_10">
      <!-- 40 -->
      <g transform="translate(37.875 172.303007)scale(0.1 -0.1)">
       <use xlink:href="#DejaVuSans-52"/>
       <use x="63.623047" xlink:href="#DejaVuSans-48"/>
      </g>
     </g>
    </g>
    <g id="ytick_4">
     <g id="line2d_11">
      <g>
       <use style="stroke:#000000;stroke-width:0.8;" x="57.6" xlink:href="#m48071d0048" y="121.833349"/>
      </g>
     </g>
     <g id="text_11">
      <!-- 60 -->
      <g transform="translate(37.875 125.632568)scale(0.1 -0.1)">
       <use xlink:href="#DejaVuSans-54"/>
       <use x="63.623047" xlink:href="#DejaVuSans-48"/>
      </g>
     </g>
    </g>
    <g id="ytick_5">
     <g id="line2d_12">
      <g>
       <use style="stroke:#000000;stroke-width:0.8;" x="57.6" xlink:href="#m48071d0048" y="75.16291"/>
      </g>
     </g>
     <g id="text_12">
      <!-- 80 -->
      <g transform="translate(37.875 78.962129)scale(0.1 -0.1)">
       <use xlink:href="#DejaVuSans-56"/>
       <use x="63.623047" xlink:href="#DejaVuSans-48"/>
      </g>
     </g>
    </g>
   </g>
   <g id="line2d_13">
    <path clip-path="url(#p939ad9c883)" d="M 387.841621 197.931834 
L 388.686356 193.353464 
L 389.104057 188.684086 
L 389.104057 183.972705 
L 388.686356 179.261325 
L 387.860289 174.596614 
L 386.625856 170.022911 
L 384.990057 165.589219 
L 384.023979 163.440046 
L 382.95756 161.339876 
L 381.795466 159.298044 
L 380.535364 157.319218 
L 379.179588 155.410397 
L 377.725804 153.576248 
L 376.178678 151.819106 
L 374.540546 150.143637 
L 371.026262 147.033053 
L 367.234289 144.24216 
L 363.218297 141.768627 
L 359.027292 139.614786 
L 354.710276 137.773638 
L 350.290586 136.226513 
L 345.786888 134.950076 
L 341.222519 133.923326 
L 336.613814 133.118261 
L 329.657585 132.252525 
L 315.74046 130.754404 
L 311.141088 130.024011 
L 306.569718 129.111604 
L 299.751167 127.515475 
L 286.1304 124.187873 
L 277.001662 122.246382 
L 267.819253 120.56858 
L 249.396097 117.502332 
L 244.834061 116.543255 
L 238.045846 114.846784 
L 229.003448 112.52493 
L 224.436746 111.547184 
L 219.809372 110.814458 
L 215.13066 110.387424 
L 210.430947 110.291749 
L 205.742902 110.553104 
L 201.096859 111.19949 
L 196.530157 112.256575 
L 192.068463 113.72436 
L 187.749114 115.581844 
L 183.600112 117.80569 
L 179.65646 120.377231 
L 175.94616 123.270799 
L 172.492547 126.463057 
L 169.304956 129.916669 
L 166.392721 133.6013 
L 163.767509 137.481947 
L 161.438654 141.530608 
L 159.366486 145.705279 
L 156.568593 152.124798 
L 152.055562 162.910336 
L 149.091989 169.264516 
L 145.890397 175.492687 
L 142.443785 181.583179 
L 138.766154 187.535993 
L 133.639407 195.336957 
L 123.199229 210.82921 
L 120.441006 214.590847 
L 117.519437 218.238142 
L 114.385517 221.729091 
L 111.018245 225.024024 
L 107.429288 228.071603 
L 103.630314 230.83216 
L 99.630657 233.256689 
L 97.55849 234.327776 
L 95.441986 235.296187 
L 93.283478 236.15959 
L 91.080633 236.908651 
L 88.835785 237.541035 
L 86.5536 238.04741 
L 84.23408 238.423107 
L 81.877222 238.66346 
L 79.485362 238.761467 
L 77.0585 238.712463 
L 74.601301 238.509447 
L 74.601301 238.509447 
" style="fill:none;stroke:#fea952;stroke-linecap:square;"/>
   </g>
   <g id="line2d_14">
    <path clip-path="url(#p939ad9c883)" d="M 378.703498 196.02923 
L 379.410613 192.311454 
L 379.772191 188.480415 
L 379.790398 184.589931 
L 379.461553 180.685472 
L 378.797375 176.830172 
L 377.79785 173.054659 
L 376.476546 169.41614 
L 374.845327 165.956895 
L 372.925474 162.724286 
L 370.720239 159.744494 
L 368.191295 156.985583 
L 365.332931 154.429754 
L 362.183077 152.091393 
L 358.801826 149.991764 
L 355.216584 148.135567 
L 351.483863 146.532373 
L 347.619557 145.17027 
L 343.61737 144.028533 
L 339.510221 143.099013 
L 335.318566 142.362045 
L 328.706658 141.538047 
L 314.385097 139.989564 
L 309.393279 139.193 
L 304.533001 138.220774 
L 297.49609 136.573059 
L 284.086783 133.295497 
L 275.228561 131.410514 
L 266.308933 129.779667 
L 247.545767 126.651183 
L 242.675884 125.624415 
L 235.657066 123.870028 
L 226.942075 121.628552 
L 222.82683 120.741387 
L 218.797947 120.093586 
L 214.769074 119.714505 
L 210.764757 119.619866 
L 206.829735 119.823702 
L 202.993531 120.338846 
L 199.247147 121.186478 
L 195.562202 122.379936 
L 191.978885 123.902554 
L 188.529698 125.731873 
L 185.239121 127.857812 
L 182.141065 130.2528 
L 179.225854 132.927403 
L 176.517976 135.840987 
L 174.02814 138.970245 
L 171.773067 142.281555 
L 169.74195 145.794463 
L 167.866164 149.562825 
L 165.197302 155.684373 
L 160.563502 166.749626 
L 157.448098 173.423919 
L 154.074387 179.981283 
L 150.437794 186.401997 
L 146.609283 192.596679 
L 141.392894 200.53394 
L 130.773808 216.283653 
L 127.798332 220.33497 
L 124.563591 224.362281 
L 121.027209 228.28753 
L 117.188982 232.027394 
L 113.069671 235.508758 
L 110.88638 237.154741 
L 108.641557 238.70697 
L 106.316929 240.175757 
L 103.916665 241.548573 
L 101.442103 242.815576 
L 98.908579 243.96267 
L 96.288482 244.996736 
L 93.611582 245.893054 
L 90.857673 246.653508 
L 88.04601 247.261416 
L 85.18106 247.709033 
L 82.259372 247.989721 
L 79.296924 248.093653 
L 76.289926 248.014855 
L 73.832727 247.811839 
L 73.832727 247.811839 
" style="fill:none;stroke:#ffffff;stroke-linecap:square;"/>
   </g>
   <g id="line2d_15">
    <path clip-path="url(#p939ad9c883)" d="M 396.979744 199.834438 
L 397.530605 197.141178 
L 397.962099 194.395473 
L 398.261084 191.648452 
L 398.435922 188.887758 
L 398.487273 186.128828 
L 398.417715 183.35548 
L 398.224709 180.582737 
L 397.91116 177.837177 
L 397.477486 175.087903 
L 396.923204 172.363056 
L 396.249216 169.665979 
L 395.453863 166.991163 
L 394.539781 164.358973 
L 393.503569 161.762299 
L 392.346588 159.21401 
L 391.069793 156.722856 
L 389.668747 154.284398 
L 388.145254 151.914149 
L 386.494542 149.612411 
L 384.731368 147.408002 
L 382.85282 145.293692 
L 380.889797 143.301692 
L 378.844047 141.417305 
L 376.719592 139.636352 
L 374.531881 137.963332 
L 372.285501 136.392928 
L 367.634769 133.54549 
L 362.838 131.094006 
L 357.93669 129.014902 
L 352.961614 127.282755 
L 347.956407 125.871619 
L 342.934818 124.747639 
L 337.909061 123.874478 
L 330.608512 122.967002 
L 317.095822 121.519243 
L 312.888897 120.855022 
L 306.430848 119.516568 
L 297.480983 117.325988 
L 288.174016 115.080248 
L 278.774762 113.082251 
L 269.329573 111.357493 
L 251.246426 108.353481 
L 244.842899 106.952119 
L 228.572636 102.859638 
L 223.440862 101.901729 
L 218.16128 101.251217 
L 212.801657 100.962347 
L 207.378177 101.068349 
L 204.656068 101.282506 
L 201.929216 101.610895 
L 199.200187 102.060133 
L 196.491129 102.632276 
L 193.813167 103.326672 
L 191.167675 104.141428 
L 188.574724 105.068785 
L 186.009747 106.114283 
L 183.519342 107.261133 
L 181.064163 108.519083 
L 178.670525 109.879507 
L 176.335446 111.341884 
L 174.073798 112.896651 
L 171.875913 114.547395 
L 169.751254 116.288797 
L 165.75924 119.998711 
L 162.091937 123.992351 
L 158.757301 128.232356 
L 155.76195 132.68234 
L 153.135357 137.266753 
L 150.866808 141.847732 
L 147.939884 148.565222 
L 143.547621 159.071046 
L 140.735879 165.105114 
L 137.706407 171.00409 
L 134.449776 176.76436 
L 130.923026 182.475308 
L 125.885919 190.139975 
L 115.624651 205.374766 
L 113.08368 208.846724 
L 110.475282 212.114002 
L 107.743825 215.170651 
L 104.847507 218.020653 
L 101.788905 220.634448 
L 98.619071 222.957349 
L 95.34465 224.964805 
L 91.975392 226.629704 
L 88.549684 227.924248 
L 85.061191 228.833404 
L 81.495073 229.337198 
L 79.673801 229.429282 
L 77.827073 229.410072 
L 75.369875 229.207055 
L 75.369875 229.207055 
" style="fill:none;stroke:#ffffff;stroke-linecap:square;"/>
   </g>
   <g id="patch_3">
    <path d="M 57.6 307.584 
L 57.6 41.472 
" style="fill:none;stroke:#000000;stroke-linecap:square;stroke-linejoin:miter;stroke-width:0.8;"/>
   </g>
   <g id="patch_4">
    <path d="M 414.72 307.584 
L 414.72 41.472 
" style="fill:none;stroke:#000000;stroke-linecap:square;stroke-linejoin:miter;stroke-width:0.8;"/>
   </g>
   <g id="patch_5">
    <path d="M 57.6 307.584 
L 414.72 307.584 
" style="fill:none;stroke:#000000;stroke-linecap:square;stroke-linejoin:miter;stroke-width:0.8;"/>
   </g>
   <g id="patch_6">
    <path d="M 57.6 41.472 
L 414.72 41.472 
" style="fill:none;stroke:#000000;stroke-linecap:square;stroke-linejoin:miter;stroke-width:0.8;"/>
   </g>
  </g>
 </g>
 <defs>
  <clipPath id="p939ad9c883">
   <rect height="266.112" width="357.12" x="57.6" y="41.472"/>
  </clipPath>
 </defs>
</svg>
