<?xml version="1.0" encoding="utf-8" standalone="no"?>
<!DOCTYPE svg PUBLIC "-//W3C//DTD SVG 1.1//EN"
  "http://www.w3.org/Graphics/SVG/1.1/DTD/svg11.dtd">
<!-- Created with matplotlib (https://matplotlib.org/) -->
<svg height="345.6pt" version="1.1" viewBox="0 0 460.8 345.6" width="460.8pt" xmlns="http://www.w3.org/2000/svg" xmlns:xlink="http://www.w3.org/1999/xlink">
 <metadata>
  <rdf:RDF xmlns:cc="http://creativecommons.org/ns#" xmlns:dc="http://purl.org/dc/elements/1.1/" xmlns:rdf="http://www.w3.org/1999/02/22-rdf-syntax-ns#">
   <cc:Work>
    <dc:type rdf:resource="http://purl.org/dc/dcmitype/StillImage"/>
    <dc:date>2021-01-22T10:06:21.118886</dc:date>
    <dc:format>image/svg+xml</dc:format>
    <dc:creator>
     <cc:Agent>
      <dc:title>Matplotlib v3.3.3, https://matplotlib.org/</dc:title>
     </cc:Agent>
    </dc:creator>
   </cc:Work>
  </rdf:RDF>
 </metadata>
 <defs>
  <style type="text/css">*{stroke-linecap:butt;stroke-linejoin:round;}</style>
 </defs>
 <g id="figure_1">
  <g id="patch_1">
   <path d="M 0 345.6 
L 460.8 345.6 
L 460.8 0 
L 0 0 
z
" style="fill:#ffffff;"/>
  </g>
  <g id="axes_1">
   <g id="patch_2">
    <path d="M 57.6 307.584 
L 414.72 307.584 
L 414.72 41.472 
L 57.6 41.472 
z
" style="fill:#7d9051;"/>
   </g>
   <g id="matplotlib.axis_1">
    <g id="xtick_1">
     <g id="line2d_1">
      <defs>
       <path d="M 0 0 
L 0 3.5 
" id="m85dd50889d" style="stroke:#000000;stroke-width:0.8;"/>
      </defs>
      <g>
       <use style="stroke:#000000;stroke-width:0.8;" x="97.166888" xlink:href="#m85dd50889d" y="307.584"/>
      </g>
     </g>
     <g id="text_1">
      <!-- 20 -->
      <g transform="translate(90.804388 322.182437)scale(0.1 -0.1)">
       <defs>
        <path d="M 19.1875 8.296875 
L 53.609375 8.296875 
L 53.609375 0 
L 7.328125 0 
L 7.328125 8.296875 
Q 12.9375 14.109375 22.625 23.890625 
Q 32.328125 33.6875 34.8125 36.53125 
Q 39.546875 41.84375 41.421875 45.53125 
Q 43.3125 49.21875 43.3125 52.78125 
Q 43.3125 58.59375 39.234375 62.25 
Q 35.15625 65.921875 28.609375 65.921875 
Q 23.96875 65.921875 18.8125 64.3125 
Q 13.671875 62.703125 7.8125 59.421875 
L 7.8125 69.390625 
Q 13.765625 71.78125 18.9375 73 
Q 24.125 74.21875 28.421875 74.21875 
Q 39.75 74.21875 46.484375 68.546875 
Q 53.21875 62.890625 53.21875 53.421875 
Q 53.21875 48.921875 51.53125 44.890625 
Q 49.859375 40.875 45.40625 35.40625 
Q 44.1875 33.984375 37.640625 27.21875 
Q 31.109375 20.453125 19.1875 8.296875 
z
" id="DejaVuSans-50"/>
        <path d="M 31.78125 66.40625 
Q 24.171875 66.40625 20.328125 58.90625 
Q 16.5 51.421875 16.5 36.375 
Q 16.5 21.390625 20.328125 13.890625 
Q 24.171875 6.390625 31.78125 6.390625 
Q 39.453125 6.390625 43.28125 13.890625 
Q 47.125 21.390625 47.125 36.375 
Q 47.125 51.421875 43.28125 58.90625 
Q 39.453125 66.40625 31.78125 66.40625 
z
M 31.78125 74.21875 
Q 44.046875 74.21875 50.515625 64.515625 
Q 56.984375 54.828125 56.984375 36.375 
Q 56.984375 17.96875 50.515625 8.265625 
Q 44.046875 -1.421875 31.78125 -1.421875 
Q 19.53125 -1.421875 13.0625 8.265625 
Q 6.59375 17.96875 6.59375 36.375 
Q 6.59375 54.828125 13.0625 64.515625 
Q 19.53125 74.21875 31.78125 74.21875 
z
" id="DejaVuSans-48"/>
       </defs>
       <use xlink:href="#DejaVuSans-50"/>
       <use x="63.623047" xlink:href="#DejaVuSans-48"/>
      </g>
     </g>
    </g>
    <g id="xtick_2">
     <g id="line2d_2">
      <g>
       <use style="stroke:#000000;stroke-width:0.8;" x="138.59493" xlink:href="#m85dd50889d" y="307.584"/>
      </g>
     </g>
     <g id="text_2">
      <!-- 40 -->
      <g transform="translate(132.23243 322.182437)scale(0.1 -0.1)">
       <defs>
        <path d="M 37.796875 64.3125 
L 12.890625 25.390625 
L 37.796875 25.390625 
z
M 35.203125 72.90625 
L 47.609375 72.90625 
L 47.609375 25.390625 
L 58.015625 25.390625 
L 58.015625 17.1875 
L 47.609375 17.1875 
L 47.609375 0 
L 37.796875 0 
L 37.796875 17.1875 
L 4.890625 17.1875 
L 4.890625 26.703125 
z
" id="DejaVuSans-52"/>
       </defs>
       <use xlink:href="#DejaVuSans-52"/>
       <use x="63.623047" xlink:href="#DejaVuSans-48"/>
      </g>
     </g>
    </g>
    <g id="xtick_3">
     <g id="line2d_3">
      <g>
       <use style="stroke:#000000;stroke-width:0.8;" x="180.022973" xlink:href="#m85dd50889d" y="307.584"/>
      </g>
     </g>
     <g id="text_3">
      <!-- 60 -->
      <g transform="translate(173.660473 322.182437)scale(0.1 -0.1)">
       <defs>
        <path d="M 33.015625 40.375 
Q 26.375 40.375 22.484375 35.828125 
Q 18.609375 31.296875 18.609375 23.390625 
Q 18.609375 15.53125 22.484375 10.953125 
Q 26.375 6.390625 33.015625 6.390625 
Q 39.65625 6.390625 43.53125 10.953125 
Q 47.40625 15.53125 47.40625 23.390625 
Q 47.40625 31.296875 43.53125 35.828125 
Q 39.65625 40.375 33.015625 40.375 
z
M 52.59375 71.296875 
L 52.59375 62.3125 
Q 48.875 64.0625 45.09375 64.984375 
Q 41.3125 65.921875 37.59375 65.921875 
Q 27.828125 65.921875 22.671875 59.328125 
Q 17.53125 52.734375 16.796875 39.40625 
Q 19.671875 43.65625 24.015625 45.921875 
Q 28.375 48.1875 33.59375 48.1875 
Q 44.578125 48.1875 50.953125 41.515625 
Q 57.328125 34.859375 57.328125 23.390625 
Q 57.328125 12.15625 50.6875 5.359375 
Q 44.046875 -1.421875 33.015625 -1.421875 
Q 20.359375 -1.421875 13.671875 8.265625 
Q 6.984375 17.96875 6.984375 36.375 
Q 6.984375 53.65625 15.1875 63.9375 
Q 23.390625 74.21875 37.203125 74.21875 
Q 40.921875 74.21875 44.703125 73.484375 
Q 48.484375 72.75 52.59375 71.296875 
z
" id="DejaVuSans-54"/>
       </defs>
       <use xlink:href="#DejaVuSans-54"/>
       <use x="63.623047" xlink:href="#DejaVuSans-48"/>
      </g>
     </g>
    </g>
    <g id="xtick_4">
     <g id="line2d_4">
      <g>
       <use style="stroke:#000000;stroke-width:0.8;" x="221.451015" xlink:href="#m85dd50889d" y="307.584"/>
      </g>
     </g>
     <g id="text_4">
      <!-- 80 -->
      <g transform="translate(215.088515 322.182437)scale(0.1 -0.1)">
       <defs>
        <path d="M 31.78125 34.625 
Q 24.75 34.625 20.71875 30.859375 
Q 16.703125 27.09375 16.703125 20.515625 
Q 16.703125 13.921875 20.71875 10.15625 
Q 24.75 6.390625 31.78125 6.390625 
Q 38.8125 6.390625 42.859375 10.171875 
Q 46.921875 13.96875 46.921875 20.515625 
Q 46.921875 27.09375 42.890625 30.859375 
Q 38.875 34.625 31.78125 34.625 
z
M 21.921875 38.8125 
Q 15.578125 40.375 12.03125 44.71875 
Q 8.5 49.078125 8.5 55.328125 
Q 8.5 64.0625 14.71875 69.140625 
Q 20.953125 74.21875 31.78125 74.21875 
Q 42.671875 74.21875 48.875 69.140625 
Q 55.078125 64.0625 55.078125 55.328125 
Q 55.078125 49.078125 51.53125 44.71875 
Q 48 40.375 41.703125 38.8125 
Q 48.828125 37.15625 52.796875 32.3125 
Q 56.78125 27.484375 56.78125 20.515625 
Q 56.78125 9.90625 50.3125 4.234375 
Q 43.84375 -1.421875 31.78125 -1.421875 
Q 19.734375 -1.421875 13.25 4.234375 
Q 6.78125 9.90625 6.78125 20.515625 
Q 6.78125 27.484375 10.78125 32.3125 
Q 14.796875 37.15625 21.921875 38.8125 
z
M 18.3125 54.390625 
Q 18.3125 48.734375 21.84375 45.5625 
Q 25.390625 42.390625 31.78125 42.390625 
Q 38.140625 42.390625 41.71875 45.5625 
Q 45.3125 48.734375 45.3125 54.390625 
Q 45.3125 60.0625 41.71875 63.234375 
Q 38.140625 66.40625 31.78125 66.40625 
Q 25.390625 66.40625 21.84375 63.234375 
Q 18.3125 60.0625 18.3125 54.390625 
z
" id="DejaVuSans-56"/>
       </defs>
       <use xlink:href="#DejaVuSans-56"/>
       <use x="63.623047" xlink:href="#DejaVuSans-48"/>
      </g>
     </g>
    </g>
    <g id="xtick_5">
     <g id="line2d_5">
      <g>
       <use style="stroke:#000000;stroke-width:0.8;" x="262.879057" xlink:href="#m85dd50889d" y="307.584"/>
      </g>
     </g>
     <g id="text_5">
      <!-- 100 -->
      <g transform="translate(253.335307 322.182437)scale(0.1 -0.1)">
       <defs>
        <path d="M 12.40625 8.296875 
L 28.515625 8.296875 
L 28.515625 63.921875 
L 10.984375 60.40625 
L 10.984375 69.390625 
L 28.421875 72.90625 
L 38.28125 72.90625 
L 38.28125 8.296875 
L 54.390625 8.296875 
L 54.390625 0 
L 12.40625 0 
z
" id="DejaVuSans-49"/>
       </defs>
       <use xlink:href="#DejaVuSans-49"/>
       <use x="63.623047" xlink:href="#DejaVuSans-48"/>
       <use x="127.246094" xlink:href="#DejaVuSans-48"/>
      </g>
     </g>
    </g>
    <g id="xtick_6">
     <g id="line2d_6">
      <g>
       <use style="stroke:#000000;stroke-width:0.8;" x="304.3071" xlink:href="#m85dd50889d" y="307.584"/>
      </g>
     </g>
     <g id="text_6">
      <!-- 120 -->
      <g transform="translate(294.76335 322.182437)scale(0.1 -0.1)">
       <use xlink:href="#DejaVuSans-49"/>
       <use x="63.623047" xlink:href="#DejaVuSans-50"/>
       <use x="127.246094" xlink:href="#DejaVuSans-48"/>
      </g>
     </g>
    </g>
    <g id="xtick_7">
     <g id="line2d_7">
      <g>
       <use style="stroke:#000000;stroke-width:0.8;" x="345.735142" xlink:href="#m85dd50889d" y="307.584"/>
      </g>
     </g>
     <g id="text_7">
      <!-- 140 -->
      <g transform="translate(336.191392 322.182437)scale(0.1 -0.1)">
       <use xlink:href="#DejaVuSans-49"/>
       <use x="63.623047" xlink:href="#DejaVuSans-52"/>
       <use x="127.246094" xlink:href="#DejaVuSans-48"/>
      </g>
     </g>
    </g>
    <g id="xtick_8">
     <g id="line2d_8">
      <g>
       <use style="stroke:#000000;stroke-width:0.8;" x="387.163184" xlink:href="#m85dd50889d" y="307.584"/>
      </g>
     </g>
     <g id="text_8">
      <!-- 160 -->
      <g transform="translate(377.619434 322.182437)scale(0.1 -0.1)">
       <use xlink:href="#DejaVuSans-49"/>
       <use x="63.623047" xlink:href="#DejaVuSans-54"/>
       <use x="127.246094" xlink:href="#DejaVuSans-48"/>
      </g>
     </g>
    </g>
   </g>
   <g id="matplotlib.axis_2">
    <g id="ytick_1">
     <g id="line2d_9">
      <defs>
       <path d="M 0 0 
L -3.5 0 
" id="m24bb273dcb" style="stroke:#000000;stroke-width:0.8;"/>
      </defs>
      <g>
       <use style="stroke:#000000;stroke-width:0.8;" x="57.6" xlink:href="#m24bb273dcb" y="298.028344"/>
      </g>
     </g>
     <g id="text_9">
      <!-- −20 -->
      <g transform="translate(29.495313 301.827563)scale(0.1 -0.1)">
       <defs>
        <path d="M 10.59375 35.5 
L 73.1875 35.5 
L 73.1875 27.203125 
L 10.59375 27.203125 
z
" id="DejaVuSans-8722"/>
       </defs>
       <use xlink:href="#DejaVuSans-8722"/>
       <use x="83.789062" xlink:href="#DejaVuSans-50"/>
       <use x="147.412109" xlink:href="#DejaVuSans-48"/>
      </g>
     </g>
    </g>
    <g id="ytick_2">
     <g id="line2d_10">
      <g>
       <use style="stroke:#000000;stroke-width:0.8;" x="57.6" xlink:href="#m24bb273dcb" y="256.600302"/>
      </g>
     </g>
     <g id="text_10">
      <!-- 0 -->
      <g transform="translate(44.2375 260.399521)scale(0.1 -0.1)">
       <use xlink:href="#DejaVuSans-48"/>
      </g>
     </g>
    </g>
    <g id="ytick_3">
     <g id="line2d_11">
      <g>
       <use style="stroke:#000000;stroke-width:0.8;" x="57.6" xlink:href="#m24bb273dcb" y="215.172259"/>
      </g>
     </g>
     <g id="text_11">
      <!-- 20 -->
      <g transform="translate(37.875 218.971478)scale(0.1 -0.1)">
       <use xlink:href="#DejaVuSans-50"/>
       <use x="63.623047" xlink:href="#DejaVuSans-48"/>
      </g>
     </g>
    </g>
    <g id="ytick_4">
     <g id="line2d_12">
      <g>
       <use style="stroke:#000000;stroke-width:0.8;" x="57.6" xlink:href="#m24bb273dcb" y="173.744217"/>
      </g>
     </g>
     <g id="text_12">
      <!-- 40 -->
      <g transform="translate(37.875 177.543436)scale(0.1 -0.1)">
       <use xlink:href="#DejaVuSans-52"/>
       <use x="63.623047" xlink:href="#DejaVuSans-48"/>
      </g>
     </g>
    </g>
    <g id="ytick_5">
     <g id="line2d_13">
      <g>
       <use style="stroke:#000000;stroke-width:0.8;" x="57.6" xlink:href="#m24bb273dcb" y="132.316175"/>
      </g>
     </g>
     <g id="text_13">
      <!-- 60 -->
      <g transform="translate(37.875 136.115394)scale(0.1 -0.1)">
       <use xlink:href="#DejaVuSans-54"/>
       <use x="63.623047" xlink:href="#DejaVuSans-48"/>
      </g>
     </g>
    </g>
    <g id="ytick_6">
     <g id="line2d_14">
      <g>
       <use style="stroke:#000000;stroke-width:0.8;" x="57.6" xlink:href="#m24bb273dcb" y="90.888132"/>
      </g>
     </g>
     <g id="text_14">
      <!-- 80 -->
      <g transform="translate(37.875 94.687351)scale(0.1 -0.1)">
       <use xlink:href="#DejaVuSans-56"/>
       <use x="63.623047" xlink:href="#DejaVuSans-48"/>
      </g>
     </g>
    </g>
    <g id="ytick_7">
     <g id="line2d_15">
      <g>
       <use style="stroke:#000000;stroke-width:0.8;" x="57.6" xlink:href="#m24bb273dcb" y="49.46009"/>
      </g>
     </g>
     <g id="text_15">
      <!-- 100 -->
      <g transform="translate(31.5125 53.259309)scale(0.1 -0.1)">
       <use xlink:href="#DejaVuSans-49"/>
       <use x="63.623047" xlink:href="#DejaVuSans-48"/>
       <use x="127.246094" xlink:href="#DejaVuSans-48"/>
      </g>
     </g>
    </g>
   </g>
   <g id="line2d_16">
    <path clip-path="url(#p82b7204a4f)" d="M 76.452867 118.862418 
L 80.396816 120.221258 
L 86.188457 122.503943 
L 91.849599 125.041411 
L 97.407171 127.786018 
L 104.70472 131.68854 
L 115.531939 137.842676 
L 122.674134 142.095264 
L 127.873353 145.492364 
L 131.214524 147.911761 
L 134.437626 150.478229 
L 139.123138 154.52782 
L 148.487947 162.809285 
L 151.754548 165.448252 
L 155.135076 167.911149 
L 158.652317 170.121335 
L 162.322841 172.002168 
L 164.224389 172.793444 
L 166.169435 173.477006 
L 170.177598 174.527207 
L 174.297617 175.187984 
L 178.481849 175.492481 
L 182.684724 175.480052 
L 186.8586 175.185913 
L 190.98069 174.651491 
L 195.059281 173.912001 
L 201.111918 172.513804 
L 207.112769 170.883611 
L 213.068051 169.093919 
L 218.96119 167.111588 
L 224.76733 164.895187 
L 232.385947 161.612015 
L 238.100945 159.163618 
L 241.957896 157.665994 
L 245.885274 156.354796 
L 249.887223 155.263167 
L 253.947171 154.384893 
L 258.050619 153.711687 
L 262.183066 153.239408 
L 266.327942 152.959768 
L 270.474889 152.866555 
L 274.619764 152.951483 
L 278.760497 153.208337 
L 282.890873 153.62676 
L 287.00882 154.20261 
L 291.106054 154.935886 
L 295.163931 155.84316 
L 299.167951 156.93686 
L 303.101544 158.231487 
L 306.95228 159.739467 
L 310.72016 161.44216 
L 316.265304 164.253053 
L 334.613784 173.947215 
L 340.210712 176.631752 
L 347.767187 179.977066 
L 359.157828 184.958788 
L 364.779613 187.722039 
L 368.431495 189.756156 
L 371.942521 191.995341 
L 375.260908 194.481024 
L 378.332797 197.256703 
L 381.106404 200.351377 
L 383.556873 203.733977 
L 385.659346 207.361002 
L 387.391038 211.188953 
L 388.729164 215.172259 
L 389.65301 219.267421 
L 389.94922 221.342966 
L 390.133575 223.43094 
L 390.204003 225.525127 
L 390.154289 227.617243 
L 389.982362 229.707288 
L 389.688223 231.784904 
L 389.265657 233.84595 
L 388.712593 235.886281 
L 388.712593 235.886281 
" style="fill:none;stroke:#fea952;stroke-linecap:square;"/>
   </g>
   <g id="line2d_17">
    <path clip-path="url(#p82b7204a4f)" d="M 79.073006 111.002 
L 83.302469 112.461845 
L 87.440058 114.055617 
L 93.469752 116.656836 
L 99.320895 119.463963 
L 106.878069 123.429415 
L 116.050073 128.583969 
L 125.232636 133.945411 
L 130.800295 137.469919 
L 134.486039 140.025172 
L 138.073257 142.753188 
L 143.064988 146.951926 
L 155.243769 157.645646 
L 158.202862 159.936084 
L 161.145264 161.952026 
L 164.065298 163.643906 
L 166.971553 164.976513 
L 170.048572 165.986312 
L 173.350838 166.695272 
L 176.818927 167.108427 
L 180.412764 167.239719 
L 184.063616 167.11145 
L 187.743681 166.746863 
L 191.459219 166.167211 
L 195.212332 165.407894 
L 200.940449 163.99513 
L 208.629324 161.797295 
L 214.271584 159.973677 
L 219.777232 157.964049 
L 225.270307 155.686676 
L 235.022317 151.471196 
L 239.231081 149.841942 
L 243.600296 148.39049 
L 248.027747 147.188909 
L 252.503489 146.226027 
L 257.011754 145.491464 
L 261.530536 144.979534 
L 266.054938 144.678659 
L 270.557741 144.581361 
L 275.050035 144.677054 
L 279.513626 144.957027 
L 283.964292 145.410977 
L 288.385671 146.0322 
L 292.822959 146.830114 
L 297.247321 147.823759 
L 301.653489 149.032848 
L 306.013542 150.474453 
L 310.281145 152.15198 
L 314.359135 153.998426 
L 320.174276 156.94749 
L 338.262721 166.508359 
L 345.469211 169.924348 
L 352.92752 173.172093 
L 362.69097 177.464243 
L 366.703521 179.396068 
L 370.747828 181.531512 
L 374.781902 183.93854 
L 378.73765 186.680432 
L 380.659254 188.195392 
L 382.538827 189.823479 
L 384.354708 191.565666 
L 386.071459 193.399001 
L 387.687208 195.317062 
L 389.208248 197.323869 
L 390.61872 199.400199 
L 391.92279 201.54507 
L 393.120192 203.757242 
L 394.205298 206.027783 
L 395.173977 208.346915 
L 396.032156 210.729762 
L 396.761098 213.137721 
L 397.372469 215.597661 
L 397.855507 218.096806 
L 398.20272 220.614235 
L 398.414502 223.152452 
L 398.487273 225.721957 
L 398.412006 228.29652 
L 398.186162 230.868743 
L 397.804992 233.449046 
L 397.262675 236.013669 
L 396.709611 238.054 
L 396.709611 238.054 
" style="fill:none;stroke:#ffffff;stroke-linecap:square;"/>
   </g>
   <g id="line2d_18">
    <path clip-path="url(#p82b7204a4f)" d="M 73.832727 126.722836 
L 79.300983 128.656996 
L 84.694368 130.880918 
L 90.04292 133.36323 
L 95.358837 136.057947 
L 102.449869 139.917077 
L 113.127864 146.029746 
L 118.245629 149.098096 
L 123.083435 152.253133 
L 126.125347 154.45023 
L 129.0998 156.815335 
L 133.596399 160.700863 
L 143.210996 169.197173 
L 146.772701 172.068864 
L 150.590565 174.83926 
L 154.696386 177.401577 
L 156.868432 178.570739 
L 159.139619 179.6519 
L 161.477225 180.610374 
L 163.862533 181.43499 
L 166.263247 182.1194 
L 168.678025 182.675986 
L 171.101592 183.113132 
L 175.952254 183.656965 
L 180.755881 183.807384 
L 185.494207 183.6208 
L 190.108036 183.148541 
L 194.591108 182.43978 
L 198.957892 181.550261 
L 205.293621 179.984349 
L 213.550399 177.620956 
L 219.739988 175.616624 
L 225.908763 173.359163 
L 231.903684 170.872312 
L 242.940401 166.149429 
L 246.433738 164.877455 
L 249.953606 163.804499 
L 253.554985 162.917974 
L 257.23457 162.214877 
L 260.958244 161.693361 
L 264.717275 161.34844 
L 268.500736 161.176425 
L 272.289817 161.168907 
L 276.09555 161.323368 
L 281.817454 161.842542 
L 287.519202 162.689319 
L 291.24152 163.431875 
L 294.890405 164.330089 
L 298.449426 165.393472 
L 301.908215 166.630175 
L 305.35077 168.082614 
L 310.580917 170.628208 
L 319.639486 175.500741 
L 327.153866 179.467146 
L 334.819771 183.254958 
L 340.661596 185.925961 
L 357.396612 193.287621 
L 362.494351 195.901111 
L 365.635614 197.757029 
L 368.523778 199.729648 
L 371.123234 201.835534 
L 373.444384 204.130366 
L 375.539957 206.693129 
L 377.382499 209.493981 
L 378.940372 212.476602 
L 380.191617 215.596237 
L 381.117418 218.819235 
L 381.69572 222.071698 
L 381.920732 225.328297 
L 381.778563 228.545833 
L 381.268639 231.67823 
L 380.715575 233.718561 
L 380.715575 233.718561 
" style="fill:none;stroke:#ffffff;stroke-linecap:square;"/>
   </g>
   <g id="patch_3">
    <path d="M 57.6 307.584 
L 57.6 41.472 
" style="fill:none;stroke:#000000;stroke-linecap:square;stroke-linejoin:miter;stroke-width:0.8;"/>
   </g>
   <g id="patch_4">
    <path d="M 414.72 307.584 
L 414.72 41.472 
" style="fill:none;stroke:#000000;stroke-linecap:square;stroke-linejoin:miter;stroke-width:0.8;"/>
   </g>
   <g id="patch_5">
    <path d="M 57.6 307.584 
L 414.72 307.584 
" style="fill:none;stroke:#000000;stroke-linecap:square;stroke-linejoin:miter;stroke-width:0.8;"/>
   </g>
   <g id="patch_6">
    <path d="M 57.6 41.472 
L 414.72 41.472 
" style="fill:none;stroke:#000000;stroke-linecap:square;stroke-linejoin:miter;stroke-width:0.8;"/>
   </g>
  </g>
 </g>
 <defs>
  <clipPath id="p82b7204a4f">
   <rect height="266.112" width="357.12" x="57.6" y="41.472"/>
  </clipPath>
 </defs>
</svg>
