<?xml version="1.0" encoding="utf-8" standalone="no"?>
<!DOCTYPE svg PUBLIC "-//W3C//DTD SVG 1.1//EN"
  "http://www.w3.org/Graphics/SVG/1.1/DTD/svg11.dtd">
<!-- Created with matplotlib (https://matplotlib.org/) -->
<svg height="345.6pt" version="1.1" viewBox="0 0 460.8 345.6" width="460.8pt" xmlns="http://www.w3.org/2000/svg" xmlns:xlink="http://www.w3.org/1999/xlink">
 <metadata>
  <rdf:RDF xmlns:cc="http://creativecommons.org/ns#" xmlns:dc="http://purl.org/dc/elements/1.1/" xmlns:rdf="http://www.w3.org/1999/02/22-rdf-syntax-ns#">
   <cc:Work>
    <dc:type rdf:resource="http://purl.org/dc/dcmitype/StillImage"/>
    <dc:date>2021-01-23T11:50:54.739117</dc:date>
    <dc:format>image/svg+xml</dc:format>
    <dc:creator>
     <cc:Agent>
      <dc:title>Matplotlib v3.3.3, https://matplotlib.org/</dc:title>
     </cc:Agent>
    </dc:creator>
   </cc:Work>
  </rdf:RDF>
 </metadata>
 <defs>
  <style type="text/css">*{stroke-linecap:butt;stroke-linejoin:round;}</style>
 </defs>
 <g id="figure_1">
  <g id="patch_1">
   <path d="M 0 345.6 
L 460.8 345.6 
L 460.8 0 
L 0 0 
z
" style="fill:#ffffff;"/>
  </g>
  <g id="axes_1">
   <g id="patch_2">
    <path d="M 57.6 307.584 
L 414.72 307.584 
L 414.72 41.472 
L 57.6 41.472 
z
" style="fill:#7d9051;"/>
   </g>
   <g id="matplotlib.axis_1">
    <g id="xtick_1">
     <g id="line2d_1">
      <defs>
       <path d="M 0 0 
L 0 3.5 
" id="m8e26d51455" style="stroke:#000000;stroke-width:0.8;"/>
      </defs>
      <g>
       <use style="stroke:#000000;stroke-width:0.8;" x="60.852701" xlink:href="#m8e26d51455" y="307.584"/>
      </g>
     </g>
     <g id="text_1">
      <!-- 0 -->
      <g transform="translate(57.671451 322.182437)scale(0.1 -0.1)">
       <defs>
        <path d="M 31.78125 66.40625 
Q 24.171875 66.40625 20.328125 58.90625 
Q 16.5 51.421875 16.5 36.375 
Q 16.5 21.390625 20.328125 13.890625 
Q 24.171875 6.390625 31.78125 6.390625 
Q 39.453125 6.390625 43.28125 13.890625 
Q 47.125 21.390625 47.125 36.375 
Q 47.125 51.421875 43.28125 58.90625 
Q 39.453125 66.40625 31.78125 66.40625 
z
M 31.78125 74.21875 
Q 44.046875 74.21875 50.515625 64.515625 
Q 56.984375 54.828125 56.984375 36.375 
Q 56.984375 17.96875 50.515625 8.265625 
Q 44.046875 -1.421875 31.78125 -1.421875 
Q 19.53125 -1.421875 13.0625 8.265625 
Q 6.59375 17.96875 6.59375 36.375 
Q 6.59375 54.828125 13.0625 64.515625 
Q 19.53125 74.21875 31.78125 74.21875 
z
" id="DejaVuSans-48"/>
       </defs>
       <use xlink:href="#DejaVuSans-48"/>
      </g>
     </g>
    </g>
    <g id="xtick_2">
     <g id="line2d_2">
      <g>
       <use style="stroke:#000000;stroke-width:0.8;" x="109.813527" xlink:href="#m8e26d51455" y="307.584"/>
      </g>
     </g>
     <g id="text_2">
      <!-- 20 -->
      <g transform="translate(103.451027 322.182437)scale(0.1 -0.1)">
       <defs>
        <path d="M 19.1875 8.296875 
L 53.609375 8.296875 
L 53.609375 0 
L 7.328125 0 
L 7.328125 8.296875 
Q 12.9375 14.109375 22.625 23.890625 
Q 32.328125 33.6875 34.8125 36.53125 
Q 39.546875 41.84375 41.421875 45.53125 
Q 43.3125 49.21875 43.3125 52.78125 
Q 43.3125 58.59375 39.234375 62.25 
Q 35.15625 65.921875 28.609375 65.921875 
Q 23.96875 65.921875 18.8125 64.3125 
Q 13.671875 62.703125 7.8125 59.421875 
L 7.8125 69.390625 
Q 13.765625 71.78125 18.9375 73 
Q 24.125 74.21875 28.421875 74.21875 
Q 39.75 74.21875 46.484375 68.546875 
Q 53.21875 62.890625 53.21875 53.421875 
Q 53.21875 48.921875 51.53125 44.890625 
Q 49.859375 40.875 45.40625 35.40625 
Q 44.1875 33.984375 37.640625 27.21875 
Q 31.109375 20.453125 19.1875 8.296875 
z
" id="DejaVuSans-50"/>
       </defs>
       <use xlink:href="#DejaVuSans-50"/>
       <use x="63.623047" xlink:href="#DejaVuSans-48"/>
      </g>
     </g>
    </g>
    <g id="xtick_3">
     <g id="line2d_3">
      <g>
       <use style="stroke:#000000;stroke-width:0.8;" x="158.774353" xlink:href="#m8e26d51455" y="307.584"/>
      </g>
     </g>
     <g id="text_3">
      <!-- 40 -->
      <g transform="translate(152.411853 322.182437)scale(0.1 -0.1)">
       <defs>
        <path d="M 37.796875 64.3125 
L 12.890625 25.390625 
L 37.796875 25.390625 
z
M 35.203125 72.90625 
L 47.609375 72.90625 
L 47.609375 25.390625 
L 58.015625 25.390625 
L 58.015625 17.1875 
L 47.609375 17.1875 
L 47.609375 0 
L 37.796875 0 
L 37.796875 17.1875 
L 4.890625 17.1875 
L 4.890625 26.703125 
z
" id="DejaVuSans-52"/>
       </defs>
       <use xlink:href="#DejaVuSans-52"/>
       <use x="63.623047" xlink:href="#DejaVuSans-48"/>
      </g>
     </g>
    </g>
    <g id="xtick_4">
     <g id="line2d_4">
      <g>
       <use style="stroke:#000000;stroke-width:0.8;" x="207.735179" xlink:href="#m8e26d51455" y="307.584"/>
      </g>
     </g>
     <g id="text_4">
      <!-- 60 -->
      <g transform="translate(201.372679 322.182437)scale(0.1 -0.1)">
       <defs>
        <path d="M 33.015625 40.375 
Q 26.375 40.375 22.484375 35.828125 
Q 18.609375 31.296875 18.609375 23.390625 
Q 18.609375 15.53125 22.484375 10.953125 
Q 26.375 6.390625 33.015625 6.390625 
Q 39.65625 6.390625 43.53125 10.953125 
Q 47.40625 15.53125 47.40625 23.390625 
Q 47.40625 31.296875 43.53125 35.828125 
Q 39.65625 40.375 33.015625 40.375 
z
M 52.59375 71.296875 
L 52.59375 62.3125 
Q 48.875 64.0625 45.09375 64.984375 
Q 41.3125 65.921875 37.59375 65.921875 
Q 27.828125 65.921875 22.671875 59.328125 
Q 17.53125 52.734375 16.796875 39.40625 
Q 19.671875 43.65625 24.015625 45.921875 
Q 28.375 48.1875 33.59375 48.1875 
Q 44.578125 48.1875 50.953125 41.515625 
Q 57.328125 34.859375 57.328125 23.390625 
Q 57.328125 12.15625 50.6875 5.359375 
Q 44.046875 -1.421875 33.015625 -1.421875 
Q 20.359375 -1.421875 13.671875 8.265625 
Q 6.984375 17.96875 6.984375 36.375 
Q 6.984375 53.65625 15.1875 63.9375 
Q 23.390625 74.21875 37.203125 74.21875 
Q 40.921875 74.21875 44.703125 73.484375 
Q 48.484375 72.75 52.59375 71.296875 
z
" id="DejaVuSans-54"/>
       </defs>
       <use xlink:href="#DejaVuSans-54"/>
       <use x="63.623047" xlink:href="#DejaVuSans-48"/>
      </g>
     </g>
    </g>
    <g id="xtick_5">
     <g id="line2d_5">
      <g>
       <use style="stroke:#000000;stroke-width:0.8;" x="256.696005" xlink:href="#m8e26d51455" y="307.584"/>
      </g>
     </g>
     <g id="text_5">
      <!-- 80 -->
      <g transform="translate(250.333505 322.182437)scale(0.1 -0.1)">
       <defs>
        <path d="M 31.78125 34.625 
Q 24.75 34.625 20.71875 30.859375 
Q 16.703125 27.09375 16.703125 20.515625 
Q 16.703125 13.921875 20.71875 10.15625 
Q 24.75 6.390625 31.78125 6.390625 
Q 38.8125 6.390625 42.859375 10.171875 
Q 46.921875 13.96875 46.921875 20.515625 
Q 46.921875 27.09375 42.890625 30.859375 
Q 38.875 34.625 31.78125 34.625 
z
M 21.921875 38.8125 
Q 15.578125 40.375 12.03125 44.71875 
Q 8.5 49.078125 8.5 55.328125 
Q 8.5 64.0625 14.71875 69.140625 
Q 20.953125 74.21875 31.78125 74.21875 
Q 42.671875 74.21875 48.875 69.140625 
Q 55.078125 64.0625 55.078125 55.328125 
Q 55.078125 49.078125 51.53125 44.71875 
Q 48 40.375 41.703125 38.8125 
Q 48.828125 37.15625 52.796875 32.3125 
Q 56.78125 27.484375 56.78125 20.515625 
Q 56.78125 9.90625 50.3125 4.234375 
Q 43.84375 -1.421875 31.78125 -1.421875 
Q 19.734375 -1.421875 13.25 4.234375 
Q 6.78125 9.90625 6.78125 20.515625 
Q 6.78125 27.484375 10.78125 32.3125 
Q 14.796875 37.15625 21.921875 38.8125 
z
M 18.3125 54.390625 
Q 18.3125 48.734375 21.84375 45.5625 
Q 25.390625 42.390625 31.78125 42.390625 
Q 38.140625 42.390625 41.71875 45.5625 
Q 45.3125 48.734375 45.3125 54.390625 
Q 45.3125 60.0625 41.71875 63.234375 
Q 38.140625 66.40625 31.78125 66.40625 
Q 25.390625 66.40625 21.84375 63.234375 
Q 18.3125 60.0625 18.3125 54.390625 
z
" id="DejaVuSans-56"/>
       </defs>
       <use xlink:href="#DejaVuSans-56"/>
       <use x="63.623047" xlink:href="#DejaVuSans-48"/>
      </g>
     </g>
    </g>
    <g id="xtick_6">
     <g id="line2d_6">
      <g>
       <use style="stroke:#000000;stroke-width:0.8;" x="305.656831" xlink:href="#m8e26d51455" y="307.584"/>
      </g>
     </g>
     <g id="text_6">
      <!-- 100 -->
      <g transform="translate(296.113081 322.182437)scale(0.1 -0.1)">
       <defs>
        <path d="M 12.40625 8.296875 
L 28.515625 8.296875 
L 28.515625 63.921875 
L 10.984375 60.40625 
L 10.984375 69.390625 
L 28.421875 72.90625 
L 38.28125 72.90625 
L 38.28125 8.296875 
L 54.390625 8.296875 
L 54.390625 0 
L 12.40625 0 
z
" id="DejaVuSans-49"/>
       </defs>
       <use xlink:href="#DejaVuSans-49"/>
       <use x="63.623047" xlink:href="#DejaVuSans-48"/>
       <use x="127.246094" xlink:href="#DejaVuSans-48"/>
      </g>
     </g>
    </g>
    <g id="xtick_7">
     <g id="line2d_7">
      <g>
       <use style="stroke:#000000;stroke-width:0.8;" x="354.617657" xlink:href="#m8e26d51455" y="307.584"/>
      </g>
     </g>
     <g id="text_7">
      <!-- 120 -->
      <g transform="translate(345.073907 322.182437)scale(0.1 -0.1)">
       <use xlink:href="#DejaVuSans-49"/>
       <use x="63.623047" xlink:href="#DejaVuSans-50"/>
       <use x="127.246094" xlink:href="#DejaVuSans-48"/>
      </g>
     </g>
    </g>
    <g id="xtick_8">
     <g id="line2d_8">
      <g>
       <use style="stroke:#000000;stroke-width:0.8;" x="403.578483" xlink:href="#m8e26d51455" y="307.584"/>
      </g>
     </g>
     <g id="text_8">
      <!-- 140 -->
      <g transform="translate(394.034733 322.182437)scale(0.1 -0.1)">
       <use xlink:href="#DejaVuSans-49"/>
       <use x="63.623047" xlink:href="#DejaVuSans-52"/>
       <use x="127.246094" xlink:href="#DejaVuSans-48"/>
      </g>
     </g>
    </g>
   </g>
   <g id="matplotlib.axis_2">
    <g id="ytick_1">
     <g id="line2d_9">
      <defs>
       <path d="M 0 0 
L -3.5 0 
" id="m8847853b3f" style="stroke:#000000;stroke-width:0.8;"/>
      </defs>
      <g>
       <use style="stroke:#000000;stroke-width:0.8;" x="57.6" xlink:href="#m8847853b3f" y="265.543409"/>
      </g>
     </g>
     <g id="text_9">
      <!-- 0 -->
      <g transform="translate(44.2375 269.342627)scale(0.1 -0.1)">
       <use xlink:href="#DejaVuSans-48"/>
      </g>
     </g>
    </g>
    <g id="ytick_2">
     <g id="line2d_10">
      <g>
       <use style="stroke:#000000;stroke-width:0.8;" x="57.6" xlink:href="#m8847853b3f" y="216.582583"/>
      </g>
     </g>
     <g id="text_10">
      <!-- 20 -->
      <g transform="translate(37.875 220.381801)scale(0.1 -0.1)">
       <use xlink:href="#DejaVuSans-50"/>
       <use x="63.623047" xlink:href="#DejaVuSans-48"/>
      </g>
     </g>
    </g>
    <g id="ytick_3">
     <g id="line2d_11">
      <g>
       <use style="stroke:#000000;stroke-width:0.8;" x="57.6" xlink:href="#m8847853b3f" y="167.621757"/>
      </g>
     </g>
     <g id="text_11">
      <!-- 40 -->
      <g transform="translate(37.875 171.420975)scale(0.1 -0.1)">
       <use xlink:href="#DejaVuSans-52"/>
       <use x="63.623047" xlink:href="#DejaVuSans-48"/>
      </g>
     </g>
    </g>
    <g id="ytick_4">
     <g id="line2d_12">
      <g>
       <use style="stroke:#000000;stroke-width:0.8;" x="57.6" xlink:href="#m8847853b3f" y="118.660931"/>
      </g>
     </g>
     <g id="text_12">
      <!-- 60 -->
      <g transform="translate(37.875 122.460149)scale(0.1 -0.1)">
       <use xlink:href="#DejaVuSans-54"/>
       <use x="63.623047" xlink:href="#DejaVuSans-48"/>
      </g>
     </g>
    </g>
    <g id="ytick_5">
     <g id="line2d_13">
      <g>
       <use style="stroke:#000000;stroke-width:0.8;" x="57.6" xlink:href="#m8847853b3f" y="69.700105"/>
      </g>
     </g>
     <g id="text_13">
      <!-- 80 -->
      <g transform="translate(37.875 73.499323)scale(0.1 -0.1)">
       <use xlink:href="#DejaVuSans-56"/>
       <use x="63.623047" xlink:href="#DejaVuSans-48"/>
      </g>
     </g>
    </g>
   </g>
   <g id="line2d_14">
    <path clip-path="url(#pc953605757)" d="M 85.333114 203.111011 
L 84.677039 200.589529 
L 84.182534 198.080286 
L 83.847153 195.585732 
L 83.658653 193.105867 
L 83.617037 190.643137 
L 83.714958 188.199992 
L 83.942626 185.773983 
L 84.295144 183.370006 
L 84.767616 180.988062 
L 86.045494 176.297615 
L 87.72485 171.707538 
L 89.754276 167.232518 
L 92.08726 162.879901 
L 94.672391 158.661925 
L 97.458262 154.588385 
L 100.42284 150.669071 
L 103.566125 146.906431 
L 106.893013 143.310258 
L 110.398609 139.883001 
L 114.092703 136.636898 
L 117.965504 133.586638 
L 122.009668 130.768943 
L 126.212955 128.220532 
L 130.568021 125.970782 
L 135.062625 124.058862 
L 139.677183 122.457843 
L 144.382318 121.101628 
L 151.545287 119.358622 
L 165.937322 116.190857 
L 173.156595 114.876259 
L 178.008613 114.23732 
L 182.907144 113.860322 
L 187.837499 113.78688 
L 192.765406 114.036581 
L 197.654145 114.626559 
L 202.466994 115.581295 
L 207.169681 116.913029 
L 211.754863 118.59973 
L 216.239674 120.570403 
L 220.646149 122.74916 
L 227.15549 126.254755 
L 237.94156 132.132502 
L 242.333346 134.289226 
L 246.81571 136.228075 
L 251.42782 137.882951 
L 256.16478 139.212237 
L 260.994765 140.206142 
L 265.881056 140.857321 
L 270.791827 141.155982 
L 275.687909 141.097229 
L 280.559511 140.715335 
L 285.411529 140.088636 
L 292.67242 138.854823 
L 304.78288 136.668722 
L 309.642242 135.961238 
L 314.511396 135.452046 
L 319.392791 135.20969 
L 324.283977 135.302715 
L 329.172716 135.750707 
L 334.032077 136.543872 
L 338.830238 137.660179 
L 343.545166 139.087387 
L 348.147484 140.803464 
L 352.620055 142.798618 
L 356.96288 145.063056 
L 361.173511 147.584539 
L 365.254396 150.355721 
L 369.198191 153.36926 
L 372.963278 156.625155 
L 376.468873 160.13075 
L 378.099269 161.983917 
L 379.634191 163.90563 
L 381.061399 165.893439 
L 382.373549 167.952242 
L 383.558401 170.084486 
L 384.606163 172.287723 
L 385.524178 174.55461 
L 386.314896 176.880249 
L 386.980763 179.252401 
L 387.531572 181.663721 
L 388.297809 186.572044 
L 388.657671 191.536672 
L 388.650327 196.491508 
L 388.307601 201.402278 
L 387.661318 206.266537 
L 386.740855 211.079386 
L 385.575587 215.843274 
L 384.19734 220.553306 
L 382.635489 225.211928 
L 380.919413 229.811798 
L 378.121301 236.60756 
L 376.14818 241.062996 
L 376.14818 241.062996 
" style="fill:none;stroke:#fea952;stroke-linecap:square;"/>
   </g>
   <g id="line2d_15">
    <path clip-path="url(#pc953605757)" d="M 75.856484 205.576775 
L 75.069661 202.482885 
L 74.477687 199.38506 
L 74.083154 196.327912 
L 73.867886 193.271317 
L 73.832727 190.25098 
L 73.965629 187.28507 
L 74.254074 184.353258 
L 74.690111 181.464794 
L 75.263771 178.629371 
L 75.96568 175.843058 
L 76.781688 173.12454 
L 77.711706 170.435254 
L 79.852996 165.256329 
L 82.327827 160.283577 
L 85.071282 155.526053 
L 88.023524 150.989319 
L 91.179429 146.609374 
L 94.535613 142.396704 
L 98.10358 138.346788 
L 101.867876 134.486277 
L 105.86018 130.791769 
L 110.057376 127.30746 
L 114.491279 124.02815 
L 119.154696 121.002037 
L 124.036058 118.275458 
L 129.136091 115.890376 
L 134.28638 113.925626 
L 139.417818 112.312713 
L 144.457914 110.971749 
L 154.210321 108.727478 
L 164.037639 106.584728 
L 169.146587 105.614508 
L 174.412563 104.806038 
L 179.837907 104.241642 
L 185.379588 103.992272 
L 190.963066 104.100242 
L 196.559803 104.589223 
L 202.165948 105.491575 
L 204.936357 106.105602 
L 207.70019 106.834821 
L 213.015877 108.586151 
L 218.062769 110.641681 
L 222.872249 112.900903 
L 229.708047 116.484737 
L 242.348147 123.387875 
L 246.347624 125.357705 
L 250.282932 127.070299 
L 254.23621 128.502149 
L 258.30548 129.65693 
L 262.462548 130.524607 
L 266.649942 131.095389 
L 270.85052 131.363993 
L 275.069761 131.324594 
L 279.412539 130.990575 
L 283.885825 130.41606 
L 290.879603 129.228178 
L 303.290246 126.990988 
L 308.516852 126.233957 
L 313.883476 125.680034 
L 319.402602 125.417529 
L 324.997618 125.536589 
L 330.58619 126.061094 
L 336.094449 126.971353 
L 341.515213 128.243311 
L 346.822557 129.859971 
L 352.002445 131.802032 
L 357.014898 134.048083 
L 361.869496 136.588882 
L 366.564738 139.410116 
L 371.092452 142.494194 
L 375.478344 145.856193 
L 379.750892 149.567195 
L 381.811127 151.5589 
L 383.820755 153.662649 
L 385.750417 155.872745 
L 387.58848 158.194607 
L 389.319031 160.630549 
L 390.932978 163.195912 
L 392.401539 165.879083 
L 393.68233 168.61217 
L 394.795133 171.402485 
L 395.742679 174.233854 
L 396.527039 177.071779 
L 397.171608 179.944356 
L 397.672662 182.805754 
L 398.048086 185.66728 
L 398.306768 188.541291 
L 398.487273 194.203162 
L 398.274358 199.789986 
L 397.706328 205.267762 
L 396.825786 210.64337 
L 395.669891 215.912564 
L 394.279722 221.057903 
L 392.693413 226.087503 
L 390.941818 231.018583 
L 388.089017 238.191453 
L 385.085777 245.063728 
L 385.085777 245.063728 
" style="fill:none;stroke:#ffffff;stroke-linecap:square;"/>
   </g>
   <g id="line2d_16">
    <path clip-path="url(#pc953605757)" d="M 94.809743 200.645248 
L 94.284416 198.696172 
L 93.887382 196.775513 
L 93.449421 192.940416 
L 93.401346 191.035294 
L 93.631178 187.194707 
L 94.271462 183.346753 
L 95.3093 179.470689 
L 96.712081 175.595492 
L 98.453626 171.727829 
L 100.504438 167.883661 
L 102.816977 164.098121 
L 105.338559 160.401079 
L 108.014601 156.853864 
L 110.838254 153.464071 
L 113.826893 150.224578 
L 116.962682 147.149323 
L 120.259511 144.243276 
L 123.685575 141.534424 
L 127.225771 139.056209 
L 130.863574 136.837854 
L 134.570465 134.907612 
L 138.411395 133.260614 
L 142.49903 131.834605 
L 146.823848 130.58453 
L 153.697335 128.91138 
L 167.837004 125.796985 
L 174.548277 124.569025 
L 178.897797 123.98903 
L 183.208747 123.647841 
L 187.507068 123.573469 
L 191.763113 123.777315 
L 195.936826 124.266959 
L 199.99763 125.056987 
L 203.949707 126.160638 
L 207.933051 127.615286 
L 211.981993 129.388489 
L 216.088694 131.416114 
L 222.395036 134.811891 
L 231.222016 139.664729 
L 235.902084 142.067636 
L 240.801121 144.332009 
L 245.958285 146.3676 
L 251.30038 148.060258 
L 256.762414 149.374923 
L 262.314289 150.303846 
L 267.917023 150.833895 
L 273.536242 150.958423 
L 279.038343 150.692588 
L 284.349474 150.125965 
L 289.491497 149.357374 
L 299.280255 147.58227 
L 306.275514 146.346457 
L 310.767632 145.68852 
L 315.139317 145.224058 
L 319.382979 145.00185 
L 323.570336 145.068841 
L 327.759241 145.440319 
L 331.969705 146.116391 
L 336.145264 147.077047 
L 340.267775 148.314803 
L 344.292523 149.804896 
L 348.225212 151.549152 
L 352.056265 153.53723 
L 355.782285 155.758961 
L 359.416341 158.217248 
L 362.918037 160.882327 
L 366.175664 163.683115 
L 369.116992 166.598852 
L 371.679902 169.616653 
L 373.81412 172.708572 
L 374.715263 174.289889 
L 375.529996 175.963277 
L 376.253223 177.706734 
L 377.434487 181.433022 
L 378.261984 185.40798 
L 378.749082 189.56253 
L 378.906407 193.834809 
L 378.761908 198.113592 
L 378.331137 202.413294 
L 377.640036 206.712345 
L 376.705303 211.024784 
L 375.544614 215.353365 
L 374.183481 219.689971 
L 372.649805 224.022279 
L 370.067954 230.524168 
L 367.210583 237.062263 
L 367.210583 237.062263 
" style="fill:none;stroke:#ffffff;stroke-linecap:square;"/>
   </g>
   <g id="patch_3">
    <path d="M 57.6 307.584 
L 57.6 41.472 
" style="fill:none;stroke:#000000;stroke-linecap:square;stroke-linejoin:miter;stroke-width:0.8;"/>
   </g>
   <g id="patch_4">
    <path d="M 414.72 307.584 
L 414.72 41.472 
" style="fill:none;stroke:#000000;stroke-linecap:square;stroke-linejoin:miter;stroke-width:0.8;"/>
   </g>
   <g id="patch_5">
    <path d="M 57.6 307.584 
L 414.72 307.584 
" style="fill:none;stroke:#000000;stroke-linecap:square;stroke-linejoin:miter;stroke-width:0.8;"/>
   </g>
   <g id="patch_6">
    <path d="M 57.6 41.472 
L 414.72 41.472 
" style="fill:none;stroke:#000000;stroke-linecap:square;stroke-linejoin:miter;stroke-width:0.8;"/>
   </g>
  </g>
 </g>
 <defs>
  <clipPath id="pc953605757">
   <rect height="266.112" width="357.12" x="57.6" y="41.472"/>
  </clipPath>
 </defs>
</svg>
