<?xml version="1.0" encoding="utf-8" standalone="no"?>
<!DOCTYPE svg PUBLIC "-//W3C//DTD SVG 1.1//EN"
  "http://www.w3.org/Graphics/SVG/1.1/DTD/svg11.dtd">
<!-- Created with matplotlib (https://matplotlib.org/) -->
<svg height="345.6pt" version="1.1" viewBox="0 0 460.8 345.6" width="460.8pt" xmlns="http://www.w3.org/2000/svg" xmlns:xlink="http://www.w3.org/1999/xlink">
 <metadata>
  <rdf:RDF xmlns:cc="http://creativecommons.org/ns#" xmlns:dc="http://purl.org/dc/elements/1.1/" xmlns:rdf="http://www.w3.org/1999/02/22-rdf-syntax-ns#">
   <cc:Work>
    <dc:type rdf:resource="http://purl.org/dc/dcmitype/StillImage"/>
    <dc:date>2021-01-25T11:10:58.203867</dc:date>
    <dc:format>image/svg+xml</dc:format>
    <dc:creator>
     <cc:Agent>
      <dc:title>Matplotlib v3.3.3, https://matplotlib.org/</dc:title>
     </cc:Agent>
    </dc:creator>
   </cc:Work>
  </rdf:RDF>
 </metadata>
 <defs>
  <style type="text/css">*{stroke-linecap:butt;stroke-linejoin:round;}</style>
 </defs>
 <g id="figure_1">
  <g id="patch_1">
   <path d="M 0 345.6 
L 460.8 345.6 
L 460.8 0 
L 0 0 
z
" style="fill:#ffffff;"/>
  </g>
  <g id="axes_1">
   <g id="patch_2">
    <path d="M 57.6 307.584 
L 414.72 307.584 
L 414.72 41.472 
L 57.6 41.472 
z
" style="fill:#7d9051;"/>
   </g>
   <g id="matplotlib.axis_1">
    <g id="xtick_1">
     <g id="line2d_1">
      <defs>
       <path d="M 0 0 
L 0 3.5 
" id="m98fcab7179" style="stroke:#000000;stroke-width:0.8;"/>
      </defs>
      <g>
       <use style="stroke:#000000;stroke-width:0.8;" x="90.36108" xlink:href="#m98fcab7179" y="307.584"/>
      </g>
     </g>
     <g id="text_1">
      <!-- 10 -->
      <g transform="translate(83.99858 322.182437)scale(0.1 -0.1)">
       <defs>
        <path d="M 12.40625 8.296875 
L 28.515625 8.296875 
L 28.515625 63.921875 
L 10.984375 60.40625 
L 10.984375 69.390625 
L 28.421875 72.90625 
L 38.28125 72.90625 
L 38.28125 8.296875 
L 54.390625 8.296875 
L 54.390625 0 
L 12.40625 0 
z
" id="DejaVuSans-49"/>
        <path d="M 31.78125 66.40625 
Q 24.171875 66.40625 20.328125 58.90625 
Q 16.5 51.421875 16.5 36.375 
Q 16.5 21.390625 20.328125 13.890625 
Q 24.171875 6.390625 31.78125 6.390625 
Q 39.453125 6.390625 43.28125 13.890625 
Q 47.125 21.390625 47.125 36.375 
Q 47.125 51.421875 43.28125 58.90625 
Q 39.453125 66.40625 31.78125 66.40625 
z
M 31.78125 74.21875 
Q 44.046875 74.21875 50.515625 64.515625 
Q 56.984375 54.828125 56.984375 36.375 
Q 56.984375 17.96875 50.515625 8.265625 
Q 44.046875 -1.421875 31.78125 -1.421875 
Q 19.53125 -1.421875 13.0625 8.265625 
Q 6.59375 17.96875 6.59375 36.375 
Q 6.59375 54.828125 13.0625 64.515625 
Q 19.53125 74.21875 31.78125 74.21875 
z
" id="DejaVuSans-48"/>
       </defs>
       <use xlink:href="#DejaVuSans-49"/>
       <use x="63.623047" xlink:href="#DejaVuSans-48"/>
      </g>
     </g>
    </g>
    <g id="xtick_2">
     <g id="line2d_2">
      <g>
       <use style="stroke:#000000;stroke-width:0.8;" x="130.324667" xlink:href="#m98fcab7179" y="307.584"/>
      </g>
     </g>
     <g id="text_2">
      <!-- 20 -->
      <g transform="translate(123.962167 322.182437)scale(0.1 -0.1)">
       <defs>
        <path d="M 19.1875 8.296875 
L 53.609375 8.296875 
L 53.609375 0 
L 7.328125 0 
L 7.328125 8.296875 
Q 12.9375 14.109375 22.625 23.890625 
Q 32.328125 33.6875 34.8125 36.53125 
Q 39.546875 41.84375 41.421875 45.53125 
Q 43.3125 49.21875 43.3125 52.78125 
Q 43.3125 58.59375 39.234375 62.25 
Q 35.15625 65.921875 28.609375 65.921875 
Q 23.96875 65.921875 18.8125 64.3125 
Q 13.671875 62.703125 7.8125 59.421875 
L 7.8125 69.390625 
Q 13.765625 71.78125 18.9375 73 
Q 24.125 74.21875 28.421875 74.21875 
Q 39.75 74.21875 46.484375 68.546875 
Q 53.21875 62.890625 53.21875 53.421875 
Q 53.21875 48.921875 51.53125 44.890625 
Q 49.859375 40.875 45.40625 35.40625 
Q 44.1875 33.984375 37.640625 27.21875 
Q 31.109375 20.453125 19.1875 8.296875 
z
" id="DejaVuSans-50"/>
       </defs>
       <use xlink:href="#DejaVuSans-50"/>
       <use x="63.623047" xlink:href="#DejaVuSans-48"/>
      </g>
     </g>
    </g>
    <g id="xtick_3">
     <g id="line2d_3">
      <g>
       <use style="stroke:#000000;stroke-width:0.8;" x="170.288254" xlink:href="#m98fcab7179" y="307.584"/>
      </g>
     </g>
     <g id="text_3">
      <!-- 30 -->
      <g transform="translate(163.925754 322.182437)scale(0.1 -0.1)">
       <defs>
        <path d="M 40.578125 39.3125 
Q 47.65625 37.796875 51.625 33 
Q 55.609375 28.21875 55.609375 21.1875 
Q 55.609375 10.40625 48.1875 4.484375 
Q 40.765625 -1.421875 27.09375 -1.421875 
Q 22.515625 -1.421875 17.65625 -0.515625 
Q 12.796875 0.390625 7.625 2.203125 
L 7.625 11.71875 
Q 11.71875 9.328125 16.59375 8.109375 
Q 21.484375 6.890625 26.8125 6.890625 
Q 36.078125 6.890625 40.9375 10.546875 
Q 45.796875 14.203125 45.796875 21.1875 
Q 45.796875 27.640625 41.28125 31.265625 
Q 36.765625 34.90625 28.71875 34.90625 
L 20.21875 34.90625 
L 20.21875 43.015625 
L 29.109375 43.015625 
Q 36.375 43.015625 40.234375 45.921875 
Q 44.09375 48.828125 44.09375 54.296875 
Q 44.09375 59.90625 40.109375 62.90625 
Q 36.140625 65.921875 28.71875 65.921875 
Q 24.65625 65.921875 20.015625 65.03125 
Q 15.375 64.15625 9.8125 62.3125 
L 9.8125 71.09375 
Q 15.4375 72.65625 20.34375 73.4375 
Q 25.25 74.21875 29.59375 74.21875 
Q 40.828125 74.21875 47.359375 69.109375 
Q 53.90625 64.015625 53.90625 55.328125 
Q 53.90625 49.265625 50.4375 45.09375 
Q 46.96875 40.921875 40.578125 39.3125 
z
" id="DejaVuSans-51"/>
       </defs>
       <use xlink:href="#DejaVuSans-51"/>
       <use x="63.623047" xlink:href="#DejaVuSans-48"/>
      </g>
     </g>
    </g>
    <g id="xtick_4">
     <g id="line2d_4">
      <g>
       <use style="stroke:#000000;stroke-width:0.8;" x="210.251842" xlink:href="#m98fcab7179" y="307.584"/>
      </g>
     </g>
     <g id="text_4">
      <!-- 40 -->
      <g transform="translate(203.889342 322.182437)scale(0.1 -0.1)">
       <defs>
        <path d="M 37.796875 64.3125 
L 12.890625 25.390625 
L 37.796875 25.390625 
z
M 35.203125 72.90625 
L 47.609375 72.90625 
L 47.609375 25.390625 
L 58.015625 25.390625 
L 58.015625 17.1875 
L 47.609375 17.1875 
L 47.609375 0 
L 37.796875 0 
L 37.796875 17.1875 
L 4.890625 17.1875 
L 4.890625 26.703125 
z
" id="DejaVuSans-52"/>
       </defs>
       <use xlink:href="#DejaVuSans-52"/>
       <use x="63.623047" xlink:href="#DejaVuSans-48"/>
      </g>
     </g>
    </g>
    <g id="xtick_5">
     <g id="line2d_5">
      <g>
       <use style="stroke:#000000;stroke-width:0.8;" x="250.215429" xlink:href="#m98fcab7179" y="307.584"/>
      </g>
     </g>
     <g id="text_5">
      <!-- 50 -->
      <g transform="translate(243.852929 322.182437)scale(0.1 -0.1)">
       <defs>
        <path d="M 10.796875 72.90625 
L 49.515625 72.90625 
L 49.515625 64.59375 
L 19.828125 64.59375 
L 19.828125 46.734375 
Q 21.96875 47.46875 24.109375 47.828125 
Q 26.265625 48.1875 28.421875 48.1875 
Q 40.625 48.1875 47.75 41.5 
Q 54.890625 34.8125 54.890625 23.390625 
Q 54.890625 11.625 47.5625 5.09375 
Q 40.234375 -1.421875 26.90625 -1.421875 
Q 22.3125 -1.421875 17.546875 -0.640625 
Q 12.796875 0.140625 7.71875 1.703125 
L 7.71875 11.625 
Q 12.109375 9.234375 16.796875 8.0625 
Q 21.484375 6.890625 26.703125 6.890625 
Q 35.15625 6.890625 40.078125 11.328125 
Q 45.015625 15.765625 45.015625 23.390625 
Q 45.015625 31 40.078125 35.4375 
Q 35.15625 39.890625 26.703125 39.890625 
Q 22.75 39.890625 18.8125 39.015625 
Q 14.890625 38.140625 10.796875 36.28125 
z
" id="DejaVuSans-53"/>
       </defs>
       <use xlink:href="#DejaVuSans-53"/>
       <use x="63.623047" xlink:href="#DejaVuSans-48"/>
      </g>
     </g>
    </g>
    <g id="xtick_6">
     <g id="line2d_6">
      <g>
       <use style="stroke:#000000;stroke-width:0.8;" x="290.179016" xlink:href="#m98fcab7179" y="307.584"/>
      </g>
     </g>
     <g id="text_6">
      <!-- 60 -->
      <g transform="translate(283.816516 322.182437)scale(0.1 -0.1)">
       <defs>
        <path d="M 33.015625 40.375 
Q 26.375 40.375 22.484375 35.828125 
Q 18.609375 31.296875 18.609375 23.390625 
Q 18.609375 15.53125 22.484375 10.953125 
Q 26.375 6.390625 33.015625 6.390625 
Q 39.65625 6.390625 43.53125 10.953125 
Q 47.40625 15.53125 47.40625 23.390625 
Q 47.40625 31.296875 43.53125 35.828125 
Q 39.65625 40.375 33.015625 40.375 
z
M 52.59375 71.296875 
L 52.59375 62.3125 
Q 48.875 64.0625 45.09375 64.984375 
Q 41.3125 65.921875 37.59375 65.921875 
Q 27.828125 65.921875 22.671875 59.328125 
Q 17.53125 52.734375 16.796875 39.40625 
Q 19.671875 43.65625 24.015625 45.921875 
Q 28.375 48.1875 33.59375 48.1875 
Q 44.578125 48.1875 50.953125 41.515625 
Q 57.328125 34.859375 57.328125 23.390625 
Q 57.328125 12.15625 50.6875 5.359375 
Q 44.046875 -1.421875 33.015625 -1.421875 
Q 20.359375 -1.421875 13.671875 8.265625 
Q 6.984375 17.96875 6.984375 36.375 
Q 6.984375 53.65625 15.1875 63.9375 
Q 23.390625 74.21875 37.203125 74.21875 
Q 40.921875 74.21875 44.703125 73.484375 
Q 48.484375 72.75 52.59375 71.296875 
z
" id="DejaVuSans-54"/>
       </defs>
       <use xlink:href="#DejaVuSans-54"/>
       <use x="63.623047" xlink:href="#DejaVuSans-48"/>
      </g>
     </g>
    </g>
    <g id="xtick_7">
     <g id="line2d_7">
      <g>
       <use style="stroke:#000000;stroke-width:0.8;" x="330.142604" xlink:href="#m98fcab7179" y="307.584"/>
      </g>
     </g>
     <g id="text_7">
      <!-- 70 -->
      <g transform="translate(323.780104 322.182437)scale(0.1 -0.1)">
       <defs>
        <path d="M 8.203125 72.90625 
L 55.078125 72.90625 
L 55.078125 68.703125 
L 28.609375 0 
L 18.3125 0 
L 43.21875 64.59375 
L 8.203125 64.59375 
z
" id="DejaVuSans-55"/>
       </defs>
       <use xlink:href="#DejaVuSans-55"/>
       <use x="63.623047" xlink:href="#DejaVuSans-48"/>
      </g>
     </g>
    </g>
    <g id="xtick_8">
     <g id="line2d_8">
      <g>
       <use style="stroke:#000000;stroke-width:0.8;" x="370.106191" xlink:href="#m98fcab7179" y="307.584"/>
      </g>
     </g>
     <g id="text_8">
      <!-- 80 -->
      <g transform="translate(363.743691 322.182437)scale(0.1 -0.1)">
       <defs>
        <path d="M 31.78125 34.625 
Q 24.75 34.625 20.71875 30.859375 
Q 16.703125 27.09375 16.703125 20.515625 
Q 16.703125 13.921875 20.71875 10.15625 
Q 24.75 6.390625 31.78125 6.390625 
Q 38.8125 6.390625 42.859375 10.171875 
Q 46.921875 13.96875 46.921875 20.515625 
Q 46.921875 27.09375 42.890625 30.859375 
Q 38.875 34.625 31.78125 34.625 
z
M 21.921875 38.8125 
Q 15.578125 40.375 12.03125 44.71875 
Q 8.5 49.078125 8.5 55.328125 
Q 8.5 64.0625 14.71875 69.140625 
Q 20.953125 74.21875 31.78125 74.21875 
Q 42.671875 74.21875 48.875 69.140625 
Q 55.078125 64.0625 55.078125 55.328125 
Q 55.078125 49.078125 51.53125 44.71875 
Q 48 40.375 41.703125 38.8125 
Q 48.828125 37.15625 52.796875 32.3125 
Q 56.78125 27.484375 56.78125 20.515625 
Q 56.78125 9.90625 50.3125 4.234375 
Q 43.84375 -1.421875 31.78125 -1.421875 
Q 19.734375 -1.421875 13.25 4.234375 
Q 6.78125 9.90625 6.78125 20.515625 
Q 6.78125 27.484375 10.78125 32.3125 
Q 14.796875 37.15625 21.921875 38.8125 
z
M 18.3125 54.390625 
Q 18.3125 48.734375 21.84375 45.5625 
Q 25.390625 42.390625 31.78125 42.390625 
Q 38.140625 42.390625 41.71875 45.5625 
Q 45.3125 48.734375 45.3125 54.390625 
Q 45.3125 60.0625 41.71875 63.234375 
Q 38.140625 66.40625 31.78125 66.40625 
Q 25.390625 66.40625 21.84375 63.234375 
Q 18.3125 60.0625 18.3125 54.390625 
z
" id="DejaVuSans-56"/>
       </defs>
       <use xlink:href="#DejaVuSans-56"/>
       <use x="63.623047" xlink:href="#DejaVuSans-48"/>
      </g>
     </g>
    </g>
    <g id="xtick_9">
     <g id="line2d_9">
      <g>
       <use style="stroke:#000000;stroke-width:0.8;" x="410.069778" xlink:href="#m98fcab7179" y="307.584"/>
      </g>
     </g>
     <g id="text_9">
      <!-- 90 -->
      <g transform="translate(403.707278 322.182437)scale(0.1 -0.1)">
       <defs>
        <path d="M 10.984375 1.515625 
L 10.984375 10.5 
Q 14.703125 8.734375 18.5 7.8125 
Q 22.3125 6.890625 25.984375 6.890625 
Q 35.75 6.890625 40.890625 13.453125 
Q 46.046875 20.015625 46.78125 33.40625 
Q 43.953125 29.203125 39.59375 26.953125 
Q 35.25 24.703125 29.984375 24.703125 
Q 19.046875 24.703125 12.671875 31.3125 
Q 6.296875 37.9375 6.296875 49.421875 
Q 6.296875 60.640625 12.9375 67.421875 
Q 19.578125 74.21875 30.609375 74.21875 
Q 43.265625 74.21875 49.921875 64.515625 
Q 56.59375 54.828125 56.59375 36.375 
Q 56.59375 19.140625 48.40625 8.859375 
Q 40.234375 -1.421875 26.421875 -1.421875 
Q 22.703125 -1.421875 18.890625 -0.6875 
Q 15.09375 0.046875 10.984375 1.515625 
z
M 30.609375 32.421875 
Q 37.25 32.421875 41.125 36.953125 
Q 45.015625 41.5 45.015625 49.421875 
Q 45.015625 57.28125 41.125 61.84375 
Q 37.25 66.40625 30.609375 66.40625 
Q 23.96875 66.40625 20.09375 61.84375 
Q 16.21875 57.28125 16.21875 49.421875 
Q 16.21875 41.5 20.09375 36.953125 
Q 23.96875 32.421875 30.609375 32.421875 
z
" id="DejaVuSans-57"/>
       </defs>
       <use xlink:href="#DejaVuSans-57"/>
       <use x="63.623047" xlink:href="#DejaVuSans-48"/>
      </g>
     </g>
    </g>
   </g>
   <g id="matplotlib.axis_2">
    <g id="ytick_1">
     <g id="line2d_10">
      <defs>
       <path d="M 0 0 
L -3.5 0 
" id="m9d6cc31988" style="stroke:#000000;stroke-width:0.8;"/>
      </defs>
      <g>
       <use style="stroke:#000000;stroke-width:0.8;" x="57.6" xlink:href="#m9d6cc31988" y="298.07046"/>
      </g>
     </g>
     <g id="text_10">
      <!-- 0 -->
      <g transform="translate(44.2375 301.869679)scale(0.1 -0.1)">
       <use xlink:href="#DejaVuSans-48"/>
      </g>
     </g>
    </g>
    <g id="ytick_2">
     <g id="line2d_11">
      <g>
       <use style="stroke:#000000;stroke-width:0.8;" x="57.6" xlink:href="#m9d6cc31988" y="258.106873"/>
      </g>
     </g>
     <g id="text_11">
      <!-- 10 -->
      <g transform="translate(37.875 261.906092)scale(0.1 -0.1)">
       <use xlink:href="#DejaVuSans-49"/>
       <use x="63.623047" xlink:href="#DejaVuSans-48"/>
      </g>
     </g>
    </g>
    <g id="ytick_3">
     <g id="line2d_12">
      <g>
       <use style="stroke:#000000;stroke-width:0.8;" x="57.6" xlink:href="#m9d6cc31988" y="218.143286"/>
      </g>
     </g>
     <g id="text_12">
      <!-- 20 -->
      <g transform="translate(37.875 221.942504)scale(0.1 -0.1)">
       <use xlink:href="#DejaVuSans-50"/>
       <use x="63.623047" xlink:href="#DejaVuSans-48"/>
      </g>
     </g>
    </g>
    <g id="ytick_4">
     <g id="line2d_13">
      <g>
       <use style="stroke:#000000;stroke-width:0.8;" x="57.6" xlink:href="#m9d6cc31988" y="178.179698"/>
      </g>
     </g>
     <g id="text_13">
      <!-- 30 -->
      <g transform="translate(37.875 181.978917)scale(0.1 -0.1)">
       <use xlink:href="#DejaVuSans-51"/>
       <use x="63.623047" xlink:href="#DejaVuSans-48"/>
      </g>
     </g>
    </g>
    <g id="ytick_5">
     <g id="line2d_14">
      <g>
       <use style="stroke:#000000;stroke-width:0.8;" x="57.6" xlink:href="#m9d6cc31988" y="138.216111"/>
      </g>
     </g>
     <g id="text_14">
      <!-- 40 -->
      <g transform="translate(37.875 142.01533)scale(0.1 -0.1)">
       <use xlink:href="#DejaVuSans-52"/>
       <use x="63.623047" xlink:href="#DejaVuSans-48"/>
      </g>
     </g>
    </g>
    <g id="ytick_6">
     <g id="line2d_15">
      <g>
       <use style="stroke:#000000;stroke-width:0.8;" x="57.6" xlink:href="#m9d6cc31988" y="98.252524"/>
      </g>
     </g>
     <g id="text_15">
      <!-- 50 -->
      <g transform="translate(37.875 102.051742)scale(0.1 -0.1)">
       <use xlink:href="#DejaVuSans-53"/>
       <use x="63.623047" xlink:href="#DejaVuSans-48"/>
      </g>
     </g>
    </g>
    <g id="ytick_7">
     <g id="line2d_16">
      <g>
       <use style="stroke:#000000;stroke-width:0.8;" x="57.6" xlink:href="#m9d6cc31988" y="58.288936"/>
      </g>
     </g>
     <g id="text_16">
      <!-- 60 -->
      <g transform="translate(37.875 62.088155)scale(0.1 -0.1)">
       <use xlink:href="#DejaVuSans-54"/>
       <use x="63.623047" xlink:href="#DejaVuSans-48"/>
      </g>
     </g>
    </g>
   </g>
   <g id="line2d_17">
    <path clip-path="url(#pb9e6f40696)" d="M 226.552989 205.374919 
L 225.29014 201.254674 
L 224.339006 197.150413 
L 223.6876 193.062138 
L 223.319935 188.993845 
L 223.232015 184.961519 
L 223.411851 180.957168 
L 223.847454 176.996776 
L 224.526835 173.084341 
L 225.442001 169.219862 
L 226.58496 165.411332 
L 227.939725 161.666744 
L 229.498305 157.99409 
L 231.24871 154.389375 
L 233.182948 150.864586 
L 235.289029 147.427718 
L 237.558961 144.078769 
L 239.976758 140.825733 
L 242.534428 137.672606 
L 245.223977 134.627381 
L 248.033417 131.690057 
L 250.950759 128.876621 
L 253.976003 126.187071 
L 257.101155 123.629402 
L 260.330213 121.211605 
L 263.655183 118.941673 
L 267.076066 116.827599 
L 270.588866 114.877376 
L 274.189585 113.098996 
L 277.878224 111.496457 
L 281.64679 110.081746 
L 285.49928 108.85886 
L 289.415712 107.831796 
L 293.384096 107.004549 
L 297.392444 106.38911 
L 301.428766 105.977485 
L 305.477078 105.781664 
L 309.521393 105.801645 
L 313.549722 106.045423 
L 317.550077 106.512997 
L 321.506472 107.21236 
L 325.410915 108.139515 
L 329.251416 109.290467 
L 333.019982 110.661218 
L 336.72061 112.231787 
L 340.341311 114.002173 
L 343.874092 115.956393 
L 347.32295 118.086452 
L 350.671898 120.384358 
L 353.924934 122.842119 
L 357.066072 125.447745 
L 360.099309 128.193243 
L 363.004661 131.074618 
L 365.762149 134.07988 
L 368.367775 137.213025 
L 370.793565 140.466061 
L 373.035522 143.830995 
L 375.065672 147.303831 
L 376.880019 150.884568 
L 378.454584 154.561218 
L 379.777379 158.333781 
L 380.836414 162.190267 
L 381.635686 166.122684 
L 382.175194 170.11105 
L 382.470925 174.13938 
L 382.518881 178.195684 
L 382.331052 182.259981 
L 381.915431 186.316285 
L 381.272017 190.352607 
L 380.4128 194.348966 
L 379.345772 198.293372 
L 378.066937 202.165843 
L 376.592281 205.962384 
L 374.921803 209.663012 
L 373.063496 213.267728 
L 371.021357 216.760545 
L 368.799382 220.137469 
L 366.405563 223.378516 
L 363.847893 226.483686 
L 361.126373 229.440992 
L 358.248995 232.234446 
L 355.223751 234.864051 
L 352.054639 237.325808 
L 348.765635 239.62771 
L 345.360738 241.769758 
L 341.855931 243.755949 
L 338.259208 245.590277 
L 334.586555 247.276741 
L 330.849959 248.823332 
L 327.061411 250.226053 
L 323.232899 251.492899 
L 319.372417 252.631861 
L 315.491952 253.638944 
L 311.583514 254.534128 
L 303.714683 255.992799 
L 295.785908 257.071816 
L 287.813172 257.831124 
L 279.820454 258.326673 
L 271.819744 258.590432 
L 263.819034 258.634392 
L 255.82232 258.458552 
L 247.841592 258.074902 
L 239.876849 257.491434 
L 227.9677 256.300519 
L 212.094163 254.394256 
L 188.195938 251.404979 
L 180.295137 250.106163 
L 176.378705 249.31888 
L 172.490248 248.415703 
L 168.641755 247.37665 
L 164.833225 246.181738 
L 161.068655 244.81898 
L 157.360034 243.292371 
L 153.711358 241.609904 
L 150.126625 239.771579 
L 146.617822 237.789385 
L 143.18495 235.667319 
L 139.839997 233.413372 
L 136.586961 231.035539 
L 133.429838 228.537815 
L 130.380616 225.928192 
L 127.443293 223.210668 
L 124.609874 220.393236 
L 121.880361 217.483886 
L 119.250757 214.482621 
L 116.709073 211.397432 
L 111.885468 204.995265 
L 107.369583 198.313354 
L 103.129446 191.395657 
L 101.123274 187.854883 
L 99.221007 184.262156 
L 97.438631 180.621473 
L 95.792131 176.932834 
L 94.309482 173.192243 
L 93.006669 169.407691 
L 91.899678 165.575183 
L 91.012486 161.698715 
L 90.36108 157.782283 
L 89.961444 153.821892 
L 89.813579 149.829529 
L 89.909491 145.825178 
L 90.241189 141.812834 
L 90.796683 137.808482 
L 91.575973 133.824113 
L 92.571066 129.871714 
L 93.77397 125.963275 
L 95.172696 122.114782 
L 96.767243 118.334226 
L 98.545623 114.637595 
L 100.499842 111.032879 
L 102.629901 107.536065 
L 104.919815 104.163138 
L 107.369583 100.918095 
L 109.967216 97.816921 
L 112.708718 94.875601 
L 115.586096 92.102128 
L 118.587362 89.512487 
L 121.712514 87.114672 
L 121.712514 87.114672 
" style="fill:none;stroke:#fea952;stroke-linecap:square;"/>
   </g>
   <g id="line2d_18">
    <path clip-path="url(#pb9e6f40696)" d="M 211.269327 210.05934 
L 209.717402 204.863546 
L 208.552705 199.665728 
L 207.767047 194.500931 
L 207.338298 189.342305 
L 207.262676 184.244333 
L 207.522242 179.209471 
L 208.097708 174.261887 
L 208.971629 169.400636 
L 210.131174 164.625007 
L 211.553074 159.972902 
L 213.224523 155.42199 
L 215.11856 151.011465 
L 217.234644 146.699116 
L 219.553063 142.51232 
L 222.056754 138.458825 
L 224.729123 134.543079 
L 227.56206 130.755509 
L 230.552992 127.090577 
L 233.671891 123.578243 
L 236.936775 120.183596 
L 240.329635 116.929828 
L 243.851698 113.816437 
L 247.520033 110.833456 
L 251.317152 108.009375 
L 255.251569 105.343386 
L 259.316903 102.851565 
L 263.510041 100.544743 
L 267.819841 98.437466 
L 272.260146 96.530785 
L 276.810387 94.845495 
L 281.444299 93.396284 
L 286.153526 92.182761 
L 290.958131 91.20427 
L 295.770657 90.486156 
L 300.656435 90.010719 
L 305.556056 89.796424 
L 310.486999 89.845401 
L 315.405516 90.168076 
L 320.332647 90.771605 
L 325.199701 91.659412 
L 329.99991 92.82693 
L 334.715606 94.267925 
L 339.265131 95.946183 
L 343.742428 97.871139 
L 348.078985 100.014231 
L 352.273989 102.35581 
L 356.36714 104.905528 
L 360.308226 107.629935 
L 364.130821 110.538704 
L 367.793367 113.596193 
L 371.355784 116.843094 
L 374.783188 120.267193 
L 378.052774 123.858595 
L 381.182522 127.657065 
L 384.096681 131.602583 
L 386.835909 135.763565 
L 389.325081 140.078639 
L 391.574604 144.591453 
L 393.539579 149.271882 
L 395.192152 154.100708 
L 396.501549 159.006296 
L 397.476846 163.979842 
L 398.117726 168.940666 
L 398.455243 173.950402 
L 398.487273 178.933653 
L 398.233229 183.889366 
L 397.701559 188.832687 
L 396.900323 193.712693 
L 395.843595 198.523254 
L 394.524927 203.306096 
L 392.967791 207.953649 
L 391.162079 212.539247 
L 389.13031 216.987797 
L 386.863354 221.336066 
L 384.37529 225.547275 
L 381.657781 229.63461 
L 378.744286 233.541686 
L 375.610486 237.308451 
L 372.261282 240.910426 
L 368.735929 244.299202 
L 365.030142 247.488187 
L 361.220615 250.422334 
L 357.277832 253.158292 
L 353.242158 255.677215 
L 349.118531 257.996341 
L 344.929955 260.11733 
L 340.700009 262.046974 
L 336.400385 263.814226 
L 332.08317 265.402221 
L 327.756339 266.824978 
L 323.388027 268.104709 
L 319.060825 269.220897 
L 314.697019 270.213421 
L 310.372453 271.066887 
L 301.737109 272.438751 
L 293.176587 273.413967 
L 284.697807 274.068233 
L 276.235166 274.466572 
L 267.80342 274.623816 
L 259.355296 274.553164 
L 250.950332 274.255917 
L 242.593271 273.742533 
L 234.318616 273.034342 
L 222.111134 271.718462 
L 189.991877 267.78851 
L 181.488495 266.541166 
L 177.14476 265.778088 
L 172.762025 264.889807 
L 168.32354 263.848547 
L 163.856388 262.629007 
L 159.392099 261.212649 
L 154.983806 259.601021 
L 150.666249 257.808823 
L 146.416938 255.834023 
L 142.26401 253.689676 
L 138.212535 251.386638 
L 134.252144 248.923982 
L 130.406736 246.318709 
L 126.66882 243.57207 
L 123.035834 240.682723 
L 119.524759 237.662096 
L 116.171904 234.546008 
L 112.951901 231.330593 
L 109.85704 228.018301 
L 106.912962 224.646918 
L 104.075489 221.19165 
L 101.356985 217.675163 
L 98.748083 214.102583 
L 93.829037 206.809691 
L 89.221314 199.275885 
L 86.995922 195.334994 
L 84.863814 191.291035 
L 82.84141 187.137243 
L 80.931486 182.823111 
L 79.194572 178.395475 
L 77.649046 173.843626 
L 76.317138 169.141496 
L 75.243682 164.321486 
L 74.456414 159.387194 
L 73.986962 154.413539 
L 73.832727 149.446755 
L 73.978402 144.508166 
L 74.407381 139.616328 
L 75.108501 134.740082 
L 76.074299 129.921265 
L 77.292861 125.169526 
L 78.750053 120.502869 
L 80.443766 115.902474 
L 82.362086 111.404178 
L 84.492478 107.018983 
L 86.847819 102.716847 
L 89.404422 98.557155 
L 92.161697 94.531702 
L 95.115159 90.653436 
L 98.273585 86.917694 
L 101.615026 83.366295 
L 105.143154 79.999273 
L 108.856553 76.83 
L 111.981705 74.432184 
L 111.981705 74.432184 
" style="fill:none;stroke:#ffffff;stroke-linecap:square;"/>
   </g>
   <g id="line2d_19">
    <path clip-path="url(#pb9e6f40696)" d="M 241.836651 200.690499 
L 240.862878 197.645801 
L 240.125308 194.635098 
L 239.608153 191.623346 
L 239.301571 188.645385 
L 239.201353 185.678705 
L 239.30146 182.704864 
L 239.5972 179.731666 
L 240.082042 176.768045 
L 240.752829 173.814717 
L 241.616846 170.849763 
L 242.654928 167.911498 
L 243.87805 164.976716 
L 245.262777 162.079633 
L 246.812833 159.216853 
L 248.521304 156.396611 
L 250.388799 153.61446 
L 252.391456 150.895957 
L 254.515863 148.254635 
L 256.776063 145.676519 
L 259.13006 143.196519 
L 261.571883 140.823413 
L 264.100307 138.557706 
L 266.682278 136.425347 
L 269.343274 134.413834 
L 272.058797 132.53996 
L 274.83523 130.803633 
L 277.667691 129.210009 
L 280.559329 127.760527 
L 283.496302 126.462128 
L 286.483194 125.317996 
L 289.554262 124.321436 
L 292.677897 123.48083 
L 295.810061 122.804829 
L 299.01423 122.292064 
L 302.201097 121.944252 
L 305.398099 121.766903 
L 308.555786 121.75789 
L 311.693928 121.922771 
L 314.767508 122.25439 
L 317.813244 122.765308 
L 320.82192 123.4521 
L 323.787225 124.313008 
L 326.774832 125.376252 
L 329.698792 126.592434 
L 332.603637 127.990116 
L 335.474195 129.556976 
L 338.27876 131.267376 
L 341.035571 133.138782 
L 343.719048 135.145534 
L 346.338778 137.299297 
L 348.842833 139.543393 
L 351.226135 141.882043 
L 353.471524 144.301165 
L 355.553027 146.768985 
L 357.490449 149.329539 
L 359.235134 151.898425 
L 360.806263 154.529022 
L 362.185434 157.177684 
L 363.36959 159.850554 
L 364.362606 162.566853 
L 365.171279 165.374238 
L 365.794526 168.265526 
L 366.232662 171.281434 
L 366.486607 174.328357 
L 366.550489 177.457715 
L 366.428875 180.630595 
L 366.129303 183.799882 
L 365.643711 186.992521 
L 364.982005 190.174678 
L 364.166618 193.280648 
L 363.166084 196.378038 
L 362.022484 199.385521 
L 360.713296 202.338228 
L 359.263639 205.19939 
L 357.667425 207.973816 
L 355.940982 210.640328 
L 354.066839 213.215345 
L 352.0853 215.658922 
L 349.991464 217.971557 
L 347.76206 220.169691 
L 345.41736 222.239914 
L 342.888662 224.229281 
L 340.253438 226.097129 
L 337.479317 227.862302 
L 334.593331 229.515556 
L 331.588461 231.063224 
L 328.4731 232.506507 
L 325.299533 233.832438 
L 322.039652 235.049886 
L 318.70946 236.160821 
L 315.356807 237.159014 
L 308.470009 238.854836 
L 301.38246 240.178411 
L 294.125771 241.17282 
L 286.711697 241.883683 
L 279.182185 242.353985 
L 271.628124 242.606146 
L 264.058549 242.650752 
L 256.477827 242.486563 
L 248.913421 242.125441 
L 241.33421 241.57257 
L 229.79091 240.419397 
L 214.055324 238.529579 
L 190.635023 235.60672 
L 183.445514 234.434237 
L 176.656956 232.982859 
L 173.427122 232.124293 
L 170.274351 231.150828 
L 167.153504 230.036939 
L 164.053819 228.77592 
L 161.005779 227.385785 
L 157.98924 225.853482 
L 155.023108 224.192132 
L 152.117755 222.410655 
L 149.273259 220.508036 
L 146.505103 218.499008 
L 143.823842 216.392906 
L 141.236473 214.194288 
L 138.714681 211.875329 
L 136.267848 209.455878 
L 133.903682 206.949472 
L 129.342656 201.603215 
L 125.022853 195.887948 
L 120.910128 189.817016 
L 117.037578 183.515428 
L 113.5782 177.233278 
L 112.035853 174.105704 
L 110.652776 171.042557 
L 109.424392 167.989011 
L 108.364293 164.971756 
L 107.482218 162.00887 
L 106.781291 159.075944 
L 106.265746 156.177373 
L 105.935926 153.230244 
L 105.79443 150.212304 
L 105.840581 147.14219 
L 106.074998 144.00934 
L 106.484865 140.876883 
L 107.077647 137.726961 
L 107.849272 134.573902 
L 108.797888 131.423681 
L 109.901625 128.327089 
L 111.1724 125.264275 
L 112.598767 122.256206 
L 114.151865 119.348911 
L 115.855381 116.514975 
L 117.677932 113.794574 
L 119.624006 111.182754 
L 121.660846 108.716147 
L 123.80241 106.384907 
L 126.029038 104.204982 
L 128.31817 102.194975 
L 131.443323 99.797159 
L 131.443323 99.797159 
" style="fill:none;stroke:#ffffff;stroke-linecap:square;"/>
   </g>
   <g id="patch_3">
    <path d="M 57.6 307.584 
L 57.6 41.472 
" style="fill:none;stroke:#000000;stroke-linecap:square;stroke-linejoin:miter;stroke-width:0.8;"/>
   </g>
   <g id="patch_4">
    <path d="M 414.72 307.584 
L 414.72 41.472 
" style="fill:none;stroke:#000000;stroke-linecap:square;stroke-linejoin:miter;stroke-width:0.8;"/>
   </g>
   <g id="patch_5">
    <path d="M 57.6 307.584 
L 414.72 307.584 
" style="fill:none;stroke:#000000;stroke-linecap:square;stroke-linejoin:miter;stroke-width:0.8;"/>
   </g>
   <g id="patch_6">
    <path d="M 57.6 41.472 
L 414.72 41.472 
" style="fill:none;stroke:#000000;stroke-linecap:square;stroke-linejoin:miter;stroke-width:0.8;"/>
   </g>
  </g>
 </g>
 <defs>
  <clipPath id="pb9e6f40696">
   <rect height="266.112" width="357.12" x="57.6" y="41.472"/>
  </clipPath>
 </defs>
</svg>
