<?xml version="1.0" encoding="utf-8" standalone="no"?>
<!DOCTYPE svg PUBLIC "-//W3C//DTD SVG 1.1//EN"
  "http://www.w3.org/Graphics/SVG/1.1/DTD/svg11.dtd">
<!-- Created with matplotlib (https://matplotlib.org/) -->
<svg height="345.6pt" version="1.1" viewBox="0 0 460.8 345.6" width="460.8pt" xmlns="http://www.w3.org/2000/svg" xmlns:xlink="http://www.w3.org/1999/xlink">
 <metadata>
  <rdf:RDF xmlns:cc="http://creativecommons.org/ns#" xmlns:dc="http://purl.org/dc/elements/1.1/" xmlns:rdf="http://www.w3.org/1999/02/22-rdf-syntax-ns#">
   <cc:Work>
    <dc:type rdf:resource="http://purl.org/dc/dcmitype/StillImage"/>
    <dc:date>2021-01-23T12:00:27.872964</dc:date>
    <dc:format>image/svg+xml</dc:format>
    <dc:creator>
     <cc:Agent>
      <dc:title>Matplotlib v3.3.3, https://matplotlib.org/</dc:title>
     </cc:Agent>
    </dc:creator>
   </cc:Work>
  </rdf:RDF>
 </metadata>
 <defs>
  <style type="text/css">*{stroke-linecap:butt;stroke-linejoin:round;}</style>
 </defs>
 <g id="figure_1">
  <g id="patch_1">
   <path d="M 0 345.6 
L 460.8 345.6 
L 460.8 0 
L 0 0 
z
" style="fill:#ffffff;"/>
  </g>
  <g id="axes_1">
   <g id="patch_2">
    <path d="M 57.6 307.584 
L 414.72 307.584 
L 414.72 41.472 
L 57.6 41.472 
z
" style="fill:#7d9051;"/>
   </g>
   <g id="matplotlib.axis_1">
    <g id="xtick_1">
     <g id="line2d_1">
      <defs>
       <path d="M 0 0 
L 0 3.5 
" id="mdd7e6828e9" style="stroke:#000000;stroke-width:0.8;"/>
      </defs>
      <g>
       <use style="stroke:#000000;stroke-width:0.8;" x="59.771828" xlink:href="#mdd7e6828e9" y="307.584"/>
      </g>
     </g>
     <g id="text_1">
      <!-- −50 -->
      <g transform="translate(49.219484 322.182437)scale(0.1 -0.1)">
       <defs>
        <path d="M 10.59375 35.5 
L 73.1875 35.5 
L 73.1875 27.203125 
L 10.59375 27.203125 
z
" id="DejaVuSans-8722"/>
        <path d="M 10.796875 72.90625 
L 49.515625 72.90625 
L 49.515625 64.59375 
L 19.828125 64.59375 
L 19.828125 46.734375 
Q 21.96875 47.46875 24.109375 47.828125 
Q 26.265625 48.1875 28.421875 48.1875 
Q 40.625 48.1875 47.75 41.5 
Q 54.890625 34.8125 54.890625 23.390625 
Q 54.890625 11.625 47.5625 5.09375 
Q 40.234375 -1.421875 26.90625 -1.421875 
Q 22.3125 -1.421875 17.546875 -0.640625 
Q 12.796875 0.140625 7.71875 1.703125 
L 7.71875 11.625 
Q 12.109375 9.234375 16.796875 8.0625 
Q 21.484375 6.890625 26.703125 6.890625 
Q 35.15625 6.890625 40.078125 11.328125 
Q 45.015625 15.765625 45.015625 23.390625 
Q 45.015625 31 40.078125 35.4375 
Q 35.15625 39.890625 26.703125 39.890625 
Q 22.75 39.890625 18.8125 39.015625 
Q 14.890625 38.140625 10.796875 36.28125 
z
" id="DejaVuSans-53"/>
        <path d="M 31.78125 66.40625 
Q 24.171875 66.40625 20.328125 58.90625 
Q 16.5 51.421875 16.5 36.375 
Q 16.5 21.390625 20.328125 13.890625 
Q 24.171875 6.390625 31.78125 6.390625 
Q 39.453125 6.390625 43.28125 13.890625 
Q 47.125 21.390625 47.125 36.375 
Q 47.125 51.421875 43.28125 58.90625 
Q 39.453125 66.40625 31.78125 66.40625 
z
M 31.78125 74.21875 
Q 44.046875 74.21875 50.515625 64.515625 
Q 56.984375 54.828125 56.984375 36.375 
Q 56.984375 17.96875 50.515625 8.265625 
Q 44.046875 -1.421875 31.78125 -1.421875 
Q 19.53125 -1.421875 13.0625 8.265625 
Q 6.59375 17.96875 6.59375 36.375 
Q 6.59375 54.828125 13.0625 64.515625 
Q 19.53125 74.21875 31.78125 74.21875 
z
" id="DejaVuSans-48"/>
       </defs>
       <use xlink:href="#DejaVuSans-8722"/>
       <use x="83.789062" xlink:href="#DejaVuSans-53"/>
       <use x="147.412109" xlink:href="#DejaVuSans-48"/>
      </g>
     </g>
    </g>
    <g id="xtick_2">
     <g id="line2d_2">
      <g>
       <use style="stroke:#000000;stroke-width:0.8;" x="104.718165" xlink:href="#mdd7e6828e9" y="307.584"/>
      </g>
     </g>
     <g id="text_2">
      <!-- −25 -->
      <g transform="translate(94.165821 322.182437)scale(0.1 -0.1)">
       <defs>
        <path d="M 19.1875 8.296875 
L 53.609375 8.296875 
L 53.609375 0 
L 7.328125 0 
L 7.328125 8.296875 
Q 12.9375 14.109375 22.625 23.890625 
Q 32.328125 33.6875 34.8125 36.53125 
Q 39.546875 41.84375 41.421875 45.53125 
Q 43.3125 49.21875 43.3125 52.78125 
Q 43.3125 58.59375 39.234375 62.25 
Q 35.15625 65.921875 28.609375 65.921875 
Q 23.96875 65.921875 18.8125 64.3125 
Q 13.671875 62.703125 7.8125 59.421875 
L 7.8125 69.390625 
Q 13.765625 71.78125 18.9375 73 
Q 24.125 74.21875 28.421875 74.21875 
Q 39.75 74.21875 46.484375 68.546875 
Q 53.21875 62.890625 53.21875 53.421875 
Q 53.21875 48.921875 51.53125 44.890625 
Q 49.859375 40.875 45.40625 35.40625 
Q 44.1875 33.984375 37.640625 27.21875 
Q 31.109375 20.453125 19.1875 8.296875 
z
" id="DejaVuSans-50"/>
       </defs>
       <use xlink:href="#DejaVuSans-8722"/>
       <use x="83.789062" xlink:href="#DejaVuSans-50"/>
       <use x="147.412109" xlink:href="#DejaVuSans-53"/>
      </g>
     </g>
    </g>
    <g id="xtick_3">
     <g id="line2d_3">
      <g>
       <use style="stroke:#000000;stroke-width:0.8;" x="149.664502" xlink:href="#mdd7e6828e9" y="307.584"/>
      </g>
     </g>
     <g id="text_3">
      <!-- 0 -->
      <g transform="translate(146.483252 322.182437)scale(0.1 -0.1)">
       <use xlink:href="#DejaVuSans-48"/>
      </g>
     </g>
    </g>
    <g id="xtick_4">
     <g id="line2d_4">
      <g>
       <use style="stroke:#000000;stroke-width:0.8;" x="194.610839" xlink:href="#mdd7e6828e9" y="307.584"/>
      </g>
     </g>
     <g id="text_4">
      <!-- 25 -->
      <g transform="translate(188.248339 322.182437)scale(0.1 -0.1)">
       <use xlink:href="#DejaVuSans-50"/>
       <use x="63.623047" xlink:href="#DejaVuSans-53"/>
      </g>
     </g>
    </g>
    <g id="xtick_5">
     <g id="line2d_5">
      <g>
       <use style="stroke:#000000;stroke-width:0.8;" x="239.557176" xlink:href="#mdd7e6828e9" y="307.584"/>
      </g>
     </g>
     <g id="text_5">
      <!-- 50 -->
      <g transform="translate(233.194676 322.182437)scale(0.1 -0.1)">
       <use xlink:href="#DejaVuSans-53"/>
       <use x="63.623047" xlink:href="#DejaVuSans-48"/>
      </g>
     </g>
    </g>
    <g id="xtick_6">
     <g id="line2d_6">
      <g>
       <use style="stroke:#000000;stroke-width:0.8;" x="284.503513" xlink:href="#mdd7e6828e9" y="307.584"/>
      </g>
     </g>
     <g id="text_6">
      <!-- 75 -->
      <g transform="translate(278.141013 322.182437)scale(0.1 -0.1)">
       <defs>
        <path d="M 8.203125 72.90625 
L 55.078125 72.90625 
L 55.078125 68.703125 
L 28.609375 0 
L 18.3125 0 
L 43.21875 64.59375 
L 8.203125 64.59375 
z
" id="DejaVuSans-55"/>
       </defs>
       <use xlink:href="#DejaVuSans-55"/>
       <use x="63.623047" xlink:href="#DejaVuSans-53"/>
      </g>
     </g>
    </g>
    <g id="xtick_7">
     <g id="line2d_7">
      <g>
       <use style="stroke:#000000;stroke-width:0.8;" x="329.44985" xlink:href="#mdd7e6828e9" y="307.584"/>
      </g>
     </g>
     <g id="text_7">
      <!-- 100 -->
      <g transform="translate(319.9061 322.182437)scale(0.1 -0.1)">
       <defs>
        <path d="M 12.40625 8.296875 
L 28.515625 8.296875 
L 28.515625 63.921875 
L 10.984375 60.40625 
L 10.984375 69.390625 
L 28.421875 72.90625 
L 38.28125 72.90625 
L 38.28125 8.296875 
L 54.390625 8.296875 
L 54.390625 0 
L 12.40625 0 
z
" id="DejaVuSans-49"/>
       </defs>
       <use xlink:href="#DejaVuSans-49"/>
       <use x="63.623047" xlink:href="#DejaVuSans-48"/>
       <use x="127.246094" xlink:href="#DejaVuSans-48"/>
      </g>
     </g>
    </g>
    <g id="xtick_8">
     <g id="line2d_8">
      <g>
       <use style="stroke:#000000;stroke-width:0.8;" x="374.396186" xlink:href="#mdd7e6828e9" y="307.584"/>
      </g>
     </g>
     <g id="text_8">
      <!-- 125 -->
      <g transform="translate(364.852436 322.182437)scale(0.1 -0.1)">
       <use xlink:href="#DejaVuSans-49"/>
       <use x="63.623047" xlink:href="#DejaVuSans-50"/>
       <use x="127.246094" xlink:href="#DejaVuSans-53"/>
      </g>
     </g>
    </g>
   </g>
   <g id="matplotlib.axis_2">
    <g id="ytick_1">
     <g id="line2d_9">
      <defs>
       <path d="M 0 0 
L -3.5 0 
" id="m528bb9ef32" style="stroke:#000000;stroke-width:0.8;"/>
      </defs>
      <g>
       <use style="stroke:#000000;stroke-width:0.8;" x="57.6" xlink:href="#m528bb9ef32" y="276.279694"/>
      </g>
     </g>
     <g id="text_9">
      <!-- 20 -->
      <g transform="translate(37.875 280.078913)scale(0.1 -0.1)">
       <use xlink:href="#DejaVuSans-50"/>
       <use x="63.623047" xlink:href="#DejaVuSans-48"/>
      </g>
     </g>
    </g>
    <g id="ytick_2">
     <g id="line2d_10">
      <g>
       <use style="stroke:#000000;stroke-width:0.8;" x="57.6" xlink:href="#m528bb9ef32" y="240.322624"/>
      </g>
     </g>
     <g id="text_10">
      <!-- 40 -->
      <g transform="translate(37.875 244.121843)scale(0.1 -0.1)">
       <defs>
        <path d="M 37.796875 64.3125 
L 12.890625 25.390625 
L 37.796875 25.390625 
z
M 35.203125 72.90625 
L 47.609375 72.90625 
L 47.609375 25.390625 
L 58.015625 25.390625 
L 58.015625 17.1875 
L 47.609375 17.1875 
L 47.609375 0 
L 37.796875 0 
L 37.796875 17.1875 
L 4.890625 17.1875 
L 4.890625 26.703125 
z
" id="DejaVuSans-52"/>
       </defs>
       <use xlink:href="#DejaVuSans-52"/>
       <use x="63.623047" xlink:href="#DejaVuSans-48"/>
      </g>
     </g>
    </g>
    <g id="ytick_3">
     <g id="line2d_11">
      <g>
       <use style="stroke:#000000;stroke-width:0.8;" x="57.6" xlink:href="#m528bb9ef32" y="204.365555"/>
      </g>
     </g>
     <g id="text_11">
      <!-- 60 -->
      <g transform="translate(37.875 208.164774)scale(0.1 -0.1)">
       <defs>
        <path d="M 33.015625 40.375 
Q 26.375 40.375 22.484375 35.828125 
Q 18.609375 31.296875 18.609375 23.390625 
Q 18.609375 15.53125 22.484375 10.953125 
Q 26.375 6.390625 33.015625 6.390625 
Q 39.65625 6.390625 43.53125 10.953125 
Q 47.40625 15.53125 47.40625 23.390625 
Q 47.40625 31.296875 43.53125 35.828125 
Q 39.65625 40.375 33.015625 40.375 
z
M 52.59375 71.296875 
L 52.59375 62.3125 
Q 48.875 64.0625 45.09375 64.984375 
Q 41.3125 65.921875 37.59375 65.921875 
Q 27.828125 65.921875 22.671875 59.328125 
Q 17.53125 52.734375 16.796875 39.40625 
Q 19.671875 43.65625 24.015625 45.921875 
Q 28.375 48.1875 33.59375 48.1875 
Q 44.578125 48.1875 50.953125 41.515625 
Q 57.328125 34.859375 57.328125 23.390625 
Q 57.328125 12.15625 50.6875 5.359375 
Q 44.046875 -1.421875 33.015625 -1.421875 
Q 20.359375 -1.421875 13.671875 8.265625 
Q 6.984375 17.96875 6.984375 36.375 
Q 6.984375 53.65625 15.1875 63.9375 
Q 23.390625 74.21875 37.203125 74.21875 
Q 40.921875 74.21875 44.703125 73.484375 
Q 48.484375 72.75 52.59375 71.296875 
z
" id="DejaVuSans-54"/>
       </defs>
       <use xlink:href="#DejaVuSans-54"/>
       <use x="63.623047" xlink:href="#DejaVuSans-48"/>
      </g>
     </g>
    </g>
    <g id="ytick_4">
     <g id="line2d_12">
      <g>
       <use style="stroke:#000000;stroke-width:0.8;" x="57.6" xlink:href="#m528bb9ef32" y="168.408485"/>
      </g>
     </g>
     <g id="text_12">
      <!-- 80 -->
      <g transform="translate(37.875 172.207704)scale(0.1 -0.1)">
       <defs>
        <path d="M 31.78125 34.625 
Q 24.75 34.625 20.71875 30.859375 
Q 16.703125 27.09375 16.703125 20.515625 
Q 16.703125 13.921875 20.71875 10.15625 
Q 24.75 6.390625 31.78125 6.390625 
Q 38.8125 6.390625 42.859375 10.171875 
Q 46.921875 13.96875 46.921875 20.515625 
Q 46.921875 27.09375 42.890625 30.859375 
Q 38.875 34.625 31.78125 34.625 
z
M 21.921875 38.8125 
Q 15.578125 40.375 12.03125 44.71875 
Q 8.5 49.078125 8.5 55.328125 
Q 8.5 64.0625 14.71875 69.140625 
Q 20.953125 74.21875 31.78125 74.21875 
Q 42.671875 74.21875 48.875 69.140625 
Q 55.078125 64.0625 55.078125 55.328125 
Q 55.078125 49.078125 51.53125 44.71875 
Q 48 40.375 41.703125 38.8125 
Q 48.828125 37.15625 52.796875 32.3125 
Q 56.78125 27.484375 56.78125 20.515625 
Q 56.78125 9.90625 50.3125 4.234375 
Q 43.84375 -1.421875 31.78125 -1.421875 
Q 19.734375 -1.421875 13.25 4.234375 
Q 6.78125 9.90625 6.78125 20.515625 
Q 6.78125 27.484375 10.78125 32.3125 
Q 14.796875 37.15625 21.921875 38.8125 
z
M 18.3125 54.390625 
Q 18.3125 48.734375 21.84375 45.5625 
Q 25.390625 42.390625 31.78125 42.390625 
Q 38.140625 42.390625 41.71875 45.5625 
Q 45.3125 48.734375 45.3125 54.390625 
Q 45.3125 60.0625 41.71875 63.234375 
Q 38.140625 66.40625 31.78125 66.40625 
Q 25.390625 66.40625 21.84375 63.234375 
Q 18.3125 60.0625 18.3125 54.390625 
z
" id="DejaVuSans-56"/>
       </defs>
       <use xlink:href="#DejaVuSans-56"/>
       <use x="63.623047" xlink:href="#DejaVuSans-48"/>
      </g>
     </g>
    </g>
    <g id="ytick_5">
     <g id="line2d_13">
      <g>
       <use style="stroke:#000000;stroke-width:0.8;" x="57.6" xlink:href="#m528bb9ef32" y="132.451416"/>
      </g>
     </g>
     <g id="text_13">
      <!-- 100 -->
      <g transform="translate(31.5125 136.250635)scale(0.1 -0.1)">
       <use xlink:href="#DejaVuSans-49"/>
       <use x="63.623047" xlink:href="#DejaVuSans-48"/>
       <use x="127.246094" xlink:href="#DejaVuSans-48"/>
      </g>
     </g>
    </g>
    <g id="ytick_6">
     <g id="line2d_14">
      <g>
       <use style="stroke:#000000;stroke-width:0.8;" x="57.6" xlink:href="#m528bb9ef32" y="96.494346"/>
      </g>
     </g>
     <g id="text_14">
      <!-- 120 -->
      <g transform="translate(31.5125 100.293565)scale(0.1 -0.1)">
       <use xlink:href="#DejaVuSans-49"/>
       <use x="63.623047" xlink:href="#DejaVuSans-50"/>
       <use x="127.246094" xlink:href="#DejaVuSans-48"/>
      </g>
     </g>
    </g>
    <g id="ytick_7">
     <g id="line2d_15">
      <g>
       <use style="stroke:#000000;stroke-width:0.8;" x="57.6" xlink:href="#m528bb9ef32" y="60.537277"/>
      </g>
     </g>
     <g id="text_15">
      <!-- 140 -->
      <g transform="translate(31.5125 64.336496)scale(0.1 -0.1)">
       <use xlink:href="#DejaVuSans-49"/>
       <use x="63.623047" xlink:href="#DejaVuSans-52"/>
       <use x="127.246094" xlink:href="#DejaVuSans-48"/>
      </g>
     </g>
    </g>
   </g>
   <g id="line2d_16">
    <path clip-path="url(#pf72d3c3f5c)" d="M 167.643037 294.258229 
L 167.094691 290.685894 
L 166.830407 287.082995 
L 166.839396 283.467512 
L 167.118064 279.861018 
L 167.65742 276.279694 
L 168.448475 272.745114 
L 169.485837 269.275257 
L 170.758717 265.889899 
L 172.261722 262.610614 
L 173.987662 259.451785 
L 175.920354 256.427796 
L 178.016651 253.513475 
L 181.358861 249.268743 
L 188.140364 240.835013 
L 191.318969 236.471622 
L 193.29481 233.467409 
L 195.123227 230.369708 
L 196.780848 227.162337 
L 198.249694 223.85968 
L 199.517181 220.474322 
L 200.570723 217.024241 
L 201.397736 213.520225 
L 201.994623 209.980251 
L 202.568138 204.62085 
L 204.019006 186.665687 
L 204.572745 183.111331 
L 205.293684 179.58574 
L 206.214185 176.092511 
L 207.35762 172.656813 
L 208.741967 169.30921 
L 210.388801 166.087457 
L 212.314302 163.02751 
L 214.534651 160.163529 
L 217.042657 157.531472 
L 219.805958 155.158305 
L 222.790394 153.078189 
L 225.961808 151.319888 
L 229.287837 149.912169 
L 232.734322 148.851435 
L 236.268902 148.099932 
L 239.862811 147.619906 
L 243.48189 147.371802 
L 247.095575 147.317866 
L 252.48554 147.501247 
L 268.655434 148.443323 
L 272.261928 148.409163 
L 275.857635 148.164655 
L 279.428172 147.655863 
L 282.960954 146.827052 
L 286.421822 145.649458 
L 289.744256 144.117687 
L 292.863531 142.233537 
L 294.326984 141.15842 
L 295.714927 139.995209 
L 297.018371 138.742105 
L 298.23372 137.400906 
L 299.357378 135.978804 
L 300.387548 134.48299 
L 302.169221 131.302587 
L 303.575142 127.922623 
L 304.601717 124.407819 
L 305.245348 120.817506 
L 305.516824 117.198427 
L 305.44491 113.573954 
L 305.054776 109.972854 
L 304.373389 106.420295 
L 303.431314 102.939651 
L 302.260911 99.538112 
L 300.903532 96.204892 
L 298.605875 91.309337 
L 295.270857 84.914372 
L 289.363111 73.805435 
L 287.020508 68.967412 
L 284.906232 64.019719 
L 283.667511 60.639754 
L 282.590597 57.180684 
L 282.121357 55.41699 
L 282.121357 55.41699 
" style="fill:none;stroke:#fea952;stroke-linecap:square;"/>
   </g>
   <g id="line2d_17">
    <path clip-path="url(#pf72d3c3f5c)" d="M 160.557552 295.488 
L 159.934177 291.351822 
L 159.639904 287.197471 
L 159.66079 283.038512 
L 159.988617 278.918989 
L 160.613449 274.830934 
L 161.524144 270.803446 
L 162.70983 266.866487 
L 164.168936 263.010451 
L 165.89092 259.274552 
L 167.867989 255.674744 
L 170.032645 252.298472 
L 172.306954 249.141314 
L 175.79046 244.717991 
L 182.397587 236.506394 
L 185.356458 232.451063 
L 187.987125 228.361781 
L 189.539985 225.565372 
L 190.925897 222.698489 
L 192.136565 219.759514 
L 193.160985 216.771324 
L 193.988125 213.738015 
L 194.614444 210.66718 
L 195.069529 207.444923 
L 195.527175 202.352989 
L 196.452482 189.463802 
L 197.183748 183.707048 
L 197.884046 179.813687 
L 198.801301 175.897732 
L 199.973247 171.973194 
L 201.426018 168.097046 
L 203.197979 164.276878 
L 205.320108 160.563334 
L 207.817121 157.019067 
L 210.675605 153.724742 
L 213.846179 150.740459 
L 217.31187 148.077441 
L 219.13767 146.88351 
L 221.036074 145.775897 
L 222.979515 144.776008 
L 224.985487 143.873548 
L 229.048477 142.418214 
L 233.141438 141.37639 
L 237.234346 140.684755 
L 241.279258 140.289972 
L 245.269042 140.131878 
L 251.043943 140.230391 
L 258.386269 140.686806 
L 267.022247 141.210814 
L 271.896007 141.227065 
L 274.989497 141.025834 
L 277.957462 140.616442 
L 280.816741 139.96274 
L 283.583874 139.041699 
L 286.20917 137.855131 
L 288.605853 136.437968 
L 290.730924 134.810988 
L 292.591129 132.942475 
L 294.221588 130.781994 
L 295.60963 128.355013 
L 296.729152 125.720614 
L 297.559353 122.951266 
L 298.089906 120.099117 
L 298.325442 117.177045 
L 298.280962 114.20187 
L 297.96669 111.187546 
L 297.399228 108.174576 
L 296.596113 105.174927 
L 295.568104 102.169227 
L 294.342039 99.148231 
L 292.189529 94.55694 
L 288.939256 88.324248 
L 282.930914 77.021534 
L 280.461155 71.915517 
L 278.1831 66.572352 
L 276.830969 62.870927 
L 275.640944 59.029674 
L 275.171704 57.26598 
L 275.171704 57.26598 
" style="fill:none;stroke:#ffffff;stroke-linecap:square;"/>
   </g>
   <g id="line2d_18">
    <path clip-path="url(#pf72d3c3f5c)" d="M 174.728522 293.028457 
L 174.255206 290.019966 
L 174.02091 286.96852 
L 174.018003 283.896512 
L 174.247511 280.803047 
L 174.701391 277.728454 
L 175.372806 274.686782 
L 176.261843 271.684027 
L 177.348498 268.769346 
L 178.632525 265.946676 
L 180.107334 263.228827 
L 181.808063 260.557119 
L 183.726348 257.885636 
L 186.927262 253.819496 
L 193.883142 245.163631 
L 197.28148 240.492182 
L 199.43715 237.207475 
L 201.465614 233.75948 
L 203.307424 230.18231 
L 204.944851 226.484811 
L 206.359351 222.688176 
L 207.542327 218.788659 
L 208.47002 214.823772 
L 209.128491 210.888198 
L 209.573491 207.0456 
L 209.999734 201.466165 
L 210.592631 192.708441 
L 211.135532 187.700818 
L 211.937437 182.874395 
L 212.652633 179.771531 
L 213.537432 176.756354 
L 214.612442 173.840212 
L 215.868066 171.083832 
L 217.309283 168.508484 
L 218.954524 166.119835 
L 220.831586 163.909132 
L 222.943106 161.881 
L 225.234142 160.081746 
L 227.672979 158.535883 
L 230.2282 157.266818 
L 232.946714 156.262689 
L 235.843808 155.503064 
L 238.888377 154.972159 
L 242.063645 154.651395 
L 245.312019 154.514642 
L 250.338622 154.595914 
L 257.335975 155.031234 
L 264.753422 155.511875 
L 270.618336 155.638397 
L 274.671259 155.482996 
L 278.806689 155.044325 
L 283.013522 154.24472 
L 287.191965 153.029954 
L 289.25977 152.257218 
L 291.286724 151.375799 
L 293.279341 150.380243 
L 295.232055 149.263584 
L 297.121209 148.029105 
L 298.946246 146.670121 
L 300.69893 145.17943 
L 302.347337 143.571034 
L 303.87631 141.859338 
L 305.280079 140.05778 
L 306.553508 138.183987 
L 307.700281 136.248473 
L 308.728812 134.250162 
L 309.633723 132.208655 
L 310.421133 130.124632 
L 311.091072 128.007481 
L 311.64408 125.864373 
L 312.081986 123.696784 
L 312.609497 119.365497 
L 312.707084 115.077591 
L 312.418896 110.847935 
L 311.783631 106.695269 
L 310.83972 102.666069 
L 309.635647 98.786132 
L 308.229812 95.071385 
L 306.676908 91.50717 
L 304.175658 86.389927 
L 299.889464 78.328878 
L 295.795307 70.589337 
L 293.579861 66.019307 
L 291.629364 61.467086 
L 290.504053 58.408582 
L 289.540249 55.331694 
L 289.071009 53.568 
L 289.071009 53.568 
" style="fill:none;stroke:#ffffff;stroke-linecap:square;"/>
   </g>
   <g id="patch_3">
    <path d="M 57.6 307.584 
L 57.6 41.472 
" style="fill:none;stroke:#000000;stroke-linecap:square;stroke-linejoin:miter;stroke-width:0.8;"/>
   </g>
   <g id="patch_4">
    <path d="M 414.72 307.584 
L 414.72 41.472 
" style="fill:none;stroke:#000000;stroke-linecap:square;stroke-linejoin:miter;stroke-width:0.8;"/>
   </g>
   <g id="patch_5">
    <path d="M 57.6 307.584 
L 414.72 307.584 
" style="fill:none;stroke:#000000;stroke-linecap:square;stroke-linejoin:miter;stroke-width:0.8;"/>
   </g>
   <g id="patch_6">
    <path d="M 57.6 41.472 
L 414.72 41.472 
" style="fill:none;stroke:#000000;stroke-linecap:square;stroke-linejoin:miter;stroke-width:0.8;"/>
   </g>
  </g>
 </g>
 <defs>
  <clipPath id="pf72d3c3f5c">
   <rect height="266.112" width="357.12" x="57.6" y="41.472"/>
  </clipPath>
 </defs>
</svg>
