<?xml version="1.0" encoding="utf-8" standalone="no"?>
<!DOCTYPE svg PUBLIC "-//W3C//DTD SVG 1.1//EN"
  "http://www.w3.org/Graphics/SVG/1.1/DTD/svg11.dtd">
<!-- Created with matplotlib (https://matplotlib.org/) -->
<svg height="345.6pt" version="1.1" viewBox="0 0 460.8 345.6" width="460.8pt" xmlns="http://www.w3.org/2000/svg" xmlns:xlink="http://www.w3.org/1999/xlink">
 <metadata>
  <rdf:RDF xmlns:cc="http://creativecommons.org/ns#" xmlns:dc="http://purl.org/dc/elements/1.1/" xmlns:rdf="http://www.w3.org/1999/02/22-rdf-syntax-ns#">
   <cc:Work>
    <dc:type rdf:resource="http://purl.org/dc/dcmitype/StillImage"/>
    <dc:date>2021-01-23T13:44:49.882924</dc:date>
    <dc:format>image/svg+xml</dc:format>
    <dc:creator>
     <cc:Agent>
      <dc:title>Matplotlib v3.3.3, https://matplotlib.org/</dc:title>
     </cc:Agent>
    </dc:creator>
   </cc:Work>
  </rdf:RDF>
 </metadata>
 <defs>
  <style type="text/css">*{stroke-linecap:butt;stroke-linejoin:round;}</style>
 </defs>
 <g id="figure_1">
  <g id="patch_1">
   <path d="M 0 345.6 
L 460.8 345.6 
L 460.8 0 
L 0 0 
z
" style="fill:#ffffff;"/>
  </g>
  <g id="axes_1">
   <g id="patch_2">
    <path d="M 57.6 307.584 
L 414.72 307.584 
L 414.72 41.472 
L 57.6 41.472 
z
" style="fill:#7d9051;"/>
   </g>
   <g id="matplotlib.axis_1">
    <g id="xtick_1">
     <g id="line2d_1">
      <defs>
       <path d="M 0 0 
L 0 3.5 
" id="ma61a06d773" style="stroke:#000000;stroke-width:0.8;"/>
      </defs>
      <g>
       <use style="stroke:#000000;stroke-width:0.8;" x="57.696193" xlink:href="#ma61a06d773" y="307.584"/>
      </g>
     </g>
     <g id="text_1">
      <!-- 0 -->
      <g transform="translate(54.514943 322.182437)scale(0.1 -0.1)">
       <defs>
        <path d="M 31.78125 66.40625 
Q 24.171875 66.40625 20.328125 58.90625 
Q 16.5 51.421875 16.5 36.375 
Q 16.5 21.390625 20.328125 13.890625 
Q 24.171875 6.390625 31.78125 6.390625 
Q 39.453125 6.390625 43.28125 13.890625 
Q 47.125 21.390625 47.125 36.375 
Q 47.125 51.421875 43.28125 58.90625 
Q 39.453125 66.40625 31.78125 66.40625 
z
M 31.78125 74.21875 
Q 44.046875 74.21875 50.515625 64.515625 
Q 56.984375 54.828125 56.984375 36.375 
Q 56.984375 17.96875 50.515625 8.265625 
Q 44.046875 -1.421875 31.78125 -1.421875 
Q 19.53125 -1.421875 13.0625 8.265625 
Q 6.59375 17.96875 6.59375 36.375 
Q 6.59375 54.828125 13.0625 64.515625 
Q 19.53125 74.21875 31.78125 74.21875 
z
" id="DejaVuSans-48"/>
       </defs>
       <use xlink:href="#DejaVuSans-48"/>
      </g>
     </g>
    </g>
    <g id="xtick_2">
     <g id="line2d_2">
      <g>
       <use style="stroke:#000000;stroke-width:0.8;" x="112.496802" xlink:href="#ma61a06d773" y="307.584"/>
      </g>
     </g>
     <g id="text_2">
      <!-- 20 -->
      <g transform="translate(106.134302 322.182437)scale(0.1 -0.1)">
       <defs>
        <path d="M 19.1875 8.296875 
L 53.609375 8.296875 
L 53.609375 0 
L 7.328125 0 
L 7.328125 8.296875 
Q 12.9375 14.109375 22.625 23.890625 
Q 32.328125 33.6875 34.8125 36.53125 
Q 39.546875 41.84375 41.421875 45.53125 
Q 43.3125 49.21875 43.3125 52.78125 
Q 43.3125 58.59375 39.234375 62.25 
Q 35.15625 65.921875 28.609375 65.921875 
Q 23.96875 65.921875 18.8125 64.3125 
Q 13.671875 62.703125 7.8125 59.421875 
L 7.8125 69.390625 
Q 13.765625 71.78125 18.9375 73 
Q 24.125 74.21875 28.421875 74.21875 
Q 39.75 74.21875 46.484375 68.546875 
Q 53.21875 62.890625 53.21875 53.421875 
Q 53.21875 48.921875 51.53125 44.890625 
Q 49.859375 40.875 45.40625 35.40625 
Q 44.1875 33.984375 37.640625 27.21875 
Q 31.109375 20.453125 19.1875 8.296875 
z
" id="DejaVuSans-50"/>
       </defs>
       <use xlink:href="#DejaVuSans-50"/>
       <use x="63.623047" xlink:href="#DejaVuSans-48"/>
      </g>
     </g>
    </g>
    <g id="xtick_3">
     <g id="line2d_3">
      <g>
       <use style="stroke:#000000;stroke-width:0.8;" x="167.29741" xlink:href="#ma61a06d773" y="307.584"/>
      </g>
     </g>
     <g id="text_3">
      <!-- 40 -->
      <g transform="translate(160.93491 322.182437)scale(0.1 -0.1)">
       <defs>
        <path d="M 37.796875 64.3125 
L 12.890625 25.390625 
L 37.796875 25.390625 
z
M 35.203125 72.90625 
L 47.609375 72.90625 
L 47.609375 25.390625 
L 58.015625 25.390625 
L 58.015625 17.1875 
L 47.609375 17.1875 
L 47.609375 0 
L 37.796875 0 
L 37.796875 17.1875 
L 4.890625 17.1875 
L 4.890625 26.703125 
z
" id="DejaVuSans-52"/>
       </defs>
       <use xlink:href="#DejaVuSans-52"/>
       <use x="63.623047" xlink:href="#DejaVuSans-48"/>
      </g>
     </g>
    </g>
    <g id="xtick_4">
     <g id="line2d_4">
      <g>
       <use style="stroke:#000000;stroke-width:0.8;" x="222.098019" xlink:href="#ma61a06d773" y="307.584"/>
      </g>
     </g>
     <g id="text_4">
      <!-- 60 -->
      <g transform="translate(215.735519 322.182437)scale(0.1 -0.1)">
       <defs>
        <path d="M 33.015625 40.375 
Q 26.375 40.375 22.484375 35.828125 
Q 18.609375 31.296875 18.609375 23.390625 
Q 18.609375 15.53125 22.484375 10.953125 
Q 26.375 6.390625 33.015625 6.390625 
Q 39.65625 6.390625 43.53125 10.953125 
Q 47.40625 15.53125 47.40625 23.390625 
Q 47.40625 31.296875 43.53125 35.828125 
Q 39.65625 40.375 33.015625 40.375 
z
M 52.59375 71.296875 
L 52.59375 62.3125 
Q 48.875 64.0625 45.09375 64.984375 
Q 41.3125 65.921875 37.59375 65.921875 
Q 27.828125 65.921875 22.671875 59.328125 
Q 17.53125 52.734375 16.796875 39.40625 
Q 19.671875 43.65625 24.015625 45.921875 
Q 28.375 48.1875 33.59375 48.1875 
Q 44.578125 48.1875 50.953125 41.515625 
Q 57.328125 34.859375 57.328125 23.390625 
Q 57.328125 12.15625 50.6875 5.359375 
Q 44.046875 -1.421875 33.015625 -1.421875 
Q 20.359375 -1.421875 13.671875 8.265625 
Q 6.984375 17.96875 6.984375 36.375 
Q 6.984375 53.65625 15.1875 63.9375 
Q 23.390625 74.21875 37.203125 74.21875 
Q 40.921875 74.21875 44.703125 73.484375 
Q 48.484375 72.75 52.59375 71.296875 
z
" id="DejaVuSans-54"/>
       </defs>
       <use xlink:href="#DejaVuSans-54"/>
       <use x="63.623047" xlink:href="#DejaVuSans-48"/>
      </g>
     </g>
    </g>
    <g id="xtick_5">
     <g id="line2d_5">
      <g>
       <use style="stroke:#000000;stroke-width:0.8;" x="276.898627" xlink:href="#ma61a06d773" y="307.584"/>
      </g>
     </g>
     <g id="text_5">
      <!-- 80 -->
      <g transform="translate(270.536127 322.182437)scale(0.1 -0.1)">
       <defs>
        <path d="M 31.78125 34.625 
Q 24.75 34.625 20.71875 30.859375 
Q 16.703125 27.09375 16.703125 20.515625 
Q 16.703125 13.921875 20.71875 10.15625 
Q 24.75 6.390625 31.78125 6.390625 
Q 38.8125 6.390625 42.859375 10.171875 
Q 46.921875 13.96875 46.921875 20.515625 
Q 46.921875 27.09375 42.890625 30.859375 
Q 38.875 34.625 31.78125 34.625 
z
M 21.921875 38.8125 
Q 15.578125 40.375 12.03125 44.71875 
Q 8.5 49.078125 8.5 55.328125 
Q 8.5 64.0625 14.71875 69.140625 
Q 20.953125 74.21875 31.78125 74.21875 
Q 42.671875 74.21875 48.875 69.140625 
Q 55.078125 64.0625 55.078125 55.328125 
Q 55.078125 49.078125 51.53125 44.71875 
Q 48 40.375 41.703125 38.8125 
Q 48.828125 37.15625 52.796875 32.3125 
Q 56.78125 27.484375 56.78125 20.515625 
Q 56.78125 9.90625 50.3125 4.234375 
Q 43.84375 -1.421875 31.78125 -1.421875 
Q 19.734375 -1.421875 13.25 4.234375 
Q 6.78125 9.90625 6.78125 20.515625 
Q 6.78125 27.484375 10.78125 32.3125 
Q 14.796875 37.15625 21.921875 38.8125 
z
M 18.3125 54.390625 
Q 18.3125 48.734375 21.84375 45.5625 
Q 25.390625 42.390625 31.78125 42.390625 
Q 38.140625 42.390625 41.71875 45.5625 
Q 45.3125 48.734375 45.3125 54.390625 
Q 45.3125 60.0625 41.71875 63.234375 
Q 38.140625 66.40625 31.78125 66.40625 
Q 25.390625 66.40625 21.84375 63.234375 
Q 18.3125 60.0625 18.3125 54.390625 
z
" id="DejaVuSans-56"/>
       </defs>
       <use xlink:href="#DejaVuSans-56"/>
       <use x="63.623047" xlink:href="#DejaVuSans-48"/>
      </g>
     </g>
    </g>
    <g id="xtick_6">
     <g id="line2d_6">
      <g>
       <use style="stroke:#000000;stroke-width:0.8;" x="331.699235" xlink:href="#ma61a06d773" y="307.584"/>
      </g>
     </g>
     <g id="text_6">
      <!-- 100 -->
      <g transform="translate(322.155485 322.182437)scale(0.1 -0.1)">
       <defs>
        <path d="M 12.40625 8.296875 
L 28.515625 8.296875 
L 28.515625 63.921875 
L 10.984375 60.40625 
L 10.984375 69.390625 
L 28.421875 72.90625 
L 38.28125 72.90625 
L 38.28125 8.296875 
L 54.390625 8.296875 
L 54.390625 0 
L 12.40625 0 
z
" id="DejaVuSans-49"/>
       </defs>
       <use xlink:href="#DejaVuSans-49"/>
       <use x="63.623047" xlink:href="#DejaVuSans-48"/>
       <use x="127.246094" xlink:href="#DejaVuSans-48"/>
      </g>
     </g>
    </g>
    <g id="xtick_7">
     <g id="line2d_7">
      <g>
       <use style="stroke:#000000;stroke-width:0.8;" x="386.499844" xlink:href="#ma61a06d773" y="307.584"/>
      </g>
     </g>
     <g id="text_7">
      <!-- 120 -->
      <g transform="translate(376.956094 322.182437)scale(0.1 -0.1)">
       <use xlink:href="#DejaVuSans-49"/>
       <use x="63.623047" xlink:href="#DejaVuSans-50"/>
       <use x="127.246094" xlink:href="#DejaVuSans-48"/>
      </g>
     </g>
    </g>
   </g>
   <g id="matplotlib.axis_2">
    <g id="ytick_1">
     <g id="line2d_8">
      <defs>
       <path d="M 0 0 
L -3.5 0 
" id="m6b3d6052e5" style="stroke:#000000;stroke-width:0.8;"/>
      </defs>
      <g>
       <use style="stroke:#000000;stroke-width:0.8;" x="57.6" xlink:href="#m6b3d6052e5" y="261.392261"/>
      </g>
     </g>
     <g id="text_8">
      <!-- 20 -->
      <g transform="translate(37.875 265.19148)scale(0.1 -0.1)">
       <use xlink:href="#DejaVuSans-50"/>
       <use x="63.623047" xlink:href="#DejaVuSans-48"/>
      </g>
     </g>
    </g>
    <g id="ytick_2">
     <g id="line2d_9">
      <g>
       <use style="stroke:#000000;stroke-width:0.8;" x="57.6" xlink:href="#m6b3d6052e5" y="206.591653"/>
      </g>
     </g>
     <g id="text_9">
      <!-- 40 -->
      <g transform="translate(37.875 210.390871)scale(0.1 -0.1)">
       <use xlink:href="#DejaVuSans-52"/>
       <use x="63.623047" xlink:href="#DejaVuSans-48"/>
      </g>
     </g>
    </g>
    <g id="ytick_3">
     <g id="line2d_10">
      <g>
       <use style="stroke:#000000;stroke-width:0.8;" x="57.6" xlink:href="#m6b3d6052e5" y="151.791044"/>
      </g>
     </g>
     <g id="text_10">
      <!-- 60 -->
      <g transform="translate(37.875 155.590263)scale(0.1 -0.1)">
       <use xlink:href="#DejaVuSans-54"/>
       <use x="63.623047" xlink:href="#DejaVuSans-48"/>
      </g>
     </g>
    </g>
    <g id="ytick_4">
     <g id="line2d_11">
      <g>
       <use style="stroke:#000000;stroke-width:0.8;" x="57.6" xlink:href="#m6b3d6052e5" y="96.990436"/>
      </g>
     </g>
     <g id="text_11">
      <!-- 80 -->
      <g transform="translate(37.875 100.789655)scale(0.1 -0.1)">
       <use xlink:href="#DejaVuSans-56"/>
       <use x="63.623047" xlink:href="#DejaVuSans-48"/>
      </g>
     </g>
    </g>
    <g id="ytick_5">
     <g id="line2d_12">
      <g>
       <use style="stroke:#000000;stroke-width:0.8;" x="57.6" xlink:href="#m6b3d6052e5" y="42.189827"/>
      </g>
     </g>
     <g id="text_12">
      <!-- 100 -->
      <g transform="translate(31.5125 45.989046)scale(0.1 -0.1)">
       <use xlink:href="#DejaVuSans-49"/>
       <use x="63.623047" xlink:href="#DejaVuSans-48"/>
       <use x="127.246094" xlink:href="#DejaVuSans-48"/>
      </g>
     </g>
    </g>
   </g>
   <g id="line2d_13">
    <path clip-path="url(#p2c50ffab04)" d="M 93.059026 288.792565 
L 93.527571 283.287844 
L 93.719373 277.799563 
L 93.678273 272.319502 
L 93.45085 266.853142 
L 92.853524 258.663191 
L 90.428597 231.369748 
L 89.924431 220.417846 
L 89.332585 206.734134 
L 88.770878 198.544183 
L 88.02011 190.365192 
L 86.751476 179.454391 
L 85.386941 168.52441 
L 84.926616 163.052569 
L 84.786874 157.577988 
L 84.877295 154.840698 
L 85.096498 152.103408 
L 85.458182 149.368857 
L 85.962347 146.648007 
L 86.606254 143.946337 
L 87.389903 141.274807 
L 88.307813 138.647118 
L 89.362725 136.07423 
L 90.551898 133.561622 
L 91.869853 131.125735 
L 93.316589 128.772049 
L 94.889366 126.514264 
L 96.585445 124.35786 
L 98.396605 122.300097 
L 100.309146 120.335495 
L 104.397272 116.655634 
L 108.7594 113.260736 
L 113.305111 110.101481 
L 117.946722 107.125808 
L 125.013261 102.933562 
L 132.225021 99.029018 
L 139.609403 95.360118 
L 144.640099 93.042052 
L 149.755735 90.910308 
L 154.953573 89.060788 
L 160.228132 87.597612 
L 162.894181 87.041385 
L 165.579411 86.616681 
L 168.281081 86.337198 
L 170.996451 86.189236 
L 176.462812 86.249517 
L 181.953833 86.704362 
L 187.447594 87.46061 
L 192.919435 88.422361 
L 209.156855 91.518595 
L 214.560195 92.255663 
L 219.990935 92.658448 
L 225.454556 92.639267 
L 230.929137 92.217303 
L 236.390017 91.430914 
L 241.801577 90.321202 
L 247.136417 88.926526 
L 252.372615 87.290728 
L 257.526612 85.454908 
L 265.160337 82.424434 
L 285.518763 73.9824 
L 290.738521 72.297282 
L 293.38539 71.604054 
L 296.05692 71.028648 
L 298.76133 70.587503 
L 301.49862 70.294319 
L 304.255091 70.149098 
L 307.028002 70.151838 
L 309.800912 70.299799 
L 312.568343 70.590243 
L 315.319334 71.023168 
L 318.040184 71.593094 
L 320.722674 72.300022 
L 323.358583 73.141211 
L 325.934211 74.116662 
L 328.444079 75.223634 
L 330.890926 76.445688 
L 335.622959 79.199418 
L 340.17689 82.273732 
L 344.599299 85.572729 
L 353.249575 92.450205 
L 361.899851 99.229041 
L 366.30582 102.454056 
L 370.81043 105.50371 
L 375.446561 108.331422 
L 380.247094 110.88239 
L 385.24217 113.112775 
L 387.823279 114.088226 
L 390.467408 114.967775 
L 393.174558 115.740464 
L 395.952949 116.400811 
L 395.952949 116.400811 
" style="fill:none;stroke:#fea952;stroke-linecap:square;"/>
   </g>
   <g id="line2d_14">
    <path clip-path="url(#p2c50ffab04)" d="M 82.151697 287.718112 
L 82.578981 282.785214 
L 82.759274 277.777643 
L 82.724506 272.692677 
L 82.51186 267.5334 
L 81.936986 259.639645 
L 80.365098 243.283343 
L 79.666304 234.805711 
L 79.199111 226.366017 
L 78.050768 202.107144 
L 77.381288 194.165814 
L 76.540062 186.212777 
L 74.192188 166.57578 
L 73.849024 160.403045 
L 73.832727 157.21614 
L 73.952148 153.965811 
L 74.231004 150.666288 
L 74.681507 147.371971 
L 75.300853 144.106982 
L 76.089262 140.861353 
L 77.042916 137.660375 
L 78.166978 134.489268 
L 79.456109 131.385602 
L 80.912292 128.346042 
L 82.532589 125.386416 
L 84.323374 122.507358 
L 86.274641 119.738514 
L 88.358186 117.116557 
L 90.543273 114.654873 
L 92.814522 112.338316 
L 95.14712 110.164397 
L 99.953047 106.172917 
L 104.862444 102.584403 
L 109.771635 99.323659 
L 114.696208 96.268394 
L 119.681223 93.357882 
L 127.240423 89.267971 
L 134.95255 85.438525 
L 140.318774 82.969792 
L 145.92048 80.643123 
L 151.811237 78.560788 
L 154.866179 77.655897 
L 157.989686 76.86851 
L 161.181976 76.215831 
L 164.451624 75.714738 
L 167.684744 75.393311 
L 170.897418 75.229562 
L 174.065462 75.209727 
L 180.285962 75.526084 
L 186.314156 76.211428 
L 192.166306 77.140903 
L 200.506555 78.744527 
L 208.289994 80.255095 
L 213.200299 81.044038 
L 217.887198 81.562271 
L 222.467485 81.745076 
L 227.154273 81.566707 
L 231.934213 81.04377 
L 236.744627 80.212331 
L 241.569908 79.091003 
L 246.379968 77.713707 
L 251.191618 76.102529 
L 256.023925 74.295966 
L 263.394526 71.278896 
L 279.110814 64.673827 
L 284.917415 62.615301 
L 287.961671 61.694764 
L 291.07767 60.889639 
L 294.29242 60.211494 
L 297.594099 59.689712 
L 300.921998 59.349377 
L 304.265921 59.188981 
L 307.611999 59.207286 
L 310.944899 59.399544 
L 314.272174 59.763367 
L 317.566343 60.295856 
L 320.833191 60.994821 
L 324.054781 61.858694 
L 327.240377 62.891531 
L 330.357079 64.088576 
L 333.341202 65.418408 
L 336.213632 66.864818 
L 338.983046 68.413329 
L 344.183795 71.70774 
L 349.036889 75.177792 
L 355.791632 80.441472 
L 368.440693 90.434631 
L 372.547297 93.444715 
L 376.63517 96.219494 
L 380.742024 98.735468 
L 384.900632 100.959243 
L 389.116753 102.860367 
L 393.475567 104.428551 
L 395.708882 105.077375 
L 398.487273 105.737722 
L 398.487273 105.737722 
" style="fill:none;stroke:#ffffff;stroke-linecap:square;"/>
   </g>
   <g id="line2d_15">
    <path clip-path="url(#p2c50ffab04)" d="M 103.966355 289.867019 
L 104.476161 283.790474 
L 104.679473 277.821483 
L 104.63204 271.946328 
L 104.389841 266.172883 
L 103.770062 257.686737 
L 101.228127 228.106452 
L 100.549629 211.699099 
L 100.102098 203.244854 
L 99.454285 194.808759 
L 98.621007 186.412902 
L 97.263394 175.305474 
L 96.296805 167.476015 
L 95.876598 162.581249 
L 95.741021 157.939837 
L 95.961991 153.540527 
L 96.234856 151.365744 
L 96.623841 149.189033 
L 97.123247 147.031322 
L 98.448649 142.804969 
L 99.269341 140.762857 
L 100.191504 138.777201 
L 101.207116 136.865054 
L 102.309804 135.03674 
L 103.504091 133.290013 
L 104.812705 131.599163 
L 106.249937 129.945321 
L 109.482578 126.747271 
L 113.143344 123.680433 
L 117.166446 120.725754 
L 121.463757 117.86527 
L 128.111596 113.796528 
L 134.90521 110.003134 
L 141.89732 106.427758 
L 148.961423 103.114312 
L 153.590991 101.177493 
L 158.095909 99.560787 
L 162.466577 98.326713 
L 166.707198 97.518624 
L 171.095484 97.14891 
L 175.731582 97.185218 
L 180.577054 97.577666 
L 185.63174 98.269261 
L 190.82835 99.181154 
L 207.539098 102.358666 
L 213.555973 103.169682 
L 216.652972 103.447741 
L 219.814892 103.617155 
L 222.972526 103.6595 
L 226.100724 103.580325 
L 232.323423 103.088376 
L 238.434791 102.198605 
L 244.436732 100.959821 
L 250.285784 99.424419 
L 255.960047 97.647108 
L 261.443416 95.69126 
L 269.403708 92.529782 
L 289.050188 84.358011 
L 293.51537 82.899799 
L 297.82142 81.845801 
L 299.928561 81.485293 
L 302.075242 81.239262 
L 304.244261 81.109214 
L 306.444004 81.09639 
L 308.656925 81.200055 
L 310.864512 81.417118 
L 313.072324 81.750479 
L 315.247176 82.191366 
L 319.476789 83.390891 
L 321.511344 84.144748 
L 325.568221 86.026558 
L 329.62445 88.372321 
L 333.705867 91.119643 
L 337.845656 94.204796 
L 346.408156 101.012872 
L 355.359008 108.023451 
L 360.064342 111.463398 
L 364.985689 114.787926 
L 370.151098 117.927376 
L 375.593556 120.805537 
L 378.435596 122.130037 
L 381.367587 123.365183 
L 384.363851 124.488063 
L 387.459249 125.507 
L 390.640234 126.403553 
L 393.418625 127.0639 
L 393.418625 127.0639 
" style="fill:none;stroke:#ffffff;stroke-linecap:square;"/>
   </g>
   <g id="patch_3">
    <path d="M 57.6 307.584 
L 57.6 41.472 
" style="fill:none;stroke:#000000;stroke-linecap:square;stroke-linejoin:miter;stroke-width:0.8;"/>
   </g>
   <g id="patch_4">
    <path d="M 414.72 307.584 
L 414.72 41.472 
" style="fill:none;stroke:#000000;stroke-linecap:square;stroke-linejoin:miter;stroke-width:0.8;"/>
   </g>
   <g id="patch_5">
    <path d="M 57.6 307.584 
L 414.72 307.584 
" style="fill:none;stroke:#000000;stroke-linecap:square;stroke-linejoin:miter;stroke-width:0.8;"/>
   </g>
   <g id="patch_6">
    <path d="M 57.6 41.472 
L 414.72 41.472 
" style="fill:none;stroke:#000000;stroke-linecap:square;stroke-linejoin:miter;stroke-width:0.8;"/>
   </g>
  </g>
 </g>
 <defs>
  <clipPath id="p2c50ffab04">
   <rect height="266.112" width="357.12" x="57.6" y="41.472"/>
  </clipPath>
 </defs>
</svg>
