<?xml version="1.0" encoding="utf-8" standalone="no"?>
<!DOCTYPE svg PUBLIC "-//W3C//DTD SVG 1.1//EN"
  "http://www.w3.org/Graphics/SVG/1.1/DTD/svg11.dtd">
<!-- Created with matplotlib (https://matplotlib.org/) -->
<svg height="345.6pt" version="1.1" viewBox="0 0 460.8 345.6" width="460.8pt" xmlns="http://www.w3.org/2000/svg" xmlns:xlink="http://www.w3.org/1999/xlink">
 <metadata>
  <rdf:RDF xmlns:cc="http://creativecommons.org/ns#" xmlns:dc="http://purl.org/dc/elements/1.1/" xmlns:rdf="http://www.w3.org/1999/02/22-rdf-syntax-ns#">
   <cc:Work>
    <dc:type rdf:resource="http://purl.org/dc/dcmitype/StillImage"/>
    <dc:date>2021-01-22T09:28:16.592196</dc:date>
    <dc:format>image/svg+xml</dc:format>
    <dc:creator>
     <cc:Agent>
      <dc:title>Matplotlib v3.3.3, https://matplotlib.org/</dc:title>
     </cc:Agent>
    </dc:creator>
   </cc:Work>
  </rdf:RDF>
 </metadata>
 <defs>
  <style type="text/css">*{stroke-linecap:butt;stroke-linejoin:round;}</style>
 </defs>
 <g id="figure_1">
  <g id="patch_1">
   <path d="M 0 345.6 
L 460.8 345.6 
L 460.8 0 
L 0 0 
z
" style="fill:#ffffff;"/>
  </g>
  <g id="axes_1">
   <g id="patch_2">
    <path d="M 57.6 307.584 
L 414.72 307.584 
L 414.72 41.472 
L 57.6 41.472 
z
" style="fill:#7d9051;"/>
   </g>
   <g id="matplotlib.axis_1">
    <g id="xtick_1">
     <g id="line2d_1">
      <defs>
       <path d="M 0 0 
L 0 3.5 
" id="m9dd67dc276" style="stroke:#000000;stroke-width:0.8;"/>
      </defs>
      <g>
       <use style="stroke:#000000;stroke-width:0.8;" x="116.413067" xlink:href="#m9dd67dc276" y="307.584"/>
      </g>
     </g>
     <g id="text_1">
      <!-- 20 -->
      <g transform="translate(110.050567 322.182437)scale(0.1 -0.1)">
       <defs>
        <path d="M 19.1875 8.296875 
L 53.609375 8.296875 
L 53.609375 0 
L 7.328125 0 
L 7.328125 8.296875 
Q 12.9375 14.109375 22.625 23.890625 
Q 32.328125 33.6875 34.8125 36.53125 
Q 39.546875 41.84375 41.421875 45.53125 
Q 43.3125 49.21875 43.3125 52.78125 
Q 43.3125 58.59375 39.234375 62.25 
Q 35.15625 65.921875 28.609375 65.921875 
Q 23.96875 65.921875 18.8125 64.3125 
Q 13.671875 62.703125 7.8125 59.421875 
L 7.8125 69.390625 
Q 13.765625 71.78125 18.9375 73 
Q 24.125 74.21875 28.421875 74.21875 
Q 39.75 74.21875 46.484375 68.546875 
Q 53.21875 62.890625 53.21875 53.421875 
Q 53.21875 48.921875 51.53125 44.890625 
Q 49.859375 40.875 45.40625 35.40625 
Q 44.1875 33.984375 37.640625 27.21875 
Q 31.109375 20.453125 19.1875 8.296875 
z
" id="DejaVuSans-50"/>
        <path d="M 31.78125 66.40625 
Q 24.171875 66.40625 20.328125 58.90625 
Q 16.5 51.421875 16.5 36.375 
Q 16.5 21.390625 20.328125 13.890625 
Q 24.171875 6.390625 31.78125 6.390625 
Q 39.453125 6.390625 43.28125 13.890625 
Q 47.125 21.390625 47.125 36.375 
Q 47.125 51.421875 43.28125 58.90625 
Q 39.453125 66.40625 31.78125 66.40625 
z
M 31.78125 74.21875 
Q 44.046875 74.21875 50.515625 64.515625 
Q 56.984375 54.828125 56.984375 36.375 
Q 56.984375 17.96875 50.515625 8.265625 
Q 44.046875 -1.421875 31.78125 -1.421875 
Q 19.53125 -1.421875 13.0625 8.265625 
Q 6.59375 17.96875 6.59375 36.375 
Q 6.59375 54.828125 13.0625 64.515625 
Q 19.53125 74.21875 31.78125 74.21875 
z
" id="DejaVuSans-48"/>
       </defs>
       <use xlink:href="#DejaVuSans-50"/>
       <use x="63.623047" xlink:href="#DejaVuSans-48"/>
      </g>
     </g>
    </g>
    <g id="xtick_2">
     <g id="line2d_2">
      <g>
       <use style="stroke:#000000;stroke-width:0.8;" x="176.576068" xlink:href="#m9dd67dc276" y="307.584"/>
      </g>
     </g>
     <g id="text_2">
      <!-- 40 -->
      <g transform="translate(170.213568 322.182437)scale(0.1 -0.1)">
       <defs>
        <path d="M 37.796875 64.3125 
L 12.890625 25.390625 
L 37.796875 25.390625 
z
M 35.203125 72.90625 
L 47.609375 72.90625 
L 47.609375 25.390625 
L 58.015625 25.390625 
L 58.015625 17.1875 
L 47.609375 17.1875 
L 47.609375 0 
L 37.796875 0 
L 37.796875 17.1875 
L 4.890625 17.1875 
L 4.890625 26.703125 
z
" id="DejaVuSans-52"/>
       </defs>
       <use xlink:href="#DejaVuSans-52"/>
       <use x="63.623047" xlink:href="#DejaVuSans-48"/>
      </g>
     </g>
    </g>
    <g id="xtick_3">
     <g id="line2d_3">
      <g>
       <use style="stroke:#000000;stroke-width:0.8;" x="236.739069" xlink:href="#m9dd67dc276" y="307.584"/>
      </g>
     </g>
     <g id="text_3">
      <!-- 60 -->
      <g transform="translate(230.376569 322.182437)scale(0.1 -0.1)">
       <defs>
        <path d="M 33.015625 40.375 
Q 26.375 40.375 22.484375 35.828125 
Q 18.609375 31.296875 18.609375 23.390625 
Q 18.609375 15.53125 22.484375 10.953125 
Q 26.375 6.390625 33.015625 6.390625 
Q 39.65625 6.390625 43.53125 10.953125 
Q 47.40625 15.53125 47.40625 23.390625 
Q 47.40625 31.296875 43.53125 35.828125 
Q 39.65625 40.375 33.015625 40.375 
z
M 52.59375 71.296875 
L 52.59375 62.3125 
Q 48.875 64.0625 45.09375 64.984375 
Q 41.3125 65.921875 37.59375 65.921875 
Q 27.828125 65.921875 22.671875 59.328125 
Q 17.53125 52.734375 16.796875 39.40625 
Q 19.671875 43.65625 24.015625 45.921875 
Q 28.375 48.1875 33.59375 48.1875 
Q 44.578125 48.1875 50.953125 41.515625 
Q 57.328125 34.859375 57.328125 23.390625 
Q 57.328125 12.15625 50.6875 5.359375 
Q 44.046875 -1.421875 33.015625 -1.421875 
Q 20.359375 -1.421875 13.671875 8.265625 
Q 6.984375 17.96875 6.984375 36.375 
Q 6.984375 53.65625 15.1875 63.9375 
Q 23.390625 74.21875 37.203125 74.21875 
Q 40.921875 74.21875 44.703125 73.484375 
Q 48.484375 72.75 52.59375 71.296875 
z
" id="DejaVuSans-54"/>
       </defs>
       <use xlink:href="#DejaVuSans-54"/>
       <use x="63.623047" xlink:href="#DejaVuSans-48"/>
      </g>
     </g>
    </g>
    <g id="xtick_4">
     <g id="line2d_4">
      <g>
       <use style="stroke:#000000;stroke-width:0.8;" x="296.90207" xlink:href="#m9dd67dc276" y="307.584"/>
      </g>
     </g>
     <g id="text_4">
      <!-- 80 -->
      <g transform="translate(290.53957 322.182437)scale(0.1 -0.1)">
       <defs>
        <path d="M 31.78125 34.625 
Q 24.75 34.625 20.71875 30.859375 
Q 16.703125 27.09375 16.703125 20.515625 
Q 16.703125 13.921875 20.71875 10.15625 
Q 24.75 6.390625 31.78125 6.390625 
Q 38.8125 6.390625 42.859375 10.171875 
Q 46.921875 13.96875 46.921875 20.515625 
Q 46.921875 27.09375 42.890625 30.859375 
Q 38.875 34.625 31.78125 34.625 
z
M 21.921875 38.8125 
Q 15.578125 40.375 12.03125 44.71875 
Q 8.5 49.078125 8.5 55.328125 
Q 8.5 64.0625 14.71875 69.140625 
Q 20.953125 74.21875 31.78125 74.21875 
Q 42.671875 74.21875 48.875 69.140625 
Q 55.078125 64.0625 55.078125 55.328125 
Q 55.078125 49.078125 51.53125 44.71875 
Q 48 40.375 41.703125 38.8125 
Q 48.828125 37.15625 52.796875 32.3125 
Q 56.78125 27.484375 56.78125 20.515625 
Q 56.78125 9.90625 50.3125 4.234375 
Q 43.84375 -1.421875 31.78125 -1.421875 
Q 19.734375 -1.421875 13.25 4.234375 
Q 6.78125 9.90625 6.78125 20.515625 
Q 6.78125 27.484375 10.78125 32.3125 
Q 14.796875 37.15625 21.921875 38.8125 
z
M 18.3125 54.390625 
Q 18.3125 48.734375 21.84375 45.5625 
Q 25.390625 42.390625 31.78125 42.390625 
Q 38.140625 42.390625 41.71875 45.5625 
Q 45.3125 48.734375 45.3125 54.390625 
Q 45.3125 60.0625 41.71875 63.234375 
Q 38.140625 66.40625 31.78125 66.40625 
Q 25.390625 66.40625 21.84375 63.234375 
Q 18.3125 60.0625 18.3125 54.390625 
z
" id="DejaVuSans-56"/>
       </defs>
       <use xlink:href="#DejaVuSans-56"/>
       <use x="63.623047" xlink:href="#DejaVuSans-48"/>
      </g>
     </g>
    </g>
    <g id="xtick_5">
     <g id="line2d_5">
      <g>
       <use style="stroke:#000000;stroke-width:0.8;" x="357.06507" xlink:href="#m9dd67dc276" y="307.584"/>
      </g>
     </g>
     <g id="text_5">
      <!-- 100 -->
      <g transform="translate(347.52132 322.182437)scale(0.1 -0.1)">
       <defs>
        <path d="M 12.40625 8.296875 
L 28.515625 8.296875 
L 28.515625 63.921875 
L 10.984375 60.40625 
L 10.984375 69.390625 
L 28.421875 72.90625 
L 38.28125 72.90625 
L 38.28125 8.296875 
L 54.390625 8.296875 
L 54.390625 0 
L 12.40625 0 
z
" id="DejaVuSans-49"/>
       </defs>
       <use xlink:href="#DejaVuSans-49"/>
       <use x="63.623047" xlink:href="#DejaVuSans-48"/>
       <use x="127.246094" xlink:href="#DejaVuSans-48"/>
      </g>
     </g>
    </g>
   </g>
   <g id="matplotlib.axis_2">
    <g id="ytick_1">
     <g id="line2d_6">
      <defs>
       <path d="M 0 0 
L -3.5 0 
" id="m6a0db3eb27" style="stroke:#000000;stroke-width:0.8;"/>
      </defs>
      <g>
       <use style="stroke:#000000;stroke-width:0.8;" x="57.6" xlink:href="#m6a0db3eb27" y="283.612231"/>
      </g>
     </g>
     <g id="text_6">
      <!-- 0 -->
      <g transform="translate(44.2375 287.411449)scale(0.1 -0.1)">
       <use xlink:href="#DejaVuSans-48"/>
      </g>
     </g>
    </g>
    <g id="ytick_2">
     <g id="line2d_7">
      <g>
       <use style="stroke:#000000;stroke-width:0.8;" x="57.6" xlink:href="#m6a0db3eb27" y="253.53073"/>
      </g>
     </g>
     <g id="text_7">
      <!-- 10 -->
      <g transform="translate(37.875 257.329949)scale(0.1 -0.1)">
       <use xlink:href="#DejaVuSans-49"/>
       <use x="63.623047" xlink:href="#DejaVuSans-48"/>
      </g>
     </g>
    </g>
    <g id="ytick_3">
     <g id="line2d_8">
      <g>
       <use style="stroke:#000000;stroke-width:0.8;" x="57.6" xlink:href="#m6a0db3eb27" y="223.44923"/>
      </g>
     </g>
     <g id="text_8">
      <!-- 20 -->
      <g transform="translate(37.875 227.248449)scale(0.1 -0.1)">
       <use xlink:href="#DejaVuSans-50"/>
       <use x="63.623047" xlink:href="#DejaVuSans-48"/>
      </g>
     </g>
    </g>
    <g id="ytick_4">
     <g id="line2d_9">
      <g>
       <use style="stroke:#000000;stroke-width:0.8;" x="57.6" xlink:href="#m6a0db3eb27" y="193.367729"/>
      </g>
     </g>
     <g id="text_9">
      <!-- 30 -->
      <g transform="translate(37.875 197.166948)scale(0.1 -0.1)">
       <defs>
        <path d="M 40.578125 39.3125 
Q 47.65625 37.796875 51.625 33 
Q 55.609375 28.21875 55.609375 21.1875 
Q 55.609375 10.40625 48.1875 4.484375 
Q 40.765625 -1.421875 27.09375 -1.421875 
Q 22.515625 -1.421875 17.65625 -0.515625 
Q 12.796875 0.390625 7.625 2.203125 
L 7.625 11.71875 
Q 11.71875 9.328125 16.59375 8.109375 
Q 21.484375 6.890625 26.8125 6.890625 
Q 36.078125 6.890625 40.9375 10.546875 
Q 45.796875 14.203125 45.796875 21.1875 
Q 45.796875 27.640625 41.28125 31.265625 
Q 36.765625 34.90625 28.71875 34.90625 
L 20.21875 34.90625 
L 20.21875 43.015625 
L 29.109375 43.015625 
Q 36.375 43.015625 40.234375 45.921875 
Q 44.09375 48.828125 44.09375 54.296875 
Q 44.09375 59.90625 40.109375 62.90625 
Q 36.140625 65.921875 28.71875 65.921875 
Q 24.65625 65.921875 20.015625 65.03125 
Q 15.375 64.15625 9.8125 62.3125 
L 9.8125 71.09375 
Q 15.4375 72.65625 20.34375 73.4375 
Q 25.25 74.21875 29.59375 74.21875 
Q 40.828125 74.21875 47.359375 69.109375 
Q 53.90625 64.015625 53.90625 55.328125 
Q 53.90625 49.265625 50.4375 45.09375 
Q 46.96875 40.921875 40.578125 39.3125 
z
" id="DejaVuSans-51"/>
       </defs>
       <use xlink:href="#DejaVuSans-51"/>
       <use x="63.623047" xlink:href="#DejaVuSans-48"/>
      </g>
     </g>
    </g>
    <g id="ytick_5">
     <g id="line2d_10">
      <g>
       <use style="stroke:#000000;stroke-width:0.8;" x="57.6" xlink:href="#m6a0db3eb27" y="163.286229"/>
      </g>
     </g>
     <g id="text_10">
      <!-- 40 -->
      <g transform="translate(37.875 167.085448)scale(0.1 -0.1)">
       <use xlink:href="#DejaVuSans-52"/>
       <use x="63.623047" xlink:href="#DejaVuSans-48"/>
      </g>
     </g>
    </g>
    <g id="ytick_6">
     <g id="line2d_11">
      <g>
       <use style="stroke:#000000;stroke-width:0.8;" x="57.6" xlink:href="#m6a0db3eb27" y="133.204729"/>
      </g>
     </g>
     <g id="text_11">
      <!-- 50 -->
      <g transform="translate(37.875 137.003947)scale(0.1 -0.1)">
       <defs>
        <path d="M 10.796875 72.90625 
L 49.515625 72.90625 
L 49.515625 64.59375 
L 19.828125 64.59375 
L 19.828125 46.734375 
Q 21.96875 47.46875 24.109375 47.828125 
Q 26.265625 48.1875 28.421875 48.1875 
Q 40.625 48.1875 47.75 41.5 
Q 54.890625 34.8125 54.890625 23.390625 
Q 54.890625 11.625 47.5625 5.09375 
Q 40.234375 -1.421875 26.90625 -1.421875 
Q 22.3125 -1.421875 17.546875 -0.640625 
Q 12.796875 0.140625 7.71875 1.703125 
L 7.71875 11.625 
Q 12.109375 9.234375 16.796875 8.0625 
Q 21.484375 6.890625 26.703125 6.890625 
Q 35.15625 6.890625 40.078125 11.328125 
Q 45.015625 15.765625 45.015625 23.390625 
Q 45.015625 31 40.078125 35.4375 
Q 35.15625 39.890625 26.703125 39.890625 
Q 22.75 39.890625 18.8125 39.015625 
Q 14.890625 38.140625 10.796875 36.28125 
z
" id="DejaVuSans-53"/>
       </defs>
       <use xlink:href="#DejaVuSans-53"/>
       <use x="63.623047" xlink:href="#DejaVuSans-48"/>
      </g>
     </g>
    </g>
    <g id="ytick_7">
     <g id="line2d_12">
      <g>
       <use style="stroke:#000000;stroke-width:0.8;" x="57.6" xlink:href="#m6a0db3eb27" y="103.123228"/>
      </g>
     </g>
     <g id="text_12">
      <!-- 60 -->
      <g transform="translate(37.875 106.922447)scale(0.1 -0.1)">
       <use xlink:href="#DejaVuSans-54"/>
       <use x="63.623047" xlink:href="#DejaVuSans-48"/>
      </g>
     </g>
    </g>
    <g id="ytick_8">
     <g id="line2d_13">
      <g>
       <use style="stroke:#000000;stroke-width:0.8;" x="57.6" xlink:href="#m6a0db3eb27" y="73.041728"/>
      </g>
     </g>
     <g id="text_13">
      <!-- 70 -->
      <g transform="translate(37.875 76.840947)scale(0.1 -0.1)">
       <defs>
        <path d="M 8.203125 72.90625 
L 55.078125 72.90625 
L 55.078125 68.703125 
L 28.609375 0 
L 18.3125 0 
L 43.21875 64.59375 
L 8.203125 64.59375 
z
" id="DejaVuSans-55"/>
       </defs>
       <use xlink:href="#DejaVuSans-55"/>
       <use x="63.623047" xlink:href="#DejaVuSans-48"/>
      </g>
     </g>
    </g>
    <g id="ytick_9">
     <g id="line2d_14">
      <g>
       <use style="stroke:#000000;stroke-width:0.8;" x="57.6" xlink:href="#m6a0db3eb27" y="42.960228"/>
      </g>
     </g>
     <g id="text_14">
      <!-- 80 -->
      <g transform="translate(37.875 46.759446)scale(0.1 -0.1)">
       <use xlink:href="#DejaVuSans-56"/>
       <use x="63.623047" xlink:href="#DejaVuSans-48"/>
      </g>
     </g>
    </g>
   </g>
   <g id="line2d_15">
    <path clip-path="url(#p240b186e43)" d="M 86.331567 233.827347 
L 85.967581 224.802897 
L 85.865304 218.744483 
L 85.91945 212.677045 
L 86.163111 206.606598 
L 86.632382 200.557208 
L 87.360354 194.5379 
L 88.380117 188.566722 
L 89.727768 182.655707 
L 91.439406 176.825912 
L 93.548119 171.08937 
L 94.760403 168.273742 
L 96.083989 165.506244 
L 97.518877 162.798909 
L 99.071082 160.160761 
L 100.740606 157.606842 
L 102.536471 155.146175 
L 104.455671 152.790794 
L 106.504221 150.55273 
L 108.68513 148.441009 
L 110.998397 146.464654 
L 113.431991 144.626674 
L 115.976886 142.936094 
L 118.624058 141.389905 
L 121.358466 139.994123 
L 124.168078 138.751757 
L 127.046878 137.665815 
L 129.979824 136.736297 
L 132.957893 135.972227 
L 135.972059 135.373605 
L 139.004274 134.940431 
L 142.057546 134.672706 
L 145.113827 134.567421 
L 148.173115 134.621567 
L 151.22338 134.835146 
L 154.255595 135.205148 
L 157.266753 135.728567 
L 160.24783 136.402392 
L 163.186792 137.223617 
L 166.080633 138.19525 
L 168.923334 139.308265 
L 171.705873 140.556647 
L 174.425241 141.937388 
L 177.081437 143.441463 
L 179.665438 145.065864 
L 182.177244 146.801567 
L 184.610837 148.642555 
L 186.960202 150.58582 
L 189.222331 152.622337 
L 191.397223 154.746091 
L 193.478863 156.951065 
L 197.38645 161.580608 
L 200.987206 166.459827 
L 204.317228 171.540593 
L 207.41863 176.771766 
L 210.333528 182.099199 
L 220.269447 200.800868 
L 223.418981 205.950821 
L 226.848272 210.935326 
L 230.54228 215.739341 
L 234.488973 220.353843 
L 238.661277 224.769808 
L 243.04716 228.97821 
L 247.628572 232.961 
L 252.411531 236.694114 
L 257.396035 240.150479 
L 262.582086 243.300012 
L 267.972691 246.11564 
L 270.743197 247.391096 
L 273.558825 248.564275 
L 276.416568 249.632168 
L 279.313416 250.591768 
L 282.243355 251.428033 
L 285.203374 252.140965 
L 288.190467 252.721538 
L 291.198617 253.160728 
L 294.224816 253.455526 
L 297.266056 253.599918 
L 300.31632 253.587885 
L 303.366584 253.422437 
L 306.404816 253.103573 
L 309.428006 252.634302 
L 312.424124 252.011614 
L 315.384144 251.241528 
L 318.302049 250.321034 
L 321.168816 249.253141 
L 323.97542 248.03484 
L 326.715845 246.675156 
L 329.381066 245.171081 
L 331.965067 243.531639 
L 334.461831 241.765855 
L 336.871359 239.876737 
L 339.181618 237.873309 
L 341.392609 235.761588 
L 343.498314 233.550598 
L 345.489709 231.243347 
L 347.363787 228.851867 
L 349.117538 226.37616 
L 350.753972 223.828257 
L 352.279104 221.211166 
L 353.704967 218.536921 
L 356.276935 213.038023 
L 358.536056 207.3827 
L 360.5455 201.634126 
L 363.237794 192.937564 
L 369.172874 172.635559 
L 372.048666 164.041275 
L 377.959681 146.873762 
L 379.728473 141.080065 
L 381.307752 135.232222 
L 382.688492 129.33324 
L 383.864679 123.392143 
L 384.833303 117.414949 
L 385.582333 111.404665 
L 386.105751 105.373325 
L 386.397541 99.323935 
L 386.44868 93.265521 
L 386.256158 87.204098 
L 386.066645 84.174891 
L 386.066645 84.174891 
" style="fill:none;stroke:#fea952;stroke-linecap:square;"/>
   </g>
   <g id="line2d_16">
    <path clip-path="url(#p240b186e43)" d="M 74.312916 234.40656 
L 73.938124 225.077925 
L 73.832727 218.720609 
L 73.892885 212.296005 
L 74.157851 205.795915 
L 74.670211 199.257231 
L 75.47297 192.674149 
L 76.611477 186.060216 
L 78.131071 179.446333 
L 80.073853 172.875256 
L 81.22247 169.593775 
L 82.496369 166.330978 
L 83.905383 163.08221 
L 85.45231 159.871454 
L 87.148175 156.697105 
L 88.999535 153.576887 
L 91.021239 150.513368 
L 93.208379 147.545507 
L 95.57985 144.666554 
L 98.13411 141.908385 
L 100.869123 139.292593 
L 103.746595 136.86284 
L 106.773918 134.604024 
L 109.908135 132.546015 
L 113.153498 130.672795 
L 116.492344 128.989382 
L 119.921242 127.493523 
L 123.411663 126.195476 
L 126.989523 125.081188 
L 130.613963 124.170131 
L 134.270392 123.461938 
L 137.953232 122.953823 
L 141.643283 122.647239 
L 145.32676 122.536705 
L 149.013577 122.618356 
L 152.680833 122.891139 
L 156.316275 123.350316 
L 159.919608 123.99205 
L 163.486019 124.813708 
L 167.016726 125.816818 
L 170.467539 126.990852 
L 173.848748 128.329933 
L 177.153375 129.827799 
L 180.354173 131.466895 
L 183.485331 133.25453 
L 186.505881 135.166783 
L 189.436597 137.205461 
L 192.280004 139.370697 
L 195.010901 141.643241 
L 197.62885 144.013394 
L 200.146737 146.485977 
L 202.535798 149.029234 
L 204.803526 151.633234 
L 209.00549 156.989183 
L 212.827383 162.508313 
L 216.304654 168.107113 
L 219.493432 173.726699 
L 223.831585 181.963066 
L 229.247499 192.239808 
L 231.993002 196.984353 
L 234.917833 201.509564 
L 238.103311 205.900093 
L 241.529918 210.134488 
L 245.184936 214.212641 
L 249.060139 218.12172 
L 253.087868 221.816879 
L 257.26702 225.274892 
L 261.585714 228.470259 
L 266.041906 231.382308 
L 270.636213 233.993043 
L 275.37112 236.28408 
L 280.200254 238.209944 
L 285.060879 239.729956 
L 289.928797 240.815167 
L 292.365257 241.184818 
L 294.795454 241.436465 
L 297.21859 241.567411 
L 299.664622 241.572946 
L 302.110655 241.455561 
L 304.559171 241.213364 
L 306.979575 240.853442 
L 309.394541 240.366654 
L 311.764147 239.766377 
L 314.101767 239.045348 
L 316.377594 238.215584 
L 318.627432 237.256042 
L 320.802133 236.196059 
L 322.93484 235.010883 
L 325.017242 233.707628 
L 327.037755 232.296612 
L 328.988138 230.786176 
L 330.870866 229.171881 
L 332.679347 227.463243 
L 334.389362 225.688634 
L 336.018755 223.821454 
L 337.545125 221.896485 
L 338.993256 219.873669 
L 340.357866 217.769837 
L 342.883689 213.275418 
L 345.159045 208.436286 
L 347.215795 203.304077 
L 349.093971 197.940084 
L 351.68409 189.576704 
L 357.724626 168.931362 
L 360.689733 160.071627 
L 366.480558 143.26638 
L 368.136561 137.853451 
L 369.616361 132.387078 
L 370.905443 126.895367 
L 372.004967 121.359733 
L 372.90615 115.825459 
L 373.60458 110.257096 
L 374.093139 104.680059 
L 374.367083 99.096945 
L 374.41869 93.516145 
L 374.247037 87.955414 
L 374.057524 84.926207 
L 374.057524 84.926207 
" style="fill:none;stroke:#ffffff;stroke-linecap:square;"/>
   </g>
   <g id="line2d_17">
    <path clip-path="url(#p240b186e43)" d="M 98.350218 233.248135 
L 97.997037 224.52787 
L 97.902408 215.903048 
L 98.03412 210.223041 
L 98.35431 204.628013 
L 98.887424 199.129524 
L 99.661778 193.731946 
L 100.703887 188.443086 
L 102.028169 183.300483 
L 103.659769 178.294435 
L 105.615424 173.465273 
L 107.889579 168.900713 
L 109.14263 166.744635 
L 110.459972 164.700316 
L 111.864564 162.746843 
L 113.331492 160.915033 
L 114.874332 159.197075 
L 116.501136 157.589424 
L 118.2502 156.066468 
L 120.090064 154.649325 
L 122.045636 153.326173 
L 124.094618 152.107015 
L 126.224588 150.998864 
L 128.414915 150.009992 
L 130.682093 149.136154 
L 132.970125 148.391406 
L 135.301822 147.774322 
L 137.673726 147.285271 
L 140.055317 146.927039 
L 142.47181 146.698173 
L 144.900894 146.598137 
L 147.332654 146.624779 
L 149.765926 146.779153 
L 152.194915 147.059981 
L 154.613898 147.465083 
L 157.009641 147.991076 
L 159.356859 148.630417 
L 161.693726 149.399647 
L 163.997921 150.286597 
L 166.258372 151.285496 
L 168.496309 152.407882 
L 170.677544 153.628397 
L 174.91789 156.397673 
L 176.941669 157.914412 
L 180.815811 161.23128 
L 184.421929 164.872896 
L 187.809311 168.864966 
L 191.004896 173.178232 
L 194.028894 177.780277 
L 196.90531 182.624419 
L 199.680748 187.693996 
L 208.313327 204.109699 
L 211.626239 209.803434 
L 215.277223 215.415689 
L 219.221062 220.819696 
L 223.441172 226.006827 
L 227.908158 230.965157 
L 232.600167 235.677436 
L 237.536725 240.182494 
L 242.724952 244.44941 
L 248.170713 248.449539 
L 253.882069 252.149403 
L 259.864417 255.512854 
L 262.94087 257.04561 
L 266.115274 258.498112 
L 269.346902 259.835617 
L 272.632882 261.054391 
L 276.010945 262.162297 
L 279.42583 263.126111 
L 282.907671 263.952536 
L 286.452137 264.627909 
L 290.031978 265.136638 
L 293.654178 265.474588 
L 297.313521 265.632424 
L 300.968018 265.602824 
L 304.622514 265.389312 
L 308.25046 264.993782 
L 311.876438 264.415161 
L 315.453707 263.656574 
L 319.00414 262.716679 
L 322.502331 261.59672 
L 325.960038 260.290697 
L 329.323408 258.813638 
L 332.629556 257.154254 
L 335.827292 255.33128 
L 338.912891 253.355651 
L 341.885907 251.235099 
L 344.75458 248.967298 
L 347.492371 246.574738 
L 350.105871 244.059933 
L 352.607265 241.412561 
L 354.960663 238.665239 
L 357.182448 235.80725 
L 359.24182 232.87865 
L 361.150077 229.886677 
L 362.896765 226.872326 
L 364.526244 223.798424 
L 367.394826 217.639759 
L 369.856316 211.461324 
L 371.997029 205.328167 
L 374.791499 196.298424 
L 381.511513 173.58579 
L 384.396206 165.181961 
L 388.453428 153.493538 
L 390.404735 147.402066 
L 392.180955 141.209667 
L 393.763261 134.929564 
L 395.125266 128.602716 
L 396.270674 122.225124 
L 397.18584 115.7993 
L 397.867495 109.323418 
L 398.303792 102.816256 
L 398.487273 96.27083 
L 398.407154 89.719968 
L 398.075766 83.423576 
L 398.075766 83.423576 
" style="fill:none;stroke:#ffffff;stroke-linecap:square;"/>
   </g>
   <g id="patch_3">
    <path d="M 57.6 307.584 
L 57.6 41.472 
" style="fill:none;stroke:#000000;stroke-linecap:square;stroke-linejoin:miter;stroke-width:0.8;"/>
   </g>
   <g id="patch_4">
    <path d="M 414.72 307.584 
L 414.72 41.472 
" style="fill:none;stroke:#000000;stroke-linecap:square;stroke-linejoin:miter;stroke-width:0.8;"/>
   </g>
   <g id="patch_5">
    <path d="M 57.6 307.584 
L 414.72 307.584 
" style="fill:none;stroke:#000000;stroke-linecap:square;stroke-linejoin:miter;stroke-width:0.8;"/>
   </g>
   <g id="patch_6">
    <path d="M 57.6 41.472 
L 414.72 41.472 
" style="fill:none;stroke:#000000;stroke-linecap:square;stroke-linejoin:miter;stroke-width:0.8;"/>
   </g>
  </g>
 </g>
 <defs>
  <clipPath id="p240b186e43">
   <rect height="266.112" width="357.12" x="57.6" y="41.472"/>
  </clipPath>
 </defs>
</svg>
