<?xml version="1.0" encoding="utf-8" standalone="no"?>
<!DOCTYPE svg PUBLIC "-//W3C//DTD SVG 1.1//EN"
  "http://www.w3.org/Graphics/SVG/1.1/DTD/svg11.dtd">
<!-- Created with matplotlib (https://matplotlib.org/) -->
<svg height="345.6pt" version="1.1" viewBox="0 0 460.8 345.6" width="460.8pt" xmlns="http://www.w3.org/2000/svg" xmlns:xlink="http://www.w3.org/1999/xlink">
 <metadata>
  <rdf:RDF xmlns:cc="http://creativecommons.org/ns#" xmlns:dc="http://purl.org/dc/elements/1.1/" xmlns:rdf="http://www.w3.org/1999/02/22-rdf-syntax-ns#">
   <cc:Work>
    <dc:type rdf:resource="http://purl.org/dc/dcmitype/StillImage"/>
    <dc:date>2021-01-25T10:00:19.291527</dc:date>
    <dc:format>image/svg+xml</dc:format>
    <dc:creator>
     <cc:Agent>
      <dc:title>Matplotlib v3.3.3, https://matplotlib.org/</dc:title>
     </cc:Agent>
    </dc:creator>
   </cc:Work>
  </rdf:RDF>
 </metadata>
 <defs>
  <style type="text/css">*{stroke-linecap:butt;stroke-linejoin:round;}</style>
 </defs>
 <g id="figure_1">
  <g id="patch_1">
   <path d="M 0 345.6 
L 460.8 345.6 
L 460.8 0 
L 0 0 
z
" style="fill:#ffffff;"/>
  </g>
  <g id="axes_1">
   <g id="patch_2">
    <path d="M 57.6 307.584 
L 414.72 307.584 
L 414.72 41.472 
L 57.6 41.472 
z
" style="fill:#7d9051;"/>
   </g>
   <g id="matplotlib.axis_1">
    <g id="xtick_1">
     <g id="line2d_1">
      <defs>
       <path d="M 0 0 
L 0 3.5 
" id="mcfa5e427b3" style="stroke:#000000;stroke-width:0.8;"/>
      </defs>
      <g>
       <use style="stroke:#000000;stroke-width:0.8;" x="71.190895" xlink:href="#mcfa5e427b3" y="307.584"/>
      </g>
     </g>
     <g id="text_1">
      <!-- 0 -->
      <g transform="translate(68.009645 322.182437)scale(0.1 -0.1)">
       <defs>
        <path d="M 31.78125 66.40625 
Q 24.171875 66.40625 20.328125 58.90625 
Q 16.5 51.421875 16.5 36.375 
Q 16.5 21.390625 20.328125 13.890625 
Q 24.171875 6.390625 31.78125 6.390625 
Q 39.453125 6.390625 43.28125 13.890625 
Q 47.125 21.390625 47.125 36.375 
Q 47.125 51.421875 43.28125 58.90625 
Q 39.453125 66.40625 31.78125 66.40625 
z
M 31.78125 74.21875 
Q 44.046875 74.21875 50.515625 64.515625 
Q 56.984375 54.828125 56.984375 36.375 
Q 56.984375 17.96875 50.515625 8.265625 
Q 44.046875 -1.421875 31.78125 -1.421875 
Q 19.53125 -1.421875 13.0625 8.265625 
Q 6.59375 17.96875 6.59375 36.375 
Q 6.59375 54.828125 13.0625 64.515625 
Q 19.53125 74.21875 31.78125 74.21875 
z
" id="DejaVuSans-48"/>
       </defs>
       <use xlink:href="#DejaVuSans-48"/>
      </g>
     </g>
    </g>
    <g id="xtick_2">
     <g id="line2d_2">
      <g>
       <use style="stroke:#000000;stroke-width:0.8;" x="129.812796" xlink:href="#mcfa5e427b3" y="307.584"/>
      </g>
     </g>
     <g id="text_2">
      <!-- 20 -->
      <g transform="translate(123.450296 322.182437)scale(0.1 -0.1)">
       <defs>
        <path d="M 19.1875 8.296875 
L 53.609375 8.296875 
L 53.609375 0 
L 7.328125 0 
L 7.328125 8.296875 
Q 12.9375 14.109375 22.625 23.890625 
Q 32.328125 33.6875 34.8125 36.53125 
Q 39.546875 41.84375 41.421875 45.53125 
Q 43.3125 49.21875 43.3125 52.78125 
Q 43.3125 58.59375 39.234375 62.25 
Q 35.15625 65.921875 28.609375 65.921875 
Q 23.96875 65.921875 18.8125 64.3125 
Q 13.671875 62.703125 7.8125 59.421875 
L 7.8125 69.390625 
Q 13.765625 71.78125 18.9375 73 
Q 24.125 74.21875 28.421875 74.21875 
Q 39.75 74.21875 46.484375 68.546875 
Q 53.21875 62.890625 53.21875 53.421875 
Q 53.21875 48.921875 51.53125 44.890625 
Q 49.859375 40.875 45.40625 35.40625 
Q 44.1875 33.984375 37.640625 27.21875 
Q 31.109375 20.453125 19.1875 8.296875 
z
" id="DejaVuSans-50"/>
       </defs>
       <use xlink:href="#DejaVuSans-50"/>
       <use x="63.623047" xlink:href="#DejaVuSans-48"/>
      </g>
     </g>
    </g>
    <g id="xtick_3">
     <g id="line2d_3">
      <g>
       <use style="stroke:#000000;stroke-width:0.8;" x="188.434696" xlink:href="#mcfa5e427b3" y="307.584"/>
      </g>
     </g>
     <g id="text_3">
      <!-- 40 -->
      <g transform="translate(182.072196 322.182437)scale(0.1 -0.1)">
       <defs>
        <path d="M 37.796875 64.3125 
L 12.890625 25.390625 
L 37.796875 25.390625 
z
M 35.203125 72.90625 
L 47.609375 72.90625 
L 47.609375 25.390625 
L 58.015625 25.390625 
L 58.015625 17.1875 
L 47.609375 17.1875 
L 47.609375 0 
L 37.796875 0 
L 37.796875 17.1875 
L 4.890625 17.1875 
L 4.890625 26.703125 
z
" id="DejaVuSans-52"/>
       </defs>
       <use xlink:href="#DejaVuSans-52"/>
       <use x="63.623047" xlink:href="#DejaVuSans-48"/>
      </g>
     </g>
    </g>
    <g id="xtick_4">
     <g id="line2d_4">
      <g>
       <use style="stroke:#000000;stroke-width:0.8;" x="247.056596" xlink:href="#mcfa5e427b3" y="307.584"/>
      </g>
     </g>
     <g id="text_4">
      <!-- 60 -->
      <g transform="translate(240.694096 322.182437)scale(0.1 -0.1)">
       <defs>
        <path d="M 33.015625 40.375 
Q 26.375 40.375 22.484375 35.828125 
Q 18.609375 31.296875 18.609375 23.390625 
Q 18.609375 15.53125 22.484375 10.953125 
Q 26.375 6.390625 33.015625 6.390625 
Q 39.65625 6.390625 43.53125 10.953125 
Q 47.40625 15.53125 47.40625 23.390625 
Q 47.40625 31.296875 43.53125 35.828125 
Q 39.65625 40.375 33.015625 40.375 
z
M 52.59375 71.296875 
L 52.59375 62.3125 
Q 48.875 64.0625 45.09375 64.984375 
Q 41.3125 65.921875 37.59375 65.921875 
Q 27.828125 65.921875 22.671875 59.328125 
Q 17.53125 52.734375 16.796875 39.40625 
Q 19.671875 43.65625 24.015625 45.921875 
Q 28.375 48.1875 33.59375 48.1875 
Q 44.578125 48.1875 50.953125 41.515625 
Q 57.328125 34.859375 57.328125 23.390625 
Q 57.328125 12.15625 50.6875 5.359375 
Q 44.046875 -1.421875 33.015625 -1.421875 
Q 20.359375 -1.421875 13.671875 8.265625 
Q 6.984375 17.96875 6.984375 36.375 
Q 6.984375 53.65625 15.1875 63.9375 
Q 23.390625 74.21875 37.203125 74.21875 
Q 40.921875 74.21875 44.703125 73.484375 
Q 48.484375 72.75 52.59375 71.296875 
z
" id="DejaVuSans-54"/>
       </defs>
       <use xlink:href="#DejaVuSans-54"/>
       <use x="63.623047" xlink:href="#DejaVuSans-48"/>
      </g>
     </g>
    </g>
    <g id="xtick_5">
     <g id="line2d_5">
      <g>
       <use style="stroke:#000000;stroke-width:0.8;" x="305.678496" xlink:href="#mcfa5e427b3" y="307.584"/>
      </g>
     </g>
     <g id="text_5">
      <!-- 80 -->
      <g transform="translate(299.315996 322.182437)scale(0.1 -0.1)">
       <defs>
        <path d="M 31.78125 34.625 
Q 24.75 34.625 20.71875 30.859375 
Q 16.703125 27.09375 16.703125 20.515625 
Q 16.703125 13.921875 20.71875 10.15625 
Q 24.75 6.390625 31.78125 6.390625 
Q 38.8125 6.390625 42.859375 10.171875 
Q 46.921875 13.96875 46.921875 20.515625 
Q 46.921875 27.09375 42.890625 30.859375 
Q 38.875 34.625 31.78125 34.625 
z
M 21.921875 38.8125 
Q 15.578125 40.375 12.03125 44.71875 
Q 8.5 49.078125 8.5 55.328125 
Q 8.5 64.0625 14.71875 69.140625 
Q 20.953125 74.21875 31.78125 74.21875 
Q 42.671875 74.21875 48.875 69.140625 
Q 55.078125 64.0625 55.078125 55.328125 
Q 55.078125 49.078125 51.53125 44.71875 
Q 48 40.375 41.703125 38.8125 
Q 48.828125 37.15625 52.796875 32.3125 
Q 56.78125 27.484375 56.78125 20.515625 
Q 56.78125 9.90625 50.3125 4.234375 
Q 43.84375 -1.421875 31.78125 -1.421875 
Q 19.734375 -1.421875 13.25 4.234375 
Q 6.78125 9.90625 6.78125 20.515625 
Q 6.78125 27.484375 10.78125 32.3125 
Q 14.796875 37.15625 21.921875 38.8125 
z
M 18.3125 54.390625 
Q 18.3125 48.734375 21.84375 45.5625 
Q 25.390625 42.390625 31.78125 42.390625 
Q 38.140625 42.390625 41.71875 45.5625 
Q 45.3125 48.734375 45.3125 54.390625 
Q 45.3125 60.0625 41.71875 63.234375 
Q 38.140625 66.40625 31.78125 66.40625 
Q 25.390625 66.40625 21.84375 63.234375 
Q 18.3125 60.0625 18.3125 54.390625 
z
" id="DejaVuSans-56"/>
       </defs>
       <use xlink:href="#DejaVuSans-56"/>
       <use x="63.623047" xlink:href="#DejaVuSans-48"/>
      </g>
     </g>
    </g>
    <g id="xtick_6">
     <g id="line2d_6">
      <g>
       <use style="stroke:#000000;stroke-width:0.8;" x="364.300396" xlink:href="#mcfa5e427b3" y="307.584"/>
      </g>
     </g>
     <g id="text_6">
      <!-- 100 -->
      <g transform="translate(354.756646 322.182437)scale(0.1 -0.1)">
       <defs>
        <path d="M 12.40625 8.296875 
L 28.515625 8.296875 
L 28.515625 63.921875 
L 10.984375 60.40625 
L 10.984375 69.390625 
L 28.421875 72.90625 
L 38.28125 72.90625 
L 38.28125 8.296875 
L 54.390625 8.296875 
L 54.390625 0 
L 12.40625 0 
z
" id="DejaVuSans-49"/>
       </defs>
       <use xlink:href="#DejaVuSans-49"/>
       <use x="63.623047" xlink:href="#DejaVuSans-48"/>
       <use x="127.246094" xlink:href="#DejaVuSans-48"/>
      </g>
     </g>
    </g>
   </g>
   <g id="matplotlib.axis_2">
    <g id="ytick_1">
     <g id="line2d_7">
      <defs>
       <path d="M 0 0 
L -3.5 0 
" id="m28524bd6ee" style="stroke:#000000;stroke-width:0.8;"/>
      </defs>
      <g>
       <use style="stroke:#000000;stroke-width:0.8;" x="57.6" xlink:href="#m28524bd6ee" y="256.366844"/>
      </g>
     </g>
     <g id="text_7">
      <!-- 20 -->
      <g transform="translate(37.875 260.166063)scale(0.1 -0.1)">
       <use xlink:href="#DejaVuSans-50"/>
       <use x="63.623047" xlink:href="#DejaVuSans-48"/>
      </g>
     </g>
    </g>
    <g id="ytick_2">
     <g id="line2d_8">
      <g>
       <use style="stroke:#000000;stroke-width:0.8;" x="57.6" xlink:href="#m28524bd6ee" y="197.744944"/>
      </g>
     </g>
     <g id="text_8">
      <!-- 40 -->
      <g transform="translate(37.875 201.544163)scale(0.1 -0.1)">
       <use xlink:href="#DejaVuSans-52"/>
       <use x="63.623047" xlink:href="#DejaVuSans-48"/>
      </g>
     </g>
    </g>
    <g id="ytick_3">
     <g id="line2d_9">
      <g>
       <use style="stroke:#000000;stroke-width:0.8;" x="57.6" xlink:href="#m28524bd6ee" y="139.123044"/>
      </g>
     </g>
     <g id="text_9">
      <!-- 60 -->
      <g transform="translate(37.875 142.922263)scale(0.1 -0.1)">
       <use xlink:href="#DejaVuSans-54"/>
       <use x="63.623047" xlink:href="#DejaVuSans-48"/>
      </g>
     </g>
    </g>
    <g id="ytick_4">
     <g id="line2d_10">
      <g>
       <use style="stroke:#000000;stroke-width:0.8;" x="57.6" xlink:href="#m28524bd6ee" y="80.501144"/>
      </g>
     </g>
     <g id="text_10">
      <!-- 80 -->
      <g transform="translate(37.875 84.300362)scale(0.1 -0.1)">
       <use xlink:href="#DejaVuSans-56"/>
       <use x="63.623047" xlink:href="#DejaVuSans-48"/>
      </g>
     </g>
    </g>
   </g>
   <g id="line2d_11">
    <path clip-path="url(#p2d71355ae0)" d="M 100.501846 196.997515 
L 99.836487 191.050323 
L 99.558033 185.135373 
L 99.619586 179.243872 
L 99.965455 173.37582 
L 100.542881 167.522423 
L 101.729974 158.770174 
L 103.626393 147.124933 
L 105.505225 135.485555 
L 107.301986 123.846177 
L 108.348387 118.048471 
L 109.605827 112.271282 
L 111.147583 106.529267 
L 113.046932 100.872254 
L 114.149024 98.102369 
L 115.359566 95.382313 
L 116.690283 92.729672 
L 118.147037 90.147377 
L 119.735691 87.653015 
L 121.462106 85.252449 
L 123.338007 82.957401 
L 125.360462 80.776667 
L 127.520679 78.716107 
L 129.806933 76.787446 
L 132.2075 74.990685 
L 134.710655 73.334616 
L 137.304674 71.822171 
L 139.977833 70.465074 
L 142.715476 69.266256 
L 145.508809 68.234511 
L 148.346109 67.372769 
L 151.218582 66.681031 
L 154.117435 66.147571 
L 157.039737 65.754805 
L 159.982557 65.491006 
L 165.909231 65.291692 
L 171.859354 65.429453 
L 177.79189 65.787047 
L 186.62621 66.569649 
L 195.396046 67.586739 
L 204.142434 68.806075 
L 212.88589 70.207138 
L 218.698252 71.294574 
L 224.463716 72.560807 
L 230.167627 74.055666 
L 235.780674 75.831909 
L 241.294063 77.918849 
L 246.699002 80.284243 
L 252.001353 82.898779 
L 257.195254 85.733148 
L 262.283635 88.752176 
L 267.263565 91.935345 
L 272.129183 95.276794 
L 276.880488 98.77359 
L 281.511618 102.422803 
L 286.019642 106.21564 
L 290.40456 110.14917 
L 296.806072 116.248778 
L 305.121588 124.625848 
L 317.537707 137.247143 
L 321.799519 141.315503 
L 326.181506 145.251963 
L 330.710048 149.030145 
L 344.468608 160.162444 
L 348.815421 164.137009 
L 352.895506 168.39589 
L 356.673687 172.944949 
L 360.126517 177.760738 
L 363.227616 182.819808 
L 365.956465 188.104572 
L 367.17287 190.821698 
L 368.283755 193.58572 
L 369.286189 196.387847 
L 370.174311 199.231009 
L 370.942258 202.103482 
L 371.581236 205.002335 
L 372.091247 207.924637 
L 372.460565 210.864525 
L 372.68919 213.819069 
L 372.76833 216.782406 
L 372.695053 219.748674 
L 372.469358 222.714942 
L 372.097109 225.666555 
L 371.578305 228.600581 
L 370.915878 231.508227 
L 370.11862 234.383632 
L 369.186532 237.212138 
L 368.122544 239.993747 
L 366.929589 242.716735 
L 365.613527 245.372307 
L 364.17729 247.954601 
L 362.626741 250.46655 
L 360.970672 252.905221 
L 359.212015 255.276477 
L 355.425041 259.822605 
L 351.324439 264.122522 
L 346.962969 268.18795 
L 342.399254 272.045271 
L 337.688985 275.703278 
L 332.887851 279.182488 
L 325.636322 284.106727 
L 323.235755 285.677794 
L 323.235755 285.677794 
" style="fill:none;stroke:#fea952;stroke-linecap:square;"/>
   </g>
   <g id="line2d_12">
    <path clip-path="url(#p2d71355ae0)" d="M 88.873724 198.49681 
L 88.445788 195.125662 
L 87.933351 188.461932 
L 87.830866 181.918176 
L 88.064518 175.488212 
L 88.571684 169.197796 
L 89.285262 163.028304 
L 90.608113 153.980237 
L 96.866688 115.675354 
L 98.241802 109.386836 
L 99.971949 102.98437 
L 100.999925 99.765397 
L 102.153187 96.537811 
L 103.437531 93.335293 
L 104.879919 90.12512 
L 106.478728 86.96901 
L 108.258023 83.849086 
L 110.217208 80.807611 
L 112.384322 77.832548 
L 114.741521 74.984854 
L 117.268074 72.292897 
L 119.960806 69.754555 
L 122.781477 67.40107 
L 125.738374 65.212572 
L 128.805215 63.206099 
L 131.997277 61.36786 
L 135.274862 59.725282 
L 138.653205 58.268118 
L 142.101577 57.01614 
L 145.601159 55.974246 
L 149.096643 55.150269 
L 152.555684 54.527674 
L 155.992944 54.077249 
L 159.390702 53.781574 
L 166.036285 53.568 
L 172.483459 53.721696 
L 178.707956 54.098509 
L 187.874833 54.911946 
L 196.937933 55.964189 
L 205.912955 57.21615 
L 214.965826 58.668726 
L 221.107145 59.820328 
L 227.307296 61.186488 
L 233.551587 62.830253 
L 239.780844 64.811032 
L 245.864633 67.122045 
L 251.769481 69.712992 
L 257.521724 72.555347 
L 263.097049 75.602507 
L 268.524682 78.826935 
L 273.826035 82.219632 
L 278.998797 85.775768 
L 284.0616 89.505758 
L 288.989808 93.392977 
L 293.787155 97.433452 
L 298.39808 101.572181 
L 305.055578 107.917709 
L 313.527586 116.452703 
L 325.692841 128.823671 
L 329.720386 132.671375 
L 333.774105 136.318122 
L 338.041315 139.880631 
L 352.254238 151.396314 
L 357.129098 155.869973 
L 359.509129 158.274949 
L 361.779236 160.744719 
L 363.975969 163.306836 
L 366.072649 165.93634 
L 368.098342 168.666611 
L 370.011717 171.456461 
L 371.824296 174.31242 
L 373.545023 177.25095 
L 375.154591 180.249507 
L 376.657447 183.313949 
L 378.051508 186.449477 
L 379.323003 189.636533 
L 380.477286 192.892071 
L 381.500896 196.202881 
L 382.391787 199.579723 
L 383.131041 202.986622 
L 383.724196 206.46327 
L 384.15 209.959986 
L 384.409392 213.506067 
L 384.489134 217.071952 
L 384.385642 220.638176 
L 384.101595 224.181967 
L 383.642388 227.708028 
L 383.009774 231.204928 
L 382.214012 234.640839 
L 381.253971 238.053105 
L 380.137144 241.400834 
L 378.861532 244.698557 
L 377.434679 247.9229 
L 375.859735 251.071106 
L 374.154053 254.112953 
L 372.32606 257.053227 
L 370.387757 259.889461 
L 368.359275 262.610557 
L 366.228987 265.254389 
L 361.765072 270.229937 
L 357.05051 274.866753 
L 352.168054 279.183758 
L 347.162942 283.225784 
L 342.105639 287.007742 
L 334.535898 292.27144 
L 329.65611 295.488 
L 329.65611 295.488 
" style="fill:none;stroke:#ffffff;stroke-linecap:square;"/>
   </g>
   <g id="line2d_13">
    <path clip-path="url(#p2d71355ae0)" d="M 112.129967 195.49822 
L 111.538125 190.320419 
L 111.28239 185.112064 
L 111.330536 179.804876 
L 111.642544 174.42781 
L 112.178868 168.959398 
L 113.316127 160.565211 
L 115.188085 149.071307 
L 117.100061 137.223614 
L 118.853325 125.853076 
L 119.830085 120.421588 
L 120.969851 115.155729 
L 122.323216 110.074165 
L 123.940678 105.206697 
L 125.839213 100.639506 
L 128.036052 96.445669 
L 129.254174 94.49842 
L 130.53989 92.672349 
L 131.934493 90.929949 
L 133.45285 89.260436 
L 135.080552 87.677658 
L 136.832389 86.173822 
L 138.676626 84.768798 
L 140.616096 83.463133 
L 142.612072 82.276483 
L 144.680804 81.204867 
L 146.777747 80.264394 
L 148.916042 79.452882 
L 151.09106 78.771292 
L 153.340522 78.211792 
L 155.679187 77.767469 
L 158.08653 77.432361 
L 163.13676 77.06425 
L 168.468713 77.040946 
L 174.041747 77.285682 
L 182.536469 77.94704 
L 191.028196 78.857844 
L 199.53654 79.982657 
L 208.029817 81.279977 
L 216.289358 82.76882 
L 221.620136 83.935127 
L 226.783666 85.281079 
L 231.780503 86.852786 
L 236.723494 88.715653 
L 241.628524 90.855493 
L 246.480982 93.242212 
L 251.293458 95.86379 
L 256.042587 98.677417 
L 260.701095 101.651058 
L 265.259569 104.777819 
L 269.699375 108.041422 
L 274.033428 111.45263 
L 278.252129 114.997828 
L 282.41104 118.726158 
L 288.556565 124.579848 
L 296.715591 132.798992 
L 309.382573 145.670615 
L 313.878651 149.959631 
L 318.588907 154.185805 
L 323.378781 158.179659 
L 336.682977 168.928574 
L 340.501745 172.404044 
L 344.011775 176.047061 
L 347.274725 179.953558 
L 350.241317 184.065016 
L 352.910208 188.388667 
L 355.255483 192.895196 
L 357.244506 197.534907 
L 358.847726 202.259137 
L 360.031432 207.018048 
L 360.458298 209.386004 
L 360.77113 211.769065 
L 360.968989 214.132071 
L 361.047526 216.492861 
L 361.004463 218.859173 
L 360.837122 221.247918 
L 360.55183 223.625082 
L 360.146837 225.996235 
L 359.617744 228.375615 
L 358.983269 230.714158 
L 358.235919 233.023442 
L 357.383557 235.288938 
L 356.424498 237.510569 
L 355.367319 239.673508 
L 354.200528 241.79625 
L 351.553588 245.920981 
L 348.496002 249.912108 
L 345.057685 253.776743 
L 341.29552 257.49941 
L 337.238136 261.102224 
L 332.957539 264.569663 
L 328.482922 267.92199 
L 321.56719 272.735397 
L 316.815401 275.867589 
L 316.815401 275.867589 
" style="fill:none;stroke:#ffffff;stroke-linecap:square;"/>
   </g>
   <g id="patch_3">
    <path d="M 57.6 307.584 
L 57.6 41.472 
" style="fill:none;stroke:#000000;stroke-linecap:square;stroke-linejoin:miter;stroke-width:0.8;"/>
   </g>
   <g id="patch_4">
    <path d="M 414.72 307.584 
L 414.72 41.472 
" style="fill:none;stroke:#000000;stroke-linecap:square;stroke-linejoin:miter;stroke-width:0.8;"/>
   </g>
   <g id="patch_5">
    <path d="M 57.6 307.584 
L 414.72 307.584 
" style="fill:none;stroke:#000000;stroke-linecap:square;stroke-linejoin:miter;stroke-width:0.8;"/>
   </g>
   <g id="patch_6">
    <path d="M 57.6 41.472 
L 414.72 41.472 
" style="fill:none;stroke:#000000;stroke-linecap:square;stroke-linejoin:miter;stroke-width:0.8;"/>
   </g>
  </g>
 </g>
 <defs>
  <clipPath id="p2d71355ae0">
   <rect height="266.112" width="357.12" x="57.6" y="41.472"/>
  </clipPath>
 </defs>
</svg>
