<?xml version="1.0" encoding="utf-8" standalone="no"?>
<!DOCTYPE svg PUBLIC "-//W3C//DTD SVG 1.1//EN"
  "http://www.w3.org/Graphics/SVG/1.1/DTD/svg11.dtd">
<!-- Created with matplotlib (https://matplotlib.org/) -->
<svg height="345.6pt" version="1.1" viewBox="0 0 460.8 345.6" width="460.8pt" xmlns="http://www.w3.org/2000/svg" xmlns:xlink="http://www.w3.org/1999/xlink">
 <metadata>
  <rdf:RDF xmlns:cc="http://creativecommons.org/ns#" xmlns:dc="http://purl.org/dc/elements/1.1/" xmlns:rdf="http://www.w3.org/1999/02/22-rdf-syntax-ns#">
   <cc:Work>
    <dc:type rdf:resource="http://purl.org/dc/dcmitype/StillImage"/>
    <dc:date>2021-01-25T09:40:00.625713</dc:date>
    <dc:format>image/svg+xml</dc:format>
    <dc:creator>
     <cc:Agent>
      <dc:title>Matplotlib v3.3.3, https://matplotlib.org/</dc:title>
     </cc:Agent>
    </dc:creator>
   </cc:Work>
  </rdf:RDF>
 </metadata>
 <defs>
  <style type="text/css">*{stroke-linecap:butt;stroke-linejoin:round;}</style>
 </defs>
 <g id="figure_1">
  <g id="patch_1">
   <path d="M 0 345.6 
L 460.8 345.6 
L 460.8 0 
L 0 0 
z
" style="fill:#ffffff;"/>
  </g>
  <g id="axes_1">
   <g id="patch_2">
    <path d="M 57.6 307.584 
L 414.72 307.584 
L 414.72 41.472 
L 57.6 41.472 
z
" style="fill:#7d9051;"/>
   </g>
   <g id="matplotlib.axis_1">
    <g id="xtick_1">
     <g id="line2d_1">
      <defs>
       <path d="M 0 0 
L 0 3.5 
" id="m27eade6f6c" style="stroke:#000000;stroke-width:0.8;"/>
      </defs>
      <g>
       <use style="stroke:#000000;stroke-width:0.8;" x="67.369648" xlink:href="#m27eade6f6c" y="307.584"/>
      </g>
     </g>
     <g id="text_1">
      <!-- −100 -->
      <g transform="translate(53.636054 322.182437)scale(0.1 -0.1)">
       <defs>
        <path d="M 10.59375 35.5 
L 73.1875 35.5 
L 73.1875 27.203125 
L 10.59375 27.203125 
z
" id="DejaVuSans-8722"/>
        <path d="M 12.40625 8.296875 
L 28.515625 8.296875 
L 28.515625 63.921875 
L 10.984375 60.40625 
L 10.984375 69.390625 
L 28.421875 72.90625 
L 38.28125 72.90625 
L 38.28125 8.296875 
L 54.390625 8.296875 
L 54.390625 0 
L 12.40625 0 
z
" id="DejaVuSans-49"/>
        <path d="M 31.78125 66.40625 
Q 24.171875 66.40625 20.328125 58.90625 
Q 16.5 51.421875 16.5 36.375 
Q 16.5 21.390625 20.328125 13.890625 
Q 24.171875 6.390625 31.78125 6.390625 
Q 39.453125 6.390625 43.28125 13.890625 
Q 47.125 21.390625 47.125 36.375 
Q 47.125 51.421875 43.28125 58.90625 
Q 39.453125 66.40625 31.78125 66.40625 
z
M 31.78125 74.21875 
Q 44.046875 74.21875 50.515625 64.515625 
Q 56.984375 54.828125 56.984375 36.375 
Q 56.984375 17.96875 50.515625 8.265625 
Q 44.046875 -1.421875 31.78125 -1.421875 
Q 19.53125 -1.421875 13.0625 8.265625 
Q 6.59375 17.96875 6.59375 36.375 
Q 6.59375 54.828125 13.0625 64.515625 
Q 19.53125 74.21875 31.78125 74.21875 
z
" id="DejaVuSans-48"/>
       </defs>
       <use xlink:href="#DejaVuSans-8722"/>
       <use x="83.789062" xlink:href="#DejaVuSans-49"/>
       <use x="147.412109" xlink:href="#DejaVuSans-48"/>
       <use x="211.035156" xlink:href="#DejaVuSans-48"/>
      </g>
     </g>
    </g>
    <g id="xtick_2">
     <g id="line2d_2">
      <g>
       <use style="stroke:#000000;stroke-width:0.8;" x="137.918675" xlink:href="#m27eade6f6c" y="307.584"/>
      </g>
     </g>
     <g id="text_2">
      <!-- −50 -->
      <g transform="translate(127.366331 322.182437)scale(0.1 -0.1)">
       <defs>
        <path d="M 10.796875 72.90625 
L 49.515625 72.90625 
L 49.515625 64.59375 
L 19.828125 64.59375 
L 19.828125 46.734375 
Q 21.96875 47.46875 24.109375 47.828125 
Q 26.265625 48.1875 28.421875 48.1875 
Q 40.625 48.1875 47.75 41.5 
Q 54.890625 34.8125 54.890625 23.390625 
Q 54.890625 11.625 47.5625 5.09375 
Q 40.234375 -1.421875 26.90625 -1.421875 
Q 22.3125 -1.421875 17.546875 -0.640625 
Q 12.796875 0.140625 7.71875 1.703125 
L 7.71875 11.625 
Q 12.109375 9.234375 16.796875 8.0625 
Q 21.484375 6.890625 26.703125 6.890625 
Q 35.15625 6.890625 40.078125 11.328125 
Q 45.015625 15.765625 45.015625 23.390625 
Q 45.015625 31 40.078125 35.4375 
Q 35.15625 39.890625 26.703125 39.890625 
Q 22.75 39.890625 18.8125 39.015625 
Q 14.890625 38.140625 10.796875 36.28125 
z
" id="DejaVuSans-53"/>
       </defs>
       <use xlink:href="#DejaVuSans-8722"/>
       <use x="83.789062" xlink:href="#DejaVuSans-53"/>
       <use x="147.412109" xlink:href="#DejaVuSans-48"/>
      </g>
     </g>
    </g>
    <g id="xtick_3">
     <g id="line2d_3">
      <g>
       <use style="stroke:#000000;stroke-width:0.8;" x="208.467702" xlink:href="#m27eade6f6c" y="307.584"/>
      </g>
     </g>
     <g id="text_3">
      <!-- 0 -->
      <g transform="translate(205.286452 322.182437)scale(0.1 -0.1)">
       <use xlink:href="#DejaVuSans-48"/>
      </g>
     </g>
    </g>
    <g id="xtick_4">
     <g id="line2d_4">
      <g>
       <use style="stroke:#000000;stroke-width:0.8;" x="279.016729" xlink:href="#m27eade6f6c" y="307.584"/>
      </g>
     </g>
     <g id="text_4">
      <!-- 50 -->
      <g transform="translate(272.654229 322.182437)scale(0.1 -0.1)">
       <use xlink:href="#DejaVuSans-53"/>
       <use x="63.623047" xlink:href="#DejaVuSans-48"/>
      </g>
     </g>
    </g>
    <g id="xtick_5">
     <g id="line2d_5">
      <g>
       <use style="stroke:#000000;stroke-width:0.8;" x="349.565756" xlink:href="#m27eade6f6c" y="307.584"/>
      </g>
     </g>
     <g id="text_5">
      <!-- 100 -->
      <g transform="translate(340.022006 322.182437)scale(0.1 -0.1)">
       <use xlink:href="#DejaVuSans-49"/>
       <use x="63.623047" xlink:href="#DejaVuSans-48"/>
       <use x="127.246094" xlink:href="#DejaVuSans-48"/>
      </g>
     </g>
    </g>
   </g>
   <g id="matplotlib.axis_2">
    <g id="ytick_1">
     <g id="line2d_6">
      <defs>
       <path d="M 0 0 
L -3.5 0 
" id="m1f7bd71c41" style="stroke:#000000;stroke-width:0.8;"/>
      </defs>
      <g>
       <use style="stroke:#000000;stroke-width:0.8;" x="57.6" xlink:href="#m1f7bd71c41" y="273.890423"/>
      </g>
     </g>
     <g id="text_6">
      <!-- 25 -->
      <g transform="translate(37.875 277.689642)scale(0.1 -0.1)">
       <defs>
        <path d="M 19.1875 8.296875 
L 53.609375 8.296875 
L 53.609375 0 
L 7.328125 0 
L 7.328125 8.296875 
Q 12.9375 14.109375 22.625 23.890625 
Q 32.328125 33.6875 34.8125 36.53125 
Q 39.546875 41.84375 41.421875 45.53125 
Q 43.3125 49.21875 43.3125 52.78125 
Q 43.3125 58.59375 39.234375 62.25 
Q 35.15625 65.921875 28.609375 65.921875 
Q 23.96875 65.921875 18.8125 64.3125 
Q 13.671875 62.703125 7.8125 59.421875 
L 7.8125 69.390625 
Q 13.765625 71.78125 18.9375 73 
Q 24.125 74.21875 28.421875 74.21875 
Q 39.75 74.21875 46.484375 68.546875 
Q 53.21875 62.890625 53.21875 53.421875 
Q 53.21875 48.921875 51.53125 44.890625 
Q 49.859375 40.875 45.40625 35.40625 
Q 44.1875 33.984375 37.640625 27.21875 
Q 31.109375 20.453125 19.1875 8.296875 
z
" id="DejaVuSans-50"/>
       </defs>
       <use xlink:href="#DejaVuSans-50"/>
       <use x="63.623047" xlink:href="#DejaVuSans-53"/>
      </g>
     </g>
    </g>
    <g id="ytick_2">
     <g id="line2d_7">
      <g>
       <use style="stroke:#000000;stroke-width:0.8;" x="57.6" xlink:href="#m1f7bd71c41" y="238.615909"/>
      </g>
     </g>
     <g id="text_7">
      <!-- 50 -->
      <g transform="translate(37.875 242.415128)scale(0.1 -0.1)">
       <use xlink:href="#DejaVuSans-53"/>
       <use x="63.623047" xlink:href="#DejaVuSans-48"/>
      </g>
     </g>
    </g>
    <g id="ytick_3">
     <g id="line2d_8">
      <g>
       <use style="stroke:#000000;stroke-width:0.8;" x="57.6" xlink:href="#m1f7bd71c41" y="203.341396"/>
      </g>
     </g>
     <g id="text_8">
      <!-- 75 -->
      <g transform="translate(37.875 207.140614)scale(0.1 -0.1)">
       <defs>
        <path d="M 8.203125 72.90625 
L 55.078125 72.90625 
L 55.078125 68.703125 
L 28.609375 0 
L 18.3125 0 
L 43.21875 64.59375 
L 8.203125 64.59375 
z
" id="DejaVuSans-55"/>
       </defs>
       <use xlink:href="#DejaVuSans-55"/>
       <use x="63.623047" xlink:href="#DejaVuSans-53"/>
      </g>
     </g>
    </g>
    <g id="ytick_4">
     <g id="line2d_9">
      <g>
       <use style="stroke:#000000;stroke-width:0.8;" x="57.6" xlink:href="#m1f7bd71c41" y="168.066882"/>
      </g>
     </g>
     <g id="text_9">
      <!-- 100 -->
      <g transform="translate(31.5125 171.866101)scale(0.1 -0.1)">
       <use xlink:href="#DejaVuSans-49"/>
       <use x="63.623047" xlink:href="#DejaVuSans-48"/>
       <use x="127.246094" xlink:href="#DejaVuSans-48"/>
      </g>
     </g>
    </g>
    <g id="ytick_5">
     <g id="line2d_10">
      <g>
       <use style="stroke:#000000;stroke-width:0.8;" x="57.6" xlink:href="#m1f7bd71c41" y="132.792369"/>
      </g>
     </g>
     <g id="text_10">
      <!-- 125 -->
      <g transform="translate(31.5125 136.591587)scale(0.1 -0.1)">
       <use xlink:href="#DejaVuSans-49"/>
       <use x="63.623047" xlink:href="#DejaVuSans-50"/>
       <use x="127.246094" xlink:href="#DejaVuSans-53"/>
      </g>
     </g>
    </g>
    <g id="ytick_6">
     <g id="line2d_11">
      <g>
       <use style="stroke:#000000;stroke-width:0.8;" x="57.6" xlink:href="#m1f7bd71c41" y="97.517855"/>
      </g>
     </g>
     <g id="text_11">
      <!-- 150 -->
      <g transform="translate(31.5125 101.317074)scale(0.1 -0.1)">
       <use xlink:href="#DejaVuSans-49"/>
       <use x="63.623047" xlink:href="#DejaVuSans-53"/>
       <use x="127.246094" xlink:href="#DejaVuSans-48"/>
      </g>
     </g>
    </g>
    <g id="ytick_7">
     <g id="line2d_12">
      <g>
       <use style="stroke:#000000;stroke-width:0.8;" x="57.6" xlink:href="#m1f7bd71c41" y="62.243341"/>
      </g>
     </g>
     <g id="text_12">
      <!-- 175 -->
      <g transform="translate(31.5125 66.04256)scale(0.1 -0.1)">
       <use xlink:href="#DejaVuSans-49"/>
       <use x="63.623047" xlink:href="#DejaVuSans-55"/>
       <use x="127.246094" xlink:href="#DejaVuSans-53"/>
      </g>
     </g>
    </g>
   </g>
   <g id="line2d_13">
    <path clip-path="url(#p7221ae691a)" d="M 242.506197 295.055131 
L 242.740419 290.817956 
L 242.740419 286.585015 
L 242.441291 279.535756 
L 242.049039 271.076928 
L 242.025052 266.843986 
L 242.209891 262.611044 
L 242.61202 258.389391 
L 243.222975 254.197367 
L 244.034288 250.047674 
L 246.386393 239.002518 
L 246.963484 234.77522 
L 247.15961 231.939149 
L 247.165254 229.107311 
L 246.946552 226.292405 
L 246.472463 223.512774 
L 245.741575 220.779704 
L 244.779286 218.107307 
L 243.615227 215.508281 
L 242.276207 212.996736 
L 240.790444 210.58537 
L 238.355092 207.131289 
L 234.005039 201.572026 
L 230.55378 197.054066 
L 228.183333 193.520971 
L 226.786462 191.071509 
L 225.587129 188.531744 
L 224.616374 185.89321 
L 223.857267 183.174251 
L 223.282998 180.394619 
L 222.707318 176.163088 
L 222.39408 171.918859 
L 222.30801 167.685917 
L 222.446286 163.457209 
L 222.807497 159.225678 
L 223.417041 155.009668 
L 223.995543 152.234269 
L 224.736308 149.508255 
L 225.659089 146.849968 
L 226.777996 144.269284 
L 228.746314 140.524542 
L 230.940389 136.882801 
L 243.695653 116.556215 
L 245.695013 112.819939 
L 246.883058 110.2449 
L 247.922951 107.589434 
L 248.78506 104.867653 
L 249.439755 102.096487 
L 249.858816 99.297101 
L 250.012613 96.486428 
L 249.885625 93.684221 
L 249.520181 90.890479 
L 248.969898 88.110848 
L 247.915896 83.96962 
L 245.919358 77.157406 
L 244.121769 71.818255 
L 242.588033 67.897141 
L 240.849705 64.060684 
L 238.863045 60.320175 
L 237.380104 57.886234 
L 236.585722 56.689722 
L 236.585722 56.689722 
" style="fill:none;stroke:#fea952;stroke-linecap:square;"/>
   </g>
   <g id="line2d_14">
    <path clip-path="url(#p7221ae691a)" d="M 236.878899 294.622262 
L 237.097132 290.733307 
L 237.098557 286.737497 
L 236.805903 279.846013 
L 236.406245 271.189783 
L 236.383037 266.697294 
L 236.583093 262.171715 
L 237.014411 257.667846 
L 237.669189 253.192719 
L 238.52159 248.837707 
L 240.81332 238.11105 
L 241.339641 234.299572 
L 241.516808 231.826743 
L 241.530161 229.422877 
L 241.361638 227.106401 
L 240.988867 224.848449 
L 240.394619 222.586336 
L 239.588237 220.322453 
L 238.594273 218.085853 
L 237.42966 215.888939 
L 235.396761 212.676854 
L 233.047404 209.472246 
L 225.053572 199.046787 
L 223.331309 196.403976 
L 221.734988 193.588742 
L 220.333695 190.594581 
L 219.208769 187.509276 
L 218.347743 184.398589 
L 217.710519 181.289796 
L 217.086942 176.678103 
L 216.75422 172.13296 
L 216.664724 167.601183 
L 216.815394 163.073925 
L 217.205196 158.541513 
L 217.876968 153.931964 
L 218.525813 150.842897 
L 219.371369 147.755746 
L 220.441804 144.697342 
L 221.715297 141.774703 
L 223.129942 139.006282 
L 225.397093 135.111663 
L 230.740514 126.686978 
L 238.107331 114.939926 
L 240.023072 111.521373 
L 241.661126 108.103572 
L 242.572574 105.792957 
L 243.317962 103.465976 
L 243.877247 101.141309 
L 244.232564 98.850843 
L 244.36995 96.605639 
L 244.276153 94.306867 
L 243.969015 91.909507 
L 243.175798 88.129697 
L 241.723479 82.811086 
L 239.71021 76.300855 
L 237.897525 71.335311 
L 236.361333 67.759846 
L 234.63388 64.316704 
L 232.678114 61.007956 
L 231.883732 59.811444 
L 231.883732 59.811444 
" style="fill:none;stroke:#ffffff;stroke-linecap:square;"/>
   </g>
   <g id="line2d_15">
    <path clip-path="url(#p7221ae691a)" d="M 248.133494 295.488 
L 248.383707 290.902606 
L 248.382281 286.432532 
L 248.076679 279.225499 
L 247.691833 270.964072 
L 247.667068 266.990678 
L 247.836688 263.050374 
L 248.209629 259.110935 
L 248.776761 255.202016 
L 249.842685 249.91007 
L 251.689912 241.397707 
L 252.414515 236.816769 
L 252.71921 233.660003 
L 252.831034 230.432504 
L 252.702431 227.137534 
L 252.282413 223.815366 
L 251.556477 220.560455 
L 250.55857 217.418378 
L 249.329669 214.399868 
L 247.903187 211.508851 
L 246.312038 208.750433 
L 244.609473 206.15448 
L 241.961137 202.546874 
L 234.414429 192.738872 
L 232.414285 189.599776 
L 231.313251 187.512647 
L 230.411185 185.389831 
L 229.675423 183.123755 
L 229.093277 180.730684 
L 228.4752 176.946444 
L 228.108223 173.017724 
L 227.95614 169.078538 
L 228.012603 165.148904 
L 228.276386 161.214923 
L 228.749493 157.341354 
L 229.465272 153.625642 
L 230.101246 151.260764 
L 230.876374 149.002593 
L 231.840695 146.763866 
L 233.62325 143.365203 
L 235.713462 139.894717 
L 248.615963 119.321068 
L 250.786207 115.255836 
L 252.10499 112.386227 
L 253.273327 109.385911 
L 254.252158 106.269329 
L 255.002263 103.051665 
L 255.485068 99.74336 
L 255.655276 96.367217 
L 255.495096 93.061575 
L 255.071346 89.871452 
L 254.462317 86.811927 
L 253.351428 82.450129 
L 251.298485 75.448941 
L 249.409824 69.845862 
L 247.772972 65.66773 
L 245.893251 61.527603 
L 243.720373 57.446116 
L 242.082094 54.764511 
L 241.287712 53.568 
L 241.287712 53.568 
" style="fill:none;stroke:#ffffff;stroke-linecap:square;"/>
   </g>
   <g id="patch_3">
    <path d="M 57.6 307.584 
L 57.6 41.472 
" style="fill:none;stroke:#000000;stroke-linecap:square;stroke-linejoin:miter;stroke-width:0.8;"/>
   </g>
   <g id="patch_4">
    <path d="M 414.72 307.584 
L 414.72 41.472 
" style="fill:none;stroke:#000000;stroke-linecap:square;stroke-linejoin:miter;stroke-width:0.8;"/>
   </g>
   <g id="patch_5">
    <path d="M 57.6 307.584 
L 414.72 307.584 
" style="fill:none;stroke:#000000;stroke-linecap:square;stroke-linejoin:miter;stroke-width:0.8;"/>
   </g>
   <g id="patch_6">
    <path d="M 57.6 41.472 
L 414.72 41.472 
" style="fill:none;stroke:#000000;stroke-linecap:square;stroke-linejoin:miter;stroke-width:0.8;"/>
   </g>
  </g>
 </g>
 <defs>
  <clipPath id="p7221ae691a">
   <rect height="266.112" width="357.12" x="57.6" y="41.472"/>
  </clipPath>
 </defs>
</svg>
