<?xml version="1.0" encoding="utf-8" standalone="no"?>
<!DOCTYPE svg PUBLIC "-//W3C//DTD SVG 1.1//EN"
  "http://www.w3.org/Graphics/SVG/1.1/DTD/svg11.dtd">
<!-- Created with matplotlib (https://matplotlib.org/) -->
<svg height="345.6pt" version="1.1" viewBox="0 0 460.8 345.6" width="460.8pt" xmlns="http://www.w3.org/2000/svg" xmlns:xlink="http://www.w3.org/1999/xlink">
 <metadata>
  <rdf:RDF xmlns:cc="http://creativecommons.org/ns#" xmlns:dc="http://purl.org/dc/elements/1.1/" xmlns:rdf="http://www.w3.org/1999/02/22-rdf-syntax-ns#">
   <cc:Work>
    <dc:type rdf:resource="http://purl.org/dc/dcmitype/StillImage"/>
    <dc:date>2021-01-22T09:27:28.279447</dc:date>
    <dc:format>image/svg+xml</dc:format>
    <dc:creator>
     <cc:Agent>
      <dc:title>Matplotlib v3.3.3, https://matplotlib.org/</dc:title>
     </cc:Agent>
    </dc:creator>
   </cc:Work>
  </rdf:RDF>
 </metadata>
 <defs>
  <style type="text/css">*{stroke-linecap:butt;stroke-linejoin:round;}</style>
 </defs>
 <g id="figure_1">
  <g id="patch_1">
   <path d="M 0 345.6 
L 460.8 345.6 
L 460.8 0 
L 0 0 
z
" style="fill:#ffffff;"/>
  </g>
  <g id="axes_1">
   <g id="patch_2">
    <path d="M 57.6 307.584 
L 414.72 307.584 
L 414.72 41.472 
L 57.6 41.472 
z
" style="fill:#7d9051;"/>
   </g>
   <g id="matplotlib.axis_1">
    <g id="xtick_1">
     <g id="line2d_1">
      <defs>
       <path d="M 0 0 
L 0 3.5 
" id="m8501a0e19d" style="stroke:#000000;stroke-width:0.8;"/>
      </defs>
      <g>
       <use style="stroke:#000000;stroke-width:0.8;" x="76.111377" xlink:href="#m8501a0e19d" y="307.584"/>
      </g>
     </g>
     <g id="text_1">
      <!-- 0 -->
      <g transform="translate(72.930127 322.182437)scale(0.1 -0.1)">
       <defs>
        <path d="M 31.78125 66.40625 
Q 24.171875 66.40625 20.328125 58.90625 
Q 16.5 51.421875 16.5 36.375 
Q 16.5 21.390625 20.328125 13.890625 
Q 24.171875 6.390625 31.78125 6.390625 
Q 39.453125 6.390625 43.28125 13.890625 
Q 47.125 21.390625 47.125 36.375 
Q 47.125 51.421875 43.28125 58.90625 
Q 39.453125 66.40625 31.78125 66.40625 
z
M 31.78125 74.21875 
Q 44.046875 74.21875 50.515625 64.515625 
Q 56.984375 54.828125 56.984375 36.375 
Q 56.984375 17.96875 50.515625 8.265625 
Q 44.046875 -1.421875 31.78125 -1.421875 
Q 19.53125 -1.421875 13.0625 8.265625 
Q 6.59375 17.96875 6.59375 36.375 
Q 6.59375 54.828125 13.0625 64.515625 
Q 19.53125 74.21875 31.78125 74.21875 
z
" id="DejaVuSans-48"/>
       </defs>
       <use xlink:href="#DejaVuSans-48"/>
      </g>
     </g>
    </g>
    <g id="xtick_2">
     <g id="line2d_2">
      <g>
       <use style="stroke:#000000;stroke-width:0.8;" x="144.742995" xlink:href="#m8501a0e19d" y="307.584"/>
      </g>
     </g>
     <g id="text_2">
      <!-- 20 -->
      <g transform="translate(138.380495 322.182437)scale(0.1 -0.1)">
       <defs>
        <path d="M 19.1875 8.296875 
L 53.609375 8.296875 
L 53.609375 0 
L 7.328125 0 
L 7.328125 8.296875 
Q 12.9375 14.109375 22.625 23.890625 
Q 32.328125 33.6875 34.8125 36.53125 
Q 39.546875 41.84375 41.421875 45.53125 
Q 43.3125 49.21875 43.3125 52.78125 
Q 43.3125 58.59375 39.234375 62.25 
Q 35.15625 65.921875 28.609375 65.921875 
Q 23.96875 65.921875 18.8125 64.3125 
Q 13.671875 62.703125 7.8125 59.421875 
L 7.8125 69.390625 
Q 13.765625 71.78125 18.9375 73 
Q 24.125 74.21875 28.421875 74.21875 
Q 39.75 74.21875 46.484375 68.546875 
Q 53.21875 62.890625 53.21875 53.421875 
Q 53.21875 48.921875 51.53125 44.890625 
Q 49.859375 40.875 45.40625 35.40625 
Q 44.1875 33.984375 37.640625 27.21875 
Q 31.109375 20.453125 19.1875 8.296875 
z
" id="DejaVuSans-50"/>
       </defs>
       <use xlink:href="#DejaVuSans-50"/>
       <use x="63.623047" xlink:href="#DejaVuSans-48"/>
      </g>
     </g>
    </g>
    <g id="xtick_3">
     <g id="line2d_3">
      <g>
       <use style="stroke:#000000;stroke-width:0.8;" x="213.374613" xlink:href="#m8501a0e19d" y="307.584"/>
      </g>
     </g>
     <g id="text_3">
      <!-- 40 -->
      <g transform="translate(207.012113 322.182437)scale(0.1 -0.1)">
       <defs>
        <path d="M 37.796875 64.3125 
L 12.890625 25.390625 
L 37.796875 25.390625 
z
M 35.203125 72.90625 
L 47.609375 72.90625 
L 47.609375 25.390625 
L 58.015625 25.390625 
L 58.015625 17.1875 
L 47.609375 17.1875 
L 47.609375 0 
L 37.796875 0 
L 37.796875 17.1875 
L 4.890625 17.1875 
L 4.890625 26.703125 
z
" id="DejaVuSans-52"/>
       </defs>
       <use xlink:href="#DejaVuSans-52"/>
       <use x="63.623047" xlink:href="#DejaVuSans-48"/>
      </g>
     </g>
    </g>
    <g id="xtick_4">
     <g id="line2d_4">
      <g>
       <use style="stroke:#000000;stroke-width:0.8;" x="282.00623" xlink:href="#m8501a0e19d" y="307.584"/>
      </g>
     </g>
     <g id="text_4">
      <!-- 60 -->
      <g transform="translate(275.64373 322.182437)scale(0.1 -0.1)">
       <defs>
        <path d="M 33.015625 40.375 
Q 26.375 40.375 22.484375 35.828125 
Q 18.609375 31.296875 18.609375 23.390625 
Q 18.609375 15.53125 22.484375 10.953125 
Q 26.375 6.390625 33.015625 6.390625 
Q 39.65625 6.390625 43.53125 10.953125 
Q 47.40625 15.53125 47.40625 23.390625 
Q 47.40625 31.296875 43.53125 35.828125 
Q 39.65625 40.375 33.015625 40.375 
z
M 52.59375 71.296875 
L 52.59375 62.3125 
Q 48.875 64.0625 45.09375 64.984375 
Q 41.3125 65.921875 37.59375 65.921875 
Q 27.828125 65.921875 22.671875 59.328125 
Q 17.53125 52.734375 16.796875 39.40625 
Q 19.671875 43.65625 24.015625 45.921875 
Q 28.375 48.1875 33.59375 48.1875 
Q 44.578125 48.1875 50.953125 41.515625 
Q 57.328125 34.859375 57.328125 23.390625 
Q 57.328125 12.15625 50.6875 5.359375 
Q 44.046875 -1.421875 33.015625 -1.421875 
Q 20.359375 -1.421875 13.671875 8.265625 
Q 6.984375 17.96875 6.984375 36.375 
Q 6.984375 53.65625 15.1875 63.9375 
Q 23.390625 74.21875 37.203125 74.21875 
Q 40.921875 74.21875 44.703125 73.484375 
Q 48.484375 72.75 52.59375 71.296875 
z
" id="DejaVuSans-54"/>
       </defs>
       <use xlink:href="#DejaVuSans-54"/>
       <use x="63.623047" xlink:href="#DejaVuSans-48"/>
      </g>
     </g>
    </g>
    <g id="xtick_5">
     <g id="line2d_5">
      <g>
       <use style="stroke:#000000;stroke-width:0.8;" x="350.637848" xlink:href="#m8501a0e19d" y="307.584"/>
      </g>
     </g>
     <g id="text_5">
      <!-- 80 -->
      <g transform="translate(344.275348 322.182437)scale(0.1 -0.1)">
       <defs>
        <path d="M 31.78125 34.625 
Q 24.75 34.625 20.71875 30.859375 
Q 16.703125 27.09375 16.703125 20.515625 
Q 16.703125 13.921875 20.71875 10.15625 
Q 24.75 6.390625 31.78125 6.390625 
Q 38.8125 6.390625 42.859375 10.171875 
Q 46.921875 13.96875 46.921875 20.515625 
Q 46.921875 27.09375 42.890625 30.859375 
Q 38.875 34.625 31.78125 34.625 
z
M 21.921875 38.8125 
Q 15.578125 40.375 12.03125 44.71875 
Q 8.5 49.078125 8.5 55.328125 
Q 8.5 64.0625 14.71875 69.140625 
Q 20.953125 74.21875 31.78125 74.21875 
Q 42.671875 74.21875 48.875 69.140625 
Q 55.078125 64.0625 55.078125 55.328125 
Q 55.078125 49.078125 51.53125 44.71875 
Q 48 40.375 41.703125 38.8125 
Q 48.828125 37.15625 52.796875 32.3125 
Q 56.78125 27.484375 56.78125 20.515625 
Q 56.78125 9.90625 50.3125 4.234375 
Q 43.84375 -1.421875 31.78125 -1.421875 
Q 19.734375 -1.421875 13.25 4.234375 
Q 6.78125 9.90625 6.78125 20.515625 
Q 6.78125 27.484375 10.78125 32.3125 
Q 14.796875 37.15625 21.921875 38.8125 
z
M 18.3125 54.390625 
Q 18.3125 48.734375 21.84375 45.5625 
Q 25.390625 42.390625 31.78125 42.390625 
Q 38.140625 42.390625 41.71875 45.5625 
Q 45.3125 48.734375 45.3125 54.390625 
Q 45.3125 60.0625 41.71875 63.234375 
Q 38.140625 66.40625 31.78125 66.40625 
Q 25.390625 66.40625 21.84375 63.234375 
Q 18.3125 60.0625 18.3125 54.390625 
z
" id="DejaVuSans-56"/>
       </defs>
       <use xlink:href="#DejaVuSans-56"/>
       <use x="63.623047" xlink:href="#DejaVuSans-48"/>
      </g>
     </g>
    </g>
   </g>
   <g id="matplotlib.axis_2">
    <g id="ytick_1">
     <g id="line2d_6">
      <defs>
       <path d="M 0 0 
L -3.5 0 
" id="m7c4c052041" style="stroke:#000000;stroke-width:0.8;"/>
      </defs>
      <g>
       <use style="stroke:#000000;stroke-width:0.8;" x="57.6" xlink:href="#m7c4c052041" y="283.263861"/>
      </g>
     </g>
     <g id="text_6">
      <!-- 10 -->
      <g transform="translate(37.875 287.063079)scale(0.1 -0.1)">
       <defs>
        <path d="M 12.40625 8.296875 
L 28.515625 8.296875 
L 28.515625 63.921875 
L 10.984375 60.40625 
L 10.984375 69.390625 
L 28.421875 72.90625 
L 38.28125 72.90625 
L 38.28125 8.296875 
L 54.390625 8.296875 
L 54.390625 0 
L 12.40625 0 
z
" id="DejaVuSans-49"/>
       </defs>
       <use xlink:href="#DejaVuSans-49"/>
       <use x="63.623047" xlink:href="#DejaVuSans-48"/>
      </g>
     </g>
    </g>
    <g id="ytick_2">
     <g id="line2d_7">
      <g>
       <use style="stroke:#000000;stroke-width:0.8;" x="57.6" xlink:href="#m7c4c052041" y="248.948052"/>
      </g>
     </g>
     <g id="text_7">
      <!-- 20 -->
      <g transform="translate(37.875 252.74727)scale(0.1 -0.1)">
       <use xlink:href="#DejaVuSans-50"/>
       <use x="63.623047" xlink:href="#DejaVuSans-48"/>
      </g>
     </g>
    </g>
    <g id="ytick_3">
     <g id="line2d_8">
      <g>
       <use style="stroke:#000000;stroke-width:0.8;" x="57.6" xlink:href="#m7c4c052041" y="214.632243"/>
      </g>
     </g>
     <g id="text_8">
      <!-- 30 -->
      <g transform="translate(37.875 218.431462)scale(0.1 -0.1)">
       <defs>
        <path d="M 40.578125 39.3125 
Q 47.65625 37.796875 51.625 33 
Q 55.609375 28.21875 55.609375 21.1875 
Q 55.609375 10.40625 48.1875 4.484375 
Q 40.765625 -1.421875 27.09375 -1.421875 
Q 22.515625 -1.421875 17.65625 -0.515625 
Q 12.796875 0.390625 7.625 2.203125 
L 7.625 11.71875 
Q 11.71875 9.328125 16.59375 8.109375 
Q 21.484375 6.890625 26.8125 6.890625 
Q 36.078125 6.890625 40.9375 10.546875 
Q 45.796875 14.203125 45.796875 21.1875 
Q 45.796875 27.640625 41.28125 31.265625 
Q 36.765625 34.90625 28.71875 34.90625 
L 20.21875 34.90625 
L 20.21875 43.015625 
L 29.109375 43.015625 
Q 36.375 43.015625 40.234375 45.921875 
Q 44.09375 48.828125 44.09375 54.296875 
Q 44.09375 59.90625 40.109375 62.90625 
Q 36.140625 65.921875 28.71875 65.921875 
Q 24.65625 65.921875 20.015625 65.03125 
Q 15.375 64.15625 9.8125 62.3125 
L 9.8125 71.09375 
Q 15.4375 72.65625 20.34375 73.4375 
Q 25.25 74.21875 29.59375 74.21875 
Q 40.828125 74.21875 47.359375 69.109375 
Q 53.90625 64.015625 53.90625 55.328125 
Q 53.90625 49.265625 50.4375 45.09375 
Q 46.96875 40.921875 40.578125 39.3125 
z
" id="DejaVuSans-51"/>
       </defs>
       <use xlink:href="#DejaVuSans-51"/>
       <use x="63.623047" xlink:href="#DejaVuSans-48"/>
      </g>
     </g>
    </g>
    <g id="ytick_4">
     <g id="line2d_9">
      <g>
       <use style="stroke:#000000;stroke-width:0.8;" x="57.6" xlink:href="#m7c4c052041" y="180.316434"/>
      </g>
     </g>
     <g id="text_9">
      <!-- 40 -->
      <g transform="translate(37.875 184.115653)scale(0.1 -0.1)">
       <use xlink:href="#DejaVuSans-52"/>
       <use x="63.623047" xlink:href="#DejaVuSans-48"/>
      </g>
     </g>
    </g>
    <g id="ytick_5">
     <g id="line2d_10">
      <g>
       <use style="stroke:#000000;stroke-width:0.8;" x="57.6" xlink:href="#m7c4c052041" y="146.000625"/>
      </g>
     </g>
     <g id="text_10">
      <!-- 50 -->
      <g transform="translate(37.875 149.799844)scale(0.1 -0.1)">
       <defs>
        <path d="M 10.796875 72.90625 
L 49.515625 72.90625 
L 49.515625 64.59375 
L 19.828125 64.59375 
L 19.828125 46.734375 
Q 21.96875 47.46875 24.109375 47.828125 
Q 26.265625 48.1875 28.421875 48.1875 
Q 40.625 48.1875 47.75 41.5 
Q 54.890625 34.8125 54.890625 23.390625 
Q 54.890625 11.625 47.5625 5.09375 
Q 40.234375 -1.421875 26.90625 -1.421875 
Q 22.3125 -1.421875 17.546875 -0.640625 
Q 12.796875 0.140625 7.71875 1.703125 
L 7.71875 11.625 
Q 12.109375 9.234375 16.796875 8.0625 
Q 21.484375 6.890625 26.703125 6.890625 
Q 35.15625 6.890625 40.078125 11.328125 
Q 45.015625 15.765625 45.015625 23.390625 
Q 45.015625 31 40.078125 35.4375 
Q 35.15625 39.890625 26.703125 39.890625 
Q 22.75 39.890625 18.8125 39.015625 
Q 14.890625 38.140625 10.796875 36.28125 
z
" id="DejaVuSans-53"/>
       </defs>
       <use xlink:href="#DejaVuSans-53"/>
       <use x="63.623047" xlink:href="#DejaVuSans-48"/>
      </g>
     </g>
    </g>
    <g id="ytick_6">
     <g id="line2d_11">
      <g>
       <use style="stroke:#000000;stroke-width:0.8;" x="57.6" xlink:href="#m7c4c052041" y="111.684816"/>
      </g>
     </g>
     <g id="text_11">
      <!-- 60 -->
      <g transform="translate(37.875 115.484035)scale(0.1 -0.1)">
       <use xlink:href="#DejaVuSans-54"/>
       <use x="63.623047" xlink:href="#DejaVuSans-48"/>
      </g>
     </g>
    </g>
    <g id="ytick_7">
     <g id="line2d_12">
      <g>
       <use style="stroke:#000000;stroke-width:0.8;" x="57.6" xlink:href="#m7c4c052041" y="77.369008"/>
      </g>
     </g>
     <g id="text_12">
      <!-- 70 -->
      <g transform="translate(37.875 81.168226)scale(0.1 -0.1)">
       <defs>
        <path d="M 8.203125 72.90625 
L 55.078125 72.90625 
L 55.078125 68.703125 
L 28.609375 0 
L 18.3125 0 
L 43.21875 64.59375 
L 8.203125 64.59375 
z
" id="DejaVuSans-55"/>
       </defs>
       <use xlink:href="#DejaVuSans-55"/>
       <use x="63.623047" xlink:href="#DejaVuSans-48"/>
      </g>
     </g>
    </g>
    <g id="ytick_8">
     <g id="line2d_13">
      <g>
       <use style="stroke:#000000;stroke-width:0.8;" x="57.6" xlink:href="#m7c4c052041" y="43.053199"/>
      </g>
     </g>
     <g id="text_13">
      <!-- 80 -->
      <g transform="translate(37.875 46.852417)scale(0.1 -0.1)">
       <use xlink:href="#DejaVuSans-56"/>
       <use x="63.623047" xlink:href="#DejaVuSans-48"/>
      </g>
     </g>
    </g>
   </g>
   <g id="line2d_14">
    <path clip-path="url(#pbd08131778)" d="M 363.338129 184.173531 
L 363.890613 174.14302 
L 364.065624 167.276427 
L 364.010719 160.324044 
L 363.664129 153.340777 
L 362.97095 146.384962 
L 362.476802 142.936223 
L 361.869412 139.511506 
L 361.141917 136.121104 
L 360.290885 132.771881 
L 359.309453 129.4707 
L 358.183894 126.224425 
L 356.910778 123.036486 
L 355.48324 119.92061 
L 353.887555 116.876798 
L 352.127154 113.915344 
L 350.202037 111.043111 
L 348.125931 108.266962 
L 345.902266 105.597192 
L 343.54477 103.040664 
L 341.060306 100.604242 
L 338.455736 98.294788 
L 335.741355 96.126029 
L 332.927459 94.097964 
L 330.017478 92.224321 
L 327.028571 90.505099 
L 323.96417 88.936867 
L 320.831136 87.512761 
L 317.636335 86.222486 
L 314.393491 85.055749 
L 311.102605 84.005685 
L 304.424748 82.221263 
L 297.661102 80.793725 
L 290.870004 79.657872 
L 284.065179 78.738208 
L 273.839068 77.605787 
L 256.794406 75.780186 
L 243.181324 74.030079 
L 229.595695 72.005447 
L 209.232694 68.855255 
L 202.417575 68.052265 
L 195.575003 67.510076 
L 188.704978 67.293886 
L 181.824658 67.441444 
L 174.961496 67.990497 
L 168.136082 68.965066 
L 164.749111 69.620498 
L 161.382731 70.396035 
L 158.040371 71.291678 
L 154.728895 72.310857 
L 151.458599 73.460437 
L 148.239776 74.736985 
L 145.07929 76.150796 
L 141.990867 77.701871 
L 138.974507 79.390209 
L 136.047369 81.222673 
L 133.216315 83.202695 
L 130.488208 85.330275 
L 127.873343 87.612276 
L 125.382016 90.034973 
L 123.021088 92.5915 
L 120.804287 95.278428 
L 118.738475 98.08203 
L 116.833948 100.995442 
L 115.097568 104.011802 
L 113.543062 107.120814 
L 112.177292 110.315616 
L 111.010555 113.585912 
L 110.049712 116.921409 
L 109.298196 120.311811 
L 108.745711 123.746823 
L 108.399122 127.209288 
L 108.251564 130.688911 
L 108.299606 134.171966 
L 108.543248 137.648157 
L 108.982491 141.103759 
L 109.61047 144.521614 
L 110.427186 147.894858 
L 111.429208 151.209765 
L 112.609672 154.462904 
L 113.954851 157.647411 
L 115.461315 160.759855 
L 117.115337 163.800235 
L 118.913486 166.765121 
L 120.838602 169.647649 
L 122.887256 172.444387 
L 125.049152 175.151905 
L 127.313996 177.770201 
L 129.671492 180.292413 
L 132.118209 182.721972 
L 134.650716 185.058879 
L 137.255285 187.309996 
L 142.673752 191.561725 
L 148.332429 195.490885 
L 154.176411 199.121497 
L 160.167951 202.484447 
L 169.313114 207.213165 
L 181.560426 213.407169 
L 187.596577 216.66717 
L 193.536644 220.105614 
L 199.377194 223.712206 
L 205.118229 227.483513 
L 210.766611 231.40581 
L 216.315477 235.468802 
L 232.79736 247.860241 
L 238.425153 251.758516 
L 244.21423 255.402855 
L 250.174886 258.762373 
L 256.279668 261.895406 
L 262.494261 264.849998 
L 271.941404 269.060547 
L 290.880298 277.316931 
L 297.084597 280.213185 
L 303.179084 283.263861 
L 303.179084 283.263861 
" style="fill:none;stroke:#fea952;stroke-linecap:square;"/>
   </g>
   <g id="line2d_15">
    <path clip-path="url(#pbd08131778)" d="M 349.640283 183.289799 
L 350.171818 173.688482 
L 350.339307 167.26285 
L 350.294457 160.849519 
L 349.987953 154.51302 
L 349.383395 148.331836 
L 348.448576 142.39128 
L 347.133705 136.683475 
L 346.340552 133.967317 
L 345.436486 131.315155 
L 344.431792 128.75373 
L 343.326177 126.293817 
L 342.088476 123.890619 
L 340.72506 121.557608 
L 339.209575 119.263679 
L 337.578855 117.051673 
L 335.811444 114.90242 
L 333.93401 112.840932 
L 331.953638 110.874615 
L 329.887584 109.018534 
L 327.715634 107.261547 
L 325.496593 105.638943 
L 323.173506 104.122724 
L 320.775302 102.724288 
L 318.284177 101.432852 
L 315.690909 100.240291 
L 312.989382 99.138282 
L 310.220927 98.132509 
L 304.438662 96.376082 
L 298.374484 94.929743 
L 292.136231 93.75255 
L 285.726232 92.789218 
L 275.821701 91.614475 
L 251.67422 88.987027 
L 237.794861 87.127649 
L 223.999808 85.011238 
L 210.734916 82.923694 
L 204.332335 82.07084 
L 198.066623 81.437995 
L 191.896881 81.079764 
L 185.745227 81.039313 
L 179.689089 81.329174 
L 173.699245 81.978337 
L 167.830627 82.996455 
L 162.078044 84.410716 
L 159.280941 85.260407 
L 156.51888 86.219963 
L 153.844842 87.266757 
L 151.239685 88.417071 
L 148.695105 89.679565 
L 146.258025 91.024741 
L 143.914323 92.470917 
L 141.657594 94.026593 
L 139.513596 95.672148 
L 137.442828 97.452852 
L 135.466089 99.347513 
L 133.609041 101.3269 
L 131.854744 103.42087 
L 130.227706 105.592658 
L 128.73002 107.843465 
L 127.374765 110.1504 
L 126.164447 112.516422 
L 125.10548 114.927981 
L 124.200519 117.38549 
L 123.450765 119.891885 
L 122.850347 122.491527 
L 122.40378 125.113984 
L 122.11312 127.790848 
L 121.976582 130.499601 
L 121.992338 133.212258 
L 122.160009 135.917328 
L 122.48283 138.623275 
L 122.95134 141.291576 
L 123.566355 143.923184 
L 124.332293 146.527633 
L 125.254173 149.121692 
L 126.310039 151.667336 
L 127.518868 154.200328 
L 128.851869 156.682246 
L 130.328201 159.141722 
L 131.911896 161.536292 
L 133.613668 163.879572 
L 135.43051 166.171962 
L 137.341889 168.397191 
L 141.426798 172.63425 
L 145.888321 176.638414 
L 150.64684 180.388461 
L 155.714157 183.918416 
L 161.001328 187.212154 
L 166.590329 190.353288 
L 175.462691 194.941464 
L 187.999199 201.284703 
L 194.380105 204.734203 
L 200.665323 208.375572 
L 206.838586 212.190939 
L 212.877124 216.160461 
L 218.808245 220.281778 
L 224.586285 224.51409 
L 240.719579 236.650851 
L 245.892275 240.240963 
L 251.085102 243.519965 
L 256.548615 246.605583 
L 262.253304 249.537104 
L 268.185591 252.359172 
L 277.392956 256.463225 
L 296.608895 264.843153 
L 303.129173 267.889425 
L 309.422671 271.039721 
L 309.422671 271.039721 
" style="fill:none;stroke:#ffffff;stroke-linecap:square;"/>
   </g>
   <g id="line2d_16">
    <path clip-path="url(#pbd08131778)" d="M 377.035974 185.057263 
L 377.609409 174.597558 
L 377.791941 167.290004 
L 377.72698 159.798568 
L 377.340305 152.168533 
L 376.558504 144.438089 
L 375.99221 140.539202 
L 375.290249 136.631731 
L 374.445479 132.740691 
L 373.448065 128.860287 
L 372.278354 124.974083 
L 370.931303 121.133694 
L 369.389763 117.319242 
L 367.640304 113.547404 
L 365.686634 109.862977 
L 363.529249 106.27308 
L 361.194499 102.822543 
L 358.673007 99.482251 
L 355.993088 96.291964 
L 353.15553 93.240396 
L 350.166974 90.333869 
L 347.023887 87.571041 
L 343.767076 84.990511 
L 340.358325 82.556986 
L 336.861451 80.325918 
L 333.281841 78.28591 
L 329.644163 76.440882 
L 325.971363 74.78523 
L 322.283288 73.30669 
L 318.566055 71.978988 
L 314.850112 70.800832 
L 311.116144 69.747919 
L 303.721661 68.002888 
L 296.405169 66.633848 
L 289.212382 65.55882 
L 278.678417 64.310867 
L 255.106335 61.749765 
L 241.773257 59.964804 
L 228.410779 57.915276 
L 214.525003 55.733933 
L 207.324798 54.781776 
L 199.932817 54.048852 
L 192.389963 53.631545 
L 184.787841 53.603365 
L 180.935211 53.743968 
L 177.090202 53.99982 
L 173.240465 54.372494 
L 169.381175 54.867415 
L 165.528204 55.488756 
L 161.667596 56.244541 
L 157.829875 57.137484 
L 154.002698 58.17264 
L 150.17685 59.361307 
L 146.398317 60.700911 
L 142.634709 62.207213 
L 138.918894 63.884522 
L 135.286629 65.724177 
L 131.69099 67.755677 
L 128.180415 69.974429 
L 124.775036 72.378797 
L 121.46282 74.988402 
L 118.303858 77.771701 
L 115.297942 80.722432 
L 112.433135 83.856101 
L 109.75383 87.135986 
L 107.249244 90.571402 
L 104.937875 94.147419 
L 102.820371 97.873203 
L 100.921676 101.725205 
L 99.249104 105.703251 
L 97.82059 109.786334 
L 96.648659 113.950932 
L 95.746045 118.132094 
L 95.087643 122.379663 
L 94.685124 126.627728 
L 94.526546 130.878222 
L 94.606874 135.131674 
L 94.926487 139.378987 
L 95.482151 143.584243 
L 96.2696 147.751652 
L 97.288017 151.866532 
L 98.526123 155.891897 
L 99.96517 159.804115 
L 101.599663 163.627485 
L 103.403763 167.319381 
L 105.378805 170.918225 
L 107.49877 174.388521 
L 109.765309 177.759007 
L 112.160845 181.009203 
L 114.667794 184.131847 
L 117.286103 187.143211 
L 119.999727 190.032481 
L 122.80962 192.809694 
L 125.675 195.443891 
L 128.62225 197.981577 
L 131.619765 200.398696 
L 134.700664 202.734989 
L 140.9507 207.063354 
L 147.351494 211.030841 
L 153.745573 214.615605 
L 163.163537 219.484866 
L 175.121654 225.529634 
L 180.813049 228.600138 
L 186.407964 231.835657 
L 191.915802 235.233473 
L 197.359334 238.806565 
L 202.724977 242.529842 
L 208.04467 246.423514 
L 224.875142 259.06963 
L 230.958031 263.27607 
L 237.343358 267.285746 
L 243.801157 270.919163 
L 250.306032 274.253708 
L 256.802932 277.340823 
L 266.489851 281.65787 
L 285.151702 289.790709 
L 291.04002 292.536945 
L 296.935498 295.488 
L 296.935498 295.488 
" style="fill:none;stroke:#ffffff;stroke-linecap:square;"/>
   </g>
   <g id="patch_3">
    <path d="M 57.6 307.584 
L 57.6 41.472 
" style="fill:none;stroke:#000000;stroke-linecap:square;stroke-linejoin:miter;stroke-width:0.8;"/>
   </g>
   <g id="patch_4">
    <path d="M 414.72 307.584 
L 414.72 41.472 
" style="fill:none;stroke:#000000;stroke-linecap:square;stroke-linejoin:miter;stroke-width:0.8;"/>
   </g>
   <g id="patch_5">
    <path d="M 57.6 307.584 
L 414.72 307.584 
" style="fill:none;stroke:#000000;stroke-linecap:square;stroke-linejoin:miter;stroke-width:0.8;"/>
   </g>
   <g id="patch_6">
    <path d="M 57.6 41.472 
L 414.72 41.472 
" style="fill:none;stroke:#000000;stroke-linecap:square;stroke-linejoin:miter;stroke-width:0.8;"/>
   </g>
  </g>
 </g>
 <defs>
  <clipPath id="pbd08131778">
   <rect height="266.112" width="357.12" x="57.6" y="41.472"/>
  </clipPath>
 </defs>
</svg>
