<?xml version="1.0" encoding="utf-8" standalone="no"?>
<!DOCTYPE svg PUBLIC "-//W3C//DTD SVG 1.1//EN"
  "http://www.w3.org/Graphics/SVG/1.1/DTD/svg11.dtd">
<!-- Created with matplotlib (https://matplotlib.org/) -->
<svg height="345.6pt" version="1.1" viewBox="0 0 460.8 345.6" width="460.8pt" xmlns="http://www.w3.org/2000/svg" xmlns:xlink="http://www.w3.org/1999/xlink">
 <metadata>
  <rdf:RDF xmlns:cc="http://creativecommons.org/ns#" xmlns:dc="http://purl.org/dc/elements/1.1/" xmlns:rdf="http://www.w3.org/1999/02/22-rdf-syntax-ns#">
   <cc:Work>
    <dc:type rdf:resource="http://purl.org/dc/dcmitype/StillImage"/>
    <dc:date>2021-01-25T11:34:53.739189</dc:date>
    <dc:format>image/svg+xml</dc:format>
    <dc:creator>
     <cc:Agent>
      <dc:title>Matplotlib v3.3.3, https://matplotlib.org/</dc:title>
     </cc:Agent>
    </dc:creator>
   </cc:Work>
  </rdf:RDF>
 </metadata>
 <defs>
  <style type="text/css">*{stroke-linecap:butt;stroke-linejoin:round;}</style>
 </defs>
 <g id="figure_1">
  <g id="patch_1">
   <path d="M 0 345.6 
L 460.8 345.6 
L 460.8 0 
L 0 0 
z
" style="fill:#ffffff;"/>
  </g>
  <g id="axes_1">
   <g id="patch_2">
    <path d="M 57.6 307.584 
L 414.72 307.584 
L 414.72 41.472 
L 57.6 41.472 
z
" style="fill:#7d9051;"/>
   </g>
   <g id="matplotlib.axis_1">
    <g id="xtick_1">
     <g id="line2d_1">
      <defs>
       <path d="M 0 0 
L 0 3.5 
" id="mb2b312a6cf" style="stroke:#000000;stroke-width:0.8;"/>
      </defs>
      <g>
       <use style="stroke:#000000;stroke-width:0.8;" x="95.899744" xlink:href="#mb2b312a6cf" y="307.584"/>
      </g>
     </g>
     <g id="text_1">
      <!-- 0 -->
      <g transform="translate(92.718494 322.182437)scale(0.1 -0.1)">
       <defs>
        <path d="M 31.78125 66.40625 
Q 24.171875 66.40625 20.328125 58.90625 
Q 16.5 51.421875 16.5 36.375 
Q 16.5 21.390625 20.328125 13.890625 
Q 24.171875 6.390625 31.78125 6.390625 
Q 39.453125 6.390625 43.28125 13.890625 
Q 47.125 21.390625 47.125 36.375 
Q 47.125 51.421875 43.28125 58.90625 
Q 39.453125 66.40625 31.78125 66.40625 
z
M 31.78125 74.21875 
Q 44.046875 74.21875 50.515625 64.515625 
Q 56.984375 54.828125 56.984375 36.375 
Q 56.984375 17.96875 50.515625 8.265625 
Q 44.046875 -1.421875 31.78125 -1.421875 
Q 19.53125 -1.421875 13.0625 8.265625 
Q 6.59375 17.96875 6.59375 36.375 
Q 6.59375 54.828125 13.0625 64.515625 
Q 19.53125 74.21875 31.78125 74.21875 
z
" id="DejaVuSans-48"/>
       </defs>
       <use xlink:href="#DejaVuSans-48"/>
      </g>
     </g>
    </g>
    <g id="xtick_2">
     <g id="line2d_2">
      <g>
       <use style="stroke:#000000;stroke-width:0.8;" x="164.122971" xlink:href="#mb2b312a6cf" y="307.584"/>
      </g>
     </g>
     <g id="text_2">
      <!-- 20 -->
      <g transform="translate(157.760471 322.182437)scale(0.1 -0.1)">
       <defs>
        <path d="M 19.1875 8.296875 
L 53.609375 8.296875 
L 53.609375 0 
L 7.328125 0 
L 7.328125 8.296875 
Q 12.9375 14.109375 22.625 23.890625 
Q 32.328125 33.6875 34.8125 36.53125 
Q 39.546875 41.84375 41.421875 45.53125 
Q 43.3125 49.21875 43.3125 52.78125 
Q 43.3125 58.59375 39.234375 62.25 
Q 35.15625 65.921875 28.609375 65.921875 
Q 23.96875 65.921875 18.8125 64.3125 
Q 13.671875 62.703125 7.8125 59.421875 
L 7.8125 69.390625 
Q 13.765625 71.78125 18.9375 73 
Q 24.125 74.21875 28.421875 74.21875 
Q 39.75 74.21875 46.484375 68.546875 
Q 53.21875 62.890625 53.21875 53.421875 
Q 53.21875 48.921875 51.53125 44.890625 
Q 49.859375 40.875 45.40625 35.40625 
Q 44.1875 33.984375 37.640625 27.21875 
Q 31.109375 20.453125 19.1875 8.296875 
z
" id="DejaVuSans-50"/>
       </defs>
       <use xlink:href="#DejaVuSans-50"/>
       <use x="63.623047" xlink:href="#DejaVuSans-48"/>
      </g>
     </g>
    </g>
    <g id="xtick_3">
     <g id="line2d_3">
      <g>
       <use style="stroke:#000000;stroke-width:0.8;" x="232.346198" xlink:href="#mb2b312a6cf" y="307.584"/>
      </g>
     </g>
     <g id="text_3">
      <!-- 40 -->
      <g transform="translate(225.983698 322.182437)scale(0.1 -0.1)">
       <defs>
        <path d="M 37.796875 64.3125 
L 12.890625 25.390625 
L 37.796875 25.390625 
z
M 35.203125 72.90625 
L 47.609375 72.90625 
L 47.609375 25.390625 
L 58.015625 25.390625 
L 58.015625 17.1875 
L 47.609375 17.1875 
L 47.609375 0 
L 37.796875 0 
L 37.796875 17.1875 
L 4.890625 17.1875 
L 4.890625 26.703125 
z
" id="DejaVuSans-52"/>
       </defs>
       <use xlink:href="#DejaVuSans-52"/>
       <use x="63.623047" xlink:href="#DejaVuSans-48"/>
      </g>
     </g>
    </g>
    <g id="xtick_4">
     <g id="line2d_4">
      <g>
       <use style="stroke:#000000;stroke-width:0.8;" x="300.569424" xlink:href="#mb2b312a6cf" y="307.584"/>
      </g>
     </g>
     <g id="text_4">
      <!-- 60 -->
      <g transform="translate(294.206924 322.182437)scale(0.1 -0.1)">
       <defs>
        <path d="M 33.015625 40.375 
Q 26.375 40.375 22.484375 35.828125 
Q 18.609375 31.296875 18.609375 23.390625 
Q 18.609375 15.53125 22.484375 10.953125 
Q 26.375 6.390625 33.015625 6.390625 
Q 39.65625 6.390625 43.53125 10.953125 
Q 47.40625 15.53125 47.40625 23.390625 
Q 47.40625 31.296875 43.53125 35.828125 
Q 39.65625 40.375 33.015625 40.375 
z
M 52.59375 71.296875 
L 52.59375 62.3125 
Q 48.875 64.0625 45.09375 64.984375 
Q 41.3125 65.921875 37.59375 65.921875 
Q 27.828125 65.921875 22.671875 59.328125 
Q 17.53125 52.734375 16.796875 39.40625 
Q 19.671875 43.65625 24.015625 45.921875 
Q 28.375 48.1875 33.59375 48.1875 
Q 44.578125 48.1875 50.953125 41.515625 
Q 57.328125 34.859375 57.328125 23.390625 
Q 57.328125 12.15625 50.6875 5.359375 
Q 44.046875 -1.421875 33.015625 -1.421875 
Q 20.359375 -1.421875 13.671875 8.265625 
Q 6.984375 17.96875 6.984375 36.375 
Q 6.984375 53.65625 15.1875 63.9375 
Q 23.390625 74.21875 37.203125 74.21875 
Q 40.921875 74.21875 44.703125 73.484375 
Q 48.484375 72.75 52.59375 71.296875 
z
" id="DejaVuSans-54"/>
       </defs>
       <use xlink:href="#DejaVuSans-54"/>
       <use x="63.623047" xlink:href="#DejaVuSans-48"/>
      </g>
     </g>
    </g>
    <g id="xtick_5">
     <g id="line2d_5">
      <g>
       <use style="stroke:#000000;stroke-width:0.8;" x="368.792651" xlink:href="#mb2b312a6cf" y="307.584"/>
      </g>
     </g>
     <g id="text_5">
      <!-- 80 -->
      <g transform="translate(362.430151 322.182437)scale(0.1 -0.1)">
       <defs>
        <path d="M 31.78125 34.625 
Q 24.75 34.625 20.71875 30.859375 
Q 16.703125 27.09375 16.703125 20.515625 
Q 16.703125 13.921875 20.71875 10.15625 
Q 24.75 6.390625 31.78125 6.390625 
Q 38.8125 6.390625 42.859375 10.171875 
Q 46.921875 13.96875 46.921875 20.515625 
Q 46.921875 27.09375 42.890625 30.859375 
Q 38.875 34.625 31.78125 34.625 
z
M 21.921875 38.8125 
Q 15.578125 40.375 12.03125 44.71875 
Q 8.5 49.078125 8.5 55.328125 
Q 8.5 64.0625 14.71875 69.140625 
Q 20.953125 74.21875 31.78125 74.21875 
Q 42.671875 74.21875 48.875 69.140625 
Q 55.078125 64.0625 55.078125 55.328125 
Q 55.078125 49.078125 51.53125 44.71875 
Q 48 40.375 41.703125 38.8125 
Q 48.828125 37.15625 52.796875 32.3125 
Q 56.78125 27.484375 56.78125 20.515625 
Q 56.78125 9.90625 50.3125 4.234375 
Q 43.84375 -1.421875 31.78125 -1.421875 
Q 19.734375 -1.421875 13.25 4.234375 
Q 6.78125 9.90625 6.78125 20.515625 
Q 6.78125 27.484375 10.78125 32.3125 
Q 14.796875 37.15625 21.921875 38.8125 
z
M 18.3125 54.390625 
Q 18.3125 48.734375 21.84375 45.5625 
Q 25.390625 42.390625 31.78125 42.390625 
Q 38.140625 42.390625 41.71875 45.5625 
Q 45.3125 48.734375 45.3125 54.390625 
Q 45.3125 60.0625 41.71875 63.234375 
Q 38.140625 66.40625 31.78125 66.40625 
Q 25.390625 66.40625 21.84375 63.234375 
Q 18.3125 60.0625 18.3125 54.390625 
z
" id="DejaVuSans-56"/>
       </defs>
       <use xlink:href="#DejaVuSans-56"/>
       <use x="63.623047" xlink:href="#DejaVuSans-48"/>
      </g>
     </g>
    </g>
   </g>
   <g id="matplotlib.axis_2">
    <g id="ytick_1">
     <g id="line2d_6">
      <defs>
       <path d="M 0 0 
L -3.5 0 
" id="m20da09ce4c" style="stroke:#000000;stroke-width:0.8;"/>
      </defs>
      <g>
       <use style="stroke:#000000;stroke-width:0.8;" x="57.6" xlink:href="#m20da09ce4c" y="279.789842"/>
      </g>
     </g>
     <g id="text_6">
      <!-- 10 -->
      <g transform="translate(37.875 283.589061)scale(0.1 -0.1)">
       <defs>
        <path d="M 12.40625 8.296875 
L 28.515625 8.296875 
L 28.515625 63.921875 
L 10.984375 60.40625 
L 10.984375 69.390625 
L 28.421875 72.90625 
L 38.28125 72.90625 
L 38.28125 8.296875 
L 54.390625 8.296875 
L 54.390625 0 
L 12.40625 0 
z
" id="DejaVuSans-49"/>
       </defs>
       <use xlink:href="#DejaVuSans-49"/>
       <use x="63.623047" xlink:href="#DejaVuSans-48"/>
      </g>
     </g>
    </g>
    <g id="ytick_2">
     <g id="line2d_7">
      <g>
       <use style="stroke:#000000;stroke-width:0.8;" x="57.6" xlink:href="#m20da09ce4c" y="245.678229"/>
      </g>
     </g>
     <g id="text_7">
      <!-- 20 -->
      <g transform="translate(37.875 249.477448)scale(0.1 -0.1)">
       <use xlink:href="#DejaVuSans-50"/>
       <use x="63.623047" xlink:href="#DejaVuSans-48"/>
      </g>
     </g>
    </g>
    <g id="ytick_3">
     <g id="line2d_8">
      <g>
       <use style="stroke:#000000;stroke-width:0.8;" x="57.6" xlink:href="#m20da09ce4c" y="211.566616"/>
      </g>
     </g>
     <g id="text_8">
      <!-- 30 -->
      <g transform="translate(37.875 215.365834)scale(0.1 -0.1)">
       <defs>
        <path d="M 40.578125 39.3125 
Q 47.65625 37.796875 51.625 33 
Q 55.609375 28.21875 55.609375 21.1875 
Q 55.609375 10.40625 48.1875 4.484375 
Q 40.765625 -1.421875 27.09375 -1.421875 
Q 22.515625 -1.421875 17.65625 -0.515625 
Q 12.796875 0.390625 7.625 2.203125 
L 7.625 11.71875 
Q 11.71875 9.328125 16.59375 8.109375 
Q 21.484375 6.890625 26.8125 6.890625 
Q 36.078125 6.890625 40.9375 10.546875 
Q 45.796875 14.203125 45.796875 21.1875 
Q 45.796875 27.640625 41.28125 31.265625 
Q 36.765625 34.90625 28.71875 34.90625 
L 20.21875 34.90625 
L 20.21875 43.015625 
L 29.109375 43.015625 
Q 36.375 43.015625 40.234375 45.921875 
Q 44.09375 48.828125 44.09375 54.296875 
Q 44.09375 59.90625 40.109375 62.90625 
Q 36.140625 65.921875 28.71875 65.921875 
Q 24.65625 65.921875 20.015625 65.03125 
Q 15.375 64.15625 9.8125 62.3125 
L 9.8125 71.09375 
Q 15.4375 72.65625 20.34375 73.4375 
Q 25.25 74.21875 29.59375 74.21875 
Q 40.828125 74.21875 47.359375 69.109375 
Q 53.90625 64.015625 53.90625 55.328125 
Q 53.90625 49.265625 50.4375 45.09375 
Q 46.96875 40.921875 40.578125 39.3125 
z
" id="DejaVuSans-51"/>
       </defs>
       <use xlink:href="#DejaVuSans-51"/>
       <use x="63.623047" xlink:href="#DejaVuSans-48"/>
      </g>
     </g>
    </g>
    <g id="ytick_4">
     <g id="line2d_9">
      <g>
       <use style="stroke:#000000;stroke-width:0.8;" x="57.6" xlink:href="#m20da09ce4c" y="177.455002"/>
      </g>
     </g>
     <g id="text_9">
      <!-- 40 -->
      <g transform="translate(37.875 181.254221)scale(0.1 -0.1)">
       <use xlink:href="#DejaVuSans-52"/>
       <use x="63.623047" xlink:href="#DejaVuSans-48"/>
      </g>
     </g>
    </g>
    <g id="ytick_5">
     <g id="line2d_10">
      <g>
       <use style="stroke:#000000;stroke-width:0.8;" x="57.6" xlink:href="#m20da09ce4c" y="143.343389"/>
      </g>
     </g>
     <g id="text_10">
      <!-- 50 -->
      <g transform="translate(37.875 147.142608)scale(0.1 -0.1)">
       <defs>
        <path d="M 10.796875 72.90625 
L 49.515625 72.90625 
L 49.515625 64.59375 
L 19.828125 64.59375 
L 19.828125 46.734375 
Q 21.96875 47.46875 24.109375 47.828125 
Q 26.265625 48.1875 28.421875 48.1875 
Q 40.625 48.1875 47.75 41.5 
Q 54.890625 34.8125 54.890625 23.390625 
Q 54.890625 11.625 47.5625 5.09375 
Q 40.234375 -1.421875 26.90625 -1.421875 
Q 22.3125 -1.421875 17.546875 -0.640625 
Q 12.796875 0.140625 7.71875 1.703125 
L 7.71875 11.625 
Q 12.109375 9.234375 16.796875 8.0625 
Q 21.484375 6.890625 26.703125 6.890625 
Q 35.15625 6.890625 40.078125 11.328125 
Q 45.015625 15.765625 45.015625 23.390625 
Q 45.015625 31 40.078125 35.4375 
Q 35.15625 39.890625 26.703125 39.890625 
Q 22.75 39.890625 18.8125 39.015625 
Q 14.890625 38.140625 10.796875 36.28125 
z
" id="DejaVuSans-53"/>
       </defs>
       <use xlink:href="#DejaVuSans-53"/>
       <use x="63.623047" xlink:href="#DejaVuSans-48"/>
      </g>
     </g>
    </g>
    <g id="ytick_6">
     <g id="line2d_11">
      <g>
       <use style="stroke:#000000;stroke-width:0.8;" x="57.6" xlink:href="#m20da09ce4c" y="109.231776"/>
      </g>
     </g>
     <g id="text_11">
      <!-- 60 -->
      <g transform="translate(37.875 113.030994)scale(0.1 -0.1)">
       <use xlink:href="#DejaVuSans-54"/>
       <use x="63.623047" xlink:href="#DejaVuSans-48"/>
      </g>
     </g>
    </g>
    <g id="ytick_7">
     <g id="line2d_12">
      <g>
       <use style="stroke:#000000;stroke-width:0.8;" x="57.6" xlink:href="#m20da09ce4c" y="75.120162"/>
      </g>
     </g>
     <g id="text_12">
      <!-- 70 -->
      <g transform="translate(37.875 78.919381)scale(0.1 -0.1)">
       <defs>
        <path d="M 8.203125 72.90625 
L 55.078125 72.90625 
L 55.078125 68.703125 
L 28.609375 0 
L 18.3125 0 
L 43.21875 64.59375 
L 8.203125 64.59375 
z
" id="DejaVuSans-55"/>
       </defs>
       <use xlink:href="#DejaVuSans-55"/>
       <use x="63.623047" xlink:href="#DejaVuSans-48"/>
      </g>
     </g>
    </g>
   </g>
   <g id="line2d_13">
    <path clip-path="url(#p7ab65ccbd0)" d="M 342.591521 165.14071 
L 343.055439 148.374852 
L 343.062261 141.457017 
L 342.840535 134.50507 
L 342.308394 127.566768 
L 341.383969 120.703511 
L 340.749493 117.319639 
L 339.985393 113.969879 
L 339.081436 110.667875 
L 338.027387 107.420449 
L 336.816424 104.231013 
L 335.431493 101.109801 
L 333.86577 98.060222 
L 332.115844 95.092512 
L 330.181716 92.220314 
L 328.08044 89.453862 
L 325.815429 86.810212 
L 323.403738 84.299598 
L 320.848778 81.939074 
L 318.167605 79.738875 
L 315.363631 77.716056 
L 312.450499 75.880851 
L 309.441855 74.250316 
L 306.341109 72.827862 
L 303.161907 71.610077 
L 299.914481 70.576496 
L 296.605655 69.713472 
L 293.245661 69.007361 
L 289.848144 68.44452 
L 286.419927 68.00448 
L 279.508914 67.445049 
L 272.587668 67.216502 
L 265.707355 67.281314 
L 258.874799 67.687242 
L 252.103644 68.485454 
L 248.747061 69.048295 
L 245.407534 69.727116 
L 242.088474 70.53215 
L 238.789881 71.466809 
L 235.5254 72.52768 
L 232.298441 73.718175 
L 229.115828 75.031472 
L 225.987793 76.470982 
L 222.917748 78.033294 
L 219.919337 79.714997 
L 216.999383 81.512679 
L 214.161297 83.433163 
L 211.418723 85.466215 
L 208.771662 87.611835 
L 206.213291 89.859791 
L 201.328508 94.608127 
L 196.672272 99.615712 
L 189.935229 107.386337 
L 170.075448 130.83466 
L 163.764799 138.874768 
L 159.725984 144.370149 
L 155.827027 149.974687 
L 152.07816 155.684971 
L 148.489619 161.49759 
L 145.068224 167.415955 
L 141.841265 173.443477 
L 138.866732 179.590389 
L 136.188971 185.87716 
L 133.862559 192.314021 
L 132.849444 195.592147 
L 131.942075 198.914618 
L 131.154097 202.271201 
L 130.485509 205.658484 
L 129.953368 209.066234 
L 129.561084 212.487629 
L 129.318892 215.919257 
L 129.233613 219.354297 
L 129.315481 222.779103 
L 129.571318 226.193675 
L 130.011358 229.587781 
L 130.639011 232.951186 
L 131.45769 236.283891 
L 132.45716 239.568839 
L 133.634011 242.80262 
L 134.984831 245.975 
L 136.506209 249.075746 
L 138.191323 252.098035 
L 140.03335 255.035044 
L 142.035701 257.876542 
L 144.188144 260.612293 
L 146.483856 263.235476 
L 148.919425 265.732446 
L 151.488029 268.096381 
L 154.176025 270.306814 
L 156.976588 272.360333 
L 159.882897 274.239883 
L 162.888131 275.931819 
L 165.978643 277.43273 
L 169.151023 278.722149 
L 172.398448 279.789842 
L 175.707275 280.628988 
L 179.067269 281.246408 
L 182.471608 281.648925 
L 185.903236 281.843361 
L 189.355331 281.83995 
L 192.814249 281.648925 
L 196.269755 281.277109 
L 199.711617 280.734734 
L 203.12619 280.028624 
L 206.503239 279.1656 
L 209.832533 278.159307 
L 213.103837 277.006335 
L 216.313739 275.706682 
L 219.445185 274.26035 
L 222.498175 272.667337 
L 225.462474 270.927645 
L 228.331261 269.041273 
L 231.09089 267.00481 
L 233.737951 264.825077 
L 236.262211 262.491843 
L 238.656846 260.01534 
L 240.915035 257.398979 
L 243.023133 254.656406 
L 244.981139 251.794441 
L 246.77541 248.830142 
L 248.402534 245.77033 
L 249.848866 242.62524 
L 251.110996 239.408514 
L 252.175278 236.126977 
L 253.041713 232.794273 
L 253.700067 229.417223 
L 254.150341 226.012884 
L 254.402767 222.581256 
L 254.457345 219.139394 
L 254.32431 215.694121 
L 254.00025 212.25567 
L 253.495398 208.830864 
L 252.813166 205.433348 
L 251.960375 202.066531 
L 250.937027 198.747471 
L 249.749943 195.479579 
L 248.405945 192.276498 
L 246.908445 189.145052 
L 245.260854 186.095474 
L 243.466584 183.137997 
L 241.532455 180.279444 
L 239.465291 177.533459 
L 237.265092 174.906865 
L 234.942091 172.409895 
L 232.492878 170.049371 
L 232.492878 170.049371 
" style="fill:none;stroke:#fea952;stroke-linecap:square;"/>
   </g>
   <g id="line2d_14">
    <path clip-path="url(#p7ab65ccbd0)" d="M 328.953575 164.713188 
L 329.41122 148.266886 
L 329.42109 141.764914 
L 329.223565 135.37367 
L 328.759234 129.178165 
L 327.973027 123.218063 
L 326.82499 117.572675 
L 326.103311 114.880312 
L 325.271238 112.263693 
L 324.34442 109.765039 
L 323.293219 107.341867 
L 322.112283 104.990727 
L 320.79809 102.71385 
L 319.316042 100.473403 
L 317.718766 98.331478 
L 315.975294 96.262624 
L 314.144402 94.321625 
L 312.193136 92.48688 
L 310.184694 90.804564 
L 308.090715 89.260797 
L 305.949156 87.877054 
L 303.752521 86.652245 
L 301.460378 85.569715 
L 299.023673 84.612053 
L 296.470828 83.779435 
L 293.799497 83.066442 
L 291.015646 82.468542 
L 288.110994 81.978132 
L 282.054857 81.291076 
L 275.737171 80.936095 
L 269.426879 80.851359 
L 263.279376 81.046661 
L 257.297441 81.554926 
L 251.465008 82.4195 
L 245.808249 83.659969 
L 240.24807 85.328958 
L 234.82001 87.426578 
L 232.176186 88.63158 
L 229.592399 89.93394 
L 227.072732 91.334174 
L 224.64625 92.8132 
L 222.286877 94.394517 
L 220.010588 96.066036 
L 217.77799 97.86183 
L 213.391834 101.837827 
L 209.067948 106.266397 
L 204.726155 111.107677 
L 189.206895 129.225495 
L 182.785945 136.852708 
L 176.667043 144.471836 
L 172.772101 149.623733 
L 169.009059 154.879563 
L 165.390565 160.22696 
L 161.924968 165.661752 
L 158.61951 171.186586 
L 155.515112 176.74405 
L 152.66767 182.305788 
L 150.110281 187.890338 
L 147.878298 193.521924 
L 146.012056 199.186865 
L 144.54047 204.913426 
L 143.966776 207.763667 
L 143.509202 210.620492 
L 143.171874 213.448232 
L 142.959334 216.257898 
L 142.874361 219.028223 
L 142.921988 221.759634 
L 143.102715 224.439354 
L 143.424451 227.084729 
L 143.889713 229.696152 
L 144.511494 232.312172 
L 145.279123 234.902618 
L 146.187953 237.457071 
L 147.234447 239.964737 
L 148.423609 242.431055 
L 149.750631 244.848294 
L 151.186891 247.175346 
L 152.759166 249.439502 
L 154.455959 251.626286 
L 156.251423 253.708096 
L 158.159354 255.692523 
L 160.154527 257.557493 
L 162.244391 259.303277 
L 164.386271 260.902892 
L 166.576823 262.350067 
L 168.848904 263.658045 
L 171.116361 264.792311 
L 173.412701 265.76011 
L 175.752657 266.563897 
L 178.173277 267.209033 
L 180.669404 267.696149 
L 183.243476 268.026129 
L 185.889753 268.198723 
L 188.602927 268.216065 
L 191.354495 268.082589 
L 194.145817 267.798784 
L 196.94846 267.372799 
L 199.747799 266.808834 
L 202.555478 266.104531 
L 205.296936 265.290558 
L 207.98309 264.359031 
L 210.592417 263.319479 
L 213.133174 262.163455 
L 215.591904 260.899594 
L 217.965891 259.526874 
L 220.229403 258.062373 
L 222.417366 256.471703 
L 224.476313 254.805177 
L 226.45322 253.007116 
L 228.32754 251.100085 
L 230.096961 249.083594 
L 231.761778 246.951975 
L 233.308301 244.728949 
L 234.728219 242.423776 
L 236.005891 240.069488 
L 237.146965 237.641461 
L 238.131898 235.199077 
L 238.969618 232.693776 
L 239.649188 230.183407 
L 240.173228 227.628102 
L 240.542461 225.011907 
L 240.759837 222.364916 
L 240.822861 219.665874 
L 240.739862 216.974401 
L 240.501479 214.245529 
L 240.117793 211.51713 
L 239.586227 208.783636 
L 238.92143 206.086761 
L 238.112316 203.406135 
L 237.168007 200.7589 
L 236.096417 198.163081 
L 234.903796 195.630786 
L 233.595238 193.172884 
L 232.165686 190.784308 
L 230.631381 188.485718 
L 229.005488 186.295243 
L 227.275139 184.200797 
L 225.47339 182.234356 
L 223.024176 179.873833 
L 223.024176 179.873833 
" style="fill:none;stroke:#ffffff;stroke-linecap:square;"/>
   </g>
   <g id="line2d_15">
    <path clip-path="url(#p7ab65ccbd0)" d="M 356.229467 165.568232 
L 356.699657 148.482818 
L 356.703432 141.14912 
L 356.457506 133.63647 
L 355.857555 125.955371 
L 355.391653 122.093618 
L 354.794912 118.18896 
L 354.052436 114.28516 
L 353.145796 110.367083 
L 352.05956 106.455437 
L 350.783536 102.577205 
L 349.288429 98.696987 
L 347.569767 94.877734 
L 345.619257 91.129718 
L 343.433598 87.471174 
L 341.04739 83.967225 
L 338.442115 80.576247 
L 335.655564 77.3578 
L 332.663075 74.27757 
L 329.50442 71.391268 
L 326.150517 68.673186 
L 322.636547 66.171316 
L 318.951842 63.884649 
L 315.131188 61.848388 
L 311.22184 60.086009 
L 307.300141 58.608102 
L 303.358134 57.373557 
L 299.411812 56.360501 
L 295.475676 55.546181 
L 291.585294 54.910908 
L 287.708496 54.420816 
L 280.099851 53.813207 
L 272.614687 53.571883 
L 265.082236 53.650996 
L 257.496846 54.112354 
L 253.663946 54.508612 
L 249.847173 55.028683 
L 246.029115 55.677091 
L 242.191295 56.466945 
L 238.368699 57.404332 
L 234.572818 58.490186 
L 230.80273 59.726401 
L 227.093728 61.105194 
L 223.411646 62.636366 
L 219.7994 64.310385 
L 216.243096 66.132648 
L 212.765941 68.095819 
L 209.352516 70.212158 
L 206.035716 72.471809 
L 202.826858 74.866394 
L 199.765333 77.361841 
L 196.849374 79.935406 
L 191.438188 85.208237 
L 186.444965 90.583628 
L 179.543866 98.543491 
L 159.432776 122.295932 
L 155.010528 127.867597 
L 150.684571 133.597305 
L 146.506429 139.441395 
L 142.477099 145.405408 
L 138.601877 151.493519 
L 134.893987 157.70308 
L 131.339799 164.08468 
L 127.972104 170.693966 
L 124.860143 177.539688 
L 122.077719 184.631734 
L 120.826289 188.285122 
L 119.686832 191.99743 
L 118.658551 195.79623 
L 117.767723 199.628976 
L 117.004242 203.553301 
L 116.397534 207.511976 
L 115.950295 211.527027 
L 115.67845 215.580617 
L 115.592864 219.680371 
L 115.708974 223.798571 
L 116.039921 227.947997 
L 116.598264 232.090833 
L 117.38831 236.20622 
L 118.403886 240.255609 
L 119.635198 244.23506 
L 121.080069 248.148169 
L 122.735215 251.985263 
L 124.588808 255.720436 
L 126.632014 259.347775 
L 128.879808 262.894743 
L 131.312237 266.313582 
L 133.920329 269.5983 
L 136.716289 272.762857 
L 139.679496 275.772369 
L 142.821532 278.63527 
L 146.107658 281.31035 
L 149.566905 283.817773 
L 153.188972 286.129698 
L 156.927357 288.205593 
L 160.840924 290.073149 
L 164.889344 291.684187 
L 169.04424 293.015788 
L 173.241273 294.048942 
L 177.465134 294.796667 
L 181.69974 295.271721 
L 185.916719 295.488 
L 190.107735 295.463835 
L 194.274003 295.215261 
L 198.393694 294.755433 
L 202.474775 294.096669 
L 206.50458 293.248413 
L 210.451001 292.226669 
L 214.36813 291.028056 
L 218.224583 289.653639 
L 222.035062 288.093886 
L 225.757196 286.357244 
L 229.404445 284.43508 
L 232.959057 282.328416 
L 236.433119 280.020173 
L 239.764414 277.537916 
L 242.999589 274.844978 
L 246.071202 271.97657 
L 248.986152 268.930595 
L 251.733109 265.714364 
L 254.284487 262.360836 
L 256.653978 258.859934 
L 258.822601 255.236508 
L 260.799176 251.471172 
L 262.550768 247.609018 
L 264.090094 243.617952 
L 265.380939 239.560179 
L 266.434238 235.405139 
L 267.226907 231.206344 
L 267.758221 227.013861 
L 268.045697 222.797595 
L 268.09183 218.612914 
L 267.908758 214.413841 
L 267.49902 210.265812 
L 266.873003 206.144598 
L 266.040104 202.083059 
L 264.999321 198.046301 
L 263.761737 194.088808 
L 262.331879 190.200257 
L 260.715474 186.389916 
L 258.913095 182.659319 
L 256.926471 179.018064 
L 254.767481 175.491686 
L 252.433529 172.07317 
L 249.925095 168.771675 
L 247.255046 165.612933 
L 244.410792 162.585433 
L 241.961579 160.22491 
L 241.961579 160.22491 
" style="fill:none;stroke:#ffffff;stroke-linecap:square;"/>
   </g>
   <g id="patch_3">
    <path d="M 57.6 307.584 
L 57.6 41.472 
" style="fill:none;stroke:#000000;stroke-linecap:square;stroke-linejoin:miter;stroke-width:0.8;"/>
   </g>
   <g id="patch_4">
    <path d="M 414.72 307.584 
L 414.72 41.472 
" style="fill:none;stroke:#000000;stroke-linecap:square;stroke-linejoin:miter;stroke-width:0.8;"/>
   </g>
   <g id="patch_5">
    <path d="M 57.6 307.584 
L 414.72 307.584 
" style="fill:none;stroke:#000000;stroke-linecap:square;stroke-linejoin:miter;stroke-width:0.8;"/>
   </g>
   <g id="patch_6">
    <path d="M 57.6 41.472 
L 414.72 41.472 
" style="fill:none;stroke:#000000;stroke-linecap:square;stroke-linejoin:miter;stroke-width:0.8;"/>
   </g>
  </g>
 </g>
 <defs>
  <clipPath id="p7ab65ccbd0">
   <rect height="266.112" width="357.12" x="57.6" y="41.472"/>
  </clipPath>
 </defs>
</svg>
