<?xml version="1.0" encoding="utf-8" standalone="no"?>
<!DOCTYPE svg PUBLIC "-//W3C//DTD SVG 1.1//EN"
  "http://www.w3.org/Graphics/SVG/1.1/DTD/svg11.dtd">
<!-- Created with matplotlib (https://matplotlib.org/) -->
<svg height="345.6pt" version="1.1" viewBox="0 0 460.8 345.6" width="460.8pt" xmlns="http://www.w3.org/2000/svg" xmlns:xlink="http://www.w3.org/1999/xlink">
 <metadata>
  <rdf:RDF xmlns:cc="http://creativecommons.org/ns#" xmlns:dc="http://purl.org/dc/elements/1.1/" xmlns:rdf="http://www.w3.org/1999/02/22-rdf-syntax-ns#">
   <cc:Work>
    <dc:type rdf:resource="http://purl.org/dc/dcmitype/StillImage"/>
    <dc:date>2021-01-23T13:04:39.613745</dc:date>
    <dc:format>image/svg+xml</dc:format>
    <dc:creator>
     <cc:Agent>
      <dc:title>Matplotlib v3.3.3, https://matplotlib.org/</dc:title>
     </cc:Agent>
    </dc:creator>
   </cc:Work>
  </rdf:RDF>
 </metadata>
 <defs>
  <style type="text/css">*{stroke-linecap:butt;stroke-linejoin:round;}</style>
 </defs>
 <g id="figure_1">
  <g id="patch_1">
   <path d="M 0 345.6 
L 460.8 345.6 
L 460.8 0 
L 0 0 
z
" style="fill:#ffffff;"/>
  </g>
  <g id="axes_1">
   <g id="patch_2">
    <path d="M 57.6 307.584 
L 414.72 307.584 
L 414.72 41.472 
L 57.6 41.472 
z
" style="fill:#7d9051;"/>
   </g>
   <g id="matplotlib.axis_1">
    <g id="xtick_1">
     <g id="line2d_1">
      <defs>
       <path d="M 0 0 
L 0 3.5 
" id="mc2508a892a" style="stroke:#000000;stroke-width:0.8;"/>
      </defs>
      <g>
       <use style="stroke:#000000;stroke-width:0.8;" x="60.398417" xlink:href="#mc2508a892a" y="307.584"/>
      </g>
     </g>
     <g id="text_1">
      <!-- 0 -->
      <g transform="translate(57.217167 322.182437)scale(0.1 -0.1)">
       <defs>
        <path d="M 31.78125 66.40625 
Q 24.171875 66.40625 20.328125 58.90625 
Q 16.5 51.421875 16.5 36.375 
Q 16.5 21.390625 20.328125 13.890625 
Q 24.171875 6.390625 31.78125 6.390625 
Q 39.453125 6.390625 43.28125 13.890625 
Q 47.125 21.390625 47.125 36.375 
Q 47.125 51.421875 43.28125 58.90625 
Q 39.453125 66.40625 31.78125 66.40625 
z
M 31.78125 74.21875 
Q 44.046875 74.21875 50.515625 64.515625 
Q 56.984375 54.828125 56.984375 36.375 
Q 56.984375 17.96875 50.515625 8.265625 
Q 44.046875 -1.421875 31.78125 -1.421875 
Q 19.53125 -1.421875 13.0625 8.265625 
Q 6.59375 17.96875 6.59375 36.375 
Q 6.59375 54.828125 13.0625 64.515625 
Q 19.53125 74.21875 31.78125 74.21875 
z
" id="DejaVuSans-48"/>
       </defs>
       <use xlink:href="#DejaVuSans-48"/>
      </g>
     </g>
    </g>
    <g id="xtick_2">
     <g id="line2d_2">
      <g>
       <use style="stroke:#000000;stroke-width:0.8;" x="111.745868" xlink:href="#mc2508a892a" y="307.584"/>
      </g>
     </g>
     <g id="text_2">
      <!-- 20 -->
      <g transform="translate(105.383368 322.182437)scale(0.1 -0.1)">
       <defs>
        <path d="M 19.1875 8.296875 
L 53.609375 8.296875 
L 53.609375 0 
L 7.328125 0 
L 7.328125 8.296875 
Q 12.9375 14.109375 22.625 23.890625 
Q 32.328125 33.6875 34.8125 36.53125 
Q 39.546875 41.84375 41.421875 45.53125 
Q 43.3125 49.21875 43.3125 52.78125 
Q 43.3125 58.59375 39.234375 62.25 
Q 35.15625 65.921875 28.609375 65.921875 
Q 23.96875 65.921875 18.8125 64.3125 
Q 13.671875 62.703125 7.8125 59.421875 
L 7.8125 69.390625 
Q 13.765625 71.78125 18.9375 73 
Q 24.125 74.21875 28.421875 74.21875 
Q 39.75 74.21875 46.484375 68.546875 
Q 53.21875 62.890625 53.21875 53.421875 
Q 53.21875 48.921875 51.53125 44.890625 
Q 49.859375 40.875 45.40625 35.40625 
Q 44.1875 33.984375 37.640625 27.21875 
Q 31.109375 20.453125 19.1875 8.296875 
z
" id="DejaVuSans-50"/>
       </defs>
       <use xlink:href="#DejaVuSans-50"/>
       <use x="63.623047" xlink:href="#DejaVuSans-48"/>
      </g>
     </g>
    </g>
    <g id="xtick_3">
     <g id="line2d_3">
      <g>
       <use style="stroke:#000000;stroke-width:0.8;" x="163.093318" xlink:href="#mc2508a892a" y="307.584"/>
      </g>
     </g>
     <g id="text_3">
      <!-- 40 -->
      <g transform="translate(156.730818 322.182437)scale(0.1 -0.1)">
       <defs>
        <path d="M 37.796875 64.3125 
L 12.890625 25.390625 
L 37.796875 25.390625 
z
M 35.203125 72.90625 
L 47.609375 72.90625 
L 47.609375 25.390625 
L 58.015625 25.390625 
L 58.015625 17.1875 
L 47.609375 17.1875 
L 47.609375 0 
L 37.796875 0 
L 37.796875 17.1875 
L 4.890625 17.1875 
L 4.890625 26.703125 
z
" id="DejaVuSans-52"/>
       </defs>
       <use xlink:href="#DejaVuSans-52"/>
       <use x="63.623047" xlink:href="#DejaVuSans-48"/>
      </g>
     </g>
    </g>
    <g id="xtick_4">
     <g id="line2d_4">
      <g>
       <use style="stroke:#000000;stroke-width:0.8;" x="214.440768" xlink:href="#mc2508a892a" y="307.584"/>
      </g>
     </g>
     <g id="text_4">
      <!-- 60 -->
      <g transform="translate(208.078268 322.182437)scale(0.1 -0.1)">
       <defs>
        <path d="M 33.015625 40.375 
Q 26.375 40.375 22.484375 35.828125 
Q 18.609375 31.296875 18.609375 23.390625 
Q 18.609375 15.53125 22.484375 10.953125 
Q 26.375 6.390625 33.015625 6.390625 
Q 39.65625 6.390625 43.53125 10.953125 
Q 47.40625 15.53125 47.40625 23.390625 
Q 47.40625 31.296875 43.53125 35.828125 
Q 39.65625 40.375 33.015625 40.375 
z
M 52.59375 71.296875 
L 52.59375 62.3125 
Q 48.875 64.0625 45.09375 64.984375 
Q 41.3125 65.921875 37.59375 65.921875 
Q 27.828125 65.921875 22.671875 59.328125 
Q 17.53125 52.734375 16.796875 39.40625 
Q 19.671875 43.65625 24.015625 45.921875 
Q 28.375 48.1875 33.59375 48.1875 
Q 44.578125 48.1875 50.953125 41.515625 
Q 57.328125 34.859375 57.328125 23.390625 
Q 57.328125 12.15625 50.6875 5.359375 
Q 44.046875 -1.421875 33.015625 -1.421875 
Q 20.359375 -1.421875 13.671875 8.265625 
Q 6.984375 17.96875 6.984375 36.375 
Q 6.984375 53.65625 15.1875 63.9375 
Q 23.390625 74.21875 37.203125 74.21875 
Q 40.921875 74.21875 44.703125 73.484375 
Q 48.484375 72.75 52.59375 71.296875 
z
" id="DejaVuSans-54"/>
       </defs>
       <use xlink:href="#DejaVuSans-54"/>
       <use x="63.623047" xlink:href="#DejaVuSans-48"/>
      </g>
     </g>
    </g>
    <g id="xtick_5">
     <g id="line2d_5">
      <g>
       <use style="stroke:#000000;stroke-width:0.8;" x="265.788218" xlink:href="#mc2508a892a" y="307.584"/>
      </g>
     </g>
     <g id="text_5">
      <!-- 80 -->
      <g transform="translate(259.425718 322.182437)scale(0.1 -0.1)">
       <defs>
        <path d="M 31.78125 34.625 
Q 24.75 34.625 20.71875 30.859375 
Q 16.703125 27.09375 16.703125 20.515625 
Q 16.703125 13.921875 20.71875 10.15625 
Q 24.75 6.390625 31.78125 6.390625 
Q 38.8125 6.390625 42.859375 10.171875 
Q 46.921875 13.96875 46.921875 20.515625 
Q 46.921875 27.09375 42.890625 30.859375 
Q 38.875 34.625 31.78125 34.625 
z
M 21.921875 38.8125 
Q 15.578125 40.375 12.03125 44.71875 
Q 8.5 49.078125 8.5 55.328125 
Q 8.5 64.0625 14.71875 69.140625 
Q 20.953125 74.21875 31.78125 74.21875 
Q 42.671875 74.21875 48.875 69.140625 
Q 55.078125 64.0625 55.078125 55.328125 
Q 55.078125 49.078125 51.53125 44.71875 
Q 48 40.375 41.703125 38.8125 
Q 48.828125 37.15625 52.796875 32.3125 
Q 56.78125 27.484375 56.78125 20.515625 
Q 56.78125 9.90625 50.3125 4.234375 
Q 43.84375 -1.421875 31.78125 -1.421875 
Q 19.734375 -1.421875 13.25 4.234375 
Q 6.78125 9.90625 6.78125 20.515625 
Q 6.78125 27.484375 10.78125 32.3125 
Q 14.796875 37.15625 21.921875 38.8125 
z
M 18.3125 54.390625 
Q 18.3125 48.734375 21.84375 45.5625 
Q 25.390625 42.390625 31.78125 42.390625 
Q 38.140625 42.390625 41.71875 45.5625 
Q 45.3125 48.734375 45.3125 54.390625 
Q 45.3125 60.0625 41.71875 63.234375 
Q 38.140625 66.40625 31.78125 66.40625 
Q 25.390625 66.40625 21.84375 63.234375 
Q 18.3125 60.0625 18.3125 54.390625 
z
" id="DejaVuSans-56"/>
       </defs>
       <use xlink:href="#DejaVuSans-56"/>
       <use x="63.623047" xlink:href="#DejaVuSans-48"/>
      </g>
     </g>
    </g>
    <g id="xtick_6">
     <g id="line2d_6">
      <g>
       <use style="stroke:#000000;stroke-width:0.8;" x="317.135668" xlink:href="#mc2508a892a" y="307.584"/>
      </g>
     </g>
     <g id="text_6">
      <!-- 100 -->
      <g transform="translate(307.591918 322.182437)scale(0.1 -0.1)">
       <defs>
        <path d="M 12.40625 8.296875 
L 28.515625 8.296875 
L 28.515625 63.921875 
L 10.984375 60.40625 
L 10.984375 69.390625 
L 28.421875 72.90625 
L 38.28125 72.90625 
L 38.28125 8.296875 
L 54.390625 8.296875 
L 54.390625 0 
L 12.40625 0 
z
" id="DejaVuSans-49"/>
       </defs>
       <use xlink:href="#DejaVuSans-49"/>
       <use x="63.623047" xlink:href="#DejaVuSans-48"/>
       <use x="127.246094" xlink:href="#DejaVuSans-48"/>
      </g>
     </g>
    </g>
    <g id="xtick_7">
     <g id="line2d_7">
      <g>
       <use style="stroke:#000000;stroke-width:0.8;" x="368.483118" xlink:href="#mc2508a892a" y="307.584"/>
      </g>
     </g>
     <g id="text_7">
      <!-- 120 -->
      <g transform="translate(358.939368 322.182437)scale(0.1 -0.1)">
       <use xlink:href="#DejaVuSans-49"/>
       <use x="63.623047" xlink:href="#DejaVuSans-50"/>
       <use x="127.246094" xlink:href="#DejaVuSans-48"/>
      </g>
     </g>
    </g>
   </g>
   <g id="matplotlib.axis_2">
    <g id="ytick_1">
     <g id="line2d_8">
      <defs>
       <path d="M 0 0 
L -3.5 0 
" id="me15c495d3f" style="stroke:#000000;stroke-width:0.8;"/>
      </defs>
      <g>
       <use style="stroke:#000000;stroke-width:0.8;" x="57.6" xlink:href="#me15c495d3f" y="283.569297"/>
      </g>
     </g>
     <g id="text_8">
      <!-- 0 -->
      <g transform="translate(44.2375 287.368516)scale(0.1 -0.1)">
       <use xlink:href="#DejaVuSans-48"/>
      </g>
     </g>
    </g>
    <g id="ytick_2">
     <g id="line2d_9">
      <g>
       <use style="stroke:#000000;stroke-width:0.8;" x="57.6" xlink:href="#me15c495d3f" y="232.221847"/>
      </g>
     </g>
     <g id="text_9">
      <!-- 20 -->
      <g transform="translate(37.875 236.021066)scale(0.1 -0.1)">
       <use xlink:href="#DejaVuSans-50"/>
       <use x="63.623047" xlink:href="#DejaVuSans-48"/>
      </g>
     </g>
    </g>
    <g id="ytick_3">
     <g id="line2d_10">
      <g>
       <use style="stroke:#000000;stroke-width:0.8;" x="57.6" xlink:href="#me15c495d3f" y="180.874397"/>
      </g>
     </g>
     <g id="text_10">
      <!-- 40 -->
      <g transform="translate(37.875 184.673616)scale(0.1 -0.1)">
       <use xlink:href="#DejaVuSans-52"/>
       <use x="63.623047" xlink:href="#DejaVuSans-48"/>
      </g>
     </g>
    </g>
    <g id="ytick_4">
     <g id="line2d_11">
      <g>
       <use style="stroke:#000000;stroke-width:0.8;" x="57.6" xlink:href="#me15c495d3f" y="129.526947"/>
      </g>
     </g>
     <g id="text_11">
      <!-- 60 -->
      <g transform="translate(37.875 133.326165)scale(0.1 -0.1)">
       <use xlink:href="#DejaVuSans-54"/>
       <use x="63.623047" xlink:href="#DejaVuSans-48"/>
      </g>
     </g>
    </g>
    <g id="ytick_5">
     <g id="line2d_12">
      <g>
       <use style="stroke:#000000;stroke-width:0.8;" x="57.6" xlink:href="#me15c495d3f" y="78.179497"/>
      </g>
     </g>
     <g id="text_12">
      <!-- 80 -->
      <g transform="translate(37.875 81.978715)scale(0.1 -0.1)">
       <use xlink:href="#DejaVuSans-56"/>
       <use x="63.623047" xlink:href="#DejaVuSans-48"/>
      </g>
     </g>
    </g>
   </g>
   <g id="line2d_13">
    <path clip-path="url(#pc852991d76)" d="M 86.072143 177.064416 
L 85.3122 174.402051 
L 84.742244 171.757657 
L 84.35457 169.128668 
L 84.141478 166.522784 
L 84.092698 163.93744 
L 84.203095 161.375203 
L 84.467535 158.838639 
L 84.87318 156.327748 
L 85.417463 153.845099 
L 86.092681 151.390691 
L 86.888567 148.967091 
L 87.799984 146.579435 
L 89.936038 141.901682 
L 92.444361 137.375404 
L 95.263336 133.013439 
L 98.333914 128.823487 
L 101.607314 124.820953 
L 105.073266 121.010972 
L 108.73434 117.406381 
L 112.5931 114.009747 
L 116.646982 110.83134 
L 120.895983 107.881429 
L 125.324701 105.198525 
L 129.912595 102.818571 
L 134.64683 100.785212 
L 139.504299 99.136958 
L 144.464463 97.889215 
L 149.511917 96.977798 
L 154.613286 96.312849 
L 162.325673 95.581147 
L 177.729908 94.397589 
L 182.854384 94.23071 
L 187.986561 94.300029 
L 193.126441 94.674865 
L 198.253484 95.403999 
L 203.321477 96.497699 
L 208.276506 97.971371 
L 213.072358 99.842986 
L 215.39583 100.928984 
L 219.878463 103.403931 
L 224.163407 106.215204 
L 228.296877 109.288349 
L 232.312248 112.543778 
L 248.075915 125.860739 
L 252.201682 128.89794 
L 256.509734 131.675837 
L 261.041146 134.130246 
L 265.767679 136.232924 
L 270.648254 137.968467 
L 275.641793 139.316338 
L 280.704652 140.261131 
L 285.800886 140.802847 
L 290.922795 141.013371 
L 296.060107 140.98513 
L 306.37581 140.569216 
L 314.126707 140.297074 
L 319.279424 140.286805 
L 324.409034 140.505032 
L 329.505269 141.028776 
L 334.552723 141.935058 
L 339.533426 143.249553 
L 344.414001 144.949153 
L 349.166207 147.005619 
L 353.754102 149.393275 
L 358.149444 152.083882 
L 362.336828 155.059466 
L 366.313688 158.30976 
L 370.080024 161.824493 
L 373.638402 165.590828 
L 376.981121 169.595929 
L 380.064535 173.832094 
L 381.47659 176.029765 
L 382.788518 178.281351 
L 383.984913 180.579149 
L 385.05294 182.928295 
L 385.984896 185.321086 
L 386.765378 187.757522 
L 387.381547 190.237604 
L 387.825702 192.756197 
L 388.102979 195.305598 
L 388.21851 197.878105 
L 388.187702 200.466016 
L 388.010553 203.059063 
L 387.702468 205.652109 
L 387.266015 208.232318 
L 386.71403 210.794556 
L 385.294273 215.826606 
L 383.49968 220.691777 
L 381.371328 225.387501 
L 378.942593 229.921481 
L 376.24942 234.301419 
L 373.32775 238.540151 
L 370.208392 242.645379 
L 366.92729 246.622239 
L 363.520387 250.486135 
L 358.244436 256.08044 
L 356.460112 257.895572 
L 356.460112 257.895572 
" style="fill:none;stroke:#fea952;stroke-linecap:square;"/>
   </g>
   <g id="line2d_14">
    <path clip-path="url(#pc852991d76)" d="M 76.197064 179.883146 
L 75.273243 176.565787 
L 74.582619 173.255805 
L 74.119245 169.965645 
L 73.873816 166.716514 
L 73.832727 163.495377 
L 73.98896 160.310369 
L 74.329493 157.200795 
L 74.841931 154.12855 
L 75.51583 151.121114 
L 76.335815 148.186635 
L 77.294308 145.304767 
L 78.374162 142.503126 
L 79.565366 139.769676 
L 80.865701 137.085935 
L 83.73015 131.941718 
L 86.895758 127.05978 
L 90.298917 122.428078 
L 93.914329 118.017982 
L 97.770731 113.790487 
L 101.840642 109.79459 
L 106.140399 106.020688 
L 110.659644 102.487827 
L 115.436695 99.183234 
L 120.440744 96.164733 
L 125.691561 93.456664 
L 131.144726 91.131316 
L 133.964249 90.118019 
L 136.81269 89.226476 
L 142.499924 87.809383 
L 148.085458 86.80786 
L 153.550989 86.09845 
L 161.467767 85.347555 
L 174.569879 84.294271 
L 180.055537 84.022995 
L 185.696364 83.964961 
L 191.465985 84.217231 
L 197.311138 84.854451 
L 203.147033 85.907472 
L 206.053739 86.598347 
L 208.936143 87.402242 
L 211.804913 88.327059 
L 214.634962 89.372436 
L 217.420803 90.539575 
L 220.172867 91.838201 
L 222.811048 93.234404 
L 227.819644 96.281757 
L 232.478339 99.561076 
L 236.852576 102.976357 
L 242.981684 108.143714 
L 252.447069 116.220279 
L 256.093434 119.055718 
L 259.738613 121.595583 
L 263.459292 123.821409 
L 267.375021 125.764859 
L 271.447934 127.407472 
L 275.612185 128.726605 
L 279.84973 129.709213 
L 284.147796 130.349185 
L 288.638287 130.678318 
L 293.336296 130.755304 
L 300.743735 130.546643 
L 314.003973 130.028318 
L 319.576817 130.021622 
L 325.283144 130.27281 
L 331.110094 130.885455 
L 334.060588 131.361203 
L 336.980717 131.956718 
L 339.865135 132.666468 
L 342.728812 133.489843 
L 348.322571 135.452549 
L 353.750711 137.816236 
L 358.965405 140.544278 
L 363.959126 143.615705 
L 368.701923 147.000435 
L 373.197186 150.688744 
L 377.432852 154.65523 
L 381.416961 158.885872 
L 385.170078 163.398881 
L 386.976662 165.797956 
L 388.704321 168.28083 
L 390.349727 170.859671 
L 391.897281 173.538687 
L 393.333563 176.328834 
L 394.622225 179.201202 
L 395.764849 182.188203 
L 396.731877 185.281374 
L 397.494979 188.454094 
L 398.034987 191.645821 
L 398.362128 194.844857 
L 398.487273 198.000352 
L 398.433311 201.165964 
L 398.208318 204.270678 
L 397.828117 207.364905 
L 397.305186 210.395065 
L 396.652141 213.382291 
L 395.879135 216.317428 
L 394.992267 219.204673 
L 392.924496 224.770412 
L 390.498491 230.094656 
L 387.766664 235.174881 
L 384.778348 240.021541 
L 381.570261 244.665788 
L 378.187441 249.110455 
L 374.682428 253.354272 
L 371.073522 257.44405 
L 365.567948 263.279648 
L 363.783624 265.09478 
L 363.783624 265.09478 
" style="fill:none;stroke:#ffffff;stroke-linecap:square;"/>
   </g>
   <g id="line2d_15">
    <path clip-path="url(#pc852991d76)" d="M 95.947221 174.245686 
L 95.351158 172.238314 
L 94.901868 170.259509 
L 94.589896 168.29169 
L 94.409141 166.329055 
L 94.352669 164.379503 
L 94.41723 162.440037 
L 94.605577 160.476482 
L 94.904428 158.526947 
L 95.849548 154.594747 
L 97.225807 150.655744 
L 99.006375 146.717429 
L 101.158572 142.809091 
L 103.630915 138.967097 
L 106.36891 135.218896 
L 109.300298 131.623924 
L 112.375802 128.231457 
L 115.628037 125.018172 
L 119.045802 121.998806 
L 122.634319 119.174853 
L 126.355272 116.579624 
L 130.208658 114.232316 
L 134.13363 112.180477 
L 138.148935 110.439107 
L 142.195908 109.047441 
L 146.429001 107.969047 
L 150.938377 107.147736 
L 155.675584 106.527248 
L 163.183579 105.81474 
L 178.161709 104.657997 
L 182.854384 104.5002 
L 187.402731 104.55291 
L 191.852668 104.865053 
L 196.270767 105.480271 
L 200.589215 106.397051 
L 204.748099 107.615684 
L 208.723913 109.146397 
L 212.514592 111.006086 
L 216.265871 113.262925 
L 220.017888 115.888563 
L 223.782223 118.819827 
L 229.524645 123.660087 
L 237.556291 130.563842 
L 241.874802 134.046619 
L 246.481474 137.426812 
L 251.440029 140.606712 
L 254.037673 142.071965 
L 256.686607 143.430806 
L 259.390158 144.688169 
L 262.143978 145.841837 
L 264.934623 146.886345 
L 267.775926 147.82809 
L 270.654756 148.658328 
L 273.557082 149.372003 
L 276.486446 149.970951 
L 279.430879 150.451319 
L 285.235225 151.056746 
L 290.881717 151.282779 
L 296.367133 151.25003 
L 306.824098 150.828917 
L 314.249441 150.565831 
L 318.982031 150.551988 
L 323.534925 150.737253 
L 327.900443 151.172096 
L 332.124728 151.913398 
L 336.338039 153.009262 
L 340.50543 154.445758 
L 344.581704 156.195001 
L 348.542799 158.242272 
L 352.339761 160.552058 
L 355.971733 163.118498 
L 359.43019 165.930776 
L 362.727195 168.993756 
L 365.859842 172.295784 
L 368.792164 175.792978 
L 371.42475 179.383358 
L 373.679754 183.024014 
L 375.483656 186.655387 
L 376.204944 188.453969 
L 376.798878 190.233671 
L 377.268114 192.021115 
L 377.616418 193.866572 
L 377.843829 195.766338 
L 377.949748 197.755858 
L 377.942093 199.766069 
L 377.57682 203.939313 
L 376.775919 208.206821 
L 375.596279 212.448539 
L 374.074864 216.613142 
L 372.244164 220.680346 
L 370.118523 224.668081 
L 367.720491 228.581296 
L 365.085239 232.414513 
L 362.229343 236.180304 
L 359.172152 239.890207 
L 354.315365 245.322636 
L 349.136601 250.696363 
L 349.136601 250.696363 
" style="fill:none;stroke:#ffffff;stroke-linecap:square;"/>
   </g>
   <g id="patch_3">
    <path d="M 57.6 307.584 
L 57.6 41.472 
" style="fill:none;stroke:#000000;stroke-linecap:square;stroke-linejoin:miter;stroke-width:0.8;"/>
   </g>
   <g id="patch_4">
    <path d="M 414.72 307.584 
L 414.72 41.472 
" style="fill:none;stroke:#000000;stroke-linecap:square;stroke-linejoin:miter;stroke-width:0.8;"/>
   </g>
   <g id="patch_5">
    <path d="M 57.6 307.584 
L 414.72 307.584 
" style="fill:none;stroke:#000000;stroke-linecap:square;stroke-linejoin:miter;stroke-width:0.8;"/>
   </g>
   <g id="patch_6">
    <path d="M 57.6 41.472 
L 414.72 41.472 
" style="fill:none;stroke:#000000;stroke-linecap:square;stroke-linejoin:miter;stroke-width:0.8;"/>
   </g>
  </g>
 </g>
 <defs>
  <clipPath id="pc852991d76">
   <rect height="266.112" width="357.12" x="57.6" y="41.472"/>
  </clipPath>
 </defs>
</svg>
