<?xml version="1.0" encoding="utf-8" standalone="no"?>
<!DOCTYPE svg PUBLIC "-//W3C//DTD SVG 1.1//EN"
  "http://www.w3.org/Graphics/SVG/1.1/DTD/svg11.dtd">
<!-- Created with matplotlib (https://matplotlib.org/) -->
<svg height="345.6pt" version="1.1" viewBox="0 0 460.8 345.6" width="460.8pt" xmlns="http://www.w3.org/2000/svg" xmlns:xlink="http://www.w3.org/1999/xlink">
 <metadata>
  <rdf:RDF xmlns:cc="http://creativecommons.org/ns#" xmlns:dc="http://purl.org/dc/elements/1.1/" xmlns:rdf="http://www.w3.org/1999/02/22-rdf-syntax-ns#">
   <cc:Work>
    <dc:type rdf:resource="http://purl.org/dc/dcmitype/StillImage"/>
    <dc:date>2021-01-25T09:32:01.297209</dc:date>
    <dc:format>image/svg+xml</dc:format>
    <dc:creator>
     <cc:Agent>
      <dc:title>Matplotlib v3.3.3, https://matplotlib.org/</dc:title>
     </cc:Agent>
    </dc:creator>
   </cc:Work>
  </rdf:RDF>
 </metadata>
 <defs>
  <style type="text/css">*{stroke-linecap:butt;stroke-linejoin:round;}</style>
 </defs>
 <g id="figure_1">
  <g id="patch_1">
   <path d="M 0 345.6 
L 460.8 345.6 
L 460.8 0 
L 0 0 
z
" style="fill:#ffffff;"/>
  </g>
  <g id="axes_1">
   <g id="patch_2">
    <path d="M 57.6 307.584 
L 414.72 307.584 
L 414.72 41.472 
L 57.6 41.472 
z
" style="fill:#7d9051;"/>
   </g>
   <g id="matplotlib.axis_1">
    <g id="xtick_1">
     <g id="line2d_1">
      <defs>
       <path d="M 0 0 
L 0 3.5 
" id="ma5839197be" style="stroke:#000000;stroke-width:0.8;"/>
      </defs>
      <g>
       <use style="stroke:#000000;stroke-width:0.8;" x="59.944836" xlink:href="#ma5839197be" y="307.584"/>
      </g>
     </g>
     <g id="text_1">
      <!-- −40 -->
      <g transform="translate(49.392492 322.182437)scale(0.1 -0.1)">
       <defs>
        <path d="M 10.59375 35.5 
L 73.1875 35.5 
L 73.1875 27.203125 
L 10.59375 27.203125 
z
" id="DejaVuSans-8722"/>
        <path d="M 37.796875 64.3125 
L 12.890625 25.390625 
L 37.796875 25.390625 
z
M 35.203125 72.90625 
L 47.609375 72.90625 
L 47.609375 25.390625 
L 58.015625 25.390625 
L 58.015625 17.1875 
L 47.609375 17.1875 
L 47.609375 0 
L 37.796875 0 
L 37.796875 17.1875 
L 4.890625 17.1875 
L 4.890625 26.703125 
z
" id="DejaVuSans-52"/>
        <path d="M 31.78125 66.40625 
Q 24.171875 66.40625 20.328125 58.90625 
Q 16.5 51.421875 16.5 36.375 
Q 16.5 21.390625 20.328125 13.890625 
Q 24.171875 6.390625 31.78125 6.390625 
Q 39.453125 6.390625 43.28125 13.890625 
Q 47.125 21.390625 47.125 36.375 
Q 47.125 51.421875 43.28125 58.90625 
Q 39.453125 66.40625 31.78125 66.40625 
z
M 31.78125 74.21875 
Q 44.046875 74.21875 50.515625 64.515625 
Q 56.984375 54.828125 56.984375 36.375 
Q 56.984375 17.96875 50.515625 8.265625 
Q 44.046875 -1.421875 31.78125 -1.421875 
Q 19.53125 -1.421875 13.0625 8.265625 
Q 6.59375 17.96875 6.59375 36.375 
Q 6.59375 54.828125 13.0625 64.515625 
Q 19.53125 74.21875 31.78125 74.21875 
z
" id="DejaVuSans-48"/>
       </defs>
       <use xlink:href="#DejaVuSans-8722"/>
       <use x="83.789062" xlink:href="#DejaVuSans-52"/>
       <use x="147.412109" xlink:href="#DejaVuSans-48"/>
      </g>
     </g>
    </g>
    <g id="xtick_2">
     <g id="line2d_2">
      <g>
       <use style="stroke:#000000;stroke-width:0.8;" x="104.37179" xlink:href="#ma5839197be" y="307.584"/>
      </g>
     </g>
     <g id="text_2">
      <!-- −20 -->
      <g transform="translate(93.819447 322.182437)scale(0.1 -0.1)">
       <defs>
        <path d="M 19.1875 8.296875 
L 53.609375 8.296875 
L 53.609375 0 
L 7.328125 0 
L 7.328125 8.296875 
Q 12.9375 14.109375 22.625 23.890625 
Q 32.328125 33.6875 34.8125 36.53125 
Q 39.546875 41.84375 41.421875 45.53125 
Q 43.3125 49.21875 43.3125 52.78125 
Q 43.3125 58.59375 39.234375 62.25 
Q 35.15625 65.921875 28.609375 65.921875 
Q 23.96875 65.921875 18.8125 64.3125 
Q 13.671875 62.703125 7.8125 59.421875 
L 7.8125 69.390625 
Q 13.765625 71.78125 18.9375 73 
Q 24.125 74.21875 28.421875 74.21875 
Q 39.75 74.21875 46.484375 68.546875 
Q 53.21875 62.890625 53.21875 53.421875 
Q 53.21875 48.921875 51.53125 44.890625 
Q 49.859375 40.875 45.40625 35.40625 
Q 44.1875 33.984375 37.640625 27.21875 
Q 31.109375 20.453125 19.1875 8.296875 
z
" id="DejaVuSans-50"/>
       </defs>
       <use xlink:href="#DejaVuSans-8722"/>
       <use x="83.789062" xlink:href="#DejaVuSans-50"/>
       <use x="147.412109" xlink:href="#DejaVuSans-48"/>
      </g>
     </g>
    </g>
    <g id="xtick_3">
     <g id="line2d_3">
      <g>
       <use style="stroke:#000000;stroke-width:0.8;" x="148.798745" xlink:href="#ma5839197be" y="307.584"/>
      </g>
     </g>
     <g id="text_3">
      <!-- 0 -->
      <g transform="translate(145.617495 322.182437)scale(0.1 -0.1)">
       <use xlink:href="#DejaVuSans-48"/>
      </g>
     </g>
    </g>
    <g id="xtick_4">
     <g id="line2d_4">
      <g>
       <use style="stroke:#000000;stroke-width:0.8;" x="193.2257" xlink:href="#ma5839197be" y="307.584"/>
      </g>
     </g>
     <g id="text_4">
      <!-- 20 -->
      <g transform="translate(186.8632 322.182437)scale(0.1 -0.1)">
       <use xlink:href="#DejaVuSans-50"/>
       <use x="63.623047" xlink:href="#DejaVuSans-48"/>
      </g>
     </g>
    </g>
    <g id="xtick_5">
     <g id="line2d_5">
      <g>
       <use style="stroke:#000000;stroke-width:0.8;" x="237.652654" xlink:href="#ma5839197be" y="307.584"/>
      </g>
     </g>
     <g id="text_5">
      <!-- 40 -->
      <g transform="translate(231.290154 322.182437)scale(0.1 -0.1)">
       <use xlink:href="#DejaVuSans-52"/>
       <use x="63.623047" xlink:href="#DejaVuSans-48"/>
      </g>
     </g>
    </g>
    <g id="xtick_6">
     <g id="line2d_6">
      <g>
       <use style="stroke:#000000;stroke-width:0.8;" x="282.079609" xlink:href="#ma5839197be" y="307.584"/>
      </g>
     </g>
     <g id="text_6">
      <!-- 60 -->
      <g transform="translate(275.717109 322.182437)scale(0.1 -0.1)">
       <defs>
        <path d="M 33.015625 40.375 
Q 26.375 40.375 22.484375 35.828125 
Q 18.609375 31.296875 18.609375 23.390625 
Q 18.609375 15.53125 22.484375 10.953125 
Q 26.375 6.390625 33.015625 6.390625 
Q 39.65625 6.390625 43.53125 10.953125 
Q 47.40625 15.53125 47.40625 23.390625 
Q 47.40625 31.296875 43.53125 35.828125 
Q 39.65625 40.375 33.015625 40.375 
z
M 52.59375 71.296875 
L 52.59375 62.3125 
Q 48.875 64.0625 45.09375 64.984375 
Q 41.3125 65.921875 37.59375 65.921875 
Q 27.828125 65.921875 22.671875 59.328125 
Q 17.53125 52.734375 16.796875 39.40625 
Q 19.671875 43.65625 24.015625 45.921875 
Q 28.375 48.1875 33.59375 48.1875 
Q 44.578125 48.1875 50.953125 41.515625 
Q 57.328125 34.859375 57.328125 23.390625 
Q 57.328125 12.15625 50.6875 5.359375 
Q 44.046875 -1.421875 33.015625 -1.421875 
Q 20.359375 -1.421875 13.671875 8.265625 
Q 6.984375 17.96875 6.984375 36.375 
Q 6.984375 53.65625 15.1875 63.9375 
Q 23.390625 74.21875 37.203125 74.21875 
Q 40.921875 74.21875 44.703125 73.484375 
Q 48.484375 72.75 52.59375 71.296875 
z
" id="DejaVuSans-54"/>
       </defs>
       <use xlink:href="#DejaVuSans-54"/>
       <use x="63.623047" xlink:href="#DejaVuSans-48"/>
      </g>
     </g>
    </g>
    <g id="xtick_7">
     <g id="line2d_7">
      <g>
       <use style="stroke:#000000;stroke-width:0.8;" x="326.506563" xlink:href="#ma5839197be" y="307.584"/>
      </g>
     </g>
     <g id="text_7">
      <!-- 80 -->
      <g transform="translate(320.144063 322.182437)scale(0.1 -0.1)">
       <defs>
        <path d="M 31.78125 34.625 
Q 24.75 34.625 20.71875 30.859375 
Q 16.703125 27.09375 16.703125 20.515625 
Q 16.703125 13.921875 20.71875 10.15625 
Q 24.75 6.390625 31.78125 6.390625 
Q 38.8125 6.390625 42.859375 10.171875 
Q 46.921875 13.96875 46.921875 20.515625 
Q 46.921875 27.09375 42.890625 30.859375 
Q 38.875 34.625 31.78125 34.625 
z
M 21.921875 38.8125 
Q 15.578125 40.375 12.03125 44.71875 
Q 8.5 49.078125 8.5 55.328125 
Q 8.5 64.0625 14.71875 69.140625 
Q 20.953125 74.21875 31.78125 74.21875 
Q 42.671875 74.21875 48.875 69.140625 
Q 55.078125 64.0625 55.078125 55.328125 
Q 55.078125 49.078125 51.53125 44.71875 
Q 48 40.375 41.703125 38.8125 
Q 48.828125 37.15625 52.796875 32.3125 
Q 56.78125 27.484375 56.78125 20.515625 
Q 56.78125 9.90625 50.3125 4.234375 
Q 43.84375 -1.421875 31.78125 -1.421875 
Q 19.734375 -1.421875 13.25 4.234375 
Q 6.78125 9.90625 6.78125 20.515625 
Q 6.78125 27.484375 10.78125 32.3125 
Q 14.796875 37.15625 21.921875 38.8125 
z
M 18.3125 54.390625 
Q 18.3125 48.734375 21.84375 45.5625 
Q 25.390625 42.390625 31.78125 42.390625 
Q 38.140625 42.390625 41.71875 45.5625 
Q 45.3125 48.734375 45.3125 54.390625 
Q 45.3125 60.0625 41.71875 63.234375 
Q 38.140625 66.40625 31.78125 66.40625 
Q 25.390625 66.40625 21.84375 63.234375 
Q 18.3125 60.0625 18.3125 54.390625 
z
" id="DejaVuSans-56"/>
       </defs>
       <use xlink:href="#DejaVuSans-56"/>
       <use x="63.623047" xlink:href="#DejaVuSans-48"/>
      </g>
     </g>
    </g>
    <g id="xtick_8">
     <g id="line2d_8">
      <g>
       <use style="stroke:#000000;stroke-width:0.8;" x="370.933518" xlink:href="#ma5839197be" y="307.584"/>
      </g>
     </g>
     <g id="text_8">
      <!-- 100 -->
      <g transform="translate(361.389768 322.182437)scale(0.1 -0.1)">
       <defs>
        <path d="M 12.40625 8.296875 
L 28.515625 8.296875 
L 28.515625 63.921875 
L 10.984375 60.40625 
L 10.984375 69.390625 
L 28.421875 72.90625 
L 38.28125 72.90625 
L 38.28125 8.296875 
L 54.390625 8.296875 
L 54.390625 0 
L 12.40625 0 
z
" id="DejaVuSans-49"/>
       </defs>
       <use xlink:href="#DejaVuSans-49"/>
       <use x="63.623047" xlink:href="#DejaVuSans-48"/>
       <use x="127.246094" xlink:href="#DejaVuSans-48"/>
      </g>
     </g>
    </g>
   </g>
   <g id="matplotlib.axis_2">
    <g id="ytick_1">
     <g id="line2d_9">
      <defs>
       <path d="M 0 0 
L -3.5 0 
" id="m10629970dc" style="stroke:#000000;stroke-width:0.8;"/>
      </defs>
      <g>
       <use style="stroke:#000000;stroke-width:0.8;" x="57.6" xlink:href="#m10629970dc" y="273.114612"/>
      </g>
     </g>
     <g id="text_9">
      <!-- 20 -->
      <g transform="translate(37.875 276.91383)scale(0.1 -0.1)">
       <use xlink:href="#DejaVuSans-50"/>
       <use x="63.623047" xlink:href="#DejaVuSans-48"/>
      </g>
     </g>
    </g>
    <g id="ytick_2">
     <g id="line2d_10">
      <g>
       <use style="stroke:#000000;stroke-width:0.8;" x="57.6" xlink:href="#m10629970dc" y="228.687657"/>
      </g>
     </g>
     <g id="text_10">
      <!-- 40 -->
      <g transform="translate(37.875 232.486876)scale(0.1 -0.1)">
       <use xlink:href="#DejaVuSans-52"/>
       <use x="63.623047" xlink:href="#DejaVuSans-48"/>
      </g>
     </g>
    </g>
    <g id="ytick_3">
     <g id="line2d_11">
      <g>
       <use style="stroke:#000000;stroke-width:0.8;" x="57.6" xlink:href="#m10629970dc" y="184.260702"/>
      </g>
     </g>
     <g id="text_11">
      <!-- 60 -->
      <g transform="translate(37.875 188.059921)scale(0.1 -0.1)">
       <use xlink:href="#DejaVuSans-54"/>
       <use x="63.623047" xlink:href="#DejaVuSans-48"/>
      </g>
     </g>
    </g>
    <g id="ytick_4">
     <g id="line2d_12">
      <g>
       <use style="stroke:#000000;stroke-width:0.8;" x="57.6" xlink:href="#m10629970dc" y="139.833748"/>
      </g>
     </g>
     <g id="text_12">
      <!-- 80 -->
      <g transform="translate(37.875 143.632967)scale(0.1 -0.1)">
       <use xlink:href="#DejaVuSans-56"/>
       <use x="63.623047" xlink:href="#DejaVuSans-48"/>
      </g>
     </g>
    </g>
    <g id="ytick_5">
     <g id="line2d_13">
      <g>
       <use style="stroke:#000000;stroke-width:0.8;" x="57.6" xlink:href="#m10629970dc" y="95.406793"/>
      </g>
     </g>
     <g id="text_13">
      <!-- 100 -->
      <g transform="translate(31.5125 99.206012)scale(0.1 -0.1)">
       <use xlink:href="#DejaVuSans-49"/>
       <use x="63.623047" xlink:href="#DejaVuSans-48"/>
       <use x="127.246094" xlink:href="#DejaVuSans-48"/>
      </g>
     </g>
    </g>
    <g id="ytick_6">
     <g id="line2d_14">
      <g>
       <use style="stroke:#000000;stroke-width:0.8;" x="57.6" xlink:href="#m10629970dc" y="50.979839"/>
      </g>
     </g>
     <g id="text_14">
      <!-- 120 -->
      <g transform="translate(31.5125 54.779058)scale(0.1 -0.1)">
       <use xlink:href="#DejaVuSans-49"/>
       <use x="63.623047" xlink:href="#DejaVuSans-50"/>
       <use x="127.246094" xlink:href="#DejaVuSans-48"/>
      </g>
     </g>
    </g>
   </g>
   <g id="line2d_15">
    <path clip-path="url(#p92f225063f)" d="M 298.941859 295.328089 
L 298.84412 284.22135 
L 299.004057 270.893264 
L 299.477204 253.129146 
L 299.852612 237.588597 
L 299.837062 230.922333 
L 299.617149 224.244962 
L 299.117346 217.58314 
L 298.586444 213.1671 
L 297.868948 208.784381 
L 296.940425 204.446089 
L 295.805316 200.154445 
L 294.496942 195.905007 
L 292.291144 189.600822 
L 289.07019 181.297425 
L 285.871449 173.005134 
L 284.416466 168.811229 
L 283.128085 164.557348 
L 282.059617 160.22572 
L 281.233275 155.834116 
L 280.669053 151.402527 
L 280.38472 146.955389 
L 280.40027 142.510472 
L 280.715701 138.08999 
L 281.251046 133.685057 
L 283.467951 118.264461 
L 283.827809 113.82843 
L 283.965533 109.381292 
L 283.841137 104.931932 
L 283.421303 100.484794 
L 282.666044 96.048763 
L 281.546485 91.666044 
L 280.035969 87.409942 
L 279.127438 85.355195 
L 278.11006 83.358203 
L 276.983837 81.432295 
L 275.742104 79.584133 
L 274.38486 77.827047 
L 272.909885 76.163258 
L 271.323843 74.599429 
L 269.640061 73.131118 
L 267.862983 71.762768 
L 266.005937 70.489936 
L 264.080028 69.312622 
L 260.050503 67.251211 
L 255.856599 65.571872 
L 251.567176 64.272384 
L 247.204449 63.334975 
L 242.78841 62.741875 
L 238.334608 62.470871 
L 233.856371 62.504191 
L 229.378134 62.830729 
L 224.933217 63.47492 
L 220.568269 64.467862 
L 216.325495 65.847319 
L 214.261863 66.693653 
L 212.2471 67.646611 
L 210.281207 68.710636 
L 208.37307 69.883508 
L 206.52713 71.158562 
L 204.745609 72.529133 
L 203.035171 73.99078 
L 199.843094 77.165086 
L 198.372562 78.868859 
L 196.993105 80.639274 
L 195.704724 82.474107 
L 193.421178 86.310374 
L 191.499712 90.337678 
L 189.904785 94.51159 
L 188.603075 98.794349 
L 187.561263 103.139305 
L 186.741586 107.513138 
L 185.801955 114.10832 
L 183.576165 131.759149 
L 182.389965 138.329895 
L 181.414794 142.663745 
L 180.266357 146.946503 
L 178.913556 151.164843 
L 177.338621 155.305435 
L 175.512673 159.357173 
L 173.411278 163.306729 
L 171.012222 167.140776 
L 171.012222 167.140776 
" style="fill:none;stroke:#fea952;stroke-linecap:square;"/>
   </g>
   <g id="line2d_16">
    <path clip-path="url(#p92f225063f)" d="M 290.057907 295.488 
L 289.9588 284.185809 
L 290.120625 270.706712 
L 290.595809 252.862704 
L 290.967381 237.535286 
L 290.953812 231.117374 
L 290.747152 224.767769 
L 290.285653 218.558527 
L 289.80284 214.508176 
L 289.158165 210.537215 
L 288.326113 206.624115 
L 287.290512 202.693793 
L 285.407467 196.739896 
L 283.211647 190.706868 
L 276.704588 173.751314 
L 275.2141 169.169247 
L 273.908107 164.407423 
L 272.860837 159.554922 
L 272.084577 154.602881 
L 271.613511 149.595695 
L 271.470189 144.545268 
L 271.672345 139.532115 
L 272.152509 134.727354 
L 273.134558 127.912385 
L 274.386963 119.466518 
L 274.808657 115.426479 
L 275.04366 111.453982 
L 275.062057 107.545691 
L 274.839913 103.695122 
L 274.359792 99.926815 
L 273.597284 96.235452 
L 272.543331 92.692428 
L 271.21027 89.388635 
L 269.608522 86.387585 
L 267.736006 83.721359 
L 266.671429 82.490329 
L 264.219141 80.171274 
L 261.371588 78.07103 
L 258.235079 76.238799 
L 254.854027 74.684119 
L 251.322845 73.431985 
L 247.704904 72.482484 
L 243.98495 71.824195 
L 240.175815 71.44548 
L 236.308998 71.333757 
L 232.406005 71.480922 
L 228.590108 71.878184 
L 224.891473 72.546467 
L 221.376623 73.489874 
L 218.061008 74.725879 
L 214.934084 76.280373 
L 211.945073 78.201009 
L 209.144835 80.442305 
L 206.569537 82.970699 
L 204.264849 85.74534 
L 202.259647 88.722315 
L 200.517259 91.955056 
L 199.021177 95.423292 
L 197.761572 99.084032 
L 196.719907 102.917045 
L 195.878018 106.870782 
L 195.195133 110.951971 
L 194.361791 117.334088 
L 192.694888 130.884028 
L 191.537615 137.858166 
L 190.572558 142.537973 
L 189.419748 147.21143 
L 188.042245 151.883501 
L 186.414528 156.524682 
L 184.499841 161.12544 
L 182.270552 165.649939 
L 179.69527 170.091513 
L 178.455758 171.992987 
L 178.455758 171.992987 
" style="fill:none;stroke:#ffffff;stroke-linecap:square;"/>
   </g>
   <g id="line2d_17">
    <path clip-path="url(#p92f225063f)" d="M 307.825811 295.168178 
L 307.72944 284.256892 
L 307.887489 271.079816 
L 308.358599 253.395588 
L 308.737843 237.641909 
L 308.720312 230.727291 
L 308.487146 223.722155 
L 308.16817 218.993201 
L 307.6842 214.224866 
L 307.003703 209.440247 
L 306.096478 204.643568 
L 304.960859 199.92787 
L 303.638527 195.334487 
L 301.40324 188.658322 
L 298.973792 182.185488 
L 294.239395 170.017216 
L 292.281582 164.219322 
L 291.219618 160.393416 
L 290.369857 156.51602 
L 289.746668 152.640426 
L 289.364736 148.762221 
L 289.237054 144.918372 
L 289.376986 141.063904 
L 289.772032 137.041029 
L 290.691458 130.661193 
L 292.042472 121.487329 
L 292.535973 116.668634 
L 292.81188 111.75574 
L 292.815696 106.765312 
L 292.500274 101.717162 
L 291.816409 96.600078 
L 290.712985 91.45492 
L 289.989773 88.898182 
L 289.141305 86.343573 
L 288.16241 83.816737 
L 287.044605 81.321755 
L 285.780256 78.872864 
L 284.359152 76.477005 
L 282.773958 74.152449 
L 281.033714 71.932736 
L 279.148342 69.836187 
L 277.163647 67.902649 
L 275.060982 66.090962 
L 272.88639 64.433679 
L 270.640285 62.908842 
L 268.316482 61.502204 
L 265.944322 60.227295 
L 263.539048 59.079294 
L 261.084174 58.041224 
L 258.608316 57.123309 
L 253.609672 55.624934 
L 248.551541 54.552292 
L 243.478686 53.883337 
L 238.414017 53.585835 
L 233.35522 53.632944 
L 228.271714 54.014494 
L 223.144932 54.771345 
L 220.585578 55.305239 
L 218.02237 55.955015 
L 215.481599 56.725347 
L 212.953959 57.626436 
L 210.462717 58.661426 
L 208.017698 59.832372 
L 205.628331 61.1409 
L 203.323197 62.572629 
L 201.109187 64.116114 
L 198.973194 65.774179 
L 196.925507 67.539255 
L 194.982922 69.393495 
L 193.116652 71.359473 
L 191.363597 73.407671 
L 189.721362 75.533207 
L 188.182368 77.745012 
L 186.772958 80.006632 
L 185.486266 82.311957 
L 183.261455 87.008821 
L 181.447568 91.786585 
L 179.991348 96.606123 
L 178.845368 101.412069 
L 177.963561 106.136019 
L 176.98087 113.041253 
L 174.809048 130.314215 
L 173.702589 136.464508 
L 172.807398 140.458544 
L 171.77254 144.337815 
L 170.563905 148.126176 
L 169.179955 151.78601 
L 167.599221 155.316449 
L 165.792118 158.735233 
L 163.568687 162.288564 
L 163.568687 162.288564 
" style="fill:none;stroke:#ffffff;stroke-linecap:square;"/>
   </g>
   <g id="patch_3">
    <path d="M 57.6 307.584 
L 57.6 41.472 
" style="fill:none;stroke:#000000;stroke-linecap:square;stroke-linejoin:miter;stroke-width:0.8;"/>
   </g>
   <g id="patch_4">
    <path d="M 414.72 307.584 
L 414.72 41.472 
" style="fill:none;stroke:#000000;stroke-linecap:square;stroke-linejoin:miter;stroke-width:0.8;"/>
   </g>
   <g id="patch_5">
    <path d="M 57.6 307.584 
L 414.72 307.584 
" style="fill:none;stroke:#000000;stroke-linecap:square;stroke-linejoin:miter;stroke-width:0.8;"/>
   </g>
   <g id="patch_6">
    <path d="M 57.6 41.472 
L 414.72 41.472 
" style="fill:none;stroke:#000000;stroke-linecap:square;stroke-linejoin:miter;stroke-width:0.8;"/>
   </g>
  </g>
 </g>
 <defs>
  <clipPath id="p92f225063f">
   <rect height="266.112" width="357.12" x="57.6" y="41.472"/>
  </clipPath>
 </defs>
</svg>
