<?xml version="1.0" encoding="utf-8" standalone="no"?>
<!DOCTYPE svg PUBLIC "-//W3C//DTD SVG 1.1//EN"
  "http://www.w3.org/Graphics/SVG/1.1/DTD/svg11.dtd">
<!-- Created with matplotlib (https://matplotlib.org/) -->
<svg height="345.6pt" version="1.1" viewBox="0 0 460.8 345.6" width="460.8pt" xmlns="http://www.w3.org/2000/svg" xmlns:xlink="http://www.w3.org/1999/xlink">
 <metadata>
  <rdf:RDF xmlns:cc="http://creativecommons.org/ns#" xmlns:dc="http://purl.org/dc/elements/1.1/" xmlns:rdf="http://www.w3.org/1999/02/22-rdf-syntax-ns#">
   <cc:Work>
    <dc:type rdf:resource="http://purl.org/dc/dcmitype/StillImage"/>
    <dc:date>2021-01-25T10:16:37.986313</dc:date>
    <dc:format>image/svg+xml</dc:format>
    <dc:creator>
     <cc:Agent>
      <dc:title>Matplotlib v3.3.3, https://matplotlib.org/</dc:title>
     </cc:Agent>
    </dc:creator>
   </cc:Work>
  </rdf:RDF>
 </metadata>
 <defs>
  <style type="text/css">*{stroke-linecap:butt;stroke-linejoin:round;}</style>
 </defs>
 <g id="figure_1">
  <g id="patch_1">
   <path d="M 0 345.6 
L 460.8 345.6 
L 460.8 0 
L 0 0 
z
" style="fill:#ffffff;"/>
  </g>
  <g id="axes_1">
   <g id="patch_2">
    <path d="M 57.6 307.584 
L 414.72 307.584 
L 414.72 41.472 
L 57.6 41.472 
z
" style="fill:#7d9051;"/>
   </g>
   <g id="matplotlib.axis_1">
    <g id="xtick_1">
     <g id="line2d_1">
      <defs>
       <path d="M 0 0 
L 0 3.5 
" id="m6464355552" style="stroke:#000000;stroke-width:0.8;"/>
      </defs>
      <g>
       <use style="stroke:#000000;stroke-width:0.8;" x="88.541423" xlink:href="#m6464355552" y="307.584"/>
      </g>
     </g>
     <g id="text_1">
      <!-- −20 -->
      <g transform="translate(77.98908 322.182437)scale(0.1 -0.1)">
       <defs>
        <path d="M 10.59375 35.5 
L 73.1875 35.5 
L 73.1875 27.203125 
L 10.59375 27.203125 
z
" id="DejaVuSans-8722"/>
        <path d="M 19.1875 8.296875 
L 53.609375 8.296875 
L 53.609375 0 
L 7.328125 0 
L 7.328125 8.296875 
Q 12.9375 14.109375 22.625 23.890625 
Q 32.328125 33.6875 34.8125 36.53125 
Q 39.546875 41.84375 41.421875 45.53125 
Q 43.3125 49.21875 43.3125 52.78125 
Q 43.3125 58.59375 39.234375 62.25 
Q 35.15625 65.921875 28.609375 65.921875 
Q 23.96875 65.921875 18.8125 64.3125 
Q 13.671875 62.703125 7.8125 59.421875 
L 7.8125 69.390625 
Q 13.765625 71.78125 18.9375 73 
Q 24.125 74.21875 28.421875 74.21875 
Q 39.75 74.21875 46.484375 68.546875 
Q 53.21875 62.890625 53.21875 53.421875 
Q 53.21875 48.921875 51.53125 44.890625 
Q 49.859375 40.875 45.40625 35.40625 
Q 44.1875 33.984375 37.640625 27.21875 
Q 31.109375 20.453125 19.1875 8.296875 
z
" id="DejaVuSans-50"/>
        <path d="M 31.78125 66.40625 
Q 24.171875 66.40625 20.328125 58.90625 
Q 16.5 51.421875 16.5 36.375 
Q 16.5 21.390625 20.328125 13.890625 
Q 24.171875 6.390625 31.78125 6.390625 
Q 39.453125 6.390625 43.28125 13.890625 
Q 47.125 21.390625 47.125 36.375 
Q 47.125 51.421875 43.28125 58.90625 
Q 39.453125 66.40625 31.78125 66.40625 
z
M 31.78125 74.21875 
Q 44.046875 74.21875 50.515625 64.515625 
Q 56.984375 54.828125 56.984375 36.375 
Q 56.984375 17.96875 50.515625 8.265625 
Q 44.046875 -1.421875 31.78125 -1.421875 
Q 19.53125 -1.421875 13.0625 8.265625 
Q 6.59375 17.96875 6.59375 36.375 
Q 6.59375 54.828125 13.0625 64.515625 
Q 19.53125 74.21875 31.78125 74.21875 
z
" id="DejaVuSans-48"/>
       </defs>
       <use xlink:href="#DejaVuSans-8722"/>
       <use x="83.789062" xlink:href="#DejaVuSans-50"/>
       <use x="147.412109" xlink:href="#DejaVuSans-48"/>
      </g>
     </g>
    </g>
    <g id="xtick_2">
     <g id="line2d_2">
      <g>
       <use style="stroke:#000000;stroke-width:0.8;" x="128.456741" xlink:href="#m6464355552" y="307.584"/>
      </g>
     </g>
     <g id="text_2">
      <!-- 0 -->
      <g transform="translate(125.275491 322.182437)scale(0.1 -0.1)">
       <use xlink:href="#DejaVuSans-48"/>
      </g>
     </g>
    </g>
    <g id="xtick_3">
     <g id="line2d_3">
      <g>
       <use style="stroke:#000000;stroke-width:0.8;" x="168.372059" xlink:href="#m6464355552" y="307.584"/>
      </g>
     </g>
     <g id="text_3">
      <!-- 20 -->
      <g transform="translate(162.009559 322.182437)scale(0.1 -0.1)">
       <use xlink:href="#DejaVuSans-50"/>
       <use x="63.623047" xlink:href="#DejaVuSans-48"/>
      </g>
     </g>
    </g>
    <g id="xtick_4">
     <g id="line2d_4">
      <g>
       <use style="stroke:#000000;stroke-width:0.8;" x="208.287377" xlink:href="#m6464355552" y="307.584"/>
      </g>
     </g>
     <g id="text_4">
      <!-- 40 -->
      <g transform="translate(201.924877 322.182437)scale(0.1 -0.1)">
       <defs>
        <path d="M 37.796875 64.3125 
L 12.890625 25.390625 
L 37.796875 25.390625 
z
M 35.203125 72.90625 
L 47.609375 72.90625 
L 47.609375 25.390625 
L 58.015625 25.390625 
L 58.015625 17.1875 
L 47.609375 17.1875 
L 47.609375 0 
L 37.796875 0 
L 37.796875 17.1875 
L 4.890625 17.1875 
L 4.890625 26.703125 
z
" id="DejaVuSans-52"/>
       </defs>
       <use xlink:href="#DejaVuSans-52"/>
       <use x="63.623047" xlink:href="#DejaVuSans-48"/>
      </g>
     </g>
    </g>
    <g id="xtick_5">
     <g id="line2d_5">
      <g>
       <use style="stroke:#000000;stroke-width:0.8;" x="248.202695" xlink:href="#m6464355552" y="307.584"/>
      </g>
     </g>
     <g id="text_5">
      <!-- 60 -->
      <g transform="translate(241.840195 322.182437)scale(0.1 -0.1)">
       <defs>
        <path d="M 33.015625 40.375 
Q 26.375 40.375 22.484375 35.828125 
Q 18.609375 31.296875 18.609375 23.390625 
Q 18.609375 15.53125 22.484375 10.953125 
Q 26.375 6.390625 33.015625 6.390625 
Q 39.65625 6.390625 43.53125 10.953125 
Q 47.40625 15.53125 47.40625 23.390625 
Q 47.40625 31.296875 43.53125 35.828125 
Q 39.65625 40.375 33.015625 40.375 
z
M 52.59375 71.296875 
L 52.59375 62.3125 
Q 48.875 64.0625 45.09375 64.984375 
Q 41.3125 65.921875 37.59375 65.921875 
Q 27.828125 65.921875 22.671875 59.328125 
Q 17.53125 52.734375 16.796875 39.40625 
Q 19.671875 43.65625 24.015625 45.921875 
Q 28.375 48.1875 33.59375 48.1875 
Q 44.578125 48.1875 50.953125 41.515625 
Q 57.328125 34.859375 57.328125 23.390625 
Q 57.328125 12.15625 50.6875 5.359375 
Q 44.046875 -1.421875 33.015625 -1.421875 
Q 20.359375 -1.421875 13.671875 8.265625 
Q 6.984375 17.96875 6.984375 36.375 
Q 6.984375 53.65625 15.1875 63.9375 
Q 23.390625 74.21875 37.203125 74.21875 
Q 40.921875 74.21875 44.703125 73.484375 
Q 48.484375 72.75 52.59375 71.296875 
z
" id="DejaVuSans-54"/>
       </defs>
       <use xlink:href="#DejaVuSans-54"/>
       <use x="63.623047" xlink:href="#DejaVuSans-48"/>
      </g>
     </g>
    </g>
    <g id="xtick_6">
     <g id="line2d_6">
      <g>
       <use style="stroke:#000000;stroke-width:0.8;" x="288.118013" xlink:href="#m6464355552" y="307.584"/>
      </g>
     </g>
     <g id="text_6">
      <!-- 80 -->
      <g transform="translate(281.755513 322.182437)scale(0.1 -0.1)">
       <defs>
        <path d="M 31.78125 34.625 
Q 24.75 34.625 20.71875 30.859375 
Q 16.703125 27.09375 16.703125 20.515625 
Q 16.703125 13.921875 20.71875 10.15625 
Q 24.75 6.390625 31.78125 6.390625 
Q 38.8125 6.390625 42.859375 10.171875 
Q 46.921875 13.96875 46.921875 20.515625 
Q 46.921875 27.09375 42.890625 30.859375 
Q 38.875 34.625 31.78125 34.625 
z
M 21.921875 38.8125 
Q 15.578125 40.375 12.03125 44.71875 
Q 8.5 49.078125 8.5 55.328125 
Q 8.5 64.0625 14.71875 69.140625 
Q 20.953125 74.21875 31.78125 74.21875 
Q 42.671875 74.21875 48.875 69.140625 
Q 55.078125 64.0625 55.078125 55.328125 
Q 55.078125 49.078125 51.53125 44.71875 
Q 48 40.375 41.703125 38.8125 
Q 48.828125 37.15625 52.796875 32.3125 
Q 56.78125 27.484375 56.78125 20.515625 
Q 56.78125 9.90625 50.3125 4.234375 
Q 43.84375 -1.421875 31.78125 -1.421875 
Q 19.734375 -1.421875 13.25 4.234375 
Q 6.78125 9.90625 6.78125 20.515625 
Q 6.78125 27.484375 10.78125 32.3125 
Q 14.796875 37.15625 21.921875 38.8125 
z
M 18.3125 54.390625 
Q 18.3125 48.734375 21.84375 45.5625 
Q 25.390625 42.390625 31.78125 42.390625 
Q 38.140625 42.390625 41.71875 45.5625 
Q 45.3125 48.734375 45.3125 54.390625 
Q 45.3125 60.0625 41.71875 63.234375 
Q 38.140625 66.40625 31.78125 66.40625 
Q 25.390625 66.40625 21.84375 63.234375 
Q 18.3125 60.0625 18.3125 54.390625 
z
" id="DejaVuSans-56"/>
       </defs>
       <use xlink:href="#DejaVuSans-56"/>
       <use x="63.623047" xlink:href="#DejaVuSans-48"/>
      </g>
     </g>
    </g>
    <g id="xtick_7">
     <g id="line2d_7">
      <g>
       <use style="stroke:#000000;stroke-width:0.8;" x="328.033331" xlink:href="#m6464355552" y="307.584"/>
      </g>
     </g>
     <g id="text_7">
      <!-- 100 -->
      <g transform="translate(318.489581 322.182437)scale(0.1 -0.1)">
       <defs>
        <path d="M 12.40625 8.296875 
L 28.515625 8.296875 
L 28.515625 63.921875 
L 10.984375 60.40625 
L 10.984375 69.390625 
L 28.421875 72.90625 
L 38.28125 72.90625 
L 38.28125 8.296875 
L 54.390625 8.296875 
L 54.390625 0 
L 12.40625 0 
z
" id="DejaVuSans-49"/>
       </defs>
       <use xlink:href="#DejaVuSans-49"/>
       <use x="63.623047" xlink:href="#DejaVuSans-48"/>
       <use x="127.246094" xlink:href="#DejaVuSans-48"/>
      </g>
     </g>
    </g>
    <g id="xtick_8">
     <g id="line2d_8">
      <g>
       <use style="stroke:#000000;stroke-width:0.8;" x="367.948649" xlink:href="#m6464355552" y="307.584"/>
      </g>
     </g>
     <g id="text_8">
      <!-- 120 -->
      <g transform="translate(358.404899 322.182437)scale(0.1 -0.1)">
       <use xlink:href="#DejaVuSans-49"/>
       <use x="63.623047" xlink:href="#DejaVuSans-50"/>
       <use x="127.246094" xlink:href="#DejaVuSans-48"/>
      </g>
     </g>
    </g>
    <g id="xtick_9">
     <g id="line2d_9">
      <g>
       <use style="stroke:#000000;stroke-width:0.8;" x="407.863968" xlink:href="#m6464355552" y="307.584"/>
      </g>
     </g>
     <g id="text_9">
      <!-- 140 -->
      <g transform="translate(398.320218 322.182437)scale(0.1 -0.1)">
       <use xlink:href="#DejaVuSans-49"/>
       <use x="63.623047" xlink:href="#DejaVuSans-52"/>
       <use x="127.246094" xlink:href="#DejaVuSans-48"/>
      </g>
     </g>
    </g>
   </g>
   <g id="matplotlib.axis_2">
    <g id="ytick_1">
     <g id="line2d_10">
      <defs>
       <path d="M 0 0 
L -3.5 0 
" id="m4d2bf495b3" style="stroke:#000000;stroke-width:0.8;"/>
      </defs>
      <g>
       <use style="stroke:#000000;stroke-width:0.8;" x="57.6" xlink:href="#m4d2bf495b3" y="273.816635"/>
      </g>
     </g>
     <g id="text_10">
      <!-- 20 -->
      <g transform="translate(37.875 277.615854)scale(0.1 -0.1)">
       <use xlink:href="#DejaVuSans-50"/>
       <use x="63.623047" xlink:href="#DejaVuSans-48"/>
      </g>
     </g>
    </g>
    <g id="ytick_2">
     <g id="line2d_11">
      <g>
       <use style="stroke:#000000;stroke-width:0.8;" x="57.6" xlink:href="#m4d2bf495b3" y="233.901317"/>
      </g>
     </g>
     <g id="text_11">
      <!-- 40 -->
      <g transform="translate(37.875 237.700536)scale(0.1 -0.1)">
       <use xlink:href="#DejaVuSans-52"/>
       <use x="63.623047" xlink:href="#DejaVuSans-48"/>
      </g>
     </g>
    </g>
    <g id="ytick_3">
     <g id="line2d_12">
      <g>
       <use style="stroke:#000000;stroke-width:0.8;" x="57.6" xlink:href="#m4d2bf495b3" y="193.985999"/>
      </g>
     </g>
     <g id="text_12">
      <!-- 60 -->
      <g transform="translate(37.875 197.785218)scale(0.1 -0.1)">
       <use xlink:href="#DejaVuSans-54"/>
       <use x="63.623047" xlink:href="#DejaVuSans-48"/>
      </g>
     </g>
    </g>
    <g id="ytick_4">
     <g id="line2d_13">
      <g>
       <use style="stroke:#000000;stroke-width:0.8;" x="57.6" xlink:href="#m4d2bf495b3" y="154.070681"/>
      </g>
     </g>
     <g id="text_13">
      <!-- 80 -->
      <g transform="translate(37.875 157.8699)scale(0.1 -0.1)">
       <use xlink:href="#DejaVuSans-56"/>
       <use x="63.623047" xlink:href="#DejaVuSans-48"/>
      </g>
     </g>
    </g>
    <g id="ytick_5">
     <g id="line2d_14">
      <g>
       <use style="stroke:#000000;stroke-width:0.8;" x="57.6" xlink:href="#m4d2bf495b3" y="114.155363"/>
      </g>
     </g>
     <g id="text_14">
      <!-- 100 -->
      <g transform="translate(31.5125 117.954582)scale(0.1 -0.1)">
       <use xlink:href="#DejaVuSans-49"/>
       <use x="63.623047" xlink:href="#DejaVuSans-48"/>
       <use x="127.246094" xlink:href="#DejaVuSans-48"/>
      </g>
     </g>
    </g>
    <g id="ytick_6">
     <g id="line2d_15">
      <g>
       <use style="stroke:#000000;stroke-width:0.8;" x="57.6" xlink:href="#m4d2bf495b3" y="74.240045"/>
      </g>
     </g>
     <g id="text_15">
      <!-- 120 -->
      <g transform="translate(31.5125 78.039264)scale(0.1 -0.1)">
       <use xlink:href="#DejaVuSans-49"/>
       <use x="63.623047" xlink:href="#DejaVuSans-50"/>
       <use x="127.246094" xlink:href="#DejaVuSans-48"/>
      </g>
     </g>
    </g>
   </g>
   <g id="line2d_16">
    <path clip-path="url(#pa530a7315f)" d="M 322.734573 112.275352 
L 323.35326 108.437494 
L 323.674579 104.471907 
L 323.688549 100.430481 
L 323.383197 96.361114 
L 322.750539 92.317693 
L 321.778601 88.348114 
L 320.457404 84.506265 
L 318.772978 80.840043 
L 317.793057 79.089756 
L 316.719335 77.403334 
L 315.54782 75.786764 
L 314.280509 74.246032 
L 312.917401 72.787127 
L 311.462487 71.410049 
L 309.923752 70.120784 
L 306.626746 67.797713 
L 303.082266 65.825896 
L 299.350184 64.217309 
L 295.488377 62.977938 
L 291.540752 62.115767 
L 287.543233 61.640775 
L 283.521765 61.560944 
L 279.512271 61.880267 
L 275.542693 62.608721 
L 271.656936 63.744312 
L 267.908888 65.273069 
L 264.348442 67.183017 
L 262.658028 68.278692 
L 261.033474 69.464177 
L 259.48476 70.737476 
L 258.013881 72.098588 
L 255.307622 75.056313 
L 252.90472 78.281471 
L 250.789208 81.716184 
L 248.947116 85.310558 
L 247.364474 89.004721 
L 246.007353 92.76674 
L 244.829851 96.580648 
L 243.287124 102.366374 
L 238.922384 119.801385 
L 237.257915 125.547195 
L 235.403849 131.235128 
L 227.61637 153.901041 
L 225.941923 159.648847 
L 224.473039 165.444551 
L 222.796595 173.238017 
L 219.986557 186.956912 
L 218.515678 192.780556 
L 217.320214 196.594465 
L 215.895237 200.322556 
L 214.18287 203.942875 
L 212.173134 207.427482 
L 209.879999 210.74245 
L 207.325418 213.853849 
L 204.527354 216.729747 
L 201.507761 219.340209 
L 198.294578 221.691221 
L 194.929716 223.834674 
L 191.453092 225.824452 
L 184.32222 229.554539 
L 178.987538 232.35859 
L 175.522889 234.354356 
L 172.185968 236.525749 
L 169.022679 238.942622 
L 166.074933 241.650876 
L 163.372666 244.634546 
L 160.935836 247.851721 
L 158.786396 251.26448 
L 156.950291 254.834906 
L 155.435505 258.527073 
L 154.204117 262.321024 
L 153.204239 266.190814 
L 152.385975 270.120477 
L 151.3841 276.079834 
L 149.218694 289.924462 
L 148.4144 293.774294 
L 148.4144 293.774294 
" style="fill:none;stroke:#fea952;stroke-linecap:square;"/>
   </g>
   <g id="line2d_17">
    <path clip-path="url(#pa530a7315f)" d="M 314.880145 110.848024 
L 315.410055 107.640759 
L 315.693588 104.289981 
L 315.71749 100.868108 
L 315.471734 97.427916 
L 314.956844 94.046164 
L 314.170718 90.76667 
L 313.119811 87.650948 
L 311.8073 84.739869 
L 310.255215 82.087826 
L 308.447368 79.696149 
L 306.335479 77.529125 
L 303.891898 75.564924 
L 301.175961 73.839393 
L 298.253128 72.381278 
L 295.171741 71.207642 
L 292.007063 70.33685 
L 288.794971 69.777937 
L 285.573095 69.533931 
L 282.353025 69.607568 
L 279.160323 70.00643 
L 276.023879 70.727608 
L 272.973032 71.768017 
L 270.063133 73.111411 
L 267.363797 74.727339 
L 264.906773 76.596748 
L 262.650826 78.775319 
L 260.580733 81.25879 
L 258.695161 84.017929 
L 257.005223 87.006469 
L 255.513181 90.17024 
L 254.204989 93.486802 
L 253.050288 96.945029 
L 251.515783 102.404323 
L 248.664138 113.99282 
L 246.613178 121.94171 
L 244.872597 127.944261 
L 242.948017 133.845649 
L 235.256357 156.216188 
L 233.656101 161.703296 
L 232.256091 167.220335 
L 230.62494 174.80209 
L 227.761145 188.769392 
L 226.743779 192.953155 
L 225.527802 197.192235 
L 224.046782 201.447702 
L 222.222004 205.709276 
L 220.045634 209.836806 
L 217.531321 213.784521 
L 214.698069 217.517793 
L 211.553298 221.017106 
L 208.133099 224.21996 
L 204.521482 227.069328 
L 200.825364 229.575511 
L 197.097153 231.815589 
L 191.561176 234.809815 
L 181.303806 240.210548 
L 178.29775 242.032902 
L 175.561479 243.936884 
L 173.05649 246.010924 
L 170.725625 248.338925 
L 168.588115 250.893233 
L 166.66822 253.645724 
L 165.004881 256.529561 
L 163.600812 259.543477 
L 162.421744 262.745059 
L 161.433971 266.134357 
L 160.606828 269.697948 
L 159.583513 275.328655 
L 156.632463 293.572065 
L 156.211356 295.488 
L 156.211356 295.488 
" style="fill:none;stroke:#ffffff;stroke-linecap:square;"/>
   </g>
   <g id="line2d_18">
    <path clip-path="url(#pa530a7315f)" d="M 330.589001 113.702679 
L 331.296466 109.234229 
L 331.655569 104.653832 
L 331.659608 99.992854 
L 331.294659 95.294313 
L 330.544235 90.589221 
L 329.386485 85.929559 
L 328.647923 83.635341 
L 327.794997 81.361582 
L 326.826492 79.128778 
L 325.738655 76.940217 
L 324.527075 74.802298 
L 323.183454 72.718842 
L 321.713184 70.715512 
L 320.11365 68.795916 
L 318.405062 66.989294 
L 316.589495 65.290973 
L 314.699662 63.723911 
L 312.726456 62.265759 
L 310.681874 60.921286 
L 308.584942 59.696402 
L 306.418692 58.573478 
L 304.215246 57.570121 
L 301.968528 56.675851 
L 299.688773 55.893804 
L 297.3782 55.221787 
L 295.038032 54.661058 
L 292.671943 54.213254 
L 290.298992 53.882808 
L 287.899618 53.66567 
L 285.493899 53.568 
L 283.093866 53.589357 
L 280.675023 53.729863 
L 278.271675 53.994189 
L 275.88067 54.380775 
L 273.502917 54.89065 
L 271.149805 55.523641 
L 268.839238 56.27505 
L 266.552877 57.149576 
L 264.32616 58.13911 
L 262.138315 59.250874 
L 260.006386 60.484072 
L 257.952259 61.830046 
L 255.963598 63.297682 
L 254.062747 64.878203 
L 252.266609 66.557995 
L 250.594837 68.307734 
L 249.018577 70.13928 
L 246.197507 73.952198 
L 243.752766 77.945535 
L 241.661273 82.047768 
L 239.89199 86.195577 
L 238.404183 90.333406 
L 237.143195 94.425511 
L 235.536819 100.452718 
L 230.719498 119.502776 
L 229.069961 124.972676 
L 226.568148 132.330776 
L 221.227278 147.645326 
L 219.371714 153.583091 
L 217.691883 159.608507 
L 216.230491 165.684289 
L 214.575551 173.639466 
L 212.211969 185.144431 
L 210.864917 190.501267 
L 209.815688 193.872078 
L 208.610105 197.05818 
L 207.185809 200.099642 
L 205.515051 203.023026 
L 203.60634 205.8058 
L 201.48198 208.414773 
L 199.176842 210.805111 
L 196.679576 212.982699 
L 193.914444 215.017112 
L 190.892934 216.947462 
L 185.972959 219.710811 
L 173.17868 226.466474 
L 169.371191 228.795313 
L 165.597274 231.461635 
L 161.983245 234.50873 
L 158.658109 237.884629 
L 155.650535 241.537153 
L 152.980168 245.426571 
L 150.651976 249.535897 
L 148.70715 253.79056 
L 147.152018 258.081084 
L 145.920499 262.359518 
L 144.94347 266.603364 
L 143.811357 272.847464 
L 141.038551 290.144653 
L 140.617445 292.060588 
L 140.617445 292.060588 
" style="fill:none;stroke:#ffffff;stroke-linecap:square;"/>
   </g>
   <g id="patch_3">
    <path d="M 57.6 307.584 
L 57.6 41.472 
" style="fill:none;stroke:#000000;stroke-linecap:square;stroke-linejoin:miter;stroke-width:0.8;"/>
   </g>
   <g id="patch_4">
    <path d="M 414.72 307.584 
L 414.72 41.472 
" style="fill:none;stroke:#000000;stroke-linecap:square;stroke-linejoin:miter;stroke-width:0.8;"/>
   </g>
   <g id="patch_5">
    <path d="M 57.6 307.584 
L 414.72 307.584 
" style="fill:none;stroke:#000000;stroke-linecap:square;stroke-linejoin:miter;stroke-width:0.8;"/>
   </g>
   <g id="patch_6">
    <path d="M 57.6 41.472 
L 414.72 41.472 
" style="fill:none;stroke:#000000;stroke-linecap:square;stroke-linejoin:miter;stroke-width:0.8;"/>
   </g>
  </g>
 </g>
 <defs>
  <clipPath id="pa530a7315f">
   <rect height="266.112" width="357.12" x="57.6" y="41.472"/>
  </clipPath>
 </defs>
</svg>
