<?xml version="1.0" encoding="utf-8" standalone="no"?>
<!DOCTYPE svg PUBLIC "-//W3C//DTD SVG 1.1//EN"
  "http://www.w3.org/Graphics/SVG/1.1/DTD/svg11.dtd">
<!-- Created with matplotlib (https://matplotlib.org/) -->
<svg height="345.6pt" version="1.1" viewBox="0 0 460.8 345.6" width="460.8pt" xmlns="http://www.w3.org/2000/svg" xmlns:xlink="http://www.w3.org/1999/xlink">
 <metadata>
  <rdf:RDF xmlns:cc="http://creativecommons.org/ns#" xmlns:dc="http://purl.org/dc/elements/1.1/" xmlns:rdf="http://www.w3.org/1999/02/22-rdf-syntax-ns#">
   <cc:Work>
    <dc:type rdf:resource="http://purl.org/dc/dcmitype/StillImage"/>
    <dc:date>2021-01-23T11:33:33.523345</dc:date>
    <dc:format>image/svg+xml</dc:format>
    <dc:creator>
     <cc:Agent>
      <dc:title>Matplotlib v3.3.3, https://matplotlib.org/</dc:title>
     </cc:Agent>
    </dc:creator>
   </cc:Work>
  </rdf:RDF>
 </metadata>
 <defs>
  <style type="text/css">*{stroke-linecap:butt;stroke-linejoin:round;}</style>
 </defs>
 <g id="figure_1">
  <g id="patch_1">
   <path d="M 0 345.6 
L 460.8 345.6 
L 460.8 0 
L 0 0 
z
" style="fill:#ffffff;"/>
  </g>
  <g id="axes_1">
   <g id="patch_2">
    <path d="M 57.6 307.584 
L 414.72 307.584 
L 414.72 41.472 
L 57.6 41.472 
z
" style="fill:#7d9051;"/>
   </g>
   <g id="matplotlib.axis_1">
    <g id="xtick_1">
     <g id="line2d_1">
      <defs>
       <path d="M 0 0 
L 0 3.5 
" id="me460cdcb5d" style="stroke:#000000;stroke-width:0.8;"/>
      </defs>
      <g>
       <use style="stroke:#000000;stroke-width:0.8;" x="105.990057" xlink:href="#me460cdcb5d" y="307.584"/>
      </g>
     </g>
     <g id="text_1">
      <!-- 20 -->
      <g transform="translate(99.627557 322.182437)scale(0.1 -0.1)">
       <defs>
        <path d="M 19.1875 8.296875 
L 53.609375 8.296875 
L 53.609375 0 
L 7.328125 0 
L 7.328125 8.296875 
Q 12.9375 14.109375 22.625 23.890625 
Q 32.328125 33.6875 34.8125 36.53125 
Q 39.546875 41.84375 41.421875 45.53125 
Q 43.3125 49.21875 43.3125 52.78125 
Q 43.3125 58.59375 39.234375 62.25 
Q 35.15625 65.921875 28.609375 65.921875 
Q 23.96875 65.921875 18.8125 64.3125 
Q 13.671875 62.703125 7.8125 59.421875 
L 7.8125 69.390625 
Q 13.765625 71.78125 18.9375 73 
Q 24.125 74.21875 28.421875 74.21875 
Q 39.75 74.21875 46.484375 68.546875 
Q 53.21875 62.890625 53.21875 53.421875 
Q 53.21875 48.921875 51.53125 44.890625 
Q 49.859375 40.875 45.40625 35.40625 
Q 44.1875 33.984375 37.640625 27.21875 
Q 31.109375 20.453125 19.1875 8.296875 
z
" id="DejaVuSans-50"/>
        <path d="M 31.78125 66.40625 
Q 24.171875 66.40625 20.328125 58.90625 
Q 16.5 51.421875 16.5 36.375 
Q 16.5 21.390625 20.328125 13.890625 
Q 24.171875 6.390625 31.78125 6.390625 
Q 39.453125 6.390625 43.28125 13.890625 
Q 47.125 21.390625 47.125 36.375 
Q 47.125 51.421875 43.28125 58.90625 
Q 39.453125 66.40625 31.78125 66.40625 
z
M 31.78125 74.21875 
Q 44.046875 74.21875 50.515625 64.515625 
Q 56.984375 54.828125 56.984375 36.375 
Q 56.984375 17.96875 50.515625 8.265625 
Q 44.046875 -1.421875 31.78125 -1.421875 
Q 19.53125 -1.421875 13.0625 8.265625 
Q 6.59375 17.96875 6.59375 36.375 
Q 6.59375 54.828125 13.0625 64.515625 
Q 19.53125 74.21875 31.78125 74.21875 
z
" id="DejaVuSans-48"/>
       </defs>
       <use xlink:href="#DejaVuSans-50"/>
       <use x="63.623047" xlink:href="#DejaVuSans-48"/>
      </g>
     </g>
    </g>
    <g id="xtick_2">
     <g id="line2d_2">
      <g>
       <use style="stroke:#000000;stroke-width:0.8;" x="160.168003" xlink:href="#me460cdcb5d" y="307.584"/>
      </g>
     </g>
     <g id="text_2">
      <!-- 40 -->
      <g transform="translate(153.805503 322.182437)scale(0.1 -0.1)">
       <defs>
        <path d="M 37.796875 64.3125 
L 12.890625 25.390625 
L 37.796875 25.390625 
z
M 35.203125 72.90625 
L 47.609375 72.90625 
L 47.609375 25.390625 
L 58.015625 25.390625 
L 58.015625 17.1875 
L 47.609375 17.1875 
L 47.609375 0 
L 37.796875 0 
L 37.796875 17.1875 
L 4.890625 17.1875 
L 4.890625 26.703125 
z
" id="DejaVuSans-52"/>
       </defs>
       <use xlink:href="#DejaVuSans-52"/>
       <use x="63.623047" xlink:href="#DejaVuSans-48"/>
      </g>
     </g>
    </g>
    <g id="xtick_3">
     <g id="line2d_3">
      <g>
       <use style="stroke:#000000;stroke-width:0.8;" x="214.34595" xlink:href="#me460cdcb5d" y="307.584"/>
      </g>
     </g>
     <g id="text_3">
      <!-- 60 -->
      <g transform="translate(207.98345 322.182437)scale(0.1 -0.1)">
       <defs>
        <path d="M 33.015625 40.375 
Q 26.375 40.375 22.484375 35.828125 
Q 18.609375 31.296875 18.609375 23.390625 
Q 18.609375 15.53125 22.484375 10.953125 
Q 26.375 6.390625 33.015625 6.390625 
Q 39.65625 6.390625 43.53125 10.953125 
Q 47.40625 15.53125 47.40625 23.390625 
Q 47.40625 31.296875 43.53125 35.828125 
Q 39.65625 40.375 33.015625 40.375 
z
M 52.59375 71.296875 
L 52.59375 62.3125 
Q 48.875 64.0625 45.09375 64.984375 
Q 41.3125 65.921875 37.59375 65.921875 
Q 27.828125 65.921875 22.671875 59.328125 
Q 17.53125 52.734375 16.796875 39.40625 
Q 19.671875 43.65625 24.015625 45.921875 
Q 28.375 48.1875 33.59375 48.1875 
Q 44.578125 48.1875 50.953125 41.515625 
Q 57.328125 34.859375 57.328125 23.390625 
Q 57.328125 12.15625 50.6875 5.359375 
Q 44.046875 -1.421875 33.015625 -1.421875 
Q 20.359375 -1.421875 13.671875 8.265625 
Q 6.984375 17.96875 6.984375 36.375 
Q 6.984375 53.65625 15.1875 63.9375 
Q 23.390625 74.21875 37.203125 74.21875 
Q 40.921875 74.21875 44.703125 73.484375 
Q 48.484375 72.75 52.59375 71.296875 
z
" id="DejaVuSans-54"/>
       </defs>
       <use xlink:href="#DejaVuSans-54"/>
       <use x="63.623047" xlink:href="#DejaVuSans-48"/>
      </g>
     </g>
    </g>
    <g id="xtick_4">
     <g id="line2d_4">
      <g>
       <use style="stroke:#000000;stroke-width:0.8;" x="268.523897" xlink:href="#me460cdcb5d" y="307.584"/>
      </g>
     </g>
     <g id="text_4">
      <!-- 80 -->
      <g transform="translate(262.161397 322.182437)scale(0.1 -0.1)">
       <defs>
        <path d="M 31.78125 34.625 
Q 24.75 34.625 20.71875 30.859375 
Q 16.703125 27.09375 16.703125 20.515625 
Q 16.703125 13.921875 20.71875 10.15625 
Q 24.75 6.390625 31.78125 6.390625 
Q 38.8125 6.390625 42.859375 10.171875 
Q 46.921875 13.96875 46.921875 20.515625 
Q 46.921875 27.09375 42.890625 30.859375 
Q 38.875 34.625 31.78125 34.625 
z
M 21.921875 38.8125 
Q 15.578125 40.375 12.03125 44.71875 
Q 8.5 49.078125 8.5 55.328125 
Q 8.5 64.0625 14.71875 69.140625 
Q 20.953125 74.21875 31.78125 74.21875 
Q 42.671875 74.21875 48.875 69.140625 
Q 55.078125 64.0625 55.078125 55.328125 
Q 55.078125 49.078125 51.53125 44.71875 
Q 48 40.375 41.703125 38.8125 
Q 48.828125 37.15625 52.796875 32.3125 
Q 56.78125 27.484375 56.78125 20.515625 
Q 56.78125 9.90625 50.3125 4.234375 
Q 43.84375 -1.421875 31.78125 -1.421875 
Q 19.734375 -1.421875 13.25 4.234375 
Q 6.78125 9.90625 6.78125 20.515625 
Q 6.78125 27.484375 10.78125 32.3125 
Q 14.796875 37.15625 21.921875 38.8125 
z
M 18.3125 54.390625 
Q 18.3125 48.734375 21.84375 45.5625 
Q 25.390625 42.390625 31.78125 42.390625 
Q 38.140625 42.390625 41.71875 45.5625 
Q 45.3125 48.734375 45.3125 54.390625 
Q 45.3125 60.0625 41.71875 63.234375 
Q 38.140625 66.40625 31.78125 66.40625 
Q 25.390625 66.40625 21.84375 63.234375 
Q 18.3125 60.0625 18.3125 54.390625 
z
" id="DejaVuSans-56"/>
       </defs>
       <use xlink:href="#DejaVuSans-56"/>
       <use x="63.623047" xlink:href="#DejaVuSans-48"/>
      </g>
     </g>
    </g>
    <g id="xtick_5">
     <g id="line2d_5">
      <g>
       <use style="stroke:#000000;stroke-width:0.8;" x="322.701844" xlink:href="#me460cdcb5d" y="307.584"/>
      </g>
     </g>
     <g id="text_5">
      <!-- 100 -->
      <g transform="translate(313.158094 322.182437)scale(0.1 -0.1)">
       <defs>
        <path d="M 12.40625 8.296875 
L 28.515625 8.296875 
L 28.515625 63.921875 
L 10.984375 60.40625 
L 10.984375 69.390625 
L 28.421875 72.90625 
L 38.28125 72.90625 
L 38.28125 8.296875 
L 54.390625 8.296875 
L 54.390625 0 
L 12.40625 0 
z
" id="DejaVuSans-49"/>
       </defs>
       <use xlink:href="#DejaVuSans-49"/>
       <use x="63.623047" xlink:href="#DejaVuSans-48"/>
       <use x="127.246094" xlink:href="#DejaVuSans-48"/>
      </g>
     </g>
    </g>
    <g id="xtick_6">
     <g id="line2d_6">
      <g>
       <use style="stroke:#000000;stroke-width:0.8;" x="376.879791" xlink:href="#me460cdcb5d" y="307.584"/>
      </g>
     </g>
     <g id="text_6">
      <!-- 120 -->
      <g transform="translate(367.336041 322.182437)scale(0.1 -0.1)">
       <use xlink:href="#DejaVuSans-49"/>
       <use x="63.623047" xlink:href="#DejaVuSans-50"/>
       <use x="127.246094" xlink:href="#DejaVuSans-48"/>
      </g>
     </g>
    </g>
   </g>
   <g id="matplotlib.axis_2">
    <g id="ytick_1">
     <g id="line2d_7">
      <defs>
       <path d="M 0 0 
L -3.5 0 
" id="m819659c25a" style="stroke:#000000;stroke-width:0.8;"/>
      </defs>
      <g>
       <use style="stroke:#000000;stroke-width:0.8;" x="57.6" xlink:href="#m819659c25a" y="297.59591"/>
      </g>
     </g>
     <g id="text_7">
      <!-- 0 -->
      <g transform="translate(44.2375 301.395128)scale(0.1 -0.1)">
       <use xlink:href="#DejaVuSans-48"/>
      </g>
     </g>
    </g>
    <g id="ytick_2">
     <g id="line2d_8">
      <g>
       <use style="stroke:#000000;stroke-width:0.8;" x="57.6" xlink:href="#m819659c25a" y="243.417963"/>
      </g>
     </g>
     <g id="text_8">
      <!-- 20 -->
      <g transform="translate(37.875 247.217181)scale(0.1 -0.1)">
       <use xlink:href="#DejaVuSans-50"/>
       <use x="63.623047" xlink:href="#DejaVuSans-48"/>
      </g>
     </g>
    </g>
    <g id="ytick_3">
     <g id="line2d_9">
      <g>
       <use style="stroke:#000000;stroke-width:0.8;" x="57.6" xlink:href="#m819659c25a" y="189.240016"/>
      </g>
     </g>
     <g id="text_9">
      <!-- 40 -->
      <g transform="translate(37.875 193.039235)scale(0.1 -0.1)">
       <use xlink:href="#DejaVuSans-52"/>
       <use x="63.623047" xlink:href="#DejaVuSans-48"/>
      </g>
     </g>
    </g>
    <g id="ytick_4">
     <g id="line2d_10">
      <g>
       <use style="stroke:#000000;stroke-width:0.8;" x="57.6" xlink:href="#m819659c25a" y="135.062069"/>
      </g>
     </g>
     <g id="text_10">
      <!-- 60 -->
      <g transform="translate(37.875 138.861288)scale(0.1 -0.1)">
       <use xlink:href="#DejaVuSans-54"/>
       <use x="63.623047" xlink:href="#DejaVuSans-48"/>
      </g>
     </g>
    </g>
    <g id="ytick_5">
     <g id="line2d_11">
      <g>
       <use style="stroke:#000000;stroke-width:0.8;" x="57.6" xlink:href="#m819659c25a" y="80.884122"/>
      </g>
     </g>
     <g id="text_11">
      <!-- 80 -->
      <g transform="translate(37.875 84.683341)scale(0.1 -0.1)">
       <use xlink:href="#DejaVuSans-56"/>
       <use x="63.623047" xlink:href="#DejaVuSans-48"/>
      </g>
     </g>
    </g>
   </g>
   <g id="line2d_12">
    <path clip-path="url(#p0271f3d914)" d="M 386.883749 270.506936 
L 387.406566 265.04309 
L 387.636822 259.606333 
L 387.609733 254.193956 
L 387.355097 248.797833 
L 386.90542 243.417963 
L 385.938344 235.369829 
L 384.716631 227.337948 
L 382.403233 213.953286 
L 380.894377 205.937659 
L 379.729551 200.639056 
L 378.350722 195.405466 
L 376.692877 190.255852 
L 374.701837 185.214594 
L 372.383021 180.300655 
L 369.763518 175.527578 
L 366.870415 170.911616 
L 363.722676 166.474443 
L 360.350099 162.224183 
L 356.78519 158.139165 
L 353.065874 154.195011 
L 347.263416 148.487364 
L 339.29384 141.12729 
L 325.288841 128.354839 
L 315.561191 118.94413 
L 309.680174 113.331295 
L 303.612244 107.899955 
L 299.410745 104.446111 
L 295.062964 101.184599 
L 290.544524 98.172305 
L 285.841878 95.45799 
L 280.936065 93.093122 
L 278.405955 92.061033 
L 275.832502 91.13459 
L 273.221125 90.32192 
L 270.577241 89.628443 
L 267.900851 89.064992 
L 265.20008 88.634277 
L 262.480347 88.344425 
L 259.74707 88.200854 
L 257.002957 88.211689 
L 254.253426 88.379641 
L 251.512022 88.707418 
L 248.792289 89.195019 
L 246.102354 89.837028 
L 243.45847 90.636153 
L 240.874182 91.589684 
L 238.357616 92.694915 
L 235.922318 93.954552 
L 233.584539 95.365887 
L 231.352408 96.926212 
L 229.239468 98.632818 
L 227.243011 100.477577 
L 225.363036 102.444236 
L 223.591417 104.524669 
L 221.930863 106.702623 
L 220.378665 108.967261 
L 218.926696 111.307748 
L 216.326154 116.162092 
L 214.107567 121.165426 
L 212.205921 126.255444 
L 210.529114 131.405058 
L 205.019217 149.527581 
L 203.212382 154.636561 
L 201.221343 159.680528 
L 199.0163 164.640519 
L 196.564748 169.50299 
L 193.836889 174.240851 
L 190.800215 178.78909 
L 189.155914 180.969752 
L 187.42222 183.074566 
L 185.596423 185.095403 
L 183.673106 187.024138 
L 181.652268 188.847226 
L 179.525784 190.561958 
L 177.290944 192.154789 
L 174.961292 193.620303 
L 172.547664 194.955789 
L 170.055479 196.147704 
L 167.500989 197.198756 
L 164.895029 198.09811 
L 162.245728 198.840348 
L 159.563919 199.417343 
L 156.865858 199.829096 
L 154.15696 200.06477 
L 151.450772 200.121656 
L 148.747292 200.013301 
L 146.051939 199.753246 
L 143.367422 199.35233 
L 140.691032 198.829512 
L 135.387011 197.466937 
L 130.15613 195.782003 
L 125.017352 193.880357 
L 119.970676 191.83514 
L 112.548297 188.530285 
L 105.255945 185.0033 
L 95.661031 180.051436 
L 78.901083 171.12291 
L 78.901083 171.12291 
" style="fill:none;stroke:#fea952;stroke-linecap:square;"/>
   </g>
   <g id="line2d_13">
    <path clip-path="url(#p0271f3d914)" d="M 376.11301 269.323221 
L 376.587199 264.450396 
L 376.801428 259.541321 
L 376.781598 254.595803 
L 376.550221 249.61309 
L 376.131289 244.570392 
L 375.212745 236.909804 
L 374.029057 229.122816 
L 371.271294 213.272366 
L 369.770267 205.696496 
L 368.62682 200.899107 
L 367.301479 196.300252 
L 365.728001 191.865562 
L 363.852277 187.513636 
L 361.69066 183.251369 
L 359.251657 179.08348 
L 356.574425 175.059935 
L 353.660424 171.168908 
L 350.506257 167.376246 
L 347.125834 163.654149 
L 343.564795 159.998162 
L 337.924256 154.574685 
L 330.024727 147.359354 
L 317.813583 136.198978 
L 308.030403 126.734973 
L 302.344102 121.305756 
L 296.642626 116.196606 
L 292.801038 113.03225 
L 288.916041 110.107901 
L 284.964889 107.460883 
L 280.944344 105.123607 
L 276.843395 103.126071 
L 272.612741 101.480755 
L 268.344996 100.231606 
L 264.051794 99.408851 
L 261.911967 99.165097 
L 259.789856 99.036359 
L 257.663604 99.02712 
L 255.539823 99.138599 
L 253.42417 99.372955 
L 251.307773 99.73458 
L 249.23738 100.209183 
L 247.209329 100.801833 
L 245.231291 101.510652 
L 243.335734 102.319276 
L 241.522453 103.230784 
L 239.792554 104.246797 
L 238.160811 105.355663 
L 236.593068 106.591119 
L 235.075604 107.964931 
L 233.612733 109.469369 
L 232.208174 111.09441 
L 230.868568 112.828586 
L 228.374994 116.61243 
L 226.155007 120.723194 
L 224.206387 125.092744 
L 222.482207 129.691712 
L 220.901134 134.540532 
L 215.26358 153.05788 
L 213.330192 158.514694 
L 211.174094 163.964538 
L 208.757059 169.386847 
L 206.036757 174.765217 
L 202.953643 180.097026 
L 201.261351 182.718956 
L 199.451891 185.312777 
L 197.519612 187.85877 
L 195.462301 190.338661 
L 193.26911 192.746538 
L 190.931261 195.069582 
L 188.453916 197.282129 
L 185.814733 199.385739 
L 183.060612 201.326535 
L 180.207249 203.101333 
L 177.222739 204.730945 
L 174.178455 206.168236 
L 171.035915 207.441524 
L 167.818211 208.53195 
L 164.524867 209.433531 
L 161.198617 210.128915 
L 157.805006 210.623909 
L 154.384685 210.897966 
L 151.016828 210.948553 
L 147.706681 210.798806 
L 144.451458 210.469984 
L 141.290018 209.986914 
L 138.179352 209.36998 
L 132.192159 207.820821 
L 126.486662 205.977345 
L 121.024678 203.953517 
L 115.686666 201.787891 
L 107.920939 198.328119 
L 100.370995 194.675284 
L 90.5862 189.625154 
L 73.832727 180.700059 
L 73.832727 180.700059 
" style="fill:none;stroke:#ffffff;stroke-linecap:square;"/>
   </g>
   <g id="line2d_14">
    <path clip-path="url(#p0271f3d914)" d="M 397.654488 271.690651 
L 398.225933 265.635785 
L 398.472217 259.671346 
L 398.437869 253.79211 
L 398.159973 247.982576 
L 397.679551 242.265533 
L 396.663943 233.829854 
L 395.404205 225.55308 
L 393.067477 212.033938 
L 391.496046 203.698327 
L 390.2397 198.003384 
L 388.715795 192.247104 
L 386.834989 186.441725 
L 384.570262 180.739755 
L 381.959909 175.231806 
L 379.026327 169.905268 
L 375.792149 164.762416 
L 372.295527 159.84751 
L 368.593869 155.192095 
L 364.73392 150.77522 
L 360.765549 146.571035 
L 354.694806 140.601653 
L 346.550243 133.080265 
L 332.764099 120.5107 
L 323.091978 111.153287 
L 317.016247 105.356833 
L 312.771358 101.504419 
L 308.320402 97.706771 
L 303.65089 94.040103 
L 298.697955 90.537014 
L 293.469712 87.296903 
L 290.739412 85.792372 
L 287.926068 84.376369 
L 285.028734 83.060174 
L 282.07618 81.865963 
L 279.052263 80.788424 
L 275.970252 79.840876 
L 272.809486 79.025279 
L 269.607329 78.364622 
L 266.348366 77.859704 
L 263.048727 77.523754 
L 259.704284 77.365349 
L 256.34231 77.396259 
L 252.967029 77.620683 
L 249.599874 78.04188 
L 246.276805 78.655459 
L 242.967327 79.464873 
L 239.707611 80.470472 
L 236.517073 81.668717 
L 233.379498 83.070553 
L 230.322182 84.67832 
L 227.376525 86.484978 
L 224.544005 88.496761 
L 221.885868 90.674516 
L 219.410417 92.990222 
L 217.113339 95.419103 
L 214.97466 97.954928 
L 212.993158 100.57666 
L 211.170996 103.255096 
L 209.478397 106.003066 
L 207.926881 108.783841 
L 206.497301 111.600991 
L 204.008747 117.238107 
L 201.929635 122.819175 
L 200.157094 128.269583 
L 194.774853 145.997282 
L 193.094572 150.758428 
L 191.268592 155.396518 
L 189.275542 159.894192 
L 187.092739 164.240762 
L 184.720134 168.384677 
L 182.148538 172.265403 
L 179.382138 175.81047 
L 176.41495 178.978693 
L 174.850621 180.412323 
L 173.236834 181.738177 
L 171.521275 182.983043 
L 169.715335 184.139273 
L 167.87259 185.180633 
L 165.932503 186.127172 
L 163.966062 186.955988 
L 161.971847 187.664271 
L 159.966588 188.247165 
L 157.929222 188.705772 
L 155.926709 189.034282 
L 153.929235 189.231574 
L 151.884716 189.29476 
L 149.787904 189.227795 
L 147.652421 189.036509 
L 143.202711 188.289045 
L 138.581862 187.113053 
L 133.825597 185.586661 
L 129.010025 183.807197 
L 124.254686 181.882388 
L 117.175655 178.732451 
L 110.140895 175.331317 
L 100.735862 170.477718 
L 83.969439 161.545762 
L 83.969439 161.545762 
" style="fill:none;stroke:#ffffff;stroke-linecap:square;"/>
   </g>
   <g id="patch_3">
    <path d="M 57.6 307.584 
L 57.6 41.472 
" style="fill:none;stroke:#000000;stroke-linecap:square;stroke-linejoin:miter;stroke-width:0.8;"/>
   </g>
   <g id="patch_4">
    <path d="M 414.72 307.584 
L 414.72 41.472 
" style="fill:none;stroke:#000000;stroke-linecap:square;stroke-linejoin:miter;stroke-width:0.8;"/>
   </g>
   <g id="patch_5">
    <path d="M 57.6 307.584 
L 414.72 307.584 
" style="fill:none;stroke:#000000;stroke-linecap:square;stroke-linejoin:miter;stroke-width:0.8;"/>
   </g>
   <g id="patch_6">
    <path d="M 57.6 41.472 
L 414.72 41.472 
" style="fill:none;stroke:#000000;stroke-linecap:square;stroke-linejoin:miter;stroke-width:0.8;"/>
   </g>
  </g>
 </g>
 <defs>
  <clipPath id="p0271f3d914">
   <rect height="266.112" width="357.12" x="57.6" y="41.472"/>
  </clipPath>
 </defs>
</svg>
