<?xml version="1.0" encoding="utf-8" standalone="no"?>
<!DOCTYPE svg PUBLIC "-//W3C//DTD SVG 1.1//EN"
  "http://www.w3.org/Graphics/SVG/1.1/DTD/svg11.dtd">
<!-- Created with matplotlib (https://matplotlib.org/) -->
<svg height="345.6pt" version="1.1" viewBox="0 0 460.8 345.6" width="460.8pt" xmlns="http://www.w3.org/2000/svg" xmlns:xlink="http://www.w3.org/1999/xlink">
 <metadata>
  <rdf:RDF xmlns:cc="http://creativecommons.org/ns#" xmlns:dc="http://purl.org/dc/elements/1.1/" xmlns:rdf="http://www.w3.org/1999/02/22-rdf-syntax-ns#">
   <cc:Work>
    <dc:type rdf:resource="http://purl.org/dc/dcmitype/StillImage"/>
    <dc:date>2021-01-25T12:58:13.302168</dc:date>
    <dc:format>image/svg+xml</dc:format>
    <dc:creator>
     <cc:Agent>
      <dc:title>Matplotlib v3.3.3, https://matplotlib.org/</dc:title>
     </cc:Agent>
    </dc:creator>
   </cc:Work>
  </rdf:RDF>
 </metadata>
 <defs>
  <style type="text/css">*{stroke-linecap:butt;stroke-linejoin:round;}</style>
 </defs>
 <g id="figure_1">
  <g id="patch_1">
   <path d="M 0 345.6 
L 460.8 345.6 
L 460.8 0 
L 0 0 
z
" style="fill:#ffffff;"/>
  </g>
  <g id="axes_1">
   <g id="patch_2">
    <path d="M 57.6 307.584 
L 414.72 307.584 
L 414.72 41.472 
L 57.6 41.472 
z
" style="fill:#7d9051;"/>
   </g>
   <g id="matplotlib.axis_1">
    <g id="xtick_1">
     <g id="line2d_1">
      <defs>
       <path d="M 0 0 
L 0 3.5 
" id="m7370afd35f" style="stroke:#000000;stroke-width:0.8;"/>
      </defs>
      <g>
       <use style="stroke:#000000;stroke-width:0.8;" x="128.578442" xlink:href="#m7370afd35f" y="307.584"/>
      </g>
     </g>
     <g id="text_1">
      <!-- 20 -->
      <g transform="translate(122.215942 322.182437)scale(0.1 -0.1)">
       <defs>
        <path d="M 19.1875 8.296875 
L 53.609375 8.296875 
L 53.609375 0 
L 7.328125 0 
L 7.328125 8.296875 
Q 12.9375 14.109375 22.625 23.890625 
Q 32.328125 33.6875 34.8125 36.53125 
Q 39.546875 41.84375 41.421875 45.53125 
Q 43.3125 49.21875 43.3125 52.78125 
Q 43.3125 58.59375 39.234375 62.25 
Q 35.15625 65.921875 28.609375 65.921875 
Q 23.96875 65.921875 18.8125 64.3125 
Q 13.671875 62.703125 7.8125 59.421875 
L 7.8125 69.390625 
Q 13.765625 71.78125 18.9375 73 
Q 24.125 74.21875 28.421875 74.21875 
Q 39.75 74.21875 46.484375 68.546875 
Q 53.21875 62.890625 53.21875 53.421875 
Q 53.21875 48.921875 51.53125 44.890625 
Q 49.859375 40.875 45.40625 35.40625 
Q 44.1875 33.984375 37.640625 27.21875 
Q 31.109375 20.453125 19.1875 8.296875 
z
" id="DejaVuSans-50"/>
        <path d="M 31.78125 66.40625 
Q 24.171875 66.40625 20.328125 58.90625 
Q 16.5 51.421875 16.5 36.375 
Q 16.5 21.390625 20.328125 13.890625 
Q 24.171875 6.390625 31.78125 6.390625 
Q 39.453125 6.390625 43.28125 13.890625 
Q 47.125 21.390625 47.125 36.375 
Q 47.125 51.421875 43.28125 58.90625 
Q 39.453125 66.40625 31.78125 66.40625 
z
M 31.78125 74.21875 
Q 44.046875 74.21875 50.515625 64.515625 
Q 56.984375 54.828125 56.984375 36.375 
Q 56.984375 17.96875 50.515625 8.265625 
Q 44.046875 -1.421875 31.78125 -1.421875 
Q 19.53125 -1.421875 13.0625 8.265625 
Q 6.59375 17.96875 6.59375 36.375 
Q 6.59375 54.828125 13.0625 64.515625 
Q 19.53125 74.21875 31.78125 74.21875 
z
" id="DejaVuSans-48"/>
       </defs>
       <use xlink:href="#DejaVuSans-50"/>
       <use x="63.623047" xlink:href="#DejaVuSans-48"/>
      </g>
     </g>
    </g>
    <g id="xtick_2">
     <g id="line2d_2">
      <g>
       <use style="stroke:#000000;stroke-width:0.8;" x="204.102391" xlink:href="#m7370afd35f" y="307.584"/>
      </g>
     </g>
     <g id="text_2">
      <!-- 40 -->
      <g transform="translate(197.739891 322.182437)scale(0.1 -0.1)">
       <defs>
        <path d="M 37.796875 64.3125 
L 12.890625 25.390625 
L 37.796875 25.390625 
z
M 35.203125 72.90625 
L 47.609375 72.90625 
L 47.609375 25.390625 
L 58.015625 25.390625 
L 58.015625 17.1875 
L 47.609375 17.1875 
L 47.609375 0 
L 37.796875 0 
L 37.796875 17.1875 
L 4.890625 17.1875 
L 4.890625 26.703125 
z
" id="DejaVuSans-52"/>
       </defs>
       <use xlink:href="#DejaVuSans-52"/>
       <use x="63.623047" xlink:href="#DejaVuSans-48"/>
      </g>
     </g>
    </g>
    <g id="xtick_3">
     <g id="line2d_3">
      <g>
       <use style="stroke:#000000;stroke-width:0.8;" x="279.626341" xlink:href="#m7370afd35f" y="307.584"/>
      </g>
     </g>
     <g id="text_3">
      <!-- 60 -->
      <g transform="translate(273.263841 322.182437)scale(0.1 -0.1)">
       <defs>
        <path d="M 33.015625 40.375 
Q 26.375 40.375 22.484375 35.828125 
Q 18.609375 31.296875 18.609375 23.390625 
Q 18.609375 15.53125 22.484375 10.953125 
Q 26.375 6.390625 33.015625 6.390625 
Q 39.65625 6.390625 43.53125 10.953125 
Q 47.40625 15.53125 47.40625 23.390625 
Q 47.40625 31.296875 43.53125 35.828125 
Q 39.65625 40.375 33.015625 40.375 
z
M 52.59375 71.296875 
L 52.59375 62.3125 
Q 48.875 64.0625 45.09375 64.984375 
Q 41.3125 65.921875 37.59375 65.921875 
Q 27.828125 65.921875 22.671875 59.328125 
Q 17.53125 52.734375 16.796875 39.40625 
Q 19.671875 43.65625 24.015625 45.921875 
Q 28.375 48.1875 33.59375 48.1875 
Q 44.578125 48.1875 50.953125 41.515625 
Q 57.328125 34.859375 57.328125 23.390625 
Q 57.328125 12.15625 50.6875 5.359375 
Q 44.046875 -1.421875 33.015625 -1.421875 
Q 20.359375 -1.421875 13.671875 8.265625 
Q 6.984375 17.96875 6.984375 36.375 
Q 6.984375 53.65625 15.1875 63.9375 
Q 23.390625 74.21875 37.203125 74.21875 
Q 40.921875 74.21875 44.703125 73.484375 
Q 48.484375 72.75 52.59375 71.296875 
z
" id="DejaVuSans-54"/>
       </defs>
       <use xlink:href="#DejaVuSans-54"/>
       <use x="63.623047" xlink:href="#DejaVuSans-48"/>
      </g>
     </g>
    </g>
    <g id="xtick_4">
     <g id="line2d_4">
      <g>
       <use style="stroke:#000000;stroke-width:0.8;" x="355.150291" xlink:href="#m7370afd35f" y="307.584"/>
      </g>
     </g>
     <g id="text_4">
      <!-- 80 -->
      <g transform="translate(348.787791 322.182437)scale(0.1 -0.1)">
       <defs>
        <path d="M 31.78125 34.625 
Q 24.75 34.625 20.71875 30.859375 
Q 16.703125 27.09375 16.703125 20.515625 
Q 16.703125 13.921875 20.71875 10.15625 
Q 24.75 6.390625 31.78125 6.390625 
Q 38.8125 6.390625 42.859375 10.171875 
Q 46.921875 13.96875 46.921875 20.515625 
Q 46.921875 27.09375 42.890625 30.859375 
Q 38.875 34.625 31.78125 34.625 
z
M 21.921875 38.8125 
Q 15.578125 40.375 12.03125 44.71875 
Q 8.5 49.078125 8.5 55.328125 
Q 8.5 64.0625 14.71875 69.140625 
Q 20.953125 74.21875 31.78125 74.21875 
Q 42.671875 74.21875 48.875 69.140625 
Q 55.078125 64.0625 55.078125 55.328125 
Q 55.078125 49.078125 51.53125 44.71875 
Q 48 40.375 41.703125 38.8125 
Q 48.828125 37.15625 52.796875 32.3125 
Q 56.78125 27.484375 56.78125 20.515625 
Q 56.78125 9.90625 50.3125 4.234375 
Q 43.84375 -1.421875 31.78125 -1.421875 
Q 19.734375 -1.421875 13.25 4.234375 
Q 6.78125 9.90625 6.78125 20.515625 
Q 6.78125 27.484375 10.78125 32.3125 
Q 14.796875 37.15625 21.921875 38.8125 
z
M 18.3125 54.390625 
Q 18.3125 48.734375 21.84375 45.5625 
Q 25.390625 42.390625 31.78125 42.390625 
Q 38.140625 42.390625 41.71875 45.5625 
Q 45.3125 48.734375 45.3125 54.390625 
Q 45.3125 60.0625 41.71875 63.234375 
Q 38.140625 66.40625 31.78125 66.40625 
Q 25.390625 66.40625 21.84375 63.234375 
Q 18.3125 60.0625 18.3125 54.390625 
z
" id="DejaVuSans-56"/>
       </defs>
       <use xlink:href="#DejaVuSans-56"/>
       <use x="63.623047" xlink:href="#DejaVuSans-48"/>
      </g>
     </g>
    </g>
   </g>
   <g id="matplotlib.axis_2">
    <g id="ytick_1">
     <g id="line2d_5">
      <defs>
       <path d="M 0 0 
L -3.5 0 
" id="me82123cabc" style="stroke:#000000;stroke-width:0.8;"/>
      </defs>
      <g>
       <use style="stroke:#000000;stroke-width:0.8;" x="57.6" xlink:href="#me82123cabc" y="307.533004"/>
      </g>
     </g>
     <g id="text_5">
      <!-- 0 -->
      <g transform="translate(44.2375 311.332223)scale(0.1 -0.1)">
       <use xlink:href="#DejaVuSans-48"/>
      </g>
     </g>
    </g>
    <g id="ytick_2">
     <g id="line2d_6">
      <g>
       <use style="stroke:#000000;stroke-width:0.8;" x="57.6" xlink:href="#me82123cabc" y="269.771029"/>
      </g>
     </g>
     <g id="text_6">
      <!-- 10 -->
      <g transform="translate(37.875 273.570248)scale(0.1 -0.1)">
       <defs>
        <path d="M 12.40625 8.296875 
L 28.515625 8.296875 
L 28.515625 63.921875 
L 10.984375 60.40625 
L 10.984375 69.390625 
L 28.421875 72.90625 
L 38.28125 72.90625 
L 38.28125 8.296875 
L 54.390625 8.296875 
L 54.390625 0 
L 12.40625 0 
z
" id="DejaVuSans-49"/>
       </defs>
       <use xlink:href="#DejaVuSans-49"/>
       <use x="63.623047" xlink:href="#DejaVuSans-48"/>
      </g>
     </g>
    </g>
    <g id="ytick_3">
     <g id="line2d_7">
      <g>
       <use style="stroke:#000000;stroke-width:0.8;" x="57.6" xlink:href="#me82123cabc" y="232.009055"/>
      </g>
     </g>
     <g id="text_7">
      <!-- 20 -->
      <g transform="translate(37.875 235.808273)scale(0.1 -0.1)">
       <use xlink:href="#DejaVuSans-50"/>
       <use x="63.623047" xlink:href="#DejaVuSans-48"/>
      </g>
     </g>
    </g>
    <g id="ytick_4">
     <g id="line2d_8">
      <g>
       <use style="stroke:#000000;stroke-width:0.8;" x="57.6" xlink:href="#me82123cabc" y="194.24708"/>
      </g>
     </g>
     <g id="text_8">
      <!-- 30 -->
      <g transform="translate(37.875 198.046298)scale(0.1 -0.1)">
       <defs>
        <path d="M 40.578125 39.3125 
Q 47.65625 37.796875 51.625 33 
Q 55.609375 28.21875 55.609375 21.1875 
Q 55.609375 10.40625 48.1875 4.484375 
Q 40.765625 -1.421875 27.09375 -1.421875 
Q 22.515625 -1.421875 17.65625 -0.515625 
Q 12.796875 0.390625 7.625 2.203125 
L 7.625 11.71875 
Q 11.71875 9.328125 16.59375 8.109375 
Q 21.484375 6.890625 26.8125 6.890625 
Q 36.078125 6.890625 40.9375 10.546875 
Q 45.796875 14.203125 45.796875 21.1875 
Q 45.796875 27.640625 41.28125 31.265625 
Q 36.765625 34.90625 28.71875 34.90625 
L 20.21875 34.90625 
L 20.21875 43.015625 
L 29.109375 43.015625 
Q 36.375 43.015625 40.234375 45.921875 
Q 44.09375 48.828125 44.09375 54.296875 
Q 44.09375 59.90625 40.109375 62.90625 
Q 36.140625 65.921875 28.71875 65.921875 
Q 24.65625 65.921875 20.015625 65.03125 
Q 15.375 64.15625 9.8125 62.3125 
L 9.8125 71.09375 
Q 15.4375 72.65625 20.34375 73.4375 
Q 25.25 74.21875 29.59375 74.21875 
Q 40.828125 74.21875 47.359375 69.109375 
Q 53.90625 64.015625 53.90625 55.328125 
Q 53.90625 49.265625 50.4375 45.09375 
Q 46.96875 40.921875 40.578125 39.3125 
z
" id="DejaVuSans-51"/>
       </defs>
       <use xlink:href="#DejaVuSans-51"/>
       <use x="63.623047" xlink:href="#DejaVuSans-48"/>
      </g>
     </g>
    </g>
    <g id="ytick_5">
     <g id="line2d_9">
      <g>
       <use style="stroke:#000000;stroke-width:0.8;" x="57.6" xlink:href="#me82123cabc" y="156.485105"/>
      </g>
     </g>
     <g id="text_9">
      <!-- 40 -->
      <g transform="translate(37.875 160.284324)scale(0.1 -0.1)">
       <use xlink:href="#DejaVuSans-52"/>
       <use x="63.623047" xlink:href="#DejaVuSans-48"/>
      </g>
     </g>
    </g>
    <g id="ytick_6">
     <g id="line2d_10">
      <g>
       <use style="stroke:#000000;stroke-width:0.8;" x="57.6" xlink:href="#me82123cabc" y="118.72313"/>
      </g>
     </g>
     <g id="text_10">
      <!-- 50 -->
      <g transform="translate(37.875 122.522349)scale(0.1 -0.1)">
       <defs>
        <path d="M 10.796875 72.90625 
L 49.515625 72.90625 
L 49.515625 64.59375 
L 19.828125 64.59375 
L 19.828125 46.734375 
Q 21.96875 47.46875 24.109375 47.828125 
Q 26.265625 48.1875 28.421875 48.1875 
Q 40.625 48.1875 47.75 41.5 
Q 54.890625 34.8125 54.890625 23.390625 
Q 54.890625 11.625 47.5625 5.09375 
Q 40.234375 -1.421875 26.90625 -1.421875 
Q 22.3125 -1.421875 17.546875 -0.640625 
Q 12.796875 0.140625 7.71875 1.703125 
L 7.71875 11.625 
Q 12.109375 9.234375 16.796875 8.0625 
Q 21.484375 6.890625 26.703125 6.890625 
Q 35.15625 6.890625 40.078125 11.328125 
Q 45.015625 15.765625 45.015625 23.390625 
Q 45.015625 31 40.078125 35.4375 
Q 35.15625 39.890625 26.703125 39.890625 
Q 22.75 39.890625 18.8125 39.015625 
Q 14.890625 38.140625 10.796875 36.28125 
z
" id="DejaVuSans-53"/>
       </defs>
       <use xlink:href="#DejaVuSans-53"/>
       <use x="63.623047" xlink:href="#DejaVuSans-48"/>
      </g>
     </g>
    </g>
    <g id="ytick_7">
     <g id="line2d_11">
      <g>
       <use style="stroke:#000000;stroke-width:0.8;" x="57.6" xlink:href="#me82123cabc" y="80.961155"/>
      </g>
     </g>
     <g id="text_11">
      <!-- 60 -->
      <g transform="translate(37.875 84.760374)scale(0.1 -0.1)">
       <use xlink:href="#DejaVuSans-54"/>
       <use x="63.623047" xlink:href="#DejaVuSans-48"/>
      </g>
     </g>
    </g>
    <g id="ytick_8">
     <g id="line2d_12">
      <g>
       <use style="stroke:#000000;stroke-width:0.8;" x="57.6" xlink:href="#me82123cabc" y="43.19918"/>
      </g>
     </g>
     <g id="text_12">
      <!-- 70 -->
      <g transform="translate(37.875 46.998399)scale(0.1 -0.1)">
       <defs>
        <path d="M 8.203125 72.90625 
L 55.078125 72.90625 
L 55.078125 68.703125 
L 28.609375 0 
L 18.3125 0 
L 43.21875 64.59375 
L 8.203125 64.59375 
z
" id="DejaVuSans-55"/>
       </defs>
       <use xlink:href="#DejaVuSans-55"/>
       <use x="63.623047" xlink:href="#DejaVuSans-48"/>
      </g>
     </g>
    </g>
   </g>
   <g id="line2d_13">
    <path clip-path="url(#p86870376bb)" d="M 252.626529 215.805391 
L 251.580522 212.051851 
L 250.779968 208.264325 
L 250.217315 204.457918 
L 249.896338 200.640182 
L 249.80571 196.81867 
L 249.941653 193.004711 
L 250.300391 189.213408 
L 250.874373 185.448539 
L 251.663599 181.721433 
L 252.656739 178.043416 
L 253.853793 174.425819 
L 255.24721 170.876193 
L 256.833213 167.405868 
L 258.608026 164.026171 
L 260.564096 160.744656 
L 262.701424 157.57265 
L 265.008681 154.517706 
L 267.485866 151.594929 
L 270.125428 148.811871 
L 272.923591 146.179862 
L 275.872801 143.706452 
L 278.96173 141.406748 
L 282.182827 139.284525 
L 285.517209 137.358664 
L 288.957325 135.640495 
L 292.48807 134.133792 
L 296.094338 132.853661 
L 299.772355 131.81143 
L 303.499462 131.022205 
L 307.268107 130.489761 
L 311.066961 130.225427 
L 314.880921 130.225427 
L 318.69488 130.474656 
L 322.493735 130.969338 
L 326.26238 131.698144 
L 329.989487 132.649746 
L 333.656175 133.812815 
L 337.254891 135.183575 
L 340.762978 136.750697 
L 344.172885 138.502852 
L 347.465729 140.432489 
L 350.641511 142.532055 
L 353.700231 144.790221 
L 356.634336 147.206988 
L 359.443827 149.767249 
L 362.128704 152.467231 
L 364.685189 155.299379 
L 367.105732 158.252365 
L 369.397884 161.32619 
L 371.554093 164.509524 
L 373.566806 167.79104 
L 375.432248 171.166961 
L 377.135313 174.625957 
L 378.660896 178.156702 
L 379.99767 181.755418 
L 381.13053 185.403225 
L 382.048145 189.100122 
L 382.73919 192.834782 
L 383.188557 196.592098 
L 383.384919 200.368296 
L 383.316948 204.152046 
L 382.992195 207.932019 
L 382.421989 211.693112 
L 381.613883 215.423995 
L 380.579205 219.11334 
L 379.329283 222.746042 
L 377.867895 226.314549 
L 376.21392 229.799979 
L 374.371136 233.194781 
L 372.347094 236.480072 
L 370.160676 239.652078 
L 367.811881 242.69947 
L 365.312038 245.614694 
L 362.664924 248.386423 
L 359.881866 251.01088 
L 356.970418 253.476737 
L 353.938131 255.783994 
L 350.792559 257.913769 
L 347.537477 259.86984 
L 344.184213 261.6371 
L 340.740321 263.211774 
L 337.217129 264.597639 
L 333.622189 265.806022 
L 329.963054 266.836924 
L 326.258604 267.701673 
L 322.50884 268.407822 
L 318.728866 268.962923 
L 314.930011 269.366976 
L 311.119828 269.635086 
L 307.309645 269.771029 
L 303.507014 269.782358 
L 299.711935 269.672848 
L 292.159541 269.121523 
L 284.656236 268.169922 
L 277.205798 266.87091 
L 269.81578 265.269802 
L 262.489957 263.419465 
L 255.217001 261.361438 
L 247.996911 259.137257 
L 237.238524 255.580079 
L 205.069098 244.674421 
L 197.811246 242.503107 
L 175.882868 236.336577 
L 172.303032 235.139522 
L 168.772288 233.836734 
L 165.305738 232.401779 
L 161.903384 230.815776 
L 158.584107 229.059844 
L 155.340353 227.141536 
L 152.1759 225.07218 
L 149.090746 222.870657 
L 146.081117 220.548295 
L 143.150788 218.112648 
L 140.292206 215.578819 
L 134.805391 210.280814 
L 129.609344 204.748685 
L 124.67763 199.04285 
L 119.953607 193.185968 
L 115.384408 187.189367 
L 108.692986 177.96034 
L 104.305044 171.669195 
L 100.124794 165.238331 
L 98.176276 161.956815 
L 96.352372 158.626209 
L 94.679517 155.23896 
L 93.184143 151.791291 
L 91.888907 148.279428 
L 90.816467 144.699592 
L 89.989479 141.044233 
L 89.404169 137.328455 
L 89.052983 133.567362 
L 88.932144 129.768508 
L 89.034102 125.946996 
L 89.355078 122.117931 
L 89.883746 118.292643 
L 90.612552 114.486236 
L 91.53772 110.713815 
L 92.655475 106.982932 
L 93.954487 103.308692 
L 95.427204 99.706199 
L 97.073626 96.186783 
L 98.882425 92.765548 
L 100.846047 89.453823 
L 102.956942 86.270489 
L 105.215108 83.219321 
L 107.609217 80.319201 
L 110.131717 77.585234 
L 112.775055 75.024973 
L 112.775055 75.024973 
" style="fill:none;stroke:#fea952;stroke-linecap:square;"/>
   </g>
   <g id="line2d_14">
    <path clip-path="url(#p86870376bb)" d="M 238.076154 219.860174 
L 236.802239 215.175476 
L 235.837542 210.473076 
L 235.165629 205.723391 
L 234.795794 200.998298 
L 234.710505 196.280623 
L 234.90403 191.581828 
L 235.368142 186.936877 
L 236.097248 182.319442 
L 237.081071 177.783851 
L 238.316633 173.298308 
L 239.793533 168.906419 
L 241.509143 164.597643 
L 243.460232 160.383185 
L 245.633433 156.292179 
L 248.0376 152.304183 
L 250.648054 148.469301 
L 253.485801 144.751544 
L 256.526366 141.200505 
L 259.776381 137.809513 
L 263.217348 134.606464 
L 266.85264 131.590703 
L 270.651471 128.79349 
L 274.628213 126.204675 
L 278.768076 123.845564 
L 283.028783 121.747796 
L 287.435171 119.899225 
L 291.976273 118.321069 
L 296.643257 117.034305 
L 301.386403 116.065947 
L 306.219613 115.421406 
L 311.066961 115.120638 
L 315.865866 115.152785 
L 320.645339 115.496326 
L 325.361666 116.139313 
L 329.999052 117.062846 
L 334.55646 118.251919 
L 339.032793 119.697339 
L 343.415687 121.392299 
L 347.666417 123.315772 
L 351.809754 125.470857 
L 355.795892 127.832368 
L 359.612913 130.380157 
L 363.303507 133.131243 
L 366.808355 136.042578 
L 370.154444 139.116552 
L 373.341126 142.346151 
L 376.366995 145.723884 
L 379.214509 149.222847 
L 381.903866 152.855353 
L 384.429899 156.612165 
L 386.787475 160.485659 
L 388.983552 164.494867 
L 391.001102 168.63475 
L 392.82037 172.897045 
L 394.422839 177.275552 
L 395.790473 181.764444 
L 396.900812 186.351854 
L 397.737098 191.041062 
L 398.272967 195.807709 
L 398.487273 200.639596 
L 398.366299 205.444997 
L 397.926333 210.196131 
L 397.184456 214.89065 
L 396.15755 219.502772 
L 394.862175 224.027751 
L 393.307354 228.470395 
L 391.514146 232.790235 
L 389.488994 237.006025 
L 387.231194 241.117759 
L 384.783697 245.052445 
L 382.124271 248.87309 
L 379.278195 252.531983 
L 376.235469 256.047016 
L 373.027906 259.375658 
L 369.644048 262.537132 
L 366.116904 265.497406 
L 362.406637 268.291556 
L 358.572743 270.860716 
L 354.57992 273.232424 
L 350.465245 275.374033 
L 346.269483 277.268198 
L 342.029763 278.915224 
L 337.718261 280.344828 
L 333.396731 281.546259 
L 329.053976 282.545546 
L 324.703487 283.352326 
L 320.326428 283.982992 
L 315.990264 284.434509 
L 311.658408 284.730271 
L 307.354644 284.875752 
L 303.071336 284.880863 
L 298.823186 284.751469 
L 294.62149 284.497888 
L 290.44019 284.128139 
L 282.226872 283.078069 
L 274.14199 281.661709 
L 266.237649 279.944667 
L 258.476057 277.981171 
L 250.850341 275.821277 
L 243.361022 273.513043 
L 232.344308 269.869982 
L 200.651368 259.11874 
L 193.756926 257.053611 
L 171.092716 250.661699 
L 167.074203 249.310409 
L 162.995154 247.793073 
L 158.923966 246.092201 
L 154.840226 244.167423 
L 150.895269 242.061246 
L 147.073454 239.783255 
L 143.402114 237.367519 
L 139.863076 234.829117 
L 136.425998 232.164377 
L 133.131477 229.416103 
L 129.945514 226.583393 
L 123.909586 220.741986 
L 118.27747 214.735843 
L 113.002044 208.625928 
L 107.990764 202.407957 
L 103.226859 196.15311 
L 96.35162 186.669265 
L 91.737099 180.047825 
L 87.137073 172.950256 
L 84.927921 169.211866 
L 82.809184 165.314762 
L 80.822063 161.249422 
L 79.012489 157.018041 
L 77.419463 152.614156 
L 76.084008 148.032659 
L 75.068668 143.394564 
L 74.364798 138.732734 
L 73.955828 134.04759 
L 73.832727 129.365657 
L 73.982103 124.68524 
L 74.392506 120.050054 
L 75.04844 115.452153 
L 75.942488 110.888473 
L 77.068344 106.37886 
L 78.414508 101.948099 
L 79.972894 97.592946 
L 81.745504 93.305748 
L 83.720254 89.126888 
L 85.889827 85.061842 
L 88.257464 81.106234 
L 90.815653 77.284733 
L 93.566655 73.603281 
L 96.507814 70.076471 
L 99.622876 66.735399 
L 102.266214 64.175137 
L 102.266214 64.175137 
" style="fill:none;stroke:#ffffff;stroke-linecap:square;"/>
   </g>
   <g id="line2d_15">
    <path clip-path="url(#p86870376bb)" d="M 267.176904 211.750608 
L 266.358805 208.928226 
L 265.722395 206.055573 
L 265.269001 203.192445 
L 264.996882 200.282066 
L 264.900914 197.356717 
L 264.979275 194.427593 
L 265.232641 191.48994 
L 265.651499 188.577637 
L 266.246127 185.659015 
L 266.996844 182.788524 
L 267.914053 179.945219 
L 268.985277 177.154744 
L 270.206194 174.42855 
L 271.582618 171.760163 
L 273.090592 169.185128 
L 274.754794 166.675998 
L 276.531561 164.283868 
L 278.445366 161.989353 
L 280.474476 159.81423 
L 282.629833 157.75326 
L 284.892961 155.822202 
L 287.271989 154.020006 
L 289.73744 152.364376 
L 292.266343 150.871765 
L 294.885867 149.533193 
L 297.540968 148.368359 
L 300.212403 147.386253 
L 302.901452 146.588556 
L 305.61252 145.978463 
L 308.316601 145.558117 
L 311.066961 145.330217 
L 313.895976 145.29807 
L 316.744422 145.452987 
L 319.625804 145.799364 
L 322.525708 146.333443 
L 325.422514 147.047574 
L 328.279556 147.928291 
L 331.094095 148.97485 
L 333.85954 150.185622 
L 336.536016 151.534848 
L 339.135565 153.032611 
L 341.670109 154.683953 
L 344.096955 156.449199 
L 346.460318 158.371397 
L 348.73321 160.417947 
L 350.916281 162.588311 
L 353.003384 164.874874 
L 354.996955 167.281883 
L 356.891902 169.797027 
L 358.678286 172.406883 
L 360.346137 175.096421 
L 361.880943 177.839055 
L 363.269523 180.617165 
L 364.501423 183.41636 
L 365.572502 186.235284 
L 366.470586 189.042006 
L 367.195479 191.848391 
L 367.741281 194.628501 
L 368.104148 197.376488 
L 368.282566 200.096996 
L 368.267597 202.859094 
L 368.058057 205.667908 
L 367.659522 208.495574 
L 367.070215 211.345218 
L 366.296234 214.198929 
L 365.351212 217.021689 
L 364.221644 219.838863 
L 362.938847 222.593932 
L 361.511078 225.271802 
L 359.910491 227.907699 
L 358.19708 230.431066 
L 356.345567 232.866956 
L 354.388608 235.182372 
L 352.301941 237.397188 
L 350.119684 239.484628 
L 347.823932 241.456069 
L 345.469626 243.276432 
L 343.012375 244.966823 
L 340.495033 246.507255 
L 337.903182 247.900167 
L 335.21116 249.15535 
L 332.404495 250.280054 
L 329.526117 251.267216 
L 326.529376 252.127589 
L 323.463232 252.8578 
L 320.314192 253.463318 
L 317.131304 253.942854 
L 313.869759 254.299443 
L 310.581249 254.539901 
L 303.942692 254.683853 
L 297.242434 254.402217 
L 290.483453 253.730316 
L 283.684411 252.711288 
L 276.837673 251.371765 
L 269.964856 249.760953 
L 263.057296 247.909169 
L 256.130035 245.859625 
L 245.650029 242.478566 
L 231.499016 237.61298 
L 216.962175 232.637863 
L 209.486828 230.230102 
L 201.865566 227.952603 
L 180.673019 222.011455 
L 174.549422 219.880395 
L 171.687511 218.711357 
L 168.966542 217.464129 
L 166.272945 216.058443 
L 163.607253 214.499817 
L 160.949685 212.77684 
L 158.318417 210.912196 
L 155.736236 208.932214 
L 150.638898 204.574245 
L 145.701196 199.819642 
L 140.941217 194.761527 
L 136.353215 189.459772 
L 131.916449 183.963979 
L 127.541956 178.225623 
L 121.034351 169.251415 
L 116.872989 163.290565 
L 113.112514 157.526405 
L 109.89556 151.937656 
L 108.536971 149.228498 
L 107.355796 146.564542 
L 106.358351 143.9447 
L 105.548926 141.366526 
L 104.910291 138.693902 
L 104.44354 135.924176 
L 104.150137 133.087135 
L 104.031561 130.171358 
L 104.0861 127.208751 
L 104.31765 124.185809 
L 104.719052 121.133133 
L 105.282616 118.084 
L 106.007097 115.04877 
L 106.896442 112.017765 
L 107.93608 109.024437 
L 109.108903 106.106651 
L 110.426998 103.246679 
L 111.875022 100.469255 
L 113.43463 97.801413 
L 115.09823 95.256244 
L 116.86356 92.835361 
L 118.71062 90.561932 
L 120.640558 88.43507 
L 123.283896 85.874808 
L 123.283896 85.874808 
" style="fill:none;stroke:#ffffff;stroke-linecap:square;"/>
   </g>
   <g id="patch_3">
    <path d="M 57.6 307.584 
L 57.6 41.472 
" style="fill:none;stroke:#000000;stroke-linecap:square;stroke-linejoin:miter;stroke-width:0.8;"/>
   </g>
   <g id="patch_4">
    <path d="M 414.72 307.584 
L 414.72 41.472 
" style="fill:none;stroke:#000000;stroke-linecap:square;stroke-linejoin:miter;stroke-width:0.8;"/>
   </g>
   <g id="patch_5">
    <path d="M 57.6 307.584 
L 414.72 307.584 
" style="fill:none;stroke:#000000;stroke-linecap:square;stroke-linejoin:miter;stroke-width:0.8;"/>
   </g>
   <g id="patch_6">
    <path d="M 57.6 41.472 
L 414.72 41.472 
" style="fill:none;stroke:#000000;stroke-linecap:square;stroke-linejoin:miter;stroke-width:0.8;"/>
   </g>
  </g>
 </g>
 <defs>
  <clipPath id="p86870376bb">
   <rect height="266.112" width="357.12" x="57.6" y="41.472"/>
  </clipPath>
 </defs>
</svg>
