<?xml version="1.0" encoding="utf-8" standalone="no"?>
<!DOCTYPE svg PUBLIC "-//W3C//DTD SVG 1.1//EN"
  "http://www.w3.org/Graphics/SVG/1.1/DTD/svg11.dtd">
<!-- Created with matplotlib (https://matplotlib.org/) -->
<svg height="345.6pt" version="1.1" viewBox="0 0 460.8 345.6" width="460.8pt" xmlns="http://www.w3.org/2000/svg" xmlns:xlink="http://www.w3.org/1999/xlink">
 <metadata>
  <rdf:RDF xmlns:cc="http://creativecommons.org/ns#" xmlns:dc="http://purl.org/dc/elements/1.1/" xmlns:rdf="http://www.w3.org/1999/02/22-rdf-syntax-ns#">
   <cc:Work>
    <dc:type rdf:resource="http://purl.org/dc/dcmitype/StillImage"/>
    <dc:date>2021-01-22T09:16:51.246171</dc:date>
    <dc:format>image/svg+xml</dc:format>
    <dc:creator>
     <cc:Agent>
      <dc:title>Matplotlib v3.3.3, https://matplotlib.org/</dc:title>
     </cc:Agent>
    </dc:creator>
   </cc:Work>
  </rdf:RDF>
 </metadata>
 <defs>
  <style type="text/css">*{stroke-linecap:butt;stroke-linejoin:round;}</style>
 </defs>
 <g id="figure_1">
  <g id="patch_1">
   <path d="M 0 345.6 
L 460.8 345.6 
L 460.8 0 
L 0 0 
z
" style="fill:#ffffff;"/>
  </g>
  <g id="axes_1">
   <g id="patch_2">
    <path d="M 57.6 307.584 
L 414.72 307.584 
L 414.72 41.472 
L 57.6 41.472 
z
" style="fill:#7d9051;"/>
   </g>
   <g id="matplotlib.axis_1">
    <g id="xtick_1">
     <g id="line2d_1">
      <defs>
       <path d="M 0 0 
L 0 3.5 
" id="m400d80f070" style="stroke:#000000;stroke-width:0.8;"/>
      </defs>
      <g>
       <use style="stroke:#000000;stroke-width:0.8;" x="60.892626" xlink:href="#m400d80f070" y="307.584"/>
      </g>
     </g>
     <g id="text_1">
      <!-- 0 -->
      <g transform="translate(57.711376 322.182437)scale(0.1 -0.1)">
       <defs>
        <path d="M 31.78125 66.40625 
Q 24.171875 66.40625 20.328125 58.90625 
Q 16.5 51.421875 16.5 36.375 
Q 16.5 21.390625 20.328125 13.890625 
Q 24.171875 6.390625 31.78125 6.390625 
Q 39.453125 6.390625 43.28125 13.890625 
Q 47.125 21.390625 47.125 36.375 
Q 47.125 51.421875 43.28125 58.90625 
Q 39.453125 66.40625 31.78125 66.40625 
z
M 31.78125 74.21875 
Q 44.046875 74.21875 50.515625 64.515625 
Q 56.984375 54.828125 56.984375 36.375 
Q 56.984375 17.96875 50.515625 8.265625 
Q 44.046875 -1.421875 31.78125 -1.421875 
Q 19.53125 -1.421875 13.0625 8.265625 
Q 6.59375 17.96875 6.59375 36.375 
Q 6.59375 54.828125 13.0625 64.515625 
Q 19.53125 74.21875 31.78125 74.21875 
z
" id="DejaVuSans-48"/>
       </defs>
       <use xlink:href="#DejaVuSans-48"/>
      </g>
     </g>
    </g>
    <g id="xtick_2">
     <g id="line2d_2">
      <g>
       <use style="stroke:#000000;stroke-width:0.8;" x="106.294581" xlink:href="#m400d80f070" y="307.584"/>
      </g>
     </g>
     <g id="text_2">
      <!-- 20 -->
      <g transform="translate(99.932081 322.182437)scale(0.1 -0.1)">
       <defs>
        <path d="M 19.1875 8.296875 
L 53.609375 8.296875 
L 53.609375 0 
L 7.328125 0 
L 7.328125 8.296875 
Q 12.9375 14.109375 22.625 23.890625 
Q 32.328125 33.6875 34.8125 36.53125 
Q 39.546875 41.84375 41.421875 45.53125 
Q 43.3125 49.21875 43.3125 52.78125 
Q 43.3125 58.59375 39.234375 62.25 
Q 35.15625 65.921875 28.609375 65.921875 
Q 23.96875 65.921875 18.8125 64.3125 
Q 13.671875 62.703125 7.8125 59.421875 
L 7.8125 69.390625 
Q 13.765625 71.78125 18.9375 73 
Q 24.125 74.21875 28.421875 74.21875 
Q 39.75 74.21875 46.484375 68.546875 
Q 53.21875 62.890625 53.21875 53.421875 
Q 53.21875 48.921875 51.53125 44.890625 
Q 49.859375 40.875 45.40625 35.40625 
Q 44.1875 33.984375 37.640625 27.21875 
Q 31.109375 20.453125 19.1875 8.296875 
z
" id="DejaVuSans-50"/>
       </defs>
       <use xlink:href="#DejaVuSans-50"/>
       <use x="63.623047" xlink:href="#DejaVuSans-48"/>
      </g>
     </g>
    </g>
    <g id="xtick_3">
     <g id="line2d_3">
      <g>
       <use style="stroke:#000000;stroke-width:0.8;" x="151.696537" xlink:href="#m400d80f070" y="307.584"/>
      </g>
     </g>
     <g id="text_3">
      <!-- 40 -->
      <g transform="translate(145.334037 322.182437)scale(0.1 -0.1)">
       <defs>
        <path d="M 37.796875 64.3125 
L 12.890625 25.390625 
L 37.796875 25.390625 
z
M 35.203125 72.90625 
L 47.609375 72.90625 
L 47.609375 25.390625 
L 58.015625 25.390625 
L 58.015625 17.1875 
L 47.609375 17.1875 
L 47.609375 0 
L 37.796875 0 
L 37.796875 17.1875 
L 4.890625 17.1875 
L 4.890625 26.703125 
z
" id="DejaVuSans-52"/>
       </defs>
       <use xlink:href="#DejaVuSans-52"/>
       <use x="63.623047" xlink:href="#DejaVuSans-48"/>
      </g>
     </g>
    </g>
    <g id="xtick_4">
     <g id="line2d_4">
      <g>
       <use style="stroke:#000000;stroke-width:0.8;" x="197.098492" xlink:href="#m400d80f070" y="307.584"/>
      </g>
     </g>
     <g id="text_4">
      <!-- 60 -->
      <g transform="translate(190.735992 322.182437)scale(0.1 -0.1)">
       <defs>
        <path d="M 33.015625 40.375 
Q 26.375 40.375 22.484375 35.828125 
Q 18.609375 31.296875 18.609375 23.390625 
Q 18.609375 15.53125 22.484375 10.953125 
Q 26.375 6.390625 33.015625 6.390625 
Q 39.65625 6.390625 43.53125 10.953125 
Q 47.40625 15.53125 47.40625 23.390625 
Q 47.40625 31.296875 43.53125 35.828125 
Q 39.65625 40.375 33.015625 40.375 
z
M 52.59375 71.296875 
L 52.59375 62.3125 
Q 48.875 64.0625 45.09375 64.984375 
Q 41.3125 65.921875 37.59375 65.921875 
Q 27.828125 65.921875 22.671875 59.328125 
Q 17.53125 52.734375 16.796875 39.40625 
Q 19.671875 43.65625 24.015625 45.921875 
Q 28.375 48.1875 33.59375 48.1875 
Q 44.578125 48.1875 50.953125 41.515625 
Q 57.328125 34.859375 57.328125 23.390625 
Q 57.328125 12.15625 50.6875 5.359375 
Q 44.046875 -1.421875 33.015625 -1.421875 
Q 20.359375 -1.421875 13.671875 8.265625 
Q 6.984375 17.96875 6.984375 36.375 
Q 6.984375 53.65625 15.1875 63.9375 
Q 23.390625 74.21875 37.203125 74.21875 
Q 40.921875 74.21875 44.703125 73.484375 
Q 48.484375 72.75 52.59375 71.296875 
z
" id="DejaVuSans-54"/>
       </defs>
       <use xlink:href="#DejaVuSans-54"/>
       <use x="63.623047" xlink:href="#DejaVuSans-48"/>
      </g>
     </g>
    </g>
    <g id="xtick_5">
     <g id="line2d_5">
      <g>
       <use style="stroke:#000000;stroke-width:0.8;" x="242.500447" xlink:href="#m400d80f070" y="307.584"/>
      </g>
     </g>
     <g id="text_5">
      <!-- 80 -->
      <g transform="translate(236.137947 322.182437)scale(0.1 -0.1)">
       <defs>
        <path d="M 31.78125 34.625 
Q 24.75 34.625 20.71875 30.859375 
Q 16.703125 27.09375 16.703125 20.515625 
Q 16.703125 13.921875 20.71875 10.15625 
Q 24.75 6.390625 31.78125 6.390625 
Q 38.8125 6.390625 42.859375 10.171875 
Q 46.921875 13.96875 46.921875 20.515625 
Q 46.921875 27.09375 42.890625 30.859375 
Q 38.875 34.625 31.78125 34.625 
z
M 21.921875 38.8125 
Q 15.578125 40.375 12.03125 44.71875 
Q 8.5 49.078125 8.5 55.328125 
Q 8.5 64.0625 14.71875 69.140625 
Q 20.953125 74.21875 31.78125 74.21875 
Q 42.671875 74.21875 48.875 69.140625 
Q 55.078125 64.0625 55.078125 55.328125 
Q 55.078125 49.078125 51.53125 44.71875 
Q 48 40.375 41.703125 38.8125 
Q 48.828125 37.15625 52.796875 32.3125 
Q 56.78125 27.484375 56.78125 20.515625 
Q 56.78125 9.90625 50.3125 4.234375 
Q 43.84375 -1.421875 31.78125 -1.421875 
Q 19.734375 -1.421875 13.25 4.234375 
Q 6.78125 9.90625 6.78125 20.515625 
Q 6.78125 27.484375 10.78125 32.3125 
Q 14.796875 37.15625 21.921875 38.8125 
z
M 18.3125 54.390625 
Q 18.3125 48.734375 21.84375 45.5625 
Q 25.390625 42.390625 31.78125 42.390625 
Q 38.140625 42.390625 41.71875 45.5625 
Q 45.3125 48.734375 45.3125 54.390625 
Q 45.3125 60.0625 41.71875 63.234375 
Q 38.140625 66.40625 31.78125 66.40625 
Q 25.390625 66.40625 21.84375 63.234375 
Q 18.3125 60.0625 18.3125 54.390625 
z
" id="DejaVuSans-56"/>
       </defs>
       <use xlink:href="#DejaVuSans-56"/>
       <use x="63.623047" xlink:href="#DejaVuSans-48"/>
      </g>
     </g>
    </g>
    <g id="xtick_6">
     <g id="line2d_6">
      <g>
       <use style="stroke:#000000;stroke-width:0.8;" x="287.902403" xlink:href="#m400d80f070" y="307.584"/>
      </g>
     </g>
     <g id="text_6">
      <!-- 100 -->
      <g transform="translate(278.358653 322.182437)scale(0.1 -0.1)">
       <defs>
        <path d="M 12.40625 8.296875 
L 28.515625 8.296875 
L 28.515625 63.921875 
L 10.984375 60.40625 
L 10.984375 69.390625 
L 28.421875 72.90625 
L 38.28125 72.90625 
L 38.28125 8.296875 
L 54.390625 8.296875 
L 54.390625 0 
L 12.40625 0 
z
" id="DejaVuSans-49"/>
       </defs>
       <use xlink:href="#DejaVuSans-49"/>
       <use x="63.623047" xlink:href="#DejaVuSans-48"/>
       <use x="127.246094" xlink:href="#DejaVuSans-48"/>
      </g>
     </g>
    </g>
    <g id="xtick_7">
     <g id="line2d_7">
      <g>
       <use style="stroke:#000000;stroke-width:0.8;" x="333.304358" xlink:href="#m400d80f070" y="307.584"/>
      </g>
     </g>
     <g id="text_7">
      <!-- 120 -->
      <g transform="translate(323.760608 322.182437)scale(0.1 -0.1)">
       <use xlink:href="#DejaVuSans-49"/>
       <use x="63.623047" xlink:href="#DejaVuSans-50"/>
       <use x="127.246094" xlink:href="#DejaVuSans-48"/>
      </g>
     </g>
    </g>
    <g id="xtick_8">
     <g id="line2d_8">
      <g>
       <use style="stroke:#000000;stroke-width:0.8;" x="378.706313" xlink:href="#m400d80f070" y="307.584"/>
      </g>
     </g>
     <g id="text_8">
      <!-- 140 -->
      <g transform="translate(369.162563 322.182437)scale(0.1 -0.1)">
       <use xlink:href="#DejaVuSans-49"/>
       <use x="63.623047" xlink:href="#DejaVuSans-52"/>
       <use x="127.246094" xlink:href="#DejaVuSans-48"/>
      </g>
     </g>
    </g>
   </g>
   <g id="matplotlib.axis_2">
    <g id="ytick_1">
     <g id="line2d_9">
      <defs>
       <path d="M 0 0 
L -3.5 0 
" id="mad0b978a69" style="stroke:#000000;stroke-width:0.8;"/>
      </defs>
      <g>
       <use style="stroke:#000000;stroke-width:0.8;" x="57.6" xlink:href="#mad0b978a69" y="299.73334"/>
      </g>
     </g>
     <g id="text_9">
      <!-- 0 -->
      <g transform="translate(44.2375 303.532559)scale(0.1 -0.1)">
       <use xlink:href="#DejaVuSans-48"/>
      </g>
     </g>
    </g>
    <g id="ytick_2">
     <g id="line2d_10">
      <g>
       <use style="stroke:#000000;stroke-width:0.8;" x="57.6" xlink:href="#mad0b978a69" y="254.331385"/>
      </g>
     </g>
     <g id="text_10">
      <!-- 20 -->
      <g transform="translate(37.875 258.130603)scale(0.1 -0.1)">
       <use xlink:href="#DejaVuSans-50"/>
       <use x="63.623047" xlink:href="#DejaVuSans-48"/>
      </g>
     </g>
    </g>
    <g id="ytick_3">
     <g id="line2d_11">
      <g>
       <use style="stroke:#000000;stroke-width:0.8;" x="57.6" xlink:href="#mad0b978a69" y="208.929429"/>
      </g>
     </g>
     <g id="text_11">
      <!-- 40 -->
      <g transform="translate(37.875 212.728648)scale(0.1 -0.1)">
       <use xlink:href="#DejaVuSans-52"/>
       <use x="63.623047" xlink:href="#DejaVuSans-48"/>
      </g>
     </g>
    </g>
    <g id="ytick_4">
     <g id="line2d_12">
      <g>
       <use style="stroke:#000000;stroke-width:0.8;" x="57.6" xlink:href="#mad0b978a69" y="163.527474"/>
      </g>
     </g>
     <g id="text_12">
      <!-- 60 -->
      <g transform="translate(37.875 167.326693)scale(0.1 -0.1)">
       <use xlink:href="#DejaVuSans-54"/>
       <use x="63.623047" xlink:href="#DejaVuSans-48"/>
      </g>
     </g>
    </g>
    <g id="ytick_5">
     <g id="line2d_13">
      <g>
       <use style="stroke:#000000;stroke-width:0.8;" x="57.6" xlink:href="#mad0b978a69" y="118.125519"/>
      </g>
     </g>
     <g id="text_13">
      <!-- 80 -->
      <g transform="translate(37.875 121.924737)scale(0.1 -0.1)">
       <use xlink:href="#DejaVuSans-56"/>
       <use x="63.623047" xlink:href="#DejaVuSans-48"/>
      </g>
     </g>
    </g>
    <g id="ytick_6">
     <g id="line2d_14">
      <g>
       <use style="stroke:#000000;stroke-width:0.8;" x="57.6" xlink:href="#mad0b978a69" y="72.723563"/>
      </g>
     </g>
     <g id="text_14">
      <!-- 100 -->
      <g transform="translate(31.5125 76.522782)scale(0.1 -0.1)">
       <use xlink:href="#DejaVuSans-49"/>
       <use x="63.623047" xlink:href="#DejaVuSans-48"/>
       <use x="127.246094" xlink:href="#DejaVuSans-48"/>
      </g>
     </g>
    </g>
   </g>
   <g id="line2d_15">
    <path clip-path="url(#p4b3cfbb390)" d="M 83.593604 277.032362 
L 83.166825 272.535299 
L 82.944356 267.997373 
L 82.937546 263.439017 
L 83.157745 258.87839 
L 83.611765 254.331385 
L 84.310955 249.81843 
L 85.266666 245.359958 
L 86.487978 240.971859 
L 87.983973 236.672294 
L 89.766 232.479424 
L 91.838599 228.415949 
L 94.19042 224.5023 
L 96.812383 220.761179 
L 99.686327 217.217556 
L 102.798631 213.894133 
L 106.133405 210.8068 
L 109.661136 207.939667 
L 113.347775 205.270032 
L 117.16381 202.775194 
L 121.075188 200.427913 
L 127.065976 197.152162 
L 133.1907 194.164713 
L 139.444819 191.467837 
L 145.814713 189.061534 
L 165.069683 182.2467 
L 171.357854 179.649708 
L 185.999984 173.4251 
L 192.392579 171.005176 
L 196.710305 169.575014 
L 201.077974 168.335541 
L 205.497854 167.325348 
L 209.972217 166.576215 
L 214.485171 166.063173 
L 219.027637 165.75217 
L 223.581453 165.613694 
L 230.407637 165.654556 
L 237.206579 165.913347 
L 246.261999 166.508112 
L 262.182195 167.724885 
L 266.724661 167.815689 
L 271.246695 167.640891 
L 275.734679 167.114228 
L 280.17953 166.21981 
L 284.569899 165.003038 
L 288.894436 163.509313 
L 293.137248 161.786309 
L 297.289257 159.883967 
L 303.357228 156.773933 
L 309.293534 153.4437 
L 321.007239 146.506281 
L 346.255266 131.235333 
L 365.719084 119.514818 
L 369.437504 116.906476 
L 372.994747 114.062044 
L 376.345412 110.931579 
L 379.437285 107.524162 
L 382.211344 103.864764 
L 383.464438 101.946532 
L 384.615378 99.976087 
L 385.661893 97.95343 
L 386.592633 95.885371 
L 387.403058 93.76964 
L 388.088628 91.613047 
L 388.637991 89.420132 
L 389.044339 87.188626 
L 389.3054 84.927609 
L 389.409824 82.63481 
L 389.350802 80.31704 
L 389.126062 77.97657 
L 388.721985 75.613398 
L 388.1363 73.236605 
L 388.1363 73.236605 
" style="fill:none;stroke:#fea952;stroke-linecap:square;"/>
   </g>
   <g id="line2d_16">
    <path clip-path="url(#p4b3cfbb390)" d="M 74.564061 277.99198 
L 74.103349 273.089279 
L 73.864849 268.124106 
L 73.862975 263.113958 
L 74.111322 258.093706 
L 74.61977 253.06745 
L 75.405164 248.046314 
L 76.481862 243.061977 
L 77.86366 238.130269 
L 79.565585 233.268731 
L 81.604831 228.498366 
L 83.97525 223.874887 
L 86.664359 219.421758 
L 89.657909 215.169488 
L 92.94818 211.130613 
L 96.515269 207.338764 
L 100.29978 203.848185 
L 104.241944 200.653662 
L 108.302537 197.720258 
L 112.420437 195.032203 
L 116.596387 192.528936 
L 120.820653 190.179452 
L 125.112294 187.962552 
L 129.459899 185.886149 
L 133.878019 183.943474 
L 138.348762 182.141862 
L 145.005087 179.720134 
L 159.673407 174.6 
L 165.73306 172.169281 
L 184.901219 164.099044 
L 189.458703 162.411814 
L 194.126042 160.870126 
L 198.933432 159.512025 
L 203.871105 158.391861 
L 208.828053 157.568197 
L 213.770048 157.010986 
L 218.674827 156.678635 
L 223.518145 156.533523 
L 230.662042 156.577729 
L 237.706743 156.846741 
L 246.986838 157.456697 
L 262.47204 158.649121 
L 266.52434 158.737507 
L 270.379329 158.602021 
L 274.115133 158.179433 
L 277.898497 157.43059 
L 281.730894 156.377868 
L 285.581134 155.054993 
L 289.440989 153.492265 
L 293.275564 151.738798 
L 298.99063 148.81238 
L 304.721014 145.598601 
L 316.336752 138.719108 
L 341.578102 123.452169 
L 360.598696 112.01581 
L 363.889709 109.717911 
L 366.929738 107.304147 
L 369.752301 104.687831 
L 372.327488 101.875774 
L 374.609273 98.898678 
L 376.550524 95.803362 
L 378.113043 92.637287 
L 379.280428 89.406438 
L 380.023876 86.147107 
L 380.234412 84.514475 
L 380.332376 82.865969 
L 380.311986 81.184977 
L 380.175573 79.507009 
L 379.905331 77.785983 
L 379.319646 75.40919 
L 379.319646 75.40919 
" style="fill:none;stroke:#ffffff;stroke-linecap:square;"/>
   </g>
   <g id="line2d_17">
    <path clip-path="url(#p4b3cfbb390)" d="M 92.623146 276.072745 
L 92.230302 271.981319 
L 92.023862 267.87064 
L 92.012117 263.764076 
L 92.204168 259.663075 
L 92.603759 255.59532 
L 93.216745 251.590547 
L 94.05147 247.65794 
L 95.112297 243.81345 
L 96.402361 240.075857 
L 97.927169 236.460482 
L 99.701948 232.95701 
L 101.716481 229.582842 
L 103.966857 226.35287 
L 106.424474 223.3045 
L 109.081993 220.449502 
L 111.967029 217.765416 
L 115.080329 215.225671 
L 118.393013 212.819805 
L 121.907182 210.518186 
L 125.553989 208.32689 
L 131.173937 205.250196 
L 136.9215 202.443278 
L 142.770145 199.917436 
L 148.830198 197.6266 
L 168.459283 190.67072 
L 174.939182 187.994023 
L 189.328645 181.873385 
L 195.326456 179.598538 
L 199.294569 178.279903 
L 203.222515 177.159058 
L 207.124603 176.258835 
L 211.11638 175.584233 
L 215.200294 175.115361 
L 219.380446 174.825704 
L 225.797197 174.677973 
L 232.329968 174.791934 
L 238.897223 175.100519 
L 247.769751 175.738244 
L 259.427928 176.672285 
L 264.38412 176.877628 
L 269.489114 176.832297 
L 274.742522 176.419392 
L 279.926033 175.576018 
L 284.952341 174.357285 
L 289.831799 172.826634 
L 294.54534 171.044589 
L 299.093883 169.070857 
L 303.474161 166.957921 
L 309.793392 163.599902 
L 317.842864 158.958843 
L 337.380715 147.244321 
L 360.612369 133.273048 
L 366.695678 129.655607 
L 370.839472 127.013827 
L 374.9853 124.095041 
L 379.059757 120.81994 
L 382.938523 117.175327 
L 384.780747 115.218037 
L 386.547082 113.17255 
L 388.226598 111.04341 
L 389.813416 108.830851 
L 391.305266 106.52637 
L 392.680232 104.148812 
L 393.942327 101.68008 
L 395.072224 99.133454 
L 396.056714 96.520591 
L 396.896827 93.819656 
L 397.571478 91.046881 
L 398.064801 88.230146 
L 398.376388 85.340743 
L 398.487273 82.403651 
L 398.389618 79.449104 
L 398.076551 76.44613 
L 397.538638 73.440813 
L 396.952953 71.06402 
L 396.952953 71.06402 
" style="fill:none;stroke:#ffffff;stroke-linecap:square;"/>
   </g>
   <g id="patch_3">
    <path d="M 57.6 307.584 
L 57.6 41.472 
" style="fill:none;stroke:#000000;stroke-linecap:square;stroke-linejoin:miter;stroke-width:0.8;"/>
   </g>
   <g id="patch_4">
    <path d="M 414.72 307.584 
L 414.72 41.472 
" style="fill:none;stroke:#000000;stroke-linecap:square;stroke-linejoin:miter;stroke-width:0.8;"/>
   </g>
   <g id="patch_5">
    <path d="M 57.6 307.584 
L 414.72 307.584 
" style="fill:none;stroke:#000000;stroke-linecap:square;stroke-linejoin:miter;stroke-width:0.8;"/>
   </g>
   <g id="patch_6">
    <path d="M 57.6 41.472 
L 414.72 41.472 
" style="fill:none;stroke:#000000;stroke-linecap:square;stroke-linejoin:miter;stroke-width:0.8;"/>
   </g>
  </g>
 </g>
 <defs>
  <clipPath id="p4b3cfbb390">
   <rect height="266.112" width="357.12" x="57.6" y="41.472"/>
  </clipPath>
 </defs>
</svg>
