<?xml version="1.0" encoding="utf-8" standalone="no"?>
<!DOCTYPE svg PUBLIC "-//W3C//DTD SVG 1.1//EN"
  "http://www.w3.org/Graphics/SVG/1.1/DTD/svg11.dtd">
<!-- Created with matplotlib (https://matplotlib.org/) -->
<svg height="345.6pt" version="1.1" viewBox="0 0 460.8 345.6" width="460.8pt" xmlns="http://www.w3.org/2000/svg" xmlns:xlink="http://www.w3.org/1999/xlink">
 <metadata>
  <rdf:RDF xmlns:cc="http://creativecommons.org/ns#" xmlns:dc="http://purl.org/dc/elements/1.1/" xmlns:rdf="http://www.w3.org/1999/02/22-rdf-syntax-ns#">
   <cc:Work>
    <dc:type rdf:resource="http://purl.org/dc/dcmitype/StillImage"/>
    <dc:date>2021-01-23T11:59:01.757157</dc:date>
    <dc:format>image/svg+xml</dc:format>
    <dc:creator>
     <cc:Agent>
      <dc:title>Matplotlib v3.3.3, https://matplotlib.org/</dc:title>
     </cc:Agent>
    </dc:creator>
   </cc:Work>
  </rdf:RDF>
 </metadata>
 <defs>
  <style type="text/css">*{stroke-linecap:butt;stroke-linejoin:round;}</style>
 </defs>
 <g id="figure_1">
  <g id="patch_1">
   <path d="M 0 345.6 
L 460.8 345.6 
L 460.8 0 
L 0 0 
z
" style="fill:#ffffff;"/>
  </g>
  <g id="axes_1">
   <g id="patch_2">
    <path d="M 57.6 307.584 
L 414.72 307.584 
L 414.72 41.472 
L 57.6 41.472 
z
" style="fill:#7d9051;"/>
   </g>
   <g id="matplotlib.axis_1">
    <g id="xtick_1">
     <g id="line2d_1">
      <defs>
       <path d="M 0 0 
L 0 3.5 
" id="mfae52c3a29" style="stroke:#000000;stroke-width:0.8;"/>
      </defs>
      <g>
       <use style="stroke:#000000;stroke-width:0.8;" x="100.616736" xlink:href="#mfae52c3a29" y="307.584"/>
      </g>
     </g>
     <g id="text_1">
      <!-- 20 -->
      <g transform="translate(94.254236 322.182437)scale(0.1 -0.1)">
       <defs>
        <path d="M 19.1875 8.296875 
L 53.609375 8.296875 
L 53.609375 0 
L 7.328125 0 
L 7.328125 8.296875 
Q 12.9375 14.109375 22.625 23.890625 
Q 32.328125 33.6875 34.8125 36.53125 
Q 39.546875 41.84375 41.421875 45.53125 
Q 43.3125 49.21875 43.3125 52.78125 
Q 43.3125 58.59375 39.234375 62.25 
Q 35.15625 65.921875 28.609375 65.921875 
Q 23.96875 65.921875 18.8125 64.3125 
Q 13.671875 62.703125 7.8125 59.421875 
L 7.8125 69.390625 
Q 13.765625 71.78125 18.9375 73 
Q 24.125 74.21875 28.421875 74.21875 
Q 39.75 74.21875 46.484375 68.546875 
Q 53.21875 62.890625 53.21875 53.421875 
Q 53.21875 48.921875 51.53125 44.890625 
Q 49.859375 40.875 45.40625 35.40625 
Q 44.1875 33.984375 37.640625 27.21875 
Q 31.109375 20.453125 19.1875 8.296875 
z
" id="DejaVuSans-50"/>
        <path d="M 31.78125 66.40625 
Q 24.171875 66.40625 20.328125 58.90625 
Q 16.5 51.421875 16.5 36.375 
Q 16.5 21.390625 20.328125 13.890625 
Q 24.171875 6.390625 31.78125 6.390625 
Q 39.453125 6.390625 43.28125 13.890625 
Q 47.125 21.390625 47.125 36.375 
Q 47.125 51.421875 43.28125 58.90625 
Q 39.453125 66.40625 31.78125 66.40625 
z
M 31.78125 74.21875 
Q 44.046875 74.21875 50.515625 64.515625 
Q 56.984375 54.828125 56.984375 36.375 
Q 56.984375 17.96875 50.515625 8.265625 
Q 44.046875 -1.421875 31.78125 -1.421875 
Q 19.53125 -1.421875 13.0625 8.265625 
Q 6.59375 17.96875 6.59375 36.375 
Q 6.59375 54.828125 13.0625 64.515625 
Q 19.53125 74.21875 31.78125 74.21875 
z
" id="DejaVuSans-48"/>
       </defs>
       <use xlink:href="#DejaVuSans-50"/>
       <use x="63.623047" xlink:href="#DejaVuSans-48"/>
      </g>
     </g>
    </g>
    <g id="xtick_2">
     <g id="line2d_2">
      <g>
       <use style="stroke:#000000;stroke-width:0.8;" x="146.29577" xlink:href="#mfae52c3a29" y="307.584"/>
      </g>
     </g>
     <g id="text_2">
      <!-- 40 -->
      <g transform="translate(139.93327 322.182437)scale(0.1 -0.1)">
       <defs>
        <path d="M 37.796875 64.3125 
L 12.890625 25.390625 
L 37.796875 25.390625 
z
M 35.203125 72.90625 
L 47.609375 72.90625 
L 47.609375 25.390625 
L 58.015625 25.390625 
L 58.015625 17.1875 
L 47.609375 17.1875 
L 47.609375 0 
L 37.796875 0 
L 37.796875 17.1875 
L 4.890625 17.1875 
L 4.890625 26.703125 
z
" id="DejaVuSans-52"/>
       </defs>
       <use xlink:href="#DejaVuSans-52"/>
       <use x="63.623047" xlink:href="#DejaVuSans-48"/>
      </g>
     </g>
    </g>
    <g id="xtick_3">
     <g id="line2d_3">
      <g>
       <use style="stroke:#000000;stroke-width:0.8;" x="191.974804" xlink:href="#mfae52c3a29" y="307.584"/>
      </g>
     </g>
     <g id="text_3">
      <!-- 60 -->
      <g transform="translate(185.612304 322.182437)scale(0.1 -0.1)">
       <defs>
        <path d="M 33.015625 40.375 
Q 26.375 40.375 22.484375 35.828125 
Q 18.609375 31.296875 18.609375 23.390625 
Q 18.609375 15.53125 22.484375 10.953125 
Q 26.375 6.390625 33.015625 6.390625 
Q 39.65625 6.390625 43.53125 10.953125 
Q 47.40625 15.53125 47.40625 23.390625 
Q 47.40625 31.296875 43.53125 35.828125 
Q 39.65625 40.375 33.015625 40.375 
z
M 52.59375 71.296875 
L 52.59375 62.3125 
Q 48.875 64.0625 45.09375 64.984375 
Q 41.3125 65.921875 37.59375 65.921875 
Q 27.828125 65.921875 22.671875 59.328125 
Q 17.53125 52.734375 16.796875 39.40625 
Q 19.671875 43.65625 24.015625 45.921875 
Q 28.375 48.1875 33.59375 48.1875 
Q 44.578125 48.1875 50.953125 41.515625 
Q 57.328125 34.859375 57.328125 23.390625 
Q 57.328125 12.15625 50.6875 5.359375 
Q 44.046875 -1.421875 33.015625 -1.421875 
Q 20.359375 -1.421875 13.671875 8.265625 
Q 6.984375 17.96875 6.984375 36.375 
Q 6.984375 53.65625 15.1875 63.9375 
Q 23.390625 74.21875 37.203125 74.21875 
Q 40.921875 74.21875 44.703125 73.484375 
Q 48.484375 72.75 52.59375 71.296875 
z
" id="DejaVuSans-54"/>
       </defs>
       <use xlink:href="#DejaVuSans-54"/>
       <use x="63.623047" xlink:href="#DejaVuSans-48"/>
      </g>
     </g>
    </g>
    <g id="xtick_4">
     <g id="line2d_4">
      <g>
       <use style="stroke:#000000;stroke-width:0.8;" x="237.653838" xlink:href="#mfae52c3a29" y="307.584"/>
      </g>
     </g>
     <g id="text_4">
      <!-- 80 -->
      <g transform="translate(231.291338 322.182437)scale(0.1 -0.1)">
       <defs>
        <path d="M 31.78125 34.625 
Q 24.75 34.625 20.71875 30.859375 
Q 16.703125 27.09375 16.703125 20.515625 
Q 16.703125 13.921875 20.71875 10.15625 
Q 24.75 6.390625 31.78125 6.390625 
Q 38.8125 6.390625 42.859375 10.171875 
Q 46.921875 13.96875 46.921875 20.515625 
Q 46.921875 27.09375 42.890625 30.859375 
Q 38.875 34.625 31.78125 34.625 
z
M 21.921875 38.8125 
Q 15.578125 40.375 12.03125 44.71875 
Q 8.5 49.078125 8.5 55.328125 
Q 8.5 64.0625 14.71875 69.140625 
Q 20.953125 74.21875 31.78125 74.21875 
Q 42.671875 74.21875 48.875 69.140625 
Q 55.078125 64.0625 55.078125 55.328125 
Q 55.078125 49.078125 51.53125 44.71875 
Q 48 40.375 41.703125 38.8125 
Q 48.828125 37.15625 52.796875 32.3125 
Q 56.78125 27.484375 56.78125 20.515625 
Q 56.78125 9.90625 50.3125 4.234375 
Q 43.84375 -1.421875 31.78125 -1.421875 
Q 19.734375 -1.421875 13.25 4.234375 
Q 6.78125 9.90625 6.78125 20.515625 
Q 6.78125 27.484375 10.78125 32.3125 
Q 14.796875 37.15625 21.921875 38.8125 
z
M 18.3125 54.390625 
Q 18.3125 48.734375 21.84375 45.5625 
Q 25.390625 42.390625 31.78125 42.390625 
Q 38.140625 42.390625 41.71875 45.5625 
Q 45.3125 48.734375 45.3125 54.390625 
Q 45.3125 60.0625 41.71875 63.234375 
Q 38.140625 66.40625 31.78125 66.40625 
Q 25.390625 66.40625 21.84375 63.234375 
Q 18.3125 60.0625 18.3125 54.390625 
z
" id="DejaVuSans-56"/>
       </defs>
       <use xlink:href="#DejaVuSans-56"/>
       <use x="63.623047" xlink:href="#DejaVuSans-48"/>
      </g>
     </g>
    </g>
    <g id="xtick_5">
     <g id="line2d_5">
      <g>
       <use style="stroke:#000000;stroke-width:0.8;" x="283.332872" xlink:href="#mfae52c3a29" y="307.584"/>
      </g>
     </g>
     <g id="text_5">
      <!-- 100 -->
      <g transform="translate(273.789122 322.182437)scale(0.1 -0.1)">
       <defs>
        <path d="M 12.40625 8.296875 
L 28.515625 8.296875 
L 28.515625 63.921875 
L 10.984375 60.40625 
L 10.984375 69.390625 
L 28.421875 72.90625 
L 38.28125 72.90625 
L 38.28125 8.296875 
L 54.390625 8.296875 
L 54.390625 0 
L 12.40625 0 
z
" id="DejaVuSans-49"/>
       </defs>
       <use xlink:href="#DejaVuSans-49"/>
       <use x="63.623047" xlink:href="#DejaVuSans-48"/>
       <use x="127.246094" xlink:href="#DejaVuSans-48"/>
      </g>
     </g>
    </g>
    <g id="xtick_6">
     <g id="line2d_6">
      <g>
       <use style="stroke:#000000;stroke-width:0.8;" x="329.011906" xlink:href="#mfae52c3a29" y="307.584"/>
      </g>
     </g>
     <g id="text_6">
      <!-- 120 -->
      <g transform="translate(319.468156 322.182437)scale(0.1 -0.1)">
       <use xlink:href="#DejaVuSans-49"/>
       <use x="63.623047" xlink:href="#DejaVuSans-50"/>
       <use x="127.246094" xlink:href="#DejaVuSans-48"/>
      </g>
     </g>
    </g>
    <g id="xtick_7">
     <g id="line2d_7">
      <g>
       <use style="stroke:#000000;stroke-width:0.8;" x="374.69094" xlink:href="#mfae52c3a29" y="307.584"/>
      </g>
     </g>
     <g id="text_7">
      <!-- 140 -->
      <g transform="translate(365.14719 322.182437)scale(0.1 -0.1)">
       <use xlink:href="#DejaVuSans-49"/>
       <use x="63.623047" xlink:href="#DejaVuSans-52"/>
       <use x="127.246094" xlink:href="#DejaVuSans-48"/>
      </g>
     </g>
    </g>
   </g>
   <g id="matplotlib.axis_2">
    <g id="ytick_1">
     <g id="line2d_8">
      <defs>
       <path d="M 0 0 
L -3.5 0 
" id="mc4cf43960d" style="stroke:#000000;stroke-width:0.8;"/>
      </defs>
      <g>
       <use style="stroke:#000000;stroke-width:0.8;" x="57.6" xlink:href="#mc4cf43960d" y="305.893386"/>
      </g>
     </g>
     <g id="text_8">
      <!-- −20 -->
      <g transform="translate(29.495313 309.692605)scale(0.1 -0.1)">
       <defs>
        <path d="M 10.59375 35.5 
L 73.1875 35.5 
L 73.1875 27.203125 
L 10.59375 27.203125 
z
" id="DejaVuSans-8722"/>
       </defs>
       <use xlink:href="#DejaVuSans-8722"/>
       <use x="83.789062" xlink:href="#DejaVuSans-50"/>
       <use x="147.412109" xlink:href="#DejaVuSans-48"/>
      </g>
     </g>
    </g>
    <g id="ytick_2">
     <g id="line2d_9">
      <g>
       <use style="stroke:#000000;stroke-width:0.8;" x="57.6" xlink:href="#mc4cf43960d" y="260.214352"/>
      </g>
     </g>
     <g id="text_9">
      <!-- 0 -->
      <g transform="translate(44.2375 264.013571)scale(0.1 -0.1)">
       <use xlink:href="#DejaVuSans-48"/>
      </g>
     </g>
    </g>
    <g id="ytick_3">
     <g id="line2d_10">
      <g>
       <use style="stroke:#000000;stroke-width:0.8;" x="57.6" xlink:href="#mc4cf43960d" y="214.535318"/>
      </g>
     </g>
     <g id="text_10">
      <!-- 20 -->
      <g transform="translate(37.875 218.334537)scale(0.1 -0.1)">
       <use xlink:href="#DejaVuSans-50"/>
       <use x="63.623047" xlink:href="#DejaVuSans-48"/>
      </g>
     </g>
    </g>
    <g id="ytick_4">
     <g id="line2d_11">
      <g>
       <use style="stroke:#000000;stroke-width:0.8;" x="57.6" xlink:href="#mc4cf43960d" y="168.856284"/>
      </g>
     </g>
     <g id="text_11">
      <!-- 40 -->
      <g transform="translate(37.875 172.655502)scale(0.1 -0.1)">
       <use xlink:href="#DejaVuSans-52"/>
       <use x="63.623047" xlink:href="#DejaVuSans-48"/>
      </g>
     </g>
    </g>
    <g id="ytick_5">
     <g id="line2d_12">
      <g>
       <use style="stroke:#000000;stroke-width:0.8;" x="57.6" xlink:href="#mc4cf43960d" y="123.17725"/>
      </g>
     </g>
     <g id="text_12">
      <!-- 60 -->
      <g transform="translate(37.875 126.976468)scale(0.1 -0.1)">
       <use xlink:href="#DejaVuSans-54"/>
       <use x="63.623047" xlink:href="#DejaVuSans-48"/>
      </g>
     </g>
    </g>
    <g id="ytick_6">
     <g id="line2d_13">
      <g>
       <use style="stroke:#000000;stroke-width:0.8;" x="57.6" xlink:href="#mc4cf43960d" y="77.498216"/>
      </g>
     </g>
     <g id="text_13">
      <!-- 80 -->
      <g transform="translate(37.875 81.297434)scale(0.1 -0.1)">
       <use xlink:href="#DejaVuSans-56"/>
       <use x="63.623047" xlink:href="#DejaVuSans-48"/>
      </g>
     </g>
    </g>
   </g>
   <g id="line2d_14">
    <path clip-path="url(#p9fbd845cb8)" d="M 378.153411 237.374835 
L 377.593843 234.994957 
L 377.185016 232.642487 
L 376.915509 230.312856 
L 376.776188 228.006065 
L 376.757917 225.719829 
L 377.047979 221.202173 
L 377.717176 216.743899 
L 378.692424 212.335872 
L 379.89835 207.959821 
L 381.983598 201.430003 
L 385.594526 190.514998 
L 386.875823 186.102403 
L 387.9607 181.650981 
L 388.778355 177.15388 
L 389.260268 172.604248 
L 389.337923 167.997518 
L 389.210021 165.681591 
L 388.965639 163.370232 
L 388.60249 161.07486 
L 388.120577 158.802328 
L 387.510761 156.564056 
L 386.777613 154.371462 
L 385.911995 152.233683 
L 384.913908 150.157571 
L 383.778784 148.159113 
L 382.508907 146.242878 
L 381.108845 144.415717 
L 379.590017 142.677629 
L 377.961559 141.035468 
L 376.230324 139.489233 
L 374.410014 138.043491 
L 372.509767 136.700528 
L 370.536432 135.46491 
L 368.501431 134.338922 
L 366.413899 133.324847 
L 364.280689 132.427254 
L 362.113218 131.641575 
L 357.680068 130.392253 
L 353.15556 129.554043 
L 348.578521 129.097252 
L 343.987778 128.992191 
L 339.41759 129.209166 
L 334.87481 129.704784 
L 330.357154 130.433364 
L 325.866905 131.344661 
L 319.181778 132.957131 
L 303.673746 136.876392 
L 299.204053 137.767133 
L 294.7001 138.463738 
L 287.893924 139.253986 
L 276.524412 140.448492 
L 269.747928 141.419172 
L 263.007986 142.63195 
L 256.295452 144.05942 
L 240.632111 147.636088 
L 236.125874 148.325842 
L 231.59223 148.679854 
L 227.028895 148.615904 
L 222.465559 148.143126 
L 217.934199 147.298064 
L 213.473641 146.114977 
L 209.115862 144.628124 
L 204.883699 142.874049 
L 200.758882 140.916702 
L 194.694991 137.728306 
L 182.610602 131.219044 
L 178.506341 129.202314 
L 174.335845 127.329474 
L 170.087695 125.643917 
L 165.748187 124.182188 
L 161.319604 122.971694 
L 156.822503 122.026138 
L 152.282007 121.359224 
L 147.720956 120.980088 
L 143.159904 120.904718 
L 138.610272 121.09657 
L 131.790393 121.729224 
L 115.821002 123.478731 
L 111.243963 123.773361 
L 106.67606 123.89441 
L 102.124144 123.80762 
L 97.597352 123.471879 
L 93.104819 122.848361 
L 88.655681 121.898237 
L 84.25679 120.580397 
L 79.919566 118.856013 
L 77.777219 117.830519 
L 77.777219 117.830519 
" style="fill:none;stroke:#fea952;stroke-linecap:square;"/>
   </g>
   <g id="line2d_15">
    <path clip-path="url(#p9fbd845cb8)" d="M 369.260124 239.465867 
L 368.592946 236.559191 
L 368.109736 233.692372 
L 367.796319 230.863619 
L 367.640673 228.079076 
L 367.629887 225.342942 
L 367.750375 222.657244 
L 368.33311 217.438753 
L 369.281646 212.430512 
L 370.489785 207.622437 
L 371.866861 202.987949 
L 374.792022 194.174193 
L 376.846011 187.883183 
L 378.027984 183.826724 
L 378.999856 179.871588 
L 379.714082 176.012859 
L 380.131689 172.240922 
L 380.216016 168.501292 
L 379.942064 164.797842 
L 379.306058 161.203835 
L 378.309655 157.800261 
L 376.970101 154.669654 
L 376.163398 153.205782 
L 375.257214 151.799488 
L 374.229531 150.427206 
L 373.103016 149.110497 
L 370.548443 146.643196 
L 367.661356 144.443646 
L 364.509545 142.556452 
L 361.167312 141.016192 
L 357.63824 139.813988 
L 353.959985 138.941117 
L 350.145955 138.386911 
L 346.246788 138.137061 
L 342.283338 138.18011 
L 338.256823 138.493769 
L 334.171732 139.04478 
L 330.002825 139.807116 
L 323.643374 141.252392 
L 303.13701 146.321852 
L 298.265296 147.178726 
L 291.134241 148.096289 
L 273.410592 150.094035 
L 266.968643 151.175419 
L 260.517133 152.478917 
L 251.724447 154.539362 
L 244.637336 156.159939 
L 239.61924 157.069207 
L 234.376357 157.673296 
L 231.674614 157.81529 
L 228.975053 157.82997 
L 226.282265 157.72115 
L 223.60955 157.493599 
L 218.347447 156.711436 
L 213.189813 155.533632 
L 208.183645 154.002486 
L 203.365268 152.168923 
L 198.804878 150.128224 
L 194.456489 147.95768 
L 186.294087 143.539373 
L 178.514 139.384876 
L 172.769862 136.615803 
L 168.956471 134.993366 
L 165.133425 133.580816 
L 161.259877 132.391173 
L 157.332286 131.432363 
L 153.374428 130.715106 
L 149.391285 130.248442 
L 145.439288 130.040524 
L 141.388808 130.092862 
L 137.18565 130.368594 
L 130.607293 131.062222 
L 118.890761 132.384653 
L 111.58142 132.902933 
L 106.621136 133.030052 
L 101.582287 132.927344 
L 96.493633 132.54077 
L 91.369672 131.817877 
L 86.213358 130.701533 
L 83.650224 129.982555 
L 81.075599 129.144449 
L 78.514708 128.1832 
L 73.832727 126.070904 
L 73.832727 126.070904 
" style="fill:none;stroke:#ffffff;stroke-linecap:square;"/>
   </g>
   <g id="line2d_16">
    <path clip-path="url(#p9fbd845cb8)" d="M 387.046698 235.283803 
L 386.260296 231.592602 
L 385.911703 227.933054 
L 385.952742 224.246486 
L 386.347539 220.493615 
L 387.06172 216.640124 
L 388.050742 212.668689 
L 389.937497 206.474181 
L 395.05442 190.776218 
L 396.349581 185.932682 
L 397.419786 180.896728 
L 398.16599 175.669484 
L 398.388848 172.967575 
L 398.487273 170.254713 
L 398.459829 167.493744 
L 398.295187 164.721005 
L 397.989213 161.942621 
L 397.539559 159.179663 
L 396.935095 156.400822 
L 396.175037 153.666938 
L 395.24557 150.942663 
L 394.145731 148.27533 
L 392.857716 145.645488 
L 391.39417 143.112445 
L 389.7606 140.686268 
L 387.988159 138.404227 
L 386.077018 136.244762 
L 384.047222 134.221683 
L 381.912205 132.335269 
L 379.682705 130.582814 
L 377.358177 128.957409 
L 374.959454 127.471172 
L 372.493317 126.121391 
L 369.957098 124.904116 
L 367.394065 123.838316 
L 364.794837 122.908197 
L 362.184738 122.117061 
L 359.539732 121.447723 
L 356.896198 120.906969 
L 351.597261 120.173026 
L 346.31951 119.865592 
L 341.115179 119.945876 
L 336.028726 120.358514 
L 331.055665 121.040837 
L 326.216666 121.932082 
L 319.164752 123.538166 
L 299.74764 128.367352 
L 295.647993 129.095541 
L 289.19867 129.927485 
L 272.962618 131.700051 
L 265.880862 132.806808 
L 258.864214 134.149295 
L 251.925008 135.694912 
L 241.117136 138.230632 
L 237.145598 138.96581 
L 233.3486 139.43061 
L 229.65064 139.57085 
L 225.880336 139.36364 
L 222.038608 138.816543 
L 218.197472 137.961631 
L 214.373882 136.811417 
L 210.604602 135.392633 
L 206.814864 133.705923 
L 201.044322 130.773773 
L 184.527526 121.961115 
L 180.090596 119.874874 
L 175.489909 117.929778 
L 170.725296 116.185907 
L 165.823902 114.698758 
L 160.821242 113.49695 
L 155.739219 112.597169 
L 150.613962 112.017783 
L 145.439288 111.768911 
L 140.381368 111.849043 
L 135.485263 112.176273 
L 128.42386 112.921536 
L 117.328283 114.179969 
L 110.906506 114.643789 
L 106.730983 114.758769 
L 102.666001 114.687897 
L 98.701071 114.402989 
L 94.839966 113.878844 
L 91.098003 113.09494 
L 87.43798 112.016344 
L 83.864057 110.615628 
L 81.72171 109.590133 
L 81.72171 109.590133 
" style="fill:none;stroke:#ffffff;stroke-linecap:square;"/>
   </g>
   <g id="patch_3">
    <path d="M 57.6 307.584 
L 57.6 41.472 
" style="fill:none;stroke:#000000;stroke-linecap:square;stroke-linejoin:miter;stroke-width:0.8;"/>
   </g>
   <g id="patch_4">
    <path d="M 414.72 307.584 
L 414.72 41.472 
" style="fill:none;stroke:#000000;stroke-linecap:square;stroke-linejoin:miter;stroke-width:0.8;"/>
   </g>
   <g id="patch_5">
    <path d="M 57.6 307.584 
L 414.72 307.584 
" style="fill:none;stroke:#000000;stroke-linecap:square;stroke-linejoin:miter;stroke-width:0.8;"/>
   </g>
   <g id="patch_6">
    <path d="M 57.6 41.472 
L 414.72 41.472 
" style="fill:none;stroke:#000000;stroke-linecap:square;stroke-linejoin:miter;stroke-width:0.8;"/>
   </g>
  </g>
 </g>
 <defs>
  <clipPath id="p9fbd845cb8">
   <rect height="266.112" width="357.12" x="57.6" y="41.472"/>
  </clipPath>
 </defs>
</svg>
