<?xml version="1.0" encoding="utf-8" standalone="no"?>
<!DOCTYPE svg PUBLIC "-//W3C//DTD SVG 1.1//EN"
  "http://www.w3.org/Graphics/SVG/1.1/DTD/svg11.dtd">
<!-- Created with matplotlib (https://matplotlib.org/) -->
<svg height="345.6pt" version="1.1" viewBox="0 0 460.8 345.6" width="460.8pt" xmlns="http://www.w3.org/2000/svg" xmlns:xlink="http://www.w3.org/1999/xlink">
 <metadata>
  <rdf:RDF xmlns:cc="http://creativecommons.org/ns#" xmlns:dc="http://purl.org/dc/elements/1.1/" xmlns:rdf="http://www.w3.org/1999/02/22-rdf-syntax-ns#">
   <cc:Work>
    <dc:type rdf:resource="http://purl.org/dc/dcmitype/StillImage"/>
    <dc:date>2021-01-23T14:05:41.649923</dc:date>
    <dc:format>image/svg+xml</dc:format>
    <dc:creator>
     <cc:Agent>
      <dc:title>Matplotlib v3.3.3, https://matplotlib.org/</dc:title>
     </cc:Agent>
    </dc:creator>
   </cc:Work>
  </rdf:RDF>
 </metadata>
 <defs>
  <style type="text/css">*{stroke-linecap:butt;stroke-linejoin:round;}</style>
 </defs>
 <g id="figure_1">
  <g id="patch_1">
   <path d="M 0 345.6 
L 460.8 345.6 
L 460.8 0 
L 0 0 
z
" style="fill:#ffffff;"/>
  </g>
  <g id="axes_1">
   <g id="patch_2">
    <path d="M 57.6 307.584 
L 414.72 307.584 
L 414.72 41.472 
L 57.6 41.472 
z
" style="fill:#7d9051;"/>
   </g>
   <g id="matplotlib.axis_1">
    <g id="xtick_1">
     <g id="line2d_1">
      <defs>
       <path d="M 0 0 
L 0 3.5 
" id="mdd7d376e82" style="stroke:#000000;stroke-width:0.8;"/>
      </defs>
      <g>
       <use style="stroke:#000000;stroke-width:0.8;" x="92.270248" xlink:href="#mdd7d376e82" y="307.584"/>
      </g>
     </g>
     <g id="text_1">
      <!-- 0 -->
      <g transform="translate(89.088998 322.182437)scale(0.1 -0.1)">
       <defs>
        <path d="M 31.78125 66.40625 
Q 24.171875 66.40625 20.328125 58.90625 
Q 16.5 51.421875 16.5 36.375 
Q 16.5 21.390625 20.328125 13.890625 
Q 24.171875 6.390625 31.78125 6.390625 
Q 39.453125 6.390625 43.28125 13.890625 
Q 47.125 21.390625 47.125 36.375 
Q 47.125 51.421875 43.28125 58.90625 
Q 39.453125 66.40625 31.78125 66.40625 
z
M 31.78125 74.21875 
Q 44.046875 74.21875 50.515625 64.515625 
Q 56.984375 54.828125 56.984375 36.375 
Q 56.984375 17.96875 50.515625 8.265625 
Q 44.046875 -1.421875 31.78125 -1.421875 
Q 19.53125 -1.421875 13.0625 8.265625 
Q 6.59375 17.96875 6.59375 36.375 
Q 6.59375 54.828125 13.0625 64.515625 
Q 19.53125 74.21875 31.78125 74.21875 
z
" id="DejaVuSans-48"/>
       </defs>
       <use xlink:href="#DejaVuSans-48"/>
      </g>
     </g>
    </g>
    <g id="xtick_2">
     <g id="line2d_2">
      <g>
       <use style="stroke:#000000;stroke-width:0.8;" x="143.308431" xlink:href="#mdd7d376e82" y="307.584"/>
      </g>
     </g>
     <g id="text_2">
      <!-- 20 -->
      <g transform="translate(136.945931 322.182437)scale(0.1 -0.1)">
       <defs>
        <path d="M 19.1875 8.296875 
L 53.609375 8.296875 
L 53.609375 0 
L 7.328125 0 
L 7.328125 8.296875 
Q 12.9375 14.109375 22.625 23.890625 
Q 32.328125 33.6875 34.8125 36.53125 
Q 39.546875 41.84375 41.421875 45.53125 
Q 43.3125 49.21875 43.3125 52.78125 
Q 43.3125 58.59375 39.234375 62.25 
Q 35.15625 65.921875 28.609375 65.921875 
Q 23.96875 65.921875 18.8125 64.3125 
Q 13.671875 62.703125 7.8125 59.421875 
L 7.8125 69.390625 
Q 13.765625 71.78125 18.9375 73 
Q 24.125 74.21875 28.421875 74.21875 
Q 39.75 74.21875 46.484375 68.546875 
Q 53.21875 62.890625 53.21875 53.421875 
Q 53.21875 48.921875 51.53125 44.890625 
Q 49.859375 40.875 45.40625 35.40625 
Q 44.1875 33.984375 37.640625 27.21875 
Q 31.109375 20.453125 19.1875 8.296875 
z
" id="DejaVuSans-50"/>
       </defs>
       <use xlink:href="#DejaVuSans-50"/>
       <use x="63.623047" xlink:href="#DejaVuSans-48"/>
      </g>
     </g>
    </g>
    <g id="xtick_3">
     <g id="line2d_3">
      <g>
       <use style="stroke:#000000;stroke-width:0.8;" x="194.346614" xlink:href="#mdd7d376e82" y="307.584"/>
      </g>
     </g>
     <g id="text_3">
      <!-- 40 -->
      <g transform="translate(187.984114 322.182437)scale(0.1 -0.1)">
       <defs>
        <path d="M 37.796875 64.3125 
L 12.890625 25.390625 
L 37.796875 25.390625 
z
M 35.203125 72.90625 
L 47.609375 72.90625 
L 47.609375 25.390625 
L 58.015625 25.390625 
L 58.015625 17.1875 
L 47.609375 17.1875 
L 47.609375 0 
L 37.796875 0 
L 37.796875 17.1875 
L 4.890625 17.1875 
L 4.890625 26.703125 
z
" id="DejaVuSans-52"/>
       </defs>
       <use xlink:href="#DejaVuSans-52"/>
       <use x="63.623047" xlink:href="#DejaVuSans-48"/>
      </g>
     </g>
    </g>
    <g id="xtick_4">
     <g id="line2d_4">
      <g>
       <use style="stroke:#000000;stroke-width:0.8;" x="245.384797" xlink:href="#mdd7d376e82" y="307.584"/>
      </g>
     </g>
     <g id="text_4">
      <!-- 60 -->
      <g transform="translate(239.022297 322.182437)scale(0.1 -0.1)">
       <defs>
        <path d="M 33.015625 40.375 
Q 26.375 40.375 22.484375 35.828125 
Q 18.609375 31.296875 18.609375 23.390625 
Q 18.609375 15.53125 22.484375 10.953125 
Q 26.375 6.390625 33.015625 6.390625 
Q 39.65625 6.390625 43.53125 10.953125 
Q 47.40625 15.53125 47.40625 23.390625 
Q 47.40625 31.296875 43.53125 35.828125 
Q 39.65625 40.375 33.015625 40.375 
z
M 52.59375 71.296875 
L 52.59375 62.3125 
Q 48.875 64.0625 45.09375 64.984375 
Q 41.3125 65.921875 37.59375 65.921875 
Q 27.828125 65.921875 22.671875 59.328125 
Q 17.53125 52.734375 16.796875 39.40625 
Q 19.671875 43.65625 24.015625 45.921875 
Q 28.375 48.1875 33.59375 48.1875 
Q 44.578125 48.1875 50.953125 41.515625 
Q 57.328125 34.859375 57.328125 23.390625 
Q 57.328125 12.15625 50.6875 5.359375 
Q 44.046875 -1.421875 33.015625 -1.421875 
Q 20.359375 -1.421875 13.671875 8.265625 
Q 6.984375 17.96875 6.984375 36.375 
Q 6.984375 53.65625 15.1875 63.9375 
Q 23.390625 74.21875 37.203125 74.21875 
Q 40.921875 74.21875 44.703125 73.484375 
Q 48.484375 72.75 52.59375 71.296875 
z
" id="DejaVuSans-54"/>
       </defs>
       <use xlink:href="#DejaVuSans-54"/>
       <use x="63.623047" xlink:href="#DejaVuSans-48"/>
      </g>
     </g>
    </g>
    <g id="xtick_5">
     <g id="line2d_5">
      <g>
       <use style="stroke:#000000;stroke-width:0.8;" x="296.42298" xlink:href="#mdd7d376e82" y="307.584"/>
      </g>
     </g>
     <g id="text_5">
      <!-- 80 -->
      <g transform="translate(290.06048 322.182437)scale(0.1 -0.1)">
       <defs>
        <path d="M 31.78125 34.625 
Q 24.75 34.625 20.71875 30.859375 
Q 16.703125 27.09375 16.703125 20.515625 
Q 16.703125 13.921875 20.71875 10.15625 
Q 24.75 6.390625 31.78125 6.390625 
Q 38.8125 6.390625 42.859375 10.171875 
Q 46.921875 13.96875 46.921875 20.515625 
Q 46.921875 27.09375 42.890625 30.859375 
Q 38.875 34.625 31.78125 34.625 
z
M 21.921875 38.8125 
Q 15.578125 40.375 12.03125 44.71875 
Q 8.5 49.078125 8.5 55.328125 
Q 8.5 64.0625 14.71875 69.140625 
Q 20.953125 74.21875 31.78125 74.21875 
Q 42.671875 74.21875 48.875 69.140625 
Q 55.078125 64.0625 55.078125 55.328125 
Q 55.078125 49.078125 51.53125 44.71875 
Q 48 40.375 41.703125 38.8125 
Q 48.828125 37.15625 52.796875 32.3125 
Q 56.78125 27.484375 56.78125 20.515625 
Q 56.78125 9.90625 50.3125 4.234375 
Q 43.84375 -1.421875 31.78125 -1.421875 
Q 19.734375 -1.421875 13.25 4.234375 
Q 6.78125 9.90625 6.78125 20.515625 
Q 6.78125 27.484375 10.78125 32.3125 
Q 14.796875 37.15625 21.921875 38.8125 
z
M 18.3125 54.390625 
Q 18.3125 48.734375 21.84375 45.5625 
Q 25.390625 42.390625 31.78125 42.390625 
Q 38.140625 42.390625 41.71875 45.5625 
Q 45.3125 48.734375 45.3125 54.390625 
Q 45.3125 60.0625 41.71875 63.234375 
Q 38.140625 66.40625 31.78125 66.40625 
Q 25.390625 66.40625 21.84375 63.234375 
Q 18.3125 60.0625 18.3125 54.390625 
z
" id="DejaVuSans-56"/>
       </defs>
       <use xlink:href="#DejaVuSans-56"/>
       <use x="63.623047" xlink:href="#DejaVuSans-48"/>
      </g>
     </g>
    </g>
    <g id="xtick_6">
     <g id="line2d_6">
      <g>
       <use style="stroke:#000000;stroke-width:0.8;" x="347.461163" xlink:href="#mdd7d376e82" y="307.584"/>
      </g>
     </g>
     <g id="text_6">
      <!-- 100 -->
      <g transform="translate(337.917413 322.182437)scale(0.1 -0.1)">
       <defs>
        <path d="M 12.40625 8.296875 
L 28.515625 8.296875 
L 28.515625 63.921875 
L 10.984375 60.40625 
L 10.984375 69.390625 
L 28.421875 72.90625 
L 38.28125 72.90625 
L 38.28125 8.296875 
L 54.390625 8.296875 
L 54.390625 0 
L 12.40625 0 
z
" id="DejaVuSans-49"/>
       </defs>
       <use xlink:href="#DejaVuSans-49"/>
       <use x="63.623047" xlink:href="#DejaVuSans-48"/>
       <use x="127.246094" xlink:href="#DejaVuSans-48"/>
      </g>
     </g>
    </g>
    <g id="xtick_7">
     <g id="line2d_7">
      <g>
       <use style="stroke:#000000;stroke-width:0.8;" x="398.499347" xlink:href="#mdd7d376e82" y="307.584"/>
      </g>
     </g>
     <g id="text_7">
      <!-- 120 -->
      <g transform="translate(388.955597 322.182437)scale(0.1 -0.1)">
       <use xlink:href="#DejaVuSans-49"/>
       <use x="63.623047" xlink:href="#DejaVuSans-50"/>
       <use x="127.246094" xlink:href="#DejaVuSans-48"/>
      </g>
     </g>
    </g>
   </g>
   <g id="matplotlib.axis_2">
    <g id="ytick_1">
     <g id="line2d_8">
      <defs>
       <path d="M 0 0 
L -3.5 0 
" id="m3731af4914" style="stroke:#000000;stroke-width:0.8;"/>
      </defs>
      <g>
       <use style="stroke:#000000;stroke-width:0.8;" x="57.6" xlink:href="#m3731af4914" y="269.038369"/>
      </g>
     </g>
     <g id="text_8">
      <!-- 20 -->
      <g transform="translate(37.875 272.837588)scale(0.1 -0.1)">
       <use xlink:href="#DejaVuSans-50"/>
       <use x="63.623047" xlink:href="#DejaVuSans-48"/>
      </g>
     </g>
    </g>
    <g id="ytick_2">
     <g id="line2d_9">
      <g>
       <use style="stroke:#000000;stroke-width:0.8;" x="57.6" xlink:href="#m3731af4914" y="218.000186"/>
      </g>
     </g>
     <g id="text_9">
      <!-- 40 -->
      <g transform="translate(37.875 221.799404)scale(0.1 -0.1)">
       <use xlink:href="#DejaVuSans-52"/>
       <use x="63.623047" xlink:href="#DejaVuSans-48"/>
      </g>
     </g>
    </g>
    <g id="ytick_3">
     <g id="line2d_10">
      <g>
       <use style="stroke:#000000;stroke-width:0.8;" x="57.6" xlink:href="#m3731af4914" y="166.962003"/>
      </g>
     </g>
     <g id="text_10">
      <!-- 60 -->
      <g transform="translate(37.875 170.761221)scale(0.1 -0.1)">
       <use xlink:href="#DejaVuSans-54"/>
       <use x="63.623047" xlink:href="#DejaVuSans-48"/>
      </g>
     </g>
    </g>
    <g id="ytick_4">
     <g id="line2d_11">
      <g>
       <use style="stroke:#000000;stroke-width:0.8;" x="57.6" xlink:href="#m3731af4914" y="115.92382"/>
      </g>
     </g>
     <g id="text_11">
      <!-- 80 -->
      <g transform="translate(37.875 119.723038)scale(0.1 -0.1)">
       <use xlink:href="#DejaVuSans-56"/>
       <use x="63.623047" xlink:href="#DejaVuSans-48"/>
      </g>
     </g>
    </g>
    <g id="ytick_5">
     <g id="line2d_12">
      <g>
       <use style="stroke:#000000;stroke-width:0.8;" x="57.6" xlink:href="#m3731af4914" y="64.885636"/>
      </g>
     </g>
     <g id="text_12">
      <!-- 100 -->
      <g transform="translate(31.5125 68.684855)scale(0.1 -0.1)">
       <use xlink:href="#DejaVuSans-49"/>
       <use x="63.623047" xlink:href="#DejaVuSans-48"/>
       <use x="127.246094" xlink:href="#DejaVuSans-48"/>
      </g>
     </g>
    </g>
   </g>
   <g id="line2d_13">
    <path clip-path="url(#p0cf1e0e3fe)" d="M 351.962731 156.606355 
L 352.845692 154.115692 
L 353.57809 151.604613 
L 354.165029 149.073119 
L 354.609061 146.528866 
L 354.910186 143.974405 
L 355.078612 141.41484 
L 355.111787 138.852723 
L 355.017366 136.29571 
L 354.797902 133.746353 
L 354.455946 131.209755 
L 353.994051 128.688469 
L 353.419871 126.187598 
L 352.73596 123.714798 
L 351.044044 118.855963 
L 348.95403 114.150243 
L 346.491438 109.633363 
L 343.684338 105.335948 
L 340.571009 101.270757 
L 337.189729 97.42503 
L 333.586433 93.783456 
L 329.796848 90.333275 
L 325.86946 87.064279 
L 321.81958 83.958605 
L 317.657416 81.013702 
L 313.382969 78.219362 
L 309.003893 75.562824 
L 304.520188 73.041538 
L 299.936959 70.686126 
L 295.249102 68.568041 
L 290.461721 66.758738 
L 285.572263 65.334772 
L 283.089255 64.791216 
L 280.580728 64.365047 
L 278.049234 64.058818 
L 272.945416 63.775556 
L 267.805871 63.890392 
L 262.67143 64.359943 
L 257.570163 65.133172 
L 252.540351 66.174351 
L 247.581991 67.460513 
L 242.702741 68.978899 
L 237.9026 70.714197 
L 233.186671 72.653648 
L 228.552404 74.784492 
L 223.997247 77.078658 
L 217.288277 80.78403 
L 210.704352 84.729282 
L 193.320747 95.483027 
L 188.867665 97.93286 
L 184.322715 100.198955 
L 177.363659 103.337804 
L 160.868118 110.480597 
L 156.238955 112.751796 
L 151.760354 115.255219 
L 147.506322 118.059767 
L 145.48521 119.601121 
L 143.545759 121.24455 
L 141.698176 122.997712 
L 139.942463 124.855502 
L 138.278618 126.807712 
L 136.711746 128.849239 
L 135.236742 130.964772 
L 133.85616 133.151758 
L 131.385911 137.69926 
L 129.306106 142.420292 
L 127.606534 147.253608 
L 126.233607 152.173689 
L 125.115871 157.157568 
L 123.773566 164.713771 
L 122.296011 174.842298 
L 121.430914 182.457195 
L 121.027712 187.540598 
L 120.803144 192.631657 
L 120.769969 197.727819 
L 120.958811 205.378443 
L 121.362012 218.143093 
L 121.323734 225.801372 
L 121.030264 233.454548 
L 120.514778 241.097516 
L 119.555261 251.264322 
L 118.021563 266.499219 
L 117.467799 274.121772 
L 117.258542 279.215383 
L 117.217712 284.316649 
L 117.383586 289.430675 
L 117.789339 294.55746 
L 117.789339 294.55746 
" style="fill:none;stroke:#fea952;stroke-linecap:square;"/>
   </g>
   <g id="line2d_14">
    <path clip-path="url(#p0cf1e0e3fe)" d="M 342.34177 153.195645 
L 343.046361 151.257554 
L 343.634229 149.299081 
L 344.471617 145.333843 
L 344.871831 141.282681 
L 344.847344 137.171208 
L 344.415408 133.049166 
L 343.581582 128.908611 
L 342.376727 124.830572 
L 340.801952 120.811526 
L 338.904682 116.93069 
L 336.692099 113.202827 
L 334.168815 109.623404 
L 331.349314 106.17939 
L 328.256963 102.858625 
L 324.927302 99.662997 
L 321.40367 96.591882 
L 317.729071 93.652181 
L 313.931098 90.853201 
L 310.028292 88.19277 
L 305.982826 85.644472 
L 301.836028 83.220905 
L 297.672296 80.967554 
L 293.537059 78.953603 
L 289.424 77.230317 
L 285.378606 75.853063 
L 281.379596 74.85466 
L 277.273371 74.236926 
L 272.986003 73.983112 
L 268.574074 74.069081 
L 264.064126 74.472126 
L 259.515508 75.153724 
L 254.977813 76.086698 
L 250.496431 77.243247 
L 246.058929 78.619015 
L 241.683049 80.195972 
L 237.363632 81.967554 
L 233.068291 83.938869 
L 228.809305 86.080877 
L 222.442372 89.594885 
L 216.107984 93.38934 
L 198.326613 104.378933 
L 193.510384 107.02357 
L 188.636011 109.450513 
L 181.394494 112.715874 
L 165.266903 119.691815 
L 161.073557 121.741928 
L 157.201555 123.891722 
L 153.696295 126.176422 
L 150.571961 128.649165 
L 149.117001 130.008909 
L 146.376204 133.022609 
L 143.868382 136.413684 
L 141.643398 140.081394 
L 139.719876 143.965055 
L 138.100296 148.036334 
L 136.755184 152.294187 
L 135.631436 156.780629 
L 134.68618 161.440841 
L 133.474977 168.758908 
L 132.42388 176.115923 
L 131.59983 183.345444 
L 131.220956 188.082466 
L 131.009628 192.785061 
L 130.976456 197.574569 
L 131.159467 205.001019 
L 131.569399 218.071712 
L 131.527371 226.087074 
L 131.22074 234.046187 
L 130.686377 241.954501 
L 129.707591 252.32547 
L 127.990084 269.784517 
L 127.544816 277.00592 
L 127.422791 281.754532 
L 127.472123 286.433896 
L 127.719697 291.062252 
L 127.954473 293.626921 
L 127.954473 293.626921 
" style="fill:none;stroke:#ffffff;stroke-linecap:square;"/>
   </g>
   <g id="line2d_15">
    <path clip-path="url(#p0cf1e0e3fe)" d="M 361.583693 160.017065 
L 362.645023 156.97383 
L 363.52195 153.910146 
L 364.220674 150.828067 
L 364.746505 147.723889 
L 365.095795 144.644644 
L 365.285393 141.547 
L 365.312472 138.476051 
L 365.187389 135.420213 
L 364.91403 132.382609 
L 364.496485 129.370345 
L 363.942842 126.404308 
L 363.258161 123.466585 
L 362.445777 120.565942 
L 361.507904 117.704462 
L 360.453857 114.899795 
L 359.290543 112.153849 
L 358.012074 109.444108 
L 356.630103 106.801878 
L 355.143505 104.216946 
L 353.565338 101.710343 
L 350.157985 96.929712 
L 346.470118 92.462807 
L 342.570238 88.301374 
L 338.494258 84.407799 
L 334.295813 80.762289 
L 329.98804 77.327321 
L 325.57397 74.08338 
L 321.040164 71.002015 
L 316.429554 68.104539 
L 311.71102 65.352835 
L 306.81037 62.711624 
L 301.671969 60.229111 
L 296.312342 58.012249 
L 293.517458 57.019214 
L 290.680896 56.138371 
L 287.755131 55.363266 
L 284.798914 54.727772 
L 281.806587 54.231286 
L 278.825098 53.88071 
L 275.860963 53.663445 
L 272.904829 53.568 
L 267.037668 53.711703 
L 261.278734 54.24776 
L 255.624819 55.112619 
L 250.102888 56.262004 
L 244.667551 57.677779 
L 239.346552 59.338782 
L 234.122151 61.232422 
L 229.009711 63.339742 
L 224.036518 65.630115 
L 219.185189 68.07644 
L 212.134182 71.973176 
L 205.30072 76.069224 
L 188.31488 86.587121 
L 184.224946 88.84215 
L 180.009419 90.947397 
L 173.332823 93.959733 
L 156.469333 101.269379 
L 151.404352 103.761665 
L 146.319153 106.618717 
L 143.807663 108.21134 
L 141.316348 109.943113 
L 138.886155 111.813417 
L 136.519556 113.839935 
L 134.279352 115.986515 
L 132.17364 118.23423 
L 130.181032 120.592815 
L 128.338425 123.011146 
L 126.605102 125.515861 
L 124.991592 128.090603 
L 123.5017 130.718586 
L 122.130521 133.394193 
L 120.872616 136.118771 
L 119.739671 138.859509 
L 117.818238 144.357904 
L 116.299194 149.827781 
L 115.09147 155.232149 
L 113.686992 163.146331 
L 112.168142 173.568673 
L 111.261998 181.568946 
L 110.834468 186.998731 
L 110.59666 192.478253 
L 110.563483 197.88107 
L 110.758154 205.755867 
L 111.154625 218.214473 
L 111.120096 225.51567 
L 110.839788 232.862908 
L 110.34318 240.24053 
L 109.40293 250.203173 
L 107.849257 265.650675 
L 107.272444 273.621198 
L 107.052383 279.041704 
L 107.01254 284.540938 
L 107.198603 290.11035 
L 107.624206 295.488 
L 107.624206 295.488 
" style="fill:none;stroke:#ffffff;stroke-linecap:square;"/>
   </g>
   <g id="patch_3">
    <path d="M 57.6 307.584 
L 57.6 41.472 
" style="fill:none;stroke:#000000;stroke-linecap:square;stroke-linejoin:miter;stroke-width:0.8;"/>
   </g>
   <g id="patch_4">
    <path d="M 414.72 307.584 
L 414.72 41.472 
" style="fill:none;stroke:#000000;stroke-linecap:square;stroke-linejoin:miter;stroke-width:0.8;"/>
   </g>
   <g id="patch_5">
    <path d="M 57.6 307.584 
L 414.72 307.584 
" style="fill:none;stroke:#000000;stroke-linecap:square;stroke-linejoin:miter;stroke-width:0.8;"/>
   </g>
   <g id="patch_6">
    <path d="M 57.6 41.472 
L 414.72 41.472 
" style="fill:none;stroke:#000000;stroke-linecap:square;stroke-linejoin:miter;stroke-width:0.8;"/>
   </g>
  </g>
 </g>
 <defs>
  <clipPath id="p0cf1e0e3fe">
   <rect height="266.112" width="357.12" x="57.6" y="41.472"/>
  </clipPath>
 </defs>
</svg>
