<?xml version="1.0" encoding="utf-8" standalone="no"?>
<!DOCTYPE svg PUBLIC "-//W3C//DTD SVG 1.1//EN"
  "http://www.w3.org/Graphics/SVG/1.1/DTD/svg11.dtd">
<!-- Created with matplotlib (https://matplotlib.org/) -->
<svg height="345.6pt" version="1.1" viewBox="0 0 460.8 345.6" width="460.8pt" xmlns="http://www.w3.org/2000/svg" xmlns:xlink="http://www.w3.org/1999/xlink">
 <metadata>
  <rdf:RDF xmlns:cc="http://creativecommons.org/ns#" xmlns:dc="http://purl.org/dc/elements/1.1/" xmlns:rdf="http://www.w3.org/1999/02/22-rdf-syntax-ns#">
   <cc:Work>
    <dc:type rdf:resource="http://purl.org/dc/dcmitype/StillImage"/>
    <dc:date>2021-01-25T10:37:24.709785</dc:date>
    <dc:format>image/svg+xml</dc:format>
    <dc:creator>
     <cc:Agent>
      <dc:title>Matplotlib v3.3.3, https://matplotlib.org/</dc:title>
     </cc:Agent>
    </dc:creator>
   </cc:Work>
  </rdf:RDF>
 </metadata>
 <defs>
  <style type="text/css">*{stroke-linecap:butt;stroke-linejoin:round;}</style>
 </defs>
 <g id="figure_1">
  <g id="patch_1">
   <path d="M 0 345.6 
L 460.8 345.6 
L 460.8 0 
L 0 0 
z
" style="fill:#ffffff;"/>
  </g>
  <g id="axes_1">
   <g id="patch_2">
    <path d="M 57.6 307.584 
L 414.72 307.584 
L 414.72 41.472 
L 57.6 41.472 
z
" style="fill:#7d9051;"/>
   </g>
   <g id="matplotlib.axis_1">
    <g id="xtick_1">
     <g id="line2d_1">
      <defs>
       <path d="M 0 0 
L 0 3.5 
" id="m4def071b23" style="stroke:#000000;stroke-width:0.8;"/>
      </defs>
      <g>
       <use style="stroke:#000000;stroke-width:0.8;" x="97.077087" xlink:href="#m4def071b23" y="307.584"/>
      </g>
     </g>
     <g id="text_1">
      <!-- 20 -->
      <g transform="translate(90.714587 322.182437)scale(0.1 -0.1)">
       <defs>
        <path d="M 19.1875 8.296875 
L 53.609375 8.296875 
L 53.609375 0 
L 7.328125 0 
L 7.328125 8.296875 
Q 12.9375 14.109375 22.625 23.890625 
Q 32.328125 33.6875 34.8125 36.53125 
Q 39.546875 41.84375 41.421875 45.53125 
Q 43.3125 49.21875 43.3125 52.78125 
Q 43.3125 58.59375 39.234375 62.25 
Q 35.15625 65.921875 28.609375 65.921875 
Q 23.96875 65.921875 18.8125 64.3125 
Q 13.671875 62.703125 7.8125 59.421875 
L 7.8125 69.390625 
Q 13.765625 71.78125 18.9375 73 
Q 24.125 74.21875 28.421875 74.21875 
Q 39.75 74.21875 46.484375 68.546875 
Q 53.21875 62.890625 53.21875 53.421875 
Q 53.21875 48.921875 51.53125 44.890625 
Q 49.859375 40.875 45.40625 35.40625 
Q 44.1875 33.984375 37.640625 27.21875 
Q 31.109375 20.453125 19.1875 8.296875 
z
" id="DejaVuSans-50"/>
        <path d="M 31.78125 66.40625 
Q 24.171875 66.40625 20.328125 58.90625 
Q 16.5 51.421875 16.5 36.375 
Q 16.5 21.390625 20.328125 13.890625 
Q 24.171875 6.390625 31.78125 6.390625 
Q 39.453125 6.390625 43.28125 13.890625 
Q 47.125 21.390625 47.125 36.375 
Q 47.125 51.421875 43.28125 58.90625 
Q 39.453125 66.40625 31.78125 66.40625 
z
M 31.78125 74.21875 
Q 44.046875 74.21875 50.515625 64.515625 
Q 56.984375 54.828125 56.984375 36.375 
Q 56.984375 17.96875 50.515625 8.265625 
Q 44.046875 -1.421875 31.78125 -1.421875 
Q 19.53125 -1.421875 13.0625 8.265625 
Q 6.59375 17.96875 6.59375 36.375 
Q 6.59375 54.828125 13.0625 64.515625 
Q 19.53125 74.21875 31.78125 74.21875 
z
" id="DejaVuSans-48"/>
       </defs>
       <use xlink:href="#DejaVuSans-50"/>
       <use x="63.623047" xlink:href="#DejaVuSans-48"/>
      </g>
     </g>
    </g>
    <g id="xtick_2">
     <g id="line2d_2">
      <g>
       <use style="stroke:#000000;stroke-width:0.8;" x="142.248118" xlink:href="#m4def071b23" y="307.584"/>
      </g>
     </g>
     <g id="text_2">
      <!-- 40 -->
      <g transform="translate(135.885618 322.182437)scale(0.1 -0.1)">
       <defs>
        <path d="M 37.796875 64.3125 
L 12.890625 25.390625 
L 37.796875 25.390625 
z
M 35.203125 72.90625 
L 47.609375 72.90625 
L 47.609375 25.390625 
L 58.015625 25.390625 
L 58.015625 17.1875 
L 47.609375 17.1875 
L 47.609375 0 
L 37.796875 0 
L 37.796875 17.1875 
L 4.890625 17.1875 
L 4.890625 26.703125 
z
" id="DejaVuSans-52"/>
       </defs>
       <use xlink:href="#DejaVuSans-52"/>
       <use x="63.623047" xlink:href="#DejaVuSans-48"/>
      </g>
     </g>
    </g>
    <g id="xtick_3">
     <g id="line2d_3">
      <g>
       <use style="stroke:#000000;stroke-width:0.8;" x="187.419148" xlink:href="#m4def071b23" y="307.584"/>
      </g>
     </g>
     <g id="text_3">
      <!-- 60 -->
      <g transform="translate(181.056648 322.182437)scale(0.1 -0.1)">
       <defs>
        <path d="M 33.015625 40.375 
Q 26.375 40.375 22.484375 35.828125 
Q 18.609375 31.296875 18.609375 23.390625 
Q 18.609375 15.53125 22.484375 10.953125 
Q 26.375 6.390625 33.015625 6.390625 
Q 39.65625 6.390625 43.53125 10.953125 
Q 47.40625 15.53125 47.40625 23.390625 
Q 47.40625 31.296875 43.53125 35.828125 
Q 39.65625 40.375 33.015625 40.375 
z
M 52.59375 71.296875 
L 52.59375 62.3125 
Q 48.875 64.0625 45.09375 64.984375 
Q 41.3125 65.921875 37.59375 65.921875 
Q 27.828125 65.921875 22.671875 59.328125 
Q 17.53125 52.734375 16.796875 39.40625 
Q 19.671875 43.65625 24.015625 45.921875 
Q 28.375 48.1875 33.59375 48.1875 
Q 44.578125 48.1875 50.953125 41.515625 
Q 57.328125 34.859375 57.328125 23.390625 
Q 57.328125 12.15625 50.6875 5.359375 
Q 44.046875 -1.421875 33.015625 -1.421875 
Q 20.359375 -1.421875 13.671875 8.265625 
Q 6.984375 17.96875 6.984375 36.375 
Q 6.984375 53.65625 15.1875 63.9375 
Q 23.390625 74.21875 37.203125 74.21875 
Q 40.921875 74.21875 44.703125 73.484375 
Q 48.484375 72.75 52.59375 71.296875 
z
" id="DejaVuSans-54"/>
       </defs>
       <use xlink:href="#DejaVuSans-54"/>
       <use x="63.623047" xlink:href="#DejaVuSans-48"/>
      </g>
     </g>
    </g>
    <g id="xtick_4">
     <g id="line2d_4">
      <g>
       <use style="stroke:#000000;stroke-width:0.8;" x="232.590179" xlink:href="#m4def071b23" y="307.584"/>
      </g>
     </g>
     <g id="text_4">
      <!-- 80 -->
      <g transform="translate(226.227679 322.182437)scale(0.1 -0.1)">
       <defs>
        <path d="M 31.78125 34.625 
Q 24.75 34.625 20.71875 30.859375 
Q 16.703125 27.09375 16.703125 20.515625 
Q 16.703125 13.921875 20.71875 10.15625 
Q 24.75 6.390625 31.78125 6.390625 
Q 38.8125 6.390625 42.859375 10.171875 
Q 46.921875 13.96875 46.921875 20.515625 
Q 46.921875 27.09375 42.890625 30.859375 
Q 38.875 34.625 31.78125 34.625 
z
M 21.921875 38.8125 
Q 15.578125 40.375 12.03125 44.71875 
Q 8.5 49.078125 8.5 55.328125 
Q 8.5 64.0625 14.71875 69.140625 
Q 20.953125 74.21875 31.78125 74.21875 
Q 42.671875 74.21875 48.875 69.140625 
Q 55.078125 64.0625 55.078125 55.328125 
Q 55.078125 49.078125 51.53125 44.71875 
Q 48 40.375 41.703125 38.8125 
Q 48.828125 37.15625 52.796875 32.3125 
Q 56.78125 27.484375 56.78125 20.515625 
Q 56.78125 9.90625 50.3125 4.234375 
Q 43.84375 -1.421875 31.78125 -1.421875 
Q 19.734375 -1.421875 13.25 4.234375 
Q 6.78125 9.90625 6.78125 20.515625 
Q 6.78125 27.484375 10.78125 32.3125 
Q 14.796875 37.15625 21.921875 38.8125 
z
M 18.3125 54.390625 
Q 18.3125 48.734375 21.84375 45.5625 
Q 25.390625 42.390625 31.78125 42.390625 
Q 38.140625 42.390625 41.71875 45.5625 
Q 45.3125 48.734375 45.3125 54.390625 
Q 45.3125 60.0625 41.71875 63.234375 
Q 38.140625 66.40625 31.78125 66.40625 
Q 25.390625 66.40625 21.84375 63.234375 
Q 18.3125 60.0625 18.3125 54.390625 
z
" id="DejaVuSans-56"/>
       </defs>
       <use xlink:href="#DejaVuSans-56"/>
       <use x="63.623047" xlink:href="#DejaVuSans-48"/>
      </g>
     </g>
    </g>
    <g id="xtick_5">
     <g id="line2d_5">
      <g>
       <use style="stroke:#000000;stroke-width:0.8;" x="277.761209" xlink:href="#m4def071b23" y="307.584"/>
      </g>
     </g>
     <g id="text_5">
      <!-- 100 -->
      <g transform="translate(268.217459 322.182437)scale(0.1 -0.1)">
       <defs>
        <path d="M 12.40625 8.296875 
L 28.515625 8.296875 
L 28.515625 63.921875 
L 10.984375 60.40625 
L 10.984375 69.390625 
L 28.421875 72.90625 
L 38.28125 72.90625 
L 38.28125 8.296875 
L 54.390625 8.296875 
L 54.390625 0 
L 12.40625 0 
z
" id="DejaVuSans-49"/>
       </defs>
       <use xlink:href="#DejaVuSans-49"/>
       <use x="63.623047" xlink:href="#DejaVuSans-48"/>
       <use x="127.246094" xlink:href="#DejaVuSans-48"/>
      </g>
     </g>
    </g>
    <g id="xtick_6">
     <g id="line2d_6">
      <g>
       <use style="stroke:#000000;stroke-width:0.8;" x="322.93224" xlink:href="#m4def071b23" y="307.584"/>
      </g>
     </g>
     <g id="text_6">
      <!-- 120 -->
      <g transform="translate(313.38849 322.182437)scale(0.1 -0.1)">
       <use xlink:href="#DejaVuSans-49"/>
       <use x="63.623047" xlink:href="#DejaVuSans-50"/>
       <use x="127.246094" xlink:href="#DejaVuSans-48"/>
      </g>
     </g>
    </g>
    <g id="xtick_7">
     <g id="line2d_7">
      <g>
       <use style="stroke:#000000;stroke-width:0.8;" x="368.10327" xlink:href="#m4def071b23" y="307.584"/>
      </g>
     </g>
     <g id="text_7">
      <!-- 140 -->
      <g transform="translate(358.55952 322.182437)scale(0.1 -0.1)">
       <use xlink:href="#DejaVuSans-49"/>
       <use x="63.623047" xlink:href="#DejaVuSans-52"/>
       <use x="127.246094" xlink:href="#DejaVuSans-48"/>
      </g>
     </g>
    </g>
    <g id="xtick_8">
     <g id="line2d_8">
      <g>
       <use style="stroke:#000000;stroke-width:0.8;" x="413.2743" xlink:href="#m4def071b23" y="307.584"/>
      </g>
     </g>
     <g id="text_8">
      <!-- 160 -->
      <g transform="translate(403.73055 322.182437)scale(0.1 -0.1)">
       <use xlink:href="#DejaVuSans-49"/>
       <use x="63.623047" xlink:href="#DejaVuSans-54"/>
       <use x="127.246094" xlink:href="#DejaVuSans-48"/>
      </g>
     </g>
    </g>
   </g>
   <g id="matplotlib.axis_2">
    <g id="ytick_1">
     <g id="line2d_9">
      <defs>
       <path d="M 0 0 
L -3.5 0 
" id="mfca3e6c496" style="stroke:#000000;stroke-width:0.8;"/>
      </defs>
      <g>
       <use style="stroke:#000000;stroke-width:0.8;" x="57.6" xlink:href="#mfca3e6c496" y="263.103121"/>
      </g>
     </g>
     <g id="text_9">
      <!-- 0 -->
      <g transform="translate(44.2375 266.90234)scale(0.1 -0.1)">
       <use xlink:href="#DejaVuSans-48"/>
      </g>
     </g>
    </g>
    <g id="ytick_2">
     <g id="line2d_10">
      <g>
       <use style="stroke:#000000;stroke-width:0.8;" x="57.6" xlink:href="#mfca3e6c496" y="217.932091"/>
      </g>
     </g>
     <g id="text_10">
      <!-- 20 -->
      <g transform="translate(37.875 221.73131)scale(0.1 -0.1)">
       <use xlink:href="#DejaVuSans-50"/>
       <use x="63.623047" xlink:href="#DejaVuSans-48"/>
      </g>
     </g>
    </g>
    <g id="ytick_3">
     <g id="line2d_11">
      <g>
       <use style="stroke:#000000;stroke-width:0.8;" x="57.6" xlink:href="#mfca3e6c496" y="172.761061"/>
      </g>
     </g>
     <g id="text_11">
      <!-- 40 -->
      <g transform="translate(37.875 176.560279)scale(0.1 -0.1)">
       <use xlink:href="#DejaVuSans-52"/>
       <use x="63.623047" xlink:href="#DejaVuSans-48"/>
      </g>
     </g>
    </g>
    <g id="ytick_4">
     <g id="line2d_12">
      <g>
       <use style="stroke:#000000;stroke-width:0.8;" x="57.6" xlink:href="#mfca3e6c496" y="127.59003"/>
      </g>
     </g>
     <g id="text_12">
      <!-- 60 -->
      <g transform="translate(37.875 131.389249)scale(0.1 -0.1)">
       <use xlink:href="#DejaVuSans-54"/>
       <use x="63.623047" xlink:href="#DejaVuSans-48"/>
      </g>
     </g>
    </g>
    <g id="ytick_5">
     <g id="line2d_13">
      <g>
       <use style="stroke:#000000;stroke-width:0.8;" x="57.6" xlink:href="#mfca3e6c496" y="82.419"/>
      </g>
     </g>
     <g id="text_13">
      <!-- 80 -->
      <g transform="translate(37.875 86.218218)scale(0.1 -0.1)">
       <use xlink:href="#DejaVuSans-56"/>
       <use x="63.623047" xlink:href="#DejaVuSans-48"/>
      </g>
     </g>
    </g>
   </g>
   <g id="line2d_14">
    <path clip-path="url(#p87f2569550)" d="M 74.491572 235.08579 
L 76.777226 234.918657 
L 81.316915 234.91414 
L 85.820467 235.275508 
L 90.296916 235.91242 
L 96.97997 237.181726 
L 108.098819 239.399623 
L 112.568492 240.056862 
L 117.060751 240.44985 
L 121.582371 240.488245 
L 126.117543 240.126877 
L 130.616578 239.365745 
L 135.029787 238.202591 
L 139.309742 236.637415 
L 143.406755 234.674733 
L 147.295981 232.330357 
L 150.966127 229.649456 
L 154.410418 226.672685 
L 157.624337 223.445215 
L 160.601108 220.0077 
L 163.340731 216.394017 
L 165.856757 212.626753 
L 168.162738 208.726235 
L 170.267708 204.719565 
L 172.185218 200.627069 
L 174.807397 194.384433 
L 179.067025 183.922822 
L 180.932588 179.798707 
L 182.958509 175.746866 
L 185.160597 171.785366 
L 187.54111 167.934536 
L 190.1136 164.214702 
L 192.882584 160.64619 
L 195.841287 157.23126 
L 198.969381 153.965395 
L 202.246539 150.839559 
L 205.650176 147.842462 
L 209.162224 144.969584 
L 212.769131 142.223185 
L 216.473155 139.619076 
L 220.276556 137.173064 
L 224.177074 134.898703 
L 228.176969 132.811801 
L 232.267206 130.907842 
L 236.431975 129.155206 
L 242.780763 126.749849 
L 251.349708 123.809215 
L 257.827233 121.785553 
L 264.358964 119.999038 
L 268.751847 118.973656 
L 275.403281 117.711126 
L 282.108921 116.72188 
L 291.097956 115.687464 
L 304.581509 114.248766 
L 311.282631 113.261779 
L 315.720685 112.401271 
L 328.994192 109.514842 
L 333.452573 108.853087 
L 337.949349 108.539148 
L 342.475486 108.631749 
L 346.994848 109.121854 
L 351.473555 109.993655 
L 355.870955 111.238117 
L 360.155427 112.841689 
L 364.284059 114.797594 
L 368.220715 117.0968 
L 371.922481 119.739305 
L 375.350962 122.716076 
L 376.950016 124.328682 
L 378.467763 126.022595 
L 379.897426 127.7933 
L 381.239006 129.634019 
L 383.644363 133.509694 
L 384.705882 135.533356 
L 386.524016 139.722969 
L 387.278372 141.879886 
L 387.924318 144.070681 
L 388.461853 146.288578 
L 388.884203 148.529061 
L 389.193624 150.789871 
L 389.385601 153.061974 
L 389.455616 155.340853 
L 389.401411 157.62199 
L 389.222985 159.89861 
L 388.915822 162.166195 
L 388.477663 164.42023 
L 387.90625 166.656196 
L 387.90625 166.656196 
" style="fill:none;stroke:#fea952;stroke-linecap:square;"/>
   </g>
   <g id="line2d_15">
    <path clip-path="url(#p87f2569550)" d="M 73.832727 226.07564 
L 76.562187 225.887011 
L 79.252154 225.832422 
L 84.458724 226.063467 
L 89.4532 226.637968 
L 94.237788 227.432143 
L 103.241498 229.26033 
L 109.525433 230.478768 
L 113.509526 231.0718 
L 117.331927 231.419714 
L 121.06186 231.469046 
L 124.812386 231.187445 
L 128.516015 230.579135 
L 132.132715 229.645497 
L 135.606525 228.397083 
L 138.923566 226.831399 
L 142.120029 224.925871 
L 145.192275 222.70111 
L 148.126048 220.182418 
L 150.895898 217.416534 
L 153.486435 214.440087 
L 155.9009 211.269001 
L 158.141142 207.927161 
L 160.214472 204.431826 
L 162.126828 200.802556 
L 163.897921 197.030183 
L 166.421842 191.022982 
L 170.801077 180.277142 
L 172.811111 175.841627 
L 175.013705 171.446055 
L 177.420197 167.126709 
L 180.045078 162.892078 
L 182.898173 158.778297 
L 185.979488 154.818314 
L 189.240087 151.063518 
L 192.667455 147.492172 
L 196.214423 144.1142 
L 199.873702 140.896296 
L 203.625735 137.830665 
L 207.501082 134.883938 
L 211.505654 132.073162 
L 215.63381 129.42311 
L 219.899892 126.941154 
L 224.278471 124.662041 
L 228.688837 122.612533 
L 233.1219 120.749239 
L 239.754217 118.237687 
L 248.574075 115.211963 
L 255.325071 113.104766 
L 262.23387 111.218329 
L 266.924458 110.126197 
L 271.633346 109.196268 
L 278.650213 108.075092 
L 285.598292 107.196691 
L 307.598999 104.709046 
L 311.691673 104.004898 
L 318.119678 102.607811 
L 325.077582 101.066387 
L 330.041484 100.189542 
L 335.270327 99.621096 
L 337.940324 99.504946 
L 340.588129 99.510594 
L 343.256953 99.631405 
L 345.904348 99.869571 
L 348.533716 100.219677 
L 351.154561 100.680863 
L 356.326454 101.930263 
L 361.374584 103.602383 
L 363.84195 104.593875 
L 366.289695 105.697608 
L 368.667659 106.898168 
L 371.00517 108.205314 
L 373.304172 109.628511 
L 375.513992 111.143577 
L 377.680376 112.777731 
L 379.757524 114.509183 
L 381.766007 116.354938 
L 383.678455 118.300001 
L 385.496855 120.347321 
L 387.198287 122.472181 
L 388.798312 124.686923 
L 390.276255 126.964316 
L 391.6447 129.313089 
L 392.904125 131.737873 
L 394.0377 134.211472 
L 395.051723 136.740504 
L 395.943769 139.324934 
L 396.704336 141.942733 
L 397.339698 144.615033 
L 397.834967 147.304032 
L 398.195754 150.029254 
L 398.415546 152.784543 
L 398.487273 155.555466 
L 398.407999 158.327863 
L 398.175431 161.111292 
L 397.784031 163.890076 
L 397.230569 166.657084 
L 396.659156 168.89305 
L 396.659156 168.89305 
" style="fill:none;stroke:#ffffff;stroke-linecap:square;"/>
   </g>
   <g id="line2d_16">
    <path clip-path="url(#p87f2569550)" d="M 75.150417 244.09594 
L 78.855538 243.896481 
L 82.687691 244.044873 
L 86.673217 244.491237 
L 90.818942 245.174155 
L 99.608101 246.95965 
L 106.672204 248.320478 
L 111.627459 249.041923 
L 116.789576 249.479985 
L 119.434128 249.551054 
L 122.102882 249.507444 
L 124.766234 249.345099 
L 127.4227 249.066309 
L 130.084171 248.668394 
L 132.71714 248.152355 
L 135.339867 247.515493 
L 137.92686 246.759684 
L 140.498482 245.877895 
L 143.01296 244.877746 
L 145.486614 243.754261 
L 147.889944 242.518068 
L 150.220573 241.174702 
L 152.471932 239.734843 
L 156.739978 236.597803 
L 160.694788 233.162953 
L 164.352775 229.473896 
L 167.71578 225.575313 
L 170.780561 221.519034 
L 173.572372 217.326346 
L 176.111004 213.020644 
L 178.408588 208.636573 
L 180.472515 204.223955 
L 183.192951 197.745884 
L 187.332973 187.568502 
L 189.054066 183.755787 
L 190.903313 180.047677 
L 192.900997 176.444024 
L 195.037143 172.976993 
L 197.329027 169.651106 
L 199.785681 166.474066 
L 202.442487 163.399002 
L 205.271307 160.438617 
L 208.278655 157.564919 
L 211.426651 154.788627 
L 216.362252 150.816571 
L 219.732963 148.343074 
L 223.16872 146.02493 
L 226.672248 143.86993 
L 230.244575 141.890847 
L 233.938036 140.06837 
L 237.770339 138.371295 
L 243.752155 136.012862 
L 252.042455 133.096654 
L 260.329396 130.46634 
L 266.484059 128.779748 
L 272.641981 127.393814 
L 278.941695 126.293112 
L 285.406707 125.41195 
L 294.249985 124.448363 
L 305.765438 123.20506 
L 312.908255 122.148524 
L 317.656637 121.225611 
L 330.469134 118.427834 
L 334.286009 117.848767 
L 337.958374 117.57335 
L 341.694019 117.632092 
L 345.455979 118.024032 
L 349.196396 118.736162 
L 352.883323 119.764015 
L 356.468904 121.089502 
L 359.90046 122.69702 
L 363.137257 124.565089 
L 366.164585 126.700879 
L 368.935916 129.077213 
L 371.438671 131.69787 
L 373.679699 134.581116 
L 375.644027 137.706299 
L 377.293834 141.00194 
L 378.612976 144.434838 
L 379.584009 147.962123 
L 380.191494 151.550489 
L 380.42396 155.126239 
L 380.27054 158.685928 
L 379.724757 162.183376 
L 379.153344 164.419342 
L 379.153344 164.419342 
" style="fill:none;stroke:#ffffff;stroke-linecap:square;"/>
   </g>
   <g id="patch_3">
    <path d="M 57.6 307.584 
L 57.6 41.472 
" style="fill:none;stroke:#000000;stroke-linecap:square;stroke-linejoin:miter;stroke-width:0.8;"/>
   </g>
   <g id="patch_4">
    <path d="M 414.72 307.584 
L 414.72 41.472 
" style="fill:none;stroke:#000000;stroke-linecap:square;stroke-linejoin:miter;stroke-width:0.8;"/>
   </g>
   <g id="patch_5">
    <path d="M 57.6 307.584 
L 414.72 307.584 
" style="fill:none;stroke:#000000;stroke-linecap:square;stroke-linejoin:miter;stroke-width:0.8;"/>
   </g>
   <g id="patch_6">
    <path d="M 57.6 41.472 
L 414.72 41.472 
" style="fill:none;stroke:#000000;stroke-linecap:square;stroke-linejoin:miter;stroke-width:0.8;"/>
   </g>
  </g>
 </g>
 <defs>
  <clipPath id="p87f2569550">
   <rect height="266.112" width="357.12" x="57.6" y="41.472"/>
  </clipPath>
 </defs>
</svg>
