<?xml version="1.0" encoding="utf-8" standalone="no"?>
<!DOCTYPE svg PUBLIC "-//W3C//DTD SVG 1.1//EN"
  "http://www.w3.org/Graphics/SVG/1.1/DTD/svg11.dtd">
<!-- Created with matplotlib (https://matplotlib.org/) -->
<svg height="345.6pt" version="1.1" viewBox="0 0 460.8 345.6" width="460.8pt" xmlns="http://www.w3.org/2000/svg" xmlns:xlink="http://www.w3.org/1999/xlink">
 <metadata>
  <rdf:RDF xmlns:cc="http://creativecommons.org/ns#" xmlns:dc="http://purl.org/dc/elements/1.1/" xmlns:rdf="http://www.w3.org/1999/02/22-rdf-syntax-ns#">
   <cc:Work>
    <dc:type rdf:resource="http://purl.org/dc/dcmitype/StillImage"/>
    <dc:date>2021-01-25T09:35:12.620266</dc:date>
    <dc:format>image/svg+xml</dc:format>
    <dc:creator>
     <cc:Agent>
      <dc:title>Matplotlib v3.3.3, https://matplotlib.org/</dc:title>
     </cc:Agent>
    </dc:creator>
   </cc:Work>
  </rdf:RDF>
 </metadata>
 <defs>
  <style type="text/css">*{stroke-linecap:butt;stroke-linejoin:round;}</style>
 </defs>
 <g id="figure_1">
  <g id="patch_1">
   <path d="M 0 345.6 
L 460.8 345.6 
L 460.8 0 
L 0 0 
z
" style="fill:#ffffff;"/>
  </g>
  <g id="axes_1">
   <g id="patch_2">
    <path d="M 57.6 307.584 
L 414.72 307.584 
L 414.72 41.472 
L 57.6 41.472 
z
" style="fill:#7d9051;"/>
   </g>
   <g id="matplotlib.axis_1">
    <g id="xtick_1">
     <g id="line2d_1">
      <defs>
       <path d="M 0 0 
L 0 3.5 
" id="m5cbc967bb2" style="stroke:#000000;stroke-width:0.8;"/>
      </defs>
      <g>
       <use style="stroke:#000000;stroke-width:0.8;" x="114.630234" xlink:href="#m5cbc967bb2" y="307.584"/>
      </g>
     </g>
     <g id="text_1">
      <!-- 20 -->
      <g transform="translate(108.267734 322.182437)scale(0.1 -0.1)">
       <defs>
        <path d="M 19.1875 8.296875 
L 53.609375 8.296875 
L 53.609375 0 
L 7.328125 0 
L 7.328125 8.296875 
Q 12.9375 14.109375 22.625 23.890625 
Q 32.328125 33.6875 34.8125 36.53125 
Q 39.546875 41.84375 41.421875 45.53125 
Q 43.3125 49.21875 43.3125 52.78125 
Q 43.3125 58.59375 39.234375 62.25 
Q 35.15625 65.921875 28.609375 65.921875 
Q 23.96875 65.921875 18.8125 64.3125 
Q 13.671875 62.703125 7.8125 59.421875 
L 7.8125 69.390625 
Q 13.765625 71.78125 18.9375 73 
Q 24.125 74.21875 28.421875 74.21875 
Q 39.75 74.21875 46.484375 68.546875 
Q 53.21875 62.890625 53.21875 53.421875 
Q 53.21875 48.921875 51.53125 44.890625 
Q 49.859375 40.875 45.40625 35.40625 
Q 44.1875 33.984375 37.640625 27.21875 
Q 31.109375 20.453125 19.1875 8.296875 
z
" id="DejaVuSans-50"/>
        <path d="M 31.78125 66.40625 
Q 24.171875 66.40625 20.328125 58.90625 
Q 16.5 51.421875 16.5 36.375 
Q 16.5 21.390625 20.328125 13.890625 
Q 24.171875 6.390625 31.78125 6.390625 
Q 39.453125 6.390625 43.28125 13.890625 
Q 47.125 21.390625 47.125 36.375 
Q 47.125 51.421875 43.28125 58.90625 
Q 39.453125 66.40625 31.78125 66.40625 
z
M 31.78125 74.21875 
Q 44.046875 74.21875 50.515625 64.515625 
Q 56.984375 54.828125 56.984375 36.375 
Q 56.984375 17.96875 50.515625 8.265625 
Q 44.046875 -1.421875 31.78125 -1.421875 
Q 19.53125 -1.421875 13.0625 8.265625 
Q 6.59375 17.96875 6.59375 36.375 
Q 6.59375 54.828125 13.0625 64.515625 
Q 19.53125 74.21875 31.78125 74.21875 
z
" id="DejaVuSans-48"/>
       </defs>
       <use xlink:href="#DejaVuSans-50"/>
       <use x="63.623047" xlink:href="#DejaVuSans-48"/>
      </g>
     </g>
    </g>
    <g id="xtick_2">
     <g id="line2d_2">
      <g>
       <use style="stroke:#000000;stroke-width:0.8;" x="172.618435" xlink:href="#m5cbc967bb2" y="307.584"/>
      </g>
     </g>
     <g id="text_2">
      <!-- 40 -->
      <g transform="translate(166.255935 322.182437)scale(0.1 -0.1)">
       <defs>
        <path d="M 37.796875 64.3125 
L 12.890625 25.390625 
L 37.796875 25.390625 
z
M 35.203125 72.90625 
L 47.609375 72.90625 
L 47.609375 25.390625 
L 58.015625 25.390625 
L 58.015625 17.1875 
L 47.609375 17.1875 
L 47.609375 0 
L 37.796875 0 
L 37.796875 17.1875 
L 4.890625 17.1875 
L 4.890625 26.703125 
z
" id="DejaVuSans-52"/>
       </defs>
       <use xlink:href="#DejaVuSans-52"/>
       <use x="63.623047" xlink:href="#DejaVuSans-48"/>
      </g>
     </g>
    </g>
    <g id="xtick_3">
     <g id="line2d_3">
      <g>
       <use style="stroke:#000000;stroke-width:0.8;" x="230.606636" xlink:href="#m5cbc967bb2" y="307.584"/>
      </g>
     </g>
     <g id="text_3">
      <!-- 60 -->
      <g transform="translate(224.244136 322.182437)scale(0.1 -0.1)">
       <defs>
        <path d="M 33.015625 40.375 
Q 26.375 40.375 22.484375 35.828125 
Q 18.609375 31.296875 18.609375 23.390625 
Q 18.609375 15.53125 22.484375 10.953125 
Q 26.375 6.390625 33.015625 6.390625 
Q 39.65625 6.390625 43.53125 10.953125 
Q 47.40625 15.53125 47.40625 23.390625 
Q 47.40625 31.296875 43.53125 35.828125 
Q 39.65625 40.375 33.015625 40.375 
z
M 52.59375 71.296875 
L 52.59375 62.3125 
Q 48.875 64.0625 45.09375 64.984375 
Q 41.3125 65.921875 37.59375 65.921875 
Q 27.828125 65.921875 22.671875 59.328125 
Q 17.53125 52.734375 16.796875 39.40625 
Q 19.671875 43.65625 24.015625 45.921875 
Q 28.375 48.1875 33.59375 48.1875 
Q 44.578125 48.1875 50.953125 41.515625 
Q 57.328125 34.859375 57.328125 23.390625 
Q 57.328125 12.15625 50.6875 5.359375 
Q 44.046875 -1.421875 33.015625 -1.421875 
Q 20.359375 -1.421875 13.671875 8.265625 
Q 6.984375 17.96875 6.984375 36.375 
Q 6.984375 53.65625 15.1875 63.9375 
Q 23.390625 74.21875 37.203125 74.21875 
Q 40.921875 74.21875 44.703125 73.484375 
Q 48.484375 72.75 52.59375 71.296875 
z
" id="DejaVuSans-54"/>
       </defs>
       <use xlink:href="#DejaVuSans-54"/>
       <use x="63.623047" xlink:href="#DejaVuSans-48"/>
      </g>
     </g>
    </g>
    <g id="xtick_4">
     <g id="line2d_4">
      <g>
       <use style="stroke:#000000;stroke-width:0.8;" x="288.594837" xlink:href="#m5cbc967bb2" y="307.584"/>
      </g>
     </g>
     <g id="text_4">
      <!-- 80 -->
      <g transform="translate(282.232337 322.182437)scale(0.1 -0.1)">
       <defs>
        <path d="M 31.78125 34.625 
Q 24.75 34.625 20.71875 30.859375 
Q 16.703125 27.09375 16.703125 20.515625 
Q 16.703125 13.921875 20.71875 10.15625 
Q 24.75 6.390625 31.78125 6.390625 
Q 38.8125 6.390625 42.859375 10.171875 
Q 46.921875 13.96875 46.921875 20.515625 
Q 46.921875 27.09375 42.890625 30.859375 
Q 38.875 34.625 31.78125 34.625 
z
M 21.921875 38.8125 
Q 15.578125 40.375 12.03125 44.71875 
Q 8.5 49.078125 8.5 55.328125 
Q 8.5 64.0625 14.71875 69.140625 
Q 20.953125 74.21875 31.78125 74.21875 
Q 42.671875 74.21875 48.875 69.140625 
Q 55.078125 64.0625 55.078125 55.328125 
Q 55.078125 49.078125 51.53125 44.71875 
Q 48 40.375 41.703125 38.8125 
Q 48.828125 37.15625 52.796875 32.3125 
Q 56.78125 27.484375 56.78125 20.515625 
Q 56.78125 9.90625 50.3125 4.234375 
Q 43.84375 -1.421875 31.78125 -1.421875 
Q 19.734375 -1.421875 13.25 4.234375 
Q 6.78125 9.90625 6.78125 20.515625 
Q 6.78125 27.484375 10.78125 32.3125 
Q 14.796875 37.15625 21.921875 38.8125 
z
M 18.3125 54.390625 
Q 18.3125 48.734375 21.84375 45.5625 
Q 25.390625 42.390625 31.78125 42.390625 
Q 38.140625 42.390625 41.71875 45.5625 
Q 45.3125 48.734375 45.3125 54.390625 
Q 45.3125 60.0625 41.71875 63.234375 
Q 38.140625 66.40625 31.78125 66.40625 
Q 25.390625 66.40625 21.84375 63.234375 
Q 18.3125 60.0625 18.3125 54.390625 
z
" id="DejaVuSans-56"/>
       </defs>
       <use xlink:href="#DejaVuSans-56"/>
       <use x="63.623047" xlink:href="#DejaVuSans-48"/>
      </g>
     </g>
    </g>
    <g id="xtick_5">
     <g id="line2d_5">
      <g>
       <use style="stroke:#000000;stroke-width:0.8;" x="346.583037" xlink:href="#m5cbc967bb2" y="307.584"/>
      </g>
     </g>
     <g id="text_5">
      <!-- 100 -->
      <g transform="translate(337.039287 322.182437)scale(0.1 -0.1)">
       <defs>
        <path d="M 12.40625 8.296875 
L 28.515625 8.296875 
L 28.515625 63.921875 
L 10.984375 60.40625 
L 10.984375 69.390625 
L 28.421875 72.90625 
L 38.28125 72.90625 
L 38.28125 8.296875 
L 54.390625 8.296875 
L 54.390625 0 
L 12.40625 0 
z
" id="DejaVuSans-49"/>
       </defs>
       <use xlink:href="#DejaVuSans-49"/>
       <use x="63.623047" xlink:href="#DejaVuSans-48"/>
       <use x="127.246094" xlink:href="#DejaVuSans-48"/>
      </g>
     </g>
    </g>
    <g id="xtick_6">
     <g id="line2d_6">
      <g>
       <use style="stroke:#000000;stroke-width:0.8;" x="404.571238" xlink:href="#m5cbc967bb2" y="307.584"/>
      </g>
     </g>
     <g id="text_6">
      <!-- 120 -->
      <g transform="translate(395.027488 322.182437)scale(0.1 -0.1)">
       <use xlink:href="#DejaVuSans-49"/>
       <use x="63.623047" xlink:href="#DejaVuSans-50"/>
       <use x="127.246094" xlink:href="#DejaVuSans-48"/>
      </g>
     </g>
    </g>
   </g>
   <g id="matplotlib.axis_2">
    <g id="ytick_1">
     <g id="line2d_7">
      <defs>
       <path d="M 0 0 
L -3.5 0 
" id="m6b9d00bbde" style="stroke:#000000;stroke-width:0.8;"/>
      </defs>
      <g>
       <use style="stroke:#000000;stroke-width:0.8;" x="57.6" xlink:href="#m6b9d00bbde" y="261.545113"/>
      </g>
     </g>
     <g id="text_7">
      <!-- 20 -->
      <g transform="translate(37.875 265.344332)scale(0.1 -0.1)">
       <use xlink:href="#DejaVuSans-50"/>
       <use x="63.623047" xlink:href="#DejaVuSans-48"/>
      </g>
     </g>
    </g>
    <g id="ytick_2">
     <g id="line2d_8">
      <g>
       <use style="stroke:#000000;stroke-width:0.8;" x="57.6" xlink:href="#m6b9d00bbde" y="203.556912"/>
      </g>
     </g>
     <g id="text_8">
      <!-- 40 -->
      <g transform="translate(37.875 207.356131)scale(0.1 -0.1)">
       <use xlink:href="#DejaVuSans-52"/>
       <use x="63.623047" xlink:href="#DejaVuSans-48"/>
      </g>
     </g>
    </g>
    <g id="ytick_3">
     <g id="line2d_9">
      <g>
       <use style="stroke:#000000;stroke-width:0.8;" x="57.6" xlink:href="#m6b9d00bbde" y="145.568711"/>
      </g>
     </g>
     <g id="text_9">
      <!-- 60 -->
      <g transform="translate(37.875 149.36793)scale(0.1 -0.1)">
       <use xlink:href="#DejaVuSans-54"/>
       <use x="63.623047" xlink:href="#DejaVuSans-48"/>
      </g>
     </g>
    </g>
    <g id="ytick_4">
     <g id="line2d_10">
      <g>
       <use style="stroke:#000000;stroke-width:0.8;" x="57.6" xlink:href="#m6b9d00bbde" y="87.580511"/>
      </g>
     </g>
     <g id="text_10">
      <!-- 80 -->
      <g transform="translate(37.875 91.379729)scale(0.1 -0.1)">
       <use xlink:href="#DejaVuSans-56"/>
       <use x="63.623047" xlink:href="#DejaVuSans-48"/>
      </g>
     </g>
    </g>
   </g>
   <g id="line2d_11">
    <path clip-path="url(#pd64d2c0bc7)" d="M 85.636134 201.84626 
L 85.441874 181.628674 
L 85.659329 172.85216 
L 86.010158 167.012748 
L 86.572643 161.20523 
L 87.390277 155.449901 
L 88.503651 149.769956 
L 89.956255 144.176995 
L 91.771286 138.69421 
L 93.908151 133.310006 
L 96.305963 128.012784 
L 98.900935 122.793845 
L 103.041292 115.087214 
L 105.932004 110.033542 
L 108.970586 105.084249 
L 112.203428 100.271228 
L 115.671123 95.626373 
L 119.422959 91.184477 
L 123.467636 86.980333 
L 127.790657 83.054532 
L 132.374624 79.444766 
L 134.757939 77.771806 
L 137.199242 76.194527 
L 139.698534 74.715828 
L 144.850785 72.057069 
L 150.179901 69.766535 
L 155.648188 67.783339 
L 161.220854 66.063989 
L 166.851509 64.550497 
L 172.516956 63.20807 
L 178.214296 62.074401 
L 183.94933 61.201678 
L 189.724954 60.642092 
L 195.555668 60.444932 
L 198.486971 60.500021 
L 201.424074 60.668187 
L 204.355377 60.952329 
L 207.269284 61.366944 
L 210.154197 61.912034 
L 213.004318 62.599194 
L 215.805148 63.434224 
L 218.547989 64.425822 
L 221.224145 65.579787 
L 223.819117 66.904818 
L 226.327107 68.403813 
L 228.739416 70.068074 
L 231.050246 71.886004 
L 233.250898 73.846005 
L 235.332674 75.939379 
L 237.295575 78.14873 
L 239.128002 80.465358 
L 240.824157 82.874768 
L 242.375341 85.37116 
L 243.778656 87.934239 
L 245.028301 90.561104 
L 246.138775 93.240159 
L 247.121675 95.962705 
L 248.76854 101.529572 
L 250.09647 107.203718 
L 251.746234 115.812066 
L 254.428189 130.106158 
L 255.65174 135.765806 
L 257.034758 141.379064 
L 258.629434 146.940132 
L 260.450263 152.440313 
L 262.474052 157.879606 
L 264.680503 163.258012 
L 267.043522 168.569731 
L 269.542813 173.817663 
L 272.172578 178.99601 
L 274.947314 184.087374 
L 277.890215 189.085957 
L 281.015779 193.980161 
L 284.335603 198.755489 
L 287.869984 203.391646 
L 291.616022 207.853838 
L 295.585314 212.104373 
L 299.777861 216.111358 
L 304.202361 219.837099 
L 308.832719 223.304794 
L 313.616745 226.578228 
L 320.960951 231.28397 
L 330.789951 237.532199 
L 338.009482 242.423504 
L 342.68913 245.844807 
L 347.232505 249.428478 
L 351.610614 253.209309 
L 355.829256 257.172802 
L 361.964408 263.342747 
L 374.13903 275.81311 
L 378.343175 279.808497 
L 382.703887 283.632818 
L 387.267559 287.228087 
L 392.08058 290.539213 
L 392.08058 290.539213 
" style="fill:none;stroke:#fea952;stroke-linecap:square;"/>
   </g>
   <g id="line2d_12">
    <path clip-path="url(#pd64d2c0bc7)" d="M 74.039675 202.011755 
L 73.845196 181.479262 
L 74.077091 172.254663 
L 74.455902 166.010534 
L 75.071262 159.714096 
L 75.978225 153.383425 
L 77.232725 147.036553 
L 78.890277 140.705772 
L 80.935643 134.55971 
L 83.290609 128.643845 
L 85.880152 122.932654 
L 88.628734 117.409875 
L 92.937085 109.394214 
L 95.995285 104.053002 
L 99.267596 98.731515 
L 102.816477 93.460178 
L 106.68989 88.288614 
L 110.933328 83.283122 
L 115.524052 78.530201 
L 117.948109 76.260908 
L 120.454748 74.071787 
L 123.040216 71.969784 
L 125.711419 69.952298 
L 128.464223 68.030431 
L 131.293722 66.21304 
L 134.189723 64.510033 
L 137.123788 62.935385 
L 140.095382 61.479196 
L 146.084888 58.915907 
L 152.116022 56.736662 
L 158.118601 54.888959 
L 164.093015 53.285686 
L 170.144636 51.855653 
L 176.324578 50.631751 
L 182.662221 49.675681 
L 189.136005 49.059415 
L 192.437495 48.898231 
L 195.773587 48.849339 
L 199.149916 48.921344 
L 202.543032 49.124652 
L 205.989133 49.470339 
L 209.422499 49.97094 
L 212.872484 50.637453 
L 216.31787 51.484985 
L 219.748188 52.527451 
L 223.140186 53.776081 
L 226.498292 55.250768 
L 229.76912 56.949783 
L 232.913078 58.857597 
L 235.910242 60.953004 
L 238.763793 63.225379 
L 241.474416 65.668047 
L 244.002742 68.236445 
L 246.391656 70.953832 
L 248.611433 73.789297 
L 250.674971 76.753763 
L 252.54805 79.801487 
L 254.251629 82.952062 
L 255.74203 86.12024 
L 257.04729 89.301941 
L 258.185182 92.483615 
L 260.030021 98.757515 
L 261.463097 104.90045 
L 263.156804 113.737417 
L 265.779146 127.726867 
L 267.554754 135.705222 
L 268.91737 140.854942 
L 270.489266 145.950019 
L 272.273691 151.031762 
L 274.250411 156.089989 
L 276.405623 161.133022 
L 279.920687 168.640309 
L 282.398078 173.52386 
L 284.993987 178.293444 
L 287.723041 182.936097 
L 290.604668 187.456477 
L 293.642697 191.835716 
L 296.843492 196.044442 
L 300.200194 200.055296 
L 303.722087 203.840101 
L 307.389424 207.360965 
L 311.270196 210.641939 
L 315.465586 213.791102 
L 319.958868 216.868298 
L 327.130519 221.463497 
L 337.18309 227.855783 
L 344.7735 233.002606 
L 349.77717 236.665214 
L 354.711911 240.564859 
L 359.473197 244.683757 
L 363.965938 248.908441 
L 370.302976 255.282131 
L 382.205436 267.480142 
L 386.085565 271.173645 
L 390.015093 274.629956 
L 394.006367 277.78914 
L 398.487273 280.871766 
L 398.487273 280.871766 
" style="fill:none;stroke:#ffffff;stroke-linecap:square;"/>
   </g>
   <g id="line2d_13">
    <path clip-path="url(#pd64d2c0bc7)" d="M 97.232593 201.680765 
L 97.038551 181.778086 
L 97.241568 173.449656 
L 97.564414 168.014962 
L 98.074025 162.696364 
L 98.802329 157.516376 
L 99.774576 152.503359 
L 101.022233 147.648217 
L 102.606929 142.828711 
L 104.525693 137.976167 
L 106.731774 133.092913 
L 109.173136 128.177816 
L 113.1455 120.780213 
L 115.868724 116.014082 
L 118.673576 111.436983 
L 121.590379 107.082279 
L 124.652355 102.964133 
L 127.912591 99.085833 
L 131.41122 95.430464 
L 135.126565 92.037276 
L 139.037829 88.937235 
L 143.104762 86.176015 
L 147.376241 83.741832 
L 151.898022 81.597667 
L 156.7123 79.693143 
L 161.72905 78.012539 
L 166.948958 76.508448 
L 172.270596 75.162447 
L 177.515369 74.00953 
L 182.675589 73.088599 
L 187.781055 72.438533 
L 192.82863 72.090213 
L 197.824026 72.078698 
L 202.721622 72.434319 
L 207.435911 73.186614 
L 209.690765 73.713402 
L 211.862107 74.340996 
L 213.955793 75.075563 
L 215.949998 75.908806 
L 217.869114 76.859852 
L 219.741135 77.950029 
L 221.568589 79.183144 
L 223.336698 80.54663 
L 225.02738 82.023964 
L 226.662607 83.642313 
L 228.199493 85.343628 
L 229.644571 87.14142 
L 230.973342 88.995774 
L 232.202633 90.940833 
L 233.305682 92.916415 
L 234.314573 95.001968 
L 235.23026 97.178377 
L 236.815971 101.829199 
L 238.14239 106.869937 
L 239.281936 112.22704 
L 244.366992 138.441571 
L 245.853589 144.459116 
L 247.585856 150.481974 
L 249.546486 156.391629 
L 251.709909 162.196838 
L 254.050732 167.896247 
L 256.539558 173.486234 
L 259.16494 178.995018 
L 261.947079 184.468159 
L 264.90064 189.881303 
L 268.057388 195.235816 
L 271.426889 200.503844 
L 275.028509 205.675262 
L 278.896476 210.73885 
L 283.03185 215.652379 
L 287.448542 220.368645 
L 292.166298 224.86175 
L 297.134526 229.032259 
L 302.199852 232.818486 
L 307.274622 236.288157 
L 314.791383 241.104443 
L 324.396811 247.208615 
L 331.245463 251.844401 
L 335.601089 255.024401 
L 339.753099 258.292097 
L 343.748031 261.734861 
L 347.692574 265.437164 
L 353.625839 271.403363 
L 366.072625 284.146078 
L 370.600785 288.443348 
L 375.392682 292.635681 
L 380.528751 296.667034 
L 385.673886 300.206661 
L 385.673886 300.206661 
" style="fill:none;stroke:#ffffff;stroke-linecap:square;"/>
   </g>
   <g id="patch_3">
    <path d="M 57.6 307.584 
L 57.6 41.472 
" style="fill:none;stroke:#000000;stroke-linecap:square;stroke-linejoin:miter;stroke-width:0.8;"/>
   </g>
   <g id="patch_4">
    <path d="M 414.72 307.584 
L 414.72 41.472 
" style="fill:none;stroke:#000000;stroke-linecap:square;stroke-linejoin:miter;stroke-width:0.8;"/>
   </g>
   <g id="patch_5">
    <path d="M 57.6 307.584 
L 414.72 307.584 
" style="fill:none;stroke:#000000;stroke-linecap:square;stroke-linejoin:miter;stroke-width:0.8;"/>
   </g>
   <g id="patch_6">
    <path d="M 57.6 41.472 
L 414.72 41.472 
" style="fill:none;stroke:#000000;stroke-linecap:square;stroke-linejoin:miter;stroke-width:0.8;"/>
   </g>
  </g>
 </g>
 <defs>
  <clipPath id="pd64d2c0bc7">
   <rect height="266.112" width="357.12" x="57.6" y="41.472"/>
  </clipPath>
 </defs>
</svg>
