<?xml version="1.0" encoding="utf-8" standalone="no"?>
<!DOCTYPE svg PUBLIC "-//W3C//DTD SVG 1.1//EN"
  "http://www.w3.org/Graphics/SVG/1.1/DTD/svg11.dtd">
<!-- Created with matplotlib (https://matplotlib.org/) -->
<svg height="345.6pt" version="1.1" viewBox="0 0 460.8 345.6" width="460.8pt" xmlns="http://www.w3.org/2000/svg" xmlns:xlink="http://www.w3.org/1999/xlink">
 <metadata>
  <rdf:RDF xmlns:cc="http://creativecommons.org/ns#" xmlns:dc="http://purl.org/dc/elements/1.1/" xmlns:rdf="http://www.w3.org/1999/02/22-rdf-syntax-ns#">
   <cc:Work>
    <dc:type rdf:resource="http://purl.org/dc/dcmitype/StillImage"/>
    <dc:date>2021-01-25T10:44:26.051170</dc:date>
    <dc:format>image/svg+xml</dc:format>
    <dc:creator>
     <cc:Agent>
      <dc:title>Matplotlib v3.3.3, https://matplotlib.org/</dc:title>
     </cc:Agent>
    </dc:creator>
   </cc:Work>
  </rdf:RDF>
 </metadata>
 <defs>
  <style type="text/css">*{stroke-linecap:butt;stroke-linejoin:round;}</style>
 </defs>
 <g id="figure_1">
  <g id="patch_1">
   <path d="M 0 345.6 
L 460.8 345.6 
L 460.8 0 
L 0 0 
z
" style="fill:#ffffff;"/>
  </g>
  <g id="axes_1">
   <g id="patch_2">
    <path d="M 57.6 307.584 
L 414.72 307.584 
L 414.72 41.472 
L 57.6 41.472 
z
" style="fill:#7d9051;"/>
   </g>
   <g id="matplotlib.axis_1">
    <g id="xtick_1">
     <g id="line2d_1">
      <defs>
       <path d="M 0 0 
L 0 3.5 
" id="m5b005788ea" style="stroke:#000000;stroke-width:0.8;"/>
      </defs>
      <g>
       <use style="stroke:#000000;stroke-width:0.8;" x="80.948286" xlink:href="#m5b005788ea" y="307.584"/>
      </g>
     </g>
     <g id="text_1">
      <!-- −20 -->
      <g transform="translate(70.395942 322.182437)scale(0.1 -0.1)">
       <defs>
        <path d="M 10.59375 35.5 
L 73.1875 35.5 
L 73.1875 27.203125 
L 10.59375 27.203125 
z
" id="DejaVuSans-8722"/>
        <path d="M 19.1875 8.296875 
L 53.609375 8.296875 
L 53.609375 0 
L 7.328125 0 
L 7.328125 8.296875 
Q 12.9375 14.109375 22.625 23.890625 
Q 32.328125 33.6875 34.8125 36.53125 
Q 39.546875 41.84375 41.421875 45.53125 
Q 43.3125 49.21875 43.3125 52.78125 
Q 43.3125 58.59375 39.234375 62.25 
Q 35.15625 65.921875 28.609375 65.921875 
Q 23.96875 65.921875 18.8125 64.3125 
Q 13.671875 62.703125 7.8125 59.421875 
L 7.8125 69.390625 
Q 13.765625 71.78125 18.9375 73 
Q 24.125 74.21875 28.421875 74.21875 
Q 39.75 74.21875 46.484375 68.546875 
Q 53.21875 62.890625 53.21875 53.421875 
Q 53.21875 48.921875 51.53125 44.890625 
Q 49.859375 40.875 45.40625 35.40625 
Q 44.1875 33.984375 37.640625 27.21875 
Q 31.109375 20.453125 19.1875 8.296875 
z
" id="DejaVuSans-50"/>
        <path d="M 31.78125 66.40625 
Q 24.171875 66.40625 20.328125 58.90625 
Q 16.5 51.421875 16.5 36.375 
Q 16.5 21.390625 20.328125 13.890625 
Q 24.171875 6.390625 31.78125 6.390625 
Q 39.453125 6.390625 43.28125 13.890625 
Q 47.125 21.390625 47.125 36.375 
Q 47.125 51.421875 43.28125 58.90625 
Q 39.453125 66.40625 31.78125 66.40625 
z
M 31.78125 74.21875 
Q 44.046875 74.21875 50.515625 64.515625 
Q 56.984375 54.828125 56.984375 36.375 
Q 56.984375 17.96875 50.515625 8.265625 
Q 44.046875 -1.421875 31.78125 -1.421875 
Q 19.53125 -1.421875 13.0625 8.265625 
Q 6.59375 17.96875 6.59375 36.375 
Q 6.59375 54.828125 13.0625 64.515625 
Q 19.53125 74.21875 31.78125 74.21875 
z
" id="DejaVuSans-48"/>
       </defs>
       <use xlink:href="#DejaVuSans-8722"/>
       <use x="83.789062" xlink:href="#DejaVuSans-50"/>
       <use x="147.412109" xlink:href="#DejaVuSans-48"/>
      </g>
     </g>
    </g>
    <g id="xtick_2">
     <g id="line2d_2">
      <g>
       <use style="stroke:#000000;stroke-width:0.8;" x="131.115" xlink:href="#m5b005788ea" y="307.584"/>
      </g>
     </g>
     <g id="text_2">
      <!-- 0 -->
      <g transform="translate(127.93375 322.182437)scale(0.1 -0.1)">
       <use xlink:href="#DejaVuSans-48"/>
      </g>
     </g>
    </g>
    <g id="xtick_3">
     <g id="line2d_3">
      <g>
       <use style="stroke:#000000;stroke-width:0.8;" x="181.281714" xlink:href="#m5b005788ea" y="307.584"/>
      </g>
     </g>
     <g id="text_3">
      <!-- 20 -->
      <g transform="translate(174.919214 322.182437)scale(0.1 -0.1)">
       <use xlink:href="#DejaVuSans-50"/>
       <use x="63.623047" xlink:href="#DejaVuSans-48"/>
      </g>
     </g>
    </g>
    <g id="xtick_4">
     <g id="line2d_4">
      <g>
       <use style="stroke:#000000;stroke-width:0.8;" x="231.448429" xlink:href="#m5b005788ea" y="307.584"/>
      </g>
     </g>
     <g id="text_4">
      <!-- 40 -->
      <g transform="translate(225.085929 322.182437)scale(0.1 -0.1)">
       <defs>
        <path d="M 37.796875 64.3125 
L 12.890625 25.390625 
L 37.796875 25.390625 
z
M 35.203125 72.90625 
L 47.609375 72.90625 
L 47.609375 25.390625 
L 58.015625 25.390625 
L 58.015625 17.1875 
L 47.609375 17.1875 
L 47.609375 0 
L 37.796875 0 
L 37.796875 17.1875 
L 4.890625 17.1875 
L 4.890625 26.703125 
z
" id="DejaVuSans-52"/>
       </defs>
       <use xlink:href="#DejaVuSans-52"/>
       <use x="63.623047" xlink:href="#DejaVuSans-48"/>
      </g>
     </g>
    </g>
    <g id="xtick_5">
     <g id="line2d_5">
      <g>
       <use style="stroke:#000000;stroke-width:0.8;" x="281.615143" xlink:href="#m5b005788ea" y="307.584"/>
      </g>
     </g>
     <g id="text_5">
      <!-- 60 -->
      <g transform="translate(275.252643 322.182437)scale(0.1 -0.1)">
       <defs>
        <path d="M 33.015625 40.375 
Q 26.375 40.375 22.484375 35.828125 
Q 18.609375 31.296875 18.609375 23.390625 
Q 18.609375 15.53125 22.484375 10.953125 
Q 26.375 6.390625 33.015625 6.390625 
Q 39.65625 6.390625 43.53125 10.953125 
Q 47.40625 15.53125 47.40625 23.390625 
Q 47.40625 31.296875 43.53125 35.828125 
Q 39.65625 40.375 33.015625 40.375 
z
M 52.59375 71.296875 
L 52.59375 62.3125 
Q 48.875 64.0625 45.09375 64.984375 
Q 41.3125 65.921875 37.59375 65.921875 
Q 27.828125 65.921875 22.671875 59.328125 
Q 17.53125 52.734375 16.796875 39.40625 
Q 19.671875 43.65625 24.015625 45.921875 
Q 28.375 48.1875 33.59375 48.1875 
Q 44.578125 48.1875 50.953125 41.515625 
Q 57.328125 34.859375 57.328125 23.390625 
Q 57.328125 12.15625 50.6875 5.359375 
Q 44.046875 -1.421875 33.015625 -1.421875 
Q 20.359375 -1.421875 13.671875 8.265625 
Q 6.984375 17.96875 6.984375 36.375 
Q 6.984375 53.65625 15.1875 63.9375 
Q 23.390625 74.21875 37.203125 74.21875 
Q 40.921875 74.21875 44.703125 73.484375 
Q 48.484375 72.75 52.59375 71.296875 
z
" id="DejaVuSans-54"/>
       </defs>
       <use xlink:href="#DejaVuSans-54"/>
       <use x="63.623047" xlink:href="#DejaVuSans-48"/>
      </g>
     </g>
    </g>
    <g id="xtick_6">
     <g id="line2d_6">
      <g>
       <use style="stroke:#000000;stroke-width:0.8;" x="331.781857" xlink:href="#m5b005788ea" y="307.584"/>
      </g>
     </g>
     <g id="text_6">
      <!-- 80 -->
      <g transform="translate(325.419357 322.182437)scale(0.1 -0.1)">
       <defs>
        <path d="M 31.78125 34.625 
Q 24.75 34.625 20.71875 30.859375 
Q 16.703125 27.09375 16.703125 20.515625 
Q 16.703125 13.921875 20.71875 10.15625 
Q 24.75 6.390625 31.78125 6.390625 
Q 38.8125 6.390625 42.859375 10.171875 
Q 46.921875 13.96875 46.921875 20.515625 
Q 46.921875 27.09375 42.890625 30.859375 
Q 38.875 34.625 31.78125 34.625 
z
M 21.921875 38.8125 
Q 15.578125 40.375 12.03125 44.71875 
Q 8.5 49.078125 8.5 55.328125 
Q 8.5 64.0625 14.71875 69.140625 
Q 20.953125 74.21875 31.78125 74.21875 
Q 42.671875 74.21875 48.875 69.140625 
Q 55.078125 64.0625 55.078125 55.328125 
Q 55.078125 49.078125 51.53125 44.71875 
Q 48 40.375 41.703125 38.8125 
Q 48.828125 37.15625 52.796875 32.3125 
Q 56.78125 27.484375 56.78125 20.515625 
Q 56.78125 9.90625 50.3125 4.234375 
Q 43.84375 -1.421875 31.78125 -1.421875 
Q 19.734375 -1.421875 13.25 4.234375 
Q 6.78125 9.90625 6.78125 20.515625 
Q 6.78125 27.484375 10.78125 32.3125 
Q 14.796875 37.15625 21.921875 38.8125 
z
M 18.3125 54.390625 
Q 18.3125 48.734375 21.84375 45.5625 
Q 25.390625 42.390625 31.78125 42.390625 
Q 38.140625 42.390625 41.71875 45.5625 
Q 45.3125 48.734375 45.3125 54.390625 
Q 45.3125 60.0625 41.71875 63.234375 
Q 38.140625 66.40625 31.78125 66.40625 
Q 25.390625 66.40625 21.84375 63.234375 
Q 18.3125 60.0625 18.3125 54.390625 
z
" id="DejaVuSans-56"/>
       </defs>
       <use xlink:href="#DejaVuSans-56"/>
       <use x="63.623047" xlink:href="#DejaVuSans-48"/>
      </g>
     </g>
    </g>
    <g id="xtick_7">
     <g id="line2d_7">
      <g>
       <use style="stroke:#000000;stroke-width:0.8;" x="381.948572" xlink:href="#m5b005788ea" y="307.584"/>
      </g>
     </g>
     <g id="text_7">
      <!-- 100 -->
      <g transform="translate(372.404822 322.182437)scale(0.1 -0.1)">
       <defs>
        <path d="M 12.40625 8.296875 
L 28.515625 8.296875 
L 28.515625 63.921875 
L 10.984375 60.40625 
L 10.984375 69.390625 
L 28.421875 72.90625 
L 38.28125 72.90625 
L 38.28125 8.296875 
L 54.390625 8.296875 
L 54.390625 0 
L 12.40625 0 
z
" id="DejaVuSans-49"/>
       </defs>
       <use xlink:href="#DejaVuSans-49"/>
       <use x="63.623047" xlink:href="#DejaVuSans-48"/>
       <use x="127.246094" xlink:href="#DejaVuSans-48"/>
      </g>
     </g>
    </g>
   </g>
   <g id="matplotlib.axis_2">
    <g id="ytick_1">
     <g id="line2d_8">
      <defs>
       <path d="M 0 0 
L -3.5 0 
" id="m2d1bff565c" style="stroke:#000000;stroke-width:0.8;"/>
      </defs>
      <g>
       <use style="stroke:#000000;stroke-width:0.8;" x="57.6" xlink:href="#m2d1bff565c" y="270.130555"/>
      </g>
     </g>
     <g id="text_8">
      <!-- 20 -->
      <g transform="translate(37.875 273.929773)scale(0.1 -0.1)">
       <use xlink:href="#DejaVuSans-50"/>
       <use x="63.623047" xlink:href="#DejaVuSans-48"/>
      </g>
     </g>
    </g>
    <g id="ytick_2">
     <g id="line2d_9">
      <g>
       <use style="stroke:#000000;stroke-width:0.8;" x="57.6" xlink:href="#m2d1bff565c" y="219.96384"/>
      </g>
     </g>
     <g id="text_9">
      <!-- 40 -->
      <g transform="translate(37.875 223.763059)scale(0.1 -0.1)">
       <use xlink:href="#DejaVuSans-52"/>
       <use x="63.623047" xlink:href="#DejaVuSans-48"/>
      </g>
     </g>
    </g>
    <g id="ytick_3">
     <g id="line2d_10">
      <g>
       <use style="stroke:#000000;stroke-width:0.8;" x="57.6" xlink:href="#m2d1bff565c" y="169.797126"/>
      </g>
     </g>
     <g id="text_10">
      <!-- 60 -->
      <g transform="translate(37.875 173.596345)scale(0.1 -0.1)">
       <use xlink:href="#DejaVuSans-54"/>
       <use x="63.623047" xlink:href="#DejaVuSans-48"/>
      </g>
     </g>
    </g>
    <g id="ytick_4">
     <g id="line2d_11">
      <g>
       <use style="stroke:#000000;stroke-width:0.8;" x="57.6" xlink:href="#m2d1bff565c" y="119.630412"/>
      </g>
     </g>
     <g id="text_11">
      <!-- 80 -->
      <g transform="translate(37.875 123.429631)scale(0.1 -0.1)">
       <use xlink:href="#DejaVuSans-56"/>
       <use x="63.623047" xlink:href="#DejaVuSans-48"/>
      </g>
     </g>
    </g>
    <g id="ytick_5">
     <g id="line2d_12">
      <g>
       <use style="stroke:#000000;stroke-width:0.8;" x="57.6" xlink:href="#m2d1bff565c" y="69.463698"/>
      </g>
     </g>
     <g id="text_12">
      <!-- 100 -->
      <g transform="translate(31.5125 73.262916)scale(0.1 -0.1)">
       <use xlink:href="#DejaVuSans-49"/>
       <use x="63.623047" xlink:href="#DejaVuSans-48"/>
       <use x="127.246094" xlink:href="#DejaVuSans-48"/>
      </g>
     </g>
    </g>
   </g>
   <g id="line2d_13">
    <path clip-path="url(#pdd71cd7fcc)" d="M 188.197196 295.213912 
L 188.079304 287.751613 
L 188.099371 262.565414 
L 187.851046 257.541218 
L 187.419612 252.544613 
L 186.75992 247.583125 
L 185.829327 242.666787 
L 184.625326 237.800616 
L 183.183033 232.987119 
L 181.540073 228.226298 
L 178.783412 221.197942 
L 175.783443 214.289985 
L 165.474183 191.408947 
L 162.742605 184.383098 
L 161.134762 179.629802 
L 159.740127 174.816306 
L 158.593818 169.940101 
L 157.683292 165.006205 
L 156.9935 160.027159 
L 156.504374 155.018012 
L 156.198357 149.983782 
L 156.067924 144.942028 
L 156.135649 139.902781 
L 156.434141 134.883601 
L 156.996008 129.89703 
L 157.853859 124.955609 
L 159.032777 120.076896 
L 160.512695 115.270924 
L 162.26853 110.550237 
L 164.27269 105.924866 
L 166.500092 101.409861 
L 168.933178 97.015257 
L 171.571947 92.751086 
L 174.433958 88.629891 
L 177.526736 84.656687 
L 180.865331 80.846525 
L 184.459776 77.224488 
L 188.305054 73.863318 
L 190.319248 72.310659 
L 192.39615 70.858332 
L 194.530744 69.518881 
L 196.725537 68.304847 
L 198.980531 67.223754 
L 201.290708 66.288145 
L 203.658577 65.508052 
L 206.076613 64.87846 
L 208.534782 64.384318 
L 211.028068 64.020609 
L 216.084872 63.636834 
L 221.186827 63.651884 
L 226.268715 63.980476 
L 231.285387 64.557393 
L 236.23935 65.34501 
L 241.150671 66.318245 
L 248.467487 68.05903 
L 255.769252 70.07824 
L 260.590273 71.620866 
L 265.313469 73.391751 
L 269.883657 75.453603 
L 272.096009 76.614963 
L 274.250669 77.871639 
L 278.374373 80.6885 
L 282.264802 83.85402 
L 285.94453 87.30549 
L 289.438642 90.972676 
L 292.77222 94.790363 
L 295.957807 98.700859 
L 298.990384 102.706671 
L 301.857412 106.820341 
L 304.546348 111.051904 
L 307.039634 115.418916 
L 309.322219 119.923887 
L 311.353971 124.556783 
L 313.084723 129.300046 
L 314.474341 134.133609 
L 315.472658 139.042422 
L 316.054592 144.006418 
L 316.252751 149.010548 
L 316.119809 154.039761 
L 315.708442 159.084024 
L 315.073833 164.123271 
L 313.809632 171.643261 
L 311.825538 181.521087 
L 310.343112 188.755127 
L 310.343112 188.755127 
" style="fill:none;stroke:#fea952;stroke-linecap:square;"/>
   </g>
   <g id="line2d_14">
    <path clip-path="url(#pdd71cd7fcc)" d="M 178.167598 295.488 
L 178.045982 287.731526 
L 178.074417 262.975617 
L 177.845972 258.293856 
L 177.457833 253.740831 
L 176.875026 249.302674 
L 176.05837 244.946342 
L 174.982954 240.574174 
L 173.666569 236.165938 
L 172.147205 231.75362 
L 169.541236 225.103086 
L 166.647018 218.436516 
L 156.177209 195.181777 
L 154.207477 190.225107 
L 152.373991 185.125237 
L 150.736165 179.903208 
L 149.339783 174.555883 
L 148.22225 169.184158 
L 147.359459 163.793284 
L 146.73039 158.405883 
L 146.308878 153.021111 
L 146.078658 147.632599 
L 146.044971 142.181378 
L 146.246104 136.671402 
L 146.726583 131.12106 
L 147.528573 125.541896 
L 148.690399 119.991571 
L 150.192913 114.563162 
L 152.004373 109.261491 
L 154.085988 104.121385 
L 156.413358 99.115862 
L 158.970933 94.235778 
L 161.762707 89.475061 
L 164.81235 84.836121 
L 168.123041 80.344493 
L 171.71287 76.014274 
L 175.625785 71.825148 
L 179.899777 67.819442 
L 182.17949 65.916908 
L 184.569503 64.088226 
L 187.063237 62.359626 
L 189.674317 60.739184 
L 192.388052 59.257516 
L 195.214235 57.924131 
L 198.151219 56.758634 
L 201.130452 55.798441 
L 204.099262 55.041893 
L 207.086494 54.456054 
L 210.05335 54.034724 
L 213.00195 53.756234 
L 215.936759 53.604584 
L 221.700178 53.631682 
L 227.302494 54.000532 
L 232.75903 54.63286 
L 238.098695 55.485456 
L 243.332532 56.52501 
L 248.486547 57.716042 
L 256.123937 59.736908 
L 261.344697 61.301305 
L 266.625449 63.130665 
L 271.914114 65.314009 
L 274.5471 66.569895 
L 277.150892 67.948007 
L 279.725101 69.463395 
L 282.183906 71.076009 
L 284.557192 72.786556 
L 289.016941 76.43266 
L 293.123185 80.295861 
L 296.933273 84.301959 
L 300.49881 88.389756 
L 303.899679 92.569413 
L 307.161629 96.884408 
L 310.265441 101.345579 
L 313.199832 105.973992 
L 315.926314 110.761139 
L 318.449758 115.757832 
L 320.721623 120.963029 
L 322.675461 126.352892 
L 324.261623 131.925197 
L 324.898643 134.789726 
L 325.412088 137.672855 
L 325.80048 140.551696 
L 326.228478 146.28382 
L 326.247622 151.933695 
L 325.934053 157.494082 
L 325.357507 162.9517 
L 324.580334 168.310177 
L 323.172698 176.093485 
L 320.178826 190.736719 
L 320.178826 190.736719 
" style="fill:none;stroke:#ffffff;stroke-linecap:square;"/>
   </g>
   <g id="line2d_15">
    <path clip-path="url(#pdd71cd7fcc)" d="M 198.226794 294.939824 
L 198.112627 287.7717 
L 198.124325 262.155211 
L 197.85612 256.788579 
L 197.381391 251.348395 
L 196.644813 245.863576 
L 195.600284 240.387232 
L 194.267698 235.027057 
L 192.699497 229.808301 
L 190.932941 224.698977 
L 189.022632 219.732181 
L 185.971239 212.509539 
L 181.755837 203.232422 
L 176.655684 192.042178 
L 173.875709 185.432005 
L 172.211878 181.066348 
L 170.736071 176.717271 
L 169.476848 172.394686 
L 168.438447 168.003288 
L 167.606364 163.522756 
L 166.969555 158.956509 
L 166.513371 154.319478 
L 166.225621 149.634574 
L 166.101222 144.971978 
L 166.15795 140.373359 
L 166.419266 135.866073 
L 166.908113 131.452067 
L 167.643773 127.152321 
L 168.666355 122.880848 
L 169.967379 118.629036 
L 171.523862 114.424097 
L 173.319539 110.263355 
L 175.333839 106.167265 
L 177.533154 102.183271 
L 179.890745 98.360505 
L 182.441374 94.67549 
L 185.166371 91.160835 
L 188.101679 87.796578 
L 191.211872 84.645888 
L 194.430618 81.809729 
L 197.729063 79.357038 
L 201.063023 77.352177 
L 204.430198 75.817655 
L 206.186702 75.217664 
L 208.053964 74.715027 
L 209.98307 74.312582 
L 214.090924 73.79335 
L 218.426411 73.630417 
L 222.951161 73.785168 
L 227.527843 74.195351 
L 232.091489 74.818294 
L 236.658904 75.632585 
L 243.577239 77.172932 
L 250.553412 79.014904 
L 255.034894 80.350143 
L 259.310901 81.816736 
L 263.328162 83.451079 
L 267.041126 85.281919 
L 270.501336 87.391322 
L 273.866761 89.891962 
L 277.154414 92.762848 
L 280.364784 95.948276 
L 283.504258 99.393628 
L 286.551747 103.006974 
L 289.438743 106.672275 
L 292.154548 110.399362 
L 294.69709 114.206785 
L 297.046411 118.090029 
L 299.199412 122.065053 
L 301.125566 126.118713 
L 302.778586 130.200511 
L 304.132949 134.303869 
L 305.153707 138.368747 
L 305.827104 142.484603 
L 306.166657 146.725622 
L 306.19768 151.114106 
L 305.954398 155.627195 
L 305.472427 160.258103 
L 304.794765 164.963069 
L 303.493399 172.169576 
L 300.507398 186.773536 
L 300.507398 186.773536 
" style="fill:none;stroke:#ffffff;stroke-linecap:square;"/>
   </g>
   <g id="patch_3">
    <path d="M 57.6 307.584 
L 57.6 41.472 
" style="fill:none;stroke:#000000;stroke-linecap:square;stroke-linejoin:miter;stroke-width:0.8;"/>
   </g>
   <g id="patch_4">
    <path d="M 414.72 307.584 
L 414.72 41.472 
" style="fill:none;stroke:#000000;stroke-linecap:square;stroke-linejoin:miter;stroke-width:0.8;"/>
   </g>
   <g id="patch_5">
    <path d="M 57.6 307.584 
L 414.72 307.584 
" style="fill:none;stroke:#000000;stroke-linecap:square;stroke-linejoin:miter;stroke-width:0.8;"/>
   </g>
   <g id="patch_6">
    <path d="M 57.6 41.472 
L 414.72 41.472 
" style="fill:none;stroke:#000000;stroke-linecap:square;stroke-linejoin:miter;stroke-width:0.8;"/>
   </g>
  </g>
 </g>
 <defs>
  <clipPath id="pdd71cd7fcc">
   <rect height="266.112" width="357.12" x="57.6" y="41.472"/>
  </clipPath>
 </defs>
</svg>
