<?xml version="1.0" encoding="utf-8" standalone="no"?>
<!DOCTYPE svg PUBLIC "-//W3C//DTD SVG 1.1//EN"
  "http://www.w3.org/Graphics/SVG/1.1/DTD/svg11.dtd">
<!-- Created with matplotlib (https://matplotlib.org/) -->
<svg height="345.6pt" version="1.1" viewBox="0 0 460.8 345.6" width="460.8pt" xmlns="http://www.w3.org/2000/svg" xmlns:xlink="http://www.w3.org/1999/xlink">
 <metadata>
  <rdf:RDF xmlns:cc="http://creativecommons.org/ns#" xmlns:dc="http://purl.org/dc/elements/1.1/" xmlns:rdf="http://www.w3.org/1999/02/22-rdf-syntax-ns#">
   <cc:Work>
    <dc:type rdf:resource="http://purl.org/dc/dcmitype/StillImage"/>
    <dc:date>2021-01-23T13:03:51.728197</dc:date>
    <dc:format>image/svg+xml</dc:format>
    <dc:creator>
     <cc:Agent>
      <dc:title>Matplotlib v3.3.3, https://matplotlib.org/</dc:title>
     </cc:Agent>
    </dc:creator>
   </cc:Work>
  </rdf:RDF>
 </metadata>
 <defs>
  <style type="text/css">*{stroke-linecap:butt;stroke-linejoin:round;}</style>
 </defs>
 <g id="figure_1">
  <g id="patch_1">
   <path d="M 0 345.6 
L 460.8 345.6 
L 460.8 0 
L 0 0 
z
" style="fill:#ffffff;"/>
  </g>
  <g id="axes_1">
   <g id="patch_2">
    <path d="M 57.6 307.584 
L 414.72 307.584 
L 414.72 41.472 
L 57.6 41.472 
z
" style="fill:#7d9051;"/>
   </g>
   <g id="matplotlib.axis_1">
    <g id="xtick_1">
     <g id="line2d_1">
      <defs>
       <path d="M 0 0 
L 0 3.5 
" id="ma9f492f6da" style="stroke:#000000;stroke-width:0.8;"/>
      </defs>
      <g>
       <use style="stroke:#000000;stroke-width:0.8;" x="59.143668" xlink:href="#ma9f492f6da" y="307.584"/>
      </g>
     </g>
     <g id="text_1">
      <!-- 0 -->
      <g transform="translate(55.962418 322.182437)scale(0.1 -0.1)">
       <defs>
        <path d="M 31.78125 66.40625 
Q 24.171875 66.40625 20.328125 58.90625 
Q 16.5 51.421875 16.5 36.375 
Q 16.5 21.390625 20.328125 13.890625 
Q 24.171875 6.390625 31.78125 6.390625 
Q 39.453125 6.390625 43.28125 13.890625 
Q 47.125 21.390625 47.125 36.375 
Q 47.125 51.421875 43.28125 58.90625 
Q 39.453125 66.40625 31.78125 66.40625 
z
M 31.78125 74.21875 
Q 44.046875 74.21875 50.515625 64.515625 
Q 56.984375 54.828125 56.984375 36.375 
Q 56.984375 17.96875 50.515625 8.265625 
Q 44.046875 -1.421875 31.78125 -1.421875 
Q 19.53125 -1.421875 13.0625 8.265625 
Q 6.59375 17.96875 6.59375 36.375 
Q 6.59375 54.828125 13.0625 64.515625 
Q 19.53125 74.21875 31.78125 74.21875 
z
" id="DejaVuSans-48"/>
       </defs>
       <use xlink:href="#DejaVuSans-48"/>
      </g>
     </g>
    </g>
    <g id="xtick_2">
     <g id="line2d_2">
      <g>
       <use style="stroke:#000000;stroke-width:0.8;" x="108.103643" xlink:href="#ma9f492f6da" y="307.584"/>
      </g>
     </g>
     <g id="text_2">
      <!-- 20 -->
      <g transform="translate(101.741143 322.182437)scale(0.1 -0.1)">
       <defs>
        <path d="M 19.1875 8.296875 
L 53.609375 8.296875 
L 53.609375 0 
L 7.328125 0 
L 7.328125 8.296875 
Q 12.9375 14.109375 22.625 23.890625 
Q 32.328125 33.6875 34.8125 36.53125 
Q 39.546875 41.84375 41.421875 45.53125 
Q 43.3125 49.21875 43.3125 52.78125 
Q 43.3125 58.59375 39.234375 62.25 
Q 35.15625 65.921875 28.609375 65.921875 
Q 23.96875 65.921875 18.8125 64.3125 
Q 13.671875 62.703125 7.8125 59.421875 
L 7.8125 69.390625 
Q 13.765625 71.78125 18.9375 73 
Q 24.125 74.21875 28.421875 74.21875 
Q 39.75 74.21875 46.484375 68.546875 
Q 53.21875 62.890625 53.21875 53.421875 
Q 53.21875 48.921875 51.53125 44.890625 
Q 49.859375 40.875 45.40625 35.40625 
Q 44.1875 33.984375 37.640625 27.21875 
Q 31.109375 20.453125 19.1875 8.296875 
z
" id="DejaVuSans-50"/>
       </defs>
       <use xlink:href="#DejaVuSans-50"/>
       <use x="63.623047" xlink:href="#DejaVuSans-48"/>
      </g>
     </g>
    </g>
    <g id="xtick_3">
     <g id="line2d_3">
      <g>
       <use style="stroke:#000000;stroke-width:0.8;" x="157.063619" xlink:href="#ma9f492f6da" y="307.584"/>
      </g>
     </g>
     <g id="text_3">
      <!-- 40 -->
      <g transform="translate(150.701119 322.182437)scale(0.1 -0.1)">
       <defs>
        <path d="M 37.796875 64.3125 
L 12.890625 25.390625 
L 37.796875 25.390625 
z
M 35.203125 72.90625 
L 47.609375 72.90625 
L 47.609375 25.390625 
L 58.015625 25.390625 
L 58.015625 17.1875 
L 47.609375 17.1875 
L 47.609375 0 
L 37.796875 0 
L 37.796875 17.1875 
L 4.890625 17.1875 
L 4.890625 26.703125 
z
" id="DejaVuSans-52"/>
       </defs>
       <use xlink:href="#DejaVuSans-52"/>
       <use x="63.623047" xlink:href="#DejaVuSans-48"/>
      </g>
     </g>
    </g>
    <g id="xtick_4">
     <g id="line2d_4">
      <g>
       <use style="stroke:#000000;stroke-width:0.8;" x="206.023594" xlink:href="#ma9f492f6da" y="307.584"/>
      </g>
     </g>
     <g id="text_4">
      <!-- 60 -->
      <g transform="translate(199.661094 322.182437)scale(0.1 -0.1)">
       <defs>
        <path d="M 33.015625 40.375 
Q 26.375 40.375 22.484375 35.828125 
Q 18.609375 31.296875 18.609375 23.390625 
Q 18.609375 15.53125 22.484375 10.953125 
Q 26.375 6.390625 33.015625 6.390625 
Q 39.65625 6.390625 43.53125 10.953125 
Q 47.40625 15.53125 47.40625 23.390625 
Q 47.40625 31.296875 43.53125 35.828125 
Q 39.65625 40.375 33.015625 40.375 
z
M 52.59375 71.296875 
L 52.59375 62.3125 
Q 48.875 64.0625 45.09375 64.984375 
Q 41.3125 65.921875 37.59375 65.921875 
Q 27.828125 65.921875 22.671875 59.328125 
Q 17.53125 52.734375 16.796875 39.40625 
Q 19.671875 43.65625 24.015625 45.921875 
Q 28.375 48.1875 33.59375 48.1875 
Q 44.578125 48.1875 50.953125 41.515625 
Q 57.328125 34.859375 57.328125 23.390625 
Q 57.328125 12.15625 50.6875 5.359375 
Q 44.046875 -1.421875 33.015625 -1.421875 
Q 20.359375 -1.421875 13.671875 8.265625 
Q 6.984375 17.96875 6.984375 36.375 
Q 6.984375 53.65625 15.1875 63.9375 
Q 23.390625 74.21875 37.203125 74.21875 
Q 40.921875 74.21875 44.703125 73.484375 
Q 48.484375 72.75 52.59375 71.296875 
z
" id="DejaVuSans-54"/>
       </defs>
       <use xlink:href="#DejaVuSans-54"/>
       <use x="63.623047" xlink:href="#DejaVuSans-48"/>
      </g>
     </g>
    </g>
    <g id="xtick_5">
     <g id="line2d_5">
      <g>
       <use style="stroke:#000000;stroke-width:0.8;" x="254.98357" xlink:href="#ma9f492f6da" y="307.584"/>
      </g>
     </g>
     <g id="text_5">
      <!-- 80 -->
      <g transform="translate(248.62107 322.182437)scale(0.1 -0.1)">
       <defs>
        <path d="M 31.78125 34.625 
Q 24.75 34.625 20.71875 30.859375 
Q 16.703125 27.09375 16.703125 20.515625 
Q 16.703125 13.921875 20.71875 10.15625 
Q 24.75 6.390625 31.78125 6.390625 
Q 38.8125 6.390625 42.859375 10.171875 
Q 46.921875 13.96875 46.921875 20.515625 
Q 46.921875 27.09375 42.890625 30.859375 
Q 38.875 34.625 31.78125 34.625 
z
M 21.921875 38.8125 
Q 15.578125 40.375 12.03125 44.71875 
Q 8.5 49.078125 8.5 55.328125 
Q 8.5 64.0625 14.71875 69.140625 
Q 20.953125 74.21875 31.78125 74.21875 
Q 42.671875 74.21875 48.875 69.140625 
Q 55.078125 64.0625 55.078125 55.328125 
Q 55.078125 49.078125 51.53125 44.71875 
Q 48 40.375 41.703125 38.8125 
Q 48.828125 37.15625 52.796875 32.3125 
Q 56.78125 27.484375 56.78125 20.515625 
Q 56.78125 9.90625 50.3125 4.234375 
Q 43.84375 -1.421875 31.78125 -1.421875 
Q 19.734375 -1.421875 13.25 4.234375 
Q 6.78125 9.90625 6.78125 20.515625 
Q 6.78125 27.484375 10.78125 32.3125 
Q 14.796875 37.15625 21.921875 38.8125 
z
M 18.3125 54.390625 
Q 18.3125 48.734375 21.84375 45.5625 
Q 25.390625 42.390625 31.78125 42.390625 
Q 38.140625 42.390625 41.71875 45.5625 
Q 45.3125 48.734375 45.3125 54.390625 
Q 45.3125 60.0625 41.71875 63.234375 
Q 38.140625 66.40625 31.78125 66.40625 
Q 25.390625 66.40625 21.84375 63.234375 
Q 18.3125 60.0625 18.3125 54.390625 
z
" id="DejaVuSans-56"/>
       </defs>
       <use xlink:href="#DejaVuSans-56"/>
       <use x="63.623047" xlink:href="#DejaVuSans-48"/>
      </g>
     </g>
    </g>
    <g id="xtick_6">
     <g id="line2d_6">
      <g>
       <use style="stroke:#000000;stroke-width:0.8;" x="303.943545" xlink:href="#ma9f492f6da" y="307.584"/>
      </g>
     </g>
     <g id="text_6">
      <!-- 100 -->
      <g transform="translate(294.399795 322.182437)scale(0.1 -0.1)">
       <defs>
        <path d="M 12.40625 8.296875 
L 28.515625 8.296875 
L 28.515625 63.921875 
L 10.984375 60.40625 
L 10.984375 69.390625 
L 28.421875 72.90625 
L 38.28125 72.90625 
L 38.28125 8.296875 
L 54.390625 8.296875 
L 54.390625 0 
L 12.40625 0 
z
" id="DejaVuSans-49"/>
       </defs>
       <use xlink:href="#DejaVuSans-49"/>
       <use x="63.623047" xlink:href="#DejaVuSans-48"/>
       <use x="127.246094" xlink:href="#DejaVuSans-48"/>
      </g>
     </g>
    </g>
    <g id="xtick_7">
     <g id="line2d_7">
      <g>
       <use style="stroke:#000000;stroke-width:0.8;" x="352.903521" xlink:href="#ma9f492f6da" y="307.584"/>
      </g>
     </g>
     <g id="text_7">
      <!-- 120 -->
      <g transform="translate(343.359771 322.182437)scale(0.1 -0.1)">
       <use xlink:href="#DejaVuSans-49"/>
       <use x="63.623047" xlink:href="#DejaVuSans-50"/>
       <use x="127.246094" xlink:href="#DejaVuSans-48"/>
      </g>
     </g>
    </g>
    <g id="xtick_8">
     <g id="line2d_8">
      <g>
       <use style="stroke:#000000;stroke-width:0.8;" x="401.863497" xlink:href="#ma9f492f6da" y="307.584"/>
      </g>
     </g>
     <g id="text_8">
      <!-- 140 -->
      <g transform="translate(392.319747 322.182437)scale(0.1 -0.1)">
       <use xlink:href="#DejaVuSans-49"/>
       <use x="63.623047" xlink:href="#DejaVuSans-52"/>
       <use x="127.246094" xlink:href="#DejaVuSans-48"/>
      </g>
     </g>
    </g>
   </g>
   <g id="matplotlib.axis_2">
    <g id="ytick_1">
     <g id="line2d_9">
      <defs>
       <path d="M 0 0 
L -3.5 0 
" id="m446561fd30" style="stroke:#000000;stroke-width:0.8;"/>
      </defs>
      <g>
       <use style="stroke:#000000;stroke-width:0.8;" x="57.6" xlink:href="#m446561fd30" y="265.400369"/>
      </g>
     </g>
     <g id="text_9">
      <!-- 0 -->
      <g transform="translate(44.2375 269.199587)scale(0.1 -0.1)">
       <use xlink:href="#DejaVuSans-48"/>
      </g>
     </g>
    </g>
    <g id="ytick_2">
     <g id="line2d_10">
      <g>
       <use style="stroke:#000000;stroke-width:0.8;" x="57.6" xlink:href="#m446561fd30" y="216.440393"/>
      </g>
     </g>
     <g id="text_10">
      <!-- 20 -->
      <g transform="translate(37.875 220.239612)scale(0.1 -0.1)">
       <use xlink:href="#DejaVuSans-50"/>
       <use x="63.623047" xlink:href="#DejaVuSans-48"/>
      </g>
     </g>
    </g>
    <g id="ytick_3">
     <g id="line2d_11">
      <g>
       <use style="stroke:#000000;stroke-width:0.8;" x="57.6" xlink:href="#m446561fd30" y="167.480417"/>
      </g>
     </g>
     <g id="text_11">
      <!-- 40 -->
      <g transform="translate(37.875 171.279636)scale(0.1 -0.1)">
       <use xlink:href="#DejaVuSans-52"/>
       <use x="63.623047" xlink:href="#DejaVuSans-48"/>
      </g>
     </g>
    </g>
    <g id="ytick_4">
     <g id="line2d_12">
      <g>
       <use style="stroke:#000000;stroke-width:0.8;" x="57.6" xlink:href="#m446561fd30" y="118.520442"/>
      </g>
     </g>
     <g id="text_12">
      <!-- 60 -->
      <g transform="translate(37.875 122.319661)scale(0.1 -0.1)">
       <use xlink:href="#DejaVuSans-54"/>
       <use x="63.623047" xlink:href="#DejaVuSans-48"/>
      </g>
     </g>
    </g>
    <g id="ytick_5">
     <g id="line2d_13">
      <g>
       <use style="stroke:#000000;stroke-width:0.8;" x="57.6" xlink:href="#m446561fd30" y="69.560466"/>
      </g>
     </g>
     <g id="text_13">
      <!-- 80 -->
      <g transform="translate(37.875 73.359685)scale(0.1 -0.1)">
       <use xlink:href="#DejaVuSans-56"/>
       <use x="63.623047" xlink:href="#DejaVuSans-48"/>
      </g>
     </g>
    </g>
   </g>
   <g id="line2d_14">
    <path clip-path="url(#p873c853b36)" d="M 386.967424 203.431727 
L 387.630832 200.898049 
L 388.130223 198.374162 
L 388.470495 195.867411 
L 388.658991 193.375348 
L 388.703055 190.897974 
L 388.605135 188.442631 
L 388.375023 186.004424 
L 388.020063 183.588249 
L 387.542704 181.191659 
L 386.952736 178.821996 
L 385.454561 174.153662 
L 383.576946 169.595488 
L 381.371299 165.157267 
L 378.88658 160.851237 
L 376.176645 156.684743 
L 373.280663 152.670025 
L 370.203528 148.809531 
L 366.945242 145.115501 
L 363.500908 141.59283 
L 359.872974 138.243968 
L 356.056543 135.08605 
L 352.063857 132.146003 
L 347.904708 129.465444 
L 343.588886 127.071302 
L 339.126184 125.007639 
L 334.53129 123.276903 
L 329.833581 121.820344 
L 325.062431 120.562073 
L 315.419764 118.341738 
L 305.779545 116.236459 
L 300.944747 115.330699 
L 296.078125 114.606092 
L 291.169888 114.123836 
L 286.220034 113.940236 
L 281.260389 114.074876 
L 276.327671 114.549788 
L 271.458602 115.384555 
L 266.6899 116.598763 
L 262.043598 118.187514 
L 257.502561 120.082265 
L 253.047203 122.214472 
L 246.479222 125.688182 
L 235.629692 131.614787 
L 231.230638 133.820434 
L 226.745904 135.827793 
L 222.141218 137.560976 
L 217.404341 138.971024 
L 212.564647 140.045695 
L 207.658857 140.772751 
L 202.723692 141.147295 
L 197.793422 141.161983 
L 192.890081 140.833951 
L 188.008771 140.241535 
L 180.708839 139.02488 
L 166.096734 136.398177 
L 161.208081 135.737217 
L 156.307187 135.296577 
L 151.396502 135.14725 
L 146.476024 135.352881 
L 141.565338 135.915921 
L 136.696269 136.821681 
L 131.893295 138.048128 
L 127.188242 139.583023 
L 122.605588 141.404334 
L 118.152678 143.502269 
L 113.829512 145.871932 
L 109.640986 148.496187 
L 105.5871 151.372585 
L 101.677646 154.488888 
L 97.97872 157.854886 
L 94.576002 161.48282 
L 93.009283 163.399603 
L 91.550275 165.38493 
L 90.208772 167.441249 
L 88.989669 169.56856 
L 87.910101 171.771759 
L 86.962726 174.041054 
L 86.145094 176.369101 
L 85.454758 178.746108 
L 84.879479 181.164731 
L 84.071639 186.092552 
L 83.677511 191.084022 
L 83.660375 196.068147 
L 83.981063 201.008209 
L 84.607751 205.901758 
L 85.515958 210.746348 
L 86.671414 215.539529 
L 88.042293 220.281303 
L 89.604116 224.969221 
L 92.225923 231.892161 
L 95.102322 238.685358 
L 96.098657 240.920381 
L 96.098657 240.920381 
" style="fill:none;stroke:#fea952;stroke-linecap:square;"/>
   </g>
   <g id="line2d_15">
    <path clip-path="url(#p873c853b36)" d="M 377.49476 200.951445 
L 378.025069 198.997393 
L 378.427214 197.057054 
L 378.706391 195.128869 
L 378.918838 191.288172 
L 378.687016 187.427688 
L 378.040768 183.557326 
L 376.992825 179.658636 
L 375.574484 175.75462 
L 373.816548 171.862812 
L 371.746861 167.999328 
L 369.418807 164.193387 
L 366.88125 160.483251 
L 364.1859 156.918573 
L 361.336757 153.511542 
L 358.332076 150.267061 
L 355.165745 147.179038 
L 351.848628 144.268838 
L 348.393188 141.556114 
L 344.83103 139.086054 
L 341.165741 136.873772 
L 337.429178 134.959102 
L 333.550034 133.323853 
L 329.417298 131.908239 
L 325.035824 130.660301 
L 318.087154 128.979424 
L 303.909768 125.84828 
L 297.182005 124.642124 
L 292.814535 124.087438 
L 288.487248 123.783779 
L 284.174768 123.747064 
L 279.901123 123.996779 
L 275.72771 124.53593 
L 271.672284 125.379693 
L 267.690569 126.555598 
L 263.663897 128.081646 
L 259.589817 129.907874 
L 255.436884 131.99234 
L 246.866272 136.661395 
L 240.09814 140.327774 
L 235.346419 142.70545 
L 230.35229 144.931482 
L 225.100574 146.895074 
L 219.69501 148.491318 
L 214.168175 149.705502 
L 208.578547 150.52146 
L 202.937355 150.936958 
L 197.296167 150.941344 
L 191.826937 150.56806 
L 186.530063 149.921235 
L 178.926516 148.653301 
L 164.698343 146.089806 
L 160.205805 145.477782 
L 155.848386 145.077818 
L 151.630274 144.936454 
L 147.417679 145.099494 
L 143.192406 145.571791 
L 138.968653 146.346356 
L 134.779788 147.405015 
L 130.655158 148.740734 
L 126.646537 150.323634 
L 122.732892 152.157026 
L 118.908809 154.243546 
L 115.194581 156.560972 
L 111.57685 159.118944 
L 108.141977 161.843859 
L 104.979207 164.701517 
L 102.157607 167.67979 
L 99.751377 170.735173 
L 97.782785 173.877187 
L 96.946268 175.54414 
L 96.201493 177.285795 
L 95.548549 179.100073 
L 94.505278 182.961162 
L 93.815794 187.05931 
L 93.46723 191.295172 
L 93.440912 195.594584 
L 93.711378 199.910878 
L 94.255795 204.228912 
L 95.062733 208.568672 
L 96.10548 212.916257 
L 97.360504 217.272297 
L 98.811945 221.637696 
L 101.281575 228.166797 
L 104.045911 234.698457 
L 105.042246 236.93348 
L 105.042246 236.93348 
" style="fill:none;stroke:#ffffff;stroke-linecap:square;"/>
   </g>
   <g id="line2d_16">
    <path clip-path="url(#p873c853b36)" d="M 396.440088 205.91201 
L 397.236594 202.798704 
L 397.833233 199.69127 
L 398.234599 196.605953 
L 398.449438 193.549487 
L 398.487273 190.507776 
L 398.35381 187.522575 
L 398.063031 184.581161 
L 397.623411 181.675427 
L 397.04464 178.825991 
L 396.336332 176.023551 
L 395.512392 173.290093 
L 394.575438 170.590971 
L 392.416856 165.383702 
L 389.91964 160.381387 
L 387.163542 155.619118 
L 384.187636 151.053829 
L 381.014174 146.663697 
L 377.62854 142.425772 
L 374.032755 138.358998 
L 370.237726 134.486605 
L 366.217555 130.785452 
L 361.979556 127.288544 
L 357.497714 124.000061 
L 352.803585 120.986991 
L 347.862546 118.261137 
L 342.73591 115.905274 
L 337.554552 113.963308 
L 332.409202 112.373157 
L 327.350551 111.041166 
L 317.574769 108.789821 
L 307.649321 106.624638 
L 302.49445 105.662112 
L 297.177623 104.876021 
L 291.683526 104.345322 
L 286.123376 104.148718 
L 280.496812 104.312698 
L 274.864223 104.867769 
L 272.036531 105.302941 
L 269.239724 105.847273 
L 266.446841 106.505705 
L 263.693144 107.276605 
L 258.405261 109.096548 
L 253.373904 111.203224 
L 248.579149 113.501283 
L 241.751743 117.112979 
L 229.129948 123.945379 
L 225.116181 125.864877 
L 221.16792 127.51136 
L 217.158976 128.874661 
L 213.039224 129.956113 
L 208.849746 130.74237 
L 204.63178 131.229453 
L 200.411827 131.410394 
L 196.14803 131.278695 
L 191.743039 130.861276 
L 187.195408 130.212783 
L 180.097043 128.953364 
L 170.098421 127.12554 
L 164.87895 126.330637 
L 159.508646 125.721921 
L 153.990821 125.390478 
L 148.352705 125.431411 
L 142.729798 125.883479 
L 137.170846 126.732098 
L 131.712637 127.948883 
L 126.342101 129.51859 
L 121.114318 131.417906 
L 116.058286 133.625329 
L 111.141968 136.138527 
L 106.402233 138.92961 
L 101.819226 141.997993 
L 97.395792 145.333941 
L 93.082906 149.014137 
L 90.978233 151.008256 
L 88.954532 153.089732 
L 86.994397 155.285851 
L 85.11885 157.600962 
L 83.349174 160.034688 
L 81.712962 162.572534 
L 80.196552 165.259933 
L 78.873934 167.999379 
L 77.723958 170.796313 
L 76.74164 173.638129 
L 75.928528 176.480253 
L 75.25368 179.368299 
L 74.726214 182.246255 
L 74.327485 185.125794 
L 74.049261 188.01017 
L 73.832727 193.725531 
L 74.0207 199.341038 
L 74.564886 204.851345 
L 75.42997 210.265501 
L 76.573902 215.56178 
L 77.953878 220.732027 
L 79.540176 225.812122 
L 81.289288 230.76533 
L 84.147688 237.992006 
L 87.155068 244.907282 
L 87.155068 244.907282 
" style="fill:none;stroke:#ffffff;stroke-linecap:square;"/>
   </g>
   <g id="patch_3">
    <path d="M 57.6 307.584 
L 57.6 41.472 
" style="fill:none;stroke:#000000;stroke-linecap:square;stroke-linejoin:miter;stroke-width:0.8;"/>
   </g>
   <g id="patch_4">
    <path d="M 414.72 307.584 
L 414.72 41.472 
" style="fill:none;stroke:#000000;stroke-linecap:square;stroke-linejoin:miter;stroke-width:0.8;"/>
   </g>
   <g id="patch_5">
    <path d="M 57.6 307.584 
L 414.72 307.584 
" style="fill:none;stroke:#000000;stroke-linecap:square;stroke-linejoin:miter;stroke-width:0.8;"/>
   </g>
   <g id="patch_6">
    <path d="M 57.6 41.472 
L 414.72 41.472 
" style="fill:none;stroke:#000000;stroke-linecap:square;stroke-linejoin:miter;stroke-width:0.8;"/>
   </g>
  </g>
 </g>
 <defs>
  <clipPath id="p873c853b36">
   <rect height="266.112" width="357.12" x="57.6" y="41.472"/>
  </clipPath>
 </defs>
</svg>
