<?xml version="1.0" encoding="utf-8" standalone="no"?>
<!DOCTYPE svg PUBLIC "-//W3C//DTD SVG 1.1//EN"
  "http://www.w3.org/Graphics/SVG/1.1/DTD/svg11.dtd">
<!-- Created with matplotlib (https://matplotlib.org/) -->
<svg height="345.6pt" version="1.1" viewBox="0 0 460.8 345.6" width="460.8pt" xmlns="http://www.w3.org/2000/svg" xmlns:xlink="http://www.w3.org/1999/xlink">
 <metadata>
  <rdf:RDF xmlns:cc="http://creativecommons.org/ns#" xmlns:dc="http://purl.org/dc/elements/1.1/" xmlns:rdf="http://www.w3.org/1999/02/22-rdf-syntax-ns#">
   <cc:Work>
    <dc:type rdf:resource="http://purl.org/dc/dcmitype/StillImage"/>
    <dc:date>2021-01-25T11:37:54.095325</dc:date>
    <dc:format>image/svg+xml</dc:format>
    <dc:creator>
     <cc:Agent>
      <dc:title>Matplotlib v3.3.3, https://matplotlib.org/</dc:title>
     </cc:Agent>
    </dc:creator>
   </cc:Work>
  </rdf:RDF>
 </metadata>
 <defs>
  <style type="text/css">*{stroke-linecap:butt;stroke-linejoin:round;}</style>
 </defs>
 <g id="figure_1">
  <g id="patch_1">
   <path d="M 0 345.6 
L 460.8 345.6 
L 460.8 0 
L 0 0 
z
" style="fill:#ffffff;"/>
  </g>
  <g id="axes_1">
   <g id="patch_2">
    <path d="M 57.6 307.584 
L 414.72 307.584 
L 414.72 41.472 
L 57.6 41.472 
z
" style="fill:#7d9051;"/>
   </g>
   <g id="matplotlib.axis_1">
    <g id="xtick_1">
     <g id="line2d_1">
      <defs>
       <path d="M 0 0 
L 0 3.5 
" id="m540dc25c59" style="stroke:#000000;stroke-width:0.8;"/>
      </defs>
      <g>
       <use style="stroke:#000000;stroke-width:0.8;" x="80.961738" xlink:href="#m540dc25c59" y="307.584"/>
      </g>
     </g>
     <g id="text_1">
      <!-- 0 -->
      <g transform="translate(77.780488 322.182437)scale(0.1 -0.1)">
       <defs>
        <path d="M 31.78125 66.40625 
Q 24.171875 66.40625 20.328125 58.90625 
Q 16.5 51.421875 16.5 36.375 
Q 16.5 21.390625 20.328125 13.890625 
Q 24.171875 6.390625 31.78125 6.390625 
Q 39.453125 6.390625 43.28125 13.890625 
Q 47.125 21.390625 47.125 36.375 
Q 47.125 51.421875 43.28125 58.90625 
Q 39.453125 66.40625 31.78125 66.40625 
z
M 31.78125 74.21875 
Q 44.046875 74.21875 50.515625 64.515625 
Q 56.984375 54.828125 56.984375 36.375 
Q 56.984375 17.96875 50.515625 8.265625 
Q 44.046875 -1.421875 31.78125 -1.421875 
Q 19.53125 -1.421875 13.0625 8.265625 
Q 6.59375 17.96875 6.59375 36.375 
Q 6.59375 54.828125 13.0625 64.515625 
Q 19.53125 74.21875 31.78125 74.21875 
z
" id="DejaVuSans-48"/>
       </defs>
       <use xlink:href="#DejaVuSans-48"/>
      </g>
     </g>
    </g>
    <g id="xtick_2">
     <g id="line2d_2">
      <g>
       <use style="stroke:#000000;stroke-width:0.8;" x="122.718174" xlink:href="#m540dc25c59" y="307.584"/>
      </g>
     </g>
     <g id="text_2">
      <!-- 10 -->
      <g transform="translate(116.355674 322.182437)scale(0.1 -0.1)">
       <defs>
        <path d="M 12.40625 8.296875 
L 28.515625 8.296875 
L 28.515625 63.921875 
L 10.984375 60.40625 
L 10.984375 69.390625 
L 28.421875 72.90625 
L 38.28125 72.90625 
L 38.28125 8.296875 
L 54.390625 8.296875 
L 54.390625 0 
L 12.40625 0 
z
" id="DejaVuSans-49"/>
       </defs>
       <use xlink:href="#DejaVuSans-49"/>
       <use x="63.623047" xlink:href="#DejaVuSans-48"/>
      </g>
     </g>
    </g>
    <g id="xtick_3">
     <g id="line2d_3">
      <g>
       <use style="stroke:#000000;stroke-width:0.8;" x="164.47461" xlink:href="#m540dc25c59" y="307.584"/>
      </g>
     </g>
     <g id="text_3">
      <!-- 20 -->
      <g transform="translate(158.11211 322.182437)scale(0.1 -0.1)">
       <defs>
        <path d="M 19.1875 8.296875 
L 53.609375 8.296875 
L 53.609375 0 
L 7.328125 0 
L 7.328125 8.296875 
Q 12.9375 14.109375 22.625 23.890625 
Q 32.328125 33.6875 34.8125 36.53125 
Q 39.546875 41.84375 41.421875 45.53125 
Q 43.3125 49.21875 43.3125 52.78125 
Q 43.3125 58.59375 39.234375 62.25 
Q 35.15625 65.921875 28.609375 65.921875 
Q 23.96875 65.921875 18.8125 64.3125 
Q 13.671875 62.703125 7.8125 59.421875 
L 7.8125 69.390625 
Q 13.765625 71.78125 18.9375 73 
Q 24.125 74.21875 28.421875 74.21875 
Q 39.75 74.21875 46.484375 68.546875 
Q 53.21875 62.890625 53.21875 53.421875 
Q 53.21875 48.921875 51.53125 44.890625 
Q 49.859375 40.875 45.40625 35.40625 
Q 44.1875 33.984375 37.640625 27.21875 
Q 31.109375 20.453125 19.1875 8.296875 
z
" id="DejaVuSans-50"/>
       </defs>
       <use xlink:href="#DejaVuSans-50"/>
       <use x="63.623047" xlink:href="#DejaVuSans-48"/>
      </g>
     </g>
    </g>
    <g id="xtick_4">
     <g id="line2d_4">
      <g>
       <use style="stroke:#000000;stroke-width:0.8;" x="206.231046" xlink:href="#m540dc25c59" y="307.584"/>
      </g>
     </g>
     <g id="text_4">
      <!-- 30 -->
      <g transform="translate(199.868546 322.182437)scale(0.1 -0.1)">
       <defs>
        <path d="M 40.578125 39.3125 
Q 47.65625 37.796875 51.625 33 
Q 55.609375 28.21875 55.609375 21.1875 
Q 55.609375 10.40625 48.1875 4.484375 
Q 40.765625 -1.421875 27.09375 -1.421875 
Q 22.515625 -1.421875 17.65625 -0.515625 
Q 12.796875 0.390625 7.625 2.203125 
L 7.625 11.71875 
Q 11.71875 9.328125 16.59375 8.109375 
Q 21.484375 6.890625 26.8125 6.890625 
Q 36.078125 6.890625 40.9375 10.546875 
Q 45.796875 14.203125 45.796875 21.1875 
Q 45.796875 27.640625 41.28125 31.265625 
Q 36.765625 34.90625 28.71875 34.90625 
L 20.21875 34.90625 
L 20.21875 43.015625 
L 29.109375 43.015625 
Q 36.375 43.015625 40.234375 45.921875 
Q 44.09375 48.828125 44.09375 54.296875 
Q 44.09375 59.90625 40.109375 62.90625 
Q 36.140625 65.921875 28.71875 65.921875 
Q 24.65625 65.921875 20.015625 65.03125 
Q 15.375 64.15625 9.8125 62.3125 
L 9.8125 71.09375 
Q 15.4375 72.65625 20.34375 73.4375 
Q 25.25 74.21875 29.59375 74.21875 
Q 40.828125 74.21875 47.359375 69.109375 
Q 53.90625 64.015625 53.90625 55.328125 
Q 53.90625 49.265625 50.4375 45.09375 
Q 46.96875 40.921875 40.578125 39.3125 
z
" id="DejaVuSans-51"/>
       </defs>
       <use xlink:href="#DejaVuSans-51"/>
       <use x="63.623047" xlink:href="#DejaVuSans-48"/>
      </g>
     </g>
    </g>
    <g id="xtick_5">
     <g id="line2d_5">
      <g>
       <use style="stroke:#000000;stroke-width:0.8;" x="247.987482" xlink:href="#m540dc25c59" y="307.584"/>
      </g>
     </g>
     <g id="text_5">
      <!-- 40 -->
      <g transform="translate(241.624982 322.182437)scale(0.1 -0.1)">
       <defs>
        <path d="M 37.796875 64.3125 
L 12.890625 25.390625 
L 37.796875 25.390625 
z
M 35.203125 72.90625 
L 47.609375 72.90625 
L 47.609375 25.390625 
L 58.015625 25.390625 
L 58.015625 17.1875 
L 47.609375 17.1875 
L 47.609375 0 
L 37.796875 0 
L 37.796875 17.1875 
L 4.890625 17.1875 
L 4.890625 26.703125 
z
" id="DejaVuSans-52"/>
       </defs>
       <use xlink:href="#DejaVuSans-52"/>
       <use x="63.623047" xlink:href="#DejaVuSans-48"/>
      </g>
     </g>
    </g>
    <g id="xtick_6">
     <g id="line2d_6">
      <g>
       <use style="stroke:#000000;stroke-width:0.8;" x="289.743918" xlink:href="#m540dc25c59" y="307.584"/>
      </g>
     </g>
     <g id="text_6">
      <!-- 50 -->
      <g transform="translate(283.381418 322.182437)scale(0.1 -0.1)">
       <defs>
        <path d="M 10.796875 72.90625 
L 49.515625 72.90625 
L 49.515625 64.59375 
L 19.828125 64.59375 
L 19.828125 46.734375 
Q 21.96875 47.46875 24.109375 47.828125 
Q 26.265625 48.1875 28.421875 48.1875 
Q 40.625 48.1875 47.75 41.5 
Q 54.890625 34.8125 54.890625 23.390625 
Q 54.890625 11.625 47.5625 5.09375 
Q 40.234375 -1.421875 26.90625 -1.421875 
Q 22.3125 -1.421875 17.546875 -0.640625 
Q 12.796875 0.140625 7.71875 1.703125 
L 7.71875 11.625 
Q 12.109375 9.234375 16.796875 8.0625 
Q 21.484375 6.890625 26.703125 6.890625 
Q 35.15625 6.890625 40.078125 11.328125 
Q 45.015625 15.765625 45.015625 23.390625 
Q 45.015625 31 40.078125 35.4375 
Q 35.15625 39.890625 26.703125 39.890625 
Q 22.75 39.890625 18.8125 39.015625 
Q 14.890625 38.140625 10.796875 36.28125 
z
" id="DejaVuSans-53"/>
       </defs>
       <use xlink:href="#DejaVuSans-53"/>
       <use x="63.623047" xlink:href="#DejaVuSans-48"/>
      </g>
     </g>
    </g>
    <g id="xtick_7">
     <g id="line2d_7">
      <g>
       <use style="stroke:#000000;stroke-width:0.8;" x="331.500354" xlink:href="#m540dc25c59" y="307.584"/>
      </g>
     </g>
     <g id="text_7">
      <!-- 60 -->
      <g transform="translate(325.137854 322.182437)scale(0.1 -0.1)">
       <defs>
        <path d="M 33.015625 40.375 
Q 26.375 40.375 22.484375 35.828125 
Q 18.609375 31.296875 18.609375 23.390625 
Q 18.609375 15.53125 22.484375 10.953125 
Q 26.375 6.390625 33.015625 6.390625 
Q 39.65625 6.390625 43.53125 10.953125 
Q 47.40625 15.53125 47.40625 23.390625 
Q 47.40625 31.296875 43.53125 35.828125 
Q 39.65625 40.375 33.015625 40.375 
z
M 52.59375 71.296875 
L 52.59375 62.3125 
Q 48.875 64.0625 45.09375 64.984375 
Q 41.3125 65.921875 37.59375 65.921875 
Q 27.828125 65.921875 22.671875 59.328125 
Q 17.53125 52.734375 16.796875 39.40625 
Q 19.671875 43.65625 24.015625 45.921875 
Q 28.375 48.1875 33.59375 48.1875 
Q 44.578125 48.1875 50.953125 41.515625 
Q 57.328125 34.859375 57.328125 23.390625 
Q 57.328125 12.15625 50.6875 5.359375 
Q 44.046875 -1.421875 33.015625 -1.421875 
Q 20.359375 -1.421875 13.671875 8.265625 
Q 6.984375 17.96875 6.984375 36.375 
Q 6.984375 53.65625 15.1875 63.9375 
Q 23.390625 74.21875 37.203125 74.21875 
Q 40.921875 74.21875 44.703125 73.484375 
Q 48.484375 72.75 52.59375 71.296875 
z
" id="DejaVuSans-54"/>
       </defs>
       <use xlink:href="#DejaVuSans-54"/>
       <use x="63.623047" xlink:href="#DejaVuSans-48"/>
      </g>
     </g>
    </g>
    <g id="xtick_8">
     <g id="line2d_8">
      <g>
       <use style="stroke:#000000;stroke-width:0.8;" x="373.25679" xlink:href="#m540dc25c59" y="307.584"/>
      </g>
     </g>
     <g id="text_8">
      <!-- 70 -->
      <g transform="translate(366.89429 322.182437)scale(0.1 -0.1)">
       <defs>
        <path d="M 8.203125 72.90625 
L 55.078125 72.90625 
L 55.078125 68.703125 
L 28.609375 0 
L 18.3125 0 
L 43.21875 64.59375 
L 8.203125 64.59375 
z
" id="DejaVuSans-55"/>
       </defs>
       <use xlink:href="#DejaVuSans-55"/>
       <use x="63.623047" xlink:href="#DejaVuSans-48"/>
      </g>
     </g>
    </g>
   </g>
   <g id="matplotlib.axis_2">
    <g id="ytick_1">
     <g id="line2d_9">
      <defs>
       <path d="M 0 0 
L -3.5 0 
" id="m70ec7240d6" style="stroke:#000000;stroke-width:0.8;"/>
      </defs>
      <g>
       <use style="stroke:#000000;stroke-width:0.8;" x="57.6" xlink:href="#m70ec7240d6" y="293.926397"/>
      </g>
     </g>
     <g id="text_9">
      <!-- 10 -->
      <g transform="translate(37.875 297.725616)scale(0.1 -0.1)">
       <use xlink:href="#DejaVuSans-49"/>
       <use x="63.623047" xlink:href="#DejaVuSans-48"/>
      </g>
     </g>
    </g>
    <g id="ytick_2">
     <g id="line2d_10">
      <g>
       <use style="stroke:#000000;stroke-width:0.8;" x="57.6" xlink:href="#m70ec7240d6" y="252.169961"/>
      </g>
     </g>
     <g id="text_10">
      <!-- 20 -->
      <g transform="translate(37.875 255.96918)scale(0.1 -0.1)">
       <use xlink:href="#DejaVuSans-50"/>
       <use x="63.623047" xlink:href="#DejaVuSans-48"/>
      </g>
     </g>
    </g>
    <g id="ytick_3">
     <g id="line2d_11">
      <g>
       <use style="stroke:#000000;stroke-width:0.8;" x="57.6" xlink:href="#m70ec7240d6" y="210.413525"/>
      </g>
     </g>
     <g id="text_11">
      <!-- 30 -->
      <g transform="translate(37.875 214.212744)scale(0.1 -0.1)">
       <use xlink:href="#DejaVuSans-51"/>
       <use x="63.623047" xlink:href="#DejaVuSans-48"/>
      </g>
     </g>
    </g>
    <g id="ytick_4">
     <g id="line2d_12">
      <g>
       <use style="stroke:#000000;stroke-width:0.8;" x="57.6" xlink:href="#m70ec7240d6" y="168.657089"/>
      </g>
     </g>
     <g id="text_12">
      <!-- 40 -->
      <g transform="translate(37.875 172.456308)scale(0.1 -0.1)">
       <use xlink:href="#DejaVuSans-52"/>
       <use x="63.623047" xlink:href="#DejaVuSans-48"/>
      </g>
     </g>
    </g>
    <g id="ytick_5">
     <g id="line2d_13">
      <g>
       <use style="stroke:#000000;stroke-width:0.8;" x="57.6" xlink:href="#m70ec7240d6" y="126.900653"/>
      </g>
     </g>
     <g id="text_13">
      <!-- 50 -->
      <g transform="translate(37.875 130.699872)scale(0.1 -0.1)">
       <use xlink:href="#DejaVuSans-53"/>
       <use x="63.623047" xlink:href="#DejaVuSans-48"/>
      </g>
     </g>
    </g>
    <g id="ytick_6">
     <g id="line2d_14">
      <g>
       <use style="stroke:#000000;stroke-width:0.8;" x="57.6" xlink:href="#m70ec7240d6" y="85.144217"/>
      </g>
     </g>
     <g id="text_14">
      <!-- 60 -->
      <g transform="translate(37.875 88.943436)scale(0.1 -0.1)">
       <use xlink:href="#DejaVuSans-54"/>
       <use x="63.623047" xlink:href="#DejaVuSans-48"/>
      </g>
     </g>
    </g>
    <g id="ytick_7">
     <g id="line2d_15">
      <g>
       <use style="stroke:#000000;stroke-width:0.8;" x="57.6" xlink:href="#m70ec7240d6" y="43.387781"/>
      </g>
     </g>
     <g id="text_15">
      <!-- 70 -->
      <g transform="translate(37.875 47.187)scale(0.1 -0.1)">
       <use xlink:href="#DejaVuSans-55"/>
       <use x="63.623047" xlink:href="#DejaVuSans-48"/>
      </g>
     </g>
    </g>
   </g>
   <g id="line2d_16">
    <path clip-path="url(#p2840b318f8)" d="M 122.718174 293.926397 
L 122.029193 285.566758 
L 121.707669 277.202944 
L 121.732723 268.847481 
L 122.087652 260.50037 
L 122.75158 252.169961 
L 123.703626 243.864606 
L 124.922914 235.596831 
L 126.392741 227.362462 
L 128.092228 219.178201 
L 130.000497 211.048223 
L 132.092494 202.972528 
L 135.487293 190.929972 
L 145.00776 158.815097 
L 147.579956 150.835442 
L 150.469502 142.997759 
L 152.072949 139.147816 
L 153.814192 135.364682 
L 155.705759 131.644184 
L 157.760176 128.007198 
L 159.977442 124.44955 
L 162.349208 120.983766 
L 164.862945 117.609846 
L 167.514479 114.336141 
L 170.295458 111.171003 
L 173.201706 108.114432 
L 176.21652 105.174779 
L 179.339902 102.360395 
L 182.559323 99.671281 
L 185.870608 97.111611 
L 189.265406 94.681387 
L 192.743718 92.376432 
L 196.29719 90.184219 
L 199.917473 88.100573 
L 203.604567 86.121317 
L 211.158306 82.455102 
L 218.916652 79.135466 
L 226.842023 76.145705 
L 230.858992 74.813675 
L 234.909367 73.611089 
L 238.98897 72.563003 
L 243.093628 71.681942 
L 247.22334 70.997136 
L 251.373929 70.516937 
L 255.541222 70.270574 
L 259.721041 70.270574 
L 263.913387 70.537816 
L 268.101558 71.059771 
L 272.260499 71.840616 
L 276.381859 72.863649 
L 280.44476 74.124693 
L 284.428324 75.615398 
L 288.320024 77.327412 
L 292.098981 79.252384 
L 295.748494 81.390313 
L 299.251859 83.724498 
L 302.596549 86.246587 
L 305.786741 88.944053 
L 308.834961 91.804368 
L 311.74956 94.802481 
L 314.543066 97.930038 
L 317.228004 101.161986 
L 319.812728 104.485798 
L 324.731636 111.350556 
L 329.383303 118.38234 
L 333.767729 125.539393 
L 337.818103 132.855121 
L 339.692967 136.588146 
L 341.459264 140.371279 
L 343.096117 144.212871 
L 344.6077 148.117098 
L 345.973135 152.092311 
L 347.188247 156.134334 
L 348.240509 160.238991 
L 349.12157 164.389581 
L 349.814727 168.573576 
L 350.307453 172.782625 
L 350.591397 177.000025 
L 350.654031 181.213249 
L 350.48283 185.409771 
L 350.069441 189.577063 
L 349.397163 193.706775 
L 348.457643 197.782203 
L 347.263409 201.794996 
L 345.826987 205.736804 
L 344.160906 209.60345 
L 342.273515 213.382407 
L 340.177342 217.061149 
L 337.889089 220.639676 
L 335.417108 224.109636 
L 332.778101 227.454326 
L 329.98042 230.673748 
L 327.036591 233.755373 
L 323.950791 236.69085 
L 320.735545 239.463477 
L 317.390855 242.069079 
L 313.929246 244.490952 
L 310.350719 246.720746 
L 306.659451 248.745933 
L 302.867966 250.553987 
L 298.980442 252.136556 
L 294.996878 253.476937 
L 290.933977 254.570956 
L 286.80009 255.418611 
L 282.616095 256.019904 
L 278.394519 256.37901 
L 274.152065 256.495928 
L 269.909611 256.374834 
L 265.679684 256.015729 
L 261.478987 255.426963 
L 257.328397 254.600185 
L 253.240442 253.547923 
L 249.231824 252.266001 
L 245.310895 250.766945 
L 241.473478 249.054931 
L 237.732102 247.142486 
L 234.09094 245.042137 
L 230.55417 242.749709 
L 227.121791 240.286079 
L 223.802155 237.655424 
L 220.599436 234.870269 
L 217.513635 231.930616 
L 214.561455 228.853167 
L 211.747072 225.642097 
L 209.091362 222.301582 
L 206.61103 218.844149 
L 204.314426 215.273974 
L 202.23078 211.599408 
L 200.364267 207.828801 
L 198.735766 203.962155 
L 197.361979 200.016172 
L 196.255434 195.990852 
L 195.432832 191.898721 
L 194.885823 187.752307 
L 194.61023 183.564136 
L 194.597703 179.355088 
L 194.844066 175.129336 
L 195.336792 170.911936 
L 196.06753 166.711239 
L 197.036279 162.543947 
L 198.226338 158.426762 
L 199.637705 154.372212 
L 201.257855 150.396999 
L 203.082611 146.513651 
L 205.103623 142.734693 
L 207.312538 139.081005 
L 209.705182 135.560938 
L 212.269027 132.195369 
L 214.999898 128.996826 
L 217.889443 125.977836 
L 220.929312 123.155101 
L 224.111152 120.541148 
L 224.111152 120.541148 
" style="fill:none;stroke:#fea952;stroke-linecap:square;"/>
   </g>
   <g id="line2d_17">
    <path clip-path="url(#p2840b318f8)" d="M 106.088761 295.488 
L 105.346594 286.383389 
L 105.005503 277.319743 
L 105.039235 268.296596 
L 105.427186 259.315106 
L 106.142986 250.400603 
L 107.160678 241.560946 
L 108.45993 232.777941 
L 110.017092 224.073978 
L 111.810099 215.454186 
L 113.811468 206.938314 
L 115.984259 198.556563 
L 119.458637 186.233358 
L 129.071709 153.813271 
L 131.833906 145.264276 
L 133.380613 140.910081 
L 135.050751 136.576067 
L 136.900346 132.164399 
L 138.925423 127.794971 
L 141.162942 123.429413 
L 143.585216 119.172805 
L 146.193501 115.016684 
L 148.955389 111.004708 
L 151.883654 107.097282 
L 154.967096 103.31166 
L 158.191056 99.6619 
L 161.541212 96.155801 
L 165.035757 92.766454 
L 168.632463 89.541396 
L 172.344204 86.456617 
L 176.148217 83.530334 
L 180.039092 80.758344 
L 183.974103 78.161304 
L 187.96548 75.70808 
L 192.017676 73.384283 
L 196.121648 71.188738 
L 200.251979 69.124966 
L 208.608954 65.331023 
L 217.148035 61.900089 
L 221.584932 60.292031 
L 226.104994 58.801945 
L 230.75329 57.433852 
L 235.483623 56.232402 
L 240.361251 55.204378 
L 245.303753 54.405235 
L 250.388224 53.843474 
L 255.541222 53.568 
L 260.78359 53.601832 
L 265.978985 53.963459 
L 271.183631 54.644022 
L 276.284411 55.629999 
L 281.333004 56.911779 
L 286.298642 58.481546 
L 291.153996 60.326797 
L 295.90126 62.444508 
L 300.541567 64.840627 
L 305.009592 67.490383 
L 309.308 70.388456 
L 313.380957 73.492272 
L 317.215867 76.764108 
L 320.811085 80.161841 
L 324.206573 83.675989 
L 327.390651 87.256915 
L 330.41311 90.908744 
L 333.27914 94.604921 
L 338.588182 102.024671 
L 343.540527 109.519553 
L 348.281914 117.274139 
L 350.547662 121.26267 
L 352.743959 125.358801 
L 354.827278 129.522127 
L 356.825141 133.824079 
L 358.672043 138.182406 
L 360.404375 142.691139 
L 361.968568 147.283766 
L 363.367631 151.986618 
L 364.579032 156.770754 
L 365.599547 161.659697 
L 366.40402 166.631575 
L 366.9723 171.660635 
L 367.292126 176.751748 
L 367.342724 181.894081 
L 367.103827 187.058547 
L 366.555004 192.260759 
L 365.672847 197.458854 
L 364.466314 202.54649 
L 362.956492 207.513662 
L 361.166194 212.346246 
L 359.103443 217.066463 
L 356.785536 221.651459 
L 354.24902 226.059142 
L 351.492689 230.330809 
L 348.529603 234.455575 
L 345.385476 238.410151 
L 342.057861 242.21114 
L 338.548655 245.856959 
L 334.858513 249.339865 
L 331.00018 252.639716 
L 326.965828 255.754687 
L 322.762255 258.666774 
L 318.384737 261.364193 
L 313.848826 263.822036 
L 309.165573 266.023833 
L 304.307042 267.967011 
L 299.339699 269.605046 
L 294.289041 270.933093 
L 289.176049 271.951331 
L 284.031775 272.662375 
L 278.854651 273.075245 
L 273.675513 273.191702 
L 268.496706 273.017541 
L 263.361328 272.556624 
L 258.21602 271.807715 
L 253.164786 270.775485 
L 248.152909 269.45682 
L 243.267135 267.867234 
L 238.505784 266.020352 
L 233.871367 263.927183 
L 229.386408 261.610567 
L 225.00627 259.058012 
L 220.814792 256.318809 
L 216.748129 253.376653 
L 212.841874 250.258925 
L 209.078785 246.96368 
L 205.460362 243.493254 
L 202.000598 239.862293 
L 198.672724 236.036203 
L 195.519882 232.037644 
L 192.563854 227.880345 
L 189.785177 223.512719 
L 187.261824 219.009289 
L 184.97121 214.311839 
L 182.961815 209.453827 
L 181.25684 204.443415 
L 179.880433 199.282561 
L 178.873732 194.083255 
L 178.219292 188.849008 
L 177.90773 183.613846 
L 177.923442 178.382972 
L 178.25433 173.19113 
L 178.88134 168.049407 
L 179.798754 162.929319 
L 180.990554 157.905984 
L 182.452125 152.935841 
L 184.17042 148.068318 
L 186.141003 143.293705 
L 188.354065 138.636727 
L 190.810191 134.093293 
L 193.498908 129.69167 
L 196.418668 125.439449 
L 199.566441 121.35008 
L 202.933544 117.44784 
L 206.524158 113.738298 
L 210.326807 110.249176 
L 213.508647 107.635223 
L 213.508647 107.635223 
" style="fill:none;stroke:#ffffff;stroke-linecap:square;"/>
   </g>
   <g id="line2d_18">
    <path clip-path="url(#p2840b318f8)" d="M 139.347588 292.364794 
L 138.711792 284.750128 
L 138.409835 277.086146 
L 138.42621 269.398366 
L 138.748119 261.685633 
L 139.360173 253.939318 
L 140.246575 246.168265 
L 141.385899 238.415721 
L 142.768389 230.650946 
L 144.374356 222.902216 
L 146.189525 215.158131 
L 148.20073 207.388493 
L 151.515949 195.626585 
L 160.943811 163.816923 
L 163.326007 156.406608 
L 165.888252 149.419451 
L 167.245552 146.131232 
L 168.702962 142.934394 
L 170.248576 139.858955 
L 171.935135 136.841592 
L 173.761383 133.882416 
L 175.743027 130.962824 
L 177.842236 128.122409 
L 180.061861 125.360622 
L 182.399859 122.680107 
L 184.8622 120.073064 
L 187.397283 117.583104 
L 190.047341 115.179395 
L 192.774441 112.885945 
L 195.592999 110.692889 
L 198.491721 108.60443 
L 201.513332 106.591559 
L 204.628901 104.660357 
L 211.087485 101.053897 
L 217.891175 97.740535 
L 224.991883 94.693986 
L 232.099115 91.999379 
L 239.065443 89.788327 
L 242.494318 88.893604 
L 245.826005 88.159506 
L 249.142926 87.589037 
L 252.359635 87.190401 
L 255.541222 86.973149 
L 258.658492 86.939317 
L 261.847789 87.112172 
L 265.019484 87.47552 
L 268.236586 88.051234 
L 271.430713 88.815519 
L 274.590878 89.767841 
L 277.702652 90.903999 
L 280.738787 92.210317 
L 283.656396 93.664141 
L 286.487396 95.290244 
L 289.195717 97.06054 
L 291.812142 99.000902 
L 294.357615 101.123998 
L 296.858837 103.446896 
L 299.292547 105.928972 
L 301.695481 108.60316 
L 304.042898 111.415228 
L 308.624154 117.463921 
L 313.083289 123.953617 
L 317.286355 130.530225 
L 321.130034 137.090088 
L 324.558656 143.654165 
L 326.093388 146.918479 
L 327.52019 150.243337 
L 328.811024 153.543057 
L 329.977702 156.900855 
L 331.008864 160.282049 
L 331.901987 163.707229 
L 332.643593 167.119465 
L 333.225435 170.515576 
L 333.642606 173.904614 
L 333.890668 177.248301 
L 333.965339 180.532417 
L 333.861833 183.760995 
L 333.583879 186.893367 
L 333.121479 189.954696 
L 332.448972 193.017916 
L 331.570326 196.076331 
L 330.487781 199.127362 
L 329.218368 202.140437 
L 327.761493 205.113355 
L 326.105664 208.063157 
L 324.285489 210.948543 
L 322.304613 213.763697 
L 320.170727 216.498501 
L 317.90298 219.136355 
L 315.524528 221.653787 
L 313.043068 224.041835 
L 310.47091 226.287239 
L 307.815881 228.383471 
L 305.096237 230.31513 
L 302.316701 232.077299 
L 299.470075 233.66983 
L 296.57036 235.08414 
L 293.653842 236.3061 
L 290.654057 237.348828 
L 287.578912 238.208819 
L 284.42413 238.885892 
L 281.200415 239.377433 
L 277.934387 239.682774 
L 274.628618 239.800153 
L 271.322516 239.732127 
L 267.99804 239.474833 
L 264.741954 239.046211 
L 261.492009 238.424885 
L 258.327975 237.639026 
L 255.196513 236.664767 
L 252.116006 235.513537 
L 249.07559 234.182678 
L 246.077796 232.674404 
L 243.175611 231.026262 
L 240.293549 229.180608 
L 237.495454 227.195505 
L 234.762435 225.051923 
L 232.120087 222.776858 
L 229.566909 220.367978 
L 227.122313 217.844041 
L 224.821419 215.247991 
L 222.662843 212.56552 
L 220.658206 209.807954 
L 218.843675 207.035229 
L 217.199736 204.189526 
L 215.757325 201.345764 
L 214.509717 198.470484 
L 213.467119 195.58893 
L 212.630434 192.699143 
L 211.991932 189.714187 
L 211.552353 186.655606 
L 211.312731 183.514427 
L 211.271964 180.327204 
L 211.433802 177.067543 
L 211.792245 173.774465 
L 212.336306 170.493159 
L 213.082004 167.18191 
L 214.00055 163.917683 
L 215.104991 160.676106 
L 216.374706 157.500294 
L 217.811157 154.390575 
L 219.397054 151.376094 
L 221.126168 148.470341 
L 222.991696 145.682426 
L 224.971613 143.040658 
L 227.066252 140.545812 
L 229.254728 138.217373 
L 231.531817 136.061025 
L 234.713657 133.447072 
L 234.713657 133.447072 
" style="fill:none;stroke:#ffffff;stroke-linecap:square;"/>
   </g>
   <g id="patch_3">
    <path d="M 57.6 307.584 
L 57.6 41.472 
" style="fill:none;stroke:#000000;stroke-linecap:square;stroke-linejoin:miter;stroke-width:0.8;"/>
   </g>
   <g id="patch_4">
    <path d="M 414.72 307.584 
L 414.72 41.472 
" style="fill:none;stroke:#000000;stroke-linecap:square;stroke-linejoin:miter;stroke-width:0.8;"/>
   </g>
   <g id="patch_5">
    <path d="M 57.6 307.584 
L 414.72 307.584 
" style="fill:none;stroke:#000000;stroke-linecap:square;stroke-linejoin:miter;stroke-width:0.8;"/>
   </g>
   <g id="patch_6">
    <path d="M 57.6 41.472 
L 414.72 41.472 
" style="fill:none;stroke:#000000;stroke-linecap:square;stroke-linejoin:miter;stroke-width:0.8;"/>
   </g>
  </g>
 </g>
 <defs>
  <clipPath id="p2840b318f8">
   <rect height="266.112" width="357.12" x="57.6" y="41.472"/>
  </clipPath>
 </defs>
</svg>
