<?xml version="1.0" encoding="utf-8" standalone="no"?>
<!DOCTYPE svg PUBLIC "-//W3C//DTD SVG 1.1//EN"
  "http://www.w3.org/Graphics/SVG/1.1/DTD/svg11.dtd">
<!-- Created with matplotlib (https://matplotlib.org/) -->
<svg height="345.6pt" version="1.1" viewBox="0 0 460.8 345.6" width="460.8pt" xmlns="http://www.w3.org/2000/svg" xmlns:xlink="http://www.w3.org/1999/xlink">
 <metadata>
  <rdf:RDF xmlns:cc="http://creativecommons.org/ns#" xmlns:dc="http://purl.org/dc/elements/1.1/" xmlns:rdf="http://www.w3.org/1999/02/22-rdf-syntax-ns#">
   <cc:Work>
    <dc:type rdf:resource="http://purl.org/dc/dcmitype/StillImage"/>
    <dc:date>2021-01-22T10:23:50.612337</dc:date>
    <dc:format>image/svg+xml</dc:format>
    <dc:creator>
     <cc:Agent>
      <dc:title>Matplotlib v3.3.3, https://matplotlib.org/</dc:title>
     </cc:Agent>
    </dc:creator>
   </cc:Work>
  </rdf:RDF>
 </metadata>
 <defs>
  <style type="text/css">*{stroke-linecap:butt;stroke-linejoin:round;}</style>
 </defs>
 <g id="figure_1">
  <g id="patch_1">
   <path d="M 0 345.6 
L 460.8 345.6 
L 460.8 0 
L 0 0 
z
" style="fill:#ffffff;"/>
  </g>
  <g id="axes_1">
   <g id="patch_2">
    <path d="M 57.6 307.584 
L 414.72 307.584 
L 414.72 41.472 
L 57.6 41.472 
z
" style="fill:#7d9051;"/>
   </g>
   <g id="matplotlib.axis_1">
    <g id="xtick_1">
     <g id="line2d_1">
      <defs>
       <path d="M 0 0 
L 0 3.5 
" id="maa41e21918" style="stroke:#000000;stroke-width:0.8;"/>
      </defs>
      <g>
       <use style="stroke:#000000;stroke-width:0.8;" x="88.715605" xlink:href="#maa41e21918" y="307.584"/>
      </g>
     </g>
     <g id="text_1">
      <!-- −20 -->
      <g transform="translate(78.163261 322.182437)scale(0.1 -0.1)">
       <defs>
        <path d="M 10.59375 35.5 
L 73.1875 35.5 
L 73.1875 27.203125 
L 10.59375 27.203125 
z
" id="DejaVuSans-8722"/>
        <path d="M 19.1875 8.296875 
L 53.609375 8.296875 
L 53.609375 0 
L 7.328125 0 
L 7.328125 8.296875 
Q 12.9375 14.109375 22.625 23.890625 
Q 32.328125 33.6875 34.8125 36.53125 
Q 39.546875 41.84375 41.421875 45.53125 
Q 43.3125 49.21875 43.3125 52.78125 
Q 43.3125 58.59375 39.234375 62.25 
Q 35.15625 65.921875 28.609375 65.921875 
Q 23.96875 65.921875 18.8125 64.3125 
Q 13.671875 62.703125 7.8125 59.421875 
L 7.8125 69.390625 
Q 13.765625 71.78125 18.9375 73 
Q 24.125 74.21875 28.421875 74.21875 
Q 39.75 74.21875 46.484375 68.546875 
Q 53.21875 62.890625 53.21875 53.421875 
Q 53.21875 48.921875 51.53125 44.890625 
Q 49.859375 40.875 45.40625 35.40625 
Q 44.1875 33.984375 37.640625 27.21875 
Q 31.109375 20.453125 19.1875 8.296875 
z
" id="DejaVuSans-50"/>
        <path d="M 31.78125 66.40625 
Q 24.171875 66.40625 20.328125 58.90625 
Q 16.5 51.421875 16.5 36.375 
Q 16.5 21.390625 20.328125 13.890625 
Q 24.171875 6.390625 31.78125 6.390625 
Q 39.453125 6.390625 43.28125 13.890625 
Q 47.125 21.390625 47.125 36.375 
Q 47.125 51.421875 43.28125 58.90625 
Q 39.453125 66.40625 31.78125 66.40625 
z
M 31.78125 74.21875 
Q 44.046875 74.21875 50.515625 64.515625 
Q 56.984375 54.828125 56.984375 36.375 
Q 56.984375 17.96875 50.515625 8.265625 
Q 44.046875 -1.421875 31.78125 -1.421875 
Q 19.53125 -1.421875 13.0625 8.265625 
Q 6.59375 17.96875 6.59375 36.375 
Q 6.59375 54.828125 13.0625 64.515625 
Q 19.53125 74.21875 31.78125 74.21875 
z
" id="DejaVuSans-48"/>
       </defs>
       <use xlink:href="#DejaVuSans-8722"/>
       <use x="83.789062" xlink:href="#DejaVuSans-50"/>
       <use x="147.412109" xlink:href="#DejaVuSans-48"/>
      </g>
     </g>
    </g>
    <g id="xtick_2">
     <g id="line2d_2">
      <g>
       <use style="stroke:#000000;stroke-width:0.8;" x="140.054813" xlink:href="#maa41e21918" y="307.584"/>
      </g>
     </g>
     <g id="text_2">
      <!-- 0 -->
      <g transform="translate(136.873563 322.182437)scale(0.1 -0.1)">
       <use xlink:href="#DejaVuSans-48"/>
      </g>
     </g>
    </g>
    <g id="xtick_3">
     <g id="line2d_3">
      <g>
       <use style="stroke:#000000;stroke-width:0.8;" x="191.39402" xlink:href="#maa41e21918" y="307.584"/>
      </g>
     </g>
     <g id="text_3">
      <!-- 20 -->
      <g transform="translate(185.03152 322.182437)scale(0.1 -0.1)">
       <use xlink:href="#DejaVuSans-50"/>
       <use x="63.623047" xlink:href="#DejaVuSans-48"/>
      </g>
     </g>
    </g>
    <g id="xtick_4">
     <g id="line2d_4">
      <g>
       <use style="stroke:#000000;stroke-width:0.8;" x="242.733228" xlink:href="#maa41e21918" y="307.584"/>
      </g>
     </g>
     <g id="text_4">
      <!-- 40 -->
      <g transform="translate(236.370728 322.182437)scale(0.1 -0.1)">
       <defs>
        <path d="M 37.796875 64.3125 
L 12.890625 25.390625 
L 37.796875 25.390625 
z
M 35.203125 72.90625 
L 47.609375 72.90625 
L 47.609375 25.390625 
L 58.015625 25.390625 
L 58.015625 17.1875 
L 47.609375 17.1875 
L 47.609375 0 
L 37.796875 0 
L 37.796875 17.1875 
L 4.890625 17.1875 
L 4.890625 26.703125 
z
" id="DejaVuSans-52"/>
       </defs>
       <use xlink:href="#DejaVuSans-52"/>
       <use x="63.623047" xlink:href="#DejaVuSans-48"/>
      </g>
     </g>
    </g>
    <g id="xtick_5">
     <g id="line2d_5">
      <g>
       <use style="stroke:#000000;stroke-width:0.8;" x="294.072436" xlink:href="#maa41e21918" y="307.584"/>
      </g>
     </g>
     <g id="text_5">
      <!-- 60 -->
      <g transform="translate(287.709936 322.182437)scale(0.1 -0.1)">
       <defs>
        <path d="M 33.015625 40.375 
Q 26.375 40.375 22.484375 35.828125 
Q 18.609375 31.296875 18.609375 23.390625 
Q 18.609375 15.53125 22.484375 10.953125 
Q 26.375 6.390625 33.015625 6.390625 
Q 39.65625 6.390625 43.53125 10.953125 
Q 47.40625 15.53125 47.40625 23.390625 
Q 47.40625 31.296875 43.53125 35.828125 
Q 39.65625 40.375 33.015625 40.375 
z
M 52.59375 71.296875 
L 52.59375 62.3125 
Q 48.875 64.0625 45.09375 64.984375 
Q 41.3125 65.921875 37.59375 65.921875 
Q 27.828125 65.921875 22.671875 59.328125 
Q 17.53125 52.734375 16.796875 39.40625 
Q 19.671875 43.65625 24.015625 45.921875 
Q 28.375 48.1875 33.59375 48.1875 
Q 44.578125 48.1875 50.953125 41.515625 
Q 57.328125 34.859375 57.328125 23.390625 
Q 57.328125 12.15625 50.6875 5.359375 
Q 44.046875 -1.421875 33.015625 -1.421875 
Q 20.359375 -1.421875 13.671875 8.265625 
Q 6.984375 17.96875 6.984375 36.375 
Q 6.984375 53.65625 15.1875 63.9375 
Q 23.390625 74.21875 37.203125 74.21875 
Q 40.921875 74.21875 44.703125 73.484375 
Q 48.484375 72.75 52.59375 71.296875 
z
" id="DejaVuSans-54"/>
       </defs>
       <use xlink:href="#DejaVuSans-54"/>
       <use x="63.623047" xlink:href="#DejaVuSans-48"/>
      </g>
     </g>
    </g>
    <g id="xtick_6">
     <g id="line2d_6">
      <g>
       <use style="stroke:#000000;stroke-width:0.8;" x="345.411643" xlink:href="#maa41e21918" y="307.584"/>
      </g>
     </g>
     <g id="text_6">
      <!-- 80 -->
      <g transform="translate(339.049143 322.182437)scale(0.1 -0.1)">
       <defs>
        <path d="M 31.78125 34.625 
Q 24.75 34.625 20.71875 30.859375 
Q 16.703125 27.09375 16.703125 20.515625 
Q 16.703125 13.921875 20.71875 10.15625 
Q 24.75 6.390625 31.78125 6.390625 
Q 38.8125 6.390625 42.859375 10.171875 
Q 46.921875 13.96875 46.921875 20.515625 
Q 46.921875 27.09375 42.890625 30.859375 
Q 38.875 34.625 31.78125 34.625 
z
M 21.921875 38.8125 
Q 15.578125 40.375 12.03125 44.71875 
Q 8.5 49.078125 8.5 55.328125 
Q 8.5 64.0625 14.71875 69.140625 
Q 20.953125 74.21875 31.78125 74.21875 
Q 42.671875 74.21875 48.875 69.140625 
Q 55.078125 64.0625 55.078125 55.328125 
Q 55.078125 49.078125 51.53125 44.71875 
Q 48 40.375 41.703125 38.8125 
Q 48.828125 37.15625 52.796875 32.3125 
Q 56.78125 27.484375 56.78125 20.515625 
Q 56.78125 9.90625 50.3125 4.234375 
Q 43.84375 -1.421875 31.78125 -1.421875 
Q 19.734375 -1.421875 13.25 4.234375 
Q 6.78125 9.90625 6.78125 20.515625 
Q 6.78125 27.484375 10.78125 32.3125 
Q 14.796875 37.15625 21.921875 38.8125 
z
M 18.3125 54.390625 
Q 18.3125 48.734375 21.84375 45.5625 
Q 25.390625 42.390625 31.78125 42.390625 
Q 38.140625 42.390625 41.71875 45.5625 
Q 45.3125 48.734375 45.3125 54.390625 
Q 45.3125 60.0625 41.71875 63.234375 
Q 38.140625 66.40625 31.78125 66.40625 
Q 25.390625 66.40625 21.84375 63.234375 
Q 18.3125 60.0625 18.3125 54.390625 
z
" id="DejaVuSans-56"/>
       </defs>
       <use xlink:href="#DejaVuSans-56"/>
       <use x="63.623047" xlink:href="#DejaVuSans-48"/>
      </g>
     </g>
    </g>
    <g id="xtick_7">
     <g id="line2d_7">
      <g>
       <use style="stroke:#000000;stroke-width:0.8;" x="396.750851" xlink:href="#maa41e21918" y="307.584"/>
      </g>
     </g>
     <g id="text_7">
      <!-- 100 -->
      <g transform="translate(387.207101 322.182437)scale(0.1 -0.1)">
       <defs>
        <path d="M 12.40625 8.296875 
L 28.515625 8.296875 
L 28.515625 63.921875 
L 10.984375 60.40625 
L 10.984375 69.390625 
L 28.421875 72.90625 
L 38.28125 72.90625 
L 38.28125 8.296875 
L 54.390625 8.296875 
L 54.390625 0 
L 12.40625 0 
z
" id="DejaVuSans-49"/>
       </defs>
       <use xlink:href="#DejaVuSans-49"/>
       <use x="63.623047" xlink:href="#DejaVuSans-48"/>
       <use x="127.246094" xlink:href="#DejaVuSans-48"/>
      </g>
     </g>
    </g>
   </g>
   <g id="matplotlib.axis_2">
    <g id="ytick_1">
     <g id="line2d_8">
      <defs>
       <path d="M 0 0 
L -3.5 0 
" id="md919d4d1e3" style="stroke:#000000;stroke-width:0.8;"/>
      </defs>
      <g>
       <use style="stroke:#000000;stroke-width:0.8;" x="57.6" xlink:href="#md919d4d1e3" y="266.596059"/>
      </g>
     </g>
     <g id="text_8">
      <!-- 20 -->
      <g transform="translate(37.875 270.395278)scale(0.1 -0.1)">
       <use xlink:href="#DejaVuSans-50"/>
       <use x="63.623047" xlink:href="#DejaVuSans-48"/>
      </g>
     </g>
    </g>
    <g id="ytick_2">
     <g id="line2d_9">
      <g>
       <use style="stroke:#000000;stroke-width:0.8;" x="57.6" xlink:href="#md919d4d1e3" y="215.256852"/>
      </g>
     </g>
     <g id="text_9">
      <!-- 40 -->
      <g transform="translate(37.875 219.05607)scale(0.1 -0.1)">
       <use xlink:href="#DejaVuSans-52"/>
       <use x="63.623047" xlink:href="#DejaVuSans-48"/>
      </g>
     </g>
    </g>
    <g id="ytick_3">
     <g id="line2d_10">
      <g>
       <use style="stroke:#000000;stroke-width:0.8;" x="57.6" xlink:href="#md919d4d1e3" y="163.917644"/>
      </g>
     </g>
     <g id="text_10">
      <!-- 60 -->
      <g transform="translate(37.875 167.716863)scale(0.1 -0.1)">
       <use xlink:href="#DejaVuSans-54"/>
       <use x="63.623047" xlink:href="#DejaVuSans-48"/>
      </g>
     </g>
    </g>
    <g id="ytick_4">
     <g id="line2d_11">
      <g>
       <use style="stroke:#000000;stroke-width:0.8;" x="57.6" xlink:href="#md919d4d1e3" y="112.578436"/>
      </g>
     </g>
     <g id="text_11">
      <!-- 80 -->
      <g transform="translate(37.875 116.377655)scale(0.1 -0.1)">
       <use xlink:href="#DejaVuSans-56"/>
       <use x="63.623047" xlink:href="#DejaVuSans-48"/>
      </g>
     </g>
    </g>
    <g id="ytick_5">
     <g id="line2d_12">
      <g>
       <use style="stroke:#000000;stroke-width:0.8;" x="57.6" xlink:href="#md919d4d1e3" y="61.239229"/>
      </g>
     </g>
     <g id="text_12">
      <!-- 100 -->
      <g transform="translate(31.5125 65.038448)scale(0.1 -0.1)">
       <use xlink:href="#DejaVuSans-49"/>
       <use x="63.623047" xlink:href="#DejaVuSans-48"/>
       <use x="127.246094" xlink:href="#DejaVuSans-48"/>
      </g>
     </g>
    </g>
   </g>
   <g id="line2d_13">
    <path clip-path="url(#peaac9939ac)" d="M 307.430897 292.265663 
L 304.13492 282.536883 
L 297.476225 263.120395 
L 295.186496 255.771187 
L 293.12266 248.347538 
L 291.913622 243.344532 
L 290.861168 238.290187 
L 290.00637 233.197338 
L 289.3903 228.081386 
L 289.051461 222.955166 
L 289.028358 217.836647 
L 289.341528 212.73353 
L 289.895991 207.64068 
L 291.867417 192.323628 
L 292.257595 187.174305 
L 292.403911 182.014715 
L 292.285831 176.862825 
L 291.875118 171.739172 
L 291.146101 166.664292 
L 290.093647 161.651018 
L 288.758828 156.696785 
L 287.208384 151.791323 
L 284.608053 144.511424 
L 279.990091 132.50575 
L 273.282624 115.859012 
L 269.270464 106.420298 
L 267.114218 101.758698 
L 264.803953 97.158705 
L 262.301167 92.635721 
L 259.564787 88.230817 
L 256.561444 84.015868 
L 253.260333 80.055048 
L 251.483996 78.191435 
L 249.62295 76.417666 
L 247.666926 74.744007 
L 245.615925 73.173028 
L 243.477647 71.714994 
L 241.259793 70.369907 
L 238.967497 69.140333 
L 236.613594 68.031406 
L 234.203219 67.045693 
L 231.746638 66.185761 
L 229.248985 65.456745 
L 226.723096 64.858643 
L 224.174104 64.399157 
L 221.609711 64.07572 
L 219.03505 63.888332 
L 216.455255 63.831859 
L 213.875459 63.903734 
L 211.298231 64.098823 
L 208.728704 64.411992 
L 206.172011 64.843241 
L 201.109965 66.031744 
L 196.150598 67.636094 
L 193.72482 68.591003 
L 191.342681 69.648591 
L 189.019582 70.811424 
L 186.755523 72.082069 
L 184.565906 73.463094 
L 182.455864 74.957065 
L 180.4331 76.563982 
L 178.507879 78.286413 
L 176.685337 80.126923 
L 174.978309 82.088081 
L 173.391927 84.157051 
L 171.92876 86.323566 
L 170.599074 88.579924 
L 169.408005 90.910724 
L 168.358118 93.308265 
L 167.459682 95.762279 
L 166.71783 98.257364 
L 166.137697 100.788387 
L 165.724417 103.339946 
L 165.483122 105.904339 
L 165.403547 108.473867 
L 165.477988 111.048528 
L 165.691046 113.618055 
L 166.035019 116.185016 
L 167.061803 121.277865 
L 168.468497 126.293706 
L 170.167825 131.1966 
L 172.098179 135.978847 
L 174.228756 140.653282 
L 176.528753 145.237873 
L 180.23031 151.981278 
L 191.753395 172.001002 
L 194.035423 176.616397 
L 196.10696 181.339604 
L 197.937202 186.160356 
L 199.503048 191.065817 
L 200.771127 196.048287 
L 201.720902 201.089797 
L 202.319004 206.182647 
L 202.542329 211.314001 
L 202.360075 216.471024 
L 202.108513 219.055953 
L 201.269117 224.230945 
L 201.269117 224.230945 
" style="fill:none;stroke:#fea952;stroke-linecap:square;"/>
   </g>
   <g id="line2d_14">
    <path clip-path="url(#peaac9939ac)" d="M 297.681789 295.488 
L 294.437946 285.912867 
L 287.697959 266.253138 
L 285.326612 258.636716 
L 283.161391 250.837855 
L 281.880775 245.528692 
L 280.753285 240.095531 
L 279.828867 234.556382 
L 279.156044 228.91119 
L 278.785892 223.171175 
L 278.771472 217.362459 
L 279.12444 211.713881 
L 279.714052 206.315281 
L 281.638061 191.43545 
L 281.998287 186.755766 
L 282.136482 182.106753 
L 282.039655 177.529493 
L 281.689276 173.034244 
L 281.066334 168.620528 
L 280.147053 164.199319 
L 278.939957 159.699842 
L 277.500683 155.136337 
L 274.995655 148.121186 
L 270.443937 136.287219 
L 263.791586 119.776764 
L 259.922614 110.668388 
L 256.84333 104.136803 
L 254.650779 99.957082 
L 252.317133 95.952813 
L 249.843383 92.200225 
L 247.207535 88.740081 
L 244.399911 85.624086 
L 241.423289 82.895422 
L 239.831355 81.656384 
L 236.406319 79.418242 
L 232.727035 77.535259 
L 228.869697 76.042322 
L 224.901554 74.96362 
L 220.864372 74.316474 
L 216.741213 74.095718 
L 212.540464 74.291243 
L 208.312338 74.88553 
L 204.073396 75.862647 
L 199.911627 77.19032 
L 195.938657 78.830398 
L 192.233114 80.766801 
L 188.842724 82.996754 
L 187.279345 84.216269 
L 185.803867 85.511171 
L 184.430233 86.868226 
L 183.126608 88.335784 
L 181.901011 89.903707 
L 180.774822 91.536603 
L 179.742279 93.252222 
L 178.813576 95.029438 
L 178.000089 96.838275 
L 177.301706 98.68856 
L 176.726135 100.551357 
L 176.273444 102.430093 
L 175.947104 104.30184 
L 175.746044 106.222172 
L 175.667099 108.177114 
L 175.710714 110.20006 
L 176.140634 114.367021 
L 176.991964 118.666263 
L 178.213476 123.0589 
L 179.731935 127.460779 
L 181.483588 131.814393 
L 183.443204 136.123102 
L 185.594581 140.417155 
L 189.119886 146.842795 
L 195.613733 157.871174 
L 199.603933 164.901918 
L 202.171174 169.843669 
L 204.548416 174.950077 
L 206.701429 180.221618 
L 208.581517 185.622656 
L 210.163992 191.168901 
L 211.407054 196.825022 
L 212.282165 202.613471 
L 212.742796 208.488114 
L 212.808867 211.477611 
L 212.753758 214.452311 
L 212.579636 217.465579 
L 212.275963 220.488272 
L 211.368278 226.084462 
L 211.368278 226.084462 
" style="fill:none;stroke:#ffffff;stroke-linecap:square;"/>
   </g>
   <g id="line2d_15">
    <path clip-path="url(#peaac9939ac)" d="M 317.180006 289.043326 
L 313.831894 279.1609 
L 307.254491 259.987652 
L 305.046381 252.905659 
L 303.08393 245.857221 
L 301.946469 241.160372 
L 300.969051 236.484844 
L 300.183873 231.838294 
L 299.624556 227.251581 
L 299.31703 222.739157 
L 299.285245 218.310835 
L 299.558616 213.753179 
L 300.07793 208.966079 
L 302.096772 193.211805 
L 302.516902 187.592844 
L 302.67134 181.922676 
L 302.532007 176.196157 
L 302.060959 170.444101 
L 301.225868 164.708055 
L 300.040241 159.102717 
L 298.577698 153.693727 
L 296.916084 148.446309 
L 294.22045 140.901662 
L 289.536245 128.724281 
L 282.773661 111.94126 
L 279.702963 104.638976 
L 276.328597 97.228381 
L 273.842523 92.28707 
L 271.096784 87.338015 
L 268.030667 82.420701 
L 264.58824 77.612813 
L 262.696384 75.256394 
L 260.692744 72.970711 
L 258.568081 70.758784 
L 256.298425 68.61596 
L 253.910563 66.592592 
L 251.400494 64.689672 
L 248.802189 62.935597 
L 246.113267 61.321572 
L 243.343416 59.851635 
L 240.500154 58.527553 
L 237.595656 57.354463 
L 234.623578 56.329201 
L 231.614871 55.465191 
L 228.544638 54.753666 
L 225.458968 54.212023 
L 222.35505 53.834966 
L 219.259765 53.62295 
L 216.169296 53.568 
L 213.10043 53.665184 
L 210.055998 53.906403 
L 207.020903 54.287172 
L 204.031685 54.800952 
L 201.078492 55.439283 
L 198.146535 56.200841 
L 195.258938 57.079935 
L 192.389569 58.081868 
L 189.558408 59.206464 
L 186.746705 60.466784 
L 183.994336 61.857349 
L 181.277931 63.397338 
L 178.632613 65.083082 
L 176.069005 66.917376 
L 173.586854 68.911696 
L 171.211891 71.061655 
L 168.940442 73.38562 
L 166.83001 75.840378 
L 164.882843 78.410395 
L 163.082698 81.110528 
L 161.455869 83.907625 
L 160.002434 86.79201 
L 158.716147 89.778255 
L 157.617657 92.835998 
L 156.709525 95.963372 
L 156.00195 99.146682 
L 155.50173 102.378052 
L 155.220201 105.586507 
L 155.139994 108.77062 
L 155.245263 111.896996 
L 155.514166 114.981757 
L 155.929403 118.003011 
L 156.4738 120.978348 
L 157.883997 126.728863 
L 159.630893 132.250721 
L 161.629931 137.552465 
L 163.840546 142.679849 
L 166.220538 147.633925 
L 168.734726 152.448224 
L 172.665964 159.411743 
L 181.48478 174.566834 
L 183.666416 178.748061 
L 185.647873 182.980254 
L 187.406907 187.252672 
L 188.930609 191.585548 
L 190.187192 195.927235 
L 191.167117 200.297661 
L 191.847584 204.648706 
L 192.213515 209.000833 
L 192.248758 213.330147 
L 191.941063 217.623634 
L 191.644844 219.789933 
L 191.169956 222.377429 
L 191.169956 222.377429 
" style="fill:none;stroke:#ffffff;stroke-linecap:square;"/>
   </g>
   <g id="patch_3">
    <path d="M 57.6 307.584 
L 57.6 41.472 
" style="fill:none;stroke:#000000;stroke-linecap:square;stroke-linejoin:miter;stroke-width:0.8;"/>
   </g>
   <g id="patch_4">
    <path d="M 414.72 307.584 
L 414.72 41.472 
" style="fill:none;stroke:#000000;stroke-linecap:square;stroke-linejoin:miter;stroke-width:0.8;"/>
   </g>
   <g id="patch_5">
    <path d="M 57.6 307.584 
L 414.72 307.584 
" style="fill:none;stroke:#000000;stroke-linecap:square;stroke-linejoin:miter;stroke-width:0.8;"/>
   </g>
   <g id="patch_6">
    <path d="M 57.6 41.472 
L 414.72 41.472 
" style="fill:none;stroke:#000000;stroke-linecap:square;stroke-linejoin:miter;stroke-width:0.8;"/>
   </g>
  </g>
 </g>
 <defs>
  <clipPath id="peaac9939ac">
   <rect height="266.112" width="357.12" x="57.6" y="41.472"/>
  </clipPath>
 </defs>
</svg>
