<?xml version="1.0" encoding="utf-8" standalone="no"?>
<!DOCTYPE svg PUBLIC "-//W3C//DTD SVG 1.1//EN"
  "http://www.w3.org/Graphics/SVG/1.1/DTD/svg11.dtd">
<!-- Created with matplotlib (https://matplotlib.org/) -->
<svg height="345.6pt" version="1.1" viewBox="0 0 460.8 345.6" width="460.8pt" xmlns="http://www.w3.org/2000/svg" xmlns:xlink="http://www.w3.org/1999/xlink">
 <metadata>
  <rdf:RDF xmlns:cc="http://creativecommons.org/ns#" xmlns:dc="http://purl.org/dc/elements/1.1/" xmlns:rdf="http://www.w3.org/1999/02/22-rdf-syntax-ns#">
   <cc:Work>
    <dc:type rdf:resource="http://purl.org/dc/dcmitype/StillImage"/>
    <dc:date>2021-01-25T09:45:00.688022</dc:date>
    <dc:format>image/svg+xml</dc:format>
    <dc:creator>
     <cc:Agent>
      <dc:title>Matplotlib v3.3.3, https://matplotlib.org/</dc:title>
     </cc:Agent>
    </dc:creator>
   </cc:Work>
  </rdf:RDF>
 </metadata>
 <defs>
  <style type="text/css">*{stroke-linecap:butt;stroke-linejoin:round;}</style>
 </defs>
 <g id="figure_1">
  <g id="patch_1">
   <path d="M 0 345.6 
L 460.8 345.6 
L 460.8 0 
L 0 0 
z
" style="fill:#ffffff;"/>
  </g>
  <g id="axes_1">
   <g id="patch_2">
    <path d="M 57.6 307.584 
L 414.72 307.584 
L 414.72 41.472 
L 57.6 41.472 
z
" style="fill:#7d9051;"/>
   </g>
   <g id="matplotlib.axis_1">
    <g id="xtick_1">
     <g id="line2d_1">
      <defs>
       <path d="M 0 0 
L 0 3.5 
" id="ma3f3793139" style="stroke:#000000;stroke-width:0.8;"/>
      </defs>
      <g>
       <use style="stroke:#000000;stroke-width:0.8;" x="70.911704" xlink:href="#ma3f3793139" y="307.584"/>
      </g>
     </g>
     <g id="text_1">
      <!-- −40 -->
      <g transform="translate(60.35936 322.182437)scale(0.1 -0.1)">
       <defs>
        <path d="M 10.59375 35.5 
L 73.1875 35.5 
L 73.1875 27.203125 
L 10.59375 27.203125 
z
" id="DejaVuSans-8722"/>
        <path d="M 37.796875 64.3125 
L 12.890625 25.390625 
L 37.796875 25.390625 
z
M 35.203125 72.90625 
L 47.609375 72.90625 
L 47.609375 25.390625 
L 58.015625 25.390625 
L 58.015625 17.1875 
L 47.609375 17.1875 
L 47.609375 0 
L 37.796875 0 
L 37.796875 17.1875 
L 4.890625 17.1875 
L 4.890625 26.703125 
z
" id="DejaVuSans-52"/>
        <path d="M 31.78125 66.40625 
Q 24.171875 66.40625 20.328125 58.90625 
Q 16.5 51.421875 16.5 36.375 
Q 16.5 21.390625 20.328125 13.890625 
Q 24.171875 6.390625 31.78125 6.390625 
Q 39.453125 6.390625 43.28125 13.890625 
Q 47.125 21.390625 47.125 36.375 
Q 47.125 51.421875 43.28125 58.90625 
Q 39.453125 66.40625 31.78125 66.40625 
z
M 31.78125 74.21875 
Q 44.046875 74.21875 50.515625 64.515625 
Q 56.984375 54.828125 56.984375 36.375 
Q 56.984375 17.96875 50.515625 8.265625 
Q 44.046875 -1.421875 31.78125 -1.421875 
Q 19.53125 -1.421875 13.0625 8.265625 
Q 6.59375 17.96875 6.59375 36.375 
Q 6.59375 54.828125 13.0625 64.515625 
Q 19.53125 74.21875 31.78125 74.21875 
z
" id="DejaVuSans-48"/>
       </defs>
       <use xlink:href="#DejaVuSans-8722"/>
       <use x="83.789062" xlink:href="#DejaVuSans-52"/>
       <use x="147.412109" xlink:href="#DejaVuSans-48"/>
      </g>
     </g>
    </g>
    <g id="xtick_2">
     <g id="line2d_2">
      <g>
       <use style="stroke:#000000;stroke-width:0.8;" x="115.779179" xlink:href="#ma3f3793139" y="307.584"/>
      </g>
     </g>
     <g id="text_2">
      <!-- −20 -->
      <g transform="translate(105.226835 322.182437)scale(0.1 -0.1)">
       <defs>
        <path d="M 19.1875 8.296875 
L 53.609375 8.296875 
L 53.609375 0 
L 7.328125 0 
L 7.328125 8.296875 
Q 12.9375 14.109375 22.625 23.890625 
Q 32.328125 33.6875 34.8125 36.53125 
Q 39.546875 41.84375 41.421875 45.53125 
Q 43.3125 49.21875 43.3125 52.78125 
Q 43.3125 58.59375 39.234375 62.25 
Q 35.15625 65.921875 28.609375 65.921875 
Q 23.96875 65.921875 18.8125 64.3125 
Q 13.671875 62.703125 7.8125 59.421875 
L 7.8125 69.390625 
Q 13.765625 71.78125 18.9375 73 
Q 24.125 74.21875 28.421875 74.21875 
Q 39.75 74.21875 46.484375 68.546875 
Q 53.21875 62.890625 53.21875 53.421875 
Q 53.21875 48.921875 51.53125 44.890625 
Q 49.859375 40.875 45.40625 35.40625 
Q 44.1875 33.984375 37.640625 27.21875 
Q 31.109375 20.453125 19.1875 8.296875 
z
" id="DejaVuSans-50"/>
       </defs>
       <use xlink:href="#DejaVuSans-8722"/>
       <use x="83.789062" xlink:href="#DejaVuSans-50"/>
       <use x="147.412109" xlink:href="#DejaVuSans-48"/>
      </g>
     </g>
    </g>
    <g id="xtick_3">
     <g id="line2d_3">
      <g>
       <use style="stroke:#000000;stroke-width:0.8;" x="160.646654" xlink:href="#ma3f3793139" y="307.584"/>
      </g>
     </g>
     <g id="text_3">
      <!-- 0 -->
      <g transform="translate(157.465404 322.182437)scale(0.1 -0.1)">
       <use xlink:href="#DejaVuSans-48"/>
      </g>
     </g>
    </g>
    <g id="xtick_4">
     <g id="line2d_4">
      <g>
       <use style="stroke:#000000;stroke-width:0.8;" x="205.514129" xlink:href="#ma3f3793139" y="307.584"/>
      </g>
     </g>
     <g id="text_4">
      <!-- 20 -->
      <g transform="translate(199.151629 322.182437)scale(0.1 -0.1)">
       <use xlink:href="#DejaVuSans-50"/>
       <use x="63.623047" xlink:href="#DejaVuSans-48"/>
      </g>
     </g>
    </g>
    <g id="xtick_5">
     <g id="line2d_5">
      <g>
       <use style="stroke:#000000;stroke-width:0.8;" x="250.381605" xlink:href="#ma3f3793139" y="307.584"/>
      </g>
     </g>
     <g id="text_5">
      <!-- 40 -->
      <g transform="translate(244.019105 322.182437)scale(0.1 -0.1)">
       <use xlink:href="#DejaVuSans-52"/>
       <use x="63.623047" xlink:href="#DejaVuSans-48"/>
      </g>
     </g>
    </g>
    <g id="xtick_6">
     <g id="line2d_6">
      <g>
       <use style="stroke:#000000;stroke-width:0.8;" x="295.24908" xlink:href="#ma3f3793139" y="307.584"/>
      </g>
     </g>
     <g id="text_6">
      <!-- 60 -->
      <g transform="translate(288.88658 322.182437)scale(0.1 -0.1)">
       <defs>
        <path d="M 33.015625 40.375 
Q 26.375 40.375 22.484375 35.828125 
Q 18.609375 31.296875 18.609375 23.390625 
Q 18.609375 15.53125 22.484375 10.953125 
Q 26.375 6.390625 33.015625 6.390625 
Q 39.65625 6.390625 43.53125 10.953125 
Q 47.40625 15.53125 47.40625 23.390625 
Q 47.40625 31.296875 43.53125 35.828125 
Q 39.65625 40.375 33.015625 40.375 
z
M 52.59375 71.296875 
L 52.59375 62.3125 
Q 48.875 64.0625 45.09375 64.984375 
Q 41.3125 65.921875 37.59375 65.921875 
Q 27.828125 65.921875 22.671875 59.328125 
Q 17.53125 52.734375 16.796875 39.40625 
Q 19.671875 43.65625 24.015625 45.921875 
Q 28.375 48.1875 33.59375 48.1875 
Q 44.578125 48.1875 50.953125 41.515625 
Q 57.328125 34.859375 57.328125 23.390625 
Q 57.328125 12.15625 50.6875 5.359375 
Q 44.046875 -1.421875 33.015625 -1.421875 
Q 20.359375 -1.421875 13.671875 8.265625 
Q 6.984375 17.96875 6.984375 36.375 
Q 6.984375 53.65625 15.1875 63.9375 
Q 23.390625 74.21875 37.203125 74.21875 
Q 40.921875 74.21875 44.703125 73.484375 
Q 48.484375 72.75 52.59375 71.296875 
z
" id="DejaVuSans-54"/>
       </defs>
       <use xlink:href="#DejaVuSans-54"/>
       <use x="63.623047" xlink:href="#DejaVuSans-48"/>
      </g>
     </g>
    </g>
    <g id="xtick_7">
     <g id="line2d_7">
      <g>
       <use style="stroke:#000000;stroke-width:0.8;" x="340.116555" xlink:href="#ma3f3793139" y="307.584"/>
      </g>
     </g>
     <g id="text_7">
      <!-- 80 -->
      <g transform="translate(333.754055 322.182437)scale(0.1 -0.1)">
       <defs>
        <path d="M 31.78125 34.625 
Q 24.75 34.625 20.71875 30.859375 
Q 16.703125 27.09375 16.703125 20.515625 
Q 16.703125 13.921875 20.71875 10.15625 
Q 24.75 6.390625 31.78125 6.390625 
Q 38.8125 6.390625 42.859375 10.171875 
Q 46.921875 13.96875 46.921875 20.515625 
Q 46.921875 27.09375 42.890625 30.859375 
Q 38.875 34.625 31.78125 34.625 
z
M 21.921875 38.8125 
Q 15.578125 40.375 12.03125 44.71875 
Q 8.5 49.078125 8.5 55.328125 
Q 8.5 64.0625 14.71875 69.140625 
Q 20.953125 74.21875 31.78125 74.21875 
Q 42.671875 74.21875 48.875 69.140625 
Q 55.078125 64.0625 55.078125 55.328125 
Q 55.078125 49.078125 51.53125 44.71875 
Q 48 40.375 41.703125 38.8125 
Q 48.828125 37.15625 52.796875 32.3125 
Q 56.78125 27.484375 56.78125 20.515625 
Q 56.78125 9.90625 50.3125 4.234375 
Q 43.84375 -1.421875 31.78125 -1.421875 
Q 19.734375 -1.421875 13.25 4.234375 
Q 6.78125 9.90625 6.78125 20.515625 
Q 6.78125 27.484375 10.78125 32.3125 
Q 14.796875 37.15625 21.921875 38.8125 
z
M 18.3125 54.390625 
Q 18.3125 48.734375 21.84375 45.5625 
Q 25.390625 42.390625 31.78125 42.390625 
Q 38.140625 42.390625 41.71875 45.5625 
Q 45.3125 48.734375 45.3125 54.390625 
Q 45.3125 60.0625 41.71875 63.234375 
Q 38.140625 66.40625 31.78125 66.40625 
Q 25.390625 66.40625 21.84375 63.234375 
Q 18.3125 60.0625 18.3125 54.390625 
z
" id="DejaVuSans-56"/>
       </defs>
       <use xlink:href="#DejaVuSans-56"/>
       <use x="63.623047" xlink:href="#DejaVuSans-48"/>
      </g>
     </g>
    </g>
    <g id="xtick_8">
     <g id="line2d_8">
      <g>
       <use style="stroke:#000000;stroke-width:0.8;" x="384.98403" xlink:href="#ma3f3793139" y="307.584"/>
      </g>
     </g>
     <g id="text_8">
      <!-- 100 -->
      <g transform="translate(375.44028 322.182437)scale(0.1 -0.1)">
       <defs>
        <path d="M 12.40625 8.296875 
L 28.515625 8.296875 
L 28.515625 63.921875 
L 10.984375 60.40625 
L 10.984375 69.390625 
L 28.421875 72.90625 
L 38.28125 72.90625 
L 38.28125 8.296875 
L 54.390625 8.296875 
L 54.390625 0 
L 12.40625 0 
z
" id="DejaVuSans-49"/>
       </defs>
       <use xlink:href="#DejaVuSans-49"/>
       <use x="63.623047" xlink:href="#DejaVuSans-48"/>
       <use x="127.246094" xlink:href="#DejaVuSans-48"/>
      </g>
     </g>
    </g>
   </g>
   <g id="matplotlib.axis_2">
    <g id="ytick_1">
     <g id="line2d_9">
      <defs>
       <path d="M 0 0 
L -3.5 0 
" id="m514fdcbd7d" style="stroke:#000000;stroke-width:0.8;"/>
      </defs>
      <g>
       <use style="stroke:#000000;stroke-width:0.8;" x="57.6" xlink:href="#m514fdcbd7d" y="271.313499"/>
      </g>
     </g>
     <g id="text_9">
      <!-- 20 -->
      <g transform="translate(37.875 275.112718)scale(0.1 -0.1)">
       <use xlink:href="#DejaVuSans-50"/>
       <use x="63.623047" xlink:href="#DejaVuSans-48"/>
      </g>
     </g>
    </g>
    <g id="ytick_2">
     <g id="line2d_10">
      <g>
       <use style="stroke:#000000;stroke-width:0.8;" x="57.6" xlink:href="#m514fdcbd7d" y="226.446024"/>
      </g>
     </g>
     <g id="text_10">
      <!-- 40 -->
      <g transform="translate(37.875 230.245243)scale(0.1 -0.1)">
       <use xlink:href="#DejaVuSans-52"/>
       <use x="63.623047" xlink:href="#DejaVuSans-48"/>
      </g>
     </g>
    </g>
    <g id="ytick_3">
     <g id="line2d_11">
      <g>
       <use style="stroke:#000000;stroke-width:0.8;" x="57.6" xlink:href="#m514fdcbd7d" y="181.578549"/>
      </g>
     </g>
     <g id="text_11">
      <!-- 60 -->
      <g transform="translate(37.875 185.377767)scale(0.1 -0.1)">
       <use xlink:href="#DejaVuSans-54"/>
       <use x="63.623047" xlink:href="#DejaVuSans-48"/>
      </g>
     </g>
    </g>
    <g id="ytick_4">
     <g id="line2d_12">
      <g>
       <use style="stroke:#000000;stroke-width:0.8;" x="57.6" xlink:href="#m514fdcbd7d" y="136.711073"/>
      </g>
     </g>
     <g id="text_12">
      <!-- 80 -->
      <g transform="translate(37.875 140.510292)scale(0.1 -0.1)">
       <use xlink:href="#DejaVuSans-56"/>
       <use x="63.623047" xlink:href="#DejaVuSans-48"/>
      </g>
     </g>
    </g>
    <g id="ytick_5">
     <g id="line2d_13">
      <g>
       <use style="stroke:#000000;stroke-width:0.8;" x="57.6" xlink:href="#m514fdcbd7d" y="91.843598"/>
      </g>
     </g>
     <g id="text_13">
      <!-- 100 -->
      <g transform="translate(31.5125 95.642817)scale(0.1 -0.1)">
       <use xlink:href="#DejaVuSans-49"/>
       <use x="63.623047" xlink:href="#DejaVuSans-48"/>
       <use x="127.246094" xlink:href="#DejaVuSans-48"/>
      </g>
     </g>
    </g>
    <g id="ytick_6">
     <g id="line2d_14">
      <g>
       <use style="stroke:#000000;stroke-width:0.8;" x="57.6" xlink:href="#m514fdcbd7d" y="46.976123"/>
      </g>
     </g>
     <g id="text_14">
      <!-- 120 -->
      <g transform="translate(31.5125 50.775341)scale(0.1 -0.1)">
       <use xlink:href="#DejaVuSans-49"/>
       <use x="63.623047" xlink:href="#DejaVuSans-50"/>
       <use x="127.246094" xlink:href="#DejaVuSans-48"/>
      </g>
     </g>
    </g>
   </g>
   <g id="line2d_15">
    <path clip-path="url(#p225dd268e0)" d="M 183.080392 293.747237 
L 182.313158 289.343494 
L 181.936271 284.85899 
L 181.947488 280.331862 
L 182.335592 275.80249 
L 183.098339 271.313499 
L 184.228999 266.903026 
L 185.718599 262.611452 
L 187.564896 258.479158 
L 189.758915 254.546524 
L 192.298415 250.851687 
L 195.160959 247.423812 
L 198.297196 244.227004 
L 201.637579 241.207423 
L 206.884831 236.909119 
L 219.230117 227.098846 
L 222.595177 224.148809 
L 225.818905 221.052953 
L 228.87438 217.777628 
L 231.759359 214.338536 
L 234.487301 210.758111 
L 237.062695 207.061031 
L 239.496755 203.269729 
L 242.913413 197.463878 
L 255.047822 175.985818 
L 259.826208 168.387511 
L 266.022406 159.037129 
L 278.520242 140.39918 
L 280.871297 136.574227 
L 283.076534 132.66627 
L 285.091083 128.643901 
L 286.863349 124.489173 
L 288.341732 120.199842 
L 289.467906 115.807317 
L 289.880686 113.58189 
L 290.181299 111.340759 
L 290.367499 109.090655 
L 290.42807 106.836065 
L 290.358525 104.576987 
L 290.149891 102.320153 
L 289.806655 100.074536 
L 289.33106 97.846866 
L 288.727592 95.64836 
L 287.996252 93.485748 
L 287.146014 91.368003 
L 286.174633 89.306342 
L 285.091083 87.305253 
L 283.893122 85.378195 
L 282.587478 83.531898 
L 281.17864 81.773093 
L 279.673336 80.099536 
L 278.076054 78.511228 
L 274.650422 75.576895 
L 270.960072 72.945417 
L 267.070062 70.594362 
L 263.043206 68.501294 
L 258.910912 66.675188 
L 254.677665 65.14072 
L 250.343467 63.933785 
L 245.915047 63.081303 
L 241.396893 62.616925 
L 236.822654 62.572057 
L 234.541142 62.717876 
L 232.273092 62.980351 
L 230.029718 63.363968 
L 227.819995 63.873214 
L 225.655139 64.512575 
L 223.541881 65.286539 
L 221.491437 66.197349 
L 219.510538 67.247248 
L 217.603671 68.429506 
L 215.766347 69.730663 
L 214.000812 71.141745 
L 212.307065 72.651535 
L 209.130448 75.922374 
L 206.238739 79.455688 
L 203.629695 83.168472 
L 201.283126 87.006884 
L 199.172112 90.961952 
L 197.267487 95.022459 
L 195.533359 99.177187 
L 193.942807 103.41492 
L 192.511535 107.724441 
L 191.293383 112.087803 
L 190.351166 116.487059 
L 189.740968 120.908748 
L 189.521118 125.337168 
L 189.579446 127.546891 
L 189.754429 129.754371 
L 190.059527 131.952878 
L 190.496985 134.144654 
L 191.078019 136.325213 
L 191.809359 138.492312 
L 192.697735 140.645951 
L 193.749877 142.781643 
L 194.972516 144.899388 
L 194.972516 144.899388 
" style="fill:none;stroke:#fea952;stroke-linecap:square;"/>
   </g>
   <g id="line2d_16">
    <path clip-path="url(#p225dd268e0)" d="M 174.277361 295.488 
L 173.774462 292.897188 
L 173.390054 290.293142 
L 173.11896 287.66273 
L 172.96437 285.028103 
L 172.922684 282.384498 
L 173.170779 277.111016 
L 173.856629 271.861751 
L 174.97412 266.679874 
L 176.515546 261.619748 
L 177.448309 259.129225 
L 178.486503 256.685268 
L 179.631843 254.28508 
L 180.883799 251.936621 
L 182.244584 249.641584 
L 183.714497 247.408414 
L 185.28514 245.253688 
L 186.932727 243.203637 
L 190.404282 239.405187 
L 194.015519 235.962626 
L 197.685709 232.802013 
L 203.153178 228.431127 
L 211.767816 221.634316 
L 216.460532 217.599783 
L 219.340148 214.844144 
L 222.071342 211.925937 
L 224.683824 208.81944 
L 227.175618 205.55591 
L 229.555302 202.145477 
L 232.923916 196.807882 
L 236.154348 191.168859 
L 245.024965 175.251643 
L 249.830682 167.371862 
L 254.804409 159.666768 
L 262.378325 148.425399 
L 269.758935 137.431087 
L 273.103966 132.080656 
L 275.108512 128.539014 
L 276.897639 124.98452 
L 278.437392 121.402612 
L 279.698922 117.786245 
L 280.644902 114.170792 
L 281.238371 110.600717 
L 281.458824 107.112179 
L 281.279415 103.675981 
L 280.67764 100.222142 
L 279.668837 96.829064 
L 278.283693 93.579127 
L 276.566508 90.559348 
L 274.506915 87.774068 
L 272.079523 85.186948 
L 269.291952 82.77484 
L 266.182637 80.541451 
L 262.807276 78.490707 
L 259.27771 76.646517 
L 255.703389 75.055845 
L 252.101612 73.736508 
L 248.456542 72.706648 
L 244.795461 71.984681 
L 241.097649 71.585429 
L 237.395013 71.52728 
L 233.785605 71.825458 
L 230.361668 72.47923 
L 227.184697 73.487363 
L 225.693738 74.126049 
L 224.239029 74.873846 
L 221.368786 76.740391 
L 218.59904 79.049555 
L 215.965968 81.73609 
L 213.493249 84.737325 
L 211.2135 87.965295 
L 209.145087 91.332758 
L 207.251389 94.866936 
L 205.511258 98.567012 
L 203.907353 102.402065 
L 201.749972 108.300913 
L 200.547092 112.19603 
L 199.589187 116.01459 
L 198.913232 119.745256 
L 198.549829 123.35926 
L 198.52488 126.837802 
L 198.859456 130.196495 
L 199.580403 133.455878 
L 200.104804 135.070441 
L 200.747409 136.680303 
L 201.521219 138.29501 
L 202.743857 140.412755 
L 202.743857 140.412755 
" style="fill:none;stroke:#ffffff;stroke-linecap:square;"/>
   </g>
   <g id="line2d_17">
    <path clip-path="url(#p225dd268e0)" d="M 191.883423 292.006473 
L 191.236262 288.393846 
L 190.908172 284.689877 
L 190.902458 280.908171 
L 191.211871 277.119786 
L 191.836642 273.354498 
L 192.766477 269.666193 
L 193.98889 266.09368 
L 195.497949 262.673235 
L 197.273247 259.451463 
L 199.311689 256.449686 
L 201.674819 253.595784 
L 204.400817 250.804954 
L 207.42514 248.065102 
L 212.424136 243.968844 
L 225.081084 233.902506 
L 228.729822 230.697835 
L 232.297663 227.261763 
L 235.677419 223.629318 
L 238.834894 219.857632 
L 241.798985 215.960312 
L 244.570087 211.976586 
L 247.166051 207.928647 
L 250.742383 201.849177 
L 262.691406 180.686801 
L 267.351412 173.275754 
L 273.455494 164.064338 
L 286.12824 145.157539 
L 288.638628 141.067799 
L 291.044556 136.793527 
L 293.284528 132.303283 
L 295.289306 127.575734 
L 296.984542 122.61344 
L 297.689902 120.057209 
L 298.29091 117.443841 
L 298.774529 114.774858 
L 299.124226 112.080802 
L 299.337757 109.331648 
L 299.397316 106.559951 
L 299.29392 103.750952 
L 299.020367 100.964326 
L 298.58238 98.200968 
L 297.98448 95.471591 
L 297.228171 92.773683 
L 296.323668 90.142431 
L 295.263597 87.543287 
L 294.065572 85.033558 
L 292.712034 82.567666 
L 291.219735 80.197042 
L 289.591113 77.921844 
L 287.850364 75.772118 
L 286.000656 73.736469 
L 284.072584 71.835508 
L 282.076299 70.055664 
L 280.008892 68.37895 
L 275.737507 65.349384 
L 271.332848 62.698016 
L 266.808702 60.356071 
L 262.118434 58.294531 
L 257.253718 56.544932 
L 252.230393 55.160922 
L 249.64828 54.61414 
L 247.034634 54.177925 
L 244.383132 53.853749 
L 241.696136 53.64842 
L 238.987741 53.568 
L 236.250294 53.616834 
L 233.509552 53.803874 
L 230.760578 54.135244 
L 228.014536 54.619675 
L 225.278322 55.267198 
L 222.569126 56.086418 
L 219.899064 57.085716 
L 217.289137 58.268649 
L 214.782048 59.62065 
L 212.417579 61.106387 
L 210.163909 62.720934 
L 208.029791 64.443199 
L 206.01509 66.253516 
L 204.104004 68.146176 
L 202.294928 70.108659 
L 198.984229 74.174051 
L 196.04589 78.371648 
L 193.421165 82.681011 
L 191.092835 87.056968 
L 189.023717 91.477906 
L 187.159366 95.952308 
L 185.456779 100.49757 
L 183.901967 105.194826 
L 182.5518 110.060899 
L 181.488138 115.083371 
L 180.791255 120.255882 
L 180.609062 122.886656 
L 180.550747 125.57395 
L 180.634011 128.255981 
L 180.866114 130.987852 
L 181.259599 133.70926 
L 181.826037 136.455122 
L 182.575635 139.194548 
L 183.513914 141.914183 
L 184.648061 144.611599 
L 185.978536 147.268275 
L 187.201175 149.38602 
L 187.201175 149.38602 
" style="fill:none;stroke:#ffffff;stroke-linecap:square;"/>
   </g>
   <g id="patch_3">
    <path d="M 57.6 307.584 
L 57.6 41.472 
" style="fill:none;stroke:#000000;stroke-linecap:square;stroke-linejoin:miter;stroke-width:0.8;"/>
   </g>
   <g id="patch_4">
    <path d="M 414.72 307.584 
L 414.72 41.472 
" style="fill:none;stroke:#000000;stroke-linecap:square;stroke-linejoin:miter;stroke-width:0.8;"/>
   </g>
   <g id="patch_5">
    <path d="M 57.6 307.584 
L 414.72 307.584 
" style="fill:none;stroke:#000000;stroke-linecap:square;stroke-linejoin:miter;stroke-width:0.8;"/>
   </g>
   <g id="patch_6">
    <path d="M 57.6 41.472 
L 414.72 41.472 
" style="fill:none;stroke:#000000;stroke-linecap:square;stroke-linejoin:miter;stroke-width:0.8;"/>
   </g>
  </g>
 </g>
 <defs>
  <clipPath id="p225dd268e0">
   <rect height="266.112" width="357.12" x="57.6" y="41.472"/>
  </clipPath>
 </defs>
</svg>
