<?xml version="1.0" encoding="utf-8" standalone="no"?>
<!DOCTYPE svg PUBLIC "-//W3C//DTD SVG 1.1//EN"
  "http://www.w3.org/Graphics/SVG/1.1/DTD/svg11.dtd">
<!-- Created with matplotlib (https://matplotlib.org/) -->
<svg height="345.6pt" version="1.1" viewBox="0 0 460.8 345.6" width="460.8pt" xmlns="http://www.w3.org/2000/svg" xmlns:xlink="http://www.w3.org/1999/xlink">
 <metadata>
  <rdf:RDF xmlns:cc="http://creativecommons.org/ns#" xmlns:dc="http://purl.org/dc/elements/1.1/" xmlns:rdf="http://www.w3.org/1999/02/22-rdf-syntax-ns#">
   <cc:Work>
    <dc:type rdf:resource="http://purl.org/dc/dcmitype/StillImage"/>
    <dc:date>2021-01-23T11:46:09.192472</dc:date>
    <dc:format>image/svg+xml</dc:format>
    <dc:creator>
     <cc:Agent>
      <dc:title>Matplotlib v3.3.3, https://matplotlib.org/</dc:title>
     </cc:Agent>
    </dc:creator>
   </cc:Work>
  </rdf:RDF>
 </metadata>
 <defs>
  <style type="text/css">*{stroke-linecap:butt;stroke-linejoin:round;}</style>
 </defs>
 <g id="figure_1">
  <g id="patch_1">
   <path d="M 0 345.6 
L 460.8 345.6 
L 460.8 0 
L 0 0 
z
" style="fill:#ffffff;"/>
  </g>
  <g id="axes_1">
   <g id="patch_2">
    <path d="M 57.6 307.584 
L 414.72 307.584 
L 414.72 41.472 
L 57.6 41.472 
z
" style="fill:#7d9051;"/>
   </g>
   <g id="matplotlib.axis_1">
    <g id="xtick_1">
     <g id="line2d_1">
      <defs>
       <path d="M 0 0 
L 0 3.5 
" id="mb5fc2dbb11" style="stroke:#000000;stroke-width:0.8;"/>
      </defs>
      <g>
       <use style="stroke:#000000;stroke-width:0.8;" x="88.67028" xlink:href="#mb5fc2dbb11" y="307.584"/>
      </g>
     </g>
     <g id="text_1">
      <!-- 0 -->
      <g transform="translate(85.48903 322.182437)scale(0.1 -0.1)">
       <defs>
        <path d="M 31.78125 66.40625 
Q 24.171875 66.40625 20.328125 58.90625 
Q 16.5 51.421875 16.5 36.375 
Q 16.5 21.390625 20.328125 13.890625 
Q 24.171875 6.390625 31.78125 6.390625 
Q 39.453125 6.390625 43.28125 13.890625 
Q 47.125 21.390625 47.125 36.375 
Q 47.125 51.421875 43.28125 58.90625 
Q 39.453125 66.40625 31.78125 66.40625 
z
M 31.78125 74.21875 
Q 44.046875 74.21875 50.515625 64.515625 
Q 56.984375 54.828125 56.984375 36.375 
Q 56.984375 17.96875 50.515625 8.265625 
Q 44.046875 -1.421875 31.78125 -1.421875 
Q 19.53125 -1.421875 13.0625 8.265625 
Q 6.59375 17.96875 6.59375 36.375 
Q 6.59375 54.828125 13.0625 64.515625 
Q 19.53125 74.21875 31.78125 74.21875 
z
" id="DejaVuSans-48"/>
       </defs>
       <use xlink:href="#DejaVuSans-48"/>
      </g>
     </g>
    </g>
    <g id="xtick_2">
     <g id="line2d_2">
      <g>
       <use style="stroke:#000000;stroke-width:0.8;" x="142.190544" xlink:href="#mb5fc2dbb11" y="307.584"/>
      </g>
     </g>
     <g id="text_2">
      <!-- 20 -->
      <g transform="translate(135.828044 322.182437)scale(0.1 -0.1)">
       <defs>
        <path d="M 19.1875 8.296875 
L 53.609375 8.296875 
L 53.609375 0 
L 7.328125 0 
L 7.328125 8.296875 
Q 12.9375 14.109375 22.625 23.890625 
Q 32.328125 33.6875 34.8125 36.53125 
Q 39.546875 41.84375 41.421875 45.53125 
Q 43.3125 49.21875 43.3125 52.78125 
Q 43.3125 58.59375 39.234375 62.25 
Q 35.15625 65.921875 28.609375 65.921875 
Q 23.96875 65.921875 18.8125 64.3125 
Q 13.671875 62.703125 7.8125 59.421875 
L 7.8125 69.390625 
Q 13.765625 71.78125 18.9375 73 
Q 24.125 74.21875 28.421875 74.21875 
Q 39.75 74.21875 46.484375 68.546875 
Q 53.21875 62.890625 53.21875 53.421875 
Q 53.21875 48.921875 51.53125 44.890625 
Q 49.859375 40.875 45.40625 35.40625 
Q 44.1875 33.984375 37.640625 27.21875 
Q 31.109375 20.453125 19.1875 8.296875 
z
" id="DejaVuSans-50"/>
       </defs>
       <use xlink:href="#DejaVuSans-50"/>
       <use x="63.623047" xlink:href="#DejaVuSans-48"/>
      </g>
     </g>
    </g>
    <g id="xtick_3">
     <g id="line2d_3">
      <g>
       <use style="stroke:#000000;stroke-width:0.8;" x="195.710809" xlink:href="#mb5fc2dbb11" y="307.584"/>
      </g>
     </g>
     <g id="text_3">
      <!-- 40 -->
      <g transform="translate(189.348309 322.182437)scale(0.1 -0.1)">
       <defs>
        <path d="M 37.796875 64.3125 
L 12.890625 25.390625 
L 37.796875 25.390625 
z
M 35.203125 72.90625 
L 47.609375 72.90625 
L 47.609375 25.390625 
L 58.015625 25.390625 
L 58.015625 17.1875 
L 47.609375 17.1875 
L 47.609375 0 
L 37.796875 0 
L 37.796875 17.1875 
L 4.890625 17.1875 
L 4.890625 26.703125 
z
" id="DejaVuSans-52"/>
       </defs>
       <use xlink:href="#DejaVuSans-52"/>
       <use x="63.623047" xlink:href="#DejaVuSans-48"/>
      </g>
     </g>
    </g>
    <g id="xtick_4">
     <g id="line2d_4">
      <g>
       <use style="stroke:#000000;stroke-width:0.8;" x="249.231074" xlink:href="#mb5fc2dbb11" y="307.584"/>
      </g>
     </g>
     <g id="text_4">
      <!-- 60 -->
      <g transform="translate(242.868574 322.182437)scale(0.1 -0.1)">
       <defs>
        <path d="M 33.015625 40.375 
Q 26.375 40.375 22.484375 35.828125 
Q 18.609375 31.296875 18.609375 23.390625 
Q 18.609375 15.53125 22.484375 10.953125 
Q 26.375 6.390625 33.015625 6.390625 
Q 39.65625 6.390625 43.53125 10.953125 
Q 47.40625 15.53125 47.40625 23.390625 
Q 47.40625 31.296875 43.53125 35.828125 
Q 39.65625 40.375 33.015625 40.375 
z
M 52.59375 71.296875 
L 52.59375 62.3125 
Q 48.875 64.0625 45.09375 64.984375 
Q 41.3125 65.921875 37.59375 65.921875 
Q 27.828125 65.921875 22.671875 59.328125 
Q 17.53125 52.734375 16.796875 39.40625 
Q 19.671875 43.65625 24.015625 45.921875 
Q 28.375 48.1875 33.59375 48.1875 
Q 44.578125 48.1875 50.953125 41.515625 
Q 57.328125 34.859375 57.328125 23.390625 
Q 57.328125 12.15625 50.6875 5.359375 
Q 44.046875 -1.421875 33.015625 -1.421875 
Q 20.359375 -1.421875 13.671875 8.265625 
Q 6.984375 17.96875 6.984375 36.375 
Q 6.984375 53.65625 15.1875 63.9375 
Q 23.390625 74.21875 37.203125 74.21875 
Q 40.921875 74.21875 44.703125 73.484375 
Q 48.484375 72.75 52.59375 71.296875 
z
" id="DejaVuSans-54"/>
       </defs>
       <use xlink:href="#DejaVuSans-54"/>
       <use x="63.623047" xlink:href="#DejaVuSans-48"/>
      </g>
     </g>
    </g>
    <g id="xtick_5">
     <g id="line2d_5">
      <g>
       <use style="stroke:#000000;stroke-width:0.8;" x="302.751338" xlink:href="#mb5fc2dbb11" y="307.584"/>
      </g>
     </g>
     <g id="text_5">
      <!-- 80 -->
      <g transform="translate(296.388838 322.182437)scale(0.1 -0.1)">
       <defs>
        <path d="M 31.78125 34.625 
Q 24.75 34.625 20.71875 30.859375 
Q 16.703125 27.09375 16.703125 20.515625 
Q 16.703125 13.921875 20.71875 10.15625 
Q 24.75 6.390625 31.78125 6.390625 
Q 38.8125 6.390625 42.859375 10.171875 
Q 46.921875 13.96875 46.921875 20.515625 
Q 46.921875 27.09375 42.890625 30.859375 
Q 38.875 34.625 31.78125 34.625 
z
M 21.921875 38.8125 
Q 15.578125 40.375 12.03125 44.71875 
Q 8.5 49.078125 8.5 55.328125 
Q 8.5 64.0625 14.71875 69.140625 
Q 20.953125 74.21875 31.78125 74.21875 
Q 42.671875 74.21875 48.875 69.140625 
Q 55.078125 64.0625 55.078125 55.328125 
Q 55.078125 49.078125 51.53125 44.71875 
Q 48 40.375 41.703125 38.8125 
Q 48.828125 37.15625 52.796875 32.3125 
Q 56.78125 27.484375 56.78125 20.515625 
Q 56.78125 9.90625 50.3125 4.234375 
Q 43.84375 -1.421875 31.78125 -1.421875 
Q 19.734375 -1.421875 13.25 4.234375 
Q 6.78125 9.90625 6.78125 20.515625 
Q 6.78125 27.484375 10.78125 32.3125 
Q 14.796875 37.15625 21.921875 38.8125 
z
M 18.3125 54.390625 
Q 18.3125 48.734375 21.84375 45.5625 
Q 25.390625 42.390625 31.78125 42.390625 
Q 38.140625 42.390625 41.71875 45.5625 
Q 45.3125 48.734375 45.3125 54.390625 
Q 45.3125 60.0625 41.71875 63.234375 
Q 38.140625 66.40625 31.78125 66.40625 
Q 25.390625 66.40625 21.84375 63.234375 
Q 18.3125 60.0625 18.3125 54.390625 
z
" id="DejaVuSans-56"/>
       </defs>
       <use xlink:href="#DejaVuSans-56"/>
       <use x="63.623047" xlink:href="#DejaVuSans-48"/>
      </g>
     </g>
    </g>
    <g id="xtick_6">
     <g id="line2d_6">
      <g>
       <use style="stroke:#000000;stroke-width:0.8;" x="356.271603" xlink:href="#mb5fc2dbb11" y="307.584"/>
      </g>
     </g>
     <g id="text_6">
      <!-- 100 -->
      <g transform="translate(346.727853 322.182437)scale(0.1 -0.1)">
       <defs>
        <path d="M 12.40625 8.296875 
L 28.515625 8.296875 
L 28.515625 63.921875 
L 10.984375 60.40625 
L 10.984375 69.390625 
L 28.421875 72.90625 
L 38.28125 72.90625 
L 38.28125 8.296875 
L 54.390625 8.296875 
L 54.390625 0 
L 12.40625 0 
z
" id="DejaVuSans-49"/>
       </defs>
       <use xlink:href="#DejaVuSans-49"/>
       <use x="63.623047" xlink:href="#DejaVuSans-48"/>
       <use x="127.246094" xlink:href="#DejaVuSans-48"/>
      </g>
     </g>
    </g>
    <g id="xtick_7">
     <g id="line2d_7">
      <g>
       <use style="stroke:#000000;stroke-width:0.8;" x="409.791867" xlink:href="#mb5fc2dbb11" y="307.584"/>
      </g>
     </g>
     <g id="text_7">
      <!-- 120 -->
      <g transform="translate(400.248117 322.182437)scale(0.1 -0.1)">
       <use xlink:href="#DejaVuSans-49"/>
       <use x="63.623047" xlink:href="#DejaVuSans-50"/>
       <use x="127.246094" xlink:href="#DejaVuSans-48"/>
      </g>
     </g>
    </g>
   </g>
   <g id="matplotlib.axis_2">
    <g id="ytick_1">
     <g id="line2d_8">
      <defs>
       <path d="M 0 0 
L -3.5 0 
" id="md44f54e72e" style="stroke:#000000;stroke-width:0.8;"/>
      </defs>
      <g>
       <use style="stroke:#000000;stroke-width:0.8;" x="57.6" xlink:href="#md44f54e72e" y="265.806813"/>
      </g>
     </g>
     <g id="text_8">
      <!-- 20 -->
      <g transform="translate(37.875 269.606032)scale(0.1 -0.1)">
       <use xlink:href="#DejaVuSans-50"/>
       <use x="63.623047" xlink:href="#DejaVuSans-48"/>
      </g>
     </g>
    </g>
    <g id="ytick_2">
     <g id="line2d_9">
      <g>
       <use style="stroke:#000000;stroke-width:0.8;" x="57.6" xlink:href="#md44f54e72e" y="212.286548"/>
      </g>
     </g>
     <g id="text_9">
      <!-- 40 -->
      <g transform="translate(37.875 216.085767)scale(0.1 -0.1)">
       <use xlink:href="#DejaVuSans-52"/>
       <use x="63.623047" xlink:href="#DejaVuSans-48"/>
      </g>
     </g>
    </g>
    <g id="ytick_3">
     <g id="line2d_10">
      <g>
       <use style="stroke:#000000;stroke-width:0.8;" x="57.6" xlink:href="#md44f54e72e" y="158.766284"/>
      </g>
     </g>
     <g id="text_10">
      <!-- 60 -->
      <g transform="translate(37.875 162.565503)scale(0.1 -0.1)">
       <use xlink:href="#DejaVuSans-54"/>
       <use x="63.623047" xlink:href="#DejaVuSans-48"/>
      </g>
     </g>
    </g>
    <g id="ytick_4">
     <g id="line2d_11">
      <g>
       <use style="stroke:#000000;stroke-width:0.8;" x="57.6" xlink:href="#md44f54e72e" y="105.246019"/>
      </g>
     </g>
     <g id="text_11">
      <!-- 80 -->
      <g transform="translate(37.875 109.045238)scale(0.1 -0.1)">
       <use xlink:href="#DejaVuSans-56"/>
       <use x="63.623047" xlink:href="#DejaVuSans-48"/>
      </g>
     </g>
    </g>
    <g id="ytick_5">
     <g id="line2d_12">
      <g>
       <use style="stroke:#000000;stroke-width:0.8;" x="57.6" xlink:href="#md44f54e72e" y="51.725755"/>
      </g>
     </g>
     <g id="text_12">
      <!-- 100 -->
      <g transform="translate(31.5125 55.524973)scale(0.1 -0.1)">
       <use xlink:href="#DejaVuSans-49"/>
       <use x="63.623047" xlink:href="#DejaVuSans-48"/>
       <use x="127.246094" xlink:href="#DejaVuSans-48"/>
      </g>
     </g>
    </g>
   </g>
   <g id="line2d_13">
    <path clip-path="url(#p07dd9612f7)" d="M 115.430412 292.566945 
L 114.691832 289.963184 
L 114.127194 287.319283 
L 113.731144 284.645946 
L 113.501006 281.945849 
L 113.436782 279.235047 
L 113.530443 276.52157 
L 113.781988 273.810769 
L 114.188742 271.116023 
L 114.745353 268.445362 
L 115.45182 265.806813 
L 116.302792 263.21108 
L 117.292917 260.668868 
L 118.422195 258.185527 
L 119.687949 255.774439 
L 121.084828 253.443632 
L 122.610155 251.201133 
L 124.263932 249.057646 
L 126.038128 247.0212 
L 127.932746 245.102499 
L 129.942432 243.30957 
L 132.06451 241.650442 
L 134.290953 240.12779 
L 136.608381 238.738939 
L 139.006089 237.483889 
L 141.476049 236.359963 
L 144.007557 235.369839 
L 146.587234 234.513514 
L 149.207051 233.785639 
L 151.853628 233.188888 
L 154.518937 232.723261 
L 157.19495 232.383408 
L 159.87364 232.166651 
L 165.241722 232.05961 
L 170.604453 232.33524 
L 175.951127 232.923962 
L 181.260337 233.761555 
L 186.521379 234.781116 
L 194.351394 236.547284 
L 217.79327 242.137476 
L 223.054312 243.154361 
L 228.342114 243.997305 
L 233.654 244.620816 
L 238.992647 244.995458 
L 244.350025 245.129259 
L 249.712756 245.04095 
L 255.070134 244.751941 
L 260.411457 244.280963 
L 265.728695 243.6521 
L 273.663074 242.466626 
L 284.206566 240.585388 
L 294.736679 238.511478 
L 299.968284 237.32868 
L 305.14637 235.961237 
L 310.244175 234.347602 
L 315.245644 232.423548 
L 320.118664 230.159641 
L 324.831123 227.563908 
L 329.356262 224.647054 
L 333.661967 221.417106 
L 337.716127 217.882092 
L 341.494658 214.058069 
L 344.976151 209.961093 
L 348.136523 205.604543 
L 350.95704 201.009829 
L 352.233499 198.628177 
L 354.497406 193.706989 
L 355.474151 191.180832 
L 356.341179 188.614535 
L 357.090463 186.013451 
L 357.719326 183.388282 
L 358.217064 180.739028 
L 358.581002 178.071043 
L 358.803111 175.392354 
L 358.880716 172.705637 
L 358.808463 170.018919 
L 358.58903 167.334878 
L 358.225092 164.661541 
L 357.724678 162.009612 
L 357.090463 159.379091 
L 356.327799 156.778006 
L 355.442039 154.217061 
L 354.438534 151.698933 
L 353.322636 149.231649 
L 352.097022 146.820561 
L 350.764368 144.473697 
L 349.338052 142.188382 
L 346.207117 137.810424 
L 342.752384 133.684012 
L 339.019345 129.811821 
L 335.053494 126.191175 
L 330.894969 122.81137 
L 326.589264 119.634942 
L 319.936695 115.133888 
L 297.466212 100.554968 
L 290.912656 95.930817 
L 284.51966 91.084557 
L 278.260465 86.053652 
L 270.058484 79.160242 
L 249.661912 61.835733 
L 249.661912 61.835733 
" style="fill:none;stroke:#fea952;stroke-linecap:square;"/>
   </g>
   <g id="line2d_14">
    <path clip-path="url(#p07dd9612f7)" d="M 105.132636 295.488 
L 104.223836 292.198759 
L 103.538707 288.887948 
L 103.065761 285.554988 
L 102.799956 282.199378 
L 102.7391 278.865798 
L 102.872179 275.53255 
L 103.19783 272.21316 
L 103.709858 268.932048 
L 104.405513 265.676886 
L 105.280411 262.472269 
L 106.328537 259.32637 
L 107.549026 256.237917 
L 108.944741 253.210127 
L 110.50651 250.271901 
L 112.234149 247.42348 
L 114.135315 244.662492 
L 116.193219 242.026263 
L 118.421568 239.500245 
L 120.806849 237.115112 
L 123.34945 234.876934 
L 126.022007 232.815007 
L 128.788442 230.946335 
L 131.644394 229.255502 
L 134.572744 227.741086 
L 137.577088 226.39127 
L 140.635287 225.210875 
L 143.721817 224.200119 
L 146.852608 223.343735 
L 150.011542 222.644531 
L 153.170355 222.104501 
L 156.33161 221.714228 
L 159.457745 221.47068 
L 162.547009 221.358239 
L 168.647843 221.473782 
L 174.589796 221.971141 
L 180.391563 222.759726 
L 186.013956 223.758796 
L 194.199879 225.515109 
L 204.719757 228.077139 
L 214.905474 230.546374 
L 222.36791 232.141799 
L 227.279717 233.015079 
L 232.118497 233.695007 
L 236.939721 234.154191 
L 241.831719 234.386267 
L 246.753734 234.410076 
L 251.7211 234.237656 
L 256.717536 233.883086 
L 264.26141 233.049089 
L 271.885981 231.911121 
L 282.208128 230.069543 
L 292.450849 228.05434 
L 297.33695 226.953092 
L 302.061741 225.711271 
L 306.56554 224.295517 
L 310.894359 222.643821 
L 315.11575 220.696682 
L 319.191502 218.466028 
L 323.09147 215.967818 
L 326.782201 213.216766 
L 330.249089 210.212666 
L 333.471464 206.972513 
L 336.435964 203.508034 
L 339.130086 199.820008 
L 341.522578 195.953381 
L 343.603146 191.908818 
L 345.333225 187.754701 
L 346.680919 183.519829 
L 347.611231 179.292295 
L 348.103521 175.083302 
L 348.180531 172.993391 
L 348.140004 170.891117 
L 347.982809 168.778768 
L 347.706667 166.64635 
L 346.818843 162.390831 
L 345.498482 158.17969 
L 343.780622 154.082084 
L 341.683766 150.141098 
L 339.234306 146.36585 
L 336.441215 142.738878 
L 333.339768 139.275398 
L 329.973028 135.98718 
L 326.354616 132.868027 
L 322.490436 129.879229 
L 318.400506 126.97687 
L 311.917321 122.694631 
L 293.685234 110.92011 
L 286.820151 106.176247 
L 280.078384 101.184218 
L 273.563157 96.037765 
L 265.150884 89.043347 
L 242.863283 70.103465 
L 242.863283 70.103465 
" style="fill:none;stroke:#ffffff;stroke-linecap:square;"/>
   </g>
   <g id="line2d_15">
    <path clip-path="url(#p07dd9612f7)" d="M 125.728188 289.645891 
L 125.159829 287.72761 
L 124.71568 285.750619 
L 124.396526 283.736905 
L 124.202056 281.69232 
L 124.134464 279.604297 
L 124.188706 277.51059 
L 124.366146 275.408377 
L 124.667625 273.299999 
L 125.085192 271.213838 
L 125.623229 269.141357 
L 126.277048 267.09579 
L 127.036809 265.099818 
L 127.899649 263.160928 
L 128.869388 261.276978 
L 129.935507 259.463784 
L 131.084996 257.739774 
L 132.334644 256.089029 
L 133.654689 254.542155 
L 135.058643 253.089885 
L 136.535413 251.742206 
L 138.107013 250.485876 
L 139.793465 249.309245 
L 141.572367 248.222377 
L 143.439433 247.226692 
L 145.375009 246.328657 
L 147.379827 245.528802 
L 151.561494 244.227542 
L 155.86752 243.342022 
L 160.289535 242.862621 
L 164.868056 242.757139 
L 169.57101 242.989288 
L 174.395592 243.514386 
L 179.305123 244.285522 
L 184.274184 245.246624 
L 191.823388 246.948531 
L 212.938676 252.046356 
L 218.47432 253.192855 
L 224.111357 254.187431 
L 229.86959 254.984662 
L 235.698898 255.526308 
L 241.510954 255.79197 
L 247.309047 255.810978 
L 253.067142 255.603404 
L 258.769408 255.192634 
L 264.412305 254.606673 
L 272.713823 253.458919 
L 280.863594 252.088792 
L 294.27577 249.537129 
L 302.599619 247.704268 
L 308.230999 246.211204 
L 313.92281 244.399686 
L 319.596929 242.203275 
L 325.121578 239.6226 
L 330.470745 236.661788 
L 335.621053 233.326289 
L 338.119646 231.51384 
L 340.541733 229.617445 
L 342.909563 227.620792 
L 345.183165 225.551518 
L 347.40116 223.380858 
L 349.517852 221.143626 
L 351.561533 218.817761 
L 353.516337 216.414152 
L 355.382876 213.930439 
L 357.142959 211.389079 
L 358.826638 208.751208 
L 360.391503 206.066277 
L 361.868048 203.292103 
L 363.224095 200.47184 
L 364.481157 197.567231 
L 365.615076 194.606963 
L 366.626969 191.57752 
L 367.500007 188.507072 
L 368.239319 185.364765 
L 368.822898 182.185762 
L 369.248447 178.955557 
L 369.502702 175.701406 
L 369.5809 172.417883 
L 369.476922 169.146722 
L 369.195252 165.890988 
L 368.743518 162.676732 
L 368.130563 159.500767 
L 367.362082 156.367351 
L 366.443859 153.279139 
L 365.385595 150.254432 
L 364.191459 147.287902 
L 362.86465 144.381213 
L 361.405078 141.535029 
L 359.844969 138.806296 
L 358.166702 136.13597 
L 356.396496 133.568732 
L 354.54164 131.093842 
L 352.59589 128.691334 
L 348.498861 124.158887 
L 344.153332 119.948915 
L 339.636663 116.078321 
L 335.028585 112.526943 
L 330.384008 109.237008 
L 323.455015 104.661643 
L 305.678668 93.186961 
L 299.340301 88.81097 
L 293.189037 84.260336 
L 287.105594 79.457373 
L 279.044329 72.755954 
L 256.46054 53.568 
L 256.46054 53.568 
" style="fill:none;stroke:#ffffff;stroke-linecap:square;"/>
   </g>
   <g id="patch_3">
    <path d="M 57.6 307.584 
L 57.6 41.472 
" style="fill:none;stroke:#000000;stroke-linecap:square;stroke-linejoin:miter;stroke-width:0.8;"/>
   </g>
   <g id="patch_4">
    <path d="M 414.72 307.584 
L 414.72 41.472 
" style="fill:none;stroke:#000000;stroke-linecap:square;stroke-linejoin:miter;stroke-width:0.8;"/>
   </g>
   <g id="patch_5">
    <path d="M 57.6 307.584 
L 414.72 307.584 
" style="fill:none;stroke:#000000;stroke-linecap:square;stroke-linejoin:miter;stroke-width:0.8;"/>
   </g>
   <g id="patch_6">
    <path d="M 57.6 41.472 
L 414.72 41.472 
" style="fill:none;stroke:#000000;stroke-linecap:square;stroke-linejoin:miter;stroke-width:0.8;"/>
   </g>
  </g>
 </g>
 <defs>
  <clipPath id="p07dd9612f7">
   <rect height="266.112" width="357.12" x="57.6" y="41.472"/>
  </clipPath>
 </defs>
</svg>
