<?xml version="1.0" encoding="utf-8" standalone="no"?>
<!DOCTYPE svg PUBLIC "-//W3C//DTD SVG 1.1//EN"
  "http://www.w3.org/Graphics/SVG/1.1/DTD/svg11.dtd">
<!-- Created with matplotlib (https://matplotlib.org/) -->
<svg height="345.6pt" version="1.1" viewBox="0 0 460.8 345.6" width="460.8pt" xmlns="http://www.w3.org/2000/svg" xmlns:xlink="http://www.w3.org/1999/xlink">
 <metadata>
  <rdf:RDF xmlns:cc="http://creativecommons.org/ns#" xmlns:dc="http://purl.org/dc/elements/1.1/" xmlns:rdf="http://www.w3.org/1999/02/22-rdf-syntax-ns#">
   <cc:Work>
    <dc:type rdf:resource="http://purl.org/dc/dcmitype/StillImage"/>
    <dc:date>2021-01-25T11:16:53.492963</dc:date>
    <dc:format>image/svg+xml</dc:format>
    <dc:creator>
     <cc:Agent>
      <dc:title>Matplotlib v3.3.3, https://matplotlib.org/</dc:title>
     </cc:Agent>
    </dc:creator>
   </cc:Work>
  </rdf:RDF>
 </metadata>
 <defs>
  <style type="text/css">*{stroke-linecap:butt;stroke-linejoin:round;}</style>
 </defs>
 <g id="figure_1">
  <g id="patch_1">
   <path d="M 0 345.6 
L 460.8 345.6 
L 460.8 0 
L 0 0 
z
" style="fill:#ffffff;"/>
  </g>
  <g id="axes_1">
   <g id="patch_2">
    <path d="M 57.6 307.584 
L 414.72 307.584 
L 414.72 41.472 
L 57.6 41.472 
z
" style="fill:#7d9051;"/>
   </g>
   <g id="matplotlib.axis_1">
    <g id="xtick_1">
     <g id="line2d_1">
      <defs>
       <path d="M 0 0 
L 0 3.5 
" id="me89dd694d4" style="stroke:#000000;stroke-width:0.8;"/>
      </defs>
      <g>
       <use style="stroke:#000000;stroke-width:0.8;" x="83.282307" xlink:href="#me89dd694d4" y="307.584"/>
      </g>
     </g>
     <g id="text_1">
      <!-- 0 -->
      <g transform="translate(80.101057 322.182437)scale(0.1 -0.1)">
       <defs>
        <path d="M 31.78125 66.40625 
Q 24.171875 66.40625 20.328125 58.90625 
Q 16.5 51.421875 16.5 36.375 
Q 16.5 21.390625 20.328125 13.890625 
Q 24.171875 6.390625 31.78125 6.390625 
Q 39.453125 6.390625 43.28125 13.890625 
Q 47.125 21.390625 47.125 36.375 
Q 47.125 51.421875 43.28125 58.90625 
Q 39.453125 66.40625 31.78125 66.40625 
z
M 31.78125 74.21875 
Q 44.046875 74.21875 50.515625 64.515625 
Q 56.984375 54.828125 56.984375 36.375 
Q 56.984375 17.96875 50.515625 8.265625 
Q 44.046875 -1.421875 31.78125 -1.421875 
Q 19.53125 -1.421875 13.0625 8.265625 
Q 6.59375 17.96875 6.59375 36.375 
Q 6.59375 54.828125 13.0625 64.515625 
Q 19.53125 74.21875 31.78125 74.21875 
z
" id="DejaVuSans-48"/>
       </defs>
       <use xlink:href="#DejaVuSans-48"/>
      </g>
     </g>
    </g>
    <g id="xtick_2">
     <g id="line2d_2">
      <g>
       <use style="stroke:#000000;stroke-width:0.8;" x="152.664747" xlink:href="#me89dd694d4" y="307.584"/>
      </g>
     </g>
     <g id="text_2">
      <!-- 20 -->
      <g transform="translate(146.302247 322.182437)scale(0.1 -0.1)">
       <defs>
        <path d="M 19.1875 8.296875 
L 53.609375 8.296875 
L 53.609375 0 
L 7.328125 0 
L 7.328125 8.296875 
Q 12.9375 14.109375 22.625 23.890625 
Q 32.328125 33.6875 34.8125 36.53125 
Q 39.546875 41.84375 41.421875 45.53125 
Q 43.3125 49.21875 43.3125 52.78125 
Q 43.3125 58.59375 39.234375 62.25 
Q 35.15625 65.921875 28.609375 65.921875 
Q 23.96875 65.921875 18.8125 64.3125 
Q 13.671875 62.703125 7.8125 59.421875 
L 7.8125 69.390625 
Q 13.765625 71.78125 18.9375 73 
Q 24.125 74.21875 28.421875 74.21875 
Q 39.75 74.21875 46.484375 68.546875 
Q 53.21875 62.890625 53.21875 53.421875 
Q 53.21875 48.921875 51.53125 44.890625 
Q 49.859375 40.875 45.40625 35.40625 
Q 44.1875 33.984375 37.640625 27.21875 
Q 31.109375 20.453125 19.1875 8.296875 
z
" id="DejaVuSans-50"/>
       </defs>
       <use xlink:href="#DejaVuSans-50"/>
       <use x="63.623047" xlink:href="#DejaVuSans-48"/>
      </g>
     </g>
    </g>
    <g id="xtick_3">
     <g id="line2d_3">
      <g>
       <use style="stroke:#000000;stroke-width:0.8;" x="222.047186" xlink:href="#me89dd694d4" y="307.584"/>
      </g>
     </g>
     <g id="text_3">
      <!-- 40 -->
      <g transform="translate(215.684686 322.182437)scale(0.1 -0.1)">
       <defs>
        <path d="M 37.796875 64.3125 
L 12.890625 25.390625 
L 37.796875 25.390625 
z
M 35.203125 72.90625 
L 47.609375 72.90625 
L 47.609375 25.390625 
L 58.015625 25.390625 
L 58.015625 17.1875 
L 47.609375 17.1875 
L 47.609375 0 
L 37.796875 0 
L 37.796875 17.1875 
L 4.890625 17.1875 
L 4.890625 26.703125 
z
" id="DejaVuSans-52"/>
       </defs>
       <use xlink:href="#DejaVuSans-52"/>
       <use x="63.623047" xlink:href="#DejaVuSans-48"/>
      </g>
     </g>
    </g>
    <g id="xtick_4">
     <g id="line2d_4">
      <g>
       <use style="stroke:#000000;stroke-width:0.8;" x="291.429626" xlink:href="#me89dd694d4" y="307.584"/>
      </g>
     </g>
     <g id="text_4">
      <!-- 60 -->
      <g transform="translate(285.067126 322.182437)scale(0.1 -0.1)">
       <defs>
        <path d="M 33.015625 40.375 
Q 26.375 40.375 22.484375 35.828125 
Q 18.609375 31.296875 18.609375 23.390625 
Q 18.609375 15.53125 22.484375 10.953125 
Q 26.375 6.390625 33.015625 6.390625 
Q 39.65625 6.390625 43.53125 10.953125 
Q 47.40625 15.53125 47.40625 23.390625 
Q 47.40625 31.296875 43.53125 35.828125 
Q 39.65625 40.375 33.015625 40.375 
z
M 52.59375 71.296875 
L 52.59375 62.3125 
Q 48.875 64.0625 45.09375 64.984375 
Q 41.3125 65.921875 37.59375 65.921875 
Q 27.828125 65.921875 22.671875 59.328125 
Q 17.53125 52.734375 16.796875 39.40625 
Q 19.671875 43.65625 24.015625 45.921875 
Q 28.375 48.1875 33.59375 48.1875 
Q 44.578125 48.1875 50.953125 41.515625 
Q 57.328125 34.859375 57.328125 23.390625 
Q 57.328125 12.15625 50.6875 5.359375 
Q 44.046875 -1.421875 33.015625 -1.421875 
Q 20.359375 -1.421875 13.671875 8.265625 
Q 6.984375 17.96875 6.984375 36.375 
Q 6.984375 53.65625 15.1875 63.9375 
Q 23.390625 74.21875 37.203125 74.21875 
Q 40.921875 74.21875 44.703125 73.484375 
Q 48.484375 72.75 52.59375 71.296875 
z
" id="DejaVuSans-54"/>
       </defs>
       <use xlink:href="#DejaVuSans-54"/>
       <use x="63.623047" xlink:href="#DejaVuSans-48"/>
      </g>
     </g>
    </g>
    <g id="xtick_5">
     <g id="line2d_5">
      <g>
       <use style="stroke:#000000;stroke-width:0.8;" x="360.812065" xlink:href="#me89dd694d4" y="307.584"/>
      </g>
     </g>
     <g id="text_5">
      <!-- 80 -->
      <g transform="translate(354.449565 322.182437)scale(0.1 -0.1)">
       <defs>
        <path d="M 31.78125 34.625 
Q 24.75 34.625 20.71875 30.859375 
Q 16.703125 27.09375 16.703125 20.515625 
Q 16.703125 13.921875 20.71875 10.15625 
Q 24.75 6.390625 31.78125 6.390625 
Q 38.8125 6.390625 42.859375 10.171875 
Q 46.921875 13.96875 46.921875 20.515625 
Q 46.921875 27.09375 42.890625 30.859375 
Q 38.875 34.625 31.78125 34.625 
z
M 21.921875 38.8125 
Q 15.578125 40.375 12.03125 44.71875 
Q 8.5 49.078125 8.5 55.328125 
Q 8.5 64.0625 14.71875 69.140625 
Q 20.953125 74.21875 31.78125 74.21875 
Q 42.671875 74.21875 48.875 69.140625 
Q 55.078125 64.0625 55.078125 55.328125 
Q 55.078125 49.078125 51.53125 44.71875 
Q 48 40.375 41.703125 38.8125 
Q 48.828125 37.15625 52.796875 32.3125 
Q 56.78125 27.484375 56.78125 20.515625 
Q 56.78125 9.90625 50.3125 4.234375 
Q 43.84375 -1.421875 31.78125 -1.421875 
Q 19.734375 -1.421875 13.25 4.234375 
Q 6.78125 9.90625 6.78125 20.515625 
Q 6.78125 27.484375 10.78125 32.3125 
Q 14.796875 37.15625 21.921875 38.8125 
z
M 18.3125 54.390625 
Q 18.3125 48.734375 21.84375 45.5625 
Q 25.390625 42.390625 31.78125 42.390625 
Q 38.140625 42.390625 41.71875 45.5625 
Q 45.3125 48.734375 45.3125 54.390625 
Q 45.3125 60.0625 41.71875 63.234375 
Q 38.140625 66.40625 31.78125 66.40625 
Q 25.390625 66.40625 21.84375 63.234375 
Q 18.3125 60.0625 18.3125 54.390625 
z
" id="DejaVuSans-56"/>
       </defs>
       <use xlink:href="#DejaVuSans-56"/>
       <use x="63.623047" xlink:href="#DejaVuSans-48"/>
      </g>
     </g>
    </g>
   </g>
   <g id="matplotlib.axis_2">
    <g id="ytick_1">
     <g id="line2d_6">
      <defs>
       <path d="M 0 0 
L -3.5 0 
" id="m1e3488411b" style="stroke:#000000;stroke-width:0.8;"/>
      </defs>
      <g>
       <use style="stroke:#000000;stroke-width:0.8;" x="57.6" xlink:href="#m1e3488411b" y="281.312268"/>
      </g>
     </g>
     <g id="text_6">
      <!-- 10 -->
      <g transform="translate(37.875 285.111487)scale(0.1 -0.1)">
       <defs>
        <path d="M 12.40625 8.296875 
L 28.515625 8.296875 
L 28.515625 63.921875 
L 10.984375 60.40625 
L 10.984375 69.390625 
L 28.421875 72.90625 
L 38.28125 72.90625 
L 38.28125 8.296875 
L 54.390625 8.296875 
L 54.390625 0 
L 12.40625 0 
z
" id="DejaVuSans-49"/>
       </defs>
       <use xlink:href="#DejaVuSans-49"/>
       <use x="63.623047" xlink:href="#DejaVuSans-48"/>
      </g>
     </g>
    </g>
    <g id="ytick_2">
     <g id="line2d_7">
      <g>
       <use style="stroke:#000000;stroke-width:0.8;" x="57.6" xlink:href="#m1e3488411b" y="246.621048"/>
      </g>
     </g>
     <g id="text_7">
      <!-- 20 -->
      <g transform="translate(37.875 250.420267)scale(0.1 -0.1)">
       <use xlink:href="#DejaVuSans-50"/>
       <use x="63.623047" xlink:href="#DejaVuSans-48"/>
      </g>
     </g>
    </g>
    <g id="ytick_3">
     <g id="line2d_8">
      <g>
       <use style="stroke:#000000;stroke-width:0.8;" x="57.6" xlink:href="#m1e3488411b" y="211.929829"/>
      </g>
     </g>
     <g id="text_8">
      <!-- 30 -->
      <g transform="translate(37.875 215.729047)scale(0.1 -0.1)">
       <defs>
        <path d="M 40.578125 39.3125 
Q 47.65625 37.796875 51.625 33 
Q 55.609375 28.21875 55.609375 21.1875 
Q 55.609375 10.40625 48.1875 4.484375 
Q 40.765625 -1.421875 27.09375 -1.421875 
Q 22.515625 -1.421875 17.65625 -0.515625 
Q 12.796875 0.390625 7.625 2.203125 
L 7.625 11.71875 
Q 11.71875 9.328125 16.59375 8.109375 
Q 21.484375 6.890625 26.8125 6.890625 
Q 36.078125 6.890625 40.9375 10.546875 
Q 45.796875 14.203125 45.796875 21.1875 
Q 45.796875 27.640625 41.28125 31.265625 
Q 36.765625 34.90625 28.71875 34.90625 
L 20.21875 34.90625 
L 20.21875 43.015625 
L 29.109375 43.015625 
Q 36.375 43.015625 40.234375 45.921875 
Q 44.09375 48.828125 44.09375 54.296875 
Q 44.09375 59.90625 40.109375 62.90625 
Q 36.140625 65.921875 28.71875 65.921875 
Q 24.65625 65.921875 20.015625 65.03125 
Q 15.375 64.15625 9.8125 62.3125 
L 9.8125 71.09375 
Q 15.4375 72.65625 20.34375 73.4375 
Q 25.25 74.21875 29.59375 74.21875 
Q 40.828125 74.21875 47.359375 69.109375 
Q 53.90625 64.015625 53.90625 55.328125 
Q 53.90625 49.265625 50.4375 45.09375 
Q 46.96875 40.921875 40.578125 39.3125 
z
" id="DejaVuSans-51"/>
       </defs>
       <use xlink:href="#DejaVuSans-51"/>
       <use x="63.623047" xlink:href="#DejaVuSans-48"/>
      </g>
     </g>
    </g>
    <g id="ytick_4">
     <g id="line2d_9">
      <g>
       <use style="stroke:#000000;stroke-width:0.8;" x="57.6" xlink:href="#m1e3488411b" y="177.238609"/>
      </g>
     </g>
     <g id="text_9">
      <!-- 40 -->
      <g transform="translate(37.875 181.037828)scale(0.1 -0.1)">
       <use xlink:href="#DejaVuSans-52"/>
       <use x="63.623047" xlink:href="#DejaVuSans-48"/>
      </g>
     </g>
    </g>
    <g id="ytick_5">
     <g id="line2d_10">
      <g>
       <use style="stroke:#000000;stroke-width:0.8;" x="57.6" xlink:href="#m1e3488411b" y="142.547389"/>
      </g>
     </g>
     <g id="text_10">
      <!-- 50 -->
      <g transform="translate(37.875 146.346608)scale(0.1 -0.1)">
       <defs>
        <path d="M 10.796875 72.90625 
L 49.515625 72.90625 
L 49.515625 64.59375 
L 19.828125 64.59375 
L 19.828125 46.734375 
Q 21.96875 47.46875 24.109375 47.828125 
Q 26.265625 48.1875 28.421875 48.1875 
Q 40.625 48.1875 47.75 41.5 
Q 54.890625 34.8125 54.890625 23.390625 
Q 54.890625 11.625 47.5625 5.09375 
Q 40.234375 -1.421875 26.90625 -1.421875 
Q 22.3125 -1.421875 17.546875 -0.640625 
Q 12.796875 0.140625 7.71875 1.703125 
L 7.71875 11.625 
Q 12.109375 9.234375 16.796875 8.0625 
Q 21.484375 6.890625 26.703125 6.890625 
Q 35.15625 6.890625 40.078125 11.328125 
Q 45.015625 15.765625 45.015625 23.390625 
Q 45.015625 31 40.078125 35.4375 
Q 35.15625 39.890625 26.703125 39.890625 
Q 22.75 39.890625 18.8125 39.015625 
Q 14.890625 38.140625 10.796875 36.28125 
z
" id="DejaVuSans-53"/>
       </defs>
       <use xlink:href="#DejaVuSans-53"/>
       <use x="63.623047" xlink:href="#DejaVuSans-48"/>
      </g>
     </g>
    </g>
    <g id="ytick_6">
     <g id="line2d_11">
      <g>
       <use style="stroke:#000000;stroke-width:0.8;" x="57.6" xlink:href="#m1e3488411b" y="107.856169"/>
      </g>
     </g>
     <g id="text_11">
      <!-- 60 -->
      <g transform="translate(37.875 111.655388)scale(0.1 -0.1)">
       <use xlink:href="#DejaVuSans-54"/>
       <use x="63.623047" xlink:href="#DejaVuSans-48"/>
      </g>
     </g>
    </g>
    <g id="ytick_7">
     <g id="line2d_12">
      <g>
       <use style="stroke:#000000;stroke-width:0.8;" x="57.6" xlink:href="#m1e3488411b" y="73.16495"/>
      </g>
     </g>
     <g id="text_12">
      <!-- 70 -->
      <g transform="translate(37.875 76.964168)scale(0.1 -0.1)">
       <defs>
        <path d="M 8.203125 72.90625 
L 55.078125 72.90625 
L 55.078125 68.703125 
L 28.609375 0 
L 18.3125 0 
L 43.21875 64.59375 
L 8.203125 64.59375 
z
" id="DejaVuSans-55"/>
       </defs>
       <use xlink:href="#DejaVuSans-55"/>
       <use x="63.623047" xlink:href="#DejaVuSans-48"/>
      </g>
     </g>
    </g>
   </g>
   <g id="line2d_13">
    <path clip-path="url(#p17c0711232)" d="M 239.368512 176.544784 
L 237.498655 179.472723 
L 235.771033 182.508205 
L 234.192582 185.633884 
L 232.763304 188.846291 
L 231.486667 192.131549 
L 230.36961 195.482721 
L 229.408663 198.889399 
L 228.610765 202.344645 
L 227.975916 205.831112 
L 227.507584 209.348802 
L 227.20924 212.880368 
L 227.080882 216.422341 
L 227.125981 219.957377 
L 227.351474 223.485474 
L 227.753892 226.989287 
L 228.340173 230.465347 
L 229.110318 233.896309 
L 230.067796 237.282172 
L 231.212606 240.605591 
L 232.555157 243.859627 
L 234.085039 247.033874 
L 235.802255 250.121392 
L 237.696395 253.108306 
L 239.757054 255.987678 
L 241.977292 258.749099 
L 244.346702 261.382162 
L 246.854877 263.876461 
L 249.494879 266.225057 
L 252.2563 268.417542 
L 255.135671 270.44004 
L 258.115647 272.289082 
L 261.196228 273.964668 
L 264.363536 275.470267 
L 267.607165 276.805879 
L 270.923646 277.974973 
L 274.30257 278.981018 
L 277.737001 279.820546 
L 281.213061 280.497024 
L 284.727282 281.017393 
L 288.272725 281.378181 
L 291.832044 281.582859 
L 295.398301 281.62102 
L 298.95762 281.489193 
L 302.496125 281.180441 
L 305.999938 280.684357 
L 309.458652 280.00094 
L 312.858392 279.116314 
L 316.18528 278.027009 
L 319.428909 276.729558 
L 322.571933 275.210082 
L 325.603946 273.475521 
L 328.524947 271.532813 
L 331.321059 269.399303 
L 333.988814 267.085399 
L 336.524742 264.611915 
L 338.918436 261.98232 
L 341.162958 259.21743 
L 343.258308 256.331121 
L 345.194078 253.33033 
L 346.96333 250.239342 
L 348.566064 247.058158 
L 349.991874 243.80759 
L 351.244227 240.49111 
L 352.312716 237.119123 
L 353.20428 233.702038 
L 353.905043 230.250262 
L 354.421942 226.770732 
L 354.744571 223.277326 
L 354.876397 219.776982 
L 354.807015 216.276638 
L 354.546831 212.790171 
L 354.095845 209.31758 
L 353.474872 205.865803 
L 352.687381 202.44178 
L 351.74378 199.052448 
L 350.654476 195.697807 
L 349.429876 192.388264 
L 348.080387 189.123821 
L 346.616418 185.918352 
L 345.048375 182.768389 
L 341.62782 176.648858 
L 337.863823 170.75482 
L 333.801481 165.068929 
L 329.485894 159.57384 
L 324.965628 154.252207 
L 320.275375 149.079746 
L 315.449826 144.039112 
L 308.00509 136.674166 
L 300.407713 129.475737 
L 282.590303 112.79273 
L 275.149036 105.4035 
L 265.366112 95.36733 
L 260.322009 90.534843 
L 257.720167 88.220939 
L 255.042005 85.997232 
L 252.280584 83.884537 
L 249.422028 81.889791 
L 246.466336 80.023404 
L 243.420447 78.288843 
L 240.298237 76.67917 
L 237.103175 75.204793 
L 233.849139 73.855305 
L 230.539597 72.641112 
L 227.188425 71.555277 
L 223.802562 70.601269 
L 220.388946 69.782556 
L 216.954515 69.0922 
L 213.509677 68.533672 
L 210.050962 68.093093 
L 206.578371 67.770465 
L 199.605436 67.451306 
L 192.59781 67.520688 
L 185.56243 67.930045 
L 178.523582 68.655091 
L 175.0163 69.151176 
L 171.53677 69.758272 
L 168.091932 70.490257 
L 164.688723 71.357537 
L 161.341021 72.37399 
L 158.055762 73.553491 
L 154.846824 74.913387 
L 151.721145 76.460616 
L 148.689133 78.209053 
L 145.761194 80.151761 
L 142.944267 82.281802 
L 140.252228 84.578361 
L 137.685078 87.03103 
L 135.263631 89.629403 
L 132.984418 92.356132 
L 130.868253 95.200812 
L 128.915138 98.153035 
L 127.138947 101.195455 
L 125.54662 104.317665 
L 124.127749 107.512726 
L 122.878865 110.773701 
L 121.786092 114.090182 
L 120.84596 117.462168 
L 120.041124 120.875784 
L 119.364645 124.33103 
L 118.362069 131.328249 
L 117.76191 138.401788 
L 117.48785 145.496143 
L 117.460097 152.562744 
L 117.716812 162.987456 
L 117.973527 169.745305 
L 117.973527 169.745305 
" style="fill:none;stroke:#fea952;stroke-linecap:square;"/>
   </g>
   <g id="line2d_14">
    <path clip-path="url(#p17c0711232)" d="M 251.063573 184.01355 
L 249.558677 186.336599 
L 248.157696 188.763401 
L 246.870818 191.27474 
L 245.697537 193.872476 
L 244.651059 196.51968 
L 243.72494 199.249958 
L 242.929333 202.011642 
L 242.262771 204.830532 
L 241.731033 207.662415 
L 241.334819 210.516918 
L 241.076625 213.382908 
L 240.956241 216.245325 
L 240.974213 219.072288 
L 241.137336 221.902147 
L 241.43712 224.681437 
L 241.879748 227.42613 
L 242.46317 230.120297 
L 243.187708 232.762787 
L 244.040206 235.31318 
L 245.055521 237.834861 
L 246.212057 240.289072 
L 247.521068 242.68995 
L 248.980804 245.032476 
L 250.57153 247.292621 
L 252.29228 249.466969 
L 254.131605 251.542823 
L 256.078141 253.508804 
L 258.123434 255.357446 
L 260.232297 257.062349 
L 262.451907 258.648958 
L 264.746001 260.099114 
L 267.153669 261.432078 
L 269.647006 262.638982 
L 272.220526 263.718716 
L 274.883457 264.675468 
L 277.597585 265.501411 
L 280.387785 266.199596 
L 283.24566 266.770209 
L 286.132116 267.212199 
L 289.069374 267.52458 
L 291.980519 267.707166 
L 294.884709 267.75404 
L 297.751412 267.665229 
L 300.550835 267.440981 
L 303.310052 267.071076 
L 305.964291 266.57163 
L 308.540456 265.928731 
L 311.031682 265.143014 
L 313.389179 264.236417 
L 315.681332 263.165311 
L 317.919327 261.921148 
L 320.107362 260.500987 
L 322.228772 258.916592 
L 324.29972 257.1517 
L 326.2631 255.270843 
L 328.144979 253.23649 
L 329.933542 251.065306 
L 331.597545 248.808918 
L 333.150906 246.436932 
L 334.5708 243.995777 
L 335.858315 241.484108 
L 337.010108 238.90548 
L 338.015968 236.299439 
L 338.885732 233.615839 
L 339.605207 230.941221 
L 340.179183 228.211226 
L 340.604256 225.49462 
L 340.877913 222.755094 
L 341.002635 220.051983 
L 340.969007 217.309326 
L 340.785905 214.577304 
L 340.438598 211.774512 
L 339.951439 208.976056 
L 339.319295 206.163499 
L 338.545665 203.338082 
L 337.640336 200.513311 
L 336.605942 197.689551 
L 335.45801 194.888586 
L 332.831849 189.349682 
L 329.832061 183.957549 
L 326.481537 178.692104 
L 322.803669 173.530905 
L 318.831331 168.464128 
L 314.610964 163.490056 
L 310.191195 158.612124 
L 305.603251 153.816733 
L 298.402076 146.691103 
L 290.961205 139.640402 
L 272.91002 122.735015 
L 265.193757 115.07042 
L 253.378561 103.045874 
L 248.855714 98.897005 
L 246.610162 97.018163 
L 244.339633 95.264265 
L 242.013117 93.622862 
L 239.599425 92.081698 
L 237.06168 90.622658 
L 234.484049 89.278858 
L 231.787419 88.022736 
L 229.069686 86.882728 
L 226.262311 85.841936 
L 223.425087 84.911706 
L 220.56624 84.095087 
L 214.733653 82.789817 
L 208.767267 81.910077 
L 202.671863 81.428766 
L 196.420697 81.313797 
L 190.038321 81.530811 
L 183.618433 82.039242 
L 177.40139 82.821152 
L 171.518719 83.936968 
L 168.720263 84.635474 
L 166.030023 85.434241 
L 163.470256 86.330039 
L 161.002839 87.349641 
L 158.653157 88.481603 
L 156.361113 89.771823 
L 154.130642 91.220151 
L 151.950293 92.838715 
L 149.83812 94.611685 
L 147.836766 96.491482 
L 145.910509 98.528892 
L 144.118109 100.638513 
L 142.441316 102.857257 
L 140.898876 105.149243 
L 139.500615 107.499906 
L 138.228818 109.949607 
L 137.086401 112.475614 
L 136.058344 115.116311 
L 135.152784 117.816903 
L 134.35213 120.64655 
L 133.659071 123.541948 
L 133.06855 126.512746 
L 132.1734 132.671394 
L 131.621854 139.079205 
L 131.363379 145.659224 
L 131.334844 152.342946 
L 131.583966 162.478569 
L 131.839313 169.200424 
L 131.839313 169.200424 
" style="fill:none;stroke:#ffffff;stroke-linecap:square;"/>
   </g>
   <g id="line2d_15">
    <path clip-path="url(#p17c0711232)" d="M 227.673451 169.076019 
L 225.438633 172.608848 
L 223.384369 176.253009 
L 221.514347 179.993028 
L 219.829071 183.820105 
L 218.322275 187.743419 
L 217.01428 191.715485 
L 215.887993 195.767156 
L 214.958758 199.858757 
L 214.220798 203.99981 
L 213.680349 208.180686 
L 213.341854 212.377828 
L 213.205523 216.599358 
L 213.277748 220.842465 
L 213.565612 225.068801 
L 214.070663 229.297137 
L 214.800599 233.504564 
L 215.757467 237.67232 
L 216.947885 241.801557 
L 218.385007 245.898001 
L 220.054792 249.884393 
L 221.958022 253.778676 
L 224.083442 257.552835 
L 226.411986 261.184136 
L 228.942577 264.682734 
L 231.662304 268.031229 
L 234.561799 271.221501 
L 237.631613 274.244118 
L 240.866324 277.092667 
L 244.280304 279.772734 
L 247.819436 282.231121 
L 251.485293 284.47905 
L 255.238786 286.497257 
L 259.080066 288.301551 
L 262.993803 289.893041 
L 266.963834 291.274477 
L 271.007555 292.460625 
L 275.086218 293.441495 
L 279.180463 294.22384 
L 283.322448 294.822586 
L 287.476075 295.231782 
L 291.683568 295.458553 
L 295.911893 295.488 
L 300.163829 295.313157 
L 304.441415 294.919901 
L 308.689824 294.297638 
L 312.953014 293.430249 
L 317.176328 292.303897 
L 321.338878 290.911005 
L 325.468639 289.222699 
L 329.462535 287.254854 
L 333.288565 285.029895 
L 336.942531 282.564639 
L 340.413346 279.882014 
L 343.677908 277.019098 
L 346.786384 273.952987 
L 349.691893 270.72815 
L 352.392374 267.369554 
L 354.91907 263.853323 
L 357.237249 260.223728 
L 359.355861 256.482907 
L 361.273813 252.632208 
L 362.973639 248.7097 
L 364.472485 244.68278 
L 365.739701 240.622407 
L 366.803354 236.462855 
L 367.630904 232.289298 
L 368.239629 228.046844 
L 368.611228 223.799559 
L 368.75016 219.501982 
L 368.645023 215.243951 
L 368.307756 211.003038 
L 367.753092 206.860648 
L 366.998305 202.755551 
L 366.055467 198.720061 
L 364.941896 194.766814 
L 363.668616 190.882302 
L 362.25381 187.086978 
L 360.702764 183.359055 
L 359.038852 179.734497 
L 357.2649 176.187096 
L 355.38882 172.718816 
L 353.42358 169.340167 
L 349.246109 162.817536 
L 344.799294 156.606953 
L 340.140456 150.683552 
L 335.320291 145.014358 
L 330.359555 139.547368 
L 325.296401 134.26149 
L 317.608105 126.657228 
L 309.854222 119.311073 
L 292.270586 102.850445 
L 285.104315 95.736581 
L 275.074447 85.452435 
L 269.54362 80.165716 
L 266.584621 77.544873 
L 263.473849 74.9763 
L 260.221535 72.504808 
L 256.830939 70.15672 
L 253.333246 67.96511 
L 249.779214 65.955028 
L 246.112425 64.079482 
L 242.418932 62.386851 
L 238.628592 60.827882 
L 234.816882 59.440289 
L 230.951763 58.198848 
L 227.038884 57.10745 
L 223.123561 56.178189 
L 219.175377 55.394584 
L 215.263125 54.768414 
L 211.334658 54.27611 
L 207.420749 53.919569 
L 203.52582 53.688931 
L 195.789487 53.568 
L 188.128858 53.843601 
L 180.46411 54.466104 
L 172.631209 55.481199 
L 168.652584 56.184828 
L 164.665145 57.043545 
L 160.657184 58.0796 
L 156.652018 59.313738 
L 152.641268 60.776944 
L 148.69081 62.477134 
L 144.789134 64.439628 
L 141.017153 66.646283 
L 137.391746 69.083371 
L 133.938241 71.724889 
L 130.666336 74.545037 
L 127.53339 77.570579 
L 124.616753 80.729913 
L 121.850726 84.073752 
L 119.295191 87.544368 
L 116.931399 91.156827 
L 114.77728 94.891005 
L 112.864422 98.685723 
L 111.169097 102.549838 
L 109.699387 106.43109 
L 108.4194 110.36346 
L 107.33979 114.277787 
L 106.423177 118.20962 
L 105.660739 122.149313 
L 105.044479 126.062854 
L 104.550737 129.985103 
L 103.901967 137.724372 
L 103.61232 145.333061 
L 103.58535 152.782542 
L 103.849658 163.496342 
L 104.107741 170.290186 
L 104.107741 170.290186 
" style="fill:none;stroke:#ffffff;stroke-linecap:square;"/>
   </g>
   <g id="patch_3">
    <path d="M 57.6 307.584 
L 57.6 41.472 
" style="fill:none;stroke:#000000;stroke-linecap:square;stroke-linejoin:miter;stroke-width:0.8;"/>
   </g>
   <g id="patch_4">
    <path d="M 414.72 307.584 
L 414.72 41.472 
" style="fill:none;stroke:#000000;stroke-linecap:square;stroke-linejoin:miter;stroke-width:0.8;"/>
   </g>
   <g id="patch_5">
    <path d="M 57.6 307.584 
L 414.72 307.584 
" style="fill:none;stroke:#000000;stroke-linecap:square;stroke-linejoin:miter;stroke-width:0.8;"/>
   </g>
   <g id="patch_6">
    <path d="M 57.6 41.472 
L 414.72 41.472 
" style="fill:none;stroke:#000000;stroke-linecap:square;stroke-linejoin:miter;stroke-width:0.8;"/>
   </g>
  </g>
 </g>
 <defs>
  <clipPath id="p17c0711232">
   <rect height="266.112" width="357.12" x="57.6" y="41.472"/>
  </clipPath>
 </defs>
</svg>
