<?xml version="1.0" encoding="utf-8" standalone="no"?>
<!DOCTYPE svg PUBLIC "-//W3C//DTD SVG 1.1//EN"
  "http://www.w3.org/Graphics/SVG/1.1/DTD/svg11.dtd">
<!-- Created with matplotlib (https://matplotlib.org/) -->
<svg height="345.6pt" version="1.1" viewBox="0 0 460.8 345.6" width="460.8pt" xmlns="http://www.w3.org/2000/svg" xmlns:xlink="http://www.w3.org/1999/xlink">
 <metadata>
  <rdf:RDF xmlns:cc="http://creativecommons.org/ns#" xmlns:dc="http://purl.org/dc/elements/1.1/" xmlns:rdf="http://www.w3.org/1999/02/22-rdf-syntax-ns#">
   <cc:Work>
    <dc:type rdf:resource="http://purl.org/dc/dcmitype/StillImage"/>
    <dc:date>2021-01-25T14:55:51.283390</dc:date>
    <dc:format>image/svg+xml</dc:format>
    <dc:creator>
     <cc:Agent>
      <dc:title>Matplotlib v3.3.3, https://matplotlib.org/</dc:title>
     </cc:Agent>
    </dc:creator>
   </cc:Work>
  </rdf:RDF>
 </metadata>
 <defs>
  <style type="text/css">*{stroke-linecap:butt;stroke-linejoin:round;}</style>
 </defs>
 <g id="figure_1">
  <g id="patch_1">
   <path d="M 0 345.6 
L 460.8 345.6 
L 460.8 0 
L 0 0 
z
" style="fill:#ffffff;"/>
  </g>
  <g id="axes_1">
   <g id="patch_2">
    <path d="M 57.6 307.584 
L 414.72 307.584 
L 414.72 41.472 
L 57.6 41.472 
z
" style="fill:#7d9051;"/>
   </g>
   <g id="matplotlib.axis_1">
    <g id="xtick_1">
     <g id="line2d_1">
      <defs>
       <path d="M 0 0 
L 0 3.5 
" id="m0600df23d5" style="stroke:#000000;stroke-width:0.8;"/>
      </defs>
      <g>
       <use style="stroke:#000000;stroke-width:0.8;" x="93.837047" xlink:href="#m0600df23d5" y="307.584"/>
      </g>
     </g>
     <g id="text_1">
      <!-- 0 -->
      <g transform="translate(90.655797 322.182437)scale(0.1 -0.1)">
       <defs>
        <path d="M 31.78125 66.40625 
Q 24.171875 66.40625 20.328125 58.90625 
Q 16.5 51.421875 16.5 36.375 
Q 16.5 21.390625 20.328125 13.890625 
Q 24.171875 6.390625 31.78125 6.390625 
Q 39.453125 6.390625 43.28125 13.890625 
Q 47.125 21.390625 47.125 36.375 
Q 47.125 51.421875 43.28125 58.90625 
Q 39.453125 66.40625 31.78125 66.40625 
z
M 31.78125 74.21875 
Q 44.046875 74.21875 50.515625 64.515625 
Q 56.984375 54.828125 56.984375 36.375 
Q 56.984375 17.96875 50.515625 8.265625 
Q 44.046875 -1.421875 31.78125 -1.421875 
Q 19.53125 -1.421875 13.0625 8.265625 
Q 6.59375 17.96875 6.59375 36.375 
Q 6.59375 54.828125 13.0625 64.515625 
Q 19.53125 74.21875 31.78125 74.21875 
z
" id="DejaVuSans-48"/>
       </defs>
       <use xlink:href="#DejaVuSans-48"/>
      </g>
     </g>
    </g>
    <g id="xtick_2">
     <g id="line2d_2">
      <g>
       <use style="stroke:#000000;stroke-width:0.8;" x="161.090706" xlink:href="#m0600df23d5" y="307.584"/>
      </g>
     </g>
     <g id="text_2">
      <!-- 20 -->
      <g transform="translate(154.728206 322.182437)scale(0.1 -0.1)">
       <defs>
        <path d="M 19.1875 8.296875 
L 53.609375 8.296875 
L 53.609375 0 
L 7.328125 0 
L 7.328125 8.296875 
Q 12.9375 14.109375 22.625 23.890625 
Q 32.328125 33.6875 34.8125 36.53125 
Q 39.546875 41.84375 41.421875 45.53125 
Q 43.3125 49.21875 43.3125 52.78125 
Q 43.3125 58.59375 39.234375 62.25 
Q 35.15625 65.921875 28.609375 65.921875 
Q 23.96875 65.921875 18.8125 64.3125 
Q 13.671875 62.703125 7.8125 59.421875 
L 7.8125 69.390625 
Q 13.765625 71.78125 18.9375 73 
Q 24.125 74.21875 28.421875 74.21875 
Q 39.75 74.21875 46.484375 68.546875 
Q 53.21875 62.890625 53.21875 53.421875 
Q 53.21875 48.921875 51.53125 44.890625 
Q 49.859375 40.875 45.40625 35.40625 
Q 44.1875 33.984375 37.640625 27.21875 
Q 31.109375 20.453125 19.1875 8.296875 
z
" id="DejaVuSans-50"/>
       </defs>
       <use xlink:href="#DejaVuSans-50"/>
       <use x="63.623047" xlink:href="#DejaVuSans-48"/>
      </g>
     </g>
    </g>
    <g id="xtick_3">
     <g id="line2d_3">
      <g>
       <use style="stroke:#000000;stroke-width:0.8;" x="228.344365" xlink:href="#m0600df23d5" y="307.584"/>
      </g>
     </g>
     <g id="text_3">
      <!-- 40 -->
      <g transform="translate(221.981865 322.182437)scale(0.1 -0.1)">
       <defs>
        <path d="M 37.796875 64.3125 
L 12.890625 25.390625 
L 37.796875 25.390625 
z
M 35.203125 72.90625 
L 47.609375 72.90625 
L 47.609375 25.390625 
L 58.015625 25.390625 
L 58.015625 17.1875 
L 47.609375 17.1875 
L 47.609375 0 
L 37.796875 0 
L 37.796875 17.1875 
L 4.890625 17.1875 
L 4.890625 26.703125 
z
" id="DejaVuSans-52"/>
       </defs>
       <use xlink:href="#DejaVuSans-52"/>
       <use x="63.623047" xlink:href="#DejaVuSans-48"/>
      </g>
     </g>
    </g>
    <g id="xtick_4">
     <g id="line2d_4">
      <g>
       <use style="stroke:#000000;stroke-width:0.8;" x="295.598023" xlink:href="#m0600df23d5" y="307.584"/>
      </g>
     </g>
     <g id="text_4">
      <!-- 60 -->
      <g transform="translate(289.235523 322.182437)scale(0.1 -0.1)">
       <defs>
        <path d="M 33.015625 40.375 
Q 26.375 40.375 22.484375 35.828125 
Q 18.609375 31.296875 18.609375 23.390625 
Q 18.609375 15.53125 22.484375 10.953125 
Q 26.375 6.390625 33.015625 6.390625 
Q 39.65625 6.390625 43.53125 10.953125 
Q 47.40625 15.53125 47.40625 23.390625 
Q 47.40625 31.296875 43.53125 35.828125 
Q 39.65625 40.375 33.015625 40.375 
z
M 52.59375 71.296875 
L 52.59375 62.3125 
Q 48.875 64.0625 45.09375 64.984375 
Q 41.3125 65.921875 37.59375 65.921875 
Q 27.828125 65.921875 22.671875 59.328125 
Q 17.53125 52.734375 16.796875 39.40625 
Q 19.671875 43.65625 24.015625 45.921875 
Q 28.375 48.1875 33.59375 48.1875 
Q 44.578125 48.1875 50.953125 41.515625 
Q 57.328125 34.859375 57.328125 23.390625 
Q 57.328125 12.15625 50.6875 5.359375 
Q 44.046875 -1.421875 33.015625 -1.421875 
Q 20.359375 -1.421875 13.671875 8.265625 
Q 6.984375 17.96875 6.984375 36.375 
Q 6.984375 53.65625 15.1875 63.9375 
Q 23.390625 74.21875 37.203125 74.21875 
Q 40.921875 74.21875 44.703125 73.484375 
Q 48.484375 72.75 52.59375 71.296875 
z
" id="DejaVuSans-54"/>
       </defs>
       <use xlink:href="#DejaVuSans-54"/>
       <use x="63.623047" xlink:href="#DejaVuSans-48"/>
      </g>
     </g>
    </g>
    <g id="xtick_5">
     <g id="line2d_5">
      <g>
       <use style="stroke:#000000;stroke-width:0.8;" x="362.851682" xlink:href="#m0600df23d5" y="307.584"/>
      </g>
     </g>
     <g id="text_5">
      <!-- 80 -->
      <g transform="translate(356.489182 322.182437)scale(0.1 -0.1)">
       <defs>
        <path d="M 31.78125 34.625 
Q 24.75 34.625 20.71875 30.859375 
Q 16.703125 27.09375 16.703125 20.515625 
Q 16.703125 13.921875 20.71875 10.15625 
Q 24.75 6.390625 31.78125 6.390625 
Q 38.8125 6.390625 42.859375 10.171875 
Q 46.921875 13.96875 46.921875 20.515625 
Q 46.921875 27.09375 42.890625 30.859375 
Q 38.875 34.625 31.78125 34.625 
z
M 21.921875 38.8125 
Q 15.578125 40.375 12.03125 44.71875 
Q 8.5 49.078125 8.5 55.328125 
Q 8.5 64.0625 14.71875 69.140625 
Q 20.953125 74.21875 31.78125 74.21875 
Q 42.671875 74.21875 48.875 69.140625 
Q 55.078125 64.0625 55.078125 55.328125 
Q 55.078125 49.078125 51.53125 44.71875 
Q 48 40.375 41.703125 38.8125 
Q 48.828125 37.15625 52.796875 32.3125 
Q 56.78125 27.484375 56.78125 20.515625 
Q 56.78125 9.90625 50.3125 4.234375 
Q 43.84375 -1.421875 31.78125 -1.421875 
Q 19.734375 -1.421875 13.25 4.234375 
Q 6.78125 9.90625 6.78125 20.515625 
Q 6.78125 27.484375 10.78125 32.3125 
Q 14.796875 37.15625 21.921875 38.8125 
z
M 18.3125 54.390625 
Q 18.3125 48.734375 21.84375 45.5625 
Q 25.390625 42.390625 31.78125 42.390625 
Q 38.140625 42.390625 41.71875 45.5625 
Q 45.3125 48.734375 45.3125 54.390625 
Q 45.3125 60.0625 41.71875 63.234375 
Q 38.140625 66.40625 31.78125 66.40625 
Q 25.390625 66.40625 21.84375 63.234375 
Q 18.3125 60.0625 18.3125 54.390625 
z
" id="DejaVuSans-56"/>
       </defs>
       <use xlink:href="#DejaVuSans-56"/>
       <use x="63.623047" xlink:href="#DejaVuSans-48"/>
      </g>
     </g>
    </g>
   </g>
   <g id="matplotlib.axis_2">
    <g id="ytick_1">
     <g id="line2d_6">
      <defs>
       <path d="M 0 0 
L -3.5 0 
" id="mbe10f01334" style="stroke:#000000;stroke-width:0.8;"/>
      </defs>
      <g>
       <use style="stroke:#000000;stroke-width:0.8;" x="57.6" xlink:href="#mbe10f01334" y="281.082325"/>
      </g>
     </g>
     <g id="text_6">
      <!-- 10 -->
      <g transform="translate(37.875 284.881543)scale(0.1 -0.1)">
       <defs>
        <path d="M 12.40625 8.296875 
L 28.515625 8.296875 
L 28.515625 63.921875 
L 10.984375 60.40625 
L 10.984375 69.390625 
L 28.421875 72.90625 
L 38.28125 72.90625 
L 38.28125 8.296875 
L 54.390625 8.296875 
L 54.390625 0 
L 12.40625 0 
z
" id="DejaVuSans-49"/>
       </defs>
       <use xlink:href="#DejaVuSans-49"/>
       <use x="63.623047" xlink:href="#DejaVuSans-48"/>
      </g>
     </g>
    </g>
    <g id="ytick_2">
     <g id="line2d_7">
      <g>
       <use style="stroke:#000000;stroke-width:0.8;" x="57.6" xlink:href="#mbe10f01334" y="247.455495"/>
      </g>
     </g>
     <g id="text_7">
      <!-- 20 -->
      <g transform="translate(37.875 251.254714)scale(0.1 -0.1)">
       <use xlink:href="#DejaVuSans-50"/>
       <use x="63.623047" xlink:href="#DejaVuSans-48"/>
      </g>
     </g>
    </g>
    <g id="ytick_3">
     <g id="line2d_8">
      <g>
       <use style="stroke:#000000;stroke-width:0.8;" x="57.6" xlink:href="#mbe10f01334" y="213.828666"/>
      </g>
     </g>
     <g id="text_8">
      <!-- 30 -->
      <g transform="translate(37.875 217.627884)scale(0.1 -0.1)">
       <defs>
        <path d="M 40.578125 39.3125 
Q 47.65625 37.796875 51.625 33 
Q 55.609375 28.21875 55.609375 21.1875 
Q 55.609375 10.40625 48.1875 4.484375 
Q 40.765625 -1.421875 27.09375 -1.421875 
Q 22.515625 -1.421875 17.65625 -0.515625 
Q 12.796875 0.390625 7.625 2.203125 
L 7.625 11.71875 
Q 11.71875 9.328125 16.59375 8.109375 
Q 21.484375 6.890625 26.8125 6.890625 
Q 36.078125 6.890625 40.9375 10.546875 
Q 45.796875 14.203125 45.796875 21.1875 
Q 45.796875 27.640625 41.28125 31.265625 
Q 36.765625 34.90625 28.71875 34.90625 
L 20.21875 34.90625 
L 20.21875 43.015625 
L 29.109375 43.015625 
Q 36.375 43.015625 40.234375 45.921875 
Q 44.09375 48.828125 44.09375 54.296875 
Q 44.09375 59.90625 40.109375 62.90625 
Q 36.140625 65.921875 28.71875 65.921875 
Q 24.65625 65.921875 20.015625 65.03125 
Q 15.375 64.15625 9.8125 62.3125 
L 9.8125 71.09375 
Q 15.4375 72.65625 20.34375 73.4375 
Q 25.25 74.21875 29.59375 74.21875 
Q 40.828125 74.21875 47.359375 69.109375 
Q 53.90625 64.015625 53.90625 55.328125 
Q 53.90625 49.265625 50.4375 45.09375 
Q 46.96875 40.921875 40.578125 39.3125 
z
" id="DejaVuSans-51"/>
       </defs>
       <use xlink:href="#DejaVuSans-51"/>
       <use x="63.623047" xlink:href="#DejaVuSans-48"/>
      </g>
     </g>
    </g>
    <g id="ytick_4">
     <g id="line2d_9">
      <g>
       <use style="stroke:#000000;stroke-width:0.8;" x="57.6" xlink:href="#mbe10f01334" y="180.201836"/>
      </g>
     </g>
     <g id="text_9">
      <!-- 40 -->
      <g transform="translate(37.875 184.001055)scale(0.1 -0.1)">
       <use xlink:href="#DejaVuSans-52"/>
       <use x="63.623047" xlink:href="#DejaVuSans-48"/>
      </g>
     </g>
    </g>
    <g id="ytick_5">
     <g id="line2d_10">
      <g>
       <use style="stroke:#000000;stroke-width:0.8;" x="57.6" xlink:href="#mbe10f01334" y="146.575007"/>
      </g>
     </g>
     <g id="text_10">
      <!-- 50 -->
      <g transform="translate(37.875 150.374225)scale(0.1 -0.1)">
       <defs>
        <path d="M 10.796875 72.90625 
L 49.515625 72.90625 
L 49.515625 64.59375 
L 19.828125 64.59375 
L 19.828125 46.734375 
Q 21.96875 47.46875 24.109375 47.828125 
Q 26.265625 48.1875 28.421875 48.1875 
Q 40.625 48.1875 47.75 41.5 
Q 54.890625 34.8125 54.890625 23.390625 
Q 54.890625 11.625 47.5625 5.09375 
Q 40.234375 -1.421875 26.90625 -1.421875 
Q 22.3125 -1.421875 17.546875 -0.640625 
Q 12.796875 0.140625 7.71875 1.703125 
L 7.71875 11.625 
Q 12.109375 9.234375 16.796875 8.0625 
Q 21.484375 6.890625 26.703125 6.890625 
Q 35.15625 6.890625 40.078125 11.328125 
Q 45.015625 15.765625 45.015625 23.390625 
Q 45.015625 31 40.078125 35.4375 
Q 35.15625 39.890625 26.703125 39.890625 
Q 22.75 39.890625 18.8125 39.015625 
Q 14.890625 38.140625 10.796875 36.28125 
z
" id="DejaVuSans-53"/>
       </defs>
       <use xlink:href="#DejaVuSans-53"/>
       <use x="63.623047" xlink:href="#DejaVuSans-48"/>
      </g>
     </g>
    </g>
    <g id="ytick_6">
     <g id="line2d_11">
      <g>
       <use style="stroke:#000000;stroke-width:0.8;" x="57.6" xlink:href="#mbe10f01334" y="112.948177"/>
      </g>
     </g>
     <g id="text_11">
      <!-- 60 -->
      <g transform="translate(37.875 116.747396)scale(0.1 -0.1)">
       <use xlink:href="#DejaVuSans-54"/>
       <use x="63.623047" xlink:href="#DejaVuSans-48"/>
      </g>
     </g>
    </g>
    <g id="ytick_7">
     <g id="line2d_12">
      <g>
       <use style="stroke:#000000;stroke-width:0.8;" x="57.6" xlink:href="#mbe10f01334" y="79.321348"/>
      </g>
     </g>
     <g id="text_12">
      <!-- 70 -->
      <g transform="translate(37.875 83.120567)scale(0.1 -0.1)">
       <defs>
        <path d="M 8.203125 72.90625 
L 55.078125 72.90625 
L 55.078125 68.703125 
L 28.609375 0 
L 18.3125 0 
L 43.21875 64.59375 
L 8.203125 64.59375 
z
" id="DejaVuSans-55"/>
       </defs>
       <use xlink:href="#DejaVuSans-55"/>
       <use x="63.623047" xlink:href="#DejaVuSans-48"/>
      </g>
     </g>
    </g>
    <g id="ytick_8">
     <g id="line2d_13">
      <g>
       <use style="stroke:#000000;stroke-width:0.8;" x="57.6" xlink:href="#mbe10f01334" y="45.694518"/>
      </g>
     </g>
     <g id="text_13">
      <!-- 80 -->
      <g transform="translate(37.875 49.493737)scale(0.1 -0.1)">
       <use xlink:href="#DejaVuSans-56"/>
       <use x="63.623047" xlink:href="#DejaVuSans-48"/>
      </g>
     </g>
    </g>
   </g>
   <g id="line2d_14">
    <path clip-path="url(#pd8fcf77c31)" d="M 244.505419 179.209845 
L 241.953142 181.375413 
L 239.532011 183.71584 
L 237.255474 186.214313 
L 235.126896 188.857382 
L 233.146276 191.634958 
L 231.327064 194.536954 
L 229.665899 197.543192 
L 228.172868 200.646948 
L 226.851333 203.834772 
L 225.708021 207.093212 
L 224.746294 210.405454 
L 223.972877 213.764775 
L 223.391133 217.154359 
L 223.004424 220.56412 
L 222.822839 223.980605 
L 222.846378 227.390366 
L 223.085128 230.783313 
L 223.539091 234.142633 
L 224.218353 237.454876 
L 225.122914 240.713316 
L 226.256138 243.901139 
L 227.6113 247.008258 
L 229.171585 250.03131 
L 230.926905 252.956844 
L 232.86381 255.774773 
L 234.965487 258.47837 
L 237.22521 261.06091 
L 239.622803 263.512306 
L 242.151541 265.822469 
L 244.794609 267.984674 
L 247.545284 269.988834 
L 250.386751 271.838309 
L 253.319011 273.529739 
L 256.335337 275.066485 
L 259.425643 276.448547 
L 262.583202 277.675927 
L 265.804653 278.755348 
L 269.079906 279.680086 
L 272.402236 280.456866 
L 275.768282 281.082325 
L 279.164592 281.559826 
L 282.58444 281.87928 
L 286.011014 282.037327 
L 289.437588 282.027238 
L 292.850711 281.835566 
L 296.233571 281.462308 
L 299.576077 280.897377 
L 302.868144 280.134048 
L 306.099682 279.162233 
L 309.250516 277.978568 
L 312.31392 276.579692 
L 315.283169 274.968967 
L 318.151538 273.166569 
L 320.908938 271.179223 
L 323.552007 269.020381 
L 326.074019 266.706855 
L 328.464887 264.245371 
L 330.721247 261.652742 
L 332.836374 258.939057 
L 334.803544 256.121129 
L 336.612667 253.205683 
L 338.263745 250.202807 
L 339.753413 247.125952 
L 341.074948 243.978481 
L 342.224985 240.773844 
L 343.203526 237.518767 
L 344.007207 234.223338 
L 344.629303 230.894282 
L 345.06309 227.545049 
L 345.315291 224.179004 
L 345.372456 220.806233 
L 345.2514 217.436824 
L 344.958846 214.074141 
L 344.498159 210.721547 
L 343.886151 207.385765 
L 343.129547 204.076885 
L 342.235073 200.794907 
L 341.21618 197.546555 
L 340.079593 194.341918 
L 337.486965 188.073877 
L 334.521079 182.007597 
L 331.225649 176.129627 
L 327.637667 170.42988 
L 323.810933 164.891541 
L 319.779077 159.50116 
L 315.579086 154.245286 
L 309.045393 146.554831 
L 302.313301 139.035872 
L 281.969069 116.63704 
L 275.469003 108.896144 
L 266.937877 98.4382 
L 262.495773 93.387451 
L 260.178884 90.956231 
L 257.781291 88.605715 
L 255.289543 86.349355 
L 252.693552 84.203963 
L 249.99668 82.16954 
L 247.205653 80.249448 
L 244.327197 78.450413 
L 241.374761 76.772434 
L 238.348346 75.222237 
L 235.261403 73.803185 
L 232.120657 72.51864 
L 228.932834 71.368603 
L 225.708021 70.36316 
L 222.449581 69.495588 
L 219.16424 68.769249 
L 215.851997 68.177416 
L 212.516216 67.710004 
L 209.163621 67.36701 
L 202.414716 67.024016 
L 195.625459 67.104721 
L 188.819389 67.565408 
L 182.050308 68.426255 
L 178.701076 69.031538 
L 175.385471 69.767966 
L 172.116943 70.642263 
L 168.902218 71.671244 
L 165.754747 72.858271 
L 162.674529 74.220158 
L 159.678379 75.760267 
L 156.776383 77.492048 
L 153.968543 79.405415 
L 151.275034 81.483553 
L 148.695856 83.7231 
L 146.241098 86.107242 
L 143.920846 88.622529 
L 141.748553 91.265598 
L 139.724218 94.016272 
L 137.861292 96.864465 
L 136.1665 99.80345 
L 134.64993 102.816414 
L 133.301494 105.899994 
L 132.111104 109.047465 
L 131.072035 112.248739 
L 130.174199 115.500454 
L 129.41087 118.799246 
L 128.768597 122.131664 
L 127.816958 128.883932 
L 127.248664 135.706815 
L 126.989738 142.553238 
L 126.969562 149.362671 
L 127.2184 159.410367 
L 127.463876 165.917159 
L 127.463876 165.917159 
" style="fill:none;stroke:#fea952;stroke-linecap:square;"/>
   </g>
   <g id="line2d_15">
    <path clip-path="url(#pd8fcf77c31)" d="M 253.207739 189.466151 
L 251.301698 191.046332 
L 249.474446 192.775098 
L 247.731369 194.651007 
L 246.078474 196.666679 
L 244.542818 198.779257 
L 243.099997 201.042355 
L 241.787121 203.373986 
L 240.598214 205.797962 
L 239.543444 208.288144 
L 238.625267 210.843803 
L 237.854115 213.423271 
L 237.229779 216.040017 
L 236.756186 218.67012 
L 236.436198 221.278013 
L 236.27325 223.887752 
L 236.263932 226.446217 
L 236.414702 228.982019 
L 236.715599 231.440446 
L 237.178948 233.85694 
L 237.796673 236.207982 
L 238.585242 238.523835 
L 239.563898 240.839175 
L 240.705492 243.110966 
L 242.011644 245.33774 
L 243.483309 247.519566 
L 245.088195 249.621001 
L 246.841254 251.655918 
L 248.695037 253.581709 
L 250.668331 255.411587 
L 252.715429 257.113483 
L 254.882809 258.715728 
L 257.107613 260.187034 
L 259.425045 261.544809 
L 261.826695 262.787756 
L 264.298877 263.911651 
L 266.856661 264.922114 
L 269.459463 265.810675 
L 272.142177 266.582579 
L 274.859512 267.232495 
L 277.640957 267.762592 
L 280.415605 268.167397 
L 283.204178 268.442833 
L 285.971415 268.586653 
L 288.683415 268.597666 
L 291.375538 268.465971 
L 293.991998 268.199671 
L 296.537869 267.794268 
L 298.994498 267.253169 
L 301.369452 266.570683 
L 303.663322 265.74315 
L 305.900232 264.756546 
L 308.126713 263.580055 
L 310.286954 262.254625 
L 312.40009 260.761849 
L 314.459426 259.10841 
L 316.425522 257.335159 
L 318.318574 255.415052 
L 320.112382 253.383875 
L 321.807222 251.239708 
L 323.374447 249.029025 
L 324.826086 246.725043 
L 326.157283 244.341427 
L 327.351512 241.918743 
L 328.414757 239.43516 
L 329.34372 236.90148 
L 330.135792 234.33184 
L 330.785348 231.752586 
L 331.289989 229.166599 
L 331.649954 226.540069 
L 331.866491 223.951058 
L 331.930398 221.289181 
L 331.851285 218.602634 
L 331.633333 215.90523 
L 331.268246 213.148809 
L 330.773838 210.384007 
L 330.152154 207.613756 
L 328.539161 202.042706 
L 326.488295 196.524608 
L 324.052086 191.102143 
L 321.264222 185.774844 
L 318.163566 180.553877 
L 314.76425 175.398303 
L 311.114638 170.325529 
L 307.249643 165.329388 
L 303.183681 160.37307 
L 296.794708 153.004842 
L 287.873511 143.18865 
L 276.378103 130.621392 
L 269.475458 122.730601 
L 262.877982 114.714929 
L 256.741458 107.210613 
L 252.75847 102.666844 
L 248.752789 98.576088 
L 246.720939 96.717634 
L 244.593152 94.942013 
L 242.373053 93.251169 
L 240.07678 91.655646 
L 237.681036 90.14446 
L 235.24264 88.744037 
L 232.730287 87.443514 
L 230.169553 86.252894 
L 227.556127 85.171199 
L 224.929205 84.209675 
L 222.247279 83.361062 
L 219.545943 82.629174 
L 216.798332 82.010271 
L 211.147259 81.090891 
L 205.329891 80.584309 
L 199.381215 80.459856 
L 193.308745 80.696461 
L 187.336089 81.256511 
L 181.61754 82.162282 
L 178.861206 82.761866 
L 176.217372 83.452754 
L 173.648654 84.256693 
L 171.193921 85.160205 
L 168.823768 86.182977 
L 166.571148 87.310674 
L 164.350784 88.607382 
L 162.185011 90.054914 
L 160.093903 91.639818 
L 158.067162 93.371976 
L 156.127782 95.227311 
L 154.312264 97.163058 
L 152.581802 99.238233 
L 150.980901 101.378967 
L 149.513453 103.583789 
L 148.181066 105.85096 
L 146.973841 108.205605 
L 145.8825 110.658195 
L 144.904787 113.200037 
L 144.037611 115.828686 
L 143.27867 118.532783 
L 142.056558 124.217874 
L 141.206445 130.166045 
L 140.684469 136.340331 
L 140.439817 142.685751 
L 140.418589 149.148557 
L 140.659954 158.913554 
L 140.90465 165.399668 
L 140.90465 165.399668 
" style="fill:none;stroke:#ffffff;stroke-linecap:square;"/>
   </g>
   <g id="line2d_16">
    <path clip-path="url(#pd8fcf77c31)" d="M 235.803099 168.953539 
L 232.604587 171.704493 
L 229.589575 174.656582 
L 226.779579 177.777619 
L 224.175318 181.048085 
L 221.749733 184.49066 
L 219.554132 188.031552 
L 217.544677 191.712398 
L 215.747521 195.495934 
L 214.159223 199.3814 
L 212.790775 203.34262 
L 211.638473 207.387638 
L 210.715974 211.489532 
L 210.026079 215.638599 
L 209.57265 219.850226 
L 209.372428 224.073458 
L 209.428823 228.334515 
L 209.755555 232.584607 
L 210.362582 236.844821 
L 211.257757 241.052812 
L 212.449156 245.21865 
L 213.927035 249.278443 
L 215.658702 253.177341 
L 217.637677 256.951655 
L 219.842166 260.575949 
L 222.244312 264.02998 
L 224.84278 267.335739 
L 227.609166 270.465903 
L 230.550569 273.442903 
L 233.63475 276.233351 
L 236.87379 278.855866 
L 240.20776 281.261939 
L 243.66589 283.489584 
L 247.212977 285.514668 
L 250.84398 287.345213 
L 254.552409 288.985444 
L 258.309743 290.429739 
L 262.149843 291.700021 
L 266.017634 292.777592 
L 269.944961 293.681236 
L 273.895607 294.402057 
L 277.913578 294.952254 
L 281.964702 295.315727 
L 286.050614 295.488 
L 290.191761 295.456811 
L 294.325885 295.20516 
L 298.475143 294.724945 
L 302.614286 294.000486 
L 306.74179 293.014927 
L 310.829912 291.753782 
L 314.83771 290.213986 
L 318.727609 288.402838 
L 322.439625 286.357879 
L 326.016122 284.078512 
L 329.417786 281.596598 
L 332.644588 278.932351 
L 335.722516 276.078551 
L 338.611199 273.07569 
L 341.330112 269.92161 
L 343.865527 266.638406 
L 346.232641 263.213233 
L 348.399248 259.686323 
L 350.370206 256.064187 
L 352.155315 252.333161 
L 353.735138 248.521802 
L 355.10625 244.646208 
L 356.27126 240.705694 
L 357.229067 236.694089 
L 357.968618 232.621964 
L 358.476225 228.55003 
L 358.764091 224.406949 
L 358.814515 220.323285 
L 358.651514 216.271014 
L 358.28436 212.243053 
L 357.728071 208.294284 
L 356.998463 204.387523 
L 356.10694 200.540014 
L 355.069265 196.769275 
L 353.893199 193.050403 
L 352.591101 189.403865 
L 351.175781 185.837384 
L 349.656225 182.344016 
L 346.33812 175.582667 
L 342.690286 169.09512 
L 338.781616 162.897644 
L 334.64998 156.926789 
L 330.346297 151.179138 
L 325.924343 145.648902 
L 321.410561 140.281586 
L 314.536704 132.491732 
L 300.878826 117.593841 
L 294.297812 110.293191 
L 288.002182 102.961369 
L 274.744579 86.893066 
L 272.233075 84.108058 
L 269.595222 81.351296 
L 266.809793 78.635343 
L 263.858147 75.981076 
L 260.793951 73.465913 
L 257.620307 71.087911 
L 254.334527 68.843251 
L 250.973358 66.756366 
L 247.506882 64.800831 
L 243.966406 63.000961 
L 240.353254 61.353477 
L 236.685188 59.866081 
L 232.936463 58.52753 
L 229.168763 57.365259 
L 225.353219 56.362003 
L 221.530149 55.528227 
L 217.718493 54.856817 
L 213.885173 54.329116 
L 210.06191 53.946307 
L 206.26526 53.699112 
L 202.454708 53.573344 
L 198.662324 53.568 
L 191.136103 53.882875 
L 187.335459 54.196783 
L 183.516795 54.627547 
L 179.658203 55.189941 
L 175.784613 55.900794 
L 171.909736 56.774065 
L 168.016514 57.831773 
L 164.155783 59.085795 
L 160.315573 60.556337 
L 156.525291 62.257338 
L 152.785609 64.209859 
L 149.201983 66.376715 
L 145.752075 68.755915 
L 142.456165 71.327287 
L 139.32455 74.074223 
L 136.354414 76.987173 
L 133.529429 80.082 
L 130.915305 83.292962 
L 128.467535 86.653578 
L 126.20913 90.14514 
L 124.151933 93.755939 
L 122.326018 97.427222 
L 120.720488 101.141793 
L 119.317421 104.894893 
L 118.106459 108.668792 
L 117.069727 112.468124 
L 116.203211 116.253673 
L 115.480636 120.045454 
L 114.893792 123.825989 
L 114.073694 131.339513 
L 113.641978 138.747008 
L 113.505485 146.019631 
L 113.576868 153.07968 
L 114.023103 166.43465 
L 114.023103 166.43465 
" style="fill:none;stroke:#ffffff;stroke-linecap:square;"/>
   </g>
   <g id="patch_3">
    <path d="M 57.6 307.584 
L 57.6 41.472 
" style="fill:none;stroke:#000000;stroke-linecap:square;stroke-linejoin:miter;stroke-width:0.8;"/>
   </g>
   <g id="patch_4">
    <path d="M 414.72 307.584 
L 414.72 41.472 
" style="fill:none;stroke:#000000;stroke-linecap:square;stroke-linejoin:miter;stroke-width:0.8;"/>
   </g>
   <g id="patch_5">
    <path d="M 57.6 307.584 
L 414.72 307.584 
" style="fill:none;stroke:#000000;stroke-linecap:square;stroke-linejoin:miter;stroke-width:0.8;"/>
   </g>
   <g id="patch_6">
    <path d="M 57.6 41.472 
L 414.72 41.472 
" style="fill:none;stroke:#000000;stroke-linecap:square;stroke-linejoin:miter;stroke-width:0.8;"/>
   </g>
  </g>
 </g>
 <defs>
  <clipPath id="pd8fcf77c31">
   <rect height="266.112" width="357.12" x="57.6" y="41.472"/>
  </clipPath>
 </defs>
</svg>
