<?xml version="1.0" encoding="utf-8" standalone="no"?>
<!DOCTYPE svg PUBLIC "-//W3C//DTD SVG 1.1//EN"
  "http://www.w3.org/Graphics/SVG/1.1/DTD/svg11.dtd">
<!-- Created with matplotlib (https://matplotlib.org/) -->
<svg height="345.6pt" version="1.1" viewBox="0 0 460.8 345.6" width="460.8pt" xmlns="http://www.w3.org/2000/svg" xmlns:xlink="http://www.w3.org/1999/xlink">
 <metadata>
  <rdf:RDF xmlns:cc="http://creativecommons.org/ns#" xmlns:dc="http://purl.org/dc/elements/1.1/" xmlns:rdf="http://www.w3.org/1999/02/22-rdf-syntax-ns#">
   <cc:Work>
    <dc:type rdf:resource="http://purl.org/dc/dcmitype/StillImage"/>
    <dc:date>2021-01-25T14:23:54.374362</dc:date>
    <dc:format>image/svg+xml</dc:format>
    <dc:creator>
     <cc:Agent>
      <dc:title>Matplotlib v3.3.3, https://matplotlib.org/</dc:title>
     </cc:Agent>
    </dc:creator>
   </cc:Work>
  </rdf:RDF>
 </metadata>
 <defs>
  <style type="text/css">*{stroke-linecap:butt;stroke-linejoin:round;}</style>
 </defs>
 <g id="figure_1">
  <g id="patch_1">
   <path d="M 0 345.6 
L 460.8 345.6 
L 460.8 0 
L 0 0 
z
" style="fill:#ffffff;"/>
  </g>
  <g id="axes_1">
   <g id="patch_2">
    <path d="M 57.6 307.584 
L 414.72 307.584 
L 414.72 41.472 
L 57.6 41.472 
z
" style="fill:#7d9051;"/>
   </g>
   <g id="matplotlib.axis_1">
    <g id="xtick_1">
     <g id="line2d_1">
      <defs>
       <path d="M 0 0 
L 0 3.5 
" id="m9d58d8b022" style="stroke:#000000;stroke-width:0.8;"/>
      </defs>
      <g>
       <use style="stroke:#000000;stroke-width:0.8;" x="84.426935" xlink:href="#m9d58d8b022" y="307.584"/>
      </g>
     </g>
     <g id="text_1">
      <!-- 10 -->
      <g transform="translate(78.064435 322.182437)scale(0.1 -0.1)">
       <defs>
        <path d="M 12.40625 8.296875 
L 28.515625 8.296875 
L 28.515625 63.921875 
L 10.984375 60.40625 
L 10.984375 69.390625 
L 28.421875 72.90625 
L 38.28125 72.90625 
L 38.28125 8.296875 
L 54.390625 8.296875 
L 54.390625 0 
L 12.40625 0 
z
" id="DejaVuSans-49"/>
        <path d="M 31.78125 66.40625 
Q 24.171875 66.40625 20.328125 58.90625 
Q 16.5 51.421875 16.5 36.375 
Q 16.5 21.390625 20.328125 13.890625 
Q 24.171875 6.390625 31.78125 6.390625 
Q 39.453125 6.390625 43.28125 13.890625 
Q 47.125 21.390625 47.125 36.375 
Q 47.125 51.421875 43.28125 58.90625 
Q 39.453125 66.40625 31.78125 66.40625 
z
M 31.78125 74.21875 
Q 44.046875 74.21875 50.515625 64.515625 
Q 56.984375 54.828125 56.984375 36.375 
Q 56.984375 17.96875 50.515625 8.265625 
Q 44.046875 -1.421875 31.78125 -1.421875 
Q 19.53125 -1.421875 13.0625 8.265625 
Q 6.59375 17.96875 6.59375 36.375 
Q 6.59375 54.828125 13.0625 64.515625 
Q 19.53125 74.21875 31.78125 74.21875 
z
" id="DejaVuSans-48"/>
       </defs>
       <use xlink:href="#DejaVuSans-49"/>
       <use x="63.623047" xlink:href="#DejaVuSans-48"/>
      </g>
     </g>
    </g>
    <g id="xtick_2">
     <g id="line2d_2">
      <g>
       <use style="stroke:#000000;stroke-width:0.8;" x="126.002206" xlink:href="#m9d58d8b022" y="307.584"/>
      </g>
     </g>
     <g id="text_2">
      <!-- 20 -->
      <g transform="translate(119.639706 322.182437)scale(0.1 -0.1)">
       <defs>
        <path d="M 19.1875 8.296875 
L 53.609375 8.296875 
L 53.609375 0 
L 7.328125 0 
L 7.328125 8.296875 
Q 12.9375 14.109375 22.625 23.890625 
Q 32.328125 33.6875 34.8125 36.53125 
Q 39.546875 41.84375 41.421875 45.53125 
Q 43.3125 49.21875 43.3125 52.78125 
Q 43.3125 58.59375 39.234375 62.25 
Q 35.15625 65.921875 28.609375 65.921875 
Q 23.96875 65.921875 18.8125 64.3125 
Q 13.671875 62.703125 7.8125 59.421875 
L 7.8125 69.390625 
Q 13.765625 71.78125 18.9375 73 
Q 24.125 74.21875 28.421875 74.21875 
Q 39.75 74.21875 46.484375 68.546875 
Q 53.21875 62.890625 53.21875 53.421875 
Q 53.21875 48.921875 51.53125 44.890625 
Q 49.859375 40.875 45.40625 35.40625 
Q 44.1875 33.984375 37.640625 27.21875 
Q 31.109375 20.453125 19.1875 8.296875 
z
" id="DejaVuSans-50"/>
       </defs>
       <use xlink:href="#DejaVuSans-50"/>
       <use x="63.623047" xlink:href="#DejaVuSans-48"/>
      </g>
     </g>
    </g>
    <g id="xtick_3">
     <g id="line2d_3">
      <g>
       <use style="stroke:#000000;stroke-width:0.8;" x="167.577477" xlink:href="#m9d58d8b022" y="307.584"/>
      </g>
     </g>
     <g id="text_3">
      <!-- 30 -->
      <g transform="translate(161.214977 322.182437)scale(0.1 -0.1)">
       <defs>
        <path d="M 40.578125 39.3125 
Q 47.65625 37.796875 51.625 33 
Q 55.609375 28.21875 55.609375 21.1875 
Q 55.609375 10.40625 48.1875 4.484375 
Q 40.765625 -1.421875 27.09375 -1.421875 
Q 22.515625 -1.421875 17.65625 -0.515625 
Q 12.796875 0.390625 7.625 2.203125 
L 7.625 11.71875 
Q 11.71875 9.328125 16.59375 8.109375 
Q 21.484375 6.890625 26.8125 6.890625 
Q 36.078125 6.890625 40.9375 10.546875 
Q 45.796875 14.203125 45.796875 21.1875 
Q 45.796875 27.640625 41.28125 31.265625 
Q 36.765625 34.90625 28.71875 34.90625 
L 20.21875 34.90625 
L 20.21875 43.015625 
L 29.109375 43.015625 
Q 36.375 43.015625 40.234375 45.921875 
Q 44.09375 48.828125 44.09375 54.296875 
Q 44.09375 59.90625 40.109375 62.90625 
Q 36.140625 65.921875 28.71875 65.921875 
Q 24.65625 65.921875 20.015625 65.03125 
Q 15.375 64.15625 9.8125 62.3125 
L 9.8125 71.09375 
Q 15.4375 72.65625 20.34375 73.4375 
Q 25.25 74.21875 29.59375 74.21875 
Q 40.828125 74.21875 47.359375 69.109375 
Q 53.90625 64.015625 53.90625 55.328125 
Q 53.90625 49.265625 50.4375 45.09375 
Q 46.96875 40.921875 40.578125 39.3125 
z
" id="DejaVuSans-51"/>
       </defs>
       <use xlink:href="#DejaVuSans-51"/>
       <use x="63.623047" xlink:href="#DejaVuSans-48"/>
      </g>
     </g>
    </g>
    <g id="xtick_4">
     <g id="line2d_4">
      <g>
       <use style="stroke:#000000;stroke-width:0.8;" x="209.152748" xlink:href="#m9d58d8b022" y="307.584"/>
      </g>
     </g>
     <g id="text_4">
      <!-- 40 -->
      <g transform="translate(202.790248 322.182437)scale(0.1 -0.1)">
       <defs>
        <path d="M 37.796875 64.3125 
L 12.890625 25.390625 
L 37.796875 25.390625 
z
M 35.203125 72.90625 
L 47.609375 72.90625 
L 47.609375 25.390625 
L 58.015625 25.390625 
L 58.015625 17.1875 
L 47.609375 17.1875 
L 47.609375 0 
L 37.796875 0 
L 37.796875 17.1875 
L 4.890625 17.1875 
L 4.890625 26.703125 
z
" id="DejaVuSans-52"/>
       </defs>
       <use xlink:href="#DejaVuSans-52"/>
       <use x="63.623047" xlink:href="#DejaVuSans-48"/>
      </g>
     </g>
    </g>
    <g id="xtick_5">
     <g id="line2d_5">
      <g>
       <use style="stroke:#000000;stroke-width:0.8;" x="250.72802" xlink:href="#m9d58d8b022" y="307.584"/>
      </g>
     </g>
     <g id="text_5">
      <!-- 50 -->
      <g transform="translate(244.36552 322.182437)scale(0.1 -0.1)">
       <defs>
        <path d="M 10.796875 72.90625 
L 49.515625 72.90625 
L 49.515625 64.59375 
L 19.828125 64.59375 
L 19.828125 46.734375 
Q 21.96875 47.46875 24.109375 47.828125 
Q 26.265625 48.1875 28.421875 48.1875 
Q 40.625 48.1875 47.75 41.5 
Q 54.890625 34.8125 54.890625 23.390625 
Q 54.890625 11.625 47.5625 5.09375 
Q 40.234375 -1.421875 26.90625 -1.421875 
Q 22.3125 -1.421875 17.546875 -0.640625 
Q 12.796875 0.140625 7.71875 1.703125 
L 7.71875 11.625 
Q 12.109375 9.234375 16.796875 8.0625 
Q 21.484375 6.890625 26.703125 6.890625 
Q 35.15625 6.890625 40.078125 11.328125 
Q 45.015625 15.765625 45.015625 23.390625 
Q 45.015625 31 40.078125 35.4375 
Q 35.15625 39.890625 26.703125 39.890625 
Q 22.75 39.890625 18.8125 39.015625 
Q 14.890625 38.140625 10.796875 36.28125 
z
" id="DejaVuSans-53"/>
       </defs>
       <use xlink:href="#DejaVuSans-53"/>
       <use x="63.623047" xlink:href="#DejaVuSans-48"/>
      </g>
     </g>
    </g>
    <g id="xtick_6">
     <g id="line2d_6">
      <g>
       <use style="stroke:#000000;stroke-width:0.8;" x="292.303291" xlink:href="#m9d58d8b022" y="307.584"/>
      </g>
     </g>
     <g id="text_6">
      <!-- 60 -->
      <g transform="translate(285.940791 322.182437)scale(0.1 -0.1)">
       <defs>
        <path d="M 33.015625 40.375 
Q 26.375 40.375 22.484375 35.828125 
Q 18.609375 31.296875 18.609375 23.390625 
Q 18.609375 15.53125 22.484375 10.953125 
Q 26.375 6.390625 33.015625 6.390625 
Q 39.65625 6.390625 43.53125 10.953125 
Q 47.40625 15.53125 47.40625 23.390625 
Q 47.40625 31.296875 43.53125 35.828125 
Q 39.65625 40.375 33.015625 40.375 
z
M 52.59375 71.296875 
L 52.59375 62.3125 
Q 48.875 64.0625 45.09375 64.984375 
Q 41.3125 65.921875 37.59375 65.921875 
Q 27.828125 65.921875 22.671875 59.328125 
Q 17.53125 52.734375 16.796875 39.40625 
Q 19.671875 43.65625 24.015625 45.921875 
Q 28.375 48.1875 33.59375 48.1875 
Q 44.578125 48.1875 50.953125 41.515625 
Q 57.328125 34.859375 57.328125 23.390625 
Q 57.328125 12.15625 50.6875 5.359375 
Q 44.046875 -1.421875 33.015625 -1.421875 
Q 20.359375 -1.421875 13.671875 8.265625 
Q 6.984375 17.96875 6.984375 36.375 
Q 6.984375 53.65625 15.1875 63.9375 
Q 23.390625 74.21875 37.203125 74.21875 
Q 40.921875 74.21875 44.703125 73.484375 
Q 48.484375 72.75 52.59375 71.296875 
z
" id="DejaVuSans-54"/>
       </defs>
       <use xlink:href="#DejaVuSans-54"/>
       <use x="63.623047" xlink:href="#DejaVuSans-48"/>
      </g>
     </g>
    </g>
    <g id="xtick_7">
     <g id="line2d_7">
      <g>
       <use style="stroke:#000000;stroke-width:0.8;" x="333.878562" xlink:href="#m9d58d8b022" y="307.584"/>
      </g>
     </g>
     <g id="text_7">
      <!-- 70 -->
      <g transform="translate(327.516062 322.182437)scale(0.1 -0.1)">
       <defs>
        <path d="M 8.203125 72.90625 
L 55.078125 72.90625 
L 55.078125 68.703125 
L 28.609375 0 
L 18.3125 0 
L 43.21875 64.59375 
L 8.203125 64.59375 
z
" id="DejaVuSans-55"/>
       </defs>
       <use xlink:href="#DejaVuSans-55"/>
       <use x="63.623047" xlink:href="#DejaVuSans-48"/>
      </g>
     </g>
    </g>
    <g id="xtick_8">
     <g id="line2d_8">
      <g>
       <use style="stroke:#000000;stroke-width:0.8;" x="375.453833" xlink:href="#m9d58d8b022" y="307.584"/>
      </g>
     </g>
     <g id="text_8">
      <!-- 80 -->
      <g transform="translate(369.091333 322.182437)scale(0.1 -0.1)">
       <defs>
        <path d="M 31.78125 34.625 
Q 24.75 34.625 20.71875 30.859375 
Q 16.703125 27.09375 16.703125 20.515625 
Q 16.703125 13.921875 20.71875 10.15625 
Q 24.75 6.390625 31.78125 6.390625 
Q 38.8125 6.390625 42.859375 10.171875 
Q 46.921875 13.96875 46.921875 20.515625 
Q 46.921875 27.09375 42.890625 30.859375 
Q 38.875 34.625 31.78125 34.625 
z
M 21.921875 38.8125 
Q 15.578125 40.375 12.03125 44.71875 
Q 8.5 49.078125 8.5 55.328125 
Q 8.5 64.0625 14.71875 69.140625 
Q 20.953125 74.21875 31.78125 74.21875 
Q 42.671875 74.21875 48.875 69.140625 
Q 55.078125 64.0625 55.078125 55.328125 
Q 55.078125 49.078125 51.53125 44.71875 
Q 48 40.375 41.703125 38.8125 
Q 48.828125 37.15625 52.796875 32.3125 
Q 56.78125 27.484375 56.78125 20.515625 
Q 56.78125 9.90625 50.3125 4.234375 
Q 43.84375 -1.421875 31.78125 -1.421875 
Q 19.734375 -1.421875 13.25 4.234375 
Q 6.78125 9.90625 6.78125 20.515625 
Q 6.78125 27.484375 10.78125 32.3125 
Q 14.796875 37.15625 21.921875 38.8125 
z
M 18.3125 54.390625 
Q 18.3125 48.734375 21.84375 45.5625 
Q 25.390625 42.390625 31.78125 42.390625 
Q 38.140625 42.390625 41.71875 45.5625 
Q 45.3125 48.734375 45.3125 54.390625 
Q 45.3125 60.0625 41.71875 63.234375 
Q 38.140625 66.40625 31.78125 66.40625 
Q 25.390625 66.40625 21.84375 63.234375 
Q 18.3125 60.0625 18.3125 54.390625 
z
" id="DejaVuSans-56"/>
       </defs>
       <use xlink:href="#DejaVuSans-56"/>
       <use x="63.623047" xlink:href="#DejaVuSans-48"/>
      </g>
     </g>
    </g>
   </g>
   <g id="matplotlib.axis_2">
    <g id="ytick_1">
     <g id="line2d_9">
      <defs>
       <path d="M 0 0 
L -3.5 0 
" id="mb80e2969a8" style="stroke:#000000;stroke-width:0.8;"/>
      </defs>
      <g>
       <use style="stroke:#000000;stroke-width:0.8;" x="57.6" xlink:href="#mb80e2969a8" y="278.834118"/>
      </g>
     </g>
     <g id="text_9">
      <!-- 10 -->
      <g transform="translate(37.875 282.633336)scale(0.1 -0.1)">
       <use xlink:href="#DejaVuSans-49"/>
       <use x="63.623047" xlink:href="#DejaVuSans-48"/>
      </g>
     </g>
    </g>
    <g id="ytick_2">
     <g id="line2d_10">
      <g>
       <use style="stroke:#000000;stroke-width:0.8;" x="57.6" xlink:href="#mb80e2969a8" y="237.258847"/>
      </g>
     </g>
     <g id="text_10">
      <!-- 20 -->
      <g transform="translate(37.875 241.058065)scale(0.1 -0.1)">
       <use xlink:href="#DejaVuSans-50"/>
       <use x="63.623047" xlink:href="#DejaVuSans-48"/>
      </g>
     </g>
    </g>
    <g id="ytick_3">
     <g id="line2d_11">
      <g>
       <use style="stroke:#000000;stroke-width:0.8;" x="57.6" xlink:href="#mb80e2969a8" y="195.683575"/>
      </g>
     </g>
     <g id="text_11">
      <!-- 30 -->
      <g transform="translate(37.875 199.482794)scale(0.1 -0.1)">
       <use xlink:href="#DejaVuSans-51"/>
       <use x="63.623047" xlink:href="#DejaVuSans-48"/>
      </g>
     </g>
    </g>
    <g id="ytick_4">
     <g id="line2d_12">
      <g>
       <use style="stroke:#000000;stroke-width:0.8;" x="57.6" xlink:href="#mb80e2969a8" y="154.108304"/>
      </g>
     </g>
     <g id="text_12">
      <!-- 40 -->
      <g transform="translate(37.875 157.907523)scale(0.1 -0.1)">
       <use xlink:href="#DejaVuSans-52"/>
       <use x="63.623047" xlink:href="#DejaVuSans-48"/>
      </g>
     </g>
    </g>
    <g id="ytick_5">
     <g id="line2d_13">
      <g>
       <use style="stroke:#000000;stroke-width:0.8;" x="57.6" xlink:href="#mb80e2969a8" y="112.533033"/>
      </g>
     </g>
     <g id="text_13">
      <!-- 50 -->
      <g transform="translate(37.875 116.332252)scale(0.1 -0.1)">
       <use xlink:href="#DejaVuSans-53"/>
       <use x="63.623047" xlink:href="#DejaVuSans-48"/>
      </g>
     </g>
    </g>
    <g id="ytick_6">
     <g id="line2d_14">
      <g>
       <use style="stroke:#000000;stroke-width:0.8;" x="57.6" xlink:href="#mb80e2969a8" y="70.957762"/>
      </g>
     </g>
     <g id="text_14">
      <!-- 60 -->
      <g transform="translate(37.875 74.756981)scale(0.1 -0.1)">
       <use xlink:href="#DejaVuSans-54"/>
       <use x="63.623047" xlink:href="#DejaVuSans-48"/>
      </g>
     </g>
    </g>
   </g>
   <g id="line2d_15">
    <path clip-path="url(#p0e6a9207d9)" d="M 228.364681 219.514521 
L 229.528789 215.361151 
L 230.4185 211.170364 
L 231.042129 206.954631 
L 231.399676 202.726426 
L 231.499457 198.498221 
L 231.349786 194.278331 
L 230.950663 190.079229 
L 230.310404 185.909229 
L 229.433166 181.784962 
L 228.327263 177.714743 
L 226.996855 173.711045 
L 225.446097 169.786339 
L 223.679148 165.944784 
L 221.70848 162.207167 
L 219.529936 158.581803 
L 217.155988 155.077008 
L 214.586636 151.705254 
L 211.834353 148.479012 
L 208.894982 145.410757 
L 205.785151 142.508804 
L 202.504862 139.789781 
L 199.070745 137.257847 
L 195.491114 134.929632 
L 191.786758 132.821765 
L 187.96599 130.942563 
L 184.0496 129.304497 
L 180.041743 127.920041 
L 175.967367 126.801666 
L 171.830627 125.966003 
L 167.652313 125.41721 
L 163.440738 125.167758 
L 159.220848 125.209333 
L 155.000958 125.529463 
L 150.797698 126.119832 
L 146.631856 126.967967 
L 142.515904 128.061397 
L 138.466472 129.395963 
L 134.500191 130.950878 
L 130.637849 132.726142 
L 126.887759 134.705125 
L 123.262396 136.875354 
L 119.77423 139.23683 
L 116.419106 141.772921 
L 113.197022 144.483629 
L 110.116295 147.352323 
L 107.176923 150.374845 
L 104.378907 153.54288 
L 101.730563 156.843957 
L 99.227731 160.273917 
L 96.878729 163.828603 
L 94.687712 167.487226 
L 92.667154 171.249788 
L 90.833684 175.099659 
L 89.199776 179.032679 
L 87.782059 183.028063 
L 86.593006 187.085809 
L 85.64509 191.189289 
L 84.959098 195.334343 
L 84.543346 199.500185 
L 84.41862 203.686815 
L 84.580763 207.873445 
L 85.029776 212.05176 
L 85.749028 216.209287 
L 86.726047 220.325239 
L 87.952518 224.3913 
L 89.415967 228.390841 
L 91.108081 232.311389 
L 93.016386 236.140472 
L 95.12841 239.857301 
L 97.43168 243.453562 
L 99.922038 246.912624 
L 102.582856 250.234489 
L 105.414132 253.402524 
L 108.403394 256.408416 
L 111.538169 259.248007 
L 114.814301 261.912982 
L 118.223473 264.386711 
L 121.757371 266.669193 
L 125.403522 268.747957 
L 129.157769 270.614687 
L 133.011797 272.27354 
L 136.948975 273.720359 
L 140.956831 274.975933 
L 145.031208 276.036102 
L 149.159632 276.917498 
L 153.325474 277.624277 
L 157.520419 278.164756 
L 161.731994 278.543091 
L 165.956042 278.771755 
L 170.171774 278.859063 
L 174.375034 278.809173 
L 178.569979 278.630399 
L 182.752451 278.331057 
L 191.07582 277.391456 
L 199.336827 276.048575 
L 207.53547 274.360619 
L 215.667593 272.381636 
L 223.729038 270.157359 
L 231.736436 267.741835 
L 243.668538 263.858705 
L 279.315176 251.830979 
L 287.322573 249.394668 
L 299.45008 246.027071 
L 307.528155 243.761219 
L 315.514765 241.266703 
L 319.451943 239.878089 
L 323.339231 238.360591 
L 327.168313 236.693423 
L 330.926718 234.851638 
L 334.614444 232.839395 
L 338.214863 230.660851 
L 341.723816 228.320163 
L 345.132988 225.829804 
L 348.434064 223.189775 
L 351.61873 220.416704 
L 354.67867 217.510593 
L 357.605569 214.483913 
L 360.39527 211.336665 
L 363.039457 208.081321 
L 365.533973 204.726197 
L 367.891291 201.271292 
L 370.111411 197.729079 
L 372.198489 194.099558 
L 374.160842 190.391043 
L 375.998469 186.607694 
L 377.723843 182.761981 
L 379.336963 178.849748 
L 380.841988 174.887625 
L 382.243075 170.871454 
L 383.527751 166.813707 
L 384.679386 162.7227 
L 385.685507 158.598433 
L 386.525328 154.457536 
L 387.186375 150.295852 
L 387.643703 146.125852 
L 387.888997 141.951695 
L 387.901469 137.781695 
L 387.66449 133.624168 
L 387.165587 129.483271 
L 386.408917 125.371477 
L 385.402795 121.301258 
L 384.155537 117.276771 
L 382.679615 113.314648 
L 380.983344 109.423203 
L 379.079197 105.619065 
L 376.97133 101.906394 
L 374.676375 98.29766 
L 372.194332 94.805337 
L 369.545987 91.43774 
L 366.731341 88.211499 
L 363.767024 85.134929 
L 360.661352 82.216345 
L 357.41848 79.46822 
L 354.055041 76.898868 
L 350.579348 74.529078 
L 346.99556 72.358848 
L 343.320306 70.404811 
L 339.561901 68.675279 
L 339.561901 68.675279 
" style="fill:none;stroke:#fea952;stroke-linecap:square;"/>
   </g>
   <g id="line2d_16">
    <path clip-path="url(#p0e6a9207d9)" d="M 212.351651 215.026384 
L 213.261245 211.907526 
L 213.967416 208.736772 
L 214.471162 205.55335 
L 214.774196 202.334085 
L 214.879798 199.087687 
L 214.794294 195.851923 
L 214.513177 192.60303 
L 214.044183 189.36908 
L 213.384885 186.145374 
L 212.545648 182.958894 
L 211.530335 179.822286 
L 210.337554 176.735615 
L 208.968545 173.700986 
L 207.454053 170.772901 
L 205.761069 167.908047 
L 203.928621 165.156555 
L 201.934832 162.498416 
L 199.825579 159.983353 
L 197.549114 157.569367 
L 195.172371 155.312295 
L 192.636029 153.175095 
L 190.003546 151.198665 
L 187.266488 149.38356 
L 184.447135 147.744582 
L 181.548984 146.284745 
L 178.619797 145.023205 
L 175.63977 143.956971 
L 172.674435 143.102498 
L 169.664974 142.454498 
L 166.669034 142.018224 
L 163.604573 141.797059 
L 160.478827 141.791794 
L 157.314035 141.997923 
L 154.115407 142.415638 
L 150.901654 143.040594 
L 147.721262 143.85585 
L 144.536263 144.878797 
L 141.445442 146.061272 
L 138.399387 147.433931 
L 135.429437 148.973981 
L 132.585369 150.646436 
L 129.802201 152.503341 
L 127.125084 154.498586 
L 124.529997 156.654258 
L 122.038404 158.946451 
L 119.641556 161.383634 
L 117.350483 163.949548 
L 115.164423 166.646604 
L 113.102152 169.442394 
L 111.146077 172.372799 
L 109.33887 175.355141 
L 107.681522 178.40026 
L 106.191269 181.479712 
L 104.872452 184.593951 
L 103.74109 187.704582 
L 102.796407 190.828844 
L 102.052031 193.90458 
L 101.507001 196.98583 
L 101.166079 199.995401 
L 101.03627 203.043232 
L 101.115671 206.096559 
L 101.416474 209.216861 
L 101.929528 212.368461 
L 102.647615 215.522721 
L 103.569977 218.676804 
L 104.684649 221.800859 
L 105.992186 224.893578 
L 107.475227 227.924486 
L 109.132533 230.888186 
L 110.927891 233.736938 
L 112.90163 236.515956 
L 114.982681 239.152755 
L 117.205968 241.675926 
L 119.56803 244.083182 
L 122.032387 246.347159 
L 124.581014 248.452974 
L 127.246213 250.417077 
L 129.994019 252.222113 
L 132.807734 253.857082 
L 135.732547 255.339451 
L 138.747927 256.664013 
L 141.920567 257.850773 
L 145.144606 258.881739 
L 148.503394 259.77251 
L 151.941356 260.52169 
L 155.450539 261.130503 
L 159.008346 261.601345 
L 162.63093 261.937296 
L 166.300378 262.145212 
L 169.974398 262.230126 
L 173.66696 262.194145 
L 181.100964 261.783154 
L 188.596781 260.94716 
L 196.148496 259.726962 
L 203.73573 258.170421 
L 211.350731 256.321586 
L 219.014195 254.209608 
L 226.711187 251.889158 
L 238.330374 248.108641 
L 274.389664 235.94703 
L 282.756108 233.403799 
L 295.018678 229.998248 
L 306.411205 226.734763 
L 313.404438 224.386536 
L 316.700503 223.11304 
L 319.850279 221.760008 
L 322.961049 220.253398 
L 326.005228 218.611187 
L 328.986356 216.826287 
L 331.914239 214.891361 
L 334.746236 212.842276 
L 337.513231 210.648008 
L 340.166474 208.358249 
L 342.724004 205.950036 
L 345.160664 203.452828 
L 347.486897 200.851703 
L 349.693812 198.158909 
L 351.796871 195.353228 
L 353.800149 192.439519 
L 355.694843 189.43914 
L 357.499397 186.321563 
L 359.201924 183.125283 
L 360.825452 179.80034 
L 362.349393 176.422675 
L 365.139954 169.409793 
L 367.519822 162.30741 
L 368.52308 158.781344 
L 369.387215 155.292957 
L 370.101124 151.848697 
L 370.655384 148.482882 
L 371.042234 145.150268 
L 371.258963 141.901954 
L 371.298311 138.728075 
L 371.153784 135.61341 
L 370.810111 132.493075 
L 370.264728 129.362175 
L 369.518054 126.224215 
L 368.57155 123.081929 
L 367.434862 119.959797 
L 366.112175 116.866914 
L 364.617353 113.829765 
L 362.938486 110.830507 
L 361.12104 107.931631 
L 359.122254 105.085478 
L 357.014562 102.370439 
L 354.755633 99.750256 
L 352.378447 97.253544 
L 349.909786 94.903518 
L 347.32319 92.683575 
L 344.686688 90.639118 
L 341.965055 88.754213 
L 339.1886 87.042577 
L 336.368284 85.51209 
L 332.609879 83.782559 
L 332.609879 83.782559 
" style="fill:none;stroke:#ffffff;stroke-linecap:square;"/>
   </g>
   <g id="line2d_17">
    <path clip-path="url(#p0e6a9207d9)" d="M 244.377711 224.002657 
L 245.796332 218.814777 
L 246.869583 213.603956 
L 247.613095 208.355913 
L 248.025156 203.118768 
L 248.119115 197.908756 
L 247.905278 192.70474 
L 247.388149 187.555427 
L 246.576625 182.449378 
L 245.481447 177.424551 
L 244.108879 172.470593 
L 242.463375 167.599803 
L 240.55464 162.837063 
L 238.389751 158.188582 
L 235.962908 153.641433 
L 233.298803 149.25556 
L 230.383355 144.997461 
L 227.23844 140.912091 
L 223.843127 136.974672 
L 220.24085 133.252148 
L 216.397932 129.705312 
L 212.373696 126.404467 
L 208.137944 123.317029 
L 203.71574 120.475703 
L 199.12638 117.898949 
L 194.382996 115.600381 
L 189.479402 113.58579 
L 184.443717 111.883111 
L 179.260299 110.500835 
L 173.99628 109.477509 
L 168.635591 108.816195 
L 163.276902 108.538456 
L 157.962868 108.626873 
L 152.68788 109.061003 
L 147.479989 109.824025 
L 142.362057 110.895341 
L 137.310545 112.266944 
L 132.396682 113.913129 
L 127.554941 115.840484 
L 122.876311 118.018354 
L 118.346082 120.436269 
L 113.939423 123.104273 
L 109.74626 125.970318 
L 105.713128 129.047257 
L 101.864048 132.313 
L 98.194185 135.758194 
L 94.712291 139.366055 
L 91.407332 143.136213 
L 88.296702 147.04131 
L 85.353311 151.10544 
L 82.61138 155.284407 
L 80.036554 159.619312 
L 77.652785 164.099317 
L 75.476099 168.719605 
L 73.5271 173.471407 
L 71.823028 178.351543 
L 70.389606 183.342774 
L 69.23815 188.473997 
L 68.411195 193.682856 
L 67.920612 199.00497 
L 67.800969 204.330398 
L 68.045855 209.650331 
L 68.643079 214.886658 
L 69.568529 220.050112 
L 70.804479 225.127757 
L 72.335058 230.105797 
L 74.147286 234.980824 
L 76.223976 239.729201 
L 78.557545 244.356457 
L 81.124286 248.826416 
L 83.935468 253.170186 
L 86.942447 257.309293 
L 90.18303 261.316223 
L 93.622295 265.129122 
L 97.238758 268.733651 
L 101.043951 272.148856 
L 105.047587 275.372991 
L 109.200733 278.356345 
L 113.520723 281.116274 
L 117.999311 283.638832 
L 122.582992 285.889922 
L 127.275667 287.883066 
L 131.977382 289.589946 
L 136.769056 291.070126 
L 141.559021 292.299694 
L 146.377908 293.313306 
L 151.200409 294.118052 
L 156.032492 294.728167 
L 160.833058 295.148886 
L 165.611705 295.398298 
L 170.36915 295.488 
L 175.083108 295.4242 
L 179.757169 295.218078 
L 184.403938 294.87896 
L 188.997249 294.414954 
L 198.069649 293.15067 
L 206.962789 291.499845 
L 215.674334 289.530157 
L 224.233882 287.297948 
L 232.627574 284.867172 
L 244.96116 280.957505 
L 260.950866 275.525602 
L 280.392318 268.944785 
L 291.889038 265.385538 
L 303.881481 262.055895 
L 312.318905 259.686332 
L 321.046134 256.949957 
L 325.499447 255.369641 
L 329.977958 253.608142 
L 334.486347 251.626838 
L 338.892387 249.449879 
L 343.22366 247.067603 
L 347.443369 244.495415 
L 351.533392 241.748965 
L 355.519739 238.817333 
L 359.354898 235.731541 
L 363.070986 232.475159 
L 366.633336 229.071149 
L 370.050474 225.514998 
L 373.303643 221.821627 
L 376.385102 218.003734 
L 379.271075 214.099165 
L 381.982434 210.103064 
L 384.527978 206.019018 
L 386.897581 201.877552 
L 389.11976 197.656804 
L 391.171486 193.415047 
L 393.098293 189.101287 
L 394.883274 184.755062 
L 396.544022 180.365456 
L 398.097571 175.890961 
L 399.53568 171.320004 
L 400.835691 166.664057 
L 401.9838 161.90391 
L 402.949531 157.066376 
L 403.717365 152.108822 
L 404.245171 147.101436 
L 404.519031 142.001436 
L 404.504628 136.835315 
L 404.175197 131.634926 
L 403.521063 126.473467 
L 402.553106 121.380778 
L 401.287537 116.378301 
L 399.739524 111.471614 
L 397.924368 106.669499 
L 395.854513 101.979492 
L 393.54104 97.408366 
L 391.004175 92.982281 
L 388.231711 88.66369 
L 385.26641 84.525197 
L 382.077412 80.505041 
L 378.70705 76.672742 
L 375.155602 73.016315 
L 371.412917 69.529173 
L 367.513771 66.252864 
L 363.423393 63.158618 
L 359.193641 60.303943 
L 354.80252 57.67512 
L 350.272328 55.297531 
L 346.513924 53.568 
L 346.513924 53.568 
" style="fill:none;stroke:#ffffff;stroke-linecap:square;"/>
   </g>
   <g id="patch_3">
    <path d="M 57.6 307.584 
L 57.6 41.472 
" style="fill:none;stroke:#000000;stroke-linecap:square;stroke-linejoin:miter;stroke-width:0.8;"/>
   </g>
   <g id="patch_4">
    <path d="M 414.72 307.584 
L 414.72 41.472 
" style="fill:none;stroke:#000000;stroke-linecap:square;stroke-linejoin:miter;stroke-width:0.8;"/>
   </g>
   <g id="patch_5">
    <path d="M 57.6 307.584 
L 414.72 307.584 
" style="fill:none;stroke:#000000;stroke-linecap:square;stroke-linejoin:miter;stroke-width:0.8;"/>
   </g>
   <g id="patch_6">
    <path d="M 57.6 41.472 
L 414.72 41.472 
" style="fill:none;stroke:#000000;stroke-linecap:square;stroke-linejoin:miter;stroke-width:0.8;"/>
   </g>
  </g>
 </g>
 <defs>
  <clipPath id="p0e6a9207d9">
   <rect height="266.112" width="357.12" x="57.6" y="41.472"/>
  </clipPath>
 </defs>
</svg>
