<?xml version="1.0" encoding="utf-8" standalone="no"?>
<!DOCTYPE svg PUBLIC "-//W3C//DTD SVG 1.1//EN"
  "http://www.w3.org/Graphics/SVG/1.1/DTD/svg11.dtd">
<!-- Created with matplotlib (https://matplotlib.org/) -->
<svg height="345.6pt" version="1.1" viewBox="0 0 460.8 345.6" width="460.8pt" xmlns="http://www.w3.org/2000/svg" xmlns:xlink="http://www.w3.org/1999/xlink">
 <metadata>
  <rdf:RDF xmlns:cc="http://creativecommons.org/ns#" xmlns:dc="http://purl.org/dc/elements/1.1/" xmlns:rdf="http://www.w3.org/1999/02/22-rdf-syntax-ns#">
   <cc:Work>
    <dc:type rdf:resource="http://purl.org/dc/dcmitype/StillImage"/>
    <dc:date>2021-01-25T11:11:55.983920</dc:date>
    <dc:format>image/svg+xml</dc:format>
    <dc:creator>
     <cc:Agent>
      <dc:title>Matplotlib v3.3.3, https://matplotlib.org/</dc:title>
     </cc:Agent>
    </dc:creator>
   </cc:Work>
  </rdf:RDF>
 </metadata>
 <defs>
  <style type="text/css">*{stroke-linecap:butt;stroke-linejoin:round;}</style>
 </defs>
 <g id="figure_1">
  <g id="patch_1">
   <path d="M 0 345.6 
L 460.8 345.6 
L 460.8 0 
L 0 0 
z
" style="fill:#ffffff;"/>
  </g>
  <g id="axes_1">
   <g id="patch_2">
    <path d="M 57.6 307.584 
L 414.72 307.584 
L 414.72 41.472 
L 57.6 41.472 
z
" style="fill:#7d9051;"/>
   </g>
   <g id="matplotlib.axis_1">
    <g id="xtick_1">
     <g id="line2d_1">
      <defs>
       <path d="M 0 0 
L 0 3.5 
" id="m8b4534ca9b" style="stroke:#000000;stroke-width:0.8;"/>
      </defs>
      <g>
       <use style="stroke:#000000;stroke-width:0.8;" x="89.565169" xlink:href="#m8b4534ca9b" y="307.584"/>
      </g>
     </g>
     <g id="text_1">
      <!-- 0 -->
      <g transform="translate(86.383919 322.182437)scale(0.1 -0.1)">
       <defs>
        <path d="M 31.78125 66.40625 
Q 24.171875 66.40625 20.328125 58.90625 
Q 16.5 51.421875 16.5 36.375 
Q 16.5 21.390625 20.328125 13.890625 
Q 24.171875 6.390625 31.78125 6.390625 
Q 39.453125 6.390625 43.28125 13.890625 
Q 47.125 21.390625 47.125 36.375 
Q 47.125 51.421875 43.28125 58.90625 
Q 39.453125 66.40625 31.78125 66.40625 
z
M 31.78125 74.21875 
Q 44.046875 74.21875 50.515625 64.515625 
Q 56.984375 54.828125 56.984375 36.375 
Q 56.984375 17.96875 50.515625 8.265625 
Q 44.046875 -1.421875 31.78125 -1.421875 
Q 19.53125 -1.421875 13.0625 8.265625 
Q 6.59375 17.96875 6.59375 36.375 
Q 6.59375 54.828125 13.0625 64.515625 
Q 19.53125 74.21875 31.78125 74.21875 
z
" id="DejaVuSans-48"/>
       </defs>
       <use xlink:href="#DejaVuSans-48"/>
      </g>
     </g>
    </g>
    <g id="xtick_2">
     <g id="line2d_2">
      <g>
       <use style="stroke:#000000;stroke-width:0.8;" x="158.998624" xlink:href="#m8b4534ca9b" y="307.584"/>
      </g>
     </g>
     <g id="text_2">
      <!-- 20 -->
      <g transform="translate(152.636124 322.182437)scale(0.1 -0.1)">
       <defs>
        <path d="M 19.1875 8.296875 
L 53.609375 8.296875 
L 53.609375 0 
L 7.328125 0 
L 7.328125 8.296875 
Q 12.9375 14.109375 22.625 23.890625 
Q 32.328125 33.6875 34.8125 36.53125 
Q 39.546875 41.84375 41.421875 45.53125 
Q 43.3125 49.21875 43.3125 52.78125 
Q 43.3125 58.59375 39.234375 62.25 
Q 35.15625 65.921875 28.609375 65.921875 
Q 23.96875 65.921875 18.8125 64.3125 
Q 13.671875 62.703125 7.8125 59.421875 
L 7.8125 69.390625 
Q 13.765625 71.78125 18.9375 73 
Q 24.125 74.21875 28.421875 74.21875 
Q 39.75 74.21875 46.484375 68.546875 
Q 53.21875 62.890625 53.21875 53.421875 
Q 53.21875 48.921875 51.53125 44.890625 
Q 49.859375 40.875 45.40625 35.40625 
Q 44.1875 33.984375 37.640625 27.21875 
Q 31.109375 20.453125 19.1875 8.296875 
z
" id="DejaVuSans-50"/>
       </defs>
       <use xlink:href="#DejaVuSans-50"/>
       <use x="63.623047" xlink:href="#DejaVuSans-48"/>
      </g>
     </g>
    </g>
    <g id="xtick_3">
     <g id="line2d_3">
      <g>
       <use style="stroke:#000000;stroke-width:0.8;" x="228.432078" xlink:href="#m8b4534ca9b" y="307.584"/>
      </g>
     </g>
     <g id="text_3">
      <!-- 40 -->
      <g transform="translate(222.069578 322.182437)scale(0.1 -0.1)">
       <defs>
        <path d="M 37.796875 64.3125 
L 12.890625 25.390625 
L 37.796875 25.390625 
z
M 35.203125 72.90625 
L 47.609375 72.90625 
L 47.609375 25.390625 
L 58.015625 25.390625 
L 58.015625 17.1875 
L 47.609375 17.1875 
L 47.609375 0 
L 37.796875 0 
L 37.796875 17.1875 
L 4.890625 17.1875 
L 4.890625 26.703125 
z
" id="DejaVuSans-52"/>
       </defs>
       <use xlink:href="#DejaVuSans-52"/>
       <use x="63.623047" xlink:href="#DejaVuSans-48"/>
      </g>
     </g>
    </g>
    <g id="xtick_4">
     <g id="line2d_4">
      <g>
       <use style="stroke:#000000;stroke-width:0.8;" x="297.865533" xlink:href="#m8b4534ca9b" y="307.584"/>
      </g>
     </g>
     <g id="text_4">
      <!-- 60 -->
      <g transform="translate(291.503033 322.182437)scale(0.1 -0.1)">
       <defs>
        <path d="M 33.015625 40.375 
Q 26.375 40.375 22.484375 35.828125 
Q 18.609375 31.296875 18.609375 23.390625 
Q 18.609375 15.53125 22.484375 10.953125 
Q 26.375 6.390625 33.015625 6.390625 
Q 39.65625 6.390625 43.53125 10.953125 
Q 47.40625 15.53125 47.40625 23.390625 
Q 47.40625 31.296875 43.53125 35.828125 
Q 39.65625 40.375 33.015625 40.375 
z
M 52.59375 71.296875 
L 52.59375 62.3125 
Q 48.875 64.0625 45.09375 64.984375 
Q 41.3125 65.921875 37.59375 65.921875 
Q 27.828125 65.921875 22.671875 59.328125 
Q 17.53125 52.734375 16.796875 39.40625 
Q 19.671875 43.65625 24.015625 45.921875 
Q 28.375 48.1875 33.59375 48.1875 
Q 44.578125 48.1875 50.953125 41.515625 
Q 57.328125 34.859375 57.328125 23.390625 
Q 57.328125 12.15625 50.6875 5.359375 
Q 44.046875 -1.421875 33.015625 -1.421875 
Q 20.359375 -1.421875 13.671875 8.265625 
Q 6.984375 17.96875 6.984375 36.375 
Q 6.984375 53.65625 15.1875 63.9375 
Q 23.390625 74.21875 37.203125 74.21875 
Q 40.921875 74.21875 44.703125 73.484375 
Q 48.484375 72.75 52.59375 71.296875 
z
" id="DejaVuSans-54"/>
       </defs>
       <use xlink:href="#DejaVuSans-54"/>
       <use x="63.623047" xlink:href="#DejaVuSans-48"/>
      </g>
     </g>
    </g>
    <g id="xtick_5">
     <g id="line2d_5">
      <g>
       <use style="stroke:#000000;stroke-width:0.8;" x="367.298988" xlink:href="#m8b4534ca9b" y="307.584"/>
      </g>
     </g>
     <g id="text_5">
      <!-- 80 -->
      <g transform="translate(360.936488 322.182437)scale(0.1 -0.1)">
       <defs>
        <path d="M 31.78125 34.625 
Q 24.75 34.625 20.71875 30.859375 
Q 16.703125 27.09375 16.703125 20.515625 
Q 16.703125 13.921875 20.71875 10.15625 
Q 24.75 6.390625 31.78125 6.390625 
Q 38.8125 6.390625 42.859375 10.171875 
Q 46.921875 13.96875 46.921875 20.515625 
Q 46.921875 27.09375 42.890625 30.859375 
Q 38.875 34.625 31.78125 34.625 
z
M 21.921875 38.8125 
Q 15.578125 40.375 12.03125 44.71875 
Q 8.5 49.078125 8.5 55.328125 
Q 8.5 64.0625 14.71875 69.140625 
Q 20.953125 74.21875 31.78125 74.21875 
Q 42.671875 74.21875 48.875 69.140625 
Q 55.078125 64.0625 55.078125 55.328125 
Q 55.078125 49.078125 51.53125 44.71875 
Q 48 40.375 41.703125 38.8125 
Q 48.828125 37.15625 52.796875 32.3125 
Q 56.78125 27.484375 56.78125 20.515625 
Q 56.78125 9.90625 50.3125 4.234375 
Q 43.84375 -1.421875 31.78125 -1.421875 
Q 19.734375 -1.421875 13.25 4.234375 
Q 6.78125 9.90625 6.78125 20.515625 
Q 6.78125 27.484375 10.78125 32.3125 
Q 14.796875 37.15625 21.921875 38.8125 
z
M 18.3125 54.390625 
Q 18.3125 48.734375 21.84375 45.5625 
Q 25.390625 42.390625 31.78125 42.390625 
Q 38.140625 42.390625 41.71875 45.5625 
Q 45.3125 48.734375 45.3125 54.390625 
Q 45.3125 60.0625 41.71875 63.234375 
Q 38.140625 66.40625 31.78125 66.40625 
Q 25.390625 66.40625 21.84375 63.234375 
Q 18.3125 60.0625 18.3125 54.390625 
z
" id="DejaVuSans-56"/>
       </defs>
       <use xlink:href="#DejaVuSans-56"/>
       <use x="63.623047" xlink:href="#DejaVuSans-48"/>
      </g>
     </g>
    </g>
   </g>
   <g id="matplotlib.axis_2">
    <g id="ytick_1">
     <g id="line2d_6">
      <defs>
       <path d="M 0 0 
L -3.5 0 
" id="m7a518083a2" style="stroke:#000000;stroke-width:0.8;"/>
      </defs>
      <g>
       <use style="stroke:#000000;stroke-width:0.8;" x="57.6" xlink:href="#m7a518083a2" y="279.775378"/>
      </g>
     </g>
     <g id="text_6">
      <!-- 10 -->
      <g transform="translate(37.875 283.574596)scale(0.1 -0.1)">
       <defs>
        <path d="M 12.40625 8.296875 
L 28.515625 8.296875 
L 28.515625 63.921875 
L 10.984375 60.40625 
L 10.984375 69.390625 
L 28.421875 72.90625 
L 38.28125 72.90625 
L 38.28125 8.296875 
L 54.390625 8.296875 
L 54.390625 0 
L 12.40625 0 
z
" id="DejaVuSans-49"/>
       </defs>
       <use xlink:href="#DejaVuSans-49"/>
       <use x="63.623047" xlink:href="#DejaVuSans-48"/>
      </g>
     </g>
    </g>
    <g id="ytick_2">
     <g id="line2d_7">
      <g>
       <use style="stroke:#000000;stroke-width:0.8;" x="57.6" xlink:href="#m7a518083a2" y="245.05865"/>
      </g>
     </g>
     <g id="text_7">
      <!-- 20 -->
      <g transform="translate(37.875 248.857869)scale(0.1 -0.1)">
       <use xlink:href="#DejaVuSans-50"/>
       <use x="63.623047" xlink:href="#DejaVuSans-48"/>
      </g>
     </g>
    </g>
    <g id="ytick_3">
     <g id="line2d_8">
      <g>
       <use style="stroke:#000000;stroke-width:0.8;" x="57.6" xlink:href="#m7a518083a2" y="210.341923"/>
      </g>
     </g>
     <g id="text_8">
      <!-- 30 -->
      <g transform="translate(37.875 214.141142)scale(0.1 -0.1)">
       <defs>
        <path d="M 40.578125 39.3125 
Q 47.65625 37.796875 51.625 33 
Q 55.609375 28.21875 55.609375 21.1875 
Q 55.609375 10.40625 48.1875 4.484375 
Q 40.765625 -1.421875 27.09375 -1.421875 
Q 22.515625 -1.421875 17.65625 -0.515625 
Q 12.796875 0.390625 7.625 2.203125 
L 7.625 11.71875 
Q 11.71875 9.328125 16.59375 8.109375 
Q 21.484375 6.890625 26.8125 6.890625 
Q 36.078125 6.890625 40.9375 10.546875 
Q 45.796875 14.203125 45.796875 21.1875 
Q 45.796875 27.640625 41.28125 31.265625 
Q 36.765625 34.90625 28.71875 34.90625 
L 20.21875 34.90625 
L 20.21875 43.015625 
L 29.109375 43.015625 
Q 36.375 43.015625 40.234375 45.921875 
Q 44.09375 48.828125 44.09375 54.296875 
Q 44.09375 59.90625 40.109375 62.90625 
Q 36.140625 65.921875 28.71875 65.921875 
Q 24.65625 65.921875 20.015625 65.03125 
Q 15.375 64.15625 9.8125 62.3125 
L 9.8125 71.09375 
Q 15.4375 72.65625 20.34375 73.4375 
Q 25.25 74.21875 29.59375 74.21875 
Q 40.828125 74.21875 47.359375 69.109375 
Q 53.90625 64.015625 53.90625 55.328125 
Q 53.90625 49.265625 50.4375 45.09375 
Q 46.96875 40.921875 40.578125 39.3125 
z
" id="DejaVuSans-51"/>
       </defs>
       <use xlink:href="#DejaVuSans-51"/>
       <use x="63.623047" xlink:href="#DejaVuSans-48"/>
      </g>
     </g>
    </g>
    <g id="ytick_4">
     <g id="line2d_9">
      <g>
       <use style="stroke:#000000;stroke-width:0.8;" x="57.6" xlink:href="#m7a518083a2" y="175.625196"/>
      </g>
     </g>
     <g id="text_9">
      <!-- 40 -->
      <g transform="translate(37.875 179.424414)scale(0.1 -0.1)">
       <use xlink:href="#DejaVuSans-52"/>
       <use x="63.623047" xlink:href="#DejaVuSans-48"/>
      </g>
     </g>
    </g>
    <g id="ytick_5">
     <g id="line2d_10">
      <g>
       <use style="stroke:#000000;stroke-width:0.8;" x="57.6" xlink:href="#m7a518083a2" y="140.908468"/>
      </g>
     </g>
     <g id="text_10">
      <!-- 50 -->
      <g transform="translate(37.875 144.707687)scale(0.1 -0.1)">
       <defs>
        <path d="M 10.796875 72.90625 
L 49.515625 72.90625 
L 49.515625 64.59375 
L 19.828125 64.59375 
L 19.828125 46.734375 
Q 21.96875 47.46875 24.109375 47.828125 
Q 26.265625 48.1875 28.421875 48.1875 
Q 40.625 48.1875 47.75 41.5 
Q 54.890625 34.8125 54.890625 23.390625 
Q 54.890625 11.625 47.5625 5.09375 
Q 40.234375 -1.421875 26.90625 -1.421875 
Q 22.3125 -1.421875 17.546875 -0.640625 
Q 12.796875 0.140625 7.71875 1.703125 
L 7.71875 11.625 
Q 12.109375 9.234375 16.796875 8.0625 
Q 21.484375 6.890625 26.703125 6.890625 
Q 35.15625 6.890625 40.078125 11.328125 
Q 45.015625 15.765625 45.015625 23.390625 
Q 45.015625 31 40.078125 35.4375 
Q 35.15625 39.890625 26.703125 39.890625 
Q 22.75 39.890625 18.8125 39.015625 
Q 14.890625 38.140625 10.796875 36.28125 
z
" id="DejaVuSans-53"/>
       </defs>
       <use xlink:href="#DejaVuSans-53"/>
       <use x="63.623047" xlink:href="#DejaVuSans-48"/>
      </g>
     </g>
    </g>
    <g id="ytick_6">
     <g id="line2d_11">
      <g>
       <use style="stroke:#000000;stroke-width:0.8;" x="57.6" xlink:href="#m7a518083a2" y="106.191741"/>
      </g>
     </g>
     <g id="text_11">
      <!-- 60 -->
      <g transform="translate(37.875 109.99096)scale(0.1 -0.1)">
       <use xlink:href="#DejaVuSans-54"/>
       <use x="63.623047" xlink:href="#DejaVuSans-48"/>
      </g>
     </g>
    </g>
    <g id="ytick_7">
     <g id="line2d_12">
      <g>
       <use style="stroke:#000000;stroke-width:0.8;" x="57.6" xlink:href="#m7a518083a2" y="71.475014"/>
      </g>
     </g>
     <g id="text_12">
      <!-- 70 -->
      <g transform="translate(37.875 75.274232)scale(0.1 -0.1)">
       <defs>
        <path d="M 8.203125 72.90625 
L 55.078125 72.90625 
L 55.078125 68.703125 
L 28.609375 0 
L 18.3125 0 
L 43.21875 64.59375 
L 8.203125 64.59375 
z
" id="DejaVuSans-55"/>
       </defs>
       <use xlink:href="#DejaVuSans-55"/>
       <use x="63.623047" xlink:href="#DejaVuSans-48"/>
      </g>
     </g>
    </g>
   </g>
   <g id="line2d_13">
    <path clip-path="url(#p76cdccf195)" d="M 347.829847 169.966369 
L 348.308938 156.357412 
L 348.388786 149.361991 
L 348.263806 142.307552 
L 347.85762 135.249642 
L 347.093852 128.240335 
L 346.555743 124.768662 
L 345.896125 121.324762 
L 345.111527 117.922523 
L 344.191534 114.561944 
L 343.12573 111.25344 
L 341.903702 108.003954 
L 340.515033 104.813487 
L 338.95278 101.695925 
L 337.21 98.654739 
L 335.293637 95.703818 
L 333.210633 92.853574 
L 330.967933 90.117896 
L 328.579422 87.514142 
L 326.048572 85.045782 
L 323.392743 82.733648 
L 320.608461 80.584683 
L 317.716558 78.616244 
L 314.717033 76.835276 
L 311.627244 75.259137 
L 308.447192 73.870468 
L 305.194234 72.662326 
L 301.875315 71.613881 
L 298.500849 70.718189 
L 295.081252 69.961364 
L 291.623465 69.326048 
L 284.641932 68.378282 
L 277.632624 67.767267 
L 270.637204 67.468703 
L 263.673028 67.527722 
L 260.204827 67.704777 
L 256.747041 67.992926 
L 253.29967 68.392168 
L 249.869658 68.916391 
L 246.453532 69.562122 
L 243.054764 70.343248 
L 239.676826 71.252827 
L 236.333606 72.294328 
L 233.032045 73.467754 
L 229.775616 74.766159 
L 226.578205 76.193017 
L 223.443285 77.748326 
L 220.381269 79.425144 
L 217.399102 81.226942 
L 214.503727 83.150249 
L 211.702087 85.191593 
L 208.987239 87.34403 
L 203.776259 91.919694 
L 198.783993 96.76615 
L 191.531669 104.313566 
L 170.128806 127.118984 
L 165.546198 132.31955 
L 161.085099 137.634681 
L 156.762866 143.07132 
L 152.582972 148.622525 
L 148.55236 154.288295 
L 144.684917 160.06863 
L 140.991057 165.96353 
L 137.515913 171.990354 
L 134.311559 178.159517 
L 131.433542 184.491848 
L 128.930466 191.008178 
L 127.836889 194.33404 
L 126.861349 197.705034 
L 126.007318 201.114217 
L 125.288681 204.551173 
L 124.712384 208.008959 
L 124.285368 211.484103 
L 124.021521 214.969663 
L 123.927786 218.455222 
L 124.011106 221.93731 
L 124.281896 225.408983 
L 124.747101 228.863297 
L 125.403247 232.29331 
L 126.246863 235.685134 
L 127.27795 239.031826 
L 128.486092 242.326444 
L 129.867818 245.558571 
L 131.426599 248.717793 
L 133.148549 251.797167 
L 135.033667 254.789749 
L 137.078482 257.681652 
L 139.279523 260.465934 
L 141.626373 263.132179 
L 144.112091 265.6665 
L 146.729732 268.055011 
L 149.472354 270.287296 
L 152.32954 272.345998 
L 155.294349 274.224173 
L 158.359836 275.907934 
L 161.515586 277.383395 
L 164.758129 278.636669 
L 168.077048 279.664284 
L 171.458457 280.462769 
L 174.891941 281.049482 
L 178.370558 281.424422 
L 181.876947 281.601478 
L 185.400695 281.584119 
L 188.934858 281.386234 
L 192.462077 281.014765 
L 195.971938 280.473184 
L 199.457498 279.775378 
L 202.901397 278.924818 
L 206.296693 277.924976 
L 209.636442 276.772381 
L 212.906758 275.467032 
L 216.097225 274.008929 
L 219.204372 272.394601 
L 222.214313 270.624048 
L 225.116631 268.700742 
L 227.904384 266.614266 
L 230.567157 264.371566 
L 233.098007 261.969168 
L 235.489989 259.42096 
L 237.739633 256.733886 
L 239.843467 253.921831 
L 241.794547 250.998682 
L 243.592873 247.967912 
L 245.234974 244.85035 
L 246.713907 241.649468 
L 248.022728 238.382624 
L 249.164908 235.056761 
L 250.133505 231.685767 
L 250.931989 228.273113 
L 251.55689 224.832685 
L 252.018623 221.364484 
L 252.317187 217.878925 
L 252.456054 214.38295 
L 252.435224 210.880032 
L 252.258168 207.380586 
L 251.928359 203.888083 
L 251.449269 200.412939 
L 250.820896 196.962096 
L 250.050184 193.535555 
L 249.137135 190.150674 
L 248.081746 186.803982 
L 246.894434 183.509364 
L 245.568255 180.270294 
L 244.113624 177.093713 
L 242.530541 173.986566 
L 240.819007 170.955796 
L 238.985963 168.011817 
L 238.985963 168.011817 
" style="fill:none;stroke:#fea952;stroke-linecap:square;"/>
   </g>
   <g id="line2d_14">
    <path clip-path="url(#p76cdccf195)" d="M 333.954577 169.403273 
L 334.424474 156.108735 
L 334.502641 149.48512 
L 334.391921 142.948633 
L 334.032992 136.561069 
L 333.371029 130.367372 
L 332.364591 124.4453 
L 331.717669 121.58923 
L 330.973752 118.819928 
L 330.127788 116.141555 
L 329.170837 113.546006 
L 328.099934 111.034862 
L 326.904229 108.60046 
L 325.563663 106.218008 
L 324.081896 103.897538 
L 322.471433 101.657538 
L 320.7347 99.505182 
L 318.883548 97.455481 
L 316.930322 95.519449 
L 314.908003 93.7268 
L 312.794559 92.064366 
L 310.626864 90.556782 
L 308.406844 89.20547 
L 306.069944 87.985354 
L 303.612382 86.888332 
L 301.01119 85.904015 
L 298.312706 85.035803 
L 295.500064 84.276783 
L 292.571788 83.619431 
L 286.459347 82.589744 
L 280.065235 81.883441 
L 273.705886 81.456441 
L 267.456468 81.33469 
L 261.358054 81.5435 
L 255.397667 82.119462 
L 249.563969 83.095982 
L 243.807119 84.511064 
L 240.984153 85.379152 
L 235.434692 87.447447 
L 232.749919 88.632878 
L 230.113265 89.928291 
L 227.562506 91.310851 
L 225.082838 92.794154 
L 222.681406 94.373696 
L 220.329436 96.073184 
L 215.669898 99.88373 
L 211.033561 104.175982 
L 206.37461 108.861683 
L 189.66445 126.46702 
L 182.739282 133.888383 
L 176.125985 141.314454 
L 171.896211 146.350186 
L 167.793474 151.507307 
L 163.843549 156.749 
L 160.040271 162.090097 
L 156.39259 167.536601 
L 152.946202 173.028564 
L 149.762727 178.536783 
L 146.873038 184.079772 
L 144.316498 189.675441 
L 142.12233 195.345794 
L 140.331803 201.079506 
L 139.600057 203.956335 
L 138.986429 206.834131 
L 138.495411 209.702578 
L 138.132443 212.532288 
L 137.903193 215.342975 
L 137.810503 218.123034 
L 137.855745 220.857428 
L 138.044344 223.555548 
L 138.386474 226.254146 
L 138.879363 228.941522 
L 139.517982 231.596418 
L 140.315687 234.250865 
L 141.254936 236.867798 
L 142.321122 239.414029 
L 143.547012 241.9402 
L 144.898329 244.395623 
L 146.37223 246.772445 
L 147.972341 249.069799 
L 149.703372 251.290775 
L 151.540352 253.408331 
L 153.472235 255.408435 
L 155.495812 257.284865 
L 157.590379 259.020626 
L 159.76095 260.615085 
L 161.979726 262.052652 
L 164.241405 263.328295 
L 166.521985 264.430552 
L 168.865403 265.371282 
L 171.268473 266.149293 
L 173.797506 266.774488 
L 176.380091 267.242759 
L 179.070874 267.555401 
L 181.808541 267.714955 
L 184.624365 267.719145 
L 187.480425 267.575918 
L 190.344386 267.290496 
L 193.245926 266.856685 
L 196.127867 266.29377 
L 198.978616 265.603708 
L 201.766397 264.798034 
L 204.488498 263.875138 
L 207.13453 262.836847 
L 209.694898 261.68617 
L 212.16354 260.425187 
L 214.543345 259.048365 
L 216.795697 257.583087 
L 218.958617 255.992899 
L 221.006701 254.299929 
L 222.973173 252.465067 
L 224.842262 250.506585 
L 226.620404 248.415055 
L 228.293264 246.212551 
L 229.851946 243.912466 
L 231.306366 241.496288 
L 232.628825 239.025817 
L 233.823274 236.484995 
L 234.888954 233.872173 
L 235.818243 231.221829 
L 236.612003 228.522038 
L 237.268851 225.791412 
L 237.791654 223.000076 
L 238.182598 220.179326 
L 238.441438 217.327753 
L 238.569608 214.465526 
L 238.566273 211.581735 
L 238.432985 208.686145 
L 238.171782 205.784595 
L 237.787231 202.900694 
L 237.272684 200.009414 
L 236.642704 197.152137 
L 235.893367 194.327132 
L 235.017514 191.512061 
L 234.043186 188.771076 
L 232.942394 186.051972 
L 231.740351 183.397862 
L 230.438725 180.815049 
L 229.030638 178.295724 
L 227.197594 175.351745 
L 227.197594 175.351745 
" style="fill:none;stroke:#ffffff;stroke-linecap:square;"/>
   </g>
   <g id="line2d_15">
    <path clip-path="url(#p76cdccf195)" d="M 361.705117 170.529465 
L 362.193402 156.606089 
L 362.274931 149.238863 
L 362.135691 141.666472 
L 361.682249 133.938215 
L 361.306931 130.039148 
L 360.816676 126.113297 
L 360.194521 122.156396 
L 359.42766 118.204225 
L 358.505386 114.255816 
L 357.409316 110.30396 
L 356.123673 106.365325 
L 354.636566 102.461902 
L 352.930132 98.592112 
L 351.001331 94.79139 
L 348.856337 91.091471 
L 346.505378 87.510097 
L 343.949833 84.049611 
L 341.201165 80.730611 
L 338.275295 77.572803 
L 335.166823 74.572116 
L 331.877482 71.740497 
L 328.422363 69.105 
L 324.806252 66.675707 
L 321.027221 64.465082 
L 317.184544 62.53292 
L 313.282001 60.852603 
L 309.377278 59.420637 
L 305.437924 58.191958 
L 301.501634 57.159595 
L 297.590716 56.303298 
L 293.677397 55.592092 
L 285.983055 54.556503 
L 278.389205 53.901202 
L 270.70636 53.582185 
L 262.96502 53.659091 
L 259.0516 53.866054 
L 255.149492 54.198434 
L 251.201673 54.664875 
L 247.290408 55.271331 
L 243.343094 56.028262 
L 239.444098 56.934174 
L 235.546534 57.994589 
L 231.683058 59.209505 
L 227.888886 60.568602 
L 224.11654 62.084872 
L 220.406491 63.753156 
L 216.773304 65.568362 
L 213.200033 67.539437 
L 209.715367 69.65973 
L 206.326049 71.926802 
L 203.074739 74.310001 
L 199.985471 76.770083 
L 197.027638 79.296674 
L 191.478087 84.454315 
L 186.312205 89.655938 
L 169.451289 107.420003 
L 162.177316 115.218453 
L 154.966412 123.324646 
L 150.273987 128.919176 
L 145.732259 134.635334 
L 141.322396 140.49605 
L 137.06445 146.486494 
L 132.977245 152.600659 
L 129.035912 158.898497 
L 125.269099 165.443926 
L 121.75008 172.239261 
L 118.550586 179.308255 
L 117.091551 182.952971 
L 115.738603 186.670561 
L 114.497541 190.473734 
L 113.390896 194.330562 
L 112.414579 198.272099 
L 111.590934 202.268215 
L 110.929357 206.31534 
L 110.438293 210.435918 
L 110.139849 214.596351 
L 110.045069 218.787411 
L 110.166466 223.017192 
L 110.519449 227.262418 
L 111.107727 231.472448 
L 111.927131 235.645097 
L 112.975745 239.77385 
L 114.240213 243.812788 
L 115.717249 247.78509 
L 117.414514 251.703114 
L 119.306186 255.495386 
L 121.398768 259.198711 
L 123.695103 262.807053 
L 126.184623 266.293506 
L 128.855673 269.641093 
L 131.712395 272.856026 
L 134.751947 275.924564 
L 137.963652 278.825156 
L 141.354328 281.553966 
L 144.89813 284.076911 
L 148.608972 286.395694 
L 152.478266 288.487574 
L 156.509188 290.336239 
L 160.650854 291.902056 
L 164.885623 293.179276 
L 169.119408 294.15105 
L 173.403792 294.856204 
L 177.670241 295.293443 
L 181.945354 295.488 
L 186.177024 295.449093 
L 190.389291 295.196549 
L 194.579769 294.739034 
L 198.697951 294.089683 
L 202.787129 293.256985 
L 206.824178 292.245928 
L 210.826989 291.051918 
L 214.784386 289.669623 
L 218.678986 288.097217 
L 222.499552 286.331688 
L 226.245204 284.364016 
L 229.88528 282.199732 
L 233.437565 279.818396 
L 236.850151 277.235634 
L 240.127613 274.443202 
L 243.22284 271.473269 
L 246.137716 268.335336 
L 248.858862 265.052716 
L 251.393669 261.631111 
L 253.737148 258.084899 
L 255.879381 254.439536 
L 257.841124 250.674883 
L 259.60454 246.81394 
L 261.156502 242.893074 
L 262.511573 238.891694 
L 263.655006 234.849496 
L 264.595128 230.754813 
L 265.322127 226.665294 
L 265.854648 222.549641 
L 266.192935 218.430096 
L 266.342499 214.300375 
L 266.304175 210.178329 
L 266.083352 206.075027 
L 265.684937 201.991572 
L 265.111306 197.925184 
L 264.369107 193.914778 
L 263.457665 189.918974 
L 262.380902 185.974217 
L 261.145979 182.095902 
L 259.745682 178.247653 
L 258.194116 174.488615 
L 256.486898 170.789565 
L 254.622357 167.158084 
L 252.607376 163.615868 
L 250.774333 160.67189 
L 250.774333 160.67189 
" style="fill:none;stroke:#ffffff;stroke-linecap:square;"/>
   </g>
   <g id="patch_3">
    <path d="M 57.6 307.584 
L 57.6 41.472 
" style="fill:none;stroke:#000000;stroke-linecap:square;stroke-linejoin:miter;stroke-width:0.8;"/>
   </g>
   <g id="patch_4">
    <path d="M 414.72 307.584 
L 414.72 41.472 
" style="fill:none;stroke:#000000;stroke-linecap:square;stroke-linejoin:miter;stroke-width:0.8;"/>
   </g>
   <g id="patch_5">
    <path d="M 57.6 307.584 
L 414.72 307.584 
" style="fill:none;stroke:#000000;stroke-linecap:square;stroke-linejoin:miter;stroke-width:0.8;"/>
   </g>
   <g id="patch_6">
    <path d="M 57.6 41.472 
L 414.72 41.472 
" style="fill:none;stroke:#000000;stroke-linecap:square;stroke-linejoin:miter;stroke-width:0.8;"/>
   </g>
  </g>
 </g>
 <defs>
  <clipPath id="p76cdccf195">
   <rect height="266.112" width="357.12" x="57.6" y="41.472"/>
  </clipPath>
 </defs>
</svg>
