<?xml version="1.0" encoding="utf-8" standalone="no"?>
<!DOCTYPE svg PUBLIC "-//W3C//DTD SVG 1.1//EN"
  "http://www.w3.org/Graphics/SVG/1.1/DTD/svg11.dtd">
<!-- Created with matplotlib (https://matplotlib.org/) -->
<svg height="345.6pt" version="1.1" viewBox="0 0 460.8 345.6" width="460.8pt" xmlns="http://www.w3.org/2000/svg" xmlns:xlink="http://www.w3.org/1999/xlink">
 <metadata>
  <rdf:RDF xmlns:cc="http://creativecommons.org/ns#" xmlns:dc="http://purl.org/dc/elements/1.1/" xmlns:rdf="http://www.w3.org/1999/02/22-rdf-syntax-ns#">
   <cc:Work>
    <dc:type rdf:resource="http://purl.org/dc/dcmitype/StillImage"/>
    <dc:date>2021-01-22T09:58:23.347531</dc:date>
    <dc:format>image/svg+xml</dc:format>
    <dc:creator>
     <cc:Agent>
      <dc:title>Matplotlib v3.3.3, https://matplotlib.org/</dc:title>
     </cc:Agent>
    </dc:creator>
   </cc:Work>
  </rdf:RDF>
 </metadata>
 <defs>
  <style type="text/css">*{stroke-linecap:butt;stroke-linejoin:round;}</style>
 </defs>
 <g id="figure_1">
  <g id="patch_1">
   <path d="M 0 345.6 
L 460.8 345.6 
L 460.8 0 
L 0 0 
z
" style="fill:#ffffff;"/>
  </g>
  <g id="axes_1">
   <g id="patch_2">
    <path d="M 57.6 307.584 
L 414.72 307.584 
L 414.72 41.472 
L 57.6 41.472 
z
" style="fill:#7d9051;"/>
   </g>
   <g id="matplotlib.axis_1">
    <g id="xtick_1">
     <g id="line2d_1">
      <defs>
       <path d="M 0 0 
L 0 3.5 
" id="ma532235880" style="stroke:#000000;stroke-width:0.8;"/>
      </defs>
      <g>
       <use style="stroke:#000000;stroke-width:0.8;" x="79.866999" xlink:href="#ma532235880" y="307.584"/>
      </g>
     </g>
     <g id="text_1">
      <!-- −40 -->
      <g transform="translate(69.314655 322.182437)scale(0.1 -0.1)">
       <defs>
        <path d="M 10.59375 35.5 
L 73.1875 35.5 
L 73.1875 27.203125 
L 10.59375 27.203125 
z
" id="DejaVuSans-8722"/>
        <path d="M 37.796875 64.3125 
L 12.890625 25.390625 
L 37.796875 25.390625 
z
M 35.203125 72.90625 
L 47.609375 72.90625 
L 47.609375 25.390625 
L 58.015625 25.390625 
L 58.015625 17.1875 
L 47.609375 17.1875 
L 47.609375 0 
L 37.796875 0 
L 37.796875 17.1875 
L 4.890625 17.1875 
L 4.890625 26.703125 
z
" id="DejaVuSans-52"/>
        <path d="M 31.78125 66.40625 
Q 24.171875 66.40625 20.328125 58.90625 
Q 16.5 51.421875 16.5 36.375 
Q 16.5 21.390625 20.328125 13.890625 
Q 24.171875 6.390625 31.78125 6.390625 
Q 39.453125 6.390625 43.28125 13.890625 
Q 47.125 21.390625 47.125 36.375 
Q 47.125 51.421875 43.28125 58.90625 
Q 39.453125 66.40625 31.78125 66.40625 
z
M 31.78125 74.21875 
Q 44.046875 74.21875 50.515625 64.515625 
Q 56.984375 54.828125 56.984375 36.375 
Q 56.984375 17.96875 50.515625 8.265625 
Q 44.046875 -1.421875 31.78125 -1.421875 
Q 19.53125 -1.421875 13.0625 8.265625 
Q 6.59375 17.96875 6.59375 36.375 
Q 6.59375 54.828125 13.0625 64.515625 
Q 19.53125 74.21875 31.78125 74.21875 
z
" id="DejaVuSans-48"/>
       </defs>
       <use xlink:href="#DejaVuSans-8722"/>
       <use x="83.789062" xlink:href="#DejaVuSans-52"/>
       <use x="147.412109" xlink:href="#DejaVuSans-48"/>
      </g>
     </g>
    </g>
    <g id="xtick_2">
     <g id="line2d_2">
      <g>
       <use style="stroke:#000000;stroke-width:0.8;" x="119.631781" xlink:href="#ma532235880" y="307.584"/>
      </g>
     </g>
     <g id="text_2">
      <!-- −20 -->
      <g transform="translate(109.079438 322.182437)scale(0.1 -0.1)">
       <defs>
        <path d="M 19.1875 8.296875 
L 53.609375 8.296875 
L 53.609375 0 
L 7.328125 0 
L 7.328125 8.296875 
Q 12.9375 14.109375 22.625 23.890625 
Q 32.328125 33.6875 34.8125 36.53125 
Q 39.546875 41.84375 41.421875 45.53125 
Q 43.3125 49.21875 43.3125 52.78125 
Q 43.3125 58.59375 39.234375 62.25 
Q 35.15625 65.921875 28.609375 65.921875 
Q 23.96875 65.921875 18.8125 64.3125 
Q 13.671875 62.703125 7.8125 59.421875 
L 7.8125 69.390625 
Q 13.765625 71.78125 18.9375 73 
Q 24.125 74.21875 28.421875 74.21875 
Q 39.75 74.21875 46.484375 68.546875 
Q 53.21875 62.890625 53.21875 53.421875 
Q 53.21875 48.921875 51.53125 44.890625 
Q 49.859375 40.875 45.40625 35.40625 
Q 44.1875 33.984375 37.640625 27.21875 
Q 31.109375 20.453125 19.1875 8.296875 
z
" id="DejaVuSans-50"/>
       </defs>
       <use xlink:href="#DejaVuSans-8722"/>
       <use x="83.789062" xlink:href="#DejaVuSans-50"/>
       <use x="147.412109" xlink:href="#DejaVuSans-48"/>
      </g>
     </g>
    </g>
    <g id="xtick_3">
     <g id="line2d_3">
      <g>
       <use style="stroke:#000000;stroke-width:0.8;" x="159.396564" xlink:href="#ma532235880" y="307.584"/>
      </g>
     </g>
     <g id="text_3">
      <!-- 0 -->
      <g transform="translate(156.215314 322.182437)scale(0.1 -0.1)">
       <use xlink:href="#DejaVuSans-48"/>
      </g>
     </g>
    </g>
    <g id="xtick_4">
     <g id="line2d_4">
      <g>
       <use style="stroke:#000000;stroke-width:0.8;" x="199.161346" xlink:href="#ma532235880" y="307.584"/>
      </g>
     </g>
     <g id="text_4">
      <!-- 20 -->
      <g transform="translate(192.798846 322.182437)scale(0.1 -0.1)">
       <use xlink:href="#DejaVuSans-50"/>
       <use x="63.623047" xlink:href="#DejaVuSans-48"/>
      </g>
     </g>
    </g>
    <g id="xtick_5">
     <g id="line2d_5">
      <g>
       <use style="stroke:#000000;stroke-width:0.8;" x="238.926128" xlink:href="#ma532235880" y="307.584"/>
      </g>
     </g>
     <g id="text_5">
      <!-- 40 -->
      <g transform="translate(232.563628 322.182437)scale(0.1 -0.1)">
       <use xlink:href="#DejaVuSans-52"/>
       <use x="63.623047" xlink:href="#DejaVuSans-48"/>
      </g>
     </g>
    </g>
    <g id="xtick_6">
     <g id="line2d_6">
      <g>
       <use style="stroke:#000000;stroke-width:0.8;" x="278.69091" xlink:href="#ma532235880" y="307.584"/>
      </g>
     </g>
     <g id="text_6">
      <!-- 60 -->
      <g transform="translate(272.32841 322.182437)scale(0.1 -0.1)">
       <defs>
        <path d="M 33.015625 40.375 
Q 26.375 40.375 22.484375 35.828125 
Q 18.609375 31.296875 18.609375 23.390625 
Q 18.609375 15.53125 22.484375 10.953125 
Q 26.375 6.390625 33.015625 6.390625 
Q 39.65625 6.390625 43.53125 10.953125 
Q 47.40625 15.53125 47.40625 23.390625 
Q 47.40625 31.296875 43.53125 35.828125 
Q 39.65625 40.375 33.015625 40.375 
z
M 52.59375 71.296875 
L 52.59375 62.3125 
Q 48.875 64.0625 45.09375 64.984375 
Q 41.3125 65.921875 37.59375 65.921875 
Q 27.828125 65.921875 22.671875 59.328125 
Q 17.53125 52.734375 16.796875 39.40625 
Q 19.671875 43.65625 24.015625 45.921875 
Q 28.375 48.1875 33.59375 48.1875 
Q 44.578125 48.1875 50.953125 41.515625 
Q 57.328125 34.859375 57.328125 23.390625 
Q 57.328125 12.15625 50.6875 5.359375 
Q 44.046875 -1.421875 33.015625 -1.421875 
Q 20.359375 -1.421875 13.671875 8.265625 
Q 6.984375 17.96875 6.984375 36.375 
Q 6.984375 53.65625 15.1875 63.9375 
Q 23.390625 74.21875 37.203125 74.21875 
Q 40.921875 74.21875 44.703125 73.484375 
Q 48.484375 72.75 52.59375 71.296875 
z
" id="DejaVuSans-54"/>
       </defs>
       <use xlink:href="#DejaVuSans-54"/>
       <use x="63.623047" xlink:href="#DejaVuSans-48"/>
      </g>
     </g>
    </g>
    <g id="xtick_7">
     <g id="line2d_7">
      <g>
       <use style="stroke:#000000;stroke-width:0.8;" x="318.455693" xlink:href="#ma532235880" y="307.584"/>
      </g>
     </g>
     <g id="text_7">
      <!-- 80 -->
      <g transform="translate(312.093193 322.182437)scale(0.1 -0.1)">
       <defs>
        <path d="M 31.78125 34.625 
Q 24.75 34.625 20.71875 30.859375 
Q 16.703125 27.09375 16.703125 20.515625 
Q 16.703125 13.921875 20.71875 10.15625 
Q 24.75 6.390625 31.78125 6.390625 
Q 38.8125 6.390625 42.859375 10.171875 
Q 46.921875 13.96875 46.921875 20.515625 
Q 46.921875 27.09375 42.890625 30.859375 
Q 38.875 34.625 31.78125 34.625 
z
M 21.921875 38.8125 
Q 15.578125 40.375 12.03125 44.71875 
Q 8.5 49.078125 8.5 55.328125 
Q 8.5 64.0625 14.71875 69.140625 
Q 20.953125 74.21875 31.78125 74.21875 
Q 42.671875 74.21875 48.875 69.140625 
Q 55.078125 64.0625 55.078125 55.328125 
Q 55.078125 49.078125 51.53125 44.71875 
Q 48 40.375 41.703125 38.8125 
Q 48.828125 37.15625 52.796875 32.3125 
Q 56.78125 27.484375 56.78125 20.515625 
Q 56.78125 9.90625 50.3125 4.234375 
Q 43.84375 -1.421875 31.78125 -1.421875 
Q 19.734375 -1.421875 13.25 4.234375 
Q 6.78125 9.90625 6.78125 20.515625 
Q 6.78125 27.484375 10.78125 32.3125 
Q 14.796875 37.15625 21.921875 38.8125 
z
M 18.3125 54.390625 
Q 18.3125 48.734375 21.84375 45.5625 
Q 25.390625 42.390625 31.78125 42.390625 
Q 38.140625 42.390625 41.71875 45.5625 
Q 45.3125 48.734375 45.3125 54.390625 
Q 45.3125 60.0625 41.71875 63.234375 
Q 38.140625 66.40625 31.78125 66.40625 
Q 25.390625 66.40625 21.84375 63.234375 
Q 18.3125 60.0625 18.3125 54.390625 
z
" id="DejaVuSans-56"/>
       </defs>
       <use xlink:href="#DejaVuSans-56"/>
       <use x="63.623047" xlink:href="#DejaVuSans-48"/>
      </g>
     </g>
    </g>
    <g id="xtick_8">
     <g id="line2d_8">
      <g>
       <use style="stroke:#000000;stroke-width:0.8;" x="358.220475" xlink:href="#ma532235880" y="307.584"/>
      </g>
     </g>
     <g id="text_8">
      <!-- 100 -->
      <g transform="translate(348.676725 322.182437)scale(0.1 -0.1)">
       <defs>
        <path d="M 12.40625 8.296875 
L 28.515625 8.296875 
L 28.515625 63.921875 
L 10.984375 60.40625 
L 10.984375 69.390625 
L 28.421875 72.90625 
L 38.28125 72.90625 
L 38.28125 8.296875 
L 54.390625 8.296875 
L 54.390625 0 
L 12.40625 0 
z
" id="DejaVuSans-49"/>
       </defs>
       <use xlink:href="#DejaVuSans-49"/>
       <use x="63.623047" xlink:href="#DejaVuSans-48"/>
       <use x="127.246094" xlink:href="#DejaVuSans-48"/>
      </g>
     </g>
    </g>
    <g id="xtick_9">
     <g id="line2d_9">
      <g>
       <use style="stroke:#000000;stroke-width:0.8;" x="397.985257" xlink:href="#ma532235880" y="307.584"/>
      </g>
     </g>
     <g id="text_9">
      <!-- 120 -->
      <g transform="translate(388.441507 322.182437)scale(0.1 -0.1)">
       <use xlink:href="#DejaVuSans-49"/>
       <use x="63.623047" xlink:href="#DejaVuSans-50"/>
       <use x="127.246094" xlink:href="#DejaVuSans-48"/>
      </g>
     </g>
    </g>
   </g>
   <g id="matplotlib.axis_2">
    <g id="ytick_1">
     <g id="line2d_10">
      <defs>
       <path d="M 0 0 
L -3.5 0 
" id="mec70636d8e" style="stroke:#000000;stroke-width:0.8;"/>
      </defs>
      <g>
       <use style="stroke:#000000;stroke-width:0.8;" x="57.6" xlink:href="#mec70636d8e" y="274.473291"/>
      </g>
     </g>
     <g id="text_10">
      <!-- 20 -->
      <g transform="translate(37.875 278.27251)scale(0.1 -0.1)">
       <use xlink:href="#DejaVuSans-50"/>
       <use x="63.623047" xlink:href="#DejaVuSans-48"/>
      </g>
     </g>
    </g>
    <g id="ytick_2">
     <g id="line2d_11">
      <g>
       <use style="stroke:#000000;stroke-width:0.8;" x="57.6" xlink:href="#mec70636d8e" y="234.708509"/>
      </g>
     </g>
     <g id="text_11">
      <!-- 40 -->
      <g transform="translate(37.875 238.507728)scale(0.1 -0.1)">
       <use xlink:href="#DejaVuSans-52"/>
       <use x="63.623047" xlink:href="#DejaVuSans-48"/>
      </g>
     </g>
    </g>
    <g id="ytick_3">
     <g id="line2d_12">
      <g>
       <use style="stroke:#000000;stroke-width:0.8;" x="57.6" xlink:href="#mec70636d8e" y="194.943727"/>
      </g>
     </g>
     <g id="text_12">
      <!-- 60 -->
      <g transform="translate(37.875 198.742945)scale(0.1 -0.1)">
       <use xlink:href="#DejaVuSans-54"/>
       <use x="63.623047" xlink:href="#DejaVuSans-48"/>
      </g>
     </g>
    </g>
    <g id="ytick_4">
     <g id="line2d_13">
      <g>
       <use style="stroke:#000000;stroke-width:0.8;" x="57.6" xlink:href="#mec70636d8e" y="155.178944"/>
      </g>
     </g>
     <g id="text_13">
      <!-- 80 -->
      <g transform="translate(37.875 158.978163)scale(0.1 -0.1)">
       <use xlink:href="#DejaVuSans-56"/>
       <use x="63.623047" xlink:href="#DejaVuSans-48"/>
      </g>
     </g>
    </g>
    <g id="ytick_5">
     <g id="line2d_14">
      <g>
       <use style="stroke:#000000;stroke-width:0.8;" x="57.6" xlink:href="#mec70636d8e" y="115.414162"/>
      </g>
     </g>
     <g id="text_14">
      <!-- 100 -->
      <g transform="translate(31.5125 119.213381)scale(0.1 -0.1)">
       <use xlink:href="#DejaVuSans-49"/>
       <use x="63.623047" xlink:href="#DejaVuSans-48"/>
       <use x="127.246094" xlink:href="#DejaVuSans-48"/>
      </g>
     </g>
    </g>
    <g id="ytick_6">
     <g id="line2d_15">
      <g>
       <use style="stroke:#000000;stroke-width:0.8;" x="57.6" xlink:href="#mec70636d8e" y="75.64938"/>
      </g>
     </g>
     <g id="text_15">
      <!-- 120 -->
      <g transform="translate(31.5125 79.448599)scale(0.1 -0.1)">
       <use xlink:href="#DejaVuSans-49"/>
       <use x="63.623047" xlink:href="#DejaVuSans-50"/>
       <use x="127.246094" xlink:href="#DejaVuSans-48"/>
      </g>
     </g>
    </g>
   </g>
   <g id="line2d_16">
    <path clip-path="url(#p74dff20c4c)" d="M 300.382599 113.509429 
L 298.239277 113.31657 
L 296.163556 112.992487 
L 294.155434 112.545133 
L 292.210936 111.976497 
L 290.33205 111.294531 
L 288.512812 110.507188 
L 285.051287 108.632278 
L 281.812446 106.405451 
L 278.782369 103.874422 
L 275.945152 101.088899 
L 273.284888 98.096599 
L 270.78766 94.949217 
L 268.437561 91.696458 
L 264.037588 85.053751 
L 260.719217 80.114965 
L 258.353213 76.919865 
L 255.774466 73.850023 
L 252.953155 70.9631 
L 249.889279 68.334648 
L 246.59079 66.042208 
L 244.855057 65.046101 
L 243.063654 64.161334 
L 241.21658 63.39785 
L 239.317811 62.76559 
L 237.373313 62.262566 
L 235.393027 61.888777 
L 233.386894 61.642235 
L 231.362867 61.520953 
L 229.334863 61.522941 
L 227.308847 61.650188 
L 225.294761 61.89673 
L 223.304533 62.264554 
L 221.346118 62.749684 
L 219.425479 63.352121 
L 217.550569 64.06391 
L 213.931974 65.79169 
L 210.50425 67.88133 
L 207.277338 70.275169 
L 204.263167 72.923504 
L 201.469692 75.774639 
L 198.869075 78.790798 
L 196.433482 81.942157 
L 193.019675 86.851119 
L 189.810657 91.887329 
L 186.828299 97.050786 
L 185.013036 100.589851 
L 183.368763 104.226341 
L 181.929278 107.978148 
L 180.732358 111.835332 
L 179.835662 115.764092 
L 179.296849 119.734606 
L 179.169602 123.709096 
L 179.278955 125.687394 
L 179.509591 127.653762 
L 180.312839 131.546734 
L 181.513736 135.364153 
L 183.048656 139.088125 
L 184.848013 142.700756 
L 186.852158 146.184151 
L 189.007409 149.540298 
L 192.458992 154.399555 
L 197.296378 160.700284 
L 202.153646 167.010955 
L 205.585346 171.892082 
L 207.684927 175.276065 
L 209.573754 178.797237 
L 211.21604 182.455597 
L 212.589913 186.227286 
L 213.671515 190.082482 
L 214.433011 193.995336 
L 214.854517 197.938015 
L 214.965859 201.896599 
L 214.844576 205.867112 
L 214.403187 211.843759 
L 213.637715 221.832672 
L 213.488597 227.815284 
L 213.615844 231.779833 
L 213.973727 235.718534 
L 214.59207 239.623436 
L 215.425142 243.50249 
L 216.934215 249.288266 
L 220.117386 260.853853 
L 221.487283 266.667464 
L 222.584791 272.514875 
L 223.121615 276.435683 
L 223.473534 280.376373 
L 223.610722 284.338933 
L 223.51131 288.325353 
L 223.149451 292.337619 
L 222.859168 294.355682 
L 222.859168 294.355682 
" style="fill:none;stroke:#fea952;stroke-linecap:square;"/>
   </g>
   <g id="line2d_17">
    <path clip-path="url(#p74dff20c4c)" d="M 299.66986 121.430383 
L 297.012443 121.17433 
L 294.434249 120.755155 
L 291.923212 120.178396 
L 289.497515 119.452248 
L 287.173254 118.593265 
L 284.920908 117.602802 
L 282.771988 116.501173 
L 280.712493 115.29744 
L 278.735449 113.998364 
L 275.040734 111.165387 
L 271.665953 108.082253 
L 268.567081 104.805605 
L 265.722645 101.401728 
L 263.101345 97.924689 
L 259.551382 92.732813 
L 254.268142 84.76611 
L 252.174767 81.927491 
L 249.973467 79.29042 
L 247.634636 76.876042 
L 245.174274 74.739197 
L 242.632262 72.940003 
L 240.025622 71.511156 
L 237.326019 70.465089 
L 234.422955 69.782349 
L 231.370664 69.473905 
L 228.275145 69.544223 
L 225.216808 69.984186 
L 222.248168 70.787304 
L 219.33703 71.960606 
L 216.49965 73.479266 
L 213.743326 75.322687 
L 211.107845 77.44191 
L 208.615768 79.793942 
L 206.245412 82.369233 
L 203.983305 85.138568 
L 201.798937 88.097456 
L 198.632848 92.799785 
L 195.670681 97.573776 
L 193.019477 102.35234 
L 191.456916 105.576638 
L 190.089802 108.820328 
L 188.933256 112.116831 
L 188.031642 115.401255 
L 187.421954 118.623756 
L 187.130447 121.754688 
L 187.177765 124.760941 
L 187.599805 127.78976 
L 188.396479 130.903187 
L 189.534967 134.063712 
L 190.980371 137.249614 
L 192.667899 140.400251 
L 194.554678 143.503171 
L 197.694714 148.092481 
L 202.343146 154.24045 
L 208.57654 162.320971 
L 211.067838 165.797511 
L 213.474391 169.471387 
L 215.727347 173.376032 
L 217.738665 177.482443 
L 219.463861 181.752202 
L 220.866002 186.146481 
L 221.92924 190.675302 
L 222.612158 195.29333 
L 222.89646 199.826584 
L 222.874019 204.214925 
L 222.496738 210.521127 
L 221.583402 222.172637 
L 221.440115 227.664054 
L 221.546809 231.188804 
L 221.847391 234.598297 
L 222.386571 238.043793 
L 223.148063 241.603542 
L 224.590652 247.136871 
L 227.833353 258.926844 
L 229.276168 265.06036 
L 230.096449 269.236841 
L 230.766 273.481928 
L 231.252146 277.796521 
L 231.522317 282.195325 
L 231.539162 286.653663 
L 231.272144 291.172277 
L 230.731104 295.488 
L 230.731104 295.488 
" style="fill:none;stroke:#ffffff;stroke-linecap:square;"/>
   </g>
   <g id="line2d_18">
    <path clip-path="url(#p74dff20c4c)" d="M 301.095338 105.588474 
L 297.892863 105.229819 
L 294.924357 104.500745 
L 292.104716 103.411574 
L 289.390082 101.967117 
L 286.775728 100.191326 
L 284.248435 98.097603 
L 281.804752 95.711669 
L 279.450298 93.072932 
L 277.186671 90.226699 
L 275.010686 87.219456 
L 270.687784 80.692052 
L 267.170292 75.46382 
L 264.531658 71.912238 
L 261.575466 68.409626 
L 258.271674 65.050159 
L 256.484878 63.454801 
L 254.604284 61.930099 
L 252.627483 60.48949 
L 250.549318 59.144414 
L 248.376863 57.915434 
L 246.101686 56.811512 
L 243.729155 55.852224 
L 241.309604 55.066092 
L 238.848426 54.447608 
L 236.3631 53.995205 
L 233.862593 53.703518 
L 231.35507 53.568 
L 228.836346 53.585624 
L 226.342549 53.756153 
L 223.849411 54.076213 
L 221.392259 54.544922 
L 218.9659 55.161267 
L 216.60279 55.916938 
L 214.319105 56.797057 
L 212.097796 57.797571 
L 209.962477 58.900202 
L 207.88488 60.10826 
L 203.98458 62.762236 
L 200.37699 65.701092 
L 197.063409 68.860459 
L 194.049613 72.158427 
L 191.281475 75.564563 
L 188.73781 79.019734 
L 185.227393 84.238718 
L 181.902747 89.608724 
L 179.796285 93.33591 
L 177.810057 97.218412 
L 175.988986 101.261815 
L 174.376643 105.486718 
L 173.016857 109.906456 
L 171.98318 114.503914 
L 171.613133 116.868977 
L 171.358169 119.258285 
L 171.224662 121.691001 
L 171.228767 124.148036 
L 171.380145 126.613846 
L 171.679744 129.047682 
L 172.11526 131.426643 
L 172.67279 133.755619 
L 174.102281 138.248569 
L 175.873757 142.518918 
L 177.902188 146.574389 
L 180.112072 150.405614 
L 182.451983 154.043176 
L 186.09854 159.173879 
L 191.031542 165.599402 
L 195.730752 171.70094 
L 198.886222 176.178252 
L 200.740659 179.152489 
L 202.377234 182.182442 
L 203.797657 185.322148 
L 204.975627 188.523408 
L 205.898006 191.762384 
L 206.545706 195.015109 
L 206.909698 198.29769 
L 207.014343 201.745217 
L 206.906831 205.375464 
L 206.479981 211.156502 
L 205.692028 221.492708 
L 205.547713 225.777387 
L 205.581538 230.160849 
L 205.855398 234.602538 
L 206.417499 239.042016 
L 207.229927 243.325735 
L 208.736622 249.463587 
L 213.292755 266.445442 
L 214.413038 271.888008 
L 214.984148 275.464654 
L 215.392709 279.011559 
L 215.619598 282.514017 
L 215.646495 286.004659 
L 215.456217 289.482742 
L 214.987232 293.223364 
L 214.987232 293.223364 
" style="fill:none;stroke:#ffffff;stroke-linecap:square;"/>
   </g>
   <g id="patch_3">
    <path d="M 57.6 307.584 
L 57.6 41.472 
" style="fill:none;stroke:#000000;stroke-linecap:square;stroke-linejoin:miter;stroke-width:0.8;"/>
   </g>
   <g id="patch_4">
    <path d="M 414.72 307.584 
L 414.72 41.472 
" style="fill:none;stroke:#000000;stroke-linecap:square;stroke-linejoin:miter;stroke-width:0.8;"/>
   </g>
   <g id="patch_5">
    <path d="M 57.6 307.584 
L 414.72 307.584 
" style="fill:none;stroke:#000000;stroke-linecap:square;stroke-linejoin:miter;stroke-width:0.8;"/>
   </g>
   <g id="patch_6">
    <path d="M 57.6 41.472 
L 414.72 41.472 
" style="fill:none;stroke:#000000;stroke-linecap:square;stroke-linejoin:miter;stroke-width:0.8;"/>
   </g>
  </g>
 </g>
 <defs>
  <clipPath id="p74dff20c4c">
   <rect height="266.112" width="357.12" x="57.6" y="41.472"/>
  </clipPath>
 </defs>
</svg>
