<?xml version="1.0" encoding="utf-8" standalone="no"?>
<!DOCTYPE svg PUBLIC "-//W3C//DTD SVG 1.1//EN"
  "http://www.w3.org/Graphics/SVG/1.1/DTD/svg11.dtd">
<!-- Created with matplotlib (https://matplotlib.org/) -->
<svg height="345.6pt" version="1.1" viewBox="0 0 460.8 345.6" width="460.8pt" xmlns="http://www.w3.org/2000/svg" xmlns:xlink="http://www.w3.org/1999/xlink">
 <metadata>
  <rdf:RDF xmlns:cc="http://creativecommons.org/ns#" xmlns:dc="http://purl.org/dc/elements/1.1/" xmlns:rdf="http://www.w3.org/1999/02/22-rdf-syntax-ns#">
   <cc:Work>
    <dc:type rdf:resource="http://purl.org/dc/dcmitype/StillImage"/>
    <dc:date>2021-01-25T12:27:38.490930</dc:date>
    <dc:format>image/svg+xml</dc:format>
    <dc:creator>
     <cc:Agent>
      <dc:title>Matplotlib v3.3.3, https://matplotlib.org/</dc:title>
     </cc:Agent>
    </dc:creator>
   </cc:Work>
  </rdf:RDF>
 </metadata>
 <defs>
  <style type="text/css">*{stroke-linecap:butt;stroke-linejoin:round;}</style>
 </defs>
 <g id="figure_1">
  <g id="patch_1">
   <path d="M 0 345.6 
L 460.8 345.6 
L 460.8 0 
L 0 0 
z
" style="fill:#ffffff;"/>
  </g>
  <g id="axes_1">
   <g id="patch_2">
    <path d="M 57.6 307.584 
L 414.72 307.584 
L 414.72 41.472 
L 57.6 41.472 
z
" style="fill:#7d9051;"/>
   </g>
   <g id="matplotlib.axis_1">
    <g id="xtick_1">
     <g id="line2d_1">
      <defs>
       <path d="M 0 0 
L 0 3.5 
" id="m9dff4de0d5" style="stroke:#000000;stroke-width:0.8;"/>
      </defs>
      <g>
       <use style="stroke:#000000;stroke-width:0.8;" x="126.777454" xlink:href="#m9dff4de0d5" y="307.584"/>
      </g>
     </g>
     <g id="text_1">
      <!-- 20 -->
      <g transform="translate(120.414954 322.182437)scale(0.1 -0.1)">
       <defs>
        <path d="M 19.1875 8.296875 
L 53.609375 8.296875 
L 53.609375 0 
L 7.328125 0 
L 7.328125 8.296875 
Q 12.9375 14.109375 22.625 23.890625 
Q 32.328125 33.6875 34.8125 36.53125 
Q 39.546875 41.84375 41.421875 45.53125 
Q 43.3125 49.21875 43.3125 52.78125 
Q 43.3125 58.59375 39.234375 62.25 
Q 35.15625 65.921875 28.609375 65.921875 
Q 23.96875 65.921875 18.8125 64.3125 
Q 13.671875 62.703125 7.8125 59.421875 
L 7.8125 69.390625 
Q 13.765625 71.78125 18.9375 73 
Q 24.125 74.21875 28.421875 74.21875 
Q 39.75 74.21875 46.484375 68.546875 
Q 53.21875 62.890625 53.21875 53.421875 
Q 53.21875 48.921875 51.53125 44.890625 
Q 49.859375 40.875 45.40625 35.40625 
Q 44.1875 33.984375 37.640625 27.21875 
Q 31.109375 20.453125 19.1875 8.296875 
z
" id="DejaVuSans-50"/>
        <path d="M 31.78125 66.40625 
Q 24.171875 66.40625 20.328125 58.90625 
Q 16.5 51.421875 16.5 36.375 
Q 16.5 21.390625 20.328125 13.890625 
Q 24.171875 6.390625 31.78125 6.390625 
Q 39.453125 6.390625 43.28125 13.890625 
Q 47.125 21.390625 47.125 36.375 
Q 47.125 51.421875 43.28125 58.90625 
Q 39.453125 66.40625 31.78125 66.40625 
z
M 31.78125 74.21875 
Q 44.046875 74.21875 50.515625 64.515625 
Q 56.984375 54.828125 56.984375 36.375 
Q 56.984375 17.96875 50.515625 8.265625 
Q 44.046875 -1.421875 31.78125 -1.421875 
Q 19.53125 -1.421875 13.0625 8.265625 
Q 6.59375 17.96875 6.59375 36.375 
Q 6.59375 54.828125 13.0625 64.515625 
Q 19.53125 74.21875 31.78125 74.21875 
z
" id="DejaVuSans-48"/>
       </defs>
       <use xlink:href="#DejaVuSans-50"/>
       <use x="63.623047" xlink:href="#DejaVuSans-48"/>
      </g>
     </g>
    </g>
    <g id="xtick_2">
     <g id="line2d_2">
      <g>
       <use style="stroke:#000000;stroke-width:0.8;" x="200.941151" xlink:href="#m9dff4de0d5" y="307.584"/>
      </g>
     </g>
     <g id="text_2">
      <!-- 40 -->
      <g transform="translate(194.578651 322.182437)scale(0.1 -0.1)">
       <defs>
        <path d="M 37.796875 64.3125 
L 12.890625 25.390625 
L 37.796875 25.390625 
z
M 35.203125 72.90625 
L 47.609375 72.90625 
L 47.609375 25.390625 
L 58.015625 25.390625 
L 58.015625 17.1875 
L 47.609375 17.1875 
L 47.609375 0 
L 37.796875 0 
L 37.796875 17.1875 
L 4.890625 17.1875 
L 4.890625 26.703125 
z
" id="DejaVuSans-52"/>
       </defs>
       <use xlink:href="#DejaVuSans-52"/>
       <use x="63.623047" xlink:href="#DejaVuSans-48"/>
      </g>
     </g>
    </g>
    <g id="xtick_3">
     <g id="line2d_3">
      <g>
       <use style="stroke:#000000;stroke-width:0.8;" x="275.104847" xlink:href="#m9dff4de0d5" y="307.584"/>
      </g>
     </g>
     <g id="text_3">
      <!-- 60 -->
      <g transform="translate(268.742347 322.182437)scale(0.1 -0.1)">
       <defs>
        <path d="M 33.015625 40.375 
Q 26.375 40.375 22.484375 35.828125 
Q 18.609375 31.296875 18.609375 23.390625 
Q 18.609375 15.53125 22.484375 10.953125 
Q 26.375 6.390625 33.015625 6.390625 
Q 39.65625 6.390625 43.53125 10.953125 
Q 47.40625 15.53125 47.40625 23.390625 
Q 47.40625 31.296875 43.53125 35.828125 
Q 39.65625 40.375 33.015625 40.375 
z
M 52.59375 71.296875 
L 52.59375 62.3125 
Q 48.875 64.0625 45.09375 64.984375 
Q 41.3125 65.921875 37.59375 65.921875 
Q 27.828125 65.921875 22.671875 59.328125 
Q 17.53125 52.734375 16.796875 39.40625 
Q 19.671875 43.65625 24.015625 45.921875 
Q 28.375 48.1875 33.59375 48.1875 
Q 44.578125 48.1875 50.953125 41.515625 
Q 57.328125 34.859375 57.328125 23.390625 
Q 57.328125 12.15625 50.6875 5.359375 
Q 44.046875 -1.421875 33.015625 -1.421875 
Q 20.359375 -1.421875 13.671875 8.265625 
Q 6.984375 17.96875 6.984375 36.375 
Q 6.984375 53.65625 15.1875 63.9375 
Q 23.390625 74.21875 37.203125 74.21875 
Q 40.921875 74.21875 44.703125 73.484375 
Q 48.484375 72.75 52.59375 71.296875 
z
" id="DejaVuSans-54"/>
       </defs>
       <use xlink:href="#DejaVuSans-54"/>
       <use x="63.623047" xlink:href="#DejaVuSans-48"/>
      </g>
     </g>
    </g>
    <g id="xtick_4">
     <g id="line2d_4">
      <g>
       <use style="stroke:#000000;stroke-width:0.8;" x="349.268543" xlink:href="#m9dff4de0d5" y="307.584"/>
      </g>
     </g>
     <g id="text_4">
      <!-- 80 -->
      <g transform="translate(342.906043 322.182437)scale(0.1 -0.1)">
       <defs>
        <path d="M 31.78125 34.625 
Q 24.75 34.625 20.71875 30.859375 
Q 16.703125 27.09375 16.703125 20.515625 
Q 16.703125 13.921875 20.71875 10.15625 
Q 24.75 6.390625 31.78125 6.390625 
Q 38.8125 6.390625 42.859375 10.171875 
Q 46.921875 13.96875 46.921875 20.515625 
Q 46.921875 27.09375 42.890625 30.859375 
Q 38.875 34.625 31.78125 34.625 
z
M 21.921875 38.8125 
Q 15.578125 40.375 12.03125 44.71875 
Q 8.5 49.078125 8.5 55.328125 
Q 8.5 64.0625 14.71875 69.140625 
Q 20.953125 74.21875 31.78125 74.21875 
Q 42.671875 74.21875 48.875 69.140625 
Q 55.078125 64.0625 55.078125 55.328125 
Q 55.078125 49.078125 51.53125 44.71875 
Q 48 40.375 41.703125 38.8125 
Q 48.828125 37.15625 52.796875 32.3125 
Q 56.78125 27.484375 56.78125 20.515625 
Q 56.78125 9.90625 50.3125 4.234375 
Q 43.84375 -1.421875 31.78125 -1.421875 
Q 19.734375 -1.421875 13.25 4.234375 
Q 6.78125 9.90625 6.78125 20.515625 
Q 6.78125 27.484375 10.78125 32.3125 
Q 14.796875 37.15625 21.921875 38.8125 
z
M 18.3125 54.390625 
Q 18.3125 48.734375 21.84375 45.5625 
Q 25.390625 42.390625 31.78125 42.390625 
Q 38.140625 42.390625 41.71875 45.5625 
Q 45.3125 48.734375 45.3125 54.390625 
Q 45.3125 60.0625 41.71875 63.234375 
Q 38.140625 66.40625 31.78125 66.40625 
Q 25.390625 66.40625 21.84375 63.234375 
Q 18.3125 60.0625 18.3125 54.390625 
z
" id="DejaVuSans-56"/>
       </defs>
       <use xlink:href="#DejaVuSans-56"/>
       <use x="63.623047" xlink:href="#DejaVuSans-48"/>
      </g>
     </g>
    </g>
   </g>
   <g id="matplotlib.axis_2">
    <g id="ytick_1">
     <g id="line2d_5">
      <defs>
       <path d="M 0 0 
L -3.5 0 
" id="m74881f9611" style="stroke:#000000;stroke-width:0.8;"/>
      </defs>
      <g>
       <use style="stroke:#000000;stroke-width:0.8;" x="57.6" xlink:href="#m74881f9611" y="304.996786"/>
      </g>
     </g>
     <g id="text_5">
      <!-- 0 -->
      <g transform="translate(44.2375 308.796005)scale(0.1 -0.1)">
       <use xlink:href="#DejaVuSans-48"/>
      </g>
     </g>
    </g>
    <g id="ytick_2">
     <g id="line2d_6">
      <g>
       <use style="stroke:#000000;stroke-width:0.8;" x="57.6" xlink:href="#m74881f9611" y="267.914938"/>
      </g>
     </g>
     <g id="text_6">
      <!-- 10 -->
      <g transform="translate(37.875 271.714157)scale(0.1 -0.1)">
       <defs>
        <path d="M 12.40625 8.296875 
L 28.515625 8.296875 
L 28.515625 63.921875 
L 10.984375 60.40625 
L 10.984375 69.390625 
L 28.421875 72.90625 
L 38.28125 72.90625 
L 38.28125 8.296875 
L 54.390625 8.296875 
L 54.390625 0 
L 12.40625 0 
z
" id="DejaVuSans-49"/>
       </defs>
       <use xlink:href="#DejaVuSans-49"/>
       <use x="63.623047" xlink:href="#DejaVuSans-48"/>
      </g>
     </g>
    </g>
    <g id="ytick_3">
     <g id="line2d_7">
      <g>
       <use style="stroke:#000000;stroke-width:0.8;" x="57.6" xlink:href="#m74881f9611" y="230.83309"/>
      </g>
     </g>
     <g id="text_7">
      <!-- 20 -->
      <g transform="translate(37.875 234.632308)scale(0.1 -0.1)">
       <use xlink:href="#DejaVuSans-50"/>
       <use x="63.623047" xlink:href="#DejaVuSans-48"/>
      </g>
     </g>
    </g>
    <g id="ytick_4">
     <g id="line2d_8">
      <g>
       <use style="stroke:#000000;stroke-width:0.8;" x="57.6" xlink:href="#m74881f9611" y="193.751242"/>
      </g>
     </g>
     <g id="text_8">
      <!-- 30 -->
      <g transform="translate(37.875 197.55046)scale(0.1 -0.1)">
       <defs>
        <path d="M 40.578125 39.3125 
Q 47.65625 37.796875 51.625 33 
Q 55.609375 28.21875 55.609375 21.1875 
Q 55.609375 10.40625 48.1875 4.484375 
Q 40.765625 -1.421875 27.09375 -1.421875 
Q 22.515625 -1.421875 17.65625 -0.515625 
Q 12.796875 0.390625 7.625 2.203125 
L 7.625 11.71875 
Q 11.71875 9.328125 16.59375 8.109375 
Q 21.484375 6.890625 26.8125 6.890625 
Q 36.078125 6.890625 40.9375 10.546875 
Q 45.796875 14.203125 45.796875 21.1875 
Q 45.796875 27.640625 41.28125 31.265625 
Q 36.765625 34.90625 28.71875 34.90625 
L 20.21875 34.90625 
L 20.21875 43.015625 
L 29.109375 43.015625 
Q 36.375 43.015625 40.234375 45.921875 
Q 44.09375 48.828125 44.09375 54.296875 
Q 44.09375 59.90625 40.109375 62.90625 
Q 36.140625 65.921875 28.71875 65.921875 
Q 24.65625 65.921875 20.015625 65.03125 
Q 15.375 64.15625 9.8125 62.3125 
L 9.8125 71.09375 
Q 15.4375 72.65625 20.34375 73.4375 
Q 25.25 74.21875 29.59375 74.21875 
Q 40.828125 74.21875 47.359375 69.109375 
Q 53.90625 64.015625 53.90625 55.328125 
Q 53.90625 49.265625 50.4375 45.09375 
Q 46.96875 40.921875 40.578125 39.3125 
z
" id="DejaVuSans-51"/>
       </defs>
       <use xlink:href="#DejaVuSans-51"/>
       <use x="63.623047" xlink:href="#DejaVuSans-48"/>
      </g>
     </g>
    </g>
    <g id="ytick_5">
     <g id="line2d_9">
      <g>
       <use style="stroke:#000000;stroke-width:0.8;" x="57.6" xlink:href="#m74881f9611" y="156.669393"/>
      </g>
     </g>
     <g id="text_9">
      <!-- 40 -->
      <g transform="translate(37.875 160.468612)scale(0.1 -0.1)">
       <use xlink:href="#DejaVuSans-52"/>
       <use x="63.623047" xlink:href="#DejaVuSans-48"/>
      </g>
     </g>
    </g>
    <g id="ytick_6">
     <g id="line2d_10">
      <g>
       <use style="stroke:#000000;stroke-width:0.8;" x="57.6" xlink:href="#m74881f9611" y="119.587545"/>
      </g>
     </g>
     <g id="text_10">
      <!-- 50 -->
      <g transform="translate(37.875 123.386764)scale(0.1 -0.1)">
       <defs>
        <path d="M 10.796875 72.90625 
L 49.515625 72.90625 
L 49.515625 64.59375 
L 19.828125 64.59375 
L 19.828125 46.734375 
Q 21.96875 47.46875 24.109375 47.828125 
Q 26.265625 48.1875 28.421875 48.1875 
Q 40.625 48.1875 47.75 41.5 
Q 54.890625 34.8125 54.890625 23.390625 
Q 54.890625 11.625 47.5625 5.09375 
Q 40.234375 -1.421875 26.90625 -1.421875 
Q 22.3125 -1.421875 17.546875 -0.640625 
Q 12.796875 0.140625 7.71875 1.703125 
L 7.71875 11.625 
Q 12.109375 9.234375 16.796875 8.0625 
Q 21.484375 6.890625 26.703125 6.890625 
Q 35.15625 6.890625 40.078125 11.328125 
Q 45.015625 15.765625 45.015625 23.390625 
Q 45.015625 31 40.078125 35.4375 
Q 35.15625 39.890625 26.703125 39.890625 
Q 22.75 39.890625 18.8125 39.015625 
Q 14.890625 38.140625 10.796875 36.28125 
z
" id="DejaVuSans-53"/>
       </defs>
       <use xlink:href="#DejaVuSans-53"/>
       <use x="63.623047" xlink:href="#DejaVuSans-48"/>
      </g>
     </g>
    </g>
    <g id="ytick_7">
     <g id="line2d_11">
      <g>
       <use style="stroke:#000000;stroke-width:0.8;" x="57.6" xlink:href="#m74881f9611" y="82.505697"/>
      </g>
     </g>
     <g id="text_11">
      <!-- 60 -->
      <g transform="translate(37.875 86.304916)scale(0.1 -0.1)">
       <use xlink:href="#DejaVuSans-54"/>
       <use x="63.623047" xlink:href="#DejaVuSans-48"/>
      </g>
     </g>
    </g>
    <g id="ytick_8">
     <g id="line2d_12">
      <g>
       <use style="stroke:#000000;stroke-width:0.8;" x="57.6" xlink:href="#m74881f9611" y="45.423849"/>
      </g>
     </g>
     <g id="text_12">
      <!-- 70 -->
      <g transform="translate(37.875 49.223068)scale(0.1 -0.1)">
       <defs>
        <path d="M 8.203125 72.90625 
L 55.078125 72.90625 
L 55.078125 68.703125 
L 28.609375 0 
L 18.3125 0 
L 43.21875 64.59375 
L 8.203125 64.59375 
z
" id="DejaVuSans-55"/>
       </defs>
       <use xlink:href="#DejaVuSans-55"/>
       <use x="63.623047" xlink:href="#DejaVuSans-48"/>
      </g>
     </g>
    </g>
   </g>
   <g id="line2d_13">
    <path clip-path="url(#p6b433db465)" d="M 89.695606 216.990436 
L 89.050382 209.640813 
L 88.712937 202.228152 
L 88.701813 194.785825 
L 89.031841 187.336082 
L 89.725272 179.908588 
L 90.800645 172.533008 
L 92.276503 165.2353 
L 93.170175 161.623528 
L 94.171385 158.041422 
L 95.280133 154.492689 
L 96.503834 150.981038 
L 97.842488 147.510177 
L 99.292388 144.083814 
L 100.864659 140.70195 
L 102.555591 137.375708 
L 104.357769 134.108797 
L 106.278609 130.904925 
L 108.306986 127.775217 
L 110.450317 124.719673 
L 112.701185 121.745709 
L 115.063298 118.864449 
L 117.529241 116.075894 
L 120.099013 113.38746 
L 122.772615 110.806564 
L 125.542629 108.329496 
L 128.405347 105.956258 
L 131.353354 103.686849 
L 134.375525 101.513853 
L 137.471859 99.440977 
L 140.634941 97.460807 
L 147.131681 93.789704 
L 153.821246 90.482003 
L 160.666555 87.54512 
L 167.6639 85.023555 
L 171.216341 83.922224 
L 174.802156 82.939555 
L 178.421344 82.075548 
L 182.070198 81.333911 
L 185.752426 80.72206 
L 189.46061 80.239996 
L 193.191044 79.895135 
L 196.932603 79.691185 
L 200.681578 79.628146 
L 204.423136 79.713434 
L 208.15357 79.94705 
L 211.865463 80.332701 
L 215.54769 80.877804 
L 219.192836 81.578651 
L 222.793484 82.446366 
L 226.342216 83.477242 
L 229.842743 84.656444 
L 236.736258 87.359711 
L 243.525945 90.393006 
L 260.394478 98.280315 
L 270.632776 102.648557 
L 284.390141 108.166336 
L 301.592411 115.085809 
L 311.812168 119.494841 
L 318.538815 122.620841 
L 325.176466 125.935958 
L 331.702871 129.480982 
L 338.080949 133.281872 
L 344.273618 137.383124 
L 350.247504 141.814405 
L 353.139888 144.161686 
L 355.965525 146.60538 
L 358.716998 149.149195 
L 361.379475 151.789422 
L 363.945538 154.526063 
L 366.404065 157.355408 
L 368.74393 160.284874 
L 370.946591 163.303336 
L 373.008342 166.414503 
L 374.910641 169.614667 
L 376.646071 172.903827 
L 378.199801 176.281983 
L 379.560705 179.745428 
L 380.732491 183.283036 
L 381.707744 186.887391 
L 382.490171 190.54737 
L 383.072356 194.248138 
L 383.465423 197.98228 
L 383.654541 201.74238 
L 383.650832 205.513604 
L 383.446882 209.284828 
L 383.04269 213.048635 
L 382.441964 216.790194 
L 381.640996 220.49467 
L 380.639786 224.150941 
L 379.438335 227.740464 
L 378.044057 231.248406 
L 376.449538 234.656228 
L 374.662192 237.952804 
L 372.674605 241.115886 
L 370.497901 244.134349 
L 368.120954 246.993359 
L 365.558599 249.678085 
L 362.814542 252.188526 
L 359.911033 254.524682 
L 356.855489 256.686554 
L 353.673866 258.677849 
L 350.37729 260.498568 
L 346.976885 262.14871 
L 343.494899 263.631984 
L 339.946166 264.94839 
L 336.341811 266.101635 
L 332.700373 267.091721 
L 329.02927 267.91123 
L 325.33221 268.560162 
L 321.616609 269.031101 
L 317.889883 269.32034 
L 314.159449 269.427877 
L 310.429015 269.342589 
L 306.705998 269.064475 
L 302.994105 268.589827 
L 299.304461 267.914938 
L 295.644482 267.03239 
L 292.025294 265.9496 
L 288.469145 264.66286 
L 284.990867 263.175878 
L 281.605295 261.49607 
L 278.334676 259.623437 
L 275.190135 257.557978 
L 272.193922 255.303401 
L 269.360868 252.863416 
L 266.709516 250.238021 
L 264.25099 247.434633 
L 261.988997 244.468085 
L 259.930954 241.349502 
L 258.073154 238.093716 
L 256.415595 234.715559 
L 254.961987 231.237282 
L 253.712329 227.662592 
L 252.66662 224.017446 
L 251.828571 220.309261 
L 251.198179 216.556578 
L 250.775446 212.77423 
L 250.560371 208.977048 
L 250.560371 205.176159 
L 250.76803 201.39381 
L 251.190763 197.641127 
L 251.824862 193.932943 
L 252.674037 190.287797 
L 253.741994 186.716815 
L 255.025026 183.234829 
L 256.526841 179.860381 
L 256.526841 179.860381 
" style="fill:none;stroke:#fea952;stroke-linecap:square;"/>
   </g>
   <g id="line2d_14">
    <path clip-path="url(#p6b433db465)" d="M 74.933698 218.438267 
L 74.240939 210.471804 
L 73.881444 202.420385 
L 73.876587 194.313778 
L 74.247235 186.142111 
L 75.02085 177.961763 
L 76.221791 169.800396 
L 76.991658 165.725797 
L 77.877978 161.672626 
L 78.88494 157.630761 
L 80.013569 153.618029 
L 81.273454 149.611798 
L 82.664721 145.643517 
L 84.182429 141.729784 
L 85.842182 137.830648 
L 87.64237 133.980251 
L 89.567946 130.211127 
L 91.636202 126.481747 
L 93.831422 122.837851 
L 96.163846 119.257335 
L 98.623171 115.768205 
L 101.230492 112.341808 
L 103.951936 109.038577 
L 106.806951 105.826863 
L 109.797331 102.715746 
L 112.885249 99.749884 
L 116.076069 96.910459 
L 119.35738 94.202771 
L 122.694302 91.643969 
L 126.123972 89.188187 
L 129.601251 86.868639 
L 133.160237 84.649134 
L 136.739181 82.567618 
L 140.380618 80.582384 
L 147.784778 76.933158 
L 151.566652 75.25444 
L 155.434144 73.665927 
L 159.325063 72.205869 
L 163.271674 70.856039 
L 167.296068 69.616924 
L 171.35793 68.512238 
L 175.466967 67.540012 
L 179.638879 66.701794 
L 183.84026 66.013091 
L 188.095215 65.470235 
L 192.383719 65.084383 
L 196.683225 64.860542 
L 201.0196 64.799259 
L 205.350209 64.909695 
L 209.686383 65.193723 
L 214.037574 65.659866 
L 218.348265 66.311853 
L 222.667875 67.158725 
L 226.931216 68.202444 
L 231.077388 69.420631 
L 235.060639 70.771787 
L 238.917147 72.227494 
L 246.302688 75.354621 
L 256.624192 80.178542 
L 266.344377 84.693232 
L 276.238542 88.915912 
L 289.852784 94.376133 
L 307.345707 101.414316 
L 317.979024 106.004843 
L 325.059352 109.2982 
L 332.133519 112.835974 
L 339.152703 116.654831 
L 346.119815 120.816448 
L 352.939678 125.345286 
L 356.297838 127.770261 
L 359.594247 130.297091 
L 362.842525 132.942551 
L 366.034808 135.714114 
L 369.161229 138.61695 
L 372.199595 141.643726 
L 375.14188 144.797132 
L 377.993641 148.098417 
L 380.725682 151.541433 
L 383.310802 155.109652 
L 385.758491 158.83533 
L 388.029337 162.692964 
L 390.12181 166.705874 
L 392.005036 170.857442 
L 393.641107 175.081479 
L 395.050371 179.408959 
L 396.212736 183.786527 
L 397.142708 188.242311 
L 397.823596 192.695376 
L 398.279437 197.237197 
L 398.487273 201.756965 
L 398.461928 206.314597 
L 398.194825 210.868597 
L 397.687869 215.399992 
L 396.939694 219.924838 
L 395.947061 224.412153 
L 394.705535 228.858898 
L 393.222213 233.219045 
L 391.478879 237.534558 
L 389.48903 241.726009 
L 387.221269 245.844557 
L 384.705432 249.791679 
L 381.903633 253.616935 
L 378.850972 257.234301 
L 375.570726 260.621917 
L 372.112843 263.744985 
L 368.478089 266.63318 
L 364.724727 269.25975 
L 360.845018 271.661868 
L 356.853063 273.843025 
L 352.789956 275.794895 
L 348.653621 277.538736 
L 344.466298 279.075618 
L 340.233462 280.414748 
L 335.931979 281.568146 
L 331.593607 282.520621 
L 327.197287 283.275176 
L 322.764355 283.819368 
L 318.317289 284.14692 
L 313.820419 284.256741 
L 309.324071 284.134115 
L 304.824623 283.777414 
L 300.32526 283.18049 
L 295.827431 282.334384 
L 291.393013 281.242779 
L 286.978502 279.897361 
L 282.638529 278.301557 
L 278.398245 276.462995 
L 274.235196 274.368203 
L 270.191489 272.020963 
L 266.271727 269.410072 
L 262.514278 266.54238 
L 258.924258 263.403213 
L 255.557715 260.017974 
L 252.455944 256.428356 
L 249.609047 252.637969 
L 247.048018 248.700699 
L 244.757023 244.627536 
L 242.729887 240.43496 
L 240.960171 236.132107 
L 239.454681 231.752781 
L 238.19876 227.287182 
L 237.200784 222.766498 
L 236.457221 218.204097 
L 235.966443 213.613021 
L 235.727632 208.977048 
L 235.749936 204.363037 
L 236.028515 199.73343 
L 236.570243 195.141018 
L 237.378938 190.567615 
L 238.463199 186.037827 
L 239.824048 181.588371 
L 241.47377 177.203776 
L 242.975585 173.829328 
L 242.975585 173.829328 
" style="fill:none;stroke:#ffffff;stroke-linecap:square;"/>
   </g>
   <g id="line2d_15">
    <path clip-path="url(#p6b433db465)" d="M 104.457515 215.542605 
L 103.859825 208.809823 
L 103.544431 202.035919 
L 103.527039 195.257872 
L 103.816448 188.530053 
L 104.429694 181.855412 
L 105.379499 175.26562 
L 106.675027 168.797974 
L 108.329201 162.464815 
L 110.342946 156.318559 
L 112.742595 150.336981 
L 114.086948 147.423648 
L 117.079336 141.735847 
L 120.450125 136.293099 
L 122.277462 133.671141 
L 124.171878 131.14961 
L 126.174661 128.690322 
L 128.251532 126.324925 
L 130.400696 124.059175 
L 132.65998 121.863243 
L 135.009188 119.748533 
L 137.453314 117.709745 
L 142.627078 113.839518 
L 148.109645 110.272479 
L 153.882744 106.997024 
L 159.857714 104.030848 
L 165.898967 101.424314 
L 172.056126 99.191071 
L 178.246382 97.366871 
L 184.501517 95.966028 
L 187.664592 95.43103 
L 190.826006 95.009758 
L 193.99837 94.705887 
L 197.181981 94.521828 
L 200.343555 94.457033 
L 203.496063 94.517173 
L 206.620757 94.700376 
L 209.693351 95.005536 
L 212.747116 95.443755 
L 215.717797 95.998577 
L 218.655751 96.690289 
L 221.607045 97.533852 
L 224.624847 98.541102 
L 230.798786 100.95223 
L 237.219456 103.818294 
L 254.444578 111.867399 
L 265.027009 116.381202 
L 278.927499 121.956539 
L 295.839114 128.757302 
L 305.645312 132.984838 
L 312.018279 135.943481 
L 318.219413 139.035941 
L 324.25304 142.307134 
L 330.042083 145.747296 
L 335.607558 149.420963 
L 340.90076 153.33172 
L 345.896241 157.496646 
L 348.272766 159.681439 
L 350.559354 161.935118 
L 352.749197 164.254994 
L 354.814489 166.612398 
L 356.762177 169.028315 
L 358.582381 171.49702 
L 360.258193 173.993676 
L 361.791945 176.536369 
L 363.170332 179.101779 
L 364.394566 181.706524 
L 365.480302 184.409376 
L 366.414611 187.157112 
L 367.202752 189.988256 
L 367.837633 192.852428 
L 368.321116 195.8009 
L 368.651409 198.727364 
L 368.821809 201.727795 
L 368.839737 204.71261 
L 368.698939 207.701058 
L 368.397511 210.697278 
L 367.944235 213.65555 
L 367.334932 216.577188 
L 366.574038 219.442983 
L 365.654456 222.261882 
L 364.609235 224.962254 
L 363.410046 227.586447 
L 362.103116 230.061052 
L 360.643779 232.440094 
L 359.092169 234.651762 
L 357.390937 236.752417 
L 355.546471 238.734253 
L 353.516241 240.632066 
L 351.343978 242.416185 
L 348.986251 244.113358 
L 346.502715 245.693831 
L 343.901518 247.154111 
L 341.163813 248.502526 
L 338.336177 249.725233 
L 335.426035 250.821162 
L 332.45016 251.788522 
L 329.468767 252.615296 
L 326.464934 253.301838 
L 323.467133 253.845148 
L 320.468863 254.242835 
L 317.462477 254.49376 
L 314.498479 254.599013 
L 311.53396 254.551063 
L 308.587373 254.351536 
L 305.662949 253.999165 
L 302.78149 253.495492 
L 299.895951 252.822 
L 297.072086 252.001838 
L 294.299761 251.024162 
L 291.58349 249.88876 
L 288.975393 248.623937 
L 286.477862 247.22591 
L 284.108543 245.705883 
L 281.873566 244.064422 
L 279.797479 242.323619 
L 277.861318 240.458068 
L 276.046036 238.440911 
L 274.368947 236.298202 
L 272.813891 233.998305 
L 271.389285 231.559895 
L 270.101304 228.996159 
L 268.963802 226.342456 
L 267.969976 223.572402 
L 267.134481 220.74771 
L 266.456357 217.852024 
L 265.939137 214.909059 
L 265.58445 211.935438 
L 265.393111 208.977048 
L 265.370806 205.989281 
L 265.507544 203.054191 
L 265.811283 200.141236 
L 266.270787 197.29827 
L 266.884874 194.537767 
L 267.65994 191.845259 
L 268.576282 189.265883 
L 270.078097 185.891435 
L 270.078097 185.891435 
" style="fill:none;stroke:#ffffff;stroke-linecap:square;"/>
   </g>
   <g id="patch_3">
    <path d="M 57.6 307.584 
L 57.6 41.472 
" style="fill:none;stroke:#000000;stroke-linecap:square;stroke-linejoin:miter;stroke-width:0.8;"/>
   </g>
   <g id="patch_4">
    <path d="M 414.72 307.584 
L 414.72 41.472 
" style="fill:none;stroke:#000000;stroke-linecap:square;stroke-linejoin:miter;stroke-width:0.8;"/>
   </g>
   <g id="patch_5">
    <path d="M 57.6 307.584 
L 414.72 307.584 
" style="fill:none;stroke:#000000;stroke-linecap:square;stroke-linejoin:miter;stroke-width:0.8;"/>
   </g>
   <g id="patch_6">
    <path d="M 57.6 41.472 
L 414.72 41.472 
" style="fill:none;stroke:#000000;stroke-linecap:square;stroke-linejoin:miter;stroke-width:0.8;"/>
   </g>
  </g>
 </g>
 <defs>
  <clipPath id="p6b433db465">
   <rect height="266.112" width="357.12" x="57.6" y="41.472"/>
  </clipPath>
 </defs>
</svg>
