<?xml version="1.0" encoding="utf-8" standalone="no"?>
<!DOCTYPE svg PUBLIC "-//W3C//DTD SVG 1.1//EN"
  "http://www.w3.org/Graphics/SVG/1.1/DTD/svg11.dtd">
<!-- Created with matplotlib (https://matplotlib.org/) -->
<svg height="345.6pt" version="1.1" viewBox="0 0 460.8 345.6" width="460.8pt" xmlns="http://www.w3.org/2000/svg" xmlns:xlink="http://www.w3.org/1999/xlink">
 <metadata>
  <rdf:RDF xmlns:cc="http://creativecommons.org/ns#" xmlns:dc="http://purl.org/dc/elements/1.1/" xmlns:rdf="http://www.w3.org/1999/02/22-rdf-syntax-ns#">
   <cc:Work>
    <dc:type rdf:resource="http://purl.org/dc/dcmitype/StillImage"/>
    <dc:date>2021-01-25T14:40:16.020738</dc:date>
    <dc:format>image/svg+xml</dc:format>
    <dc:creator>
     <cc:Agent>
      <dc:title>Matplotlib v3.3.3, https://matplotlib.org/</dc:title>
     </cc:Agent>
    </dc:creator>
   </cc:Work>
  </rdf:RDF>
 </metadata>
 <defs>
  <style type="text/css">*{stroke-linecap:butt;stroke-linejoin:round;}</style>
 </defs>
 <g id="figure_1">
  <g id="patch_1">
   <path d="M 0 345.6 
L 460.8 345.6 
L 460.8 0 
L 0 0 
z
" style="fill:#ffffff;"/>
  </g>
  <g id="axes_1">
   <g id="patch_2">
    <path d="M 57.6 307.584 
L 414.72 307.584 
L 414.72 41.472 
L 57.6 41.472 
z
" style="fill:#7d9051;"/>
   </g>
   <g id="matplotlib.axis_1">
    <g id="xtick_1">
     <g id="line2d_1">
      <defs>
       <path d="M 0 0 
L 0 3.5 
" id="m0c668324ee" style="stroke:#000000;stroke-width:0.8;"/>
      </defs>
      <g>
       <use style="stroke:#000000;stroke-width:0.8;" x="91.324856" xlink:href="#m0c668324ee" y="307.584"/>
      </g>
     </g>
     <g id="text_1">
      <!-- 10 -->
      <g transform="translate(84.962356 322.182437)scale(0.1 -0.1)">
       <defs>
        <path d="M 12.40625 8.296875 
L 28.515625 8.296875 
L 28.515625 63.921875 
L 10.984375 60.40625 
L 10.984375 69.390625 
L 28.421875 72.90625 
L 38.28125 72.90625 
L 38.28125 8.296875 
L 54.390625 8.296875 
L 54.390625 0 
L 12.40625 0 
z
" id="DejaVuSans-49"/>
        <path d="M 31.78125 66.40625 
Q 24.171875 66.40625 20.328125 58.90625 
Q 16.5 51.421875 16.5 36.375 
Q 16.5 21.390625 20.328125 13.890625 
Q 24.171875 6.390625 31.78125 6.390625 
Q 39.453125 6.390625 43.28125 13.890625 
Q 47.125 21.390625 47.125 36.375 
Q 47.125 51.421875 43.28125 58.90625 
Q 39.453125 66.40625 31.78125 66.40625 
z
M 31.78125 74.21875 
Q 44.046875 74.21875 50.515625 64.515625 
Q 56.984375 54.828125 56.984375 36.375 
Q 56.984375 17.96875 50.515625 8.265625 
Q 44.046875 -1.421875 31.78125 -1.421875 
Q 19.53125 -1.421875 13.0625 8.265625 
Q 6.59375 17.96875 6.59375 36.375 
Q 6.59375 54.828125 13.0625 64.515625 
Q 19.53125 74.21875 31.78125 74.21875 
z
" id="DejaVuSans-48"/>
       </defs>
       <use xlink:href="#DejaVuSans-49"/>
       <use x="63.623047" xlink:href="#DejaVuSans-48"/>
      </g>
     </g>
    </g>
    <g id="xtick_2">
     <g id="line2d_2">
      <g>
       <use style="stroke:#000000;stroke-width:0.8;" x="132.657013" xlink:href="#m0c668324ee" y="307.584"/>
      </g>
     </g>
     <g id="text_2">
      <!-- 20 -->
      <g transform="translate(126.294513 322.182437)scale(0.1 -0.1)">
       <defs>
        <path d="M 19.1875 8.296875 
L 53.609375 8.296875 
L 53.609375 0 
L 7.328125 0 
L 7.328125 8.296875 
Q 12.9375 14.109375 22.625 23.890625 
Q 32.328125 33.6875 34.8125 36.53125 
Q 39.546875 41.84375 41.421875 45.53125 
Q 43.3125 49.21875 43.3125 52.78125 
Q 43.3125 58.59375 39.234375 62.25 
Q 35.15625 65.921875 28.609375 65.921875 
Q 23.96875 65.921875 18.8125 64.3125 
Q 13.671875 62.703125 7.8125 59.421875 
L 7.8125 69.390625 
Q 13.765625 71.78125 18.9375 73 
Q 24.125 74.21875 28.421875 74.21875 
Q 39.75 74.21875 46.484375 68.546875 
Q 53.21875 62.890625 53.21875 53.421875 
Q 53.21875 48.921875 51.53125 44.890625 
Q 49.859375 40.875 45.40625 35.40625 
Q 44.1875 33.984375 37.640625 27.21875 
Q 31.109375 20.453125 19.1875 8.296875 
z
" id="DejaVuSans-50"/>
       </defs>
       <use xlink:href="#DejaVuSans-50"/>
       <use x="63.623047" xlink:href="#DejaVuSans-48"/>
      </g>
     </g>
    </g>
    <g id="xtick_3">
     <g id="line2d_3">
      <g>
       <use style="stroke:#000000;stroke-width:0.8;" x="173.98917" xlink:href="#m0c668324ee" y="307.584"/>
      </g>
     </g>
     <g id="text_3">
      <!-- 30 -->
      <g transform="translate(167.62667 322.182437)scale(0.1 -0.1)">
       <defs>
        <path d="M 40.578125 39.3125 
Q 47.65625 37.796875 51.625 33 
Q 55.609375 28.21875 55.609375 21.1875 
Q 55.609375 10.40625 48.1875 4.484375 
Q 40.765625 -1.421875 27.09375 -1.421875 
Q 22.515625 -1.421875 17.65625 -0.515625 
Q 12.796875 0.390625 7.625 2.203125 
L 7.625 11.71875 
Q 11.71875 9.328125 16.59375 8.109375 
Q 21.484375 6.890625 26.8125 6.890625 
Q 36.078125 6.890625 40.9375 10.546875 
Q 45.796875 14.203125 45.796875 21.1875 
Q 45.796875 27.640625 41.28125 31.265625 
Q 36.765625 34.90625 28.71875 34.90625 
L 20.21875 34.90625 
L 20.21875 43.015625 
L 29.109375 43.015625 
Q 36.375 43.015625 40.234375 45.921875 
Q 44.09375 48.828125 44.09375 54.296875 
Q 44.09375 59.90625 40.109375 62.90625 
Q 36.140625 65.921875 28.71875 65.921875 
Q 24.65625 65.921875 20.015625 65.03125 
Q 15.375 64.15625 9.8125 62.3125 
L 9.8125 71.09375 
Q 15.4375 72.65625 20.34375 73.4375 
Q 25.25 74.21875 29.59375 74.21875 
Q 40.828125 74.21875 47.359375 69.109375 
Q 53.90625 64.015625 53.90625 55.328125 
Q 53.90625 49.265625 50.4375 45.09375 
Q 46.96875 40.921875 40.578125 39.3125 
z
" id="DejaVuSans-51"/>
       </defs>
       <use xlink:href="#DejaVuSans-51"/>
       <use x="63.623047" xlink:href="#DejaVuSans-48"/>
      </g>
     </g>
    </g>
    <g id="xtick_4">
     <g id="line2d_4">
      <g>
       <use style="stroke:#000000;stroke-width:0.8;" x="215.321327" xlink:href="#m0c668324ee" y="307.584"/>
      </g>
     </g>
     <g id="text_4">
      <!-- 40 -->
      <g transform="translate(208.958827 322.182437)scale(0.1 -0.1)">
       <defs>
        <path d="M 37.796875 64.3125 
L 12.890625 25.390625 
L 37.796875 25.390625 
z
M 35.203125 72.90625 
L 47.609375 72.90625 
L 47.609375 25.390625 
L 58.015625 25.390625 
L 58.015625 17.1875 
L 47.609375 17.1875 
L 47.609375 0 
L 37.796875 0 
L 37.796875 17.1875 
L 4.890625 17.1875 
L 4.890625 26.703125 
z
" id="DejaVuSans-52"/>
       </defs>
       <use xlink:href="#DejaVuSans-52"/>
       <use x="63.623047" xlink:href="#DejaVuSans-48"/>
      </g>
     </g>
    </g>
    <g id="xtick_5">
     <g id="line2d_5">
      <g>
       <use style="stroke:#000000;stroke-width:0.8;" x="256.653484" xlink:href="#m0c668324ee" y="307.584"/>
      </g>
     </g>
     <g id="text_5">
      <!-- 50 -->
      <g transform="translate(250.290984 322.182437)scale(0.1 -0.1)">
       <defs>
        <path d="M 10.796875 72.90625 
L 49.515625 72.90625 
L 49.515625 64.59375 
L 19.828125 64.59375 
L 19.828125 46.734375 
Q 21.96875 47.46875 24.109375 47.828125 
Q 26.265625 48.1875 28.421875 48.1875 
Q 40.625 48.1875 47.75 41.5 
Q 54.890625 34.8125 54.890625 23.390625 
Q 54.890625 11.625 47.5625 5.09375 
Q 40.234375 -1.421875 26.90625 -1.421875 
Q 22.3125 -1.421875 17.546875 -0.640625 
Q 12.796875 0.140625 7.71875 1.703125 
L 7.71875 11.625 
Q 12.109375 9.234375 16.796875 8.0625 
Q 21.484375 6.890625 26.703125 6.890625 
Q 35.15625 6.890625 40.078125 11.328125 
Q 45.015625 15.765625 45.015625 23.390625 
Q 45.015625 31 40.078125 35.4375 
Q 35.15625 39.890625 26.703125 39.890625 
Q 22.75 39.890625 18.8125 39.015625 
Q 14.890625 38.140625 10.796875 36.28125 
z
" id="DejaVuSans-53"/>
       </defs>
       <use xlink:href="#DejaVuSans-53"/>
       <use x="63.623047" xlink:href="#DejaVuSans-48"/>
      </g>
     </g>
    </g>
    <g id="xtick_6">
     <g id="line2d_6">
      <g>
       <use style="stroke:#000000;stroke-width:0.8;" x="297.985641" xlink:href="#m0c668324ee" y="307.584"/>
      </g>
     </g>
     <g id="text_6">
      <!-- 60 -->
      <g transform="translate(291.623141 322.182437)scale(0.1 -0.1)">
       <defs>
        <path d="M 33.015625 40.375 
Q 26.375 40.375 22.484375 35.828125 
Q 18.609375 31.296875 18.609375 23.390625 
Q 18.609375 15.53125 22.484375 10.953125 
Q 26.375 6.390625 33.015625 6.390625 
Q 39.65625 6.390625 43.53125 10.953125 
Q 47.40625 15.53125 47.40625 23.390625 
Q 47.40625 31.296875 43.53125 35.828125 
Q 39.65625 40.375 33.015625 40.375 
z
M 52.59375 71.296875 
L 52.59375 62.3125 
Q 48.875 64.0625 45.09375 64.984375 
Q 41.3125 65.921875 37.59375 65.921875 
Q 27.828125 65.921875 22.671875 59.328125 
Q 17.53125 52.734375 16.796875 39.40625 
Q 19.671875 43.65625 24.015625 45.921875 
Q 28.375 48.1875 33.59375 48.1875 
Q 44.578125 48.1875 50.953125 41.515625 
Q 57.328125 34.859375 57.328125 23.390625 
Q 57.328125 12.15625 50.6875 5.359375 
Q 44.046875 -1.421875 33.015625 -1.421875 
Q 20.359375 -1.421875 13.671875 8.265625 
Q 6.984375 17.96875 6.984375 36.375 
Q 6.984375 53.65625 15.1875 63.9375 
Q 23.390625 74.21875 37.203125 74.21875 
Q 40.921875 74.21875 44.703125 73.484375 
Q 48.484375 72.75 52.59375 71.296875 
z
" id="DejaVuSans-54"/>
       </defs>
       <use xlink:href="#DejaVuSans-54"/>
       <use x="63.623047" xlink:href="#DejaVuSans-48"/>
      </g>
     </g>
    </g>
    <g id="xtick_7">
     <g id="line2d_7">
      <g>
       <use style="stroke:#000000;stroke-width:0.8;" x="339.317798" xlink:href="#m0c668324ee" y="307.584"/>
      </g>
     </g>
     <g id="text_7">
      <!-- 70 -->
      <g transform="translate(332.955298 322.182437)scale(0.1 -0.1)">
       <defs>
        <path d="M 8.203125 72.90625 
L 55.078125 72.90625 
L 55.078125 68.703125 
L 28.609375 0 
L 18.3125 0 
L 43.21875 64.59375 
L 8.203125 64.59375 
z
" id="DejaVuSans-55"/>
       </defs>
       <use xlink:href="#DejaVuSans-55"/>
       <use x="63.623047" xlink:href="#DejaVuSans-48"/>
      </g>
     </g>
    </g>
    <g id="xtick_8">
     <g id="line2d_8">
      <g>
       <use style="stroke:#000000;stroke-width:0.8;" x="380.649955" xlink:href="#m0c668324ee" y="307.584"/>
      </g>
     </g>
     <g id="text_8">
      <!-- 80 -->
      <g transform="translate(374.287455 322.182437)scale(0.1 -0.1)">
       <defs>
        <path d="M 31.78125 34.625 
Q 24.75 34.625 20.71875 30.859375 
Q 16.703125 27.09375 16.703125 20.515625 
Q 16.703125 13.921875 20.71875 10.15625 
Q 24.75 6.390625 31.78125 6.390625 
Q 38.8125 6.390625 42.859375 10.171875 
Q 46.921875 13.96875 46.921875 20.515625 
Q 46.921875 27.09375 42.890625 30.859375 
Q 38.875 34.625 31.78125 34.625 
z
M 21.921875 38.8125 
Q 15.578125 40.375 12.03125 44.71875 
Q 8.5 49.078125 8.5 55.328125 
Q 8.5 64.0625 14.71875 69.140625 
Q 20.953125 74.21875 31.78125 74.21875 
Q 42.671875 74.21875 48.875 69.140625 
Q 55.078125 64.0625 55.078125 55.328125 
Q 55.078125 49.078125 51.53125 44.71875 
Q 48 40.375 41.703125 38.8125 
Q 48.828125 37.15625 52.796875 32.3125 
Q 56.78125 27.484375 56.78125 20.515625 
Q 56.78125 9.90625 50.3125 4.234375 
Q 43.84375 -1.421875 31.78125 -1.421875 
Q 19.734375 -1.421875 13.25 4.234375 
Q 6.78125 9.90625 6.78125 20.515625 
Q 6.78125 27.484375 10.78125 32.3125 
Q 14.796875 37.15625 21.921875 38.8125 
z
M 18.3125 54.390625 
Q 18.3125 48.734375 21.84375 45.5625 
Q 25.390625 42.390625 31.78125 42.390625 
Q 38.140625 42.390625 41.71875 45.5625 
Q 45.3125 48.734375 45.3125 54.390625 
Q 45.3125 60.0625 41.71875 63.234375 
Q 38.140625 66.40625 31.78125 66.40625 
Q 25.390625 66.40625 21.84375 63.234375 
Q 18.3125 60.0625 18.3125 54.390625 
z
" id="DejaVuSans-56"/>
       </defs>
       <use xlink:href="#DejaVuSans-56"/>
       <use x="63.623047" xlink:href="#DejaVuSans-48"/>
      </g>
     </g>
    </g>
   </g>
   <g id="matplotlib.axis_2">
    <g id="ytick_1">
     <g id="line2d_9">
      <defs>
       <path d="M 0 0 
L -3.5 0 
" id="mad05625561" style="stroke:#000000;stroke-width:0.8;"/>
      </defs>
      <g>
       <use style="stroke:#000000;stroke-width:0.8;" x="57.6" xlink:href="#mad05625561" y="283.684932"/>
      </g>
     </g>
     <g id="text_9">
      <!-- 10 -->
      <g transform="translate(37.875 287.484151)scale(0.1 -0.1)">
       <use xlink:href="#DejaVuSans-49"/>
       <use x="63.623047" xlink:href="#DejaVuSans-48"/>
      </g>
     </g>
    </g>
    <g id="ytick_2">
     <g id="line2d_10">
      <g>
       <use style="stroke:#000000;stroke-width:0.8;" x="57.6" xlink:href="#mad05625561" y="242.352775"/>
      </g>
     </g>
     <g id="text_10">
      <!-- 20 -->
      <g transform="translate(37.875 246.151994)scale(0.1 -0.1)">
       <use xlink:href="#DejaVuSans-50"/>
       <use x="63.623047" xlink:href="#DejaVuSans-48"/>
      </g>
     </g>
    </g>
    <g id="ytick_3">
     <g id="line2d_11">
      <g>
       <use style="stroke:#000000;stroke-width:0.8;" x="57.6" xlink:href="#mad05625561" y="201.020618"/>
      </g>
     </g>
     <g id="text_11">
      <!-- 30 -->
      <g transform="translate(37.875 204.819837)scale(0.1 -0.1)">
       <use xlink:href="#DejaVuSans-51"/>
       <use x="63.623047" xlink:href="#DejaVuSans-48"/>
      </g>
     </g>
    </g>
    <g id="ytick_4">
     <g id="line2d_12">
      <g>
       <use style="stroke:#000000;stroke-width:0.8;" x="57.6" xlink:href="#mad05625561" y="159.688461"/>
      </g>
     </g>
     <g id="text_12">
      <!-- 40 -->
      <g transform="translate(37.875 163.48768)scale(0.1 -0.1)">
       <use xlink:href="#DejaVuSans-52"/>
       <use x="63.623047" xlink:href="#DejaVuSans-48"/>
      </g>
     </g>
    </g>
    <g id="ytick_5">
     <g id="line2d_13">
      <g>
       <use style="stroke:#000000;stroke-width:0.8;" x="57.6" xlink:href="#mad05625561" y="118.356304"/>
      </g>
     </g>
     <g id="text_13">
      <!-- 50 -->
      <g transform="translate(37.875 122.155523)scale(0.1 -0.1)">
       <use xlink:href="#DejaVuSans-53"/>
       <use x="63.623047" xlink:href="#DejaVuSans-48"/>
      </g>
     </g>
    </g>
    <g id="ytick_6">
     <g id="line2d_14">
      <g>
       <use style="stroke:#000000;stroke-width:0.8;" x="57.6" xlink:href="#mad05625561" y="77.024147"/>
      </g>
     </g>
     <g id="text_14">
      <!-- 60 -->
      <g transform="translate(37.875 80.823366)scale(0.1 -0.1)">
       <use xlink:href="#DejaVuSans-54"/>
       <use x="63.623047" xlink:href="#DejaVuSans-48"/>
      </g>
     </g>
    </g>
   </g>
   <g id="line2d_15">
    <path clip-path="url(#p656df6e9f3)" d="M 143.6555 64.326909 
L 139.824009 65.761134 
L 136.058649 67.418554 
L 132.367688 69.299167 
L 128.767657 71.382308 
L 125.26269 73.663843 
L 121.865187 76.135506 
L 118.587547 78.780764 
L 115.433903 81.595484 
L 112.420789 84.567266 
L 109.55647 87.687844 
L 106.853347 90.944818 
L 104.315553 94.329921 
L 101.95962 97.830755 
L 99.789682 101.439052 
L 97.818138 105.146547 
L 96.061521 108.936706 
L 94.519832 112.809529 
L 93.213735 116.74435 
L 92.143233 120.74117 
L 91.324856 124.783455 
L 90.762739 128.858805 
L 90.444481 132.967222 
L 90.357683 137.100437 
L 90.485813 141.24192 
L 90.808204 145.391668 
L 91.312456 149.541417 
L 91.982037 153.678766 
L 92.804547 157.803715 
L 93.75932 161.899732 
L 96.011922 169.988435 
L 97.301486 173.968721 
L 98.702646 177.89941 
L 100.219536 181.772233 
L 101.860423 185.583058 
L 103.633572 189.323618 
L 105.538985 192.993913 
L 107.580793 196.585678 
L 109.767264 200.094778 
L 112.106664 203.512947 
L 114.59486 206.840186 
L 117.231852 210.059961 
L 120.009373 213.172272 
L 122.919157 216.168854 
L 125.952937 219.037305 
L 129.106581 221.777627 
L 132.367688 224.373287 
L 135.736259 226.824284 
L 139.199893 229.118219 
L 142.750326 231.250958 
L 146.383422 233.214235 
L 150.086783 235.03285 
L 153.852143 236.723335 
L 161.527525 239.806714 
L 173.228658 244.026728 
L 184.917392 248.267407 
L 196.449064 252.842877 
L 211.667564 259.28656 
L 230.680356 267.395929 
L 238.351605 270.491708 
L 246.093118 273.401492 
L 253.917295 276.071549 
L 261.853069 278.435748 
L 269.90044 280.427958 
L 273.959258 281.271134 
L 278.038742 281.99858 
L 282.138892 282.606163 
L 286.259708 283.085616 
L 290.397057 283.428673 
L 294.546805 283.6312 
L 298.708954 283.684932 
L 302.879368 283.581602 
L 307.049783 283.317076 
L 311.207798 282.887222 
L 315.345147 282.287905 
L 319.445297 281.506728 
L 323.504115 280.547822 
L 327.505067 279.398788 
L 331.444022 278.059626 
L 335.300312 276.522069 
L 339.069805 274.781986 
L 342.7401 272.835241 
L 346.298799 270.690102 
L 349.745901 268.350702 
L 353.064873 265.825307 
L 356.251583 263.126317 
L 359.297763 260.257866 
L 362.191014 257.228219 
L 364.931336 254.045642 
L 367.502196 250.714271 
L 369.895328 247.246503 
L 372.106598 243.650605 
L 374.127741 239.938977 
L 375.938089 236.124019 
L 377.537643 232.222264 
L 378.905738 228.241977 
L 380.038239 224.203825 
L 380.922747 220.120208 
L 381.546863 215.999392 
L 381.902319 211.862043 
L 381.976717 207.720561 
L 381.76179 203.587345 
L 381.269937 199.470662 
L 380.513559 195.387045 
L 379.509187 191.340627 
L 378.265089 187.343807 
L 376.806064 183.408986 
L 375.136245 179.544429 
L 373.272165 175.758404 
L 371.230356 172.063309 
L 369.023219 168.471545 
L 366.667286 164.987244 
L 364.158424 161.622806 
L 361.5049 158.390632 
L 358.710846 155.29072 
L 355.77213 152.335471 
L 352.697017 149.53315 
L 349.485509 146.887892 
L 346.137604 144.416229 
L 342.661569 142.118161 
L 339.053272 140.006088 
L 335.325112 138.088276 
L 331.481221 136.372991 
L 327.5464 134.872634 
L 323.533047 133.595471 
L 319.453563 132.558033 
L 315.328614 131.760323 
L 311.170599 131.218872 
L 306.996051 130.946079 
L 302.821503 130.946079 
L 298.663488 131.235404 
L 294.538539 131.818188 
L 290.454922 132.68203 
L 286.433303 133.822797 
L 282.481949 135.223958 
L 278.621525 136.873111 
L 274.856166 138.753724 
L 271.206536 140.861664 
L 267.680903 143.184531 
L 264.299933 145.701659 
L 261.067758 148.408916 
L 258.005045 151.289767 
L 255.120061 154.335947 
L 252.408671 157.535056 
L 249.883277 160.878827 
L 247.543876 164.350729 
L 245.402871 167.942493 
L 243.460259 171.641721 
L 241.724309 175.440146 
L 240.199152 179.325369 
L 238.888923 183.28499 
L 237.797754 187.310742 
L 236.938045 191.390226 
L 236.309796 195.511042 
L 235.917141 199.66079 
L 235.768345 203.835338 
L 235.867542 208.018152 
L 236.218865 212.196834 
L 236.830581 216.363115 
L 237.706823 220.50873 
L 238.855857 224.617147 
L 238.855857 224.617147 
" style="fill:none;stroke:#fea952;stroke-linecap:square;"/>
   </g>
   <g id="line2d_16">
    <path clip-path="url(#p656df6e9f3)" d="M 149.451422 79.81054 
L 146.484658 80.892932 
L 143.56433 82.149484 
L 140.648013 83.609015 
L 137.787062 85.238205 
L 134.988786 87.033159 
L 132.248488 89.001065 
L 129.596445 91.115257 
L 127.04339 93.366438 
L 124.600688 95.746962 
L 122.278515 98.246495 
L 120.081575 100.861951 
L 118.031734 103.56041 
L 116.127834 106.351158 
L 114.386951 109.20148 
L 112.818275 112.098628 
L 111.422053 115.05141 
L 110.210863 118.017896 
L 109.183696 121.021723 
L 108.347346 124.021757 
L 107.702659 127.042462 
L 107.246218 130.135695 
L 106.973699 133.314335 
L 106.88264 136.589186 
L 106.969008 139.961353 
L 107.220343 143.397364 
L 107.63297 146.900135 
L 108.195715 150.445778 
L 108.905769 154.050554 
L 109.742553 157.672224 
L 111.739913 164.892762 
L 114.096815 171.86989 
L 115.404538 175.233788 
L 116.799779 178.501307 
L 118.306943 181.706023 
L 119.911814 184.823398 
L 121.61269 187.842599 
L 123.410742 190.757162 
L 125.346758 193.61166 
L 127.385468 196.364695 
L 129.566952 199.051744 
L 131.87039 201.654815 
L 134.277736 204.155601 
L 136.796995 206.557643 
L 139.402556 208.842078 
L 142.094775 211.004693 
L 144.865244 213.040338 
L 147.713259 214.945775 
L 150.610253 216.705955 
L 153.670953 218.374173 
L 156.858204 219.950297 
L 160.182758 221.450521 
L 167.267476 224.302247 
L 178.732852 228.437006 
L 186.834656 231.33238 
L 194.875208 234.392086 
L 206.682673 239.194006 
L 221.996426 245.736643 
L 236.937027 252.092674 
L 244.283235 255.059556 
L 251.5783 257.805071 
L 258.802566 260.27694 
L 266.025654 262.43809 
L 273.263172 264.240692 
L 280.462208 265.644304 
L 284.049586 266.18408 
L 287.625876 266.609296 
L 291.20298 266.915465 
L 294.760221 267.099715 
L 298.299444 267.157142 
L 301.832806 267.081897 
L 305.349681 266.871858 
L 308.837665 266.525131 
L 312.250896 266.04718 
L 315.64401 265.4168 
L 318.940511 264.657287 
L 322.183388 263.745824 
L 325.320902 262.702446 
L 328.371037 261.511383 
L 331.322948 260.176447 
L 334.20501 258.67587 
L 337.014771 257.010103 
L 339.734666 255.193547 
L 342.379732 253.209313 
L 344.917486 251.089964 
L 347.341217 248.839609 
L 349.662479 246.440662 
L 351.842703 243.944986 
L 353.895007 241.323851 
L 355.812199 238.586188 
L 357.586913 235.744006 
L 359.191313 232.851052 
L 360.640799 229.852778 
L 361.902581 226.848218 
L 362.987049 223.777575 
L 363.880064 220.703977 
L 364.576302 217.644468 
L 365.074681 214.584199 
L 365.372123 211.565093 
L 365.466162 208.57911 
L 365.345682 205.548708 
L 365.01358 202.481708 
L 364.4676 199.369852 
L 363.723392 196.254303 
L 362.76358 193.091741 
L 361.629343 189.966628 
L 360.303742 186.847332 
L 358.801556 183.754467 
L 357.144444 180.719094 
L 355.327328 177.732112 
L 353.413692 174.870452 
L 351.380185 172.113381 
L 349.224265 169.459577 
L 346.9876 166.948381 
L 344.636215 164.555412 
L 342.185805 162.294419 
L 339.665911 160.188684 
L 337.01987 158.207621 
L 334.309808 156.386435 
L 331.490527 154.707804 
L 328.587893 153.186138 
L 325.590876 151.820949 
L 322.532905 150.627012 
L 319.458336 149.618338 
L 316.314486 148.790154 
L 313.193751 148.15477 
L 310.092533 147.716548 
L 306.996051 147.478942 
L 303.969126 147.439063 
L 300.976325 147.605693 
L 297.960157 147.993109 
L 294.966614 148.587381 
L 291.958786 149.404986 
L 288.976877 150.427624 
L 286.008751 151.663798 
L 283.125026 153.070201 
L 280.302484 154.667434 
L 277.553869 156.445756 
L 274.915864 158.375947 
L 272.39525 160.451485 
L 270.008833 162.658348 
L 267.732364 165.025444 
L 265.601619 167.499075 
L 263.594082 170.117299 
L 261.745144 172.815926 
L 260.040191 175.629131 
L 258.497183 178.513873 
L 257.113887 181.481374 
L 255.895034 184.5191 
L 254.846016 187.610116 
L 253.975287 190.719989 
L 253.282055 193.88199 
L 252.769141 197.06845 
L 252.439511 200.249706 
L 252.29656 203.443365 
L 252.342281 206.633036 
L 252.576353 209.795139 
L 253.006068 212.944169 
L 253.628705 216.055729 
L 254.777739 220.164145 
L 254.777739 220.164145 
" style="fill:none;stroke:#ffffff;stroke-linecap:square;"/>
   </g>
   <g id="line2d_17">
    <path clip-path="url(#p656df6e9f3)" d="M 137.859577 48.843277 
L 133.16336 50.629336 
L 128.552968 52.687624 
L 124.087362 54.989319 
L 119.748252 57.526411 
L 115.536594 60.294527 
L 111.481886 63.269947 
L 107.578648 66.446271 
L 103.824416 69.82453 
L 100.240889 73.38757 
L 96.834425 77.129192 
L 93.625119 81.027684 
L 90.599371 85.099433 
L 87.791406 89.310352 
L 85.192412 93.676625 
L 82.818 98.194466 
L 80.700989 102.822001 
L 78.8288 107.601161 
L 77.243775 112.466977 
L 75.939119 117.460582 
L 74.947053 122.524447 
L 74.279259 127.581916 
L 73.915262 132.620108 
L 73.832727 137.611689 
L 74.002619 142.522486 
L 74.396065 147.385972 
L 74.991942 152.182699 
L 75.76836 156.911753 
L 76.703325 161.556876 
L 77.776087 166.12724 
L 78.966428 170.605645 
L 80.283932 175.084108 
L 81.728464 179.519988 
L 83.308477 183.928929 
L 85.034534 188.310677 
L 86.921066 192.664808 
L 88.960202 196.941212 
L 91.166155 201.164429 
L 93.548896 205.328756 
L 96.123787 209.432394 
L 98.866571 213.414234 
L 101.804253 217.315677 
L 104.896751 221.068178 
L 108.148355 224.689729 
L 111.560578 228.182106 
L 115.108879 231.516968 
L 118.810605 234.713177 
L 122.6406 237.741881 
L 126.607273 240.60823 
L 130.686528 243.290662 
L 134.890398 245.79596 
L 139.095892 248.054298 
L 143.315363 250.115404 
L 147.521528 251.99615 
L 155.787573 255.311182 
L 167.724465 259.616449 
L 178.957001 263.688473 
L 190.098492 268.107404 
L 205.119044 274.46722 
L 224.423686 282.699185 
L 232.419975 285.92386 
L 240.607936 288.997912 
L 249.032024 291.866158 
L 257.680484 294.433407 
L 262.089389 295.57806 
L 266.537709 296.615225 
L 271.056931 297.547253 
L 275.615276 298.352857 
L 280.228198 299.028246 
L 284.89354 299.561936 
L 289.591133 299.941881 
L 294.33339 300.162686 
L 299.118463 300.212723 
L 303.92593 300.081307 
L 308.749885 299.762294 
L 313.577931 299.249313 
L 318.439398 298.528631 
L 323.246583 297.596655 
L 328.067718 296.438356 
L 332.826747 295.051752 
L 337.567142 293.416805 
L 342.229587 291.532756 
L 346.816662 289.387524 
L 351.275191 286.994612 
L 355.582827 284.370101 
L 359.757136 281.507857 
L 363.750015 278.441301 
L 367.585679 275.162671 
L 371.254308 271.676122 
L 374.719548 268.015775 
L 378.019968 264.146299 
L 381.109384 260.10469 
L 383.978456 255.906817 
L 386.626283 251.557204 
L 389.064168 247.026903 
L 391.235379 242.39526 
L 393.172706 237.596309 
L 394.824427 232.706379 
L 396.196414 227.703673 
L 397.269192 222.595948 
L 398.019045 217.414584 
L 398.432515 212.158993 
L 398.487273 206.862012 
L 398.177898 201.625983 
L 397.526295 196.459616 
L 396.559518 191.404238 
L 395.294983 186.426951 
L 393.766599 181.595874 
L 391.982786 176.851344 
L 389.968749 172.241527 
L 387.742774 167.76234 
L 385.316269 163.407524 
L 382.719111 159.210977 
L 379.92088 155.104036 
L 376.936663 151.132231 
L 373.785535 147.321686 
L 370.434092 143.633059 
L 366.908044 140.115529 
L 363.208229 136.771882 
L 359.305106 133.5871 
L 355.255337 130.624837 
L 351.013331 127.849888 
L 346.616017 125.304373 
L 342.06233 122.990414 
L 337.371566 120.925034 
L 332.559894 119.118256 
L 327.607758 117.572603 
L 322.592641 116.325913 
L 317.463477 115.365875 
L 312.248665 114.721195 
L 306.996051 114.413216 
L 301.67388 114.453095 
L 296.350652 114.865116 
L 291.116921 115.643266 
L 285.943229 116.776679 
L 280.90782 118.240609 
L 275.987021 120.020291 
L 271.234299 122.082423 
L 266.587306 124.437247 
L 262.110589 127.055893 
L 257.807937 129.923306 
L 253.684002 133.027372 
L 249.740267 136.366346 
L 246.001257 139.921186 
L 242.507757 143.646449 
L 239.215723 147.571037 
L 236.172471 151.640356 
L 233.342609 155.885531 
L 230.76555 160.255855 
L 228.423336 164.769569 
L 226.334731 169.398918 
L 224.50327 174.131638 
L 222.931829 178.959864 
L 221.62022 183.901495 
L 220.594035 188.898461 
L 219.850451 193.953634 
L 219.39477 199.071874 
L 219.240129 204.227312 
L 219.392804 209.403269 
L 219.861377 214.598528 
L 220.655095 219.782061 
L 221.784941 224.961732 
L 222.933975 229.070148 
L 222.933975 229.070148 
" style="fill:none;stroke:#ffffff;stroke-linecap:square;"/>
   </g>
   <g id="patch_3">
    <path d="M 57.6 307.584 
L 57.6 41.472 
" style="fill:none;stroke:#000000;stroke-linecap:square;stroke-linejoin:miter;stroke-width:0.8;"/>
   </g>
   <g id="patch_4">
    <path d="M 414.72 307.584 
L 414.72 41.472 
" style="fill:none;stroke:#000000;stroke-linecap:square;stroke-linejoin:miter;stroke-width:0.8;"/>
   </g>
   <g id="patch_5">
    <path d="M 57.6 307.584 
L 414.72 307.584 
" style="fill:none;stroke:#000000;stroke-linecap:square;stroke-linejoin:miter;stroke-width:0.8;"/>
   </g>
   <g id="patch_6">
    <path d="M 57.6 41.472 
L 414.72 41.472 
" style="fill:none;stroke:#000000;stroke-linecap:square;stroke-linejoin:miter;stroke-width:0.8;"/>
   </g>
  </g>
 </g>
 <defs>
  <clipPath id="p656df6e9f3">
   <rect height="266.112" width="357.12" x="57.6" y="41.472"/>
  </clipPath>
 </defs>
</svg>
