<?xml version="1.0" encoding="utf-8" standalone="no"?>
<!DOCTYPE svg PUBLIC "-//W3C//DTD SVG 1.1//EN"
  "http://www.w3.org/Graphics/SVG/1.1/DTD/svg11.dtd">
<!-- Created with matplotlib (https://matplotlib.org/) -->
<svg height="345.6pt" version="1.1" viewBox="0 0 460.8 345.6" width="460.8pt" xmlns="http://www.w3.org/2000/svg" xmlns:xlink="http://www.w3.org/1999/xlink">
 <metadata>
  <rdf:RDF xmlns:cc="http://creativecommons.org/ns#" xmlns:dc="http://purl.org/dc/elements/1.1/" xmlns:rdf="http://www.w3.org/1999/02/22-rdf-syntax-ns#">
   <cc:Work>
    <dc:type rdf:resource="http://purl.org/dc/dcmitype/StillImage"/>
    <dc:date>2021-01-23T11:38:29.021139</dc:date>
    <dc:format>image/svg+xml</dc:format>
    <dc:creator>
     <cc:Agent>
      <dc:title>Matplotlib v3.3.3, https://matplotlib.org/</dc:title>
     </cc:Agent>
    </dc:creator>
   </cc:Work>
  </rdf:RDF>
 </metadata>
 <defs>
  <style type="text/css">*{stroke-linecap:butt;stroke-linejoin:round;}</style>
 </defs>
 <g id="figure_1">
  <g id="patch_1">
   <path d="M 0 345.6 
L 460.8 345.6 
L 460.8 0 
L 0 0 
z
" style="fill:#ffffff;"/>
  </g>
  <g id="axes_1">
   <g id="patch_2">
    <path d="M 57.6 307.584 
L 414.72 307.584 
L 414.72 41.472 
L 57.6 41.472 
z
" style="fill:#7d9051;"/>
   </g>
   <g id="matplotlib.axis_1">
    <g id="xtick_1">
     <g id="line2d_1">
      <defs>
       <path d="M 0 0 
L 0 3.5 
" id="m6db4a98c81" style="stroke:#000000;stroke-width:0.8;"/>
      </defs>
      <g>
       <use style="stroke:#000000;stroke-width:0.8;" x="69.468561" xlink:href="#m6db4a98c81" y="307.584"/>
      </g>
     </g>
     <g id="text_1">
      <!-- 0 -->
      <g transform="translate(66.287311 322.182437)scale(0.1 -0.1)">
       <defs>
        <path d="M 31.78125 66.40625 
Q 24.171875 66.40625 20.328125 58.90625 
Q 16.5 51.421875 16.5 36.375 
Q 16.5 21.390625 20.328125 13.890625 
Q 24.171875 6.390625 31.78125 6.390625 
Q 39.453125 6.390625 43.28125 13.890625 
Q 47.125 21.390625 47.125 36.375 
Q 47.125 51.421875 43.28125 58.90625 
Q 39.453125 66.40625 31.78125 66.40625 
z
M 31.78125 74.21875 
Q 44.046875 74.21875 50.515625 64.515625 
Q 56.984375 54.828125 56.984375 36.375 
Q 56.984375 17.96875 50.515625 8.265625 
Q 44.046875 -1.421875 31.78125 -1.421875 
Q 19.53125 -1.421875 13.0625 8.265625 
Q 6.59375 17.96875 6.59375 36.375 
Q 6.59375 54.828125 13.0625 64.515625 
Q 19.53125 74.21875 31.78125 74.21875 
z
" id="DejaVuSans-48"/>
       </defs>
       <use xlink:href="#DejaVuSans-48"/>
      </g>
     </g>
    </g>
    <g id="xtick_2">
     <g id="line2d_2">
      <g>
       <use style="stroke:#000000;stroke-width:0.8;" x="127.874899" xlink:href="#m6db4a98c81" y="307.584"/>
      </g>
     </g>
     <g id="text_2">
      <!-- 20 -->
      <g transform="translate(121.512399 322.182437)scale(0.1 -0.1)">
       <defs>
        <path d="M 19.1875 8.296875 
L 53.609375 8.296875 
L 53.609375 0 
L 7.328125 0 
L 7.328125 8.296875 
Q 12.9375 14.109375 22.625 23.890625 
Q 32.328125 33.6875 34.8125 36.53125 
Q 39.546875 41.84375 41.421875 45.53125 
Q 43.3125 49.21875 43.3125 52.78125 
Q 43.3125 58.59375 39.234375 62.25 
Q 35.15625 65.921875 28.609375 65.921875 
Q 23.96875 65.921875 18.8125 64.3125 
Q 13.671875 62.703125 7.8125 59.421875 
L 7.8125 69.390625 
Q 13.765625 71.78125 18.9375 73 
Q 24.125 74.21875 28.421875 74.21875 
Q 39.75 74.21875 46.484375 68.546875 
Q 53.21875 62.890625 53.21875 53.421875 
Q 53.21875 48.921875 51.53125 44.890625 
Q 49.859375 40.875 45.40625 35.40625 
Q 44.1875 33.984375 37.640625 27.21875 
Q 31.109375 20.453125 19.1875 8.296875 
z
" id="DejaVuSans-50"/>
       </defs>
       <use xlink:href="#DejaVuSans-50"/>
       <use x="63.623047" xlink:href="#DejaVuSans-48"/>
      </g>
     </g>
    </g>
    <g id="xtick_3">
     <g id="line2d_3">
      <g>
       <use style="stroke:#000000;stroke-width:0.8;" x="186.281236" xlink:href="#m6db4a98c81" y="307.584"/>
      </g>
     </g>
     <g id="text_3">
      <!-- 40 -->
      <g transform="translate(179.918736 322.182437)scale(0.1 -0.1)">
       <defs>
        <path d="M 37.796875 64.3125 
L 12.890625 25.390625 
L 37.796875 25.390625 
z
M 35.203125 72.90625 
L 47.609375 72.90625 
L 47.609375 25.390625 
L 58.015625 25.390625 
L 58.015625 17.1875 
L 47.609375 17.1875 
L 47.609375 0 
L 37.796875 0 
L 37.796875 17.1875 
L 4.890625 17.1875 
L 4.890625 26.703125 
z
" id="DejaVuSans-52"/>
       </defs>
       <use xlink:href="#DejaVuSans-52"/>
       <use x="63.623047" xlink:href="#DejaVuSans-48"/>
      </g>
     </g>
    </g>
    <g id="xtick_4">
     <g id="line2d_4">
      <g>
       <use style="stroke:#000000;stroke-width:0.8;" x="244.687574" xlink:href="#m6db4a98c81" y="307.584"/>
      </g>
     </g>
     <g id="text_4">
      <!-- 60 -->
      <g transform="translate(238.325074 322.182437)scale(0.1 -0.1)">
       <defs>
        <path d="M 33.015625 40.375 
Q 26.375 40.375 22.484375 35.828125 
Q 18.609375 31.296875 18.609375 23.390625 
Q 18.609375 15.53125 22.484375 10.953125 
Q 26.375 6.390625 33.015625 6.390625 
Q 39.65625 6.390625 43.53125 10.953125 
Q 47.40625 15.53125 47.40625 23.390625 
Q 47.40625 31.296875 43.53125 35.828125 
Q 39.65625 40.375 33.015625 40.375 
z
M 52.59375 71.296875 
L 52.59375 62.3125 
Q 48.875 64.0625 45.09375 64.984375 
Q 41.3125 65.921875 37.59375 65.921875 
Q 27.828125 65.921875 22.671875 59.328125 
Q 17.53125 52.734375 16.796875 39.40625 
Q 19.671875 43.65625 24.015625 45.921875 
Q 28.375 48.1875 33.59375 48.1875 
Q 44.578125 48.1875 50.953125 41.515625 
Q 57.328125 34.859375 57.328125 23.390625 
Q 57.328125 12.15625 50.6875 5.359375 
Q 44.046875 -1.421875 33.015625 -1.421875 
Q 20.359375 -1.421875 13.671875 8.265625 
Q 6.984375 17.96875 6.984375 36.375 
Q 6.984375 53.65625 15.1875 63.9375 
Q 23.390625 74.21875 37.203125 74.21875 
Q 40.921875 74.21875 44.703125 73.484375 
Q 48.484375 72.75 52.59375 71.296875 
z
" id="DejaVuSans-54"/>
       </defs>
       <use xlink:href="#DejaVuSans-54"/>
       <use x="63.623047" xlink:href="#DejaVuSans-48"/>
      </g>
     </g>
    </g>
    <g id="xtick_5">
     <g id="line2d_5">
      <g>
       <use style="stroke:#000000;stroke-width:0.8;" x="303.093912" xlink:href="#m6db4a98c81" y="307.584"/>
      </g>
     </g>
     <g id="text_5">
      <!-- 80 -->
      <g transform="translate(296.731412 322.182437)scale(0.1 -0.1)">
       <defs>
        <path d="M 31.78125 34.625 
Q 24.75 34.625 20.71875 30.859375 
Q 16.703125 27.09375 16.703125 20.515625 
Q 16.703125 13.921875 20.71875 10.15625 
Q 24.75 6.390625 31.78125 6.390625 
Q 38.8125 6.390625 42.859375 10.171875 
Q 46.921875 13.96875 46.921875 20.515625 
Q 46.921875 27.09375 42.890625 30.859375 
Q 38.875 34.625 31.78125 34.625 
z
M 21.921875 38.8125 
Q 15.578125 40.375 12.03125 44.71875 
Q 8.5 49.078125 8.5 55.328125 
Q 8.5 64.0625 14.71875 69.140625 
Q 20.953125 74.21875 31.78125 74.21875 
Q 42.671875 74.21875 48.875 69.140625 
Q 55.078125 64.0625 55.078125 55.328125 
Q 55.078125 49.078125 51.53125 44.71875 
Q 48 40.375 41.703125 38.8125 
Q 48.828125 37.15625 52.796875 32.3125 
Q 56.78125 27.484375 56.78125 20.515625 
Q 56.78125 9.90625 50.3125 4.234375 
Q 43.84375 -1.421875 31.78125 -1.421875 
Q 19.734375 -1.421875 13.25 4.234375 
Q 6.78125 9.90625 6.78125 20.515625 
Q 6.78125 27.484375 10.78125 32.3125 
Q 14.796875 37.15625 21.921875 38.8125 
z
M 18.3125 54.390625 
Q 18.3125 48.734375 21.84375 45.5625 
Q 25.390625 42.390625 31.78125 42.390625 
Q 38.140625 42.390625 41.71875 45.5625 
Q 45.3125 48.734375 45.3125 54.390625 
Q 45.3125 60.0625 41.71875 63.234375 
Q 38.140625 66.40625 31.78125 66.40625 
Q 25.390625 66.40625 21.84375 63.234375 
Q 18.3125 60.0625 18.3125 54.390625 
z
" id="DejaVuSans-56"/>
       </defs>
       <use xlink:href="#DejaVuSans-56"/>
       <use x="63.623047" xlink:href="#DejaVuSans-48"/>
      </g>
     </g>
    </g>
    <g id="xtick_6">
     <g id="line2d_6">
      <g>
       <use style="stroke:#000000;stroke-width:0.8;" x="361.500249" xlink:href="#m6db4a98c81" y="307.584"/>
      </g>
     </g>
     <g id="text_6">
      <!-- 100 -->
      <g transform="translate(351.956499 322.182437)scale(0.1 -0.1)">
       <defs>
        <path d="M 12.40625 8.296875 
L 28.515625 8.296875 
L 28.515625 63.921875 
L 10.984375 60.40625 
L 10.984375 69.390625 
L 28.421875 72.90625 
L 38.28125 72.90625 
L 38.28125 8.296875 
L 54.390625 8.296875 
L 54.390625 0 
L 12.40625 0 
z
" id="DejaVuSans-49"/>
       </defs>
       <use xlink:href="#DejaVuSans-49"/>
       <use x="63.623047" xlink:href="#DejaVuSans-48"/>
       <use x="127.246094" xlink:href="#DejaVuSans-48"/>
      </g>
     </g>
    </g>
   </g>
   <g id="matplotlib.axis_2">
    <g id="ytick_1">
     <g id="line2d_7">
      <defs>
       <path d="M 0 0 
L -3.5 0 
" id="mc91fd9f183" style="stroke:#000000;stroke-width:0.8;"/>
      </defs>
      <g>
       <use style="stroke:#000000;stroke-width:0.8;" x="57.6" xlink:href="#mc91fd9f183" y="265.059573"/>
      </g>
     </g>
     <g id="text_7">
      <!-- 20 -->
      <g transform="translate(37.875 268.858792)scale(0.1 -0.1)">
       <use xlink:href="#DejaVuSans-50"/>
       <use x="63.623047" xlink:href="#DejaVuSans-48"/>
      </g>
     </g>
    </g>
    <g id="ytick_2">
     <g id="line2d_8">
      <g>
       <use style="stroke:#000000;stroke-width:0.8;" x="57.6" xlink:href="#mc91fd9f183" y="206.653236"/>
      </g>
     </g>
     <g id="text_8">
      <!-- 40 -->
      <g transform="translate(37.875 210.452455)scale(0.1 -0.1)">
       <use xlink:href="#DejaVuSans-52"/>
       <use x="63.623047" xlink:href="#DejaVuSans-48"/>
      </g>
     </g>
    </g>
    <g id="ytick_3">
     <g id="line2d_9">
      <g>
       <use style="stroke:#000000;stroke-width:0.8;" x="57.6" xlink:href="#mc91fd9f183" y="148.246898"/>
      </g>
     </g>
     <g id="text_9">
      <!-- 60 -->
      <g transform="translate(37.875 152.046117)scale(0.1 -0.1)">
       <use xlink:href="#DejaVuSans-54"/>
       <use x="63.623047" xlink:href="#DejaVuSans-48"/>
      </g>
     </g>
    </g>
    <g id="ytick_4">
     <g id="line2d_10">
      <g>
       <use style="stroke:#000000;stroke-width:0.8;" x="57.6" xlink:href="#mc91fd9f183" y="89.840561"/>
      </g>
     </g>
     <g id="text_10">
      <!-- 80 -->
      <g transform="translate(37.875 93.639779)scale(0.1 -0.1)">
       <use xlink:href="#DejaVuSans-56"/>
       <use x="63.623047" xlink:href="#DejaVuSans-48"/>
      </g>
     </g>
    </g>
   </g>
   <g id="line2d_11">
    <path clip-path="url(#pad017b0e71)" d="M 355.51652 294.262742 
L 354.979182 288.392905 
L 354.748477 282.54059 
L 354.789361 276.699957 
L 355.066791 270.873924 
L 355.539882 265.059573 
L 356.538631 256.359949 
L 357.776845 247.680768 
L 362.131038 218.833877 
L 363.194033 210.119652 
L 364.035084 201.329498 
L 364.36216 195.44798 
L 364.388443 189.581063 
L 364.257028 186.660746 
L 364.014642 183.755031 
L 363.646682 180.866838 
L 363.141467 177.999087 
L 362.493157 175.154698 
L 361.698831 172.342433 
L 360.77309 169.559371 
L 359.718856 166.817193 
L 358.544889 164.1159 
L 357.257029 161.458412 
L 354.374676 156.301132 
L 351.133124 151.377478 
L 347.59078 146.710811 
L 343.806049 142.257328 
L 339.840259 137.970303 
L 333.67547 131.729586 
L 310.891158 109.079608 
L 294.540303 92.433802 
L 288.156491 86.347862 
L 283.740972 82.431717 
L 279.156074 78.737516 
L 274.372595 75.361629 
L 271.893246 73.822622 
L 269.35257 72.403348 
L 266.747648 71.109648 
L 264.072637 69.956123 
L 261.3363 68.939853 
L 258.544478 68.057917 
L 255.70593 67.301555 
L 252.826497 66.670766 
L 249.920782 66.162631 
L 246.988784 65.768388 
L 241.089744 65.315739 
L 235.196544 65.280696 
L 229.341309 65.645735 
L 223.538639 66.419619 
L 217.803137 67.596507 
L 212.143563 69.185159 
L 206.577439 71.185576 
L 203.841102 72.342022 
L 201.15441 73.61236 
L 198.526125 74.990749 
L 195.970848 76.485951 
L 193.50026 78.100887 
L 191.126042 79.835555 
L 188.859876 81.695797 
L 186.716364 83.684533 
L 184.704265 85.801762 
L 182.835262 88.050406 
L 181.109355 90.418783 
L 179.523623 92.898132 
L 178.080986 95.470931 
L 176.775605 98.12842 
L 175.604558 100.855996 
L 174.567845 103.641978 
L 173.665467 106.471765 
L 172.891583 109.333676 
L 172.249114 112.216028 
L 171.729297 115.107142 
L 171.025501 120.909812 
L 170.686744 126.735844 
L 170.616657 132.582318 
L 170.806477 141.381233 
L 171.034262 150.20059 
L 170.990457 156.064586 
L 170.631258 161.896459 
L 170.289581 164.793414 
L 169.813569 167.675766 
L 169.194462 170.540597 
L 168.408897 173.384986 
L 167.462714 176.194331 
L 166.358835 178.95695 
L 165.097258 181.655323 
L 163.686745 184.280688 
L 162.127295 186.812603 
L 160.42183 189.242307 
L 158.57619 191.555198 
L 156.593295 193.733754 
L 154.476065 195.763374 
L 152.227421 197.638218 
L 149.861964 199.355364 
L 147.385536 200.914813 
L 144.809816 202.325326 
L 142.143567 203.589823 
L 139.401389 204.705384 
L 136.592045 205.68077 
L 133.724293 206.515981 
L 130.809817 207.216857 
L 127.860297 207.783398 
L 124.884494 208.221446 
L 121.89409 208.53392 
L 118.897845 208.72374 
L 115.90744 208.790908 
L 112.931637 208.744183 
L 107.073482 208.309055 
L 104.211571 207.929414 
L 101.408067 207.444642 
L 98.67173 206.857658 
L 98.67173 206.857658 
" style="fill:none;stroke:#fea952;stroke-linecap:square;"/>
   </g>
   <g id="line2d_12">
    <path clip-path="url(#pad017b0e71)" d="M 343.899689 295.488 
L 343.313612 288.998304 
L 343.067262 282.575599 
L 343.116552 276.255501 
L 343.416773 270.020058 
L 343.919635 263.867154 
L 344.962499 254.796238 
L 346.231141 245.906302 
L 350.545815 217.33901 
L 351.579066 208.87685 
L 352.378826 200.565533 
L 352.682975 195.227399 
L 352.718984 190.106189 
L 352.427036 185.231309 
L 351.75229 180.594977 
L 351.251699 178.329855 
L 349.869832 173.751145 
L 348.032957 169.210144 
L 345.774843 164.740777 
L 343.161049 160.409217 
L 340.199431 156.217974 
L 336.917748 152.133207 
L 333.333348 148.101129 
L 329.504134 144.089536 
L 321.309732 135.941649 
L 304.611336 119.351215 
L 284.368346 98.832968 
L 278.307322 93.185372 
L 274.26981 89.747886 
L 270.230427 86.668039 
L 266.196451 84.02059 
L 262.122157 81.836103 
L 260.005671 80.906547 
L 257.817589 80.078555 
L 253.206228 78.71223 
L 248.364103 77.73971 
L 243.361646 77.149465 
L 238.26769 76.929144 
L 233.193151 77.056176 
L 228.180864 77.531283 
L 223.212175 78.356487 
L 218.323301 79.526255 
L 213.491977 81.056087 
L 208.83429 82.902329 
L 204.425584 85.072832 
L 202.362168 86.263632 
L 200.391529 87.532876 
L 198.537625 88.864422 
L 196.804827 90.259077 
L 195.183818 91.731534 
L 193.687619 93.268446 
L 192.275777 94.929992 
L 190.950047 96.712653 
L 189.712442 98.611273 
L 188.565639 100.621085 
L 187.509409 102.736831 
L 186.55241 104.929882 
L 185.696961 107.190891 
L 184.293052 111.875037 
L 183.299149 116.716658 
L 182.677201 121.740405 
L 182.365437 126.981097 
L 182.297088 132.442572 
L 182.482214 141.021801 
L 182.715477 150.165721 
L 182.659939 156.589189 
L 182.504654 159.899829 
L 182.232116 163.264706 
L 181.81474 166.696758 
L 181.231266 170.143199 
L 180.454198 173.650319 
L 179.479159 177.113432 
L 178.31008 180.52869 
L 176.940689 183.904311 
L 175.387417 187.183852 
L 173.632829 190.40665 
L 171.688317 193.523704 
L 169.552359 196.528284 
L 167.214911 199.418054 
L 164.67689 202.166281 
L 161.956522 204.735262 
L 159.089682 207.091333 
L 156.086517 209.240047 
L 152.996219 211.160409 
L 149.815376 212.879775 
L 146.545382 214.409991 
L 143.232697 215.740469 
L 139.858414 216.896065 
L 136.45555 217.873456 
L 133.013266 218.688423 
L 129.561484 219.340127 
L 126.098486 219.839459 
L 122.63265 220.191816 
L 119.160151 220.402063 
L 115.724047 220.470736 
L 112.284317 220.407501 
L 108.90012 220.211422 
L 105.537382 219.888883 
L 102.221222 219.439867 
L 96.221667 218.279094 
L 96.221667 218.279094 
" style="fill:none;stroke:#ffffff;stroke-linecap:square;"/>
   </g>
   <g id="line2d_13">
    <path clip-path="url(#pad017b0e71)" d="M 367.133351 293.037484 
L 366.644751 287.787507 
L 366.429692 282.505582 
L 366.46217 277.144412 
L 366.716809 271.727791 
L 367.16013 266.251993 
L 368.114762 257.923661 
L 369.322549 249.455234 
L 373.71626 220.328745 
L 374.809 211.362453 
L 375.691343 202.093463 
L 376.041344 195.668561 
L 376.057901 189.055938 
L 375.897865 185.689702 
L 375.602248 182.278754 
L 375.150792 178.840146 
L 374.530645 175.403196 
L 373.734615 171.97954 
L 372.782978 168.655471 
L 371.676348 165.367596 
L 370.432133 162.161261 
L 369.05682 159.021657 
L 367.557949 155.94996 
L 365.953233 152.966201 
L 364.24776 150.058198 
L 362.434361 147.205146 
L 358.59164 141.811909 
L 354.531647 136.785287 
L 350.348004 132.091459 
L 346.105462 127.651654 
L 337.712464 119.305592 
L 321.259423 102.960692 
L 300.512845 81.946192 
L 295.995728 77.687701 
L 291.195202 73.438026 
L 286.063951 69.317683 
L 283.350807 67.337656 
L 280.533153 65.436936 
L 277.590041 63.624655 
L 274.548424 61.941268 
L 271.373139 60.383193 
L 268.139604 59.005698 
L 264.855012 57.801151 
L 261.552136 56.77049 
L 258.205631 55.89088 
L 254.838715 55.164117 
L 251.477461 54.585552 
L 248.095186 54.139636 
L 244.722722 53.826611 
L 241.355684 53.637499 
L 238.012757 53.568 
L 234.674026 53.61112 
L 231.3301 53.768044 
L 228.001469 54.041562 
L 224.684483 54.43186 
L 221.393658 54.936977 
L 218.112079 55.557428 
L 214.849796 56.294746 
L 211.605876 57.15028 
L 208.387268 58.124316 
L 205.205661 59.212438 
L 202.030071 60.425769 
L 198.847913 61.781715 
L 195.729067 63.267425 
L 192.626666 64.908666 
L 189.579527 66.708271 
L 186.608991 68.668897 
L 183.714459 70.806687 
L 180.914925 73.132516 
L 178.248909 75.637531 
L 175.720911 78.335079 
L 173.394748 81.170821 
L 171.268663 84.124913 
L 169.334804 87.184992 
L 167.596334 90.320778 
L 166.0418 93.520009 
L 164.656706 96.78211 
L 163.438729 100.093065 
L 162.389191 103.422568 
L 161.490114 106.792315 
L 160.7522 110.148907 
L 160.159445 113.497626 
L 159.707115 116.801307 
L 159.148724 123.292797 
L 158.944202 129.621187 
L 158.973491 135.778659 
L 159.320975 155.539984 
L 159.0304 160.528213 
L 158.395873 165.208334 
L 157.934727 167.430876 
L 157.338635 169.65654 
L 156.615349 171.859971 
L 155.77698 174.00959 
L 154.807098 176.126795 
L 153.74066 178.154726 
L 152.566274 180.101501 
L 151.291302 181.956329 
L 149.93747 183.692341 
L 148.5097 185.301227 
L 146.995608 186.791486 
L 145.36516 188.185103 
L 143.637412 189.470681 
L 141.774852 190.669217 
L 139.804256 191.770878 
L 137.741752 192.769655 
L 135.570081 193.6703 
L 133.325676 194.465475 
L 130.993037 195.158505 
L 128.606368 195.745291 
L 123.670503 196.603433 
L 118.635539 197.045418 
L 113.578957 197.080865 
L 108.609581 196.729228 
L 103.858129 196.023205 
L 101.121792 195.436222 
L 101.121792 195.436222 
" style="fill:none;stroke:#ffffff;stroke-linecap:square;"/>
   </g>
   <g id="patch_3">
    <path d="M 57.6 307.584 
L 57.6 41.472 
" style="fill:none;stroke:#000000;stroke-linecap:square;stroke-linejoin:miter;stroke-width:0.8;"/>
   </g>
   <g id="patch_4">
    <path d="M 414.72 307.584 
L 414.72 41.472 
" style="fill:none;stroke:#000000;stroke-linecap:square;stroke-linejoin:miter;stroke-width:0.8;"/>
   </g>
   <g id="patch_5">
    <path d="M 57.6 307.584 
L 414.72 307.584 
" style="fill:none;stroke:#000000;stroke-linecap:square;stroke-linejoin:miter;stroke-width:0.8;"/>
   </g>
   <g id="patch_6">
    <path d="M 57.6 41.472 
L 414.72 41.472 
" style="fill:none;stroke:#000000;stroke-linecap:square;stroke-linejoin:miter;stroke-width:0.8;"/>
   </g>
  </g>
 </g>
 <defs>
  <clipPath id="pad017b0e71">
   <rect height="266.112" width="357.12" x="57.6" y="41.472"/>
  </clipPath>
 </defs>
</svg>
