<?xml version="1.0" encoding="utf-8" standalone="no"?>
<!DOCTYPE svg PUBLIC "-//W3C//DTD SVG 1.1//EN"
  "http://www.w3.org/Graphics/SVG/1.1/DTD/svg11.dtd">
<!-- Created with matplotlib (https://matplotlib.org/) -->
<svg height="345.6pt" version="1.1" viewBox="0 0 460.8 345.6" width="460.8pt" xmlns="http://www.w3.org/2000/svg" xmlns:xlink="http://www.w3.org/1999/xlink">
 <metadata>
  <rdf:RDF xmlns:cc="http://creativecommons.org/ns#" xmlns:dc="http://purl.org/dc/elements/1.1/" xmlns:rdf="http://www.w3.org/1999/02/22-rdf-syntax-ns#">
   <cc:Work>
    <dc:type rdf:resource="http://purl.org/dc/dcmitype/StillImage"/>
    <dc:date>2021-01-25T10:30:42.399610</dc:date>
    <dc:format>image/svg+xml</dc:format>
    <dc:creator>
     <cc:Agent>
      <dc:title>Matplotlib v3.3.3, https://matplotlib.org/</dc:title>
     </cc:Agent>
    </dc:creator>
   </cc:Work>
  </rdf:RDF>
 </metadata>
 <defs>
  <style type="text/css">*{stroke-linecap:butt;stroke-linejoin:round;}</style>
 </defs>
 <g id="figure_1">
  <g id="patch_1">
   <path d="M 0 345.6 
L 460.8 345.6 
L 460.8 0 
L 0 0 
z
" style="fill:#ffffff;"/>
  </g>
  <g id="axes_1">
   <g id="patch_2">
    <path d="M 57.6 307.584 
L 414.72 307.584 
L 414.72 41.472 
L 57.6 41.472 
z
" style="fill:#7d9051;"/>
   </g>
   <g id="matplotlib.axis_1">
    <g id="xtick_1">
     <g id="line2d_1">
      <defs>
       <path d="M 0 0 
L 0 3.5 
" id="m9ea4885e51" style="stroke:#000000;stroke-width:0.8;"/>
      </defs>
      <g>
       <use style="stroke:#000000;stroke-width:0.8;" x="80.093624" xlink:href="#m9ea4885e51" y="307.584"/>
      </g>
     </g>
     <g id="text_1">
      <!-- 0 -->
      <g transform="translate(76.912374 322.182437)scale(0.1 -0.1)">
       <defs>
        <path d="M 31.78125 66.40625 
Q 24.171875 66.40625 20.328125 58.90625 
Q 16.5 51.421875 16.5 36.375 
Q 16.5 21.390625 20.328125 13.890625 
Q 24.171875 6.390625 31.78125 6.390625 
Q 39.453125 6.390625 43.28125 13.890625 
Q 47.125 21.390625 47.125 36.375 
Q 47.125 51.421875 43.28125 58.90625 
Q 39.453125 66.40625 31.78125 66.40625 
z
M 31.78125 74.21875 
Q 44.046875 74.21875 50.515625 64.515625 
Q 56.984375 54.828125 56.984375 36.375 
Q 56.984375 17.96875 50.515625 8.265625 
Q 44.046875 -1.421875 31.78125 -1.421875 
Q 19.53125 -1.421875 13.0625 8.265625 
Q 6.59375 17.96875 6.59375 36.375 
Q 6.59375 54.828125 13.0625 64.515625 
Q 19.53125 74.21875 31.78125 74.21875 
z
" id="DejaVuSans-48"/>
       </defs>
       <use xlink:href="#DejaVuSans-48"/>
      </g>
     </g>
    </g>
    <g id="xtick_2">
     <g id="line2d_2">
      <g>
       <use style="stroke:#000000;stroke-width:0.8;" x="137.462171" xlink:href="#m9ea4885e51" y="307.584"/>
      </g>
     </g>
     <g id="text_2">
      <!-- 20 -->
      <g transform="translate(131.099671 322.182437)scale(0.1 -0.1)">
       <defs>
        <path d="M 19.1875 8.296875 
L 53.609375 8.296875 
L 53.609375 0 
L 7.328125 0 
L 7.328125 8.296875 
Q 12.9375 14.109375 22.625 23.890625 
Q 32.328125 33.6875 34.8125 36.53125 
Q 39.546875 41.84375 41.421875 45.53125 
Q 43.3125 49.21875 43.3125 52.78125 
Q 43.3125 58.59375 39.234375 62.25 
Q 35.15625 65.921875 28.609375 65.921875 
Q 23.96875 65.921875 18.8125 64.3125 
Q 13.671875 62.703125 7.8125 59.421875 
L 7.8125 69.390625 
Q 13.765625 71.78125 18.9375 73 
Q 24.125 74.21875 28.421875 74.21875 
Q 39.75 74.21875 46.484375 68.546875 
Q 53.21875 62.890625 53.21875 53.421875 
Q 53.21875 48.921875 51.53125 44.890625 
Q 49.859375 40.875 45.40625 35.40625 
Q 44.1875 33.984375 37.640625 27.21875 
Q 31.109375 20.453125 19.1875 8.296875 
z
" id="DejaVuSans-50"/>
       </defs>
       <use xlink:href="#DejaVuSans-50"/>
       <use x="63.623047" xlink:href="#DejaVuSans-48"/>
      </g>
     </g>
    </g>
    <g id="xtick_3">
     <g id="line2d_3">
      <g>
       <use style="stroke:#000000;stroke-width:0.8;" x="194.830719" xlink:href="#m9ea4885e51" y="307.584"/>
      </g>
     </g>
     <g id="text_3">
      <!-- 40 -->
      <g transform="translate(188.468219 322.182437)scale(0.1 -0.1)">
       <defs>
        <path d="M 37.796875 64.3125 
L 12.890625 25.390625 
L 37.796875 25.390625 
z
M 35.203125 72.90625 
L 47.609375 72.90625 
L 47.609375 25.390625 
L 58.015625 25.390625 
L 58.015625 17.1875 
L 47.609375 17.1875 
L 47.609375 0 
L 37.796875 0 
L 37.796875 17.1875 
L 4.890625 17.1875 
L 4.890625 26.703125 
z
" id="DejaVuSans-52"/>
       </defs>
       <use xlink:href="#DejaVuSans-52"/>
       <use x="63.623047" xlink:href="#DejaVuSans-48"/>
      </g>
     </g>
    </g>
    <g id="xtick_4">
     <g id="line2d_4">
      <g>
       <use style="stroke:#000000;stroke-width:0.8;" x="252.199266" xlink:href="#m9ea4885e51" y="307.584"/>
      </g>
     </g>
     <g id="text_4">
      <!-- 60 -->
      <g transform="translate(245.836766 322.182437)scale(0.1 -0.1)">
       <defs>
        <path d="M 33.015625 40.375 
Q 26.375 40.375 22.484375 35.828125 
Q 18.609375 31.296875 18.609375 23.390625 
Q 18.609375 15.53125 22.484375 10.953125 
Q 26.375 6.390625 33.015625 6.390625 
Q 39.65625 6.390625 43.53125 10.953125 
Q 47.40625 15.53125 47.40625 23.390625 
Q 47.40625 31.296875 43.53125 35.828125 
Q 39.65625 40.375 33.015625 40.375 
z
M 52.59375 71.296875 
L 52.59375 62.3125 
Q 48.875 64.0625 45.09375 64.984375 
Q 41.3125 65.921875 37.59375 65.921875 
Q 27.828125 65.921875 22.671875 59.328125 
Q 17.53125 52.734375 16.796875 39.40625 
Q 19.671875 43.65625 24.015625 45.921875 
Q 28.375 48.1875 33.59375 48.1875 
Q 44.578125 48.1875 50.953125 41.515625 
Q 57.328125 34.859375 57.328125 23.390625 
Q 57.328125 12.15625 50.6875 5.359375 
Q 44.046875 -1.421875 33.015625 -1.421875 
Q 20.359375 -1.421875 13.671875 8.265625 
Q 6.984375 17.96875 6.984375 36.375 
Q 6.984375 53.65625 15.1875 63.9375 
Q 23.390625 74.21875 37.203125 74.21875 
Q 40.921875 74.21875 44.703125 73.484375 
Q 48.484375 72.75 52.59375 71.296875 
z
" id="DejaVuSans-54"/>
       </defs>
       <use xlink:href="#DejaVuSans-54"/>
       <use x="63.623047" xlink:href="#DejaVuSans-48"/>
      </g>
     </g>
    </g>
    <g id="xtick_5">
     <g id="line2d_5">
      <g>
       <use style="stroke:#000000;stroke-width:0.8;" x="309.567814" xlink:href="#m9ea4885e51" y="307.584"/>
      </g>
     </g>
     <g id="text_5">
      <!-- 80 -->
      <g transform="translate(303.205314 322.182437)scale(0.1 -0.1)">
       <defs>
        <path d="M 31.78125 34.625 
Q 24.75 34.625 20.71875 30.859375 
Q 16.703125 27.09375 16.703125 20.515625 
Q 16.703125 13.921875 20.71875 10.15625 
Q 24.75 6.390625 31.78125 6.390625 
Q 38.8125 6.390625 42.859375 10.171875 
Q 46.921875 13.96875 46.921875 20.515625 
Q 46.921875 27.09375 42.890625 30.859375 
Q 38.875 34.625 31.78125 34.625 
z
M 21.921875 38.8125 
Q 15.578125 40.375 12.03125 44.71875 
Q 8.5 49.078125 8.5 55.328125 
Q 8.5 64.0625 14.71875 69.140625 
Q 20.953125 74.21875 31.78125 74.21875 
Q 42.671875 74.21875 48.875 69.140625 
Q 55.078125 64.0625 55.078125 55.328125 
Q 55.078125 49.078125 51.53125 44.71875 
Q 48 40.375 41.703125 38.8125 
Q 48.828125 37.15625 52.796875 32.3125 
Q 56.78125 27.484375 56.78125 20.515625 
Q 56.78125 9.90625 50.3125 4.234375 
Q 43.84375 -1.421875 31.78125 -1.421875 
Q 19.734375 -1.421875 13.25 4.234375 
Q 6.78125 9.90625 6.78125 20.515625 
Q 6.78125 27.484375 10.78125 32.3125 
Q 14.796875 37.15625 21.921875 38.8125 
z
M 18.3125 54.390625 
Q 18.3125 48.734375 21.84375 45.5625 
Q 25.390625 42.390625 31.78125 42.390625 
Q 38.140625 42.390625 41.71875 45.5625 
Q 45.3125 48.734375 45.3125 54.390625 
Q 45.3125 60.0625 41.71875 63.234375 
Q 38.140625 66.40625 31.78125 66.40625 
Q 25.390625 66.40625 21.84375 63.234375 
Q 18.3125 60.0625 18.3125 54.390625 
z
" id="DejaVuSans-56"/>
       </defs>
       <use xlink:href="#DejaVuSans-56"/>
       <use x="63.623047" xlink:href="#DejaVuSans-48"/>
      </g>
     </g>
    </g>
    <g id="xtick_6">
     <g id="line2d_6">
      <g>
       <use style="stroke:#000000;stroke-width:0.8;" x="366.936362" xlink:href="#m9ea4885e51" y="307.584"/>
      </g>
     </g>
     <g id="text_6">
      <!-- 100 -->
      <g transform="translate(357.392612 322.182437)scale(0.1 -0.1)">
       <defs>
        <path d="M 12.40625 8.296875 
L 28.515625 8.296875 
L 28.515625 63.921875 
L 10.984375 60.40625 
L 10.984375 69.390625 
L 28.421875 72.90625 
L 38.28125 72.90625 
L 38.28125 8.296875 
L 54.390625 8.296875 
L 54.390625 0 
L 12.40625 0 
z
" id="DejaVuSans-49"/>
       </defs>
       <use xlink:href="#DejaVuSans-49"/>
       <use x="63.623047" xlink:href="#DejaVuSans-48"/>
       <use x="127.246094" xlink:href="#DejaVuSans-48"/>
      </g>
     </g>
    </g>
   </g>
   <g id="matplotlib.axis_2">
    <g id="ytick_1">
     <g id="line2d_7">
      <defs>
       <path d="M 0 0 
L -3.5 0 
" id="mb2e757c168" style="stroke:#000000;stroke-width:0.8;"/>
      </defs>
      <g>
       <use style="stroke:#000000;stroke-width:0.8;" x="57.6" xlink:href="#mb2e757c168" y="255.330225"/>
      </g>
     </g>
     <g id="text_7">
      <!-- 20 -->
      <g transform="translate(37.875 259.129444)scale(0.1 -0.1)">
       <use xlink:href="#DejaVuSans-50"/>
       <use x="63.623047" xlink:href="#DejaVuSans-48"/>
      </g>
     </g>
    </g>
    <g id="ytick_2">
     <g id="line2d_8">
      <g>
       <use style="stroke:#000000;stroke-width:0.8;" x="57.6" xlink:href="#mb2e757c168" y="197.961678"/>
      </g>
     </g>
     <g id="text_8">
      <!-- 40 -->
      <g transform="translate(37.875 201.760896)scale(0.1 -0.1)">
       <use xlink:href="#DejaVuSans-52"/>
       <use x="63.623047" xlink:href="#DejaVuSans-48"/>
      </g>
     </g>
    </g>
    <g id="ytick_3">
     <g id="line2d_9">
      <g>
       <use style="stroke:#000000;stroke-width:0.8;" x="57.6" xlink:href="#mb2e757c168" y="140.59313"/>
      </g>
     </g>
     <g id="text_9">
      <!-- 60 -->
      <g transform="translate(37.875 144.392349)scale(0.1 -0.1)">
       <use xlink:href="#DejaVuSans-54"/>
       <use x="63.623047" xlink:href="#DejaVuSans-48"/>
      </g>
     </g>
    </g>
    <g id="ytick_4">
     <g id="line2d_10">
      <g>
       <use style="stroke:#000000;stroke-width:0.8;" x="57.6" xlink:href="#mb2e757c168" y="83.224583"/>
      </g>
     </g>
     <g id="text_10">
      <!-- 80 -->
      <g transform="translate(37.875 87.023801)scale(0.1 -0.1)">
       <use xlink:href="#DejaVuSans-56"/>
       <use x="63.623047" xlink:href="#DejaVuSans-48"/>
      </g>
     </g>
    </g>
   </g>
   <g id="line2d_11">
    <path clip-path="url(#pe19990624d)" d="M 364.151119 198.739022 
L 364.793646 193.05093 
L 365.117779 187.314075 
L 365.120647 181.554273 
L 364.807988 175.794471 
L 364.174066 170.054748 
L 363.224617 164.360919 
L 361.956772 158.733065 
L 360.370531 153.197 
L 358.471632 147.772804 
L 356.25147 142.486292 
L 353.730122 137.348939 
L 350.959221 132.334928 
L 348.007609 127.409838 
L 341.829017 117.691606 
L 335.561503 108.027874 
L 332.302969 103.300706 
L 328.87233 98.711222 
L 325.212217 94.311054 
L 321.270998 90.146098 
L 317.060146 86.230695 
L 312.605479 82.57345 
L 307.929942 79.191574 
L 303.062221 76.087935 
L 298.022394 73.279745 
L 292.816198 70.810029 
L 287.452239 68.718945 
L 284.712891 67.829733 
L 281.933385 67.055257 
L 279.116589 66.395519 
L 276.262504 65.859123 
L 273.373997 65.448938 
L 270.459675 65.176438 
L 267.533879 65.041621 
L 264.605215 65.053095 
L 261.690893 65.219464 
L 258.796649 65.537859 
L 255.939696 66.022624 
L 253.131505 66.676625 
L 250.380683 67.505601 
L 247.701572 68.512419 
L 245.105646 69.702816 
L 242.590035 71.065319 
L 240.15474 72.582717 
L 237.796893 74.243536 
L 235.519361 76.030567 
L 233.316409 77.926597 
L 229.128505 81.994027 
L 225.221707 86.331089 
L 221.573067 90.823047 
L 216.40703 97.715878 
L 209.62033 106.912056 
L 206.069217 111.392539 
L 202.351735 115.752549 
L 198.482227 119.997822 
L 194.483639 124.128357 
L 188.282099 130.126239 
L 181.89698 135.90612 
L 175.379913 141.528238 
L 162.173673 152.551604 
L 148.849828 163.437286 
L 130.919288 177.813844 
L 126.691226 181.689089 
L 122.701244 185.82823 
L 120.819556 188.019708 
L 119.026789 190.291503 
L 117.325811 192.640745 
L 115.728097 195.061698 
L 114.242252 197.551493 
L 112.87688 200.11013 
L 111.640588 202.726136 
L 110.539112 205.402378 
L 109.581057 208.130253 
L 108.777898 210.90689 
L 108.13537 213.729423 
L 107.650606 216.586377 
L 107.326473 219.469146 
L 107.162973 222.369126 
L 107.154368 225.274843 
L 107.306394 228.18056 
L 107.610448 231.071935 
L 108.072264 233.943231 
L 108.688976 236.782974 
L 109.457715 239.582559 
L 110.37848 242.333381 
L 111.445535 245.026834 
L 112.653143 247.66005 
L 113.995567 250.230161 
L 115.46707 252.728562 
L 117.059047 255.152383 
L 118.765762 257.495888 
L 120.584345 259.75334 
L 122.506191 261.919003 
L 124.525564 263.992876 
L 126.633858 265.963486 
L 128.831073 267.8337 
L 131.108605 269.606388 
L 133.460715 271.272945 
L 135.884536 272.841974 
L 138.374331 274.307741 
L 140.921495 275.670244 
L 143.526027 276.932352 
L 148.875644 279.149646 
L 154.383024 280.953887 
L 160.005142 282.345074 
L 165.701839 283.32034 
L 171.430088 283.876815 
L 177.143996 284.014499 
L 177.143996 284.014499 
" style="fill:none;stroke:#fea952;stroke-linecap:square;"/>
   </g>
   <g id="line2d_12">
    <path clip-path="url(#pe19990624d)" d="M 352.769406 197.288975 
L 353.348 192.248933 
L 353.645187 187.153939 
L 353.656493 182.022431 
L 353.387667 176.900031 
L 352.831938 171.787415 
L 351.996175 166.720602 
L 350.880784 161.727811 
L 349.485615 156.825306 
L 347.825696 152.051828 
L 345.881074 147.395559 
L 343.631174 142.794788 
L 341.077318 138.165365 
L 336.799372 131.123487 
L 327.578208 116.755967 
L 323.035202 110.064913 
L 319.937602 105.9096 
L 316.750989 102.060483 
L 313.325565 98.423544 
L 309.648793 94.989567 
L 305.739515 91.766085 
L 301.618153 88.773188 
L 297.329208 86.026677 
L 292.932322 83.562603 
L 288.448736 81.41999 
L 283.909751 79.632093 
L 279.316869 78.226643 
L 274.649353 77.218866 
L 272.30582 76.872817 
L 267.57883 76.515243 
L 265.259145 76.508155 
L 262.945545 76.624369 
L 260.716059 76.849883 
L 258.542171 77.197288 
L 256.442111 77.662338 
L 254.416932 78.245931 
L 252.484131 78.941855 
L 250.570009 79.791757 
L 248.65768 80.803373 
L 246.762023 81.963006 
L 244.879571 83.270257 
L 243.004055 84.726852 
L 239.332039 87.999417 
L 235.777629 91.689835 
L 232.356989 95.691248 
L 229.009053 99.977686 
L 222.26375 109.153592 
L 216.792295 116.377603 
L 212.892389 121.114292 
L 208.852045 125.687598 
L 204.681647 130.121623 
L 200.415998 134.40274 
L 193.873002 140.578265 
L 187.225744 146.489257 
L 178.342156 154.029542 
L 160.539266 168.743942 
L 151.424311 176.041182 
L 140.547401 184.682322 
L 136.642043 188.080383 
L 133.060083 191.538877 
L 129.826528 195.127483 
L 126.902086 198.960632 
L 124.364856 202.953241 
L 122.250782 207.093032 
L 121.36458 209.204383 
L 120.602933 211.318399 
L 119.965394 213.453638 
L 119.447393 215.648833 
L 119.052469 217.868377 
L 118.78199 220.115006 
L 118.636632 222.403106 
L 118.612405 224.675361 
L 118.717185 226.980616 
L 118.938568 229.24993 
L 119.284613 231.508226 
L 119.753147 233.744861 
L 120.338085 235.940642 
L 121.045596 238.107431 
L 121.874805 240.243912 
L 122.82313 242.348048 
L 123.881939 244.407304 
L 125.0572 246.429719 
L 126.33383 248.397798 
L 127.700804 250.2979 
L 129.16617 252.13768 
L 132.360378 255.610651 
L 134.070746 257.226283 
L 137.741875 260.244458 
L 141.705422 262.954442 
L 145.924938 265.344956 
L 150.371899 267.41092 
L 154.983986 269.134897 
L 159.740162 270.514647 
L 164.58042 271.54221 
L 169.469036 272.212207 
L 174.359097 272.523788 
L 177.213183 272.540998 
L 177.213183 272.540998 
" style="fill:none;stroke:#ffffff;stroke-linecap:square;"/>
   </g>
   <g id="line2d_13">
    <path clip-path="url(#pe19990624d)" d="M 375.532831 200.189068 
L 376.239292 193.852927 
L 376.590371 187.474211 
L 376.584802 181.086115 
L 376.22831 174.688911 
L 375.516194 168.322081 
L 374.453058 162.001237 
L 373.032759 155.738319 
L 371.255448 149.568695 
L 369.117569 143.49378 
L 366.621865 137.577025 
L 363.829069 131.90309 
L 360.841124 126.50449 
L 357.738582 121.330842 
L 351.490089 111.502124 
L 345.05857 101.589573 
L 341.570737 96.536499 
L 337.807058 91.512844 
L 333.673444 86.561626 
L 329.21643 81.868652 
L 324.4715 77.471822 
L 319.471442 73.380814 
L 314.241731 69.609959 
L 308.795233 66.149194 
L 303.112466 62.996886 
L 297.183661 60.200068 
L 294.120291 58.947818 
L 290.994727 57.805798 
L 287.792582 56.777063 
L 284.549901 55.883872 
L 281.235852 55.119228 
L 277.875655 54.499381 
L 274.442175 54.025059 
L 270.987805 53.714889 
L 267.488929 53.568 
L 263.951284 53.598036 
L 260.43624 53.814559 
L 256.87724 54.225836 
L 253.33722 54.847959 
L 249.820899 55.690912 
L 246.344435 56.76527 
L 242.919013 58.082982 
L 239.641282 59.613875 
L 236.52239 61.327265 
L 233.547456 63.202428 
L 230.714214 65.216816 
L 228.034668 67.334282 
L 225.478451 69.547312 
L 223.038296 71.840891 
L 218.503741 76.58365 
L 214.380417 81.428467 
L 210.631864 86.234944 
L 197.269953 104.029187 
L 193.809155 108.092893 
L 190.176676 112.081772 
L 186.404903 115.980963 
L 180.50209 121.693121 
L 174.340677 127.271984 
L 165.818332 134.584762 
L 150.477221 147.328781 
L 139.490889 156.224307 
L 125.656923 167.222147 
L 120.91684 171.36805 
L 116.260677 175.906731 
L 113.996192 178.353735 
L 111.812583 180.911934 
L 109.733376 183.562573 
L 107.749537 186.320858 
L 105.875478 189.181909 
L 104.119647 192.149744 
L 102.503258 195.207684 
L 101.030394 198.359239 
L 99.713643 201.600374 
L 98.559182 204.942107 
L 97.590401 208.360143 
L 96.823346 211.810013 
L 96.248742 215.304376 
L 95.870956 218.823286 
L 95.689314 222.335147 
L 95.69633 225.874326 
L 95.895604 229.380504 
L 96.282327 232.89394 
L 96.859916 236.378236 
L 97.624805 239.821086 
L 98.577345 243.224476 
L 99.711364 246.559331 
L 101.016265 249.809756 
L 102.483156 252.972053 
L 104.109195 256.053019 
L 105.87694 259.027404 
L 107.784265 261.906968 
L 109.83072 264.693876 
L 112.002519 267.369 
L 114.285758 269.923408 
L 116.69075 272.375101 
L 119.19697 274.700688 
L 121.78374 276.888042 
L 124.475335 278.968319 
L 127.225717 280.904705 
L 130.06365 282.729507 
L 132.962524 284.424971 
L 135.918051 285.995531 
L 138.933708 287.446943 
L 141.986745 288.771473 
L 145.104531 289.985915 
L 148.240261 291.069031 
L 151.429506 292.04094 
L 154.625057 292.88471 
L 157.866636 293.617732 
L 161.115087 294.226467 
L 164.388409 294.718625 
L 167.660023 295.08821 
L 170.947171 295.340357 
L 177.074809 295.488 
L 177.074809 295.488 
" style="fill:none;stroke:#ffffff;stroke-linecap:square;"/>
   </g>
   <g id="patch_3">
    <path d="M 57.6 307.584 
L 57.6 41.472 
" style="fill:none;stroke:#000000;stroke-linecap:square;stroke-linejoin:miter;stroke-width:0.8;"/>
   </g>
   <g id="patch_4">
    <path d="M 414.72 307.584 
L 414.72 41.472 
" style="fill:none;stroke:#000000;stroke-linecap:square;stroke-linejoin:miter;stroke-width:0.8;"/>
   </g>
   <g id="patch_5">
    <path d="M 57.6 307.584 
L 414.72 307.584 
" style="fill:none;stroke:#000000;stroke-linecap:square;stroke-linejoin:miter;stroke-width:0.8;"/>
   </g>
   <g id="patch_6">
    <path d="M 57.6 41.472 
L 414.72 41.472 
" style="fill:none;stroke:#000000;stroke-linecap:square;stroke-linejoin:miter;stroke-width:0.8;"/>
   </g>
  </g>
 </g>
 <defs>
  <clipPath id="pe19990624d">
   <rect height="266.112" width="357.12" x="57.6" y="41.472"/>
  </clipPath>
 </defs>
</svg>
