<?xml version="1.0" encoding="utf-8" standalone="no"?>
<!DOCTYPE svg PUBLIC "-//W3C//DTD SVG 1.1//EN"
  "http://www.w3.org/Graphics/SVG/1.1/DTD/svg11.dtd">
<!-- Created with matplotlib (https://matplotlib.org/) -->
<svg height="345.6pt" version="1.1" viewBox="0 0 460.8 345.6" width="460.8pt" xmlns="http://www.w3.org/2000/svg" xmlns:xlink="http://www.w3.org/1999/xlink">
 <metadata>
  <rdf:RDF xmlns:cc="http://creativecommons.org/ns#" xmlns:dc="http://purl.org/dc/elements/1.1/" xmlns:rdf="http://www.w3.org/1999/02/22-rdf-syntax-ns#">
   <cc:Work>
    <dc:type rdf:resource="http://purl.org/dc/dcmitype/StillImage"/>
    <dc:date>2021-01-25T13:51:48.877499</dc:date>
    <dc:format>image/svg+xml</dc:format>
    <dc:creator>
     <cc:Agent>
      <dc:title>Matplotlib v3.3.3, https://matplotlib.org/</dc:title>
     </cc:Agent>
    </dc:creator>
   </cc:Work>
  </rdf:RDF>
 </metadata>
 <defs>
  <style type="text/css">*{stroke-linecap:butt;stroke-linejoin:round;}</style>
 </defs>
 <g id="figure_1">
  <g id="patch_1">
   <path d="M 0 345.6 
L 460.8 345.6 
L 460.8 0 
L 0 0 
z
" style="fill:#ffffff;"/>
  </g>
  <g id="axes_1">
   <g id="patch_2">
    <path d="M 57.6 307.584 
L 414.72 307.584 
L 414.72 41.472 
L 57.6 41.472 
z
" style="fill:#7d9051;"/>
   </g>
   <g id="matplotlib.axis_1">
    <g id="xtick_1">
     <g id="line2d_1">
      <defs>
       <path d="M 0 0 
L 0 3.5 
" id="m6b209134a2" style="stroke:#000000;stroke-width:0.8;"/>
      </defs>
      <g>
       <use style="stroke:#000000;stroke-width:0.8;" x="97.796695" xlink:href="#m6b209134a2" y="307.584"/>
      </g>
     </g>
     <g id="text_1">
      <!-- 0 -->
      <g transform="translate(94.615445 322.182437)scale(0.1 -0.1)">
       <defs>
        <path d="M 31.78125 66.40625 
Q 24.171875 66.40625 20.328125 58.90625 
Q 16.5 51.421875 16.5 36.375 
Q 16.5 21.390625 20.328125 13.890625 
Q 24.171875 6.390625 31.78125 6.390625 
Q 39.453125 6.390625 43.28125 13.890625 
Q 47.125 21.390625 47.125 36.375 
Q 47.125 51.421875 43.28125 58.90625 
Q 39.453125 66.40625 31.78125 66.40625 
z
M 31.78125 74.21875 
Q 44.046875 74.21875 50.515625 64.515625 
Q 56.984375 54.828125 56.984375 36.375 
Q 56.984375 17.96875 50.515625 8.265625 
Q 44.046875 -1.421875 31.78125 -1.421875 
Q 19.53125 -1.421875 13.0625 8.265625 
Q 6.59375 17.96875 6.59375 36.375 
Q 6.59375 54.828125 13.0625 64.515625 
Q 19.53125 74.21875 31.78125 74.21875 
z
" id="DejaVuSans-48"/>
       </defs>
       <use xlink:href="#DejaVuSans-48"/>
      </g>
     </g>
    </g>
    <g id="xtick_2">
     <g id="line2d_2">
      <g>
       <use style="stroke:#000000;stroke-width:0.8;" x="167.333382" xlink:href="#m6b209134a2" y="307.584"/>
      </g>
     </g>
     <g id="text_2">
      <!-- 20 -->
      <g transform="translate(160.970882 322.182437)scale(0.1 -0.1)">
       <defs>
        <path d="M 19.1875 8.296875 
L 53.609375 8.296875 
L 53.609375 0 
L 7.328125 0 
L 7.328125 8.296875 
Q 12.9375 14.109375 22.625 23.890625 
Q 32.328125 33.6875 34.8125 36.53125 
Q 39.546875 41.84375 41.421875 45.53125 
Q 43.3125 49.21875 43.3125 52.78125 
Q 43.3125 58.59375 39.234375 62.25 
Q 35.15625 65.921875 28.609375 65.921875 
Q 23.96875 65.921875 18.8125 64.3125 
Q 13.671875 62.703125 7.8125 59.421875 
L 7.8125 69.390625 
Q 13.765625 71.78125 18.9375 73 
Q 24.125 74.21875 28.421875 74.21875 
Q 39.75 74.21875 46.484375 68.546875 
Q 53.21875 62.890625 53.21875 53.421875 
Q 53.21875 48.921875 51.53125 44.890625 
Q 49.859375 40.875 45.40625 35.40625 
Q 44.1875 33.984375 37.640625 27.21875 
Q 31.109375 20.453125 19.1875 8.296875 
z
" id="DejaVuSans-50"/>
       </defs>
       <use xlink:href="#DejaVuSans-50"/>
       <use x="63.623047" xlink:href="#DejaVuSans-48"/>
      </g>
     </g>
    </g>
    <g id="xtick_3">
     <g id="line2d_3">
      <g>
       <use style="stroke:#000000;stroke-width:0.8;" x="236.870069" xlink:href="#m6b209134a2" y="307.584"/>
      </g>
     </g>
     <g id="text_3">
      <!-- 40 -->
      <g transform="translate(230.507569 322.182437)scale(0.1 -0.1)">
       <defs>
        <path d="M 37.796875 64.3125 
L 12.890625 25.390625 
L 37.796875 25.390625 
z
M 35.203125 72.90625 
L 47.609375 72.90625 
L 47.609375 25.390625 
L 58.015625 25.390625 
L 58.015625 17.1875 
L 47.609375 17.1875 
L 47.609375 0 
L 37.796875 0 
L 37.796875 17.1875 
L 4.890625 17.1875 
L 4.890625 26.703125 
z
" id="DejaVuSans-52"/>
       </defs>
       <use xlink:href="#DejaVuSans-52"/>
       <use x="63.623047" xlink:href="#DejaVuSans-48"/>
      </g>
     </g>
    </g>
    <g id="xtick_4">
     <g id="line2d_4">
      <g>
       <use style="stroke:#000000;stroke-width:0.8;" x="306.406756" xlink:href="#m6b209134a2" y="307.584"/>
      </g>
     </g>
     <g id="text_4">
      <!-- 60 -->
      <g transform="translate(300.044256 322.182437)scale(0.1 -0.1)">
       <defs>
        <path d="M 33.015625 40.375 
Q 26.375 40.375 22.484375 35.828125 
Q 18.609375 31.296875 18.609375 23.390625 
Q 18.609375 15.53125 22.484375 10.953125 
Q 26.375 6.390625 33.015625 6.390625 
Q 39.65625 6.390625 43.53125 10.953125 
Q 47.40625 15.53125 47.40625 23.390625 
Q 47.40625 31.296875 43.53125 35.828125 
Q 39.65625 40.375 33.015625 40.375 
z
M 52.59375 71.296875 
L 52.59375 62.3125 
Q 48.875 64.0625 45.09375 64.984375 
Q 41.3125 65.921875 37.59375 65.921875 
Q 27.828125 65.921875 22.671875 59.328125 
Q 17.53125 52.734375 16.796875 39.40625 
Q 19.671875 43.65625 24.015625 45.921875 
Q 28.375 48.1875 33.59375 48.1875 
Q 44.578125 48.1875 50.953125 41.515625 
Q 57.328125 34.859375 57.328125 23.390625 
Q 57.328125 12.15625 50.6875 5.359375 
Q 44.046875 -1.421875 33.015625 -1.421875 
Q 20.359375 -1.421875 13.671875 8.265625 
Q 6.984375 17.96875 6.984375 36.375 
Q 6.984375 53.65625 15.1875 63.9375 
Q 23.390625 74.21875 37.203125 74.21875 
Q 40.921875 74.21875 44.703125 73.484375 
Q 48.484375 72.75 52.59375 71.296875 
z
" id="DejaVuSans-54"/>
       </defs>
       <use xlink:href="#DejaVuSans-54"/>
       <use x="63.623047" xlink:href="#DejaVuSans-48"/>
      </g>
     </g>
    </g>
    <g id="xtick_5">
     <g id="line2d_5">
      <g>
       <use style="stroke:#000000;stroke-width:0.8;" x="375.943443" xlink:href="#m6b209134a2" y="307.584"/>
      </g>
     </g>
     <g id="text_5">
      <!-- 80 -->
      <g transform="translate(369.580943 322.182437)scale(0.1 -0.1)">
       <defs>
        <path d="M 31.78125 34.625 
Q 24.75 34.625 20.71875 30.859375 
Q 16.703125 27.09375 16.703125 20.515625 
Q 16.703125 13.921875 20.71875 10.15625 
Q 24.75 6.390625 31.78125 6.390625 
Q 38.8125 6.390625 42.859375 10.171875 
Q 46.921875 13.96875 46.921875 20.515625 
Q 46.921875 27.09375 42.890625 30.859375 
Q 38.875 34.625 31.78125 34.625 
z
M 21.921875 38.8125 
Q 15.578125 40.375 12.03125 44.71875 
Q 8.5 49.078125 8.5 55.328125 
Q 8.5 64.0625 14.71875 69.140625 
Q 20.953125 74.21875 31.78125 74.21875 
Q 42.671875 74.21875 48.875 69.140625 
Q 55.078125 64.0625 55.078125 55.328125 
Q 55.078125 49.078125 51.53125 44.71875 
Q 48 40.375 41.703125 38.8125 
Q 48.828125 37.15625 52.796875 32.3125 
Q 56.78125 27.484375 56.78125 20.515625 
Q 56.78125 9.90625 50.3125 4.234375 
Q 43.84375 -1.421875 31.78125 -1.421875 
Q 19.734375 -1.421875 13.25 4.234375 
Q 6.78125 9.90625 6.78125 20.515625 
Q 6.78125 27.484375 10.78125 32.3125 
Q 14.796875 37.15625 21.921875 38.8125 
z
M 18.3125 54.390625 
Q 18.3125 48.734375 21.84375 45.5625 
Q 25.390625 42.390625 31.78125 42.390625 
Q 38.140625 42.390625 41.71875 45.5625 
Q 45.3125 48.734375 45.3125 54.390625 
Q 45.3125 60.0625 41.71875 63.234375 
Q 38.140625 66.40625 31.78125 66.40625 
Q 25.390625 66.40625 21.84375 63.234375 
Q 18.3125 60.0625 18.3125 54.390625 
z
" id="DejaVuSans-56"/>
       </defs>
       <use xlink:href="#DejaVuSans-56"/>
       <use x="63.623047" xlink:href="#DejaVuSans-48"/>
      </g>
     </g>
    </g>
   </g>
   <g id="matplotlib.axis_2">
    <g id="ytick_1">
     <g id="line2d_6">
      <defs>
       <path d="M 0 0 
L -3.5 0 
" id="m2af9bb1b90" style="stroke:#000000;stroke-width:0.8;"/>
      </defs>
      <g>
       <use style="stroke:#000000;stroke-width:0.8;" x="57.6" xlink:href="#m2af9bb1b90" y="281.095455"/>
      </g>
     </g>
     <g id="text_6">
      <!-- 10 -->
      <g transform="translate(37.875 284.894674)scale(0.1 -0.1)">
       <defs>
        <path d="M 12.40625 8.296875 
L 28.515625 8.296875 
L 28.515625 63.921875 
L 10.984375 60.40625 
L 10.984375 69.390625 
L 28.421875 72.90625 
L 38.28125 72.90625 
L 38.28125 8.296875 
L 54.390625 8.296875 
L 54.390625 0 
L 12.40625 0 
z
" id="DejaVuSans-49"/>
       </defs>
       <use xlink:href="#DejaVuSans-49"/>
       <use x="63.623047" xlink:href="#DejaVuSans-48"/>
      </g>
     </g>
    </g>
    <g id="ytick_2">
     <g id="line2d_7">
      <g>
       <use style="stroke:#000000;stroke-width:0.8;" x="57.6" xlink:href="#m2af9bb1b90" y="246.327112"/>
      </g>
     </g>
     <g id="text_7">
      <!-- 20 -->
      <g transform="translate(37.875 250.12633)scale(0.1 -0.1)">
       <use xlink:href="#DejaVuSans-50"/>
       <use x="63.623047" xlink:href="#DejaVuSans-48"/>
      </g>
     </g>
    </g>
    <g id="ytick_3">
     <g id="line2d_8">
      <g>
       <use style="stroke:#000000;stroke-width:0.8;" x="57.6" xlink:href="#m2af9bb1b90" y="211.558768"/>
      </g>
     </g>
     <g id="text_8">
      <!-- 30 -->
      <g transform="translate(37.875 215.357987)scale(0.1 -0.1)">
       <defs>
        <path d="M 40.578125 39.3125 
Q 47.65625 37.796875 51.625 33 
Q 55.609375 28.21875 55.609375 21.1875 
Q 55.609375 10.40625 48.1875 4.484375 
Q 40.765625 -1.421875 27.09375 -1.421875 
Q 22.515625 -1.421875 17.65625 -0.515625 
Q 12.796875 0.390625 7.625 2.203125 
L 7.625 11.71875 
Q 11.71875 9.328125 16.59375 8.109375 
Q 21.484375 6.890625 26.8125 6.890625 
Q 36.078125 6.890625 40.9375 10.546875 
Q 45.796875 14.203125 45.796875 21.1875 
Q 45.796875 27.640625 41.28125 31.265625 
Q 36.765625 34.90625 28.71875 34.90625 
L 20.21875 34.90625 
L 20.21875 43.015625 
L 29.109375 43.015625 
Q 36.375 43.015625 40.234375 45.921875 
Q 44.09375 48.828125 44.09375 54.296875 
Q 44.09375 59.90625 40.109375 62.90625 
Q 36.140625 65.921875 28.71875 65.921875 
Q 24.65625 65.921875 20.015625 65.03125 
Q 15.375 64.15625 9.8125 62.3125 
L 9.8125 71.09375 
Q 15.4375 72.65625 20.34375 73.4375 
Q 25.25 74.21875 29.59375 74.21875 
Q 40.828125 74.21875 47.359375 69.109375 
Q 53.90625 64.015625 53.90625 55.328125 
Q 53.90625 49.265625 50.4375 45.09375 
Q 46.96875 40.921875 40.578125 39.3125 
z
" id="DejaVuSans-51"/>
       </defs>
       <use xlink:href="#DejaVuSans-51"/>
       <use x="63.623047" xlink:href="#DejaVuSans-48"/>
      </g>
     </g>
    </g>
    <g id="ytick_4">
     <g id="line2d_9">
      <g>
       <use style="stroke:#000000;stroke-width:0.8;" x="57.6" xlink:href="#m2af9bb1b90" y="176.790425"/>
      </g>
     </g>
     <g id="text_9">
      <!-- 40 -->
      <g transform="translate(37.875 180.589643)scale(0.1 -0.1)">
       <use xlink:href="#DejaVuSans-52"/>
       <use x="63.623047" xlink:href="#DejaVuSans-48"/>
      </g>
     </g>
    </g>
    <g id="ytick_5">
     <g id="line2d_10">
      <g>
       <use style="stroke:#000000;stroke-width:0.8;" x="57.6" xlink:href="#m2af9bb1b90" y="142.022081"/>
      </g>
     </g>
     <g id="text_10">
      <!-- 50 -->
      <g transform="translate(37.875 145.8213)scale(0.1 -0.1)">
       <defs>
        <path d="M 10.796875 72.90625 
L 49.515625 72.90625 
L 49.515625 64.59375 
L 19.828125 64.59375 
L 19.828125 46.734375 
Q 21.96875 47.46875 24.109375 47.828125 
Q 26.265625 48.1875 28.421875 48.1875 
Q 40.625 48.1875 47.75 41.5 
Q 54.890625 34.8125 54.890625 23.390625 
Q 54.890625 11.625 47.5625 5.09375 
Q 40.234375 -1.421875 26.90625 -1.421875 
Q 22.3125 -1.421875 17.546875 -0.640625 
Q 12.796875 0.140625 7.71875 1.703125 
L 7.71875 11.625 
Q 12.109375 9.234375 16.796875 8.0625 
Q 21.484375 6.890625 26.703125 6.890625 
Q 35.15625 6.890625 40.078125 11.328125 
Q 45.015625 15.765625 45.015625 23.390625 
Q 45.015625 31 40.078125 35.4375 
Q 35.15625 39.890625 26.703125 39.890625 
Q 22.75 39.890625 18.8125 39.015625 
Q 14.890625 38.140625 10.796875 36.28125 
z
" id="DejaVuSans-53"/>
       </defs>
       <use xlink:href="#DejaVuSans-53"/>
       <use x="63.623047" xlink:href="#DejaVuSans-48"/>
      </g>
     </g>
    </g>
    <g id="ytick_6">
     <g id="line2d_11">
      <g>
       <use style="stroke:#000000;stroke-width:0.8;" x="57.6" xlink:href="#m2af9bb1b90" y="107.253738"/>
      </g>
     </g>
     <g id="text_11">
      <!-- 60 -->
      <g transform="translate(37.875 111.052956)scale(0.1 -0.1)">
       <use xlink:href="#DejaVuSans-54"/>
       <use x="63.623047" xlink:href="#DejaVuSans-48"/>
      </g>
     </g>
    </g>
    <g id="ytick_7">
     <g id="line2d_12">
      <g>
       <use style="stroke:#000000;stroke-width:0.8;" x="57.6" xlink:href="#m2af9bb1b90" y="72.485394"/>
      </g>
     </g>
     <g id="text_12">
      <!-- 70 -->
      <g transform="translate(37.875 76.284613)scale(0.1 -0.1)">
       <defs>
        <path d="M 8.203125 72.90625 
L 55.078125 72.90625 
L 55.078125 68.703125 
L 28.609375 0 
L 18.3125 0 
L 43.21875 64.59375 
L 8.203125 64.59375 
z
" id="DejaVuSans-55"/>
       </defs>
       <use xlink:href="#DejaVuSans-55"/>
       <use x="63.623047" xlink:href="#DejaVuSans-48"/>
      </g>
     </g>
    </g>
   </g>
   <g id="line2d_13">
    <path clip-path="url(#p3a51c8253a)" d="M 132.565038 169.732451 
L 132.109573 156.110214 
L 132.040036 149.104393 
L 132.175633 142.035988 
L 132.592853 134.964107 
L 133.368187 127.940902 
L 133.91405 124.460591 
L 134.578125 121.015048 
L 135.367367 117.60775 
L 136.295681 114.242175 
L 137.370023 110.932228 
L 138.600823 107.677911 
L 139.995033 104.489654 
L 141.563085 101.374411 
L 143.31541 98.335658 
L 145.241576 95.390779 
L 147.33463 92.546728 
L 149.580665 89.817413 
L 151.979681 87.213264 
L 154.514293 84.748189 
L 157.181025 82.436094 
L 159.969446 80.283934 
L 162.869126 78.305615 
L 165.873111 76.518522 
L 168.970971 74.922655 
L 172.155751 73.514537 
L 175.413545 72.287215 
L 178.733921 71.223303 
L 182.113404 70.319326 
L 185.541563 69.5579 
L 189.00449 68.932069 
L 192.495232 68.431405 
L 199.521914 67.756899 
L 206.552073 67.475276 
L 210.056722 67.485706 
L 213.554417 67.607396 
L 217.034729 67.840343 
L 220.501133 68.198457 
L 223.950152 68.67826 
L 227.374834 69.290183 
L 230.771701 70.04118 
L 234.144231 70.934726 
L 237.481991 71.974299 
L 240.781507 73.1599 
L 244.032347 74.484574 
L 247.227558 75.951798 
L 250.353232 77.551142 
L 253.40937 79.282605 
L 256.38554 81.142712 
L 259.267836 83.131461 
L 262.05278 85.238423 
L 264.729942 87.467073 
L 267.295846 89.806983 
L 269.764398 92.247721 
L 274.461602 97.365621 
L 278.950195 102.692131 
L 287.809169 113.470317 
L 292.395113 118.702953 
L 311.003131 139.372733 
L 315.363081 144.820933 
L 319.48313 150.460358 
L 323.321555 156.287532 
L 326.829681 162.305933 
L 328.446409 165.386408 
L 329.962308 168.515559 
L 332.677716 174.912934 
L 334.975904 181.480674 
L 336.860348 188.194441 
L 338.341479 195.033374 
L 339.419298 201.973136 
L 339.808703 205.474308 
L 340.08685 208.989388 
L 340.250261 212.507944 
L 340.28503 216.0265 
L 340.184201 219.534626 
L 339.937346 223.025368 
L 339.534033 226.491772 
L 338.963833 229.926884 
L 338.223267 233.327228 
L 337.294952 236.678896 
L 336.175411 239.974935 
L 334.871598 243.211868 
L 333.383513 246.379264 
L 331.721587 249.466693 
L 329.892772 252.467201 
L 327.900546 255.373835 
L 325.755339 258.17964 
L 323.457151 260.87071 
L 321.01989 263.447044 
L 318.443556 265.891259 
L 315.738579 268.203353 
L 312.91539 270.365944 
L 309.980941 272.372078 
L 306.945665 274.207846 
L 303.819991 275.866296 
L 300.610873 277.33352 
L 297.335695 278.602565 
L 293.994457 279.659523 
L 290.60802 280.493963 
L 287.176385 281.095455 
L 283.713458 281.457046 
L 280.22967 281.585689 
L 276.738928 281.491814 
L 273.24471 281.182376 
L 269.760922 280.674758 
L 266.297995 279.972438 
L 262.869836 279.092799 
L 259.479922 278.039318 
L 256.142161 276.825903 
L 252.866983 275.462983 
L 249.664819 273.957514 
L 246.542622 272.316448 
L 243.507345 270.536309 
L 240.565944 268.617097 
L 237.72537 266.562288 
L 234.996055 264.375359 
L 232.381475 262.049357 
L 229.888585 259.591235 
L 227.524338 257.000993 
L 225.299164 254.278632 
L 223.21654 251.427628 
L 221.290374 248.454934 
L 219.527619 245.377936 
L 217.942182 242.203586 
L 216.544495 238.949269 
L 215.344987 235.621939 
L 214.350613 232.238979 
L 213.578755 228.81082 
L 213.032892 225.344416 
L 212.730408 221.860628 
L 212.674778 218.36641 
L 212.862527 214.872191 
L 213.283224 211.395357 
L 213.929916 207.939384 
L 214.795647 204.521655 
L 215.869989 201.152603 
L 217.142511 197.83918 
L 218.609735 194.59877 
L 220.261231 191.441805 
L 222.090046 188.375237 
L 224.082272 185.416451 
L 226.234432 182.5724 
L 228.539574 179.856993 
L 230.983788 177.280658 
L 233.563599 174.853828 
L 236.268576 172.590409 
L 239.088289 170.500831 
L 242.01926 168.595526 
L 245.047583 166.884924 
L 248.16978 165.386408 
L 248.16978 165.386408 
" style="fill:none;stroke:#fea952;stroke-linecap:square;"/>
   </g>
   <g id="line2d_14">
    <path clip-path="url(#p3a51c8253a)" d="M 118.668019 170.268065 
L 118.204001 156.331817 
L 118.133374 148.967381 
L 118.28376 141.380325 
L 118.748839 133.638471 
L 119.130373 129.715395 
L 119.628815 125.785976 
L 120.258037 121.828605 
L 121.029506 117.876745 
L 121.960674 113.90983 
L 123.067697 109.948638 
L 124.361936 106.012503 
L 125.858557 102.105776 
L 127.572614 98.236852 
L 129.515374 94.426989 
L 131.676602 90.723025 
L 134.040577 87.1475 
L 136.595978 83.70957 
L 139.352087 80.394557 
L 142.283419 77.243483 
L 145.403867 74.240374 
L 148.683671 71.426598 
L 152.131512 68.795643 
L 155.758666 66.353402 
L 159.504154 64.155253 
L 163.347156 62.203113 
L 167.252777 60.500127 
L 171.169894 59.043142 
L 175.140198 57.788305 
L 179.097937 56.74284 
L 183.068254 55.872258 
L 187.030017 55.165607 
L 190.960927 54.608962 
L 194.88016 54.180093 
L 202.679455 53.662933 
L 206.593464 53.568 
L 210.540283 53.586778 
L 214.4832 53.731107 
L 218.463888 54.006633 
L 222.41737 54.423768 
L 226.396375 54.987752 
L 230.377041 55.710758 
L 234.333533 56.597691 
L 238.279839 57.656519 
L 242.184863 58.88625 
L 246.029577 60.280778 
L 249.835901 61.84603 
L 253.562522 63.571076 
L 257.208682 65.450859 
L 260.780244 67.489207 
L 264.283775 69.695794 
L 267.658689 72.040581 
L 270.950578 74.54996 
L 274.100959 77.190981 
L 277.073945 79.917452 
L 279.879851 82.703526 
L 285.029657 88.325143 
L 289.724362 93.898306 
L 298.338933 104.38527 
L 302.697025 109.360328 
L 319.356274 127.720655 
L 324.158045 133.496676 
L 328.781414 139.544623 
L 333.153081 145.850839 
L 337.24088 152.450627 
L 339.144066 155.842965 
L 340.962412 159.3231 
L 342.677296 162.881456 
L 344.256019 166.461222 
L 345.731838 170.116691 
L 347.073658 173.788131 
L 348.305465 177.513708 
L 349.417193 181.273036 
L 350.405211 185.039968 
L 351.28927 188.865501 
L 352.05245 192.704576 
L 352.700452 196.552999 
L 353.241407 200.435821 
L 353.672704 204.377256 
L 353.979213 208.344189 
L 354.15692 212.370526 
L 354.186626 216.426051 
L 354.056894 220.515663 
L 353.751496 224.632631 
L 353.253645 228.769116 
L 352.552624 232.886406 
L 351.62602 237.039401 
L 350.463394 241.151722 
L 349.07559 245.171033 
L 347.458973 249.125585 
L 345.629408 252.971086 
L 343.59696 256.704754 
L 341.3642 260.329795 
L 338.948725 263.820832 
L 336.330956 267.211271 
L 333.560025 270.428219 
L 330.59176 273.536312 
L 327.479775 276.462956 
L 324.195674 279.243805 
L 320.76425 281.846773 
L 317.178259 284.272189 
L 313.464036 286.492995 
L 309.60275 288.514369 
L 305.635588 290.301414 
L 301.530233 291.862274 
L 297.321793 293.162962 
L 293.009075 294.192465 
L 288.620704 294.927591 
L 284.226652 295.354911 
L 279.855803 295.488 
L 275.512134 295.344937 
L 271.239466 294.94439 
L 266.996635 294.304606 
L 262.841454 293.443383 
L 258.742571 292.373601 
L 254.72828 291.109739 
L 250.798993 289.665863 
L 246.949888 288.04877 
L 243.194307 286.267937 
L 239.506942 284.312833 
L 235.907695 282.183599 
L 232.414771 279.8853 
L 229.029097 277.415346 
L 225.752235 274.76602 
L 222.616802 271.952144 
L 219.616726 268.966891 
L 216.756365 265.802401 
L 214.068998 262.482131 
L 211.545118 258.990163 
L 209.222983 255.368118 
L 207.085794 251.592035 
L 205.163563 247.691839 
L 203.461349 243.665764 
L 202.002113 239.543894 
L 200.782921 235.293774 
L 199.84071 230.974183 
L 199.177683 226.547414 
L 198.824832 222.082011 
L 198.787473 217.620226 
L 199.055894 213.201589 
L 199.613156 208.837376 
L 200.448369 204.524424 
L 201.545683 200.296435 
L 202.887181 196.166551 
L 204.473371 192.102724 
L 206.286725 188.152262 
L 208.316711 184.318429 
L 210.554018 180.607735 
L 212.992296 177.024403 
L 215.632193 173.572036 
L 218.450305 170.285122 
L 221.454745 167.150931 
L 224.638781 164.187917 
L 227.98824 161.416776 
L 231.508466 158.840629 
L 235.179261 156.486503 
L 239.0299 154.34692 
L 242.152097 152.848405 
L 242.152097 152.848405 
" style="fill:none;stroke:#ffffff;stroke-linecap:square;"/>
   </g>
   <g id="line2d_15">
    <path clip-path="url(#p3a51c8253a)" d="M 146.462058 169.196837 
L 146.015145 155.888611 
L 145.946699 149.241404 
L 146.067506 142.691652 
L 146.436867 136.289743 
L 147.107558 130.095828 
L 148.126745 124.153351 
L 148.77406 121.305671 
L 149.523666 118.535712 
L 150.378111 115.851954 
L 151.343088 113.250047 
L 152.417452 110.742457 
L 153.610797 108.321833 
L 154.954218 105.94829 
L 156.442576 103.634057 
L 158.073283 101.383887 
L 159.809244 99.240269 
L 161.675943 97.183046 
L 163.624719 95.256004 
L 165.67838 93.44559 
L 167.807381 91.772224 
L 169.979586 90.257828 
L 172.242068 88.881791 
L 174.594785 87.642197 
L 177.058725 86.528947 
L 179.657195 85.531287 
L 182.327645 84.658302 
L 185.128872 83.895813 
L 188.014872 83.243541 
L 190.978963 82.698532 
L 197.126556 81.903907 
L 203.394532 81.468414 
L 209.573161 81.384634 
L 215.605569 81.674054 
L 221.503929 82.368769 
L 224.372627 82.869609 
L 227.20987 83.484668 
L 230.008622 84.212933 
L 232.77912 85.062349 
L 235.533437 86.039022 
L 238.228794 87.123118 
L 240.892595 88.33252 
L 243.497782 89.651424 
L 246.038496 91.076004 
L 248.487305 92.589629 
L 250.876982 94.222341 
L 253.154982 95.926885 
L 255.358926 97.743166 
L 257.517747 99.696513 
L 261.77153 104.033856 
L 266.024063 108.894258 
L 279.695453 125.353055 
L 286.865929 133.274776 
L 296.002882 143.275633 
L 300.234507 148.173346 
L 304.230568 153.156471 
L 307.9694 158.260875 
L 311.412044 163.469286 
L 314.515295 168.7689 
L 317.24732 174.149662 
L 319.623594 179.709177 
L 321.646342 185.44764 
L 323.315484 191.348914 
L 324.630508 197.362173 
L 325.597189 203.510451 
L 326.194487 209.634586 
L 326.383433 215.62695 
L 326.311509 218.553589 
L 326.123196 221.418105 
L 325.814422 224.214427 
L 325.375041 226.967362 
L 324.820513 229.615055 
L 324.12651 232.206071 
L 323.275233 234.778838 
L 322.284224 237.298151 
L 321.137619 239.787443 
L 319.846213 242.228632 
L 318.421344 244.604608 
L 316.852366 246.926837 
L 315.179722 249.148009 
L 313.354278 251.313201 
L 311.44802 253.357776 
L 309.407337 255.319562 
L 307.281484 257.162901 
L 305.066529 258.885116 
L 302.783623 260.471967 
L 300.427294 261.922698 
L 298.037232 263.218224 
L 295.586158 264.365626 
L 293.141156 265.342856 
L 290.667121 266.156083 
L 288.206966 266.79546 
L 285.732065 267.26332 
L 283.200263 267.55918 
L 280.603537 267.683378 
L 277.965722 267.638691 
L 275.249953 267.420362 
L 272.525208 267.04491 
L 269.754535 266.501493 
L 266.997101 265.811996 
L 264.231565 264.968896 
L 261.48533 263.985942 
L 258.784079 262.877197 
L 256.135331 261.647091 
L 253.578302 260.320064 
L 251.106995 258.88902 
L 248.717117 257.348893 
L 246.421642 255.709229 
L 244.239874 253.984698 
L 242.146149 252.146569 
L 240.160445 250.215578 
L 238.292311 248.199585 
L 236.52933 246.075132 
L 234.887962 243.865092 
L 233.357765 241.541751 
L 231.969444 239.163837 
L 230.720802 236.715333 
L 229.627641 234.232774 
L 228.687862 231.699984 
L 227.918304 229.184184 
L 227.316801 226.647457 
L 226.888102 224.141419 
L 226.635983 221.639246 
L 226.562084 219.112593 
L 226.669161 216.542794 
L 226.953293 213.953338 
L 227.411462 211.354343 
L 228.045611 208.746876 
L 228.852798 206.138655 
L 229.81165 203.575636 
L 230.932744 201.045278 
L 232.205751 198.56518 
L 233.626074 196.142739 
L 235.172248 193.808498 
L 236.836672 191.572765 
L 238.628842 189.428863 
L 240.512831 187.410386 
L 242.488417 185.519739 
L 244.548913 183.764041 
L 246.668112 182.161034 
L 248.85926 180.704549 
L 251.065266 179.422927 
L 254.187463 177.924411 
L 254.187463 177.924411 
" style="fill:none;stroke:#ffffff;stroke-linecap:square;"/>
   </g>
   <g id="patch_3">
    <path d="M 57.6 307.584 
L 57.6 41.472 
" style="fill:none;stroke:#000000;stroke-linecap:square;stroke-linejoin:miter;stroke-width:0.8;"/>
   </g>
   <g id="patch_4">
    <path d="M 414.72 307.584 
L 414.72 41.472 
" style="fill:none;stroke:#000000;stroke-linecap:square;stroke-linejoin:miter;stroke-width:0.8;"/>
   </g>
   <g id="patch_5">
    <path d="M 57.6 307.584 
L 414.72 307.584 
" style="fill:none;stroke:#000000;stroke-linecap:square;stroke-linejoin:miter;stroke-width:0.8;"/>
   </g>
   <g id="patch_6">
    <path d="M 57.6 41.472 
L 414.72 41.472 
" style="fill:none;stroke:#000000;stroke-linecap:square;stroke-linejoin:miter;stroke-width:0.8;"/>
   </g>
  </g>
 </g>
 <defs>
  <clipPath id="p3a51c8253a">
   <rect height="266.112" width="357.12" x="57.6" y="41.472"/>
  </clipPath>
 </defs>
</svg>
