<?xml version="1.0" encoding="utf-8" standalone="no"?>
<!DOCTYPE svg PUBLIC "-//W3C//DTD SVG 1.1//EN"
  "http://www.w3.org/Graphics/SVG/1.1/DTD/svg11.dtd">
<!-- Created with matplotlib (https://matplotlib.org/) -->
<svg height="345.6pt" version="1.1" viewBox="0 0 460.8 345.6" width="460.8pt" xmlns="http://www.w3.org/2000/svg" xmlns:xlink="http://www.w3.org/1999/xlink">
 <metadata>
  <rdf:RDF xmlns:cc="http://creativecommons.org/ns#" xmlns:dc="http://purl.org/dc/elements/1.1/" xmlns:rdf="http://www.w3.org/1999/02/22-rdf-syntax-ns#">
   <cc:Work>
    <dc:type rdf:resource="http://purl.org/dc/dcmitype/StillImage"/>
    <dc:date>2021-01-22T09:45:34.677851</dc:date>
    <dc:format>image/svg+xml</dc:format>
    <dc:creator>
     <cc:Agent>
      <dc:title>Matplotlib v3.3.3, https://matplotlib.org/</dc:title>
     </cc:Agent>
    </dc:creator>
   </cc:Work>
  </rdf:RDF>
 </metadata>
 <defs>
  <style type="text/css">*{stroke-linecap:butt;stroke-linejoin:round;}</style>
 </defs>
 <g id="figure_1">
  <g id="patch_1">
   <path d="M 0 345.6 
L 460.8 345.6 
L 460.8 0 
L 0 0 
z
" style="fill:#ffffff;"/>
  </g>
  <g id="axes_1">
   <g id="patch_2">
    <path d="M 57.6 307.584 
L 414.72 307.584 
L 414.72 41.472 
L 57.6 41.472 
z
" style="fill:#7d9051;"/>
   </g>
   <g id="matplotlib.axis_1">
    <g id="xtick_1">
     <g id="line2d_1">
      <defs>
       <path d="M 0 0 
L 0 3.5 
" id="m4684b7d8d2" style="stroke:#000000;stroke-width:0.8;"/>
      </defs>
      <g>
       <use style="stroke:#000000;stroke-width:0.8;" x="88.748576" xlink:href="#m4684b7d8d2" y="307.584"/>
      </g>
     </g>
     <g id="text_1">
      <!-- 0 -->
      <g transform="translate(85.567326 322.182437)scale(0.1 -0.1)">
       <defs>
        <path d="M 31.78125 66.40625 
Q 24.171875 66.40625 20.328125 58.90625 
Q 16.5 51.421875 16.5 36.375 
Q 16.5 21.390625 20.328125 13.890625 
Q 24.171875 6.390625 31.78125 6.390625 
Q 39.453125 6.390625 43.28125 13.890625 
Q 47.125 21.390625 47.125 36.375 
Q 47.125 51.421875 43.28125 58.90625 
Q 39.453125 66.40625 31.78125 66.40625 
z
M 31.78125 74.21875 
Q 44.046875 74.21875 50.515625 64.515625 
Q 56.984375 54.828125 56.984375 36.375 
Q 56.984375 17.96875 50.515625 8.265625 
Q 44.046875 -1.421875 31.78125 -1.421875 
Q 19.53125 -1.421875 13.0625 8.265625 
Q 6.59375 17.96875 6.59375 36.375 
Q 6.59375 54.828125 13.0625 64.515625 
Q 19.53125 74.21875 31.78125 74.21875 
z
" id="DejaVuSans-48"/>
       </defs>
       <use xlink:href="#DejaVuSans-48"/>
      </g>
     </g>
    </g>
    <g id="xtick_2">
     <g id="line2d_2">
      <g>
       <use style="stroke:#000000;stroke-width:0.8;" x="132.176473" xlink:href="#m4684b7d8d2" y="307.584"/>
      </g>
     </g>
     <g id="text_2">
      <!-- 20 -->
      <g transform="translate(125.813973 322.182437)scale(0.1 -0.1)">
       <defs>
        <path d="M 19.1875 8.296875 
L 53.609375 8.296875 
L 53.609375 0 
L 7.328125 0 
L 7.328125 8.296875 
Q 12.9375 14.109375 22.625 23.890625 
Q 32.328125 33.6875 34.8125 36.53125 
Q 39.546875 41.84375 41.421875 45.53125 
Q 43.3125 49.21875 43.3125 52.78125 
Q 43.3125 58.59375 39.234375 62.25 
Q 35.15625 65.921875 28.609375 65.921875 
Q 23.96875 65.921875 18.8125 64.3125 
Q 13.671875 62.703125 7.8125 59.421875 
L 7.8125 69.390625 
Q 13.765625 71.78125 18.9375 73 
Q 24.125 74.21875 28.421875 74.21875 
Q 39.75 74.21875 46.484375 68.546875 
Q 53.21875 62.890625 53.21875 53.421875 
Q 53.21875 48.921875 51.53125 44.890625 
Q 49.859375 40.875 45.40625 35.40625 
Q 44.1875 33.984375 37.640625 27.21875 
Q 31.109375 20.453125 19.1875 8.296875 
z
" id="DejaVuSans-50"/>
       </defs>
       <use xlink:href="#DejaVuSans-50"/>
       <use x="63.623047" xlink:href="#DejaVuSans-48"/>
      </g>
     </g>
    </g>
    <g id="xtick_3">
     <g id="line2d_3">
      <g>
       <use style="stroke:#000000;stroke-width:0.8;" x="175.60437" xlink:href="#m4684b7d8d2" y="307.584"/>
      </g>
     </g>
     <g id="text_3">
      <!-- 40 -->
      <g transform="translate(169.24187 322.182437)scale(0.1 -0.1)">
       <defs>
        <path d="M 37.796875 64.3125 
L 12.890625 25.390625 
L 37.796875 25.390625 
z
M 35.203125 72.90625 
L 47.609375 72.90625 
L 47.609375 25.390625 
L 58.015625 25.390625 
L 58.015625 17.1875 
L 47.609375 17.1875 
L 47.609375 0 
L 37.796875 0 
L 37.796875 17.1875 
L 4.890625 17.1875 
L 4.890625 26.703125 
z
" id="DejaVuSans-52"/>
       </defs>
       <use xlink:href="#DejaVuSans-52"/>
       <use x="63.623047" xlink:href="#DejaVuSans-48"/>
      </g>
     </g>
    </g>
    <g id="xtick_4">
     <g id="line2d_4">
      <g>
       <use style="stroke:#000000;stroke-width:0.8;" x="219.032268" xlink:href="#m4684b7d8d2" y="307.584"/>
      </g>
     </g>
     <g id="text_4">
      <!-- 60 -->
      <g transform="translate(212.669768 322.182437)scale(0.1 -0.1)">
       <defs>
        <path d="M 33.015625 40.375 
Q 26.375 40.375 22.484375 35.828125 
Q 18.609375 31.296875 18.609375 23.390625 
Q 18.609375 15.53125 22.484375 10.953125 
Q 26.375 6.390625 33.015625 6.390625 
Q 39.65625 6.390625 43.53125 10.953125 
Q 47.40625 15.53125 47.40625 23.390625 
Q 47.40625 31.296875 43.53125 35.828125 
Q 39.65625 40.375 33.015625 40.375 
z
M 52.59375 71.296875 
L 52.59375 62.3125 
Q 48.875 64.0625 45.09375 64.984375 
Q 41.3125 65.921875 37.59375 65.921875 
Q 27.828125 65.921875 22.671875 59.328125 
Q 17.53125 52.734375 16.796875 39.40625 
Q 19.671875 43.65625 24.015625 45.921875 
Q 28.375 48.1875 33.59375 48.1875 
Q 44.578125 48.1875 50.953125 41.515625 
Q 57.328125 34.859375 57.328125 23.390625 
Q 57.328125 12.15625 50.6875 5.359375 
Q 44.046875 -1.421875 33.015625 -1.421875 
Q 20.359375 -1.421875 13.671875 8.265625 
Q 6.984375 17.96875 6.984375 36.375 
Q 6.984375 53.65625 15.1875 63.9375 
Q 23.390625 74.21875 37.203125 74.21875 
Q 40.921875 74.21875 44.703125 73.484375 
Q 48.484375 72.75 52.59375 71.296875 
z
" id="DejaVuSans-54"/>
       </defs>
       <use xlink:href="#DejaVuSans-54"/>
       <use x="63.623047" xlink:href="#DejaVuSans-48"/>
      </g>
     </g>
    </g>
    <g id="xtick_5">
     <g id="line2d_5">
      <g>
       <use style="stroke:#000000;stroke-width:0.8;" x="262.460165" xlink:href="#m4684b7d8d2" y="307.584"/>
      </g>
     </g>
     <g id="text_5">
      <!-- 80 -->
      <g transform="translate(256.097665 322.182437)scale(0.1 -0.1)">
       <defs>
        <path d="M 31.78125 34.625 
Q 24.75 34.625 20.71875 30.859375 
Q 16.703125 27.09375 16.703125 20.515625 
Q 16.703125 13.921875 20.71875 10.15625 
Q 24.75 6.390625 31.78125 6.390625 
Q 38.8125 6.390625 42.859375 10.171875 
Q 46.921875 13.96875 46.921875 20.515625 
Q 46.921875 27.09375 42.890625 30.859375 
Q 38.875 34.625 31.78125 34.625 
z
M 21.921875 38.8125 
Q 15.578125 40.375 12.03125 44.71875 
Q 8.5 49.078125 8.5 55.328125 
Q 8.5 64.0625 14.71875 69.140625 
Q 20.953125 74.21875 31.78125 74.21875 
Q 42.671875 74.21875 48.875 69.140625 
Q 55.078125 64.0625 55.078125 55.328125 
Q 55.078125 49.078125 51.53125 44.71875 
Q 48 40.375 41.703125 38.8125 
Q 48.828125 37.15625 52.796875 32.3125 
Q 56.78125 27.484375 56.78125 20.515625 
Q 56.78125 9.90625 50.3125 4.234375 
Q 43.84375 -1.421875 31.78125 -1.421875 
Q 19.734375 -1.421875 13.25 4.234375 
Q 6.78125 9.90625 6.78125 20.515625 
Q 6.78125 27.484375 10.78125 32.3125 
Q 14.796875 37.15625 21.921875 38.8125 
z
M 18.3125 54.390625 
Q 18.3125 48.734375 21.84375 45.5625 
Q 25.390625 42.390625 31.78125 42.390625 
Q 38.140625 42.390625 41.71875 45.5625 
Q 45.3125 48.734375 45.3125 54.390625 
Q 45.3125 60.0625 41.71875 63.234375 
Q 38.140625 66.40625 31.78125 66.40625 
Q 25.390625 66.40625 21.84375 63.234375 
Q 18.3125 60.0625 18.3125 54.390625 
z
" id="DejaVuSans-56"/>
       </defs>
       <use xlink:href="#DejaVuSans-56"/>
       <use x="63.623047" xlink:href="#DejaVuSans-48"/>
      </g>
     </g>
    </g>
    <g id="xtick_6">
     <g id="line2d_6">
      <g>
       <use style="stroke:#000000;stroke-width:0.8;" x="305.888062" xlink:href="#m4684b7d8d2" y="307.584"/>
      </g>
     </g>
     <g id="text_6">
      <!-- 100 -->
      <g transform="translate(296.344312 322.182437)scale(0.1 -0.1)">
       <defs>
        <path d="M 12.40625 8.296875 
L 28.515625 8.296875 
L 28.515625 63.921875 
L 10.984375 60.40625 
L 10.984375 69.390625 
L 28.421875 72.90625 
L 38.28125 72.90625 
L 38.28125 8.296875 
L 54.390625 8.296875 
L 54.390625 0 
L 12.40625 0 
z
" id="DejaVuSans-49"/>
       </defs>
       <use xlink:href="#DejaVuSans-49"/>
       <use x="63.623047" xlink:href="#DejaVuSans-48"/>
       <use x="127.246094" xlink:href="#DejaVuSans-48"/>
      </g>
     </g>
    </g>
    <g id="xtick_7">
     <g id="line2d_7">
      <g>
       <use style="stroke:#000000;stroke-width:0.8;" x="349.31596" xlink:href="#m4684b7d8d2" y="307.584"/>
      </g>
     </g>
     <g id="text_7">
      <!-- 120 -->
      <g transform="translate(339.77221 322.182437)scale(0.1 -0.1)">
       <use xlink:href="#DejaVuSans-49"/>
       <use x="63.623047" xlink:href="#DejaVuSans-50"/>
       <use x="127.246094" xlink:href="#DejaVuSans-48"/>
      </g>
     </g>
    </g>
    <g id="xtick_8">
     <g id="line2d_8">
      <g>
       <use style="stroke:#000000;stroke-width:0.8;" x="392.743857" xlink:href="#m4684b7d8d2" y="307.584"/>
      </g>
     </g>
     <g id="text_8">
      <!-- 140 -->
      <g transform="translate(383.200107 322.182437)scale(0.1 -0.1)">
       <use xlink:href="#DejaVuSans-49"/>
       <use x="63.623047" xlink:href="#DejaVuSans-52"/>
       <use x="127.246094" xlink:href="#DejaVuSans-48"/>
      </g>
     </g>
    </g>
   </g>
   <g id="matplotlib.axis_2">
    <g id="ytick_1">
     <g id="line2d_9">
      <defs>
       <path d="M 0 0 
L -3.5 0 
" id="m2e08d95daa" style="stroke:#000000;stroke-width:0.8;"/>
      </defs>
      <g>
       <use style="stroke:#000000;stroke-width:0.8;" x="57.6" xlink:href="#m2e08d95daa" y="272.662819"/>
      </g>
     </g>
     <g id="text_9">
      <!-- 20 -->
      <g transform="translate(37.875 276.462038)scale(0.1 -0.1)">
       <use xlink:href="#DejaVuSans-50"/>
       <use x="63.623047" xlink:href="#DejaVuSans-48"/>
      </g>
     </g>
    </g>
    <g id="ytick_2">
     <g id="line2d_10">
      <g>
       <use style="stroke:#000000;stroke-width:0.8;" x="57.6" xlink:href="#m2e08d95daa" y="229.234922"/>
      </g>
     </g>
     <g id="text_10">
      <!-- 40 -->
      <g transform="translate(37.875 233.034141)scale(0.1 -0.1)">
       <use xlink:href="#DejaVuSans-52"/>
       <use x="63.623047" xlink:href="#DejaVuSans-48"/>
      </g>
     </g>
    </g>
    <g id="ytick_3">
     <g id="line2d_11">
      <g>
       <use style="stroke:#000000;stroke-width:0.8;" x="57.6" xlink:href="#m2e08d95daa" y="185.807025"/>
      </g>
     </g>
     <g id="text_11">
      <!-- 60 -->
      <g transform="translate(37.875 189.606244)scale(0.1 -0.1)">
       <use xlink:href="#DejaVuSans-54"/>
       <use x="63.623047" xlink:href="#DejaVuSans-48"/>
      </g>
     </g>
    </g>
    <g id="ytick_4">
     <g id="line2d_12">
      <g>
       <use style="stroke:#000000;stroke-width:0.8;" x="57.6" xlink:href="#m2e08d95daa" y="142.379127"/>
      </g>
     </g>
     <g id="text_12">
      <!-- 80 -->
      <g transform="translate(37.875 146.178346)scale(0.1 -0.1)">
       <use xlink:href="#DejaVuSans-56"/>
       <use x="63.623047" xlink:href="#DejaVuSans-48"/>
      </g>
     </g>
    </g>
    <g id="ytick_5">
     <g id="line2d_13">
      <g>
       <use style="stroke:#000000;stroke-width:0.8;" x="57.6" xlink:href="#m2e08d95daa" y="98.95123"/>
      </g>
     </g>
     <g id="text_13">
      <!-- 100 -->
      <g transform="translate(31.5125 102.750449)scale(0.1 -0.1)">
       <use xlink:href="#DejaVuSans-49"/>
       <use x="63.623047" xlink:href="#DejaVuSans-48"/>
       <use x="127.246094" xlink:href="#DejaVuSans-48"/>
      </g>
     </g>
    </g>
    <g id="ytick_6">
     <g id="line2d_14">
      <g>
       <use style="stroke:#000000;stroke-width:0.8;" x="57.6" xlink:href="#m2e08d95daa" y="55.523333"/>
      </g>
     </g>
     <g id="text_14">
      <!-- 120 -->
      <g transform="translate(31.5125 59.322552)scale(0.1 -0.1)">
       <use xlink:href="#DejaVuSans-49"/>
       <use x="63.623047" xlink:href="#DejaVuSans-50"/>
       <use x="127.246094" xlink:href="#DejaVuSans-48"/>
      </g>
     </g>
    </g>
   </g>
   <g id="line2d_15">
    <path clip-path="url(#pceed4c0a3b)" d="M 111.645934 294.376768 
L 112.123641 290.033978 
L 112.301696 285.689017 
L 112.243068 281.346228 
L 111.845703 274.834214 
L 110.482067 257.480427 
L 110.412582 253.148494 
L 110.577608 248.816561 
L 110.990173 244.495485 
L 111.626392 240.189609 
L 112.458036 235.90979 
L 113.456878 231.664713 
L 115.204851 225.382868 
L 117.19602 219.190049 
L 120.127403 211.008234 
L 123.295468 202.865503 
L 125.02607 198.857108 
L 126.919526 194.944254 
L 129.023608 191.161685 
L 131.388257 187.550655 
L 134.002616 184.106823 
L 136.805887 180.791103 
L 141.224675 175.959749 
L 148.646503 167.96033 
L 152.915465 163.033435 
L 155.636223 159.656916 
L 158.228869 156.187027 
L 161.883326 150.801968 
L 166.673423 143.547338 
L 169.200927 140.014478 
L 171.917342 136.614074 
L 174.853068 133.387381 
L 177.992905 130.351771 
L 181.321653 127.526787 
L 184.821941 124.929798 
L 188.47857 122.580349 
L 192.269826 120.46541 
L 196.163137 118.53504 
L 202.13013 115.885939 
L 228.152126 104.907366 
L 234.032263 102.073696 
L 239.795145 99.018543 
L 243.547316 96.836292 
L 247.210459 94.525927 
L 252.562947 90.838899 
L 259.548324 85.666636 
L 268.318588 79.15028 
L 271.91659 76.679233 
L 275.603618 74.379726 
L 279.40573 72.314729 
L 283.344641 70.545042 
L 287.420349 69.075008 
L 291.595941 67.856856 
L 295.84319 66.834129 
L 302.270518 65.550834 
L 310.836671 64.113371 
L 317.283542 63.249156 
L 323.78687 62.61728 
L 328.166574 62.348027 
L 332.557134 62.252485 
L 336.92598 62.387112 
L 341.244885 62.808363 
L 345.479105 63.568351 
L 347.554958 64.093828 
L 349.598241 64.725704 
L 351.60461 65.470493 
L 353.569722 66.334708 
L 355.489235 67.324864 
L 357.360978 68.451818 
L 359.180606 69.717741 
L 360.943779 71.131319 
L 362.643981 72.699066 
L 364.281213 74.429668 
L 364.281213 74.429668 
" style="fill:none;stroke:#fea952;stroke-linecap:square;"/>
   </g>
   <g id="line2d_16">
    <path clip-path="url(#pceed4c0a3b)" d="M 103.031734 293.265536 
L 103.452109 289.540195 
L 103.616121 285.697703 
L 103.566663 281.745342 
L 103.190605 275.561243 
L 101.799664 257.715321 
L 101.729308 252.948378 
L 101.920609 248.112528 
L 102.382612 243.333941 
L 103.082995 238.624473 
L 103.985227 233.999085 
L 105.055145 229.462401 
L 106.906937 222.816951 
L 108.985277 216.35756 
L 112.001968 207.939585 
L 115.288259 199.500404 
L 117.159554 195.175094 
L 119.26181 190.845636 
L 121.669067 186.541076 
L 124.390833 182.405234 
L 127.310265 178.570423 
L 130.331902 175.000868 
L 134.900343 170.006421 
L 142.147654 162.198017 
L 146.203281 157.521097 
L 149.94029 152.806217 
L 152.27445 149.550883 
L 157.009367 142.378931 
L 160.910226 136.634976 
L 163.829831 132.770213 
L 167.030249 129.028369 
L 170.463851 125.502219 
L 174.127854 122.193093 
L 177.993217 119.137763 
L 182.056108 116.342777 
L 186.2334 113.853609 
L 190.431645 111.656263 
L 194.622812 109.683251 
L 200.83163 107.01297 
L 220.656145 98.757778 
L 226.352078 96.159555 
L 231.902084 93.409018 
L 237.249606 90.472984 
L 242.382533 87.305787 
L 247.462088 83.808925 
L 254.323145 78.728568 
L 263.336577 72.035588 
L 267.225495 69.36945 
L 271.327233 66.819843 
L 275.686427 64.465776 
L 280.260587 62.425443 
L 284.8752 60.770701 
L 289.479216 59.433153 
L 294.040395 58.337705 
L 300.72899 57.003146 
L 309.592512 55.517363 
L 316.336775 54.615331 
L 323.175997 53.953209 
L 327.874642 53.667355 
L 332.694983 53.568 
L 337.61069 53.728563 
L 342.591874 54.227867 
L 345.096986 54.629583 
L 347.610526 55.148355 
L 350.121035 55.795965 
L 352.620894 56.583047 
L 355.101156 57.519804 
L 357.551522 58.615604 
L 359.969349 59.883905 
L 362.321253 61.321954 
L 364.613566 62.941146 
L 366.831647 64.746 
L 368.95346 66.729999 
L 370.590692 68.4606 
L 370.590692 68.4606 
" style="fill:none;stroke:#ffffff;stroke-linecap:square;"/>
   </g>
   <g id="line2d_17">
    <path clip-path="url(#pceed4c0a3b)" d="M 120.260135 295.488 
L 120.795173 290.527762 
L 120.987271 285.680332 
L 120.919473 280.947113 
L 120.500801 274.107186 
L 119.164469 257.245532 
L 119.095856 253.348609 
L 119.234607 249.520594 
L 119.597734 245.657029 
L 120.169789 241.754746 
L 120.930845 237.820495 
L 122.375008 231.892874 
L 124.113517 225.971757 
L 126.090132 220.040633 
L 129.011114 212.068847 
L 131.302677 206.230602 
L 132.892585 202.539122 
L 134.577242 199.042873 
L 136.378148 195.782293 
L 138.38568 192.696076 
L 140.694967 189.643222 
L 143.279871 186.581337 
L 147.549008 181.913077 
L 155.145352 173.722643 
L 159.62765 168.545773 
L 162.541609 164.925212 
L 165.342738 161.170215 
L 169.15656 155.549532 
L 174.925038 146.898612 
L 177.234153 143.819254 
L 179.688047 140.925315 
L 182.334351 138.18482 
L 185.141104 135.626837 
L 188.111292 133.258022 
L 191.209661 131.106572 
L 194.484597 129.140037 
L 197.977433 127.302932 
L 203.553785 124.72605 
L 211.456605 121.427193 
L 225.676205 115.520559 
L 231.837469 112.772322 
L 237.985778 109.807325 
L 244.097845 106.56348 
L 248.109116 104.227453 
L 252.038384 101.746068 
L 257.663806 97.868873 
L 264.773503 92.604705 
L 273.3006 86.264973 
L 276.607684 83.989016 
L 279.880003 81.939608 
L 283.125034 80.163683 
L 286.428695 78.664642 
L 289.965497 77.379315 
L 293.712666 76.280558 
L 297.645984 75.330553 
L 303.812047 74.098523 
L 312.08083 72.709379 
L 318.23031 71.88298 
L 324.397743 71.281351 
L 330.44776 70.959354 
L 334.348372 70.963705 
L 338.093012 71.186219 
L 341.65306 71.655932 
L 344.988881 72.391692 
L 348.108064 73.421182 
L 351.009122 74.765823 
L 353.747647 76.494336 
L 355.055911 77.516638 
L 356.334503 78.668134 
L 357.971734 80.398736 
L 357.971734 80.398736 
" style="fill:none;stroke:#ffffff;stroke-linecap:square;"/>
   </g>
   <g id="patch_3">
    <path d="M 57.6 307.584 
L 57.6 41.472 
" style="fill:none;stroke:#000000;stroke-linecap:square;stroke-linejoin:miter;stroke-width:0.8;"/>
   </g>
   <g id="patch_4">
    <path d="M 414.72 307.584 
L 414.72 41.472 
" style="fill:none;stroke:#000000;stroke-linecap:square;stroke-linejoin:miter;stroke-width:0.8;"/>
   </g>
   <g id="patch_5">
    <path d="M 57.6 307.584 
L 414.72 307.584 
" style="fill:none;stroke:#000000;stroke-linecap:square;stroke-linejoin:miter;stroke-width:0.8;"/>
   </g>
   <g id="patch_6">
    <path d="M 57.6 41.472 
L 414.72 41.472 
" style="fill:none;stroke:#000000;stroke-linecap:square;stroke-linejoin:miter;stroke-width:0.8;"/>
   </g>
  </g>
 </g>
 <defs>
  <clipPath id="pceed4c0a3b">
   <rect height="266.112" width="357.12" x="57.6" y="41.472"/>
  </clipPath>
 </defs>
</svg>
