<?xml version="1.0" encoding="utf-8" standalone="no"?>
<!DOCTYPE svg PUBLIC "-//W3C//DTD SVG 1.1//EN"
  "http://www.w3.org/Graphics/SVG/1.1/DTD/svg11.dtd">
<!-- Created with matplotlib (https://matplotlib.org/) -->
<svg height="345.6pt" version="1.1" viewBox="0 0 460.8 345.6" width="460.8pt" xmlns="http://www.w3.org/2000/svg" xmlns:xlink="http://www.w3.org/1999/xlink">
 <metadata>
  <rdf:RDF xmlns:cc="http://creativecommons.org/ns#" xmlns:dc="http://purl.org/dc/elements/1.1/" xmlns:rdf="http://www.w3.org/1999/02/22-rdf-syntax-ns#">
   <cc:Work>
    <dc:type rdf:resource="http://purl.org/dc/dcmitype/StillImage"/>
    <dc:date>2021-01-23T11:42:54.685592</dc:date>
    <dc:format>image/svg+xml</dc:format>
    <dc:creator>
     <cc:Agent>
      <dc:title>Matplotlib v3.3.3, https://matplotlib.org/</dc:title>
     </cc:Agent>
    </dc:creator>
   </cc:Work>
  </rdf:RDF>
 </metadata>
 <defs>
  <style type="text/css">*{stroke-linecap:butt;stroke-linejoin:round;}</style>
 </defs>
 <g id="figure_1">
  <g id="patch_1">
   <path d="M 0 345.6 
L 460.8 345.6 
L 460.8 0 
L 0 0 
z
" style="fill:#ffffff;"/>
  </g>
  <g id="axes_1">
   <g id="patch_2">
    <path d="M 57.6 307.584 
L 414.72 307.584 
L 414.72 41.472 
L 57.6 41.472 
z
" style="fill:#7d9051;"/>
   </g>
   <g id="matplotlib.axis_1">
    <g id="xtick_1">
     <g id="line2d_1">
      <defs>
       <path d="M 0 0 
L 0 3.5 
" id="m9099895efd" style="stroke:#000000;stroke-width:0.8;"/>
      </defs>
      <g>
       <use style="stroke:#000000;stroke-width:0.8;" x="57.64399" xlink:href="#m9099895efd" y="307.584"/>
      </g>
     </g>
     <g id="text_1">
      <!-- 0 -->
      <g transform="translate(54.46274 322.182437)scale(0.1 -0.1)">
       <defs>
        <path d="M 31.78125 66.40625 
Q 24.171875 66.40625 20.328125 58.90625 
Q 16.5 51.421875 16.5 36.375 
Q 16.5 21.390625 20.328125 13.890625 
Q 24.171875 6.390625 31.78125 6.390625 
Q 39.453125 6.390625 43.28125 13.890625 
Q 47.125 21.390625 47.125 36.375 
Q 47.125 51.421875 43.28125 58.90625 
Q 39.453125 66.40625 31.78125 66.40625 
z
M 31.78125 74.21875 
Q 44.046875 74.21875 50.515625 64.515625 
Q 56.984375 54.828125 56.984375 36.375 
Q 56.984375 17.96875 50.515625 8.265625 
Q 44.046875 -1.421875 31.78125 -1.421875 
Q 19.53125 -1.421875 13.0625 8.265625 
Q 6.59375 17.96875 6.59375 36.375 
Q 6.59375 54.828125 13.0625 64.515625 
Q 19.53125 74.21875 31.78125 74.21875 
z
" id="DejaVuSans-48"/>
       </defs>
       <use xlink:href="#DejaVuSans-48"/>
      </g>
     </g>
    </g>
    <g id="xtick_2">
     <g id="line2d_2">
      <g>
       <use style="stroke:#000000;stroke-width:0.8;" x="111.587836" xlink:href="#m9099895efd" y="307.584"/>
      </g>
     </g>
     <g id="text_2">
      <!-- 20 -->
      <g transform="translate(105.225336 322.182437)scale(0.1 -0.1)">
       <defs>
        <path d="M 19.1875 8.296875 
L 53.609375 8.296875 
L 53.609375 0 
L 7.328125 0 
L 7.328125 8.296875 
Q 12.9375 14.109375 22.625 23.890625 
Q 32.328125 33.6875 34.8125 36.53125 
Q 39.546875 41.84375 41.421875 45.53125 
Q 43.3125 49.21875 43.3125 52.78125 
Q 43.3125 58.59375 39.234375 62.25 
Q 35.15625 65.921875 28.609375 65.921875 
Q 23.96875 65.921875 18.8125 64.3125 
Q 13.671875 62.703125 7.8125 59.421875 
L 7.8125 69.390625 
Q 13.765625 71.78125 18.9375 73 
Q 24.125 74.21875 28.421875 74.21875 
Q 39.75 74.21875 46.484375 68.546875 
Q 53.21875 62.890625 53.21875 53.421875 
Q 53.21875 48.921875 51.53125 44.890625 
Q 49.859375 40.875 45.40625 35.40625 
Q 44.1875 33.984375 37.640625 27.21875 
Q 31.109375 20.453125 19.1875 8.296875 
z
" id="DejaVuSans-50"/>
       </defs>
       <use xlink:href="#DejaVuSans-50"/>
       <use x="63.623047" xlink:href="#DejaVuSans-48"/>
      </g>
     </g>
    </g>
    <g id="xtick_3">
     <g id="line2d_3">
      <g>
       <use style="stroke:#000000;stroke-width:0.8;" x="165.531682" xlink:href="#m9099895efd" y="307.584"/>
      </g>
     </g>
     <g id="text_3">
      <!-- 40 -->
      <g transform="translate(159.169182 322.182437)scale(0.1 -0.1)">
       <defs>
        <path d="M 37.796875 64.3125 
L 12.890625 25.390625 
L 37.796875 25.390625 
z
M 35.203125 72.90625 
L 47.609375 72.90625 
L 47.609375 25.390625 
L 58.015625 25.390625 
L 58.015625 17.1875 
L 47.609375 17.1875 
L 47.609375 0 
L 37.796875 0 
L 37.796875 17.1875 
L 4.890625 17.1875 
L 4.890625 26.703125 
z
" id="DejaVuSans-52"/>
       </defs>
       <use xlink:href="#DejaVuSans-52"/>
       <use x="63.623047" xlink:href="#DejaVuSans-48"/>
      </g>
     </g>
    </g>
    <g id="xtick_4">
     <g id="line2d_4">
      <g>
       <use style="stroke:#000000;stroke-width:0.8;" x="219.475528" xlink:href="#m9099895efd" y="307.584"/>
      </g>
     </g>
     <g id="text_4">
      <!-- 60 -->
      <g transform="translate(213.113028 322.182437)scale(0.1 -0.1)">
       <defs>
        <path d="M 33.015625 40.375 
Q 26.375 40.375 22.484375 35.828125 
Q 18.609375 31.296875 18.609375 23.390625 
Q 18.609375 15.53125 22.484375 10.953125 
Q 26.375 6.390625 33.015625 6.390625 
Q 39.65625 6.390625 43.53125 10.953125 
Q 47.40625 15.53125 47.40625 23.390625 
Q 47.40625 31.296875 43.53125 35.828125 
Q 39.65625 40.375 33.015625 40.375 
z
M 52.59375 71.296875 
L 52.59375 62.3125 
Q 48.875 64.0625 45.09375 64.984375 
Q 41.3125 65.921875 37.59375 65.921875 
Q 27.828125 65.921875 22.671875 59.328125 
Q 17.53125 52.734375 16.796875 39.40625 
Q 19.671875 43.65625 24.015625 45.921875 
Q 28.375 48.1875 33.59375 48.1875 
Q 44.578125 48.1875 50.953125 41.515625 
Q 57.328125 34.859375 57.328125 23.390625 
Q 57.328125 12.15625 50.6875 5.359375 
Q 44.046875 -1.421875 33.015625 -1.421875 
Q 20.359375 -1.421875 13.671875 8.265625 
Q 6.984375 17.96875 6.984375 36.375 
Q 6.984375 53.65625 15.1875 63.9375 
Q 23.390625 74.21875 37.203125 74.21875 
Q 40.921875 74.21875 44.703125 73.484375 
Q 48.484375 72.75 52.59375 71.296875 
z
" id="DejaVuSans-54"/>
       </defs>
       <use xlink:href="#DejaVuSans-54"/>
       <use x="63.623047" xlink:href="#DejaVuSans-48"/>
      </g>
     </g>
    </g>
    <g id="xtick_5">
     <g id="line2d_5">
      <g>
       <use style="stroke:#000000;stroke-width:0.8;" x="273.419374" xlink:href="#m9099895efd" y="307.584"/>
      </g>
     </g>
     <g id="text_5">
      <!-- 80 -->
      <g transform="translate(267.056874 322.182437)scale(0.1 -0.1)">
       <defs>
        <path d="M 31.78125 34.625 
Q 24.75 34.625 20.71875 30.859375 
Q 16.703125 27.09375 16.703125 20.515625 
Q 16.703125 13.921875 20.71875 10.15625 
Q 24.75 6.390625 31.78125 6.390625 
Q 38.8125 6.390625 42.859375 10.171875 
Q 46.921875 13.96875 46.921875 20.515625 
Q 46.921875 27.09375 42.890625 30.859375 
Q 38.875 34.625 31.78125 34.625 
z
M 21.921875 38.8125 
Q 15.578125 40.375 12.03125 44.71875 
Q 8.5 49.078125 8.5 55.328125 
Q 8.5 64.0625 14.71875 69.140625 
Q 20.953125 74.21875 31.78125 74.21875 
Q 42.671875 74.21875 48.875 69.140625 
Q 55.078125 64.0625 55.078125 55.328125 
Q 55.078125 49.078125 51.53125 44.71875 
Q 48 40.375 41.703125 38.8125 
Q 48.828125 37.15625 52.796875 32.3125 
Q 56.78125 27.484375 56.78125 20.515625 
Q 56.78125 9.90625 50.3125 4.234375 
Q 43.84375 -1.421875 31.78125 -1.421875 
Q 19.734375 -1.421875 13.25 4.234375 
Q 6.78125 9.90625 6.78125 20.515625 
Q 6.78125 27.484375 10.78125 32.3125 
Q 14.796875 37.15625 21.921875 38.8125 
z
M 18.3125 54.390625 
Q 18.3125 48.734375 21.84375 45.5625 
Q 25.390625 42.390625 31.78125 42.390625 
Q 38.140625 42.390625 41.71875 45.5625 
Q 45.3125 48.734375 45.3125 54.390625 
Q 45.3125 60.0625 41.71875 63.234375 
Q 38.140625 66.40625 31.78125 66.40625 
Q 25.390625 66.40625 21.84375 63.234375 
Q 18.3125 60.0625 18.3125 54.390625 
z
" id="DejaVuSans-56"/>
       </defs>
       <use xlink:href="#DejaVuSans-56"/>
       <use x="63.623047" xlink:href="#DejaVuSans-48"/>
      </g>
     </g>
    </g>
    <g id="xtick_6">
     <g id="line2d_6">
      <g>
       <use style="stroke:#000000;stroke-width:0.8;" x="327.36322" xlink:href="#m9099895efd" y="307.584"/>
      </g>
     </g>
     <g id="text_6">
      <!-- 100 -->
      <g transform="translate(317.81947 322.182437)scale(0.1 -0.1)">
       <defs>
        <path d="M 12.40625 8.296875 
L 28.515625 8.296875 
L 28.515625 63.921875 
L 10.984375 60.40625 
L 10.984375 69.390625 
L 28.421875 72.90625 
L 38.28125 72.90625 
L 38.28125 8.296875 
L 54.390625 8.296875 
L 54.390625 0 
L 12.40625 0 
z
" id="DejaVuSans-49"/>
       </defs>
       <use xlink:href="#DejaVuSans-49"/>
       <use x="63.623047" xlink:href="#DejaVuSans-48"/>
       <use x="127.246094" xlink:href="#DejaVuSans-48"/>
      </g>
     </g>
    </g>
    <g id="xtick_7">
     <g id="line2d_7">
      <g>
       <use style="stroke:#000000;stroke-width:0.8;" x="381.307066" xlink:href="#m9099895efd" y="307.584"/>
      </g>
     </g>
     <g id="text_7">
      <!-- 120 -->
      <g transform="translate(371.763316 322.182437)scale(0.1 -0.1)">
       <use xlink:href="#DejaVuSans-49"/>
       <use x="63.623047" xlink:href="#DejaVuSans-50"/>
       <use x="127.246094" xlink:href="#DejaVuSans-48"/>
      </g>
     </g>
    </g>
   </g>
   <g id="matplotlib.axis_2">
    <g id="ytick_1">
     <g id="line2d_8">
      <defs>
       <path d="M 0 0 
L -3.5 0 
" id="me2ab39aea5" style="stroke:#000000;stroke-width:0.8;"/>
      </defs>
      <g>
       <use style="stroke:#000000;stroke-width:0.8;" x="57.6" xlink:href="#me2ab39aea5" y="262.913318"/>
      </g>
     </g>
     <g id="text_8">
      <!-- 0 -->
      <g transform="translate(44.2375 266.712537)scale(0.1 -0.1)">
       <use xlink:href="#DejaVuSans-48"/>
      </g>
     </g>
    </g>
    <g id="ytick_2">
     <g id="line2d_9">
      <g>
       <use style="stroke:#000000;stroke-width:0.8;" x="57.6" xlink:href="#me2ab39aea5" y="208.969472"/>
      </g>
     </g>
     <g id="text_9">
      <!-- 20 -->
      <g transform="translate(37.875 212.768691)scale(0.1 -0.1)">
       <use xlink:href="#DejaVuSans-50"/>
       <use x="63.623047" xlink:href="#DejaVuSans-48"/>
      </g>
     </g>
    </g>
    <g id="ytick_3">
     <g id="line2d_10">
      <g>
       <use style="stroke:#000000;stroke-width:0.8;" x="57.6" xlink:href="#me2ab39aea5" y="155.025626"/>
      </g>
     </g>
     <g id="text_10">
      <!-- 40 -->
      <g transform="translate(37.875 158.824845)scale(0.1 -0.1)">
       <use xlink:href="#DejaVuSans-52"/>
       <use x="63.623047" xlink:href="#DejaVuSans-48"/>
      </g>
     </g>
    </g>
    <g id="ytick_4">
     <g id="line2d_11">
      <g>
       <use style="stroke:#000000;stroke-width:0.8;" x="57.6" xlink:href="#me2ab39aea5" y="101.08178"/>
      </g>
     </g>
     <g id="text_11">
      <!-- 60 -->
      <g transform="translate(37.875 104.880999)scale(0.1 -0.1)">
       <use xlink:href="#DejaVuSans-54"/>
       <use x="63.623047" xlink:href="#DejaVuSans-48"/>
      </g>
     </g>
    </g>
    <g id="ytick_5">
     <g id="line2d_12">
      <g>
       <use style="stroke:#000000;stroke-width:0.8;" x="57.6" xlink:href="#me2ab39aea5" y="47.137934"/>
      </g>
     </g>
     <g id="text_12">
      <!-- 80 -->
      <g transform="translate(37.875 50.937153)scale(0.1 -0.1)">
       <use xlink:href="#DejaVuSans-56"/>
       <use x="63.623047" xlink:href="#DejaVuSans-48"/>
      </g>
     </g>
    </g>
   </g>
   <g id="line2d_13">
    <path clip-path="url(#pa94870686e)" d="M 84.615913 235.941395 
L 84.769653 230.660292 
L 84.745378 222.595687 
L 84.63749 208.969472 
L 84.788533 203.518446 
L 85.160746 198.09709 
L 85.832347 192.732374 
L 86.873463 187.445877 
L 87.55855 184.837692 
L 88.362313 182.256479 
L 89.295541 179.707633 
L 90.352841 177.196547 
L 91.534211 174.73401 
L 92.834258 172.328115 
L 94.252981 169.986952 
L 95.779592 167.718613 
L 97.416787 165.533887 
L 99.156477 163.440866 
L 100.998659 161.447641 
L 102.93794 159.562303 
L 104.971623 157.790248 
L 107.086222 156.128778 
L 109.279039 154.561709 
L 113.853477 151.686502 
L 118.622113 149.089106 
L 123.512123 146.688605 
L 130.926705 143.314417 
L 135.911116 141.224093 
L 140.957563 139.32527 
L 146.082228 137.663799 
L 151.317478 136.296323 
L 156.668708 135.274087 
L 162.095459 134.651035 
L 164.82232 134.50269 
L 167.543787 134.475718 
L 170.25986 134.572817 
L 172.957052 134.804775 
L 175.635364 135.171594 
L 178.28131 135.686757 
L 180.894889 136.347569 
L 183.468011 137.15403 
L 186.003371 138.089956 
L 188.498274 139.147255 
L 193.361312 141.588214 
L 198.043638 144.395991 
L 202.534463 147.486974 
L 206.833787 150.791034 
L 210.982069 154.246137 
L 217.037266 159.602761 
L 227.097793 168.55744 
L 247.450806 186.256416 
L 257.489756 195.251552 
L 261.611066 198.741719 
L 265.853749 202.107815 
L 270.23399 205.312079 
L 274.751787 208.30866 
L 279.412535 211.057099 
L 284.213537 213.508847 
L 289.152096 215.626143 
L 294.220121 217.417078 
L 299.393336 218.935598 
L 304.647466 220.238341 
L 312.628458 221.921389 
L 320.666091 223.36169 
L 326.041595 224.076446 
L 331.422494 224.478328 
L 334.114292 224.532272 
L 336.80609 224.472933 
L 339.495191 224.286827 
L 342.181594 223.963164 
L 344.859906 223.504641 
L 347.516641 222.908562 
L 350.146403 222.18032 
L 352.738405 221.317218 
L 355.284554 220.324652 
L 357.77676 219.20262 
L 360.20693 217.951122 
L 362.566974 216.572857 
L 364.843404 215.067824 
L 367.033524 213.441417 
L 369.13194 211.696333 
L 371.130559 209.840665 
L 373.03208 207.882503 
L 374.825713 205.827243 
L 376.514155 203.682975 
L 378.089315 201.455094 
L 379.548496 199.148995 
L 380.886304 196.775466 
L 382.10004 194.339901 
L 383.189706 191.847695 
L 384.152604 189.30694 
L 384.994128 186.720333 
L 385.716975 184.101359 
L 386.321146 181.450019 
L 386.814732 178.771707 
L 387.467453 173.374625 
L 387.699411 167.955966 
L 387.53758 162.556187 
L 387.035902 157.186077 
L 386.245625 151.842939 
L 385.228783 146.526773 
L 383.39739 138.594331 
L 377.490539 115.066722 
L 377.490539 115.066722 
" style="fill:none;stroke:#fea952;stroke-linecap:square;"/>
   </g>
   <g id="line2d_14">
    <path clip-path="url(#pa94870686e)" d="M 73.834904 235.532269 
L 73.981081 230.594973 
L 73.957808 222.756536 
L 73.850622 208.766952 
L 74.017006 202.908737 
L 74.435881 196.924562 
L 75.208397 190.853749 
L 75.758738 187.788277 
L 76.438662 184.704989 
L 77.257635 181.630093 
L 78.231262 178.547121 
L 79.35223 175.520975 
L 80.625519 172.529989 
L 82.042539 169.605102 
L 83.60744 166.736748 
L 85.302466 163.963181 
L 87.146019 161.248763 
L 89.119868 158.637608 
L 91.233375 156.118162 
L 93.478195 153.711999 
L 95.850303 151.428243 
L 98.306089 149.306841 
L 100.813335 147.351054 
L 103.381865 145.527281 
L 108.566708 142.281843 
L 113.784418 139.445753 
L 118.954395 136.909818 
L 126.678098 133.397417 
L 132.004933 131.167291 
L 137.500514 129.10537 
L 143.195236 127.268473 
L 149.102967 125.737275 
L 152.145449 125.106287 
L 155.230966 124.581546 
L 158.353816 124.169795 
L 161.509399 123.878196 
L 164.7154 123.71445 
L 167.929237 123.693836 
L 171.184282 123.823725 
L 174.421002 124.115791 
L 177.697213 124.581678 
L 180.925899 125.227136 
L 184.12151 126.052597 
L 187.204232 127.032854 
L 190.213062 128.156374 
L 193.142543 129.409272 
L 195.985916 130.775066 
L 198.745009 132.238704 
L 204.025709 135.417552 
L 209.004296 138.853388 
L 213.671506 142.445787 
L 218.063568 146.106732 
L 224.267102 151.594827 
L 234.150951 160.393464 
L 254.697898 178.264094 
L 264.513659 187.062393 
L 270.346709 191.931171 
L 274.295834 194.955039 
L 278.327907 197.775291 
L 282.417547 200.348657 
L 286.545471 202.635878 
L 290.739296 204.622004 
L 295.112184 206.334026 
L 299.718512 207.819279 
L 304.515082 209.115437 
L 312.07409 210.808087 
L 319.736961 212.274211 
L 324.652326 213.039905 
L 329.356643 213.551295 
L 333.876521 213.746123 
L 338.204672 213.57552 
L 342.497998 212.977584 
L 346.73789 211.94413 
L 350.855454 210.486938 
L 352.837247 209.611022 
L 354.766149 208.634716 
L 356.616935 207.573158 
L 358.411177 206.406185 
L 360.135116 205.146267 
L 361.791119 203.790014 
L 364.903459 200.788628 
L 367.704809 197.454575 
L 368.972348 195.686347 
L 371.230128 191.963418 
L 373.101132 188.024318 
L 374.594213 183.849913 
L 375.711047 179.494683 
L 376.460554 174.998969 
L 376.848991 170.406122 
L 376.887475 165.759892 
L 376.601428 161.033988 
L 376.017841 156.213485 
L 375.185639 151.309683 
L 374.141094 146.310006 
L 372.288364 138.661635 
L 367.545926 120.025361 
L 366.963332 117.427965 
L 366.963332 117.427965 
" style="fill:none;stroke:#ffffff;stroke-linecap:square;"/>
   </g>
   <g id="line2d_15">
    <path clip-path="url(#pa94870686e)" d="M 95.396922 236.35052 
L 95.558224 230.725612 
L 95.532948 222.434839 
L 95.424359 209.171992 
L 95.56006 204.128155 
L 95.88561 199.269618 
L 96.456296 194.611 
L 97.308264 190.186766 
L 98.493364 185.965838 
L 100.080162 181.863104 
L 102.061075 177.919481 
L 104.413165 174.188463 
L 107.079578 170.76357 
L 108.519123 169.183283 
L 110.025577 167.696364 
L 111.637157 166.273655 
L 115.176213 163.596136 
L 119.140247 161.091161 
L 123.459808 158.732458 
L 128.06985 156.467391 
L 135.175311 153.231417 
L 139.817299 151.280895 
L 144.414611 149.54517 
L 148.96922 148.059126 
L 153.53199 146.85537 
L 158.10645 145.966628 
L 162.681518 145.423875 
L 167.158338 145.257599 
L 171.493103 145.49376 
L 173.573515 145.761509 
L 175.63672 146.146379 
L 177.668268 146.642542 
L 181.793681 148.023537 
L 185.919522 149.860607 
L 190.015419 152.103342 
L 194.06406 154.702714 
L 198.030525 157.589774 
L 201.952771 160.737703 
L 207.8261 165.83209 
L 222.120994 178.51513 
L 236.252323 190.703796 
L 252.61637 205.284106 
L 257.083043 208.950729 
L 261.754144 212.513404 
L 266.622806 215.902089 
L 271.714409 219.084532 
L 277.042841 222.008286 
L 282.591275 224.601992 
L 288.230364 226.784716 
L 293.873366 228.590038 
L 299.509537 230.104355 
L 305.082144 231.387622 
L 313.379764 233.049626 
L 319.12232 234.039439 
L 325.06094 234.820554 
L 331.20633 235.264931 
L 334.352063 235.31842 
L 337.550973 235.235958 
L 340.78571 234.998134 
L 344.002128 234.597222 
L 347.221814 234.031698 
L 350.395937 233.306023 
L 353.554916 232.41651 
L 356.656974 231.369201 
L 359.713655 230.162365 
L 362.716273 228.794217 
L 365.647712 227.267529 
L 368.517012 225.572556 
L 371.275631 223.729463 
L 373.931932 221.736566 
L 376.47276 219.602653 
L 378.870491 217.356714 
L 381.160701 214.976379 
L 383.302085 212.50172 
L 385.323501 209.911375 
L 387.206282 207.223842 
L 388.947156 204.446421 
L 390.54248 201.587513 
L 391.985232 198.661998 
L 393.27828 195.671072 
L 394.412068 192.644743 
L 395.394043 189.590752 
L 396.23609 186.49839 
L 396.931245 183.405354 
L 397.497411 180.280983 
L 397.929519 177.160849 
L 398.23575 174.038938 
L 398.420367 170.921772 
L 398.487273 167.816004 
L 398.293417 161.713862 
L 397.725937 155.729816 
L 396.860887 149.915828 
L 395.770636 144.231802 
L 393.85897 135.957498 
L 388.017745 112.70548 
L 388.017745 112.70548 
" style="fill:none;stroke:#ffffff;stroke-linecap:square;"/>
   </g>
   <g id="patch_3">
    <path d="M 57.6 307.584 
L 57.6 41.472 
" style="fill:none;stroke:#000000;stroke-linecap:square;stroke-linejoin:miter;stroke-width:0.8;"/>
   </g>
   <g id="patch_4">
    <path d="M 414.72 307.584 
L 414.72 41.472 
" style="fill:none;stroke:#000000;stroke-linecap:square;stroke-linejoin:miter;stroke-width:0.8;"/>
   </g>
   <g id="patch_5">
    <path d="M 57.6 307.584 
L 414.72 307.584 
" style="fill:none;stroke:#000000;stroke-linecap:square;stroke-linejoin:miter;stroke-width:0.8;"/>
   </g>
   <g id="patch_6">
    <path d="M 57.6 41.472 
L 414.72 41.472 
" style="fill:none;stroke:#000000;stroke-linecap:square;stroke-linejoin:miter;stroke-width:0.8;"/>
   </g>
  </g>
 </g>
 <defs>
  <clipPath id="pa94870686e">
   <rect height="266.112" width="357.12" x="57.6" y="41.472"/>
  </clipPath>
 </defs>
</svg>
