<?xml version="1.0" encoding="utf-8" standalone="no"?>
<!DOCTYPE svg PUBLIC "-//W3C//DTD SVG 1.1//EN"
  "http://www.w3.org/Graphics/SVG/1.1/DTD/svg11.dtd">
<!-- Created with matplotlib (https://matplotlib.org/) -->
<svg height="345.6pt" version="1.1" viewBox="0 0 460.8 345.6" width="460.8pt" xmlns="http://www.w3.org/2000/svg" xmlns:xlink="http://www.w3.org/1999/xlink">
 <metadata>
  <rdf:RDF xmlns:cc="http://creativecommons.org/ns#" xmlns:dc="http://purl.org/dc/elements/1.1/" xmlns:rdf="http://www.w3.org/1999/02/22-rdf-syntax-ns#">
   <cc:Work>
    <dc:type rdf:resource="http://purl.org/dc/dcmitype/StillImage"/>
    <dc:date>2021-01-23T12:14:37.507400</dc:date>
    <dc:format>image/svg+xml</dc:format>
    <dc:creator>
     <cc:Agent>
      <dc:title>Matplotlib v3.3.3, https://matplotlib.org/</dc:title>
     </cc:Agent>
    </dc:creator>
   </cc:Work>
  </rdf:RDF>
 </metadata>
 <defs>
  <style type="text/css">*{stroke-linecap:butt;stroke-linejoin:round;}</style>
 </defs>
 <g id="figure_1">
  <g id="patch_1">
   <path d="M 0 345.6 
L 460.8 345.6 
L 460.8 0 
L 0 0 
z
" style="fill:#ffffff;"/>
  </g>
  <g id="axes_1">
   <g id="patch_2">
    <path d="M 57.6 307.584 
L 414.72 307.584 
L 414.72 41.472 
L 57.6 41.472 
z
" style="fill:#7d9051;"/>
   </g>
   <g id="matplotlib.axis_1">
    <g id="xtick_1">
     <g id="line2d_1">
      <defs>
       <path d="M 0 0 
L 0 3.5 
" id="m3378763844" style="stroke:#000000;stroke-width:0.8;"/>
      </defs>
      <g>
       <use style="stroke:#000000;stroke-width:0.8;" x="58.483717" xlink:href="#m3378763844" y="307.584"/>
      </g>
     </g>
     <g id="text_1">
      <!-- 0 -->
      <g transform="translate(55.302467 322.182437)scale(0.1 -0.1)">
       <defs>
        <path d="M 31.78125 66.40625 
Q 24.171875 66.40625 20.328125 58.90625 
Q 16.5 51.421875 16.5 36.375 
Q 16.5 21.390625 20.328125 13.890625 
Q 24.171875 6.390625 31.78125 6.390625 
Q 39.453125 6.390625 43.28125 13.890625 
Q 47.125 21.390625 47.125 36.375 
Q 47.125 51.421875 43.28125 58.90625 
Q 39.453125 66.40625 31.78125 66.40625 
z
M 31.78125 74.21875 
Q 44.046875 74.21875 50.515625 64.515625 
Q 56.984375 54.828125 56.984375 36.375 
Q 56.984375 17.96875 50.515625 8.265625 
Q 44.046875 -1.421875 31.78125 -1.421875 
Q 19.53125 -1.421875 13.0625 8.265625 
Q 6.59375 17.96875 6.59375 36.375 
Q 6.59375 54.828125 13.0625 64.515625 
Q 19.53125 74.21875 31.78125 74.21875 
z
" id="DejaVuSans-48"/>
       </defs>
       <use xlink:href="#DejaVuSans-48"/>
      </g>
     </g>
    </g>
    <g id="xtick_2">
     <g id="line2d_2">
      <g>
       <use style="stroke:#000000;stroke-width:0.8;" x="115.247808" xlink:href="#m3378763844" y="307.584"/>
      </g>
     </g>
     <g id="text_2">
      <!-- 20 -->
      <g transform="translate(108.885308 322.182437)scale(0.1 -0.1)">
       <defs>
        <path d="M 19.1875 8.296875 
L 53.609375 8.296875 
L 53.609375 0 
L 7.328125 0 
L 7.328125 8.296875 
Q 12.9375 14.109375 22.625 23.890625 
Q 32.328125 33.6875 34.8125 36.53125 
Q 39.546875 41.84375 41.421875 45.53125 
Q 43.3125 49.21875 43.3125 52.78125 
Q 43.3125 58.59375 39.234375 62.25 
Q 35.15625 65.921875 28.609375 65.921875 
Q 23.96875 65.921875 18.8125 64.3125 
Q 13.671875 62.703125 7.8125 59.421875 
L 7.8125 69.390625 
Q 13.765625 71.78125 18.9375 73 
Q 24.125 74.21875 28.421875 74.21875 
Q 39.75 74.21875 46.484375 68.546875 
Q 53.21875 62.890625 53.21875 53.421875 
Q 53.21875 48.921875 51.53125 44.890625 
Q 49.859375 40.875 45.40625 35.40625 
Q 44.1875 33.984375 37.640625 27.21875 
Q 31.109375 20.453125 19.1875 8.296875 
z
" id="DejaVuSans-50"/>
       </defs>
       <use xlink:href="#DejaVuSans-50"/>
       <use x="63.623047" xlink:href="#DejaVuSans-48"/>
      </g>
     </g>
    </g>
    <g id="xtick_3">
     <g id="line2d_3">
      <g>
       <use style="stroke:#000000;stroke-width:0.8;" x="172.011898" xlink:href="#m3378763844" y="307.584"/>
      </g>
     </g>
     <g id="text_3">
      <!-- 40 -->
      <g transform="translate(165.649398 322.182437)scale(0.1 -0.1)">
       <defs>
        <path d="M 37.796875 64.3125 
L 12.890625 25.390625 
L 37.796875 25.390625 
z
M 35.203125 72.90625 
L 47.609375 72.90625 
L 47.609375 25.390625 
L 58.015625 25.390625 
L 58.015625 17.1875 
L 47.609375 17.1875 
L 47.609375 0 
L 37.796875 0 
L 37.796875 17.1875 
L 4.890625 17.1875 
L 4.890625 26.703125 
z
" id="DejaVuSans-52"/>
       </defs>
       <use xlink:href="#DejaVuSans-52"/>
       <use x="63.623047" xlink:href="#DejaVuSans-48"/>
      </g>
     </g>
    </g>
    <g id="xtick_4">
     <g id="line2d_4">
      <g>
       <use style="stroke:#000000;stroke-width:0.8;" x="228.775989" xlink:href="#m3378763844" y="307.584"/>
      </g>
     </g>
     <g id="text_4">
      <!-- 60 -->
      <g transform="translate(222.413489 322.182437)scale(0.1 -0.1)">
       <defs>
        <path d="M 33.015625 40.375 
Q 26.375 40.375 22.484375 35.828125 
Q 18.609375 31.296875 18.609375 23.390625 
Q 18.609375 15.53125 22.484375 10.953125 
Q 26.375 6.390625 33.015625 6.390625 
Q 39.65625 6.390625 43.53125 10.953125 
Q 47.40625 15.53125 47.40625 23.390625 
Q 47.40625 31.296875 43.53125 35.828125 
Q 39.65625 40.375 33.015625 40.375 
z
M 52.59375 71.296875 
L 52.59375 62.3125 
Q 48.875 64.0625 45.09375 64.984375 
Q 41.3125 65.921875 37.59375 65.921875 
Q 27.828125 65.921875 22.671875 59.328125 
Q 17.53125 52.734375 16.796875 39.40625 
Q 19.671875 43.65625 24.015625 45.921875 
Q 28.375 48.1875 33.59375 48.1875 
Q 44.578125 48.1875 50.953125 41.515625 
Q 57.328125 34.859375 57.328125 23.390625 
Q 57.328125 12.15625 50.6875 5.359375 
Q 44.046875 -1.421875 33.015625 -1.421875 
Q 20.359375 -1.421875 13.671875 8.265625 
Q 6.984375 17.96875 6.984375 36.375 
Q 6.984375 53.65625 15.1875 63.9375 
Q 23.390625 74.21875 37.203125 74.21875 
Q 40.921875 74.21875 44.703125 73.484375 
Q 48.484375 72.75 52.59375 71.296875 
z
" id="DejaVuSans-54"/>
       </defs>
       <use xlink:href="#DejaVuSans-54"/>
       <use x="63.623047" xlink:href="#DejaVuSans-48"/>
      </g>
     </g>
    </g>
    <g id="xtick_5">
     <g id="line2d_5">
      <g>
       <use style="stroke:#000000;stroke-width:0.8;" x="285.540079" xlink:href="#m3378763844" y="307.584"/>
      </g>
     </g>
     <g id="text_5">
      <!-- 80 -->
      <g transform="translate(279.177579 322.182437)scale(0.1 -0.1)">
       <defs>
        <path d="M 31.78125 34.625 
Q 24.75 34.625 20.71875 30.859375 
Q 16.703125 27.09375 16.703125 20.515625 
Q 16.703125 13.921875 20.71875 10.15625 
Q 24.75 6.390625 31.78125 6.390625 
Q 38.8125 6.390625 42.859375 10.171875 
Q 46.921875 13.96875 46.921875 20.515625 
Q 46.921875 27.09375 42.890625 30.859375 
Q 38.875 34.625 31.78125 34.625 
z
M 21.921875 38.8125 
Q 15.578125 40.375 12.03125 44.71875 
Q 8.5 49.078125 8.5 55.328125 
Q 8.5 64.0625 14.71875 69.140625 
Q 20.953125 74.21875 31.78125 74.21875 
Q 42.671875 74.21875 48.875 69.140625 
Q 55.078125 64.0625 55.078125 55.328125 
Q 55.078125 49.078125 51.53125 44.71875 
Q 48 40.375 41.703125 38.8125 
Q 48.828125 37.15625 52.796875 32.3125 
Q 56.78125 27.484375 56.78125 20.515625 
Q 56.78125 9.90625 50.3125 4.234375 
Q 43.84375 -1.421875 31.78125 -1.421875 
Q 19.734375 -1.421875 13.25 4.234375 
Q 6.78125 9.90625 6.78125 20.515625 
Q 6.78125 27.484375 10.78125 32.3125 
Q 14.796875 37.15625 21.921875 38.8125 
z
M 18.3125 54.390625 
Q 18.3125 48.734375 21.84375 45.5625 
Q 25.390625 42.390625 31.78125 42.390625 
Q 38.140625 42.390625 41.71875 45.5625 
Q 45.3125 48.734375 45.3125 54.390625 
Q 45.3125 60.0625 41.71875 63.234375 
Q 38.140625 66.40625 31.78125 66.40625 
Q 25.390625 66.40625 21.84375 63.234375 
Q 18.3125 60.0625 18.3125 54.390625 
z
" id="DejaVuSans-56"/>
       </defs>
       <use xlink:href="#DejaVuSans-56"/>
       <use x="63.623047" xlink:href="#DejaVuSans-48"/>
      </g>
     </g>
    </g>
    <g id="xtick_6">
     <g id="line2d_6">
      <g>
       <use style="stroke:#000000;stroke-width:0.8;" x="342.30417" xlink:href="#m3378763844" y="307.584"/>
      </g>
     </g>
     <g id="text_6">
      <!-- 100 -->
      <g transform="translate(332.76042 322.182437)scale(0.1 -0.1)">
       <defs>
        <path d="M 12.40625 8.296875 
L 28.515625 8.296875 
L 28.515625 63.921875 
L 10.984375 60.40625 
L 10.984375 69.390625 
L 28.421875 72.90625 
L 38.28125 72.90625 
L 38.28125 8.296875 
L 54.390625 8.296875 
L 54.390625 0 
L 12.40625 0 
z
" id="DejaVuSans-49"/>
       </defs>
       <use xlink:href="#DejaVuSans-49"/>
       <use x="63.623047" xlink:href="#DejaVuSans-48"/>
       <use x="127.246094" xlink:href="#DejaVuSans-48"/>
      </g>
     </g>
    </g>
    <g id="xtick_7">
     <g id="line2d_7">
      <g>
       <use style="stroke:#000000;stroke-width:0.8;" x="399.068261" xlink:href="#m3378763844" y="307.584"/>
      </g>
     </g>
     <g id="text_7">
      <!-- 120 -->
      <g transform="translate(389.524511 322.182437)scale(0.1 -0.1)">
       <use xlink:href="#DejaVuSans-49"/>
       <use x="63.623047" xlink:href="#DejaVuSans-50"/>
       <use x="127.246094" xlink:href="#DejaVuSans-48"/>
      </g>
     </g>
    </g>
   </g>
   <g id="matplotlib.axis_2">
    <g id="ytick_1">
     <g id="line2d_8">
      <defs>
       <path d="M 0 0 
L -3.5 0 
" id="m09e60bae12" style="stroke:#000000;stroke-width:0.8;"/>
      </defs>
      <g>
       <use style="stroke:#000000;stroke-width:0.8;" x="57.6" xlink:href="#m09e60bae12" y="251.722739"/>
      </g>
     </g>
     <g id="text_8">
      <!-- 20 -->
      <g transform="translate(37.875 255.521957)scale(0.1 -0.1)">
       <use xlink:href="#DejaVuSans-50"/>
       <use x="63.623047" xlink:href="#DejaVuSans-48"/>
      </g>
     </g>
    </g>
    <g id="ytick_2">
     <g id="line2d_9">
      <g>
       <use style="stroke:#000000;stroke-width:0.8;" x="57.6" xlink:href="#m09e60bae12" y="194.958648"/>
      </g>
     </g>
     <g id="text_9">
      <!-- 40 -->
      <g transform="translate(37.875 198.757867)scale(0.1 -0.1)">
       <use xlink:href="#DejaVuSans-52"/>
       <use x="63.623047" xlink:href="#DejaVuSans-48"/>
      </g>
     </g>
    </g>
    <g id="ytick_3">
     <g id="line2d_10">
      <g>
       <use style="stroke:#000000;stroke-width:0.8;" x="57.6" xlink:href="#m09e60bae12" y="138.194557"/>
      </g>
     </g>
     <g id="text_10">
      <!-- 60 -->
      <g transform="translate(37.875 141.993776)scale(0.1 -0.1)">
       <use xlink:href="#DejaVuSans-54"/>
       <use x="63.623047" xlink:href="#DejaVuSans-48"/>
      </g>
     </g>
    </g>
    <g id="ytick_4">
     <g id="line2d_11">
      <g>
       <use style="stroke:#000000;stroke-width:0.8;" x="57.6" xlink:href="#m09e60bae12" y="81.430467"/>
      </g>
     </g>
     <g id="text_11">
      <!-- 80 -->
      <g transform="translate(37.875 85.229686)scale(0.1 -0.1)">
       <use xlink:href="#DejaVuSans-56"/>
       <use x="63.623047" xlink:href="#DejaVuSans-48"/>
      </g>
     </g>
    </g>
   </g>
   <g id="line2d_12">
    <path clip-path="url(#p96b9d64054)" d="M 113.945072 280.104784 
L 114.118202 265.930791 
L 114.033056 254.563781 
L 113.77478 246.043491 
L 113.300799 237.534554 
L 112.571381 229.051161 
L 111.543951 220.601826 
L 110.207157 212.197902 
L 108.586542 203.833714 
L 106.716165 195.514936 
L 104.601703 187.247246 
L 103.023661 181.783703 
L 101.272489 176.382599 
L 99.319804 171.052451 
L 97.142901 165.810288 
L 90.194976 150.254089 
L 88.225262 144.926779 
L 87.39083 142.202102 
L 86.675603 139.432015 
L 86.093771 136.622192 
L 85.645335 133.781149 
L 85.338808 130.920239 
L 85.185545 128.045138 
L 85.185545 125.167199 
L 85.344485 122.297774 
L 85.676555 119.445378 
L 86.178917 116.618527 
L 86.865762 113.825733 
L 87.737091 111.078351 
L 88.787227 108.387734 
L 90.010493 105.768071 
L 91.398375 103.225039 
L 92.945197 100.778507 
L 94.642443 98.431312 
L 96.481599 96.203321 
L 98.45699 94.10305 
L 100.562938 92.139013 
L 102.78809 90.328238 
L 105.123932 88.679241 
L 107.564788 87.189184 
L 110.096467 85.85239 
L 112.707615 84.668858 
L 115.38688 83.630075 
L 118.122909 82.733203 
L 120.904349 81.975402 
L 123.719848 81.350997 
L 126.558053 80.859988 
L 129.40761 80.491021 
L 132.260006 80.244097 
L 137.961959 80.093673 
L 143.644044 80.368978 
L 149.300586 81.021765 
L 154.920231 82.015137 
L 160.488788 83.303682 
L 165.98639 84.873209 
L 171.381817 86.735071 
L 176.643848 88.903459 
L 181.744102 91.389727 
L 186.651357 94.202387 
L 191.37413 97.313059 
L 195.966345 100.642273 
L 202.712757 105.881599 
L 211.712703 112.923184 
L 216.313433 116.300648 
L 221.019176 119.493628 
L 225.866829 122.434008 
L 230.884775 125.053671 
L 236.095718 127.295852 
L 241.474116 129.166229 
L 246.980233 130.676154 
L 252.574334 131.842656 
L 258.222361 132.682764 
L 263.890255 133.213509 
L 269.566664 133.471785 
L 275.24875 133.505844 
L 280.927997 133.352581 
L 289.434096 132.872924 
L 297.920328 132.157696 
L 306.381015 131.212574 
L 314.821836 130.026205 
L 323.234274 128.575882 
L 328.802831 127.417895 
L 334.323139 126.072586 
L 339.77533 124.503059 
L 345.148051 122.68377 
L 350.427111 120.606204 
L 355.615349 118.290229 
L 360.709926 115.758551 
L 365.713681 113.031036 
L 370.623775 110.130391 
L 375.440208 107.076483 
L 382.48747 102.257212 
L 389.321866 97.213722 
L 391.549857 95.49377 
L 391.549857 95.49377 
" style="fill:none;stroke:#fea952;stroke-linecap:square;"/>
   </g>
   <g id="line2d_13">
    <path clip-path="url(#p96b9d64054)" d="M 102.594104 279.899852 
L 102.76539 265.919449 
L 102.683234 254.824566 
L 102.43448 246.576485 
L 101.979968 238.386171 
L 101.286211 230.288669 
L 100.311456 222.25032 
L 99.039646 214.24074 
L 97.486227 206.214782 
L 95.687817 198.209748 
L 93.671703 190.316707 
L 92.196953 185.199676 
L 90.574663 180.182994 
L 88.787618 175.290321 
L 86.777949 170.442161 
L 79.610907 154.360662 
L 77.370086 148.251176 
L 76.398506 145.040284 
L 75.558622 141.734016 
L 74.879787 138.392232 
L 74.357124 134.990601 
L 74.002086 131.524566 
L 73.832727 128.045138 
L 73.850103 124.539321 
L 74.067827 120.984969 
L 74.498867 117.458982 
L 75.154602 113.907262 
L 76.044144 110.393671 
L 77.161244 106.950647 
L 78.500634 103.584351 
L 80.04518 100.329412 
L 81.802604 97.158108 
L 83.745518 94.12626 
L 85.887236 91.204084 
L 88.211853 88.42529 
L 90.713945 85.800537 
L 93.397171 83.333431 
L 96.240668 81.053663 
L 99.208563 78.989304 
L 102.263806 77.149957 
L 105.409648 75.512167 
L 108.603653 74.083776 
L 111.850564 72.842075 
L 115.138622 71.779641 
L 118.44631 70.891877 
L 121.784558 70.164348 
L 125.100236 69.601158 
L 128.428491 69.180504 
L 131.740918 68.903153 
L 135.03325 68.760998 
L 138.313026 68.746284 
L 141.553499 68.853485 
L 147.958476 69.394276 
L 154.24915 70.328088 
L 160.413268 71.596189 
L 166.504561 73.177391 
L 172.546693 75.087104 
L 178.514253 77.349923 
L 184.351398 79.982305 
L 190.032643 83.001893 
L 195.408626 86.330428 
L 200.437866 89.827888 
L 205.202555 93.409174 
L 222.792641 106.978291 
L 227.049422 109.87476 
L 231.295972 112.463507 
L 235.567186 114.711451 
L 240.013626 116.640502 
L 244.648134 118.266133 
L 249.472852 119.600354 
L 254.400498 120.637675 
L 259.421427 121.393445 
L 264.525019 121.87845 
L 269.736767 122.120241 
L 275.021966 122.155291 
L 283.119495 121.88764 
L 291.312545 121.347402 
L 299.481565 120.585512 
L 307.619578 119.600843 
L 315.706528 118.386528 
L 323.621495 116.923949 
L 328.779262 115.766339 
L 333.798002 114.443283 
L 338.701495 112.917524 
L 343.518076 111.161421 
L 348.293792 109.160091 
L 353.021394 106.93447 
L 357.704438 104.495669 
L 362.327477 101.872605 
L 366.894216 99.078074 
L 371.406252 96.126103 
L 378.03964 91.46838 
L 384.612441 86.507184 
L 384.612441 86.507184 
" style="fill:none;stroke:#ffffff;stroke-linecap:square;"/>
   </g>
   <g id="line2d_14">
    <path clip-path="url(#p96b9d64054)" d="M 125.29604 280.309716 
L 125.471015 265.942132 
L 125.382879 254.302996 
L 125.115079 245.510497 
L 124.621631 236.682937 
L 123.85655 227.813652 
L 122.776446 218.953332 
L 121.374667 210.155065 
L 119.686857 201.452645 
L 117.744513 192.820124 
L 115.531702 184.177785 
L 113.850369 178.367729 
L 111.970315 172.582205 
L 109.85199 166.814582 
L 107.507853 161.178414 
L 99.877326 143.839468 
L 98.383155 139.36392 
L 97.792584 137.130014 
L 96.933545 132.571698 
L 96.675531 130.315913 
L 96.538364 128.045138 
L 96.520988 125.795077 
L 96.621143 123.610579 
L 96.854243 121.431775 
L 97.203232 119.329791 
L 97.687381 117.257796 
L 98.312938 115.206055 
L 99.07382 113.191116 
L 99.975806 111.206729 
L 100.994146 109.291971 
L 102.144876 107.430754 
L 103.39765 105.65854 
L 104.751346 103.981353 
L 106.200035 102.405564 
L 107.728704 100.944594 
L 109.335512 99.602813 
L 111.039301 98.369179 
L 112.86577 97.228411 
L 114.783285 96.192613 
L 116.811577 95.253941 
L 118.923195 94.418076 
L 121.107196 93.686764 
L 123.362389 93.058927 
L 125.655139 92.537647 
L 130.38673 91.801539 
L 135.191552 91.466082 
L 140.05818 91.509829 
L 144.994668 91.905645 
L 149.983019 92.629345 
L 155.007103 93.648837 
L 159.990485 94.928545 
L 164.847058 96.447383 
L 169.54547 98.209138 
L 174.079124 100.231411 
L 178.411065 102.507913 
L 182.656595 105.116902 
L 186.93099 108.079195 
L 193.444935 113.031782 
L 204.926332 122.024374 
L 209.834225 125.623005 
L 214.98893 129.112495 
L 220.437687 132.404509 
L 223.275962 133.942101 
L 226.202363 135.39589 
L 229.176948 136.733829 
L 232.177811 137.951202 
L 235.227315 139.06494 
L 241.382644 140.958111 
L 247.62549 142.452339 
L 253.88176 143.553891 
L 260.137401 144.299298 
L 266.331354 144.718319 
L 272.441731 144.867125 
L 278.475565 144.795341 
L 287.350719 144.388319 
L 296.148937 143.725298 
L 304.924711 142.823977 
L 313.697135 141.67573 
L 322.496543 140.256657 
L 328.426963 139.11524 
L 334.360899 137.775229 
L 340.320334 136.191964 
L 346.241753 134.334583 
L 352.079792 132.190994 
L 357.771375 129.793106 
L 363.329425 127.165397 
L 368.744713 124.336491 
L 374.032684 121.328557 
L 379.19531 118.162859 
L 384.219642 114.87078 
L 389.129048 111.464596 
L 396.259282 106.200309 
L 398.487273 104.480357 
L 398.487273 104.480357 
" style="fill:none;stroke:#ffffff;stroke-linecap:square;"/>
   </g>
   <g id="patch_3">
    <path d="M 57.6 307.584 
L 57.6 41.472 
" style="fill:none;stroke:#000000;stroke-linecap:square;stroke-linejoin:miter;stroke-width:0.8;"/>
   </g>
   <g id="patch_4">
    <path d="M 414.72 307.584 
L 414.72 41.472 
" style="fill:none;stroke:#000000;stroke-linecap:square;stroke-linejoin:miter;stroke-width:0.8;"/>
   </g>
   <g id="patch_5">
    <path d="M 57.6 307.584 
L 414.72 307.584 
" style="fill:none;stroke:#000000;stroke-linecap:square;stroke-linejoin:miter;stroke-width:0.8;"/>
   </g>
   <g id="patch_6">
    <path d="M 57.6 41.472 
L 414.72 41.472 
" style="fill:none;stroke:#000000;stroke-linecap:square;stroke-linejoin:miter;stroke-width:0.8;"/>
   </g>
  </g>
 </g>
 <defs>
  <clipPath id="p96b9d64054">
   <rect height="266.112" width="357.12" x="57.6" y="41.472"/>
  </clipPath>
 </defs>
</svg>
