<?xml version="1.0" encoding="utf-8" standalone="no"?>
<!DOCTYPE svg PUBLIC "-//W3C//DTD SVG 1.1//EN"
  "http://www.w3.org/Graphics/SVG/1.1/DTD/svg11.dtd">
<!-- Created with matplotlib (https://matplotlib.org/) -->
<svg height="345.6pt" version="1.1" viewBox="0 0 460.8 345.6" width="460.8pt" xmlns="http://www.w3.org/2000/svg" xmlns:xlink="http://www.w3.org/1999/xlink">
 <metadata>
  <rdf:RDF xmlns:cc="http://creativecommons.org/ns#" xmlns:dc="http://purl.org/dc/elements/1.1/" xmlns:rdf="http://www.w3.org/1999/02/22-rdf-syntax-ns#">
   <cc:Work>
    <dc:type rdf:resource="http://purl.org/dc/dcmitype/StillImage"/>
    <dc:date>2021-01-25T13:21:53.461388</dc:date>
    <dc:format>image/svg+xml</dc:format>
    <dc:creator>
     <cc:Agent>
      <dc:title>Matplotlib v3.3.3, https://matplotlib.org/</dc:title>
     </cc:Agent>
    </dc:creator>
   </cc:Work>
  </rdf:RDF>
 </metadata>
 <defs>
  <style type="text/css">*{stroke-linecap:butt;stroke-linejoin:round;}</style>
 </defs>
 <g id="figure_1">
  <g id="patch_1">
   <path d="M 0 345.6 
L 460.8 345.6 
L 460.8 0 
L 0 0 
z
" style="fill:#ffffff;"/>
  </g>
  <g id="axes_1">
   <g id="patch_2">
    <path d="M 57.6 307.584 
L 414.72 307.584 
L 414.72 41.472 
L 57.6 41.472 
z
" style="fill:#7d9051;"/>
   </g>
   <g id="matplotlib.axis_1">
    <g id="xtick_1">
     <g id="line2d_1">
      <defs>
       <path d="M 0 0 
L 0 3.5 
" id="m237ab28ed9" style="stroke:#000000;stroke-width:0.8;"/>
      </defs>
      <g>
       <use style="stroke:#000000;stroke-width:0.8;" x="90.662991" xlink:href="#m237ab28ed9" y="307.584"/>
      </g>
     </g>
     <g id="text_1">
      <!-- 10 -->
      <g transform="translate(84.300491 322.182437)scale(0.1 -0.1)">
       <defs>
        <path d="M 12.40625 8.296875 
L 28.515625 8.296875 
L 28.515625 63.921875 
L 10.984375 60.40625 
L 10.984375 69.390625 
L 28.421875 72.90625 
L 38.28125 72.90625 
L 38.28125 8.296875 
L 54.390625 8.296875 
L 54.390625 0 
L 12.40625 0 
z
" id="DejaVuSans-49"/>
        <path d="M 31.78125 66.40625 
Q 24.171875 66.40625 20.328125 58.90625 
Q 16.5 51.421875 16.5 36.375 
Q 16.5 21.390625 20.328125 13.890625 
Q 24.171875 6.390625 31.78125 6.390625 
Q 39.453125 6.390625 43.28125 13.890625 
Q 47.125 21.390625 47.125 36.375 
Q 47.125 51.421875 43.28125 58.90625 
Q 39.453125 66.40625 31.78125 66.40625 
z
M 31.78125 74.21875 
Q 44.046875 74.21875 50.515625 64.515625 
Q 56.984375 54.828125 56.984375 36.375 
Q 56.984375 17.96875 50.515625 8.265625 
Q 44.046875 -1.421875 31.78125 -1.421875 
Q 19.53125 -1.421875 13.0625 8.265625 
Q 6.59375 17.96875 6.59375 36.375 
Q 6.59375 54.828125 13.0625 64.515625 
Q 19.53125 74.21875 31.78125 74.21875 
z
" id="DejaVuSans-48"/>
       </defs>
       <use xlink:href="#DejaVuSans-49"/>
       <use x="63.623047" xlink:href="#DejaVuSans-48"/>
      </g>
     </g>
    </g>
    <g id="xtick_2">
     <g id="line2d_2">
      <g>
       <use style="stroke:#000000;stroke-width:0.8;" x="131.140127" xlink:href="#m237ab28ed9" y="307.584"/>
      </g>
     </g>
     <g id="text_2">
      <!-- 20 -->
      <g transform="translate(124.777627 322.182437)scale(0.1 -0.1)">
       <defs>
        <path d="M 19.1875 8.296875 
L 53.609375 8.296875 
L 53.609375 0 
L 7.328125 0 
L 7.328125 8.296875 
Q 12.9375 14.109375 22.625 23.890625 
Q 32.328125 33.6875 34.8125 36.53125 
Q 39.546875 41.84375 41.421875 45.53125 
Q 43.3125 49.21875 43.3125 52.78125 
Q 43.3125 58.59375 39.234375 62.25 
Q 35.15625 65.921875 28.609375 65.921875 
Q 23.96875 65.921875 18.8125 64.3125 
Q 13.671875 62.703125 7.8125 59.421875 
L 7.8125 69.390625 
Q 13.765625 71.78125 18.9375 73 
Q 24.125 74.21875 28.421875 74.21875 
Q 39.75 74.21875 46.484375 68.546875 
Q 53.21875 62.890625 53.21875 53.421875 
Q 53.21875 48.921875 51.53125 44.890625 
Q 49.859375 40.875 45.40625 35.40625 
Q 44.1875 33.984375 37.640625 27.21875 
Q 31.109375 20.453125 19.1875 8.296875 
z
" id="DejaVuSans-50"/>
       </defs>
       <use xlink:href="#DejaVuSans-50"/>
       <use x="63.623047" xlink:href="#DejaVuSans-48"/>
      </g>
     </g>
    </g>
    <g id="xtick_3">
     <g id="line2d_3">
      <g>
       <use style="stroke:#000000;stroke-width:0.8;" x="171.617263" xlink:href="#m237ab28ed9" y="307.584"/>
      </g>
     </g>
     <g id="text_3">
      <!-- 30 -->
      <g transform="translate(165.254763 322.182437)scale(0.1 -0.1)">
       <defs>
        <path d="M 40.578125 39.3125 
Q 47.65625 37.796875 51.625 33 
Q 55.609375 28.21875 55.609375 21.1875 
Q 55.609375 10.40625 48.1875 4.484375 
Q 40.765625 -1.421875 27.09375 -1.421875 
Q 22.515625 -1.421875 17.65625 -0.515625 
Q 12.796875 0.390625 7.625 2.203125 
L 7.625 11.71875 
Q 11.71875 9.328125 16.59375 8.109375 
Q 21.484375 6.890625 26.8125 6.890625 
Q 36.078125 6.890625 40.9375 10.546875 
Q 45.796875 14.203125 45.796875 21.1875 
Q 45.796875 27.640625 41.28125 31.265625 
Q 36.765625 34.90625 28.71875 34.90625 
L 20.21875 34.90625 
L 20.21875 43.015625 
L 29.109375 43.015625 
Q 36.375 43.015625 40.234375 45.921875 
Q 44.09375 48.828125 44.09375 54.296875 
Q 44.09375 59.90625 40.109375 62.90625 
Q 36.140625 65.921875 28.71875 65.921875 
Q 24.65625 65.921875 20.015625 65.03125 
Q 15.375 64.15625 9.8125 62.3125 
L 9.8125 71.09375 
Q 15.4375 72.65625 20.34375 73.4375 
Q 25.25 74.21875 29.59375 74.21875 
Q 40.828125 74.21875 47.359375 69.109375 
Q 53.90625 64.015625 53.90625 55.328125 
Q 53.90625 49.265625 50.4375 45.09375 
Q 46.96875 40.921875 40.578125 39.3125 
z
" id="DejaVuSans-51"/>
       </defs>
       <use xlink:href="#DejaVuSans-51"/>
       <use x="63.623047" xlink:href="#DejaVuSans-48"/>
      </g>
     </g>
    </g>
    <g id="xtick_4">
     <g id="line2d_4">
      <g>
       <use style="stroke:#000000;stroke-width:0.8;" x="212.094399" xlink:href="#m237ab28ed9" y="307.584"/>
      </g>
     </g>
     <g id="text_4">
      <!-- 40 -->
      <g transform="translate(205.731899 322.182437)scale(0.1 -0.1)">
       <defs>
        <path d="M 37.796875 64.3125 
L 12.890625 25.390625 
L 37.796875 25.390625 
z
M 35.203125 72.90625 
L 47.609375 72.90625 
L 47.609375 25.390625 
L 58.015625 25.390625 
L 58.015625 17.1875 
L 47.609375 17.1875 
L 47.609375 0 
L 37.796875 0 
L 37.796875 17.1875 
L 4.890625 17.1875 
L 4.890625 26.703125 
z
" id="DejaVuSans-52"/>
       </defs>
       <use xlink:href="#DejaVuSans-52"/>
       <use x="63.623047" xlink:href="#DejaVuSans-48"/>
      </g>
     </g>
    </g>
    <g id="xtick_5">
     <g id="line2d_5">
      <g>
       <use style="stroke:#000000;stroke-width:0.8;" x="252.571536" xlink:href="#m237ab28ed9" y="307.584"/>
      </g>
     </g>
     <g id="text_5">
      <!-- 50 -->
      <g transform="translate(246.209036 322.182437)scale(0.1 -0.1)">
       <defs>
        <path d="M 10.796875 72.90625 
L 49.515625 72.90625 
L 49.515625 64.59375 
L 19.828125 64.59375 
L 19.828125 46.734375 
Q 21.96875 47.46875 24.109375 47.828125 
Q 26.265625 48.1875 28.421875 48.1875 
Q 40.625 48.1875 47.75 41.5 
Q 54.890625 34.8125 54.890625 23.390625 
Q 54.890625 11.625 47.5625 5.09375 
Q 40.234375 -1.421875 26.90625 -1.421875 
Q 22.3125 -1.421875 17.546875 -0.640625 
Q 12.796875 0.140625 7.71875 1.703125 
L 7.71875 11.625 
Q 12.109375 9.234375 16.796875 8.0625 
Q 21.484375 6.890625 26.703125 6.890625 
Q 35.15625 6.890625 40.078125 11.328125 
Q 45.015625 15.765625 45.015625 23.390625 
Q 45.015625 31 40.078125 35.4375 
Q 35.15625 39.890625 26.703125 39.890625 
Q 22.75 39.890625 18.8125 39.015625 
Q 14.890625 38.140625 10.796875 36.28125 
z
" id="DejaVuSans-53"/>
       </defs>
       <use xlink:href="#DejaVuSans-53"/>
       <use x="63.623047" xlink:href="#DejaVuSans-48"/>
      </g>
     </g>
    </g>
    <g id="xtick_6">
     <g id="line2d_6">
      <g>
       <use style="stroke:#000000;stroke-width:0.8;" x="293.048672" xlink:href="#m237ab28ed9" y="307.584"/>
      </g>
     </g>
     <g id="text_6">
      <!-- 60 -->
      <g transform="translate(286.686172 322.182437)scale(0.1 -0.1)">
       <defs>
        <path d="M 33.015625 40.375 
Q 26.375 40.375 22.484375 35.828125 
Q 18.609375 31.296875 18.609375 23.390625 
Q 18.609375 15.53125 22.484375 10.953125 
Q 26.375 6.390625 33.015625 6.390625 
Q 39.65625 6.390625 43.53125 10.953125 
Q 47.40625 15.53125 47.40625 23.390625 
Q 47.40625 31.296875 43.53125 35.828125 
Q 39.65625 40.375 33.015625 40.375 
z
M 52.59375 71.296875 
L 52.59375 62.3125 
Q 48.875 64.0625 45.09375 64.984375 
Q 41.3125 65.921875 37.59375 65.921875 
Q 27.828125 65.921875 22.671875 59.328125 
Q 17.53125 52.734375 16.796875 39.40625 
Q 19.671875 43.65625 24.015625 45.921875 
Q 28.375 48.1875 33.59375 48.1875 
Q 44.578125 48.1875 50.953125 41.515625 
Q 57.328125 34.859375 57.328125 23.390625 
Q 57.328125 12.15625 50.6875 5.359375 
Q 44.046875 -1.421875 33.015625 -1.421875 
Q 20.359375 -1.421875 13.671875 8.265625 
Q 6.984375 17.96875 6.984375 36.375 
Q 6.984375 53.65625 15.1875 63.9375 
Q 23.390625 74.21875 37.203125 74.21875 
Q 40.921875 74.21875 44.703125 73.484375 
Q 48.484375 72.75 52.59375 71.296875 
z
" id="DejaVuSans-54"/>
       </defs>
       <use xlink:href="#DejaVuSans-54"/>
       <use x="63.623047" xlink:href="#DejaVuSans-48"/>
      </g>
     </g>
    </g>
    <g id="xtick_7">
     <g id="line2d_7">
      <g>
       <use style="stroke:#000000;stroke-width:0.8;" x="333.525808" xlink:href="#m237ab28ed9" y="307.584"/>
      </g>
     </g>
     <g id="text_7">
      <!-- 70 -->
      <g transform="translate(327.163308 322.182437)scale(0.1 -0.1)">
       <defs>
        <path d="M 8.203125 72.90625 
L 55.078125 72.90625 
L 55.078125 68.703125 
L 28.609375 0 
L 18.3125 0 
L 43.21875 64.59375 
L 8.203125 64.59375 
z
" id="DejaVuSans-55"/>
       </defs>
       <use xlink:href="#DejaVuSans-55"/>
       <use x="63.623047" xlink:href="#DejaVuSans-48"/>
      </g>
     </g>
    </g>
    <g id="xtick_8">
     <g id="line2d_8">
      <g>
       <use style="stroke:#000000;stroke-width:0.8;" x="374.002944" xlink:href="#m237ab28ed9" y="307.584"/>
      </g>
     </g>
     <g id="text_8">
      <!-- 80 -->
      <g transform="translate(367.640444 322.182437)scale(0.1 -0.1)">
       <defs>
        <path d="M 31.78125 34.625 
Q 24.75 34.625 20.71875 30.859375 
Q 16.703125 27.09375 16.703125 20.515625 
Q 16.703125 13.921875 20.71875 10.15625 
Q 24.75 6.390625 31.78125 6.390625 
Q 38.8125 6.390625 42.859375 10.171875 
Q 46.921875 13.96875 46.921875 20.515625 
Q 46.921875 27.09375 42.890625 30.859375 
Q 38.875 34.625 31.78125 34.625 
z
M 21.921875 38.8125 
Q 15.578125 40.375 12.03125 44.71875 
Q 8.5 49.078125 8.5 55.328125 
Q 8.5 64.0625 14.71875 69.140625 
Q 20.953125 74.21875 31.78125 74.21875 
Q 42.671875 74.21875 48.875 69.140625 
Q 55.078125 64.0625 55.078125 55.328125 
Q 55.078125 49.078125 51.53125 44.71875 
Q 48 40.375 41.703125 38.8125 
Q 48.828125 37.15625 52.796875 32.3125 
Q 56.78125 27.484375 56.78125 20.515625 
Q 56.78125 9.90625 50.3125 4.234375 
Q 43.84375 -1.421875 31.78125 -1.421875 
Q 19.734375 -1.421875 13.25 4.234375 
Q 6.78125 9.90625 6.78125 20.515625 
Q 6.78125 27.484375 10.78125 32.3125 
Q 14.796875 37.15625 21.921875 38.8125 
z
M 18.3125 54.390625 
Q 18.3125 48.734375 21.84375 45.5625 
Q 25.390625 42.390625 31.78125 42.390625 
Q 38.140625 42.390625 41.71875 45.5625 
Q 45.3125 48.734375 45.3125 54.390625 
Q 45.3125 60.0625 41.71875 63.234375 
Q 38.140625 66.40625 31.78125 66.40625 
Q 25.390625 66.40625 21.84375 63.234375 
Q 18.3125 60.0625 18.3125 54.390625 
z
" id="DejaVuSans-56"/>
       </defs>
       <use xlink:href="#DejaVuSans-56"/>
       <use x="63.623047" xlink:href="#DejaVuSans-48"/>
      </g>
     </g>
    </g>
    <g id="xtick_9">
     <g id="line2d_9">
      <g>
       <use style="stroke:#000000;stroke-width:0.8;" x="414.48008" xlink:href="#m237ab28ed9" y="307.584"/>
      </g>
     </g>
     <g id="text_9">
      <!-- 90 -->
      <g transform="translate(408.11758 322.182437)scale(0.1 -0.1)">
       <defs>
        <path d="M 10.984375 1.515625 
L 10.984375 10.5 
Q 14.703125 8.734375 18.5 7.8125 
Q 22.3125 6.890625 25.984375 6.890625 
Q 35.75 6.890625 40.890625 13.453125 
Q 46.046875 20.015625 46.78125 33.40625 
Q 43.953125 29.203125 39.59375 26.953125 
Q 35.25 24.703125 29.984375 24.703125 
Q 19.046875 24.703125 12.671875 31.3125 
Q 6.296875 37.9375 6.296875 49.421875 
Q 6.296875 60.640625 12.9375 67.421875 
Q 19.578125 74.21875 30.609375 74.21875 
Q 43.265625 74.21875 49.921875 64.515625 
Q 56.59375 54.828125 56.59375 36.375 
Q 56.59375 19.140625 48.40625 8.859375 
Q 40.234375 -1.421875 26.421875 -1.421875 
Q 22.703125 -1.421875 18.890625 -0.6875 
Q 15.09375 0.046875 10.984375 1.515625 
z
M 30.609375 32.421875 
Q 37.25 32.421875 41.125 36.953125 
Q 45.015625 41.5 45.015625 49.421875 
Q 45.015625 57.28125 41.125 61.84375 
Q 37.25 66.40625 30.609375 66.40625 
Q 23.96875 66.40625 20.09375 61.84375 
Q 16.21875 57.28125 16.21875 49.421875 
Q 16.21875 41.5 20.09375 36.953125 
Q 23.96875 32.421875 30.609375 32.421875 
z
" id="DejaVuSans-57"/>
       </defs>
       <use xlink:href="#DejaVuSans-57"/>
       <use x="63.623047" xlink:href="#DejaVuSans-48"/>
      </g>
     </g>
    </g>
   </g>
   <g id="matplotlib.axis_2">
    <g id="ytick_1">
     <g id="line2d_10">
      <defs>
       <path d="M 0 0 
L -3.5 0 
" id="m3e5996a74e" style="stroke:#000000;stroke-width:0.8;"/>
      </defs>
      <g>
       <use style="stroke:#000000;stroke-width:0.8;" x="57.6" xlink:href="#m3e5996a74e" y="280.072596"/>
      </g>
     </g>
     <g id="text_10">
      <!-- 10 -->
      <g transform="translate(37.875 283.871815)scale(0.1 -0.1)">
       <use xlink:href="#DejaVuSans-49"/>
       <use x="63.623047" xlink:href="#DejaVuSans-48"/>
      </g>
     </g>
    </g>
    <g id="ytick_2">
     <g id="line2d_11">
      <g>
       <use style="stroke:#000000;stroke-width:0.8;" x="57.6" xlink:href="#m3e5996a74e" y="239.59546"/>
      </g>
     </g>
     <g id="text_11">
      <!-- 20 -->
      <g transform="translate(37.875 243.394679)scale(0.1 -0.1)">
       <use xlink:href="#DejaVuSans-50"/>
       <use x="63.623047" xlink:href="#DejaVuSans-48"/>
      </g>
     </g>
    </g>
    <g id="ytick_3">
     <g id="line2d_12">
      <g>
       <use style="stroke:#000000;stroke-width:0.8;" x="57.6" xlink:href="#m3e5996a74e" y="199.118324"/>
      </g>
     </g>
     <g id="text_12">
      <!-- 30 -->
      <g transform="translate(37.875 202.917543)scale(0.1 -0.1)">
       <use xlink:href="#DejaVuSans-51"/>
       <use x="63.623047" xlink:href="#DejaVuSans-48"/>
      </g>
     </g>
    </g>
    <g id="ytick_4">
     <g id="line2d_13">
      <g>
       <use style="stroke:#000000;stroke-width:0.8;" x="57.6" xlink:href="#m3e5996a74e" y="158.641188"/>
      </g>
     </g>
     <g id="text_13">
      <!-- 40 -->
      <g transform="translate(37.875 162.440407)scale(0.1 -0.1)">
       <use xlink:href="#DejaVuSans-52"/>
       <use x="63.623047" xlink:href="#DejaVuSans-48"/>
      </g>
     </g>
    </g>
    <g id="ytick_5">
     <g id="line2d_14">
      <g>
       <use style="stroke:#000000;stroke-width:0.8;" x="57.6" xlink:href="#m3e5996a74e" y="118.164052"/>
      </g>
     </g>
     <g id="text_14">
      <!-- 50 -->
      <g transform="translate(37.875 121.96327)scale(0.1 -0.1)">
       <use xlink:href="#DejaVuSans-53"/>
       <use x="63.623047" xlink:href="#DejaVuSans-48"/>
      </g>
     </g>
    </g>
    <g id="ytick_6">
     <g id="line2d_15">
      <g>
       <use style="stroke:#000000;stroke-width:0.8;" x="57.6" xlink:href="#m3e5996a74e" y="77.686916"/>
      </g>
     </g>
     <g id="text_15">
      <!-- 60 -->
      <g transform="translate(37.875 81.486134)scale(0.1 -0.1)">
       <use xlink:href="#DejaVuSans-54"/>
       <use x="63.623047" xlink:href="#DejaVuSans-48"/>
      </g>
     </g>
    </g>
   </g>
   <g id="line2d_16">
    <path clip-path="url(#pe7761e886f)" d="M 243.407512 219.640232 
L 242.132482 215.564184 
L 241.165079 211.46385 
L 240.493158 207.351373 
L 240.112673 203.242944 
L 240.01148 199.14261 
L 240.185532 195.062515 
L 240.622685 191.014801 
L 241.314844 187.007565 
L 242.257961 183.052949 
L 243.439894 179.163096 
L 244.852546 175.346102 
L 246.49187 171.61411 
L 248.345722 167.975215 
L 250.410056 164.445609 
L 252.672728 161.025291 
L 255.129691 157.7345 
L 257.7688 154.581331 
L 260.581961 151.57388 
L 263.565126 148.724289 
L 266.706151 146.044703 
L 269.996943 143.539168 
L 273.429404 141.227924 
L 276.983296 139.119065 
L 280.650525 137.220687 
L 284.418946 135.544934 
L 288.268322 134.107996 
L 292.190556 132.91392 
L 296.173507 131.978898 
L 300.196934 131.315073 
L 304.256791 130.93054 
L 308.332838 130.837443 
L 312.416981 131.023638 
L 316.484933 131.476982 
L 320.528599 132.193427 
L 324.52774 133.156783 
L 328.474261 134.358954 
L 332.343875 135.787797 
L 336.128488 137.435216 
L 339.811907 139.285021 
L 343.377943 141.329117 
L 346.810404 143.555359 
L 350.10929 145.959701 
L 353.270555 148.529999 
L 356.294197 151.258158 
L 359.176169 154.14013 
L 361.920519 157.163772 
L 364.515103 160.320989 
L 366.96397 163.603685 
L 369.267119 167.007812 
L 371.416455 170.521227 
L 373.411978 174.135836 
L 375.241544 177.843541 
L 376.893011 181.628153 
L 378.354236 185.485624 
L 379.609027 189.403811 
L 380.641194 193.366523 
L 381.442642 197.369712 
L 382.001226 201.401234 
L 382.296709 205.448948 
L 382.320995 209.500709 
L 382.061942 213.548423 
L 381.531691 217.579946 
L 380.734292 221.579087 
L 379.685934 225.533703 
L 378.394713 229.431651 
L 376.876821 233.264836 
L 375.140351 237.008971 
L 373.193401 240.664056 
L 371.052161 244.205806 
L 368.728773 247.626124 
L 366.227286 250.916915 
L 363.563891 254.061989 
L 360.742634 257.057297 
L 357.771612 259.898792 
L 354.662968 262.570283 
L 351.424797 265.07177 
L 348.065195 267.387062 
L 344.588209 269.516159 
L 341.01003 271.450966 
L 337.330659 273.175292 
L 333.566285 274.693185 
L 329.725005 276.004644 
L 325.814913 277.117765 
L 321.848154 278.044692 
L 317.83687 278.789471 
L 313.789156 279.360199 
L 309.717156 279.769018 
L 305.628966 280.015928 
L 301.532679 280.117121 
L 297.444489 280.072596 
L 293.372489 279.894497 
L 289.31668 279.590918 
L 285.277062 279.169956 
L 277.250445 277.988024 
L 269.300736 276.409415 
L 261.427933 274.482704 
L 253.636084 272.264557 
L 245.921142 269.807594 
L 238.270963 267.152294 
L 226.888793 262.898147 
L 208.070972 255.450354 
L 192.985143 249.589265 
L 185.375442 246.816581 
L 177.688834 244.201758 
L 162.262997 239.109734 
L 154.677582 236.280383 
L 150.94559 234.722013 
L 147.274314 233.038164 
L 143.667801 231.20455 
L 140.138194 229.209027 
L 136.689542 227.047548 
L 133.32994 224.732256 
L 130.071531 222.271246 
L 126.918362 219.672614 
L 123.874481 216.936359 
L 120.952032 214.078673 
L 118.155062 211.099556 
L 115.495714 208.011151 
L 112.973988 204.817505 
L 110.602028 201.526714 
L 108.371738 198.146873 
L 106.283118 194.68203 
L 104.324024 191.136233 
L 102.498506 187.517577 
L 100.794418 183.826062 
L 99.211762 180.073831 
L 97.742442 176.264933 
L 96.38241 172.399366 
L 93.974021 164.534659 
L 92.933758 160.547661 
L 92.02707 156.532329 
L 91.270148 152.496759 
L 90.671086 148.449045 
L 90.250124 144.393236 
L 90.023452 140.341475 
L 90.007261 136.293761 
L 90.213695 132.266286 
L 90.662991 128.259049 
L 91.363245 124.280147 
L 92.31041 120.341722 
L 93.492343 116.455917 
L 94.904995 112.626779 
L 96.532176 108.870501 
L 98.36579 105.195177 
L 100.397742 101.608903 
L 102.619937 98.119774 
L 105.020231 94.743981 
L 107.586482 91.489619 
L 110.314641 88.360736 
L 113.188517 85.377571 
L 116.204064 82.544172 
L 119.34509 79.868633 
L 122.611595 77.367146 
L 125.98334 75.043759 
L 129.460326 72.914661 
L 133.022314 70.983902 
L 136.669304 69.263623 
L 140.385105 67.765969 
L 140.385105 67.765969 
" style="fill:none;stroke:#fea952;stroke-linecap:square;"/>
   </g>
   <g id="line2d_17">
    <path clip-path="url(#pe7761e886f)" d="M 227.955031 224.473927 
L 226.374273 219.282064 
L 225.186098 214.074589 
L 224.371293 208.844433 
L 223.926747 203.642399 
L 223.835337 198.452557 
L 224.088284 193.324012 
L 224.668082 188.259006 
L 225.565665 183.251619 
L 226.766448 178.34585 
L 228.255581 173.543451 
L 230.028786 168.83458 
L 232.065301 164.264423 
L 234.369714 159.801174 
L 236.906576 155.512537 
L 239.699011 151.338887 
L 242.713769 147.34274 
L 245.944569 143.520981 
L 249.398413 139.866103 
L 253.057045 136.40666 
L 256.898091 133.162711 
L 260.953837 130.109127 
L 265.167009 127.303966 
L 269.540098 124.74052 
L 274.071847 122.426608 
L 278.756687 120.37646 
L 283.552894 118.619015 
L 288.49025 117.151576 
L 293.537812 116.004015 
L 298.670236 115.196359 
L 303.887086 114.743907 
L 309.070208 114.663388 
L 314.210234 114.932398 
L 319.30959 115.534426 
L 324.320362 116.452833 
L 329.245688 117.66857 
L 334.082569 119.17045 
L 338.805978 120.942427 
L 343.394686 122.966418 
L 347.863701 125.238229 
L 352.188252 127.745221 
L 356.346766 130.470957 
L 360.323362 133.397197 
L 364.116771 136.509044 
L 367.74286 139.809495 
L 371.165142 143.258573 
L 374.429369 146.884063 
L 377.492707 150.639792 
L 380.373933 154.530832 
L 383.078546 158.558655 
L 385.590722 162.696016 
L 387.93136 166.971249 
L 390.0811 171.368099 
L 392.033962 175.892704 
L 393.773687 180.547577 
L 395.277106 185.322749 
L 396.517016 190.188148 
L 397.480288 195.147628 
L 398.149112 200.222439 
L 398.487273 205.351902 
L 398.478793 210.534808 
L 398.114544 215.659759 
L 397.409982 220.745961 
L 396.384559 225.727929 
L 395.055476 230.624964 
L 393.448283 235.392674 
L 391.564885 240.076922 
L 389.43034 244.620803 
L 387.048922 249.040709 
L 384.445228 253.303582 
L 381.618403 257.424145 
L 378.582939 261.380261 
L 375.349862 265.163099 
L 371.933395 268.758178 
L 368.324273 272.178251 
L 364.561002 275.383272 
L 360.612374 278.403394 
L 356.520267 281.194869 
L 352.289258 283.758266 
L 347.880738 286.111701 
L 343.385525 288.191362 
L 338.797555 290.015638 
L 334.158069 291.576789 
L 329.499041 292.883899 
L 324.803812 293.963481 
L 320.09742 294.821741 
L 315.406548 295.470065 
L 310.693241 295.930423 
L 306.028815 296.201845 
L 301.356354 296.307015 
L 296.737016 296.247987 
L 292.163979 296.040186 
L 287.638544 295.694571 
L 283.127691 295.21751 
L 278.690234 294.617603 
L 274.274469 293.903027 
L 265.614027 292.174946 
L 257.125425 290.091425 
L 248.827963 287.725014 
L 240.694469 285.131617 
L 232.720965 282.362202 
L 221.012667 277.985059 
L 202.108159 270.503216 
L 187.367627 264.774366 
L 180.076468 262.115753 
L 172.685196 259.60005 
L 156.780558 254.344124 
L 148.438826 251.220988 
L 144.195683 249.438756 
L 139.936517 247.470784 
L 135.699376 245.298803 
L 131.539697 242.927978 
L 127.501965 240.379172 
L 123.571828 237.652125 
L 119.77439 234.765751 
L 116.09433 231.713548 
L 112.554805 228.512572 
L 109.148207 225.160798 
L 105.885917 221.664207 
L 102.788616 218.044766 
L 99.839459 214.284706 
L 97.088245 210.444192 
L 94.505376 206.505567 
L 92.111489 202.512017 
L 89.868448 198.428699 
L 87.798339 194.303509 
L 85.876295 190.118388 
L 84.105899 185.901067 
L 82.469316 181.638515 
L 80.965931 177.346684 
L 79.584577 173.023325 
L 78.307639 168.622232 
L 77.140535 164.113873 
L 76.113711 159.517082 
L 75.253755 154.867185 
L 74.566745 150.120553 
L 74.084547 145.297604 
L 73.832727 140.406237 
L 73.837633 135.464966 
L 74.12366 130.462252 
L 74.717199 125.45272 
L 75.621228 120.494297 
L 76.820261 115.630135 
L 78.302235 110.851955 
L 80.048207 106.190972 
L 82.044259 101.642498 
L 84.278933 97.213685 
L 86.741405 92.911305 
L 89.424616 88.737489 
L 92.306644 84.71859 
L 95.383059 80.849119 
L 98.654383 77.127653 
L 102.101762 73.578096 
L 105.705179 70.218703 
L 109.501087 67.014086 
L 113.42475 64.035018 
L 117.528268 61.235952 
L 121.744726 58.680432 
L 126.114993 56.340382 
L 130.616707 54.246639 
L 134.332508 52.748985 
L 134.332508 52.748985 
" style="fill:none;stroke:#ffffff;stroke-linecap:square;"/>
   </g>
   <g id="line2d_18">
    <path clip-path="url(#pe7761e886f)" d="M 258.859992 214.806536 
L 257.890691 211.846305 
L 257.144059 208.853112 
L 256.615023 205.858314 
L 256.298599 202.843489 
L 256.187623 199.832664 
L 256.282779 196.801018 
L 256.577288 193.770596 
L 257.064023 190.76351 
L 257.749475 187.760047 
L 258.624207 184.782741 
L 259.676306 181.857623 
L 260.918438 178.963797 
L 262.321731 176.149257 
L 263.913537 173.378681 
L 265.646446 170.711695 
L 267.545612 168.126259 
L 269.59303 165.641681 
L 271.765508 163.281656 
L 274.073207 161.041919 
L 276.514212 158.926695 
L 279.040048 156.96921 
L 281.691798 155.151882 
L 284.426495 153.49761 
L 287.229202 152.014766 
L 290.081205 150.713408 
L 292.983749 149.596976 
L 295.890863 148.676264 
L 298.809202 147.953781 
L 301.723632 147.433788 
L 304.626495 147.117173 
L 307.595468 147.011498 
L 310.623729 147.114878 
L 313.660276 147.419537 
L 316.736837 147.934021 
L 319.809793 148.644996 
L 322.865954 149.547458 
L 325.881773 150.633167 
L 328.862289 151.904014 
L 331.760113 153.331814 
L 334.567633 154.913012 
L 337.274042 156.639761 
L 339.895219 158.522205 
L 342.424338 160.550954 
L 344.845534 162.706821 
L 347.187196 165.021688 
L 349.411668 167.443482 
L 351.537499 170.002185 
L 353.554007 172.676537 
L 355.455692 175.456968 
L 357.242188 178.346438 
L 358.892595 181.300422 
L 360.401989 184.318984 
L 361.752061 187.363603 
L 362.934785 190.423672 
L 363.940948 193.484874 
L 364.765373 196.544898 
L 365.404995 199.591795 
L 365.85334 202.58003 
L 366.106146 205.545994 
L 366.163198 208.46661 
L 366.00934 211.437087 
L 365.653401 214.41393 
L 365.084024 217.430244 
L 364.316391 220.442442 
L 363.341143 223.470628 
L 362.188756 226.45275 
L 360.850363 229.397139 
L 359.33788 232.287404 
L 357.659094 235.10803 
L 355.839143 237.828103 
L 353.871633 240.453569 
L 351.777919 242.960878 
L 349.551873 245.356415 
L 347.218952 247.619332 
L 344.764934 249.757293 
L 342.23722 251.740146 
L 339.610124 253.579255 
L 336.88716 255.274052 
L 334.139323 256.790231 
L 331.275792 258.159222 
L 328.335015 259.370731 
L 325.291941 260.432499 
L 322.130786 261.351631 
L 318.892496 262.125902 
L 315.57632 262.757201 
L 312.171764 263.250332 
L 308.741071 263.607612 
L 305.229116 263.830012 
L 301.709005 263.927227 
L 298.151961 263.897206 
L 294.580998 263.748808 
L 287.426432 263.122403 
L 280.226422 262.07302 
L 272.987445 260.643885 
L 265.730441 258.873982 
L 258.444205 256.804099 
L 251.147815 254.483572 
L 243.820961 251.942387 
L 232.764918 247.811235 
L 214.033785 240.397493 
L 198.602659 234.404164 
L 190.674416 231.51741 
L 182.692471 228.803467 
L 167.745437 223.875345 
L 160.916338 221.339777 
L 157.695496 220.00527 
L 154.61211 218.605544 
L 151.636226 217.110297 
L 148.736692 215.490076 
L 145.877119 213.715924 
L 143.088052 211.812387 
L 140.368671 209.77674 
L 137.742393 207.631679 
L 135.194157 205.360147 
L 132.755857 202.996549 
L 130.424207 200.534906 
L 128.202812 197.977536 
L 126.108518 195.350304 
L 124.115812 192.609235 
L 122.2381 189.788178 
L 120.454747 186.852043 
L 118.779601 183.843766 
L 117.198672 180.731645 
L 115.712541 177.533736 
L 114.317625 174.246596 
L 111.798889 167.452049 
L 109.640402 160.447085 
L 108.726982 156.981449 
L 107.94043 153.547576 
L 107.286541 150.126332 
L 106.775428 146.777536 
L 106.415701 143.488868 
L 106.214177 140.276712 
L 106.176889 137.122556 
L 106.30373 134.07032 
L 106.608783 131.065379 
L 107.105263 128.065997 
L 107.800559 125.053309 
L 108.682451 122.059878 
L 109.761783 119.062586 
L 111.020093 116.098504 
L 112.452647 113.17667 
L 114.05408 110.306501 
L 115.815258 107.502059 
L 117.733818 104.769372 
L 119.789904 102.130119 
L 121.974898 99.59382 
L 124.275273 97.177047 
L 126.702949 94.869641 
L 129.189092 92.72318 
L 131.798439 90.699275 
L 134.438411 88.851565 
L 137.175925 87.148891 
L 139.929635 85.627422 
L 142.721901 84.280608 
L 146.437702 82.782954 
L 146.437702 82.782954 
" style="fill:none;stroke:#ffffff;stroke-linecap:square;"/>
   </g>
   <g id="patch_3">
    <path d="M 57.6 307.584 
L 57.6 41.472 
" style="fill:none;stroke:#000000;stroke-linecap:square;stroke-linejoin:miter;stroke-width:0.8;"/>
   </g>
   <g id="patch_4">
    <path d="M 414.72 307.584 
L 414.72 41.472 
" style="fill:none;stroke:#000000;stroke-linecap:square;stroke-linejoin:miter;stroke-width:0.8;"/>
   </g>
   <g id="patch_5">
    <path d="M 57.6 307.584 
L 414.72 307.584 
" style="fill:none;stroke:#000000;stroke-linecap:square;stroke-linejoin:miter;stroke-width:0.8;"/>
   </g>
   <g id="patch_6">
    <path d="M 57.6 41.472 
L 414.72 41.472 
" style="fill:none;stroke:#000000;stroke-linecap:square;stroke-linejoin:miter;stroke-width:0.8;"/>
   </g>
  </g>
 </g>
 <defs>
  <clipPath id="pe7761e886f">
   <rect height="266.112" width="357.12" x="57.6" y="41.472"/>
  </clipPath>
 </defs>
</svg>
