<?xml version="1.0" encoding="utf-8" standalone="no"?>
<!DOCTYPE svg PUBLIC "-//W3C//DTD SVG 1.1//EN"
  "http://www.w3.org/Graphics/SVG/1.1/DTD/svg11.dtd">
<!-- Created with matplotlib (https://matplotlib.org/) -->
<svg height="345.6pt" version="1.1" viewBox="0 0 460.8 345.6" width="460.8pt" xmlns="http://www.w3.org/2000/svg" xmlns:xlink="http://www.w3.org/1999/xlink">
 <metadata>
  <rdf:RDF xmlns:cc="http://creativecommons.org/ns#" xmlns:dc="http://purl.org/dc/elements/1.1/" xmlns:rdf="http://www.w3.org/1999/02/22-rdf-syntax-ns#">
   <cc:Work>
    <dc:type rdf:resource="http://purl.org/dc/dcmitype/StillImage"/>
    <dc:date>2021-01-22T09:14:38.944958</dc:date>
    <dc:format>image/svg+xml</dc:format>
    <dc:creator>
     <cc:Agent>
      <dc:title>Matplotlib v3.3.3, https://matplotlib.org/</dc:title>
     </cc:Agent>
    </dc:creator>
   </cc:Work>
  </rdf:RDF>
 </metadata>
 <defs>
  <style type="text/css">*{stroke-linecap:butt;stroke-linejoin:round;}</style>
 </defs>
 <g id="figure_1">
  <g id="patch_1">
   <path d="M 0 345.6 
L 460.8 345.6 
L 460.8 0 
L 0 0 
z
" style="fill:#ffffff;"/>
  </g>
  <g id="axes_1">
   <g id="patch_2">
    <path d="M 57.6 307.584 
L 414.72 307.584 
L 414.72 41.472 
L 57.6 41.472 
z
" style="fill:#7d9051;"/>
   </g>
   <g id="matplotlib.axis_1">
    <g id="xtick_1">
     <g id="line2d_1">
      <defs>
       <path d="M 0 0 
L 0 3.5 
" id="maef3260b1e" style="stroke:#000000;stroke-width:0.8;"/>
      </defs>
      <g>
       <use style="stroke:#000000;stroke-width:0.8;" x="113.515776" xlink:href="#maef3260b1e" y="307.584"/>
      </g>
     </g>
     <g id="text_1">
      <!-- 20 -->
      <g transform="translate(107.153276 322.182437)scale(0.1 -0.1)">
       <defs>
        <path d="M 19.1875 8.296875 
L 53.609375 8.296875 
L 53.609375 0 
L 7.328125 0 
L 7.328125 8.296875 
Q 12.9375 14.109375 22.625 23.890625 
Q 32.328125 33.6875 34.8125 36.53125 
Q 39.546875 41.84375 41.421875 45.53125 
Q 43.3125 49.21875 43.3125 52.78125 
Q 43.3125 58.59375 39.234375 62.25 
Q 35.15625 65.921875 28.609375 65.921875 
Q 23.96875 65.921875 18.8125 64.3125 
Q 13.671875 62.703125 7.8125 59.421875 
L 7.8125 69.390625 
Q 13.765625 71.78125 18.9375 73 
Q 24.125 74.21875 28.421875 74.21875 
Q 39.75 74.21875 46.484375 68.546875 
Q 53.21875 62.890625 53.21875 53.421875 
Q 53.21875 48.921875 51.53125 44.890625 
Q 49.859375 40.875 45.40625 35.40625 
Q 44.1875 33.984375 37.640625 27.21875 
Q 31.109375 20.453125 19.1875 8.296875 
z
" id="DejaVuSans-50"/>
        <path d="M 31.78125 66.40625 
Q 24.171875 66.40625 20.328125 58.90625 
Q 16.5 51.421875 16.5 36.375 
Q 16.5 21.390625 20.328125 13.890625 
Q 24.171875 6.390625 31.78125 6.390625 
Q 39.453125 6.390625 43.28125 13.890625 
Q 47.125 21.390625 47.125 36.375 
Q 47.125 51.421875 43.28125 58.90625 
Q 39.453125 66.40625 31.78125 66.40625 
z
M 31.78125 74.21875 
Q 44.046875 74.21875 50.515625 64.515625 
Q 56.984375 54.828125 56.984375 36.375 
Q 56.984375 17.96875 50.515625 8.265625 
Q 44.046875 -1.421875 31.78125 -1.421875 
Q 19.53125 -1.421875 13.0625 8.265625 
Q 6.59375 17.96875 6.59375 36.375 
Q 6.59375 54.828125 13.0625 64.515625 
Q 19.53125 74.21875 31.78125 74.21875 
z
" id="DejaVuSans-48"/>
       </defs>
       <use xlink:href="#DejaVuSans-50"/>
       <use x="63.623047" xlink:href="#DejaVuSans-48"/>
      </g>
     </g>
    </g>
    <g id="xtick_2">
     <g id="line2d_2">
      <g>
       <use style="stroke:#000000;stroke-width:0.8;" x="169.915989" xlink:href="#maef3260b1e" y="307.584"/>
      </g>
     </g>
     <g id="text_2">
      <!-- 40 -->
      <g transform="translate(163.553489 322.182437)scale(0.1 -0.1)">
       <defs>
        <path d="M 37.796875 64.3125 
L 12.890625 25.390625 
L 37.796875 25.390625 
z
M 35.203125 72.90625 
L 47.609375 72.90625 
L 47.609375 25.390625 
L 58.015625 25.390625 
L 58.015625 17.1875 
L 47.609375 17.1875 
L 47.609375 0 
L 37.796875 0 
L 37.796875 17.1875 
L 4.890625 17.1875 
L 4.890625 26.703125 
z
" id="DejaVuSans-52"/>
       </defs>
       <use xlink:href="#DejaVuSans-52"/>
       <use x="63.623047" xlink:href="#DejaVuSans-48"/>
      </g>
     </g>
    </g>
    <g id="xtick_3">
     <g id="line2d_3">
      <g>
       <use style="stroke:#000000;stroke-width:0.8;" x="226.316202" xlink:href="#maef3260b1e" y="307.584"/>
      </g>
     </g>
     <g id="text_3">
      <!-- 60 -->
      <g transform="translate(219.953702 322.182437)scale(0.1 -0.1)">
       <defs>
        <path d="M 33.015625 40.375 
Q 26.375 40.375 22.484375 35.828125 
Q 18.609375 31.296875 18.609375 23.390625 
Q 18.609375 15.53125 22.484375 10.953125 
Q 26.375 6.390625 33.015625 6.390625 
Q 39.65625 6.390625 43.53125 10.953125 
Q 47.40625 15.53125 47.40625 23.390625 
Q 47.40625 31.296875 43.53125 35.828125 
Q 39.65625 40.375 33.015625 40.375 
z
M 52.59375 71.296875 
L 52.59375 62.3125 
Q 48.875 64.0625 45.09375 64.984375 
Q 41.3125 65.921875 37.59375 65.921875 
Q 27.828125 65.921875 22.671875 59.328125 
Q 17.53125 52.734375 16.796875 39.40625 
Q 19.671875 43.65625 24.015625 45.921875 
Q 28.375 48.1875 33.59375 48.1875 
Q 44.578125 48.1875 50.953125 41.515625 
Q 57.328125 34.859375 57.328125 23.390625 
Q 57.328125 12.15625 50.6875 5.359375 
Q 44.046875 -1.421875 33.015625 -1.421875 
Q 20.359375 -1.421875 13.671875 8.265625 
Q 6.984375 17.96875 6.984375 36.375 
Q 6.984375 53.65625 15.1875 63.9375 
Q 23.390625 74.21875 37.203125 74.21875 
Q 40.921875 74.21875 44.703125 73.484375 
Q 48.484375 72.75 52.59375 71.296875 
z
" id="DejaVuSans-54"/>
       </defs>
       <use xlink:href="#DejaVuSans-54"/>
       <use x="63.623047" xlink:href="#DejaVuSans-48"/>
      </g>
     </g>
    </g>
    <g id="xtick_4">
     <g id="line2d_4">
      <g>
       <use style="stroke:#000000;stroke-width:0.8;" x="282.716415" xlink:href="#maef3260b1e" y="307.584"/>
      </g>
     </g>
     <g id="text_4">
      <!-- 80 -->
      <g transform="translate(276.353915 322.182437)scale(0.1 -0.1)">
       <defs>
        <path d="M 31.78125 34.625 
Q 24.75 34.625 20.71875 30.859375 
Q 16.703125 27.09375 16.703125 20.515625 
Q 16.703125 13.921875 20.71875 10.15625 
Q 24.75 6.390625 31.78125 6.390625 
Q 38.8125 6.390625 42.859375 10.171875 
Q 46.921875 13.96875 46.921875 20.515625 
Q 46.921875 27.09375 42.890625 30.859375 
Q 38.875 34.625 31.78125 34.625 
z
M 21.921875 38.8125 
Q 15.578125 40.375 12.03125 44.71875 
Q 8.5 49.078125 8.5 55.328125 
Q 8.5 64.0625 14.71875 69.140625 
Q 20.953125 74.21875 31.78125 74.21875 
Q 42.671875 74.21875 48.875 69.140625 
Q 55.078125 64.0625 55.078125 55.328125 
Q 55.078125 49.078125 51.53125 44.71875 
Q 48 40.375 41.703125 38.8125 
Q 48.828125 37.15625 52.796875 32.3125 
Q 56.78125 27.484375 56.78125 20.515625 
Q 56.78125 9.90625 50.3125 4.234375 
Q 43.84375 -1.421875 31.78125 -1.421875 
Q 19.734375 -1.421875 13.25 4.234375 
Q 6.78125 9.90625 6.78125 20.515625 
Q 6.78125 27.484375 10.78125 32.3125 
Q 14.796875 37.15625 21.921875 38.8125 
z
M 18.3125 54.390625 
Q 18.3125 48.734375 21.84375 45.5625 
Q 25.390625 42.390625 31.78125 42.390625 
Q 38.140625 42.390625 41.71875 45.5625 
Q 45.3125 48.734375 45.3125 54.390625 
Q 45.3125 60.0625 41.71875 63.234375 
Q 38.140625 66.40625 31.78125 66.40625 
Q 25.390625 66.40625 21.84375 63.234375 
Q 18.3125 60.0625 18.3125 54.390625 
z
" id="DejaVuSans-56"/>
       </defs>
       <use xlink:href="#DejaVuSans-56"/>
       <use x="63.623047" xlink:href="#DejaVuSans-48"/>
      </g>
     </g>
    </g>
    <g id="xtick_5">
     <g id="line2d_5">
      <g>
       <use style="stroke:#000000;stroke-width:0.8;" x="339.116627" xlink:href="#maef3260b1e" y="307.584"/>
      </g>
     </g>
     <g id="text_5">
      <!-- 100 -->
      <g transform="translate(329.572877 322.182437)scale(0.1 -0.1)">
       <defs>
        <path d="M 12.40625 8.296875 
L 28.515625 8.296875 
L 28.515625 63.921875 
L 10.984375 60.40625 
L 10.984375 69.390625 
L 28.421875 72.90625 
L 38.28125 72.90625 
L 38.28125 8.296875 
L 54.390625 8.296875 
L 54.390625 0 
L 12.40625 0 
z
" id="DejaVuSans-49"/>
       </defs>
       <use xlink:href="#DejaVuSans-49"/>
       <use x="63.623047" xlink:href="#DejaVuSans-48"/>
       <use x="127.246094" xlink:href="#DejaVuSans-48"/>
      </g>
     </g>
    </g>
    <g id="xtick_6">
     <g id="line2d_6">
      <g>
       <use style="stroke:#000000;stroke-width:0.8;" x="395.51684" xlink:href="#maef3260b1e" y="307.584"/>
      </g>
     </g>
     <g id="text_6">
      <!-- 120 -->
      <g transform="translate(385.97309 322.182437)scale(0.1 -0.1)">
       <use xlink:href="#DejaVuSans-49"/>
       <use x="63.623047" xlink:href="#DejaVuSans-50"/>
       <use x="127.246094" xlink:href="#DejaVuSans-48"/>
      </g>
     </g>
    </g>
   </g>
   <g id="matplotlib.axis_2">
    <g id="ytick_1">
     <g id="line2d_7">
      <defs>
       <path d="M 0 0 
L -3.5 0 
" id="m44c6fea8ab" style="stroke:#000000;stroke-width:0.8;"/>
      </defs>
      <g>
       <use style="stroke:#000000;stroke-width:0.8;" x="57.6" xlink:href="#m44c6fea8ab" y="303.803278"/>
      </g>
     </g>
     <g id="text_7">
      <!-- 0 -->
      <g transform="translate(44.2375 307.602497)scale(0.1 -0.1)">
       <use xlink:href="#DejaVuSans-48"/>
      </g>
     </g>
    </g>
    <g id="ytick_2">
     <g id="line2d_8">
      <g>
       <use style="stroke:#000000;stroke-width:0.8;" x="57.6" xlink:href="#m44c6fea8ab" y="247.403065"/>
      </g>
     </g>
     <g id="text_8">
      <!-- 20 -->
      <g transform="translate(37.875 251.202284)scale(0.1 -0.1)">
       <use xlink:href="#DejaVuSans-50"/>
       <use x="63.623047" xlink:href="#DejaVuSans-48"/>
      </g>
     </g>
    </g>
    <g id="ytick_3">
     <g id="line2d_9">
      <g>
       <use style="stroke:#000000;stroke-width:0.8;" x="57.6" xlink:href="#m44c6fea8ab" y="191.002853"/>
      </g>
     </g>
     <g id="text_9">
      <!-- 40 -->
      <g transform="translate(37.875 194.802071)scale(0.1 -0.1)">
       <use xlink:href="#DejaVuSans-52"/>
       <use x="63.623047" xlink:href="#DejaVuSans-48"/>
      </g>
     </g>
    </g>
    <g id="ytick_4">
     <g id="line2d_10">
      <g>
       <use style="stroke:#000000;stroke-width:0.8;" x="57.6" xlink:href="#m44c6fea8ab" y="134.60264"/>
      </g>
     </g>
     <g id="text_10">
      <!-- 60 -->
      <g transform="translate(37.875 138.401858)scale(0.1 -0.1)">
       <use xlink:href="#DejaVuSans-54"/>
       <use x="63.623047" xlink:href="#DejaVuSans-48"/>
      </g>
     </g>
    </g>
    <g id="ytick_5">
     <g id="line2d_11">
      <g>
       <use style="stroke:#000000;stroke-width:0.8;" x="57.6" xlink:href="#m44c6fea8ab" y="78.202427"/>
      </g>
     </g>
     <g id="text_11">
      <!-- 80 -->
      <g transform="translate(37.875 82.001646)scale(0.1 -0.1)">
       <use xlink:href="#DejaVuSans-56"/>
       <use x="63.623047" xlink:href="#DejaVuSans-48"/>
      </g>
     </g>
    </g>
   </g>
   <g id="line2d_12">
    <path clip-path="url(#p4af5626e27)" d="M 85.31567 219.38062 
L 85.135189 210.917768 
L 85.157749 199.637725 
L 85.42565 188.360503 
L 86.026312 174.271729 
L 87.010496 157.385506 
L 87.712679 148.959314 
L 88.378201 143.358773 
L 89.280605 137.775152 
L 90.473469 132.214091 
L 92.010375 126.71225 
L 93.927982 121.34013 
L 95.041886 118.72598 
L 96.268591 116.17105 
L 97.608096 113.683801 
L 99.068862 111.272692 
L 100.653707 108.946183 
L 102.365454 106.715554 
L 104.195641 104.575166 
L 106.135808 102.522199 
L 108.177496 100.559471 
L 112.511852 96.876537 
L 117.12257 93.509445 
L 121.925048 90.432813 
L 126.851606 87.629722 
L 131.885325 85.077613 
L 137.026205 82.768024 
L 142.271425 80.681216 
L 147.615345 78.803089 
L 153.055145 77.136463 
L 158.573906 75.746198 
L 164.154707 74.719714 
L 166.960618 74.367212 
L 169.774988 74.135972 
L 172.594999 74.040091 
L 175.41783 74.085211 
L 178.24066 74.282612 
L 181.057851 74.629473 
L 183.858121 75.125795 
L 186.633012 75.765938 
L 189.379702 76.547081 
L 192.084093 77.469224 
L 194.740543 78.526728 
L 197.337772 79.719593 
L 199.872962 81.039358 
L 202.334831 82.491663 
L 204.71774 84.065229 
L 207.013229 85.757235 
L 209.224117 87.562042 
L 211.341945 89.471189 
L 213.366713 91.479037 
L 215.28996 93.577125 
L 217.117327 95.759813 
L 218.837533 98.021462 
L 220.44776 100.35361 
L 221.950825 102.750619 
L 223.34109 105.206849 
L 225.81706 110.268768 
L 227.957448 115.494248 
L 229.846855 120.829708 
L 232.387685 128.948518 
L 236.48234 142.464829 
L 238.275867 147.80311 
L 240.263974 153.079349 
L 242.511523 158.270989 
L 245.057992 163.347008 
L 247.914663 168.259467 
L 251.092815 172.951964 
L 254.606548 177.382201 
L 256.490316 179.480289 
L 258.458683 181.493777 
L 262.629479 185.289511 
L 267.065355 188.797604 
L 271.704273 192.057537 
L 276.492651 195.105968 
L 281.374089 197.982379 
L 288.790717 202.071394 
L 306.125323 211.47613 
L 313.39813 215.813306 
L 318.158308 218.853278 
L 322.831066 222.02015 
L 327.402303 225.319562 
L 331.86638 228.759975 
L 338.389065 234.143375 
L 344.748189 239.732636 
L 353.08132 247.383325 
L 361.437012 254.994534 
L 365.712148 258.663368 
L 370.094444 262.171461 
L 374.623381 265.473694 
L 379.332799 268.519305 
L 384.256538 271.254715 
L 386.811467 272.4927 
L 389.431257 273.631984 
L 392.124367 274.672568 
L 394.890798 275.603172 
L 394.890798 275.603172 
" style="fill:none;stroke:#fea952;stroke-linecap:square;"/>
   </g>
   <g id="line2d_13">
    <path clip-path="url(#p4af5626e27)" d="M 74.040046 219.696337 
L 73.855423 210.996726 
L 73.87915 199.457268 
L 74.152524 187.965548 
L 74.762111 173.674129 
L 75.759753 156.573015 
L 76.499851 147.729738 
L 77.221886 141.692643 
L 78.218323 135.569413 
L 79.559652 129.363134 
L 81.31589 123.125141 
L 82.369948 120.0089 
L 83.550745 116.91833 
L 84.873193 113.84366 
L 86.337201 110.822512 
L 87.960519 107.838836 
L 89.746353 104.922086 
L 91.70489 102.079012 
L 93.792243 99.384838 
L 95.9974 96.827379 
L 98.31841 94.390308 
L 100.709193 92.105844 
L 103.16913 89.943776 
L 105.709977 87.87799 
L 110.906718 84.096552 
L 116.232306 80.694638 
L 121.636537 77.627602 
L 127.145453 74.841746 
L 132.739842 72.334115 
L 138.425579 70.077027 
L 144.18965 68.055812 
L 150.138267 66.240079 
L 156.333712 64.690842 
L 159.517385 64.053214 
L 162.748668 63.527644 
L 166.036913 63.125054 
L 169.391688 62.862443 
L 172.775276 62.761489 
L 176.204722 62.832649 
L 179.619086 63.087108 
L 183.026451 63.52254 
L 186.39373 64.134433 
L 189.718634 64.916131 
L 193.020158 65.870637 
L 196.256126 66.989076 
L 199.448472 68.27613 
L 202.546406 69.714119 
L 205.604325 71.323863 
L 208.550682 73.07877 
L 211.410573 74.985286 
L 214.146463 77.019024 
L 216.776845 79.183757 
L 219.284603 81.461599 
L 221.681843 83.856834 
L 223.939019 86.336052 
L 226.095481 88.931042 
L 228.11997 91.612427 
L 230.004363 94.361058 
L 231.767451 97.194252 
L 233.384723 100.072182 
L 234.843093 102.940312 
L 237.426291 108.743827 
L 239.603122 114.499487 
L 241.493642 120.174125 
L 244.804121 131.129822 
L 247.201463 138.952029 
L 248.871165 143.932836 
L 250.677986 148.744869 
L 252.669179 153.365748 
L 254.901043 157.837587 
L 257.36696 162.103701 
L 260.065319 166.115771 
L 262.999907 169.846228 
L 266.20018 173.289596 
L 269.759539 176.54871 
L 273.670534 179.6537 
L 277.854915 182.601905 
L 282.289588 185.429456 
L 286.912272 188.155482 
L 294.117708 192.12843 
L 311.795687 201.724908 
L 319.400817 206.263065 
L 324.412749 209.465982 
L 329.363955 212.824459 
L 334.220797 216.3336 
L 338.939073 219.97269 
L 345.756929 225.602068 
L 352.314645 231.366748 
L 360.742155 239.103774 
L 368.840971 246.484496 
L 372.849543 249.928555 
L 376.855208 253.141985 
L 380.8935 256.096862 
L 384.98763 258.759067 
L 389.175247 261.103575 
L 393.496794 263.110066 
L 395.720842 263.981229 
L 398.487273 264.911833 
L 398.487273 264.911833 
" style="fill:none;stroke:#ffffff;stroke-linecap:square;"/>
   </g>
   <g id="line2d_14">
    <path clip-path="url(#p4af5626e27)" d="M 96.591293 219.064902 
L 96.414955 210.838809 
L 96.436348 199.818183 
L 96.698776 188.755457 
L 97.290514 174.86933 
L 98.261239 158.197997 
L 98.925506 150.18889 
L 99.534516 145.024903 
L 100.342886 139.98089 
L 101.387286 135.065047 
L 102.70486 130.299358 
L 104.305219 125.76193 
L 106.199981 121.519588 
L 108.39137 117.623297 
L 109.602525 115.813354 
L 110.938665 114.046271 
L 112.393881 112.322954 
L 113.953206 110.65409 
L 117.444077 107.413273 
L 121.289115 104.374231 
L 125.457768 101.517612 
L 129.838434 98.86925 
L 134.341622 96.442392 
L 138.94774 94.234744 
L 143.687786 92.223147 
L 148.564988 90.395315 
L 153.505403 88.76185 
L 158.398198 87.378277 
L 163.197129 86.311177 
L 167.884322 85.609371 
L 172.414722 85.318693 
L 174.630937 85.337774 
L 176.862235 85.478116 
L 179.08925 85.736407 
L 181.322512 86.117158 
L 183.547389 86.615744 
L 185.739247 87.223524 
L 187.912059 87.949372 
L 190.032613 88.777326 
L 194.141599 90.754852 
L 196.11898 91.904556 
L 198.024908 93.145171 
L 199.879995 94.495447 
L 201.671389 95.940327 
L 205.051583 99.10124 
L 208.139173 102.588584 
L 210.891156 106.346163 
L 213.297458 110.341515 
L 215.443823 114.699944 
L 217.36543 119.37349 
L 219.119068 124.315958 
L 221.577511 132.170242 
L 225.763217 145.977629 
L 227.680569 151.673383 
L 229.849963 157.41383 
L 232.353867 163.17623 
L 235.214942 168.856429 
L 238.462367 174.415233 
L 240.239329 177.130274 
L 242.120312 179.788158 
L 244.107778 182.382601 
L 246.21319 184.918174 
L 248.424257 187.365596 
L 250.717186 189.697958 
L 253.068109 191.906217 
L 255.499418 194.030312 
L 260.460177 197.941508 
L 265.553631 201.513168 
L 270.695714 204.78248 
L 275.835907 207.809275 
L 283.463727 212.014358 
L 300.454959 221.227352 
L 307.395443 225.363547 
L 314.105432 229.705712 
L 318.459257 232.749577 
L 322.69444 235.905462 
L 328.951353 240.935244 
L 335.12247 246.257283 
L 343.332861 253.7256 
L 354.033053 263.504572 
L 358.574752 267.39818 
L 363.333681 271.200937 
L 368.353263 274.850525 
L 373.677968 278.279543 
L 376.466409 279.886656 
L 379.337828 281.405856 
L 382.313006 282.836935 
L 385.36572 284.153903 
L 388.527893 285.363907 
L 391.294323 286.294511 
L 391.294323 286.294511 
" style="fill:none;stroke:#ffffff;stroke-linecap:square;"/>
   </g>
   <g id="patch_3">
    <path d="M 57.6 307.584 
L 57.6 41.472 
" style="fill:none;stroke:#000000;stroke-linecap:square;stroke-linejoin:miter;stroke-width:0.8;"/>
   </g>
   <g id="patch_4">
    <path d="M 414.72 307.584 
L 414.72 41.472 
" style="fill:none;stroke:#000000;stroke-linecap:square;stroke-linejoin:miter;stroke-width:0.8;"/>
   </g>
   <g id="patch_5">
    <path d="M 57.6 307.584 
L 414.72 307.584 
" style="fill:none;stroke:#000000;stroke-linecap:square;stroke-linejoin:miter;stroke-width:0.8;"/>
   </g>
   <g id="patch_6">
    <path d="M 57.6 41.472 
L 414.72 41.472 
" style="fill:none;stroke:#000000;stroke-linecap:square;stroke-linejoin:miter;stroke-width:0.8;"/>
   </g>
  </g>
 </g>
 <defs>
  <clipPath id="p4af5626e27">
   <rect height="266.112" width="357.12" x="57.6" y="41.472"/>
  </clipPath>
 </defs>
</svg>
