<?xml version="1.0" encoding="utf-8" standalone="no"?>
<!DOCTYPE svg PUBLIC "-//W3C//DTD SVG 1.1//EN"
  "http://www.w3.org/Graphics/SVG/1.1/DTD/svg11.dtd">
<!-- Created with matplotlib (https://matplotlib.org/) -->
<svg height="345.6pt" version="1.1" viewBox="0 0 460.8 345.6" width="460.8pt" xmlns="http://www.w3.org/2000/svg" xmlns:xlink="http://www.w3.org/1999/xlink">
 <metadata>
  <rdf:RDF xmlns:cc="http://creativecommons.org/ns#" xmlns:dc="http://purl.org/dc/elements/1.1/" xmlns:rdf="http://www.w3.org/1999/02/22-rdf-syntax-ns#">
   <cc:Work>
    <dc:type rdf:resource="http://purl.org/dc/dcmitype/StillImage"/>
    <dc:date>2021-01-22T09:26:38.580763</dc:date>
    <dc:format>image/svg+xml</dc:format>
    <dc:creator>
     <cc:Agent>
      <dc:title>Matplotlib v3.3.3, https://matplotlib.org/</dc:title>
     </cc:Agent>
    </dc:creator>
   </cc:Work>
  </rdf:RDF>
 </metadata>
 <defs>
  <style type="text/css">*{stroke-linecap:butt;stroke-linejoin:round;}</style>
 </defs>
 <g id="figure_1">
  <g id="patch_1">
   <path d="M 0 345.6 
L 460.8 345.6 
L 460.8 0 
L 0 0 
z
" style="fill:#ffffff;"/>
  </g>
  <g id="axes_1">
   <g id="patch_2">
    <path d="M 57.6 307.584 
L 414.72 307.584 
L 414.72 41.472 
L 57.6 41.472 
z
" style="fill:#7d9051;"/>
   </g>
   <g id="matplotlib.axis_1">
    <g id="xtick_1">
     <g id="line2d_1">
      <defs>
       <path d="M 0 0 
L 0 3.5 
" id="m29b37b1833" style="stroke:#000000;stroke-width:0.8;"/>
      </defs>
      <g>
       <use style="stroke:#000000;stroke-width:0.8;" x="58.528792" xlink:href="#m29b37b1833" y="307.584"/>
      </g>
     </g>
     <g id="text_1">
      <!-- −40 -->
      <g transform="translate(47.976448 322.182437)scale(0.1 -0.1)">
       <defs>
        <path d="M 10.59375 35.5 
L 73.1875 35.5 
L 73.1875 27.203125 
L 10.59375 27.203125 
z
" id="DejaVuSans-8722"/>
        <path d="M 37.796875 64.3125 
L 12.890625 25.390625 
L 37.796875 25.390625 
z
M 35.203125 72.90625 
L 47.609375 72.90625 
L 47.609375 25.390625 
L 58.015625 25.390625 
L 58.015625 17.1875 
L 47.609375 17.1875 
L 47.609375 0 
L 37.796875 0 
L 37.796875 17.1875 
L 4.890625 17.1875 
L 4.890625 26.703125 
z
" id="DejaVuSans-52"/>
        <path d="M 31.78125 66.40625 
Q 24.171875 66.40625 20.328125 58.90625 
Q 16.5 51.421875 16.5 36.375 
Q 16.5 21.390625 20.328125 13.890625 
Q 24.171875 6.390625 31.78125 6.390625 
Q 39.453125 6.390625 43.28125 13.890625 
Q 47.125 21.390625 47.125 36.375 
Q 47.125 51.421875 43.28125 58.90625 
Q 39.453125 66.40625 31.78125 66.40625 
z
M 31.78125 74.21875 
Q 44.046875 74.21875 50.515625 64.515625 
Q 56.984375 54.828125 56.984375 36.375 
Q 56.984375 17.96875 50.515625 8.265625 
Q 44.046875 -1.421875 31.78125 -1.421875 
Q 19.53125 -1.421875 13.0625 8.265625 
Q 6.59375 17.96875 6.59375 36.375 
Q 6.59375 54.828125 13.0625 64.515625 
Q 19.53125 74.21875 31.78125 74.21875 
z
" id="DejaVuSans-48"/>
       </defs>
       <use xlink:href="#DejaVuSans-8722"/>
       <use x="83.789062" xlink:href="#DejaVuSans-52"/>
       <use x="147.412109" xlink:href="#DejaVuSans-48"/>
      </g>
     </g>
    </g>
    <g id="xtick_2">
     <g id="line2d_2">
      <g>
       <use style="stroke:#000000;stroke-width:0.8;" x="100.501029" xlink:href="#m29b37b1833" y="307.584"/>
      </g>
     </g>
     <g id="text_2">
      <!-- −20 -->
      <g transform="translate(89.948685 322.182437)scale(0.1 -0.1)">
       <defs>
        <path d="M 19.1875 8.296875 
L 53.609375 8.296875 
L 53.609375 0 
L 7.328125 0 
L 7.328125 8.296875 
Q 12.9375 14.109375 22.625 23.890625 
Q 32.328125 33.6875 34.8125 36.53125 
Q 39.546875 41.84375 41.421875 45.53125 
Q 43.3125 49.21875 43.3125 52.78125 
Q 43.3125 58.59375 39.234375 62.25 
Q 35.15625 65.921875 28.609375 65.921875 
Q 23.96875 65.921875 18.8125 64.3125 
Q 13.671875 62.703125 7.8125 59.421875 
L 7.8125 69.390625 
Q 13.765625 71.78125 18.9375 73 
Q 24.125 74.21875 28.421875 74.21875 
Q 39.75 74.21875 46.484375 68.546875 
Q 53.21875 62.890625 53.21875 53.421875 
Q 53.21875 48.921875 51.53125 44.890625 
Q 49.859375 40.875 45.40625 35.40625 
Q 44.1875 33.984375 37.640625 27.21875 
Q 31.109375 20.453125 19.1875 8.296875 
z
" id="DejaVuSans-50"/>
       </defs>
       <use xlink:href="#DejaVuSans-8722"/>
       <use x="83.789062" xlink:href="#DejaVuSans-50"/>
       <use x="147.412109" xlink:href="#DejaVuSans-48"/>
      </g>
     </g>
    </g>
    <g id="xtick_3">
     <g id="line2d_3">
      <g>
       <use style="stroke:#000000;stroke-width:0.8;" x="142.473267" xlink:href="#m29b37b1833" y="307.584"/>
      </g>
     </g>
     <g id="text_3">
      <!-- 0 -->
      <g transform="translate(139.292017 322.182437)scale(0.1 -0.1)">
       <use xlink:href="#DejaVuSans-48"/>
      </g>
     </g>
    </g>
    <g id="xtick_4">
     <g id="line2d_4">
      <g>
       <use style="stroke:#000000;stroke-width:0.8;" x="184.445504" xlink:href="#m29b37b1833" y="307.584"/>
      </g>
     </g>
     <g id="text_4">
      <!-- 20 -->
      <g transform="translate(178.083004 322.182437)scale(0.1 -0.1)">
       <use xlink:href="#DejaVuSans-50"/>
       <use x="63.623047" xlink:href="#DejaVuSans-48"/>
      </g>
     </g>
    </g>
    <g id="xtick_5">
     <g id="line2d_5">
      <g>
       <use style="stroke:#000000;stroke-width:0.8;" x="226.417741" xlink:href="#m29b37b1833" y="307.584"/>
      </g>
     </g>
     <g id="text_5">
      <!-- 40 -->
      <g transform="translate(220.055241 322.182437)scale(0.1 -0.1)">
       <use xlink:href="#DejaVuSans-52"/>
       <use x="63.623047" xlink:href="#DejaVuSans-48"/>
      </g>
     </g>
    </g>
    <g id="xtick_6">
     <g id="line2d_6">
      <g>
       <use style="stroke:#000000;stroke-width:0.8;" x="268.389979" xlink:href="#m29b37b1833" y="307.584"/>
      </g>
     </g>
     <g id="text_6">
      <!-- 60 -->
      <g transform="translate(262.027479 322.182437)scale(0.1 -0.1)">
       <defs>
        <path d="M 33.015625 40.375 
Q 26.375 40.375 22.484375 35.828125 
Q 18.609375 31.296875 18.609375 23.390625 
Q 18.609375 15.53125 22.484375 10.953125 
Q 26.375 6.390625 33.015625 6.390625 
Q 39.65625 6.390625 43.53125 10.953125 
Q 47.40625 15.53125 47.40625 23.390625 
Q 47.40625 31.296875 43.53125 35.828125 
Q 39.65625 40.375 33.015625 40.375 
z
M 52.59375 71.296875 
L 52.59375 62.3125 
Q 48.875 64.0625 45.09375 64.984375 
Q 41.3125 65.921875 37.59375 65.921875 
Q 27.828125 65.921875 22.671875 59.328125 
Q 17.53125 52.734375 16.796875 39.40625 
Q 19.671875 43.65625 24.015625 45.921875 
Q 28.375 48.1875 33.59375 48.1875 
Q 44.578125 48.1875 50.953125 41.515625 
Q 57.328125 34.859375 57.328125 23.390625 
Q 57.328125 12.15625 50.6875 5.359375 
Q 44.046875 -1.421875 33.015625 -1.421875 
Q 20.359375 -1.421875 13.671875 8.265625 
Q 6.984375 17.96875 6.984375 36.375 
Q 6.984375 53.65625 15.1875 63.9375 
Q 23.390625 74.21875 37.203125 74.21875 
Q 40.921875 74.21875 44.703125 73.484375 
Q 48.484375 72.75 52.59375 71.296875 
z
" id="DejaVuSans-54"/>
       </defs>
       <use xlink:href="#DejaVuSans-54"/>
       <use x="63.623047" xlink:href="#DejaVuSans-48"/>
      </g>
     </g>
    </g>
    <g id="xtick_7">
     <g id="line2d_7">
      <g>
       <use style="stroke:#000000;stroke-width:0.8;" x="310.362216" xlink:href="#m29b37b1833" y="307.584"/>
      </g>
     </g>
     <g id="text_7">
      <!-- 80 -->
      <g transform="translate(303.999716 322.182437)scale(0.1 -0.1)">
       <defs>
        <path d="M 31.78125 34.625 
Q 24.75 34.625 20.71875 30.859375 
Q 16.703125 27.09375 16.703125 20.515625 
Q 16.703125 13.921875 20.71875 10.15625 
Q 24.75 6.390625 31.78125 6.390625 
Q 38.8125 6.390625 42.859375 10.171875 
Q 46.921875 13.96875 46.921875 20.515625 
Q 46.921875 27.09375 42.890625 30.859375 
Q 38.875 34.625 31.78125 34.625 
z
M 21.921875 38.8125 
Q 15.578125 40.375 12.03125 44.71875 
Q 8.5 49.078125 8.5 55.328125 
Q 8.5 64.0625 14.71875 69.140625 
Q 20.953125 74.21875 31.78125 74.21875 
Q 42.671875 74.21875 48.875 69.140625 
Q 55.078125 64.0625 55.078125 55.328125 
Q 55.078125 49.078125 51.53125 44.71875 
Q 48 40.375 41.703125 38.8125 
Q 48.828125 37.15625 52.796875 32.3125 
Q 56.78125 27.484375 56.78125 20.515625 
Q 56.78125 9.90625 50.3125 4.234375 
Q 43.84375 -1.421875 31.78125 -1.421875 
Q 19.734375 -1.421875 13.25 4.234375 
Q 6.78125 9.90625 6.78125 20.515625 
Q 6.78125 27.484375 10.78125 32.3125 
Q 14.796875 37.15625 21.921875 38.8125 
z
M 18.3125 54.390625 
Q 18.3125 48.734375 21.84375 45.5625 
Q 25.390625 42.390625 31.78125 42.390625 
Q 38.140625 42.390625 41.71875 45.5625 
Q 45.3125 48.734375 45.3125 54.390625 
Q 45.3125 60.0625 41.71875 63.234375 
Q 38.140625 66.40625 31.78125 66.40625 
Q 25.390625 66.40625 21.84375 63.234375 
Q 18.3125 60.0625 18.3125 54.390625 
z
" id="DejaVuSans-56"/>
       </defs>
       <use xlink:href="#DejaVuSans-56"/>
       <use x="63.623047" xlink:href="#DejaVuSans-48"/>
      </g>
     </g>
    </g>
    <g id="xtick_8">
     <g id="line2d_8">
      <g>
       <use style="stroke:#000000;stroke-width:0.8;" x="352.334453" xlink:href="#m29b37b1833" y="307.584"/>
      </g>
     </g>
     <g id="text_8">
      <!-- 100 -->
      <g transform="translate(342.790703 322.182437)scale(0.1 -0.1)">
       <defs>
        <path d="M 12.40625 8.296875 
L 28.515625 8.296875 
L 28.515625 63.921875 
L 10.984375 60.40625 
L 10.984375 69.390625 
L 28.421875 72.90625 
L 38.28125 72.90625 
L 38.28125 8.296875 
L 54.390625 8.296875 
L 54.390625 0 
L 12.40625 0 
z
" id="DejaVuSans-49"/>
       </defs>
       <use xlink:href="#DejaVuSans-49"/>
       <use x="63.623047" xlink:href="#DejaVuSans-48"/>
       <use x="127.246094" xlink:href="#DejaVuSans-48"/>
      </g>
     </g>
    </g>
    <g id="xtick_9">
     <g id="line2d_9">
      <g>
       <use style="stroke:#000000;stroke-width:0.8;" x="394.306691" xlink:href="#m29b37b1833" y="307.584"/>
      </g>
     </g>
     <g id="text_9">
      <!-- 120 -->
      <g transform="translate(384.762941 322.182437)scale(0.1 -0.1)">
       <use xlink:href="#DejaVuSans-49"/>
       <use x="63.623047" xlink:href="#DejaVuSans-50"/>
       <use x="127.246094" xlink:href="#DejaVuSans-48"/>
      </g>
     </g>
    </g>
   </g>
   <g id="matplotlib.axis_2">
    <g id="ytick_1">
     <g id="line2d_10">
      <defs>
       <path d="M 0 0 
L -3.5 0 
" id="m2fe6e23e90" style="stroke:#000000;stroke-width:0.8;"/>
      </defs>
      <g>
       <use style="stroke:#000000;stroke-width:0.8;" x="57.6" xlink:href="#m2fe6e23e90" y="273.06391"/>
      </g>
     </g>
     <g id="text_10">
      <!-- 20 -->
      <g transform="translate(37.875 276.863128)scale(0.1 -0.1)">
       <use xlink:href="#DejaVuSans-50"/>
       <use x="63.623047" xlink:href="#DejaVuSans-48"/>
      </g>
     </g>
    </g>
    <g id="ytick_2">
     <g id="line2d_11">
      <g>
       <use style="stroke:#000000;stroke-width:0.8;" x="57.6" xlink:href="#m2fe6e23e90" y="231.091672"/>
      </g>
     </g>
     <g id="text_11">
      <!-- 40 -->
      <g transform="translate(37.875 234.890891)scale(0.1 -0.1)">
       <use xlink:href="#DejaVuSans-52"/>
       <use x="63.623047" xlink:href="#DejaVuSans-48"/>
      </g>
     </g>
    </g>
    <g id="ytick_3">
     <g id="line2d_12">
      <g>
       <use style="stroke:#000000;stroke-width:0.8;" x="57.6" xlink:href="#m2fe6e23e90" y="189.119435"/>
      </g>
     </g>
     <g id="text_12">
      <!-- 60 -->
      <g transform="translate(37.875 192.918654)scale(0.1 -0.1)">
       <use xlink:href="#DejaVuSans-54"/>
       <use x="63.623047" xlink:href="#DejaVuSans-48"/>
      </g>
     </g>
    </g>
    <g id="ytick_4">
     <g id="line2d_13">
      <g>
       <use style="stroke:#000000;stroke-width:0.8;" x="57.6" xlink:href="#m2fe6e23e90" y="147.147198"/>
      </g>
     </g>
     <g id="text_13">
      <!-- 80 -->
      <g transform="translate(37.875 150.946416)scale(0.1 -0.1)">
       <use xlink:href="#DejaVuSans-56"/>
       <use x="63.623047" xlink:href="#DejaVuSans-48"/>
      </g>
     </g>
    </g>
    <g id="ytick_5">
     <g id="line2d_14">
      <g>
       <use style="stroke:#000000;stroke-width:0.8;" x="57.6" xlink:href="#m2fe6e23e90" y="105.17496"/>
      </g>
     </g>
     <g id="text_14">
      <!-- 100 -->
      <g transform="translate(31.5125 108.974179)scale(0.1 -0.1)">
       <use xlink:href="#DejaVuSans-49"/>
       <use x="63.623047" xlink:href="#DejaVuSans-48"/>
       <use x="127.246094" xlink:href="#DejaVuSans-48"/>
      </g>
     </g>
    </g>
    <g id="ytick_6">
     <g id="line2d_15">
      <g>
       <use style="stroke:#000000;stroke-width:0.8;" x="57.6" xlink:href="#m2fe6e23e90" y="63.202723"/>
      </g>
     </g>
     <g id="text_15">
      <!-- 120 -->
      <g transform="translate(31.5125 67.001942)scale(0.1 -0.1)">
       <use xlink:href="#DejaVuSans-49"/>
       <use x="63.623047" xlink:href="#DejaVuSans-50"/>
       <use x="127.246094" xlink:href="#DejaVuSans-48"/>
      </g>
     </g>
    </g>
   </g>
   <g id="line2d_16">
    <path clip-path="url(#p7f012bc738)" d="M 163.459385 294.050028 
L 162.810914 289.785649 
L 162.527602 285.556946 
L 162.569574 281.361821 
L 162.899056 277.198175 
L 163.476174 273.06391 
L 164.265252 268.956926 
L 165.224318 264.875126 
L 166.903207 258.79125 
L 170.023843 248.745195 
L 174.617704 234.797821 
L 178.082513 224.88188 
L 180.351112 219.005767 
L 182.875742 213.242978 
L 184.735112 209.482266 
L 187.773902 203.969213 
L 191.068723 198.59047 
L 194.562912 193.335546 
L 200.46211 184.640997 
L 202.65306 181.064963 
L 204.646742 177.369307 
L 206.380195 173.522552 
L 207.830336 169.545682 
L 208.976178 165.472276 
L 209.803031 161.331715 
L 210.292008 157.157576 
L 210.443108 152.975043 
L 210.33398 148.790411 
L 209.886976 142.500871 
L 209.265786 134.08124 
L 209.131475 129.858833 
L 209.181842 125.64482 
L 209.465155 121.449695 
L 210.021287 117.292345 
L 210.898506 113.181165 
L 212.107307 109.139238 
L 213.632998 105.198045 
L 215.460889 101.382769 
L 217.576289 97.72279 
L 219.958214 94.247488 
L 222.585676 90.963161 
L 225.418802 87.853018 
L 228.419817 84.898172 
L 231.557242 82.081835 
L 236.436514 78.088177 
L 239.796392 75.57404 
L 243.248608 73.190017 
L 246.801558 70.942404 
L 250.461537 68.841693 
L 254.234841 66.902576 
L 258.115175 65.190108 
L 262.096242 63.769348 
L 266.171746 62.711648 
L 268.240977 62.342292 
L 270.333293 62.090459 
L 272.442398 61.962443 
L 274.564095 61.960345 
L 276.685791 62.082064 
L 278.803291 62.3297 
L 280.904001 62.703253 
L 282.981627 63.198526 
L 285.025675 63.817616 
L 287.025652 64.558426 
L 288.977361 65.423054 
L 290.870309 66.409402 
L 292.694003 67.51537 
L 294.444245 68.736762 
L 296.116839 70.063085 
L 297.705488 71.490141 
L 299.205995 73.009536 
L 300.614164 74.612876 
L 301.921599 76.293864 
L 303.128301 78.046205 
L 304.225875 79.861504 
L 305.208025 81.733466 
L 306.07685 83.651597 
L 307.485019 87.615875 
L 308.502846 91.708168 
L 309.186993 95.888603 
L 309.596223 100.113108 
L 309.7809 104.341811 
L 309.791393 108.551627 
L 309.558448 114.841167 
L 308.979231 123.202036 
L 308.240519 133.655222 
L 308.009672 139.951058 
L 308.022264 144.167169 
L 308.022264 144.167169 
" style="fill:none;stroke:#fea952;stroke-linecap:square;"/>
   </g>
   <g id="line2d_17">
    <path clip-path="url(#p7f012bc738)" d="M 155.189017 295.488 
L 154.448149 290.514286 
L 154.133422 285.623966 
L 154.191408 280.839239 
L 154.570082 276.151779 
L 155.213912 271.580075 
L 156.075277 267.115443 
L 157.104203 262.746634 
L 158.862094 256.381427 
L 162.031304 246.178861 
L 166.670122 232.095475 
L 170.218759 221.944512 
L 172.607869 215.764018 
L 174.372178 211.645147 
L 176.298573 207.559877 
L 178.364072 203.576021 
L 181.691345 197.770054 
L 185.226097 192.174939 
L 190.028524 185.12782 
L 193.355929 180.172335 
L 195.33129 176.959062 
L 197.056791 173.783306 
L 198.549361 170.498517 
L 199.794968 167.116772 
L 200.778697 163.664499 
L 201.487197 160.185569 
L 201.909871 156.703123 
L 202.049488 153.092907 
L 201.954163 149.285811 
L 201.521929 143.202833 
L 200.878645 134.431399 
L 200.737028 129.858833 
L 200.798698 125.209332 
L 201.126441 120.483983 
L 201.777825 115.707387 
L 202.808393 110.94134 
L 204.220941 106.263132 
L 205.993256 101.719383 
L 208.112235 97.325179 
L 210.563526 93.108909 
L 213.316735 89.113533 
L 216.292669 85.40755 
L 219.453822 81.946601 
L 222.748617 78.709131 
L 226.131536 75.676489 
L 229.586172 72.801733 
L 233.141104 70.044728 
L 236.808148 67.411799 
L 240.597681 64.909259 
L 244.515369 62.551142 
L 248.591452 60.335853 
L 252.896789 58.281217 
L 257.439608 56.473035 
L 259.790109 55.697886 
L 262.213915 55.015767 
L 264.696661 54.447819 
L 267.237852 54.007996 
L 269.824715 53.711431 
L 272.434095 53.568 
L 275.044885 53.579677 
L 277.660855 53.744439 
L 280.272954 54.064905 
L 282.850558 54.537614 
L 285.414934 55.164488 
L 287.941456 55.945833 
L 290.425769 56.883405 
L 292.856398 57.978605 
L 295.223179 59.231709 
L 297.497926 60.631398 
L 299.659986 62.159317 
L 301.7265 63.818212 
L 303.678266 65.59161 
L 305.513222 67.470074 
L 307.240339 69.459183 
L 308.83535 71.532898 
L 310.311783 73.702897 
L 311.65933 75.96144 
L 312.854626 78.269907 
L 313.911771 80.638166 
L 314.812612 83.011636 
L 315.584257 85.409271 
L 316.760956 90.201396 
L 317.529896 94.959771 
L 317.978227 99.65621 
L 318.174748 104.241487 
L 318.183424 108.753036 
L 317.937735 115.345437 
L 317.348704 123.849074 
L 316.624472 134.074839 
L 316.403915 140.009583 
L 316.416009 144.058593 
L 316.416009 144.058593 
" style="fill:none;stroke:#ffffff;stroke-linecap:square;"/>
   </g>
   <g id="line2d_18">
    <path clip-path="url(#p7f012bc738)" d="M 171.729753 292.612057 
L 171.173679 289.057012 
L 170.921781 285.489927 
L 170.947739 281.884403 
L 171.22803 278.244571 
L 171.738437 274.547745 
L 172.455227 270.798409 
L 173.848439 265.077924 
L 175.533373 259.234938 
L 178.652073 249.331659 
L 183.232458 235.537893 
L 185.946266 227.819248 
L 188.094355 222.247515 
L 190.436963 216.889167 
L 192.155658 213.406836 
L 194.994894 208.24987 
L 198.109479 203.16152 
L 201.473193 198.101546 
L 207.56829 189.109659 
L 209.974831 185.170864 
L 212.236692 180.955308 
L 214.211029 176.546586 
L 215.865704 171.974593 
L 217.173659 167.280054 
L 218.118865 162.477861 
L 218.674145 157.612029 
L 218.836728 152.857179 
L 218.713796 148.295011 
L 218.252022 141.798909 
L 217.652928 133.731081 
L 217.525923 129.858833 
L 217.564986 126.080308 
L 217.803868 122.415407 
L 218.264748 118.877304 
L 218.98862 115.420989 
L 219.993673 112.015344 
L 221.27274 108.676707 
L 222.809542 105.440359 
L 224.589053 102.33667 
L 226.599693 99.381444 
L 228.878683 96.518771 
L 231.383782 93.759435 
L 234.091017 91.087214 
L 236.982947 88.487182 
L 241.530737 84.760182 
L 244.633371 82.434825 
L 247.80786 80.238419 
L 251.055155 78.179368 
L 254.390723 76.259796 
L 257.747863 74.526579 
L 261.101829 73.035275 
L 264.402374 71.84081 
L 267.646831 70.975477 
L 270.841871 70.469486 
L 274.083305 70.341012 
L 277.333627 70.594495 
L 280.54832 71.232564 
L 283.625535 72.233448 
L 286.517439 73.587095 
L 289.228504 75.314208 
L 291.732709 77.388672 
L 293.987988 79.766568 
L 295.944818 82.389513 
L 297.561424 85.197025 
L 298.852089 88.220159 
L 299.84984 91.494298 
L 300.575126 94.994588 
L 301.05596 98.689364 
L 301.321712 102.505824 
L 301.411841 106.390175 
L 301.279467 112.328394 
L 300.768658 120.474596 
L 299.856566 133.235605 
L 299.615429 139.892532 
L 299.628518 144.275745 
L 299.628518 144.275745 
" style="fill:none;stroke:#ffffff;stroke-linecap:square;"/>
   </g>
   <g id="patch_3">
    <path d="M 57.6 307.584 
L 57.6 41.472 
" style="fill:none;stroke:#000000;stroke-linecap:square;stroke-linejoin:miter;stroke-width:0.8;"/>
   </g>
   <g id="patch_4">
    <path d="M 414.72 307.584 
L 414.72 41.472 
" style="fill:none;stroke:#000000;stroke-linecap:square;stroke-linejoin:miter;stroke-width:0.8;"/>
   </g>
   <g id="patch_5">
    <path d="M 57.6 307.584 
L 414.72 307.584 
" style="fill:none;stroke:#000000;stroke-linecap:square;stroke-linejoin:miter;stroke-width:0.8;"/>
   </g>
   <g id="patch_6">
    <path d="M 57.6 41.472 
L 414.72 41.472 
" style="fill:none;stroke:#000000;stroke-linecap:square;stroke-linejoin:miter;stroke-width:0.8;"/>
   </g>
  </g>
 </g>
 <defs>
  <clipPath id="p7f012bc738">
   <rect height="266.112" width="357.12" x="57.6" y="41.472"/>
  </clipPath>
 </defs>
</svg>
