<?xml version="1.0" encoding="utf-8" standalone="no"?>
<!DOCTYPE svg PUBLIC "-//W3C//DTD SVG 1.1//EN"
  "http://www.w3.org/Graphics/SVG/1.1/DTD/svg11.dtd">
<!-- Created with matplotlib (https://matplotlib.org/) -->
<svg height="345.6pt" version="1.1" viewBox="0 0 460.8 345.6" width="460.8pt" xmlns="http://www.w3.org/2000/svg" xmlns:xlink="http://www.w3.org/1999/xlink">
 <metadata>
  <rdf:RDF xmlns:cc="http://creativecommons.org/ns#" xmlns:dc="http://purl.org/dc/elements/1.1/" xmlns:rdf="http://www.w3.org/1999/02/22-rdf-syntax-ns#">
   <cc:Work>
    <dc:type rdf:resource="http://purl.org/dc/dcmitype/StillImage"/>
    <dc:date>2021-01-25T14:06:46.341298</dc:date>
    <dc:format>image/svg+xml</dc:format>
    <dc:creator>
     <cc:Agent>
      <dc:title>Matplotlib v3.3.3, https://matplotlib.org/</dc:title>
     </cc:Agent>
    </dc:creator>
   </cc:Work>
  </rdf:RDF>
 </metadata>
 <defs>
  <style type="text/css">*{stroke-linecap:butt;stroke-linejoin:round;}</style>
 </defs>
 <g id="figure_1">
  <g id="patch_1">
   <path d="M 0 345.6 
L 460.8 345.6 
L 460.8 0 
L 0 0 
z
" style="fill:#ffffff;"/>
  </g>
  <g id="axes_1">
   <g id="patch_2">
    <path d="M 57.6 307.584 
L 414.72 307.584 
L 414.72 41.472 
L 57.6 41.472 
z
" style="fill:#7d9051;"/>
   </g>
   <g id="matplotlib.axis_1">
    <g id="xtick_1">
     <g id="line2d_1">
      <defs>
       <path d="M 0 0 
L 0 3.5 
" id="me7dc666a27" style="stroke:#000000;stroke-width:0.8;"/>
      </defs>
      <g>
       <use style="stroke:#000000;stroke-width:0.8;" x="98.836529" xlink:href="#me7dc666a27" y="307.584"/>
      </g>
     </g>
     <g id="text_1">
      <!-- 0 -->
      <g transform="translate(95.655279 322.182437)scale(0.1 -0.1)">
       <defs>
        <path d="M 31.78125 66.40625 
Q 24.171875 66.40625 20.328125 58.90625 
Q 16.5 51.421875 16.5 36.375 
Q 16.5 21.390625 20.328125 13.890625 
Q 24.171875 6.390625 31.78125 6.390625 
Q 39.453125 6.390625 43.28125 13.890625 
Q 47.125 21.390625 47.125 36.375 
Q 47.125 51.421875 43.28125 58.90625 
Q 39.453125 66.40625 31.78125 66.40625 
z
M 31.78125 74.21875 
Q 44.046875 74.21875 50.515625 64.515625 
Q 56.984375 54.828125 56.984375 36.375 
Q 56.984375 17.96875 50.515625 8.265625 
Q 44.046875 -1.421875 31.78125 -1.421875 
Q 19.53125 -1.421875 13.0625 8.265625 
Q 6.59375 17.96875 6.59375 36.375 
Q 6.59375 54.828125 13.0625 64.515625 
Q 19.53125 74.21875 31.78125 74.21875 
z
" id="DejaVuSans-48"/>
       </defs>
       <use xlink:href="#DejaVuSans-48"/>
      </g>
     </g>
    </g>
    <g id="xtick_2">
     <g id="line2d_2">
      <g>
       <use style="stroke:#000000;stroke-width:0.8;" x="162.6967" xlink:href="#me7dc666a27" y="307.584"/>
      </g>
     </g>
     <g id="text_2">
      <!-- 20 -->
      <g transform="translate(156.3342 322.182437)scale(0.1 -0.1)">
       <defs>
        <path d="M 19.1875 8.296875 
L 53.609375 8.296875 
L 53.609375 0 
L 7.328125 0 
L 7.328125 8.296875 
Q 12.9375 14.109375 22.625 23.890625 
Q 32.328125 33.6875 34.8125 36.53125 
Q 39.546875 41.84375 41.421875 45.53125 
Q 43.3125 49.21875 43.3125 52.78125 
Q 43.3125 58.59375 39.234375 62.25 
Q 35.15625 65.921875 28.609375 65.921875 
Q 23.96875 65.921875 18.8125 64.3125 
Q 13.671875 62.703125 7.8125 59.421875 
L 7.8125 69.390625 
Q 13.765625 71.78125 18.9375 73 
Q 24.125 74.21875 28.421875 74.21875 
Q 39.75 74.21875 46.484375 68.546875 
Q 53.21875 62.890625 53.21875 53.421875 
Q 53.21875 48.921875 51.53125 44.890625 
Q 49.859375 40.875 45.40625 35.40625 
Q 44.1875 33.984375 37.640625 27.21875 
Q 31.109375 20.453125 19.1875 8.296875 
z
" id="DejaVuSans-50"/>
       </defs>
       <use xlink:href="#DejaVuSans-50"/>
       <use x="63.623047" xlink:href="#DejaVuSans-48"/>
      </g>
     </g>
    </g>
    <g id="xtick_3">
     <g id="line2d_3">
      <g>
       <use style="stroke:#000000;stroke-width:0.8;" x="226.556871" xlink:href="#me7dc666a27" y="307.584"/>
      </g>
     </g>
     <g id="text_3">
      <!-- 40 -->
      <g transform="translate(220.194371 322.182437)scale(0.1 -0.1)">
       <defs>
        <path d="M 37.796875 64.3125 
L 12.890625 25.390625 
L 37.796875 25.390625 
z
M 35.203125 72.90625 
L 47.609375 72.90625 
L 47.609375 25.390625 
L 58.015625 25.390625 
L 58.015625 17.1875 
L 47.609375 17.1875 
L 47.609375 0 
L 37.796875 0 
L 37.796875 17.1875 
L 4.890625 17.1875 
L 4.890625 26.703125 
z
" id="DejaVuSans-52"/>
       </defs>
       <use xlink:href="#DejaVuSans-52"/>
       <use x="63.623047" xlink:href="#DejaVuSans-48"/>
      </g>
     </g>
    </g>
    <g id="xtick_4">
     <g id="line2d_4">
      <g>
       <use style="stroke:#000000;stroke-width:0.8;" x="290.417041" xlink:href="#me7dc666a27" y="307.584"/>
      </g>
     </g>
     <g id="text_4">
      <!-- 60 -->
      <g transform="translate(284.054541 322.182437)scale(0.1 -0.1)">
       <defs>
        <path d="M 33.015625 40.375 
Q 26.375 40.375 22.484375 35.828125 
Q 18.609375 31.296875 18.609375 23.390625 
Q 18.609375 15.53125 22.484375 10.953125 
Q 26.375 6.390625 33.015625 6.390625 
Q 39.65625 6.390625 43.53125 10.953125 
Q 47.40625 15.53125 47.40625 23.390625 
Q 47.40625 31.296875 43.53125 35.828125 
Q 39.65625 40.375 33.015625 40.375 
z
M 52.59375 71.296875 
L 52.59375 62.3125 
Q 48.875 64.0625 45.09375 64.984375 
Q 41.3125 65.921875 37.59375 65.921875 
Q 27.828125 65.921875 22.671875 59.328125 
Q 17.53125 52.734375 16.796875 39.40625 
Q 19.671875 43.65625 24.015625 45.921875 
Q 28.375 48.1875 33.59375 48.1875 
Q 44.578125 48.1875 50.953125 41.515625 
Q 57.328125 34.859375 57.328125 23.390625 
Q 57.328125 12.15625 50.6875 5.359375 
Q 44.046875 -1.421875 33.015625 -1.421875 
Q 20.359375 -1.421875 13.671875 8.265625 
Q 6.984375 17.96875 6.984375 36.375 
Q 6.984375 53.65625 15.1875 63.9375 
Q 23.390625 74.21875 37.203125 74.21875 
Q 40.921875 74.21875 44.703125 73.484375 
Q 48.484375 72.75 52.59375 71.296875 
z
" id="DejaVuSans-54"/>
       </defs>
       <use xlink:href="#DejaVuSans-54"/>
       <use x="63.623047" xlink:href="#DejaVuSans-48"/>
      </g>
     </g>
    </g>
    <g id="xtick_5">
     <g id="line2d_5">
      <g>
       <use style="stroke:#000000;stroke-width:0.8;" x="354.277212" xlink:href="#me7dc666a27" y="307.584"/>
      </g>
     </g>
     <g id="text_5">
      <!-- 80 -->
      <g transform="translate(347.914712 322.182437)scale(0.1 -0.1)">
       <defs>
        <path d="M 31.78125 34.625 
Q 24.75 34.625 20.71875 30.859375 
Q 16.703125 27.09375 16.703125 20.515625 
Q 16.703125 13.921875 20.71875 10.15625 
Q 24.75 6.390625 31.78125 6.390625 
Q 38.8125 6.390625 42.859375 10.171875 
Q 46.921875 13.96875 46.921875 20.515625 
Q 46.921875 27.09375 42.890625 30.859375 
Q 38.875 34.625 31.78125 34.625 
z
M 21.921875 38.8125 
Q 15.578125 40.375 12.03125 44.71875 
Q 8.5 49.078125 8.5 55.328125 
Q 8.5 64.0625 14.71875 69.140625 
Q 20.953125 74.21875 31.78125 74.21875 
Q 42.671875 74.21875 48.875 69.140625 
Q 55.078125 64.0625 55.078125 55.328125 
Q 55.078125 49.078125 51.53125 44.71875 
Q 48 40.375 41.703125 38.8125 
Q 48.828125 37.15625 52.796875 32.3125 
Q 56.78125 27.484375 56.78125 20.515625 
Q 56.78125 9.90625 50.3125 4.234375 
Q 43.84375 -1.421875 31.78125 -1.421875 
Q 19.734375 -1.421875 13.25 4.234375 
Q 6.78125 9.90625 6.78125 20.515625 
Q 6.78125 27.484375 10.78125 32.3125 
Q 14.796875 37.15625 21.921875 38.8125 
z
M 18.3125 54.390625 
Q 18.3125 48.734375 21.84375 45.5625 
Q 25.390625 42.390625 31.78125 42.390625 
Q 38.140625 42.390625 41.71875 45.5625 
Q 45.3125 48.734375 45.3125 54.390625 
Q 45.3125 60.0625 41.71875 63.234375 
Q 38.140625 66.40625 31.78125 66.40625 
Q 25.390625 66.40625 21.84375 63.234375 
Q 18.3125 60.0625 18.3125 54.390625 
z
" id="DejaVuSans-56"/>
       </defs>
       <use xlink:href="#DejaVuSans-56"/>
       <use x="63.623047" xlink:href="#DejaVuSans-48"/>
      </g>
     </g>
    </g>
   </g>
   <g id="matplotlib.axis_2">
    <g id="ytick_1">
     <g id="line2d_6">
      <defs>
       <path d="M 0 0 
L -3.5 0 
" id="m1b3905b282" style="stroke:#000000;stroke-width:0.8;"/>
      </defs>
      <g>
       <use style="stroke:#000000;stroke-width:0.8;" x="57.6" xlink:href="#m1b3905b282" y="282.544971"/>
      </g>
     </g>
     <g id="text_6">
      <!-- 10 -->
      <g transform="translate(37.875 286.34419)scale(0.1 -0.1)">
       <defs>
        <path d="M 12.40625 8.296875 
L 28.515625 8.296875 
L 28.515625 63.921875 
L 10.984375 60.40625 
L 10.984375 69.390625 
L 28.421875 72.90625 
L 38.28125 72.90625 
L 38.28125 8.296875 
L 54.390625 8.296875 
L 54.390625 0 
L 12.40625 0 
z
" id="DejaVuSans-49"/>
       </defs>
       <use xlink:href="#DejaVuSans-49"/>
       <use x="63.623047" xlink:href="#DejaVuSans-48"/>
      </g>
     </g>
    </g>
    <g id="ytick_2">
     <g id="line2d_7">
      <g>
       <use style="stroke:#000000;stroke-width:0.8;" x="57.6" xlink:href="#m1b3905b282" y="250.614886"/>
      </g>
     </g>
     <g id="text_7">
      <!-- 20 -->
      <g transform="translate(37.875 254.414105)scale(0.1 -0.1)">
       <use xlink:href="#DejaVuSans-50"/>
       <use x="63.623047" xlink:href="#DejaVuSans-48"/>
      </g>
     </g>
    </g>
    <g id="ytick_3">
     <g id="line2d_8">
      <g>
       <use style="stroke:#000000;stroke-width:0.8;" x="57.6" xlink:href="#m1b3905b282" y="218.684801"/>
      </g>
     </g>
     <g id="text_8">
      <!-- 30 -->
      <g transform="translate(37.875 222.484019)scale(0.1 -0.1)">
       <defs>
        <path d="M 40.578125 39.3125 
Q 47.65625 37.796875 51.625 33 
Q 55.609375 28.21875 55.609375 21.1875 
Q 55.609375 10.40625 48.1875 4.484375 
Q 40.765625 -1.421875 27.09375 -1.421875 
Q 22.515625 -1.421875 17.65625 -0.515625 
Q 12.796875 0.390625 7.625 2.203125 
L 7.625 11.71875 
Q 11.71875 9.328125 16.59375 8.109375 
Q 21.484375 6.890625 26.8125 6.890625 
Q 36.078125 6.890625 40.9375 10.546875 
Q 45.796875 14.203125 45.796875 21.1875 
Q 45.796875 27.640625 41.28125 31.265625 
Q 36.765625 34.90625 28.71875 34.90625 
L 20.21875 34.90625 
L 20.21875 43.015625 
L 29.109375 43.015625 
Q 36.375 43.015625 40.234375 45.921875 
Q 44.09375 48.828125 44.09375 54.296875 
Q 44.09375 59.90625 40.109375 62.90625 
Q 36.140625 65.921875 28.71875 65.921875 
Q 24.65625 65.921875 20.015625 65.03125 
Q 15.375 64.15625 9.8125 62.3125 
L 9.8125 71.09375 
Q 15.4375 72.65625 20.34375 73.4375 
Q 25.25 74.21875 29.59375 74.21875 
Q 40.828125 74.21875 47.359375 69.109375 
Q 53.90625 64.015625 53.90625 55.328125 
Q 53.90625 49.265625 50.4375 45.09375 
Q 46.96875 40.921875 40.578125 39.3125 
z
" id="DejaVuSans-51"/>
       </defs>
       <use xlink:href="#DejaVuSans-51"/>
       <use x="63.623047" xlink:href="#DejaVuSans-48"/>
      </g>
     </g>
    </g>
    <g id="ytick_4">
     <g id="line2d_9">
      <g>
       <use style="stroke:#000000;stroke-width:0.8;" x="57.6" xlink:href="#m1b3905b282" y="186.754715"/>
      </g>
     </g>
     <g id="text_9">
      <!-- 40 -->
      <g transform="translate(37.875 190.553934)scale(0.1 -0.1)">
       <use xlink:href="#DejaVuSans-52"/>
       <use x="63.623047" xlink:href="#DejaVuSans-48"/>
      </g>
     </g>
    </g>
    <g id="ytick_5">
     <g id="line2d_10">
      <g>
       <use style="stroke:#000000;stroke-width:0.8;" x="57.6" xlink:href="#m1b3905b282" y="154.82463"/>
      </g>
     </g>
     <g id="text_10">
      <!-- 50 -->
      <g transform="translate(37.875 158.623849)scale(0.1 -0.1)">
       <defs>
        <path d="M 10.796875 72.90625 
L 49.515625 72.90625 
L 49.515625 64.59375 
L 19.828125 64.59375 
L 19.828125 46.734375 
Q 21.96875 47.46875 24.109375 47.828125 
Q 26.265625 48.1875 28.421875 48.1875 
Q 40.625 48.1875 47.75 41.5 
Q 54.890625 34.8125 54.890625 23.390625 
Q 54.890625 11.625 47.5625 5.09375 
Q 40.234375 -1.421875 26.90625 -1.421875 
Q 22.3125 -1.421875 17.546875 -0.640625 
Q 12.796875 0.140625 7.71875 1.703125 
L 7.71875 11.625 
Q 12.109375 9.234375 16.796875 8.0625 
Q 21.484375 6.890625 26.703125 6.890625 
Q 35.15625 6.890625 40.078125 11.328125 
Q 45.015625 15.765625 45.015625 23.390625 
Q 45.015625 31 40.078125 35.4375 
Q 35.15625 39.890625 26.703125 39.890625 
Q 22.75 39.890625 18.8125 39.015625 
Q 14.890625 38.140625 10.796875 36.28125 
z
" id="DejaVuSans-53"/>
       </defs>
       <use xlink:href="#DejaVuSans-53"/>
       <use x="63.623047" xlink:href="#DejaVuSans-48"/>
      </g>
     </g>
    </g>
    <g id="ytick_6">
     <g id="line2d_11">
      <g>
       <use style="stroke:#000000;stroke-width:0.8;" x="57.6" xlink:href="#m1b3905b282" y="122.894545"/>
      </g>
     </g>
     <g id="text_11">
      <!-- 60 -->
      <g transform="translate(37.875 126.693764)scale(0.1 -0.1)">
       <use xlink:href="#DejaVuSans-54"/>
       <use x="63.623047" xlink:href="#DejaVuSans-48"/>
      </g>
     </g>
    </g>
    <g id="ytick_7">
     <g id="line2d_12">
      <g>
       <use style="stroke:#000000;stroke-width:0.8;" x="57.6" xlink:href="#m1b3905b282" y="90.964459"/>
      </g>
     </g>
     <g id="text_12">
      <!-- 70 -->
      <g transform="translate(37.875 94.763678)scale(0.1 -0.1)">
       <defs>
        <path d="M 8.203125 72.90625 
L 55.078125 72.90625 
L 55.078125 68.703125 
L 28.609375 0 
L 18.3125 0 
L 43.21875 64.59375 
L 8.203125 64.59375 
z
" id="DejaVuSans-55"/>
       </defs>
       <use xlink:href="#DejaVuSans-55"/>
       <use x="63.623047" xlink:href="#DejaVuSans-48"/>
      </g>
     </g>
    </g>
    <g id="ytick_8">
     <g id="line2d_13">
      <g>
       <use style="stroke:#000000;stroke-width:0.8;" x="57.6" xlink:href="#m1b3905b282" y="59.034374"/>
      </g>
     </g>
     <g id="text_13">
      <!-- 80 -->
      <g transform="translate(37.875 62.833593)scale(0.1 -0.1)">
       <use xlink:href="#DejaVuSans-56"/>
       <use x="63.623047" xlink:href="#DejaVuSans-48"/>
      </g>
     </g>
    </g>
   </g>
   <g id="line2d_14">
    <path clip-path="url(#p8de7634ff5)" d="M 130.766615 160.252745 
L 130.348331 147.739344 
L 130.28447 141.305432 
L 130.408998 134.817239 
L 130.792159 128.322659 
L 131.5042 121.869589 
L 132.005502 118.673387 
L 132.615367 115.509116 
L 133.34018 112.379968 
L 134.192713 109.292328 
L 135.179352 106.249391 
L 136.309678 103.263928 
L 137.590074 100.335939 
L 139.030121 97.471811 
L 140.639397 94.684314 
L 142.408324 91.976643 
L 144.330515 89.364762 
L 146.393198 86.85825 
L 148.596374 84.466687 
L 150.927271 82.202844 
L 153.376308 80.079493 
L 155.933908 78.103021 
L 158.60007 76.289392 
L 161.355636 74.644993 
L 164.200607 73.179402 
L 167.125403 71.889426 
L 170.114059 70.759101 
L 173.166575 69.785234 
L 176.270179 68.951859 
L 179.418486 68.25259 
L 182.598722 67.681041 
L 189.026248 66.863631 
L 195.488898 66.426189 
L 201.935582 66.349557 
L 208.34395 66.675244 
L 211.527379 67.00093 
L 214.694844 67.441566 
L 217.839957 68.006728 
L 220.959527 68.696418 
L 224.053552 69.517021 
L 227.115647 70.474924 
L 230.142619 71.566933 
L 233.124889 72.786662 
L 236.056071 74.134111 
L 238.926586 75.606088 
L 241.73324 77.1994 
L 244.463262 78.907659 
L 247.11346 80.727674 
L 249.677445 82.659444 
L 252.142448 84.699777 
L 254.508467 86.842285 
L 258.985065 91.379551 
L 263.209416 96.172256 
L 269.292097 103.611966 
L 275.390743 111.032518 
L 281.693742 118.248717 
L 290.302093 127.677672 
L 301.104041 139.453487 
L 307.40704 146.679265 
L 311.449388 151.625236 
L 315.312929 156.702119 
L 318.96573 161.932267 
L 322.401408 167.315679 
L 325.629539 172.833198 
L 328.650125 178.48163 
L 331.469552 184.241818 
L 334.07824 190.107374 
L 336.425101 196.081493 
L 338.446276 202.157789 
L 339.314774 205.235849 
L 340.07471 208.342646 
L 340.722891 211.474987 
L 341.249737 214.636066 
L 341.648863 217.822688 
L 341.91069 221.031662 
L 342.035217 224.250215 
L 342.012866 227.47196 
L 341.843637 230.690513 
L 341.521143 233.896293 
L 341.038998 237.086109 
L 340.394011 240.247187 
L 339.582987 243.373143 
L 338.596347 246.457589 
L 337.434092 249.487754 
L 336.099414 252.457252 
L 334.5987 255.346925 
L 332.935143 258.147193 
L 331.115128 260.842092 
L 329.141849 263.41885 
L 327.021691 265.867888 
L 324.757848 268.170047 
L 322.356706 270.312556 
L 319.82465 272.285835 
L 317.168067 274.077113 
L 314.393342 275.686389 
L 311.519635 277.12005 
L 308.556523 278.381288 
L 305.513586 279.473297 
L 302.406788 280.39927 
L 299.248903 281.168785 
L 296.052701 281.778649 
L 292.827763 282.235249 
L 289.586859 282.544971 
L 286.345955 282.707815 
L 283.105052 282.726973 
L 279.87692 282.592866 
L 276.667946 282.311882 
L 273.478131 281.871246 
L 270.317053 281.277347 
L 267.19429 280.523797 
L 264.109844 279.610596 
L 261.076486 278.53136 
L 258.094216 277.289279 
L 255.172613 275.874776 
L 252.327642 274.300623 
L 249.572076 272.56682 
L 246.915493 270.679752 
L 244.377051 268.645805 
L 241.96633 266.471366 
L 239.699294 264.156435 
L 237.591908 261.710591 
L 235.653752 259.140219 
L 233.903983 256.44532 
L 232.348988 253.638665 
L 230.991959 250.726641 
L 229.829704 247.725213 
L 228.862223 244.647153 
L 228.086322 241.50204 
L 227.498808 238.305838 
L 227.102875 235.074513 
L 226.892137 231.814452 
L 226.863399 228.541618 
L 227.019857 225.265591 
L 227.358316 222.00553 
L 227.87239 218.771012 
L 228.565273 215.57481 
L 229.433771 212.43289 
L 230.477885 209.351637 
L 231.691228 206.350209 
L 233.073801 203.434992 
L 234.625603 200.625144 
L 236.343442 197.933438 
L 238.224124 195.366259 
L 238.224124 195.366259 
" style="fill:none;stroke:#fea952;stroke-linecap:square;"/>
   </g>
   <g id="line2d_15">
    <path clip-path="url(#p8de7634ff5)" d="M 118.004037 160.744124 
L 117.577918 147.942857 
L 117.513056 141.179605 
L 117.651138 134.215689 
L 118.078279 127.105239 
L 118.88642 119.890577 
L 119.464276 116.256259 
L 120.172767 112.627004 
L 121.028821 108.980658 
L 122.043359 105.353031 
L 123.234759 101.727053 
L 124.607606 98.146665 
L 126.179169 94.598684 
L 127.969068 91.086048 
L 129.946928 87.698904 
L 132.1217 84.406292 
L 134.468495 81.249011 
L 136.999614 78.204614 
L 139.697926 75.304674 
L 142.56056 72.552818 
L 145.566521 69.973452 
L 148.750336 67.542664 
L 152.055096 65.321796 
L 155.506599 63.290979 
L 159.046557 61.493486 
L 162.607291 59.943234 
L 166.232076 58.591313 
L 169.854378 57.450154 
L 173.500875 56.483667 
L 177.159305 55.681951 
L 180.773097 55.040157 
L 184.407878 54.522611 
L 191.577029 53.844721 
L 198.75181 53.568 
L 202.366995 53.584811 
L 206.013384 53.715453 
L 209.643832 53.96953 
L 213.287188 54.350716 
L 216.953739 54.870876 
L 220.597084 55.535838 
L 224.233748 56.351203 
L 227.866749 57.327502 
L 231.449861 58.460788 
L 234.977545 59.745412 
L 238.459472 61.182047 
L 241.883906 62.769201 
L 245.231965 64.499017 
L 248.508095 66.372295 
L 251.693603 68.379268 
L 254.79902 70.52684 
L 257.821264 72.820589 
L 260.71539 75.232489 
L 263.443146 77.715601 
L 266.031059 80.259832 
L 270.791372 85.408552 
L 275.157 90.565751 
L 287.080536 105.047858 
L 293.272884 112.021458 
L 315.052731 135.96167 
L 319.396936 141.129696 
L 323.637978 146.503805 
L 327.708547 152.089997 
L 331.54336 157.841387 
L 335.129489 163.717649 
L 338.482733 169.723393 
L 341.612936 175.84329 
L 344.525753 182.090874 
L 347.232534 188.556539 
L 349.660792 195.257993 
L 350.738374 198.689479 
L 351.721057 202.201218 
L 352.58177 205.754539 
L 353.321147 209.375278 
L 353.922753 213.048764 
L 354.378595 216.784044 
L 354.673175 220.537875 
L 354.806944 224.338819 
L 354.767282 228.142579 
L 354.551531 231.968897 
L 354.149731 235.805119 
L 353.55319 239.63951 
L 352.756732 243.454676 
L 351.747819 247.264378 
L 350.521274 251.031534 
L 349.083527 254.723737 
L 347.434052 258.343749 
L 345.579248 261.870146 
L 343.519481 265.295384 
L 341.255341 268.60746 
L 338.798103 271.778372 
L 336.128349 274.822978 
L 333.261202 277.699886 
L 330.207647 280.38666 
L 326.965009 282.875458 
L 323.575837 285.125431 
L 320.095008 287.115118 
L 316.521731 288.871811 
L 312.870597 290.40267 
L 309.161669 291.713246 
L 305.430601 292.808194 
L 301.642736 293.714478 
L 297.843162 294.424562 
L 294.042805 294.949357 
L 290.227798 295.300913 
L 286.421454 295.479626 
L 282.57492 295.488 
L 278.762836 295.316218 
L 274.920238 294.963774 
L 271.119798 294.423662 
L 267.321043 293.693014 
L 263.568494 292.770366 
L 259.82859 291.643706 
L 256.165958 290.321676 
L 252.52859 288.784872 
L 248.989143 287.050176 
L 245.525856 285.110829 
L 242.175736 282.979265 
L 238.929224 280.646916 
L 235.822606 278.129808 
L 232.841234 275.407667 
L 230.023474 272.493303 
L 227.394077 269.400135 
L 224.941643 266.095474 
L 222.73203 262.635014 
L 220.772269 259.033518 
L 219.081718 255.338692 
L 217.645367 251.554937 
L 216.461963 247.706304 
L 215.524742 243.811061 
L 214.821584 239.859174 
L 214.357443 235.89841 
L 214.120595 231.926592 
L 214.105906 227.932342 
L 214.316103 223.94669 
L 214.744599 220.000783 
L 215.390287 216.065101 
L 216.254897 212.171942 
L 217.337361 208.333899 
L 218.636804 204.564817 
L 220.151233 200.877243 
L 221.893488 197.26041 
L 223.859279 193.75411 
L 226.040344 190.385522 
L 227.921026 187.818343 
L 227.921026 187.818343 
" style="fill:none;stroke:#ffffff;stroke-linecap:square;"/>
   </g>
   <g id="line2d_16">
    <path clip-path="url(#p8de7634ff5)" d="M 143.529193 159.761365 
L 143.118743 147.535832 
L 143.055885 141.431259 
L 143.166858 135.418788 
L 143.506039 129.540079 
L 144.121979 123.848601 
L 145.057966 118.391228 
L 146.342066 113.231626 
L 147.123946 110.771729 
L 148.011749 108.381192 
L 149.000979 106.073195 
L 150.091174 103.857573 
L 151.331866 101.669725 
L 152.694948 99.546995 
L 154.192535 97.480514 
L 155.786783 95.511887 
L 157.494822 93.6287 
L 159.293982 91.85287 
L 161.186096 90.185535 
L 163.11748 88.663378 
L 165.145044 87.256989 
L 167.204674 85.999006 
L 169.354657 84.865318 
L 171.643514 83.835619 
L 173.996041 82.92689 
L 176.478772 82.120314 
L 179.039484 81.420051 
L 181.677667 80.823228 
L 187.201127 79.913499 
L 192.938117 79.352502 
L 198.675862 79.111955 
L 204.282113 79.200785 
L 209.767571 79.651145 
L 215.082831 80.477619 
L 220.240355 81.706541 
L 222.781434 82.489059 
L 225.307693 83.388453 
L 227.790306 84.391276 
L 230.228236 85.499022 
L 232.621206 86.71316 
L 234.958385 88.026504 
L 237.232921 89.436051 
L 239.427899 90.928508 
L 241.533626 92.498299 
L 243.569506 94.167064 
L 247.539106 97.882178 
L 251.451004 102.09536 
L 255.355268 106.702381 
L 267.858247 121.870551 
L 274.386845 129.220787 
L 297.578572 154.835617 
L 301.357433 159.453216 
L 304.915578 164.119663 
L 308.268502 168.910387 
L 311.441606 173.873698 
L 314.422385 178.958927 
L 317.234117 184.208725 
L 319.852342 189.548915 
L 322.248842 194.922994 
L 324.368325 200.295636 
L 326.154177 205.626098 
L 327.56765 210.930753 
L 328.576721 216.223367 
L 328.919131 218.861333 
L 329.26349 224.16161 
L 329.25845 226.801341 
L 329.135742 229.412129 
L 328.892555 231.987468 
L 328.524807 234.532708 
L 328.03129 237.039699 
L 327.418154 239.481907 
L 326.67142 241.883644 
L 325.784657 244.251771 
L 324.764777 246.570755 
L 323.618152 248.823703 
L 322.350804 250.999002 
L 320.974915 253.076725 
L 319.485594 255.059329 
L 317.915033 256.912797 
L 316.254494 258.640208 
L 314.505764 260.238451 
L 312.684291 261.696211 
L 310.760296 263.028794 
L 308.691676 264.257659 
L 306.517538 265.368289 
L 304.242449 266.359906 
L 301.865502 267.233348 
L 299.382975 267.990345 
L 296.855069 268.623091 
L 294.26224 269.132737 
L 291.61272 269.521142 
L 288.94592 269.789029 
L 286.270457 269.936004 
L 283.635183 269.965946 
L 280.991005 269.869515 
L 278.415655 269.65999 
L 275.836463 269.318831 
L 273.313062 268.86168 
L 270.820086 268.277228 
L 268.391098 267.577487 
L 265.987014 266.741043 
L 263.659842 265.793686 
L 261.356083 264.699377 
L 259.129429 263.490417 
L 256.968416 262.154375 
L 254.901762 260.712587 
L 252.931497 259.161802 
L 251.091426 257.535065 
L 249.375113 255.819567 
L 247.789739 254.021046 
L 246.365861 252.184963 
L 245.075937 250.255625 
L 243.925707 248.243812 
L 242.902201 246.11459 
L 242.014041 243.895489 
L 241.262483 241.588003 
L 240.647901 239.193018 
L 240.176032 236.752502 
L 239.848308 234.250617 
L 239.663678 231.702311 
L 239.620893 229.150894 
L 239.72361 226.584492 
L 239.972032 224.010276 
L 240.354493 221.476922 
L 240.875648 218.977678 
L 241.530181 216.531881 
L 242.318966 214.138457 
L 243.231224 211.823175 
L 244.254114 209.609574 
L 245.391927 207.496179 
L 246.646539 205.481354 
L 248.527221 202.914175 
L 248.527221 202.914175 
" style="fill:none;stroke:#ffffff;stroke-linecap:square;"/>
   </g>
   <g id="patch_3">
    <path d="M 57.6 307.584 
L 57.6 41.472 
" style="fill:none;stroke:#000000;stroke-linecap:square;stroke-linejoin:miter;stroke-width:0.8;"/>
   </g>
   <g id="patch_4">
    <path d="M 414.72 307.584 
L 414.72 41.472 
" style="fill:none;stroke:#000000;stroke-linecap:square;stroke-linejoin:miter;stroke-width:0.8;"/>
   </g>
   <g id="patch_5">
    <path d="M 57.6 307.584 
L 414.72 307.584 
" style="fill:none;stroke:#000000;stroke-linecap:square;stroke-linejoin:miter;stroke-width:0.8;"/>
   </g>
   <g id="patch_6">
    <path d="M 57.6 41.472 
L 414.72 41.472 
" style="fill:none;stroke:#000000;stroke-linecap:square;stroke-linejoin:miter;stroke-width:0.8;"/>
   </g>
  </g>
 </g>
 <defs>
  <clipPath id="p8de7634ff5">
   <rect height="266.112" width="357.12" x="57.6" y="41.472"/>
  </clipPath>
 </defs>
</svg>
