<?xml version="1.0" encoding="utf-8" standalone="no"?>
<!DOCTYPE svg PUBLIC "-//W3C//DTD SVG 1.1//EN"
  "http://www.w3.org/Graphics/SVG/1.1/DTD/svg11.dtd">
<!-- Created with matplotlib (https://matplotlib.org/) -->
<svg height="345.6pt" version="1.1" viewBox="0 0 460.8 345.6" width="460.8pt" xmlns="http://www.w3.org/2000/svg" xmlns:xlink="http://www.w3.org/1999/xlink">
 <metadata>
  <rdf:RDF xmlns:cc="http://creativecommons.org/ns#" xmlns:dc="http://purl.org/dc/elements/1.1/" xmlns:rdf="http://www.w3.org/1999/02/22-rdf-syntax-ns#">
   <cc:Work>
    <dc:type rdf:resource="http://purl.org/dc/dcmitype/StillImage"/>
    <dc:date>2021-01-25T12:11:26.448677</dc:date>
    <dc:format>image/svg+xml</dc:format>
    <dc:creator>
     <cc:Agent>
      <dc:title>Matplotlib v3.3.3, https://matplotlib.org/</dc:title>
     </cc:Agent>
    </dc:creator>
   </cc:Work>
  </rdf:RDF>
 </metadata>
 <defs>
  <style type="text/css">*{stroke-linecap:butt;stroke-linejoin:round;}</style>
 </defs>
 <g id="figure_1">
  <g id="patch_1">
   <path d="M 0 345.6 
L 460.8 345.6 
L 460.8 0 
L 0 0 
z
" style="fill:#ffffff;"/>
  </g>
  <g id="axes_1">
   <g id="patch_2">
    <path d="M 57.6 307.584 
L 414.72 307.584 
L 414.72 41.472 
L 57.6 41.472 
z
" style="fill:#7d9051;"/>
   </g>
   <g id="matplotlib.axis_1">
    <g id="xtick_1">
     <g id="line2d_1">
      <defs>
       <path d="M 0 0 
L 0 3.5 
" id="m08c9ec1fe8" style="stroke:#000000;stroke-width:0.8;"/>
      </defs>
      <g>
       <use style="stroke:#000000;stroke-width:0.8;" x="83.188816" xlink:href="#m08c9ec1fe8" y="307.584"/>
      </g>
     </g>
     <g id="text_1">
      <!-- 10 -->
      <g transform="translate(76.826316 322.182437)scale(0.1 -0.1)">
       <defs>
        <path d="M 12.40625 8.296875 
L 28.515625 8.296875 
L 28.515625 63.921875 
L 10.984375 60.40625 
L 10.984375 69.390625 
L 28.421875 72.90625 
L 38.28125 72.90625 
L 38.28125 8.296875 
L 54.390625 8.296875 
L 54.390625 0 
L 12.40625 0 
z
" id="DejaVuSans-49"/>
        <path d="M 31.78125 66.40625 
Q 24.171875 66.40625 20.328125 58.90625 
Q 16.5 51.421875 16.5 36.375 
Q 16.5 21.390625 20.328125 13.890625 
Q 24.171875 6.390625 31.78125 6.390625 
Q 39.453125 6.390625 43.28125 13.890625 
Q 47.125 21.390625 47.125 36.375 
Q 47.125 51.421875 43.28125 58.90625 
Q 39.453125 66.40625 31.78125 66.40625 
z
M 31.78125 74.21875 
Q 44.046875 74.21875 50.515625 64.515625 
Q 56.984375 54.828125 56.984375 36.375 
Q 56.984375 17.96875 50.515625 8.265625 
Q 44.046875 -1.421875 31.78125 -1.421875 
Q 19.53125 -1.421875 13.0625 8.265625 
Q 6.59375 17.96875 6.59375 36.375 
Q 6.59375 54.828125 13.0625 64.515625 
Q 19.53125 74.21875 31.78125 74.21875 
z
" id="DejaVuSans-48"/>
       </defs>
       <use xlink:href="#DejaVuSans-49"/>
       <use x="63.623047" xlink:href="#DejaVuSans-48"/>
      </g>
     </g>
    </g>
    <g id="xtick_2">
     <g id="line2d_2">
      <g>
       <use style="stroke:#000000;stroke-width:0.8;" x="124.424456" xlink:href="#m08c9ec1fe8" y="307.584"/>
      </g>
     </g>
     <g id="text_2">
      <!-- 20 -->
      <g transform="translate(118.061956 322.182437)scale(0.1 -0.1)">
       <defs>
        <path d="M 19.1875 8.296875 
L 53.609375 8.296875 
L 53.609375 0 
L 7.328125 0 
L 7.328125 8.296875 
Q 12.9375 14.109375 22.625 23.890625 
Q 32.328125 33.6875 34.8125 36.53125 
Q 39.546875 41.84375 41.421875 45.53125 
Q 43.3125 49.21875 43.3125 52.78125 
Q 43.3125 58.59375 39.234375 62.25 
Q 35.15625 65.921875 28.609375 65.921875 
Q 23.96875 65.921875 18.8125 64.3125 
Q 13.671875 62.703125 7.8125 59.421875 
L 7.8125 69.390625 
Q 13.765625 71.78125 18.9375 73 
Q 24.125 74.21875 28.421875 74.21875 
Q 39.75 74.21875 46.484375 68.546875 
Q 53.21875 62.890625 53.21875 53.421875 
Q 53.21875 48.921875 51.53125 44.890625 
Q 49.859375 40.875 45.40625 35.40625 
Q 44.1875 33.984375 37.640625 27.21875 
Q 31.109375 20.453125 19.1875 8.296875 
z
" id="DejaVuSans-50"/>
       </defs>
       <use xlink:href="#DejaVuSans-50"/>
       <use x="63.623047" xlink:href="#DejaVuSans-48"/>
      </g>
     </g>
    </g>
    <g id="xtick_3">
     <g id="line2d_3">
      <g>
       <use style="stroke:#000000;stroke-width:0.8;" x="165.660097" xlink:href="#m08c9ec1fe8" y="307.584"/>
      </g>
     </g>
     <g id="text_3">
      <!-- 30 -->
      <g transform="translate(159.297597 322.182437)scale(0.1 -0.1)">
       <defs>
        <path d="M 40.578125 39.3125 
Q 47.65625 37.796875 51.625 33 
Q 55.609375 28.21875 55.609375 21.1875 
Q 55.609375 10.40625 48.1875 4.484375 
Q 40.765625 -1.421875 27.09375 -1.421875 
Q 22.515625 -1.421875 17.65625 -0.515625 
Q 12.796875 0.390625 7.625 2.203125 
L 7.625 11.71875 
Q 11.71875 9.328125 16.59375 8.109375 
Q 21.484375 6.890625 26.8125 6.890625 
Q 36.078125 6.890625 40.9375 10.546875 
Q 45.796875 14.203125 45.796875 21.1875 
Q 45.796875 27.640625 41.28125 31.265625 
Q 36.765625 34.90625 28.71875 34.90625 
L 20.21875 34.90625 
L 20.21875 43.015625 
L 29.109375 43.015625 
Q 36.375 43.015625 40.234375 45.921875 
Q 44.09375 48.828125 44.09375 54.296875 
Q 44.09375 59.90625 40.109375 62.90625 
Q 36.140625 65.921875 28.71875 65.921875 
Q 24.65625 65.921875 20.015625 65.03125 
Q 15.375 64.15625 9.8125 62.3125 
L 9.8125 71.09375 
Q 15.4375 72.65625 20.34375 73.4375 
Q 25.25 74.21875 29.59375 74.21875 
Q 40.828125 74.21875 47.359375 69.109375 
Q 53.90625 64.015625 53.90625 55.328125 
Q 53.90625 49.265625 50.4375 45.09375 
Q 46.96875 40.921875 40.578125 39.3125 
z
" id="DejaVuSans-51"/>
       </defs>
       <use xlink:href="#DejaVuSans-51"/>
       <use x="63.623047" xlink:href="#DejaVuSans-48"/>
      </g>
     </g>
    </g>
    <g id="xtick_4">
     <g id="line2d_4">
      <g>
       <use style="stroke:#000000;stroke-width:0.8;" x="206.895738" xlink:href="#m08c9ec1fe8" y="307.584"/>
      </g>
     </g>
     <g id="text_4">
      <!-- 40 -->
      <g transform="translate(200.533238 322.182437)scale(0.1 -0.1)">
       <defs>
        <path d="M 37.796875 64.3125 
L 12.890625 25.390625 
L 37.796875 25.390625 
z
M 35.203125 72.90625 
L 47.609375 72.90625 
L 47.609375 25.390625 
L 58.015625 25.390625 
L 58.015625 17.1875 
L 47.609375 17.1875 
L 47.609375 0 
L 37.796875 0 
L 37.796875 17.1875 
L 4.890625 17.1875 
L 4.890625 26.703125 
z
" id="DejaVuSans-52"/>
       </defs>
       <use xlink:href="#DejaVuSans-52"/>
       <use x="63.623047" xlink:href="#DejaVuSans-48"/>
      </g>
     </g>
    </g>
    <g id="xtick_5">
     <g id="line2d_5">
      <g>
       <use style="stroke:#000000;stroke-width:0.8;" x="248.131378" xlink:href="#m08c9ec1fe8" y="307.584"/>
      </g>
     </g>
     <g id="text_5">
      <!-- 50 -->
      <g transform="translate(241.768878 322.182437)scale(0.1 -0.1)">
       <defs>
        <path d="M 10.796875 72.90625 
L 49.515625 72.90625 
L 49.515625 64.59375 
L 19.828125 64.59375 
L 19.828125 46.734375 
Q 21.96875 47.46875 24.109375 47.828125 
Q 26.265625 48.1875 28.421875 48.1875 
Q 40.625 48.1875 47.75 41.5 
Q 54.890625 34.8125 54.890625 23.390625 
Q 54.890625 11.625 47.5625 5.09375 
Q 40.234375 -1.421875 26.90625 -1.421875 
Q 22.3125 -1.421875 17.546875 -0.640625 
Q 12.796875 0.140625 7.71875 1.703125 
L 7.71875 11.625 
Q 12.109375 9.234375 16.796875 8.0625 
Q 21.484375 6.890625 26.703125 6.890625 
Q 35.15625 6.890625 40.078125 11.328125 
Q 45.015625 15.765625 45.015625 23.390625 
Q 45.015625 31 40.078125 35.4375 
Q 35.15625 39.890625 26.703125 39.890625 
Q 22.75 39.890625 18.8125 39.015625 
Q 14.890625 38.140625 10.796875 36.28125 
z
" id="DejaVuSans-53"/>
       </defs>
       <use xlink:href="#DejaVuSans-53"/>
       <use x="63.623047" xlink:href="#DejaVuSans-48"/>
      </g>
     </g>
    </g>
    <g id="xtick_6">
     <g id="line2d_6">
      <g>
       <use style="stroke:#000000;stroke-width:0.8;" x="289.367019" xlink:href="#m08c9ec1fe8" y="307.584"/>
      </g>
     </g>
     <g id="text_6">
      <!-- 60 -->
      <g transform="translate(283.004519 322.182437)scale(0.1 -0.1)">
       <defs>
        <path d="M 33.015625 40.375 
Q 26.375 40.375 22.484375 35.828125 
Q 18.609375 31.296875 18.609375 23.390625 
Q 18.609375 15.53125 22.484375 10.953125 
Q 26.375 6.390625 33.015625 6.390625 
Q 39.65625 6.390625 43.53125 10.953125 
Q 47.40625 15.53125 47.40625 23.390625 
Q 47.40625 31.296875 43.53125 35.828125 
Q 39.65625 40.375 33.015625 40.375 
z
M 52.59375 71.296875 
L 52.59375 62.3125 
Q 48.875 64.0625 45.09375 64.984375 
Q 41.3125 65.921875 37.59375 65.921875 
Q 27.828125 65.921875 22.671875 59.328125 
Q 17.53125 52.734375 16.796875 39.40625 
Q 19.671875 43.65625 24.015625 45.921875 
Q 28.375 48.1875 33.59375 48.1875 
Q 44.578125 48.1875 50.953125 41.515625 
Q 57.328125 34.859375 57.328125 23.390625 
Q 57.328125 12.15625 50.6875 5.359375 
Q 44.046875 -1.421875 33.015625 -1.421875 
Q 20.359375 -1.421875 13.671875 8.265625 
Q 6.984375 17.96875 6.984375 36.375 
Q 6.984375 53.65625 15.1875 63.9375 
Q 23.390625 74.21875 37.203125 74.21875 
Q 40.921875 74.21875 44.703125 73.484375 
Q 48.484375 72.75 52.59375 71.296875 
z
" id="DejaVuSans-54"/>
       </defs>
       <use xlink:href="#DejaVuSans-54"/>
       <use x="63.623047" xlink:href="#DejaVuSans-48"/>
      </g>
     </g>
    </g>
    <g id="xtick_7">
     <g id="line2d_7">
      <g>
       <use style="stroke:#000000;stroke-width:0.8;" x="330.60266" xlink:href="#m08c9ec1fe8" y="307.584"/>
      </g>
     </g>
     <g id="text_7">
      <!-- 70 -->
      <g transform="translate(324.24016 322.182437)scale(0.1 -0.1)">
       <defs>
        <path d="M 8.203125 72.90625 
L 55.078125 72.90625 
L 55.078125 68.703125 
L 28.609375 0 
L 18.3125 0 
L 43.21875 64.59375 
L 8.203125 64.59375 
z
" id="DejaVuSans-55"/>
       </defs>
       <use xlink:href="#DejaVuSans-55"/>
       <use x="63.623047" xlink:href="#DejaVuSans-48"/>
      </g>
     </g>
    </g>
    <g id="xtick_8">
     <g id="line2d_8">
      <g>
       <use style="stroke:#000000;stroke-width:0.8;" x="371.8383" xlink:href="#m08c9ec1fe8" y="307.584"/>
      </g>
     </g>
     <g id="text_8">
      <!-- 80 -->
      <g transform="translate(365.4758 322.182437)scale(0.1 -0.1)">
       <defs>
        <path d="M 31.78125 34.625 
Q 24.75 34.625 20.71875 30.859375 
Q 16.703125 27.09375 16.703125 20.515625 
Q 16.703125 13.921875 20.71875 10.15625 
Q 24.75 6.390625 31.78125 6.390625 
Q 38.8125 6.390625 42.859375 10.171875 
Q 46.921875 13.96875 46.921875 20.515625 
Q 46.921875 27.09375 42.890625 30.859375 
Q 38.875 34.625 31.78125 34.625 
z
M 21.921875 38.8125 
Q 15.578125 40.375 12.03125 44.71875 
Q 8.5 49.078125 8.5 55.328125 
Q 8.5 64.0625 14.71875 69.140625 
Q 20.953125 74.21875 31.78125 74.21875 
Q 42.671875 74.21875 48.875 69.140625 
Q 55.078125 64.0625 55.078125 55.328125 
Q 55.078125 49.078125 51.53125 44.71875 
Q 48 40.375 41.703125 38.8125 
Q 48.828125 37.15625 52.796875 32.3125 
Q 56.78125 27.484375 56.78125 20.515625 
Q 56.78125 9.90625 50.3125 4.234375 
Q 43.84375 -1.421875 31.78125 -1.421875 
Q 19.734375 -1.421875 13.25 4.234375 
Q 6.78125 9.90625 6.78125 20.515625 
Q 6.78125 27.484375 10.78125 32.3125 
Q 14.796875 37.15625 21.921875 38.8125 
z
M 18.3125 54.390625 
Q 18.3125 48.734375 21.84375 45.5625 
Q 25.390625 42.390625 31.78125 42.390625 
Q 38.140625 42.390625 41.71875 45.5625 
Q 45.3125 48.734375 45.3125 54.390625 
Q 45.3125 60.0625 41.71875 63.234375 
Q 38.140625 66.40625 31.78125 66.40625 
Q 25.390625 66.40625 21.84375 63.234375 
Q 18.3125 60.0625 18.3125 54.390625 
z
" id="DejaVuSans-56"/>
       </defs>
       <use xlink:href="#DejaVuSans-56"/>
       <use x="63.623047" xlink:href="#DejaVuSans-48"/>
      </g>
     </g>
    </g>
    <g id="xtick_9">
     <g id="line2d_9">
      <g>
       <use style="stroke:#000000;stroke-width:0.8;" x="413.073941" xlink:href="#m08c9ec1fe8" y="307.584"/>
      </g>
     </g>
     <g id="text_9">
      <!-- 90 -->
      <g transform="translate(406.711441 322.182437)scale(0.1 -0.1)">
       <defs>
        <path d="M 10.984375 1.515625 
L 10.984375 10.5 
Q 14.703125 8.734375 18.5 7.8125 
Q 22.3125 6.890625 25.984375 6.890625 
Q 35.75 6.890625 40.890625 13.453125 
Q 46.046875 20.015625 46.78125 33.40625 
Q 43.953125 29.203125 39.59375 26.953125 
Q 35.25 24.703125 29.984375 24.703125 
Q 19.046875 24.703125 12.671875 31.3125 
Q 6.296875 37.9375 6.296875 49.421875 
Q 6.296875 60.640625 12.9375 67.421875 
Q 19.578125 74.21875 30.609375 74.21875 
Q 43.265625 74.21875 49.921875 64.515625 
Q 56.59375 54.828125 56.59375 36.375 
Q 56.59375 19.140625 48.40625 8.859375 
Q 40.234375 -1.421875 26.421875 -1.421875 
Q 22.703125 -1.421875 18.890625 -0.6875 
Q 15.09375 0.046875 10.984375 1.515625 
z
M 30.609375 32.421875 
Q 37.25 32.421875 41.125 36.953125 
Q 45.015625 41.5 45.015625 49.421875 
Q 45.015625 57.28125 41.125 61.84375 
Q 37.25 66.40625 30.609375 66.40625 
Q 23.96875 66.40625 20.09375 61.84375 
Q 16.21875 57.28125 16.21875 49.421875 
Q 16.21875 41.5 20.09375 36.953125 
Q 23.96875 32.421875 30.609375 32.421875 
z
" id="DejaVuSans-57"/>
       </defs>
       <use xlink:href="#DejaVuSans-57"/>
       <use x="63.623047" xlink:href="#DejaVuSans-48"/>
      </g>
     </g>
    </g>
   </g>
   <g id="matplotlib.axis_2">
    <g id="ytick_1">
     <g id="line2d_10">
      <defs>
       <path d="M 0 0 
L -3.5 0 
" id="m3a810d252a" style="stroke:#000000;stroke-width:0.8;"/>
      </defs>
      <g>
       <use style="stroke:#000000;stroke-width:0.8;" x="57.6" xlink:href="#m3a810d252a" y="278.981446"/>
      </g>
     </g>
     <g id="text_10">
      <!-- 10 -->
      <g transform="translate(37.875 282.780665)scale(0.1 -0.1)">
       <use xlink:href="#DejaVuSans-49"/>
       <use x="63.623047" xlink:href="#DejaVuSans-48"/>
      </g>
     </g>
    </g>
    <g id="ytick_2">
     <g id="line2d_11">
      <g>
       <use style="stroke:#000000;stroke-width:0.8;" x="57.6" xlink:href="#m3a810d252a" y="237.745806"/>
      </g>
     </g>
     <g id="text_11">
      <!-- 20 -->
      <g transform="translate(37.875 241.545024)scale(0.1 -0.1)">
       <use xlink:href="#DejaVuSans-50"/>
       <use x="63.623047" xlink:href="#DejaVuSans-48"/>
      </g>
     </g>
    </g>
    <g id="ytick_3">
     <g id="line2d_12">
      <g>
       <use style="stroke:#000000;stroke-width:0.8;" x="57.6" xlink:href="#m3a810d252a" y="196.510165"/>
      </g>
     </g>
     <g id="text_12">
      <!-- 30 -->
      <g transform="translate(37.875 200.309384)scale(0.1 -0.1)">
       <use xlink:href="#DejaVuSans-51"/>
       <use x="63.623047" xlink:href="#DejaVuSans-48"/>
      </g>
     </g>
    </g>
    <g id="ytick_4">
     <g id="line2d_13">
      <g>
       <use style="stroke:#000000;stroke-width:0.8;" x="57.6" xlink:href="#m3a810d252a" y="155.274524"/>
      </g>
     </g>
     <g id="text_13">
      <!-- 40 -->
      <g transform="translate(37.875 159.073743)scale(0.1 -0.1)">
       <use xlink:href="#DejaVuSans-52"/>
       <use x="63.623047" xlink:href="#DejaVuSans-48"/>
      </g>
     </g>
    </g>
    <g id="ytick_5">
     <g id="line2d_14">
      <g>
       <use style="stroke:#000000;stroke-width:0.8;" x="57.6" xlink:href="#m3a810d252a" y="114.038883"/>
      </g>
     </g>
     <g id="text_14">
      <!-- 50 -->
      <g transform="translate(37.875 117.838102)scale(0.1 -0.1)">
       <use xlink:href="#DejaVuSans-53"/>
       <use x="63.623047" xlink:href="#DejaVuSans-48"/>
      </g>
     </g>
    </g>
    <g id="ytick_6">
     <g id="line2d_15">
      <g>
       <use style="stroke:#000000;stroke-width:0.8;" x="57.6" xlink:href="#m3a810d252a" y="72.803243"/>
      </g>
     </g>
     <g id="text_15">
      <!-- 60 -->
      <g transform="translate(37.875 76.602461)scale(0.1 -0.1)">
       <use xlink:href="#DejaVuSans-54"/>
       <use x="63.623047" xlink:href="#DejaVuSans-48"/>
      </g>
     </g>
    </g>
   </g>
   <g id="line2d_16">
    <path clip-path="url(#p3b10b76c21)" d="M 124.898666 67.867336 
L 121.377142 69.892006 
L 117.950461 72.135225 
L 114.630992 74.576375 
L 111.422859 77.211333 
L 108.342556 80.027727 
L 105.398332 83.013187 
L 102.590184 86.15122 
L 99.938733 89.4377 
L 97.443977 92.856135 
L 95.12241 96.394153 
L 92.978157 100.043507 
L 91.019464 103.787703 
L 89.258702 107.618494 
L 87.704118 111.527633 
L 86.36396 115.494502 
L 85.246474 119.514976 
L 84.359908 123.572564 
L 83.716632 127.659016 
L 83.32077 131.757838 
L 83.188816 135.864908 
L 83.32077 139.963731 
L 83.696014 144.050183 
L 84.306301 148.12014 
L 85.122767 152.16948 
L 86.128917 156.198202 
L 87.308256 160.193936 
L 88.636044 164.164928 
L 90.091662 168.094685 
L 93.320412 175.834615 
L 96.866678 183.388984 
L 100.746951 190.716557 
L 102.825228 194.287564 
L 105.002469 197.78847 
L 107.2828 201.215151 
L 109.678591 204.567609 
L 112.189842 207.837595 
L 114.820676 211.020987 
L 117.57934 214.117783 
L 120.461711 217.111491 
L 123.459542 220.002109 
L 126.572833 222.773144 
L 129.789213 225.416349 
L 133.108682 227.927599 
L 136.522993 230.294525 
L 140.032146 232.508879 
L 143.619647 234.55829 
L 147.289619 236.442759 
L 151.033815 238.145791 
L 154.843988 239.696251 
L 158.707768 241.110634 
L 166.563157 243.634255 
L 178.521493 246.986713 
L 190.467458 250.376282 
L 198.343466 252.83805 
L 210.075006 256.759559 
L 237.381247 266.099432 
L 249.191134 269.794145 
L 257.128995 272.045611 
L 265.128709 274.066158 
L 273.198524 275.814549 
L 281.334316 277.233055 
L 289.527838 278.272193 
L 293.643155 278.630943 
L 297.774966 278.874234 
L 301.919148 278.993817 
L 306.071577 278.981446 
L 310.232253 278.832998 
L 314.392929 278.540225 
L 318.541235 278.099004 
L 322.668923 277.49284 
L 326.763622 276.721733 
L 330.808838 275.777437 
L 334.804572 274.651704 
L 338.730205 273.332163 
L 342.57749 271.818815 
L 346.33818 270.099289 
L 349.999905 268.169461 
L 353.550294 266.033455 
L 356.989346 263.707765 
L 360.300568 261.188267 
L 363.479836 258.49558 
L 366.518903 255.629703 
L 369.405398 252.603007 
L 372.139321 249.419615 
L 374.704178 246.091899 
L 377.091721 242.628105 
L 379.297828 239.040605 
L 381.314251 235.333521 
L 383.120372 231.523347 
L 384.716191 227.630703 
L 386.081091 223.663834 
L 387.210947 219.635112 
L 388.09339 215.561031 
L 388.716048 211.453961 
L 389.070675 207.326273 
L 389.144899 203.194462 
L 388.930474 199.070898 
L 388.439769 194.967952 
L 387.685157 190.889747 
L 386.683131 186.852778 
L 385.441938 182.869415 
L 383.98632 178.939658 
L 382.3204 175.084126 
L 380.460673 171.306941 
L 378.423632 167.620475 
L 376.225773 164.037098 
L 373.871218 160.560933 
L 371.368214 157.204352 
L 368.720886 153.979725 
L 365.933357 150.887052 
L 363.001503 147.938704 
L 359.933571 145.142927 
L 356.729562 142.503846 
L 353.389475 140.037955 
L 349.921557 137.745253 
L 346.32581 135.638112 
L 342.602231 133.724778 
L 338.77144 132.013499 
L 334.841684 130.516645 
L 330.837703 129.246588 
L 326.767745 128.20745 
L 322.652428 127.411602 
L 318.504123 126.871415 
L 314.339323 126.59926 
L 310.174523 126.59926 
L 306.026218 126.887909 
L 301.910901 127.469332 
L 297.83682 128.331156 
L 293.824592 129.46926 
L 289.886588 130.867148 
L 286.031056 132.51245 
L 282.274489 134.388672 
L 278.633382 136.49169 
L 275.115982 138.809133 
L 271.742906 141.320383 
L 268.518279 144.021318 
L 265.466842 146.895442 
L 262.58447 149.934509 
L 259.879412 153.126147 
L 257.359915 156.462111 
L 255.025977 159.925904 
L 252.889971 163.509282 
L 250.951896 167.199871 
L 249.219999 170.989427 
L 247.698404 174.865577 
L 246.391234 178.815951 
L 245.302613 182.832303 
L 244.444912 186.902261 
L 243.81813 191.013454 
L 243.426392 195.153512 
L 243.277943 199.318312 
L 243.376909 203.491359 
L 243.727412 207.660282 
L 244.337699 211.816835 
L 245.211895 215.952769 
L 246.358246 220.051592 
L 246.358246 220.051592 
" style="fill:none;stroke:#fea952;stroke-linecap:square;"/>
   </g>
   <g id="line2d_17">
    <path clip-path="url(#p3b10b76c21)" d="M 133.119947 82.166673 
L 130.411219 83.692222 
L 127.722446 85.423144 
L 125.099848 87.322494 
L 122.552928 89.384337 
L 120.08658 91.60954 
L 117.689688 94.012417 
L 115.427497 96.508048 
L 113.26223 99.161121 
L 111.234426 101.905113 
L 109.343503 104.750049 
L 107.593383 107.689137 
L 106.00642 110.676218 
L 104.585469 113.713632 
L 103.330698 116.806883 
L 102.25577 119.91161 
L 101.360567 123.03584 
L 100.653521 126.137451 
L 100.134496 129.244644 
L 99.806519 132.287501 
L 99.674531 135.334181 
L 99.745922 138.455467 
L 100.007905 141.604225 
L 100.475164 144.860023 
L 101.125509 148.17289 
L 101.948511 151.529055 
L 102.951201 154.963377 
L 104.103316 158.435708 
L 106.800701 165.446858 
L 109.912345 172.469787 
L 113.24061 179.179632 
L 116.831758 185.576789 
L 120.702498 191.624937 
L 122.760303 194.521251 
L 124.904173 197.330156 
L 127.136867 200.049573 
L 129.461395 202.677623 
L 131.910659 205.237903 
L 134.42583 207.681354 
L 137.045175 210.029889 
L 139.740585 212.262236 
L 142.505889 214.372047 
L 145.325259 216.34531 
L 148.213816 218.186841 
L 151.153948 219.885363 
L 154.118728 221.428641 
L 157.250744 222.86802 
L 160.513955 224.207159 
L 167.475735 226.655435 
L 174.95043 228.892689 
L 195.311239 234.609283 
L 203.470304 237.160805 
L 215.444342 241.163704 
L 242.443584 250.40124 
L 253.789901 253.953949 
L 261.284451 256.083385 
L 268.77136 257.979157 
L 276.214343 259.598343 
L 283.625412 260.898693 
L 290.960282 261.840255 
L 298.250722 262.38684 
L 301.87001 262.499634 
L 305.483455 262.497678 
L 309.07447 262.379426 
L 312.64841 262.138483 
L 316.144705 261.779778 
L 319.616409 261.283501 
L 323.014085 260.659309 
L 326.335974 259.901229 
L 329.549231 259.017066 
L 332.692424 257.982711 
L 335.718676 256.818243 
L 338.647913 255.507501 
L 341.496788 254.035902 
L 344.310391 252.370195 
L 347.001489 250.581334 
L 349.640378 248.601733 
L 352.163579 246.495463 
L 354.582524 244.246235 
L 356.892328 241.856679 
L 359.075212 239.350377 
L 361.12355 236.730967 
L 363.041479 233.988014 
L 364.808364 231.159239 
L 366.409738 228.268395 
L 367.858803 225.266751 
L 369.119352 222.264223 
L 370.199574 219.209857 
L 371.090504 216.143437 
L 371.785484 213.088647 
L 372.282331 210.042073 
L 372.579079 207.030017 
L 372.672898 204.051006 
L 372.552931 201.029619 
L 372.220829 197.96903 
L 371.676668 194.863254 
L 370.935638 191.759605 
L 369.974666 188.598635 
L 368.845038 185.481988 
L 367.522533 182.369976 
L 366.023855 179.284333 
L 364.3634 176.2443 
L 362.569384 173.287154 
L 360.648573 170.421063 
L 358.619814 167.67043 
L 356.468928 165.022823 
L 354.237486 162.517491 
L 351.891592 160.13011 
L 349.446904 157.874396 
L 346.932895 155.773579 
L 344.293033 153.797142 
L 341.582185 151.976042 
L 338.787334 150.308895 
L 335.874713 148.784692 
L 332.900235 147.427436 
L 329.854602 146.238907 
L 326.7573 145.228165 
L 323.635998 144.401666 
L 320.52255 143.767766 
L 317.428574 143.330567 
L 314.339323 143.093516 
L 311.319467 143.05373 
L 308.333653 143.219971 
L 305.324529 143.606482 
L 302.337977 144.199366 
L 299.342299 145.013243 
L 296.360487 146.037815 
L 293.401032 147.2686 
L 290.52404 148.671718 
L 287.708089 150.265222 
L 284.965893 152.039391 
L 282.334048 153.965074 
L 279.827414 156.028147 
L 277.434489 158.246033 
L 275.167322 160.599045 
L 273.041553 163.066899 
L 271.038704 165.679009 
L 269.194083 168.371334 
L 267.493112 171.17797 
L 265.953707 174.055976 
L 264.573641 177.016548 
L 263.357634 180.04718 
L 262.311066 183.130978 
L 261.44237 186.233589 
L 260.750756 189.388207 
L 260.23904 192.567225 
L 259.91018 195.741053 
L 259.767563 198.927254 
L 259.813177 202.109477 
L 260.046703 205.264196 
L 260.475414 208.405872 
L 261.096597 211.510167 
L 262.242948 215.608989 
L 262.242948 215.608989 
" style="fill:none;stroke:#ffffff;stroke-linecap:square;"/>
   </g>
   <g id="line2d_18">
    <path clip-path="url(#p3b10b76c21)" d="M 116.677385 53.568 
L 112.343066 56.091791 
L 108.178475 58.847306 
L 104.162136 61.830256 
L 100.292789 65.038328 
L 96.598533 68.445914 
L 93.106975 72.013958 
L 89.752872 75.794391 
L 86.615236 79.714279 
L 83.653527 83.807157 
L 80.901317 88.038256 
L 78.362931 92.397877 
L 76.032508 96.899188 
L 73.931935 101.523356 
L 72.077538 106.248383 
L 70.472149 111.077393 
L 69.132381 115.994113 
L 68.066294 121.007676 
L 67.298767 126.073387 
L 66.83502 131.228176 
L 66.7031 136.395635 
L 66.895617 141.471994 
L 67.384123 146.49614 
L 68.137438 151.380257 
L 69.120025 156.166071 
L 70.309323 160.86735 
L 71.665311 165.424495 
L 73.168771 169.894149 
L 74.79058 174.254018 
L 76.516532 178.527801 
L 80.20052 186.803294 
L 82.193212 190.922236 
L 84.286424 194.987763 
L 86.491209 199.013202 
L 88.818697 202.998339 
L 91.270797 206.926394 
L 93.863103 210.805366 
L 96.59688 214.613967 
L 99.475511 218.345035 
L 102.504484 221.992401 
L 105.697285 225.557944 
L 109.012763 228.985079 
L 112.493254 232.322865 
L 116.100491 235.516399 
L 119.837841 238.570462 
L 123.711476 241.483152 
L 127.720727 244.24374 
L 131.850476 246.830917 
L 136.085346 249.231218 
L 140.46051 251.456878 
L 144.816887 253.423562 
L 149.174022 255.185343 
L 153.476978 256.753502 
L 161.973201 259.477007 
L 174.155184 262.892555 
L 185.623678 266.143282 
L 193.216627 268.515295 
L 204.70567 272.355415 
L 232.31891 281.797624 
L 240.476541 284.392413 
L 248.751201 286.840434 
L 257.197772 289.105732 
L 265.810935 291.129525 
L 274.605887 292.849112 
L 283.561361 294.195346 
L 288.095395 294.704131 
L 292.673616 295.09668 
L 297.299211 295.361627 
L 301.968287 295.488 
L 306.6597 295.465214 
L 311.390037 295.28657 
L 316.137449 294.941967 
L 320.937765 294.418229 
L 325.721436 293.702178 
L 330.513158 292.784157 
L 335.281702 291.653645 
L 340.059912 290.286341 
L 344.767985 288.681616 
L 349.436304 286.819387 
L 354.028447 284.691078 
L 358.503022 282.30302 
L 362.790197 279.696716 
L 366.977204 276.834196 
L 370.960758 273.774801 
L 374.796093 270.495697 
L 378.455282 267.013171 
L 381.918468 263.349335 
L 385.203429 259.488854 
L 388.284805 255.452832 
L 391.141963 251.268197 
L 393.787292 246.92197 
L 396.218763 242.398646 
L 398.381941 237.779944 
L 400.31303 232.997183 
L 401.962608 228.117811 
L 403.331391 223.126787 
L 404.401296 218.033414 
L 405.149765 212.865849 
L 405.56227 207.62253 
L 405.6169 202.337918 
L 405.308016 197.112177 
L 404.65871 191.966874 
L 403.693647 186.91624 
L 402.430624 181.94595 
L 400.909211 177.140194 
L 399.127602 172.397329 
L 397.118268 167.798276 
L 394.897491 163.32955 
L 392.483865 158.99665 
L 389.882161 154.787041 
L 387.093862 150.700804 
L 384.116614 146.738274 
L 380.972844 142.936627 
L 377.629227 139.256613 
L 374.111413 135.747298 
L 370.420238 132.411458 
L 366.526229 129.234113 
L 362.485917 126.278768 
L 358.26093 123.514464 
L 353.864285 120.967329 
L 349.329749 118.664865 
L 344.642646 116.599563 
L 339.828766 114.794384 
L 334.918106 113.265011 
L 329.899492 112.013233 
L 324.782306 111.055437 
L 319.579671 110.412263 
L 314.339323 110.105003 
L 309.02958 110.144789 
L 303.718782 110.555848 
L 298.497273 111.332181 
L 293.335663 112.462947 
L 288.306885 113.925277 
L 283.412689 115.696482 
L 278.66108 117.756301 
L 274.024938 120.105626 
L 269.558675 122.718158 
L 265.26607 125.578874 
L 261.151765 128.675692 
L 257.209144 132.014488 
L 253.499195 135.544851 
L 250.001619 139.269973 
L 246.717272 143.185396 
L 243.681126 147.245212 
L 240.857872 151.480475 
L 238.286831 155.840593 
L 235.950086 160.343767 
L 233.866358 164.962306 
L 232.039174 169.683974 
L 230.471403 174.500925 
L 229.162857 179.431017 
L 228.139068 184.416314 
L 227.39722 189.459683 
L 226.942603 194.565971 
L 226.788324 199.70937 
L 226.940641 204.873241 
L 227.408121 210.056368 
L 228.199985 215.227797 
L 229.327193 220.395372 
L 230.473543 224.494195 
L 230.473543 224.494195 
" style="fill:none;stroke:#ffffff;stroke-linecap:square;"/>
   </g>
   <g id="patch_3">
    <path d="M 57.6 307.584 
L 57.6 41.472 
" style="fill:none;stroke:#000000;stroke-linecap:square;stroke-linejoin:miter;stroke-width:0.8;"/>
   </g>
   <g id="patch_4">
    <path d="M 414.72 307.584 
L 414.72 41.472 
" style="fill:none;stroke:#000000;stroke-linecap:square;stroke-linejoin:miter;stroke-width:0.8;"/>
   </g>
   <g id="patch_5">
    <path d="M 57.6 307.584 
L 414.72 307.584 
" style="fill:none;stroke:#000000;stroke-linecap:square;stroke-linejoin:miter;stroke-width:0.8;"/>
   </g>
   <g id="patch_6">
    <path d="M 57.6 41.472 
L 414.72 41.472 
" style="fill:none;stroke:#000000;stroke-linecap:square;stroke-linejoin:miter;stroke-width:0.8;"/>
   </g>
  </g>
 </g>
 <defs>
  <clipPath id="p3b10b76c21">
   <rect height="266.112" width="357.12" x="57.6" y="41.472"/>
  </clipPath>
 </defs>
</svg>
