<?xml version="1.0" encoding="utf-8" standalone="no"?>
<!DOCTYPE svg PUBLIC "-//W3C//DTD SVG 1.1//EN"
  "http://www.w3.org/Graphics/SVG/1.1/DTD/svg11.dtd">
<!-- Created with matplotlib (https://matplotlib.org/) -->
<svg height="345.6pt" version="1.1" viewBox="0 0 460.8 345.6" width="460.8pt" xmlns="http://www.w3.org/2000/svg" xmlns:xlink="http://www.w3.org/1999/xlink">
 <metadata>
  <rdf:RDF xmlns:cc="http://creativecommons.org/ns#" xmlns:dc="http://purl.org/dc/elements/1.1/" xmlns:rdf="http://www.w3.org/1999/02/22-rdf-syntax-ns#">
   <cc:Work>
    <dc:type rdf:resource="http://purl.org/dc/dcmitype/StillImage"/>
    <dc:date>2021-01-25T12:10:32.711320</dc:date>
    <dc:format>image/svg+xml</dc:format>
    <dc:creator>
     <cc:Agent>
      <dc:title>Matplotlib v3.3.3, https://matplotlib.org/</dc:title>
     </cc:Agent>
    </dc:creator>
   </cc:Work>
  </rdf:RDF>
 </metadata>
 <defs>
  <style type="text/css">*{stroke-linecap:butt;stroke-linejoin:round;}</style>
 </defs>
 <g id="figure_1">
  <g id="patch_1">
   <path d="M 0 345.6 
L 460.8 345.6 
L 460.8 0 
L 0 0 
z
" style="fill:#ffffff;"/>
  </g>
  <g id="axes_1">
   <g id="patch_2">
    <path d="M 57.6 307.584 
L 414.72 307.584 
L 414.72 41.472 
L 57.6 41.472 
z
" style="fill:#7d9051;"/>
   </g>
   <g id="matplotlib.axis_1">
    <g id="xtick_1">
     <g id="line2d_1">
      <defs>
       <path d="M 0 0 
L 0 3.5 
" id="me6ec065f25" style="stroke:#000000;stroke-width:0.8;"/>
      </defs>
      <g>
       <use style="stroke:#000000;stroke-width:0.8;" x="127.928327" xlink:href="#me6ec065f25" y="307.584"/>
      </g>
     </g>
     <g id="text_1">
      <!-- 20 -->
      <g transform="translate(121.565827 322.182437)scale(0.1 -0.1)">
       <defs>
        <path d="M 19.1875 8.296875 
L 53.609375 8.296875 
L 53.609375 0 
L 7.328125 0 
L 7.328125 8.296875 
Q 12.9375 14.109375 22.625 23.890625 
Q 32.328125 33.6875 34.8125 36.53125 
Q 39.546875 41.84375 41.421875 45.53125 
Q 43.3125 49.21875 43.3125 52.78125 
Q 43.3125 58.59375 39.234375 62.25 
Q 35.15625 65.921875 28.609375 65.921875 
Q 23.96875 65.921875 18.8125 64.3125 
Q 13.671875 62.703125 7.8125 59.421875 
L 7.8125 69.390625 
Q 13.765625 71.78125 18.9375 73 
Q 24.125 74.21875 28.421875 74.21875 
Q 39.75 74.21875 46.484375 68.546875 
Q 53.21875 62.890625 53.21875 53.421875 
Q 53.21875 48.921875 51.53125 44.890625 
Q 49.859375 40.875 45.40625 35.40625 
Q 44.1875 33.984375 37.640625 27.21875 
Q 31.109375 20.453125 19.1875 8.296875 
z
" id="DejaVuSans-50"/>
        <path d="M 31.78125 66.40625 
Q 24.171875 66.40625 20.328125 58.90625 
Q 16.5 51.421875 16.5 36.375 
Q 16.5 21.390625 20.328125 13.890625 
Q 24.171875 6.390625 31.78125 6.390625 
Q 39.453125 6.390625 43.28125 13.890625 
Q 47.125 21.390625 47.125 36.375 
Q 47.125 51.421875 43.28125 58.90625 
Q 39.453125 66.40625 31.78125 66.40625 
z
M 31.78125 74.21875 
Q 44.046875 74.21875 50.515625 64.515625 
Q 56.984375 54.828125 56.984375 36.375 
Q 56.984375 17.96875 50.515625 8.265625 
Q 44.046875 -1.421875 31.78125 -1.421875 
Q 19.53125 -1.421875 13.0625 8.265625 
Q 6.59375 17.96875 6.59375 36.375 
Q 6.59375 54.828125 13.0625 64.515625 
Q 19.53125 74.21875 31.78125 74.21875 
z
" id="DejaVuSans-48"/>
       </defs>
       <use xlink:href="#DejaVuSans-50"/>
       <use x="63.623047" xlink:href="#DejaVuSans-48"/>
      </g>
     </g>
    </g>
    <g id="xtick_2">
     <g id="line2d_2">
      <g>
       <use style="stroke:#000000;stroke-width:0.8;" x="204.384405" xlink:href="#me6ec065f25" y="307.584"/>
      </g>
     </g>
     <g id="text_2">
      <!-- 40 -->
      <g transform="translate(198.021905 322.182437)scale(0.1 -0.1)">
       <defs>
        <path d="M 37.796875 64.3125 
L 12.890625 25.390625 
L 37.796875 25.390625 
z
M 35.203125 72.90625 
L 47.609375 72.90625 
L 47.609375 25.390625 
L 58.015625 25.390625 
L 58.015625 17.1875 
L 47.609375 17.1875 
L 47.609375 0 
L 37.796875 0 
L 37.796875 17.1875 
L 4.890625 17.1875 
L 4.890625 26.703125 
z
" id="DejaVuSans-52"/>
       </defs>
       <use xlink:href="#DejaVuSans-52"/>
       <use x="63.623047" xlink:href="#DejaVuSans-48"/>
      </g>
     </g>
    </g>
    <g id="xtick_3">
     <g id="line2d_3">
      <g>
       <use style="stroke:#000000;stroke-width:0.8;" x="280.840483" xlink:href="#me6ec065f25" y="307.584"/>
      </g>
     </g>
     <g id="text_3">
      <!-- 60 -->
      <g transform="translate(274.477983 322.182437)scale(0.1 -0.1)">
       <defs>
        <path d="M 33.015625 40.375 
Q 26.375 40.375 22.484375 35.828125 
Q 18.609375 31.296875 18.609375 23.390625 
Q 18.609375 15.53125 22.484375 10.953125 
Q 26.375 6.390625 33.015625 6.390625 
Q 39.65625 6.390625 43.53125 10.953125 
Q 47.40625 15.53125 47.40625 23.390625 
Q 47.40625 31.296875 43.53125 35.828125 
Q 39.65625 40.375 33.015625 40.375 
z
M 52.59375 71.296875 
L 52.59375 62.3125 
Q 48.875 64.0625 45.09375 64.984375 
Q 41.3125 65.921875 37.59375 65.921875 
Q 27.828125 65.921875 22.671875 59.328125 
Q 17.53125 52.734375 16.796875 39.40625 
Q 19.671875 43.65625 24.015625 45.921875 
Q 28.375 48.1875 33.59375 48.1875 
Q 44.578125 48.1875 50.953125 41.515625 
Q 57.328125 34.859375 57.328125 23.390625 
Q 57.328125 12.15625 50.6875 5.359375 
Q 44.046875 -1.421875 33.015625 -1.421875 
Q 20.359375 -1.421875 13.671875 8.265625 
Q 6.984375 17.96875 6.984375 36.375 
Q 6.984375 53.65625 15.1875 63.9375 
Q 23.390625 74.21875 37.203125 74.21875 
Q 40.921875 74.21875 44.703125 73.484375 
Q 48.484375 72.75 52.59375 71.296875 
z
" id="DejaVuSans-54"/>
       </defs>
       <use xlink:href="#DejaVuSans-54"/>
       <use x="63.623047" xlink:href="#DejaVuSans-48"/>
      </g>
     </g>
    </g>
    <g id="xtick_4">
     <g id="line2d_4">
      <g>
       <use style="stroke:#000000;stroke-width:0.8;" x="357.296561" xlink:href="#me6ec065f25" y="307.584"/>
      </g>
     </g>
     <g id="text_4">
      <!-- 80 -->
      <g transform="translate(350.934061 322.182437)scale(0.1 -0.1)">
       <defs>
        <path d="M 31.78125 34.625 
Q 24.75 34.625 20.71875 30.859375 
Q 16.703125 27.09375 16.703125 20.515625 
Q 16.703125 13.921875 20.71875 10.15625 
Q 24.75 6.390625 31.78125 6.390625 
Q 38.8125 6.390625 42.859375 10.171875 
Q 46.921875 13.96875 46.921875 20.515625 
Q 46.921875 27.09375 42.890625 30.859375 
Q 38.875 34.625 31.78125 34.625 
z
M 21.921875 38.8125 
Q 15.578125 40.375 12.03125 44.71875 
Q 8.5 49.078125 8.5 55.328125 
Q 8.5 64.0625 14.71875 69.140625 
Q 20.953125 74.21875 31.78125 74.21875 
Q 42.671875 74.21875 48.875 69.140625 
Q 55.078125 64.0625 55.078125 55.328125 
Q 55.078125 49.078125 51.53125 44.71875 
Q 48 40.375 41.703125 38.8125 
Q 48.828125 37.15625 52.796875 32.3125 
Q 56.78125 27.484375 56.78125 20.515625 
Q 56.78125 9.90625 50.3125 4.234375 
Q 43.84375 -1.421875 31.78125 -1.421875 
Q 19.734375 -1.421875 13.25 4.234375 
Q 6.78125 9.90625 6.78125 20.515625 
Q 6.78125 27.484375 10.78125 32.3125 
Q 14.796875 37.15625 21.921875 38.8125 
z
M 18.3125 54.390625 
Q 18.3125 48.734375 21.84375 45.5625 
Q 25.390625 42.390625 31.78125 42.390625 
Q 38.140625 42.390625 41.71875 45.5625 
Q 45.3125 48.734375 45.3125 54.390625 
Q 45.3125 60.0625 41.71875 63.234375 
Q 38.140625 66.40625 31.78125 66.40625 
Q 25.390625 66.40625 21.84375 63.234375 
Q 18.3125 60.0625 18.3125 54.390625 
z
" id="DejaVuSans-56"/>
       </defs>
       <use xlink:href="#DejaVuSans-56"/>
       <use x="63.623047" xlink:href="#DejaVuSans-48"/>
      </g>
     </g>
    </g>
   </g>
   <g id="matplotlib.axis_2">
    <g id="ytick_1">
     <g id="line2d_5">
      <defs>
       <path d="M 0 0 
L -3.5 0 
" id="m60d8828a3c" style="stroke:#000000;stroke-width:0.8;"/>
      </defs>
      <g>
       <use style="stroke:#000000;stroke-width:0.8;" x="57.6" xlink:href="#m60d8828a3c" y="269.798567"/>
      </g>
     </g>
     <g id="text_5">
      <!-- 10 -->
      <g transform="translate(37.875 273.597786)scale(0.1 -0.1)">
       <defs>
        <path d="M 12.40625 8.296875 
L 28.515625 8.296875 
L 28.515625 63.921875 
L 10.984375 60.40625 
L 10.984375 69.390625 
L 28.421875 72.90625 
L 38.28125 72.90625 
L 38.28125 8.296875 
L 54.390625 8.296875 
L 54.390625 0 
L 12.40625 0 
z
" id="DejaVuSans-49"/>
       </defs>
       <use xlink:href="#DejaVuSans-49"/>
       <use x="63.623047" xlink:href="#DejaVuSans-48"/>
      </g>
     </g>
    </g>
    <g id="ytick_2">
     <g id="line2d_6">
      <g>
       <use style="stroke:#000000;stroke-width:0.8;" x="57.6" xlink:href="#m60d8828a3c" y="231.570528"/>
      </g>
     </g>
     <g id="text_6">
      <!-- 20 -->
      <g transform="translate(37.875 235.369747)scale(0.1 -0.1)">
       <use xlink:href="#DejaVuSans-50"/>
       <use x="63.623047" xlink:href="#DejaVuSans-48"/>
      </g>
     </g>
    </g>
    <g id="ytick_3">
     <g id="line2d_7">
      <g>
       <use style="stroke:#000000;stroke-width:0.8;" x="57.6" xlink:href="#m60d8828a3c" y="193.342489"/>
      </g>
     </g>
     <g id="text_7">
      <!-- 30 -->
      <g transform="translate(37.875 197.141708)scale(0.1 -0.1)">
       <defs>
        <path d="M 40.578125 39.3125 
Q 47.65625 37.796875 51.625 33 
Q 55.609375 28.21875 55.609375 21.1875 
Q 55.609375 10.40625 48.1875 4.484375 
Q 40.765625 -1.421875 27.09375 -1.421875 
Q 22.515625 -1.421875 17.65625 -0.515625 
Q 12.796875 0.390625 7.625 2.203125 
L 7.625 11.71875 
Q 11.71875 9.328125 16.59375 8.109375 
Q 21.484375 6.890625 26.8125 6.890625 
Q 36.078125 6.890625 40.9375 10.546875 
Q 45.796875 14.203125 45.796875 21.1875 
Q 45.796875 27.640625 41.28125 31.265625 
Q 36.765625 34.90625 28.71875 34.90625 
L 20.21875 34.90625 
L 20.21875 43.015625 
L 29.109375 43.015625 
Q 36.375 43.015625 40.234375 45.921875 
Q 44.09375 48.828125 44.09375 54.296875 
Q 44.09375 59.90625 40.109375 62.90625 
Q 36.140625 65.921875 28.71875 65.921875 
Q 24.65625 65.921875 20.015625 65.03125 
Q 15.375 64.15625 9.8125 62.3125 
L 9.8125 71.09375 
Q 15.4375 72.65625 20.34375 73.4375 
Q 25.25 74.21875 29.59375 74.21875 
Q 40.828125 74.21875 47.359375 69.109375 
Q 53.90625 64.015625 53.90625 55.328125 
Q 53.90625 49.265625 50.4375 45.09375 
Q 46.96875 40.921875 40.578125 39.3125 
z
" id="DejaVuSans-51"/>
       </defs>
       <use xlink:href="#DejaVuSans-51"/>
       <use x="63.623047" xlink:href="#DejaVuSans-48"/>
      </g>
     </g>
    </g>
    <g id="ytick_4">
     <g id="line2d_8">
      <g>
       <use style="stroke:#000000;stroke-width:0.8;" x="57.6" xlink:href="#m60d8828a3c" y="155.114451"/>
      </g>
     </g>
     <g id="text_8">
      <!-- 40 -->
      <g transform="translate(37.875 158.913669)scale(0.1 -0.1)">
       <use xlink:href="#DejaVuSans-52"/>
       <use x="63.623047" xlink:href="#DejaVuSans-48"/>
      </g>
     </g>
    </g>
    <g id="ytick_5">
     <g id="line2d_9">
      <g>
       <use style="stroke:#000000;stroke-width:0.8;" x="57.6" xlink:href="#m60d8828a3c" y="116.886412"/>
      </g>
     </g>
     <g id="text_9">
      <!-- 50 -->
      <g transform="translate(37.875 120.68563)scale(0.1 -0.1)">
       <defs>
        <path d="M 10.796875 72.90625 
L 49.515625 72.90625 
L 49.515625 64.59375 
L 19.828125 64.59375 
L 19.828125 46.734375 
Q 21.96875 47.46875 24.109375 47.828125 
Q 26.265625 48.1875 28.421875 48.1875 
Q 40.625 48.1875 47.75 41.5 
Q 54.890625 34.8125 54.890625 23.390625 
Q 54.890625 11.625 47.5625 5.09375 
Q 40.234375 -1.421875 26.90625 -1.421875 
Q 22.3125 -1.421875 17.546875 -0.640625 
Q 12.796875 0.140625 7.71875 1.703125 
L 7.71875 11.625 
Q 12.109375 9.234375 16.796875 8.0625 
Q 21.484375 6.890625 26.703125 6.890625 
Q 35.15625 6.890625 40.078125 11.328125 
Q 45.015625 15.765625 45.015625 23.390625 
Q 45.015625 31 40.078125 35.4375 
Q 35.15625 39.890625 26.703125 39.890625 
Q 22.75 39.890625 18.8125 39.015625 
Q 14.890625 38.140625 10.796875 36.28125 
z
" id="DejaVuSans-53"/>
       </defs>
       <use xlink:href="#DejaVuSans-53"/>
       <use x="63.623047" xlink:href="#DejaVuSans-48"/>
      </g>
     </g>
    </g>
    <g id="ytick_6">
     <g id="line2d_10">
      <g>
       <use style="stroke:#000000;stroke-width:0.8;" x="57.6" xlink:href="#m60d8828a3c" y="78.658373"/>
      </g>
     </g>
     <g id="text_10">
      <!-- 60 -->
      <g transform="translate(37.875 82.457591)scale(0.1 -0.1)">
       <use xlink:href="#DejaVuSans-54"/>
       <use x="63.623047" xlink:href="#DejaVuSans-48"/>
      </g>
     </g>
    </g>
   </g>
   <g id="line2d_11">
    <path clip-path="url(#p4b5d821dae)" d="M 89.700288 191.889824 
L 89.199501 176.90061 
L 89.123045 169.19766 
L 89.272134 161.429723 
L 89.730871 153.661785 
L 90.101683 149.793108 
L 90.583356 145.943544 
L 91.183536 142.12074 
L 91.913692 138.332341 
L 92.781468 134.585994 
L 93.802157 130.889342 
L 94.983403 127.250033 
L 96.336676 123.668066 
L 97.86962 120.158732 
L 99.593705 116.729677 
L 101.520398 113.3809 
L 103.638231 110.131517 
L 105.939559 106.996818 
L 108.412913 103.988271 
L 111.050648 101.121168 
L 113.837472 98.406978 
L 116.769563 95.864813 
L 119.835451 93.506143 
L 123.02367 91.346259 
L 126.32275 89.396629 
L 129.728868 87.668721 
L 133.222911 86.154891 
L 136.804878 84.832201 
L 140.455656 83.693005 
L 144.167598 82.71819 
L 147.93306 81.892465 
L 151.744396 81.196715 
L 159.443523 80.149266 
L 167.196169 79.457339 
L 174.937347 79.094172 
L 182.636474 79.1324 
L 186.4631 79.331186 
L 190.26679 79.656125 
L 194.043721 80.118684 
L 197.793891 80.734155 
L 201.505834 81.506362 
L 205.187194 82.446771 
L 208.826503 83.540093 
L 212.431407 84.782505 
L 216.001906 86.154891 
L 223.02822 89.251362 
L 229.916912 92.741582 
L 236.664161 96.526158 
L 246.569046 102.512669 
L 256.43188 108.426547 
L 263.110318 112.073502 
L 266.508791 113.74789 
L 269.964606 115.296125 
L 273.477763 116.710563 
L 277.048261 117.995025 
L 284.330703 120.239011 
L 291.754588 122.150413 
L 303.043328 124.658172 
L 314.343536 127.100944 
L 321.809472 128.901484 
L 329.16837 130.992558 
L 332.792388 132.189096 
L 336.378178 133.507963 
L 339.910449 134.964451 
L 343.393023 136.577674 
L 346.81061 138.355278 
L 350.159386 140.301085 
L 353.412592 142.40745 
L 356.566405 144.678196 
L 359.597889 147.101854 
L 362.491751 149.682246 
L 365.240347 152.407905 
L 367.816917 155.282654 
L 370.217638 158.298846 
L 372.419573 161.452659 
L 374.411254 164.740271 
L 376.19268 168.150212 
L 377.771498 171.667191 
L 379.140062 175.279741 
L 380.30984 178.968747 
L 381.27701 182.726563 
L 382.049216 186.534076 
L 382.622637 190.379816 
L 383.004917 194.248494 
L 383.196057 198.12864 
L 383.196057 202.008786 
L 383.00874 205.873641 
L 382.630282 209.719381 
L 382.060684 213.538362 
L 381.299946 217.319115 
L 380.351891 221.057818 
L 379.208873 224.739178 
L 377.874714 228.359373 
L 376.345593 231.910758 
L 374.625331 235.385687 
L 372.713929 238.772691 
L 370.61521 242.056479 
L 368.336818 245.221761 
L 365.886401 248.257067 
L 363.271603 251.139462 
L 360.50007 253.861298 
L 357.575625 256.403462 
L 354.509737 258.750664 
L 351.31005 260.887611 
L 347.980388 262.795191 
L 344.528396 264.465756 
L 340.973188 265.90313 
L 337.32241 267.114959 
L 333.595177 268.101242 
L 329.806778 268.877272 
L 325.96486 269.446869 
L 322.088537 269.817681 
L 318.1931 269.99353 
L 314.29384 269.985885 
L 310.398403 269.798567 
L 306.525902 269.439224 
L 302.683984 268.907854 
L 298.880295 268.200635 
L 295.118655 267.313745 
L 291.414359 266.254828 
L 287.771226 265.008594 
L 284.196905 263.586511 
L 280.702862 261.977111 
L 277.289098 260.180393 
L 273.970904 258.20018 
L 270.755926 256.032651 
L 267.655632 253.681626 
L 264.685314 251.158576 
L 261.860262 248.471144 
L 259.19959 245.626978 
L 256.714768 242.637546 
L 254.424908 239.510492 
L 252.34148 236.253463 
L 250.479774 232.874105 
L 248.858906 229.380062 
L 247.486519 225.782803 
L 246.366437 222.093798 
L 245.491015 218.335981 
L 244.860253 214.517 
L 244.470327 210.655968 
L 244.317415 206.768177 
L 244.401516 202.868917 
L 244.711163 198.97348 
L 245.254002 195.097156 
L 246.014739 191.255239 
L 247.001023 187.46684 
L 248.201383 183.743429 
L 249.615821 180.10412 
L 251.244335 176.556558 
L 253.075458 173.127503 
L 255.113013 169.8246 
L 257.353176 166.666964 
L 259.788302 163.669886 
L 262.418391 160.844834 
L 265.23962 158.214745 
L 265.23962 158.214745 
" style="fill:none;stroke:#fea952;stroke-linecap:square;"/>
   </g>
   <g id="line2d_12">
    <path clip-path="url(#p4b5d821dae)" d="M 74.42037 192.477513 
L 73.910223 177.144021 
L 73.832727 169.031952 
L 73.997922 160.708816 
L 74.509416 152.202812 
L 74.92878 147.894611 
L 75.477183 143.571875 
L 76.168654 139.226853 
L 77.016889 134.881756 
L 78.041793 130.516197 
L 79.257895 126.168568 
L 80.67901 121.845812 
L 82.324016 117.547067 
L 84.208006 113.289849 
L 86.339616 109.104036 
L 88.709916 105.03148 
L 91.312099 101.082332 
L 94.12758 97.28608 
L 97.159634 93.635254 
L 100.38182 90.166837 
L 103.820494 86.853561 
L 107.445614 83.745191 
L 111.259066 80.846487 
L 115.244066 78.181949 
L 119.404839 75.759775 
L 123.649828 73.637807 
L 127.926015 71.810409 
L 132.249983 70.235139 
L 136.571642 68.903289 
L 140.892226 67.781885 
L 145.187063 66.849833 
L 149.484929 66.073352 
L 157.942793 64.931872 
L 166.307072 64.191993 
L 174.800959 63.803565 
L 179.083592 63.771283 
L 183.429753 63.861776 
L 187.764645 64.095463 
L 192.125612 64.47831 
L 196.520158 65.029332 
L 200.90829 65.763457 
L 205.290468 66.690903 
L 209.586737 67.802138 
L 213.808935 69.083377 
L 217.917562 70.509334 
L 221.966444 72.074921 
L 225.896802 73.746744 
L 229.775533 75.529298 
L 237.276172 79.337756 
L 244.460074 83.371501 
L 254.538959 89.462697 
L 263.919099 95.093774 
L 269.868407 98.356741 
L 272.76065 99.793122 
L 275.675541 101.111398 
L 278.653922 102.322072 
L 281.749889 103.444562 
L 288.286838 105.468423 
L 295.201835 107.252837 
L 306.211045 109.698665 
L 317.808544 112.207489 
L 325.808314 114.142401 
L 333.962502 116.472311 
L 338.070843 117.837817 
L 342.20723 119.371364 
L 346.337668 121.089577 
L 350.4491 123.011797 
L 354.492877 125.13393 
L 358.47011 127.465466 
L 362.347322 129.998104 
L 366.115078 132.734824 
L 369.774587 135.688875 
L 373.258875 138.824515 
L 376.627276 142.202068 
L 379.780984 145.759924 
L 382.75539 149.545216 
L 385.498017 153.529556 
L 387.964419 157.659806 
L 390.142737 161.887849 
L 392.070995 166.250028 
L 393.716011 170.65773 
L 395.118444 175.157377 
L 396.263124 179.687211 
L 397.173234 184.279003 
L 397.839741 188.87615 
L 398.277613 193.496144 
L 398.487273 198.12864 
L 398.469344 202.749034 
L 398.226445 207.371208 
L 397.754204 211.975101 
L 397.051447 216.554704 
L 396.12204 221.077683 
L 394.95539 225.59203 
L 393.556762 230.026837 
L 391.919373 234.406589 
L 390.0495 238.694871 
L 387.942331 242.900924 
L 385.598456 247.007388 
L 383.025693 250.98963 
L 380.234738 254.827009 
L 377.211853 258.531084 
L 373.98587 262.049354 
L 370.531973 265.401757 
L 366.871018 268.545001 
L 363.002292 271.466708 
L 358.911377 274.155659 
L 354.641441 276.559334 
L 350.259935 278.64217 
L 345.790456 280.415718 
L 341.234069 281.897388 
L 336.663765 283.081397 
L 332.049322 284.003152 
L 327.420982 284.668597 
L 322.778115 285.09334 
L 318.163117 285.284717 
L 313.55939 285.259452 
L 308.985544 285.024371 
L 304.43094 284.58625 
L 299.888798 283.941423 
L 295.371261 283.083779 
L 290.915832 282.016042 
L 286.465138 280.722948 
L 282.118421 279.216587 
L 277.799597 277.475202 
L 273.581033 275.508586 
L 269.453 273.311152 
L 265.422877 270.879001 
L 261.516424 268.216774 
L 257.75622 265.335935 
L 254.146014 262.237584 
L 250.693524 258.917447 
L 247.440236 255.401377 
L 244.377625 251.671713 
L 241.543633 247.750275 
L 238.948195 243.631891 
L 236.608435 239.308949 
L 234.5721 234.830607 
L 232.854878 230.225364 
L 231.473993 225.563146 
L 230.404196 220.827798 
L 229.646423 216.053446 
L 229.190925 211.256928 
L 229.029755 206.438443 
L 229.158383 201.657245 
L 229.567716 196.8528 
L 230.254018 192.12701 
L 231.216794 187.402696 
L 232.447397 182.775014 
L 233.948775 178.204075 
L 235.718898 173.724713 
L 237.755834 169.353668 
L 240.061367 165.099134 
L 242.641538 160.976798 
L 245.485449 157.024436 
L 248.596493 153.250448 
L 251.991397 149.660064 
L 254.812626 147.029975 
L 254.812626 147.029975 
" style="fill:none;stroke:#ffffff;stroke-linecap:square;"/>
   </g>
   <g id="line2d_13">
    <path clip-path="url(#p4b5d821dae)" d="M 104.980206 191.302135 
L 104.488779 176.657199 
L 104.413363 169.363368 
L 104.546347 162.150629 
L 104.952325 155.120758 
L 105.689529 148.315213 
L 106.198418 145.014628 
L 106.810494 141.782927 
L 107.521144 138.65579 
L 108.346419 135.610116 
L 109.287797 132.654254 
L 110.349336 129.789064 
L 111.531235 127.027615 
L 112.847794 124.355317 
L 114.33088 121.730321 
L 115.964363 119.180702 
L 117.751538 116.707556 
L 119.666193 114.341289 
L 121.719476 112.0755 
L 123.85445 109.960394 
L 126.093512 107.984436 
L 128.411837 106.165799 
L 130.803273 104.510568 
L 133.24066 103.033483 
L 135.807907 101.699636 
L 138.519806 100.499373 
L 141.359773 99.429263 
L 144.33967 98.482722 
L 147.442971 97.654496 
L 150.679057 96.935097 
L 154.003862 96.320077 
L 160.944252 95.36666 
L 168.085266 94.722684 
L 175.073735 94.38478 
L 181.843195 94.403025 
L 188.407969 94.833939 
L 191.567283 95.208035 
L 194.679493 95.704853 
L 197.721199 96.32182 
L 200.787651 97.091405 
L 203.844072 97.99681 
L 206.945253 99.055675 
L 210.037368 100.234861 
L 216.280906 102.973426 
L 222.557652 106.145409 
L 228.868248 109.680816 
L 238.599133 115.562641 
L 248.944661 121.759319 
L 256.35223 125.790262 
L 260.256932 127.702657 
L 264.253671 129.480853 
L 268.301603 131.099053 
L 272.346634 132.545488 
L 276.364572 133.837834 
L 284.358109 136.073574 
L 292.214923 137.951315 
L 317.810631 143.660568 
L 324.374238 145.512805 
L 330.549126 147.644562 
L 333.483229 148.839325 
L 336.336946 150.143552 
L 339.128342 151.576626 
L 341.848662 153.136705 
L 344.477863 154.816797 
L 347.017732 156.621567 
L 349.42119 158.514832 
L 351.724627 160.539977 
L 353.853418 162.613743 
L 355.85285 164.805384 
L 357.679886 167.052477 
L 359.341129 169.375763 
L 360.858089 171.820736 
L 362.242623 174.412574 
L 363.472002 177.084355 
L 364.564113 179.901752 
L 365.501237 182.780117 
L 366.290896 185.765915 
L 366.925198 188.789148 
L 367.405532 191.883483 
L 367.732221 195.000844 
L 367.904842 198.12864 
L 367.92277 201.268538 
L 367.791034 204.376073 
L 367.506361 207.463661 
L 367.069922 210.522021 
L 366.477853 213.560548 
L 365.748392 216.523606 
L 364.860983 219.451518 
L 363.830055 222.312157 
L 362.641685 225.126645 
L 361.308331 227.87045 
L 359.829402 230.537993 
L 358.204726 233.123329 
L 356.438899 235.616514 
L 354.56095 237.98305 
L 352.557336 240.229569 
L 350.468168 242.320838 
L 348.280233 244.261924 
L 346.017182 246.03462 
L 343.708723 247.619563 
L 341.319335 249.031047 
L 338.796856 250.289341 
L 336.155921 251.390542 
L 333.410752 252.33253 
L 330.526588 253.121088 
L 327.564234 253.751391 
L 324.508738 254.225142 
L 321.398959 254.542022 
L 318.223082 254.702344 
L 315.02829 254.712317 
L 311.811261 254.572763 
L 308.620864 254.292197 
L 305.479171 253.874285 
L 302.389328 253.317492 
L 299.321479 252.611448 
L 296.363579 251.786708 
L 293.424032 250.800601 
L 290.594212 249.69782 
L 287.824691 248.445635 
L 285.125196 247.049634 
L 282.518932 245.52136 
L 279.995428 243.848527 
L 277.555045 242.027318 
L 275.224614 240.079567 
L 273.026999 238.024841 
L 270.958944 235.852579 
L 269.051911 233.603379 
L 267.306183 231.270709 
L 265.734765 228.875036 
L 264.351114 226.43926 
L 263.145712 223.929516 
L 262.11816 221.340243 
L 261.258882 218.624449 
L 260.577835 215.844164 
L 260.074082 212.980554 
L 259.749729 210.055009 
L 259.605075 207.097911 
L 259.64465 204.080589 
L 259.85461 201.09416 
L 260.253985 198.067302 
L 260.812685 195.107781 
L 261.554649 192.158666 
L 262.453991 189.282783 
L 263.512743 186.483526 
L 264.732836 183.759447 
L 266.089549 181.155871 
L 267.584487 178.672402 
L 269.220902 176.309492 
L 270.980111 174.089324 
L 272.845385 172.029603 
L 275.666614 169.399514 
L 275.666614 169.399514 
" style="fill:none;stroke:#ffffff;stroke-linecap:square;"/>
   </g>
   <g id="patch_3">
    <path d="M 57.6 307.584 
L 57.6 41.472 
" style="fill:none;stroke:#000000;stroke-linecap:square;stroke-linejoin:miter;stroke-width:0.8;"/>
   </g>
   <g id="patch_4">
    <path d="M 414.72 307.584 
L 414.72 41.472 
" style="fill:none;stroke:#000000;stroke-linecap:square;stroke-linejoin:miter;stroke-width:0.8;"/>
   </g>
   <g id="patch_5">
    <path d="M 57.6 307.584 
L 414.72 307.584 
" style="fill:none;stroke:#000000;stroke-linecap:square;stroke-linejoin:miter;stroke-width:0.8;"/>
   </g>
   <g id="patch_6">
    <path d="M 57.6 41.472 
L 414.72 41.472 
" style="fill:none;stroke:#000000;stroke-linecap:square;stroke-linejoin:miter;stroke-width:0.8;"/>
   </g>
  </g>
 </g>
 <defs>
  <clipPath id="p4b5d821dae">
   <rect height="266.112" width="357.12" x="57.6" y="41.472"/>
  </clipPath>
 </defs>
</svg>
