<?xml version="1.0" encoding="utf-8" standalone="no"?>
<!DOCTYPE svg PUBLIC "-//W3C//DTD SVG 1.1//EN"
  "http://www.w3.org/Graphics/SVG/1.1/DTD/svg11.dtd">
<!-- Created with matplotlib (https://matplotlib.org/) -->
<svg height="345.6pt" version="1.1" viewBox="0 0 460.8 345.6" width="460.8pt" xmlns="http://www.w3.org/2000/svg" xmlns:xlink="http://www.w3.org/1999/xlink">
 <metadata>
  <rdf:RDF xmlns:cc="http://creativecommons.org/ns#" xmlns:dc="http://purl.org/dc/elements/1.1/" xmlns:rdf="http://www.w3.org/1999/02/22-rdf-syntax-ns#">
   <cc:Work>
    <dc:type rdf:resource="http://purl.org/dc/dcmitype/StillImage"/>
    <dc:date>2021-01-22T10:48:35.962886</dc:date>
    <dc:format>image/svg+xml</dc:format>
    <dc:creator>
     <cc:Agent>
      <dc:title>Matplotlib v3.3.3, https://matplotlib.org/</dc:title>
     </cc:Agent>
    </dc:creator>
   </cc:Work>
  </rdf:RDF>
 </metadata>
 <defs>
  <style type="text/css">*{stroke-linecap:butt;stroke-linejoin:round;}</style>
 </defs>
 <g id="figure_1">
  <g id="patch_1">
   <path d="M 0 345.6 
L 460.8 345.6 
L 460.8 0 
L 0 0 
z
" style="fill:#ffffff;"/>
  </g>
  <g id="axes_1">
   <g id="patch_2">
    <path d="M 57.6 307.584 
L 414.72 307.584 
L 414.72 41.472 
L 57.6 41.472 
z
" style="fill:#7d9051;"/>
   </g>
   <g id="matplotlib.axis_1">
    <g id="xtick_1">
     <g id="line2d_1">
      <defs>
       <path d="M 0 0 
L 0 3.5 
" id="m9cf029e047" style="stroke:#000000;stroke-width:0.8;"/>
      </defs>
      <g>
       <use style="stroke:#000000;stroke-width:0.8;" x="79.84281" xlink:href="#m9cf029e047" y="307.584"/>
      </g>
     </g>
     <g id="text_1">
      <!-- −20 -->
      <g transform="translate(69.290466 322.182437)scale(0.1 -0.1)">
       <defs>
        <path d="M 10.59375 35.5 
L 73.1875 35.5 
L 73.1875 27.203125 
L 10.59375 27.203125 
z
" id="DejaVuSans-8722"/>
        <path d="M 19.1875 8.296875 
L 53.609375 8.296875 
L 53.609375 0 
L 7.328125 0 
L 7.328125 8.296875 
Q 12.9375 14.109375 22.625 23.890625 
Q 32.328125 33.6875 34.8125 36.53125 
Q 39.546875 41.84375 41.421875 45.53125 
Q 43.3125 49.21875 43.3125 52.78125 
Q 43.3125 58.59375 39.234375 62.25 
Q 35.15625 65.921875 28.609375 65.921875 
Q 23.96875 65.921875 18.8125 64.3125 
Q 13.671875 62.703125 7.8125 59.421875 
L 7.8125 69.390625 
Q 13.765625 71.78125 18.9375 73 
Q 24.125 74.21875 28.421875 74.21875 
Q 39.75 74.21875 46.484375 68.546875 
Q 53.21875 62.890625 53.21875 53.421875 
Q 53.21875 48.921875 51.53125 44.890625 
Q 49.859375 40.875 45.40625 35.40625 
Q 44.1875 33.984375 37.640625 27.21875 
Q 31.109375 20.453125 19.1875 8.296875 
z
" id="DejaVuSans-50"/>
        <path d="M 31.78125 66.40625 
Q 24.171875 66.40625 20.328125 58.90625 
Q 16.5 51.421875 16.5 36.375 
Q 16.5 21.390625 20.328125 13.890625 
Q 24.171875 6.390625 31.78125 6.390625 
Q 39.453125 6.390625 43.28125 13.890625 
Q 47.125 21.390625 47.125 36.375 
Q 47.125 51.421875 43.28125 58.90625 
Q 39.453125 66.40625 31.78125 66.40625 
z
M 31.78125 74.21875 
Q 44.046875 74.21875 50.515625 64.515625 
Q 56.984375 54.828125 56.984375 36.375 
Q 56.984375 17.96875 50.515625 8.265625 
Q 44.046875 -1.421875 31.78125 -1.421875 
Q 19.53125 -1.421875 13.0625 8.265625 
Q 6.59375 17.96875 6.59375 36.375 
Q 6.59375 54.828125 13.0625 64.515625 
Q 19.53125 74.21875 31.78125 74.21875 
z
" id="DejaVuSans-48"/>
       </defs>
       <use xlink:href="#DejaVuSans-8722"/>
       <use x="83.789062" xlink:href="#DejaVuSans-50"/>
       <use x="147.412109" xlink:href="#DejaVuSans-48"/>
      </g>
     </g>
    </g>
    <g id="xtick_2">
     <g id="line2d_2">
      <g>
       <use style="stroke:#000000;stroke-width:0.8;" x="129.433658" xlink:href="#m9cf029e047" y="307.584"/>
      </g>
     </g>
     <g id="text_2">
      <!-- 0 -->
      <g transform="translate(126.252408 322.182437)scale(0.1 -0.1)">
       <use xlink:href="#DejaVuSans-48"/>
      </g>
     </g>
    </g>
    <g id="xtick_3">
     <g id="line2d_3">
      <g>
       <use style="stroke:#000000;stroke-width:0.8;" x="179.024506" xlink:href="#m9cf029e047" y="307.584"/>
      </g>
     </g>
     <g id="text_3">
      <!-- 20 -->
      <g transform="translate(172.662006 322.182437)scale(0.1 -0.1)">
       <use xlink:href="#DejaVuSans-50"/>
       <use x="63.623047" xlink:href="#DejaVuSans-48"/>
      </g>
     </g>
    </g>
    <g id="xtick_4">
     <g id="line2d_4">
      <g>
       <use style="stroke:#000000;stroke-width:0.8;" x="228.615355" xlink:href="#m9cf029e047" y="307.584"/>
      </g>
     </g>
     <g id="text_4">
      <!-- 40 -->
      <g transform="translate(222.252855 322.182437)scale(0.1 -0.1)">
       <defs>
        <path d="M 37.796875 64.3125 
L 12.890625 25.390625 
L 37.796875 25.390625 
z
M 35.203125 72.90625 
L 47.609375 72.90625 
L 47.609375 25.390625 
L 58.015625 25.390625 
L 58.015625 17.1875 
L 47.609375 17.1875 
L 47.609375 0 
L 37.796875 0 
L 37.796875 17.1875 
L 4.890625 17.1875 
L 4.890625 26.703125 
z
" id="DejaVuSans-52"/>
       </defs>
       <use xlink:href="#DejaVuSans-52"/>
       <use x="63.623047" xlink:href="#DejaVuSans-48"/>
      </g>
     </g>
    </g>
    <g id="xtick_5">
     <g id="line2d_5">
      <g>
       <use style="stroke:#000000;stroke-width:0.8;" x="278.206203" xlink:href="#m9cf029e047" y="307.584"/>
      </g>
     </g>
     <g id="text_5">
      <!-- 60 -->
      <g transform="translate(271.843703 322.182437)scale(0.1 -0.1)">
       <defs>
        <path d="M 33.015625 40.375 
Q 26.375 40.375 22.484375 35.828125 
Q 18.609375 31.296875 18.609375 23.390625 
Q 18.609375 15.53125 22.484375 10.953125 
Q 26.375 6.390625 33.015625 6.390625 
Q 39.65625 6.390625 43.53125 10.953125 
Q 47.40625 15.53125 47.40625 23.390625 
Q 47.40625 31.296875 43.53125 35.828125 
Q 39.65625 40.375 33.015625 40.375 
z
M 52.59375 71.296875 
L 52.59375 62.3125 
Q 48.875 64.0625 45.09375 64.984375 
Q 41.3125 65.921875 37.59375 65.921875 
Q 27.828125 65.921875 22.671875 59.328125 
Q 17.53125 52.734375 16.796875 39.40625 
Q 19.671875 43.65625 24.015625 45.921875 
Q 28.375 48.1875 33.59375 48.1875 
Q 44.578125 48.1875 50.953125 41.515625 
Q 57.328125 34.859375 57.328125 23.390625 
Q 57.328125 12.15625 50.6875 5.359375 
Q 44.046875 -1.421875 33.015625 -1.421875 
Q 20.359375 -1.421875 13.671875 8.265625 
Q 6.984375 17.96875 6.984375 36.375 
Q 6.984375 53.65625 15.1875 63.9375 
Q 23.390625 74.21875 37.203125 74.21875 
Q 40.921875 74.21875 44.703125 73.484375 
Q 48.484375 72.75 52.59375 71.296875 
z
" id="DejaVuSans-54"/>
       </defs>
       <use xlink:href="#DejaVuSans-54"/>
       <use x="63.623047" xlink:href="#DejaVuSans-48"/>
      </g>
     </g>
    </g>
    <g id="xtick_6">
     <g id="line2d_6">
      <g>
       <use style="stroke:#000000;stroke-width:0.8;" x="327.797052" xlink:href="#m9cf029e047" y="307.584"/>
      </g>
     </g>
     <g id="text_6">
      <!-- 80 -->
      <g transform="translate(321.434552 322.182437)scale(0.1 -0.1)">
       <defs>
        <path d="M 31.78125 34.625 
Q 24.75 34.625 20.71875 30.859375 
Q 16.703125 27.09375 16.703125 20.515625 
Q 16.703125 13.921875 20.71875 10.15625 
Q 24.75 6.390625 31.78125 6.390625 
Q 38.8125 6.390625 42.859375 10.171875 
Q 46.921875 13.96875 46.921875 20.515625 
Q 46.921875 27.09375 42.890625 30.859375 
Q 38.875 34.625 31.78125 34.625 
z
M 21.921875 38.8125 
Q 15.578125 40.375 12.03125 44.71875 
Q 8.5 49.078125 8.5 55.328125 
Q 8.5 64.0625 14.71875 69.140625 
Q 20.953125 74.21875 31.78125 74.21875 
Q 42.671875 74.21875 48.875 69.140625 
Q 55.078125 64.0625 55.078125 55.328125 
Q 55.078125 49.078125 51.53125 44.71875 
Q 48 40.375 41.703125 38.8125 
Q 48.828125 37.15625 52.796875 32.3125 
Q 56.78125 27.484375 56.78125 20.515625 
Q 56.78125 9.90625 50.3125 4.234375 
Q 43.84375 -1.421875 31.78125 -1.421875 
Q 19.734375 -1.421875 13.25 4.234375 
Q 6.78125 9.90625 6.78125 20.515625 
Q 6.78125 27.484375 10.78125 32.3125 
Q 14.796875 37.15625 21.921875 38.8125 
z
M 18.3125 54.390625 
Q 18.3125 48.734375 21.84375 45.5625 
Q 25.390625 42.390625 31.78125 42.390625 
Q 38.140625 42.390625 41.71875 45.5625 
Q 45.3125 48.734375 45.3125 54.390625 
Q 45.3125 60.0625 41.71875 63.234375 
Q 38.140625 66.40625 31.78125 66.40625 
Q 25.390625 66.40625 21.84375 63.234375 
Q 18.3125 60.0625 18.3125 54.390625 
z
" id="DejaVuSans-56"/>
       </defs>
       <use xlink:href="#DejaVuSans-56"/>
       <use x="63.623047" xlink:href="#DejaVuSans-48"/>
      </g>
     </g>
    </g>
    <g id="xtick_7">
     <g id="line2d_7">
      <g>
       <use style="stroke:#000000;stroke-width:0.8;" x="377.3879" xlink:href="#m9cf029e047" y="307.584"/>
      </g>
     </g>
     <g id="text_7">
      <!-- 100 -->
      <g transform="translate(367.84415 322.182437)scale(0.1 -0.1)">
       <defs>
        <path d="M 12.40625 8.296875 
L 28.515625 8.296875 
L 28.515625 63.921875 
L 10.984375 60.40625 
L 10.984375 69.390625 
L 28.421875 72.90625 
L 38.28125 72.90625 
L 38.28125 8.296875 
L 54.390625 8.296875 
L 54.390625 0 
L 12.40625 0 
z
" id="DejaVuSans-49"/>
       </defs>
       <use xlink:href="#DejaVuSans-49"/>
       <use x="63.623047" xlink:href="#DejaVuSans-48"/>
       <use x="127.246094" xlink:href="#DejaVuSans-48"/>
      </g>
     </g>
    </g>
   </g>
   <g id="matplotlib.axis_2">
    <g id="ytick_1">
     <g id="line2d_8">
      <defs>
       <path d="M 0 0 
L -3.5 0 
" id="m17749fbd16" style="stroke:#000000;stroke-width:0.8;"/>
      </defs>
      <g>
       <use style="stroke:#000000;stroke-width:0.8;" x="57.6" xlink:href="#m17749fbd16" y="268.590626"/>
      </g>
     </g>
     <g id="text_8">
      <!-- 20 -->
      <g transform="translate(37.875 272.389845)scale(0.1 -0.1)">
       <use xlink:href="#DejaVuSans-50"/>
       <use x="63.623047" xlink:href="#DejaVuSans-48"/>
      </g>
     </g>
    </g>
    <g id="ytick_2">
     <g id="line2d_9">
      <g>
       <use style="stroke:#000000;stroke-width:0.8;" x="57.6" xlink:href="#m17749fbd16" y="218.999777"/>
      </g>
     </g>
     <g id="text_9">
      <!-- 40 -->
      <g transform="translate(37.875 222.798996)scale(0.1 -0.1)">
       <use xlink:href="#DejaVuSans-52"/>
       <use x="63.623047" xlink:href="#DejaVuSans-48"/>
      </g>
     </g>
    </g>
    <g id="ytick_3">
     <g id="line2d_10">
      <g>
       <use style="stroke:#000000;stroke-width:0.8;" x="57.6" xlink:href="#m17749fbd16" y="169.408929"/>
      </g>
     </g>
     <g id="text_10">
      <!-- 60 -->
      <g transform="translate(37.875 173.208148)scale(0.1 -0.1)">
       <use xlink:href="#DejaVuSans-54"/>
       <use x="63.623047" xlink:href="#DejaVuSans-48"/>
      </g>
     </g>
    </g>
    <g id="ytick_4">
     <g id="line2d_11">
      <g>
       <use style="stroke:#000000;stroke-width:0.8;" x="57.6" xlink:href="#m17749fbd16" y="119.818081"/>
      </g>
     </g>
     <g id="text_11">
      <!-- 80 -->
      <g transform="translate(37.875 123.617299)scale(0.1 -0.1)">
       <use xlink:href="#DejaVuSans-56"/>
       <use x="63.623047" xlink:href="#DejaVuSans-48"/>
      </g>
     </g>
    </g>
    <g id="ytick_5">
     <g id="line2d_12">
      <g>
       <use style="stroke:#000000;stroke-width:0.8;" x="57.6" xlink:href="#m17749fbd16" y="70.227232"/>
      </g>
     </g>
     <g id="text_12">
      <!-- 100 -->
      <g transform="translate(31.5125 74.026451)scale(0.1 -0.1)">
       <use xlink:href="#DejaVuSans-49"/>
       <use x="63.623047" xlink:href="#DejaVuSans-48"/>
       <use x="127.246094" xlink:href="#DejaVuSans-48"/>
      </g>
     </g>
    </g>
   </g>
   <g id="line2d_13">
    <path clip-path="url(#pa54ef0f2f7)" d="M 154.229082 203.904323 
L 153.993526 196.507848 
L 153.941455 189.061782 
L 154.124941 181.59588 
L 154.601014 174.142375 
L 155.10684 169.195688 
L 155.783755 164.276276 
L 156.646636 159.394057 
L 157.71036 154.55647 
L 158.982365 149.773433 
L 160.425459 145.032547 
L 162.808299 137.978249 
L 169.527859 119.28002 
L 172.188408 112.337301 
L 175.059718 105.488805 
L 177.137575 100.995874 
L 179.371642 96.57485 
L 181.781758 92.233171 
L 184.395195 87.988194 
L 187.234271 83.849838 
L 190.318822 79.870173 
L 193.681082 76.140941 
L 195.473791 74.400302 
L 197.345845 72.756365 
L 199.299725 71.219049 
L 201.340388 69.80571 
L 203.470315 68.523786 
L 205.689506 67.383197 
L 207.988041 66.3889 
L 210.356004 65.538417 
L 212.778517 64.834227 
L 215.243183 64.27633 
L 217.740082 63.864726 
L 220.256817 63.599415 
L 222.778512 63.485356 
L 225.295248 63.51759 
L 227.792147 63.701076 
L 230.261771 64.030856 
L 232.699161 64.499489 
L 235.109276 65.097059 
L 239.842723 66.626937 
L 244.46459 68.531225 
L 248.977357 70.723141 
L 253.385984 73.10846 
L 257.680551 75.65743 
L 261.841223 78.384927 
L 265.840725 81.313266 
L 269.659221 84.467244 
L 273.276873 87.859258 
L 276.671366 91.491788 
L 279.837742 95.340038 
L 282.761123 99.376733 
L 285.439028 103.579557 
L 287.856582 107.921236 
L 290.046018 112.369535 
L 293.053703 119.175879 
L 298.915342 132.853035 
L 303.100809 141.838897 
L 311.563487 159.815579 
L 313.455378 164.405212 
L 315.12411 169.07667 
L 316.500256 173.852269 
L 317.519348 178.744406 
L 318.156591 183.713409 
L 318.387188 188.714646 
L 318.347515 191.214025 
L 317.935911 196.175589 
L 317.561501 198.625377 
L 316.485379 203.450567 
L 315.039806 208.188972 
L 313.328922 212.855471 
L 310.470009 219.775874 
L 305.64482 231.248717 
L 302.939639 238.16912 
L 300.467535 245.166389 
L 298.290497 252.267798 
L 296.368851 259.453512 
L 294.095111 269.128686 
L 291.01056 283.710875 
L 288.957499 293.38605 
L 288.957499 293.38605 
" style="fill:none;stroke:#fea952;stroke-linecap:square;"/>
   </g>
   <g id="line2d_14">
    <path clip-path="url(#pa54ef0f2f7)" d="M 144.318584 204.294343 
L 144.076628 196.666677 
L 144.024119 188.933242 
L 144.219073 181.102068 
L 144.726461 173.213238 
L 145.269895 167.928959 
L 145.99973 162.650562 
L 146.937438 157.368826 
L 148.100723 152.101888 
L 149.470542 146.963572 
L 150.998566 141.949726 
L 153.460135 134.66435 
L 160.239966 115.800777 
L 162.99545 108.614451 
L 166.02613 101.394373 
L 168.244742 96.604107 
L 170.647909 91.856103 
L 173.278741 87.127411 
L 176.144289 82.48432 
L 179.296222 77.903624 
L 182.820222 73.378556 
L 184.734768 71.179374 
L 186.771979 69.025156 
L 188.929363 66.947748 
L 191.212945 64.961647 
L 193.652658 63.065478 
L 196.225898 61.307941 
L 198.936487 59.702534 
L 201.751756 58.280219 
L 204.635487 57.05453 
L 207.587528 56.014467 
L 210.588855 55.160786 
L 213.629983 54.490234 
L 216.700283 54.001212 
L 219.808666 53.691376 
L 222.905532 53.568 
L 226.02213 53.626092 
L 229.104909 53.870169 
L 232.134424 54.291078 
L 235.086023 54.872809 
L 237.950159 55.594455 
L 240.747195 56.440742 
L 246.095527 58.432854 
L 251.180663 60.732233 
L 255.994911 63.21714 
L 260.701628 65.886451 
L 265.316316 68.768391 
L 269.828825 71.900455 
L 274.209778 75.313267 
L 278.397492 79.009709 
L 282.358015 82.993553 
L 286.036512 87.206119 
L 289.451533 91.642414 
L 292.57547 96.255402 
L 295.411144 101.031487 
L 297.920025 105.848827 
L 300.148153 110.619861 
L 303.166005 117.637853 
L 306.957175 126.541448 
L 310.995657 135.343805 
L 320.694513 155.943311 
L 322.747737 160.937914 
L 324.605826 166.166833 
L 326.169558 171.644396 
L 327.330436 177.290912 
L 327.746666 180.152039 
L 328.052923 183.055617 
L 328.237599 185.9573 
L 328.304109 188.872058 
L 328.247393 191.816111 
L 328.059991 194.738773 
L 327.740236 197.674024 
L 327.2863 200.574315 
L 326.70684 203.418403 
L 325.240093 208.881462 
L 323.484424 214.048969 
L 321.562043 218.973452 
L 312.246963 241.596043 
L 309.91095 248.198222 
L 307.844836 254.929506 
L 305.99841 261.828737 
L 303.784945 271.24463 
L 300.719758 285.736107 
L 298.650378 295.488 
L 298.650378 295.488 
" style="fill:none;stroke:#ffffff;stroke-linecap:square;"/>
   </g>
   <g id="line2d_15">
    <path clip-path="url(#pa54ef0f2f7)" d="M 164.13958 203.514303 
L 163.871706 193.951522 
L 163.889027 186.811821 
L 164.146919 179.741106 
L 164.69232 172.754073 
L 165.237691 168.168349 
L 165.938918 163.655574 
L 166.815635 159.203611 
L 167.882266 154.802012 
L 169.148295 150.36428 
L 171.360343 143.581836 
L 176.324221 129.626938 
L 180.515932 118.266806 
L 183.169464 111.71252 
L 186.030407 105.387642 
L 188.095376 101.293596 
L 190.284775 97.338932 
L 192.646102 93.492069 
L 195.172321 89.796052 
L 197.817422 86.36179 
L 200.590184 83.256726 
L 203.478745 80.551083 
L 206.454878 78.303479 
L 208.004143 77.345039 
L 209.627256 76.486175 
L 211.340595 75.723271 
L 213.124481 75.062368 
L 214.96818 74.507669 
L 216.856382 74.062426 
L 218.779881 73.72824 
L 220.704969 73.507455 
L 224.568365 73.409088 
L 226.479385 73.531984 
L 228.389118 73.770633 
L 232.268394 74.599663 
L 236.217035 75.858647 
L 240.246188 77.507593 
L 244.33902 79.489891 
L 248.415457 81.691231 
L 252.344224 84.017676 
L 256.090482 86.46571 
L 259.644894 89.058056 
L 262.996933 91.814626 
L 266.141045 94.747658 
L 269.108967 97.908968 
L 271.894926 101.279883 
L 274.476983 104.830458 
L 276.842294 108.525894 
L 279.005436 112.396423 
L 281.02195 116.484907 
L 283.910531 123.019379 
L 289.887532 136.960192 
L 294.149937 146.111129 
L 302.432462 163.687847 
L 304.163019 167.87251 
L 305.642395 171.986508 
L 306.830955 176.060142 
L 307.708261 180.197901 
L 308.260258 184.371201 
L 308.470268 188.557235 
L 308.332535 192.663239 
L 307.836701 196.67644 
L 306.951452 200.716646 
L 305.689631 204.880754 
L 304.121493 209.168556 
L 301.352244 215.872485 
L 296.438769 227.558361 
L 293.632314 234.742197 
L 291.024121 242.134555 
L 288.736157 249.60609 
L 286.739293 257.078287 
L 284.964241 264.527006 
L 282.309711 276.829702 
L 279.264621 291.2841 
L 279.264621 291.2841 
" style="fill:none;stroke:#ffffff;stroke-linecap:square;"/>
   </g>
   <g id="patch_3">
    <path d="M 57.6 307.584 
L 57.6 41.472 
" style="fill:none;stroke:#000000;stroke-linecap:square;stroke-linejoin:miter;stroke-width:0.8;"/>
   </g>
   <g id="patch_4">
    <path d="M 414.72 307.584 
L 414.72 41.472 
" style="fill:none;stroke:#000000;stroke-linecap:square;stroke-linejoin:miter;stroke-width:0.8;"/>
   </g>
   <g id="patch_5">
    <path d="M 57.6 307.584 
L 414.72 307.584 
" style="fill:none;stroke:#000000;stroke-linecap:square;stroke-linejoin:miter;stroke-width:0.8;"/>
   </g>
   <g id="patch_6">
    <path d="M 57.6 41.472 
L 414.72 41.472 
" style="fill:none;stroke:#000000;stroke-linecap:square;stroke-linejoin:miter;stroke-width:0.8;"/>
   </g>
  </g>
 </g>
 <defs>
  <clipPath id="pa54ef0f2f7">
   <rect height="266.112" width="357.12" x="57.6" y="41.472"/>
  </clipPath>
 </defs>
</svg>
