<?xml version="1.0" encoding="utf-8" standalone="no"?>
<!DOCTYPE svg PUBLIC "-//W3C//DTD SVG 1.1//EN"
  "http://www.w3.org/Graphics/SVG/1.1/DTD/svg11.dtd">
<!-- Created with matplotlib (https://matplotlib.org/) -->
<svg height="345.6pt" version="1.1" viewBox="0 0 460.8 345.6" width="460.8pt" xmlns="http://www.w3.org/2000/svg" xmlns:xlink="http://www.w3.org/1999/xlink">
 <metadata>
  <rdf:RDF xmlns:cc="http://creativecommons.org/ns#" xmlns:dc="http://purl.org/dc/elements/1.1/" xmlns:rdf="http://www.w3.org/1999/02/22-rdf-syntax-ns#">
   <cc:Work>
    <dc:type rdf:resource="http://purl.org/dc/dcmitype/StillImage"/>
    <dc:date>2021-01-22T11:32:26.368238</dc:date>
    <dc:format>image/svg+xml</dc:format>
    <dc:creator>
     <cc:Agent>
      <dc:title>Matplotlib v3.3.3, https://matplotlib.org/</dc:title>
     </cc:Agent>
    </dc:creator>
   </cc:Work>
  </rdf:RDF>
 </metadata>
 <defs>
  <style type="text/css">*{stroke-linecap:butt;stroke-linejoin:round;}</style>
 </defs>
 <g id="figure_1">
  <g id="patch_1">
   <path d="M 0 345.6 
L 460.8 345.6 
L 460.8 0 
L 0 0 
z
" style="fill:#ffffff;"/>
  </g>
  <g id="axes_1">
   <g id="patch_2">
    <path d="M 57.6 307.584 
L 414.72 307.584 
L 414.72 41.472 
L 57.6 41.472 
z
" style="fill:#7d9051;"/>
   </g>
   <g id="matplotlib.axis_1">
    <g id="xtick_1">
     <g id="line2d_1">
      <defs>
       <path d="M 0 0 
L 0 3.5 
" id="ma8fe48f04f" style="stroke:#000000;stroke-width:0.8;"/>
      </defs>
      <g>
       <use style="stroke:#000000;stroke-width:0.8;" x="105.445338" xlink:href="#ma8fe48f04f" y="307.584"/>
      </g>
     </g>
     <g id="text_1">
      <!-- 20 -->
      <g transform="translate(99.082838 322.182437)scale(0.1 -0.1)">
       <defs>
        <path d="M 19.1875 8.296875 
L 53.609375 8.296875 
L 53.609375 0 
L 7.328125 0 
L 7.328125 8.296875 
Q 12.9375 14.109375 22.625 23.890625 
Q 32.328125 33.6875 34.8125 36.53125 
Q 39.546875 41.84375 41.421875 45.53125 
Q 43.3125 49.21875 43.3125 52.78125 
Q 43.3125 58.59375 39.234375 62.25 
Q 35.15625 65.921875 28.609375 65.921875 
Q 23.96875 65.921875 18.8125 64.3125 
Q 13.671875 62.703125 7.8125 59.421875 
L 7.8125 69.390625 
Q 13.765625 71.78125 18.9375 73 
Q 24.125 74.21875 28.421875 74.21875 
Q 39.75 74.21875 46.484375 68.546875 
Q 53.21875 62.890625 53.21875 53.421875 
Q 53.21875 48.921875 51.53125 44.890625 
Q 49.859375 40.875 45.40625 35.40625 
Q 44.1875 33.984375 37.640625 27.21875 
Q 31.109375 20.453125 19.1875 8.296875 
z
" id="DejaVuSans-50"/>
        <path d="M 31.78125 66.40625 
Q 24.171875 66.40625 20.328125 58.90625 
Q 16.5 51.421875 16.5 36.375 
Q 16.5 21.390625 20.328125 13.890625 
Q 24.171875 6.390625 31.78125 6.390625 
Q 39.453125 6.390625 43.28125 13.890625 
Q 47.125 21.390625 47.125 36.375 
Q 47.125 51.421875 43.28125 58.90625 
Q 39.453125 66.40625 31.78125 66.40625 
z
M 31.78125 74.21875 
Q 44.046875 74.21875 50.515625 64.515625 
Q 56.984375 54.828125 56.984375 36.375 
Q 56.984375 17.96875 50.515625 8.265625 
Q 44.046875 -1.421875 31.78125 -1.421875 
Q 19.53125 -1.421875 13.0625 8.265625 
Q 6.59375 17.96875 6.59375 36.375 
Q 6.59375 54.828125 13.0625 64.515625 
Q 19.53125 74.21875 31.78125 74.21875 
z
" id="DejaVuSans-48"/>
       </defs>
       <use xlink:href="#DejaVuSans-50"/>
       <use x="63.623047" xlink:href="#DejaVuSans-48"/>
      </g>
     </g>
    </g>
    <g id="xtick_2">
     <g id="line2d_2">
      <g>
       <use style="stroke:#000000;stroke-width:0.8;" x="153.412263" xlink:href="#ma8fe48f04f" y="307.584"/>
      </g>
     </g>
     <g id="text_2">
      <!-- 40 -->
      <g transform="translate(147.049763 322.182437)scale(0.1 -0.1)">
       <defs>
        <path d="M 37.796875 64.3125 
L 12.890625 25.390625 
L 37.796875 25.390625 
z
M 35.203125 72.90625 
L 47.609375 72.90625 
L 47.609375 25.390625 
L 58.015625 25.390625 
L 58.015625 17.1875 
L 47.609375 17.1875 
L 47.609375 0 
L 37.796875 0 
L 37.796875 17.1875 
L 4.890625 17.1875 
L 4.890625 26.703125 
z
" id="DejaVuSans-52"/>
       </defs>
       <use xlink:href="#DejaVuSans-52"/>
       <use x="63.623047" xlink:href="#DejaVuSans-48"/>
      </g>
     </g>
    </g>
    <g id="xtick_3">
     <g id="line2d_3">
      <g>
       <use style="stroke:#000000;stroke-width:0.8;" x="201.379187" xlink:href="#ma8fe48f04f" y="307.584"/>
      </g>
     </g>
     <g id="text_3">
      <!-- 60 -->
      <g transform="translate(195.016687 322.182437)scale(0.1 -0.1)">
       <defs>
        <path d="M 33.015625 40.375 
Q 26.375 40.375 22.484375 35.828125 
Q 18.609375 31.296875 18.609375 23.390625 
Q 18.609375 15.53125 22.484375 10.953125 
Q 26.375 6.390625 33.015625 6.390625 
Q 39.65625 6.390625 43.53125 10.953125 
Q 47.40625 15.53125 47.40625 23.390625 
Q 47.40625 31.296875 43.53125 35.828125 
Q 39.65625 40.375 33.015625 40.375 
z
M 52.59375 71.296875 
L 52.59375 62.3125 
Q 48.875 64.0625 45.09375 64.984375 
Q 41.3125 65.921875 37.59375 65.921875 
Q 27.828125 65.921875 22.671875 59.328125 
Q 17.53125 52.734375 16.796875 39.40625 
Q 19.671875 43.65625 24.015625 45.921875 
Q 28.375 48.1875 33.59375 48.1875 
Q 44.578125 48.1875 50.953125 41.515625 
Q 57.328125 34.859375 57.328125 23.390625 
Q 57.328125 12.15625 50.6875 5.359375 
Q 44.046875 -1.421875 33.015625 -1.421875 
Q 20.359375 -1.421875 13.671875 8.265625 
Q 6.984375 17.96875 6.984375 36.375 
Q 6.984375 53.65625 15.1875 63.9375 
Q 23.390625 74.21875 37.203125 74.21875 
Q 40.921875 74.21875 44.703125 73.484375 
Q 48.484375 72.75 52.59375 71.296875 
z
" id="DejaVuSans-54"/>
       </defs>
       <use xlink:href="#DejaVuSans-54"/>
       <use x="63.623047" xlink:href="#DejaVuSans-48"/>
      </g>
     </g>
    </g>
    <g id="xtick_4">
     <g id="line2d_4">
      <g>
       <use style="stroke:#000000;stroke-width:0.8;" x="249.346112" xlink:href="#ma8fe48f04f" y="307.584"/>
      </g>
     </g>
     <g id="text_4">
      <!-- 80 -->
      <g transform="translate(242.983612 322.182437)scale(0.1 -0.1)">
       <defs>
        <path d="M 31.78125 34.625 
Q 24.75 34.625 20.71875 30.859375 
Q 16.703125 27.09375 16.703125 20.515625 
Q 16.703125 13.921875 20.71875 10.15625 
Q 24.75 6.390625 31.78125 6.390625 
Q 38.8125 6.390625 42.859375 10.171875 
Q 46.921875 13.96875 46.921875 20.515625 
Q 46.921875 27.09375 42.890625 30.859375 
Q 38.875 34.625 31.78125 34.625 
z
M 21.921875 38.8125 
Q 15.578125 40.375 12.03125 44.71875 
Q 8.5 49.078125 8.5 55.328125 
Q 8.5 64.0625 14.71875 69.140625 
Q 20.953125 74.21875 31.78125 74.21875 
Q 42.671875 74.21875 48.875 69.140625 
Q 55.078125 64.0625 55.078125 55.328125 
Q 55.078125 49.078125 51.53125 44.71875 
Q 48 40.375 41.703125 38.8125 
Q 48.828125 37.15625 52.796875 32.3125 
Q 56.78125 27.484375 56.78125 20.515625 
Q 56.78125 9.90625 50.3125 4.234375 
Q 43.84375 -1.421875 31.78125 -1.421875 
Q 19.734375 -1.421875 13.25 4.234375 
Q 6.78125 9.90625 6.78125 20.515625 
Q 6.78125 27.484375 10.78125 32.3125 
Q 14.796875 37.15625 21.921875 38.8125 
z
M 18.3125 54.390625 
Q 18.3125 48.734375 21.84375 45.5625 
Q 25.390625 42.390625 31.78125 42.390625 
Q 38.140625 42.390625 41.71875 45.5625 
Q 45.3125 48.734375 45.3125 54.390625 
Q 45.3125 60.0625 41.71875 63.234375 
Q 38.140625 66.40625 31.78125 66.40625 
Q 25.390625 66.40625 21.84375 63.234375 
Q 18.3125 60.0625 18.3125 54.390625 
z
" id="DejaVuSans-56"/>
       </defs>
       <use xlink:href="#DejaVuSans-56"/>
       <use x="63.623047" xlink:href="#DejaVuSans-48"/>
      </g>
     </g>
    </g>
    <g id="xtick_5">
     <g id="line2d_5">
      <g>
       <use style="stroke:#000000;stroke-width:0.8;" x="297.313037" xlink:href="#ma8fe48f04f" y="307.584"/>
      </g>
     </g>
     <g id="text_5">
      <!-- 100 -->
      <g transform="translate(287.769287 322.182437)scale(0.1 -0.1)">
       <defs>
        <path d="M 12.40625 8.296875 
L 28.515625 8.296875 
L 28.515625 63.921875 
L 10.984375 60.40625 
L 10.984375 69.390625 
L 28.421875 72.90625 
L 38.28125 72.90625 
L 38.28125 8.296875 
L 54.390625 8.296875 
L 54.390625 0 
L 12.40625 0 
z
" id="DejaVuSans-49"/>
       </defs>
       <use xlink:href="#DejaVuSans-49"/>
       <use x="63.623047" xlink:href="#DejaVuSans-48"/>
       <use x="127.246094" xlink:href="#DejaVuSans-48"/>
      </g>
     </g>
    </g>
    <g id="xtick_6">
     <g id="line2d_6">
      <g>
       <use style="stroke:#000000;stroke-width:0.8;" x="345.279962" xlink:href="#ma8fe48f04f" y="307.584"/>
      </g>
     </g>
     <g id="text_6">
      <!-- 120 -->
      <g transform="translate(335.736212 322.182437)scale(0.1 -0.1)">
       <use xlink:href="#DejaVuSans-49"/>
       <use x="63.623047" xlink:href="#DejaVuSans-50"/>
       <use x="127.246094" xlink:href="#DejaVuSans-48"/>
      </g>
     </g>
    </g>
    <g id="xtick_7">
     <g id="line2d_7">
      <g>
       <use style="stroke:#000000;stroke-width:0.8;" x="393.246886" xlink:href="#ma8fe48f04f" y="307.584"/>
      </g>
     </g>
     <g id="text_7">
      <!-- 140 -->
      <g transform="translate(383.703136 322.182437)scale(0.1 -0.1)">
       <use xlink:href="#DejaVuSans-49"/>
       <use x="63.623047" xlink:href="#DejaVuSans-52"/>
       <use x="127.246094" xlink:href="#DejaVuSans-48"/>
      </g>
     </g>
    </g>
   </g>
   <g id="matplotlib.axis_2">
    <g id="ytick_1">
     <g id="line2d_8">
      <defs>
       <path d="M 0 0 
L -3.5 0 
" id="mbe18d2dd25" style="stroke:#000000;stroke-width:0.8;"/>
      </defs>
      <g>
       <use style="stroke:#000000;stroke-width:0.8;" x="57.6" xlink:href="#mbe18d2dd25" y="259.932586"/>
      </g>
     </g>
     <g id="text_8">
      <!-- 0 -->
      <g transform="translate(44.2375 263.731805)scale(0.1 -0.1)">
       <use xlink:href="#DejaVuSans-48"/>
      </g>
     </g>
    </g>
    <g id="ytick_2">
     <g id="line2d_9">
      <g>
       <use style="stroke:#000000;stroke-width:0.8;" x="57.6" xlink:href="#mbe18d2dd25" y="211.965662"/>
      </g>
     </g>
     <g id="text_9">
      <!-- 20 -->
      <g transform="translate(37.875 215.764881)scale(0.1 -0.1)">
       <use xlink:href="#DejaVuSans-50"/>
       <use x="63.623047" xlink:href="#DejaVuSans-48"/>
      </g>
     </g>
    </g>
    <g id="ytick_3">
     <g id="line2d_10">
      <g>
       <use style="stroke:#000000;stroke-width:0.8;" x="57.6" xlink:href="#mbe18d2dd25" y="163.998737"/>
      </g>
     </g>
     <g id="text_10">
      <!-- 40 -->
      <g transform="translate(37.875 167.797956)scale(0.1 -0.1)">
       <use xlink:href="#DejaVuSans-52"/>
       <use x="63.623047" xlink:href="#DejaVuSans-48"/>
      </g>
     </g>
    </g>
    <g id="ytick_4">
     <g id="line2d_11">
      <g>
       <use style="stroke:#000000;stroke-width:0.8;" x="57.6" xlink:href="#mbe18d2dd25" y="116.031812"/>
      </g>
     </g>
     <g id="text_11">
      <!-- 60 -->
      <g transform="translate(37.875 119.831031)scale(0.1 -0.1)">
       <use xlink:href="#DejaVuSans-54"/>
       <use x="63.623047" xlink:href="#DejaVuSans-48"/>
      </g>
     </g>
    </g>
    <g id="ytick_5">
     <g id="line2d_12">
      <g>
       <use style="stroke:#000000;stroke-width:0.8;" x="57.6" xlink:href="#mbe18d2dd25" y="68.064888"/>
      </g>
     </g>
     <g id="text_12">
      <!-- 80 -->
      <g transform="translate(37.875 71.864106)scale(0.1 -0.1)">
       <use xlink:href="#DejaVuSans-56"/>
       <use x="63.623047" xlink:href="#DejaVuSans-48"/>
      </g>
     </g>
    </g>
   </g>
   <g id="line2d_13">
    <path clip-path="url(#pc4daf5db50)" d="M 388.646858 235.949124 
L 388.872303 228.7325 
L 388.872303 221.53986 
L 388.598891 209.572112 
L 388.282309 195.198823 
L 388.318285 187.984598 
L 388.574908 175.93051 
L 388.4406 171.133817 
L 387.987313 166.3731 
L 387.603578 164.013127 
L 387.099925 161.665146 
L 386.471558 159.341149 
L 385.728071 157.041135 
L 384.869463 154.777096 
L 383.902929 152.55143 
L 382.82847 150.371334 
L 381.650882 148.244001 
L 380.37736 146.176626 
L 379.005506 144.174007 
L 377.542515 142.24094 
L 375.993183 140.38462 
L 374.35991 138.607445 
L 370.855926 135.295329 
L 367.059344 132.311787 
L 363.006139 129.668809 
L 358.720294 127.37599 
L 354.240183 125.450118 
L 349.608976 123.934363 
L 347.249004 123.346768 
L 344.869844 122.881489 
L 342.476295 122.543322 
L 340.07555 122.337065 
L 337.670009 122.274708 
L 335.269264 122.356251 
L 332.875715 122.591289 
L 330.498954 122.970228 
L 328.141379 123.488271 
L 325.810187 124.138223 
L 323.510173 124.91049 
L 321.246134 125.800277 
L 319.022867 126.800387 
L 314.729827 129.095604 
L 310.667029 131.74098 
L 306.85126 134.683751 
L 303.260935 137.885543 
L 299.876869 141.303187 
L 296.677475 144.898308 
L 293.641169 148.627736 
L 283.287508 161.847421 
L 280.037749 165.382583 
L 276.516977 168.685106 
L 272.734785 171.70942 
L 268.717555 174.419551 
L 264.501262 176.774727 
L 260.114687 178.734176 
L 255.589007 180.28111 
L 250.955402 181.489876 
L 246.247449 182.461206 
L 236.735608 184.077692 
L 227.274132 185.806899 
L 220.244579 187.327451 
L 213.284578 189.102227 
L 206.396528 191.176797 
L 199.592419 193.541566 
L 192.886643 196.172552 
L 186.286395 199.040974 
L 170.980149 205.931423 
L 166.524022 207.730182 
L 162.000741 209.370651 
L 157.415103 210.821651 
L 152.767108 212.049604 
L 148.063951 213.025731 
L 143.305632 213.718853 
L 138.508939 214.107385 
L 133.69306 214.18653 
L 128.879579 213.951492 
L 124.090082 213.395076 
L 119.348551 212.514883 
L 114.676573 211.308515 
L 110.100528 209.77837 
L 105.649197 207.931643 
L 101.344166 205.770733 
L 97.211815 203.302835 
L 93.280926 200.530347 
L 89.575481 197.455667 
L 86.119464 194.088389 
L 82.939257 190.430911 
L 81.461876 188.493047 
L 81.461876 188.493047 
" style="fill:none;stroke:#fea952;stroke-linecap:square;"/>
   </g>
   <g id="line2d_14">
    <path clip-path="url(#pc4daf5db50)" d="M 379.062672 235.5291 
L 379.279305 228.64625 
L 379.27986 221.674289 
L 379.009562 209.85104 
L 378.689001 195.237158 
L 378.727867 187.74603 
L 378.982459 176.064536 
L 378.874353 171.854891 
L 378.518288 167.912779 
L 377.839082 164.16911 
L 376.758062 160.442896 
L 375.297873 156.792426 
L 373.482874 153.275569 
L 371.355927 149.963391 
L 368.929695 146.876166 
L 366.213761 144.030172 
L 363.233334 141.435209 
L 360.001652 139.096145 
L 356.5439 137.031277 
L 352.899947 135.257829 
L 349.162736 133.822009 
L 345.407757 132.761801 
L 341.655113 132.101497 
L 337.99567 131.862563 
L 336.206791 131.903716 
L 334.386158 132.065021 
L 330.717815 132.729213 
L 327.019187 133.839088 
L 323.358439 135.358182 
L 319.797272 137.241403 
L 316.380241 139.447617 
L 313.114215 141.950692 
L 309.977181 144.735731 
L 306.968475 147.764003 
L 304.058277 151.026668 
L 301.222997 154.505568 
L 290.457693 168.220919 
L 286.739663 172.246794 
L 284.735704 174.192669 
L 280.498161 177.843678 
L 278.266756 179.54717 
L 275.949605 181.172154 
L 273.580346 182.689152 
L 271.124647 184.122232 
L 268.614637 185.441513 
L 266.037852 186.653203 
L 263.403968 187.746039 
L 260.782539 188.694171 
L 255.558955 190.241259 
L 250.444654 191.416541 
L 243.059555 192.756199 
L 231.470144 194.76153 
L 224.712475 196.14852 
L 218.094744 197.741067 
L 211.580205 199.597676 
L 205.117729 201.743163 
L 198.723983 204.154967 
L 192.390121 206.821065 
L 172.282522 215.770584 
L 167.454941 217.621117 
L 162.509484 219.298727 
L 157.434046 220.769101 
L 152.232855 221.993278 
L 146.925429 222.923228 
L 141.533102 223.524756 
L 136.101 223.779915 
L 130.652189 223.682425 
L 125.209061 223.223037 
L 119.792816 222.396626 
L 114.443296 221.197535 
L 109.177795 219.627052 
L 104.028402 217.689211 
L 99.014906 215.383643 
L 94.187922 212.719857 
L 89.549667 209.689936 
L 87.305491 208.035493 
L 85.124317 206.288868 
L 80.972227 202.536546 
L 79.015773 200.535916 
L 77.12199 198.436496 
L 73.832727 194.309329 
L 73.832727 194.309329 
" style="fill:none;stroke:#ffffff;stroke-linecap:square;"/>
   </g>
   <g id="line2d_15">
    <path clip-path="url(#pc4daf5db50)" d="M 398.231044 236.369148 
L 398.4653 228.818751 
L 398.464746 221.405431 
L 398.18822 209.293185 
L 397.875618 195.160488 
L 397.908703 188.223165 
L 398.167356 175.796483 
L 398.006848 170.412743 
L 397.791131 167.650022 
L 397.456337 164.833421 
L 396.983592 162.001071 
L 396.360767 159.161183 
L 395.599869 156.390391 
L 394.698079 153.639373 
L 393.668926 150.955777 
L 392.507985 148.310435 
L 391.221729 145.725234 
L 389.81889 143.212432 
L 388.291827 140.75498 
L 386.655086 138.384623 
L 384.907676 136.093791 
L 383.056672 133.893074 
L 381.105187 131.785842 
L 379.076423 129.793457 
L 376.949495 127.885778 
L 374.751487 126.090363 
L 372.474868 124.393129 
L 370.126188 122.798111 
L 367.708503 121.306943 
L 365.237694 119.927182 
L 362.694331 118.644435 
L 360.1037 117.474744 
L 357.429106 116.402256 
L 354.717602 115.456945 
L 351.926809 114.625191 
L 349.09025 113.931735 
L 346.211894 113.38244 
L 343.297477 112.985148 
L 340.324149 112.746901 
L 337.344347 112.686852 
L 334.331738 112.808787 
L 331.365271 113.117558 
L 328.440066 113.600382 
L 325.564944 114.247329 
L 322.756585 115.043799 
L 320.001158 115.981893 
L 317.310525 117.051333 
L 314.687295 118.242592 
L 312.141315 119.5429 
L 309.662383 120.949805 
L 307.267073 122.449588 
L 302.726905 125.69388 
L 298.523104 129.203949 
L 294.627571 132.92088 
L 291.01513 136.789205 
L 287.642425 140.765069 
L 283.071573 146.638288 
L 277.485835 153.840045 
L 274.741479 157.029787 
L 271.890972 159.939775 
L 268.813559 162.625196 
L 265.557896 165.043158 
L 262.142136 167.167981 
L 258.618868 168.95883 
L 254.952334 170.414651 
L 251.009438 171.601677 
L 246.770189 172.584907 
L 239.933095 173.825869 
L 227.788471 175.931304 
L 220.448661 177.441516 
L 213.098424 179.216248 
L 208.209059 180.57481 
L 200.966845 182.873623 
L 193.838511 185.461057 
L 186.84778 188.30877 
L 177.920063 192.316024 
L 167.32169 197.063012 
L 161.084211 199.522887 
L 156.920749 200.94394 
L 152.762554 202.159714 
L 148.610195 203.151609 
L 144.458544 203.895705 
L 140.291062 204.378229 
L 136.101 204.593145 
L 131.913255 204.537142 
L 127.748608 204.205076 
L 123.629029 203.597275 
L 119.557844 202.705008 
L 115.570525 201.53658 
L 111.687747 200.097549 
L 107.937686 198.39788 
L 104.322491 196.42806 
L 100.892709 194.215197 
L 97.672131 191.773893 
L 94.653166 189.084258 
L 91.864781 186.157153 
L 90.568405 184.614629 
L 89.091024 182.676766 
L 89.091024 182.676766 
" style="fill:none;stroke:#ffffff;stroke-linecap:square;"/>
   </g>
   <g id="patch_3">
    <path d="M 57.6 307.584 
L 57.6 41.472 
" style="fill:none;stroke:#000000;stroke-linecap:square;stroke-linejoin:miter;stroke-width:0.8;"/>
   </g>
   <g id="patch_4">
    <path d="M 414.72 307.584 
L 414.72 41.472 
" style="fill:none;stroke:#000000;stroke-linecap:square;stroke-linejoin:miter;stroke-width:0.8;"/>
   </g>
   <g id="patch_5">
    <path d="M 57.6 307.584 
L 414.72 307.584 
" style="fill:none;stroke:#000000;stroke-linecap:square;stroke-linejoin:miter;stroke-width:0.8;"/>
   </g>
   <g id="patch_6">
    <path d="M 57.6 41.472 
L 414.72 41.472 
" style="fill:none;stroke:#000000;stroke-linecap:square;stroke-linejoin:miter;stroke-width:0.8;"/>
   </g>
  </g>
 </g>
 <defs>
  <clipPath id="pc4daf5db50">
   <rect height="266.112" width="357.12" x="57.6" y="41.472"/>
  </clipPath>
 </defs>
</svg>
