<?xml version="1.0" encoding="utf-8" standalone="no"?>
<!DOCTYPE svg PUBLIC "-//W3C//DTD SVG 1.1//EN"
  "http://www.w3.org/Graphics/SVG/1.1/DTD/svg11.dtd">
<!-- Created with matplotlib (https://matplotlib.org/) -->
<svg height="345.6pt" version="1.1" viewBox="0 0 460.8 345.6" width="460.8pt" xmlns="http://www.w3.org/2000/svg" xmlns:xlink="http://www.w3.org/1999/xlink">
 <metadata>
  <rdf:RDF xmlns:cc="http://creativecommons.org/ns#" xmlns:dc="http://purl.org/dc/elements/1.1/" xmlns:rdf="http://www.w3.org/1999/02/22-rdf-syntax-ns#">
   <cc:Work>
    <dc:type rdf:resource="http://purl.org/dc/dcmitype/StillImage"/>
    <dc:date>2021-01-22T09:43:15.660707</dc:date>
    <dc:format>image/svg+xml</dc:format>
    <dc:creator>
     <cc:Agent>
      <dc:title>Matplotlib v3.3.3, https://matplotlib.org/</dc:title>
     </cc:Agent>
    </dc:creator>
   </cc:Work>
  </rdf:RDF>
 </metadata>
 <defs>
  <style type="text/css">*{stroke-linecap:butt;stroke-linejoin:round;}</style>
 </defs>
 <g id="figure_1">
  <g id="patch_1">
   <path d="M 0 345.6 
L 460.8 345.6 
L 460.8 0 
L 0 0 
z
" style="fill:#ffffff;"/>
  </g>
  <g id="axes_1">
   <g id="patch_2">
    <path d="M 57.6 307.584 
L 414.72 307.584 
L 414.72 41.472 
L 57.6 41.472 
z
" style="fill:#7d9051;"/>
   </g>
   <g id="matplotlib.axis_1">
    <g id="xtick_1">
     <g id="line2d_1">
      <defs>
       <path d="M 0 0 
L 0 3.5 
" id="m2d09bca8d1" style="stroke:#000000;stroke-width:0.8;"/>
      </defs>
      <g>
       <use style="stroke:#000000;stroke-width:0.8;" x="78.255242" xlink:href="#m2d09bca8d1" y="307.584"/>
      </g>
     </g>
     <g id="text_1">
      <!-- 0 -->
      <g transform="translate(75.073992 322.182437)scale(0.1 -0.1)">
       <defs>
        <path d="M 31.78125 66.40625 
Q 24.171875 66.40625 20.328125 58.90625 
Q 16.5 51.421875 16.5 36.375 
Q 16.5 21.390625 20.328125 13.890625 
Q 24.171875 6.390625 31.78125 6.390625 
Q 39.453125 6.390625 43.28125 13.890625 
Q 47.125 21.390625 47.125 36.375 
Q 47.125 51.421875 43.28125 58.90625 
Q 39.453125 66.40625 31.78125 66.40625 
z
M 31.78125 74.21875 
Q 44.046875 74.21875 50.515625 64.515625 
Q 56.984375 54.828125 56.984375 36.375 
Q 56.984375 17.96875 50.515625 8.265625 
Q 44.046875 -1.421875 31.78125 -1.421875 
Q 19.53125 -1.421875 13.0625 8.265625 
Q 6.59375 17.96875 6.59375 36.375 
Q 6.59375 54.828125 13.0625 64.515625 
Q 19.53125 74.21875 31.78125 74.21875 
z
" id="DejaVuSans-48"/>
       </defs>
       <use xlink:href="#DejaVuSans-48"/>
      </g>
     </g>
    </g>
    <g id="xtick_2">
     <g id="line2d_2">
      <g>
       <use style="stroke:#000000;stroke-width:0.8;" x="141.082676" xlink:href="#m2d09bca8d1" y="307.584"/>
      </g>
     </g>
     <g id="text_2">
      <!-- 20 -->
      <g transform="translate(134.720176 322.182437)scale(0.1 -0.1)">
       <defs>
        <path d="M 19.1875 8.296875 
L 53.609375 8.296875 
L 53.609375 0 
L 7.328125 0 
L 7.328125 8.296875 
Q 12.9375 14.109375 22.625 23.890625 
Q 32.328125 33.6875 34.8125 36.53125 
Q 39.546875 41.84375 41.421875 45.53125 
Q 43.3125 49.21875 43.3125 52.78125 
Q 43.3125 58.59375 39.234375 62.25 
Q 35.15625 65.921875 28.609375 65.921875 
Q 23.96875 65.921875 18.8125 64.3125 
Q 13.671875 62.703125 7.8125 59.421875 
L 7.8125 69.390625 
Q 13.765625 71.78125 18.9375 73 
Q 24.125 74.21875 28.421875 74.21875 
Q 39.75 74.21875 46.484375 68.546875 
Q 53.21875 62.890625 53.21875 53.421875 
Q 53.21875 48.921875 51.53125 44.890625 
Q 49.859375 40.875 45.40625 35.40625 
Q 44.1875 33.984375 37.640625 27.21875 
Q 31.109375 20.453125 19.1875 8.296875 
z
" id="DejaVuSans-50"/>
       </defs>
       <use xlink:href="#DejaVuSans-50"/>
       <use x="63.623047" xlink:href="#DejaVuSans-48"/>
      </g>
     </g>
    </g>
    <g id="xtick_3">
     <g id="line2d_3">
      <g>
       <use style="stroke:#000000;stroke-width:0.8;" x="203.910109" xlink:href="#m2d09bca8d1" y="307.584"/>
      </g>
     </g>
     <g id="text_3">
      <!-- 40 -->
      <g transform="translate(197.547609 322.182437)scale(0.1 -0.1)">
       <defs>
        <path d="M 37.796875 64.3125 
L 12.890625 25.390625 
L 37.796875 25.390625 
z
M 35.203125 72.90625 
L 47.609375 72.90625 
L 47.609375 25.390625 
L 58.015625 25.390625 
L 58.015625 17.1875 
L 47.609375 17.1875 
L 47.609375 0 
L 37.796875 0 
L 37.796875 17.1875 
L 4.890625 17.1875 
L 4.890625 26.703125 
z
" id="DejaVuSans-52"/>
       </defs>
       <use xlink:href="#DejaVuSans-52"/>
       <use x="63.623047" xlink:href="#DejaVuSans-48"/>
      </g>
     </g>
    </g>
    <g id="xtick_4">
     <g id="line2d_4">
      <g>
       <use style="stroke:#000000;stroke-width:0.8;" x="266.737543" xlink:href="#m2d09bca8d1" y="307.584"/>
      </g>
     </g>
     <g id="text_4">
      <!-- 60 -->
      <g transform="translate(260.375043 322.182437)scale(0.1 -0.1)">
       <defs>
        <path d="M 33.015625 40.375 
Q 26.375 40.375 22.484375 35.828125 
Q 18.609375 31.296875 18.609375 23.390625 
Q 18.609375 15.53125 22.484375 10.953125 
Q 26.375 6.390625 33.015625 6.390625 
Q 39.65625 6.390625 43.53125 10.953125 
Q 47.40625 15.53125 47.40625 23.390625 
Q 47.40625 31.296875 43.53125 35.828125 
Q 39.65625 40.375 33.015625 40.375 
z
M 52.59375 71.296875 
L 52.59375 62.3125 
Q 48.875 64.0625 45.09375 64.984375 
Q 41.3125 65.921875 37.59375 65.921875 
Q 27.828125 65.921875 22.671875 59.328125 
Q 17.53125 52.734375 16.796875 39.40625 
Q 19.671875 43.65625 24.015625 45.921875 
Q 28.375 48.1875 33.59375 48.1875 
Q 44.578125 48.1875 50.953125 41.515625 
Q 57.328125 34.859375 57.328125 23.390625 
Q 57.328125 12.15625 50.6875 5.359375 
Q 44.046875 -1.421875 33.015625 -1.421875 
Q 20.359375 -1.421875 13.671875 8.265625 
Q 6.984375 17.96875 6.984375 36.375 
Q 6.984375 53.65625 15.1875 63.9375 
Q 23.390625 74.21875 37.203125 74.21875 
Q 40.921875 74.21875 44.703125 73.484375 
Q 48.484375 72.75 52.59375 71.296875 
z
" id="DejaVuSans-54"/>
       </defs>
       <use xlink:href="#DejaVuSans-54"/>
       <use x="63.623047" xlink:href="#DejaVuSans-48"/>
      </g>
     </g>
    </g>
    <g id="xtick_5">
     <g id="line2d_5">
      <g>
       <use style="stroke:#000000;stroke-width:0.8;" x="329.564976" xlink:href="#m2d09bca8d1" y="307.584"/>
      </g>
     </g>
     <g id="text_5">
      <!-- 80 -->
      <g transform="translate(323.202476 322.182437)scale(0.1 -0.1)">
       <defs>
        <path d="M 31.78125 34.625 
Q 24.75 34.625 20.71875 30.859375 
Q 16.703125 27.09375 16.703125 20.515625 
Q 16.703125 13.921875 20.71875 10.15625 
Q 24.75 6.390625 31.78125 6.390625 
Q 38.8125 6.390625 42.859375 10.171875 
Q 46.921875 13.96875 46.921875 20.515625 
Q 46.921875 27.09375 42.890625 30.859375 
Q 38.875 34.625 31.78125 34.625 
z
M 21.921875 38.8125 
Q 15.578125 40.375 12.03125 44.71875 
Q 8.5 49.078125 8.5 55.328125 
Q 8.5 64.0625 14.71875 69.140625 
Q 20.953125 74.21875 31.78125 74.21875 
Q 42.671875 74.21875 48.875 69.140625 
Q 55.078125 64.0625 55.078125 55.328125 
Q 55.078125 49.078125 51.53125 44.71875 
Q 48 40.375 41.703125 38.8125 
Q 48.828125 37.15625 52.796875 32.3125 
Q 56.78125 27.484375 56.78125 20.515625 
Q 56.78125 9.90625 50.3125 4.234375 
Q 43.84375 -1.421875 31.78125 -1.421875 
Q 19.734375 -1.421875 13.25 4.234375 
Q 6.78125 9.90625 6.78125 20.515625 
Q 6.78125 27.484375 10.78125 32.3125 
Q 14.796875 37.15625 21.921875 38.8125 
z
M 18.3125 54.390625 
Q 18.3125 48.734375 21.84375 45.5625 
Q 25.390625 42.390625 31.78125 42.390625 
Q 38.140625 42.390625 41.71875 45.5625 
Q 45.3125 48.734375 45.3125 54.390625 
Q 45.3125 60.0625 41.71875 63.234375 
Q 38.140625 66.40625 31.78125 66.40625 
Q 25.390625 66.40625 21.84375 63.234375 
Q 18.3125 60.0625 18.3125 54.390625 
z
" id="DejaVuSans-56"/>
       </defs>
       <use xlink:href="#DejaVuSans-56"/>
       <use x="63.623047" xlink:href="#DejaVuSans-48"/>
      </g>
     </g>
    </g>
    <g id="xtick_6">
     <g id="line2d_6">
      <g>
       <use style="stroke:#000000;stroke-width:0.8;" x="392.39241" xlink:href="#m2d09bca8d1" y="307.584"/>
      </g>
     </g>
     <g id="text_6">
      <!-- 100 -->
      <g transform="translate(382.84866 322.182437)scale(0.1 -0.1)">
       <defs>
        <path d="M 12.40625 8.296875 
L 28.515625 8.296875 
L 28.515625 63.921875 
L 10.984375 60.40625 
L 10.984375 69.390625 
L 28.421875 72.90625 
L 38.28125 72.90625 
L 38.28125 8.296875 
L 54.390625 8.296875 
L 54.390625 0 
L 12.40625 0 
z
" id="DejaVuSans-49"/>
       </defs>
       <use xlink:href="#DejaVuSans-49"/>
       <use x="63.623047" xlink:href="#DejaVuSans-48"/>
       <use x="127.246094" xlink:href="#DejaVuSans-48"/>
      </g>
     </g>
    </g>
   </g>
   <g id="matplotlib.axis_2">
    <g id="ytick_1">
     <g id="line2d_7">
      <defs>
       <path d="M 0 0 
L -3.5 0 
" id="m9f9120080a" style="stroke:#000000;stroke-width:0.8;"/>
      </defs>
      <g>
       <use style="stroke:#000000;stroke-width:0.8;" x="57.6" xlink:href="#m9f9120080a" y="282.608544"/>
      </g>
     </g>
     <g id="text_7">
      <!-- 10 -->
      <g transform="translate(37.875 286.407763)scale(0.1 -0.1)">
       <use xlink:href="#DejaVuSans-49"/>
       <use x="63.623047" xlink:href="#DejaVuSans-48"/>
      </g>
     </g>
    </g>
    <g id="ytick_2">
     <g id="line2d_8">
      <g>
       <use style="stroke:#000000;stroke-width:0.8;" x="57.6" xlink:href="#m9f9120080a" y="251.194827"/>
      </g>
     </g>
     <g id="text_8">
      <!-- 20 -->
      <g transform="translate(37.875 254.994046)scale(0.1 -0.1)">
       <use xlink:href="#DejaVuSans-50"/>
       <use x="63.623047" xlink:href="#DejaVuSans-48"/>
      </g>
     </g>
    </g>
    <g id="ytick_3">
     <g id="line2d_9">
      <g>
       <use style="stroke:#000000;stroke-width:0.8;" x="57.6" xlink:href="#m9f9120080a" y="219.78111"/>
      </g>
     </g>
     <g id="text_9">
      <!-- 30 -->
      <g transform="translate(37.875 223.580329)scale(0.1 -0.1)">
       <defs>
        <path d="M 40.578125 39.3125 
Q 47.65625 37.796875 51.625 33 
Q 55.609375 28.21875 55.609375 21.1875 
Q 55.609375 10.40625 48.1875 4.484375 
Q 40.765625 -1.421875 27.09375 -1.421875 
Q 22.515625 -1.421875 17.65625 -0.515625 
Q 12.796875 0.390625 7.625 2.203125 
L 7.625 11.71875 
Q 11.71875 9.328125 16.59375 8.109375 
Q 21.484375 6.890625 26.8125 6.890625 
Q 36.078125 6.890625 40.9375 10.546875 
Q 45.796875 14.203125 45.796875 21.1875 
Q 45.796875 27.640625 41.28125 31.265625 
Q 36.765625 34.90625 28.71875 34.90625 
L 20.21875 34.90625 
L 20.21875 43.015625 
L 29.109375 43.015625 
Q 36.375 43.015625 40.234375 45.921875 
Q 44.09375 48.828125 44.09375 54.296875 
Q 44.09375 59.90625 40.109375 62.90625 
Q 36.140625 65.921875 28.71875 65.921875 
Q 24.65625 65.921875 20.015625 65.03125 
Q 15.375 64.15625 9.8125 62.3125 
L 9.8125 71.09375 
Q 15.4375 72.65625 20.34375 73.4375 
Q 25.25 74.21875 29.59375 74.21875 
Q 40.828125 74.21875 47.359375 69.109375 
Q 53.90625 64.015625 53.90625 55.328125 
Q 53.90625 49.265625 50.4375 45.09375 
Q 46.96875 40.921875 40.578125 39.3125 
z
" id="DejaVuSans-51"/>
       </defs>
       <use xlink:href="#DejaVuSans-51"/>
       <use x="63.623047" xlink:href="#DejaVuSans-48"/>
      </g>
     </g>
    </g>
    <g id="ytick_4">
     <g id="line2d_10">
      <g>
       <use style="stroke:#000000;stroke-width:0.8;" x="57.6" xlink:href="#m9f9120080a" y="188.367394"/>
      </g>
     </g>
     <g id="text_10">
      <!-- 40 -->
      <g transform="translate(37.875 192.166612)scale(0.1 -0.1)">
       <use xlink:href="#DejaVuSans-52"/>
       <use x="63.623047" xlink:href="#DejaVuSans-48"/>
      </g>
     </g>
    </g>
    <g id="ytick_5">
     <g id="line2d_11">
      <g>
       <use style="stroke:#000000;stroke-width:0.8;" x="57.6" xlink:href="#m9f9120080a" y="156.953677"/>
      </g>
     </g>
     <g id="text_11">
      <!-- 50 -->
      <g transform="translate(37.875 160.752896)scale(0.1 -0.1)">
       <defs>
        <path d="M 10.796875 72.90625 
L 49.515625 72.90625 
L 49.515625 64.59375 
L 19.828125 64.59375 
L 19.828125 46.734375 
Q 21.96875 47.46875 24.109375 47.828125 
Q 26.265625 48.1875 28.421875 48.1875 
Q 40.625 48.1875 47.75 41.5 
Q 54.890625 34.8125 54.890625 23.390625 
Q 54.890625 11.625 47.5625 5.09375 
Q 40.234375 -1.421875 26.90625 -1.421875 
Q 22.3125 -1.421875 17.546875 -0.640625 
Q 12.796875 0.140625 7.71875 1.703125 
L 7.71875 11.625 
Q 12.109375 9.234375 16.796875 8.0625 
Q 21.484375 6.890625 26.703125 6.890625 
Q 35.15625 6.890625 40.078125 11.328125 
Q 45.015625 15.765625 45.015625 23.390625 
Q 45.015625 31 40.078125 35.4375 
Q 35.15625 39.890625 26.703125 39.890625 
Q 22.75 39.890625 18.8125 39.015625 
Q 14.890625 38.140625 10.796875 36.28125 
z
" id="DejaVuSans-53"/>
       </defs>
       <use xlink:href="#DejaVuSans-53"/>
       <use x="63.623047" xlink:href="#DejaVuSans-48"/>
      </g>
     </g>
    </g>
    <g id="ytick_6">
     <g id="line2d_12">
      <g>
       <use style="stroke:#000000;stroke-width:0.8;" x="57.6" xlink:href="#m9f9120080a" y="125.53996"/>
      </g>
     </g>
     <g id="text_12">
      <!-- 60 -->
      <g transform="translate(37.875 129.339179)scale(0.1 -0.1)">
       <use xlink:href="#DejaVuSans-54"/>
       <use x="63.623047" xlink:href="#DejaVuSans-48"/>
      </g>
     </g>
    </g>
    <g id="ytick_7">
     <g id="line2d_13">
      <g>
       <use style="stroke:#000000;stroke-width:0.8;" x="57.6" xlink:href="#m9f9120080a" y="94.126243"/>
      </g>
     </g>
     <g id="text_13">
      <!-- 70 -->
      <g transform="translate(37.875 97.925462)scale(0.1 -0.1)">
       <defs>
        <path d="M 8.203125 72.90625 
L 55.078125 72.90625 
L 55.078125 68.703125 
L 28.609375 0 
L 18.3125 0 
L 43.21875 64.59375 
L 8.203125 64.59375 
z
" id="DejaVuSans-55"/>
       </defs>
       <use xlink:href="#DejaVuSans-55"/>
       <use x="63.623047" xlink:href="#DejaVuSans-48"/>
      </g>
     </g>
    </g>
    <g id="ytick_8">
     <g id="line2d_14">
      <g>
       <use style="stroke:#000000;stroke-width:0.8;" x="57.6" xlink:href="#m9f9120080a" y="62.712527"/>
      </g>
     </g>
     <g id="text_14">
      <!-- 80 -->
      <g transform="translate(37.875 66.511745)scale(0.1 -0.1)">
       <use xlink:href="#DejaVuSans-56"/>
       <use x="63.623047" xlink:href="#DejaVuSans-48"/>
      </g>
     </g>
    </g>
   </g>
   <g id="line2d_15">
    <path clip-path="url(#pa6bc7b5158)" d="M 361.506443 162.52647 
L 362.332624 156.510743 
L 362.772416 150.284545 
L 362.800688 143.926408 
L 362.656185 140.719068 
L 362.398593 137.508586 
L 362.02477 134.304387 
L 361.531574 131.112753 
L 360.919007 127.946251 
L 360.183926 124.811162 
L 359.316907 121.723194 
L 358.321092 118.688628 
L 357.19334 115.713749 
L 355.924226 112.814263 
L 354.516891 109.993312 
L 352.968195 107.266601 
L 351.271854 104.640414 
L 349.424728 102.124176 
L 347.426815 99.727309 
L 345.290683 97.446673 
L 343.028895 95.272844 
L 340.654018 93.20268 
L 338.181759 91.229899 
L 332.992213 87.551352 
L 327.567064 84.196367 
L 322.009977 81.111541 
L 316.374356 78.284306 
L 310.644494 75.708381 
L 304.81725 73.39319 
L 298.873775 71.338733 
L 292.807786 69.548151 
L 286.631849 68.059141 
L 280.386803 66.943954 
L 277.248572 66.551283 
L 274.107201 66.277983 
L 270.96897 66.13348 
L 267.837023 66.130339 
L 264.717641 66.271701 
L 261.610824 66.570131 
L 258.519714 67.00364 
L 252.37205 68.203644 
L 246.252658 69.714644 
L 227.910189 74.555498 
L 221.759383 75.909429 
L 215.589729 77.090585 
L 209.394944 78.095824 
L 203.181311 78.925146 
L 193.826306 79.889547 
L 184.458736 80.841383 
L 178.223113 81.664422 
L 172.003197 82.767043 
L 165.82726 84.262336 
L 162.78013 85.176475 
L 159.767554 86.206845 
L 156.811524 87.359729 
L 153.912038 88.647691 
L 151.087944 90.067591 
L 148.345527 91.631994 
L 145.700492 93.344042 
L 143.159122 95.210017 
L 140.733983 97.229919 
L 138.428217 99.403748 
L 136.244963 101.709515 
L 134.190506 104.140936 
L 132.267987 106.685447 
L 130.483688 109.330482 
L 128.834467 112.063476 
L 127.332892 114.875003 
L 125.975819 117.749358 
L 124.772674 120.677117 
L 123.717173 123.648854 
L 122.806175 126.655147 
L 121.329731 132.761974 
L 120.220826 138.9599 
L 119.344384 145.208088 
L 116.13076 170.178852 
L 114.71086 179.486736 
L 110.592522 204.281582 
L 109.90142 210.529771 
L 109.527597 216.815655 
L 109.537021 223.129813 
L 109.703514 226.28375 
L 109.983096 229.428263 
L 110.385192 232.56021 
L 110.909801 235.676451 
L 111.566347 238.770702 
L 112.361114 241.836681 
L 113.300385 244.871246 
L 114.387299 247.868114 
L 115.621858 250.81158 
L 117.004062 253.695359 
L 118.530768 256.500604 
L 120.201978 259.221032 
L 122.020832 261.834653 
L 123.981048 264.335185 
L 126.082626 266.710062 
L 128.328707 268.940436 
L 130.713008 271.016882 
L 133.232388 272.929978 
L 135.880564 274.67658 
L 138.638688 276.253549 
L 141.497337 277.664025 
L 144.437661 278.908008 
L 147.447095 279.982357 
L 150.513073 280.890213 
L 153.61989 281.631577 
L 156.75812 282.203307 
L 159.908916 282.608544 
L 163.062853 282.847288 
L 166.21679 282.925822 
L 169.364445 282.853571 
L 172.505816 282.636816 
L 175.637764 282.288124 
L 178.760287 281.810635 
L 181.870245 281.216916 
L 188.036758 279.709058 
L 194.124736 277.827376 
L 200.112191 275.640981 
L 205.983414 273.218984 
L 211.716418 270.624211 
L 220.019063 266.556135 
L 220.019063 266.556135 
" style="fill:none;stroke:#fea952;stroke-linecap:square;"/>
   </g>
   <g id="line2d_16">
    <path clip-path="url(#pa6bc7b5158)" d="M 349.087375 160.613829 
L 349.814855 155.416711 
L 350.209655 150.022821 
L 350.247935 144.491959 
L 349.917758 138.964684 
L 349.194812 133.49933 
L 348.086246 128.207865 
L 347.377831 125.641089 
L 346.571542 123.142787 
L 345.682236 120.752196 
L 344.680309 118.423701 
L 343.590764 116.19905 
L 342.413171 114.08444 
L 341.142603 112.07612 
L 339.77269 110.169648 
L 338.255887 108.317159 
L 336.583446 106.506226 
L 334.772219 104.744843 
L 332.816602 103.02441 
L 330.740219 101.354865 
L 326.240511 98.148804 
L 321.355548 95.119212 
L 316.260918 92.284712 
L 311.09913 89.688842 
L 305.871591 87.332101 
L 300.569531 85.218939 
L 295.171412 83.346396 
L 289.687128 81.719961 
L 284.220171 80.391021 
L 278.82671 79.412217 
L 273.529222 78.83017 
L 270.956367 78.698961 
L 268.405872 78.682943 
L 265.919109 78.779615 
L 263.355978 79.01384 
L 258.045642 79.845987 
L 252.436188 81.099489 
L 243.488903 83.489907 
L 233.917606 86.033633 
L 227.458772 87.542009 
L 220.953132 88.879741 
L 214.42033 90.032376 
L 207.865323 90.998982 
L 201.35217 91.770413 
L 183.095308 93.666819 
L 177.468623 94.515464 
L 172.070151 95.622628 
L 166.846547 97.065786 
L 161.912542 98.843241 
L 159.556455 99.874089 
L 157.314092 100.982102 
L 155.173302 102.180593 
L 153.137233 103.472533 
L 151.20089 104.865141 
L 149.353692 106.372789 
L 147.552452 108.04318 
L 145.842926 109.819421 
L 144.216097 111.715827 
L 142.684881 113.712521 
L 141.242102 115.822629 
L 139.918232 117.983073 
L 138.695616 120.239699 
L 137.598204 122.52551 
L 136.613464 124.882725 
L 135.74265 127.292938 
L 134.277851 132.435134 
L 133.132221 137.908673 
L 132.215613 143.730152 
L 130.658793 156.171749 
L 128.563337 172.001626 
L 127.10572 181.550449 
L 123.065748 205.801482 
L 122.432575 211.458004 
L 122.091685 217.003179 
L 122.085037 222.467417 
L 122.446289 227.828174 
L 123.201635 233.068336 
L 123.729812 235.617673 
L 124.364747 238.121271 
L 125.112957 240.587021 
L 125.974836 243.008027 
L 126.953014 245.380525 
L 128.04091 247.688743 
L 129.23736 249.923344 
L 130.515788 252.043513 
L 131.909921 254.082403 
L 133.391129 256.00801 
L 134.936536 257.7938 
L 136.581018 259.464634 
L 138.31206 261.009592 
L 140.150694 262.440531 
L 142.117467 263.768212 
L 144.198628 264.985074 
L 146.393353 266.091623 
L 148.662326 267.074004 
L 151.014701 267.93397 
L 153.429624 268.66789 
L 155.872028 269.269566 
L 158.361017 269.740475 
L 160.857375 270.078904 
L 163.375642 270.285695 
L 165.928437 270.363645 
L 168.499483 270.31789 
L 171.115441 270.148489 
L 173.73836 269.867024 
L 179.081163 268.964876 
L 184.493213 267.653572 
L 189.951112 265.975274 
L 195.430502 263.980225 
L 200.880087 261.736497 
L 206.300804 259.285667 
L 214.389255 255.322403 
L 214.389255 255.322403 
" style="fill:none;stroke:#ffffff;stroke-linecap:square;"/>
   </g>
   <g id="line2d_17">
    <path clip-path="url(#pa6bc7b5158)" d="M 373.925512 164.439112 
L 374.439593 161.057775 
L 374.850393 157.604776 
L 375.149915 154.098537 
L 375.335177 150.546269 
L 375.402995 146.969641 
L 375.353441 143.360858 
L 375.18142 139.714108 
L 374.879428 136.052489 
L 374.442867 132.385449 
L 373.868337 128.726177 
L 373.152714 125.077826 
L 372.281606 121.414458 
L 371.255984 117.805298 
L 370.070642 114.23447 
L 368.704444 110.675303 
L 367.168143 107.204826 
L 365.443019 103.787573 
L 363.523219 100.448763 
L 361.401106 97.204709 
L 359.076765 94.078703 
L 356.597744 91.137459 
L 353.997919 88.387121 
L 351.285571 85.800845 
L 348.491434 83.380951 
L 345.623298 81.104932 
L 342.711291 78.973879 
L 339.743914 76.953901 
L 333.778579 73.273523 
L 327.759037 69.938369 
L 321.649582 66.87977 
L 315.417398 64.084662 
L 309.064969 61.567441 
L 302.576138 59.33107 
L 295.928444 57.376342 
L 289.043528 55.727261 
L 285.520749 55.045245 
L 281.946895 54.475692 
L 278.337656 54.033082 
L 274.685179 53.725797 
L 270.981574 53.568 
L 267.268174 53.577735 
L 263.516173 53.763786 
L 259.86567 54.126422 
L 256.310819 54.633829 
L 249.47519 55.976639 
L 242.982384 57.582177 
L 225.128661 62.301741 
L 219.309586 63.585065 
L 213.489311 64.701892 
L 207.644367 65.652876 
L 201.795068 66.436359 
L 192.618358 67.382256 
L 182.926461 68.369671 
L 176.195925 69.263536 
L 169.252325 70.506368 
L 165.747741 71.299945 
L 162.216594 72.226783 
L 158.713713 73.287165 
L 155.201836 74.500195 
L 151.710505 75.876216 
L 148.26762 77.421294 
L 144.861797 79.15308 
L 141.517752 81.083395 
L 138.263751 83.215551 
L 135.117354 85.554892 
L 132.114275 88.087048 
L 129.303982 90.764315 
L 126.647001 93.599608 
L 124.164915 96.566045 
L 121.851092 99.658374 
L 119.725273 102.838335 
L 117.750703 106.143879 
L 115.970168 109.510307 
L 114.353434 112.973207 
L 112.931884 116.471508 
L 111.691696 120.00477 
L 110.645994 123.48948 
L 109.751248 126.956856 
L 108.339802 133.797493 
L 107.302477 140.428412 
L 105.334866 156.132372 
L 103.698184 168.356078 
L 102.316001 177.423023 
L 98.119296 202.761683 
L 97.370266 209.601537 
L 96.96351 216.628132 
L 96.917005 220.197751 
L 96.989006 223.792208 
L 97.187401 227.396571 
L 97.519903 231.028352 
L 97.994064 234.646217 
L 98.617966 238.284566 
L 99.402883 241.923731 
L 100.357482 245.552091 
L 101.487812 249.15547 
L 102.799762 252.728202 
L 104.290702 256.242635 
L 105.967214 259.701975 
L 107.824176 263.077864 
L 109.888168 266.398551 
L 112.131744 269.586903 
L 114.570968 272.662359 
L 117.228715 275.626324 
L 120.076395 278.416237 
L 123.113956 281.024173 
L 126.314081 283.419424 
L 129.643661 285.584949 
L 133.078749 287.522024 
L 136.601321 289.236427 
L 140.212995 290.742012 
L 143.879488 292.030744 
L 147.596523 293.112537 
L 151.367752 293.993589 
L 155.155224 294.666139 
L 158.960457 295.138184 
L 162.750065 295.408881 
L 166.505144 295.488 
L 170.229407 295.389252 
L 173.896192 295.125143 
L 177.537168 294.709224 
L 181.116598 294.153214 
L 184.659328 293.468956 
L 188.140236 292.669983 
L 194.970127 290.763105 
L 201.576977 288.521393 
L 207.963636 286.026681 
L 214.12648 283.3492 
L 220.067328 280.559897 
L 225.648871 277.789866 
L 225.648871 277.789866 
" style="fill:none;stroke:#ffffff;stroke-linecap:square;"/>
   </g>
   <g id="patch_3">
    <path d="M 57.6 307.584 
L 57.6 41.472 
" style="fill:none;stroke:#000000;stroke-linecap:square;stroke-linejoin:miter;stroke-width:0.8;"/>
   </g>
   <g id="patch_4">
    <path d="M 414.72 307.584 
L 414.72 41.472 
" style="fill:none;stroke:#000000;stroke-linecap:square;stroke-linejoin:miter;stroke-width:0.8;"/>
   </g>
   <g id="patch_5">
    <path d="M 57.6 307.584 
L 414.72 307.584 
" style="fill:none;stroke:#000000;stroke-linecap:square;stroke-linejoin:miter;stroke-width:0.8;"/>
   </g>
   <g id="patch_6">
    <path d="M 57.6 41.472 
L 414.72 41.472 
" style="fill:none;stroke:#000000;stroke-linecap:square;stroke-linejoin:miter;stroke-width:0.8;"/>
   </g>
  </g>
 </g>
 <defs>
  <clipPath id="pa6bc7b5158">
   <rect height="266.112" width="357.12" x="57.6" y="41.472"/>
  </clipPath>
 </defs>
</svg>
