<?xml version="1.0" encoding="utf-8" standalone="no"?>
<!DOCTYPE svg PUBLIC "-//W3C//DTD SVG 1.1//EN"
  "http://www.w3.org/Graphics/SVG/1.1/DTD/svg11.dtd">
<!-- Created with matplotlib (https://matplotlib.org/) -->
<svg height="345.6pt" version="1.1" viewBox="0 0 460.8 345.6" width="460.8pt" xmlns="http://www.w3.org/2000/svg" xmlns:xlink="http://www.w3.org/1999/xlink">
 <metadata>
  <rdf:RDF xmlns:cc="http://creativecommons.org/ns#" xmlns:dc="http://purl.org/dc/elements/1.1/" xmlns:rdf="http://www.w3.org/1999/02/22-rdf-syntax-ns#">
   <cc:Work>
    <dc:type rdf:resource="http://purl.org/dc/dcmitype/StillImage"/>
    <dc:date>2021-01-25T12:48:32.284425</dc:date>
    <dc:format>image/svg+xml</dc:format>
    <dc:creator>
     <cc:Agent>
      <dc:title>Matplotlib v3.3.3, https://matplotlib.org/</dc:title>
     </cc:Agent>
    </dc:creator>
   </cc:Work>
  </rdf:RDF>
 </metadata>
 <defs>
  <style type="text/css">*{stroke-linecap:butt;stroke-linejoin:round;}</style>
 </defs>
 <g id="figure_1">
  <g id="patch_1">
   <path d="M 0 345.6 
L 460.8 345.6 
L 460.8 0 
L 0 0 
z
" style="fill:#ffffff;"/>
  </g>
  <g id="axes_1">
   <g id="patch_2">
    <path d="M 57.6 307.584 
L 414.72 307.584 
L 414.72 41.472 
L 57.6 41.472 
z
" style="fill:#7d9051;"/>
   </g>
   <g id="matplotlib.axis_1">
    <g id="xtick_1">
     <g id="line2d_1">
      <defs>
       <path d="M 0 0 
L 0 3.5 
" id="mcb07b94720" style="stroke:#000000;stroke-width:0.8;"/>
      </defs>
      <g>
       <use style="stroke:#000000;stroke-width:0.8;" x="124.115807" xlink:href="#mcb07b94720" y="307.584"/>
      </g>
     </g>
     <g id="text_1">
      <!-- 20 -->
      <g transform="translate(117.753307 322.182437)scale(0.1 -0.1)">
       <defs>
        <path d="M 19.1875 8.296875 
L 53.609375 8.296875 
L 53.609375 0 
L 7.328125 0 
L 7.328125 8.296875 
Q 12.9375 14.109375 22.625 23.890625 
Q 32.328125 33.6875 34.8125 36.53125 
Q 39.546875 41.84375 41.421875 45.53125 
Q 43.3125 49.21875 43.3125 52.78125 
Q 43.3125 58.59375 39.234375 62.25 
Q 35.15625 65.921875 28.609375 65.921875 
Q 23.96875 65.921875 18.8125 64.3125 
Q 13.671875 62.703125 7.8125 59.421875 
L 7.8125 69.390625 
Q 13.765625 71.78125 18.9375 73 
Q 24.125 74.21875 28.421875 74.21875 
Q 39.75 74.21875 46.484375 68.546875 
Q 53.21875 62.890625 53.21875 53.421875 
Q 53.21875 48.921875 51.53125 44.890625 
Q 49.859375 40.875 45.40625 35.40625 
Q 44.1875 33.984375 37.640625 27.21875 
Q 31.109375 20.453125 19.1875 8.296875 
z
" id="DejaVuSans-50"/>
        <path d="M 31.78125 66.40625 
Q 24.171875 66.40625 20.328125 58.90625 
Q 16.5 51.421875 16.5 36.375 
Q 16.5 21.390625 20.328125 13.890625 
Q 24.171875 6.390625 31.78125 6.390625 
Q 39.453125 6.390625 43.28125 13.890625 
Q 47.125 21.390625 47.125 36.375 
Q 47.125 51.421875 43.28125 58.90625 
Q 39.453125 66.40625 31.78125 66.40625 
z
M 31.78125 74.21875 
Q 44.046875 74.21875 50.515625 64.515625 
Q 56.984375 54.828125 56.984375 36.375 
Q 56.984375 17.96875 50.515625 8.265625 
Q 44.046875 -1.421875 31.78125 -1.421875 
Q 19.53125 -1.421875 13.0625 8.265625 
Q 6.59375 17.96875 6.59375 36.375 
Q 6.59375 54.828125 13.0625 64.515625 
Q 19.53125 74.21875 31.78125 74.21875 
z
" id="DejaVuSans-48"/>
       </defs>
       <use xlink:href="#DejaVuSans-50"/>
       <use x="63.623047" xlink:href="#DejaVuSans-48"/>
      </g>
     </g>
    </g>
    <g id="xtick_2">
     <g id="line2d_2">
      <g>
       <use style="stroke:#000000;stroke-width:0.8;" x="194.665725" xlink:href="#mcb07b94720" y="307.584"/>
      </g>
     </g>
     <g id="text_2">
      <!-- 40 -->
      <g transform="translate(188.303225 322.182437)scale(0.1 -0.1)">
       <defs>
        <path d="M 37.796875 64.3125 
L 12.890625 25.390625 
L 37.796875 25.390625 
z
M 35.203125 72.90625 
L 47.609375 72.90625 
L 47.609375 25.390625 
L 58.015625 25.390625 
L 58.015625 17.1875 
L 47.609375 17.1875 
L 47.609375 0 
L 37.796875 0 
L 37.796875 17.1875 
L 4.890625 17.1875 
L 4.890625 26.703125 
z
" id="DejaVuSans-52"/>
       </defs>
       <use xlink:href="#DejaVuSans-52"/>
       <use x="63.623047" xlink:href="#DejaVuSans-48"/>
      </g>
     </g>
    </g>
    <g id="xtick_3">
     <g id="line2d_3">
      <g>
       <use style="stroke:#000000;stroke-width:0.8;" x="265.215643" xlink:href="#mcb07b94720" y="307.584"/>
      </g>
     </g>
     <g id="text_3">
      <!-- 60 -->
      <g transform="translate(258.853143 322.182437)scale(0.1 -0.1)">
       <defs>
        <path d="M 33.015625 40.375 
Q 26.375 40.375 22.484375 35.828125 
Q 18.609375 31.296875 18.609375 23.390625 
Q 18.609375 15.53125 22.484375 10.953125 
Q 26.375 6.390625 33.015625 6.390625 
Q 39.65625 6.390625 43.53125 10.953125 
Q 47.40625 15.53125 47.40625 23.390625 
Q 47.40625 31.296875 43.53125 35.828125 
Q 39.65625 40.375 33.015625 40.375 
z
M 52.59375 71.296875 
L 52.59375 62.3125 
Q 48.875 64.0625 45.09375 64.984375 
Q 41.3125 65.921875 37.59375 65.921875 
Q 27.828125 65.921875 22.671875 59.328125 
Q 17.53125 52.734375 16.796875 39.40625 
Q 19.671875 43.65625 24.015625 45.921875 
Q 28.375 48.1875 33.59375 48.1875 
Q 44.578125 48.1875 50.953125 41.515625 
Q 57.328125 34.859375 57.328125 23.390625 
Q 57.328125 12.15625 50.6875 5.359375 
Q 44.046875 -1.421875 33.015625 -1.421875 
Q 20.359375 -1.421875 13.671875 8.265625 
Q 6.984375 17.96875 6.984375 36.375 
Q 6.984375 53.65625 15.1875 63.9375 
Q 23.390625 74.21875 37.203125 74.21875 
Q 40.921875 74.21875 44.703125 73.484375 
Q 48.484375 72.75 52.59375 71.296875 
z
" id="DejaVuSans-54"/>
       </defs>
       <use xlink:href="#DejaVuSans-54"/>
       <use x="63.623047" xlink:href="#DejaVuSans-48"/>
      </g>
     </g>
    </g>
    <g id="xtick_4">
     <g id="line2d_4">
      <g>
       <use style="stroke:#000000;stroke-width:0.8;" x="335.76556" xlink:href="#mcb07b94720" y="307.584"/>
      </g>
     </g>
     <g id="text_4">
      <!-- 80 -->
      <g transform="translate(329.40306 322.182437)scale(0.1 -0.1)">
       <defs>
        <path d="M 31.78125 34.625 
Q 24.75 34.625 20.71875 30.859375 
Q 16.703125 27.09375 16.703125 20.515625 
Q 16.703125 13.921875 20.71875 10.15625 
Q 24.75 6.390625 31.78125 6.390625 
Q 38.8125 6.390625 42.859375 10.171875 
Q 46.921875 13.96875 46.921875 20.515625 
Q 46.921875 27.09375 42.890625 30.859375 
Q 38.875 34.625 31.78125 34.625 
z
M 21.921875 38.8125 
Q 15.578125 40.375 12.03125 44.71875 
Q 8.5 49.078125 8.5 55.328125 
Q 8.5 64.0625 14.71875 69.140625 
Q 20.953125 74.21875 31.78125 74.21875 
Q 42.671875 74.21875 48.875 69.140625 
Q 55.078125 64.0625 55.078125 55.328125 
Q 55.078125 49.078125 51.53125 44.71875 
Q 48 40.375 41.703125 38.8125 
Q 48.828125 37.15625 52.796875 32.3125 
Q 56.78125 27.484375 56.78125 20.515625 
Q 56.78125 9.90625 50.3125 4.234375 
Q 43.84375 -1.421875 31.78125 -1.421875 
Q 19.734375 -1.421875 13.25 4.234375 
Q 6.78125 9.90625 6.78125 20.515625 
Q 6.78125 27.484375 10.78125 32.3125 
Q 14.796875 37.15625 21.921875 38.8125 
z
M 18.3125 54.390625 
Q 18.3125 48.734375 21.84375 45.5625 
Q 25.390625 42.390625 31.78125 42.390625 
Q 38.140625 42.390625 41.71875 45.5625 
Q 45.3125 48.734375 45.3125 54.390625 
Q 45.3125 60.0625 41.71875 63.234375 
Q 38.140625 66.40625 31.78125 66.40625 
Q 25.390625 66.40625 21.84375 63.234375 
Q 18.3125 60.0625 18.3125 54.390625 
z
" id="DejaVuSans-56"/>
       </defs>
       <use xlink:href="#DejaVuSans-56"/>
       <use x="63.623047" xlink:href="#DejaVuSans-48"/>
      </g>
     </g>
    </g>
    <g id="xtick_5">
     <g id="line2d_5">
      <g>
       <use style="stroke:#000000;stroke-width:0.8;" x="406.315478" xlink:href="#mcb07b94720" y="307.584"/>
      </g>
     </g>
     <g id="text_5">
      <!-- 100 -->
      <g transform="translate(396.771728 322.182437)scale(0.1 -0.1)">
       <defs>
        <path d="M 12.40625 8.296875 
L 28.515625 8.296875 
L 28.515625 63.921875 
L 10.984375 60.40625 
L 10.984375 69.390625 
L 28.421875 72.90625 
L 38.28125 72.90625 
L 38.28125 8.296875 
L 54.390625 8.296875 
L 54.390625 0 
L 12.40625 0 
z
" id="DejaVuSans-49"/>
       </defs>
       <use xlink:href="#DejaVuSans-49"/>
       <use x="63.623047" xlink:href="#DejaVuSans-48"/>
       <use x="127.246094" xlink:href="#DejaVuSans-48"/>
      </g>
     </g>
    </g>
   </g>
   <g id="matplotlib.axis_2">
    <g id="ytick_1">
     <g id="line2d_6">
      <defs>
       <path d="M 0 0 
L -3.5 0 
" id="mfaba670ec2" style="stroke:#000000;stroke-width:0.8;"/>
      </defs>
      <g>
       <use style="stroke:#000000;stroke-width:0.8;" x="57.6" xlink:href="#mfaba670ec2" y="301.709138"/>
      </g>
     </g>
     <g id="text_6">
      <!-- 0 -->
      <g transform="translate(44.2375 305.508357)scale(0.1 -0.1)">
       <use xlink:href="#DejaVuSans-48"/>
      </g>
     </g>
    </g>
    <g id="ytick_2">
     <g id="line2d_7">
      <g>
       <use style="stroke:#000000;stroke-width:0.8;" x="57.6" xlink:href="#mfaba670ec2" y="266.434179"/>
      </g>
     </g>
     <g id="text_7">
      <!-- 10 -->
      <g transform="translate(37.875 270.233398)scale(0.1 -0.1)">
       <use xlink:href="#DejaVuSans-49"/>
       <use x="63.623047" xlink:href="#DejaVuSans-48"/>
      </g>
     </g>
    </g>
    <g id="ytick_3">
     <g id="line2d_8">
      <g>
       <use style="stroke:#000000;stroke-width:0.8;" x="57.6" xlink:href="#mfaba670ec2" y="231.15922"/>
      </g>
     </g>
     <g id="text_8">
      <!-- 20 -->
      <g transform="translate(37.875 234.958439)scale(0.1 -0.1)">
       <use xlink:href="#DejaVuSans-50"/>
       <use x="63.623047" xlink:href="#DejaVuSans-48"/>
      </g>
     </g>
    </g>
    <g id="ytick_4">
     <g id="line2d_9">
      <g>
       <use style="stroke:#000000;stroke-width:0.8;" x="57.6" xlink:href="#mfaba670ec2" y="195.884261"/>
      </g>
     </g>
     <g id="text_9">
      <!-- 30 -->
      <g transform="translate(37.875 199.68348)scale(0.1 -0.1)">
       <defs>
        <path d="M 40.578125 39.3125 
Q 47.65625 37.796875 51.625 33 
Q 55.609375 28.21875 55.609375 21.1875 
Q 55.609375 10.40625 48.1875 4.484375 
Q 40.765625 -1.421875 27.09375 -1.421875 
Q 22.515625 -1.421875 17.65625 -0.515625 
Q 12.796875 0.390625 7.625 2.203125 
L 7.625 11.71875 
Q 11.71875 9.328125 16.59375 8.109375 
Q 21.484375 6.890625 26.8125 6.890625 
Q 36.078125 6.890625 40.9375 10.546875 
Q 45.796875 14.203125 45.796875 21.1875 
Q 45.796875 27.640625 41.28125 31.265625 
Q 36.765625 34.90625 28.71875 34.90625 
L 20.21875 34.90625 
L 20.21875 43.015625 
L 29.109375 43.015625 
Q 36.375 43.015625 40.234375 45.921875 
Q 44.09375 48.828125 44.09375 54.296875 
Q 44.09375 59.90625 40.109375 62.90625 
Q 36.140625 65.921875 28.71875 65.921875 
Q 24.65625 65.921875 20.015625 65.03125 
Q 15.375 64.15625 9.8125 62.3125 
L 9.8125 71.09375 
Q 15.4375 72.65625 20.34375 73.4375 
Q 25.25 74.21875 29.59375 74.21875 
Q 40.828125 74.21875 47.359375 69.109375 
Q 53.90625 64.015625 53.90625 55.328125 
Q 53.90625 49.265625 50.4375 45.09375 
Q 46.96875 40.921875 40.578125 39.3125 
z
" id="DejaVuSans-51"/>
       </defs>
       <use xlink:href="#DejaVuSans-51"/>
       <use x="63.623047" xlink:href="#DejaVuSans-48"/>
      </g>
     </g>
    </g>
    <g id="ytick_5">
     <g id="line2d_10">
      <g>
       <use style="stroke:#000000;stroke-width:0.8;" x="57.6" xlink:href="#mfaba670ec2" y="160.609302"/>
      </g>
     </g>
     <g id="text_10">
      <!-- 40 -->
      <g transform="translate(37.875 164.408521)scale(0.1 -0.1)">
       <use xlink:href="#DejaVuSans-52"/>
       <use x="63.623047" xlink:href="#DejaVuSans-48"/>
      </g>
     </g>
    </g>
    <g id="ytick_6">
     <g id="line2d_11">
      <g>
       <use style="stroke:#000000;stroke-width:0.8;" x="57.6" xlink:href="#mfaba670ec2" y="125.334343"/>
      </g>
     </g>
     <g id="text_11">
      <!-- 50 -->
      <g transform="translate(37.875 129.133562)scale(0.1 -0.1)">
       <defs>
        <path d="M 10.796875 72.90625 
L 49.515625 72.90625 
L 49.515625 64.59375 
L 19.828125 64.59375 
L 19.828125 46.734375 
Q 21.96875 47.46875 24.109375 47.828125 
Q 26.265625 48.1875 28.421875 48.1875 
Q 40.625 48.1875 47.75 41.5 
Q 54.890625 34.8125 54.890625 23.390625 
Q 54.890625 11.625 47.5625 5.09375 
Q 40.234375 -1.421875 26.90625 -1.421875 
Q 22.3125 -1.421875 17.546875 -0.640625 
Q 12.796875 0.140625 7.71875 1.703125 
L 7.71875 11.625 
Q 12.109375 9.234375 16.796875 8.0625 
Q 21.484375 6.890625 26.703125 6.890625 
Q 35.15625 6.890625 40.078125 11.328125 
Q 45.015625 15.765625 45.015625 23.390625 
Q 45.015625 31 40.078125 35.4375 
Q 35.15625 39.890625 26.703125 39.890625 
Q 22.75 39.890625 18.8125 39.015625 
Q 14.890625 38.140625 10.796875 36.28125 
z
" id="DejaVuSans-53"/>
       </defs>
       <use xlink:href="#DejaVuSans-53"/>
       <use x="63.623047" xlink:href="#DejaVuSans-48"/>
      </g>
     </g>
    </g>
    <g id="ytick_7">
     <g id="line2d_12">
      <g>
       <use style="stroke:#000000;stroke-width:0.8;" x="57.6" xlink:href="#mfaba670ec2" y="90.059384"/>
      </g>
     </g>
     <g id="text_12">
      <!-- 60 -->
      <g transform="translate(37.875 93.858603)scale(0.1 -0.1)">
       <use xlink:href="#DejaVuSans-54"/>
       <use x="63.623047" xlink:href="#DejaVuSans-48"/>
      </g>
     </g>
    </g>
    <g id="ytick_8">
     <g id="line2d_13">
      <g>
       <use style="stroke:#000000;stroke-width:0.8;" x="57.6" xlink:href="#mfaba670ec2" y="54.784425"/>
      </g>
     </g>
     <g id="text_13">
      <!-- 70 -->
      <g transform="translate(37.875 58.583644)scale(0.1 -0.1)">
       <defs>
        <path d="M 8.203125 72.90625 
L 55.078125 72.90625 
L 55.078125 68.703125 
L 28.609375 0 
L 18.3125 0 
L 43.21875 64.59375 
L 8.203125 64.59375 
z
" id="DejaVuSans-55"/>
       </defs>
       <use xlink:href="#DejaVuSans-55"/>
       <use x="63.623047" xlink:href="#DejaVuSans-48"/>
      </g>
     </g>
    </g>
   </g>
   <g id="line2d_14">
    <path clip-path="url(#p46e248a69e)" d="M 260.199543 191.510166 
L 259.381164 194.92831 
L 258.785018 198.406421 
L 258.407576 201.933917 
L 258.248838 205.49316 
L 258.298223 209.070041 
L 258.55573 212.653977 
L 259.017832 216.22733 
L 259.677474 219.779518 
L 260.538183 223.292904 
L 261.589377 226.756905 
L 262.831055 230.157411 
L 264.259691 233.480312 
L 265.871757 236.711499 
L 267.660197 239.833332 
L 269.625012 242.838759 
L 271.762675 245.706613 
L 274.06613 248.42984 
L 276.535377 250.987275 
L 279.163361 253.371862 
L 281.950083 255.565964 
L 284.88496 257.558999 
L 287.960936 259.34744 
L 291.15332 260.934813 
L 294.451529 262.321119 
L 297.837925 263.506357 
L 301.294871 264.490529 
L 304.808256 265.273633 
L 308.356917 265.859197 
L 311.930271 266.247222 
L 315.507152 266.434179 
L 319.076977 266.427124 
L 322.629166 266.226057 
L 326.160189 265.838032 
L 329.662993 265.266578 
L 333.134049 264.518749 
L 336.56983 263.6016 
L 339.963281 262.515131 
L 343.307347 261.266398 
L 346.5985 259.862454 
L 349.833214 258.303301 
L 353.004433 256.59952 
L 356.094519 254.751113 
L 359.092891 252.758077 
L 361.985437 250.623942 
L 364.750994 248.34518 
L 367.382506 245.932373 
L 369.862336 243.378466 
L 372.172846 240.690514 
L 374.303453 237.868517 
L 376.236521 234.912476 
L 377.957939 231.825917 
L 379.471235 228.622951 
L 380.779936 225.317687 
L 381.880514 221.927763 
L 382.776498 218.463762 
L 383.474942 214.939794 
L 383.972319 211.373496 
L 384.272156 207.782505 
L 384.381509 204.173877 
L 384.293321 200.568776 
L 384.018177 196.977785 
L 383.552547 193.415014 
L 382.903488 189.883991 
L 382.070999 186.402352 
L 381.05508 182.973626 
L 379.866314 179.61545 
L 378.497646 176.327824 
L 376.959657 173.128385 
L 375.252349 170.024189 
L 373.372194 167.025817 
L 371.333302 164.143853 
L 369.139199 161.371241 
L 366.800469 158.715037 
L 364.33475 156.168185 
L 361.745568 153.730685 
L 359.050561 151.402538 
L 356.260312 149.176688 
L 353.385402 147.060191 
L 350.436416 145.04599 
L 344.362068 141.320955 
L 338.097235 137.983944 
L 331.66661 135.024375 
L 325.098413 132.42461 
L 318.413808 130.159958 
L 311.641016 128.216307 
L 304.801202 126.526637 
L 280.722515 120.974358 
L 273.91092 119.034236 
L 267.187513 116.801331 
L 260.591095 114.240369 
L 254.153415 111.326657 
L 251.006889 109.721647 
L 247.913275 108.017866 
L 241.884785 104.328105 
L 227.090467 94.652184 
L 224.063876 92.856689 
L 220.977317 91.163491 
L 217.823735 89.607865 
L 214.589022 88.207449 
L 211.28023 86.969298 
L 207.904417 85.886357 
L 204.472163 84.962153 
L 200.994052 84.193159 
L 197.480666 83.575847 
L 193.939061 83.110217 
L 190.379817 82.79627 
L 186.813519 82.630478 
L 183.250748 82.612841 
L 179.69856 82.73983 
L 176.160481 83.011448 
L 172.636513 83.41711 
L 169.137237 83.956817 
L 165.659126 84.627041 
L 162.205708 85.424255 
L 158.784037 86.337876 
L 155.390585 87.371433 
L 152.032409 88.517869 
L 148.709508 89.773657 
L 145.428937 91.135271 
L 142.190696 92.602709 
L 139.005367 94.175972 
L 135.876478 95.85506 
L 132.811084 97.643501 
L 129.81624 99.537766 
L 126.895474 101.544911 
L 124.055839 103.661409 
L 121.304393 105.890786 
L 118.648188 108.229516 
L 116.090754 110.681125 
L 113.632089 113.242087 
L 111.279249 115.898292 
L 109.035762 118.653266 
L 106.901627 121.496428 
L 104.880372 124.417194 
L 102.971997 127.419093 
L 101.183556 130.488015 
L 99.515051 133.620431 
L 97.970007 136.809287 
L 96.551954 140.051056 
L 95.253836 143.34221 
L 94.079179 146.675693 
L 93.013876 150.04798 
L 91.221908 156.894849 
L 89.849712 163.854598 
L 88.869068 170.891953 
L 88.251756 177.975165 
L 87.966029 185.079541 
L 87.990721 192.162753 
L 88.290559 199.203635 
L 88.840848 206.166912 
L 88.840848 206.166912 
" style="fill:none;stroke:#fea952;stroke-linecap:square;"/>
   </g>
   <g id="line2d_15">
    <path clip-path="url(#p46e248a69e)" d="M 273.92171 194.795556 
L 273.288345 197.311995 
L 272.814916 199.90762 
L 272.503547 202.562577 
L 272.357477 205.298366 
L 272.371926 208.05884 
L 272.54919 210.844358 
L 272.890645 213.651147 
L 273.382204 216.422135 
L 274.040162 219.195562 
L 274.843412 221.917258 
L 275.793762 224.584273 
L 276.885553 227.181165 
L 278.114984 229.697582 
L 279.470313 232.1124 
L 280.937997 234.406202 
L 282.535631 236.594256 
L 284.216873 238.629123 
L 286.017001 240.537852 
L 287.891965 242.285694 
L 289.876975 243.893089 
L 291.977169 245.360959 
L 294.243176 246.713157 
L 296.620711 247.927151 
L 299.112768 249.003293 
L 301.701431 249.935618 
L 304.36454 250.7185 
L 307.105479 251.351909 
L 309.880143 251.831674 
L 312.666769 252.156473 
L 315.479266 252.324223 
L 318.279575 252.33969 
L 321.087896 252.200504 
L 323.888293 251.912153 
L 326.691225 251.473093 
L 329.494948 250.886119 
L 332.267422 250.16356 
L 335.027276 249.296678 
L 337.770985 248.287941 
L 340.471952 247.151945 
L 343.155219 245.873658 
L 345.761175 244.490563 
L 348.283667 243.000273 
L 350.715779 241.403975 
L 353.012698 239.734426 
L 355.215268 237.945105 
L 357.25951 236.102999 
L 359.162134 234.180786 
L 360.911942 232.188532 
L 362.494322 230.146078 
L 363.913486 228.039743 
L 365.200211 225.798312 
L 366.352178 223.428532 
L 367.359527 220.960593 
L 368.220094 218.394416 
L 368.935746 215.72055 
L 369.500214 212.990796 
L 369.911266 210.199439 
L 370.168647 207.355126 
L 370.275745 204.518929 
L 370.224574 201.646735 
L 370.027175 198.806312 
L 369.675065 195.96592 
L 369.180348 193.165309 
L 368.542373 190.410834 
L 367.753893 187.682135 
L 366.84006 185.038397 
L 365.780673 182.440944 
L 364.596265 179.928251 
L 363.298182 177.520155 
L 361.853394 175.174981 
L 360.268715 172.899798 
L 358.549155 170.695543 
L 356.663042 168.529527 
L 354.662955 166.441842 
L 352.521547 164.408188 
L 350.251438 162.432818 
L 347.895039 160.539516 
L 342.875559 156.959222 
L 337.541782 153.673094 
L 332.024332 150.720171 
L 326.297781 148.073026 
L 320.404538 145.730969 
L 314.373593 143.67914 
L 308.165683 141.891603 
L 301.665585 140.2838 
L 276.996848 134.583585 
L 269.609519 132.472598 
L 262.251664 130.019842 
L 254.959929 127.177973 
L 251.34541 125.598263 
L 247.741987 123.895875 
L 244.199992 122.081168 
L 240.695255 120.141884 
L 234.158935 116.135005 
L 219.891349 106.787436 
L 214.735173 103.817632 
L 212.21786 102.556448 
L 209.64394 101.422509 
L 206.970172 100.404886 
L 204.235693 99.511044 
L 201.426075 98.739416 
L 198.552292 98.090261 
L 195.641397 97.56544 
L 192.699287 97.165629 
L 189.724571 96.891031 
L 186.743668 96.740289 
L 183.754854 96.713816 
L 180.778601 96.808418 
L 177.774097 97.028861 
L 174.787319 97.362204 
L 171.807082 97.811908 
L 168.832916 98.375448 
L 162.895114 99.835679 
L 157.02052 101.716747 
L 151.252919 103.987231 
L 145.677348 106.608844 
L 140.353642 109.568326 
L 137.807568 111.166623 
L 135.327697 112.858144 
L 132.938667 114.624392 
L 130.628694 116.48083 
L 128.412487 118.415295 
L 126.269237 120.45303 
L 124.194258 122.597953 
L 122.220343 124.808068 
L 120.320388 127.123736 
L 118.504258 129.525785 
L 116.787877 131.987066 
L 115.162951 134.523477 
L 113.637034 137.121455 
L 112.213083 139.772797 
L 110.897295 142.464097 
L 108.561752 148.031666 
L 106.606676 153.833138 
L 105.023392 159.829244 
L 103.797881 165.985374 
L 102.909442 172.291791 
L 102.342965 178.702814 
L 102.07567 185.177817 
L 102.093044 191.697841 
L 102.365403 198.208444 
L 102.897249 204.938405 
L 102.897249 204.938405 
" style="fill:none;stroke:#ffffff;stroke-linecap:square;"/>
   </g>
   <g id="line2d_16">
    <path clip-path="url(#p46e248a69e)" d="M 246.477377 188.224777 
L 245.473983 192.544625 
L 244.75512 196.905222 
L 244.311604 201.305256 
L 244.140199 205.687954 
L 244.22452 210.081242 
L 244.562271 214.463595 
L 245.14502 218.803513 
L 245.972744 223.136902 
L 247.036204 227.390246 
L 248.335342 231.596553 
L 249.868349 235.73055 
L 251.63383 239.77946 
L 253.62853 243.725415 
L 255.850081 247.554265 
L 258.312028 251.271316 
L 260.989719 254.818971 
L 263.915387 258.230557 
L 267.053753 261.436698 
L 270.434758 264.45803 
L 274.023191 267.238839 
L 277.79275 269.75704 
L 281.678696 271.981722 
L 285.685928 273.942475 
L 289.790289 275.638945 
L 293.974418 277.077096 
L 298.225202 278.262557 
L 302.511034 279.195357 
L 306.833692 279.886721 
L 311.193772 280.337971 
L 315.535037 280.544135 
L 319.874379 280.514558 
L 324.170435 280.251609 
L 328.432085 279.763912 
L 332.63476 279.060063 
L 336.773149 278.151378 
L 340.872237 277.03964 
L 344.899285 275.733584 
L 348.843709 274.244854 
L 352.725049 272.572963 
L 356.511209 270.732944 
L 360.247691 268.708478 
L 363.905371 266.501952 
L 367.470003 264.112179 
L 370.958177 261.513459 
L 374.28672 258.745255 
L 377.505502 255.761746 
L 380.562538 252.576146 
L 383.433749 249.192496 
L 386.112584 245.590956 
L 388.559556 241.785208 
L 390.715667 237.853522 
L 392.590291 233.817369 
L 394.200344 229.674781 
L 395.540935 225.46111 
L 396.61725 221.206975 
L 397.449671 216.888792 
L 398.033373 212.547552 
L 398.375666 208.209884 
L 398.487273 203.828824 
L 398.362068 199.490817 
L 398.009178 195.149258 
L 397.43003 190.864108 
L 396.626629 186.602672 
L 395.599625 182.393871 
L 394.356268 178.265118 
L 392.892568 174.192503 
L 391.214618 170.214704 
L 389.32305 166.32852 
L 387.206517 162.528222 
L 384.890995 158.876654 
L 382.397888 155.387908 
L 379.729243 152.04694 
L 376.937896 148.900547 
L 374.006544 145.894528 
L 370.969589 143.053182 
L 367.849684 140.372258 
L 364.625584 137.81386 
L 361.343587 135.408627 
L 357.997272 133.132759 
L 354.613403 130.993117 
L 351.182353 128.968816 
L 347.695422 127.050826 
L 344.170138 125.247716 
L 337.03544 121.975723 
L 329.792287 119.118251 
L 322.454024 116.640775 
L 315.116349 114.541012 
L 307.936818 112.769473 
L 284.448181 107.365132 
L 278.212321 105.595873 
L 272.123361 103.58282 
L 266.222262 101.302764 
L 260.564844 98.75744 
L 255.131295 95.893848 
L 249.610635 92.521206 
L 234.289585 82.516932 
L 230.850169 80.485841 
L 227.21946 78.50935 
L 223.42961 76.659282 
L 219.534103 74.992389 
L 215.590289 73.53371 
L 211.57314 72.261669 
L 207.518252 71.18489 
L 203.435812 70.296057 
L 199.319936 69.586253 
L 195.178834 69.054806 
L 191.035063 68.701509 
L 186.883369 68.520667 
L 182.746642 68.511865 
L 178.618519 68.671243 
L 174.546865 68.994034 
L 170.485707 69.472015 
L 166.467392 70.101725 
L 162.485336 70.878634 
L 158.565718 71.791863 
L 154.672959 72.840073 
L 150.83195 74.018138 
L 147.044298 75.318991 
L 143.300507 76.741607 
L 139.604955 78.283311 
L 135.942239 79.951685 
L 132.333386 81.7431 
L 128.765994 83.667663 
L 125.268527 85.718675 
L 121.824912 87.908909 
L 118.46325 90.231678 
L 115.173012 92.698425 
L 111.980091 95.300742 
L 108.883889 98.043736 
L 105.912271 100.909221 
L 103.06992 103.886222 
L 100.338156 106.988515 
L 97.751136 110.182796 
L 95.298995 113.46707 
L 92.972866 116.847323 
L 90.781042 120.31471 
L 88.730078 123.854575 
L 86.817018 127.468066 
L 85.04272 131.154478 
L 83.426089 134.873866 
L 81.945919 138.652754 
L 80.624569 142.425388 
L 79.421076 146.262821 
L 78.360719 150.09624 
L 77.420424 153.960454 
L 76.602273 157.838307 
L 75.314238 165.600546 
L 74.445462 173.379967 
L 73.96419 181.121176 
L 73.832727 188.821604 
L 74.016375 196.430178 
L 74.481082 203.924362 
L 74.784447 207.395418 
L 74.784447 207.395418 
" style="fill:none;stroke:#ffffff;stroke-linecap:square;"/>
   </g>
   <g id="patch_3">
    <path d="M 57.6 307.584 
L 57.6 41.472 
" style="fill:none;stroke:#000000;stroke-linecap:square;stroke-linejoin:miter;stroke-width:0.8;"/>
   </g>
   <g id="patch_4">
    <path d="M 414.72 307.584 
L 414.72 41.472 
" style="fill:none;stroke:#000000;stroke-linecap:square;stroke-linejoin:miter;stroke-width:0.8;"/>
   </g>
   <g id="patch_5">
    <path d="M 57.6 307.584 
L 414.72 307.584 
" style="fill:none;stroke:#000000;stroke-linecap:square;stroke-linejoin:miter;stroke-width:0.8;"/>
   </g>
   <g id="patch_6">
    <path d="M 57.6 41.472 
L 414.72 41.472 
" style="fill:none;stroke:#000000;stroke-linecap:square;stroke-linejoin:miter;stroke-width:0.8;"/>
   </g>
  </g>
 </g>
 <defs>
  <clipPath id="p46e248a69e">
   <rect height="266.112" width="357.12" x="57.6" y="41.472"/>
  </clipPath>
 </defs>
</svg>
