<?xml version="1.0" encoding="utf-8" standalone="no"?>
<!DOCTYPE svg PUBLIC "-//W3C//DTD SVG 1.1//EN"
  "http://www.w3.org/Graphics/SVG/1.1/DTD/svg11.dtd">
<!-- Created with matplotlib (https://matplotlib.org/) -->
<svg height="345.6pt" version="1.1" viewBox="0 0 460.8 345.6" width="460.8pt" xmlns="http://www.w3.org/2000/svg" xmlns:xlink="http://www.w3.org/1999/xlink">
 <metadata>
  <rdf:RDF xmlns:cc="http://creativecommons.org/ns#" xmlns:dc="http://purl.org/dc/elements/1.1/" xmlns:rdf="http://www.w3.org/1999/02/22-rdf-syntax-ns#">
   <cc:Work>
    <dc:type rdf:resource="http://purl.org/dc/dcmitype/StillImage"/>
    <dc:date>2021-01-22T11:51:11.735504</dc:date>
    <dc:format>image/svg+xml</dc:format>
    <dc:creator>
     <cc:Agent>
      <dc:title>Matplotlib v3.3.3, https://matplotlib.org/</dc:title>
     </cc:Agent>
    </dc:creator>
   </cc:Work>
  </rdf:RDF>
 </metadata>
 <defs>
  <style type="text/css">*{stroke-linecap:butt;stroke-linejoin:round;}</style>
 </defs>
 <g id="figure_1">
  <g id="patch_1">
   <path d="M 0 345.6 
L 460.8 345.6 
L 460.8 0 
L 0 0 
z
" style="fill:#ffffff;"/>
  </g>
  <g id="axes_1">
   <g id="patch_2">
    <path d="M 57.6 307.584 
L 414.72 307.584 
L 414.72 41.472 
L 57.6 41.472 
z
" style="fill:#7d9051;"/>
   </g>
   <g id="matplotlib.axis_1">
    <g id="xtick_1">
     <g id="line2d_1">
      <defs>
       <path d="M 0 0 
L 0 3.5 
" id="m9a3bfbda31" style="stroke:#000000;stroke-width:0.8;"/>
      </defs>
      <g>
       <use style="stroke:#000000;stroke-width:0.8;" x="100.567938" xlink:href="#m9a3bfbda31" y="307.584"/>
      </g>
     </g>
     <g id="text_1">
      <!-- 20 -->
      <g transform="translate(94.205438 322.182437)scale(0.1 -0.1)">
       <defs>
        <path d="M 19.1875 8.296875 
L 53.609375 8.296875 
L 53.609375 0 
L 7.328125 0 
L 7.328125 8.296875 
Q 12.9375 14.109375 22.625 23.890625 
Q 32.328125 33.6875 34.8125 36.53125 
Q 39.546875 41.84375 41.421875 45.53125 
Q 43.3125 49.21875 43.3125 52.78125 
Q 43.3125 58.59375 39.234375 62.25 
Q 35.15625 65.921875 28.609375 65.921875 
Q 23.96875 65.921875 18.8125 64.3125 
Q 13.671875 62.703125 7.8125 59.421875 
L 7.8125 69.390625 
Q 13.765625 71.78125 18.9375 73 
Q 24.125 74.21875 28.421875 74.21875 
Q 39.75 74.21875 46.484375 68.546875 
Q 53.21875 62.890625 53.21875 53.421875 
Q 53.21875 48.921875 51.53125 44.890625 
Q 49.859375 40.875 45.40625 35.40625 
Q 44.1875 33.984375 37.640625 27.21875 
Q 31.109375 20.453125 19.1875 8.296875 
z
" id="DejaVuSans-50"/>
        <path d="M 31.78125 66.40625 
Q 24.171875 66.40625 20.328125 58.90625 
Q 16.5 51.421875 16.5 36.375 
Q 16.5 21.390625 20.328125 13.890625 
Q 24.171875 6.390625 31.78125 6.390625 
Q 39.453125 6.390625 43.28125 13.890625 
Q 47.125 21.390625 47.125 36.375 
Q 47.125 51.421875 43.28125 58.90625 
Q 39.453125 66.40625 31.78125 66.40625 
z
M 31.78125 74.21875 
Q 44.046875 74.21875 50.515625 64.515625 
Q 56.984375 54.828125 56.984375 36.375 
Q 56.984375 17.96875 50.515625 8.265625 
Q 44.046875 -1.421875 31.78125 -1.421875 
Q 19.53125 -1.421875 13.0625 8.265625 
Q 6.59375 17.96875 6.59375 36.375 
Q 6.59375 54.828125 13.0625 64.515625 
Q 19.53125 74.21875 31.78125 74.21875 
z
" id="DejaVuSans-48"/>
       </defs>
       <use xlink:href="#DejaVuSans-50"/>
       <use x="63.623047" xlink:href="#DejaVuSans-48"/>
      </g>
     </g>
    </g>
    <g id="xtick_2">
     <g id="line2d_2">
      <g>
       <use style="stroke:#000000;stroke-width:0.8;" x="143.996463" xlink:href="#m9a3bfbda31" y="307.584"/>
      </g>
     </g>
     <g id="text_2">
      <!-- 40 -->
      <g transform="translate(137.633963 322.182437)scale(0.1 -0.1)">
       <defs>
        <path d="M 37.796875 64.3125 
L 12.890625 25.390625 
L 37.796875 25.390625 
z
M 35.203125 72.90625 
L 47.609375 72.90625 
L 47.609375 25.390625 
L 58.015625 25.390625 
L 58.015625 17.1875 
L 47.609375 17.1875 
L 47.609375 0 
L 37.796875 0 
L 37.796875 17.1875 
L 4.890625 17.1875 
L 4.890625 26.703125 
z
" id="DejaVuSans-52"/>
       </defs>
       <use xlink:href="#DejaVuSans-52"/>
       <use x="63.623047" xlink:href="#DejaVuSans-48"/>
      </g>
     </g>
    </g>
    <g id="xtick_3">
     <g id="line2d_3">
      <g>
       <use style="stroke:#000000;stroke-width:0.8;" x="187.424987" xlink:href="#m9a3bfbda31" y="307.584"/>
      </g>
     </g>
     <g id="text_3">
      <!-- 60 -->
      <g transform="translate(181.062487 322.182437)scale(0.1 -0.1)">
       <defs>
        <path d="M 33.015625 40.375 
Q 26.375 40.375 22.484375 35.828125 
Q 18.609375 31.296875 18.609375 23.390625 
Q 18.609375 15.53125 22.484375 10.953125 
Q 26.375 6.390625 33.015625 6.390625 
Q 39.65625 6.390625 43.53125 10.953125 
Q 47.40625 15.53125 47.40625 23.390625 
Q 47.40625 31.296875 43.53125 35.828125 
Q 39.65625 40.375 33.015625 40.375 
z
M 52.59375 71.296875 
L 52.59375 62.3125 
Q 48.875 64.0625 45.09375 64.984375 
Q 41.3125 65.921875 37.59375 65.921875 
Q 27.828125 65.921875 22.671875 59.328125 
Q 17.53125 52.734375 16.796875 39.40625 
Q 19.671875 43.65625 24.015625 45.921875 
Q 28.375 48.1875 33.59375 48.1875 
Q 44.578125 48.1875 50.953125 41.515625 
Q 57.328125 34.859375 57.328125 23.390625 
Q 57.328125 12.15625 50.6875 5.359375 
Q 44.046875 -1.421875 33.015625 -1.421875 
Q 20.359375 -1.421875 13.671875 8.265625 
Q 6.984375 17.96875 6.984375 36.375 
Q 6.984375 53.65625 15.1875 63.9375 
Q 23.390625 74.21875 37.203125 74.21875 
Q 40.921875 74.21875 44.703125 73.484375 
Q 48.484375 72.75 52.59375 71.296875 
z
" id="DejaVuSans-54"/>
       </defs>
       <use xlink:href="#DejaVuSans-54"/>
       <use x="63.623047" xlink:href="#DejaVuSans-48"/>
      </g>
     </g>
    </g>
    <g id="xtick_4">
     <g id="line2d_4">
      <g>
       <use style="stroke:#000000;stroke-width:0.8;" x="230.853512" xlink:href="#m9a3bfbda31" y="307.584"/>
      </g>
     </g>
     <g id="text_4">
      <!-- 80 -->
      <g transform="translate(224.491012 322.182437)scale(0.1 -0.1)">
       <defs>
        <path d="M 31.78125 34.625 
Q 24.75 34.625 20.71875 30.859375 
Q 16.703125 27.09375 16.703125 20.515625 
Q 16.703125 13.921875 20.71875 10.15625 
Q 24.75 6.390625 31.78125 6.390625 
Q 38.8125 6.390625 42.859375 10.171875 
Q 46.921875 13.96875 46.921875 20.515625 
Q 46.921875 27.09375 42.890625 30.859375 
Q 38.875 34.625 31.78125 34.625 
z
M 21.921875 38.8125 
Q 15.578125 40.375 12.03125 44.71875 
Q 8.5 49.078125 8.5 55.328125 
Q 8.5 64.0625 14.71875 69.140625 
Q 20.953125 74.21875 31.78125 74.21875 
Q 42.671875 74.21875 48.875 69.140625 
Q 55.078125 64.0625 55.078125 55.328125 
Q 55.078125 49.078125 51.53125 44.71875 
Q 48 40.375 41.703125 38.8125 
Q 48.828125 37.15625 52.796875 32.3125 
Q 56.78125 27.484375 56.78125 20.515625 
Q 56.78125 9.90625 50.3125 4.234375 
Q 43.84375 -1.421875 31.78125 -1.421875 
Q 19.734375 -1.421875 13.25 4.234375 
Q 6.78125 9.90625 6.78125 20.515625 
Q 6.78125 27.484375 10.78125 32.3125 
Q 14.796875 37.15625 21.921875 38.8125 
z
M 18.3125 54.390625 
Q 18.3125 48.734375 21.84375 45.5625 
Q 25.390625 42.390625 31.78125 42.390625 
Q 38.140625 42.390625 41.71875 45.5625 
Q 45.3125 48.734375 45.3125 54.390625 
Q 45.3125 60.0625 41.71875 63.234375 
Q 38.140625 66.40625 31.78125 66.40625 
Q 25.390625 66.40625 21.84375 63.234375 
Q 18.3125 60.0625 18.3125 54.390625 
z
" id="DejaVuSans-56"/>
       </defs>
       <use xlink:href="#DejaVuSans-56"/>
       <use x="63.623047" xlink:href="#DejaVuSans-48"/>
      </g>
     </g>
    </g>
    <g id="xtick_5">
     <g id="line2d_5">
      <g>
       <use style="stroke:#000000;stroke-width:0.8;" x="274.282036" xlink:href="#m9a3bfbda31" y="307.584"/>
      </g>
     </g>
     <g id="text_5">
      <!-- 100 -->
      <g transform="translate(264.738286 322.182437)scale(0.1 -0.1)">
       <defs>
        <path d="M 12.40625 8.296875 
L 28.515625 8.296875 
L 28.515625 63.921875 
L 10.984375 60.40625 
L 10.984375 69.390625 
L 28.421875 72.90625 
L 38.28125 72.90625 
L 38.28125 8.296875 
L 54.390625 8.296875 
L 54.390625 0 
L 12.40625 0 
z
" id="DejaVuSans-49"/>
       </defs>
       <use xlink:href="#DejaVuSans-49"/>
       <use x="63.623047" xlink:href="#DejaVuSans-48"/>
       <use x="127.246094" xlink:href="#DejaVuSans-48"/>
      </g>
     </g>
    </g>
    <g id="xtick_6">
     <g id="line2d_6">
      <g>
       <use style="stroke:#000000;stroke-width:0.8;" x="317.710561" xlink:href="#m9a3bfbda31" y="307.584"/>
      </g>
     </g>
     <g id="text_6">
      <!-- 120 -->
      <g transform="translate(308.166811 322.182437)scale(0.1 -0.1)">
       <use xlink:href="#DejaVuSans-49"/>
       <use x="63.623047" xlink:href="#DejaVuSans-50"/>
       <use x="127.246094" xlink:href="#DejaVuSans-48"/>
      </g>
     </g>
    </g>
    <g id="xtick_7">
     <g id="line2d_7">
      <g>
       <use style="stroke:#000000;stroke-width:0.8;" x="361.139086" xlink:href="#m9a3bfbda31" y="307.584"/>
      </g>
     </g>
     <g id="text_7">
      <!-- 140 -->
      <g transform="translate(351.595336 322.182437)scale(0.1 -0.1)">
       <use xlink:href="#DejaVuSans-49"/>
       <use x="63.623047" xlink:href="#DejaVuSans-52"/>
       <use x="127.246094" xlink:href="#DejaVuSans-48"/>
      </g>
     </g>
    </g>
    <g id="xtick_8">
     <g id="line2d_8">
      <g>
       <use style="stroke:#000000;stroke-width:0.8;" x="404.56761" xlink:href="#m9a3bfbda31" y="307.584"/>
      </g>
     </g>
     <g id="text_8">
      <!-- 160 -->
      <g transform="translate(395.02386 322.182437)scale(0.1 -0.1)">
       <use xlink:href="#DejaVuSans-49"/>
       <use x="63.623047" xlink:href="#DejaVuSans-54"/>
       <use x="127.246094" xlink:href="#DejaVuSans-48"/>
      </g>
     </g>
    </g>
   </g>
   <g id="matplotlib.axis_2">
    <g id="ytick_1">
     <g id="line2d_9">
      <defs>
       <path d="M 0 0 
L -3.5 0 
" id="m927d0332e1" style="stroke:#000000;stroke-width:0.8;"/>
      </defs>
      <g>
       <use style="stroke:#000000;stroke-width:0.8;" x="57.6" xlink:href="#m927d0332e1" y="297.570273"/>
      </g>
     </g>
     <g id="text_9">
      <!-- −20 -->
      <g transform="translate(29.495313 301.369492)scale(0.1 -0.1)">
       <defs>
        <path d="M 10.59375 35.5 
L 73.1875 35.5 
L 73.1875 27.203125 
L 10.59375 27.203125 
z
" id="DejaVuSans-8722"/>
       </defs>
       <use xlink:href="#DejaVuSans-8722"/>
       <use x="83.789062" xlink:href="#DejaVuSans-50"/>
       <use x="147.412109" xlink:href="#DejaVuSans-48"/>
      </g>
     </g>
    </g>
    <g id="ytick_2">
     <g id="line2d_10">
      <g>
       <use style="stroke:#000000;stroke-width:0.8;" x="57.6" xlink:href="#m927d0332e1" y="254.141749"/>
      </g>
     </g>
     <g id="text_10">
      <!-- 0 -->
      <g transform="translate(44.2375 257.940967)scale(0.1 -0.1)">
       <use xlink:href="#DejaVuSans-48"/>
      </g>
     </g>
    </g>
    <g id="ytick_3">
     <g id="line2d_11">
      <g>
       <use style="stroke:#000000;stroke-width:0.8;" x="57.6" xlink:href="#m927d0332e1" y="210.713224"/>
      </g>
     </g>
     <g id="text_11">
      <!-- 20 -->
      <g transform="translate(37.875 214.512443)scale(0.1 -0.1)">
       <use xlink:href="#DejaVuSans-50"/>
       <use x="63.623047" xlink:href="#DejaVuSans-48"/>
      </g>
     </g>
    </g>
    <g id="ytick_4">
     <g id="line2d_12">
      <g>
       <use style="stroke:#000000;stroke-width:0.8;" x="57.6" xlink:href="#m927d0332e1" y="167.284699"/>
      </g>
     </g>
     <g id="text_12">
      <!-- 40 -->
      <g transform="translate(37.875 171.083918)scale(0.1 -0.1)">
       <use xlink:href="#DejaVuSans-52"/>
       <use x="63.623047" xlink:href="#DejaVuSans-48"/>
      </g>
     </g>
    </g>
    <g id="ytick_5">
     <g id="line2d_13">
      <g>
       <use style="stroke:#000000;stroke-width:0.8;" x="57.6" xlink:href="#m927d0332e1" y="123.856175"/>
      </g>
     </g>
     <g id="text_13">
      <!-- 60 -->
      <g transform="translate(37.875 127.655394)scale(0.1 -0.1)">
       <use xlink:href="#DejaVuSans-54"/>
       <use x="63.623047" xlink:href="#DejaVuSans-48"/>
      </g>
     </g>
    </g>
    <g id="ytick_6">
     <g id="line2d_14">
      <g>
       <use style="stroke:#000000;stroke-width:0.8;" x="57.6" xlink:href="#m927d0332e1" y="80.42765"/>
      </g>
     </g>
     <g id="text_14">
      <!-- 80 -->
      <g transform="translate(37.875 84.226869)scale(0.1 -0.1)">
       <use xlink:href="#DejaVuSans-56"/>
       <use x="63.623047" xlink:href="#DejaVuSans-48"/>
      </g>
     </g>
    </g>
   </g>
   <g id="line2d_15">
    <path clip-path="url(#p38e2daf174)" d="M 388.894256 232.427486 
L 389.510941 228.01732 
L 389.78454 223.644067 
L 389.751969 219.305558 
L 389.450141 214.995277 
L 388.911627 210.713224 
L 388.173342 206.452886 
L 386.770601 200.099293 
L 385.115974 193.778271 
L 382.707862 185.38788 
L 381.394149 181.233942 
L 379.915408 177.145146 
L 378.208667 173.154065 
L 376.200098 169.286754 
L 373.837586 165.582301 
L 371.131989 162.097162 
L 369.655419 160.455564 
L 368.10285 158.89648 
L 366.476451 157.422081 
L 364.778396 156.043226 
L 363.013026 154.768599 
L 361.180343 153.604714 
L 359.28903 152.555915 
L 355.343549 150.777517 
L 351.230868 149.353062 
L 347.000929 148.197863 
L 340.562651 146.797293 
L 331.992031 145.199123 
L 319.169759 143.066783 
L 310.577426 141.759584 
L 304.095719 141.034328 
L 299.757209 140.771585 
L 295.403499 140.747699 
L 291.045447 140.988728 
L 286.706937 141.501184 
L 282.416199 142.291584 
L 278.192775 143.359925 
L 274.064894 144.714895 
L 270.036898 146.332608 
L 266.09576 148.167463 
L 262.230621 150.176032 
L 256.545827 153.411457 
L 237.852019 164.457502 
L 233.98688 166.440015 
L 230.047913 168.281384 
L 226.032946 169.957725 
L 221.941979 171.449495 
L 217.777183 172.737151 
L 213.540731 173.798978 
L 209.245649 174.60892 
L 204.913654 175.14092 
L 200.562116 175.364576 
L 196.210578 175.253834 
L 191.878582 174.79132 
L 187.587844 173.987892 
L 183.362249 172.865265 
L 179.227853 171.447323 
L 175.2042 169.753611 
L 171.310833 167.808013 
L 167.543409 165.64093 
L 163.89107 163.278418 
L 160.342959 160.753049 
L 155.190165 156.720711 
L 145.075662 148.464948 
L 141.573151 145.92438 
L 137.914298 143.611811 
L 134.092588 141.55547 
L 130.131906 139.742329 
L 126.060482 138.157188 
L 121.908715 136.784847 
L 117.702663 135.610105 
L 111.340384 134.113992 
L 100.759024 131.757995 
L 96.587714 130.661425 
L 92.477204 129.371597 
L 88.449208 127.821199 
L 84.521098 125.940744 
L 80.708074 123.656404 
L 78.853676 122.342691 
L 78.853676 122.342691 
" style="fill:none;stroke:#fea952;stroke-linecap:square;"/>
   </g>
   <g id="line2d_16">
    <path clip-path="url(#p38e2daf174)" d="M 380.317796 231.054242 
L 380.853089 227.322289 
L 381.099187 223.565977 
L 381.07953 219.785421 
L 380.818847 215.965969 
L 380.337585 212.101485 
L 379.662392 208.186436 
L 378.346787 202.21609 
L 376.749623 196.11186 
L 374.405314 187.939184 
L 372.548856 182.234281 
L 371.164691 178.680286 
L 369.624888 175.367174 
L 367.852027 172.250327 
L 365.792272 169.29439 
L 363.500854 166.584414 
L 361.001258 164.164761 
L 358.356632 162.100683 
L 355.523657 160.383011 
L 352.340452 158.92754 
L 348.827661 157.699682 
L 345.025923 156.656043 
L 338.890745 155.320567 
L 330.504914 153.756573 
L 317.796823 151.643292 
L 309.467006 150.374016 
L 303.470719 149.697517 
L 299.583876 149.45556 
L 295.749269 149.426519 
L 291.925944 149.629688 
L 288.141867 150.06754 
L 284.406532 150.746171 
L 280.761751 151.657023 
L 277.176473 152.824121 
L 273.602287 154.252802 
L 270.028559 155.911787 
L 266.433345 157.777255 
L 260.998015 160.869305 
L 241.881597 172.151914 
L 237.742352 174.271866 
L 233.481934 176.259414 
L 229.110232 178.080027 
L 224.618382 179.712565 
L 220.005487 181.132157 
L 215.282253 182.3083 
L 210.446176 183.211257 
L 205.518965 183.805507 
L 200.510159 184.050126 
L 195.466354 183.907596 
L 190.443653 183.357675 
L 185.507664 182.420823 
L 180.688153 181.129083 
L 175.991651 179.507625 
L 171.445063 177.583704 
L 167.083103 175.395356 
L 162.911179 172.988305 
L 158.928181 170.406616 
L 155.102526 167.679761 
L 149.66466 163.422223 
L 139.882381 155.427082 
L 136.801588 153.182041 
L 133.668844 151.18925 
L 130.357975 149.39729 
L 126.87486 147.794231 
L 123.238864 146.371806 
L 119.482686 145.124862 
L 115.610313 144.040025 
L 109.49204 142.600752 
L 98.635989 140.180239 
L 94.102334 138.983946 
L 89.503307 137.532321 
L 84.870098 135.735202 
L 82.552185 134.677962 
L 80.242169 133.499331 
L 77.955892 132.19312 
L 73.832727 129.430112 
L 73.832727 129.430112 
" style="fill:none;stroke:#ffffff;stroke-linecap:square;"/>
   </g>
   <g id="line2d_17">
    <path clip-path="url(#p38e2daf174)" d="M 397.470716 233.800731 
L 398.168793 228.71235 
L 398.469894 223.722157 
L 398.424408 218.825694 
L 398.081434 214.024584 
L 397.485669 209.324963 
L 396.684292 204.719335 
L 395.723474 200.209904 
L 394.069502 193.607272 
L 391.655856 185.010686 
L 389.597887 178.380845 
L 387.955682 173.859499 
L 385.9998 169.31483 
L 383.630519 164.788942 
L 382.276857 162.570958 
L 380.82189 160.418875 
L 379.259817 158.322102 
L 377.589721 156.28862 
L 375.809984 154.326714 
L 373.936501 152.461421 
L 371.951645 150.679402 
L 369.862845 149.00122 
L 367.669421 147.436514 
L 365.392569 146.008753 
L 363.054404 144.728819 
L 360.710028 143.61297 
L 358.346646 142.627494 
L 353.634074 141.006441 
L 348.975936 139.739682 
L 342.234557 138.274019 
L 333.479149 136.641673 
L 320.542696 134.490273 
L 311.687846 133.145152 
L 307.075928 132.591086 
L 302.353725 132.202689 
L 297.503506 132.042801 
L 292.610082 132.170532 
L 287.714866 132.601911 
L 282.843335 133.346273 
L 278.025483 134.406976 
L 273.268848 135.797174 
L 268.677338 137.483457 
L 264.288479 139.398225 
L 260.077451 141.483929 
L 254.043916 144.812725 
L 246.433035 149.366725 
L 237.376507 154.787016 
L 232.029885 157.703272 
L 228.425376 159.476042 
L 224.791564 161.090011 
L 221.124752 162.531992 
L 217.415881 163.788802 
L 213.671895 164.843812 
L 209.920615 165.67839 
L 206.166447 166.273528 
L 202.451984 166.611921 
L 198.774248 166.674606 
L 195.138858 166.451285 
L 191.488185 165.925651 
L 187.845675 165.111116 
L 184.242677 164.026586 
L 180.702447 162.684924 
L 177.246494 161.104115 
L 173.845993 159.281251 
L 170.506159 157.243794 
L 167.213702 155.010497 
L 163.961844 152.601143 
L 159.070315 148.662754 
L 152.12527 142.946808 
L 148.346168 140.072421 
L 144.274897 137.312591 
L 140.007728 134.834429 
L 135.622906 132.668281 
L 131.153164 130.789251 
L 126.623262 129.169168 
L 122.057703 127.784543 
L 117.569578 126.628557 
L 108.946846 124.707732 
L 100.959276 122.852911 
L 97.237798 121.794307 
L 93.716148 120.584586 
L 90.389893 119.175181 
L 87.242881 117.512599 
L 85.729022 116.568982 
L 83.874624 115.255269 
L 83.874624 115.255269 
" style="fill:none;stroke:#ffffff;stroke-linecap:square;"/>
   </g>
   <g id="patch_3">
    <path d="M 57.6 307.584 
L 57.6 41.472 
" style="fill:none;stroke:#000000;stroke-linecap:square;stroke-linejoin:miter;stroke-width:0.8;"/>
   </g>
   <g id="patch_4">
    <path d="M 414.72 307.584 
L 414.72 41.472 
" style="fill:none;stroke:#000000;stroke-linecap:square;stroke-linejoin:miter;stroke-width:0.8;"/>
   </g>
   <g id="patch_5">
    <path d="M 57.6 307.584 
L 414.72 307.584 
" style="fill:none;stroke:#000000;stroke-linecap:square;stroke-linejoin:miter;stroke-width:0.8;"/>
   </g>
   <g id="patch_6">
    <path d="M 57.6 41.472 
L 414.72 41.472 
" style="fill:none;stroke:#000000;stroke-linecap:square;stroke-linejoin:miter;stroke-width:0.8;"/>
   </g>
  </g>
 </g>
 <defs>
  <clipPath id="p38e2daf174">
   <rect height="266.112" width="357.12" x="57.6" y="41.472"/>
  </clipPath>
 </defs>
</svg>
