<?xml version="1.0" encoding="utf-8" standalone="no"?>
<!DOCTYPE svg PUBLIC "-//W3C//DTD SVG 1.1//EN"
  "http://www.w3.org/Graphics/SVG/1.1/DTD/svg11.dtd">
<!-- Created with matplotlib (https://matplotlib.org/) -->
<svg height="345.6pt" version="1.1" viewBox="0 0 460.8 345.6" width="460.8pt" xmlns="http://www.w3.org/2000/svg" xmlns:xlink="http://www.w3.org/1999/xlink">
 <metadata>
  <rdf:RDF xmlns:cc="http://creativecommons.org/ns#" xmlns:dc="http://purl.org/dc/elements/1.1/" xmlns:rdf="http://www.w3.org/1999/02/22-rdf-syntax-ns#">
   <cc:Work>
    <dc:type rdf:resource="http://purl.org/dc/dcmitype/StillImage"/>
    <dc:date>2021-01-23T13:12:57.380242</dc:date>
    <dc:format>image/svg+xml</dc:format>
    <dc:creator>
     <cc:Agent>
      <dc:title>Matplotlib v3.3.3, https://matplotlib.org/</dc:title>
     </cc:Agent>
    </dc:creator>
   </cc:Work>
  </rdf:RDF>
 </metadata>
 <defs>
  <style type="text/css">*{stroke-linecap:butt;stroke-linejoin:round;}</style>
 </defs>
 <g id="figure_1">
  <g id="patch_1">
   <path d="M 0 345.6 
L 460.8 345.6 
L 460.8 0 
L 0 0 
z
" style="fill:#ffffff;"/>
  </g>
  <g id="axes_1">
   <g id="patch_2">
    <path d="M 57.6 307.584 
L 414.72 307.584 
L 414.72 41.472 
L 57.6 41.472 
z
" style="fill:#7d9051;"/>
   </g>
   <g id="matplotlib.axis_1">
    <g id="xtick_1">
     <g id="line2d_1">
      <defs>
       <path d="M 0 0 
L 0 3.5 
" id="m991de40f8e" style="stroke:#000000;stroke-width:0.8;"/>
      </defs>
      <g>
       <use style="stroke:#000000;stroke-width:0.8;" x="57.645022" xlink:href="#m991de40f8e" y="307.584"/>
      </g>
     </g>
     <g id="text_1">
      <!-- 0 -->
      <g transform="translate(54.463772 322.182437)scale(0.1 -0.1)">
       <defs>
        <path d="M 31.78125 66.40625 
Q 24.171875 66.40625 20.328125 58.90625 
Q 16.5 51.421875 16.5 36.375 
Q 16.5 21.390625 20.328125 13.890625 
Q 24.171875 6.390625 31.78125 6.390625 
Q 39.453125 6.390625 43.28125 13.890625 
Q 47.125 21.390625 47.125 36.375 
Q 47.125 51.421875 43.28125 58.90625 
Q 39.453125 66.40625 31.78125 66.40625 
z
M 31.78125 74.21875 
Q 44.046875 74.21875 50.515625 64.515625 
Q 56.984375 54.828125 56.984375 36.375 
Q 56.984375 17.96875 50.515625 8.265625 
Q 44.046875 -1.421875 31.78125 -1.421875 
Q 19.53125 -1.421875 13.0625 8.265625 
Q 6.59375 17.96875 6.59375 36.375 
Q 6.59375 54.828125 13.0625 64.515625 
Q 19.53125 74.21875 31.78125 74.21875 
z
" id="DejaVuSans-48"/>
       </defs>
       <use xlink:href="#DejaVuSans-48"/>
      </g>
     </g>
    </g>
    <g id="xtick_2">
     <g id="line2d_2">
      <g>
       <use style="stroke:#000000;stroke-width:0.8;" x="111.600529" xlink:href="#m991de40f8e" y="307.584"/>
      </g>
     </g>
     <g id="text_2">
      <!-- 20 -->
      <g transform="translate(105.238029 322.182437)scale(0.1 -0.1)">
       <defs>
        <path d="M 19.1875 8.296875 
L 53.609375 8.296875 
L 53.609375 0 
L 7.328125 0 
L 7.328125 8.296875 
Q 12.9375 14.109375 22.625 23.890625 
Q 32.328125 33.6875 34.8125 36.53125 
Q 39.546875 41.84375 41.421875 45.53125 
Q 43.3125 49.21875 43.3125 52.78125 
Q 43.3125 58.59375 39.234375 62.25 
Q 35.15625 65.921875 28.609375 65.921875 
Q 23.96875 65.921875 18.8125 64.3125 
Q 13.671875 62.703125 7.8125 59.421875 
L 7.8125 69.390625 
Q 13.765625 71.78125 18.9375 73 
Q 24.125 74.21875 28.421875 74.21875 
Q 39.75 74.21875 46.484375 68.546875 
Q 53.21875 62.890625 53.21875 53.421875 
Q 53.21875 48.921875 51.53125 44.890625 
Q 49.859375 40.875 45.40625 35.40625 
Q 44.1875 33.984375 37.640625 27.21875 
Q 31.109375 20.453125 19.1875 8.296875 
z
" id="DejaVuSans-50"/>
       </defs>
       <use xlink:href="#DejaVuSans-50"/>
       <use x="63.623047" xlink:href="#DejaVuSans-48"/>
      </g>
     </g>
    </g>
    <g id="xtick_3">
     <g id="line2d_3">
      <g>
       <use style="stroke:#000000;stroke-width:0.8;" x="165.556036" xlink:href="#m991de40f8e" y="307.584"/>
      </g>
     </g>
     <g id="text_3">
      <!-- 40 -->
      <g transform="translate(159.193536 322.182437)scale(0.1 -0.1)">
       <defs>
        <path d="M 37.796875 64.3125 
L 12.890625 25.390625 
L 37.796875 25.390625 
z
M 35.203125 72.90625 
L 47.609375 72.90625 
L 47.609375 25.390625 
L 58.015625 25.390625 
L 58.015625 17.1875 
L 47.609375 17.1875 
L 47.609375 0 
L 37.796875 0 
L 37.796875 17.1875 
L 4.890625 17.1875 
L 4.890625 26.703125 
z
" id="DejaVuSans-52"/>
       </defs>
       <use xlink:href="#DejaVuSans-52"/>
       <use x="63.623047" xlink:href="#DejaVuSans-48"/>
      </g>
     </g>
    </g>
    <g id="xtick_4">
     <g id="line2d_4">
      <g>
       <use style="stroke:#000000;stroke-width:0.8;" x="219.511544" xlink:href="#m991de40f8e" y="307.584"/>
      </g>
     </g>
     <g id="text_4">
      <!-- 60 -->
      <g transform="translate(213.149044 322.182437)scale(0.1 -0.1)">
       <defs>
        <path d="M 33.015625 40.375 
Q 26.375 40.375 22.484375 35.828125 
Q 18.609375 31.296875 18.609375 23.390625 
Q 18.609375 15.53125 22.484375 10.953125 
Q 26.375 6.390625 33.015625 6.390625 
Q 39.65625 6.390625 43.53125 10.953125 
Q 47.40625 15.53125 47.40625 23.390625 
Q 47.40625 31.296875 43.53125 35.828125 
Q 39.65625 40.375 33.015625 40.375 
z
M 52.59375 71.296875 
L 52.59375 62.3125 
Q 48.875 64.0625 45.09375 64.984375 
Q 41.3125 65.921875 37.59375 65.921875 
Q 27.828125 65.921875 22.671875 59.328125 
Q 17.53125 52.734375 16.796875 39.40625 
Q 19.671875 43.65625 24.015625 45.921875 
Q 28.375 48.1875 33.59375 48.1875 
Q 44.578125 48.1875 50.953125 41.515625 
Q 57.328125 34.859375 57.328125 23.390625 
Q 57.328125 12.15625 50.6875 5.359375 
Q 44.046875 -1.421875 33.015625 -1.421875 
Q 20.359375 -1.421875 13.671875 8.265625 
Q 6.984375 17.96875 6.984375 36.375 
Q 6.984375 53.65625 15.1875 63.9375 
Q 23.390625 74.21875 37.203125 74.21875 
Q 40.921875 74.21875 44.703125 73.484375 
Q 48.484375 72.75 52.59375 71.296875 
z
" id="DejaVuSans-54"/>
       </defs>
       <use xlink:href="#DejaVuSans-54"/>
       <use x="63.623047" xlink:href="#DejaVuSans-48"/>
      </g>
     </g>
    </g>
    <g id="xtick_5">
     <g id="line2d_5">
      <g>
       <use style="stroke:#000000;stroke-width:0.8;" x="273.467051" xlink:href="#m991de40f8e" y="307.584"/>
      </g>
     </g>
     <g id="text_5">
      <!-- 80 -->
      <g transform="translate(267.104551 322.182437)scale(0.1 -0.1)">
       <defs>
        <path d="M 31.78125 34.625 
Q 24.75 34.625 20.71875 30.859375 
Q 16.703125 27.09375 16.703125 20.515625 
Q 16.703125 13.921875 20.71875 10.15625 
Q 24.75 6.390625 31.78125 6.390625 
Q 38.8125 6.390625 42.859375 10.171875 
Q 46.921875 13.96875 46.921875 20.515625 
Q 46.921875 27.09375 42.890625 30.859375 
Q 38.875 34.625 31.78125 34.625 
z
M 21.921875 38.8125 
Q 15.578125 40.375 12.03125 44.71875 
Q 8.5 49.078125 8.5 55.328125 
Q 8.5 64.0625 14.71875 69.140625 
Q 20.953125 74.21875 31.78125 74.21875 
Q 42.671875 74.21875 48.875 69.140625 
Q 55.078125 64.0625 55.078125 55.328125 
Q 55.078125 49.078125 51.53125 44.71875 
Q 48 40.375 41.703125 38.8125 
Q 48.828125 37.15625 52.796875 32.3125 
Q 56.78125 27.484375 56.78125 20.515625 
Q 56.78125 9.90625 50.3125 4.234375 
Q 43.84375 -1.421875 31.78125 -1.421875 
Q 19.734375 -1.421875 13.25 4.234375 
Q 6.78125 9.90625 6.78125 20.515625 
Q 6.78125 27.484375 10.78125 32.3125 
Q 14.796875 37.15625 21.921875 38.8125 
z
M 18.3125 54.390625 
Q 18.3125 48.734375 21.84375 45.5625 
Q 25.390625 42.390625 31.78125 42.390625 
Q 38.140625 42.390625 41.71875 45.5625 
Q 45.3125 48.734375 45.3125 54.390625 
Q 45.3125 60.0625 41.71875 63.234375 
Q 38.140625 66.40625 31.78125 66.40625 
Q 25.390625 66.40625 21.84375 63.234375 
Q 18.3125 60.0625 18.3125 54.390625 
z
" id="DejaVuSans-56"/>
       </defs>
       <use xlink:href="#DejaVuSans-56"/>
       <use x="63.623047" xlink:href="#DejaVuSans-48"/>
      </g>
     </g>
    </g>
    <g id="xtick_6">
     <g id="line2d_6">
      <g>
       <use style="stroke:#000000;stroke-width:0.8;" x="327.422558" xlink:href="#m991de40f8e" y="307.584"/>
      </g>
     </g>
     <g id="text_6">
      <!-- 100 -->
      <g transform="translate(317.878808 322.182437)scale(0.1 -0.1)">
       <defs>
        <path d="M 12.40625 8.296875 
L 28.515625 8.296875 
L 28.515625 63.921875 
L 10.984375 60.40625 
L 10.984375 69.390625 
L 28.421875 72.90625 
L 38.28125 72.90625 
L 38.28125 8.296875 
L 54.390625 8.296875 
L 54.390625 0 
L 12.40625 0 
z
" id="DejaVuSans-49"/>
       </defs>
       <use xlink:href="#DejaVuSans-49"/>
       <use x="63.623047" xlink:href="#DejaVuSans-48"/>
       <use x="127.246094" xlink:href="#DejaVuSans-48"/>
      </g>
     </g>
    </g>
    <g id="xtick_7">
     <g id="line2d_7">
      <g>
       <use style="stroke:#000000;stroke-width:0.8;" x="381.378066" xlink:href="#m991de40f8e" y="307.584"/>
      </g>
     </g>
     <g id="text_7">
      <!-- 120 -->
      <g transform="translate(371.834316 322.182437)scale(0.1 -0.1)">
       <use xlink:href="#DejaVuSans-49"/>
       <use x="63.623047" xlink:href="#DejaVuSans-50"/>
       <use x="127.246094" xlink:href="#DejaVuSans-48"/>
      </g>
     </g>
    </g>
   </g>
   <g id="matplotlib.axis_2">
    <g id="ytick_1">
     <g id="line2d_8">
      <defs>
       <path d="M 0 0 
L -3.5 0 
" id="m77b0d90c3d" style="stroke:#000000;stroke-width:0.8;"/>
      </defs>
      <g>
       <use style="stroke:#000000;stroke-width:0.8;" x="57.6" xlink:href="#m77b0d90c3d" y="263.181537"/>
      </g>
     </g>
     <g id="text_8">
      <!-- 0 -->
      <g transform="translate(44.2375 266.980756)scale(0.1 -0.1)">
       <use xlink:href="#DejaVuSans-48"/>
      </g>
     </g>
    </g>
    <g id="ytick_2">
     <g id="line2d_9">
      <g>
       <use style="stroke:#000000;stroke-width:0.8;" x="57.6" xlink:href="#m77b0d90c3d" y="209.22603"/>
      </g>
     </g>
     <g id="text_9">
      <!-- 20 -->
      <g transform="translate(37.875 213.025248)scale(0.1 -0.1)">
       <use xlink:href="#DejaVuSans-50"/>
       <use x="63.623047" xlink:href="#DejaVuSans-48"/>
      </g>
     </g>
    </g>
    <g id="ytick_3">
     <g id="line2d_10">
      <g>
       <use style="stroke:#000000;stroke-width:0.8;" x="57.6" xlink:href="#m77b0d90c3d" y="155.270522"/>
      </g>
     </g>
     <g id="text_10">
      <!-- 40 -->
      <g transform="translate(37.875 159.069741)scale(0.1 -0.1)">
       <use xlink:href="#DejaVuSans-52"/>
       <use x="63.623047" xlink:href="#DejaVuSans-48"/>
      </g>
     </g>
    </g>
    <g id="ytick_4">
     <g id="line2d_11">
      <g>
       <use style="stroke:#000000;stroke-width:0.8;" x="57.6" xlink:href="#m77b0d90c3d" y="101.315015"/>
      </g>
     </g>
     <g id="text_11">
      <!-- 60 -->
      <g transform="translate(37.875 105.114234)scale(0.1 -0.1)">
       <use xlink:href="#DejaVuSans-54"/>
       <use x="63.623047" xlink:href="#DejaVuSans-48"/>
      </g>
     </g>
    </g>
    <g id="ytick_5">
     <g id="line2d_12">
      <g>
       <use style="stroke:#000000;stroke-width:0.8;" x="57.6" xlink:href="#m77b0d90c3d" y="47.359508"/>
      </g>
     </g>
     <g id="text_12">
      <!-- 80 -->
      <g transform="translate(37.875 51.158727)scale(0.1 -0.1)">
       <use xlink:href="#DejaVuSans-56"/>
       <use x="63.623047" xlink:href="#DejaVuSans-48"/>
      </g>
     </g>
    </g>
   </g>
   <g id="line2d_13">
    <path clip-path="url(#p9757ac0d52)" d="M 387.663882 236.203783 
L 387.515504 230.921539 
L 387.555971 222.855191 
L 387.685464 209.22603 
L 387.542482 203.773826 
L 387.178283 198.351297 
L 386.51463 192.982724 
L 385.481382 187.692387 
L 384.801542 185.083638 
L 384.000303 182.501867 
L 383.072268 179.949771 
L 382.017438 177.438142 
L 380.841208 174.972376 
L 379.543578 172.563262 
L 378.129944 170.218896 
L 376.605701 167.950067 
L 374.970849 165.762171 
L 373.233482 163.663301 
L 371.393599 161.666948 
L 369.459294 159.778505 
L 367.427869 158.003369 
L 365.312813 156.336144 
L 360.866879 153.287657 
L 356.188937 150.552113 
L 351.354523 148.053973 
L 343.965317 144.584634 
L 336.505968 141.385073 
L 331.463826 139.475048 
L 326.338053 137.807822 
L 321.107066 136.431957 
L 315.75468 135.401407 
L 310.326756 134.76743 
L 307.602003 134.616354 
L 304.87725 134.583981 
L 302.163288 134.678403 
L 299.462814 134.902318 
L 296.783923 135.269216 
L 294.134708 135.776398 
L 291.523261 136.437352 
L 288.946886 137.235894 
L 286.408279 138.169324 
L 283.910139 139.224154 
L 281.455164 140.389593 
L 276.677404 143.017227 
L 272.083092 145.968593 
L 267.683021 149.168154 
L 263.461002 152.548467 
L 257.342448 157.841502 
L 243.2115 170.337598 
L 226.87647 184.446963 
L 214.817415 195.229971 
L 208.582856 200.412397 
L 204.266415 203.69559 
L 199.80969 206.795334 
L 195.215379 209.668465 
L 190.478085 212.266422 
L 185.603205 214.54874 
L 180.593436 216.488441 
L 175.464965 218.12599 
L 170.24477 219.52074 
L 164.95713 220.732041 
L 156.947435 222.326427 
L 151.58156 223.246368 
L 146.204894 223.950487 
L 140.820134 224.344363 
L 138.127754 224.39562 
L 135.438072 224.330874 
L 132.745692 224.139332 
L 130.058708 223.812901 
L 127.382515 223.348884 
L 124.727904 222.749977 
L 122.097573 222.016183 
L 119.507709 221.150197 
L 116.961009 220.15202 
L 114.468264 219.02435 
L 112.040267 217.769884 
L 109.685109 216.388623 
L 107.408186 214.880567 
L 105.22029 213.248413 
L 103.124119 211.500254 
L 101.127765 209.641487 
L 99.231229 207.680204 
L 97.437209 205.621802 
L 95.753797 203.471675 
L 94.180994 201.240614 
L 92.726893 198.934017 
L 91.391494 196.557276 
L 90.180193 194.118488 
L 89.095687 191.625743 
L 88.135279 189.081741 
L 87.298969 186.494574 
L 86.58136 183.872337 
L 85.979757 181.217726 
L 85.491459 178.541533 
L 84.846691 173.140586 
L 84.622776 167.720756 
L 84.792735 162.319809 
L 85.305313 156.951236 
L 86.101156 151.606943 
L 87.129009 146.289628 
L 88.971589 138.360866 
L 94.920184 114.838963 
L 94.920184 114.838963 
" style="fill:none;stroke:#fea952;stroke-linecap:square;"/>
   </g>
   <g id="line2d_14">
    <path clip-path="url(#p9757ac0d52)" d="M 376.880129 236.601953 
L 376.724491 230.965095 
L 376.766234 222.683585 
L 376.896069 209.417936 
L 376.768028 204.373001 
L 376.449818 199.512293 
L 375.886537 194.851281 
L 375.039038 190.413659 
L 373.858897 186.189651 
L 372.277733 182.084216 
L 370.302505 178.135555 
L 367.961322 174.409368 
L 365.29839 170.976453 
L 362.358653 167.904314 
L 360.747535 166.478096 
L 357.198784 163.788758 
L 353.251544 161.284338 
L 348.93636 158.91776 
L 344.325972 156.642346 
L 337.217168 153.393603 
L 332.576547 151.435322 
L 327.993048 149.692756 
L 323.427649 148.199041 
L 318.881829 146.991133 
L 314.295709 146.093426 
L 309.729355 145.541982 
L 305.252458 145.368557 
L 300.92708 145.593614 
L 296.782438 146.237631 
L 294.718001 146.744705 
L 292.670943 147.364037 
L 288.53795 148.972551 
L 284.4202 151.013689 
L 280.328371 153.446408 
L 276.312471 156.193666 
L 272.375479 159.2027 
L 268.471433 162.439686 
L 262.555363 167.65541 
L 252.29338 176.759661 
L 232.109371 194.253367 
L 221.825952 203.435351 
L 217.46501 207.111885 
L 212.891416 210.725106 
L 208.109257 214.206013 
L 203.130977 217.486682 
L 197.911943 220.540909 
L 192.472966 223.29475 
L 186.84188 225.687825 
L 181.186736 227.663455 
L 175.534826 229.30782 
L 169.935205 230.684026 
L 161.643265 232.416969 
L 153.104649 233.929442 
L 147.174106 234.697975 
L 141.025539 235.133509 
L 137.868064 235.183597 
L 134.672304 235.09477 
L 131.444294 234.851672 
L 128.215176 234.445364 
L 125.007628 233.875411 
L 121.828187 233.144183 
L 118.675534 232.250318 
L 115.569821 231.197132 
L 112.513264 229.983878 
L 109.514932 228.611444 
L 106.581081 227.078222 
L 103.726369 225.385361 
L 100.95573 223.530057 
L 98.308849 221.535743 
L 95.770665 219.398013 
L 93.370333 217.142828 
L 91.096243 214.77033 
L 88.940512 212.274171 
L 86.933973 209.689277 
L 85.05242 206.995353 
L 83.319067 204.219912 
L 81.726844 201.357528 
L 80.285019 198.423531 
L 79.000048 195.437034 
L 77.867315 192.400895 
L 76.89058 189.342961 
L 76.057134 186.2574 
L 75.363917 183.154688 
L 74.804787 180.039164 
L 74.374854 176.906428 
L 74.075412 173.794365 
L 73.893615 170.665724 
L 73.882374 164.489454 
L 74.282932 158.445885 
L 75.016914 152.55167 
L 76.014148 146.799667 
L 77.201003 141.184965 
L 79.19614 133.014842 
L 83.807809 115.049307 
L 84.395924 112.454047 
L 84.395924 112.454047 
" style="fill:none;stroke:#ffffff;stroke-linecap:square;"/>
   </g>
   <g id="line2d_15">
    <path clip-path="url(#p9757ac0d52)" d="M 398.447635 235.805614 
L 398.306518 230.877983 
L 398.345708 223.026797 
L 398.474859 209.034123 
L 398.316936 203.17465 
L 397.906747 197.190301 
L 397.142723 191.114167 
L 396.598055 188.060427 
L 395.923726 184.971114 
L 395.107736 181.885164 
L 394.141709 178.814083 
L 393.021547 175.771288 
L 391.757144 172.792068 
L 390.341778 169.855048 
L 388.784651 166.99097 
L 387.087325 164.201155 
L 385.25008 161.490765 
L 383.283528 158.881238 
L 381.168573 156.350149 
L 378.931973 153.945498 
L 376.559935 151.652696 
L 374.108203 149.528641 
L 371.592168 147.560178 
L 369.045655 145.748715 
L 363.852833 142.485291 
L 358.639474 139.639766 
L 353.478519 137.096954 
L 345.76035 133.574281 
L 340.435389 131.334823 
L 334.934603 129.257339 
L 329.248456 127.416604 
L 323.332303 125.872781 
L 317.213651 124.709388 
L 314.090325 124.291351 
L 310.924157 123.992877 
L 307.730205 123.826014 
L 304.502041 123.799404 
L 301.271581 123.924207 
L 297.998548 124.211023 
L 294.75486 124.670595 
L 291.486979 125.315164 
L 288.328522 126.13 
L 285.222829 127.107751 
L 282.21064 128.228112 
L 279.282329 129.475758 
L 276.433651 130.838035 
L 273.666505 132.301406 
L 268.386262 135.469269 
L 263.40778 138.894521 
L 258.733473 142.47885 
L 254.328371 146.137378 
L 248.115242 151.615635 
L 238.219448 160.397635 
L 217.634676 178.244786 
L 207.808877 187.024591 
L 201.968173 191.886329 
L 197.999283 194.910892 
L 193.968352 197.721931 
L 189.888172 200.28397 
L 185.743178 202.569592 
L 181.537611 204.5528 
L 177.174499 206.253269 
L 172.561767 207.732757 
L 167.751625 209.021593 
L 162.752393 210.168567 
L 155.045283 211.704295 
L 150.058471 212.563294 
L 145.235681 213.203 
L 140.61473 213.555216 
L 136.203841 213.566977 
L 131.90224 213.180438 
L 127.627621 212.355772 
L 123.445597 211.103261 
L 119.421596 209.437256 
L 117.499452 208.461546 
L 115.643849 207.391885 
L 113.860642 206.231076 
L 112.131732 204.961082 
L 110.477573 203.602496 
L 108.885197 202.140146 
L 107.366215 200.590079 
L 105.933905 198.969432 
L 103.309567 195.485876 
L 101.056144 191.757025 
L 100.075367 189.813444 
L 98.403243 185.762587 
L 97.105587 181.487273 
L 96.178132 177.043901 
L 95.61797 172.486807 
L 95.412824 167.871515 
L 95.549195 163.183782 
L 95.997855 158.406371 
L 96.714909 153.55531 
L 97.670416 148.597574 
L 99.430332 141.018416 
L 105.444444 117.223878 
L 105.444444 117.223878 
" style="fill:none;stroke:#ffffff;stroke-linecap:square;"/>
   </g>
   <g id="patch_3">
    <path d="M 57.6 307.584 
L 57.6 41.472 
" style="fill:none;stroke:#000000;stroke-linecap:square;stroke-linejoin:miter;stroke-width:0.8;"/>
   </g>
   <g id="patch_4">
    <path d="M 414.72 307.584 
L 414.72 41.472 
" style="fill:none;stroke:#000000;stroke-linecap:square;stroke-linejoin:miter;stroke-width:0.8;"/>
   </g>
   <g id="patch_5">
    <path d="M 57.6 307.584 
L 414.72 307.584 
" style="fill:none;stroke:#000000;stroke-linecap:square;stroke-linejoin:miter;stroke-width:0.8;"/>
   </g>
   <g id="patch_6">
    <path d="M 57.6 41.472 
L 414.72 41.472 
" style="fill:none;stroke:#000000;stroke-linecap:square;stroke-linejoin:miter;stroke-width:0.8;"/>
   </g>
  </g>
 </g>
 <defs>
  <clipPath id="p9757ac0d52">
   <rect height="266.112" width="357.12" x="57.6" y="41.472"/>
  </clipPath>
 </defs>
</svg>
