<?xml version="1.0" encoding="utf-8" standalone="no"?>
<!DOCTYPE svg PUBLIC "-//W3C//DTD SVG 1.1//EN"
  "http://www.w3.org/Graphics/SVG/1.1/DTD/svg11.dtd">
<!-- Created with matplotlib (https://matplotlib.org/) -->
<svg height="345.6pt" version="1.1" viewBox="0 0 460.8 345.6" width="460.8pt" xmlns="http://www.w3.org/2000/svg" xmlns:xlink="http://www.w3.org/1999/xlink">
 <metadata>
  <rdf:RDF xmlns:cc="http://creativecommons.org/ns#" xmlns:dc="http://purl.org/dc/elements/1.1/" xmlns:rdf="http://www.w3.org/1999/02/22-rdf-syntax-ns#">
   <cc:Work>
    <dc:type rdf:resource="http://purl.org/dc/dcmitype/StillImage"/>
    <dc:date>2021-01-23T11:48:26.600585</dc:date>
    <dc:format>image/svg+xml</dc:format>
    <dc:creator>
     <cc:Agent>
      <dc:title>Matplotlib v3.3.3, https://matplotlib.org/</dc:title>
     </cc:Agent>
    </dc:creator>
   </cc:Work>
  </rdf:RDF>
 </metadata>
 <defs>
  <style type="text/css">*{stroke-linecap:butt;stroke-linejoin:round;}</style>
 </defs>
 <g id="figure_1">
  <g id="patch_1">
   <path d="M 0 345.6 
L 460.8 345.6 
L 460.8 0 
L 0 0 
z
" style="fill:#ffffff;"/>
  </g>
  <g id="axes_1">
   <g id="patch_2">
    <path d="M 57.6 307.584 
L 414.72 307.584 
L 414.72 41.472 
L 57.6 41.472 
z
" style="fill:#7d9051;"/>
   </g>
   <g id="matplotlib.axis_1">
    <g id="xtick_1">
     <g id="line2d_1">
      <defs>
       <path d="M 0 0 
L 0 3.5 
" id="mdb9eaf2774" style="stroke:#000000;stroke-width:0.8;"/>
      </defs>
      <g>
       <use style="stroke:#000000;stroke-width:0.8;" x="57.729832" xlink:href="#mdb9eaf2774" y="307.584"/>
      </g>
     </g>
     <g id="text_1">
      <!-- 0 -->
      <g transform="translate(54.548582 322.182437)scale(0.1 -0.1)">
       <defs>
        <path d="M 31.78125 66.40625 
Q 24.171875 66.40625 20.328125 58.90625 
Q 16.5 51.421875 16.5 36.375 
Q 16.5 21.390625 20.328125 13.890625 
Q 24.171875 6.390625 31.78125 6.390625 
Q 39.453125 6.390625 43.28125 13.890625 
Q 47.125 21.390625 47.125 36.375 
Q 47.125 51.421875 43.28125 58.90625 
Q 39.453125 66.40625 31.78125 66.40625 
z
M 31.78125 74.21875 
Q 44.046875 74.21875 50.515625 64.515625 
Q 56.984375 54.828125 56.984375 36.375 
Q 56.984375 17.96875 50.515625 8.265625 
Q 44.046875 -1.421875 31.78125 -1.421875 
Q 19.53125 -1.421875 13.0625 8.265625 
Q 6.59375 17.96875 6.59375 36.375 
Q 6.59375 54.828125 13.0625 64.515625 
Q 19.53125 74.21875 31.78125 74.21875 
z
" id="DejaVuSans-48"/>
       </defs>
       <use xlink:href="#DejaVuSans-48"/>
      </g>
     </g>
    </g>
    <g id="xtick_2">
     <g id="line2d_2">
      <g>
       <use style="stroke:#000000;stroke-width:0.8;" x="117.556625" xlink:href="#mdb9eaf2774" y="307.584"/>
      </g>
     </g>
     <g id="text_2">
      <!-- 20 -->
      <g transform="translate(111.194125 322.182437)scale(0.1 -0.1)">
       <defs>
        <path d="M 19.1875 8.296875 
L 53.609375 8.296875 
L 53.609375 0 
L 7.328125 0 
L 7.328125 8.296875 
Q 12.9375 14.109375 22.625 23.890625 
Q 32.328125 33.6875 34.8125 36.53125 
Q 39.546875 41.84375 41.421875 45.53125 
Q 43.3125 49.21875 43.3125 52.78125 
Q 43.3125 58.59375 39.234375 62.25 
Q 35.15625 65.921875 28.609375 65.921875 
Q 23.96875 65.921875 18.8125 64.3125 
Q 13.671875 62.703125 7.8125 59.421875 
L 7.8125 69.390625 
Q 13.765625 71.78125 18.9375 73 
Q 24.125 74.21875 28.421875 74.21875 
Q 39.75 74.21875 46.484375 68.546875 
Q 53.21875 62.890625 53.21875 53.421875 
Q 53.21875 48.921875 51.53125 44.890625 
Q 49.859375 40.875 45.40625 35.40625 
Q 44.1875 33.984375 37.640625 27.21875 
Q 31.109375 20.453125 19.1875 8.296875 
z
" id="DejaVuSans-50"/>
       </defs>
       <use xlink:href="#DejaVuSans-50"/>
       <use x="63.623047" xlink:href="#DejaVuSans-48"/>
      </g>
     </g>
    </g>
    <g id="xtick_3">
     <g id="line2d_3">
      <g>
       <use style="stroke:#000000;stroke-width:0.8;" x="177.383417" xlink:href="#mdb9eaf2774" y="307.584"/>
      </g>
     </g>
     <g id="text_3">
      <!-- 40 -->
      <g transform="translate(171.020917 322.182437)scale(0.1 -0.1)">
       <defs>
        <path d="M 37.796875 64.3125 
L 12.890625 25.390625 
L 37.796875 25.390625 
z
M 35.203125 72.90625 
L 47.609375 72.90625 
L 47.609375 25.390625 
L 58.015625 25.390625 
L 58.015625 17.1875 
L 47.609375 17.1875 
L 47.609375 0 
L 37.796875 0 
L 37.796875 17.1875 
L 4.890625 17.1875 
L 4.890625 26.703125 
z
" id="DejaVuSans-52"/>
       </defs>
       <use xlink:href="#DejaVuSans-52"/>
       <use x="63.623047" xlink:href="#DejaVuSans-48"/>
      </g>
     </g>
    </g>
    <g id="xtick_4">
     <g id="line2d_4">
      <g>
       <use style="stroke:#000000;stroke-width:0.8;" x="237.21021" xlink:href="#mdb9eaf2774" y="307.584"/>
      </g>
     </g>
     <g id="text_4">
      <!-- 60 -->
      <g transform="translate(230.84771 322.182437)scale(0.1 -0.1)">
       <defs>
        <path d="M 33.015625 40.375 
Q 26.375 40.375 22.484375 35.828125 
Q 18.609375 31.296875 18.609375 23.390625 
Q 18.609375 15.53125 22.484375 10.953125 
Q 26.375 6.390625 33.015625 6.390625 
Q 39.65625 6.390625 43.53125 10.953125 
Q 47.40625 15.53125 47.40625 23.390625 
Q 47.40625 31.296875 43.53125 35.828125 
Q 39.65625 40.375 33.015625 40.375 
z
M 52.59375 71.296875 
L 52.59375 62.3125 
Q 48.875 64.0625 45.09375 64.984375 
Q 41.3125 65.921875 37.59375 65.921875 
Q 27.828125 65.921875 22.671875 59.328125 
Q 17.53125 52.734375 16.796875 39.40625 
Q 19.671875 43.65625 24.015625 45.921875 
Q 28.375 48.1875 33.59375 48.1875 
Q 44.578125 48.1875 50.953125 41.515625 
Q 57.328125 34.859375 57.328125 23.390625 
Q 57.328125 12.15625 50.6875 5.359375 
Q 44.046875 -1.421875 33.015625 -1.421875 
Q 20.359375 -1.421875 13.671875 8.265625 
Q 6.984375 17.96875 6.984375 36.375 
Q 6.984375 53.65625 15.1875 63.9375 
Q 23.390625 74.21875 37.203125 74.21875 
Q 40.921875 74.21875 44.703125 73.484375 
Q 48.484375 72.75 52.59375 71.296875 
z
" id="DejaVuSans-54"/>
       </defs>
       <use xlink:href="#DejaVuSans-54"/>
       <use x="63.623047" xlink:href="#DejaVuSans-48"/>
      </g>
     </g>
    </g>
    <g id="xtick_5">
     <g id="line2d_5">
      <g>
       <use style="stroke:#000000;stroke-width:0.8;" x="297.037003" xlink:href="#mdb9eaf2774" y="307.584"/>
      </g>
     </g>
     <g id="text_5">
      <!-- 80 -->
      <g transform="translate(290.674503 322.182437)scale(0.1 -0.1)">
       <defs>
        <path d="M 31.78125 34.625 
Q 24.75 34.625 20.71875 30.859375 
Q 16.703125 27.09375 16.703125 20.515625 
Q 16.703125 13.921875 20.71875 10.15625 
Q 24.75 6.390625 31.78125 6.390625 
Q 38.8125 6.390625 42.859375 10.171875 
Q 46.921875 13.96875 46.921875 20.515625 
Q 46.921875 27.09375 42.890625 30.859375 
Q 38.875 34.625 31.78125 34.625 
z
M 21.921875 38.8125 
Q 15.578125 40.375 12.03125 44.71875 
Q 8.5 49.078125 8.5 55.328125 
Q 8.5 64.0625 14.71875 69.140625 
Q 20.953125 74.21875 31.78125 74.21875 
Q 42.671875 74.21875 48.875 69.140625 
Q 55.078125 64.0625 55.078125 55.328125 
Q 55.078125 49.078125 51.53125 44.71875 
Q 48 40.375 41.703125 38.8125 
Q 48.828125 37.15625 52.796875 32.3125 
Q 56.78125 27.484375 56.78125 20.515625 
Q 56.78125 9.90625 50.3125 4.234375 
Q 43.84375 -1.421875 31.78125 -1.421875 
Q 19.734375 -1.421875 13.25 4.234375 
Q 6.78125 9.90625 6.78125 20.515625 
Q 6.78125 27.484375 10.78125 32.3125 
Q 14.796875 37.15625 21.921875 38.8125 
z
M 18.3125 54.390625 
Q 18.3125 48.734375 21.84375 45.5625 
Q 25.390625 42.390625 31.78125 42.390625 
Q 38.140625 42.390625 41.71875 45.5625 
Q 45.3125 48.734375 45.3125 54.390625 
Q 45.3125 60.0625 41.71875 63.234375 
Q 38.140625 66.40625 31.78125 66.40625 
Q 25.390625 66.40625 21.84375 63.234375 
Q 18.3125 60.0625 18.3125 54.390625 
z
" id="DejaVuSans-56"/>
       </defs>
       <use xlink:href="#DejaVuSans-56"/>
       <use x="63.623047" xlink:href="#DejaVuSans-48"/>
      </g>
     </g>
    </g>
    <g id="xtick_6">
     <g id="line2d_6">
      <g>
       <use style="stroke:#000000;stroke-width:0.8;" x="356.863795" xlink:href="#mdb9eaf2774" y="307.584"/>
      </g>
     </g>
     <g id="text_6">
      <!-- 100 -->
      <g transform="translate(347.320045 322.182437)scale(0.1 -0.1)">
       <defs>
        <path d="M 12.40625 8.296875 
L 28.515625 8.296875 
L 28.515625 63.921875 
L 10.984375 60.40625 
L 10.984375 69.390625 
L 28.421875 72.90625 
L 38.28125 72.90625 
L 38.28125 8.296875 
L 54.390625 8.296875 
L 54.390625 0 
L 12.40625 0 
z
" id="DejaVuSans-49"/>
       </defs>
       <use xlink:href="#DejaVuSans-49"/>
       <use x="63.623047" xlink:href="#DejaVuSans-48"/>
       <use x="127.246094" xlink:href="#DejaVuSans-48"/>
      </g>
     </g>
    </g>
   </g>
   <g id="matplotlib.axis_2">
    <g id="ytick_1">
     <g id="line2d_7">
      <defs>
       <path d="M 0 0 
L -3.5 0 
" id="m566d6c2987" style="stroke:#000000;stroke-width:0.8;"/>
      </defs>
      <g>
       <use style="stroke:#000000;stroke-width:0.8;" x="57.6" xlink:href="#m566d6c2987" y="303.229244"/>
      </g>
     </g>
     <g id="text_7">
      <!-- 0 -->
      <g transform="translate(44.2375 307.028463)scale(0.1 -0.1)">
       <use xlink:href="#DejaVuSans-48"/>
      </g>
     </g>
    </g>
    <g id="ytick_2">
     <g id="line2d_8">
      <g>
       <use style="stroke:#000000;stroke-width:0.8;" x="57.6" xlink:href="#m566d6c2987" y="273.315848"/>
      </g>
     </g>
     <g id="text_8">
      <!-- 10 -->
      <g transform="translate(37.875 277.115067)scale(0.1 -0.1)">
       <use xlink:href="#DejaVuSans-49"/>
       <use x="63.623047" xlink:href="#DejaVuSans-48"/>
      </g>
     </g>
    </g>
    <g id="ytick_3">
     <g id="line2d_9">
      <g>
       <use style="stroke:#000000;stroke-width:0.8;" x="57.6" xlink:href="#m566d6c2987" y="243.402451"/>
      </g>
     </g>
     <g id="text_9">
      <!-- 20 -->
      <g transform="translate(37.875 247.20167)scale(0.1 -0.1)">
       <use xlink:href="#DejaVuSans-50"/>
       <use x="63.623047" xlink:href="#DejaVuSans-48"/>
      </g>
     </g>
    </g>
    <g id="ytick_4">
     <g id="line2d_10">
      <g>
       <use style="stroke:#000000;stroke-width:0.8;" x="57.6" xlink:href="#m566d6c2987" y="213.489055"/>
      </g>
     </g>
     <g id="text_10">
      <!-- 30 -->
      <g transform="translate(37.875 217.288274)scale(0.1 -0.1)">
       <defs>
        <path d="M 40.578125 39.3125 
Q 47.65625 37.796875 51.625 33 
Q 55.609375 28.21875 55.609375 21.1875 
Q 55.609375 10.40625 48.1875 4.484375 
Q 40.765625 -1.421875 27.09375 -1.421875 
Q 22.515625 -1.421875 17.65625 -0.515625 
Q 12.796875 0.390625 7.625 2.203125 
L 7.625 11.71875 
Q 11.71875 9.328125 16.59375 8.109375 
Q 21.484375 6.890625 26.8125 6.890625 
Q 36.078125 6.890625 40.9375 10.546875 
Q 45.796875 14.203125 45.796875 21.1875 
Q 45.796875 27.640625 41.28125 31.265625 
Q 36.765625 34.90625 28.71875 34.90625 
L 20.21875 34.90625 
L 20.21875 43.015625 
L 29.109375 43.015625 
Q 36.375 43.015625 40.234375 45.921875 
Q 44.09375 48.828125 44.09375 54.296875 
Q 44.09375 59.90625 40.109375 62.90625 
Q 36.140625 65.921875 28.71875 65.921875 
Q 24.65625 65.921875 20.015625 65.03125 
Q 15.375 64.15625 9.8125 62.3125 
L 9.8125 71.09375 
Q 15.4375 72.65625 20.34375 73.4375 
Q 25.25 74.21875 29.59375 74.21875 
Q 40.828125 74.21875 47.359375 69.109375 
Q 53.90625 64.015625 53.90625 55.328125 
Q 53.90625 49.265625 50.4375 45.09375 
Q 46.96875 40.921875 40.578125 39.3125 
z
" id="DejaVuSans-51"/>
       </defs>
       <use xlink:href="#DejaVuSans-51"/>
       <use x="63.623047" xlink:href="#DejaVuSans-48"/>
      </g>
     </g>
    </g>
    <g id="ytick_5">
     <g id="line2d_11">
      <g>
       <use style="stroke:#000000;stroke-width:0.8;" x="57.6" xlink:href="#m566d6c2987" y="183.575659"/>
      </g>
     </g>
     <g id="text_11">
      <!-- 40 -->
      <g transform="translate(37.875 187.374878)scale(0.1 -0.1)">
       <use xlink:href="#DejaVuSans-52"/>
       <use x="63.623047" xlink:href="#DejaVuSans-48"/>
      </g>
     </g>
    </g>
    <g id="ytick_6">
     <g id="line2d_12">
      <g>
       <use style="stroke:#000000;stroke-width:0.8;" x="57.6" xlink:href="#m566d6c2987" y="153.662262"/>
      </g>
     </g>
     <g id="text_12">
      <!-- 50 -->
      <g transform="translate(37.875 157.461481)scale(0.1 -0.1)">
       <defs>
        <path d="M 10.796875 72.90625 
L 49.515625 72.90625 
L 49.515625 64.59375 
L 19.828125 64.59375 
L 19.828125 46.734375 
Q 21.96875 47.46875 24.109375 47.828125 
Q 26.265625 48.1875 28.421875 48.1875 
Q 40.625 48.1875 47.75 41.5 
Q 54.890625 34.8125 54.890625 23.390625 
Q 54.890625 11.625 47.5625 5.09375 
Q 40.234375 -1.421875 26.90625 -1.421875 
Q 22.3125 -1.421875 17.546875 -0.640625 
Q 12.796875 0.140625 7.71875 1.703125 
L 7.71875 11.625 
Q 12.109375 9.234375 16.796875 8.0625 
Q 21.484375 6.890625 26.703125 6.890625 
Q 35.15625 6.890625 40.078125 11.328125 
Q 45.015625 15.765625 45.015625 23.390625 
Q 45.015625 31 40.078125 35.4375 
Q 35.15625 39.890625 26.703125 39.890625 
Q 22.75 39.890625 18.8125 39.015625 
Q 14.890625 38.140625 10.796875 36.28125 
z
" id="DejaVuSans-53"/>
       </defs>
       <use xlink:href="#DejaVuSans-53"/>
       <use x="63.623047" xlink:href="#DejaVuSans-48"/>
      </g>
     </g>
    </g>
    <g id="ytick_7">
     <g id="line2d_13">
      <g>
       <use style="stroke:#000000;stroke-width:0.8;" x="57.6" xlink:href="#m566d6c2987" y="123.748866"/>
      </g>
     </g>
     <g id="text_13">
      <!-- 60 -->
      <g transform="translate(37.875 127.548085)scale(0.1 -0.1)">
       <use xlink:href="#DejaVuSans-54"/>
       <use x="63.623047" xlink:href="#DejaVuSans-48"/>
      </g>
     </g>
    </g>
    <g id="ytick_8">
     <g id="line2d_14">
      <g>
       <use style="stroke:#000000;stroke-width:0.8;" x="57.6" xlink:href="#m566d6c2987" y="93.83547"/>
      </g>
     </g>
     <g id="text_14">
      <!-- 70 -->
      <g transform="translate(37.875 97.634688)scale(0.1 -0.1)">
       <defs>
        <path d="M 8.203125 72.90625 
L 55.078125 72.90625 
L 55.078125 68.703125 
L 28.609375 0 
L 18.3125 0 
L 43.21875 64.59375 
L 8.203125 64.59375 
z
" id="DejaVuSans-55"/>
       </defs>
       <use xlink:href="#DejaVuSans-55"/>
       <use x="63.623047" xlink:href="#DejaVuSans-48"/>
      </g>
     </g>
    </g>
    <g id="ytick_9">
     <g id="line2d_15">
      <g>
       <use style="stroke:#000000;stroke-width:0.8;" x="57.6" xlink:href="#m566d6c2987" y="63.922073"/>
      </g>
     </g>
     <g id="text_15">
      <!-- 80 -->
      <g transform="translate(37.875 67.721292)scale(0.1 -0.1)">
       <use xlink:href="#DejaVuSans-56"/>
       <use x="63.623047" xlink:href="#DejaVuSans-48"/>
      </g>
     </g>
    </g>
   </g>
   <g id="line2d_16">
    <path clip-path="url(#pc010e40005)" d="M 87.643228 182.005205 
L 86.943255 178.968996 
L 86.413788 175.935777 
L 86.048844 172.908542 
L 85.842442 169.887289 
L 85.791589 166.880992 
L 85.890303 163.886661 
L 86.132602 160.907287 
L 86.512502 157.945861 
L 87.027012 155.008365 
L 87.667159 152.091809 
L 88.429951 149.205166 
L 89.309404 146.345446 
L 90.299538 143.515638 
L 92.593895 137.960721 
L 95.271144 132.561353 
L 98.286415 127.338474 
L 101.594836 122.310032 
L 105.169487 117.485001 
L 108.986437 112.86039 
L 113.030728 108.436198 
L 117.27843 104.209436 
L 121.711595 100.180101 
L 126.318258 96.354178 
L 131.107393 92.752605 
L 136.073017 89.396322 
L 141.224104 86.303277 
L 146.557662 83.494409 
L 152.06771 81.014588 
L 157.724333 78.917659 
L 160.602002 78.032222 
L 163.506593 77.266439 
L 166.438106 76.626293 
L 169.390558 76.120756 
L 172.360958 75.752822 
L 175.349306 75.534454 
L 178.346629 75.45967 
L 181.349934 75.528471 
L 184.350247 75.734874 
L 187.344578 76.075886 
L 190.326944 76.548518 
L 193.28837 77.149777 
L 196.228857 77.873681 
L 199.13943 78.720231 
L 202.017099 79.686433 
L 204.849898 80.766307 
L 207.634835 81.959851 
L 210.365928 83.270058 
L 213.031212 84.696927 
L 215.624703 86.24345 
L 218.14042 87.906635 
L 220.566396 89.689473 
L 222.89665 91.588974 
L 225.128189 93.611119 
L 227.246058 95.75591 
L 229.247264 98.020354 
L 231.122834 100.395478 
L 232.872767 102.872307 
L 234.491082 105.441868 
L 235.968804 108.095186 
L 237.302941 110.823288 
L 238.490503 113.611216 
L 239.525507 116.452989 
L 240.398978 119.339631 
L 241.113908 122.259179 
L 241.661323 125.205648 
L 242.05618 128.170066 
L 242.304461 131.152432 
L 242.427106 134.146763 
L 242.334375 140.159355 
L 241.8767 146.177931 
L 241.155787 152.172575 
L 239.770797 161.077793 
L 238.134534 169.896263 
L 232.3433 199.190452 
L 231.514699 205.125269 
L 230.949336 211.119914 
L 230.71302 217.171394 
L 230.745925 220.204613 
L 230.892501 223.231848 
L 231.15873 226.244127 
L 231.562561 229.232476 
L 232.106985 232.190911 
L 232.806958 235.107467 
L 233.671455 237.979153 
L 234.70945 240.796995 
L 235.926925 243.549027 
L 237.323881 246.229267 
L 238.88536 248.82575 
L 240.602389 251.329501 
L 242.468985 253.734539 
L 244.476174 256.025905 
L 246.61199 258.197617 
L 248.870452 260.240702 
L 251.239593 262.143194 
L 253.710439 263.899111 
L 256.274017 265.496486 
L 258.924344 266.941303 
L 261.652446 268.233562 
L 264.443366 269.376253 
L 267.294113 270.375361 
L 270.192721 271.233875 
L 273.133208 271.951797 
L 276.103608 272.538099 
L 279.097939 272.989792 
L 282.101244 273.315848 
L 285.113523 273.516268 
L 288.125802 273.594042 
L 291.13509 273.558146 
L 297.135717 273.145341 
L 303.088483 272.313749 
L 308.963474 271.090291 
L 314.742742 269.507872 
L 320.417313 267.611363 
L 326.005136 265.46059 
L 331.515183 263.109397 
L 339.68154 259.337318 
L 350.44438 254.078543 
L 361.078593 248.6014 
L 371.59016 242.905889 
L 381.985066 236.989019 
L 392.2663 230.844808 
L 392.2663 230.844808 
" style="fill:none;stroke:#fea952;stroke-linecap:square;"/>
   </g>
   <g id="line2d_17">
    <path clip-path="url(#pc010e40005)" d="M 75.983708 184.693213 
L 75.156125 181.026512 
L 74.53444 177.367873 
L 74.111311 173.724076 
L 73.878795 170.089659 
L 73.832727 166.486744 
L 73.964318 162.916777 
L 74.264498 159.384813 
L 74.726565 155.881522 
L 75.339855 152.443184 
L 76.098877 149.034906 
L 76.993195 145.688005 
L 78.015429 142.393748 
L 79.16146 139.143794 
L 80.420505 135.956543 
L 81.791505 132.815027 
L 84.819383 126.736364 
L 88.19562 120.908415 
L 91.885667 115.317047 
L 95.840095 109.992855 
L 100.055943 104.896968 
L 104.498546 100.047415 
L 109.134295 95.443429 
L 113.960167 91.064995 
L 119.007851 86.881705 
L 124.273002 82.931154 
L 129.766789 79.227679 
L 135.496132 75.798033 
L 141.473694 72.662831 
L 147.705753 69.872634 
L 150.925221 68.620727 
L 154.205491 67.48142 
L 157.55162 66.462219 
L 160.953902 65.576547 
L 164.418715 64.832571 
L 167.919685 64.246147 
L 171.488938 63.819281 
L 175.050862 63.572818 
L 178.620664 63.49745 
L 182.171133 63.591326 
L 185.704183 63.846364 
L 189.217422 64.258007 
L 192.707701 64.822402 
L 196.148662 65.53132 
L 199.570541 66.384428 
L 202.947961 67.377176 
L 206.279166 68.505888 
L 209.563283 69.768407 
L 212.810312 71.171699 
L 216.013269 72.721251 
L 219.159425 74.420021 
L 222.223497 76.262181 
L 225.226087 78.264896 
L 228.126444 80.41502 
L 230.931213 82.722429 
L 233.642242 85.203937 
L 236.211912 87.832321 
L 238.637759 90.604937 
L 240.895203 93.491087 
L 242.997459 96.495755 
L 244.944567 99.619972 
L 246.717675 102.838611 
L 248.311201 106.134147 
L 249.733394 109.516437 
L 250.978043 112.987558 
L 252.020955 116.493676 
L 252.877961 120.073573 
L 253.521929 123.62583 
L 253.98029 127.177387 
L 254.259796 130.662753 
L 254.392441 134.122951 
L 254.392002 137.54574 
L 254.061643 144.227122 
L 253.408696 150.712082 
L 252.551756 156.99048 
L 251.013557 166.214167 
L 249.273326 175.210565 
L 244.637083 198.204201 
L 243.766433 203.691812 
L 243.120354 209.086662 
L 242.746814 214.424571 
L 242.697282 219.62594 
L 243.01631 224.641752 
L 243.741947 229.398519 
L 244.264403 231.658298 
L 244.89927 233.843216 
L 245.651855 235.95617 
L 246.537553 238.018711 
L 247.577832 240.062721 
L 248.753222 242.058542 
L 250.054863 243.993253 
L 251.469466 245.850305 
L 253.00717 247.635916 
L 254.639093 249.324319 
L 256.362378 250.911134 
L 258.17084 252.389855 
L 260.038214 253.743862 
L 262.001162 254.990792 
L 264.046551 256.127756 
L 266.186159 257.160384 
L 268.400877 258.084313 
L 270.692122 258.902639 
L 273.030709 259.60995 
L 277.88838 260.706599 
L 282.895594 261.376886 
L 287.983084 261.629535 
L 293.10338 261.485078 
L 298.261104 260.960016 
L 303.41197 260.074738 
L 308.532001 258.851569 
L 313.655659 257.296695 
L 318.811418 255.440885 
L 323.989495 253.336664 
L 331.860476 249.79872 
L 342.430424 244.703368 
L 352.865835 239.400117 
L 363.190329 233.875328 
L 373.391634 228.141822 
L 383.48474 222.182273 
L 386.045327 220.623785 
L 386.045327 220.623785 
" style="fill:none;stroke:#ffffff;stroke-linecap:square;"/>
   </g>
   <g id="line2d_18">
    <path clip-path="url(#pc010e40005)" d="M 99.302749 179.317198 
L 98.730385 176.911479 
L 98.293136 174.503682 
L 97.986378 172.093007 
L 97.806089 169.684918 
L 97.750451 167.27524 
L 97.816289 164.856546 
L 98.000705 162.429761 
L 98.298439 160.0102 
L 99.235441 155.148713 
L 100.60338 150.297143 
L 102.374214 145.480928 
L 104.523994 140.725187 
L 107.010564 136.064638 
L 109.803404 131.520883 
L 112.868378 127.123614 
L 116.173172 122.885407 
L 119.712696 118.804482 
L 123.477237 114.873845 
L 127.421915 111.114036 
L 131.528166 107.534768 
L 135.762125 104.17544 
L 140.131667 101.044829 
L 144.636594 98.159244 
L 149.290588 95.527762 
L 154.027987 93.199201 
L 158.833917 91.206823 
L 163.652384 89.602226 
L 168.457497 88.420014 
L 173.232978 87.686362 
L 175.64775 87.49609 
L 178.072594 87.42189 
L 180.528734 87.465616 
L 182.996311 87.623383 
L 187.946187 88.274634 
L 192.887173 89.362935 
L 197.755033 90.866979 
L 202.459358 92.748004 
L 206.902999 94.973834 
L 211.054752 97.548373 
L 213.006348 98.963926 
L 214.862087 100.455518 
L 216.614136 102.018301 
L 218.280203 103.679498 
L 219.856768 105.43577 
L 221.350465 107.299868 
L 222.748076 109.248859 
L 224.037598 111.263763 
L 225.219933 113.351761 
L 226.294682 115.512428 
L 227.247613 117.705995 
L 228.07297 119.918419 
L 228.777001 122.185587 
L 229.349856 124.444785 
L 229.800717 126.785467 
L 230.13207 129.162745 
L 230.461771 134.170574 
L 230.393109 139.400427 
L 229.985103 144.851378 
L 229.311639 150.473766 
L 227.98787 158.996342 
L 226.401996 167.547358 
L 220.509447 197.42135 
L 219.617389 203.850983 
L 219.001679 210.469299 
L 218.748366 217.301188 
L 218.794568 220.783285 
L 218.973602 224.285256 
L 219.30115 227.846503 
L 219.7948 231.398029 
L 220.472022 234.983302 
L 221.349513 238.556635 
L 222.44364 242.115089 
L 223.767045 245.637819 
L 225.316298 249.079343 
L 227.06993 252.395814 
L 229.017498 255.592958 
L 231.149915 258.66575 
L 233.468504 261.618772 
L 235.945177 264.415893 
L 238.584887 267.070916 
L 241.378526 269.570271 
L 244.308346 271.896533 
L 247.382665 274.054359 
L 250.546872 276.00218 
L 253.802138 277.75485 
L 257.118734 279.306739 
L 260.485855 280.668194 
L 263.896103 281.848082 
L 267.354733 282.8578 
L 270.816169 283.69067 
L 274.318836 284.3696 
L 277.806499 284.885253 
L 281.306894 285.25481 
L 284.804689 285.47764 
L 288.26852 285.55855 
L 291.742109 285.508097 
L 295.173409 285.326098 
L 298.589043 285.022111 
L 301.975061 284.60078 
L 305.341036 284.065166 
L 311.946857 282.677751 
L 318.389927 280.90383 
L 324.604207 278.820276 
L 330.617376 276.501289 
L 336.43229 274.017736 
L 344.850395 270.128645 
L 355.838465 264.75907 
L 366.69629 259.166024 
L 377.424433 253.352471 
L 388.042324 247.307906 
L 398.487273 241.06583 
L 398.487273 241.06583 
" style="fill:none;stroke:#ffffff;stroke-linecap:square;"/>
   </g>
   <g id="patch_3">
    <path d="M 57.6 307.584 
L 57.6 41.472 
" style="fill:none;stroke:#000000;stroke-linecap:square;stroke-linejoin:miter;stroke-width:0.8;"/>
   </g>
   <g id="patch_4">
    <path d="M 414.72 307.584 
L 414.72 41.472 
" style="fill:none;stroke:#000000;stroke-linecap:square;stroke-linejoin:miter;stroke-width:0.8;"/>
   </g>
   <g id="patch_5">
    <path d="M 57.6 307.584 
L 414.72 307.584 
" style="fill:none;stroke:#000000;stroke-linecap:square;stroke-linejoin:miter;stroke-width:0.8;"/>
   </g>
   <g id="patch_6">
    <path d="M 57.6 41.472 
L 414.72 41.472 
" style="fill:none;stroke:#000000;stroke-linecap:square;stroke-linejoin:miter;stroke-width:0.8;"/>
   </g>
  </g>
 </g>
 <defs>
  <clipPath id="pc010e40005">
   <rect height="266.112" width="357.12" x="57.6" y="41.472"/>
  </clipPath>
 </defs>
</svg>
