<?xml version="1.0" encoding="utf-8" standalone="no"?>
<!DOCTYPE svg PUBLIC "-//W3C//DTD SVG 1.1//EN"
  "http://www.w3.org/Graphics/SVG/1.1/DTD/svg11.dtd">
<!-- Created with matplotlib (https://matplotlib.org/) -->
<svg height="345.6pt" version="1.1" viewBox="0 0 460.8 345.6" width="460.8pt" xmlns="http://www.w3.org/2000/svg" xmlns:xlink="http://www.w3.org/1999/xlink">
 <metadata>
  <rdf:RDF xmlns:cc="http://creativecommons.org/ns#" xmlns:dc="http://purl.org/dc/elements/1.1/" xmlns:rdf="http://www.w3.org/1999/02/22-rdf-syntax-ns#">
   <cc:Work>
    <dc:type rdf:resource="http://purl.org/dc/dcmitype/StillImage"/>
    <dc:date>2021-01-23T12:01:15.846594</dc:date>
    <dc:format>image/svg+xml</dc:format>
    <dc:creator>
     <cc:Agent>
      <dc:title>Matplotlib v3.3.3, https://matplotlib.org/</dc:title>
     </cc:Agent>
    </dc:creator>
   </cc:Work>
  </rdf:RDF>
 </metadata>
 <defs>
  <style type="text/css">*{stroke-linecap:butt;stroke-linejoin:round;}</style>
 </defs>
 <g id="figure_1">
  <g id="patch_1">
   <path d="M 0 345.6 
L 460.8 345.6 
L 460.8 0 
L 0 0 
z
" style="fill:#ffffff;"/>
  </g>
  <g id="axes_1">
   <g id="patch_2">
    <path d="M 57.6 307.584 
L 414.72 307.584 
L 414.72 41.472 
L 57.6 41.472 
z
" style="fill:#7d9051;"/>
   </g>
   <g id="matplotlib.axis_1">
    <g id="xtick_1">
     <g id="line2d_1">
      <defs>
       <path d="M 0 0 
L 0 3.5 
" id="m6822fc7b12" style="stroke:#000000;stroke-width:0.8;"/>
      </defs>
      <g>
       <use style="stroke:#000000;stroke-width:0.8;" x="59.133761" xlink:href="#m6822fc7b12" y="307.584"/>
      </g>
     </g>
     <g id="text_1">
      <!-- −20 -->
      <g transform="translate(48.581417 322.182437)scale(0.1 -0.1)">
       <defs>
        <path d="M 10.59375 35.5 
L 73.1875 35.5 
L 73.1875 27.203125 
L 10.59375 27.203125 
z
" id="DejaVuSans-8722"/>
        <path d="M 19.1875 8.296875 
L 53.609375 8.296875 
L 53.609375 0 
L 7.328125 0 
L 7.328125 8.296875 
Q 12.9375 14.109375 22.625 23.890625 
Q 32.328125 33.6875 34.8125 36.53125 
Q 39.546875 41.84375 41.421875 45.53125 
Q 43.3125 49.21875 43.3125 52.78125 
Q 43.3125 58.59375 39.234375 62.25 
Q 35.15625 65.921875 28.609375 65.921875 
Q 23.96875 65.921875 18.8125 64.3125 
Q 13.671875 62.703125 7.8125 59.421875 
L 7.8125 69.390625 
Q 13.765625 71.78125 18.9375 73 
Q 24.125 74.21875 28.421875 74.21875 
Q 39.75 74.21875 46.484375 68.546875 
Q 53.21875 62.890625 53.21875 53.421875 
Q 53.21875 48.921875 51.53125 44.890625 
Q 49.859375 40.875 45.40625 35.40625 
Q 44.1875 33.984375 37.640625 27.21875 
Q 31.109375 20.453125 19.1875 8.296875 
z
" id="DejaVuSans-50"/>
        <path d="M 31.78125 66.40625 
Q 24.171875 66.40625 20.328125 58.90625 
Q 16.5 51.421875 16.5 36.375 
Q 16.5 21.390625 20.328125 13.890625 
Q 24.171875 6.390625 31.78125 6.390625 
Q 39.453125 6.390625 43.28125 13.890625 
Q 47.125 21.390625 47.125 36.375 
Q 47.125 51.421875 43.28125 58.90625 
Q 39.453125 66.40625 31.78125 66.40625 
z
M 31.78125 74.21875 
Q 44.046875 74.21875 50.515625 64.515625 
Q 56.984375 54.828125 56.984375 36.375 
Q 56.984375 17.96875 50.515625 8.265625 
Q 44.046875 -1.421875 31.78125 -1.421875 
Q 19.53125 -1.421875 13.0625 8.265625 
Q 6.59375 17.96875 6.59375 36.375 
Q 6.59375 54.828125 13.0625 64.515625 
Q 19.53125 74.21875 31.78125 74.21875 
z
" id="DejaVuSans-48"/>
       </defs>
       <use xlink:href="#DejaVuSans-8722"/>
       <use x="83.789062" xlink:href="#DejaVuSans-50"/>
       <use x="147.412109" xlink:href="#DejaVuSans-48"/>
      </g>
     </g>
    </g>
    <g id="xtick_2">
     <g id="line2d_2">
      <g>
       <use style="stroke:#000000;stroke-width:0.8;" x="113.342512" xlink:href="#m6822fc7b12" y="307.584"/>
      </g>
     </g>
     <g id="text_2">
      <!-- 0 -->
      <g transform="translate(110.161262 322.182437)scale(0.1 -0.1)">
       <use xlink:href="#DejaVuSans-48"/>
      </g>
     </g>
    </g>
    <g id="xtick_3">
     <g id="line2d_3">
      <g>
       <use style="stroke:#000000;stroke-width:0.8;" x="167.551264" xlink:href="#m6822fc7b12" y="307.584"/>
      </g>
     </g>
     <g id="text_3">
      <!-- 20 -->
      <g transform="translate(161.188764 322.182437)scale(0.1 -0.1)">
       <use xlink:href="#DejaVuSans-50"/>
       <use x="63.623047" xlink:href="#DejaVuSans-48"/>
      </g>
     </g>
    </g>
    <g id="xtick_4">
     <g id="line2d_4">
      <g>
       <use style="stroke:#000000;stroke-width:0.8;" x="221.760015" xlink:href="#m6822fc7b12" y="307.584"/>
      </g>
     </g>
     <g id="text_4">
      <!-- 40 -->
      <g transform="translate(215.397515 322.182437)scale(0.1 -0.1)">
       <defs>
        <path d="M 37.796875 64.3125 
L 12.890625 25.390625 
L 37.796875 25.390625 
z
M 35.203125 72.90625 
L 47.609375 72.90625 
L 47.609375 25.390625 
L 58.015625 25.390625 
L 58.015625 17.1875 
L 47.609375 17.1875 
L 47.609375 0 
L 37.796875 0 
L 37.796875 17.1875 
L 4.890625 17.1875 
L 4.890625 26.703125 
z
" id="DejaVuSans-52"/>
       </defs>
       <use xlink:href="#DejaVuSans-52"/>
       <use x="63.623047" xlink:href="#DejaVuSans-48"/>
      </g>
     </g>
    </g>
    <g id="xtick_5">
     <g id="line2d_5">
      <g>
       <use style="stroke:#000000;stroke-width:0.8;" x="275.968766" xlink:href="#m6822fc7b12" y="307.584"/>
      </g>
     </g>
     <g id="text_5">
      <!-- 60 -->
      <g transform="translate(269.606266 322.182437)scale(0.1 -0.1)">
       <defs>
        <path d="M 33.015625 40.375 
Q 26.375 40.375 22.484375 35.828125 
Q 18.609375 31.296875 18.609375 23.390625 
Q 18.609375 15.53125 22.484375 10.953125 
Q 26.375 6.390625 33.015625 6.390625 
Q 39.65625 6.390625 43.53125 10.953125 
Q 47.40625 15.53125 47.40625 23.390625 
Q 47.40625 31.296875 43.53125 35.828125 
Q 39.65625 40.375 33.015625 40.375 
z
M 52.59375 71.296875 
L 52.59375 62.3125 
Q 48.875 64.0625 45.09375 64.984375 
Q 41.3125 65.921875 37.59375 65.921875 
Q 27.828125 65.921875 22.671875 59.328125 
Q 17.53125 52.734375 16.796875 39.40625 
Q 19.671875 43.65625 24.015625 45.921875 
Q 28.375 48.1875 33.59375 48.1875 
Q 44.578125 48.1875 50.953125 41.515625 
Q 57.328125 34.859375 57.328125 23.390625 
Q 57.328125 12.15625 50.6875 5.359375 
Q 44.046875 -1.421875 33.015625 -1.421875 
Q 20.359375 -1.421875 13.671875 8.265625 
Q 6.984375 17.96875 6.984375 36.375 
Q 6.984375 53.65625 15.1875 63.9375 
Q 23.390625 74.21875 37.203125 74.21875 
Q 40.921875 74.21875 44.703125 73.484375 
Q 48.484375 72.75 52.59375 71.296875 
z
" id="DejaVuSans-54"/>
       </defs>
       <use xlink:href="#DejaVuSans-54"/>
       <use x="63.623047" xlink:href="#DejaVuSans-48"/>
      </g>
     </g>
    </g>
    <g id="xtick_6">
     <g id="line2d_6">
      <g>
       <use style="stroke:#000000;stroke-width:0.8;" x="330.177518" xlink:href="#m6822fc7b12" y="307.584"/>
      </g>
     </g>
     <g id="text_6">
      <!-- 80 -->
      <g transform="translate(323.815018 322.182437)scale(0.1 -0.1)">
       <defs>
        <path d="M 31.78125 34.625 
Q 24.75 34.625 20.71875 30.859375 
Q 16.703125 27.09375 16.703125 20.515625 
Q 16.703125 13.921875 20.71875 10.15625 
Q 24.75 6.390625 31.78125 6.390625 
Q 38.8125 6.390625 42.859375 10.171875 
Q 46.921875 13.96875 46.921875 20.515625 
Q 46.921875 27.09375 42.890625 30.859375 
Q 38.875 34.625 31.78125 34.625 
z
M 21.921875 38.8125 
Q 15.578125 40.375 12.03125 44.71875 
Q 8.5 49.078125 8.5 55.328125 
Q 8.5 64.0625 14.71875 69.140625 
Q 20.953125 74.21875 31.78125 74.21875 
Q 42.671875 74.21875 48.875 69.140625 
Q 55.078125 64.0625 55.078125 55.328125 
Q 55.078125 49.078125 51.53125 44.71875 
Q 48 40.375 41.703125 38.8125 
Q 48.828125 37.15625 52.796875 32.3125 
Q 56.78125 27.484375 56.78125 20.515625 
Q 56.78125 9.90625 50.3125 4.234375 
Q 43.84375 -1.421875 31.78125 -1.421875 
Q 19.734375 -1.421875 13.25 4.234375 
Q 6.78125 9.90625 6.78125 20.515625 
Q 6.78125 27.484375 10.78125 32.3125 
Q 14.796875 37.15625 21.921875 38.8125 
z
M 18.3125 54.390625 
Q 18.3125 48.734375 21.84375 45.5625 
Q 25.390625 42.390625 31.78125 42.390625 
Q 38.140625 42.390625 41.71875 45.5625 
Q 45.3125 48.734375 45.3125 54.390625 
Q 45.3125 60.0625 41.71875 63.234375 
Q 38.140625 66.40625 31.78125 66.40625 
Q 25.390625 66.40625 21.84375 63.234375 
Q 18.3125 60.0625 18.3125 54.390625 
z
" id="DejaVuSans-56"/>
       </defs>
       <use xlink:href="#DejaVuSans-56"/>
       <use x="63.623047" xlink:href="#DejaVuSans-48"/>
      </g>
     </g>
    </g>
    <g id="xtick_7">
     <g id="line2d_7">
      <g>
       <use style="stroke:#000000;stroke-width:0.8;" x="384.386269" xlink:href="#m6822fc7b12" y="307.584"/>
      </g>
     </g>
     <g id="text_7">
      <!-- 100 -->
      <g transform="translate(374.842519 322.182437)scale(0.1 -0.1)">
       <defs>
        <path d="M 12.40625 8.296875 
L 28.515625 8.296875 
L 28.515625 63.921875 
L 10.984375 60.40625 
L 10.984375 69.390625 
L 28.421875 72.90625 
L 38.28125 72.90625 
L 38.28125 8.296875 
L 54.390625 8.296875 
L 54.390625 0 
L 12.40625 0 
z
" id="DejaVuSans-49"/>
       </defs>
       <use xlink:href="#DejaVuSans-49"/>
       <use x="63.623047" xlink:href="#DejaVuSans-48"/>
       <use x="127.246094" xlink:href="#DejaVuSans-48"/>
      </g>
     </g>
    </g>
   </g>
   <g id="matplotlib.axis_2">
    <g id="ytick_1">
     <g id="line2d_8">
      <defs>
       <path d="M 0 0 
L -3.5 0 
" id="mfd994f500c" style="stroke:#000000;stroke-width:0.8;"/>
      </defs>
      <g>
       <use style="stroke:#000000;stroke-width:0.8;" x="57.6" xlink:href="#mfd994f500c" y="267.636541"/>
      </g>
     </g>
     <g id="text_8">
      <!-- 20 -->
      <g transform="translate(37.875 271.43576)scale(0.1 -0.1)">
       <use xlink:href="#DejaVuSans-50"/>
       <use x="63.623047" xlink:href="#DejaVuSans-48"/>
      </g>
     </g>
    </g>
    <g id="ytick_2">
     <g id="line2d_9">
      <g>
       <use style="stroke:#000000;stroke-width:0.8;" x="57.6" xlink:href="#mfd994f500c" y="213.42779"/>
      </g>
     </g>
     <g id="text_9">
      <!-- 40 -->
      <g transform="translate(37.875 217.227009)scale(0.1 -0.1)">
       <use xlink:href="#DejaVuSans-52"/>
       <use x="63.623047" xlink:href="#DejaVuSans-48"/>
      </g>
     </g>
    </g>
    <g id="ytick_3">
     <g id="line2d_10">
      <g>
       <use style="stroke:#000000;stroke-width:0.8;" x="57.6" xlink:href="#mfd994f500c" y="159.219038"/>
      </g>
     </g>
     <g id="text_10">
      <!-- 60 -->
      <g transform="translate(37.875 163.018257)scale(0.1 -0.1)">
       <use xlink:href="#DejaVuSans-54"/>
       <use x="63.623047" xlink:href="#DejaVuSans-48"/>
      </g>
     </g>
    </g>
    <g id="ytick_4">
     <g id="line2d_11">
      <g>
       <use style="stroke:#000000;stroke-width:0.8;" x="57.6" xlink:href="#mfd994f500c" y="105.010287"/>
      </g>
     </g>
     <g id="text_11">
      <!-- 80 -->
      <g transform="translate(37.875 108.809506)scale(0.1 -0.1)">
       <use xlink:href="#DejaVuSans-56"/>
       <use x="63.623047" xlink:href="#DejaVuSans-48"/>
      </g>
     </g>
    </g>
    <g id="ytick_5">
     <g id="line2d_12">
      <g>
       <use style="stroke:#000000;stroke-width:0.8;" x="57.6" xlink:href="#mfd994f500c" y="50.801536"/>
      </g>
     </g>
     <g id="text_12">
      <!-- 100 -->
      <g transform="translate(31.5125 54.600754)scale(0.1 -0.1)">
       <use xlink:href="#DejaVuSans-49"/>
       <use x="63.623047" xlink:href="#DejaVuSans-48"/>
       <use x="127.246094" xlink:href="#DejaVuSans-48"/>
      </g>
     </g>
    </g>
   </g>
   <g id="line2d_13">
    <path clip-path="url(#p307e38959e)" d="M 330.052838 294.740917 
L 330.879521 284.088897 
L 331.670969 273.187517 
L 331.887804 267.698881 
L 331.901356 262.215666 
L 331.643864 256.762266 
L 331.0557 251.357653 
L 330.063679 246.026222 
L 329.399622 243.397098 
L 328.610885 240.792367 
L 327.692047 238.220162 
L 326.643107 235.688614 
L 325.466777 233.203142 
L 324.171188 230.777301 
L 322.753629 228.41922 
L 321.219522 226.137032 
L 319.571576 223.941577 
L 317.815212 221.843698 
L 315.950431 219.851527 
L 313.982653 217.973194 
L 311.914589 216.21954 
L 309.757081 214.582436 
L 307.515549 213.053749 
L 305.200836 211.628059 
L 300.389809 209.050433 
L 295.397183 206.795349 
L 290.296139 204.797757 
L 285.151729 203.003447 
L 277.383615 200.580316 
L 264.373514 196.8887 
L 248.764104 192.346006 
L 233.217035 187.540401 
L 215.16552 181.696697 
L 199.756683 176.568549 
L 192.088855 173.855401 
L 184.458973 170.93897 
L 179.428401 168.82754 
L 174.498115 166.510115 
L 169.722324 163.924358 
L 165.152526 161.007927 
L 162.965203 159.406059 
L 160.845641 157.701193 
L 158.807392 155.893331 
L 156.850456 153.987894 
L 154.977544 151.993012 
L 153.199497 149.908685 
L 151.519025 147.745756 
L 149.941551 145.504224 
L 148.469783 143.192221 
L 147.111854 140.812457 
L 145.870473 138.370353 
L 144.753773 135.87404 
L 143.759043 133.323518 
L 142.888992 130.729629 
L 142.146332 128.097794 
L 141.533773 125.430724 
L 141.048605 122.736549 
L 140.698959 120.023401 
L 140.479413 117.29399 
L 140.39539 114.556448 
L 140.446888 111.813485 
L 140.636619 109.075943 
L 140.961871 106.349243 
L 141.428066 103.641516 
L 142.029783 100.963604 
L 142.767022 98.318217 
L 143.645204 95.721617 
L 144.658908 93.173806 
L 145.808133 90.691045 
L 147.095591 88.276045 
L 148.521281 85.939648 
L 150.079783 83.689985 
L 151.771096 81.532477 
L 153.584379 79.475255 
L 155.51421 77.52374 
L 157.552459 75.680642 
L 159.693705 73.959514 
L 161.932526 72.357646 
L 164.260792 70.888588 
L 166.670371 69.557764 
L 169.155843 68.367881 
L 171.709075 67.327073 
L 174.321937 66.43805 
L 176.980876 65.703521 
L 179.677761 65.131619 
L 182.404461 64.719633 
L 185.144714 64.475693 
L 187.895808 64.402511 
L 190.638771 64.502798 
L 193.370892 64.779262 
L 196.078619 65.234616 
L 198.75111 65.874279 
L 201.380235 66.68741 
L 203.955151 67.671299 
L 206.467726 68.812393 
L 208.90712 70.102562 
L 211.265201 71.539093 
L 213.533837 73.105726 
L 215.699477 74.80246 
L 217.756699 76.613033 
L 219.694662 78.534733 
L 221.507944 80.55943 
L 223.199257 82.673571 
L 224.782153 84.871736 
L 226.264762 87.143083 
L 228.964358 91.872796 
L 231.371227 96.79224 
L 233.55855 101.825523 
L 235.585957 106.915725 
L 237.434475 112.049293 
L 239.066159 117.22894 
L 240.451192 122.451953 
L 241.54892 127.726464 
L 242.326815 133.047053 
L 242.749644 138.41643 
L 242.779458 143.837305 
L 242.638516 146.564005 
L 242.383734 149.306968 
L 242.015115 152.060773 
L 241.527236 154.83084 
L 241.527236 154.83084 
" style="fill:none;stroke:#fea952;stroke-linecap:square;"/>
   </g>
   <g id="line2d_14">
    <path clip-path="url(#p307e38959e)" d="M 319.236858 293.993834 
L 320.07411 283.201967 
L 320.841393 272.673862 
L 321.046948 267.559621 
L 321.065411 262.570414 
L 320.847707 257.755512 
L 320.358838 253.124207 
L 319.552042 248.681224 
L 318.400998 244.439524 
L 316.843485 240.326603 
L 314.879179 236.363186 
L 312.548691 232.645507 
L 311.25858 230.901294 
L 309.900045 229.252725 
L 308.464465 227.693967 
L 306.970768 226.242233 
L 305.361032 224.856348 
L 303.648516 223.539499 
L 299.896299 221.083504 
L 295.783251 218.86487 
L 291.331851 216.846052 
L 286.642154 215.005202 
L 281.807792 213.316625 
L 274.352097 210.989612 
L 261.410827 207.317795 
L 245.63285 202.725736 
L 232.530742 198.695163 
L 214.367338 192.84332 
L 196.207995 186.813078 
L 188.315261 184.019236 
L 180.352671 180.973004 
L 174.936372 178.694922 
L 169.494543 176.128214 
L 164.075909 173.17971 
L 161.391188 171.531433 
L 158.746749 169.754902 
L 156.170042 167.854096 
L 153.651481 165.81215 
L 151.244006 163.661133 
L 148.946356 161.408727 
L 146.729239 159.029277 
L 144.638072 156.560419 
L 142.652759 153.985378 
L 140.795667 151.326282 
L 139.05321 148.565459 
L 137.447091 145.725288 
L 135.973821 142.79752 
L 134.653043 139.813432 
L 133.480118 136.771308 
L 132.454713 133.674009 
L 131.579698 130.524684 
L 130.863653 127.352204 
L 130.295777 124.122278 
L 129.892113 120.89267 
L 129.642766 117.6266 
L 129.55555 114.352933 
L 129.631083 111.063875 
L 129.871187 107.791796 
L 130.277327 104.509662 
L 130.850062 101.264677 
L 131.586019 98.053047 
L 132.496742 94.844761 
L 133.571518 91.713576 
L 134.820075 88.619587 
L 136.240992 85.590717 
L 137.840809 82.628696 
L 139.609212 79.765624 
L 141.547282 77.00119 
L 143.63779 74.363594 
L 145.875396 71.851927 
L 148.242576 69.482167 
L 150.760123 67.230334 
L 153.384999 65.142271 
L 156.147124 63.18853 
L 159.019156 61.39813 
L 161.988866 59.778855 
L 165.063253 58.328247 
L 168.216795 57.063179 
L 171.435046 55.987719 
L 174.731785 55.09762 
L 178.058028 54.411544 
L 181.443122 53.920587 
L 184.856415 53.637777 
L 188.291931 53.568 
L 191.730279 53.716132 
L 195.168882 54.08764 
L 198.602319 54.690684 
L 201.954519 55.51659 
L 205.250042 56.559817 
L 208.438289 57.799875 
L 211.536533 59.228514 
L 214.547631 60.84361 
L 217.425898 62.617807 
L 220.220304 64.571401 
L 222.862323 66.663837 
L 225.390604 68.914524 
L 227.770988 71.301718 
L 229.973929 73.786642 
L 231.997298 76.338113 
L 233.860946 78.945602 
L 235.581453 81.598462 
L 238.637779 86.977036 
L 241.275008 92.381043 
L 243.598041 97.732582 
L 245.752795 103.150229 
L 247.738095 108.67602 
L 249.509416 114.316564 
L 251.034256 120.097739 
L 252.25045 125.988422 
L 253.118791 132.009363 
L 253.588254 138.155521 
L 253.655534 141.259246 
L 253.606754 144.396967 
L 253.433797 147.566729 
L 253.129639 150.745396 
L 252.204644 156.711401 
L 252.204644 156.711401 
" style="fill:none;stroke:#ffffff;stroke-linecap:square;"/>
   </g>
   <g id="line2d_15">
    <path clip-path="url(#p307e38959e)" d="M 340.868817 295.488 
L 341.684932 284.975828 
L 342.500544 273.701173 
L 342.72866 267.838141 
L 342.737301 261.860918 
L 342.440022 255.769019 
L 341.752561 249.5911 
L 341.230276 246.483344 
L 340.575317 243.371221 
L 339.776077 240.255008 
L 338.820772 237.145211 
L 337.708045 234.070064 
L 336.44273 231.050624 
L 335.030068 228.095597 
L 333.463197 225.191415 
L 331.751428 222.370818 
L 329.890352 219.628556 
L 327.884571 216.98186 
L 325.730379 214.434671 
L 323.436397 212.009087 
L 320.994539 209.704154 
L 318.468147 207.582733 
L 315.865646 205.625373 
L 313.201301 203.82251 
L 310.505372 202.172614 
L 307.758172 200.64075 
L 302.231047 197.943138 
L 296.698371 195.62949 
L 291.216054 193.613127 
L 283.091862 190.973399 
L 272.50543 187.909185 
L 257.041262 183.495469 
L 241.630634 178.822876 
L 226.243276 173.909002 
L 205.824574 167.184985 
L 195.862449 163.691566 
L 188.565275 160.904937 
L 183.92043 158.960158 
L 179.501687 156.892017 
L 175.368739 154.669006 
L 171.558303 152.260952 
L 168.039801 149.590237 
L 164.754556 146.567061 
L 161.760921 143.256952 
L 159.087435 139.682167 
L 156.776616 135.899625 
L 154.854503 131.934648 
L 153.323271 127.78525 
L 152.203893 123.509243 
L 151.801433 121.35082 
L 151.31606 116.96138 
L 151.262693 112.563096 
L 151.646415 108.188824 
L 152.473547 103.874161 
L 153.037303 101.791673 
L 153.71889 99.729659 
L 154.497741 97.728026 
L 155.375275 95.791373 
L 156.350373 93.923395 
L 157.433351 92.113672 
L 158.612284 90.37878 
L 159.904402 88.701359 
L 161.293362 87.098582 
L 162.785845 85.565312 
L 164.344796 84.130951 
L 166.002411 82.776758 
L 167.717929 81.526761 
L 169.502429 80.379047 
L 171.351877 79.336672 
L 173.248432 78.407516 
L 175.201354 77.590968 
L 177.208827 76.888381 
L 179.229966 76.309423 
L 181.297494 75.851694 
L 183.365801 75.518678 
L 185.433013 75.31361 
L 187.499685 75.237023 
L 189.547263 75.289463 
L 191.572901 75.470884 
L 193.554919 75.778547 
L 195.547701 76.231968 
L 197.510428 76.815003 
L 199.472012 77.542723 
L 201.398919 78.396273 
L 203.266609 79.361513 
L 205.104503 80.46038 
L 206.84737 81.640051 
L 208.53663 82.941083 
L 210.122793 84.311541 
L 211.618335 85.767748 
L 213.04196 87.332217 
L 214.401216 89.009028 
L 216.948071 92.687703 
L 219.290937 96.768556 
L 221.467445 101.203438 
L 223.519058 105.918464 
L 225.419119 110.68122 
L 227.130856 115.422567 
L 228.622902 120.141315 
L 229.868129 124.806167 
L 230.847389 129.464507 
L 231.534839 134.084743 
L 231.911033 138.677339 
L 231.952163 143.277644 
L 231.637829 147.86854 
L 231.337707 150.180212 
L 230.849828 152.950279 
L 230.849828 152.950279 
" style="fill:none;stroke:#ffffff;stroke-linecap:square;"/>
   </g>
   <g id="patch_3">
    <path d="M 57.6 307.584 
L 57.6 41.472 
" style="fill:none;stroke:#000000;stroke-linecap:square;stroke-linejoin:miter;stroke-width:0.8;"/>
   </g>
   <g id="patch_4">
    <path d="M 414.72 307.584 
L 414.72 41.472 
" style="fill:none;stroke:#000000;stroke-linecap:square;stroke-linejoin:miter;stroke-width:0.8;"/>
   </g>
   <g id="patch_5">
    <path d="M 57.6 307.584 
L 414.72 307.584 
" style="fill:none;stroke:#000000;stroke-linecap:square;stroke-linejoin:miter;stroke-width:0.8;"/>
   </g>
   <g id="patch_6">
    <path d="M 57.6 41.472 
L 414.72 41.472 
" style="fill:none;stroke:#000000;stroke-linecap:square;stroke-linejoin:miter;stroke-width:0.8;"/>
   </g>
  </g>
 </g>
 <defs>
  <clipPath id="p307e38959e">
   <rect height="266.112" width="357.12" x="57.6" y="41.472"/>
  </clipPath>
 </defs>
</svg>
