<?xml version="1.0" encoding="utf-8" standalone="no"?>
<!DOCTYPE svg PUBLIC "-//W3C//DTD SVG 1.1//EN"
  "http://www.w3.org/Graphics/SVG/1.1/DTD/svg11.dtd">
<!-- Created with matplotlib (https://matplotlib.org/) -->
<svg height="345.6pt" version="1.1" viewBox="0 0 460.8 345.6" width="460.8pt" xmlns="http://www.w3.org/2000/svg" xmlns:xlink="http://www.w3.org/1999/xlink">
 <metadata>
  <rdf:RDF xmlns:cc="http://creativecommons.org/ns#" xmlns:dc="http://purl.org/dc/elements/1.1/" xmlns:rdf="http://www.w3.org/1999/02/22-rdf-syntax-ns#">
   <cc:Work>
    <dc:type rdf:resource="http://purl.org/dc/dcmitype/StillImage"/>
    <dc:date>2021-01-25T10:21:18.976708</dc:date>
    <dc:format>image/svg+xml</dc:format>
    <dc:creator>
     <cc:Agent>
      <dc:title>Matplotlib v3.3.3, https://matplotlib.org/</dc:title>
     </cc:Agent>
    </dc:creator>
   </cc:Work>
  </rdf:RDF>
 </metadata>
 <defs>
  <style type="text/css">*{stroke-linecap:butt;stroke-linejoin:round;}</style>
 </defs>
 <g id="figure_1">
  <g id="patch_1">
   <path d="M 0 345.6 
L 460.8 345.6 
L 460.8 0 
L 0 0 
z
" style="fill:#ffffff;"/>
  </g>
  <g id="axes_1">
   <g id="patch_2">
    <path d="M 57.6 307.584 
L 414.72 307.584 
L 414.72 41.472 
L 57.6 41.472 
z
" style="fill:#7d9051;"/>
   </g>
   <g id="matplotlib.axis_1">
    <g id="xtick_1">
     <g id="line2d_1">
      <defs>
       <path d="M 0 0 
L 0 3.5 
" id="mc963da670a" style="stroke:#000000;stroke-width:0.8;"/>
      </defs>
      <g>
       <use style="stroke:#000000;stroke-width:0.8;" x="114.863841" xlink:href="#mc963da670a" y="307.584"/>
      </g>
     </g>
     <g id="text_1">
      <!-- 0 -->
      <g transform="translate(111.682591 322.182437)scale(0.1 -0.1)">
       <defs>
        <path d="M 31.78125 66.40625 
Q 24.171875 66.40625 20.328125 58.90625 
Q 16.5 51.421875 16.5 36.375 
Q 16.5 21.390625 20.328125 13.890625 
Q 24.171875 6.390625 31.78125 6.390625 
Q 39.453125 6.390625 43.28125 13.890625 
Q 47.125 21.390625 47.125 36.375 
Q 47.125 51.421875 43.28125 58.90625 
Q 39.453125 66.40625 31.78125 66.40625 
z
M 31.78125 74.21875 
Q 44.046875 74.21875 50.515625 64.515625 
Q 56.984375 54.828125 56.984375 36.375 
Q 56.984375 17.96875 50.515625 8.265625 
Q 44.046875 -1.421875 31.78125 -1.421875 
Q 19.53125 -1.421875 13.0625 8.265625 
Q 6.59375 17.96875 6.59375 36.375 
Q 6.59375 54.828125 13.0625 64.515625 
Q 19.53125 74.21875 31.78125 74.21875 
z
" id="DejaVuSans-48"/>
       </defs>
       <use xlink:href="#DejaVuSans-48"/>
      </g>
     </g>
    </g>
    <g id="xtick_2">
     <g id="line2d_2">
      <g>
       <use style="stroke:#000000;stroke-width:0.8;" x="176.049074" xlink:href="#mc963da670a" y="307.584"/>
      </g>
     </g>
     <g id="text_2">
      <!-- 20 -->
      <g transform="translate(169.686574 322.182437)scale(0.1 -0.1)">
       <defs>
        <path d="M 19.1875 8.296875 
L 53.609375 8.296875 
L 53.609375 0 
L 7.328125 0 
L 7.328125 8.296875 
Q 12.9375 14.109375 22.625 23.890625 
Q 32.328125 33.6875 34.8125 36.53125 
Q 39.546875 41.84375 41.421875 45.53125 
Q 43.3125 49.21875 43.3125 52.78125 
Q 43.3125 58.59375 39.234375 62.25 
Q 35.15625 65.921875 28.609375 65.921875 
Q 23.96875 65.921875 18.8125 64.3125 
Q 13.671875 62.703125 7.8125 59.421875 
L 7.8125 69.390625 
Q 13.765625 71.78125 18.9375 73 
Q 24.125 74.21875 28.421875 74.21875 
Q 39.75 74.21875 46.484375 68.546875 
Q 53.21875 62.890625 53.21875 53.421875 
Q 53.21875 48.921875 51.53125 44.890625 
Q 49.859375 40.875 45.40625 35.40625 
Q 44.1875 33.984375 37.640625 27.21875 
Q 31.109375 20.453125 19.1875 8.296875 
z
" id="DejaVuSans-50"/>
       </defs>
       <use xlink:href="#DejaVuSans-50"/>
       <use x="63.623047" xlink:href="#DejaVuSans-48"/>
      </g>
     </g>
    </g>
    <g id="xtick_3">
     <g id="line2d_3">
      <g>
       <use style="stroke:#000000;stroke-width:0.8;" x="237.234308" xlink:href="#mc963da670a" y="307.584"/>
      </g>
     </g>
     <g id="text_3">
      <!-- 40 -->
      <g transform="translate(230.871808 322.182437)scale(0.1 -0.1)">
       <defs>
        <path d="M 37.796875 64.3125 
L 12.890625 25.390625 
L 37.796875 25.390625 
z
M 35.203125 72.90625 
L 47.609375 72.90625 
L 47.609375 25.390625 
L 58.015625 25.390625 
L 58.015625 17.1875 
L 47.609375 17.1875 
L 47.609375 0 
L 37.796875 0 
L 37.796875 17.1875 
L 4.890625 17.1875 
L 4.890625 26.703125 
z
" id="DejaVuSans-52"/>
       </defs>
       <use xlink:href="#DejaVuSans-52"/>
       <use x="63.623047" xlink:href="#DejaVuSans-48"/>
      </g>
     </g>
    </g>
    <g id="xtick_4">
     <g id="line2d_4">
      <g>
       <use style="stroke:#000000;stroke-width:0.8;" x="298.419541" xlink:href="#mc963da670a" y="307.584"/>
      </g>
     </g>
     <g id="text_4">
      <!-- 60 -->
      <g transform="translate(292.057041 322.182437)scale(0.1 -0.1)">
       <defs>
        <path d="M 33.015625 40.375 
Q 26.375 40.375 22.484375 35.828125 
Q 18.609375 31.296875 18.609375 23.390625 
Q 18.609375 15.53125 22.484375 10.953125 
Q 26.375 6.390625 33.015625 6.390625 
Q 39.65625 6.390625 43.53125 10.953125 
Q 47.40625 15.53125 47.40625 23.390625 
Q 47.40625 31.296875 43.53125 35.828125 
Q 39.65625 40.375 33.015625 40.375 
z
M 52.59375 71.296875 
L 52.59375 62.3125 
Q 48.875 64.0625 45.09375 64.984375 
Q 41.3125 65.921875 37.59375 65.921875 
Q 27.828125 65.921875 22.671875 59.328125 
Q 17.53125 52.734375 16.796875 39.40625 
Q 19.671875 43.65625 24.015625 45.921875 
Q 28.375 48.1875 33.59375 48.1875 
Q 44.578125 48.1875 50.953125 41.515625 
Q 57.328125 34.859375 57.328125 23.390625 
Q 57.328125 12.15625 50.6875 5.359375 
Q 44.046875 -1.421875 33.015625 -1.421875 
Q 20.359375 -1.421875 13.671875 8.265625 
Q 6.984375 17.96875 6.984375 36.375 
Q 6.984375 53.65625 15.1875 63.9375 
Q 23.390625 74.21875 37.203125 74.21875 
Q 40.921875 74.21875 44.703125 73.484375 
Q 48.484375 72.75 52.59375 71.296875 
z
" id="DejaVuSans-54"/>
       </defs>
       <use xlink:href="#DejaVuSans-54"/>
       <use x="63.623047" xlink:href="#DejaVuSans-48"/>
      </g>
     </g>
    </g>
    <g id="xtick_5">
     <g id="line2d_5">
      <g>
       <use style="stroke:#000000;stroke-width:0.8;" x="359.604774" xlink:href="#mc963da670a" y="307.584"/>
      </g>
     </g>
     <g id="text_5">
      <!-- 80 -->
      <g transform="translate(353.242274 322.182437)scale(0.1 -0.1)">
       <defs>
        <path d="M 31.78125 34.625 
Q 24.75 34.625 20.71875 30.859375 
Q 16.703125 27.09375 16.703125 20.515625 
Q 16.703125 13.921875 20.71875 10.15625 
Q 24.75 6.390625 31.78125 6.390625 
Q 38.8125 6.390625 42.859375 10.171875 
Q 46.921875 13.96875 46.921875 20.515625 
Q 46.921875 27.09375 42.890625 30.859375 
Q 38.875 34.625 31.78125 34.625 
z
M 21.921875 38.8125 
Q 15.578125 40.375 12.03125 44.71875 
Q 8.5 49.078125 8.5 55.328125 
Q 8.5 64.0625 14.71875 69.140625 
Q 20.953125 74.21875 31.78125 74.21875 
Q 42.671875 74.21875 48.875 69.140625 
Q 55.078125 64.0625 55.078125 55.328125 
Q 55.078125 49.078125 51.53125 44.71875 
Q 48 40.375 41.703125 38.8125 
Q 48.828125 37.15625 52.796875 32.3125 
Q 56.78125 27.484375 56.78125 20.515625 
Q 56.78125 9.90625 50.3125 4.234375 
Q 43.84375 -1.421875 31.78125 -1.421875 
Q 19.734375 -1.421875 13.25 4.234375 
Q 6.78125 9.90625 6.78125 20.515625 
Q 6.78125 27.484375 10.78125 32.3125 
Q 14.796875 37.15625 21.921875 38.8125 
z
M 18.3125 54.390625 
Q 18.3125 48.734375 21.84375 45.5625 
Q 25.390625 42.390625 31.78125 42.390625 
Q 38.140625 42.390625 41.71875 45.5625 
Q 45.3125 48.734375 45.3125 54.390625 
Q 45.3125 60.0625 41.71875 63.234375 
Q 38.140625 66.40625 31.78125 66.40625 
Q 25.390625 66.40625 21.84375 63.234375 
Q 18.3125 60.0625 18.3125 54.390625 
z
" id="DejaVuSans-56"/>
       </defs>
       <use xlink:href="#DejaVuSans-56"/>
       <use x="63.623047" xlink:href="#DejaVuSans-48"/>
      </g>
     </g>
    </g>
   </g>
   <g id="matplotlib.axis_2">
    <g id="ytick_1">
     <g id="line2d_6">
      <defs>
       <path d="M 0 0 
L -3.5 0 
" id="m698865143f" style="stroke:#000000;stroke-width:0.8;"/>
      </defs>
      <g>
       <use style="stroke:#000000;stroke-width:0.8;" x="57.6" xlink:href="#m698865143f" y="294.6805"/>
      </g>
     </g>
     <g id="text_6">
      <!-- 10 -->
      <g transform="translate(37.875 298.479719)scale(0.1 -0.1)">
       <defs>
        <path d="M 12.40625 8.296875 
L 28.515625 8.296875 
L 28.515625 63.921875 
L 10.984375 60.40625 
L 10.984375 69.390625 
L 28.421875 72.90625 
L 38.28125 72.90625 
L 38.28125 8.296875 
L 54.390625 8.296875 
L 54.390625 0 
L 12.40625 0 
z
" id="DejaVuSans-49"/>
       </defs>
       <use xlink:href="#DejaVuSans-49"/>
       <use x="63.623047" xlink:href="#DejaVuSans-48"/>
      </g>
     </g>
    </g>
    <g id="ytick_2">
     <g id="line2d_7">
      <g>
       <use style="stroke:#000000;stroke-width:0.8;" x="57.6" xlink:href="#m698865143f" y="264.087884"/>
      </g>
     </g>
     <g id="text_7">
      <!-- 20 -->
      <g transform="translate(37.875 267.887102)scale(0.1 -0.1)">
       <use xlink:href="#DejaVuSans-50"/>
       <use x="63.623047" xlink:href="#DejaVuSans-48"/>
      </g>
     </g>
    </g>
    <g id="ytick_3">
     <g id="line2d_8">
      <g>
       <use style="stroke:#000000;stroke-width:0.8;" x="57.6" xlink:href="#m698865143f" y="233.495267"/>
      </g>
     </g>
     <g id="text_8">
      <!-- 30 -->
      <g transform="translate(37.875 237.294486)scale(0.1 -0.1)">
       <defs>
        <path d="M 40.578125 39.3125 
Q 47.65625 37.796875 51.625 33 
Q 55.609375 28.21875 55.609375 21.1875 
Q 55.609375 10.40625 48.1875 4.484375 
Q 40.765625 -1.421875 27.09375 -1.421875 
Q 22.515625 -1.421875 17.65625 -0.515625 
Q 12.796875 0.390625 7.625 2.203125 
L 7.625 11.71875 
Q 11.71875 9.328125 16.59375 8.109375 
Q 21.484375 6.890625 26.8125 6.890625 
Q 36.078125 6.890625 40.9375 10.546875 
Q 45.796875 14.203125 45.796875 21.1875 
Q 45.796875 27.640625 41.28125 31.265625 
Q 36.765625 34.90625 28.71875 34.90625 
L 20.21875 34.90625 
L 20.21875 43.015625 
L 29.109375 43.015625 
Q 36.375 43.015625 40.234375 45.921875 
Q 44.09375 48.828125 44.09375 54.296875 
Q 44.09375 59.90625 40.109375 62.90625 
Q 36.140625 65.921875 28.71875 65.921875 
Q 24.65625 65.921875 20.015625 65.03125 
Q 15.375 64.15625 9.8125 62.3125 
L 9.8125 71.09375 
Q 15.4375 72.65625 20.34375 73.4375 
Q 25.25 74.21875 29.59375 74.21875 
Q 40.828125 74.21875 47.359375 69.109375 
Q 53.90625 64.015625 53.90625 55.328125 
Q 53.90625 49.265625 50.4375 45.09375 
Q 46.96875 40.921875 40.578125 39.3125 
z
" id="DejaVuSans-51"/>
       </defs>
       <use xlink:href="#DejaVuSans-51"/>
       <use x="63.623047" xlink:href="#DejaVuSans-48"/>
      </g>
     </g>
    </g>
    <g id="ytick_4">
     <g id="line2d_9">
      <g>
       <use style="stroke:#000000;stroke-width:0.8;" x="57.6" xlink:href="#m698865143f" y="202.90265"/>
      </g>
     </g>
     <g id="text_9">
      <!-- 40 -->
      <g transform="translate(37.875 206.701869)scale(0.1 -0.1)">
       <use xlink:href="#DejaVuSans-52"/>
       <use x="63.623047" xlink:href="#DejaVuSans-48"/>
      </g>
     </g>
    </g>
    <g id="ytick_5">
     <g id="line2d_10">
      <g>
       <use style="stroke:#000000;stroke-width:0.8;" x="57.6" xlink:href="#m698865143f" y="172.310034"/>
      </g>
     </g>
     <g id="text_10">
      <!-- 50 -->
      <g transform="translate(37.875 176.109252)scale(0.1 -0.1)">
       <defs>
        <path d="M 10.796875 72.90625 
L 49.515625 72.90625 
L 49.515625 64.59375 
L 19.828125 64.59375 
L 19.828125 46.734375 
Q 21.96875 47.46875 24.109375 47.828125 
Q 26.265625 48.1875 28.421875 48.1875 
Q 40.625 48.1875 47.75 41.5 
Q 54.890625 34.8125 54.890625 23.390625 
Q 54.890625 11.625 47.5625 5.09375 
Q 40.234375 -1.421875 26.90625 -1.421875 
Q 22.3125 -1.421875 17.546875 -0.640625 
Q 12.796875 0.140625 7.71875 1.703125 
L 7.71875 11.625 
Q 12.109375 9.234375 16.796875 8.0625 
Q 21.484375 6.890625 26.703125 6.890625 
Q 35.15625 6.890625 40.078125 11.328125 
Q 45.015625 15.765625 45.015625 23.390625 
Q 45.015625 31 40.078125 35.4375 
Q 35.15625 39.890625 26.703125 39.890625 
Q 22.75 39.890625 18.8125 39.015625 
Q 14.890625 38.140625 10.796875 36.28125 
z
" id="DejaVuSans-53"/>
       </defs>
       <use xlink:href="#DejaVuSans-53"/>
       <use x="63.623047" xlink:href="#DejaVuSans-48"/>
      </g>
     </g>
    </g>
    <g id="ytick_6">
     <g id="line2d_11">
      <g>
       <use style="stroke:#000000;stroke-width:0.8;" x="57.6" xlink:href="#m698865143f" y="141.717417"/>
      </g>
     </g>
     <g id="text_11">
      <!-- 60 -->
      <g transform="translate(37.875 145.516636)scale(0.1 -0.1)">
       <use xlink:href="#DejaVuSans-54"/>
       <use x="63.623047" xlink:href="#DejaVuSans-48"/>
      </g>
     </g>
    </g>
    <g id="ytick_7">
     <g id="line2d_12">
      <g>
       <use style="stroke:#000000;stroke-width:0.8;" x="57.6" xlink:href="#m698865143f" y="111.1248"/>
      </g>
     </g>
     <g id="text_12">
      <!-- 70 -->
      <g transform="translate(37.875 114.924019)scale(0.1 -0.1)">
       <defs>
        <path d="M 8.203125 72.90625 
L 55.078125 72.90625 
L 55.078125 68.703125 
L 28.609375 0 
L 18.3125 0 
L 43.21875 64.59375 
L 8.203125 64.59375 
z
" id="DejaVuSans-55"/>
       </defs>
       <use xlink:href="#DejaVuSans-55"/>
       <use x="63.623047" xlink:href="#DejaVuSans-48"/>
      </g>
     </g>
    </g>
    <g id="ytick_8">
     <g id="line2d_13">
      <g>
       <use style="stroke:#000000;stroke-width:0.8;" x="57.6" xlink:href="#m698865143f" y="80.532184"/>
      </g>
     </g>
     <g id="text_13">
      <!-- 80 -->
      <g transform="translate(37.875 84.331403)scale(0.1 -0.1)">
       <use xlink:href="#DejaVuSans-56"/>
       <use x="63.623047" xlink:href="#DejaVuSans-48"/>
      </g>
     </g>
    </g>
    <g id="ytick_9">
     <g id="line2d_14">
      <g>
       <use style="stroke:#000000;stroke-width:0.8;" x="57.6" xlink:href="#m698865143f" y="49.939567"/>
      </g>
     </g>
     <g id="text_14">
      <!-- 90 -->
      <g transform="translate(37.875 53.738786)scale(0.1 -0.1)">
       <defs>
        <path d="M 10.984375 1.515625 
L 10.984375 10.5 
Q 14.703125 8.734375 18.5 7.8125 
Q 22.3125 6.890625 25.984375 6.890625 
Q 35.75 6.890625 40.890625 13.453125 
Q 46.046875 20.015625 46.78125 33.40625 
Q 43.953125 29.203125 39.59375 26.953125 
Q 35.25 24.703125 29.984375 24.703125 
Q 19.046875 24.703125 12.671875 31.3125 
Q 6.296875 37.9375 6.296875 49.421875 
Q 6.296875 60.640625 12.9375 67.421875 
Q 19.578125 74.21875 30.609375 74.21875 
Q 43.265625 74.21875 49.921875 64.515625 
Q 56.59375 54.828125 56.59375 36.375 
Q 56.59375 19.140625 48.40625 8.859375 
Q 40.234375 -1.421875 26.421875 -1.421875 
Q 22.703125 -1.421875 18.890625 -0.6875 
Q 15.09375 0.046875 10.984375 1.515625 
z
M 30.609375 32.421875 
Q 37.25 32.421875 41.125 36.953125 
Q 45.015625 41.5 45.015625 49.421875 
Q 45.015625 57.28125 41.125 61.84375 
Q 37.25 66.40625 30.609375 66.40625 
Q 23.96875 66.40625 20.09375 61.84375 
Q 16.21875 57.28125 16.21875 49.421875 
Q 16.21875 41.5 20.09375 36.953125 
Q 23.96875 32.421875 30.609375 32.421875 
z
" id="DejaVuSans-57"/>
       </defs>
       <use xlink:href="#DejaVuSans-57"/>
       <use x="63.623047" xlink:href="#DejaVuSans-48"/>
      </g>
     </g>
    </g>
   </g>
   <g id="line2d_15">
    <path clip-path="url(#pf20924e91f)" d="M 327.069526 294.6805 
L 326.729948 288.571155 
L 326.619815 282.455691 
L 326.757482 273.274846 
L 327.623253 245.720077 
L 327.555949 239.604613 
L 327.274497 233.495267 
L 326.733008 227.398158 
L 325.931481 221.319406 
L 324.872977 215.277364 
L 323.566672 209.287329 
L 322.018685 203.35848 
L 320.241254 197.499994 
L 318.286386 191.702693 
L 315.129228 183.081694 
L 306.554118 160.155587 
L 301.44821 145.734228 
L 295.360279 128.40351 
L 293.148433 122.697987 
L 290.75609 117.072005 
L 288.134303 111.54086 
L 285.267775 106.132085 
L 282.135091 100.864037 
L 278.727074 95.75507 
L 275.025367 90.832718 
L 271.017734 86.124514 
L 268.894607 83.872898 
L 266.691938 81.70694 
L 264.40361 79.63582 
L 262.032683 77.671774 
L 259.573036 75.820921 
L 257.024671 74.101616 
L 254.387588 72.519978 
L 251.661786 71.085184 
L 248.841146 69.812531 
L 245.940966 68.702019 
L 242.976542 67.765885 
L 239.957051 67.001069 
L 236.89473 66.416751 
L 233.804875 66.015987 
L 230.702784 65.804898 
L 227.597633 65.789602 
L 224.50472 65.970098 
L 221.43628 66.355565 
L 218.404552 66.946003 
L 215.415653 67.732233 
L 212.481822 68.708137 
L 209.603056 69.85842 
L 206.794654 71.173902 
L 204.056615 72.648467 
L 201.401176 74.263757 
L 198.834455 76.013654 
L 196.362572 77.885922 
L 193.991644 79.871383 
L 191.72779 81.960859 
L 189.567952 84.142113 
L 187.499891 86.409025 
L 183.623806 91.160059 
L 180.035292 96.146655 
L 176.682342 101.298452 
L 173.500709 106.545086 
L 168.960765 114.520581 
L 163.148168 125.276945 
L 154.573058 141.567513 
L 151.939033 147.101718 
L 149.59258 152.749115 
L 148.55549 155.62788 
L 147.628534 158.546416 
L 146.823948 161.507781 
L 146.141732 164.508916 
L 145.588006 167.540645 
L 145.162769 170.596847 
L 144.86908 173.671405 
L 144.709998 176.7582 
L 144.688583 179.844995 
L 144.801776 182.93179 
L 145.058754 186.003289 
L 145.456458 189.059491 
L 145.997947 192.094279 
L 146.686281 195.095415 
L 147.512282 198.059839 
L 148.475949 200.984493 
L 149.577283 203.863259 
L 150.813225 206.690016 
L 152.180715 209.461707 
L 153.676694 212.169154 
L 155.298103 214.806237 
L 157.048 217.372958 
L 158.917209 219.860138 
L 160.905729 222.25554 
L 163.007442 224.556104 
L 165.216229 226.746536 
L 167.529031 228.817656 
L 169.93667 230.763346 
L 172.439146 232.57137 
L 175.03034 234.232549 
L 177.701076 235.737706 
L 180.451352 237.074603 
L 183.271991 238.240182 
L 186.156875 239.234442 
L 189.102944 240.063502 
L 192.094902 240.736539 
L 195.129689 241.256614 
L 198.201188 241.635962 
L 201.297161 241.871525 
L 204.414549 241.9786 
L 207.541114 241.957185 
L 210.673798 241.816459 
L 216.917751 241.198488 
L 223.088282 240.179754 
L 229.124205 238.806145 
L 234.961276 237.126611 
L 240.54137 235.193157 
L 240.54137 235.193157 
" style="fill:none;stroke:#fea952;stroke-linecap:square;"/>
   </g>
   <g id="line2d_16">
    <path clip-path="url(#pf20924e91f)" d="M 314.859152 295.488 
L 314.497044 288.889529 
L 314.382866 282.406743 
L 314.526683 272.883852 
L 315.379241 242.893509 
L 315.227988 237.23398 
L 314.858834 231.655552 
L 314.252327 226.088192 
L 313.401245 220.526837 
L 312.318665 214.999298 
L 311.009849 209.516952 
L 309.477918 204.07786 
L 307.714353 198.583657 
L 304.743618 190.240915 
L 292.951164 158.483586 
L 286.907166 141.094219 
L 283.920071 132.747119 
L 281.845826 127.388018 
L 279.644991 122.199264 
L 277.256031 117.145189 
L 274.672497 112.254617 
L 271.862214 107.513346 
L 268.844761 102.972079 
L 265.577123 98.609349 
L 262.114534 94.519652 
L 258.480353 90.779711 
L 254.674897 87.449724 
L 252.729042 85.965133 
L 250.730553 84.595871 
L 248.687726 83.348499 
L 246.62907 82.239424 
L 244.465271 81.240437 
L 242.256008 80.371055 
L 239.971873 79.628316 
L 237.663488 79.021256 
L 235.320733 78.552147 
L 232.974098 78.2248 
L 230.642504 78.041796 
L 228.310551 78.005864 
L 226.029988 78.111716 
L 223.77553 78.366944 
L 221.517606 78.780453 
L 219.278082 79.343734 
L 217.022382 80.071615 
L 214.79378 80.940012 
L 212.596954 81.947882 
L 210.416173 83.103194 
L 208.294381 84.374594 
L 206.22296 85.768412 
L 204.219139 87.267802 
L 202.291285 88.863673 
L 200.423268 90.570968 
L 196.848425 94.305241 
L 193.461506 98.437763 
L 190.228358 102.917676 
L 187.104961 107.710496 
L 182.600166 115.238877 
L 178.249838 123.024551 
L 169.630204 139.132162 
L 165.568982 146.937332 
L 163.170772 151.959016 
L 161.105327 156.89664 
L 159.437485 161.754839 
L 158.179641 166.707566 
L 157.344366 171.760462 
L 156.94675 176.843093 
L 156.996217 181.911538 
L 157.193488 184.424194 
L 157.503244 186.910014 
L 157.925295 189.358649 
L 158.474277 191.810834 
L 159.134667 194.230287 
L 159.905151 196.612004 
L 160.789457 198.960966 
L 161.787288 201.275661 
L 162.891491 203.54355 
L 164.100967 205.759798 
L 165.40894 207.913032 
L 166.830413 210.021108 
L 168.332737 212.043927 
L 169.940269 214.00191 
L 171.624162 215.867177 
L 173.379705 217.630453 
L 175.220554 219.3 
L 177.103116 220.844306 
L 179.043507 222.269539 
L 181.038385 223.571934 
L 183.050886 224.732033 
L 185.124791 225.765126 
L 187.259264 226.670957 
L 189.471772 227.454936 
L 191.788544 228.124789 
L 194.161845 228.675318 
L 196.629641 229.111843 
L 199.129584 229.434184 
L 204.330735 229.74184 
L 209.683248 229.619569 
L 215.113604 229.095168 
L 220.544849 228.209948 
L 225.900276 227.001418 
L 231.102895 225.513764 
L 236.385124 223.683555 
L 236.385124 223.683555 
" style="fill:none;stroke:#ffffff;stroke-linecap:square;"/>
   </g>
   <g id="line2d_17">
    <path clip-path="url(#pf20924e91f)" d="M 339.279901 293.873001 
L 338.962853 288.252781 
L 338.856764 282.504638 
L 338.98828 273.665841 
L 339.860244 245.683366 
L 339.785058 239.163924 
L 339.474265 232.540822 
L 338.882019 225.932951 
L 338.005639 219.329428 
L 336.853719 212.785956 
L 335.435472 206.307919 
L 333.759654 199.909571 
L 331.862524 193.667057 
L 329.812186 187.59158 
L 326.575026 178.752835 
L 318.065457 156.004157 
L 313.017563 141.747326 
L 307.902028 127.05595 
L 305.652852 121.040597 
L 303.195652 114.987446 
L 300.477462 108.939304 
L 297.478345 102.965723 
L 294.174017 97.094253 
L 290.553054 91.357567 
L 286.589244 85.780002 
L 282.247357 80.361814 
L 279.920935 77.729377 
L 277.474489 75.147594 
L 274.903524 72.634169 
L 272.210035 70.212177 
L 269.390468 67.893824 
L 266.417031 65.676708 
L 263.318789 63.607361 
L 260.08745 61.691456 
L 256.694502 59.930943 
L 253.217022 58.384625 
L 249.625925 57.032983 
L 245.98121 55.903454 
L 242.250613 54.980883 
L 238.468727 54.281354 
L 234.635653 53.807174 
L 230.763064 53.568 
L 226.884716 53.57334 
L 222.979452 53.828481 
L 219.097031 54.344186 
L 215.291498 55.111553 
L 211.553225 56.120732 
L 207.941261 57.34466 
L 204.412332 58.776827 
L 200.992355 60.399923 
L 197.697057 62.193739 
L 194.507971 64.152919 
L 191.44595 66.258896 
L 188.506004 68.504043 
L 185.692004 70.879093 
L 183.032312 73.35075 
L 180.527637 75.894808 
L 178.151357 78.51281 
L 175.90809 81.179708 
L 171.771876 86.612215 
L 168.015939 92.128818 
L 164.569227 97.636183 
L 159.763932 105.888311 
L 153.786594 116.823879 
L 143.577133 136.197694 
L 140.707294 142.244419 
L 138.079832 148.601589 
L 136.892567 151.923618 
L 135.819582 155.337992 
L 134.891321 158.795267 
L 134.103823 162.310267 
L 133.46772 165.854239 
L 132.981171 169.433232 
L 132.648251 173.04159 
L 132.473246 176.673307 
L 132.459756 180.293426 
L 132.607335 183.952042 
L 132.92402 187.582383 
L 133.409671 191.208968 
L 134.070599 194.829909 
L 134.898285 198.379995 
L 135.889896 201.889391 
L 137.046748 205.356983 
L 138.365109 208.765551 
L 139.839162 212.104372 
L 141.469939 215.379865 
L 143.252421 218.57851 
L 145.187265 221.699443 
L 147.265587 224.724808 
L 149.501681 227.676348 
L 151.871189 230.509169 
L 154.390722 233.245031 
L 157.052753 235.862619 
L 159.837507 238.335312 
L 162.770224 240.682387 
L 165.834784 242.873201 
L 169.022296 244.893164 
L 172.351266 246.743379 
L 175.777913 248.38408 
L 179.284719 249.809407 
L 182.841978 251.013948 
L 186.417344 252.002215 
L 190.027959 252.797761 
L 193.629738 253.401385 
L 197.272792 253.83774 
L 200.877098 254.10136 
L 204.498362 254.215359 
L 208.090271 254.181903 
L 211.664348 254.013349 
L 215.219774 253.716987 
L 218.721898 253.301808 
L 225.631715 252.14956 
L 232.348134 250.610873 
L 238.819657 248.739457 
L 244.697615 246.702759 
L 244.697615 246.702759 
" style="fill:none;stroke:#ffffff;stroke-linecap:square;"/>
   </g>
   <g id="patch_3">
    <path d="M 57.6 307.584 
L 57.6 41.472 
" style="fill:none;stroke:#000000;stroke-linecap:square;stroke-linejoin:miter;stroke-width:0.8;"/>
   </g>
   <g id="patch_4">
    <path d="M 414.72 307.584 
L 414.72 41.472 
" style="fill:none;stroke:#000000;stroke-linecap:square;stroke-linejoin:miter;stroke-width:0.8;"/>
   </g>
   <g id="patch_5">
    <path d="M 57.6 307.584 
L 414.72 307.584 
" style="fill:none;stroke:#000000;stroke-linecap:square;stroke-linejoin:miter;stroke-width:0.8;"/>
   </g>
   <g id="patch_6">
    <path d="M 57.6 41.472 
L 414.72 41.472 
" style="fill:none;stroke:#000000;stroke-linecap:square;stroke-linejoin:miter;stroke-width:0.8;"/>
   </g>
  </g>
 </g>
 <defs>
  <clipPath id="pf20924e91f">
   <rect height="266.112" width="357.12" x="57.6" y="41.472"/>
  </clipPath>
 </defs>
</svg>
