<?xml version="1.0" encoding="utf-8" standalone="no"?>
<!DOCTYPE svg PUBLIC "-//W3C//DTD SVG 1.1//EN"
  "http://www.w3.org/Graphics/SVG/1.1/DTD/svg11.dtd">
<!-- Created with matplotlib (https://matplotlib.org/) -->
<svg height="345.6pt" version="1.1" viewBox="0 0 460.8 345.6" width="460.8pt" xmlns="http://www.w3.org/2000/svg" xmlns:xlink="http://www.w3.org/1999/xlink">
 <metadata>
  <rdf:RDF xmlns:cc="http://creativecommons.org/ns#" xmlns:dc="http://purl.org/dc/elements/1.1/" xmlns:rdf="http://www.w3.org/1999/02/22-rdf-syntax-ns#">
   <cc:Work>
    <dc:type rdf:resource="http://purl.org/dc/dcmitype/StillImage"/>
    <dc:date>2021-01-22T11:57:43.368901</dc:date>
    <dc:format>image/svg+xml</dc:format>
    <dc:creator>
     <cc:Agent>
      <dc:title>Matplotlib v3.3.3, https://matplotlib.org/</dc:title>
     </cc:Agent>
    </dc:creator>
   </cc:Work>
  </rdf:RDF>
 </metadata>
 <defs>
  <style type="text/css">*{stroke-linecap:butt;stroke-linejoin:round;}</style>
 </defs>
 <g id="figure_1">
  <g id="patch_1">
   <path d="M 0 345.6 
L 460.8 345.6 
L 460.8 0 
L 0 0 
z
" style="fill:#ffffff;"/>
  </g>
  <g id="axes_1">
   <g id="patch_2">
    <path d="M 57.6 307.584 
L 414.72 307.584 
L 414.72 41.472 
L 57.6 41.472 
z
" style="fill:#7d9051;"/>
   </g>
   <g id="matplotlib.axis_1">
    <g id="xtick_1">
     <g id="line2d_1">
      <defs>
       <path d="M 0 0 
L 0 3.5 
" id="m6c2e8f1835" style="stroke:#000000;stroke-width:0.8;"/>
      </defs>
      <g>
       <use style="stroke:#000000;stroke-width:0.8;" x="100.551796" xlink:href="#m6c2e8f1835" y="307.584"/>
      </g>
     </g>
     <g id="text_1">
      <!-- 0 -->
      <g transform="translate(97.370546 322.182437)scale(0.1 -0.1)">
       <defs>
        <path d="M 31.78125 66.40625 
Q 24.171875 66.40625 20.328125 58.90625 
Q 16.5 51.421875 16.5 36.375 
Q 16.5 21.390625 20.328125 13.890625 
Q 24.171875 6.390625 31.78125 6.390625 
Q 39.453125 6.390625 43.28125 13.890625 
Q 47.125 21.390625 47.125 36.375 
Q 47.125 51.421875 43.28125 58.90625 
Q 39.453125 66.40625 31.78125 66.40625 
z
M 31.78125 74.21875 
Q 44.046875 74.21875 50.515625 64.515625 
Q 56.984375 54.828125 56.984375 36.375 
Q 56.984375 17.96875 50.515625 8.265625 
Q 44.046875 -1.421875 31.78125 -1.421875 
Q 19.53125 -1.421875 13.0625 8.265625 
Q 6.59375 17.96875 6.59375 36.375 
Q 6.59375 54.828125 13.0625 64.515625 
Q 19.53125 74.21875 31.78125 74.21875 
z
" id="DejaVuSans-48"/>
       </defs>
       <use xlink:href="#DejaVuSans-48"/>
      </g>
     </g>
    </g>
    <g id="xtick_2">
     <g id="line2d_2">
      <g>
       <use style="stroke:#000000;stroke-width:0.8;" x="149.607407" xlink:href="#m6c2e8f1835" y="307.584"/>
      </g>
     </g>
     <g id="text_2">
      <!-- 20 -->
      <g transform="translate(143.244907 322.182437)scale(0.1 -0.1)">
       <defs>
        <path d="M 19.1875 8.296875 
L 53.609375 8.296875 
L 53.609375 0 
L 7.328125 0 
L 7.328125 8.296875 
Q 12.9375 14.109375 22.625 23.890625 
Q 32.328125 33.6875 34.8125 36.53125 
Q 39.546875 41.84375 41.421875 45.53125 
Q 43.3125 49.21875 43.3125 52.78125 
Q 43.3125 58.59375 39.234375 62.25 
Q 35.15625 65.921875 28.609375 65.921875 
Q 23.96875 65.921875 18.8125 64.3125 
Q 13.671875 62.703125 7.8125 59.421875 
L 7.8125 69.390625 
Q 13.765625 71.78125 18.9375 73 
Q 24.125 74.21875 28.421875 74.21875 
Q 39.75 74.21875 46.484375 68.546875 
Q 53.21875 62.890625 53.21875 53.421875 
Q 53.21875 48.921875 51.53125 44.890625 
Q 49.859375 40.875 45.40625 35.40625 
Q 44.1875 33.984375 37.640625 27.21875 
Q 31.109375 20.453125 19.1875 8.296875 
z
" id="DejaVuSans-50"/>
       </defs>
       <use xlink:href="#DejaVuSans-50"/>
       <use x="63.623047" xlink:href="#DejaVuSans-48"/>
      </g>
     </g>
    </g>
    <g id="xtick_3">
     <g id="line2d_3">
      <g>
       <use style="stroke:#000000;stroke-width:0.8;" x="198.663017" xlink:href="#m6c2e8f1835" y="307.584"/>
      </g>
     </g>
     <g id="text_3">
      <!-- 40 -->
      <g transform="translate(192.300517 322.182437)scale(0.1 -0.1)">
       <defs>
        <path d="M 37.796875 64.3125 
L 12.890625 25.390625 
L 37.796875 25.390625 
z
M 35.203125 72.90625 
L 47.609375 72.90625 
L 47.609375 25.390625 
L 58.015625 25.390625 
L 58.015625 17.1875 
L 47.609375 17.1875 
L 47.609375 0 
L 37.796875 0 
L 37.796875 17.1875 
L 4.890625 17.1875 
L 4.890625 26.703125 
z
" id="DejaVuSans-52"/>
       </defs>
       <use xlink:href="#DejaVuSans-52"/>
       <use x="63.623047" xlink:href="#DejaVuSans-48"/>
      </g>
     </g>
    </g>
    <g id="xtick_4">
     <g id="line2d_4">
      <g>
       <use style="stroke:#000000;stroke-width:0.8;" x="247.718628" xlink:href="#m6c2e8f1835" y="307.584"/>
      </g>
     </g>
     <g id="text_4">
      <!-- 60 -->
      <g transform="translate(241.356128 322.182437)scale(0.1 -0.1)">
       <defs>
        <path d="M 33.015625 40.375 
Q 26.375 40.375 22.484375 35.828125 
Q 18.609375 31.296875 18.609375 23.390625 
Q 18.609375 15.53125 22.484375 10.953125 
Q 26.375 6.390625 33.015625 6.390625 
Q 39.65625 6.390625 43.53125 10.953125 
Q 47.40625 15.53125 47.40625 23.390625 
Q 47.40625 31.296875 43.53125 35.828125 
Q 39.65625 40.375 33.015625 40.375 
z
M 52.59375 71.296875 
L 52.59375 62.3125 
Q 48.875 64.0625 45.09375 64.984375 
Q 41.3125 65.921875 37.59375 65.921875 
Q 27.828125 65.921875 22.671875 59.328125 
Q 17.53125 52.734375 16.796875 39.40625 
Q 19.671875 43.65625 24.015625 45.921875 
Q 28.375 48.1875 33.59375 48.1875 
Q 44.578125 48.1875 50.953125 41.515625 
Q 57.328125 34.859375 57.328125 23.390625 
Q 57.328125 12.15625 50.6875 5.359375 
Q 44.046875 -1.421875 33.015625 -1.421875 
Q 20.359375 -1.421875 13.671875 8.265625 
Q 6.984375 17.96875 6.984375 36.375 
Q 6.984375 53.65625 15.1875 63.9375 
Q 23.390625 74.21875 37.203125 74.21875 
Q 40.921875 74.21875 44.703125 73.484375 
Q 48.484375 72.75 52.59375 71.296875 
z
" id="DejaVuSans-54"/>
       </defs>
       <use xlink:href="#DejaVuSans-54"/>
       <use x="63.623047" xlink:href="#DejaVuSans-48"/>
      </g>
     </g>
    </g>
    <g id="xtick_5">
     <g id="line2d_5">
      <g>
       <use style="stroke:#000000;stroke-width:0.8;" x="296.774239" xlink:href="#m6c2e8f1835" y="307.584"/>
      </g>
     </g>
     <g id="text_5">
      <!-- 80 -->
      <g transform="translate(290.411739 322.182437)scale(0.1 -0.1)">
       <defs>
        <path d="M 31.78125 34.625 
Q 24.75 34.625 20.71875 30.859375 
Q 16.703125 27.09375 16.703125 20.515625 
Q 16.703125 13.921875 20.71875 10.15625 
Q 24.75 6.390625 31.78125 6.390625 
Q 38.8125 6.390625 42.859375 10.171875 
Q 46.921875 13.96875 46.921875 20.515625 
Q 46.921875 27.09375 42.890625 30.859375 
Q 38.875 34.625 31.78125 34.625 
z
M 21.921875 38.8125 
Q 15.578125 40.375 12.03125 44.71875 
Q 8.5 49.078125 8.5 55.328125 
Q 8.5 64.0625 14.71875 69.140625 
Q 20.953125 74.21875 31.78125 74.21875 
Q 42.671875 74.21875 48.875 69.140625 
Q 55.078125 64.0625 55.078125 55.328125 
Q 55.078125 49.078125 51.53125 44.71875 
Q 48 40.375 41.703125 38.8125 
Q 48.828125 37.15625 52.796875 32.3125 
Q 56.78125 27.484375 56.78125 20.515625 
Q 56.78125 9.90625 50.3125 4.234375 
Q 43.84375 -1.421875 31.78125 -1.421875 
Q 19.734375 -1.421875 13.25 4.234375 
Q 6.78125 9.90625 6.78125 20.515625 
Q 6.78125 27.484375 10.78125 32.3125 
Q 14.796875 37.15625 21.921875 38.8125 
z
M 18.3125 54.390625 
Q 18.3125 48.734375 21.84375 45.5625 
Q 25.390625 42.390625 31.78125 42.390625 
Q 38.140625 42.390625 41.71875 45.5625 
Q 45.3125 48.734375 45.3125 54.390625 
Q 45.3125 60.0625 41.71875 63.234375 
Q 38.140625 66.40625 31.78125 66.40625 
Q 25.390625 66.40625 21.84375 63.234375 
Q 18.3125 60.0625 18.3125 54.390625 
z
" id="DejaVuSans-56"/>
       </defs>
       <use xlink:href="#DejaVuSans-56"/>
       <use x="63.623047" xlink:href="#DejaVuSans-48"/>
      </g>
     </g>
    </g>
    <g id="xtick_6">
     <g id="line2d_6">
      <g>
       <use style="stroke:#000000;stroke-width:0.8;" x="345.829849" xlink:href="#m6c2e8f1835" y="307.584"/>
      </g>
     </g>
     <g id="text_6">
      <!-- 100 -->
      <g transform="translate(336.286099 322.182437)scale(0.1 -0.1)">
       <defs>
        <path d="M 12.40625 8.296875 
L 28.515625 8.296875 
L 28.515625 63.921875 
L 10.984375 60.40625 
L 10.984375 69.390625 
L 28.421875 72.90625 
L 38.28125 72.90625 
L 38.28125 8.296875 
L 54.390625 8.296875 
L 54.390625 0 
L 12.40625 0 
z
" id="DejaVuSans-49"/>
       </defs>
       <use xlink:href="#DejaVuSans-49"/>
       <use x="63.623047" xlink:href="#DejaVuSans-48"/>
       <use x="127.246094" xlink:href="#DejaVuSans-48"/>
      </g>
     </g>
    </g>
    <g id="xtick_7">
     <g id="line2d_7">
      <g>
       <use style="stroke:#000000;stroke-width:0.8;" x="394.88546" xlink:href="#m6c2e8f1835" y="307.584"/>
      </g>
     </g>
     <g id="text_7">
      <!-- 120 -->
      <g transform="translate(385.34171 322.182437)scale(0.1 -0.1)">
       <use xlink:href="#DejaVuSans-49"/>
       <use x="63.623047" xlink:href="#DejaVuSans-50"/>
       <use x="127.246094" xlink:href="#DejaVuSans-48"/>
      </g>
     </g>
    </g>
   </g>
   <g id="matplotlib.axis_2">
    <g id="ytick_1">
     <g id="line2d_8">
      <defs>
       <path d="M 0 0 
L -3.5 0 
" id="mc3fa6cf858" style="stroke:#000000;stroke-width:0.8;"/>
      </defs>
      <g>
       <use style="stroke:#000000;stroke-width:0.8;" x="57.6" xlink:href="#mc3fa6cf858" y="269.568577"/>
      </g>
     </g>
     <g id="text_8">
      <!-- 20 -->
      <g transform="translate(37.875 273.367795)scale(0.1 -0.1)">
       <use xlink:href="#DejaVuSans-50"/>
       <use x="63.623047" xlink:href="#DejaVuSans-48"/>
      </g>
     </g>
    </g>
    <g id="ytick_2">
     <g id="line2d_9">
      <g>
       <use style="stroke:#000000;stroke-width:0.8;" x="57.6" xlink:href="#mc3fa6cf858" y="220.512966"/>
      </g>
     </g>
     <g id="text_9">
      <!-- 40 -->
      <g transform="translate(37.875 224.312185)scale(0.1 -0.1)">
       <use xlink:href="#DejaVuSans-52"/>
       <use x="63.623047" xlink:href="#DejaVuSans-48"/>
      </g>
     </g>
    </g>
    <g id="ytick_3">
     <g id="line2d_10">
      <g>
       <use style="stroke:#000000;stroke-width:0.8;" x="57.6" xlink:href="#mc3fa6cf858" y="171.457355"/>
      </g>
     </g>
     <g id="text_10">
      <!-- 60 -->
      <g transform="translate(37.875 175.256574)scale(0.1 -0.1)">
       <use xlink:href="#DejaVuSans-54"/>
       <use x="63.623047" xlink:href="#DejaVuSans-48"/>
      </g>
     </g>
    </g>
    <g id="ytick_4">
     <g id="line2d_11">
      <g>
       <use style="stroke:#000000;stroke-width:0.8;" x="57.6" xlink:href="#mc3fa6cf858" y="122.401745"/>
      </g>
     </g>
     <g id="text_11">
      <!-- 80 -->
      <g transform="translate(37.875 126.200963)scale(0.1 -0.1)">
       <use xlink:href="#DejaVuSans-56"/>
       <use x="63.623047" xlink:href="#DejaVuSans-48"/>
      </g>
     </g>
    </g>
    <g id="ytick_5">
     <g id="line2d_12">
      <g>
       <use style="stroke:#000000;stroke-width:0.8;" x="57.6" xlink:href="#mc3fa6cf858" y="73.346134"/>
      </g>
     </g>
     <g id="text_12">
      <!-- 100 -->
      <g transform="translate(31.5125 77.145353)scale(0.1 -0.1)">
       <use xlink:href="#DejaVuSans-49"/>
       <use x="63.623047" xlink:href="#DejaVuSans-48"/>
       <use x="127.246094" xlink:href="#DejaVuSans-48"/>
      </g>
     </g>
    </g>
   </g>
   <g id="line2d_13">
    <path clip-path="url(#p8bbc2731d4)" d="M 250.078203 63.988776 
L 255.040178 63.527653 
L 259.994795 63.378034 
L 264.932242 63.525201 
L 269.850067 63.954437 
L 274.733553 64.651027 
L 279.577794 65.600253 
L 284.37298 66.789852 
L 289.111752 68.205106 
L 293.784299 69.831299 
L 298.383263 71.651263 
L 302.901284 73.657637 
L 307.328553 75.84797 
L 311.660164 78.219809 
L 315.888757 80.778059 
L 320.004523 83.52272 
L 323.995197 86.456246 
L 327.82644 89.593352 
L 331.459008 92.956114 
L 334.851204 96.559249 
L 337.966235 100.424831 
L 340.759952 104.552861 
L 342.020681 106.706402 
L 343.183299 108.916357 
L 344.240448 111.175368 
L 345.184768 113.480982 
L 346.013808 115.82584 
L 346.717756 118.20749 
L 347.291707 120.623479 
L 347.728301 123.063995 
L 348.027541 125.52904 
L 348.186971 128.008801 
L 348.216405 130.49592 
L 348.113388 132.985493 
L 347.885279 135.470159 
L 347.534532 137.942562 
L 347.063598 140.397795 
L 346.477383 142.826048 
L 345.778341 145.222415 
L 344.971376 147.577084 
L 344.058942 149.887603 
L 343.043491 152.15152 
L 340.715802 156.529733 
L 338.015291 160.694554 
L 334.966484 164.623909 
L 331.589006 168.303079 
L 327.91474 171.702633 
L 323.965764 174.775967 
L 321.89807 176.171599 
L 319.773962 177.464215 
L 317.595893 178.648908 
L 315.368768 179.71832 
L 313.092588 180.665093 
L 310.777163 181.481869 
L 308.420041 182.173553 
L 306.031032 182.747504 
L 301.167169 183.583902 
L 296.224816 184.081817 
L 291.240766 184.322189 
L 283.769596 184.388414 
L 271.422299 184.363886 
L 266.511832 184.520864 
L 261.616083 184.886329 
L 256.732597 185.492165 
L 251.86628 186.3163 
L 247.022038 187.324393 
L 239.808411 189.100206 
L 232.673272 191.099222 
L 223.239878 193.978786 
L 204.446674 200.000362 
L 197.451344 202.418804 
L 190.546767 205.062901 
L 183.755017 207.98171 
L 177.061379 211.143344 
L 170.448683 214.498748 
L 163.921834 218.028299 
L 159.653996 220.52523 
L 155.496533 223.186497 
L 151.478878 226.051344 
L 147.635371 229.16147 
L 143.997898 232.531591 
L 140.600797 236.149442 
L 137.468596 240.000307 
L 134.64054 244.06947 
L 132.141157 248.344667 
L 129.987615 252.798916 
L 128.177463 257.410143 
L 126.705795 262.148915 
L 125.567705 266.985799 
L 124.758287 271.893812 
L 124.275089 276.843524 
L 124.110753 281.807951 
L 124.265278 286.757663 
L 124.731307 291.665676 
L 125.079601 294.096382 
L 125.079601 294.096382 
" style="fill:none;stroke:#fea952;stroke-linecap:square;"/>
   </g>
   <g id="line2d_14">
    <path clip-path="url(#p8bbc2731d4)" d="M 249.018021 54.235103 
L 254.593797 53.726691 
L 260.140922 53.568 
L 265.643722 53.73991 
L 271.099415 54.223186 
L 276.498056 54.999879 
L 281.828729 56.050834 
L 287.078585 57.359166 
L 292.234725 58.904291 
L 297.295205 60.669877 
L 302.277407 62.646055 
L 307.159846 64.818929 
L 311.948587 67.192717 
L 316.649071 69.771796 
L 321.240834 72.555323 
L 325.717227 75.546309 
L 330.101635 78.777084 
L 334.374691 82.287291 
L 338.478668 86.101737 
L 342.364392 90.249723 
L 344.207628 92.457062 
L 345.97007 94.750614 
L 347.64857 97.134226 
L 349.226887 99.596135 
L 350.703558 102.138496 
L 352.069531 104.757871 
L 353.319562 107.456794 
L 354.434774 110.210582 
L 355.422548 113.044884 
L 356.263219 115.939837 
L 356.949505 118.895752 
L 357.467923 121.881673 
L 357.818448 124.899555 
L 357.997407 127.892701 
L 358.019138 130.901551 
L 357.883423 133.882445 
L 357.599139 136.848217 
L 357.170008 139.790725 
L 356.600739 142.700196 
L 355.895953 145.573532 
L 355.059556 148.403164 
L 354.09672 151.180723 
L 353.010808 153.90285 
L 351.805199 156.566334 
L 350.487408 159.160719 
L 349.059511 161.69119 
L 347.527781 164.150452 
L 345.890844 166.545519 
L 344.158105 168.863473 
L 342.329146 171.108455 
L 340.407934 173.277268 
L 338.400323 175.36453 
L 336.300856 177.377869 
L 334.104456 179.31483 
L 331.831068 181.151853 
L 329.454655 182.908015 
L 326.998412 184.552806 
L 324.461835 186.082913 
L 321.842737 187.493253 
L 319.136731 188.777049 
L 316.356388 189.917429 
L 313.539696 190.896035 
L 310.711914 191.71323 
L 307.885647 192.381741 
L 302.301697 193.329207 
L 296.803773 193.875842 
L 291.443312 194.13122 
L 283.701667 194.199301 
L 271.647445 194.172425 
L 267.119562 194.313146 
L 262.711345 194.636124 
L 258.274288 195.181402 
L 253.782915 195.93839 
L 249.236674 196.882295 
L 242.368466 198.571437 
L 235.463819 200.505122 
L 226.198521 203.333173 
L 207.575528 209.2992 
L 200.848076 211.623168 
L 194.306403 214.125089 
L 187.851598 216.89665 
L 181.425651 219.930338 
L 175.029799 223.174662 
L 168.80417 226.538347 
L 164.848623 228.848328 
L 161.084164 231.251018 
L 157.527917 233.775802 
L 154.178796 236.471854 
L 151.026901 239.376386 
L 148.095619 242.480773 
L 145.419964 245.747816 
L 143.011232 249.187051 
L 140.891039 252.782872 
L 139.053494 256.549644 
L 137.493808 260.486478 
L 136.215953 264.560351 
L 135.219331 268.74768 
L 134.506051 273.007013 
L 134.074259 277.327672 
L 133.920644 281.652547 
L 134.046109 285.987288 
L 134.443233 290.274058 
L 134.791528 292.704764 
L 134.791528 292.704764 
" style="fill:none;stroke:#ffffff;stroke-linecap:square;"/>
   </g>
   <g id="line2d_15">
    <path clip-path="url(#p8bbc2731d4)" d="M 251.138385 73.742449 
L 255.486558 73.328616 
L 259.848667 73.188068 
L 264.220762 73.310491 
L 268.600719 73.685688 
L 272.96905 74.302174 
L 277.32686 75.149672 
L 281.667376 76.220537 
L 285.98878 77.505921 
L 290.273393 78.992722 
L 294.489119 80.65647 
L 298.642723 82.496346 
L 302.70852 84.503223 
L 306.671256 86.667822 
L 310.536681 89.000795 
L 314.291819 91.499131 
L 317.888759 94.135408 
L 321.278189 96.899413 
L 324.439348 99.810492 
L 327.338015 102.868774 
L 329.962399 106.099048 
L 332.293017 109.509586 
L 334.297068 113.074843 
L 335.934762 116.751381 
L 337.172293 120.475143 
L 337.98868 124.246318 
L 338.236633 126.158524 
L 338.413671 130.09029 
L 338.171419 134.092102 
L 337.526456 138.095395 
L 336.497126 142.041665 
L 335.107075 145.872357 
L 333.367543 149.572042 
L 331.294064 153.127797 
L 328.909517 156.513856 
L 326.228497 159.713492 
L 323.276474 162.701427 
L 320.113209 165.412595 
L 316.797728 167.790392 
L 313.349049 169.804563 
L 309.828787 171.412757 
L 306.128168 172.633876 
L 302.139514 173.513255 
L 297.869734 174.09513 
L 293.368909 174.424703 
L 288.678693 174.562808 
L 278.873436 174.540675 
L 271.197153 174.555348 
L 265.904103 174.728583 
L 260.52082 175.136533 
L 255.190905 175.802929 
L 249.949645 176.694209 
L 244.807402 177.76649 
L 237.248355 179.628974 
L 229.882725 181.693321 
L 220.281236 184.624399 
L 201.31782 190.701524 
L 194.054611 193.214439 
L 186.78713 196.000713 
L 179.658437 199.066771 
L 172.697108 202.356351 
L 165.867567 205.822834 
L 159.039498 209.518251 
L 154.459369 212.202131 
L 149.908902 215.121976 
L 145.429839 218.326887 
L 141.091947 221.851086 
L 136.968894 225.686795 
L 133.105974 229.818111 
L 129.517228 234.252798 
L 126.269848 238.951889 
L 124.78203 241.400089 
L 123.391274 243.906461 
L 120.921737 249.048188 
L 118.861118 254.333809 
L 117.195637 259.73748 
L 115.916078 265.223917 
L 115.010523 270.780612 
L 114.47592 276.359375 
L 114.300862 281.963356 
L 114.484448 287.528037 
L 115.01938 293.057294 
L 115.367675 295.488 
L 115.367675 295.488 
" style="fill:none;stroke:#ffffff;stroke-linecap:square;"/>
   </g>
   <g id="patch_3">
    <path d="M 57.6 307.584 
L 57.6 41.472 
" style="fill:none;stroke:#000000;stroke-linecap:square;stroke-linejoin:miter;stroke-width:0.8;"/>
   </g>
   <g id="patch_4">
    <path d="M 414.72 307.584 
L 414.72 41.472 
" style="fill:none;stroke:#000000;stroke-linecap:square;stroke-linejoin:miter;stroke-width:0.8;"/>
   </g>
   <g id="patch_5">
    <path d="M 57.6 307.584 
L 414.72 307.584 
" style="fill:none;stroke:#000000;stroke-linecap:square;stroke-linejoin:miter;stroke-width:0.8;"/>
   </g>
   <g id="patch_6">
    <path d="M 57.6 41.472 
L 414.72 41.472 
" style="fill:none;stroke:#000000;stroke-linecap:square;stroke-linejoin:miter;stroke-width:0.8;"/>
   </g>
  </g>
 </g>
 <defs>
  <clipPath id="p8bbc2731d4">
   <rect height="266.112" width="357.12" x="57.6" y="41.472"/>
  </clipPath>
 </defs>
</svg>
