<?xml version="1.0" encoding="utf-8" standalone="no"?>
<!DOCTYPE svg PUBLIC "-//W3C//DTD SVG 1.1//EN"
  "http://www.w3.org/Graphics/SVG/1.1/DTD/svg11.dtd">
<!-- Created with matplotlib (https://matplotlib.org/) -->
<svg height="345.6pt" version="1.1" viewBox="0 0 460.8 345.6" width="460.8pt" xmlns="http://www.w3.org/2000/svg" xmlns:xlink="http://www.w3.org/1999/xlink">
 <metadata>
  <rdf:RDF xmlns:cc="http://creativecommons.org/ns#" xmlns:dc="http://purl.org/dc/elements/1.1/" xmlns:rdf="http://www.w3.org/1999/02/22-rdf-syntax-ns#">
   <cc:Work>
    <dc:type rdf:resource="http://purl.org/dc/dcmitype/StillImage"/>
    <dc:date>2021-01-25T10:29:54.712457</dc:date>
    <dc:format>image/svg+xml</dc:format>
    <dc:creator>
     <cc:Agent>
      <dc:title>Matplotlib v3.3.3, https://matplotlib.org/</dc:title>
     </cc:Agent>
    </dc:creator>
   </cc:Work>
  </rdf:RDF>
 </metadata>
 <defs>
  <style type="text/css">*{stroke-linecap:butt;stroke-linejoin:round;}</style>
 </defs>
 <g id="figure_1">
  <g id="patch_1">
   <path d="M 0 345.6 
L 460.8 345.6 
L 460.8 0 
L 0 0 
z
" style="fill:#ffffff;"/>
  </g>
  <g id="axes_1">
   <g id="patch_2">
    <path d="M 57.6 307.584 
L 414.72 307.584 
L 414.72 41.472 
L 57.6 41.472 
z
" style="fill:#7d9051;"/>
   </g>
   <g id="matplotlib.axis_1">
    <g id="xtick_1">
     <g id="line2d_1">
      <defs>
       <path d="M 0 0 
L 0 3.5 
" id="mbf87b4aab6" style="stroke:#000000;stroke-width:0.8;"/>
      </defs>
      <g>
       <use style="stroke:#000000;stroke-width:0.8;" x="65.356394" xlink:href="#mbf87b4aab6" y="307.584"/>
      </g>
     </g>
     <g id="text_1">
      <!-- −20 -->
      <g transform="translate(54.804051 322.182437)scale(0.1 -0.1)">
       <defs>
        <path d="M 10.59375 35.5 
L 73.1875 35.5 
L 73.1875 27.203125 
L 10.59375 27.203125 
z
" id="DejaVuSans-8722"/>
        <path d="M 19.1875 8.296875 
L 53.609375 8.296875 
L 53.609375 0 
L 7.328125 0 
L 7.328125 8.296875 
Q 12.9375 14.109375 22.625 23.890625 
Q 32.328125 33.6875 34.8125 36.53125 
Q 39.546875 41.84375 41.421875 45.53125 
Q 43.3125 49.21875 43.3125 52.78125 
Q 43.3125 58.59375 39.234375 62.25 
Q 35.15625 65.921875 28.609375 65.921875 
Q 23.96875 65.921875 18.8125 64.3125 
Q 13.671875 62.703125 7.8125 59.421875 
L 7.8125 69.390625 
Q 13.765625 71.78125 18.9375 73 
Q 24.125 74.21875 28.421875 74.21875 
Q 39.75 74.21875 46.484375 68.546875 
Q 53.21875 62.890625 53.21875 53.421875 
Q 53.21875 48.921875 51.53125 44.890625 
Q 49.859375 40.875 45.40625 35.40625 
Q 44.1875 33.984375 37.640625 27.21875 
Q 31.109375 20.453125 19.1875 8.296875 
z
" id="DejaVuSans-50"/>
        <path d="M 31.78125 66.40625 
Q 24.171875 66.40625 20.328125 58.90625 
Q 16.5 51.421875 16.5 36.375 
Q 16.5 21.390625 20.328125 13.890625 
Q 24.171875 6.390625 31.78125 6.390625 
Q 39.453125 6.390625 43.28125 13.890625 
Q 47.125 21.390625 47.125 36.375 
Q 47.125 51.421875 43.28125 58.90625 
Q 39.453125 66.40625 31.78125 66.40625 
z
M 31.78125 74.21875 
Q 44.046875 74.21875 50.515625 64.515625 
Q 56.984375 54.828125 56.984375 36.375 
Q 56.984375 17.96875 50.515625 8.265625 
Q 44.046875 -1.421875 31.78125 -1.421875 
Q 19.53125 -1.421875 13.0625 8.265625 
Q 6.59375 17.96875 6.59375 36.375 
Q 6.59375 54.828125 13.0625 64.515625 
Q 19.53125 74.21875 31.78125 74.21875 
z
" id="DejaVuSans-48"/>
       </defs>
       <use xlink:href="#DejaVuSans-8722"/>
       <use x="83.789062" xlink:href="#DejaVuSans-50"/>
       <use x="147.412109" xlink:href="#DejaVuSans-48"/>
      </g>
     </g>
    </g>
    <g id="xtick_2">
     <g id="line2d_2">
      <g>
       <use style="stroke:#000000;stroke-width:0.8;" x="113.548453" xlink:href="#mbf87b4aab6" y="307.584"/>
      </g>
     </g>
     <g id="text_2">
      <!-- 0 -->
      <g transform="translate(110.367203 322.182437)scale(0.1 -0.1)">
       <use xlink:href="#DejaVuSans-48"/>
      </g>
     </g>
    </g>
    <g id="xtick_3">
     <g id="line2d_3">
      <g>
       <use style="stroke:#000000;stroke-width:0.8;" x="161.740511" xlink:href="#mbf87b4aab6" y="307.584"/>
      </g>
     </g>
     <g id="text_3">
      <!-- 20 -->
      <g transform="translate(155.378011 322.182437)scale(0.1 -0.1)">
       <use xlink:href="#DejaVuSans-50"/>
       <use x="63.623047" xlink:href="#DejaVuSans-48"/>
      </g>
     </g>
    </g>
    <g id="xtick_4">
     <g id="line2d_4">
      <g>
       <use style="stroke:#000000;stroke-width:0.8;" x="209.93257" xlink:href="#mbf87b4aab6" y="307.584"/>
      </g>
     </g>
     <g id="text_4">
      <!-- 40 -->
      <g transform="translate(203.57007 322.182437)scale(0.1 -0.1)">
       <defs>
        <path d="M 37.796875 64.3125 
L 12.890625 25.390625 
L 37.796875 25.390625 
z
M 35.203125 72.90625 
L 47.609375 72.90625 
L 47.609375 25.390625 
L 58.015625 25.390625 
L 58.015625 17.1875 
L 47.609375 17.1875 
L 47.609375 0 
L 37.796875 0 
L 37.796875 17.1875 
L 4.890625 17.1875 
L 4.890625 26.703125 
z
" id="DejaVuSans-52"/>
       </defs>
       <use xlink:href="#DejaVuSans-52"/>
       <use x="63.623047" xlink:href="#DejaVuSans-48"/>
      </g>
     </g>
    </g>
    <g id="xtick_5">
     <g id="line2d_5">
      <g>
       <use style="stroke:#000000;stroke-width:0.8;" x="258.124628" xlink:href="#mbf87b4aab6" y="307.584"/>
      </g>
     </g>
     <g id="text_5">
      <!-- 60 -->
      <g transform="translate(251.762128 322.182437)scale(0.1 -0.1)">
       <defs>
        <path d="M 33.015625 40.375 
Q 26.375 40.375 22.484375 35.828125 
Q 18.609375 31.296875 18.609375 23.390625 
Q 18.609375 15.53125 22.484375 10.953125 
Q 26.375 6.390625 33.015625 6.390625 
Q 39.65625 6.390625 43.53125 10.953125 
Q 47.40625 15.53125 47.40625 23.390625 
Q 47.40625 31.296875 43.53125 35.828125 
Q 39.65625 40.375 33.015625 40.375 
z
M 52.59375 71.296875 
L 52.59375 62.3125 
Q 48.875 64.0625 45.09375 64.984375 
Q 41.3125 65.921875 37.59375 65.921875 
Q 27.828125 65.921875 22.671875 59.328125 
Q 17.53125 52.734375 16.796875 39.40625 
Q 19.671875 43.65625 24.015625 45.921875 
Q 28.375 48.1875 33.59375 48.1875 
Q 44.578125 48.1875 50.953125 41.515625 
Q 57.328125 34.859375 57.328125 23.390625 
Q 57.328125 12.15625 50.6875 5.359375 
Q 44.046875 -1.421875 33.015625 -1.421875 
Q 20.359375 -1.421875 13.671875 8.265625 
Q 6.984375 17.96875 6.984375 36.375 
Q 6.984375 53.65625 15.1875 63.9375 
Q 23.390625 74.21875 37.203125 74.21875 
Q 40.921875 74.21875 44.703125 73.484375 
Q 48.484375 72.75 52.59375 71.296875 
z
" id="DejaVuSans-54"/>
       </defs>
       <use xlink:href="#DejaVuSans-54"/>
       <use x="63.623047" xlink:href="#DejaVuSans-48"/>
      </g>
     </g>
    </g>
    <g id="xtick_6">
     <g id="line2d_6">
      <g>
       <use style="stroke:#000000;stroke-width:0.8;" x="306.316687" xlink:href="#mbf87b4aab6" y="307.584"/>
      </g>
     </g>
     <g id="text_6">
      <!-- 80 -->
      <g transform="translate(299.954187 322.182437)scale(0.1 -0.1)">
       <defs>
        <path d="M 31.78125 34.625 
Q 24.75 34.625 20.71875 30.859375 
Q 16.703125 27.09375 16.703125 20.515625 
Q 16.703125 13.921875 20.71875 10.15625 
Q 24.75 6.390625 31.78125 6.390625 
Q 38.8125 6.390625 42.859375 10.171875 
Q 46.921875 13.96875 46.921875 20.515625 
Q 46.921875 27.09375 42.890625 30.859375 
Q 38.875 34.625 31.78125 34.625 
z
M 21.921875 38.8125 
Q 15.578125 40.375 12.03125 44.71875 
Q 8.5 49.078125 8.5 55.328125 
Q 8.5 64.0625 14.71875 69.140625 
Q 20.953125 74.21875 31.78125 74.21875 
Q 42.671875 74.21875 48.875 69.140625 
Q 55.078125 64.0625 55.078125 55.328125 
Q 55.078125 49.078125 51.53125 44.71875 
Q 48 40.375 41.703125 38.8125 
Q 48.828125 37.15625 52.796875 32.3125 
Q 56.78125 27.484375 56.78125 20.515625 
Q 56.78125 9.90625 50.3125 4.234375 
Q 43.84375 -1.421875 31.78125 -1.421875 
Q 19.734375 -1.421875 13.25 4.234375 
Q 6.78125 9.90625 6.78125 20.515625 
Q 6.78125 27.484375 10.78125 32.3125 
Q 14.796875 37.15625 21.921875 38.8125 
z
M 18.3125 54.390625 
Q 18.3125 48.734375 21.84375 45.5625 
Q 25.390625 42.390625 31.78125 42.390625 
Q 38.140625 42.390625 41.71875 45.5625 
Q 45.3125 48.734375 45.3125 54.390625 
Q 45.3125 60.0625 41.71875 63.234375 
Q 38.140625 66.40625 31.78125 66.40625 
Q 25.390625 66.40625 21.84375 63.234375 
Q 18.3125 60.0625 18.3125 54.390625 
z
" id="DejaVuSans-56"/>
       </defs>
       <use xlink:href="#DejaVuSans-56"/>
       <use x="63.623047" xlink:href="#DejaVuSans-48"/>
      </g>
     </g>
    </g>
    <g id="xtick_7">
     <g id="line2d_7">
      <g>
       <use style="stroke:#000000;stroke-width:0.8;" x="354.508745" xlink:href="#mbf87b4aab6" y="307.584"/>
      </g>
     </g>
     <g id="text_7">
      <!-- 100 -->
      <g transform="translate(344.964995 322.182437)scale(0.1 -0.1)">
       <defs>
        <path d="M 12.40625 8.296875 
L 28.515625 8.296875 
L 28.515625 63.921875 
L 10.984375 60.40625 
L 10.984375 69.390625 
L 28.421875 72.90625 
L 38.28125 72.90625 
L 38.28125 8.296875 
L 54.390625 8.296875 
L 54.390625 0 
L 12.40625 0 
z
" id="DejaVuSans-49"/>
       </defs>
       <use xlink:href="#DejaVuSans-49"/>
       <use x="63.623047" xlink:href="#DejaVuSans-48"/>
       <use x="127.246094" xlink:href="#DejaVuSans-48"/>
      </g>
     </g>
    </g>
    <g id="xtick_8">
     <g id="line2d_8">
      <g>
       <use style="stroke:#000000;stroke-width:0.8;" x="402.700804" xlink:href="#mbf87b4aab6" y="307.584"/>
      </g>
     </g>
     <g id="text_8">
      <!-- 120 -->
      <g transform="translate(393.157054 322.182437)scale(0.1 -0.1)">
       <use xlink:href="#DejaVuSans-49"/>
       <use x="63.623047" xlink:href="#DejaVuSans-50"/>
       <use x="127.246094" xlink:href="#DejaVuSans-48"/>
      </g>
     </g>
    </g>
   </g>
   <g id="matplotlib.axis_2">
    <g id="ytick_1">
     <g id="line2d_9">
      <defs>
       <path d="M 0 0 
L -3.5 0 
" id="md5bf462620" style="stroke:#000000;stroke-width:0.8;"/>
      </defs>
      <g>
       <use style="stroke:#000000;stroke-width:0.8;" x="57.6" xlink:href="#md5bf462620" y="270.665889"/>
      </g>
     </g>
     <g id="text_9">
      <!-- 20 -->
      <g transform="translate(37.875 274.465108)scale(0.1 -0.1)">
       <use xlink:href="#DejaVuSans-50"/>
       <use x="63.623047" xlink:href="#DejaVuSans-48"/>
      </g>
     </g>
    </g>
    <g id="ytick_2">
     <g id="line2d_10">
      <g>
       <use style="stroke:#000000;stroke-width:0.8;" x="57.6" xlink:href="#md5bf462620" y="222.473831"/>
      </g>
     </g>
     <g id="text_10">
      <!-- 40 -->
      <g transform="translate(37.875 226.27305)scale(0.1 -0.1)">
       <use xlink:href="#DejaVuSans-52"/>
       <use x="63.623047" xlink:href="#DejaVuSans-48"/>
      </g>
     </g>
    </g>
    <g id="ytick_3">
     <g id="line2d_11">
      <g>
       <use style="stroke:#000000;stroke-width:0.8;" x="57.6" xlink:href="#md5bf462620" y="174.281772"/>
      </g>
     </g>
     <g id="text_11">
      <!-- 60 -->
      <g transform="translate(37.875 178.080991)scale(0.1 -0.1)">
       <use xlink:href="#DejaVuSans-54"/>
       <use x="63.623047" xlink:href="#DejaVuSans-48"/>
      </g>
     </g>
    </g>
    <g id="ytick_4">
     <g id="line2d_12">
      <g>
       <use style="stroke:#000000;stroke-width:0.8;" x="57.6" xlink:href="#md5bf462620" y="126.089714"/>
      </g>
     </g>
     <g id="text_12">
      <!-- 80 -->
      <g transform="translate(37.875 129.888933)scale(0.1 -0.1)">
       <use xlink:href="#DejaVuSans-56"/>
       <use x="63.623047" xlink:href="#DejaVuSans-48"/>
      </g>
     </g>
    </g>
    <g id="ytick_5">
     <g id="line2d_13">
      <g>
       <use style="stroke:#000000;stroke-width:0.8;" x="57.6" xlink:href="#md5bf462620" y="77.897655"/>
      </g>
     </g>
     <g id="text_13">
      <!-- 100 -->
      <g transform="translate(31.5125 81.696874)scale(0.1 -0.1)">
       <use xlink:href="#DejaVuSans-49"/>
       <use x="63.623047" xlink:href="#DejaVuSans-48"/>
       <use x="127.246094" xlink:href="#DejaVuSans-48"/>
      </g>
     </g>
    </g>
   </g>
   <g id="line2d_14">
    <path clip-path="url(#p5dc2db696c)" d="M 335.54758 294.761919 
L 335.868057 289.918617 
L 336.010224 285.087363 
L 335.935526 277.865783 
L 335.566857 270.665889 
L 334.964456 263.478044 
L 333.90905 253.897463 
L 332.371723 241.909688 
L 331.631975 237.129036 
L 330.701869 232.394166 
L 329.489838 227.729175 
L 327.90432 223.158158 
L 326.945298 220.914818 
L 325.873024 218.712441 
L 324.692319 216.563075 
L 323.403181 214.47154 
L 322.008021 212.452292 
L 320.514067 210.514972 
L 318.91891 208.669216 
L 317.229779 206.924663 
L 315.446672 205.293362 
L 313.572001 203.784951 
L 311.610585 202.406658 
L 309.572061 201.151255 
L 307.463658 200.001874 
L 303.078181 197.982627 
L 298.52885 196.250122 
L 291.562688 193.980276 
L 282.273669 191.218871 
L 275.28582 189.423717 
L 270.587095 188.426142 
L 265.837767 187.623744 
L 261.037838 187.047849 
L 256.208994 186.708095 
L 251.372921 186.628578 
L 246.546486 186.818936 
L 241.751377 187.298447 
L 236.992411 188.038195 
L 229.905769 189.479138 
L 211.060264 193.614017 
L 203.949526 194.905564 
L 196.797824 196.013981 
L 189.597931 196.886257 
L 184.778725 197.23324 
L 179.95229 197.307938 
L 175.125856 197.035653 
L 172.713843 196.7465 
L 170.30665 196.341687 
L 167.911505 195.823623 
L 165.542865 195.185078 
L 163.20796 194.428462 
L 160.918837 193.548957 
L 158.687545 192.548972 
L 156.523721 191.423688 
L 154.439415 190.173104 
L 152.444263 188.794811 
L 150.550315 187.286399 
L 148.767209 185.650279 
L 147.097354 183.893678 
L 145.540751 182.026236 
L 144.099808 180.057591 
L 142.779346 178.002199 
L 141.574545 175.864881 
L 140.492633 173.660095 
L 139.531201 171.395068 
L 138.695069 169.07944 
L 137.981827 166.727667 
L 137.396293 164.34698 
L 136.936059 161.944605 
L 136.601124 159.525364 
L 136.386669 157.094075 
L 136.297514 154.660376 
L 136.328839 152.226677 
L 136.480644 149.802616 
L 136.750519 147.390604 
L 137.138466 145.000278 
L 137.644482 142.634048 
L 138.26616 140.299142 
L 139.827582 135.728126 
L 141.774542 131.294456 
L 144.046797 127.005363 
L 146.593747 122.865665 
L 149.362381 118.885001 
L 152.309326 115.056142 
L 155.417713 111.36463 
L 158.661039 107.796008 
L 163.730843 102.641868 
L 168.991007 97.685315 
L 174.410204 92.902253 
L 179.971567 88.273406 
L 185.65582 83.786725 
L 191.470192 79.471126 
L 197.438779 75.394078 
L 201.518237 72.837489 
L 205.68685 70.435115 
L 209.949437 68.199004 
L 214.313228 66.153251 
L 218.787861 64.317133 
L 223.380564 62.705109 
L 223.380564 62.705109 
" style="fill:none;stroke:#fea952;stroke-linecap:square;"/>
   </g>
   <g id="line2d_15">
    <path clip-path="url(#p5dc2db696c)" d="M 325.936556 294.035837 
L 326.236555 289.553714 
L 326.371933 285.039171 
L 326.304495 278.242902 
L 325.954991 271.380742 
L 325.374453 264.442833 
L 324.342426 255.071636 
L 322.835629 243.310362 
L 321.761626 236.72906 
L 320.849382 232.633681 
L 319.711586 228.784213 
L 318.27941 225.133986 
L 316.487258 221.620342 
L 314.375449 218.338107 
L 311.994423 215.373726 
L 309.404441 212.802717 
L 308.03044 211.671019 
L 306.556412 210.613625 
L 303.257728 208.674194 
L 299.521653 206.940868 
L 295.418205 205.372779 
L 288.718781 203.189574 
L 279.739266 200.518107 
L 273.197003 198.833065 
L 268.868023 197.910011 
L 264.568956 197.178277 
L 260.241383 196.653297 
L 255.921122 196.342206 
L 251.613086 196.263997 
L 247.365246 196.422509 
L 243.121206 196.839021 
L 238.776812 197.50999 
L 232.023121 198.882106 
L 212.863285 203.082285 
L 205.520008 204.415168 
L 198.094956 205.56471 
L 193.01121 206.218755 
L 187.765594 206.709773 
L 182.354674 206.948754 
L 176.798636 206.831214 
L 173.978616 206.605544 
L 171.115414 206.251447 
L 168.269003 205.762249 
L 165.402718 205.129802 
L 162.571684 204.354105 
L 159.751145 203.425652 
L 156.977006 202.344465 
L 154.240537 201.100177 
L 151.564799 199.688557 
L 148.961106 198.103243 
L 146.439586 196.334229 
L 144.033927 194.388207 
L 141.78152 192.290996 
L 139.693705 190.064979 
L 137.763146 187.719024 
L 135.99064 185.267232 
L 134.383043 182.735177 
L 132.921774 180.110886 
L 131.620407 177.426072 
L 130.465672 174.668469 
L 129.47151 171.876749 
L 128.622346 169.029645 
L 127.930026 166.160477 
L 127.388712 163.266399 
L 126.99999 160.372243 
L 126.754719 157.446928 
L 126.659901 154.536327 
L 126.709272 151.624259 
L 126.902003 148.73088 
L 127.236595 145.846509 
L 127.713161 142.984683 
L 128.330555 140.154179 
L 129.079071 137.384286 
L 129.945751 134.683291 
L 130.926332 132.031274 
L 133.182611 126.926652 
L 135.764279 122.075975 
L 138.609627 117.466332 
L 141.658573 113.092737 
L 144.871089 108.926573 
L 148.227717 104.945679 
L 151.693199 101.136565 
L 157.041906 95.702336 
L 162.541651 90.522578 
L 168.176576 85.551004 
L 173.937598 80.757409 
L 179.82207 76.114285 
L 185.920964 71.590451 
L 192.253554 67.269275 
L 196.623354 64.534532 
L 201.119584 61.947532 
L 205.762924 59.517294 
L 210.545492 57.281771 
L 215.471758 55.267136 
L 220.312629 53.568 
L 220.312629 53.568 
" style="fill:none;stroke:#ffffff;stroke-linecap:square;"/>
   </g>
   <g id="line2d_16">
    <path clip-path="url(#p5dc2db696c)" d="M 345.158604 295.488 
L 345.499559 290.283519 
L 345.648515 285.135554 
L 345.631155 280.029199 
L 345.337811 272.454393 
L 344.783531 264.984899 
L 343.764589 255.156388 
L 342.247923 243.011392 
L 341.111668 235.387082 
L 340.070363 230.12915 
L 338.662073 224.767908 
L 337.783775 222.076614 
L 336.766861 219.369446 
L 335.611185 216.69565 
L 334.320752 214.071873 
L 332.89738 211.505808 
L 331.332915 208.992643 
L 329.640594 206.566478 
L 327.806498 204.212636 
L 325.843397 201.964705 
L 323.735725 199.813289 
L 321.488904 197.784007 
L 319.113563 195.898882 
L 316.664757 194.19969 
L 314.185401 192.688627 
L 311.669588 191.329554 
L 306.634708 189.024385 
L 301.639496 187.127465 
L 294.406596 184.770978 
L 284.808072 181.919636 
L 279.883233 180.618464 
L 274.855691 179.456868 
L 269.713218 178.475055 
L 264.47011 177.722188 
L 259.182252 177.225515 
L 253.818581 176.997438 
L 248.436372 177.064428 
L 243.044808 177.448236 
L 237.777481 178.134385 
L 232.70077 179.039832 
L 225.379385 180.618802 
L 213.832982 183.220245 
L 204.687762 184.997661 
L 197.803538 186.128559 
L 190.994219 187.047743 
L 186.611061 187.467555 
L 182.373932 187.671941 
L 178.277101 187.611171 
L 174.312273 187.241554 
L 170.420291 186.517443 
L 166.664774 185.431273 
L 163.134552 183.997767 
L 159.917723 182.242964 
L 158.44894 181.255392 
L 157.066703 180.184592 
L 155.752899 179.009562 
L 154.501004 177.722378 
L 153.318356 176.333448 
L 152.208977 174.847949 
L 150.227315 171.618877 
L 148.596731 168.121667 
L 147.341307 164.42569 
L 146.483406 160.622811 
L 146.01862 156.741221 
L 145.948406 152.829095 
L 146.264444 148.934698 
L 146.958409 145.113917 
L 148.046787 141.312652 
L 149.500669 137.546231 
L 151.313196 133.787877 
L 153.42407 130.087153 
L 155.792622 126.462801 
L 158.386547 122.917085 
L 161.150706 119.479581 
L 164.097462 116.112601 
L 168.794334 111.189655 
L 173.742662 106.410398 
L 178.887246 101.771622 
L 184.201235 97.26355 
L 189.652835 92.883635 
L 195.167285 88.69338 
L 200.75573 84.75863 
L 204.521002 82.306677 
L 208.320417 80.013845 
L 212.192288 77.877315 
L 216.113736 75.924423 
L 220.087113 74.169587 
L 224.137689 72.61811 
L 226.448498 71.842218 
L 226.448498 71.842218 
" style="fill:none;stroke:#ffffff;stroke-linecap:square;"/>
   </g>
   <g id="patch_3">
    <path d="M 57.6 307.584 
L 57.6 41.472 
" style="fill:none;stroke:#000000;stroke-linecap:square;stroke-linejoin:miter;stroke-width:0.8;"/>
   </g>
   <g id="patch_4">
    <path d="M 414.72 307.584 
L 414.72 41.472 
" style="fill:none;stroke:#000000;stroke-linecap:square;stroke-linejoin:miter;stroke-width:0.8;"/>
   </g>
   <g id="patch_5">
    <path d="M 57.6 307.584 
L 414.72 307.584 
" style="fill:none;stroke:#000000;stroke-linecap:square;stroke-linejoin:miter;stroke-width:0.8;"/>
   </g>
   <g id="patch_6">
    <path d="M 57.6 41.472 
L 414.72 41.472 
" style="fill:none;stroke:#000000;stroke-linecap:square;stroke-linejoin:miter;stroke-width:0.8;"/>
   </g>
  </g>
 </g>
 <defs>
  <clipPath id="p5dc2db696c">
   <rect height="266.112" width="357.12" x="57.6" y="41.472"/>
  </clipPath>
 </defs>
</svg>
