<?xml version="1.0" encoding="utf-8" standalone="no"?>
<!DOCTYPE svg PUBLIC "-//W3C//DTD SVG 1.1//EN"
  "http://www.w3.org/Graphics/SVG/1.1/DTD/svg11.dtd">
<!-- Created with matplotlib (https://matplotlib.org/) -->
<svg height="345.6pt" version="1.1" viewBox="0 0 460.8 345.6" width="460.8pt" xmlns="http://www.w3.org/2000/svg" xmlns:xlink="http://www.w3.org/1999/xlink">
 <metadata>
  <rdf:RDF xmlns:cc="http://creativecommons.org/ns#" xmlns:dc="http://purl.org/dc/elements/1.1/" xmlns:rdf="http://www.w3.org/1999/02/22-rdf-syntax-ns#">
   <cc:Work>
    <dc:type rdf:resource="http://purl.org/dc/dcmitype/StillImage"/>
    <dc:date>2021-01-23T11:41:59.794220</dc:date>
    <dc:format>image/svg+xml</dc:format>
    <dc:creator>
     <cc:Agent>
      <dc:title>Matplotlib v3.3.3, https://matplotlib.org/</dc:title>
     </cc:Agent>
    </dc:creator>
   </cc:Work>
  </rdf:RDF>
 </metadata>
 <defs>
  <style type="text/css">*{stroke-linecap:butt;stroke-linejoin:round;}</style>
 </defs>
 <g id="figure_1">
  <g id="patch_1">
   <path d="M 0 345.6 
L 460.8 345.6 
L 460.8 0 
L 0 0 
z
" style="fill:#ffffff;"/>
  </g>
  <g id="axes_1">
   <g id="patch_2">
    <path d="M 57.6 307.584 
L 414.72 307.584 
L 414.72 41.472 
L 57.6 41.472 
z
" style="fill:#7d9051;"/>
   </g>
   <g id="matplotlib.axis_1">
    <g id="xtick_1">
     <g id="line2d_1">
      <defs>
       <path d="M 0 0 
L 0 3.5 
" id="m7400d1b013" style="stroke:#000000;stroke-width:0.8;"/>
      </defs>
      <g>
       <use style="stroke:#000000;stroke-width:0.8;" x="68.328745" xlink:href="#m7400d1b013" y="307.584"/>
      </g>
     </g>
     <g id="text_1">
      <!-- 0 -->
      <g transform="translate(65.147495 322.182437)scale(0.1 -0.1)">
       <defs>
        <path d="M 31.78125 66.40625 
Q 24.171875 66.40625 20.328125 58.90625 
Q 16.5 51.421875 16.5 36.375 
Q 16.5 21.390625 20.328125 13.890625 
Q 24.171875 6.390625 31.78125 6.390625 
Q 39.453125 6.390625 43.28125 13.890625 
Q 47.125 21.390625 47.125 36.375 
Q 47.125 51.421875 43.28125 58.90625 
Q 39.453125 66.40625 31.78125 66.40625 
z
M 31.78125 74.21875 
Q 44.046875 74.21875 50.515625 64.515625 
Q 56.984375 54.828125 56.984375 36.375 
Q 56.984375 17.96875 50.515625 8.265625 
Q 44.046875 -1.421875 31.78125 -1.421875 
Q 19.53125 -1.421875 13.0625 8.265625 
Q 6.59375 17.96875 6.59375 36.375 
Q 6.59375 54.828125 13.0625 64.515625 
Q 19.53125 74.21875 31.78125 74.21875 
z
" id="DejaVuSans-48"/>
       </defs>
       <use xlink:href="#DejaVuSans-48"/>
      </g>
     </g>
    </g>
    <g id="xtick_2">
     <g id="line2d_2">
      <g>
       <use style="stroke:#000000;stroke-width:0.8;" x="118.104275" xlink:href="#m7400d1b013" y="307.584"/>
      </g>
     </g>
     <g id="text_2">
      <!-- 20 -->
      <g transform="translate(111.741775 322.182437)scale(0.1 -0.1)">
       <defs>
        <path d="M 19.1875 8.296875 
L 53.609375 8.296875 
L 53.609375 0 
L 7.328125 0 
L 7.328125 8.296875 
Q 12.9375 14.109375 22.625 23.890625 
Q 32.328125 33.6875 34.8125 36.53125 
Q 39.546875 41.84375 41.421875 45.53125 
Q 43.3125 49.21875 43.3125 52.78125 
Q 43.3125 58.59375 39.234375 62.25 
Q 35.15625 65.921875 28.609375 65.921875 
Q 23.96875 65.921875 18.8125 64.3125 
Q 13.671875 62.703125 7.8125 59.421875 
L 7.8125 69.390625 
Q 13.765625 71.78125 18.9375 73 
Q 24.125 74.21875 28.421875 74.21875 
Q 39.75 74.21875 46.484375 68.546875 
Q 53.21875 62.890625 53.21875 53.421875 
Q 53.21875 48.921875 51.53125 44.890625 
Q 49.859375 40.875 45.40625 35.40625 
Q 44.1875 33.984375 37.640625 27.21875 
Q 31.109375 20.453125 19.1875 8.296875 
z
" id="DejaVuSans-50"/>
       </defs>
       <use xlink:href="#DejaVuSans-50"/>
       <use x="63.623047" xlink:href="#DejaVuSans-48"/>
      </g>
     </g>
    </g>
    <g id="xtick_3">
     <g id="line2d_3">
      <g>
       <use style="stroke:#000000;stroke-width:0.8;" x="167.879806" xlink:href="#m7400d1b013" y="307.584"/>
      </g>
     </g>
     <g id="text_3">
      <!-- 40 -->
      <g transform="translate(161.517306 322.182437)scale(0.1 -0.1)">
       <defs>
        <path d="M 37.796875 64.3125 
L 12.890625 25.390625 
L 37.796875 25.390625 
z
M 35.203125 72.90625 
L 47.609375 72.90625 
L 47.609375 25.390625 
L 58.015625 25.390625 
L 58.015625 17.1875 
L 47.609375 17.1875 
L 47.609375 0 
L 37.796875 0 
L 37.796875 17.1875 
L 4.890625 17.1875 
L 4.890625 26.703125 
z
" id="DejaVuSans-52"/>
       </defs>
       <use xlink:href="#DejaVuSans-52"/>
       <use x="63.623047" xlink:href="#DejaVuSans-48"/>
      </g>
     </g>
    </g>
    <g id="xtick_4">
     <g id="line2d_4">
      <g>
       <use style="stroke:#000000;stroke-width:0.8;" x="217.655337" xlink:href="#m7400d1b013" y="307.584"/>
      </g>
     </g>
     <g id="text_4">
      <!-- 60 -->
      <g transform="translate(211.292837 322.182437)scale(0.1 -0.1)">
       <defs>
        <path d="M 33.015625 40.375 
Q 26.375 40.375 22.484375 35.828125 
Q 18.609375 31.296875 18.609375 23.390625 
Q 18.609375 15.53125 22.484375 10.953125 
Q 26.375 6.390625 33.015625 6.390625 
Q 39.65625 6.390625 43.53125 10.953125 
Q 47.40625 15.53125 47.40625 23.390625 
Q 47.40625 31.296875 43.53125 35.828125 
Q 39.65625 40.375 33.015625 40.375 
z
M 52.59375 71.296875 
L 52.59375 62.3125 
Q 48.875 64.0625 45.09375 64.984375 
Q 41.3125 65.921875 37.59375 65.921875 
Q 27.828125 65.921875 22.671875 59.328125 
Q 17.53125 52.734375 16.796875 39.40625 
Q 19.671875 43.65625 24.015625 45.921875 
Q 28.375 48.1875 33.59375 48.1875 
Q 44.578125 48.1875 50.953125 41.515625 
Q 57.328125 34.859375 57.328125 23.390625 
Q 57.328125 12.15625 50.6875 5.359375 
Q 44.046875 -1.421875 33.015625 -1.421875 
Q 20.359375 -1.421875 13.671875 8.265625 
Q 6.984375 17.96875 6.984375 36.375 
Q 6.984375 53.65625 15.1875 63.9375 
Q 23.390625 74.21875 37.203125 74.21875 
Q 40.921875 74.21875 44.703125 73.484375 
Q 48.484375 72.75 52.59375 71.296875 
z
" id="DejaVuSans-54"/>
       </defs>
       <use xlink:href="#DejaVuSans-54"/>
       <use x="63.623047" xlink:href="#DejaVuSans-48"/>
      </g>
     </g>
    </g>
    <g id="xtick_5">
     <g id="line2d_5">
      <g>
       <use style="stroke:#000000;stroke-width:0.8;" x="267.430867" xlink:href="#m7400d1b013" y="307.584"/>
      </g>
     </g>
     <g id="text_5">
      <!-- 80 -->
      <g transform="translate(261.068367 322.182437)scale(0.1 -0.1)">
       <defs>
        <path d="M 31.78125 34.625 
Q 24.75 34.625 20.71875 30.859375 
Q 16.703125 27.09375 16.703125 20.515625 
Q 16.703125 13.921875 20.71875 10.15625 
Q 24.75 6.390625 31.78125 6.390625 
Q 38.8125 6.390625 42.859375 10.171875 
Q 46.921875 13.96875 46.921875 20.515625 
Q 46.921875 27.09375 42.890625 30.859375 
Q 38.875 34.625 31.78125 34.625 
z
M 21.921875 38.8125 
Q 15.578125 40.375 12.03125 44.71875 
Q 8.5 49.078125 8.5 55.328125 
Q 8.5 64.0625 14.71875 69.140625 
Q 20.953125 74.21875 31.78125 74.21875 
Q 42.671875 74.21875 48.875 69.140625 
Q 55.078125 64.0625 55.078125 55.328125 
Q 55.078125 49.078125 51.53125 44.71875 
Q 48 40.375 41.703125 38.8125 
Q 48.828125 37.15625 52.796875 32.3125 
Q 56.78125 27.484375 56.78125 20.515625 
Q 56.78125 9.90625 50.3125 4.234375 
Q 43.84375 -1.421875 31.78125 -1.421875 
Q 19.734375 -1.421875 13.25 4.234375 
Q 6.78125 9.90625 6.78125 20.515625 
Q 6.78125 27.484375 10.78125 32.3125 
Q 14.796875 37.15625 21.921875 38.8125 
z
M 18.3125 54.390625 
Q 18.3125 48.734375 21.84375 45.5625 
Q 25.390625 42.390625 31.78125 42.390625 
Q 38.140625 42.390625 41.71875 45.5625 
Q 45.3125 48.734375 45.3125 54.390625 
Q 45.3125 60.0625 41.71875 63.234375 
Q 38.140625 66.40625 31.78125 66.40625 
Q 25.390625 66.40625 21.84375 63.234375 
Q 18.3125 60.0625 18.3125 54.390625 
z
" id="DejaVuSans-56"/>
       </defs>
       <use xlink:href="#DejaVuSans-56"/>
       <use x="63.623047" xlink:href="#DejaVuSans-48"/>
      </g>
     </g>
    </g>
    <g id="xtick_6">
     <g id="line2d_6">
      <g>
       <use style="stroke:#000000;stroke-width:0.8;" x="317.206398" xlink:href="#m7400d1b013" y="307.584"/>
      </g>
     </g>
     <g id="text_6">
      <!-- 100 -->
      <g transform="translate(307.662648 322.182437)scale(0.1 -0.1)">
       <defs>
        <path d="M 12.40625 8.296875 
L 28.515625 8.296875 
L 28.515625 63.921875 
L 10.984375 60.40625 
L 10.984375 69.390625 
L 28.421875 72.90625 
L 38.28125 72.90625 
L 38.28125 8.296875 
L 54.390625 8.296875 
L 54.390625 0 
L 12.40625 0 
z
" id="DejaVuSans-49"/>
       </defs>
       <use xlink:href="#DejaVuSans-49"/>
       <use x="63.623047" xlink:href="#DejaVuSans-48"/>
       <use x="127.246094" xlink:href="#DejaVuSans-48"/>
      </g>
     </g>
    </g>
    <g id="xtick_7">
     <g id="line2d_7">
      <g>
       <use style="stroke:#000000;stroke-width:0.8;" x="366.981929" xlink:href="#m7400d1b013" y="307.584"/>
      </g>
     </g>
     <g id="text_7">
      <!-- 120 -->
      <g transform="translate(357.438179 322.182437)scale(0.1 -0.1)">
       <use xlink:href="#DejaVuSans-49"/>
       <use x="63.623047" xlink:href="#DejaVuSans-50"/>
       <use x="127.246094" xlink:href="#DejaVuSans-48"/>
      </g>
     </g>
    </g>
   </g>
   <g id="matplotlib.axis_2">
    <g id="ytick_1">
     <g id="line2d_8">
      <defs>
       <path d="M 0 0 
L -3.5 0 
" id="mba7f22bc17" style="stroke:#000000;stroke-width:0.8;"/>
      </defs>
      <g>
       <use style="stroke:#000000;stroke-width:0.8;" x="57.6" xlink:href="#mba7f22bc17" y="269.197787"/>
      </g>
     </g>
     <g id="text_8">
      <!-- 20 -->
      <g transform="translate(37.875 272.997005)scale(0.1 -0.1)">
       <use xlink:href="#DejaVuSans-50"/>
       <use x="63.623047" xlink:href="#DejaVuSans-48"/>
      </g>
     </g>
    </g>
    <g id="ytick_2">
     <g id="line2d_9">
      <g>
       <use style="stroke:#000000;stroke-width:0.8;" x="57.6" xlink:href="#mba7f22bc17" y="219.422256"/>
      </g>
     </g>
     <g id="text_9">
      <!-- 40 -->
      <g transform="translate(37.875 223.221475)scale(0.1 -0.1)">
       <use xlink:href="#DejaVuSans-52"/>
       <use x="63.623047" xlink:href="#DejaVuSans-48"/>
      </g>
     </g>
    </g>
    <g id="ytick_3">
     <g id="line2d_10">
      <g>
       <use style="stroke:#000000;stroke-width:0.8;" x="57.6" xlink:href="#mba7f22bc17" y="169.646725"/>
      </g>
     </g>
     <g id="text_10">
      <!-- 60 -->
      <g transform="translate(37.875 173.445944)scale(0.1 -0.1)">
       <use xlink:href="#DejaVuSans-54"/>
       <use x="63.623047" xlink:href="#DejaVuSans-48"/>
      </g>
     </g>
    </g>
    <g id="ytick_4">
     <g id="line2d_11">
      <g>
       <use style="stroke:#000000;stroke-width:0.8;" x="57.6" xlink:href="#mba7f22bc17" y="119.871195"/>
      </g>
     </g>
     <g id="text_11">
      <!-- 80 -->
      <g transform="translate(37.875 123.670413)scale(0.1 -0.1)">
       <use xlink:href="#DejaVuSans-56"/>
       <use x="63.623047" xlink:href="#DejaVuSans-48"/>
      </g>
     </g>
    </g>
    <g id="ytick_5">
     <g id="line2d_12">
      <g>
       <use style="stroke:#000000;stroke-width:0.8;" x="57.6" xlink:href="#mba7f22bc17" y="70.095664"/>
      </g>
     </g>
     <g id="text_12">
      <!-- 100 -->
      <g transform="translate(31.5125 73.894883)scale(0.1 -0.1)">
       <use xlink:href="#DejaVuSans-49"/>
       <use x="63.623047" xlink:href="#DejaVuSans-48"/>
       <use x="127.246094" xlink:href="#DejaVuSans-48"/>
      </g>
     </g>
    </g>
   </g>
   <g id="line2d_13">
    <path clip-path="url(#pd7ab7bce81)" d="M 372.57421 294.085552 
L 371.949527 289.028358 
L 371.685716 284.018451 
L 371.735492 279.048364 
L 372.054055 274.11312 
L 372.59412 269.197787 
L 373.714069 261.853407 
L 375.540831 252.065049 
L 377.39497 242.224427 
L 378.191378 237.27425 
L 378.781218 232.306652 
L 379.072405 227.331588 
L 378.967877 222.356523 
L 378.738909 219.870236 
L 378.375548 217.388925 
L 377.880281 214.920059 
L 377.255598 212.473592 
L 376.496522 210.061967 
L 375.610517 207.692652 
L 374.595096 205.375601 
L 373.452748 203.123258 
L 372.185961 200.945579 
L 370.792246 198.850029 
L 369.276581 196.851542 
L 367.638966 194.955094 
L 365.889356 193.163175 
L 364.035217 191.475784 
L 362.086505 189.892922 
L 360.048197 188.414589 
L 357.935226 187.040784 
L 355.75008 185.771508 
L 353.507693 184.60925 
L 351.213041 183.55152 
L 346.504276 181.749646 
L 341.67356 180.363397 
L 336.760715 179.385308 
L 331.790629 178.802934 
L 326.798143 178.606321 
L 321.813124 178.79049 
L 316.857969 179.325577 
L 311.942636 180.179228 
L 307.074589 181.31411 
L 302.263784 182.695381 
L 297.520176 184.280731 
L 278.759778 190.95563 
L 273.95644 192.197529 
L 269.070971 193.125843 
L 264.120795 193.765459 
L 259.130798 194.138775 
L 254.123379 194.268191 
L 249.120939 194.178596 
L 244.13343 193.882431 
L 239.173299 193.379698 
L 234.243032 192.670397 
L 229.347609 191.757016 
L 224.499472 190.639555 
L 219.696134 189.325481 
L 214.94257 187.832215 
L 210.238783 186.172201 
L 203.28763 183.412148 
L 196.463405 180.363397 
L 189.78104 177.025948 
L 183.255468 173.382379 
L 179.004637 170.779119 
L 174.838425 168.031509 
L 170.776742 165.134573 
L 166.83452 162.085822 
L 163.026692 158.8753 
L 159.365702 155.503008 
L 155.854038 151.976412 
L 152.471791 148.320399 
L 147.603744 142.645989 
L 142.919866 136.809808 
L 138.387804 130.869098 
L 134.005069 124.82386 
L 129.774149 118.679071 
L 115.929085 97.997338 
L 111.414444 92.009341 
L 105.391605 84.055211 
L 102.559377 79.991039 
L 99.956117 75.809895 
L 97.658976 71.46698 
L 96.651022 69.222103 
L 95.752573 66.919985 
L 94.968609 64.553159 
L 94.314061 62.119135 
L 93.796395 59.612937 
L 93.428056 57.02461 
L 93.21651 54.354152 
L 93.21651 54.354152 
" style="fill:none;stroke:#fea952;stroke-linecap:square;"/>
   </g>
   <g id="line2d_14">
    <path clip-path="url(#pd7ab7bce81)" d="M 362.718385 295.488 
L 362.018291 289.717344 
L 361.730735 284.068226 
L 361.794008 278.527763 
L 362.148454 273.121559 
L 362.732568 267.836192 
L 363.911349 260.118236 
L 365.767766 250.169967 
L 367.972144 238.247243 
L 368.617983 233.739009 
L 369.023616 229.412548 
L 369.128997 225.270913 
L 368.888857 221.312671 
L 368.234653 217.382982 
L 367.759772 215.462474 
L 366.492548 211.688497 
L 364.84768 208.128949 
L 363.896758 206.458588 
L 362.86028 204.86568 
L 361.741883 203.357882 
L 360.516055 201.909825 
L 359.188893 200.525778 
L 357.758716 199.202987 
L 356.24173 197.951628 
L 352.934995 195.649026 
L 349.340277 193.65009 
L 345.522208 191.971455 
L 341.558421 190.630015 
L 337.486322 189.62506 
L 333.318271 188.952946 
L 329.095919 188.609224 
L 324.858514 188.590652 
L 320.564146 188.895506 
L 316.241283 189.498543 
L 311.889951 190.378566 
L 307.521963 191.511114 
L 303.133448 192.874437 
L 296.337675 195.317644 
L 286.628562 198.887695 
L 281.40617 200.552544 
L 275.970103 201.946852 
L 270.49135 202.9791 
L 264.992606 203.682317 
L 259.497056 204.087141 
L 254.044216 204.222983 
L 248.625287 204.121355 
L 243.22945 203.796409 
L 237.860201 203.247824 
L 232.520932 202.475422 
L 227.21548 201.481118 
L 221.963517 200.266241 
L 216.793634 198.848067 
L 211.705257 197.246244 
L 206.699773 195.477014 
L 201.778868 193.563618 
L 194.535682 190.442712 
L 189.77045 188.189375 
L 185.056581 185.788575 
L 180.424976 183.246928 
L 175.852838 180.545662 
L 171.350391 177.683858 
L 166.938648 174.653147 
L 162.625298 171.445 
L 158.41566 168.042773 
L 154.350308 164.455525 
L 150.470312 160.712626 
L 146.784843 156.86309 
L 143.268548 152.933299 
L 138.251678 146.936027 
L 133.478151 140.877705 
L 128.855748 134.713846 
L 124.377899 128.431274 
L 120.079625 122.07752 
L 109.290458 105.824182 
L 105.041766 100.055926 
L 97.284728 89.832986 
L 94.192216 85.384995 
L 91.251886 80.641096 
L 89.872006 78.138319 
L 88.577313 75.544667 
L 87.37715 72.84142 
L 86.302385 70.050174 
L 85.355043 67.138402 
L 84.564757 64.132894 
L 83.940586 61.015495 
L 83.50404 57.810762 
L 83.292494 55.140305 
L 83.292494 55.140305 
" style="fill:none;stroke:#ffffff;stroke-linecap:square;"/>
   </g>
   <g id="line2d_15">
    <path clip-path="url(#pd7ab7bce81)" d="M 382.430034 292.683104 
L 381.880762 288.339372 
L 381.640698 283.968676 
L 381.676976 279.568966 
L 381.959657 275.104682 
L 382.455671 270.559382 
L 383.516789 263.588578 
L 385.313897 253.960131 
L 387.210864 243.883451 
L 388.061815 238.569868 
L 388.707641 233.061815 
L 389.027506 227.341543 
L 389.020791 224.41471 
L 388.881035 221.4436 
L 388.588961 218.427801 
L 388.136196 215.430892 
L 387.52591 212.457137 
L 386.751425 209.484709 
L 385.820994 206.575085 
L 384.728486 203.696807 
L 383.473561 200.872601 
L 382.057816 198.117567 
L 380.475163 195.43257 
L 378.724212 192.834379 
L 376.811279 190.345201 
L 374.761877 188.000363 
L 372.589819 185.800571 
L 370.311719 183.748581 
L 367.931281 181.834217 
L 365.474651 180.068468 
L 362.935458 178.432543 
L 360.331155 176.933076 
L 357.675108 175.56841 
L 354.972813 174.333697 
L 352.229951 173.225182 
L 349.450622 172.240535 
L 346.646791 171.380988 
L 343.819512 170.642336 
L 340.967864 170.021605 
L 338.115934 169.522878 
L 335.240539 169.135745 
L 329.492853 168.702969 
L 323.745286 168.711586 
L 318.099481 169.138432 
L 312.546878 169.934087 
L 307.112341 171.050063 
L 301.798989 172.441134 
L 296.635579 174.054388 
L 289.324967 176.683308 
L 280.338391 179.997213 
L 276.113387 181.358716 
L 271.942776 182.448207 
L 267.650593 183.272587 
L 263.248983 183.8486 
L 258.764539 184.190409 
L 254.202543 184.3134 
L 249.61659 184.235836 
L 245.03741 183.968453 
L 240.486396 183.511572 
L 235.965133 182.865372 
L 231.479738 182.032914 
L 227.035428 181.01287 
L 222.598633 179.802896 
L 218.179884 178.418187 
L 213.777793 176.867388 
L 207.215138 174.264535 
L 200.779693 171.392678 
L 194.505498 168.263321 
L 188.386098 164.851214 
L 184.406995 162.41738 
L 180.542634 159.872702 
L 176.79108 157.201612 
L 173.170372 154.407208 
L 169.687957 151.477214 
L 166.350013 148.4091 
L 163.104223 145.154466 
L 159.939697 141.737504 
L 155.308128 136.341499 
L 150.788652 130.711747 
L 146.402971 124.964758 
L 142.158736 119.112306 
L 138.064955 113.168475 
L 123.937011 92.083181 
L 119.301784 85.935297 
L 113.498482 78.277437 
L 110.926538 74.597083 
L 108.660348 70.978694 
L 106.740639 67.389293 
L 105.202762 63.789796 
L 104.063364 60.105376 
L 103.652204 58.21038 
L 103.352073 56.238457 
L 103.140527 53.568 
L 103.140527 53.568 
" style="fill:none;stroke:#ffffff;stroke-linecap:square;"/>
   </g>
   <g id="patch_3">
    <path d="M 57.6 307.584 
L 57.6 41.472 
" style="fill:none;stroke:#000000;stroke-linecap:square;stroke-linejoin:miter;stroke-width:0.8;"/>
   </g>
   <g id="patch_4">
    <path d="M 414.72 307.584 
L 414.72 41.472 
" style="fill:none;stroke:#000000;stroke-linecap:square;stroke-linejoin:miter;stroke-width:0.8;"/>
   </g>
   <g id="patch_5">
    <path d="M 57.6 307.584 
L 414.72 307.584 
" style="fill:none;stroke:#000000;stroke-linecap:square;stroke-linejoin:miter;stroke-width:0.8;"/>
   </g>
   <g id="patch_6">
    <path d="M 57.6 41.472 
L 414.72 41.472 
" style="fill:none;stroke:#000000;stroke-linecap:square;stroke-linejoin:miter;stroke-width:0.8;"/>
   </g>
  </g>
 </g>
 <defs>
  <clipPath id="pd7ab7bce81">
   <rect height="266.112" width="357.12" x="57.6" y="41.472"/>
  </clipPath>
 </defs>
</svg>
