<?xml version="1.0" encoding="utf-8" standalone="no"?>
<!DOCTYPE svg PUBLIC "-//W3C//DTD SVG 1.1//EN"
  "http://www.w3.org/Graphics/SVG/1.1/DTD/svg11.dtd">
<!-- Created with matplotlib (https://matplotlib.org/) -->
<svg height="345.6pt" version="1.1" viewBox="0 0 460.8 345.6" width="460.8pt" xmlns="http://www.w3.org/2000/svg" xmlns:xlink="http://www.w3.org/1999/xlink">
 <metadata>
  <rdf:RDF xmlns:cc="http://creativecommons.org/ns#" xmlns:dc="http://purl.org/dc/elements/1.1/" xmlns:rdf="http://www.w3.org/1999/02/22-rdf-syntax-ns#">
   <cc:Work>
    <dc:type rdf:resource="http://purl.org/dc/dcmitype/StillImage"/>
    <dc:date>2021-01-22T10:27:50.832009</dc:date>
    <dc:format>image/svg+xml</dc:format>
    <dc:creator>
     <cc:Agent>
      <dc:title>Matplotlib v3.3.3, https://matplotlib.org/</dc:title>
     </cc:Agent>
    </dc:creator>
   </cc:Work>
  </rdf:RDF>
 </metadata>
 <defs>
  <style type="text/css">*{stroke-linecap:butt;stroke-linejoin:round;}</style>
 </defs>
 <g id="figure_1">
  <g id="patch_1">
   <path d="M 0 345.6 
L 460.8 345.6 
L 460.8 0 
L 0 0 
z
" style="fill:#ffffff;"/>
  </g>
  <g id="axes_1">
   <g id="patch_2">
    <path d="M 57.6 307.584 
L 414.72 307.584 
L 414.72 41.472 
L 57.6 41.472 
z
" style="fill:#7d9051;"/>
   </g>
   <g id="matplotlib.axis_1">
    <g id="xtick_1">
     <g id="line2d_1">
      <defs>
       <path d="M 0 0 
L 0 3.5 
" id="m7b0337740f" style="stroke:#000000;stroke-width:0.8;"/>
      </defs>
      <g>
       <use style="stroke:#000000;stroke-width:0.8;" x="58.896544" xlink:href="#m7b0337740f" y="307.584"/>
      </g>
     </g>
     <g id="text_1">
      <!-- 0 -->
      <g transform="translate(55.715294 322.182437)scale(0.1 -0.1)">
       <defs>
        <path d="M 31.78125 66.40625 
Q 24.171875 66.40625 20.328125 58.90625 
Q 16.5 51.421875 16.5 36.375 
Q 16.5 21.390625 20.328125 13.890625 
Q 24.171875 6.390625 31.78125 6.390625 
Q 39.453125 6.390625 43.28125 13.890625 
Q 47.125 21.390625 47.125 36.375 
Q 47.125 51.421875 43.28125 58.90625 
Q 39.453125 66.40625 31.78125 66.40625 
z
M 31.78125 74.21875 
Q 44.046875 74.21875 50.515625 64.515625 
Q 56.984375 54.828125 56.984375 36.375 
Q 56.984375 17.96875 50.515625 8.265625 
Q 44.046875 -1.421875 31.78125 -1.421875 
Q 19.53125 -1.421875 13.0625 8.265625 
Q 6.59375 17.96875 6.59375 36.375 
Q 6.59375 54.828125 13.0625 64.515625 
Q 19.53125 74.21875 31.78125 74.21875 
z
" id="DejaVuSans-48"/>
       </defs>
       <use xlink:href="#DejaVuSans-48"/>
      </g>
     </g>
    </g>
    <g id="xtick_2">
     <g id="line2d_2">
      <g>
       <use style="stroke:#000000;stroke-width:0.8;" x="112.691244" xlink:href="#m7b0337740f" y="307.584"/>
      </g>
     </g>
     <g id="text_2">
      <!-- 20 -->
      <g transform="translate(106.328744 322.182437)scale(0.1 -0.1)">
       <defs>
        <path d="M 19.1875 8.296875 
L 53.609375 8.296875 
L 53.609375 0 
L 7.328125 0 
L 7.328125 8.296875 
Q 12.9375 14.109375 22.625 23.890625 
Q 32.328125 33.6875 34.8125 36.53125 
Q 39.546875 41.84375 41.421875 45.53125 
Q 43.3125 49.21875 43.3125 52.78125 
Q 43.3125 58.59375 39.234375 62.25 
Q 35.15625 65.921875 28.609375 65.921875 
Q 23.96875 65.921875 18.8125 64.3125 
Q 13.671875 62.703125 7.8125 59.421875 
L 7.8125 69.390625 
Q 13.765625 71.78125 18.9375 73 
Q 24.125 74.21875 28.421875 74.21875 
Q 39.75 74.21875 46.484375 68.546875 
Q 53.21875 62.890625 53.21875 53.421875 
Q 53.21875 48.921875 51.53125 44.890625 
Q 49.859375 40.875 45.40625 35.40625 
Q 44.1875 33.984375 37.640625 27.21875 
Q 31.109375 20.453125 19.1875 8.296875 
z
" id="DejaVuSans-50"/>
       </defs>
       <use xlink:href="#DejaVuSans-50"/>
       <use x="63.623047" xlink:href="#DejaVuSans-48"/>
      </g>
     </g>
    </g>
    <g id="xtick_3">
     <g id="line2d_3">
      <g>
       <use style="stroke:#000000;stroke-width:0.8;" x="166.485944" xlink:href="#m7b0337740f" y="307.584"/>
      </g>
     </g>
     <g id="text_3">
      <!-- 40 -->
      <g transform="translate(160.123444 322.182437)scale(0.1 -0.1)">
       <defs>
        <path d="M 37.796875 64.3125 
L 12.890625 25.390625 
L 37.796875 25.390625 
z
M 35.203125 72.90625 
L 47.609375 72.90625 
L 47.609375 25.390625 
L 58.015625 25.390625 
L 58.015625 17.1875 
L 47.609375 17.1875 
L 47.609375 0 
L 37.796875 0 
L 37.796875 17.1875 
L 4.890625 17.1875 
L 4.890625 26.703125 
z
" id="DejaVuSans-52"/>
       </defs>
       <use xlink:href="#DejaVuSans-52"/>
       <use x="63.623047" xlink:href="#DejaVuSans-48"/>
      </g>
     </g>
    </g>
    <g id="xtick_4">
     <g id="line2d_4">
      <g>
       <use style="stroke:#000000;stroke-width:0.8;" x="220.280643" xlink:href="#m7b0337740f" y="307.584"/>
      </g>
     </g>
     <g id="text_4">
      <!-- 60 -->
      <g transform="translate(213.918143 322.182437)scale(0.1 -0.1)">
       <defs>
        <path d="M 33.015625 40.375 
Q 26.375 40.375 22.484375 35.828125 
Q 18.609375 31.296875 18.609375 23.390625 
Q 18.609375 15.53125 22.484375 10.953125 
Q 26.375 6.390625 33.015625 6.390625 
Q 39.65625 6.390625 43.53125 10.953125 
Q 47.40625 15.53125 47.40625 23.390625 
Q 47.40625 31.296875 43.53125 35.828125 
Q 39.65625 40.375 33.015625 40.375 
z
M 52.59375 71.296875 
L 52.59375 62.3125 
Q 48.875 64.0625 45.09375 64.984375 
Q 41.3125 65.921875 37.59375 65.921875 
Q 27.828125 65.921875 22.671875 59.328125 
Q 17.53125 52.734375 16.796875 39.40625 
Q 19.671875 43.65625 24.015625 45.921875 
Q 28.375 48.1875 33.59375 48.1875 
Q 44.578125 48.1875 50.953125 41.515625 
Q 57.328125 34.859375 57.328125 23.390625 
Q 57.328125 12.15625 50.6875 5.359375 
Q 44.046875 -1.421875 33.015625 -1.421875 
Q 20.359375 -1.421875 13.671875 8.265625 
Q 6.984375 17.96875 6.984375 36.375 
Q 6.984375 53.65625 15.1875 63.9375 
Q 23.390625 74.21875 37.203125 74.21875 
Q 40.921875 74.21875 44.703125 73.484375 
Q 48.484375 72.75 52.59375 71.296875 
z
" id="DejaVuSans-54"/>
       </defs>
       <use xlink:href="#DejaVuSans-54"/>
       <use x="63.623047" xlink:href="#DejaVuSans-48"/>
      </g>
     </g>
    </g>
    <g id="xtick_5">
     <g id="line2d_5">
      <g>
       <use style="stroke:#000000;stroke-width:0.8;" x="274.075343" xlink:href="#m7b0337740f" y="307.584"/>
      </g>
     </g>
     <g id="text_5">
      <!-- 80 -->
      <g transform="translate(267.712843 322.182437)scale(0.1 -0.1)">
       <defs>
        <path d="M 31.78125 34.625 
Q 24.75 34.625 20.71875 30.859375 
Q 16.703125 27.09375 16.703125 20.515625 
Q 16.703125 13.921875 20.71875 10.15625 
Q 24.75 6.390625 31.78125 6.390625 
Q 38.8125 6.390625 42.859375 10.171875 
Q 46.921875 13.96875 46.921875 20.515625 
Q 46.921875 27.09375 42.890625 30.859375 
Q 38.875 34.625 31.78125 34.625 
z
M 21.921875 38.8125 
Q 15.578125 40.375 12.03125 44.71875 
Q 8.5 49.078125 8.5 55.328125 
Q 8.5 64.0625 14.71875 69.140625 
Q 20.953125 74.21875 31.78125 74.21875 
Q 42.671875 74.21875 48.875 69.140625 
Q 55.078125 64.0625 55.078125 55.328125 
Q 55.078125 49.078125 51.53125 44.71875 
Q 48 40.375 41.703125 38.8125 
Q 48.828125 37.15625 52.796875 32.3125 
Q 56.78125 27.484375 56.78125 20.515625 
Q 56.78125 9.90625 50.3125 4.234375 
Q 43.84375 -1.421875 31.78125 -1.421875 
Q 19.734375 -1.421875 13.25 4.234375 
Q 6.78125 9.90625 6.78125 20.515625 
Q 6.78125 27.484375 10.78125 32.3125 
Q 14.796875 37.15625 21.921875 38.8125 
z
M 18.3125 54.390625 
Q 18.3125 48.734375 21.84375 45.5625 
Q 25.390625 42.390625 31.78125 42.390625 
Q 38.140625 42.390625 41.71875 45.5625 
Q 45.3125 48.734375 45.3125 54.390625 
Q 45.3125 60.0625 41.71875 63.234375 
Q 38.140625 66.40625 31.78125 66.40625 
Q 25.390625 66.40625 21.84375 63.234375 
Q 18.3125 60.0625 18.3125 54.390625 
z
" id="DejaVuSans-56"/>
       </defs>
       <use xlink:href="#DejaVuSans-56"/>
       <use x="63.623047" xlink:href="#DejaVuSans-48"/>
      </g>
     </g>
    </g>
    <g id="xtick_6">
     <g id="line2d_6">
      <g>
       <use style="stroke:#000000;stroke-width:0.8;" x="327.870043" xlink:href="#m7b0337740f" y="307.584"/>
      </g>
     </g>
     <g id="text_6">
      <!-- 100 -->
      <g transform="translate(318.326293 322.182437)scale(0.1 -0.1)">
       <defs>
        <path d="M 12.40625 8.296875 
L 28.515625 8.296875 
L 28.515625 63.921875 
L 10.984375 60.40625 
L 10.984375 69.390625 
L 28.421875 72.90625 
L 38.28125 72.90625 
L 38.28125 8.296875 
L 54.390625 8.296875 
L 54.390625 0 
L 12.40625 0 
z
" id="DejaVuSans-49"/>
       </defs>
       <use xlink:href="#DejaVuSans-49"/>
       <use x="63.623047" xlink:href="#DejaVuSans-48"/>
       <use x="127.246094" xlink:href="#DejaVuSans-48"/>
      </g>
     </g>
    </g>
    <g id="xtick_7">
     <g id="line2d_7">
      <g>
       <use style="stroke:#000000;stroke-width:0.8;" x="381.664743" xlink:href="#m7b0337740f" y="307.584"/>
      </g>
     </g>
     <g id="text_7">
      <!-- 120 -->
      <g transform="translate(372.120993 322.182437)scale(0.1 -0.1)">
       <use xlink:href="#DejaVuSans-49"/>
       <use x="63.623047" xlink:href="#DejaVuSans-50"/>
       <use x="127.246094" xlink:href="#DejaVuSans-48"/>
      </g>
     </g>
    </g>
   </g>
   <g id="matplotlib.axis_2">
    <g id="ytick_1">
     <g id="line2d_8">
      <defs>
       <path d="M 0 0 
L -3.5 0 
" id="mb2ed3b8d7f" style="stroke:#000000;stroke-width:0.8;"/>
      </defs>
      <g>
       <use style="stroke:#000000;stroke-width:0.8;" x="57.6" xlink:href="#mb2ed3b8d7f" y="276.451528"/>
      </g>
     </g>
     <g id="text_8">
      <!-- 0 -->
      <g transform="translate(44.2375 280.250747)scale(0.1 -0.1)">
       <use xlink:href="#DejaVuSans-48"/>
      </g>
     </g>
    </g>
    <g id="ytick_2">
     <g id="line2d_9">
      <g>
       <use style="stroke:#000000;stroke-width:0.8;" x="57.6" xlink:href="#mb2ed3b8d7f" y="222.656828"/>
      </g>
     </g>
     <g id="text_9">
      <!-- 20 -->
      <g transform="translate(37.875 226.456047)scale(0.1 -0.1)">
       <use xlink:href="#DejaVuSans-50"/>
       <use x="63.623047" xlink:href="#DejaVuSans-48"/>
      </g>
     </g>
    </g>
    <g id="ytick_3">
     <g id="line2d_10">
      <g>
       <use style="stroke:#000000;stroke-width:0.8;" x="57.6" xlink:href="#mb2ed3b8d7f" y="168.862129"/>
      </g>
     </g>
     <g id="text_10">
      <!-- 40 -->
      <g transform="translate(37.875 172.661347)scale(0.1 -0.1)">
       <use xlink:href="#DejaVuSans-52"/>
       <use x="63.623047" xlink:href="#DejaVuSans-48"/>
      </g>
     </g>
    </g>
    <g id="ytick_4">
     <g id="line2d_11">
      <g>
       <use style="stroke:#000000;stroke-width:0.8;" x="57.6" xlink:href="#mb2ed3b8d7f" y="115.067429"/>
      </g>
     </g>
     <g id="text_11">
      <!-- 60 -->
      <g transform="translate(37.875 118.866647)scale(0.1 -0.1)">
       <use xlink:href="#DejaVuSans-54"/>
       <use x="63.623047" xlink:href="#DejaVuSans-48"/>
      </g>
     </g>
    </g>
    <g id="ytick_5">
     <g id="line2d_12">
      <g>
       <use style="stroke:#000000;stroke-width:0.8;" x="57.6" xlink:href="#mb2ed3b8d7f" y="61.272729"/>
      </g>
     </g>
     <g id="text_12">
      <!-- 80 -->
      <g transform="translate(37.875 65.071948)scale(0.1 -0.1)">
       <use xlink:href="#DejaVuSans-56"/>
       <use x="63.623047" xlink:href="#DejaVuSans-48"/>
      </g>
     </g>
    </g>
   </g>
   <g id="line2d_13">
    <path clip-path="url(#p8716ab330f)" d="M 392.25692 205.547424 
L 387.800029 208.664827 
L 383.267825 211.636984 
L 376.341758 215.857178 
L 369.275824 219.813779 
L 362.083472 223.541751 
L 354.780842 227.070684 
L 347.384071 230.440922 
L 339.901228 233.663224 
L 334.855285 235.669766 
L 329.747478 237.479958 
L 324.567049 239.029245 
L 319.297858 240.250385 
L 313.937216 241.086893 
L 308.5174 241.538768 
L 303.073376 241.606012 
L 297.640112 241.294002 
L 292.255262 240.61081 
L 286.945725 239.564503 
L 281.71957 238.17122 
L 276.579487 236.452479 
L 271.525475 234.429799 
L 266.562913 232.124696 
L 261.710632 229.54793 
L 257.041252 226.669913 
L 254.800702 225.107177 
L 252.635466 223.461059 
L 250.556301 221.72349 
L 248.571276 219.894471 
L 246.693841 217.965931 
L 244.932065 215.93787 
L 243.288637 213.8076 
L 241.758177 211.588569 
L 240.335308 209.288846 
L 237.77468 204.487669 
L 235.555648 199.482072 
L 233.61635 194.355437 
L 231.897609 189.177697 
L 229.584437 181.390914 
L 226.580003 171.027365 
L 224.936575 165.876523 
L 223.107555 160.768716 
L 221.066046 155.736222 
L 218.782461 150.811317 
L 216.235282 146.028968 
L 213.389542 141.424142 
L 210.239863 137.023735 
L 206.805071 132.830439 
L 203.106686 128.852321 
L 199.166224 125.097451 
L 195.005204 121.568518 
L 190.639764 118.295111 
L 186.064525 115.333712 
L 183.700248 113.991535 
L 181.282176 112.751567 
L 178.810309 111.624568 
L 176.287338 110.615917 
L 173.707882 109.733684 
L 171.074631 108.985938 
L 168.395655 108.378058 
L 165.679023 107.915423 
L 162.938183 107.600724 
L 160.186584 107.436651 
L 157.434985 107.431271 
L 154.694145 107.581896 
L 151.977513 107.893905 
L 149.295847 108.375368 
L 146.659907 109.023594 
L 144.080451 109.846653 
L 141.565549 110.833786 
L 139.112511 111.976923 
L 136.721336 113.259927 
L 134.389336 114.672038 
L 132.121889 116.199807 
L 127.769898 119.548527 
L 123.662673 123.211946 
L 119.802903 127.090544 
L 116.190589 131.162803 
L 112.8338 135.417964 
L 109.737915 139.850647 
L 106.911003 144.458163 
L 104.355755 149.229753 
L 102.07217 154.146588 
L 100.049489 159.184462 
L 98.282333 164.321856 
L 96.765323 169.529183 
L 95.479629 174.784925 
L 93.857719 182.733092 
L 90.80218 198.680531 
L 86.286115 219.854125 
L 85.444228 225.171731 
L 84.857866 230.516234 
L 84.591582 235.895704 
L 84.718 241.31821 
L 84.949317 244.050981 
L 85.307052 246.79451 
L 85.793894 249.554178 
L 85.793894 249.554178 
" style="fill:none;stroke:#fea952;stroke-linecap:square;"/>
   </g>
   <g id="line2d_14">
    <path clip-path="url(#p8716ab330f)" d="M 398.487273 214.318826 
L 393.765552 217.618448 
L 388.989265 220.748511 
L 384.148617 223.73864 
L 376.791101 227.972841 
L 369.354739 231.920041 
L 361.825064 235.641708 
L 354.255957 239.152032 
L 346.580453 242.524668 
L 341.287291 244.711104 
L 335.79308 246.782912 
L 330.101102 248.643675 
L 324.190104 250.207532 
L 321.154817 250.847861 
L 318.087285 251.377771 
L 311.935595 252.097288 
L 305.742232 252.378269 
L 299.553055 252.225014 
L 293.403137 251.646794 
L 287.33177 250.651371 
L 281.392959 249.260419 
L 275.572271 247.501933 
L 269.898553 245.408553 
L 264.373272 243.008817 
L 258.935032 240.299545 
L 253.542809 237.206028 
L 250.886344 235.494419 
L 248.289299 233.672013 
L 245.736212 231.716668 
L 243.265853 229.63577 
L 240.862099 227.39936 
L 238.571608 225.021717 
L 236.413476 222.509661 
L 234.431913 219.916056 
L 232.608858 217.249376 
L 230.946433 214.542779 
L 229.416077 211.790068 
L 226.721909 206.207488 
L 224.441196 200.606306 
L 222.495843 195.074353 
L 219.998416 186.974572 
L 215.553599 171.79559 
L 213.951059 167.036306 
L 212.190026 162.396227 
L 210.259275 157.916436 
L 208.126609 153.60182 
L 205.792591 149.508971 
L 203.215861 145.611281 
L 200.352436 141.856628 
L 197.220978 138.259388 
L 193.860501 134.844888 
L 190.270615 131.60763 
L 186.534452 128.607188 
L 182.702244 125.910273 
L 178.79098 123.565138 
L 174.816376 121.614727 
L 170.768933 120.083436 
L 168.693866 119.478161 
L 166.589444 118.984301 
L 164.451761 118.604138 
L 162.297781 118.340588 
L 160.16555 118.19557 
L 158.025361 118.174001 
L 155.921755 118.270571 
L 153.878759 118.483526 
L 151.865119 118.82303 
L 149.930438 119.273395 
L 148.0115 119.861724 
L 146.110079 120.585813 
L 144.199326 121.457382 
L 142.294184 122.463087 
L 140.401216 123.594599 
L 136.641213 126.228026 
L 132.976371 129.259714 
L 129.435644 132.606564 
L 126.11913 136.119186 
L 123.025153 139.803281 
L 120.16281 143.642419 
L 117.541963 147.627088 
L 115.154825 151.772975 
L 112.999622 156.069362 
L 111.062923 160.534942 
L 109.350296 165.1191 
L 107.857148 169.809672 
L 106.571734 174.602175 
L 105.453193 179.569805 
L 103.944073 187.33776 
L 101.887255 198.218517 
L 99.542301 208.9704 
L 97.357386 219.175728 
L 96.48188 224.089108 
L 95.825291 228.873198 
L 95.433453 233.554734 
L 95.351544 238.143938 
L 95.617945 242.659875 
L 95.902383 244.925353 
L 96.389225 247.685022 
L 96.389225 247.685022 
" style="fill:none;stroke:#ffffff;stroke-linecap:square;"/>
   </g>
   <g id="line2d_15">
    <path clip-path="url(#p8716ab330f)" d="M 386.026566 196.776022 
L 381.834505 199.711206 
L 375.384132 203.88448 
L 368.736673 207.819381 
L 361.948648 211.524967 
L 354.984374 215.050136 
L 347.871423 218.417285 
L 338.230289 222.693028 
L 331.150215 225.568913 
L 326.515819 227.217835 
L 321.955104 228.59217 
L 317.440898 229.652909 
L 312.850845 230.382941 
L 308.198599 230.784552 
L 303.508905 230.85589 
L 298.811868 230.599061 
L 294.157307 230.021333 
L 289.55767 229.127428 
L 284.977311 227.917347 
L 280.431736 226.406835 
L 275.930435 224.613938 
L 271.471114 222.550545 
L 267.196431 220.292618 
L 263.196159 217.845407 
L 259.53472 215.20545 
L 256.280454 212.389581 
L 254.816074 210.910145 
L 253.450654 209.36608 
L 252.145361 207.699145 
L 250.907497 205.927762 
L 248.60246 202.04831 
L 246.530417 197.802599 
L 244.663558 193.25272 
L 242.97239 188.461471 
L 240.671329 181.003824 
L 236.003325 165.100229 
L 234.141486 159.595484 
L 232.040059 154.089883 
L 229.656476 148.601516 
L 226.963757 143.200809 
L 223.907546 137.895723 
L 220.491546 132.782802 
L 216.76512 127.941062 
L 212.752642 123.366887 
L 208.468893 119.045709 
L 203.951918 114.999165 
L 199.16162 111.183818 
L 194.053149 107.629789 
L 191.376067 105.977308 
L 188.609515 104.417931 
L 185.74549 102.962102 
L 182.804243 101.634409 
L 179.769124 100.435939 
L 176.646831 99.383932 
L 173.455397 98.493715 
L 170.201867 97.771815 
L 166.906285 97.226709 
L 163.578586 96.860861 
L 160.207618 96.677731 
L 156.84461 96.688541 
L 153.466535 96.893222 
L 150.076267 97.304285 
L 146.726575 97.927707 
L 143.389376 98.773793 
L 140.149402 99.831582 
L 137.021019 101.081759 
L 134.025695 102.496464 
L 131.148488 104.056767 
L 128.377456 105.749477 
L 125.727465 107.547286 
L 123.1914 109.431547 
L 120.739557 111.40426 
L 116.145227 115.515011 
L 111.863099 119.830082 
L 107.843691 124.374277 
L 104.104986 129.128083 
L 100.650009 134.091762 
L 97.497432 139.248607 
L 94.661159 144.563962 
L 92.13958 150.011562 
L 89.91855 155.562465 
L 87.987472 161.196059 
L 86.340959 166.866961 
L 84.962496 172.516734 
L 83.28064 180.763272 
L 80.28851 196.396342 
L 75.676189 218.069679 
L 74.765741 223.858449 
L 74.122376 229.806272 
L 73.832727 235.938483 
L 73.853139 239.059217 
L 73.997397 242.225662 
L 74.280689 245.442086 
L 74.711721 248.663667 
L 75.198563 251.423335 
L 75.198563 251.423335 
" style="fill:none;stroke:#ffffff;stroke-linecap:square;"/>
   </g>
   <g id="patch_3">
    <path d="M 57.6 307.584 
L 57.6 41.472 
" style="fill:none;stroke:#000000;stroke-linecap:square;stroke-linejoin:miter;stroke-width:0.8;"/>
   </g>
   <g id="patch_4">
    <path d="M 414.72 307.584 
L 414.72 41.472 
" style="fill:none;stroke:#000000;stroke-linecap:square;stroke-linejoin:miter;stroke-width:0.8;"/>
   </g>
   <g id="patch_5">
    <path d="M 57.6 307.584 
L 414.72 307.584 
" style="fill:none;stroke:#000000;stroke-linecap:square;stroke-linejoin:miter;stroke-width:0.8;"/>
   </g>
   <g id="patch_6">
    <path d="M 57.6 41.472 
L 414.72 41.472 
" style="fill:none;stroke:#000000;stroke-linecap:square;stroke-linejoin:miter;stroke-width:0.8;"/>
   </g>
  </g>
 </g>
 <defs>
  <clipPath id="p8716ab330f">
   <rect height="266.112" width="357.12" x="57.6" y="41.472"/>
  </clipPath>
 </defs>
</svg>
