<?xml version="1.0" encoding="utf-8" standalone="no"?>
<!DOCTYPE svg PUBLIC "-//W3C//DTD SVG 1.1//EN"
  "http://www.w3.org/Graphics/SVG/1.1/DTD/svg11.dtd">
<!-- Created with matplotlib (https://matplotlib.org/) -->
<svg height="345.6pt" version="1.1" viewBox="0 0 460.8 345.6" width="460.8pt" xmlns="http://www.w3.org/2000/svg" xmlns:xlink="http://www.w3.org/1999/xlink">
 <metadata>
  <rdf:RDF xmlns:cc="http://creativecommons.org/ns#" xmlns:dc="http://purl.org/dc/elements/1.1/" xmlns:rdf="http://www.w3.org/1999/02/22-rdf-syntax-ns#">
   <cc:Work>
    <dc:type rdf:resource="http://purl.org/dc/dcmitype/StillImage"/>
    <dc:date>2021-01-25T14:41:01.850798</dc:date>
    <dc:format>image/svg+xml</dc:format>
    <dc:creator>
     <cc:Agent>
      <dc:title>Matplotlib v3.3.3, https://matplotlib.org/</dc:title>
     </cc:Agent>
    </dc:creator>
   </cc:Work>
  </rdf:RDF>
 </metadata>
 <defs>
  <style type="text/css">*{stroke-linecap:butt;stroke-linejoin:round;}</style>
 </defs>
 <g id="figure_1">
  <g id="patch_1">
   <path d="M 0 345.6 
L 460.8 345.6 
L 460.8 0 
L 0 0 
z
" style="fill:#ffffff;"/>
  </g>
  <g id="axes_1">
   <g id="patch_2">
    <path d="M 57.6 307.584 
L 414.72 307.584 
L 414.72 41.472 
L 57.6 41.472 
z
" style="fill:#7d9051;"/>
   </g>
   <g id="matplotlib.axis_1">
    <g id="xtick_1">
     <g id="line2d_1">
      <defs>
       <path d="M 0 0 
L 0 3.5 
" id="m1fa84c5585" style="stroke:#000000;stroke-width:0.8;"/>
      </defs>
      <g>
       <use style="stroke:#000000;stroke-width:0.8;" x="93.512358" xlink:href="#m1fa84c5585" y="307.584"/>
      </g>
     </g>
     <g id="text_1">
      <!-- 0 -->
      <g transform="translate(90.331108 322.182437)scale(0.1 -0.1)">
       <defs>
        <path d="M 31.78125 66.40625 
Q 24.171875 66.40625 20.328125 58.90625 
Q 16.5 51.421875 16.5 36.375 
Q 16.5 21.390625 20.328125 13.890625 
Q 24.171875 6.390625 31.78125 6.390625 
Q 39.453125 6.390625 43.28125 13.890625 
Q 47.125 21.390625 47.125 36.375 
Q 47.125 51.421875 43.28125 58.90625 
Q 39.453125 66.40625 31.78125 66.40625 
z
M 31.78125 74.21875 
Q 44.046875 74.21875 50.515625 64.515625 
Q 56.984375 54.828125 56.984375 36.375 
Q 56.984375 17.96875 50.515625 8.265625 
Q 44.046875 -1.421875 31.78125 -1.421875 
Q 19.53125 -1.421875 13.0625 8.265625 
Q 6.59375 17.96875 6.59375 36.375 
Q 6.59375 54.828125 13.0625 64.515625 
Q 19.53125 74.21875 31.78125 74.21875 
z
" id="DejaVuSans-48"/>
       </defs>
       <use xlink:href="#DejaVuSans-48"/>
      </g>
     </g>
    </g>
    <g id="xtick_2">
     <g id="line2d_2">
      <g>
       <use style="stroke:#000000;stroke-width:0.8;" x="161.644996" xlink:href="#m1fa84c5585" y="307.584"/>
      </g>
     </g>
     <g id="text_2">
      <!-- 20 -->
      <g transform="translate(155.282496 322.182437)scale(0.1 -0.1)">
       <defs>
        <path d="M 19.1875 8.296875 
L 53.609375 8.296875 
L 53.609375 0 
L 7.328125 0 
L 7.328125 8.296875 
Q 12.9375 14.109375 22.625 23.890625 
Q 32.328125 33.6875 34.8125 36.53125 
Q 39.546875 41.84375 41.421875 45.53125 
Q 43.3125 49.21875 43.3125 52.78125 
Q 43.3125 58.59375 39.234375 62.25 
Q 35.15625 65.921875 28.609375 65.921875 
Q 23.96875 65.921875 18.8125 64.3125 
Q 13.671875 62.703125 7.8125 59.421875 
L 7.8125 69.390625 
Q 13.765625 71.78125 18.9375 73 
Q 24.125 74.21875 28.421875 74.21875 
Q 39.75 74.21875 46.484375 68.546875 
Q 53.21875 62.890625 53.21875 53.421875 
Q 53.21875 48.921875 51.53125 44.890625 
Q 49.859375 40.875 45.40625 35.40625 
Q 44.1875 33.984375 37.640625 27.21875 
Q 31.109375 20.453125 19.1875 8.296875 
z
" id="DejaVuSans-50"/>
       </defs>
       <use xlink:href="#DejaVuSans-50"/>
       <use x="63.623047" xlink:href="#DejaVuSans-48"/>
      </g>
     </g>
    </g>
    <g id="xtick_3">
     <g id="line2d_3">
      <g>
       <use style="stroke:#000000;stroke-width:0.8;" x="229.777635" xlink:href="#m1fa84c5585" y="307.584"/>
      </g>
     </g>
     <g id="text_3">
      <!-- 40 -->
      <g transform="translate(223.415135 322.182437)scale(0.1 -0.1)">
       <defs>
        <path d="M 37.796875 64.3125 
L 12.890625 25.390625 
L 37.796875 25.390625 
z
M 35.203125 72.90625 
L 47.609375 72.90625 
L 47.609375 25.390625 
L 58.015625 25.390625 
L 58.015625 17.1875 
L 47.609375 17.1875 
L 47.609375 0 
L 37.796875 0 
L 37.796875 17.1875 
L 4.890625 17.1875 
L 4.890625 26.703125 
z
" id="DejaVuSans-52"/>
       </defs>
       <use xlink:href="#DejaVuSans-52"/>
       <use x="63.623047" xlink:href="#DejaVuSans-48"/>
      </g>
     </g>
    </g>
    <g id="xtick_4">
     <g id="line2d_4">
      <g>
       <use style="stroke:#000000;stroke-width:0.8;" x="297.910274" xlink:href="#m1fa84c5585" y="307.584"/>
      </g>
     </g>
     <g id="text_4">
      <!-- 60 -->
      <g transform="translate(291.547774 322.182437)scale(0.1 -0.1)">
       <defs>
        <path d="M 33.015625 40.375 
Q 26.375 40.375 22.484375 35.828125 
Q 18.609375 31.296875 18.609375 23.390625 
Q 18.609375 15.53125 22.484375 10.953125 
Q 26.375 6.390625 33.015625 6.390625 
Q 39.65625 6.390625 43.53125 10.953125 
Q 47.40625 15.53125 47.40625 23.390625 
Q 47.40625 31.296875 43.53125 35.828125 
Q 39.65625 40.375 33.015625 40.375 
z
M 52.59375 71.296875 
L 52.59375 62.3125 
Q 48.875 64.0625 45.09375 64.984375 
Q 41.3125 65.921875 37.59375 65.921875 
Q 27.828125 65.921875 22.671875 59.328125 
Q 17.53125 52.734375 16.796875 39.40625 
Q 19.671875 43.65625 24.015625 45.921875 
Q 28.375 48.1875 33.59375 48.1875 
Q 44.578125 48.1875 50.953125 41.515625 
Q 57.328125 34.859375 57.328125 23.390625 
Q 57.328125 12.15625 50.6875 5.359375 
Q 44.046875 -1.421875 33.015625 -1.421875 
Q 20.359375 -1.421875 13.671875 8.265625 
Q 6.984375 17.96875 6.984375 36.375 
Q 6.984375 53.65625 15.1875 63.9375 
Q 23.390625 74.21875 37.203125 74.21875 
Q 40.921875 74.21875 44.703125 73.484375 
Q 48.484375 72.75 52.59375 71.296875 
z
" id="DejaVuSans-54"/>
       </defs>
       <use xlink:href="#DejaVuSans-54"/>
       <use x="63.623047" xlink:href="#DejaVuSans-48"/>
      </g>
     </g>
    </g>
    <g id="xtick_5">
     <g id="line2d_5">
      <g>
       <use style="stroke:#000000;stroke-width:0.8;" x="366.042913" xlink:href="#m1fa84c5585" y="307.584"/>
      </g>
     </g>
     <g id="text_5">
      <!-- 80 -->
      <g transform="translate(359.680413 322.182437)scale(0.1 -0.1)">
       <defs>
        <path d="M 31.78125 34.625 
Q 24.75 34.625 20.71875 30.859375 
Q 16.703125 27.09375 16.703125 20.515625 
Q 16.703125 13.921875 20.71875 10.15625 
Q 24.75 6.390625 31.78125 6.390625 
Q 38.8125 6.390625 42.859375 10.171875 
Q 46.921875 13.96875 46.921875 20.515625 
Q 46.921875 27.09375 42.890625 30.859375 
Q 38.875 34.625 31.78125 34.625 
z
M 21.921875 38.8125 
Q 15.578125 40.375 12.03125 44.71875 
Q 8.5 49.078125 8.5 55.328125 
Q 8.5 64.0625 14.71875 69.140625 
Q 20.953125 74.21875 31.78125 74.21875 
Q 42.671875 74.21875 48.875 69.140625 
Q 55.078125 64.0625 55.078125 55.328125 
Q 55.078125 49.078125 51.53125 44.71875 
Q 48 40.375 41.703125 38.8125 
Q 48.828125 37.15625 52.796875 32.3125 
Q 56.78125 27.484375 56.78125 20.515625 
Q 56.78125 9.90625 50.3125 4.234375 
Q 43.84375 -1.421875 31.78125 -1.421875 
Q 19.734375 -1.421875 13.25 4.234375 
Q 6.78125 9.90625 6.78125 20.515625 
Q 6.78125 27.484375 10.78125 32.3125 
Q 14.796875 37.15625 21.921875 38.8125 
z
M 18.3125 54.390625 
Q 18.3125 48.734375 21.84375 45.5625 
Q 25.390625 42.390625 31.78125 42.390625 
Q 38.140625 42.390625 41.71875 45.5625 
Q 45.3125 48.734375 45.3125 54.390625 
Q 45.3125 60.0625 41.71875 63.234375 
Q 38.140625 66.40625 31.78125 66.40625 
Q 25.390625 66.40625 21.84375 63.234375 
Q 18.3125 60.0625 18.3125 54.390625 
z
" id="DejaVuSans-56"/>
       </defs>
       <use xlink:href="#DejaVuSans-56"/>
       <use x="63.623047" xlink:href="#DejaVuSans-48"/>
      </g>
     </g>
    </g>
   </g>
   <g id="matplotlib.axis_2">
    <g id="ytick_1">
     <g id="line2d_6">
      <defs>
       <path d="M 0 0 
L -3.5 0 
" id="m6d8d28caa6" style="stroke:#000000;stroke-width:0.8;"/>
      </defs>
      <g>
       <use style="stroke:#000000;stroke-width:0.8;" x="57.6" xlink:href="#m6d8d28caa6" y="279.863686"/>
      </g>
     </g>
     <g id="text_6">
      <!-- 10 -->
      <g transform="translate(37.875 283.662905)scale(0.1 -0.1)">
       <defs>
        <path d="M 12.40625 8.296875 
L 28.515625 8.296875 
L 28.515625 63.921875 
L 10.984375 60.40625 
L 10.984375 69.390625 
L 28.421875 72.90625 
L 38.28125 72.90625 
L 38.28125 8.296875 
L 54.390625 8.296875 
L 54.390625 0 
L 12.40625 0 
z
" id="DejaVuSans-49"/>
       </defs>
       <use xlink:href="#DejaVuSans-49"/>
       <use x="63.623047" xlink:href="#DejaVuSans-48"/>
      </g>
     </g>
    </g>
    <g id="ytick_2">
     <g id="line2d_7">
      <g>
       <use style="stroke:#000000;stroke-width:0.8;" x="57.6" xlink:href="#m6d8d28caa6" y="245.797367"/>
      </g>
     </g>
     <g id="text_7">
      <!-- 20 -->
      <g transform="translate(37.875 249.596586)scale(0.1 -0.1)">
       <use xlink:href="#DejaVuSans-50"/>
       <use x="63.623047" xlink:href="#DejaVuSans-48"/>
      </g>
     </g>
    </g>
    <g id="ytick_3">
     <g id="line2d_8">
      <g>
       <use style="stroke:#000000;stroke-width:0.8;" x="57.6" xlink:href="#m6d8d28caa6" y="211.731048"/>
      </g>
     </g>
     <g id="text_8">
      <!-- 30 -->
      <g transform="translate(37.875 215.530266)scale(0.1 -0.1)">
       <defs>
        <path d="M 40.578125 39.3125 
Q 47.65625 37.796875 51.625 33 
Q 55.609375 28.21875 55.609375 21.1875 
Q 55.609375 10.40625 48.1875 4.484375 
Q 40.765625 -1.421875 27.09375 -1.421875 
Q 22.515625 -1.421875 17.65625 -0.515625 
Q 12.796875 0.390625 7.625 2.203125 
L 7.625 11.71875 
Q 11.71875 9.328125 16.59375 8.109375 
Q 21.484375 6.890625 26.8125 6.890625 
Q 36.078125 6.890625 40.9375 10.546875 
Q 45.796875 14.203125 45.796875 21.1875 
Q 45.796875 27.640625 41.28125 31.265625 
Q 36.765625 34.90625 28.71875 34.90625 
L 20.21875 34.90625 
L 20.21875 43.015625 
L 29.109375 43.015625 
Q 36.375 43.015625 40.234375 45.921875 
Q 44.09375 48.828125 44.09375 54.296875 
Q 44.09375 59.90625 40.109375 62.90625 
Q 36.140625 65.921875 28.71875 65.921875 
Q 24.65625 65.921875 20.015625 65.03125 
Q 15.375 64.15625 9.8125 62.3125 
L 9.8125 71.09375 
Q 15.4375 72.65625 20.34375 73.4375 
Q 25.25 74.21875 29.59375 74.21875 
Q 40.828125 74.21875 47.359375 69.109375 
Q 53.90625 64.015625 53.90625 55.328125 
Q 53.90625 49.265625 50.4375 45.09375 
Q 46.96875 40.921875 40.578125 39.3125 
z
" id="DejaVuSans-51"/>
       </defs>
       <use xlink:href="#DejaVuSans-51"/>
       <use x="63.623047" xlink:href="#DejaVuSans-48"/>
      </g>
     </g>
    </g>
    <g id="ytick_4">
     <g id="line2d_9">
      <g>
       <use style="stroke:#000000;stroke-width:0.8;" x="57.6" xlink:href="#m6d8d28caa6" y="177.664728"/>
      </g>
     </g>
     <g id="text_9">
      <!-- 40 -->
      <g transform="translate(37.875 181.463947)scale(0.1 -0.1)">
       <use xlink:href="#DejaVuSans-52"/>
       <use x="63.623047" xlink:href="#DejaVuSans-48"/>
      </g>
     </g>
    </g>
    <g id="ytick_5">
     <g id="line2d_10">
      <g>
       <use style="stroke:#000000;stroke-width:0.8;" x="57.6" xlink:href="#m6d8d28caa6" y="143.598409"/>
      </g>
     </g>
     <g id="text_10">
      <!-- 50 -->
      <g transform="translate(37.875 147.397627)scale(0.1 -0.1)">
       <defs>
        <path d="M 10.796875 72.90625 
L 49.515625 72.90625 
L 49.515625 64.59375 
L 19.828125 64.59375 
L 19.828125 46.734375 
Q 21.96875 47.46875 24.109375 47.828125 
Q 26.265625 48.1875 28.421875 48.1875 
Q 40.625 48.1875 47.75 41.5 
Q 54.890625 34.8125 54.890625 23.390625 
Q 54.890625 11.625 47.5625 5.09375 
Q 40.234375 -1.421875 26.90625 -1.421875 
Q 22.3125 -1.421875 17.546875 -0.640625 
Q 12.796875 0.140625 7.71875 1.703125 
L 7.71875 11.625 
Q 12.109375 9.234375 16.796875 8.0625 
Q 21.484375 6.890625 26.703125 6.890625 
Q 35.15625 6.890625 40.078125 11.328125 
Q 45.015625 15.765625 45.015625 23.390625 
Q 45.015625 31 40.078125 35.4375 
Q 35.15625 39.890625 26.703125 39.890625 
Q 22.75 39.890625 18.8125 39.015625 
Q 14.890625 38.140625 10.796875 36.28125 
z
" id="DejaVuSans-53"/>
       </defs>
       <use xlink:href="#DejaVuSans-53"/>
       <use x="63.623047" xlink:href="#DejaVuSans-48"/>
      </g>
     </g>
    </g>
    <g id="ytick_6">
     <g id="line2d_11">
      <g>
       <use style="stroke:#000000;stroke-width:0.8;" x="57.6" xlink:href="#m6d8d28caa6" y="109.532089"/>
      </g>
     </g>
     <g id="text_11">
      <!-- 60 -->
      <g transform="translate(37.875 113.331308)scale(0.1 -0.1)">
       <use xlink:href="#DejaVuSans-54"/>
       <use x="63.623047" xlink:href="#DejaVuSans-48"/>
      </g>
     </g>
    </g>
    <g id="ytick_7">
     <g id="line2d_12">
      <g>
       <use style="stroke:#000000;stroke-width:0.8;" x="57.6" xlink:href="#m6d8d28caa6" y="75.46577"/>
      </g>
     </g>
     <g id="text_12">
      <!-- 70 -->
      <g transform="translate(37.875 79.264989)scale(0.1 -0.1)">
       <defs>
        <path d="M 8.203125 72.90625 
L 55.078125 72.90625 
L 55.078125 68.703125 
L 28.609375 0 
L 18.3125 0 
L 43.21875 64.59375 
L 8.203125 64.59375 
z
" id="DejaVuSans-55"/>
       </defs>
       <use xlink:href="#DejaVuSans-55"/>
       <use x="63.623047" xlink:href="#DejaVuSans-48"/>
      </g>
     </g>
    </g>
   </g>
   <g id="line2d_13">
    <path clip-path="url(#pb6492eacd9)" d="M 127.578677 167.38692 
L 127.132408 154.039736 
L 127.064276 147.175372 
L 127.197134 140.253096 
L 127.60593 133.3206 
L 128.365609 126.439204 
L 128.90045 123.029165 
L 129.551117 119.653193 
L 130.324422 116.314694 
L 131.233993 113.017074 
L 132.286642 109.77396 
L 133.49259 106.585353 
L 134.85865 103.461471 
L 136.395041 100.409129 
L 138.111983 97.435139 
L 139.999257 94.546315 
L 142.05005 91.75969 
L 144.250734 89.085484 
L 146.60131 86.533917 
L 149.088151 84.118615 
L 151.701038 81.853205 
L 154.42975 79.7445 
L 157.274288 77.809533 
L 160.214211 76.055117 
L 163.24952 74.491473 
L 166.369995 73.115194 
L 169.558602 71.909246 
L 172.815343 70.870223 
L 176.126589 69.981092 
L 179.485528 69.23504 
L 182.878533 68.621846 
L 189.736083 67.749749 
L 196.631107 67.28304 
L 203.509096 67.204687 
L 206.936168 67.320513 
L 210.346207 67.552164 
L 213.742619 67.89964 
L 217.121998 68.369756 
L 220.47753 68.972729 
L 223.80581 69.708562 
L 227.106836 70.584066 
L 230.373796 71.606056 
L 233.603283 72.767717 
L 236.785077 74.072457 
L 239.912365 75.510056 
L 242.974927 77.080513 
L 245.969357 78.780423 
L 248.882027 80.602971 
L 251.709532 82.544751 
L 254.445057 84.605763 
L 257.074977 86.782601 
L 259.599291 89.065045 
L 262.02822 91.44628 
L 266.654426 96.436996 
L 271.066014 101.645736 
L 284.096382 117.469542 
L 290.882392 125.110617 
L 304.723538 140.147491 
L 311.581088 147.73406 
L 316.033556 152.895107 
L 320.346352 158.17198 
L 324.471783 163.602151 
L 328.362157 169.212874 
L 331.976594 175.010962 
L 335.260587 181.003227 
L 336.762911 184.072603 
L 338.166444 187.193078 
L 339.464371 190.361245 
L 340.649878 193.580513 
L 341.716154 196.850879 
L 342.656385 200.162125 
L 343.463756 203.514251 
L 344.131456 206.89363 
L 344.652671 210.296856 
L 345.020587 213.713707 
L 345.228392 217.137372 
L 345.265865 220.564444 
L 345.129599 223.984703 
L 344.812783 227.391335 
L 344.308601 230.777527 
L 343.620462 234.133059 
L 342.748364 237.454525 
L 341.699121 240.724892 
L 340.47614 243.944159 
L 339.082828 247.0987 
L 337.52259 250.181702 
L 335.798835 253.182945 
L 333.918374 256.095615 
L 331.881208 258.909493 
L 329.69415 261.614359 
L 327.364014 264.203399 
L 324.897612 266.659581 
L 322.301759 268.972684 
L 319.586673 271.129082 
L 316.759169 273.118555 
L 313.826059 274.927477 
L 310.797563 276.54222 
L 307.680495 277.955973 
L 304.481667 279.148294 
L 301.2113 280.119184 
L 297.876208 280.865236 
L 294.493422 281.400077 
L 291.073164 281.730521 
L 287.629059 281.863379 
L 284.167921 281.805467 
L 280.706783 281.570409 
L 277.252458 281.161613 
L 273.82198 280.589299 
L 270.422161 279.863686 
L 267.070035 278.988182 
L 263.769009 277.962786 
L 260.525895 276.790904 
L 257.347508 275.469131 
L 254.247473 274.000873 
L 251.222383 272.379316 
L 248.285867 270.607867 
L 245.444736 268.686527 
L 242.705804 266.615295 
L 240.072477 264.390764 
L 237.558383 262.012935 
L 235.170334 259.495434 
L 232.921957 256.848481 
L 230.826878 254.075483 
L 228.898724 251.190065 
L 227.147715 248.199042 
L 225.584071 245.116041 
L 224.224825 241.95128 
L 223.083604 238.711573 
L 222.16722 235.410546 
L 221.485893 232.051607 
L 221.043031 228.655195 
L 220.825007 225.228123 
L 220.83182 221.784018 
L 221.053251 218.336507 
L 221.482487 214.899215 
L 222.119527 211.478957 
L 222.954152 208.096171 
L 223.979548 204.757672 
L 225.188902 201.477085 
L 226.578808 198.268038 
L 228.145859 195.144157 
L 229.876428 192.115661 
L 231.773922 189.196177 
L 233.824714 186.399332 
L 236.021992 183.73194 
L 238.365754 181.214439 
L 240.849189 178.857049 
L 243.462076 176.666585 
L 246.201008 174.663485 
L 246.201008 174.663485 
" style="fill:none;stroke:#fea952;stroke-linecap:square;"/>
   </g>
   <g id="line2d_14">
    <path clip-path="url(#pb6492eacd9)" d="M 113.962259 167.911719 
L 113.50761 154.256864 
L 113.438409 147.041127 
L 113.585729 139.611301 
L 114.041447 132.021731 
L 114.415278 128.177867 
L 114.903656 124.327788 
L 115.520173 120.450322 
L 116.276064 116.578257 
L 117.18843 112.691439 
L 118.273101 108.81023 
L 119.541208 104.953571 
L 121.007609 101.125726 
L 122.687057 97.334922 
L 124.593965 93.596137 
L 126.70415 89.982381 
L 129.024422 86.469481 
L 131.528226 83.100967 
L 134.228685 79.85289 
L 137.107525 76.758934 
L 140.161678 73.822969 
L 143.368748 71.071034 
L 146.765572 68.477618 
L 150.291432 66.108166 
L 153.973853 63.941481 
L 157.750646 62.023729 
L 161.549606 60.369759 
L 165.416902 58.927391 
L 169.281548 57.709883 
L 173.172008 56.678735 
L 177.062159 55.825732 
L 180.943928 55.133349 
L 184.795467 54.587943 
L 188.635565 54.167734 
L 196.280441 53.661025 
L 200.11232 53.568 
L 203.969372 53.585935 
L 207.859718 53.725318 
L 211.733056 53.996394 
L 215.620164 54.403082 
L 219.532021 54.958043 
L 223.419118 55.667493 
L 227.299087 56.537409 
L 231.175149 57.579025 
L 234.986013 58.783821 
L 238.773244 60.160031 
L 242.476563 61.691454 
L 246.130103 63.384793 
L 249.702159 65.23034 
L 253.197473 67.228947 
L 256.596103 69.370193 
L 259.909283 71.661445 
L 263.133726 74.108655 
L 266.213981 76.675135 
L 269.138697 79.334577 
L 271.892785 82.045609 
L 276.977381 87.542118 
L 281.629283 93.037623 
L 294.350545 108.495446 
L 300.957183 115.935605 
L 314.77178 130.94341 
L 321.847895 138.774432 
L 326.514022 144.186371 
L 331.11713 149.824968 
L 335.578509 155.707665 
L 339.828029 161.84972 
L 343.82692 168.283999 
L 345.709139 171.612101 
L 347.499705 175.012715 
L 349.19025 178.483014 
L 350.775842 182.027292 
L 352.251422 185.652363 
L 353.605198 189.356539 
L 354.824476 193.128763 
L 355.904077 196.97137 
L 356.83185 200.872975 
L 357.60093 204.830738 
L 358.200884 208.838025 
L 358.622084 212.888144 
L 358.854105 216.988384 
L 358.881591 221.106903 
L 358.697579 225.246525 
L 358.290732 229.398112 
L 357.657321 233.515031 
L 356.800254 237.593599 
L 355.723456 241.617367 
L 354.437423 245.564099 
L 352.940953 249.449676 
L 351.241065 253.251709 
L 349.338844 256.968336 
L 347.246799 260.573911 
L 344.955948 264.086498 
L 342.477327 267.477137 
L 339.822668 270.730026 
L 336.979399 273.858793 
L 333.963008 276.833118 
L 330.776578 279.64319 
L 327.427985 282.273412 
L 323.912067 284.716758 
L 320.237138 286.951632 
L 316.42604 288.951995 
L 312.439745 290.724363 
L 308.359754 292.211322 
L 304.186003 293.417056 
L 300.00422 294.324576 
L 295.803828 294.963451 
L 291.598426 295.346921 
L 287.401088 295.488 
L 283.244624 295.400678 
L 279.105351 295.102507 
L 275.010106 294.602376 
L 270.97777 293.915691 
L 266.978709 293.047953 
L 263.027764 292.001341 
L 259.138188 290.778314 
L 255.293542 289.372826 
L 251.514759 287.784215 
L 247.809732 286.010775 
L 244.183745 284.047213 
L 240.652434 281.895603 
L 237.225625 279.55522 
L 233.912308 277.024747 
L 230.709095 274.29073 
L 227.672146 271.390813 
L 224.784779 268.317141 
L 222.049653 265.062814 
L 219.49716 261.646463 
L 217.139118 258.07439 
L 214.994893 254.362739 
L 213.063503 250.493551 
L 211.372399 246.478685 
L 209.953618 242.356532 
L 208.812653 238.119383 
L 207.973747 233.813472 
L 207.443995 229.520342 
L 207.198505 225.201167 
L 207.233313 220.910597 
L 207.531743 216.647993 
L 208.08634 212.404116 
L 208.889728 208.214807 
L 209.928192 204.095341 
L 211.194096 200.044447 
L 212.684837 196.061312 
L 214.398851 192.158136 
L 216.314719 188.383506 
L 218.451048 184.689831 
L 220.784996 181.138524 
L 223.307149 177.735438 
L 226.048586 174.44682 
L 228.984411 171.331491 
L 232.094936 168.414573 
L 235.418083 165.667656 
L 238.157015 163.664556 
L 238.157015 163.664556 
" style="fill:none;stroke:#ffffff;stroke-linecap:square;"/>
   </g>
   <g id="line2d_15">
    <path clip-path="url(#pb6492eacd9)" d="M 141.195095 166.86212 
L 140.757206 153.822607 
L 140.690142 147.309617 
L 140.80854 140.894891 
L 141.170413 134.61947 
L 141.827562 128.550619 
L 142.82617 122.728129 
L 143.460415 119.937948 
L 144.194885 117.223918 
L 145.032077 114.594349 
L 145.977571 112.044979 
L 147.030242 109.58802 
L 148.196117 107.222121 
L 149.519816 104.887898 
L 150.974092 102.62315 
L 152.571873 100.418414 
L 154.272782 98.318079 
L 156.095095 96.3089 
L 158.014624 94.414261 
L 160.033327 92.635376 
L 162.093928 91.011382 
L 164.257143 89.5109 
L 166.454569 88.168754 
L 168.748394 86.959217 
L 171.190384 85.860629 
L 173.700303 84.891102 
L 176.349138 84.030564 
L 179.081169 83.28345 
L 181.908897 82.644348 
L 184.813139 82.110344 
L 190.836602 81.331763 
L 196.981772 80.905055 
L 203.04882 80.823439 
L 208.959358 81.107934 
L 214.711974 81.781469 
L 217.535942 82.277966 
L 220.312532 82.879715 
L 223.038523 83.589107 
L 225.761578 84.428291 
L 228.433322 85.375404 
L 231.093592 86.453461 
L 233.694628 87.635319 
L 236.247696 88.930687 
L 238.741241 90.331899 
L 241.167951 91.835748 
L 243.509781 93.428057 
L 245.756388 95.102872 
L 247.935973 96.890067 
L 250.059885 98.795512 
L 254.255013 103.033981 
L 258.409717 107.740768 
L 264.778002 115.530352 
L 271.523994 123.735032 
L 278.476871 131.697415 
L 287.784749 141.892625 
L 299.141211 154.25748 
L 305.55309 161.603843 
L 309.575575 166.518992 
L 313.365058 171.496638 
L 316.896285 176.576029 
L 320.126267 181.737925 
L 323.021468 186.993739 
L 325.557046 192.358863 
L 327.694559 197.804487 
L 329.408693 203.352881 
L 330.095663 206.155528 
L 330.661982 208.956523 
L 331.104458 211.755686 
L 331.419091 214.539271 
L 331.602679 217.286361 
L 331.650139 220.021985 
L 331.56162 222.722881 
L 331.334834 225.384558 
L 330.959881 228.040023 
L 330.440669 230.672519 
L 329.773272 233.291683 
L 328.960819 235.885685 
L 328.011328 238.438643 
L 326.92459 240.945692 
L 325.706336 243.395068 
L 324.350871 245.791979 
L 322.880799 248.104732 
L 321.285088 250.34185 
L 319.565632 252.498693 
L 317.748629 254.548006 
L 315.832216 256.486044 
L 313.82694 258.302178 
L 311.745362 259.984752 
L 309.60627 261.520353 
L 307.414979 262.903321 
L 305.169086 264.132446 
L 302.921244 265.187582 
L 300.603581 266.085266 
L 298.236598 266.821312 
L 295.748195 267.405897 
L 293.183017 267.836704 
L 290.547902 268.11412 
L 287.85703 268.238759 
L 285.091218 268.210255 
L 282.308215 268.038311 
L 279.49481 267.72085 
L 276.66619 267.262907 
L 273.865613 266.679419 
L 271.112306 265.975023 
L 268.39983 265.147258 
L 265.758248 264.208983 
L 263.180256 263.154047 
L 260.685213 261.99097 
L 258.261022 260.711419 
L 255.919299 259.320132 
L 253.663846 257.817834 
L 251.499299 256.205843 
L 249.43586 254.490798 
L 247.444619 252.635057 
L 245.555888 250.673727 
L 243.794261 248.634148 
L 242.156596 246.504502 
L 240.65833 244.30574 
L 239.300538 242.035346 
L 238.10464 239.73853 
L 237.077251 237.423874 
L 236.213589 235.066613 
L 235.521787 232.701709 
L 234.998039 230.289743 
L 234.642067 227.790048 
L 234.451508 225.25508 
L 234.430327 222.65744 
L 234.574759 220.02502 
L 234.878633 217.394314 
L 235.349326 214.743107 
L 235.980111 212.097002 
L 236.764999 209.470897 
L 237.692968 206.892859 
L 238.758765 204.37794 
L 239.976998 201.904808 
L 241.301807 199.541491 
L 242.762847 197.25383 
L 244.34228 195.063227 
L 245.995397 193.017059 
L 247.747098 191.097386 
L 249.603442 189.299526 
L 251.506069 187.665514 
L 254.245001 185.662414 
L 254.245001 185.662414 
" style="fill:none;stroke:#ffffff;stroke-linecap:square;"/>
   </g>
   <g id="patch_3">
    <path d="M 57.6 307.584 
L 57.6 41.472 
" style="fill:none;stroke:#000000;stroke-linecap:square;stroke-linejoin:miter;stroke-width:0.8;"/>
   </g>
   <g id="patch_4">
    <path d="M 414.72 307.584 
L 414.72 41.472 
" style="fill:none;stroke:#000000;stroke-linecap:square;stroke-linejoin:miter;stroke-width:0.8;"/>
   </g>
   <g id="patch_5">
    <path d="M 57.6 307.584 
L 414.72 307.584 
" style="fill:none;stroke:#000000;stroke-linecap:square;stroke-linejoin:miter;stroke-width:0.8;"/>
   </g>
   <g id="patch_6">
    <path d="M 57.6 41.472 
L 414.72 41.472 
" style="fill:none;stroke:#000000;stroke-linecap:square;stroke-linejoin:miter;stroke-width:0.8;"/>
   </g>
  </g>
 </g>
 <defs>
  <clipPath id="pb6492eacd9">
   <rect height="266.112" width="357.12" x="57.6" y="41.472"/>
  </clipPath>
 </defs>
</svg>
