<?xml version="1.0" encoding="utf-8" standalone="no"?>
<!DOCTYPE svg PUBLIC "-//W3C//DTD SVG 1.1//EN"
  "http://www.w3.org/Graphics/SVG/1.1/DTD/svg11.dtd">
<!-- Created with matplotlib (https://matplotlib.org/) -->
<svg height="345.6pt" version="1.1" viewBox="0 0 460.8 345.6" width="460.8pt" xmlns="http://www.w3.org/2000/svg" xmlns:xlink="http://www.w3.org/1999/xlink">
 <metadata>
  <rdf:RDF xmlns:cc="http://creativecommons.org/ns#" xmlns:dc="http://purl.org/dc/elements/1.1/" xmlns:rdf="http://www.w3.org/1999/02/22-rdf-syntax-ns#">
   <cc:Work>
    <dc:type rdf:resource="http://purl.org/dc/dcmitype/StillImage"/>
    <dc:date>2021-01-22T10:05:39.134889</dc:date>
    <dc:format>image/svg+xml</dc:format>
    <dc:creator>
     <cc:Agent>
      <dc:title>Matplotlib v3.3.3, https://matplotlib.org/</dc:title>
     </cc:Agent>
    </dc:creator>
   </cc:Work>
  </rdf:RDF>
 </metadata>
 <defs>
  <style type="text/css">*{stroke-linecap:butt;stroke-linejoin:round;}</style>
 </defs>
 <g id="figure_1">
  <g id="patch_1">
   <path d="M 0 345.6 
L 460.8 345.6 
L 460.8 0 
L 0 0 
z
" style="fill:#ffffff;"/>
  </g>
  <g id="axes_1">
   <g id="patch_2">
    <path d="M 57.6 307.584 
L 414.72 307.584 
L 414.72 41.472 
L 57.6 41.472 
z
" style="fill:#7d9051;"/>
   </g>
   <g id="matplotlib.axis_1">
    <g id="xtick_1">
     <g id="line2d_1">
      <defs>
       <path d="M 0 0 
L 0 3.5 
" id="mf374bfe3fb" style="stroke:#000000;stroke-width:0.8;"/>
      </defs>
      <g>
       <use style="stroke:#000000;stroke-width:0.8;" x="99.494347" xlink:href="#mf374bfe3fb" y="307.584"/>
      </g>
     </g>
     <g id="text_1">
      <!-- −20 -->
      <g transform="translate(88.942004 322.182437)scale(0.1 -0.1)">
       <defs>
        <path d="M 10.59375 35.5 
L 73.1875 35.5 
L 73.1875 27.203125 
L 10.59375 27.203125 
z
" id="DejaVuSans-8722"/>
        <path d="M 19.1875 8.296875 
L 53.609375 8.296875 
L 53.609375 0 
L 7.328125 0 
L 7.328125 8.296875 
Q 12.9375 14.109375 22.625 23.890625 
Q 32.328125 33.6875 34.8125 36.53125 
Q 39.546875 41.84375 41.421875 45.53125 
Q 43.3125 49.21875 43.3125 52.78125 
Q 43.3125 58.59375 39.234375 62.25 
Q 35.15625 65.921875 28.609375 65.921875 
Q 23.96875 65.921875 18.8125 64.3125 
Q 13.671875 62.703125 7.8125 59.421875 
L 7.8125 69.390625 
Q 13.765625 71.78125 18.9375 73 
Q 24.125 74.21875 28.421875 74.21875 
Q 39.75 74.21875 46.484375 68.546875 
Q 53.21875 62.890625 53.21875 53.421875 
Q 53.21875 48.921875 51.53125 44.890625 
Q 49.859375 40.875 45.40625 35.40625 
Q 44.1875 33.984375 37.640625 27.21875 
Q 31.109375 20.453125 19.1875 8.296875 
z
" id="DejaVuSans-50"/>
        <path d="M 31.78125 66.40625 
Q 24.171875 66.40625 20.328125 58.90625 
Q 16.5 51.421875 16.5 36.375 
Q 16.5 21.390625 20.328125 13.890625 
Q 24.171875 6.390625 31.78125 6.390625 
Q 39.453125 6.390625 43.28125 13.890625 
Q 47.125 21.390625 47.125 36.375 
Q 47.125 51.421875 43.28125 58.90625 
Q 39.453125 66.40625 31.78125 66.40625 
z
M 31.78125 74.21875 
Q 44.046875 74.21875 50.515625 64.515625 
Q 56.984375 54.828125 56.984375 36.375 
Q 56.984375 17.96875 50.515625 8.265625 
Q 44.046875 -1.421875 31.78125 -1.421875 
Q 19.53125 -1.421875 13.0625 8.265625 
Q 6.59375 17.96875 6.59375 36.375 
Q 6.59375 54.828125 13.0625 64.515625 
Q 19.53125 74.21875 31.78125 74.21875 
z
" id="DejaVuSans-48"/>
       </defs>
       <use xlink:href="#DejaVuSans-8722"/>
       <use x="83.789062" xlink:href="#DejaVuSans-50"/>
       <use x="147.412109" xlink:href="#DejaVuSans-48"/>
      </g>
     </g>
    </g>
    <g id="xtick_2">
     <g id="line2d_2">
      <g>
       <use style="stroke:#000000;stroke-width:0.8;" x="143.934236" xlink:href="#mf374bfe3fb" y="307.584"/>
      </g>
     </g>
     <g id="text_2">
      <!-- 0 -->
      <g transform="translate(140.752986 322.182437)scale(0.1 -0.1)">
       <use xlink:href="#DejaVuSans-48"/>
      </g>
     </g>
    </g>
    <g id="xtick_3">
     <g id="line2d_3">
      <g>
       <use style="stroke:#000000;stroke-width:0.8;" x="188.374124" xlink:href="#mf374bfe3fb" y="307.584"/>
      </g>
     </g>
     <g id="text_3">
      <!-- 20 -->
      <g transform="translate(182.011624 322.182437)scale(0.1 -0.1)">
       <use xlink:href="#DejaVuSans-50"/>
       <use x="63.623047" xlink:href="#DejaVuSans-48"/>
      </g>
     </g>
    </g>
    <g id="xtick_4">
     <g id="line2d_4">
      <g>
       <use style="stroke:#000000;stroke-width:0.8;" x="232.814013" xlink:href="#mf374bfe3fb" y="307.584"/>
      </g>
     </g>
     <g id="text_4">
      <!-- 40 -->
      <g transform="translate(226.451513 322.182437)scale(0.1 -0.1)">
       <defs>
        <path d="M 37.796875 64.3125 
L 12.890625 25.390625 
L 37.796875 25.390625 
z
M 35.203125 72.90625 
L 47.609375 72.90625 
L 47.609375 25.390625 
L 58.015625 25.390625 
L 58.015625 17.1875 
L 47.609375 17.1875 
L 47.609375 0 
L 37.796875 0 
L 37.796875 17.1875 
L 4.890625 17.1875 
L 4.890625 26.703125 
z
" id="DejaVuSans-52"/>
       </defs>
       <use xlink:href="#DejaVuSans-52"/>
       <use x="63.623047" xlink:href="#DejaVuSans-48"/>
      </g>
     </g>
    </g>
    <g id="xtick_5">
     <g id="line2d_5">
      <g>
       <use style="stroke:#000000;stroke-width:0.8;" x="277.253901" xlink:href="#mf374bfe3fb" y="307.584"/>
      </g>
     </g>
     <g id="text_5">
      <!-- 60 -->
      <g transform="translate(270.891401 322.182437)scale(0.1 -0.1)">
       <defs>
        <path d="M 33.015625 40.375 
Q 26.375 40.375 22.484375 35.828125 
Q 18.609375 31.296875 18.609375 23.390625 
Q 18.609375 15.53125 22.484375 10.953125 
Q 26.375 6.390625 33.015625 6.390625 
Q 39.65625 6.390625 43.53125 10.953125 
Q 47.40625 15.53125 47.40625 23.390625 
Q 47.40625 31.296875 43.53125 35.828125 
Q 39.65625 40.375 33.015625 40.375 
z
M 52.59375 71.296875 
L 52.59375 62.3125 
Q 48.875 64.0625 45.09375 64.984375 
Q 41.3125 65.921875 37.59375 65.921875 
Q 27.828125 65.921875 22.671875 59.328125 
Q 17.53125 52.734375 16.796875 39.40625 
Q 19.671875 43.65625 24.015625 45.921875 
Q 28.375 48.1875 33.59375 48.1875 
Q 44.578125 48.1875 50.953125 41.515625 
Q 57.328125 34.859375 57.328125 23.390625 
Q 57.328125 12.15625 50.6875 5.359375 
Q 44.046875 -1.421875 33.015625 -1.421875 
Q 20.359375 -1.421875 13.671875 8.265625 
Q 6.984375 17.96875 6.984375 36.375 
Q 6.984375 53.65625 15.1875 63.9375 
Q 23.390625 74.21875 37.203125 74.21875 
Q 40.921875 74.21875 44.703125 73.484375 
Q 48.484375 72.75 52.59375 71.296875 
z
" id="DejaVuSans-54"/>
       </defs>
       <use xlink:href="#DejaVuSans-54"/>
       <use x="63.623047" xlink:href="#DejaVuSans-48"/>
      </g>
     </g>
    </g>
    <g id="xtick_6">
     <g id="line2d_6">
      <g>
       <use style="stroke:#000000;stroke-width:0.8;" x="321.693789" xlink:href="#mf374bfe3fb" y="307.584"/>
      </g>
     </g>
     <g id="text_6">
      <!-- 80 -->
      <g transform="translate(315.331289 322.182437)scale(0.1 -0.1)">
       <defs>
        <path d="M 31.78125 34.625 
Q 24.75 34.625 20.71875 30.859375 
Q 16.703125 27.09375 16.703125 20.515625 
Q 16.703125 13.921875 20.71875 10.15625 
Q 24.75 6.390625 31.78125 6.390625 
Q 38.8125 6.390625 42.859375 10.171875 
Q 46.921875 13.96875 46.921875 20.515625 
Q 46.921875 27.09375 42.890625 30.859375 
Q 38.875 34.625 31.78125 34.625 
z
M 21.921875 38.8125 
Q 15.578125 40.375 12.03125 44.71875 
Q 8.5 49.078125 8.5 55.328125 
Q 8.5 64.0625 14.71875 69.140625 
Q 20.953125 74.21875 31.78125 74.21875 
Q 42.671875 74.21875 48.875 69.140625 
Q 55.078125 64.0625 55.078125 55.328125 
Q 55.078125 49.078125 51.53125 44.71875 
Q 48 40.375 41.703125 38.8125 
Q 48.828125 37.15625 52.796875 32.3125 
Q 56.78125 27.484375 56.78125 20.515625 
Q 56.78125 9.90625 50.3125 4.234375 
Q 43.84375 -1.421875 31.78125 -1.421875 
Q 19.734375 -1.421875 13.25 4.234375 
Q 6.78125 9.90625 6.78125 20.515625 
Q 6.78125 27.484375 10.78125 32.3125 
Q 14.796875 37.15625 21.921875 38.8125 
z
M 18.3125 54.390625 
Q 18.3125 48.734375 21.84375 45.5625 
Q 25.390625 42.390625 31.78125 42.390625 
Q 38.140625 42.390625 41.71875 45.5625 
Q 45.3125 48.734375 45.3125 54.390625 
Q 45.3125 60.0625 41.71875 63.234375 
Q 38.140625 66.40625 31.78125 66.40625 
Q 25.390625 66.40625 21.84375 63.234375 
Q 18.3125 60.0625 18.3125 54.390625 
z
" id="DejaVuSans-56"/>
       </defs>
       <use xlink:href="#DejaVuSans-56"/>
       <use x="63.623047" xlink:href="#DejaVuSans-48"/>
      </g>
     </g>
    </g>
    <g id="xtick_7">
     <g id="line2d_7">
      <g>
       <use style="stroke:#000000;stroke-width:0.8;" x="366.133678" xlink:href="#mf374bfe3fb" y="307.584"/>
      </g>
     </g>
     <g id="text_7">
      <!-- 100 -->
      <g transform="translate(356.589928 322.182437)scale(0.1 -0.1)">
       <defs>
        <path d="M 12.40625 8.296875 
L 28.515625 8.296875 
L 28.515625 63.921875 
L 10.984375 60.40625 
L 10.984375 69.390625 
L 28.421875 72.90625 
L 38.28125 72.90625 
L 38.28125 8.296875 
L 54.390625 8.296875 
L 54.390625 0 
L 12.40625 0 
z
" id="DejaVuSans-49"/>
       </defs>
       <use xlink:href="#DejaVuSans-49"/>
       <use x="63.623047" xlink:href="#DejaVuSans-48"/>
       <use x="127.246094" xlink:href="#DejaVuSans-48"/>
      </g>
     </g>
    </g>
    <g id="xtick_8">
     <g id="line2d_8">
      <g>
       <use style="stroke:#000000;stroke-width:0.8;" x="410.573566" xlink:href="#mf374bfe3fb" y="307.584"/>
      </g>
     </g>
     <g id="text_8">
      <!-- 120 -->
      <g transform="translate(401.029816 322.182437)scale(0.1 -0.1)">
       <use xlink:href="#DejaVuSans-49"/>
       <use x="63.623047" xlink:href="#DejaVuSans-50"/>
       <use x="127.246094" xlink:href="#DejaVuSans-48"/>
      </g>
     </g>
    </g>
   </g>
   <g id="matplotlib.axis_2">
    <g id="ytick_1">
     <g id="line2d_9">
      <defs>
       <path d="M 0 0 
L -3.5 0 
" id="m0861e0abb3" style="stroke:#000000;stroke-width:0.8;"/>
      </defs>
      <g>
       <use style="stroke:#000000;stroke-width:0.8;" x="57.6" xlink:href="#m0861e0abb3" y="265.404479"/>
      </g>
     </g>
     <g id="text_9">
      <!-- 20 -->
      <g transform="translate(37.875 269.203698)scale(0.1 -0.1)">
       <use xlink:href="#DejaVuSans-50"/>
       <use x="63.623047" xlink:href="#DejaVuSans-48"/>
      </g>
     </g>
    </g>
    <g id="ytick_2">
     <g id="line2d_10">
      <g>
       <use style="stroke:#000000;stroke-width:0.8;" x="57.6" xlink:href="#m0861e0abb3" y="220.964591"/>
      </g>
     </g>
     <g id="text_10">
      <!-- 40 -->
      <g transform="translate(37.875 224.763809)scale(0.1 -0.1)">
       <use xlink:href="#DejaVuSans-52"/>
       <use x="63.623047" xlink:href="#DejaVuSans-48"/>
      </g>
     </g>
    </g>
    <g id="ytick_3">
     <g id="line2d_11">
      <g>
       <use style="stroke:#000000;stroke-width:0.8;" x="57.6" xlink:href="#m0861e0abb3" y="176.524702"/>
      </g>
     </g>
     <g id="text_11">
      <!-- 60 -->
      <g transform="translate(37.875 180.323921)scale(0.1 -0.1)">
       <use xlink:href="#DejaVuSans-54"/>
       <use x="63.623047" xlink:href="#DejaVuSans-48"/>
      </g>
     </g>
    </g>
    <g id="ytick_4">
     <g id="line2d_12">
      <g>
       <use style="stroke:#000000;stroke-width:0.8;" x="57.6" xlink:href="#m0861e0abb3" y="132.084814"/>
      </g>
     </g>
     <g id="text_12">
      <!-- 80 -->
      <g transform="translate(37.875 135.884033)scale(0.1 -0.1)">
       <use xlink:href="#DejaVuSans-56"/>
       <use x="63.623047" xlink:href="#DejaVuSans-48"/>
      </g>
     </g>
    </g>
    <g id="ytick_5">
     <g id="line2d_13">
      <g>
       <use style="stroke:#000000;stroke-width:0.8;" x="57.6" xlink:href="#m0861e0abb3" y="87.644926"/>
      </g>
     </g>
     <g id="text_13">
      <!-- 100 -->
      <g transform="translate(31.5125 91.444144)scale(0.1 -0.1)">
       <use xlink:href="#DejaVuSans-49"/>
       <use x="63.623047" xlink:href="#DejaVuSans-48"/>
       <use x="127.246094" xlink:href="#DejaVuSans-48"/>
      </g>
     </g>
    </g>
    <g id="ytick_6">
     <g id="line2d_14">
      <g>
       <use style="stroke:#000000;stroke-width:0.8;" x="57.6" xlink:href="#m0861e0abb3" y="43.205037"/>
      </g>
     </g>
     <g id="text_14">
      <!-- 120 -->
      <g transform="translate(31.5125 47.004256)scale(0.1 -0.1)">
       <use xlink:href="#DejaVuSans-49"/>
       <use x="63.623047" xlink:href="#DejaVuSans-50"/>
       <use x="127.246094" xlink:href="#DejaVuSans-48"/>
      </g>
     </g>
    </g>
   </g>
   <g id="line2d_15">
    <path clip-path="url(#pa98cf1b7f0)" d="M 214.171479 135.822208 
L 213.742634 129.236217 
L 213.642645 124.785562 
L 213.715971 120.312687 
L 213.980388 115.835369 
L 214.455895 111.375826 
L 215.162489 106.956279 
L 216.120168 102.594504 
L 217.348931 98.314943 
L 218.866554 94.133149 
L 220.695255 90.073565 
L 222.837258 86.162855 
L 225.288117 82.425461 
L 228.036725 78.892489 
L 231.076413 75.592828 
L 234.400517 72.557583 
L 237.989038 69.82453 
L 241.81309 67.449218 
L 243.803997 66.409325 
L 245.841566 65.478309 
L 247.925797 64.662837 
L 250.050023 63.967353 
L 252.212024 63.400744 
L 254.405132 62.965233 
L 256.624905 62.663042 
L 258.862453 62.491949 
L 261.111111 62.449731 
L 263.361992 62.534167 
L 265.606206 62.745256 
L 267.839311 63.078555 
L 270.052417 63.534064 
L 272.236638 64.109561 
L 274.387528 64.802823 
L 276.491757 65.613851 
L 278.549324 66.535979 
L 280.551341 67.569206 
L 282.493364 68.709089 
L 284.368727 69.951184 
L 286.172987 71.291047 
L 287.899476 72.728677 
L 289.543752 74.259631 
L 291.10137 75.877243 
L 292.563442 77.581513 
L 293.927747 79.367996 
L 295.187618 81.23225 
L 296.343055 83.163163 
L 297.389614 85.156292 
L 298.322852 87.204971 
L 299.138324 89.304755 
L 299.83603 91.446758 
L 300.411527 93.624312 
L 300.86037 95.832975 
L 301.180337 98.063857 
L 301.366984 100.310294 
L 301.424756 102.56784 
L 301.353652 104.823164 
L 301.155895 107.071823 
L 300.833706 109.304927 
L 300.389307 111.515812 
L 299.82492 113.695588 
L 299.140546 115.835369 
L 298.340628 117.926265 
L 297.425166 119.963834 
L 296.398605 121.941409 
L 294.045513 125.716578 
L 291.352455 129.273991 
L 288.392759 132.635868 
L 285.237527 135.828874 
L 280.298033 140.352855 
L 268.641451 150.622913 
L 265.468443 153.758147 
L 262.442086 157.066697 
L 259.615709 160.541896 
L 257.033752 164.188189 
L 254.751763 167.99891 
L 252.80974 171.97628 
L 251.192128 176.095857 
L 249.818936 180.322091 
L 248.025786 186.779206 
L 245.086088 197.549213 
L 243.126289 203.921893 
L 240.96651 210.216804 
L 238.58231 216.422834 
L 235.138219 224.608661 
L 226.219133 245.024346 
L 224.16601 248.96172 
L 221.87069 252.759109 
L 219.273179 256.38096 
L 216.38903 259.800609 
L 213.249352 262.995837 
L 209.878586 265.942202 
L 206.307841 268.619705 
L 202.566003 271.015015 
L 198.681956 273.165905 
L 194.68681 275.125705 
L 188.554106 277.809874 
L 172.082461 284.678059 
L 168.102869 286.597862 
L 166.15418 287.624423 
L 166.15418 287.624423 
" style="fill:none;stroke:#fea952;stroke-linecap:square;"/>
   </g>
   <g id="line2d_16">
    <path clip-path="url(#pa98cf1b7f0)" d="M 205.312182 136.535648 
L 204.859213 129.520771 
L 204.754825 124.732553 
L 204.838053 119.889929 
L 205.131034 115.007668 
L 205.66045 110.096649 
L 206.453977 105.179212 
L 207.538654 100.280686 
L 208.942241 95.429859 
L 210.69492 90.637358 
L 212.815941 85.961078 
L 215.306233 81.442706 
L 218.163987 77.111054 
L 221.376298 73.00735 
L 224.947212 69.156288 
L 226.850499 67.35462 
L 228.85999 65.607856 
L 230.937644 63.962654 
L 233.115655 62.391745 
L 235.370358 60.926219 
L 237.698208 59.571154 
L 240.110192 58.325269 
L 242.603125 57.201314 
L 245.160273 56.216061 
L 247.796792 55.369731 
L 250.48084 54.682995 
L 253.206216 54.158489 
L 255.947266 53.800935 
L 258.695613 53.605537 
L 261.444286 53.568 
L 264.194316 53.685247 
L 266.918237 53.954652 
L 269.631104 54.373061 
L 272.31693 54.939407 
L 274.963229 55.650137 
L 277.583994 56.509527 
L 280.126682 57.50315 
L 282.625508 58.637823 
L 285.05044 59.904074 
L 287.401217 61.29902 
L 289.667709 62.815573 
L 291.860337 64.460952 
L 293.956071 66.223771 
L 295.946105 68.094728 
L 297.847142 70.090127 
L 299.627167 72.187076 
L 301.291787 74.391345 
L 302.814411 76.668461 
L 304.212181 79.031214 
L 305.477924 81.471812 
L 306.607969 83.987364 
L 307.589288 86.552055 
L 308.428977 89.175765 
L 309.121472 91.854283 
L 309.658316 94.571118 
L 310.037794 97.327926 
L 310.252053 100.08292 
L 310.30832 102.847913 
L 310.207457 105.601809 
L 309.952785 108.341026 
L 309.547397 111.056423 
L 308.993551 113.743618 
L 308.290453 116.403152 
L 307.441772 119.011183 
L 306.447915 121.568798 
L 305.31363 124.058745 
L 304.055801 126.454003 
L 302.693606 128.743865 
L 301.240049 130.935275 
L 298.119981 135.035652 
L 294.795112 138.800771 
L 291.347984 142.283211 
L 287.863302 145.521612 
L 279.456432 152.836226 
L 274.814358 157.017549 
L 271.944029 159.84608 
L 269.245396 162.78606 
L 266.777681 165.805195 
L 264.56275 168.91157 
L 262.650859 172.073274 
L 261.024555 175.369355 
L 259.611462 178.943835 
L 258.354166 182.801203 
L 256.621809 189.038531 
L 253.60652 200.078717 
L 251.564368 206.71384 
L 249.30206 213.301403 
L 246.808551 219.788114 
L 243.297422 228.133366 
L 234.1563 249.024038 
L 231.852609 253.424045 
L 229.194239 257.795157 
L 226.181519 261.973005 
L 222.843366 265.911067 
L 219.222788 269.57719 
L 215.342006 272.952707 
L 211.225706 276.023133 
L 206.979507 278.729749 
L 202.688732 281.099498 
L 198.364682 283.217021 
L 191.946197 286.025095 
L 175.859624 292.723504 
L 172.245369 294.461439 
L 170.29668 295.488 
L 170.29668 295.488 
" style="fill:none;stroke:#ffffff;stroke-linecap:square;"/>
   </g>
   <g id="line2d_17">
    <path clip-path="url(#pa98cf1b7f0)" d="M 223.030777 135.108769 
L 222.626056 128.951663 
L 222.530464 124.838571 
L 222.593888 120.735445 
L 222.829741 116.663069 
L 223.25134 112.655003 
L 223.871001 108.733346 
L 224.701683 104.908321 
L 225.755622 101.200026 
L 227.038187 97.62894 
L 228.574569 94.186053 
L 230.368283 90.883005 
L 232.412247 87.739867 
L 234.697151 84.777629 
L 237.205614 82.029367 
L 239.941043 79.507311 
L 242.86242 77.257315 
L 245.927972 75.327282 
L 249.080006 73.755304 
L 252.303254 72.564975 
L 255.604048 71.771978 
L 259.029293 71.37836 
L 262.529668 71.383086 
L 266.047517 71.784049 
L 269.510046 72.568984 
L 272.856832 73.724552 
L 276.052241 75.234338 
L 279.069745 77.086795 
L 281.842881 79.233583 
L 284.355598 81.664359 
L 286.563707 84.344648 
L 288.473929 87.295112 
L 290.037735 90.422577 
L 291.243083 93.717751 
L 292.062423 97.094832 
L 292.481915 100.537667 
L 292.499848 104.044519 
L 292.120015 107.553431 
L 291.359387 110.988024 
L 290.233341 114.283733 
L 288.741409 117.428816 
L 286.850977 120.497881 
L 284.58493 123.51233 
L 281.990406 126.470966 
L 279.127069 129.374538 
L 274.454067 133.656274 
L 262.468543 144.228278 
L 258.992856 147.670215 
L 255.638776 151.347334 
L 252.453738 155.278598 
L 249.504753 159.464808 
L 246.852668 163.924546 
L 245.665606 166.244716 
L 243.636732 170.917334 
L 241.9958 175.552868 
L 240.630397 180.094857 
L 235.330204 199.110953 
L 233.338684 205.144421 
L 231.144428 211.075961 
L 227.851635 219.055921 
L 218.281967 241.024654 
L 216.479411 244.499396 
L 214.547141 247.723061 
L 212.364838 250.788914 
L 209.934694 253.690151 
L 207.275915 256.414484 
L 204.415166 258.931696 
L 201.389976 261.216277 
L 198.152498 263.30028 
L 194.675181 265.232312 
L 191.008939 267.034388 
L 185.162014 269.594652 
L 168.305299 276.632613 
L 163.960369 278.734285 
L 162.01168 279.760846 
L 162.01168 279.760846 
" style="fill:none;stroke:#ffffff;stroke-linecap:square;"/>
   </g>
   <g id="patch_3">
    <path d="M 57.6 307.584 
L 57.6 41.472 
" style="fill:none;stroke:#000000;stroke-linecap:square;stroke-linejoin:miter;stroke-width:0.8;"/>
   </g>
   <g id="patch_4">
    <path d="M 414.72 307.584 
L 414.72 41.472 
" style="fill:none;stroke:#000000;stroke-linecap:square;stroke-linejoin:miter;stroke-width:0.8;"/>
   </g>
   <g id="patch_5">
    <path d="M 57.6 307.584 
L 414.72 307.584 
" style="fill:none;stroke:#000000;stroke-linecap:square;stroke-linejoin:miter;stroke-width:0.8;"/>
   </g>
   <g id="patch_6">
    <path d="M 57.6 41.472 
L 414.72 41.472 
" style="fill:none;stroke:#000000;stroke-linecap:square;stroke-linejoin:miter;stroke-width:0.8;"/>
   </g>
  </g>
 </g>
 <defs>
  <clipPath id="pa98cf1b7f0">
   <rect height="266.112" width="357.12" x="57.6" y="41.472"/>
  </clipPath>
 </defs>
</svg>
