<?xml version="1.0" encoding="utf-8" standalone="no"?>
<!DOCTYPE svg PUBLIC "-//W3C//DTD SVG 1.1//EN"
  "http://www.w3.org/Graphics/SVG/1.1/DTD/svg11.dtd">
<!-- Created with matplotlib (https://matplotlib.org/) -->
<svg height="345.6pt" version="1.1" viewBox="0 0 460.8 345.6" width="460.8pt" xmlns="http://www.w3.org/2000/svg" xmlns:xlink="http://www.w3.org/1999/xlink">
 <metadata>
  <rdf:RDF xmlns:cc="http://creativecommons.org/ns#" xmlns:dc="http://purl.org/dc/elements/1.1/" xmlns:rdf="http://www.w3.org/1999/02/22-rdf-syntax-ns#">
   <cc:Work>
    <dc:type rdf:resource="http://purl.org/dc/dcmitype/StillImage"/>
    <dc:date>2021-01-25T09:48:56.733684</dc:date>
    <dc:format>image/svg+xml</dc:format>
    <dc:creator>
     <cc:Agent>
      <dc:title>Matplotlib v3.3.3, https://matplotlib.org/</dc:title>
     </cc:Agent>
    </dc:creator>
   </cc:Work>
  </rdf:RDF>
 </metadata>
 <defs>
  <style type="text/css">*{stroke-linecap:butt;stroke-linejoin:round;}</style>
 </defs>
 <g id="figure_1">
  <g id="patch_1">
   <path d="M 0 345.6 
L 460.8 345.6 
L 460.8 0 
L 0 0 
z
" style="fill:#ffffff;"/>
  </g>
  <g id="axes_1">
   <g id="patch_2">
    <path d="M 57.6 307.584 
L 414.72 307.584 
L 414.72 41.472 
L 57.6 41.472 
z
" style="fill:#7d9051;"/>
   </g>
   <g id="matplotlib.axis_1">
    <g id="xtick_1">
     <g id="line2d_1">
      <defs>
       <path d="M 0 0 
L 0 3.5 
" id="me28e6b1d70" style="stroke:#000000;stroke-width:0.8;"/>
      </defs>
      <g>
       <use style="stroke:#000000;stroke-width:0.8;" x="99.488431" xlink:href="#me28e6b1d70" y="307.584"/>
      </g>
     </g>
     <g id="text_1">
      <!-- 20 -->
      <g transform="translate(93.125931 322.182437)scale(0.1 -0.1)">
       <defs>
        <path d="M 19.1875 8.296875 
L 53.609375 8.296875 
L 53.609375 0 
L 7.328125 0 
L 7.328125 8.296875 
Q 12.9375 14.109375 22.625 23.890625 
Q 32.328125 33.6875 34.8125 36.53125 
Q 39.546875 41.84375 41.421875 45.53125 
Q 43.3125 49.21875 43.3125 52.78125 
Q 43.3125 58.59375 39.234375 62.25 
Q 35.15625 65.921875 28.609375 65.921875 
Q 23.96875 65.921875 18.8125 64.3125 
Q 13.671875 62.703125 7.8125 59.421875 
L 7.8125 69.390625 
Q 13.765625 71.78125 18.9375 73 
Q 24.125 74.21875 28.421875 74.21875 
Q 39.75 74.21875 46.484375 68.546875 
Q 53.21875 62.890625 53.21875 53.421875 
Q 53.21875 48.921875 51.53125 44.890625 
Q 49.859375 40.875 45.40625 35.40625 
Q 44.1875 33.984375 37.640625 27.21875 
Q 31.109375 20.453125 19.1875 8.296875 
z
" id="DejaVuSans-50"/>
        <path d="M 31.78125 66.40625 
Q 24.171875 66.40625 20.328125 58.90625 
Q 16.5 51.421875 16.5 36.375 
Q 16.5 21.390625 20.328125 13.890625 
Q 24.171875 6.390625 31.78125 6.390625 
Q 39.453125 6.390625 43.28125 13.890625 
Q 47.125 21.390625 47.125 36.375 
Q 47.125 51.421875 43.28125 58.90625 
Q 39.453125 66.40625 31.78125 66.40625 
z
M 31.78125 74.21875 
Q 44.046875 74.21875 50.515625 64.515625 
Q 56.984375 54.828125 56.984375 36.375 
Q 56.984375 17.96875 50.515625 8.265625 
Q 44.046875 -1.421875 31.78125 -1.421875 
Q 19.53125 -1.421875 13.0625 8.265625 
Q 6.59375 17.96875 6.59375 36.375 
Q 6.59375 54.828125 13.0625 64.515625 
Q 19.53125 74.21875 31.78125 74.21875 
z
" id="DejaVuSans-48"/>
       </defs>
       <use xlink:href="#DejaVuSans-50"/>
       <use x="63.623047" xlink:href="#DejaVuSans-48"/>
      </g>
     </g>
    </g>
    <g id="xtick_2">
     <g id="line2d_2">
      <g>
       <use style="stroke:#000000;stroke-width:0.8;" x="148.067821" xlink:href="#me28e6b1d70" y="307.584"/>
      </g>
     </g>
     <g id="text_2">
      <!-- 40 -->
      <g transform="translate(141.705321 322.182437)scale(0.1 -0.1)">
       <defs>
        <path d="M 37.796875 64.3125 
L 12.890625 25.390625 
L 37.796875 25.390625 
z
M 35.203125 72.90625 
L 47.609375 72.90625 
L 47.609375 25.390625 
L 58.015625 25.390625 
L 58.015625 17.1875 
L 47.609375 17.1875 
L 47.609375 0 
L 37.796875 0 
L 37.796875 17.1875 
L 4.890625 17.1875 
L 4.890625 26.703125 
z
" id="DejaVuSans-52"/>
       </defs>
       <use xlink:href="#DejaVuSans-52"/>
       <use x="63.623047" xlink:href="#DejaVuSans-48"/>
      </g>
     </g>
    </g>
    <g id="xtick_3">
     <g id="line2d_3">
      <g>
       <use style="stroke:#000000;stroke-width:0.8;" x="196.647212" xlink:href="#me28e6b1d70" y="307.584"/>
      </g>
     </g>
     <g id="text_3">
      <!-- 60 -->
      <g transform="translate(190.284712 322.182437)scale(0.1 -0.1)">
       <defs>
        <path d="M 33.015625 40.375 
Q 26.375 40.375 22.484375 35.828125 
Q 18.609375 31.296875 18.609375 23.390625 
Q 18.609375 15.53125 22.484375 10.953125 
Q 26.375 6.390625 33.015625 6.390625 
Q 39.65625 6.390625 43.53125 10.953125 
Q 47.40625 15.53125 47.40625 23.390625 
Q 47.40625 31.296875 43.53125 35.828125 
Q 39.65625 40.375 33.015625 40.375 
z
M 52.59375 71.296875 
L 52.59375 62.3125 
Q 48.875 64.0625 45.09375 64.984375 
Q 41.3125 65.921875 37.59375 65.921875 
Q 27.828125 65.921875 22.671875 59.328125 
Q 17.53125 52.734375 16.796875 39.40625 
Q 19.671875 43.65625 24.015625 45.921875 
Q 28.375 48.1875 33.59375 48.1875 
Q 44.578125 48.1875 50.953125 41.515625 
Q 57.328125 34.859375 57.328125 23.390625 
Q 57.328125 12.15625 50.6875 5.359375 
Q 44.046875 -1.421875 33.015625 -1.421875 
Q 20.359375 -1.421875 13.671875 8.265625 
Q 6.984375 17.96875 6.984375 36.375 
Q 6.984375 53.65625 15.1875 63.9375 
Q 23.390625 74.21875 37.203125 74.21875 
Q 40.921875 74.21875 44.703125 73.484375 
Q 48.484375 72.75 52.59375 71.296875 
z
" id="DejaVuSans-54"/>
       </defs>
       <use xlink:href="#DejaVuSans-54"/>
       <use x="63.623047" xlink:href="#DejaVuSans-48"/>
      </g>
     </g>
    </g>
    <g id="xtick_4">
     <g id="line2d_4">
      <g>
       <use style="stroke:#000000;stroke-width:0.8;" x="245.226602" xlink:href="#me28e6b1d70" y="307.584"/>
      </g>
     </g>
     <g id="text_4">
      <!-- 80 -->
      <g transform="translate(238.864102 322.182437)scale(0.1 -0.1)">
       <defs>
        <path d="M 31.78125 34.625 
Q 24.75 34.625 20.71875 30.859375 
Q 16.703125 27.09375 16.703125 20.515625 
Q 16.703125 13.921875 20.71875 10.15625 
Q 24.75 6.390625 31.78125 6.390625 
Q 38.8125 6.390625 42.859375 10.171875 
Q 46.921875 13.96875 46.921875 20.515625 
Q 46.921875 27.09375 42.890625 30.859375 
Q 38.875 34.625 31.78125 34.625 
z
M 21.921875 38.8125 
Q 15.578125 40.375 12.03125 44.71875 
Q 8.5 49.078125 8.5 55.328125 
Q 8.5 64.0625 14.71875 69.140625 
Q 20.953125 74.21875 31.78125 74.21875 
Q 42.671875 74.21875 48.875 69.140625 
Q 55.078125 64.0625 55.078125 55.328125 
Q 55.078125 49.078125 51.53125 44.71875 
Q 48 40.375 41.703125 38.8125 
Q 48.828125 37.15625 52.796875 32.3125 
Q 56.78125 27.484375 56.78125 20.515625 
Q 56.78125 9.90625 50.3125 4.234375 
Q 43.84375 -1.421875 31.78125 -1.421875 
Q 19.734375 -1.421875 13.25 4.234375 
Q 6.78125 9.90625 6.78125 20.515625 
Q 6.78125 27.484375 10.78125 32.3125 
Q 14.796875 37.15625 21.921875 38.8125 
z
M 18.3125 54.390625 
Q 18.3125 48.734375 21.84375 45.5625 
Q 25.390625 42.390625 31.78125 42.390625 
Q 38.140625 42.390625 41.71875 45.5625 
Q 45.3125 48.734375 45.3125 54.390625 
Q 45.3125 60.0625 41.71875 63.234375 
Q 38.140625 66.40625 31.78125 66.40625 
Q 25.390625 66.40625 21.84375 63.234375 
Q 18.3125 60.0625 18.3125 54.390625 
z
" id="DejaVuSans-56"/>
       </defs>
       <use xlink:href="#DejaVuSans-56"/>
       <use x="63.623047" xlink:href="#DejaVuSans-48"/>
      </g>
     </g>
    </g>
    <g id="xtick_5">
     <g id="line2d_5">
      <g>
       <use style="stroke:#000000;stroke-width:0.8;" x="293.805993" xlink:href="#me28e6b1d70" y="307.584"/>
      </g>
     </g>
     <g id="text_5">
      <!-- 100 -->
      <g transform="translate(284.262243 322.182437)scale(0.1 -0.1)">
       <defs>
        <path d="M 12.40625 8.296875 
L 28.515625 8.296875 
L 28.515625 63.921875 
L 10.984375 60.40625 
L 10.984375 69.390625 
L 28.421875 72.90625 
L 38.28125 72.90625 
L 38.28125 8.296875 
L 54.390625 8.296875 
L 54.390625 0 
L 12.40625 0 
z
" id="DejaVuSans-49"/>
       </defs>
       <use xlink:href="#DejaVuSans-49"/>
       <use x="63.623047" xlink:href="#DejaVuSans-48"/>
       <use x="127.246094" xlink:href="#DejaVuSans-48"/>
      </g>
     </g>
    </g>
    <g id="xtick_6">
     <g id="line2d_6">
      <g>
       <use style="stroke:#000000;stroke-width:0.8;" x="342.385383" xlink:href="#me28e6b1d70" y="307.584"/>
      </g>
     </g>
     <g id="text_6">
      <!-- 120 -->
      <g transform="translate(332.841633 322.182437)scale(0.1 -0.1)">
       <use xlink:href="#DejaVuSans-49"/>
       <use x="63.623047" xlink:href="#DejaVuSans-50"/>
       <use x="127.246094" xlink:href="#DejaVuSans-48"/>
      </g>
     </g>
    </g>
    <g id="xtick_7">
     <g id="line2d_7">
      <g>
       <use style="stroke:#000000;stroke-width:0.8;" x="390.964773" xlink:href="#me28e6b1d70" y="307.584"/>
      </g>
     </g>
     <g id="text_7">
      <!-- 140 -->
      <g transform="translate(381.421023 322.182437)scale(0.1 -0.1)">
       <use xlink:href="#DejaVuSans-49"/>
       <use x="63.623047" xlink:href="#DejaVuSans-52"/>
       <use x="127.246094" xlink:href="#DejaVuSans-48"/>
      </g>
     </g>
    </g>
   </g>
   <g id="matplotlib.axis_2">
    <g id="ytick_1">
     <g id="line2d_8">
      <defs>
       <path d="M 0 0 
L -3.5 0 
" id="m6eba03a186" style="stroke:#000000;stroke-width:0.8;"/>
      </defs>
      <g>
       <use style="stroke:#000000;stroke-width:0.8;" x="57.6" xlink:href="#m6eba03a186" y="263.776769"/>
      </g>
     </g>
     <g id="text_8">
      <!-- 0 -->
      <g transform="translate(44.2375 267.575987)scale(0.1 -0.1)">
       <use xlink:href="#DejaVuSans-48"/>
      </g>
     </g>
    </g>
    <g id="ytick_2">
     <g id="line2d_9">
      <g>
       <use style="stroke:#000000;stroke-width:0.8;" x="57.6" xlink:href="#m6eba03a186" y="215.197378"/>
      </g>
     </g>
     <g id="text_9">
      <!-- 20 -->
      <g transform="translate(37.875 218.996597)scale(0.1 -0.1)">
       <use xlink:href="#DejaVuSans-50"/>
       <use x="63.623047" xlink:href="#DejaVuSans-48"/>
      </g>
     </g>
    </g>
    <g id="ytick_3">
     <g id="line2d_10">
      <g>
       <use style="stroke:#000000;stroke-width:0.8;" x="57.6" xlink:href="#m6eba03a186" y="166.617988"/>
      </g>
     </g>
     <g id="text_10">
      <!-- 40 -->
      <g transform="translate(37.875 170.417206)scale(0.1 -0.1)">
       <use xlink:href="#DejaVuSans-52"/>
       <use x="63.623047" xlink:href="#DejaVuSans-48"/>
      </g>
     </g>
    </g>
    <g id="ytick_4">
     <g id="line2d_11">
      <g>
       <use style="stroke:#000000;stroke-width:0.8;" x="57.6" xlink:href="#m6eba03a186" y="118.038597"/>
      </g>
     </g>
     <g id="text_11">
      <!-- 60 -->
      <g transform="translate(37.875 121.837816)scale(0.1 -0.1)">
       <use xlink:href="#DejaVuSans-54"/>
       <use x="63.623047" xlink:href="#DejaVuSans-48"/>
      </g>
     </g>
    </g>
    <g id="ytick_5">
     <g id="line2d_12">
      <g>
       <use style="stroke:#000000;stroke-width:0.8;" x="57.6" xlink:href="#m6eba03a186" y="69.459207"/>
      </g>
     </g>
     <g id="text_12">
      <!-- 80 -->
      <g transform="translate(37.875 73.258425)scale(0.1 -0.1)">
       <use xlink:href="#DejaVuSans-56"/>
       <use x="63.623047" xlink:href="#DejaVuSans-48"/>
      </g>
     </g>
    </g>
   </g>
   <g id="line2d_13">
    <path clip-path="url(#pae2e4dbecd)" d="M 388.649966 224.650928 
L 388.766556 207.665144 
L 388.601386 197.927405 
L 388.268617 190.633209 
L 387.69538 183.368162 
L 386.830667 176.139548 
L 386.065542 171.352049 
L 385.147391 166.58884 
L 384.073787 161.849921 
L 382.844728 157.13772 
L 381.460216 152.452237 
L 379.910533 147.800761 
L 378.154388 143.22944 
L 376.133486 138.786855 
L 373.799246 134.519155 
L 372.499747 132.469105 
L 371.100661 130.482208 
L 369.597129 128.565751 
L 367.996438 126.722163 
L 366.301017 124.956302 
L 364.518153 123.270598 
L 362.655134 121.672336 
L 360.714387 120.163946 
L 358.7032 118.747856 
L 356.626431 117.428926 
L 354.491367 116.209583 
L 352.302866 115.099544 
L 350.065785 114.093951 
L 347.787411 113.197661 
L 343.12379 111.720847 
L 338.348436 110.649672 
L 333.502641 109.971989 
L 328.6277 109.673226 
L 323.755187 109.73395 
L 318.902106 110.117728 
L 314.078172 110.785694 
L 309.285815 111.694129 
L 304.539609 112.806597 
L 297.507742 114.757059 
L 274.264933 121.720915 
L 255.479282 126.802319 
L 248.48385 129.000537 
L 243.905243 130.676526 
L 239.440797 132.580838 
L 235.124518 134.762052 
L 230.978267 137.251746 
L 226.980183 140.003769 
L 223.101119 142.950109 
L 217.427046 147.584583 
L 200.621006 161.585163 
L 191.094587 169.141687 
L 185.410799 173.722724 
L 181.728481 176.8901 
L 178.191901 180.198356 
L 174.825349 183.67907 
L 169.977126 189.107817 
L 163.523354 196.397154 
L 160.147087 199.916731 
L 156.612936 203.285712 
L 152.923331 206.477378 
L 149.078272 209.467439 
L 145.080189 212.229177 
L 140.933938 214.743161 
L 136.654093 217.021534 
L 132.274661 219.125022 
L 125.594995 222.078649 
L 103.226615 231.631786 
L 96.432787 234.201636 
L 91.842035 235.736744 
L 87.188129 237.094538 
L 82.458925 238.238583 
L 77.644708 239.139731 
L 75.198735 239.487073 
L 75.198735 239.487073 
" style="fill:none;stroke:#fea952;stroke-linecap:square;"/>
   </g>
   <g id="line2d_14">
    <path clip-path="url(#pae2e4dbecd)" d="M 378.934681 224.543522 
L 379.050915 207.733017 
L 378.891773 198.276253 
L 378.57456 191.284013 
L 378.032249 184.379193 
L 377.223643 177.589849 
L 376.510613 173.113192 
L 375.172036 166.439431 
L 373.505237 159.815814 
L 371.523616 153.285044 
L 370.040528 149.108018 
L 368.406678 145.1613 
L 366.581505 141.462557 
L 364.555733 138.062934 
L 362.260689 134.935598 
L 359.625913 132.016138 
L 356.692821 129.343653 
L 353.494434 126.949505 
L 350.096357 124.87458 
L 346.508976 123.135378 
L 342.743642 121.733001 
L 338.816275 120.657814 
L 334.774011 119.910136 
L 330.660299 119.482631 
L 326.479778 119.372608 
L 322.246913 119.559132 
L 317.949797 120.024157 
L 313.60238 120.734229 
L 309.211874 121.66724 
L 304.794835 122.782612 
L 298.045597 124.742951 
L 279.163741 130.454725 
L 253.864818 137.45074 
L 249.631145 138.89547 
L 245.598119 140.478392 
L 241.801222 142.222916 
L 238.179275 144.208846 
L 234.578168 146.528219 
L 230.979276 149.137508 
L 225.517937 153.492241 
L 202.85746 172.249823 
L 191.684082 181.141901 
L 188.284911 184.060282 
L 185.100933 187.02943 
L 181.999963 190.23065 
L 177.301676 195.491331 
L 170.603288 203.050936 
L 166.934574 206.868587 
L 163.059399 210.554921 
L 158.985703 214.069869 
L 154.718163 217.378818 
L 150.245323 220.458374 
L 145.599367 223.265605 
L 140.932913 225.744492 
L 136.282686 227.975673 
L 129.429277 231.005942 
L 106.782866 240.673432 
L 99.601575 243.386246 
L 94.667823 245.032615 
L 89.587987 246.509366 
L 84.38108 247.762427 
L 79.010716 248.759102 
L 76.564743 249.106445 
L 76.564743 249.106445 
" style="fill:none;stroke:#ffffff;stroke-linecap:square;"/>
   </g>
   <g id="line2d_15">
    <path clip-path="url(#pae2e4dbecd)" d="M 398.36525 224.758333 
L 398.482197 207.59727 
L 398.310999 197.578556 
L 397.962674 189.982406 
L 397.358512 182.35713 
L 396.783091 177.250585 
L 396.049258 172.125932 
L 395.150849 167.050136 
L 394.088005 161.992042 
L 392.859558 156.959616 
L 391.467064 151.963213 
L 389.895712 146.955809 
L 388.085118 141.897893 
L 385.954065 136.813702 
L 383.43624 131.792445 
L 382.005353 129.317417 
L 380.443761 126.875276 
L 378.744802 124.485093 
L 376.933568 122.195905 
L 375.004964 119.993207 
L 372.97612 117.896467 
L 370.844329 115.896468 
L 368.617447 114.001018 
L 366.30795 112.219744 
L 363.911967 110.546208 
L 361.444789 108.992 
L 358.886377 107.544586 
L 356.286318 106.237806 
L 353.622593 105.052524 
L 350.923454 104.001818 
L 348.201565 103.083491 
L 345.446209 102.28662 
L 342.675382 101.613118 
L 339.881572 101.055518 
L 334.284728 100.28764 
L 328.676085 99.957469 
L 323.144298 100.037296 
L 317.699387 100.476579 
L 312.383619 101.218731 
L 307.155596 102.214653 
L 302.076055 103.408236 
L 294.701656 105.455223 
L 271.753031 112.33536 
L 252.700725 117.492222 
L 247.737356 119.010367 
L 242.736087 120.728155 
L 237.718773 122.715818 
L 232.7228 125.042247 
L 227.882217 127.729654 
L 223.346276 130.67143 
L 219.080164 133.775077 
L 213.091341 138.553269 
L 190.811024 157.002642 
L 179.137515 166.303546 
L 175.172051 169.719918 
L 171.282869 173.367283 
L 167.650736 177.127489 
L 162.652577 182.724302 
L 156.44342 189.743372 
L 153.359599 192.964875 
L 150.166473 196.016502 
L 146.860959 198.884886 
L 143.438381 201.55606 
L 139.915054 203.999981 
L 136.268508 206.220717 
L 132.375274 208.298577 
L 128.266636 210.274371 
L 121.760713 213.151355 
L 99.670364 222.59014 
L 93.263999 225.017025 
L 89.016246 226.440874 
L 84.788271 227.679711 
L 80.53677 228.714739 
L 76.2787 229.520359 
L 73.832727 229.867702 
L 73.832727 229.867702 
" style="fill:none;stroke:#ffffff;stroke-linecap:square;"/>
   </g>
   <g id="patch_3">
    <path d="M 57.6 307.584 
L 57.6 41.472 
" style="fill:none;stroke:#000000;stroke-linecap:square;stroke-linejoin:miter;stroke-width:0.8;"/>
   </g>
   <g id="patch_4">
    <path d="M 414.72 307.584 
L 414.72 41.472 
" style="fill:none;stroke:#000000;stroke-linecap:square;stroke-linejoin:miter;stroke-width:0.8;"/>
   </g>
   <g id="patch_5">
    <path d="M 57.6 307.584 
L 414.72 307.584 
" style="fill:none;stroke:#000000;stroke-linecap:square;stroke-linejoin:miter;stroke-width:0.8;"/>
   </g>
   <g id="patch_6">
    <path d="M 57.6 41.472 
L 414.72 41.472 
" style="fill:none;stroke:#000000;stroke-linecap:square;stroke-linejoin:miter;stroke-width:0.8;"/>
   </g>
  </g>
 </g>
 <defs>
  <clipPath id="pae2e4dbecd">
   <rect height="266.112" width="357.12" x="57.6" y="41.472"/>
  </clipPath>
 </defs>
</svg>
