<?xml version="1.0" encoding="utf-8" standalone="no"?>
<!DOCTYPE svg PUBLIC "-//W3C//DTD SVG 1.1//EN"
  "http://www.w3.org/Graphics/SVG/1.1/DTD/svg11.dtd">
<!-- Created with matplotlib (https://matplotlib.org/) -->
<svg height="345.6pt" version="1.1" viewBox="0 0 460.8 345.6" width="460.8pt" xmlns="http://www.w3.org/2000/svg" xmlns:xlink="http://www.w3.org/1999/xlink">
 <metadata>
  <rdf:RDF xmlns:cc="http://creativecommons.org/ns#" xmlns:dc="http://purl.org/dc/elements/1.1/" xmlns:rdf="http://www.w3.org/1999/02/22-rdf-syntax-ns#">
   <cc:Work>
    <dc:type rdf:resource="http://purl.org/dc/dcmitype/StillImage"/>
    <dc:date>2021-01-22T12:02:25.134552</dc:date>
    <dc:format>image/svg+xml</dc:format>
    <dc:creator>
     <cc:Agent>
      <dc:title>Matplotlib v3.3.3, https://matplotlib.org/</dc:title>
     </cc:Agent>
    </dc:creator>
   </cc:Work>
  </rdf:RDF>
 </metadata>
 <defs>
  <style type="text/css">*{stroke-linecap:butt;stroke-linejoin:round;}</style>
 </defs>
 <g id="figure_1">
  <g id="patch_1">
   <path d="M 0 345.6 
L 460.8 345.6 
L 460.8 0 
L 0 0 
z
" style="fill:#ffffff;"/>
  </g>
  <g id="axes_1">
   <g id="patch_2">
    <path d="M 57.6 307.584 
L 414.72 307.584 
L 414.72 41.472 
L 57.6 41.472 
z
" style="fill:#7d9051;"/>
   </g>
   <g id="matplotlib.axis_1">
    <g id="xtick_1">
     <g id="line2d_1">
      <defs>
       <path d="M 0 0 
L 0 3.5 
" id="mff35ffb370" style="stroke:#000000;stroke-width:0.8;"/>
      </defs>
      <g>
       <use style="stroke:#000000;stroke-width:0.8;" x="75.403813" xlink:href="#mff35ffb370" y="307.584"/>
      </g>
     </g>
     <g id="text_1">
      <!-- −50 -->
      <g transform="translate(64.851469 322.182437)scale(0.1 -0.1)">
       <defs>
        <path d="M 10.59375 35.5 
L 73.1875 35.5 
L 73.1875 27.203125 
L 10.59375 27.203125 
z
" id="DejaVuSans-8722"/>
        <path d="M 10.796875 72.90625 
L 49.515625 72.90625 
L 49.515625 64.59375 
L 19.828125 64.59375 
L 19.828125 46.734375 
Q 21.96875 47.46875 24.109375 47.828125 
Q 26.265625 48.1875 28.421875 48.1875 
Q 40.625 48.1875 47.75 41.5 
Q 54.890625 34.8125 54.890625 23.390625 
Q 54.890625 11.625 47.5625 5.09375 
Q 40.234375 -1.421875 26.90625 -1.421875 
Q 22.3125 -1.421875 17.546875 -0.640625 
Q 12.796875 0.140625 7.71875 1.703125 
L 7.71875 11.625 
Q 12.109375 9.234375 16.796875 8.0625 
Q 21.484375 6.890625 26.703125 6.890625 
Q 35.15625 6.890625 40.078125 11.328125 
Q 45.015625 15.765625 45.015625 23.390625 
Q 45.015625 31 40.078125 35.4375 
Q 35.15625 39.890625 26.703125 39.890625 
Q 22.75 39.890625 18.8125 39.015625 
Q 14.890625 38.140625 10.796875 36.28125 
z
" id="DejaVuSans-53"/>
        <path d="M 31.78125 66.40625 
Q 24.171875 66.40625 20.328125 58.90625 
Q 16.5 51.421875 16.5 36.375 
Q 16.5 21.390625 20.328125 13.890625 
Q 24.171875 6.390625 31.78125 6.390625 
Q 39.453125 6.390625 43.28125 13.890625 
Q 47.125 21.390625 47.125 36.375 
Q 47.125 51.421875 43.28125 58.90625 
Q 39.453125 66.40625 31.78125 66.40625 
z
M 31.78125 74.21875 
Q 44.046875 74.21875 50.515625 64.515625 
Q 56.984375 54.828125 56.984375 36.375 
Q 56.984375 17.96875 50.515625 8.265625 
Q 44.046875 -1.421875 31.78125 -1.421875 
Q 19.53125 -1.421875 13.0625 8.265625 
Q 6.59375 17.96875 6.59375 36.375 
Q 6.59375 54.828125 13.0625 64.515625 
Q 19.53125 74.21875 31.78125 74.21875 
z
" id="DejaVuSans-48"/>
       </defs>
       <use xlink:href="#DejaVuSans-8722"/>
       <use x="83.789062" xlink:href="#DejaVuSans-53"/>
       <use x="147.412109" xlink:href="#DejaVuSans-48"/>
      </g>
     </g>
    </g>
    <g id="xtick_2">
     <g id="line2d_2">
      <g>
       <use style="stroke:#000000;stroke-width:0.8;" x="122.150924" xlink:href="#mff35ffb370" y="307.584"/>
      </g>
     </g>
     <g id="text_2">
      <!-- −25 -->
      <g transform="translate(111.59858 322.182437)scale(0.1 -0.1)">
       <defs>
        <path d="M 19.1875 8.296875 
L 53.609375 8.296875 
L 53.609375 0 
L 7.328125 0 
L 7.328125 8.296875 
Q 12.9375 14.109375 22.625 23.890625 
Q 32.328125 33.6875 34.8125 36.53125 
Q 39.546875 41.84375 41.421875 45.53125 
Q 43.3125 49.21875 43.3125 52.78125 
Q 43.3125 58.59375 39.234375 62.25 
Q 35.15625 65.921875 28.609375 65.921875 
Q 23.96875 65.921875 18.8125 64.3125 
Q 13.671875 62.703125 7.8125 59.421875 
L 7.8125 69.390625 
Q 13.765625 71.78125 18.9375 73 
Q 24.125 74.21875 28.421875 74.21875 
Q 39.75 74.21875 46.484375 68.546875 
Q 53.21875 62.890625 53.21875 53.421875 
Q 53.21875 48.921875 51.53125 44.890625 
Q 49.859375 40.875 45.40625 35.40625 
Q 44.1875 33.984375 37.640625 27.21875 
Q 31.109375 20.453125 19.1875 8.296875 
z
" id="DejaVuSans-50"/>
       </defs>
       <use xlink:href="#DejaVuSans-8722"/>
       <use x="83.789062" xlink:href="#DejaVuSans-50"/>
       <use x="147.412109" xlink:href="#DejaVuSans-53"/>
      </g>
     </g>
    </g>
    <g id="xtick_3">
     <g id="line2d_3">
      <g>
       <use style="stroke:#000000;stroke-width:0.8;" x="168.898035" xlink:href="#mff35ffb370" y="307.584"/>
      </g>
     </g>
     <g id="text_3">
      <!-- 0 -->
      <g transform="translate(165.716785 322.182437)scale(0.1 -0.1)">
       <use xlink:href="#DejaVuSans-48"/>
      </g>
     </g>
    </g>
    <g id="xtick_4">
     <g id="line2d_4">
      <g>
       <use style="stroke:#000000;stroke-width:0.8;" x="215.645146" xlink:href="#mff35ffb370" y="307.584"/>
      </g>
     </g>
     <g id="text_4">
      <!-- 25 -->
      <g transform="translate(209.282646 322.182437)scale(0.1 -0.1)">
       <use xlink:href="#DejaVuSans-50"/>
       <use x="63.623047" xlink:href="#DejaVuSans-53"/>
      </g>
     </g>
    </g>
    <g id="xtick_5">
     <g id="line2d_5">
      <g>
       <use style="stroke:#000000;stroke-width:0.8;" x="262.392257" xlink:href="#mff35ffb370" y="307.584"/>
      </g>
     </g>
     <g id="text_5">
      <!-- 50 -->
      <g transform="translate(256.029757 322.182437)scale(0.1 -0.1)">
       <use xlink:href="#DejaVuSans-53"/>
       <use x="63.623047" xlink:href="#DejaVuSans-48"/>
      </g>
     </g>
    </g>
    <g id="xtick_6">
     <g id="line2d_6">
      <g>
       <use style="stroke:#000000;stroke-width:0.8;" x="309.139368" xlink:href="#mff35ffb370" y="307.584"/>
      </g>
     </g>
     <g id="text_6">
      <!-- 75 -->
      <g transform="translate(302.776868 322.182437)scale(0.1 -0.1)">
       <defs>
        <path d="M 8.203125 72.90625 
L 55.078125 72.90625 
L 55.078125 68.703125 
L 28.609375 0 
L 18.3125 0 
L 43.21875 64.59375 
L 8.203125 64.59375 
z
" id="DejaVuSans-55"/>
       </defs>
       <use xlink:href="#DejaVuSans-55"/>
       <use x="63.623047" xlink:href="#DejaVuSans-53"/>
      </g>
     </g>
    </g>
    <g id="xtick_7">
     <g id="line2d_7">
      <g>
       <use style="stroke:#000000;stroke-width:0.8;" x="355.886479" xlink:href="#mff35ffb370" y="307.584"/>
      </g>
     </g>
     <g id="text_7">
      <!-- 100 -->
      <g transform="translate(346.342729 322.182437)scale(0.1 -0.1)">
       <defs>
        <path d="M 12.40625 8.296875 
L 28.515625 8.296875 
L 28.515625 63.921875 
L 10.984375 60.40625 
L 10.984375 69.390625 
L 28.421875 72.90625 
L 38.28125 72.90625 
L 38.28125 8.296875 
L 54.390625 8.296875 
L 54.390625 0 
L 12.40625 0 
z
" id="DejaVuSans-49"/>
       </defs>
       <use xlink:href="#DejaVuSans-49"/>
       <use x="63.623047" xlink:href="#DejaVuSans-48"/>
       <use x="127.246094" xlink:href="#DejaVuSans-48"/>
      </g>
     </g>
    </g>
    <g id="xtick_8">
     <g id="line2d_8">
      <g>
       <use style="stroke:#000000;stroke-width:0.8;" x="402.63359" xlink:href="#mff35ffb370" y="307.584"/>
      </g>
     </g>
     <g id="text_8">
      <!-- 125 -->
      <g transform="translate(393.08984 322.182437)scale(0.1 -0.1)">
       <use xlink:href="#DejaVuSans-49"/>
       <use x="63.623047" xlink:href="#DejaVuSans-50"/>
       <use x="127.246094" xlink:href="#DejaVuSans-53"/>
      </g>
     </g>
    </g>
   </g>
   <g id="matplotlib.axis_2">
    <g id="ytick_1">
     <g id="line2d_9">
      <defs>
       <path d="M 0 0 
L -3.5 0 
" id="me611c3402f" style="stroke:#000000;stroke-width:0.8;"/>
      </defs>
      <g>
       <use style="stroke:#000000;stroke-width:0.8;" x="57.6" xlink:href="#me611c3402f" y="274.203439"/>
      </g>
     </g>
     <g id="text_9">
      <!-- 20 -->
      <g transform="translate(37.875 278.002658)scale(0.1 -0.1)">
       <use xlink:href="#DejaVuSans-50"/>
       <use x="63.623047" xlink:href="#DejaVuSans-48"/>
      </g>
     </g>
    </g>
    <g id="ytick_2">
     <g id="line2d_10">
      <g>
       <use style="stroke:#000000;stroke-width:0.8;" x="57.6" xlink:href="#me611c3402f" y="236.80575"/>
      </g>
     </g>
     <g id="text_10">
      <!-- 40 -->
      <g transform="translate(37.875 240.604969)scale(0.1 -0.1)">
       <defs>
        <path d="M 37.796875 64.3125 
L 12.890625 25.390625 
L 37.796875 25.390625 
z
M 35.203125 72.90625 
L 47.609375 72.90625 
L 47.609375 25.390625 
L 58.015625 25.390625 
L 58.015625 17.1875 
L 47.609375 17.1875 
L 47.609375 0 
L 37.796875 0 
L 37.796875 17.1875 
L 4.890625 17.1875 
L 4.890625 26.703125 
z
" id="DejaVuSans-52"/>
       </defs>
       <use xlink:href="#DejaVuSans-52"/>
       <use x="63.623047" xlink:href="#DejaVuSans-48"/>
      </g>
     </g>
    </g>
    <g id="ytick_3">
     <g id="line2d_11">
      <g>
       <use style="stroke:#000000;stroke-width:0.8;" x="57.6" xlink:href="#me611c3402f" y="199.408062"/>
      </g>
     </g>
     <g id="text_11">
      <!-- 60 -->
      <g transform="translate(37.875 203.20728)scale(0.1 -0.1)">
       <defs>
        <path d="M 33.015625 40.375 
Q 26.375 40.375 22.484375 35.828125 
Q 18.609375 31.296875 18.609375 23.390625 
Q 18.609375 15.53125 22.484375 10.953125 
Q 26.375 6.390625 33.015625 6.390625 
Q 39.65625 6.390625 43.53125 10.953125 
Q 47.40625 15.53125 47.40625 23.390625 
Q 47.40625 31.296875 43.53125 35.828125 
Q 39.65625 40.375 33.015625 40.375 
z
M 52.59375 71.296875 
L 52.59375 62.3125 
Q 48.875 64.0625 45.09375 64.984375 
Q 41.3125 65.921875 37.59375 65.921875 
Q 27.828125 65.921875 22.671875 59.328125 
Q 17.53125 52.734375 16.796875 39.40625 
Q 19.671875 43.65625 24.015625 45.921875 
Q 28.375 48.1875 33.59375 48.1875 
Q 44.578125 48.1875 50.953125 41.515625 
Q 57.328125 34.859375 57.328125 23.390625 
Q 57.328125 12.15625 50.6875 5.359375 
Q 44.046875 -1.421875 33.015625 -1.421875 
Q 20.359375 -1.421875 13.671875 8.265625 
Q 6.984375 17.96875 6.984375 36.375 
Q 6.984375 53.65625 15.1875 63.9375 
Q 23.390625 74.21875 37.203125 74.21875 
Q 40.921875 74.21875 44.703125 73.484375 
Q 48.484375 72.75 52.59375 71.296875 
z
" id="DejaVuSans-54"/>
       </defs>
       <use xlink:href="#DejaVuSans-54"/>
       <use x="63.623047" xlink:href="#DejaVuSans-48"/>
      </g>
     </g>
    </g>
    <g id="ytick_4">
     <g id="line2d_12">
      <g>
       <use style="stroke:#000000;stroke-width:0.8;" x="57.6" xlink:href="#me611c3402f" y="162.010373"/>
      </g>
     </g>
     <g id="text_12">
      <!-- 80 -->
      <g transform="translate(37.875 165.809592)scale(0.1 -0.1)">
       <defs>
        <path d="M 31.78125 34.625 
Q 24.75 34.625 20.71875 30.859375 
Q 16.703125 27.09375 16.703125 20.515625 
Q 16.703125 13.921875 20.71875 10.15625 
Q 24.75 6.390625 31.78125 6.390625 
Q 38.8125 6.390625 42.859375 10.171875 
Q 46.921875 13.96875 46.921875 20.515625 
Q 46.921875 27.09375 42.890625 30.859375 
Q 38.875 34.625 31.78125 34.625 
z
M 21.921875 38.8125 
Q 15.578125 40.375 12.03125 44.71875 
Q 8.5 49.078125 8.5 55.328125 
Q 8.5 64.0625 14.71875 69.140625 
Q 20.953125 74.21875 31.78125 74.21875 
Q 42.671875 74.21875 48.875 69.140625 
Q 55.078125 64.0625 55.078125 55.328125 
Q 55.078125 49.078125 51.53125 44.71875 
Q 48 40.375 41.703125 38.8125 
Q 48.828125 37.15625 52.796875 32.3125 
Q 56.78125 27.484375 56.78125 20.515625 
Q 56.78125 9.90625 50.3125 4.234375 
Q 43.84375 -1.421875 31.78125 -1.421875 
Q 19.734375 -1.421875 13.25 4.234375 
Q 6.78125 9.90625 6.78125 20.515625 
Q 6.78125 27.484375 10.78125 32.3125 
Q 14.796875 37.15625 21.921875 38.8125 
z
M 18.3125 54.390625 
Q 18.3125 48.734375 21.84375 45.5625 
Q 25.390625 42.390625 31.78125 42.390625 
Q 38.140625 42.390625 41.71875 45.5625 
Q 45.3125 48.734375 45.3125 54.390625 
Q 45.3125 60.0625 41.71875 63.234375 
Q 38.140625 66.40625 31.78125 66.40625 
Q 25.390625 66.40625 21.84375 63.234375 
Q 18.3125 60.0625 18.3125 54.390625 
z
" id="DejaVuSans-56"/>
       </defs>
       <use xlink:href="#DejaVuSans-56"/>
       <use x="63.623047" xlink:href="#DejaVuSans-48"/>
      </g>
     </g>
    </g>
    <g id="ytick_5">
     <g id="line2d_13">
      <g>
       <use style="stroke:#000000;stroke-width:0.8;" x="57.6" xlink:href="#me611c3402f" y="124.612684"/>
      </g>
     </g>
     <g id="text_13">
      <!-- 100 -->
      <g transform="translate(31.5125 128.411903)scale(0.1 -0.1)">
       <use xlink:href="#DejaVuSans-49"/>
       <use x="63.623047" xlink:href="#DejaVuSans-48"/>
       <use x="127.246094" xlink:href="#DejaVuSans-48"/>
      </g>
     </g>
    </g>
    <g id="ytick_6">
     <g id="line2d_14">
      <g>
       <use style="stroke:#000000;stroke-width:0.8;" x="57.6" xlink:href="#me611c3402f" y="87.214995"/>
      </g>
     </g>
     <g id="text_14">
      <!-- 120 -->
      <g transform="translate(31.5125 91.014214)scale(0.1 -0.1)">
       <use xlink:href="#DejaVuSans-49"/>
       <use x="63.623047" xlink:href="#DejaVuSans-50"/>
       <use x="127.246094" xlink:href="#DejaVuSans-48"/>
      </g>
     </g>
    </g>
    <g id="ytick_7">
     <g id="line2d_15">
      <g>
       <use style="stroke:#000000;stroke-width:0.8;" x="57.6" xlink:href="#me611c3402f" y="49.817306"/>
      </g>
     </g>
     <g id="text_15">
      <!-- 140 -->
      <g transform="translate(31.5125 53.616525)scale(0.1 -0.1)">
       <use xlink:href="#DejaVuSans-49"/>
       <use x="63.623047" xlink:href="#DejaVuSans-52"/>
       <use x="127.246094" xlink:href="#DejaVuSans-48"/>
      </g>
     </g>
    </g>
   </g>
   <g id="line2d_16">
    <path clip-path="url(#p7b57085e2e)" d="M 208.706004 292.902284 
L 206.665961 287.62734 
L 204.420229 282.488897 
L 201.211508 275.770402 
L 193.808635 260.674825 
L 191.514287 255.487766 
L 190.139922 251.959294 
L 188.980594 248.380335 
L 188.107357 244.74715 
L 187.596879 241.065347 
L 187.503385 237.340537 
L 187.800696 233.598899 
L 188.443937 229.874089 
L 189.386358 226.199766 
L 190.583084 222.607718 
L 191.989238 219.118514 
L 194.37521 214.039907 
L 202.772861 197.347449 
L 205.841342 190.522371 
L 208.713484 183.616888 
L 210.708651 178.373732 
L 212.533658 173.06513 
L 214.149238 167.674253 
L 215.078571 164.037328 
L 215.852703 160.368614 
L 216.447326 156.673723 
L 216.830652 152.954522 
L 216.982113 149.218493 
L 216.916667 145.473115 
L 216.653013 141.729606 
L 216.213591 138.001057 
L 215.265559 132.454979 
L 213.674287 125.143731 
L 212.139112 117.828743 
L 211.538879 114.133852 
L 211.110676 110.410912 
L 210.867591 106.667403 
L 210.824584 102.916415 
L 211.000353 99.167297 
L 211.406118 95.435007 
L 212.058707 91.732636 
L 212.974951 88.088231 
L 214.169807 84.524231 
L 215.660105 81.064945 
L 217.460803 77.732811 
L 219.573773 74.570837 
L 221.982184 71.633248 
L 224.674818 68.978012 
L 226.122108 67.773807 
L 227.636715 66.661225 
L 229.213027 65.647748 
L 230.851046 64.738984 
L 232.545161 63.934934 
L 234.287894 63.231857 
L 237.89677 62.128626 
L 241.62719 61.41433 
L 245.426795 61.075881 
L 249.245099 61.102059 
L 253.035355 61.487255 
L 256.750815 62.244558 
L 260.346603 63.377708 
L 263.777841 64.901664 
L 265.41773 65.810428 
L 266.999652 66.818296 
L 269.980248 69.112644 
L 272.706539 71.728612 
L 275.163567 74.617584 
L 277.340113 77.727202 
L 279.219347 81.005109 
L 280.801269 84.415778 
L 282.100839 87.94051 
L 283.131145 91.553127 
L 283.905277 95.236799 
L 284.436324 98.967219 
L 284.737376 102.725687 
L 284.82339 106.491634 
L 284.707458 110.242622 
L 284.402666 113.958082 
L 284.18389 115.796179 
L 284.18389 115.796179 
" style="fill:none;stroke:#fea952;stroke-linecap:square;"/>
   </g>
   <g id="line2d_17">
    <path clip-path="url(#p7b57085e2e)" d="M 201.687632 295.488 
L 199.776213 290.538501 
L 197.634175 285.634203 
L 194.508118 279.088242 
L 187.005626 263.783289 
L 184.577371 258.284671 
L 183.064488 254.384521 
L 181.747807 250.285666 
L 180.728978 245.973119 
L 180.368959 243.740421 
L 180.127951 241.46359 
L 180.018271 239.184199 
L 180.035112 236.930193 
L 180.404236 232.487206 
L 181.164486 228.155637 
L 182.253221 223.949914 
L 183.608229 219.906816 
L 185.162072 216.063469 
L 187.701867 210.662042 
L 196.746022 192.559431 
L 199.685233 185.898252 
L 202.405982 179.214588 
L 204.265502 174.175423 
L 205.93365 169.130343 
L 207.3672 164.079739 
L 208.484213 159.084541 
L 209.019172 155.798502 
L 209.362862 152.535488 
L 209.502609 149.240909 
L 209.449653 145.905769 
L 209.215311 142.519583 
L 208.817955 139.118222 
L 207.938245 133.956295 
L 206.374624 126.774189 
L 204.769581 119.106826 
L 204.118719 115.074435 
L 203.653788 110.992549 
L 203.390375 106.853774 
L 203.34885 102.677907 
L 203.552269 98.482073 
L 204.018349 94.266951 
L 204.772472 90.043182 
L 205.838668 85.848376 
L 207.240184 81.709304 
L 209.00153 77.658061 
L 211.145162 73.725798 
L 213.670576 69.977826 
L 215.079398 68.18299 
L 216.587279 66.452661 
L 218.188494 64.801261 
L 219.89092 63.228421 
L 221.694143 61.745821 
L 223.591721 60.369842 
L 225.584447 59.107344 
L 227.644029 57.981875 
L 229.746812 56.9986 
L 231.904846 56.142106 
L 234.08437 55.421471 
L 236.296878 54.822202 
L 238.53689 54.342327 
L 240.783501 53.982528 
L 245.302276 53.597379 
L 249.824361 53.644986 
L 254.34611 54.123465 
L 256.58169 54.530856 
L 258.802667 55.051966 
L 261.009538 55.693222 
L 263.182079 56.456468 
L 265.319801 57.345996 
L 267.403257 58.359505 
L 269.436687 59.50238 
L 271.392704 60.764819 
L 273.247297 62.125417 
L 275.01485 63.581255 
L 276.693477 65.123092 
L 278.282143 66.74302 
L 281.191119 70.189028 
L 283.747887 73.869234 
L 285.938716 77.719754 
L 287.767193 81.691923 
L 289.2546 85.757123 
L 290.424615 89.895182 
L 291.293408 94.071034 
L 291.882602 98.262641 
L 292.21187 102.451053 
L 292.301729 106.625574 
L 292.169111 110.759544 
L 291.829781 114.842083 
L 291.611004 116.680179 
L 291.611004 116.680179 
" style="fill:none;stroke:#ffffff;stroke-linecap:square;"/>
   </g>
   <g id="line2d_18">
    <path clip-path="url(#p7b57085e2e)" d="M 215.724377 290.316567 
L 213.555708 284.716179 
L 211.206284 279.343591 
L 207.914897 272.452563 
L 200.611645 257.566362 
L 198.451203 252.69086 
L 197.215355 249.534067 
L 196.21338 246.475004 
L 195.485737 243.52118 
L 195.065807 240.667105 
L 194.971658 237.750882 
L 195.197157 234.710591 
L 195.723388 231.592541 
L 196.519496 228.449618 
L 197.55794 225.30862 
L 198.816403 222.173558 
L 201.048554 217.417773 
L 209.562665 200.484652 
L 212.716894 193.466901 
L 215.676982 186.346938 
L 217.75346 180.88653 
L 219.66579 175.318167 
L 221.377464 169.596812 
L 222.379296 165.663025 
L 223.221193 161.652687 
L 223.87548 157.548943 
L 224.298443 153.373557 
L 224.461617 149.196077 
L 224.383681 145.040461 
L 224.090716 140.93963 
L 223.609226 136.883891 
L 222.963253 132.898522 
L 221.792961 127.161418 
L 219.508643 116.55066 
L 218.95904 113.193268 
L 218.567564 109.829274 
L 218.344806 106.481032 
L 218.300318 103.154923 
L 218.448437 99.85252 
L 218.793887 96.603063 
L 219.344943 93.42209 
L 220.111234 90.328086 
L 221.09943 87.339159 
L 222.31868 84.47183 
L 223.776445 81.739825 
L 225.47697 79.163848 
L 227.377089 76.813835 
L 229.458716 74.727604 
L 231.681709 72.952609 
L 234.058063 71.496094 
L 236.670941 70.321608 
L 239.496663 69.435049 
L 242.470879 68.846131 
L 245.551315 68.554382 
L 248.665838 68.559132 
L 251.7246 68.851045 
L 254.698963 69.437151 
L 257.511127 70.298948 
L 260.152426 71.443823 
L 262.6066 72.871772 
L 264.945646 74.644033 
L 267.130936 76.714205 
L 269.136016 79.046139 
L 270.932339 81.585169 
L 272.499977 84.290464 
L 273.835345 87.139633 
L 274.947077 90.123898 
L 275.837675 93.211072 
L 276.517146 96.402565 
L 276.990046 99.671797 
L 277.262882 103.00032 
L 277.345052 106.357694 
L 277.245804 109.7257 
L 276.975552 113.074082 
L 276.756776 114.912178 
L 276.756776 114.912178 
" style="fill:none;stroke:#ffffff;stroke-linecap:square;"/>
   </g>
   <g id="patch_3">
    <path d="M 57.6 307.584 
L 57.6 41.472 
" style="fill:none;stroke:#000000;stroke-linecap:square;stroke-linejoin:miter;stroke-width:0.8;"/>
   </g>
   <g id="patch_4">
    <path d="M 414.72 307.584 
L 414.72 41.472 
" style="fill:none;stroke:#000000;stroke-linecap:square;stroke-linejoin:miter;stroke-width:0.8;"/>
   </g>
   <g id="patch_5">
    <path d="M 57.6 307.584 
L 414.72 307.584 
" style="fill:none;stroke:#000000;stroke-linecap:square;stroke-linejoin:miter;stroke-width:0.8;"/>
   </g>
   <g id="patch_6">
    <path d="M 57.6 41.472 
L 414.72 41.472 
" style="fill:none;stroke:#000000;stroke-linecap:square;stroke-linejoin:miter;stroke-width:0.8;"/>
   </g>
  </g>
 </g>
 <defs>
  <clipPath id="p7b57085e2e">
   <rect height="266.112" width="357.12" x="57.6" y="41.472"/>
  </clipPath>
 </defs>
</svg>
