<?xml version="1.0" encoding="utf-8" standalone="no"?>
<!DOCTYPE svg PUBLIC "-//W3C//DTD SVG 1.1//EN"
  "http://www.w3.org/Graphics/SVG/1.1/DTD/svg11.dtd">
<!-- Created with matplotlib (https://matplotlib.org/) -->
<svg height="345.6pt" version="1.1" viewBox="0 0 460.8 345.6" width="460.8pt" xmlns="http://www.w3.org/2000/svg" xmlns:xlink="http://www.w3.org/1999/xlink">
 <metadata>
  <rdf:RDF xmlns:cc="http://creativecommons.org/ns#" xmlns:dc="http://purl.org/dc/elements/1.1/" xmlns:rdf="http://www.w3.org/1999/02/22-rdf-syntax-ns#">
   <cc:Work>
    <dc:type rdf:resource="http://purl.org/dc/dcmitype/StillImage"/>
    <dc:date>2021-01-25T10:22:53.729826</dc:date>
    <dc:format>image/svg+xml</dc:format>
    <dc:creator>
     <cc:Agent>
      <dc:title>Matplotlib v3.3.3, https://matplotlib.org/</dc:title>
     </cc:Agent>
    </dc:creator>
   </cc:Work>
  </rdf:RDF>
 </metadata>
 <defs>
  <style type="text/css">*{stroke-linecap:butt;stroke-linejoin:round;}</style>
 </defs>
 <g id="figure_1">
  <g id="patch_1">
   <path d="M 0 345.6 
L 460.8 345.6 
L 460.8 0 
L 0 0 
z
" style="fill:#ffffff;"/>
  </g>
  <g id="axes_1">
   <g id="patch_2">
    <path d="M 57.6 307.584 
L 414.72 307.584 
L 414.72 41.472 
L 57.6 41.472 
z
" style="fill:#7d9051;"/>
   </g>
   <g id="matplotlib.axis_1">
    <g id="xtick_1">
     <g id="line2d_1">
      <defs>
       <path d="M 0 0 
L 0 3.5 
" id="mde2dee9267" style="stroke:#000000;stroke-width:0.8;"/>
      </defs>
      <g>
       <use style="stroke:#000000;stroke-width:0.8;" x="70.272276" xlink:href="#mde2dee9267" y="307.584"/>
      </g>
     </g>
     <g id="text_1">
      <!-- −20 -->
      <g transform="translate(59.719932 322.182437)scale(0.1 -0.1)">
       <defs>
        <path d="M 10.59375 35.5 
L 73.1875 35.5 
L 73.1875 27.203125 
L 10.59375 27.203125 
z
" id="DejaVuSans-8722"/>
        <path d="M 19.1875 8.296875 
L 53.609375 8.296875 
L 53.609375 0 
L 7.328125 0 
L 7.328125 8.296875 
Q 12.9375 14.109375 22.625 23.890625 
Q 32.328125 33.6875 34.8125 36.53125 
Q 39.546875 41.84375 41.421875 45.53125 
Q 43.3125 49.21875 43.3125 52.78125 
Q 43.3125 58.59375 39.234375 62.25 
Q 35.15625 65.921875 28.609375 65.921875 
Q 23.96875 65.921875 18.8125 64.3125 
Q 13.671875 62.703125 7.8125 59.421875 
L 7.8125 69.390625 
Q 13.765625 71.78125 18.9375 73 
Q 24.125 74.21875 28.421875 74.21875 
Q 39.75 74.21875 46.484375 68.546875 
Q 53.21875 62.890625 53.21875 53.421875 
Q 53.21875 48.921875 51.53125 44.890625 
Q 49.859375 40.875 45.40625 35.40625 
Q 44.1875 33.984375 37.640625 27.21875 
Q 31.109375 20.453125 19.1875 8.296875 
z
" id="DejaVuSans-50"/>
        <path d="M 31.78125 66.40625 
Q 24.171875 66.40625 20.328125 58.90625 
Q 16.5 51.421875 16.5 36.375 
Q 16.5 21.390625 20.328125 13.890625 
Q 24.171875 6.390625 31.78125 6.390625 
Q 39.453125 6.390625 43.28125 13.890625 
Q 47.125 21.390625 47.125 36.375 
Q 47.125 51.421875 43.28125 58.90625 
Q 39.453125 66.40625 31.78125 66.40625 
z
M 31.78125 74.21875 
Q 44.046875 74.21875 50.515625 64.515625 
Q 56.984375 54.828125 56.984375 36.375 
Q 56.984375 17.96875 50.515625 8.265625 
Q 44.046875 -1.421875 31.78125 -1.421875 
Q 19.53125 -1.421875 13.0625 8.265625 
Q 6.59375 17.96875 6.59375 36.375 
Q 6.59375 54.828125 13.0625 64.515625 
Q 19.53125 74.21875 31.78125 74.21875 
z
" id="DejaVuSans-48"/>
       </defs>
       <use xlink:href="#DejaVuSans-8722"/>
       <use x="83.789062" xlink:href="#DejaVuSans-50"/>
       <use x="147.412109" xlink:href="#DejaVuSans-48"/>
      </g>
     </g>
    </g>
    <g id="xtick_2">
     <g id="line2d_2">
      <g>
       <use style="stroke:#000000;stroke-width:0.8;" x="127.567595" xlink:href="#mde2dee9267" y="307.584"/>
      </g>
     </g>
     <g id="text_2">
      <!-- 0 -->
      <g transform="translate(124.386345 322.182437)scale(0.1 -0.1)">
       <use xlink:href="#DejaVuSans-48"/>
      </g>
     </g>
    </g>
    <g id="xtick_3">
     <g id="line2d_3">
      <g>
       <use style="stroke:#000000;stroke-width:0.8;" x="184.862914" xlink:href="#mde2dee9267" y="307.584"/>
      </g>
     </g>
     <g id="text_3">
      <!-- 20 -->
      <g transform="translate(178.500414 322.182437)scale(0.1 -0.1)">
       <use xlink:href="#DejaVuSans-50"/>
       <use x="63.623047" xlink:href="#DejaVuSans-48"/>
      </g>
     </g>
    </g>
    <g id="xtick_4">
     <g id="line2d_4">
      <g>
       <use style="stroke:#000000;stroke-width:0.8;" x="242.158234" xlink:href="#mde2dee9267" y="307.584"/>
      </g>
     </g>
     <g id="text_4">
      <!-- 40 -->
      <g transform="translate(235.795734 322.182437)scale(0.1 -0.1)">
       <defs>
        <path d="M 37.796875 64.3125 
L 12.890625 25.390625 
L 37.796875 25.390625 
z
M 35.203125 72.90625 
L 47.609375 72.90625 
L 47.609375 25.390625 
L 58.015625 25.390625 
L 58.015625 17.1875 
L 47.609375 17.1875 
L 47.609375 0 
L 37.796875 0 
L 37.796875 17.1875 
L 4.890625 17.1875 
L 4.890625 26.703125 
z
" id="DejaVuSans-52"/>
       </defs>
       <use xlink:href="#DejaVuSans-52"/>
       <use x="63.623047" xlink:href="#DejaVuSans-48"/>
      </g>
     </g>
    </g>
    <g id="xtick_5">
     <g id="line2d_5">
      <g>
       <use style="stroke:#000000;stroke-width:0.8;" x="299.453553" xlink:href="#mde2dee9267" y="307.584"/>
      </g>
     </g>
     <g id="text_5">
      <!-- 60 -->
      <g transform="translate(293.091053 322.182437)scale(0.1 -0.1)">
       <defs>
        <path d="M 33.015625 40.375 
Q 26.375 40.375 22.484375 35.828125 
Q 18.609375 31.296875 18.609375 23.390625 
Q 18.609375 15.53125 22.484375 10.953125 
Q 26.375 6.390625 33.015625 6.390625 
Q 39.65625 6.390625 43.53125 10.953125 
Q 47.40625 15.53125 47.40625 23.390625 
Q 47.40625 31.296875 43.53125 35.828125 
Q 39.65625 40.375 33.015625 40.375 
z
M 52.59375 71.296875 
L 52.59375 62.3125 
Q 48.875 64.0625 45.09375 64.984375 
Q 41.3125 65.921875 37.59375 65.921875 
Q 27.828125 65.921875 22.671875 59.328125 
Q 17.53125 52.734375 16.796875 39.40625 
Q 19.671875 43.65625 24.015625 45.921875 
Q 28.375 48.1875 33.59375 48.1875 
Q 44.578125 48.1875 50.953125 41.515625 
Q 57.328125 34.859375 57.328125 23.390625 
Q 57.328125 12.15625 50.6875 5.359375 
Q 44.046875 -1.421875 33.015625 -1.421875 
Q 20.359375 -1.421875 13.671875 8.265625 
Q 6.984375 17.96875 6.984375 36.375 
Q 6.984375 53.65625 15.1875 63.9375 
Q 23.390625 74.21875 37.203125 74.21875 
Q 40.921875 74.21875 44.703125 73.484375 
Q 48.484375 72.75 52.59375 71.296875 
z
" id="DejaVuSans-54"/>
       </defs>
       <use xlink:href="#DejaVuSans-54"/>
       <use x="63.623047" xlink:href="#DejaVuSans-48"/>
      </g>
     </g>
    </g>
    <g id="xtick_6">
     <g id="line2d_6">
      <g>
       <use style="stroke:#000000;stroke-width:0.8;" x="356.748872" xlink:href="#mde2dee9267" y="307.584"/>
      </g>
     </g>
     <g id="text_6">
      <!-- 80 -->
      <g transform="translate(350.386372 322.182437)scale(0.1 -0.1)">
       <defs>
        <path d="M 31.78125 34.625 
Q 24.75 34.625 20.71875 30.859375 
Q 16.703125 27.09375 16.703125 20.515625 
Q 16.703125 13.921875 20.71875 10.15625 
Q 24.75 6.390625 31.78125 6.390625 
Q 38.8125 6.390625 42.859375 10.171875 
Q 46.921875 13.96875 46.921875 20.515625 
Q 46.921875 27.09375 42.890625 30.859375 
Q 38.875 34.625 31.78125 34.625 
z
M 21.921875 38.8125 
Q 15.578125 40.375 12.03125 44.71875 
Q 8.5 49.078125 8.5 55.328125 
Q 8.5 64.0625 14.71875 69.140625 
Q 20.953125 74.21875 31.78125 74.21875 
Q 42.671875 74.21875 48.875 69.140625 
Q 55.078125 64.0625 55.078125 55.328125 
Q 55.078125 49.078125 51.53125 44.71875 
Q 48 40.375 41.703125 38.8125 
Q 48.828125 37.15625 52.796875 32.3125 
Q 56.78125 27.484375 56.78125 20.515625 
Q 56.78125 9.90625 50.3125 4.234375 
Q 43.84375 -1.421875 31.78125 -1.421875 
Q 19.734375 -1.421875 13.25 4.234375 
Q 6.78125 9.90625 6.78125 20.515625 
Q 6.78125 27.484375 10.78125 32.3125 
Q 14.796875 37.15625 21.921875 38.8125 
z
M 18.3125 54.390625 
Q 18.3125 48.734375 21.84375 45.5625 
Q 25.390625 42.390625 31.78125 42.390625 
Q 38.140625 42.390625 41.71875 45.5625 
Q 45.3125 48.734375 45.3125 54.390625 
Q 45.3125 60.0625 41.71875 63.234375 
Q 38.140625 66.40625 31.78125 66.40625 
Q 25.390625 66.40625 21.84375 63.234375 
Q 18.3125 60.0625 18.3125 54.390625 
z
" id="DejaVuSans-56"/>
       </defs>
       <use xlink:href="#DejaVuSans-56"/>
       <use x="63.623047" xlink:href="#DejaVuSans-48"/>
      </g>
     </g>
    </g>
    <g id="xtick_7">
     <g id="line2d_7">
      <g>
       <use style="stroke:#000000;stroke-width:0.8;" x="414.044192" xlink:href="#mde2dee9267" y="307.584"/>
      </g>
     </g>
     <g id="text_7">
      <!-- 100 -->
      <g transform="translate(404.500442 322.182437)scale(0.1 -0.1)">
       <defs>
        <path d="M 12.40625 8.296875 
L 28.515625 8.296875 
L 28.515625 63.921875 
L 10.984375 60.40625 
L 10.984375 69.390625 
L 28.421875 72.90625 
L 38.28125 72.90625 
L 38.28125 8.296875 
L 54.390625 8.296875 
L 54.390625 0 
L 12.40625 0 
z
" id="DejaVuSans-49"/>
       </defs>
       <use xlink:href="#DejaVuSans-49"/>
       <use x="63.623047" xlink:href="#DejaVuSans-48"/>
       <use x="127.246094" xlink:href="#DejaVuSans-48"/>
      </g>
     </g>
    </g>
   </g>
   <g id="matplotlib.axis_2">
    <g id="ytick_1">
     <g id="line2d_8">
      <defs>
       <path d="M 0 0 
L -3.5 0 
" id="mf388d89c64" style="stroke:#000000;stroke-width:0.8;"/>
      </defs>
      <g>
       <use style="stroke:#000000;stroke-width:0.8;" x="57.6" xlink:href="#mf388d89c64" y="266.129114"/>
      </g>
     </g>
     <g id="text_8">
      <!-- 20 -->
      <g transform="translate(37.875 269.928333)scale(0.1 -0.1)">
       <use xlink:href="#DejaVuSans-50"/>
       <use x="63.623047" xlink:href="#DejaVuSans-48"/>
      </g>
     </g>
    </g>
    <g id="ytick_2">
     <g id="line2d_9">
      <g>
       <use style="stroke:#000000;stroke-width:0.8;" x="57.6" xlink:href="#mf388d89c64" y="208.833795"/>
      </g>
     </g>
     <g id="text_9">
      <!-- 40 -->
      <g transform="translate(37.875 212.633014)scale(0.1 -0.1)">
       <use xlink:href="#DejaVuSans-52"/>
       <use x="63.623047" xlink:href="#DejaVuSans-48"/>
      </g>
     </g>
    </g>
    <g id="ytick_3">
     <g id="line2d_10">
      <g>
       <use style="stroke:#000000;stroke-width:0.8;" x="57.6" xlink:href="#mf388d89c64" y="151.538476"/>
      </g>
     </g>
     <g id="text_10">
      <!-- 60 -->
      <g transform="translate(37.875 155.337695)scale(0.1 -0.1)">
       <use xlink:href="#DejaVuSans-54"/>
       <use x="63.623047" xlink:href="#DejaVuSans-48"/>
      </g>
     </g>
    </g>
    <g id="ytick_4">
     <g id="line2d_11">
      <g>
       <use style="stroke:#000000;stroke-width:0.8;" x="57.6" xlink:href="#mf388d89c64" y="94.243156"/>
      </g>
     </g>
     <g id="text_11">
      <!-- 80 -->
      <g transform="translate(37.875 98.042375)scale(0.1 -0.1)">
       <use xlink:href="#DejaVuSans-56"/>
       <use x="63.623047" xlink:href="#DejaVuSans-48"/>
      </g>
     </g>
    </g>
   </g>
   <g id="line2d_12">
    <path clip-path="url(#p74c7d7d144)" d="M 194.03876 294.776774 
L 194.353884 289.061566 
L 194.52004 283.334899 
L 194.528635 277.596773 
L 194.376802 271.861511 
L 194.061678 266.129114 
L 193.574668 260.411042 
L 192.918636 254.710157 
L 192.082125 249.035056 
L 191.065133 243.394332 
L 189.859066 237.79085 
L 188.47252 232.233204 
L 186.916952 226.715664 
L 184.327203 218.513839 
L 181.502544 210.389363 
L 177.506195 199.649355 
L 166.261989 170.199561 
L 163.460248 162.075085 
L 161.741388 156.614841 
L 160.174361 151.111626 
L 158.796409 145.556844 
L 157.647638 139.941903 
L 156.773884 134.261072 
L 156.215255 128.505757 
L 156.017586 122.678823 
L 156.077746 119.759627 
L 156.255361 116.849025 
L 156.561891 113.958476 
L 157.008795 111.099439 
L 157.601801 108.28051 
L 158.3581 105.510281 
L 159.280554 102.800212 
L 160.383489 100.161763 
L 161.669769 97.603527 
L 163.133665 95.131234 
L 164.760852 92.747749 
L 166.539871 90.458801 
L 168.4564 88.270119 
L 170.498978 86.18457 
L 172.653282 84.207881 
L 174.907853 82.345783 
L 177.251231 80.601141 
L 179.669094 78.979683 
L 182.149981 77.481411 
L 184.685299 76.106323 
L 187.272183 74.842961 
L 192.583459 72.637092 
L 198.037973 70.809371 
L 203.592754 69.308234 
L 209.207696 68.079249 
L 214.859879 67.090905 
L 220.54071 66.320283 
L 226.247324 65.744465 
L 231.968261 65.343397 
L 237.697793 65.097028 
L 243.433055 65.025408 
L 249.162587 65.185835 
L 254.880659 65.644198 
L 260.581544 66.452062 
L 266.25378 67.678182 
L 269.064116 68.457398 
L 271.845803 69.356935 
L 274.57879 70.376791 
L 277.257346 71.516968 
L 279.867148 72.786059 
L 282.393872 74.1812 
L 284.826058 75.710985 
L 287.152248 77.375414 
L 289.358118 79.177352 
L 291.437938 81.116799 
L 293.394573 83.18516 
L 295.233753 85.368112 
L 296.966936 87.654195 
L 298.602718 90.029086 
L 301.610722 94.993725 
L 304.32079 100.158898 
L 306.795948 105.424338 
L 309.056249 110.744208 
L 311.06445 116.124239 
L 312.791903 121.578753 
L 314.204233 127.113481 
L 315.267061 132.742746 
L 315.963199 138.45509 
L 316.284053 144.210404 
L 316.226758 149.974314 
L 315.785584 155.709575 
L 314.951937 161.384676 
L 313.75733 166.982429 
L 312.253327 172.511427 
L 310.497226 177.980266 
L 308.54632 183.400403 
L 305.363565 191.44753 
L 303.063158 196.733024 
L 300.579406 201.912521 
L 297.872202 206.951644 
L 294.910034 211.818881 
L 291.652795 216.476991 
L 288.060379 220.89446 
L 286.129527 223.000063 
L 284.101272 225.034047 
L 281.972751 226.990682 
L 279.735369 228.864239 
L 277.389126 230.651853 
L 274.928292 232.347794 
L 274.928292 232.347794 
" style="fill:none;stroke:#fea952;stroke-linecap:square;"/>
   </g>
   <g id="line2d_13">
    <path clip-path="url(#p74c7d7d144)" d="M 182.601789 294.065548 
L 183.000724 285.947626 
L 183.084037 280.524448 
L 183.021745 275.118137 
L 182.802191 269.702981 
L 182.431557 264.331493 
L 181.894422 258.953704 
L 181.196079 253.620207 
L 180.333748 248.329779 
L 179.305405 243.095723 
L 178.093696 237.871745 
L 176.705626 232.653043 
L 174.332936 224.810344 
L 171.670779 216.93696 
L 167.810302 206.395371 
L 160.613146 187.743205 
L 156.471918 176.809524 
L 153.5008 168.424873 
L 150.744677 159.837027 
L 149.080064 153.979851 
L 147.597952 147.986806 
L 146.345106 141.829472 
L 145.385881 135.535254 
L 144.771199 129.092054 
L 144.608817 125.789165 
L 144.560955 122.44272 
L 144.639959 119.061652 
L 144.860192 115.640617 
L 145.240307 112.188769 
L 145.795168 108.740475 
L 146.547303 105.262529 
L 147.510229 101.817877 
L 148.708058 98.380657 
L 150.145681 95.014198 
L 151.809593 91.765114 
L 153.669725 88.670275 
L 155.713176 85.7157 
L 157.918843 82.909759 
L 160.269716 80.252117 
L 162.75174 77.741203 
L 165.356087 75.372662 
L 168.064818 73.154319 
L 170.868888 71.084007 
L 173.745161 69.170648 
L 176.686723 67.408529 
L 179.656657 65.809581 
L 182.683964 64.342561 
L 185.707141 63.029952 
L 188.768457 61.831727 
L 194.900476 59.788198 
L 201.023581 58.140893 
L 207.125629 56.810924 
L 213.221682 55.749544 
L 219.29286 54.929364 
L 225.354448 54.32024 
L 231.396023 53.898631 
L 237.446006 53.64073 
L 243.627831 53.568 
L 249.917995 53.751698 
L 256.29636 54.272921 
L 259.532843 54.682442 
L 262.791783 55.208175 
L 266.05363 55.857576 
L 269.315503 56.635718 
L 272.589953 57.554251 
L 275.852078 58.621018 
L 279.066865 59.833199 
L 282.268563 61.211734 
L 285.406069 62.754584 
L 288.494867 64.481303 
L 291.494101 66.391793 
L 294.401654 68.500943 
L 297.173144 70.796689 
L 299.76243 73.241967 
L 302.15795 75.801843 
L 304.365178 78.445163 
L 306.404035 81.154094 
L 308.296344 83.918133 
L 310.050647 86.714392 
L 313.210321 92.361182 
L 315.997434 98.003241 
L 318.54953 103.707781 
L 320.87542 109.545437 
L 322.938846 115.534666 
L 324.684338 121.669114 
L 326.077279 127.982238 
L 327.058812 134.3937 
L 327.62279 140.884545 
L 327.759045 147.399798 
L 327.463543 153.921162 
L 327.14935 157.18435 
L 326.192864 163.609921 
L 324.851627 169.850655 
L 323.197468 175.907885 
L 321.308685 181.777962 
L 319.247444 187.498706 
L 315.903745 195.943612 
L 313.443665 201.586396 
L 310.740065 207.210742 
L 307.747682 212.764135 
L 304.410674 218.225752 
L 302.598428 220.901357 
L 300.676865 223.539306 
L 298.653364 226.1119 
L 296.506044 228.639192 
L 294.243729 231.091408 
L 291.856262 233.470295 
L 289.329667 235.776234 
L 286.680057 237.979142 
L 283.891733 240.087224 
L 281.430899 241.783166 
L 281.430899 241.783166 
" style="fill:none;stroke:#ffffff;stroke-linecap:square;"/>
   </g>
   <g id="line2d_14">
    <path clip-path="url(#p74c7d7d144)" d="M 205.475731 295.488 
L 205.805515 289.474237 
L 205.978738 283.426477 
L 205.985635 277.379307 
L 205.822714 271.312656 
L 205.486854 265.248495 
L 204.968173 259.187041 
L 204.266837 253.120036 
L 203.374575 247.088082 
L 202.288261 241.080993 
L 200.999839 235.108812 
L 199.522508 229.198751 
L 197.883555 223.392451 
L 195.18093 214.838685 
L 192.274705 206.48159 
L 188.20471 195.544245 
L 177.058646 166.359986 
L 174.368529 158.565165 
L 171.981013 150.813612 
L 170.606725 145.691895 
L 169.442035 140.594378 
L 168.522242 135.514911 
L 167.873444 130.45307 
L 167.523756 125.406875 
L 167.515533 120.457602 
L 167.883476 115.728183 
L 168.6563 111.298491 
L 169.20597 109.202685 
L 169.85305 107.219768 
L 170.621297 105.309328 
L 171.529946 103.44194 
L 172.597604 101.592193 
L 173.808527 99.779797 
L 175.160899 98.007842 
L 176.643083 96.288121 
L 178.246216 94.627937 
L 179.950477 93.0431 
L 181.750887 91.537248 
L 183.633575 90.118275 
L 185.593026 88.788719 
L 187.613239 87.554293 
L 191.860401 85.343361 
L 196.398461 83.442456 
L 201.175471 81.830544 
L 206.161928 80.475574 
L 211.289762 79.347574 
L 216.498075 78.432265 
L 221.788559 77.711201 
L 227.140199 77.16869 
L 232.5405 76.788164 
L 240.599767 76.493015 
L 245.851257 76.524469 
L 250.948865 76.783379 
L 255.935089 77.316415 
L 260.793153 78.163807 
L 265.538278 79.360545 
L 270.090716 80.920383 
L 272.246129 81.822202 
L 274.328227 82.817535 
L 276.292876 83.881097 
L 278.158015 85.030178 
L 279.902842 86.249886 
L 281.543092 87.558015 
L 283.113445 88.99163 
L 284.631196 90.568477 
L 286.102327 92.29106 
L 287.529837 94.154295 
L 290.243006 98.242529 
L 292.784216 102.7542 
L 295.170871 107.568536 
L 297.362827 112.446442 
L 299.311167 117.305821 
L 300.994856 122.145408 
L 302.394877 127.000202 
L 303.488553 131.853936 
L 304.265986 136.786947 
L 304.721865 141.772355 
L 304.849168 146.78492 
L 304.646201 151.774185 
L 304.108268 156.701167 
L 303.226132 161.634735 
L 302.022542 166.606122 
L 300.526908 171.643046 
L 298.791503 176.732493 
L 295.848052 184.44145 
L 293.758679 189.450567 
L 291.562248 194.281194 
L 289.229124 198.903252 
L 286.725764 203.308355 
L 284.041751 207.45181 
L 281.145753 211.322575 
L 278.015324 214.908718 
L 274.615835 218.205129 
L 270.886518 221.216481 
L 268.425684 222.912423 
L 268.425684 222.912423 
" style="fill:none;stroke:#ffffff;stroke-linecap:square;"/>
   </g>
   <g id="patch_3">
    <path d="M 57.6 307.584 
L 57.6 41.472 
" style="fill:none;stroke:#000000;stroke-linecap:square;stroke-linejoin:miter;stroke-width:0.8;"/>
   </g>
   <g id="patch_4">
    <path d="M 414.72 307.584 
L 414.72 41.472 
" style="fill:none;stroke:#000000;stroke-linecap:square;stroke-linejoin:miter;stroke-width:0.8;"/>
   </g>
   <g id="patch_5">
    <path d="M 57.6 307.584 
L 414.72 307.584 
" style="fill:none;stroke:#000000;stroke-linecap:square;stroke-linejoin:miter;stroke-width:0.8;"/>
   </g>
   <g id="patch_6">
    <path d="M 57.6 41.472 
L 414.72 41.472 
" style="fill:none;stroke:#000000;stroke-linecap:square;stroke-linejoin:miter;stroke-width:0.8;"/>
   </g>
  </g>
 </g>
 <defs>
  <clipPath id="p74c7d7d144">
   <rect height="266.112" width="357.12" x="57.6" y="41.472"/>
  </clipPath>
 </defs>
</svg>
