<?xml version="1.0" encoding="utf-8" standalone="no"?>
<!DOCTYPE svg PUBLIC "-//W3C//DTD SVG 1.1//EN"
  "http://www.w3.org/Graphics/SVG/1.1/DTD/svg11.dtd">
<!-- Created with matplotlib (https://matplotlib.org/) -->
<svg height="345.6pt" version="1.1" viewBox="0 0 460.8 345.6" width="460.8pt" xmlns="http://www.w3.org/2000/svg" xmlns:xlink="http://www.w3.org/1999/xlink">
 <metadata>
  <rdf:RDF xmlns:cc="http://creativecommons.org/ns#" xmlns:dc="http://purl.org/dc/elements/1.1/" xmlns:rdf="http://www.w3.org/1999/02/22-rdf-syntax-ns#">
   <cc:Work>
    <dc:type rdf:resource="http://purl.org/dc/dcmitype/StillImage"/>
    <dc:date>2021-01-22T10:18:33.163779</dc:date>
    <dc:format>image/svg+xml</dc:format>
    <dc:creator>
     <cc:Agent>
      <dc:title>Matplotlib v3.3.3, https://matplotlib.org/</dc:title>
     </cc:Agent>
    </dc:creator>
   </cc:Work>
  </rdf:RDF>
 </metadata>
 <defs>
  <style type="text/css">*{stroke-linecap:butt;stroke-linejoin:round;}</style>
 </defs>
 <g id="figure_1">
  <g id="patch_1">
   <path d="M 0 345.6 
L 460.8 345.6 
L 460.8 0 
L 0 0 
z
" style="fill:#ffffff;"/>
  </g>
  <g id="axes_1">
   <g id="patch_2">
    <path d="M 57.6 307.584 
L 414.72 307.584 
L 414.72 41.472 
L 57.6 41.472 
z
" style="fill:#7d9051;"/>
   </g>
   <g id="matplotlib.axis_1">
    <g id="xtick_1">
     <g id="line2d_1">
      <defs>
       <path d="M 0 0 
L 0 3.5 
" id="m7b5c4b8858" style="stroke:#000000;stroke-width:0.8;"/>
      </defs>
      <g>
       <use style="stroke:#000000;stroke-width:0.8;" x="94.808265" xlink:href="#m7b5c4b8858" y="307.584"/>
      </g>
     </g>
     <g id="text_1">
      <!-- −20 -->
      <g transform="translate(84.255921 322.182437)scale(0.1 -0.1)">
       <defs>
        <path d="M 10.59375 35.5 
L 73.1875 35.5 
L 73.1875 27.203125 
L 10.59375 27.203125 
z
" id="DejaVuSans-8722"/>
        <path d="M 19.1875 8.296875 
L 53.609375 8.296875 
L 53.609375 0 
L 7.328125 0 
L 7.328125 8.296875 
Q 12.9375 14.109375 22.625 23.890625 
Q 32.328125 33.6875 34.8125 36.53125 
Q 39.546875 41.84375 41.421875 45.53125 
Q 43.3125 49.21875 43.3125 52.78125 
Q 43.3125 58.59375 39.234375 62.25 
Q 35.15625 65.921875 28.609375 65.921875 
Q 23.96875 65.921875 18.8125 64.3125 
Q 13.671875 62.703125 7.8125 59.421875 
L 7.8125 69.390625 
Q 13.765625 71.78125 18.9375 73 
Q 24.125 74.21875 28.421875 74.21875 
Q 39.75 74.21875 46.484375 68.546875 
Q 53.21875 62.890625 53.21875 53.421875 
Q 53.21875 48.921875 51.53125 44.890625 
Q 49.859375 40.875 45.40625 35.40625 
Q 44.1875 33.984375 37.640625 27.21875 
Q 31.109375 20.453125 19.1875 8.296875 
z
" id="DejaVuSans-50"/>
        <path d="M 31.78125 66.40625 
Q 24.171875 66.40625 20.328125 58.90625 
Q 16.5 51.421875 16.5 36.375 
Q 16.5 21.390625 20.328125 13.890625 
Q 24.171875 6.390625 31.78125 6.390625 
Q 39.453125 6.390625 43.28125 13.890625 
Q 47.125 21.390625 47.125 36.375 
Q 47.125 51.421875 43.28125 58.90625 
Q 39.453125 66.40625 31.78125 66.40625 
z
M 31.78125 74.21875 
Q 44.046875 74.21875 50.515625 64.515625 
Q 56.984375 54.828125 56.984375 36.375 
Q 56.984375 17.96875 50.515625 8.265625 
Q 44.046875 -1.421875 31.78125 -1.421875 
Q 19.53125 -1.421875 13.0625 8.265625 
Q 6.59375 17.96875 6.59375 36.375 
Q 6.59375 54.828125 13.0625 64.515625 
Q 19.53125 74.21875 31.78125 74.21875 
z
" id="DejaVuSans-48"/>
       </defs>
       <use xlink:href="#DejaVuSans-8722"/>
       <use x="83.789062" xlink:href="#DejaVuSans-50"/>
       <use x="147.412109" xlink:href="#DejaVuSans-48"/>
      </g>
     </g>
    </g>
    <g id="xtick_2">
     <g id="line2d_2">
      <g>
       <use style="stroke:#000000;stroke-width:0.8;" x="135.378813" xlink:href="#m7b5c4b8858" y="307.584"/>
      </g>
     </g>
     <g id="text_2">
      <!-- 0 -->
      <g transform="translate(132.197563 322.182437)scale(0.1 -0.1)">
       <use xlink:href="#DejaVuSans-48"/>
      </g>
     </g>
    </g>
    <g id="xtick_3">
     <g id="line2d_3">
      <g>
       <use style="stroke:#000000;stroke-width:0.8;" x="175.949361" xlink:href="#m7b5c4b8858" y="307.584"/>
      </g>
     </g>
     <g id="text_3">
      <!-- 20 -->
      <g transform="translate(169.586861 322.182437)scale(0.1 -0.1)">
       <use xlink:href="#DejaVuSans-50"/>
       <use x="63.623047" xlink:href="#DejaVuSans-48"/>
      </g>
     </g>
    </g>
    <g id="xtick_4">
     <g id="line2d_4">
      <g>
       <use style="stroke:#000000;stroke-width:0.8;" x="216.519909" xlink:href="#m7b5c4b8858" y="307.584"/>
      </g>
     </g>
     <g id="text_4">
      <!-- 40 -->
      <g transform="translate(210.157409 322.182437)scale(0.1 -0.1)">
       <defs>
        <path d="M 37.796875 64.3125 
L 12.890625 25.390625 
L 37.796875 25.390625 
z
M 35.203125 72.90625 
L 47.609375 72.90625 
L 47.609375 25.390625 
L 58.015625 25.390625 
L 58.015625 17.1875 
L 47.609375 17.1875 
L 47.609375 0 
L 37.796875 0 
L 37.796875 17.1875 
L 4.890625 17.1875 
L 4.890625 26.703125 
z
" id="DejaVuSans-52"/>
       </defs>
       <use xlink:href="#DejaVuSans-52"/>
       <use x="63.623047" xlink:href="#DejaVuSans-48"/>
      </g>
     </g>
    </g>
    <g id="xtick_5">
     <g id="line2d_5">
      <g>
       <use style="stroke:#000000;stroke-width:0.8;" x="257.090457" xlink:href="#m7b5c4b8858" y="307.584"/>
      </g>
     </g>
     <g id="text_5">
      <!-- 60 -->
      <g transform="translate(250.727957 322.182437)scale(0.1 -0.1)">
       <defs>
        <path d="M 33.015625 40.375 
Q 26.375 40.375 22.484375 35.828125 
Q 18.609375 31.296875 18.609375 23.390625 
Q 18.609375 15.53125 22.484375 10.953125 
Q 26.375 6.390625 33.015625 6.390625 
Q 39.65625 6.390625 43.53125 10.953125 
Q 47.40625 15.53125 47.40625 23.390625 
Q 47.40625 31.296875 43.53125 35.828125 
Q 39.65625 40.375 33.015625 40.375 
z
M 52.59375 71.296875 
L 52.59375 62.3125 
Q 48.875 64.0625 45.09375 64.984375 
Q 41.3125 65.921875 37.59375 65.921875 
Q 27.828125 65.921875 22.671875 59.328125 
Q 17.53125 52.734375 16.796875 39.40625 
Q 19.671875 43.65625 24.015625 45.921875 
Q 28.375 48.1875 33.59375 48.1875 
Q 44.578125 48.1875 50.953125 41.515625 
Q 57.328125 34.859375 57.328125 23.390625 
Q 57.328125 12.15625 50.6875 5.359375 
Q 44.046875 -1.421875 33.015625 -1.421875 
Q 20.359375 -1.421875 13.671875 8.265625 
Q 6.984375 17.96875 6.984375 36.375 
Q 6.984375 53.65625 15.1875 63.9375 
Q 23.390625 74.21875 37.203125 74.21875 
Q 40.921875 74.21875 44.703125 73.484375 
Q 48.484375 72.75 52.59375 71.296875 
z
" id="DejaVuSans-54"/>
       </defs>
       <use xlink:href="#DejaVuSans-54"/>
       <use x="63.623047" xlink:href="#DejaVuSans-48"/>
      </g>
     </g>
    </g>
    <g id="xtick_6">
     <g id="line2d_6">
      <g>
       <use style="stroke:#000000;stroke-width:0.8;" x="297.661005" xlink:href="#m7b5c4b8858" y="307.584"/>
      </g>
     </g>
     <g id="text_6">
      <!-- 80 -->
      <g transform="translate(291.298505 322.182437)scale(0.1 -0.1)">
       <defs>
        <path d="M 31.78125 34.625 
Q 24.75 34.625 20.71875 30.859375 
Q 16.703125 27.09375 16.703125 20.515625 
Q 16.703125 13.921875 20.71875 10.15625 
Q 24.75 6.390625 31.78125 6.390625 
Q 38.8125 6.390625 42.859375 10.171875 
Q 46.921875 13.96875 46.921875 20.515625 
Q 46.921875 27.09375 42.890625 30.859375 
Q 38.875 34.625 31.78125 34.625 
z
M 21.921875 38.8125 
Q 15.578125 40.375 12.03125 44.71875 
Q 8.5 49.078125 8.5 55.328125 
Q 8.5 64.0625 14.71875 69.140625 
Q 20.953125 74.21875 31.78125 74.21875 
Q 42.671875 74.21875 48.875 69.140625 
Q 55.078125 64.0625 55.078125 55.328125 
Q 55.078125 49.078125 51.53125 44.71875 
Q 48 40.375 41.703125 38.8125 
Q 48.828125 37.15625 52.796875 32.3125 
Q 56.78125 27.484375 56.78125 20.515625 
Q 56.78125 9.90625 50.3125 4.234375 
Q 43.84375 -1.421875 31.78125 -1.421875 
Q 19.734375 -1.421875 13.25 4.234375 
Q 6.78125 9.90625 6.78125 20.515625 
Q 6.78125 27.484375 10.78125 32.3125 
Q 14.796875 37.15625 21.921875 38.8125 
z
M 18.3125 54.390625 
Q 18.3125 48.734375 21.84375 45.5625 
Q 25.390625 42.390625 31.78125 42.390625 
Q 38.140625 42.390625 41.71875 45.5625 
Q 45.3125 48.734375 45.3125 54.390625 
Q 45.3125 60.0625 41.71875 63.234375 
Q 38.140625 66.40625 31.78125 66.40625 
Q 25.390625 66.40625 21.84375 63.234375 
Q 18.3125 60.0625 18.3125 54.390625 
z
" id="DejaVuSans-56"/>
       </defs>
       <use xlink:href="#DejaVuSans-56"/>
       <use x="63.623047" xlink:href="#DejaVuSans-48"/>
      </g>
     </g>
    </g>
    <g id="xtick_7">
     <g id="line2d_7">
      <g>
       <use style="stroke:#000000;stroke-width:0.8;" x="338.231553" xlink:href="#m7b5c4b8858" y="307.584"/>
      </g>
     </g>
     <g id="text_7">
      <!-- 100 -->
      <g transform="translate(328.687803 322.182437)scale(0.1 -0.1)">
       <defs>
        <path d="M 12.40625 8.296875 
L 28.515625 8.296875 
L 28.515625 63.921875 
L 10.984375 60.40625 
L 10.984375 69.390625 
L 28.421875 72.90625 
L 38.28125 72.90625 
L 38.28125 8.296875 
L 54.390625 8.296875 
L 54.390625 0 
L 12.40625 0 
z
" id="DejaVuSans-49"/>
       </defs>
       <use xlink:href="#DejaVuSans-49"/>
       <use x="63.623047" xlink:href="#DejaVuSans-48"/>
       <use x="127.246094" xlink:href="#DejaVuSans-48"/>
      </g>
     </g>
    </g>
    <g id="xtick_8">
     <g id="line2d_8">
      <g>
       <use style="stroke:#000000;stroke-width:0.8;" x="378.802102" xlink:href="#m7b5c4b8858" y="307.584"/>
      </g>
     </g>
     <g id="text_8">
      <!-- 120 -->
      <g transform="translate(369.258352 322.182437)scale(0.1 -0.1)">
       <use xlink:href="#DejaVuSans-49"/>
       <use x="63.623047" xlink:href="#DejaVuSans-50"/>
       <use x="127.246094" xlink:href="#DejaVuSans-48"/>
      </g>
     </g>
    </g>
   </g>
   <g id="matplotlib.axis_2">
    <g id="ytick_1">
     <g id="line2d_9">
      <defs>
       <path d="M 0 0 
L -3.5 0 
" id="m451862e1f0" style="stroke:#000000;stroke-width:0.8;"/>
      </defs>
      <g>
       <use style="stroke:#000000;stroke-width:0.8;" x="57.6" xlink:href="#m451862e1f0" y="273.142015"/>
      </g>
     </g>
     <g id="text_9">
      <!-- 20 -->
      <g transform="translate(37.875 276.941233)scale(0.1 -0.1)">
       <use xlink:href="#DejaVuSans-50"/>
       <use x="63.623047" xlink:href="#DejaVuSans-48"/>
      </g>
     </g>
    </g>
    <g id="ytick_2">
     <g id="line2d_10">
      <g>
       <use style="stroke:#000000;stroke-width:0.8;" x="57.6" xlink:href="#m451862e1f0" y="232.571467"/>
      </g>
     </g>
     <g id="text_10">
      <!-- 40 -->
      <g transform="translate(37.875 236.370685)scale(0.1 -0.1)">
       <use xlink:href="#DejaVuSans-52"/>
       <use x="63.623047" xlink:href="#DejaVuSans-48"/>
      </g>
     </g>
    </g>
    <g id="ytick_3">
     <g id="line2d_11">
      <g>
       <use style="stroke:#000000;stroke-width:0.8;" x="57.6" xlink:href="#m451862e1f0" y="192.000918"/>
      </g>
     </g>
     <g id="text_11">
      <!-- 60 -->
      <g transform="translate(37.875 195.800137)scale(0.1 -0.1)">
       <use xlink:href="#DejaVuSans-54"/>
       <use x="63.623047" xlink:href="#DejaVuSans-48"/>
      </g>
     </g>
    </g>
    <g id="ytick_4">
     <g id="line2d_12">
      <g>
       <use style="stroke:#000000;stroke-width:0.8;" x="57.6" xlink:href="#m451862e1f0" y="151.43037"/>
      </g>
     </g>
     <g id="text_12">
      <!-- 80 -->
      <g transform="translate(37.875 155.229589)scale(0.1 -0.1)">
       <use xlink:href="#DejaVuSans-56"/>
       <use x="63.623047" xlink:href="#DejaVuSans-48"/>
      </g>
     </g>
    </g>
    <g id="ytick_5">
     <g id="line2d_13">
      <g>
       <use style="stroke:#000000;stroke-width:0.8;" x="57.6" xlink:href="#m451862e1f0" y="110.859822"/>
      </g>
     </g>
     <g id="text_13">
      <!-- 100 -->
      <g transform="translate(31.5125 114.659041)scale(0.1 -0.1)">
       <use xlink:href="#DejaVuSans-49"/>
       <use x="63.623047" xlink:href="#DejaVuSans-48"/>
       <use x="127.246094" xlink:href="#DejaVuSans-48"/>
      </g>
     </g>
    </g>
    <g id="ytick_6">
     <g id="line2d_14">
      <g>
       <use style="stroke:#000000;stroke-width:0.8;" x="57.6" xlink:href="#m451862e1f0" y="70.289274"/>
      </g>
     </g>
     <g id="text_14">
      <!-- 120 -->
      <g transform="translate(31.5125 74.088493)scale(0.1 -0.1)">
       <use xlink:href="#DejaVuSans-49"/>
       <use x="63.623047" xlink:href="#DejaVuSans-50"/>
       <use x="127.246094" xlink:href="#DejaVuSans-48"/>
      </g>
     </g>
    </g>
   </g>
   <g id="line2d_15">
    <path clip-path="url(#pa5f579e499)" d="M 315.611444 293.427289 
L 316.14089 291.410933 
L 316.542538 289.380377 
L 316.824504 287.339678 
L 316.986786 285.292894 
L 317.033442 283.244081 
L 316.790019 279.162684 
L 316.118576 275.129972 
L 315.0394 271.180429 
L 313.57886 267.350569 
L 311.759271 263.676906 
L 309.602946 260.191896 
L 307.1322 256.936109 
L 304.375431 253.939974 
L 301.359011 251.209576 
L 298.131624 248.726659 
L 294.729783 246.466879 
L 291.202174 244.407924 
L 287.58531 242.527479 
L 282.051487 239.981677 
L 276.422323 237.671184 
L 265.038228 233.35245 
L 257.477906 230.400942 
L 251.885256 228.013365 
L 246.381861 225.426993 
L 233.569682 219.290698 
L 227.940518 216.949777 
L 222.205871 214.878651 
L 216.388055 213.093546 
L 210.503297 211.604607 
L 192.680655 207.498868 
L 188.753426 206.306094 
L 184.911395 204.894239 
L 181.203247 203.210561 
L 177.679695 201.206376 
L 176.004131 200.064315 
L 174.39348 198.826913 
L 172.849771 197.494171 
L 169.977376 194.57512 
L 167.407232 191.363961 
L 165.163681 187.913436 
L 163.264979 184.280343 
L 161.719241 180.511339 
L 160.483868 176.63888 
L 159.504089 172.689338 
L 158.723106 168.69111 
L 157.806212 162.652184 
L 156.869032 154.596902 
L 155.966337 144.492807 
L 155.408492 136.364497 
L 155.290838 132.301357 
L 155.357779 128.246331 
L 155.664087 124.209561 
L 156.254388 120.197134 
L 157.114484 116.223249 
L 158.220031 112.298048 
L 159.540603 108.43776 
L 161.049827 104.652528 
L 162.727419 100.952494 
L 164.55918 97.337658 
L 166.541051 93.799907 
L 168.666948 90.333153 
L 172.113416 85.261835 
L 174.588219 81.985763 
L 177.227333 78.857774 
L 180.0551 75.92858 
L 183.091806 73.25701 
L 186.361792 70.897832 
L 189.854916 68.867276 
L 193.538722 67.140999 
L 197.372639 65.700745 
L 201.32421 64.520142 
L 205.354894 63.578905 
L 209.426149 62.852693 
L 213.503489 62.31919 
L 219.550529 61.830315 
L 223.481815 61.678175 
L 223.481815 61.678175 
" style="fill:none;stroke:#fea952;stroke-linecap:square;"/>
   </g>
   <g id="line2d_16">
    <path clip-path="url(#pa5f579e499)" d="M 307.763372 291.366578 
L 308.504791 288.269793 
L 308.874779 285.108165 
L 308.882684 281.899816 
L 308.538837 278.675318 
L 307.855544 275.47285 
L 306.846052 272.322164 
L 305.528876 269.264938 
L 303.921484 266.336338 
L 302.060643 263.59164 
L 299.955499 261.042167 
L 297.582148 258.673796 
L 294.937745 256.459011 
L 292.068723 254.399996 
L 288.981247 252.474911 
L 285.736554 250.685999 
L 280.643806 248.225906 
L 275.304516 245.95997 
L 267.886923 243.090385 
L 254.377851 237.899504 
L 248.508667 235.391537 
L 242.821408 232.718217 
L 230.335264 226.732291 
L 225.058667 224.534875 
L 219.693515 222.594015 
L 214.275104 220.927716 
L 208.712078 219.518539 
L 190.410245 215.288862 
L 186.079366 213.966915 
L 181.708276 212.349358 
L 177.371365 210.362865 
L 175.227122 209.202277 
L 173.109726 207.911162 
L 171.060788 206.498764 
L 169.090988 204.968765 
L 167.217777 203.335353 
L 165.446265 201.61175 
L 163.772257 199.803433 
L 162.192292 197.912317 
L 160.711776 195.947588 
L 159.339106 193.926246 
L 158.063125 191.840379 
L 156.891433 189.70302 
L 154.876242 185.322836 
L 153.291923 180.910408 
L 152.06057 176.507805 
L 151.112451 172.165267 
L 150.052413 165.791357 
L 149.24128 159.526958 
L 148.400989 151.276288 
L 147.557913 140.973046 
L 147.218918 134.494 
L 147.188259 130.037384 
L 147.397886 125.478109 
L 147.918066 120.877178 
L 148.750185 116.361098 
L 149.861069 111.938264 
L 151.213016 107.631239 
L 152.772475 103.439459 
L 154.515655 99.362805 
L 156.425985 95.389677 
L 158.493355 91.5233 
L 160.709749 87.752569 
L 163.068676 84.070684 
L 165.57909 80.451288 
L 168.30896 76.846728 
L 171.287694 73.329713 
L 174.56227 69.956346 
L 178.177749 66.800167 
L 180.11856 65.336402 
L 182.120136 63.98067 
L 186.255391 61.595262 
L 190.544655 59.599492 
L 194.926931 57.963996 
L 199.367481 56.6455 
L 203.827876 55.609778 
L 208.28423 54.819337 
L 212.704891 54.244475 
L 217.041189 53.857968 
L 223.229162 53.568 
L 223.229162 53.568 
" style="fill:none;stroke:#ffffff;stroke-linecap:square;"/>
   </g>
   <g id="line2d_17">
    <path clip-path="url(#pa5f579e499)" d="M 323.459517 295.488 
L 324.100776 292.985415 
L 324.580286 290.49096 
L 324.913229 287.981004 
L 325.098792 285.477623 
L 325.143207 282.978583 
L 325.050317 280.498835 
L 324.82545 278.035469 
L 324.473213 275.60111 
L 323.99606 273.184715 
L 323.399801 270.81118 
L 322.688402 268.472746 
L 321.86552 266.176377 
L 320.933164 263.922307 
L 319.896481 261.719938 
L 318.756398 259.568501 
L 317.519846 257.479722 
L 316.181099 255.441455 
L 314.751587 253.477538 
L 313.236688 251.590644 
L 311.62313 249.762918 
L 308.211121 246.410842 
L 304.599546 243.420426 
L 300.831226 240.7408 
L 296.977081 238.353236 
L 293.06513 236.206805 
L 289.140468 234.271634 
L 283.25959 231.682244 
L 275.510145 228.624239 
L 260.577961 222.90238 
L 255.261845 220.635194 
L 249.942314 218.135769 
L 238.759217 212.73051 
L 232.825817 210.159886 
L 226.760311 207.862342 
L 220.58493 205.859387 
L 214.343026 204.175969 
L 206.280713 202.367698 
L 198.616016 200.654884 
L 193.156286 199.187926 
L 189.741256 198.061276 
L 186.542209 196.770953 
L 183.605107 195.303915 
L 180.947474 193.629866 
L 178.481765 191.652988 
L 176.182496 189.346806 
L 174.102688 186.780333 
L 172.264236 183.986492 
L 170.702847 181.037368 
L 169.403086 177.904176 
L 168.328821 174.566323 
L 167.450523 171.048314 
L 166.728553 167.367629 
L 165.853606 161.61381 
L 164.943991 153.800779 
L 164.054657 143.846387 
L 163.516773 136.056998 
L 163.409645 130.508275 
L 163.557039 126.973725 
L 163.929411 123.521402 
L 164.553774 120.049142 
L 165.414619 116.568833 
L 166.496905 113.086313 
L 167.773327 109.630544 
L 169.22305 106.221932 
L 170.822071 102.880191 
L 172.57239 99.59398 
L 174.465793 96.362234 
L 177.557301 91.618109 
L 179.744046 88.579059 
L 182.008908 85.724359 
L 184.350366 83.106367 
L 186.769393 80.766615 
L 189.274182 78.735271 
L 191.994198 76.951679 
L 194.960217 75.385699 
L 198.151741 74.033757 
L 201.535882 72.890291 
L 205.065701 71.947954 
L 208.709803 71.195066 
L 212.429807 70.619379 
L 216.184987 70.206323 
L 221.780997 69.849206 
L 223.734469 69.78835 
L 223.734469 69.78835 
" style="fill:none;stroke:#ffffff;stroke-linecap:square;"/>
   </g>
   <g id="patch_3">
    <path d="M 57.6 307.584 
L 57.6 41.472 
" style="fill:none;stroke:#000000;stroke-linecap:square;stroke-linejoin:miter;stroke-width:0.8;"/>
   </g>
   <g id="patch_4">
    <path d="M 414.72 307.584 
L 414.72 41.472 
" style="fill:none;stroke:#000000;stroke-linecap:square;stroke-linejoin:miter;stroke-width:0.8;"/>
   </g>
   <g id="patch_5">
    <path d="M 57.6 307.584 
L 414.72 307.584 
" style="fill:none;stroke:#000000;stroke-linecap:square;stroke-linejoin:miter;stroke-width:0.8;"/>
   </g>
   <g id="patch_6">
    <path d="M 57.6 41.472 
L 414.72 41.472 
" style="fill:none;stroke:#000000;stroke-linecap:square;stroke-linejoin:miter;stroke-width:0.8;"/>
   </g>
  </g>
 </g>
 <defs>
  <clipPath id="pa5f579e499">
   <rect height="266.112" width="357.12" x="57.6" y="41.472"/>
  </clipPath>
 </defs>
</svg>
