<?xml version="1.0" encoding="utf-8" standalone="no"?>
<!DOCTYPE svg PUBLIC "-//W3C//DTD SVG 1.1//EN"
  "http://www.w3.org/Graphics/SVG/1.1/DTD/svg11.dtd">
<!-- Created with matplotlib (https://matplotlib.org/) -->
<svg height="345.6pt" version="1.1" viewBox="0 0 460.8 345.6" width="460.8pt" xmlns="http://www.w3.org/2000/svg" xmlns:xlink="http://www.w3.org/1999/xlink">
 <metadata>
  <rdf:RDF xmlns:cc="http://creativecommons.org/ns#" xmlns:dc="http://purl.org/dc/elements/1.1/" xmlns:rdf="http://www.w3.org/1999/02/22-rdf-syntax-ns#">
   <cc:Work>
    <dc:type rdf:resource="http://purl.org/dc/dcmitype/StillImage"/>
    <dc:date>2021-01-25T12:02:21.690327</dc:date>
    <dc:format>image/svg+xml</dc:format>
    <dc:creator>
     <cc:Agent>
      <dc:title>Matplotlib v3.3.3, https://matplotlib.org/</dc:title>
     </cc:Agent>
    </dc:creator>
   </cc:Work>
  </rdf:RDF>
 </metadata>
 <defs>
  <style type="text/css">*{stroke-linecap:butt;stroke-linejoin:round;}</style>
 </defs>
 <g id="figure_1">
  <g id="patch_1">
   <path d="M 0 345.6 
L 460.8 345.6 
L 460.8 0 
L 0 0 
z
" style="fill:#ffffff;"/>
  </g>
  <g id="axes_1">
   <g id="patch_2">
    <path d="M 57.6 307.584 
L 414.72 307.584 
L 414.72 41.472 
L 57.6 41.472 
z
" style="fill:#7d9051;"/>
   </g>
   <g id="matplotlib.axis_1">
    <g id="xtick_1">
     <g id="line2d_1">
      <defs>
       <path d="M 0 0 
L 0 3.5 
" id="m10aec2362b" style="stroke:#000000;stroke-width:0.8;"/>
      </defs>
      <g>
       <use style="stroke:#000000;stroke-width:0.8;" x="81.561782" xlink:href="#m10aec2362b" y="307.584"/>
      </g>
     </g>
     <g id="text_1">
      <!-- 0 -->
      <g transform="translate(78.380532 322.182437)scale(0.1 -0.1)">
       <defs>
        <path d="M 31.78125 66.40625 
Q 24.171875 66.40625 20.328125 58.90625 
Q 16.5 51.421875 16.5 36.375 
Q 16.5 21.390625 20.328125 13.890625 
Q 24.171875 6.390625 31.78125 6.390625 
Q 39.453125 6.390625 43.28125 13.890625 
Q 47.125 21.390625 47.125 36.375 
Q 47.125 51.421875 43.28125 58.90625 
Q 39.453125 66.40625 31.78125 66.40625 
z
M 31.78125 74.21875 
Q 44.046875 74.21875 50.515625 64.515625 
Q 56.984375 54.828125 56.984375 36.375 
Q 56.984375 17.96875 50.515625 8.265625 
Q 44.046875 -1.421875 31.78125 -1.421875 
Q 19.53125 -1.421875 13.0625 8.265625 
Q 6.59375 17.96875 6.59375 36.375 
Q 6.59375 54.828125 13.0625 64.515625 
Q 19.53125 74.21875 31.78125 74.21875 
z
" id="DejaVuSans-48"/>
       </defs>
       <use xlink:href="#DejaVuSans-48"/>
      </g>
     </g>
    </g>
    <g id="xtick_2">
     <g id="line2d_2">
      <g>
       <use style="stroke:#000000;stroke-width:0.8;" x="151.024186" xlink:href="#m10aec2362b" y="307.584"/>
      </g>
     </g>
     <g id="text_2">
      <!-- 20 -->
      <g transform="translate(144.661686 322.182437)scale(0.1 -0.1)">
       <defs>
        <path d="M 19.1875 8.296875 
L 53.609375 8.296875 
L 53.609375 0 
L 7.328125 0 
L 7.328125 8.296875 
Q 12.9375 14.109375 22.625 23.890625 
Q 32.328125 33.6875 34.8125 36.53125 
Q 39.546875 41.84375 41.421875 45.53125 
Q 43.3125 49.21875 43.3125 52.78125 
Q 43.3125 58.59375 39.234375 62.25 
Q 35.15625 65.921875 28.609375 65.921875 
Q 23.96875 65.921875 18.8125 64.3125 
Q 13.671875 62.703125 7.8125 59.421875 
L 7.8125 69.390625 
Q 13.765625 71.78125 18.9375 73 
Q 24.125 74.21875 28.421875 74.21875 
Q 39.75 74.21875 46.484375 68.546875 
Q 53.21875 62.890625 53.21875 53.421875 
Q 53.21875 48.921875 51.53125 44.890625 
Q 49.859375 40.875 45.40625 35.40625 
Q 44.1875 33.984375 37.640625 27.21875 
Q 31.109375 20.453125 19.1875 8.296875 
z
" id="DejaVuSans-50"/>
       </defs>
       <use xlink:href="#DejaVuSans-50"/>
       <use x="63.623047" xlink:href="#DejaVuSans-48"/>
      </g>
     </g>
    </g>
    <g id="xtick_3">
     <g id="line2d_3">
      <g>
       <use style="stroke:#000000;stroke-width:0.8;" x="220.486589" xlink:href="#m10aec2362b" y="307.584"/>
      </g>
     </g>
     <g id="text_3">
      <!-- 40 -->
      <g transform="translate(214.124089 322.182437)scale(0.1 -0.1)">
       <defs>
        <path d="M 37.796875 64.3125 
L 12.890625 25.390625 
L 37.796875 25.390625 
z
M 35.203125 72.90625 
L 47.609375 72.90625 
L 47.609375 25.390625 
L 58.015625 25.390625 
L 58.015625 17.1875 
L 47.609375 17.1875 
L 47.609375 0 
L 37.796875 0 
L 37.796875 17.1875 
L 4.890625 17.1875 
L 4.890625 26.703125 
z
" id="DejaVuSans-52"/>
       </defs>
       <use xlink:href="#DejaVuSans-52"/>
       <use x="63.623047" xlink:href="#DejaVuSans-48"/>
      </g>
     </g>
    </g>
    <g id="xtick_4">
     <g id="line2d_4">
      <g>
       <use style="stroke:#000000;stroke-width:0.8;" x="289.948993" xlink:href="#m10aec2362b" y="307.584"/>
      </g>
     </g>
     <g id="text_4">
      <!-- 60 -->
      <g transform="translate(283.586493 322.182437)scale(0.1 -0.1)">
       <defs>
        <path d="M 33.015625 40.375 
Q 26.375 40.375 22.484375 35.828125 
Q 18.609375 31.296875 18.609375 23.390625 
Q 18.609375 15.53125 22.484375 10.953125 
Q 26.375 6.390625 33.015625 6.390625 
Q 39.65625 6.390625 43.53125 10.953125 
Q 47.40625 15.53125 47.40625 23.390625 
Q 47.40625 31.296875 43.53125 35.828125 
Q 39.65625 40.375 33.015625 40.375 
z
M 52.59375 71.296875 
L 52.59375 62.3125 
Q 48.875 64.0625 45.09375 64.984375 
Q 41.3125 65.921875 37.59375 65.921875 
Q 27.828125 65.921875 22.671875 59.328125 
Q 17.53125 52.734375 16.796875 39.40625 
Q 19.671875 43.65625 24.015625 45.921875 
Q 28.375 48.1875 33.59375 48.1875 
Q 44.578125 48.1875 50.953125 41.515625 
Q 57.328125 34.859375 57.328125 23.390625 
Q 57.328125 12.15625 50.6875 5.359375 
Q 44.046875 -1.421875 33.015625 -1.421875 
Q 20.359375 -1.421875 13.671875 8.265625 
Q 6.984375 17.96875 6.984375 36.375 
Q 6.984375 53.65625 15.1875 63.9375 
Q 23.390625 74.21875 37.203125 74.21875 
Q 40.921875 74.21875 44.703125 73.484375 
Q 48.484375 72.75 52.59375 71.296875 
z
" id="DejaVuSans-54"/>
       </defs>
       <use xlink:href="#DejaVuSans-54"/>
       <use x="63.623047" xlink:href="#DejaVuSans-48"/>
      </g>
     </g>
    </g>
    <g id="xtick_5">
     <g id="line2d_5">
      <g>
       <use style="stroke:#000000;stroke-width:0.8;" x="359.411396" xlink:href="#m10aec2362b" y="307.584"/>
      </g>
     </g>
     <g id="text_5">
      <!-- 80 -->
      <g transform="translate(353.048896 322.182437)scale(0.1 -0.1)">
       <defs>
        <path d="M 31.78125 34.625 
Q 24.75 34.625 20.71875 30.859375 
Q 16.703125 27.09375 16.703125 20.515625 
Q 16.703125 13.921875 20.71875 10.15625 
Q 24.75 6.390625 31.78125 6.390625 
Q 38.8125 6.390625 42.859375 10.171875 
Q 46.921875 13.96875 46.921875 20.515625 
Q 46.921875 27.09375 42.890625 30.859375 
Q 38.875 34.625 31.78125 34.625 
z
M 21.921875 38.8125 
Q 15.578125 40.375 12.03125 44.71875 
Q 8.5 49.078125 8.5 55.328125 
Q 8.5 64.0625 14.71875 69.140625 
Q 20.953125 74.21875 31.78125 74.21875 
Q 42.671875 74.21875 48.875 69.140625 
Q 55.078125 64.0625 55.078125 55.328125 
Q 55.078125 49.078125 51.53125 44.71875 
Q 48 40.375 41.703125 38.8125 
Q 48.828125 37.15625 52.796875 32.3125 
Q 56.78125 27.484375 56.78125 20.515625 
Q 56.78125 9.90625 50.3125 4.234375 
Q 43.84375 -1.421875 31.78125 -1.421875 
Q 19.734375 -1.421875 13.25 4.234375 
Q 6.78125 9.90625 6.78125 20.515625 
Q 6.78125 27.484375 10.78125 32.3125 
Q 14.796875 37.15625 21.921875 38.8125 
z
M 18.3125 54.390625 
Q 18.3125 48.734375 21.84375 45.5625 
Q 25.390625 42.390625 31.78125 42.390625 
Q 38.140625 42.390625 41.71875 45.5625 
Q 45.3125 48.734375 45.3125 54.390625 
Q 45.3125 60.0625 41.71875 63.234375 
Q 38.140625 66.40625 31.78125 66.40625 
Q 25.390625 66.40625 21.84375 63.234375 
Q 18.3125 60.0625 18.3125 54.390625 
z
" id="DejaVuSans-56"/>
       </defs>
       <use xlink:href="#DejaVuSans-56"/>
       <use x="63.623047" xlink:href="#DejaVuSans-48"/>
      </g>
     </g>
    </g>
   </g>
   <g id="matplotlib.axis_2">
    <g id="ytick_1">
     <g id="line2d_6">
      <defs>
       <path d="M 0 0 
L -3.5 0 
" id="m10d9f72629" style="stroke:#000000;stroke-width:0.8;"/>
      </defs>
      <g>
       <use style="stroke:#000000;stroke-width:0.8;" x="57.6" xlink:href="#m10d9f72629" y="281.432283"/>
      </g>
     </g>
     <g id="text_6">
      <!-- 10 -->
      <g transform="translate(37.875 285.231501)scale(0.1 -0.1)">
       <defs>
        <path d="M 12.40625 8.296875 
L 28.515625 8.296875 
L 28.515625 63.921875 
L 10.984375 60.40625 
L 10.984375 69.390625 
L 28.421875 72.90625 
L 38.28125 72.90625 
L 38.28125 8.296875 
L 54.390625 8.296875 
L 54.390625 0 
L 12.40625 0 
z
" id="DejaVuSans-49"/>
       </defs>
       <use xlink:href="#DejaVuSans-49"/>
       <use x="63.623047" xlink:href="#DejaVuSans-48"/>
      </g>
     </g>
    </g>
    <g id="ytick_2">
     <g id="line2d_7">
      <g>
       <use style="stroke:#000000;stroke-width:0.8;" x="57.6" xlink:href="#m10d9f72629" y="246.701081"/>
      </g>
     </g>
     <g id="text_7">
      <!-- 20 -->
      <g transform="translate(37.875 250.5003)scale(0.1 -0.1)">
       <use xlink:href="#DejaVuSans-50"/>
       <use x="63.623047" xlink:href="#DejaVuSans-48"/>
      </g>
     </g>
    </g>
    <g id="ytick_3">
     <g id="line2d_8">
      <g>
       <use style="stroke:#000000;stroke-width:0.8;" x="57.6" xlink:href="#m10d9f72629" y="211.969879"/>
      </g>
     </g>
     <g id="text_8">
      <!-- 30 -->
      <g transform="translate(37.875 215.769098)scale(0.1 -0.1)">
       <defs>
        <path d="M 40.578125 39.3125 
Q 47.65625 37.796875 51.625 33 
Q 55.609375 28.21875 55.609375 21.1875 
Q 55.609375 10.40625 48.1875 4.484375 
Q 40.765625 -1.421875 27.09375 -1.421875 
Q 22.515625 -1.421875 17.65625 -0.515625 
Q 12.796875 0.390625 7.625 2.203125 
L 7.625 11.71875 
Q 11.71875 9.328125 16.59375 8.109375 
Q 21.484375 6.890625 26.8125 6.890625 
Q 36.078125 6.890625 40.9375 10.546875 
Q 45.796875 14.203125 45.796875 21.1875 
Q 45.796875 27.640625 41.28125 31.265625 
Q 36.765625 34.90625 28.71875 34.90625 
L 20.21875 34.90625 
L 20.21875 43.015625 
L 29.109375 43.015625 
Q 36.375 43.015625 40.234375 45.921875 
Q 44.09375 48.828125 44.09375 54.296875 
Q 44.09375 59.90625 40.109375 62.90625 
Q 36.140625 65.921875 28.71875 65.921875 
Q 24.65625 65.921875 20.015625 65.03125 
Q 15.375 64.15625 9.8125 62.3125 
L 9.8125 71.09375 
Q 15.4375 72.65625 20.34375 73.4375 
Q 25.25 74.21875 29.59375 74.21875 
Q 40.828125 74.21875 47.359375 69.109375 
Q 53.90625 64.015625 53.90625 55.328125 
Q 53.90625 49.265625 50.4375 45.09375 
Q 46.96875 40.921875 40.578125 39.3125 
z
" id="DejaVuSans-51"/>
       </defs>
       <use xlink:href="#DejaVuSans-51"/>
       <use x="63.623047" xlink:href="#DejaVuSans-48"/>
      </g>
     </g>
    </g>
    <g id="ytick_4">
     <g id="line2d_9">
      <g>
       <use style="stroke:#000000;stroke-width:0.8;" x="57.6" xlink:href="#m10d9f72629" y="177.238678"/>
      </g>
     </g>
     <g id="text_9">
      <!-- 40 -->
      <g transform="translate(37.875 181.037896)scale(0.1 -0.1)">
       <use xlink:href="#DejaVuSans-52"/>
       <use x="63.623047" xlink:href="#DejaVuSans-48"/>
      </g>
     </g>
    </g>
    <g id="ytick_5">
     <g id="line2d_10">
      <g>
       <use style="stroke:#000000;stroke-width:0.8;" x="57.6" xlink:href="#m10d9f72629" y="142.507476"/>
      </g>
     </g>
     <g id="text_10">
      <!-- 50 -->
      <g transform="translate(37.875 146.306695)scale(0.1 -0.1)">
       <defs>
        <path d="M 10.796875 72.90625 
L 49.515625 72.90625 
L 49.515625 64.59375 
L 19.828125 64.59375 
L 19.828125 46.734375 
Q 21.96875 47.46875 24.109375 47.828125 
Q 26.265625 48.1875 28.421875 48.1875 
Q 40.625 48.1875 47.75 41.5 
Q 54.890625 34.8125 54.890625 23.390625 
Q 54.890625 11.625 47.5625 5.09375 
Q 40.234375 -1.421875 26.90625 -1.421875 
Q 22.3125 -1.421875 17.546875 -0.640625 
Q 12.796875 0.140625 7.71875 1.703125 
L 7.71875 11.625 
Q 12.109375 9.234375 16.796875 8.0625 
Q 21.484375 6.890625 26.703125 6.890625 
Q 35.15625 6.890625 40.078125 11.328125 
Q 45.015625 15.765625 45.015625 23.390625 
Q 45.015625 31 40.078125 35.4375 
Q 35.15625 39.890625 26.703125 39.890625 
Q 22.75 39.890625 18.8125 39.015625 
Q 14.890625 38.140625 10.796875 36.28125 
z
" id="DejaVuSans-53"/>
       </defs>
       <use xlink:href="#DejaVuSans-53"/>
       <use x="63.623047" xlink:href="#DejaVuSans-48"/>
      </g>
     </g>
    </g>
    <g id="ytick_6">
     <g id="line2d_11">
      <g>
       <use style="stroke:#000000;stroke-width:0.8;" x="57.6" xlink:href="#m10d9f72629" y="107.776274"/>
      </g>
     </g>
     <g id="text_11">
      <!-- 60 -->
      <g transform="translate(37.875 111.575493)scale(0.1 -0.1)">
       <use xlink:href="#DejaVuSans-54"/>
       <use x="63.623047" xlink:href="#DejaVuSans-48"/>
      </g>
     </g>
    </g>
    <g id="ytick_7">
     <g id="line2d_12">
      <g>
       <use style="stroke:#000000;stroke-width:0.8;" x="57.6" xlink:href="#m10d9f72629" y="73.045073"/>
      </g>
     </g>
     <g id="text_12">
      <!-- 70 -->
      <g transform="translate(37.875 76.844291)scale(0.1 -0.1)">
       <defs>
        <path d="M 8.203125 72.90625 
L 55.078125 72.90625 
L 55.078125 68.703125 
L 28.609375 0 
L 18.3125 0 
L 43.21875 64.59375 
L 8.203125 64.59375 
z
" id="DejaVuSans-55"/>
       </defs>
       <use xlink:href="#DejaVuSans-55"/>
       <use x="63.623047" xlink:href="#DejaVuSans-48"/>
      </g>
     </g>
    </g>
   </g>
   <g id="line2d_13">
    <path clip-path="url(#pea32ffc1d4)" d="M 355.528448 170.011115 
L 356.007738 156.39301 
L 356.08762 149.394673 
L 355.962588 142.340766 
L 355.556233 135.279913 
L 354.792146 128.26421 
L 354.253813 124.79109 
L 353.59392 121.349228 
L 352.808995 117.942097 
L 351.888618 114.58359 
L 350.82237 111.273706 
L 349.599831 108.019393 
L 348.210583 104.831068 
L 346.647679 101.708733 
L 344.904173 98.669753 
L 342.987011 95.714128 
L 340.903139 92.866169 
L 338.659503 90.129351 
L 336.269996 87.521037 
L 333.741565 85.055122 
L 331.081155 82.738551 
L 328.299185 80.58869 
L 325.402603 78.61943 
L 322.405301 76.841193 
L 319.31075 75.260923 
L 316.129372 73.871675 
L 312.875059 72.663029 
L 309.554756 71.614147 
L 306.178883 70.718082 
L 302.75786 69.960942 
L 299.298632 69.325361 
L 292.314187 68.377199 
L 285.301958 67.769403 
L 278.310567 67.474188 
L 271.343488 67.536704 
L 267.873841 67.713833 
L 264.414613 68.002102 
L 260.969278 68.401511 
L 257.530889 68.919006 
L 254.109866 69.565006 
L 250.702735 70.339512 
L 247.319916 71.242523 
L 243.968355 72.277513 
L 240.658471 73.444481 
L 237.400684 74.739955 
L 234.198468 76.163934 
L 231.06224 77.719892 
L 228.002421 79.404356 
L 225.02943 81.213851 
L 222.150214 83.155325 
L 219.368245 85.221832 
L 216.673103 87.399478 
L 211.5051 92.022201 
L 206.535066 96.898462 
L 191.795144 111.732158 
L 184.175118 118.838162 
L 158.557383 142.285196 
L 153.608187 147.161457 
L 148.784023 152.166223 
L 144.119623 157.320333 
L 139.646244 162.644627 
L 135.412511 168.163415 
L 131.456627 173.887117 
L 127.82027 179.840045 
L 126.13928 182.90681 
L 124.552064 186.036091 
L 123.072515 189.224415 
L 121.711052 192.464836 
L 120.478094 195.750408 
L 119.377115 199.084603 
L 118.428953 202.45353 
L 117.633609 205.857188 
L 117.004974 209.288631 
L 116.556941 212.740912 
L 116.292984 216.214032 
L 116.223522 219.697572 
L 116.352027 223.188057 
L 116.668081 226.668124 
L 117.175157 230.137771 
L 117.869781 233.579633 
L 118.745007 236.983291 
L 119.800836 240.348744 
L 121.033793 243.655155 
L 122.44388 246.902522 
L 124.02415 250.073481 
L 125.774602 253.164558 
L 127.688291 256.158387 
L 129.758271 259.041077 
L 131.981068 261.802207 
L 134.349736 264.424413 
L 136.860802 266.897275 
L 139.503846 269.2069 
L 142.278869 271.339395 
L 145.178925 273.28087 
L 148.193593 275.013957 
L 151.322874 276.535183 
L 154.549403 277.84455 
L 157.859286 278.949002 
L 161.245579 279.852013 
L 164.687441 280.564003 
L 168.177926 281.084971 
L 171.69967 281.42881 
L 175.242253 281.595519 
L 178.788308 281.595519 
L 182.327418 281.432283 
L 185.845689 281.112756 
L 189.339648 280.633465 
L 192.795402 279.997884 
L 196.212952 279.20254 
L 199.578406 278.240485 
L 202.888289 277.118667 
L 206.13913 275.826667 
L 209.317035 274.371429 
L 212.418531 272.746009 
L 215.436672 270.946933 
L 218.364513 268.981147 
L 221.188159 266.848651 
L 223.89372 264.559865 
L 226.463829 262.121735 
L 228.884594 259.541206 
L 231.149068 256.828699 
L 233.23294 253.99116 
L 235.129264 251.035535 
L 236.824146 247.96877 
L 238.296749 244.797811 
L 239.540126 241.536551 
L 240.557751 238.19541 
L 241.349622 234.784806 
L 241.919214 231.318632 
L 242.273472 227.814254 
L 242.41587 224.285563 
L 242.346408 220.739508 
L 242.075504 217.196925 
L 241.60316 213.668235 
L 240.932848 210.16733 
L 240.071514 206.708102 
L 239.019158 203.304444 
L 237.786201 199.970249 
L 236.369168 196.715936 
L 234.775006 193.558869 
L 233.007187 190.50947 
L 231.072659 187.585103 
L 228.971422 184.796187 
L 226.710421 182.160089 
L 224.289656 179.683754 
L 224.289656 179.683754 
" style="fill:none;stroke:#fea952;stroke-linecap:square;"/>
   </g>
   <g id="line2d_14">
    <path clip-path="url(#pea32ffc1d4)" d="M 341.647369 169.448368 
L 342.11749 156.143982 
L 342.195686 149.517974 
L 342.084919 142.982114 
L 341.725719 136.590603 
L 341.063601 130.392135 
L 340.056047 124.468045 
L 339.410518 121.613861 
L 338.665325 118.843349 
L 337.817289 116.159286 
L 336.863869 113.568832 
L 335.787536 111.049501 
L 334.597511 108.622087 
L 333.24892 106.229918 
L 331.775357 103.917777 
L 330.159461 101.673803 
L 328.415773 99.513753 
L 326.570253 97.46669 
L 324.618506 95.532279 
L 322.586242 93.731161 
L 320.488435 92.077519 
L 318.314112 90.567414 
L 316.087083 89.21379 
L 313.751133 87.992446 
L 311.292547 86.894967 
L 308.690271 85.910239 
L 305.990662 85.041665 
L 303.176847 84.282329 
L 300.24735 83.624703 
L 294.132361 82.594586 
L 287.74923 81.889037 
L 281.376631 81.467744 
L 275.14236 81.345644 
L 269.027549 81.558326 
L 263.03688 82.139271 
L 257.189329 83.111885 
L 251.419028 84.516494 
L 248.587737 85.37951 
L 245.791897 86.35374 
L 243.04551 87.433929 
L 240.372755 88.608982 
L 237.762059 89.890079 
L 235.225334 91.27156 
L 232.796407 92.732319 
L 230.434377 94.307619 
L 228.09935 96.027794 
L 225.782844 97.888217 
L 221.146568 102.024357 
L 216.441194 106.638566 
L 203.944192 119.313806 
L 196.128893 126.721995 
L 185.7391 136.153644 
L 173.110081 147.636936 
L 165.876719 154.546786 
L 161.24731 159.218475 
L 156.811852 163.952963 
L 152.579845 168.794858 
L 148.620346 173.700139 
L 144.932491 178.735615 
L 141.556265 183.90191 
L 138.529133 189.191119 
L 135.880447 194.605669 
L 134.717856 197.345825 
L 133.669974 200.106477 
L 132.750051 202.848327 
L 131.957004 205.614677 
L 131.298671 208.360605 
L 130.78192 211.076584 
L 130.409473 213.793704 
L 130.182704 216.490996 
L 130.106597 219.186453 
L 130.187567 221.931536 
L 130.414534 224.659133 
L 130.793077 227.389452 
L 131.32455 230.119835 
L 132.000469 232.824715 
L 132.817739 235.494752 
L 133.77677 238.121841 
L 134.877853 240.705964 
L 136.112858 243.22774 
L 137.480032 245.682317 
L 138.972823 248.055278 
L 140.579865 250.329354 
L 142.290276 252.489783 
L 144.097615 254.525935 
L 146.00225 256.436159 
L 147.96891 258.191287 
L 150.00735 259.795063 
L 152.102882 261.236791 
L 154.26744 262.519582 
L 156.546853 263.662302 
L 158.946739 264.666369 
L 161.43886 265.525602 
L 164.059819 266.247563 
L 166.738229 266.823723 
L 169.527874 267.258234 
L 172.352711 267.551686 
L 175.242253 267.703039 
L 178.148217 267.717792 
L 181.070883 267.596744 
L 183.957642 267.34917 
L 186.826697 266.970153 
L 189.646444 266.46699 
L 192.394574 265.845107 
L 195.119003 265.083177 
L 197.757301 264.20844 
L 200.355041 263.195541 
L 202.868252 262.066381 
L 205.305269 260.812756 
L 207.692664 259.413011 
L 209.991981 257.895042 
L 212.21564 256.242289 
L 214.332443 254.481026 
L 216.331725 252.616921 
L 218.219934 250.638058 
L 219.951769 248.605469 
L 221.540193 246.489115 
L 222.970141 244.315657 
L 224.224107 242.117273 
L 225.315711 239.848704 
L 226.25039 237.488846 
L 227.025233 235.05344 
L 227.641002 232.532086 
L 228.097179 229.92136 
L 228.392289 227.254088 
L 228.526054 224.557646 
L 228.494369 221.798781 
L 228.305838 219.040109 
L 227.958535 216.280748 
L 227.451983 213.524011 
L 226.798949 210.811763 
L 225.989048 208.122871 
L 225.04885 205.516502 
L 223.968009 202.977907 
L 222.756151 200.52652 
L 221.420497 198.1743 
L 219.976941 195.94489 
L 218.426407 193.840726 
L 216.776121 191.871459 
L 214.355356 189.395124 
L 214.355356 189.395124 
" style="fill:none;stroke:#ffffff;stroke-linecap:square;"/>
   </g>
   <g id="line2d_15">
    <path clip-path="url(#pea32ffc1d4)" d="M 369.409526 170.573861 
L 369.897987 156.642039 
L 369.979553 149.271372 
L 369.840256 141.699419 
L 369.386746 133.969223 
L 369.011151 130.063773 
L 368.520691 126.136286 
L 367.897789 122.175191 
L 367.131793 118.230411 
L 366.207471 114.270333 
L 365.11191 110.32383 
L 363.827451 106.388126 
L 362.335794 102.469954 
L 360.633631 98.612635 
L 358.697848 94.79538 
L 356.559426 91.109589 
L 354.198664 87.510479 
L 351.646816 84.058535 
L 348.903233 80.744948 
L 345.96974 77.575385 
L 342.864624 74.577966 
L 339.576068 71.745941 
L 336.109936 69.099861 
L 332.491094 66.671447 
L 328.723518 64.468596 
L 324.870368 62.5294 
L 320.966198 60.848383 
L 317.059847 59.41582 
L 313.11885 58.186629 
L 309.18092 57.153835 
L 305.26837 56.297181 
L 301.35342 55.585679 
L 293.65587 54.549657 
L 286.045868 53.896854 
L 278.379752 53.581879 
L 270.635185 53.662291 
L 266.720133 53.86934 
L 262.814808 54.202043 
L 258.901676 54.663751 
L 254.953094 55.267779 
L 251.030402 56.018127 
L 247.119731 56.917027 
L 243.220803 57.968552 
L 239.348973 59.175516 
L 235.525045 60.535223 
L 231.755859 62.045982 
L 228.024181 63.718887 
L 224.362421 65.549706 
L 220.779508 67.537151 
L 217.262454 69.695384 
L 213.86605 72.003032 
L 210.637139 74.41587 
L 207.563362 76.91074 
L 201.863633 82.020045 
L 196.628937 87.158358 
L 182.239123 101.648335 
L 174.82795 108.560444 
L 151.469753 129.842061 
L 146.257593 134.872082 
L 141.106697 140.077947 
L 136.046644 145.491916 
L 131.137399 151.124951 
L 126.37242 157.055805 
L 121.856764 163.259346 
L 117.633803 169.769681 
L 115.637857 173.162482 
L 113.749426 176.6225 
L 111.950336 180.18823 
L 110.264582 183.843162 
L 108.704247 187.583847 
L 107.286214 191.39434 
L 106.004179 195.32088 
L 104.900902 199.292383 
L 103.968546 203.353771 
L 103.228028 207.500677 
L 102.704409 211.68812 
L 102.403265 215.937069 
L 102.340447 220.20869 
L 102.516487 224.444579 
L 102.921628 228.677115 
L 103.557236 232.88609 
L 104.415011 237.039431 
L 105.489545 241.141867 
L 106.783932 245.202737 
L 108.290816 249.188469 
L 110.009907 253.09908 
L 111.935442 256.919221 
L 114.069172 260.646799 
L 116.40376 264.261496 
L 118.936677 267.7528 
L 121.67186 271.114632 
L 124.601857 274.322892 
L 127.719354 277.358391 
L 131.038782 280.222512 
L 134.550388 282.883727 
L 138.254967 285.324948 
L 142.119746 287.508331 
L 146.098896 289.408064 
L 150.152066 291.02273 
L 154.279713 292.372402 
L 158.431338 293.456463 
L 162.636653 294.304282 
L 166.827979 294.911708 
L 171.046629 295.305933 
L 175.242253 295.488 
L 179.4284 295.473246 
L 183.583953 295.267822 
L 187.733735 294.876342 
L 191.852598 294.296777 
L 195.94436 293.528778 
L 200.031331 292.559972 
L 204.037808 291.397793 
L 208.019277 290.028895 
L 211.923219 288.457792 
L 215.765817 286.676478 
L 219.531793 284.679262 
L 223.180681 282.480854 
L 226.737045 280.067252 
L 230.160679 277.455013 
L 233.454997 274.638704 
L 236.595933 271.626548 
L 239.549254 268.444354 
L 242.346367 265.05193 
L 244.925688 261.493205 
L 247.288387 257.755413 
L 249.424186 253.820267 
L 251.277788 249.746918 
L 252.829863 245.584257 
L 254.090269 241.337379 
L 255.058243 237.037525 
L 255.741249 232.715904 
L 256.154655 228.374419 
L 256.305686 224.013481 
L 256.198446 219.680234 
L 255.84517 215.353742 
L 255.247785 211.055723 
L 254.413712 206.810649 
L 253.344079 202.604442 
L 252.049269 198.486018 
L 250.523551 194.423996 
L 248.770326 190.453964 
L 246.79386 186.591219 
L 244.593878 182.84464 
L 242.168378 179.225315 
L 239.516437 175.751649 
L 236.64472 172.448719 
L 234.223955 169.972384 
L 234.223955 169.972384 
" style="fill:none;stroke:#ffffff;stroke-linecap:square;"/>
   </g>
   <g id="patch_3">
    <path d="M 57.6 307.584 
L 57.6 41.472 
" style="fill:none;stroke:#000000;stroke-linecap:square;stroke-linejoin:miter;stroke-width:0.8;"/>
   </g>
   <g id="patch_4">
    <path d="M 414.72 307.584 
L 414.72 41.472 
" style="fill:none;stroke:#000000;stroke-linecap:square;stroke-linejoin:miter;stroke-width:0.8;"/>
   </g>
   <g id="patch_5">
    <path d="M 57.6 307.584 
L 414.72 307.584 
" style="fill:none;stroke:#000000;stroke-linecap:square;stroke-linejoin:miter;stroke-width:0.8;"/>
   </g>
   <g id="patch_6">
    <path d="M 57.6 41.472 
L 414.72 41.472 
" style="fill:none;stroke:#000000;stroke-linecap:square;stroke-linejoin:miter;stroke-width:0.8;"/>
   </g>
  </g>
 </g>
 <defs>
  <clipPath id="pea32ffc1d4">
   <rect height="266.112" width="357.12" x="57.6" y="41.472"/>
  </clipPath>
 </defs>
</svg>
