<?xml version="1.0" encoding="utf-8" standalone="no"?>
<!DOCTYPE svg PUBLIC "-//W3C//DTD SVG 1.1//EN"
  "http://www.w3.org/Graphics/SVG/1.1/DTD/svg11.dtd">
<!-- Created with matplotlib (https://matplotlib.org/) -->
<svg height="345.6pt" version="1.1" viewBox="0 0 460.8 345.6" width="460.8pt" xmlns="http://www.w3.org/2000/svg" xmlns:xlink="http://www.w3.org/1999/xlink">
 <metadata>
  <rdf:RDF xmlns:cc="http://creativecommons.org/ns#" xmlns:dc="http://purl.org/dc/elements/1.1/" xmlns:rdf="http://www.w3.org/1999/02/22-rdf-syntax-ns#">
   <cc:Work>
    <dc:type rdf:resource="http://purl.org/dc/dcmitype/StillImage"/>
    <dc:date>2021-01-23T12:02:53.841575</dc:date>
    <dc:format>image/svg+xml</dc:format>
    <dc:creator>
     <cc:Agent>
      <dc:title>Matplotlib v3.3.3, https://matplotlib.org/</dc:title>
     </cc:Agent>
    </dc:creator>
   </cc:Work>
  </rdf:RDF>
 </metadata>
 <defs>
  <style type="text/css">*{stroke-linecap:butt;stroke-linejoin:round;}</style>
 </defs>
 <g id="figure_1">
  <g id="patch_1">
   <path d="M 0 345.6 
L 460.8 345.6 
L 460.8 0 
L 0 0 
z
" style="fill:#ffffff;"/>
  </g>
  <g id="axes_1">
   <g id="patch_2">
    <path d="M 57.6 307.584 
L 414.72 307.584 
L 414.72 41.472 
L 57.6 41.472 
z
" style="fill:#7d9051;"/>
   </g>
   <g id="matplotlib.axis_1">
    <g id="xtick_1">
     <g id="line2d_1">
      <defs>
       <path d="M 0 0 
L 0 3.5 
" id="m3b0eefbbfe" style="stroke:#000000;stroke-width:0.8;"/>
      </defs>
      <g>
       <use style="stroke:#000000;stroke-width:0.8;" x="86.313498" xlink:href="#m3b0eefbbfe" y="307.584"/>
      </g>
     </g>
     <g id="text_1">
      <!-- −50 -->
      <g transform="translate(75.761154 322.182437)scale(0.1 -0.1)">
       <defs>
        <path d="M 10.59375 35.5 
L 73.1875 35.5 
L 73.1875 27.203125 
L 10.59375 27.203125 
z
" id="DejaVuSans-8722"/>
        <path d="M 10.796875 72.90625 
L 49.515625 72.90625 
L 49.515625 64.59375 
L 19.828125 64.59375 
L 19.828125 46.734375 
Q 21.96875 47.46875 24.109375 47.828125 
Q 26.265625 48.1875 28.421875 48.1875 
Q 40.625 48.1875 47.75 41.5 
Q 54.890625 34.8125 54.890625 23.390625 
Q 54.890625 11.625 47.5625 5.09375 
Q 40.234375 -1.421875 26.90625 -1.421875 
Q 22.3125 -1.421875 17.546875 -0.640625 
Q 12.796875 0.140625 7.71875 1.703125 
L 7.71875 11.625 
Q 12.109375 9.234375 16.796875 8.0625 
Q 21.484375 6.890625 26.703125 6.890625 
Q 35.15625 6.890625 40.078125 11.328125 
Q 45.015625 15.765625 45.015625 23.390625 
Q 45.015625 31 40.078125 35.4375 
Q 35.15625 39.890625 26.703125 39.890625 
Q 22.75 39.890625 18.8125 39.015625 
Q 14.890625 38.140625 10.796875 36.28125 
z
" id="DejaVuSans-53"/>
        <path d="M 31.78125 66.40625 
Q 24.171875 66.40625 20.328125 58.90625 
Q 16.5 51.421875 16.5 36.375 
Q 16.5 21.390625 20.328125 13.890625 
Q 24.171875 6.390625 31.78125 6.390625 
Q 39.453125 6.390625 43.28125 13.890625 
Q 47.125 21.390625 47.125 36.375 
Q 47.125 51.421875 43.28125 58.90625 
Q 39.453125 66.40625 31.78125 66.40625 
z
M 31.78125 74.21875 
Q 44.046875 74.21875 50.515625 64.515625 
Q 56.984375 54.828125 56.984375 36.375 
Q 56.984375 17.96875 50.515625 8.265625 
Q 44.046875 -1.421875 31.78125 -1.421875 
Q 19.53125 -1.421875 13.0625 8.265625 
Q 6.59375 17.96875 6.59375 36.375 
Q 6.59375 54.828125 13.0625 64.515625 
Q 19.53125 74.21875 31.78125 74.21875 
z
" id="DejaVuSans-48"/>
       </defs>
       <use xlink:href="#DejaVuSans-8722"/>
       <use x="83.789062" xlink:href="#DejaVuSans-53"/>
       <use x="147.412109" xlink:href="#DejaVuSans-48"/>
      </g>
     </g>
    </g>
    <g id="xtick_2">
     <g id="line2d_2">
      <g>
       <use style="stroke:#000000;stroke-width:0.8;" x="133.14771" xlink:href="#m3b0eefbbfe" y="307.584"/>
      </g>
     </g>
     <g id="text_2">
      <!-- −25 -->
      <g transform="translate(122.595366 322.182437)scale(0.1 -0.1)">
       <defs>
        <path d="M 19.1875 8.296875 
L 53.609375 8.296875 
L 53.609375 0 
L 7.328125 0 
L 7.328125 8.296875 
Q 12.9375 14.109375 22.625 23.890625 
Q 32.328125 33.6875 34.8125 36.53125 
Q 39.546875 41.84375 41.421875 45.53125 
Q 43.3125 49.21875 43.3125 52.78125 
Q 43.3125 58.59375 39.234375 62.25 
Q 35.15625 65.921875 28.609375 65.921875 
Q 23.96875 65.921875 18.8125 64.3125 
Q 13.671875 62.703125 7.8125 59.421875 
L 7.8125 69.390625 
Q 13.765625 71.78125 18.9375 73 
Q 24.125 74.21875 28.421875 74.21875 
Q 39.75 74.21875 46.484375 68.546875 
Q 53.21875 62.890625 53.21875 53.421875 
Q 53.21875 48.921875 51.53125 44.890625 
Q 49.859375 40.875 45.40625 35.40625 
Q 44.1875 33.984375 37.640625 27.21875 
Q 31.109375 20.453125 19.1875 8.296875 
z
" id="DejaVuSans-50"/>
       </defs>
       <use xlink:href="#DejaVuSans-8722"/>
       <use x="83.789062" xlink:href="#DejaVuSans-50"/>
       <use x="147.412109" xlink:href="#DejaVuSans-53"/>
      </g>
     </g>
    </g>
    <g id="xtick_3">
     <g id="line2d_3">
      <g>
       <use style="stroke:#000000;stroke-width:0.8;" x="179.981922" xlink:href="#m3b0eefbbfe" y="307.584"/>
      </g>
     </g>
     <g id="text_3">
      <!-- 0 -->
      <g transform="translate(176.800672 322.182437)scale(0.1 -0.1)">
       <use xlink:href="#DejaVuSans-48"/>
      </g>
     </g>
    </g>
    <g id="xtick_4">
     <g id="line2d_4">
      <g>
       <use style="stroke:#000000;stroke-width:0.8;" x="226.816134" xlink:href="#m3b0eefbbfe" y="307.584"/>
      </g>
     </g>
     <g id="text_4">
      <!-- 25 -->
      <g transform="translate(220.453634 322.182437)scale(0.1 -0.1)">
       <use xlink:href="#DejaVuSans-50"/>
       <use x="63.623047" xlink:href="#DejaVuSans-53"/>
      </g>
     </g>
    </g>
    <g id="xtick_5">
     <g id="line2d_5">
      <g>
       <use style="stroke:#000000;stroke-width:0.8;" x="273.650346" xlink:href="#m3b0eefbbfe" y="307.584"/>
      </g>
     </g>
     <g id="text_5">
      <!-- 50 -->
      <g transform="translate(267.287846 322.182437)scale(0.1 -0.1)">
       <use xlink:href="#DejaVuSans-53"/>
       <use x="63.623047" xlink:href="#DejaVuSans-48"/>
      </g>
     </g>
    </g>
    <g id="xtick_6">
     <g id="line2d_6">
      <g>
       <use style="stroke:#000000;stroke-width:0.8;" x="320.484558" xlink:href="#m3b0eefbbfe" y="307.584"/>
      </g>
     </g>
     <g id="text_6">
      <!-- 75 -->
      <g transform="translate(314.122058 322.182437)scale(0.1 -0.1)">
       <defs>
        <path d="M 8.203125 72.90625 
L 55.078125 72.90625 
L 55.078125 68.703125 
L 28.609375 0 
L 18.3125 0 
L 43.21875 64.59375 
L 8.203125 64.59375 
z
" id="DejaVuSans-55"/>
       </defs>
       <use xlink:href="#DejaVuSans-55"/>
       <use x="63.623047" xlink:href="#DejaVuSans-53"/>
      </g>
     </g>
    </g>
    <g id="xtick_7">
     <g id="line2d_7">
      <g>
       <use style="stroke:#000000;stroke-width:0.8;" x="367.31877" xlink:href="#m3b0eefbbfe" y="307.584"/>
      </g>
     </g>
     <g id="text_7">
      <!-- 100 -->
      <g transform="translate(357.77502 322.182437)scale(0.1 -0.1)">
       <defs>
        <path d="M 12.40625 8.296875 
L 28.515625 8.296875 
L 28.515625 63.921875 
L 10.984375 60.40625 
L 10.984375 69.390625 
L 28.421875 72.90625 
L 38.28125 72.90625 
L 38.28125 8.296875 
L 54.390625 8.296875 
L 54.390625 0 
L 12.40625 0 
z
" id="DejaVuSans-49"/>
       </defs>
       <use xlink:href="#DejaVuSans-49"/>
       <use x="63.623047" xlink:href="#DejaVuSans-48"/>
       <use x="127.246094" xlink:href="#DejaVuSans-48"/>
      </g>
     </g>
    </g>
    <g id="xtick_8">
     <g id="line2d_8">
      <g>
       <use style="stroke:#000000;stroke-width:0.8;" x="414.152982" xlink:href="#m3b0eefbbfe" y="307.584"/>
      </g>
     </g>
     <g id="text_8">
      <!-- 125 -->
      <g transform="translate(404.609232 322.182437)scale(0.1 -0.1)">
       <use xlink:href="#DejaVuSans-49"/>
       <use x="63.623047" xlink:href="#DejaVuSans-50"/>
       <use x="127.246094" xlink:href="#DejaVuSans-53"/>
      </g>
     </g>
    </g>
   </g>
   <g id="matplotlib.axis_2">
    <g id="ytick_1">
     <g id="line2d_9">
      <defs>
       <path d="M 0 0 
L -3.5 0 
" id="mcf35e91a33" style="stroke:#000000;stroke-width:0.8;"/>
      </defs>
      <g>
       <use style="stroke:#000000;stroke-width:0.8;" x="57.6" xlink:href="#mcf35e91a33" y="275.940603"/>
      </g>
     </g>
     <g id="text_9">
      <!-- 20 -->
      <g transform="translate(37.875 279.739822)scale(0.1 -0.1)">
       <use xlink:href="#DejaVuSans-50"/>
       <use x="63.623047" xlink:href="#DejaVuSans-48"/>
      </g>
     </g>
    </g>
    <g id="ytick_2">
     <g id="line2d_10">
      <g>
       <use style="stroke:#000000;stroke-width:0.8;" x="57.6" xlink:href="#mcf35e91a33" y="238.473234"/>
      </g>
     </g>
     <g id="text_10">
      <!-- 40 -->
      <g transform="translate(37.875 242.272452)scale(0.1 -0.1)">
       <defs>
        <path d="M 37.796875 64.3125 
L 12.890625 25.390625 
L 37.796875 25.390625 
z
M 35.203125 72.90625 
L 47.609375 72.90625 
L 47.609375 25.390625 
L 58.015625 25.390625 
L 58.015625 17.1875 
L 47.609375 17.1875 
L 47.609375 0 
L 37.796875 0 
L 37.796875 17.1875 
L 4.890625 17.1875 
L 4.890625 26.703125 
z
" id="DejaVuSans-52"/>
       </defs>
       <use xlink:href="#DejaVuSans-52"/>
       <use x="63.623047" xlink:href="#DejaVuSans-48"/>
      </g>
     </g>
    </g>
    <g id="ytick_3">
     <g id="line2d_11">
      <g>
       <use style="stroke:#000000;stroke-width:0.8;" x="57.6" xlink:href="#mcf35e91a33" y="201.005864"/>
      </g>
     </g>
     <g id="text_11">
      <!-- 60 -->
      <g transform="translate(37.875 204.805083)scale(0.1 -0.1)">
       <defs>
        <path d="M 33.015625 40.375 
Q 26.375 40.375 22.484375 35.828125 
Q 18.609375 31.296875 18.609375 23.390625 
Q 18.609375 15.53125 22.484375 10.953125 
Q 26.375 6.390625 33.015625 6.390625 
Q 39.65625 6.390625 43.53125 10.953125 
Q 47.40625 15.53125 47.40625 23.390625 
Q 47.40625 31.296875 43.53125 35.828125 
Q 39.65625 40.375 33.015625 40.375 
z
M 52.59375 71.296875 
L 52.59375 62.3125 
Q 48.875 64.0625 45.09375 64.984375 
Q 41.3125 65.921875 37.59375 65.921875 
Q 27.828125 65.921875 22.671875 59.328125 
Q 17.53125 52.734375 16.796875 39.40625 
Q 19.671875 43.65625 24.015625 45.921875 
Q 28.375 48.1875 33.59375 48.1875 
Q 44.578125 48.1875 50.953125 41.515625 
Q 57.328125 34.859375 57.328125 23.390625 
Q 57.328125 12.15625 50.6875 5.359375 
Q 44.046875 -1.421875 33.015625 -1.421875 
Q 20.359375 -1.421875 13.671875 8.265625 
Q 6.984375 17.96875 6.984375 36.375 
Q 6.984375 53.65625 15.1875 63.9375 
Q 23.390625 74.21875 37.203125 74.21875 
Q 40.921875 74.21875 44.703125 73.484375 
Q 48.484375 72.75 52.59375 71.296875 
z
" id="DejaVuSans-54"/>
       </defs>
       <use xlink:href="#DejaVuSans-54"/>
       <use x="63.623047" xlink:href="#DejaVuSans-48"/>
      </g>
     </g>
    </g>
    <g id="ytick_4">
     <g id="line2d_12">
      <g>
       <use style="stroke:#000000;stroke-width:0.8;" x="57.6" xlink:href="#mcf35e91a33" y="163.538495"/>
      </g>
     </g>
     <g id="text_12">
      <!-- 80 -->
      <g transform="translate(37.875 167.337713)scale(0.1 -0.1)">
       <defs>
        <path d="M 31.78125 34.625 
Q 24.75 34.625 20.71875 30.859375 
Q 16.703125 27.09375 16.703125 20.515625 
Q 16.703125 13.921875 20.71875 10.15625 
Q 24.75 6.390625 31.78125 6.390625 
Q 38.8125 6.390625 42.859375 10.171875 
Q 46.921875 13.96875 46.921875 20.515625 
Q 46.921875 27.09375 42.890625 30.859375 
Q 38.875 34.625 31.78125 34.625 
z
M 21.921875 38.8125 
Q 15.578125 40.375 12.03125 44.71875 
Q 8.5 49.078125 8.5 55.328125 
Q 8.5 64.0625 14.71875 69.140625 
Q 20.953125 74.21875 31.78125 74.21875 
Q 42.671875 74.21875 48.875 69.140625 
Q 55.078125 64.0625 55.078125 55.328125 
Q 55.078125 49.078125 51.53125 44.71875 
Q 48 40.375 41.703125 38.8125 
Q 48.828125 37.15625 52.796875 32.3125 
Q 56.78125 27.484375 56.78125 20.515625 
Q 56.78125 9.90625 50.3125 4.234375 
Q 43.84375 -1.421875 31.78125 -1.421875 
Q 19.734375 -1.421875 13.25 4.234375 
Q 6.78125 9.90625 6.78125 20.515625 
Q 6.78125 27.484375 10.78125 32.3125 
Q 14.796875 37.15625 21.921875 38.8125 
z
M 18.3125 54.390625 
Q 18.3125 48.734375 21.84375 45.5625 
Q 25.390625 42.390625 31.78125 42.390625 
Q 38.140625 42.390625 41.71875 45.5625 
Q 45.3125 48.734375 45.3125 54.390625 
Q 45.3125 60.0625 41.71875 63.234375 
Q 38.140625 66.40625 31.78125 66.40625 
Q 25.390625 66.40625 21.84375 63.234375 
Q 18.3125 60.0625 18.3125 54.390625 
z
" id="DejaVuSans-56"/>
       </defs>
       <use xlink:href="#DejaVuSans-56"/>
       <use x="63.623047" xlink:href="#DejaVuSans-48"/>
      </g>
     </g>
    </g>
    <g id="ytick_5">
     <g id="line2d_13">
      <g>
       <use style="stroke:#000000;stroke-width:0.8;" x="57.6" xlink:href="#mcf35e91a33" y="126.071125"/>
      </g>
     </g>
     <g id="text_13">
      <!-- 100 -->
      <g transform="translate(31.5125 129.870344)scale(0.1 -0.1)">
       <use xlink:href="#DejaVuSans-49"/>
       <use x="63.623047" xlink:href="#DejaVuSans-48"/>
       <use x="127.246094" xlink:href="#DejaVuSans-48"/>
      </g>
     </g>
    </g>
    <g id="ytick_6">
     <g id="line2d_14">
      <g>
       <use style="stroke:#000000;stroke-width:0.8;" x="57.6" xlink:href="#mcf35e91a33" y="88.603755"/>
      </g>
     </g>
     <g id="text_14">
      <!-- 120 -->
      <g transform="translate(31.5125 92.402974)scale(0.1 -0.1)">
       <use xlink:href="#DejaVuSans-49"/>
       <use x="63.623047" xlink:href="#DejaVuSans-50"/>
       <use x="127.246094" xlink:href="#DejaVuSans-48"/>
      </g>
     </g>
    </g>
    <g id="ytick_7">
     <g id="line2d_15">
      <g>
       <use style="stroke:#000000;stroke-width:0.8;" x="57.6" xlink:href="#mcf35e91a33" y="51.136386"/>
      </g>
     </g>
     <g id="text_15">
      <!-- 140 -->
      <g transform="translate(31.5125 54.935605)scale(0.1 -0.1)">
       <use xlink:href="#DejaVuSans-49"/>
       <use x="63.623047" xlink:href="#DejaVuSans-52"/>
       <use x="127.246094" xlink:href="#DejaVuSans-48"/>
      </g>
     </g>
    </g>
   </g>
   <g id="line2d_16">
    <path clip-path="url(#pe597ffd279)" d="M 211.516333 294.674288 
L 211.87602 290.905071 
L 212.033383 287.147094 
L 212.012776 283.40223 
L 211.699923 277.802732 
L 211.115432 272.221967 
L 210.051359 264.805301 
L 206.975288 246.315154 
L 204.684158 233.402025 
L 202.516671 222.371632 
L 199.566116 207.701283 
L 198.715606 202.122392 
L 198.312832 198.356921 
L 198.104888 194.57459 
L 198.147976 190.803499 
L 198.505789 187.068003 
L 199.236403 183.3962 
L 200.382904 179.81432 
L 201.92656 176.359828 
L 203.828029 173.072067 
L 206.051717 169.988502 
L 208.558284 167.146602 
L 211.314009 164.574467 
L 214.275805 162.257111 
L 217.406204 160.164558 
L 220.663991 158.272456 
L 224.009828 156.55083 
L 229.118503 154.218486 
L 242.884015 148.246188 
L 246.259825 146.537676 
L 249.53822 144.662434 
L 252.672365 142.584868 
L 255.61168 140.271258 
L 258.313078 137.687883 
L 260.75595 134.842236 
L 262.951538 131.775532 
L 264.905462 128.534605 
L 266.632707 125.164415 
L 268.140769 121.709923 
L 269.446507 118.195484 
L 270.574275 114.626717 
L 271.983048 109.178961 
L 273.118309 103.635664 
L 273.715913 99.896421 
L 274.109321 96.14219 
L 274.229216 92.386086 
L 274.004412 88.644969 
L 273.365594 84.933827 
L 272.28466 81.295745 
L 271.58402 79.523538 
L 270.778472 77.794419 
L 269.871761 76.115881 
L 268.865762 74.495417 
L 267.762348 72.942395 
L 266.565266 71.466181 
L 265.274515 70.072394 
L 263.893843 68.772277 
L 262.430742 67.563954 
L 260.890833 66.453046 
L 259.283483 65.439554 
L 257.614311 64.527224 
L 255.888939 63.716055 
L 254.118606 63.009795 
L 252.308932 62.410317 
L 250.465537 61.917621 
L 248.597789 61.535454 
L 246.71318 61.265689 
L 242.912116 61.057745 
L 239.118544 61.286296 
L 235.381174 61.943849 
L 231.750586 63.019162 
L 228.279234 64.50849 
L 225.002713 66.383732 
L 221.947249 68.61304 
L 219.133449 71.157075 
L 216.585668 73.980241 
L 214.324513 77.043198 
L 212.376209 80.312226 
L 210.761366 83.747984 
L 209.504335 87.314878 
L 208.627599 90.97544 
L 208.3391 92.828201 
L 208.3391 92.828201 
" style="fill:none;stroke:#fea952;stroke-linecap:square;"/>
   </g>
   <g id="line2d_17">
    <path clip-path="url(#pe597ffd279)" d="M 204.067171 293.860576 
L 204.393765 290.495186 
L 204.540044 287.102134 
L 204.524447 283.679853 
L 204.236978 278.478451 
L 203.68465 273.189243 
L 202.652887 265.994742 
L 199.587037 247.566511 
L 197.319966 234.787962 
L 195.178096 223.88737 
L 192.176222 208.942905 
L 191.273458 202.997939 
L 190.837326 198.875539 
L 190.611595 194.626627 
L 190.674389 190.257928 
L 191.118987 185.808122 
L 191.514046 183.559108 
L 192.036343 181.319835 
L 192.689551 179.100194 
L 193.462342 176.940653 
L 194.350163 174.830259 
L 195.34666 172.774153 
L 196.445668 170.777591 
L 197.642343 168.842475 
L 198.935164 166.968383 
L 201.776151 163.440094 
L 204.922708 160.232406 
L 208.271825 157.39466 
L 211.761643 154.888255 
L 215.349056 152.663904 
L 218.976359 150.689606 
L 224.389339 148.112249 
L 233.075978 144.412347 
L 237.992955 142.263046 
L 242.635186 139.979159 
L 245.513228 138.341706 
L 248.167891 136.596391 
L 250.570651 134.726876 
L 252.744341 132.673771 
L 254.754915 130.354505 
L 256.605857 127.789999 
L 258.294394 125.006725 
L 259.811409 122.062472 
L 261.151213 119.008393 
L 262.327882 115.855114 
L 263.357085 112.6107 
L 264.66487 107.567619 
L 265.73268 102.368921 
L 266.276593 98.997162 
L 266.626287 95.746776 
L 266.74007 92.640717 
L 266.585358 89.69843 
L 266.123665 86.859084 
L 265.316024 84.050787 
L 264.185416 81.355847 
L 262.757138 78.835562 
L 261.067259 76.557749 
L 259.122153 74.55009 
L 256.894097 72.791678 
L 254.426095 71.308627 
L 251.76222 70.123135 
L 248.963391 69.258991 
L 246.086611 68.732922 
L 243.148478 68.547491 
L 240.205182 68.700564 
L 237.299513 69.187613 
L 234.504136 69.988388 
L 231.819464 71.112952 
L 229.256485 72.552814 
L 226.826985 74.299896 
L 224.566951 76.317425 
L 222.506212 78.573639 
L 220.667337 81.033278 
L 219.077098 83.666365 
L 217.763925 86.415626 
L 216.743306 89.251228 
L 216.031847 92.128376 
L 215.743348 93.981138 
L 215.743348 93.981138 
" style="fill:none;stroke:#ffffff;stroke-linecap:square;"/>
   </g>
   <g id="line2d_18">
    <path clip-path="url(#pe597ffd279)" d="M 218.965496 295.488 
L 219.358275 291.314955 
L 219.526722 287.192054 
L 219.501105 283.124607 
L 219.311388 279.110965 
L 218.777505 273.195228 
L 218.025578 267.410223 
L 216.528717 258.009792 
L 212.048351 232.016089 
L 209.855246 220.855893 
L 206.956009 206.459661 
L 206.157755 201.246845 
L 205.788338 197.838303 
L 205.598182 194.522553 
L 205.621563 191.349071 
L 205.892592 188.327884 
L 206.436462 185.472566 
L 207.303467 182.687987 
L 208.50646 179.945504 
L 210.013715 177.301658 
L 211.792566 174.804601 
L 213.797104 172.504486 
L 216.047767 170.3834 
L 218.541941 168.417649 
L 221.260468 166.590816 
L 224.169411 164.89546 
L 227.222509 163.320677 
L 232.070327 161.106076 
L 246.193579 154.969203 
L 249.884464 153.096192 
L 253.563211 150.983161 
L 257.17684 148.573346 
L 260.65271 145.81564 
L 262.307902 144.297882 
L 265.365657 141.041528 
L 268.065584 137.569347 
L 270.444447 133.925089 
L 272.521646 130.170186 
L 274.326313 126.339756 
L 275.87499 122.477677 
L 277.201804 118.592902 
L 278.334088 114.694665 
L 279.728998 108.843662 
L 280.851225 102.866074 
L 281.406737 98.683501 
L 281.701632 94.34546 
L 281.631273 89.868731 
L 281.423467 87.591509 
L 281.084772 85.297973 
L 280.607523 83.008569 
L 279.996993 80.760846 
L 279.253296 78.540703 
L 278.376546 76.359089 
L 277.371528 74.232992 
L 276.238177 72.163552 
L 274.974387 70.155273 
L 273.582654 68.222629 
L 272.063273 66.374612 
L 270.411663 64.616951 
L 268.665532 62.994463 
L 266.81486 61.486812 
L 264.887569 60.114415 
L 262.877435 58.864171 
L 260.802528 57.745821 
L 258.665595 56.756002 
L 256.474992 55.896456 
L 254.243841 55.170961 
L 251.967683 54.576252 
L 249.659591 54.117589 
L 247.33975 53.798457 
L 245.007157 53.615431 
L 242.675753 53.568 
L 240.348073 53.653736 
L 238.031907 53.872028 
L 235.730145 54.221802 
L 233.462836 54.700084 
L 231.212776 55.309071 
L 228.997037 56.049936 
L 226.838092 56.91652 
L 224.739005 57.904028 
L 222.714525 59.002314 
L 220.748941 60.214649 
L 218.869568 61.52346 
L 217.067512 62.926185 
L 215.340773 64.421106 
L 213.699948 65.996725 
L 212.135016 67.658578 
L 209.285213 71.179418 
L 207.981688 73.053119 
L 205.675321 76.958088 
L 204.667138 78.992717 
L 203.758806 81.080343 
L 202.958931 83.206727 
L 202.265365 85.378528 
L 201.686429 87.583029 
L 200.934852 91.675265 
L 200.934852 91.675265 
" style="fill:none;stroke:#ffffff;stroke-linecap:square;"/>
   </g>
   <g id="patch_3">
    <path d="M 57.6 307.584 
L 57.6 41.472 
" style="fill:none;stroke:#000000;stroke-linecap:square;stroke-linejoin:miter;stroke-width:0.8;"/>
   </g>
   <g id="patch_4">
    <path d="M 414.72 307.584 
L 414.72 41.472 
" style="fill:none;stroke:#000000;stroke-linecap:square;stroke-linejoin:miter;stroke-width:0.8;"/>
   </g>
   <g id="patch_5">
    <path d="M 57.6 307.584 
L 414.72 307.584 
" style="fill:none;stroke:#000000;stroke-linecap:square;stroke-linejoin:miter;stroke-width:0.8;"/>
   </g>
   <g id="patch_6">
    <path d="M 57.6 41.472 
L 414.72 41.472 
" style="fill:none;stroke:#000000;stroke-linecap:square;stroke-linejoin:miter;stroke-width:0.8;"/>
   </g>
  </g>
 </g>
 <defs>
  <clipPath id="pe597ffd279">
   <rect height="266.112" width="357.12" x="57.6" y="41.472"/>
  </clipPath>
 </defs>
</svg>
