<?xml version="1.0" encoding="utf-8" standalone="no"?>
<!DOCTYPE svg PUBLIC "-//W3C//DTD SVG 1.1//EN"
  "http://www.w3.org/Graphics/SVG/1.1/DTD/svg11.dtd">
<!-- Created with matplotlib (https://matplotlib.org/) -->
<svg height="345.6pt" version="1.1" viewBox="0 0 460.8 345.6" width="460.8pt" xmlns="http://www.w3.org/2000/svg" xmlns:xlink="http://www.w3.org/1999/xlink">
 <metadata>
  <rdf:RDF xmlns:cc="http://creativecommons.org/ns#" xmlns:dc="http://purl.org/dc/elements/1.1/" xmlns:rdf="http://www.w3.org/1999/02/22-rdf-syntax-ns#">
   <cc:Work>
    <dc:type rdf:resource="http://purl.org/dc/dcmitype/StillImage"/>
    <dc:date>2021-01-23T12:43:51.959417</dc:date>
    <dc:format>image/svg+xml</dc:format>
    <dc:creator>
     <cc:Agent>
      <dc:title>Matplotlib v3.3.3, https://matplotlib.org/</dc:title>
     </cc:Agent>
    </dc:creator>
   </cc:Work>
  </rdf:RDF>
 </metadata>
 <defs>
  <style type="text/css">*{stroke-linecap:butt;stroke-linejoin:round;}</style>
 </defs>
 <g id="figure_1">
  <g id="patch_1">
   <path d="M 0 345.6 
L 460.8 345.6 
L 460.8 0 
L 0 0 
z
" style="fill:#ffffff;"/>
  </g>
  <g id="axes_1">
   <g id="patch_2">
    <path d="M 57.6 307.584 
L 414.72 307.584 
L 414.72 41.472 
L 57.6 41.472 
z
" style="fill:#7d9051;"/>
   </g>
   <g id="matplotlib.axis_1">
    <g id="xtick_1">
     <g id="line2d_1">
      <defs>
       <path d="M 0 0 
L 0 3.5 
" id="m083bf769bb" style="stroke:#000000;stroke-width:0.8;"/>
      </defs>
      <g>
       <use style="stroke:#000000;stroke-width:0.8;" x="60.771898" xlink:href="#m083bf769bb" y="307.584"/>
      </g>
     </g>
     <g id="text_1">
      <!-- −40 -->
      <g transform="translate(50.219554 322.182437)scale(0.1 -0.1)">
       <defs>
        <path d="M 10.59375 35.5 
L 73.1875 35.5 
L 73.1875 27.203125 
L 10.59375 27.203125 
z
" id="DejaVuSans-8722"/>
        <path d="M 37.796875 64.3125 
L 12.890625 25.390625 
L 37.796875 25.390625 
z
M 35.203125 72.90625 
L 47.609375 72.90625 
L 47.609375 25.390625 
L 58.015625 25.390625 
L 58.015625 17.1875 
L 47.609375 17.1875 
L 47.609375 0 
L 37.796875 0 
L 37.796875 17.1875 
L 4.890625 17.1875 
L 4.890625 26.703125 
z
" id="DejaVuSans-52"/>
        <path d="M 31.78125 66.40625 
Q 24.171875 66.40625 20.328125 58.90625 
Q 16.5 51.421875 16.5 36.375 
Q 16.5 21.390625 20.328125 13.890625 
Q 24.171875 6.390625 31.78125 6.390625 
Q 39.453125 6.390625 43.28125 13.890625 
Q 47.125 21.390625 47.125 36.375 
Q 47.125 51.421875 43.28125 58.90625 
Q 39.453125 66.40625 31.78125 66.40625 
z
M 31.78125 74.21875 
Q 44.046875 74.21875 50.515625 64.515625 
Q 56.984375 54.828125 56.984375 36.375 
Q 56.984375 17.96875 50.515625 8.265625 
Q 44.046875 -1.421875 31.78125 -1.421875 
Q 19.53125 -1.421875 13.0625 8.265625 
Q 6.59375 17.96875 6.59375 36.375 
Q 6.59375 54.828125 13.0625 64.515625 
Q 19.53125 74.21875 31.78125 74.21875 
z
" id="DejaVuSans-48"/>
       </defs>
       <use xlink:href="#DejaVuSans-8722"/>
       <use x="83.789062" xlink:href="#DejaVuSans-52"/>
       <use x="147.412109" xlink:href="#DejaVuSans-48"/>
      </g>
     </g>
    </g>
    <g id="xtick_2">
     <g id="line2d_2">
      <g>
       <use style="stroke:#000000;stroke-width:0.8;" x="101.547135" xlink:href="#m083bf769bb" y="307.584"/>
      </g>
     </g>
     <g id="text_2">
      <!-- −20 -->
      <g transform="translate(90.994791 322.182437)scale(0.1 -0.1)">
       <defs>
        <path d="M 19.1875 8.296875 
L 53.609375 8.296875 
L 53.609375 0 
L 7.328125 0 
L 7.328125 8.296875 
Q 12.9375 14.109375 22.625 23.890625 
Q 32.328125 33.6875 34.8125 36.53125 
Q 39.546875 41.84375 41.421875 45.53125 
Q 43.3125 49.21875 43.3125 52.78125 
Q 43.3125 58.59375 39.234375 62.25 
Q 35.15625 65.921875 28.609375 65.921875 
Q 23.96875 65.921875 18.8125 64.3125 
Q 13.671875 62.703125 7.8125 59.421875 
L 7.8125 69.390625 
Q 13.765625 71.78125 18.9375 73 
Q 24.125 74.21875 28.421875 74.21875 
Q 39.75 74.21875 46.484375 68.546875 
Q 53.21875 62.890625 53.21875 53.421875 
Q 53.21875 48.921875 51.53125 44.890625 
Q 49.859375 40.875 45.40625 35.40625 
Q 44.1875 33.984375 37.640625 27.21875 
Q 31.109375 20.453125 19.1875 8.296875 
z
" id="DejaVuSans-50"/>
       </defs>
       <use xlink:href="#DejaVuSans-8722"/>
       <use x="83.789062" xlink:href="#DejaVuSans-50"/>
       <use x="147.412109" xlink:href="#DejaVuSans-48"/>
      </g>
     </g>
    </g>
    <g id="xtick_3">
     <g id="line2d_3">
      <g>
       <use style="stroke:#000000;stroke-width:0.8;" x="142.322372" xlink:href="#m083bf769bb" y="307.584"/>
      </g>
     </g>
     <g id="text_3">
      <!-- 0 -->
      <g transform="translate(139.141122 322.182437)scale(0.1 -0.1)">
       <use xlink:href="#DejaVuSans-48"/>
      </g>
     </g>
    </g>
    <g id="xtick_4">
     <g id="line2d_4">
      <g>
       <use style="stroke:#000000;stroke-width:0.8;" x="183.097609" xlink:href="#m083bf769bb" y="307.584"/>
      </g>
     </g>
     <g id="text_4">
      <!-- 20 -->
      <g transform="translate(176.735109 322.182437)scale(0.1 -0.1)">
       <use xlink:href="#DejaVuSans-50"/>
       <use x="63.623047" xlink:href="#DejaVuSans-48"/>
      </g>
     </g>
    </g>
    <g id="xtick_5">
     <g id="line2d_5">
      <g>
       <use style="stroke:#000000;stroke-width:0.8;" x="223.872846" xlink:href="#m083bf769bb" y="307.584"/>
      </g>
     </g>
     <g id="text_5">
      <!-- 40 -->
      <g transform="translate(217.510346 322.182437)scale(0.1 -0.1)">
       <use xlink:href="#DejaVuSans-52"/>
       <use x="63.623047" xlink:href="#DejaVuSans-48"/>
      </g>
     </g>
    </g>
    <g id="xtick_6">
     <g id="line2d_6">
      <g>
       <use style="stroke:#000000;stroke-width:0.8;" x="264.648083" xlink:href="#m083bf769bb" y="307.584"/>
      </g>
     </g>
     <g id="text_6">
      <!-- 60 -->
      <g transform="translate(258.285583 322.182437)scale(0.1 -0.1)">
       <defs>
        <path d="M 33.015625 40.375 
Q 26.375 40.375 22.484375 35.828125 
Q 18.609375 31.296875 18.609375 23.390625 
Q 18.609375 15.53125 22.484375 10.953125 
Q 26.375 6.390625 33.015625 6.390625 
Q 39.65625 6.390625 43.53125 10.953125 
Q 47.40625 15.53125 47.40625 23.390625 
Q 47.40625 31.296875 43.53125 35.828125 
Q 39.65625 40.375 33.015625 40.375 
z
M 52.59375 71.296875 
L 52.59375 62.3125 
Q 48.875 64.0625 45.09375 64.984375 
Q 41.3125 65.921875 37.59375 65.921875 
Q 27.828125 65.921875 22.671875 59.328125 
Q 17.53125 52.734375 16.796875 39.40625 
Q 19.671875 43.65625 24.015625 45.921875 
Q 28.375 48.1875 33.59375 48.1875 
Q 44.578125 48.1875 50.953125 41.515625 
Q 57.328125 34.859375 57.328125 23.390625 
Q 57.328125 12.15625 50.6875 5.359375 
Q 44.046875 -1.421875 33.015625 -1.421875 
Q 20.359375 -1.421875 13.671875 8.265625 
Q 6.984375 17.96875 6.984375 36.375 
Q 6.984375 53.65625 15.1875 63.9375 
Q 23.390625 74.21875 37.203125 74.21875 
Q 40.921875 74.21875 44.703125 73.484375 
Q 48.484375 72.75 52.59375 71.296875 
z
" id="DejaVuSans-54"/>
       </defs>
       <use xlink:href="#DejaVuSans-54"/>
       <use x="63.623047" xlink:href="#DejaVuSans-48"/>
      </g>
     </g>
    </g>
    <g id="xtick_7">
     <g id="line2d_7">
      <g>
       <use style="stroke:#000000;stroke-width:0.8;" x="305.42332" xlink:href="#m083bf769bb" y="307.584"/>
      </g>
     </g>
     <g id="text_7">
      <!-- 80 -->
      <g transform="translate(299.06082 322.182437)scale(0.1 -0.1)">
       <defs>
        <path d="M 31.78125 34.625 
Q 24.75 34.625 20.71875 30.859375 
Q 16.703125 27.09375 16.703125 20.515625 
Q 16.703125 13.921875 20.71875 10.15625 
Q 24.75 6.390625 31.78125 6.390625 
Q 38.8125 6.390625 42.859375 10.171875 
Q 46.921875 13.96875 46.921875 20.515625 
Q 46.921875 27.09375 42.890625 30.859375 
Q 38.875 34.625 31.78125 34.625 
z
M 21.921875 38.8125 
Q 15.578125 40.375 12.03125 44.71875 
Q 8.5 49.078125 8.5 55.328125 
Q 8.5 64.0625 14.71875 69.140625 
Q 20.953125 74.21875 31.78125 74.21875 
Q 42.671875 74.21875 48.875 69.140625 
Q 55.078125 64.0625 55.078125 55.328125 
Q 55.078125 49.078125 51.53125 44.71875 
Q 48 40.375 41.703125 38.8125 
Q 48.828125 37.15625 52.796875 32.3125 
Q 56.78125 27.484375 56.78125 20.515625 
Q 56.78125 9.90625 50.3125 4.234375 
Q 43.84375 -1.421875 31.78125 -1.421875 
Q 19.734375 -1.421875 13.25 4.234375 
Q 6.78125 9.90625 6.78125 20.515625 
Q 6.78125 27.484375 10.78125 32.3125 
Q 14.796875 37.15625 21.921875 38.8125 
z
M 18.3125 54.390625 
Q 18.3125 48.734375 21.84375 45.5625 
Q 25.390625 42.390625 31.78125 42.390625 
Q 38.140625 42.390625 41.71875 45.5625 
Q 45.3125 48.734375 45.3125 54.390625 
Q 45.3125 60.0625 41.71875 63.234375 
Q 38.140625 66.40625 31.78125 66.40625 
Q 25.390625 66.40625 21.84375 63.234375 
Q 18.3125 60.0625 18.3125 54.390625 
z
" id="DejaVuSans-56"/>
       </defs>
       <use xlink:href="#DejaVuSans-56"/>
       <use x="63.623047" xlink:href="#DejaVuSans-48"/>
      </g>
     </g>
    </g>
    <g id="xtick_8">
     <g id="line2d_8">
      <g>
       <use style="stroke:#000000;stroke-width:0.8;" x="346.198556" xlink:href="#m083bf769bb" y="307.584"/>
      </g>
     </g>
     <g id="text_8">
      <!-- 100 -->
      <g transform="translate(336.654806 322.182437)scale(0.1 -0.1)">
       <defs>
        <path d="M 12.40625 8.296875 
L 28.515625 8.296875 
L 28.515625 63.921875 
L 10.984375 60.40625 
L 10.984375 69.390625 
L 28.421875 72.90625 
L 38.28125 72.90625 
L 38.28125 8.296875 
L 54.390625 8.296875 
L 54.390625 0 
L 12.40625 0 
z
" id="DejaVuSans-49"/>
       </defs>
       <use xlink:href="#DejaVuSans-49"/>
       <use x="63.623047" xlink:href="#DejaVuSans-48"/>
       <use x="127.246094" xlink:href="#DejaVuSans-48"/>
      </g>
     </g>
    </g>
    <g id="xtick_9">
     <g id="line2d_9">
      <g>
       <use style="stroke:#000000;stroke-width:0.8;" x="386.973793" xlink:href="#m083bf769bb" y="307.584"/>
      </g>
     </g>
     <g id="text_9">
      <!-- 120 -->
      <g transform="translate(377.430043 322.182437)scale(0.1 -0.1)">
       <use xlink:href="#DejaVuSans-49"/>
       <use x="63.623047" xlink:href="#DejaVuSans-50"/>
       <use x="127.246094" xlink:href="#DejaVuSans-48"/>
      </g>
     </g>
    </g>
   </g>
   <g id="matplotlib.axis_2">
    <g id="ytick_1">
     <g id="line2d_10">
      <defs>
       <path d="M 0 0 
L -3.5 0 
" id="m15358ffdfd" style="stroke:#000000;stroke-width:0.8;"/>
      </defs>
      <g>
       <use style="stroke:#000000;stroke-width:0.8;" x="57.6" xlink:href="#m15358ffdfd" y="274.714048"/>
      </g>
     </g>
     <g id="text_10">
      <!-- 20 -->
      <g transform="translate(37.875 278.513266)scale(0.1 -0.1)">
       <use xlink:href="#DejaVuSans-50"/>
       <use x="63.623047" xlink:href="#DejaVuSans-48"/>
      </g>
     </g>
    </g>
    <g id="ytick_2">
     <g id="line2d_11">
      <g>
       <use style="stroke:#000000;stroke-width:0.8;" x="57.6" xlink:href="#m15358ffdfd" y="233.938811"/>
      </g>
     </g>
     <g id="text_11">
      <!-- 40 -->
      <g transform="translate(37.875 237.73803)scale(0.1 -0.1)">
       <use xlink:href="#DejaVuSans-52"/>
       <use x="63.623047" xlink:href="#DejaVuSans-48"/>
      </g>
     </g>
    </g>
    <g id="ytick_3">
     <g id="line2d_12">
      <g>
       <use style="stroke:#000000;stroke-width:0.8;" x="57.6" xlink:href="#m15358ffdfd" y="193.163574"/>
      </g>
     </g>
     <g id="text_12">
      <!-- 60 -->
      <g transform="translate(37.875 196.962793)scale(0.1 -0.1)">
       <use xlink:href="#DejaVuSans-54"/>
       <use x="63.623047" xlink:href="#DejaVuSans-48"/>
      </g>
     </g>
    </g>
    <g id="ytick_4">
     <g id="line2d_13">
      <g>
       <use style="stroke:#000000;stroke-width:0.8;" x="57.6" xlink:href="#m15358ffdfd" y="152.388337"/>
      </g>
     </g>
     <g id="text_13">
      <!-- 80 -->
      <g transform="translate(37.875 156.187556)scale(0.1 -0.1)">
       <use xlink:href="#DejaVuSans-56"/>
       <use x="63.623047" xlink:href="#DejaVuSans-48"/>
      </g>
     </g>
    </g>
    <g id="ytick_5">
     <g id="line2d_14">
      <g>
       <use style="stroke:#000000;stroke-width:0.8;" x="57.6" xlink:href="#m15358ffdfd" y="111.6131"/>
      </g>
     </g>
     <g id="text_14">
      <!-- 100 -->
      <g transform="translate(31.5125 115.412319)scale(0.1 -0.1)">
       <use xlink:href="#DejaVuSans-49"/>
       <use x="63.623047" xlink:href="#DejaVuSans-48"/>
       <use x="127.246094" xlink:href="#DejaVuSans-48"/>
      </g>
     </g>
    </g>
    <g id="ytick_6">
     <g id="line2d_15">
      <g>
       <use style="stroke:#000000;stroke-width:0.8;" x="57.6" xlink:href="#m15358ffdfd" y="70.837863"/>
      </g>
     </g>
     <g id="text_15">
      <!-- 120 -->
      <g transform="translate(31.5125 74.637082)scale(0.1 -0.1)">
       <use xlink:href="#DejaVuSans-49"/>
       <use x="63.623047" xlink:href="#DejaVuSans-50"/>
       <use x="127.246094" xlink:href="#DejaVuSans-48"/>
      </g>
     </g>
    </g>
   </g>
   <g id="line2d_16">
    <path clip-path="url(#pfb74297f59)" d="M 173.505234 295.101666 
L 173.31563 289.024117 
L 173.386986 280.860915 
L 173.582707 268.569219 
L 173.44611 262.444779 
L 173.18311 258.381527 
L 172.736621 254.340701 
L 172.082179 250.328417 
L 171.246286 246.340599 
L 169.72537 240.403725 
L 167.38691 232.560608 
L 165.019908 224.746034 
L 163.494914 218.827508 
L 162.70999 214.821341 
L 162.171757 210.758089 
L 161.908757 206.6561 
L 161.945455 202.547995 
L 162.306316 198.464355 
L 163.013766 194.435761 
L 164.084116 190.490757 
L 165.488823 186.643613 
L 167.193228 182.910641 
L 169.160633 179.302032 
L 171.358418 175.834098 
L 173.741731 172.508878 
L 178.787666 166.092894 
L 182.522678 161.263067 
L 184.850944 157.93173 
L 187.020187 154.4903 
L 190.066097 149.181365 
L 207.672844 116.956695 
L 210.402746 111.480581 
L 212.961392 105.924955 
L 219.444655 90.954326 
L 221.3142 87.327369 
L 223.405969 83.804388 
L 225.734235 80.424121 
L 228.305114 77.225304 
L 231.122683 74.244634 
L 234.195097 71.522887 
L 237.51624 69.090644 
L 241.057569 66.976448 
L 244.776271 65.196609 
L 248.633608 63.775592 
L 252.590845 62.731746 
L 256.607206 62.075265 
L 260.66842 61.765373 
L 264.760215 61.744985 
L 268.866281 61.965172 
L 272.974386 62.370885 
L 277.066181 62.929506 
L 281.113123 63.683848 
L 285.078515 64.703229 
L 288.927698 66.05085 
L 290.799281 66.866355 
L 292.62805 67.789914 
L 294.409928 68.827644 
L 296.138798 69.971389 
L 297.802428 71.219112 
L 299.392662 72.562656 
L 300.903385 73.997944 
L 302.322363 75.51886 
L 303.643481 77.11725 
L 304.856544 78.789034 
L 305.953398 80.526059 
L 306.923848 82.326286 
L 307.763818 84.179521 
L 308.475346 86.083724 
L 309.066587 88.030742 
L 309.541619 90.014457 
L 310.175673 94.077709 
L 310.42848 98.228629 
L 310.353046 102.422362 
L 310.002379 106.618134 
L 309.427448 110.767014 
L 308.679222 114.828227 
L 307.351988 120.661125 
L 306.881034 122.512321 
L 306.881034 122.512321 
" style="fill:none;stroke:#fea952;stroke-linecap:square;"/>
   </g>
   <g id="line2d_17">
    <path clip-path="url(#pfb74297f59)" d="M 165.359343 295.488 
L 165.160648 289.056802 
L 165.233892 280.682439 
L 165.427919 268.634263 
L 165.303419 262.893524 
L 164.891528 257.356495 
L 164.403517 253.745376 
L 163.720518 250.084818 
L 162.39181 244.515413 
L 160.7829 238.843874 
L 156.582086 224.829542 
L 155.514621 220.506712 
L 154.644039 216.023517 
L 154.04372 211.421272 
L 153.754111 206.736999 
L 153.809048 201.996923 
L 154.244135 197.237148 
L 155.09792 192.475105 
L 156.368104 187.851069 
L 158.006212 183.400878 
L 159.966697 179.131481 
L 162.205884 175.043362 
L 164.673348 171.163484 
L 167.26486 167.553583 
L 172.398206 161.025391 
L 175.898836 156.506019 
L 177.995882 153.514387 
L 180.002216 150.336641 
L 182.91554 145.260354 
L 200.406686 113.254298 
L 203.869584 106.227345 
L 206.254187 100.888167 
L 211.198777 89.319556 
L 213.156736 85.294923 
L 215.387064 81.274171 
L 217.905525 77.353842 
L 220.731881 73.570525 
L 223.872426 69.984684 
L 227.362868 66.619867 
L 229.22483 65.057499 
L 231.161958 63.579466 
L 233.170909 62.18971 
L 235.248404 60.892421 
L 239.549318 58.606234 
L 241.77962 57.612093 
L 244.051171 56.724151 
L 246.363275 55.942943 
L 248.715276 55.271196 
L 251.088949 54.716192 
L 255.823244 53.957987 
L 260.497543 53.612116 
L 265.092302 53.596702 
L 269.591525 53.842437 
L 273.995793 54.280055 
L 278.44476 54.891825 
L 282.993597 55.748571 
L 287.588804 56.944154 
L 289.897134 57.700732 
L 292.185283 58.574692 
L 294.475515 59.586925 
L 296.732128 60.742834 
L 298.909444 62.026236 
L 301.031827 63.447351 
L 303.065462 64.989724 
L 305.009656 66.65045 
L 306.866238 68.434746 
L 308.608223 70.323405 
L 310.243979 72.327864 
L 311.75193 74.434905 
L 313.131853 76.65636 
L 314.351564 78.959709 
L 315.402983 81.325058 
L 316.27855 83.714165 
L 316.997412 86.131582 
L 317.565124 88.555638 
L 317.994964 90.976685 
L 318.303538 93.412411 
L 318.583527 98.228629 
L 318.488787 102.983175 
L 318.093104 107.64037 
L 317.461131 112.168703 
L 316.657774 116.515683 
L 315.255286 122.671766 
L 314.784332 124.522962 
L 314.784332 124.522962 
" style="fill:none;stroke:#ffffff;stroke-linecap:square;"/>
   </g>
   <g id="line2d_18">
    <path clip-path="url(#pfb74297f59)" d="M 181.651126 294.715332 
L 181.470611 288.991432 
L 181.54008 281.03939 
L 181.737495 268.504176 
L 181.588802 261.996033 
L 181.299448 257.587893 
L 180.801324 253.130177 
L 180.080426 248.736929 
L 179.175707 244.435584 
L 177.568175 238.168728 
L 175.176217 230.14576 
L 172.369031 220.731793 
L 171.475207 217.148304 
L 170.775942 213.619165 
L 170.299794 210.094905 
L 170.063403 206.5752 
L 170.081862 203.099066 
L 170.368496 199.691562 
L 170.929612 196.396418 
L 171.800128 193.130445 
L 172.971434 189.886348 
L 174.419759 186.689801 
L 176.115381 183.560702 
L 178.043488 180.504712 
L 180.218602 177.464172 
L 185.177127 171.160397 
L 189.14652 166.020116 
L 191.706006 162.349074 
L 194.038157 158.64396 
L 197.216654 153.102376 
L 214.939002 120.659092 
L 217.77028 114.976899 
L 220.447763 109.159001 
L 227.55115 92.964345 
L 229.27602 89.824966 
L 231.177595 86.833892 
L 233.248344 84.027932 
L 235.494209 81.428169 
L 237.89171 79.076298 
L 240.490255 76.958631 
L 243.274436 75.091083 
L 246.243747 73.479157 
L 249.330166 72.156306 
L 252.490829 71.138281 
L 255.721023 70.433257 
L 259.090614 70.021783 
L 262.622005 69.877118 
L 266.270351 69.965667 
L 270.043758 70.256349 
L 275.687602 70.967187 
L 279.232649 71.619124 
L 282.568226 72.462304 
L 285.670112 73.527008 
L 288.523972 74.836995 
L 291.24577 76.495427 
L 293.775668 78.474861 
L 296.036503 80.714316 
L 297.961157 83.143163 
L 299.496133 85.692863 
L 300.672142 88.453283 
L 301.518113 91.473276 
L 302.047809 94.743008 
L 302.273433 98.228629 
L 302.217304 101.861548 
L 301.911654 105.595897 
L 301.393765 109.365324 
L 300.309117 114.997287 
L 298.977736 120.50168 
L 298.977736 120.50168 
" style="fill:none;stroke:#ffffff;stroke-linecap:square;"/>
   </g>
   <g id="patch_3">
    <path d="M 57.6 307.584 
L 57.6 41.472 
" style="fill:none;stroke:#000000;stroke-linecap:square;stroke-linejoin:miter;stroke-width:0.8;"/>
   </g>
   <g id="patch_4">
    <path d="M 414.72 307.584 
L 414.72 41.472 
" style="fill:none;stroke:#000000;stroke-linecap:square;stroke-linejoin:miter;stroke-width:0.8;"/>
   </g>
   <g id="patch_5">
    <path d="M 57.6 307.584 
L 414.72 307.584 
" style="fill:none;stroke:#000000;stroke-linecap:square;stroke-linejoin:miter;stroke-width:0.8;"/>
   </g>
   <g id="patch_6">
    <path d="M 57.6 41.472 
L 414.72 41.472 
" style="fill:none;stroke:#000000;stroke-linecap:square;stroke-linejoin:miter;stroke-width:0.8;"/>
   </g>
  </g>
 </g>
 <defs>
  <clipPath id="pfb74297f59">
   <rect height="266.112" width="357.12" x="57.6" y="41.472"/>
  </clipPath>
 </defs>
</svg>
