<?xml version="1.0" encoding="utf-8" standalone="no"?>
<!DOCTYPE svg PUBLIC "-//W3C//DTD SVG 1.1//EN"
  "http://www.w3.org/Graphics/SVG/1.1/DTD/svg11.dtd">
<!-- Created with matplotlib (https://matplotlib.org/) -->
<svg height="345.6pt" version="1.1" viewBox="0 0 460.8 345.6" width="460.8pt" xmlns="http://www.w3.org/2000/svg" xmlns:xlink="http://www.w3.org/1999/xlink">
 <metadata>
  <rdf:RDF xmlns:cc="http://creativecommons.org/ns#" xmlns:dc="http://purl.org/dc/elements/1.1/" xmlns:rdf="http://www.w3.org/1999/02/22-rdf-syntax-ns#">
   <cc:Work>
    <dc:type rdf:resource="http://purl.org/dc/dcmitype/StillImage"/>
    <dc:date>2021-01-22T09:53:01.270194</dc:date>
    <dc:format>image/svg+xml</dc:format>
    <dc:creator>
     <cc:Agent>
      <dc:title>Matplotlib v3.3.3, https://matplotlib.org/</dc:title>
     </cc:Agent>
    </dc:creator>
   </cc:Work>
  </rdf:RDF>
 </metadata>
 <defs>
  <style type="text/css">*{stroke-linecap:butt;stroke-linejoin:round;}</style>
 </defs>
 <g id="figure_1">
  <g id="patch_1">
   <path d="M 0 345.6 
L 460.8 345.6 
L 460.8 0 
L 0 0 
z
" style="fill:#ffffff;"/>
  </g>
  <g id="axes_1">
   <g id="patch_2">
    <path d="M 57.6 307.584 
L 414.72 307.584 
L 414.72 41.472 
L 57.6 41.472 
z
" style="fill:#7d9051;"/>
   </g>
   <g id="matplotlib.axis_1">
    <g id="xtick_1">
     <g id="line2d_1">
      <defs>
       <path d="M 0 0 
L 0 3.5 
" id="m5a2a682d22" style="stroke:#000000;stroke-width:0.8;"/>
      </defs>
      <g>
       <use style="stroke:#000000;stroke-width:0.8;" x="101.273885" xlink:href="#m5a2a682d22" y="307.584"/>
      </g>
     </g>
     <g id="text_1">
      <!-- 0 -->
      <g transform="translate(98.092635 322.182437)scale(0.1 -0.1)">
       <defs>
        <path d="M 31.78125 66.40625 
Q 24.171875 66.40625 20.328125 58.90625 
Q 16.5 51.421875 16.5 36.375 
Q 16.5 21.390625 20.328125 13.890625 
Q 24.171875 6.390625 31.78125 6.390625 
Q 39.453125 6.390625 43.28125 13.890625 
Q 47.125 21.390625 47.125 36.375 
Q 47.125 51.421875 43.28125 58.90625 
Q 39.453125 66.40625 31.78125 66.40625 
z
M 31.78125 74.21875 
Q 44.046875 74.21875 50.515625 64.515625 
Q 56.984375 54.828125 56.984375 36.375 
Q 56.984375 17.96875 50.515625 8.265625 
Q 44.046875 -1.421875 31.78125 -1.421875 
Q 19.53125 -1.421875 13.0625 8.265625 
Q 6.59375 17.96875 6.59375 36.375 
Q 6.59375 54.828125 13.0625 64.515625 
Q 19.53125 74.21875 31.78125 74.21875 
z
" id="DejaVuSans-48"/>
       </defs>
       <use xlink:href="#DejaVuSans-48"/>
      </g>
     </g>
    </g>
    <g id="xtick_2">
     <g id="line2d_2">
      <g>
       <use style="stroke:#000000;stroke-width:0.8;" x="156.277281" xlink:href="#m5a2a682d22" y="307.584"/>
      </g>
     </g>
     <g id="text_2">
      <!-- 20 -->
      <g transform="translate(149.914781 322.182437)scale(0.1 -0.1)">
       <defs>
        <path d="M 19.1875 8.296875 
L 53.609375 8.296875 
L 53.609375 0 
L 7.328125 0 
L 7.328125 8.296875 
Q 12.9375 14.109375 22.625 23.890625 
Q 32.328125 33.6875 34.8125 36.53125 
Q 39.546875 41.84375 41.421875 45.53125 
Q 43.3125 49.21875 43.3125 52.78125 
Q 43.3125 58.59375 39.234375 62.25 
Q 35.15625 65.921875 28.609375 65.921875 
Q 23.96875 65.921875 18.8125 64.3125 
Q 13.671875 62.703125 7.8125 59.421875 
L 7.8125 69.390625 
Q 13.765625 71.78125 18.9375 73 
Q 24.125 74.21875 28.421875 74.21875 
Q 39.75 74.21875 46.484375 68.546875 
Q 53.21875 62.890625 53.21875 53.421875 
Q 53.21875 48.921875 51.53125 44.890625 
Q 49.859375 40.875 45.40625 35.40625 
Q 44.1875 33.984375 37.640625 27.21875 
Q 31.109375 20.453125 19.1875 8.296875 
z
" id="DejaVuSans-50"/>
       </defs>
       <use xlink:href="#DejaVuSans-50"/>
       <use x="63.623047" xlink:href="#DejaVuSans-48"/>
      </g>
     </g>
    </g>
    <g id="xtick_3">
     <g id="line2d_3">
      <g>
       <use style="stroke:#000000;stroke-width:0.8;" x="211.280677" xlink:href="#m5a2a682d22" y="307.584"/>
      </g>
     </g>
     <g id="text_3">
      <!-- 40 -->
      <g transform="translate(204.918177 322.182437)scale(0.1 -0.1)">
       <defs>
        <path d="M 37.796875 64.3125 
L 12.890625 25.390625 
L 37.796875 25.390625 
z
M 35.203125 72.90625 
L 47.609375 72.90625 
L 47.609375 25.390625 
L 58.015625 25.390625 
L 58.015625 17.1875 
L 47.609375 17.1875 
L 47.609375 0 
L 37.796875 0 
L 37.796875 17.1875 
L 4.890625 17.1875 
L 4.890625 26.703125 
z
" id="DejaVuSans-52"/>
       </defs>
       <use xlink:href="#DejaVuSans-52"/>
       <use x="63.623047" xlink:href="#DejaVuSans-48"/>
      </g>
     </g>
    </g>
    <g id="xtick_4">
     <g id="line2d_4">
      <g>
       <use style="stroke:#000000;stroke-width:0.8;" x="266.284072" xlink:href="#m5a2a682d22" y="307.584"/>
      </g>
     </g>
     <g id="text_4">
      <!-- 60 -->
      <g transform="translate(259.921572 322.182437)scale(0.1 -0.1)">
       <defs>
        <path d="M 33.015625 40.375 
Q 26.375 40.375 22.484375 35.828125 
Q 18.609375 31.296875 18.609375 23.390625 
Q 18.609375 15.53125 22.484375 10.953125 
Q 26.375 6.390625 33.015625 6.390625 
Q 39.65625 6.390625 43.53125 10.953125 
Q 47.40625 15.53125 47.40625 23.390625 
Q 47.40625 31.296875 43.53125 35.828125 
Q 39.65625 40.375 33.015625 40.375 
z
M 52.59375 71.296875 
L 52.59375 62.3125 
Q 48.875 64.0625 45.09375 64.984375 
Q 41.3125 65.921875 37.59375 65.921875 
Q 27.828125 65.921875 22.671875 59.328125 
Q 17.53125 52.734375 16.796875 39.40625 
Q 19.671875 43.65625 24.015625 45.921875 
Q 28.375 48.1875 33.59375 48.1875 
Q 44.578125 48.1875 50.953125 41.515625 
Q 57.328125 34.859375 57.328125 23.390625 
Q 57.328125 12.15625 50.6875 5.359375 
Q 44.046875 -1.421875 33.015625 -1.421875 
Q 20.359375 -1.421875 13.671875 8.265625 
Q 6.984375 17.96875 6.984375 36.375 
Q 6.984375 53.65625 15.1875 63.9375 
Q 23.390625 74.21875 37.203125 74.21875 
Q 40.921875 74.21875 44.703125 73.484375 
Q 48.484375 72.75 52.59375 71.296875 
z
" id="DejaVuSans-54"/>
       </defs>
       <use xlink:href="#DejaVuSans-54"/>
       <use x="63.623047" xlink:href="#DejaVuSans-48"/>
      </g>
     </g>
    </g>
    <g id="xtick_5">
     <g id="line2d_5">
      <g>
       <use style="stroke:#000000;stroke-width:0.8;" x="321.287468" xlink:href="#m5a2a682d22" y="307.584"/>
      </g>
     </g>
     <g id="text_5">
      <!-- 80 -->
      <g transform="translate(314.924968 322.182437)scale(0.1 -0.1)">
       <defs>
        <path d="M 31.78125 34.625 
Q 24.75 34.625 20.71875 30.859375 
Q 16.703125 27.09375 16.703125 20.515625 
Q 16.703125 13.921875 20.71875 10.15625 
Q 24.75 6.390625 31.78125 6.390625 
Q 38.8125 6.390625 42.859375 10.171875 
Q 46.921875 13.96875 46.921875 20.515625 
Q 46.921875 27.09375 42.890625 30.859375 
Q 38.875 34.625 31.78125 34.625 
z
M 21.921875 38.8125 
Q 15.578125 40.375 12.03125 44.71875 
Q 8.5 49.078125 8.5 55.328125 
Q 8.5 64.0625 14.71875 69.140625 
Q 20.953125 74.21875 31.78125 74.21875 
Q 42.671875 74.21875 48.875 69.140625 
Q 55.078125 64.0625 55.078125 55.328125 
Q 55.078125 49.078125 51.53125 44.71875 
Q 48 40.375 41.703125 38.8125 
Q 48.828125 37.15625 52.796875 32.3125 
Q 56.78125 27.484375 56.78125 20.515625 
Q 56.78125 9.90625 50.3125 4.234375 
Q 43.84375 -1.421875 31.78125 -1.421875 
Q 19.734375 -1.421875 13.25 4.234375 
Q 6.78125 9.90625 6.78125 20.515625 
Q 6.78125 27.484375 10.78125 32.3125 
Q 14.796875 37.15625 21.921875 38.8125 
z
M 18.3125 54.390625 
Q 18.3125 48.734375 21.84375 45.5625 
Q 25.390625 42.390625 31.78125 42.390625 
Q 38.140625 42.390625 41.71875 45.5625 
Q 45.3125 48.734375 45.3125 54.390625 
Q 45.3125 60.0625 41.71875 63.234375 
Q 38.140625 66.40625 31.78125 66.40625 
Q 25.390625 66.40625 21.84375 63.234375 
Q 18.3125 60.0625 18.3125 54.390625 
z
" id="DejaVuSans-56"/>
       </defs>
       <use xlink:href="#DejaVuSans-56"/>
       <use x="63.623047" xlink:href="#DejaVuSans-48"/>
      </g>
     </g>
    </g>
    <g id="xtick_6">
     <g id="line2d_6">
      <g>
       <use style="stroke:#000000;stroke-width:0.8;" x="376.290864" xlink:href="#m5a2a682d22" y="307.584"/>
      </g>
     </g>
     <g id="text_6">
      <!-- 100 -->
      <g transform="translate(366.747114 322.182437)scale(0.1 -0.1)">
       <defs>
        <path d="M 12.40625 8.296875 
L 28.515625 8.296875 
L 28.515625 63.921875 
L 10.984375 60.40625 
L 10.984375 69.390625 
L 28.421875 72.90625 
L 38.28125 72.90625 
L 38.28125 8.296875 
L 54.390625 8.296875 
L 54.390625 0 
L 12.40625 0 
z
" id="DejaVuSans-49"/>
       </defs>
       <use xlink:href="#DejaVuSans-49"/>
       <use x="63.623047" xlink:href="#DejaVuSans-48"/>
       <use x="127.246094" xlink:href="#DejaVuSans-48"/>
      </g>
     </g>
    </g>
   </g>
   <g id="matplotlib.axis_2">
    <g id="ytick_1">
     <g id="line2d_7">
      <defs>
       <path d="M 0 0 
L -3.5 0 
" id="med84a93bed" style="stroke:#000000;stroke-width:0.8;"/>
      </defs>
      <g>
       <use style="stroke:#000000;stroke-width:0.8;" x="57.6" xlink:href="#med84a93bed" y="264.78784"/>
      </g>
     </g>
     <g id="text_7">
      <!-- 20 -->
      <g transform="translate(37.875 268.587059)scale(0.1 -0.1)">
       <use xlink:href="#DejaVuSans-50"/>
       <use x="63.623047" xlink:href="#DejaVuSans-48"/>
      </g>
     </g>
    </g>
    <g id="ytick_2">
     <g id="line2d_8">
      <g>
       <use style="stroke:#000000;stroke-width:0.8;" x="57.6" xlink:href="#med84a93bed" y="209.784445"/>
      </g>
     </g>
     <g id="text_8">
      <!-- 40 -->
      <g transform="translate(37.875 213.583663)scale(0.1 -0.1)">
       <use xlink:href="#DejaVuSans-52"/>
       <use x="63.623047" xlink:href="#DejaVuSans-48"/>
      </g>
     </g>
    </g>
    <g id="ytick_3">
     <g id="line2d_9">
      <g>
       <use style="stroke:#000000;stroke-width:0.8;" x="57.6" xlink:href="#med84a93bed" y="154.781049"/>
      </g>
     </g>
     <g id="text_9">
      <!-- 60 -->
      <g transform="translate(37.875 158.580268)scale(0.1 -0.1)">
       <use xlink:href="#DejaVuSans-54"/>
       <use x="63.623047" xlink:href="#DejaVuSans-48"/>
      </g>
     </g>
    </g>
    <g id="ytick_4">
     <g id="line2d_10">
      <g>
       <use style="stroke:#000000;stroke-width:0.8;" x="57.6" xlink:href="#med84a93bed" y="99.777653"/>
      </g>
     </g>
     <g id="text_10">
      <!-- 80 -->
      <g transform="translate(37.875 103.576872)scale(0.1 -0.1)">
       <use xlink:href="#DejaVuSans-56"/>
       <use x="63.623047" xlink:href="#DejaVuSans-48"/>
      </g>
     </g>
    </g>
    <g id="ytick_5">
     <g id="line2d_11">
      <g>
       <use style="stroke:#000000;stroke-width:0.8;" x="57.6" xlink:href="#med84a93bed" y="44.774257"/>
      </g>
     </g>
     <g id="text_11">
      <!-- 100 -->
      <g transform="translate(31.5125 48.573476)scale(0.1 -0.1)">
       <use xlink:href="#DejaVuSans-49"/>
       <use x="63.623047" xlink:href="#DejaVuSans-48"/>
       <use x="127.246094" xlink:href="#DejaVuSans-48"/>
      </g>
     </g>
    </g>
   </g>
   <g id="line2d_12">
    <path clip-path="url(#p7ddeebc311)" d="M 134.418932 292.289538 
L 132.898088 287.13572 
L 131.517502 281.814141 
L 130.332179 276.360555 
L 129.397122 270.816212 
L 128.761832 265.216867 
L 128.484065 259.60377 
L 128.613323 254.009925 
L 128.849838 251.235004 
L 129.20736 248.482084 
L 129.69414 245.751165 
L 130.315678 243.050498 
L 131.082976 240.385584 
L 131.996032 237.759172 
L 133.063098 235.176762 
L 134.278673 232.652106 
L 135.637257 230.190704 
L 137.133349 227.806307 
L 138.76145 225.509915 
L 140.513308 223.30978 
L 142.383423 221.2169 
L 144.366296 219.242278 
L 146.459175 217.396914 
L 148.65106 215.691809 
L 150.939201 214.129713 
L 153.312598 212.705125 
L 155.762999 211.412545 
L 158.279405 210.238223 
L 160.853564 209.173907 
L 166.13939 207.347794 
L 171.540723 205.862702 
L 176.986059 204.649878 
L 182.445147 203.657066 
L 187.915234 202.845766 
L 196.140992 201.883207 
L 207.141671 200.871144 
L 220.911771 199.628068 
L 229.165031 198.676509 
L 234.65437 197.88721 
L 240.118957 196.935651 
L 245.539542 195.802581 
L 250.905123 194.457748 
L 256.1992 192.876401 
L 261.413522 191.050288 
L 266.56184 189.026163 
L 274.18806 185.720459 
L 286.742585 179.890099 
L 296.673449 175.033299 
L 304.027403 171.180311 
L 308.867701 168.465894 
L 313.617245 165.589216 
L 318.223779 162.498025 
L 322.632301 159.140068 
L 326.787808 155.463091 
L 328.751429 153.488469 
L 330.632545 151.420341 
L 332.422906 149.266958 
L 334.10876 147.02832 
L 335.687357 144.712677 
L 337.147697 142.32553 
L 338.48428 139.869628 
L 339.686104 137.347723 
L 340.744919 134.770813 
L 341.655225 132.138901 
L 342.406022 129.460236 
L 342.994558 126.737568 
L 343.429085 123.984648 
L 343.709602 121.206976 
L 343.83611 118.412804 
L 343.816859 115.613131 
L 343.651849 112.813458 
L 343.34108 110.024786 
L 342.892802 107.252615 
L 342.307016 104.507945 
L 341.589221 101.799028 
L 340.736669 99.131363 
L 339.754858 96.513202 
L 338.64654 93.947293 
L 337.406213 91.444639 
L 336.044879 89.010738 
L 334.554287 86.648343 
L 332.945438 84.368452 
L 331.212831 82.173816 
L 329.359216 80.072687 
L 327.390095 78.070563 
L 325.308216 76.175696 
L 323.124581 74.396336 
L 320.844691 72.737984 
L 318.476795 71.21164 
L 316.031894 69.825554 
L 313.518238 68.587978 
L 310.94408 67.501661 
L 308.314917 66.583104 
L 305.644502 65.832308 
L 302.935585 65.263022 
L 300.199166 64.866998 
L 297.437996 64.635984 
L 294.663074 64.564479 
L 291.877152 64.641484 
L 289.08848 64.861498 
L 286.302558 65.213519 
L 283.527637 65.689299 
L 278.032798 66.984629 
L 272.656216 68.686984 
L 270.029804 69.690796 
L 267.455645 70.801864 
L 264.94199 72.02019 
L 262.494338 73.348522 
L 260.123692 74.792361 
L 257.832801 76.351707 
L 255.635415 78.032061 
L 253.534285 79.830672 
L 251.537662 81.755791 
L 249.651046 83.796417 
L 247.877186 85.947049 
L 246.224334 88.196688 
L 244.689739 90.539833 
L 243.281652 92.965483 
L 242.002823 95.468137 
L 240.856003 98.034046 
L 239.84944 100.660458 
L 238.980387 103.339123 
L 238.257092 106.056291 
L 237.685057 108.806461 
L 237.261531 111.581382 
L 236.997514 114.372804 
L 236.893008 117.172477 
L 236.953512 119.97215 
L 237.181776 122.760822 
L 237.583301 125.532993 
L 238.158086 128.277663 
L 238.914383 130.98933 
L 238.914383 130.98933 
" style="fill:none;stroke:#fea952;stroke-linecap:square;"/>
   </g>
   <g id="line2d_13">
    <path clip-path="url(#p7ddeebc311)" d="M 123.893497 295.488 
L 122.276406 289.998379 
L 120.79252 284.261526 
L 119.507566 278.320833 
L 118.485403 272.212397 
L 117.78547 265.947907 
L 117.483471 259.560588 
L 117.504245 256.335726 
L 117.652386 253.075692 
L 117.940771 249.818242 
L 118.377382 246.551665 
L 118.973705 243.283937 
L 119.744459 240.006773 
L 120.692282 236.773322 
L 121.82911 233.558143 
L 123.151468 230.404496 
L 124.647666 227.336221 
L 126.318979 224.343942 
L 128.159272 221.443848 
L 130.155643 218.657542 
L 132.310356 215.979941 
L 134.621002 213.422046 
L 137.090878 210.991022 
L 139.704657 208.714091 
L 142.448552 206.606445 
L 145.277792 204.697673 
L 148.180072 202.975165 
L 151.110972 201.443915 
L 154.076153 200.072219 
L 157.074166 198.842832 
L 160.073159 197.753348 
L 166.064554 195.919095 
L 171.980158 194.465706 
L 177.84733 193.286237 
L 183.646079 192.337413 
L 192.234449 191.235575 
L 203.447107 190.147356 
L 222.407896 188.407899 
L 230.275803 187.421485 
L 235.416208 186.611419 
L 240.48564 185.647233 
L 245.440442 184.518441 
L 250.287419 183.196632 
L 255.070274 181.648009 
L 259.883998 179.856946 
L 267.17218 176.804989 
L 277.065745 172.28345 
L 289.266635 166.443092 
L 296.388072 162.793813 
L 303.25923 159.002279 
L 307.613579 156.371247 
L 311.70042 153.640219 
L 315.506462 150.759295 
L 318.987455 147.706194 
L 322.173625 144.387446 
L 325.019241 140.831903 
L 327.485292 137.066931 
L 328.553603 135.137125 
L 329.510871 133.166864 
L 330.348527 131.174987 
L 331.062758 129.169965 
L 331.653681 127.135992 
L 332.128407 125.022431 
L 332.484078 122.87931 
L 332.720181 120.709424 
L 332.835691 118.488445 
L 332.835237 116.260378 
L 332.718848 114.03183 
L 332.134422 109.548742 
L 331.110655 105.147848 
L 330.436412 102.99396 
L 328.789964 98.832255 
L 326.741354 94.880949 
L 325.566184 92.990972 
L 324.311194 91.18496 
L 322.963475 89.451389 
L 321.51619 87.786433 
L 319.985424 86.206028 
L 318.359146 84.703613 
L 316.653655 83.292518 
L 314.884597 81.984184 
L 313.05142 80.781397 
L 311.172802 79.694909 
L 309.24112 78.723124 
L 307.315808 77.886774 
L 305.33748 77.173184 
L 303.382103 76.597831 
L 301.359942 76.150276 
L 299.281995 75.829376 
L 297.154623 75.633012 
L 294.967024 75.560958 
L 292.742367 75.608085 
L 288.161573 76.055982 
L 283.500226 76.939626 
L 278.847183 78.207051 
L 274.389215 79.790819 
L 270.189125 81.688825 
L 266.313664 83.88627 
L 264.515164 85.090183 
L 262.789156 86.38903 
L 261.169844 87.749837 
L 259.615153 89.22366 
L 258.137474 90.796093 
L 256.742328 92.460436 
L 255.426999 94.223786 
L 254.203609 96.062624 
L 253.077523 97.971065 
L 252.046027 99.9569 
L 251.128144 101.970803 
L 250.313197 104.05527 
L 249.610876 106.168899 
L 249.027258 108.296485 
L 248.559803 110.466233 
L 248.213334 112.617217 
L 247.990537 114.783153 
L 247.891119 116.934797 
L 247.917522 119.074701 
L 248.068848 121.183925 
L 248.350411 123.278158 
L 248.754352 125.322315 
L 249.510649 128.033982 
L 249.510649 128.033982 
" style="fill:none;stroke:#ffffff;stroke-linecap:square;"/>
   </g>
   <g id="line2d_14">
    <path clip-path="url(#p7ddeebc311)" d="M 144.944367 289.091076 
L 143.519769 284.273061 
L 142.242485 279.366757 
L 141.156792 274.400276 
L 140.30884 269.420028 
L 139.738194 264.485826 
L 139.48466 259.646952 
L 139.574261 254.944157 
L 140.037338 250.412503 
L 140.886897 246.094224 
L 141.473669 243.997846 
L 142.162954 241.9602 
L 142.974728 239.949029 
L 143.90968 237.967992 
L 144.955535 236.037467 
L 146.107426 234.168766 
L 147.367257 232.362289 
L 148.716259 230.639618 
L 150.145844 229.011755 
L 151.641714 227.493535 
L 153.213693 226.079738 
L 154.853568 224.777173 
L 156.600611 223.561753 
L 158.445124 222.435084 
L 160.415027 221.381175 
L 164.632961 219.504981 
L 169.207134 217.912068 
L 174.0428 216.575058 
L 179.055429 215.454166 
L 184.140061 214.52639 
L 191.925746 213.420712 
L 199.917937 212.563338 
L 230.659644 209.575182 
L 236.454026 208.739683 
L 242.270068 207.723963 
L 248.096881 206.501878 
L 253.927242 205.035165 
L 259.72386 203.297135 
L 265.351538 201.321947 
L 270.823889 199.167656 
L 278.741819 195.73436 
L 288.930832 191.020318 
L 299.140957 186.104159 
L 306.782432 182.184972 
L 311.896047 179.39954 
L 317.046731 176.403747 
L 322.198771 173.123258 
L 327.263502 169.495492 
L 329.758141 167.520841 
L 332.195109 165.437559 
L 334.58816 163.219987 
L 336.889313 160.890481 
L 339.091465 158.453237 
L 341.210477 155.884626 
L 343.198278 153.224738 
L 345.071363 150.453354 
L 346.810103 147.584129 
L 348.414957 144.602132 
L 349.861337 141.528581 
L 351.141312 138.36664 
L 352.247693 135.107837 
L 353.158363 131.784479 
L 353.86071 128.452704 
L 354.374092 125.089985 
L 354.699024 121.704529 
L 354.836529 118.337162 
L 354.798481 114.965884 
L 354.58485 111.595086 
L 354.200691 108.268718 
L 353.651182 104.956487 
L 352.940723 101.690283 
L 352.067787 98.450208 
L 351.036926 95.268767 
L 349.85372 92.1511 
L 348.503115 89.062331 
L 347.007146 86.074626 
L 345.348404 83.140528 
L 343.54239 80.305713 
L 341.579681 77.551944 
L 339.462187 74.896243 
L 337.202243 72.358941 
L 334.794765 69.935098 
L 332.257287 67.64778 
L 329.595508 65.500154 
L 326.804785 63.491784 
L 323.902169 61.641882 
L 320.890985 59.956199 
L 317.795357 58.452831 
L 314.572351 57.116547 
L 311.292355 55.993023 
L 307.906902 55.066784 
L 304.511228 54.375769 
L 301.116337 53.90462 
L 297.721368 53.638955 
L 294.359124 53.568 
L 291.011937 53.674883 
L 287.709429 53.9476 
L 284.443543 54.371056 
L 281.211692 54.935167 
L 278.038207 55.627045 
L 274.913109 56.435577 
L 271.806078 57.362805 
L 268.728842 58.411251 
L 265.670392 59.590772 
L 262.657669 60.902654 
L 259.694854 62.351554 
L 256.772149 63.953231 
L 253.93372 65.698451 
L 251.150437 67.613231 
L 248.481674 69.675091 
L 245.898726 71.911506 
L 243.460171 74.287921 
L 241.164617 76.79674 
L 239.012044 79.433663 
L 237.021669 82.169591 
L 235.175869 85.017042 
L 233.485781 87.9599 
L 231.959619 90.979374 
L 230.583862 94.097288 
L 229.385684 97.265646 
L 228.349897 100.509347 
L 227.486926 103.816096 
L 226.810311 107.146688 
L 226.309728 110.545546 
L 226.004491 113.962456 
L 225.894897 117.410157 
L 225.989501 120.869598 
L 226.294704 124.337719 
L 226.816191 127.787829 
L 227.56182 131.233011 
L 228.318116 133.944678 
L 228.318116 133.944678 
" style="fill:none;stroke:#ffffff;stroke-linecap:square;"/>
   </g>
   <g id="patch_3">
    <path d="M 57.6 307.584 
L 57.6 41.472 
" style="fill:none;stroke:#000000;stroke-linecap:square;stroke-linejoin:miter;stroke-width:0.8;"/>
   </g>
   <g id="patch_4">
    <path d="M 414.72 307.584 
L 414.72 41.472 
" style="fill:none;stroke:#000000;stroke-linecap:square;stroke-linejoin:miter;stroke-width:0.8;"/>
   </g>
   <g id="patch_5">
    <path d="M 57.6 307.584 
L 414.72 307.584 
" style="fill:none;stroke:#000000;stroke-linecap:square;stroke-linejoin:miter;stroke-width:0.8;"/>
   </g>
   <g id="patch_6">
    <path d="M 57.6 41.472 
L 414.72 41.472 
" style="fill:none;stroke:#000000;stroke-linecap:square;stroke-linejoin:miter;stroke-width:0.8;"/>
   </g>
  </g>
 </g>
 <defs>
  <clipPath id="p7ddeebc311">
   <rect height="266.112" width="357.12" x="57.6" y="41.472"/>
  </clipPath>
 </defs>
</svg>
