<?xml version="1.0" encoding="utf-8" standalone="no"?>
<!DOCTYPE svg PUBLIC "-//W3C//DTD SVG 1.1//EN"
  "http://www.w3.org/Graphics/SVG/1.1/DTD/svg11.dtd">
<!-- Created with matplotlib (https://matplotlib.org/) -->
<svg height="345.6pt" version="1.1" viewBox="0 0 460.8 345.6" width="460.8pt" xmlns="http://www.w3.org/2000/svg" xmlns:xlink="http://www.w3.org/1999/xlink">
 <metadata>
  <rdf:RDF xmlns:cc="http://creativecommons.org/ns#" xmlns:dc="http://purl.org/dc/elements/1.1/" xmlns:rdf="http://www.w3.org/1999/02/22-rdf-syntax-ns#">
   <cc:Work>
    <dc:type rdf:resource="http://purl.org/dc/dcmitype/StillImage"/>
    <dc:date>2021-01-23T12:32:47.168735</dc:date>
    <dc:format>image/svg+xml</dc:format>
    <dc:creator>
     <cc:Agent>
      <dc:title>Matplotlib v3.3.3, https://matplotlib.org/</dc:title>
     </cc:Agent>
    </dc:creator>
   </cc:Work>
  </rdf:RDF>
 </metadata>
 <defs>
  <style type="text/css">*{stroke-linecap:butt;stroke-linejoin:round;}</style>
 </defs>
 <g id="figure_1">
  <g id="patch_1">
   <path d="M 0 345.6 
L 460.8 345.6 
L 460.8 0 
L 0 0 
z
" style="fill:#ffffff;"/>
  </g>
  <g id="axes_1">
   <g id="patch_2">
    <path d="M 57.6 307.584 
L 414.72 307.584 
L 414.72 41.472 
L 57.6 41.472 
z
" style="fill:#7d9051;"/>
   </g>
   <g id="matplotlib.axis_1">
    <g id="xtick_1">
     <g id="line2d_1">
      <defs>
       <path d="M 0 0 
L 0 3.5 
" id="m1bf1184074" style="stroke:#000000;stroke-width:0.8;"/>
      </defs>
      <g>
       <use style="stroke:#000000;stroke-width:0.8;" x="91.192977" xlink:href="#m1bf1184074" y="307.584"/>
      </g>
     </g>
     <g id="text_1">
      <!-- −20 -->
      <g transform="translate(80.640633 322.182437)scale(0.1 -0.1)">
       <defs>
        <path d="M 10.59375 35.5 
L 73.1875 35.5 
L 73.1875 27.203125 
L 10.59375 27.203125 
z
" id="DejaVuSans-8722"/>
        <path d="M 19.1875 8.296875 
L 53.609375 8.296875 
L 53.609375 0 
L 7.328125 0 
L 7.328125 8.296875 
Q 12.9375 14.109375 22.625 23.890625 
Q 32.328125 33.6875 34.8125 36.53125 
Q 39.546875 41.84375 41.421875 45.53125 
Q 43.3125 49.21875 43.3125 52.78125 
Q 43.3125 58.59375 39.234375 62.25 
Q 35.15625 65.921875 28.609375 65.921875 
Q 23.96875 65.921875 18.8125 64.3125 
Q 13.671875 62.703125 7.8125 59.421875 
L 7.8125 69.390625 
Q 13.765625 71.78125 18.9375 73 
Q 24.125 74.21875 28.421875 74.21875 
Q 39.75 74.21875 46.484375 68.546875 
Q 53.21875 62.890625 53.21875 53.421875 
Q 53.21875 48.921875 51.53125 44.890625 
Q 49.859375 40.875 45.40625 35.40625 
Q 44.1875 33.984375 37.640625 27.21875 
Q 31.109375 20.453125 19.1875 8.296875 
z
" id="DejaVuSans-50"/>
        <path d="M 31.78125 66.40625 
Q 24.171875 66.40625 20.328125 58.90625 
Q 16.5 51.421875 16.5 36.375 
Q 16.5 21.390625 20.328125 13.890625 
Q 24.171875 6.390625 31.78125 6.390625 
Q 39.453125 6.390625 43.28125 13.890625 
Q 47.125 21.390625 47.125 36.375 
Q 47.125 51.421875 43.28125 58.90625 
Q 39.453125 66.40625 31.78125 66.40625 
z
M 31.78125 74.21875 
Q 44.046875 74.21875 50.515625 64.515625 
Q 56.984375 54.828125 56.984375 36.375 
Q 56.984375 17.96875 50.515625 8.265625 
Q 44.046875 -1.421875 31.78125 -1.421875 
Q 19.53125 -1.421875 13.0625 8.265625 
Q 6.59375 17.96875 6.59375 36.375 
Q 6.59375 54.828125 13.0625 64.515625 
Q 19.53125 74.21875 31.78125 74.21875 
z
" id="DejaVuSans-48"/>
       </defs>
       <use xlink:href="#DejaVuSans-8722"/>
       <use x="83.789062" xlink:href="#DejaVuSans-50"/>
       <use x="147.412109" xlink:href="#DejaVuSans-48"/>
      </g>
     </g>
    </g>
    <g id="xtick_2">
     <g id="line2d_2">
      <g>
       <use style="stroke:#000000;stroke-width:0.8;" x="135.775528" xlink:href="#m1bf1184074" y="307.584"/>
      </g>
     </g>
     <g id="text_2">
      <!-- 0 -->
      <g transform="translate(132.594278 322.182437)scale(0.1 -0.1)">
       <use xlink:href="#DejaVuSans-48"/>
      </g>
     </g>
    </g>
    <g id="xtick_3">
     <g id="line2d_3">
      <g>
       <use style="stroke:#000000;stroke-width:0.8;" x="180.358078" xlink:href="#m1bf1184074" y="307.584"/>
      </g>
     </g>
     <g id="text_3">
      <!-- 20 -->
      <g transform="translate(173.995578 322.182437)scale(0.1 -0.1)">
       <use xlink:href="#DejaVuSans-50"/>
       <use x="63.623047" xlink:href="#DejaVuSans-48"/>
      </g>
     </g>
    </g>
    <g id="xtick_4">
     <g id="line2d_4">
      <g>
       <use style="stroke:#000000;stroke-width:0.8;" x="224.940629" xlink:href="#m1bf1184074" y="307.584"/>
      </g>
     </g>
     <g id="text_4">
      <!-- 40 -->
      <g transform="translate(218.578129 322.182437)scale(0.1 -0.1)">
       <defs>
        <path d="M 37.796875 64.3125 
L 12.890625 25.390625 
L 37.796875 25.390625 
z
M 35.203125 72.90625 
L 47.609375 72.90625 
L 47.609375 25.390625 
L 58.015625 25.390625 
L 58.015625 17.1875 
L 47.609375 17.1875 
L 47.609375 0 
L 37.796875 0 
L 37.796875 17.1875 
L 4.890625 17.1875 
L 4.890625 26.703125 
z
" id="DejaVuSans-52"/>
       </defs>
       <use xlink:href="#DejaVuSans-52"/>
       <use x="63.623047" xlink:href="#DejaVuSans-48"/>
      </g>
     </g>
    </g>
    <g id="xtick_5">
     <g id="line2d_5">
      <g>
       <use style="stroke:#000000;stroke-width:0.8;" x="269.52318" xlink:href="#m1bf1184074" y="307.584"/>
      </g>
     </g>
     <g id="text_5">
      <!-- 60 -->
      <g transform="translate(263.16068 322.182437)scale(0.1 -0.1)">
       <defs>
        <path d="M 33.015625 40.375 
Q 26.375 40.375 22.484375 35.828125 
Q 18.609375 31.296875 18.609375 23.390625 
Q 18.609375 15.53125 22.484375 10.953125 
Q 26.375 6.390625 33.015625 6.390625 
Q 39.65625 6.390625 43.53125 10.953125 
Q 47.40625 15.53125 47.40625 23.390625 
Q 47.40625 31.296875 43.53125 35.828125 
Q 39.65625 40.375 33.015625 40.375 
z
M 52.59375 71.296875 
L 52.59375 62.3125 
Q 48.875 64.0625 45.09375 64.984375 
Q 41.3125 65.921875 37.59375 65.921875 
Q 27.828125 65.921875 22.671875 59.328125 
Q 17.53125 52.734375 16.796875 39.40625 
Q 19.671875 43.65625 24.015625 45.921875 
Q 28.375 48.1875 33.59375 48.1875 
Q 44.578125 48.1875 50.953125 41.515625 
Q 57.328125 34.859375 57.328125 23.390625 
Q 57.328125 12.15625 50.6875 5.359375 
Q 44.046875 -1.421875 33.015625 -1.421875 
Q 20.359375 -1.421875 13.671875 8.265625 
Q 6.984375 17.96875 6.984375 36.375 
Q 6.984375 53.65625 15.1875 63.9375 
Q 23.390625 74.21875 37.203125 74.21875 
Q 40.921875 74.21875 44.703125 73.484375 
Q 48.484375 72.75 52.59375 71.296875 
z
" id="DejaVuSans-54"/>
       </defs>
       <use xlink:href="#DejaVuSans-54"/>
       <use x="63.623047" xlink:href="#DejaVuSans-48"/>
      </g>
     </g>
    </g>
    <g id="xtick_6">
     <g id="line2d_6">
      <g>
       <use style="stroke:#000000;stroke-width:0.8;" x="314.105731" xlink:href="#m1bf1184074" y="307.584"/>
      </g>
     </g>
     <g id="text_6">
      <!-- 80 -->
      <g transform="translate(307.743231 322.182437)scale(0.1 -0.1)">
       <defs>
        <path d="M 31.78125 34.625 
Q 24.75 34.625 20.71875 30.859375 
Q 16.703125 27.09375 16.703125 20.515625 
Q 16.703125 13.921875 20.71875 10.15625 
Q 24.75 6.390625 31.78125 6.390625 
Q 38.8125 6.390625 42.859375 10.171875 
Q 46.921875 13.96875 46.921875 20.515625 
Q 46.921875 27.09375 42.890625 30.859375 
Q 38.875 34.625 31.78125 34.625 
z
M 21.921875 38.8125 
Q 15.578125 40.375 12.03125 44.71875 
Q 8.5 49.078125 8.5 55.328125 
Q 8.5 64.0625 14.71875 69.140625 
Q 20.953125 74.21875 31.78125 74.21875 
Q 42.671875 74.21875 48.875 69.140625 
Q 55.078125 64.0625 55.078125 55.328125 
Q 55.078125 49.078125 51.53125 44.71875 
Q 48 40.375 41.703125 38.8125 
Q 48.828125 37.15625 52.796875 32.3125 
Q 56.78125 27.484375 56.78125 20.515625 
Q 56.78125 9.90625 50.3125 4.234375 
Q 43.84375 -1.421875 31.78125 -1.421875 
Q 19.734375 -1.421875 13.25 4.234375 
Q 6.78125 9.90625 6.78125 20.515625 
Q 6.78125 27.484375 10.78125 32.3125 
Q 14.796875 37.15625 21.921875 38.8125 
z
M 18.3125 54.390625 
Q 18.3125 48.734375 21.84375 45.5625 
Q 25.390625 42.390625 31.78125 42.390625 
Q 38.140625 42.390625 41.71875 45.5625 
Q 45.3125 48.734375 45.3125 54.390625 
Q 45.3125 60.0625 41.71875 63.234375 
Q 38.140625 66.40625 31.78125 66.40625 
Q 25.390625 66.40625 21.84375 63.234375 
Q 18.3125 60.0625 18.3125 54.390625 
z
" id="DejaVuSans-56"/>
       </defs>
       <use xlink:href="#DejaVuSans-56"/>
       <use x="63.623047" xlink:href="#DejaVuSans-48"/>
      </g>
     </g>
    </g>
    <g id="xtick_7">
     <g id="line2d_7">
      <g>
       <use style="stroke:#000000;stroke-width:0.8;" x="358.688282" xlink:href="#m1bf1184074" y="307.584"/>
      </g>
     </g>
     <g id="text_7">
      <!-- 100 -->
      <g transform="translate(349.144532 322.182437)scale(0.1 -0.1)">
       <defs>
        <path d="M 12.40625 8.296875 
L 28.515625 8.296875 
L 28.515625 63.921875 
L 10.984375 60.40625 
L 10.984375 69.390625 
L 28.421875 72.90625 
L 38.28125 72.90625 
L 38.28125 8.296875 
L 54.390625 8.296875 
L 54.390625 0 
L 12.40625 0 
z
" id="DejaVuSans-49"/>
       </defs>
       <use xlink:href="#DejaVuSans-49"/>
       <use x="63.623047" xlink:href="#DejaVuSans-48"/>
       <use x="127.246094" xlink:href="#DejaVuSans-48"/>
      </g>
     </g>
    </g>
    <g id="xtick_8">
     <g id="line2d_8">
      <g>
       <use style="stroke:#000000;stroke-width:0.8;" x="403.270832" xlink:href="#m1bf1184074" y="307.584"/>
      </g>
     </g>
     <g id="text_8">
      <!-- 120 -->
      <g transform="translate(393.727082 322.182437)scale(0.1 -0.1)">
       <use xlink:href="#DejaVuSans-49"/>
       <use x="63.623047" xlink:href="#DejaVuSans-50"/>
       <use x="127.246094" xlink:href="#DejaVuSans-48"/>
      </g>
     </g>
    </g>
   </g>
   <g id="matplotlib.axis_2">
    <g id="ytick_1">
     <g id="line2d_9">
      <defs>
       <path d="M 0 0 
L -3.5 0 
" id="mec04f083dc" style="stroke:#000000;stroke-width:0.8;"/>
      </defs>
      <g>
       <use style="stroke:#000000;stroke-width:0.8;" x="57.6" xlink:href="#mec04f083dc" y="269.166012"/>
      </g>
     </g>
     <g id="text_9">
      <!-- 20 -->
      <g transform="translate(37.875 272.965231)scale(0.1 -0.1)">
       <use xlink:href="#DejaVuSans-50"/>
       <use x="63.623047" xlink:href="#DejaVuSans-48"/>
      </g>
     </g>
    </g>
    <g id="ytick_2">
     <g id="line2d_10">
      <g>
       <use style="stroke:#000000;stroke-width:0.8;" x="57.6" xlink:href="#mec04f083dc" y="224.583462"/>
      </g>
     </g>
     <g id="text_10">
      <!-- 40 -->
      <g transform="translate(37.875 228.38268)scale(0.1 -0.1)">
       <use xlink:href="#DejaVuSans-52"/>
       <use x="63.623047" xlink:href="#DejaVuSans-48"/>
      </g>
     </g>
    </g>
    <g id="ytick_3">
     <g id="line2d_11">
      <g>
       <use style="stroke:#000000;stroke-width:0.8;" x="57.6" xlink:href="#mec04f083dc" y="180.000911"/>
      </g>
     </g>
     <g id="text_11">
      <!-- 60 -->
      <g transform="translate(37.875 183.800129)scale(0.1 -0.1)">
       <use xlink:href="#DejaVuSans-54"/>
       <use x="63.623047" xlink:href="#DejaVuSans-48"/>
      </g>
     </g>
    </g>
    <g id="ytick_4">
     <g id="line2d_12">
      <g>
       <use style="stroke:#000000;stroke-width:0.8;" x="57.6" xlink:href="#mec04f083dc" y="135.41836"/>
      </g>
     </g>
     <g id="text_12">
      <!-- 80 -->
      <g transform="translate(37.875 139.217579)scale(0.1 -0.1)">
       <use xlink:href="#DejaVuSans-56"/>
       <use x="63.623047" xlink:href="#DejaVuSans-48"/>
      </g>
     </g>
    </g>
    <g id="ytick_5">
     <g id="line2d_13">
      <g>
       <use style="stroke:#000000;stroke-width:0.8;" x="57.6" xlink:href="#mec04f083dc" y="90.835809"/>
      </g>
     </g>
     <g id="text_13">
      <!-- 100 -->
      <g transform="translate(31.5125 94.635028)scale(0.1 -0.1)">
       <use xlink:href="#DejaVuSans-49"/>
       <use x="63.623047" xlink:href="#DejaVuSans-48"/>
       <use x="127.246094" xlink:href="#DejaVuSans-48"/>
      </g>
     </g>
    </g>
    <g id="ytick_6">
     <g id="line2d_14">
      <g>
       <use style="stroke:#000000;stroke-width:0.8;" x="57.6" xlink:href="#mec04f083dc" y="46.253258"/>
      </g>
     </g>
     <g id="text_14">
      <!-- 120 -->
      <g transform="translate(31.5125 50.052477)scale(0.1 -0.1)">
       <use xlink:href="#DejaVuSans-49"/>
       <use x="63.623047" xlink:href="#DejaVuSans-50"/>
       <use x="127.246094" xlink:href="#DejaVuSans-48"/>
      </g>
     </g>
    </g>
   </g>
   <g id="line2d_15">
    <path clip-path="url(#pfa42f6356e)" d="M 315.20692 291.457288 
L 311.123158 283.572864 
L 307.87309 277.710258 
L 304.422401 271.947963 
L 300.728736 266.343937 
L 298.111741 262.723834 
L 295.358768 259.215187 
L 292.454215 255.831371 
L 289.393623 252.59022 
L 284.592082 247.922427 
L 279.777167 243.270238 
L 276.692054 240.062523 
L 273.798647 236.683166 
L 271.130381 233.112103 
L 268.676112 229.376086 
L 266.426922 225.501862 
L 264.369437 221.513953 
L 262.492512 217.445795 
L 260.800604 213.304076 
L 259.309318 209.095483 
L 258.038715 204.815558 
L 257.008858 200.466531 
L 256.239809 196.0484 
L 255.749401 191.578999 
L 255.559925 187.087307 
L 255.691444 182.606761 
L 256.166248 178.168568 
L 257.0044 173.803936 
L 258.176921 169.517324 
L 259.616937 165.299815 
L 261.250888 161.131346 
L 264.808575 152.879116 
L 267.445633 146.691058 
L 269.046147 142.524819 
L 270.434893 138.300622 
L 271.536082 133.991718 
L 272.287298 129.586962 
L 272.675166 125.117562 
L 272.697458 120.619182 
L 272.354172 116.134178 
L 271.645309 111.700443 
L 270.573099 107.353644 
L 269.162061 103.107156 
L 267.438946 98.974354 
L 265.428273 94.964153 
L 263.156792 91.08993 
L 260.649023 87.362828 
L 257.911655 83.805141 
L 254.946915 80.445846 
L 251.761492 77.309463 
L 248.353156 74.422743 
L 244.733053 71.805747 
L 240.916786 69.478538 
L 236.917731 67.45449 
L 232.758179 65.746979 
L 228.458192 64.369378 
L 224.037833 63.343979 
L 219.546141 62.70199 
L 215.038845 62.481307 
L 212.794113 62.541493 
L 210.567215 62.722053 
L 208.360379 63.027443 
L 206.18475 63.462123 
L 204.042559 64.028321 
L 201.936033 64.719351 
L 197.825522 66.429092 
L 193.8443 68.508868 
L 189.987909 70.873972 
L 186.251892 73.439698 
L 182.634018 76.1414 
L 179.161037 78.987996 
L 175.868616 82.004006 
L 172.787961 85.213949 
L 169.950282 88.644577 
L 167.391244 92.313721 
L 165.12645 96.190173 
L 163.171505 100.242727 
L 161.544242 104.431258 
L 160.260265 108.720099 
L 159.324031 113.075815 
L 158.693188 117.485029 
L 158.312007 121.934367 
L 158.129219 126.410456 
L 158.098011 133.153566 
L 158.225071 148.799813 
L 158.066803 153.195652 
L 158.066803 153.195652 
" style="fill:none;stroke:#fea952;stroke-linecap:square;"/>
   </g>
   <g id="line2d_16">
    <path clip-path="url(#pfa42f6356e)" d="M 307.253461 295.488 
L 303.284186 287.821943 
L 300.166049 282.194193 
L 296.899885 276.735019 
L 293.458072 271.505486 
L 291.040992 268.156021 
L 288.52574 264.943527 
L 285.895837 261.872218 
L 283.111016 258.917384 
L 278.44032 254.376881 
L 273.423351 249.52589 
L 270.018907 245.976343 
L 266.742165 242.133874 
L 263.74717 238.111338 
L 261.021662 233.94922 
L 258.547912 229.676231 
L 256.310888 225.330226 
L 254.276413 220.90988 
L 252.435835 216.391922 
L 250.796788 211.748971 
L 249.392632 206.99487 
L 248.248199 202.126352 
L 247.393246 197.163067 
L 246.848676 192.10933 
L 246.643948 186.989816 
L 246.808554 181.833176 
L 247.375441 176.676632 
L 248.363668 171.603501 
L 249.70116 166.748635 
L 251.284709 162.125209 
L 253.023148 157.695003 
L 256.635594 149.314493 
L 259.155257 143.408709 
L 260.618048 139.614268 
L 261.839206 135.930323 
L 262.779948 132.308189 
L 263.421396 128.638311 
L 263.761397 124.896486 
L 263.795169 121.122585 
L 263.521702 117.355501 
L 262.9449 113.651605 
L 262.058214 109.999563 
L 260.872317 106.391102 
L 259.40272 102.837413 
L 257.667044 99.353628 
L 255.683833 95.953986 
L 253.494621 92.684358 
L 251.125482 89.588912 
L 248.580052 86.688217 
L 245.869793 84.002149 
L 242.986176 81.543114 
L 239.937941 79.323131 
L 236.73183 77.35193 
L 233.360545 75.630711 
L 229.86724 74.181824 
L 226.266758 73.012396 
L 222.576225 72.139879 
L 218.895239 71.594711 
L 215.277831 71.394614 
L 211.789468 71.554394 
L 208.463213 72.082608 
L 205.154841 73.034604 
L 201.798909 74.411344 
L 198.391646 76.178666 
L 194.950073 78.282149 
L 191.515644 80.636715 
L 188.201961 83.105749 
L 185.081532 85.655221 
L 182.191376 88.291044 
L 179.548416 91.027762 
L 177.157536 93.894305 
L 174.999321 96.963593 
L 173.076731 100.22715 
L 171.416956 103.636353 
L 170.031999 107.16295 
L 168.940099 110.760841 
L 168.129832 114.476535 
L 167.566847 118.35814 
L 167.217459 122.378308 
L 167.007794 128.683953 
L 167.080269 137.505833 
L 167.16768 146.694033 
L 166.973985 153.603407 
L 166.973985 153.603407 
" style="fill:none;stroke:#ffffff;stroke-linecap:square;"/>
   </g>
   <g id="line2d_17">
    <path clip-path="url(#pfa42f6356e)" d="M 323.160379 287.426575 
L 318.96213 279.323785 
L 315.580131 273.226323 
L 311.944917 267.160908 
L 309.356198 263.170264 
L 306.616814 259.237117 
L 303.710244 255.378369 
L 300.623075 251.619375 
L 297.351657 247.99134 
L 294.01716 244.616575 
L 283.365201 234.148703 
L 280.855128 231.232458 
L 278.513592 228.112869 
L 276.330561 224.802952 
L 274.305932 221.327493 
L 272.427986 217.69768 
L 270.70861 213.98171 
L 269.165373 210.216231 
L 267.821847 206.441996 
L 266.684798 202.636247 
L 265.769517 198.80671 
L 265.086372 194.933733 
L 264.650126 191.048668 
L 264.475902 187.184798 
L 264.574333 183.380346 
L 264.957054 179.660504 
L 265.645131 176.004371 
L 266.652681 172.286013 
L 267.949166 168.47442 
L 270.304479 162.588874 
L 276.623912 147.725731 
L 278.28395 143.078565 
L 279.70451 138.20315 
L 280.776482 133.114913 
L 281.422576 127.950952 
L 281.646421 122.738192 
L 281.445582 117.514759 
L 280.819522 112.316033 
L 279.764567 107.194657 
L 278.313881 102.239488 
L 276.504579 97.447521 
L 274.370076 92.823822 
L 271.943365 88.380118 
L 269.251644 84.11623 
L 266.286603 80.00997 
L 263.040672 76.085205 
L 259.524944 72.386879 
L 255.716912 68.920906 
L 251.648457 65.749736 
L 247.337237 62.899455 
L 242.803842 60.391829 
L 238.071871 58.241212 
L 233.174138 56.471496 
L 228.098049 55.087033 
L 225.49944 54.548079 
L 222.858191 54.118511 
L 220.197042 53.80927 
L 217.512913 53.62325 
L 214.799858 53.568 
L 212.073518 53.654149 
L 209.344962 53.889711 
L 206.61343 54.283741 
L 203.906287 54.841638 
L 201.263287 55.556025 
L 198.717225 56.404098 
L 196.235819 57.376401 
L 191.53787 59.606395 
L 187.125946 62.13087 
L 182.9716 64.844597 
L 179.020055 67.684293 
L 175.141397 70.719209 
L 171.365073 73.991906 
L 167.757715 77.52321 
L 164.358531 81.35091 
L 161.218842 85.500087 
L 158.434462 89.884034 
L 155.999546 94.486758 
L 153.941543 99.259717 
L 152.265055 104.183126 
L 150.997955 109.185554 
L 150.128756 114.151334 
L 149.581887 119.056062 
L 149.288557 123.886417 
L 149.168284 130.957398 
L 149.259932 150.596665 
L 149.159621 152.787897 
L 149.159621 152.787897 
" style="fill:none;stroke:#ffffff;stroke-linecap:square;"/>
   </g>
   <g id="patch_3">
    <path d="M 57.6 307.584 
L 57.6 41.472 
" style="fill:none;stroke:#000000;stroke-linecap:square;stroke-linejoin:miter;stroke-width:0.8;"/>
   </g>
   <g id="patch_4">
    <path d="M 414.72 307.584 
L 414.72 41.472 
" style="fill:none;stroke:#000000;stroke-linecap:square;stroke-linejoin:miter;stroke-width:0.8;"/>
   </g>
   <g id="patch_5">
    <path d="M 57.6 307.584 
L 414.72 307.584 
" style="fill:none;stroke:#000000;stroke-linecap:square;stroke-linejoin:miter;stroke-width:0.8;"/>
   </g>
   <g id="patch_6">
    <path d="M 57.6 41.472 
L 414.72 41.472 
" style="fill:none;stroke:#000000;stroke-linecap:square;stroke-linejoin:miter;stroke-width:0.8;"/>
   </g>
  </g>
 </g>
 <defs>
  <clipPath id="pfa42f6356e">
   <rect height="266.112" width="357.12" x="57.6" y="41.472"/>
  </clipPath>
 </defs>
</svg>
