<?xml version="1.0" encoding="utf-8" standalone="no"?>
<!DOCTYPE svg PUBLIC "-//W3C//DTD SVG 1.1//EN"
  "http://www.w3.org/Graphics/SVG/1.1/DTD/svg11.dtd">
<!-- Created with matplotlib (https://matplotlib.org/) -->
<svg height="345.6pt" version="1.1" viewBox="0 0 460.8 345.6" width="460.8pt" xmlns="http://www.w3.org/2000/svg" xmlns:xlink="http://www.w3.org/1999/xlink">
 <metadata>
  <rdf:RDF xmlns:cc="http://creativecommons.org/ns#" xmlns:dc="http://purl.org/dc/elements/1.1/" xmlns:rdf="http://www.w3.org/1999/02/22-rdf-syntax-ns#">
   <cc:Work>
    <dc:type rdf:resource="http://purl.org/dc/dcmitype/StillImage"/>
    <dc:date>2021-01-23T11:58:15.014545</dc:date>
    <dc:format>image/svg+xml</dc:format>
    <dc:creator>
     <cc:Agent>
      <dc:title>Matplotlib v3.3.3, https://matplotlib.org/</dc:title>
     </cc:Agent>
    </dc:creator>
   </cc:Work>
  </rdf:RDF>
 </metadata>
 <defs>
  <style type="text/css">*{stroke-linecap:butt;stroke-linejoin:round;}</style>
 </defs>
 <g id="figure_1">
  <g id="patch_1">
   <path d="M 0 345.6 
L 460.8 345.6 
L 460.8 0 
L 0 0 
z
" style="fill:#ffffff;"/>
  </g>
  <g id="axes_1">
   <g id="patch_2">
    <path d="M 57.6 307.584 
L 414.72 307.584 
L 414.72 41.472 
L 57.6 41.472 
z
" style="fill:#7d9051;"/>
   </g>
   <g id="matplotlib.axis_1">
    <g id="xtick_1">
     <g id="line2d_1">
      <defs>
       <path d="M 0 0 
L 0 3.5 
" id="m21cb82f4ce" style="stroke:#000000;stroke-width:0.8;"/>
      </defs>
      <g>
       <use style="stroke:#000000;stroke-width:0.8;" x="95.292558" xlink:href="#m21cb82f4ce" y="307.584"/>
      </g>
     </g>
     <g id="text_1">
      <!-- 0 -->
      <g transform="translate(92.111308 322.182437)scale(0.1 -0.1)">
       <defs>
        <path d="M 31.78125 66.40625 
Q 24.171875 66.40625 20.328125 58.90625 
Q 16.5 51.421875 16.5 36.375 
Q 16.5 21.390625 20.328125 13.890625 
Q 24.171875 6.390625 31.78125 6.390625 
Q 39.453125 6.390625 43.28125 13.890625 
Q 47.125 21.390625 47.125 36.375 
Q 47.125 51.421875 43.28125 58.90625 
Q 39.453125 66.40625 31.78125 66.40625 
z
M 31.78125 74.21875 
Q 44.046875 74.21875 50.515625 64.515625 
Q 56.984375 54.828125 56.984375 36.375 
Q 56.984375 17.96875 50.515625 8.265625 
Q 44.046875 -1.421875 31.78125 -1.421875 
Q 19.53125 -1.421875 13.0625 8.265625 
Q 6.59375 17.96875 6.59375 36.375 
Q 6.59375 54.828125 13.0625 64.515625 
Q 19.53125 74.21875 31.78125 74.21875 
z
" id="DejaVuSans-48"/>
       </defs>
       <use xlink:href="#DejaVuSans-48"/>
      </g>
     </g>
    </g>
    <g id="xtick_2">
     <g id="line2d_2">
      <g>
       <use style="stroke:#000000;stroke-width:0.8;" x="141.197083" xlink:href="#m21cb82f4ce" y="307.584"/>
      </g>
     </g>
     <g id="text_2">
      <!-- 20 -->
      <g transform="translate(134.834583 322.182437)scale(0.1 -0.1)">
       <defs>
        <path d="M 19.1875 8.296875 
L 53.609375 8.296875 
L 53.609375 0 
L 7.328125 0 
L 7.328125 8.296875 
Q 12.9375 14.109375 22.625 23.890625 
Q 32.328125 33.6875 34.8125 36.53125 
Q 39.546875 41.84375 41.421875 45.53125 
Q 43.3125 49.21875 43.3125 52.78125 
Q 43.3125 58.59375 39.234375 62.25 
Q 35.15625 65.921875 28.609375 65.921875 
Q 23.96875 65.921875 18.8125 64.3125 
Q 13.671875 62.703125 7.8125 59.421875 
L 7.8125 69.390625 
Q 13.765625 71.78125 18.9375 73 
Q 24.125 74.21875 28.421875 74.21875 
Q 39.75 74.21875 46.484375 68.546875 
Q 53.21875 62.890625 53.21875 53.421875 
Q 53.21875 48.921875 51.53125 44.890625 
Q 49.859375 40.875 45.40625 35.40625 
Q 44.1875 33.984375 37.640625 27.21875 
Q 31.109375 20.453125 19.1875 8.296875 
z
" id="DejaVuSans-50"/>
       </defs>
       <use xlink:href="#DejaVuSans-50"/>
       <use x="63.623047" xlink:href="#DejaVuSans-48"/>
      </g>
     </g>
    </g>
    <g id="xtick_3">
     <g id="line2d_3">
      <g>
       <use style="stroke:#000000;stroke-width:0.8;" x="187.101607" xlink:href="#m21cb82f4ce" y="307.584"/>
      </g>
     </g>
     <g id="text_3">
      <!-- 40 -->
      <g transform="translate(180.739107 322.182437)scale(0.1 -0.1)">
       <defs>
        <path d="M 37.796875 64.3125 
L 12.890625 25.390625 
L 37.796875 25.390625 
z
M 35.203125 72.90625 
L 47.609375 72.90625 
L 47.609375 25.390625 
L 58.015625 25.390625 
L 58.015625 17.1875 
L 47.609375 17.1875 
L 47.609375 0 
L 37.796875 0 
L 37.796875 17.1875 
L 4.890625 17.1875 
L 4.890625 26.703125 
z
" id="DejaVuSans-52"/>
       </defs>
       <use xlink:href="#DejaVuSans-52"/>
       <use x="63.623047" xlink:href="#DejaVuSans-48"/>
      </g>
     </g>
    </g>
    <g id="xtick_4">
     <g id="line2d_4">
      <g>
       <use style="stroke:#000000;stroke-width:0.8;" x="233.006132" xlink:href="#m21cb82f4ce" y="307.584"/>
      </g>
     </g>
     <g id="text_4">
      <!-- 60 -->
      <g transform="translate(226.643632 322.182437)scale(0.1 -0.1)">
       <defs>
        <path d="M 33.015625 40.375 
Q 26.375 40.375 22.484375 35.828125 
Q 18.609375 31.296875 18.609375 23.390625 
Q 18.609375 15.53125 22.484375 10.953125 
Q 26.375 6.390625 33.015625 6.390625 
Q 39.65625 6.390625 43.53125 10.953125 
Q 47.40625 15.53125 47.40625 23.390625 
Q 47.40625 31.296875 43.53125 35.828125 
Q 39.65625 40.375 33.015625 40.375 
z
M 52.59375 71.296875 
L 52.59375 62.3125 
Q 48.875 64.0625 45.09375 64.984375 
Q 41.3125 65.921875 37.59375 65.921875 
Q 27.828125 65.921875 22.671875 59.328125 
Q 17.53125 52.734375 16.796875 39.40625 
Q 19.671875 43.65625 24.015625 45.921875 
Q 28.375 48.1875 33.59375 48.1875 
Q 44.578125 48.1875 50.953125 41.515625 
Q 57.328125 34.859375 57.328125 23.390625 
Q 57.328125 12.15625 50.6875 5.359375 
Q 44.046875 -1.421875 33.015625 -1.421875 
Q 20.359375 -1.421875 13.671875 8.265625 
Q 6.984375 17.96875 6.984375 36.375 
Q 6.984375 53.65625 15.1875 63.9375 
Q 23.390625 74.21875 37.203125 74.21875 
Q 40.921875 74.21875 44.703125 73.484375 
Q 48.484375 72.75 52.59375 71.296875 
z
" id="DejaVuSans-54"/>
       </defs>
       <use xlink:href="#DejaVuSans-54"/>
       <use x="63.623047" xlink:href="#DejaVuSans-48"/>
      </g>
     </g>
    </g>
    <g id="xtick_5">
     <g id="line2d_5">
      <g>
       <use style="stroke:#000000;stroke-width:0.8;" x="278.910657" xlink:href="#m21cb82f4ce" y="307.584"/>
      </g>
     </g>
     <g id="text_5">
      <!-- 80 -->
      <g transform="translate(272.548157 322.182437)scale(0.1 -0.1)">
       <defs>
        <path d="M 31.78125 34.625 
Q 24.75 34.625 20.71875 30.859375 
Q 16.703125 27.09375 16.703125 20.515625 
Q 16.703125 13.921875 20.71875 10.15625 
Q 24.75 6.390625 31.78125 6.390625 
Q 38.8125 6.390625 42.859375 10.171875 
Q 46.921875 13.96875 46.921875 20.515625 
Q 46.921875 27.09375 42.890625 30.859375 
Q 38.875 34.625 31.78125 34.625 
z
M 21.921875 38.8125 
Q 15.578125 40.375 12.03125 44.71875 
Q 8.5 49.078125 8.5 55.328125 
Q 8.5 64.0625 14.71875 69.140625 
Q 20.953125 74.21875 31.78125 74.21875 
Q 42.671875 74.21875 48.875 69.140625 
Q 55.078125 64.0625 55.078125 55.328125 
Q 55.078125 49.078125 51.53125 44.71875 
Q 48 40.375 41.703125 38.8125 
Q 48.828125 37.15625 52.796875 32.3125 
Q 56.78125 27.484375 56.78125 20.515625 
Q 56.78125 9.90625 50.3125 4.234375 
Q 43.84375 -1.421875 31.78125 -1.421875 
Q 19.734375 -1.421875 13.25 4.234375 
Q 6.78125 9.90625 6.78125 20.515625 
Q 6.78125 27.484375 10.78125 32.3125 
Q 14.796875 37.15625 21.921875 38.8125 
z
M 18.3125 54.390625 
Q 18.3125 48.734375 21.84375 45.5625 
Q 25.390625 42.390625 31.78125 42.390625 
Q 38.140625 42.390625 41.71875 45.5625 
Q 45.3125 48.734375 45.3125 54.390625 
Q 45.3125 60.0625 41.71875 63.234375 
Q 38.140625 66.40625 31.78125 66.40625 
Q 25.390625 66.40625 21.84375 63.234375 
Q 18.3125 60.0625 18.3125 54.390625 
z
" id="DejaVuSans-56"/>
       </defs>
       <use xlink:href="#DejaVuSans-56"/>
       <use x="63.623047" xlink:href="#DejaVuSans-48"/>
      </g>
     </g>
    </g>
    <g id="xtick_6">
     <g id="line2d_6">
      <g>
       <use style="stroke:#000000;stroke-width:0.8;" x="324.815181" xlink:href="#m21cb82f4ce" y="307.584"/>
      </g>
     </g>
     <g id="text_6">
      <!-- 100 -->
      <g transform="translate(315.271431 322.182437)scale(0.1 -0.1)">
       <defs>
        <path d="M 12.40625 8.296875 
L 28.515625 8.296875 
L 28.515625 63.921875 
L 10.984375 60.40625 
L 10.984375 69.390625 
L 28.421875 72.90625 
L 38.28125 72.90625 
L 38.28125 8.296875 
L 54.390625 8.296875 
L 54.390625 0 
L 12.40625 0 
z
" id="DejaVuSans-49"/>
       </defs>
       <use xlink:href="#DejaVuSans-49"/>
       <use x="63.623047" xlink:href="#DejaVuSans-48"/>
       <use x="127.246094" xlink:href="#DejaVuSans-48"/>
      </g>
     </g>
    </g>
    <g id="xtick_7">
     <g id="line2d_7">
      <g>
       <use style="stroke:#000000;stroke-width:0.8;" x="370.719706" xlink:href="#m21cb82f4ce" y="307.584"/>
      </g>
     </g>
     <g id="text_7">
      <!-- 120 -->
      <g transform="translate(361.175956 322.182437)scale(0.1 -0.1)">
       <use xlink:href="#DejaVuSans-49"/>
       <use x="63.623047" xlink:href="#DejaVuSans-50"/>
       <use x="127.246094" xlink:href="#DejaVuSans-48"/>
      </g>
     </g>
    </g>
   </g>
   <g id="matplotlib.axis_2">
    <g id="ytick_1">
     <g id="line2d_8">
      <defs>
       <path d="M 0 0 
L -3.5 0 
" id="m89fe209446" style="stroke:#000000;stroke-width:0.8;"/>
      </defs>
      <g>
       <use style="stroke:#000000;stroke-width:0.8;" x="57.6" xlink:href="#m89fe209446" y="271.532884"/>
      </g>
     </g>
     <g id="text_8">
      <!-- 20 -->
      <g transform="translate(37.875 275.332103)scale(0.1 -0.1)">
       <use xlink:href="#DejaVuSans-50"/>
       <use x="63.623047" xlink:href="#DejaVuSans-48"/>
      </g>
     </g>
    </g>
    <g id="ytick_2">
     <g id="line2d_9">
      <g>
       <use style="stroke:#000000;stroke-width:0.8;" x="57.6" xlink:href="#m89fe209446" y="225.628359"/>
      </g>
     </g>
     <g id="text_9">
      <!-- 40 -->
      <g transform="translate(37.875 229.427578)scale(0.1 -0.1)">
       <use xlink:href="#DejaVuSans-52"/>
       <use x="63.623047" xlink:href="#DejaVuSans-48"/>
      </g>
     </g>
    </g>
    <g id="ytick_3">
     <g id="line2d_10">
      <g>
       <use style="stroke:#000000;stroke-width:0.8;" x="57.6" xlink:href="#m89fe209446" y="179.723835"/>
      </g>
     </g>
     <g id="text_10">
      <!-- 60 -->
      <g transform="translate(37.875 183.523054)scale(0.1 -0.1)">
       <use xlink:href="#DejaVuSans-54"/>
       <use x="63.623047" xlink:href="#DejaVuSans-48"/>
      </g>
     </g>
    </g>
    <g id="ytick_4">
     <g id="line2d_11">
      <g>
       <use style="stroke:#000000;stroke-width:0.8;" x="57.6" xlink:href="#m89fe209446" y="133.81931"/>
      </g>
     </g>
     <g id="text_11">
      <!-- 80 -->
      <g transform="translate(37.875 137.618529)scale(0.1 -0.1)">
       <use xlink:href="#DejaVuSans-56"/>
       <use x="63.623047" xlink:href="#DejaVuSans-48"/>
      </g>
     </g>
    </g>
    <g id="ytick_5">
     <g id="line2d_12">
      <g>
       <use style="stroke:#000000;stroke-width:0.8;" x="57.6" xlink:href="#m89fe209446" y="87.914786"/>
      </g>
     </g>
     <g id="text_12">
      <!-- 100 -->
      <g transform="translate(31.5125 91.714004)scale(0.1 -0.1)">
       <use xlink:href="#DejaVuSans-49"/>
       <use x="63.623047" xlink:href="#DejaVuSans-48"/>
       <use x="127.246094" xlink:href="#DejaVuSans-48"/>
      </g>
     </g>
    </g>
    <g id="ytick_6">
     <g id="line2d_13">
      <g>
       <use style="stroke:#000000;stroke-width:0.8;" x="57.6" xlink:href="#m89fe209446" y="42.010261"/>
      </g>
     </g>
     <g id="text_13">
      <!-- 120 -->
      <g transform="translate(31.5125 45.80948)scale(0.1 -0.1)">
       <use xlink:href="#DejaVuSans-49"/>
       <use x="63.623047" xlink:href="#DejaVuSans-50"/>
       <use x="127.246094" xlink:href="#DejaVuSans-48"/>
      </g>
     </g>
    </g>
   </g>
   <g id="line2d_14">
    <path clip-path="url(#peaee28ce70)" d="M 352.573647 294.485146 
L 353.007445 289.890103 
L 353.172701 285.297356 
L 353.124502 280.706903 
L 352.764151 273.825815 
L 351.23553 253.205503 
L 351.141426 248.626526 
L 351.23094 244.049845 
L 351.614243 237.182528 
L 352.562171 223.411171 
L 352.75038 216.504835 
L 352.65398 211.907497 
L 352.325763 207.326225 
L 351.715233 202.770201 
L 350.783371 198.250901 
L 349.502635 193.809638 
L 347.854662 189.487727 
L 345.818796 185.333368 
L 344.650526 183.329635 
L 343.376676 181.385579 
L 341.997245 179.505788 
L 340.514529 177.69715 
L 338.935413 175.97114 
L 337.264488 174.332348 
L 335.506345 172.794547 
L 333.665574 171.364621 
L 331.744469 170.051752 
L 329.754508 168.86512 
L 327.693395 167.811611 
L 325.570311 166.902701 
L 323.389846 166.142981 
L 321.161181 165.532451 
L 318.891202 165.064225 
L 316.591386 164.733712 
L 314.270912 164.536323 
L 311.938962 164.469761 
L 309.602422 164.527142 
L 307.272767 164.703874 
L 302.668543 165.399328 
L 298.185967 166.510217 
L 293.825037 167.979162 
L 289.571983 169.73501 
L 285.410737 171.715791 
L 279.312321 174.95665 
L 267.239431 181.562311 
L 263.091957 183.543091 
L 258.811361 185.294349 
L 254.395345 186.749522 
L 249.87834 187.84664 
L 247.59459 188.239124 
L 245.299364 188.519142 
L 242.997252 188.677512 
L 240.69514 188.70735 
L 238.397618 188.599475 
L 236.106983 188.349295 
L 233.830118 187.959107 
L 231.573911 187.4335 
L 229.347541 186.781655 
L 227.153305 186.005869 
L 225.002678 185.113026 
L 222.895661 184.107717 
L 220.843728 182.999123 
L 218.851472 181.789538 
L 216.925777 180.48585 
L 213.290139 177.616817 
L 209.939108 174.440224 
L 206.86121 170.995089 
L 204.051853 167.331908 
L 201.499562 163.491995 
L 199.190564 159.516663 
L 197.095022 155.43116 
L 195.176213 151.258439 
L 192.543589 144.87771 
L 185.873661 127.73237 
L 183.936491 123.580306 
L 181.756026 119.543003 
L 179.309314 115.645709 
L 176.612424 111.902195 
L 173.688305 108.330823 
L 170.562207 104.940774 
L 167.250196 101.752705 
L 163.782109 98.750549 
L 160.183194 95.904468 
L 154.60809 91.844213 
L 137.586692 80.012322 
L 133.996958 77.186898 
L 130.56789 74.196218 
L 127.338507 70.996673 
L 124.357008 67.546948 
L 121.660117 63.801139 
L 120.432171 61.806587 
L 119.291444 59.720227 
L 118.244821 57.537466 
L 118.244821 57.537466 
" style="fill:none;stroke:#fea952;stroke-linecap:square;"/>
   </g>
   <g id="line2d_15">
    <path clip-path="url(#peaee28ce70)" d="M 343.447679 293.482293 
L 343.837542 289.440778 
L 343.991796 285.297356 
L 343.950231 281.055875 
L 343.60901 274.513138 
L 342.058771 253.481357 
L 341.960983 248.534446 
L 342.058963 243.645064 
L 342.457137 236.521895 
L 343.483536 220.852862 
L 343.569932 216.596456 
L 343.488509 212.439626 
L 343.207804 208.399466 
L 342.689822 204.45275 
L 341.911401 200.612504 
L 340.853914 196.890004 
L 339.517707 193.332749 
L 337.887536 189.957665 
L 335.974873 186.817183 
L 333.740807 183.894384 
L 331.220098 181.242801 
L 328.485486 178.944575 
L 325.576016 177.040034 
L 324.080163 176.251609 
L 322.549593 175.572435 
L 320.96416 174.997645 
L 319.30649 174.524066 
L 315.813229 173.88158 
L 312.164358 173.647899 
L 308.428181 173.811785 
L 304.680398 174.357088 
L 300.951502 175.264692 
L 297.204714 176.515367 
L 293.423376 178.069024 
L 289.600509 179.88493 
L 283.781088 182.976572 
L 273.494716 188.662668 
L 269.035494 190.909202 
L 264.307086 193.005402 
L 259.326391 194.83601 
L 254.124188 196.311541 
L 251.433367 196.894895 
L 248.706417 197.352458 
L 245.929462 197.678399 
L 243.116237 197.857646 
L 240.264543 197.878152 
L 237.400822 197.726107 
L 234.556248 197.398286 
L 231.747108 196.900588 
L 228.99419 196.244519 
L 226.287216 195.437487 
L 223.633114 194.485095 
L 221.049193 193.399097 
L 218.531685 192.185138 
L 216.079039 190.846846 
L 213.704583 189.392074 
L 211.407057 187.82293 
L 209.220267 186.165719 
L 207.120756 184.415915 
L 205.120328 182.58898 
L 201.401367 178.7295 
L 198.041523 174.646051 
L 195.015747 170.388245 
L 192.309213 166.014034 
L 189.899717 161.578825 
L 187.734823 157.10625 
L 184.859755 150.404452 
L 181.496731 141.638565 
L 178.321624 133.435003 
L 176.66474 129.635104 
L 174.876874 126.041995 
L 172.868596 122.581732 
L 170.621893 119.232262 
L 168.165522 116.019387 
L 165.489318 112.932157 
L 162.655217 110.026454 
L 159.606328 107.242334 
L 156.36816 104.564832 
L 151.175307 100.664767 
L 143.75488 95.53542 
L 135.945605 90.176974 
L 131.987215 87.287958 
L 128.064135 84.193368 
L 124.226052 80.834751 
L 120.521767 77.146558 
L 118.742653 75.162156 
L 117.033236 73.083317 
L 115.398086 70.903888 
L 113.84205 68.614333 
L 112.376702 66.210953 
L 111.013017 63.689693 
L 109.966394 61.506933 
L 109.966394 61.506933 
" style="fill:none;stroke:#ffffff;stroke-linecap:square;"/>
   </g>
   <g id="line2d_16">
    <path clip-path="url(#peaee28ce70)" d="M 361.699616 295.488 
L 362.177348 290.339429 
L 362.353606 285.297356 
L 362.298772 280.357932 
L 361.919292 273.138492 
L 360.34702 250.813579 
L 360.341402 246.60512 
L 360.623612 240.077305 
L 361.838195 221.365256 
L 361.930827 216.413214 
L 361.819451 211.375368 
L 361.443721 206.252985 
L 360.740644 201.087653 
L 359.65534 195.889298 
L 358.151355 190.729272 
L 357.230863 188.171591 
L 356.191617 185.642705 
L 355.03302 183.154826 
L 353.750057 180.70907 
L 352.32971 178.297821 
L 350.778479 175.953975 
L 349.09725 173.685226 
L 347.28825 171.499916 
L 345.363962 169.416541 
L 343.308879 167.421896 
L 341.138493 165.544173 
L 338.845662 163.784667 
L 336.446588 162.16638 
L 333.933 160.690205 
L 331.306627 159.371612 
L 328.591028 158.232968 
L 325.815531 157.288318 
L 323.015872 156.540836 
L 320.197196 155.976684 
L 317.369543 155.585844 
L 314.532859 155.359156 
L 311.713566 155.291624 
L 308.907935 155.372542 
L 306.117353 155.595964 
L 303.369657 155.955002 
L 300.656689 156.441568 
L 298.005219 157.04622 
L 292.896898 158.559821 
L 288.059406 160.391787 
L 283.441146 162.457009 
L 279.040674 164.666206 
L 272.808738 168.070613 
L 265.055878 172.354937 
L 261.325733 174.2444 
L 257.635251 175.8986 
L 253.912448 177.29049 
L 250.167859 178.381022 
L 246.482763 179.12579 
L 242.878267 179.497378 
L 239.394415 179.472843 
L 235.913129 179.017626 
L 232.407867 178.125824 
L 228.956163 176.826955 
L 225.608417 175.1514 
L 222.444498 173.14877 
L 219.459522 170.817719 
L 216.66389 168.189918 
L 214.046297 165.279887 
L 211.614104 162.126011 
L 209.369696 158.764417 
L 207.308331 155.228205 
L 205.396449 151.510022 
L 203.613848 147.639692 
L 201.109476 141.573987 
L 194.244204 123.961027 
L 192.086602 119.353642 
L 189.609115 114.787165 
L 186.838323 110.39185 
L 183.805488 106.197036 
L 180.526473 102.204774 
L 177.021939 98.416903 
L 173.339959 94.882202 
L 169.54311 91.60213 
L 165.687333 88.556443 
L 159.839182 84.299368 
L 143.186169 72.736686 
L 139.929782 70.180428 
L 136.909728 67.557686 
L 134.155246 64.846789 
L 131.68078 62.01058 
L 129.478184 58.987944 
L 127.569871 55.75076 
L 126.523247 53.568 
L 126.523247 53.568 
" style="fill:none;stroke:#ffffff;stroke-linecap:square;"/>
   </g>
   <g id="patch_3">
    <path d="M 57.6 307.584 
L 57.6 41.472 
" style="fill:none;stroke:#000000;stroke-linecap:square;stroke-linejoin:miter;stroke-width:0.8;"/>
   </g>
   <g id="patch_4">
    <path d="M 414.72 307.584 
L 414.72 41.472 
" style="fill:none;stroke:#000000;stroke-linecap:square;stroke-linejoin:miter;stroke-width:0.8;"/>
   </g>
   <g id="patch_5">
    <path d="M 57.6 307.584 
L 414.72 307.584 
" style="fill:none;stroke:#000000;stroke-linecap:square;stroke-linejoin:miter;stroke-width:0.8;"/>
   </g>
   <g id="patch_6">
    <path d="M 57.6 41.472 
L 414.72 41.472 
" style="fill:none;stroke:#000000;stroke-linecap:square;stroke-linejoin:miter;stroke-width:0.8;"/>
   </g>
  </g>
 </g>
 <defs>
  <clipPath id="peaee28ce70">
   <rect height="266.112" width="357.12" x="57.6" y="41.472"/>
  </clipPath>
 </defs>
</svg>
