<?xml version="1.0" encoding="utf-8" standalone="no"?>
<!DOCTYPE svg PUBLIC "-//W3C//DTD SVG 1.1//EN"
  "http://www.w3.org/Graphics/SVG/1.1/DTD/svg11.dtd">
<!-- Created with matplotlib (https://matplotlib.org/) -->
<svg height="345.6pt" version="1.1" viewBox="0 0 460.8 345.6" width="460.8pt" xmlns="http://www.w3.org/2000/svg" xmlns:xlink="http://www.w3.org/1999/xlink">
 <metadata>
  <rdf:RDF xmlns:cc="http://creativecommons.org/ns#" xmlns:dc="http://purl.org/dc/elements/1.1/" xmlns:rdf="http://www.w3.org/1999/02/22-rdf-syntax-ns#">
   <cc:Work>
    <dc:type rdf:resource="http://purl.org/dc/dcmitype/StillImage"/>
    <dc:date>2021-01-22T09:18:24.116628</dc:date>
    <dc:format>image/svg+xml</dc:format>
    <dc:creator>
     <cc:Agent>
      <dc:title>Matplotlib v3.3.3, https://matplotlib.org/</dc:title>
     </cc:Agent>
    </dc:creator>
   </cc:Work>
  </rdf:RDF>
 </metadata>
 <defs>
  <style type="text/css">*{stroke-linecap:butt;stroke-linejoin:round;}</style>
 </defs>
 <g id="figure_1">
  <g id="patch_1">
   <path d="M 0 345.6 
L 460.8 345.6 
L 460.8 0 
L 0 0 
z
" style="fill:#ffffff;"/>
  </g>
  <g id="axes_1">
   <g id="patch_2">
    <path d="M 57.6 307.584 
L 414.72 307.584 
L 414.72 41.472 
L 57.6 41.472 
z
" style="fill:#7d9051;"/>
   </g>
   <g id="matplotlib.axis_1">
    <g id="xtick_1">
     <g id="line2d_1">
      <defs>
       <path d="M 0 0 
L 0 3.5 
" id="md2d125c994" style="stroke:#000000;stroke-width:0.8;"/>
      </defs>
      <g>
       <use style="stroke:#000000;stroke-width:0.8;" x="58.890534" xlink:href="#md2d125c994" y="307.584"/>
      </g>
     </g>
     <g id="text_1">
      <!-- 0 -->
      <g transform="translate(55.709284 322.182437)scale(0.1 -0.1)">
       <defs>
        <path d="M 31.78125 66.40625 
Q 24.171875 66.40625 20.328125 58.90625 
Q 16.5 51.421875 16.5 36.375 
Q 16.5 21.390625 20.328125 13.890625 
Q 24.171875 6.390625 31.78125 6.390625 
Q 39.453125 6.390625 43.28125 13.890625 
Q 47.125 21.390625 47.125 36.375 
Q 47.125 51.421875 43.28125 58.90625 
Q 39.453125 66.40625 31.78125 66.40625 
z
M 31.78125 74.21875 
Q 44.046875 74.21875 50.515625 64.515625 
Q 56.984375 54.828125 56.984375 36.375 
Q 56.984375 17.96875 50.515625 8.265625 
Q 44.046875 -1.421875 31.78125 -1.421875 
Q 19.53125 -1.421875 13.0625 8.265625 
Q 6.59375 17.96875 6.59375 36.375 
Q 6.59375 54.828125 13.0625 64.515625 
Q 19.53125 74.21875 31.78125 74.21875 
z
" id="DejaVuSans-48"/>
       </defs>
       <use xlink:href="#DejaVuSans-48"/>
      </g>
     </g>
    </g>
    <g id="xtick_2">
     <g id="line2d_2">
      <g>
       <use style="stroke:#000000;stroke-width:0.8;" x="112.686186" xlink:href="#md2d125c994" y="307.584"/>
      </g>
     </g>
     <g id="text_2">
      <!-- 20 -->
      <g transform="translate(106.323686 322.182437)scale(0.1 -0.1)">
       <defs>
        <path d="M 19.1875 8.296875 
L 53.609375 8.296875 
L 53.609375 0 
L 7.328125 0 
L 7.328125 8.296875 
Q 12.9375 14.109375 22.625 23.890625 
Q 32.328125 33.6875 34.8125 36.53125 
Q 39.546875 41.84375 41.421875 45.53125 
Q 43.3125 49.21875 43.3125 52.78125 
Q 43.3125 58.59375 39.234375 62.25 
Q 35.15625 65.921875 28.609375 65.921875 
Q 23.96875 65.921875 18.8125 64.3125 
Q 13.671875 62.703125 7.8125 59.421875 
L 7.8125 69.390625 
Q 13.765625 71.78125 18.9375 73 
Q 24.125 74.21875 28.421875 74.21875 
Q 39.75 74.21875 46.484375 68.546875 
Q 53.21875 62.890625 53.21875 53.421875 
Q 53.21875 48.921875 51.53125 44.890625 
Q 49.859375 40.875 45.40625 35.40625 
Q 44.1875 33.984375 37.640625 27.21875 
Q 31.109375 20.453125 19.1875 8.296875 
z
" id="DejaVuSans-50"/>
       </defs>
       <use xlink:href="#DejaVuSans-50"/>
       <use x="63.623047" xlink:href="#DejaVuSans-48"/>
      </g>
     </g>
    </g>
    <g id="xtick_3">
     <g id="line2d_3">
      <g>
       <use style="stroke:#000000;stroke-width:0.8;" x="166.481838" xlink:href="#md2d125c994" y="307.584"/>
      </g>
     </g>
     <g id="text_3">
      <!-- 40 -->
      <g transform="translate(160.119338 322.182437)scale(0.1 -0.1)">
       <defs>
        <path d="M 37.796875 64.3125 
L 12.890625 25.390625 
L 37.796875 25.390625 
z
M 35.203125 72.90625 
L 47.609375 72.90625 
L 47.609375 25.390625 
L 58.015625 25.390625 
L 58.015625 17.1875 
L 47.609375 17.1875 
L 47.609375 0 
L 37.796875 0 
L 37.796875 17.1875 
L 4.890625 17.1875 
L 4.890625 26.703125 
z
" id="DejaVuSans-52"/>
       </defs>
       <use xlink:href="#DejaVuSans-52"/>
       <use x="63.623047" xlink:href="#DejaVuSans-48"/>
      </g>
     </g>
    </g>
    <g id="xtick_4">
     <g id="line2d_4">
      <g>
       <use style="stroke:#000000;stroke-width:0.8;" x="220.27749" xlink:href="#md2d125c994" y="307.584"/>
      </g>
     </g>
     <g id="text_4">
      <!-- 60 -->
      <g transform="translate(213.91499 322.182437)scale(0.1 -0.1)">
       <defs>
        <path d="M 33.015625 40.375 
Q 26.375 40.375 22.484375 35.828125 
Q 18.609375 31.296875 18.609375 23.390625 
Q 18.609375 15.53125 22.484375 10.953125 
Q 26.375 6.390625 33.015625 6.390625 
Q 39.65625 6.390625 43.53125 10.953125 
Q 47.40625 15.53125 47.40625 23.390625 
Q 47.40625 31.296875 43.53125 35.828125 
Q 39.65625 40.375 33.015625 40.375 
z
M 52.59375 71.296875 
L 52.59375 62.3125 
Q 48.875 64.0625 45.09375 64.984375 
Q 41.3125 65.921875 37.59375 65.921875 
Q 27.828125 65.921875 22.671875 59.328125 
Q 17.53125 52.734375 16.796875 39.40625 
Q 19.671875 43.65625 24.015625 45.921875 
Q 28.375 48.1875 33.59375 48.1875 
Q 44.578125 48.1875 50.953125 41.515625 
Q 57.328125 34.859375 57.328125 23.390625 
Q 57.328125 12.15625 50.6875 5.359375 
Q 44.046875 -1.421875 33.015625 -1.421875 
Q 20.359375 -1.421875 13.671875 8.265625 
Q 6.984375 17.96875 6.984375 36.375 
Q 6.984375 53.65625 15.1875 63.9375 
Q 23.390625 74.21875 37.203125 74.21875 
Q 40.921875 74.21875 44.703125 73.484375 
Q 48.484375 72.75 52.59375 71.296875 
z
" id="DejaVuSans-54"/>
       </defs>
       <use xlink:href="#DejaVuSans-54"/>
       <use x="63.623047" xlink:href="#DejaVuSans-48"/>
      </g>
     </g>
    </g>
    <g id="xtick_5">
     <g id="line2d_5">
      <g>
       <use style="stroke:#000000;stroke-width:0.8;" x="274.073142" xlink:href="#md2d125c994" y="307.584"/>
      </g>
     </g>
     <g id="text_5">
      <!-- 80 -->
      <g transform="translate(267.710642 322.182437)scale(0.1 -0.1)">
       <defs>
        <path d="M 31.78125 34.625 
Q 24.75 34.625 20.71875 30.859375 
Q 16.703125 27.09375 16.703125 20.515625 
Q 16.703125 13.921875 20.71875 10.15625 
Q 24.75 6.390625 31.78125 6.390625 
Q 38.8125 6.390625 42.859375 10.171875 
Q 46.921875 13.96875 46.921875 20.515625 
Q 46.921875 27.09375 42.890625 30.859375 
Q 38.875 34.625 31.78125 34.625 
z
M 21.921875 38.8125 
Q 15.578125 40.375 12.03125 44.71875 
Q 8.5 49.078125 8.5 55.328125 
Q 8.5 64.0625 14.71875 69.140625 
Q 20.953125 74.21875 31.78125 74.21875 
Q 42.671875 74.21875 48.875 69.140625 
Q 55.078125 64.0625 55.078125 55.328125 
Q 55.078125 49.078125 51.53125 44.71875 
Q 48 40.375 41.703125 38.8125 
Q 48.828125 37.15625 52.796875 32.3125 
Q 56.78125 27.484375 56.78125 20.515625 
Q 56.78125 9.90625 50.3125 4.234375 
Q 43.84375 -1.421875 31.78125 -1.421875 
Q 19.734375 -1.421875 13.25 4.234375 
Q 6.78125 9.90625 6.78125 20.515625 
Q 6.78125 27.484375 10.78125 32.3125 
Q 14.796875 37.15625 21.921875 38.8125 
z
M 18.3125 54.390625 
Q 18.3125 48.734375 21.84375 45.5625 
Q 25.390625 42.390625 31.78125 42.390625 
Q 38.140625 42.390625 41.71875 45.5625 
Q 45.3125 48.734375 45.3125 54.390625 
Q 45.3125 60.0625 41.71875 63.234375 
Q 38.140625 66.40625 31.78125 66.40625 
Q 25.390625 66.40625 21.84375 63.234375 
Q 18.3125 60.0625 18.3125 54.390625 
z
" id="DejaVuSans-56"/>
       </defs>
       <use xlink:href="#DejaVuSans-56"/>
       <use x="63.623047" xlink:href="#DejaVuSans-48"/>
      </g>
     </g>
    </g>
    <g id="xtick_6">
     <g id="line2d_6">
      <g>
       <use style="stroke:#000000;stroke-width:0.8;" x="327.868794" xlink:href="#md2d125c994" y="307.584"/>
      </g>
     </g>
     <g id="text_6">
      <!-- 100 -->
      <g transform="translate(318.325044 322.182437)scale(0.1 -0.1)">
       <defs>
        <path d="M 12.40625 8.296875 
L 28.515625 8.296875 
L 28.515625 63.921875 
L 10.984375 60.40625 
L 10.984375 69.390625 
L 28.421875 72.90625 
L 38.28125 72.90625 
L 38.28125 8.296875 
L 54.390625 8.296875 
L 54.390625 0 
L 12.40625 0 
z
" id="DejaVuSans-49"/>
       </defs>
       <use xlink:href="#DejaVuSans-49"/>
       <use x="63.623047" xlink:href="#DejaVuSans-48"/>
       <use x="127.246094" xlink:href="#DejaVuSans-48"/>
      </g>
     </g>
    </g>
    <g id="xtick_7">
     <g id="line2d_7">
      <g>
       <use style="stroke:#000000;stroke-width:0.8;" x="381.664445" xlink:href="#md2d125c994" y="307.584"/>
      </g>
     </g>
     <g id="text_7">
      <!-- 120 -->
      <g transform="translate(372.120695 322.182437)scale(0.1 -0.1)">
       <use xlink:href="#DejaVuSans-49"/>
       <use x="63.623047" xlink:href="#DejaVuSans-50"/>
       <use x="127.246094" xlink:href="#DejaVuSans-48"/>
      </g>
     </g>
    </g>
   </g>
   <g id="matplotlib.axis_2">
    <g id="ytick_1">
     <g id="line2d_8">
      <defs>
       <path d="M 0 0 
L -3.5 0 
" id="m5edb3a7ee1" style="stroke:#000000;stroke-width:0.8;"/>
      </defs>
      <g>
       <use style="stroke:#000000;stroke-width:0.8;" x="57.6" xlink:href="#m5edb3a7ee1" y="276.458318"/>
      </g>
     </g>
     <g id="text_8">
      <!-- 0 -->
      <g transform="translate(44.2375 280.257537)scale(0.1 -0.1)">
       <use xlink:href="#DejaVuSans-48"/>
      </g>
     </g>
    </g>
    <g id="ytick_2">
     <g id="line2d_9">
      <g>
       <use style="stroke:#000000;stroke-width:0.8;" x="57.6" xlink:href="#m5edb3a7ee1" y="222.662666"/>
      </g>
     </g>
     <g id="text_9">
      <!-- 20 -->
      <g transform="translate(37.875 226.461885)scale(0.1 -0.1)">
       <use xlink:href="#DejaVuSans-50"/>
       <use x="63.623047" xlink:href="#DejaVuSans-48"/>
      </g>
     </g>
    </g>
    <g id="ytick_3">
     <g id="line2d_10">
      <g>
       <use style="stroke:#000000;stroke-width:0.8;" x="57.6" xlink:href="#m5edb3a7ee1" y="168.867015"/>
      </g>
     </g>
     <g id="text_10">
      <!-- 40 -->
      <g transform="translate(37.875 172.666233)scale(0.1 -0.1)">
       <use xlink:href="#DejaVuSans-52"/>
       <use x="63.623047" xlink:href="#DejaVuSans-48"/>
      </g>
     </g>
    </g>
    <g id="ytick_4">
     <g id="line2d_11">
      <g>
       <use style="stroke:#000000;stroke-width:0.8;" x="57.6" xlink:href="#m5edb3a7ee1" y="115.071363"/>
      </g>
     </g>
     <g id="text_11">
      <!-- 60 -->
      <g transform="translate(37.875 118.870582)scale(0.1 -0.1)">
       <use xlink:href="#DejaVuSans-54"/>
       <use x="63.623047" xlink:href="#DejaVuSans-48"/>
      </g>
     </g>
    </g>
    <g id="ytick_5">
     <g id="line2d_12">
      <g>
       <use style="stroke:#000000;stroke-width:0.8;" x="57.6" xlink:href="#m5edb3a7ee1" y="61.275711"/>
      </g>
     </g>
     <g id="text_12">
      <!-- 80 -->
      <g transform="translate(37.875 65.07493)scale(0.1 -0.1)">
       <use xlink:href="#DejaVuSans-56"/>
       <use x="63.623047" xlink:href="#DejaVuSans-48"/>
      </g>
     </g>
    </g>
   </g>
   <g id="line2d_13">
    <path clip-path="url(#p71ecd63181)" d="M 85.78836 249.560492 
L 85.30151 246.800775 
L 84.943768 244.057197 
L 84.712447 241.324378 
L 84.586027 235.901776 
L 84.852316 230.522211 
L 85.438688 225.177613 
L 86.28059 219.859913 
L 87.867562 211.914295 
L 91.872648 193.376314 
L 95.474267 174.789916 
L 96.759983 169.534081 
L 98.277021 164.326662 
L 100.044208 159.189177 
L 102.066924 154.151214 
L 104.35055 149.234292 
L 106.905843 144.462617 
L 109.732805 139.85502 
L 112.828745 135.422258 
L 116.185593 131.167022 
L 119.797971 127.094691 
L 123.657809 123.216024 
L 127.765107 119.552541 
L 132.117176 116.203761 
L 134.384662 114.675965 
L 136.716704 113.263829 
L 139.107921 111.980803 
L 141.561002 110.837645 
L 144.075949 109.850495 
L 146.655451 109.027421 
L 149.291437 108.379184 
L 151.973151 107.897713 
L 154.689831 107.585698 
L 157.43072 107.43507 
L 160.182367 107.44045 
L 162.934015 107.604526 
L 165.674903 107.919231 
L 168.391584 108.381873 
L 171.070607 108.989764 
L 173.703904 109.737524 
L 176.283406 110.619773 
L 178.806422 111.628441 
L 181.278332 112.75546 
L 183.696447 113.99545 
L 188.373979 116.773995 
L 192.844397 119.899523 
L 197.107703 123.307477 
L 201.161205 126.949443 
L 204.983386 130.81735 
L 208.555417 134.90313 
L 211.850401 139.201402 
L 214.846819 143.706788 
L 217.541981 148.405838 
L 219.954716 153.263586 
L 222.111922 158.247753 
L 224.043185 163.320683 
L 225.775405 168.452788 
L 228.102067 176.207431 
L 231.894661 189.182943 
L 233.613432 194.360774 
L 235.552765 199.4875 
L 237.771836 204.493185 
L 240.332509 209.294447 
L 241.755404 211.594211 
L 243.28589 213.813282 
L 244.929347 215.94359 
L 246.691155 217.971686 
L 248.568623 219.90026 
L 250.553683 221.729312 
L 252.632885 223.466911 
L 254.79816 225.113058 
L 259.343892 228.152513 
L 264.115567 230.877263 
L 269.029799 233.316895 
L 274.038175 235.48486 
L 279.135313 237.356949 
L 284.321213 238.914333 
L 289.587808 240.138184 
L 294.937785 241.004294 
L 300.349628 241.501904 
L 305.793748 241.625634 
L 311.232488 241.367415 
L 316.625502 240.724557 
L 321.943202 239.69168 
L 327.16676 238.298373 
L 332.309625 236.609189 
L 337.382555 234.691374 
L 344.897807 231.538949 
L 354.780068 227.0766 
L 362.082828 223.547605 
L 369.275307 219.819566 
L 376.341366 215.862896 
L 383.267556 211.642627 
L 387.799839 208.670417 
L 392.256809 205.552959 
L 392.256809 205.552959 
" style="fill:none;stroke:#fea952;stroke-linecap:square;"/>
   </g>
   <g id="line2d_14">
    <path clip-path="url(#p71ecd63181)" d="M 75.192842 251.429682 
L 74.632693 248.191905 
L 74.222976 244.964666 
L 73.963054 241.782026 
L 73.837741 238.650477 
L 73.832727 235.547626 
L 74.142916 229.488943 
L 74.79624 223.597371 
L 75.704044 217.886197 
L 77.356898 209.615422 
L 81.300836 191.377397 
L 84.997926 172.339372 
L 86.396893 166.641807 
L 88.061524 160.949902 
L 90.00966 155.307588 
L 92.24747 149.753806 
L 94.796658 144.286359 
L 97.654554 138.969664 
L 100.822073 133.825281 
L 104.283358 128.885037 
L 108.029443 124.150177 
L 112.064047 119.615032 
L 116.366662 115.304131 
L 121.040082 111.154152 
L 123.517016 109.181095 
L 126.10519 107.281043 
L 128.811716 105.472642 
L 131.629798 103.783202 
L 134.56331 102.228603 
L 137.629884 100.822397 
L 140.80536 99.600513 
L 144.086133 98.579575 
L 147.390158 97.789376 
L 150.745519 97.208849 
L 154.099445 96.842778 
L 157.451754 96.67596 
L 160.822781 96.700396 
L 164.161298 96.915623 
L 167.481147 97.3128 
L 170.772391 97.889465 
L 174.009608 98.639829 
L 177.185752 99.557366 
L 180.27741 100.629436 
L 183.269815 101.838803 
L 186.187686 103.181687 
L 189.008083 104.63888 
L 191.736319 106.197247 
L 194.3885 107.852985 
L 199.438116 111.397654 
L 204.183623 115.202525 
L 208.699634 119.272791 
L 212.975284 123.613986 
L 216.993234 128.227642 
L 220.707627 133.09334 
L 224.091504 138.202727 
L 227.113418 143.491931 
L 229.775951 148.870156 
L 232.125609 154.312662 
L 234.205582 159.787329 
L 236.049914 165.260084 
L 238.448443 173.255924 
L 242.133115 185.876443 
L 243.724792 190.683916 
L 245.457195 195.284981 
L 247.365197 199.62222 
L 249.48199 203.63354 
L 251.80463 207.241375 
L 253.051724 208.887679 
L 254.400469 210.466663 
L 255.859199 211.98784 
L 259.144403 214.901924 
L 262.842397 217.616211 
L 266.891216 220.125456 
L 271.21948 222.432581 
L 275.665125 224.505912 
L 280.142546 226.3073 
L 284.64783 227.824938 
L 289.201756 229.05112 
L 293.78989 229.968114 
L 298.436651 230.570698 
L 303.124845 230.853186 
L 307.814232 230.808708 
L 312.47536 230.433496 
L 317.05087 229.734357 
L 321.632609 228.683773 
L 326.263916 227.306071 
L 330.950435 225.649877 
L 338.141726 222.736164 
L 347.792563 218.458877 
L 354.893307 215.099963 
L 361.841844 211.586285 
L 368.640154 207.879471 
L 375.25432 203.969973 
L 381.697252 199.809418 
L 386.026346 196.781402 
L 386.026346 196.781402 
" style="fill:none;stroke:#ffffff;stroke-linecap:square;"/>
   </g>
   <g id="line2d_15">
    <path clip-path="url(#p71ecd63181)" d="M 96.383879 247.691302 
L 95.664561 243.149729 
L 95.355832 238.564918 
L 95.41047 233.916589 
L 95.789211 229.159182 
L 96.444201 224.299206 
L 97.325706 219.317826 
L 98.945259 211.620052 
L 101.903644 198.117142 
L 103.934674 187.365584 
L 105.421353 179.702204 
L 106.514776 174.818888 
L 107.783958 170.048155 
L 109.2608 165.369221 
L 110.956055 160.793191 
L 112.869882 156.342488 
L 115.009657 152.039274 
L 117.373769 147.897632 
L 119.976121 143.907112 
L 122.821937 140.059078 
L 125.898104 136.367239 
L 129.214536 132.828221 
L 132.710992 129.496416 
L 136.306091 126.486444 
L 139.957609 123.879288 
L 143.652531 121.733002 
L 145.492121 120.852893 
L 147.346538 120.100477 
L 149.224768 119.475268 
L 151.192717 118.968991 
L 153.200783 118.586576 
L 155.280217 118.328618 
L 157.409685 118.19418 
L 159.541953 118.180503 
L 161.706731 118.29343 
L 163.86866 118.525661 
L 166.010776 118.874282 
L 168.131606 119.3397 
L 170.222057 119.917682 
L 172.289401 120.610109 
L 176.368978 122.329233 
L 180.385212 124.478055 
L 184.32239 127.010941 
L 188.16083 129.876947 
L 191.858371 133.001291 
L 195.337259 136.302881 
L 198.595192 139.792593 
L 201.598536 143.442411 
L 204.328629 147.235269 
L 206.813316 151.234047 
L 209.080509 155.473426 
L 211.137714 159.894121 
L 213.009059 164.493936 
L 214.708459 169.229095 
L 217.017643 176.621075 
L 222.547704 195.245325 
L 224.536041 200.87063 
L 226.858475 206.527937 
L 228.178475 209.364151 
L 229.617405 212.178775 
L 231.183027 214.955354 
L 232.898523 217.702775 
L 234.76715 220.385188 
L 236.80697 222.999501 
L 238.981841 225.476708 
L 241.278047 227.812679 
L 243.654306 229.985067 
L 246.121366 232.031899 
L 248.643143 233.93772 
L 251.2351 235.735433 
L 256.525207 238.982323 
L 261.901678 241.828821 
L 267.381331 244.365778 
L 273.012112 246.609823 
L 278.787177 248.529727 
L 284.685747 250.09016 
L 290.716875 251.265816 
L 296.840003 252.029642 
L 303.018531 252.371184 
L 309.217383 252.281172 
L 315.39608 251.752618 
L 318.482495 251.32222 
L 321.542043 250.778712 
L 327.498872 249.386973 
L 333.228608 247.666046 
L 338.757883 245.701792 
L 344.075347 243.585252 
L 351.780574 240.266352 
L 359.376713 236.804382 
L 366.941488 233.147204 
L 374.418328 229.269869 
L 381.821701 225.121666 
L 389.10183 220.682546 
L 393.902427 217.531417 
L 398.487273 214.324516 
L 398.487273 214.324516 
" style="fill:none;stroke:#ffffff;stroke-linecap:square;"/>
   </g>
   <g id="patch_3">
    <path d="M 57.6 307.584 
L 57.6 41.472 
" style="fill:none;stroke:#000000;stroke-linecap:square;stroke-linejoin:miter;stroke-width:0.8;"/>
   </g>
   <g id="patch_4">
    <path d="M 414.72 307.584 
L 414.72 41.472 
" style="fill:none;stroke:#000000;stroke-linecap:square;stroke-linejoin:miter;stroke-width:0.8;"/>
   </g>
   <g id="patch_5">
    <path d="M 57.6 307.584 
L 414.72 307.584 
" style="fill:none;stroke:#000000;stroke-linecap:square;stroke-linejoin:miter;stroke-width:0.8;"/>
   </g>
   <g id="patch_6">
    <path d="M 57.6 41.472 
L 414.72 41.472 
" style="fill:none;stroke:#000000;stroke-linecap:square;stroke-linejoin:miter;stroke-width:0.8;"/>
   </g>
  </g>
 </g>
 <defs>
  <clipPath id="p71ecd63181">
   <rect height="266.112" width="357.12" x="57.6" y="41.472"/>
  </clipPath>
 </defs>
</svg>
