<?xml version="1.0" encoding="utf-8" standalone="no"?>
<!DOCTYPE svg PUBLIC "-//W3C//DTD SVG 1.1//EN"
  "http://www.w3.org/Graphics/SVG/1.1/DTD/svg11.dtd">
<!-- Created with matplotlib (https://matplotlib.org/) -->
<svg height="345.6pt" version="1.1" viewBox="0 0 460.8 345.6" width="460.8pt" xmlns="http://www.w3.org/2000/svg" xmlns:xlink="http://www.w3.org/1999/xlink">
 <metadata>
  <rdf:RDF xmlns:cc="http://creativecommons.org/ns#" xmlns:dc="http://purl.org/dc/elements/1.1/" xmlns:rdf="http://www.w3.org/1999/02/22-rdf-syntax-ns#">
   <cc:Work>
    <dc:type rdf:resource="http://purl.org/dc/dcmitype/StillImage"/>
    <dc:date>2021-01-22T09:17:37.057835</dc:date>
    <dc:format>image/svg+xml</dc:format>
    <dc:creator>
     <cc:Agent>
      <dc:title>Matplotlib v3.3.3, https://matplotlib.org/</dc:title>
     </cc:Agent>
    </dc:creator>
   </cc:Work>
  </rdf:RDF>
 </metadata>
 <defs>
  <style type="text/css">*{stroke-linecap:butt;stroke-linejoin:round;}</style>
 </defs>
 <g id="figure_1">
  <g id="patch_1">
   <path d="M 0 345.6 
L 460.8 345.6 
L 460.8 0 
L 0 0 
z
" style="fill:#ffffff;"/>
  </g>
  <g id="axes_1">
   <g id="patch_2">
    <path d="M 57.6 307.584 
L 414.72 307.584 
L 414.72 41.472 
L 57.6 41.472 
z
" style="fill:#7d9051;"/>
   </g>
   <g id="matplotlib.axis_1">
    <g id="xtick_1">
     <g id="line2d_1">
      <defs>
       <path d="M 0 0 
L 0 3.5 
" id="m771a775536" style="stroke:#000000;stroke-width:0.8;"/>
      </defs>
      <g>
       <use style="stroke:#000000;stroke-width:0.8;" x="58.22263" xlink:href="#m771a775536" y="307.584"/>
      </g>
     </g>
     <g id="text_1">
      <!-- 0 -->
      <g transform="translate(55.04138 322.182437)scale(0.1 -0.1)">
       <defs>
        <path d="M 31.78125 66.40625 
Q 24.171875 66.40625 20.328125 58.90625 
Q 16.5 51.421875 16.5 36.375 
Q 16.5 21.390625 20.328125 13.890625 
Q 24.171875 6.390625 31.78125 6.390625 
Q 39.453125 6.390625 43.28125 13.890625 
Q 47.125 21.390625 47.125 36.375 
Q 47.125 51.421875 43.28125 58.90625 
Q 39.453125 66.40625 31.78125 66.40625 
z
M 31.78125 74.21875 
Q 44.046875 74.21875 50.515625 64.515625 
Q 56.984375 54.828125 56.984375 36.375 
Q 56.984375 17.96875 50.515625 8.265625 
Q 44.046875 -1.421875 31.78125 -1.421875 
Q 19.53125 -1.421875 13.0625 8.265625 
Q 6.59375 17.96875 6.59375 36.375 
Q 6.59375 54.828125 13.0625 64.515625 
Q 19.53125 74.21875 31.78125 74.21875 
z
" id="DejaVuSans-48"/>
       </defs>
       <use xlink:href="#DejaVuSans-48"/>
      </g>
     </g>
    </g>
    <g id="xtick_2">
     <g id="line2d_2">
      <g>
       <use style="stroke:#000000;stroke-width:0.8;" x="113.318615" xlink:href="#m771a775536" y="307.584"/>
      </g>
     </g>
     <g id="text_2">
      <!-- 20 -->
      <g transform="translate(106.956115 322.182437)scale(0.1 -0.1)">
       <defs>
        <path d="M 19.1875 8.296875 
L 53.609375 8.296875 
L 53.609375 0 
L 7.328125 0 
L 7.328125 8.296875 
Q 12.9375 14.109375 22.625 23.890625 
Q 32.328125 33.6875 34.8125 36.53125 
Q 39.546875 41.84375 41.421875 45.53125 
Q 43.3125 49.21875 43.3125 52.78125 
Q 43.3125 58.59375 39.234375 62.25 
Q 35.15625 65.921875 28.609375 65.921875 
Q 23.96875 65.921875 18.8125 64.3125 
Q 13.671875 62.703125 7.8125 59.421875 
L 7.8125 69.390625 
Q 13.765625 71.78125 18.9375 73 
Q 24.125 74.21875 28.421875 74.21875 
Q 39.75 74.21875 46.484375 68.546875 
Q 53.21875 62.890625 53.21875 53.421875 
Q 53.21875 48.921875 51.53125 44.890625 
Q 49.859375 40.875 45.40625 35.40625 
Q 44.1875 33.984375 37.640625 27.21875 
Q 31.109375 20.453125 19.1875 8.296875 
z
" id="DejaVuSans-50"/>
       </defs>
       <use xlink:href="#DejaVuSans-50"/>
       <use x="63.623047" xlink:href="#DejaVuSans-48"/>
      </g>
     </g>
    </g>
    <g id="xtick_3">
     <g id="line2d_3">
      <g>
       <use style="stroke:#000000;stroke-width:0.8;" x="168.414599" xlink:href="#m771a775536" y="307.584"/>
      </g>
     </g>
     <g id="text_3">
      <!-- 40 -->
      <g transform="translate(162.052099 322.182437)scale(0.1 -0.1)">
       <defs>
        <path d="M 37.796875 64.3125 
L 12.890625 25.390625 
L 37.796875 25.390625 
z
M 35.203125 72.90625 
L 47.609375 72.90625 
L 47.609375 25.390625 
L 58.015625 25.390625 
L 58.015625 17.1875 
L 47.609375 17.1875 
L 47.609375 0 
L 37.796875 0 
L 37.796875 17.1875 
L 4.890625 17.1875 
L 4.890625 26.703125 
z
" id="DejaVuSans-52"/>
       </defs>
       <use xlink:href="#DejaVuSans-52"/>
       <use x="63.623047" xlink:href="#DejaVuSans-48"/>
      </g>
     </g>
    </g>
    <g id="xtick_4">
     <g id="line2d_4">
      <g>
       <use style="stroke:#000000;stroke-width:0.8;" x="223.510584" xlink:href="#m771a775536" y="307.584"/>
      </g>
     </g>
     <g id="text_4">
      <!-- 60 -->
      <g transform="translate(217.148084 322.182437)scale(0.1 -0.1)">
       <defs>
        <path d="M 33.015625 40.375 
Q 26.375 40.375 22.484375 35.828125 
Q 18.609375 31.296875 18.609375 23.390625 
Q 18.609375 15.53125 22.484375 10.953125 
Q 26.375 6.390625 33.015625 6.390625 
Q 39.65625 6.390625 43.53125 10.953125 
Q 47.40625 15.53125 47.40625 23.390625 
Q 47.40625 31.296875 43.53125 35.828125 
Q 39.65625 40.375 33.015625 40.375 
z
M 52.59375 71.296875 
L 52.59375 62.3125 
Q 48.875 64.0625 45.09375 64.984375 
Q 41.3125 65.921875 37.59375 65.921875 
Q 27.828125 65.921875 22.671875 59.328125 
Q 17.53125 52.734375 16.796875 39.40625 
Q 19.671875 43.65625 24.015625 45.921875 
Q 28.375 48.1875 33.59375 48.1875 
Q 44.578125 48.1875 50.953125 41.515625 
Q 57.328125 34.859375 57.328125 23.390625 
Q 57.328125 12.15625 50.6875 5.359375 
Q 44.046875 -1.421875 33.015625 -1.421875 
Q 20.359375 -1.421875 13.671875 8.265625 
Q 6.984375 17.96875 6.984375 36.375 
Q 6.984375 53.65625 15.1875 63.9375 
Q 23.390625 74.21875 37.203125 74.21875 
Q 40.921875 74.21875 44.703125 73.484375 
Q 48.484375 72.75 52.59375 71.296875 
z
" id="DejaVuSans-54"/>
       </defs>
       <use xlink:href="#DejaVuSans-54"/>
       <use x="63.623047" xlink:href="#DejaVuSans-48"/>
      </g>
     </g>
    </g>
    <g id="xtick_5">
     <g id="line2d_5">
      <g>
       <use style="stroke:#000000;stroke-width:0.8;" x="278.606568" xlink:href="#m771a775536" y="307.584"/>
      </g>
     </g>
     <g id="text_5">
      <!-- 80 -->
      <g transform="translate(272.244068 322.182437)scale(0.1 -0.1)">
       <defs>
        <path d="M 31.78125 34.625 
Q 24.75 34.625 20.71875 30.859375 
Q 16.703125 27.09375 16.703125 20.515625 
Q 16.703125 13.921875 20.71875 10.15625 
Q 24.75 6.390625 31.78125 6.390625 
Q 38.8125 6.390625 42.859375 10.171875 
Q 46.921875 13.96875 46.921875 20.515625 
Q 46.921875 27.09375 42.890625 30.859375 
Q 38.875 34.625 31.78125 34.625 
z
M 21.921875 38.8125 
Q 15.578125 40.375 12.03125 44.71875 
Q 8.5 49.078125 8.5 55.328125 
Q 8.5 64.0625 14.71875 69.140625 
Q 20.953125 74.21875 31.78125 74.21875 
Q 42.671875 74.21875 48.875 69.140625 
Q 55.078125 64.0625 55.078125 55.328125 
Q 55.078125 49.078125 51.53125 44.71875 
Q 48 40.375 41.703125 38.8125 
Q 48.828125 37.15625 52.796875 32.3125 
Q 56.78125 27.484375 56.78125 20.515625 
Q 56.78125 9.90625 50.3125 4.234375 
Q 43.84375 -1.421875 31.78125 -1.421875 
Q 19.734375 -1.421875 13.25 4.234375 
Q 6.78125 9.90625 6.78125 20.515625 
Q 6.78125 27.484375 10.78125 32.3125 
Q 14.796875 37.15625 21.921875 38.8125 
z
M 18.3125 54.390625 
Q 18.3125 48.734375 21.84375 45.5625 
Q 25.390625 42.390625 31.78125 42.390625 
Q 38.140625 42.390625 41.71875 45.5625 
Q 45.3125 48.734375 45.3125 54.390625 
Q 45.3125 60.0625 41.71875 63.234375 
Q 38.140625 66.40625 31.78125 66.40625 
Q 25.390625 66.40625 21.84375 63.234375 
Q 18.3125 60.0625 18.3125 54.390625 
z
" id="DejaVuSans-56"/>
       </defs>
       <use xlink:href="#DejaVuSans-56"/>
       <use x="63.623047" xlink:href="#DejaVuSans-48"/>
      </g>
     </g>
    </g>
    <g id="xtick_6">
     <g id="line2d_6">
      <g>
       <use style="stroke:#000000;stroke-width:0.8;" x="333.702553" xlink:href="#m771a775536" y="307.584"/>
      </g>
     </g>
     <g id="text_6">
      <!-- 100 -->
      <g transform="translate(324.158803 322.182437)scale(0.1 -0.1)">
       <defs>
        <path d="M 12.40625 8.296875 
L 28.515625 8.296875 
L 28.515625 63.921875 
L 10.984375 60.40625 
L 10.984375 69.390625 
L 28.421875 72.90625 
L 38.28125 72.90625 
L 38.28125 8.296875 
L 54.390625 8.296875 
L 54.390625 0 
L 12.40625 0 
z
" id="DejaVuSans-49"/>
       </defs>
       <use xlink:href="#DejaVuSans-49"/>
       <use x="63.623047" xlink:href="#DejaVuSans-48"/>
       <use x="127.246094" xlink:href="#DejaVuSans-48"/>
      </g>
     </g>
    </g>
    <g id="xtick_7">
     <g id="line2d_7">
      <g>
       <use style="stroke:#000000;stroke-width:0.8;" x="388.798537" xlink:href="#m771a775536" y="307.584"/>
      </g>
     </g>
     <g id="text_7">
      <!-- 120 -->
      <g transform="translate(379.254787 322.182437)scale(0.1 -0.1)">
       <use xlink:href="#DejaVuSans-49"/>
       <use x="63.623047" xlink:href="#DejaVuSans-50"/>
       <use x="127.246094" xlink:href="#DejaVuSans-48"/>
      </g>
     </g>
    </g>
   </g>
   <g id="matplotlib.axis_2">
    <g id="ytick_1">
     <g id="line2d_8">
      <defs>
       <path d="M 0 0 
L -3.5 0 
" id="m8bf03af1db" style="stroke:#000000;stroke-width:0.8;"/>
      </defs>
      <g>
       <use style="stroke:#000000;stroke-width:0.8;" x="57.6" xlink:href="#m8bf03af1db" y="283.554771"/>
      </g>
     </g>
     <g id="text_8">
      <!-- 0 -->
      <g transform="translate(44.2375 287.35399)scale(0.1 -0.1)">
       <use xlink:href="#DejaVuSans-48"/>
      </g>
     </g>
    </g>
    <g id="ytick_2">
     <g id="line2d_9">
      <g>
       <use style="stroke:#000000;stroke-width:0.8;" x="57.6" xlink:href="#m8bf03af1db" y="228.458787"/>
      </g>
     </g>
     <g id="text_9">
      <!-- 20 -->
      <g transform="translate(37.875 232.258005)scale(0.1 -0.1)">
       <use xlink:href="#DejaVuSans-50"/>
       <use x="63.623047" xlink:href="#DejaVuSans-48"/>
      </g>
     </g>
    </g>
    <g id="ytick_3">
     <g id="line2d_10">
      <g>
       <use style="stroke:#000000;stroke-width:0.8;" x="57.6" xlink:href="#m8bf03af1db" y="173.362802"/>
      </g>
     </g>
     <g id="text_10">
      <!-- 40 -->
      <g transform="translate(37.875 177.162021)scale(0.1 -0.1)">
       <use xlink:href="#DejaVuSans-52"/>
       <use x="63.623047" xlink:href="#DejaVuSans-48"/>
      </g>
     </g>
    </g>
    <g id="ytick_4">
     <g id="line2d_11">
      <g>
       <use style="stroke:#000000;stroke-width:0.8;" x="57.6" xlink:href="#m8bf03af1db" y="118.266818"/>
      </g>
     </g>
     <g id="text_11">
      <!-- 60 -->
      <g transform="translate(37.875 122.066036)scale(0.1 -0.1)">
       <use xlink:href="#DejaVuSans-54"/>
       <use x="63.623047" xlink:href="#DejaVuSans-48"/>
      </g>
     </g>
    </g>
    <g id="ytick_5">
     <g id="line2d_12">
      <g>
       <use style="stroke:#000000;stroke-width:0.8;" x="57.6" xlink:href="#m8bf03af1db" y="63.170833"/>
      </g>
     </g>
     <g id="text_12">
      <!-- 80 -->
      <g transform="translate(37.875 66.970052)scale(0.1 -0.1)">
       <use xlink:href="#DejaVuSans-56"/>
       <use x="63.623047" xlink:href="#DejaVuSans-48"/>
      </g>
     </g>
    </g>
   </g>
   <g id="line2d_13">
    <path clip-path="url(#pe4182c4910)" d="M 85.770623 247.723098 
L 85.167322 242.216254 
L 84.878068 236.695636 
L 84.894596 231.172264 
L 85.203134 225.662666 
L 85.792661 220.175105 
L 86.654913 214.723358 
L 87.781626 209.318442 
L 89.159026 203.968622 
L 90.778848 198.687672 
L 92.630073 193.489365 
L 94.698927 188.381968 
L 96.977146 183.362723 
L 99.442691 178.428878 
L 102.081789 173.583186 
L 104.880665 168.817384 
L 107.831055 164.13698 
L 110.946733 159.569523 
L 114.260756 155.153579 
L 117.797918 150.922208 
L 121.585767 146.91122 
L 125.640832 143.153674 
L 129.943828 139.666098 
L 134.469963 136.467776 
L 139.188934 133.575237 
L 144.078703 131.005009 
L 149.103457 128.754338 
L 154.235648 126.759864 
L 162.053768 124.051896 
L 175.117026 119.613915 
L 182.858012 116.710356 
L 190.513599 113.600188 
L 198.081032 110.2779 
L 215.637368 102.291737 
L 220.733746 100.203599 
L 225.907259 98.300033 
L 231.160661 96.630625 
L 236.496707 95.231187 
L 241.923662 94.151305 
L 247.436015 93.424038 
L 253.025503 93.101727 
L 255.832643 93.104482 
L 258.631519 93.231202 
L 261.416621 93.481889 
L 264.174175 93.867561 
L 266.898672 94.393728 
L 269.579091 95.065899 
L 272.204415 95.895093 
L 274.766378 96.881311 
L 277.256717 98.035572 
L 279.672676 99.344102 
L 282.01701 100.795881 
L 284.289719 102.377136 
L 286.488049 104.079602 
L 288.617509 105.883995 
L 292.658799 109.762753 
L 296.416345 113.91699 
L 299.892902 118.258553 
L 303.102243 122.76265 
L 306.055388 127.415506 
L 308.763355 132.211611 
L 311.242675 137.134438 
L 313.50161 142.172965 
L 315.531897 147.313421 
L 317.319762 152.54203 
L 318.854185 157.847773 
L 320.126902 163.211367 
L 321.135159 168.619038 
L 321.93956 174.065276 
L 323.223297 185.018358 
L 324.559374 195.982459 
L 325.429891 201.434206 
L 326.529056 206.836368 
L 327.934003 212.172414 
L 329.716358 217.420306 
L 330.768692 220.004308 
L 331.936726 222.549742 
L 333.214953 225.045591 
L 334.603372 227.480833 
L 336.101983 229.844451 
L 337.710786 232.12267 
L 339.42978 234.307225 
L 341.258967 236.387099 
L 343.195591 238.348516 
L 345.239652 240.180457 
L 347.388395 241.874659 
L 349.636312 243.43663 
L 351.975136 244.871881 
L 354.396605 246.183165 
L 356.892453 247.384257 
L 359.451661 248.475158 
L 364.732611 250.359441 
L 370.17334 251.888354 
L 375.707731 253.11424 
L 381.264161 254.086684 
L 386.779269 254.860783 
L 394.826038 255.753337 
L 397.412794 256.006779 
L 397.412794 256.006779 
" style="fill:none;stroke:#fea952;stroke-linecap:square;"/>
   </g>
   <g id="line2d_14">
    <path clip-path="url(#pe4182c4910)" d="M 74.835342 249.08043 
L 74.171951 242.9405 
L 73.859418 236.805493 
L 73.885552 230.699348 
L 74.232589 224.628331 
L 74.889556 218.579798 
L 75.842153 212.600405 
L 77.079902 206.692454 
L 78.587763 200.85878 
L 80.359727 195.100942 
L 82.374876 189.457784 
L 84.622657 183.921979 
L 87.075451 178.527525 
L 89.724749 173.234236 
L 92.535474 168.079499 
L 95.508153 163.022669 
L 98.664218 158.022096 
L 102.054162 153.062227 
L 105.712306 148.2004 
L 109.667312 143.484739 
L 113.960571 138.956405 
L 118.558515 134.711903 
L 123.437926 130.772508 
L 128.558995 127.168145 
L 133.895448 123.910781 
L 139.426089 121.016222 
L 145.00343 118.526314 
L 150.51415 116.388116 
L 158.588997 113.591587 
L 171.339799 109.262332 
L 178.803604 106.464163 
L 186.171594 103.472518 
L 193.486418 100.262301 
L 211.382 92.127361 
L 216.82242 89.901938 
L 222.43591 87.841905 
L 228.222227 86.010441 
L 234.179616 84.45836 
L 240.29335 83.25338 
L 243.414713 82.793084 
L 246.589221 82.437426 
L 249.801617 82.19806 
L 253.036316 82.082535 
L 256.331033 82.096561 
L 259.619362 82.256374 
L 262.942912 82.568909 
L 266.263642 83.048281 
L 269.578973 83.705478 
L 272.897845 84.55835 
L 276.16304 85.611515 
L 279.400187 86.883786 
L 282.504619 88.346288 
L 285.474197 89.975801 
L 288.310324 91.750612 
L 291.036697 93.665019 
L 293.611662 95.67265 
L 296.099714 97.794539 
L 298.448077 99.976831 
L 300.711201 102.240683 
L 304.913585 106.90132 
L 308.778837 111.742201 
L 312.329629 116.739524 
L 315.585902 121.884502 
L 318.547698 127.143146 
L 321.245725 132.512566 
L 323.704413 138.010573 
L 325.915578 143.625348 
L 327.868171 149.355531 
L 329.543728 155.172635 
L 330.936335 161.071541 
L 332.022626 166.920284 
L 332.870931 172.676816 
L 334.173479 183.787012 
L 335.456093 194.344102 
L 336.254954 199.374911 
L 337.229528 204.205284 
L 338.436064 208.836336 
L 339.921715 213.26418 
L 341.744504 217.526775 
L 343.909657 221.580345 
L 346.370454 225.308505 
L 347.704214 227.030108 
L 349.100116 228.645065 
L 350.549921 230.142632 
L 352.062238 231.527422 
L 353.676193 232.825554 
L 355.399713 234.04483 
L 357.222328 235.182212 
L 361.213365 237.247571 
L 365.579209 239.019076 
L 370.249001 240.512021 
L 375.183199 241.7486 
L 380.277875 242.75664 
L 385.479024 243.573279 
L 393.304401 244.521259 
L 398.487273 245.040093 
L 398.487273 245.040093 
" style="fill:none;stroke:#ffffff;stroke-linecap:square;"/>
   </g>
   <g id="line2d_15">
    <path clip-path="url(#pe4182c4910)" d="M 96.705903 246.365766 
L 96.162692 241.492008 
L 95.896717 236.58578 
L 95.90364 231.64518 
L 96.173679 226.697 
L 96.695766 221.770413 
L 97.467673 216.846311 
L 98.48335 211.944429 
L 99.730288 207.078463 
L 101.197968 202.274401 
L 102.885269 197.520946 
L 104.775196 192.841956 
L 106.87884 188.197922 
L 109.160633 183.62352 
L 111.628104 179.086873 
L 114.253177 174.612098 
L 116.997891 170.251864 
L 119.839303 166.076818 
L 122.809206 162.106759 
L 125.928524 158.359677 
L 129.210963 154.866035 
L 132.723148 151.595445 
L 136.44973 148.559688 
L 140.380932 145.767408 
L 144.48242 143.239693 
L 148.731317 140.993797 
L 153.203484 138.982363 
L 157.957145 137.131612 
L 165.518539 134.512205 
L 178.894252 129.965497 
L 186.912419 126.95655 
L 194.855603 123.727858 
L 202.675647 120.293499 
L 219.892736 112.456113 
L 224.645072 110.505261 
L 229.378608 108.758161 
L 234.099096 107.250808 
L 238.813798 106.004013 
L 243.553974 105.049231 
L 248.282809 104.41065 
L 253.014689 104.120918 
L 257.643676 104.206031 
L 262.084708 104.686841 
L 264.21837 105.081978 
L 266.260338 105.573447 
L 268.24579 106.178672 
L 270.132569 106.878837 
L 272.008815 107.724856 
L 273.871155 108.712402 
L 275.723695 109.84115 
L 277.542741 111.089253 
L 281.135304 113.973452 
L 284.606397 117.284822 
L 287.919106 120.932659 
L 291.006966 124.774906 
L 293.874857 128.785777 
L 296.524874 132.94651 
L 298.979013 137.280077 
L 301.239625 141.756309 
L 303.298807 146.335358 
L 305.148217 151.001493 
L 306.771353 155.728528 
L 308.164642 160.522911 
L 309.317469 165.351194 
L 310.247692 170.317792 
L 311.008189 175.453737 
L 312.273114 186.249704 
L 313.662655 197.620815 
L 314.604827 203.493501 
L 315.828584 209.467451 
L 317.431942 215.508492 
L 318.409643 218.557811 
L 319.511001 221.576433 
L 320.753581 224.599986 
L 322.128949 227.57271 
L 323.642285 230.503311 
L 325.297087 233.381321 
L 327.10086 236.200746 
L 329.051117 238.936835 
L 331.155347 241.584343 
L 333.417818 244.129132 
L 335.841261 246.5544 
L 338.417066 248.833493 
L 341.100598 250.923764 
L 343.87291 252.82843 
L 346.727944 254.561549 
L 349.618282 256.112432 
L 352.57154 257.520944 
L 355.556416 258.78291 
L 358.558231 259.909186 
L 364.626647 261.821172 
L 370.684098 263.322864 
L 376.696772 264.502134 
L 382.586445 265.421019 
L 391.06397 266.445475 
L 396.338316 266.973465 
L 396.338316 266.973465 
" style="fill:none;stroke:#ffffff;stroke-linecap:square;"/>
   </g>
   <g id="patch_3">
    <path d="M 57.6 307.584 
L 57.6 41.472 
" style="fill:none;stroke:#000000;stroke-linecap:square;stroke-linejoin:miter;stroke-width:0.8;"/>
   </g>
   <g id="patch_4">
    <path d="M 414.72 307.584 
L 414.72 41.472 
" style="fill:none;stroke:#000000;stroke-linecap:square;stroke-linejoin:miter;stroke-width:0.8;"/>
   </g>
   <g id="patch_5">
    <path d="M 57.6 307.584 
L 414.72 307.584 
" style="fill:none;stroke:#000000;stroke-linecap:square;stroke-linejoin:miter;stroke-width:0.8;"/>
   </g>
   <g id="patch_6">
    <path d="M 57.6 41.472 
L 414.72 41.472 
" style="fill:none;stroke:#000000;stroke-linecap:square;stroke-linejoin:miter;stroke-width:0.8;"/>
   </g>
  </g>
 </g>
 <defs>
  <clipPath id="pe4182c4910">
   <rect height="266.112" width="357.12" x="57.6" y="41.472"/>
  </clipPath>
 </defs>
</svg>
