<?xml version="1.0" encoding="utf-8" standalone="no"?>
<!DOCTYPE svg PUBLIC "-//W3C//DTD SVG 1.1//EN"
  "http://www.w3.org/Graphics/SVG/1.1/DTD/svg11.dtd">
<!-- Created with matplotlib (https://matplotlib.org/) -->
<svg height="345.6pt" version="1.1" viewBox="0 0 460.8 345.6" width="460.8pt" xmlns="http://www.w3.org/2000/svg" xmlns:xlink="http://www.w3.org/1999/xlink">
 <metadata>
  <rdf:RDF xmlns:cc="http://creativecommons.org/ns#" xmlns:dc="http://purl.org/dc/elements/1.1/" xmlns:rdf="http://www.w3.org/1999/02/22-rdf-syntax-ns#">
   <cc:Work>
    <dc:type rdf:resource="http://purl.org/dc/dcmitype/StillImage"/>
    <dc:date>2021-01-22T09:20:35.057523</dc:date>
    <dc:format>image/svg+xml</dc:format>
    <dc:creator>
     <cc:Agent>
      <dc:title>Matplotlib v3.3.3, https://matplotlib.org/</dc:title>
     </cc:Agent>
    </dc:creator>
   </cc:Work>
  </rdf:RDF>
 </metadata>
 <defs>
  <style type="text/css">*{stroke-linecap:butt;stroke-linejoin:round;}</style>
 </defs>
 <g id="figure_1">
  <g id="patch_1">
   <path d="M 0 345.6 
L 460.8 345.6 
L 460.8 0 
L 0 0 
z
" style="fill:#ffffff;"/>
  </g>
  <g id="axes_1">
   <g id="patch_2">
    <path d="M 57.6 307.584 
L 414.72 307.584 
L 414.72 41.472 
L 57.6 41.472 
z
" style="fill:#7d9051;"/>
   </g>
   <g id="matplotlib.axis_1">
    <g id="xtick_1">
     <g id="line2d_1">
      <defs>
       <path d="M 0 0 
L 0 3.5 
" id="m3386497c9d" style="stroke:#000000;stroke-width:0.8;"/>
      </defs>
      <g>
       <use style="stroke:#000000;stroke-width:0.8;" x="79.869691" xlink:href="#m3386497c9d" y="307.584"/>
      </g>
     </g>
     <g id="text_1">
      <!-- −40 -->
      <g transform="translate(69.317347 322.182437)scale(0.1 -0.1)">
       <defs>
        <path d="M 10.59375 35.5 
L 73.1875 35.5 
L 73.1875 27.203125 
L 10.59375 27.203125 
z
" id="DejaVuSans-8722"/>
        <path d="M 37.796875 64.3125 
L 12.890625 25.390625 
L 37.796875 25.390625 
z
M 35.203125 72.90625 
L 47.609375 72.90625 
L 47.609375 25.390625 
L 58.015625 25.390625 
L 58.015625 17.1875 
L 47.609375 17.1875 
L 47.609375 0 
L 37.796875 0 
L 37.796875 17.1875 
L 4.890625 17.1875 
L 4.890625 26.703125 
z
" id="DejaVuSans-52"/>
        <path d="M 31.78125 66.40625 
Q 24.171875 66.40625 20.328125 58.90625 
Q 16.5 51.421875 16.5 36.375 
Q 16.5 21.390625 20.328125 13.890625 
Q 24.171875 6.390625 31.78125 6.390625 
Q 39.453125 6.390625 43.28125 13.890625 
Q 47.125 21.390625 47.125 36.375 
Q 47.125 51.421875 43.28125 58.90625 
Q 39.453125 66.40625 31.78125 66.40625 
z
M 31.78125 74.21875 
Q 44.046875 74.21875 50.515625 64.515625 
Q 56.984375 54.828125 56.984375 36.375 
Q 56.984375 17.96875 50.515625 8.265625 
Q 44.046875 -1.421875 31.78125 -1.421875 
Q 19.53125 -1.421875 13.0625 8.265625 
Q 6.59375 17.96875 6.59375 36.375 
Q 6.59375 54.828125 13.0625 64.515625 
Q 19.53125 74.21875 31.78125 74.21875 
z
" id="DejaVuSans-48"/>
       </defs>
       <use xlink:href="#DejaVuSans-8722"/>
       <use x="83.789062" xlink:href="#DejaVuSans-52"/>
       <use x="147.412109" xlink:href="#DejaVuSans-48"/>
      </g>
     </g>
    </g>
    <g id="xtick_2">
     <g id="line2d_2">
      <g>
       <use style="stroke:#000000;stroke-width:0.8;" x="119.6348" xlink:href="#m3386497c9d" y="307.584"/>
      </g>
     </g>
     <g id="text_2">
      <!-- −20 -->
      <g transform="translate(109.082456 322.182437)scale(0.1 -0.1)">
       <defs>
        <path d="M 19.1875 8.296875 
L 53.609375 8.296875 
L 53.609375 0 
L 7.328125 0 
L 7.328125 8.296875 
Q 12.9375 14.109375 22.625 23.890625 
Q 32.328125 33.6875 34.8125 36.53125 
Q 39.546875 41.84375 41.421875 45.53125 
Q 43.3125 49.21875 43.3125 52.78125 
Q 43.3125 58.59375 39.234375 62.25 
Q 35.15625 65.921875 28.609375 65.921875 
Q 23.96875 65.921875 18.8125 64.3125 
Q 13.671875 62.703125 7.8125 59.421875 
L 7.8125 69.390625 
Q 13.765625 71.78125 18.9375 73 
Q 24.125 74.21875 28.421875 74.21875 
Q 39.75 74.21875 46.484375 68.546875 
Q 53.21875 62.890625 53.21875 53.421875 
Q 53.21875 48.921875 51.53125 44.890625 
Q 49.859375 40.875 45.40625 35.40625 
Q 44.1875 33.984375 37.640625 27.21875 
Q 31.109375 20.453125 19.1875 8.296875 
z
" id="DejaVuSans-50"/>
       </defs>
       <use xlink:href="#DejaVuSans-8722"/>
       <use x="83.789062" xlink:href="#DejaVuSans-50"/>
       <use x="147.412109" xlink:href="#DejaVuSans-48"/>
      </g>
     </g>
    </g>
    <g id="xtick_3">
     <g id="line2d_3">
      <g>
       <use style="stroke:#000000;stroke-width:0.8;" x="159.399909" xlink:href="#m3386497c9d" y="307.584"/>
      </g>
     </g>
     <g id="text_3">
      <!-- 0 -->
      <g transform="translate(156.218659 322.182437)scale(0.1 -0.1)">
       <use xlink:href="#DejaVuSans-48"/>
      </g>
     </g>
    </g>
    <g id="xtick_4">
     <g id="line2d_4">
      <g>
       <use style="stroke:#000000;stroke-width:0.8;" x="199.165018" xlink:href="#m3386497c9d" y="307.584"/>
      </g>
     </g>
     <g id="text_4">
      <!-- 20 -->
      <g transform="translate(192.802518 322.182437)scale(0.1 -0.1)">
       <use xlink:href="#DejaVuSans-50"/>
       <use x="63.623047" xlink:href="#DejaVuSans-48"/>
      </g>
     </g>
    </g>
    <g id="xtick_5">
     <g id="line2d_5">
      <g>
       <use style="stroke:#000000;stroke-width:0.8;" x="238.930127" xlink:href="#m3386497c9d" y="307.584"/>
      </g>
     </g>
     <g id="text_5">
      <!-- 40 -->
      <g transform="translate(232.567627 322.182437)scale(0.1 -0.1)">
       <use xlink:href="#DejaVuSans-52"/>
       <use x="63.623047" xlink:href="#DejaVuSans-48"/>
      </g>
     </g>
    </g>
    <g id="xtick_6">
     <g id="line2d_6">
      <g>
       <use style="stroke:#000000;stroke-width:0.8;" x="278.695236" xlink:href="#m3386497c9d" y="307.584"/>
      </g>
     </g>
     <g id="text_6">
      <!-- 60 -->
      <g transform="translate(272.332736 322.182437)scale(0.1 -0.1)">
       <defs>
        <path d="M 33.015625 40.375 
Q 26.375 40.375 22.484375 35.828125 
Q 18.609375 31.296875 18.609375 23.390625 
Q 18.609375 15.53125 22.484375 10.953125 
Q 26.375 6.390625 33.015625 6.390625 
Q 39.65625 6.390625 43.53125 10.953125 
Q 47.40625 15.53125 47.40625 23.390625 
Q 47.40625 31.296875 43.53125 35.828125 
Q 39.65625 40.375 33.015625 40.375 
z
M 52.59375 71.296875 
L 52.59375 62.3125 
Q 48.875 64.0625 45.09375 64.984375 
Q 41.3125 65.921875 37.59375 65.921875 
Q 27.828125 65.921875 22.671875 59.328125 
Q 17.53125 52.734375 16.796875 39.40625 
Q 19.671875 43.65625 24.015625 45.921875 
Q 28.375 48.1875 33.59375 48.1875 
Q 44.578125 48.1875 50.953125 41.515625 
Q 57.328125 34.859375 57.328125 23.390625 
Q 57.328125 12.15625 50.6875 5.359375 
Q 44.046875 -1.421875 33.015625 -1.421875 
Q 20.359375 -1.421875 13.671875 8.265625 
Q 6.984375 17.96875 6.984375 36.375 
Q 6.984375 53.65625 15.1875 63.9375 
Q 23.390625 74.21875 37.203125 74.21875 
Q 40.921875 74.21875 44.703125 73.484375 
Q 48.484375 72.75 52.59375 71.296875 
z
" id="DejaVuSans-54"/>
       </defs>
       <use xlink:href="#DejaVuSans-54"/>
       <use x="63.623047" xlink:href="#DejaVuSans-48"/>
      </g>
     </g>
    </g>
    <g id="xtick_7">
     <g id="line2d_7">
      <g>
       <use style="stroke:#000000;stroke-width:0.8;" x="318.460346" xlink:href="#m3386497c9d" y="307.584"/>
      </g>
     </g>
     <g id="text_7">
      <!-- 80 -->
      <g transform="translate(312.097846 322.182437)scale(0.1 -0.1)">
       <defs>
        <path d="M 31.78125 34.625 
Q 24.75 34.625 20.71875 30.859375 
Q 16.703125 27.09375 16.703125 20.515625 
Q 16.703125 13.921875 20.71875 10.15625 
Q 24.75 6.390625 31.78125 6.390625 
Q 38.8125 6.390625 42.859375 10.171875 
Q 46.921875 13.96875 46.921875 20.515625 
Q 46.921875 27.09375 42.890625 30.859375 
Q 38.875 34.625 31.78125 34.625 
z
M 21.921875 38.8125 
Q 15.578125 40.375 12.03125 44.71875 
Q 8.5 49.078125 8.5 55.328125 
Q 8.5 64.0625 14.71875 69.140625 
Q 20.953125 74.21875 31.78125 74.21875 
Q 42.671875 74.21875 48.875 69.140625 
Q 55.078125 64.0625 55.078125 55.328125 
Q 55.078125 49.078125 51.53125 44.71875 
Q 48 40.375 41.703125 38.8125 
Q 48.828125 37.15625 52.796875 32.3125 
Q 56.78125 27.484375 56.78125 20.515625 
Q 56.78125 9.90625 50.3125 4.234375 
Q 43.84375 -1.421875 31.78125 -1.421875 
Q 19.734375 -1.421875 13.25 4.234375 
Q 6.78125 9.90625 6.78125 20.515625 
Q 6.78125 27.484375 10.78125 32.3125 
Q 14.796875 37.15625 21.921875 38.8125 
z
M 18.3125 54.390625 
Q 18.3125 48.734375 21.84375 45.5625 
Q 25.390625 42.390625 31.78125 42.390625 
Q 38.140625 42.390625 41.71875 45.5625 
Q 45.3125 48.734375 45.3125 54.390625 
Q 45.3125 60.0625 41.71875 63.234375 
Q 38.140625 66.40625 31.78125 66.40625 
Q 25.390625 66.40625 21.84375 63.234375 
Q 18.3125 60.0625 18.3125 54.390625 
z
" id="DejaVuSans-56"/>
       </defs>
       <use xlink:href="#DejaVuSans-56"/>
       <use x="63.623047" xlink:href="#DejaVuSans-48"/>
      </g>
     </g>
    </g>
    <g id="xtick_8">
     <g id="line2d_8">
      <g>
       <use style="stroke:#000000;stroke-width:0.8;" x="358.225455" xlink:href="#m3386497c9d" y="307.584"/>
      </g>
     </g>
     <g id="text_8">
      <!-- 100 -->
      <g transform="translate(348.681705 322.182437)scale(0.1 -0.1)">
       <defs>
        <path d="M 12.40625 8.296875 
L 28.515625 8.296875 
L 28.515625 63.921875 
L 10.984375 60.40625 
L 10.984375 69.390625 
L 28.421875 72.90625 
L 38.28125 72.90625 
L 38.28125 8.296875 
L 54.390625 8.296875 
L 54.390625 0 
L 12.40625 0 
z
" id="DejaVuSans-49"/>
       </defs>
       <use xlink:href="#DejaVuSans-49"/>
       <use x="63.623047" xlink:href="#DejaVuSans-48"/>
       <use x="127.246094" xlink:href="#DejaVuSans-48"/>
      </g>
     </g>
    </g>
    <g id="xtick_9">
     <g id="line2d_9">
      <g>
       <use style="stroke:#000000;stroke-width:0.8;" x="397.990564" xlink:href="#m3386497c9d" y="307.584"/>
      </g>
     </g>
     <g id="text_9">
      <!-- 120 -->
      <g transform="translate(388.446814 322.182437)scale(0.1 -0.1)">
       <use xlink:href="#DejaVuSans-49"/>
       <use x="63.623047" xlink:href="#DejaVuSans-50"/>
       <use x="127.246094" xlink:href="#DejaVuSans-48"/>
      </g>
     </g>
    </g>
   </g>
   <g id="matplotlib.axis_2">
    <g id="ytick_1">
     <g id="line2d_10">
      <defs>
       <path d="M 0 0 
L -3.5 0 
" id="mde15705c81" style="stroke:#000000;stroke-width:0.8;"/>
      </defs>
      <g>
       <use style="stroke:#000000;stroke-width:0.8;" x="57.6" xlink:href="#mde15705c81" y="274.473118"/>
      </g>
     </g>
     <g id="text_10">
      <!-- 20 -->
      <g transform="translate(37.875 278.272337)scale(0.1 -0.1)">
       <use xlink:href="#DejaVuSans-50"/>
       <use x="63.623047" xlink:href="#DejaVuSans-48"/>
      </g>
     </g>
    </g>
    <g id="ytick_2">
     <g id="line2d_11">
      <g>
       <use style="stroke:#000000;stroke-width:0.8;" x="57.6" xlink:href="#mde15705c81" y="234.708009"/>
      </g>
     </g>
     <g id="text_11">
      <!-- 40 -->
      <g transform="translate(37.875 238.507228)scale(0.1 -0.1)">
       <use xlink:href="#DejaVuSans-52"/>
       <use x="63.623047" xlink:href="#DejaVuSans-48"/>
      </g>
     </g>
    </g>
    <g id="ytick_3">
     <g id="line2d_12">
      <g>
       <use style="stroke:#000000;stroke-width:0.8;" x="57.6" xlink:href="#mde15705c81" y="194.9429"/>
      </g>
     </g>
     <g id="text_12">
      <!-- 60 -->
      <g transform="translate(37.875 198.742119)scale(0.1 -0.1)">
       <use xlink:href="#DejaVuSans-54"/>
       <use x="63.623047" xlink:href="#DejaVuSans-48"/>
      </g>
     </g>
    </g>
    <g id="ytick_4">
     <g id="line2d_13">
      <g>
       <use style="stroke:#000000;stroke-width:0.8;" x="57.6" xlink:href="#mde15705c81" y="155.177791"/>
      </g>
     </g>
     <g id="text_13">
      <!-- 80 -->
      <g transform="translate(37.875 158.97701)scale(0.1 -0.1)">
       <use xlink:href="#DejaVuSans-56"/>
       <use x="63.623047" xlink:href="#DejaVuSans-48"/>
      </g>
     </g>
    </g>
    <g id="ytick_5">
     <g id="line2d_14">
      <g>
       <use style="stroke:#000000;stroke-width:0.8;" x="57.6" xlink:href="#mde15705c81" y="115.412682"/>
      </g>
     </g>
     <g id="text_14">
      <!-- 100 -->
      <g transform="translate(31.5125 119.211901)scale(0.1 -0.1)">
       <use xlink:href="#DejaVuSans-49"/>
       <use x="63.623047" xlink:href="#DejaVuSans-48"/>
       <use x="127.246094" xlink:href="#DejaVuSans-48"/>
      </g>
     </g>
    </g>
    <g id="ytick_6">
     <g id="line2d_15">
      <g>
       <use style="stroke:#000000;stroke-width:0.8;" x="57.6" xlink:href="#mde15705c81" y="75.647573"/>
      </g>
     </g>
     <g id="text_15">
      <!-- 120 -->
      <g transform="translate(31.5125 79.446792)scale(0.1 -0.1)">
       <use xlink:href="#DejaVuSans-49"/>
       <use x="63.623047" xlink:href="#DejaVuSans-50"/>
       <use x="127.246094" xlink:href="#DejaVuSans-48"/>
      </g>
     </g>
    </g>
   </g>
   <g id="line2d_16">
    <path clip-path="url(#p9ac5d900d6)" d="M 222.863035 294.355673 
L 223.368052 290.327467 
L 223.596701 286.329086 
L 223.574831 282.354563 
L 223.326299 278.403899 
L 222.878941 274.473118 
L 222.258605 270.56222 
L 221.061676 264.72669 
L 219.62019 258.920984 
L 214.989544 241.565502 
L 214.255877 237.674486 
L 213.766766 233.753647 
L 213.530164 229.800995 
L 213.504317 225.824484 
L 213.758813 219.83387 
L 214.406985 211.843072 
L 214.848377 205.866376 
L 214.969661 201.895829 
L 214.858319 197.937213 
L 214.436808 193.994502 
L 213.675307 190.081616 
L 212.593696 186.226388 
L 211.219811 182.454668 
L 209.577512 178.796278 
L 207.688669 175.275077 
L 205.589072 171.891066 
L 203.330414 168.61641 
L 199.747577 163.838632 
L 191.28755 152.797849 
L 187.915469 147.874929 
L 185.831777 144.457118 
L 183.923052 140.908082 
L 182.246953 137.237762 
L 180.87108 133.464053 
L 179.861046 129.606838 
L 179.513101 127.652383 
L 179.282464 125.685998 
L 179.17311 123.707684 
L 179.181063 121.721417 
L 179.521054 117.744906 
L 180.246768 113.790266 
L 181.300543 109.893285 
L 182.624721 106.085776 
L 184.171584 102.393585 
L 185.903354 98.806773 
L 187.794185 95.311419 
L 190.862064 90.195638 
L 194.134732 85.193187 
L 197.63605 80.349797 
L 200.151193 77.262036 
L 202.843291 74.325383 
L 205.746144 71.569661 
L 208.867705 69.0406 
L 212.196045 66.791883 
L 215.721222 64.877193 
L 217.554393 64.062008 
L 219.429318 63.350213 
L 221.349973 62.747772 
L 223.308404 62.262637 
L 225.298648 61.89481 
L 227.312751 61.648266 
L 229.338783 61.521018 
L 231.366804 61.51903 
L 233.390848 61.640313 
L 235.396997 61.886857 
L 237.3773 62.260649 
L 239.321814 62.763678 
L 241.220598 63.395943 
L 243.067687 64.159433 
L 244.859105 65.044207 
L 246.594852 66.040323 
L 249.893368 68.332781 
L 252.95727 70.961255 
L 255.778604 73.848202 
L 258.357371 76.918068 
L 260.723395 80.113195 
L 264.041794 85.052021 
L 268.441803 91.694783 
L 270.791921 94.947569 
L 273.28917 98.094977 
L 275.949456 101.087302 
L 278.786696 103.872847 
L 281.816798 106.403897 
L 285.055666 108.630743 
L 288.517218 110.505668 
L 290.336472 111.293017 
L 292.215374 111.974988 
L 294.159887 112.543629 
L 296.168025 112.990987 
L 298.243764 113.315073 
L 300.387103 113.507933 
L 300.387103 113.507933 
" style="fill:none;stroke:#fea952;stroke-linecap:square;"/>
   </g>
   <g id="line2d_17">
    <path clip-path="url(#p9ac5d900d6)" d="M 214.991035 293.223346 
L 215.436417 289.744606 
L 215.644001 286.257583 
L 215.631435 282.745745 
L 215.414345 279.211078 
L 215.01187 275.639202 
L 214.103817 270.220847 
L 212.888346 264.715166 
L 210.91545 257.227761 
L 208.181156 247.333612 
L 207.194979 243.145158 
L 206.382148 238.794732 
L 205.835736 234.34468 
L 205.57858 229.952226 
L 205.553966 225.618393 
L 205.825564 219.273412 
L 206.64515 209.255226 
L 206.980303 203.728726 
L 207.002906 200.273217 
L 206.803935 196.982656 
L 206.323244 193.71201 
L 205.55793 190.441195 
L 204.525093 187.194179 
L 203.233894 183.9948 
L 201.716601 180.893244 
L 199.96355 177.855359 
L 197.978733 174.826993 
L 194.650761 170.260663 
L 183.58087 155.680336 
L 181.175328 152.096427 
L 178.885895 148.330783 
L 176.748094 144.338902 
L 174.835437 140.122201 
L 173.230968 135.672956 
L 172.57402 133.363843 
L 172.031135 131.000769 
L 171.614226 128.578843 
L 171.341564 126.124942 
L 171.220152 123.67584 
L 171.242318 121.245092 
L 171.395883 118.855764 
L 171.668508 116.484718 
L 172.531203 111.861374 
L 173.747846 107.401835 
L 175.244884 103.121226 
L 176.968545 99.022119 
L 178.871283 95.091866 
L 180.910162 91.328861 
L 184.159281 85.91507 
L 187.604115 80.654289 
L 190.086164 77.15336 
L 192.774795 73.683572 
L 195.697156 70.306047 
L 198.90141 67.051217 
L 202.401664 63.993041 
L 206.200595 61.193901 
L 208.226515 59.900338 
L 210.316121 58.708227 
L 212.489731 57.61028 
L 214.731681 56.626764 
L 217.04908 55.761733 
L 219.437683 55.028076 
L 221.863042 54.442056 
L 224.332342 54.00071 
L 226.81423 53.710884 
L 229.330986 53.568 
L 231.842507 53.580248 
L 234.360928 53.746677 
L 236.872122 54.071835 
L 239.369109 54.561087 
L 241.83441 55.217989 
L 244.258654 56.046061 
L 246.589521 57.028708 
L 248.817666 58.146355 
L 250.953507 59.388054 
L 252.987984 60.735227 
L 254.928241 62.176434 
L 258.529802 65.286976 
L 261.777967 68.627263 
L 264.688195 72.104418 
L 267.267469 75.593719 
L 270.706496 80.712401 
L 274.935228 87.102835 
L 277.08572 90.085609 
L 279.315288 92.904943 
L 281.624446 95.515493 
L 284.017566 97.882142 
L 286.486412 99.966098 
L 289.03693 101.74597 
L 291.676041 103.206873 
L 294.447614 104.341663 
L 297.39487 105.133162 
L 298.956509 105.394053 
L 301.099848 105.586914 
L 301.099848 105.586914 
" style="fill:none;stroke:#ffffff;stroke-linecap:square;"/>
   </g>
   <g id="line2d_18">
    <path clip-path="url(#p9ac5d900d6)" d="M 230.735036 295.488 
L 231.299687 290.910328 
L 231.549402 286.400588 
L 231.518226 281.963381 
L 231.238253 277.59672 
L 230.746012 273.307035 
L 230.075048 269.094643 
L 228.802241 262.900711 
L 227.300593 256.85653 
L 222.784108 239.985846 
L 222.129606 236.55424 
L 221.697796 233.162613 
L 221.481748 229.649763 
L 221.454668 226.030575 
L 221.692063 220.394329 
L 222.331601 212.514649 
L 222.79438 206.200442 
L 222.922199 201.808088 
L 222.783037 197.266844 
L 222.273092 192.636848 
L 221.372882 188.082143 
L 220.11786 183.650051 
L 218.531828 179.326574 
L 216.647741 175.154517 
L 214.50412 171.176275 
L 212.183043 167.444709 
L 209.75336 163.926387 
L 206.027024 158.95815 
L 197.770994 148.19182 
L 194.65561 143.65343 
L 192.777659 140.583453 
L 191.09801 137.477261 
L 189.658468 134.353323 
L 188.511191 131.255151 
L 187.690957 128.212906 
L 187.223363 125.247054 
L 187.119808 122.197741 
L 187.373601 119.005094 
L 187.962332 115.719157 
L 188.85324 112.384735 
L 190.004559 109.050326 
L 191.374623 105.765052 
L 192.935426 102.521679 
L 195.607152 97.686064 
L 198.592267 92.866629 
L 201.723755 88.207186 
L 203.86949 85.288905 
L 206.098421 82.542286 
L 208.427241 79.988426 
L 210.877689 77.645663 
L 213.462725 75.531852 
L 216.165574 73.683428 
L 218.952712 72.144106 
L 221.809555 70.938693 
L 224.753766 70.083218 
L 227.811271 69.585648 
L 230.891101 69.457812 
L 233.921873 69.701879 
L 236.809218 70.309366 
L 239.545853 71.290158 
L 242.236197 72.692592 
L 244.858495 74.489129 
L 247.384737 76.635533 
L 249.779242 79.069141 
L 252.026548 81.731718 
L 254.179322 84.63267 
L 257.377092 89.391642 
L 261.948378 96.286731 
L 264.498122 99.809528 
L 267.263051 103.285011 
L 270.274466 106.65911 
L 273.555826 109.863553 
L 277.147183 112.841696 
L 279.07056 114.224289 
L 281.074401 115.515515 
L 283.165679 116.710602 
L 285.358396 117.804462 
L 287.623029 118.76883 
L 289.983133 119.608314 
L 292.430566 120.306361 
L 294.941181 120.848812 
L 297.531019 121.236092 
L 299.674359 121.428953 
L 299.674359 121.428953 
" style="fill:none;stroke:#ffffff;stroke-linecap:square;"/>
   </g>
   <g id="patch_3">
    <path d="M 57.6 307.584 
L 57.6 41.472 
" style="fill:none;stroke:#000000;stroke-linecap:square;stroke-linejoin:miter;stroke-width:0.8;"/>
   </g>
   <g id="patch_4">
    <path d="M 414.72 307.584 
L 414.72 41.472 
" style="fill:none;stroke:#000000;stroke-linecap:square;stroke-linejoin:miter;stroke-width:0.8;"/>
   </g>
   <g id="patch_5">
    <path d="M 57.6 307.584 
L 414.72 307.584 
" style="fill:none;stroke:#000000;stroke-linecap:square;stroke-linejoin:miter;stroke-width:0.8;"/>
   </g>
   <g id="patch_6">
    <path d="M 57.6 41.472 
L 414.72 41.472 
" style="fill:none;stroke:#000000;stroke-linecap:square;stroke-linejoin:miter;stroke-width:0.8;"/>
   </g>
  </g>
 </g>
 <defs>
  <clipPath id="p9ac5d900d6">
   <rect height="266.112" width="357.12" x="57.6" y="41.472"/>
  </clipPath>
 </defs>
</svg>
