<?xml version="1.0" encoding="utf-8" standalone="no"?>
<!DOCTYPE svg PUBLIC "-//W3C//DTD SVG 1.1//EN"
  "http://www.w3.org/Graphics/SVG/1.1/DTD/svg11.dtd">
<!-- Created with matplotlib (https://matplotlib.org/) -->
<svg height="345.6pt" version="1.1" viewBox="0 0 460.8 345.6" width="460.8pt" xmlns="http://www.w3.org/2000/svg" xmlns:xlink="http://www.w3.org/1999/xlink">
 <metadata>
  <rdf:RDF xmlns:cc="http://creativecommons.org/ns#" xmlns:dc="http://purl.org/dc/elements/1.1/" xmlns:rdf="http://www.w3.org/1999/02/22-rdf-syntax-ns#">
   <cc:Work>
    <dc:type rdf:resource="http://purl.org/dc/dcmitype/StillImage"/>
    <dc:date>2021-01-23T13:55:05.750799</dc:date>
    <dc:format>image/svg+xml</dc:format>
    <dc:creator>
     <cc:Agent>
      <dc:title>Matplotlib v3.3.3, https://matplotlib.org/</dc:title>
     </cc:Agent>
    </dc:creator>
   </cc:Work>
  </rdf:RDF>
 </metadata>
 <defs>
  <style type="text/css">*{stroke-linecap:butt;stroke-linejoin:round;}</style>
 </defs>
 <g id="figure_1">
  <g id="patch_1">
   <path d="M 0 345.6 
L 460.8 345.6 
L 460.8 0 
L 0 0 
z
" style="fill:#ffffff;"/>
  </g>
  <g id="axes_1">
   <g id="patch_2">
    <path d="M 57.6 307.584 
L 414.72 307.584 
L 414.72 41.472 
L 57.6 41.472 
z
" style="fill:#7d9051;"/>
   </g>
   <g id="matplotlib.axis_1">
    <g id="xtick_1">
     <g id="line2d_1">
      <defs>
       <path d="M 0 0 
L 0 3.5 
" id="m602f1c0ca5" style="stroke:#000000;stroke-width:0.8;"/>
      </defs>
      <g>
       <use style="stroke:#000000;stroke-width:0.8;" x="83.248074" xlink:href="#m602f1c0ca5" y="307.584"/>
      </g>
     </g>
     <g id="text_1">
      <!-- −20 -->
      <g transform="translate(72.69573 322.182437)scale(0.1 -0.1)">
       <defs>
        <path d="M 10.59375 35.5 
L 73.1875 35.5 
L 73.1875 27.203125 
L 10.59375 27.203125 
z
" id="DejaVuSans-8722"/>
        <path d="M 19.1875 8.296875 
L 53.609375 8.296875 
L 53.609375 0 
L 7.328125 0 
L 7.328125 8.296875 
Q 12.9375 14.109375 22.625 23.890625 
Q 32.328125 33.6875 34.8125 36.53125 
Q 39.546875 41.84375 41.421875 45.53125 
Q 43.3125 49.21875 43.3125 52.78125 
Q 43.3125 58.59375 39.234375 62.25 
Q 35.15625 65.921875 28.609375 65.921875 
Q 23.96875 65.921875 18.8125 64.3125 
Q 13.671875 62.703125 7.8125 59.421875 
L 7.8125 69.390625 
Q 13.765625 71.78125 18.9375 73 
Q 24.125 74.21875 28.421875 74.21875 
Q 39.75 74.21875 46.484375 68.546875 
Q 53.21875 62.890625 53.21875 53.421875 
Q 53.21875 48.921875 51.53125 44.890625 
Q 49.859375 40.875 45.40625 35.40625 
Q 44.1875 33.984375 37.640625 27.21875 
Q 31.109375 20.453125 19.1875 8.296875 
z
" id="DejaVuSans-50"/>
        <path d="M 31.78125 66.40625 
Q 24.171875 66.40625 20.328125 58.90625 
Q 16.5 51.421875 16.5 36.375 
Q 16.5 21.390625 20.328125 13.890625 
Q 24.171875 6.390625 31.78125 6.390625 
Q 39.453125 6.390625 43.28125 13.890625 
Q 47.125 21.390625 47.125 36.375 
Q 47.125 51.421875 43.28125 58.90625 
Q 39.453125 66.40625 31.78125 66.40625 
z
M 31.78125 74.21875 
Q 44.046875 74.21875 50.515625 64.515625 
Q 56.984375 54.828125 56.984375 36.375 
Q 56.984375 17.96875 50.515625 8.265625 
Q 44.046875 -1.421875 31.78125 -1.421875 
Q 19.53125 -1.421875 13.0625 8.265625 
Q 6.59375 17.96875 6.59375 36.375 
Q 6.59375 54.828125 13.0625 64.515625 
Q 19.53125 74.21875 31.78125 74.21875 
z
" id="DejaVuSans-48"/>
       </defs>
       <use xlink:href="#DejaVuSans-8722"/>
       <use x="83.789062" xlink:href="#DejaVuSans-50"/>
       <use x="147.412109" xlink:href="#DejaVuSans-48"/>
      </g>
     </g>
    </g>
    <g id="xtick_2">
     <g id="line2d_2">
      <g>
       <use style="stroke:#000000;stroke-width:0.8;" x="131.824606" xlink:href="#m602f1c0ca5" y="307.584"/>
      </g>
     </g>
     <g id="text_2">
      <!-- 0 -->
      <g transform="translate(128.643356 322.182437)scale(0.1 -0.1)">
       <use xlink:href="#DejaVuSans-48"/>
      </g>
     </g>
    </g>
    <g id="xtick_3">
     <g id="line2d_3">
      <g>
       <use style="stroke:#000000;stroke-width:0.8;" x="180.401139" xlink:href="#m602f1c0ca5" y="307.584"/>
      </g>
     </g>
     <g id="text_3">
      <!-- 20 -->
      <g transform="translate(174.038639 322.182437)scale(0.1 -0.1)">
       <use xlink:href="#DejaVuSans-50"/>
       <use x="63.623047" xlink:href="#DejaVuSans-48"/>
      </g>
     </g>
    </g>
    <g id="xtick_4">
     <g id="line2d_4">
      <g>
       <use style="stroke:#000000;stroke-width:0.8;" x="228.977671" xlink:href="#m602f1c0ca5" y="307.584"/>
      </g>
     </g>
     <g id="text_4">
      <!-- 40 -->
      <g transform="translate(222.615171 322.182437)scale(0.1 -0.1)">
       <defs>
        <path d="M 37.796875 64.3125 
L 12.890625 25.390625 
L 37.796875 25.390625 
z
M 35.203125 72.90625 
L 47.609375 72.90625 
L 47.609375 25.390625 
L 58.015625 25.390625 
L 58.015625 17.1875 
L 47.609375 17.1875 
L 47.609375 0 
L 37.796875 0 
L 37.796875 17.1875 
L 4.890625 17.1875 
L 4.890625 26.703125 
z
" id="DejaVuSans-52"/>
       </defs>
       <use xlink:href="#DejaVuSans-52"/>
       <use x="63.623047" xlink:href="#DejaVuSans-48"/>
      </g>
     </g>
    </g>
    <g id="xtick_5">
     <g id="line2d_5">
      <g>
       <use style="stroke:#000000;stroke-width:0.8;" x="277.554204" xlink:href="#m602f1c0ca5" y="307.584"/>
      </g>
     </g>
     <g id="text_5">
      <!-- 60 -->
      <g transform="translate(271.191704 322.182437)scale(0.1 -0.1)">
       <defs>
        <path d="M 33.015625 40.375 
Q 26.375 40.375 22.484375 35.828125 
Q 18.609375 31.296875 18.609375 23.390625 
Q 18.609375 15.53125 22.484375 10.953125 
Q 26.375 6.390625 33.015625 6.390625 
Q 39.65625 6.390625 43.53125 10.953125 
Q 47.40625 15.53125 47.40625 23.390625 
Q 47.40625 31.296875 43.53125 35.828125 
Q 39.65625 40.375 33.015625 40.375 
z
M 52.59375 71.296875 
L 52.59375 62.3125 
Q 48.875 64.0625 45.09375 64.984375 
Q 41.3125 65.921875 37.59375 65.921875 
Q 27.828125 65.921875 22.671875 59.328125 
Q 17.53125 52.734375 16.796875 39.40625 
Q 19.671875 43.65625 24.015625 45.921875 
Q 28.375 48.1875 33.59375 48.1875 
Q 44.578125 48.1875 50.953125 41.515625 
Q 57.328125 34.859375 57.328125 23.390625 
Q 57.328125 12.15625 50.6875 5.359375 
Q 44.046875 -1.421875 33.015625 -1.421875 
Q 20.359375 -1.421875 13.671875 8.265625 
Q 6.984375 17.96875 6.984375 36.375 
Q 6.984375 53.65625 15.1875 63.9375 
Q 23.390625 74.21875 37.203125 74.21875 
Q 40.921875 74.21875 44.703125 73.484375 
Q 48.484375 72.75 52.59375 71.296875 
z
" id="DejaVuSans-54"/>
       </defs>
       <use xlink:href="#DejaVuSans-54"/>
       <use x="63.623047" xlink:href="#DejaVuSans-48"/>
      </g>
     </g>
    </g>
    <g id="xtick_6">
     <g id="line2d_6">
      <g>
       <use style="stroke:#000000;stroke-width:0.8;" x="326.130737" xlink:href="#m602f1c0ca5" y="307.584"/>
      </g>
     </g>
     <g id="text_6">
      <!-- 80 -->
      <g transform="translate(319.768237 322.182437)scale(0.1 -0.1)">
       <defs>
        <path d="M 31.78125 34.625 
Q 24.75 34.625 20.71875 30.859375 
Q 16.703125 27.09375 16.703125 20.515625 
Q 16.703125 13.921875 20.71875 10.15625 
Q 24.75 6.390625 31.78125 6.390625 
Q 38.8125 6.390625 42.859375 10.171875 
Q 46.921875 13.96875 46.921875 20.515625 
Q 46.921875 27.09375 42.890625 30.859375 
Q 38.875 34.625 31.78125 34.625 
z
M 21.921875 38.8125 
Q 15.578125 40.375 12.03125 44.71875 
Q 8.5 49.078125 8.5 55.328125 
Q 8.5 64.0625 14.71875 69.140625 
Q 20.953125 74.21875 31.78125 74.21875 
Q 42.671875 74.21875 48.875 69.140625 
Q 55.078125 64.0625 55.078125 55.328125 
Q 55.078125 49.078125 51.53125 44.71875 
Q 48 40.375 41.703125 38.8125 
Q 48.828125 37.15625 52.796875 32.3125 
Q 56.78125 27.484375 56.78125 20.515625 
Q 56.78125 9.90625 50.3125 4.234375 
Q 43.84375 -1.421875 31.78125 -1.421875 
Q 19.734375 -1.421875 13.25 4.234375 
Q 6.78125 9.90625 6.78125 20.515625 
Q 6.78125 27.484375 10.78125 32.3125 
Q 14.796875 37.15625 21.921875 38.8125 
z
M 18.3125 54.390625 
Q 18.3125 48.734375 21.84375 45.5625 
Q 25.390625 42.390625 31.78125 42.390625 
Q 38.140625 42.390625 41.71875 45.5625 
Q 45.3125 48.734375 45.3125 54.390625 
Q 45.3125 60.0625 41.71875 63.234375 
Q 38.140625 66.40625 31.78125 66.40625 
Q 25.390625 66.40625 21.84375 63.234375 
Q 18.3125 60.0625 18.3125 54.390625 
z
" id="DejaVuSans-56"/>
       </defs>
       <use xlink:href="#DejaVuSans-56"/>
       <use x="63.623047" xlink:href="#DejaVuSans-48"/>
      </g>
     </g>
    </g>
    <g id="xtick_7">
     <g id="line2d_7">
      <g>
       <use style="stroke:#000000;stroke-width:0.8;" x="374.707269" xlink:href="#m602f1c0ca5" y="307.584"/>
      </g>
     </g>
     <g id="text_7">
      <!-- 100 -->
      <g transform="translate(365.163519 322.182437)scale(0.1 -0.1)">
       <defs>
        <path d="M 12.40625 8.296875 
L 28.515625 8.296875 
L 28.515625 63.921875 
L 10.984375 60.40625 
L 10.984375 69.390625 
L 28.421875 72.90625 
L 38.28125 72.90625 
L 38.28125 8.296875 
L 54.390625 8.296875 
L 54.390625 0 
L 12.40625 0 
z
" id="DejaVuSans-49"/>
       </defs>
       <use xlink:href="#DejaVuSans-49"/>
       <use x="63.623047" xlink:href="#DejaVuSans-48"/>
       <use x="127.246094" xlink:href="#DejaVuSans-48"/>
      </g>
     </g>
    </g>
   </g>
   <g id="matplotlib.axis_2">
    <g id="ytick_1">
     <g id="line2d_8">
      <defs>
       <path d="M 0 0 
L -3.5 0 
" id="ma88a6b8ae9" style="stroke:#000000;stroke-width:0.8;"/>
      </defs>
      <g>
       <use style="stroke:#000000;stroke-width:0.8;" x="57.6" xlink:href="#ma88a6b8ae9" y="262.617387"/>
      </g>
     </g>
     <g id="text_8">
      <!-- 20 -->
      <g transform="translate(37.875 266.416606)scale(0.1 -0.1)">
       <use xlink:href="#DejaVuSans-50"/>
       <use x="63.623047" xlink:href="#DejaVuSans-48"/>
      </g>
     </g>
    </g>
    <g id="ytick_2">
     <g id="line2d_9">
      <g>
       <use style="stroke:#000000;stroke-width:0.8;" x="57.6" xlink:href="#ma88a6b8ae9" y="214.040854"/>
      </g>
     </g>
     <g id="text_9">
      <!-- 40 -->
      <g transform="translate(37.875 217.840073)scale(0.1 -0.1)">
       <use xlink:href="#DejaVuSans-52"/>
       <use x="63.623047" xlink:href="#DejaVuSans-48"/>
      </g>
     </g>
    </g>
    <g id="ytick_3">
     <g id="line2d_10">
      <g>
       <use style="stroke:#000000;stroke-width:0.8;" x="57.6" xlink:href="#ma88a6b8ae9" y="165.464322"/>
      </g>
     </g>
     <g id="text_10">
      <!-- 60 -->
      <g transform="translate(37.875 169.26354)scale(0.1 -0.1)">
       <use xlink:href="#DejaVuSans-54"/>
       <use x="63.623047" xlink:href="#DejaVuSans-48"/>
      </g>
     </g>
    </g>
    <g id="ytick_4">
     <g id="line2d_11">
      <g>
       <use style="stroke:#000000;stroke-width:0.8;" x="57.6" xlink:href="#ma88a6b8ae9" y="116.887789"/>
      </g>
     </g>
     <g id="text_11">
      <!-- 80 -->
      <g transform="translate(37.875 120.687008)scale(0.1 -0.1)">
       <use xlink:href="#DejaVuSans-56"/>
       <use x="63.623047" xlink:href="#DejaVuSans-48"/>
      </g>
     </g>
    </g>
    <g id="ytick_5">
     <g id="line2d_12">
      <g>
       <use style="stroke:#000000;stroke-width:0.8;" x="57.6" xlink:href="#ma88a6b8ae9" y="68.311256"/>
      </g>
     </g>
     <g id="text_12">
      <!-- 100 -->
      <g transform="translate(31.5125 72.110475)scale(0.1 -0.1)">
       <use xlink:href="#DejaVuSans-49"/>
       <use x="63.623047" xlink:href="#DejaVuSans-48"/>
       <use x="127.246094" xlink:href="#DejaVuSans-48"/>
      </g>
     </g>
    </g>
   </g>
   <g id="line2d_13">
    <path clip-path="url(#p44be8dba24)" d="M 156.112872 130.467359 
L 155.364794 125.721431 
L 154.988326 120.873493 
L 154.988326 115.969692 
L 155.367223 111.056176 
L 156.132303 106.179092 
L 157.288425 101.384589 
L 158.840445 96.718813 
L 159.768257 94.44786 
L 160.79565 92.227912 
L 161.925055 90.061399 
L 163.15647 87.958035 
L 164.489896 85.920249 
L 165.927761 83.955329 
L 167.470066 82.065702 
L 169.107095 80.258655 
L 170.838848 78.534188 
L 172.655611 76.89473 
L 174.550095 75.340281 
L 176.519874 73.873269 
L 178.557659 72.496125 
L 182.808106 70.02115 
L 187.255288 67.929931 
L 191.855485 66.227323 
L 196.572266 64.913328 
L 201.369199 63.985516 
L 206.214708 63.443888 
L 211.067504 63.281156 
L 215.915442 63.453603 
L 220.756093 63.87379 
L 228.00857 64.767598 
L 237.668013 66.001442 
L 264.198086 69.076337 
L 268.995019 69.838988 
L 273.765234 70.771658 
L 278.501446 71.915635 
L 283.189082 73.324355 
L 287.794137 75.034248 
L 292.255892 77.07932 
L 294.41269 78.237871 
L 296.508767 79.493574 
L 298.536837 80.846431 
L 300.489614 82.303727 
L 302.35981 83.87032 
L 304.135283 85.54621 
L 305.818459 87.32654 
L 307.402054 89.201594 
L 308.88121 91.166515 
L 310.253497 93.214016 
L 311.514058 95.331953 
L 312.660464 97.515468 
L 313.687858 99.757275 
L 314.591381 102.047658 
L 315.371035 104.379332 
L 316.019531 106.745009 
L 316.541729 109.139832 
L 316.935199 111.556515 
L 317.207228 113.992628 
L 317.355386 116.438456 
L 317.384532 118.891571 
L 317.297094 121.342257 
L 317.093073 123.790514 
L 316.347423 128.648168 
L 315.164584 133.418383 
L 313.568845 138.0623 
L 311.579636 142.543485 
L 309.221246 146.820648 
L 306.517962 150.857358 
L 303.501359 154.634184 
L 300.241874 158.209416 
L 295.07333 163.360958 
L 288.088025 170.239395 
L 284.733816 173.831629 
L 281.569054 177.567165 
L 278.666607 181.475147 
L 276.101766 185.577435 
L 274.967504 187.712373 
L 273.942539 189.903175 
L 273.022013 192.144982 
L 271.489424 196.76461 
L 270.328445 201.522682 
L 269.50993 206.368191 
L 268.99259 211.25499 
L 268.752136 216.13936 
L 268.78614 221.009158 
L 269.099458 225.861953 
L 269.699379 230.690461 
L 270.590758 235.489822 
L 271.778454 240.250322 
L 273.281898 244.923385 
L 275.12052 249.465291 
L 277.311321 253.817748 
L 278.545165 255.908968 
L 279.876162 257.93218 
L 281.301883 259.887386 
L 284.420497 263.588917 
L 287.852429 267.035422 
L 291.549103 270.246331 
L 295.457085 273.245932 
L 299.52537 276.053656 
L 303.70538 278.691361 
L 310.066477 282.37832 
L 318.458073 286.905653 
L 318.458073 286.905653 
" style="fill:none;stroke:#fea952;stroke-linecap:square;"/>
   </g>
   <g id="line2d_14">
    <path clip-path="url(#p44be8dba24)" d="M 146.548491 132.173171 
L 146.067541 129.43192 
L 145.430126 123.868601 
L 145.226339 118.2357 
L 145.459215 112.574372 
L 145.740597 109.746496 
L 146.134719 106.909434 
L 146.643421 104.093834 
L 147.265371 101.300984 
L 148.005854 98.517348 
L 148.864247 95.768915 
L 149.846788 93.044399 
L 150.951393 90.367407 
L 152.180657 87.736913 
L 153.540913 85.1529 
L 155.026932 82.638468 
L 156.649574 80.182956 
L 158.401206 77.81219 
L 160.269947 75.543013 
L 162.251834 73.374428 
L 164.330067 71.321494 
L 166.49303 69.384085 
L 168.747077 67.54848 
L 171.079975 65.823755 
L 173.491613 64.20623 
L 175.946956 62.716027 
L 178.490177 61.318124 
L 181.062618 60.051408 
L 183.696912 58.889734 
L 186.353797 57.852725 
L 189.062045 56.922278 
L 191.781963 56.113824 
L 194.535309 55.41396 
L 197.31024 54.827022 
L 200.102294 54.353168 
L 205.700005 53.742225 
L 211.271889 53.568 
L 216.654622 53.766457 
L 221.852392 54.220536 
L 229.306538 55.139387 
L 238.773889 56.349281 
L 265.656371 59.471099 
L 270.763724 60.286038 
L 275.92715 61.299947 
L 281.165347 62.57268 
L 286.416501 64.160788 
L 291.664021 66.122953 
L 294.273154 67.26458 
L 296.853293 68.520636 
L 299.405492 69.903658 
L 301.900083 71.41144 
L 304.347411 73.060262 
L 306.728209 74.856102 
L 309.028582 76.805288 
L 311.194965 78.871776 
L 313.240823 81.057912 
L 315.163925 83.358604 
L 316.951554 85.757566 
L 318.601991 88.24513 
L 320.115871 90.815761 
L 321.492459 93.467869 
L 322.725376 96.192103 
L 323.805247 98.966772 
L 324.740673 101.810858 
L 325.511794 104.675195 
L 326.130772 107.578601 
L 326.590496 110.478356 
L 326.904758 113.40519 
L 327.070007 116.323035 
L 327.093661 119.237982 
L 326.978842 122.149069 
L 326.72656 125.048726 
L 326.342274 127.915553 
L 325.825925 130.78011 
L 325.184734 133.58869 
L 324.419014 136.375192 
L 323.533617 139.116177 
L 322.53112 141.812608 
L 321.414593 144.457612 
L 320.186705 147.049652 
L 318.849501 149.584198 
L 317.412083 152.045336 
L 315.861586 154.458075 
L 314.22652 156.770505 
L 310.768587 161.082019 
L 307.184169 165.005865 
L 301.826183 170.345667 
L 295.114338 176.948948 
L 292.059027 180.213515 
L 289.262799 183.499574 
L 286.790464 186.803384 
L 284.681379 190.13566 
L 282.929695 193.593459 
L 281.491823 197.291819 
L 280.34485 201.25719 
L 279.484312 205.395467 
L 278.889492 209.683546 
L 278.546566 214.036529 
L 278.448308 218.371904 
L 278.592592 222.671335 
L 278.987027 226.941325 
L 279.631083 231.172399 
L 280.535503 235.378872 
L 281.68547 239.465767 
L 283.09296 243.397193 
L 284.756584 247.118999 
L 286.661616 250.569454 
L 288.87301 253.799264 
L 291.434429 256.866423 
L 294.340417 259.804019 
L 297.571313 262.622673 
L 301.062363 265.310692 
L 304.783818 267.884451 
L 308.685543 270.349589 
L 314.754825 273.869115 
L 323.011149 278.323306 
L 323.011149 278.323306 
" style="fill:none;stroke:#ffffff;stroke-linecap:square;"/>
   </g>
   <g id="line2d_15">
    <path clip-path="url(#p44be8dba24)" d="M 165.677254 128.761546 
L 165.034169 124.77784 
L 164.701717 120.680576 
L 164.687716 116.525586 
L 164.993848 112.365856 
L 165.621185 108.264351 
L 166.570995 104.251829 
L 167.834102 100.393226 
L 169.410643 96.718912 
L 171.286008 93.277602 
L 173.454315 90.098468 
L 175.962356 87.142881 
L 178.818191 84.405374 
L 181.959772 81.922784 
L 185.365375 79.711382 
L 188.959485 77.804949 
L 192.722972 76.209804 
L 196.6215 74.932103 
L 200.614224 73.974669 
L 204.679243 73.341709 
L 208.777243 73.029513 
L 213.005344 73.035298 
L 217.393775 73.307843 
L 224.32373 74.081606 
L 239.016085 75.934687 
L 260.460687 78.367367 
L 267.226314 79.391939 
L 271.603319 80.243368 
L 275.837546 81.25859 
L 279.961662 82.487921 
L 283.924253 83.945544 
L 287.65849 85.638005 
L 291.117451 87.575708 
L 294.251019 89.751351 
L 295.691039 90.935351 
L 298.396096 93.595168 
L 300.810866 96.575464 
L 302.912244 99.848144 
L 304.65034 103.322446 
L 306.001396 106.947806 
L 306.952686 110.701063 
L 307.509697 114.580065 
L 307.675403 118.54516 
L 307.459585 122.532302 
L 306.868921 126.516225 
L 305.910155 130.461574 
L 304.60657 134.311991 
L 302.972567 138.037317 
L 301.030408 141.59596 
L 298.809403 144.944211 
L 296.234131 148.186348 
L 293.299578 151.412968 
L 288.320478 156.376248 
L 281.061712 163.529842 
L 277.408604 167.449744 
L 273.87531 171.634755 
L 270.542749 176.146909 
L 268.990051 178.531051 
L 267.522152 181.01921 
L 266.167649 183.595368 
L 264.955382 186.212891 
L 263.870289 188.884134 
L 262.920032 191.578912 
L 262.095624 194.285959 
L 260.777156 199.745027 
L 259.865426 205.197415 
L 259.296884 210.638166 
L 259.037066 216.071558 
L 259.082955 221.494317 
L 259.441928 226.919914 
L 260.121279 232.317479 
L 261.128812 237.69408 
L 262.479781 243.0649 
L 264.208715 248.396788 
L 266.353067 253.650855 
L 267.587819 256.217474 
L 268.943869 258.754642 
L 270.428714 261.248481 
L 272.026218 263.656301 
L 273.730757 265.975508 
L 275.532567 268.200012 
L 277.406565 270.311412 
L 281.364441 274.266826 
L 285.526893 277.869989 
L 289.851807 281.181172 
L 294.266921 284.22286 
L 298.725218 287.033134 
L 305.378129 290.887526 
L 313.904997 295.488 
L 313.904997 295.488 
" style="fill:none;stroke:#ffffff;stroke-linecap:square;"/>
   </g>
   <g id="patch_3">
    <path d="M 57.6 307.584 
L 57.6 41.472 
" style="fill:none;stroke:#000000;stroke-linecap:square;stroke-linejoin:miter;stroke-width:0.8;"/>
   </g>
   <g id="patch_4">
    <path d="M 414.72 307.584 
L 414.72 41.472 
" style="fill:none;stroke:#000000;stroke-linecap:square;stroke-linejoin:miter;stroke-width:0.8;"/>
   </g>
   <g id="patch_5">
    <path d="M 57.6 307.584 
L 414.72 307.584 
" style="fill:none;stroke:#000000;stroke-linecap:square;stroke-linejoin:miter;stroke-width:0.8;"/>
   </g>
   <g id="patch_6">
    <path d="M 57.6 41.472 
L 414.72 41.472 
" style="fill:none;stroke:#000000;stroke-linecap:square;stroke-linejoin:miter;stroke-width:0.8;"/>
   </g>
  </g>
 </g>
 <defs>
  <clipPath id="p44be8dba24">
   <rect height="266.112" width="357.12" x="57.6" y="41.472"/>
  </clipPath>
 </defs>
</svg>
