<?xml version="1.0" encoding="utf-8" standalone="no"?>
<!DOCTYPE svg PUBLIC "-//W3C//DTD SVG 1.1//EN"
  "http://www.w3.org/Graphics/SVG/1.1/DTD/svg11.dtd">
<!-- Created with matplotlib (https://matplotlib.org/) -->
<svg height="345.6pt" version="1.1" viewBox="0 0 460.8 345.6" width="460.8pt" xmlns="http://www.w3.org/2000/svg" xmlns:xlink="http://www.w3.org/1999/xlink">
 <metadata>
  <rdf:RDF xmlns:cc="http://creativecommons.org/ns#" xmlns:dc="http://purl.org/dc/elements/1.1/" xmlns:rdf="http://www.w3.org/1999/02/22-rdf-syntax-ns#">
   <cc:Work>
    <dc:type rdf:resource="http://purl.org/dc/dcmitype/StillImage"/>
    <dc:date>2021-01-23T12:19:05.802485</dc:date>
    <dc:format>image/svg+xml</dc:format>
    <dc:creator>
     <cc:Agent>
      <dc:title>Matplotlib v3.3.3, https://matplotlib.org/</dc:title>
     </cc:Agent>
    </dc:creator>
   </cc:Work>
  </rdf:RDF>
 </metadata>
 <defs>
  <style type="text/css">*{stroke-linecap:butt;stroke-linejoin:round;}</style>
 </defs>
 <g id="figure_1">
  <g id="patch_1">
   <path d="M 0 345.6 
L 460.8 345.6 
L 460.8 0 
L 0 0 
z
" style="fill:#ffffff;"/>
  </g>
  <g id="axes_1">
   <g id="patch_2">
    <path d="M 57.6 307.584 
L 414.72 307.584 
L 414.72 41.472 
L 57.6 41.472 
z
" style="fill:#7d9051;"/>
   </g>
   <g id="matplotlib.axis_1">
    <g id="xtick_1">
     <g id="line2d_1">
      <defs>
       <path d="M 0 0 
L 0 3.5 
" id="m9c9487d49c" style="stroke:#000000;stroke-width:0.8;"/>
      </defs>
      <g>
       <use style="stroke:#000000;stroke-width:0.8;" x="69.306525" xlink:href="#m9c9487d49c" y="307.584"/>
      </g>
     </g>
     <g id="text_1">
      <!-- 0 -->
      <g transform="translate(66.125275 322.182437)scale(0.1 -0.1)">
       <defs>
        <path d="M 31.78125 66.40625 
Q 24.171875 66.40625 20.328125 58.90625 
Q 16.5 51.421875 16.5 36.375 
Q 16.5 21.390625 20.328125 13.890625 
Q 24.171875 6.390625 31.78125 6.390625 
Q 39.453125 6.390625 43.28125 13.890625 
Q 47.125 21.390625 47.125 36.375 
Q 47.125 51.421875 43.28125 58.90625 
Q 39.453125 66.40625 31.78125 66.40625 
z
M 31.78125 74.21875 
Q 44.046875 74.21875 50.515625 64.515625 
Q 56.984375 54.828125 56.984375 36.375 
Q 56.984375 17.96875 50.515625 8.265625 
Q 44.046875 -1.421875 31.78125 -1.421875 
Q 19.53125 -1.421875 13.0625 8.265625 
Q 6.59375 17.96875 6.59375 36.375 
Q 6.59375 54.828125 13.0625 64.515625 
Q 19.53125 74.21875 31.78125 74.21875 
z
" id="DejaVuSans-48"/>
       </defs>
       <use xlink:href="#DejaVuSans-48"/>
      </g>
     </g>
    </g>
    <g id="xtick_2">
     <g id="line2d_2">
      <g>
       <use style="stroke:#000000;stroke-width:0.8;" x="124.976059" xlink:href="#m9c9487d49c" y="307.584"/>
      </g>
     </g>
     <g id="text_2">
      <!-- 20 -->
      <g transform="translate(118.613559 322.182437)scale(0.1 -0.1)">
       <defs>
        <path d="M 19.1875 8.296875 
L 53.609375 8.296875 
L 53.609375 0 
L 7.328125 0 
L 7.328125 8.296875 
Q 12.9375 14.109375 22.625 23.890625 
Q 32.328125 33.6875 34.8125 36.53125 
Q 39.546875 41.84375 41.421875 45.53125 
Q 43.3125 49.21875 43.3125 52.78125 
Q 43.3125 58.59375 39.234375 62.25 
Q 35.15625 65.921875 28.609375 65.921875 
Q 23.96875 65.921875 18.8125 64.3125 
Q 13.671875 62.703125 7.8125 59.421875 
L 7.8125 69.390625 
Q 13.765625 71.78125 18.9375 73 
Q 24.125 74.21875 28.421875 74.21875 
Q 39.75 74.21875 46.484375 68.546875 
Q 53.21875 62.890625 53.21875 53.421875 
Q 53.21875 48.921875 51.53125 44.890625 
Q 49.859375 40.875 45.40625 35.40625 
Q 44.1875 33.984375 37.640625 27.21875 
Q 31.109375 20.453125 19.1875 8.296875 
z
" id="DejaVuSans-50"/>
       </defs>
       <use xlink:href="#DejaVuSans-50"/>
       <use x="63.623047" xlink:href="#DejaVuSans-48"/>
      </g>
     </g>
    </g>
    <g id="xtick_3">
     <g id="line2d_3">
      <g>
       <use style="stroke:#000000;stroke-width:0.8;" x="180.645593" xlink:href="#m9c9487d49c" y="307.584"/>
      </g>
     </g>
     <g id="text_3">
      <!-- 40 -->
      <g transform="translate(174.283093 322.182437)scale(0.1 -0.1)">
       <defs>
        <path d="M 37.796875 64.3125 
L 12.890625 25.390625 
L 37.796875 25.390625 
z
M 35.203125 72.90625 
L 47.609375 72.90625 
L 47.609375 25.390625 
L 58.015625 25.390625 
L 58.015625 17.1875 
L 47.609375 17.1875 
L 47.609375 0 
L 37.796875 0 
L 37.796875 17.1875 
L 4.890625 17.1875 
L 4.890625 26.703125 
z
" id="DejaVuSans-52"/>
       </defs>
       <use xlink:href="#DejaVuSans-52"/>
       <use x="63.623047" xlink:href="#DejaVuSans-48"/>
      </g>
     </g>
    </g>
    <g id="xtick_4">
     <g id="line2d_4">
      <g>
       <use style="stroke:#000000;stroke-width:0.8;" x="236.315126" xlink:href="#m9c9487d49c" y="307.584"/>
      </g>
     </g>
     <g id="text_4">
      <!-- 60 -->
      <g transform="translate(229.952626 322.182437)scale(0.1 -0.1)">
       <defs>
        <path d="M 33.015625 40.375 
Q 26.375 40.375 22.484375 35.828125 
Q 18.609375 31.296875 18.609375 23.390625 
Q 18.609375 15.53125 22.484375 10.953125 
Q 26.375 6.390625 33.015625 6.390625 
Q 39.65625 6.390625 43.53125 10.953125 
Q 47.40625 15.53125 47.40625 23.390625 
Q 47.40625 31.296875 43.53125 35.828125 
Q 39.65625 40.375 33.015625 40.375 
z
M 52.59375 71.296875 
L 52.59375 62.3125 
Q 48.875 64.0625 45.09375 64.984375 
Q 41.3125 65.921875 37.59375 65.921875 
Q 27.828125 65.921875 22.671875 59.328125 
Q 17.53125 52.734375 16.796875 39.40625 
Q 19.671875 43.65625 24.015625 45.921875 
Q 28.375 48.1875 33.59375 48.1875 
Q 44.578125 48.1875 50.953125 41.515625 
Q 57.328125 34.859375 57.328125 23.390625 
Q 57.328125 12.15625 50.6875 5.359375 
Q 44.046875 -1.421875 33.015625 -1.421875 
Q 20.359375 -1.421875 13.671875 8.265625 
Q 6.984375 17.96875 6.984375 36.375 
Q 6.984375 53.65625 15.1875 63.9375 
Q 23.390625 74.21875 37.203125 74.21875 
Q 40.921875 74.21875 44.703125 73.484375 
Q 48.484375 72.75 52.59375 71.296875 
z
" id="DejaVuSans-54"/>
       </defs>
       <use xlink:href="#DejaVuSans-54"/>
       <use x="63.623047" xlink:href="#DejaVuSans-48"/>
      </g>
     </g>
    </g>
    <g id="xtick_5">
     <g id="line2d_5">
      <g>
       <use style="stroke:#000000;stroke-width:0.8;" x="291.98466" xlink:href="#m9c9487d49c" y="307.584"/>
      </g>
     </g>
     <g id="text_5">
      <!-- 80 -->
      <g transform="translate(285.62216 322.182437)scale(0.1 -0.1)">
       <defs>
        <path d="M 31.78125 34.625 
Q 24.75 34.625 20.71875 30.859375 
Q 16.703125 27.09375 16.703125 20.515625 
Q 16.703125 13.921875 20.71875 10.15625 
Q 24.75 6.390625 31.78125 6.390625 
Q 38.8125 6.390625 42.859375 10.171875 
Q 46.921875 13.96875 46.921875 20.515625 
Q 46.921875 27.09375 42.890625 30.859375 
Q 38.875 34.625 31.78125 34.625 
z
M 21.921875 38.8125 
Q 15.578125 40.375 12.03125 44.71875 
Q 8.5 49.078125 8.5 55.328125 
Q 8.5 64.0625 14.71875 69.140625 
Q 20.953125 74.21875 31.78125 74.21875 
Q 42.671875 74.21875 48.875 69.140625 
Q 55.078125 64.0625 55.078125 55.328125 
Q 55.078125 49.078125 51.53125 44.71875 
Q 48 40.375 41.703125 38.8125 
Q 48.828125 37.15625 52.796875 32.3125 
Q 56.78125 27.484375 56.78125 20.515625 
Q 56.78125 9.90625 50.3125 4.234375 
Q 43.84375 -1.421875 31.78125 -1.421875 
Q 19.734375 -1.421875 13.25 4.234375 
Q 6.78125 9.90625 6.78125 20.515625 
Q 6.78125 27.484375 10.78125 32.3125 
Q 14.796875 37.15625 21.921875 38.8125 
z
M 18.3125 54.390625 
Q 18.3125 48.734375 21.84375 45.5625 
Q 25.390625 42.390625 31.78125 42.390625 
Q 38.140625 42.390625 41.71875 45.5625 
Q 45.3125 48.734375 45.3125 54.390625 
Q 45.3125 60.0625 41.71875 63.234375 
Q 38.140625 66.40625 31.78125 66.40625 
Q 25.390625 66.40625 21.84375 63.234375 
Q 18.3125 60.0625 18.3125 54.390625 
z
" id="DejaVuSans-56"/>
       </defs>
       <use xlink:href="#DejaVuSans-56"/>
       <use x="63.623047" xlink:href="#DejaVuSans-48"/>
      </g>
     </g>
    </g>
    <g id="xtick_6">
     <g id="line2d_6">
      <g>
       <use style="stroke:#000000;stroke-width:0.8;" x="347.654194" xlink:href="#m9c9487d49c" y="307.584"/>
      </g>
     </g>
     <g id="text_6">
      <!-- 100 -->
      <g transform="translate(338.110444 322.182437)scale(0.1 -0.1)">
       <defs>
        <path d="M 12.40625 8.296875 
L 28.515625 8.296875 
L 28.515625 63.921875 
L 10.984375 60.40625 
L 10.984375 69.390625 
L 28.421875 72.90625 
L 38.28125 72.90625 
L 38.28125 8.296875 
L 54.390625 8.296875 
L 54.390625 0 
L 12.40625 0 
z
" id="DejaVuSans-49"/>
       </defs>
       <use xlink:href="#DejaVuSans-49"/>
       <use x="63.623047" xlink:href="#DejaVuSans-48"/>
       <use x="127.246094" xlink:href="#DejaVuSans-48"/>
      </g>
     </g>
    </g>
    <g id="xtick_7">
     <g id="line2d_7">
      <g>
       <use style="stroke:#000000;stroke-width:0.8;" x="403.323728" xlink:href="#m9c9487d49c" y="307.584"/>
      </g>
     </g>
     <g id="text_7">
      <!-- 120 -->
      <g transform="translate(393.779978 322.182437)scale(0.1 -0.1)">
       <use xlink:href="#DejaVuSans-49"/>
       <use x="63.623047" xlink:href="#DejaVuSans-50"/>
       <use x="127.246094" xlink:href="#DejaVuSans-48"/>
      </g>
     </g>
    </g>
   </g>
   <g id="matplotlib.axis_2">
    <g id="ytick_1">
     <g id="line2d_8">
      <defs>
       <path d="M 0 0 
L -3.5 0 
" id="ma8e6521d4e" style="stroke:#000000;stroke-width:0.8;"/>
      </defs>
      <g>
       <use style="stroke:#000000;stroke-width:0.8;" x="57.6" xlink:href="#ma8e6521d4e" y="266.940405"/>
      </g>
     </g>
     <g id="text_8">
      <!-- 20 -->
      <g transform="translate(37.875 270.739624)scale(0.1 -0.1)">
       <use xlink:href="#DejaVuSans-50"/>
       <use x="63.623047" xlink:href="#DejaVuSans-48"/>
      </g>
     </g>
    </g>
    <g id="ytick_2">
     <g id="line2d_9">
      <g>
       <use style="stroke:#000000;stroke-width:0.8;" x="57.6" xlink:href="#ma8e6521d4e" y="211.270871"/>
      </g>
     </g>
     <g id="text_9">
      <!-- 40 -->
      <g transform="translate(37.875 215.07009)scale(0.1 -0.1)">
       <use xlink:href="#DejaVuSans-52"/>
       <use x="63.623047" xlink:href="#DejaVuSans-48"/>
      </g>
     </g>
    </g>
    <g id="ytick_3">
     <g id="line2d_10">
      <g>
       <use style="stroke:#000000;stroke-width:0.8;" x="57.6" xlink:href="#ma8e6521d4e" y="155.601338"/>
      </g>
     </g>
     <g id="text_10">
      <!-- 60 -->
      <g transform="translate(37.875 159.400556)scale(0.1 -0.1)">
       <use xlink:href="#DejaVuSans-54"/>
       <use x="63.623047" xlink:href="#DejaVuSans-48"/>
      </g>
     </g>
    </g>
    <g id="ytick_4">
     <g id="line2d_11">
      <g>
       <use style="stroke:#000000;stroke-width:0.8;" x="57.6" xlink:href="#ma8e6521d4e" y="99.931804"/>
      </g>
     </g>
     <g id="text_11">
      <!-- 80 -->
      <g transform="translate(37.875 103.731022)scale(0.1 -0.1)">
       <use xlink:href="#DejaVuSans-56"/>
       <use x="63.623047" xlink:href="#DejaVuSans-48"/>
      </g>
     </g>
    </g>
    <g id="ytick_5">
     <g id="line2d_12">
      <g>
       <use style="stroke:#000000;stroke-width:0.8;" x="57.6" xlink:href="#ma8e6521d4e" y="44.26227"/>
      </g>
     </g>
     <g id="text_12">
      <!-- 100 -->
      <g transform="translate(31.5125 48.061489)scale(0.1 -0.1)">
       <use xlink:href="#DejaVuSans-49"/>
       <use x="63.623047" xlink:href="#DejaVuSans-48"/>
       <use x="127.246094" xlink:href="#DejaVuSans-48"/>
      </g>
     </g>
    </g>
   </g>
   <g id="line2d_13">
    <path clip-path="url(#p6fda0a9870)" d="M 97.141292 294.775172 
L 96.71542 286.524947 
L 96.612431 280.952427 
L 96.682018 275.352072 
L 96.949232 269.740583 
L 97.43634 264.145795 
L 98.165611 258.584408 
L 99.159312 253.081475 
L 100.445279 247.656479 
L 102.042994 242.334471 
L 103.971944 237.132153 
L 106.204292 232.049525 
L 108.648184 227.044834 
L 118.793957 207.165243 
L 122.234334 199.558001 
L 125.396364 191.828287 
L 128.277262 183.970532 
L 131.144243 176.109994 
L 133.268036 170.960562 
L 135.711928 165.958654 
L 137.095316 163.531463 
L 138.606744 161.15994 
L 140.240645 158.860789 
L 141.999802 156.645141 
L 143.873082 154.521349 
L 145.860484 152.506111 
L 147.953659 150.604997 
L 150.152605 148.834706 
L 152.451757 147.206372 
L 154.845547 145.728346 
L 157.331192 144.417328 
L 159.900341 143.278886 
L 162.544644 142.315803 
L 165.252966 141.525296 
L 168.008608 140.901797 
L 170.803219 140.445307 
L 173.620097 140.153042 
L 176.453677 140.022218 
L 179.284472 140.050053 
L 182.104134 140.236546 
L 184.898745 140.57613 
L 187.659954 141.066022 
L 190.384977 141.695088 
L 193.071032 142.457761 
L 195.723686 143.337339 
L 200.920437 145.413813 
L 205.978014 147.838221 
L 210.896417 150.524276 
L 215.681214 153.396824 
L 222.66774 157.964509 
L 229.509526 162.738172 
L 243.170829 172.413537 
L 247.833153 175.475361 
L 252.598465 178.347909 
L 257.505734 180.95881 
L 262.574445 183.257962 
L 267.787897 185.23423 
L 273.126606 186.890399 
L 278.562736 188.229251 
L 284.076803 189.253571 
L 289.638189 189.95779 
L 295.22741 190.316859 
L 300.819415 190.300158 
L 306.386369 189.874286 
L 309.155928 189.5013 
L 311.908786 189.011408 
L 314.644944 188.40461 
L 317.35605 187.680906 
L 320.039322 186.845863 
L 322.686408 185.902265 
L 325.291742 184.850111 
L 327.849757 183.692184 
L 330.35767 182.431269 
L 332.804346 181.072933 
L 335.187002 179.614391 
L 337.500071 178.061211 
L 339.74077 176.41896 
L 344.013406 172.883944 
L 348.060582 169.070581 
L 351.929614 165.040107 
L 357.504918 158.707698 
L 361.120654 154.371041 
L 364.563815 149.914695 
L 367.723061 145.29969 
L 369.159335 142.914251 
L 370.478703 140.475925 
L 371.670031 137.970796 
L 372.719402 135.398864 
L 373.610114 132.754561 
L 374.342168 130.049022 
L 374.918348 127.290596 
L 375.338653 124.498769 
L 375.6003 121.679107 
L 375.708855 118.845528 
L 375.66432 116.011949 
L 375.46391 113.189503 
L 375.110408 110.389326 
L 374.606599 107.628117 
L 373.952482 104.911444 
L 373.153624 102.242089 
L 372.223943 99.617271 
L 371.171788 97.036988 
L 370.005512 94.501241 
L 367.369559 89.552219 
L 364.388456 84.761856 
L 361.142922 80.1218 
L 357.705328 75.618135 
L 352.355486 69.102016 
L 345.25762 60.810039 
L 345.25762 60.810039 
" style="fill:none;stroke:#fea952;stroke-linecap:square;"/>
   </g>
   <g id="line2d_14">
    <path clip-path="url(#p6fda0a9870)" d="M 86.030227 295.488 
L 85.585282 286.81462 
L 85.478613 280.908113 
L 85.556436 274.921618 
L 85.847797 268.89087 
L 86.380286 262.831438 
L 87.184392 256.746825 
L 88.289232 250.67207 
L 89.732221 244.624271 
L 91.541149 238.636481 
L 93.724462 232.778648 
L 96.162653 227.240225 
L 98.741387 221.96357 
L 108.699203 202.468456 
L 111.981754 195.216518 
L 114.984665 187.883619 
L 117.787979 180.237058 
L 120.799016 171.994151 
L 123.171003 166.268674 
L 124.533082 163.357468 
L 126.038852 160.445445 
L 127.706154 157.547525 
L 129.531148 154.710334 
L 131.520934 151.937601 
L 133.6499 149.280156 
L 135.945664 146.703425 
L 138.374828 144.264217 
L 140.97162 141.932338 
L 143.717625 139.748733 
L 146.602376 137.732797 
L 149.651336 135.880298 
L 152.820543 134.238039 
L 156.090101 132.817244 
L 159.425041 131.627868 
L 162.795889 130.665892 
L 166.213711 129.913521 
L 169.654189 129.370849 
L 173.106603 129.030983 
L 176.563149 128.88885 
L 180.019266 128.94042 
L 183.44718 129.18394 
L 186.843741 129.613427 
L 190.164328 130.217428 
L 193.426102 130.984558 
L 196.575245 131.889678 
L 199.657337 132.921473 
L 202.667175 134.066781 
L 208.437714 136.622773 
L 213.903696 139.44385 
L 219.118892 142.446206 
L 224.129187 145.573753 
L 231.341175 150.414352 
L 242.764871 158.535736 
L 249.359624 163.158122 
L 253.692002 166.007639 
L 257.97052 168.595735 
L 262.265299 170.893502 
L 266.680679 172.908917 
L 271.248791 174.651882 
L 275.949212 176.120219 
L 280.750524 177.312408 
L 285.635893 178.229365 
L 290.534421 178.860014 
L 295.39357 179.184192 
L 300.187072 179.184222 
L 304.900343 178.839994 
L 309.498186 178.141593 
L 314.047645 177.049898 
L 318.517171 175.578441 
L 322.848454 173.74478 
L 326.991392 171.576963 
L 330.918301 169.081 
L 334.656808 166.242452 
L 338.306879 163.021842 
L 341.896474 159.460671 
L 345.447844 155.608412 
L 350.731663 149.471444 
L 353.978902 145.461238 
L 356.891975 141.499684 
L 359.36704 137.61568 
L 361.361172 133.764692 
L 362.168009 131.844711 
L 362.862676 129.846561 
L 363.443483 127.772505 
L 363.90851 125.633083 
L 364.252374 123.470032 
L 364.474555 121.252875 
L 364.576324 119.020499 
L 364.558375 116.800536 
L 364.417678 114.584008 
L 364.157331 112.387821 
L 363.782045 110.234439 
L 363.285993 108.103604 
L 362.658573 105.959318 
L 361.056488 101.68936 
L 359.003283 97.416253 
L 356.550982 93.159689 
L 353.745334 88.911736 
L 350.658784 84.691854 
L 347.335904 80.485416 
L 342.103868 74.235208 
L 336.800863 68.052078 
L 336.800863 68.052078 
" style="fill:none;stroke:#ffffff;stroke-linecap:square;"/>
   </g>
   <g id="line2d_15">
    <path clip-path="url(#p6fda0a9870)" d="M 108.252356 294.062344 
L 107.845558 286.235274 
L 107.74625 280.99674 
L 107.807601 275.782526 
L 108.050667 270.590295 
L 108.492395 265.460151 
L 109.14683 260.421991 
L 110.029393 255.49088 
L 111.158336 250.688686 
L 112.544839 246.032461 
L 114.219425 241.485658 
L 116.245931 236.858824 
L 118.554982 232.126098 
L 128.888711 211.862031 
L 132.486914 203.899485 
L 135.808063 195.772954 
L 138.766545 187.704006 
L 141.48947 180.225837 
L 143.365068 175.65245 
L 145.385004 171.471864 
L 147.682341 167.609547 
L 148.960356 165.783976 
L 150.349704 164.010127 
L 151.8005 162.339272 
L 153.346141 160.748006 
L 154.935698 159.277656 
L 156.587586 157.920679 
L 158.301139 156.679946 
L 160.039758 155.576394 
L 161.841841 154.596617 
L 163.710581 153.740528 
L 165.664246 153.003738 
L 167.710044 152.3847 
L 169.803506 151.890074 
L 171.952249 151.519765 
L 174.133591 151.275101 
L 176.344204 151.155587 
L 178.549679 151.159687 
L 180.761089 151.289153 
L 182.953749 151.538834 
L 185.15558 151.914616 
L 187.343853 152.405617 
L 191.790034 153.753205 
L 196.266602 155.528441 
L 200.75691 157.672038 
L 205.249848 160.120116 
L 209.712341 162.795571 
L 216.366216 167.143544 
L 223.039126 171.798955 
L 236.982035 181.668951 
L 241.974304 184.943083 
L 247.22641 188.100083 
L 252.74617 191.024118 
L 258.468212 193.607006 
L 264.327004 195.816579 
L 270.303999 197.660579 
L 276.374947 199.146094 
L 282.517713 200.277777 
L 288.741958 201.055567 
L 295.061251 201.449526 
L 298.257634 201.490083 
L 301.451759 201.416093 
L 304.674535 201.22425 
L 307.872394 200.908578 
L 311.106643 200.462988 
L 314.319386 199.881224 
L 317.516485 199.161846 
L 320.664455 198.311915 
L 323.777772 197.333374 
L 326.855645 196.226089 
L 329.88318 194.993215 
L 332.85106 193.639588 
L 335.761952 192.165622 
L 338.617299 190.568903 
L 341.393751 188.857775 
L 344.081841 187.041422 
L 346.681064 185.125061 
L 349.161388 183.138389 
L 353.817211 178.999487 
L 358.13269 174.70012 
L 362.174644 170.307721 
L 367.91896 163.629562 
L 371.76402 158.860682 
L 375.481189 153.759237 
L 377.261457 151.042762 
L 378.951629 148.212821 
L 380.533544 145.257561 
L 381.97889 142.1769 
L 383.270794 138.953017 
L 384.357552 135.662561 
L 385.240854 132.325538 
L 385.928186 128.948109 
L 386.424932 125.527506 
L 386.726045 122.105339 
L 386.841387 118.670557 
L 386.770265 115.223361 
L 386.510141 111.794999 
L 386.063485 108.390831 
L 385.431153 105.021795 
L 384.618971 101.719283 
L 383.648675 98.52486 
L 382.533673 95.413303 
L 381.287089 92.384616 
L 379.926094 89.446942 
L 378.463643 86.592671 
L 375.282187 81.1182 
L 371.841713 75.935735 
L 368.231218 71.014679 
L 364.539737 66.347394 
L 359.010852 59.743507 
L 353.714378 53.568 
L 353.714378 53.568 
" style="fill:none;stroke:#ffffff;stroke-linecap:square;"/>
   </g>
   <g id="patch_3">
    <path d="M 57.6 307.584 
L 57.6 41.472 
" style="fill:none;stroke:#000000;stroke-linecap:square;stroke-linejoin:miter;stroke-width:0.8;"/>
   </g>
   <g id="patch_4">
    <path d="M 414.72 307.584 
L 414.72 41.472 
" style="fill:none;stroke:#000000;stroke-linecap:square;stroke-linejoin:miter;stroke-width:0.8;"/>
   </g>
   <g id="patch_5">
    <path d="M 57.6 307.584 
L 414.72 307.584 
" style="fill:none;stroke:#000000;stroke-linecap:square;stroke-linejoin:miter;stroke-width:0.8;"/>
   </g>
   <g id="patch_6">
    <path d="M 57.6 41.472 
L 414.72 41.472 
" style="fill:none;stroke:#000000;stroke-linecap:square;stroke-linejoin:miter;stroke-width:0.8;"/>
   </g>
  </g>
 </g>
 <defs>
  <clipPath id="p6fda0a9870">
   <rect height="266.112" width="357.12" x="57.6" y="41.472"/>
  </clipPath>
 </defs>
</svg>
