<?xml version="1.0" encoding="utf-8" standalone="no"?>
<!DOCTYPE svg PUBLIC "-//W3C//DTD SVG 1.1//EN"
  "http://www.w3.org/Graphics/SVG/1.1/DTD/svg11.dtd">
<!-- Created with matplotlib (https://matplotlib.org/) -->
<svg height="345.6pt" version="1.1" viewBox="0 0 460.8 345.6" width="460.8pt" xmlns="http://www.w3.org/2000/svg" xmlns:xlink="http://www.w3.org/1999/xlink">
 <metadata>
  <rdf:RDF xmlns:cc="http://creativecommons.org/ns#" xmlns:dc="http://purl.org/dc/elements/1.1/" xmlns:rdf="http://www.w3.org/1999/02/22-rdf-syntax-ns#">
   <cc:Work>
    <dc:type rdf:resource="http://purl.org/dc/dcmitype/StillImage"/>
    <dc:date>2021-01-22T11:41:26.378789</dc:date>
    <dc:format>image/svg+xml</dc:format>
    <dc:creator>
     <cc:Agent>
      <dc:title>Matplotlib v3.3.3, https://matplotlib.org/</dc:title>
     </cc:Agent>
    </dc:creator>
   </cc:Work>
  </rdf:RDF>
 </metadata>
 <defs>
  <style type="text/css">*{stroke-linecap:butt;stroke-linejoin:round;}</style>
 </defs>
 <g id="figure_1">
  <g id="patch_1">
   <path d="M 0 345.6 
L 460.8 345.6 
L 460.8 0 
L 0 0 
z
" style="fill:#ffffff;"/>
  </g>
  <g id="axes_1">
   <g id="patch_2">
    <path d="M 57.6 307.584 
L 414.72 307.584 
L 414.72 41.472 
L 57.6 41.472 
z
" style="fill:#7d9051;"/>
   </g>
   <g id="matplotlib.axis_1">
    <g id="xtick_1">
     <g id="line2d_1">
      <defs>
       <path d="M 0 0 
L 0 3.5 
" id="m143b8ada5e" style="stroke:#000000;stroke-width:0.8;"/>
      </defs>
      <g>
       <use style="stroke:#000000;stroke-width:0.8;" x="90.173827" xlink:href="#m143b8ada5e" y="307.584"/>
      </g>
     </g>
     <g id="text_1">
      <!-- −20 -->
      <g transform="translate(79.621483 322.182437)scale(0.1 -0.1)">
       <defs>
        <path d="M 10.59375 35.5 
L 73.1875 35.5 
L 73.1875 27.203125 
L 10.59375 27.203125 
z
" id="DejaVuSans-8722"/>
        <path d="M 19.1875 8.296875 
L 53.609375 8.296875 
L 53.609375 0 
L 7.328125 0 
L 7.328125 8.296875 
Q 12.9375 14.109375 22.625 23.890625 
Q 32.328125 33.6875 34.8125 36.53125 
Q 39.546875 41.84375 41.421875 45.53125 
Q 43.3125 49.21875 43.3125 52.78125 
Q 43.3125 58.59375 39.234375 62.25 
Q 35.15625 65.921875 28.609375 65.921875 
Q 23.96875 65.921875 18.8125 64.3125 
Q 13.671875 62.703125 7.8125 59.421875 
L 7.8125 69.390625 
Q 13.765625 71.78125 18.9375 73 
Q 24.125 74.21875 28.421875 74.21875 
Q 39.75 74.21875 46.484375 68.546875 
Q 53.21875 62.890625 53.21875 53.421875 
Q 53.21875 48.921875 51.53125 44.890625 
Q 49.859375 40.875 45.40625 35.40625 
Q 44.1875 33.984375 37.640625 27.21875 
Q 31.109375 20.453125 19.1875 8.296875 
z
" id="DejaVuSans-50"/>
        <path d="M 31.78125 66.40625 
Q 24.171875 66.40625 20.328125 58.90625 
Q 16.5 51.421875 16.5 36.375 
Q 16.5 21.390625 20.328125 13.890625 
Q 24.171875 6.390625 31.78125 6.390625 
Q 39.453125 6.390625 43.28125 13.890625 
Q 47.125 21.390625 47.125 36.375 
Q 47.125 51.421875 43.28125 58.90625 
Q 39.453125 66.40625 31.78125 66.40625 
z
M 31.78125 74.21875 
Q 44.046875 74.21875 50.515625 64.515625 
Q 56.984375 54.828125 56.984375 36.375 
Q 56.984375 17.96875 50.515625 8.265625 
Q 44.046875 -1.421875 31.78125 -1.421875 
Q 19.53125 -1.421875 13.0625 8.265625 
Q 6.59375 17.96875 6.59375 36.375 
Q 6.59375 54.828125 13.0625 64.515625 
Q 19.53125 74.21875 31.78125 74.21875 
z
" id="DejaVuSans-48"/>
       </defs>
       <use xlink:href="#DejaVuSans-8722"/>
       <use x="83.789062" xlink:href="#DejaVuSans-50"/>
       <use x="147.412109" xlink:href="#DejaVuSans-48"/>
      </g>
     </g>
    </g>
    <g id="xtick_2">
     <g id="line2d_2">
      <g>
       <use style="stroke:#000000;stroke-width:0.8;" x="133.840968" xlink:href="#m143b8ada5e" y="307.584"/>
      </g>
     </g>
     <g id="text_2">
      <!-- 0 -->
      <g transform="translate(130.659718 322.182437)scale(0.1 -0.1)">
       <use xlink:href="#DejaVuSans-48"/>
      </g>
     </g>
    </g>
    <g id="xtick_3">
     <g id="line2d_3">
      <g>
       <use style="stroke:#000000;stroke-width:0.8;" x="177.508109" xlink:href="#m143b8ada5e" y="307.584"/>
      </g>
     </g>
     <g id="text_3">
      <!-- 20 -->
      <g transform="translate(171.145609 322.182437)scale(0.1 -0.1)">
       <use xlink:href="#DejaVuSans-50"/>
       <use x="63.623047" xlink:href="#DejaVuSans-48"/>
      </g>
     </g>
    </g>
    <g id="xtick_4">
     <g id="line2d_4">
      <g>
       <use style="stroke:#000000;stroke-width:0.8;" x="221.17525" xlink:href="#m143b8ada5e" y="307.584"/>
      </g>
     </g>
     <g id="text_4">
      <!-- 40 -->
      <g transform="translate(214.81275 322.182437)scale(0.1 -0.1)">
       <defs>
        <path d="M 37.796875 64.3125 
L 12.890625 25.390625 
L 37.796875 25.390625 
z
M 35.203125 72.90625 
L 47.609375 72.90625 
L 47.609375 25.390625 
L 58.015625 25.390625 
L 58.015625 17.1875 
L 47.609375 17.1875 
L 47.609375 0 
L 37.796875 0 
L 37.796875 17.1875 
L 4.890625 17.1875 
L 4.890625 26.703125 
z
" id="DejaVuSans-52"/>
       </defs>
       <use xlink:href="#DejaVuSans-52"/>
       <use x="63.623047" xlink:href="#DejaVuSans-48"/>
      </g>
     </g>
    </g>
    <g id="xtick_5">
     <g id="line2d_5">
      <g>
       <use style="stroke:#000000;stroke-width:0.8;" x="264.842391" xlink:href="#m143b8ada5e" y="307.584"/>
      </g>
     </g>
     <g id="text_5">
      <!-- 60 -->
      <g transform="translate(258.479891 322.182437)scale(0.1 -0.1)">
       <defs>
        <path d="M 33.015625 40.375 
Q 26.375 40.375 22.484375 35.828125 
Q 18.609375 31.296875 18.609375 23.390625 
Q 18.609375 15.53125 22.484375 10.953125 
Q 26.375 6.390625 33.015625 6.390625 
Q 39.65625 6.390625 43.53125 10.953125 
Q 47.40625 15.53125 47.40625 23.390625 
Q 47.40625 31.296875 43.53125 35.828125 
Q 39.65625 40.375 33.015625 40.375 
z
M 52.59375 71.296875 
L 52.59375 62.3125 
Q 48.875 64.0625 45.09375 64.984375 
Q 41.3125 65.921875 37.59375 65.921875 
Q 27.828125 65.921875 22.671875 59.328125 
Q 17.53125 52.734375 16.796875 39.40625 
Q 19.671875 43.65625 24.015625 45.921875 
Q 28.375 48.1875 33.59375 48.1875 
Q 44.578125 48.1875 50.953125 41.515625 
Q 57.328125 34.859375 57.328125 23.390625 
Q 57.328125 12.15625 50.6875 5.359375 
Q 44.046875 -1.421875 33.015625 -1.421875 
Q 20.359375 -1.421875 13.671875 8.265625 
Q 6.984375 17.96875 6.984375 36.375 
Q 6.984375 53.65625 15.1875 63.9375 
Q 23.390625 74.21875 37.203125 74.21875 
Q 40.921875 74.21875 44.703125 73.484375 
Q 48.484375 72.75 52.59375 71.296875 
z
" id="DejaVuSans-54"/>
       </defs>
       <use xlink:href="#DejaVuSans-54"/>
       <use x="63.623047" xlink:href="#DejaVuSans-48"/>
      </g>
     </g>
    </g>
    <g id="xtick_6">
     <g id="line2d_6">
      <g>
       <use style="stroke:#000000;stroke-width:0.8;" x="308.509532" xlink:href="#m143b8ada5e" y="307.584"/>
      </g>
     </g>
     <g id="text_6">
      <!-- 80 -->
      <g transform="translate(302.147032 322.182437)scale(0.1 -0.1)">
       <defs>
        <path d="M 31.78125 34.625 
Q 24.75 34.625 20.71875 30.859375 
Q 16.703125 27.09375 16.703125 20.515625 
Q 16.703125 13.921875 20.71875 10.15625 
Q 24.75 6.390625 31.78125 6.390625 
Q 38.8125 6.390625 42.859375 10.171875 
Q 46.921875 13.96875 46.921875 20.515625 
Q 46.921875 27.09375 42.890625 30.859375 
Q 38.875 34.625 31.78125 34.625 
z
M 21.921875 38.8125 
Q 15.578125 40.375 12.03125 44.71875 
Q 8.5 49.078125 8.5 55.328125 
Q 8.5 64.0625 14.71875 69.140625 
Q 20.953125 74.21875 31.78125 74.21875 
Q 42.671875 74.21875 48.875 69.140625 
Q 55.078125 64.0625 55.078125 55.328125 
Q 55.078125 49.078125 51.53125 44.71875 
Q 48 40.375 41.703125 38.8125 
Q 48.828125 37.15625 52.796875 32.3125 
Q 56.78125 27.484375 56.78125 20.515625 
Q 56.78125 9.90625 50.3125 4.234375 
Q 43.84375 -1.421875 31.78125 -1.421875 
Q 19.734375 -1.421875 13.25 4.234375 
Q 6.78125 9.90625 6.78125 20.515625 
Q 6.78125 27.484375 10.78125 32.3125 
Q 14.796875 37.15625 21.921875 38.8125 
z
M 18.3125 54.390625 
Q 18.3125 48.734375 21.84375 45.5625 
Q 25.390625 42.390625 31.78125 42.390625 
Q 38.140625 42.390625 41.71875 45.5625 
Q 45.3125 48.734375 45.3125 54.390625 
Q 45.3125 60.0625 41.71875 63.234375 
Q 38.140625 66.40625 31.78125 66.40625 
Q 25.390625 66.40625 21.84375 63.234375 
Q 18.3125 60.0625 18.3125 54.390625 
z
" id="DejaVuSans-56"/>
       </defs>
       <use xlink:href="#DejaVuSans-56"/>
       <use x="63.623047" xlink:href="#DejaVuSans-48"/>
      </g>
     </g>
    </g>
    <g id="xtick_7">
     <g id="line2d_7">
      <g>
       <use style="stroke:#000000;stroke-width:0.8;" x="352.176673" xlink:href="#m143b8ada5e" y="307.584"/>
      </g>
     </g>
     <g id="text_7">
      <!-- 100 -->
      <g transform="translate(342.632923 322.182437)scale(0.1 -0.1)">
       <defs>
        <path d="M 12.40625 8.296875 
L 28.515625 8.296875 
L 28.515625 63.921875 
L 10.984375 60.40625 
L 10.984375 69.390625 
L 28.421875 72.90625 
L 38.28125 72.90625 
L 38.28125 8.296875 
L 54.390625 8.296875 
L 54.390625 0 
L 12.40625 0 
z
" id="DejaVuSans-49"/>
       </defs>
       <use xlink:href="#DejaVuSans-49"/>
       <use x="63.623047" xlink:href="#DejaVuSans-48"/>
       <use x="127.246094" xlink:href="#DejaVuSans-48"/>
      </g>
     </g>
    </g>
    <g id="xtick_8">
     <g id="line2d_8">
      <g>
       <use style="stroke:#000000;stroke-width:0.8;" x="395.843815" xlink:href="#m143b8ada5e" y="307.584"/>
      </g>
     </g>
     <g id="text_8">
      <!-- 120 -->
      <g transform="translate(386.300065 322.182437)scale(0.1 -0.1)">
       <use xlink:href="#DejaVuSans-49"/>
       <use x="63.623047" xlink:href="#DejaVuSans-50"/>
       <use x="127.246094" xlink:href="#DejaVuSans-48"/>
      </g>
     </g>
    </g>
   </g>
   <g id="matplotlib.axis_2">
    <g id="ytick_1">
     <g id="line2d_9">
      <defs>
       <path d="M 0 0 
L -3.5 0 
" id="mb79a83d471" style="stroke:#000000;stroke-width:0.8;"/>
      </defs>
      <g>
       <use style="stroke:#000000;stroke-width:0.8;" x="57.6" xlink:href="#mb79a83d471" y="270.760645"/>
      </g>
     </g>
     <g id="text_9">
      <!-- 20 -->
      <g transform="translate(37.875 274.559864)scale(0.1 -0.1)">
       <use xlink:href="#DejaVuSans-50"/>
       <use x="63.623047" xlink:href="#DejaVuSans-48"/>
      </g>
     </g>
    </g>
    <g id="ytick_2">
     <g id="line2d_10">
      <g>
       <use style="stroke:#000000;stroke-width:0.8;" x="57.6" xlink:href="#mb79a83d471" y="227.093504"/>
      </g>
     </g>
     <g id="text_10">
      <!-- 40 -->
      <g transform="translate(37.875 230.892723)scale(0.1 -0.1)">
       <use xlink:href="#DejaVuSans-52"/>
       <use x="63.623047" xlink:href="#DejaVuSans-48"/>
      </g>
     </g>
    </g>
    <g id="ytick_3">
     <g id="line2d_11">
      <g>
       <use style="stroke:#000000;stroke-width:0.8;" x="57.6" xlink:href="#mb79a83d471" y="183.426363"/>
      </g>
     </g>
     <g id="text_11">
      <!-- 60 -->
      <g transform="translate(37.875 187.225582)scale(0.1 -0.1)">
       <use xlink:href="#DejaVuSans-54"/>
       <use x="63.623047" xlink:href="#DejaVuSans-48"/>
      </g>
     </g>
    </g>
    <g id="ytick_4">
     <g id="line2d_12">
      <g>
       <use style="stroke:#000000;stroke-width:0.8;" x="57.6" xlink:href="#mb79a83d471" y="139.759222"/>
      </g>
     </g>
     <g id="text_12">
      <!-- 80 -->
      <g transform="translate(37.875 143.558441)scale(0.1 -0.1)">
       <use xlink:href="#DejaVuSans-56"/>
       <use x="63.623047" xlink:href="#DejaVuSans-48"/>
      </g>
     </g>
    </g>
    <g id="ytick_5">
     <g id="line2d_13">
      <g>
       <use style="stroke:#000000;stroke-width:0.8;" x="57.6" xlink:href="#mb79a83d471" y="96.092081"/>
      </g>
     </g>
     <g id="text_13">
      <!-- 100 -->
      <g transform="translate(31.5125 99.891299)scale(0.1 -0.1)">
       <use xlink:href="#DejaVuSans-49"/>
       <use x="63.623047" xlink:href="#DejaVuSans-48"/>
       <use x="127.246094" xlink:href="#DejaVuSans-48"/>
      </g>
     </g>
    </g>
    <g id="ytick_6">
     <g id="line2d_14">
      <g>
       <use style="stroke:#000000;stroke-width:0.8;" x="57.6" xlink:href="#mb79a83d471" y="52.424939"/>
      </g>
     </g>
     <g id="text_14">
      <!-- 120 -->
      <g transform="translate(31.5125 56.224158)scale(0.1 -0.1)">
       <use xlink:href="#DejaVuSans-49"/>
       <use x="63.623047" xlink:href="#DejaVuSans-50"/>
       <use x="127.246094" xlink:href="#DejaVuSans-48"/>
      </g>
     </g>
    </g>
   </g>
   <g id="line2d_15">
    <path clip-path="url(#p5d08dfdc7a)" d="M 155.674538 148.003578 
L 155.25315 143.577913 
L 155.058832 139.187182 
L 155.080665 134.824835 
L 155.296817 130.486504 
L 155.692005 126.170007 
L 156.248761 121.866611 
L 157.351356 115.432257 
L 158.720321 109.004454 
L 160.301072 102.572284 
L 161.493185 98.303821 
L 162.87525 94.113959 
L 164.525868 90.061648 
L 165.473445 88.10536 
L 166.519273 86.20584 
L 167.667719 84.367453 
L 168.927516 82.601117 
L 170.294297 80.904649 
L 171.757146 79.280231 
L 173.309513 77.725681 
L 176.652233 74.834916 
L 180.252589 72.234538 
L 184.042897 69.92673 
L 187.968573 67.915858 
L 192.007783 66.201922 
L 196.153978 64.793657 
L 200.391874 63.691062 
L 204.712738 62.898503 
L 209.103469 62.424715 
L 213.5204 62.295897 
L 217.922048 62.549166 
L 222.264745 63.21509 
L 224.397885 63.712895 
L 226.500458 64.326419 
L 228.565914 65.05566 
L 230.589886 65.900619 
L 232.572374 66.852563 
L 236.388882 69.05557 
L 239.991421 71.614465 
L 243.355974 74.483396 
L 246.454158 77.61433 
L 249.283789 80.965783 
L 251.864517 84.507188 
L 254.211626 88.207978 
L 256.346949 92.035403 
L 258.290137 95.958896 
L 260.962566 101.947844 
L 264.503971 109.928014 
L 266.449342 113.831857 
L 268.606499 117.630898 
L 270.975441 121.312038 
L 273.540886 124.866543 
L 276.283182 128.287864 
L 279.18923 131.562899 
L 282.235013 134.693833 
L 288.549282 140.726449 
L 293.26315 145.274382 
L 296.291466 148.424966 
L 299.186598 151.706552 
L 301.926711 155.121322 
L 304.494339 158.667094 
L 306.872015 162.343867 
L 309.042271 166.151642 
L 310.989826 170.081685 
L 312.697211 174.120895 
L 314.151327 178.256173 
L 315.334706 182.474419 
L 316.236433 186.760349 
L 316.854323 191.09868 
L 317.19711 195.46976 
L 317.277894 199.856125 
L 317.107592 204.233756 
L 316.701488 208.589553 
L 316.087965 212.9126 
L 314.891485 219.355687 
L 309.631778 245.025416 
L 308.236613 253.667143 
L 307.435321 260.18883 
L 307.079433 264.544628 
L 306.900398 268.900425 
L 306.935332 273.251856 
L 307.216985 277.590186 
L 307.773741 281.908866 
L 308.640534 286.205713 
L 309.850114 290.474176 
L 310.594638 292.594216 
L 310.594638 292.594216 
" style="fill:none;stroke:#fea952;stroke-linecap:square;"/>
   </g>
   <g id="line2d_16">
    <path clip-path="url(#p5d08dfdc7a)" d="M 146.991851 148.943633 
L 146.533652 144.07098 
L 146.325617 139.248254 
L 146.353938 134.482782 
L 146.592475 129.774331 
L 147.021496 125.123567 
L 147.619235 120.52346 
L 148.78719 113.72117 
L 150.22133 106.994499 
L 151.867687 100.30275 
L 153.162536 95.682168 
L 154.724615 90.977094 
L 156.665945 86.254499 
L 157.822933 83.893182 
L 159.112352 81.578714 
L 160.557474 79.296241 
L 162.126681 77.121938 
L 163.804526 75.060366 
L 165.577342 73.109106 
L 167.448556 71.250965 
L 169.382689 69.512226 
L 171.391569 67.863677 
L 175.573828 64.860125 
L 179.924536 62.225309 
L 184.410322 59.940169 
L 189.048368 57.985194 
L 193.800801 56.383228 
L 198.654051 55.132281 
L 203.607169 54.235335 
L 208.672076 53.701948 
L 213.831186 53.568 
L 216.42078 53.668608 
L 219.031972 53.886555 
L 221.64028 54.23153 
L 224.249514 54.710182 
L 226.844248 55.329097 
L 229.408029 56.091202 
L 231.93048 56.996351 
L 234.370239 58.027774 
L 236.749536 59.182877 
L 239.056245 60.451371 
L 241.283 61.822288 
L 243.436487 63.290266 
L 245.515186 64.849792 
L 249.435579 68.213533 
L 253.020272 71.855952 
L 256.252743 75.702091 
L 259.171065 79.723139 
L 261.779869 83.849714 
L 264.130306 88.074075 
L 266.227876 92.316772 
L 268.978518 98.48125 
L 272.365447 106.124074 
L 274.100973 109.621713 
L 276.01341 113.003757 
L 278.123602 116.294412 
L 280.426202 119.49391 
L 282.882651 122.567743 
L 285.507 125.533094 
L 288.340211 128.448889 
L 294.556619 134.387311 
L 299.495089 139.155909 
L 302.776901 142.575871 
L 305.929955 146.156786 
L 308.934316 149.909198 
L 311.763668 153.826678 
L 314.39518 157.908244 
L 316.809712 162.159195 
L 318.981611 166.559734 
L 320.889488 171.094449 
L 322.520255 175.759414 
L 323.849589 180.532887 
L 324.862283 185.393792 
L 325.549421 190.28134 
L 325.925825 195.18286 
L 326.008611 200.07374 
L 325.813152 204.930898 
L 325.360728 209.725478 
L 324.695867 214.387991 
L 323.44163 221.135513 
L 318.236758 246.51776 
L 316.889426 254.851029 
L 316.132596 260.982664 
L 315.801031 264.99906 
L 315.633717 268.944223 
L 315.657732 272.813103 
L 315.896997 276.62574 
L 316.365181 280.340449 
L 317.087749 283.988211 
L 318.090185 287.580392 
L 318.83471 289.700432 
L 318.83471 289.700432 
" style="fill:none;stroke:#ffffff;stroke-linecap:square;"/>
   </g>
   <g id="line2d_17">
    <path clip-path="url(#p5d08dfdc7a)" d="M 164.357226 147.063523 
L 163.972649 143.084846 
L 163.792046 139.126111 
L 163.807392 135.166887 
L 164.00116 131.198678 
L 164.362514 127.216448 
L 165.191176 121.193084 
L 166.319244 115.118508 
L 167.709086 108.94215 
L 169.266376 102.85923 
L 170.412259 99.044651 
L 171.685748 95.517834 
L 173.123956 92.317539 
L 174.777963 89.438666 
L 176.784068 86.748932 
L 179.170471 84.200397 
L 181.912897 81.806156 
L 184.931349 79.608951 
L 188.161257 77.62815 
L 191.526823 75.891547 
L 194.967198 74.418651 
L 198.507155 73.204087 
L 202.129698 72.249843 
L 205.818307 71.561672 
L 209.534862 71.147482 
L 213.209615 71.023793 
L 216.812124 71.211778 
L 220.279976 71.719998 
L 223.592887 72.561636 
L 226.809532 73.773465 
L 229.953044 75.358511 
L 233.000584 77.296801 
L 235.898364 79.537156 
L 238.605231 82.03139 
L 241.123854 84.772511 
L 243.459433 87.73637 
L 245.622987 90.911088 
L 247.621552 94.258391 
L 249.4723 97.777594 
L 252.084227 103.437525 
L 256.642495 113.731954 
L 258.797711 118.042001 
L 261.199587 122.258039 
L 263.827281 126.329664 
L 266.655569 130.239176 
L 269.683713 134.007984 
L 272.87146 137.592705 
L 276.129816 140.938778 
L 282.541945 147.065587 
L 287.031211 151.392854 
L 289.806032 154.274061 
L 292.44324 157.256317 
L 294.919106 160.333446 
L 297.22501 163.507509 
L 299.348849 166.779491 
L 301.274831 170.144089 
L 302.998041 173.603636 
L 304.504935 177.147341 
L 305.782399 180.752933 
L 306.819824 184.415952 
L 307.610583 188.126907 
L 308.159225 191.916019 
L 308.468396 195.75666 
L 308.547178 199.63851 
L 308.402033 203.536614 
L 308.042248 207.453628 
L 307.480062 211.437209 
L 306.34134 217.57586 
L 301.026798 243.533071 
L 299.583799 252.483257 
L 298.738045 259.394997 
L 298.357836 264.090196 
L 298.16708 268.856627 
L 298.212932 273.690608 
L 298.536973 278.554632 
L 299.182301 283.477283 
L 300.193318 288.423215 
L 301.610042 293.36796 
L 302.354567 295.488 
L 302.354567 295.488 
" style="fill:none;stroke:#ffffff;stroke-linecap:square;"/>
   </g>
   <g id="patch_3">
    <path d="M 57.6 307.584 
L 57.6 41.472 
" style="fill:none;stroke:#000000;stroke-linecap:square;stroke-linejoin:miter;stroke-width:0.8;"/>
   </g>
   <g id="patch_4">
    <path d="M 414.72 307.584 
L 414.72 41.472 
" style="fill:none;stroke:#000000;stroke-linecap:square;stroke-linejoin:miter;stroke-width:0.8;"/>
   </g>
   <g id="patch_5">
    <path d="M 57.6 307.584 
L 414.72 307.584 
" style="fill:none;stroke:#000000;stroke-linecap:square;stroke-linejoin:miter;stroke-width:0.8;"/>
   </g>
   <g id="patch_6">
    <path d="M 57.6 41.472 
L 414.72 41.472 
" style="fill:none;stroke:#000000;stroke-linecap:square;stroke-linejoin:miter;stroke-width:0.8;"/>
   </g>
  </g>
 </g>
 <defs>
  <clipPath id="p5d08dfdc7a">
   <rect height="266.112" width="357.12" x="57.6" y="41.472"/>
  </clipPath>
 </defs>
</svg>
