<?xml version="1.0" encoding="utf-8" standalone="no"?>
<!DOCTYPE svg PUBLIC "-//W3C//DTD SVG 1.1//EN"
  "http://www.w3.org/Graphics/SVG/1.1/DTD/svg11.dtd">
<!-- Created with matplotlib (https://matplotlib.org/) -->
<svg height="345.6pt" version="1.1" viewBox="0 0 460.8 345.6" width="460.8pt" xmlns="http://www.w3.org/2000/svg" xmlns:xlink="http://www.w3.org/1999/xlink">
 <metadata>
  <rdf:RDF xmlns:cc="http://creativecommons.org/ns#" xmlns:dc="http://purl.org/dc/elements/1.1/" xmlns:rdf="http://www.w3.org/1999/02/22-rdf-syntax-ns#">
   <cc:Work>
    <dc:type rdf:resource="http://purl.org/dc/dcmitype/StillImage"/>
    <dc:date>2021-01-25T13:50:09.980283</dc:date>
    <dc:format>image/svg+xml</dc:format>
    <dc:creator>
     <cc:Agent>
      <dc:title>Matplotlib v3.3.3, https://matplotlib.org/</dc:title>
     </cc:Agent>
    </dc:creator>
   </cc:Work>
  </rdf:RDF>
 </metadata>
 <defs>
  <style type="text/css">*{stroke-linecap:butt;stroke-linejoin:round;}</style>
 </defs>
 <g id="figure_1">
  <g id="patch_1">
   <path d="M 0 345.6 
L 460.8 345.6 
L 460.8 0 
L 0 0 
z
" style="fill:#ffffff;"/>
  </g>
  <g id="axes_1">
   <g id="patch_2">
    <path d="M 57.6 307.584 
L 414.72 307.584 
L 414.72 41.472 
L 57.6 41.472 
z
" style="fill:#7d9051;"/>
   </g>
   <g id="matplotlib.axis_1">
    <g id="xtick_1">
     <g id="line2d_1">
      <defs>
       <path d="M 0 0 
L 0 3.5 
" id="m92ce5c8c46" style="stroke:#000000;stroke-width:0.8;"/>
      </defs>
      <g>
       <use style="stroke:#000000;stroke-width:0.8;" x="75.964441" xlink:href="#m92ce5c8c46" y="307.584"/>
      </g>
     </g>
     <g id="text_1">
      <!-- 0 -->
      <g transform="translate(72.783191 322.182437)scale(0.1 -0.1)">
       <defs>
        <path d="M 31.78125 66.40625 
Q 24.171875 66.40625 20.328125 58.90625 
Q 16.5 51.421875 16.5 36.375 
Q 16.5 21.390625 20.328125 13.890625 
Q 24.171875 6.390625 31.78125 6.390625 
Q 39.453125 6.390625 43.28125 13.890625 
Q 47.125 21.390625 47.125 36.375 
Q 47.125 51.421875 43.28125 58.90625 
Q 39.453125 66.40625 31.78125 66.40625 
z
M 31.78125 74.21875 
Q 44.046875 74.21875 50.515625 64.515625 
Q 56.984375 54.828125 56.984375 36.375 
Q 56.984375 17.96875 50.515625 8.265625 
Q 44.046875 -1.421875 31.78125 -1.421875 
Q 19.53125 -1.421875 13.0625 8.265625 
Q 6.59375 17.96875 6.59375 36.375 
Q 6.59375 54.828125 13.0625 64.515625 
Q 19.53125 74.21875 31.78125 74.21875 
z
" id="DejaVuSans-48"/>
       </defs>
       <use xlink:href="#DejaVuSans-48"/>
      </g>
     </g>
    </g>
    <g id="xtick_2">
     <g id="line2d_2">
      <g>
       <use style="stroke:#000000;stroke-width:0.8;" x="151.888861" xlink:href="#m92ce5c8c46" y="307.584"/>
      </g>
     </g>
     <g id="text_2">
      <!-- 20 -->
      <g transform="translate(145.526361 322.182437)scale(0.1 -0.1)">
       <defs>
        <path d="M 19.1875 8.296875 
L 53.609375 8.296875 
L 53.609375 0 
L 7.328125 0 
L 7.328125 8.296875 
Q 12.9375 14.109375 22.625 23.890625 
Q 32.328125 33.6875 34.8125 36.53125 
Q 39.546875 41.84375 41.421875 45.53125 
Q 43.3125 49.21875 43.3125 52.78125 
Q 43.3125 58.59375 39.234375 62.25 
Q 35.15625 65.921875 28.609375 65.921875 
Q 23.96875 65.921875 18.8125 64.3125 
Q 13.671875 62.703125 7.8125 59.421875 
L 7.8125 69.390625 
Q 13.765625 71.78125 18.9375 73 
Q 24.125 74.21875 28.421875 74.21875 
Q 39.75 74.21875 46.484375 68.546875 
Q 53.21875 62.890625 53.21875 53.421875 
Q 53.21875 48.921875 51.53125 44.890625 
Q 49.859375 40.875 45.40625 35.40625 
Q 44.1875 33.984375 37.640625 27.21875 
Q 31.109375 20.453125 19.1875 8.296875 
z
" id="DejaVuSans-50"/>
       </defs>
       <use xlink:href="#DejaVuSans-50"/>
       <use x="63.623047" xlink:href="#DejaVuSans-48"/>
      </g>
     </g>
    </g>
    <g id="xtick_3">
     <g id="line2d_3">
      <g>
       <use style="stroke:#000000;stroke-width:0.8;" x="227.813281" xlink:href="#m92ce5c8c46" y="307.584"/>
      </g>
     </g>
     <g id="text_3">
      <!-- 40 -->
      <g transform="translate(221.450781 322.182437)scale(0.1 -0.1)">
       <defs>
        <path d="M 37.796875 64.3125 
L 12.890625 25.390625 
L 37.796875 25.390625 
z
M 35.203125 72.90625 
L 47.609375 72.90625 
L 47.609375 25.390625 
L 58.015625 25.390625 
L 58.015625 17.1875 
L 47.609375 17.1875 
L 47.609375 0 
L 37.796875 0 
L 37.796875 17.1875 
L 4.890625 17.1875 
L 4.890625 26.703125 
z
" id="DejaVuSans-52"/>
       </defs>
       <use xlink:href="#DejaVuSans-52"/>
       <use x="63.623047" xlink:href="#DejaVuSans-48"/>
      </g>
     </g>
    </g>
    <g id="xtick_4">
     <g id="line2d_4">
      <g>
       <use style="stroke:#000000;stroke-width:0.8;" x="303.7377" xlink:href="#m92ce5c8c46" y="307.584"/>
      </g>
     </g>
     <g id="text_4">
      <!-- 60 -->
      <g transform="translate(297.3752 322.182437)scale(0.1 -0.1)">
       <defs>
        <path d="M 33.015625 40.375 
Q 26.375 40.375 22.484375 35.828125 
Q 18.609375 31.296875 18.609375 23.390625 
Q 18.609375 15.53125 22.484375 10.953125 
Q 26.375 6.390625 33.015625 6.390625 
Q 39.65625 6.390625 43.53125 10.953125 
Q 47.40625 15.53125 47.40625 23.390625 
Q 47.40625 31.296875 43.53125 35.828125 
Q 39.65625 40.375 33.015625 40.375 
z
M 52.59375 71.296875 
L 52.59375 62.3125 
Q 48.875 64.0625 45.09375 64.984375 
Q 41.3125 65.921875 37.59375 65.921875 
Q 27.828125 65.921875 22.671875 59.328125 
Q 17.53125 52.734375 16.796875 39.40625 
Q 19.671875 43.65625 24.015625 45.921875 
Q 28.375 48.1875 33.59375 48.1875 
Q 44.578125 48.1875 50.953125 41.515625 
Q 57.328125 34.859375 57.328125 23.390625 
Q 57.328125 12.15625 50.6875 5.359375 
Q 44.046875 -1.421875 33.015625 -1.421875 
Q 20.359375 -1.421875 13.671875 8.265625 
Q 6.984375 17.96875 6.984375 36.375 
Q 6.984375 53.65625 15.1875 63.9375 
Q 23.390625 74.21875 37.203125 74.21875 
Q 40.921875 74.21875 44.703125 73.484375 
Q 48.484375 72.75 52.59375 71.296875 
z
" id="DejaVuSans-54"/>
       </defs>
       <use xlink:href="#DejaVuSans-54"/>
       <use x="63.623047" xlink:href="#DejaVuSans-48"/>
      </g>
     </g>
    </g>
    <g id="xtick_5">
     <g id="line2d_5">
      <g>
       <use style="stroke:#000000;stroke-width:0.8;" x="379.66212" xlink:href="#m92ce5c8c46" y="307.584"/>
      </g>
     </g>
     <g id="text_5">
      <!-- 80 -->
      <g transform="translate(373.29962 322.182437)scale(0.1 -0.1)">
       <defs>
        <path d="M 31.78125 34.625 
Q 24.75 34.625 20.71875 30.859375 
Q 16.703125 27.09375 16.703125 20.515625 
Q 16.703125 13.921875 20.71875 10.15625 
Q 24.75 6.390625 31.78125 6.390625 
Q 38.8125 6.390625 42.859375 10.171875 
Q 46.921875 13.96875 46.921875 20.515625 
Q 46.921875 27.09375 42.890625 30.859375 
Q 38.875 34.625 31.78125 34.625 
z
M 21.921875 38.8125 
Q 15.578125 40.375 12.03125 44.71875 
Q 8.5 49.078125 8.5 55.328125 
Q 8.5 64.0625 14.71875 69.140625 
Q 20.953125 74.21875 31.78125 74.21875 
Q 42.671875 74.21875 48.875 69.140625 
Q 55.078125 64.0625 55.078125 55.328125 
Q 55.078125 49.078125 51.53125 44.71875 
Q 48 40.375 41.703125 38.8125 
Q 48.828125 37.15625 52.796875 32.3125 
Q 56.78125 27.484375 56.78125 20.515625 
Q 56.78125 9.90625 50.3125 4.234375 
Q 43.84375 -1.421875 31.78125 -1.421875 
Q 19.734375 -1.421875 13.25 4.234375 
Q 6.78125 9.90625 6.78125 20.515625 
Q 6.78125 27.484375 10.78125 32.3125 
Q 14.796875 37.15625 21.921875 38.8125 
z
M 18.3125 54.390625 
Q 18.3125 48.734375 21.84375 45.5625 
Q 25.390625 42.390625 31.78125 42.390625 
Q 38.140625 42.390625 41.71875 45.5625 
Q 45.3125 48.734375 45.3125 54.390625 
Q 45.3125 60.0625 41.71875 63.234375 
Q 38.140625 66.40625 31.78125 66.40625 
Q 25.390625 66.40625 21.84375 63.234375 
Q 18.3125 60.0625 18.3125 54.390625 
z
" id="DejaVuSans-56"/>
       </defs>
       <use xlink:href="#DejaVuSans-56"/>
       <use x="63.623047" xlink:href="#DejaVuSans-48"/>
      </g>
     </g>
    </g>
   </g>
   <g id="matplotlib.axis_2">
    <g id="ytick_1">
     <g id="line2d_6">
      <defs>
       <path d="M 0 0 
L -3.5 0 
" id="m379b081196" style="stroke:#000000;stroke-width:0.8;"/>
      </defs>
      <g>
       <use style="stroke:#000000;stroke-width:0.8;" x="57.6" xlink:href="#m379b081196" y="280.23984"/>
      </g>
     </g>
     <g id="text_6">
      <!-- 10 -->
      <g transform="translate(37.875 284.039059)scale(0.1 -0.1)">
       <defs>
        <path d="M 12.40625 8.296875 
L 28.515625 8.296875 
L 28.515625 63.921875 
L 10.984375 60.40625 
L 10.984375 69.390625 
L 28.421875 72.90625 
L 38.28125 72.90625 
L 38.28125 8.296875 
L 54.390625 8.296875 
L 54.390625 0 
L 12.40625 0 
z
" id="DejaVuSans-49"/>
       </defs>
       <use xlink:href="#DejaVuSans-49"/>
       <use x="63.623047" xlink:href="#DejaVuSans-48"/>
      </g>
     </g>
    </g>
    <g id="ytick_2">
     <g id="line2d_7">
      <g>
       <use style="stroke:#000000;stroke-width:0.8;" x="57.6" xlink:href="#m379b081196" y="242.27763"/>
      </g>
     </g>
     <g id="text_7">
      <!-- 20 -->
      <g transform="translate(37.875 246.076849)scale(0.1 -0.1)">
       <use xlink:href="#DejaVuSans-50"/>
       <use x="63.623047" xlink:href="#DejaVuSans-48"/>
      </g>
     </g>
    </g>
    <g id="ytick_3">
     <g id="line2d_8">
      <g>
       <use style="stroke:#000000;stroke-width:0.8;" x="57.6" xlink:href="#m379b081196" y="204.315421"/>
      </g>
     </g>
     <g id="text_8">
      <!-- 30 -->
      <g transform="translate(37.875 208.114639)scale(0.1 -0.1)">
       <defs>
        <path d="M 40.578125 39.3125 
Q 47.65625 37.796875 51.625 33 
Q 55.609375 28.21875 55.609375 21.1875 
Q 55.609375 10.40625 48.1875 4.484375 
Q 40.765625 -1.421875 27.09375 -1.421875 
Q 22.515625 -1.421875 17.65625 -0.515625 
Q 12.796875 0.390625 7.625 2.203125 
L 7.625 11.71875 
Q 11.71875 9.328125 16.59375 8.109375 
Q 21.484375 6.890625 26.8125 6.890625 
Q 36.078125 6.890625 40.9375 10.546875 
Q 45.796875 14.203125 45.796875 21.1875 
Q 45.796875 27.640625 41.28125 31.265625 
Q 36.765625 34.90625 28.71875 34.90625 
L 20.21875 34.90625 
L 20.21875 43.015625 
L 29.109375 43.015625 
Q 36.375 43.015625 40.234375 45.921875 
Q 44.09375 48.828125 44.09375 54.296875 
Q 44.09375 59.90625 40.109375 62.90625 
Q 36.140625 65.921875 28.71875 65.921875 
Q 24.65625 65.921875 20.015625 65.03125 
Q 15.375 64.15625 9.8125 62.3125 
L 9.8125 71.09375 
Q 15.4375 72.65625 20.34375 73.4375 
Q 25.25 74.21875 29.59375 74.21875 
Q 40.828125 74.21875 47.359375 69.109375 
Q 53.90625 64.015625 53.90625 55.328125 
Q 53.90625 49.265625 50.4375 45.09375 
Q 46.96875 40.921875 40.578125 39.3125 
z
" id="DejaVuSans-51"/>
       </defs>
       <use xlink:href="#DejaVuSans-51"/>
       <use x="63.623047" xlink:href="#DejaVuSans-48"/>
      </g>
     </g>
    </g>
    <g id="ytick_4">
     <g id="line2d_9">
      <g>
       <use style="stroke:#000000;stroke-width:0.8;" x="57.6" xlink:href="#m379b081196" y="166.353211"/>
      </g>
     </g>
     <g id="text_9">
      <!-- 40 -->
      <g transform="translate(37.875 170.152429)scale(0.1 -0.1)">
       <use xlink:href="#DejaVuSans-52"/>
       <use x="63.623047" xlink:href="#DejaVuSans-48"/>
      </g>
     </g>
    </g>
    <g id="ytick_5">
     <g id="line2d_10">
      <g>
       <use style="stroke:#000000;stroke-width:0.8;" x="57.6" xlink:href="#m379b081196" y="128.391001"/>
      </g>
     </g>
     <g id="text_10">
      <!-- 50 -->
      <g transform="translate(37.875 132.190219)scale(0.1 -0.1)">
       <defs>
        <path d="M 10.796875 72.90625 
L 49.515625 72.90625 
L 49.515625 64.59375 
L 19.828125 64.59375 
L 19.828125 46.734375 
Q 21.96875 47.46875 24.109375 47.828125 
Q 26.265625 48.1875 28.421875 48.1875 
Q 40.625 48.1875 47.75 41.5 
Q 54.890625 34.8125 54.890625 23.390625 
Q 54.890625 11.625 47.5625 5.09375 
Q 40.234375 -1.421875 26.90625 -1.421875 
Q 22.3125 -1.421875 17.546875 -0.640625 
Q 12.796875 0.140625 7.71875 1.703125 
L 7.71875 11.625 
Q 12.109375 9.234375 16.796875 8.0625 
Q 21.484375 6.890625 26.703125 6.890625 
Q 35.15625 6.890625 40.078125 11.328125 
Q 45.015625 15.765625 45.015625 23.390625 
Q 45.015625 31 40.078125 35.4375 
Q 35.15625 39.890625 26.703125 39.890625 
Q 22.75 39.890625 18.8125 39.015625 
Q 14.890625 38.140625 10.796875 36.28125 
z
" id="DejaVuSans-53"/>
       </defs>
       <use xlink:href="#DejaVuSans-53"/>
       <use x="63.623047" xlink:href="#DejaVuSans-48"/>
      </g>
     </g>
    </g>
    <g id="ytick_6">
     <g id="line2d_11">
      <g>
       <use style="stroke:#000000;stroke-width:0.8;" x="57.6" xlink:href="#m379b081196" y="90.428791"/>
      </g>
     </g>
     <g id="text_11">
      <!-- 60 -->
      <g transform="translate(37.875 94.228009)scale(0.1 -0.1)">
       <use xlink:href="#DejaVuSans-54"/>
       <use x="63.623047" xlink:href="#DejaVuSans-48"/>
      </g>
     </g>
    </g>
    <g id="ytick_7">
     <g id="line2d_12">
      <g>
       <use style="stroke:#000000;stroke-width:0.8;" x="57.6" xlink:href="#m379b081196" y="52.466581"/>
      </g>
     </g>
     <g id="text_12">
      <!-- 70 -->
      <g transform="translate(37.875 56.265799)scale(0.1 -0.1)">
       <defs>
        <path d="M 8.203125 72.90625 
L 55.078125 72.90625 
L 55.078125 68.703125 
L 28.609375 0 
L 18.3125 0 
L 43.21875 64.59375 
L 8.203125 64.59375 
z
" id="DejaVuSans-55"/>
       </defs>
       <use xlink:href="#DejaVuSans-55"/>
       <use x="63.623047" xlink:href="#DejaVuSans-48"/>
      </g>
     </g>
    </g>
   </g>
   <g id="line2d_13">
    <path clip-path="url(#p340baf5164)" d="M 227.448843 225.988046 
L 226.39729 222.214603 
L 225.592491 218.406993 
L 225.030651 214.580402 
L 224.707972 210.742423 
L 224.616862 206.900647 
L 224.753526 203.066464 
L 225.110371 199.255058 
L 225.691193 195.470226 
L 226.480807 191.723355 
L 227.479213 188.025836 
L 228.682615 184.389057 
L 230.087217 180.820609 
L 231.68163 177.331882 
L 233.465854 173.934264 
L 235.432296 170.635348 
L 237.577161 167.446522 
L 239.900448 164.375379 
L 242.386973 161.437104 
L 245.040531 158.63929 
L 247.853531 155.993323 
L 250.81838 153.506799 
L 253.927485 151.1949 
L 257.161865 149.061424 
L 260.517724 147.125351 
L 263.972286 145.398071 
L 267.521752 143.883379 
L 271.150939 142.59646 
L 274.844662 141.548703 
L 278.595329 140.755292 
L 282.383957 140.220025 
L 286.202956 139.95429 
L 290.037139 139.95429 
L 293.871322 140.20484 
L 297.686524 140.702145 
L 301.478949 141.434816 
L 305.222023 142.391464 
L 308.91195 143.5607 
L 312.525952 144.938728 
L 316.056438 146.51416 
L 319.480629 148.275606 
L 322.79473 150.215475 
L 325.987352 152.326174 
L 329.062291 154.596314 
L 332.011954 157.025896 
L 334.836343 159.599733 
L 337.535456 162.314031 
L 340.101701 165.161197 
L 342.538875 168.129842 
L 344.843181 171.219966 
L 347.007027 174.42018 
L 349.034209 177.719096 
L 350.909543 181.112918 
L 352.617842 184.590256 
L 354.151515 188.139723 
L 355.495377 191.757521 
L 356.634244 195.428467 
L 357.560522 199.144968 
L 358.25523 202.895634 
L 358.70698 206.672874 
L 358.904384 210.469095 
L 358.836052 214.272908 
L 358.509577 218.069129 
L 357.936348 221.850165 
L 357.123956 225.600832 
L 356.083792 229.305943 
L 354.827243 232.961704 
L 353.358105 236.545337 
L 351.69536 240.053045 
L 349.839008 243.465848 
L 347.80803 246.772356 
L 345.606222 249.964978 
L 343.244972 253.032325 
L 340.728078 255.966803 
L 338.066927 258.757026 
L 335.269112 261.399196 
L 332.342226 263.881924 
L 329.29386 266.197619 
L 326.131608 268.338688 
L 322.863062 270.297538 
L 319.495814 272.06278 
L 316.037456 273.63062 
L 312.499378 275.008648 
L 308.889172 276.204458 
L 305.218227 277.229437 
L 301.494134 278.087383 
L 297.728283 278.79348 
L 293.928265 279.351525 
L 290.105471 279.772905 
L 286.267491 280.065214 
L 278.58394 280.304376 
L 274.753553 280.255025 
L 267.126945 279.81846 
L 263.338317 279.427449 
L 259.564873 278.922552 
L 255.818003 278.299972 
L 252.09391 277.559708 
L 248.396391 276.697966 
L 244.733038 275.714745 
L 241.100054 274.610045 
L 237.501237 273.391458 
L 233.940381 272.06278 
L 226.928761 269.097932 
L 220.06899 265.772442 
L 213.36866 262.131866 
L 206.835363 258.229351 
L 200.438731 254.133229 
L 181.434849 241.594311 
L 174.950903 237.623464 
L 158.574006 227.920323 
L 152.257094 223.721702 
L 149.204932 221.474339 
L 146.247676 219.105498 
L 143.389122 216.592399 
L 140.644454 213.946433 
L 138.009877 211.171396 
L 135.500575 208.278675 
L 133.112752 205.275864 
L 130.857796 202.174352 
L 128.735709 198.977934 
L 126.750285 195.697999 
L 124.912914 192.34214 
L 123.227392 188.917948 
L 121.689923 185.436814 
L 120.304302 181.898736 
L 119.062938 178.311307 
L 117.958237 174.678323 
L 116.986405 170.999785 
L 116.143644 167.283285 
L 115.418566 163.536415 
L 114.317661 155.943973 
L 113.638138 148.260421 
L 113.463512 144.403461 
L 113.414161 140.542704 
L 113.501474 136.693336 
L 113.740636 132.862949 
L 114.146832 129.059136 
L 114.727653 125.297081 
L 115.502082 121.58058 
L 116.477711 117.924819 
L 117.665928 114.333594 
L 119.085715 110.82209 
L 120.721886 107.394102 
L 122.563053 104.057224 
L 124.601624 100.822844 
L 126.82621 97.690961 
L 129.225421 94.676762 
L 131.791667 91.780245 
L 134.505965 89.016596 
L 137.364519 86.385815 
L 140.355941 83.899291 
L 143.465046 81.560818 
L 146.684242 79.381788 
L 150.002139 77.36979 
L 153.407349 75.528623 
L 156.888484 73.869675 
L 160.434154 72.396741 
L 164.036768 71.117414 
L 167.684936 70.039288 
L 171.363474 69.173749 
L 175.06479 68.524596 
L 175.06479 68.524596 
" style="fill:none;stroke:#fea952;stroke-linecap:square;"/>
   </g>
   <g id="line2d_14">
    <path clip-path="url(#p340baf5164)" d="M 212.821314 230.06433 
L 211.540644 225.354791 
L 210.568683 220.612869 
L 209.899152 215.852585 
L 209.527356 211.102437 
L 209.441615 206.359747 
L 209.634761 201.650962 
L 210.101193 196.951744 
L 210.832667 192.338946 
L 211.820954 187.764894 
L 213.063068 183.255567 
L 214.552919 178.827368 
L 216.276303 174.508766 
L 218.237738 170.271961 
L 220.422463 166.159262 
L 222.832431 162.160438 
L 225.46708 158.285373 
L 228.309084 154.56615 
L 231.36936 150.987564 
L 234.636608 147.57859 
L 238.095821 144.358557 
L 241.757517 141.321501 
L 245.566326 138.519265 
L 249.573638 135.908496 
L 253.726838 133.543578 
L 258.012307 131.431705 
L 262.44678 129.571657 
L 267.0071 127.987925 
L 271.70202 126.692576 
L 276.471066 125.719728 
L 281.329904 125.071769 
L 286.202956 124.769406 
L 291.027307 124.801723 
L 295.834042 125.147336 
L 300.56688 125.792945 
L 305.239011 126.722827 
L 309.80892 127.91593 
L 314.322035 129.372265 
L 318.713863 131.071844 
L 323.002567 133.011123 
L 327.151444 135.170672 
L 331.169064 137.548541 
L 335.006325 140.109839 
L 338.716489 142.875514 
L 342.239921 145.802286 
L 345.603754 148.89256 
L 348.81481 152.147573 
L 351.838088 155.525954 
L 354.71186 159.052444 
L 357.422402 162.714443 
L 359.944469 166.47013 
L 362.324982 170.374978 
L 364.538594 174.417423 
L 366.557155 178.56728 
L 368.38607 182.852176 
L 369.998355 187.258149 
L 371.368397 191.756216 
L 372.491445 196.379422 
L 373.332666 201.092403 
L 373.871376 205.884325 
L 374.086818 210.741833 
L 373.965092 215.574006 
L 373.522904 220.345246 
L 372.777093 225.064659 
L 371.74365 229.705131 
L 370.444076 234.241825 
L 368.877294 238.72163 
L 367.079445 243.049608 
L 365.034599 247.30876 
L 362.777967 251.413429 
L 360.308421 255.393315 
L 357.638803 259.227683 
L 354.771038 262.918199 
L 351.716559 266.446974 
L 348.492786 269.797052 
L 345.091802 272.979155 
L 341.527672 275.973586 
L 337.80727 278.771503 
L 333.937491 281.363621 
L 329.913486 283.746412 
L 325.765635 285.892822 
L 321.548487 287.780151 
L 317.273968 289.423362 
L 312.972811 290.829935 
L 308.627184 292.026725 
L 304.292534 293.012183 
L 299.934567 293.817228 
L 295.591994 294.44499 
L 291.258645 294.913939 
L 286.956322 295.234467 
L 282.677218 295.422578 
L 278.388314 295.488 
L 274.10509 295.426057 
L 269.847311 295.237698 
L 265.568048 294.923113 
L 261.324483 294.478203 
L 257.075877 293.902058 
L 252.857522 293.193469 
L 248.647295 292.34827 
L 244.46017 291.363807 
L 240.315407 290.24283 
L 236.229954 288.992771 
L 232.192745 287.618215 
L 228.212135 286.125778 
L 220.47255 282.84195 
L 212.965558 279.193394 
L 205.708025 275.242754 
L 198.719323 271.063314 
L 192.068331 266.802763 
L 170.381487 252.596337 
L 160.718008 246.896424 
L 153.852978 242.845151 
L 146.797993 238.390182 
L 143.253586 235.949439 
L 139.711591 233.325802 
L 136.221582 230.509801 
L 132.850153 227.5245 
L 129.632037 224.40145 
L 126.539297 221.121597 
L 123.615371 217.729741 
L 120.830888 214.205396 
L 118.207052 210.573124 
L 115.74539 206.841287 
L 113.431076 202.990417 
L 111.289113 199.048312 
L 109.336941 195.052771 
L 107.550676 190.974179 
L 105.954257 186.864307 
L 104.534853 182.728937 
L 103.277058 178.556942 
L 102.177493 174.357884 
L 101.23534 170.168276 
L 100.423176 165.927856 
L 99.757964 161.71815 
L 99.211282 157.486051 
L 98.784156 153.247408 
L 98.468794 148.947222 
L 98.279868 144.597549 
L 98.233182 140.198362 
L 98.346103 135.747064 
L 98.641598 131.250577 
L 99.13975 126.7422 
L 99.862076 122.199452 
L 100.830676 117.665158 
L 102.061433 113.154952 
L 103.588207 108.641629 
L 105.381779 104.28123 
L 107.426561 100.058229 
L 109.716884 95.960519 
L 112.221899 92.029488 
L 114.945486 88.234265 
L 117.859675 84.606979 
L 120.958039 81.140075 
L 124.223011 77.843344 
L 127.657977 74.708327 
L 131.228424 71.763841 
L 134.953223 68.98586 
L 138.810598 66.397704 
L 142.779911 64.012391 
L 146.874796 61.820726 
L 151.063072 59.846648 
L 155.352723 58.087312 
L 159.733239 56.555123 
L 164.207 55.258061 
L 168.740318 54.217154 
L 172.441633 53.568 
L 172.441633 53.568 
" style="fill:none;stroke:#ffffff;stroke-linecap:square;"/>
   </g>
   <g id="line2d_15">
    <path clip-path="url(#p340baf5164)" d="M 242.076373 221.911763 
L 241.253936 219.074414 
L 240.616299 216.201116 
L 240.162149 213.308219 
L 239.888587 210.382408 
L 239.79211 207.441547 
L 239.872291 204.481966 
L 240.11955 201.558372 
L 240.549719 198.601506 
L 241.14066 195.681817 
L 241.895358 192.796105 
L 242.812311 189.950745 
L 243.898131 187.132452 
L 245.125521 184.391802 
L 246.509245 181.709266 
L 248.032162 179.110257 
L 249.687242 176.607671 
L 251.491812 174.184609 
L 253.404586 171.886645 
L 255.444455 169.699989 
L 257.611242 167.62809 
L 259.879242 165.692096 
L 262.288643 163.870535 
L 264.750093 162.214352 
L 267.308611 160.707124 
L 269.932264 159.364436 
L 272.596724 158.1951 
L 275.294779 157.204995 
L 277.987305 156.404829 
L 280.719592 155.790857 
L 283.438011 155.368282 
L 286.202956 155.139174 
L 289.046971 155.106856 
L 291.908603 155.262345 
L 294.806168 155.611346 
L 297.718887 156.146805 
L 300.635125 156.866997 
L 303.501864 157.749134 
L 306.338042 158.805612 
L 309.110308 160.017196 
L 311.809814 161.38054 
L 314.420395 162.882409 
L 316.968379 164.542509 
L 319.408092 166.317114 
L 321.783988 168.249505 
L 324.068932 170.306907 
L 326.256102 172.480489 
L 328.365314 174.796441 
L 330.365891 177.20724 
L 332.263961 179.725489 
L 334.069586 182.370231 
L 335.743437 185.063214 
L 337.280491 187.808413 
L 338.678528 190.613232 
L 339.916961 193.42727 
L 340.9924 196.256894 
L 341.90009 199.100718 
L 342.629599 201.910513 
L 343.177795 204.698865 
L 343.542585 207.461422 
L 343.72195 210.196356 
L 343.707012 212.971811 
L 343.49625 215.793012 
L 343.095602 218.635672 
L 342.504263 221.496533 
L 341.723507 224.370062 
L 340.777191 227.201778 
L 339.636766 230.041065 
L 338.356121 232.79733 
L 336.900049 235.518267 
L 335.307639 238.151397 
L 333.573641 240.702273 
L 331.718907 243.14645 
L 329.739596 245.486633 
L 327.641068 247.717 
L 325.446422 249.819236 
L 323.156779 251.790263 
L 320.78045 253.623735 
L 318.325725 255.313754 
L 315.812637 256.848663 
L 313.225993 258.232739 
L 310.526426 259.481088 
L 307.724789 260.593933 
L 304.805533 261.57898 
L 301.80927 262.43215 
L 298.695734 263.162583 
L 295.521998 263.769732 
L 292.264537 264.258059 
L 288.952296 264.631872 
L 282.166621 265.057103 
L 275.402017 265.083994 
L 268.685842 264.713807 
L 262.053869 263.943046 
L 255.540525 262.771147 
L 249.150668 261.18666 
L 242.809728 259.164701 
L 236.515781 256.721281 
L 230.268883 253.895172 
L 224.092912 250.725671 
L 217.993771 247.250622 
L 211.884928 243.457344 
L 202.562098 237.317854 
L 192.828793 230.862202 
L 186.042227 226.575883 
L 176.026097 220.666952 
L 166.796098 215.154043 
L 161.260602 211.493965 
L 158.698274 209.622877 
L 156.27377 207.701194 
L 153.928091 205.660298 
L 151.656871 203.491416 
L 149.480456 201.221195 
L 147.385778 198.82761 
L 145.394615 196.346333 
L 143.508541 193.77558 
L 141.726028 191.114581 
L 140.069495 188.405581 
L 138.536715 185.635967 
L 137.117844 182.783125 
L 135.829169 179.899448 
L 134.654347 176.933164 
L 133.591022 173.893676 
L 132.639416 170.799704 
L 131.795317 167.641687 
L 130.413955 161.144973 
L 129.424041 154.401894 
L 128.807482 147.57362 
L 128.59514 140.887046 
L 128.656845 137.639608 
L 128.839674 134.475321 
L 129.153913 131.376071 
L 129.593231 128.394709 
L 130.173489 125.496002 
L 130.893989 122.694687 
L 131.74365 120.025559 
L 132.789651 117.36295 
L 134.017211 114.729976 
L 135.409223 112.153929 
L 136.981349 109.6162 
L 138.706933 107.147658 
L 140.591167 104.746545 
L 142.625294 102.420415 
L 144.788918 100.189849 
L 147.071061 98.063304 
L 149.483459 96.03474 
L 151.976869 94.135776 
L 154.557885 92.365872 
L 157.224367 90.72719 
L 159.939902 89.236521 
L 162.713895 87.892702 
L 165.515585 86.70617 
L 168.340296 85.679706 
L 171.162872 84.820514 
L 173.986631 84.130345 
L 177.687947 83.481191 
L 177.687947 83.481191 
" style="fill:none;stroke:#ffffff;stroke-linecap:square;"/>
   </g>
   <g id="patch_3">
    <path d="M 57.6 307.584 
L 57.6 41.472 
" style="fill:none;stroke:#000000;stroke-linecap:square;stroke-linejoin:miter;stroke-width:0.8;"/>
   </g>
   <g id="patch_4">
    <path d="M 414.72 307.584 
L 414.72 41.472 
" style="fill:none;stroke:#000000;stroke-linecap:square;stroke-linejoin:miter;stroke-width:0.8;"/>
   </g>
   <g id="patch_5">
    <path d="M 57.6 307.584 
L 414.72 307.584 
" style="fill:none;stroke:#000000;stroke-linecap:square;stroke-linejoin:miter;stroke-width:0.8;"/>
   </g>
   <g id="patch_6">
    <path d="M 57.6 41.472 
L 414.72 41.472 
" style="fill:none;stroke:#000000;stroke-linecap:square;stroke-linejoin:miter;stroke-width:0.8;"/>
   </g>
  </g>
 </g>
 <defs>
  <clipPath id="p340baf5164">
   <rect height="266.112" width="357.12" x="57.6" y="41.472"/>
  </clipPath>
 </defs>
</svg>
