<?xml version="1.0" encoding="utf-8" standalone="no"?>
<!DOCTYPE svg PUBLIC "-//W3C//DTD SVG 1.1//EN"
  "http://www.w3.org/Graphics/SVG/1.1/DTD/svg11.dtd">
<!-- Created with matplotlib (https://matplotlib.org/) -->
<svg height="345.6pt" version="1.1" viewBox="0 0 460.8 345.6" width="460.8pt" xmlns="http://www.w3.org/2000/svg" xmlns:xlink="http://www.w3.org/1999/xlink">
 <metadata>
  <rdf:RDF xmlns:cc="http://creativecommons.org/ns#" xmlns:dc="http://purl.org/dc/elements/1.1/" xmlns:rdf="http://www.w3.org/1999/02/22-rdf-syntax-ns#">
   <cc:Work>
    <dc:type rdf:resource="http://purl.org/dc/dcmitype/StillImage"/>
    <dc:date>2021-01-23T13:16:46.710865</dc:date>
    <dc:format>image/svg+xml</dc:format>
    <dc:creator>
     <cc:Agent>
      <dc:title>Matplotlib v3.3.3, https://matplotlib.org/</dc:title>
     </cc:Agent>
    </dc:creator>
   </cc:Work>
  </rdf:RDF>
 </metadata>
 <defs>
  <style type="text/css">*{stroke-linecap:butt;stroke-linejoin:round;}</style>
 </defs>
 <g id="figure_1">
  <g id="patch_1">
   <path d="M 0 345.6 
L 460.8 345.6 
L 460.8 0 
L 0 0 
z
" style="fill:#ffffff;"/>
  </g>
  <g id="axes_1">
   <g id="patch_2">
    <path d="M 57.6 307.584 
L 414.72 307.584 
L 414.72 41.472 
L 57.6 41.472 
z
" style="fill:#7d9051;"/>
   </g>
   <g id="matplotlib.axis_1">
    <g id="xtick_1">
     <g id="line2d_1">
      <defs>
       <path d="M 0 0 
L 0 3.5 
" id="md79b5cc2c9" style="stroke:#000000;stroke-width:0.8;"/>
      </defs>
      <g>
       <use style="stroke:#000000;stroke-width:0.8;" x="60.476129" xlink:href="#md79b5cc2c9" y="307.584"/>
      </g>
     </g>
     <g id="text_1">
      <!-- 0 -->
      <g transform="translate(57.294879 322.182437)scale(0.1 -0.1)">
       <defs>
        <path d="M 31.78125 66.40625 
Q 24.171875 66.40625 20.328125 58.90625 
Q 16.5 51.421875 16.5 36.375 
Q 16.5 21.390625 20.328125 13.890625 
Q 24.171875 6.390625 31.78125 6.390625 
Q 39.453125 6.390625 43.28125 13.890625 
Q 47.125 21.390625 47.125 36.375 
Q 47.125 51.421875 43.28125 58.90625 
Q 39.453125 66.40625 31.78125 66.40625 
z
M 31.78125 74.21875 
Q 44.046875 74.21875 50.515625 64.515625 
Q 56.984375 54.828125 56.984375 36.375 
Q 56.984375 17.96875 50.515625 8.265625 
Q 44.046875 -1.421875 31.78125 -1.421875 
Q 19.53125 -1.421875 13.0625 8.265625 
Q 6.59375 17.96875 6.59375 36.375 
Q 6.59375 54.828125 13.0625 64.515625 
Q 19.53125 74.21875 31.78125 74.21875 
z
" id="DejaVuSans-48"/>
       </defs>
       <use xlink:href="#DejaVuSans-48"/>
      </g>
     </g>
    </g>
    <g id="xtick_2">
     <g id="line2d_2">
      <g>
       <use style="stroke:#000000;stroke-width:0.8;" x="105.515535" xlink:href="#md79b5cc2c9" y="307.584"/>
      </g>
     </g>
     <g id="text_2">
      <!-- 20 -->
      <g transform="translate(99.153035 322.182437)scale(0.1 -0.1)">
       <defs>
        <path d="M 19.1875 8.296875 
L 53.609375 8.296875 
L 53.609375 0 
L 7.328125 0 
L 7.328125 8.296875 
Q 12.9375 14.109375 22.625 23.890625 
Q 32.328125 33.6875 34.8125 36.53125 
Q 39.546875 41.84375 41.421875 45.53125 
Q 43.3125 49.21875 43.3125 52.78125 
Q 43.3125 58.59375 39.234375 62.25 
Q 35.15625 65.921875 28.609375 65.921875 
Q 23.96875 65.921875 18.8125 64.3125 
Q 13.671875 62.703125 7.8125 59.421875 
L 7.8125 69.390625 
Q 13.765625 71.78125 18.9375 73 
Q 24.125 74.21875 28.421875 74.21875 
Q 39.75 74.21875 46.484375 68.546875 
Q 53.21875 62.890625 53.21875 53.421875 
Q 53.21875 48.921875 51.53125 44.890625 
Q 49.859375 40.875 45.40625 35.40625 
Q 44.1875 33.984375 37.640625 27.21875 
Q 31.109375 20.453125 19.1875 8.296875 
z
" id="DejaVuSans-50"/>
       </defs>
       <use xlink:href="#DejaVuSans-50"/>
       <use x="63.623047" xlink:href="#DejaVuSans-48"/>
      </g>
     </g>
    </g>
    <g id="xtick_3">
     <g id="line2d_3">
      <g>
       <use style="stroke:#000000;stroke-width:0.8;" x="150.554941" xlink:href="#md79b5cc2c9" y="307.584"/>
      </g>
     </g>
     <g id="text_3">
      <!-- 40 -->
      <g transform="translate(144.192441 322.182437)scale(0.1 -0.1)">
       <defs>
        <path d="M 37.796875 64.3125 
L 12.890625 25.390625 
L 37.796875 25.390625 
z
M 35.203125 72.90625 
L 47.609375 72.90625 
L 47.609375 25.390625 
L 58.015625 25.390625 
L 58.015625 17.1875 
L 47.609375 17.1875 
L 47.609375 0 
L 37.796875 0 
L 37.796875 17.1875 
L 4.890625 17.1875 
L 4.890625 26.703125 
z
" id="DejaVuSans-52"/>
       </defs>
       <use xlink:href="#DejaVuSans-52"/>
       <use x="63.623047" xlink:href="#DejaVuSans-48"/>
      </g>
     </g>
    </g>
    <g id="xtick_4">
     <g id="line2d_4">
      <g>
       <use style="stroke:#000000;stroke-width:0.8;" x="195.594347" xlink:href="#md79b5cc2c9" y="307.584"/>
      </g>
     </g>
     <g id="text_4">
      <!-- 60 -->
      <g transform="translate(189.231847 322.182437)scale(0.1 -0.1)">
       <defs>
        <path d="M 33.015625 40.375 
Q 26.375 40.375 22.484375 35.828125 
Q 18.609375 31.296875 18.609375 23.390625 
Q 18.609375 15.53125 22.484375 10.953125 
Q 26.375 6.390625 33.015625 6.390625 
Q 39.65625 6.390625 43.53125 10.953125 
Q 47.40625 15.53125 47.40625 23.390625 
Q 47.40625 31.296875 43.53125 35.828125 
Q 39.65625 40.375 33.015625 40.375 
z
M 52.59375 71.296875 
L 52.59375 62.3125 
Q 48.875 64.0625 45.09375 64.984375 
Q 41.3125 65.921875 37.59375 65.921875 
Q 27.828125 65.921875 22.671875 59.328125 
Q 17.53125 52.734375 16.796875 39.40625 
Q 19.671875 43.65625 24.015625 45.921875 
Q 28.375 48.1875 33.59375 48.1875 
Q 44.578125 48.1875 50.953125 41.515625 
Q 57.328125 34.859375 57.328125 23.390625 
Q 57.328125 12.15625 50.6875 5.359375 
Q 44.046875 -1.421875 33.015625 -1.421875 
Q 20.359375 -1.421875 13.671875 8.265625 
Q 6.984375 17.96875 6.984375 36.375 
Q 6.984375 53.65625 15.1875 63.9375 
Q 23.390625 74.21875 37.203125 74.21875 
Q 40.921875 74.21875 44.703125 73.484375 
Q 48.484375 72.75 52.59375 71.296875 
z
" id="DejaVuSans-54"/>
       </defs>
       <use xlink:href="#DejaVuSans-54"/>
       <use x="63.623047" xlink:href="#DejaVuSans-48"/>
      </g>
     </g>
    </g>
    <g id="xtick_5">
     <g id="line2d_5">
      <g>
       <use style="stroke:#000000;stroke-width:0.8;" x="240.633754" xlink:href="#md79b5cc2c9" y="307.584"/>
      </g>
     </g>
     <g id="text_5">
      <!-- 80 -->
      <g transform="translate(234.271254 322.182437)scale(0.1 -0.1)">
       <defs>
        <path d="M 31.78125 34.625 
Q 24.75 34.625 20.71875 30.859375 
Q 16.703125 27.09375 16.703125 20.515625 
Q 16.703125 13.921875 20.71875 10.15625 
Q 24.75 6.390625 31.78125 6.390625 
Q 38.8125 6.390625 42.859375 10.171875 
Q 46.921875 13.96875 46.921875 20.515625 
Q 46.921875 27.09375 42.890625 30.859375 
Q 38.875 34.625 31.78125 34.625 
z
M 21.921875 38.8125 
Q 15.578125 40.375 12.03125 44.71875 
Q 8.5 49.078125 8.5 55.328125 
Q 8.5 64.0625 14.71875 69.140625 
Q 20.953125 74.21875 31.78125 74.21875 
Q 42.671875 74.21875 48.875 69.140625 
Q 55.078125 64.0625 55.078125 55.328125 
Q 55.078125 49.078125 51.53125 44.71875 
Q 48 40.375 41.703125 38.8125 
Q 48.828125 37.15625 52.796875 32.3125 
Q 56.78125 27.484375 56.78125 20.515625 
Q 56.78125 9.90625 50.3125 4.234375 
Q 43.84375 -1.421875 31.78125 -1.421875 
Q 19.734375 -1.421875 13.25 4.234375 
Q 6.78125 9.90625 6.78125 20.515625 
Q 6.78125 27.484375 10.78125 32.3125 
Q 14.796875 37.15625 21.921875 38.8125 
z
M 18.3125 54.390625 
Q 18.3125 48.734375 21.84375 45.5625 
Q 25.390625 42.390625 31.78125 42.390625 
Q 38.140625 42.390625 41.71875 45.5625 
Q 45.3125 48.734375 45.3125 54.390625 
Q 45.3125 60.0625 41.71875 63.234375 
Q 38.140625 66.40625 31.78125 66.40625 
Q 25.390625 66.40625 21.84375 63.234375 
Q 18.3125 60.0625 18.3125 54.390625 
z
" id="DejaVuSans-56"/>
       </defs>
       <use xlink:href="#DejaVuSans-56"/>
       <use x="63.623047" xlink:href="#DejaVuSans-48"/>
      </g>
     </g>
    </g>
    <g id="xtick_6">
     <g id="line2d_6">
      <g>
       <use style="stroke:#000000;stroke-width:0.8;" x="285.67316" xlink:href="#md79b5cc2c9" y="307.584"/>
      </g>
     </g>
     <g id="text_6">
      <!-- 100 -->
      <g transform="translate(276.12941 322.182437)scale(0.1 -0.1)">
       <defs>
        <path d="M 12.40625 8.296875 
L 28.515625 8.296875 
L 28.515625 63.921875 
L 10.984375 60.40625 
L 10.984375 69.390625 
L 28.421875 72.90625 
L 38.28125 72.90625 
L 38.28125 8.296875 
L 54.390625 8.296875 
L 54.390625 0 
L 12.40625 0 
z
" id="DejaVuSans-49"/>
       </defs>
       <use xlink:href="#DejaVuSans-49"/>
       <use x="63.623047" xlink:href="#DejaVuSans-48"/>
       <use x="127.246094" xlink:href="#DejaVuSans-48"/>
      </g>
     </g>
    </g>
    <g id="xtick_7">
     <g id="line2d_7">
      <g>
       <use style="stroke:#000000;stroke-width:0.8;" x="330.712566" xlink:href="#md79b5cc2c9" y="307.584"/>
      </g>
     </g>
     <g id="text_7">
      <!-- 120 -->
      <g transform="translate(321.168816 322.182437)scale(0.1 -0.1)">
       <use xlink:href="#DejaVuSans-49"/>
       <use x="63.623047" xlink:href="#DejaVuSans-50"/>
       <use x="127.246094" xlink:href="#DejaVuSans-48"/>
      </g>
     </g>
    </g>
    <g id="xtick_8">
     <g id="line2d_8">
      <g>
       <use style="stroke:#000000;stroke-width:0.8;" x="375.751972" xlink:href="#md79b5cc2c9" y="307.584"/>
      </g>
     </g>
     <g id="text_8">
      <!-- 140 -->
      <g transform="translate(366.208222 322.182437)scale(0.1 -0.1)">
       <use xlink:href="#DejaVuSans-49"/>
       <use x="63.623047" xlink:href="#DejaVuSans-52"/>
       <use x="127.246094" xlink:href="#DejaVuSans-48"/>
      </g>
     </g>
    </g>
   </g>
   <g id="matplotlib.axis_2">
    <g id="ytick_1">
     <g id="line2d_9">
      <defs>
       <path d="M 0 0 
L -3.5 0 
" id="m2104796949" style="stroke:#000000;stroke-width:0.8;"/>
      </defs>
      <g>
       <use style="stroke:#000000;stroke-width:0.8;" x="57.6" xlink:href="#m2104796949" y="284.637459"/>
      </g>
     </g>
     <g id="text_9">
      <!-- 0 -->
      <g transform="translate(44.2375 288.436678)scale(0.1 -0.1)">
       <use xlink:href="#DejaVuSans-48"/>
      </g>
     </g>
    </g>
    <g id="ytick_2">
     <g id="line2d_10">
      <g>
       <use style="stroke:#000000;stroke-width:0.8;" x="57.6" xlink:href="#m2104796949" y="239.598053"/>
      </g>
     </g>
     <g id="text_10">
      <!-- 20 -->
      <g transform="translate(37.875 243.397272)scale(0.1 -0.1)">
       <use xlink:href="#DejaVuSans-50"/>
       <use x="63.623047" xlink:href="#DejaVuSans-48"/>
      </g>
     </g>
    </g>
    <g id="ytick_3">
     <g id="line2d_11">
      <g>
       <use style="stroke:#000000;stroke-width:0.8;" x="57.6" xlink:href="#m2104796949" y="194.558647"/>
      </g>
     </g>
     <g id="text_11">
      <!-- 40 -->
      <g transform="translate(37.875 198.357865)scale(0.1 -0.1)">
       <use xlink:href="#DejaVuSans-52"/>
       <use x="63.623047" xlink:href="#DejaVuSans-48"/>
      </g>
     </g>
    </g>
    <g id="ytick_4">
     <g id="line2d_12">
      <g>
       <use style="stroke:#000000;stroke-width:0.8;" x="57.6" xlink:href="#m2104796949" y="149.519241"/>
      </g>
     </g>
     <g id="text_12">
      <!-- 60 -->
      <g transform="translate(37.875 153.318459)scale(0.1 -0.1)">
       <use xlink:href="#DejaVuSans-54"/>
       <use x="63.623047" xlink:href="#DejaVuSans-48"/>
      </g>
     </g>
    </g>
    <g id="ytick_5">
     <g id="line2d_13">
      <g>
       <use style="stroke:#000000;stroke-width:0.8;" x="57.6" xlink:href="#m2104796949" y="104.479835"/>
      </g>
     </g>
     <g id="text_13">
      <!-- 80 -->
      <g transform="translate(37.875 108.279053)scale(0.1 -0.1)">
       <use xlink:href="#DejaVuSans-56"/>
       <use x="63.623047" xlink:href="#DejaVuSans-48"/>
      </g>
     </g>
    </g>
    <g id="ytick_6">
     <g id="line2d_14">
      <g>
       <use style="stroke:#000000;stroke-width:0.8;" x="57.6" xlink:href="#m2104796949" y="59.440428"/>
      </g>
     </g>
     <g id="text_14">
      <!-- 100 -->
      <g transform="translate(31.5125 63.239647)scale(0.1 -0.1)">
       <use xlink:href="#DejaVuSans-49"/>
       <use x="63.623047" xlink:href="#DejaVuSans-48"/>
       <use x="127.246094" xlink:href="#DejaVuSans-48"/>
      </g>
     </g>
    </g>
   </g>
   <g id="line2d_15">
    <path clip-path="url(#p44084215b8)" d="M 82.995832 262.117756 
L 82.840446 248.592422 
L 82.935029 241.843267 
L 83.257061 235.112128 
L 83.635392 230.632959 
L 84.175865 226.162798 
L 84.900999 221.703897 
L 85.837819 217.256255 
L 87.011095 212.831134 
L 88.474876 208.493839 
L 90.2742 204.316434 
L 91.319115 202.309928 
L 92.467619 200.370982 
L 93.726471 198.508603 
L 95.104677 196.731798 
L 96.602237 195.049576 
L 98.214648 193.461937 
L 99.930649 191.975637 
L 101.738981 190.586171 
L 103.628384 189.298044 
L 105.592102 188.113508 
L 107.618876 187.032562 
L 109.695192 186.055207 
L 113.962676 184.422528 
L 118.32249 183.21322 
L 122.747612 182.359724 
L 127.222277 181.783219 
L 133.982692 181.25851 
L 143.010841 180.839644 
L 149.769004 180.722541 
L 156.513655 180.893691 
L 161.004084 181.215723 
L 165.483253 181.722416 
L 169.942154 182.411519 
L 174.374031 183.276275 
L 178.767625 184.312182 
L 183.113928 185.516986 
L 191.711951 188.21935 
L 198.16835 190.201084 
L 202.519156 191.356345 
L 206.928514 192.297669 
L 211.387415 193.011543 
L 215.880096 193.493465 
L 220.393044 193.738929 
L 224.910497 193.743433 
L 229.421193 193.509229 
L 233.911622 193.045323 
L 238.375027 192.369732 
L 242.802401 191.493715 
L 247.186987 190.435289 
L 253.674914 188.548138 
L 260.086273 186.415522 
L 279.252792 179.821753 
L 287.859823 177.157672 
L 305.181978 172.106503 
L 309.415683 170.586423 
L 313.554804 168.825382 
L 317.585831 166.807617 
L 321.502007 164.553394 
L 325.294325 162.085235 
L 328.960533 159.432414 
L 332.491622 156.619703 
L 337.572067 152.165306 
L 344.129805 145.988151 
L 352.331481 138.266145 
L 360.508385 130.523871 
L 365.244278 125.711411 
L 369.779747 120.703029 
L 374.117041 115.518993 
L 378.265171 110.172815 
L 382.226386 104.689268 
L 386.009697 99.081862 
L 389.619605 93.375369 
L 390.783874 91.454438 
L 390.783874 91.454438 
" style="fill:none;stroke:#fea952;stroke-linecap:square;"/>
   </g>
   <g id="line2d_16">
    <path clip-path="url(#p44084215b8)" d="M 73.989247 262.270562 
L 73.832727 248.538376 
L 73.932693 241.527237 
L 74.275342 234.426087 
L 74.682276 229.641174 
L 75.269633 224.813369 
L 76.065304 219.951067 
L 77.098369 215.073611 
L 78.425627 210.105026 
L 80.121738 205.122338 
L 81.140189 202.624832 
L 82.284754 200.155824 
L 83.568833 197.71917 
L 85.004694 195.326513 
L 86.6088 192.987671 
L 88.376576 190.742258 
L 90.282199 188.630928 
L 92.317153 186.653011 
L 94.442317 184.832799 
L 96.664785 183.143426 
L 98.975669 181.584798 
L 101.353099 180.165377 
L 103.782495 178.882463 
L 106.276582 177.721238 
L 108.798149 176.698027 
L 111.359512 175.798987 
L 113.923486 175.034655 
L 118.979918 173.873452 
L 123.946112 173.093765 
L 128.787791 172.591756 
L 135.792482 172.137965 
L 145.111951 171.767757 
L 152.244074 171.737747 
L 157.063211 171.902589 
L 161.92269 172.254803 
L 166.768483 172.806693 
L 171.577245 173.55328 
L 176.359494 174.48993 
L 181.098139 175.610996 
L 185.723782 176.895467 
L 194.43313 179.632319 
L 200.575069 181.520668 
L 204.517049 182.572818 
L 208.47497 183.423526 
L 212.46491 184.068337 
L 216.490006 184.506255 
L 220.51864 184.731924 
L 224.560156 184.742368 
L 228.612143 184.537754 
L 232.670462 184.123358 
L 236.720949 183.515018 
L 240.778864 182.71606 
L 244.810001 181.746684 
L 250.910258 179.975005 
L 257.124554 177.908458 
L 276.504466 171.243372 
L 285.350742 168.506289 
L 302.241602 163.592038 
L 306.020479 162.242891 
L 309.64569 160.709918 
L 313.202067 158.938402 
L 316.686802 156.940529 
L 320.1028 154.72385 
L 323.425876 152.325411 
L 326.660556 149.753802 
L 331.464446 145.544212 
L 337.906012 139.476137 
L 346.191016 131.675499 
L 354.170483 124.122861 
L 358.649141 119.57577 
L 362.946812 114.833367 
L 367.069057 109.909373 
L 371.025549 104.812797 
L 374.811128 99.574987 
L 378.444774 94.19168 
L 381.916206 88.706369 
L 383.080474 86.785438 
L 383.080474 86.785438 
" style="fill:none;stroke:#ffffff;stroke-linecap:square;"/>
   </g>
   <g id="line2d_17">
    <path clip-path="url(#p44084215b8)" d="M 92.002417 261.964949 
L 91.848165 248.646468 
L 91.937365 242.159297 
L 92.23878 235.798169 
L 92.814623 229.567213 
L 93.388594 225.475255 
L 94.134503 221.438693 
L 95.064689 217.471782 
L 96.186195 213.680897 
L 97.516556 210.133646 
L 99.069396 206.900687 
L 100.844142 204.029534 
L 101.832777 202.721338 
L 102.922275 201.468225 
L 104.112143 200.270863 
L 106.813177 198.028917 
L 109.831105 196.061638 
L 113.113802 194.389175 
L 116.56584 193.046069 
L 120.1841 192.026638 
L 124.016479 191.27779 
L 128.058068 190.752242 
L 134.475903 190.252879 
L 143.271699 189.843747 
L 149.687855 189.730057 
L 155.964099 189.884793 
L 160.085477 190.176643 
L 164.198022 190.638138 
L 168.307063 191.269758 
L 172.388569 192.062621 
L 176.437111 193.013367 
L 182.579877 194.766457 
L 198.120478 199.533281 
L 202.953948 200.689928 
L 207.849661 201.598362 
L 212.786517 202.250047 
L 217.768292 202.646948 
L 222.761894 202.777692 
L 227.750669 202.644557 
L 232.710727 202.253954 
L 237.600247 201.6242 
L 242.435797 200.772785 
L 247.204099 199.721167 
L 251.882345 198.488335 
L 258.66463 196.40331 
L 267.339662 193.418564 
L 279.915963 189.082938 
L 288.274537 186.433921 
L 296.788984 183.986513 
L 305.815802 181.369755 
L 310.4549 179.812617 
L 315.153279 177.971931 
L 319.737658 175.841001 
L 324.161367 173.451785 
L 328.425075 170.829428 
L 332.512003 168.014449 
L 336.431276 165.028914 
L 340.156264 161.926695 
L 345.39561 157.20303 
L 366.846286 136.924881 
L 371.839416 131.847051 
L 376.612681 126.57269 
L 381.165026 121.128613 
L 385.504793 115.532834 
L 389.641645 109.803549 
L 393.574619 103.972044 
L 397.323004 98.044369 
L 398.487273 96.123439 
L 398.487273 96.123439 
" style="fill:none;stroke:#ffffff;stroke-linecap:square;"/>
   </g>
   <g id="patch_3">
    <path d="M 57.6 307.584 
L 57.6 41.472 
" style="fill:none;stroke:#000000;stroke-linecap:square;stroke-linejoin:miter;stroke-width:0.8;"/>
   </g>
   <g id="patch_4">
    <path d="M 414.72 307.584 
L 414.72 41.472 
" style="fill:none;stroke:#000000;stroke-linecap:square;stroke-linejoin:miter;stroke-width:0.8;"/>
   </g>
   <g id="patch_5">
    <path d="M 57.6 307.584 
L 414.72 307.584 
" style="fill:none;stroke:#000000;stroke-linecap:square;stroke-linejoin:miter;stroke-width:0.8;"/>
   </g>
   <g id="patch_6">
    <path d="M 57.6 41.472 
L 414.72 41.472 
" style="fill:none;stroke:#000000;stroke-linecap:square;stroke-linejoin:miter;stroke-width:0.8;"/>
   </g>
  </g>
 </g>
 <defs>
  <clipPath id="p44084215b8">
   <rect height="266.112" width="357.12" x="57.6" y="41.472"/>
  </clipPath>
 </defs>
</svg>
