<?xml version="1.0" encoding="utf-8" standalone="no"?>
<!DOCTYPE svg PUBLIC "-//W3C//DTD SVG 1.1//EN"
  "http://www.w3.org/Graphics/SVG/1.1/DTD/svg11.dtd">
<!-- Created with matplotlib (https://matplotlib.org/) -->
<svg height="345.6pt" version="1.1" viewBox="0 0 460.8 345.6" width="460.8pt" xmlns="http://www.w3.org/2000/svg" xmlns:xlink="http://www.w3.org/1999/xlink">
 <metadata>
  <rdf:RDF xmlns:cc="http://creativecommons.org/ns#" xmlns:dc="http://purl.org/dc/elements/1.1/" xmlns:rdf="http://www.w3.org/1999/02/22-rdf-syntax-ns#">
   <cc:Work>
    <dc:type rdf:resource="http://purl.org/dc/dcmitype/StillImage"/>
    <dc:date>2021-01-25T09:34:28.094784</dc:date>
    <dc:format>image/svg+xml</dc:format>
    <dc:creator>
     <cc:Agent>
      <dc:title>Matplotlib v3.3.3, https://matplotlib.org/</dc:title>
     </cc:Agent>
    </dc:creator>
   </cc:Work>
  </rdf:RDF>
 </metadata>
 <defs>
  <style type="text/css">*{stroke-linecap:butt;stroke-linejoin:round;}</style>
 </defs>
 <g id="figure_1">
  <g id="patch_1">
   <path d="M 0 345.6 
L 460.8 345.6 
L 460.8 0 
L 0 0 
z
" style="fill:#ffffff;"/>
  </g>
  <g id="axes_1">
   <g id="patch_2">
    <path d="M 57.6 307.584 
L 414.72 307.584 
L 414.72 41.472 
L 57.6 41.472 
z
" style="fill:#7d9051;"/>
   </g>
   <g id="matplotlib.axis_1">
    <g id="xtick_1">
     <g id="line2d_1">
      <defs>
       <path d="M 0 0 
L 0 3.5 
" id="mcb0b9171cc" style="stroke:#000000;stroke-width:0.8;"/>
      </defs>
      <g>
       <use style="stroke:#000000;stroke-width:0.8;" x="57.790047" xlink:href="#mcb0b9171cc" y="307.584"/>
      </g>
     </g>
     <g id="text_1">
      <!-- 0 -->
      <g transform="translate(54.608797 322.182437)scale(0.1 -0.1)">
       <defs>
        <path d="M 31.78125 66.40625 
Q 24.171875 66.40625 20.328125 58.90625 
Q 16.5 51.421875 16.5 36.375 
Q 16.5 21.390625 20.328125 13.890625 
Q 24.171875 6.390625 31.78125 6.390625 
Q 39.453125 6.390625 43.28125 13.890625 
Q 47.125 21.390625 47.125 36.375 
Q 47.125 51.421875 43.28125 58.90625 
Q 39.453125 66.40625 31.78125 66.40625 
z
M 31.78125 74.21875 
Q 44.046875 74.21875 50.515625 64.515625 
Q 56.984375 54.828125 56.984375 36.375 
Q 56.984375 17.96875 50.515625 8.265625 
Q 44.046875 -1.421875 31.78125 -1.421875 
Q 19.53125 -1.421875 13.0625 8.265625 
Q 6.59375 17.96875 6.59375 36.375 
Q 6.59375 54.828125 13.0625 64.515625 
Q 19.53125 74.21875 31.78125 74.21875 
z
" id="DejaVuSans-48"/>
       </defs>
       <use xlink:href="#DejaVuSans-48"/>
      </g>
     </g>
    </g>
    <g id="xtick_2">
     <g id="line2d_2">
      <g>
       <use style="stroke:#000000;stroke-width:0.8;" x="115.402845" xlink:href="#mcb0b9171cc" y="307.584"/>
      </g>
     </g>
     <g id="text_2">
      <!-- 20 -->
      <g transform="translate(109.040345 322.182437)scale(0.1 -0.1)">
       <defs>
        <path d="M 19.1875 8.296875 
L 53.609375 8.296875 
L 53.609375 0 
L 7.328125 0 
L 7.328125 8.296875 
Q 12.9375 14.109375 22.625 23.890625 
Q 32.328125 33.6875 34.8125 36.53125 
Q 39.546875 41.84375 41.421875 45.53125 
Q 43.3125 49.21875 43.3125 52.78125 
Q 43.3125 58.59375 39.234375 62.25 
Q 35.15625 65.921875 28.609375 65.921875 
Q 23.96875 65.921875 18.8125 64.3125 
Q 13.671875 62.703125 7.8125 59.421875 
L 7.8125 69.390625 
Q 13.765625 71.78125 18.9375 73 
Q 24.125 74.21875 28.421875 74.21875 
Q 39.75 74.21875 46.484375 68.546875 
Q 53.21875 62.890625 53.21875 53.421875 
Q 53.21875 48.921875 51.53125 44.890625 
Q 49.859375 40.875 45.40625 35.40625 
Q 44.1875 33.984375 37.640625 27.21875 
Q 31.109375 20.453125 19.1875 8.296875 
z
" id="DejaVuSans-50"/>
       </defs>
       <use xlink:href="#DejaVuSans-50"/>
       <use x="63.623047" xlink:href="#DejaVuSans-48"/>
      </g>
     </g>
    </g>
    <g id="xtick_3">
     <g id="line2d_3">
      <g>
       <use style="stroke:#000000;stroke-width:0.8;" x="173.015644" xlink:href="#mcb0b9171cc" y="307.584"/>
      </g>
     </g>
     <g id="text_3">
      <!-- 40 -->
      <g transform="translate(166.653144 322.182437)scale(0.1 -0.1)">
       <defs>
        <path d="M 37.796875 64.3125 
L 12.890625 25.390625 
L 37.796875 25.390625 
z
M 35.203125 72.90625 
L 47.609375 72.90625 
L 47.609375 25.390625 
L 58.015625 25.390625 
L 58.015625 17.1875 
L 47.609375 17.1875 
L 47.609375 0 
L 37.796875 0 
L 37.796875 17.1875 
L 4.890625 17.1875 
L 4.890625 26.703125 
z
" id="DejaVuSans-52"/>
       </defs>
       <use xlink:href="#DejaVuSans-52"/>
       <use x="63.623047" xlink:href="#DejaVuSans-48"/>
      </g>
     </g>
    </g>
    <g id="xtick_4">
     <g id="line2d_4">
      <g>
       <use style="stroke:#000000;stroke-width:0.8;" x="230.628442" xlink:href="#mcb0b9171cc" y="307.584"/>
      </g>
     </g>
     <g id="text_4">
      <!-- 60 -->
      <g transform="translate(224.265942 322.182437)scale(0.1 -0.1)">
       <defs>
        <path d="M 33.015625 40.375 
Q 26.375 40.375 22.484375 35.828125 
Q 18.609375 31.296875 18.609375 23.390625 
Q 18.609375 15.53125 22.484375 10.953125 
Q 26.375 6.390625 33.015625 6.390625 
Q 39.65625 6.390625 43.53125 10.953125 
Q 47.40625 15.53125 47.40625 23.390625 
Q 47.40625 31.296875 43.53125 35.828125 
Q 39.65625 40.375 33.015625 40.375 
z
M 52.59375 71.296875 
L 52.59375 62.3125 
Q 48.875 64.0625 45.09375 64.984375 
Q 41.3125 65.921875 37.59375 65.921875 
Q 27.828125 65.921875 22.671875 59.328125 
Q 17.53125 52.734375 16.796875 39.40625 
Q 19.671875 43.65625 24.015625 45.921875 
Q 28.375 48.1875 33.59375 48.1875 
Q 44.578125 48.1875 50.953125 41.515625 
Q 57.328125 34.859375 57.328125 23.390625 
Q 57.328125 12.15625 50.6875 5.359375 
Q 44.046875 -1.421875 33.015625 -1.421875 
Q 20.359375 -1.421875 13.671875 8.265625 
Q 6.984375 17.96875 6.984375 36.375 
Q 6.984375 53.65625 15.1875 63.9375 
Q 23.390625 74.21875 37.203125 74.21875 
Q 40.921875 74.21875 44.703125 73.484375 
Q 48.484375 72.75 52.59375 71.296875 
z
" id="DejaVuSans-54"/>
       </defs>
       <use xlink:href="#DejaVuSans-54"/>
       <use x="63.623047" xlink:href="#DejaVuSans-48"/>
      </g>
     </g>
    </g>
    <g id="xtick_5">
     <g id="line2d_5">
      <g>
       <use style="stroke:#000000;stroke-width:0.8;" x="288.241241" xlink:href="#mcb0b9171cc" y="307.584"/>
      </g>
     </g>
     <g id="text_5">
      <!-- 80 -->
      <g transform="translate(281.878741 322.182437)scale(0.1 -0.1)">
       <defs>
        <path d="M 31.78125 34.625 
Q 24.75 34.625 20.71875 30.859375 
Q 16.703125 27.09375 16.703125 20.515625 
Q 16.703125 13.921875 20.71875 10.15625 
Q 24.75 6.390625 31.78125 6.390625 
Q 38.8125 6.390625 42.859375 10.171875 
Q 46.921875 13.96875 46.921875 20.515625 
Q 46.921875 27.09375 42.890625 30.859375 
Q 38.875 34.625 31.78125 34.625 
z
M 21.921875 38.8125 
Q 15.578125 40.375 12.03125 44.71875 
Q 8.5 49.078125 8.5 55.328125 
Q 8.5 64.0625 14.71875 69.140625 
Q 20.953125 74.21875 31.78125 74.21875 
Q 42.671875 74.21875 48.875 69.140625 
Q 55.078125 64.0625 55.078125 55.328125 
Q 55.078125 49.078125 51.53125 44.71875 
Q 48 40.375 41.703125 38.8125 
Q 48.828125 37.15625 52.796875 32.3125 
Q 56.78125 27.484375 56.78125 20.515625 
Q 56.78125 9.90625 50.3125 4.234375 
Q 43.84375 -1.421875 31.78125 -1.421875 
Q 19.734375 -1.421875 13.25 4.234375 
Q 6.78125 9.90625 6.78125 20.515625 
Q 6.78125 27.484375 10.78125 32.3125 
Q 14.796875 37.15625 21.921875 38.8125 
z
M 18.3125 54.390625 
Q 18.3125 48.734375 21.84375 45.5625 
Q 25.390625 42.390625 31.78125 42.390625 
Q 38.140625 42.390625 41.71875 45.5625 
Q 45.3125 48.734375 45.3125 54.390625 
Q 45.3125 60.0625 41.71875 63.234375 
Q 38.140625 66.40625 31.78125 66.40625 
Q 25.390625 66.40625 21.84375 63.234375 
Q 18.3125 60.0625 18.3125 54.390625 
z
" id="DejaVuSans-56"/>
       </defs>
       <use xlink:href="#DejaVuSans-56"/>
       <use x="63.623047" xlink:href="#DejaVuSans-48"/>
      </g>
     </g>
    </g>
    <g id="xtick_6">
     <g id="line2d_6">
      <g>
       <use style="stroke:#000000;stroke-width:0.8;" x="345.854039" xlink:href="#mcb0b9171cc" y="307.584"/>
      </g>
     </g>
     <g id="text_6">
      <!-- 100 -->
      <g transform="translate(336.310289 322.182437)scale(0.1 -0.1)">
       <defs>
        <path d="M 12.40625 8.296875 
L 28.515625 8.296875 
L 28.515625 63.921875 
L 10.984375 60.40625 
L 10.984375 69.390625 
L 28.421875 72.90625 
L 38.28125 72.90625 
L 38.28125 8.296875 
L 54.390625 8.296875 
L 54.390625 0 
L 12.40625 0 
z
" id="DejaVuSans-49"/>
       </defs>
       <use xlink:href="#DejaVuSans-49"/>
       <use x="63.623047" xlink:href="#DejaVuSans-48"/>
       <use x="127.246094" xlink:href="#DejaVuSans-48"/>
      </g>
     </g>
    </g>
    <g id="xtick_7">
     <g id="line2d_7">
      <g>
       <use style="stroke:#000000;stroke-width:0.8;" x="403.466838" xlink:href="#mcb0b9171cc" y="307.584"/>
      </g>
     </g>
     <g id="text_7">
      <!-- 120 -->
      <g transform="translate(393.923088 322.182437)scale(0.1 -0.1)">
       <use xlink:href="#DejaVuSans-49"/>
       <use x="63.623047" xlink:href="#DejaVuSans-50"/>
       <use x="127.246094" xlink:href="#DejaVuSans-48"/>
      </g>
     </g>
    </g>
   </g>
   <g id="matplotlib.axis_2">
    <g id="ytick_1">
     <g id="line2d_8">
      <defs>
       <path d="M 0 0 
L -3.5 0 
" id="maa6b3873d5" style="stroke:#000000;stroke-width:0.8;"/>
      </defs>
      <g>
       <use style="stroke:#000000;stroke-width:0.8;" x="57.6" xlink:href="#maa6b3873d5" y="266.028879"/>
      </g>
     </g>
     <g id="text_8">
      <!-- 20 -->
      <g transform="translate(37.875 269.828098)scale(0.1 -0.1)">
       <use xlink:href="#DejaVuSans-50"/>
       <use x="63.623047" xlink:href="#DejaVuSans-48"/>
      </g>
     </g>
    </g>
    <g id="ytick_2">
     <g id="line2d_9">
      <g>
       <use style="stroke:#000000;stroke-width:0.8;" x="57.6" xlink:href="#maa6b3873d5" y="208.416081"/>
      </g>
     </g>
     <g id="text_9">
      <!-- 40 -->
      <g transform="translate(37.875 212.215299)scale(0.1 -0.1)">
       <use xlink:href="#DejaVuSans-52"/>
       <use x="63.623047" xlink:href="#DejaVuSans-48"/>
      </g>
     </g>
    </g>
    <g id="ytick_3">
     <g id="line2d_10">
      <g>
       <use style="stroke:#000000;stroke-width:0.8;" x="57.6" xlink:href="#maa6b3873d5" y="150.803282"/>
      </g>
     </g>
     <g id="text_10">
      <!-- 60 -->
      <g transform="translate(37.875 154.602501)scale(0.1 -0.1)">
       <use xlink:href="#DejaVuSans-54"/>
       <use x="63.623047" xlink:href="#DejaVuSans-48"/>
      </g>
     </g>
    </g>
    <g id="ytick_4">
     <g id="line2d_11">
      <g>
       <use style="stroke:#000000;stroke-width:0.8;" x="57.6" xlink:href="#maa6b3873d5" y="93.190483"/>
      </g>
     </g>
     <g id="text_11">
      <!-- 80 -->
      <g transform="translate(37.875 96.989702)scale(0.1 -0.1)">
       <use xlink:href="#DejaVuSans-56"/>
       <use x="63.623047" xlink:href="#DejaVuSans-48"/>
      </g>
     </g>
    </g>
   </g>
   <g id="line2d_12">
    <path clip-path="url(#p1e94f34803)" d="M 86.596446 294.835279 
L 86.124021 291.91719 
L 85.519086 286.086775 
L 85.352009 280.273644 
L 85.588222 274.483557 
L 86.204679 268.730919 
L 87.172574 263.021491 
L 88.4631 257.369676 
L 90.047452 251.784115 
L 91.902585 246.273451 
L 93.99681 240.849206 
L 96.304202 235.520022 
L 100.03175 227.661636 
L 106.302904 214.615218 
L 108.607416 209.306198 
L 110.736208 203.919402 
L 112.709447 198.469231 
L 115.434532 190.204675 
L 117.94645 181.876745 
L 123.719253 162.446829 
L 125.562862 156.944806 
L 127.585071 151.494636 
L 129.849254 146.139526 
L 132.415905 140.928448 
L 133.830299 138.390605 
L 135.342635 135.907493 
L 136.961554 133.481994 
L 138.6957 131.125631 
L 140.54507 128.841283 
L 142.506786 126.640474 
L 144.577966 124.540488 
L 146.75573 122.549966 
L 149.028555 120.683311 
L 151.399322 118.949166 
L 153.859388 117.361933 
L 156.405874 115.936016 
L 159.033017 114.682938 
L 161.735058 113.61134 
L 164.509114 112.726983 
L 167.340783 112.029869 
L 170.218542 111.508473 
L 173.130869 111.157035 
L 176.069122 110.975554 
L 179.016017 110.95539 
L 181.962911 111.087899 
L 184.901164 111.373083 
L 187.813491 111.799417 
L 190.694131 112.366903 
L 193.531561 113.064018 
L 196.328663 113.885001 
L 199.085435 114.824089 
L 204.475112 117.019137 
L 209.697713 119.585787 
L 214.753236 122.457785 
L 219.647443 125.580399 
L 224.414902 128.87297 
L 240.903685 140.669191 
L 245.760444 143.829253 
L 250.718025 146.83376 
L 255.773548 149.679832 
L 260.918371 152.361708 
L 266.152494 154.873626 
L 271.470155 157.201183 
L 276.877116 159.306931 
L 282.376258 161.159183 
L 287.973341 162.714728 
L 293.668367 163.939 
L 299.44693 164.797431 
L 305.274465 165.264094 
L 311.101999 165.307304 
L 314.005684 165.157511 
L 316.892086 164.892492 
L 319.761203 164.506486 
L 322.604395 163.996613 
L 325.42166 163.368633 
L 330.981296 161.790043 
L 336.451631 159.845611 
L 341.838427 157.604473 
L 347.156089 155.144406 
L 352.398853 152.520143 
L 357.517751 149.691355 
L 362.437884 146.591786 
L 364.802889 144.915254 
L 367.092998 143.14366 
L 369.296687 141.268364 
L 371.405316 139.280722 
L 373.413122 137.172094 
L 375.311463 134.94824 
L 377.091699 132.617802 
L 378.745186 130.189423 
L 380.269045 127.674624 
L 381.654633 125.076287 
L 382.893308 122.408814 
L 383.976428 119.677968 
L 384.901114 116.895269 
L 385.658722 114.069362 
L 386.240611 111.208886 
L 386.649662 108.319604 
L 386.891636 105.413039 
L 386.969413 102.49207 
L 386.885875 99.56822 
L 386.649662 96.647251 
L 386.257895 93.737805 
L 385.722096 90.845643 
L 385.042265 87.979406 
L 384.221283 85.144856 
L 383.267791 82.353516 
L 382.18467 79.611147 
L 380.971921 76.92351 
L 379.638185 74.299247 
L 378.186342 71.74988 
L 376.619274 69.275411 
L 374.942742 66.890241 
L 373.159625 64.597251 
L 371.275687 62.405084 
L 369.293807 60.322382 
L 369.293807 60.322382 
" style="fill:none;stroke:#fea952;stroke-linecap:square;"/>
   </g>
   <g id="line2d_13">
    <path clip-path="url(#p1e94f34803)" d="M 75.221985 296.676751 
L 74.686996 293.318565 
L 74.285644 289.977656 
L 74.008982 286.622394 
L 73.861823 283.303063 
L 73.832727 279.99883 
L 74.113077 273.439319 
L 74.816505 266.976246 
L 75.90428 260.614226 
L 77.3405 254.360165 
L 79.085754 248.232981 
L 81.110865 242.235112 
L 83.380656 236.369623 
L 85.842856 230.689947 
L 89.682476 222.595878 
L 95.773455 209.935463 
L 97.925667 204.985362 
L 99.929975 199.920064 
L 101.803624 194.750036 
L 104.427963 186.795156 
L 106.883381 178.655271 
L 111.859225 161.737913 
L 114.722742 153.038251 
L 116.914412 147.146485 
L 119.431466 141.216207 
L 122.350929 135.319024 
L 123.989288 132.39695 
L 125.758789 129.510674 
L 127.68126 126.652242 
L 129.740112 123.875332 
L 131.94357 121.174239 
L 134.303033 118.549256 
L 136.804124 116.035386 
L 139.442629 113.645588 
L 142.225804 111.383205 
L 145.152374 109.266964 
L 148.229773 107.308236 
L 151.4453 105.535916 
L 154.785165 103.971956 
L 158.235259 102.633144 
L 161.754673 101.538488 
L 165.286556 100.6919 
L 168.8381 100.068903 
L 172.420535 99.656391 
L 175.990279 99.453264 
L 179.533615 99.444461 
L 183.076047 99.619233 
L 186.57016 99.972037 
L 190.04063 100.494143 
L 193.443298 101.177111 
L 196.776675 102.007861 
L 200.04414 102.977911 
L 203.234776 104.074561 
L 206.343591 105.28292 
L 209.394022 106.599266 
L 215.252839 109.490741 
L 220.843737 112.676417 
L 226.120738 116.048042 
L 231.13067 119.50986 
L 247.266121 131.062485 
L 251.804496 134.019115 
L 256.44836 136.837128 
L 261.18583 139.507488 
L 265.993542 142.017047 
L 270.875714 144.363604 
L 275.769233 146.510659 
L 280.685127 148.431802 
L 285.612674 150.100476 
L 290.563465 151.487055 
L 295.55529 152.571991 
L 300.570982 153.329829 
L 305.570401 153.745336 
L 310.508371 153.800046 
L 315.355704 153.47282 
L 320.097495 152.750065 
L 324.863095 151.60633 
L 329.70824 150.060401 
L 334.609228 148.168177 
L 339.580552 145.980656 
L 344.545548 143.593487 
L 349.277362 141.123286 
L 353.707688 138.530558 
L 357.752556 135.801408 
L 361.393103 132.883691 
L 363.06058 131.334983 
L 364.649335 129.691089 
L 366.154895 127.953482 
L 367.567383 126.132681 
L 368.890663 124.218011 
L 370.101768 122.252828 
L 371.203875 120.223343 
L 372.182458 118.160629 
L 373.041777 116.044403 
L 373.771578 113.91151 
L 374.367419 111.77244 
L 374.831821 109.593684 
L 375.166826 107.36365 
L 375.373159 105.106334 
L 375.451554 102.821151 
L 375.400808 100.496993 
L 375.230164 98.184926 
L 374.928119 95.836748 
L 374.510585 93.504855 
L 373.97458 91.184985 
L 373.31733 88.869529 
L 372.550831 86.586265 
L 371.68185 84.350361 
L 369.625457 80.00141 
L 367.19248 75.901491 
L 365.846768 73.963617 
L 364.42078 72.107376 
L 362.92847 70.348217 
L 360.94659 68.265515 
L 360.94659 68.265515 
" style="fill:none;stroke:#ffffff;stroke-linecap:square;"/>
   </g>
   <g id="line2d_14">
    <path clip-path="url(#p1e94f34803)" d="M 97.970907 292.993806 
L 97.247999 288.026309 
L 96.90557 283.051594 
L 96.924526 278.040258 
L 97.28622 273.013761 
L 97.975646 267.966937 
L 98.973961 262.911738 
L 100.267018 257.848174 
L 101.820952 252.81959 
L 103.627836 247.810002 
L 105.656883 242.849663 
L 107.926903 237.833051 
L 112.943259 227.492657 
L 116.832352 219.294972 
L 119.289164 213.627035 
L 121.542442 207.918739 
L 123.61527 202.188426 
L 126.441101 193.614194 
L 129.009519 185.098219 
L 134.670937 166.028727 
L 136.402982 160.851362 
L 138.25573 155.842787 
L 140.267043 151.062845 
L 142.48088 146.537873 
L 144.92648 142.304311 
L 147.651287 138.37593 
L 150.710539 134.731693 
L 152.351809 133.045589 
L 154.068831 131.454343 
L 155.831306 129.983417 
L 157.646269 128.631367 
L 159.489003 127.41563 
L 161.366448 126.336117 
L 163.28087 125.39392 
L 165.234857 124.589536 
L 167.263555 123.915479 
L 169.39501 123.367837 
L 171.598985 122.948043 
L 173.841203 122.657678 
L 176.147965 122.497844 
L 178.498419 122.466318 
L 180.849776 122.556566 
L 183.232168 122.774128 
L 185.586352 123.104692 
L 187.944964 123.556696 
L 192.613186 124.792091 
L 197.260166 126.462365 
L 201.861092 128.52078 
L 206.419896 130.929148 
L 210.914891 133.638206 
L 215.421779 136.637371 
L 222.317598 141.568795 
L 232.013137 148.550297 
L 237.112232 151.976809 
L 242.329508 155.247886 
L 247.661249 158.361346 
L 253.094626 161.304625 
L 258.630098 164.071718 
L 264.282935 166.663675 
L 270.100157 169.066613 
L 276.069118 171.229063 
L 282.227737 173.117134 
L 288.554697 174.668744 
L 295.049949 175.841818 
L 301.641153 176.582955 
L 304.978528 176.782853 
L 308.315034 176.860869 
L 311.695628 176.814562 
L 315.059213 176.631806 
L 318.428467 176.312164 
L 321.795113 175.848117 
L 325.111294 175.243161 
L 328.364825 174.508973 
L 331.562906 173.656049 
L 337.74485 171.658791 
L 343.698114 169.34528 
L 349.431248 166.814314 
L 355.032439 164.114272 
L 360.67669 161.151587 
L 366.305559 157.82748 
L 369.101617 155.992001 
L 371.853222 154.0291 
L 374.560559 151.918905 
L 377.200272 149.653036 
L 379.750051 147.226461 
L 382.176908 144.653098 
L 384.468032 141.942998 
L 386.616014 139.102923 
L 388.599709 136.160835 
L 390.436321 133.09642 
L 392.10539 129.92923 
L 393.604158 126.656999 
L 394.911079 123.311532 
L 396.030649 119.879029 
L 396.950025 116.366283 
L 397.649402 112.824089 
L 398.132499 109.275559 
L 398.410113 105.719744 
L 398.487273 102.162988 
L 398.370942 98.639448 
L 398.06916 95.109576 
L 397.587671 91.638862 
L 396.933607 88.18643 
L 396.10995 84.773826 
L 395.125236 81.420183 
L 393.98475 78.120767 
L 392.68749 74.871932 
L 391.243963 71.702922 
L 389.650912 68.597083 
L 387.920991 65.58498 
L 386.046068 62.649331 
L 384.038715 59.816865 
L 381.89847 57.087127 
L 379.622903 54.461952 
L 377.641023 52.379249 
L 377.641023 52.379249 
" style="fill:none;stroke:#ffffff;stroke-linecap:square;"/>
   </g>
   <g id="patch_3">
    <path d="M 57.6 307.584 
L 57.6 41.472 
" style="fill:none;stroke:#000000;stroke-linecap:square;stroke-linejoin:miter;stroke-width:0.8;"/>
   </g>
   <g id="patch_4">
    <path d="M 414.72 307.584 
L 414.72 41.472 
" style="fill:none;stroke:#000000;stroke-linecap:square;stroke-linejoin:miter;stroke-width:0.8;"/>
   </g>
   <g id="patch_5">
    <path d="M 57.6 307.584 
L 414.72 307.584 
" style="fill:none;stroke:#000000;stroke-linecap:square;stroke-linejoin:miter;stroke-width:0.8;"/>
   </g>
   <g id="patch_6">
    <path d="M 57.6 41.472 
L 414.72 41.472 
" style="fill:none;stroke:#000000;stroke-linecap:square;stroke-linejoin:miter;stroke-width:0.8;"/>
   </g>
  </g>
 </g>
 <defs>
  <clipPath id="p1e94f34803">
   <rect height="266.112" width="357.12" x="57.6" y="41.472"/>
  </clipPath>
 </defs>
</svg>
