<?xml version="1.0" encoding="utf-8" standalone="no"?>
<!DOCTYPE svg PUBLIC "-//W3C//DTD SVG 1.1//EN"
  "http://www.w3.org/Graphics/SVG/1.1/DTD/svg11.dtd">
<!-- Created with matplotlib (https://matplotlib.org/) -->
<svg height="345.6pt" version="1.1" viewBox="0 0 460.8 345.6" width="460.8pt" xmlns="http://www.w3.org/2000/svg" xmlns:xlink="http://www.w3.org/1999/xlink">
 <metadata>
  <rdf:RDF xmlns:cc="http://creativecommons.org/ns#" xmlns:dc="http://purl.org/dc/elements/1.1/" xmlns:rdf="http://www.w3.org/1999/02/22-rdf-syntax-ns#">
   <cc:Work>
    <dc:type rdf:resource="http://purl.org/dc/dcmitype/StillImage"/>
    <dc:date>2021-01-25T09:18:22.934276</dc:date>
    <dc:format>image/svg+xml</dc:format>
    <dc:creator>
     <cc:Agent>
      <dc:title>Matplotlib v3.3.3, https://matplotlib.org/</dc:title>
     </cc:Agent>
    </dc:creator>
   </cc:Work>
  </rdf:RDF>
 </metadata>
 <defs>
  <style type="text/css">*{stroke-linecap:butt;stroke-linejoin:round;}</style>
 </defs>
 <g id="figure_1">
  <g id="patch_1">
   <path d="M 0 345.6 
L 460.8 345.6 
L 460.8 0 
L 0 0 
z
" style="fill:#ffffff;"/>
  </g>
  <g id="axes_1">
   <g id="patch_2">
    <path d="M 57.6 307.584 
L 414.72 307.584 
L 414.72 41.472 
L 57.6 41.472 
z
" style="fill:#7d9051;"/>
   </g>
   <g id="matplotlib.axis_1">
    <g id="xtick_1">
     <g id="line2d_1">
      <defs>
       <path d="M 0 0 
L 0 3.5 
" id="maf2856be90" style="stroke:#000000;stroke-width:0.8;"/>
      </defs>
      <g>
       <use style="stroke:#000000;stroke-width:0.8;" x="119.684223" xlink:href="#maf2856be90" y="307.584"/>
      </g>
     </g>
     <g id="text_1">
      <!-- −50 -->
      <g transform="translate(109.131879 322.182437)scale(0.1 -0.1)">
       <defs>
        <path d="M 10.59375 35.5 
L 73.1875 35.5 
L 73.1875 27.203125 
L 10.59375 27.203125 
z
" id="DejaVuSans-8722"/>
        <path d="M 10.796875 72.90625 
L 49.515625 72.90625 
L 49.515625 64.59375 
L 19.828125 64.59375 
L 19.828125 46.734375 
Q 21.96875 47.46875 24.109375 47.828125 
Q 26.265625 48.1875 28.421875 48.1875 
Q 40.625 48.1875 47.75 41.5 
Q 54.890625 34.8125 54.890625 23.390625 
Q 54.890625 11.625 47.5625 5.09375 
Q 40.234375 -1.421875 26.90625 -1.421875 
Q 22.3125 -1.421875 17.546875 -0.640625 
Q 12.796875 0.140625 7.71875 1.703125 
L 7.71875 11.625 
Q 12.109375 9.234375 16.796875 8.0625 
Q 21.484375 6.890625 26.703125 6.890625 
Q 35.15625 6.890625 40.078125 11.328125 
Q 45.015625 15.765625 45.015625 23.390625 
Q 45.015625 31 40.078125 35.4375 
Q 35.15625 39.890625 26.703125 39.890625 
Q 22.75 39.890625 18.8125 39.015625 
Q 14.890625 38.140625 10.796875 36.28125 
z
" id="DejaVuSans-53"/>
        <path d="M 31.78125 66.40625 
Q 24.171875 66.40625 20.328125 58.90625 
Q 16.5 51.421875 16.5 36.375 
Q 16.5 21.390625 20.328125 13.890625 
Q 24.171875 6.390625 31.78125 6.390625 
Q 39.453125 6.390625 43.28125 13.890625 
Q 47.125 21.390625 47.125 36.375 
Q 47.125 51.421875 43.28125 58.90625 
Q 39.453125 66.40625 31.78125 66.40625 
z
M 31.78125 74.21875 
Q 44.046875 74.21875 50.515625 64.515625 
Q 56.984375 54.828125 56.984375 36.375 
Q 56.984375 17.96875 50.515625 8.265625 
Q 44.046875 -1.421875 31.78125 -1.421875 
Q 19.53125 -1.421875 13.0625 8.265625 
Q 6.59375 17.96875 6.59375 36.375 
Q 6.59375 54.828125 13.0625 64.515625 
Q 19.53125 74.21875 31.78125 74.21875 
z
" id="DejaVuSans-48"/>
       </defs>
       <use xlink:href="#DejaVuSans-8722"/>
       <use x="83.789062" xlink:href="#DejaVuSans-53"/>
       <use x="147.412109" xlink:href="#DejaVuSans-48"/>
      </g>
     </g>
    </g>
    <g id="xtick_2">
     <g id="line2d_2">
      <g>
       <use style="stroke:#000000;stroke-width:0.8;" x="193.237315" xlink:href="#maf2856be90" y="307.584"/>
      </g>
     </g>
     <g id="text_2">
      <!-- 0 -->
      <g transform="translate(190.056065 322.182437)scale(0.1 -0.1)">
       <use xlink:href="#DejaVuSans-48"/>
      </g>
     </g>
    </g>
    <g id="xtick_3">
     <g id="line2d_3">
      <g>
       <use style="stroke:#000000;stroke-width:0.8;" x="266.790408" xlink:href="#maf2856be90" y="307.584"/>
      </g>
     </g>
     <g id="text_3">
      <!-- 50 -->
      <g transform="translate(260.427908 322.182437)scale(0.1 -0.1)">
       <use xlink:href="#DejaVuSans-53"/>
       <use x="63.623047" xlink:href="#DejaVuSans-48"/>
      </g>
     </g>
    </g>
    <g id="xtick_4">
     <g id="line2d_4">
      <g>
       <use style="stroke:#000000;stroke-width:0.8;" x="340.343501" xlink:href="#maf2856be90" y="307.584"/>
      </g>
     </g>
     <g id="text_4">
      <!-- 100 -->
      <g transform="translate(330.799751 322.182437)scale(0.1 -0.1)">
       <defs>
        <path d="M 12.40625 8.296875 
L 28.515625 8.296875 
L 28.515625 63.921875 
L 10.984375 60.40625 
L 10.984375 69.390625 
L 28.421875 72.90625 
L 38.28125 72.90625 
L 38.28125 8.296875 
L 54.390625 8.296875 
L 54.390625 0 
L 12.40625 0 
z
" id="DejaVuSans-49"/>
       </defs>
       <use xlink:href="#DejaVuSans-49"/>
       <use x="63.623047" xlink:href="#DejaVuSans-48"/>
       <use x="127.246094" xlink:href="#DejaVuSans-48"/>
      </g>
     </g>
    </g>
    <g id="xtick_5">
     <g id="line2d_5">
      <g>
       <use style="stroke:#000000;stroke-width:0.8;" x="413.896593" xlink:href="#maf2856be90" y="307.584"/>
      </g>
     </g>
     <g id="text_5">
      <!-- 150 -->
      <g transform="translate(404.352843 322.182437)scale(0.1 -0.1)">
       <use xlink:href="#DejaVuSans-49"/>
       <use x="63.623047" xlink:href="#DejaVuSans-53"/>
       <use x="127.246094" xlink:href="#DejaVuSans-48"/>
      </g>
     </g>
    </g>
   </g>
   <g id="matplotlib.axis_2">
    <g id="ytick_1">
     <g id="line2d_6">
      <defs>
       <path d="M 0 0 
L -3.5 0 
" id="m24a6dd97a9" style="stroke:#000000;stroke-width:0.8;"/>
      </defs>
      <g>
       <use style="stroke:#000000;stroke-width:0.8;" x="57.6" xlink:href="#m24a6dd97a9" y="273.222123"/>
      </g>
     </g>
     <g id="text_6">
      <!-- 25 -->
      <g transform="translate(37.875 277.021342)scale(0.1 -0.1)">
       <defs>
        <path d="M 19.1875 8.296875 
L 53.609375 8.296875 
L 53.609375 0 
L 7.328125 0 
L 7.328125 8.296875 
Q 12.9375 14.109375 22.625 23.890625 
Q 32.328125 33.6875 34.8125 36.53125 
Q 39.546875 41.84375 41.421875 45.53125 
Q 43.3125 49.21875 43.3125 52.78125 
Q 43.3125 58.59375 39.234375 62.25 
Q 35.15625 65.921875 28.609375 65.921875 
Q 23.96875 65.921875 18.8125 64.3125 
Q 13.671875 62.703125 7.8125 59.421875 
L 7.8125 69.390625 
Q 13.765625 71.78125 18.9375 73 
Q 24.125 74.21875 28.421875 74.21875 
Q 39.75 74.21875 46.484375 68.546875 
Q 53.21875 62.890625 53.21875 53.421875 
Q 53.21875 48.921875 51.53125 44.890625 
Q 49.859375 40.875 45.40625 35.40625 
Q 44.1875 33.984375 37.640625 27.21875 
Q 31.109375 20.453125 19.1875 8.296875 
z
" id="DejaVuSans-50"/>
       </defs>
       <use xlink:href="#DejaVuSans-50"/>
       <use x="63.623047" xlink:href="#DejaVuSans-53"/>
      </g>
     </g>
    </g>
    <g id="ytick_2">
     <g id="line2d_7">
      <g>
       <use style="stroke:#000000;stroke-width:0.8;" x="57.6" xlink:href="#m24a6dd97a9" y="236.445577"/>
      </g>
     </g>
     <g id="text_7">
      <!-- 50 -->
      <g transform="translate(37.875 240.244796)scale(0.1 -0.1)">
       <use xlink:href="#DejaVuSans-53"/>
       <use x="63.623047" xlink:href="#DejaVuSans-48"/>
      </g>
     </g>
    </g>
    <g id="ytick_3">
     <g id="line2d_8">
      <g>
       <use style="stroke:#000000;stroke-width:0.8;" x="57.6" xlink:href="#m24a6dd97a9" y="199.669031"/>
      </g>
     </g>
     <g id="text_8">
      <!-- 75 -->
      <g transform="translate(37.875 203.46825)scale(0.1 -0.1)">
       <defs>
        <path d="M 8.203125 72.90625 
L 55.078125 72.90625 
L 55.078125 68.703125 
L 28.609375 0 
L 18.3125 0 
L 43.21875 64.59375 
L 8.203125 64.59375 
z
" id="DejaVuSans-55"/>
       </defs>
       <use xlink:href="#DejaVuSans-55"/>
       <use x="63.623047" xlink:href="#DejaVuSans-53"/>
      </g>
     </g>
    </g>
    <g id="ytick_4">
     <g id="line2d_9">
      <g>
       <use style="stroke:#000000;stroke-width:0.8;" x="57.6" xlink:href="#m24a6dd97a9" y="162.892485"/>
      </g>
     </g>
     <g id="text_9">
      <!-- 100 -->
      <g transform="translate(31.5125 166.691703)scale(0.1 -0.1)">
       <use xlink:href="#DejaVuSans-49"/>
       <use x="63.623047" xlink:href="#DejaVuSans-48"/>
       <use x="127.246094" xlink:href="#DejaVuSans-48"/>
      </g>
     </g>
    </g>
    <g id="ytick_5">
     <g id="line2d_10">
      <g>
       <use style="stroke:#000000;stroke-width:0.8;" x="57.6" xlink:href="#m24a6dd97a9" y="126.115938"/>
      </g>
     </g>
     <g id="text_10">
      <!-- 125 -->
      <g transform="translate(31.5125 129.915157)scale(0.1 -0.1)">
       <use xlink:href="#DejaVuSans-49"/>
       <use x="63.623047" xlink:href="#DejaVuSans-50"/>
       <use x="127.246094" xlink:href="#DejaVuSans-53"/>
      </g>
     </g>
    </g>
    <g id="ytick_6">
     <g id="line2d_11">
      <g>
       <use style="stroke:#000000;stroke-width:0.8;" x="57.6" xlink:href="#m24a6dd97a9" y="89.339392"/>
      </g>
     </g>
     <g id="text_11">
      <!-- 150 -->
      <g transform="translate(31.5125 93.138611)scale(0.1 -0.1)">
       <use xlink:href="#DejaVuSans-49"/>
       <use x="63.623047" xlink:href="#DejaVuSans-53"/>
       <use x="127.246094" xlink:href="#DejaVuSans-48"/>
      </g>
     </g>
    </g>
    <g id="ytick_7">
     <g id="line2d_12">
      <g>
       <use style="stroke:#000000;stroke-width:0.8;" x="57.6" xlink:href="#m24a6dd97a9" y="52.562846"/>
      </g>
     </g>
     <g id="text_12">
      <!-- 175 -->
      <g transform="translate(31.5125 56.362064)scale(0.1 -0.1)">
       <use xlink:href="#DejaVuSans-49"/>
       <use x="63.623047" xlink:href="#DejaVuSans-55"/>
       <use x="127.246094" xlink:href="#DejaVuSans-53"/>
      </g>
     </g>
    </g>
   </g>
   <g id="line2d_13">
    <path clip-path="url(#pef3b405eae)" d="M 248.180005 295.288051 
L 248.327111 287.9298 
L 248.24326 282.047023 
L 247.957874 276.171602 
L 247.457713 270.30795 
L 246.722182 264.460479 
L 245.492375 255.707661 
L 245.143733 251.319483 
L 245.105485 248.384715 
L 245.312905 243.975943 
L 245.752752 239.570112 
L 246.772198 232.270704 
L 247.797528 226.479133 
L 249.080294 220.728752 
L 250.260086 216.45826 
L 251.681132 212.268676 
L 252.788841 209.547211 
L 254.040715 206.894887 
L 256.131094 203.023052 
L 259.713129 196.585685 
L 261.013548 193.923063 
L 262.162447 191.181004 
L 263.115696 188.371276 
L 263.833574 185.501234 
L 264.276363 182.582647 
L 264.402875 179.625813 
L 264.198397 176.655739 
L 263.673228 173.716558 
L 262.837665 170.850929 
L 261.704947 168.101515 
L 260.283901 165.512446 
L 258.60542 163.092549 
L 256.713634 160.827114 
L 254.655619 158.694074 
L 251.354556 155.703405 
L 246.770727 151.981619 
L 241.043884 147.388964 
L 237.751647 144.468906 
L 233.545881 140.351404 
L 224.362042 130.805683 
L 220.400473 126.454282 
L 217.549555 123.059072 
L 214.89723 119.503515 
L 213.296715 117.027718 
L 211.869785 114.45336 
L 210.653217 111.770143 
L 209.663192 108.985423 
L 208.896769 106.122737 
L 208.352476 103.207092 
L 208.028842 100.262026 
L 207.921455 97.312547 
L 208.014132 94.368952 
L 208.456921 89.97342 
L 209.167444 85.602895 
L 210.363418 79.821622 
L 211.429937 75.534948 
L 212.672985 71.305645 
L 214.12051 67.146953 
L 215.803404 63.073583 
L 217.746677 59.100245 
L 219.203028 56.511176 
L 219.203028 56.511176 
" style="fill:none;stroke:#fea952;stroke-linecap:square;"/>
   </g>
   <g id="line2d_14">
    <path clip-path="url(#pef3b405eae)" d="M 242.299155 295.088102 
L 242.442875 287.941568 
L 242.362621 282.253052 
L 242.088077 276.583725 
L 241.609098 270.95453 
L 240.900648 265.317277 
L 239.638865 256.308323 
L 239.349363 253.107954 
L 239.21977 249.846939 
L 239.264795 246.632723 
L 239.583542 241.914465 
L 240.302025 235.824699 
L 241.209047 229.818006 
L 242.339836 223.798011 
L 243.38294 219.257522 
L 244.648615 214.687451 
L 246.203644 210.118909 
L 247.432626 207.110959 
L 248.818468 204.183336 
L 251.0131 200.119518 
L 254.459492 193.935465 
L 256.147549 190.37149 
L 257.059221 187.996477 
L 257.768156 185.642851 
L 258.254034 183.315088 
L 258.497213 181.02109 
L 258.483846 178.703125 
L 258.211596 176.367657 
L 257.690878 174.06998 
L 256.930509 171.848043 
L 255.953225 169.760392 
L 254.72339 167.753705 
L 253.2424 165.802861 
L 251.536392 163.899364 
L 248.619734 161.120706 
L 245.398588 158.409712 
L 236.024672 150.83691 
L 232.588097 147.683303 
L 228.28974 143.392304 
L 219.030726 133.718327 
L 214.93286 129.126017 
L 211.925186 125.416508 
L 210.00666 122.775623 
L 208.20192 119.971769 
L 206.561702 116.992775 
L 205.151125 113.856133 
L 204.011118 110.622011 
L 203.134319 107.31376 
L 202.516586 103.959922 
L 202.153422 100.584208 
L 202.037959 97.218505 
L 202.146906 93.921702 
L 202.435431 90.709442 
L 203.115488 86.024344 
L 204.29943 79.980117 
L 205.365096 75.46257 
L 206.61812 70.962182 
L 208.091852 66.488831 
L 209.822463 62.066265 
L 211.841118 57.710827 
L 214.107728 53.568 
L 214.107728 53.568 
" style="fill:none;stroke:#ffffff;stroke-linecap:square;"/>
   </g>
   <g id="line2d_15">
    <path clip-path="url(#pef3b405eae)" d="M 254.060854 295.488 
L 254.211346 287.918031 
L 254.1239 281.840995 
L 253.827672 275.75948 
L 253.306328 269.661369 
L 252.543717 263.603681 
L 251.207608 253.773371 
L 250.988259 249.858731 
L 251.083536 245.845138 
L 251.433336 241.699439 
L 252.156076 236.033829 
L 253.047735 230.418229 
L 254.137568 224.915247 
L 255.121954 220.863484 
L 256.277177 216.93935 
L 257.639868 213.187173 
L 259.262961 209.606438 
L 261.249088 205.926586 
L 264.966766 199.235905 
L 266.404712 196.28097 
L 267.698862 193.174113 
L 268.790848 189.925952 
L 269.626623 186.533194 
L 270.145894 182.998552 
L 270.282041 179.381333 
L 270.016218 175.774075 
L 269.364334 172.221338 
L 268.337158 168.758099 
L 266.940792 165.416316 
L 265.199702 162.278366 
L 263.196233 159.411679 
L 261.01515 156.811976 
L 258.704256 154.424073 
L 255.137063 151.195966 
L 250.411335 147.358812 
L 244.870382 142.91881 
L 241.796057 140.194901 
L 237.753353 136.237823 
L 228.661793 126.788656 
L 224.852355 122.606542 
L 222.185155 119.434769 
L 219.7878 116.231407 
L 218.391509 114.083667 
L 217.177867 111.913945 
L 216.155308 109.684153 
L 215.315267 107.348835 
L 214.659219 104.931714 
L 214.188366 102.454262 
L 213.904263 99.939845 
L 213.804951 97.406589 
L 213.881357 94.816203 
L 214.279299 90.824473 
L 214.946481 86.710641 
L 216.091784 81.167053 
L 217.467949 75.778333 
L 218.691436 71.838915 
L 220.093585 68.024033 
L 221.708698 64.319964 
L 223.553971 60.743002 
L 224.298328 59.454351 
L 224.298328 59.454351 
" style="fill:none;stroke:#ffffff;stroke-linecap:square;"/>
   </g>
   <g id="patch_3">
    <path d="M 57.6 307.584 
L 57.6 41.472 
" style="fill:none;stroke:#000000;stroke-linecap:square;stroke-linejoin:miter;stroke-width:0.8;"/>
   </g>
   <g id="patch_4">
    <path d="M 414.72 307.584 
L 414.72 41.472 
" style="fill:none;stroke:#000000;stroke-linecap:square;stroke-linejoin:miter;stroke-width:0.8;"/>
   </g>
   <g id="patch_5">
    <path d="M 57.6 307.584 
L 414.72 307.584 
" style="fill:none;stroke:#000000;stroke-linecap:square;stroke-linejoin:miter;stroke-width:0.8;"/>
   </g>
   <g id="patch_6">
    <path d="M 57.6 41.472 
L 414.72 41.472 
" style="fill:none;stroke:#000000;stroke-linecap:square;stroke-linejoin:miter;stroke-width:0.8;"/>
   </g>
  </g>
 </g>
 <defs>
  <clipPath id="pef3b405eae">
   <rect height="266.112" width="357.12" x="57.6" y="41.472"/>
  </clipPath>
 </defs>
</svg>
