<?xml version="1.0" encoding="utf-8" standalone="no"?>
<!DOCTYPE svg PUBLIC "-//W3C//DTD SVG 1.1//EN"
  "http://www.w3.org/Graphics/SVG/1.1/DTD/svg11.dtd">
<!-- Created with matplotlib (https://matplotlib.org/) -->
<svg height="345.6pt" version="1.1" viewBox="0 0 460.8 345.6" width="460.8pt" xmlns="http://www.w3.org/2000/svg" xmlns:xlink="http://www.w3.org/1999/xlink">
 <metadata>
  <rdf:RDF xmlns:cc="http://creativecommons.org/ns#" xmlns:dc="http://purl.org/dc/elements/1.1/" xmlns:rdf="http://www.w3.org/1999/02/22-rdf-syntax-ns#">
   <cc:Work>
    <dc:type rdf:resource="http://purl.org/dc/dcmitype/StillImage"/>
    <dc:date>2021-01-22T11:11:34.119237</dc:date>
    <dc:format>image/svg+xml</dc:format>
    <dc:creator>
     <cc:Agent>
      <dc:title>Matplotlib v3.3.3, https://matplotlib.org/</dc:title>
     </cc:Agent>
    </dc:creator>
   </cc:Work>
  </rdf:RDF>
 </metadata>
 <defs>
  <style type="text/css">*{stroke-linecap:butt;stroke-linejoin:round;}</style>
 </defs>
 <g id="figure_1">
  <g id="patch_1">
   <path d="M 0 345.6 
L 460.8 345.6 
L 460.8 0 
L 0 0 
z
" style="fill:#ffffff;"/>
  </g>
  <g id="axes_1">
   <g id="patch_2">
    <path d="M 57.6 307.584 
L 414.72 307.584 
L 414.72 41.472 
L 57.6 41.472 
z
" style="fill:#7d9051;"/>
   </g>
   <g id="matplotlib.axis_1">
    <g id="xtick_1">
     <g id="line2d_1">
      <defs>
       <path d="M 0 0 
L 0 3.5 
" id="ma2b611e9ed" style="stroke:#000000;stroke-width:0.8;"/>
      </defs>
      <g>
       <use style="stroke:#000000;stroke-width:0.8;" x="60.931936" xlink:href="#ma2b611e9ed" y="307.584"/>
      </g>
     </g>
     <g id="text_1">
      <!-- 0 -->
      <g transform="translate(57.750686 322.182437)scale(0.1 -0.1)">
       <defs>
        <path d="M 31.78125 66.40625 
Q 24.171875 66.40625 20.328125 58.90625 
Q 16.5 51.421875 16.5 36.375 
Q 16.5 21.390625 20.328125 13.890625 
Q 24.171875 6.390625 31.78125 6.390625 
Q 39.453125 6.390625 43.28125 13.890625 
Q 47.125 21.390625 47.125 36.375 
Q 47.125 51.421875 43.28125 58.90625 
Q 39.453125 66.40625 31.78125 66.40625 
z
M 31.78125 74.21875 
Q 44.046875 74.21875 50.515625 64.515625 
Q 56.984375 54.828125 56.984375 36.375 
Q 56.984375 17.96875 50.515625 8.265625 
Q 44.046875 -1.421875 31.78125 -1.421875 
Q 19.53125 -1.421875 13.0625 8.265625 
Q 6.59375 17.96875 6.59375 36.375 
Q 6.59375 54.828125 13.0625 64.515625 
Q 19.53125 74.21875 31.78125 74.21875 
z
" id="DejaVuSans-48"/>
       </defs>
       <use xlink:href="#DejaVuSans-48"/>
      </g>
     </g>
    </g>
    <g id="xtick_2">
     <g id="line2d_2">
      <g>
       <use style="stroke:#000000;stroke-width:0.8;" x="110.041124" xlink:href="#ma2b611e9ed" y="307.584"/>
      </g>
     </g>
     <g id="text_2">
      <!-- 20 -->
      <g transform="translate(103.678624 322.182437)scale(0.1 -0.1)">
       <defs>
        <path d="M 19.1875 8.296875 
L 53.609375 8.296875 
L 53.609375 0 
L 7.328125 0 
L 7.328125 8.296875 
Q 12.9375 14.109375 22.625 23.890625 
Q 32.328125 33.6875 34.8125 36.53125 
Q 39.546875 41.84375 41.421875 45.53125 
Q 43.3125 49.21875 43.3125 52.78125 
Q 43.3125 58.59375 39.234375 62.25 
Q 35.15625 65.921875 28.609375 65.921875 
Q 23.96875 65.921875 18.8125 64.3125 
Q 13.671875 62.703125 7.8125 59.421875 
L 7.8125 69.390625 
Q 13.765625 71.78125 18.9375 73 
Q 24.125 74.21875 28.421875 74.21875 
Q 39.75 74.21875 46.484375 68.546875 
Q 53.21875 62.890625 53.21875 53.421875 
Q 53.21875 48.921875 51.53125 44.890625 
Q 49.859375 40.875 45.40625 35.40625 
Q 44.1875 33.984375 37.640625 27.21875 
Q 31.109375 20.453125 19.1875 8.296875 
z
" id="DejaVuSans-50"/>
       </defs>
       <use xlink:href="#DejaVuSans-50"/>
       <use x="63.623047" xlink:href="#DejaVuSans-48"/>
      </g>
     </g>
    </g>
    <g id="xtick_3">
     <g id="line2d_3">
      <g>
       <use style="stroke:#000000;stroke-width:0.8;" x="159.150311" xlink:href="#ma2b611e9ed" y="307.584"/>
      </g>
     </g>
     <g id="text_3">
      <!-- 40 -->
      <g transform="translate(152.787811 322.182437)scale(0.1 -0.1)">
       <defs>
        <path d="M 37.796875 64.3125 
L 12.890625 25.390625 
L 37.796875 25.390625 
z
M 35.203125 72.90625 
L 47.609375 72.90625 
L 47.609375 25.390625 
L 58.015625 25.390625 
L 58.015625 17.1875 
L 47.609375 17.1875 
L 47.609375 0 
L 37.796875 0 
L 37.796875 17.1875 
L 4.890625 17.1875 
L 4.890625 26.703125 
z
" id="DejaVuSans-52"/>
       </defs>
       <use xlink:href="#DejaVuSans-52"/>
       <use x="63.623047" xlink:href="#DejaVuSans-48"/>
      </g>
     </g>
    </g>
    <g id="xtick_4">
     <g id="line2d_4">
      <g>
       <use style="stroke:#000000;stroke-width:0.8;" x="208.259499" xlink:href="#ma2b611e9ed" y="307.584"/>
      </g>
     </g>
     <g id="text_4">
      <!-- 60 -->
      <g transform="translate(201.896999 322.182437)scale(0.1 -0.1)">
       <defs>
        <path d="M 33.015625 40.375 
Q 26.375 40.375 22.484375 35.828125 
Q 18.609375 31.296875 18.609375 23.390625 
Q 18.609375 15.53125 22.484375 10.953125 
Q 26.375 6.390625 33.015625 6.390625 
Q 39.65625 6.390625 43.53125 10.953125 
Q 47.40625 15.53125 47.40625 23.390625 
Q 47.40625 31.296875 43.53125 35.828125 
Q 39.65625 40.375 33.015625 40.375 
z
M 52.59375 71.296875 
L 52.59375 62.3125 
Q 48.875 64.0625 45.09375 64.984375 
Q 41.3125 65.921875 37.59375 65.921875 
Q 27.828125 65.921875 22.671875 59.328125 
Q 17.53125 52.734375 16.796875 39.40625 
Q 19.671875 43.65625 24.015625 45.921875 
Q 28.375 48.1875 33.59375 48.1875 
Q 44.578125 48.1875 50.953125 41.515625 
Q 57.328125 34.859375 57.328125 23.390625 
Q 57.328125 12.15625 50.6875 5.359375 
Q 44.046875 -1.421875 33.015625 -1.421875 
Q 20.359375 -1.421875 13.671875 8.265625 
Q 6.984375 17.96875 6.984375 36.375 
Q 6.984375 53.65625 15.1875 63.9375 
Q 23.390625 74.21875 37.203125 74.21875 
Q 40.921875 74.21875 44.703125 73.484375 
Q 48.484375 72.75 52.59375 71.296875 
z
" id="DejaVuSans-54"/>
       </defs>
       <use xlink:href="#DejaVuSans-54"/>
       <use x="63.623047" xlink:href="#DejaVuSans-48"/>
      </g>
     </g>
    </g>
    <g id="xtick_5">
     <g id="line2d_5">
      <g>
       <use style="stroke:#000000;stroke-width:0.8;" x="257.368686" xlink:href="#ma2b611e9ed" y="307.584"/>
      </g>
     </g>
     <g id="text_5">
      <!-- 80 -->
      <g transform="translate(251.006186 322.182437)scale(0.1 -0.1)">
       <defs>
        <path d="M 31.78125 34.625 
Q 24.75 34.625 20.71875 30.859375 
Q 16.703125 27.09375 16.703125 20.515625 
Q 16.703125 13.921875 20.71875 10.15625 
Q 24.75 6.390625 31.78125 6.390625 
Q 38.8125 6.390625 42.859375 10.171875 
Q 46.921875 13.96875 46.921875 20.515625 
Q 46.921875 27.09375 42.890625 30.859375 
Q 38.875 34.625 31.78125 34.625 
z
M 21.921875 38.8125 
Q 15.578125 40.375 12.03125 44.71875 
Q 8.5 49.078125 8.5 55.328125 
Q 8.5 64.0625 14.71875 69.140625 
Q 20.953125 74.21875 31.78125 74.21875 
Q 42.671875 74.21875 48.875 69.140625 
Q 55.078125 64.0625 55.078125 55.328125 
Q 55.078125 49.078125 51.53125 44.71875 
Q 48 40.375 41.703125 38.8125 
Q 48.828125 37.15625 52.796875 32.3125 
Q 56.78125 27.484375 56.78125 20.515625 
Q 56.78125 9.90625 50.3125 4.234375 
Q 43.84375 -1.421875 31.78125 -1.421875 
Q 19.734375 -1.421875 13.25 4.234375 
Q 6.78125 9.90625 6.78125 20.515625 
Q 6.78125 27.484375 10.78125 32.3125 
Q 14.796875 37.15625 21.921875 38.8125 
z
M 18.3125 54.390625 
Q 18.3125 48.734375 21.84375 45.5625 
Q 25.390625 42.390625 31.78125 42.390625 
Q 38.140625 42.390625 41.71875 45.5625 
Q 45.3125 48.734375 45.3125 54.390625 
Q 45.3125 60.0625 41.71875 63.234375 
Q 38.140625 66.40625 31.78125 66.40625 
Q 25.390625 66.40625 21.84375 63.234375 
Q 18.3125 60.0625 18.3125 54.390625 
z
" id="DejaVuSans-56"/>
       </defs>
       <use xlink:href="#DejaVuSans-56"/>
       <use x="63.623047" xlink:href="#DejaVuSans-48"/>
      </g>
     </g>
    </g>
    <g id="xtick_6">
     <g id="line2d_6">
      <g>
       <use style="stroke:#000000;stroke-width:0.8;" x="306.477874" xlink:href="#ma2b611e9ed" y="307.584"/>
      </g>
     </g>
     <g id="text_6">
      <!-- 100 -->
      <g transform="translate(296.934124 322.182437)scale(0.1 -0.1)">
       <defs>
        <path d="M 12.40625 8.296875 
L 28.515625 8.296875 
L 28.515625 63.921875 
L 10.984375 60.40625 
L 10.984375 69.390625 
L 28.421875 72.90625 
L 38.28125 72.90625 
L 38.28125 8.296875 
L 54.390625 8.296875 
L 54.390625 0 
L 12.40625 0 
z
" id="DejaVuSans-49"/>
       </defs>
       <use xlink:href="#DejaVuSans-49"/>
       <use x="63.623047" xlink:href="#DejaVuSans-48"/>
       <use x="127.246094" xlink:href="#DejaVuSans-48"/>
      </g>
     </g>
    </g>
    <g id="xtick_7">
     <g id="line2d_7">
      <g>
       <use style="stroke:#000000;stroke-width:0.8;" x="355.587061" xlink:href="#ma2b611e9ed" y="307.584"/>
      </g>
     </g>
     <g id="text_7">
      <!-- 120 -->
      <g transform="translate(346.043311 322.182437)scale(0.1 -0.1)">
       <use xlink:href="#DejaVuSans-49"/>
       <use x="63.623047" xlink:href="#DejaVuSans-50"/>
       <use x="127.246094" xlink:href="#DejaVuSans-48"/>
      </g>
     </g>
    </g>
    <g id="xtick_8">
     <g id="line2d_8">
      <g>
       <use style="stroke:#000000;stroke-width:0.8;" x="404.696249" xlink:href="#ma2b611e9ed" y="307.584"/>
      </g>
     </g>
     <g id="text_8">
      <!-- 140 -->
      <g transform="translate(395.152499 322.182437)scale(0.1 -0.1)">
       <use xlink:href="#DejaVuSans-49"/>
       <use x="63.623047" xlink:href="#DejaVuSans-52"/>
       <use x="127.246094" xlink:href="#DejaVuSans-48"/>
      </g>
     </g>
    </g>
   </g>
   <g id="matplotlib.axis_2">
    <g id="ytick_1">
     <g id="line2d_9">
      <defs>
       <path d="M 0 0 
L -3.5 0 
" id="m2897a7f07f" style="stroke:#000000;stroke-width:0.8;"/>
      </defs>
      <g>
       <use style="stroke:#000000;stroke-width:0.8;" x="57.6" xlink:href="#m2897a7f07f" y="301.874202"/>
      </g>
     </g>
     <g id="text_9">
      <!-- −20 -->
      <g transform="translate(29.495313 305.67342)scale(0.1 -0.1)">
       <defs>
        <path d="M 10.59375 35.5 
L 73.1875 35.5 
L 73.1875 27.203125 
L 10.59375 27.203125 
z
" id="DejaVuSans-8722"/>
       </defs>
       <use xlink:href="#DejaVuSans-8722"/>
       <use x="83.789062" xlink:href="#DejaVuSans-50"/>
       <use x="147.412109" xlink:href="#DejaVuSans-48"/>
      </g>
     </g>
    </g>
    <g id="ytick_2">
     <g id="line2d_10">
      <g>
       <use style="stroke:#000000;stroke-width:0.8;" x="57.6" xlink:href="#m2897a7f07f" y="252.765014"/>
      </g>
     </g>
     <g id="text_10">
      <!-- 0 -->
      <g transform="translate(44.2375 256.564233)scale(0.1 -0.1)">
       <use xlink:href="#DejaVuSans-48"/>
      </g>
     </g>
    </g>
    <g id="ytick_3">
     <g id="line2d_11">
      <g>
       <use style="stroke:#000000;stroke-width:0.8;" x="57.6" xlink:href="#m2897a7f07f" y="203.655827"/>
      </g>
     </g>
     <g id="text_11">
      <!-- 20 -->
      <g transform="translate(37.875 207.455045)scale(0.1 -0.1)">
       <use xlink:href="#DejaVuSans-50"/>
       <use x="63.623047" xlink:href="#DejaVuSans-48"/>
      </g>
     </g>
    </g>
    <g id="ytick_4">
     <g id="line2d_12">
      <g>
       <use style="stroke:#000000;stroke-width:0.8;" x="57.6" xlink:href="#m2897a7f07f" y="154.546639"/>
      </g>
     </g>
     <g id="text_12">
      <!-- 40 -->
      <g transform="translate(37.875 158.345858)scale(0.1 -0.1)">
       <use xlink:href="#DejaVuSans-52"/>
       <use x="63.623047" xlink:href="#DejaVuSans-48"/>
      </g>
     </g>
    </g>
    <g id="ytick_5">
     <g id="line2d_13">
      <g>
       <use style="stroke:#000000;stroke-width:0.8;" x="57.6" xlink:href="#m2897a7f07f" y="105.437451"/>
      </g>
     </g>
     <g id="text_13">
      <!-- 60 -->
      <g transform="translate(37.875 109.23667)scale(0.1 -0.1)">
       <use xlink:href="#DejaVuSans-54"/>
       <use x="63.623047" xlink:href="#DejaVuSans-48"/>
      </g>
     </g>
    </g>
    <g id="ytick_6">
     <g id="line2d_14">
      <g>
       <use style="stroke:#000000;stroke-width:0.8;" x="57.6" xlink:href="#m2897a7f07f" y="56.328264"/>
      </g>
     </g>
     <g id="text_14">
      <!-- 80 -->
      <g transform="translate(37.875 60.127483)scale(0.1 -0.1)">
       <use xlink:href="#DejaVuSans-56"/>
       <use x="63.623047" xlink:href="#DejaVuSans-48"/>
      </g>
     </g>
    </g>
   </g>
   <g id="line2d_15">
    <path clip-path="url(#p581b082563)" d="M 85.48653 164.410219 
L 84.774447 166.887778 
L 84.239157 169.375158 
L 83.875749 171.864994 
L 83.679312 174.35483 
L 83.64248 176.837299 
L 83.765253 179.309947 
L 84.035353 181.762951 
L 84.455237 184.193856 
L 85.015082 186.595295 
L 85.709977 188.964813 
L 86.537467 191.295044 
L 87.490185 193.578621 
L 88.563221 195.813089 
L 89.754118 197.991082 
L 91.053056 200.110143 
L 92.457579 202.160452 
L 93.965231 204.139552 
L 95.566191 206.040078 
L 97.258002 207.859573 
L 99.035755 209.590672 
L 100.892082 211.226008 
L 102.824529 212.770492 
L 106.885858 215.586904 
L 111.178001 218.047274 
L 115.649393 220.16388 
L 120.255835 221.941633 
L 124.955584 223.402631 
L 129.728997 224.583707 
L 134.55643 225.526603 
L 139.423151 226.275518 
L 146.757608 227.137385 
L 154.104342 227.753705 
L 161.463354 228.114657 
L 168.827277 228.21042 
L 176.19611 228.031172 
L 183.557577 227.608833 
L 190.896946 226.980235 
L 200.640208 225.894922 
L 229.99277 222.194545 
L 234.812837 221.227094 
L 239.515041 219.888869 
L 241.80844 219.04419 
L 244.057641 218.066918 
L 246.255277 216.961961 
L 248.398893 215.731776 
L 250.483578 214.391095 
L 252.504421 212.939918 
L 254.454056 211.390524 
L 256.332482 209.747821 
L 258.132334 208.021633 
L 259.8487 206.219326 
L 263.013787 202.408453 
L 265.837566 198.371678 
L 268.361778 194.145832 
L 270.633078 189.775115 
L 272.70303 185.301268 
L 275.534175 178.480002 
L 280.985295 164.798182 
L 282.981583 160.312058 
L 285.171853 155.906964 
L 287.578203 151.60991 
L 290.215366 147.44545 
L 293.093165 143.445507 
L 296.226331 139.63709 
L 299.627142 136.052119 
L 303.290688 132.732338 
L 307.214512 129.726856 
L 309.272187 128.356709 
L 311.393704 127.07987 
L 313.576607 125.906161 
L 315.823352 124.840491 
L 318.129029 123.887773 
L 320.48627 123.055373 
L 322.885253 122.343289 
L 325.321069 121.763801 
L 327.778984 121.314452 
L 330.251632 121.007519 
L 332.731646 120.845459 
L 335.209204 120.833182 
L 337.674485 120.975598 
L 340.117667 121.27762 
L 342.531384 121.744157 
L 344.910724 122.365388 
L 347.253232 123.131492 
L 349.553998 124.035101 
L 351.81302 125.063938 
L 354.022934 126.208182 
L 358.290522 128.806058 
L 362.327297 131.747699 
L 366.116071 134.961895 
L 369.639655 138.426548 
L 372.89805 142.12447 
L 375.878978 146.038472 
L 378.577528 150.156278 
L 380.986333 154.455787 
L 383.093117 158.919812 
L 384.883147 163.523799 
L 386.34169 168.240736 
L 387.46138 173.04607 
L 388.222572 177.920157 
L 388.61299 182.838442 
L 388.622812 187.77146 
L 388.237305 192.702022 
L 387.441736 197.600664 
L 387.441736 197.600664 
" style="fill:none;stroke:#fea952;stroke-linecap:square;"/>
   </g>
   <g id="line2d_16">
    <path clip-path="url(#p581b082563)" d="M 94.926214 167.12331 
L 94.376456 168.954153 
L 93.958018 170.79369 
L 93.66716 172.637492 
L 93.500068 174.500538 
L 93.452233 176.350221 
L 93.713874 180.091206 
L 94.02058 181.963898 
L 94.965555 185.678059 
L 96.344038 189.326826 
L 98.12795 192.858107 
L 100.270625 196.208578 
L 102.759073 199.351959 
L 105.528289 202.220768 
L 108.601455 204.827217 
L 111.943451 207.167328 
L 115.547039 209.250684 
L 119.349249 211.065553 
L 123.320617 212.610202 
L 127.446005 213.901773 
L 131.719281 214.965637 
L 136.13456 215.832378 
L 140.69685 216.536618 
L 147.68927 217.359834 
L 154.702959 217.950126 
L 161.718891 218.296145 
L 168.709541 218.389289 
L 175.734993 218.220165 
L 182.811781 217.815351 
L 189.904064 217.208711 
L 199.438928 216.146824 
L 228.211678 212.535549 
L 232.338005 211.722164 
L 236.120494 210.672278 
L 239.645584 209.291826 
L 241.366527 208.44324 
L 244.754596 206.413172 
L 247.988384 203.997042 
L 251.019739 201.248194 
L 253.782429 198.241128 
L 256.309308 194.944072 
L 258.620812 191.381332 
L 260.752528 187.559263 
L 262.735552 183.515443 
L 264.600278 179.286839 
L 267.283174 172.629342 
L 271.975484 160.887708 
L 274.140489 156.033792 
L 276.54295 151.215426 
L 279.205639 146.474867 
L 282.151572 141.837982 
L 285.400736 137.338541 
L 288.976005 133.011287 
L 292.884957 128.909891 
L 294.978934 126.944414 
L 297.153845 125.063723 
L 299.415362 123.265304 
L 301.77084 121.551592 
L 304.207439 119.941436 
L 306.742395 118.429216 
L 309.367427 117.031968 
L 312.072509 115.763065 
L 314.85861 114.62641 
L 317.691407 113.639576 
L 320.612051 112.788131 
L 323.554743 112.102094 
L 326.569075 111.567421 
L 329.611175 111.206585 
L 332.682975 111.023742 
L 335.775657 111.027692 
L 338.87947 111.227957 
L 341.981591 111.634266 
L 345.012627 112.240899 
L 347.963771 113.030111 
L 350.843705 113.989446 
L 353.62489 115.096626 
L 356.329088 116.341919 
L 358.947837 117.710311 
L 361.470568 119.182911 
L 363.917793 120.75607 
L 368.545274 124.144721 
L 372.878551 127.838879 
L 376.895268 131.806535 
L 380.604782 136.035564 
L 383.99964 140.513679 
L 387.060359 145.205513 
L 389.794563 150.110263 
L 392.183223 155.199801 
L 394.213584 160.45599 
L 395.865079 165.837912 
L 397.136603 171.355349 
L 397.996629 176.952525 
L 398.43247 182.623274 
L 398.487273 185.479608 
L 398.428334 188.337351 
L 398.254735 191.203962 
L 397.96294 194.073337 
L 397.101554 199.377294 
L 397.101554 199.377294 
" style="fill:none;stroke:#ffffff;stroke-linecap:square;"/>
   </g>
   <g id="line2d_17">
    <path clip-path="url(#p581b082563)" d="M 76.046846 161.697129 
L 75.172437 164.821403 
L 74.520296 167.956626 
L 74.084337 171.092496 
L 73.858555 174.209121 
L 73.832727 177.324377 
L 74.002421 180.384933 
L 74.356833 183.434695 
L 74.889894 186.423813 
L 75.590175 189.359283 
L 76.454398 192.251568 
L 77.472886 195.076826 
L 78.636331 197.830417 
L 79.945504 200.525144 
L 81.380286 203.124056 
L 82.950118 205.660899 
L 84.644533 208.112326 
L 86.453404 210.467344 
L 88.373308 212.728196 
L 90.405862 214.896381 
L 92.54322 216.960576 
L 94.759996 218.898427 
L 97.047602 220.713766 
L 99.408913 222.41883 
L 101.828266 224.006479 
L 104.29802 225.480479 
L 109.358644 228.102423 
L 114.566432 230.319564 
L 119.830337 232.134639 
L 125.107764 233.592312 
L 130.362698 234.742263 
L 135.575309 235.642097 
L 143.280808 236.647379 
L 150.937277 237.370124 
L 158.646828 237.838913 
L 166.371817 238.032258 
L 174.094008 237.935047 
L 181.771584 237.574967 
L 189.377542 236.989347 
L 199.377849 235.938904 
L 229.078811 232.280429 
L 234.501124 231.345674 
L 237.287668 230.732024 
L 240.080841 229.994431 
L 242.909588 229.105459 
L 245.722506 228.052441 
L 248.469699 226.84201 
L 251.144028 225.480682 
L 253.711602 223.992746 
L 256.212561 222.369018 
L 258.615241 220.629286 
L 260.919728 218.784005 
L 263.130995 216.836455 
L 265.24493 214.795072 
L 267.262614 212.66156 
L 269.170911 210.450493 
L 270.951556 208.192943 
L 274.186225 203.545495 
L 277.017784 198.787175 
L 279.504259 193.990638 
L 281.724131 189.185625 
L 284.671683 182.082005 
L 289.995105 168.708656 
L 291.822677 164.590323 
L 293.800756 160.598501 
L 295.950767 156.744952 
L 298.279161 153.052919 
L 300.785593 149.552473 
L 303.476657 146.262892 
L 306.369328 143.194347 
L 309.427531 140.400953 
L 312.658183 137.902119 
L 316.045012 135.730525 
L 319.574195 133.917918 
L 323.281133 132.471169 
L 327.087395 131.425508 
L 330.892089 130.808453 
L 334.642751 130.638671 
L 336.469501 130.723239 
L 338.253743 130.920974 
L 340.050141 131.247416 
L 341.857677 131.700666 
L 343.66276 132.273537 
L 347.296953 133.785958 
L 350.896908 135.738022 
L 354.399019 138.060157 
L 357.766473 140.697683 
L 360.90268 143.547247 
L 363.821257 146.613007 
L 366.504693 149.865712 
L 368.957043 153.314786 
L 371.168064 156.934103 
L 373.125197 160.707649 
L 374.813061 164.603116 
L 376.220617 168.603123 
L 377.341059 172.688762 
L 378.156135 176.816689 
L 378.661352 180.962115 
L 378.846748 185.127838 
L 378.706055 189.274431 
L 378.231267 193.380852 
L 377.781918 195.824034 
L 377.781918 195.824034 
" style="fill:none;stroke:#ffffff;stroke-linecap:square;"/>
   </g>
   <g id="patch_3">
    <path d="M 57.6 307.584 
L 57.6 41.472 
" style="fill:none;stroke:#000000;stroke-linecap:square;stroke-linejoin:miter;stroke-width:0.8;"/>
   </g>
   <g id="patch_4">
    <path d="M 414.72 307.584 
L 414.72 41.472 
" style="fill:none;stroke:#000000;stroke-linecap:square;stroke-linejoin:miter;stroke-width:0.8;"/>
   </g>
   <g id="patch_5">
    <path d="M 57.6 307.584 
L 414.72 307.584 
" style="fill:none;stroke:#000000;stroke-linecap:square;stroke-linejoin:miter;stroke-width:0.8;"/>
   </g>
   <g id="patch_6">
    <path d="M 57.6 41.472 
L 414.72 41.472 
" style="fill:none;stroke:#000000;stroke-linecap:square;stroke-linejoin:miter;stroke-width:0.8;"/>
   </g>
  </g>
 </g>
 <defs>
  <clipPath id="p581b082563">
   <rect height="266.112" width="357.12" x="57.6" y="41.472"/>
  </clipPath>
 </defs>
</svg>
