<?xml version="1.0" encoding="utf-8" standalone="no"?>
<!DOCTYPE svg PUBLIC "-//W3C//DTD SVG 1.1//EN"
  "http://www.w3.org/Graphics/SVG/1.1/DTD/svg11.dtd">
<!-- Created with matplotlib (https://matplotlib.org/) -->
<svg height="345.6pt" version="1.1" viewBox="0 0 460.8 345.6" width="460.8pt" xmlns="http://www.w3.org/2000/svg" xmlns:xlink="http://www.w3.org/1999/xlink">
 <metadata>
  <rdf:RDF xmlns:cc="http://creativecommons.org/ns#" xmlns:dc="http://purl.org/dc/elements/1.1/" xmlns:rdf="http://www.w3.org/1999/02/22-rdf-syntax-ns#">
   <cc:Work>
    <dc:type rdf:resource="http://purl.org/dc/dcmitype/StillImage"/>
    <dc:date>2021-01-22T10:33:56.815456</dc:date>
    <dc:format>image/svg+xml</dc:format>
    <dc:creator>
     <cc:Agent>
      <dc:title>Matplotlib v3.3.3, https://matplotlib.org/</dc:title>
     </cc:Agent>
    </dc:creator>
   </cc:Work>
  </rdf:RDF>
 </metadata>
 <defs>
  <style type="text/css">*{stroke-linecap:butt;stroke-linejoin:round;}</style>
 </defs>
 <g id="figure_1">
  <g id="patch_1">
   <path d="M 0 345.6 
L 460.8 345.6 
L 460.8 0 
L 0 0 
z
" style="fill:#ffffff;"/>
  </g>
  <g id="axes_1">
   <g id="patch_2">
    <path d="M 57.6 307.584 
L 414.72 307.584 
L 414.72 41.472 
L 57.6 41.472 
z
" style="fill:#7d9051;"/>
   </g>
   <g id="matplotlib.axis_1">
    <g id="xtick_1">
     <g id="line2d_1">
      <defs>
       <path d="M 0 0 
L 0 3.5 
" id="m2c21bcf596" style="stroke:#000000;stroke-width:0.8;"/>
      </defs>
      <g>
       <use style="stroke:#000000;stroke-width:0.8;" x="105.609319" xlink:href="#m2c21bcf596" y="307.584"/>
      </g>
     </g>
     <g id="text_1">
      <!-- 20 -->
      <g transform="translate(99.246819 322.182437)scale(0.1 -0.1)">
       <defs>
        <path d="M 19.1875 8.296875 
L 53.609375 8.296875 
L 53.609375 0 
L 7.328125 0 
L 7.328125 8.296875 
Q 12.9375 14.109375 22.625 23.890625 
Q 32.328125 33.6875 34.8125 36.53125 
Q 39.546875 41.84375 41.421875 45.53125 
Q 43.3125 49.21875 43.3125 52.78125 
Q 43.3125 58.59375 39.234375 62.25 
Q 35.15625 65.921875 28.609375 65.921875 
Q 23.96875 65.921875 18.8125 64.3125 
Q 13.671875 62.703125 7.8125 59.421875 
L 7.8125 69.390625 
Q 13.765625 71.78125 18.9375 73 
Q 24.125 74.21875 28.421875 74.21875 
Q 39.75 74.21875 46.484375 68.546875 
Q 53.21875 62.890625 53.21875 53.421875 
Q 53.21875 48.921875 51.53125 44.890625 
Q 49.859375 40.875 45.40625 35.40625 
Q 44.1875 33.984375 37.640625 27.21875 
Q 31.109375 20.453125 19.1875 8.296875 
z
" id="DejaVuSans-50"/>
        <path d="M 31.78125 66.40625 
Q 24.171875 66.40625 20.328125 58.90625 
Q 16.5 51.421875 16.5 36.375 
Q 16.5 21.390625 20.328125 13.890625 
Q 24.171875 6.390625 31.78125 6.390625 
Q 39.453125 6.390625 43.28125 13.890625 
Q 47.125 21.390625 47.125 36.375 
Q 47.125 51.421875 43.28125 58.90625 
Q 39.453125 66.40625 31.78125 66.40625 
z
M 31.78125 74.21875 
Q 44.046875 74.21875 50.515625 64.515625 
Q 56.984375 54.828125 56.984375 36.375 
Q 56.984375 17.96875 50.515625 8.265625 
Q 44.046875 -1.421875 31.78125 -1.421875 
Q 19.53125 -1.421875 13.0625 8.265625 
Q 6.59375 17.96875 6.59375 36.375 
Q 6.59375 54.828125 13.0625 64.515625 
Q 19.53125 74.21875 31.78125 74.21875 
z
" id="DejaVuSans-48"/>
       </defs>
       <use xlink:href="#DejaVuSans-50"/>
       <use x="63.623047" xlink:href="#DejaVuSans-48"/>
      </g>
     </g>
    </g>
    <g id="xtick_2">
     <g id="line2d_2">
      <g>
       <use style="stroke:#000000;stroke-width:0.8;" x="161.991655" xlink:href="#m2c21bcf596" y="307.584"/>
      </g>
     </g>
     <g id="text_2">
      <!-- 40 -->
      <g transform="translate(155.629155 322.182437)scale(0.1 -0.1)">
       <defs>
        <path d="M 37.796875 64.3125 
L 12.890625 25.390625 
L 37.796875 25.390625 
z
M 35.203125 72.90625 
L 47.609375 72.90625 
L 47.609375 25.390625 
L 58.015625 25.390625 
L 58.015625 17.1875 
L 47.609375 17.1875 
L 47.609375 0 
L 37.796875 0 
L 37.796875 17.1875 
L 4.890625 17.1875 
L 4.890625 26.703125 
z
" id="DejaVuSans-52"/>
       </defs>
       <use xlink:href="#DejaVuSans-52"/>
       <use x="63.623047" xlink:href="#DejaVuSans-48"/>
      </g>
     </g>
    </g>
    <g id="xtick_3">
     <g id="line2d_3">
      <g>
       <use style="stroke:#000000;stroke-width:0.8;" x="218.373991" xlink:href="#m2c21bcf596" y="307.584"/>
      </g>
     </g>
     <g id="text_3">
      <!-- 60 -->
      <g transform="translate(212.011491 322.182437)scale(0.1 -0.1)">
       <defs>
        <path d="M 33.015625 40.375 
Q 26.375 40.375 22.484375 35.828125 
Q 18.609375 31.296875 18.609375 23.390625 
Q 18.609375 15.53125 22.484375 10.953125 
Q 26.375 6.390625 33.015625 6.390625 
Q 39.65625 6.390625 43.53125 10.953125 
Q 47.40625 15.53125 47.40625 23.390625 
Q 47.40625 31.296875 43.53125 35.828125 
Q 39.65625 40.375 33.015625 40.375 
z
M 52.59375 71.296875 
L 52.59375 62.3125 
Q 48.875 64.0625 45.09375 64.984375 
Q 41.3125 65.921875 37.59375 65.921875 
Q 27.828125 65.921875 22.671875 59.328125 
Q 17.53125 52.734375 16.796875 39.40625 
Q 19.671875 43.65625 24.015625 45.921875 
Q 28.375 48.1875 33.59375 48.1875 
Q 44.578125 48.1875 50.953125 41.515625 
Q 57.328125 34.859375 57.328125 23.390625 
Q 57.328125 12.15625 50.6875 5.359375 
Q 44.046875 -1.421875 33.015625 -1.421875 
Q 20.359375 -1.421875 13.671875 8.265625 
Q 6.984375 17.96875 6.984375 36.375 
Q 6.984375 53.65625 15.1875 63.9375 
Q 23.390625 74.21875 37.203125 74.21875 
Q 40.921875 74.21875 44.703125 73.484375 
Q 48.484375 72.75 52.59375 71.296875 
z
" id="DejaVuSans-54"/>
       </defs>
       <use xlink:href="#DejaVuSans-54"/>
       <use x="63.623047" xlink:href="#DejaVuSans-48"/>
      </g>
     </g>
    </g>
    <g id="xtick_4">
     <g id="line2d_4">
      <g>
       <use style="stroke:#000000;stroke-width:0.8;" x="274.756326" xlink:href="#m2c21bcf596" y="307.584"/>
      </g>
     </g>
     <g id="text_4">
      <!-- 80 -->
      <g transform="translate(268.393826 322.182437)scale(0.1 -0.1)">
       <defs>
        <path d="M 31.78125 34.625 
Q 24.75 34.625 20.71875 30.859375 
Q 16.703125 27.09375 16.703125 20.515625 
Q 16.703125 13.921875 20.71875 10.15625 
Q 24.75 6.390625 31.78125 6.390625 
Q 38.8125 6.390625 42.859375 10.171875 
Q 46.921875 13.96875 46.921875 20.515625 
Q 46.921875 27.09375 42.890625 30.859375 
Q 38.875 34.625 31.78125 34.625 
z
M 21.921875 38.8125 
Q 15.578125 40.375 12.03125 44.71875 
Q 8.5 49.078125 8.5 55.328125 
Q 8.5 64.0625 14.71875 69.140625 
Q 20.953125 74.21875 31.78125 74.21875 
Q 42.671875 74.21875 48.875 69.140625 
Q 55.078125 64.0625 55.078125 55.328125 
Q 55.078125 49.078125 51.53125 44.71875 
Q 48 40.375 41.703125 38.8125 
Q 48.828125 37.15625 52.796875 32.3125 
Q 56.78125 27.484375 56.78125 20.515625 
Q 56.78125 9.90625 50.3125 4.234375 
Q 43.84375 -1.421875 31.78125 -1.421875 
Q 19.734375 -1.421875 13.25 4.234375 
Q 6.78125 9.90625 6.78125 20.515625 
Q 6.78125 27.484375 10.78125 32.3125 
Q 14.796875 37.15625 21.921875 38.8125 
z
M 18.3125 54.390625 
Q 18.3125 48.734375 21.84375 45.5625 
Q 25.390625 42.390625 31.78125 42.390625 
Q 38.140625 42.390625 41.71875 45.5625 
Q 45.3125 48.734375 45.3125 54.390625 
Q 45.3125 60.0625 41.71875 63.234375 
Q 38.140625 66.40625 31.78125 66.40625 
Q 25.390625 66.40625 21.84375 63.234375 
Q 18.3125 60.0625 18.3125 54.390625 
z
" id="DejaVuSans-56"/>
       </defs>
       <use xlink:href="#DejaVuSans-56"/>
       <use x="63.623047" xlink:href="#DejaVuSans-48"/>
      </g>
     </g>
    </g>
    <g id="xtick_5">
     <g id="line2d_5">
      <g>
       <use style="stroke:#000000;stroke-width:0.8;" x="331.138662" xlink:href="#m2c21bcf596" y="307.584"/>
      </g>
     </g>
     <g id="text_5">
      <!-- 100 -->
      <g transform="translate(321.594912 322.182437)scale(0.1 -0.1)">
       <defs>
        <path d="M 12.40625 8.296875 
L 28.515625 8.296875 
L 28.515625 63.921875 
L 10.984375 60.40625 
L 10.984375 69.390625 
L 28.421875 72.90625 
L 38.28125 72.90625 
L 38.28125 8.296875 
L 54.390625 8.296875 
L 54.390625 0 
L 12.40625 0 
z
" id="DejaVuSans-49"/>
       </defs>
       <use xlink:href="#DejaVuSans-49"/>
       <use x="63.623047" xlink:href="#DejaVuSans-48"/>
       <use x="127.246094" xlink:href="#DejaVuSans-48"/>
      </g>
     </g>
    </g>
    <g id="xtick_6">
     <g id="line2d_6">
      <g>
       <use style="stroke:#000000;stroke-width:0.8;" x="387.520998" xlink:href="#m2c21bcf596" y="307.584"/>
      </g>
     </g>
     <g id="text_6">
      <!-- 120 -->
      <g transform="translate(377.977248 322.182437)scale(0.1 -0.1)">
       <use xlink:href="#DejaVuSans-49"/>
       <use x="63.623047" xlink:href="#DejaVuSans-50"/>
       <use x="127.246094" xlink:href="#DejaVuSans-48"/>
      </g>
     </g>
    </g>
   </g>
   <g id="matplotlib.axis_2">
    <g id="ytick_1">
     <g id="line2d_7">
      <defs>
       <path d="M 0 0 
L -3.5 0 
" id="m16015f4ae5" style="stroke:#000000;stroke-width:0.8;"/>
      </defs>
      <g>
       <use style="stroke:#000000;stroke-width:0.8;" x="57.6" xlink:href="#m16015f4ae5" y="303.58176"/>
      </g>
     </g>
     <g id="text_7">
      <!-- 0 -->
      <g transform="translate(44.2375 307.380979)scale(0.1 -0.1)">
       <use xlink:href="#DejaVuSans-48"/>
      </g>
     </g>
    </g>
    <g id="ytick_2">
     <g id="line2d_8">
      <g>
       <use style="stroke:#000000;stroke-width:0.8;" x="57.6" xlink:href="#m16015f4ae5" y="247.199425"/>
      </g>
     </g>
     <g id="text_8">
      <!-- 20 -->
      <g transform="translate(37.875 250.998643)scale(0.1 -0.1)">
       <use xlink:href="#DejaVuSans-50"/>
       <use x="63.623047" xlink:href="#DejaVuSans-48"/>
      </g>
     </g>
    </g>
    <g id="ytick_3">
     <g id="line2d_9">
      <g>
       <use style="stroke:#000000;stroke-width:0.8;" x="57.6" xlink:href="#m16015f4ae5" y="190.817089"/>
      </g>
     </g>
     <g id="text_9">
      <!-- 40 -->
      <g transform="translate(37.875 194.616308)scale(0.1 -0.1)">
       <use xlink:href="#DejaVuSans-52"/>
       <use x="63.623047" xlink:href="#DejaVuSans-48"/>
      </g>
     </g>
    </g>
    <g id="ytick_4">
     <g id="line2d_10">
      <g>
       <use style="stroke:#000000;stroke-width:0.8;" x="57.6" xlink:href="#m16015f4ae5" y="134.434753"/>
      </g>
     </g>
     <g id="text_10">
      <!-- 60 -->
      <g transform="translate(37.875 138.233972)scale(0.1 -0.1)">
       <use xlink:href="#DejaVuSans-54"/>
       <use x="63.623047" xlink:href="#DejaVuSans-48"/>
      </g>
     </g>
    </g>
    <g id="ytick_5">
     <g id="line2d_11">
      <g>
       <use style="stroke:#000000;stroke-width:0.8;" x="57.6" xlink:href="#m16015f4ae5" y="78.052417"/>
      </g>
     </g>
     <g id="text_11">
      <!-- 80 -->
      <g transform="translate(37.875 81.851636)scale(0.1 -0.1)">
       <use xlink:href="#DejaVuSans-56"/>
       <use x="63.623047" xlink:href="#DejaVuSans-48"/>
      </g>
     </g>
    </g>
   </g>
   <g id="line2d_12">
    <path clip-path="url(#p7f78fa2b23)" d="M 386.985366 219.679207 
L 387.179885 211.173931 
L 387.174246 199.832624 
L 386.920526 188.494137 
L 386.33415 174.330894 
L 385.367193 157.354173 
L 384.662413 148.885546 
L 383.985825 143.25295 
L 383.066793 137.640089 
L 381.848935 132.052599 
L 380.281506 126.527131 
L 379.354016 123.812321 
L 378.32222 121.139798 
L 377.186116 118.520839 
L 375.934428 115.9639 
L 374.567156 113.477439 
L 373.075843 111.067094 
L 371.45767 108.74978 
L 369.712637 106.522678 
L 367.849201 104.388606 
L 365.875819 102.344747 
L 363.806587 100.38828 
L 361.649963 98.513567 
L 357.114004 95.006586 
L 352.352516 91.80125 
L 347.444433 88.877826 
L 342.426406 86.21658 
L 337.298432 83.803416 
L 332.066151 81.621419 
L 326.729563 79.656495 
L 321.294306 77.897366 
L 315.774476 76.391958 
L 310.184167 75.222024 
L 307.370688 74.793518 
L 304.545933 74.477777 
L 301.71554 74.291716 
L 298.876689 74.243791 
L 296.037839 74.34246 
L 293.201807 74.59618 
L 290.377052 75.002133 
L 287.569212 75.55468 
L 284.789563 76.251002 
L 282.043743 77.093918 
L 279.343029 78.072151 
L 276.693059 79.191341 
L 274.10511 80.440209 
L 271.587639 81.821577 
L 269.143465 83.332623 
L 266.786683 84.964892 
L 264.514475 86.715563 
L 262.332479 88.57618 
L 260.243513 90.538286 
L 258.250397 92.596241 
L 256.361589 94.744408 
L 254.57145 96.977148 
L 252.891256 99.283186 
L 251.321008 101.656882 
L 249.866344 104.095418 
L 248.518806 106.590337 
L 246.1141 111.721129 
L 244.027953 117.004154 
L 242.175794 122.388667 
L 239.649865 130.558468 
L 236.348679 141.423344 
L 234.566997 146.799399 
L 232.604892 152.113435 
L 230.394704 157.345715 
L 227.885691 162.47087 
L 225.063755 167.438153 
L 221.91762 172.194003 
L 218.43883 176.690495 
L 216.572575 178.824566 
L 214.616108 180.876883 
L 210.466368 184.733435 
L 206.040355 188.293979 
L 201.397269 191.597984 
L 196.596313 194.684917 
L 191.693869 197.591427 
L 184.240124 201.710156 
L 166.792611 211.123187 
L 159.462907 215.450531 
L 152.299531 220.05133 
L 147.636712 223.282038 
L 143.081019 226.653702 
L 138.629634 230.157864 
L 132.117474 235.624131 
L 125.751908 241.282099 
L 108.921781 256.556073 
L 104.571884 260.167362 
L 100.095127 263.595408 
L 95.45486 266.792286 
L 90.617256 269.698796 
L 88.111061 271.032238 
L 85.542846 272.272649 
L 82.909791 273.417211 
L 80.200619 274.457465 
L 77.418151 275.390593 
L 77.418151 275.390593 
" style="fill:none;stroke:#fea952;stroke-linecap:square;"/>
   </g>
   <g id="line2d_13">
    <path clip-path="url(#p7f78fa2b23)" d="M 375.713909 219.34308 
L 375.903869 211.073052 
L 375.899035 200.000911 
L 375.650891 188.886612 
L 375.072777 174.914152 
L 374.119725 158.162374 
L 373.454779 150.129593 
L 372.836758 144.943221 
L 372.014474 139.877265 
L 370.94864 134.940901 
L 369.610601 130.172746 
L 367.977195 125.627468 
L 366.053335 121.397381 
L 363.83041 117.523151 
L 362.581428 115.704709 
L 361.218589 113.939541 
L 359.736894 112.221179 
L 356.408587 108.898761 
L 352.676925 105.763014 
L 348.591728 102.812203 
L 344.257726 100.064033 
L 339.785919 97.540961 
L 335.185213 95.236738 
L 330.471729 93.139415 
L 325.614321 91.233253 
L 320.660645 89.514127 
L 315.719055 88.025197 
L 310.85849 86.834357 
L 306.118046 86.000195 
L 301.5252 85.566576 
L 299.268386 85.513453 
L 297.042655 85.574069 
L 294.805897 85.757973 
L 292.554358 86.066402 
L 290.309377 86.493154 
L 288.098812 87.030964 
L 285.884065 87.696306 
L 283.730302 88.460152 
L 281.593946 89.347128 
L 279.529674 90.3262 
L 277.517346 91.413098 
L 275.563872 92.602849 
L 273.669027 93.897531 
L 271.831168 95.296048 
L 270.052663 96.795515 
L 266.71888 100.042282 
L 263.685351 103.617594 
L 261.005285 107.433861 
L 258.644876 111.552335 
L 256.546531 116.001676 
L 254.656799 120.770632 
L 252.920551 125.810493 
L 250.453221 133.790527 
L 247.077515 144.894768 
L 245.184738 150.597068 
L 243.050696 156.361245 
L 240.596093 162.15096 
L 237.775457 167.888548 
L 234.574523 173.496535 
L 232.826017 176.228912 
L 230.968206 178.920488 
L 229.004078 181.549098 
L 226.92732 184.113718 
L 224.734559 186.605358 
L 222.442466 188.995185 
L 220.10222 191.240803 
L 217.678775 193.401762 
L 212.704008 197.390926 
L 207.598273 201.016385 
L 202.42585 204.337648 
L 197.245118 207.40684 
L 189.559507 211.653138 
L 172.410233 220.900765 
L 165.43338 225.01673 
L 158.65511 229.366121 
L 154.274543 232.397843 
L 149.99322 235.563258 
L 145.785578 238.872861 
L 139.547046 244.107066 
L 133.347855 249.616384 
L 116.198163 265.170769 
L 111.53624 269.03621 
L 106.625945 272.788183 
L 101.423261 276.359779 
L 95.913945 279.653884 
L 93.015365 281.186376 
L 90.038258 282.614312 
L 86.951933 283.944309 
L 83.786043 285.148744 
L 81.003575 286.081872 
L 81.003575 286.081872 
" style="fill:none;stroke:#ffffff;stroke-linecap:square;"/>
   </g>
   <g id="line2d_14">
    <path clip-path="url(#p7f78fa2b23)" d="M 398.256822 220.015333 
L 398.455901 211.27481 
L 398.449458 199.664338 
L 398.190161 188.101662 
L 397.595523 173.747636 
L 396.61466 156.545971 
L 395.870047 147.641498 
L 395.134892 141.56268 
L 394.119112 135.402913 
L 392.74923 129.164298 
L 391.906395 126.010119 
L 390.95241 122.881515 
L 389.873701 119.750924 
L 388.667244 116.652129 
L 387.31417 113.562894 
L 385.815521 110.530419 
L 384.156577 107.544335 
L 382.321277 104.611037 
L 380.333912 101.794851 
L 378.206685 99.105814 
L 375.961508 96.556034 
L 373.623095 94.150942 
L 371.204588 91.877798 
L 368.705133 89.71679 
L 366.151882 87.678203 
L 360.917079 83.925155 
L 355.564596 80.550203 
L 350.113111 77.491424 
L 344.564997 74.726875 
L 338.921046 72.229037 
L 333.206766 69.996736 
L 327.391416 67.988989 
L 321.366641 66.190829 
L 315.114248 64.686594 
L 311.882045 64.074113 
L 308.623331 63.586842 
L 305.285619 63.225596 
L 301.90588 63.016855 
L 298.484993 62.974128 
L 295.033023 63.11085 
L 291.597717 63.434388 
L 288.199746 63.937864 
L 284.829047 64.616206 
L 281.480314 65.47104 
L 278.203421 66.491529 
L 274.955757 67.684151 
L 271.792173 69.035553 
L 268.680546 70.554218 
L 265.657932 72.230055 
L 262.723057 74.062398 
L 259.904339 76.032252 
L 257.197782 78.135078 
L 254.612294 80.356846 
L 252.143261 82.693247 
L 249.781915 85.1502 
L 247.563739 87.690576 
L 245.457549 90.336702 
L 243.486389 93.061676 
L 241.636731 95.879903 
L 239.944589 98.736549 
L 238.392737 101.628338 
L 235.681668 107.440583 
L 233.399108 113.237676 
L 231.431036 118.966841 
L 228.846509 127.326408 
L 224.798998 140.492513 
L 223.07606 145.450028 
L 221.208509 150.213996 
L 219.127304 154.815535 
L 216.795498 159.255778 
L 214.234293 163.462446 
L 211.436946 167.405878 
L 208.410591 171.043774 
L 205.053553 174.442812 
L 201.362065 177.64724 
L 197.331636 180.700354 
L 193.01676 183.617722 
L 188.483489 186.412873 
L 181.367501 190.442733 
L 158.600313 202.825795 
L 150.9666 207.461785 
L 145.943952 210.736539 
L 140.998881 214.166232 
L 136.168819 217.744145 
L 131.47369 221.442866 
L 124.687903 227.141197 
L 118.155962 232.947813 
L 101.6454 247.941377 
L 97.607528 251.298514 
L 93.564308 254.402632 
L 89.48646 257.224794 
L 85.320566 259.743707 
L 81.047434 261.930987 
L 76.615196 263.766186 
L 73.832727 264.699313 
L 73.832727 264.699313 
" style="fill:none;stroke:#ffffff;stroke-linecap:square;"/>
   </g>
   <g id="patch_3">
    <path d="M 57.6 307.584 
L 57.6 41.472 
" style="fill:none;stroke:#000000;stroke-linecap:square;stroke-linejoin:miter;stroke-width:0.8;"/>
   </g>
   <g id="patch_4">
    <path d="M 414.72 307.584 
L 414.72 41.472 
" style="fill:none;stroke:#000000;stroke-linecap:square;stroke-linejoin:miter;stroke-width:0.8;"/>
   </g>
   <g id="patch_5">
    <path d="M 57.6 307.584 
L 414.72 307.584 
" style="fill:none;stroke:#000000;stroke-linecap:square;stroke-linejoin:miter;stroke-width:0.8;"/>
   </g>
   <g id="patch_6">
    <path d="M 57.6 41.472 
L 414.72 41.472 
" style="fill:none;stroke:#000000;stroke-linecap:square;stroke-linejoin:miter;stroke-width:0.8;"/>
   </g>
  </g>
 </g>
 <defs>
  <clipPath id="p7f78fa2b23">
   <rect height="266.112" width="357.12" x="57.6" y="41.472"/>
  </clipPath>
 </defs>
</svg>
