<?xml version="1.0" encoding="utf-8" standalone="no"?>
<!DOCTYPE svg PUBLIC "-//W3C//DTD SVG 1.1//EN"
  "http://www.w3.org/Graphics/SVG/1.1/DTD/svg11.dtd">
<!-- Created with matplotlib (https://matplotlib.org/) -->
<svg height="345.6pt" version="1.1" viewBox="0 0 460.8 345.6" width="460.8pt" xmlns="http://www.w3.org/2000/svg" xmlns:xlink="http://www.w3.org/1999/xlink">
 <metadata>
  <rdf:RDF xmlns:cc="http://creativecommons.org/ns#" xmlns:dc="http://purl.org/dc/elements/1.1/" xmlns:rdf="http://www.w3.org/1999/02/22-rdf-syntax-ns#">
   <cc:Work>
    <dc:type rdf:resource="http://purl.org/dc/dcmitype/StillImage"/>
    <dc:date>2021-01-22T10:10:54.231896</dc:date>
    <dc:format>image/svg+xml</dc:format>
    <dc:creator>
     <cc:Agent>
      <dc:title>Matplotlib v3.3.3, https://matplotlib.org/</dc:title>
     </cc:Agent>
    </dc:creator>
   </cc:Work>
  </rdf:RDF>
 </metadata>
 <defs>
  <style type="text/css">*{stroke-linecap:butt;stroke-linejoin:round;}</style>
 </defs>
 <g id="figure_1">
  <g id="patch_1">
   <path d="M 0 345.6 
L 460.8 345.6 
L 460.8 0 
L 0 0 
z
" style="fill:#ffffff;"/>
  </g>
  <g id="axes_1">
   <g id="patch_2">
    <path d="M 57.6 307.584 
L 414.72 307.584 
L 414.72 41.472 
L 57.6 41.472 
z
" style="fill:#7d9051;"/>
   </g>
   <g id="matplotlib.axis_1">
    <g id="xtick_1">
     <g id="line2d_1">
      <defs>
       <path d="M 0 0 
L 0 3.5 
" id="m5eadfa24bb" style="stroke:#000000;stroke-width:0.8;"/>
      </defs>
      <g>
       <use style="stroke:#000000;stroke-width:0.8;" x="59.624701" xlink:href="#m5eadfa24bb" y="307.584"/>
      </g>
     </g>
     <g id="text_1">
      <!-- 0 -->
      <g transform="translate(56.443451 322.182437)scale(0.1 -0.1)">
       <defs>
        <path d="M 31.78125 66.40625 
Q 24.171875 66.40625 20.328125 58.90625 
Q 16.5 51.421875 16.5 36.375 
Q 16.5 21.390625 20.328125 13.890625 
Q 24.171875 6.390625 31.78125 6.390625 
Q 39.453125 6.390625 43.28125 13.890625 
Q 47.125 21.390625 47.125 36.375 
Q 47.125 51.421875 43.28125 58.90625 
Q 39.453125 66.40625 31.78125 66.40625 
z
M 31.78125 74.21875 
Q 44.046875 74.21875 50.515625 64.515625 
Q 56.984375 54.828125 56.984375 36.375 
Q 56.984375 17.96875 50.515625 8.265625 
Q 44.046875 -1.421875 31.78125 -1.421875 
Q 19.53125 -1.421875 13.0625 8.265625 
Q 6.59375 17.96875 6.59375 36.375 
Q 6.59375 54.828125 13.0625 64.515625 
Q 19.53125 74.21875 31.78125 74.21875 
z
" id="DejaVuSans-48"/>
       </defs>
       <use xlink:href="#DejaVuSans-48"/>
      </g>
     </g>
    </g>
    <g id="xtick_2">
     <g id="line2d_2">
      <g>
       <use style="stroke:#000000;stroke-width:0.8;" x="106.979815" xlink:href="#m5eadfa24bb" y="307.584"/>
      </g>
     </g>
     <g id="text_2">
      <!-- 20 -->
      <g transform="translate(100.617315 322.182437)scale(0.1 -0.1)">
       <defs>
        <path d="M 19.1875 8.296875 
L 53.609375 8.296875 
L 53.609375 0 
L 7.328125 0 
L 7.328125 8.296875 
Q 12.9375 14.109375 22.625 23.890625 
Q 32.328125 33.6875 34.8125 36.53125 
Q 39.546875 41.84375 41.421875 45.53125 
Q 43.3125 49.21875 43.3125 52.78125 
Q 43.3125 58.59375 39.234375 62.25 
Q 35.15625 65.921875 28.609375 65.921875 
Q 23.96875 65.921875 18.8125 64.3125 
Q 13.671875 62.703125 7.8125 59.421875 
L 7.8125 69.390625 
Q 13.765625 71.78125 18.9375 73 
Q 24.125 74.21875 28.421875 74.21875 
Q 39.75 74.21875 46.484375 68.546875 
Q 53.21875 62.890625 53.21875 53.421875 
Q 53.21875 48.921875 51.53125 44.890625 
Q 49.859375 40.875 45.40625 35.40625 
Q 44.1875 33.984375 37.640625 27.21875 
Q 31.109375 20.453125 19.1875 8.296875 
z
" id="DejaVuSans-50"/>
       </defs>
       <use xlink:href="#DejaVuSans-50"/>
       <use x="63.623047" xlink:href="#DejaVuSans-48"/>
      </g>
     </g>
    </g>
    <g id="xtick_3">
     <g id="line2d_3">
      <g>
       <use style="stroke:#000000;stroke-width:0.8;" x="154.334929" xlink:href="#m5eadfa24bb" y="307.584"/>
      </g>
     </g>
     <g id="text_3">
      <!-- 40 -->
      <g transform="translate(147.972429 322.182437)scale(0.1 -0.1)">
       <defs>
        <path d="M 37.796875 64.3125 
L 12.890625 25.390625 
L 37.796875 25.390625 
z
M 35.203125 72.90625 
L 47.609375 72.90625 
L 47.609375 25.390625 
L 58.015625 25.390625 
L 58.015625 17.1875 
L 47.609375 17.1875 
L 47.609375 0 
L 37.796875 0 
L 37.796875 17.1875 
L 4.890625 17.1875 
L 4.890625 26.703125 
z
" id="DejaVuSans-52"/>
       </defs>
       <use xlink:href="#DejaVuSans-52"/>
       <use x="63.623047" xlink:href="#DejaVuSans-48"/>
      </g>
     </g>
    </g>
    <g id="xtick_4">
     <g id="line2d_4">
      <g>
       <use style="stroke:#000000;stroke-width:0.8;" x="201.690042" xlink:href="#m5eadfa24bb" y="307.584"/>
      </g>
     </g>
     <g id="text_4">
      <!-- 60 -->
      <g transform="translate(195.327542 322.182437)scale(0.1 -0.1)">
       <defs>
        <path d="M 33.015625 40.375 
Q 26.375 40.375 22.484375 35.828125 
Q 18.609375 31.296875 18.609375 23.390625 
Q 18.609375 15.53125 22.484375 10.953125 
Q 26.375 6.390625 33.015625 6.390625 
Q 39.65625 6.390625 43.53125 10.953125 
Q 47.40625 15.53125 47.40625 23.390625 
Q 47.40625 31.296875 43.53125 35.828125 
Q 39.65625 40.375 33.015625 40.375 
z
M 52.59375 71.296875 
L 52.59375 62.3125 
Q 48.875 64.0625 45.09375 64.984375 
Q 41.3125 65.921875 37.59375 65.921875 
Q 27.828125 65.921875 22.671875 59.328125 
Q 17.53125 52.734375 16.796875 39.40625 
Q 19.671875 43.65625 24.015625 45.921875 
Q 28.375 48.1875 33.59375 48.1875 
Q 44.578125 48.1875 50.953125 41.515625 
Q 57.328125 34.859375 57.328125 23.390625 
Q 57.328125 12.15625 50.6875 5.359375 
Q 44.046875 -1.421875 33.015625 -1.421875 
Q 20.359375 -1.421875 13.671875 8.265625 
Q 6.984375 17.96875 6.984375 36.375 
Q 6.984375 53.65625 15.1875 63.9375 
Q 23.390625 74.21875 37.203125 74.21875 
Q 40.921875 74.21875 44.703125 73.484375 
Q 48.484375 72.75 52.59375 71.296875 
z
" id="DejaVuSans-54"/>
       </defs>
       <use xlink:href="#DejaVuSans-54"/>
       <use x="63.623047" xlink:href="#DejaVuSans-48"/>
      </g>
     </g>
    </g>
    <g id="xtick_5">
     <g id="line2d_5">
      <g>
       <use style="stroke:#000000;stroke-width:0.8;" x="249.045156" xlink:href="#m5eadfa24bb" y="307.584"/>
      </g>
     </g>
     <g id="text_5">
      <!-- 80 -->
      <g transform="translate(242.682656 322.182437)scale(0.1 -0.1)">
       <defs>
        <path d="M 31.78125 34.625 
Q 24.75 34.625 20.71875 30.859375 
Q 16.703125 27.09375 16.703125 20.515625 
Q 16.703125 13.921875 20.71875 10.15625 
Q 24.75 6.390625 31.78125 6.390625 
Q 38.8125 6.390625 42.859375 10.171875 
Q 46.921875 13.96875 46.921875 20.515625 
Q 46.921875 27.09375 42.890625 30.859375 
Q 38.875 34.625 31.78125 34.625 
z
M 21.921875 38.8125 
Q 15.578125 40.375 12.03125 44.71875 
Q 8.5 49.078125 8.5 55.328125 
Q 8.5 64.0625 14.71875 69.140625 
Q 20.953125 74.21875 31.78125 74.21875 
Q 42.671875 74.21875 48.875 69.140625 
Q 55.078125 64.0625 55.078125 55.328125 
Q 55.078125 49.078125 51.53125 44.71875 
Q 48 40.375 41.703125 38.8125 
Q 48.828125 37.15625 52.796875 32.3125 
Q 56.78125 27.484375 56.78125 20.515625 
Q 56.78125 9.90625 50.3125 4.234375 
Q 43.84375 -1.421875 31.78125 -1.421875 
Q 19.734375 -1.421875 13.25 4.234375 
Q 6.78125 9.90625 6.78125 20.515625 
Q 6.78125 27.484375 10.78125 32.3125 
Q 14.796875 37.15625 21.921875 38.8125 
z
M 18.3125 54.390625 
Q 18.3125 48.734375 21.84375 45.5625 
Q 25.390625 42.390625 31.78125 42.390625 
Q 38.140625 42.390625 41.71875 45.5625 
Q 45.3125 48.734375 45.3125 54.390625 
Q 45.3125 60.0625 41.71875 63.234375 
Q 38.140625 66.40625 31.78125 66.40625 
Q 25.390625 66.40625 21.84375 63.234375 
Q 18.3125 60.0625 18.3125 54.390625 
z
" id="DejaVuSans-56"/>
       </defs>
       <use xlink:href="#DejaVuSans-56"/>
       <use x="63.623047" xlink:href="#DejaVuSans-48"/>
      </g>
     </g>
    </g>
    <g id="xtick_6">
     <g id="line2d_6">
      <g>
       <use style="stroke:#000000;stroke-width:0.8;" x="296.40027" xlink:href="#m5eadfa24bb" y="307.584"/>
      </g>
     </g>
     <g id="text_6">
      <!-- 100 -->
      <g transform="translate(286.85652 322.182437)scale(0.1 -0.1)">
       <defs>
        <path d="M 12.40625 8.296875 
L 28.515625 8.296875 
L 28.515625 63.921875 
L 10.984375 60.40625 
L 10.984375 69.390625 
L 28.421875 72.90625 
L 38.28125 72.90625 
L 38.28125 8.296875 
L 54.390625 8.296875 
L 54.390625 0 
L 12.40625 0 
z
" id="DejaVuSans-49"/>
       </defs>
       <use xlink:href="#DejaVuSans-49"/>
       <use x="63.623047" xlink:href="#DejaVuSans-48"/>
       <use x="127.246094" xlink:href="#DejaVuSans-48"/>
      </g>
     </g>
    </g>
    <g id="xtick_7">
     <g id="line2d_7">
      <g>
       <use style="stroke:#000000;stroke-width:0.8;" x="343.755383" xlink:href="#m5eadfa24bb" y="307.584"/>
      </g>
     </g>
     <g id="text_7">
      <!-- 120 -->
      <g transform="translate(334.211633 322.182437)scale(0.1 -0.1)">
       <use xlink:href="#DejaVuSans-49"/>
       <use x="63.623047" xlink:href="#DejaVuSans-50"/>
       <use x="127.246094" xlink:href="#DejaVuSans-48"/>
      </g>
     </g>
    </g>
    <g id="xtick_8">
     <g id="line2d_8">
      <g>
       <use style="stroke:#000000;stroke-width:0.8;" x="391.110497" xlink:href="#m5eadfa24bb" y="307.584"/>
      </g>
     </g>
     <g id="text_8">
      <!-- 140 -->
      <g transform="translate(381.566747 322.182437)scale(0.1 -0.1)">
       <use xlink:href="#DejaVuSans-49"/>
       <use x="63.623047" xlink:href="#DejaVuSans-52"/>
       <use x="127.246094" xlink:href="#DejaVuSans-48"/>
      </g>
     </g>
    </g>
   </g>
   <g id="matplotlib.axis_2">
    <g id="ytick_1">
     <g id="line2d_9">
      <defs>
       <path d="M 0 0 
L -3.5 0 
" id="m38ac3db699" style="stroke:#000000;stroke-width:0.8;"/>
      </defs>
      <g>
       <use style="stroke:#000000;stroke-width:0.8;" x="57.6" xlink:href="#m38ac3db699" y="266.789629"/>
      </g>
     </g>
     <g id="text_9">
      <!-- 0 -->
      <g transform="translate(44.2375 270.588848)scale(0.1 -0.1)">
       <use xlink:href="#DejaVuSans-48"/>
      </g>
     </g>
    </g>
    <g id="ytick_2">
     <g id="line2d_10">
      <g>
       <use style="stroke:#000000;stroke-width:0.8;" x="57.6" xlink:href="#m38ac3db699" y="219.434515"/>
      </g>
     </g>
     <g id="text_10">
      <!-- 20 -->
      <g transform="translate(37.875 223.233734)scale(0.1 -0.1)">
       <use xlink:href="#DejaVuSans-50"/>
       <use x="63.623047" xlink:href="#DejaVuSans-48"/>
      </g>
     </g>
    </g>
    <g id="ytick_3">
     <g id="line2d_11">
      <g>
       <use style="stroke:#000000;stroke-width:0.8;" x="57.6" xlink:href="#m38ac3db699" y="172.079402"/>
      </g>
     </g>
     <g id="text_11">
      <!-- 40 -->
      <g transform="translate(37.875 175.87862)scale(0.1 -0.1)">
       <use xlink:href="#DejaVuSans-52"/>
       <use x="63.623047" xlink:href="#DejaVuSans-48"/>
      </g>
     </g>
    </g>
    <g id="ytick_4">
     <g id="line2d_12">
      <g>
       <use style="stroke:#000000;stroke-width:0.8;" x="57.6" xlink:href="#m38ac3db699" y="124.724288"/>
      </g>
     </g>
     <g id="text_12">
      <!-- 60 -->
      <g transform="translate(37.875 128.523507)scale(0.1 -0.1)">
       <use xlink:href="#DejaVuSans-54"/>
       <use x="63.623047" xlink:href="#DejaVuSans-48"/>
      </g>
     </g>
    </g>
    <g id="ytick_5">
     <g id="line2d_13">
      <g>
       <use style="stroke:#000000;stroke-width:0.8;" x="57.6" xlink:href="#m38ac3db699" y="77.369174"/>
      </g>
     </g>
     <g id="text_13">
      <!-- 80 -->
      <g transform="translate(37.875 81.168393)scale(0.1 -0.1)">
       <use xlink:href="#DejaVuSans-56"/>
       <use x="63.623047" xlink:href="#DejaVuSans-48"/>
      </g>
     </g>
    </g>
   </g>
   <g id="line2d_14">
    <path clip-path="url(#p5fce213fda)" d="M 391.584048 133.842515 
L 385.053778 140.697168 
L 379.996252 145.771268 
L 374.780086 150.710407 
L 369.383971 155.445918 
L 365.676065 158.455335 
L 361.87345 161.322688 
L 357.969021 164.026665 
L 353.955675 166.550692 
L 349.83578 168.890035 
L 345.616439 171.06837 
L 341.300021 173.10464 
L 334.656098 175.93174 
L 330.126582 177.664937 
L 325.530768 179.180301 
L 320.882863 180.361811 
L 318.541153 180.792743 
L 316.192339 181.098183 
L 313.83879 181.263926 
L 311.478138 181.275765 
L 309.115118 181.126596 
L 306.759201 180.823523 
L 304.410387 180.378385 
L 302.080516 179.795917 
L 299.771954 179.090326 
L 297.494173 178.268715 
L 293.04516 176.312949 
L 288.787935 174.004387 
L 284.748544 171.411694 
L 280.908044 168.579859 
L 277.233287 165.549131 
L 273.693493 162.362132 
L 268.569669 157.380374 
L 256.799556 145.57948 
L 253.290542 142.3617 
L 249.651301 139.283618 
L 245.888938 136.352336 
L 242.008186 133.570223 
L 238.025621 130.94675 
L 233.94361 128.481916 
L 229.771625 126.182825 
L 225.509664 124.056581 
L 221.15773 122.112653 
L 216.71582 120.358146 
L 212.181568 118.800163 
L 207.566812 117.464749 
L 202.883391 116.396891 
L 198.157351 115.64868 
L 193.407633 115.274575 
L 191.028038 115.241426 
L 188.650812 115.32193 
L 183.912933 115.809688 
L 179.212938 116.699964 
L 174.576872 117.943036 
L 170.028413 119.491548 
L 165.586504 121.298145 
L 161.262982 123.315473 
L 157.031802 125.50328 
L 150.80934 129.009926 
L 130.24775 141.031021 
L 123.92821 144.350615 
L 113.280413 149.670962 
L 109.120266 151.988995 
L 105.087978 154.562745 
L 101.242743 157.472717 
L 99.4101 159.056745 
L 97.653225 160.723645 
L 95.976854 162.468681 
L 94.392826 164.289485 
L 92.910611 166.186058 
L 91.53968 168.148927 
L 90.289505 170.182829 
L 89.169557 172.278293 
L 88.189306 174.435318 
L 87.339282 176.646802 
L 86.612381 178.905641 
L 85.47349 183.541707 
L 84.685027 188.289057 
L 84.157018 193.093233 
L 83.66926 200.293578 
L 83.411175 207.4442 
L 83.316465 216.934165 
L 83.302258 243.112072 
L 83.302258 243.112072 
" style="fill:none;stroke:#fea952;stroke-linecap:square;"/>
   </g>
   <g id="line2d_15">
    <path clip-path="url(#p5fce213fda)" d="M 398.487273 140.326785 
L 391.811617 147.33282 
L 386.579951 152.579731 
L 381.126719 157.740379 
L 375.417587 162.746312 
L 371.451559 165.961596 
L 367.34708 169.05183 
L 363.102009 171.986105 
L 358.720779 174.735682 
L 354.259336 177.264545 
L 349.727379 179.600687 
L 345.134415 181.76476 
L 338.127217 184.743755 
L 333.226878 186.614151 
L 328.04879 188.310462 
L 325.359497 189.04411 
L 322.596979 189.676427 
L 319.762485 190.184687 
L 316.857665 190.545808 
L 313.886287 190.73483 
L 310.881455 190.727973 
L 307.906693 190.52021 
L 304.995679 190.128912 
L 302.113327 189.566627 
L 299.312199 188.853328 
L 296.55836 187.999483 
L 293.867205 187.017736 
L 291.255495 185.925845 
L 288.691692 184.724107 
L 283.808598 182.060842 
L 279.241846 179.117313 
L 274.97548 175.962606 
L 270.968612 172.652237 
L 267.177758 169.235667 
L 261.839782 164.044374 
L 250.332275 152.498623 
L 247.100583 149.530011 
L 243.754319 146.694817 
L 240.293818 143.993992 
L 236.724271 141.430281 
L 233.055069 139.008628 
L 229.295422 136.733862 
L 225.460926 134.615983 
L 221.55866 132.664126 
L 217.580465 130.882115 
L 213.533335 129.278464 
L 209.428426 127.862198 
L 205.318084 126.664939 
L 201.23533 125.723421 
L 197.216811 125.072886 
L 193.275711 124.744679 
L 189.413944 124.762158 
L 185.489742 125.148528 
L 181.503398 125.889853 
L 177.487773 126.955634 
L 173.476477 128.31261 
L 169.492196 129.926346 
L 165.54365 131.763914 
L 161.592087 133.804128 
L 155.604339 137.177438 
L 134.752565 149.362102 
L 128.137394 152.834897 
L 115.894368 159.023629 
L 112.318111 161.132478 
L 109.011589 163.40472 
L 105.92888 165.927391 
L 103.12234 168.684975 
L 100.675291 171.609158 
L 98.642368 174.647128 
L 97.791982 176.196717 
L 97.029775 177.833315 
L 95.759383 181.361781 
L 94.790847 185.240864 
L 94.086996 189.430658 
L 93.597344 193.855149 
L 93.130456 200.724911 
L 92.880502 207.623401 
L 92.787468 216.915223 
L 92.771789 243.28017 
L 92.771789 243.28017 
" style="fill:none;stroke:#ffffff;stroke-linecap:square;"/>
   </g>
   <g id="line2d_16">
    <path clip-path="url(#p5fce213fda)" d="M 384.680823 127.358245 
L 378.295939 134.061515 
L 371.758132 140.563239 
L 366.754587 145.197365 
L 361.639121 149.561767 
L 358.158431 152.291787 
L 354.624124 154.853617 
L 351.024842 157.238166 
L 347.32245 159.455826 
L 343.472205 161.542158 
L 339.49819 163.5046 
L 333.298714 166.252206 
L 327.026285 168.715723 
L 323.012746 170.05014 
L 319.168748 171.047195 
L 315.527014 171.650558 
L 312.07482 171.823556 
L 310.323542 171.732982 
L 306.707448 171.190144 
L 302.985548 170.181169 
L 299.243586 168.750529 
L 295.565451 166.960921 
L 291.993612 164.858198 
L 288.540601 162.485893 
L 285.170301 159.858838 
L 281.856747 157.001179 
L 276.94077 152.350353 
L 261.393473 136.91167 
L 257.528197 133.510165 
L 253.529607 130.268721 
L 249.402315 127.188817 
L 245.164524 124.281905 
L 240.814176 121.541477 
L 236.360669 118.975099 
L 231.79501 116.582519 
L 227.117103 114.375485 
L 222.327257 112.36356 
L 217.431905 110.560658 
L 212.394214 108.969783 
L 207.19369 107.628439 
L 201.838243 106.600617 
L 196.33108 105.956646 
L 193.539555 105.804471 
L 190.70749 105.77583 
L 187.88768 105.881702 
L 185.102427 106.115977 
L 182.336123 106.470847 
L 176.922477 107.510075 
L 171.665971 108.930437 
L 166.58035 110.670486 
L 161.680811 112.669945 
L 156.982313 114.867033 
L 152.471518 117.202431 
L 146.014342 120.842413 
L 125.742935 132.69994 
L 119.719027 135.866332 
L 108.768311 141.343825 
L 104.164908 143.917768 
L 99.53292 146.891917 
L 97.267041 148.543135 
L 95.049402 150.307327 
L 92.89132 152.186099 
L 90.823172 154.162346 
L 88.831369 156.252388 
L 86.930418 158.457441 
L 85.14593 160.762958 
L 83.471026 163.189382 
L 81.936643 165.718531 
L 80.547131 168.359869 
L 79.348837 171.037322 
L 78.323581 173.745523 
L 77.465378 176.449502 
L 76.750675 179.144606 
L 75.676252 184.500246 
L 74.968315 189.759889 
L 74.513064 194.865159 
L 74.095379 202.343937 
L 73.895844 209.70801 
L 73.859819 221.728813 
L 73.875347 240.54307 
L 73.832727 242.943974 
L 73.832727 242.943974 
" style="fill:none;stroke:#ffffff;stroke-linecap:square;"/>
   </g>
   <g id="patch_3">
    <path d="M 57.6 307.584 
L 57.6 41.472 
" style="fill:none;stroke:#000000;stroke-linecap:square;stroke-linejoin:miter;stroke-width:0.8;"/>
   </g>
   <g id="patch_4">
    <path d="M 414.72 307.584 
L 414.72 41.472 
" style="fill:none;stroke:#000000;stroke-linecap:square;stroke-linejoin:miter;stroke-width:0.8;"/>
   </g>
   <g id="patch_5">
    <path d="M 57.6 307.584 
L 414.72 307.584 
" style="fill:none;stroke:#000000;stroke-linecap:square;stroke-linejoin:miter;stroke-width:0.8;"/>
   </g>
   <g id="patch_6">
    <path d="M 57.6 41.472 
L 414.72 41.472 
" style="fill:none;stroke:#000000;stroke-linecap:square;stroke-linejoin:miter;stroke-width:0.8;"/>
   </g>
  </g>
 </g>
 <defs>
  <clipPath id="p5fce213fda">
   <rect height="266.112" width="357.12" x="57.6" y="41.472"/>
  </clipPath>
 </defs>
</svg>
