<?xml version="1.0" encoding="utf-8" standalone="no"?>
<!DOCTYPE svg PUBLIC "-//W3C//DTD SVG 1.1//EN"
  "http://www.w3.org/Graphics/SVG/1.1/DTD/svg11.dtd">
<!-- Created with matplotlib (https://matplotlib.org/) -->
<svg height="345.6pt" version="1.1" viewBox="0 0 460.8 345.6" width="460.8pt" xmlns="http://www.w3.org/2000/svg" xmlns:xlink="http://www.w3.org/1999/xlink">
 <metadata>
  <rdf:RDF xmlns:cc="http://creativecommons.org/ns#" xmlns:dc="http://purl.org/dc/elements/1.1/" xmlns:rdf="http://www.w3.org/1999/02/22-rdf-syntax-ns#">
   <cc:Work>
    <dc:type rdf:resource="http://purl.org/dc/dcmitype/StillImage"/>
    <dc:date>2021-01-21T14:53:47.732831</dc:date>
    <dc:format>image/svg+xml</dc:format>
    <dc:creator>
     <cc:Agent>
      <dc:title>Matplotlib v3.3.3, https://matplotlib.org/</dc:title>
     </cc:Agent>
    </dc:creator>
   </cc:Work>
  </rdf:RDF>
 </metadata>
 <defs>
  <style type="text/css">*{stroke-linecap:butt;stroke-linejoin:round;}</style>
 </defs>
 <g id="figure_1">
  <g id="patch_1">
   <path d="M 0 345.6 
L 460.8 345.6 
L 460.8 0 
L 0 0 
z
" style="fill:#ffffff;"/>
  </g>
  <g id="axes_1">
   <g id="patch_2">
    <path d="M 57.6 307.584 
L 414.72 307.584 
L 414.72 41.472 
L 57.6 41.472 
z
" style="fill:#7d9051;"/>
   </g>
   <g id="matplotlib.axis_1">
    <g id="xtick_1">
     <g id="line2d_1">
      <defs>
       <path d="M 0 0 
L 0 3.5 
" id="mdc888dcee2" style="stroke:#000000;stroke-width:0.8;"/>
      </defs>
      <g>
       <use style="stroke:#000000;stroke-width:0.8;" x="76.483617" xlink:href="#mdc888dcee2" y="307.584"/>
      </g>
     </g>
     <g id="text_1">
      <!-- 0 -->
      <g transform="translate(73.302367 322.182437)scale(0.1 -0.1)">
       <defs>
        <path d="M 31.78125 66.40625 
Q 24.171875 66.40625 20.328125 58.90625 
Q 16.5 51.421875 16.5 36.375 
Q 16.5 21.390625 20.328125 13.890625 
Q 24.171875 6.390625 31.78125 6.390625 
Q 39.453125 6.390625 43.28125 13.890625 
Q 47.125 21.390625 47.125 36.375 
Q 47.125 51.421875 43.28125 58.90625 
Q 39.453125 66.40625 31.78125 66.40625 
z
M 31.78125 74.21875 
Q 44.046875 74.21875 50.515625 64.515625 
Q 56.984375 54.828125 56.984375 36.375 
Q 56.984375 17.96875 50.515625 8.265625 
Q 44.046875 -1.421875 31.78125 -1.421875 
Q 19.53125 -1.421875 13.0625 8.265625 
Q 6.59375 17.96875 6.59375 36.375 
Q 6.59375 54.828125 13.0625 64.515625 
Q 19.53125 74.21875 31.78125 74.21875 
z
" id="DejaVuSans-48"/>
       </defs>
       <use xlink:href="#DejaVuSans-48"/>
      </g>
     </g>
    </g>
    <g id="xtick_2">
     <g id="line2d_2">
      <g>
       <use style="stroke:#000000;stroke-width:0.8;" x="129.506594" xlink:href="#mdc888dcee2" y="307.584"/>
      </g>
     </g>
     <g id="text_2">
      <!-- 20 -->
      <g transform="translate(123.144094 322.182437)scale(0.1 -0.1)">
       <defs>
        <path d="M 19.1875 8.296875 
L 53.609375 8.296875 
L 53.609375 0 
L 7.328125 0 
L 7.328125 8.296875 
Q 12.9375 14.109375 22.625 23.890625 
Q 32.328125 33.6875 34.8125 36.53125 
Q 39.546875 41.84375 41.421875 45.53125 
Q 43.3125 49.21875 43.3125 52.78125 
Q 43.3125 58.59375 39.234375 62.25 
Q 35.15625 65.921875 28.609375 65.921875 
Q 23.96875 65.921875 18.8125 64.3125 
Q 13.671875 62.703125 7.8125 59.421875 
L 7.8125 69.390625 
Q 13.765625 71.78125 18.9375 73 
Q 24.125 74.21875 28.421875 74.21875 
Q 39.75 74.21875 46.484375 68.546875 
Q 53.21875 62.890625 53.21875 53.421875 
Q 53.21875 48.921875 51.53125 44.890625 
Q 49.859375 40.875 45.40625 35.40625 
Q 44.1875 33.984375 37.640625 27.21875 
Q 31.109375 20.453125 19.1875 8.296875 
z
" id="DejaVuSans-50"/>
       </defs>
       <use xlink:href="#DejaVuSans-50"/>
       <use x="63.623047" xlink:href="#DejaVuSans-48"/>
      </g>
     </g>
    </g>
    <g id="xtick_3">
     <g id="line2d_3">
      <g>
       <use style="stroke:#000000;stroke-width:0.8;" x="182.529571" xlink:href="#mdc888dcee2" y="307.584"/>
      </g>
     </g>
     <g id="text_3">
      <!-- 40 -->
      <g transform="translate(176.167071 322.182437)scale(0.1 -0.1)">
       <defs>
        <path d="M 37.796875 64.3125 
L 12.890625 25.390625 
L 37.796875 25.390625 
z
M 35.203125 72.90625 
L 47.609375 72.90625 
L 47.609375 25.390625 
L 58.015625 25.390625 
L 58.015625 17.1875 
L 47.609375 17.1875 
L 47.609375 0 
L 37.796875 0 
L 37.796875 17.1875 
L 4.890625 17.1875 
L 4.890625 26.703125 
z
" id="DejaVuSans-52"/>
       </defs>
       <use xlink:href="#DejaVuSans-52"/>
       <use x="63.623047" xlink:href="#DejaVuSans-48"/>
      </g>
     </g>
    </g>
    <g id="xtick_4">
     <g id="line2d_4">
      <g>
       <use style="stroke:#000000;stroke-width:0.8;" x="235.552547" xlink:href="#mdc888dcee2" y="307.584"/>
      </g>
     </g>
     <g id="text_4">
      <!-- 60 -->
      <g transform="translate(229.190047 322.182437)scale(0.1 -0.1)">
       <defs>
        <path d="M 33.015625 40.375 
Q 26.375 40.375 22.484375 35.828125 
Q 18.609375 31.296875 18.609375 23.390625 
Q 18.609375 15.53125 22.484375 10.953125 
Q 26.375 6.390625 33.015625 6.390625 
Q 39.65625 6.390625 43.53125 10.953125 
Q 47.40625 15.53125 47.40625 23.390625 
Q 47.40625 31.296875 43.53125 35.828125 
Q 39.65625 40.375 33.015625 40.375 
z
M 52.59375 71.296875 
L 52.59375 62.3125 
Q 48.875 64.0625 45.09375 64.984375 
Q 41.3125 65.921875 37.59375 65.921875 
Q 27.828125 65.921875 22.671875 59.328125 
Q 17.53125 52.734375 16.796875 39.40625 
Q 19.671875 43.65625 24.015625 45.921875 
Q 28.375 48.1875 33.59375 48.1875 
Q 44.578125 48.1875 50.953125 41.515625 
Q 57.328125 34.859375 57.328125 23.390625 
Q 57.328125 12.15625 50.6875 5.359375 
Q 44.046875 -1.421875 33.015625 -1.421875 
Q 20.359375 -1.421875 13.671875 8.265625 
Q 6.984375 17.96875 6.984375 36.375 
Q 6.984375 53.65625 15.1875 63.9375 
Q 23.390625 74.21875 37.203125 74.21875 
Q 40.921875 74.21875 44.703125 73.484375 
Q 48.484375 72.75 52.59375 71.296875 
z
" id="DejaVuSans-54"/>
       </defs>
       <use xlink:href="#DejaVuSans-54"/>
       <use x="63.623047" xlink:href="#DejaVuSans-48"/>
      </g>
     </g>
    </g>
    <g id="xtick_5">
     <g id="line2d_5">
      <g>
       <use style="stroke:#000000;stroke-width:0.8;" x="288.575524" xlink:href="#mdc888dcee2" y="307.584"/>
      </g>
     </g>
     <g id="text_5">
      <!-- 80 -->
      <g transform="translate(282.213024 322.182437)scale(0.1 -0.1)">
       <defs>
        <path d="M 31.78125 34.625 
Q 24.75 34.625 20.71875 30.859375 
Q 16.703125 27.09375 16.703125 20.515625 
Q 16.703125 13.921875 20.71875 10.15625 
Q 24.75 6.390625 31.78125 6.390625 
Q 38.8125 6.390625 42.859375 10.171875 
Q 46.921875 13.96875 46.921875 20.515625 
Q 46.921875 27.09375 42.890625 30.859375 
Q 38.875 34.625 31.78125 34.625 
z
M 21.921875 38.8125 
Q 15.578125 40.375 12.03125 44.71875 
Q 8.5 49.078125 8.5 55.328125 
Q 8.5 64.0625 14.71875 69.140625 
Q 20.953125 74.21875 31.78125 74.21875 
Q 42.671875 74.21875 48.875 69.140625 
Q 55.078125 64.0625 55.078125 55.328125 
Q 55.078125 49.078125 51.53125 44.71875 
Q 48 40.375 41.703125 38.8125 
Q 48.828125 37.15625 52.796875 32.3125 
Q 56.78125 27.484375 56.78125 20.515625 
Q 56.78125 9.90625 50.3125 4.234375 
Q 43.84375 -1.421875 31.78125 -1.421875 
Q 19.734375 -1.421875 13.25 4.234375 
Q 6.78125 9.90625 6.78125 20.515625 
Q 6.78125 27.484375 10.78125 32.3125 
Q 14.796875 37.15625 21.921875 38.8125 
z
M 18.3125 54.390625 
Q 18.3125 48.734375 21.84375 45.5625 
Q 25.390625 42.390625 31.78125 42.390625 
Q 38.140625 42.390625 41.71875 45.5625 
Q 45.3125 48.734375 45.3125 54.390625 
Q 45.3125 60.0625 41.71875 63.234375 
Q 38.140625 66.40625 31.78125 66.40625 
Q 25.390625 66.40625 21.84375 63.234375 
Q 18.3125 60.0625 18.3125 54.390625 
z
" id="DejaVuSans-56"/>
       </defs>
       <use xlink:href="#DejaVuSans-56"/>
       <use x="63.623047" xlink:href="#DejaVuSans-48"/>
      </g>
     </g>
    </g>
    <g id="xtick_6">
     <g id="line2d_6">
      <g>
       <use style="stroke:#000000;stroke-width:0.8;" x="341.598501" xlink:href="#mdc888dcee2" y="307.584"/>
      </g>
     </g>
     <g id="text_6">
      <!-- 100 -->
      <g transform="translate(332.054751 322.182437)scale(0.1 -0.1)">
       <defs>
        <path d="M 12.40625 8.296875 
L 28.515625 8.296875 
L 28.515625 63.921875 
L 10.984375 60.40625 
L 10.984375 69.390625 
L 28.421875 72.90625 
L 38.28125 72.90625 
L 38.28125 8.296875 
L 54.390625 8.296875 
L 54.390625 0 
L 12.40625 0 
z
" id="DejaVuSans-49"/>
       </defs>
       <use xlink:href="#DejaVuSans-49"/>
       <use x="63.623047" xlink:href="#DejaVuSans-48"/>
       <use x="127.246094" xlink:href="#DejaVuSans-48"/>
      </g>
     </g>
    </g>
    <g id="xtick_7">
     <g id="line2d_7">
      <g>
       <use style="stroke:#000000;stroke-width:0.8;" x="394.621477" xlink:href="#mdc888dcee2" y="307.584"/>
      </g>
     </g>
     <g id="text_7">
      <!-- 120 -->
      <g transform="translate(385.077727 322.182437)scale(0.1 -0.1)">
       <use xlink:href="#DejaVuSans-49"/>
       <use x="63.623047" xlink:href="#DejaVuSans-50"/>
       <use x="127.246094" xlink:href="#DejaVuSans-48"/>
      </g>
     </g>
    </g>
   </g>
   <g id="matplotlib.axis_2">
    <g id="ytick_1">
     <g id="line2d_8">
      <defs>
       <path d="M 0 0 
L -3.5 0 
" id="m47b9ef4ef5" style="stroke:#000000;stroke-width:0.8;"/>
      </defs>
      <g>
       <use style="stroke:#000000;stroke-width:0.8;" x="57.6" xlink:href="#m47b9ef4ef5" y="267.076702"/>
      </g>
     </g>
     <g id="text_8">
      <!-- 20 -->
      <g transform="translate(37.875 270.875921)scale(0.1 -0.1)">
       <use xlink:href="#DejaVuSans-50"/>
       <use x="63.623047" xlink:href="#DejaVuSans-48"/>
      </g>
     </g>
    </g>
    <g id="ytick_2">
     <g id="line2d_9">
      <g>
       <use style="stroke:#000000;stroke-width:0.8;" x="57.6" xlink:href="#m47b9ef4ef5" y="214.053725"/>
      </g>
     </g>
     <g id="text_9">
      <!-- 40 -->
      <g transform="translate(37.875 217.852944)scale(0.1 -0.1)">
       <use xlink:href="#DejaVuSans-52"/>
       <use x="63.623047" xlink:href="#DejaVuSans-48"/>
      </g>
     </g>
    </g>
    <g id="ytick_3">
     <g id="line2d_10">
      <g>
       <use style="stroke:#000000;stroke-width:0.8;" x="57.6" xlink:href="#m47b9ef4ef5" y="161.030749"/>
      </g>
     </g>
     <g id="text_10">
      <!-- 60 -->
      <g transform="translate(37.875 164.829968)scale(0.1 -0.1)">
       <use xlink:href="#DejaVuSans-54"/>
       <use x="63.623047" xlink:href="#DejaVuSans-48"/>
      </g>
     </g>
    </g>
    <g id="ytick_4">
     <g id="line2d_11">
      <g>
       <use style="stroke:#000000;stroke-width:0.8;" x="57.6" xlink:href="#m47b9ef4ef5" y="108.007772"/>
      </g>
     </g>
     <g id="text_11">
      <!-- 80 -->
      <g transform="translate(37.875 111.806991)scale(0.1 -0.1)">
       <use xlink:href="#DejaVuSans-56"/>
       <use x="63.623047" xlink:href="#DejaVuSans-48"/>
      </g>
     </g>
    </g>
    <g id="ytick_5">
     <g id="line2d_12">
      <g>
       <use style="stroke:#000000;stroke-width:0.8;" x="57.6" xlink:href="#m47b9ef4ef5" y="54.984795"/>
      </g>
     </g>
     <g id="text_12">
      <!-- 100 -->
      <g transform="translate(31.5125 58.784014)scale(0.1 -0.1)">
       <use xlink:href="#DejaVuSans-49"/>
       <use x="63.623047" xlink:href="#DejaVuSans-48"/>
       <use x="127.246094" xlink:href="#DejaVuSans-48"/>
      </g>
     </g>
    </g>
   </g>
   <g id="line2d_13">
    <path clip-path="url(#p3448e1e33a)" d="M 102.995106 293.58819 
L 102.15204 288.352171 
L 101.73581 283.044572 
L 101.743763 277.702507 
L 102.170598 272.365744 
L 103.016315 267.076702 
L 104.272959 261.869846 
L 105.940532 256.787593 
L 106.926759 254.303467 
L 108.01373 251.867061 
L 109.201445 249.478376 
L 110.487252 247.145365 
L 111.873803 244.873331 
L 113.358447 242.664924 
L 114.943834 240.528098 
L 116.61936 238.460202 
L 120.227573 234.539152 
L 124.14332 230.90973 
L 128.318879 227.574584 
L 132.709182 224.544321 
L 137.277111 221.81894 
L 142.006761 219.406395 
L 146.887526 217.306685 
L 151.906151 215.519811 
L 157.057333 214.051074 
L 162.319863 212.913731 
L 167.648672 212.150201 
L 170.323682 211.930155 
L 172.99604 211.824109 
L 175.660444 211.840016 
L 178.308942 211.98848 
L 180.93623 212.272153 
L 183.534356 212.70164 
L 186.100668 213.276939 
L 188.635166 213.992749 
L 193.616675 215.769019 
L 198.49744 217.916449 
L 203.29602 220.310437 
L 212.728807 225.376782 
L 222.097967 230.347686 
L 229.218953 233.831296 
L 234.062602 235.968122 
L 239.001692 237.914065 
L 244.02827 239.637312 
L 249.142336 241.103397 
L 254.333286 242.280507 
L 259.601118 243.128875 
L 264.921974 243.621988 
L 270.261388 243.720081 
L 272.925793 243.614035 
L 275.584895 243.39399 
L 278.22809 243.059945 
L 280.855379 242.606598 
L 283.461458 242.028648 
L 286.038375 241.323442 
L 288.583478 240.493633 
L 291.086162 239.54187 
L 293.543777 238.465504 
L 295.943067 237.272487 
L 298.28138 235.960168 
L 300.550763 234.53385 
L 302.743263 232.993533 
L 304.850927 231.341867 
L 306.868451 229.581504 
L 308.787883 227.715095 
L 310.606571 225.750594 
L 312.319213 223.690651 
L 313.925809 221.545872 
L 315.423708 219.318907 
L 316.807608 217.023012 
L 318.077508 214.660839 
L 319.225456 212.24034 
L 320.254101 209.766818 
L 321.158143 207.250878 
L 321.93493 204.69517 
L 322.589764 202.107649 
L 323.125296 199.493616 
L 323.544177 196.858374 
L 324.053198 191.54017 
L 324.148639 186.200756 
L 323.862315 180.877249 
L 323.22869 175.606765 
L 322.290184 170.391955 
L 321.089213 165.224866 
L 319.670849 160.097544 
L 318.082811 155.004687 
L 313.893995 142.329545 
L 312.488887 137.21813 
L 311.446985 132.045739 
L 311.107638 129.426404 
L 310.911453 126.783208 
L 310.855779 124.124106 
L 310.940616 121.45705 
L 311.163312 118.787343 
L 311.521217 116.128241 
L 312.014331 113.485046 
L 312.637351 110.865711 
L 313.390277 108.28084 
L 314.270459 105.738389 
L 315.275244 103.243658 
L 316.401982 100.807252 
L 317.645371 98.434474 
L 319.002759 96.125323 
L 320.466193 93.882451 
L 322.030371 91.713811 
L 323.695293 89.619404 
L 325.447702 87.604531 
L 327.29025 85.669192 
L 329.212333 83.81869 
L 331.2113 82.058327 
L 333.281847 80.385452 
L 337.619126 77.312771 
L 342.189707 74.58739 
L 346.959124 72.198705 
L 351.892912 70.138762 
L 356.956606 68.391655 
L 362.118393 66.952081 
L 367.338505 65.804134 
L 372.585128 64.937208 
L 377.823798 64.3407 
L 380.429878 64.141863 
L 380.429878 64.141863 
" style="fill:none;stroke:#fea952;stroke-linecap:square;"/>
   </g>
   <g id="line2d_14">
    <path clip-path="url(#p3448e1e33a)" d="M 92.562073 295.488 
L 92.018551 292.453661 
L 91.599137 289.397955 
L 91.302667 286.315878 
L 91.133102 283.244623 
L 91.083368 280.14347 
L 91.158571 277.061298 
L 91.352896 273.983835 
L 91.668425 270.89544 
L 92.104711 267.836975 
L 92.661292 264.789575 
L 93.335981 261.772075 
L 94.134588 258.760045 
L 95.047808 255.810128 
L 96.084289 252.874549 
L 97.242251 249.982849 
L 98.518177 247.145632 
L 99.91399 244.359722 
L 101.435151 241.621154 
L 103.073068 238.95687 
L 104.841917 236.346208 
L 106.704419 233.852059 
L 108.670714 231.440481 
L 110.727298 229.125136 
L 112.867131 226.904931 
L 115.095202 224.768164 
L 119.732334 220.80154 
L 124.615103 217.192589 
L 129.692548 213.945588 
L 134.961552 211.047943 
L 140.3986 208.508308 
L 145.985052 206.326867 
L 151.720399 204.502983 
L 157.610982 203.037198 
L 163.672631 201.957767 
L 166.779278 201.581303 
L 169.903195 201.3339 
L 173.059349 201.219703 
L 176.253964 201.252043 
L 179.447322 201.445164 
L 182.665763 201.809546 
L 185.854054 202.353865 
L 188.982943 203.071551 
L 191.991831 203.933413 
L 194.902012 204.913803 
L 200.473561 207.160214 
L 205.730767 209.645463 
L 213.088813 213.509529 
L 226.887257 220.886178 
L 233.587935 224.16851 
L 238.048525 226.141125 
L 242.557674 227.923448 
L 247.091951 229.484908 
L 251.637148 230.79644 
L 256.189443 231.83962 
L 260.768736 232.588756 
L 265.321863 233.024935 
L 269.839648 233.123875 
L 274.255271 232.87308 
L 278.55938 232.253539 
L 282.751144 231.241203 
L 286.831793 229.828077 
L 290.753008 228.024745 
L 294.454648 225.856591 
L 297.878909 223.351347 
L 299.475617 221.978646 
L 302.452158 218.970992 
L 305.126501 215.62729 
L 307.467204 212.001628 
L 309.433806 208.168357 
L 311.011857 204.166996 
L 312.200942 199.97931 
L 313.010078 195.637639 
L 313.455753 191.15079 
L 313.551209 186.590522 
L 313.315062 181.978568 
L 312.767809 177.346709 
L 311.933398 172.671084 
L 310.84163 167.953325 
L 309.523413 163.177639 
L 307.194711 155.874587 
L 303.709912 145.286214 
L 302.139078 139.528735 
L 301.476313 136.517577 
L 300.930281 133.408227 
L 300.532133 130.211346 
L 300.309181 127.00519 
L 300.256544 123.786953 
L 300.372724 120.575518 
L 300.653488 117.372761 
L 301.096484 114.183406 
L 301.697555 111.031157 
L 302.455887 107.900033 
L 303.369206 104.811606 
L 304.433739 101.776522 
L 305.650077 98.792411 
L 307.008919 95.885077 
L 308.503289 93.060483 
L 310.121491 90.330453 
L 311.865388 87.678936 
L 313.72911 85.114834 
L 315.693686 82.660112 
L 317.767261 80.29233 
L 319.935271 78.029708 
L 322.203787 75.86019 
L 324.54681 73.809569 
L 326.976786 71.858809 
L 329.465729 70.029269 
L 332.017715 68.308237 
L 334.618827 66.698995 
L 337.275013 65.19041 
L 342.710809 62.482262 
L 348.282352 60.167739 
L 353.957534 58.219978 
L 359.700073 56.626909 
L 365.470298 55.365396 
L 371.255389 54.416313 
L 377.017044 53.766836 
L 379.623123 53.568 
L 379.623123 53.568 
" style="fill:none;stroke:#ffffff;stroke-linecap:square;"/>
   </g>
   <g id="line2d_15">
    <path clip-path="url(#p3448e1e33a)" d="M 113.428138 291.688381 
L 112.704944 287.306388 
L 112.338518 282.84452 
L 112.328956 278.343715 
L 112.672772 273.836048 
L 113.371337 269.36383 
L 114.411331 264.979647 
L 115.796775 260.700638 
L 117.509284 256.588491 
L 119.539353 252.669576 
L 121.874976 248.983639 
L 124.568005 245.479922 
L 127.588015 242.173374 
L 130.90942 239.075349 
L 134.489646 236.198915 
L 138.293503 233.559464 
L 142.251023 231.18471 
L 146.355872 229.078141 
L 150.606416 227.237813 
L 154.974561 225.670786 
L 159.471636 224.377186 
L 164.020926 223.381006 
L 168.518066 222.719098 
L 172.93273 222.428516 
L 177.170561 222.531797 
L 179.206697 222.734761 
L 181.214659 223.049414 
L 183.218393 223.482326 
L 187.37369 224.741918 
L 191.659113 226.451022 
L 196.078599 228.531051 
L 202.978432 232.15383 
L 217.308677 239.809195 
L 222.298905 242.290869 
L 227.437409 244.662031 
L 232.731832 246.86978 
L 238.182662 248.875782 
L 243.795612 250.639754 
L 249.531912 252.103947 
L 255.441997 253.242795 
L 261.468376 253.998341 
L 264.522085 254.219041 
L 267.602212 254.327322 
L 270.683127 254.316287 
L 273.800352 254.182506 
L 276.914518 253.914899 
L 280.031297 253.510107 
L 283.151378 252.959657 
L 286.260615 252.257146 
L 289.325605 251.405682 
L 292.352987 250.405658 
L 295.340531 249.255664 
L 298.2653 247.961011 
L 301.133126 246.520229 
L 303.924414 244.938676 
L 306.646879 243.211109 
L 309.284341 241.340493 
L 311.822944 239.332387 
L 314.261285 237.184362 
L 316.569699 234.919314 
L 318.760983 232.530196 
L 320.806665 230.048372 
L 322.725117 227.464454 
L 324.50595 224.793422 
L 326.148012 222.044396 
L 327.659144 219.205032 
L 329.017105 216.312322 
L 330.233975 213.352842 
L 331.304429 210.334759 
L 332.21542 207.296893 
L 332.978585 204.235988 
L 333.598408 201.158356 
L 334.078277 198.079109 
L 334.426113 195.00423 
L 334.650642 191.929549 
L 334.75588 188.859932 
L 334.628619 182.784156 
L 334.094335 176.80672 
L 333.205025 170.976307 
L 332.020502 165.279689 
L 330.598194 159.730043 
L 328.996419 154.31397 
L 326.42689 146.54752 
L 324.078079 139.372876 
L 322.838695 134.907524 
L 321.963689 130.683251 
L 321.683143 128.641461 
L 321.513725 126.561226 
L 321.455013 124.461258 
L 321.673136 120.201926 
L 322.331107 115.938935 
L 323.411348 111.750074 
L 324.900411 107.694905 
L 326.787453 103.808464 
L 329.066998 100.085966 
L 331.696899 96.578695 
L 334.64523 93.308676 
L 337.87579 90.307086 
L 341.371617 87.581466 
L 345.136983 85.116329 
L 349.133626 82.915691 
L 353.330911 80.980273 
L 357.717702 79.302802 
L 362.225985 77.889133 
L 366.85819 76.72949 
L 371.549116 75.819808 
L 376.276069 75.156396 
L 381.236632 74.715727 
L 381.236632 74.715727 
" style="fill:none;stroke:#ffffff;stroke-linecap:square;"/>
   </g>
   <g id="patch_3">
    <path d="M 57.6 307.584 
L 57.6 41.472 
" style="fill:none;stroke:#000000;stroke-linecap:square;stroke-linejoin:miter;stroke-width:0.8;"/>
   </g>
   <g id="patch_4">
    <path d="M 414.72 307.584 
L 414.72 41.472 
" style="fill:none;stroke:#000000;stroke-linecap:square;stroke-linejoin:miter;stroke-width:0.8;"/>
   </g>
   <g id="patch_5">
    <path d="M 57.6 307.584 
L 414.72 307.584 
" style="fill:none;stroke:#000000;stroke-linecap:square;stroke-linejoin:miter;stroke-width:0.8;"/>
   </g>
   <g id="patch_6">
    <path d="M 57.6 41.472 
L 414.72 41.472 
" style="fill:none;stroke:#000000;stroke-linecap:square;stroke-linejoin:miter;stroke-width:0.8;"/>
   </g>
  </g>
 </g>
 <defs>
  <clipPath id="p3448e1e33a">
   <rect height="266.112" width="357.12" x="57.6" y="41.472"/>
  </clipPath>
 </defs>
</svg>
