<?xml version="1.0" encoding="utf-8" standalone="no"?>
<!DOCTYPE svg PUBLIC "-//W3C//DTD SVG 1.1//EN"
  "http://www.w3.org/Graphics/SVG/1.1/DTD/svg11.dtd">
<!-- Created with matplotlib (https://matplotlib.org/) -->
<svg height="345.6pt" version="1.1" viewBox="0 0 460.8 345.6" width="460.8pt" xmlns="http://www.w3.org/2000/svg" xmlns:xlink="http://www.w3.org/1999/xlink">
 <metadata>
  <rdf:RDF xmlns:cc="http://creativecommons.org/ns#" xmlns:dc="http://purl.org/dc/elements/1.1/" xmlns:rdf="http://www.w3.org/1999/02/22-rdf-syntax-ns#">
   <cc:Work>
    <dc:type rdf:resource="http://purl.org/dc/dcmitype/StillImage"/>
    <dc:date>2021-01-25T11:49:43.059302</dc:date>
    <dc:format>image/svg+xml</dc:format>
    <dc:creator>
     <cc:Agent>
      <dc:title>Matplotlib v3.3.3, https://matplotlib.org/</dc:title>
     </cc:Agent>
    </dc:creator>
   </cc:Work>
  </rdf:RDF>
 </metadata>
 <defs>
  <style type="text/css">*{stroke-linecap:butt;stroke-linejoin:round;}</style>
 </defs>
 <g id="figure_1">
  <g id="patch_1">
   <path d="M 0 345.6 
L 460.8 345.6 
L 460.8 0 
L 0 0 
z
" style="fill:#ffffff;"/>
  </g>
  <g id="axes_1">
   <g id="patch_2">
    <path d="M 57.6 307.584 
L 414.72 307.584 
L 414.72 41.472 
L 57.6 41.472 
z
" style="fill:#7d9051;"/>
   </g>
   <g id="matplotlib.axis_1">
    <g id="xtick_1">
     <g id="line2d_1">
      <defs>
       <path d="M 0 0 
L 0 3.5 
" id="ma41f784581" style="stroke:#000000;stroke-width:0.8;"/>
      </defs>
      <g>
       <use style="stroke:#000000;stroke-width:0.8;" x="61.275024" xlink:href="#ma41f784581" y="307.584"/>
      </g>
     </g>
     <g id="text_1">
      <!-- 0 -->
      <g transform="translate(58.093774 322.182437)scale(0.1 -0.1)">
       <defs>
        <path d="M 31.78125 66.40625 
Q 24.171875 66.40625 20.328125 58.90625 
Q 16.5 51.421875 16.5 36.375 
Q 16.5 21.390625 20.328125 13.890625 
Q 24.171875 6.390625 31.78125 6.390625 
Q 39.453125 6.390625 43.28125 13.890625 
Q 47.125 21.390625 47.125 36.375 
Q 47.125 51.421875 43.28125 58.90625 
Q 39.453125 66.40625 31.78125 66.40625 
z
M 31.78125 74.21875 
Q 44.046875 74.21875 50.515625 64.515625 
Q 56.984375 54.828125 56.984375 36.375 
Q 56.984375 17.96875 50.515625 8.265625 
Q 44.046875 -1.421875 31.78125 -1.421875 
Q 19.53125 -1.421875 13.0625 8.265625 
Q 6.59375 17.96875 6.59375 36.375 
Q 6.59375 54.828125 13.0625 64.515625 
Q 19.53125 74.21875 31.78125 74.21875 
z
" id="DejaVuSans-48"/>
       </defs>
       <use xlink:href="#DejaVuSans-48"/>
      </g>
     </g>
    </g>
    <g id="xtick_2">
     <g id="line2d_2">
      <g>
       <use style="stroke:#000000;stroke-width:0.8;" x="132.60551" xlink:href="#ma41f784581" y="307.584"/>
      </g>
     </g>
     <g id="text_2">
      <!-- 20 -->
      <g transform="translate(126.24301 322.182437)scale(0.1 -0.1)">
       <defs>
        <path d="M 19.1875 8.296875 
L 53.609375 8.296875 
L 53.609375 0 
L 7.328125 0 
L 7.328125 8.296875 
Q 12.9375 14.109375 22.625 23.890625 
Q 32.328125 33.6875 34.8125 36.53125 
Q 39.546875 41.84375 41.421875 45.53125 
Q 43.3125 49.21875 43.3125 52.78125 
Q 43.3125 58.59375 39.234375 62.25 
Q 35.15625 65.921875 28.609375 65.921875 
Q 23.96875 65.921875 18.8125 64.3125 
Q 13.671875 62.703125 7.8125 59.421875 
L 7.8125 69.390625 
Q 13.765625 71.78125 18.9375 73 
Q 24.125 74.21875 28.421875 74.21875 
Q 39.75 74.21875 46.484375 68.546875 
Q 53.21875 62.890625 53.21875 53.421875 
Q 53.21875 48.921875 51.53125 44.890625 
Q 49.859375 40.875 45.40625 35.40625 
Q 44.1875 33.984375 37.640625 27.21875 
Q 31.109375 20.453125 19.1875 8.296875 
z
" id="DejaVuSans-50"/>
       </defs>
       <use xlink:href="#DejaVuSans-50"/>
       <use x="63.623047" xlink:href="#DejaVuSans-48"/>
      </g>
     </g>
    </g>
    <g id="xtick_3">
     <g id="line2d_3">
      <g>
       <use style="stroke:#000000;stroke-width:0.8;" x="203.935995" xlink:href="#ma41f784581" y="307.584"/>
      </g>
     </g>
     <g id="text_3">
      <!-- 40 -->
      <g transform="translate(197.573495 322.182437)scale(0.1 -0.1)">
       <defs>
        <path d="M 37.796875 64.3125 
L 12.890625 25.390625 
L 37.796875 25.390625 
z
M 35.203125 72.90625 
L 47.609375 72.90625 
L 47.609375 25.390625 
L 58.015625 25.390625 
L 58.015625 17.1875 
L 47.609375 17.1875 
L 47.609375 0 
L 37.796875 0 
L 37.796875 17.1875 
L 4.890625 17.1875 
L 4.890625 26.703125 
z
" id="DejaVuSans-52"/>
       </defs>
       <use xlink:href="#DejaVuSans-52"/>
       <use x="63.623047" xlink:href="#DejaVuSans-48"/>
      </g>
     </g>
    </g>
    <g id="xtick_4">
     <g id="line2d_4">
      <g>
       <use style="stroke:#000000;stroke-width:0.8;" x="275.266481" xlink:href="#ma41f784581" y="307.584"/>
      </g>
     </g>
     <g id="text_4">
      <!-- 60 -->
      <g transform="translate(268.903981 322.182437)scale(0.1 -0.1)">
       <defs>
        <path d="M 33.015625 40.375 
Q 26.375 40.375 22.484375 35.828125 
Q 18.609375 31.296875 18.609375 23.390625 
Q 18.609375 15.53125 22.484375 10.953125 
Q 26.375 6.390625 33.015625 6.390625 
Q 39.65625 6.390625 43.53125 10.953125 
Q 47.40625 15.53125 47.40625 23.390625 
Q 47.40625 31.296875 43.53125 35.828125 
Q 39.65625 40.375 33.015625 40.375 
z
M 52.59375 71.296875 
L 52.59375 62.3125 
Q 48.875 64.0625 45.09375 64.984375 
Q 41.3125 65.921875 37.59375 65.921875 
Q 27.828125 65.921875 22.671875 59.328125 
Q 17.53125 52.734375 16.796875 39.40625 
Q 19.671875 43.65625 24.015625 45.921875 
Q 28.375 48.1875 33.59375 48.1875 
Q 44.578125 48.1875 50.953125 41.515625 
Q 57.328125 34.859375 57.328125 23.390625 
Q 57.328125 12.15625 50.6875 5.359375 
Q 44.046875 -1.421875 33.015625 -1.421875 
Q 20.359375 -1.421875 13.671875 8.265625 
Q 6.984375 17.96875 6.984375 36.375 
Q 6.984375 53.65625 15.1875 63.9375 
Q 23.390625 74.21875 37.203125 74.21875 
Q 40.921875 74.21875 44.703125 73.484375 
Q 48.484375 72.75 52.59375 71.296875 
z
" id="DejaVuSans-54"/>
       </defs>
       <use xlink:href="#DejaVuSans-54"/>
       <use x="63.623047" xlink:href="#DejaVuSans-48"/>
      </g>
     </g>
    </g>
    <g id="xtick_5">
     <g id="line2d_5">
      <g>
       <use style="stroke:#000000;stroke-width:0.8;" x="346.596967" xlink:href="#ma41f784581" y="307.584"/>
      </g>
     </g>
     <g id="text_5">
      <!-- 80 -->
      <g transform="translate(340.234467 322.182437)scale(0.1 -0.1)">
       <defs>
        <path d="M 31.78125 34.625 
Q 24.75 34.625 20.71875 30.859375 
Q 16.703125 27.09375 16.703125 20.515625 
Q 16.703125 13.921875 20.71875 10.15625 
Q 24.75 6.390625 31.78125 6.390625 
Q 38.8125 6.390625 42.859375 10.171875 
Q 46.921875 13.96875 46.921875 20.515625 
Q 46.921875 27.09375 42.890625 30.859375 
Q 38.875 34.625 31.78125 34.625 
z
M 21.921875 38.8125 
Q 15.578125 40.375 12.03125 44.71875 
Q 8.5 49.078125 8.5 55.328125 
Q 8.5 64.0625 14.71875 69.140625 
Q 20.953125 74.21875 31.78125 74.21875 
Q 42.671875 74.21875 48.875 69.140625 
Q 55.078125 64.0625 55.078125 55.328125 
Q 55.078125 49.078125 51.53125 44.71875 
Q 48 40.375 41.703125 38.8125 
Q 48.828125 37.15625 52.796875 32.3125 
Q 56.78125 27.484375 56.78125 20.515625 
Q 56.78125 9.90625 50.3125 4.234375 
Q 43.84375 -1.421875 31.78125 -1.421875 
Q 19.734375 -1.421875 13.25 4.234375 
Q 6.78125 9.90625 6.78125 20.515625 
Q 6.78125 27.484375 10.78125 32.3125 
Q 14.796875 37.15625 21.921875 38.8125 
z
M 18.3125 54.390625 
Q 18.3125 48.734375 21.84375 45.5625 
Q 25.390625 42.390625 31.78125 42.390625 
Q 38.140625 42.390625 41.71875 45.5625 
Q 45.3125 48.734375 45.3125 54.390625 
Q 45.3125 60.0625 41.71875 63.234375 
Q 38.140625 66.40625 31.78125 66.40625 
Q 25.390625 66.40625 21.84375 63.234375 
Q 18.3125 60.0625 18.3125 54.390625 
z
" id="DejaVuSans-56"/>
       </defs>
       <use xlink:href="#DejaVuSans-56"/>
       <use x="63.623047" xlink:href="#DejaVuSans-48"/>
      </g>
     </g>
    </g>
   </g>
   <g id="matplotlib.axis_2">
    <g id="ytick_1">
     <g id="line2d_6">
      <defs>
       <path d="M 0 0 
L -3.5 0 
" id="mf90276486e" style="stroke:#000000;stroke-width:0.8;"/>
      </defs>
      <g>
       <use style="stroke:#000000;stroke-width:0.8;" x="57.6" xlink:href="#mf90276486e" y="279.299574"/>
      </g>
     </g>
     <g id="text_6">
      <!-- 10 -->
      <g transform="translate(37.875 283.098793)scale(0.1 -0.1)">
       <defs>
        <path d="M 12.40625 8.296875 
L 28.515625 8.296875 
L 28.515625 63.921875 
L 10.984375 60.40625 
L 10.984375 69.390625 
L 28.421875 72.90625 
L 38.28125 72.90625 
L 38.28125 8.296875 
L 54.390625 8.296875 
L 54.390625 0 
L 12.40625 0 
z
" id="DejaVuSans-49"/>
       </defs>
       <use xlink:href="#DejaVuSans-49"/>
       <use x="63.623047" xlink:href="#DejaVuSans-48"/>
      </g>
     </g>
    </g>
    <g id="ytick_2">
     <g id="line2d_7">
      <g>
       <use style="stroke:#000000;stroke-width:0.8;" x="57.6" xlink:href="#mf90276486e" y="243.634332"/>
      </g>
     </g>
     <g id="text_7">
      <!-- 20 -->
      <g transform="translate(37.875 247.43355)scale(0.1 -0.1)">
       <use xlink:href="#DejaVuSans-50"/>
       <use x="63.623047" xlink:href="#DejaVuSans-48"/>
      </g>
     </g>
    </g>
    <g id="ytick_3">
     <g id="line2d_8">
      <g>
       <use style="stroke:#000000;stroke-width:0.8;" x="57.6" xlink:href="#mf90276486e" y="207.969089"/>
      </g>
     </g>
     <g id="text_8">
      <!-- 30 -->
      <g transform="translate(37.875 211.768307)scale(0.1 -0.1)">
       <defs>
        <path d="M 40.578125 39.3125 
Q 47.65625 37.796875 51.625 33 
Q 55.609375 28.21875 55.609375 21.1875 
Q 55.609375 10.40625 48.1875 4.484375 
Q 40.765625 -1.421875 27.09375 -1.421875 
Q 22.515625 -1.421875 17.65625 -0.515625 
Q 12.796875 0.390625 7.625 2.203125 
L 7.625 11.71875 
Q 11.71875 9.328125 16.59375 8.109375 
Q 21.484375 6.890625 26.8125 6.890625 
Q 36.078125 6.890625 40.9375 10.546875 
Q 45.796875 14.203125 45.796875 21.1875 
Q 45.796875 27.640625 41.28125 31.265625 
Q 36.765625 34.90625 28.71875 34.90625 
L 20.21875 34.90625 
L 20.21875 43.015625 
L 29.109375 43.015625 
Q 36.375 43.015625 40.234375 45.921875 
Q 44.09375 48.828125 44.09375 54.296875 
Q 44.09375 59.90625 40.109375 62.90625 
Q 36.140625 65.921875 28.71875 65.921875 
Q 24.65625 65.921875 20.015625 65.03125 
Q 15.375 64.15625 9.8125 62.3125 
L 9.8125 71.09375 
Q 15.4375 72.65625 20.34375 73.4375 
Q 25.25 74.21875 29.59375 74.21875 
Q 40.828125 74.21875 47.359375 69.109375 
Q 53.90625 64.015625 53.90625 55.328125 
Q 53.90625 49.265625 50.4375 45.09375 
Q 46.96875 40.921875 40.578125 39.3125 
z
" id="DejaVuSans-51"/>
       </defs>
       <use xlink:href="#DejaVuSans-51"/>
       <use x="63.623047" xlink:href="#DejaVuSans-48"/>
      </g>
     </g>
    </g>
    <g id="ytick_4">
     <g id="line2d_9">
      <g>
       <use style="stroke:#000000;stroke-width:0.8;" x="57.6" xlink:href="#mf90276486e" y="172.303846"/>
      </g>
     </g>
     <g id="text_9">
      <!-- 40 -->
      <g transform="translate(37.875 176.103065)scale(0.1 -0.1)">
       <use xlink:href="#DejaVuSans-52"/>
       <use x="63.623047" xlink:href="#DejaVuSans-48"/>
      </g>
     </g>
    </g>
    <g id="ytick_5">
     <g id="line2d_10">
      <g>
       <use style="stroke:#000000;stroke-width:0.8;" x="57.6" xlink:href="#mf90276486e" y="136.638603"/>
      </g>
     </g>
     <g id="text_10">
      <!-- 50 -->
      <g transform="translate(37.875 140.437822)scale(0.1 -0.1)">
       <defs>
        <path d="M 10.796875 72.90625 
L 49.515625 72.90625 
L 49.515625 64.59375 
L 19.828125 64.59375 
L 19.828125 46.734375 
Q 21.96875 47.46875 24.109375 47.828125 
Q 26.265625 48.1875 28.421875 48.1875 
Q 40.625 48.1875 47.75 41.5 
Q 54.890625 34.8125 54.890625 23.390625 
Q 54.890625 11.625 47.5625 5.09375 
Q 40.234375 -1.421875 26.90625 -1.421875 
Q 22.3125 -1.421875 17.546875 -0.640625 
Q 12.796875 0.140625 7.71875 1.703125 
L 7.71875 11.625 
Q 12.109375 9.234375 16.796875 8.0625 
Q 21.484375 6.890625 26.703125 6.890625 
Q 35.15625 6.890625 40.078125 11.328125 
Q 45.015625 15.765625 45.015625 23.390625 
Q 45.015625 31 40.078125 35.4375 
Q 35.15625 39.890625 26.703125 39.890625 
Q 22.75 39.890625 18.8125 39.015625 
Q 14.890625 38.140625 10.796875 36.28125 
z
" id="DejaVuSans-53"/>
       </defs>
       <use xlink:href="#DejaVuSans-53"/>
       <use x="63.623047" xlink:href="#DejaVuSans-48"/>
      </g>
     </g>
    </g>
    <g id="ytick_6">
     <g id="line2d_11">
      <g>
       <use style="stroke:#000000;stroke-width:0.8;" x="57.6" xlink:href="#mf90276486e" y="100.97336"/>
      </g>
     </g>
     <g id="text_11">
      <!-- 60 -->
      <g transform="translate(37.875 104.772579)scale(0.1 -0.1)">
       <use xlink:href="#DejaVuSans-54"/>
       <use x="63.623047" xlink:href="#DejaVuSans-48"/>
      </g>
     </g>
    </g>
    <g id="ytick_7">
     <g id="line2d_12">
      <g>
       <use style="stroke:#000000;stroke-width:0.8;" x="57.6" xlink:href="#mf90276486e" y="65.308117"/>
      </g>
     </g>
     <g id="text_12">
      <!-- 70 -->
      <g transform="translate(37.875 69.107336)scale(0.1 -0.1)">
       <defs>
        <path d="M 8.203125 72.90625 
L 55.078125 72.90625 
L 55.078125 68.703125 
L 28.609375 0 
L 18.3125 0 
L 43.21875 64.59375 
L 8.203125 64.59375 
z
" id="DejaVuSans-55"/>
       </defs>
       <use xlink:href="#DejaVuSans-55"/>
       <use x="63.623047" xlink:href="#DejaVuSans-48"/>
      </g>
     </g>
    </g>
   </g>
   <g id="line2d_13">
    <path clip-path="url(#p001ab7b6df)" d="M 96.940267 172.992185 
L 96.469486 159.007843 
L 96.398155 151.821297 
L 96.540816 144.577686 
L 96.968799 137.326942 
L 97.764134 130.122563 
L 98.324078 126.559605 
L 99.005284 123.02518 
L 99.818452 119.529986 
L 100.770714 116.07759 
L 101.87277 112.682259 
L 103.131753 109.343993 
L 104.561929 106.069923 
L 106.170432 102.870751 
L 107.96796 99.750042 
L 109.940248 96.718497 
L 112.087295 93.797513 
L 114.39127 90.990659 
L 116.852172 88.315765 
L 119.452168 85.7871 
L 122.187692 83.415361 
L 125.048045 81.211249 
L 128.026092 79.192596 
L 131.107569 77.370102 
L 134.288909 75.754467 
L 137.559412 74.331424 
L 140.904812 73.090273 
L 144.317975 72.020316 
L 147.784637 71.107286 
L 151.30123 70.33335 
L 154.853488 69.687809 
L 162.025768 68.728414 
L 169.219448 68.122105 
L 176.395295 67.836783 
L 183.539043 67.918813 
L 190.654259 68.407427 
L 194.195817 68.821144 
L 197.730243 69.352556 
L 201.250403 70.008796 
L 204.759862 70.796998 
L 208.247923 71.717161 
L 211.700319 72.769286 
L 215.109916 73.960505 
L 218.462449 75.283686 
L 221.754351 76.749527 
L 224.967789 78.354463 
L 228.095631 80.098494 
L 231.127176 81.985185 
L 234.051726 84.018104 
L 236.858581 86.193684 
L 239.569139 88.490525 
L 244.772698 93.358831 
L 260.069521 108.41313 
L 262.776513 110.74207 
L 265.554835 112.985414 
L 271.314772 117.211745 
L 277.302966 121.127789 
L 283.47662 124.754944 
L 289.796501 128.118176 
L 296.219811 131.256718 
L 318.78521 141.917059 
L 325.058727 145.294557 
L 331.175316 148.971644 
L 337.106446 152.955452 
L 342.820017 157.260246 
L 348.294632 161.896728 
L 350.930294 164.34693 
L 353.494625 166.882729 
L 355.973359 169.507691 
L 358.359364 172.218249 
L 360.638373 175.014404 
L 362.799687 177.896156 
L 364.832605 180.859938 
L 366.722863 183.905749 
L 368.459761 187.033591 
L 370.032598 190.243463 
L 371.430675 193.531798 
L 372.639727 196.898597 
L 373.659753 200.33316 
L 374.49432 203.824787 
L 375.136294 207.36278 
L 375.589243 210.940003 
L 375.856732 214.542193 
L 375.928062 218.162215 
L 375.813934 221.78937 
L 375.503646 225.409392 
L 375.004333 229.018715 
L 374.315993 232.599505 
L 373.435062 236.141064 
L 372.365105 239.625558 
L 371.106122 243.042289 
L 369.658113 246.369856 
L 368.028211 249.601127 
L 366.209284 252.714702 
L 364.208464 255.699883 
L 362.025751 258.53527 
L 359.661145 261.21373 
L 357.118213 263.71743 
L 354.407655 266.04637 
L 351.550869 268.204117 
L 348.554989 270.190671 
L 345.437846 272.013165 
L 342.213708 273.664466 
L 338.896841 275.151707 
L 335.505076 276.478454 
L 332.049114 277.641141 
L 328.546787 278.6469 
L 325.012362 279.495733 
L 321.449404 280.180506 
L 317.868614 280.701218 
L 314.277124 281.050738 
L 310.678501 281.221931 
L 307.087011 281.214798 
L 303.502654 281.025772 
L 299.939696 280.644154 
L 296.398137 280.069944 
L 292.888678 279.299574 
L 289.418449 278.325913 
L 286.001719 277.156093 
L 282.649186 275.793681 
L 279.375117 274.245809 
L 276.190211 272.516045 
L 273.108734 270.611521 
L 270.141386 268.535804 
L 267.305999 266.296027 
L 264.609706 263.899323 
L 262.070341 261.345691 
L 259.698603 258.645832 
L 257.490924 255.810445 
L 255.454439 252.85023 
L 253.589146 249.77232 
L 251.891481 246.587414 
L 250.368575 243.313344 
L 249.016862 239.957245 
L 247.839909 236.529815 
L 246.834149 233.041754 
L 246.006716 229.503762 
L 245.350475 225.930105 
L 244.876128 222.327915 
L 244.57654 218.71146 
L 244.455278 215.087871 
L 244.512342 211.471416 
L 244.747733 207.872793 
L 245.165016 204.302702 
L 245.764192 200.771843 
L 246.545261 197.290915 
L 247.508222 193.870618 
L 247.508222 193.870618 
" style="fill:none;stroke:#fea952;stroke-linecap:square;"/>
   </g>
   <g id="line2d_14">
    <path clip-path="url(#p001ab7b6df)" d="M 82.685287 173.555272 
L 82.2052 159.235163 
L 82.132897 151.666546 
L 82.290582 143.905109 
L 82.767786 135.965778 
L 83.158819 131.948128 
L 83.671014 127.907728 
L 84.315789 123.859723 
L 85.110282 119.792465 
L 86.065914 115.736672 
L 87.201494 111.673296 
L 88.524407 107.648101 
L 90.058497 103.633344 
L 91.816185 99.661528 
L 93.808408 95.750225 
L 96.009857 91.970241 
L 98.445373 88.269273 
L 101.060318 84.746144 
L 103.892407 81.331704 
L 106.905781 78.088799 
L 110.106725 75.008221 
L 113.479969 72.115047 
L 117.043491 69.402411 
L 120.763723 66.913365 
L 124.647846 64.650295 
L 128.596992 62.673045 
L 132.597162 60.956163 
L 136.637444 59.477371 
L 140.684555 58.224672 
L 144.71832 57.174618 
L 148.750473 56.297141 
L 152.757202 55.576568 
L 156.744275 54.99033 
L 164.57989 54.158219 
L 172.413629 53.676082 
L 180.325137 53.568 
L 184.29484 53.672751 
L 188.300909 53.892209 
L 192.309536 54.237685 
L 196.31693 54.713613 
L 200.344735 55.328079 
L 204.376599 56.089442 
L 208.398819 57.002814 
L 212.406712 58.070696 
L 216.405599 59.301478 
L 220.347307 60.690567 
L 224.265629 62.25124 
L 228.128677 63.98671 
L 231.915311 65.894388 
L 235.633578 67.98648 
L 239.269852 70.271161 
L 242.791405 72.742486 
L 246.081357 75.309662 
L 249.174089 77.942233 
L 254.831856 83.242761 
L 269.373706 97.598618 
L 274.164587 101.610279 
L 279.280624 105.376766 
L 284.663699 108.907268 
L 290.296023 112.224291 
L 296.142323 115.341163 
L 302.278478 118.341065 
L 325.40958 129.282216 
L 332.257633 132.978013 
L 338.973208 137.02533 
L 345.531171 141.442609 
L 348.734545 143.793622 
L 351.880116 146.24044 
L 354.964871 148.784453 
L 358.007978 151.448166 
L 360.961356 154.203 
L 363.867047 157.088119 
L 366.681713 160.081521 
L 369.417662 163.205172 
L 372.051251 166.454746 
L 374.564216 169.826623 
L 376.954093 173.337234 
L 379.195017 176.979935 
L 381.270577 180.756291 
L 383.161359 184.661604 
L 384.85727 188.710172 
L 386.315453 192.837063 
L 387.535006 197.016705 
L 388.531208 201.277771 
L 389.289386 205.570713 
L 389.816169 209.883549 
L 390.12006 214.261142 
L 390.187103 218.610877 
L 390.027912 223.007711 
L 389.63516 227.364345 
L 389.013931 231.711795 
L 388.160231 236.043138 
L 387.07271 240.328674 
L 385.75136 244.558072 
L 384.187348 248.734655 
L 382.395524 252.794797 
L 380.346356 256.797294 
L 378.059754 260.657491 
L 375.512942 264.402199 
L 372.720517 267.976854 
L 369.670077 271.379497 
L 366.415357 274.537996 
L 363.005921 277.43019 
L 359.434854 280.09379 
L 355.755524 282.506264 
L 351.941144 284.710749 
L 348.050545 286.681872 
L 344.093817 288.437525 
L 340.05407 289.999851 
L 335.986751 291.353053 
L 331.878226 292.518564 
L 327.704917 293.505433 
L 323.502363 294.298115 
L 319.250444 294.900235 
L 314.955022 295.30072 
L 310.650167 295.488 
L 306.335713 295.461099 
L 301.983343 295.210737 
L 297.656479 294.726357 
L 293.339382 294.004273 
L 289.034781 293.035258 
L 284.797371 291.822845 
L 280.630779 290.372543 
L 276.55173 288.691066 
L 272.5664 286.782272 
L 268.68989 284.651395 
L 264.931437 282.301403 
L 261.298284 279.730494 
L 257.82812 276.958641 
L 254.493835 273.95868 
L 251.352448 270.761013 
L 248.442203 267.410249 
L 245.737541 263.896206 
L 243.253913 260.24406 
L 240.999853 256.48285 
L 238.956235 252.604135 
L 237.135482 248.643145 
L 235.524122 244.590548 
L 234.132276 240.482323 
L 232.942891 236.290517 
L 231.975235 232.080402 
L 231.206483 227.792631 
L 230.658731 223.505688 
L 230.318424 219.188602 
L 230.190956 214.862793 
L 230.276667 210.540242 
L 230.578098 206.216601 
L 231.099997 201.915911 
L 231.844218 197.648406 
L 232.813039 193.4247 
L 233.776001 190.004404 
L 233.776001 190.004404 
" style="fill:none;stroke:#ffffff;stroke-linecap:square;"/>
   </g>
   <g id="line2d_15">
    <path clip-path="url(#p001ab7b6df)" d="M 111.195247 172.429099 
L 110.733771 158.780524 
L 110.663413 151.976048 
L 110.79105 145.250263 
L 111.169812 138.688106 
L 111.857254 132.337398 
L 112.900286 126.257895 
L 113.57099 123.3233 
L 114.339933 120.481885 
L 115.221132 117.716417 
L 116.205009 115.054641 
L 117.307673 112.478319 
L 118.532456 109.991277 
L 119.926063 107.529843 
L 121.435122 105.167721 
L 123.114273 102.848883 
L 124.890133 100.649613 
L 126.798563 98.542732 
L 128.797611 96.565979 
L 130.895415 94.715675 
L 133.052598 93.020087 
L 135.288462 91.471828 
L 137.567292 90.08991 
L 139.980826 88.835889 
L 142.521662 87.706684 
L 145.172179 86.703175 
L 147.951396 85.81596 
L 150.850954 85.039953 
L 153.851987 84.369559 
L 160.117149 83.322464 
L 166.668893 82.613837 
L 173.208247 82.197209 
L 179.612767 82.0913 
L 185.903092 82.323469 
L 192.074705 82.928674 
L 198.124206 83.928151 
L 201.120906 84.591183 
L 204.089135 85.363626 
L 206.995038 86.237095 
L 209.872525 87.230444 
L 212.659269 88.316131 
L 215.380025 89.512344 
L 218.020267 90.814538 
L 220.557683 92.210507 
L 222.984501 93.699209 
L 225.312048 95.293721 
L 227.635805 97.077705 
L 229.96419 99.038818 
L 234.71354 103.474901 
L 247.785876 116.500696 
L 250.765336 119.227642 
L 253.814253 121.841594 
L 256.945084 124.360549 
L 260.133169 126.765677 
L 266.633125 131.251191 
L 273.278441 135.353811 
L 280.038353 139.122832 
L 286.819376 142.566949 
L 296.744596 147.237211 
L 309.201021 153.067787 
L 315.041271 156.058207 
L 320.639525 159.230781 
L 326.054759 162.659684 
L 331.248983 166.340046 
L 336.21041 170.286925 
L 340.899231 174.49086 
L 345.265005 178.933861 
L 347.301065 181.231327 
L 349.225495 183.574063 
L 351.035157 185.965689 
L 352.711118 188.382641 
L 354.250709 190.831564 
L 355.648944 193.310891 
L 356.903837 195.825322 
L 358.004081 198.353425 
L 358.964002 200.960132 
L 359.7845 203.649615 
L 360.457431 206.371804 
L 360.983202 209.154846 
L 361.362316 211.996458 
L 361.593404 214.823244 
L 361.669022 217.713553 
L 361.599956 220.571029 
L 361.372132 223.45444 
L 360.994734 226.325635 
L 360.471755 229.155873 
L 359.797414 231.953454 
L 358.978849 234.693044 
L 358.024895 237.349922 
L 356.920701 239.944914 
L 355.710066 242.404959 
L 354.358814 244.771914 
L 352.903985 246.997568 
L 351.330985 249.093686 
L 349.652213 251.047963 
L 347.821069 252.896864 
L 345.809389 254.66255 
L 343.666884 256.314445 
L 341.354453 257.875079 
L 338.934548 259.315581 
L 336.376871 260.64706 
L 333.699865 261.865888 
L 330.956082 262.957057 
L 328.111477 263.929228 
L 325.215348 264.775237 
L 322.319807 265.486034 
L 319.396445 266.062897 
L 316.486783 266.502202 
L 313.599226 266.800756 
L 310.706834 266.955862 
L 307.838308 266.968497 
L 305.021964 266.840807 
L 302.222913 266.561951 
L 299.456893 266.135614 
L 296.742574 265.563891 
L 294.039528 264.828982 
L 291.372659 263.939644 
L 288.746643 262.896296 
L 286.183834 261.709347 
L 283.690531 260.380695 
L 281.286031 258.921639 
L 278.984487 257.341114 
L 276.783878 255.633413 
L 274.725578 253.839965 
L 272.788234 251.930369 
L 270.955002 249.881416 
L 269.244306 247.724685 
L 267.654964 245.456401 
L 266.17844 243.061789 
L 264.826727 240.570692 
L 263.601668 237.983544 
L 262.509602 235.323942 
L 261.547543 232.577307 
L 260.725408 229.792992 
L 260.038197 226.927123 
L 259.494468 224.067579 
L 259.093525 221.150143 
L 258.834655 218.234318 
L 258.719599 215.312949 
L 258.748017 212.40259 
L 258.917368 209.528984 
L 259.230035 206.689493 
L 259.684166 203.895279 
L 260.277483 201.15713 
L 261.240444 197.736833 
L 261.240444 197.736833 
" style="fill:none;stroke:#ffffff;stroke-linecap:square;"/>
   </g>
   <g id="patch_3">
    <path d="M 57.6 307.584 
L 57.6 41.472 
" style="fill:none;stroke:#000000;stroke-linecap:square;stroke-linejoin:miter;stroke-width:0.8;"/>
   </g>
   <g id="patch_4">
    <path d="M 414.72 307.584 
L 414.72 41.472 
" style="fill:none;stroke:#000000;stroke-linecap:square;stroke-linejoin:miter;stroke-width:0.8;"/>
   </g>
   <g id="patch_5">
    <path d="M 57.6 307.584 
L 414.72 307.584 
" style="fill:none;stroke:#000000;stroke-linecap:square;stroke-linejoin:miter;stroke-width:0.8;"/>
   </g>
   <g id="patch_6">
    <path d="M 57.6 41.472 
L 414.72 41.472 
" style="fill:none;stroke:#000000;stroke-linecap:square;stroke-linejoin:miter;stroke-width:0.8;"/>
   </g>
  </g>
 </g>
 <defs>
  <clipPath id="p001ab7b6df">
   <rect height="266.112" width="357.12" x="57.6" y="41.472"/>
  </clipPath>
 </defs>
</svg>
