<?xml version="1.0" encoding="utf-8" standalone="no"?>
<!DOCTYPE svg PUBLIC "-//W3C//DTD SVG 1.1//EN"
  "http://www.w3.org/Graphics/SVG/1.1/DTD/svg11.dtd">
<!-- Created with matplotlib (https://matplotlib.org/) -->
<svg height="345.6pt" version="1.1" viewBox="0 0 460.8 345.6" width="460.8pt" xmlns="http://www.w3.org/2000/svg" xmlns:xlink="http://www.w3.org/1999/xlink">
 <metadata>
  <rdf:RDF xmlns:cc="http://creativecommons.org/ns#" xmlns:dc="http://purl.org/dc/elements/1.1/" xmlns:rdf="http://www.w3.org/1999/02/22-rdf-syntax-ns#">
   <cc:Work>
    <dc:type rdf:resource="http://purl.org/dc/dcmitype/StillImage"/>
    <dc:date>2021-01-25T14:17:22.452685</dc:date>
    <dc:format>image/svg+xml</dc:format>
    <dc:creator>
     <cc:Agent>
      <dc:title>Matplotlib v3.3.3, https://matplotlib.org/</dc:title>
     </cc:Agent>
    </dc:creator>
   </cc:Work>
  </rdf:RDF>
 </metadata>
 <defs>
  <style type="text/css">*{stroke-linecap:butt;stroke-linejoin:round;}</style>
 </defs>
 <g id="figure_1">
  <g id="patch_1">
   <path d="M 0 345.6 
L 460.8 345.6 
L 460.8 0 
L 0 0 
z
" style="fill:#ffffff;"/>
  </g>
  <g id="axes_1">
   <g id="patch_2">
    <path d="M 57.6 307.584 
L 414.72 307.584 
L 414.72 41.472 
L 57.6 41.472 
z
" style="fill:#7d9051;"/>
   </g>
   <g id="matplotlib.axis_1">
    <g id="xtick_1">
     <g id="line2d_1">
      <defs>
       <path d="M 0 0 
L 0 3.5 
" id="m8732660b7f" style="stroke:#000000;stroke-width:0.8;"/>
      </defs>
      <g>
       <use style="stroke:#000000;stroke-width:0.8;" x="93.068877" xlink:href="#m8732660b7f" y="307.584"/>
      </g>
     </g>
     <g id="text_1">
      <!-- 0 -->
      <g transform="translate(89.887627 322.182437)scale(0.1 -0.1)">
       <defs>
        <path d="M 31.78125 66.40625 
Q 24.171875 66.40625 20.328125 58.90625 
Q 16.5 51.421875 16.5 36.375 
Q 16.5 21.390625 20.328125 13.890625 
Q 24.171875 6.390625 31.78125 6.390625 
Q 39.453125 6.390625 43.28125 13.890625 
Q 47.125 21.390625 47.125 36.375 
Q 47.125 51.421875 43.28125 58.90625 
Q 39.453125 66.40625 31.78125 66.40625 
z
M 31.78125 74.21875 
Q 44.046875 74.21875 50.515625 64.515625 
Q 56.984375 54.828125 56.984375 36.375 
Q 56.984375 17.96875 50.515625 8.265625 
Q 44.046875 -1.421875 31.78125 -1.421875 
Q 19.53125 -1.421875 13.0625 8.265625 
Q 6.59375 17.96875 6.59375 36.375 
Q 6.59375 54.828125 13.0625 64.515625 
Q 19.53125 74.21875 31.78125 74.21875 
z
" id="DejaVuSans-48"/>
       </defs>
       <use xlink:href="#DejaVuSans-48"/>
      </g>
     </g>
    </g>
    <g id="xtick_2">
     <g id="line2d_2">
      <g>
       <use style="stroke:#000000;stroke-width:0.8;" x="157.480411" xlink:href="#m8732660b7f" y="307.584"/>
      </g>
     </g>
     <g id="text_2">
      <!-- 20 -->
      <g transform="translate(151.117911 322.182437)scale(0.1 -0.1)">
       <defs>
        <path d="M 19.1875 8.296875 
L 53.609375 8.296875 
L 53.609375 0 
L 7.328125 0 
L 7.328125 8.296875 
Q 12.9375 14.109375 22.625 23.890625 
Q 32.328125 33.6875 34.8125 36.53125 
Q 39.546875 41.84375 41.421875 45.53125 
Q 43.3125 49.21875 43.3125 52.78125 
Q 43.3125 58.59375 39.234375 62.25 
Q 35.15625 65.921875 28.609375 65.921875 
Q 23.96875 65.921875 18.8125 64.3125 
Q 13.671875 62.703125 7.8125 59.421875 
L 7.8125 69.390625 
Q 13.765625 71.78125 18.9375 73 
Q 24.125 74.21875 28.421875 74.21875 
Q 39.75 74.21875 46.484375 68.546875 
Q 53.21875 62.890625 53.21875 53.421875 
Q 53.21875 48.921875 51.53125 44.890625 
Q 49.859375 40.875 45.40625 35.40625 
Q 44.1875 33.984375 37.640625 27.21875 
Q 31.109375 20.453125 19.1875 8.296875 
z
" id="DejaVuSans-50"/>
       </defs>
       <use xlink:href="#DejaVuSans-50"/>
       <use x="63.623047" xlink:href="#DejaVuSans-48"/>
      </g>
     </g>
    </g>
    <g id="xtick_3">
     <g id="line2d_3">
      <g>
       <use style="stroke:#000000;stroke-width:0.8;" x="221.891944" xlink:href="#m8732660b7f" y="307.584"/>
      </g>
     </g>
     <g id="text_3">
      <!-- 40 -->
      <g transform="translate(215.529444 322.182437)scale(0.1 -0.1)">
       <defs>
        <path d="M 37.796875 64.3125 
L 12.890625 25.390625 
L 37.796875 25.390625 
z
M 35.203125 72.90625 
L 47.609375 72.90625 
L 47.609375 25.390625 
L 58.015625 25.390625 
L 58.015625 17.1875 
L 47.609375 17.1875 
L 47.609375 0 
L 37.796875 0 
L 37.796875 17.1875 
L 4.890625 17.1875 
L 4.890625 26.703125 
z
" id="DejaVuSans-52"/>
       </defs>
       <use xlink:href="#DejaVuSans-52"/>
       <use x="63.623047" xlink:href="#DejaVuSans-48"/>
      </g>
     </g>
    </g>
    <g id="xtick_4">
     <g id="line2d_4">
      <g>
       <use style="stroke:#000000;stroke-width:0.8;" x="286.303477" xlink:href="#m8732660b7f" y="307.584"/>
      </g>
     </g>
     <g id="text_4">
      <!-- 60 -->
      <g transform="translate(279.940977 322.182437)scale(0.1 -0.1)">
       <defs>
        <path d="M 33.015625 40.375 
Q 26.375 40.375 22.484375 35.828125 
Q 18.609375 31.296875 18.609375 23.390625 
Q 18.609375 15.53125 22.484375 10.953125 
Q 26.375 6.390625 33.015625 6.390625 
Q 39.65625 6.390625 43.53125 10.953125 
Q 47.40625 15.53125 47.40625 23.390625 
Q 47.40625 31.296875 43.53125 35.828125 
Q 39.65625 40.375 33.015625 40.375 
z
M 52.59375 71.296875 
L 52.59375 62.3125 
Q 48.875 64.0625 45.09375 64.984375 
Q 41.3125 65.921875 37.59375 65.921875 
Q 27.828125 65.921875 22.671875 59.328125 
Q 17.53125 52.734375 16.796875 39.40625 
Q 19.671875 43.65625 24.015625 45.921875 
Q 28.375 48.1875 33.59375 48.1875 
Q 44.578125 48.1875 50.953125 41.515625 
Q 57.328125 34.859375 57.328125 23.390625 
Q 57.328125 12.15625 50.6875 5.359375 
Q 44.046875 -1.421875 33.015625 -1.421875 
Q 20.359375 -1.421875 13.671875 8.265625 
Q 6.984375 17.96875 6.984375 36.375 
Q 6.984375 53.65625 15.1875 63.9375 
Q 23.390625 74.21875 37.203125 74.21875 
Q 40.921875 74.21875 44.703125 73.484375 
Q 48.484375 72.75 52.59375 71.296875 
z
" id="DejaVuSans-54"/>
       </defs>
       <use xlink:href="#DejaVuSans-54"/>
       <use x="63.623047" xlink:href="#DejaVuSans-48"/>
      </g>
     </g>
    </g>
    <g id="xtick_5">
     <g id="line2d_5">
      <g>
       <use style="stroke:#000000;stroke-width:0.8;" x="350.71501" xlink:href="#m8732660b7f" y="307.584"/>
      </g>
     </g>
     <g id="text_5">
      <!-- 80 -->
      <g transform="translate(344.35251 322.182437)scale(0.1 -0.1)">
       <defs>
        <path d="M 31.78125 34.625 
Q 24.75 34.625 20.71875 30.859375 
Q 16.703125 27.09375 16.703125 20.515625 
Q 16.703125 13.921875 20.71875 10.15625 
Q 24.75 6.390625 31.78125 6.390625 
Q 38.8125 6.390625 42.859375 10.171875 
Q 46.921875 13.96875 46.921875 20.515625 
Q 46.921875 27.09375 42.890625 30.859375 
Q 38.875 34.625 31.78125 34.625 
z
M 21.921875 38.8125 
Q 15.578125 40.375 12.03125 44.71875 
Q 8.5 49.078125 8.5 55.328125 
Q 8.5 64.0625 14.71875 69.140625 
Q 20.953125 74.21875 31.78125 74.21875 
Q 42.671875 74.21875 48.875 69.140625 
Q 55.078125 64.0625 55.078125 55.328125 
Q 55.078125 49.078125 51.53125 44.71875 
Q 48 40.375 41.703125 38.8125 
Q 48.828125 37.15625 52.796875 32.3125 
Q 56.78125 27.484375 56.78125 20.515625 
Q 56.78125 9.90625 50.3125 4.234375 
Q 43.84375 -1.421875 31.78125 -1.421875 
Q 19.734375 -1.421875 13.25 4.234375 
Q 6.78125 9.90625 6.78125 20.515625 
Q 6.78125 27.484375 10.78125 32.3125 
Q 14.796875 37.15625 21.921875 38.8125 
z
M 18.3125 54.390625 
Q 18.3125 48.734375 21.84375 45.5625 
Q 25.390625 42.390625 31.78125 42.390625 
Q 38.140625 42.390625 41.71875 45.5625 
Q 45.3125 48.734375 45.3125 54.390625 
Q 45.3125 60.0625 41.71875 63.234375 
Q 38.140625 66.40625 31.78125 66.40625 
Q 25.390625 66.40625 21.84375 63.234375 
Q 18.3125 60.0625 18.3125 54.390625 
z
" id="DejaVuSans-56"/>
       </defs>
       <use xlink:href="#DejaVuSans-56"/>
       <use x="63.623047" xlink:href="#DejaVuSans-48"/>
      </g>
     </g>
    </g>
   </g>
   <g id="matplotlib.axis_2">
    <g id="ytick_1">
     <g id="line2d_6">
      <defs>
       <path d="M 0 0 
L -3.5 0 
" id="m862676118c" style="stroke:#000000;stroke-width:0.8;"/>
      </defs>
      <g>
       <use style="stroke:#000000;stroke-width:0.8;" x="57.6" xlink:href="#m862676118c" y="282.154813"/>
      </g>
     </g>
     <g id="text_6">
      <!-- 10 -->
      <g transform="translate(37.875 285.954031)scale(0.1 -0.1)">
       <defs>
        <path d="M 12.40625 8.296875 
L 28.515625 8.296875 
L 28.515625 63.921875 
L 10.984375 60.40625 
L 10.984375 69.390625 
L 28.421875 72.90625 
L 38.28125 72.90625 
L 38.28125 8.296875 
L 54.390625 8.296875 
L 54.390625 0 
L 12.40625 0 
z
" id="DejaVuSans-49"/>
       </defs>
       <use xlink:href="#DejaVuSans-49"/>
       <use x="63.623047" xlink:href="#DejaVuSans-48"/>
      </g>
     </g>
    </g>
    <g id="ytick_2">
     <g id="line2d_7">
      <g>
       <use style="stroke:#000000;stroke-width:0.8;" x="57.6" xlink:href="#m862676118c" y="249.949046"/>
      </g>
     </g>
     <g id="text_7">
      <!-- 20 -->
      <g transform="translate(37.875 253.748265)scale(0.1 -0.1)">
       <use xlink:href="#DejaVuSans-50"/>
       <use x="63.623047" xlink:href="#DejaVuSans-48"/>
      </g>
     </g>
    </g>
    <g id="ytick_3">
     <g id="line2d_8">
      <g>
       <use style="stroke:#000000;stroke-width:0.8;" x="57.6" xlink:href="#m862676118c" y="217.743279"/>
      </g>
     </g>
     <g id="text_8">
      <!-- 30 -->
      <g transform="translate(37.875 221.542498)scale(0.1 -0.1)">
       <defs>
        <path d="M 40.578125 39.3125 
Q 47.65625 37.796875 51.625 33 
Q 55.609375 28.21875 55.609375 21.1875 
Q 55.609375 10.40625 48.1875 4.484375 
Q 40.765625 -1.421875 27.09375 -1.421875 
Q 22.515625 -1.421875 17.65625 -0.515625 
Q 12.796875 0.390625 7.625 2.203125 
L 7.625 11.71875 
Q 11.71875 9.328125 16.59375 8.109375 
Q 21.484375 6.890625 26.8125 6.890625 
Q 36.078125 6.890625 40.9375 10.546875 
Q 45.796875 14.203125 45.796875 21.1875 
Q 45.796875 27.640625 41.28125 31.265625 
Q 36.765625 34.90625 28.71875 34.90625 
L 20.21875 34.90625 
L 20.21875 43.015625 
L 29.109375 43.015625 
Q 36.375 43.015625 40.234375 45.921875 
Q 44.09375 48.828125 44.09375 54.296875 
Q 44.09375 59.90625 40.109375 62.90625 
Q 36.140625 65.921875 28.71875 65.921875 
Q 24.65625 65.921875 20.015625 65.03125 
Q 15.375 64.15625 9.8125 62.3125 
L 9.8125 71.09375 
Q 15.4375 72.65625 20.34375 73.4375 
Q 25.25 74.21875 29.59375 74.21875 
Q 40.828125 74.21875 47.359375 69.109375 
Q 53.90625 64.015625 53.90625 55.328125 
Q 53.90625 49.265625 50.4375 45.09375 
Q 46.96875 40.921875 40.578125 39.3125 
z
" id="DejaVuSans-51"/>
       </defs>
       <use xlink:href="#DejaVuSans-51"/>
       <use x="63.623047" xlink:href="#DejaVuSans-48"/>
      </g>
     </g>
    </g>
    <g id="ytick_4">
     <g id="line2d_9">
      <g>
       <use style="stroke:#000000;stroke-width:0.8;" x="57.6" xlink:href="#m862676118c" y="185.537513"/>
      </g>
     </g>
     <g id="text_9">
      <!-- 40 -->
      <g transform="translate(37.875 189.336732)scale(0.1 -0.1)">
       <use xlink:href="#DejaVuSans-52"/>
       <use x="63.623047" xlink:href="#DejaVuSans-48"/>
      </g>
     </g>
    </g>
    <g id="ytick_5">
     <g id="line2d_10">
      <g>
       <use style="stroke:#000000;stroke-width:0.8;" x="57.6" xlink:href="#m862676118c" y="153.331746"/>
      </g>
     </g>
     <g id="text_10">
      <!-- 50 -->
      <g transform="translate(37.875 157.130965)scale(0.1 -0.1)">
       <defs>
        <path d="M 10.796875 72.90625 
L 49.515625 72.90625 
L 49.515625 64.59375 
L 19.828125 64.59375 
L 19.828125 46.734375 
Q 21.96875 47.46875 24.109375 47.828125 
Q 26.265625 48.1875 28.421875 48.1875 
Q 40.625 48.1875 47.75 41.5 
Q 54.890625 34.8125 54.890625 23.390625 
Q 54.890625 11.625 47.5625 5.09375 
Q 40.234375 -1.421875 26.90625 -1.421875 
Q 22.3125 -1.421875 17.546875 -0.640625 
Q 12.796875 0.140625 7.71875 1.703125 
L 7.71875 11.625 
Q 12.109375 9.234375 16.796875 8.0625 
Q 21.484375 6.890625 26.703125 6.890625 
Q 35.15625 6.890625 40.078125 11.328125 
Q 45.015625 15.765625 45.015625 23.390625 
Q 45.015625 31 40.078125 35.4375 
Q 35.15625 39.890625 26.703125 39.890625 
Q 22.75 39.890625 18.8125 39.015625 
Q 14.890625 38.140625 10.796875 36.28125 
z
" id="DejaVuSans-53"/>
       </defs>
       <use xlink:href="#DejaVuSans-53"/>
       <use x="63.623047" xlink:href="#DejaVuSans-48"/>
      </g>
     </g>
    </g>
    <g id="ytick_6">
     <g id="line2d_11">
      <g>
       <use style="stroke:#000000;stroke-width:0.8;" x="57.6" xlink:href="#m862676118c" y="121.12598"/>
      </g>
     </g>
     <g id="text_11">
      <!-- 60 -->
      <g transform="translate(37.875 124.925198)scale(0.1 -0.1)">
       <use xlink:href="#DejaVuSans-54"/>
       <use x="63.623047" xlink:href="#DejaVuSans-48"/>
      </g>
     </g>
    </g>
    <g id="ytick_7">
     <g id="line2d_12">
      <g>
       <use style="stroke:#000000;stroke-width:0.8;" x="57.6" xlink:href="#m862676118c" y="88.920213"/>
      </g>
     </g>
     <g id="text_12">
      <!-- 70 -->
      <g transform="translate(37.875 92.719432)scale(0.1 -0.1)">
       <defs>
        <path d="M 8.203125 72.90625 
L 55.078125 72.90625 
L 55.078125 68.703125 
L 28.609375 0 
L 18.3125 0 
L 43.21875 64.59375 
L 8.203125 64.59375 
z
" id="DejaVuSans-55"/>
       </defs>
       <use xlink:href="#DejaVuSans-55"/>
       <use x="63.623047" xlink:href="#DejaVuSans-48"/>
      </g>
     </g>
    </g>
    <g id="ytick_8">
     <g id="line2d_13">
      <g>
       <use style="stroke:#000000;stroke-width:0.8;" x="57.6" xlink:href="#m862676118c" y="56.714446"/>
      </g>
     </g>
     <g id="text_13">
      <!-- 80 -->
      <g transform="translate(37.875 60.513665)scale(0.1 -0.1)">
       <use xlink:href="#DejaVuSans-56"/>
       <use x="63.623047" xlink:href="#DejaVuSans-48"/>
      </g>
     </g>
    </g>
   </g>
   <g id="line2d_14">
    <path clip-path="url(#pc25949efd8)" d="M 125.274644 161.17385 
L 124.852748 148.555631 
L 124.788337 142.066169 
L 124.913939 135.518737 
L 125.300409 128.968084 
L 126.018597 122.459298 
L 126.524228 119.238722 
L 127.139358 116.04713 
L 127.870429 112.887745 
L 128.730323 109.773447 
L 129.725481 106.707458 
L 130.865565 103.692998 
L 132.157016 100.739729 
L 133.609496 97.854093 
L 135.232667 95.039309 
L 137.016866 92.31148 
L 138.955654 89.673828 
L 141.036146 87.145675 
L 143.258344 84.736684 
L 145.606144 82.453295 
L 148.076327 80.308391 
L 150.659229 78.314854 
L 153.348411 76.485567 
L 156.127768 74.82697 
L 158.997302 73.351945 
L 161.94735 72.047612 
L 164.96181 70.910748 
L 168.040681 69.925252 
L 171.171082 69.084681 
L 174.346571 68.382596 
L 177.554265 67.802892 
L 184.037286 66.978424 
L 190.555733 66.537205 
L 197.058077 66.459911 
L 203.521775 66.78841 
L 206.732689 67.116909 
L 209.924281 67.564569 
L 213.096549 68.131391 
L 216.246273 68.827035 
L 219.367012 69.654723 
L 222.458765 70.620896 
L 225.511872 71.719113 
L 228.519891 72.952594 
L 231.47638 74.308457 
L 234.374899 75.793143 
L 237.202565 77.40021 
L 239.959379 79.123219 
L 242.632457 80.962168 
L 245.212139 82.910617 
L 247.698425 84.968565 
L 250.081651 87.132793 
L 252.374702 89.383976 
L 256.741804 94.111783 
L 260.906009 99.039265 
L 271.160326 111.52222 
L 277.559611 118.765297 
L 294.818682 137.885861 
L 303.176078 147.698958 
L 319.588137 167.505504 
L 325.58485 175.070639 
L 329.472087 180.236444 
L 333.236941 185.540733 
L 336.802119 191.006052 
L 340.04846 196.648502 
L 341.510602 199.53736 
L 342.850362 202.474525 
L 344.041975 205.46 
L 345.079001 208.500224 
L 345.942116 211.591978 
L 346.618437 214.735261 
L 347.104744 217.923632 
L 347.410699 221.144208 
L 347.53308 224.39055 
L 347.47511 227.646553 
L 347.240008 230.908997 
L 346.827774 234.161779 
L 346.24807 237.395238 
L 345.494455 240.599712 
L 344.576591 243.768759 
L 343.491257 246.886278 
L 342.244894 249.939384 
L 340.837502 252.918418 
L 339.275522 255.810496 
L 337.555734 258.599515 
L 335.684579 261.275814 
L 333.662057 263.82329 
L 331.491388 266.229061 
L 329.179014 268.483465 
L 326.721714 270.570398 
L 324.125929 272.483421 
L 321.404542 274.216091 
L 318.570435 275.778071 
L 315.636489 277.16936 
L 312.615588 278.3964 
L 309.520614 279.45919 
L 306.364449 280.364172 
L 303.163196 281.111346 
L 299.926516 281.707152 
L 296.670513 282.154813 
L 293.408069 282.454326 
L 290.142404 282.605693 
L 286.883181 282.605693 
L 283.633619 282.451106 
L 280.403381 282.14193 
L 277.195686 281.671726 
L 274.016977 281.043714 
L 270.870474 280.248231 
L 267.769058 279.285279 
L 264.715952 278.151636 
L 261.714374 276.850523 
L 258.783649 275.378719 
L 255.933439 273.745887 
L 253.179846 271.955246 
L 250.535753 270.010018 
L 248.017262 267.913423 
L 245.637255 265.675122 
L 243.411837 263.298336 
L 241.353889 260.786286 
L 239.479513 258.145414 
L 237.795151 255.378938 
L 236.307245 252.499743 
L 235.012573 249.52393 
L 233.911136 246.461162 
L 232.999713 243.32432 
L 232.278304 240.126287 
L 231.743688 236.886387 
L 231.395866 233.60784 
L 231.234837 230.30997 
L 231.257381 227.005658 
L 231.463498 223.704567 
L 231.849967 220.42602 
L 232.416788 217.176458 
L 233.163962 213.971984 
L 234.088268 210.82226 
L 235.186484 207.746609 
L 236.461833 204.754694 
L 237.907872 201.859395 
L 239.527822 199.073597 
L 241.318462 196.41018 
L 241.318462 196.41018 
" style="fill:none;stroke:#fea952;stroke-linecap:square;"/>
   </g>
   <g id="line2d_15">
    <path clip-path="url(#pc25949efd8)" d="M 112.401875 161.669472 
L 111.972074 148.760697 
L 111.906654 141.939381 
L 112.045929 134.911994 
L 112.476758 127.740153 
L 113.292182 120.461251 
L 113.874722 116.800724 
L 114.588679 113.142947 
L 115.452775 109.459085 
L 116.477298 105.796362 
L 117.676146 102.150338 
L 119.062459 98.531553 
L 120.650183 94.947785 
L 122.449753 91.418726 
L 124.451689 87.98776 
L 126.636978 84.681819 
L 129.008486 81.488006 
L 131.567271 78.411018 
L 134.276738 75.501719 
L 137.159959 72.726231 
L 140.205264 70.110342 
L 143.413635 67.66332 
L 146.746928 65.423277 
L 150.238396 63.369696 
L 153.787987 61.569889 
L 157.401498 59.994021 
L 161.034664 58.641627 
L 164.699887 57.483672 
L 168.390026 56.506146 
L 172.055555 55.705645 
L 175.712877 55.052868 
L 179.379041 54.530853 
L 186.597416 53.851013 
L 193.846817 53.568 
L 197.506443 53.58541 
L 201.154229 53.719028 
L 204.83288 53.972997 
L 208.522076 54.359483 
L 212.190207 54.88311 
L 215.874769 55.552229 
L 219.548763 56.375233 
L 223.209482 57.35882 
L 226.819084 58.498956 
L 230.399473 59.800003 
L 233.889999 61.24295 
L 237.349359 62.842771 
L 240.740194 64.593284 
L 244.030174 66.476036 
L 247.260833 68.509897 
L 250.396704 70.682562 
L 253.426271 72.986814 
L 256.358869 75.431767 
L 259.106509 77.940091 
L 261.713079 80.509938 
L 266.513686 85.717491 
L 270.892359 90.901289 
L 280.890246 103.079326 
L 287.09641 110.104853 
L 304.56686 129.464053 
L 313.06091 139.43797 
L 329.619758 159.4234 
L 335.827124 167.257211 
L 339.920218 172.700505 
L 343.945874 178.380247 
L 347.862059 184.400633 
L 349.743178 187.563709 
L 351.542417 190.831048 
L 353.23117 194.191136 
L 354.814841 197.699059 
L 356.234492 201.301112 
L 357.48688 205.036358 
L 358.536196 208.882186 
L 359.353461 212.792848 
L 359.929309 216.705298 
L 360.283861 220.658911 
L 360.413346 224.619872 
L 360.324097 228.572491 
L 360.020092 232.528651 
L 359.507908 236.43511 
L 358.788259 240.344388 
L 357.868208 244.183573 
L 356.742701 248.004275 
L 355.41804 251.755123 
L 353.892756 255.442212 
L 352.17229 259.040214 
L 350.240755 262.571967 
L 348.113507 265.981063 
L 345.773766 269.28594 
L 343.226569 272.453118 
L 340.484199 275.453115 
L 337.51811 278.302493 
L 334.364364 280.940728 
L 331.04462 283.350138 
L 327.622608 285.498355 
L 324.090117 287.417956 
L 320.484411 289.104664 
L 316.799468 290.580364 
L 313.071337 291.842493 
L 309.292489 292.909307 
L 305.495381 293.780787 
L 301.681168 294.469402 
L 297.84824 294.983171 
L 294.004538 295.322817 
L 290.142404 295.488 
L 286.271038 295.473448 
L 282.406226 295.274808 
L 278.534977 294.888024 
L 274.698814 294.309742 
L 270.859483 293.533071 
L 267.050561 292.551161 
L 263.284892 291.361954 
L 259.592427 289.971252 
L 255.932999 288.36267 
L 252.379997 286.556692 
L 248.910512 284.545532 
L 245.545837 282.331938 
L 242.293683 279.91063 
L 239.191749 277.297673 
L 236.233572 274.479925 
L 233.446607 271.46216 
L 230.848666 268.242433 
L 228.476207 264.844749 
L 226.350698 261.293186 
L 224.494487 257.639059 
L 222.890311 253.883355 
L 221.540429 250.055525 
L 220.433169 246.159069 
L 219.567876 242.223634 
L 218.933271 238.245449 
L 218.528888 234.23611 
L 218.35283 230.222081 
L 218.400113 226.202863 
L 218.66977 222.196465 
L 219.159276 218.212381 
L 219.871002 214.251209 
L 220.80291 210.344559 
L 221.956172 206.490276 
L 223.335902 202.695123 
L 224.936984 198.99868 
L 226.771545 195.383589 
L 228.837019 191.886068 
L 230.62766 189.222651 
L 230.62766 189.222651 
" style="fill:none;stroke:#ffffff;stroke-linecap:square;"/>
   </g>
   <g id="line2d_16">
    <path clip-path="url(#pc25949efd8)" d="M 138.147413 160.678229 
L 137.733423 148.350566 
L 137.67002 142.192957 
L 137.78195 136.12548 
L 138.124059 130.196015 
L 138.745012 124.457345 
L 139.690037 118.951314 
L 140.983348 113.750532 
L 141.774816 111.264578 
L 142.668671 108.854444 
L 143.663849 106.531673 
L 144.76924 104.28946 
L 146.013645 102.090857 
L 147.396755 99.941142 
L 148.902821 97.85965 
L 150.505021 95.880332 
L 152.23995 93.971649 
L 154.05233 92.180359 
L 155.947389 90.50644 
L 157.904824 88.966388 
L 159.949893 87.547856 
L 162.017141 86.284243 
L 164.206618 85.134002 
L 166.493203 84.101203 
L 168.888956 83.17987 
L 171.381476 82.366832 
L 173.952137 81.663217 
L 179.395653 80.552916 
L 185.077699 79.818649 
L 190.899988 79.414911 
L 196.609711 79.334413 
L 202.210669 79.603824 
L 207.658355 80.246028 
L 212.943782 81.278838 
L 215.524542 81.950627 
L 218.098447 82.742837 
L 220.624271 83.638223 
L 225.603401 85.774142 
L 228.009603 86.993001 
L 232.657925 89.736541 
L 234.868211 91.241774 
L 236.998007 92.83442 
L 239.03798 94.505364 
L 243.036325 98.258014 
L 246.969921 102.506074 
L 250.91966 107.177241 
L 261.430405 119.965114 
L 268.022813 127.425741 
L 285.070503 146.307668 
L 293.291246 155.959945 
L 309.556516 175.587608 
L 315.342577 182.884067 
L 319.023955 187.772382 
L 322.528007 192.70122 
L 325.742179 197.611471 
L 328.554503 202.465957 
L 330.885883 207.249992 
L 331.849458 209.618888 
L 332.671122 211.964091 
L 333.348035 214.30177 
L 333.883412 216.677674 
L 334.280178 219.141965 
L 334.537536 221.629506 
L 334.652815 224.161227 
L 334.626123 226.720614 
L 334.459924 229.289343 
L 334.14764 231.888448 
L 333.707881 234.446088 
L 333.120702 237.015851 
L 332.410481 239.533244 
L 331.564473 242.017432 
L 330.597031 244.436556 
L 329.502713 246.796622 
L 328.310289 249.049024 
L 326.997961 251.217967 
L 325.595391 253.265688 
L 324.097544 255.193463 
L 322.498577 257.005007 
L 320.839918 258.664437 
L 319.079064 260.200069 
L 317.207238 261.616704 
L 315.186476 262.933827 
L 313.050752 264.138185 
L 310.788567 265.234056 
L 308.431709 266.212436 
L 305.969892 267.075887 
L 303.436409 267.819037 
L 300.83101 268.441905 
L 298.171865 268.944903 
L 295.492786 269.326454 
L 292.811601 269.585836 
L 290.142404 269.723387 
L 287.495324 269.737939 
L 284.861012 269.627404 
L 282.271784 269.395837 
L 279.692559 269.03371 
L 277.174471 268.554356 
L 274.690387 267.945301 
L 272.253225 267.208604 
L 269.839476 266.33202 
L 267.495749 265.338376 
L 265.187301 264.200747 
L 262.956366 262.946242 
L 260.813855 261.578555 
L 258.777822 260.109406 
L 256.842774 258.529172 
L 255.040939 256.870318 
L 253.377067 255.134513 
L 251.859112 253.33014 
L 250.482819 251.446079 
L 249.239604 249.464691 
L 248.120003 247.360426 
L 247.134835 245.164504 
L 246.281842 242.866798 
L 245.566256 240.489571 
L 244.988731 238.02894 
L 244.554104 235.527325 
L 244.262843 232.97957 
L 244.116843 230.397858 
L 244.114649 227.808453 
L 244.257225 225.212668 
L 244.540657 222.639659 
L 244.962574 220.101707 
L 245.525014 217.599409 
L 246.220363 215.154244 
L 247.037067 212.798096 
L 247.986681 210.510708 
L 249.044198 208.335201 
L 250.218624 206.261125 
L 252.009265 203.597708 
L 252.009265 203.597708 
" style="fill:none;stroke:#ffffff;stroke-linecap:square;"/>
   </g>
   <g id="patch_3">
    <path d="M 57.6 307.584 
L 57.6 41.472 
" style="fill:none;stroke:#000000;stroke-linecap:square;stroke-linejoin:miter;stroke-width:0.8;"/>
   </g>
   <g id="patch_4">
    <path d="M 414.72 307.584 
L 414.72 41.472 
" style="fill:none;stroke:#000000;stroke-linecap:square;stroke-linejoin:miter;stroke-width:0.8;"/>
   </g>
   <g id="patch_5">
    <path d="M 57.6 307.584 
L 414.72 307.584 
" style="fill:none;stroke:#000000;stroke-linecap:square;stroke-linejoin:miter;stroke-width:0.8;"/>
   </g>
   <g id="patch_6">
    <path d="M 57.6 41.472 
L 414.72 41.472 
" style="fill:none;stroke:#000000;stroke-linecap:square;stroke-linejoin:miter;stroke-width:0.8;"/>
   </g>
  </g>
 </g>
 <defs>
  <clipPath id="pc25949efd8">
   <rect height="266.112" width="357.12" x="57.6" y="41.472"/>
  </clipPath>
 </defs>
</svg>
