<?xml version="1.0" encoding="utf-8" standalone="no"?>
<!DOCTYPE svg PUBLIC "-//W3C//DTD SVG 1.1//EN"
  "http://www.w3.org/Graphics/SVG/1.1/DTD/svg11.dtd">
<!-- Created with matplotlib (https://matplotlib.org/) -->
<svg height="345.6pt" version="1.1" viewBox="0 0 460.8 345.6" width="460.8pt" xmlns="http://www.w3.org/2000/svg" xmlns:xlink="http://www.w3.org/1999/xlink">
 <metadata>
  <rdf:RDF xmlns:cc="http://creativecommons.org/ns#" xmlns:dc="http://purl.org/dc/elements/1.1/" xmlns:rdf="http://www.w3.org/1999/02/22-rdf-syntax-ns#">
   <cc:Work>
    <dc:type rdf:resource="http://purl.org/dc/dcmitype/StillImage"/>
    <dc:date>2021-01-23T13:20:40.899241</dc:date>
    <dc:format>image/svg+xml</dc:format>
    <dc:creator>
     <cc:Agent>
      <dc:title>Matplotlib v3.3.3, https://matplotlib.org/</dc:title>
     </cc:Agent>
    </dc:creator>
   </cc:Work>
  </rdf:RDF>
 </metadata>
 <defs>
  <style type="text/css">*{stroke-linecap:butt;stroke-linejoin:round;}</style>
 </defs>
 <g id="figure_1">
  <g id="patch_1">
   <path d="M 0 345.6 
L 460.8 345.6 
L 460.8 0 
L 0 0 
z
" style="fill:#ffffff;"/>
  </g>
  <g id="axes_1">
   <g id="patch_2">
    <path d="M 57.6 307.584 
L 414.72 307.584 
L 414.72 41.472 
L 57.6 41.472 
z
" style="fill:#7d9051;"/>
   </g>
   <g id="matplotlib.axis_1">
    <g id="xtick_1">
     <g id="line2d_1">
      <defs>
       <path d="M 0 0 
L 0 3.5 
" id="m2c3f38d336" style="stroke:#000000;stroke-width:0.8;"/>
      </defs>
      <g>
       <use style="stroke:#000000;stroke-width:0.8;" x="108.251312" xlink:href="#m2c3f38d336" y="307.584"/>
      </g>
     </g>
     <g id="text_1">
      <!-- 20 -->
      <g transform="translate(101.888812 322.182437)scale(0.1 -0.1)">
       <defs>
        <path d="M 19.1875 8.296875 
L 53.609375 8.296875 
L 53.609375 0 
L 7.328125 0 
L 7.328125 8.296875 
Q 12.9375 14.109375 22.625 23.890625 
Q 32.328125 33.6875 34.8125 36.53125 
Q 39.546875 41.84375 41.421875 45.53125 
Q 43.3125 49.21875 43.3125 52.78125 
Q 43.3125 58.59375 39.234375 62.25 
Q 35.15625 65.921875 28.609375 65.921875 
Q 23.96875 65.921875 18.8125 64.3125 
Q 13.671875 62.703125 7.8125 59.421875 
L 7.8125 69.390625 
Q 13.765625 71.78125 18.9375 73 
Q 24.125 74.21875 28.421875 74.21875 
Q 39.75 74.21875 46.484375 68.546875 
Q 53.21875 62.890625 53.21875 53.421875 
Q 53.21875 48.921875 51.53125 44.890625 
Q 49.859375 40.875 45.40625 35.40625 
Q 44.1875 33.984375 37.640625 27.21875 
Q 31.109375 20.453125 19.1875 8.296875 
z
" id="DejaVuSans-50"/>
        <path d="M 31.78125 66.40625 
Q 24.171875 66.40625 20.328125 58.90625 
Q 16.5 51.421875 16.5 36.375 
Q 16.5 21.390625 20.328125 13.890625 
Q 24.171875 6.390625 31.78125 6.390625 
Q 39.453125 6.390625 43.28125 13.890625 
Q 47.125 21.390625 47.125 36.375 
Q 47.125 51.421875 43.28125 58.90625 
Q 39.453125 66.40625 31.78125 66.40625 
z
M 31.78125 74.21875 
Q 44.046875 74.21875 50.515625 64.515625 
Q 56.984375 54.828125 56.984375 36.375 
Q 56.984375 17.96875 50.515625 8.265625 
Q 44.046875 -1.421875 31.78125 -1.421875 
Q 19.53125 -1.421875 13.0625 8.265625 
Q 6.59375 17.96875 6.59375 36.375 
Q 6.59375 54.828125 13.0625 64.515625 
Q 19.53125 74.21875 31.78125 74.21875 
z
" id="DejaVuSans-48"/>
       </defs>
       <use xlink:href="#DejaVuSans-50"/>
       <use x="63.623047" xlink:href="#DejaVuSans-48"/>
      </g>
     </g>
    </g>
    <g id="xtick_2">
     <g id="line2d_2">
      <g>
       <use style="stroke:#000000;stroke-width:0.8;" x="160.925661" xlink:href="#m2c3f38d336" y="307.584"/>
      </g>
     </g>
     <g id="text_2">
      <!-- 40 -->
      <g transform="translate(154.563161 322.182437)scale(0.1 -0.1)">
       <defs>
        <path d="M 37.796875 64.3125 
L 12.890625 25.390625 
L 37.796875 25.390625 
z
M 35.203125 72.90625 
L 47.609375 72.90625 
L 47.609375 25.390625 
L 58.015625 25.390625 
L 58.015625 17.1875 
L 47.609375 17.1875 
L 47.609375 0 
L 37.796875 0 
L 37.796875 17.1875 
L 4.890625 17.1875 
L 4.890625 26.703125 
z
" id="DejaVuSans-52"/>
       </defs>
       <use xlink:href="#DejaVuSans-52"/>
       <use x="63.623047" xlink:href="#DejaVuSans-48"/>
      </g>
     </g>
    </g>
    <g id="xtick_3">
     <g id="line2d_3">
      <g>
       <use style="stroke:#000000;stroke-width:0.8;" x="213.600011" xlink:href="#m2c3f38d336" y="307.584"/>
      </g>
     </g>
     <g id="text_3">
      <!-- 60 -->
      <g transform="translate(207.237511 322.182437)scale(0.1 -0.1)">
       <defs>
        <path d="M 33.015625 40.375 
Q 26.375 40.375 22.484375 35.828125 
Q 18.609375 31.296875 18.609375 23.390625 
Q 18.609375 15.53125 22.484375 10.953125 
Q 26.375 6.390625 33.015625 6.390625 
Q 39.65625 6.390625 43.53125 10.953125 
Q 47.40625 15.53125 47.40625 23.390625 
Q 47.40625 31.296875 43.53125 35.828125 
Q 39.65625 40.375 33.015625 40.375 
z
M 52.59375 71.296875 
L 52.59375 62.3125 
Q 48.875 64.0625 45.09375 64.984375 
Q 41.3125 65.921875 37.59375 65.921875 
Q 27.828125 65.921875 22.671875 59.328125 
Q 17.53125 52.734375 16.796875 39.40625 
Q 19.671875 43.65625 24.015625 45.921875 
Q 28.375 48.1875 33.59375 48.1875 
Q 44.578125 48.1875 50.953125 41.515625 
Q 57.328125 34.859375 57.328125 23.390625 
Q 57.328125 12.15625 50.6875 5.359375 
Q 44.046875 -1.421875 33.015625 -1.421875 
Q 20.359375 -1.421875 13.671875 8.265625 
Q 6.984375 17.96875 6.984375 36.375 
Q 6.984375 53.65625 15.1875 63.9375 
Q 23.390625 74.21875 37.203125 74.21875 
Q 40.921875 74.21875 44.703125 73.484375 
Q 48.484375 72.75 52.59375 71.296875 
z
" id="DejaVuSans-54"/>
       </defs>
       <use xlink:href="#DejaVuSans-54"/>
       <use x="63.623047" xlink:href="#DejaVuSans-48"/>
      </g>
     </g>
    </g>
    <g id="xtick_4">
     <g id="line2d_4">
      <g>
       <use style="stroke:#000000;stroke-width:0.8;" x="266.27436" xlink:href="#m2c3f38d336" y="307.584"/>
      </g>
     </g>
     <g id="text_4">
      <!-- 80 -->
      <g transform="translate(259.91186 322.182437)scale(0.1 -0.1)">
       <defs>
        <path d="M 31.78125 34.625 
Q 24.75 34.625 20.71875 30.859375 
Q 16.703125 27.09375 16.703125 20.515625 
Q 16.703125 13.921875 20.71875 10.15625 
Q 24.75 6.390625 31.78125 6.390625 
Q 38.8125 6.390625 42.859375 10.171875 
Q 46.921875 13.96875 46.921875 20.515625 
Q 46.921875 27.09375 42.890625 30.859375 
Q 38.875 34.625 31.78125 34.625 
z
M 21.921875 38.8125 
Q 15.578125 40.375 12.03125 44.71875 
Q 8.5 49.078125 8.5 55.328125 
Q 8.5 64.0625 14.71875 69.140625 
Q 20.953125 74.21875 31.78125 74.21875 
Q 42.671875 74.21875 48.875 69.140625 
Q 55.078125 64.0625 55.078125 55.328125 
Q 55.078125 49.078125 51.53125 44.71875 
Q 48 40.375 41.703125 38.8125 
Q 48.828125 37.15625 52.796875 32.3125 
Q 56.78125 27.484375 56.78125 20.515625 
Q 56.78125 9.90625 50.3125 4.234375 
Q 43.84375 -1.421875 31.78125 -1.421875 
Q 19.734375 -1.421875 13.25 4.234375 
Q 6.78125 9.90625 6.78125 20.515625 
Q 6.78125 27.484375 10.78125 32.3125 
Q 14.796875 37.15625 21.921875 38.8125 
z
M 18.3125 54.390625 
Q 18.3125 48.734375 21.84375 45.5625 
Q 25.390625 42.390625 31.78125 42.390625 
Q 38.140625 42.390625 41.71875 45.5625 
Q 45.3125 48.734375 45.3125 54.390625 
Q 45.3125 60.0625 41.71875 63.234375 
Q 38.140625 66.40625 31.78125 66.40625 
Q 25.390625 66.40625 21.84375 63.234375 
Q 18.3125 60.0625 18.3125 54.390625 
z
" id="DejaVuSans-56"/>
       </defs>
       <use xlink:href="#DejaVuSans-56"/>
       <use x="63.623047" xlink:href="#DejaVuSans-48"/>
      </g>
     </g>
    </g>
    <g id="xtick_5">
     <g id="line2d_5">
      <g>
       <use style="stroke:#000000;stroke-width:0.8;" x="318.94871" xlink:href="#m2c3f38d336" y="307.584"/>
      </g>
     </g>
     <g id="text_5">
      <!-- 100 -->
      <g transform="translate(309.40496 322.182437)scale(0.1 -0.1)">
       <defs>
        <path d="M 12.40625 8.296875 
L 28.515625 8.296875 
L 28.515625 63.921875 
L 10.984375 60.40625 
L 10.984375 69.390625 
L 28.421875 72.90625 
L 38.28125 72.90625 
L 38.28125 8.296875 
L 54.390625 8.296875 
L 54.390625 0 
L 12.40625 0 
z
" id="DejaVuSans-49"/>
       </defs>
       <use xlink:href="#DejaVuSans-49"/>
       <use x="63.623047" xlink:href="#DejaVuSans-48"/>
       <use x="127.246094" xlink:href="#DejaVuSans-48"/>
      </g>
     </g>
    </g>
    <g id="xtick_6">
     <g id="line2d_6">
      <g>
       <use style="stroke:#000000;stroke-width:0.8;" x="371.62306" xlink:href="#m2c3f38d336" y="307.584"/>
      </g>
     </g>
     <g id="text_6">
      <!-- 120 -->
      <g transform="translate(362.07931 322.182437)scale(0.1 -0.1)">
       <use xlink:href="#DejaVuSans-49"/>
       <use x="63.623047" xlink:href="#DejaVuSans-50"/>
       <use x="127.246094" xlink:href="#DejaVuSans-48"/>
      </g>
     </g>
    </g>
   </g>
   <g id="matplotlib.axis_2">
    <g id="ytick_1">
     <g id="line2d_7">
      <defs>
       <path d="M 0 0 
L -3.5 0 
" id="ma25afa3d8d" style="stroke:#000000;stroke-width:0.8;"/>
      </defs>
      <g>
       <use style="stroke:#000000;stroke-width:0.8;" x="57.6" xlink:href="#ma25afa3d8d" y="267.600629"/>
      </g>
     </g>
     <g id="text_7">
      <!-- 20 -->
      <g transform="translate(37.875 271.399848)scale(0.1 -0.1)">
       <use xlink:href="#DejaVuSans-50"/>
       <use x="63.623047" xlink:href="#DejaVuSans-48"/>
      </g>
     </g>
    </g>
    <g id="ytick_2">
     <g id="line2d_8">
      <g>
       <use style="stroke:#000000;stroke-width:0.8;" x="57.6" xlink:href="#ma25afa3d8d" y="214.92628"/>
      </g>
     </g>
     <g id="text_8">
      <!-- 40 -->
      <g transform="translate(37.875 218.725498)scale(0.1 -0.1)">
       <use xlink:href="#DejaVuSans-52"/>
       <use x="63.623047" xlink:href="#DejaVuSans-48"/>
      </g>
     </g>
    </g>
    <g id="ytick_3">
     <g id="line2d_9">
      <g>
       <use style="stroke:#000000;stroke-width:0.8;" x="57.6" xlink:href="#ma25afa3d8d" y="162.25193"/>
      </g>
     </g>
     <g id="text_9">
      <!-- 60 -->
      <g transform="translate(37.875 166.051149)scale(0.1 -0.1)">
       <use xlink:href="#DejaVuSans-54"/>
       <use x="63.623047" xlink:href="#DejaVuSans-48"/>
      </g>
     </g>
    </g>
    <g id="ytick_4">
     <g id="line2d_10">
      <g>
       <use style="stroke:#000000;stroke-width:0.8;" x="57.6" xlink:href="#ma25afa3d8d" y="109.577581"/>
      </g>
     </g>
     <g id="text_10">
      <!-- 80 -->
      <g transform="translate(37.875 113.376799)scale(0.1 -0.1)">
       <use xlink:href="#DejaVuSans-56"/>
       <use x="63.623047" xlink:href="#DejaVuSans-48"/>
      </g>
     </g>
    </g>
    <g id="ytick_5">
     <g id="line2d_11">
      <g>
       <use style="stroke:#000000;stroke-width:0.8;" x="57.6" xlink:href="#ma25afa3d8d" y="56.903231"/>
      </g>
     </g>
     <g id="text_11">
      <!-- 100 -->
      <g transform="translate(31.5125 60.70245)scale(0.1 -0.1)">
       <use xlink:href="#DejaVuSans-49"/>
       <use x="63.623047" xlink:href="#DejaVuSans-48"/>
       <use x="127.246094" xlink:href="#DejaVuSans-48"/>
      </g>
     </g>
    </g>
   </g>
   <g id="line2d_12">
    <path clip-path="url(#pa32d2909e4)" d="M 389.537606 293.937804 
L 390.22764 288.601893 
L 390.517349 283.30812 
L 390.467308 278.045953 
L 390.130192 272.812756 
L 389.558676 267.600629 
L 388.389305 259.807459 
L 381.639087 220.844243 
L 380.374903 215.734831 
L 378.810475 210.696529 
L 376.935268 205.753042 
L 374.762451 200.925438 
L 372.305192 196.240054 
L 369.571394 191.715328 
L 366.579491 187.369694 
L 363.35582 183.197885 
L 359.92672 179.186734 
L 356.323795 175.32307 
L 352.576015 171.59636 
L 348.707084 167.993434 
L 344.719636 164.532729 
L 340.608403 161.227414 
L 336.370751 158.098558 
L 331.99878 155.156695 
L 327.495123 152.422897 
L 322.865048 149.894528 
L 318.129624 147.566321 
L 313.296752 145.438278 
L 308.379602 143.502495 
L 300.899844 140.900383 
L 290.925956 137.484451 
L 286.035143 135.559203 
L 281.262847 133.349515 
L 276.632771 130.821146 
L 272.163353 127.995167 
L 267.862492 124.903183 
L 263.743358 121.57153 
L 259.819119 118.034447 
L 256.071339 114.326173 
L 250.669584 108.555698 
L 238.283211 94.923576 
L 232.773474 89.276886 
L 227.037237 83.814556 
L 223.05769 80.293276 
L 218.930655 76.922118 
L 214.637696 73.787994 
L 210.157742 70.983085 
L 207.842704 69.732069 
L 205.474992 68.594303 
L 203.049339 67.585589 
L 200.568377 66.711195 
L 198.037374 65.97112 
L 195.461599 65.360098 
L 192.854218 64.87286 
L 190.217867 64.509407 
L 187.56308 64.259204 
L 182.229802 64.098547 
L 176.912326 64.351384 
L 171.660694 64.978209 
L 166.477538 65.915812 
L 161.339155 67.082549 
L 153.690839 69.10261 
L 141.001589 72.734507 
L 135.979089 74.33054 
L 131.014532 76.081962 
L 126.126352 78.038814 
L 121.338254 80.245869 
L 116.671306 82.716296 
L 112.154481 85.457996 
L 107.808847 88.47887 
L 103.660742 91.781552 
L 99.739137 95.373942 
L 96.086171 99.240239 
L 92.746617 103.367275 
L 91.208526 105.521656 
L 89.765249 107.736612 
L 88.424686 110.006876 
L 87.189473 112.332449 
L 86.064876 114.710696 
L 85.058796 117.138983 
L 84.1765 119.614678 
L 83.420623 122.137779 
L 82.8017 124.705654 
L 82.322363 127.315668 
L 81.987881 129.965188 
L 81.803521 132.654213 
L 81.777184 135.377477 
L 81.914137 138.134979 
L 81.914137 138.134979 
" style="fill:none;stroke:#fea952;stroke-linecap:square;"/>
   </g>
   <g id="line2d_13">
    <path clip-path="url(#pa32d2909e4)" d="M 379.117415 292.387608 
L 379.720343 287.840192 
L 379.982669 283.244912 
L 379.946824 278.59632 
L 379.647605 273.861015 
L 379.120989 269.028276 
L 378.006154 261.588934 
L 375.688849 248.662774 
L 374.335603 240.633809 
L 372.310847 227.954062 
L 371.379719 223.237744 
L 370.267107 218.703996 
L 368.90681 214.288314 
L 367.266899 209.937075 
L 365.358723 205.674478 
L 363.206536 201.550227 
L 360.80909 197.563876 
L 358.156651 193.697352 
L 355.273071 189.954559 
L 352.148692 186.292067 
L 348.832609 182.730203 
L 345.334209 179.247486 
L 341.728995 175.885821 
L 338.037676 172.677354 
L 334.257187 169.632505 
L 330.391726 166.772354 
L 326.427622 164.09793 
L 322.343269 161.612123 
L 318.111693 159.296075 
L 313.791641 157.166602 
L 309.338992 155.201454 
L 304.79374 153.408306 
L 297.577889 150.897787 
L 287.179542 147.330662 
L 281.772197 145.193039 
L 276.36712 142.677716 
L 271.132572 139.806205 
L 266.139591 136.637955 
L 261.350586 133.1844 
L 256.792728 129.488109 
L 252.486463 125.59855 
L 248.470986 121.621248 
L 242.840649 115.604901 
L 230.666833 102.201919 
L 225.403578 96.804709 
L 219.990359 91.645583 
L 216.299101 88.374424 
L 212.591398 85.336231 
L 208.871647 82.604806 
L 205.149335 80.251274 
L 201.42987 78.321608 
L 199.547536 77.521426 
L 197.611745 76.822664 
L 195.605785 76.221528 
L 191.415467 75.309022 
L 187.032845 74.780722 
L 182.531567 74.629094 
L 177.991707 74.830812 
L 173.397737 75.368886 
L 168.709337 76.211566 
L 163.9289 77.294146 
L 156.516934 79.251338 
L 144.117493 82.798036 
L 137.092889 85.079984 
L 132.593825 86.762057 
L 128.25292 88.620115 
L 124.041717 90.693574 
L 119.989819 92.979508 
L 116.109945 95.48487 
L 112.411197 98.219784 
L 108.92362 101.180471 
L 105.66755 104.364562 
L 102.691667 107.739081 
L 100.034941 111.272994 
L 97.728605 114.948595 
L 95.797471 118.743073 
L 94.268234 122.637984 
L 93.662208 124.606264 
L 93.163279 126.608588 
L 92.774275 128.635144 
L 92.498078 130.685769 
L 92.337898 132.756093 
L 92.299084 134.854899 
L 92.436038 137.612401 
L 92.436038 137.612401 
" style="fill:none;stroke:#ffffff;stroke-linecap:square;"/>
   </g>
   <g id="line2d_14">
    <path clip-path="url(#pa32d2909e4)" d="M 399.957797 295.488 
L 400.40724 292.414319 
L 400.734937 289.363593 
L 401.052029 283.371328 
L 400.987792 277.495585 
L 400.61278 271.764497 
L 399.996363 266.172982 
L 398.772456 258.025985 
L 391.898455 218.450742 
L 390.482699 212.765666 
L 388.714139 207.104745 
L 386.603636 201.569008 
L 384.166179 196.176398 
L 381.403849 190.929881 
L 378.333697 185.866779 
L 375.00233 181.042036 
L 371.43857 176.441212 
L 367.704748 172.0814 
L 363.81498 167.915937 
L 359.817821 163.945234 
L 355.685172 160.101048 
L 351.401595 156.388105 
L 346.959618 152.822323 
L 342.349776 149.424761 
L 337.569938 146.21546 
L 332.646978 143.23367 
L 327.618403 140.49298 
L 322.467606 137.966041 
L 317.254513 135.675101 
L 311.965463 133.596685 
L 304.2218 130.902978 
L 294.672371 127.63824 
L 290.298088 125.925368 
L 286.158573 124.021313 
L 282.132971 121.836087 
L 278.187114 119.352379 
L 274.374398 116.621965 
L 270.693988 113.654951 
L 267.151775 110.470345 
L 263.671692 107.031098 
L 258.49852 101.506495 
L 245.899589 87.645234 
L 240.14337 81.749064 
L 236.139107 77.88641 
L 231.979664 74.091781 
L 227.583573 70.348508 
L 222.887911 66.719384 
L 220.403744 64.971182 
L 217.835155 63.301239 
L 215.166149 61.714895 
L 212.40559 60.236619 
L 209.520115 58.866998 
L 206.551141 57.649752 
L 203.525008 56.599725 
L 200.468964 55.720713 
L 197.396738 55.004485 
L 194.29297 54.436698 
L 191.206356 54.021015 
L 188.093314 53.737686 
L 185.001749 53.590528 
L 181.928037 53.568 
L 178.865096 53.663296 
L 172.860833 54.183625 
L 167.047888 55.072076 
L 161.468317 56.224193 
L 156.081138 57.548322 
L 145.734596 60.38857 
L 137.885684 62.670977 
L 132.575041 64.360788 
L 127.218606 66.254732 
L 121.840899 68.41497 
L 116.534645 70.869898 
L 111.336342 73.632154 
L 106.281778 76.711863 
L 101.39119 80.1244 
L 96.68512 83.886985 
L 92.217188 87.998051 
L 90.086647 90.181143 
L 88.027389 92.454996 
L 86.056842 94.807858 
L 84.172624 97.245989 
L 82.382111 99.770318 
L 80.693824 102.380052 
L 79.120768 105.065158 
L 77.665708 107.828963 
L 76.33228 110.678319 
L 75.135281 113.602412 
L 74.084766 116.591371 
L 73.179038 119.669295 
L 72.44012 122.80272 
L 71.870451 125.996192 
L 71.477684 129.244606 
L 71.269143 132.552333 
L 71.255283 135.900055 
L 71.392236 138.657557 
L 71.392236 138.657557 
" style="fill:none;stroke:#ffffff;stroke-linecap:square;"/>
   </g>
   <g id="patch_3">
    <path d="M 57.6 307.584 
L 57.6 41.472 
" style="fill:none;stroke:#000000;stroke-linecap:square;stroke-linejoin:miter;stroke-width:0.8;"/>
   </g>
   <g id="patch_4">
    <path d="M 414.72 307.584 
L 414.72 41.472 
" style="fill:none;stroke:#000000;stroke-linecap:square;stroke-linejoin:miter;stroke-width:0.8;"/>
   </g>
   <g id="patch_5">
    <path d="M 57.6 307.584 
L 414.72 307.584 
" style="fill:none;stroke:#000000;stroke-linecap:square;stroke-linejoin:miter;stroke-width:0.8;"/>
   </g>
   <g id="patch_6">
    <path d="M 57.6 41.472 
L 414.72 41.472 
" style="fill:none;stroke:#000000;stroke-linecap:square;stroke-linejoin:miter;stroke-width:0.8;"/>
   </g>
  </g>
 </g>
 <defs>
  <clipPath id="pa32d2909e4">
   <rect height="266.112" width="357.12" x="57.6" y="41.472"/>
  </clipPath>
 </defs>
</svg>
