<?xml version="1.0" encoding="utf-8" standalone="no"?>
<!DOCTYPE svg PUBLIC "-//W3C//DTD SVG 1.1//EN"
  "http://www.w3.org/Graphics/SVG/1.1/DTD/svg11.dtd">
<!-- Created with matplotlib (https://matplotlib.org/) -->
<svg height="345.6pt" version="1.1" viewBox="0 0 460.8 345.6" width="460.8pt" xmlns="http://www.w3.org/2000/svg" xmlns:xlink="http://www.w3.org/1999/xlink">
 <metadata>
  <rdf:RDF xmlns:cc="http://creativecommons.org/ns#" xmlns:dc="http://purl.org/dc/elements/1.1/" xmlns:rdf="http://www.w3.org/1999/02/22-rdf-syntax-ns#">
   <cc:Work>
    <dc:type rdf:resource="http://purl.org/dc/dcmitype/StillImage"/>
    <dc:date>2021-01-22T09:16:08.325197</dc:date>
    <dc:format>image/svg+xml</dc:format>
    <dc:creator>
     <cc:Agent>
      <dc:title>Matplotlib v3.3.3, https://matplotlib.org/</dc:title>
     </cc:Agent>
    </dc:creator>
   </cc:Work>
  </rdf:RDF>
 </metadata>
 <defs>
  <style type="text/css">*{stroke-linecap:butt;stroke-linejoin:round;}</style>
 </defs>
 <g id="figure_1">
  <g id="patch_1">
   <path d="M 0 345.6 
L 460.8 345.6 
L 460.8 0 
L 0 0 
z
" style="fill:#ffffff;"/>
  </g>
  <g id="axes_1">
   <g id="patch_2">
    <path d="M 57.6 307.584 
L 414.72 307.584 
L 414.72 41.472 
L 57.6 41.472 
z
" style="fill:#7d9051;"/>
   </g>
   <g id="matplotlib.axis_1">
    <g id="xtick_1">
     <g id="line2d_1">
      <defs>
       <path d="M 0 0 
L 0 3.5 
" id="mcc800f1ab5" style="stroke:#000000;stroke-width:0.8;"/>
      </defs>
      <g>
       <use style="stroke:#000000;stroke-width:0.8;" x="90.891788" xlink:href="#mcc800f1ab5" y="307.584"/>
      </g>
     </g>
     <g id="text_1">
      <!-- 10 -->
      <g transform="translate(84.529288 322.182437)scale(0.1 -0.1)">
       <defs>
        <path d="M 12.40625 8.296875 
L 28.515625 8.296875 
L 28.515625 63.921875 
L 10.984375 60.40625 
L 10.984375 69.390625 
L 28.421875 72.90625 
L 38.28125 72.90625 
L 38.28125 8.296875 
L 54.390625 8.296875 
L 54.390625 0 
L 12.40625 0 
z
" id="DejaVuSans-49"/>
        <path d="M 31.78125 66.40625 
Q 24.171875 66.40625 20.328125 58.90625 
Q 16.5 51.421875 16.5 36.375 
Q 16.5 21.390625 20.328125 13.890625 
Q 24.171875 6.390625 31.78125 6.390625 
Q 39.453125 6.390625 43.28125 13.890625 
Q 47.125 21.390625 47.125 36.375 
Q 47.125 51.421875 43.28125 58.90625 
Q 39.453125 66.40625 31.78125 66.40625 
z
M 31.78125 74.21875 
Q 44.046875 74.21875 50.515625 64.515625 
Q 56.984375 54.828125 56.984375 36.375 
Q 56.984375 17.96875 50.515625 8.265625 
Q 44.046875 -1.421875 31.78125 -1.421875 
Q 19.53125 -1.421875 13.0625 8.265625 
Q 6.59375 17.96875 6.59375 36.375 
Q 6.59375 54.828125 13.0625 64.515625 
Q 19.53125 74.21875 31.78125 74.21875 
z
" id="DejaVuSans-48"/>
       </defs>
       <use xlink:href="#DejaVuSans-49"/>
       <use x="63.623047" xlink:href="#DejaVuSans-48"/>
      </g>
     </g>
    </g>
    <g id="xtick_2">
     <g id="line2d_2">
      <g>
       <use style="stroke:#000000;stroke-width:0.8;" x="131.735383" xlink:href="#mcc800f1ab5" y="307.584"/>
      </g>
     </g>
     <g id="text_2">
      <!-- 20 -->
      <g transform="translate(125.372883 322.182437)scale(0.1 -0.1)">
       <defs>
        <path d="M 19.1875 8.296875 
L 53.609375 8.296875 
L 53.609375 0 
L 7.328125 0 
L 7.328125 8.296875 
Q 12.9375 14.109375 22.625 23.890625 
Q 32.328125 33.6875 34.8125 36.53125 
Q 39.546875 41.84375 41.421875 45.53125 
Q 43.3125 49.21875 43.3125 52.78125 
Q 43.3125 58.59375 39.234375 62.25 
Q 35.15625 65.921875 28.609375 65.921875 
Q 23.96875 65.921875 18.8125 64.3125 
Q 13.671875 62.703125 7.8125 59.421875 
L 7.8125 69.390625 
Q 13.765625 71.78125 18.9375 73 
Q 24.125 74.21875 28.421875 74.21875 
Q 39.75 74.21875 46.484375 68.546875 
Q 53.21875 62.890625 53.21875 53.421875 
Q 53.21875 48.921875 51.53125 44.890625 
Q 49.859375 40.875 45.40625 35.40625 
Q 44.1875 33.984375 37.640625 27.21875 
Q 31.109375 20.453125 19.1875 8.296875 
z
" id="DejaVuSans-50"/>
       </defs>
       <use xlink:href="#DejaVuSans-50"/>
       <use x="63.623047" xlink:href="#DejaVuSans-48"/>
      </g>
     </g>
    </g>
    <g id="xtick_3">
     <g id="line2d_3">
      <g>
       <use style="stroke:#000000;stroke-width:0.8;" x="172.578977" xlink:href="#mcc800f1ab5" y="307.584"/>
      </g>
     </g>
     <g id="text_3">
      <!-- 30 -->
      <g transform="translate(166.216477 322.182437)scale(0.1 -0.1)">
       <defs>
        <path d="M 40.578125 39.3125 
Q 47.65625 37.796875 51.625 33 
Q 55.609375 28.21875 55.609375 21.1875 
Q 55.609375 10.40625 48.1875 4.484375 
Q 40.765625 -1.421875 27.09375 -1.421875 
Q 22.515625 -1.421875 17.65625 -0.515625 
Q 12.796875 0.390625 7.625 2.203125 
L 7.625 11.71875 
Q 11.71875 9.328125 16.59375 8.109375 
Q 21.484375 6.890625 26.8125 6.890625 
Q 36.078125 6.890625 40.9375 10.546875 
Q 45.796875 14.203125 45.796875 21.1875 
Q 45.796875 27.640625 41.28125 31.265625 
Q 36.765625 34.90625 28.71875 34.90625 
L 20.21875 34.90625 
L 20.21875 43.015625 
L 29.109375 43.015625 
Q 36.375 43.015625 40.234375 45.921875 
Q 44.09375 48.828125 44.09375 54.296875 
Q 44.09375 59.90625 40.109375 62.90625 
Q 36.140625 65.921875 28.71875 65.921875 
Q 24.65625 65.921875 20.015625 65.03125 
Q 15.375 64.15625 9.8125 62.3125 
L 9.8125 71.09375 
Q 15.4375 72.65625 20.34375 73.4375 
Q 25.25 74.21875 29.59375 74.21875 
Q 40.828125 74.21875 47.359375 69.109375 
Q 53.90625 64.015625 53.90625 55.328125 
Q 53.90625 49.265625 50.4375 45.09375 
Q 46.96875 40.921875 40.578125 39.3125 
z
" id="DejaVuSans-51"/>
       </defs>
       <use xlink:href="#DejaVuSans-51"/>
       <use x="63.623047" xlink:href="#DejaVuSans-48"/>
      </g>
     </g>
    </g>
    <g id="xtick_4">
     <g id="line2d_4">
      <g>
       <use style="stroke:#000000;stroke-width:0.8;" x="213.422572" xlink:href="#mcc800f1ab5" y="307.584"/>
      </g>
     </g>
     <g id="text_4">
      <!-- 40 -->
      <g transform="translate(207.060072 322.182437)scale(0.1 -0.1)">
       <defs>
        <path d="M 37.796875 64.3125 
L 12.890625 25.390625 
L 37.796875 25.390625 
z
M 35.203125 72.90625 
L 47.609375 72.90625 
L 47.609375 25.390625 
L 58.015625 25.390625 
L 58.015625 17.1875 
L 47.609375 17.1875 
L 47.609375 0 
L 37.796875 0 
L 37.796875 17.1875 
L 4.890625 17.1875 
L 4.890625 26.703125 
z
" id="DejaVuSans-52"/>
       </defs>
       <use xlink:href="#DejaVuSans-52"/>
       <use x="63.623047" xlink:href="#DejaVuSans-48"/>
      </g>
     </g>
    </g>
    <g id="xtick_5">
     <g id="line2d_5">
      <g>
       <use style="stroke:#000000;stroke-width:0.8;" x="254.266166" xlink:href="#mcc800f1ab5" y="307.584"/>
      </g>
     </g>
     <g id="text_5">
      <!-- 50 -->
      <g transform="translate(247.903666 322.182437)scale(0.1 -0.1)">
       <defs>
        <path d="M 10.796875 72.90625 
L 49.515625 72.90625 
L 49.515625 64.59375 
L 19.828125 64.59375 
L 19.828125 46.734375 
Q 21.96875 47.46875 24.109375 47.828125 
Q 26.265625 48.1875 28.421875 48.1875 
Q 40.625 48.1875 47.75 41.5 
Q 54.890625 34.8125 54.890625 23.390625 
Q 54.890625 11.625 47.5625 5.09375 
Q 40.234375 -1.421875 26.90625 -1.421875 
Q 22.3125 -1.421875 17.546875 -0.640625 
Q 12.796875 0.140625 7.71875 1.703125 
L 7.71875 11.625 
Q 12.109375 9.234375 16.796875 8.0625 
Q 21.484375 6.890625 26.703125 6.890625 
Q 35.15625 6.890625 40.078125 11.328125 
Q 45.015625 15.765625 45.015625 23.390625 
Q 45.015625 31 40.078125 35.4375 
Q 35.15625 39.890625 26.703125 39.890625 
Q 22.75 39.890625 18.8125 39.015625 
Q 14.890625 38.140625 10.796875 36.28125 
z
" id="DejaVuSans-53"/>
       </defs>
       <use xlink:href="#DejaVuSans-53"/>
       <use x="63.623047" xlink:href="#DejaVuSans-48"/>
      </g>
     </g>
    </g>
    <g id="xtick_6">
     <g id="line2d_6">
      <g>
       <use style="stroke:#000000;stroke-width:0.8;" x="295.109761" xlink:href="#mcc800f1ab5" y="307.584"/>
      </g>
     </g>
     <g id="text_6">
      <!-- 60 -->
      <g transform="translate(288.747261 322.182437)scale(0.1 -0.1)">
       <defs>
        <path d="M 33.015625 40.375 
Q 26.375 40.375 22.484375 35.828125 
Q 18.609375 31.296875 18.609375 23.390625 
Q 18.609375 15.53125 22.484375 10.953125 
Q 26.375 6.390625 33.015625 6.390625 
Q 39.65625 6.390625 43.53125 10.953125 
Q 47.40625 15.53125 47.40625 23.390625 
Q 47.40625 31.296875 43.53125 35.828125 
Q 39.65625 40.375 33.015625 40.375 
z
M 52.59375 71.296875 
L 52.59375 62.3125 
Q 48.875 64.0625 45.09375 64.984375 
Q 41.3125 65.921875 37.59375 65.921875 
Q 27.828125 65.921875 22.671875 59.328125 
Q 17.53125 52.734375 16.796875 39.40625 
Q 19.671875 43.65625 24.015625 45.921875 
Q 28.375 48.1875 33.59375 48.1875 
Q 44.578125 48.1875 50.953125 41.515625 
Q 57.328125 34.859375 57.328125 23.390625 
Q 57.328125 12.15625 50.6875 5.359375 
Q 44.046875 -1.421875 33.015625 -1.421875 
Q 20.359375 -1.421875 13.671875 8.265625 
Q 6.984375 17.96875 6.984375 36.375 
Q 6.984375 53.65625 15.1875 63.9375 
Q 23.390625 74.21875 37.203125 74.21875 
Q 40.921875 74.21875 44.703125 73.484375 
Q 48.484375 72.75 52.59375 71.296875 
z
" id="DejaVuSans-54"/>
       </defs>
       <use xlink:href="#DejaVuSans-54"/>
       <use x="63.623047" xlink:href="#DejaVuSans-48"/>
      </g>
     </g>
    </g>
    <g id="xtick_7">
     <g id="line2d_7">
      <g>
       <use style="stroke:#000000;stroke-width:0.8;" x="335.953355" xlink:href="#mcc800f1ab5" y="307.584"/>
      </g>
     </g>
     <g id="text_7">
      <!-- 70 -->
      <g transform="translate(329.590855 322.182437)scale(0.1 -0.1)">
       <defs>
        <path d="M 8.203125 72.90625 
L 55.078125 72.90625 
L 55.078125 68.703125 
L 28.609375 0 
L 18.3125 0 
L 43.21875 64.59375 
L 8.203125 64.59375 
z
" id="DejaVuSans-55"/>
       </defs>
       <use xlink:href="#DejaVuSans-55"/>
       <use x="63.623047" xlink:href="#DejaVuSans-48"/>
      </g>
     </g>
    </g>
    <g id="xtick_8">
     <g id="line2d_8">
      <g>
       <use style="stroke:#000000;stroke-width:0.8;" x="376.79695" xlink:href="#mcc800f1ab5" y="307.584"/>
      </g>
     </g>
     <g id="text_8">
      <!-- 80 -->
      <g transform="translate(370.43445 322.182437)scale(0.1 -0.1)">
       <defs>
        <path d="M 31.78125 34.625 
Q 24.75 34.625 20.71875 30.859375 
Q 16.703125 27.09375 16.703125 20.515625 
Q 16.703125 13.921875 20.71875 10.15625 
Q 24.75 6.390625 31.78125 6.390625 
Q 38.8125 6.390625 42.859375 10.171875 
Q 46.921875 13.96875 46.921875 20.515625 
Q 46.921875 27.09375 42.890625 30.859375 
Q 38.875 34.625 31.78125 34.625 
z
M 21.921875 38.8125 
Q 15.578125 40.375 12.03125 44.71875 
Q 8.5 49.078125 8.5 55.328125 
Q 8.5 64.0625 14.71875 69.140625 
Q 20.953125 74.21875 31.78125 74.21875 
Q 42.671875 74.21875 48.875 69.140625 
Q 55.078125 64.0625 55.078125 55.328125 
Q 55.078125 49.078125 51.53125 44.71875 
Q 48 40.375 41.703125 38.8125 
Q 48.828125 37.15625 52.796875 32.3125 
Q 56.78125 27.484375 56.78125 20.515625 
Q 56.78125 9.90625 50.3125 4.234375 
Q 43.84375 -1.421875 31.78125 -1.421875 
Q 19.734375 -1.421875 13.25 4.234375 
Q 6.78125 9.90625 6.78125 20.515625 
Q 6.78125 27.484375 10.78125 32.3125 
Q 14.796875 37.15625 21.921875 38.8125 
z
M 18.3125 54.390625 
Q 18.3125 48.734375 21.84375 45.5625 
Q 25.390625 42.390625 31.78125 42.390625 
Q 38.140625 42.390625 41.71875 45.5625 
Q 45.3125 48.734375 45.3125 54.390625 
Q 45.3125 60.0625 41.71875 63.234375 
Q 38.140625 66.40625 31.78125 66.40625 
Q 25.390625 66.40625 21.84375 63.234375 
Q 18.3125 60.0625 18.3125 54.390625 
z
" id="DejaVuSans-56"/>
       </defs>
       <use xlink:href="#DejaVuSans-56"/>
       <use x="63.623047" xlink:href="#DejaVuSans-48"/>
      </g>
     </g>
    </g>
   </g>
   <g id="matplotlib.axis_2">
    <g id="ytick_1">
     <g id="line2d_9">
      <defs>
       <path d="M 0 0 
L -3.5 0 
" id="m04fedb99ed" style="stroke:#000000;stroke-width:0.8;"/>
      </defs>
      <g>
       <use style="stroke:#000000;stroke-width:0.8;" x="57.6" xlink:href="#m04fedb99ed" y="299.286281"/>
      </g>
     </g>
     <g id="text_9">
      <!-- 0 -->
      <g transform="translate(44.2375 303.0855)scale(0.1 -0.1)">
       <use xlink:href="#DejaVuSans-48"/>
      </g>
     </g>
    </g>
    <g id="ytick_2">
     <g id="line2d_10">
      <g>
       <use style="stroke:#000000;stroke-width:0.8;" x="57.6" xlink:href="#m04fedb99ed" y="258.442687"/>
      </g>
     </g>
     <g id="text_10">
      <!-- 10 -->
      <g transform="translate(37.875 262.241905)scale(0.1 -0.1)">
       <use xlink:href="#DejaVuSans-49"/>
       <use x="63.623047" xlink:href="#DejaVuSans-48"/>
      </g>
     </g>
    </g>
    <g id="ytick_3">
     <g id="line2d_11">
      <g>
       <use style="stroke:#000000;stroke-width:0.8;" x="57.6" xlink:href="#m04fedb99ed" y="217.599092"/>
      </g>
     </g>
     <g id="text_11">
      <!-- 20 -->
      <g transform="translate(37.875 221.398311)scale(0.1 -0.1)">
       <use xlink:href="#DejaVuSans-50"/>
       <use x="63.623047" xlink:href="#DejaVuSans-48"/>
      </g>
     </g>
    </g>
    <g id="ytick_4">
     <g id="line2d_12">
      <g>
       <use style="stroke:#000000;stroke-width:0.8;" x="57.6" xlink:href="#m04fedb99ed" y="176.755498"/>
      </g>
     </g>
     <g id="text_12">
      <!-- 30 -->
      <g transform="translate(37.875 180.554716)scale(0.1 -0.1)">
       <use xlink:href="#DejaVuSans-51"/>
       <use x="63.623047" xlink:href="#DejaVuSans-48"/>
      </g>
     </g>
    </g>
    <g id="ytick_5">
     <g id="line2d_13">
      <g>
       <use style="stroke:#000000;stroke-width:0.8;" x="57.6" xlink:href="#m04fedb99ed" y="135.911903"/>
      </g>
     </g>
     <g id="text_13">
      <!-- 40 -->
      <g transform="translate(37.875 139.711122)scale(0.1 -0.1)">
       <use xlink:href="#DejaVuSans-52"/>
       <use x="63.623047" xlink:href="#DejaVuSans-48"/>
      </g>
     </g>
    </g>
    <g id="ytick_6">
     <g id="line2d_14">
      <g>
       <use style="stroke:#000000;stroke-width:0.8;" x="57.6" xlink:href="#m04fedb99ed" y="95.068309"/>
      </g>
     </g>
     <g id="text_14">
      <!-- 50 -->
      <g transform="translate(37.875 98.867527)scale(0.1 -0.1)">
       <use xlink:href="#DejaVuSans-53"/>
       <use x="63.623047" xlink:href="#DejaVuSans-48"/>
      </g>
     </g>
    </g>
    <g id="ytick_7">
     <g id="line2d_15">
      <g>
       <use style="stroke:#000000;stroke-width:0.8;" x="57.6" xlink:href="#m04fedb99ed" y="54.224714"/>
      </g>
     </g>
     <g id="text_15">
      <!-- 60 -->
      <g transform="translate(37.875 58.023933)scale(0.1 -0.1)">
       <use xlink:href="#DejaVuSans-54"/>
       <use x="63.623047" xlink:href="#DejaVuSans-48"/>
      </g>
     </g>
    </g>
   </g>
   <g id="line2d_16">
    <path clip-path="url(#pc5ed938170)" d="M 90.891788 232.75615 
L 90.385327 221.074882 
L 90.189278 212.906163 
L 90.221953 204.553648 
L 90.585461 196.12353 
L 90.924463 191.912555 
L 91.385995 187.717918 
L 91.978228 183.551872 
L 92.717497 179.434837 
L 93.616056 175.3709 
L 94.686158 171.376396 
L 95.944141 167.467664 
L 97.398173 163.652872 
L 99.060507 159.948358 
L 100.943397 156.362291 
L 103.067264 152.915091 
L 105.428023 149.610845 
L 108.021592 146.453635 
L 110.819378 143.451631 
L 113.809129 140.608916 
L 116.970423 137.921408 
L 120.278754 135.397274 
L 123.717785 133.036514 
L 127.267093 130.847297 
L 130.910342 128.829624 
L 134.623025 126.983493 
L 138.388804 125.31299 
L 142.199511 123.797693 
L 146.051062 122.421264 
L 153.852189 119.995154 
L 161.743171 117.871287 
L 185.497806 111.806014 
L 209.125825 105.315966 
L 224.895537 101.076401 
L 236.781023 98.102988 
L 248.744112 95.415479 
L 256.778047 93.826663 
L 264.85691 92.454318 
L 272.980701 91.384216 
L 281.128998 90.685791 
L 285.213358 90.506079 
L 289.301801 90.444814 
L 293.39433 90.518332 
L 297.486858 90.730719 
L 301.571217 91.090142 
L 305.647408 91.600687 
L 309.703177 92.258269 
L 313.73444 93.066972 
L 317.728943 94.034966 
L 321.686688 95.158164 
L 325.591335 96.440653 
L 329.446971 97.890601 
L 333.237256 99.503923 
L 336.958108 101.284704 
L 340.601356 103.232943 
L 344.150665 105.340473 
L 347.601948 107.611376 
L 350.93887 110.04157 
L 354.153261 112.62697 
L 357.232868 115.363491 
L 360.169522 118.251133 
L 362.946887 121.285812 
L 365.560877 124.467528 
L 367.999239 127.792196 
L 370.25789 131.24348 
L 372.332745 134.817295 
L 374.215634 138.493218 
L 375.910644 142.267166 
L 377.409604 146.122802 
L 378.70843 150.047871 
L 379.803038 154.034206 
L 380.697513 158.061384 
L 381.375517 162.125322 
L 381.845218 166.213766 
L 382.106617 170.314463 
L 382.159714 174.419244 
L 382.016761 178.52811 
L 381.673675 182.628806 
L 381.138624 186.713166 
L 380.415692 190.773019 
L 379.508964 194.808366 
L 378.426609 198.80287 
L 377.164542 202.752445 
L 375.730932 206.648924 
L 374.129863 210.480054 
L 372.353167 214.23358 
L 370.409011 217.893166 
L 368.293313 221.446559 
L 366.010156 224.881505 
L 363.551372 228.185752 
L 360.929213 231.342962 
L 358.131427 234.340881 
L 355.166182 237.167258 
L 352.033478 239.805754 
L 348.749653 242.264539 
L 345.322876 244.535443 
L 341.769483 246.630719 
L 338.105813 248.542199 
L 334.348202 250.273968 
L 330.508904 251.830109 
L 326.600172 253.206538 
L 322.638343 254.415508 
L 318.64384 255.444767 
L 314.620746 256.310651 
L 310.581314 257.013161 
L 306.521461 257.568634 
L 302.449355 257.993407 
L 298.369079 258.299734 
L 290.184023 258.593808 
L 281.998967 258.552964 
L 273.830248 258.283397 
L 265.686035 257.838201 
L 253.490138 256.870208 
L 241.281987 255.583635 
L 233.117353 254.570714 
L 224.956803 253.369912 
L 216.869771 251.862784 
L 212.871183 250.956056 
L 208.917523 249.922713 
L 205.01696 248.750502 
L 201.173578 247.423085 
L 197.403714 245.920041 
L 193.707368 244.2332 
L 190.088626 242.370732 
L 186.551571 240.336721 
L 183.100287 238.14342 
L 179.73069 235.798998 
L 176.442781 233.311623 
L 173.244728 230.693549 
L 170.13653 227.957028 
L 167.118188 225.10206 
L 164.189703 222.149069 
L 161.355157 219.098052 
L 158.618636 215.965348 
L 155.976056 212.759126 
L 153.4315 209.48347 
L 148.648715 202.781036 
L 144.274366 195.923396 
L 140.328875 189.000407 
L 140.328875 189.000407 
" style="fill:none;stroke:#fea952;stroke-linecap:square;"/>
   </g>
   <g id="line2d_17">
    <path clip-path="url(#pc5ed938170)" d="M 74.572565 233.527413 
L 74.05534 221.568235 
L 73.852037 212.986405 
L 73.892878 204.030991 
L 74.300708 194.812536 
L 74.68503 190.125744 
L 75.211175 185.418557 
L 75.897971 180.664445 
L 76.765338 175.907727 
L 77.835084 171.143277 
L 79.134311 166.371204 
L 80.678041 161.648894 
L 82.492648 156.964285 
L 84.595713 152.353518 
L 87.034011 147.792527 
L 89.774054 143.417594 
L 92.803942 139.240481 
L 96.069914 135.314996 
L 99.561876 131.611845 
L 103.227279 128.161574 
L 107.060536 124.93272 
L 111.032632 121.928009 
L 115.141096 119.131397 
L 119.351985 116.555239 
L 123.636222 114.200917 
L 127.998284 112.049482 
L 132.352104 110.131748 
L 136.701536 108.413151 
L 141.007294 106.881886 
L 149.491368 104.250469 
L 157.757705 102.027426 
L 181.236455 96.034116 
L 204.810566 89.558733 
L 220.825531 85.254046 
L 233.057316 82.195572 
L 241.319013 80.299125 
L 249.676317 78.553861 
L 258.206822 76.979653 
L 266.942396 75.660228 
L 275.860969 74.690042 
L 280.410846 74.364145 
L 284.968568 74.170475 
L 289.595241 74.110011 
L 294.241041 74.20285 
L 298.919018 74.456174 
L 303.601625 74.879365 
L 308.262133 75.473844 
L 312.916575 76.239969 
L 317.582146 77.189094 
L 322.189327 78.318196 
L 326.784798 79.63653 
L 331.341992 81.148766 
L 335.845438 82.858253 
L 340.29014 84.767278 
L 344.662237 86.877821 
L 348.942625 89.185341 
L 353.13088 91.692483 
L 357.219815 94.404995 
L 361.178287 97.311047 
L 365.005253 100.414429 
L 368.687561 103.714376 
L 372.221482 107.221076 
L 375.570402 110.914759 
L 378.734954 114.805459 
L 381.669472 118.845878 
L 384.386778 123.040652 
L 386.873613 127.369139 
L 389.11892 131.799643 
L 391.137817 136.34728 
L 392.919919 140.990356 
L 394.462725 145.721897 
L 395.751814 150.491831 
L 396.812224 155.3729 
L 397.606195 160.260659 
L 398.149564 165.174445 
L 398.442688 170.10315 
L 398.487273 174.9873 
L 398.297317 179.890228 
L 397.872708 184.75088 
L 397.223046 189.577293 
L 396.355692 194.354679 
L 395.277782 199.081103 
L 393.988833 203.775701 
L 392.497132 208.393682 
L 390.804979 212.948526 
L 388.896586 217.469743 
L 386.781015 221.898374 
L 384.446642 226.251204 
L 381.899315 230.490263 
L 379.116953 234.634646 
L 376.119447 238.62392 
L 372.873324 242.489714 
L 369.403505 246.16679 
L 365.690713 249.663102 
L 361.825528 252.883508 
L 357.774541 255.883029 
L 353.621126 258.608499 
L 349.326626 261.115244 
L 344.943967 263.379703 
L 340.485139 265.414968 
L 335.935381 267.240015 
L 331.368544 268.832622 
L 326.714839 270.236193 
L 322.081403 271.416462 
L 317.420022 272.406487 
L 312.795984 273.199794 
L 308.21647 273.817905 
L 303.672447 274.284998 
L 299.135328 274.619193 
L 290.249242 274.931116 
L 281.558457 274.884462 
L 273.029074 274.601178 
L 264.540647 274.135439 
L 256.114774 273.503546 
L 243.520093 272.278877 
L 230.852202 270.750361 
L 222.152739 269.464915 
L 213.256788 267.795713 
L 208.739945 266.762534 
L 204.21548 265.568884 
L 199.683522 264.192856 
L 195.123018 262.598809 
L 190.620969 260.782956 
L 186.231029 258.759597 
L 181.94427 256.533407 
L 177.788849 254.125361 
L 173.769604 251.554245 
L 169.87393 248.828048 
L 166.093782 245.953224 
L 162.448855 242.955726 
L 158.909903 239.826094 
L 155.517841 236.606139 
L 152.220588 233.268969 
L 149.051043 229.846105 
L 146.011448 226.356242 
L 143.074002 222.781545 
L 140.259478 219.14834 
L 137.565321 215.466822 
L 134.98515 211.737535 
L 132.527762 207.9794 
L 127.955138 200.380739 
L 126.035489 196.913118 
L 126.035489 196.913118 
" style="fill:none;stroke:#ffffff;stroke-linecap:square;"/>
   </g>
   <g id="line2d_18">
    <path clip-path="url(#pc5ed938170)" d="M 107.211011 231.984887 
L 106.597625 216.72713 
L 106.504985 208.955072 
L 106.670221 201.227044 
L 107.163896 193.699367 
L 107.560816 190.01728 
L 108.058484 186.439299 
L 108.669655 182.961948 
L 109.397028 179.598522 
L 110.238004 176.381588 
L 111.21024 173.286434 
L 112.303698 170.34146 
L 113.525301 167.543199 
L 114.852783 164.932055 
L 116.360473 162.412589 
L 118.052104 159.981209 
L 119.973269 157.592273 
L 122.076879 155.291417 
L 124.390978 153.056259 
L 126.880311 150.910095 
L 129.524877 148.866539 
L 132.294474 146.941631 
L 135.182202 145.139356 
L 138.184462 143.45833 
L 141.247765 141.917504 
L 144.425504 140.494233 
L 147.697487 139.182235 
L 154.597898 136.81838 
L 161.92075 134.711108 
L 173.621799 131.742893 
L 185.752706 128.643936 
L 201.678763 124.324055 
L 225.104594 117.914196 
L 236.665736 114.943076 
L 248.172036 112.247264 
L 255.83359 110.643353 
L 263.419966 109.235979 
L 270.882962 108.096619 
L 278.244646 107.277856 
L 285.458147 106.841683 
L 289.008362 106.779616 
L 292.547618 106.833814 
L 296.054698 107.005263 
L 299.540809 107.30092 
L 303.032683 107.727531 
L 306.489779 108.27657 
L 309.886733 108.944851 
L 313.26856 109.751735 
L 316.588577 110.679799 
L 319.840678 111.732541 
L 323.048503 112.922949 
L 326.184372 114.240568 
L 329.253979 115.691586 
L 332.260088 117.280545 
L 335.170449 118.988462 
L 337.984082 120.817758 
L 340.699453 122.772093 
L 343.301269 124.83951 
L 345.778175 127.012606 
L 348.117563 129.28119 
L 350.323371 131.656864 
L 352.3868 134.129597 
L 354.329007 136.738515 
L 356.129002 139.446309 
L 357.791877 142.265451 
L 359.312349 145.186793 
L 360.68347 148.187053 
L 361.899288 151.255247 
L 362.954135 154.373846 
L 363.854262 157.576581 
L 364.582801 160.749869 
L 365.144839 163.989985 
L 365.540872 167.253087 
L 365.770546 170.525775 
L 365.832155 173.851188 
L 365.736205 177.165991 
L 365.474642 180.506733 
L 365.054201 183.849038 
L 364.475693 187.191359 
L 363.740147 190.53563 
L 362.864385 193.830039 
L 361.831952 197.111209 
L 360.656885 200.349323 
L 359.36314 203.490364 
L 357.925318 206.568786 
L 356.371381 209.535128 
L 354.687311 212.402855 
L 352.90336 215.128364 
L 350.983297 217.747583 
L 348.985102 220.196209 
L 346.859349 222.514973 
L 344.641651 224.671414 
L 342.241429 226.728001 
L 339.724766 228.646048 
L 337.024625 230.462386 
L 334.21234 232.146194 
L 331.267659 233.704695 
L 328.211265 235.132968 
L 325.082427 236.420202 
L 321.8318 237.580454 
L 318.561848 238.594824 
L 315.206277 239.473072 
L 311.82147 240.214815 
L 308.366644 240.826527 
L 304.826452 241.319362 
L 297.602831 241.980275 
L 290.118804 242.2565 
L 282.439477 242.221466 
L 274.631422 241.965615 
L 266.831423 241.540964 
L 255.075318 240.609855 
L 243.230436 239.362802 
L 231.524512 237.852566 
L 224.08321 236.638786 
L 217.002422 235.149578 
L 213.619566 234.276542 
L 210.350398 233.308147 
L 207.224137 232.247361 
L 204.186459 231.057125 
L 201.183708 229.706803 
L 198.232982 228.208058 
L 195.314292 226.548081 
L 192.43097 224.732595 
L 189.58745 222.769947 
L 186.79178 220.670021 
L 184.0406 218.431371 
L 181.363157 216.087962 
L 178.718535 213.597982 
L 176.158817 211.029168 
L 173.659272 208.349999 
L 168.87811 202.736708 
L 164.412785 196.842612 
L 160.29321 190.753623 
L 156.54191 184.555318 
L 154.622261 181.087696 
L 154.622261 181.087696 
" style="fill:none;stroke:#ffffff;stroke-linecap:square;"/>
   </g>
   <g id="patch_3">
    <path d="M 57.6 307.584 
L 57.6 41.472 
" style="fill:none;stroke:#000000;stroke-linecap:square;stroke-linejoin:miter;stroke-width:0.8;"/>
   </g>
   <g id="patch_4">
    <path d="M 414.72 307.584 
L 414.72 41.472 
" style="fill:none;stroke:#000000;stroke-linecap:square;stroke-linejoin:miter;stroke-width:0.8;"/>
   </g>
   <g id="patch_5">
    <path d="M 57.6 307.584 
L 414.72 307.584 
" style="fill:none;stroke:#000000;stroke-linecap:square;stroke-linejoin:miter;stroke-width:0.8;"/>
   </g>
   <g id="patch_6">
    <path d="M 57.6 41.472 
L 414.72 41.472 
" style="fill:none;stroke:#000000;stroke-linecap:square;stroke-linejoin:miter;stroke-width:0.8;"/>
   </g>
  </g>
 </g>
 <defs>
  <clipPath id="pc5ed938170">
   <rect height="266.112" width="357.12" x="57.6" y="41.472"/>
  </clipPath>
 </defs>
</svg>
