<?xml version="1.0" encoding="utf-8" standalone="no"?>
<!DOCTYPE svg PUBLIC "-//W3C//DTD SVG 1.1//EN"
  "http://www.w3.org/Graphics/SVG/1.1/DTD/svg11.dtd">
<!-- Created with matplotlib (https://matplotlib.org/) -->
<svg height="345.6pt" version="1.1" viewBox="0 0 460.8 345.6" width="460.8pt" xmlns="http://www.w3.org/2000/svg" xmlns:xlink="http://www.w3.org/1999/xlink">
 <metadata>
  <rdf:RDF xmlns:cc="http://creativecommons.org/ns#" xmlns:dc="http://purl.org/dc/elements/1.1/" xmlns:rdf="http://www.w3.org/1999/02/22-rdf-syntax-ns#">
   <cc:Work>
    <dc:type rdf:resource="http://purl.org/dc/dcmitype/StillImage"/>
    <dc:date>2021-01-25T14:39:20.843696</dc:date>
    <dc:format>image/svg+xml</dc:format>
    <dc:creator>
     <cc:Agent>
      <dc:title>Matplotlib v3.3.3, https://matplotlib.org/</dc:title>
     </cc:Agent>
    </dc:creator>
   </cc:Work>
  </rdf:RDF>
 </metadata>
 <defs>
  <style type="text/css">*{stroke-linecap:butt;stroke-linejoin:round;}</style>
 </defs>
 <g id="figure_1">
  <g id="patch_1">
   <path d="M 0 345.6 
L 460.8 345.6 
L 460.8 0 
L 0 0 
z
" style="fill:#ffffff;"/>
  </g>
  <g id="axes_1">
   <g id="patch_2">
    <path d="M 57.6 307.584 
L 414.72 307.584 
L 414.72 41.472 
L 57.6 41.472 
z
" style="fill:#7d9051;"/>
   </g>
   <g id="matplotlib.axis_1">
    <g id="xtick_1">
     <g id="line2d_1">
      <defs>
       <path d="M 0 0 
L 0 3.5 
" id="m0b4940fe54" style="stroke:#000000;stroke-width:0.8;"/>
      </defs>
      <g>
       <use style="stroke:#000000;stroke-width:0.8;" x="91.32783" xlink:href="#m0b4940fe54" y="307.584"/>
      </g>
     </g>
     <g id="text_1">
      <!-- 10 -->
      <g transform="translate(84.96533 322.182437)scale(0.1 -0.1)">
       <defs>
        <path d="M 12.40625 8.296875 
L 28.515625 8.296875 
L 28.515625 63.921875 
L 10.984375 60.40625 
L 10.984375 69.390625 
L 28.421875 72.90625 
L 38.28125 72.90625 
L 38.28125 8.296875 
L 54.390625 8.296875 
L 54.390625 0 
L 12.40625 0 
z
" id="DejaVuSans-49"/>
        <path d="M 31.78125 66.40625 
Q 24.171875 66.40625 20.328125 58.90625 
Q 16.5 51.421875 16.5 36.375 
Q 16.5 21.390625 20.328125 13.890625 
Q 24.171875 6.390625 31.78125 6.390625 
Q 39.453125 6.390625 43.28125 13.890625 
Q 47.125 21.390625 47.125 36.375 
Q 47.125 51.421875 43.28125 58.90625 
Q 39.453125 66.40625 31.78125 66.40625 
z
M 31.78125 74.21875 
Q 44.046875 74.21875 50.515625 64.515625 
Q 56.984375 54.828125 56.984375 36.375 
Q 56.984375 17.96875 50.515625 8.265625 
Q 44.046875 -1.421875 31.78125 -1.421875 
Q 19.53125 -1.421875 13.0625 8.265625 
Q 6.59375 17.96875 6.59375 36.375 
Q 6.59375 54.828125 13.0625 64.515625 
Q 19.53125 74.21875 31.78125 74.21875 
z
" id="DejaVuSans-48"/>
       </defs>
       <use xlink:href="#DejaVuSans-49"/>
       <use x="63.623047" xlink:href="#DejaVuSans-48"/>
      </g>
     </g>
    </g>
    <g id="xtick_2">
     <g id="line2d_2">
      <g>
       <use style="stroke:#000000;stroke-width:0.8;" x="132.656944" xlink:href="#m0b4940fe54" y="307.584"/>
      </g>
     </g>
     <g id="text_2">
      <!-- 20 -->
      <g transform="translate(126.294444 322.182437)scale(0.1 -0.1)">
       <defs>
        <path d="M 19.1875 8.296875 
L 53.609375 8.296875 
L 53.609375 0 
L 7.328125 0 
L 7.328125 8.296875 
Q 12.9375 14.109375 22.625 23.890625 
Q 32.328125 33.6875 34.8125 36.53125 
Q 39.546875 41.84375 41.421875 45.53125 
Q 43.3125 49.21875 43.3125 52.78125 
Q 43.3125 58.59375 39.234375 62.25 
Q 35.15625 65.921875 28.609375 65.921875 
Q 23.96875 65.921875 18.8125 64.3125 
Q 13.671875 62.703125 7.8125 59.421875 
L 7.8125 69.390625 
Q 13.765625 71.78125 18.9375 73 
Q 24.125 74.21875 28.421875 74.21875 
Q 39.75 74.21875 46.484375 68.546875 
Q 53.21875 62.890625 53.21875 53.421875 
Q 53.21875 48.921875 51.53125 44.890625 
Q 49.859375 40.875 45.40625 35.40625 
Q 44.1875 33.984375 37.640625 27.21875 
Q 31.109375 20.453125 19.1875 8.296875 
z
" id="DejaVuSans-50"/>
       </defs>
       <use xlink:href="#DejaVuSans-50"/>
       <use x="63.623047" xlink:href="#DejaVuSans-48"/>
      </g>
     </g>
    </g>
    <g id="xtick_3">
     <g id="line2d_3">
      <g>
       <use style="stroke:#000000;stroke-width:0.8;" x="173.986059" xlink:href="#m0b4940fe54" y="307.584"/>
      </g>
     </g>
     <g id="text_3">
      <!-- 30 -->
      <g transform="translate(167.623559 322.182437)scale(0.1 -0.1)">
       <defs>
        <path d="M 40.578125 39.3125 
Q 47.65625 37.796875 51.625 33 
Q 55.609375 28.21875 55.609375 21.1875 
Q 55.609375 10.40625 48.1875 4.484375 
Q 40.765625 -1.421875 27.09375 -1.421875 
Q 22.515625 -1.421875 17.65625 -0.515625 
Q 12.796875 0.390625 7.625 2.203125 
L 7.625 11.71875 
Q 11.71875 9.328125 16.59375 8.109375 
Q 21.484375 6.890625 26.8125 6.890625 
Q 36.078125 6.890625 40.9375 10.546875 
Q 45.796875 14.203125 45.796875 21.1875 
Q 45.796875 27.640625 41.28125 31.265625 
Q 36.765625 34.90625 28.71875 34.90625 
L 20.21875 34.90625 
L 20.21875 43.015625 
L 29.109375 43.015625 
Q 36.375 43.015625 40.234375 45.921875 
Q 44.09375 48.828125 44.09375 54.296875 
Q 44.09375 59.90625 40.109375 62.90625 
Q 36.140625 65.921875 28.71875 65.921875 
Q 24.65625 65.921875 20.015625 65.03125 
Q 15.375 64.15625 9.8125 62.3125 
L 9.8125 71.09375 
Q 15.4375 72.65625 20.34375 73.4375 
Q 25.25 74.21875 29.59375 74.21875 
Q 40.828125 74.21875 47.359375 69.109375 
Q 53.90625 64.015625 53.90625 55.328125 
Q 53.90625 49.265625 50.4375 45.09375 
Q 46.96875 40.921875 40.578125 39.3125 
z
" id="DejaVuSans-51"/>
       </defs>
       <use xlink:href="#DejaVuSans-51"/>
       <use x="63.623047" xlink:href="#DejaVuSans-48"/>
      </g>
     </g>
    </g>
    <g id="xtick_4">
     <g id="line2d_4">
      <g>
       <use style="stroke:#000000;stroke-width:0.8;" x="215.315173" xlink:href="#m0b4940fe54" y="307.584"/>
      </g>
     </g>
     <g id="text_4">
      <!-- 40 -->
      <g transform="translate(208.952673 322.182437)scale(0.1 -0.1)">
       <defs>
        <path d="M 37.796875 64.3125 
L 12.890625 25.390625 
L 37.796875 25.390625 
z
M 35.203125 72.90625 
L 47.609375 72.90625 
L 47.609375 25.390625 
L 58.015625 25.390625 
L 58.015625 17.1875 
L 47.609375 17.1875 
L 47.609375 0 
L 37.796875 0 
L 37.796875 17.1875 
L 4.890625 17.1875 
L 4.890625 26.703125 
z
" id="DejaVuSans-52"/>
       </defs>
       <use xlink:href="#DejaVuSans-52"/>
       <use x="63.623047" xlink:href="#DejaVuSans-48"/>
      </g>
     </g>
    </g>
    <g id="xtick_5">
     <g id="line2d_5">
      <g>
       <use style="stroke:#000000;stroke-width:0.8;" x="256.644287" xlink:href="#m0b4940fe54" y="307.584"/>
      </g>
     </g>
     <g id="text_5">
      <!-- 50 -->
      <g transform="translate(250.281787 322.182437)scale(0.1 -0.1)">
       <defs>
        <path d="M 10.796875 72.90625 
L 49.515625 72.90625 
L 49.515625 64.59375 
L 19.828125 64.59375 
L 19.828125 46.734375 
Q 21.96875 47.46875 24.109375 47.828125 
Q 26.265625 48.1875 28.421875 48.1875 
Q 40.625 48.1875 47.75 41.5 
Q 54.890625 34.8125 54.890625 23.390625 
Q 54.890625 11.625 47.5625 5.09375 
Q 40.234375 -1.421875 26.90625 -1.421875 
Q 22.3125 -1.421875 17.546875 -0.640625 
Q 12.796875 0.140625 7.71875 1.703125 
L 7.71875 11.625 
Q 12.109375 9.234375 16.796875 8.0625 
Q 21.484375 6.890625 26.703125 6.890625 
Q 35.15625 6.890625 40.078125 11.328125 
Q 45.015625 15.765625 45.015625 23.390625 
Q 45.015625 31 40.078125 35.4375 
Q 35.15625 39.890625 26.703125 39.890625 
Q 22.75 39.890625 18.8125 39.015625 
Q 14.890625 38.140625 10.796875 36.28125 
z
" id="DejaVuSans-53"/>
       </defs>
       <use xlink:href="#DejaVuSans-53"/>
       <use x="63.623047" xlink:href="#DejaVuSans-48"/>
      </g>
     </g>
    </g>
    <g id="xtick_6">
     <g id="line2d_6">
      <g>
       <use style="stroke:#000000;stroke-width:0.8;" x="297.973401" xlink:href="#m0b4940fe54" y="307.584"/>
      </g>
     </g>
     <g id="text_6">
      <!-- 60 -->
      <g transform="translate(291.610901 322.182437)scale(0.1 -0.1)">
       <defs>
        <path d="M 33.015625 40.375 
Q 26.375 40.375 22.484375 35.828125 
Q 18.609375 31.296875 18.609375 23.390625 
Q 18.609375 15.53125 22.484375 10.953125 
Q 26.375 6.390625 33.015625 6.390625 
Q 39.65625 6.390625 43.53125 10.953125 
Q 47.40625 15.53125 47.40625 23.390625 
Q 47.40625 31.296875 43.53125 35.828125 
Q 39.65625 40.375 33.015625 40.375 
z
M 52.59375 71.296875 
L 52.59375 62.3125 
Q 48.875 64.0625 45.09375 64.984375 
Q 41.3125 65.921875 37.59375 65.921875 
Q 27.828125 65.921875 22.671875 59.328125 
Q 17.53125 52.734375 16.796875 39.40625 
Q 19.671875 43.65625 24.015625 45.921875 
Q 28.375 48.1875 33.59375 48.1875 
Q 44.578125 48.1875 50.953125 41.515625 
Q 57.328125 34.859375 57.328125 23.390625 
Q 57.328125 12.15625 50.6875 5.359375 
Q 44.046875 -1.421875 33.015625 -1.421875 
Q 20.359375 -1.421875 13.671875 8.265625 
Q 6.984375 17.96875 6.984375 36.375 
Q 6.984375 53.65625 15.1875 63.9375 
Q 23.390625 74.21875 37.203125 74.21875 
Q 40.921875 74.21875 44.703125 73.484375 
Q 48.484375 72.75 52.59375 71.296875 
z
" id="DejaVuSans-54"/>
       </defs>
       <use xlink:href="#DejaVuSans-54"/>
       <use x="63.623047" xlink:href="#DejaVuSans-48"/>
      </g>
     </g>
    </g>
    <g id="xtick_7">
     <g id="line2d_7">
      <g>
       <use style="stroke:#000000;stroke-width:0.8;" x="339.302515" xlink:href="#m0b4940fe54" y="307.584"/>
      </g>
     </g>
     <g id="text_7">
      <!-- 70 -->
      <g transform="translate(332.940015 322.182437)scale(0.1 -0.1)">
       <defs>
        <path d="M 8.203125 72.90625 
L 55.078125 72.90625 
L 55.078125 68.703125 
L 28.609375 0 
L 18.3125 0 
L 43.21875 64.59375 
L 8.203125 64.59375 
z
" id="DejaVuSans-55"/>
       </defs>
       <use xlink:href="#DejaVuSans-55"/>
       <use x="63.623047" xlink:href="#DejaVuSans-48"/>
      </g>
     </g>
    </g>
    <g id="xtick_8">
     <g id="line2d_8">
      <g>
       <use style="stroke:#000000;stroke-width:0.8;" x="380.631629" xlink:href="#m0b4940fe54" y="307.584"/>
      </g>
     </g>
     <g id="text_8">
      <!-- 80 -->
      <g transform="translate(374.269129 322.182437)scale(0.1 -0.1)">
       <defs>
        <path d="M 31.78125 34.625 
Q 24.75 34.625 20.71875 30.859375 
Q 16.703125 27.09375 16.703125 20.515625 
Q 16.703125 13.921875 20.71875 10.15625 
Q 24.75 6.390625 31.78125 6.390625 
Q 38.8125 6.390625 42.859375 10.171875 
Q 46.921875 13.96875 46.921875 20.515625 
Q 46.921875 27.09375 42.890625 30.859375 
Q 38.875 34.625 31.78125 34.625 
z
M 21.921875 38.8125 
Q 15.578125 40.375 12.03125 44.71875 
Q 8.5 49.078125 8.5 55.328125 
Q 8.5 64.0625 14.71875 69.140625 
Q 20.953125 74.21875 31.78125 74.21875 
Q 42.671875 74.21875 48.875 69.140625 
Q 55.078125 64.0625 55.078125 55.328125 
Q 55.078125 49.078125 51.53125 44.71875 
Q 48 40.375 41.703125 38.8125 
Q 48.828125 37.15625 52.796875 32.3125 
Q 56.78125 27.484375 56.78125 20.515625 
Q 56.78125 9.90625 50.3125 4.234375 
Q 43.84375 -1.421875 31.78125 -1.421875 
Q 19.734375 -1.421875 13.25 4.234375 
Q 6.78125 9.90625 6.78125 20.515625 
Q 6.78125 27.484375 10.78125 32.3125 
Q 14.796875 37.15625 21.921875 38.8125 
z
M 18.3125 54.390625 
Q 18.3125 48.734375 21.84375 45.5625 
Q 25.390625 42.390625 31.78125 42.390625 
Q 38.140625 42.390625 41.71875 45.5625 
Q 45.3125 48.734375 45.3125 54.390625 
Q 45.3125 60.0625 41.71875 63.234375 
Q 38.140625 66.40625 31.78125 66.40625 
Q 25.390625 66.40625 21.84375 63.234375 
Q 18.3125 60.0625 18.3125 54.390625 
z
" id="DejaVuSans-56"/>
       </defs>
       <use xlink:href="#DejaVuSans-56"/>
       <use x="63.623047" xlink:href="#DejaVuSans-48"/>
      </g>
     </g>
    </g>
   </g>
   <g id="matplotlib.axis_2">
    <g id="ytick_1">
     <g id="line2d_9">
      <defs>
       <path d="M 0 0 
L -3.5 0 
" id="m90919f1eaf" style="stroke:#000000;stroke-width:0.8;"/>
      </defs>
      <g>
       <use style="stroke:#000000;stroke-width:0.8;" x="57.6" xlink:href="#m90919f1eaf" y="283.675049"/>
      </g>
     </g>
     <g id="text_9">
      <!-- 10 -->
      <g transform="translate(37.875 287.474268)scale(0.1 -0.1)">
       <use xlink:href="#DejaVuSans-49"/>
       <use x="63.623047" xlink:href="#DejaVuSans-48"/>
      </g>
     </g>
    </g>
    <g id="ytick_2">
     <g id="line2d_10">
      <g>
       <use style="stroke:#000000;stroke-width:0.8;" x="57.6" xlink:href="#m90919f1eaf" y="242.345935"/>
      </g>
     </g>
     <g id="text_10">
      <!-- 20 -->
      <g transform="translate(37.875 246.145153)scale(0.1 -0.1)">
       <use xlink:href="#DejaVuSans-50"/>
       <use x="63.623047" xlink:href="#DejaVuSans-48"/>
      </g>
     </g>
    </g>
    <g id="ytick_3">
     <g id="line2d_11">
      <g>
       <use style="stroke:#000000;stroke-width:0.8;" x="57.6" xlink:href="#m90919f1eaf" y="201.016821"/>
      </g>
     </g>
     <g id="text_11">
      <!-- 30 -->
      <g transform="translate(37.875 204.816039)scale(0.1 -0.1)">
       <use xlink:href="#DejaVuSans-51"/>
       <use x="63.623047" xlink:href="#DejaVuSans-48"/>
      </g>
     </g>
    </g>
    <g id="ytick_4">
     <g id="line2d_12">
      <g>
       <use style="stroke:#000000;stroke-width:0.8;" x="57.6" xlink:href="#m90919f1eaf" y="159.687706"/>
      </g>
     </g>
     <g id="text_12">
      <!-- 40 -->
      <g transform="translate(37.875 163.486925)scale(0.1 -0.1)">
       <use xlink:href="#DejaVuSans-52"/>
       <use x="63.623047" xlink:href="#DejaVuSans-48"/>
      </g>
     </g>
    </g>
    <g id="ytick_5">
     <g id="line2d_13">
      <g>
       <use style="stroke:#000000;stroke-width:0.8;" x="57.6" xlink:href="#m90919f1eaf" y="118.358592"/>
      </g>
     </g>
     <g id="text_13">
      <!-- 50 -->
      <g transform="translate(37.875 122.157811)scale(0.1 -0.1)">
       <use xlink:href="#DejaVuSans-53"/>
       <use x="63.623047" xlink:href="#DejaVuSans-48"/>
      </g>
     </g>
    </g>
    <g id="ytick_6">
     <g id="line2d_14">
      <g>
       <use style="stroke:#000000;stroke-width:0.8;" x="57.6" xlink:href="#m90919f1eaf" y="77.029478"/>
      </g>
     </g>
     <g id="text_14">
      <!-- 60 -->
      <g transform="translate(37.875 80.828697)scale(0.1 -0.1)">
       <use xlink:href="#DejaVuSans-54"/>
       <use x="63.623047" xlink:href="#DejaVuSans-48"/>
      </g>
     </g>
    </g>
   </g>
   <g id="line2d_15">
    <path clip-path="url(#p59c9895dc7)" d="M 238.84797 224.611612 
L 237.699021 220.503498 
L 236.822844 216.358188 
L 236.211173 212.192213 
L 235.859875 208.01384 
L 235.760685 203.831333 
L 235.90947 199.657093 
L 236.302097 195.50765 
L 236.930299 191.387137 
L 237.789945 187.307953 
L 238.881034 183.282498 
L 240.191166 179.323169 
L 241.716211 175.438232 
L 243.452034 171.640086 
L 245.394502 167.94113 
L 247.53535 164.34963 
L 249.874578 160.877985 
L 252.399787 157.53446 
L 255.110977 154.335586 
L 257.995749 151.28963 
L 261.058236 148.408991 
L 264.290173 145.701934 
L 267.670894 143.184991 
L 271.196268 140.862295 
L 274.845629 138.75451 
L 278.610711 136.874035 
L 282.47085 135.225004 
L 286.421914 133.823947 
L 290.443236 132.683263 
L 294.526553 131.819485 
L 298.651198 131.236744 
L 302.808907 130.94744 
L 306.983148 130.94744 
L 311.157388 131.220213 
L 315.315097 131.761624 
L 319.439743 132.559276 
L 323.518926 133.596637 
L 327.531983 134.873706 
L 331.466515 136.373953 
L 335.310123 138.089111 
L 339.038009 140.006782 
L 342.64604 142.1187 
L 346.121819 144.416599 
L 349.469477 146.88808 
L 352.680749 149.533143 
L 355.755635 152.335257 
L 358.694136 155.290289 
L 361.487984 158.389972 
L 364.141313 161.621909 
L 366.64999 164.986099 
L 369.005749 168.470143 
L 371.212724 172.061643 
L 373.254382 175.756466 
L 375.118325 179.542213 
L 376.788022 183.406485 
L 378.246939 187.341017 
L 379.490946 191.337542 
L 380.495243 195.383662 
L 381.251566 199.466979 
L 381.743382 203.583359 
L 381.958294 207.71627 
L 381.883901 211.857447 
L 381.528471 215.994492 
L 380.904401 220.115004 
L 380.019958 224.198321 
L 378.887541 228.236175 
L 377.519547 232.216169 
L 375.92011 236.117637 
L 374.109895 239.932314 
L 372.088901 243.643669 
L 369.877794 247.239302 
L 367.484838 250.706815 
L 364.914167 254.037941 
L 362.174047 257.220283 
L 359.281009 260.249707 
L 356.235053 263.117947 
L 353.048579 265.816739 
L 349.729851 268.341948 
L 346.283003 270.681175 
L 342.724566 272.826156 
L 339.05454 274.772758 
L 335.285325 276.512713 
L 331.429319 278.050156 
L 327.490654 279.38922 
L 323.489996 280.538169 
L 319.431477 281.497005 
L 315.331629 282.278125 
L 311.194585 282.877397 
L 307.036876 283.30722 
L 302.866768 283.571726 
L 298.69666 283.675049 
L 294.534819 283.621321 
L 290.385376 283.418808 
L 286.248331 283.075777 
L 282.127819 282.596359 
L 278.02797 281.988821 
L 273.948787 281.261429 
L 265.852413 279.471878 
L 257.863496 277.285568 
L 249.986167 274.764492 
L 242.203894 271.966511 
L 234.50428 268.953618 
L 223.051983 264.175973 
L 196.444299 252.835264 
L 184.913476 248.260131 
L 177.135337 245.400156 
L 161.525331 239.800061 
L 153.850514 236.716909 
L 150.085432 235.026549 
L 146.382343 233.208068 
L 142.749514 231.244935 
L 139.199343 229.112352 
L 135.735963 226.818587 
L 132.367641 224.36777 
L 129.106773 221.772302 
L 125.953362 219.032181 
L 122.919805 216.163941 
L 120.010235 213.16758 
L 117.232919 210.055498 
L 114.596121 206.83596 
L 112.108109 203.508966 
L 109.768881 200.091048 
L 107.582571 196.582207 
L 105.540913 192.990707 
L 103.63564 189.320681 
L 101.862621 185.580396 
L 100.221856 181.769852 
L 98.705077 177.897314 
L 97.30402 173.966915 
L 96.014552 169.986922 
L 93.762115 161.898814 
L 92.807412 157.803099 
L 91.984963 153.678453 
L 91.315431 149.541409 
L 90.811216 145.391966 
L 90.488849 141.242523 
L 90.360729 137.101346 
L 90.44752 132.968434 
L 90.765754 128.86032 
L 91.32783 124.785269 
L 92.146147 120.743282 
L 93.216571 116.746757 
L 94.522571 112.812225 
L 96.064147 108.939687 
L 97.820634 105.149807 
L 99.792033 101.442586 
L 101.961811 97.834554 
L 104.317571 94.333978 
L 106.855178 90.949124 
L 109.558102 87.69239 
L 112.42221 84.572041 
L 115.435102 81.600478 
L 118.588514 78.785965 
L 121.865913 76.140902 
L 125.263166 73.669421 
L 128.767875 71.388054 
L 132.367641 69.305067 
L 136.05833 67.424592 
L 139.823413 65.767294 
L 143.654622 64.333174 
L 143.654622 64.333174 
" style="fill:none;stroke:#fea952;stroke-linecap:square;"/>
   </g>
   <g id="line2d_16">
    <path clip-path="url(#p59c9895dc7)" d="M 222.92726 229.064285 
L 221.524725 223.922192 
L 220.46656 218.759706 
L 219.737647 213.577228 
L 219.332877 208.405784 
L 219.239531 203.24246 
L 219.451337 198.099799 
L 219.95929 193.016068 
L 220.753957 187.978141 
L 221.834026 182.983146 
L 223.186307 178.089149 
L 224.802721 173.282385 
L 226.680394 168.566585 
L 228.815791 163.954014 
L 231.19428 159.476556 
L 233.825554 155.111839 
L 236.682601 150.9147 
L 239.788412 146.845749 
L 243.108072 142.967842 
L 246.669091 139.247947 
L 250.443087 135.735637 
L 254.417934 132.441685 
L 258.575617 129.380237 
L 262.928017 126.546872 
L 267.458947 123.964911 
L 272.116261 121.671489 
L 276.945774 119.643963 
L 281.910553 117.919767 
L 287.02187 116.509533 
L 292.213887 115.450402 
L 297.50366 114.744975 
L 302.808907 114.415795 
L 308.061134 114.450979 
L 313.292095 114.826972 
L 318.453944 115.530698 
L 323.514154 116.537588 
L 328.532052 117.843418 
L 333.421895 119.426886 
L 338.203237 121.277202 
L 342.872311 123.388478 
L 347.389155 125.739559 
L 351.763103 128.328323 
L 355.940693 131.116786 
L 359.979916 134.127751 
L 363.815844 137.314101 
L 367.478018 140.678454 
L 370.973866 144.222158 
L 374.265282 147.90017 
L 377.393931 151.739428 
L 380.344873 155.726213 
L 383.090625 159.814995 
L 385.682268 164.066168 
L 388.085794 168.454101 
L 390.29393 172.985053 
L 392.28839 177.658974 
L 394.031573 182.427703 
L 395.535723 187.355028 
L 396.750404 192.372838 
L 397.666466 197.505761 
L 398.252723 202.724873 
L 398.487273 208.013198 
L 398.354871 213.272535 
L 397.873713 218.47005 
L 397.061387 223.614594 
L 395.937476 228.662394 
L 394.521452 233.609825 
L 392.815711 238.486948 
L 390.855438 243.205041 
L 388.628511 247.838331 
L 386.170993 252.303346 
L 383.48398 256.62903 
L 380.572507 260.806727 
L 377.441779 264.824703 
L 374.129712 268.637698 
L 370.614271 272.285174 
L 366.919408 275.733013 
L 363.059076 278.972925 
L 359.013195 282.020939 
L 354.817465 284.839504 
L 350.470852 287.43062 
L 345.983305 289.782339 
L 341.407994 291.868762 
L 336.750606 293.701968 
L 332.053922 295.278584 
L 327.291003 296.626912 
L 322.5255 297.736534 
L 317.701588 298.639011 
L 312.894562 299.321405 
L 308.083361 299.80571 
L 303.276247 300.0983 
L 298.483261 300.205317 
L 293.728955 300.133313 
L 289.019308 299.893916 
L 284.337778 299.49665 
L 279.704531 298.949432 
L 275.125857 298.263742 
L 270.586303 297.447503 
L 266.117646 296.513737 
L 261.680135 295.468359 
L 252.978584 293.079014 
L 244.501389 290.359764 
L 236.272701 287.397527 
L 228.24807 284.255747 
L 216.543836 279.372661 
L 190.210637 268.146592 
L 179.119683 263.743259 
L 171.631549 260.98873 
L 155.531107 255.206702 
L 147.079592 251.798352 
L 142.798438 249.865518 
L 138.522994 247.751999 
L 134.236775 245.416335 
L 130.071029 242.895284 
L 126.009592 240.186197 
L 122.072423 237.302367 
L 118.263514 234.251045 
L 114.595619 231.044549 
L 111.059661 227.68055 
L 107.676043 224.174987 
L 104.443253 220.530218 
L 101.357003 216.736518 
L 98.465636 212.845895 
L 95.738017 208.833483 
L 93.210799 204.75212 
L 90.868622 200.60774 
L 88.697384 196.40191 
L 86.678737 192.11836 
L 84.82882 187.798928 
L 83.133202 183.448172 
L 81.577188 179.062213 
L 80.148192 174.629542 
L 78.854616 170.188663 
L 77.662079 165.651698 
L 76.594928 161.035849 
L 75.66565 156.319541 
L 74.904501 151.535566 
L 74.329235 146.672438 
L 73.96511 141.753736 
L 73.832727 136.754257 
L 73.965254 131.691639 
L 74.389157 126.601479 
L 75.124909 121.504924 
L 76.177362 116.466224 
L 77.526695 111.538773 
L 79.16317 106.697971 
L 81.065114 101.988118 
L 83.224439 97.387951 
L 85.624862 92.92281 
L 88.246639 88.604745 
L 91.090316 84.417575 
L 94.13407 80.391249 
L 97.3791 76.513517 
L 100.813578 72.801954 
L 104.427015 69.266894 
L 108.205977 65.921354 
L 112.140533 62.77257 
L 116.244425 59.814544 
L 120.488159 57.079259 
L 124.862512 54.575221 
L 129.398172 52.293908 
L 134.027917 50.284803 
L 137.859126 48.850683 
L 137.859126 48.850683 
" style="fill:none;stroke:#ffffff;stroke-linecap:square;"/>
   </g>
   <g id="line2d_17">
    <path clip-path="url(#p59c9895dc7)" d="M 254.76868 220.158938 
L 253.873316 217.084803 
L 253.179127 213.95667 
L 252.684698 210.807199 
L 252.386874 207.621895 
L 252.28184 204.420206 
L 252.367603 201.214386 
L 252.644904 197.999231 
L 253.106642 194.796133 
L 253.745864 191.632761 
L 254.57576 188.475847 
L 255.579612 185.363952 
L 256.752028 182.309878 
L 258.088277 179.326158 
L 259.594724 176.405705 
L 261.245146 173.587422 
L 263.066555 170.84127 
L 265.011162 168.22317 
L 267.113881 165.70333 
L 269.322406 163.331314 
L 271.673386 161.082345 
L 274.162412 158.962183 
L 276.766172 156.989745 
L 279.464519 155.177718 
L 282.232311 153.544109 
L 285.105161 152.076582 
L 287.995927 150.806045 
L 290.933274 149.728127 
L 293.864602 148.856994 
L 296.839219 148.188568 
L 299.798737 147.728514 
L 302.808907 147.479086 
L 305.905161 147.443902 
L 309.022682 147.613453 
L 312.176251 147.99255 
L 315.365332 148.580964 
L 318.505801 149.349855 
L 321.642072 150.320526 
L 324.729793 151.470704 
L 327.747934 152.789745 
L 330.686862 154.274005 
L 333.528978 155.909076 
L 336.302945 157.716411 
L 338.959039 159.648409 
L 341.545655 161.752185 
L 344.033253 163.99206 
L 346.414405 166.358419 
L 348.710685 168.879775 
L 350.888695 171.50439 
L 352.955107 174.245984 
L 354.920874 177.125291 
L 356.743181 180.057118 
L 358.422971 183.058831 
L 359.942721 186.099372 
L 361.287653 189.153996 
L 362.462306 192.254331 
L 363.446168 195.320056 
L 364.240083 198.394487 
L 364.836666 201.428197 
L 365.234042 204.441844 
L 365.429315 207.419342 
L 365.412932 210.442359 
L 365.18323 213.518933 
L 364.747416 216.615414 
L 364.102441 219.734247 
L 363.253629 222.862525 
L 362.223383 225.94539 
L 360.984782 229.030234 
L 359.591279 232.026298 
L 358.00681 234.983992 
L 356.271607 237.849574 
L 354.39717 240.606902 
L 352.386555 243.251179 
L 350.218382 245.802867 
L 347.947747 248.21424 
L 345.550698 250.502882 
L 343.038081 252.660552 
L 340.446506 254.662956 
L 337.74854 256.522847 
L 334.978279 258.221693 
L 332.125775 259.763177 
L 329.162656 261.156665 
L 326.108031 262.398345 
L 322.927386 263.499856 
L 319.68899 264.449426 
L 316.337454 265.257475 
L 312.96167 265.917238 
L 309.494608 266.433389 
L 305.990391 266.80873 
L 302.457289 267.045152 
L 298.91006 267.144781 
L 295.340683 267.109329 
L 291.751443 266.943701 
L 288.158884 266.654903 
L 284.551107 266.243286 
L 277.311271 265.075354 
L 270.024691 263.475397 
L 262.748407 261.492121 
L 255.470945 259.16922 
L 248.135088 256.535495 
L 240.76049 253.65149 
L 229.56013 248.979285 
L 202.677961 237.523936 
L 194.733568 234.332181 
L 186.653306 231.26116 
L 163.999473 223.028124 
L 157.372426 220.187579 
L 154.241692 218.664136 
L 151.262253 217.073534 
L 148.327657 215.329421 
L 145.462335 213.450976 
L 142.662858 211.433173 
L 139.950033 209.293558 
L 137.311105 207.019813 
L 134.779949 204.647332 
L 132.344428 202.160173 
L 130.022585 199.580778 
L 127.83524 196.935402 
L 125.750582 194.172038 
L 123.799745 191.348614 
L 121.954342 188.412293 
L 120.213203 185.373673 
L 118.573897 182.239452 
L 117.046506 179.042433 
L 115.614891 175.740776 
L 114.276952 172.346456 
L 111.880912 165.344301 
L 109.862151 158.14593 
L 109.019896 154.570349 
L 108.304276 151.037366 
L 107.726362 147.547252 
L 107.293197 144.111493 
L 107.012589 140.731309 
L 106.888731 137.448434 
L 106.929786 134.245229 
L 107.142352 131.119161 
L 107.530751 128.065615 
L 108.114931 125.02034 
L 108.906447 121.954741 
L 109.881972 118.92648 
L 111.06318 115.891256 
L 112.416829 112.911663 
L 113.959203 109.962362 
L 115.676983 107.064363 
L 117.544825 104.250381 
L 119.576287 101.506998 
L 121.737105 98.871262 
L 124.030842 96.342129 
L 126.44319 93.934063 
L 128.971051 91.650577 
L 131.591293 89.509234 
L 134.281907 87.524298 
L 137.047591 85.696849 
L 139.872769 84.034912 
L 142.718489 82.555276 
L 145.618908 81.249786 
L 149.450117 79.815666 
L 149.450117 79.815666 
" style="fill:none;stroke:#ffffff;stroke-linecap:square;"/>
   </g>
   <g id="patch_3">
    <path d="M 57.6 307.584 
L 57.6 41.472 
" style="fill:none;stroke:#000000;stroke-linecap:square;stroke-linejoin:miter;stroke-width:0.8;"/>
   </g>
   <g id="patch_4">
    <path d="M 414.72 307.584 
L 414.72 41.472 
" style="fill:none;stroke:#000000;stroke-linecap:square;stroke-linejoin:miter;stroke-width:0.8;"/>
   </g>
   <g id="patch_5">
    <path d="M 57.6 307.584 
L 414.72 307.584 
" style="fill:none;stroke:#000000;stroke-linecap:square;stroke-linejoin:miter;stroke-width:0.8;"/>
   </g>
   <g id="patch_6">
    <path d="M 57.6 41.472 
L 414.72 41.472 
" style="fill:none;stroke:#000000;stroke-linecap:square;stroke-linejoin:miter;stroke-width:0.8;"/>
   </g>
  </g>
 </g>
 <defs>
  <clipPath id="p59c9895dc7">
   <rect height="266.112" width="357.12" x="57.6" y="41.472"/>
  </clipPath>
 </defs>
</svg>
