<?xml version="1.0" encoding="utf-8" standalone="no"?>
<!DOCTYPE svg PUBLIC "-//W3C//DTD SVG 1.1//EN"
  "http://www.w3.org/Graphics/SVG/1.1/DTD/svg11.dtd">
<!-- Created with matplotlib (https://matplotlib.org/) -->
<svg height="345.6pt" version="1.1" viewBox="0 0 460.8 345.6" width="460.8pt" xmlns="http://www.w3.org/2000/svg" xmlns:xlink="http://www.w3.org/1999/xlink">
 <metadata>
  <rdf:RDF xmlns:cc="http://creativecommons.org/ns#" xmlns:dc="http://purl.org/dc/elements/1.1/" xmlns:rdf="http://www.w3.org/1999/02/22-rdf-syntax-ns#">
   <cc:Work>
    <dc:type rdf:resource="http://purl.org/dc/dcmitype/StillImage"/>
    <dc:date>2021-01-23T12:41:39.443058</dc:date>
    <dc:format>image/svg+xml</dc:format>
    <dc:creator>
     <cc:Agent>
      <dc:title>Matplotlib v3.3.3, https://matplotlib.org/</dc:title>
     </cc:Agent>
    </dc:creator>
   </cc:Work>
  </rdf:RDF>
 </metadata>
 <defs>
  <style type="text/css">*{stroke-linecap:butt;stroke-linejoin:round;}</style>
 </defs>
 <g id="figure_1">
  <g id="patch_1">
   <path d="M 0 345.6 
L 460.8 345.6 
L 460.8 0 
L 0 0 
z
" style="fill:#ffffff;"/>
  </g>
  <g id="axes_1">
   <g id="patch_2">
    <path d="M 57.6 307.584 
L 414.72 307.584 
L 414.72 41.472 
L 57.6 41.472 
z
" style="fill:#7d9051;"/>
   </g>
   <g id="matplotlib.axis_1">
    <g id="xtick_1">
     <g id="line2d_1">
      <defs>
       <path d="M 0 0 
L 0 3.5 
" id="m6edc336477" style="stroke:#000000;stroke-width:0.8;"/>
      </defs>
      <g>
       <use style="stroke:#000000;stroke-width:0.8;" x="88.849189" xlink:href="#m6edc336477" y="307.584"/>
      </g>
     </g>
     <g id="text_1">
      <!-- −20 -->
      <g transform="translate(78.296846 322.182437)scale(0.1 -0.1)">
       <defs>
        <path d="M 10.59375 35.5 
L 73.1875 35.5 
L 73.1875 27.203125 
L 10.59375 27.203125 
z
" id="DejaVuSans-8722"/>
        <path d="M 19.1875 8.296875 
L 53.609375 8.296875 
L 53.609375 0 
L 7.328125 0 
L 7.328125 8.296875 
Q 12.9375 14.109375 22.625 23.890625 
Q 32.328125 33.6875 34.8125 36.53125 
Q 39.546875 41.84375 41.421875 45.53125 
Q 43.3125 49.21875 43.3125 52.78125 
Q 43.3125 58.59375 39.234375 62.25 
Q 35.15625 65.921875 28.609375 65.921875 
Q 23.96875 65.921875 18.8125 64.3125 
Q 13.671875 62.703125 7.8125 59.421875 
L 7.8125 69.390625 
Q 13.765625 71.78125 18.9375 73 
Q 24.125 74.21875 28.421875 74.21875 
Q 39.75 74.21875 46.484375 68.546875 
Q 53.21875 62.890625 53.21875 53.421875 
Q 53.21875 48.921875 51.53125 44.890625 
Q 49.859375 40.875 45.40625 35.40625 
Q 44.1875 33.984375 37.640625 27.21875 
Q 31.109375 20.453125 19.1875 8.296875 
z
" id="DejaVuSans-50"/>
        <path d="M 31.78125 66.40625 
Q 24.171875 66.40625 20.328125 58.90625 
Q 16.5 51.421875 16.5 36.375 
Q 16.5 21.390625 20.328125 13.890625 
Q 24.171875 6.390625 31.78125 6.390625 
Q 39.453125 6.390625 43.28125 13.890625 
Q 47.125 21.390625 47.125 36.375 
Q 47.125 51.421875 43.28125 58.90625 
Q 39.453125 66.40625 31.78125 66.40625 
z
M 31.78125 74.21875 
Q 44.046875 74.21875 50.515625 64.515625 
Q 56.984375 54.828125 56.984375 36.375 
Q 56.984375 17.96875 50.515625 8.265625 
Q 44.046875 -1.421875 31.78125 -1.421875 
Q 19.53125 -1.421875 13.0625 8.265625 
Q 6.59375 17.96875 6.59375 36.375 
Q 6.59375 54.828125 13.0625 64.515625 
Q 19.53125 74.21875 31.78125 74.21875 
z
" id="DejaVuSans-48"/>
       </defs>
       <use xlink:href="#DejaVuSans-8722"/>
       <use x="83.789062" xlink:href="#DejaVuSans-50"/>
       <use x="147.412109" xlink:href="#DejaVuSans-48"/>
      </g>
     </g>
    </g>
    <g id="xtick_2">
     <g id="line2d_2">
      <g>
       <use style="stroke:#000000;stroke-width:0.8;" x="132.219221" xlink:href="#m6edc336477" y="307.584"/>
      </g>
     </g>
     <g id="text_2">
      <!-- 0 -->
      <g transform="translate(129.037971 322.182437)scale(0.1 -0.1)">
       <use xlink:href="#DejaVuSans-48"/>
      </g>
     </g>
    </g>
    <g id="xtick_3">
     <g id="line2d_3">
      <g>
       <use style="stroke:#000000;stroke-width:0.8;" x="175.589253" xlink:href="#m6edc336477" y="307.584"/>
      </g>
     </g>
     <g id="text_3">
      <!-- 20 -->
      <g transform="translate(169.226753 322.182437)scale(0.1 -0.1)">
       <use xlink:href="#DejaVuSans-50"/>
       <use x="63.623047" xlink:href="#DejaVuSans-48"/>
      </g>
     </g>
    </g>
    <g id="xtick_4">
     <g id="line2d_4">
      <g>
       <use style="stroke:#000000;stroke-width:0.8;" x="218.959284" xlink:href="#m6edc336477" y="307.584"/>
      </g>
     </g>
     <g id="text_4">
      <!-- 40 -->
      <g transform="translate(212.596784 322.182437)scale(0.1 -0.1)">
       <defs>
        <path d="M 37.796875 64.3125 
L 12.890625 25.390625 
L 37.796875 25.390625 
z
M 35.203125 72.90625 
L 47.609375 72.90625 
L 47.609375 25.390625 
L 58.015625 25.390625 
L 58.015625 17.1875 
L 47.609375 17.1875 
L 47.609375 0 
L 37.796875 0 
L 37.796875 17.1875 
L 4.890625 17.1875 
L 4.890625 26.703125 
z
" id="DejaVuSans-52"/>
       </defs>
       <use xlink:href="#DejaVuSans-52"/>
       <use x="63.623047" xlink:href="#DejaVuSans-48"/>
      </g>
     </g>
    </g>
    <g id="xtick_5">
     <g id="line2d_5">
      <g>
       <use style="stroke:#000000;stroke-width:0.8;" x="262.329316" xlink:href="#m6edc336477" y="307.584"/>
      </g>
     </g>
     <g id="text_5">
      <!-- 60 -->
      <g transform="translate(255.966816 322.182437)scale(0.1 -0.1)">
       <defs>
        <path d="M 33.015625 40.375 
Q 26.375 40.375 22.484375 35.828125 
Q 18.609375 31.296875 18.609375 23.390625 
Q 18.609375 15.53125 22.484375 10.953125 
Q 26.375 6.390625 33.015625 6.390625 
Q 39.65625 6.390625 43.53125 10.953125 
Q 47.40625 15.53125 47.40625 23.390625 
Q 47.40625 31.296875 43.53125 35.828125 
Q 39.65625 40.375 33.015625 40.375 
z
M 52.59375 71.296875 
L 52.59375 62.3125 
Q 48.875 64.0625 45.09375 64.984375 
Q 41.3125 65.921875 37.59375 65.921875 
Q 27.828125 65.921875 22.671875 59.328125 
Q 17.53125 52.734375 16.796875 39.40625 
Q 19.671875 43.65625 24.015625 45.921875 
Q 28.375 48.1875 33.59375 48.1875 
Q 44.578125 48.1875 50.953125 41.515625 
Q 57.328125 34.859375 57.328125 23.390625 
Q 57.328125 12.15625 50.6875 5.359375 
Q 44.046875 -1.421875 33.015625 -1.421875 
Q 20.359375 -1.421875 13.671875 8.265625 
Q 6.984375 17.96875 6.984375 36.375 
Q 6.984375 53.65625 15.1875 63.9375 
Q 23.390625 74.21875 37.203125 74.21875 
Q 40.921875 74.21875 44.703125 73.484375 
Q 48.484375 72.75 52.59375 71.296875 
z
" id="DejaVuSans-54"/>
       </defs>
       <use xlink:href="#DejaVuSans-54"/>
       <use x="63.623047" xlink:href="#DejaVuSans-48"/>
      </g>
     </g>
    </g>
    <g id="xtick_6">
     <g id="line2d_6">
      <g>
       <use style="stroke:#000000;stroke-width:0.8;" x="305.699348" xlink:href="#m6edc336477" y="307.584"/>
      </g>
     </g>
     <g id="text_6">
      <!-- 80 -->
      <g transform="translate(299.336848 322.182437)scale(0.1 -0.1)">
       <defs>
        <path d="M 31.78125 34.625 
Q 24.75 34.625 20.71875 30.859375 
Q 16.703125 27.09375 16.703125 20.515625 
Q 16.703125 13.921875 20.71875 10.15625 
Q 24.75 6.390625 31.78125 6.390625 
Q 38.8125 6.390625 42.859375 10.171875 
Q 46.921875 13.96875 46.921875 20.515625 
Q 46.921875 27.09375 42.890625 30.859375 
Q 38.875 34.625 31.78125 34.625 
z
M 21.921875 38.8125 
Q 15.578125 40.375 12.03125 44.71875 
Q 8.5 49.078125 8.5 55.328125 
Q 8.5 64.0625 14.71875 69.140625 
Q 20.953125 74.21875 31.78125 74.21875 
Q 42.671875 74.21875 48.875 69.140625 
Q 55.078125 64.0625 55.078125 55.328125 
Q 55.078125 49.078125 51.53125 44.71875 
Q 48 40.375 41.703125 38.8125 
Q 48.828125 37.15625 52.796875 32.3125 
Q 56.78125 27.484375 56.78125 20.515625 
Q 56.78125 9.90625 50.3125 4.234375 
Q 43.84375 -1.421875 31.78125 -1.421875 
Q 19.734375 -1.421875 13.25 4.234375 
Q 6.78125 9.90625 6.78125 20.515625 
Q 6.78125 27.484375 10.78125 32.3125 
Q 14.796875 37.15625 21.921875 38.8125 
z
M 18.3125 54.390625 
Q 18.3125 48.734375 21.84375 45.5625 
Q 25.390625 42.390625 31.78125 42.390625 
Q 38.140625 42.390625 41.71875 45.5625 
Q 45.3125 48.734375 45.3125 54.390625 
Q 45.3125 60.0625 41.71875 63.234375 
Q 38.140625 66.40625 31.78125 66.40625 
Q 25.390625 66.40625 21.84375 63.234375 
Q 18.3125 60.0625 18.3125 54.390625 
z
" id="DejaVuSans-56"/>
       </defs>
       <use xlink:href="#DejaVuSans-56"/>
       <use x="63.623047" xlink:href="#DejaVuSans-48"/>
      </g>
     </g>
    </g>
    <g id="xtick_7">
     <g id="line2d_7">
      <g>
       <use style="stroke:#000000;stroke-width:0.8;" x="349.069379" xlink:href="#m6edc336477" y="307.584"/>
      </g>
     </g>
     <g id="text_7">
      <!-- 100 -->
      <g transform="translate(339.525629 322.182437)scale(0.1 -0.1)">
       <defs>
        <path d="M 12.40625 8.296875 
L 28.515625 8.296875 
L 28.515625 63.921875 
L 10.984375 60.40625 
L 10.984375 69.390625 
L 28.421875 72.90625 
L 38.28125 72.90625 
L 38.28125 8.296875 
L 54.390625 8.296875 
L 54.390625 0 
L 12.40625 0 
z
" id="DejaVuSans-49"/>
       </defs>
       <use xlink:href="#DejaVuSans-49"/>
       <use x="63.623047" xlink:href="#DejaVuSans-48"/>
       <use x="127.246094" xlink:href="#DejaVuSans-48"/>
      </g>
     </g>
    </g>
    <g id="xtick_8">
     <g id="line2d_8">
      <g>
       <use style="stroke:#000000;stroke-width:0.8;" x="392.439411" xlink:href="#m6edc336477" y="307.584"/>
      </g>
     </g>
     <g id="text_8">
      <!-- 120 -->
      <g transform="translate(382.895661 322.182437)scale(0.1 -0.1)">
       <use xlink:href="#DejaVuSans-49"/>
       <use x="63.623047" xlink:href="#DejaVuSans-50"/>
       <use x="127.246094" xlink:href="#DejaVuSans-48"/>
      </g>
     </g>
    </g>
   </g>
   <g id="matplotlib.axis_2">
    <g id="ytick_1">
     <g id="line2d_9">
      <defs>
       <path d="M 0 0 
L -3.5 0 
" id="mb403228e83" style="stroke:#000000;stroke-width:0.8;"/>
      </defs>
      <g>
       <use style="stroke:#000000;stroke-width:0.8;" x="57.6" xlink:href="#mb403228e83" y="272.955152"/>
      </g>
     </g>
     <g id="text_9">
      <!-- 20 -->
      <g transform="translate(37.875 276.754371)scale(0.1 -0.1)">
       <use xlink:href="#DejaVuSans-50"/>
       <use x="63.623047" xlink:href="#DejaVuSans-48"/>
      </g>
     </g>
    </g>
    <g id="ytick_2">
     <g id="line2d_10">
      <g>
       <use style="stroke:#000000;stroke-width:0.8;" x="57.6" xlink:href="#mb403228e83" y="229.58512"/>
      </g>
     </g>
     <g id="text_10">
      <!-- 40 -->
      <g transform="translate(37.875 233.384339)scale(0.1 -0.1)">
       <use xlink:href="#DejaVuSans-52"/>
       <use x="63.623047" xlink:href="#DejaVuSans-48"/>
      </g>
     </g>
    </g>
    <g id="ytick_3">
     <g id="line2d_11">
      <g>
       <use style="stroke:#000000;stroke-width:0.8;" x="57.6" xlink:href="#mb403228e83" y="186.215089"/>
      </g>
     </g>
     <g id="text_11">
      <!-- 60 -->
      <g transform="translate(37.875 190.014308)scale(0.1 -0.1)">
       <use xlink:href="#DejaVuSans-54"/>
       <use x="63.623047" xlink:href="#DejaVuSans-48"/>
      </g>
     </g>
    </g>
    <g id="ytick_4">
     <g id="line2d_12">
      <g>
       <use style="stroke:#000000;stroke-width:0.8;" x="57.6" xlink:href="#mb403228e83" y="142.845057"/>
      </g>
     </g>
     <g id="text_12">
      <!-- 80 -->
      <g transform="translate(37.875 146.644276)scale(0.1 -0.1)">
       <use xlink:href="#DejaVuSans-56"/>
       <use x="63.623047" xlink:href="#DejaVuSans-48"/>
      </g>
     </g>
    </g>
    <g id="ytick_5">
     <g id="line2d_13">
      <g>
       <use style="stroke:#000000;stroke-width:0.8;" x="57.6" xlink:href="#mb403228e83" y="99.475025"/>
      </g>
     </g>
     <g id="text_13">
      <!-- 100 -->
      <g transform="translate(31.5125 103.274244)scale(0.1 -0.1)">
       <use xlink:href="#DejaVuSans-49"/>
       <use x="63.623047" xlink:href="#DejaVuSans-48"/>
       <use x="127.246094" xlink:href="#DejaVuSans-48"/>
      </g>
     </g>
    </g>
    <g id="ytick_6">
     <g id="line2d_14">
      <g>
       <use style="stroke:#000000;stroke-width:0.8;" x="57.6" xlink:href="#mb403228e83" y="56.104994"/>
      </g>
     </g>
     <g id="text_14">
      <!-- 120 -->
      <g transform="translate(31.5125 59.904213)scale(0.1 -0.1)">
       <use xlink:href="#DejaVuSans-49"/>
       <use x="63.623047" xlink:href="#DejaVuSans-50"/>
       <use x="127.246094" xlink:href="#DejaVuSans-48"/>
      </g>
     </g>
    </g>
   </g>
   <g id="line2d_15">
    <path clip-path="url(#pf3e825807a)" d="M 153.904237 140.275383 
L 153.85653 127.26871 
L 153.921585 118.590367 
L 154.199153 112.093536 
L 154.552619 107.773881 
L 155.077396 103.465068 
L 155.803844 99.171435 
L 156.764491 94.897319 
L 157.996199 90.673078 
L 159.538004 86.563767 
L 161.433274 82.632274 
L 162.528368 80.752183 
L 163.725381 78.939315 
L 165.032987 77.202346 
L 166.451187 75.549947 
L 167.977812 73.982121 
L 169.597683 72.505371 
L 171.308631 71.119699 
L 173.095476 69.831609 
L 174.95605 68.64327 
L 176.875174 67.554682 
L 178.848511 66.574519 
L 180.865217 65.700613 
L 182.91662 64.939469 
L 187.099659 63.748962 
L 191.362933 62.950953 
L 195.689094 62.480388 
L 200.052119 62.270044 
L 204.434661 62.254864 
L 208.815034 62.389311 
L 213.171554 62.701576 
L 217.484703 63.243701 
L 221.741472 64.061226 
L 225.918006 65.208363 
L 229.996958 66.717641 
L 233.945799 68.580383 
L 237.729834 70.779244 
L 241.318704 73.2882 
L 244.675545 76.089904 
L 247.776502 79.156166 
L 250.619408 82.458794 
L 253.215104 85.960924 
L 255.570097 89.630028 
L 257.69306 93.431412 
L 259.601341 97.330377 
L 262.181858 103.302431 
L 267.986937 117.332636 
L 270.725754 123.235297 
L 274.58135 131.007207 
L 280.603279 142.53713 
L 287.607539 156.018704 
L 291.638784 163.714716 
L 294.895873 169.337641 
L 297.255203 172.961207 
L 301.032732 178.245845 
L 306.133048 185.269622 
L 308.544422 188.888851 
L 310.771473 192.63819 
L 312.775168 196.51764 
L 314.518644 200.514188 
L 315.97154 204.616993 
L 317.103498 208.815212 
L 317.886327 213.091497 
L 318.335207 217.426332 
L 318.469654 221.787189 
L 318.311353 226.150214 
L 317.88199 230.485049 
L 317.207586 234.774345 
L 315.863115 241.136728 
L 310.847371 262.262271 
L 309.708907 268.668025 
L 308.874034 275.108474 
L 308.516231 279.421624 
L 308.342751 283.749953 
L 308.370942 288.093462 
L 308.624656 292.454318 
L 308.839338 294.640168 
L 308.839338 294.640168 
" style="fill:none;stroke:#fea952;stroke-linecap:square;"/>
   </g>
   <g id="line2d_16">
    <path clip-path="url(#pf3e825807a)" d="M 145.2303 140.240617 
L 145.182541 127.286041 
L 145.251479 118.330264 
L 145.548305 111.460124 
L 145.931138 106.820752 
L 146.50758 102.124683 
L 147.314531 97.391002 
L 148.396123 92.615037 
L 149.81291 87.796942 
L 151.637358 82.983518 
L 152.718408 80.621647 
L 153.93803 78.266532 
L 155.289916 75.972727 
L 156.79553 73.722462 
L 158.45085 71.55311 
L 160.236625 69.4987 
L 162.13408 67.572036 
L 164.138539 65.764738 
L 166.236319 64.083361 
L 168.426492 62.521412 
L 170.67643 61.098521 
L 173.016543 59.786198 
L 175.399661 58.615636 
L 177.847851 57.568339 
L 180.334789 56.658616 
L 182.831388 55.891568 
L 185.321902 55.259088 
L 190.27214 54.345806 
L 195.154467 53.822874 
L 199.940593 53.596754 
L 204.623368 53.582911 
L 209.331453 53.730692 
L 214.131336 54.080833 
L 218.966894 54.697269 
L 223.861579 55.650309 
L 228.74912 57.009389 
L 231.158742 57.850223 
L 235.855164 59.841584 
L 240.372517 62.232619 
L 244.671552 64.99419 
L 248.72472 68.113723 
L 252.486146 71.552673 
L 255.909902 75.247811 
L 259.008194 79.147058 
L 261.796876 83.210444 
L 264.29612 87.400671 
L 266.507432 91.65124 
L 268.461673 95.882822 
L 271.0506 102.085204 
L 275.052607 111.853222 
L 277.631845 117.55616 
L 281.338525 125.15219 
L 286.255101 134.659733 
L 296.298466 153.965666 
L 300.20235 161.265365 
L 302.220954 164.692043 
L 304.374676 168.006262 
L 308.016446 173.101321 
L 313.297918 180.38055 
L 315.937038 184.351493 
L 318.416412 188.540228 
L 320.664887 192.913375 
L 322.638948 197.464755 
L 324.298295 202.187275 
L 325.603016 207.08415 
L 326.496112 212.037943 
L 326.999336 217.012523 
L 327.141774 221.968037 
L 326.955039 226.874834 
L 326.467253 231.722642 
L 325.723341 236.423676 
L 324.802063 240.948156 
L 323.241325 247.47222 
L 320.220478 259.847793 
L 318.978194 265.92112 
L 317.995768 271.931279 
L 317.323794 277.887201 
L 317.075992 281.835312 
L 317.002188 285.756175 
L 317.1204 289.653586 
L 317.47181 293.792336 
L 317.47181 293.792336 
" style="fill:none;stroke:#ffffff;stroke-linecap:square;"/>
   </g>
   <g id="line2d_17">
    <path clip-path="url(#pf3e825807a)" d="M 162.578174 140.310148 
L 162.530519 127.25138 
L 162.591691 118.85047 
L 162.850001 112.726948 
L 163.389374 106.76034 
L 163.947332 102.869255 
L 164.687529 99.054106 
L 165.627045 95.347475 
L 166.780202 91.816997 
L 168.161793 88.524519 
L 169.76682 85.531639 
L 171.615124 82.851581 
L 173.821544 80.392205 
L 176.380942 78.156036 
L 179.235671 76.188019 
L 182.29736 74.533403 
L 185.49845 73.220323 
L 188.877416 72.238836 
L 192.453727 71.5561 
L 196.223721 71.137903 
L 200.163645 70.943333 
L 206.28342 70.96977 
L 210.272644 71.163168 
L 214.129898 71.532367 
L 217.833283 72.101908 
L 221.367239 72.904242 
L 224.784412 73.984704 
L 228.124457 75.371868 
L 231.348654 77.048942 
L 234.431199 78.997357 
L 237.330247 81.19499 
L 240.030956 83.628342 
L 242.548894 86.312936 
L 244.889204 89.22712 
L 247.049042 92.345812 
L 249.025586 95.632579 
L 250.834676 99.088864 
L 252.523518 102.73328 
L 254.948166 108.540059 
L 259.173454 118.839355 
L 261.959089 124.993784 
L 265.86385 132.993617 
L 270.905033 142.742368 
L 280.894285 161.944686 
L 284.06166 167.936752 
L 286.348874 171.959085 
L 288.842001 175.98302 
L 291.444092 179.794479 
L 301.151806 193.426209 
L 303.126534 196.736153 
L 304.88545 200.121905 
L 306.398339 203.563622 
L 307.644784 207.046711 
L 308.60398 210.546275 
L 309.276541 214.145052 
L 309.671077 217.840141 
L 309.797533 221.60634 
L 309.667667 225.425594 
L 309.296726 229.247455 
L 308.69183 233.125014 
L 307.430041 239.106544 
L 302.327776 260.632887 
L 301.126832 267.408509 
L 300.494528 271.992761 
L 300.020933 276.636392 
L 299.735284 281.331928 
L 299.657293 286.085071 
L 299.816649 290.892026 
L 300.206866 295.488 
L 300.206866 295.488 
" style="fill:none;stroke:#ffffff;stroke-linecap:square;"/>
   </g>
   <g id="patch_3">
    <path d="M 57.6 307.584 
L 57.6 41.472 
" style="fill:none;stroke:#000000;stroke-linecap:square;stroke-linejoin:miter;stroke-width:0.8;"/>
   </g>
   <g id="patch_4">
    <path d="M 414.72 307.584 
L 414.72 41.472 
" style="fill:none;stroke:#000000;stroke-linecap:square;stroke-linejoin:miter;stroke-width:0.8;"/>
   </g>
   <g id="patch_5">
    <path d="M 57.6 307.584 
L 414.72 307.584 
" style="fill:none;stroke:#000000;stroke-linecap:square;stroke-linejoin:miter;stroke-width:0.8;"/>
   </g>
   <g id="patch_6">
    <path d="M 57.6 41.472 
L 414.72 41.472 
" style="fill:none;stroke:#000000;stroke-linecap:square;stroke-linejoin:miter;stroke-width:0.8;"/>
   </g>
  </g>
 </g>
 <defs>
  <clipPath id="pf3e825807a">
   <rect height="266.112" width="357.12" x="57.6" y="41.472"/>
  </clipPath>
 </defs>
</svg>
