<?xml version="1.0" encoding="utf-8" standalone="no"?>
<!DOCTYPE svg PUBLIC "-//W3C//DTD SVG 1.1//EN"
  "http://www.w3.org/Graphics/SVG/1.1/DTD/svg11.dtd">
<!-- Created with matplotlib (https://matplotlib.org/) -->
<svg height="345.6pt" version="1.1" viewBox="0 0 460.8 345.6" width="460.8pt" xmlns="http://www.w3.org/2000/svg" xmlns:xlink="http://www.w3.org/1999/xlink">
 <metadata>
  <rdf:RDF xmlns:cc="http://creativecommons.org/ns#" xmlns:dc="http://purl.org/dc/elements/1.1/" xmlns:rdf="http://www.w3.org/1999/02/22-rdf-syntax-ns#">
   <cc:Work>
    <dc:type rdf:resource="http://purl.org/dc/dcmitype/StillImage"/>
    <dc:date>2021-01-23T12:54:45.851136</dc:date>
    <dc:format>image/svg+xml</dc:format>
    <dc:creator>
     <cc:Agent>
      <dc:title>Matplotlib v3.3.3, https://matplotlib.org/</dc:title>
     </cc:Agent>
    </dc:creator>
   </cc:Work>
  </rdf:RDF>
 </metadata>
 <defs>
  <style type="text/css">*{stroke-linecap:butt;stroke-linejoin:round;}</style>
 </defs>
 <g id="figure_1">
  <g id="patch_1">
   <path d="M 0 345.6 
L 460.8 345.6 
L 460.8 0 
L 0 0 
z
" style="fill:#ffffff;"/>
  </g>
  <g id="axes_1">
   <g id="patch_2">
    <path d="M 57.6 307.584 
L 414.72 307.584 
L 414.72 41.472 
L 57.6 41.472 
z
" style="fill:#7d9051;"/>
   </g>
   <g id="matplotlib.axis_1">
    <g id="xtick_1">
     <g id="line2d_1">
      <defs>
       <path d="M 0 0 
L 0 3.5 
" id="m217aefe20c" style="stroke:#000000;stroke-width:0.8;"/>
      </defs>
      <g>
       <use style="stroke:#000000;stroke-width:0.8;" x="118.488121" xlink:href="#m217aefe20c" y="307.584"/>
      </g>
     </g>
     <g id="text_1">
      <!-- 20 -->
      <g transform="translate(112.125621 322.182437)scale(0.1 -0.1)">
       <defs>
        <path d="M 19.1875 8.296875 
L 53.609375 8.296875 
L 53.609375 0 
L 7.328125 0 
L 7.328125 8.296875 
Q 12.9375 14.109375 22.625 23.890625 
Q 32.328125 33.6875 34.8125 36.53125 
Q 39.546875 41.84375 41.421875 45.53125 
Q 43.3125 49.21875 43.3125 52.78125 
Q 43.3125 58.59375 39.234375 62.25 
Q 35.15625 65.921875 28.609375 65.921875 
Q 23.96875 65.921875 18.8125 64.3125 
Q 13.671875 62.703125 7.8125 59.421875 
L 7.8125 69.390625 
Q 13.765625 71.78125 18.9375 73 
Q 24.125 74.21875 28.421875 74.21875 
Q 39.75 74.21875 46.484375 68.546875 
Q 53.21875 62.890625 53.21875 53.421875 
Q 53.21875 48.921875 51.53125 44.890625 
Q 49.859375 40.875 45.40625 35.40625 
Q 44.1875 33.984375 37.640625 27.21875 
Q 31.109375 20.453125 19.1875 8.296875 
z
" id="DejaVuSans-50"/>
        <path d="M 31.78125 66.40625 
Q 24.171875 66.40625 20.328125 58.90625 
Q 16.5 51.421875 16.5 36.375 
Q 16.5 21.390625 20.328125 13.890625 
Q 24.171875 6.390625 31.78125 6.390625 
Q 39.453125 6.390625 43.28125 13.890625 
Q 47.125 21.390625 47.125 36.375 
Q 47.125 51.421875 43.28125 58.90625 
Q 39.453125 66.40625 31.78125 66.40625 
z
M 31.78125 74.21875 
Q 44.046875 74.21875 50.515625 64.515625 
Q 56.984375 54.828125 56.984375 36.375 
Q 56.984375 17.96875 50.515625 8.265625 
Q 44.046875 -1.421875 31.78125 -1.421875 
Q 19.53125 -1.421875 13.0625 8.265625 
Q 6.59375 17.96875 6.59375 36.375 
Q 6.59375 54.828125 13.0625 64.515625 
Q 19.53125 74.21875 31.78125 74.21875 
z
" id="DejaVuSans-48"/>
       </defs>
       <use xlink:href="#DejaVuSans-50"/>
       <use x="63.623047" xlink:href="#DejaVuSans-48"/>
      </g>
     </g>
    </g>
    <g id="xtick_2">
     <g id="line2d_2">
      <g>
       <use style="stroke:#000000;stroke-width:0.8;" x="181.242879" xlink:href="#m217aefe20c" y="307.584"/>
      </g>
     </g>
     <g id="text_2">
      <!-- 40 -->
      <g transform="translate(174.880379 322.182437)scale(0.1 -0.1)">
       <defs>
        <path d="M 37.796875 64.3125 
L 12.890625 25.390625 
L 37.796875 25.390625 
z
M 35.203125 72.90625 
L 47.609375 72.90625 
L 47.609375 25.390625 
L 58.015625 25.390625 
L 58.015625 17.1875 
L 47.609375 17.1875 
L 47.609375 0 
L 37.796875 0 
L 37.796875 17.1875 
L 4.890625 17.1875 
L 4.890625 26.703125 
z
" id="DejaVuSans-52"/>
       </defs>
       <use xlink:href="#DejaVuSans-52"/>
       <use x="63.623047" xlink:href="#DejaVuSans-48"/>
      </g>
     </g>
    </g>
    <g id="xtick_3">
     <g id="line2d_3">
      <g>
       <use style="stroke:#000000;stroke-width:0.8;" x="243.997636" xlink:href="#m217aefe20c" y="307.584"/>
      </g>
     </g>
     <g id="text_3">
      <!-- 60 -->
      <g transform="translate(237.635136 322.182437)scale(0.1 -0.1)">
       <defs>
        <path d="M 33.015625 40.375 
Q 26.375 40.375 22.484375 35.828125 
Q 18.609375 31.296875 18.609375 23.390625 
Q 18.609375 15.53125 22.484375 10.953125 
Q 26.375 6.390625 33.015625 6.390625 
Q 39.65625 6.390625 43.53125 10.953125 
Q 47.40625 15.53125 47.40625 23.390625 
Q 47.40625 31.296875 43.53125 35.828125 
Q 39.65625 40.375 33.015625 40.375 
z
M 52.59375 71.296875 
L 52.59375 62.3125 
Q 48.875 64.0625 45.09375 64.984375 
Q 41.3125 65.921875 37.59375 65.921875 
Q 27.828125 65.921875 22.671875 59.328125 
Q 17.53125 52.734375 16.796875 39.40625 
Q 19.671875 43.65625 24.015625 45.921875 
Q 28.375 48.1875 33.59375 48.1875 
Q 44.578125 48.1875 50.953125 41.515625 
Q 57.328125 34.859375 57.328125 23.390625 
Q 57.328125 12.15625 50.6875 5.359375 
Q 44.046875 -1.421875 33.015625 -1.421875 
Q 20.359375 -1.421875 13.671875 8.265625 
Q 6.984375 17.96875 6.984375 36.375 
Q 6.984375 53.65625 15.1875 63.9375 
Q 23.390625 74.21875 37.203125 74.21875 
Q 40.921875 74.21875 44.703125 73.484375 
Q 48.484375 72.75 52.59375 71.296875 
z
" id="DejaVuSans-54"/>
       </defs>
       <use xlink:href="#DejaVuSans-54"/>
       <use x="63.623047" xlink:href="#DejaVuSans-48"/>
      </g>
     </g>
    </g>
    <g id="xtick_4">
     <g id="line2d_4">
      <g>
       <use style="stroke:#000000;stroke-width:0.8;" x="306.752393" xlink:href="#m217aefe20c" y="307.584"/>
      </g>
     </g>
     <g id="text_4">
      <!-- 80 -->
      <g transform="translate(300.389893 322.182437)scale(0.1 -0.1)">
       <defs>
        <path d="M 31.78125 34.625 
Q 24.75 34.625 20.71875 30.859375 
Q 16.703125 27.09375 16.703125 20.515625 
Q 16.703125 13.921875 20.71875 10.15625 
Q 24.75 6.390625 31.78125 6.390625 
Q 38.8125 6.390625 42.859375 10.171875 
Q 46.921875 13.96875 46.921875 20.515625 
Q 46.921875 27.09375 42.890625 30.859375 
Q 38.875 34.625 31.78125 34.625 
z
M 21.921875 38.8125 
Q 15.578125 40.375 12.03125 44.71875 
Q 8.5 49.078125 8.5 55.328125 
Q 8.5 64.0625 14.71875 69.140625 
Q 20.953125 74.21875 31.78125 74.21875 
Q 42.671875 74.21875 48.875 69.140625 
Q 55.078125 64.0625 55.078125 55.328125 
Q 55.078125 49.078125 51.53125 44.71875 
Q 48 40.375 41.703125 38.8125 
Q 48.828125 37.15625 52.796875 32.3125 
Q 56.78125 27.484375 56.78125 20.515625 
Q 56.78125 9.90625 50.3125 4.234375 
Q 43.84375 -1.421875 31.78125 -1.421875 
Q 19.734375 -1.421875 13.25 4.234375 
Q 6.78125 9.90625 6.78125 20.515625 
Q 6.78125 27.484375 10.78125 32.3125 
Q 14.796875 37.15625 21.921875 38.8125 
z
M 18.3125 54.390625 
Q 18.3125 48.734375 21.84375 45.5625 
Q 25.390625 42.390625 31.78125 42.390625 
Q 38.140625 42.390625 41.71875 45.5625 
Q 45.3125 48.734375 45.3125 54.390625 
Q 45.3125 60.0625 41.71875 63.234375 
Q 38.140625 66.40625 31.78125 66.40625 
Q 25.390625 66.40625 21.84375 63.234375 
Q 18.3125 60.0625 18.3125 54.390625 
z
" id="DejaVuSans-56"/>
       </defs>
       <use xlink:href="#DejaVuSans-56"/>
       <use x="63.623047" xlink:href="#DejaVuSans-48"/>
      </g>
     </g>
    </g>
    <g id="xtick_5">
     <g id="line2d_5">
      <g>
       <use style="stroke:#000000;stroke-width:0.8;" x="369.50715" xlink:href="#m217aefe20c" y="307.584"/>
      </g>
     </g>
     <g id="text_5">
      <!-- 100 -->
      <g transform="translate(359.9634 322.182437)scale(0.1 -0.1)">
       <defs>
        <path d="M 12.40625 8.296875 
L 28.515625 8.296875 
L 28.515625 63.921875 
L 10.984375 60.40625 
L 10.984375 69.390625 
L 28.421875 72.90625 
L 38.28125 72.90625 
L 38.28125 8.296875 
L 54.390625 8.296875 
L 54.390625 0 
L 12.40625 0 
z
" id="DejaVuSans-49"/>
       </defs>
       <use xlink:href="#DejaVuSans-49"/>
       <use x="63.623047" xlink:href="#DejaVuSans-48"/>
       <use x="127.246094" xlink:href="#DejaVuSans-48"/>
      </g>
     </g>
    </g>
   </g>
   <g id="matplotlib.axis_2">
    <g id="ytick_1">
     <g id="line2d_6">
      <defs>
       <path d="M 0 0 
L -3.5 0 
" id="m223fce1dc9" style="stroke:#000000;stroke-width:0.8;"/>
      </defs>
      <g>
       <use style="stroke:#000000;stroke-width:0.8;" x="57.6" xlink:href="#m223fce1dc9" y="291.188691"/>
      </g>
     </g>
     <g id="text_6">
      <!-- 0 -->
      <g transform="translate(44.2375 294.987909)scale(0.1 -0.1)">
       <use xlink:href="#DejaVuSans-48"/>
      </g>
     </g>
    </g>
    <g id="ytick_2">
     <g id="line2d_7">
      <g>
       <use style="stroke:#000000;stroke-width:0.8;" x="57.6" xlink:href="#m223fce1dc9" y="259.811312"/>
      </g>
     </g>
     <g id="text_7">
      <!-- 10 -->
      <g transform="translate(37.875 263.610531)scale(0.1 -0.1)">
       <use xlink:href="#DejaVuSans-49"/>
       <use x="63.623047" xlink:href="#DejaVuSans-48"/>
      </g>
     </g>
    </g>
    <g id="ytick_3">
     <g id="line2d_8">
      <g>
       <use style="stroke:#000000;stroke-width:0.8;" x="57.6" xlink:href="#m223fce1dc9" y="228.433933"/>
      </g>
     </g>
     <g id="text_8">
      <!-- 20 -->
      <g transform="translate(37.875 232.233152)scale(0.1 -0.1)">
       <use xlink:href="#DejaVuSans-50"/>
       <use x="63.623047" xlink:href="#DejaVuSans-48"/>
      </g>
     </g>
    </g>
    <g id="ytick_4">
     <g id="line2d_9">
      <g>
       <use style="stroke:#000000;stroke-width:0.8;" x="57.6" xlink:href="#m223fce1dc9" y="197.056555"/>
      </g>
     </g>
     <g id="text_9">
      <!-- 30 -->
      <g transform="translate(37.875 200.855773)scale(0.1 -0.1)">
       <defs>
        <path d="M 40.578125 39.3125 
Q 47.65625 37.796875 51.625 33 
Q 55.609375 28.21875 55.609375 21.1875 
Q 55.609375 10.40625 48.1875 4.484375 
Q 40.765625 -1.421875 27.09375 -1.421875 
Q 22.515625 -1.421875 17.65625 -0.515625 
Q 12.796875 0.390625 7.625 2.203125 
L 7.625 11.71875 
Q 11.71875 9.328125 16.59375 8.109375 
Q 21.484375 6.890625 26.8125 6.890625 
Q 36.078125 6.890625 40.9375 10.546875 
Q 45.796875 14.203125 45.796875 21.1875 
Q 45.796875 27.640625 41.28125 31.265625 
Q 36.765625 34.90625 28.71875 34.90625 
L 20.21875 34.90625 
L 20.21875 43.015625 
L 29.109375 43.015625 
Q 36.375 43.015625 40.234375 45.921875 
Q 44.09375 48.828125 44.09375 54.296875 
Q 44.09375 59.90625 40.109375 62.90625 
Q 36.140625 65.921875 28.71875 65.921875 
Q 24.65625 65.921875 20.015625 65.03125 
Q 15.375 64.15625 9.8125 62.3125 
L 9.8125 71.09375 
Q 15.4375 72.65625 20.34375 73.4375 
Q 25.25 74.21875 29.59375 74.21875 
Q 40.828125 74.21875 47.359375 69.109375 
Q 53.90625 64.015625 53.90625 55.328125 
Q 53.90625 49.265625 50.4375 45.09375 
Q 46.96875 40.921875 40.578125 39.3125 
z
" id="DejaVuSans-51"/>
       </defs>
       <use xlink:href="#DejaVuSans-51"/>
       <use x="63.623047" xlink:href="#DejaVuSans-48"/>
      </g>
     </g>
    </g>
    <g id="ytick_5">
     <g id="line2d_10">
      <g>
       <use style="stroke:#000000;stroke-width:0.8;" x="57.6" xlink:href="#m223fce1dc9" y="165.679176"/>
      </g>
     </g>
     <g id="text_10">
      <!-- 40 -->
      <g transform="translate(37.875 169.478395)scale(0.1 -0.1)">
       <use xlink:href="#DejaVuSans-52"/>
       <use x="63.623047" xlink:href="#DejaVuSans-48"/>
      </g>
     </g>
    </g>
    <g id="ytick_6">
     <g id="line2d_11">
      <g>
       <use style="stroke:#000000;stroke-width:0.8;" x="57.6" xlink:href="#m223fce1dc9" y="134.301797"/>
      </g>
     </g>
     <g id="text_11">
      <!-- 50 -->
      <g transform="translate(37.875 138.101016)scale(0.1 -0.1)">
       <defs>
        <path d="M 10.796875 72.90625 
L 49.515625 72.90625 
L 49.515625 64.59375 
L 19.828125 64.59375 
L 19.828125 46.734375 
Q 21.96875 47.46875 24.109375 47.828125 
Q 26.265625 48.1875 28.421875 48.1875 
Q 40.625 48.1875 47.75 41.5 
Q 54.890625 34.8125 54.890625 23.390625 
Q 54.890625 11.625 47.5625 5.09375 
Q 40.234375 -1.421875 26.90625 -1.421875 
Q 22.3125 -1.421875 17.546875 -0.640625 
Q 12.796875 0.140625 7.71875 1.703125 
L 7.71875 11.625 
Q 12.109375 9.234375 16.796875 8.0625 
Q 21.484375 6.890625 26.703125 6.890625 
Q 35.15625 6.890625 40.078125 11.328125 
Q 45.015625 15.765625 45.015625 23.390625 
Q 45.015625 31 40.078125 35.4375 
Q 35.15625 39.890625 26.703125 39.890625 
Q 22.75 39.890625 18.8125 39.015625 
Q 14.890625 38.140625 10.796875 36.28125 
z
" id="DejaVuSans-53"/>
       </defs>
       <use xlink:href="#DejaVuSans-53"/>
       <use x="63.623047" xlink:href="#DejaVuSans-48"/>
      </g>
     </g>
    </g>
    <g id="ytick_7">
     <g id="line2d_12">
      <g>
       <use style="stroke:#000000;stroke-width:0.8;" x="57.6" xlink:href="#m223fce1dc9" y="102.924419"/>
      </g>
     </g>
     <g id="text_12">
      <!-- 60 -->
      <g transform="translate(37.875 106.723638)scale(0.1 -0.1)">
       <use xlink:href="#DejaVuSans-54"/>
       <use x="63.623047" xlink:href="#DejaVuSans-48"/>
      </g>
     </g>
    </g>
    <g id="ytick_8">
     <g id="line2d_13">
      <g>
       <use style="stroke:#000000;stroke-width:0.8;" x="57.6" xlink:href="#m223fce1dc9" y="71.54704"/>
      </g>
     </g>
     <g id="text_13">
      <!-- 70 -->
      <g transform="translate(37.875 75.346259)scale(0.1 -0.1)">
       <defs>
        <path d="M 8.203125 72.90625 
L 55.078125 72.90625 
L 55.078125 68.703125 
L 28.609375 0 
L 18.3125 0 
L 43.21875 64.59375 
L 8.203125 64.59375 
z
" id="DejaVuSans-55"/>
       </defs>
       <use xlink:href="#DejaVuSans-55"/>
       <use x="63.623047" xlink:href="#DejaVuSans-48"/>
      </g>
     </g>
    </g>
   </g>
   <g id="line2d_14">
    <path clip-path="url(#pd81accdae3)" d="M 87.110743 259.811312 
L 86.630669 253.510734 
L 86.404752 247.197606 
L 86.420441 240.878202 
L 86.67146 234.561935 
L 87.151533 228.25822 
L 87.854387 221.976469 
L 88.770606 215.719819 
L 89.890779 209.500823 
L 91.211766 203.325755 
L 92.724156 197.204028 
L 94.415397 191.138781 
L 97.233085 182.117785 
L 100.298655 173.15013 
L 104.631871 161.2079 
L 106.982037 155.302677 
L 109.583221 149.529239 
L 111.010892 146.717826 
L 112.53897 143.96603 
L 114.180007 141.283264 
L 115.946554 138.678942 
L 117.844885 136.159338 
L 119.868726 133.730729 
L 122.011801 131.389977 
L 124.267835 129.146494 
L 126.621138 127.003419 
L 129.071711 124.957614 
L 131.610141 123.018492 
L 134.223877 121.186053 
L 136.90978 119.463435 
L 139.658439 117.853776 
L 142.463576 116.360212 
L 145.322056 114.979608 
L 148.227601 113.708824 
L 151.177075 112.550999 
L 157.18898 110.55226 
L 163.329533 108.97084 
L 169.561081 107.79105 
L 175.858521 107.006616 
L 182.187338 106.636363 
L 188.525568 106.708531 
L 191.688408 106.918759 
L 194.841835 107.245084 
L 197.98271 107.69378 
L 201.107897 108.267986 
L 204.214258 108.967702 
L 207.289241 109.792927 
L 210.329709 110.749937 
L 213.326248 111.832457 
L 216.272584 113.040486 
L 219.156165 114.3803 
L 221.976992 115.848761 
L 224.719375 117.449007 
L 227.380176 119.174763 
L 229.949984 121.032304 
L 232.425659 123.018492 
L 234.807202 125.120776 
L 237.088337 127.336019 
L 239.269065 129.648532 
L 241.352523 132.058315 
L 243.332436 134.552816 
L 245.208803 137.125762 
L 246.981625 139.767737 
L 248.647763 142.469329 
L 251.672543 148.023125 
L 254.374135 153.721257 
L 262.039629 171.035295 
L 264.932623 176.667534 
L 268.133116 182.136611 
L 271.656795 187.404873 
L 275.513075 192.431529 
L 277.565156 194.841312 
L 279.708231 197.178926 
L 281.936024 199.43496 
L 284.248537 201.606275 
L 286.648907 203.683457 
L 289.12772 205.666507 
L 291.688114 207.546012 
L 294.326951 209.315697 
L 297.037957 210.969284 
L 299.824268 212.506776 
L 302.679609 213.91562 
L 305.600843 215.19268 
L 308.591108 216.334816 
L 311.637851 217.329479 
L 314.731661 218.17353 
L 317.866261 218.860695 
L 321.025963 219.38156 
L 324.207629 219.726711 
L 327.392433 219.893011 
L 330.580375 219.871047 
L 333.752628 219.654543 
L 336.902916 219.237224 
L 340.021828 218.609676 
L 343.099949 217.778176 
L 346.124728 216.748998 
L 349.086752 215.534693 
L 351.973471 214.144675 
L 354.781747 212.588357 
L 357.49589 210.868877 
L 360.106488 209.00506 
L 362.604127 206.996908 
L 364.976257 204.860109 
L 367.21974 202.600937 
L 369.328299 200.228808 
L 371.301937 197.749995 
L 373.150064 195.173912 
L 374.872682 192.506835 
L 376.466653 189.758176 
L 377.94139 186.934212 
L 379.296893 184.041218 
L 380.533161 181.091744 
L 381.653334 178.088929 
L 382.663685 175.042186 
L 383.551665 171.95779 
L 384.314135 168.842016 
L 384.941683 165.704278 
L 385.428032 162.550851 
L 385.760633 159.384874 
L 385.936346 156.215759 
L 385.942621 153.049781 
L 385.776321 149.893217 
L 385.428032 146.755479 
L 384.888341 143.639705 
L 384.163524 140.555309 
L 383.259856 137.508566 
L 382.183611 134.512026 
L 380.93793 131.571965 
L 379.532223 128.697798 
L 377.972767 125.895798 
L 376.265838 123.175379 
L 374.41771 120.545955 
L 372.43466 118.0138 
L 370.319825 115.588329 
L 368.085755 113.278954 
L 365.73559 111.09195 
L 363.272465 109.03987 
L 360.708934 107.12585 
L 358.048132 105.359303 
L 355.296336 103.752782 
L 352.459821 102.31256 
L 349.548 101.041776 
L 346.560873 99.956119 
L 346.560873 99.956119 
" style="fill:none;stroke:#fea952;stroke-linecap:square;"/>
   </g>
   <g id="line2d_15">
    <path clip-path="url(#pd81accdae3)" d="M 74.606742 260.895906 
L 74.092818 254.084036 
L 73.854104 247.28485 
L 73.875432 240.49201 
L 74.14914 233.714654 
L 74.666372 226.974815 
L 75.420047 220.26955 
L 76.399635 213.601929 
L 77.597661 206.969887 
L 79.005344 200.4052 
L 80.611423 193.916465 
L 82.396178 187.524261 
L 85.327457 178.145078 
L 88.472441 168.946912 
L 92.932236 156.664232 
L 95.471738 150.298739 
L 98.392498 143.84645 
L 100.038206 140.62467 
L 101.832258 137.416778 
L 103.793153 134.237723 
L 105.922295 131.126418 
L 108.202977 128.124415 
L 110.611591 125.255363 
L 113.161728 122.490393 
L 115.817148 119.866824 
L 118.577724 117.368593 
L 121.452669 114.983819 
L 124.405193 112.741571 
L 127.448087 110.621251 
L 130.56728 108.632966 
L 133.759828 106.775293 
L 137.004981 105.058438 
L 140.292701 103.480392 
L 143.641392 102.025799 
L 147.010926 100.711675 
L 150.412078 99.52288 
L 153.859282 98.451041 
L 157.315145 97.507185 
L 160.796495 96.678155 
L 164.300074 95.962853 
L 167.81216 95.362548 
L 171.351783 94.870852 
L 174.914897 94.491187 
L 178.499374 94.228055 
L 182.112853 94.085632 
L 185.720173 94.071766 
L 189.357971 94.185213 
L 192.980314 94.434475 
L 196.616807 94.820276 
L 200.250793 95.349462 
L 203.865927 96.023818 
L 207.467412 96.845682 
L 211.05749 97.821015 
L 214.594089 98.945639 
L 218.087599 100.219708 
L 221.561207 101.658181 
L 224.951649 103.247522 
L 228.302595 105.008414 
L 231.549018 106.918939 
L 234.73272 109.002916 
L 237.804112 111.242562 
L 240.73169 113.609123 
L 243.551069 116.116823 
L 246.21957 118.725156 
L 248.763465 121.439832 
L 251.183257 124.255556 
L 253.473208 127.157473 
L 255.630831 130.132357 
L 257.664352 133.179435 
L 259.56488 136.277161 
L 261.334726 139.412653 
L 264.450728 145.600882 
L 267.171788 151.624647 
L 272.074501 162.861967 
L 274.536919 167.988812 
L 277.232457 172.928574 
L 280.182628 177.664276 
L 283.372252 182.145487 
L 286.816626 186.359762 
L 290.527154 190.285158 
L 294.489424 193.882811 
L 298.678706 197.122097 
L 300.862613 198.600683 
L 303.101691 199.980312 
L 305.377776 201.251336 
L 307.707027 202.415557 
L 310.079154 203.467872 
L 312.486265 204.403591 
L 314.941264 205.221059 
L 317.419249 205.913708 
L 319.907685 206.476876 
L 322.379564 206.903814 
L 324.862107 207.192835 
L 327.305962 207.342357 
L 329.725769 207.349224 
L 332.1044 207.212287 
L 334.427191 206.932868 
L 336.748727 206.493027 
L 339.057112 205.896179 
L 341.363905 205.136033 
L 343.641584 204.226443 
L 345.88965 203.166811 
L 348.064876 201.985997 
L 350.203121 200.654089 
L 352.242017 199.223625 
L 354.203895 197.67154 
L 356.070525 196.016222 
L 357.839042 194.262539 
L 359.509491 192.411047 
L 361.103936 190.433768 
L 362.607006 188.364337 
L 364.015287 186.210537 
L 365.341375 183.948309 
L 366.576131 181.609058 
L 367.721626 179.189457 
L 369.740336 174.138378 
L 371.360439 168.974438 
L 372.006915 166.380572 
L 372.537392 163.791178 
L 372.945772 161.239534 
L 373.228929 158.690047 
L 373.385419 156.190881 
L 373.409052 153.710098 
L 373.301983 151.277868 
L 373.061228 148.897564 
L 372.670215 146.510903 
L 372.130696 144.124263 
L 371.447673 141.751056 
L 370.627151 139.408413 
L 369.663215 137.086237 
L 368.565355 134.801418 
L 367.341309 132.566516 
L 365.997533 130.392601 
L 364.536358 128.284511 
L 362.974717 126.262185 
L 361.299104 124.314896 
L 359.535571 122.467029 
L 357.701875 120.734865 
L 355.763577 119.096856 
L 353.766849 117.582133 
L 351.720229 116.198308 
L 349.614162 114.943817 
L 347.439569 113.815753 
L 345.260789 112.837801 
L 342.273663 111.752144 
L 342.273663 111.752144 
" style="fill:none;stroke:#ffffff;stroke-linecap:square;"/>
   </g>
   <g id="line2d_16">
    <path clip-path="url(#pd81accdae3)" d="M 99.614744 258.726718 
L 99.16852 252.937433 
L 98.9554 247.110362 
L 98.965449 241.264394 
L 99.193779 235.409217 
L 99.636695 229.541625 
L 100.288727 223.683387 
L 101.141577 217.83771 
L 102.183896 212.031759 
L 103.418188 206.24631 
L 104.836889 200.491592 
L 106.434616 194.753302 
L 109.138713 186.090492 
L 112.124869 177.353348 
L 116.331506 165.751567 
L 118.492336 160.306615 
L 120.773945 155.212028 
L 123.245682 150.515282 
L 124.566861 148.328805 
L 125.970813 146.231466 
L 127.486793 144.194262 
L 129.125861 142.206095 
L 130.861874 140.28956 
L 132.718521 138.426164 
L 134.664552 136.638245 
L 136.690753 134.931409 
L 140.999667 131.750855 
L 145.557049 128.932258 
L 150.35141 126.478824 
L 155.343223 124.390322 
L 160.518679 122.653478 
L 165.862571 121.263524 
L 171.310002 120.219552 
L 176.802144 119.522045 
L 182.261823 119.187093 
L 187.693165 119.231848 
L 193.066862 119.669892 
L 198.349867 120.512155 
L 203.520992 121.764839 
L 208.564898 123.445205 
L 210.983962 124.42279 
L 213.360681 125.513078 
L 215.651389 126.689108 
L 217.889731 127.979076 
L 220.027632 129.346611 
L 222.095856 130.822046 
L 224.119628 132.427861 
L 226.063335 134.12473 
L 227.957105 135.946883 
L 229.774665 137.857232 
L 231.521789 139.861074 
L 234.786774 144.119166 
L 237.730647 148.661498 
L 240.389743 153.520835 
L 242.898246 158.803615 
L 250.801298 176.623346 
L 254.010172 182.850288 
L 257.597378 188.957507 
L 261.57293 194.877626 
L 263.7129 197.75367 
L 265.957383 200.568798 
L 268.313685 203.322861 
L 270.77765 205.99772 
L 273.344895 208.584762 
L 276.035623 211.097029 
L 278.80839 213.484104 
L 281.700706 215.784108 
L 284.697522 217.969927 
L 287.791289 220.03071 
L 290.974222 221.958256 
L 294.27076 223.762216 
L 297.652192 225.415683 
L 301.122533 226.917487 
L 304.69595 228.266041 
L 308.334438 229.437899 
L 312.044072 230.433353 
L 315.824837 231.244514 
L 319.672361 231.859306 
L 323.553151 232.260586 
L 327.478904 232.443664 
L 331.43498 232.392869 
L 335.400855 232.096799 
L 339.378642 231.541579 
L 343.294929 230.726325 
L 347.142786 229.660172 
L 350.885551 228.361962 
L 354.531921 226.842943 
L 358.057293 225.122539 
L 361.498617 223.190717 
L 364.788659 221.083665 
L 367.970959 218.786496 
L 371.004359 216.322276 
L 373.881989 213.703995 
L 376.600438 210.939336 
L 379.147108 208.046568 
L 381.499937 205.066221 
L 383.693122 201.983487 
L 385.730077 198.803132 
L 387.591932 195.568044 
L 389.306649 192.259366 
L 390.872159 188.892979 
L 392.292541 185.478472 
L 393.566332 182.039481 
L 394.724756 178.514498 
L 395.742891 174.941141 
L 396.621356 171.30346 
L 397.345974 167.617378 
L 397.910293 163.862169 
L 398.292336 160.079701 
L 398.487273 156.240637 
L 398.476191 152.389464 
L 398.25066 148.508565 
L 397.794837 144.613394 
L 397.106468 140.768508 
L 396.196352 136.986355 
L 395.072038 133.266075 
L 393.740072 129.615639 
L 392.212644 126.057694 
L 390.499091 122.594177 
L 388.604225 119.225079 
L 386.534143 115.958157 
L 384.299063 112.807398 
L 381.894603 109.765415 
L 379.340546 106.861762 
L 376.63594 104.090879 
L 373.769305 101.449036 
L 370.781354 98.982883 
L 367.651018 96.669567 
L 364.376034 94.520298 
L 360.97851 92.561746 
L 357.480072 90.809367 
L 353.835211 89.245751 
L 350.848084 88.160094 
L 350.848084 88.160094 
" style="fill:none;stroke:#ffffff;stroke-linecap:square;"/>
   </g>
   <g id="patch_3">
    <path d="M 57.6 307.584 
L 57.6 41.472 
" style="fill:none;stroke:#000000;stroke-linecap:square;stroke-linejoin:miter;stroke-width:0.8;"/>
   </g>
   <g id="patch_4">
    <path d="M 414.72 307.584 
L 414.72 41.472 
" style="fill:none;stroke:#000000;stroke-linecap:square;stroke-linejoin:miter;stroke-width:0.8;"/>
   </g>
   <g id="patch_5">
    <path d="M 57.6 307.584 
L 414.72 307.584 
" style="fill:none;stroke:#000000;stroke-linecap:square;stroke-linejoin:miter;stroke-width:0.8;"/>
   </g>
   <g id="patch_6">
    <path d="M 57.6 41.472 
L 414.72 41.472 
" style="fill:none;stroke:#000000;stroke-linecap:square;stroke-linejoin:miter;stroke-width:0.8;"/>
   </g>
  </g>
 </g>
 <defs>
  <clipPath id="pd81accdae3">
   <rect height="266.112" width="357.12" x="57.6" y="41.472"/>
  </clipPath>
 </defs>
</svg>
