<?xml version="1.0" encoding="utf-8" standalone="no"?>
<!DOCTYPE svg PUBLIC "-//W3C//DTD SVG 1.1//EN"
  "http://www.w3.org/Graphics/SVG/1.1/DTD/svg11.dtd">
<!-- Created with matplotlib (https://matplotlib.org/) -->
<svg height="345.6pt" version="1.1" viewBox="0 0 460.8 345.6" width="460.8pt" xmlns="http://www.w3.org/2000/svg" xmlns:xlink="http://www.w3.org/1999/xlink">
 <metadata>
  <rdf:RDF xmlns:cc="http://creativecommons.org/ns#" xmlns:dc="http://purl.org/dc/elements/1.1/" xmlns:rdf="http://www.w3.org/1999/02/22-rdf-syntax-ns#">
   <cc:Work>
    <dc:type rdf:resource="http://purl.org/dc/dcmitype/StillImage"/>
    <dc:date>2021-01-25T13:12:26.781229</dc:date>
    <dc:format>image/svg+xml</dc:format>
    <dc:creator>
     <cc:Agent>
      <dc:title>Matplotlib v3.3.3, https://matplotlib.org/</dc:title>
     </cc:Agent>
    </dc:creator>
   </cc:Work>
  </rdf:RDF>
 </metadata>
 <defs>
  <style type="text/css">*{stroke-linecap:butt;stroke-linejoin:round;}</style>
 </defs>
 <g id="figure_1">
  <g id="patch_1">
   <path d="M 0 345.6 
L 460.8 345.6 
L 460.8 0 
L 0 0 
z
" style="fill:#ffffff;"/>
  </g>
  <g id="axes_1">
   <g id="patch_2">
    <path d="M 57.6 307.584 
L 414.72 307.584 
L 414.72 41.472 
L 57.6 41.472 
z
" style="fill:#7d9051;"/>
   </g>
   <g id="matplotlib.axis_1">
    <g id="xtick_1">
     <g id="line2d_1">
      <defs>
       <path d="M 0 0 
L 0 3.5 
" id="md982cbc462" style="stroke:#000000;stroke-width:0.8;"/>
      </defs>
      <g>
       <use style="stroke:#000000;stroke-width:0.8;" x="113.428771" xlink:href="#md982cbc462" y="307.584"/>
      </g>
     </g>
     <g id="text_1">
      <!-- 0 -->
      <g transform="translate(110.247521 322.182437)scale(0.1 -0.1)">
       <defs>
        <path d="M 31.78125 66.40625 
Q 24.171875 66.40625 20.328125 58.90625 
Q 16.5 51.421875 16.5 36.375 
Q 16.5 21.390625 20.328125 13.890625 
Q 24.171875 6.390625 31.78125 6.390625 
Q 39.453125 6.390625 43.28125 13.890625 
Q 47.125 21.390625 47.125 36.375 
Q 47.125 51.421875 43.28125 58.90625 
Q 39.453125 66.40625 31.78125 66.40625 
z
M 31.78125 74.21875 
Q 44.046875 74.21875 50.515625 64.515625 
Q 56.984375 54.828125 56.984375 36.375 
Q 56.984375 17.96875 50.515625 8.265625 
Q 44.046875 -1.421875 31.78125 -1.421875 
Q 19.53125 -1.421875 13.0625 8.265625 
Q 6.59375 17.96875 6.59375 36.375 
Q 6.59375 54.828125 13.0625 64.515625 
Q 19.53125 74.21875 31.78125 74.21875 
z
" id="DejaVuSans-48"/>
       </defs>
       <use xlink:href="#DejaVuSans-48"/>
      </g>
     </g>
    </g>
    <g id="xtick_2">
     <g id="line2d_2">
      <g>
       <use style="stroke:#000000;stroke-width:0.8;" x="180.446535" xlink:href="#md982cbc462" y="307.584"/>
      </g>
     </g>
     <g id="text_2">
      <!-- 20 -->
      <g transform="translate(174.084035 322.182437)scale(0.1 -0.1)">
       <defs>
        <path d="M 19.1875 8.296875 
L 53.609375 8.296875 
L 53.609375 0 
L 7.328125 0 
L 7.328125 8.296875 
Q 12.9375 14.109375 22.625 23.890625 
Q 32.328125 33.6875 34.8125 36.53125 
Q 39.546875 41.84375 41.421875 45.53125 
Q 43.3125 49.21875 43.3125 52.78125 
Q 43.3125 58.59375 39.234375 62.25 
Q 35.15625 65.921875 28.609375 65.921875 
Q 23.96875 65.921875 18.8125 64.3125 
Q 13.671875 62.703125 7.8125 59.421875 
L 7.8125 69.390625 
Q 13.765625 71.78125 18.9375 73 
Q 24.125 74.21875 28.421875 74.21875 
Q 39.75 74.21875 46.484375 68.546875 
Q 53.21875 62.890625 53.21875 53.421875 
Q 53.21875 48.921875 51.53125 44.890625 
Q 49.859375 40.875 45.40625 35.40625 
Q 44.1875 33.984375 37.640625 27.21875 
Q 31.109375 20.453125 19.1875 8.296875 
z
" id="DejaVuSans-50"/>
       </defs>
       <use xlink:href="#DejaVuSans-50"/>
       <use x="63.623047" xlink:href="#DejaVuSans-48"/>
      </g>
     </g>
    </g>
    <g id="xtick_3">
     <g id="line2d_3">
      <g>
       <use style="stroke:#000000;stroke-width:0.8;" x="247.464299" xlink:href="#md982cbc462" y="307.584"/>
      </g>
     </g>
     <g id="text_3">
      <!-- 40 -->
      <g transform="translate(241.101799 322.182437)scale(0.1 -0.1)">
       <defs>
        <path d="M 37.796875 64.3125 
L 12.890625 25.390625 
L 37.796875 25.390625 
z
M 35.203125 72.90625 
L 47.609375 72.90625 
L 47.609375 25.390625 
L 58.015625 25.390625 
L 58.015625 17.1875 
L 47.609375 17.1875 
L 47.609375 0 
L 37.796875 0 
L 37.796875 17.1875 
L 4.890625 17.1875 
L 4.890625 26.703125 
z
" id="DejaVuSans-52"/>
       </defs>
       <use xlink:href="#DejaVuSans-52"/>
       <use x="63.623047" xlink:href="#DejaVuSans-48"/>
      </g>
     </g>
    </g>
    <g id="xtick_4">
     <g id="line2d_4">
      <g>
       <use style="stroke:#000000;stroke-width:0.8;" x="314.482063" xlink:href="#md982cbc462" y="307.584"/>
      </g>
     </g>
     <g id="text_4">
      <!-- 60 -->
      <g transform="translate(308.119563 322.182437)scale(0.1 -0.1)">
       <defs>
        <path d="M 33.015625 40.375 
Q 26.375 40.375 22.484375 35.828125 
Q 18.609375 31.296875 18.609375 23.390625 
Q 18.609375 15.53125 22.484375 10.953125 
Q 26.375 6.390625 33.015625 6.390625 
Q 39.65625 6.390625 43.53125 10.953125 
Q 47.40625 15.53125 47.40625 23.390625 
Q 47.40625 31.296875 43.53125 35.828125 
Q 39.65625 40.375 33.015625 40.375 
z
M 52.59375 71.296875 
L 52.59375 62.3125 
Q 48.875 64.0625 45.09375 64.984375 
Q 41.3125 65.921875 37.59375 65.921875 
Q 27.828125 65.921875 22.671875 59.328125 
Q 17.53125 52.734375 16.796875 39.40625 
Q 19.671875 43.65625 24.015625 45.921875 
Q 28.375 48.1875 33.59375 48.1875 
Q 44.578125 48.1875 50.953125 41.515625 
Q 57.328125 34.859375 57.328125 23.390625 
Q 57.328125 12.15625 50.6875 5.359375 
Q 44.046875 -1.421875 33.015625 -1.421875 
Q 20.359375 -1.421875 13.671875 8.265625 
Q 6.984375 17.96875 6.984375 36.375 
Q 6.984375 53.65625 15.1875 63.9375 
Q 23.390625 74.21875 37.203125 74.21875 
Q 40.921875 74.21875 44.703125 73.484375 
Q 48.484375 72.75 52.59375 71.296875 
z
" id="DejaVuSans-54"/>
       </defs>
       <use xlink:href="#DejaVuSans-54"/>
       <use x="63.623047" xlink:href="#DejaVuSans-48"/>
      </g>
     </g>
    </g>
    <g id="xtick_5">
     <g id="line2d_5">
      <g>
       <use style="stroke:#000000;stroke-width:0.8;" x="381.499826" xlink:href="#md982cbc462" y="307.584"/>
      </g>
     </g>
     <g id="text_5">
      <!-- 80 -->
      <g transform="translate(375.137326 322.182437)scale(0.1 -0.1)">
       <defs>
        <path d="M 31.78125 34.625 
Q 24.75 34.625 20.71875 30.859375 
Q 16.703125 27.09375 16.703125 20.515625 
Q 16.703125 13.921875 20.71875 10.15625 
Q 24.75 6.390625 31.78125 6.390625 
Q 38.8125 6.390625 42.859375 10.171875 
Q 46.921875 13.96875 46.921875 20.515625 
Q 46.921875 27.09375 42.890625 30.859375 
Q 38.875 34.625 31.78125 34.625 
z
M 21.921875 38.8125 
Q 15.578125 40.375 12.03125 44.71875 
Q 8.5 49.078125 8.5 55.328125 
Q 8.5 64.0625 14.71875 69.140625 
Q 20.953125 74.21875 31.78125 74.21875 
Q 42.671875 74.21875 48.875 69.140625 
Q 55.078125 64.0625 55.078125 55.328125 
Q 55.078125 49.078125 51.53125 44.71875 
Q 48 40.375 41.703125 38.8125 
Q 48.828125 37.15625 52.796875 32.3125 
Q 56.78125 27.484375 56.78125 20.515625 
Q 56.78125 9.90625 50.3125 4.234375 
Q 43.84375 -1.421875 31.78125 -1.421875 
Q 19.734375 -1.421875 13.25 4.234375 
Q 6.78125 9.90625 6.78125 20.515625 
Q 6.78125 27.484375 10.78125 32.3125 
Q 14.796875 37.15625 21.921875 38.8125 
z
M 18.3125 54.390625 
Q 18.3125 48.734375 21.84375 45.5625 
Q 25.390625 42.390625 31.78125 42.390625 
Q 38.140625 42.390625 41.71875 45.5625 
Q 45.3125 48.734375 45.3125 54.390625 
Q 45.3125 60.0625 41.71875 63.234375 
Q 38.140625 66.40625 31.78125 66.40625 
Q 25.390625 66.40625 21.84375 63.234375 
Q 18.3125 60.0625 18.3125 54.390625 
z
" id="DejaVuSans-56"/>
       </defs>
       <use xlink:href="#DejaVuSans-56"/>
       <use x="63.623047" xlink:href="#DejaVuSans-48"/>
      </g>
     </g>
    </g>
   </g>
   <g id="matplotlib.axis_2">
    <g id="ytick_1">
     <g id="line2d_6">
      <defs>
       <path d="M 0 0 
L -3.5 0 
" id="m9b7fe689af" style="stroke:#000000;stroke-width:0.8;"/>
      </defs>
      <g>
       <use style="stroke:#000000;stroke-width:0.8;" x="57.6" xlink:href="#m9b7fe689af" y="281.940844"/>
      </g>
     </g>
     <g id="text_6">
      <!-- 10 -->
      <g transform="translate(37.875 285.740062)scale(0.1 -0.1)">
       <defs>
        <path d="M 12.40625 8.296875 
L 28.515625 8.296875 
L 28.515625 63.921875 
L 10.984375 60.40625 
L 10.984375 69.390625 
L 28.421875 72.90625 
L 38.28125 72.90625 
L 38.28125 8.296875 
L 54.390625 8.296875 
L 54.390625 0 
L 12.40625 0 
z
" id="DejaVuSans-49"/>
       </defs>
       <use xlink:href="#DejaVuSans-49"/>
       <use x="63.623047" xlink:href="#DejaVuSans-48"/>
      </g>
     </g>
    </g>
    <g id="ytick_2">
     <g id="line2d_7">
      <g>
       <use style="stroke:#000000;stroke-width:0.8;" x="57.6" xlink:href="#m9b7fe689af" y="248.431962"/>
      </g>
     </g>
     <g id="text_7">
      <!-- 20 -->
      <g transform="translate(37.875 252.231181)scale(0.1 -0.1)">
       <use xlink:href="#DejaVuSans-50"/>
       <use x="63.623047" xlink:href="#DejaVuSans-48"/>
      </g>
     </g>
    </g>
    <g id="ytick_3">
     <g id="line2d_8">
      <g>
       <use style="stroke:#000000;stroke-width:0.8;" x="57.6" xlink:href="#m9b7fe689af" y="214.92308"/>
      </g>
     </g>
     <g id="text_8">
      <!-- 30 -->
      <g transform="translate(37.875 218.722299)scale(0.1 -0.1)">
       <defs>
        <path d="M 40.578125 39.3125 
Q 47.65625 37.796875 51.625 33 
Q 55.609375 28.21875 55.609375 21.1875 
Q 55.609375 10.40625 48.1875 4.484375 
Q 40.765625 -1.421875 27.09375 -1.421875 
Q 22.515625 -1.421875 17.65625 -0.515625 
Q 12.796875 0.390625 7.625 2.203125 
L 7.625 11.71875 
Q 11.71875 9.328125 16.59375 8.109375 
Q 21.484375 6.890625 26.8125 6.890625 
Q 36.078125 6.890625 40.9375 10.546875 
Q 45.796875 14.203125 45.796875 21.1875 
Q 45.796875 27.640625 41.28125 31.265625 
Q 36.765625 34.90625 28.71875 34.90625 
L 20.21875 34.90625 
L 20.21875 43.015625 
L 29.109375 43.015625 
Q 36.375 43.015625 40.234375 45.921875 
Q 44.09375 48.828125 44.09375 54.296875 
Q 44.09375 59.90625 40.109375 62.90625 
Q 36.140625 65.921875 28.71875 65.921875 
Q 24.65625 65.921875 20.015625 65.03125 
Q 15.375 64.15625 9.8125 62.3125 
L 9.8125 71.09375 
Q 15.4375 72.65625 20.34375 73.4375 
Q 25.25 74.21875 29.59375 74.21875 
Q 40.828125 74.21875 47.359375 69.109375 
Q 53.90625 64.015625 53.90625 55.328125 
Q 53.90625 49.265625 50.4375 45.09375 
Q 46.96875 40.921875 40.578125 39.3125 
z
" id="DejaVuSans-51"/>
       </defs>
       <use xlink:href="#DejaVuSans-51"/>
       <use x="63.623047" xlink:href="#DejaVuSans-48"/>
      </g>
     </g>
    </g>
    <g id="ytick_4">
     <g id="line2d_9">
      <g>
       <use style="stroke:#000000;stroke-width:0.8;" x="57.6" xlink:href="#m9b7fe689af" y="181.414198"/>
      </g>
     </g>
     <g id="text_9">
      <!-- 40 -->
      <g transform="translate(37.875 185.213417)scale(0.1 -0.1)">
       <use xlink:href="#DejaVuSans-52"/>
       <use x="63.623047" xlink:href="#DejaVuSans-48"/>
      </g>
     </g>
    </g>
    <g id="ytick_5">
     <g id="line2d_10">
      <g>
       <use style="stroke:#000000;stroke-width:0.8;" x="57.6" xlink:href="#m9b7fe689af" y="147.905316"/>
      </g>
     </g>
     <g id="text_10">
      <!-- 50 -->
      <g transform="translate(37.875 151.704535)scale(0.1 -0.1)">
       <defs>
        <path d="M 10.796875 72.90625 
L 49.515625 72.90625 
L 49.515625 64.59375 
L 19.828125 64.59375 
L 19.828125 46.734375 
Q 21.96875 47.46875 24.109375 47.828125 
Q 26.265625 48.1875 28.421875 48.1875 
Q 40.625 48.1875 47.75 41.5 
Q 54.890625 34.8125 54.890625 23.390625 
Q 54.890625 11.625 47.5625 5.09375 
Q 40.234375 -1.421875 26.90625 -1.421875 
Q 22.3125 -1.421875 17.546875 -0.640625 
Q 12.796875 0.140625 7.71875 1.703125 
L 7.71875 11.625 
Q 12.109375 9.234375 16.796875 8.0625 
Q 21.484375 6.890625 26.703125 6.890625 
Q 35.15625 6.890625 40.078125 11.328125 
Q 45.015625 15.765625 45.015625 23.390625 
Q 45.015625 31 40.078125 35.4375 
Q 35.15625 39.890625 26.703125 39.890625 
Q 22.75 39.890625 18.8125 39.015625 
Q 14.890625 38.140625 10.796875 36.28125 
z
" id="DejaVuSans-53"/>
       </defs>
       <use xlink:href="#DejaVuSans-53"/>
       <use x="63.623047" xlink:href="#DejaVuSans-48"/>
      </g>
     </g>
    </g>
    <g id="ytick_6">
     <g id="line2d_11">
      <g>
       <use style="stroke:#000000;stroke-width:0.8;" x="57.6" xlink:href="#m9b7fe689af" y="114.396434"/>
      </g>
     </g>
     <g id="text_11">
      <!-- 60 -->
      <g transform="translate(37.875 118.195653)scale(0.1 -0.1)">
       <use xlink:href="#DejaVuSans-54"/>
       <use x="63.623047" xlink:href="#DejaVuSans-48"/>
      </g>
     </g>
    </g>
    <g id="ytick_7">
     <g id="line2d_12">
      <g>
       <use style="stroke:#000000;stroke-width:0.8;" x="57.6" xlink:href="#m9b7fe689af" y="80.887553"/>
      </g>
     </g>
     <g id="text_12">
      <!-- 70 -->
      <g transform="translate(37.875 84.686771)scale(0.1 -0.1)">
       <defs>
        <path d="M 8.203125 72.90625 
L 55.078125 72.90625 
L 55.078125 68.703125 
L 28.609375 0 
L 18.3125 0 
L 43.21875 64.59375 
L 8.203125 64.59375 
z
" id="DejaVuSans-55"/>
       </defs>
       <use xlink:href="#DejaVuSans-55"/>
       <use x="63.623047" xlink:href="#DejaVuSans-48"/>
      </g>
     </g>
    </g>
    <g id="ytick_8">
     <g id="line2d_13">
      <g>
       <use style="stroke:#000000;stroke-width:0.8;" x="57.6" xlink:href="#m9b7fe689af" y="47.378671"/>
      </g>
     </g>
     <g id="text_13">
      <!-- 80 -->
      <g transform="translate(37.875 51.177889)scale(0.1 -0.1)">
       <use xlink:href="#DejaVuSans-56"/>
       <use x="63.623047" xlink:href="#DejaVuSans-48"/>
      </g>
     </g>
    </g>
   </g>
   <g id="line2d_14">
    <path clip-path="url(#p121023d792)" d="M 146.937653 165.504181 
L 146.495336 152.375401 
L 146.428318 145.623361 
L 146.562354 138.811006 
L 146.96446 131.995299 
L 147.711708 125.223154 
L 148.237798 121.868915 
L 148.877818 118.548185 
L 149.64182 115.264314 
L 150.536507 112.020655 
L 151.571932 108.830609 
L 152.754795 105.694178 
L 154.098501 102.624764 
L 155.609752 99.619017 
L 157.2986 96.693692 
L 159.151641 93.85549 
L 161.168875 91.114463 
L 163.333549 88.484016 
L 165.645662 85.977552 
L 168.08846 83.601772 
L 170.658591 81.37008 
L 173.346003 79.295881 
L 176.143995 77.389225 
L 179.039162 75.663518 
L 182.028154 74.12546 
L 185.100919 72.765 
L 188.244052 71.578785 
L 191.450852 70.550062 
L 194.707915 69.675481 
L 198.011891 68.941636 
L 201.349376 68.338476 
L 204.710317 67.859299 
L 211.469058 67.22263 
L 218.217747 66.971314 
L 224.939628 67.118753 
L 231.62465 67.698457 
L 234.948731 68.160879 
L 238.259409 68.743934 
L 241.556683 69.44762 
L 244.837203 70.281991 
L 248.097617 71.250398 
L 251.327873 72.349489 
L 254.511217 73.585967 
L 257.634245 74.959831 
L 260.683553 76.474433 
L 263.645738 78.129772 
L 266.500695 79.929198 
L 269.241721 81.876065 
L 271.852063 83.97037 
L 274.314966 86.215465 
L 276.623728 88.61135 
L 278.785051 91.14127 
L 280.812338 93.795174 
L 282.715643 96.552955 
L 284.51507 99.40121 
L 287.8358 105.312177 
L 290.881757 111.397389 
L 295.140736 120.612332 
L 300.525613 132.883285 
L 314.988047 166.733957 
L 317.370528 173.003469 
L 319.548606 179.350051 
L 321.468664 185.780405 
L 323.097196 192.291181 
L 324.387288 198.879027 
L 325.305431 205.547295 
L 325.613713 208.908236 
L 325.811416 212.289282 
L 325.891837 215.67703 
L 325.851626 219.068129 
L 325.680731 222.452526 
L 325.372449 225.823519 
L 324.920079 229.171057 
L 324.313569 232.488436 
L 323.552917 235.765604 
L 322.624721 238.99251 
L 321.522279 242.165801 
L 320.24559 245.278776 
L 318.791305 248.314681 
L 317.172826 251.273515 
L 315.390153 254.148577 
L 313.45334 256.926463 
L 311.369087 259.607174 
L 309.144098 262.177305 
L 306.778371 264.630155 
L 304.28531 266.959023 
L 301.668266 269.160556 
L 298.930591 271.221352 
L 296.089037 273.13471 
L 293.150308 274.887224 
L 290.121105 276.475545 
L 287.018183 277.886269 
L 283.844892 279.109343 
L 280.617987 280.138066 
L 277.340818 280.959033 
L 274.03014 281.562193 
L 270.692656 281.940844 
L 267.335066 282.088283 
L 263.974125 282.007861 
L 260.613184 281.712983 
L 257.268998 281.217052 
L 253.944917 280.523418 
L 250.654344 279.645485 
L 247.407334 278.593306 
L 244.213937 277.380285 
L 241.080857 276.009772 
L 238.018145 274.498521 
L 235.039205 272.853235 
L 232.147389 271.080615 
L 229.346046 269.177311 
L 226.645231 267.146672 
L 224.044941 264.998753 
L 221.54853 262.726851 
L 219.169399 260.337668 
L 216.904199 257.834554 
L 214.762981 255.220861 
L 212.749097 252.493238 
L 210.865898 249.661738 
L 209.126787 246.733062 
L 207.538466 243.717262 
L 206.107637 240.621041 
L 204.851054 237.457803 
L 203.772068 234.237599 
L 202.880732 230.963782 
L 202.190449 227.653104 
L 201.70457 224.312269 
L 201.436499 220.951328 
L 201.392937 217.580334 
L 201.567183 214.212692 
L 201.959237 210.851751 
L 202.555695 207.517617 
L 203.353207 204.213641 
L 204.34507 200.956578 
L 205.524582 197.753129 
L 206.885043 194.616698 
L 208.423101 191.560688 
L 210.125352 188.591801 
L 211.991797 185.720089 
L 214.015733 182.958958 
L 216.187109 180.321809 
L 218.502572 177.815344 
L 220.955422 175.452968 
L 223.535606 173.244733 
L 226.243124 171.204042 
L 229.064572 169.337597 
L 231.996599 167.658802 
L 235.035855 166.17771 
L 235.035855 166.17771 
" style="fill:none;stroke:#fea952;stroke-linecap:square;"/>
   </g>
   <g id="line2d_15">
    <path clip-path="url(#p121023d792)" d="M 133.544567 166.033772 
L 133.093485 152.588976 
L 133.025553 145.47811 
L 133.173676 138.179712 
L 133.621937 130.717683 
L 133.989448 126.938343 
L 134.470037 123.146289 
L 135.076466 119.332271 
L 135.822923 115.510924 
L 136.720776 111.700349 
L 137.787698 107.882648 
L 139.030626 104.100822 
L 140.476263 100.318969 
L 142.123379 96.603828 
L 144.001781 92.917508 
L 146.075334 89.366105 
L 148.35639 85.910819 
L 150.819224 82.597425 
L 153.481543 79.395936 
L 156.300641 76.36892 
L 159.300523 73.48113 
L 162.469048 70.759396 
L 165.79817 68.219535 
L 169.281267 65.875833 
L 172.906357 63.7453 
L 176.601823 61.869435 
L 180.368256 60.224779 
L 184.149781 58.815863 
L 187.974881 57.605069 
L 191.801682 56.590794 
L 195.628176 55.751749 
L 199.457531 55.069107 
L 203.25626 54.53485 
L 210.778523 53.836877 
L 218.297767 53.568 
L 222.093849 53.597514 
L 225.876519 53.747984 
L 229.665923 54.020864 
L 233.471473 54.422747 
L 237.273499 54.960475 
L 241.056925 55.635573 
L 244.860569 56.457641 
L 248.653537 57.433224 
L 252.415089 58.561243 
L 256.180863 59.855342 
L 259.908463 61.317106 
L 263.596815 62.955541 
L 267.222092 64.773889 
L 270.792623 66.79058 
L 274.262259 69.001557 
L 277.629576 71.421443 
L 280.881676 74.064749 
L 283.966568 76.91483 
L 286.814742 79.905119 
L 289.436466 83.004773 
L 291.843721 86.181777 
L 294.047247 89.394047 
L 296.099989 92.659928 
L 299.765674 99.202075 
L 303.002043 105.674288 
L 307.379672 115.147567 
L 312.836357 127.582265 
L 326.168594 158.615349 
L 328.763273 165.186339 
L 331.208127 171.936165 
L 333.428623 178.860659 
L 335.365637 185.933997 
L 336.975473 193.180882 
L 338.201135 200.576705 
L 338.652952 204.322996 
L 338.99441 208.125816 
L 339.211193 211.971186 
L 339.294447 215.835954 
L 339.238124 219.744081 
L 339.028584 223.673204 
L 338.655269 227.618495 
L 338.105081 231.581648 
L 337.370037 235.518925 
L 336.434172 239.470804 
L 335.285956 243.391186 
L 333.923426 247.25174 
L 332.333779 251.069365 
L 330.550582 254.746992 
L 328.564304 258.336762 
L 326.385084 261.814524 
L 324.034888 265.153617 
L 321.5028 268.380036 
L 318.791628 271.482163 
L 315.92808 274.424952 
L 312.913759 277.215976 
L 309.72926 279.869226 
L 306.4169 282.339374 
L 302.954198 284.646651 
L 299.374557 286.757943 
L 295.668528 288.677239 
L 291.838627 290.393009 
L 287.916013 291.879668 
L 283.875081 293.139856 
L 279.743216 294.145531 
L 275.541131 294.880306 
L 271.280668 295.331492 
L 267.014434 295.488 
L 262.802641 295.360122 
L 258.646986 294.971539 
L 254.531061 294.337987 
L 250.48968 293.473961 
L 246.522503 292.396294 
L 242.647762 291.123339 
L 238.84223 289.660349 
L 235.149813 288.02967 
L 231.53796 286.231484 
L 228.034396 284.28074 
L 224.61479 282.167327 
L 221.29116 279.890575 
L 218.109101 277.480583 
L 215.023439 274.911761 
L 212.050827 272.184592 
L 209.231131 269.331335 
L 206.535753 266.328703 
L 203.980036 263.182225 
L 201.588546 259.915995 
L 199.341151 256.50538 
L 197.267455 252.978977 
L 195.371284 249.339975 
L 193.650955 245.569406 
L 192.141955 241.716211 
L 190.839279 237.758707 
L 189.759358 233.699615 
L 188.92644 229.582173 
L 188.34345 225.377961 
L 188.034065 221.12452 
L 188.00729 216.887744 
L 188.253903 212.659697 
L 188.765149 208.491401 
L 189.52634 204.3726 
L 190.531017 200.308942 
L 191.76704 196.325337 
L 193.227995 192.419353 
L 194.912336 188.59096 
L 196.795262 184.89371 
L 198.886929 181.287481 
L 201.181437 177.795991 
L 203.668366 174.439144 
L 206.341665 171.226619 
L 209.204549 168.161226 
L 212.240132 165.2697 
L 215.468063 162.540997 
L 218.848048 160.02513 
L 222.404529 157.705785 
L 226.124876 155.609815 
L 229.164132 154.128722 
L 229.164132 154.128722 
" style="fill:none;stroke:#ffffff;stroke-linecap:square;"/>
   </g>
   <g id="line2d_16">
    <path clip-path="url(#p121023d792)" d="M 160.33074 164.97459 
L 159.897187 152.161826 
L 159.831084 145.768613 
L 159.951032 139.442299 
L 160.306984 133.272915 
L 160.95338 127.30002 
L 161.932712 121.585446 
L 163.285316 116.158661 
L 164.113237 113.560396 
L 165.033327 111.069387 
L 166.073623 108.645701 
L 167.217723 106.320527 
L 168.521865 104.021279 
L 169.946891 101.800161 
L 171.518527 99.631501 
L 173.185555 97.572096 
L 174.990683 95.586184 
L 176.876396 93.722414 
L 178.848134 91.980764 
L 180.893836 90.372227 
L 183.006723 88.902617 
L 185.171967 87.581736 
L 187.454486 86.381485 
L 189.833582 85.30522 
L 192.338323 84.341707 
L 194.926822 83.495056 
L 197.614149 82.760168 
L 200.395606 82.131524 
L 203.24122 81.607845 
L 209.147407 80.852322 
L 215.153116 80.448435 
L 221.076929 80.385324 
L 226.908408 80.685766 
L 232.623964 81.361284 
L 238.252797 82.437599 
L 241.020868 83.130758 
L 246.474883 84.843637 
L 249.113971 85.854829 
L 251.671674 86.964121 
L 254.145013 88.174977 
L 256.498853 89.468963 
L 258.73913 90.85684 
L 260.853867 92.330687 
L 262.82245 93.87599 
L 264.663364 95.516099 
L 266.432714 97.317581 
L 268.133636 99.277768 
L 269.780955 101.408571 
L 271.384038 103.711863 
L 272.930151 106.142491 
L 275.905926 111.422278 
L 278.761471 117.120491 
L 282.901799 126.077097 
L 288.214869 138.184304 
L 302.492106 171.582328 
L 304.734571 177.474242 
L 306.74853 183.326644 
L 308.507298 189.194815 
L 309.980301 195.048406 
L 311.138363 200.909105 
L 311.95791 206.771594 
L 312.411638 212.607377 
L 312.465129 218.392177 
L 312.332878 221.231847 
L 312.08963 224.028544 
L 311.735077 226.760465 
L 311.2571 229.457947 
L 310.671662 232.060405 
L 309.963486 234.593834 
L 309.121131 237.079862 
L 308.157402 239.488187 
L 307.032028 241.882369 
L 305.781348 244.210268 
L 304.395223 246.482631 
L 302.871792 248.69931 
L 301.235375 250.834312 
L 299.496568 252.872447 
L 297.628661 254.835359 
L 295.656861 256.702069 
L 293.607272 258.451886 
L 291.444281 260.103331 
L 289.223877 261.622768 
L 286.92606 263.016506 
L 284.573683 264.273851 
L 282.197739 265.379529 
L 279.773771 266.339018 
L 277.360892 267.136275 
L 274.93842 267.772536 
L 272.51915 268.24408 
L 270.104643 268.550195 
L 267.655697 268.688566 
L 265.145609 268.655601 
L 262.579383 268.454428 
L 260.006935 268.096117 
L 257.400153 267.572875 
L 254.786185 266.894677 
L 252.166905 266.063274 
L 249.585645 265.10022 
L 247.011901 263.989874 
L 244.498331 262.765558 
L 242.044015 261.42573 
L 239.679988 259.993903 
L 237.400933 258.464046 
L 235.18136 256.812762 
L 233.066444 255.085745 
L 231.046233 253.26911 
L 229.107667 251.344 
L 227.272644 249.340405 
L 225.545926 247.259497 
L 223.909648 245.070481 
L 222.390645 242.818095 
L 220.98612 240.487146 
L 219.705648 238.094549 
L 218.564319 235.672677 
L 217.560153 233.199395 
L 216.704857 230.716492 
L 216.002105 228.227949 
L 215.454457 225.724036 
L 215.06569 223.246576 
L 214.838933 220.778135 
L 214.778584 218.272925 
L 214.880464 215.765686 
L 215.153326 213.2121 
L 215.585051 210.662634 
L 216.175396 208.118341 
L 216.923099 205.587819 
L 217.82117 203.086905 
L 218.85775 200.642435 
L 220.050939 198.227665 
L 221.363775 195.89612 
L 222.802157 193.644188 
L 224.3631 191.478772 
L 226.032552 189.416998 
L 227.800596 187.469462 
L 229.670713 185.636236 
L 231.60315 183.948469 
L 233.6382 182.382954 
L 235.724615 180.969409 
L 237.868322 179.70779 
L 240.907577 178.226697 
L 240.907577 178.226697 
" style="fill:none;stroke:#ffffff;stroke-linecap:square;"/>
   </g>
   <g id="patch_3">
    <path d="M 57.6 307.584 
L 57.6 41.472 
" style="fill:none;stroke:#000000;stroke-linecap:square;stroke-linejoin:miter;stroke-width:0.8;"/>
   </g>
   <g id="patch_4">
    <path d="M 414.72 307.584 
L 414.72 41.472 
" style="fill:none;stroke:#000000;stroke-linecap:square;stroke-linejoin:miter;stroke-width:0.8;"/>
   </g>
   <g id="patch_5">
    <path d="M 57.6 307.584 
L 414.72 307.584 
" style="fill:none;stroke:#000000;stroke-linecap:square;stroke-linejoin:miter;stroke-width:0.8;"/>
   </g>
   <g id="patch_6">
    <path d="M 57.6 41.472 
L 414.72 41.472 
" style="fill:none;stroke:#000000;stroke-linecap:square;stroke-linejoin:miter;stroke-width:0.8;"/>
   </g>
  </g>
 </g>
 <defs>
  <clipPath id="p121023d792">
   <rect height="266.112" width="357.12" x="57.6" y="41.472"/>
  </clipPath>
 </defs>
</svg>
