<?xml version="1.0" encoding="utf-8" standalone="no"?>
<!DOCTYPE svg PUBLIC "-//W3C//DTD SVG 1.1//EN"
  "http://www.w3.org/Graphics/SVG/1.1/DTD/svg11.dtd">
<!-- Created with matplotlib (https://matplotlib.org/) -->
<svg height="345.6pt" version="1.1" viewBox="0 0 460.8 345.6" width="460.8pt" xmlns="http://www.w3.org/2000/svg" xmlns:xlink="http://www.w3.org/1999/xlink">
 <metadata>
  <rdf:RDF xmlns:cc="http://creativecommons.org/ns#" xmlns:dc="http://purl.org/dc/elements/1.1/" xmlns:rdf="http://www.w3.org/1999/02/22-rdf-syntax-ns#">
   <cc:Work>
    <dc:type rdf:resource="http://purl.org/dc/dcmitype/StillImage"/>
    <dc:date>2021-01-22T11:07:31.698111</dc:date>
    <dc:format>image/svg+xml</dc:format>
    <dc:creator>
     <cc:Agent>
      <dc:title>Matplotlib v3.3.3, https://matplotlib.org/</dc:title>
     </cc:Agent>
    </dc:creator>
   </cc:Work>
  </rdf:RDF>
 </metadata>
 <defs>
  <style type="text/css">*{stroke-linecap:butt;stroke-linejoin:round;}</style>
 </defs>
 <g id="figure_1">
  <g id="patch_1">
   <path d="M 0 345.6 
L 460.8 345.6 
L 460.8 0 
L 0 0 
z
" style="fill:#ffffff;"/>
  </g>
  <g id="axes_1">
   <g id="patch_2">
    <path d="M 57.6 307.584 
L 414.72 307.584 
L 414.72 41.472 
L 57.6 41.472 
z
" style="fill:#7d9051;"/>
   </g>
   <g id="matplotlib.axis_1">
    <g id="xtick_1">
     <g id="line2d_1">
      <defs>
       <path d="M 0 0 
L 0 3.5 
" id="ma95d676923" style="stroke:#000000;stroke-width:0.8;"/>
      </defs>
      <g>
       <use style="stroke:#000000;stroke-width:0.8;" x="58.223209" xlink:href="#ma95d676923" y="307.584"/>
      </g>
     </g>
     <g id="text_1">
      <!-- 0 -->
      <g transform="translate(55.041959 322.182437)scale(0.1 -0.1)">
       <defs>
        <path d="M 31.78125 66.40625 
Q 24.171875 66.40625 20.328125 58.90625 
Q 16.5 51.421875 16.5 36.375 
Q 16.5 21.390625 20.328125 13.890625 
Q 24.171875 6.390625 31.78125 6.390625 
Q 39.453125 6.390625 43.28125 13.890625 
Q 47.125 21.390625 47.125 36.375 
Q 47.125 51.421875 43.28125 58.90625 
Q 39.453125 66.40625 31.78125 66.40625 
z
M 31.78125 74.21875 
Q 44.046875 74.21875 50.515625 64.515625 
Q 56.984375 54.828125 56.984375 36.375 
Q 56.984375 17.96875 50.515625 8.265625 
Q 44.046875 -1.421875 31.78125 -1.421875 
Q 19.53125 -1.421875 13.0625 8.265625 
Q 6.59375 17.96875 6.59375 36.375 
Q 6.59375 54.828125 13.0625 64.515625 
Q 19.53125 74.21875 31.78125 74.21875 
z
" id="DejaVuSans-48"/>
       </defs>
       <use xlink:href="#DejaVuSans-48"/>
      </g>
     </g>
    </g>
    <g id="xtick_2">
     <g id="line2d_2">
      <g>
       <use style="stroke:#000000;stroke-width:0.8;" x="113.320194" xlink:href="#ma95d676923" y="307.584"/>
      </g>
     </g>
     <g id="text_2">
      <!-- 20 -->
      <g transform="translate(106.957694 322.182437)scale(0.1 -0.1)">
       <defs>
        <path d="M 19.1875 8.296875 
L 53.609375 8.296875 
L 53.609375 0 
L 7.328125 0 
L 7.328125 8.296875 
Q 12.9375 14.109375 22.625 23.890625 
Q 32.328125 33.6875 34.8125 36.53125 
Q 39.546875 41.84375 41.421875 45.53125 
Q 43.3125 49.21875 43.3125 52.78125 
Q 43.3125 58.59375 39.234375 62.25 
Q 35.15625 65.921875 28.609375 65.921875 
Q 23.96875 65.921875 18.8125 64.3125 
Q 13.671875 62.703125 7.8125 59.421875 
L 7.8125 69.390625 
Q 13.765625 71.78125 18.9375 73 
Q 24.125 74.21875 28.421875 74.21875 
Q 39.75 74.21875 46.484375 68.546875 
Q 53.21875 62.890625 53.21875 53.421875 
Q 53.21875 48.921875 51.53125 44.890625 
Q 49.859375 40.875 45.40625 35.40625 
Q 44.1875 33.984375 37.640625 27.21875 
Q 31.109375 20.453125 19.1875 8.296875 
z
" id="DejaVuSans-50"/>
       </defs>
       <use xlink:href="#DejaVuSans-50"/>
       <use x="63.623047" xlink:href="#DejaVuSans-48"/>
      </g>
     </g>
    </g>
    <g id="xtick_3">
     <g id="line2d_3">
      <g>
       <use style="stroke:#000000;stroke-width:0.8;" x="168.417179" xlink:href="#ma95d676923" y="307.584"/>
      </g>
     </g>
     <g id="text_3">
      <!-- 40 -->
      <g transform="translate(162.054679 322.182437)scale(0.1 -0.1)">
       <defs>
        <path d="M 37.796875 64.3125 
L 12.890625 25.390625 
L 37.796875 25.390625 
z
M 35.203125 72.90625 
L 47.609375 72.90625 
L 47.609375 25.390625 
L 58.015625 25.390625 
L 58.015625 17.1875 
L 47.609375 17.1875 
L 47.609375 0 
L 37.796875 0 
L 37.796875 17.1875 
L 4.890625 17.1875 
L 4.890625 26.703125 
z
" id="DejaVuSans-52"/>
       </defs>
       <use xlink:href="#DejaVuSans-52"/>
       <use x="63.623047" xlink:href="#DejaVuSans-48"/>
      </g>
     </g>
    </g>
    <g id="xtick_4">
     <g id="line2d_4">
      <g>
       <use style="stroke:#000000;stroke-width:0.8;" x="223.514164" xlink:href="#ma95d676923" y="307.584"/>
      </g>
     </g>
     <g id="text_4">
      <!-- 60 -->
      <g transform="translate(217.151664 322.182437)scale(0.1 -0.1)">
       <defs>
        <path d="M 33.015625 40.375 
Q 26.375 40.375 22.484375 35.828125 
Q 18.609375 31.296875 18.609375 23.390625 
Q 18.609375 15.53125 22.484375 10.953125 
Q 26.375 6.390625 33.015625 6.390625 
Q 39.65625 6.390625 43.53125 10.953125 
Q 47.40625 15.53125 47.40625 23.390625 
Q 47.40625 31.296875 43.53125 35.828125 
Q 39.65625 40.375 33.015625 40.375 
z
M 52.59375 71.296875 
L 52.59375 62.3125 
Q 48.875 64.0625 45.09375 64.984375 
Q 41.3125 65.921875 37.59375 65.921875 
Q 27.828125 65.921875 22.671875 59.328125 
Q 17.53125 52.734375 16.796875 39.40625 
Q 19.671875 43.65625 24.015625 45.921875 
Q 28.375 48.1875 33.59375 48.1875 
Q 44.578125 48.1875 50.953125 41.515625 
Q 57.328125 34.859375 57.328125 23.390625 
Q 57.328125 12.15625 50.6875 5.359375 
Q 44.046875 -1.421875 33.015625 -1.421875 
Q 20.359375 -1.421875 13.671875 8.265625 
Q 6.984375 17.96875 6.984375 36.375 
Q 6.984375 53.65625 15.1875 63.9375 
Q 23.390625 74.21875 37.203125 74.21875 
Q 40.921875 74.21875 44.703125 73.484375 
Q 48.484375 72.75 52.59375 71.296875 
z
" id="DejaVuSans-54"/>
       </defs>
       <use xlink:href="#DejaVuSans-54"/>
       <use x="63.623047" xlink:href="#DejaVuSans-48"/>
      </g>
     </g>
    </g>
    <g id="xtick_5">
     <g id="line2d_5">
      <g>
       <use style="stroke:#000000;stroke-width:0.8;" x="278.611149" xlink:href="#ma95d676923" y="307.584"/>
      </g>
     </g>
     <g id="text_5">
      <!-- 80 -->
      <g transform="translate(272.248649 322.182437)scale(0.1 -0.1)">
       <defs>
        <path d="M 31.78125 34.625 
Q 24.75 34.625 20.71875 30.859375 
Q 16.703125 27.09375 16.703125 20.515625 
Q 16.703125 13.921875 20.71875 10.15625 
Q 24.75 6.390625 31.78125 6.390625 
Q 38.8125 6.390625 42.859375 10.171875 
Q 46.921875 13.96875 46.921875 20.515625 
Q 46.921875 27.09375 42.890625 30.859375 
Q 38.875 34.625 31.78125 34.625 
z
M 21.921875 38.8125 
Q 15.578125 40.375 12.03125 44.71875 
Q 8.5 49.078125 8.5 55.328125 
Q 8.5 64.0625 14.71875 69.140625 
Q 20.953125 74.21875 31.78125 74.21875 
Q 42.671875 74.21875 48.875 69.140625 
Q 55.078125 64.0625 55.078125 55.328125 
Q 55.078125 49.078125 51.53125 44.71875 
Q 48 40.375 41.703125 38.8125 
Q 48.828125 37.15625 52.796875 32.3125 
Q 56.78125 27.484375 56.78125 20.515625 
Q 56.78125 9.90625 50.3125 4.234375 
Q 43.84375 -1.421875 31.78125 -1.421875 
Q 19.734375 -1.421875 13.25 4.234375 
Q 6.78125 9.90625 6.78125 20.515625 
Q 6.78125 27.484375 10.78125 32.3125 
Q 14.796875 37.15625 21.921875 38.8125 
z
M 18.3125 54.390625 
Q 18.3125 48.734375 21.84375 45.5625 
Q 25.390625 42.390625 31.78125 42.390625 
Q 38.140625 42.390625 41.71875 45.5625 
Q 45.3125 48.734375 45.3125 54.390625 
Q 45.3125 60.0625 41.71875 63.234375 
Q 38.140625 66.40625 31.78125 66.40625 
Q 25.390625 66.40625 21.84375 63.234375 
Q 18.3125 60.0625 18.3125 54.390625 
z
" id="DejaVuSans-56"/>
       </defs>
       <use xlink:href="#DejaVuSans-56"/>
       <use x="63.623047" xlink:href="#DejaVuSans-48"/>
      </g>
     </g>
    </g>
    <g id="xtick_6">
     <g id="line2d_6">
      <g>
       <use style="stroke:#000000;stroke-width:0.8;" x="333.708134" xlink:href="#ma95d676923" y="307.584"/>
      </g>
     </g>
     <g id="text_6">
      <!-- 100 -->
      <g transform="translate(324.164384 322.182437)scale(0.1 -0.1)">
       <defs>
        <path d="M 12.40625 8.296875 
L 28.515625 8.296875 
L 28.515625 63.921875 
L 10.984375 60.40625 
L 10.984375 69.390625 
L 28.421875 72.90625 
L 38.28125 72.90625 
L 38.28125 8.296875 
L 54.390625 8.296875 
L 54.390625 0 
L 12.40625 0 
z
" id="DejaVuSans-49"/>
       </defs>
       <use xlink:href="#DejaVuSans-49"/>
       <use x="63.623047" xlink:href="#DejaVuSans-48"/>
       <use x="127.246094" xlink:href="#DejaVuSans-48"/>
      </g>
     </g>
    </g>
    <g id="xtick_7">
     <g id="line2d_7">
      <g>
       <use style="stroke:#000000;stroke-width:0.8;" x="388.805119" xlink:href="#ma95d676923" y="307.584"/>
      </g>
     </g>
     <g id="text_7">
      <!-- 120 -->
      <g transform="translate(379.261369 322.182437)scale(0.1 -0.1)">
       <use xlink:href="#DejaVuSans-49"/>
       <use x="63.623047" xlink:href="#DejaVuSans-50"/>
       <use x="127.246094" xlink:href="#DejaVuSans-48"/>
      </g>
     </g>
    </g>
   </g>
   <g id="matplotlib.axis_2">
    <g id="ytick_1">
     <g id="line2d_8">
      <defs>
       <path d="M 0 0 
L -3.5 0 
" id="mf73e6388ea" style="stroke:#000000;stroke-width:0.8;"/>
      </defs>
      <g>
       <use style="stroke:#000000;stroke-width:0.8;" x="57.6" xlink:href="#mf73e6388ea" y="283.562363"/>
      </g>
     </g>
     <g id="text_8">
      <!-- 0 -->
      <g transform="translate(44.2375 287.361581)scale(0.1 -0.1)">
       <use xlink:href="#DejaVuSans-48"/>
      </g>
     </g>
    </g>
    <g id="ytick_2">
     <g id="line2d_9">
      <g>
       <use style="stroke:#000000;stroke-width:0.8;" x="57.6" xlink:href="#mf73e6388ea" y="228.465378"/>
      </g>
     </g>
     <g id="text_9">
      <!-- 20 -->
      <g transform="translate(37.875 232.264596)scale(0.1 -0.1)">
       <use xlink:href="#DejaVuSans-50"/>
       <use x="63.623047" xlink:href="#DejaVuSans-48"/>
      </g>
     </g>
    </g>
    <g id="ytick_3">
     <g id="line2d_10">
      <g>
       <use style="stroke:#000000;stroke-width:0.8;" x="57.6" xlink:href="#mf73e6388ea" y="173.368393"/>
      </g>
     </g>
     <g id="text_10">
      <!-- 40 -->
      <g transform="translate(37.875 177.167611)scale(0.1 -0.1)">
       <use xlink:href="#DejaVuSans-52"/>
       <use x="63.623047" xlink:href="#DejaVuSans-48"/>
      </g>
     </g>
    </g>
    <g id="ytick_4">
     <g id="line2d_11">
      <g>
       <use style="stroke:#000000;stroke-width:0.8;" x="57.6" xlink:href="#mf73e6388ea" y="118.271408"/>
      </g>
     </g>
     <g id="text_11">
      <!-- 60 -->
      <g transform="translate(37.875 122.070626)scale(0.1 -0.1)">
       <use xlink:href="#DejaVuSans-54"/>
       <use x="63.623047" xlink:href="#DejaVuSans-48"/>
      </g>
     </g>
    </g>
    <g id="ytick_5">
     <g id="line2d_12">
      <g>
       <use style="stroke:#000000;stroke-width:0.8;" x="57.6" xlink:href="#mf73e6388ea" y="63.174423"/>
      </g>
     </g>
     <g id="text_12">
      <!-- 80 -->
      <g transform="translate(37.875 66.973641)scale(0.1 -0.1)">
       <use xlink:href="#DejaVuSans-56"/>
       <use x="63.623047" xlink:href="#DejaVuSans-48"/>
      </g>
     </g>
    </g>
   </g>
   <g id="line2d_13">
    <path clip-path="url(#p9ef6233e9d)" d="M 397.419533 256.01387 
L 389.460773 255.19017 
L 381.179697 254.079966 
L 375.590107 253.096485 
L 370.028067 251.856803 
L 364.559691 250.308577 
L 359.256606 248.399467 
L 356.686332 247.294772 
L 354.184929 246.079884 
L 351.755152 244.746537 
L 349.41353 243.291976 
L 347.160063 241.707938 
L 345.011281 239.988912 
L 342.967183 238.129389 
L 341.033278 236.143143 
L 339.209568 234.038438 
L 337.496052 231.829049 
L 335.89273 229.525995 
L 334.399601 227.13754 
L 333.019422 224.680215 
L 331.752191 222.162283 
L 330.597909 219.594763 
L 329.556576 216.991431 
L 327.798983 211.704875 
L 326.418803 206.332919 
L 325.338902 200.894846 
L 324.484899 195.409942 
L 323.465605 187.139884 
L 321.851263 173.368393 
L 321.019299 167.897262 
L 319.969701 162.464699 
L 318.652883 157.076214 
L 317.0716 151.753845 
L 315.234115 146.508612 
L 313.156959 141.35429 
L 310.848395 136.304651 
L 308.316689 131.376226 
L 305.55082 126.577278 
L 302.53426 121.924338 
L 299.258744 117.425669 
L 295.707744 113.092291 
L 291.872994 108.962772 
L 289.848179 107.004074 
L 287.751739 105.130777 
L 285.580918 103.356654 
L 283.338471 101.69548 
L 281.021642 100.158274 
L 278.633188 98.75881 
L 276.170353 97.510864 
L 273.633137 96.425453 
L 271.027049 95.505333 
L 268.360355 94.74224 
L 265.644074 94.136173 
L 262.889225 93.673359 
L 260.101317 93.351041 
L 257.291371 93.158202 
L 254.47316 93.092086 
L 248.839493 93.306964 
L 243.271943 93.940579 
L 237.798058 94.946099 
L 232.409572 96.279446 
L 227.106488 97.899297 
L 221.886048 99.76433 
L 216.7455 101.827712 
L 209.142116 105.183119 
L 191.480777 113.19422 
L 183.791993 116.348523 
L 176.017808 119.293457 
L 168.160978 122.031777 
L 155.020347 126.478104 
L 149.84674 128.456085 
L 144.775063 130.676494 
L 139.838373 133.216465 
L 135.066974 136.084263 
L 130.49117 139.260604 
L 126.135753 142.734469 
L 122.028273 146.483819 
L 118.190768 150.48937 
L 114.609464 154.723573 
L 111.254057 159.147861 
L 108.10251 163.729175 
L 105.124518 168.426193 
L 102.298042 173.211366 
L 99.628593 178.08194 
L 97.13821 183.035159 
L 94.835156 188.076533 
L 92.74147 193.208817 
L 90.868173 198.432011 
L 89.229038 203.737851 
L 87.832329 209.112562 
L 86.691821 214.547879 
L 85.813024 220.030029 
L 85.212467 225.547992 
L 84.898414 231.087994 
L 84.879131 236.639015 
L 85.165635 242.190037 
L 85.771702 247.730038 
L 85.771702 247.730038 
" style="fill:none;stroke:#fea952;stroke-linecap:square;"/>
   </g>
   <g id="line2d_14">
    <path clip-path="url(#p9ef6233e9d)" d="M 396.351793 266.981415 
L 388.138743 266.129976 
L 382.343305 265.393039 
L 376.364388 264.449981 
L 370.262501 263.235844 
L 364.107608 261.678091 
L 361.026766 260.746276 
L 357.950142 259.696297 
L 354.905379 258.523395 
L 351.872166 257.206932 
L 348.883727 255.740338 
L 345.940642 254.107017 
L 343.076581 252.306975 
L 340.2763 250.312641 
L 337.596099 248.14012 
L 335.071958 245.816556 
L 332.705321 243.359252 
L 330.502037 240.79166 
L 328.452377 238.125004 
L 326.548905 235.367232 
L 324.791915 232.533786 
L 323.176331 229.634068 
L 321.701753 226.680667 
L 320.366656 223.687264 
L 319.168609 220.66801 
L 318.103767 217.634928 
L 316.35117 211.601959 
L 315.012294 205.634927 
L 313.983996 199.75317 
L 312.835024 191.15518 
L 310.576799 172.374027 
L 309.731882 167.391374 
L 308.678298 162.519668 
L 307.371495 157.674281 
L 305.829538 152.888643 
L 304.054413 148.15806 
L 302.060909 143.50898 
L 299.869728 138.975588 
L 297.486122 134.581241 
L 294.907212 130.347887 
L 292.116728 126.267723 
L 289.098649 122.345208 
L 285.879726 118.630047 
L 282.505869 115.220983 
L 279.021609 112.211177 
L 275.450889 109.66584 
L 273.652459 108.588329 
L 271.836239 107.64213 
L 269.964511 106.816232 
L 267.995452 106.099508 
L 265.960674 105.497176 
L 263.8184 105.003281 
L 261.623673 104.619842 
L 257.032922 104.174568 
L 252.287906 104.145472 
L 247.478273 104.502868 
L 242.685786 105.205626 
L 237.893927 106.231633 
L 233.098511 107.553233 
L 228.307758 109.138557 
L 223.503694 110.961773 
L 216.211668 114.079031 
L 193.113844 124.461635 
L 185.109859 127.660529 
L 177.041596 130.629807 
L 168.992811 133.367194 
L 158.854677 136.808884 
L 154.123875 138.611539 
L 149.654887 140.556495 
L 145.359491 142.752941 
L 141.20205 145.237839 
L 137.222441 147.985116 
L 133.421373 151.001684 
L 129.858345 154.23734 
L 126.500642 157.726296 
L 123.308238 161.488072 
L 120.268647 165.485391 
L 117.357579 169.710045 
L 114.568752 174.103652 
L 111.916258 178.588823 
L 109.429281 183.119165 
L 107.115953 187.711883 
L 104.992259 192.349748 
L 103.070004 197.049194 
L 101.356561 201.811481 
L 99.861161 206.633547 
L 98.58855 211.506477 
L 97.549542 216.428572 
L 96.752629 221.353721 
L 96.205179 226.314416 
L 95.916242 231.273995 
L 95.890706 236.223897 
L 96.135297 241.144269 
L 96.708005 246.37934 
L 96.708005 246.37934 
" style="fill:none;stroke:#ffffff;stroke-linecap:square;"/>
   </g>
   <g id="line2d_15">
    <path clip-path="url(#p9ef6233e9d)" d="M 398.487273 245.046325 
L 388.173725 243.935811 
L 382.979115 243.20848 
L 377.847339 242.310753 
L 372.863373 241.208416 
L 368.092616 239.870879 
L 363.607834 238.275538 
L 359.48613 236.41943 
L 357.569662 235.386057 
L 355.750478 234.276978 
L 354.043826 233.103235 
L 352.426463 231.837705 
L 350.862407 230.442222 
L 349.361236 228.927033 
L 347.917099 227.285215 
L 346.539727 225.533093 
L 345.236554 223.684757 
L 342.862513 219.726361 
L 340.829163 215.502262 
L 339.147108 211.086171 
L 337.781215 206.457873 
L 336.679295 201.603857 
L 335.790218 196.559882 
L 334.729801 188.639796 
L 332.758368 171.799262 
L 331.862179 165.932813 
L 330.707826 159.990881 
L 329.253647 154.067741 
L 327.514543 148.236453 
L 325.502604 142.510456 
L 323.229762 136.885985 
L 320.708822 131.385393 
L 317.93174 125.993113 
L 314.874881 120.704544 
L 311.534937 115.567064 
L 307.884578 110.568402 
L 303.90857 105.732022 
L 299.534503 101.042647 
L 297.19049 98.787165 
L 294.72492 96.598376 
L 292.140227 94.502131 
L 289.430761 92.513372 
L 286.592396 90.650708 
L 283.613918 88.929291 
L 280.504467 87.379597 
L 277.301763 86.034674 
L 274.058647 84.911159 
L 270.760037 83.987305 
L 267.469748 83.269066 
L 264.154776 82.726876 
L 260.855776 82.357502 
L 257.549819 82.141836 
L 254.268734 82.074585 
L 251.016483 82.143383 
L 247.779442 82.338673 
L 241.453302 83.072292 
L 235.305874 84.212221 
L 229.324561 85.700702 
L 223.513592 87.48209 
L 217.873068 89.501626 
L 212.404746 91.699288 
L 204.541027 95.170273 
L 187.207562 103.037117 
L 179.792237 106.080657 
L 172.307424 108.917515 
L 164.686175 111.574585 
L 151.186017 116.147323 
L 145.569606 118.300632 
L 139.895239 120.796492 
L 134.317256 123.679989 
L 128.931899 126.930687 
L 123.759899 130.536093 
L 118.850133 134.467254 
L 114.198201 138.730298 
L 109.880893 143.252444 
L 105.91069 147.959074 
L 102.239468 152.810331 
L 98.847441 157.748305 
L 95.680283 162.748734 
L 92.679827 167.833909 
L 89.827906 173.044715 
L 87.160467 178.358434 
L 84.678053 183.803318 
L 82.412936 189.36844 
L 80.379784 195.052541 
L 78.596914 200.842154 
L 77.076108 206.718647 
L 75.8341 212.667186 
L 74.87342 218.706337 
L 74.219756 224.781568 
L 73.880587 230.901993 
L 73.867555 237.054134 
L 74.195973 243.235804 
L 74.835399 249.080737 
L 74.835399 249.080737 
" style="fill:none;stroke:#ffffff;stroke-linecap:square;"/>
   </g>
   <g id="patch_3">
    <path d="M 57.6 307.584 
L 57.6 41.472 
" style="fill:none;stroke:#000000;stroke-linecap:square;stroke-linejoin:miter;stroke-width:0.8;"/>
   </g>
   <g id="patch_4">
    <path d="M 414.72 307.584 
L 414.72 41.472 
" style="fill:none;stroke:#000000;stroke-linecap:square;stroke-linejoin:miter;stroke-width:0.8;"/>
   </g>
   <g id="patch_5">
    <path d="M 57.6 307.584 
L 414.72 307.584 
" style="fill:none;stroke:#000000;stroke-linecap:square;stroke-linejoin:miter;stroke-width:0.8;"/>
   </g>
   <g id="patch_6">
    <path d="M 57.6 41.472 
L 414.72 41.472 
" style="fill:none;stroke:#000000;stroke-linecap:square;stroke-linejoin:miter;stroke-width:0.8;"/>
   </g>
  </g>
 </g>
 <defs>
  <clipPath id="p9ef6233e9d">
   <rect height="266.112" width="357.12" x="57.6" y="41.472"/>
  </clipPath>
 </defs>
</svg>
