<?xml version="1.0" encoding="utf-8" standalone="no"?>
<!DOCTYPE svg PUBLIC "-//W3C//DTD SVG 1.1//EN"
  "http://www.w3.org/Graphics/SVG/1.1/DTD/svg11.dtd">
<!-- Created with matplotlib (https://matplotlib.org/) -->
<svg height="345.6pt" version="1.1" viewBox="0 0 460.8 345.6" width="460.8pt" xmlns="http://www.w3.org/2000/svg" xmlns:xlink="http://www.w3.org/1999/xlink">
 <metadata>
  <rdf:RDF xmlns:cc="http://creativecommons.org/ns#" xmlns:dc="http://purl.org/dc/elements/1.1/" xmlns:rdf="http://www.w3.org/1999/02/22-rdf-syntax-ns#">
   <cc:Work>
    <dc:type rdf:resource="http://purl.org/dc/dcmitype/StillImage"/>
    <dc:date>2021-01-25T10:15:10.015686</dc:date>
    <dc:format>image/svg+xml</dc:format>
    <dc:creator>
     <cc:Agent>
      <dc:title>Matplotlib v3.3.3, https://matplotlib.org/</dc:title>
     </cc:Agent>
    </dc:creator>
   </cc:Work>
  </rdf:RDF>
 </metadata>
 <defs>
  <style type="text/css">*{stroke-linecap:butt;stroke-linejoin:round;}</style>
 </defs>
 <g id="figure_1">
  <g id="patch_1">
   <path d="M 0 345.6 
L 460.8 345.6 
L 460.8 0 
L 0 0 
z
" style="fill:#ffffff;"/>
  </g>
  <g id="axes_1">
   <g id="patch_2">
    <path d="M 57.6 307.584 
L 414.72 307.584 
L 414.72 41.472 
L 57.6 41.472 
z
" style="fill:#7d9051;"/>
   </g>
   <g id="matplotlib.axis_1">
    <g id="xtick_1">
     <g id="line2d_1">
      <defs>
       <path d="M 0 0 
L 0 3.5 
" id="me3ece4a60e" style="stroke:#000000;stroke-width:0.8;"/>
      </defs>
      <g>
       <use style="stroke:#000000;stroke-width:0.8;" x="80.14833" xlink:href="#me3ece4a60e" y="307.584"/>
      </g>
     </g>
     <g id="text_1">
      <!-- −20 -->
      <g transform="translate(69.595987 322.182437)scale(0.1 -0.1)">
       <defs>
        <path d="M 10.59375 35.5 
L 73.1875 35.5 
L 73.1875 27.203125 
L 10.59375 27.203125 
z
" id="DejaVuSans-8722"/>
        <path d="M 19.1875 8.296875 
L 53.609375 8.296875 
L 53.609375 0 
L 7.328125 0 
L 7.328125 8.296875 
Q 12.9375 14.109375 22.625 23.890625 
Q 32.328125 33.6875 34.8125 36.53125 
Q 39.546875 41.84375 41.421875 45.53125 
Q 43.3125 49.21875 43.3125 52.78125 
Q 43.3125 58.59375 39.234375 62.25 
Q 35.15625 65.921875 28.609375 65.921875 
Q 23.96875 65.921875 18.8125 64.3125 
Q 13.671875 62.703125 7.8125 59.421875 
L 7.8125 69.390625 
Q 13.765625 71.78125 18.9375 73 
Q 24.125 74.21875 28.421875 74.21875 
Q 39.75 74.21875 46.484375 68.546875 
Q 53.21875 62.890625 53.21875 53.421875 
Q 53.21875 48.921875 51.53125 44.890625 
Q 49.859375 40.875 45.40625 35.40625 
Q 44.1875 33.984375 37.640625 27.21875 
Q 31.109375 20.453125 19.1875 8.296875 
z
" id="DejaVuSans-50"/>
        <path d="M 31.78125 66.40625 
Q 24.171875 66.40625 20.328125 58.90625 
Q 16.5 51.421875 16.5 36.375 
Q 16.5 21.390625 20.328125 13.890625 
Q 24.171875 6.390625 31.78125 6.390625 
Q 39.453125 6.390625 43.28125 13.890625 
Q 47.125 21.390625 47.125 36.375 
Q 47.125 51.421875 43.28125 58.90625 
Q 39.453125 66.40625 31.78125 66.40625 
z
M 31.78125 74.21875 
Q 44.046875 74.21875 50.515625 64.515625 
Q 56.984375 54.828125 56.984375 36.375 
Q 56.984375 17.96875 50.515625 8.265625 
Q 44.046875 -1.421875 31.78125 -1.421875 
Q 19.53125 -1.421875 13.0625 8.265625 
Q 6.59375 17.96875 6.59375 36.375 
Q 6.59375 54.828125 13.0625 64.515625 
Q 19.53125 74.21875 31.78125 74.21875 
z
" id="DejaVuSans-48"/>
       </defs>
       <use xlink:href="#DejaVuSans-8722"/>
       <use x="83.789062" xlink:href="#DejaVuSans-50"/>
       <use x="147.412109" xlink:href="#DejaVuSans-48"/>
      </g>
     </g>
    </g>
    <g id="xtick_2">
     <g id="line2d_2">
      <g>
       <use style="stroke:#000000;stroke-width:0.8;" x="133.367129" xlink:href="#me3ece4a60e" y="307.584"/>
      </g>
     </g>
     <g id="text_2">
      <!-- 0 -->
      <g transform="translate(130.185879 322.182437)scale(0.1 -0.1)">
       <use xlink:href="#DejaVuSans-48"/>
      </g>
     </g>
    </g>
    <g id="xtick_3">
     <g id="line2d_3">
      <g>
       <use style="stroke:#000000;stroke-width:0.8;" x="186.585928" xlink:href="#me3ece4a60e" y="307.584"/>
      </g>
     </g>
     <g id="text_3">
      <!-- 20 -->
      <g transform="translate(180.223428 322.182437)scale(0.1 -0.1)">
       <use xlink:href="#DejaVuSans-50"/>
       <use x="63.623047" xlink:href="#DejaVuSans-48"/>
      </g>
     </g>
    </g>
    <g id="xtick_4">
     <g id="line2d_4">
      <g>
       <use style="stroke:#000000;stroke-width:0.8;" x="239.804727" xlink:href="#me3ece4a60e" y="307.584"/>
      </g>
     </g>
     <g id="text_4">
      <!-- 40 -->
      <g transform="translate(233.442227 322.182437)scale(0.1 -0.1)">
       <defs>
        <path d="M 37.796875 64.3125 
L 12.890625 25.390625 
L 37.796875 25.390625 
z
M 35.203125 72.90625 
L 47.609375 72.90625 
L 47.609375 25.390625 
L 58.015625 25.390625 
L 58.015625 17.1875 
L 47.609375 17.1875 
L 47.609375 0 
L 37.796875 0 
L 37.796875 17.1875 
L 4.890625 17.1875 
L 4.890625 26.703125 
z
" id="DejaVuSans-52"/>
       </defs>
       <use xlink:href="#DejaVuSans-52"/>
       <use x="63.623047" xlink:href="#DejaVuSans-48"/>
      </g>
     </g>
    </g>
    <g id="xtick_5">
     <g id="line2d_5">
      <g>
       <use style="stroke:#000000;stroke-width:0.8;" x="293.023526" xlink:href="#me3ece4a60e" y="307.584"/>
      </g>
     </g>
     <g id="text_5">
      <!-- 60 -->
      <g transform="translate(286.661026 322.182437)scale(0.1 -0.1)">
       <defs>
        <path d="M 33.015625 40.375 
Q 26.375 40.375 22.484375 35.828125 
Q 18.609375 31.296875 18.609375 23.390625 
Q 18.609375 15.53125 22.484375 10.953125 
Q 26.375 6.390625 33.015625 6.390625 
Q 39.65625 6.390625 43.53125 10.953125 
Q 47.40625 15.53125 47.40625 23.390625 
Q 47.40625 31.296875 43.53125 35.828125 
Q 39.65625 40.375 33.015625 40.375 
z
M 52.59375 71.296875 
L 52.59375 62.3125 
Q 48.875 64.0625 45.09375 64.984375 
Q 41.3125 65.921875 37.59375 65.921875 
Q 27.828125 65.921875 22.671875 59.328125 
Q 17.53125 52.734375 16.796875 39.40625 
Q 19.671875 43.65625 24.015625 45.921875 
Q 28.375 48.1875 33.59375 48.1875 
Q 44.578125 48.1875 50.953125 41.515625 
Q 57.328125 34.859375 57.328125 23.390625 
Q 57.328125 12.15625 50.6875 5.359375 
Q 44.046875 -1.421875 33.015625 -1.421875 
Q 20.359375 -1.421875 13.671875 8.265625 
Q 6.984375 17.96875 6.984375 36.375 
Q 6.984375 53.65625 15.1875 63.9375 
Q 23.390625 74.21875 37.203125 74.21875 
Q 40.921875 74.21875 44.703125 73.484375 
Q 48.484375 72.75 52.59375 71.296875 
z
" id="DejaVuSans-54"/>
       </defs>
       <use xlink:href="#DejaVuSans-54"/>
       <use x="63.623047" xlink:href="#DejaVuSans-48"/>
      </g>
     </g>
    </g>
    <g id="xtick_6">
     <g id="line2d_6">
      <g>
       <use style="stroke:#000000;stroke-width:0.8;" x="346.242324" xlink:href="#me3ece4a60e" y="307.584"/>
      </g>
     </g>
     <g id="text_6">
      <!-- 80 -->
      <g transform="translate(339.879824 322.182437)scale(0.1 -0.1)">
       <defs>
        <path d="M 31.78125 34.625 
Q 24.75 34.625 20.71875 30.859375 
Q 16.703125 27.09375 16.703125 20.515625 
Q 16.703125 13.921875 20.71875 10.15625 
Q 24.75 6.390625 31.78125 6.390625 
Q 38.8125 6.390625 42.859375 10.171875 
Q 46.921875 13.96875 46.921875 20.515625 
Q 46.921875 27.09375 42.890625 30.859375 
Q 38.875 34.625 31.78125 34.625 
z
M 21.921875 38.8125 
Q 15.578125 40.375 12.03125 44.71875 
Q 8.5 49.078125 8.5 55.328125 
Q 8.5 64.0625 14.71875 69.140625 
Q 20.953125 74.21875 31.78125 74.21875 
Q 42.671875 74.21875 48.875 69.140625 
Q 55.078125 64.0625 55.078125 55.328125 
Q 55.078125 49.078125 51.53125 44.71875 
Q 48 40.375 41.703125 38.8125 
Q 48.828125 37.15625 52.796875 32.3125 
Q 56.78125 27.484375 56.78125 20.515625 
Q 56.78125 9.90625 50.3125 4.234375 
Q 43.84375 -1.421875 31.78125 -1.421875 
Q 19.734375 -1.421875 13.25 4.234375 
Q 6.78125 9.90625 6.78125 20.515625 
Q 6.78125 27.484375 10.78125 32.3125 
Q 14.796875 37.15625 21.921875 38.8125 
z
M 18.3125 54.390625 
Q 18.3125 48.734375 21.84375 45.5625 
Q 25.390625 42.390625 31.78125 42.390625 
Q 38.140625 42.390625 41.71875 45.5625 
Q 45.3125 48.734375 45.3125 54.390625 
Q 45.3125 60.0625 41.71875 63.234375 
Q 38.140625 66.40625 31.78125 66.40625 
Q 25.390625 66.40625 21.84375 63.234375 
Q 18.3125 60.0625 18.3125 54.390625 
z
" id="DejaVuSans-56"/>
       </defs>
       <use xlink:href="#DejaVuSans-56"/>
       <use x="63.623047" xlink:href="#DejaVuSans-48"/>
      </g>
     </g>
    </g>
    <g id="xtick_7">
     <g id="line2d_7">
      <g>
       <use style="stroke:#000000;stroke-width:0.8;" x="399.461123" xlink:href="#me3ece4a60e" y="307.584"/>
      </g>
     </g>
     <g id="text_7">
      <!-- 100 -->
      <g transform="translate(389.917373 322.182437)scale(0.1 -0.1)">
       <defs>
        <path d="M 12.40625 8.296875 
L 28.515625 8.296875 
L 28.515625 63.921875 
L 10.984375 60.40625 
L 10.984375 69.390625 
L 28.421875 72.90625 
L 38.28125 72.90625 
L 38.28125 8.296875 
L 54.390625 8.296875 
L 54.390625 0 
L 12.40625 0 
z
" id="DejaVuSans-49"/>
       </defs>
       <use xlink:href="#DejaVuSans-49"/>
       <use x="63.623047" xlink:href="#DejaVuSans-48"/>
       <use x="127.246094" xlink:href="#DejaVuSans-48"/>
      </g>
     </g>
    </g>
   </g>
   <g id="matplotlib.axis_2">
    <g id="ytick_1">
     <g id="line2d_8">
      <defs>
       <path d="M 0 0 
L -3.5 0 
" id="m7d7a563d17" style="stroke:#000000;stroke-width:0.8;"/>
      </defs>
      <g>
       <use style="stroke:#000000;stroke-width:0.8;" x="57.6" xlink:href="#m7d7a563d17" y="268.08681"/>
      </g>
     </g>
     <g id="text_8">
      <!-- 20 -->
      <g transform="translate(37.875 271.886029)scale(0.1 -0.1)">
       <use xlink:href="#DejaVuSans-50"/>
       <use x="63.623047" xlink:href="#DejaVuSans-48"/>
      </g>
     </g>
    </g>
    <g id="ytick_2">
     <g id="line2d_9">
      <g>
       <use style="stroke:#000000;stroke-width:0.8;" x="57.6" xlink:href="#m7d7a563d17" y="214.868012"/>
      </g>
     </g>
     <g id="text_9">
      <!-- 40 -->
      <g transform="translate(37.875 218.66723)scale(0.1 -0.1)">
       <use xlink:href="#DejaVuSans-52"/>
       <use x="63.623047" xlink:href="#DejaVuSans-48"/>
      </g>
     </g>
    </g>
    <g id="ytick_3">
     <g id="line2d_10">
      <g>
       <use style="stroke:#000000;stroke-width:0.8;" x="57.6" xlink:href="#m7d7a563d17" y="161.649213"/>
      </g>
     </g>
     <g id="text_10">
      <!-- 60 -->
      <g transform="translate(37.875 165.448431)scale(0.1 -0.1)">
       <use xlink:href="#DejaVuSans-54"/>
       <use x="63.623047" xlink:href="#DejaVuSans-48"/>
      </g>
     </g>
    </g>
    <g id="ytick_4">
     <g id="line2d_11">
      <g>
       <use style="stroke:#000000;stroke-width:0.8;" x="57.6" xlink:href="#m7d7a563d17" y="108.430414"/>
      </g>
     </g>
     <g id="text_11">
      <!-- 80 -->
      <g transform="translate(37.875 112.229633)scale(0.1 -0.1)">
       <use xlink:href="#DejaVuSans-56"/>
       <use x="63.623047" xlink:href="#DejaVuSans-48"/>
      </g>
     </g>
    </g>
    <g id="ytick_5">
     <g id="line2d_12">
      <g>
       <use style="stroke:#000000;stroke-width:0.8;" x="57.6" xlink:href="#m7d7a563d17" y="55.211615"/>
      </g>
     </g>
     <g id="text_12">
      <!-- 100 -->
      <g transform="translate(31.5125 59.010834)scale(0.1 -0.1)">
       <use xlink:href="#DejaVuSans-49"/>
       <use x="63.623047" xlink:href="#DejaVuSans-48"/>
       <use x="127.246094" xlink:href="#DejaVuSans-48"/>
      </g>
     </g>
    </g>
   </g>
   <g id="line2d_13">
    <path clip-path="url(#pc27780e2bc)" d="M 199.874662 294.69621 
L 200.225906 289.406261 
L 200.412172 284.089703 
L 200.425477 278.75718 
L 200.255176 273.419334 
L 199.89595 268.08681 
L 199.337152 262.775574 
L 198.568141 257.493608 
L 197.583593 252.251557 
L 196.370204 247.065385 
L 194.922653 241.945736 
L 193.240939 236.900594 
L 191.351671 231.921976 
L 189.289443 227.009881 
L 185.960607 219.737532 
L 181.256065 210.184757 
L 173.922515 196.007269 
L 169.03969 186.521018 
L 166.740638 181.710039 
L 164.638495 176.81657 
L 162.807769 171.816664 
L 161.328286 166.683711 
L 160.250605 161.425694 
L 159.86743 158.764754 
L 159.433697 153.410943 
L 159.388461 150.728715 
L 159.462967 148.05181 
L 159.657216 145.385548 
L 159.976529 142.737913 
L 160.420905 140.108904 
L 160.985025 137.506505 
L 162.437898 132.376212 
L 164.273947 127.352358 
L 166.429308 122.437602 
L 168.837459 117.645249 
L 171.447841 112.97796 
L 174.247149 108.441058 
L 177.230063 104.03188 
L 180.399243 99.753089 
L 183.749366 95.607344 
L 187.280433 91.60263 
L 190.992444 87.760232 
L 194.890722 84.109423 
L 198.977925 80.684793 
L 203.256717 77.510292 
L 207.732418 74.61785 
L 212.394384 72.028755 
L 217.229312 69.761635 
L 222.229218 67.840436 
L 227.383459 66.283786 
L 232.670747 65.120955 
L 235.347652 64.705849 
L 238.037863 64.407823 
L 240.730734 64.237523 
L 243.420944 64.202931 
L 246.09785 64.31203 
L 248.756129 64.570141 
L 251.387798 64.987908 
L 253.982215 65.570654 
L 256.534056 66.3237 
L 259.040662 67.239064 
L 261.494048 68.308761 
L 263.888894 69.519489 
L 266.225199 70.863264 
L 268.494981 72.329442 
L 270.695579 73.904718 
L 272.824331 75.58111 
L 274.873254 77.347974 
L 278.720973 81.110543 
L 282.233414 85.136546 
L 285.439847 89.39671 
L 288.361559 93.859107 
L 291.027821 98.497125 
L 293.45992 103.278834 
L 295.647212 108.185607 
L 297.549784 113.198818 
L 299.119739 118.302501 
L 300.309179 123.483351 
L 301.07553 128.720081 
L 301.453383 134.004708 
L 301.543855 139.323927 
L 301.376216 147.344 
L 301.136732 158.054283 
L 301.181968 163.39745 
L 301.392182 168.71933 
L 301.801967 174.017262 
L 302.453897 179.280601 
L 303.363938 184.506687 
L 304.484194 189.703503 
L 306.410714 197.460142 
L 309.718263 210.38965 
L 310.881094 215.591787 
L 311.852337 220.825856 
L 312.560147 226.1025 
L 312.943322 231.435024 
L 312.943322 231.435024 
" style="fill:none;stroke:#fea952;stroke-linecap:square;"/>
   </g>
   <g id="line2d_14">
    <path clip-path="url(#pc27780e2bc)" d="M 189.260394 293.90442 
L 189.592012 288.948087 
L 189.769053 283.972863 
L 189.784514 279.00119 
L 189.629168 274.033799 
L 189.299992 269.094434 
L 188.790029 264.206591 
L 188.087841 259.351818 
L 187.193042 254.559386 
L 186.092936 249.83439 
L 184.786392 245.193173 
L 183.253622 240.580692 
L 181.504782 235.962816 
L 179.558677 231.322862 
L 176.367334 224.348252 
L 171.770347 215.012881 
L 164.484592 200.928168 
L 159.471272 191.1831 
L 157.011618 186.026959 
L 154.703367 180.635319 
L 152.638366 174.958776 
L 151.738575 172.020526 
L 150.945488 169.026172 
L 150.270413 165.996281 
L 149.715513 162.942747 
L 149.27807 159.839495 
L 148.971729 156.734086 
L 148.79145 153.590425 
L 148.748821 150.432582 
L 148.847343 147.278416 
L 149.090029 144.111113 
L 149.481636 140.963978 
L 150.018733 137.854036 
L 150.689105 134.807677 
L 151.478682 131.827732 
L 152.381332 128.889795 
L 154.463685 123.223389 
L 156.863235 117.77071 
L 159.490519 112.553654 
L 162.328394 107.489306 
L 165.36817 102.571361 
L 168.6115 97.786082 
L 172.051676 93.149472 
L 175.686772 88.658661 
L 179.529647 84.307772 
L 183.610712 80.09214 
L 187.93679 76.051355 
L 192.505273 72.235272 
L 197.33546 68.665613 
L 202.407052 65.402097 
L 207.70241 62.474961 
L 213.228924 59.898242 
L 216.07527 58.751631 
L 218.961555 57.710678 
L 221.899768 56.770688 
L 224.89078 55.936024 
L 227.933093 55.211813 
L 231.039717 54.602906 
L 234.175691 54.126807 
L 237.366082 53.785285 
L 240.593882 53.594643 
L 243.854376 53.568 
L 247.12649 53.718092 
L 250.424889 54.058012 
L 253.720432 54.602898 
L 256.994745 55.362115 
L 260.185119 56.325732 
L 263.294665 57.48237 
L 266.296253 58.809895 
L 269.195686 60.293028 
L 272.00048 61.922584 
L 274.690447 63.674627 
L 277.280751 65.542594 
L 279.775305 67.520492 
L 282.159592 69.589179 
L 284.434213 71.737266 
L 286.608684 73.96396 
L 288.667714 76.247708 
L 292.492387 80.990972 
L 295.929426 85.913609 
L 299.020787 90.975627 
L 301.813634 96.157104 
L 304.368587 101.519768 
L 306.64341 107.053482 
L 308.606175 112.787911 
L 309.446954 115.726021 
L 310.180604 118.697873 
L 310.807541 121.730061 
L 311.306149 124.768289 
L 311.934568 130.769621 
L 312.171458 136.596528 
L 312.155559 142.236374 
L 311.784623 160.569366 
L 311.895951 165.550229 
L 312.173688 170.444239 
L 312.640242 175.21185 
L 313.339889 179.945179 
L 314.286459 184.776453 
L 316.05308 192.222508 
L 320.724478 210.744212 
L 321.880074 216.37307 
L 322.811789 222.192307 
L 323.424827 228.179155 
L 323.571179 230.8534 
L 323.571179 230.8534 
" style="fill:none;stroke:#ffffff;stroke-linecap:square;"/>
   </g>
   <g id="line2d_15">
    <path clip-path="url(#pc27780e2bc)" d="M 210.48893 295.488 
L 210.8598 289.864435 
L 211.05529 284.206544 
L 211.066439 278.513169 
L 210.881185 272.804869 
L 210.491907 267.079187 
L 209.884276 261.344558 
L 209.04844 255.635399 
L 207.974143 249.943727 
L 206.647472 244.29638 
L 205.058913 238.6983 
L 203.228256 233.220497 
L 201.198561 227.881135 
L 199.020209 222.696899 
L 195.55388 215.126811 
L 190.741783 205.356633 
L 183.360437 191.086371 
L 178.608108 181.858937 
L 176.469657 177.393119 
L 174.573624 172.997822 
L 172.977171 168.674552 
L 171.711084 164.34125 
L 170.785698 159.90864 
L 170.220299 155.446933 
L 170.0281 151.024848 
L 170.224403 146.659982 
L 170.823078 142.363772 
L 171.843125 138.028376 
L 173.248199 133.670449 
L 174.997221 129.299858 
L 177.059121 124.917352 
L 179.348289 120.594674 
L 181.819441 116.381106 
L 184.467588 112.277153 
L 187.278884 108.300149 
L 190.260564 104.439496 
L 193.395808 100.714117 
L 196.669168 97.151889 
L 200.084512 93.776281 
L 203.626651 90.623701 
L 207.303044 87.708909 
L 211.102246 85.060003 
L 215.048281 82.676272 
L 219.133689 80.569373 
L 223.343346 78.759968 
L 227.672996 77.260401 
L 232.091842 76.089152 
L 236.519614 75.284891 
L 240.867586 74.880403 
L 245.069209 74.905968 
L 247.087368 75.08227 
L 249.055165 75.372919 
L 250.969684 75.779194 
L 252.882994 76.321668 
L 254.786658 76.995758 
L 256.691844 77.807627 
L 258.582103 78.74595 
L 260.449919 79.803943 
L 264.110406 82.266842 
L 267.586916 85.106769 
L 270.833263 88.257127 
L 273.844906 91.688076 
L 276.626407 95.364365 
L 279.204822 99.285321 
L 281.598208 103.433929 
L 283.798904 107.745869 
L 285.753133 112.109485 
L 287.432279 116.504223 
L 288.792524 120.878982 
L 289.810818 125.236642 
L 290.472551 129.650918 
L 290.81381 134.303213 
L 290.900736 139.207202 
L 290.737506 147.016167 
L 290.492993 158.075464 
L 290.543308 163.726919 
L 290.772375 169.432998 
L 291.223177 175.191497 
L 291.946427 180.978454 
L 292.940197 186.659648 
L 294.130678 192.172172 
L 296.110841 200.143838 
L 299.348871 212.790759 
L 300.437529 217.646434 
L 301.324237 222.3907 
L 301.958376 227.047002 
L 302.315465 232.016648 
L 302.315465 232.016648 
" style="fill:none;stroke:#ffffff;stroke-linecap:square;"/>
   </g>
   <g id="patch_3">
    <path d="M 57.6 307.584 
L 57.6 41.472 
" style="fill:none;stroke:#000000;stroke-linecap:square;stroke-linejoin:miter;stroke-width:0.8;"/>
   </g>
   <g id="patch_4">
    <path d="M 414.72 307.584 
L 414.72 41.472 
" style="fill:none;stroke:#000000;stroke-linecap:square;stroke-linejoin:miter;stroke-width:0.8;"/>
   </g>
   <g id="patch_5">
    <path d="M 57.6 307.584 
L 414.72 307.584 
" style="fill:none;stroke:#000000;stroke-linecap:square;stroke-linejoin:miter;stroke-width:0.8;"/>
   </g>
   <g id="patch_6">
    <path d="M 57.6 41.472 
L 414.72 41.472 
" style="fill:none;stroke:#000000;stroke-linecap:square;stroke-linejoin:miter;stroke-width:0.8;"/>
   </g>
  </g>
 </g>
 <defs>
  <clipPath id="pc27780e2bc">
   <rect height="266.112" width="357.12" x="57.6" y="41.472"/>
  </clipPath>
 </defs>
</svg>
