<?xml version="1.0" encoding="utf-8" standalone="no"?>
<!DOCTYPE svg PUBLIC "-//W3C//DTD SVG 1.1//EN"
  "http://www.w3.org/Graphics/SVG/1.1/DTD/svg11.dtd">
<!-- Created with matplotlib (https://matplotlib.org/) -->
<svg height="345.6pt" version="1.1" viewBox="0 0 460.8 345.6" width="460.8pt" xmlns="http://www.w3.org/2000/svg" xmlns:xlink="http://www.w3.org/1999/xlink">
 <metadata>
  <rdf:RDF xmlns:cc="http://creativecommons.org/ns#" xmlns:dc="http://purl.org/dc/elements/1.1/" xmlns:rdf="http://www.w3.org/1999/02/22-rdf-syntax-ns#">
   <cc:Work>
    <dc:type rdf:resource="http://purl.org/dc/dcmitype/StillImage"/>
    <dc:date>2021-01-23T11:56:40.614696</dc:date>
    <dc:format>image/svg+xml</dc:format>
    <dc:creator>
     <cc:Agent>
      <dc:title>Matplotlib v3.3.3, https://matplotlib.org/</dc:title>
     </cc:Agent>
    </dc:creator>
   </cc:Work>
  </rdf:RDF>
 </metadata>
 <defs>
  <style type="text/css">*{stroke-linecap:butt;stroke-linejoin:round;}</style>
 </defs>
 <g id="figure_1">
  <g id="patch_1">
   <path d="M 0 345.6 
L 460.8 345.6 
L 460.8 0 
L 0 0 
z
" style="fill:#ffffff;"/>
  </g>
  <g id="axes_1">
   <g id="patch_2">
    <path d="M 57.6 307.584 
L 414.72 307.584 
L 414.72 41.472 
L 57.6 41.472 
z
" style="fill:#7d9051;"/>
   </g>
   <g id="matplotlib.axis_1">
    <g id="xtick_1">
     <g id="line2d_1">
      <defs>
       <path d="M 0 0 
L 0 3.5 
" id="mcb6eaad595" style="stroke:#000000;stroke-width:0.8;"/>
      </defs>
      <g>
       <use style="stroke:#000000;stroke-width:0.8;" x="108.803283" xlink:href="#mcb6eaad595" y="307.584"/>
      </g>
     </g>
     <g id="text_1">
      <!-- 20 -->
      <g transform="translate(102.440783 322.182437)scale(0.1 -0.1)">
       <defs>
        <path d="M 19.1875 8.296875 
L 53.609375 8.296875 
L 53.609375 0 
L 7.328125 0 
L 7.328125 8.296875 
Q 12.9375 14.109375 22.625 23.890625 
Q 32.328125 33.6875 34.8125 36.53125 
Q 39.546875 41.84375 41.421875 45.53125 
Q 43.3125 49.21875 43.3125 52.78125 
Q 43.3125 58.59375 39.234375 62.25 
Q 35.15625 65.921875 28.609375 65.921875 
Q 23.96875 65.921875 18.8125 64.3125 
Q 13.671875 62.703125 7.8125 59.421875 
L 7.8125 69.390625 
Q 13.765625 71.78125 18.9375 73 
Q 24.125 74.21875 28.421875 74.21875 
Q 39.75 74.21875 46.484375 68.546875 
Q 53.21875 62.890625 53.21875 53.421875 
Q 53.21875 48.921875 51.53125 44.890625 
Q 49.859375 40.875 45.40625 35.40625 
Q 44.1875 33.984375 37.640625 27.21875 
Q 31.109375 20.453125 19.1875 8.296875 
z
" id="DejaVuSans-50"/>
        <path d="M 31.78125 66.40625 
Q 24.171875 66.40625 20.328125 58.90625 
Q 16.5 51.421875 16.5 36.375 
Q 16.5 21.390625 20.328125 13.890625 
Q 24.171875 6.390625 31.78125 6.390625 
Q 39.453125 6.390625 43.28125 13.890625 
Q 47.125 21.390625 47.125 36.375 
Q 47.125 51.421875 43.28125 58.90625 
Q 39.453125 66.40625 31.78125 66.40625 
z
M 31.78125 74.21875 
Q 44.046875 74.21875 50.515625 64.515625 
Q 56.984375 54.828125 56.984375 36.375 
Q 56.984375 17.96875 50.515625 8.265625 
Q 44.046875 -1.421875 31.78125 -1.421875 
Q 19.53125 -1.421875 13.0625 8.265625 
Q 6.59375 17.96875 6.59375 36.375 
Q 6.59375 54.828125 13.0625 64.515625 
Q 19.53125 74.21875 31.78125 74.21875 
z
" id="DejaVuSans-48"/>
       </defs>
       <use xlink:href="#DejaVuSans-50"/>
       <use x="63.623047" xlink:href="#DejaVuSans-48"/>
      </g>
     </g>
    </g>
    <g id="xtick_2">
     <g id="line2d_2">
      <g>
       <use style="stroke:#000000;stroke-width:0.8;" x="161.94632" xlink:href="#mcb6eaad595" y="307.584"/>
      </g>
     </g>
     <g id="text_2">
      <!-- 40 -->
      <g transform="translate(155.58382 322.182437)scale(0.1 -0.1)">
       <defs>
        <path d="M 37.796875 64.3125 
L 12.890625 25.390625 
L 37.796875 25.390625 
z
M 35.203125 72.90625 
L 47.609375 72.90625 
L 47.609375 25.390625 
L 58.015625 25.390625 
L 58.015625 17.1875 
L 47.609375 17.1875 
L 47.609375 0 
L 37.796875 0 
L 37.796875 17.1875 
L 4.890625 17.1875 
L 4.890625 26.703125 
z
" id="DejaVuSans-52"/>
       </defs>
       <use xlink:href="#DejaVuSans-52"/>
       <use x="63.623047" xlink:href="#DejaVuSans-48"/>
      </g>
     </g>
    </g>
    <g id="xtick_3">
     <g id="line2d_3">
      <g>
       <use style="stroke:#000000;stroke-width:0.8;" x="215.089357" xlink:href="#mcb6eaad595" y="307.584"/>
      </g>
     </g>
     <g id="text_3">
      <!-- 60 -->
      <g transform="translate(208.726857 322.182437)scale(0.1 -0.1)">
       <defs>
        <path d="M 33.015625 40.375 
Q 26.375 40.375 22.484375 35.828125 
Q 18.609375 31.296875 18.609375 23.390625 
Q 18.609375 15.53125 22.484375 10.953125 
Q 26.375 6.390625 33.015625 6.390625 
Q 39.65625 6.390625 43.53125 10.953125 
Q 47.40625 15.53125 47.40625 23.390625 
Q 47.40625 31.296875 43.53125 35.828125 
Q 39.65625 40.375 33.015625 40.375 
z
M 52.59375 71.296875 
L 52.59375 62.3125 
Q 48.875 64.0625 45.09375 64.984375 
Q 41.3125 65.921875 37.59375 65.921875 
Q 27.828125 65.921875 22.671875 59.328125 
Q 17.53125 52.734375 16.796875 39.40625 
Q 19.671875 43.65625 24.015625 45.921875 
Q 28.375 48.1875 33.59375 48.1875 
Q 44.578125 48.1875 50.953125 41.515625 
Q 57.328125 34.859375 57.328125 23.390625 
Q 57.328125 12.15625 50.6875 5.359375 
Q 44.046875 -1.421875 33.015625 -1.421875 
Q 20.359375 -1.421875 13.671875 8.265625 
Q 6.984375 17.96875 6.984375 36.375 
Q 6.984375 53.65625 15.1875 63.9375 
Q 23.390625 74.21875 37.203125 74.21875 
Q 40.921875 74.21875 44.703125 73.484375 
Q 48.484375 72.75 52.59375 71.296875 
z
" id="DejaVuSans-54"/>
       </defs>
       <use xlink:href="#DejaVuSans-54"/>
       <use x="63.623047" xlink:href="#DejaVuSans-48"/>
      </g>
     </g>
    </g>
    <g id="xtick_4">
     <g id="line2d_4">
      <g>
       <use style="stroke:#000000;stroke-width:0.8;" x="268.232394" xlink:href="#mcb6eaad595" y="307.584"/>
      </g>
     </g>
     <g id="text_4">
      <!-- 80 -->
      <g transform="translate(261.869894 322.182437)scale(0.1 -0.1)">
       <defs>
        <path d="M 31.78125 34.625 
Q 24.75 34.625 20.71875 30.859375 
Q 16.703125 27.09375 16.703125 20.515625 
Q 16.703125 13.921875 20.71875 10.15625 
Q 24.75 6.390625 31.78125 6.390625 
Q 38.8125 6.390625 42.859375 10.171875 
Q 46.921875 13.96875 46.921875 20.515625 
Q 46.921875 27.09375 42.890625 30.859375 
Q 38.875 34.625 31.78125 34.625 
z
M 21.921875 38.8125 
Q 15.578125 40.375 12.03125 44.71875 
Q 8.5 49.078125 8.5 55.328125 
Q 8.5 64.0625 14.71875 69.140625 
Q 20.953125 74.21875 31.78125 74.21875 
Q 42.671875 74.21875 48.875 69.140625 
Q 55.078125 64.0625 55.078125 55.328125 
Q 55.078125 49.078125 51.53125 44.71875 
Q 48 40.375 41.703125 38.8125 
Q 48.828125 37.15625 52.796875 32.3125 
Q 56.78125 27.484375 56.78125 20.515625 
Q 56.78125 9.90625 50.3125 4.234375 
Q 43.84375 -1.421875 31.78125 -1.421875 
Q 19.734375 -1.421875 13.25 4.234375 
Q 6.78125 9.90625 6.78125 20.515625 
Q 6.78125 27.484375 10.78125 32.3125 
Q 14.796875 37.15625 21.921875 38.8125 
z
M 18.3125 54.390625 
Q 18.3125 48.734375 21.84375 45.5625 
Q 25.390625 42.390625 31.78125 42.390625 
Q 38.140625 42.390625 41.71875 45.5625 
Q 45.3125 48.734375 45.3125 54.390625 
Q 45.3125 60.0625 41.71875 63.234375 
Q 38.140625 66.40625 31.78125 66.40625 
Q 25.390625 66.40625 21.84375 63.234375 
Q 18.3125 60.0625 18.3125 54.390625 
z
" id="DejaVuSans-56"/>
       </defs>
       <use xlink:href="#DejaVuSans-56"/>
       <use x="63.623047" xlink:href="#DejaVuSans-48"/>
      </g>
     </g>
    </g>
    <g id="xtick_5">
     <g id="line2d_5">
      <g>
       <use style="stroke:#000000;stroke-width:0.8;" x="321.375432" xlink:href="#mcb6eaad595" y="307.584"/>
      </g>
     </g>
     <g id="text_5">
      <!-- 100 -->
      <g transform="translate(311.831682 322.182437)scale(0.1 -0.1)">
       <defs>
        <path d="M 12.40625 8.296875 
L 28.515625 8.296875 
L 28.515625 63.921875 
L 10.984375 60.40625 
L 10.984375 69.390625 
L 28.421875 72.90625 
L 38.28125 72.90625 
L 38.28125 8.296875 
L 54.390625 8.296875 
L 54.390625 0 
L 12.40625 0 
z
" id="DejaVuSans-49"/>
       </defs>
       <use xlink:href="#DejaVuSans-49"/>
       <use x="63.623047" xlink:href="#DejaVuSans-48"/>
       <use x="127.246094" xlink:href="#DejaVuSans-48"/>
      </g>
     </g>
    </g>
    <g id="xtick_6">
     <g id="line2d_6">
      <g>
       <use style="stroke:#000000;stroke-width:0.8;" x="374.518469" xlink:href="#mcb6eaad595" y="307.584"/>
      </g>
     </g>
     <g id="text_6">
      <!-- 120 -->
      <g transform="translate(364.974719 322.182437)scale(0.1 -0.1)">
       <use xlink:href="#DejaVuSans-49"/>
       <use x="63.623047" xlink:href="#DejaVuSans-50"/>
       <use x="127.246094" xlink:href="#DejaVuSans-48"/>
      </g>
     </g>
    </g>
   </g>
   <g id="matplotlib.axis_2">
    <g id="ytick_1">
     <g id="line2d_7">
      <defs>
       <path d="M 0 0 
L -3.5 0 
" id="m66d7c3c463" style="stroke:#000000;stroke-width:0.8;"/>
      </defs>
      <g>
       <use style="stroke:#000000;stroke-width:0.8;" x="57.6" xlink:href="#m66d7c3c463" y="270.780398"/>
      </g>
     </g>
     <g id="text_7">
      <!-- 20 -->
      <g transform="translate(37.875 274.579617)scale(0.1 -0.1)">
       <use xlink:href="#DejaVuSans-50"/>
       <use x="63.623047" xlink:href="#DejaVuSans-48"/>
      </g>
     </g>
    </g>
    <g id="ytick_2">
     <g id="line2d_8">
      <g>
       <use style="stroke:#000000;stroke-width:0.8;" x="57.6" xlink:href="#m66d7c3c463" y="217.637361"/>
      </g>
     </g>
     <g id="text_8">
      <!-- 40 -->
      <g transform="translate(37.875 221.43658)scale(0.1 -0.1)">
       <use xlink:href="#DejaVuSans-52"/>
       <use x="63.623047" xlink:href="#DejaVuSans-48"/>
      </g>
     </g>
    </g>
    <g id="ytick_3">
     <g id="line2d_9">
      <g>
       <use style="stroke:#000000;stroke-width:0.8;" x="57.6" xlink:href="#m66d7c3c463" y="164.494324"/>
      </g>
     </g>
     <g id="text_9">
      <!-- 60 -->
      <g transform="translate(37.875 168.293543)scale(0.1 -0.1)">
       <use xlink:href="#DejaVuSans-54"/>
       <use x="63.623047" xlink:href="#DejaVuSans-48"/>
      </g>
     </g>
    </g>
    <g id="ytick_4">
     <g id="line2d_10">
      <g>
       <use style="stroke:#000000;stroke-width:0.8;" x="57.6" xlink:href="#m66d7c3c463" y="111.351287"/>
      </g>
     </g>
     <g id="text_10">
      <!-- 80 -->
      <g transform="translate(37.875 115.150505)scale(0.1 -0.1)">
       <use xlink:href="#DejaVuSans-56"/>
       <use x="63.623047" xlink:href="#DejaVuSans-48"/>
      </g>
     </g>
    </g>
    <g id="ytick_5">
     <g id="line2d_11">
      <g>
       <use style="stroke:#000000;stroke-width:0.8;" x="57.6" xlink:href="#m66d7c3c463" y="58.208249"/>
      </g>
     </g>
     <g id="text_11">
      <!-- 100 -->
      <g transform="translate(31.5125 62.007468)scale(0.1 -0.1)">
       <use xlink:href="#DejaVuSans-49"/>
       <use x="63.623047" xlink:href="#DejaVuSans-48"/>
       <use x="127.246094" xlink:href="#DejaVuSans-48"/>
      </g>
     </g>
    </g>
   </g>
   <g id="line2d_12">
    <path clip-path="url(#p39fba87868)" d="M 386.146165 297.351917 
L 385.635992 292.024327 
L 385.444677 286.704709 
L 385.513763 281.393063 
L 385.774164 276.084073 
L 386.390623 268.128561 
L 387.490684 254.874687 
L 387.769685 249.571012 
L 387.860028 244.262023 
L 387.711228 238.953033 
L 387.312655 233.646701 
L 386.666967 228.361626 
L 385.774164 223.103122 
L 384.636903 217.887133 
L 383.255184 212.726944 
L 381.621036 207.641156 
L 379.721172 202.658996 
L 377.550279 197.799065 
L 375.095071 193.087935 
L 372.355547 188.541548 
L 369.374223 184.143962 
L 366.196269 179.871262 
L 361.176909 173.642898 
L 354.247057 165.557184 
L 327.882796 135.672198 
L 324.207955 131.837927 
L 320.421514 128.115258 
L 314.559837 122.713268 
L 306.516638 115.748873 
L 294.259197 105.540095 
L 271.657463 87.038347 
L 263.298063 80.451268 
L 256.875727 75.673709 
L 252.475484 72.665813 
L 247.942383 69.883775 
L 243.241881 67.394023 
L 240.821216 66.280677 
L 238.347407 65.265645 
L 235.82577 64.351584 
L 233.266933 63.546467 
L 230.670896 62.850294 
L 228.048287 62.268377 
L 225.404421 61.803376 
L 222.747269 61.457946 
L 220.079488 61.234745 
L 217.409051 61.141745 
L 214.74127 61.178945 
L 212.086775 61.349003 
L 209.440252 61.646604 
L 204.197692 62.595207 
L 199.032188 63.966297 
L 193.957028 65.701418 
L 188.993469 67.739453 
L 184.157452 70.035232 
L 179.459608 72.572812 
L 174.910564 75.346879 
L 170.523606 78.34946 
L 166.306706 81.575243 
L 162.262521 85.008283 
L 156.403501 90.410273 
L 148.660561 97.709469 
L 144.67749 101.238167 
L 140.577505 104.628692 
L 136.357947 107.870418 
L 132.024133 110.958028 
L 127.581375 113.886209 
L 123.032331 116.649647 
L 116.07325 120.571603 
L 106.778533 125.729135 
L 102.226832 128.434116 
L 97.79736 131.311811 
L 93.537945 134.431308 
L 89.49376 137.864348 
L 87.567325 139.716383 
L 85.709976 141.674704 
L 83.929684 143.744625 
L 82.231764 145.934118 
L 82.231764 145.934118 
" style="fill:none;stroke:#fea952;stroke-linecap:square;"/>
   </g>
   <g id="line2d_13">
    <path clip-path="url(#p39fba87868)" d="M 375.584375 298.541829 
L 375.020619 292.554566 
L 374.816091 286.683452 
L 374.894096 280.95722 
L 375.170869 275.35098 
L 375.804113 267.183526 
L 376.881233 254.236844 
L 377.144957 249.283857 
L 377.232784 244.432229 
L 377.103692 239.621977 
L 376.748281 234.813449 
L 376.169283 230.02473 
L 375.362672 225.240441 
L 374.336933 220.509713 
L 373.094529 215.84598 
L 371.639468 211.292949 
L 369.953038 206.848369 
L 368.048019 202.560824 
L 365.912375 198.440074 
L 363.48755 194.400381 
L 360.786754 190.406763 
L 357.834021 186.431758 
L 353.047518 180.489816 
L 346.258108 172.567461 
L 320.152416 142.966614 
L 316.697716 139.358805 
L 313.127097 135.845638 
L 307.520349 130.67649 
L 299.670699 123.879089 
L 287.501024 113.743412 
L 265.010058 95.331676 
L 256.861772 88.909486 
L 250.783466 84.382994 
L 246.78711 81.644103 
L 242.802329 79.186847 
L 238.800651 77.050253 
L 234.725301 75.258024 
L 230.513953 73.812352 
L 226.207193 72.736313 
L 221.861119 72.049548 
L 217.557244 71.769319 
L 213.274475 71.911042 
L 208.919161 72.484138 
L 204.518636 73.454176 
L 200.081439 74.792995 
L 195.630858 76.462979 
L 191.236607 78.402334 
L 186.957931 80.563698 
L 182.817733 82.932322 
L 178.816481 85.509232 
L 174.967137 88.284312 
L 171.236327 91.29169 
L 167.508471 94.58545 
L 159.837409 101.809563 
L 153.666835 107.502393 
L 149.342434 111.202664 
L 144.883631 114.751891 
L 140.295775 118.143605 
L 135.581237 121.37253 
L 130.752582 124.424603 
L 123.547261 128.583947 
L 109.996713 136.154307 
L 105.895448 138.685309 
L 102.058087 141.312892 
L 98.520146 144.073805 
L 95.279066 147.030503 
L 92.328721 150.257956 
L 90.630801 152.447449 
L 90.630801 152.447449 
" style="fill:none;stroke:#ffffff;stroke-linecap:square;"/>
   </g>
   <g id="line2d_14">
    <path clip-path="url(#p39fba87868)" d="M 396.707955 296.162004 
L 396.251365 291.494089 
L 396.073263 286.725966 
L 396.133431 281.828905 
L 396.377459 276.817167 
L 396.977134 269.073595 
L 398.100135 255.51253 
L 398.394413 249.858167 
L 398.487273 244.091816 
L 398.318763 238.28409 
L 397.877029 232.479953 
L 397.164652 226.698521 
L 396.185656 220.965804 
L 394.936873 215.264554 
L 393.415839 209.607909 
L 391.602604 203.989362 
L 389.489306 198.469622 
L 387.052539 193.037306 
L 384.277767 187.735796 
L 381.223544 182.682715 
L 377.961691 177.88116 
L 374.558517 173.310766 
L 369.3063 166.795979 
L 362.236007 158.546908 
L 337.491835 130.410724 
L 331.718195 124.31705 
L 327.715931 120.384877 
L 321.599325 114.750046 
L 313.362577 107.618657 
L 301.017369 97.336779 
L 278.304868 78.745019 
L 269.734354 71.993049 
L 262.967989 66.964423 
L 258.163857 63.687522 
L 253.082436 60.580703 
L 247.683111 57.737793 
L 244.855835 56.447613 
L 241.969513 55.273265 
L 239.015794 54.212993 
L 236.019913 53.280582 
L 232.973225 52.474043 
L 229.889381 51.800442 
L 226.77461 51.263458 
L 223.633419 50.866344 
L 220.449415 50.612577 
L 217.260857 50.514171 
L 214.061751 50.572082 
L 210.899076 50.786964 
L 207.763517 51.151088 
L 204.705497 51.64873 
L 201.659706 52.274067 
L 198.689987 53.011671 
L 192.881206 54.792349 
L 187.287754 56.911463 
L 181.882428 59.313894 
L 176.621929 61.988547 
L 171.515238 64.928912 
L 166.577831 68.12865 
L 161.818003 71.581933 
L 157.2957 75.244007 
L 153.073357 78.981071 
L 145.258538 86.339407 
L 139.700444 91.477128 
L 135.941789 94.701395 
L 132.078393 97.78442 
L 128.115534 100.722041 
L 124.050842 103.514222 
L 119.887695 106.153768 
L 113.259883 109.981823 
L 98.984738 117.971744 
L 94.094201 121.004818 
L 89.232046 124.361141 
L 86.81797 126.196672 
L 84.453102 128.136821 
L 82.127613 130.202287 
L 79.855585 132.402262 
L 77.65183 134.744077 
L 75.530647 137.231294 
L 73.832727 139.420787 
L 73.832727 139.420787 
" style="fill:none;stroke:#ffffff;stroke-linecap:square;"/>
   </g>
   <g id="patch_3">
    <path d="M 57.6 307.584 
L 57.6 41.472 
" style="fill:none;stroke:#000000;stroke-linecap:square;stroke-linejoin:miter;stroke-width:0.8;"/>
   </g>
   <g id="patch_4">
    <path d="M 414.72 307.584 
L 414.72 41.472 
" style="fill:none;stroke:#000000;stroke-linecap:square;stroke-linejoin:miter;stroke-width:0.8;"/>
   </g>
   <g id="patch_5">
    <path d="M 57.6 307.584 
L 414.72 307.584 
" style="fill:none;stroke:#000000;stroke-linecap:square;stroke-linejoin:miter;stroke-width:0.8;"/>
   </g>
   <g id="patch_6">
    <path d="M 57.6 41.472 
L 414.72 41.472 
" style="fill:none;stroke:#000000;stroke-linecap:square;stroke-linejoin:miter;stroke-width:0.8;"/>
   </g>
  </g>
 </g>
 <defs>
  <clipPath id="p39fba87868">
   <rect height="266.112" width="357.12" x="57.6" y="41.472"/>
  </clipPath>
 </defs>
</svg>
