<?xml version="1.0" encoding="utf-8" standalone="no"?>
<!DOCTYPE svg PUBLIC "-//W3C//DTD SVG 1.1//EN"
  "http://www.w3.org/Graphics/SVG/1.1/DTD/svg11.dtd">
<!-- Created with matplotlib (https://matplotlib.org/) -->
<svg height="345.6pt" version="1.1" viewBox="0 0 460.8 345.6" width="460.8pt" xmlns="http://www.w3.org/2000/svg" xmlns:xlink="http://www.w3.org/1999/xlink">
 <metadata>
  <rdf:RDF xmlns:cc="http://creativecommons.org/ns#" xmlns:dc="http://purl.org/dc/elements/1.1/" xmlns:rdf="http://www.w3.org/1999/02/22-rdf-syntax-ns#">
   <cc:Work>
    <dc:type rdf:resource="http://purl.org/dc/dcmitype/StillImage"/>
    <dc:date>2021-01-25T10:25:50.044247</dc:date>
    <dc:format>image/svg+xml</dc:format>
    <dc:creator>
     <cc:Agent>
      <dc:title>Matplotlib v3.3.3, https://matplotlib.org/</dc:title>
     </cc:Agent>
    </dc:creator>
   </cc:Work>
  </rdf:RDF>
 </metadata>
 <defs>
  <style type="text/css">*{stroke-linecap:butt;stroke-linejoin:round;}</style>
 </defs>
 <g id="figure_1">
  <g id="patch_1">
   <path d="M 0 345.6 
L 460.8 345.6 
L 460.8 0 
L 0 0 
z
" style="fill:#ffffff;"/>
  </g>
  <g id="axes_1">
   <g id="patch_2">
    <path d="M 57.6 307.584 
L 414.72 307.584 
L 414.72 41.472 
L 57.6 41.472 
z
" style="fill:#7d9051;"/>
   </g>
   <g id="matplotlib.axis_1">
    <g id="xtick_1">
     <g id="line2d_1">
      <defs>
       <path d="M 0 0 
L 0 3.5 
" id="m8a5ad67fc7" style="stroke:#000000;stroke-width:0.8;"/>
      </defs>
      <g>
       <use style="stroke:#000000;stroke-width:0.8;" x="62.956079" xlink:href="#m8a5ad67fc7" y="307.584"/>
      </g>
     </g>
     <g id="text_1">
      <!-- −20 -->
      <g transform="translate(52.403735 322.182437)scale(0.1 -0.1)">
       <defs>
        <path d="M 10.59375 35.5 
L 73.1875 35.5 
L 73.1875 27.203125 
L 10.59375 27.203125 
z
" id="DejaVuSans-8722"/>
        <path d="M 19.1875 8.296875 
L 53.609375 8.296875 
L 53.609375 0 
L 7.328125 0 
L 7.328125 8.296875 
Q 12.9375 14.109375 22.625 23.890625 
Q 32.328125 33.6875 34.8125 36.53125 
Q 39.546875 41.84375 41.421875 45.53125 
Q 43.3125 49.21875 43.3125 52.78125 
Q 43.3125 58.59375 39.234375 62.25 
Q 35.15625 65.921875 28.609375 65.921875 
Q 23.96875 65.921875 18.8125 64.3125 
Q 13.671875 62.703125 7.8125 59.421875 
L 7.8125 69.390625 
Q 13.765625 71.78125 18.9375 73 
Q 24.125 74.21875 28.421875 74.21875 
Q 39.75 74.21875 46.484375 68.546875 
Q 53.21875 62.890625 53.21875 53.421875 
Q 53.21875 48.921875 51.53125 44.890625 
Q 49.859375 40.875 45.40625 35.40625 
Q 44.1875 33.984375 37.640625 27.21875 
Q 31.109375 20.453125 19.1875 8.296875 
z
" id="DejaVuSans-50"/>
        <path d="M 31.78125 66.40625 
Q 24.171875 66.40625 20.328125 58.90625 
Q 16.5 51.421875 16.5 36.375 
Q 16.5 21.390625 20.328125 13.890625 
Q 24.171875 6.390625 31.78125 6.390625 
Q 39.453125 6.390625 43.28125 13.890625 
Q 47.125 21.390625 47.125 36.375 
Q 47.125 51.421875 43.28125 58.90625 
Q 39.453125 66.40625 31.78125 66.40625 
z
M 31.78125 74.21875 
Q 44.046875 74.21875 50.515625 64.515625 
Q 56.984375 54.828125 56.984375 36.375 
Q 56.984375 17.96875 50.515625 8.265625 
Q 44.046875 -1.421875 31.78125 -1.421875 
Q 19.53125 -1.421875 13.0625 8.265625 
Q 6.59375 17.96875 6.59375 36.375 
Q 6.59375 54.828125 13.0625 64.515625 
Q 19.53125 74.21875 31.78125 74.21875 
z
" id="DejaVuSans-48"/>
       </defs>
       <use xlink:href="#DejaVuSans-8722"/>
       <use x="83.789062" xlink:href="#DejaVuSans-50"/>
       <use x="147.412109" xlink:href="#DejaVuSans-48"/>
      </g>
     </g>
    </g>
    <g id="xtick_2">
     <g id="line2d_2">
      <g>
       <use style="stroke:#000000;stroke-width:0.8;" x="123.762985" xlink:href="#m8a5ad67fc7" y="307.584"/>
      </g>
     </g>
     <g id="text_2">
      <!-- 0 -->
      <g transform="translate(120.581735 322.182437)scale(0.1 -0.1)">
       <use xlink:href="#DejaVuSans-48"/>
      </g>
     </g>
    </g>
    <g id="xtick_3">
     <g id="line2d_3">
      <g>
       <use style="stroke:#000000;stroke-width:0.8;" x="184.569891" xlink:href="#m8a5ad67fc7" y="307.584"/>
      </g>
     </g>
     <g id="text_3">
      <!-- 20 -->
      <g transform="translate(178.207391 322.182437)scale(0.1 -0.1)">
       <use xlink:href="#DejaVuSans-50"/>
       <use x="63.623047" xlink:href="#DejaVuSans-48"/>
      </g>
     </g>
    </g>
    <g id="xtick_4">
     <g id="line2d_4">
      <g>
       <use style="stroke:#000000;stroke-width:0.8;" x="245.376797" xlink:href="#m8a5ad67fc7" y="307.584"/>
      </g>
     </g>
     <g id="text_4">
      <!-- 40 -->
      <g transform="translate(239.014297 322.182437)scale(0.1 -0.1)">
       <defs>
        <path d="M 37.796875 64.3125 
L 12.890625 25.390625 
L 37.796875 25.390625 
z
M 35.203125 72.90625 
L 47.609375 72.90625 
L 47.609375 25.390625 
L 58.015625 25.390625 
L 58.015625 17.1875 
L 47.609375 17.1875 
L 47.609375 0 
L 37.796875 0 
L 37.796875 17.1875 
L 4.890625 17.1875 
L 4.890625 26.703125 
z
" id="DejaVuSans-52"/>
       </defs>
       <use xlink:href="#DejaVuSans-52"/>
       <use x="63.623047" xlink:href="#DejaVuSans-48"/>
      </g>
     </g>
    </g>
    <g id="xtick_5">
     <g id="line2d_5">
      <g>
       <use style="stroke:#000000;stroke-width:0.8;" x="306.183703" xlink:href="#m8a5ad67fc7" y="307.584"/>
      </g>
     </g>
     <g id="text_5">
      <!-- 60 -->
      <g transform="translate(299.821203 322.182437)scale(0.1 -0.1)">
       <defs>
        <path d="M 33.015625 40.375 
Q 26.375 40.375 22.484375 35.828125 
Q 18.609375 31.296875 18.609375 23.390625 
Q 18.609375 15.53125 22.484375 10.953125 
Q 26.375 6.390625 33.015625 6.390625 
Q 39.65625 6.390625 43.53125 10.953125 
Q 47.40625 15.53125 47.40625 23.390625 
Q 47.40625 31.296875 43.53125 35.828125 
Q 39.65625 40.375 33.015625 40.375 
z
M 52.59375 71.296875 
L 52.59375 62.3125 
Q 48.875 64.0625 45.09375 64.984375 
Q 41.3125 65.921875 37.59375 65.921875 
Q 27.828125 65.921875 22.671875 59.328125 
Q 17.53125 52.734375 16.796875 39.40625 
Q 19.671875 43.65625 24.015625 45.921875 
Q 28.375 48.1875 33.59375 48.1875 
Q 44.578125 48.1875 50.953125 41.515625 
Q 57.328125 34.859375 57.328125 23.390625 
Q 57.328125 12.15625 50.6875 5.359375 
Q 44.046875 -1.421875 33.015625 -1.421875 
Q 20.359375 -1.421875 13.671875 8.265625 
Q 6.984375 17.96875 6.984375 36.375 
Q 6.984375 53.65625 15.1875 63.9375 
Q 23.390625 74.21875 37.203125 74.21875 
Q 40.921875 74.21875 44.703125 73.484375 
Q 48.484375 72.75 52.59375 71.296875 
z
" id="DejaVuSans-54"/>
       </defs>
       <use xlink:href="#DejaVuSans-54"/>
       <use x="63.623047" xlink:href="#DejaVuSans-48"/>
      </g>
     </g>
    </g>
    <g id="xtick_6">
     <g id="line2d_6">
      <g>
       <use style="stroke:#000000;stroke-width:0.8;" x="366.990609" xlink:href="#m8a5ad67fc7" y="307.584"/>
      </g>
     </g>
     <g id="text_6">
      <!-- 80 -->
      <g transform="translate(360.628109 322.182437)scale(0.1 -0.1)">
       <defs>
        <path d="M 31.78125 34.625 
Q 24.75 34.625 20.71875 30.859375 
Q 16.703125 27.09375 16.703125 20.515625 
Q 16.703125 13.921875 20.71875 10.15625 
Q 24.75 6.390625 31.78125 6.390625 
Q 38.8125 6.390625 42.859375 10.171875 
Q 46.921875 13.96875 46.921875 20.515625 
Q 46.921875 27.09375 42.890625 30.859375 
Q 38.875 34.625 31.78125 34.625 
z
M 21.921875 38.8125 
Q 15.578125 40.375 12.03125 44.71875 
Q 8.5 49.078125 8.5 55.328125 
Q 8.5 64.0625 14.71875 69.140625 
Q 20.953125 74.21875 31.78125 74.21875 
Q 42.671875 74.21875 48.875 69.140625 
Q 55.078125 64.0625 55.078125 55.328125 
Q 55.078125 49.078125 51.53125 44.71875 
Q 48 40.375 41.703125 38.8125 
Q 48.828125 37.15625 52.796875 32.3125 
Q 56.78125 27.484375 56.78125 20.515625 
Q 56.78125 9.90625 50.3125 4.234375 
Q 43.84375 -1.421875 31.78125 -1.421875 
Q 19.734375 -1.421875 13.25 4.234375 
Q 6.78125 9.90625 6.78125 20.515625 
Q 6.78125 27.484375 10.78125 32.3125 
Q 14.796875 37.15625 21.921875 38.8125 
z
M 18.3125 54.390625 
Q 18.3125 48.734375 21.84375 45.5625 
Q 25.390625 42.390625 31.78125 42.390625 
Q 38.140625 42.390625 41.71875 45.5625 
Q 45.3125 48.734375 45.3125 54.390625 
Q 45.3125 60.0625 41.71875 63.234375 
Q 38.140625 66.40625 31.78125 66.40625 
Q 25.390625 66.40625 21.84375 63.234375 
Q 18.3125 60.0625 18.3125 54.390625 
z
" id="DejaVuSans-56"/>
       </defs>
       <use xlink:href="#DejaVuSans-56"/>
       <use x="63.623047" xlink:href="#DejaVuSans-48"/>
      </g>
     </g>
    </g>
   </g>
   <g id="matplotlib.axis_2">
    <g id="ytick_1">
     <g id="line2d_7">
      <defs>
       <path d="M 0 0 
L -3.5 0 
" id="m8a4d28d8f4" style="stroke:#000000;stroke-width:0.8;"/>
      </defs>
      <g>
       <use style="stroke:#000000;stroke-width:0.8;" x="57.6" xlink:href="#m8a4d28d8f4" y="292.827967"/>
      </g>
     </g>
     <g id="text_7">
      <!-- 10 -->
      <g transform="translate(37.875 296.627186)scale(0.1 -0.1)">
       <defs>
        <path d="M 12.40625 8.296875 
L 28.515625 8.296875 
L 28.515625 63.921875 
L 10.984375 60.40625 
L 10.984375 69.390625 
L 28.421875 72.90625 
L 38.28125 72.90625 
L 38.28125 8.296875 
L 54.390625 8.296875 
L 54.390625 0 
L 12.40625 0 
z
" id="DejaVuSans-49"/>
       </defs>
       <use xlink:href="#DejaVuSans-49"/>
       <use x="63.623047" xlink:href="#DejaVuSans-48"/>
      </g>
     </g>
    </g>
    <g id="ytick_2">
     <g id="line2d_8">
      <g>
       <use style="stroke:#000000;stroke-width:0.8;" x="57.6" xlink:href="#m8a4d28d8f4" y="262.424514"/>
      </g>
     </g>
     <g id="text_8">
      <!-- 20 -->
      <g transform="translate(37.875 266.223733)scale(0.1 -0.1)">
       <use xlink:href="#DejaVuSans-50"/>
       <use x="63.623047" xlink:href="#DejaVuSans-48"/>
      </g>
     </g>
    </g>
    <g id="ytick_3">
     <g id="line2d_9">
      <g>
       <use style="stroke:#000000;stroke-width:0.8;" x="57.6" xlink:href="#m8a4d28d8f4" y="232.021061"/>
      </g>
     </g>
     <g id="text_9">
      <!-- 30 -->
      <g transform="translate(37.875 235.82028)scale(0.1 -0.1)">
       <defs>
        <path d="M 40.578125 39.3125 
Q 47.65625 37.796875 51.625 33 
Q 55.609375 28.21875 55.609375 21.1875 
Q 55.609375 10.40625 48.1875 4.484375 
Q 40.765625 -1.421875 27.09375 -1.421875 
Q 22.515625 -1.421875 17.65625 -0.515625 
Q 12.796875 0.390625 7.625 2.203125 
L 7.625 11.71875 
Q 11.71875 9.328125 16.59375 8.109375 
Q 21.484375 6.890625 26.8125 6.890625 
Q 36.078125 6.890625 40.9375 10.546875 
Q 45.796875 14.203125 45.796875 21.1875 
Q 45.796875 27.640625 41.28125 31.265625 
Q 36.765625 34.90625 28.71875 34.90625 
L 20.21875 34.90625 
L 20.21875 43.015625 
L 29.109375 43.015625 
Q 36.375 43.015625 40.234375 45.921875 
Q 44.09375 48.828125 44.09375 54.296875 
Q 44.09375 59.90625 40.109375 62.90625 
Q 36.140625 65.921875 28.71875 65.921875 
Q 24.65625 65.921875 20.015625 65.03125 
Q 15.375 64.15625 9.8125 62.3125 
L 9.8125 71.09375 
Q 15.4375 72.65625 20.34375 73.4375 
Q 25.25 74.21875 29.59375 74.21875 
Q 40.828125 74.21875 47.359375 69.109375 
Q 53.90625 64.015625 53.90625 55.328125 
Q 53.90625 49.265625 50.4375 45.09375 
Q 46.96875 40.921875 40.578125 39.3125 
z
" id="DejaVuSans-51"/>
       </defs>
       <use xlink:href="#DejaVuSans-51"/>
       <use x="63.623047" xlink:href="#DejaVuSans-48"/>
      </g>
     </g>
    </g>
    <g id="ytick_4">
     <g id="line2d_10">
      <g>
       <use style="stroke:#000000;stroke-width:0.8;" x="57.6" xlink:href="#m8a4d28d8f4" y="201.617608"/>
      </g>
     </g>
     <g id="text_10">
      <!-- 40 -->
      <g transform="translate(37.875 205.416827)scale(0.1 -0.1)">
       <use xlink:href="#DejaVuSans-52"/>
       <use x="63.623047" xlink:href="#DejaVuSans-48"/>
      </g>
     </g>
    </g>
    <g id="ytick_5">
     <g id="line2d_11">
      <g>
       <use style="stroke:#000000;stroke-width:0.8;" x="57.6" xlink:href="#m8a4d28d8f4" y="171.214155"/>
      </g>
     </g>
     <g id="text_11">
      <!-- 50 -->
      <g transform="translate(37.875 175.013374)scale(0.1 -0.1)">
       <defs>
        <path d="M 10.796875 72.90625 
L 49.515625 72.90625 
L 49.515625 64.59375 
L 19.828125 64.59375 
L 19.828125 46.734375 
Q 21.96875 47.46875 24.109375 47.828125 
Q 26.265625 48.1875 28.421875 48.1875 
Q 40.625 48.1875 47.75 41.5 
Q 54.890625 34.8125 54.890625 23.390625 
Q 54.890625 11.625 47.5625 5.09375 
Q 40.234375 -1.421875 26.90625 -1.421875 
Q 22.3125 -1.421875 17.546875 -0.640625 
Q 12.796875 0.140625 7.71875 1.703125 
L 7.71875 11.625 
Q 12.109375 9.234375 16.796875 8.0625 
Q 21.484375 6.890625 26.703125 6.890625 
Q 35.15625 6.890625 40.078125 11.328125 
Q 45.015625 15.765625 45.015625 23.390625 
Q 45.015625 31 40.078125 35.4375 
Q 35.15625 39.890625 26.703125 39.890625 
Q 22.75 39.890625 18.8125 39.015625 
Q 14.890625 38.140625 10.796875 36.28125 
z
" id="DejaVuSans-53"/>
       </defs>
       <use xlink:href="#DejaVuSans-53"/>
       <use x="63.623047" xlink:href="#DejaVuSans-48"/>
      </g>
     </g>
    </g>
    <g id="ytick_6">
     <g id="line2d_12">
      <g>
       <use style="stroke:#000000;stroke-width:0.8;" x="57.6" xlink:href="#m8a4d28d8f4" y="140.810702"/>
      </g>
     </g>
     <g id="text_12">
      <!-- 60 -->
      <g transform="translate(37.875 144.609921)scale(0.1 -0.1)">
       <use xlink:href="#DejaVuSans-54"/>
       <use x="63.623047" xlink:href="#DejaVuSans-48"/>
      </g>
     </g>
    </g>
    <g id="ytick_7">
     <g id="line2d_13">
      <g>
       <use style="stroke:#000000;stroke-width:0.8;" x="57.6" xlink:href="#m8a4d28d8f4" y="110.407249"/>
      </g>
     </g>
     <g id="text_13">
      <!-- 70 -->
      <g transform="translate(37.875 114.206468)scale(0.1 -0.1)">
       <defs>
        <path d="M 8.203125 72.90625 
L 55.078125 72.90625 
L 55.078125 68.703125 
L 28.609375 0 
L 18.3125 0 
L 43.21875 64.59375 
L 8.203125 64.59375 
z
" id="DejaVuSans-55"/>
       </defs>
       <use xlink:href="#DejaVuSans-55"/>
       <use x="63.623047" xlink:href="#DejaVuSans-48"/>
      </g>
     </g>
    </g>
    <g id="ytick_8">
     <g id="line2d_14">
      <g>
       <use style="stroke:#000000;stroke-width:0.8;" x="57.6" xlink:href="#m8a4d28d8f4" y="80.003796"/>
      </g>
     </g>
     <g id="text_14">
      <!-- 80 -->
      <g transform="translate(37.875 83.803015)scale(0.1 -0.1)">
       <use xlink:href="#DejaVuSans-56"/>
       <use x="63.623047" xlink:href="#DejaVuSans-48"/>
      </g>
     </g>
    </g>
    <g id="ytick_9">
     <g id="line2d_15">
      <g>
       <use style="stroke:#000000;stroke-width:0.8;" x="57.6" xlink:href="#m8a4d28d8f4" y="49.600343"/>
      </g>
     </g>
     <g id="text_15">
      <!-- 90 -->
      <g transform="translate(37.875 53.399562)scale(0.1 -0.1)">
       <defs>
        <path d="M 10.984375 1.515625 
L 10.984375 10.5 
Q 14.703125 8.734375 18.5 7.8125 
Q 22.3125 6.890625 25.984375 6.890625 
Q 35.75 6.890625 40.890625 13.453125 
Q 46.046875 20.015625 46.78125 33.40625 
Q 43.953125 29.203125 39.59375 26.953125 
Q 35.25 24.703125 29.984375 24.703125 
Q 19.046875 24.703125 12.671875 31.3125 
Q 6.296875 37.9375 6.296875 49.421875 
Q 6.296875 60.640625 12.9375 67.421875 
Q 19.578125 74.21875 30.609375 74.21875 
Q 43.265625 74.21875 49.921875 64.515625 
Q 56.59375 54.828125 56.59375 36.375 
Q 56.59375 19.140625 48.40625 8.859375 
Q 40.234375 -1.421875 26.421875 -1.421875 
Q 22.703125 -1.421875 18.890625 -0.6875 
Q 15.09375 0.046875 10.984375 1.515625 
z
M 30.609375 32.421875 
Q 37.25 32.421875 41.125 36.953125 
Q 45.015625 41.5 45.015625 49.421875 
Q 45.015625 57.28125 41.125 61.84375 
Q 37.25 66.40625 30.609375 66.40625 
Q 23.96875 66.40625 20.09375 61.84375 
Q 16.21875 57.28125 16.21875 49.421875 
Q 16.21875 41.5 20.09375 36.953125 
Q 23.96875 32.421875 30.609375 32.421875 
z
" id="DejaVuSans-57"/>
       </defs>
       <use xlink:href="#DejaVuSans-57"/>
       <use x="63.623047" xlink:href="#DejaVuSans-48"/>
      </g>
     </g>
    </g>
   </g>
   <g id="line2d_16">
    <path clip-path="url(#p18b9a57cf7)" d="M 212.984958 292.827967 
L 212.319123 289.85755 
L 211.808345 286.850648 
L 211.449584 283.816384 
L 211.2398 280.760837 
L 211.178993 277.693128 
L 211.261082 274.619339 
L 211.486068 271.54859 
L 211.85395 268.486963 
L 212.361687 265.443577 
L 213.009281 262.424514 
L 213.79065 259.435855 
L 214.705794 256.48976 
L 215.751672 253.589271 
L 216.928286 250.743508 
L 218.232594 247.958551 
L 219.664597 245.246563 
L 221.221254 242.607544 
L 222.899524 240.056694 
L 224.699409 237.597055 
L 226.614826 235.234706 
L 228.648817 232.98181 
L 230.78618 230.826206 
L 233.020834 228.764851 
L 235.340617 226.788627 
L 240.196049 223.076365 
L 245.270385 219.628614 
L 250.478496 216.396727 
L 258.398596 211.830128 
L 279.65061 200.021427 
L 284.870882 196.847306 
L 289.951299 193.463402 
L 294.824973 189.805867 
L 297.159958 187.850925 
L 299.418935 185.801732 
L 301.589741 183.652208 
L 303.663257 181.396272 
L 305.636441 179.036964 
L 307.494092 176.580365 
L 309.233169 174.032555 
L 310.841512 171.402657 
L 312.309999 168.696749 
L 313.635589 165.920914 
L 314.806122 163.081232 
L 315.812476 160.186823 
L 316.648571 157.240728 
L 317.308326 154.255109 
L 317.791741 151.233006 
L 318.107937 148.18658 
L 318.262995 145.121912 
L 318.259954 142.048123 
L 318.107937 138.974334 
L 317.809983 135.909666 
L 317.372174 132.860199 
L 316.803629 129.835056 
L 316.10435 126.843356 
L 315.286497 123.891181 
L 314.34703 120.984611 
L 313.298111 118.117565 
L 312.139739 115.296125 
L 310.874956 112.520289 
L 308.047435 107.108475 
L 304.855072 101.885161 
L 301.325231 96.862511 
L 297.476154 92.067886 
L 295.436082 89.775466 
L 293.313921 87.565135 
L 291.112711 85.442974 
L 288.829412 83.412023 
L 286.470104 81.484444 
L 284.028707 79.669358 
L 281.511301 77.969805 
L 278.911806 76.394906 
L 276.242382 74.938581 
L 273.506072 73.603869 
L 270.708954 72.381651 
L 267.86015 71.271925 
L 262.028768 69.374749 
L 256.063611 67.88194 
L 250.019404 66.775254 
L 243.932633 66.045571 
L 237.83066 65.729375 
L 234.778153 65.732416 
L 231.731727 65.847949 
L 228.691382 66.079015 
L 225.663198 66.428655 
L 222.647176 66.902948 
L 219.646355 67.501896 
L 216.669857 68.225499 
L 213.723762 69.070715 
L 210.811111 70.040585 
L 207.944066 71.129028 
L 205.122625 72.336045 
L 202.358951 73.661636 
L 199.659125 75.099719 
L 197.026186 76.653336 
L 194.469255 78.319445 
L 191.994414 80.098047 
L 189.598622 81.97698 
L 187.278839 83.953205 
L 182.870338 88.170164 
L 178.744589 92.688117 
L 174.892472 97.452338 
L 171.289663 102.40506 
L 167.948323 107.521962 
L 164.892776 112.800001 
L 162.153425 118.239179 
L 159.754593 123.842535 
L 157.729723 129.60399 
L 156.863224 132.540963 
L 156.106178 135.50834 
L 155.458585 138.50308 
L 154.926524 141.519103 
L 154.516078 144.553367 
L 154.227245 147.599793 
L 154.072187 150.65534 
L 154.047865 153.710887 
L 154.166438 156.766434 
L 154.427908 159.815901 
L 154.826193 162.853206 
L 155.364334 165.872269 
L 156.03625 168.863968 
L 156.838902 171.828305 
L 157.766207 174.753117 
L 158.818166 177.635365 
L 159.988699 180.465926 
L 161.274765 183.241761 
L 162.673324 185.95679 
L 164.181335 188.60189 
L 165.789678 191.183143 
L 167.495312 193.703589 
L 171.168049 198.559021 
L 175.147861 203.192507 
L 179.380022 207.625331 
L 183.812845 211.875733 
L 188.397686 215.961957 
L 195.445206 221.838945 
L 204.879398 229.296912 
L 204.879398 229.296912 
" style="fill:none;stroke:#fea952;stroke-linecap:square;"/>
   </g>
   <g id="line2d_17">
    <path clip-path="url(#p18b9a57cf7)" d="M 201.118054 295.488 
L 200.329493 291.894211 
L 199.73109 288.27862 
L 199.316764 284.649383 
L 199.080807 281.001847 
L 199.021946 277.368459 
L 199.132212 273.730689 
L 199.411541 270.097729 
L 199.858361 266.485701 
L 200.470785 262.892961 
L 201.243373 259.348382 
L 202.176687 255.828215 
L 203.265445 252.364519 
L 204.513035 248.942527 
L 205.914923 245.585502 
L 207.47836 242.280026 
L 209.189739 239.067846 
L 211.061574 235.923225 
L 213.085203 232.874891 
L 215.252986 229.937793 
L 217.588074 227.085047 
L 220.012959 224.419034 
L 222.540388 221.887184 
L 225.134326 219.507304 
L 227.798215 217.248639 
L 233.237341 213.10262 
L 238.774025 209.347733 
L 244.292869 205.925948 
L 252.506982 201.191139 
L 273.413234 189.581392 
L 278.25415 186.643481 
L 282.804814 183.623334 
L 287.017971 180.481173 
L 290.862005 177.16008 
L 292.635957 175.422449 
L 294.334435 173.594203 
L 295.936224 171.701775 
L 297.449578 169.724205 
L 298.85816 167.687607 
L 300.152721 165.601886 
L 301.335751 163.456035 
L 302.391972 161.286233 
L 303.319248 159.087371 
L 304.113113 156.86657 
L 304.773667 154.61664 
L 305.299609 152.334198 
L 305.695342 149.977491 
L 305.962092 147.572058 
L 306.10162 145.133941 
L 306.113419 142.648842 
L 306.003627 140.151142 
L 305.772033 137.637946 
L 304.961441 132.603047 
L 303.714575 127.631478 
L 302.047984 122.736421 
L 299.999912 117.963873 
L 297.570409 113.283515 
L 294.803438 108.730879 
L 291.717206 104.31805 
L 288.391279 100.152702 
L 284.873169 96.320299 
L 281.134977 92.829818 
L 279.214177 91.244092 
L 275.209654 88.371172 
L 273.08745 87.070864 
L 270.910785 85.868963 
L 266.294688 83.713616 
L 261.407389 81.901739 
L 256.30443 80.423647 
L 251.036554 79.276946 
L 245.723544 78.458166 
L 240.459471 77.989786 
L 235.239032 77.885061 
L 230.08629 78.160133 
L 225.027571 78.829092 
L 220.02359 79.915309 
L 215.127468 81.410205 
L 210.382095 83.301317 
L 205.839455 85.573626 
L 201.566576 88.195033 
L 197.48513 91.234528 
L 193.601087 94.656293 
L 189.88663 98.444477 
L 186.349743 102.554375 
L 182.980515 106.942114 
L 179.850645 111.467413 
L 176.993424 116.081791 
L 174.424316 120.807006 
L 172.164307 125.629571 
L 170.234435 130.538377 
L 168.647156 135.547314 
L 167.435035 140.615861 
L 166.623165 145.701245 
L 166.372997 148.216145 
L 166.200099 153.239308 
L 166.28336 155.727496 
L 166.486059 158.234702 
L 166.798862 160.719105 
L 167.230128 163.207288 
L 167.774926 165.685496 
L 169.190459 170.583506 
L 171.023299 175.35351 
L 173.238333 179.93352 
L 175.861587 184.367291 
L 178.872122 188.668631 
L 182.232516 192.846097 
L 185.931913 196.930869 
L 189.905625 200.911657 
L 194.111171 204.795915 
L 198.517008 208.609761 
L 205.361394 214.202777 
L 212.371542 219.717404 
L 212.371542 219.717404 
" style="fill:none;stroke:#ffffff;stroke-linecap:square;"/>
   </g>
   <g id="line2d_18">
    <path clip-path="url(#p18b9a57cf7)" d="M 224.851862 290.167934 
L 224.308752 287.820889 
L 223.8856 285.422676 
L 223.582403 282.983384 
L 223.398793 280.519826 
L 223.33604 278.017797 
L 223.389953 275.507989 
L 223.560595 272.999452 
L 223.849538 270.488225 
L 224.252589 267.994194 
L 224.775189 265.500647 
L 225.404612 263.043494 
L 226.146142 260.615001 
L 226.990309 258.236015 
L 227.941649 255.901513 
L 228.986828 253.637076 
L 230.139454 251.425281 
L 231.380933 249.291862 
L 232.713846 247.238496 
L 234.145831 245.256316 
L 235.641578 243.384365 
L 237.284676 241.544587 
L 239.031972 239.765227 
L 242.883019 236.328615 
L 247.154756 233.05011 
L 251.766744 229.909494 
L 256.664124 226.867505 
L 264.29021 222.469117 
L 285.887985 210.461462 
L 291.487615 207.051132 
L 297.097785 203.30347 
L 299.868253 201.284002 
L 302.631975 199.13056 
L 305.330929 196.85839 
L 307.975864 194.443384 
L 310.543526 191.881967 
L 312.992078 189.19834 
L 315.336657 186.372152 
L 317.538606 183.436525 
L 319.608179 180.377503 
L 321.530303 177.203427 
L 323.284246 173.937463 
L 324.879206 170.555596 
L 326.292996 167.075092 
L 327.51184 163.507076 
L 328.523476 159.864816 
L 329.317044 156.176021 
L 329.888141 152.48852 
L 330.253782 148.801102 
L 330.42437 145.109883 
L 330.40649 141.447404 
L 330.212247 137.797526 
L 329.847933 134.181386 
L 329.324304 130.61392 
L 328.645817 127.067065 
L 327.824303 123.59653 
L 326.858418 120.150884 
L 325.768061 116.806185 
L 324.548238 113.498709 
L 323.206482 110.253666 
L 321.75 107.076705 
L 320.189497 103.975529 
L 318.52446 100.933434 
L 316.767803 97.965236 
L 314.906706 95.039444 
L 310.933256 89.406972 
L 308.796635 86.664322 
L 306.561029 83.983071 
L 304.208666 81.35282 
L 301.754673 78.809971 
L 299.195297 76.356115 
L 296.523847 73.994229 
L 293.726031 71.724797 
L 290.833506 69.589978 
L 287.812948 67.568438 
L 284.736161 65.718948 
L 281.57398 64.008199 
L 278.375498 62.459908 
L 275.12322 61.049685 
L 271.828736 59.776294 
L 268.518013 58.641563 
L 265.178762 57.628399 
L 261.812272 56.732711 
L 255.058623 55.289038 
L 248.234573 54.265368 
L 244.767286 53.912865 
L 241.306862 53.681789 
L 237.818547 53.568 
L 234.317274 53.57977 
L 230.81012 53.721538 
L 227.296474 53.997896 
L 223.773941 54.414917 
L 220.26678 54.976804 
L 216.773533 55.684702 
L 213.316124 56.535688 
L 209.881609 57.532212 
L 206.494755 58.670965 
L 203.160735 59.947842 
L 199.863155 61.370774 
L 196.641596 62.927996 
L 193.478794 64.625813 
L 190.386881 66.464184 
L 187.371935 68.443857 
L 184.489435 70.528591 
L 181.712114 72.719433 
L 179.032031 75.01512 
L 176.475121 77.384986 
L 174.026506 79.82236 
L 171.658369 82.340835 
L 167.223472 87.528313 
L 163.137772 92.87576 
L 159.323493 98.420084 
L 155.771667 104.197607 
L 152.539796 110.192649 
L 149.655541 116.412619 
L 148.352174 119.613583 
L 147.152589 122.868623 
L 146.065401 126.162652 
L 145.079293 129.534612 
L 144.219539 132.93793 
L 143.482135 136.390299 
L 142.874904 139.888874 
L 142.40899 143.40549 
L 142.081492 146.983442 
L 141.911191 150.558536 
L 141.89563 154.182467 
L 142.049516 157.805373 
L 142.369757 161.3971 
L 142.853524 164.987307 
L 143.49854 168.537249 
L 144.297575 172.042441 
L 145.246216 175.503741 
L 146.341955 178.922728 
L 147.579816 182.282803 
L 148.954099 185.578342 
L 150.463458 188.810856 
L 152.108315 191.980059 
L 153.859636 195.033197 
L 155.717769 197.998995 
L 157.679438 200.88327 
L 161.828397 206.348121 
L 166.252003 211.484847 
L 170.877512 216.320532 
L 175.651406 220.891836 
L 180.506009 225.215099 
L 187.836161 231.325863 
L 197.387253 238.87642 
L 197.387253 238.87642 
" style="fill:none;stroke:#ffffff;stroke-linecap:square;"/>
   </g>
   <g id="patch_3">
    <path d="M 57.6 307.584 
L 57.6 41.472 
" style="fill:none;stroke:#000000;stroke-linecap:square;stroke-linejoin:miter;stroke-width:0.8;"/>
   </g>
   <g id="patch_4">
    <path d="M 414.72 307.584 
L 414.72 41.472 
" style="fill:none;stroke:#000000;stroke-linecap:square;stroke-linejoin:miter;stroke-width:0.8;"/>
   </g>
   <g id="patch_5">
    <path d="M 57.6 307.584 
L 414.72 307.584 
" style="fill:none;stroke:#000000;stroke-linecap:square;stroke-linejoin:miter;stroke-width:0.8;"/>
   </g>
   <g id="patch_6">
    <path d="M 57.6 41.472 
L 414.72 41.472 
" style="fill:none;stroke:#000000;stroke-linecap:square;stroke-linejoin:miter;stroke-width:0.8;"/>
   </g>
  </g>
 </g>
 <defs>
  <clipPath id="p18b9a57cf7">
   <rect height="266.112" width="357.12" x="57.6" y="41.472"/>
  </clipPath>
 </defs>
</svg>
