<?xml version="1.0" encoding="utf-8" standalone="no"?>
<!DOCTYPE svg PUBLIC "-//W3C//DTD SVG 1.1//EN"
  "http://www.w3.org/Graphics/SVG/1.1/DTD/svg11.dtd">
<!-- Created with matplotlib (https://matplotlib.org/) -->
<svg height="345.6pt" version="1.1" viewBox="0 0 460.8 345.6" width="460.8pt" xmlns="http://www.w3.org/2000/svg" xmlns:xlink="http://www.w3.org/1999/xlink">
 <metadata>
  <rdf:RDF xmlns:cc="http://creativecommons.org/ns#" xmlns:dc="http://purl.org/dc/elements/1.1/" xmlns:rdf="http://www.w3.org/1999/02/22-rdf-syntax-ns#">
   <cc:Work>
    <dc:type rdf:resource="http://purl.org/dc/dcmitype/StillImage"/>
    <dc:date>2021-01-25T13:55:19.065427</dc:date>
    <dc:format>image/svg+xml</dc:format>
    <dc:creator>
     <cc:Agent>
      <dc:title>Matplotlib v3.3.3, https://matplotlib.org/</dc:title>
     </cc:Agent>
    </dc:creator>
   </cc:Work>
  </rdf:RDF>
 </metadata>
 <defs>
  <style type="text/css">*{stroke-linecap:butt;stroke-linejoin:round;}</style>
 </defs>
 <g id="figure_1">
  <g id="patch_1">
   <path d="M 0 345.6 
L 460.8 345.6 
L 460.8 0 
L 0 0 
z
" style="fill:#ffffff;"/>
  </g>
  <g id="axes_1">
   <g id="patch_2">
    <path d="M 57.6 307.584 
L 414.72 307.584 
L 414.72 41.472 
L 57.6 41.472 
z
" style="fill:#7d9051;"/>
   </g>
   <g id="matplotlib.axis_1">
    <g id="xtick_1">
     <g id="line2d_1">
      <defs>
       <path d="M 0 0 
L 0 3.5 
" id="mc51c4f38a9" style="stroke:#000000;stroke-width:0.8;"/>
      </defs>
      <g>
       <use style="stroke:#000000;stroke-width:0.8;" x="82.436924" xlink:href="#mc51c4f38a9" y="307.584"/>
      </g>
     </g>
     <g id="text_1">
      <!-- 0 -->
      <g transform="translate(79.255674 322.182437)scale(0.1 -0.1)">
       <defs>
        <path d="M 31.78125 66.40625 
Q 24.171875 66.40625 20.328125 58.90625 
Q 16.5 51.421875 16.5 36.375 
Q 16.5 21.390625 20.328125 13.890625 
Q 24.171875 6.390625 31.78125 6.390625 
Q 39.453125 6.390625 43.28125 13.890625 
Q 47.125 21.390625 47.125 36.375 
Q 47.125 51.421875 43.28125 58.90625 
Q 39.453125 66.40625 31.78125 66.40625 
z
M 31.78125 74.21875 
Q 44.046875 74.21875 50.515625 64.515625 
Q 56.984375 54.828125 56.984375 36.375 
Q 56.984375 17.96875 50.515625 8.265625 
Q 44.046875 -1.421875 31.78125 -1.421875 
Q 19.53125 -1.421875 13.0625 8.265625 
Q 6.59375 17.96875 6.59375 36.375 
Q 6.59375 54.828125 13.0625 64.515625 
Q 19.53125 74.21875 31.78125 74.21875 
z
" id="DejaVuSans-48"/>
       </defs>
       <use xlink:href="#DejaVuSans-48"/>
      </g>
     </g>
    </g>
    <g id="xtick_2">
     <g id="line2d_2">
      <g>
       <use style="stroke:#000000;stroke-width:0.8;" x="148.378238" xlink:href="#mc51c4f38a9" y="307.584"/>
      </g>
     </g>
     <g id="text_2">
      <!-- 20 -->
      <g transform="translate(142.015738 322.182437)scale(0.1 -0.1)">
       <defs>
        <path d="M 19.1875 8.296875 
L 53.609375 8.296875 
L 53.609375 0 
L 7.328125 0 
L 7.328125 8.296875 
Q 12.9375 14.109375 22.625 23.890625 
Q 32.328125 33.6875 34.8125 36.53125 
Q 39.546875 41.84375 41.421875 45.53125 
Q 43.3125 49.21875 43.3125 52.78125 
Q 43.3125 58.59375 39.234375 62.25 
Q 35.15625 65.921875 28.609375 65.921875 
Q 23.96875 65.921875 18.8125 64.3125 
Q 13.671875 62.703125 7.8125 59.421875 
L 7.8125 69.390625 
Q 13.765625 71.78125 18.9375 73 
Q 24.125 74.21875 28.421875 74.21875 
Q 39.75 74.21875 46.484375 68.546875 
Q 53.21875 62.890625 53.21875 53.421875 
Q 53.21875 48.921875 51.53125 44.890625 
Q 49.859375 40.875 45.40625 35.40625 
Q 44.1875 33.984375 37.640625 27.21875 
Q 31.109375 20.453125 19.1875 8.296875 
z
" id="DejaVuSans-50"/>
       </defs>
       <use xlink:href="#DejaVuSans-50"/>
       <use x="63.623047" xlink:href="#DejaVuSans-48"/>
      </g>
     </g>
    </g>
    <g id="xtick_3">
     <g id="line2d_3">
      <g>
       <use style="stroke:#000000;stroke-width:0.8;" x="214.319553" xlink:href="#mc51c4f38a9" y="307.584"/>
      </g>
     </g>
     <g id="text_3">
      <!-- 40 -->
      <g transform="translate(207.957053 322.182437)scale(0.1 -0.1)">
       <defs>
        <path d="M 37.796875 64.3125 
L 12.890625 25.390625 
L 37.796875 25.390625 
z
M 35.203125 72.90625 
L 47.609375 72.90625 
L 47.609375 25.390625 
L 58.015625 25.390625 
L 58.015625 17.1875 
L 47.609375 17.1875 
L 47.609375 0 
L 37.796875 0 
L 37.796875 17.1875 
L 4.890625 17.1875 
L 4.890625 26.703125 
z
" id="DejaVuSans-52"/>
       </defs>
       <use xlink:href="#DejaVuSans-52"/>
       <use x="63.623047" xlink:href="#DejaVuSans-48"/>
      </g>
     </g>
    </g>
    <g id="xtick_4">
     <g id="line2d_4">
      <g>
       <use style="stroke:#000000;stroke-width:0.8;" x="280.260868" xlink:href="#mc51c4f38a9" y="307.584"/>
      </g>
     </g>
     <g id="text_4">
      <!-- 60 -->
      <g transform="translate(273.898368 322.182437)scale(0.1 -0.1)">
       <defs>
        <path d="M 33.015625 40.375 
Q 26.375 40.375 22.484375 35.828125 
Q 18.609375 31.296875 18.609375 23.390625 
Q 18.609375 15.53125 22.484375 10.953125 
Q 26.375 6.390625 33.015625 6.390625 
Q 39.65625 6.390625 43.53125 10.953125 
Q 47.40625 15.53125 47.40625 23.390625 
Q 47.40625 31.296875 43.53125 35.828125 
Q 39.65625 40.375 33.015625 40.375 
z
M 52.59375 71.296875 
L 52.59375 62.3125 
Q 48.875 64.0625 45.09375 64.984375 
Q 41.3125 65.921875 37.59375 65.921875 
Q 27.828125 65.921875 22.671875 59.328125 
Q 17.53125 52.734375 16.796875 39.40625 
Q 19.671875 43.65625 24.015625 45.921875 
Q 28.375 48.1875 33.59375 48.1875 
Q 44.578125 48.1875 50.953125 41.515625 
Q 57.328125 34.859375 57.328125 23.390625 
Q 57.328125 12.15625 50.6875 5.359375 
Q 44.046875 -1.421875 33.015625 -1.421875 
Q 20.359375 -1.421875 13.671875 8.265625 
Q 6.984375 17.96875 6.984375 36.375 
Q 6.984375 53.65625 15.1875 63.9375 
Q 23.390625 74.21875 37.203125 74.21875 
Q 40.921875 74.21875 44.703125 73.484375 
Q 48.484375 72.75 52.59375 71.296875 
z
" id="DejaVuSans-54"/>
       </defs>
       <use xlink:href="#DejaVuSans-54"/>
       <use x="63.623047" xlink:href="#DejaVuSans-48"/>
      </g>
     </g>
    </g>
    <g id="xtick_5">
     <g id="line2d_5">
      <g>
       <use style="stroke:#000000;stroke-width:0.8;" x="346.202182" xlink:href="#mc51c4f38a9" y="307.584"/>
      </g>
     </g>
     <g id="text_5">
      <!-- 80 -->
      <g transform="translate(339.839682 322.182437)scale(0.1 -0.1)">
       <defs>
        <path d="M 31.78125 34.625 
Q 24.75 34.625 20.71875 30.859375 
Q 16.703125 27.09375 16.703125 20.515625 
Q 16.703125 13.921875 20.71875 10.15625 
Q 24.75 6.390625 31.78125 6.390625 
Q 38.8125 6.390625 42.859375 10.171875 
Q 46.921875 13.96875 46.921875 20.515625 
Q 46.921875 27.09375 42.890625 30.859375 
Q 38.875 34.625 31.78125 34.625 
z
M 21.921875 38.8125 
Q 15.578125 40.375 12.03125 44.71875 
Q 8.5 49.078125 8.5 55.328125 
Q 8.5 64.0625 14.71875 69.140625 
Q 20.953125 74.21875 31.78125 74.21875 
Q 42.671875 74.21875 48.875 69.140625 
Q 55.078125 64.0625 55.078125 55.328125 
Q 55.078125 49.078125 51.53125 44.71875 
Q 48 40.375 41.703125 38.8125 
Q 48.828125 37.15625 52.796875 32.3125 
Q 56.78125 27.484375 56.78125 20.515625 
Q 56.78125 9.90625 50.3125 4.234375 
Q 43.84375 -1.421875 31.78125 -1.421875 
Q 19.734375 -1.421875 13.25 4.234375 
Q 6.78125 9.90625 6.78125 20.515625 
Q 6.78125 27.484375 10.78125 32.3125 
Q 14.796875 37.15625 21.921875 38.8125 
z
M 18.3125 54.390625 
Q 18.3125 48.734375 21.84375 45.5625 
Q 25.390625 42.390625 31.78125 42.390625 
Q 38.140625 42.390625 41.71875 45.5625 
Q 45.3125 48.734375 45.3125 54.390625 
Q 45.3125 60.0625 41.71875 63.234375 
Q 38.140625 66.40625 31.78125 66.40625 
Q 25.390625 66.40625 21.84375 63.234375 
Q 18.3125 60.0625 18.3125 54.390625 
z
" id="DejaVuSans-56"/>
       </defs>
       <use xlink:href="#DejaVuSans-56"/>
       <use x="63.623047" xlink:href="#DejaVuSans-48"/>
      </g>
     </g>
    </g>
    <g id="xtick_6">
     <g id="line2d_6">
      <g>
       <use style="stroke:#000000;stroke-width:0.8;" x="412.143497" xlink:href="#mc51c4f38a9" y="307.584"/>
      </g>
     </g>
     <g id="text_6">
      <!-- 100 -->
      <g transform="translate(402.599747 322.182437)scale(0.1 -0.1)">
       <defs>
        <path d="M 12.40625 8.296875 
L 28.515625 8.296875 
L 28.515625 63.921875 
L 10.984375 60.40625 
L 10.984375 69.390625 
L 28.421875 72.90625 
L 38.28125 72.90625 
L 38.28125 8.296875 
L 54.390625 8.296875 
L 54.390625 0 
L 12.40625 0 
z
" id="DejaVuSans-49"/>
       </defs>
       <use xlink:href="#DejaVuSans-49"/>
       <use x="63.623047" xlink:href="#DejaVuSans-48"/>
       <use x="127.246094" xlink:href="#DejaVuSans-48"/>
      </g>
     </g>
    </g>
   </g>
   <g id="matplotlib.axis_2">
    <g id="ytick_1">
     <g id="line2d_7">
      <defs>
       <path d="M 0 0 
L -3.5 0 
" id="md3ddf599c0" style="stroke:#000000;stroke-width:0.8;"/>
      </defs>
      <g>
       <use style="stroke:#000000;stroke-width:0.8;" x="57.6" xlink:href="#md3ddf599c0" y="280.630265"/>
      </g>
     </g>
     <g id="text_7">
      <!-- 10 -->
      <g transform="translate(37.875 284.429483)scale(0.1 -0.1)">
       <use xlink:href="#DejaVuSans-49"/>
       <use x="63.623047" xlink:href="#DejaVuSans-48"/>
      </g>
     </g>
    </g>
    <g id="ytick_2">
     <g id="line2d_8">
      <g>
       <use style="stroke:#000000;stroke-width:0.8;" x="57.6" xlink:href="#md3ddf599c0" y="247.659607"/>
      </g>
     </g>
     <g id="text_8">
      <!-- 20 -->
      <g transform="translate(37.875 251.458826)scale(0.1 -0.1)">
       <use xlink:href="#DejaVuSans-50"/>
       <use x="63.623047" xlink:href="#DejaVuSans-48"/>
      </g>
     </g>
    </g>
    <g id="ytick_3">
     <g id="line2d_9">
      <g>
       <use style="stroke:#000000;stroke-width:0.8;" x="57.6" xlink:href="#md3ddf599c0" y="214.68895"/>
      </g>
     </g>
     <g id="text_9">
      <!-- 30 -->
      <g transform="translate(37.875 218.488169)scale(0.1 -0.1)">
       <defs>
        <path d="M 40.578125 39.3125 
Q 47.65625 37.796875 51.625 33 
Q 55.609375 28.21875 55.609375 21.1875 
Q 55.609375 10.40625 48.1875 4.484375 
Q 40.765625 -1.421875 27.09375 -1.421875 
Q 22.515625 -1.421875 17.65625 -0.515625 
Q 12.796875 0.390625 7.625 2.203125 
L 7.625 11.71875 
Q 11.71875 9.328125 16.59375 8.109375 
Q 21.484375 6.890625 26.8125 6.890625 
Q 36.078125 6.890625 40.9375 10.546875 
Q 45.796875 14.203125 45.796875 21.1875 
Q 45.796875 27.640625 41.28125 31.265625 
Q 36.765625 34.90625 28.71875 34.90625 
L 20.21875 34.90625 
L 20.21875 43.015625 
L 29.109375 43.015625 
Q 36.375 43.015625 40.234375 45.921875 
Q 44.09375 48.828125 44.09375 54.296875 
Q 44.09375 59.90625 40.109375 62.90625 
Q 36.140625 65.921875 28.71875 65.921875 
Q 24.65625 65.921875 20.015625 65.03125 
Q 15.375 64.15625 9.8125 62.3125 
L 9.8125 71.09375 
Q 15.4375 72.65625 20.34375 73.4375 
Q 25.25 74.21875 29.59375 74.21875 
Q 40.828125 74.21875 47.359375 69.109375 
Q 53.90625 64.015625 53.90625 55.328125 
Q 53.90625 49.265625 50.4375 45.09375 
Q 46.96875 40.921875 40.578125 39.3125 
z
" id="DejaVuSans-51"/>
       </defs>
       <use xlink:href="#DejaVuSans-51"/>
       <use x="63.623047" xlink:href="#DejaVuSans-48"/>
      </g>
     </g>
    </g>
    <g id="ytick_4">
     <g id="line2d_10">
      <g>
       <use style="stroke:#000000;stroke-width:0.8;" x="57.6" xlink:href="#md3ddf599c0" y="181.718293"/>
      </g>
     </g>
     <g id="text_10">
      <!-- 40 -->
      <g transform="translate(37.875 185.517511)scale(0.1 -0.1)">
       <use xlink:href="#DejaVuSans-52"/>
       <use x="63.623047" xlink:href="#DejaVuSans-48"/>
      </g>
     </g>
    </g>
    <g id="ytick_5">
     <g id="line2d_11">
      <g>
       <use style="stroke:#000000;stroke-width:0.8;" x="57.6" xlink:href="#md3ddf599c0" y="148.747635"/>
      </g>
     </g>
     <g id="text_11">
      <!-- 50 -->
      <g transform="translate(37.875 152.546854)scale(0.1 -0.1)">
       <defs>
        <path d="M 10.796875 72.90625 
L 49.515625 72.90625 
L 49.515625 64.59375 
L 19.828125 64.59375 
L 19.828125 46.734375 
Q 21.96875 47.46875 24.109375 47.828125 
Q 26.265625 48.1875 28.421875 48.1875 
Q 40.625 48.1875 47.75 41.5 
Q 54.890625 34.8125 54.890625 23.390625 
Q 54.890625 11.625 47.5625 5.09375 
Q 40.234375 -1.421875 26.90625 -1.421875 
Q 22.3125 -1.421875 17.546875 -0.640625 
Q 12.796875 0.140625 7.71875 1.703125 
L 7.71875 11.625 
Q 12.109375 9.234375 16.796875 8.0625 
Q 21.484375 6.890625 26.703125 6.890625 
Q 35.15625 6.890625 40.078125 11.328125 
Q 45.015625 15.765625 45.015625 23.390625 
Q 45.015625 31 40.078125 35.4375 
Q 35.15625 39.890625 26.703125 39.890625 
Q 22.75 39.890625 18.8125 39.015625 
Q 14.890625 38.140625 10.796875 36.28125 
z
" id="DejaVuSans-53"/>
       </defs>
       <use xlink:href="#DejaVuSans-53"/>
       <use x="63.623047" xlink:href="#DejaVuSans-48"/>
      </g>
     </g>
    </g>
    <g id="ytick_6">
     <g id="line2d_12">
      <g>
       <use style="stroke:#000000;stroke-width:0.8;" x="57.6" xlink:href="#md3ddf599c0" y="115.776978"/>
      </g>
     </g>
     <g id="text_12">
      <!-- 60 -->
      <g transform="translate(37.875 119.576197)scale(0.1 -0.1)">
       <use xlink:href="#DejaVuSans-54"/>
       <use x="63.623047" xlink:href="#DejaVuSans-48"/>
      </g>
     </g>
    </g>
    <g id="ytick_7">
     <g id="line2d_13">
      <g>
       <use style="stroke:#000000;stroke-width:0.8;" x="57.6" xlink:href="#md3ddf599c0" y="82.806321"/>
      </g>
     </g>
     <g id="text_13">
      <!-- 70 -->
      <g transform="translate(37.875 86.605539)scale(0.1 -0.1)">
       <defs>
        <path d="M 8.203125 72.90625 
L 55.078125 72.90625 
L 55.078125 68.703125 
L 28.609375 0 
L 18.3125 0 
L 43.21875 64.59375 
L 8.203125 64.59375 
z
" id="DejaVuSans-55"/>
       </defs>
       <use xlink:href="#DejaVuSans-55"/>
       <use x="63.623047" xlink:href="#DejaVuSans-48"/>
      </g>
     </g>
    </g>
    <g id="ytick_8">
     <g id="line2d_14">
      <g>
       <use style="stroke:#000000;stroke-width:0.8;" x="57.6" xlink:href="#md3ddf599c0" y="49.835663"/>
      </g>
     </g>
     <g id="text_14">
      <!-- 80 -->
      <g transform="translate(37.875 53.634882)scale(0.1 -0.1)">
       <use xlink:href="#DejaVuSans-56"/>
       <use x="63.623047" xlink:href="#DejaVuSans-48"/>
      </g>
     </g>
    </g>
   </g>
   <g id="line2d_15">
    <path clip-path="url(#pbec707b8fe)" d="M 115.407581 163.732799 
L 114.975665 150.811598 
L 114.909724 144.168011 
L 115.03831 137.468373 
L 115.433957 130.762142 
L 116.169203 124.098772 
L 116.686842 120.798409 
L 117.316582 117.531017 
L 118.065016 114.299893 
L 118.945332 111.11163 
L 119.964126 107.969526 
L 121.131287 104.88677 
L 122.45341 101.863361 
L 123.940387 98.905893 
L 125.602108 96.027554 
L 127.428683 93.231642 
L 129.413516 90.534643 
L 131.546718 87.946446 
L 133.818396 85.476944 
L 136.225254 83.139324 
L 138.754103 80.946776 
L 141.395053 78.905892 
L 144.148103 77.033159 
L 146.993471 75.33517 
L 149.931156 73.821817 
L 152.947971 72.489802 
L 156.037322 71.325938 
L 159.189317 70.317036 
L 162.394065 69.459799 
L 165.641674 68.737741 
L 168.925552 68.144269 
L 175.565842 67.30022 
L 182.239103 66.845225 
L 188.899176 66.766096 
L 195.519684 67.099099 
L 198.806859 67.4354 
L 202.074251 67.893692 
L 205.32186 68.473976 
L 208.543094 69.189439 
L 211.734653 70.040082 
L 214.893242 71.032499 
L 218.015564 72.163392 
L 221.091726 73.426169 
L 224.115135 74.824124 
L 227.0759 76.347369 
L 229.970724 77.989308 
L 232.793012 79.753238 
L 235.532874 81.632565 
L 238.183715 83.620696 
L 240.738941 85.71763 
L 243.195255 87.913475 
L 247.847414 92.572229 
L 252.229215 97.498046 
L 256.432973 102.598606 
L 268.912367 118.061845 
L 273.224929 123.063493 
L 277.66278 127.936556 
L 282.255592 132.65136 
L 287.029743 137.181529 
L 291.978639 141.523764 
L 297.0792 145.704444 
L 302.301752 149.749943 
L 310.30373 155.612126 
L 323.732679 165.239558 
L 328.928855 169.294949 
L 333.910721 173.610808 
L 336.2945 175.895675 
L 338.599149 178.28275 
L 340.81148 180.765441 
L 342.924899 183.340449 
L 344.926218 186.007775 
L 346.808842 188.757528 
L 348.566178 191.58641 
L 350.185038 194.494422 
L 351.658826 197.471673 
L 352.974355 200.518161 
L 354.128328 203.627294 
L 355.110854 206.799072 
L 355.921932 210.017008 
L 356.554969 213.277806 
L 357.016558 216.574872 
L 357.300105 219.89172 
L 357.412206 223.22835 
L 357.346264 226.568278 
L 357.105579 229.904908 
L 356.686851 233.231648 
L 356.093379 236.541902 
L 355.325163 239.819185 
L 354.378905 243.053606 
L 353.2612 246.231978 
L 351.96875 249.337814 
L 350.50815 252.357926 
L 348.8794 255.282423 
L 347.082499 258.091523 
L 345.120745 260.772038 
L 342.994137 263.314075 
L 340.705974 265.701151 
L 338.262848 267.920076 
L 335.668057 269.970851 
L 332.944681 271.856773 
L 330.099313 273.581138 
L 327.151736 275.143947 
L 324.111842 276.551794 
L 320.992818 277.798085 
L 317.811149 278.892711 
L 314.580025 279.835672 
L 311.309336 280.630265 
L 308.018864 281.276489 
L 304.70861 281.767752 
L 301.388465 282.110647 
L 298.065022 282.291986 
L 294.74158 282.311768 
L 291.424732 282.169994 
L 288.121072 281.86007 
L 284.837195 281.378699 
L 281.576397 280.722582 
L 278.348569 279.888425 
L 275.15701 278.872929 
L 272.018203 277.682688 
L 268.945338 276.314406 
L 265.954899 274.777973 
L 263.060076 273.07339 
L 260.274055 271.200657 
L 257.619917 269.169664 
L 255.104256 266.980412 
L 252.746854 264.636199 
L 250.560899 262.143617 
L 248.55958 259.49937 
L 246.742897 256.723241 
L 245.114147 253.828417 
L 243.673329 250.821493 
L 242.417147 247.722252 
L 241.348898 244.54388 
L 240.465284 241.29627 
L 239.7729 237.995908 
L 239.261855 234.65598 
L 238.94204 231.286379 
L 238.80686 227.903589 
L 238.859613 224.524097 
L 239.097002 221.154496 
L 239.522323 217.811271 
L 240.135578 214.510908 
L 240.933467 211.263299 
L 241.91929 208.084927 
L 243.093046 204.982388 
L 244.451437 201.978762 
L 245.99776 199.080641 
L 245.99776 199.080641 
" style="fill:none;stroke:#fea952;stroke-linecap:square;"/>
   </g>
   <g id="line2d_16">
    <path clip-path="url(#pbec707b8fe)" d="M 102.229082 164.240192 
L 101.789077 151.021743 
L 101.722101 144.038084 
L 101.864683 136.84722 
L 102.305744 129.505047 
L 103.140222 122.055265 
L 103.73691 118.302509 
L 104.46849 114.554979 
L 105.352442 110.789802 
L 106.400043 107.043955 
L 107.630269 103.299809 
L 109.047856 99.60274 
L 110.670634 95.939133 
L 112.518865 92.312024 
L 114.561181 88.814496 
L 116.806827 85.41458 
L 119.236466 82.146679 
L 121.840549 79.017808 
L 124.629956 76.01635 
L 127.58588 73.174813 
L 130.689802 70.511387 
L 133.977375 68.001382 
L 137.389835 65.708138 
L 140.953819 63.611139 
L 144.604272 61.757216 
L 148.298504 60.148298 
L 152.016906 58.765423 
L 155.781405 57.57669 
L 159.531745 56.585895 
L 163.296247 55.759712 
L 167.053169 55.089597 
L 170.782255 54.561576 
L 178.186776 53.857735 
L 185.611648 53.568 
L 189.344648 53.585359 
L 193.095909 53.719318 
L 196.861928 53.979318 
L 200.638743 54.374984 
L 204.393992 54.911047 
L 208.181401 55.599454 
L 211.939578 56.446042 
L 215.687821 57.45824 
L 219.384466 58.632532 
L 223.023835 59.963085 
L 226.626652 61.455585 
L 230.148531 63.096874 
L 233.582494 64.875904 
L 236.960489 66.805683 
L 240.252875 68.877543 
L 243.445832 71.081955 
L 246.550055 73.425863 
L 249.528562 75.885395 
L 252.374352 78.443816 
L 255.041898 81.039257 
L 260.027347 86.36205 
L 264.575893 91.710139 
L 272.901335 102.113824 
L 278.951603 109.509416 
L 283.038175 114.252676 
L 287.184275 118.81124 
L 291.427874 123.175099 
L 295.818586 127.348598 
L 300.421559 131.39226 
L 305.224282 135.331984 
L 310.195751 139.185141 
L 317.940627 144.860006 
L 331.734086 154.755867 
L 337.406795 159.192731 
L 340.241508 161.580125 
L 343.036609 164.08986 
L 345.782381 166.735413 
L 348.44535 169.508778 
L 351.005826 172.398506 
L 353.473944 175.425405 
L 355.808346 178.557301 
L 358.011497 181.798303 
L 360.089244 185.171643 
L 362.004445 188.643619 
L 363.766474 192.24337 
L 365.338466 195.929149 
L 366.726009 199.724894 
L 367.899158 203.57579 
L 368.868483 207.503623 
L 369.615856 211.449282 
L 370.156893 215.451543 
L 370.480932 219.448886 
L 370.597899 223.48868 
L 370.500349 227.51714 
L 370.190599 231.551883 
L 369.66814 235.55897 
L 368.933598 239.551731 
L 367.982856 243.522302 
L 366.820305 247.428746 
L 365.437274 251.298879 
L 363.841434 255.079734 
L 362.03002 258.774841 
L 359.989154 262.389015 
L 357.725066 265.880364 
L 355.236099 269.2343 
L 352.514813 272.440248 
L 349.572768 275.463847 
L 346.44042 278.26694 
L 343.176313 280.813193 
L 339.779891 283.135522 
L 336.277124 285.232959 
L 332.69402 287.111126 
L 329.005375 288.798574 
L 325.283305 290.268931 
L 321.505847 291.552864 
L 317.693465 292.651161 
L 313.850865 293.57132 
L 309.954882 294.321876 
L 306.063449 294.886239 
L 302.106994 295.279322 
L 298.143523 295.480015 
L 294.178381 295.488 
L 290.192918 295.300604 
L 286.208294 294.908885 
L 282.235681 294.307829 
L 278.276601 293.491358 
L 274.34984 292.455861 
L 270.480908 291.204366 
L 266.653548 289.73054 
L 262.918388 288.044971 
L 259.263094 286.142392 
L 255.702748 284.018709 
L 252.259463 281.674271 
L 248.962187 279.118231 
L 245.804941 276.332044 
L 242.831431 273.331868 
L 240.045006 270.102654 
L 237.524177 266.720876 
L 235.249029 263.190178 
L 233.22076 259.527332 
L 231.450881 255.775486 
L 229.916075 251.923857 
L 228.623254 248.006289 
L 227.558 244.004092 
L 226.736362 239.990639 
L 226.132596 235.902103 
L 225.764294 231.812975 
L 225.620204 227.697749 
L 225.703957 223.59728 
L 226.014184 219.490114 
L 226.556004 215.401945 
L 227.328186 211.364321 
L 228.337193 207.356363 
L 229.584255 203.418325 
L 231.076525 199.547914 
L 232.815833 195.770459 
L 234.362157 192.872338 
L 234.362157 192.872338 
" style="fill:none;stroke:#ffffff;stroke-linecap:square;"/>
   </g>
   <g id="line2d_17">
    <path clip-path="url(#pbec707b8fe)" d="M 128.58608 163.225406 
L 128.162254 150.601454 
L 128.097347 144.297938 
L 128.211936 138.089527 
L 128.562171 132.019236 
L 129.198185 126.142278 
L 130.164674 120.507055 
L 130.77759 117.809983 
L 131.490622 115.179305 
L 132.297983 112.639243 
L 133.214718 110.1708 
L 134.236186 107.787588 
L 135.361909 105.499761 
L 136.643035 103.240613 
L 138.050538 101.048705 
L 139.590566 98.922606 
L 141.252886 96.875084 
L 143.006836 94.937538 
L 144.864628 93.103836 
L 146.818405 91.382164 
L 148.812731 89.810401 
L 150.906371 88.358179 
L 153.033123 87.0592 
L 155.25804 85.886417 
L 157.597439 84.831306 
L 160.057738 83.886453 
L 162.597228 83.057382 
L 165.256384 82.333703 
L 167.987101 81.715771 
L 173.689357 80.777408 
L 179.61817 80.195393 
L 185.533225 79.944409 
L 191.336139 80.037074 
L 196.974974 80.495817 
L 202.46232 81.348497 
L 205.14661 81.932836 
L 207.781486 82.621924 
L 210.402019 83.432466 
L 213.007292 84.3637 
L 215.5568 85.396752 
L 218.081739 86.551375 
L 220.569306 87.818834 
L 222.980959 89.172932 
L 225.33315 90.628932 
L 227.619916 92.183176 
L 229.817374 93.815529 
L 231.949319 95.549864 
L 234.016157 97.383135 
L 238.102644 101.458721 
L 242.105268 105.950027 
L 246.12827 110.829242 
L 258.873132 126.614273 
L 263.411684 131.87431 
L 268.141284 137.061873 
L 273.083311 142.127622 
L 278.240901 147.014459 
L 283.535719 151.655268 
L 288.934117 156.076903 
L 294.407753 160.314746 
L 302.666834 166.364246 
L 315.731273 175.723249 
L 320.450915 179.397167 
L 324.784833 183.131756 
L 328.752947 187.056723 
L 332.375853 191.255493 
L 334.044089 193.458249 
L 335.606188 195.716753 
L 337.043113 198.001178 
L 338.36563 200.345225 
L 339.551178 202.699975 
L 340.610244 205.107174 
L 341.530648 207.529694 
L 342.322549 210.022353 
L 342.975381 212.530393 
L 343.494081 215.10633 
L 343.876222 217.6982 
L 344.119279 220.334554 
L 344.226512 222.968021 
L 344.19218 225.619416 
L 344.020558 228.257934 
L 343.705563 230.904325 
L 343.253161 233.532072 
L 342.66747 236.116068 
L 341.937505 238.678467 
L 341.085125 241.165076 
L 340.096066 243.595893 
L 338.98628 245.941011 
L 337.769645 248.175832 
L 336.439931 250.302682 
L 335.00539 252.309776 
L 333.473462 254.187903 
L 331.839179 255.938455 
L 330.085276 257.573212 
L 328.159801 259.128509 
L 326.109471 260.578023 
L 323.921502 261.929317 
L 321.609453 263.176768 
L 319.218308 264.305015 
L 316.70233 265.327239 
L 314.116451 266.232557 
L 311.466584 267.020182 
L 308.767806 267.68921 
L 306.082845 268.231103 
L 303.353771 268.649266 
L 300.669936 268.941972 
L 297.986522 269.103956 
L 295.304779 269.135536 
L 292.656546 269.039384 
L 290.03385 268.811256 
L 287.438708 268.449568 
L 284.876193 267.953807 
L 282.347299 267.320989 
L 279.833112 266.541491 
L 277.382859 265.634835 
L 274.972288 264.58384 
L 272.646704 263.413554 
L 270.417403 262.128071 
L 268.288647 260.727042 
L 266.277648 259.221097 
L 264.403571 257.628781 
L 262.662277 255.94053 
L 261.076793 254.18458 
L 259.594984 252.277865 
L 258.236765 250.256304 
L 257.007534 248.129503 
L 255.895777 245.867501 
L 254.918219 243.520647 
L 254.074541 241.081472 
L 253.372568 238.588449 
L 252.809438 236.001176 
L 252.391115 233.409857 
L 252.119785 230.759783 
L 251.993517 228.10943 
L 252.015269 225.450914 
L 252.179819 222.818878 
L 252.488642 220.220597 
L 252.942969 217.657496 
L 253.529742 215.170234 
L 254.254326 212.751529 
L 255.109566 210.416863 
L 256.08704 208.187064 
L 257.633364 205.288943 
L 257.633364 205.288943 
" style="fill:none;stroke:#ffffff;stroke-linecap:square;"/>
   </g>
   <g id="patch_3">
    <path d="M 57.6 307.584 
L 57.6 41.472 
" style="fill:none;stroke:#000000;stroke-linecap:square;stroke-linejoin:miter;stroke-width:0.8;"/>
   </g>
   <g id="patch_4">
    <path d="M 414.72 307.584 
L 414.72 41.472 
" style="fill:none;stroke:#000000;stroke-linecap:square;stroke-linejoin:miter;stroke-width:0.8;"/>
   </g>
   <g id="patch_5">
    <path d="M 57.6 307.584 
L 414.72 307.584 
" style="fill:none;stroke:#000000;stroke-linecap:square;stroke-linejoin:miter;stroke-width:0.8;"/>
   </g>
   <g id="patch_6">
    <path d="M 57.6 41.472 
L 414.72 41.472 
" style="fill:none;stroke:#000000;stroke-linecap:square;stroke-linejoin:miter;stroke-width:0.8;"/>
   </g>
  </g>
 </g>
 <defs>
  <clipPath id="pbec707b8fe">
   <rect height="266.112" width="357.12" x="57.6" y="41.472"/>
  </clipPath>
 </defs>
</svg>
