<?xml version="1.0" encoding="utf-8" standalone="no"?>
<!DOCTYPE svg PUBLIC "-//W3C//DTD SVG 1.1//EN"
  "http://www.w3.org/Graphics/SVG/1.1/DTD/svg11.dtd">
<!-- Created with matplotlib (https://matplotlib.org/) -->
<svg height="345.6pt" version="1.1" viewBox="0 0 460.8 345.6" width="460.8pt" xmlns="http://www.w3.org/2000/svg" xmlns:xlink="http://www.w3.org/1999/xlink">
 <metadata>
  <rdf:RDF xmlns:cc="http://creativecommons.org/ns#" xmlns:dc="http://purl.org/dc/elements/1.1/" xmlns:rdf="http://www.w3.org/1999/02/22-rdf-syntax-ns#">
   <cc:Work>
    <dc:type rdf:resource="http://purl.org/dc/dcmitype/StillImage"/>
    <dc:date>2021-01-25T10:01:08.333736</dc:date>
    <dc:format>image/svg+xml</dc:format>
    <dc:creator>
     <cc:Agent>
      <dc:title>Matplotlib v3.3.3, https://matplotlib.org/</dc:title>
     </cc:Agent>
    </dc:creator>
   </cc:Work>
  </rdf:RDF>
 </metadata>
 <defs>
  <style type="text/css">*{stroke-linecap:butt;stroke-linejoin:round;}</style>
 </defs>
 <g id="figure_1">
  <g id="patch_1">
   <path d="M 0 345.6 
L 460.8 345.6 
L 460.8 0 
L 0 0 
z
" style="fill:#ffffff;"/>
  </g>
  <g id="axes_1">
   <g id="patch_2">
    <path d="M 57.6 307.584 
L 414.72 307.584 
L 414.72 41.472 
L 57.6 41.472 
z
" style="fill:#7d9051;"/>
   </g>
   <g id="matplotlib.axis_1">
    <g id="xtick_1">
     <g id="line2d_1">
      <defs>
       <path d="M 0 0 
L 0 3.5 
" id="m2013bc30a9" style="stroke:#000000;stroke-width:0.8;"/>
      </defs>
      <g>
       <use style="stroke:#000000;stroke-width:0.8;" x="80.49416" xlink:href="#m2013bc30a9" y="307.584"/>
      </g>
     </g>
     <g id="text_1">
      <!-- −20 -->
      <g transform="translate(69.941816 322.182437)scale(0.1 -0.1)">
       <defs>
        <path d="M 10.59375 35.5 
L 73.1875 35.5 
L 73.1875 27.203125 
L 10.59375 27.203125 
z
" id="DejaVuSans-8722"/>
        <path d="M 19.1875 8.296875 
L 53.609375 8.296875 
L 53.609375 0 
L 7.328125 0 
L 7.328125 8.296875 
Q 12.9375 14.109375 22.625 23.890625 
Q 32.328125 33.6875 34.8125 36.53125 
Q 39.546875 41.84375 41.421875 45.53125 
Q 43.3125 49.21875 43.3125 52.78125 
Q 43.3125 58.59375 39.234375 62.25 
Q 35.15625 65.921875 28.609375 65.921875 
Q 23.96875 65.921875 18.8125 64.3125 
Q 13.671875 62.703125 7.8125 59.421875 
L 7.8125 69.390625 
Q 13.765625 71.78125 18.9375 73 
Q 24.125 74.21875 28.421875 74.21875 
Q 39.75 74.21875 46.484375 68.546875 
Q 53.21875 62.890625 53.21875 53.421875 
Q 53.21875 48.921875 51.53125 44.890625 
Q 49.859375 40.875 45.40625 35.40625 
Q 44.1875 33.984375 37.640625 27.21875 
Q 31.109375 20.453125 19.1875 8.296875 
z
" id="DejaVuSans-50"/>
        <path d="M 31.78125 66.40625 
Q 24.171875 66.40625 20.328125 58.90625 
Q 16.5 51.421875 16.5 36.375 
Q 16.5 21.390625 20.328125 13.890625 
Q 24.171875 6.390625 31.78125 6.390625 
Q 39.453125 6.390625 43.28125 13.890625 
Q 47.125 21.390625 47.125 36.375 
Q 47.125 51.421875 43.28125 58.90625 
Q 39.453125 66.40625 31.78125 66.40625 
z
M 31.78125 74.21875 
Q 44.046875 74.21875 50.515625 64.515625 
Q 56.984375 54.828125 56.984375 36.375 
Q 56.984375 17.96875 50.515625 8.265625 
Q 44.046875 -1.421875 31.78125 -1.421875 
Q 19.53125 -1.421875 13.0625 8.265625 
Q 6.59375 17.96875 6.59375 36.375 
Q 6.59375 54.828125 13.0625 64.515625 
Q 19.53125 74.21875 31.78125 74.21875 
z
" id="DejaVuSans-48"/>
       </defs>
       <use xlink:href="#DejaVuSans-8722"/>
       <use x="83.789062" xlink:href="#DejaVuSans-50"/>
       <use x="147.412109" xlink:href="#DejaVuSans-48"/>
      </g>
     </g>
    </g>
    <g id="xtick_2">
     <g id="line2d_2">
      <g>
       <use style="stroke:#000000;stroke-width:0.8;" x="122.552041" xlink:href="#m2013bc30a9" y="307.584"/>
      </g>
     </g>
     <g id="text_2">
      <!-- 0 -->
      <g transform="translate(119.370791 322.182437)scale(0.1 -0.1)">
       <use xlink:href="#DejaVuSans-48"/>
      </g>
     </g>
    </g>
    <g id="xtick_3">
     <g id="line2d_3">
      <g>
       <use style="stroke:#000000;stroke-width:0.8;" x="164.609922" xlink:href="#m2013bc30a9" y="307.584"/>
      </g>
     </g>
     <g id="text_3">
      <!-- 20 -->
      <g transform="translate(158.247422 322.182437)scale(0.1 -0.1)">
       <use xlink:href="#DejaVuSans-50"/>
       <use x="63.623047" xlink:href="#DejaVuSans-48"/>
      </g>
     </g>
    </g>
    <g id="xtick_4">
     <g id="line2d_4">
      <g>
       <use style="stroke:#000000;stroke-width:0.8;" x="206.667803" xlink:href="#m2013bc30a9" y="307.584"/>
      </g>
     </g>
     <g id="text_4">
      <!-- 40 -->
      <g transform="translate(200.305303 322.182437)scale(0.1 -0.1)">
       <defs>
        <path d="M 37.796875 64.3125 
L 12.890625 25.390625 
L 37.796875 25.390625 
z
M 35.203125 72.90625 
L 47.609375 72.90625 
L 47.609375 25.390625 
L 58.015625 25.390625 
L 58.015625 17.1875 
L 47.609375 17.1875 
L 47.609375 0 
L 37.796875 0 
L 37.796875 17.1875 
L 4.890625 17.1875 
L 4.890625 26.703125 
z
" id="DejaVuSans-52"/>
       </defs>
       <use xlink:href="#DejaVuSans-52"/>
       <use x="63.623047" xlink:href="#DejaVuSans-48"/>
      </g>
     </g>
    </g>
    <g id="xtick_5">
     <g id="line2d_5">
      <g>
       <use style="stroke:#000000;stroke-width:0.8;" x="248.725684" xlink:href="#m2013bc30a9" y="307.584"/>
      </g>
     </g>
     <g id="text_5">
      <!-- 60 -->
      <g transform="translate(242.363184 322.182437)scale(0.1 -0.1)">
       <defs>
        <path d="M 33.015625 40.375 
Q 26.375 40.375 22.484375 35.828125 
Q 18.609375 31.296875 18.609375 23.390625 
Q 18.609375 15.53125 22.484375 10.953125 
Q 26.375 6.390625 33.015625 6.390625 
Q 39.65625 6.390625 43.53125 10.953125 
Q 47.40625 15.53125 47.40625 23.390625 
Q 47.40625 31.296875 43.53125 35.828125 
Q 39.65625 40.375 33.015625 40.375 
z
M 52.59375 71.296875 
L 52.59375 62.3125 
Q 48.875 64.0625 45.09375 64.984375 
Q 41.3125 65.921875 37.59375 65.921875 
Q 27.828125 65.921875 22.671875 59.328125 
Q 17.53125 52.734375 16.796875 39.40625 
Q 19.671875 43.65625 24.015625 45.921875 
Q 28.375 48.1875 33.59375 48.1875 
Q 44.578125 48.1875 50.953125 41.515625 
Q 57.328125 34.859375 57.328125 23.390625 
Q 57.328125 12.15625 50.6875 5.359375 
Q 44.046875 -1.421875 33.015625 -1.421875 
Q 20.359375 -1.421875 13.671875 8.265625 
Q 6.984375 17.96875 6.984375 36.375 
Q 6.984375 53.65625 15.1875 63.9375 
Q 23.390625 74.21875 37.203125 74.21875 
Q 40.921875 74.21875 44.703125 73.484375 
Q 48.484375 72.75 52.59375 71.296875 
z
" id="DejaVuSans-54"/>
       </defs>
       <use xlink:href="#DejaVuSans-54"/>
       <use x="63.623047" xlink:href="#DejaVuSans-48"/>
      </g>
     </g>
    </g>
    <g id="xtick_6">
     <g id="line2d_6">
      <g>
       <use style="stroke:#000000;stroke-width:0.8;" x="290.783564" xlink:href="#m2013bc30a9" y="307.584"/>
      </g>
     </g>
     <g id="text_6">
      <!-- 80 -->
      <g transform="translate(284.421064 322.182437)scale(0.1 -0.1)">
       <defs>
        <path d="M 31.78125 34.625 
Q 24.75 34.625 20.71875 30.859375 
Q 16.703125 27.09375 16.703125 20.515625 
Q 16.703125 13.921875 20.71875 10.15625 
Q 24.75 6.390625 31.78125 6.390625 
Q 38.8125 6.390625 42.859375 10.171875 
Q 46.921875 13.96875 46.921875 20.515625 
Q 46.921875 27.09375 42.890625 30.859375 
Q 38.875 34.625 31.78125 34.625 
z
M 21.921875 38.8125 
Q 15.578125 40.375 12.03125 44.71875 
Q 8.5 49.078125 8.5 55.328125 
Q 8.5 64.0625 14.71875 69.140625 
Q 20.953125 74.21875 31.78125 74.21875 
Q 42.671875 74.21875 48.875 69.140625 
Q 55.078125 64.0625 55.078125 55.328125 
Q 55.078125 49.078125 51.53125 44.71875 
Q 48 40.375 41.703125 38.8125 
Q 48.828125 37.15625 52.796875 32.3125 
Q 56.78125 27.484375 56.78125 20.515625 
Q 56.78125 9.90625 50.3125 4.234375 
Q 43.84375 -1.421875 31.78125 -1.421875 
Q 19.734375 -1.421875 13.25 4.234375 
Q 6.78125 9.90625 6.78125 20.515625 
Q 6.78125 27.484375 10.78125 32.3125 
Q 14.796875 37.15625 21.921875 38.8125 
z
M 18.3125 54.390625 
Q 18.3125 48.734375 21.84375 45.5625 
Q 25.390625 42.390625 31.78125 42.390625 
Q 38.140625 42.390625 41.71875 45.5625 
Q 45.3125 48.734375 45.3125 54.390625 
Q 45.3125 60.0625 41.71875 63.234375 
Q 38.140625 66.40625 31.78125 66.40625 
Q 25.390625 66.40625 21.84375 63.234375 
Q 18.3125 60.0625 18.3125 54.390625 
z
" id="DejaVuSans-56"/>
       </defs>
       <use xlink:href="#DejaVuSans-56"/>
       <use x="63.623047" xlink:href="#DejaVuSans-48"/>
      </g>
     </g>
    </g>
    <g id="xtick_7">
     <g id="line2d_7">
      <g>
       <use style="stroke:#000000;stroke-width:0.8;" x="332.841445" xlink:href="#m2013bc30a9" y="307.584"/>
      </g>
     </g>
     <g id="text_7">
      <!-- 100 -->
      <g transform="translate(323.297695 322.182437)scale(0.1 -0.1)">
       <defs>
        <path d="M 12.40625 8.296875 
L 28.515625 8.296875 
L 28.515625 63.921875 
L 10.984375 60.40625 
L 10.984375 69.390625 
L 28.421875 72.90625 
L 38.28125 72.90625 
L 38.28125 8.296875 
L 54.390625 8.296875 
L 54.390625 0 
L 12.40625 0 
z
" id="DejaVuSans-49"/>
       </defs>
       <use xlink:href="#DejaVuSans-49"/>
       <use x="63.623047" xlink:href="#DejaVuSans-48"/>
       <use x="127.246094" xlink:href="#DejaVuSans-48"/>
      </g>
     </g>
    </g>
    <g id="xtick_8">
     <g id="line2d_8">
      <g>
       <use style="stroke:#000000;stroke-width:0.8;" x="374.899326" xlink:href="#m2013bc30a9" y="307.584"/>
      </g>
     </g>
     <g id="text_8">
      <!-- 120 -->
      <g transform="translate(365.355576 322.182437)scale(0.1 -0.1)">
       <use xlink:href="#DejaVuSans-49"/>
       <use x="63.623047" xlink:href="#DejaVuSans-50"/>
       <use x="127.246094" xlink:href="#DejaVuSans-48"/>
      </g>
     </g>
    </g>
   </g>
   <g id="matplotlib.axis_2">
    <g id="ytick_1">
     <g id="line2d_9">
      <defs>
       <path d="M 0 0 
L -3.5 0 
" id="mf5a01cc0d0" style="stroke:#000000;stroke-width:0.8;"/>
      </defs>
      <g>
       <use style="stroke:#000000;stroke-width:0.8;" x="57.6" xlink:href="#mf5a01cc0d0" y="273.018509"/>
      </g>
     </g>
     <g id="text_9">
      <!-- 20 -->
      <g transform="translate(37.875 276.817728)scale(0.1 -0.1)">
       <use xlink:href="#DejaVuSans-50"/>
       <use x="63.623047" xlink:href="#DejaVuSans-48"/>
      </g>
     </g>
    </g>
    <g id="ytick_2">
     <g id="line2d_10">
      <g>
       <use style="stroke:#000000;stroke-width:0.8;" x="57.6" xlink:href="#mf5a01cc0d0" y="230.960628"/>
      </g>
     </g>
     <g id="text_10">
      <!-- 40 -->
      <g transform="translate(37.875 234.759847)scale(0.1 -0.1)">
       <use xlink:href="#DejaVuSans-52"/>
       <use x="63.623047" xlink:href="#DejaVuSans-48"/>
      </g>
     </g>
    </g>
    <g id="ytick_3">
     <g id="line2d_11">
      <g>
       <use style="stroke:#000000;stroke-width:0.8;" x="57.6" xlink:href="#mf5a01cc0d0" y="188.902747"/>
      </g>
     </g>
     <g id="text_11">
      <!-- 60 -->
      <g transform="translate(37.875 192.701966)scale(0.1 -0.1)">
       <use xlink:href="#DejaVuSans-54"/>
       <use x="63.623047" xlink:href="#DejaVuSans-48"/>
      </g>
     </g>
    </g>
    <g id="ytick_4">
     <g id="line2d_12">
      <g>
       <use style="stroke:#000000;stroke-width:0.8;" x="57.6" xlink:href="#mf5a01cc0d0" y="146.844867"/>
      </g>
     </g>
     <g id="text_12">
      <!-- 80 -->
      <g transform="translate(37.875 150.644085)scale(0.1 -0.1)">
       <use xlink:href="#DejaVuSans-56"/>
       <use x="63.623047" xlink:href="#DejaVuSans-48"/>
      </g>
     </g>
    </g>
    <g id="ytick_5">
     <g id="line2d_13">
      <g>
       <use style="stroke:#000000;stroke-width:0.8;" x="57.6" xlink:href="#mf5a01cc0d0" y="104.786986"/>
      </g>
     </g>
     <g id="text_13">
      <!-- 100 -->
      <g transform="translate(31.5125 108.586204)scale(0.1 -0.1)">
       <use xlink:href="#DejaVuSans-49"/>
       <use x="63.623047" xlink:href="#DejaVuSans-48"/>
       <use x="127.246094" xlink:href="#DejaVuSans-48"/>
      </g>
     </g>
    </g>
    <g id="ytick_6">
     <g id="line2d_14">
      <g>
       <use style="stroke:#000000;stroke-width:0.8;" x="57.6" xlink:href="#mf5a01cc0d0" y="62.729105"/>
      </g>
     </g>
     <g id="text_14">
      <!-- 120 -->
      <g transform="translate(31.5125 66.528324)scale(0.1 -0.1)">
       <use xlink:href="#DejaVuSans-49"/>
       <use x="63.623047" xlink:href="#DejaVuSans-50"/>
       <use x="127.246094" xlink:href="#DejaVuSans-48"/>
      </g>
     </g>
    </g>
   </g>
   <g id="line2d_15">
    <path clip-path="url(#p39f7215e1d)" d="M 175.744746 294.047449 
L 176.388231 289.831147 
L 176.697357 285.608536 
L 176.684739 281.388027 
L 176.367202 277.186445 
L 175.761569 273.018509 
L 174.880456 268.894734 
L 173.740688 264.831943 
L 172.359086 260.84065 
L 170.74827 256.935575 
L 168.92506 253.13144 
L 166.914694 249.432449 
L 163.690957 244.00488 
L 159.390539 236.779336 
L 157.405407 233.078242 
L 155.577992 229.288827 
L 153.107091 223.476428 
L 150.907464 217.54837 
L 148.924435 211.550916 
L 147.164313 205.494581 
L 145.660744 199.366748 
L 144.457888 193.150593 
L 143.854358 188.959525 
L 143.452705 184.751635 
L 143.290782 180.537435 
L 143.406441 176.33375 
L 143.837535 172.155299 
L 144.586165 168.014701 
L 145.61448 163.924572 
L 146.89304 159.891221 
L 148.381889 155.927266 
L 150.047381 152.041118 
L 151.872693 148.239085 
L 153.851516 144.523272 
L 155.981748 140.893676 
L 158.259182 137.354506 
L 160.683819 133.903657 
L 163.255658 130.555849 
L 165.978906 127.33001 
L 168.855665 124.24927 
L 171.892244 121.330453 
L 175.090746 118.598794 
L 178.442759 116.054292 
L 181.923049 113.682227 
L 185.512689 111.465777 
L 191.045403 108.395552 
L 196.697982 105.579777 
L 204.358825 102.107899 
L 225.566511 92.861474 
L 231.193856 90.005743 
L 236.676101 86.876637 
L 242.004834 83.480463 
L 247.163233 79.838251 
L 260.66171 69.807446 
L 264.270276 67.609922 
L 268.072309 65.683671 
L 272.042573 64.09178 
L 276.136907 62.901542 
L 278.21667 62.474655 
L 280.313255 62.171838 
L 282.418252 62.001504 
L 284.527455 61.967857 
L 286.636657 62.079311 
L 288.737449 62.329555 
L 290.825622 62.716487 
L 292.892767 63.227491 
L 294.930471 63.858359 
L 296.936632 64.604886 
L 300.820678 66.409169 
L 304.488125 68.587768 
L 307.901122 71.088109 
L 311.06808 73.870237 
L 314.007926 76.896302 
L 316.743791 80.126347 
L 319.294602 83.520418 
L 321.681387 87.040663 
L 324.999753 92.474541 
L 328.067876 97.975712 
L 330.006744 101.615821 
L 330.006744 101.615821 
" style="fill:none;stroke:#fea952;stroke-linecap:square;"/>
   </g>
   <g id="line2d_16">
    <path clip-path="url(#p39f7215e1d)" d="M 167.457441 292.606899 
L 168.012511 289.055308 
L 168.286849 285.474504 
L 168.287276 281.87508 
L 168.023589 278.253554 
L 167.509169 274.647162 
L 166.747358 271.041201 
L 165.753263 267.4693 
L 164.538783 263.938628 
L 163.112618 260.464235 
L 161.489173 257.063638 
L 159.637397 253.650929 
L 156.506451 248.379521 
L 152.02285 240.83788 
L 149.868454 236.813072 
L 147.893825 232.710552 
L 146.100626 228.585808 
L 143.689469 222.354111 
L 141.549211 216.110965 
L 139.615134 209.759192 
L 137.929854 203.292519 
L 136.967684 198.90506 
L 136.145287 194.437167 
L 135.49231 189.870989 
L 135.053293 185.203846 
L 134.879626 180.453407 
L 135.023921 175.635206 
L 135.53435 170.809292 
L 136.396983 166.093264 
L 137.560188 161.499084 
L 138.981573 157.034071 
L 140.614145 152.699764 
L 142.427524 148.478478 
L 144.405405 144.366847 
L 146.551848 140.343623 
L 148.862473 136.413661 
L 151.32818 132.588393 
L 153.957574 128.852691 
L 156.765652 125.204734 
L 159.756741 121.669685 
L 162.941481 118.267879 
L 166.334754 115.01627 
L 169.915476 111.967716 
L 173.619037 109.16326 
L 177.428802 106.571928 
L 181.305124 104.182164 
L 185.231107 101.962409 
L 191.146115 98.91959 
L 197.079733 96.133003 
L 204.941886 92.698768 
L 218.253588 86.983452 
L 223.65492 84.435057 
L 228.862069 81.69251 
L 233.9463 78.680937 
L 238.89332 75.418711 
L 243.729463 71.895954 
L 252.325259 65.351452 
L 256.157687 62.703335 
L 260.313613 60.187023 
L 264.763819 57.950075 
L 267.087731 56.965491 
L 269.489757 56.076935 
L 271.934564 55.309683 
L 274.445625 54.66175 
L 277.014235 54.149466 
L 279.634816 53.787666 
L 282.284086 53.590997 
L 284.971315 53.568 
L 287.631603 53.726784 
L 290.270001 54.058769 
L 292.844222 54.550713 
L 295.380474 55.192198 
L 297.86404 55.974909 
L 300.282993 56.887601 
L 302.63938 57.921497 
L 304.935896 59.072986 
L 307.158373 60.331585 
L 309.295589 61.685384 
L 311.359488 63.13462 
L 315.19605 66.244208 
L 318.706861 69.607155 
L 321.903542 73.153486 
L 324.833929 76.843157 
L 327.516216 80.619306 
L 329.999379 84.455036 
L 333.396458 90.216811 
L 337.440374 97.679357 
L 337.440374 97.679357 
" style="fill:none;stroke:#ffffff;stroke-linecap:square;"/>
   </g>
   <g id="line2d_17">
    <path clip-path="url(#p39f7215e1d)" d="M 184.032051 295.488 
L 184.763952 290.606986 
L 185.107865 285.742568 
L 185.082203 280.900974 
L 184.710816 276.119336 
L 184.013969 271.389856 
L 183.013555 266.748267 
L 181.728113 262.194585 
L 180.17939 257.742671 
L 178.383921 253.406915 
L 176.360948 249.199242 
L 174.19199 245.21397 
L 170.875464 239.630239 
L 166.758227 232.720792 
L 164.94236 229.343413 
L 163.262159 225.867103 
L 160.951277 220.439428 
L 158.864434 214.820506 
L 156.969121 209.093753 
L 155.301978 203.365492 
L 153.891088 197.63007 
L 152.77049 191.86402 
L 152.216406 188.048062 
L 151.852117 184.299423 
L 151.701939 180.621462 
L 151.788962 177.032293 
L 152.140719 173.501307 
L 152.775346 169.936138 
L 153.668772 166.35006 
L 154.804506 162.748372 
L 156.149633 159.154768 
L 157.667237 155.603757 
L 159.33998 152.111323 
L 161.151184 148.70292 
L 163.101022 145.373692 
L 165.190184 142.120618 
L 167.410063 138.954622 
L 169.745665 135.906964 
L 172.201071 132.990335 
L 174.769849 130.230661 
L 177.449734 127.644637 
L 180.266016 125.229872 
L 183.266481 122.945324 
L 186.417295 120.792527 
L 189.720253 118.74939 
L 194.89754 115.873229 
L 200.270293 113.195104 
L 207.697665 109.82844 
L 229.257492 100.419997 
L 235.238833 97.380889 
L 239.152368 95.18634 
L 242.993438 92.864299 
L 248.59033 89.165945 
L 253.957428 85.252869 
L 263.620914 77.957964 
L 266.687964 75.939991 
L 269.793497 74.189587 
L 272.989299 72.719536 
L 276.217578 71.578495 
L 279.419104 70.799843 
L 282.552418 70.41201 
L 285.641712 70.431837 
L 288.807023 70.882262 
L 291.996902 71.741809 
L 295.162091 72.99162 
L 298.209311 74.577031 
L 301.094949 76.46345 
L 303.832033 78.648948 
L 306.423821 81.102606 
L 308.896542 83.8229 
L 311.248625 86.765756 
L 313.495521 89.91654 
L 315.638726 93.218033 
L 318.697531 98.399719 
L 322.573114 105.552286 
L 322.573114 105.552286 
" style="fill:none;stroke:#ffffff;stroke-linecap:square;"/>
   </g>
   <g id="patch_3">
    <path d="M 57.6 307.584 
L 57.6 41.472 
" style="fill:none;stroke:#000000;stroke-linecap:square;stroke-linejoin:miter;stroke-width:0.8;"/>
   </g>
   <g id="patch_4">
    <path d="M 414.72 307.584 
L 414.72 41.472 
" style="fill:none;stroke:#000000;stroke-linecap:square;stroke-linejoin:miter;stroke-width:0.8;"/>
   </g>
   <g id="patch_5">
    <path d="M 57.6 307.584 
L 414.72 307.584 
" style="fill:none;stroke:#000000;stroke-linecap:square;stroke-linejoin:miter;stroke-width:0.8;"/>
   </g>
   <g id="patch_6">
    <path d="M 57.6 41.472 
L 414.72 41.472 
" style="fill:none;stroke:#000000;stroke-linecap:square;stroke-linejoin:miter;stroke-width:0.8;"/>
   </g>
  </g>
 </g>
 <defs>
  <clipPath id="p39f7215e1d">
   <rect height="266.112" width="357.12" x="57.6" y="41.472"/>
  </clipPath>
 </defs>
</svg>
