<?xml version="1.0" encoding="utf-8" standalone="no"?>
<!DOCTYPE svg PUBLIC "-//W3C//DTD SVG 1.1//EN"
  "http://www.w3.org/Graphics/SVG/1.1/DTD/svg11.dtd">
<!-- Created with matplotlib (https://matplotlib.org/) -->
<svg height="345.6pt" version="1.1" viewBox="0 0 460.8 345.6" width="460.8pt" xmlns="http://www.w3.org/2000/svg" xmlns:xlink="http://www.w3.org/1999/xlink">
 <metadata>
  <rdf:RDF xmlns:cc="http://creativecommons.org/ns#" xmlns:dc="http://purl.org/dc/elements/1.1/" xmlns:rdf="http://www.w3.org/1999/02/22-rdf-syntax-ns#">
   <cc:Work>
    <dc:type rdf:resource="http://purl.org/dc/dcmitype/StillImage"/>
    <dc:date>2021-01-23T13:16:02.971003</dc:date>
    <dc:format>image/svg+xml</dc:format>
    <dc:creator>
     <cc:Agent>
      <dc:title>Matplotlib v3.3.3, https://matplotlib.org/</dc:title>
     </cc:Agent>
    </dc:creator>
   </cc:Work>
  </rdf:RDF>
 </metadata>
 <defs>
  <style type="text/css">*{stroke-linecap:butt;stroke-linejoin:round;}</style>
 </defs>
 <g id="figure_1">
  <g id="patch_1">
   <path d="M 0 345.6 
L 460.8 345.6 
L 460.8 0 
L 0 0 
z
" style="fill:#ffffff;"/>
  </g>
  <g id="axes_1">
   <g id="patch_2">
    <path d="M 57.6 307.584 
L 414.72 307.584 
L 414.72 41.472 
L 57.6 41.472 
z
" style="fill:#7d9051;"/>
   </g>
   <g id="matplotlib.axis_1">
    <g id="xtick_1">
     <g id="line2d_1">
      <defs>
       <path d="M 0 0 
L 0 3.5 
" id="m3373a173bf" style="stroke:#000000;stroke-width:0.8;"/>
      </defs>
      <g>
       <use style="stroke:#000000;stroke-width:0.8;" x="57.870789" xlink:href="#m3373a173bf" y="307.584"/>
      </g>
     </g>
     <g id="text_1">
      <!-- 0 -->
      <g transform="translate(54.689539 322.182437)scale(0.1 -0.1)">
       <defs>
        <path d="M 31.78125 66.40625 
Q 24.171875 66.40625 20.328125 58.90625 
Q 16.5 51.421875 16.5 36.375 
Q 16.5 21.390625 20.328125 13.890625 
Q 24.171875 6.390625 31.78125 6.390625 
Q 39.453125 6.390625 43.28125 13.890625 
Q 47.125 21.390625 47.125 36.375 
Q 47.125 51.421875 43.28125 58.90625 
Q 39.453125 66.40625 31.78125 66.40625 
z
M 31.78125 74.21875 
Q 44.046875 74.21875 50.515625 64.515625 
Q 56.984375 54.828125 56.984375 36.375 
Q 56.984375 17.96875 50.515625 8.265625 
Q 44.046875 -1.421875 31.78125 -1.421875 
Q 19.53125 -1.421875 13.0625 8.265625 
Q 6.59375 17.96875 6.59375 36.375 
Q 6.59375 54.828125 13.0625 64.515625 
Q 19.53125 74.21875 31.78125 74.21875 
z
" id="DejaVuSans-48"/>
       </defs>
       <use xlink:href="#DejaVuSans-48"/>
      </g>
     </g>
    </g>
    <g id="xtick_2">
     <g id="line2d_2">
      <g>
       <use style="stroke:#000000;stroke-width:0.8;" x="114.220122" xlink:href="#m3373a173bf" y="307.584"/>
      </g>
     </g>
     <g id="text_2">
      <!-- 20 -->
      <g transform="translate(107.857622 322.182437)scale(0.1 -0.1)">
       <defs>
        <path d="M 19.1875 8.296875 
L 53.609375 8.296875 
L 53.609375 0 
L 7.328125 0 
L 7.328125 8.296875 
Q 12.9375 14.109375 22.625 23.890625 
Q 32.328125 33.6875 34.8125 36.53125 
Q 39.546875 41.84375 41.421875 45.53125 
Q 43.3125 49.21875 43.3125 52.78125 
Q 43.3125 58.59375 39.234375 62.25 
Q 35.15625 65.921875 28.609375 65.921875 
Q 23.96875 65.921875 18.8125 64.3125 
Q 13.671875 62.703125 7.8125 59.421875 
L 7.8125 69.390625 
Q 13.765625 71.78125 18.9375 73 
Q 24.125 74.21875 28.421875 74.21875 
Q 39.75 74.21875 46.484375 68.546875 
Q 53.21875 62.890625 53.21875 53.421875 
Q 53.21875 48.921875 51.53125 44.890625 
Q 49.859375 40.875 45.40625 35.40625 
Q 44.1875 33.984375 37.640625 27.21875 
Q 31.109375 20.453125 19.1875 8.296875 
z
" id="DejaVuSans-50"/>
       </defs>
       <use xlink:href="#DejaVuSans-50"/>
       <use x="63.623047" xlink:href="#DejaVuSans-48"/>
      </g>
     </g>
    </g>
    <g id="xtick_3">
     <g id="line2d_3">
      <g>
       <use style="stroke:#000000;stroke-width:0.8;" x="170.569456" xlink:href="#m3373a173bf" y="307.584"/>
      </g>
     </g>
     <g id="text_3">
      <!-- 40 -->
      <g transform="translate(164.206956 322.182437)scale(0.1 -0.1)">
       <defs>
        <path d="M 37.796875 64.3125 
L 12.890625 25.390625 
L 37.796875 25.390625 
z
M 35.203125 72.90625 
L 47.609375 72.90625 
L 47.609375 25.390625 
L 58.015625 25.390625 
L 58.015625 17.1875 
L 47.609375 17.1875 
L 47.609375 0 
L 37.796875 0 
L 37.796875 17.1875 
L 4.890625 17.1875 
L 4.890625 26.703125 
z
" id="DejaVuSans-52"/>
       </defs>
       <use xlink:href="#DejaVuSans-52"/>
       <use x="63.623047" xlink:href="#DejaVuSans-48"/>
      </g>
     </g>
    </g>
    <g id="xtick_4">
     <g id="line2d_4">
      <g>
       <use style="stroke:#000000;stroke-width:0.8;" x="226.918789" xlink:href="#m3373a173bf" y="307.584"/>
      </g>
     </g>
     <g id="text_4">
      <!-- 60 -->
      <g transform="translate(220.556289 322.182437)scale(0.1 -0.1)">
       <defs>
        <path d="M 33.015625 40.375 
Q 26.375 40.375 22.484375 35.828125 
Q 18.609375 31.296875 18.609375 23.390625 
Q 18.609375 15.53125 22.484375 10.953125 
Q 26.375 6.390625 33.015625 6.390625 
Q 39.65625 6.390625 43.53125 10.953125 
Q 47.40625 15.53125 47.40625 23.390625 
Q 47.40625 31.296875 43.53125 35.828125 
Q 39.65625 40.375 33.015625 40.375 
z
M 52.59375 71.296875 
L 52.59375 62.3125 
Q 48.875 64.0625 45.09375 64.984375 
Q 41.3125 65.921875 37.59375 65.921875 
Q 27.828125 65.921875 22.671875 59.328125 
Q 17.53125 52.734375 16.796875 39.40625 
Q 19.671875 43.65625 24.015625 45.921875 
Q 28.375 48.1875 33.59375 48.1875 
Q 44.578125 48.1875 50.953125 41.515625 
Q 57.328125 34.859375 57.328125 23.390625 
Q 57.328125 12.15625 50.6875 5.359375 
Q 44.046875 -1.421875 33.015625 -1.421875 
Q 20.359375 -1.421875 13.671875 8.265625 
Q 6.984375 17.96875 6.984375 36.375 
Q 6.984375 53.65625 15.1875 63.9375 
Q 23.390625 74.21875 37.203125 74.21875 
Q 40.921875 74.21875 44.703125 73.484375 
Q 48.484375 72.75 52.59375 71.296875 
z
" id="DejaVuSans-54"/>
       </defs>
       <use xlink:href="#DejaVuSans-54"/>
       <use x="63.623047" xlink:href="#DejaVuSans-48"/>
      </g>
     </g>
    </g>
    <g id="xtick_5">
     <g id="line2d_5">
      <g>
       <use style="stroke:#000000;stroke-width:0.8;" x="283.268123" xlink:href="#m3373a173bf" y="307.584"/>
      </g>
     </g>
     <g id="text_5">
      <!-- 80 -->
      <g transform="translate(276.905623 322.182437)scale(0.1 -0.1)">
       <defs>
        <path d="M 31.78125 34.625 
Q 24.75 34.625 20.71875 30.859375 
Q 16.703125 27.09375 16.703125 20.515625 
Q 16.703125 13.921875 20.71875 10.15625 
Q 24.75 6.390625 31.78125 6.390625 
Q 38.8125 6.390625 42.859375 10.171875 
Q 46.921875 13.96875 46.921875 20.515625 
Q 46.921875 27.09375 42.890625 30.859375 
Q 38.875 34.625 31.78125 34.625 
z
M 21.921875 38.8125 
Q 15.578125 40.375 12.03125 44.71875 
Q 8.5 49.078125 8.5 55.328125 
Q 8.5 64.0625 14.71875 69.140625 
Q 20.953125 74.21875 31.78125 74.21875 
Q 42.671875 74.21875 48.875 69.140625 
Q 55.078125 64.0625 55.078125 55.328125 
Q 55.078125 49.078125 51.53125 44.71875 
Q 48 40.375 41.703125 38.8125 
Q 48.828125 37.15625 52.796875 32.3125 
Q 56.78125 27.484375 56.78125 20.515625 
Q 56.78125 9.90625 50.3125 4.234375 
Q 43.84375 -1.421875 31.78125 -1.421875 
Q 19.734375 -1.421875 13.25 4.234375 
Q 6.78125 9.90625 6.78125 20.515625 
Q 6.78125 27.484375 10.78125 32.3125 
Q 14.796875 37.15625 21.921875 38.8125 
z
M 18.3125 54.390625 
Q 18.3125 48.734375 21.84375 45.5625 
Q 25.390625 42.390625 31.78125 42.390625 
Q 38.140625 42.390625 41.71875 45.5625 
Q 45.3125 48.734375 45.3125 54.390625 
Q 45.3125 60.0625 41.71875 63.234375 
Q 38.140625 66.40625 31.78125 66.40625 
Q 25.390625 66.40625 21.84375 63.234375 
Q 18.3125 60.0625 18.3125 54.390625 
z
" id="DejaVuSans-56"/>
       </defs>
       <use xlink:href="#DejaVuSans-56"/>
       <use x="63.623047" xlink:href="#DejaVuSans-48"/>
      </g>
     </g>
    </g>
    <g id="xtick_6">
     <g id="line2d_6">
      <g>
       <use style="stroke:#000000;stroke-width:0.8;" x="339.617457" xlink:href="#m3373a173bf" y="307.584"/>
      </g>
     </g>
     <g id="text_6">
      <!-- 100 -->
      <g transform="translate(330.073707 322.182437)scale(0.1 -0.1)">
       <defs>
        <path d="M 12.40625 8.296875 
L 28.515625 8.296875 
L 28.515625 63.921875 
L 10.984375 60.40625 
L 10.984375 69.390625 
L 28.421875 72.90625 
L 38.28125 72.90625 
L 38.28125 8.296875 
L 54.390625 8.296875 
L 54.390625 0 
L 12.40625 0 
z
" id="DejaVuSans-49"/>
       </defs>
       <use xlink:href="#DejaVuSans-49"/>
       <use x="63.623047" xlink:href="#DejaVuSans-48"/>
       <use x="127.246094" xlink:href="#DejaVuSans-48"/>
      </g>
     </g>
    </g>
    <g id="xtick_7">
     <g id="line2d_7">
      <g>
       <use style="stroke:#000000;stroke-width:0.8;" x="395.96679" xlink:href="#m3373a173bf" y="307.584"/>
      </g>
     </g>
     <g id="text_7">
      <!-- 120 -->
      <g transform="translate(386.42304 322.182437)scale(0.1 -0.1)">
       <use xlink:href="#DejaVuSans-49"/>
       <use x="63.623047" xlink:href="#DejaVuSans-50"/>
       <use x="127.246094" xlink:href="#DejaVuSans-48"/>
      </g>
     </g>
    </g>
   </g>
   <g id="matplotlib.axis_2">
    <g id="ytick_1">
     <g id="line2d_8">
      <defs>
       <path d="M 0 0 
L -3.5 0 
" id="m2ddae3b83a" style="stroke:#000000;stroke-width:0.8;"/>
      </defs>
      <g>
       <use style="stroke:#000000;stroke-width:0.8;" x="57.6" xlink:href="#m2ddae3b83a" y="270.28521"/>
      </g>
     </g>
     <g id="text_8">
      <!-- 20 -->
      <g transform="translate(37.875 274.084429)scale(0.1 -0.1)">
       <use xlink:href="#DejaVuSans-50"/>
       <use x="63.623047" xlink:href="#DejaVuSans-48"/>
      </g>
     </g>
    </g>
    <g id="ytick_2">
     <g id="line2d_9">
      <g>
       <use style="stroke:#000000;stroke-width:0.8;" x="57.6" xlink:href="#m2ddae3b83a" y="213.935877"/>
      </g>
     </g>
     <g id="text_9">
      <!-- 40 -->
      <g transform="translate(37.875 217.735096)scale(0.1 -0.1)">
       <use xlink:href="#DejaVuSans-52"/>
       <use x="63.623047" xlink:href="#DejaVuSans-48"/>
      </g>
     </g>
    </g>
    <g id="ytick_3">
     <g id="line2d_10">
      <g>
       <use style="stroke:#000000;stroke-width:0.8;" x="57.6" xlink:href="#m2ddae3b83a" y="157.586543"/>
      </g>
     </g>
     <g id="text_10">
      <!-- 60 -->
      <g transform="translate(37.875 161.385762)scale(0.1 -0.1)">
       <use xlink:href="#DejaVuSans-54"/>
       <use x="63.623047" xlink:href="#DejaVuSans-48"/>
      </g>
     </g>
    </g>
    <g id="ytick_4">
     <g id="line2d_11">
      <g>
       <use style="stroke:#000000;stroke-width:0.8;" x="57.6" xlink:href="#m2ddae3b83a" y="101.23721"/>
      </g>
     </g>
     <g id="text_11">
      <!-- 80 -->
      <g transform="translate(37.875 105.036428)scale(0.1 -0.1)">
       <use xlink:href="#DejaVuSans-56"/>
       <use x="63.623047" xlink:href="#DejaVuSans-48"/>
      </g>
     </g>
    </g>
    <g id="ytick_5">
     <g id="line2d_12">
      <g>
       <use style="stroke:#000000;stroke-width:0.8;" x="57.6" xlink:href="#m2ddae3b83a" y="44.887876"/>
      </g>
     </g>
     <g id="text_12">
      <!-- 100 -->
      <g transform="translate(31.5125 48.687095)scale(0.1 -0.1)">
       <use xlink:href="#DejaVuSans-49"/>
       <use x="63.623047" xlink:href="#DejaVuSans-48"/>
       <use x="127.246094" xlink:href="#DejaVuSans-48"/>
      </g>
     </g>
    </g>
   </g>
   <g id="line2d_13">
    <path clip-path="url(#p86c25f9dea)" d="M 117.849019 298.459877 
L 118.432235 292.853118 
L 118.722434 287.218185 
L 118.725252 281.566347 
L 118.440687 275.914509 
L 117.871559 270.28521 
L 117.017867 264.689722 
L 115.885245 259.147765 
L 114.470877 253.676244 
L 112.783214 248.289248 
L 110.81944 243.006498 
L 108.602094 237.833629 
L 104.967562 230.206747 
L 100.045447 220.058232 
L 97.757664 214.896633 
L 95.669922 209.65051 
L 93.790671 204.32268 
L 92.122731 198.930049 
L 90.677371 193.481069 
L 89.457408 187.981374 
L 88.451572 182.445052 
L 87.617602 176.87492 
L 86.611766 168.470417 
L 85.555216 157.206185 
L 85.203033 151.562799 
L 85.098787 145.919414 
L 85.343906 140.287298 
L 85.631288 137.475466 
L 86.045456 134.669269 
L 86.594862 131.871525 
L 87.285141 129.093503 
L 88.113476 126.346473 
L 89.082685 123.641705 
L 90.189949 120.996103 
L 91.438087 118.420939 
L 92.827098 115.930298 
L 94.354165 113.532634 
L 96.022105 111.244851 
L 97.830919 109.078219 
L 99.777788 107.044008 
L 101.851444 105.139401 
L 104.040615 103.355945 
L 106.334033 101.693639 
L 108.714792 100.138398 
L 111.174441 98.693037 
L 116.276873 96.095333 
L 121.539901 93.855447 
L 126.876183 91.9283 
L 132.263179 90.257542 
L 137.698072 88.795277 
L 145.91944 86.870947 
L 154.205609 85.135388 
L 162.542493 83.63086 
L 168.126712 82.847605 
L 173.733471 82.303834 
L 179.359952 82.047444 
L 184.994885 82.098158 
L 190.632636 82.427802 
L 196.2563 83.011018 
L 201.851788 83.825266 
L 207.407833 84.836736 
L 215.677097 86.614558 
L 226.676487 89.046031 
L 232.204357 90.116669 
L 237.768854 90.995718 
L 243.364342 91.685998 
L 248.985188 92.195959 
L 254.617304 92.53969 
L 260.257873 92.731278 
L 268.71309 92.770722 
L 279.980139 92.567865 
L 294.064655 92.334015 
L 305.334522 92.133975 
L 310.96382 91.87195 
L 316.587484 91.412703 
L 322.19706 90.705519 
L 327.772827 89.727858 
L 333.286609 88.465633 
L 338.715867 86.913209 
L 344.035244 85.053681 
L 349.227835 82.889867 
L 354.310545 80.475298 
L 359.311549 77.871958 
L 366.727121 73.75564 
L 379.07326 66.864116 
L 384.088351 64.286134 
L 389.187965 61.908192 
L 394.403096 59.792275 
L 394.403096 59.792275 
" style="fill:none;stroke:#fea952;stroke-linecap:square;"/>
   </g>
   <g id="line2d_14">
    <path clip-path="url(#p86c25f9dea)" d="M 106.655271 297.152249 
L 107.185424 292.132602 
L 107.453665 287.060894 
L 107.463464 281.993015 
L 107.215192 276.913578 
L 106.710078 271.844452 
L 105.949506 266.811344 
L 104.940074 261.833489 
L 103.673212 256.904296 
L 102.16838 252.075431 
L 100.411817 247.329838 
L 98.375461 242.569225 
L 94.856156 235.18363 
L 89.783428 224.716649 
L 87.325978 219.161584 
L 85.080217 213.506421 
L 83.059332 207.764808 
L 81.258066 201.924869 
L 79.701646 196.039066 
L 78.386879 190.091658 
L 77.318156 184.193461 
L 76.441833 178.328221 
L 75.40042 169.617415 
L 74.31439 158.014716 
L 73.938909 151.922532 
L 73.832727 145.626496 
L 73.923125 142.415076 
L 74.132443 139.141437 
L 74.482197 135.829968 
L 74.986799 132.49763 
L 75.657581 129.153844 
L 76.495146 125.839904 
L 77.504177 122.544807 
L 78.686622 119.290637 
L 80.048504 116.08072 
L 81.595392 112.931744 
L 83.321446 109.87617 
L 85.247583 106.893353 
L 87.370812 104.022315 
L 89.689046 101.285928 
L 92.154295 98.743873 
L 94.733325 96.401994 
L 97.426671 94.230944 
L 100.170517 92.258547 
L 103.005121 90.42194 
L 105.869822 88.749652 
L 108.778884 87.207085 
L 114.637978 84.499326 
L 120.511557 82.205912 
L 126.340155 80.264429 
L 132.142212 78.59479 
L 137.870524 77.149576 
L 146.356615 75.24762 
L 154.964951 73.511447 
L 160.876222 72.484855 
L 166.909384 71.643676 
L 173.067713 71.053649 
L 179.314873 70.777668 
L 185.523458 70.840694 
L 191.677266 71.206454 
L 197.772991 71.843675 
L 203.773768 72.720497 
L 209.680752 73.798451 
L 218.155259 75.620531 
L 231.502249 78.521941 
L 236.639273 79.434147 
L 241.847883 80.168335 
L 247.103659 80.730939 
L 252.407525 81.134076 
L 260.426902 81.462679 
L 268.589005 81.501539 
L 279.720742 81.300984 
L 293.952075 81.064711 
L 304.895331 80.872669 
L 310.153679 80.63124 
L 315.305927 80.21594 
L 320.378894 79.583282 
L 325.403025 78.709967 
L 330.342236 77.587188 
L 335.155403 76.220549 
L 339.847775 74.590651 
L 344.506538 72.656624 
L 349.185077 70.438392 
L 353.919672 67.975618 
L 361.159894 63.956871 
L 371.227125 58.295016 
L 376.502492 55.487467 
L 381.974447 52.804258 
L 387.695858 50.308418 
L 390.31892 49.288495 
L 390.31892 49.288495 
" style="fill:none;stroke:#ffffff;stroke-linecap:square;"/>
   </g>
   <g id="line2d_15">
    <path clip-path="url(#p86c25f9dea)" d="M 129.042768 299.767505 
L 129.679046 293.573635 
L 129.991203 287.375476 
L 129.987039 281.139679 
L 129.666183 274.91544 
L 129.03304 268.725968 
L 128.086228 262.568099 
L 126.830417 256.46204 
L 125.268542 250.448192 
L 123.398049 244.503065 
L 121.227063 238.683158 
L 118.828727 233.098033 
L 115.078967 225.229863 
L 110.307467 215.399815 
L 108.189351 210.631682 
L 106.259626 205.794598 
L 104.522011 200.880553 
L 102.987396 195.93523 
L 101.653096 190.923071 
L 100.527936 185.87109 
L 99.584989 180.696643 
L 98.445434 172.75145 
L 97.541604 164.573332 
L 96.606493 153.790622 
L 96.3826 148.683405 
L 96.420957 143.788818 
L 96.780379 139.120964 
L 97.532142 134.589206 
L 98.075136 132.347101 
L 98.722775 130.148138 
L 99.478747 127.992772 
L 100.331394 125.911486 
L 101.280781 123.910134 
L 102.33275 121.984427 
L 103.460747 120.171916 
L 104.673398 118.467387 
L 105.972792 116.870511 
L 107.401282 115.344143 
L 108.969563 113.876808 
L 110.654559 112.480945 
L 112.497549 111.128732 
L 114.424463 109.854855 
L 118.618898 107.485491 
L 123.150621 105.369747 
L 127.887622 103.50458 
L 132.787937 101.862246 
L 137.810587 100.410131 
L 145.631518 98.483458 
L 156.342236 96.200862 
L 164.208765 94.776866 
L 169.34404 94.051533 
L 174.399229 93.554019 
L 179.405031 93.317221 
L 184.466313 93.355623 
L 189.588006 93.64915 
L 194.739608 94.17836 
L 199.929809 94.930034 
L 205.134914 95.875021 
L 213.198936 97.608584 
L 224.455445 100.094871 
L 230.34429 101.231976 
L 236.293405 102.168585 
L 242.260789 102.901704 
L 248.219841 103.439808 
L 254.156088 103.800115 
L 260.088844 103.999877 
L 268.837175 104.039906 
L 280.239537 103.834746 
L 294.177236 103.603319 
L 305.773713 103.395281 
L 311.773962 103.112661 
L 317.869041 102.609467 
L 324.015226 101.827757 
L 330.142628 100.74575 
L 336.230981 99.344078 
L 342.276332 97.60587 
L 348.222714 95.516711 
L 353.949133 93.123109 
L 359.436013 90.512203 
L 364.703426 87.768299 
L 372.294348 83.554409 
L 384.310552 76.843128 
L 388.960772 74.44829 
L 393.576948 72.288305 
L 398.487273 70.296055 
L 398.487273 70.296055 
" style="fill:none;stroke:#ffffff;stroke-linecap:square;"/>
   </g>
   <g id="patch_3">
    <path d="M 57.6 307.584 
L 57.6 41.472 
" style="fill:none;stroke:#000000;stroke-linecap:square;stroke-linejoin:miter;stroke-width:0.8;"/>
   </g>
   <g id="patch_4">
    <path d="M 414.72 307.584 
L 414.72 41.472 
" style="fill:none;stroke:#000000;stroke-linecap:square;stroke-linejoin:miter;stroke-width:0.8;"/>
   </g>
   <g id="patch_5">
    <path d="M 57.6 307.584 
L 414.72 307.584 
" style="fill:none;stroke:#000000;stroke-linecap:square;stroke-linejoin:miter;stroke-width:0.8;"/>
   </g>
   <g id="patch_6">
    <path d="M 57.6 41.472 
L 414.72 41.472 
" style="fill:none;stroke:#000000;stroke-linecap:square;stroke-linejoin:miter;stroke-width:0.8;"/>
   </g>
  </g>
 </g>
 <defs>
  <clipPath id="p86c25f9dea">
   <rect height="266.112" width="357.12" x="57.6" y="41.472"/>
  </clipPath>
 </defs>
</svg>
