<?xml version="1.0" encoding="utf-8" standalone="no"?>
<!DOCTYPE svg PUBLIC "-//W3C//DTD SVG 1.1//EN"
  "http://www.w3.org/Graphics/SVG/1.1/DTD/svg11.dtd">
<!-- Created with matplotlib (https://matplotlib.org/) -->
<svg height="345.6pt" version="1.1" viewBox="0 0 460.8 345.6" width="460.8pt" xmlns="http://www.w3.org/2000/svg" xmlns:xlink="http://www.w3.org/1999/xlink">
 <metadata>
  <rdf:RDF xmlns:cc="http://creativecommons.org/ns#" xmlns:dc="http://purl.org/dc/elements/1.1/" xmlns:rdf="http://www.w3.org/1999/02/22-rdf-syntax-ns#">
   <cc:Work>
    <dc:type rdf:resource="http://purl.org/dc/dcmitype/StillImage"/>
    <dc:date>2021-01-25T12:47:38.399940</dc:date>
    <dc:format>image/svg+xml</dc:format>
    <dc:creator>
     <cc:Agent>
      <dc:title>Matplotlib v3.3.3, https://matplotlib.org/</dc:title>
     </cc:Agent>
    </dc:creator>
   </cc:Work>
  </rdf:RDF>
 </metadata>
 <defs>
  <style type="text/css">*{stroke-linecap:butt;stroke-linejoin:round;}</style>
 </defs>
 <g id="figure_1">
  <g id="patch_1">
   <path d="M 0 345.6 
L 460.8 345.6 
L 460.8 0 
L 0 0 
z
" style="fill:#ffffff;"/>
  </g>
  <g id="axes_1">
   <g id="patch_2">
    <path d="M 57.6 307.584 
L 414.72 307.584 
L 414.72 41.472 
L 57.6 41.472 
z
" style="fill:#7d9051;"/>
   </g>
   <g id="matplotlib.axis_1">
    <g id="xtick_1">
     <g id="line2d_1">
      <defs>
       <path d="M 0 0 
L 0 3.5 
" id="m811f377e79" style="stroke:#000000;stroke-width:0.8;"/>
      </defs>
      <g>
       <use style="stroke:#000000;stroke-width:0.8;" x="124.117028" xlink:href="#m811f377e79" y="307.584"/>
      </g>
     </g>
     <g id="text_1">
      <!-- 20 -->
      <g transform="translate(117.754528 322.182437)scale(0.1 -0.1)">
       <defs>
        <path d="M 19.1875 8.296875 
L 53.609375 8.296875 
L 53.609375 0 
L 7.328125 0 
L 7.328125 8.296875 
Q 12.9375 14.109375 22.625 23.890625 
Q 32.328125 33.6875 34.8125 36.53125 
Q 39.546875 41.84375 41.421875 45.53125 
Q 43.3125 49.21875 43.3125 52.78125 
Q 43.3125 58.59375 39.234375 62.25 
Q 35.15625 65.921875 28.609375 65.921875 
Q 23.96875 65.921875 18.8125 64.3125 
Q 13.671875 62.703125 7.8125 59.421875 
L 7.8125 69.390625 
Q 13.765625 71.78125 18.9375 73 
Q 24.125 74.21875 28.421875 74.21875 
Q 39.75 74.21875 46.484375 68.546875 
Q 53.21875 62.890625 53.21875 53.421875 
Q 53.21875 48.921875 51.53125 44.890625 
Q 49.859375 40.875 45.40625 35.40625 
Q 44.1875 33.984375 37.640625 27.21875 
Q 31.109375 20.453125 19.1875 8.296875 
z
" id="DejaVuSans-50"/>
        <path d="M 31.78125 66.40625 
Q 24.171875 66.40625 20.328125 58.90625 
Q 16.5 51.421875 16.5 36.375 
Q 16.5 21.390625 20.328125 13.890625 
Q 24.171875 6.390625 31.78125 6.390625 
Q 39.453125 6.390625 43.28125 13.890625 
Q 47.125 21.390625 47.125 36.375 
Q 47.125 51.421875 43.28125 58.90625 
Q 39.453125 66.40625 31.78125 66.40625 
z
M 31.78125 74.21875 
Q 44.046875 74.21875 50.515625 64.515625 
Q 56.984375 54.828125 56.984375 36.375 
Q 56.984375 17.96875 50.515625 8.265625 
Q 44.046875 -1.421875 31.78125 -1.421875 
Q 19.53125 -1.421875 13.0625 8.265625 
Q 6.59375 17.96875 6.59375 36.375 
Q 6.59375 54.828125 13.0625 64.515625 
Q 19.53125 74.21875 31.78125 74.21875 
z
" id="DejaVuSans-48"/>
       </defs>
       <use xlink:href="#DejaVuSans-50"/>
       <use x="63.623047" xlink:href="#DejaVuSans-48"/>
      </g>
     </g>
    </g>
    <g id="xtick_2">
     <g id="line2d_2">
      <g>
       <use style="stroke:#000000;stroke-width:0.8;" x="194.667212" xlink:href="#m811f377e79" y="307.584"/>
      </g>
     </g>
     <g id="text_2">
      <!-- 40 -->
      <g transform="translate(188.304712 322.182437)scale(0.1 -0.1)">
       <defs>
        <path d="M 37.796875 64.3125 
L 12.890625 25.390625 
L 37.796875 25.390625 
z
M 35.203125 72.90625 
L 47.609375 72.90625 
L 47.609375 25.390625 
L 58.015625 25.390625 
L 58.015625 17.1875 
L 47.609375 17.1875 
L 47.609375 0 
L 37.796875 0 
L 37.796875 17.1875 
L 4.890625 17.1875 
L 4.890625 26.703125 
z
" id="DejaVuSans-52"/>
       </defs>
       <use xlink:href="#DejaVuSans-52"/>
       <use x="63.623047" xlink:href="#DejaVuSans-48"/>
      </g>
     </g>
    </g>
    <g id="xtick_3">
     <g id="line2d_3">
      <g>
       <use style="stroke:#000000;stroke-width:0.8;" x="265.217395" xlink:href="#m811f377e79" y="307.584"/>
      </g>
     </g>
     <g id="text_3">
      <!-- 60 -->
      <g transform="translate(258.854895 322.182437)scale(0.1 -0.1)">
       <defs>
        <path d="M 33.015625 40.375 
Q 26.375 40.375 22.484375 35.828125 
Q 18.609375 31.296875 18.609375 23.390625 
Q 18.609375 15.53125 22.484375 10.953125 
Q 26.375 6.390625 33.015625 6.390625 
Q 39.65625 6.390625 43.53125 10.953125 
Q 47.40625 15.53125 47.40625 23.390625 
Q 47.40625 31.296875 43.53125 35.828125 
Q 39.65625 40.375 33.015625 40.375 
z
M 52.59375 71.296875 
L 52.59375 62.3125 
Q 48.875 64.0625 45.09375 64.984375 
Q 41.3125 65.921875 37.59375 65.921875 
Q 27.828125 65.921875 22.671875 59.328125 
Q 17.53125 52.734375 16.796875 39.40625 
Q 19.671875 43.65625 24.015625 45.921875 
Q 28.375 48.1875 33.59375 48.1875 
Q 44.578125 48.1875 50.953125 41.515625 
Q 57.328125 34.859375 57.328125 23.390625 
Q 57.328125 12.15625 50.6875 5.359375 
Q 44.046875 -1.421875 33.015625 -1.421875 
Q 20.359375 -1.421875 13.671875 8.265625 
Q 6.984375 17.96875 6.984375 36.375 
Q 6.984375 53.65625 15.1875 63.9375 
Q 23.390625 74.21875 37.203125 74.21875 
Q 40.921875 74.21875 44.703125 73.484375 
Q 48.484375 72.75 52.59375 71.296875 
z
" id="DejaVuSans-54"/>
       </defs>
       <use xlink:href="#DejaVuSans-54"/>
       <use x="63.623047" xlink:href="#DejaVuSans-48"/>
      </g>
     </g>
    </g>
    <g id="xtick_4">
     <g id="line2d_4">
      <g>
       <use style="stroke:#000000;stroke-width:0.8;" x="335.767579" xlink:href="#m811f377e79" y="307.584"/>
      </g>
     </g>
     <g id="text_4">
      <!-- 80 -->
      <g transform="translate(329.405079 322.182437)scale(0.1 -0.1)">
       <defs>
        <path d="M 31.78125 34.625 
Q 24.75 34.625 20.71875 30.859375 
Q 16.703125 27.09375 16.703125 20.515625 
Q 16.703125 13.921875 20.71875 10.15625 
Q 24.75 6.390625 31.78125 6.390625 
Q 38.8125 6.390625 42.859375 10.171875 
Q 46.921875 13.96875 46.921875 20.515625 
Q 46.921875 27.09375 42.890625 30.859375 
Q 38.875 34.625 31.78125 34.625 
z
M 21.921875 38.8125 
Q 15.578125 40.375 12.03125 44.71875 
Q 8.5 49.078125 8.5 55.328125 
Q 8.5 64.0625 14.71875 69.140625 
Q 20.953125 74.21875 31.78125 74.21875 
Q 42.671875 74.21875 48.875 69.140625 
Q 55.078125 64.0625 55.078125 55.328125 
Q 55.078125 49.078125 51.53125 44.71875 
Q 48 40.375 41.703125 38.8125 
Q 48.828125 37.15625 52.796875 32.3125 
Q 56.78125 27.484375 56.78125 20.515625 
Q 56.78125 9.90625 50.3125 4.234375 
Q 43.84375 -1.421875 31.78125 -1.421875 
Q 19.734375 -1.421875 13.25 4.234375 
Q 6.78125 9.90625 6.78125 20.515625 
Q 6.78125 27.484375 10.78125 32.3125 
Q 14.796875 37.15625 21.921875 38.8125 
z
M 18.3125 54.390625 
Q 18.3125 48.734375 21.84375 45.5625 
Q 25.390625 42.390625 31.78125 42.390625 
Q 38.140625 42.390625 41.71875 45.5625 
Q 45.3125 48.734375 45.3125 54.390625 
Q 45.3125 60.0625 41.71875 63.234375 
Q 38.140625 66.40625 31.78125 66.40625 
Q 25.390625 66.40625 21.84375 63.234375 
Q 18.3125 60.0625 18.3125 54.390625 
z
" id="DejaVuSans-56"/>
       </defs>
       <use xlink:href="#DejaVuSans-56"/>
       <use x="63.623047" xlink:href="#DejaVuSans-48"/>
      </g>
     </g>
    </g>
    <g id="xtick_5">
     <g id="line2d_5">
      <g>
       <use style="stroke:#000000;stroke-width:0.8;" x="406.317762" xlink:href="#m811f377e79" y="307.584"/>
      </g>
     </g>
     <g id="text_5">
      <!-- 100 -->
      <g transform="translate(396.774012 322.182437)scale(0.1 -0.1)">
       <defs>
        <path d="M 12.40625 8.296875 
L 28.515625 8.296875 
L 28.515625 63.921875 
L 10.984375 60.40625 
L 10.984375 69.390625 
L 28.421875 72.90625 
L 38.28125 72.90625 
L 38.28125 8.296875 
L 54.390625 8.296875 
L 54.390625 0 
L 12.40625 0 
z
" id="DejaVuSans-49"/>
       </defs>
       <use xlink:href="#DejaVuSans-49"/>
       <use x="63.623047" xlink:href="#DejaVuSans-48"/>
       <use x="127.246094" xlink:href="#DejaVuSans-48"/>
      </g>
     </g>
    </g>
   </g>
   <g id="matplotlib.axis_2">
    <g id="ytick_1">
     <g id="line2d_6">
      <defs>
       <path d="M 0 0 
L -3.5 0 
" id="mb4f9bd3d6b" style="stroke:#000000;stroke-width:0.8;"/>
      </defs>
      <g>
       <use style="stroke:#000000;stroke-width:0.8;" x="57.6" xlink:href="#mb4f9bd3d6b" y="301.717562"/>
      </g>
     </g>
     <g id="text_6">
      <!-- 0 -->
      <g transform="translate(44.2375 305.516781)scale(0.1 -0.1)">
       <use xlink:href="#DejaVuSans-48"/>
      </g>
     </g>
    </g>
    <g id="ytick_2">
     <g id="line2d_7">
      <g>
       <use style="stroke:#000000;stroke-width:0.8;" x="57.6" xlink:href="#mb4f9bd3d6b" y="266.44247"/>
      </g>
     </g>
     <g id="text_7">
      <!-- 10 -->
      <g transform="translate(37.875 270.241689)scale(0.1 -0.1)">
       <use xlink:href="#DejaVuSans-49"/>
       <use x="63.623047" xlink:href="#DejaVuSans-48"/>
      </g>
     </g>
    </g>
    <g id="ytick_3">
     <g id="line2d_8">
      <g>
       <use style="stroke:#000000;stroke-width:0.8;" x="57.6" xlink:href="#mb4f9bd3d6b" y="231.167378"/>
      </g>
     </g>
     <g id="text_8">
      <!-- 20 -->
      <g transform="translate(37.875 234.966597)scale(0.1 -0.1)">
       <use xlink:href="#DejaVuSans-50"/>
       <use x="63.623047" xlink:href="#DejaVuSans-48"/>
      </g>
     </g>
    </g>
    <g id="ytick_4">
     <g id="line2d_9">
      <g>
       <use style="stroke:#000000;stroke-width:0.8;" x="57.6" xlink:href="#mb4f9bd3d6b" y="195.892287"/>
      </g>
     </g>
     <g id="text_9">
      <!-- 30 -->
      <g transform="translate(37.875 199.691505)scale(0.1 -0.1)">
       <defs>
        <path d="M 40.578125 39.3125 
Q 47.65625 37.796875 51.625 33 
Q 55.609375 28.21875 55.609375 21.1875 
Q 55.609375 10.40625 48.1875 4.484375 
Q 40.765625 -1.421875 27.09375 -1.421875 
Q 22.515625 -1.421875 17.65625 -0.515625 
Q 12.796875 0.390625 7.625 2.203125 
L 7.625 11.71875 
Q 11.71875 9.328125 16.59375 8.109375 
Q 21.484375 6.890625 26.8125 6.890625 
Q 36.078125 6.890625 40.9375 10.546875 
Q 45.796875 14.203125 45.796875 21.1875 
Q 45.796875 27.640625 41.28125 31.265625 
Q 36.765625 34.90625 28.71875 34.90625 
L 20.21875 34.90625 
L 20.21875 43.015625 
L 29.109375 43.015625 
Q 36.375 43.015625 40.234375 45.921875 
Q 44.09375 48.828125 44.09375 54.296875 
Q 44.09375 59.90625 40.109375 62.90625 
Q 36.140625 65.921875 28.71875 65.921875 
Q 24.65625 65.921875 20.015625 65.03125 
Q 15.375 64.15625 9.8125 62.3125 
L 9.8125 71.09375 
Q 15.4375 72.65625 20.34375 73.4375 
Q 25.25 74.21875 29.59375 74.21875 
Q 40.828125 74.21875 47.359375 69.109375 
Q 53.90625 64.015625 53.90625 55.328125 
Q 53.90625 49.265625 50.4375 45.09375 
Q 46.96875 40.921875 40.578125 39.3125 
z
" id="DejaVuSans-51"/>
       </defs>
       <use xlink:href="#DejaVuSans-51"/>
       <use x="63.623047" xlink:href="#DejaVuSans-48"/>
      </g>
     </g>
    </g>
    <g id="ytick_5">
     <g id="line2d_10">
      <g>
       <use style="stroke:#000000;stroke-width:0.8;" x="57.6" xlink:href="#mb4f9bd3d6b" y="160.617195"/>
      </g>
     </g>
     <g id="text_10">
      <!-- 40 -->
      <g transform="translate(37.875 164.416414)scale(0.1 -0.1)">
       <use xlink:href="#DejaVuSans-52"/>
       <use x="63.623047" xlink:href="#DejaVuSans-48"/>
      </g>
     </g>
    </g>
    <g id="ytick_6">
     <g id="line2d_11">
      <g>
       <use style="stroke:#000000;stroke-width:0.8;" x="57.6" xlink:href="#mb4f9bd3d6b" y="125.342103"/>
      </g>
     </g>
     <g id="text_11">
      <!-- 50 -->
      <g transform="translate(37.875 129.141322)scale(0.1 -0.1)">
       <defs>
        <path d="M 10.796875 72.90625 
L 49.515625 72.90625 
L 49.515625 64.59375 
L 19.828125 64.59375 
L 19.828125 46.734375 
Q 21.96875 47.46875 24.109375 47.828125 
Q 26.265625 48.1875 28.421875 48.1875 
Q 40.625 48.1875 47.75 41.5 
Q 54.890625 34.8125 54.890625 23.390625 
Q 54.890625 11.625 47.5625 5.09375 
Q 40.234375 -1.421875 26.90625 -1.421875 
Q 22.3125 -1.421875 17.546875 -0.640625 
Q 12.796875 0.140625 7.71875 1.703125 
L 7.71875 11.625 
Q 12.109375 9.234375 16.796875 8.0625 
Q 21.484375 6.890625 26.703125 6.890625 
Q 35.15625 6.890625 40.078125 11.328125 
Q 45.015625 15.765625 45.015625 23.390625 
Q 45.015625 31 40.078125 35.4375 
Q 35.15625 39.890625 26.703125 39.890625 
Q 22.75 39.890625 18.8125 39.015625 
Q 14.890625 38.140625 10.796875 36.28125 
z
" id="DejaVuSans-53"/>
       </defs>
       <use xlink:href="#DejaVuSans-53"/>
       <use x="63.623047" xlink:href="#DejaVuSans-48"/>
      </g>
     </g>
    </g>
    <g id="ytick_7">
     <g id="line2d_12">
      <g>
       <use style="stroke:#000000;stroke-width:0.8;" x="57.6" xlink:href="#mb4f9bd3d6b" y="90.067011"/>
      </g>
     </g>
     <g id="text_12">
      <!-- 60 -->
      <g transform="translate(37.875 93.86623)scale(0.1 -0.1)">
       <use xlink:href="#DejaVuSans-54"/>
       <use x="63.623047" xlink:href="#DejaVuSans-48"/>
      </g>
     </g>
    </g>
    <g id="ytick_8">
     <g id="line2d_13">
      <g>
       <use style="stroke:#000000;stroke-width:0.8;" x="57.6" xlink:href="#mb4f9bd3d6b" y="54.79192"/>
      </g>
     </g>
     <g id="text_13">
      <!-- 70 -->
      <g transform="translate(37.875 58.591138)scale(0.1 -0.1)">
       <defs>
        <path d="M 8.203125 72.90625 
L 55.078125 72.90625 
L 55.078125 68.703125 
L 28.609375 0 
L 18.3125 0 
L 43.21875 64.59375 
L 8.203125 64.59375 
z
" id="DejaVuSans-55"/>
       </defs>
       <use xlink:href="#DejaVuSans-55"/>
       <use x="63.623047" xlink:href="#DejaVuSans-48"/>
      </g>
     </g>
    </g>
   </g>
   <g id="line2d_14">
    <path clip-path="url(#pc4df92ea0f)" d="M 88.841937 206.174976 
L 88.291645 199.211673 
L 87.991807 192.170764 
L 87.967114 185.087526 
L 88.252843 177.983123 
L 88.870157 170.899884 
L 89.850804 163.862503 
L 91.223005 156.902728 
L 93.01498 150.055832 
L 94.080288 146.683534 
L 95.254948 143.350038 
L 96.553072 140.058871 
L 97.97113 136.817091 
L 99.516179 133.628222 
L 101.184691 130.495794 
L 102.973138 127.426861 
L 104.881521 124.424951 
L 106.902784 121.504173 
L 109.036927 118.661001 
L 111.280422 115.906016 
L 113.633271 113.249802 
L 116.091945 110.68883 
L 118.649389 108.237211 
L 121.305603 105.898473 
L 124.057061 103.669087 
L 126.896705 101.552581 
L 129.817483 99.545429 
L 132.812338 97.651156 
L 135.877744 95.862709 
L 139.006644 94.183615 
L 142.191985 92.610346 
L 145.430239 91.142902 
L 148.710822 89.781283 
L 152.033736 88.52549 
L 155.391925 87.379049 
L 158.785388 86.345489 
L 162.207072 85.431864 
L 165.660504 84.634647 
L 169.138628 83.964421 
L 172.637917 83.424712 
L 176.161899 83.019048 
L 179.69999 82.74743 
L 183.252192 82.62044 
L 186.814976 82.638077 
L 190.381288 82.80387 
L 193.940545 83.117818 
L 197.482164 83.58345 
L 200.995563 84.200764 
L 204.473687 84.969761 
L 207.905954 85.893968 
L 211.28178 86.976913 
L 214.590584 88.215069 
L 217.825309 89.61549 
L 220.978903 91.171122 
L 224.065473 92.864326 
L 230.076349 96.539991 
L 244.881305 106.219476 
L 247.914963 108.025561 
L 251.008588 109.729348 
L 254.155126 111.334364 
L 260.592831 114.248087 
L 267.189273 116.809058 
L 273.912705 119.041972 
L 280.724325 120.982102 
L 287.588858 122.678834 
L 311.642943 128.224078 
L 318.415761 130.167736 
L 325.100391 132.432397 
L 331.668613 135.032171 
L 338.099262 137.991751 
L 344.364118 141.328775 
L 350.438489 145.053824 
L 353.387487 147.068032 
L 356.262407 149.184538 
L 359.052667 151.410396 
L 361.747684 153.738552 
L 364.336875 156.176061 
L 366.802604 158.722922 
L 369.141343 161.379137 
L 371.335454 164.151759 
L 373.374354 167.033734 
L 375.254516 170.032117 
L 376.961831 173.136325 
L 378.499825 176.335776 
L 379.868498 179.623414 
L 381.057269 182.981603 
L 382.073192 186.410342 
L 382.905684 189.891994 
L 383.554745 193.42303 
L 384.020377 196.985814 
L 384.295522 200.576819 
L 384.38371 204.181933 
L 384.274357 207.790575 
L 383.974519 211.381579 
L 383.47714 214.947891 
L 382.778693 218.471873 
L 381.882706 221.935887 
L 380.782123 225.325823 
L 379.473417 228.631099 
L 377.960116 231.834078 
L 376.238691 234.920648 
L 374.305616 237.876701 
L 372.175001 240.698708 
L 369.864482 243.38667 
L 367.384643 245.940587 
L 364.753121 248.353403 
L 361.987554 250.632174 
L 359.094997 252.766317 
L 356.096614 254.75936 
L 353.006516 256.607775 
L 349.835285 258.311561 
L 346.600559 259.87072 
L 343.309393 261.274669 
L 339.965315 262.523407 
L 336.571851 263.60988 
L 333.136057 264.527033 
L 329.664988 265.274865 
L 326.162171 265.846321 
L 322.631134 266.234347 
L 319.078933 266.435415 
L 315.509093 266.44247 
L 311.932199 266.255512 
L 308.358832 265.867486 
L 304.810158 265.28192 
L 301.296759 264.498813 
L 297.8398 263.514637 
L 294.453391 262.329394 
L 291.15517 260.943083 
L 287.962774 259.355704 
L 284.886786 257.567257 
L 281.951899 255.574214 
L 279.165166 253.380104 
L 276.537172 250.995507 
L 274.067916 248.438063 
L 271.764452 245.714826 
L 269.626782 242.846961 
L 267.661959 239.841523 
L 265.873512 236.719678 
L 264.26144 233.488479 
L 262.832799 230.165566 
L 261.591116 226.765047 
L 260.539918 223.301033 
L 259.679206 219.787634 
L 259.019562 216.235432 
L 258.557458 212.662065 
L 258.29995 209.078116 
L 258.250565 205.501222 
L 258.409302 201.941965 
L 258.786746 198.414456 
L 259.382895 194.936332 
L 260.201277 191.518175 
L 260.201277 191.518175 
" style="fill:none;stroke:#fea952;stroke-linecap:square;"/>
   </g>
   <g id="line2d_15">
    <path clip-path="url(#pc4df92ea0f)" d="M 74.785483 207.403487 
L 74.200838 199.948077 
L 73.883144 192.367695 
L 73.862925 184.681348 
L 74.181933 176.933055 
L 74.870809 169.135966 
L 75.968364 161.338423 
L 76.68422 157.435863 
L 77.518694 153.543415 
L 78.473229 149.678233 
L 79.560319 145.805511 
L 80.772321 141.99406 
L 82.129034 138.172828 
L 83.625735 134.404041 
L 85.27305 130.664702 
L 87.062655 126.994757 
L 88.993691 123.391384 
L 91.065588 119.856961 
L 93.278846 116.395563 
L 95.618115 113.033672 
L 98.095792 109.751191 
L 100.718214 106.550115 
L 103.45475 103.47786 
L 106.327609 100.503012 
L 109.325052 97.647127 
L 112.422742 94.935448 
L 115.624805 92.355811 
L 118.905347 89.923681 
L 122.274897 87.620558 
L 125.701828 85.463713 
L 129.205738 83.42979 
L 132.758164 81.532543 
L 136.367982 79.758337 
L 140.021217 78.110802 
L 143.722692 76.582355 
L 147.475083 75.172145 
L 151.280832 73.881196 
L 155.145385 72.713046 
L 159.033271 71.683406 
L 162.990649 70.779504 
L 166.987814 70.019273 
L 171.024295 69.407245 
L 175.081853 68.950408 
L 179.195882 68.646401 
L 183.322043 68.510576 
L 187.470225 68.543263 
L 191.621066 68.748405 
L 195.779821 69.128172 
L 199.923933 69.686295 
L 204.041663 70.423449 
L 208.142425 71.345022 
L 212.216028 72.458329 
L 216.22688 73.761804 
L 220.19648 75.266437 
L 224.067476 76.961302 
L 227.765221 78.800228 
L 231.264618 80.729029 
L 237.792366 84.726599 
L 254.721886 95.665992 
L 260.159065 98.565423 
L 265.869538 101.161854 
L 271.781655 103.467276 
L 277.916897 105.51202 
L 284.212664 107.310064 
L 290.731776 108.923282 
L 315.386609 114.619737 
L 322.77602 116.748299 
L 330.116466 119.244064 
L 337.392716 122.135358 
L 344.543892 125.439465 
L 348.073167 127.258692 
L 351.553614 129.187758 
L 354.986881 131.228638 
L 358.396704 133.402217 
L 361.752791 135.705161 
L 365.061563 138.154217 
L 368.276722 140.732853 
L 371.419514 143.464856 
L 374.474341 146.361534 
L 377.392688 149.398586 
L 380.205971 152.623159 
L 382.854298 156.002565 
L 385.328567 159.53774 
L 387.617955 163.232226 
L 389.678851 167.023182 
L 391.526127 170.912809 
L 393.169736 174.914888 
L 394.585945 178.973106 
L 395.796384 183.129011 
L 396.783218 187.341078 
L 397.5458 191.594496 
L 398.089176 195.907851 
L 398.401339 200.231765 
L 398.487273 204.609314 
L 398.335464 208.964636 
L 397.9493 213.330585 
L 397.317945 217.691114 
L 396.439166 222.005233 
L 395.303165 226.292997 
L 393.901229 230.520261 
L 392.231193 234.658727 
L 390.283197 238.706836 
L 388.047867 242.643116 
L 385.566562 246.378715 
L 382.875243 249.896423 
L 379.987517 253.216081 
L 376.920405 256.340701 
L 373.725895 259.242961 
L 370.364698 261.986319 
L 366.905878 264.517201 
L 363.339899 266.868363 
L 359.684536 269.037464 
L 355.961857 271.022118 
L 352.136942 272.849226 
L 348.245416 274.493172 
L 344.267739 275.961498 
L 340.210965 277.242561 
L 336.107835 278.32057 
L 331.936892 279.200797 
L 327.703446 279.871926 
L 323.428539 280.321834 
L 319.106818 280.545424 
L 314.772592 280.533272 
L 310.408968 280.283089 
L 306.061601 279.789263 
L 301.740478 279.054 
L 297.433238 278.069603 
L 293.178543 276.832514 
L 288.985979 275.337105 
L 284.872906 273.577413 
L 280.870538 271.553791 
L 276.959864 269.240176 
L 273.223263 266.660424 
L 269.683507 263.829566 
L 266.386391 260.796261 
L 263.294919 257.550455 
L 260.451425 254.147415 
L 257.816621 250.567923 
L 255.418686 246.855466 
L 253.247603 243.018849 
L 251.298685 239.061639 
L 249.578714 235.005232 
L 248.089086 230.862404 
L 246.835137 226.658429 
L 245.806341 222.363826 
L 245.026049 218.045057 
L 244.483702 213.67327 
L 244.191258 209.27291 
L 244.15454 204.872558 
L 244.379352 200.44076 
L 244.879513 196.030762 
L 245.660677 191.65093 
L 246.479059 188.232773 
L 246.479059 188.232773 
" style="fill:none;stroke:#ffffff;stroke-linecap:square;"/>
   </g>
   <g id="line2d_16">
    <path clip-path="url(#pc4df92ea0f)" d="M 102.89839 204.946465 
L 102.382452 198.475269 
L 102.100469 191.973834 
L 102.071304 185.493704 
L 102.323752 179.03319 
L 102.869504 172.663802 
L 103.733245 166.386583 
L 104.927317 160.262041 
L 106.469641 154.306154 
L 108.380863 148.527247 
L 110.669211 142.969479 
L 111.969704 140.261687 
L 113.375691 137.600205 
L 114.880689 134.996761 
L 116.484196 132.454338 
L 118.187452 129.974675 
L 119.978061 127.570811 
L 121.842631 125.261917 
L 123.811792 123.021743 
L 125.856281 120.874648 
L 127.973726 118.827295 
L 130.188465 116.861497 
L 132.489316 114.982363 
L 134.888064 113.181482 
L 137.360069 111.470299 
L 142.54975 108.295628 
L 148.015989 105.462354 
L 153.698952 102.980211 
L 159.503017 100.876903 
L 165.380874 99.180323 
L 171.289442 97.909568 
L 174.251539 97.442178 
L 177.241944 97.087688 
L 180.204099 96.848459 
L 183.182341 96.730303 
L 186.159728 96.732891 
L 189.14151 96.859335 
L 192.101269 97.107465 
L 195.040395 97.480604 
L 197.949463 97.978079 
L 200.80495 98.594499 
L 203.595879 99.329607 
L 206.33668 100.192023 
L 208.984687 101.163701 
L 211.583143 102.269679 
L 214.192584 103.542016 
L 219.570693 106.598083 
L 225.199351 110.206828 
L 234.374032 116.279685 
L 241.10804 120.385129 
L 244.597136 122.298612 
L 248.151187 124.103305 
L 251.719862 125.774736 
L 258.937547 128.789464 
L 266.23899 131.400967 
L 273.584016 133.65659 
L 280.870289 135.579771 
L 291.459026 138.014204 
L 304.752968 141.031657 
L 310.999704 142.678102 
L 317.07653 144.564145 
L 323.03329 146.73689 
L 328.830413 149.204142 
L 334.432544 151.963063 
L 339.865111 155.055191 
L 345.022183 158.430903 
L 347.463251 160.214859 
L 349.828611 162.087939 
L 352.075853 164.012248 
L 354.19941 165.990587 
L 356.21252 168.047259 
L 358.076715 170.135115 
L 359.81661 172.300953 
L 361.420141 174.529729 
L 362.891078 176.832008 
L 364.24481 179.249468 
L 365.473522 181.758743 
L 366.567261 184.331941 
L 367.528592 186.9901 
L 368.349999 189.691673 
L 369.028149 192.442909 
L 369.563691 195.251564 
L 369.951577 198.063778 
L 370.189705 200.921873 
L 370.280147 203.754552 
L 370.213251 206.616514 
L 369.999738 209.432574 
L 369.636336 212.204669 
L 369.118221 214.938512 
L 368.462247 217.578776 
L 367.663017 220.131385 
L 366.715642 222.603472 
L 365.637035 224.961319 
L 364.429516 227.19818 
L 363.044671 229.374687 
L 361.474759 231.500993 
L 359.741448 233.55726 
L 357.848881 235.540472 
L 355.780348 237.463845 
L 353.610411 239.278029 
L 351.284115 241.015433 
L 348.853329 242.650357 
L 346.328496 244.178085 
L 343.708714 245.601005 
L 341.064176 246.892215 
L 338.37337 248.056167 
L 335.66289 249.085317 
L 332.932737 249.977199 
L 330.164278 250.733495 
L 327.393083 251.348932 
L 324.620896 251.820716 
L 321.83373 252.14686 
L 319.051047 252.325406 
L 316.245595 252.351668 
L 313.455431 252.227936 
L 310.656064 251.94571 
L 307.879839 251.509839 
L 305.16028 250.928022 
L 302.501057 250.196761 
L 299.920803 249.321684 
L 297.437434 248.308753 
L 295.055011 247.157617 
L 292.813709 245.894338 
L 290.680535 244.488005 
L 288.646826 242.930641 
L 286.687953 241.194753 
L 284.840912 239.325671 
L 283.077479 237.282238 
L 281.436942 235.126 
L 279.905232 232.82758 
L 278.499421 230.420507 
L 277.224196 227.91532 
L 276.086884 225.3259 
L 275.093145 222.66769 
L 274.244699 219.943637 
L 273.55207 217.211441 
L 273.013074 214.425807 
L 272.631214 211.65086 
L 272.408642 208.883321 
L 272.346589 206.129885 
L 272.439253 203.44317 
L 272.693979 200.79815 
L 273.105113 198.221734 
L 273.923495 194.803577 
L 273.923495 194.803577 
" style="fill:none;stroke:#ffffff;stroke-linecap:square;"/>
   </g>
   <g id="patch_3">
    <path d="M 57.6 307.584 
L 57.6 41.472 
" style="fill:none;stroke:#000000;stroke-linecap:square;stroke-linejoin:miter;stroke-width:0.8;"/>
   </g>
   <g id="patch_4">
    <path d="M 414.72 307.584 
L 414.72 41.472 
" style="fill:none;stroke:#000000;stroke-linecap:square;stroke-linejoin:miter;stroke-width:0.8;"/>
   </g>
   <g id="patch_5">
    <path d="M 57.6 307.584 
L 414.72 307.584 
" style="fill:none;stroke:#000000;stroke-linecap:square;stroke-linejoin:miter;stroke-width:0.8;"/>
   </g>
   <g id="patch_6">
    <path d="M 57.6 41.472 
L 414.72 41.472 
" style="fill:none;stroke:#000000;stroke-linecap:square;stroke-linejoin:miter;stroke-width:0.8;"/>
   </g>
  </g>
 </g>
 <defs>
  <clipPath id="pc4df92ea0f">
   <rect height="266.112" width="357.12" x="57.6" y="41.472"/>
  </clipPath>
 </defs>
</svg>
