<?xml version="1.0" encoding="utf-8" standalone="no"?>
<!DOCTYPE svg PUBLIC "-//W3C//DTD SVG 1.1//EN"
  "http://www.w3.org/Graphics/SVG/1.1/DTD/svg11.dtd">
<!-- Created with matplotlib (https://matplotlib.org/) -->
<svg height="345.6pt" version="1.1" viewBox="0 0 460.8 345.6" width="460.8pt" xmlns="http://www.w3.org/2000/svg" xmlns:xlink="http://www.w3.org/1999/xlink">
 <metadata>
  <rdf:RDF xmlns:cc="http://creativecommons.org/ns#" xmlns:dc="http://purl.org/dc/elements/1.1/" xmlns:rdf="http://www.w3.org/1999/02/22-rdf-syntax-ns#">
   <cc:Work>
    <dc:type rdf:resource="http://purl.org/dc/dcmitype/StillImage"/>
    <dc:date>2021-01-25T11:22:50.110674</dc:date>
    <dc:format>image/svg+xml</dc:format>
    <dc:creator>
     <cc:Agent>
      <dc:title>Matplotlib v3.3.3, https://matplotlib.org/</dc:title>
     </cc:Agent>
    </dc:creator>
   </cc:Work>
  </rdf:RDF>
 </metadata>
 <defs>
  <style type="text/css">*{stroke-linecap:butt;stroke-linejoin:round;}</style>
 </defs>
 <g id="figure_1">
  <g id="patch_1">
   <path d="M 0 345.6 
L 460.8 345.6 
L 460.8 0 
L 0 0 
z
" style="fill:#ffffff;"/>
  </g>
  <g id="axes_1">
   <g id="patch_2">
    <path d="M 57.6 307.584 
L 414.72 307.584 
L 414.72 41.472 
L 57.6 41.472 
z
" style="fill:#7d9051;"/>
   </g>
   <g id="matplotlib.axis_1">
    <g id="xtick_1">
     <g id="line2d_1">
      <defs>
       <path d="M 0 0 
L 0 3.5 
" id="m082fe76476" style="stroke:#000000;stroke-width:0.8;"/>
      </defs>
      <g>
       <use style="stroke:#000000;stroke-width:0.8;" x="131.396973" xlink:href="#m082fe76476" y="307.584"/>
      </g>
     </g>
     <g id="text_1">
      <!-- 20 -->
      <g transform="translate(125.034473 322.182437)scale(0.1 -0.1)">
       <defs>
        <path d="M 19.1875 8.296875 
L 53.609375 8.296875 
L 53.609375 0 
L 7.328125 0 
L 7.328125 8.296875 
Q 12.9375 14.109375 22.625 23.890625 
Q 32.328125 33.6875 34.8125 36.53125 
Q 39.546875 41.84375 41.421875 45.53125 
Q 43.3125 49.21875 43.3125 52.78125 
Q 43.3125 58.59375 39.234375 62.25 
Q 35.15625 65.921875 28.609375 65.921875 
Q 23.96875 65.921875 18.8125 64.3125 
Q 13.671875 62.703125 7.8125 59.421875 
L 7.8125 69.390625 
Q 13.765625 71.78125 18.9375 73 
Q 24.125 74.21875 28.421875 74.21875 
Q 39.75 74.21875 46.484375 68.546875 
Q 53.21875 62.890625 53.21875 53.421875 
Q 53.21875 48.921875 51.53125 44.890625 
Q 49.859375 40.875 45.40625 35.40625 
Q 44.1875 33.984375 37.640625 27.21875 
Q 31.109375 20.453125 19.1875 8.296875 
z
" id="DejaVuSans-50"/>
        <path d="M 31.78125 66.40625 
Q 24.171875 66.40625 20.328125 58.90625 
Q 16.5 51.421875 16.5 36.375 
Q 16.5 21.390625 20.328125 13.890625 
Q 24.171875 6.390625 31.78125 6.390625 
Q 39.453125 6.390625 43.28125 13.890625 
Q 47.125 21.390625 47.125 36.375 
Q 47.125 51.421875 43.28125 58.90625 
Q 39.453125 66.40625 31.78125 66.40625 
z
M 31.78125 74.21875 
Q 44.046875 74.21875 50.515625 64.515625 
Q 56.984375 54.828125 56.984375 36.375 
Q 56.984375 17.96875 50.515625 8.265625 
Q 44.046875 -1.421875 31.78125 -1.421875 
Q 19.53125 -1.421875 13.0625 8.265625 
Q 6.59375 17.96875 6.59375 36.375 
Q 6.59375 54.828125 13.0625 64.515625 
Q 19.53125 74.21875 31.78125 74.21875 
z
" id="DejaVuSans-48"/>
       </defs>
       <use xlink:href="#DejaVuSans-50"/>
       <use x="63.623047" xlink:href="#DejaVuSans-48"/>
      </g>
     </g>
    </g>
    <g id="xtick_2">
     <g id="line2d_2">
      <g>
       <use style="stroke:#000000;stroke-width:0.8;" x="210.372158" xlink:href="#m082fe76476" y="307.584"/>
      </g>
     </g>
     <g id="text_2">
      <!-- 40 -->
      <g transform="translate(204.009658 322.182437)scale(0.1 -0.1)">
       <defs>
        <path d="M 37.796875 64.3125 
L 12.890625 25.390625 
L 37.796875 25.390625 
z
M 35.203125 72.90625 
L 47.609375 72.90625 
L 47.609375 25.390625 
L 58.015625 25.390625 
L 58.015625 17.1875 
L 47.609375 17.1875 
L 47.609375 0 
L 37.796875 0 
L 37.796875 17.1875 
L 4.890625 17.1875 
L 4.890625 26.703125 
z
" id="DejaVuSans-52"/>
       </defs>
       <use xlink:href="#DejaVuSans-52"/>
       <use x="63.623047" xlink:href="#DejaVuSans-48"/>
      </g>
     </g>
    </g>
    <g id="xtick_3">
     <g id="line2d_3">
      <g>
       <use style="stroke:#000000;stroke-width:0.8;" x="289.347343" xlink:href="#m082fe76476" y="307.584"/>
      </g>
     </g>
     <g id="text_3">
      <!-- 60 -->
      <g transform="translate(282.984843 322.182437)scale(0.1 -0.1)">
       <defs>
        <path d="M 33.015625 40.375 
Q 26.375 40.375 22.484375 35.828125 
Q 18.609375 31.296875 18.609375 23.390625 
Q 18.609375 15.53125 22.484375 10.953125 
Q 26.375 6.390625 33.015625 6.390625 
Q 39.65625 6.390625 43.53125 10.953125 
Q 47.40625 15.53125 47.40625 23.390625 
Q 47.40625 31.296875 43.53125 35.828125 
Q 39.65625 40.375 33.015625 40.375 
z
M 52.59375 71.296875 
L 52.59375 62.3125 
Q 48.875 64.0625 45.09375 64.984375 
Q 41.3125 65.921875 37.59375 65.921875 
Q 27.828125 65.921875 22.671875 59.328125 
Q 17.53125 52.734375 16.796875 39.40625 
Q 19.671875 43.65625 24.015625 45.921875 
Q 28.375 48.1875 33.59375 48.1875 
Q 44.578125 48.1875 50.953125 41.515625 
Q 57.328125 34.859375 57.328125 23.390625 
Q 57.328125 12.15625 50.6875 5.359375 
Q 44.046875 -1.421875 33.015625 -1.421875 
Q 20.359375 -1.421875 13.671875 8.265625 
Q 6.984375 17.96875 6.984375 36.375 
Q 6.984375 53.65625 15.1875 63.9375 
Q 23.390625 74.21875 37.203125 74.21875 
Q 40.921875 74.21875 44.703125 73.484375 
Q 48.484375 72.75 52.59375 71.296875 
z
" id="DejaVuSans-54"/>
       </defs>
       <use xlink:href="#DejaVuSans-54"/>
       <use x="63.623047" xlink:href="#DejaVuSans-48"/>
      </g>
     </g>
    </g>
    <g id="xtick_4">
     <g id="line2d_4">
      <g>
       <use style="stroke:#000000;stroke-width:0.8;" x="368.322528" xlink:href="#m082fe76476" y="307.584"/>
      </g>
     </g>
     <g id="text_4">
      <!-- 80 -->
      <g transform="translate(361.960028 322.182437)scale(0.1 -0.1)">
       <defs>
        <path d="M 31.78125 34.625 
Q 24.75 34.625 20.71875 30.859375 
Q 16.703125 27.09375 16.703125 20.515625 
Q 16.703125 13.921875 20.71875 10.15625 
Q 24.75 6.390625 31.78125 6.390625 
Q 38.8125 6.390625 42.859375 10.171875 
Q 46.921875 13.96875 46.921875 20.515625 
Q 46.921875 27.09375 42.890625 30.859375 
Q 38.875 34.625 31.78125 34.625 
z
M 21.921875 38.8125 
Q 15.578125 40.375 12.03125 44.71875 
Q 8.5 49.078125 8.5 55.328125 
Q 8.5 64.0625 14.71875 69.140625 
Q 20.953125 74.21875 31.78125 74.21875 
Q 42.671875 74.21875 48.875 69.140625 
Q 55.078125 64.0625 55.078125 55.328125 
Q 55.078125 49.078125 51.53125 44.71875 
Q 48 40.375 41.703125 38.8125 
Q 48.828125 37.15625 52.796875 32.3125 
Q 56.78125 27.484375 56.78125 20.515625 
Q 56.78125 9.90625 50.3125 4.234375 
Q 43.84375 -1.421875 31.78125 -1.421875 
Q 19.734375 -1.421875 13.25 4.234375 
Q 6.78125 9.90625 6.78125 20.515625 
Q 6.78125 27.484375 10.78125 32.3125 
Q 14.796875 37.15625 21.921875 38.8125 
z
M 18.3125 54.390625 
Q 18.3125 48.734375 21.84375 45.5625 
Q 25.390625 42.390625 31.78125 42.390625 
Q 38.140625 42.390625 41.71875 45.5625 
Q 45.3125 48.734375 45.3125 54.390625 
Q 45.3125 60.0625 41.71875 63.234375 
Q 38.140625 66.40625 31.78125 66.40625 
Q 25.390625 66.40625 21.84375 63.234375 
Q 18.3125 60.0625 18.3125 54.390625 
z
" id="DejaVuSans-56"/>
       </defs>
       <use xlink:href="#DejaVuSans-56"/>
       <use x="63.623047" xlink:href="#DejaVuSans-48"/>
      </g>
     </g>
    </g>
   </g>
   <g id="matplotlib.axis_2">
    <g id="ytick_1">
     <g id="line2d_5">
      <defs>
       <path d="M 0 0 
L -3.5 0 
" id="m93507d3aa7" style="stroke:#000000;stroke-width:0.8;"/>
      </defs>
      <g>
       <use style="stroke:#000000;stroke-width:0.8;" x="57.6" xlink:href="#m93507d3aa7" y="307.529019"/>
      </g>
     </g>
     <g id="text_5">
      <!-- 0 -->
      <g transform="translate(44.2375 311.328238)scale(0.1 -0.1)">
       <use xlink:href="#DejaVuSans-48"/>
      </g>
     </g>
    </g>
    <g id="ytick_2">
     <g id="line2d_6">
      <g>
       <use style="stroke:#000000;stroke-width:0.8;" x="57.6" xlink:href="#m93507d3aa7" y="268.041427"/>
      </g>
     </g>
     <g id="text_6">
      <!-- 10 -->
      <g transform="translate(37.875 271.840645)scale(0.1 -0.1)">
       <defs>
        <path d="M 12.40625 8.296875 
L 28.515625 8.296875 
L 28.515625 63.921875 
L 10.984375 60.40625 
L 10.984375 69.390625 
L 28.421875 72.90625 
L 38.28125 72.90625 
L 38.28125 8.296875 
L 54.390625 8.296875 
L 54.390625 0 
L 12.40625 0 
z
" id="DejaVuSans-49"/>
       </defs>
       <use xlink:href="#DejaVuSans-49"/>
       <use x="63.623047" xlink:href="#DejaVuSans-48"/>
      </g>
     </g>
    </g>
    <g id="ytick_3">
     <g id="line2d_7">
      <g>
       <use style="stroke:#000000;stroke-width:0.8;" x="57.6" xlink:href="#m93507d3aa7" y="228.553834"/>
      </g>
     </g>
     <g id="text_7">
      <!-- 20 -->
      <g transform="translate(37.875 232.353053)scale(0.1 -0.1)">
       <use xlink:href="#DejaVuSans-50"/>
       <use x="63.623047" xlink:href="#DejaVuSans-48"/>
      </g>
     </g>
    </g>
    <g id="ytick_4">
     <g id="line2d_8">
      <g>
       <use style="stroke:#000000;stroke-width:0.8;" x="57.6" xlink:href="#m93507d3aa7" y="189.066242"/>
      </g>
     </g>
     <g id="text_8">
      <!-- 30 -->
      <g transform="translate(37.875 192.86546)scale(0.1 -0.1)">
       <defs>
        <path d="M 40.578125 39.3125 
Q 47.65625 37.796875 51.625 33 
Q 55.609375 28.21875 55.609375 21.1875 
Q 55.609375 10.40625 48.1875 4.484375 
Q 40.765625 -1.421875 27.09375 -1.421875 
Q 22.515625 -1.421875 17.65625 -0.515625 
Q 12.796875 0.390625 7.625 2.203125 
L 7.625 11.71875 
Q 11.71875 9.328125 16.59375 8.109375 
Q 21.484375 6.890625 26.8125 6.890625 
Q 36.078125 6.890625 40.9375 10.546875 
Q 45.796875 14.203125 45.796875 21.1875 
Q 45.796875 27.640625 41.28125 31.265625 
Q 36.765625 34.90625 28.71875 34.90625 
L 20.21875 34.90625 
L 20.21875 43.015625 
L 29.109375 43.015625 
Q 36.375 43.015625 40.234375 45.921875 
Q 44.09375 48.828125 44.09375 54.296875 
Q 44.09375 59.90625 40.109375 62.90625 
Q 36.140625 65.921875 28.71875 65.921875 
Q 24.65625 65.921875 20.015625 65.03125 
Q 15.375 64.15625 9.8125 62.3125 
L 9.8125 71.09375 
Q 15.4375 72.65625 20.34375 73.4375 
Q 25.25 74.21875 29.59375 74.21875 
Q 40.828125 74.21875 47.359375 69.109375 
Q 53.90625 64.015625 53.90625 55.328125 
Q 53.90625 49.265625 50.4375 45.09375 
Q 46.96875 40.921875 40.578125 39.3125 
z
" id="DejaVuSans-51"/>
       </defs>
       <use xlink:href="#DejaVuSans-51"/>
       <use x="63.623047" xlink:href="#DejaVuSans-48"/>
      </g>
     </g>
    </g>
    <g id="ytick_5">
     <g id="line2d_9">
      <g>
       <use style="stroke:#000000;stroke-width:0.8;" x="57.6" xlink:href="#m93507d3aa7" y="149.578649"/>
      </g>
     </g>
     <g id="text_9">
      <!-- 40 -->
      <g transform="translate(37.875 153.377868)scale(0.1 -0.1)">
       <use xlink:href="#DejaVuSans-52"/>
       <use x="63.623047" xlink:href="#DejaVuSans-48"/>
      </g>
     </g>
    </g>
    <g id="ytick_6">
     <g id="line2d_10">
      <g>
       <use style="stroke:#000000;stroke-width:0.8;" x="57.6" xlink:href="#m93507d3aa7" y="110.091057"/>
      </g>
     </g>
     <g id="text_10">
      <!-- 50 -->
      <g transform="translate(37.875 113.890275)scale(0.1 -0.1)">
       <defs>
        <path d="M 10.796875 72.90625 
L 49.515625 72.90625 
L 49.515625 64.59375 
L 19.828125 64.59375 
L 19.828125 46.734375 
Q 21.96875 47.46875 24.109375 47.828125 
Q 26.265625 48.1875 28.421875 48.1875 
Q 40.625 48.1875 47.75 41.5 
Q 54.890625 34.8125 54.890625 23.390625 
Q 54.890625 11.625 47.5625 5.09375 
Q 40.234375 -1.421875 26.90625 -1.421875 
Q 22.3125 -1.421875 17.546875 -0.640625 
Q 12.796875 0.140625 7.71875 1.703125 
L 7.71875 11.625 
Q 12.109375 9.234375 16.796875 8.0625 
Q 21.484375 6.890625 26.703125 6.890625 
Q 35.15625 6.890625 40.078125 11.328125 
Q 45.015625 15.765625 45.015625 23.390625 
Q 45.015625 31 40.078125 35.4375 
Q 35.15625 39.890625 26.703125 39.890625 
Q 22.75 39.890625 18.8125 39.015625 
Q 14.890625 38.140625 10.796875 36.28125 
z
" id="DejaVuSans-53"/>
       </defs>
       <use xlink:href="#DejaVuSans-53"/>
       <use x="63.623047" xlink:href="#DejaVuSans-48"/>
      </g>
     </g>
    </g>
    <g id="ytick_7">
     <g id="line2d_11">
      <g>
       <use style="stroke:#000000;stroke-width:0.8;" x="57.6" xlink:href="#m93507d3aa7" y="70.603464"/>
      </g>
     </g>
     <g id="text_11">
      <!-- 60 -->
      <g transform="translate(37.875 74.402683)scale(0.1 -0.1)">
       <use xlink:href="#DejaVuSans-54"/>
       <use x="63.623047" xlink:href="#DejaVuSans-48"/>
      </g>
     </g>
    </g>
   </g>
   <g id="line2d_12">
    <path clip-path="url(#p34416b207f)" d="M 236.145709 172.975048 
L 234.984774 168.978903 
L 234.100252 164.974861 
L 233.488195 160.962922 
L 233.136755 156.95888 
L 233.045933 152.966685 
L 233.203884 148.998182 
L 233.602709 145.053371 
L 234.238459 141.151997 
L 235.099288 137.294059 
L 236.1773 133.487455 
L 237.468544 129.744032 
L 238.965124 126.071685 
L 240.655193 122.478314 
L 242.538751 118.967868 
L 244.600003 115.552191 
L 246.835001 112.239182 
L 249.239795 109.036738 
L 251.80254 105.952757 
L 254.515337 102.991188 
L 257.37029 100.167825 
L 260.36345 97.486617 
L 263.486919 94.959411 
L 266.72885 92.594105 
L 270.081346 90.402543 
L 273.54046 88.388676 
L 277.094343 86.572247 
L 280.739048 84.953255 
L 284.462728 83.551446 
L 288.261434 82.366818 
L 292.123321 81.415167 
L 296.04049 80.70439 
L 299.997146 80.234488 
L 303.985393 79.993614 
L 307.985486 79.989665 
L 311.98558 80.210796 
L 315.973826 80.657005 
L 319.930483 81.324346 
L 323.843704 82.208868 
L 327.697693 83.310572 
L 331.480604 84.617611 
L 335.176643 86.137883 
L 338.777911 87.855593 
L 342.284409 89.762844 
L 345.680342 91.851738 
L 348.96571 94.118326 
L 352.128666 96.550761 
L 355.165262 99.141147 
L 358.071549 101.885535 
L 360.83568 104.768129 
L 363.457656 107.784981 
L 365.921682 110.928194 
L 368.235655 114.189869 
L 370.38378 117.55816 
L 372.373955 121.021222 
L 374.194333 124.571157 
L 375.844914 128.204015 
L 377.32175 131.904003 
L 378.624841 135.659273 
L 379.742339 139.469826 
L 380.682144 143.319866 
L 381.432408 147.201496 
L 382.00103 151.110768 
L 382.395906 155.039783 
L 382.624934 158.988542 
L 382.696011 162.949148 
L 382.609139 166.9216 
L 382.376162 170.894052 
L 382.00103 174.870452 
L 381.49164 178.842904 
L 380.85589 182.807458 
L 380.093779 186.756217 
L 379.205308 190.681284 
L 378.18258 194.562914 
L 377.009798 198.39716 
L 375.686964 202.168225 
L 374.20223 205.856366 
L 372.5477 209.457634 
L 370.715476 212.956235 
L 368.69766 216.336373 
L 366.486355 219.586202 
L 364.08156 222.697824 
L 361.487225 225.67124 
L 358.723094 228.5025 
L 355.804961 231.199503 
L 352.75257 233.758299 
L 349.573819 236.186786 
L 346.288451 238.484964 
L 342.912262 240.656781 
L 339.457098 242.69829 
L 335.946651 244.617387 
L 332.388819 246.414072 
L 328.78755 248.092295 
L 321.474448 251.132839 
L 314.031037 253.786406 
L 306.484958 256.108276 
L 298.852006 258.153733 
L 291.155875 259.966214 
L 283.412358 261.557564 
L 275.625404 262.93963 
L 267.81081 264.108462 
L 259.976472 265.075908 
L 252.126338 265.849865 
L 240.327446 266.750182 
L 208.70973 268.712716 
L 200.788519 269.020719 
L 192.887052 269.004924 
L 188.950139 268.82723 
L 185.021124 268.511329 
L 181.107903 268.041427 
L 177.206529 267.397779 
L 173.324899 266.584334 
L 169.474858 265.605042 
L 165.664306 264.467799 
L 161.893241 263.176555 
L 158.177458 261.731309 
L 154.520907 260.147857 
L 150.931485 258.422249 
L 147.417089 256.566332 
L 143.985617 254.580106 
L 140.63707 252.471469 
L 137.379343 250.248317 
L 134.204541 247.914601 
L 131.104765 245.474267 
L 128.080015 242.935215 
L 122.235852 237.584646 
L 116.644408 231.906331 
L 111.278045 225.951602 
L 106.192043 219.732306 
L 103.803043 216.514067 
L 101.540404 213.228699 
L 99.423869 209.864357 
L 97.473182 206.421039 
L 95.708087 202.898745 
L 94.144378 199.293528 
L 92.805749 195.601438 
L 91.704045 191.826424 
L 90.843216 187.976384 
L 90.211414 184.067112 
L 89.808641 180.110456 
L 89.626998 176.11826 
L 89.666485 172.110269 
L 89.919206 168.090433 
L 90.377262 164.078493 
L 91.044602 160.086298 
L 91.909381 156.125692 
L 92.971597 152.212472 
L 94.219405 148.358483 
L 95.656753 144.57952 
L 97.271796 140.883481 
L 99.068481 137.29011 
L 101.031014 133.811254 
L 103.163344 130.458757 
L 105.457574 127.244467 
L 107.909753 124.188127 
L 110.511985 121.293687 
L 110.511985 121.293687 
" style="fill:none;stroke:#fea952;stroke-linecap:square;"/>
   </g>
   <g id="line2d_13">
    <path clip-path="url(#p34416b207f)" d="M 220.977782 177.38154 
L 219.561581 172.385999 
L 218.485877 167.356976 
L 217.753649 162.343962 
L 217.345804 157.31812 
L 217.263392 152.338524 
L 217.488957 147.409385 
L 218.0133 142.512992 
L 218.822524 137.712208 
L 219.90191 132.990237 
L 221.245601 128.336964 
L 222.841491 123.783114 
L 224.672055 119.349231 
L 226.737074 115.010438 
L 229.015354 110.806928 
L 231.505956 106.718781 
L 234.20458 102.754686 
L 237.091699 98.941841 
L 240.155296 95.283882 
L 243.408867 91.760449 
L 246.831437 88.402802 
L 250.428367 85.207476 
L 254.177329 82.199523 
L 258.086285 79.373316 
L 262.134314 76.752346 
L 266.351964 74.324227 
L 270.682273 72.13727 
L 275.174148 70.171 
L 279.760389 68.472613 
L 284.482252 67.030555 
L 289.303333 65.873904 
L 294.177723 65.01958 
L 299.044924 64.46818 
L 303.969801 64.198584 
L 308.857326 64.218708 
L 313.74179 64.513696 
L 318.600757 65.081947 
L 323.412852 65.917974 
L 328.184989 67.022149 
L 332.855851 68.38152 
L 337.489066 70.010025 
L 341.97656 71.881505 
L 346.324971 73.980253 
L 350.559929 76.309258 
L 354.649896 78.850573 
L 358.594603 81.597638 
L 362.3796 84.534042 
L 366.00959 87.657082 
L 369.472128 90.953473 
L 372.757389 94.406853 
L 375.888414 98.040267 
L 378.804072 101.788871 
L 381.552956 105.696772 
L 384.078452 109.688018 
L 386.428817 113.814001 
L 388.574675 118.037479 
L 390.514553 122.348685 
L 392.243918 126.725963 
L 393.781551 131.214352 
L 395.086832 135.724196 
L 396.190152 140.322387 
L 397.062963 144.927961 
L 397.716895 149.531284 
L 398.164442 154.125208 
L 398.417428 158.705128 
L 398.487273 163.294484 
L 398.377081 167.84636 
L 398.101377 172.377562 
L 397.667787 176.87941 
L 397.087428 181.343822 
L 396.364723 185.800663 
L 395.499078 190.243332 
L 394.479078 194.705604 
L 393.286859 199.182864 
L 391.914422 203.625483 
L 390.339269 208.066797 
L 388.554976 212.450445 
L 386.54006 216.785462 
L 384.277748 221.052405 
L 381.756338 225.221986 
L 378.984033 229.24494 
L 375.983212 233.082134 
L 372.789184 236.70523 
L 369.443722 240.102126 
L 365.95208 243.304013 
L 362.341479 246.309634 
L 358.627501 249.129507 
L 354.833663 251.768884 
L 350.947137 254.255457 
L 347.033689 256.557527 
L 343.066684 258.716618 
L 339.060575 260.730876 
L 335.047464 262.593904 
L 331.012924 264.329225 
L 326.949498 265.948609 
L 318.81689 268.83894 
L 310.696942 271.331363 
L 302.575123 273.503704 
L 294.438445 275.416389 
L 286.282253 277.089688 
L 278.055609 278.546593 
L 269.847652 279.771619 
L 261.604464 280.786823 
L 253.439354 281.590233 
L 241.355031 282.511758 
L 209.449065 284.49044 
L 200.962081 284.814802 
L 196.598912 284.857416 
L 192.174862 284.783896 
L 187.684271 284.571459 
L 183.137972 284.193705 
L 178.536797 283.625797 
L 173.966854 282.857006 
L 169.431271 281.891942 
L 164.957776 280.740403 
L 160.547592 279.411107 
L 156.167634 277.89731 
L 151.900748 276.225657 
L 147.67725 274.38329 
L 143.555606 272.389339 
L 139.504443 270.23649 
L 135.568976 267.945859 
L 131.733747 265.518079 
L 128.024327 262.974938 
L 124.434161 260.325196 
L 120.949597 257.572026 
L 117.576579 254.731868 
L 114.300492 251.806826 
L 111.114232 248.800384 
L 105.025015 242.605531 
L 99.188601 236.116667 
L 96.329019 232.706571 
L 93.509482 229.146967 
L 90.794574 225.473025 
L 88.170982 221.63951 
L 85.680936 217.649918 
L 83.35201 213.497456 
L 81.217386 209.183869 
L 79.295212 204.677343 
L 77.643224 200.026485 
L 76.289611 195.272934 
L 75.250505 190.496418 
L 74.497585 185.666724 
L 74.029928 180.828379 
L 73.832727 175.962651 
L 73.902571 171.119218 
L 74.226122 166.298702 
L 74.798385 161.474309 
L 75.613127 156.716913 
L 76.665942 151.987967 
L 77.944557 147.347159 
L 79.456206 142.743222 
L 81.183176 138.255062 
L 83.144285 133.819726 
L 85.311515 129.52937 
L 87.703411 125.334333 
L 90.307193 121.282561 
L 93.13771 117.359925 
L 96.163819 113.628003 
L 98.766051 110.733563 
L 98.766051 110.733563 
" style="fill:none;stroke:#ffffff;stroke-linecap:square;"/>
   </g>
   <g id="line2d_14">
    <path clip-path="url(#p34416b207f)" d="M 251.313637 168.568555 
L 250.407968 165.571807 
L 249.714628 162.592747 
L 249.22274 159.581882 
L 248.927706 156.59964 
L 248.828475 153.594845 
L 248.91881 150.586978 
L 249.192117 147.59375 
L 249.654394 144.591786 
L 250.296667 141.597881 
L 251.108999 138.637946 
L 252.095596 135.704949 
L 253.258192 132.79414 
L 254.573311 129.946191 
L 256.062147 127.128807 
L 257.69405 124.3856 
L 259.465422 121.723678 
L 261.387892 119.131635 
L 263.449784 116.621632 
L 265.621808 114.221927 
L 267.909144 111.932848 
L 270.298533 109.765759 
L 272.796508 107.719299 
L 275.371415 105.814893 
L 278.028379 104.05274 
L 280.728956 102.453125 
L 283.506413 101.007223 
L 286.303948 99.735511 
L 289.165066 98.630279 
L 292.040616 97.703082 
L 294.943308 96.95643 
L 297.903257 96.389201 
L 300.949369 96.000796 
L 304.000986 95.788643 
L 307.113647 95.760622 
L 310.229369 95.907895 
L 313.346895 96.232063 
L 316.448114 96.730718 
L 319.502418 97.395587 
L 322.539534 98.239623 
L 325.472142 99.225197 
L 328.376725 100.394261 
L 331.230851 101.730934 
L 334.00889 103.21643 
L 336.710788 104.852903 
L 339.336817 106.639013 
L 341.877732 108.567481 
L 344.320934 110.625212 
L 346.670969 112.817597 
L 348.913971 115.129405 
L 351.026899 117.529696 
L 353.039292 120.067516 
L 354.918354 122.682966 
L 356.689108 125.428303 
L 358.319092 128.228443 
L 359.81399 131.104834 
L 361.175275 134.059346 
L 362.399582 137.082042 
L 363.46813 140.104194 
L 364.397847 143.215455 
L 365.174136 146.317344 
L 365.801854 149.475031 
L 366.285164 152.690252 
L 366.627369 155.954358 
L 366.83244 159.271957 
L 366.90475 162.603812 
L 366.841196 165.99684 
L 366.650947 169.410541 
L 366.334273 172.861494 
L 365.347056 179.814253 
L 363.931538 186.656964 
L 363.0783 189.942965 
L 362.105174 193.168836 
L 361.034659 196.269652 
L 359.849484 199.262286 
L 358.55534 202.129807 
L 357.153203 204.860065 
L 355.638982 207.45076 
L 353.988676 209.927463 
L 352.179909 212.313515 
L 350.185267 214.63725 
L 348.002466 216.902874 
L 345.657842 219.094992 
L 343.163661 221.206963 
L 340.520136 223.244065 
L 337.743239 225.201043 
L 334.877387 227.058105 
L 331.880507 228.839052 
L 328.826617 230.518156 
L 325.717063 232.097269 
L 319.280665 234.998577 
L 312.634564 237.564994 
L 305.764006 239.843579 
L 298.709901 241.87319 
L 291.491623 243.687421 
L 284.213618 245.295015 
L 276.872433 246.705156 
L 269.477482 247.912716 
L 262.05914 248.92971 
L 254.580026 249.756276 
L 243.17383 250.720372 
L 227.555852 251.72581 
L 204.261176 253.110809 
L 197.07271 253.270895 
L 190.216007 253.083 
L 186.904275 252.828952 
L 183.679009 252.457056 
L 180.446204 251.938552 
L 177.218526 251.276726 
L 173.99194 250.469681 
L 170.781019 249.524492 
L 167.618848 248.4558 
L 164.454168 247.236962 
L 161.364564 245.912424 
L 158.307364 244.455159 
L 155.329735 242.896174 
L 152.402259 241.214354 
L 149.540393 239.424859 
L 146.734359 237.521697 
L 143.97492 235.504005 
L 138.583452 231.138563 
L 133.357471 226.368909 
L 128.263802 221.207131 
L 123.367488 215.786537 
L 118.874603 210.317644 
L 116.811513 207.555109 
L 114.909827 204.817889 
L 113.166803 202.078795 
L 111.594355 199.344621 
L 110.198788 196.613622 
L 108.993544 193.909713 
L 107.968274 191.176392 
L 107.118479 188.379915 
L 106.435926 185.45635 
L 105.925244 182.467501 
L 105.587353 179.392532 
L 105.421268 176.273869 
L 105.4304 173.101321 
L 105.61229 169.882163 
L 105.956139 166.682677 
L 106.476078 163.455683 
L 107.152819 160.263417 
L 107.998637 157.077784 
L 108.982604 153.973743 
L 110.13033 150.903978 
L 111.399306 147.947237 
L 112.825447 145.05085 
L 114.358618 142.288174 
L 116.019495 139.634953 
L 117.777437 137.129008 
L 119.655687 134.748251 
L 122.25792 131.853811 
L 122.25792 131.853811 
" style="fill:none;stroke:#ffffff;stroke-linecap:square;"/>
   </g>
   <g id="patch_3">
    <path d="M 57.6 307.584 
L 57.6 41.472 
" style="fill:none;stroke:#000000;stroke-linecap:square;stroke-linejoin:miter;stroke-width:0.8;"/>
   </g>
   <g id="patch_4">
    <path d="M 414.72 307.584 
L 414.72 41.472 
" style="fill:none;stroke:#000000;stroke-linecap:square;stroke-linejoin:miter;stroke-width:0.8;"/>
   </g>
   <g id="patch_5">
    <path d="M 57.6 307.584 
L 414.72 307.584 
" style="fill:none;stroke:#000000;stroke-linecap:square;stroke-linejoin:miter;stroke-width:0.8;"/>
   </g>
   <g id="patch_6">
    <path d="M 57.6 41.472 
L 414.72 41.472 
" style="fill:none;stroke:#000000;stroke-linecap:square;stroke-linejoin:miter;stroke-width:0.8;"/>
   </g>
  </g>
 </g>
 <defs>
  <clipPath id="p34416b207f">
   <rect height="266.112" width="357.12" x="57.6" y="41.472"/>
  </clipPath>
 </defs>
</svg>
