<?xml version="1.0" encoding="utf-8" standalone="no"?>
<!DOCTYPE svg PUBLIC "-//W3C//DTD SVG 1.1//EN"
  "http://www.w3.org/Graphics/SVG/1.1/DTD/svg11.dtd">
<!-- Created with matplotlib (https://matplotlib.org/) -->
<svg height="345.6pt" version="1.1" viewBox="0 0 460.8 345.6" width="460.8pt" xmlns="http://www.w3.org/2000/svg" xmlns:xlink="http://www.w3.org/1999/xlink">
 <metadata>
  <rdf:RDF xmlns:cc="http://creativecommons.org/ns#" xmlns:dc="http://purl.org/dc/elements/1.1/" xmlns:rdf="http://www.w3.org/1999/02/22-rdf-syntax-ns#">
   <cc:Work>
    <dc:type rdf:resource="http://purl.org/dc/dcmitype/StillImage"/>
    <dc:date>2021-01-22T10:31:47.147780</dc:date>
    <dc:format>image/svg+xml</dc:format>
    <dc:creator>
     <cc:Agent>
      <dc:title>Matplotlib v3.3.3, https://matplotlib.org/</dc:title>
     </cc:Agent>
    </dc:creator>
   </cc:Work>
  </rdf:RDF>
 </metadata>
 <defs>
  <style type="text/css">*{stroke-linecap:butt;stroke-linejoin:round;}</style>
 </defs>
 <g id="figure_1">
  <g id="patch_1">
   <path d="M 0 345.6 
L 460.8 345.6 
L 460.8 0 
L 0 0 
z
" style="fill:#ffffff;"/>
  </g>
  <g id="axes_1">
   <g id="patch_2">
    <path d="M 57.6 307.584 
L 414.72 307.584 
L 414.72 41.472 
L 57.6 41.472 
z
" style="fill:#7d9051;"/>
   </g>
   <g id="matplotlib.axis_1">
    <g id="xtick_1">
     <g id="line2d_1">
      <defs>
       <path d="M 0 0 
L 0 3.5 
" id="ma805518743" style="stroke:#000000;stroke-width:0.8;"/>
      </defs>
      <g>
       <use style="stroke:#000000;stroke-width:0.8;" x="113.515895" xlink:href="#ma805518743" y="307.584"/>
      </g>
     </g>
     <g id="text_1">
      <!-- 20 -->
      <g transform="translate(107.153395 322.182437)scale(0.1 -0.1)">
       <defs>
        <path d="M 19.1875 8.296875 
L 53.609375 8.296875 
L 53.609375 0 
L 7.328125 0 
L 7.328125 8.296875 
Q 12.9375 14.109375 22.625 23.890625 
Q 32.328125 33.6875 34.8125 36.53125 
Q 39.546875 41.84375 41.421875 45.53125 
Q 43.3125 49.21875 43.3125 52.78125 
Q 43.3125 58.59375 39.234375 62.25 
Q 35.15625 65.921875 28.609375 65.921875 
Q 23.96875 65.921875 18.8125 64.3125 
Q 13.671875 62.703125 7.8125 59.421875 
L 7.8125 69.390625 
Q 13.765625 71.78125 18.9375 73 
Q 24.125 74.21875 28.421875 74.21875 
Q 39.75 74.21875 46.484375 68.546875 
Q 53.21875 62.890625 53.21875 53.421875 
Q 53.21875 48.921875 51.53125 44.890625 
Q 49.859375 40.875 45.40625 35.40625 
Q 44.1875 33.984375 37.640625 27.21875 
Q 31.109375 20.453125 19.1875 8.296875 
z
" id="DejaVuSans-50"/>
        <path d="M 31.78125 66.40625 
Q 24.171875 66.40625 20.328125 58.90625 
Q 16.5 51.421875 16.5 36.375 
Q 16.5 21.390625 20.328125 13.890625 
Q 24.171875 6.390625 31.78125 6.390625 
Q 39.453125 6.390625 43.28125 13.890625 
Q 47.125 21.390625 47.125 36.375 
Q 47.125 51.421875 43.28125 58.90625 
Q 39.453125 66.40625 31.78125 66.40625 
z
M 31.78125 74.21875 
Q 44.046875 74.21875 50.515625 64.515625 
Q 56.984375 54.828125 56.984375 36.375 
Q 56.984375 17.96875 50.515625 8.265625 
Q 44.046875 -1.421875 31.78125 -1.421875 
Q 19.53125 -1.421875 13.0625 8.265625 
Q 6.59375 17.96875 6.59375 36.375 
Q 6.59375 54.828125 13.0625 64.515625 
Q 19.53125 74.21875 31.78125 74.21875 
z
" id="DejaVuSans-48"/>
       </defs>
       <use xlink:href="#DejaVuSans-50"/>
       <use x="63.623047" xlink:href="#DejaVuSans-48"/>
      </g>
     </g>
    </g>
    <g id="xtick_2">
     <g id="line2d_2">
      <g>
       <use style="stroke:#000000;stroke-width:0.8;" x="169.916084" xlink:href="#ma805518743" y="307.584"/>
      </g>
     </g>
     <g id="text_2">
      <!-- 40 -->
      <g transform="translate(163.553584 322.182437)scale(0.1 -0.1)">
       <defs>
        <path d="M 37.796875 64.3125 
L 12.890625 25.390625 
L 37.796875 25.390625 
z
M 35.203125 72.90625 
L 47.609375 72.90625 
L 47.609375 25.390625 
L 58.015625 25.390625 
L 58.015625 17.1875 
L 47.609375 17.1875 
L 47.609375 0 
L 37.796875 0 
L 37.796875 17.1875 
L 4.890625 17.1875 
L 4.890625 26.703125 
z
" id="DejaVuSans-52"/>
       </defs>
       <use xlink:href="#DejaVuSans-52"/>
       <use x="63.623047" xlink:href="#DejaVuSans-48"/>
      </g>
     </g>
    </g>
    <g id="xtick_3">
     <g id="line2d_3">
      <g>
       <use style="stroke:#000000;stroke-width:0.8;" x="226.316273" xlink:href="#ma805518743" y="307.584"/>
      </g>
     </g>
     <g id="text_3">
      <!-- 60 -->
      <g transform="translate(219.953773 322.182437)scale(0.1 -0.1)">
       <defs>
        <path d="M 33.015625 40.375 
Q 26.375 40.375 22.484375 35.828125 
Q 18.609375 31.296875 18.609375 23.390625 
Q 18.609375 15.53125 22.484375 10.953125 
Q 26.375 6.390625 33.015625 6.390625 
Q 39.65625 6.390625 43.53125 10.953125 
Q 47.40625 15.53125 47.40625 23.390625 
Q 47.40625 31.296875 43.53125 35.828125 
Q 39.65625 40.375 33.015625 40.375 
z
M 52.59375 71.296875 
L 52.59375 62.3125 
Q 48.875 64.0625 45.09375 64.984375 
Q 41.3125 65.921875 37.59375 65.921875 
Q 27.828125 65.921875 22.671875 59.328125 
Q 17.53125 52.734375 16.796875 39.40625 
Q 19.671875 43.65625 24.015625 45.921875 
Q 28.375 48.1875 33.59375 48.1875 
Q 44.578125 48.1875 50.953125 41.515625 
Q 57.328125 34.859375 57.328125 23.390625 
Q 57.328125 12.15625 50.6875 5.359375 
Q 44.046875 -1.421875 33.015625 -1.421875 
Q 20.359375 -1.421875 13.671875 8.265625 
Q 6.984375 17.96875 6.984375 36.375 
Q 6.984375 53.65625 15.1875 63.9375 
Q 23.390625 74.21875 37.203125 74.21875 
Q 40.921875 74.21875 44.703125 73.484375 
Q 48.484375 72.75 52.59375 71.296875 
z
" id="DejaVuSans-54"/>
       </defs>
       <use xlink:href="#DejaVuSans-54"/>
       <use x="63.623047" xlink:href="#DejaVuSans-48"/>
      </g>
     </g>
    </g>
    <g id="xtick_4">
     <g id="line2d_4">
      <g>
       <use style="stroke:#000000;stroke-width:0.8;" x="282.716463" xlink:href="#ma805518743" y="307.584"/>
      </g>
     </g>
     <g id="text_4">
      <!-- 80 -->
      <g transform="translate(276.353963 322.182437)scale(0.1 -0.1)">
       <defs>
        <path d="M 31.78125 34.625 
Q 24.75 34.625 20.71875 30.859375 
Q 16.703125 27.09375 16.703125 20.515625 
Q 16.703125 13.921875 20.71875 10.15625 
Q 24.75 6.390625 31.78125 6.390625 
Q 38.8125 6.390625 42.859375 10.171875 
Q 46.921875 13.96875 46.921875 20.515625 
Q 46.921875 27.09375 42.890625 30.859375 
Q 38.875 34.625 31.78125 34.625 
z
M 21.921875 38.8125 
Q 15.578125 40.375 12.03125 44.71875 
Q 8.5 49.078125 8.5 55.328125 
Q 8.5 64.0625 14.71875 69.140625 
Q 20.953125 74.21875 31.78125 74.21875 
Q 42.671875 74.21875 48.875 69.140625 
Q 55.078125 64.0625 55.078125 55.328125 
Q 55.078125 49.078125 51.53125 44.71875 
Q 48 40.375 41.703125 38.8125 
Q 48.828125 37.15625 52.796875 32.3125 
Q 56.78125 27.484375 56.78125 20.515625 
Q 56.78125 9.90625 50.3125 4.234375 
Q 43.84375 -1.421875 31.78125 -1.421875 
Q 19.734375 -1.421875 13.25 4.234375 
Q 6.78125 9.90625 6.78125 20.515625 
Q 6.78125 27.484375 10.78125 32.3125 
Q 14.796875 37.15625 21.921875 38.8125 
z
M 18.3125 54.390625 
Q 18.3125 48.734375 21.84375 45.5625 
Q 25.390625 42.390625 31.78125 42.390625 
Q 38.140625 42.390625 41.71875 45.5625 
Q 45.3125 48.734375 45.3125 54.390625 
Q 45.3125 60.0625 41.71875 63.234375 
Q 38.140625 66.40625 31.78125 66.40625 
Q 25.390625 66.40625 21.84375 63.234375 
Q 18.3125 60.0625 18.3125 54.390625 
z
" id="DejaVuSans-56"/>
       </defs>
       <use xlink:href="#DejaVuSans-56"/>
       <use x="63.623047" xlink:href="#DejaVuSans-48"/>
      </g>
     </g>
    </g>
    <g id="xtick_5">
     <g id="line2d_5">
      <g>
       <use style="stroke:#000000;stroke-width:0.8;" x="339.116652" xlink:href="#ma805518743" y="307.584"/>
      </g>
     </g>
     <g id="text_5">
      <!-- 100 -->
      <g transform="translate(329.572902 322.182437)scale(0.1 -0.1)">
       <defs>
        <path d="M 12.40625 8.296875 
L 28.515625 8.296875 
L 28.515625 63.921875 
L 10.984375 60.40625 
L 10.984375 69.390625 
L 28.421875 72.90625 
L 38.28125 72.90625 
L 38.28125 8.296875 
L 54.390625 8.296875 
L 54.390625 0 
L 12.40625 0 
z
" id="DejaVuSans-49"/>
       </defs>
       <use xlink:href="#DejaVuSans-49"/>
       <use x="63.623047" xlink:href="#DejaVuSans-48"/>
       <use x="127.246094" xlink:href="#DejaVuSans-48"/>
      </g>
     </g>
    </g>
    <g id="xtick_6">
     <g id="line2d_6">
      <g>
       <use style="stroke:#000000;stroke-width:0.8;" x="395.516841" xlink:href="#ma805518743" y="307.584"/>
      </g>
     </g>
     <g id="text_6">
      <!-- 120 -->
      <g transform="translate(385.973091 322.182437)scale(0.1 -0.1)">
       <use xlink:href="#DejaVuSans-49"/>
       <use x="63.623047" xlink:href="#DejaVuSans-50"/>
       <use x="127.246094" xlink:href="#DejaVuSans-48"/>
      </g>
     </g>
    </g>
   </g>
   <g id="matplotlib.axis_2">
    <g id="ytick_1">
     <g id="line2d_7">
      <defs>
       <path d="M 0 0 
L -3.5 0 
" id="mb30b3d5952" style="stroke:#000000;stroke-width:0.8;"/>
      </defs>
      <g>
       <use style="stroke:#000000;stroke-width:0.8;" x="57.6" xlink:href="#mb30b3d5952" y="303.800688"/>
      </g>
     </g>
     <g id="text_7">
      <!-- 0 -->
      <g transform="translate(44.2375 307.599906)scale(0.1 -0.1)">
       <use xlink:href="#DejaVuSans-48"/>
      </g>
     </g>
    </g>
    <g id="ytick_2">
     <g id="line2d_8">
      <g>
       <use style="stroke:#000000;stroke-width:0.8;" x="57.6" xlink:href="#mb30b3d5952" y="247.400498"/>
      </g>
     </g>
     <g id="text_8">
      <!-- 20 -->
      <g transform="translate(37.875 251.199717)scale(0.1 -0.1)">
       <use xlink:href="#DejaVuSans-50"/>
       <use x="63.623047" xlink:href="#DejaVuSans-48"/>
      </g>
     </g>
    </g>
    <g id="ytick_3">
     <g id="line2d_9">
      <g>
       <use style="stroke:#000000;stroke-width:0.8;" x="57.6" xlink:href="#mb30b3d5952" y="191.000309"/>
      </g>
     </g>
     <g id="text_9">
      <!-- 40 -->
      <g transform="translate(37.875 194.799528)scale(0.1 -0.1)">
       <use xlink:href="#DejaVuSans-52"/>
       <use x="63.623047" xlink:href="#DejaVuSans-48"/>
      </g>
     </g>
    </g>
    <g id="ytick_4">
     <g id="line2d_10">
      <g>
       <use style="stroke:#000000;stroke-width:0.8;" x="57.6" xlink:href="#mb30b3d5952" y="134.60012"/>
      </g>
     </g>
     <g id="text_10">
      <!-- 60 -->
      <g transform="translate(37.875 138.399338)scale(0.1 -0.1)">
       <use xlink:href="#DejaVuSans-54"/>
       <use x="63.623047" xlink:href="#DejaVuSans-48"/>
      </g>
     </g>
    </g>
    <g id="ytick_5">
     <g id="line2d_11">
      <g>
       <use style="stroke:#000000;stroke-width:0.8;" x="57.6" xlink:href="#mb30b3d5952" y="78.19993"/>
      </g>
     </g>
     <g id="text_11">
      <!-- 80 -->
      <g transform="translate(37.875 81.999149)scale(0.1 -0.1)">
       <use xlink:href="#DejaVuSans-56"/>
       <use x="63.623047" xlink:href="#DejaVuSans-48"/>
      </g>
     </g>
    </g>
   </g>
   <g id="line2d_12">
    <path clip-path="url(#p6c876ddd39)" d="M 394.890799 275.600593 
L 392.12437 274.66999 
L 389.431261 273.629406 
L 386.811472 272.490122 
L 381.766475 269.926734 
L 376.955539 267.030584 
L 372.339184 263.849613 
L 367.886389 260.437402 
L 363.563314 256.84189 
L 357.238033 251.215971 
L 340.523837 235.98228 
L 334.063195 230.525562 
L 329.64706 227.02029 
L 325.129405 223.650378 
L 320.50741 220.415828 
L 313.398166 215.810752 
L 306.125361 211.473578 
L 298.728477 207.376104 
L 281.374138 197.979832 
L 276.492702 195.103423 
L 271.704326 192.054992 
L 267.06541 188.795061 
L 262.629535 185.28697 
L 258.458741 181.491237 
L 256.490375 179.47775 
L 254.606608 177.379663 
L 251.092877 172.949428 
L 247.914726 168.256933 
L 245.058056 163.344476 
L 242.511588 158.268459 
L 240.26404 153.076822 
L 238.275934 147.800584 
L 236.482408 142.462306 
L 233.197097 131.66167 
L 230.723948 123.525942 
L 228.930422 118.148184 
L 226.925396 112.860667 
L 224.624268 107.714149 
L 223.341163 105.204341 
L 221.950899 102.748113 
L 220.447834 100.351105 
L 218.837608 98.018957 
L 217.117403 95.757309 
L 215.290036 93.574622 
L 213.36679 91.476535 
L 211.342023 89.468688 
L 209.224196 87.559542 
L 207.013309 85.754736 
L 204.717821 84.06273 
L 202.334913 82.489165 
L 199.873045 81.03686 
L 197.337856 79.717095 
L 194.740627 78.524231 
L 192.084179 77.466728 
L 189.379789 76.544585 
L 186.6331 75.763442 
L 183.858211 75.1233 
L 181.057942 74.626978 
L 178.240752 74.280117 
L 175.417923 74.082716 
L 172.595093 74.037596 
L 169.775084 74.133477 
L 166.960714 74.364717 
L 161.357355 75.1797 
L 155.804757 76.397944 
L 150.322658 77.937669 
L 144.9308 79.714275 
L 139.634823 81.693922 
L 134.443185 83.890709 
L 129.355888 86.321558 
L 124.375751 88.997746 
L 119.505595 91.933376 
L 114.787719 95.153827 
L 110.306724 98.676019 
L 108.177617 100.556965 
L 106.13593 102.519692 
L 104.195764 104.572659 
L 102.365577 106.713046 
L 100.653832 108.943673 
L 99.068986 111.270181 
L 97.608221 113.681289 
L 96.268717 116.168538 
L 95.042013 118.723466 
L 93.928109 121.337615 
L 92.010503 126.709733 
L 90.473597 132.211572 
L 89.280733 137.77263 
L 88.37833 143.356249 
L 87.712808 148.956788 
L 87.010626 157.382976 
L 86.175903 171.452003 
L 85.524481 185.540771 
L 85.203 196.815168 
L 85.11558 208.095206 
L 85.23684 216.558055 
L 85.3158 219.378064 
L 85.3158 219.378064 
" style="fill:none;stroke:#fea952;stroke-linecap:square;"/>
   </g>
   <g id="line2d_13">
    <path clip-path="url(#p6c876ddd39)" d="M 391.294326 286.291927 
L 388.058835 285.191904 
L 384.932801 283.973637 
L 381.892765 282.641259 
L 378.956486 281.20948 
L 376.111647 279.686968 
L 370.685423 276.407412 
L 365.578423 272.879086 
L 360.748996 269.172211 
L 356.159358 265.351925 
L 349.600566 259.517077 
L 333.155975 244.523584 
L 326.990505 239.312843 
L 320.732218 234.413642 
L 316.429155 231.304917 
L 312.018774 228.313542 
L 305.219528 224.028272 
L 298.21209 219.956753 
L 288.466499 214.682006 
L 278.297827 209.19417 
L 273.129435 206.237875 
L 267.933775 203.058805 
L 262.755722 199.597127 
L 257.687805 195.812833 
L 255.188817 193.76488 
L 252.767395 191.629941 
L 250.392686 189.37654 
L 248.097019 187.01372 
L 245.907008 184.559928 
L 243.834942 182.035986 
L 241.86936 179.442964 
L 240.010619 176.789964 
L 236.602455 171.332683 
L 233.5891 165.731446 
L 230.935737 160.019809 
L 228.647903 154.318845 
L 226.640312 148.651294 
L 224.009576 140.320483 
L 219.17416 124.478403 
L 217.456556 119.611084 
L 215.598238 115.042603 
L 213.524542 110.760706 
L 211.165401 106.760136 
L 208.468347 102.998379 
L 205.424135 99.486122 
L 202.090965 96.297749 
L 198.501972 93.475619 
L 196.603552 92.204655 
L 194.664413 91.042329 
L 190.568596 89.004375 
L 188.443724 88.143167 
L 186.294168 87.394386 
L 184.097492 86.7548 
L 181.889611 86.230229 
L 179.679517 85.822477 
L 177.45386 85.532675 
L 175.237645 85.361314 
L 172.978393 85.31112 
L 170.698788 85.375631 
L 165.994676 85.846196 
L 161.167547 86.721534 
L 156.238094 87.955646 
L 151.249742 89.47913 
L 146.324601 91.205441 
L 141.530976 93.107057 
L 136.871281 95.193444 
L 132.314514 97.496221 
L 127.87745 100.012041 
L 123.624198 102.724838 
L 119.649442 105.608778 
L 115.995012 108.688853 
L 112.768971 111.903373 
L 111.314391 113.580214 
L 109.976336 115.294277 
L 108.71656 117.115144 
L 107.539607 119.029825 
L 105.419245 123.145264 
L 103.613026 127.589631 
L 102.109333 132.298917 
L 100.898553 137.192198 
L 99.952003 142.227749 
L 99.233012 147.383274 
L 98.68691 152.688244 
L 98.086351 160.882702 
L 97.155837 177.616488 
L 96.700402 188.707473 
L 96.437235 199.759251 
L 96.414254 210.757468 
L 96.591419 219.062347 
L 96.591419 219.062347 
" style="fill:none;stroke:#ffffff;stroke-linecap:square;"/>
   </g>
   <g id="line2d_14">
    <path clip-path="url(#p6c876ddd39)" d="M 398.487273 264.909258 
L 393.929721 263.285175 
L 389.556601 261.294797 
L 385.312235 258.951914 
L 381.152897 256.273032 
L 377.054992 253.292504 
L 372.999934 250.051056 
L 366.908722 244.758629 
L 356.553229 235.225228 
L 350.094334 229.3789 
L 343.418065 223.622128 
L 338.818997 219.874806 
L 334.072448 216.220366 
L 329.233039 212.730269 
L 324.29791 209.387902 
L 319.289251 206.191274 
L 311.678017 201.654857 
L 304.051388 197.430961 
L 287.029835 188.220101 
L 282.456995 185.529162 
L 278.069562 182.742473 
L 273.928305 179.842971 
L 270.070254 176.80906 
L 266.524797 173.605934 
L 263.306209 170.199398 
L 260.316393 166.455893 
L 257.571446 162.427094 
L 255.062959 158.134756 
L 252.798937 153.641398 
L 250.778781 148.99277 
L 248.941576 144.12862 
L 247.241923 139.07526 
L 244.007266 128.439947 
L 241.451731 120.039693 
L 239.522436 114.268944 
L 237.298628 108.429492 
L 234.667897 102.579485 
L 233.157785 99.647975 
L 231.507498 96.755563 
L 229.730267 93.942073 
L 227.815759 91.190189 
L 225.766458 88.516239 
L 223.605163 85.952422 
L 221.309445 83.466948 
L 218.894748 81.090407 
L 216.357427 78.821334 
L 213.706138 76.674797 
L 210.93367 74.649841 
L 208.066274 72.773674 
L 205.081676 71.031391 
L 202.045784 69.466502 
L 198.912659 68.044088 
L 195.724633 66.790289 
L 192.465411 65.694783 
L 189.168708 64.772084 
L 185.826811 64.016371 
L 182.436366 63.431479 
L 179.027644 63.027559 
L 175.5982 62.804119 
L 172.211793 62.764073 
L 168.85138 62.891323 
L 165.554676 63.172653 
L 162.314934 63.588242 
L 159.117163 64.124349 
L 152.88788 65.501565 
L 146.896965 67.190396 
L 141.084956 69.110091 
L 135.348462 71.260017 
L 129.703315 73.654847 
L 124.140821 76.319441 
L 118.683012 79.259576 
L 113.289746 82.520487 
L 107.985846 86.155284 
L 105.374501 88.139288 
L 102.838424 90.222396 
L 100.360222 92.425078 
L 97.937693 94.771907 
L 95.622556 97.241945 
L 93.416764 99.845878 
L 91.331327 102.59307 
L 89.421413 105.425219 
L 87.676836 108.332754 
L 86.100028 111.28622 
L 84.66478 114.301668 
L 83.379643 117.341477 
L 82.224065 120.415417 
L 80.281707 126.597007 
L 78.773998 132.780723 
L 77.639381 138.89549 
L 76.807366 144.924123 
L 76.202905 150.837151 
L 75.568299 159.506349 
L 74.620687 176.556276 
L 74.151159 188.008447 
L 73.878524 199.511105 
L 73.856385 211.072963 
L 74.040181 219.693781 
L 74.040181 219.693781 
" style="fill:none;stroke:#ffffff;stroke-linecap:square;"/>
   </g>
   <g id="patch_3">
    <path d="M 57.6 307.584 
L 57.6 41.472 
" style="fill:none;stroke:#000000;stroke-linecap:square;stroke-linejoin:miter;stroke-width:0.8;"/>
   </g>
   <g id="patch_4">
    <path d="M 414.72 307.584 
L 414.72 41.472 
" style="fill:none;stroke:#000000;stroke-linecap:square;stroke-linejoin:miter;stroke-width:0.8;"/>
   </g>
   <g id="patch_5">
    <path d="M 57.6 307.584 
L 414.72 307.584 
" style="fill:none;stroke:#000000;stroke-linecap:square;stroke-linejoin:miter;stroke-width:0.8;"/>
   </g>
   <g id="patch_6">
    <path d="M 57.6 41.472 
L 414.72 41.472 
" style="fill:none;stroke:#000000;stroke-linecap:square;stroke-linejoin:miter;stroke-width:0.8;"/>
   </g>
  </g>
 </g>
 <defs>
  <clipPath id="p6c876ddd39">
   <rect height="266.112" width="357.12" x="57.6" y="41.472"/>
  </clipPath>
 </defs>
</svg>
