<?xml version="1.0" encoding="utf-8" standalone="no"?>
<!DOCTYPE svg PUBLIC "-//W3C//DTD SVG 1.1//EN"
  "http://www.w3.org/Graphics/SVG/1.1/DTD/svg11.dtd">
<!-- Created with matplotlib (https://matplotlib.org/) -->
<svg height="345.6pt" version="1.1" viewBox="0 0 460.8 345.6" width="460.8pt" xmlns="http://www.w3.org/2000/svg" xmlns:xlink="http://www.w3.org/1999/xlink">
 <metadata>
  <rdf:RDF xmlns:cc="http://creativecommons.org/ns#" xmlns:dc="http://purl.org/dc/elements/1.1/" xmlns:rdf="http://www.w3.org/1999/02/22-rdf-syntax-ns#">
   <cc:Work>
    <dc:type rdf:resource="http://purl.org/dc/dcmitype/StillImage"/>
    <dc:date>2021-01-22T11:16:30.930246</dc:date>
    <dc:format>image/svg+xml</dc:format>
    <dc:creator>
     <cc:Agent>
      <dc:title>Matplotlib v3.3.3, https://matplotlib.org/</dc:title>
     </cc:Agent>
    </dc:creator>
   </cc:Work>
  </rdf:RDF>
 </metadata>
 <defs>
  <style type="text/css">*{stroke-linecap:butt;stroke-linejoin:round;}</style>
 </defs>
 <g id="figure_1">
  <g id="patch_1">
   <path d="M 0 345.6 
L 460.8 345.6 
L 460.8 0 
L 0 0 
z
" style="fill:#ffffff;"/>
  </g>
  <g id="axes_1">
   <g id="patch_2">
    <path d="M 57.6 307.584 
L 414.72 307.584 
L 414.72 41.472 
L 57.6 41.472 
z
" style="fill:#7d9051;"/>
   </g>
   <g id="matplotlib.axis_1">
    <g id="xtick_1">
     <g id="line2d_1">
      <defs>
       <path d="M 0 0 
L 0 3.5 
" id="m0979a570ec" style="stroke:#000000;stroke-width:0.8;"/>
      </defs>
      <g>
       <use style="stroke:#000000;stroke-width:0.8;" x="78.699674" xlink:href="#m0979a570ec" y="307.584"/>
      </g>
     </g>
     <g id="text_1">
      <!-- −40 -->
      <g transform="translate(68.14733 322.182437)scale(0.1 -0.1)">
       <defs>
        <path d="M 10.59375 35.5 
L 73.1875 35.5 
L 73.1875 27.203125 
L 10.59375 27.203125 
z
" id="DejaVuSans-8722"/>
        <path d="M 37.796875 64.3125 
L 12.890625 25.390625 
L 37.796875 25.390625 
z
M 35.203125 72.90625 
L 47.609375 72.90625 
L 47.609375 25.390625 
L 58.015625 25.390625 
L 58.015625 17.1875 
L 47.609375 17.1875 
L 47.609375 0 
L 37.796875 0 
L 37.796875 17.1875 
L 4.890625 17.1875 
L 4.890625 26.703125 
z
" id="DejaVuSans-52"/>
        <path d="M 31.78125 66.40625 
Q 24.171875 66.40625 20.328125 58.90625 
Q 16.5 51.421875 16.5 36.375 
Q 16.5 21.390625 20.328125 13.890625 
Q 24.171875 6.390625 31.78125 6.390625 
Q 39.453125 6.390625 43.28125 13.890625 
Q 47.125 21.390625 47.125 36.375 
Q 47.125 51.421875 43.28125 58.90625 
Q 39.453125 66.40625 31.78125 66.40625 
z
M 31.78125 74.21875 
Q 44.046875 74.21875 50.515625 64.515625 
Q 56.984375 54.828125 56.984375 36.375 
Q 56.984375 17.96875 50.515625 8.265625 
Q 44.046875 -1.421875 31.78125 -1.421875 
Q 19.53125 -1.421875 13.0625 8.265625 
Q 6.59375 17.96875 6.59375 36.375 
Q 6.59375 54.828125 13.0625 64.515625 
Q 19.53125 74.21875 31.78125 74.21875 
z
" id="DejaVuSans-48"/>
       </defs>
       <use xlink:href="#DejaVuSans-8722"/>
       <use x="83.789062" xlink:href="#DejaVuSans-52"/>
       <use x="147.412109" xlink:href="#DejaVuSans-48"/>
      </g>
     </g>
    </g>
    <g id="xtick_2">
     <g id="line2d_2">
      <g>
       <use style="stroke:#000000;stroke-width:0.8;" x="120.585202" xlink:href="#m0979a570ec" y="307.584"/>
      </g>
     </g>
     <g id="text_2">
      <!-- −20 -->
      <g transform="translate(110.032859 322.182437)scale(0.1 -0.1)">
       <defs>
        <path d="M 19.1875 8.296875 
L 53.609375 8.296875 
L 53.609375 0 
L 7.328125 0 
L 7.328125 8.296875 
Q 12.9375 14.109375 22.625 23.890625 
Q 32.328125 33.6875 34.8125 36.53125 
Q 39.546875 41.84375 41.421875 45.53125 
Q 43.3125 49.21875 43.3125 52.78125 
Q 43.3125 58.59375 39.234375 62.25 
Q 35.15625 65.921875 28.609375 65.921875 
Q 23.96875 65.921875 18.8125 64.3125 
Q 13.671875 62.703125 7.8125 59.421875 
L 7.8125 69.390625 
Q 13.765625 71.78125 18.9375 73 
Q 24.125 74.21875 28.421875 74.21875 
Q 39.75 74.21875 46.484375 68.546875 
Q 53.21875 62.890625 53.21875 53.421875 
Q 53.21875 48.921875 51.53125 44.890625 
Q 49.859375 40.875 45.40625 35.40625 
Q 44.1875 33.984375 37.640625 27.21875 
Q 31.109375 20.453125 19.1875 8.296875 
z
" id="DejaVuSans-50"/>
       </defs>
       <use xlink:href="#DejaVuSans-8722"/>
       <use x="83.789062" xlink:href="#DejaVuSans-50"/>
       <use x="147.412109" xlink:href="#DejaVuSans-48"/>
      </g>
     </g>
    </g>
    <g id="xtick_3">
     <g id="line2d_3">
      <g>
       <use style="stroke:#000000;stroke-width:0.8;" x="162.470731" xlink:href="#m0979a570ec" y="307.584"/>
      </g>
     </g>
     <g id="text_3">
      <!-- 0 -->
      <g transform="translate(159.289481 322.182437)scale(0.1 -0.1)">
       <use xlink:href="#DejaVuSans-48"/>
      </g>
     </g>
    </g>
    <g id="xtick_4">
     <g id="line2d_4">
      <g>
       <use style="stroke:#000000;stroke-width:0.8;" x="204.356259" xlink:href="#m0979a570ec" y="307.584"/>
      </g>
     </g>
     <g id="text_4">
      <!-- 20 -->
      <g transform="translate(197.993759 322.182437)scale(0.1 -0.1)">
       <use xlink:href="#DejaVuSans-50"/>
       <use x="63.623047" xlink:href="#DejaVuSans-48"/>
      </g>
     </g>
    </g>
    <g id="xtick_5">
     <g id="line2d_5">
      <g>
       <use style="stroke:#000000;stroke-width:0.8;" x="246.241787" xlink:href="#m0979a570ec" y="307.584"/>
      </g>
     </g>
     <g id="text_5">
      <!-- 40 -->
      <g transform="translate(239.879287 322.182437)scale(0.1 -0.1)">
       <use xlink:href="#DejaVuSans-52"/>
       <use x="63.623047" xlink:href="#DejaVuSans-48"/>
      </g>
     </g>
    </g>
    <g id="xtick_6">
     <g id="line2d_6">
      <g>
       <use style="stroke:#000000;stroke-width:0.8;" x="288.127316" xlink:href="#m0979a570ec" y="307.584"/>
      </g>
     </g>
     <g id="text_6">
      <!-- 60 -->
      <g transform="translate(281.764816 322.182437)scale(0.1 -0.1)">
       <defs>
        <path d="M 33.015625 40.375 
Q 26.375 40.375 22.484375 35.828125 
Q 18.609375 31.296875 18.609375 23.390625 
Q 18.609375 15.53125 22.484375 10.953125 
Q 26.375 6.390625 33.015625 6.390625 
Q 39.65625 6.390625 43.53125 10.953125 
Q 47.40625 15.53125 47.40625 23.390625 
Q 47.40625 31.296875 43.53125 35.828125 
Q 39.65625 40.375 33.015625 40.375 
z
M 52.59375 71.296875 
L 52.59375 62.3125 
Q 48.875 64.0625 45.09375 64.984375 
Q 41.3125 65.921875 37.59375 65.921875 
Q 27.828125 65.921875 22.671875 59.328125 
Q 17.53125 52.734375 16.796875 39.40625 
Q 19.671875 43.65625 24.015625 45.921875 
Q 28.375 48.1875 33.59375 48.1875 
Q 44.578125 48.1875 50.953125 41.515625 
Q 57.328125 34.859375 57.328125 23.390625 
Q 57.328125 12.15625 50.6875 5.359375 
Q 44.046875 -1.421875 33.015625 -1.421875 
Q 20.359375 -1.421875 13.671875 8.265625 
Q 6.984375 17.96875 6.984375 36.375 
Q 6.984375 53.65625 15.1875 63.9375 
Q 23.390625 74.21875 37.203125 74.21875 
Q 40.921875 74.21875 44.703125 73.484375 
Q 48.484375 72.75 52.59375 71.296875 
z
" id="DejaVuSans-54"/>
       </defs>
       <use xlink:href="#DejaVuSans-54"/>
       <use x="63.623047" xlink:href="#DejaVuSans-48"/>
      </g>
     </g>
    </g>
    <g id="xtick_7">
     <g id="line2d_7">
      <g>
       <use style="stroke:#000000;stroke-width:0.8;" x="330.012844" xlink:href="#m0979a570ec" y="307.584"/>
      </g>
     </g>
     <g id="text_7">
      <!-- 80 -->
      <g transform="translate(323.650344 322.182437)scale(0.1 -0.1)">
       <defs>
        <path d="M 31.78125 34.625 
Q 24.75 34.625 20.71875 30.859375 
Q 16.703125 27.09375 16.703125 20.515625 
Q 16.703125 13.921875 20.71875 10.15625 
Q 24.75 6.390625 31.78125 6.390625 
Q 38.8125 6.390625 42.859375 10.171875 
Q 46.921875 13.96875 46.921875 20.515625 
Q 46.921875 27.09375 42.890625 30.859375 
Q 38.875 34.625 31.78125 34.625 
z
M 21.921875 38.8125 
Q 15.578125 40.375 12.03125 44.71875 
Q 8.5 49.078125 8.5 55.328125 
Q 8.5 64.0625 14.71875 69.140625 
Q 20.953125 74.21875 31.78125 74.21875 
Q 42.671875 74.21875 48.875 69.140625 
Q 55.078125 64.0625 55.078125 55.328125 
Q 55.078125 49.078125 51.53125 44.71875 
Q 48 40.375 41.703125 38.8125 
Q 48.828125 37.15625 52.796875 32.3125 
Q 56.78125 27.484375 56.78125 20.515625 
Q 56.78125 9.90625 50.3125 4.234375 
Q 43.84375 -1.421875 31.78125 -1.421875 
Q 19.734375 -1.421875 13.25 4.234375 
Q 6.78125 9.90625 6.78125 20.515625 
Q 6.78125 27.484375 10.78125 32.3125 
Q 14.796875 37.15625 21.921875 38.8125 
z
M 18.3125 54.390625 
Q 18.3125 48.734375 21.84375 45.5625 
Q 25.390625 42.390625 31.78125 42.390625 
Q 38.140625 42.390625 41.71875 45.5625 
Q 45.3125 48.734375 45.3125 54.390625 
Q 45.3125 60.0625 41.71875 63.234375 
Q 38.140625 66.40625 31.78125 66.40625 
Q 25.390625 66.40625 21.84375 63.234375 
Q 18.3125 60.0625 18.3125 54.390625 
z
" id="DejaVuSans-56"/>
       </defs>
       <use xlink:href="#DejaVuSans-56"/>
       <use x="63.623047" xlink:href="#DejaVuSans-48"/>
      </g>
     </g>
    </g>
    <g id="xtick_8">
     <g id="line2d_8">
      <g>
       <use style="stroke:#000000;stroke-width:0.8;" x="371.898372" xlink:href="#m0979a570ec" y="307.584"/>
      </g>
     </g>
     <g id="text_8">
      <!-- 100 -->
      <g transform="translate(362.354622 322.182437)scale(0.1 -0.1)">
       <defs>
        <path d="M 12.40625 8.296875 
L 28.515625 8.296875 
L 28.515625 63.921875 
L 10.984375 60.40625 
L 10.984375 69.390625 
L 28.421875 72.90625 
L 38.28125 72.90625 
L 38.28125 8.296875 
L 54.390625 8.296875 
L 54.390625 0 
L 12.40625 0 
z
" id="DejaVuSans-49"/>
       </defs>
       <use xlink:href="#DejaVuSans-49"/>
       <use x="63.623047" xlink:href="#DejaVuSans-48"/>
       <use x="127.246094" xlink:href="#DejaVuSans-48"/>
      </g>
     </g>
    </g>
    <g id="xtick_9">
     <g id="line2d_9">
      <g>
       <use style="stroke:#000000;stroke-width:0.8;" x="413.7839" xlink:href="#m0979a570ec" y="307.584"/>
      </g>
     </g>
     <g id="text_9">
      <!-- 120 -->
      <g transform="translate(404.24015 322.182437)scale(0.1 -0.1)">
       <use xlink:href="#DejaVuSans-49"/>
       <use x="63.623047" xlink:href="#DejaVuSans-50"/>
       <use x="127.246094" xlink:href="#DejaVuSans-48"/>
      </g>
     </g>
    </g>
   </g>
   <g id="matplotlib.axis_2">
    <g id="ytick_1">
     <g id="line2d_10">
      <defs>
       <path d="M 0 0 
L -3.5 0 
" id="m8cd6481851" style="stroke:#000000;stroke-width:0.8;"/>
      </defs>
      <g>
       <use style="stroke:#000000;stroke-width:0.8;" x="57.6" xlink:href="#m8cd6481851" y="274.127736"/>
      </g>
     </g>
     <g id="text_10">
      <!-- 20 -->
      <g transform="translate(37.875 277.926955)scale(0.1 -0.1)">
       <use xlink:href="#DejaVuSans-50"/>
       <use x="63.623047" xlink:href="#DejaVuSans-48"/>
      </g>
     </g>
    </g>
    <g id="ytick_2">
     <g id="line2d_11">
      <g>
       <use style="stroke:#000000;stroke-width:0.8;" x="57.6" xlink:href="#m8cd6481851" y="232.242208"/>
      </g>
     </g>
     <g id="text_11">
      <!-- 40 -->
      <g transform="translate(37.875 236.041427)scale(0.1 -0.1)">
       <use xlink:href="#DejaVuSans-52"/>
       <use x="63.623047" xlink:href="#DejaVuSans-48"/>
      </g>
     </g>
    </g>
    <g id="ytick_3">
     <g id="line2d_12">
      <g>
       <use style="stroke:#000000;stroke-width:0.8;" x="57.6" xlink:href="#m8cd6481851" y="190.356679"/>
      </g>
     </g>
     <g id="text_12">
      <!-- 60 -->
      <g transform="translate(37.875 194.155898)scale(0.1 -0.1)">
       <use xlink:href="#DejaVuSans-54"/>
       <use x="63.623047" xlink:href="#DejaVuSans-48"/>
      </g>
     </g>
    </g>
    <g id="ytick_4">
     <g id="line2d_13">
      <g>
       <use style="stroke:#000000;stroke-width:0.8;" x="57.6" xlink:href="#m8cd6481851" y="148.471151"/>
      </g>
     </g>
     <g id="text_13">
      <!-- 80 -->
      <g transform="translate(37.875 152.27037)scale(0.1 -0.1)">
       <use xlink:href="#DejaVuSans-56"/>
       <use x="63.623047" xlink:href="#DejaVuSans-48"/>
      </g>
     </g>
    </g>
    <g id="ytick_5">
     <g id="line2d_14">
      <g>
       <use style="stroke:#000000;stroke-width:0.8;" x="57.6" xlink:href="#m8cd6481851" y="106.585623"/>
      </g>
     </g>
     <g id="text_14">
      <!-- 100 -->
      <g transform="translate(31.5125 110.384842)scale(0.1 -0.1)">
       <use xlink:href="#DejaVuSans-49"/>
       <use x="63.623047" xlink:href="#DejaVuSans-48"/>
       <use x="127.246094" xlink:href="#DejaVuSans-48"/>
      </g>
     </g>
    </g>
    <g id="ytick_6">
     <g id="line2d_15">
      <g>
       <use style="stroke:#000000;stroke-width:0.8;" x="57.6" xlink:href="#m8cd6481851" y="64.700095"/>
      </g>
     </g>
     <g id="text_15">
      <!-- 120 -->
      <g transform="translate(31.5125 68.499313)scale(0.1 -0.1)">
       <use xlink:href="#DejaVuSans-49"/>
       <use x="63.623047" xlink:href="#DejaVuSans-50"/>
       <use x="127.246094" xlink:href="#DejaVuSans-48"/>
      </g>
     </g>
    </g>
   </g>
   <g id="line2d_16">
    <path clip-path="url(#p780b94e866)" d="M 183.413495 154.492196 
L 182.743326 150.228249 
L 182.460599 146.008282 
L 182.517144 141.826012 
L 182.858512 137.675156 
L 183.430249 133.549432 
L 184.607232 127.394353 
L 186.489987 119.222487 
L 188.351799 111.044337 
L 190.973833 98.765595 
L 192.018877 94.702698 
L 193.252405 90.671216 
L 194.718399 86.700468 
L 196.458743 82.847 
L 198.504851 79.165262 
L 200.896514 75.707611 
L 202.234757 74.082453 
L 203.669336 72.532688 
L 205.196064 71.066695 
L 206.812845 69.688661 
L 208.507115 68.40487 
L 210.276778 67.219509 
L 212.113459 66.143051 
L 214.012967 65.175495 
L 215.964833 64.327313 
L 217.964867 63.602694 
L 220.006787 63.005825 
L 222.084309 62.540896 
L 224.186962 62.212094 
L 226.308464 62.013138 
L 228.438343 61.941933 
L 230.568223 62.000572 
L 232.689725 62.182774 
L 234.794472 62.488539 
L 236.874089 62.917865 
L 238.918103 63.466566 
L 240.920231 64.13464 
L 242.872096 64.915805 
L 244.771605 65.805872 
L 248.428212 67.875018 
L 251.900522 70.27087 
L 255.199007 72.924318 
L 258.336234 75.764157 
L 261.322672 78.733841 
L 264.168793 81.816616 
L 266.882976 85.004104 
L 269.473596 88.292118 
L 273.149051 93.402153 
L 275.448566 96.924726 
L 277.58054 100.547824 
L 279.509368 104.27773 
L 281.195261 108.120727 
L 282.598426 112.085193 
L 283.693732 116.15856 
L 284.472803 120.307322 
L 284.927261 124.502158 
L 285.050823 128.709559 
L 284.837207 132.898112 
L 284.301073 137.051062 
L 283.492682 141.166315 
L 282.456015 145.241777 
L 281.23924 149.277448 
L 279.180567 155.256607 
L 276.418216 163.183443 
L 275.232856 167.189794 
L 274.300903 171.261067 
L 273.695657 175.411923 
L 273.425495 179.615136 
L 273.482041 183.839291 
L 273.854822 188.046693 
L 274.533367 192.201737 
L 275.503017 196.279293 
L 276.692566 200.291927 
L 278.728203 206.239672 
L 282.156533 216.160259 
L 283.94714 222.195964 
L 285.457113 228.294497 
L 286.278069 232.397184 
L 287.2184 238.602525 
L 287.888568 244.85394 
L 288.688582 255.310662 
L 289.450898 267.855378 
L 289.771323 276.219918 
L 289.863471 284.590741 
L 289.746191 290.875665 
L 289.559801 295.0705 
L 289.559801 295.0705 
" style="fill:none;stroke:#fea952;stroke-linecap:square;"/>
   </g>
   <g id="line2d_17">
    <path clip-path="url(#p780b94e866)" d="M 175.17061 155.985765 
L 174.722076 153.45841 
L 174.188591 148.496059 
L 174.077334 143.64527 
L 174.318264 138.928702 
L 174.835703 134.352671 
L 175.559485 129.913039 
L 176.890853 123.484394 
L 181.426144 103.167233 
L 182.841456 96.755533 
L 183.978069 92.35295 
L 185.349361 87.893126 
L 187.019482 83.398562 
L 189.04587 78.94505 
L 190.213168 76.746031 
L 191.496409 74.576401 
L 192.890504 72.466995 
L 194.429733 70.382517 
L 196.087199 68.391808 
L 197.867234 66.490213 
L 199.762019 64.69119 
L 201.75363 63.011817 
L 203.845137 61.44485 
L 206.040947 59.992225 
L 208.311244 58.678531 
L 210.674304 57.492447 
L 213.111288 56.451199 
L 215.614528 55.562059 
L 218.177323 54.830927 
L 220.790071 54.264372 
L 223.404782 53.871585 
L 226.02856 53.64071 
L 228.668894 53.568 
L 231.285039 53.654191 
L 233.894055 53.892691 
L 236.488169 54.284437 
L 239.045968 54.827202 
L 241.56967 55.520177 
L 244.032849 56.357268 
L 246.426552 57.330178 
L 248.723743 58.419635 
L 250.919428 59.605072 
L 255.082405 62.23919 
L 258.926036 65.128425 
L 262.486043 68.18611 
L 265.821654 71.361098 
L 268.980609 74.645955 
L 271.974671 78.030779 
L 274.823592 81.514578 
L 277.525709 85.081023 
L 280.116658 88.751525 
L 282.614889 92.586556 
L 284.9633 96.589194 
L 287.121793 100.781034 
L 289.036584 105.172924 
L 290.644999 109.755265 
L 291.89579 114.454992 
L 292.782116 119.24373 
L 293.293998 124.085487 
L 293.423923 128.968607 
L 293.163383 133.820447 
L 292.544657 138.540765 
L 291.637032 143.127301 
L 290.499713 147.58161 
L 289.19061 151.914042 
L 287.063011 158.092619 
L 284.421424 165.658229 
L 283.363779 169.205725 
L 282.563121 172.64369 
L 282.043422 176.112435 
L 281.802453 179.664949 
L 281.83898 183.258372 
L 282.145724 186.848008 
L 282.713344 190.395116 
L 283.561276 193.99011 
L 284.64813 197.668016 
L 286.617653 203.423205 
L 289.468989 211.565532 
L 291.444092 217.909986 
L 293.151984 224.377122 
L 294.115373 228.774085 
L 294.911251 233.210824 
L 295.795494 239.794728 
L 296.41905 246.273235 
L 297.329679 258.965168 
L 297.916947 269.593586 
L 298.193428 278.17795 
L 298.220216 286.844154 
L 298.03121 293.389535 
L 297.926496 295.488 
L 297.926496 295.488 
" style="fill:none;stroke:#ffffff;stroke-linecap:square;"/>
   </g>
   <g id="line2d_18">
    <path clip-path="url(#p780b94e866)" d="M 191.65638 152.998627 
L 191.088096 149.492918 
L 190.8376 145.966397 
L 190.875808 142.381573 
L 191.170279 138.71939 
L 191.68458 134.978389 
L 192.788193 129.196512 
L 194.641435 121.153753 
L 196.552751 112.753218 
L 199.106209 100.775657 
L 200.059684 97.052447 
L 201.15545 93.449307 
L 202.417315 90.002374 
L 203.871616 86.74895 
L 205.513292 83.754122 
L 207.363296 81.032706 
L 209.471439 78.575164 
L 211.87206 76.365505 
L 214.51261 74.446793 
L 217.351631 72.858543 
L 220.315206 71.643328 
L 223.378546 70.81742 
L 226.588368 70.385566 
L 229.851406 70.346953 
L 233.100776 70.692641 
L 236.266536 71.412954 
L 239.31764 72.501432 
L 242.326463 73.987859 
L 245.292403 75.835492 
L 248.213285 78.010217 
L 251.086895 80.464668 
L 253.874948 83.10758 
L 256.546459 85.875181 
L 259.110606 88.76481 
L 262.754881 93.295594 
L 266.181443 98.052781 
L 268.282243 101.262896 
L 270.197779 104.506453 
L 271.896943 107.774427 
L 273.353937 111.068531 
L 274.551853 114.415121 
L 275.491674 117.862129 
L 276.163491 121.370914 
L 276.560524 124.918828 
L 276.677724 128.450511 
L 276.511032 131.975776 
L 276.057488 135.561358 
L 275.348332 139.205329 
L 274.412317 142.901943 
L 273.287871 146.640853 
L 271.298122 152.420595 
L 268.415009 160.708657 
L 267.101932 165.173862 
L 266.038684 169.878444 
L 265.347892 174.711411 
L 265.048538 179.565322 
L 265.125101 184.420211 
L 265.56392 189.245377 
L 266.35339 194.008358 
L 267.444758 198.568476 
L 268.737003 202.915838 
L 270.838753 209.056138 
L 274.15823 218.650849 
L 275.851084 224.347656 
L 277.258189 230.013085 
L 278.344376 235.709269 
L 279.135554 241.569556 
L 279.718302 247.610633 
L 280.60875 260.020697 
L 281.177523 270.297346 
L 281.441365 278.446251 
L 281.469028 286.525881 
L 281.297819 292.554535 
L 281.193105 294.653 
L 281.193105 294.653 
" style="fill:none;stroke:#ffffff;stroke-linecap:square;"/>
   </g>
   <g id="patch_3">
    <path d="M 57.6 307.584 
L 57.6 41.472 
" style="fill:none;stroke:#000000;stroke-linecap:square;stroke-linejoin:miter;stroke-width:0.8;"/>
   </g>
   <g id="patch_4">
    <path d="M 414.72 307.584 
L 414.72 41.472 
" style="fill:none;stroke:#000000;stroke-linecap:square;stroke-linejoin:miter;stroke-width:0.8;"/>
   </g>
   <g id="patch_5">
    <path d="M 57.6 307.584 
L 414.72 307.584 
" style="fill:none;stroke:#000000;stroke-linecap:square;stroke-linejoin:miter;stroke-width:0.8;"/>
   </g>
   <g id="patch_6">
    <path d="M 57.6 41.472 
L 414.72 41.472 
" style="fill:none;stroke:#000000;stroke-linecap:square;stroke-linejoin:miter;stroke-width:0.8;"/>
   </g>
  </g>
 </g>
 <defs>
  <clipPath id="p780b94e866">
   <rect height="266.112" width="357.12" x="57.6" y="41.472"/>
  </clipPath>
 </defs>
</svg>
