<?xml version="1.0" encoding="utf-8" standalone="no"?>
<!DOCTYPE svg PUBLIC "-//W3C//DTD SVG 1.1//EN"
  "http://www.w3.org/Graphics/SVG/1.1/DTD/svg11.dtd">
<!-- Created with matplotlib (https://matplotlib.org/) -->
<svg height="345.6pt" version="1.1" viewBox="0 0 460.8 345.6" width="460.8pt" xmlns="http://www.w3.org/2000/svg" xmlns:xlink="http://www.w3.org/1999/xlink">
 <metadata>
  <rdf:RDF xmlns:cc="http://creativecommons.org/ns#" xmlns:dc="http://purl.org/dc/elements/1.1/" xmlns:rdf="http://www.w3.org/1999/02/22-rdf-syntax-ns#">
   <cc:Work>
    <dc:type rdf:resource="http://purl.org/dc/dcmitype/StillImage"/>
    <dc:date>2021-01-23T12:47:23.019735</dc:date>
    <dc:format>image/svg+xml</dc:format>
    <dc:creator>
     <cc:Agent>
      <dc:title>Matplotlib v3.3.3, https://matplotlib.org/</dc:title>
     </cc:Agent>
    </dc:creator>
   </cc:Work>
  </rdf:RDF>
 </metadata>
 <defs>
  <style type="text/css">*{stroke-linecap:butt;stroke-linejoin:round;}</style>
 </defs>
 <g id="figure_1">
  <g id="patch_1">
   <path d="M 0 345.6 
L 460.8 345.6 
L 460.8 0 
L 0 0 
z
" style="fill:#ffffff;"/>
  </g>
  <g id="axes_1">
   <g id="patch_2">
    <path d="M 57.6 307.584 
L 414.72 307.584 
L 414.72 41.472 
L 57.6 41.472 
z
" style="fill:#7d9051;"/>
   </g>
   <g id="matplotlib.axis_1">
    <g id="xtick_1">
     <g id="line2d_1">
      <defs>
       <path d="M 0 0 
L 0 3.5 
" id="m9291977861" style="stroke:#000000;stroke-width:0.8;"/>
      </defs>
      <g>
       <use style="stroke:#000000;stroke-width:0.8;" x="100.270485" xlink:href="#m9291977861" y="307.584"/>
      </g>
     </g>
     <g id="text_1">
      <!-- −20 -->
      <g transform="translate(89.718141 322.182437)scale(0.1 -0.1)">
       <defs>
        <path d="M 10.59375 35.5 
L 73.1875 35.5 
L 73.1875 27.203125 
L 10.59375 27.203125 
z
" id="DejaVuSans-8722"/>
        <path d="M 19.1875 8.296875 
L 53.609375 8.296875 
L 53.609375 0 
L 7.328125 0 
L 7.328125 8.296875 
Q 12.9375 14.109375 22.625 23.890625 
Q 32.328125 33.6875 34.8125 36.53125 
Q 39.546875 41.84375 41.421875 45.53125 
Q 43.3125 49.21875 43.3125 52.78125 
Q 43.3125 58.59375 39.234375 62.25 
Q 35.15625 65.921875 28.609375 65.921875 
Q 23.96875 65.921875 18.8125 64.3125 
Q 13.671875 62.703125 7.8125 59.421875 
L 7.8125 69.390625 
Q 13.765625 71.78125 18.9375 73 
Q 24.125 74.21875 28.421875 74.21875 
Q 39.75 74.21875 46.484375 68.546875 
Q 53.21875 62.890625 53.21875 53.421875 
Q 53.21875 48.921875 51.53125 44.890625 
Q 49.859375 40.875 45.40625 35.40625 
Q 44.1875 33.984375 37.640625 27.21875 
Q 31.109375 20.453125 19.1875 8.296875 
z
" id="DejaVuSans-50"/>
        <path d="M 31.78125 66.40625 
Q 24.171875 66.40625 20.328125 58.90625 
Q 16.5 51.421875 16.5 36.375 
Q 16.5 21.390625 20.328125 13.890625 
Q 24.171875 6.390625 31.78125 6.390625 
Q 39.453125 6.390625 43.28125 13.890625 
Q 47.125 21.390625 47.125 36.375 
Q 47.125 51.421875 43.28125 58.90625 
Q 39.453125 66.40625 31.78125 66.40625 
z
M 31.78125 74.21875 
Q 44.046875 74.21875 50.515625 64.515625 
Q 56.984375 54.828125 56.984375 36.375 
Q 56.984375 17.96875 50.515625 8.265625 
Q 44.046875 -1.421875 31.78125 -1.421875 
Q 19.53125 -1.421875 13.0625 8.265625 
Q 6.59375 17.96875 6.59375 36.375 
Q 6.59375 54.828125 13.0625 64.515625 
Q 19.53125 74.21875 31.78125 74.21875 
z
" id="DejaVuSans-48"/>
       </defs>
       <use xlink:href="#DejaVuSans-8722"/>
       <use x="83.789062" xlink:href="#DejaVuSans-50"/>
       <use x="147.412109" xlink:href="#DejaVuSans-48"/>
      </g>
     </g>
    </g>
    <g id="xtick_2">
     <g id="line2d_2">
      <g>
       <use style="stroke:#000000;stroke-width:0.8;" x="147.911043" xlink:href="#m9291977861" y="307.584"/>
      </g>
     </g>
     <g id="text_2">
      <!-- 0 -->
      <g transform="translate(144.729793 322.182437)scale(0.1 -0.1)">
       <use xlink:href="#DejaVuSans-48"/>
      </g>
     </g>
    </g>
    <g id="xtick_3">
     <g id="line2d_3">
      <g>
       <use style="stroke:#000000;stroke-width:0.8;" x="195.551602" xlink:href="#m9291977861" y="307.584"/>
      </g>
     </g>
     <g id="text_3">
      <!-- 20 -->
      <g transform="translate(189.189102 322.182437)scale(0.1 -0.1)">
       <use xlink:href="#DejaVuSans-50"/>
       <use x="63.623047" xlink:href="#DejaVuSans-48"/>
      </g>
     </g>
    </g>
    <g id="xtick_4">
     <g id="line2d_4">
      <g>
       <use style="stroke:#000000;stroke-width:0.8;" x="243.192161" xlink:href="#m9291977861" y="307.584"/>
      </g>
     </g>
     <g id="text_4">
      <!-- 40 -->
      <g transform="translate(236.829661 322.182437)scale(0.1 -0.1)">
       <defs>
        <path d="M 37.796875 64.3125 
L 12.890625 25.390625 
L 37.796875 25.390625 
z
M 35.203125 72.90625 
L 47.609375 72.90625 
L 47.609375 25.390625 
L 58.015625 25.390625 
L 58.015625 17.1875 
L 47.609375 17.1875 
L 47.609375 0 
L 37.796875 0 
L 37.796875 17.1875 
L 4.890625 17.1875 
L 4.890625 26.703125 
z
" id="DejaVuSans-52"/>
       </defs>
       <use xlink:href="#DejaVuSans-52"/>
       <use x="63.623047" xlink:href="#DejaVuSans-48"/>
      </g>
     </g>
    </g>
    <g id="xtick_5">
     <g id="line2d_5">
      <g>
       <use style="stroke:#000000;stroke-width:0.8;" x="290.832719" xlink:href="#m9291977861" y="307.584"/>
      </g>
     </g>
     <g id="text_5">
      <!-- 60 -->
      <g transform="translate(284.470219 322.182437)scale(0.1 -0.1)">
       <defs>
        <path d="M 33.015625 40.375 
Q 26.375 40.375 22.484375 35.828125 
Q 18.609375 31.296875 18.609375 23.390625 
Q 18.609375 15.53125 22.484375 10.953125 
Q 26.375 6.390625 33.015625 6.390625 
Q 39.65625 6.390625 43.53125 10.953125 
Q 47.40625 15.53125 47.40625 23.390625 
Q 47.40625 31.296875 43.53125 35.828125 
Q 39.65625 40.375 33.015625 40.375 
z
M 52.59375 71.296875 
L 52.59375 62.3125 
Q 48.875 64.0625 45.09375 64.984375 
Q 41.3125 65.921875 37.59375 65.921875 
Q 27.828125 65.921875 22.671875 59.328125 
Q 17.53125 52.734375 16.796875 39.40625 
Q 19.671875 43.65625 24.015625 45.921875 
Q 28.375 48.1875 33.59375 48.1875 
Q 44.578125 48.1875 50.953125 41.515625 
Q 57.328125 34.859375 57.328125 23.390625 
Q 57.328125 12.15625 50.6875 5.359375 
Q 44.046875 -1.421875 33.015625 -1.421875 
Q 20.359375 -1.421875 13.671875 8.265625 
Q 6.984375 17.96875 6.984375 36.375 
Q 6.984375 53.65625 15.1875 63.9375 
Q 23.390625 74.21875 37.203125 74.21875 
Q 40.921875 74.21875 44.703125 73.484375 
Q 48.484375 72.75 52.59375 71.296875 
z
" id="DejaVuSans-54"/>
       </defs>
       <use xlink:href="#DejaVuSans-54"/>
       <use x="63.623047" xlink:href="#DejaVuSans-48"/>
      </g>
     </g>
    </g>
    <g id="xtick_6">
     <g id="line2d_6">
      <g>
       <use style="stroke:#000000;stroke-width:0.8;" x="338.473278" xlink:href="#m9291977861" y="307.584"/>
      </g>
     </g>
     <g id="text_6">
      <!-- 80 -->
      <g transform="translate(332.110778 322.182437)scale(0.1 -0.1)">
       <defs>
        <path d="M 31.78125 34.625 
Q 24.75 34.625 20.71875 30.859375 
Q 16.703125 27.09375 16.703125 20.515625 
Q 16.703125 13.921875 20.71875 10.15625 
Q 24.75 6.390625 31.78125 6.390625 
Q 38.8125 6.390625 42.859375 10.171875 
Q 46.921875 13.96875 46.921875 20.515625 
Q 46.921875 27.09375 42.890625 30.859375 
Q 38.875 34.625 31.78125 34.625 
z
M 21.921875 38.8125 
Q 15.578125 40.375 12.03125 44.71875 
Q 8.5 49.078125 8.5 55.328125 
Q 8.5 64.0625 14.71875 69.140625 
Q 20.953125 74.21875 31.78125 74.21875 
Q 42.671875 74.21875 48.875 69.140625 
Q 55.078125 64.0625 55.078125 55.328125 
Q 55.078125 49.078125 51.53125 44.71875 
Q 48 40.375 41.703125 38.8125 
Q 48.828125 37.15625 52.796875 32.3125 
Q 56.78125 27.484375 56.78125 20.515625 
Q 56.78125 9.90625 50.3125 4.234375 
Q 43.84375 -1.421875 31.78125 -1.421875 
Q 19.734375 -1.421875 13.25 4.234375 
Q 6.78125 9.90625 6.78125 20.515625 
Q 6.78125 27.484375 10.78125 32.3125 
Q 14.796875 37.15625 21.921875 38.8125 
z
M 18.3125 54.390625 
Q 18.3125 48.734375 21.84375 45.5625 
Q 25.390625 42.390625 31.78125 42.390625 
Q 38.140625 42.390625 41.71875 45.5625 
Q 45.3125 48.734375 45.3125 54.390625 
Q 45.3125 60.0625 41.71875 63.234375 
Q 38.140625 66.40625 31.78125 66.40625 
Q 25.390625 66.40625 21.84375 63.234375 
Q 18.3125 60.0625 18.3125 54.390625 
z
" id="DejaVuSans-56"/>
       </defs>
       <use xlink:href="#DejaVuSans-56"/>
       <use x="63.623047" xlink:href="#DejaVuSans-48"/>
      </g>
     </g>
    </g>
    <g id="xtick_7">
     <g id="line2d_7">
      <g>
       <use style="stroke:#000000;stroke-width:0.8;" x="386.113836" xlink:href="#m9291977861" y="307.584"/>
      </g>
     </g>
     <g id="text_7">
      <!-- 100 -->
      <g transform="translate(376.570086 322.182437)scale(0.1 -0.1)">
       <defs>
        <path d="M 12.40625 8.296875 
L 28.515625 8.296875 
L 28.515625 63.921875 
L 10.984375 60.40625 
L 10.984375 69.390625 
L 28.421875 72.90625 
L 38.28125 72.90625 
L 38.28125 8.296875 
L 54.390625 8.296875 
L 54.390625 0 
L 12.40625 0 
z
" id="DejaVuSans-49"/>
       </defs>
       <use xlink:href="#DejaVuSans-49"/>
       <use x="63.623047" xlink:href="#DejaVuSans-48"/>
       <use x="127.246094" xlink:href="#DejaVuSans-48"/>
      </g>
     </g>
    </g>
   </g>
   <g id="matplotlib.axis_2">
    <g id="ytick_1">
     <g id="line2d_8">
      <defs>
       <path d="M 0 0 
L -3.5 0 
" id="m02bfc1ba8f" style="stroke:#000000;stroke-width:0.8;"/>
      </defs>
      <g>
       <use style="stroke:#000000;stroke-width:0.8;" x="57.6" xlink:href="#m02bfc1ba8f" y="262.575592"/>
      </g>
     </g>
     <g id="text_8">
      <!-- 20 -->
      <g transform="translate(37.875 266.374811)scale(0.1 -0.1)">
       <use xlink:href="#DejaVuSans-50"/>
       <use x="63.623047" xlink:href="#DejaVuSans-48"/>
      </g>
     </g>
    </g>
    <g id="ytick_2">
     <g id="line2d_9">
      <g>
       <use style="stroke:#000000;stroke-width:0.8;" x="57.6" xlink:href="#m02bfc1ba8f" y="214.935034"/>
      </g>
     </g>
     <g id="text_9">
      <!-- 40 -->
      <g transform="translate(37.875 218.734252)scale(0.1 -0.1)">
       <use xlink:href="#DejaVuSans-52"/>
       <use x="63.623047" xlink:href="#DejaVuSans-48"/>
      </g>
     </g>
    </g>
    <g id="ytick_3">
     <g id="line2d_10">
      <g>
       <use style="stroke:#000000;stroke-width:0.8;" x="57.6" xlink:href="#m02bfc1ba8f" y="167.294475"/>
      </g>
     </g>
     <g id="text_10">
      <!-- 60 -->
      <g transform="translate(37.875 171.093694)scale(0.1 -0.1)">
       <use xlink:href="#DejaVuSans-54"/>
       <use x="63.623047" xlink:href="#DejaVuSans-48"/>
      </g>
     </g>
    </g>
    <g id="ytick_4">
     <g id="line2d_11">
      <g>
       <use style="stroke:#000000;stroke-width:0.8;" x="57.6" xlink:href="#m02bfc1ba8f" y="119.653916"/>
      </g>
     </g>
     <g id="text_11">
      <!-- 80 -->
      <g transform="translate(37.875 123.453135)scale(0.1 -0.1)">
       <use xlink:href="#DejaVuSans-56"/>
       <use x="63.623047" xlink:href="#DejaVuSans-48"/>
      </g>
     </g>
    </g>
    <g id="ytick_5">
     <g id="line2d_12">
      <g>
       <use style="stroke:#000000;stroke-width:0.8;" x="57.6" xlink:href="#m02bfc1ba8f" y="72.013358"/>
      </g>
     </g>
     <g id="text_12">
      <!-- 100 -->
      <g transform="translate(31.5125 75.812576)scale(0.1 -0.1)">
       <use xlink:href="#DejaVuSans-49"/>
       <use x="63.623047" xlink:href="#DejaVuSans-48"/>
       <use x="127.246094" xlink:href="#DejaVuSans-48"/>
      </g>
     </g>
    </g>
   </g>
   <g id="line2d_13">
    <path clip-path="url(#p5660e6ea39)" d="M 272.762655 158.409511 
L 272.993712 148.912365 
L 272.998476 141.751989 
L 272.781712 134.589231 
L 272.269576 127.443148 
L 271.728855 122.705294 
L 271.004719 117.993643 
L 270.075728 113.31534 
L 268.922826 108.679914 
L 267.526958 104.104038 
L 265.876213 99.611533 
L 263.953916 95.233366 
L 261.75054 90.993356 
L 259.254175 86.917706 
L 256.455292 83.035001 
L 253.358656 79.383352 
L 249.96903 75.991344 
L 246.291179 72.894708 
L 244.34268 71.465491 
L 242.325102 70.12441 
L 240.24321 68.878609 
L 238.101767 67.730472 
L 235.910301 66.694289 
L 233.671195 65.772445 
L 231.393976 64.972083 
L 229.083409 64.305115 
L 226.744258 63.776305 
L 224.388432 63.392799 
L 222.015932 63.164124 
L 219.638668 63.090281 
L 217.256641 63.173652 
L 214.879377 63.399945 
L 212.511641 63.762013 
L 210.155815 64.255093 
L 207.819046 64.869656 
L 203.226496 66.432266 
L 198.776868 68.385529 
L 194.508274 70.679422 
L 190.470736 73.311563 
L 188.550822 74.75269 
L 186.707132 76.281952 
L 184.94205 77.899349 
L 183.26272 79.602499 
L 181.676289 81.396166 
L 180.18514 83.277968 
L 178.7988 85.250287 
L 177.517269 87.301213 
L 176.350075 89.425982 
L 175.299601 91.612684 
L 174.37061 93.854172 
L 173.570248 96.140919 
L 172.900898 98.461014 
L 172.367324 100.809693 
L 171.976672 103.175047 
L 171.731323 105.547547 
L 171.63366 107.922429 
L 171.671772 110.294929 
L 172.088627 115.032782 
L 172.850876 119.758726 
L 174.356318 126.816674 
L 179.725408 150.039065 
L 181.647705 156.958856 
L 183.136472 161.525203 
L 184.861061 165.991506 
L 186.878638 170.312504 
L 189.248756 174.438177 
L 190.582692 176.412878 
L 193.536406 180.171718 
L 196.821223 183.673299 
L 200.389501 186.905711 
L 204.181689 189.857043 
L 208.15253 192.520151 
L 212.254382 194.928381 
L 216.456279 197.153195 
L 225.036344 201.336036 
L 231.496403 204.525571 
L 235.729267 206.798026 
L 239.835883 209.253897 
L 243.759083 211.945588 
L 247.439316 214.932652 
L 249.173433 216.550048 
L 252.427283 220.023045 
L 255.414346 223.758065 
L 258.160824 227.702703 
L 260.685774 231.795027 
L 263.015397 235.985014 
L 266.257337 242.356939 
L 271.585934 252.98793 
L 273.906029 257.168389 
L 276.411922 261.258331 
L 279.120288 265.214879 
L 282.045418 268.997539 
L 285.201605 272.561053 
L 288.605523 275.867308 
L 292.271464 278.871045 
L 294.205671 280.247857 
L 296.211338 281.53177 
L 298.290849 282.71802 
L 300.44182 283.804225 
L 302.671398 284.783239 
L 304.977201 285.647915 
L 307.363993 286.395871 
L 307.363993 286.395871 
" style="fill:none;stroke:#fea952;stroke-linecap:square;"/>
   </g>
   <g id="line2d_14">
    <path clip-path="url(#p5660e6ea39)" d="M 263.239174 158.112501 
L 263.466076 148.817184 
L 263.471901 141.923126 
L 263.26901 135.130914 
L 262.793973 128.442082 
L 262.297078 124.05677 
L 261.638942 119.744967 
L 260.801649 115.50083 
L 259.772131 111.335038 
L 258.537324 107.261789 
L 257.09316 103.305163 
L 255.424128 99.479262 
L 253.534518 95.818488 
L 251.420919 92.342189 
L 249.06997 89.055128 
L 246.476123 85.972407 
L 243.670024 83.140291 
L 240.655786 80.577628 
L 237.432563 78.30047 
L 234.028951 76.344244 
L 230.511855 74.76152 
L 226.982415 73.598701 
L 223.474296 72.876957 
L 221.720112 72.687642 
L 219.971948 72.612562 
L 218.159544 72.658887 
L 214.4636 73.088039 
L 210.685569 73.956347 
L 206.879211 75.232413 
L 203.116347 76.86809 
L 199.537023 78.772419 
L 196.190628 80.931783 
L 193.144224 83.306819 
L 190.399786 85.914963 
L 187.980244 88.757135 
L 185.868323 91.888675 
L 184.101684 95.260731 
L 182.724987 98.78207 
L 181.768088 102.362287 
L 181.251388 105.939044 
L 181.160542 107.769386 
L 181.300322 111.626439 
L 181.816958 115.74121 
L 182.634256 120.106548 
L 185.755785 134.070406 
L 188.379808 145.395189 
L 190.117391 151.979043 
L 191.392919 156.197647 
L 192.800219 160.205755 
L 194.380625 163.973404 
L 196.164054 167.464374 
L 198.207462 170.699054 
L 200.623769 173.8035 
L 203.352924 176.736312 
L 206.376147 179.493223 
L 209.618969 182.032665 
L 213.082721 184.366739 
L 216.788156 186.548058 
L 220.71738 188.630993 
L 229.17974 192.75599 
L 235.922803 196.088042 
L 240.505438 198.553446 
L 245.083706 201.301207 
L 249.596183 204.414773 
L 251.802937 206.137365 
L 253.938133 207.964848 
L 255.991504 209.894313 
L 257.918736 211.880003 
L 261.499764 216.044706 
L 264.721933 220.386541 
L 267.61979 224.8324 
L 270.249583 229.338411 
L 273.729048 235.982999 
L 281.011227 250.383755 
L 283.19609 254.150258 
L 285.527067 257.765714 
L 288.00003 261.184817 
L 290.615839 264.367773 
L 293.377382 267.286565 
L 296.279882 269.908438 
L 299.342646 272.223121 
L 302.585824 274.212839 
L 306.016941 275.86179 
L 307.826431 276.555786 
L 310.213223 277.303743 
L 310.213223 277.303743 
" style="fill:none;stroke:#ffffff;stroke-linecap:square;"/>
   </g>
   <g id="line2d_15">
    <path clip-path="url(#p5660e6ea39)" d="M 282.286137 158.706521 
L 282.521348 149.007547 
L 282.525051 141.580853 
L 282.294413 134.047549 
L 281.968997 128.996147 
L 281.476467 123.90876 
L 280.792912 118.801469 
L 279.890763 113.689714 
L 278.745203 108.576868 
L 277.330442 103.476631 
L 275.629206 98.431839 
L 273.612921 93.441819 
L 271.266147 88.55439 
L 268.571927 83.80644 
L 265.514144 79.233284 
L 263.840614 77.014873 
L 260.241189 72.794297 
L 258.294754 70.773812 
L 256.268036 68.842398 
L 254.137537 66.977999 
L 251.926572 65.211788 
L 249.617111 63.530424 
L 247.217642 61.948349 
L 244.745439 60.481297 
L 242.174583 59.116699 
L 239.537656 57.883659 
L 236.830535 56.783369 
L 234.036469 55.817732 
L 231.184403 55.01153 
L 228.275193 54.37199 
L 225.302568 53.90864 
L 222.311753 53.640606 
L 219.305389 53.568 
L 216.353737 53.688417 
L 213.439104 53.981318 
L 210.559682 54.435987 
L 207.732362 55.040334 
L 204.952523 55.782965 
L 202.238815 56.64902 
L 199.573781 57.632119 
L 196.977364 58.718248 
L 191.936647 61.191084 
L 189.479524 62.586426 
L 187.081035 64.087412 
L 184.750844 65.691343 
L 182.467865 67.419031 
L 180.270041 69.257084 
L 178.157379 71.209569 
L 176.125654 73.290034 
L 174.208497 75.47865 
L 172.390036 77.798801 
L 170.71845 80.201241 
L 169.166215 82.713751 
L 167.761577 85.300135 
L 166.497518 87.964636 
L 165.377422 90.706556 
L 164.41551 93.499767 
L 163.609539 96.350198 
L 162.96656 99.2571 
L 162.499103 102.194937 
L 162.211257 105.15605 
L 162.106777 108.075471 
L 162.164553 110.925558 
L 162.35765 113.703654 
L 163.051084 119.055062 
L 164.006015 124.122555 
L 167.158747 138.228513 
L 169.903815 150.061806 
L 171.829791 157.336591 
L 173.341236 162.303086 
L 175.130618 167.34192 
L 177.275703 172.373482 
L 178.508486 174.865027 
L 179.865677 177.338712 
L 181.353271 179.771677 
L 182.957921 182.126702 
L 184.658979 184.380022 
L 186.449043 186.539936 
L 188.331674 188.62206 
L 190.289522 190.610286 
L 194.402854 194.318199 
L 198.744409 197.681422 
L 203.222338 200.673562 
L 207.720608 203.308704 
L 212.195178 205.675397 
L 220.892948 209.916082 
L 227.070004 212.963101 
L 230.953096 215.042607 
L 234.588061 217.206586 
L 237.921984 219.476404 
L 240.940499 221.900455 
L 243.748676 224.62163 
L 246.403798 227.674472 
L 248.912788 231.026587 
L 251.279213 234.636746 
L 253.499229 238.424956 
L 256.665621 244.467049 
L 263.211095 257.531826 
L 265.721566 262.046859 
L 268.476778 266.532645 
L 271.493247 270.925673 
L 274.804415 275.190502 
L 278.430872 279.264939 
L 282.40471 283.10159 
L 284.532791 284.913287 
L 286.746029 286.633421 
L 289.068696 288.272594 
L 291.490198 289.807986 
L 293.995874 291.223201 
L 296.611042 292.528333 
L 299.325855 293.704688 
L 302.127971 294.740043 
L 304.514763 295.488 
L 304.514763 295.488 
" style="fill:none;stroke:#ffffff;stroke-linecap:square;"/>
   </g>
   <g id="patch_3">
    <path d="M 57.6 307.584 
L 57.6 41.472 
" style="fill:none;stroke:#000000;stroke-linecap:square;stroke-linejoin:miter;stroke-width:0.8;"/>
   </g>
   <g id="patch_4">
    <path d="M 414.72 307.584 
L 414.72 41.472 
" style="fill:none;stroke:#000000;stroke-linecap:square;stroke-linejoin:miter;stroke-width:0.8;"/>
   </g>
   <g id="patch_5">
    <path d="M 57.6 307.584 
L 414.72 307.584 
" style="fill:none;stroke:#000000;stroke-linecap:square;stroke-linejoin:miter;stroke-width:0.8;"/>
   </g>
   <g id="patch_6">
    <path d="M 57.6 41.472 
L 414.72 41.472 
" style="fill:none;stroke:#000000;stroke-linecap:square;stroke-linejoin:miter;stroke-width:0.8;"/>
   </g>
  </g>
 </g>
 <defs>
  <clipPath id="p5660e6ea39">
   <rect height="266.112" width="357.12" x="57.6" y="41.472"/>
  </clipPath>
 </defs>
</svg>
