<?xml version="1.0" encoding="utf-8" standalone="no"?>
<!DOCTYPE svg PUBLIC "-//W3C//DTD SVG 1.1//EN"
  "http://www.w3.org/Graphics/SVG/1.1/DTD/svg11.dtd">
<!-- Created with matplotlib (https://matplotlib.org/) -->
<svg height="345.6pt" version="1.1" viewBox="0 0 460.8 345.6" width="460.8pt" xmlns="http://www.w3.org/2000/svg" xmlns:xlink="http://www.w3.org/1999/xlink">
 <metadata>
  <rdf:RDF xmlns:cc="http://creativecommons.org/ns#" xmlns:dc="http://purl.org/dc/elements/1.1/" xmlns:rdf="http://www.w3.org/1999/02/22-rdf-syntax-ns#">
   <cc:Work>
    <dc:type rdf:resource="http://purl.org/dc/dcmitype/StillImage"/>
    <dc:date>2021-01-25T11:56:55.383004</dc:date>
    <dc:format>image/svg+xml</dc:format>
    <dc:creator>
     <cc:Agent>
      <dc:title>Matplotlib v3.3.3, https://matplotlib.org/</dc:title>
     </cc:Agent>
    </dc:creator>
   </cc:Work>
  </rdf:RDF>
 </metadata>
 <defs>
  <style type="text/css">*{stroke-linecap:butt;stroke-linejoin:round;}</style>
 </defs>
 <g id="figure_1">
  <g id="patch_1">
   <path d="M 0 345.6 
L 460.8 345.6 
L 460.8 0 
L 0 0 
z
" style="fill:#ffffff;"/>
  </g>
  <g id="axes_1">
   <g id="patch_2">
    <path d="M 57.6 307.584 
L 414.72 307.584 
L 414.72 41.472 
L 57.6 41.472 
z
" style="fill:#7d9051;"/>
   </g>
   <g id="matplotlib.axis_1">
    <g id="xtick_1">
     <g id="line2d_1">
      <defs>
       <path d="M 0 0 
L 0 3.5 
" id="m600d3da86c" style="stroke:#000000;stroke-width:0.8;"/>
      </defs>
      <g>
       <use style="stroke:#000000;stroke-width:0.8;" x="82.178637" xlink:href="#m600d3da86c" y="307.584"/>
      </g>
     </g>
     <g id="text_1">
      <!-- 0 -->
      <g transform="translate(78.997387 322.182437)scale(0.1 -0.1)">
       <defs>
        <path d="M 31.78125 66.40625 
Q 24.171875 66.40625 20.328125 58.90625 
Q 16.5 51.421875 16.5 36.375 
Q 16.5 21.390625 20.328125 13.890625 
Q 24.171875 6.390625 31.78125 6.390625 
Q 39.453125 6.390625 43.28125 13.890625 
Q 47.125 21.390625 47.125 36.375 
Q 47.125 51.421875 43.28125 58.90625 
Q 39.453125 66.40625 31.78125 66.40625 
z
M 31.78125 74.21875 
Q 44.046875 74.21875 50.515625 64.515625 
Q 56.984375 54.828125 56.984375 36.375 
Q 56.984375 17.96875 50.515625 8.265625 
Q 44.046875 -1.421875 31.78125 -1.421875 
Q 19.53125 -1.421875 13.0625 8.265625 
Q 6.59375 17.96875 6.59375 36.375 
Q 6.59375 54.828125 13.0625 64.515625 
Q 19.53125 74.21875 31.78125 74.21875 
z
" id="DejaVuSans-48"/>
       </defs>
       <use xlink:href="#DejaVuSans-48"/>
      </g>
     </g>
    </g>
    <g id="xtick_2">
     <g id="line2d_2">
      <g>
       <use style="stroke:#000000;stroke-width:0.8;" x="151.597156" xlink:href="#m600d3da86c" y="307.584"/>
      </g>
     </g>
     <g id="text_2">
      <!-- 20 -->
      <g transform="translate(145.234656 322.182437)scale(0.1 -0.1)">
       <defs>
        <path d="M 19.1875 8.296875 
L 53.609375 8.296875 
L 53.609375 0 
L 7.328125 0 
L 7.328125 8.296875 
Q 12.9375 14.109375 22.625 23.890625 
Q 32.328125 33.6875 34.8125 36.53125 
Q 39.546875 41.84375 41.421875 45.53125 
Q 43.3125 49.21875 43.3125 52.78125 
Q 43.3125 58.59375 39.234375 62.25 
Q 35.15625 65.921875 28.609375 65.921875 
Q 23.96875 65.921875 18.8125 64.3125 
Q 13.671875 62.703125 7.8125 59.421875 
L 7.8125 69.390625 
Q 13.765625 71.78125 18.9375 73 
Q 24.125 74.21875 28.421875 74.21875 
Q 39.75 74.21875 46.484375 68.546875 
Q 53.21875 62.890625 53.21875 53.421875 
Q 53.21875 48.921875 51.53125 44.890625 
Q 49.859375 40.875 45.40625 35.40625 
Q 44.1875 33.984375 37.640625 27.21875 
Q 31.109375 20.453125 19.1875 8.296875 
z
" id="DejaVuSans-50"/>
       </defs>
       <use xlink:href="#DejaVuSans-50"/>
       <use x="63.623047" xlink:href="#DejaVuSans-48"/>
      </g>
     </g>
    </g>
    <g id="xtick_3">
     <g id="line2d_3">
      <g>
       <use style="stroke:#000000;stroke-width:0.8;" x="221.015675" xlink:href="#m600d3da86c" y="307.584"/>
      </g>
     </g>
     <g id="text_3">
      <!-- 40 -->
      <g transform="translate(214.653175 322.182437)scale(0.1 -0.1)">
       <defs>
        <path d="M 37.796875 64.3125 
L 12.890625 25.390625 
L 37.796875 25.390625 
z
M 35.203125 72.90625 
L 47.609375 72.90625 
L 47.609375 25.390625 
L 58.015625 25.390625 
L 58.015625 17.1875 
L 47.609375 17.1875 
L 47.609375 0 
L 37.796875 0 
L 37.796875 17.1875 
L 4.890625 17.1875 
L 4.890625 26.703125 
z
" id="DejaVuSans-52"/>
       </defs>
       <use xlink:href="#DejaVuSans-52"/>
       <use x="63.623047" xlink:href="#DejaVuSans-48"/>
      </g>
     </g>
    </g>
    <g id="xtick_4">
     <g id="line2d_4">
      <g>
       <use style="stroke:#000000;stroke-width:0.8;" x="290.434195" xlink:href="#m600d3da86c" y="307.584"/>
      </g>
     </g>
     <g id="text_4">
      <!-- 60 -->
      <g transform="translate(284.071695 322.182437)scale(0.1 -0.1)">
       <defs>
        <path d="M 33.015625 40.375 
Q 26.375 40.375 22.484375 35.828125 
Q 18.609375 31.296875 18.609375 23.390625 
Q 18.609375 15.53125 22.484375 10.953125 
Q 26.375 6.390625 33.015625 6.390625 
Q 39.65625 6.390625 43.53125 10.953125 
Q 47.40625 15.53125 47.40625 23.390625 
Q 47.40625 31.296875 43.53125 35.828125 
Q 39.65625 40.375 33.015625 40.375 
z
M 52.59375 71.296875 
L 52.59375 62.3125 
Q 48.875 64.0625 45.09375 64.984375 
Q 41.3125 65.921875 37.59375 65.921875 
Q 27.828125 65.921875 22.671875 59.328125 
Q 17.53125 52.734375 16.796875 39.40625 
Q 19.671875 43.65625 24.015625 45.921875 
Q 28.375 48.1875 33.59375 48.1875 
Q 44.578125 48.1875 50.953125 41.515625 
Q 57.328125 34.859375 57.328125 23.390625 
Q 57.328125 12.15625 50.6875 5.359375 
Q 44.046875 -1.421875 33.015625 -1.421875 
Q 20.359375 -1.421875 13.671875 8.265625 
Q 6.984375 17.96875 6.984375 36.375 
Q 6.984375 53.65625 15.1875 63.9375 
Q 23.390625 74.21875 37.203125 74.21875 
Q 40.921875 74.21875 44.703125 73.484375 
Q 48.484375 72.75 52.59375 71.296875 
z
" id="DejaVuSans-54"/>
       </defs>
       <use xlink:href="#DejaVuSans-54"/>
       <use x="63.623047" xlink:href="#DejaVuSans-48"/>
      </g>
     </g>
    </g>
    <g id="xtick_5">
     <g id="line2d_5">
      <g>
       <use style="stroke:#000000;stroke-width:0.8;" x="359.852714" xlink:href="#m600d3da86c" y="307.584"/>
      </g>
     </g>
     <g id="text_5">
      <!-- 80 -->
      <g transform="translate(353.490214 322.182437)scale(0.1 -0.1)">
       <defs>
        <path d="M 31.78125 34.625 
Q 24.75 34.625 20.71875 30.859375 
Q 16.703125 27.09375 16.703125 20.515625 
Q 16.703125 13.921875 20.71875 10.15625 
Q 24.75 6.390625 31.78125 6.390625 
Q 38.8125 6.390625 42.859375 10.171875 
Q 46.921875 13.96875 46.921875 20.515625 
Q 46.921875 27.09375 42.890625 30.859375 
Q 38.875 34.625 31.78125 34.625 
z
M 21.921875 38.8125 
Q 15.578125 40.375 12.03125 44.71875 
Q 8.5 49.078125 8.5 55.328125 
Q 8.5 64.0625 14.71875 69.140625 
Q 20.953125 74.21875 31.78125 74.21875 
Q 42.671875 74.21875 48.875 69.140625 
Q 55.078125 64.0625 55.078125 55.328125 
Q 55.078125 49.078125 51.53125 44.71875 
Q 48 40.375 41.703125 38.8125 
Q 48.828125 37.15625 52.796875 32.3125 
Q 56.78125 27.484375 56.78125 20.515625 
Q 56.78125 9.90625 50.3125 4.234375 
Q 43.84375 -1.421875 31.78125 -1.421875 
Q 19.734375 -1.421875 13.25 4.234375 
Q 6.78125 9.90625 6.78125 20.515625 
Q 6.78125 27.484375 10.78125 32.3125 
Q 14.796875 37.15625 21.921875 38.8125 
z
M 18.3125 54.390625 
Q 18.3125 48.734375 21.84375 45.5625 
Q 25.390625 42.390625 31.78125 42.390625 
Q 38.140625 42.390625 41.71875 45.5625 
Q 45.3125 48.734375 45.3125 54.390625 
Q 45.3125 60.0625 41.71875 63.234375 
Q 38.140625 66.40625 31.78125 66.40625 
Q 25.390625 66.40625 21.84375 63.234375 
Q 18.3125 60.0625 18.3125 54.390625 
z
" id="DejaVuSans-56"/>
       </defs>
       <use xlink:href="#DejaVuSans-56"/>
       <use x="63.623047" xlink:href="#DejaVuSans-48"/>
      </g>
     </g>
    </g>
   </g>
   <g id="matplotlib.axis_2">
    <g id="ytick_1">
     <g id="line2d_6">
      <defs>
       <path d="M 0 0 
L -3.5 0 
" id="me758711280" style="stroke:#000000;stroke-width:0.8;"/>
      </defs>
      <g>
       <use style="stroke:#000000;stroke-width:0.8;" x="57.6" xlink:href="#me758711280" y="281.437698"/>
      </g>
     </g>
     <g id="text_6">
      <!-- 10 -->
      <g transform="translate(37.875 285.236917)scale(0.1 -0.1)">
       <defs>
        <path d="M 12.40625 8.296875 
L 28.515625 8.296875 
L 28.515625 63.921875 
L 10.984375 60.40625 
L 10.984375 69.390625 
L 28.421875 72.90625 
L 38.28125 72.90625 
L 38.28125 8.296875 
L 54.390625 8.296875 
L 54.390625 0 
L 12.40625 0 
z
" id="DejaVuSans-49"/>
       </defs>
       <use xlink:href="#DejaVuSans-49"/>
       <use x="63.623047" xlink:href="#DejaVuSans-48"/>
      </g>
     </g>
    </g>
    <g id="ytick_2">
     <g id="line2d_7">
      <g>
       <use style="stroke:#000000;stroke-width:0.8;" x="57.6" xlink:href="#me758711280" y="246.728439"/>
      </g>
     </g>
     <g id="text_7">
      <!-- 20 -->
      <g transform="translate(37.875 250.527657)scale(0.1 -0.1)">
       <use xlink:href="#DejaVuSans-50"/>
       <use x="63.623047" xlink:href="#DejaVuSans-48"/>
      </g>
     </g>
    </g>
    <g id="ytick_3">
     <g id="line2d_8">
      <g>
       <use style="stroke:#000000;stroke-width:0.8;" x="57.6" xlink:href="#me758711280" y="212.019179"/>
      </g>
     </g>
     <g id="text_8">
      <!-- 30 -->
      <g transform="translate(37.875 215.818398)scale(0.1 -0.1)">
       <defs>
        <path d="M 40.578125 39.3125 
Q 47.65625 37.796875 51.625 33 
Q 55.609375 28.21875 55.609375 21.1875 
Q 55.609375 10.40625 48.1875 4.484375 
Q 40.765625 -1.421875 27.09375 -1.421875 
Q 22.515625 -1.421875 17.65625 -0.515625 
Q 12.796875 0.390625 7.625 2.203125 
L 7.625 11.71875 
Q 11.71875 9.328125 16.59375 8.109375 
Q 21.484375 6.890625 26.8125 6.890625 
Q 36.078125 6.890625 40.9375 10.546875 
Q 45.796875 14.203125 45.796875 21.1875 
Q 45.796875 27.640625 41.28125 31.265625 
Q 36.765625 34.90625 28.71875 34.90625 
L 20.21875 34.90625 
L 20.21875 43.015625 
L 29.109375 43.015625 
Q 36.375 43.015625 40.234375 45.921875 
Q 44.09375 48.828125 44.09375 54.296875 
Q 44.09375 59.90625 40.109375 62.90625 
Q 36.140625 65.921875 28.71875 65.921875 
Q 24.65625 65.921875 20.015625 65.03125 
Q 15.375 64.15625 9.8125 62.3125 
L 9.8125 71.09375 
Q 15.4375 72.65625 20.34375 73.4375 
Q 25.25 74.21875 29.59375 74.21875 
Q 40.828125 74.21875 47.359375 69.109375 
Q 53.90625 64.015625 53.90625 55.328125 
Q 53.90625 49.265625 50.4375 45.09375 
Q 46.96875 40.921875 40.578125 39.3125 
z
" id="DejaVuSans-51"/>
       </defs>
       <use xlink:href="#DejaVuSans-51"/>
       <use x="63.623047" xlink:href="#DejaVuSans-48"/>
      </g>
     </g>
    </g>
    <g id="ytick_4">
     <g id="line2d_9">
      <g>
       <use style="stroke:#000000;stroke-width:0.8;" x="57.6" xlink:href="#me758711280" y="177.309919"/>
      </g>
     </g>
     <g id="text_9">
      <!-- 40 -->
      <g transform="translate(37.875 181.109138)scale(0.1 -0.1)">
       <use xlink:href="#DejaVuSans-52"/>
       <use x="63.623047" xlink:href="#DejaVuSans-48"/>
      </g>
     </g>
    </g>
    <g id="ytick_5">
     <g id="line2d_10">
      <g>
       <use style="stroke:#000000;stroke-width:0.8;" x="57.6" xlink:href="#me758711280" y="142.60066"/>
      </g>
     </g>
     <g id="text_10">
      <!-- 50 -->
      <g transform="translate(37.875 146.399879)scale(0.1 -0.1)">
       <defs>
        <path d="M 10.796875 72.90625 
L 49.515625 72.90625 
L 49.515625 64.59375 
L 19.828125 64.59375 
L 19.828125 46.734375 
Q 21.96875 47.46875 24.109375 47.828125 
Q 26.265625 48.1875 28.421875 48.1875 
Q 40.625 48.1875 47.75 41.5 
Q 54.890625 34.8125 54.890625 23.390625 
Q 54.890625 11.625 47.5625 5.09375 
Q 40.234375 -1.421875 26.90625 -1.421875 
Q 22.3125 -1.421875 17.546875 -0.640625 
Q 12.796875 0.140625 7.71875 1.703125 
L 7.71875 11.625 
Q 12.109375 9.234375 16.796875 8.0625 
Q 21.484375 6.890625 26.703125 6.890625 
Q 35.15625 6.890625 40.078125 11.328125 
Q 45.015625 15.765625 45.015625 23.390625 
Q 45.015625 31 40.078125 35.4375 
Q 35.15625 39.890625 26.703125 39.890625 
Q 22.75 39.890625 18.8125 39.015625 
Q 14.890625 38.140625 10.796875 36.28125 
z
" id="DejaVuSans-53"/>
       </defs>
       <use xlink:href="#DejaVuSans-53"/>
       <use x="63.623047" xlink:href="#DejaVuSans-48"/>
      </g>
     </g>
    </g>
    <g id="ytick_6">
     <g id="line2d_11">
      <g>
       <use style="stroke:#000000;stroke-width:0.8;" x="57.6" xlink:href="#me758711280" y="107.8914"/>
      </g>
     </g>
     <g id="text_11">
      <!-- 60 -->
      <g transform="translate(37.875 111.690619)scale(0.1 -0.1)">
       <use xlink:href="#DejaVuSans-54"/>
       <use x="63.623047" xlink:href="#DejaVuSans-48"/>
      </g>
     </g>
    </g>
    <g id="ytick_7">
     <g id="line2d_12">
      <g>
       <use style="stroke:#000000;stroke-width:0.8;" x="57.6" xlink:href="#me758711280" y="73.182141"/>
      </g>
     </g>
     <g id="text_12">
      <!-- 70 -->
      <g transform="translate(37.875 76.981359)scale(0.1 -0.1)">
       <defs>
        <path d="M 8.203125 72.90625 
L 55.078125 72.90625 
L 55.078125 68.703125 
L 28.609375 0 
L 18.3125 0 
L 43.21875 64.59375 
L 8.203125 64.59375 
z
" id="DejaVuSans-55"/>
       </defs>
       <use xlink:href="#DejaVuSans-55"/>
       <use x="63.623047" xlink:href="#DejaVuSans-48"/>
      </g>
     </g>
    </g>
   </g>
   <g id="line2d_13">
    <path clip-path="url(#pe94625963d)" d="M 241.567028 177.997163 
L 239.612897 180.846793 
L 237.804544 183.810964 
L 236.152384 186.879262 
L 234.652944 190.041276 
L 233.309695 193.283121 
L 232.12958 196.601326 
L 231.109128 199.978537 
L 230.25528 203.404341 
L 229.571508 206.875267 
L 229.057811 210.37396 
L 228.71766 213.890008 
L 228.554527 217.41994 
L 228.571881 220.946401 
L 228.769724 224.462449 
L 229.151526 227.957671 
L 229.720758 231.421655 
L 230.480891 234.840517 
L 231.435395 238.207315 
L 232.580801 241.508166 
L 233.92752 244.739598 
L 235.472082 247.884257 
L 237.207545 250.935201 
L 239.123496 253.885488 
L 241.209523 256.724706 
L 243.455212 259.442441 
L 245.850151 262.02828 
L 248.383927 264.478754 
L 251.049598 266.783449 
L 253.836751 268.928481 
L 256.731504 270.906909 
L 259.723442 272.715261 
L 262.809095 274.346597 
L 265.974579 275.811327 
L 269.219895 277.105983 
L 272.527688 278.234034 
L 275.897957 279.19548 
L 279.316819 279.997264 
L 282.780803 280.635914 
L 286.279496 281.114902 
L 289.802486 281.437698 
L 293.346302 281.604303 
L 296.893588 281.607774 
L 300.433932 281.448111 
L 303.953451 281.111431 
L 307.441732 280.594263 
L 310.884891 279.889665 
L 314.265572 278.990696 
L 317.573365 277.897354 
L 320.797855 276.592286 
L 323.925159 275.078962 
L 326.941394 273.350441 
L 329.839617 271.413664 
L 332.616358 269.289457 
L 335.261204 266.984763 
L 337.774154 264.516934 
L 340.148267 261.899856 
L 342.373131 259.143941 
L 344.448745 256.266543 
L 346.364696 253.278076 
L 348.120984 250.192423 
L 349.703726 247.023467 
L 351.116393 243.781623 
L 352.355514 240.477301 
L 353.417617 237.120916 
L 354.299232 233.715937 
L 354.996889 230.27625 
L 355.507115 226.815736 
L 355.829911 223.334398 
L 355.961806 219.849588 
L 355.899329 216.364778 
L 355.642481 212.897323 
L 355.198202 209.443752 
L 354.576907 206.014477 
L 353.789006 202.609499 
L 352.841444 199.242701 
L 351.751573 195.910612 
L 350.522865 192.620174 
L 349.165733 189.3818 
L 347.69406 186.19549 
L 346.114789 183.064715 
L 344.438332 179.996416 
L 340.814685 174.043778 
L 336.868242 168.313279 
L 332.644125 162.794507 
L 328.183985 157.463165 
L 323.529474 152.305369 
L 318.71877 147.300294 
L 313.779643 142.416701 
L 306.19914 135.270064 
L 293.349773 123.611224 
L 283.127896 114.222369 
L 275.644579 106.961192 
L 260.945208 92.102158 
L 255.787412 87.471943 
L 253.100915 85.292201 
L 250.324174 83.223529 
L 247.446777 81.279811 
L 244.479135 79.464517 
L 241.42472 77.777647 
L 238.293945 76.219201 
L 235.093751 74.789179 
L 231.838023 73.487582 
L 228.533701 72.31788 
L 225.184258 71.276602 
L 221.807047 70.36722 
L 218.402068 69.589732 
L 214.983206 68.940669 
L 211.55046 68.416559 
L 208.107302 68.010461 
L 201.182805 67.534944 
L 194.220127 67.462055 
L 187.233153 67.746671 
L 180.225354 68.34367 
L 173.245321 69.28082 
L 169.788279 69.909057 
L 166.365946 70.658777 
L 162.988735 71.550805 
L 159.67053 72.592083 
L 156.414801 73.796495 
L 153.235433 75.177923 
L 150.139367 76.753723 
L 147.140487 78.527367 
L 144.242264 80.491911 
L 141.458582 82.633472 
L 138.796381 84.941638 
L 136.266076 87.405995 
L 133.874608 90.005719 
L 131.628919 92.737338 
L 129.539422 95.583497 
L 127.62 98.530313 
L 125.870653 101.567373 
L 124.305265 104.684265 
L 122.913424 107.867104 
L 121.684716 111.11589 
L 120.615671 114.423683 
L 119.688934 117.780068 
L 118.897563 121.181576 
L 118.234616 124.621263 
L 117.252344 131.587412 
L 116.665757 138.62645 
L 116.398496 145.686313 
L 116.3742 152.714938 
L 116.631048 163.086065 
L 116.887897 169.809248 
L 116.887897 169.809248 
" style="fill:none;stroke:#fea952;stroke-linecap:square;"/>
   </g>
   <g id="line2d_14">
    <path clip-path="url(#pe94625963d)" d="M 253.017133 185.849062 
L 251.465095 188.077466 
L 250.028744 190.393225 
L 248.697087 192.828013 
L 247.479209 195.355799 
L 246.390741 197.935376 
L 245.419836 200.617087 
L 244.580705 203.336194 
L 243.877174 206.087854 
L 243.307938 208.892124 
L 242.876998 211.710861 
L 242.586562 214.530951 
L 242.438062 217.351615 
L 242.433658 220.166419 
L 242.571329 222.954825 
L 242.851486 225.706375 
L 243.273526 228.4084 
L 243.838171 231.053659 
L 244.551855 233.655863 
L 245.39612 236.167303 
L 246.389185 238.618802 
L 247.540008 241.019681 
L 248.851377 243.37356 
L 250.311987 245.665093 
L 251.91216 247.881019 
L 253.641265 250.008377 
L 255.501987 252.048336 
L 257.464287 253.976169 
L 259.51729 255.78093 
L 261.670742 257.466116 
L 263.913088 259.024902 
L 266.212477 260.44132 
L 268.639438 261.746425 
L 271.118966 262.915882 
L 273.701208 263.965394 
L 276.336386 264.882964 
L 279.067927 265.678509 
L 281.834114 266.343676 
L 284.663982 266.88052 
L 287.546293 267.289113 
L 290.454477 267.569312 
L 293.359886 267.720606 
L 296.268096 267.738167 
L 299.111842 267.627499 
L 301.917327 267.377844 
L 304.658294 266.992436 
L 307.317011 266.472234 
L 309.908371 265.808434 
L 312.364583 265.027784 
L 314.750294 264.094917 
L 317.02199 263.033071 
L 319.227344 261.807015 
L 321.403913 260.3866 
L 323.495289 258.822207 
L 325.533278 257.078971 
L 327.491177 255.188611 
L 329.345516 253.178744 
L 331.113246 251.021612 
L 332.760818 248.773239 
L 334.298589 246.410303 
L 335.700302 243.988884 
L 336.975951 241.47721 
L 338.116676 238.906729 
L 339.118739 236.288622 
L 339.977126 233.640911 
L 340.692584 230.956163 
L 341.261679 228.251098 
L 341.68271 225.533912 
L 341.956141 222.809295 
L 342.080333 220.098459 
L 342.053559 217.390391 
L 341.872252 214.66877 
L 341.536898 211.918826 
L 341.050609 209.144416 
L 340.424519 206.370844 
L 339.645673 203.558817 
L 338.745102 200.767458 
L 337.718129 197.98636 
L 335.298164 192.448409 
L 332.475045 187.04177 
L 329.279816 181.770617 
L 325.744658 176.621293 
L 321.910481 171.600534 
L 317.794941 166.673213 
L 313.452021 161.855352 
L 308.894574 157.110614 
L 304.172831 152.439993 
L 296.814437 145.501612 
L 284.030648 133.902538 
L 273.563678 124.286314 
L 268.340245 119.270379 
L 260.803446 111.641163 
L 253.794793 104.500144 
L 249.270835 100.2112 
L 244.806363 96.425828 
L 242.552567 94.728283 
L 240.202077 93.12344 
L 237.767121 91.617957 
L 235.237796 90.206613 
L 232.629738 88.894925 
L 229.939843 87.680822 
L 227.205024 86.57546 
L 224.412101 85.575694 
L 221.574369 84.682792 
L 218.71641 83.902551 
L 212.887733 82.665327 
L 206.940529 81.845051 
L 200.850356 81.414667 
L 194.620187 81.339993 
L 188.262304 81.592178 
L 181.88007 82.128413 
L 175.727707 82.940798 
L 169.911478 84.082132 
L 167.145674 84.797582 
L 164.487566 85.61335 
L 161.947547 86.530149 
L 159.533032 87.55118 
L 157.207074 88.703818 
L 154.930484 90.019676 
L 152.707971 91.495957 
L 150.553526 93.12343 
L 148.483175 94.887655 
L 146.484068 96.805456 
L 144.599329 98.822611 
L 142.820467 100.953571 
L 141.172919 103.161028 
L 139.650668 105.459978 
L 138.277543 107.79845 
L 137.025877 110.246931 
L 135.899406 112.778469 
L 134.895603 115.385516 
L 133.998602 118.118867 
L 133.21149 120.926132 
L 132.530369 123.809089 
L 131.465962 129.815935 
L 130.764637 136.081412 
L 130.377216 142.552118 
L 130.243911 149.154318 
L 130.30871 155.840916 
L 130.761322 169.2751 
L 130.761322 169.2751 
" style="fill:none;stroke:#ffffff;stroke-linecap:square;"/>
   </g>
   <g id="line2d_15">
    <path clip-path="url(#pe94625963d)" d="M 230.116923 170.145264 
L 227.760699 173.61612 
L 225.580344 177.228702 
L 223.60768 180.930511 
L 221.826678 184.726753 
L 220.228649 188.630866 
L 218.839325 192.585565 
L 217.637552 196.62088 
L 216.633387 200.720828 
L 215.835078 204.85841 
L 215.238624 209.03706 
L 214.848759 213.249066 
L 214.670991 217.488264 
L 214.710104 221.726382 
L 214.968119 225.970072 
L 215.451566 230.208967 
L 216.16799 234.43491 
L 217.12361 238.627375 
L 218.318936 242.758768 
L 219.765481 246.84903 
L 221.465855 250.860394 
L 223.404157 254.748834 
L 225.563714 258.496842 
L 227.935005 262.105883 
L 230.506885 265.568392 
L 233.269158 268.876504 
L 236.198314 272.008225 
L 239.303567 274.981339 
L 242.581906 277.785968 
L 246.002761 280.390847 
L 249.54992 282.788916 
L 253.234406 284.989203 
L 256.978752 286.946769 
L 260.830193 288.706773 
L 264.738582 290.246571 
L 268.718989 291.585103 
L 272.727987 292.712452 
L 276.799524 293.650852 
L 280.897624 294.391309 
L 285.0127 294.940692 
L 289.150495 295.306085 
L 293.332717 295.488 
L 297.51908 295.477381 
L 301.756023 295.268723 
L 305.989575 294.845019 
L 310.22517 294.196091 
L 314.45277 293.307097 
L 318.622773 292.172958 
L 322.782147 290.766924 
L 326.845417 289.089655 
L 330.828328 287.124853 
L 334.655444 284.893866 
L 338.275321 282.440728 
L 341.737427 279.756708 
L 344.989129 276.890554 
L 348.057131 273.845258 
L 350.951018 270.620969 
L 353.633015 267.26627 
L 356.136671 263.759848 
L 358.430802 260.145849 
L 360.541666 256.395962 
L 362.431502 252.569725 
L 364.11611 248.656516 
L 365.592288 244.66598 
L 366.858108 240.60092 
L 367.905881 236.475712 
L 368.732099 232.301401 
L 369.331519 228.097561 
L 369.703681 223.859501 
L 369.843279 219.600717 
L 369.745099 215.339166 
L 369.41271 211.125877 
L 368.859507 206.968678 
L 368.103204 202.884539 
L 367.153493 198.848154 
L 366.037214 194.926584 
L 364.758043 191.053765 
L 363.327601 187.253987 
L 361.769964 183.560238 
L 360.089956 179.942571 
L 358.298488 176.407784 
L 356.401618 172.951063 
L 354.420472 169.598681 
L 350.210073 163.131319 
L 345.713861 156.961745 
L 341.002878 151.097756 
L 336.103925 145.471206 
L 331.082905 140.093973 
L 325.963441 134.908388 
L 318.193172 127.462348 
L 307.805202 117.954324 
L 292.692113 104.158425 
L 285.537646 97.220326 
L 270.36571 81.903561 
L 267.524261 79.286541 
L 264.535029 76.690643 
L 261.395467 74.158575 
L 258.095781 71.718776 
L 254.691476 69.436181 
L 251.191149 67.311076 
L 247.611645 65.34868 
L 243.958152 63.543476 
L 240.24766 61.897536 
L 236.471022 60.399704 
L 232.655301 59.060066 
L 228.794146 57.870412 
L 224.897683 56.831888 
L 220.991605 55.949661 
L 217.07868 55.216012 
L 213.176682 54.628425 
L 209.274074 54.175871 
L 205.385798 53.854697 
L 201.515253 53.655221 
L 193.820067 53.584116 
L 186.204002 53.901163 
L 178.570637 54.558927 
L 174.686564 55.030654 
L 170.762936 55.620842 
L 166.817273 56.346965 
L 162.820415 57.235423 
L 158.831797 58.304029 
L 154.853494 59.570816 
L 150.882056 61.06284 
L 146.937834 62.804667 
L 143.071661 64.803629 
L 139.350491 67.035057 
L 135.776557 69.487864 
L 132.363637 72.143514 
L 129.109588 74.99562 
L 126.048084 78.006534 
L 123.149887 81.188826 
L 120.437372 84.521104 
L 117.905925 88.005966 
L 115.589332 91.600648 
L 113.463763 95.336296 
L 111.584653 99.121598 
L 109.927442 102.955739 
L 108.47383 106.846265 
L 107.23274 110.728499 
L 106.166378 114.634004 
L 105.264757 118.554062 
L 104.518922 122.467899 
L 103.913399 126.368444 
L 103.066691 134.118566 
L 102.62109 141.760645 
L 102.476721 149.264287 
L 102.550759 156.565521 
L 103.014472 170.343397 
L 103.014472 170.343397 
" style="fill:none;stroke:#ffffff;stroke-linecap:square;"/>
   </g>
   <g id="patch_3">
    <path d="M 57.6 307.584 
L 57.6 41.472 
" style="fill:none;stroke:#000000;stroke-linecap:square;stroke-linejoin:miter;stroke-width:0.8;"/>
   </g>
   <g id="patch_4">
    <path d="M 414.72 307.584 
L 414.72 41.472 
" style="fill:none;stroke:#000000;stroke-linecap:square;stroke-linejoin:miter;stroke-width:0.8;"/>
   </g>
   <g id="patch_5">
    <path d="M 57.6 307.584 
L 414.72 307.584 
" style="fill:none;stroke:#000000;stroke-linecap:square;stroke-linejoin:miter;stroke-width:0.8;"/>
   </g>
   <g id="patch_6">
    <path d="M 57.6 41.472 
L 414.72 41.472 
" style="fill:none;stroke:#000000;stroke-linecap:square;stroke-linejoin:miter;stroke-width:0.8;"/>
   </g>
  </g>
 </g>
 <defs>
  <clipPath id="pe94625963d">
   <rect height="266.112" width="357.12" x="57.6" y="41.472"/>
  </clipPath>
 </defs>
</svg>
