<?xml version="1.0" encoding="utf-8" standalone="no"?>
<!DOCTYPE svg PUBLIC "-//W3C//DTD SVG 1.1//EN"
  "http://www.w3.org/Graphics/SVG/1.1/DTD/svg11.dtd">
<!-- Created with matplotlib (https://matplotlib.org/) -->
<svg height="345.6pt" version="1.1" viewBox="0 0 460.8 345.6" width="460.8pt" xmlns="http://www.w3.org/2000/svg" xmlns:xlink="http://www.w3.org/1999/xlink">
 <metadata>
  <rdf:RDF xmlns:cc="http://creativecommons.org/ns#" xmlns:dc="http://purl.org/dc/elements/1.1/" xmlns:rdf="http://www.w3.org/1999/02/22-rdf-syntax-ns#">
   <cc:Work>
    <dc:type rdf:resource="http://purl.org/dc/dcmitype/StillImage"/>
    <dc:date>2021-01-23T11:47:37.102442</dc:date>
    <dc:format>image/svg+xml</dc:format>
    <dc:creator>
     <cc:Agent>
      <dc:title>Matplotlib v3.3.3, https://matplotlib.org/</dc:title>
     </cc:Agent>
    </dc:creator>
   </cc:Work>
  </rdf:RDF>
 </metadata>
 <defs>
  <style type="text/css">*{stroke-linecap:butt;stroke-linejoin:round;}</style>
 </defs>
 <g id="figure_1">
  <g id="patch_1">
   <path d="M 0 345.6 
L 460.8 345.6 
L 460.8 0 
L 0 0 
z
" style="fill:#ffffff;"/>
  </g>
  <g id="axes_1">
   <g id="patch_2">
    <path d="M 57.6 307.584 
L 414.72 307.584 
L 414.72 41.472 
L 57.6 41.472 
z
" style="fill:#7d9051;"/>
   </g>
   <g id="matplotlib.axis_1">
    <g id="xtick_1">
     <g id="line2d_1">
      <defs>
       <path d="M 0 0 
L 0 3.5 
" id="mc5b9b87fb9" style="stroke:#000000;stroke-width:0.8;"/>
      </defs>
      <g>
       <use style="stroke:#000000;stroke-width:0.8;" x="94.042037" xlink:href="#mc5b9b87fb9" y="307.584"/>
      </g>
     </g>
     <g id="text_1">
      <!-- −20 -->
      <g transform="translate(83.489694 322.182437)scale(0.1 -0.1)">
       <defs>
        <path d="M 10.59375 35.5 
L 73.1875 35.5 
L 73.1875 27.203125 
L 10.59375 27.203125 
z
" id="DejaVuSans-8722"/>
        <path d="M 19.1875 8.296875 
L 53.609375 8.296875 
L 53.609375 0 
L 7.328125 0 
L 7.328125 8.296875 
Q 12.9375 14.109375 22.625 23.890625 
Q 32.328125 33.6875 34.8125 36.53125 
Q 39.546875 41.84375 41.421875 45.53125 
Q 43.3125 49.21875 43.3125 52.78125 
Q 43.3125 58.59375 39.234375 62.25 
Q 35.15625 65.921875 28.609375 65.921875 
Q 23.96875 65.921875 18.8125 64.3125 
Q 13.671875 62.703125 7.8125 59.421875 
L 7.8125 69.390625 
Q 13.765625 71.78125 18.9375 73 
Q 24.125 74.21875 28.421875 74.21875 
Q 39.75 74.21875 46.484375 68.546875 
Q 53.21875 62.890625 53.21875 53.421875 
Q 53.21875 48.921875 51.53125 44.890625 
Q 49.859375 40.875 45.40625 35.40625 
Q 44.1875 33.984375 37.640625 27.21875 
Q 31.109375 20.453125 19.1875 8.296875 
z
" id="DejaVuSans-50"/>
        <path d="M 31.78125 66.40625 
Q 24.171875 66.40625 20.328125 58.90625 
Q 16.5 51.421875 16.5 36.375 
Q 16.5 21.390625 20.328125 13.890625 
Q 24.171875 6.390625 31.78125 6.390625 
Q 39.453125 6.390625 43.28125 13.890625 
Q 47.125 21.390625 47.125 36.375 
Q 47.125 51.421875 43.28125 58.90625 
Q 39.453125 66.40625 31.78125 66.40625 
z
M 31.78125 74.21875 
Q 44.046875 74.21875 50.515625 64.515625 
Q 56.984375 54.828125 56.984375 36.375 
Q 56.984375 17.96875 50.515625 8.265625 
Q 44.046875 -1.421875 31.78125 -1.421875 
Q 19.53125 -1.421875 13.0625 8.265625 
Q 6.59375 17.96875 6.59375 36.375 
Q 6.59375 54.828125 13.0625 64.515625 
Q 19.53125 74.21875 31.78125 74.21875 
z
" id="DejaVuSans-48"/>
       </defs>
       <use xlink:href="#DejaVuSans-8722"/>
       <use x="83.789062" xlink:href="#DejaVuSans-50"/>
       <use x="147.412109" xlink:href="#DejaVuSans-48"/>
      </g>
     </g>
    </g>
    <g id="xtick_2">
     <g id="line2d_2">
      <g>
       <use style="stroke:#000000;stroke-width:0.8;" x="134.882597" xlink:href="#mc5b9b87fb9" y="307.584"/>
      </g>
     </g>
     <g id="text_2">
      <!-- 0 -->
      <g transform="translate(131.701347 322.182437)scale(0.1 -0.1)">
       <use xlink:href="#DejaVuSans-48"/>
      </g>
     </g>
    </g>
    <g id="xtick_3">
     <g id="line2d_3">
      <g>
       <use style="stroke:#000000;stroke-width:0.8;" x="175.723156" xlink:href="#mc5b9b87fb9" y="307.584"/>
      </g>
     </g>
     <g id="text_3">
      <!-- 20 -->
      <g transform="translate(169.360656 322.182437)scale(0.1 -0.1)">
       <use xlink:href="#DejaVuSans-50"/>
       <use x="63.623047" xlink:href="#DejaVuSans-48"/>
      </g>
     </g>
    </g>
    <g id="xtick_4">
     <g id="line2d_4">
      <g>
       <use style="stroke:#000000;stroke-width:0.8;" x="216.563716" xlink:href="#mc5b9b87fb9" y="307.584"/>
      </g>
     </g>
     <g id="text_4">
      <!-- 40 -->
      <g transform="translate(210.201216 322.182437)scale(0.1 -0.1)">
       <defs>
        <path d="M 37.796875 64.3125 
L 12.890625 25.390625 
L 37.796875 25.390625 
z
M 35.203125 72.90625 
L 47.609375 72.90625 
L 47.609375 25.390625 
L 58.015625 25.390625 
L 58.015625 17.1875 
L 47.609375 17.1875 
L 47.609375 0 
L 37.796875 0 
L 37.796875 17.1875 
L 4.890625 17.1875 
L 4.890625 26.703125 
z
" id="DejaVuSans-52"/>
       </defs>
       <use xlink:href="#DejaVuSans-52"/>
       <use x="63.623047" xlink:href="#DejaVuSans-48"/>
      </g>
     </g>
    </g>
    <g id="xtick_5">
     <g id="line2d_5">
      <g>
       <use style="stroke:#000000;stroke-width:0.8;" x="257.404275" xlink:href="#mc5b9b87fb9" y="307.584"/>
      </g>
     </g>
     <g id="text_5">
      <!-- 60 -->
      <g transform="translate(251.041775 322.182437)scale(0.1 -0.1)">
       <defs>
        <path d="M 33.015625 40.375 
Q 26.375 40.375 22.484375 35.828125 
Q 18.609375 31.296875 18.609375 23.390625 
Q 18.609375 15.53125 22.484375 10.953125 
Q 26.375 6.390625 33.015625 6.390625 
Q 39.65625 6.390625 43.53125 10.953125 
Q 47.40625 15.53125 47.40625 23.390625 
Q 47.40625 31.296875 43.53125 35.828125 
Q 39.65625 40.375 33.015625 40.375 
z
M 52.59375 71.296875 
L 52.59375 62.3125 
Q 48.875 64.0625 45.09375 64.984375 
Q 41.3125 65.921875 37.59375 65.921875 
Q 27.828125 65.921875 22.671875 59.328125 
Q 17.53125 52.734375 16.796875 39.40625 
Q 19.671875 43.65625 24.015625 45.921875 
Q 28.375 48.1875 33.59375 48.1875 
Q 44.578125 48.1875 50.953125 41.515625 
Q 57.328125 34.859375 57.328125 23.390625 
Q 57.328125 12.15625 50.6875 5.359375 
Q 44.046875 -1.421875 33.015625 -1.421875 
Q 20.359375 -1.421875 13.671875 8.265625 
Q 6.984375 17.96875 6.984375 36.375 
Q 6.984375 53.65625 15.1875 63.9375 
Q 23.390625 74.21875 37.203125 74.21875 
Q 40.921875 74.21875 44.703125 73.484375 
Q 48.484375 72.75 52.59375 71.296875 
z
" id="DejaVuSans-54"/>
       </defs>
       <use xlink:href="#DejaVuSans-54"/>
       <use x="63.623047" xlink:href="#DejaVuSans-48"/>
      </g>
     </g>
    </g>
    <g id="xtick_6">
     <g id="line2d_6">
      <g>
       <use style="stroke:#000000;stroke-width:0.8;" x="298.244834" xlink:href="#mc5b9b87fb9" y="307.584"/>
      </g>
     </g>
     <g id="text_6">
      <!-- 80 -->
      <g transform="translate(291.882334 322.182437)scale(0.1 -0.1)">
       <defs>
        <path d="M 31.78125 34.625 
Q 24.75 34.625 20.71875 30.859375 
Q 16.703125 27.09375 16.703125 20.515625 
Q 16.703125 13.921875 20.71875 10.15625 
Q 24.75 6.390625 31.78125 6.390625 
Q 38.8125 6.390625 42.859375 10.171875 
Q 46.921875 13.96875 46.921875 20.515625 
Q 46.921875 27.09375 42.890625 30.859375 
Q 38.875 34.625 31.78125 34.625 
z
M 21.921875 38.8125 
Q 15.578125 40.375 12.03125 44.71875 
Q 8.5 49.078125 8.5 55.328125 
Q 8.5 64.0625 14.71875 69.140625 
Q 20.953125 74.21875 31.78125 74.21875 
Q 42.671875 74.21875 48.875 69.140625 
Q 55.078125 64.0625 55.078125 55.328125 
Q 55.078125 49.078125 51.53125 44.71875 
Q 48 40.375 41.703125 38.8125 
Q 48.828125 37.15625 52.796875 32.3125 
Q 56.78125 27.484375 56.78125 20.515625 
Q 56.78125 9.90625 50.3125 4.234375 
Q 43.84375 -1.421875 31.78125 -1.421875 
Q 19.734375 -1.421875 13.25 4.234375 
Q 6.78125 9.90625 6.78125 20.515625 
Q 6.78125 27.484375 10.78125 32.3125 
Q 14.796875 37.15625 21.921875 38.8125 
z
M 18.3125 54.390625 
Q 18.3125 48.734375 21.84375 45.5625 
Q 25.390625 42.390625 31.78125 42.390625 
Q 38.140625 42.390625 41.71875 45.5625 
Q 45.3125 48.734375 45.3125 54.390625 
Q 45.3125 60.0625 41.71875 63.234375 
Q 38.140625 66.40625 31.78125 66.40625 
Q 25.390625 66.40625 21.84375 63.234375 
Q 18.3125 60.0625 18.3125 54.390625 
z
" id="DejaVuSans-56"/>
       </defs>
       <use xlink:href="#DejaVuSans-56"/>
       <use x="63.623047" xlink:href="#DejaVuSans-48"/>
      </g>
     </g>
    </g>
    <g id="xtick_7">
     <g id="line2d_7">
      <g>
       <use style="stroke:#000000;stroke-width:0.8;" x="339.085394" xlink:href="#mc5b9b87fb9" y="307.584"/>
      </g>
     </g>
     <g id="text_7">
      <!-- 100 -->
      <g transform="translate(329.541644 322.182437)scale(0.1 -0.1)">
       <defs>
        <path d="M 12.40625 8.296875 
L 28.515625 8.296875 
L 28.515625 63.921875 
L 10.984375 60.40625 
L 10.984375 69.390625 
L 28.421875 72.90625 
L 38.28125 72.90625 
L 38.28125 8.296875 
L 54.390625 8.296875 
L 54.390625 0 
L 12.40625 0 
z
" id="DejaVuSans-49"/>
       </defs>
       <use xlink:href="#DejaVuSans-49"/>
       <use x="63.623047" xlink:href="#DejaVuSans-48"/>
       <use x="127.246094" xlink:href="#DejaVuSans-48"/>
      </g>
     </g>
    </g>
    <g id="xtick_8">
     <g id="line2d_8">
      <g>
       <use style="stroke:#000000;stroke-width:0.8;" x="379.925953" xlink:href="#mc5b9b87fb9" y="307.584"/>
      </g>
     </g>
     <g id="text_8">
      <!-- 120 -->
      <g transform="translate(370.382203 322.182437)scale(0.1 -0.1)">
       <use xlink:href="#DejaVuSans-49"/>
       <use x="63.623047" xlink:href="#DejaVuSans-50"/>
       <use x="127.246094" xlink:href="#DejaVuSans-48"/>
      </g>
     </g>
    </g>
   </g>
   <g id="matplotlib.axis_2">
    <g id="ytick_1">
     <g id="line2d_9">
      <defs>
       <path d="M 0 0 
L -3.5 0 
" id="m048ddd8e76" style="stroke:#000000;stroke-width:0.8;"/>
      </defs>
      <g>
       <use style="stroke:#000000;stroke-width:0.8;" x="57.6" xlink:href="#m048ddd8e76" y="268.653769"/>
      </g>
     </g>
     <g id="text_9">
      <!-- 20 -->
      <g transform="translate(37.875 272.452988)scale(0.1 -0.1)">
       <use xlink:href="#DejaVuSans-50"/>
       <use x="63.623047" xlink:href="#DejaVuSans-48"/>
      </g>
     </g>
    </g>
    <g id="ytick_2">
     <g id="line2d_10">
      <g>
       <use style="stroke:#000000;stroke-width:0.8;" x="57.6" xlink:href="#m048ddd8e76" y="227.81321"/>
      </g>
     </g>
     <g id="text_10">
      <!-- 40 -->
      <g transform="translate(37.875 231.612428)scale(0.1 -0.1)">
       <use xlink:href="#DejaVuSans-52"/>
       <use x="63.623047" xlink:href="#DejaVuSans-48"/>
      </g>
     </g>
    </g>
    <g id="ytick_3">
     <g id="line2d_11">
      <g>
       <use style="stroke:#000000;stroke-width:0.8;" x="57.6" xlink:href="#m048ddd8e76" y="186.97265"/>
      </g>
     </g>
     <g id="text_11">
      <!-- 60 -->
      <g transform="translate(37.875 190.771869)scale(0.1 -0.1)">
       <use xlink:href="#DejaVuSans-54"/>
       <use x="63.623047" xlink:href="#DejaVuSans-48"/>
      </g>
     </g>
    </g>
    <g id="ytick_4">
     <g id="line2d_12">
      <g>
       <use style="stroke:#000000;stroke-width:0.8;" x="57.6" xlink:href="#m048ddd8e76" y="146.132091"/>
      </g>
     </g>
     <g id="text_12">
      <!-- 80 -->
      <g transform="translate(37.875 149.93131)scale(0.1 -0.1)">
       <use xlink:href="#DejaVuSans-56"/>
       <use x="63.623047" xlink:href="#DejaVuSans-48"/>
      </g>
     </g>
    </g>
    <g id="ytick_5">
     <g id="line2d_13">
      <g>
       <use style="stroke:#000000;stroke-width:0.8;" x="57.6" xlink:href="#m048ddd8e76" y="105.291531"/>
      </g>
     </g>
     <g id="text_13">
      <!-- 100 -->
      <g transform="translate(31.5125 109.09075)scale(0.1 -0.1)">
       <use xlink:href="#DejaVuSans-49"/>
       <use x="63.623047" xlink:href="#DejaVuSans-48"/>
       <use x="127.246094" xlink:href="#DejaVuSans-48"/>
      </g>
     </g>
    </g>
    <g id="ytick_6">
     <g id="line2d_14">
      <g>
       <use style="stroke:#000000;stroke-width:0.8;" x="57.6" xlink:href="#m048ddd8e76" y="64.450972"/>
      </g>
     </g>
     <g id="text_14">
      <!-- 120 -->
      <g transform="translate(31.5125 68.250191)scale(0.1 -0.1)">
       <use xlink:href="#DejaVuSans-49"/>
       <use x="63.623047" xlink:href="#DejaVuSans-50"/>
       <use x="127.246094" xlink:href="#DejaVuSans-48"/>
      </g>
     </g>
    </g>
   </g>
   <g id="line2d_15">
    <path clip-path="url(#p2a4ee1df34)" d="M 313.170017 125.148211 
L 313.631515 121.111122 
L 313.872474 117.029108 
L 313.882684 112.924632 
L 313.658061 108.816072 
L 313.186353 104.727932 
L 312.465517 100.67859 
L 311.483302 96.69051 
L 310.23358 92.78411 
L 308.710228 88.979812 
L 306.903033 85.298036 
L 304.807912 81.765327 
L 302.42895 78.410275 
L 299.774313 75.267594 
L 296.850129 72.369957 
L 293.664566 69.750035 
L 290.227832 67.444585 
L 286.578728 65.482196 
L 282.758094 63.899625 
L 280.797747 63.258428 
L 276.799457 62.304801 
L 274.773765 61.998496 
L 272.735821 61.81063 
L 268.639513 61.767747 
L 264.545247 62.129186 
L 260.481611 62.850022 
L 256.475152 63.877162 
L 252.560585 65.167724 
L 248.746076 66.684951 
L 245.035712 68.414548 
L 241.427448 70.336097 
L 237.917202 72.431217 
L 234.504973 74.683574 
L 231.192804 77.082957 
L 227.988862 79.627324 
L 224.901316 82.310549 
L 221.932207 85.132631 
L 219.093788 88.089488 
L 216.398311 91.179076 
L 213.870281 94.407522 
L 211.536243 97.772784 
L 209.420702 101.278946 
L 207.548162 104.926008 
L 205.93496 108.70376 
L 204.593348 112.589739 
L 203.533535 116.559442 
L 202.769817 120.588363 
L 202.312402 124.656083 
L 202.144956 128.740139 
L 202.234805 132.832363 
L 202.545194 136.922545 
L 203.037322 140.994348 
L 204.044042 147.053045 
L 205.273343 153.054566 
L 210.055772 174.996156 
L 210.682675 179.035287 
L 211.142131 183.105049 
L 211.401469 187.209525 
L 211.423931 191.324212 
L 211.178888 195.424604 
L 210.633666 199.484156 
L 209.753552 203.478362 
L 208.520167 207.38272 
L 206.953932 211.176808 
L 205.08956 214.84429 
L 202.961767 218.36883 
L 200.599141 221.73205 
L 198.046606 224.931908 
L 194.001349 229.534639 
L 188.567512 235.628051 
L 185.990473 238.791152 
L 183.566586 242.082901 
L 181.297893 245.486962 
L 179.188478 248.997208 
L 177.236299 252.603429 
L 175.447482 256.291332 
L 172.982755 261.921203 
L 169.752266 269.423613 
L 168.010417 273.089054 
L 166.09091 276.648308 
L 163.928403 280.062579 
L 161.455507 283.295109 
L 160.081222 284.832756 
L 158.602794 286.313227 
L 157.012054 287.72631 
L 155.302877 289.074049 
L 155.302877 289.074049 
" style="fill:none;stroke:#fea952;stroke-linecap:square;"/>
   </g>
   <g id="line2d_16">
    <path clip-path="url(#p2a4ee1df34)" d="M 305.068963 124.10371 
L 305.485211 120.514652 
L 305.705533 116.890823 
L 305.721022 113.249151 
L 305.530326 109.627223 
L 305.123323 106.033915 
L 304.504126 102.504597 
L 303.660565 99.040583 
L 302.595951 95.67974 
L 301.309462 92.436214 
L 299.797175 89.326042 
L 298.048055 86.350344 
L 296.076927 83.545435 
L 293.89411 80.936921 
L 291.515084 78.555047 
L 288.947507 76.418423 
L 286.177916 74.537978 
L 283.258353 72.944981 
L 280.21882 71.663009 
L 277.127324 70.720663 
L 274.023972 70.132122 
L 270.819861 69.90215 
L 267.498711 70.018038 
L 264.098328 70.459402 
L 260.638477 71.202924 
L 257.187045 72.206896 
L 253.771111 73.443367 
L 250.431197 74.879811 
L 247.152479 76.510075 
L 243.928546 78.326675 
L 240.775637 80.302728 
L 237.696961 82.430609 
L 234.727697 84.676647 
L 231.858404 87.054582 
L 229.094123 89.561862 
L 226.452557 92.184478 
L 223.950239 94.905808 
L 221.611996 97.722248 
L 219.460206 100.623276 
L 217.511522 103.613544 
L 215.784387 106.684877 
L 214.276098 109.870523 
L 212.996631 113.159985 
L 211.955746 116.532187 
L 211.166327 119.944619 
L 210.635187 123.376012 
L 210.35973 126.891851 
L 210.321799 130.484839 
L 210.49947 134.155093 
L 210.868182 137.895342 
L 211.715009 143.58121 
L 212.830238 149.343024 
L 215.047229 159.175923 
L 217.316548 169.414182 
L 218.468638 175.829097 
L 219.062488 180.244674 
L 219.457429 184.748136 
L 219.612061 189.346876 
L 219.480272 194.001674 
L 219.018567 198.70681 
L 218.173595 203.424513 
L 216.912647 208.079424 
L 215.261262 212.565436 
L 213.26688 216.866497 
L 210.974635 220.967129 
L 208.411057 224.879996 
L 205.658151 228.532172 
L 202.843094 231.889129 
L 192.510245 243.711581 
L 190.310987 246.690624 
L 188.252655 249.770574 
L 186.327925 252.965374 
L 184.548583 256.243285 
L 182.892348 259.651692 
L 180.508013 265.097448 
L 177.164731 272.854854 
L 175.257573 276.856915 
L 173.078923 280.87746 
L 170.537092 284.862921 
L 169.098913 286.825853 
L 167.545682 288.738254 
L 165.860934 290.604496 
L 164.027445 292.419879 
L 162.06965 294.140262 
L 160.360473 295.488 
L 160.360473 295.488 
" style="fill:none;stroke:#ffffff;stroke-linecap:square;"/>
   </g>
   <g id="line2d_17">
    <path clip-path="url(#p2a4ee1df34)" d="M 321.27107 126.192713 
L 321.777819 121.707592 
L 322.039416 117.167393 
L 322.044347 112.600113 
L 321.785797 108.00492 
L 321.249383 103.421948 
L 320.426908 98.852583 
L 319.306038 94.340436 
L 317.87121 89.888481 
L 316.110994 85.52341 
L 314.008891 81.270029 
L 311.567769 77.18031 
L 308.780972 73.275116 
L 305.654516 69.598268 
L 303.962715 67.85576 
L 302.185174 66.184866 
L 300.329319 64.595923 
L 298.381624 63.081646 
L 296.356898 61.661675 
L 294.277749 60.351192 
L 292.113845 59.127826 
L 289.899104 58.019411 
L 287.616747 57.015962 
L 285.297368 56.13624 
L 282.904382 55.366651 
L 280.490301 54.734338 
L 278.020672 54.228497 
L 275.523558 53.864871 
L 273.037232 53.648081 
L 270.559556 53.568 
L 268.111282 53.616734 
L 265.684007 53.78292 
L 260.916278 54.436083 
L 256.30195 55.452789 
L 251.822145 56.776729 
L 247.511046 58.354173 
L 243.328128 60.168638 
L 239.284134 62.193604 
L 235.389558 64.399798 
L 231.619992 66.773265 
L 227.976312 69.301208 
L 224.427422 71.996878 
L 221.003185 74.846534 
L 217.706727 77.848646 
L 214.540766 81.004969 
L 211.50102 84.328041 
L 208.611672 87.829636 
L 205.895267 91.520274 
L 203.388245 95.403473 
L 201.121174 99.483321 
L 199.137595 103.730658 
L 197.460206 108.111053 
L 196.099666 112.600658 
L 195.063512 117.192975 
L 194.369434 121.860265 
L 194.0282 126.500286 
L 193.996701 131.087662 
L 194.227436 135.601857 
L 194.671452 140.025635 
L 195.284829 144.366233 
L 196.432524 150.69945 
L 198.209228 158.87703 
L 201.283896 172.548876 
L 202.304524 178.194179 
L 202.809285 181.889537 
L 203.141306 185.558271 
L 203.276641 189.184819 
L 203.191976 192.751226 
L 202.873626 196.214201 
L 202.301431 199.558425 
L 201.450922 202.806162 
L 200.292476 206.02268 
L 198.848083 209.187273 
L 197.137954 212.282748 
L 195.204985 215.263767 
L 193.028436 218.170584 
L 190.595481 221.07857 
L 180.86806 232.109671 
L 178.125168 235.657377 
L 175.564339 239.320132 
L 173.176927 243.100498 
L 170.965976 246.981815 
L 168.938206 250.947857 
L 166.271284 256.835636 
L 161.557062 267.687282 
L 159.94753 270.898307 
L 158.235192 273.865961 
L 156.372804 276.582887 
L 154.30151 279.061017 
L 151.954458 281.312359 
L 150.24528 282.660097 
L 150.24528 282.660097 
" style="fill:none;stroke:#ffffff;stroke-linecap:square;"/>
   </g>
   <g id="patch_3">
    <path d="M 57.6 307.584 
L 57.6 41.472 
" style="fill:none;stroke:#000000;stroke-linecap:square;stroke-linejoin:miter;stroke-width:0.8;"/>
   </g>
   <g id="patch_4">
    <path d="M 414.72 307.584 
L 414.72 41.472 
" style="fill:none;stroke:#000000;stroke-linecap:square;stroke-linejoin:miter;stroke-width:0.8;"/>
   </g>
   <g id="patch_5">
    <path d="M 57.6 307.584 
L 414.72 307.584 
" style="fill:none;stroke:#000000;stroke-linecap:square;stroke-linejoin:miter;stroke-width:0.8;"/>
   </g>
   <g id="patch_6">
    <path d="M 57.6 41.472 
L 414.72 41.472 
" style="fill:none;stroke:#000000;stroke-linecap:square;stroke-linejoin:miter;stroke-width:0.8;"/>
   </g>
  </g>
 </g>
 <defs>
  <clipPath id="p2a4ee1df34">
   <rect height="266.112" width="357.12" x="57.6" y="41.472"/>
  </clipPath>
 </defs>
</svg>
