<?xml version="1.0" encoding="utf-8" standalone="no"?>
<!DOCTYPE svg PUBLIC "-//W3C//DTD SVG 1.1//EN"
  "http://www.w3.org/Graphics/SVG/1.1/DTD/svg11.dtd">
<!-- Created with matplotlib (https://matplotlib.org/) -->
<svg height="345.6pt" version="1.1" viewBox="0 0 460.8 345.6" width="460.8pt" xmlns="http://www.w3.org/2000/svg" xmlns:xlink="http://www.w3.org/1999/xlink">
 <metadata>
  <rdf:RDF xmlns:cc="http://creativecommons.org/ns#" xmlns:dc="http://purl.org/dc/elements/1.1/" xmlns:rdf="http://www.w3.org/1999/02/22-rdf-syntax-ns#">
   <cc:Work>
    <dc:type rdf:resource="http://purl.org/dc/dcmitype/StillImage"/>
    <dc:date>2021-01-22T11:45:16.009322</dc:date>
    <dc:format>image/svg+xml</dc:format>
    <dc:creator>
     <cc:Agent>
      <dc:title>Matplotlib v3.3.3, https://matplotlib.org/</dc:title>
     </cc:Agent>
    </dc:creator>
   </cc:Work>
  </rdf:RDF>
 </metadata>
 <defs>
  <style type="text/css">*{stroke-linecap:butt;stroke-linejoin:round;}</style>
 </defs>
 <g id="figure_1">
  <g id="patch_1">
   <path d="M 0 345.6 
L 460.8 345.6 
L 460.8 0 
L 0 0 
z
" style="fill:#ffffff;"/>
  </g>
  <g id="axes_1">
   <g id="patch_2">
    <path d="M 57.6 307.584 
L 414.72 307.584 
L 414.72 41.472 
L 57.6 41.472 
z
" style="fill:#7d9051;"/>
   </g>
   <g id="matplotlib.axis_1">
    <g id="xtick_1">
     <g id="line2d_1">
      <defs>
       <path d="M 0 0 
L 0 3.5 
" id="mbc51b09494" style="stroke:#000000;stroke-width:0.8;"/>
      </defs>
      <g>
       <use style="stroke:#000000;stroke-width:0.8;" x="96.852454" xlink:href="#mbc51b09494" y="307.584"/>
      </g>
     </g>
     <g id="text_1">
      <!-- 0 -->
      <g transform="translate(93.671204 322.182437)scale(0.1 -0.1)">
       <defs>
        <path d="M 31.78125 66.40625 
Q 24.171875 66.40625 20.328125 58.90625 
Q 16.5 51.421875 16.5 36.375 
Q 16.5 21.390625 20.328125 13.890625 
Q 24.171875 6.390625 31.78125 6.390625 
Q 39.453125 6.390625 43.28125 13.890625 
Q 47.125 21.390625 47.125 36.375 
Q 47.125 51.421875 43.28125 58.90625 
Q 39.453125 66.40625 31.78125 66.40625 
z
M 31.78125 74.21875 
Q 44.046875 74.21875 50.515625 64.515625 
Q 56.984375 54.828125 56.984375 36.375 
Q 56.984375 17.96875 50.515625 8.265625 
Q 44.046875 -1.421875 31.78125 -1.421875 
Q 19.53125 -1.421875 13.0625 8.265625 
Q 6.59375 17.96875 6.59375 36.375 
Q 6.59375 54.828125 13.0625 64.515625 
Q 19.53125 74.21875 31.78125 74.21875 
z
" id="DejaVuSans-48"/>
       </defs>
       <use xlink:href="#DejaVuSans-48"/>
      </g>
     </g>
    </g>
    <g id="xtick_2">
     <g id="line2d_2">
      <g>
       <use style="stroke:#000000;stroke-width:0.8;" x="145.862609" xlink:href="#mbc51b09494" y="307.584"/>
      </g>
     </g>
     <g id="text_2">
      <!-- 20 -->
      <g transform="translate(139.500109 322.182437)scale(0.1 -0.1)">
       <defs>
        <path d="M 19.1875 8.296875 
L 53.609375 8.296875 
L 53.609375 0 
L 7.328125 0 
L 7.328125 8.296875 
Q 12.9375 14.109375 22.625 23.890625 
Q 32.328125 33.6875 34.8125 36.53125 
Q 39.546875 41.84375 41.421875 45.53125 
Q 43.3125 49.21875 43.3125 52.78125 
Q 43.3125 58.59375 39.234375 62.25 
Q 35.15625 65.921875 28.609375 65.921875 
Q 23.96875 65.921875 18.8125 64.3125 
Q 13.671875 62.703125 7.8125 59.421875 
L 7.8125 69.390625 
Q 13.765625 71.78125 18.9375 73 
Q 24.125 74.21875 28.421875 74.21875 
Q 39.75 74.21875 46.484375 68.546875 
Q 53.21875 62.890625 53.21875 53.421875 
Q 53.21875 48.921875 51.53125 44.890625 
Q 49.859375 40.875 45.40625 35.40625 
Q 44.1875 33.984375 37.640625 27.21875 
Q 31.109375 20.453125 19.1875 8.296875 
z
" id="DejaVuSans-50"/>
       </defs>
       <use xlink:href="#DejaVuSans-50"/>
       <use x="63.623047" xlink:href="#DejaVuSans-48"/>
      </g>
     </g>
    </g>
    <g id="xtick_3">
     <g id="line2d_3">
      <g>
       <use style="stroke:#000000;stroke-width:0.8;" x="194.872765" xlink:href="#mbc51b09494" y="307.584"/>
      </g>
     </g>
     <g id="text_3">
      <!-- 40 -->
      <g transform="translate(188.510265 322.182437)scale(0.1 -0.1)">
       <defs>
        <path d="M 37.796875 64.3125 
L 12.890625 25.390625 
L 37.796875 25.390625 
z
M 35.203125 72.90625 
L 47.609375 72.90625 
L 47.609375 25.390625 
L 58.015625 25.390625 
L 58.015625 17.1875 
L 47.609375 17.1875 
L 47.609375 0 
L 37.796875 0 
L 37.796875 17.1875 
L 4.890625 17.1875 
L 4.890625 26.703125 
z
" id="DejaVuSans-52"/>
       </defs>
       <use xlink:href="#DejaVuSans-52"/>
       <use x="63.623047" xlink:href="#DejaVuSans-48"/>
      </g>
     </g>
    </g>
    <g id="xtick_4">
     <g id="line2d_4">
      <g>
       <use style="stroke:#000000;stroke-width:0.8;" x="243.882921" xlink:href="#mbc51b09494" y="307.584"/>
      </g>
     </g>
     <g id="text_4">
      <!-- 60 -->
      <g transform="translate(237.520421 322.182437)scale(0.1 -0.1)">
       <defs>
        <path d="M 33.015625 40.375 
Q 26.375 40.375 22.484375 35.828125 
Q 18.609375 31.296875 18.609375 23.390625 
Q 18.609375 15.53125 22.484375 10.953125 
Q 26.375 6.390625 33.015625 6.390625 
Q 39.65625 6.390625 43.53125 10.953125 
Q 47.40625 15.53125 47.40625 23.390625 
Q 47.40625 31.296875 43.53125 35.828125 
Q 39.65625 40.375 33.015625 40.375 
z
M 52.59375 71.296875 
L 52.59375 62.3125 
Q 48.875 64.0625 45.09375 64.984375 
Q 41.3125 65.921875 37.59375 65.921875 
Q 27.828125 65.921875 22.671875 59.328125 
Q 17.53125 52.734375 16.796875 39.40625 
Q 19.671875 43.65625 24.015625 45.921875 
Q 28.375 48.1875 33.59375 48.1875 
Q 44.578125 48.1875 50.953125 41.515625 
Q 57.328125 34.859375 57.328125 23.390625 
Q 57.328125 12.15625 50.6875 5.359375 
Q 44.046875 -1.421875 33.015625 -1.421875 
Q 20.359375 -1.421875 13.671875 8.265625 
Q 6.984375 17.96875 6.984375 36.375 
Q 6.984375 53.65625 15.1875 63.9375 
Q 23.390625 74.21875 37.203125 74.21875 
Q 40.921875 74.21875 44.703125 73.484375 
Q 48.484375 72.75 52.59375 71.296875 
z
" id="DejaVuSans-54"/>
       </defs>
       <use xlink:href="#DejaVuSans-54"/>
       <use x="63.623047" xlink:href="#DejaVuSans-48"/>
      </g>
     </g>
    </g>
    <g id="xtick_5">
     <g id="line2d_5">
      <g>
       <use style="stroke:#000000;stroke-width:0.8;" x="292.893076" xlink:href="#mbc51b09494" y="307.584"/>
      </g>
     </g>
     <g id="text_5">
      <!-- 80 -->
      <g transform="translate(286.530576 322.182437)scale(0.1 -0.1)">
       <defs>
        <path d="M 31.78125 34.625 
Q 24.75 34.625 20.71875 30.859375 
Q 16.703125 27.09375 16.703125 20.515625 
Q 16.703125 13.921875 20.71875 10.15625 
Q 24.75 6.390625 31.78125 6.390625 
Q 38.8125 6.390625 42.859375 10.171875 
Q 46.921875 13.96875 46.921875 20.515625 
Q 46.921875 27.09375 42.890625 30.859375 
Q 38.875 34.625 31.78125 34.625 
z
M 21.921875 38.8125 
Q 15.578125 40.375 12.03125 44.71875 
Q 8.5 49.078125 8.5 55.328125 
Q 8.5 64.0625 14.71875 69.140625 
Q 20.953125 74.21875 31.78125 74.21875 
Q 42.671875 74.21875 48.875 69.140625 
Q 55.078125 64.0625 55.078125 55.328125 
Q 55.078125 49.078125 51.53125 44.71875 
Q 48 40.375 41.703125 38.8125 
Q 48.828125 37.15625 52.796875 32.3125 
Q 56.78125 27.484375 56.78125 20.515625 
Q 56.78125 9.90625 50.3125 4.234375 
Q 43.84375 -1.421875 31.78125 -1.421875 
Q 19.734375 -1.421875 13.25 4.234375 
Q 6.78125 9.90625 6.78125 20.515625 
Q 6.78125 27.484375 10.78125 32.3125 
Q 14.796875 37.15625 21.921875 38.8125 
z
M 18.3125 54.390625 
Q 18.3125 48.734375 21.84375 45.5625 
Q 25.390625 42.390625 31.78125 42.390625 
Q 38.140625 42.390625 41.71875 45.5625 
Q 45.3125 48.734375 45.3125 54.390625 
Q 45.3125 60.0625 41.71875 63.234375 
Q 38.140625 66.40625 31.78125 66.40625 
Q 25.390625 66.40625 21.84375 63.234375 
Q 18.3125 60.0625 18.3125 54.390625 
z
" id="DejaVuSans-56"/>
       </defs>
       <use xlink:href="#DejaVuSans-56"/>
       <use x="63.623047" xlink:href="#DejaVuSans-48"/>
      </g>
     </g>
    </g>
    <g id="xtick_6">
     <g id="line2d_6">
      <g>
       <use style="stroke:#000000;stroke-width:0.8;" x="341.903232" xlink:href="#mbc51b09494" y="307.584"/>
      </g>
     </g>
     <g id="text_6">
      <!-- 100 -->
      <g transform="translate(332.359482 322.182437)scale(0.1 -0.1)">
       <defs>
        <path d="M 12.40625 8.296875 
L 28.515625 8.296875 
L 28.515625 63.921875 
L 10.984375 60.40625 
L 10.984375 69.390625 
L 28.421875 72.90625 
L 38.28125 72.90625 
L 38.28125 8.296875 
L 54.390625 8.296875 
L 54.390625 0 
L 12.40625 0 
z
" id="DejaVuSans-49"/>
       </defs>
       <use xlink:href="#DejaVuSans-49"/>
       <use x="63.623047" xlink:href="#DejaVuSans-48"/>
       <use x="127.246094" xlink:href="#DejaVuSans-48"/>
      </g>
     </g>
    </g>
    <g id="xtick_7">
     <g id="line2d_7">
      <g>
       <use style="stroke:#000000;stroke-width:0.8;" x="390.913388" xlink:href="#mbc51b09494" y="307.584"/>
      </g>
     </g>
     <g id="text_7">
      <!-- 120 -->
      <g transform="translate(381.369638 322.182437)scale(0.1 -0.1)">
       <use xlink:href="#DejaVuSans-49"/>
       <use x="63.623047" xlink:href="#DejaVuSans-50"/>
       <use x="127.246094" xlink:href="#DejaVuSans-48"/>
      </g>
     </g>
    </g>
   </g>
   <g id="matplotlib.axis_2">
    <g id="ytick_1">
     <g id="line2d_8">
      <defs>
       <path d="M 0 0 
L -3.5 0 
" id="m6d15ec54bb" style="stroke:#000000;stroke-width:0.8;"/>
      </defs>
      <g>
       <use style="stroke:#000000;stroke-width:0.8;" x="57.6" xlink:href="#m6d15ec54bb" y="269.941537"/>
      </g>
     </g>
     <g id="text_8">
      <!-- 20 -->
      <g transform="translate(37.875 273.740756)scale(0.1 -0.1)">
       <use xlink:href="#DejaVuSans-50"/>
       <use x="63.623047" xlink:href="#DejaVuSans-48"/>
      </g>
     </g>
    </g>
    <g id="ytick_2">
     <g id="line2d_9">
      <g>
       <use style="stroke:#000000;stroke-width:0.8;" x="57.6" xlink:href="#m6d15ec54bb" y="220.931381"/>
      </g>
     </g>
     <g id="text_9">
      <!-- 40 -->
      <g transform="translate(37.875 224.7306)scale(0.1 -0.1)">
       <use xlink:href="#DejaVuSans-52"/>
       <use x="63.623047" xlink:href="#DejaVuSans-48"/>
      </g>
     </g>
    </g>
    <g id="ytick_3">
     <g id="line2d_10">
      <g>
       <use style="stroke:#000000;stroke-width:0.8;" x="57.6" xlink:href="#m6d15ec54bb" y="171.921226"/>
      </g>
     </g>
     <g id="text_10">
      <!-- 60 -->
      <g transform="translate(37.875 175.720444)scale(0.1 -0.1)">
       <use xlink:href="#DejaVuSans-54"/>
       <use x="63.623047" xlink:href="#DejaVuSans-48"/>
      </g>
     </g>
    </g>
    <g id="ytick_4">
     <g id="line2d_11">
      <g>
       <use style="stroke:#000000;stroke-width:0.8;" x="57.6" xlink:href="#m6d15ec54bb" y="122.91107"/>
      </g>
     </g>
     <g id="text_11">
      <!-- 80 -->
      <g transform="translate(37.875 126.710289)scale(0.1 -0.1)">
       <use xlink:href="#DejaVuSans-56"/>
       <use x="63.623047" xlink:href="#DejaVuSans-48"/>
      </g>
     </g>
    </g>
    <g id="ytick_5">
     <g id="line2d_12">
      <g>
       <use style="stroke:#000000;stroke-width:0.8;" x="57.6" xlink:href="#m6d15ec54bb" y="73.900914"/>
      </g>
     </g>
     <g id="text_12">
      <!-- 100 -->
      <g transform="translate(31.5125 77.700133)scale(0.1 -0.1)">
       <use xlink:href="#DejaVuSans-49"/>
       <use x="63.623047" xlink:href="#DejaVuSans-48"/>
       <use x="127.246094" xlink:href="#DejaVuSans-48"/>
      </g>
     </g>
    </g>
   </g>
   <g id="line2d_13">
    <path clip-path="url(#pebeccff2ea)" d="M 167.409924 294.446615 
L 167.865719 289.690179 
L 168.118121 284.823471 
L 168.145077 279.883247 
L 167.92208 274.908716 
L 167.429528 269.941537 
L 166.640465 265.018467 
L 165.535286 260.181165 
L 164.089486 255.466388 
L 162.281011 250.913344 
L 161.234645 248.710338 
L 160.087807 246.561242 
L 157.504972 242.437038 
L 154.591318 238.513775 
L 151.427712 234.744894 
L 146.384567 229.302316 
L 137.829845 220.402072 
L 134.580471 216.733662 
L 131.541842 212.903518 
L 128.789922 208.850378 
L 127.547514 206.720887 
L 126.398226 204.527682 
L 125.351859 202.278116 
L 124.413315 199.974639 
L 123.587494 197.629503 
L 122.881747 195.247609 
L 122.300977 192.83631 
L 121.847633 190.402955 
L 121.531517 187.954898 
L 121.357531 185.499489 
L 121.328125 183.04163 
L 121.435948 180.588672 
L 121.673647 178.140615 
L 122.033872 175.702359 
L 123.080238 170.872408 
L 124.511335 166.125775 
L 126.253646 161.489414 
L 128.245909 156.98293 
L 130.419509 152.586719 
L 133.901681 146.117379 
L 140.971396 133.249762 
L 146.852614 122.504286 
L 150.584738 116.140317 
L 153.231286 111.979355 
L 156.044469 107.938467 
L 159.058594 104.064215 
L 162.315319 100.403156 
L 165.8465 96.999401 
L 169.652139 93.882355 
L 173.697927 91.05937 
L 177.939756 88.535347 
L 182.345769 86.315187 
L 186.876758 84.403791 
L 191.498416 82.771753 
L 196.191138 81.350458 
L 203.309863 79.473369 
L 217.571819 75.85887 
L 226.998922 73.192718 
L 234.014726 70.957855 
L 245.676692 67.086052 
L 250.384118 65.748075 
L 255.147905 64.667401 
L 259.980306 63.917546 
L 264.866619 63.493608 
L 269.787238 63.368632 
L 274.720111 63.515662 
L 279.643181 63.907744 
L 284.534394 64.527722 
L 289.381499 65.390301 
L 294.162439 66.519985 
L 298.862513 67.938829 
L 303.459666 69.668887 
L 307.939194 71.729764 
L 312.266791 74.111658 
L 316.405699 76.802316 
L 320.324061 79.789485 
L 323.985119 83.058462 
L 327.36682 86.587193 
L 330.510821 90.33647 
L 333.466134 94.254832 
L 337.666304 100.339443 
L 345.877956 112.653244 
L 348.752401 116.618166 
L 351.78613 120.431156 
L 353.37651 122.266587 
L 353.37651 122.266587 
" style="fill:none;stroke:#fea952;stroke-linecap:square;"/>
   </g>
   <g id="line2d_14">
    <path clip-path="url(#pebeccff2ea)" d="M 157.663369 293.40523 
L 158.083514 289.067046 
L 158.317659 284.648115 
L 158.347923 280.192428 
L 158.155045 275.736268 
L 157.728726 271.346614 
L 157.048997 267.03925 
L 156.110765 262.875274 
L 154.905938 258.893085 
L 153.426962 255.118772 
L 151.666128 251.576732 
L 149.535384 248.143656 
L 147.000608 244.715463 
L 144.141436 241.301569 
L 139.338151 236.116113 
L 130.564536 226.981974 
L 127.000684 222.948695 
L 123.54971 218.57852 
L 121.902528 216.243914 
L 120.323487 213.789943 
L 118.865325 211.270548 
L 117.510603 208.661685 
L 116.274398 205.976699 
L 115.167778 203.230382 
L 114.189325 200.414146 
L 113.352226 197.542829 
L 112.664752 194.631578 
L 112.126315 191.658261 
L 111.754002 188.647716 
L 111.556202 185.616754 
L 111.53555 182.611187 
L 111.679798 179.641378 
L 111.976869 176.708025 
L 112.41149 173.834314 
L 112.971503 170.99752 
L 114.421175 165.482025 
L 116.227367 160.196992 
L 118.309221 155.139879 
L 120.566328 150.348383 
L 124.133255 143.539675 
L 140.918829 113.1903 
L 143.66529 108.716557 
L 146.639111 104.240448 
L 149.876211 99.847618 
L 153.446617 95.563501 
L 155.369557 93.486784 
L 157.388727 91.47069 
L 159.489164 89.538564 
L 163.893237 85.950466 
L 168.53088 82.729818 
L 173.378103 79.859453 
L 178.384712 77.349149 
L 183.487689 75.20629 
L 188.569696 73.41748 
L 193.595481 71.898348 
L 200.950951 69.959414 
L 215.010178 66.397485 
L 224.120412 63.822873 
L 230.871154 61.673579 
L 242.890714 57.688279 
L 248.064634 56.22443 
L 253.477537 55.008742 
L 258.980714 54.166616 
L 264.476021 53.699362 
L 269.952856 53.568 
L 275.38182 53.735992 
L 280.763034 54.169893 
L 286.123698 54.855394 
L 291.502682 55.820536 
L 296.844919 57.092147 
L 302.152469 58.705411 
L 307.397195 60.692492 
L 312.508462 63.057878 
L 317.459235 65.797914 
L 322.199308 68.895742 
L 326.707162 72.350679 
L 328.860578 74.208546 
L 332.903982 78.137961 
L 336.56574 82.248487 
L 339.897544 86.460383 
L 342.966198 90.7037 
L 347.219786 97.012605 
L 353.867406 106.974468 
L 356.499717 110.613258 
L 359.194071 114.01226 
L 360.78445 115.84769 
L 360.78445 115.84769 
" style="fill:none;stroke:#ffffff;stroke-linecap:square;"/>
   </g>
   <g id="line2d_15">
    <path clip-path="url(#pebeccff2ea)" d="M 177.156479 295.488 
L 177.647923 290.313313 
L 177.918583 284.998827 
L 177.94223 279.574067 
L 177.689115 274.081165 
L 177.130331 268.536461 
L 176.231932 262.997684 
L 174.959806 257.487055 
L 173.273035 252.03969 
L 172.263488 249.358799 
L 171.135061 246.707917 
L 169.882404 244.09557 
L 168.509486 241.545752 
L 167.031972 239.083964 
L 163.850446 234.472401 
L 160.461354 230.211468 
L 156.959626 226.240405 
L 151.684606 220.682605 
L 145.095153 213.82217 
L 142.160259 210.518629 
L 139.533973 207.228516 
L 137.256356 203.910813 
L 135.285848 200.393679 
L 133.658852 196.718896 
L 132.411269 192.952389 
L 131.568951 189.14765 
L 131.158861 185.382225 
L 131.192097 181.535966 
L 131.656253 177.570405 
L 132.516015 173.526826 
L 133.740345 169.428075 
L 135.269668 165.335342 
L 137.073012 161.244628 
L 139.096693 157.145918 
L 142.46603 150.885161 
L 149.598963 137.902171 
L 155.366167 127.362191 
L 158.900124 121.330131 
L 161.344818 117.479393 
L 163.867279 113.844689 
L 166.493931 110.451356 
L 169.261081 107.319528 
L 172.203837 104.460238 
L 175.411041 101.814244 
L 178.864974 99.388922 
L 182.501409 97.211241 
L 186.306826 95.281225 
L 190.265827 93.601292 
L 194.427136 92.126025 
L 198.786795 90.802568 
L 205.668776 88.987324 
L 220.133459 85.320255 
L 227.437314 83.286435 
L 234.752167 81.036069 
L 250.597546 75.848338 
L 254.775502 74.762052 
L 258.892091 73.961463 
L 263.11345 73.444963 
L 267.431758 73.197032 
L 271.834273 73.203397 
L 276.288424 73.443433 
L 280.748427 73.89883 
L 285.120004 74.553925 
L 289.394 75.429122 
L 293.540179 76.528817 
L 297.559916 77.873893 
L 301.461968 79.489411 
L 305.243038 81.381256 
L 308.870984 83.539886 
L 312.305614 85.941056 
L 315.517215 88.570786 
L 318.511671 91.448882 
L 321.363362 94.626166 
L 324.11862 98.094162 
L 326.81846 101.819896 
L 330.842688 107.788035 
L 337.888505 118.33202 
L 341.005086 122.623074 
L 344.378189 126.850053 
L 345.968569 128.685483 
L 345.968569 128.685483 
" style="fill:none;stroke:#ffffff;stroke-linecap:square;"/>
   </g>
   <g id="patch_3">
    <path d="M 57.6 307.584 
L 57.6 41.472 
" style="fill:none;stroke:#000000;stroke-linecap:square;stroke-linejoin:miter;stroke-width:0.8;"/>
   </g>
   <g id="patch_4">
    <path d="M 414.72 307.584 
L 414.72 41.472 
" style="fill:none;stroke:#000000;stroke-linecap:square;stroke-linejoin:miter;stroke-width:0.8;"/>
   </g>
   <g id="patch_5">
    <path d="M 57.6 307.584 
L 414.72 307.584 
" style="fill:none;stroke:#000000;stroke-linecap:square;stroke-linejoin:miter;stroke-width:0.8;"/>
   </g>
   <g id="patch_6">
    <path d="M 57.6 41.472 
L 414.72 41.472 
" style="fill:none;stroke:#000000;stroke-linecap:square;stroke-linejoin:miter;stroke-width:0.8;"/>
   </g>
  </g>
 </g>
 <defs>
  <clipPath id="pebeccff2ea">
   <rect height="266.112" width="357.12" x="57.6" y="41.472"/>
  </clipPath>
 </defs>
</svg>
