<?xml version="1.0" encoding="utf-8" standalone="no"?>
<!DOCTYPE svg PUBLIC "-//W3C//DTD SVG 1.1//EN"
  "http://www.w3.org/Graphics/SVG/1.1/DTD/svg11.dtd">
<!-- Created with matplotlib (https://matplotlib.org/) -->
<svg height="345.6pt" version="1.1" viewBox="0 0 460.8 345.6" width="460.8pt" xmlns="http://www.w3.org/2000/svg" xmlns:xlink="http://www.w3.org/1999/xlink">
 <metadata>
  <rdf:RDF xmlns:cc="http://creativecommons.org/ns#" xmlns:dc="http://purl.org/dc/elements/1.1/" xmlns:rdf="http://www.w3.org/1999/02/22-rdf-syntax-ns#">
   <cc:Work>
    <dc:type rdf:resource="http://purl.org/dc/dcmitype/StillImage"/>
    <dc:date>2021-01-22T12:03:09.945440</dc:date>
    <dc:format>image/svg+xml</dc:format>
    <dc:creator>
     <cc:Agent>
      <dc:title>Matplotlib v3.3.3, https://matplotlib.org/</dc:title>
     </cc:Agent>
    </dc:creator>
   </cc:Work>
  </rdf:RDF>
 </metadata>
 <defs>
  <style type="text/css">*{stroke-linecap:butt;stroke-linejoin:round;}</style>
 </defs>
 <g id="figure_1">
  <g id="patch_1">
   <path d="M 0 345.6 
L 460.8 345.6 
L 460.8 0 
L 0 0 
z
" style="fill:#ffffff;"/>
  </g>
  <g id="axes_1">
   <g id="patch_2">
    <path d="M 57.6 307.584 
L 414.72 307.584 
L 414.72 41.472 
L 57.6 41.472 
z
" style="fill:#7d9051;"/>
   </g>
   <g id="matplotlib.axis_1">
    <g id="xtick_1">
     <g id="line2d_1">
      <defs>
       <path d="M 0 0 
L 0 3.5 
" id="m272ecadefd" style="stroke:#000000;stroke-width:0.8;"/>
      </defs>
      <g>
       <use style="stroke:#000000;stroke-width:0.8;" x="75.826523" xlink:href="#m272ecadefd" y="307.584"/>
      </g>
     </g>
     <g id="text_1">
      <!-- −20 -->
      <g transform="translate(65.27418 322.182437)scale(0.1 -0.1)">
       <defs>
        <path d="M 10.59375 35.5 
L 73.1875 35.5 
L 73.1875 27.203125 
L 10.59375 27.203125 
z
" id="DejaVuSans-8722"/>
        <path d="M 19.1875 8.296875 
L 53.609375 8.296875 
L 53.609375 0 
L 7.328125 0 
L 7.328125 8.296875 
Q 12.9375 14.109375 22.625 23.890625 
Q 32.328125 33.6875 34.8125 36.53125 
Q 39.546875 41.84375 41.421875 45.53125 
Q 43.3125 49.21875 43.3125 52.78125 
Q 43.3125 58.59375 39.234375 62.25 
Q 35.15625 65.921875 28.609375 65.921875 
Q 23.96875 65.921875 18.8125 64.3125 
Q 13.671875 62.703125 7.8125 59.421875 
L 7.8125 69.390625 
Q 13.765625 71.78125 18.9375 73 
Q 24.125 74.21875 28.421875 74.21875 
Q 39.75 74.21875 46.484375 68.546875 
Q 53.21875 62.890625 53.21875 53.421875 
Q 53.21875 48.921875 51.53125 44.890625 
Q 49.859375 40.875 45.40625 35.40625 
Q 44.1875 33.984375 37.640625 27.21875 
Q 31.109375 20.453125 19.1875 8.296875 
z
" id="DejaVuSans-50"/>
        <path d="M 31.78125 66.40625 
Q 24.171875 66.40625 20.328125 58.90625 
Q 16.5 51.421875 16.5 36.375 
Q 16.5 21.390625 20.328125 13.890625 
Q 24.171875 6.390625 31.78125 6.390625 
Q 39.453125 6.390625 43.28125 13.890625 
Q 47.125 21.390625 47.125 36.375 
Q 47.125 51.421875 43.28125 58.90625 
Q 39.453125 66.40625 31.78125 66.40625 
z
M 31.78125 74.21875 
Q 44.046875 74.21875 50.515625 64.515625 
Q 56.984375 54.828125 56.984375 36.375 
Q 56.984375 17.96875 50.515625 8.265625 
Q 44.046875 -1.421875 31.78125 -1.421875 
Q 19.53125 -1.421875 13.0625 8.265625 
Q 6.59375 17.96875 6.59375 36.375 
Q 6.59375 54.828125 13.0625 64.515625 
Q 19.53125 74.21875 31.78125 74.21875 
z
" id="DejaVuSans-48"/>
       </defs>
       <use xlink:href="#DejaVuSans-8722"/>
       <use x="83.789062" xlink:href="#DejaVuSans-50"/>
       <use x="147.412109" xlink:href="#DejaVuSans-48"/>
      </g>
     </g>
    </g>
    <g id="xtick_2">
     <g id="line2d_2">
      <g>
       <use style="stroke:#000000;stroke-width:0.8;" x="118.445965" xlink:href="#m272ecadefd" y="307.584"/>
      </g>
     </g>
     <g id="text_2">
      <!-- 0 -->
      <g transform="translate(115.264715 322.182437)scale(0.1 -0.1)">
       <use xlink:href="#DejaVuSans-48"/>
      </g>
     </g>
    </g>
    <g id="xtick_3">
     <g id="line2d_3">
      <g>
       <use style="stroke:#000000;stroke-width:0.8;" x="161.065406" xlink:href="#m272ecadefd" y="307.584"/>
      </g>
     </g>
     <g id="text_3">
      <!-- 20 -->
      <g transform="translate(154.702906 322.182437)scale(0.1 -0.1)">
       <use xlink:href="#DejaVuSans-50"/>
       <use x="63.623047" xlink:href="#DejaVuSans-48"/>
      </g>
     </g>
    </g>
    <g id="xtick_4">
     <g id="line2d_4">
      <g>
       <use style="stroke:#000000;stroke-width:0.8;" x="203.684847" xlink:href="#m272ecadefd" y="307.584"/>
      </g>
     </g>
     <g id="text_4">
      <!-- 40 -->
      <g transform="translate(197.322347 322.182437)scale(0.1 -0.1)">
       <defs>
        <path d="M 37.796875 64.3125 
L 12.890625 25.390625 
L 37.796875 25.390625 
z
M 35.203125 72.90625 
L 47.609375 72.90625 
L 47.609375 25.390625 
L 58.015625 25.390625 
L 58.015625 17.1875 
L 47.609375 17.1875 
L 47.609375 0 
L 37.796875 0 
L 37.796875 17.1875 
L 4.890625 17.1875 
L 4.890625 26.703125 
z
" id="DejaVuSans-52"/>
       </defs>
       <use xlink:href="#DejaVuSans-52"/>
       <use x="63.623047" xlink:href="#DejaVuSans-48"/>
      </g>
     </g>
    </g>
    <g id="xtick_5">
     <g id="line2d_5">
      <g>
       <use style="stroke:#000000;stroke-width:0.8;" x="246.304288" xlink:href="#m272ecadefd" y="307.584"/>
      </g>
     </g>
     <g id="text_5">
      <!-- 60 -->
      <g transform="translate(239.941788 322.182437)scale(0.1 -0.1)">
       <defs>
        <path d="M 33.015625 40.375 
Q 26.375 40.375 22.484375 35.828125 
Q 18.609375 31.296875 18.609375 23.390625 
Q 18.609375 15.53125 22.484375 10.953125 
Q 26.375 6.390625 33.015625 6.390625 
Q 39.65625 6.390625 43.53125 10.953125 
Q 47.40625 15.53125 47.40625 23.390625 
Q 47.40625 31.296875 43.53125 35.828125 
Q 39.65625 40.375 33.015625 40.375 
z
M 52.59375 71.296875 
L 52.59375 62.3125 
Q 48.875 64.0625 45.09375 64.984375 
Q 41.3125 65.921875 37.59375 65.921875 
Q 27.828125 65.921875 22.671875 59.328125 
Q 17.53125 52.734375 16.796875 39.40625 
Q 19.671875 43.65625 24.015625 45.921875 
Q 28.375 48.1875 33.59375 48.1875 
Q 44.578125 48.1875 50.953125 41.515625 
Q 57.328125 34.859375 57.328125 23.390625 
Q 57.328125 12.15625 50.6875 5.359375 
Q 44.046875 -1.421875 33.015625 -1.421875 
Q 20.359375 -1.421875 13.671875 8.265625 
Q 6.984375 17.96875 6.984375 36.375 
Q 6.984375 53.65625 15.1875 63.9375 
Q 23.390625 74.21875 37.203125 74.21875 
Q 40.921875 74.21875 44.703125 73.484375 
Q 48.484375 72.75 52.59375 71.296875 
z
" id="DejaVuSans-54"/>
       </defs>
       <use xlink:href="#DejaVuSans-54"/>
       <use x="63.623047" xlink:href="#DejaVuSans-48"/>
      </g>
     </g>
    </g>
    <g id="xtick_6">
     <g id="line2d_6">
      <g>
       <use style="stroke:#000000;stroke-width:0.8;" x="288.923729" xlink:href="#m272ecadefd" y="307.584"/>
      </g>
     </g>
     <g id="text_6">
      <!-- 80 -->
      <g transform="translate(282.561229 322.182437)scale(0.1 -0.1)">
       <defs>
        <path d="M 31.78125 34.625 
Q 24.75 34.625 20.71875 30.859375 
Q 16.703125 27.09375 16.703125 20.515625 
Q 16.703125 13.921875 20.71875 10.15625 
Q 24.75 6.390625 31.78125 6.390625 
Q 38.8125 6.390625 42.859375 10.171875 
Q 46.921875 13.96875 46.921875 20.515625 
Q 46.921875 27.09375 42.890625 30.859375 
Q 38.875 34.625 31.78125 34.625 
z
M 21.921875 38.8125 
Q 15.578125 40.375 12.03125 44.71875 
Q 8.5 49.078125 8.5 55.328125 
Q 8.5 64.0625 14.71875 69.140625 
Q 20.953125 74.21875 31.78125 74.21875 
Q 42.671875 74.21875 48.875 69.140625 
Q 55.078125 64.0625 55.078125 55.328125 
Q 55.078125 49.078125 51.53125 44.71875 
Q 48 40.375 41.703125 38.8125 
Q 48.828125 37.15625 52.796875 32.3125 
Q 56.78125 27.484375 56.78125 20.515625 
Q 56.78125 9.90625 50.3125 4.234375 
Q 43.84375 -1.421875 31.78125 -1.421875 
Q 19.734375 -1.421875 13.25 4.234375 
Q 6.78125 9.90625 6.78125 20.515625 
Q 6.78125 27.484375 10.78125 32.3125 
Q 14.796875 37.15625 21.921875 38.8125 
z
M 18.3125 54.390625 
Q 18.3125 48.734375 21.84375 45.5625 
Q 25.390625 42.390625 31.78125 42.390625 
Q 38.140625 42.390625 41.71875 45.5625 
Q 45.3125 48.734375 45.3125 54.390625 
Q 45.3125 60.0625 41.71875 63.234375 
Q 38.140625 66.40625 31.78125 66.40625 
Q 25.390625 66.40625 21.84375 63.234375 
Q 18.3125 60.0625 18.3125 54.390625 
z
" id="DejaVuSans-56"/>
       </defs>
       <use xlink:href="#DejaVuSans-56"/>
       <use x="63.623047" xlink:href="#DejaVuSans-48"/>
      </g>
     </g>
    </g>
    <g id="xtick_7">
     <g id="line2d_7">
      <g>
       <use style="stroke:#000000;stroke-width:0.8;" x="331.54317" xlink:href="#m272ecadefd" y="307.584"/>
      </g>
     </g>
     <g id="text_7">
      <!-- 100 -->
      <g transform="translate(321.99942 322.182437)scale(0.1 -0.1)">
       <defs>
        <path d="M 12.40625 8.296875 
L 28.515625 8.296875 
L 28.515625 63.921875 
L 10.984375 60.40625 
L 10.984375 69.390625 
L 28.421875 72.90625 
L 38.28125 72.90625 
L 38.28125 8.296875 
L 54.390625 8.296875 
L 54.390625 0 
L 12.40625 0 
z
" id="DejaVuSans-49"/>
       </defs>
       <use xlink:href="#DejaVuSans-49"/>
       <use x="63.623047" xlink:href="#DejaVuSans-48"/>
       <use x="127.246094" xlink:href="#DejaVuSans-48"/>
      </g>
     </g>
    </g>
    <g id="xtick_8">
     <g id="line2d_8">
      <g>
       <use style="stroke:#000000;stroke-width:0.8;" x="374.162611" xlink:href="#m272ecadefd" y="307.584"/>
      </g>
     </g>
     <g id="text_8">
      <!-- 120 -->
      <g transform="translate(364.618861 322.182437)scale(0.1 -0.1)">
       <use xlink:href="#DejaVuSans-49"/>
       <use x="63.623047" xlink:href="#DejaVuSans-50"/>
       <use x="127.246094" xlink:href="#DejaVuSans-48"/>
      </g>
     </g>
    </g>
   </g>
   <g id="matplotlib.axis_2">
    <g id="ytick_1">
     <g id="line2d_9">
      <defs>
       <path d="M 0 0 
L -3.5 0 
" id="mad4f8ac792" style="stroke:#000000;stroke-width:0.8;"/>
      </defs>
      <g>
       <use style="stroke:#000000;stroke-width:0.8;" x="57.6" xlink:href="#mad4f8ac792" y="273.118952"/>
      </g>
     </g>
     <g id="text_9">
      <!-- 20 -->
      <g transform="translate(37.875 276.918171)scale(0.1 -0.1)">
       <use xlink:href="#DejaVuSans-50"/>
       <use x="63.623047" xlink:href="#DejaVuSans-48"/>
      </g>
     </g>
    </g>
    <g id="ytick_2">
     <g id="line2d_10">
      <g>
       <use style="stroke:#000000;stroke-width:0.8;" x="57.6" xlink:href="#mad4f8ac792" y="230.499511"/>
      </g>
     </g>
     <g id="text_10">
      <!-- 40 -->
      <g transform="translate(37.875 234.298729)scale(0.1 -0.1)">
       <use xlink:href="#DejaVuSans-52"/>
       <use x="63.623047" xlink:href="#DejaVuSans-48"/>
      </g>
     </g>
    </g>
    <g id="ytick_3">
     <g id="line2d_11">
      <g>
       <use style="stroke:#000000;stroke-width:0.8;" x="57.6" xlink:href="#mad4f8ac792" y="187.88007"/>
      </g>
     </g>
     <g id="text_11">
      <!-- 60 -->
      <g transform="translate(37.875 191.679288)scale(0.1 -0.1)">
       <use xlink:href="#DejaVuSans-54"/>
       <use x="63.623047" xlink:href="#DejaVuSans-48"/>
      </g>
     </g>
    </g>
    <g id="ytick_4">
     <g id="line2d_12">
      <g>
       <use style="stroke:#000000;stroke-width:0.8;" x="57.6" xlink:href="#mad4f8ac792" y="145.260628"/>
      </g>
     </g>
     <g id="text_12">
      <!-- 80 -->
      <g transform="translate(37.875 149.059847)scale(0.1 -0.1)">
       <use xlink:href="#DejaVuSans-56"/>
       <use x="63.623047" xlink:href="#DejaVuSans-48"/>
      </g>
     </g>
    </g>
    <g id="ytick_5">
     <g id="line2d_13">
      <g>
       <use style="stroke:#000000;stroke-width:0.8;" x="57.6" xlink:href="#mad4f8ac792" y="102.641187"/>
      </g>
     </g>
     <g id="text_13">
      <!-- 100 -->
      <g transform="translate(31.5125 106.440406)scale(0.1 -0.1)">
       <use xlink:href="#DejaVuSans-49"/>
       <use x="63.623047" xlink:href="#DejaVuSans-48"/>
       <use x="127.246094" xlink:href="#DejaVuSans-48"/>
      </g>
     </g>
    </g>
    <g id="ytick_6">
     <g id="line2d_14">
      <g>
       <use style="stroke:#000000;stroke-width:0.8;" x="57.6" xlink:href="#mad4f8ac792" y="60.021746"/>
      </g>
     </g>
     <g id="text_14">
      <!-- 120 -->
      <g transform="translate(31.5125 63.820965)scale(0.1 -0.1)">
       <use xlink:href="#DejaVuSans-49"/>
       <use x="63.623047" xlink:href="#DejaVuSans-50"/>
       <use x="127.246094" xlink:href="#DejaVuSans-48"/>
      </g>
     </g>
    </g>
   </g>
   <g id="line2d_15">
    <path clip-path="url(#p1178634283)" d="M 331.899042 294.428672 
L 332.363594 290.143288 
L 332.555382 285.87282 
L 332.517024 281.613006 
L 332.28901 277.361717 
L 331.688076 271.000766 
L 330.341302 260.42262 
L 329.331221 251.966923 
L 328.785692 245.618757 
L 327.609396 230.727525 
L 327.095831 226.444271 
L 326.403265 222.18872 
L 325.459245 218.003491 
L 324.19984 213.933334 
L 323.428428 211.955792 
L 322.55473 210.025131 
L 321.570221 208.145614 
L 320.481294 206.315109 
L 318.01789 202.818184 
L 315.228448 199.538618 
L 312.174765 196.480673 
L 308.91864 193.650742 
L 305.517608 191.044563 
L 302.012159 188.613124 
L 296.633586 185.169473 
L 287.625967 179.492564 
L 280.553271 174.729841 
L 273.619088 169.766807 
L 266.838335 164.605593 
L 261.879563 160.571663 
L 257.057173 156.3566 
L 252.411654 151.932702 
L 249.451734 148.844923 
L 246.640981 145.631418 
L 244.009231 142.28153 
L 241.582054 138.778211 
L 239.372236 135.132118 
L 237.362729 131.360298 
L 235.542879 127.488322 
L 233.897769 123.537499 
L 231.717784 117.513241 
L 226.239055 101.377521 
L 224.593945 97.439485 
L 222.759178 93.578163 
L 220.72623 89.816998 
L 218.48871 86.175166 
L 216.03383 82.669717 
L 213.35946 79.328353 
L 210.459207 76.176645 
L 207.333071 73.24869 
L 203.97679 70.578582 
L 200.394626 68.196155 
L 196.586579 66.141898 
L 192.593137 64.456299 
L 190.543142 63.765864 
L 188.463313 63.18624 
L 186.362175 62.723819 
L 184.243989 62.380732 
L 182.113017 62.167635 
L 179.977783 62.088789 
L 177.84468 62.146325 
L 175.715839 62.338113 
L 173.597652 62.65989 
L 171.498645 63.105263 
L 169.418816 63.66997 
L 167.36669 64.345489 
L 163.362594 66.020433 
L 159.528975 68.083214 
L 155.910584 70.499736 
L 152.552172 73.244428 
L 150.988039 74.733977 
L 149.507013 76.298111 
L 148.117619 77.932566 
L 146.82625 79.639475 
L 145.637168 81.410313 
L 144.556765 83.247211 
L 143.593566 85.145907 
L 142.741177 87.100008 
L 142.00173 89.105253 
L 141.370962 91.150986 
L 140.429072 95.353263 
L 139.896329 99.655696 
L 139.755685 104.009271 
L 139.987961 108.364978 
L 140.573978 112.675935 
L 141.496689 116.888867 
L 142.739046 120.959023 
L 144.28187 124.83313 
L 144.28187 124.83313 
" style="fill:none;stroke:#fea952;stroke-linecap:square;"/>
   </g>
   <g id="line2d_16">
    <path clip-path="url(#p1178634283)" d="M 323.441236 293.369345 
L 323.854917 289.634294 
L 324.031532 285.847248 
L 324.001408 281.988444 
L 323.633232 276.049423 
L 322.980556 269.938789 
L 320.635226 250.571487 
L 319.831243 239.885976 
L 319.136925 231.66236 
L 318.665879 227.70624 
L 318.057143 223.920456 
L 317.263001 220.344059 
L 316.258753 217.031043 
L 315.004001 213.980275 
L 313.395541 211.053122 
L 311.405741 208.197417 
L 309.084632 205.447103 
L 306.475372 202.818936 
L 303.63933 200.342943 
L 300.589 197.999093 
L 297.339199 195.741947 
L 292.138191 192.411579 
L 282.947047 186.617476 
L 275.670862 181.716883 
L 268.538914 176.611404 
L 261.527031 171.27243 
L 256.347725 167.056679 
L 251.277001 162.621286 
L 246.316828 157.89171 
L 243.105836 154.535816 
L 240.012461 150.990465 
L 237.078246 147.243194 
L 234.357643 143.301988 
L 231.903829 139.240593 
L 229.690087 135.073415 
L 227.709507 130.849118 
L 225.932434 126.572317 
L 224.352781 122.305783 
L 221.625837 114.072253 
L 219.026711 106.395582 
L 217.613635 102.7772 
L 216.048411 99.252302 
L 214.325488 95.838436 
L 212.434076 92.544261 
L 210.38331 89.401177 
L 208.160526 86.414538 
L 205.766124 83.60716 
L 203.219449 81.015639 
L 200.519385 78.659812 
L 197.65295 76.549646 
L 194.639488 74.718261 
L 191.489663 73.181623 
L 188.254834 71.976852 
L 184.999307 71.138048 
L 181.798477 70.685718 
L 178.6095 70.635832 
L 175.366886 70.998144 
L 172.08402 71.766473 
L 168.830876 72.91102 
L 165.639872 74.412918 
L 162.586483 76.228134 
L 159.747949 78.300804 
L 157.177529 80.594598 
L 154.915285 83.075369 
L 152.984418 85.731723 
L 151.406499 88.553948 
L 150.147214 91.616777 
L 149.209815 94.895924 
L 148.594776 98.348017 
L 148.302521 101.920936 
L 148.326332 105.558029 
L 148.65815 109.208798 
L 149.281226 112.804665 
L 150.177679 116.288363 
L 151.324695 119.603103 
L 152.132334 121.512454 
L 152.132334 121.512454 
" style="fill:none;stroke:#ffffff;stroke-linecap:square;"/>
   </g>
   <g id="line2d_17">
    <path clip-path="url(#p1178634283)" d="M 340.356849 295.488 
L 340.872272 290.652281 
L 341.079232 285.898391 
L 341.03264 281.237568 
L 340.785535 276.679265 
L 340.153523 270.00433 
L 338.79402 259.323426 
L 337.816289 251.154341 
L 337.134575 242.894483 
L 336.303029 232.027617 
L 335.525784 225.182302 
L 334.749388 220.456984 
L 333.655489 215.662922 
L 332.958844 213.253313 
L 332.140928 210.835625 
L 331.194151 208.441503 
L 330.105459 206.069987 
L 328.895897 203.787732 
L 327.567048 201.577096 
L 326.141822 199.463722 
L 324.63004 197.438951 
L 321.372264 193.630133 
L 317.874159 190.142409 
L 314.197949 186.95854 
L 310.446217 184.090033 
L 306.68512 181.484301 
L 301.12898 177.927367 
L 292.304887 172.367651 
L 285.435679 167.742799 
L 278.699262 162.92221 
L 272.149639 157.938755 
L 267.411401 154.086646 
L 262.837344 150.091914 
L 258.506479 145.973694 
L 255.797631 143.154031 
L 253.269502 140.27237 
L 250.940216 137.319865 
L 248.806465 134.254435 
L 246.840643 131.023644 
L 245.035371 127.647181 
L 243.376251 124.127525 
L 241.863103 120.502681 
L 239.805106 114.820308 
L 234.96439 100.344378 
L 233.266246 96.022758 
L 231.353724 91.744036 
L 229.211063 87.529022 
L 226.832007 83.415939 
L 224.194635 79.40748 
L 221.2903 75.540913 
L 218.105817 71.844564 
L 214.630366 68.350029 
L 210.848013 65.097138 
L 206.776003 62.148376 
L 204.610989 60.788122 
L 202.390729 59.534554 
L 200.094225 58.373173 
L 197.728411 57.316419 
L 195.313806 56.378265 
L 192.83145 55.554877 
L 190.295415 54.861573 
L 187.725043 54.309589 
L 185.092147 53.899147 
L 182.427557 53.649552 
L 179.747951 53.568 
L 177.079859 53.656819 
L 174.435649 53.910908 
L 171.828419 54.321635 
L 169.265134 54.879201 
L 166.753612 55.573468 
L 164.274813 56.402129 
L 161.862181 57.352615 
L 159.503894 58.419965 
L 157.206946 59.596966 
L 154.959724 60.887477 
L 152.793409 62.273838 
L 150.678002 63.770936 
L 148.642355 65.366645 
L 146.673839 67.071757 
L 144.798548 68.873356 
L 143.012537 70.777382 
L 141.319954 72.789764 
L 139.749707 74.887717 
L 138.289918 77.088902 
L 136.955079 79.390912 
L 135.780632 81.737866 
L 134.743716 84.150891 
L 133.856245 86.593729 
L 133.102073 89.081652 
L 132.487933 91.578491 
L 131.996134 94.111397 
L 131.632601 96.641763 
L 131.384806 99.196741 
L 131.23622 104.283825 
L 131.520036 109.340123 
L 132.212085 114.329843 
L 133.2947 119.209222 
L 134.755748 123.946266 
L 136.431406 128.153806 
L 136.431406 128.153806 
" style="fill:none;stroke:#ffffff;stroke-linecap:square;"/>
   </g>
   <g id="patch_3">
    <path d="M 57.6 307.584 
L 57.6 41.472 
" style="fill:none;stroke:#000000;stroke-linecap:square;stroke-linejoin:miter;stroke-width:0.8;"/>
   </g>
   <g id="patch_4">
    <path d="M 414.72 307.584 
L 414.72 41.472 
" style="fill:none;stroke:#000000;stroke-linecap:square;stroke-linejoin:miter;stroke-width:0.8;"/>
   </g>
   <g id="patch_5">
    <path d="M 57.6 307.584 
L 414.72 307.584 
" style="fill:none;stroke:#000000;stroke-linecap:square;stroke-linejoin:miter;stroke-width:0.8;"/>
   </g>
   <g id="patch_6">
    <path d="M 57.6 41.472 
L 414.72 41.472 
" style="fill:none;stroke:#000000;stroke-linecap:square;stroke-linejoin:miter;stroke-width:0.8;"/>
   </g>
  </g>
 </g>
 <defs>
  <clipPath id="p1178634283">
   <rect height="266.112" width="357.12" x="57.6" y="41.472"/>
  </clipPath>
 </defs>
</svg>
