<?xml version="1.0" encoding="utf-8" standalone="no"?>
<!DOCTYPE svg PUBLIC "-//W3C//DTD SVG 1.1//EN"
  "http://www.w3.org/Graphics/SVG/1.1/DTD/svg11.dtd">
<!-- Created with matplotlib (https://matplotlib.org/) -->
<svg height="345.6pt" version="1.1" viewBox="0 0 460.8 345.6" width="460.8pt" xmlns="http://www.w3.org/2000/svg" xmlns:xlink="http://www.w3.org/1999/xlink">
 <metadata>
  <rdf:RDF xmlns:cc="http://creativecommons.org/ns#" xmlns:dc="http://purl.org/dc/elements/1.1/" xmlns:rdf="http://www.w3.org/1999/02/22-rdf-syntax-ns#">
   <cc:Work>
    <dc:type rdf:resource="http://purl.org/dc/dcmitype/StillImage"/>
    <dc:date>2021-01-23T14:09:18.243892</dc:date>
    <dc:format>image/svg+xml</dc:format>
    <dc:creator>
     <cc:Agent>
      <dc:title>Matplotlib v3.3.3, https://matplotlib.org/</dc:title>
     </cc:Agent>
    </dc:creator>
   </cc:Work>
  </rdf:RDF>
 </metadata>
 <defs>
  <style type="text/css">*{stroke-linecap:butt;stroke-linejoin:round;}</style>
 </defs>
 <g id="figure_1">
  <g id="patch_1">
   <path d="M 0 345.6 
L 460.8 345.6 
L 460.8 0 
L 0 0 
z
" style="fill:#ffffff;"/>
  </g>
  <g id="axes_1">
   <g id="patch_2">
    <path d="M 57.6 307.584 
L 414.72 307.584 
L 414.72 41.472 
L 57.6 41.472 
z
" style="fill:#7d9051;"/>
   </g>
   <g id="matplotlib.axis_1">
    <g id="xtick_1">
     <g id="line2d_1">
      <defs>
       <path d="M 0 0 
L 0 3.5 
" id="m2918c83d44" style="stroke:#000000;stroke-width:0.8;"/>
      </defs>
      <g>
       <use style="stroke:#000000;stroke-width:0.8;" x="91.973009" xlink:href="#m2918c83d44" y="307.584"/>
      </g>
     </g>
     <g id="text_1">
      <!-- 0 -->
      <g transform="translate(88.791759 322.182437)scale(0.1 -0.1)">
       <defs>
        <path d="M 31.78125 66.40625 
Q 24.171875 66.40625 20.328125 58.90625 
Q 16.5 51.421875 16.5 36.375 
Q 16.5 21.390625 20.328125 13.890625 
Q 24.171875 6.390625 31.78125 6.390625 
Q 39.453125 6.390625 43.28125 13.890625 
Q 47.125 21.390625 47.125 36.375 
Q 47.125 51.421875 43.28125 58.90625 
Q 39.453125 66.40625 31.78125 66.40625 
z
M 31.78125 74.21875 
Q 44.046875 74.21875 50.515625 64.515625 
Q 56.984375 54.828125 56.984375 36.375 
Q 56.984375 17.96875 50.515625 8.265625 
Q 44.046875 -1.421875 31.78125 -1.421875 
Q 19.53125 -1.421875 13.0625 8.265625 
Q 6.59375 17.96875 6.59375 36.375 
Q 6.59375 54.828125 13.0625 64.515625 
Q 19.53125 74.21875 31.78125 74.21875 
z
" id="DejaVuSans-48"/>
       </defs>
       <use xlink:href="#DejaVuSans-48"/>
      </g>
     </g>
    </g>
    <g id="xtick_2">
     <g id="line2d_2">
      <g>
       <use style="stroke:#000000;stroke-width:0.8;" x="143.011947" xlink:href="#m2918c83d44" y="307.584"/>
      </g>
     </g>
     <g id="text_2">
      <!-- 20 -->
      <g transform="translate(136.649447 322.182437)scale(0.1 -0.1)">
       <defs>
        <path d="M 19.1875 8.296875 
L 53.609375 8.296875 
L 53.609375 0 
L 7.328125 0 
L 7.328125 8.296875 
Q 12.9375 14.109375 22.625 23.890625 
Q 32.328125 33.6875 34.8125 36.53125 
Q 39.546875 41.84375 41.421875 45.53125 
Q 43.3125 49.21875 43.3125 52.78125 
Q 43.3125 58.59375 39.234375 62.25 
Q 35.15625 65.921875 28.609375 65.921875 
Q 23.96875 65.921875 18.8125 64.3125 
Q 13.671875 62.703125 7.8125 59.421875 
L 7.8125 69.390625 
Q 13.765625 71.78125 18.9375 73 
Q 24.125 74.21875 28.421875 74.21875 
Q 39.75 74.21875 46.484375 68.546875 
Q 53.21875 62.890625 53.21875 53.421875 
Q 53.21875 48.921875 51.53125 44.890625 
Q 49.859375 40.875 45.40625 35.40625 
Q 44.1875 33.984375 37.640625 27.21875 
Q 31.109375 20.453125 19.1875 8.296875 
z
" id="DejaVuSans-50"/>
       </defs>
       <use xlink:href="#DejaVuSans-50"/>
       <use x="63.623047" xlink:href="#DejaVuSans-48"/>
      </g>
     </g>
    </g>
    <g id="xtick_3">
     <g id="line2d_3">
      <g>
       <use style="stroke:#000000;stroke-width:0.8;" x="194.050884" xlink:href="#m2918c83d44" y="307.584"/>
      </g>
     </g>
     <g id="text_3">
      <!-- 40 -->
      <g transform="translate(187.688384 322.182437)scale(0.1 -0.1)">
       <defs>
        <path d="M 37.796875 64.3125 
L 12.890625 25.390625 
L 37.796875 25.390625 
z
M 35.203125 72.90625 
L 47.609375 72.90625 
L 47.609375 25.390625 
L 58.015625 25.390625 
L 58.015625 17.1875 
L 47.609375 17.1875 
L 47.609375 0 
L 37.796875 0 
L 37.796875 17.1875 
L 4.890625 17.1875 
L 4.890625 26.703125 
z
" id="DejaVuSans-52"/>
       </defs>
       <use xlink:href="#DejaVuSans-52"/>
       <use x="63.623047" xlink:href="#DejaVuSans-48"/>
      </g>
     </g>
    </g>
    <g id="xtick_4">
     <g id="line2d_4">
      <g>
       <use style="stroke:#000000;stroke-width:0.8;" x="245.089822" xlink:href="#m2918c83d44" y="307.584"/>
      </g>
     </g>
     <g id="text_4">
      <!-- 60 -->
      <g transform="translate(238.727322 322.182437)scale(0.1 -0.1)">
       <defs>
        <path d="M 33.015625 40.375 
Q 26.375 40.375 22.484375 35.828125 
Q 18.609375 31.296875 18.609375 23.390625 
Q 18.609375 15.53125 22.484375 10.953125 
Q 26.375 6.390625 33.015625 6.390625 
Q 39.65625 6.390625 43.53125 10.953125 
Q 47.40625 15.53125 47.40625 23.390625 
Q 47.40625 31.296875 43.53125 35.828125 
Q 39.65625 40.375 33.015625 40.375 
z
M 52.59375 71.296875 
L 52.59375 62.3125 
Q 48.875 64.0625 45.09375 64.984375 
Q 41.3125 65.921875 37.59375 65.921875 
Q 27.828125 65.921875 22.671875 59.328125 
Q 17.53125 52.734375 16.796875 39.40625 
Q 19.671875 43.65625 24.015625 45.921875 
Q 28.375 48.1875 33.59375 48.1875 
Q 44.578125 48.1875 50.953125 41.515625 
Q 57.328125 34.859375 57.328125 23.390625 
Q 57.328125 12.15625 50.6875 5.359375 
Q 44.046875 -1.421875 33.015625 -1.421875 
Q 20.359375 -1.421875 13.671875 8.265625 
Q 6.984375 17.96875 6.984375 36.375 
Q 6.984375 53.65625 15.1875 63.9375 
Q 23.390625 74.21875 37.203125 74.21875 
Q 40.921875 74.21875 44.703125 73.484375 
Q 48.484375 72.75 52.59375 71.296875 
z
" id="DejaVuSans-54"/>
       </defs>
       <use xlink:href="#DejaVuSans-54"/>
       <use x="63.623047" xlink:href="#DejaVuSans-48"/>
      </g>
     </g>
    </g>
    <g id="xtick_5">
     <g id="line2d_5">
      <g>
       <use style="stroke:#000000;stroke-width:0.8;" x="296.12876" xlink:href="#m2918c83d44" y="307.584"/>
      </g>
     </g>
     <g id="text_5">
      <!-- 80 -->
      <g transform="translate(289.76626 322.182437)scale(0.1 -0.1)">
       <defs>
        <path d="M 31.78125 34.625 
Q 24.75 34.625 20.71875 30.859375 
Q 16.703125 27.09375 16.703125 20.515625 
Q 16.703125 13.921875 20.71875 10.15625 
Q 24.75 6.390625 31.78125 6.390625 
Q 38.8125 6.390625 42.859375 10.171875 
Q 46.921875 13.96875 46.921875 20.515625 
Q 46.921875 27.09375 42.890625 30.859375 
Q 38.875 34.625 31.78125 34.625 
z
M 21.921875 38.8125 
Q 15.578125 40.375 12.03125 44.71875 
Q 8.5 49.078125 8.5 55.328125 
Q 8.5 64.0625 14.71875 69.140625 
Q 20.953125 74.21875 31.78125 74.21875 
Q 42.671875 74.21875 48.875 69.140625 
Q 55.078125 64.0625 55.078125 55.328125 
Q 55.078125 49.078125 51.53125 44.71875 
Q 48 40.375 41.703125 38.8125 
Q 48.828125 37.15625 52.796875 32.3125 
Q 56.78125 27.484375 56.78125 20.515625 
Q 56.78125 9.90625 50.3125 4.234375 
Q 43.84375 -1.421875 31.78125 -1.421875 
Q 19.734375 -1.421875 13.25 4.234375 
Q 6.78125 9.90625 6.78125 20.515625 
Q 6.78125 27.484375 10.78125 32.3125 
Q 14.796875 37.15625 21.921875 38.8125 
z
M 18.3125 54.390625 
Q 18.3125 48.734375 21.84375 45.5625 
Q 25.390625 42.390625 31.78125 42.390625 
Q 38.140625 42.390625 41.71875 45.5625 
Q 45.3125 48.734375 45.3125 54.390625 
Q 45.3125 60.0625 41.71875 63.234375 
Q 38.140625 66.40625 31.78125 66.40625 
Q 25.390625 66.40625 21.84375 63.234375 
Q 18.3125 60.0625 18.3125 54.390625 
z
" id="DejaVuSans-56"/>
       </defs>
       <use xlink:href="#DejaVuSans-56"/>
       <use x="63.623047" xlink:href="#DejaVuSans-48"/>
      </g>
     </g>
    </g>
    <g id="xtick_6">
     <g id="line2d_6">
      <g>
       <use style="stroke:#000000;stroke-width:0.8;" x="347.167697" xlink:href="#m2918c83d44" y="307.584"/>
      </g>
     </g>
     <g id="text_6">
      <!-- 100 -->
      <g transform="translate(337.623947 322.182437)scale(0.1 -0.1)">
       <defs>
        <path d="M 12.40625 8.296875 
L 28.515625 8.296875 
L 28.515625 63.921875 
L 10.984375 60.40625 
L 10.984375 69.390625 
L 28.421875 72.90625 
L 38.28125 72.90625 
L 38.28125 8.296875 
L 54.390625 8.296875 
L 54.390625 0 
L 12.40625 0 
z
" id="DejaVuSans-49"/>
       </defs>
       <use xlink:href="#DejaVuSans-49"/>
       <use x="63.623047" xlink:href="#DejaVuSans-48"/>
       <use x="127.246094" xlink:href="#DejaVuSans-48"/>
      </g>
     </g>
    </g>
    <g id="xtick_7">
     <g id="line2d_7">
      <g>
       <use style="stroke:#000000;stroke-width:0.8;" x="398.206635" xlink:href="#m2918c83d44" y="307.584"/>
      </g>
     </g>
     <g id="text_7">
      <!-- 120 -->
      <g transform="translate(388.662885 322.182437)scale(0.1 -0.1)">
       <use xlink:href="#DejaVuSans-49"/>
       <use x="63.623047" xlink:href="#DejaVuSans-50"/>
       <use x="127.246094" xlink:href="#DejaVuSans-48"/>
      </g>
     </g>
    </g>
   </g>
   <g id="matplotlib.axis_2">
    <g id="ytick_1">
     <g id="line2d_8">
      <defs>
       <path d="M 0 0 
L -3.5 0 
" id="m5364841520" style="stroke:#000000;stroke-width:0.8;"/>
      </defs>
      <g>
       <use style="stroke:#000000;stroke-width:0.8;" x="57.6" xlink:href="#m5364841520" y="269.037978"/>
      </g>
     </g>
     <g id="text_8">
      <!-- 20 -->
      <g transform="translate(37.875 272.837197)scale(0.1 -0.1)">
       <use xlink:href="#DejaVuSans-50"/>
       <use x="63.623047" xlink:href="#DejaVuSans-48"/>
      </g>
     </g>
    </g>
    <g id="ytick_2">
     <g id="line2d_9">
      <g>
       <use style="stroke:#000000;stroke-width:0.8;" x="57.6" xlink:href="#m5364841520" y="217.99904"/>
      </g>
     </g>
     <g id="text_9">
      <!-- 40 -->
      <g transform="translate(37.875 221.798259)scale(0.1 -0.1)">
       <use xlink:href="#DejaVuSans-52"/>
       <use x="63.623047" xlink:href="#DejaVuSans-48"/>
      </g>
     </g>
    </g>
    <g id="ytick_3">
     <g id="line2d_10">
      <g>
       <use style="stroke:#000000;stroke-width:0.8;" x="57.6" xlink:href="#m5364841520" y="166.960102"/>
      </g>
     </g>
     <g id="text_10">
      <!-- 60 -->
      <g transform="translate(37.875 170.759321)scale(0.1 -0.1)">
       <use xlink:href="#DejaVuSans-54"/>
       <use x="63.623047" xlink:href="#DejaVuSans-48"/>
      </g>
     </g>
    </g>
    <g id="ytick_4">
     <g id="line2d_11">
      <g>
       <use style="stroke:#000000;stroke-width:0.8;" x="57.6" xlink:href="#m5364841520" y="115.921165"/>
      </g>
     </g>
     <g id="text_11">
      <!-- 80 -->
      <g transform="translate(37.875 119.720384)scale(0.1 -0.1)">
       <use xlink:href="#DejaVuSans-56"/>
       <use x="63.623047" xlink:href="#DejaVuSans-48"/>
      </g>
     </g>
    </g>
    <g id="ytick_5">
     <g id="line2d_12">
      <g>
       <use style="stroke:#000000;stroke-width:0.8;" x="57.6" xlink:href="#m5364841520" y="64.882227"/>
      </g>
     </g>
     <g id="text_12">
      <!-- 100 -->
      <g transform="translate(31.5125 68.681446)scale(0.1 -0.1)">
       <use xlink:href="#DejaVuSans-49"/>
       <use x="63.623047" xlink:href="#DejaVuSans-48"/>
       <use x="127.246094" xlink:href="#DejaVuSans-48"/>
      </g>
     </g>
    </g>
   </g>
   <g id="line2d_13">
    <path clip-path="url(#p1ffcc652b1)" d="M 117.492478 294.557447 
L 117.086718 289.430585 
L 116.920842 284.316484 
L 116.961673 279.215142 
L 117.170933 274.121456 
L 117.724705 266.498791 
L 118.725068 256.342042 
L 120.003594 243.641002 
L 120.585438 236.003025 
L 120.95547 228.352289 
L 121.083067 220.696448 
L 120.94271 213.035503 
L 120.473152 197.726374 
L 120.506327 192.630136 
L 120.730899 187.539002 
L 121.134106 182.455524 
L 121.999216 174.840514 
L 123.476793 164.711837 
L 124.819117 157.155523 
L 125.93687 152.17157 
L 127.309818 147.251417 
L 129.009414 142.418029 
L 131.089251 137.696928 
L 133.559536 133.149358 
L 134.940139 130.96234 
L 136.415164 128.846776 
L 137.982059 126.805218 
L 139.645929 124.852979 
L 141.401668 122.995162 
L 143.249278 121.241974 
L 145.188757 119.59852 
L 147.209899 118.057144 
L 151.463995 115.252555 
L 155.942662 112.749095 
L 160.571893 110.477862 
L 167.64589 107.346623 
L 181.722429 101.270438 
L 186.308278 99.085971 
L 190.80736 96.727972 
L 195.222228 94.193889 
L 201.745004 90.182229 
L 212.590779 83.388946 
L 219.213081 79.515091 
L 225.970636 75.90919 
L 230.56414 73.6941 
L 235.239307 71.655094 
L 239.996136 69.817692 
L 244.837179 68.186998 
L 249.754781 66.783428 
L 254.751493 65.61974 
L 259.81966 64.706143 
L 264.941417 64.078364 
L 270.08359 63.779786 
L 275.210451 63.858896 
L 277.757294 64.052844 
L 280.286274 64.36163 
L 282.794837 64.787805 
L 285.27533 65.333922 
L 290.16486 66.76046 
L 294.952312 68.56979 
L 299.637687 70.690458 
L 304.223535 73.043353 
L 308.71241 75.554469 
L 313.101759 78.195734 
L 317.386477 80.972252 
L 321.566566 83.894231 
L 325.63437 86.969327 
L 329.592439 90.205196 
L 333.412704 93.619701 
L 337.054332 97.22305 
L 340.473941 101.033107 
L 343.633251 105.065183 
L 346.483776 109.332038 
L 348.992339 113.823464 
L 351.133423 118.506287 
L 352.054676 120.907669 
L 353.583292 125.815063 
L 354.182999 128.308315 
L 354.667869 130.824535 
L 355.03535 133.358618 
L 355.280337 135.908013 
L 355.400278 138.465064 
L 355.392622 141.024666 
L 355.252265 143.586821 
L 354.974103 146.143872 
L 354.558136 148.693267 
L 353.999259 151.229902 
L 353.289818 153.748673 
L 352.432364 156.247029 
L 352.432364 156.247029 
" style="fill:none;stroke:#fea952;stroke-linecap:square;"/>
   </g>
   <g id="line2d_14">
    <path clip-path="url(#p1ffcc652b1)" d="M 107.327194 295.488 
L 106.888299 289.867806 
L 106.713059 284.326692 
L 106.759461 278.877794 
L 106.982236 273.497449 
L 107.558338 265.580143 
L 108.573648 255.270787 
L 110.03964 240.321609 
L 110.53792 232.953549 
L 110.820612 225.626834 
L 110.859457 218.346064 
L 110.555611 208.306488 
L 110.265385 197.74681 
L 110.304811 192.272368 
L 110.548948 186.81318 
L 110.978505 181.424654 
L 111.88312 173.475402 
L 112.99707 165.673354 
L 114.312251 157.741191 
L 115.415363 152.311223 
L 116.796624 146.805539 
L 118.547105 141.263679 
L 119.585645 138.494829 
L 120.744043 135.734484 
L 122.018268 133.015455 
L 123.411208 130.336394 
L 124.927768 127.700366 
L 126.566694 125.12416 
L 128.317458 122.631787 
L 130.213122 120.183849 
L 132.226994 117.841678 
L 134.375362 115.590437 
L 136.650126 113.454155 
L 138.998692 111.481746 
L 141.416037 109.652973 
L 143.863766 107.976112 
L 148.844411 104.976109 
L 153.843115 102.379157 
L 158.802709 100.066429 
L 168.384203 95.943135 
L 177.40907 92.018743 
L 181.66549 89.995127 
L 185.801419 87.831935 
L 189.952353 85.451616 
L 196.291055 81.553592 
L 207.338915 74.63584 
L 214.280852 70.577974 
L 219.035059 67.996938 
L 223.905816 65.547348 
L 228.90749 63.252138 
L 234.032278 61.14967 
L 239.256331 59.266398 
L 244.598617 57.609743 
L 250.052181 56.201028 
L 255.598856 55.060594 
L 261.286034 54.204622 
L 267.098513 53.685079 
L 273.006836 53.568 
L 275.985554 53.680579 
L 278.994466 53.920306 
L 281.995958 54.298037 
L 284.989666 54.81877 
L 287.926514 55.47643 
L 290.797937 56.258131 
L 293.609082 57.151284 
L 299.028355 59.211115 
L 304.194663 61.556297 
L 309.141306 64.098273 
L 313.904384 66.765707 
L 318.581409 69.583397 
L 323.159072 72.553459 
L 327.642033 75.691328 
L 332.018583 79.004358 
L 336.305669 82.515497 
L 340.497352 86.270776 
L 344.541775 90.284958 
L 348.396037 94.595768 
L 352.009146 99.230518 
L 353.694507 101.663428 
L 355.291843 104.172883 
L 356.794623 106.755467 
L 358.188255 109.392429 
L 359.477289 112.086763 
L 360.663945 114.85005 
L 361.734576 117.667535 
L 362.679026 120.517593 
L 363.508015 123.427847 
L 364.206387 126.376831 
L 364.769989 129.359575 
L 365.196329 132.382187 
L 365.476913 135.42973 
L 365.60802 138.495595 
L 365.585128 141.583021 
L 365.400186 144.690736 
L 365.048668 147.78767 
L 364.526841 150.889591 
L 363.824741 153.997363 
L 362.944795 157.062333 
L 362.087341 159.560689 
L 362.087341 159.560689 
" style="fill:none;stroke:#ffffff;stroke-linecap:square;"/>
   </g>
   <g id="line2d_15">
    <path clip-path="url(#p1ffcc652b1)" d="M 127.657762 293.626893 
L 127.285138 288.993365 
L 127.128624 284.306276 
L 127.163885 279.55249 
L 127.507081 272.325877 
L 128.113908 264.948474 
L 130.776065 236.594673 
L 131.159258 228.637995 
L 131.290605 220.625067 
L 131.144251 212.67845 
L 130.680919 197.705938 
L 130.707843 192.987905 
L 130.912849 188.264824 
L 131.289707 183.486394 
L 132.115312 176.205627 
L 133.548973 166.370186 
L 134.804033 159.276935 
L 135.810409 154.762354 
L 136.999871 150.461056 
L 138.433184 146.341229 
L 140.160234 142.378401 
L 142.191303 138.59835 
L 144.51287 135.061765 
L 147.064863 131.86428 
L 149.84843 129.029793 
L 153.003761 126.461315 
L 156.589688 124.080137 
L 160.53603 121.865009 
L 164.807299 119.765502 
L 171.642437 116.739522 
L 186.035788 110.522133 
L 190.951065 108.176816 
L 195.813301 105.62401 
L 200.492103 102.936162 
L 207.198954 98.810865 
L 219.939624 90.883126 
L 226.267509 87.280031 
L 230.48659 85.063702 
L 234.741162 83.008144 
L 239.019812 81.137009 
L 243.361468 79.45478 
L 247.751662 77.969877 
L 252.194637 76.695341 
L 256.696867 75.640441 
L 261.212376 74.818475 
L 265.708873 74.25726 
L 270.124177 73.987493 
L 274.435349 74.037214 
L 278.576589 74.425223 
L 282.624145 75.191414 
L 286.720638 76.369636 
L 290.87627 77.928466 
L 295.080711 79.824619 
L 299.305765 81.988434 
L 305.58588 85.561833 
L 309.633432 88.086114 
L 313.56579 90.727416 
L 317.378093 93.492292 
L 321.090571 96.407016 
L 324.630964 99.420519 
L 327.984031 102.560235 
L 331.090592 105.797904 
L 333.943885 109.173371 
L 336.50163 112.672546 
L 338.770811 116.343892 
L 340.742895 120.199605 
L 342.374776 124.147803 
L 343.658569 128.202279 
L 344.56575 132.289495 
L 345.08376 136.386295 
L 345.200117 140.466312 
L 344.899538 144.500074 
L 344.173778 148.462441 
L 343.634841 150.435014 
L 342.777386 152.93337 
L 342.777386 152.93337 
" style="fill:none;stroke:#ffffff;stroke-linecap:square;"/>
   </g>
   <g id="patch_3">
    <path d="M 57.6 307.584 
L 57.6 41.472 
" style="fill:none;stroke:#000000;stroke-linecap:square;stroke-linejoin:miter;stroke-width:0.8;"/>
   </g>
   <g id="patch_4">
    <path d="M 414.72 307.584 
L 414.72 41.472 
" style="fill:none;stroke:#000000;stroke-linecap:square;stroke-linejoin:miter;stroke-width:0.8;"/>
   </g>
   <g id="patch_5">
    <path d="M 57.6 307.584 
L 414.72 307.584 
" style="fill:none;stroke:#000000;stroke-linecap:square;stroke-linejoin:miter;stroke-width:0.8;"/>
   </g>
   <g id="patch_6">
    <path d="M 57.6 41.472 
L 414.72 41.472 
" style="fill:none;stroke:#000000;stroke-linecap:square;stroke-linejoin:miter;stroke-width:0.8;"/>
   </g>
  </g>
 </g>
 <defs>
  <clipPath id="p1ffcc652b1">
   <rect height="266.112" width="357.12" x="57.6" y="41.472"/>
  </clipPath>
 </defs>
</svg>
