<?xml version="1.0" encoding="utf-8" standalone="no"?>
<!DOCTYPE svg PUBLIC "-//W3C//DTD SVG 1.1//EN"
  "http://www.w3.org/Graphics/SVG/1.1/DTD/svg11.dtd">
<!-- Created with matplotlib (https://matplotlib.org/) -->
<svg height="345.6pt" version="1.1" viewBox="0 0 460.8 345.6" width="460.8pt" xmlns="http://www.w3.org/2000/svg" xmlns:xlink="http://www.w3.org/1999/xlink">
 <metadata>
  <rdf:RDF xmlns:cc="http://creativecommons.org/ns#" xmlns:dc="http://purl.org/dc/elements/1.1/" xmlns:rdf="http://www.w3.org/1999/02/22-rdf-syntax-ns#">
   <cc:Work>
    <dc:type rdf:resource="http://purl.org/dc/dcmitype/StillImage"/>
    <dc:date>2021-01-25T09:55:23.490628</dc:date>
    <dc:format>image/svg+xml</dc:format>
    <dc:creator>
     <cc:Agent>
      <dc:title>Matplotlib v3.3.3, https://matplotlib.org/</dc:title>
     </cc:Agent>
    </dc:creator>
   </cc:Work>
  </rdf:RDF>
 </metadata>
 <defs>
  <style type="text/css">*{stroke-linecap:butt;stroke-linejoin:round;}</style>
 </defs>
 <g id="figure_1">
  <g id="patch_1">
   <path d="M 0 345.6 
L 460.8 345.6 
L 460.8 0 
L 0 0 
z
" style="fill:#ffffff;"/>
  </g>
  <g id="axes_1">
   <g id="patch_2">
    <path d="M 57.6 307.584 
L 414.72 307.584 
L 414.72 41.472 
L 57.6 41.472 
z
" style="fill:#7d9051;"/>
   </g>
   <g id="matplotlib.axis_1">
    <g id="xtick_1">
     <g id="line2d_1">
      <defs>
       <path d="M 0 0 
L 0 3.5 
" id="m054d3cd624" style="stroke:#000000;stroke-width:0.8;"/>
      </defs>
      <g>
       <use style="stroke:#000000;stroke-width:0.8;" x="97.07721" xlink:href="#m054d3cd624" y="307.584"/>
      </g>
     </g>
     <g id="text_1">
      <!-- 20 -->
      <g transform="translate(90.71471 322.182437)scale(0.1 -0.1)">
       <defs>
        <path d="M 19.1875 8.296875 
L 53.609375 8.296875 
L 53.609375 0 
L 7.328125 0 
L 7.328125 8.296875 
Q 12.9375 14.109375 22.625 23.890625 
Q 32.328125 33.6875 34.8125 36.53125 
Q 39.546875 41.84375 41.421875 45.53125 
Q 43.3125 49.21875 43.3125 52.78125 
Q 43.3125 58.59375 39.234375 62.25 
Q 35.15625 65.921875 28.609375 65.921875 
Q 23.96875 65.921875 18.8125 64.3125 
Q 13.671875 62.703125 7.8125 59.421875 
L 7.8125 69.390625 
Q 13.765625 71.78125 18.9375 73 
Q 24.125 74.21875 28.421875 74.21875 
Q 39.75 74.21875 46.484375 68.546875 
Q 53.21875 62.890625 53.21875 53.421875 
Q 53.21875 48.921875 51.53125 44.890625 
Q 49.859375 40.875 45.40625 35.40625 
Q 44.1875 33.984375 37.640625 27.21875 
Q 31.109375 20.453125 19.1875 8.296875 
z
" id="DejaVuSans-50"/>
        <path d="M 31.78125 66.40625 
Q 24.171875 66.40625 20.328125 58.90625 
Q 16.5 51.421875 16.5 36.375 
Q 16.5 21.390625 20.328125 13.890625 
Q 24.171875 6.390625 31.78125 6.390625 
Q 39.453125 6.390625 43.28125 13.890625 
Q 47.125 21.390625 47.125 36.375 
Q 47.125 51.421875 43.28125 58.90625 
Q 39.453125 66.40625 31.78125 66.40625 
z
M 31.78125 74.21875 
Q 44.046875 74.21875 50.515625 64.515625 
Q 56.984375 54.828125 56.984375 36.375 
Q 56.984375 17.96875 50.515625 8.265625 
Q 44.046875 -1.421875 31.78125 -1.421875 
Q 19.53125 -1.421875 13.0625 8.265625 
Q 6.59375 17.96875 6.59375 36.375 
Q 6.59375 54.828125 13.0625 64.515625 
Q 19.53125 74.21875 31.78125 74.21875 
z
" id="DejaVuSans-48"/>
       </defs>
       <use xlink:href="#DejaVuSans-50"/>
       <use x="63.623047" xlink:href="#DejaVuSans-48"/>
      </g>
     </g>
    </g>
    <g id="xtick_2">
     <g id="line2d_2">
      <g>
       <use style="stroke:#000000;stroke-width:0.8;" x="142.248479" xlink:href="#m054d3cd624" y="307.584"/>
      </g>
     </g>
     <g id="text_2">
      <!-- 40 -->
      <g transform="translate(135.885979 322.182437)scale(0.1 -0.1)">
       <defs>
        <path d="M 37.796875 64.3125 
L 12.890625 25.390625 
L 37.796875 25.390625 
z
M 35.203125 72.90625 
L 47.609375 72.90625 
L 47.609375 25.390625 
L 58.015625 25.390625 
L 58.015625 17.1875 
L 47.609375 17.1875 
L 47.609375 0 
L 37.796875 0 
L 37.796875 17.1875 
L 4.890625 17.1875 
L 4.890625 26.703125 
z
" id="DejaVuSans-52"/>
       </defs>
       <use xlink:href="#DejaVuSans-52"/>
       <use x="63.623047" xlink:href="#DejaVuSans-48"/>
      </g>
     </g>
    </g>
    <g id="xtick_3">
     <g id="line2d_3">
      <g>
       <use style="stroke:#000000;stroke-width:0.8;" x="187.419747" xlink:href="#m054d3cd624" y="307.584"/>
      </g>
     </g>
     <g id="text_3">
      <!-- 60 -->
      <g transform="translate(181.057247 322.182437)scale(0.1 -0.1)">
       <defs>
        <path d="M 33.015625 40.375 
Q 26.375 40.375 22.484375 35.828125 
Q 18.609375 31.296875 18.609375 23.390625 
Q 18.609375 15.53125 22.484375 10.953125 
Q 26.375 6.390625 33.015625 6.390625 
Q 39.65625 6.390625 43.53125 10.953125 
Q 47.40625 15.53125 47.40625 23.390625 
Q 47.40625 31.296875 43.53125 35.828125 
Q 39.65625 40.375 33.015625 40.375 
z
M 52.59375 71.296875 
L 52.59375 62.3125 
Q 48.875 64.0625 45.09375 64.984375 
Q 41.3125 65.921875 37.59375 65.921875 
Q 27.828125 65.921875 22.671875 59.328125 
Q 17.53125 52.734375 16.796875 39.40625 
Q 19.671875 43.65625 24.015625 45.921875 
Q 28.375 48.1875 33.59375 48.1875 
Q 44.578125 48.1875 50.953125 41.515625 
Q 57.328125 34.859375 57.328125 23.390625 
Q 57.328125 12.15625 50.6875 5.359375 
Q 44.046875 -1.421875 33.015625 -1.421875 
Q 20.359375 -1.421875 13.671875 8.265625 
Q 6.984375 17.96875 6.984375 36.375 
Q 6.984375 53.65625 15.1875 63.9375 
Q 23.390625 74.21875 37.203125 74.21875 
Q 40.921875 74.21875 44.703125 73.484375 
Q 48.484375 72.75 52.59375 71.296875 
z
" id="DejaVuSans-54"/>
       </defs>
       <use xlink:href="#DejaVuSans-54"/>
       <use x="63.623047" xlink:href="#DejaVuSans-48"/>
      </g>
     </g>
    </g>
    <g id="xtick_4">
     <g id="line2d_4">
      <g>
       <use style="stroke:#000000;stroke-width:0.8;" x="232.591016" xlink:href="#m054d3cd624" y="307.584"/>
      </g>
     </g>
     <g id="text_4">
      <!-- 80 -->
      <g transform="translate(226.228516 322.182437)scale(0.1 -0.1)">
       <defs>
        <path d="M 31.78125 34.625 
Q 24.75 34.625 20.71875 30.859375 
Q 16.703125 27.09375 16.703125 20.515625 
Q 16.703125 13.921875 20.71875 10.15625 
Q 24.75 6.390625 31.78125 6.390625 
Q 38.8125 6.390625 42.859375 10.171875 
Q 46.921875 13.96875 46.921875 20.515625 
Q 46.921875 27.09375 42.890625 30.859375 
Q 38.875 34.625 31.78125 34.625 
z
M 21.921875 38.8125 
Q 15.578125 40.375 12.03125 44.71875 
Q 8.5 49.078125 8.5 55.328125 
Q 8.5 64.0625 14.71875 69.140625 
Q 20.953125 74.21875 31.78125 74.21875 
Q 42.671875 74.21875 48.875 69.140625 
Q 55.078125 64.0625 55.078125 55.328125 
Q 55.078125 49.078125 51.53125 44.71875 
Q 48 40.375 41.703125 38.8125 
Q 48.828125 37.15625 52.796875 32.3125 
Q 56.78125 27.484375 56.78125 20.515625 
Q 56.78125 9.90625 50.3125 4.234375 
Q 43.84375 -1.421875 31.78125 -1.421875 
Q 19.734375 -1.421875 13.25 4.234375 
Q 6.78125 9.90625 6.78125 20.515625 
Q 6.78125 27.484375 10.78125 32.3125 
Q 14.796875 37.15625 21.921875 38.8125 
z
M 18.3125 54.390625 
Q 18.3125 48.734375 21.84375 45.5625 
Q 25.390625 42.390625 31.78125 42.390625 
Q 38.140625 42.390625 41.71875 45.5625 
Q 45.3125 48.734375 45.3125 54.390625 
Q 45.3125 60.0625 41.71875 63.234375 
Q 38.140625 66.40625 31.78125 66.40625 
Q 25.390625 66.40625 21.84375 63.234375 
Q 18.3125 60.0625 18.3125 54.390625 
z
" id="DejaVuSans-56"/>
       </defs>
       <use xlink:href="#DejaVuSans-56"/>
       <use x="63.623047" xlink:href="#DejaVuSans-48"/>
      </g>
     </g>
    </g>
    <g id="xtick_5">
     <g id="line2d_5">
      <g>
       <use style="stroke:#000000;stroke-width:0.8;" x="277.762284" xlink:href="#m054d3cd624" y="307.584"/>
      </g>
     </g>
     <g id="text_5">
      <!-- 100 -->
      <g transform="translate(268.218534 322.182437)scale(0.1 -0.1)">
       <defs>
        <path d="M 12.40625 8.296875 
L 28.515625 8.296875 
L 28.515625 63.921875 
L 10.984375 60.40625 
L 10.984375 69.390625 
L 28.421875 72.90625 
L 38.28125 72.90625 
L 38.28125 8.296875 
L 54.390625 8.296875 
L 54.390625 0 
L 12.40625 0 
z
" id="DejaVuSans-49"/>
       </defs>
       <use xlink:href="#DejaVuSans-49"/>
       <use x="63.623047" xlink:href="#DejaVuSans-48"/>
       <use x="127.246094" xlink:href="#DejaVuSans-48"/>
      </g>
     </g>
    </g>
    <g id="xtick_6">
     <g id="line2d_6">
      <g>
       <use style="stroke:#000000;stroke-width:0.8;" x="322.933553" xlink:href="#m054d3cd624" y="307.584"/>
      </g>
     </g>
     <g id="text_6">
      <!-- 120 -->
      <g transform="translate(313.389803 322.182437)scale(0.1 -0.1)">
       <use xlink:href="#DejaVuSans-49"/>
       <use x="63.623047" xlink:href="#DejaVuSans-50"/>
       <use x="127.246094" xlink:href="#DejaVuSans-48"/>
      </g>
     </g>
    </g>
    <g id="xtick_7">
     <g id="line2d_7">
      <g>
       <use style="stroke:#000000;stroke-width:0.8;" x="368.104821" xlink:href="#m054d3cd624" y="307.584"/>
      </g>
     </g>
     <g id="text_7">
      <!-- 140 -->
      <g transform="translate(358.561071 322.182437)scale(0.1 -0.1)">
       <use xlink:href="#DejaVuSans-49"/>
       <use x="63.623047" xlink:href="#DejaVuSans-52"/>
       <use x="127.246094" xlink:href="#DejaVuSans-48"/>
      </g>
     </g>
    </g>
    <g id="xtick_8">
     <g id="line2d_8">
      <g>
       <use style="stroke:#000000;stroke-width:0.8;" x="413.27609" xlink:href="#m054d3cd624" y="307.584"/>
      </g>
     </g>
     <g id="text_8">
      <!-- 160 -->
      <g transform="translate(403.73234 322.182437)scale(0.1 -0.1)">
       <use xlink:href="#DejaVuSans-49"/>
       <use x="63.623047" xlink:href="#DejaVuSans-54"/>
       <use x="127.246094" xlink:href="#DejaVuSans-48"/>
      </g>
     </g>
    </g>
   </g>
   <g id="matplotlib.axis_2">
    <g id="ytick_1">
     <g id="line2d_9">
      <defs>
       <path d="M 0 0 
L -3.5 0 
" id="m50a5554e15" style="stroke:#000000;stroke-width:0.8;"/>
      </defs>
      <g>
       <use style="stroke:#000000;stroke-width:0.8;" x="57.6" xlink:href="#m50a5554e15" y="263.106374"/>
      </g>
     </g>
     <g id="text_9">
      <!-- 0 -->
      <g transform="translate(44.2375 266.905592)scale(0.1 -0.1)">
       <use xlink:href="#DejaVuSans-48"/>
      </g>
     </g>
    </g>
    <g id="ytick_2">
     <g id="line2d_10">
      <g>
       <use style="stroke:#000000;stroke-width:0.8;" x="57.6" xlink:href="#m50a5554e15" y="217.935105"/>
      </g>
     </g>
     <g id="text_10">
      <!-- 20 -->
      <g transform="translate(37.875 221.734324)scale(0.1 -0.1)">
       <use xlink:href="#DejaVuSans-50"/>
       <use x="63.623047" xlink:href="#DejaVuSans-48"/>
      </g>
     </g>
    </g>
    <g id="ytick_3">
     <g id="line2d_11">
      <g>
       <use style="stroke:#000000;stroke-width:0.8;" x="57.6" xlink:href="#m50a5554e15" y="172.763837"/>
      </g>
     </g>
     <g id="text_11">
      <!-- 40 -->
      <g transform="translate(37.875 176.563055)scale(0.1 -0.1)">
       <use xlink:href="#DejaVuSans-52"/>
       <use x="63.623047" xlink:href="#DejaVuSans-48"/>
      </g>
     </g>
    </g>
    <g id="ytick_4">
     <g id="line2d_12">
      <g>
       <use style="stroke:#000000;stroke-width:0.8;" x="57.6" xlink:href="#m50a5554e15" y="127.592568"/>
      </g>
     </g>
     <g id="text_12">
      <!-- 60 -->
      <g transform="translate(37.875 131.391787)scale(0.1 -0.1)">
       <use xlink:href="#DejaVuSans-54"/>
       <use x="63.623047" xlink:href="#DejaVuSans-48"/>
      </g>
     </g>
    </g>
    <g id="ytick_5">
     <g id="line2d_13">
      <g>
       <use style="stroke:#000000;stroke-width:0.8;" x="57.6" xlink:href="#m50a5554e15" y="82.421299"/>
      </g>
     </g>
     <g id="text_13">
      <!-- 80 -->
      <g transform="translate(37.875 86.220518)scale(0.1 -0.1)">
       <use xlink:href="#DejaVuSans-56"/>
       <use x="63.623047" xlink:href="#DejaVuSans-48"/>
      </g>
     </g>
    </g>
   </g>
   <g id="line2d_14">
    <path clip-path="url(#p9adfb17879)" d="M 387.907905 166.65894 
L 388.479322 164.422962 
L 388.917483 162.168916 
L 389.224648 159.901318 
L 389.403074 157.624686 
L 389.45728 155.343537 
L 389.387264 153.064646 
L 389.195287 150.792532 
L 388.885863 148.53171 
L 388.463512 146.291215 
L 387.925974 144.073305 
L 387.280025 141.882499 
L 386.525665 139.725571 
L 384.707521 135.535936 
L 382.489612 131.545054 
L 381.240626 129.636568 
L 379.899039 127.795839 
L 378.469369 126.025125 
L 376.951614 124.331202 
L 375.352551 122.718588 
L 371.924052 119.741802 
L 368.222267 117.099282 
L 364.28559 114.800065 
L 360.156937 112.844149 
L 355.872442 111.240569 
L 351.475019 109.9961 
L 346.996287 109.124295 
L 342.476902 108.634187 
L 337.950741 108.541585 
L 333.453941 108.855526 
L 328.995537 109.517285 
L 324.564235 110.411676 
L 313.506309 112.8577 
L 309.05468 113.62787 
L 302.339971 114.522261 
L 277.633546 117.356759 
L 270.96175 118.519919 
L 266.553034 119.470774 
L 259.998683 121.162438 
L 253.505313 123.116095 
L 244.915996 125.993505 
L 238.537813 128.32886 
L 232.268041 130.910398 
L 228.177783 132.814367 
L 224.177867 134.901279 
L 220.277328 137.175653 
L 216.473907 139.621677 
L 212.769863 142.2258 
L 209.162937 144.972214 
L 205.650871 147.845106 
L 202.247216 150.84222 
L 198.97004 153.968072 
L 195.84193 157.233954 
L 192.883212 160.648902 
L 190.114213 164.217433 
L 187.541709 167.937287 
L 185.161184 171.788137 
L 182.959084 175.749657 
L 180.933153 179.80152 
L 179.06758 183.925657 
L 175.648114 192.291376 
L 173.084645 198.558889 
L 171.248433 202.685285 
L 169.238311 206.739406 
L 167.036212 210.694151 
L 164.626325 214.53145 
L 161.999616 218.224201 
L 159.142533 221.754336 
L 156.048301 225.090234 
L 152.71692 228.198017 
L 149.157424 231.032514 
L 145.378847 233.550813 
L 141.385707 235.707741 
L 137.191555 237.473937 
L 132.837045 238.83811 
L 128.376382 239.800258 
L 123.852479 240.360381 
L 119.317284 240.520739 
L 114.81145 240.294883 
L 110.33046 239.759603 
L 105.872056 239.000726 
L 88.063283 235.56771 
L 83.573259 235.057274 
L 79.053874 234.867555 
L 76.777242 234.921761 
L 74.491576 235.088894 
L 74.491576 235.088894 
" style="fill:none;stroke:#fea952;stroke-linecap:square;"/>
   </g>
   <g id="line2d_15">
    <path clip-path="url(#p9adfb17879)" d="M 379.154953 164.422074 
L 379.96499 160.956227 
L 380.37137 157.410071 
L 380.385087 153.825268 
L 380.007972 150.205264 
L 379.260531 146.628271 
L 378.153687 143.120823 
L 376.707142 139.732563 
L 374.930265 136.492177 
L 372.86991 133.471143 
L 370.536535 130.692373 
L 367.916513 128.151152 
L 365.020166 125.848216 
L 361.896279 123.806228 
L 358.557307 122.024793 
L 355.043981 120.52313 
L 351.408981 119.314587 
L 347.704681 118.414992 
L 343.958511 117.831073 
L 340.220588 117.573576 
L 336.530136 117.643466 
L 332.695171 118.062178 
L 328.653319 118.779288 
L 319.871314 120.742524 
L 315.131941 121.744491 
L 310.365207 122.566565 
L 303.342595 123.500707 
L 279.061577 126.277435 
L 272.789149 127.367424 
L 266.62126 128.74821 
L 260.434933 130.438072 
L 254.191288 132.387774 
L 245.880618 135.238498 
L 239.862633 137.515635 
L 234.111267 139.990729 
L 230.442608 141.79057 
L 226.857946 143.764746 
L 223.331852 145.923162 
L 219.878668 148.243826 
L 216.490496 150.722154 
L 211.559116 154.679606 
L 208.415622 157.442864 
L 205.416558 160.29738 
L 202.593717 163.236546 
L 199.941304 166.288146 
L 197.477863 169.451399 
L 195.169125 172.778802 
L 193.007883 176.26553 
L 190.997734 179.872503 
L 189.129021 183.602242 
L 187.38808 187.445175 
L 184.033713 195.652844 
L 181.371986 202.155794 
L 179.389356 206.602314 
L 177.186619 211.033838 
L 174.751867 215.393768 
L 172.066195 219.656494 
L 169.114325 223.791844 
L 165.871007 227.783049 
L 162.332704 231.580536 
L 158.490802 235.1464 
L 154.333403 238.437039 
L 152.138496 239.960473 
L 149.86206 241.394189 
L 147.508406 242.727507 
L 145.088944 243.948115 
L 142.617366 245.047646 
L 140.088643 246.031076 
L 137.533256 246.886265 
L 134.937619 247.624766 
L 132.324962 248.240184 
L 129.681546 248.739737 
L 127.031842 249.117905 
L 124.372993 249.379628 
L 121.699707 249.524873 
L 119.046107 249.550922 
L 113.870411 249.279992 
L 108.903838 248.680505 
L 104.15227 247.869778 
L 86.908303 244.52783 
L 83.013652 244.07418 
L 79.268914 243.899249 
L 77.43609 243.931958 
L 75.150424 244.099092 
L 75.150424 244.099092 
" style="fill:none;stroke:#ffffff;stroke-linecap:square;"/>
   </g>
   <g id="line2d_16">
    <path clip-path="url(#p9adfb17879)" d="M 396.660858 168.895805 
L 397.347577 166.146851 
L 397.869976 163.381604 
L 398.231283 160.607195 
L 398.434779 157.839301 
L 398.487273 155.066104 
L 398.389442 152.304025 
L 398.146098 149.567495 
L 397.763755 146.858155 
L 397.243576 144.163256 
L 396.591416 141.51834 
L 395.807776 138.900018 
L 394.897642 136.330319 
L 393.865697 133.813794 
L 392.7079 131.339308 
L 391.434307 128.934059 
L 390.048958 126.597931 
L 388.541526 124.315421 
L 386.928169 122.120534 
L 385.197843 119.996412 
L 383.366693 117.970031 
L 381.437249 116.0407 
L 379.432365 114.22793 
L 377.335984 112.507942 
L 375.187134 110.911559 
L 372.949101 109.400271 
L 370.663525 108.007293 
L 368.332978 106.72316 
L 365.930391 105.529078 
L 361.019276 103.471245 
L 355.963324 101.829481 
L 350.782435 100.610543 
L 348.162087 100.165576 
L 345.521454 99.83029 
L 342.854875 99.607843 
L 340.202538 99.505078 
L 337.525751 99.517334 
L 334.863254 99.65201 
L 329.745272 100.2361 
L 324.901936 101.104501 
L 307.744154 104.689176 
L 301.337348 105.543816 
L 276.205515 108.436082 
L 269.134351 109.672413 
L 264.427928 110.690018 
L 257.496507 112.481605 
L 250.729666 114.518798 
L 241.889434 117.481299 
L 235.227721 119.922848 
L 230.763015 121.720654 
L 226.31423 123.691123 
L 221.888197 125.875388 
L 217.572404 128.264756 
L 213.396797 130.831255 
L 209.342516 133.565255 
L 205.41746 136.44424 
L 201.617977 139.448906 
L 197.902215 142.603588 
L 194.28973 145.916079 
L 190.783294 149.41517 
L 187.436853 153.095453 
L 184.258403 156.976407 
L 181.308174 161.017936 
L 178.58842 165.189349 
L 176.093832 169.454512 
L 173.803142 173.809454 
L 171.714048 178.211114 
L 168.94601 184.727974 
L 163.965901 196.881386 
L 162.222262 200.613937 
L 160.326523 204.234351 
L 158.273077 207.720749 
L 156.059084 211.050202 
L 153.673044 214.213024 
L 151.107941 217.191377 
L 148.372197 219.956185 
L 145.487333 222.469489 
L 142.454239 224.706421 
L 139.305837 226.628165 
L 136.002809 228.233408 
L 132.526964 229.525159 
L 128.908792 230.49756 
L 125.203795 231.14211 
L 121.465539 231.457883 
L 117.694354 231.440958 
L 113.77039 231.106017 
L 109.703986 230.512207 
L 103.267519 229.268753 
L 94.086665 227.407398 
L 89.218264 226.607589 
L 84.132867 226.040369 
L 78.838833 225.835861 
L 73.832727 226.078697 
L 73.832727 226.078697 
" style="fill:none;stroke:#ffffff;stroke-linecap:square;"/>
   </g>
   <g id="patch_3">
    <path d="M 57.6 307.584 
L 57.6 41.472 
" style="fill:none;stroke:#000000;stroke-linecap:square;stroke-linejoin:miter;stroke-width:0.8;"/>
   </g>
   <g id="patch_4">
    <path d="M 414.72 307.584 
L 414.72 41.472 
" style="fill:none;stroke:#000000;stroke-linecap:square;stroke-linejoin:miter;stroke-width:0.8;"/>
   </g>
   <g id="patch_5">
    <path d="M 57.6 307.584 
L 414.72 307.584 
" style="fill:none;stroke:#000000;stroke-linecap:square;stroke-linejoin:miter;stroke-width:0.8;"/>
   </g>
   <g id="patch_6">
    <path d="M 57.6 41.472 
L 414.72 41.472 
" style="fill:none;stroke:#000000;stroke-linecap:square;stroke-linejoin:miter;stroke-width:0.8;"/>
   </g>
  </g>
 </g>
 <defs>
  <clipPath id="p9adfb17879">
   <rect height="266.112" width="357.12" x="57.6" y="41.472"/>
  </clipPath>
 </defs>
</svg>
