<?xml version="1.0" encoding="utf-8" standalone="no"?>
<!DOCTYPE svg PUBLIC "-//W3C//DTD SVG 1.1//EN"
  "http://www.w3.org/Graphics/SVG/1.1/DTD/svg11.dtd">
<!-- Created with matplotlib (https://matplotlib.org/) -->
<svg height="345.6pt" version="1.1" viewBox="0 0 460.8 345.6" width="460.8pt" xmlns="http://www.w3.org/2000/svg" xmlns:xlink="http://www.w3.org/1999/xlink">
 <metadata>
  <rdf:RDF xmlns:cc="http://creativecommons.org/ns#" xmlns:dc="http://purl.org/dc/elements/1.1/" xmlns:rdf="http://www.w3.org/1999/02/22-rdf-syntax-ns#">
   <cc:Work>
    <dc:type rdf:resource="http://purl.org/dc/dcmitype/StillImage"/>
    <dc:date>2021-01-22T11:36:10.282174</dc:date>
    <dc:format>image/svg+xml</dc:format>
    <dc:creator>
     <cc:Agent>
      <dc:title>Matplotlib v3.3.3, https://matplotlib.org/</dc:title>
     </cc:Agent>
    </dc:creator>
   </cc:Work>
  </rdf:RDF>
 </metadata>
 <defs>
  <style type="text/css">*{stroke-linecap:butt;stroke-linejoin:round;}</style>
 </defs>
 <g id="figure_1">
  <g id="patch_1">
   <path d="M 0 345.6 
L 460.8 345.6 
L 460.8 0 
L 0 0 
z
" style="fill:#ffffff;"/>
  </g>
  <g id="axes_1">
   <g id="patch_2">
    <path d="M 57.6 307.584 
L 414.72 307.584 
L 414.72 41.472 
L 57.6 41.472 
z
" style="fill:#7d9051;"/>
   </g>
   <g id="matplotlib.axis_1">
    <g id="xtick_1">
     <g id="line2d_1">
      <defs>
       <path d="M 0 0 
L 0 3.5 
" id="ma733cbaab9" style="stroke:#000000;stroke-width:0.8;"/>
      </defs>
      <g>
       <use style="stroke:#000000;stroke-width:0.8;" x="104.485383" xlink:href="#ma733cbaab9" y="307.584"/>
      </g>
     </g>
     <g id="text_1">
      <!-- 20 -->
      <g transform="translate(98.122883 322.182437)scale(0.1 -0.1)">
       <defs>
        <path d="M 19.1875 8.296875 
L 53.609375 8.296875 
L 53.609375 0 
L 7.328125 0 
L 7.328125 8.296875 
Q 12.9375 14.109375 22.625 23.890625 
Q 32.328125 33.6875 34.8125 36.53125 
Q 39.546875 41.84375 41.421875 45.53125 
Q 43.3125 49.21875 43.3125 52.78125 
Q 43.3125 58.59375 39.234375 62.25 
Q 35.15625 65.921875 28.609375 65.921875 
Q 23.96875 65.921875 18.8125 64.3125 
Q 13.671875 62.703125 7.8125 59.421875 
L 7.8125 69.390625 
Q 13.765625 71.78125 18.9375 73 
Q 24.125 74.21875 28.421875 74.21875 
Q 39.75 74.21875 46.484375 68.546875 
Q 53.21875 62.890625 53.21875 53.421875 
Q 53.21875 48.921875 51.53125 44.890625 
Q 49.859375 40.875 45.40625 35.40625 
Q 44.1875 33.984375 37.640625 27.21875 
Q 31.109375 20.453125 19.1875 8.296875 
z
" id="DejaVuSans-50"/>
        <path d="M 31.78125 66.40625 
Q 24.171875 66.40625 20.328125 58.90625 
Q 16.5 51.421875 16.5 36.375 
Q 16.5 21.390625 20.328125 13.890625 
Q 24.171875 6.390625 31.78125 6.390625 
Q 39.453125 6.390625 43.28125 13.890625 
Q 47.125 21.390625 47.125 36.375 
Q 47.125 51.421875 43.28125 58.90625 
Q 39.453125 66.40625 31.78125 66.40625 
z
M 31.78125 74.21875 
Q 44.046875 74.21875 50.515625 64.515625 
Q 56.984375 54.828125 56.984375 36.375 
Q 56.984375 17.96875 50.515625 8.265625 
Q 44.046875 -1.421875 31.78125 -1.421875 
Q 19.53125 -1.421875 13.0625 8.265625 
Q 6.59375 17.96875 6.59375 36.375 
Q 6.59375 54.828125 13.0625 64.515625 
Q 19.53125 74.21875 31.78125 74.21875 
z
" id="DejaVuSans-48"/>
       </defs>
       <use xlink:href="#DejaVuSans-50"/>
       <use x="63.623047" xlink:href="#DejaVuSans-48"/>
      </g>
     </g>
    </g>
    <g id="xtick_2">
     <g id="line2d_2">
      <g>
       <use style="stroke:#000000;stroke-width:0.8;" x="156.416924" xlink:href="#ma733cbaab9" y="307.584"/>
      </g>
     </g>
     <g id="text_2">
      <!-- 40 -->
      <g transform="translate(150.054424 322.182437)scale(0.1 -0.1)">
       <defs>
        <path d="M 37.796875 64.3125 
L 12.890625 25.390625 
L 37.796875 25.390625 
z
M 35.203125 72.90625 
L 47.609375 72.90625 
L 47.609375 25.390625 
L 58.015625 25.390625 
L 58.015625 17.1875 
L 47.609375 17.1875 
L 47.609375 0 
L 37.796875 0 
L 37.796875 17.1875 
L 4.890625 17.1875 
L 4.890625 26.703125 
z
" id="DejaVuSans-52"/>
       </defs>
       <use xlink:href="#DejaVuSans-52"/>
       <use x="63.623047" xlink:href="#DejaVuSans-48"/>
      </g>
     </g>
    </g>
    <g id="xtick_3">
     <g id="line2d_3">
      <g>
       <use style="stroke:#000000;stroke-width:0.8;" x="208.348465" xlink:href="#ma733cbaab9" y="307.584"/>
      </g>
     </g>
     <g id="text_3">
      <!-- 60 -->
      <g transform="translate(201.985965 322.182437)scale(0.1 -0.1)">
       <defs>
        <path d="M 33.015625 40.375 
Q 26.375 40.375 22.484375 35.828125 
Q 18.609375 31.296875 18.609375 23.390625 
Q 18.609375 15.53125 22.484375 10.953125 
Q 26.375 6.390625 33.015625 6.390625 
Q 39.65625 6.390625 43.53125 10.953125 
Q 47.40625 15.53125 47.40625 23.390625 
Q 47.40625 31.296875 43.53125 35.828125 
Q 39.65625 40.375 33.015625 40.375 
z
M 52.59375 71.296875 
L 52.59375 62.3125 
Q 48.875 64.0625 45.09375 64.984375 
Q 41.3125 65.921875 37.59375 65.921875 
Q 27.828125 65.921875 22.671875 59.328125 
Q 17.53125 52.734375 16.796875 39.40625 
Q 19.671875 43.65625 24.015625 45.921875 
Q 28.375 48.1875 33.59375 48.1875 
Q 44.578125 48.1875 50.953125 41.515625 
Q 57.328125 34.859375 57.328125 23.390625 
Q 57.328125 12.15625 50.6875 5.359375 
Q 44.046875 -1.421875 33.015625 -1.421875 
Q 20.359375 -1.421875 13.671875 8.265625 
Q 6.984375 17.96875 6.984375 36.375 
Q 6.984375 53.65625 15.1875 63.9375 
Q 23.390625 74.21875 37.203125 74.21875 
Q 40.921875 74.21875 44.703125 73.484375 
Q 48.484375 72.75 52.59375 71.296875 
z
" id="DejaVuSans-54"/>
       </defs>
       <use xlink:href="#DejaVuSans-54"/>
       <use x="63.623047" xlink:href="#DejaVuSans-48"/>
      </g>
     </g>
    </g>
    <g id="xtick_4">
     <g id="line2d_4">
      <g>
       <use style="stroke:#000000;stroke-width:0.8;" x="260.280006" xlink:href="#ma733cbaab9" y="307.584"/>
      </g>
     </g>
     <g id="text_4">
      <!-- 80 -->
      <g transform="translate(253.917506 322.182437)scale(0.1 -0.1)">
       <defs>
        <path d="M 31.78125 34.625 
Q 24.75 34.625 20.71875 30.859375 
Q 16.703125 27.09375 16.703125 20.515625 
Q 16.703125 13.921875 20.71875 10.15625 
Q 24.75 6.390625 31.78125 6.390625 
Q 38.8125 6.390625 42.859375 10.171875 
Q 46.921875 13.96875 46.921875 20.515625 
Q 46.921875 27.09375 42.890625 30.859375 
Q 38.875 34.625 31.78125 34.625 
z
M 21.921875 38.8125 
Q 15.578125 40.375 12.03125 44.71875 
Q 8.5 49.078125 8.5 55.328125 
Q 8.5 64.0625 14.71875 69.140625 
Q 20.953125 74.21875 31.78125 74.21875 
Q 42.671875 74.21875 48.875 69.140625 
Q 55.078125 64.0625 55.078125 55.328125 
Q 55.078125 49.078125 51.53125 44.71875 
Q 48 40.375 41.703125 38.8125 
Q 48.828125 37.15625 52.796875 32.3125 
Q 56.78125 27.484375 56.78125 20.515625 
Q 56.78125 9.90625 50.3125 4.234375 
Q 43.84375 -1.421875 31.78125 -1.421875 
Q 19.734375 -1.421875 13.25 4.234375 
Q 6.78125 9.90625 6.78125 20.515625 
Q 6.78125 27.484375 10.78125 32.3125 
Q 14.796875 37.15625 21.921875 38.8125 
z
M 18.3125 54.390625 
Q 18.3125 48.734375 21.84375 45.5625 
Q 25.390625 42.390625 31.78125 42.390625 
Q 38.140625 42.390625 41.71875 45.5625 
Q 45.3125 48.734375 45.3125 54.390625 
Q 45.3125 60.0625 41.71875 63.234375 
Q 38.140625 66.40625 31.78125 66.40625 
Q 25.390625 66.40625 21.84375 63.234375 
Q 18.3125 60.0625 18.3125 54.390625 
z
" id="DejaVuSans-56"/>
       </defs>
       <use xlink:href="#DejaVuSans-56"/>
       <use x="63.623047" xlink:href="#DejaVuSans-48"/>
      </g>
     </g>
    </g>
    <g id="xtick_5">
     <g id="line2d_5">
      <g>
       <use style="stroke:#000000;stroke-width:0.8;" x="312.211547" xlink:href="#ma733cbaab9" y="307.584"/>
      </g>
     </g>
     <g id="text_5">
      <!-- 100 -->
      <g transform="translate(302.667797 322.182437)scale(0.1 -0.1)">
       <defs>
        <path d="M 12.40625 8.296875 
L 28.515625 8.296875 
L 28.515625 63.921875 
L 10.984375 60.40625 
L 10.984375 69.390625 
L 28.421875 72.90625 
L 38.28125 72.90625 
L 38.28125 8.296875 
L 54.390625 8.296875 
L 54.390625 0 
L 12.40625 0 
z
" id="DejaVuSans-49"/>
       </defs>
       <use xlink:href="#DejaVuSans-49"/>
       <use x="63.623047" xlink:href="#DejaVuSans-48"/>
       <use x="127.246094" xlink:href="#DejaVuSans-48"/>
      </g>
     </g>
    </g>
    <g id="xtick_6">
     <g id="line2d_6">
      <g>
       <use style="stroke:#000000;stroke-width:0.8;" x="364.143088" xlink:href="#ma733cbaab9" y="307.584"/>
      </g>
     </g>
     <g id="text_6">
      <!-- 120 -->
      <g transform="translate(354.599338 322.182437)scale(0.1 -0.1)">
       <use xlink:href="#DejaVuSans-49"/>
       <use x="63.623047" xlink:href="#DejaVuSans-50"/>
       <use x="127.246094" xlink:href="#DejaVuSans-48"/>
      </g>
     </g>
    </g>
   </g>
   <g id="matplotlib.axis_2">
    <g id="ytick_1">
     <g id="line2d_7">
      <defs>
       <path d="M 0 0 
L -3.5 0 
" id="m79e61be9a3" style="stroke:#000000;stroke-width:0.8;"/>
      </defs>
      <g>
       <use style="stroke:#000000;stroke-width:0.8;" x="57.6" xlink:href="#m79e61be9a3" y="274.489131"/>
      </g>
     </g>
     <g id="text_7">
      <!-- 0 -->
      <g transform="translate(44.2375 278.28835)scale(0.1 -0.1)">
       <use xlink:href="#DejaVuSans-48"/>
      </g>
     </g>
    </g>
    <g id="ytick_2">
     <g id="line2d_8">
      <g>
       <use style="stroke:#000000;stroke-width:0.8;" x="57.6" xlink:href="#m79e61be9a3" y="222.55759"/>
      </g>
     </g>
     <g id="text_8">
      <!-- 20 -->
      <g transform="translate(37.875 226.356809)scale(0.1 -0.1)">
       <use xlink:href="#DejaVuSans-50"/>
       <use x="63.623047" xlink:href="#DejaVuSans-48"/>
      </g>
     </g>
    </g>
    <g id="ytick_3">
     <g id="line2d_9">
      <g>
       <use style="stroke:#000000;stroke-width:0.8;" x="57.6" xlink:href="#m79e61be9a3" y="170.626049"/>
      </g>
     </g>
     <g id="text_9">
      <!-- 40 -->
      <g transform="translate(37.875 174.425268)scale(0.1 -0.1)">
       <use xlink:href="#DejaVuSans-52"/>
       <use x="63.623047" xlink:href="#DejaVuSans-48"/>
      </g>
     </g>
    </g>
    <g id="ytick_4">
     <g id="line2d_10">
      <g>
       <use style="stroke:#000000;stroke-width:0.8;" x="57.6" xlink:href="#m79e61be9a3" y="118.694508"/>
      </g>
     </g>
     <g id="text_10">
      <!-- 60 -->
      <g transform="translate(37.875 122.493727)scale(0.1 -0.1)">
       <use xlink:href="#DejaVuSans-54"/>
       <use x="63.623047" xlink:href="#DejaVuSans-48"/>
      </g>
     </g>
    </g>
    <g id="ytick_5">
     <g id="line2d_11">
      <g>
       <use style="stroke:#000000;stroke-width:0.8;" x="57.6" xlink:href="#m79e61be9a3" y="66.762967"/>
      </g>
     </g>
     <g id="text_11">
      <!-- 80 -->
      <g transform="translate(37.875 70.562186)scale(0.1 -0.1)">
       <use xlink:href="#DejaVuSans-56"/>
       <use x="63.623047" xlink:href="#DejaVuSans-48"/>
      </g>
     </g>
    </g>
   </g>
   <g id="line2d_12">
    <path clip-path="url(#p1c41f845e6)" d="M 387.504492 208.629551 
L 387.896575 203.394852 
L 388.083529 198.162749 
L 388.070546 192.941033 
L 387.878399 187.724509 
L 387.512282 182.518372 
L 386.670991 174.733834 
L 385.518111 166.980455 
L 384.09259 159.268621 
L 382.428184 151.603526 
L 381.148071 146.537604 
L 379.681005 141.52621 
L 377.977651 136.579731 
L 375.996463 131.716342 
L 373.698492 126.964606 
L 371.05258 122.386841 
L 369.5959 120.190137 
L 368.043147 118.06354 
L 366.394321 116.020034 
L 364.644228 114.067408 
L 362.792868 112.216049 
L 360.835049 110.471149 
L 358.773367 108.845692 
L 356.615612 107.33708 
L 354.372169 105.947912 
L 352.050829 104.680782 
L 349.664575 103.533095 
L 347.221196 102.510044 
L 344.728482 101.611628 
L 342.196819 100.840445 
L 339.639191 100.193897 
L 337.06079 99.677178 
L 334.472002 99.282498 
L 329.265865 98.825501 
L 324.033763 98.726831 
L 318.79387 98.885222 
L 310.947014 99.404537 
L 300.547723 100.30555 
L 292.773572 101.196176 
L 284.99942 102.356846 
L 279.819249 103.330562 
L 274.691009 104.532777 
L 269.661439 106.028406 
L 264.782471 107.879765 
L 262.416989 108.959941 
L 260.106036 110.15177 
L 257.852207 111.457848 
L 253.526309 114.381594 
L 249.423718 117.663667 
L 245.547028 121.239154 
L 241.883258 125.037946 
L 238.42981 129.002919 
L 235.16851 133.100318 
L 232.08118 137.317159 
L 229.152241 141.635267 
L 225.008104 148.277311 
L 221.126221 155.080343 
L 217.501399 162.028783 
L 214.128446 169.112245 
L 209.95315 178.706597 
L 206.803502 185.883536 
L 204.560059 190.59113 
L 202.119277 195.194861 
L 199.449996 199.67915 
L 196.585971 204.051786 
L 193.566152 208.328348 
L 188.832592 214.591292 
L 183.940641 220.703634 
L 178.838367 226.629023 
L 175.273267 230.448588 
L 171.536792 234.146114 
L 167.602978 237.693038 
L 163.458841 241.001077 
L 161.303682 242.533058 
L 159.091399 243.961175 
L 156.819394 245.275043 
L 154.487668 246.461679 
L 152.09622 247.505503 
L 149.639858 248.390935 
L 147.123775 249.110187 
L 144.550567 249.660662 
L 141.938411 250.044955 
L 139.297692 250.268261 
L 136.638797 250.333175 
L 133.977305 250.242295 
L 131.323604 250.000813 
L 128.690675 249.613923 
L 126.091501 249.084222 
L 123.541662 248.414305 
L 121.043755 247.609366 
L 118.605569 246.677195 
L 116.216718 245.635967 
L 111.568846 243.254906 
L 107.066381 240.567449 
L 102.665183 237.661879 
L 87.498576 227.156128 
L 83.066219 224.447898 
L 78.519613 222.043468 
L 78.519613 222.043468 
" style="fill:none;stroke:#fea952;stroke-linecap:square;"/>
   </g>
   <g id="line2d_13">
    <path clip-path="url(#p1c41f845e6)" d="M 377.15578 207.746625 
L 377.521065 202.921366 
L 377.697472 198.09048 
L 377.688266 193.23029 
L 377.512519 188.375606 
L 377.171468 183.489438 
L 376.378609 176.127487 
L 375.28449 168.754833 
L 373.919647 161.363051 
L 372.336979 154.061772 
L 371.149009 149.347258 
L 369.819467 144.785882 
L 368.301234 140.353636 
L 366.567913 136.0727 
L 364.603877 131.980918 
L 362.396508 128.12686 
L 359.959929 124.585578 
L 357.299999 121.411637 
L 355.882374 119.969788 
L 354.404563 118.627389 
L 352.822024 117.357854 
L 351.147675 116.167543 
L 349.395805 115.064446 
L 345.65322 113.113514 
L 341.701955 111.547197 
L 337.598324 110.37772 
L 333.368067 109.609973 
L 328.915385 109.205894 
L 324.2398 109.111095 
L 319.380254 109.254964 
L 311.751495 109.759643 
L 301.634473 110.634847 
L 294.17736 111.48718 
L 286.821339 112.582109 
L 282.060434 113.472183 
L 277.484611 114.536336 
L 273.149502 115.811494 
L 269.096758 117.327639 
L 265.313625 119.138227 
L 261.65557 121.354544 
L 258.08248 123.973583 
L 254.621335 126.93983 
L 251.263483 130.219206 
L 248.041769 133.733213 
L 244.970915 137.416897 
L 242.040282 141.25609 
L 239.242055 145.223429 
L 236.552494 149.325746 
L 232.703651 155.682707 
L 229.096016 162.1902 
L 225.725335 168.842712 
L 222.581468 175.650715 
L 215.039426 192.795949 
L 212.484347 197.884407 
L 209.674582 202.86472 
L 206.672453 207.65401 
L 203.533484 212.251643 
L 198.649933 218.873383 
L 193.635854 225.250921 
L 188.340514 231.568343 
L 184.602784 235.709361 
L 180.657806 239.768955 
L 176.448088 243.749355 
L 171.896539 247.612442 
L 169.476449 249.466525 
L 166.936712 251.259132 
L 164.29086 252.952338 
L 161.530146 254.53162 
L 158.642561 255.980726 
L 155.618288 257.2764 
L 152.494558 258.377231 
L 149.296509 259.266694 
L 146.062301 259.936364 
L 142.813579 260.394326 
L 139.551188 260.651475 
L 136.284349 260.713434 
L 133.036061 260.585866 
L 129.813625 260.276774 
L 126.616617 259.791039 
L 123.452284 259.129615 
L 120.356039 258.300012 
L 117.33468 257.310817 
L 114.455575 256.198379 
L 111.65884 254.968766 
L 106.368176 252.24537 
L 101.418916 249.284188 
L 96.74948 246.19885 
L 79.994837 234.702271 
L 76.122908 232.470225 
L 73.832727 231.312152 
L 73.832727 231.312152 
" style="fill:none;stroke:#ffffff;stroke-linecap:square;"/>
   </g>
   <g id="line2d_14">
    <path clip-path="url(#p1c41f845e6)" d="M 397.853204 209.512477 
L 398.272085 203.868337 
L 398.469586 198.235018 
L 398.452825 192.651775 
L 398.244279 187.073412 
L 397.853096 181.547307 
L 397.297336 176.064931 
L 396.187876 167.910859 
L 394.788018 159.832837 
L 393.136378 151.833719 
L 391.857865 146.436121 
L 390.377487 140.997968 
L 388.638207 135.540801 
L 386.583917 130.074714 
L 384.159611 124.636611 
L 382.793106 121.948294 
L 381.307296 119.271777 
L 379.708652 116.646822 
L 377.984152 114.065381 
L 376.126366 111.541502 
L 374.128706 109.087886 
L 371.988457 106.723179 
L 369.703362 104.46231 
L 367.265535 102.314909 
L 364.72471 100.333529 
L 362.083548 98.506618 
L 359.348532 96.831377 
L 356.55259 95.320785 
L 353.67593 93.952676 
L 350.742844 92.738995 
L 347.755009 91.676059 
L 344.742319 90.770895 
L 341.680058 90.010073 
L 338.626171 89.409511 
L 335.575938 88.955024 
L 332.584949 88.642798 
L 326.692328 88.350991 
L 320.995138 88.401001 
L 315.477446 88.670472 
L 304.817539 89.479767 
L 296.777593 90.258987 
L 288.661192 91.275359 
L 283.177501 92.131582 
L 277.578063 93.188941 
L 271.897407 94.529218 
L 266.173376 96.245317 
L 263.319323 97.271909 
L 260.468184 98.431891 
L 257.656289 99.728953 
L 254.898446 101.165313 
L 252.217978 102.732548 
L 249.665821 104.391422 
L 247.188206 106.153359 
L 242.505663 109.916674 
L 238.17222 113.925632 
L 234.131179 118.12559 
L 230.372945 122.448355 
L 226.843398 126.890011 
L 223.534204 131.415922 
L 220.419197 136.013047 
L 217.470428 140.670178 
L 213.303219 147.76623 
L 209.411184 155.010917 
L 205.792649 162.386524 
L 202.474187 169.79268 
L 197.388963 181.496982 
L 195.324725 185.838868 
L 193.134707 189.984017 
L 190.70622 194.073636 
L 188.058326 198.122649 
L 183.726551 204.169464 
L 179.102137 210.163215 
L 174.391347 215.930859 
L 171.18077 219.612143 
L 167.893151 223.140423 
L 164.478421 226.526744 
L 160.982877 229.689935 
L 157.441234 232.53563 
L 153.891938 234.970012 
L 150.332774 236.942632 
L 148.574152 237.734605 
L 146.785159 238.40464 
L 144.951041 238.953681 
L 143.038834 239.384959 
L 141.063243 239.695584 
L 139.044195 239.885046 
L 136.993245 239.952917 
L 134.91855 239.898724 
L 132.833582 239.724853 
L 130.764732 239.436808 
L 128.730718 239.038828 
L 126.727285 238.528598 
L 124.75283 237.907914 
L 120.774597 236.303168 
L 116.769515 234.264442 
L 112.713846 231.85071 
L 108.580885 229.124909 
L 93.028419 218.3643 
L 88.088034 215.356321 
L 83.206498 212.774784 
L 83.206498 212.774784 
" style="fill:none;stroke:#ffffff;stroke-linecap:square;"/>
   </g>
   <g id="patch_3">
    <path d="M 57.6 307.584 
L 57.6 41.472 
" style="fill:none;stroke:#000000;stroke-linecap:square;stroke-linejoin:miter;stroke-width:0.8;"/>
   </g>
   <g id="patch_4">
    <path d="M 414.72 307.584 
L 414.72 41.472 
" style="fill:none;stroke:#000000;stroke-linecap:square;stroke-linejoin:miter;stroke-width:0.8;"/>
   </g>
   <g id="patch_5">
    <path d="M 57.6 307.584 
L 414.72 307.584 
" style="fill:none;stroke:#000000;stroke-linecap:square;stroke-linejoin:miter;stroke-width:0.8;"/>
   </g>
   <g id="patch_6">
    <path d="M 57.6 41.472 
L 414.72 41.472 
" style="fill:none;stroke:#000000;stroke-linecap:square;stroke-linejoin:miter;stroke-width:0.8;"/>
   </g>
  </g>
 </g>
 <defs>
  <clipPath id="p1c41f845e6">
   <rect height="266.112" width="357.12" x="57.6" y="41.472"/>
  </clipPath>
 </defs>
</svg>
