<?xml version="1.0" encoding="utf-8" standalone="no"?>
<!DOCTYPE svg PUBLIC "-//W3C//DTD SVG 1.1//EN"
  "http://www.w3.org/Graphics/SVG/1.1/DTD/svg11.dtd">
<!-- Created with matplotlib (https://matplotlib.org/) -->
<svg height="345.6pt" version="1.1" viewBox="0 0 460.8 345.6" width="460.8pt" xmlns="http://www.w3.org/2000/svg" xmlns:xlink="http://www.w3.org/1999/xlink">
 <metadata>
  <rdf:RDF xmlns:cc="http://creativecommons.org/ns#" xmlns:dc="http://purl.org/dc/elements/1.1/" xmlns:rdf="http://www.w3.org/1999/02/22-rdf-syntax-ns#">
   <cc:Work>
    <dc:type rdf:resource="http://purl.org/dc/dcmitype/StillImage"/>
    <dc:date>2021-01-22T11:42:16.402429</dc:date>
    <dc:format>image/svg+xml</dc:format>
    <dc:creator>
     <cc:Agent>
      <dc:title>Matplotlib v3.3.3, https://matplotlib.org/</dc:title>
     </cc:Agent>
    </dc:creator>
   </cc:Work>
  </rdf:RDF>
 </metadata>
 <defs>
  <style type="text/css">*{stroke-linecap:butt;stroke-linejoin:round;}</style>
 </defs>
 <g id="figure_1">
  <g id="patch_1">
   <path d="M 0 345.6 
L 460.8 345.6 
L 460.8 0 
L 0 0 
z
" style="fill:#ffffff;"/>
  </g>
  <g id="axes_1">
   <g id="patch_2">
    <path d="M 57.6 307.584 
L 414.72 307.584 
L 414.72 41.472 
L 57.6 41.472 
z
" style="fill:#7d9051;"/>
   </g>
   <g id="matplotlib.axis_1">
    <g id="xtick_1">
     <g id="line2d_1">
      <defs>
       <path d="M 0 0 
L 0 3.5 
" id="mec81f36e97" style="stroke:#000000;stroke-width:0.8;"/>
      </defs>
      <g>
       <use style="stroke:#000000;stroke-width:0.8;" x="90.892394" xlink:href="#mec81f36e97" y="307.584"/>
      </g>
     </g>
     <g id="text_1">
      <!-- 10 -->
      <g transform="translate(84.529894 322.182437)scale(0.1 -0.1)">
       <defs>
        <path d="M 12.40625 8.296875 
L 28.515625 8.296875 
L 28.515625 63.921875 
L 10.984375 60.40625 
L 10.984375 69.390625 
L 28.421875 72.90625 
L 38.28125 72.90625 
L 38.28125 8.296875 
L 54.390625 8.296875 
L 54.390625 0 
L 12.40625 0 
z
" id="DejaVuSans-49"/>
        <path d="M 31.78125 66.40625 
Q 24.171875 66.40625 20.328125 58.90625 
Q 16.5 51.421875 16.5 36.375 
Q 16.5 21.390625 20.328125 13.890625 
Q 24.171875 6.390625 31.78125 6.390625 
Q 39.453125 6.390625 43.28125 13.890625 
Q 47.125 21.390625 47.125 36.375 
Q 47.125 51.421875 43.28125 58.90625 
Q 39.453125 66.40625 31.78125 66.40625 
z
M 31.78125 74.21875 
Q 44.046875 74.21875 50.515625 64.515625 
Q 56.984375 54.828125 56.984375 36.375 
Q 56.984375 17.96875 50.515625 8.265625 
Q 44.046875 -1.421875 31.78125 -1.421875 
Q 19.53125 -1.421875 13.0625 8.265625 
Q 6.59375 17.96875 6.59375 36.375 
Q 6.59375 54.828125 13.0625 64.515625 
Q 19.53125 74.21875 31.78125 74.21875 
z
" id="DejaVuSans-48"/>
       </defs>
       <use xlink:href="#DejaVuSans-49"/>
       <use x="63.623047" xlink:href="#DejaVuSans-48"/>
      </g>
     </g>
    </g>
    <g id="xtick_2">
     <g id="line2d_2">
      <g>
       <use style="stroke:#000000;stroke-width:0.8;" x="131.734778" xlink:href="#mec81f36e97" y="307.584"/>
      </g>
     </g>
     <g id="text_2">
      <!-- 20 -->
      <g transform="translate(125.372278 322.182437)scale(0.1 -0.1)">
       <defs>
        <path d="M 19.1875 8.296875 
L 53.609375 8.296875 
L 53.609375 0 
L 7.328125 0 
L 7.328125 8.296875 
Q 12.9375 14.109375 22.625 23.890625 
Q 32.328125 33.6875 34.8125 36.53125 
Q 39.546875 41.84375 41.421875 45.53125 
Q 43.3125 49.21875 43.3125 52.78125 
Q 43.3125 58.59375 39.234375 62.25 
Q 35.15625 65.921875 28.609375 65.921875 
Q 23.96875 65.921875 18.8125 64.3125 
Q 13.671875 62.703125 7.8125 59.421875 
L 7.8125 69.390625 
Q 13.765625 71.78125 18.9375 73 
Q 24.125 74.21875 28.421875 74.21875 
Q 39.75 74.21875 46.484375 68.546875 
Q 53.21875 62.890625 53.21875 53.421875 
Q 53.21875 48.921875 51.53125 44.890625 
Q 49.859375 40.875 45.40625 35.40625 
Q 44.1875 33.984375 37.640625 27.21875 
Q 31.109375 20.453125 19.1875 8.296875 
z
" id="DejaVuSans-50"/>
       </defs>
       <use xlink:href="#DejaVuSans-50"/>
       <use x="63.623047" xlink:href="#DejaVuSans-48"/>
      </g>
     </g>
    </g>
    <g id="xtick_3">
     <g id="line2d_3">
      <g>
       <use style="stroke:#000000;stroke-width:0.8;" x="172.577162" xlink:href="#mec81f36e97" y="307.584"/>
      </g>
     </g>
     <g id="text_3">
      <!-- 30 -->
      <g transform="translate(166.214662 322.182437)scale(0.1 -0.1)">
       <defs>
        <path d="M 40.578125 39.3125 
Q 47.65625 37.796875 51.625 33 
Q 55.609375 28.21875 55.609375 21.1875 
Q 55.609375 10.40625 48.1875 4.484375 
Q 40.765625 -1.421875 27.09375 -1.421875 
Q 22.515625 -1.421875 17.65625 -0.515625 
Q 12.796875 0.390625 7.625 2.203125 
L 7.625 11.71875 
Q 11.71875 9.328125 16.59375 8.109375 
Q 21.484375 6.890625 26.8125 6.890625 
Q 36.078125 6.890625 40.9375 10.546875 
Q 45.796875 14.203125 45.796875 21.1875 
Q 45.796875 27.640625 41.28125 31.265625 
Q 36.765625 34.90625 28.71875 34.90625 
L 20.21875 34.90625 
L 20.21875 43.015625 
L 29.109375 43.015625 
Q 36.375 43.015625 40.234375 45.921875 
Q 44.09375 48.828125 44.09375 54.296875 
Q 44.09375 59.90625 40.109375 62.90625 
Q 36.140625 65.921875 28.71875 65.921875 
Q 24.65625 65.921875 20.015625 65.03125 
Q 15.375 64.15625 9.8125 62.3125 
L 9.8125 71.09375 
Q 15.4375 72.65625 20.34375 73.4375 
Q 25.25 74.21875 29.59375 74.21875 
Q 40.828125 74.21875 47.359375 69.109375 
Q 53.90625 64.015625 53.90625 55.328125 
Q 53.90625 49.265625 50.4375 45.09375 
Q 46.96875 40.921875 40.578125 39.3125 
z
" id="DejaVuSans-51"/>
       </defs>
       <use xlink:href="#DejaVuSans-51"/>
       <use x="63.623047" xlink:href="#DejaVuSans-48"/>
      </g>
     </g>
    </g>
    <g id="xtick_4">
     <g id="line2d_4">
      <g>
       <use style="stroke:#000000;stroke-width:0.8;" x="213.419545" xlink:href="#mec81f36e97" y="307.584"/>
      </g>
     </g>
     <g id="text_4">
      <!-- 40 -->
      <g transform="translate(207.057045 322.182437)scale(0.1 -0.1)">
       <defs>
        <path d="M 37.796875 64.3125 
L 12.890625 25.390625 
L 37.796875 25.390625 
z
M 35.203125 72.90625 
L 47.609375 72.90625 
L 47.609375 25.390625 
L 58.015625 25.390625 
L 58.015625 17.1875 
L 47.609375 17.1875 
L 47.609375 0 
L 37.796875 0 
L 37.796875 17.1875 
L 4.890625 17.1875 
L 4.890625 26.703125 
z
" id="DejaVuSans-52"/>
       </defs>
       <use xlink:href="#DejaVuSans-52"/>
       <use x="63.623047" xlink:href="#DejaVuSans-48"/>
      </g>
     </g>
    </g>
    <g id="xtick_5">
     <g id="line2d_5">
      <g>
       <use style="stroke:#000000;stroke-width:0.8;" x="254.261929" xlink:href="#mec81f36e97" y="307.584"/>
      </g>
     </g>
     <g id="text_5">
      <!-- 50 -->
      <g transform="translate(247.899429 322.182437)scale(0.1 -0.1)">
       <defs>
        <path d="M 10.796875 72.90625 
L 49.515625 72.90625 
L 49.515625 64.59375 
L 19.828125 64.59375 
L 19.828125 46.734375 
Q 21.96875 47.46875 24.109375 47.828125 
Q 26.265625 48.1875 28.421875 48.1875 
Q 40.625 48.1875 47.75 41.5 
Q 54.890625 34.8125 54.890625 23.390625 
Q 54.890625 11.625 47.5625 5.09375 
Q 40.234375 -1.421875 26.90625 -1.421875 
Q 22.3125 -1.421875 17.546875 -0.640625 
Q 12.796875 0.140625 7.71875 1.703125 
L 7.71875 11.625 
Q 12.109375 9.234375 16.796875 8.0625 
Q 21.484375 6.890625 26.703125 6.890625 
Q 35.15625 6.890625 40.078125 11.328125 
Q 45.015625 15.765625 45.015625 23.390625 
Q 45.015625 31 40.078125 35.4375 
Q 35.15625 39.890625 26.703125 39.890625 
Q 22.75 39.890625 18.8125 39.015625 
Q 14.890625 38.140625 10.796875 36.28125 
z
" id="DejaVuSans-53"/>
       </defs>
       <use xlink:href="#DejaVuSans-53"/>
       <use x="63.623047" xlink:href="#DejaVuSans-48"/>
      </g>
     </g>
    </g>
    <g id="xtick_6">
     <g id="line2d_6">
      <g>
       <use style="stroke:#000000;stroke-width:0.8;" x="295.104313" xlink:href="#mec81f36e97" y="307.584"/>
      </g>
     </g>
     <g id="text_6">
      <!-- 60 -->
      <g transform="translate(288.741813 322.182437)scale(0.1 -0.1)">
       <defs>
        <path d="M 33.015625 40.375 
Q 26.375 40.375 22.484375 35.828125 
Q 18.609375 31.296875 18.609375 23.390625 
Q 18.609375 15.53125 22.484375 10.953125 
Q 26.375 6.390625 33.015625 6.390625 
Q 39.65625 6.390625 43.53125 10.953125 
Q 47.40625 15.53125 47.40625 23.390625 
Q 47.40625 31.296875 43.53125 35.828125 
Q 39.65625 40.375 33.015625 40.375 
z
M 52.59375 71.296875 
L 52.59375 62.3125 
Q 48.875 64.0625 45.09375 64.984375 
Q 41.3125 65.921875 37.59375 65.921875 
Q 27.828125 65.921875 22.671875 59.328125 
Q 17.53125 52.734375 16.796875 39.40625 
Q 19.671875 43.65625 24.015625 45.921875 
Q 28.375 48.1875 33.59375 48.1875 
Q 44.578125 48.1875 50.953125 41.515625 
Q 57.328125 34.859375 57.328125 23.390625 
Q 57.328125 12.15625 50.6875 5.359375 
Q 44.046875 -1.421875 33.015625 -1.421875 
Q 20.359375 -1.421875 13.671875 8.265625 
Q 6.984375 17.96875 6.984375 36.375 
Q 6.984375 53.65625 15.1875 63.9375 
Q 23.390625 74.21875 37.203125 74.21875 
Q 40.921875 74.21875 44.703125 73.484375 
Q 48.484375 72.75 52.59375 71.296875 
z
" id="DejaVuSans-54"/>
       </defs>
       <use xlink:href="#DejaVuSans-54"/>
       <use x="63.623047" xlink:href="#DejaVuSans-48"/>
      </g>
     </g>
    </g>
    <g id="xtick_7">
     <g id="line2d_7">
      <g>
       <use style="stroke:#000000;stroke-width:0.8;" x="335.946697" xlink:href="#mec81f36e97" y="307.584"/>
      </g>
     </g>
     <g id="text_7">
      <!-- 70 -->
      <g transform="translate(329.584197 322.182437)scale(0.1 -0.1)">
       <defs>
        <path d="M 8.203125 72.90625 
L 55.078125 72.90625 
L 55.078125 68.703125 
L 28.609375 0 
L 18.3125 0 
L 43.21875 64.59375 
L 8.203125 64.59375 
z
" id="DejaVuSans-55"/>
       </defs>
       <use xlink:href="#DejaVuSans-55"/>
       <use x="63.623047" xlink:href="#DejaVuSans-48"/>
      </g>
     </g>
    </g>
    <g id="xtick_8">
     <g id="line2d_8">
      <g>
       <use style="stroke:#000000;stroke-width:0.8;" x="376.789081" xlink:href="#mec81f36e97" y="307.584"/>
      </g>
     </g>
     <g id="text_8">
      <!-- 80 -->
      <g transform="translate(370.426581 322.182437)scale(0.1 -0.1)">
       <defs>
        <path d="M 31.78125 34.625 
Q 24.75 34.625 20.71875 30.859375 
Q 16.703125 27.09375 16.703125 20.515625 
Q 16.703125 13.921875 20.71875 10.15625 
Q 24.75 6.390625 31.78125 6.390625 
Q 38.8125 6.390625 42.859375 10.171875 
Q 46.921875 13.96875 46.921875 20.515625 
Q 46.921875 27.09375 42.890625 30.859375 
Q 38.875 34.625 31.78125 34.625 
z
M 21.921875 38.8125 
Q 15.578125 40.375 12.03125 44.71875 
Q 8.5 49.078125 8.5 55.328125 
Q 8.5 64.0625 14.71875 69.140625 
Q 20.953125 74.21875 31.78125 74.21875 
Q 42.671875 74.21875 48.875 69.140625 
Q 55.078125 64.0625 55.078125 55.328125 
Q 55.078125 49.078125 51.53125 44.71875 
Q 48 40.375 41.703125 38.8125 
Q 48.828125 37.15625 52.796875 32.3125 
Q 56.78125 27.484375 56.78125 20.515625 
Q 56.78125 9.90625 50.3125 4.234375 
Q 43.84375 -1.421875 31.78125 -1.421875 
Q 19.734375 -1.421875 13.25 4.234375 
Q 6.78125 9.90625 6.78125 20.515625 
Q 6.78125 27.484375 10.78125 32.3125 
Q 14.796875 37.15625 21.921875 38.8125 
z
M 18.3125 54.390625 
Q 18.3125 48.734375 21.84375 45.5625 
Q 25.390625 42.390625 31.78125 42.390625 
Q 38.140625 42.390625 41.71875 45.5625 
Q 45.3125 48.734375 45.3125 54.390625 
Q 45.3125 60.0625 41.71875 63.234375 
Q 38.140625 66.40625 31.78125 66.40625 
Q 25.390625 66.40625 21.84375 63.234375 
Q 18.3125 60.0625 18.3125 54.390625 
z
" id="DejaVuSans-56"/>
       </defs>
       <use xlink:href="#DejaVuSans-56"/>
       <use x="63.623047" xlink:href="#DejaVuSans-48"/>
      </g>
     </g>
    </g>
   </g>
   <g id="matplotlib.axis_2">
    <g id="ytick_1">
     <g id="line2d_9">
      <defs>
       <path d="M 0 0 
L -3.5 0 
" id="m60d570b129" style="stroke:#000000;stroke-width:0.8;"/>
      </defs>
      <g>
       <use style="stroke:#000000;stroke-width:0.8;" x="57.6" xlink:href="#m60d570b129" y="299.282252"/>
      </g>
     </g>
     <g id="text_9">
      <!-- 0 -->
      <g transform="translate(44.2375 303.08147)scale(0.1 -0.1)">
       <use xlink:href="#DejaVuSans-48"/>
      </g>
     </g>
    </g>
    <g id="ytick_2">
     <g id="line2d_10">
      <g>
       <use style="stroke:#000000;stroke-width:0.8;" x="57.6" xlink:href="#m60d570b129" y="258.439868"/>
      </g>
     </g>
     <g id="text_10">
      <!-- 10 -->
      <g transform="translate(37.875 262.239087)scale(0.1 -0.1)">
       <use xlink:href="#DejaVuSans-49"/>
       <use x="63.623047" xlink:href="#DejaVuSans-48"/>
      </g>
     </g>
    </g>
    <g id="ytick_3">
     <g id="line2d_11">
      <g>
       <use style="stroke:#000000;stroke-width:0.8;" x="57.6" xlink:href="#m60d570b129" y="217.597484"/>
      </g>
     </g>
     <g id="text_11">
      <!-- 20 -->
      <g transform="translate(37.875 221.396703)scale(0.1 -0.1)">
       <use xlink:href="#DejaVuSans-50"/>
       <use x="63.623047" xlink:href="#DejaVuSans-48"/>
      </g>
     </g>
    </g>
    <g id="ytick_4">
     <g id="line2d_12">
      <g>
       <use style="stroke:#000000;stroke-width:0.8;" x="57.6" xlink:href="#m60d570b129" y="176.7551"/>
      </g>
     </g>
     <g id="text_12">
      <!-- 30 -->
      <g transform="translate(37.875 180.554319)scale(0.1 -0.1)">
       <use xlink:href="#DejaVuSans-51"/>
       <use x="63.623047" xlink:href="#DejaVuSans-48"/>
      </g>
     </g>
    </g>
    <g id="ytick_5">
     <g id="line2d_13">
      <g>
       <use style="stroke:#000000;stroke-width:0.8;" x="57.6" xlink:href="#m60d570b129" y="135.912716"/>
      </g>
     </g>
     <g id="text_13">
      <!-- 40 -->
      <g transform="translate(37.875 139.711935)scale(0.1 -0.1)">
       <use xlink:href="#DejaVuSans-52"/>
       <use x="63.623047" xlink:href="#DejaVuSans-48"/>
      </g>
     </g>
    </g>
    <g id="ytick_6">
     <g id="line2d_14">
      <g>
       <use style="stroke:#000000;stroke-width:0.8;" x="57.6" xlink:href="#m60d570b129" y="95.070332"/>
      </g>
     </g>
     <g id="text_14">
      <!-- 50 -->
      <g transform="translate(37.875 98.869551)scale(0.1 -0.1)">
       <use xlink:href="#DejaVuSans-53"/>
       <use x="63.623047" xlink:href="#DejaVuSans-48"/>
      </g>
     </g>
    </g>
    <g id="ytick_7">
     <g id="line2d_15">
      <g>
       <use style="stroke:#000000;stroke-width:0.8;" x="57.6" xlink:href="#m60d570b129" y="54.227949"/>
      </g>
     </g>
     <g id="text_15">
      <!-- 60 -->
      <g transform="translate(37.875 58.027167)scale(0.1 -0.1)">
       <use xlink:href="#DejaVuSans-54"/>
       <use x="63.623047" xlink:href="#DejaVuSans-48"/>
      </g>
     </g>
    </g>
   </g>
   <g id="line2d_16">
    <path clip-path="url(#pbdec0551f4)" d="M 140.328015 188.999647 
L 144.27339 195.922431 
L 148.647609 202.779867 
L 153.430252 209.482102 
L 155.974733 212.757662 
L 158.617235 215.963789 
L 161.353675 219.096399 
L 164.188136 222.147326 
L 167.116535 225.10023 
L 170.134787 227.955113 
L 173.242892 230.691552 
L 176.440851 233.309549 
L 179.728663 235.79685 
L 183.09816 238.141203 
L 186.549341 240.334439 
L 190.086292 242.36839 
L 193.704927 244.230802 
L 197.401163 245.917593 
L 201.170915 247.420593 
L 205.014183 248.74797 
L 208.914631 249.920147 
L 212.868173 250.953459 
L 220.897786 252.660671 
L 229.029505 253.996216 
L 237.197981 255.090792 
L 249.422107 256.471265 
L 261.613558 257.549504 
L 269.749361 258.080455 
L 277.905585 258.439868 
L 286.086315 258.607322 
L 294.275213 258.488879 
L 298.363535 258.296919 
L 302.44369 257.990602 
L 306.515675 257.565841 
L 310.575408 257.010384 
L 314.61472 256.307895 
L 318.637695 255.442037 
L 322.63208 254.412809 
L 326.593791 253.203874 
L 330.502407 251.827486 
L 334.341591 250.271391 
L 338.099091 248.539674 
L 341.762652 246.62825 
L 345.31594 244.533036 
L 348.742616 242.2622 
L 352.026343 239.803488 
L 355.158954 237.16507 
L 358.124111 234.338777 
L 360.921815 231.340946 
L 363.543896 228.18383 
L 366.002607 224.879681 
L 368.285696 221.444837 
L 370.401332 217.891549 
L 372.345429 214.232072 
L 374.122073 210.478656 
L 375.723095 206.647641 
L 377.156662 202.751277 
L 378.418692 198.801819 
L 379.501015 194.807434 
L 380.407716 190.772206 
L 381.130626 186.712473 
L 381.665661 182.628235 
L 382.008737 178.52766 
L 382.151686 174.418916 
L 382.098591 170.314256 
L 381.837199 166.213681 
L 381.367512 162.125358 
L 380.689528 158.061541 
L 379.79508 154.034482 
L 378.700504 150.048265 
L 377.401717 146.123312 
L 375.902801 142.267791 
L 374.207842 138.493955 
L 372.325008 134.81814 
L 370.250215 131.244432 
L 367.991631 127.79325 
L 365.553341 124.46868 
L 362.939428 121.287059 
L 360.162146 118.25247 
L 357.225579 115.364913 
L 354.146063 112.628473 
L 350.931768 110.04315 
L 347.594945 107.613029 
L 344.143763 105.342192 
L 340.59456 103.234725 
L 336.95142 101.286543 
L 333.230678 99.505815 
L 329.440505 97.892541 
L 325.584984 96.442637 
L 321.680452 95.160186 
L 317.722825 94.03702 
L 313.72844 93.069056 
L 309.697297 92.260376 
L 305.641648 91.602814 
L 301.565578 91.092284 
L 297.48134 90.732871 
L 293.388933 90.520491 
L 289.296526 90.446975 
L 285.208204 90.508238 
L 281.123965 90.687945 
L 272.97591 91.386349 
L 264.852359 92.45642 
L 256.773736 93.828724 
L 248.740039 95.417493 
L 240.755353 97.173715 
L 228.845714 100.061272 
L 217.001423 103.169377 
L 173.634979 114.903394 
L 157.788134 118.905948 
L 149.938228 121.160447 
L 146.050033 122.422477 
L 142.198597 123.798865 
L 138.388002 125.314118 
L 134.622334 126.984571 
L 130.909762 128.830647 
L 127.266621 130.848261 
L 123.717418 133.037413 
L 120.278489 135.398102 
L 116.970256 137.922162 
L 113.809056 140.60959 
L 110.819393 143.45222 
L 108.02169 146.454136 
L 105.428198 149.611252 
L 103.067509 152.915401 
L 100.943705 156.362498 
L 99.060871 159.948459 
L 97.398586 163.652863 
L 95.944597 167.467542 
L 94.686651 171.376158 
L 93.616581 175.370543 
L 92.718049 179.434361 
L 91.978801 183.551273 
L 91.386587 187.717196 
L 90.925068 191.911709 
L 90.357359 200.341577 
L 90.169484 208.746939 
L 90.263421 217.017522 
L 90.712687 228.951667 
L 90.892394 232.754093 
L 90.892394 232.754093 
" style="fill:none;stroke:#fea952;stroke-linecap:square;"/>
   </g>
   <g id="line2d_17">
    <path clip-path="url(#pbdec0551f4)" d="M 154.620978 181.087171 
L 158.155702 187.309798 
L 162.070943 193.468039 
L 166.331924 199.459981 
L 170.920985 205.216054 
L 175.788139 210.643588 
L 178.342829 213.231516 
L 180.93034 215.693298 
L 183.591585 218.050326 
L 186.297319 220.280885 
L 189.05907 222.386423 
L 191.860621 224.352972 
L 194.693455 226.172184 
L 197.56241 227.842423 
L 200.48747 229.368328 
L 203.451543 230.742319 
L 206.504195 231.978696 
L 209.716086 233.102263 
L 213.045747 234.114137 
L 216.481049 235.021002 
L 223.701767 236.566145 
L 231.294588 237.817049 
L 239.146372 238.87044 
L 251.00724 240.211394 
L 262.758913 241.252749 
L 270.550511 241.763157 
L 278.346082 242.108854 
L 286.021098 242.270498 
L 293.508987 242.169904 
L 300.748731 241.741812 
L 307.776215 240.915026 
L 311.177259 240.336674 
L 314.56132 239.621821 
L 317.863849 238.787188 
L 321.167475 237.794424 
L 324.365652 236.686935 
L 327.50364 235.434327 
L 330.542171 234.055579 
L 333.464648 232.555611 
L 336.29132 230.914949 
L 338.950857 229.184834 
L 341.502124 227.308014 
L 343.88721 225.339512 
L 346.180354 223.192355 
L 348.354112 220.903087 
L 350.437488 218.430978 
L 352.397009 215.836245 
L 354.248482 213.087047 
L 355.973911 210.226982 
L 357.579144 207.242589 
L 359.048473 204.179242 
L 360.390959 201.006572 
L 361.594899 197.778594 
L 362.650342 194.529209 
L 363.561488 191.22588 
L 364.32377 187.908164 
L 364.932073 184.590463 
L 365.385588 181.266157 
L 365.681662 177.95962 
L 365.816099 174.630222 
L 365.794728 171.353546 
L 365.607003 168.078289 
L 365.253278 164.813763 
L 364.741225 161.603811 
L 364.041252 158.360328 
L 363.190649 155.180559 
L 362.174994 152.043023 
L 360.999957 148.961168 
L 359.667405 145.94189 
L 358.196539 143.020726 
L 356.580387 140.190485 
L 354.817945 137.455033 
L 352.9302 134.839425 
L 350.887827 132.316789 
L 348.707793 129.901239 
L 346.373909 127.577091 
L 343.90695 125.358619 
L 341.314186 123.249141 
L 338.614996 121.260613 
L 335.802742 119.389377 
L 332.89066 117.641181 
L 329.898745 116.022751 
L 326.832401 114.537718 
L 323.690019 113.183975 
L 320.487025 111.963811 
L 317.220201 110.87649 
L 313.875233 109.914428 
L 310.515138 109.086881 
L 307.082649 108.386742 
L 303.6113 107.813111 
L 300.133461 107.366346 
L 296.634653 107.04787 
L 293.095502 106.854809 
L 289.541308 106.782094 
L 282.315769 106.981368 
L 274.946134 107.604064 
L 267.458854 108.584105 
L 259.852281 109.872994 
L 252.166449 111.391089 
L 244.47895 113.08066 
L 232.9156 115.883158 
L 221.281985 118.93557 
L 177.585748 130.755444 
L 162.148826 134.650166 
L 154.981847 136.699365 
L 148.235117 138.979658 
L 145.012546 140.247686 
L 141.896239 141.612844 
L 138.824636 143.122282 
L 135.843056 144.752966 
L 132.963266 146.506278 
L 130.188083 148.386405 
L 127.551792 150.369135 
L 125.066223 152.449026 
L 122.770717 154.590529 
L 120.645397 156.824192 
L 118.721014 159.108467 
L 116.976482 161.484911 
L 115.40807 163.957113 
L 113.965954 166.636848 
L 112.664232 169.471461 
L 111.495982 172.472586 
L 110.467156 175.603655 
L 109.568267 178.897549 
L 108.797828 182.321702 
L 108.153142 185.850566 
L 107.625538 189.503955 
L 107.209338 193.222664 
L 106.68595 200.864218 
L 106.50624 208.6667 
L 106.592924 216.524184 
L 107.031426 228.180427 
L 107.211133 231.982853 
L 107.211133 231.982853 
" style="fill:none;stroke:#ffffff;stroke-linecap:square;"/>
   </g>
   <g id="line2d_18">
    <path clip-path="url(#pbdec0551f4)" d="M 126.035053 196.912123 
L 130.391077 204.535064 
L 132.746287 208.321678 
L 135.224275 212.091696 
L 137.816246 215.818032 
L 140.52858 219.504224 
L 143.367917 223.148247 
L 146.313485 226.711523 
L 149.384915 230.21597 
L 152.588133 233.651063 
L 155.890241 236.968944 
L 159.339234 240.216927 
L 162.8942 243.332779 
L 166.584383 246.338213 
L 170.398257 249.207278 
L 174.335698 251.929434 
L 178.405227 254.496694 
L 182.610173 256.894356 
L 186.922383 259.093277 
L 191.350782 261.092867 
L 195.837635 262.862489 
L 200.312279 264.393677 
L 204.783514 265.726156 
L 209.255297 266.885916 
L 213.68456 267.884217 
L 222.46199 269.513102 
L 231.039536 270.772753 
L 243.641428 272.289341 
L 256.256706 273.512552 
L 264.699087 274.142791 
L 273.188138 274.605101 
L 281.765669 274.885501 
L 290.585797 274.922866 
L 299.586591 274.588027 
L 304.138648 274.239391 
L 308.73028 273.751995 
L 313.374601 273.105743 
L 318.052181 272.279117 
L 322.714069 271.262252 
L 327.400311 270.03843 
L 332.020107 268.613324 
L 336.639162 266.968037 
L 341.179543 265.108455 
L 345.65601 263.023769 
L 350.060657 260.70089 
L 354.34056 258.151123 
L 358.534375 255.339566 
L 362.550563 252.298962 
L 366.430699 248.990628 
L 370.067868 245.485199 
L 373.489517 241.778805 
L 376.650303 237.936682 
L 379.608206 233.923117 
L 382.322911 229.802626 
L 384.828752 225.556116 
L 387.111715 221.221554 
L 389.195673 216.778071 
L 391.055231 212.28871 
L 392.718425 207.723961 
L 394.187042 203.074429 
L 395.440542 198.388987 
L 396.491662 193.636249 
L 397.329179 188.834484 
L 397.945735 183.990313 
L 398.335813 179.095699 
L 398.487273 174.20761 
L 398.402453 169.274966 
L 398.067396 164.349073 
L 397.481746 159.436953 
L 396.637832 154.519271 
L 395.548909 149.708636 
L 394.21036 144.915972 
L 392.628439 140.203601 
L 390.805645 135.574414 
L 388.748279 131.04602 
L 386.453477 126.615555 
L 383.920043 122.298379 
L 381.165318 118.131468 
L 378.176482 114.097935 
L 374.99103 110.257329 
L 371.6165 106.6037 
L 368.077249 103.152735 
L 364.385177 99.898328 
L 360.549349 96.83716 
L 356.574894 93.965444 
L 352.484785 91.295007 
L 348.298461 88.828269 
L 344.004094 86.550335 
L 339.628956 84.473913 
L 335.190992 82.601107 
L 330.682943 80.921462 
L 326.140704 79.443882 
L 321.570418 78.159612 
L 316.941743 77.05123 
L 312.311944 76.134011 
L 307.671996 75.392517 
L 302.997696 74.818222 
L 298.328026 74.417873 
L 293.682364 74.186173 
L 289.051744 74.111855 
L 284.490072 74.187076 
L 279.932162 74.394521 
L 271.005685 75.168635 
L 262.245865 76.328735 
L 253.695191 77.784454 
L 245.313629 79.443897 
L 237.031756 81.266771 
L 224.775828 84.239386 
L 212.72086 87.403184 
L 169.684211 99.051344 
L 153.427443 103.161729 
L 144.894609 105.62153 
L 140.552221 107.038391 
L 136.162076 108.618073 
L 131.763458 110.380549 
L 127.34843 112.356298 
L 122.994888 114.539012 
L 118.690186 116.943556 
L 114.47157 119.568547 
L 110.368895 122.4098 
L 106.38872 125.475188 
L 102.551888 128.770155 
L 98.868069 132.313912 
L 95.397983 136.084079 
L 92.135383 140.114036 
L 89.158535 144.345891 
L 86.479339 148.767882 
L 84.155788 153.26007 
L 82.132939 157.834266 
L 80.393211 162.462498 
L 78.906147 167.148661 
L 77.664895 171.843537 
L 76.638269 176.547019 
L 75.804461 181.251979 
L 75.147635 185.930437 
L 74.640798 190.600754 
L 74.273076 195.238214 
L 73.886934 204.345646 
L 73.855561 213.196668 
L 74.061389 221.70941 
L 74.573655 233.525333 
L 74.573655 233.525333 
" style="fill:none;stroke:#ffffff;stroke-linecap:square;"/>
   </g>
   <g id="patch_3">
    <path d="M 57.6 307.584 
L 57.6 41.472 
" style="fill:none;stroke:#000000;stroke-linecap:square;stroke-linejoin:miter;stroke-width:0.8;"/>
   </g>
   <g id="patch_4">
    <path d="M 414.72 307.584 
L 414.72 41.472 
" style="fill:none;stroke:#000000;stroke-linecap:square;stroke-linejoin:miter;stroke-width:0.8;"/>
   </g>
   <g id="patch_5">
    <path d="M 57.6 307.584 
L 414.72 307.584 
" style="fill:none;stroke:#000000;stroke-linecap:square;stroke-linejoin:miter;stroke-width:0.8;"/>
   </g>
   <g id="patch_6">
    <path d="M 57.6 41.472 
L 414.72 41.472 
" style="fill:none;stroke:#000000;stroke-linecap:square;stroke-linejoin:miter;stroke-width:0.8;"/>
   </g>
  </g>
 </g>
 <defs>
  <clipPath id="pbdec0551f4">
   <rect height="266.112" width="357.12" x="57.6" y="41.472"/>
  </clipPath>
 </defs>
</svg>
