<?xml version="1.0" encoding="utf-8" standalone="no"?>
<!DOCTYPE svg PUBLIC "-//W3C//DTD SVG 1.1//EN"
  "http://www.w3.org/Graphics/SVG/1.1/DTD/svg11.dtd">
<!-- Created with matplotlib (https://matplotlib.org/) -->
<svg height="345.6pt" version="1.1" viewBox="0 0 460.8 345.6" width="460.8pt" xmlns="http://www.w3.org/2000/svg" xmlns:xlink="http://www.w3.org/1999/xlink">
 <metadata>
  <rdf:RDF xmlns:cc="http://creativecommons.org/ns#" xmlns:dc="http://purl.org/dc/elements/1.1/" xmlns:rdf="http://www.w3.org/1999/02/22-rdf-syntax-ns#">
   <cc:Work>
    <dc:type rdf:resource="http://purl.org/dc/dcmitype/StillImage"/>
    <dc:date>2021-01-23T12:16:11.409313</dc:date>
    <dc:format>image/svg+xml</dc:format>
    <dc:creator>
     <cc:Agent>
      <dc:title>Matplotlib v3.3.3, https://matplotlib.org/</dc:title>
     </cc:Agent>
    </dc:creator>
   </cc:Work>
  </rdf:RDF>
 </metadata>
 <defs>
  <style type="text/css">*{stroke-linecap:butt;stroke-linejoin:round;}</style>
 </defs>
 <g id="figure_1">
  <g id="patch_1">
   <path d="M 0 345.6 
L 460.8 345.6 
L 460.8 0 
L 0 0 
z
" style="fill:#ffffff;"/>
  </g>
  <g id="axes_1">
   <g id="patch_2">
    <path d="M 57.6 307.584 
L 414.72 307.584 
L 414.72 41.472 
L 57.6 41.472 
z
" style="fill:#7d9051;"/>
   </g>
   <g id="matplotlib.axis_1">
    <g id="xtick_1">
     <g id="line2d_1">
      <defs>
       <path d="M 0 0 
L 0 3.5 
" id="m5a2089171c" style="stroke:#000000;stroke-width:0.8;"/>
      </defs>
      <g>
       <use style="stroke:#000000;stroke-width:0.8;" x="82.635311" xlink:href="#m5a2089171c" y="307.584"/>
      </g>
     </g>
     <g id="text_1">
      <!-- 0 -->
      <g transform="translate(79.454061 322.182437)scale(0.1 -0.1)">
       <defs>
        <path d="M 31.78125 66.40625 
Q 24.171875 66.40625 20.328125 58.90625 
Q 16.5 51.421875 16.5 36.375 
Q 16.5 21.390625 20.328125 13.890625 
Q 24.171875 6.390625 31.78125 6.390625 
Q 39.453125 6.390625 43.28125 13.890625 
Q 47.125 21.390625 47.125 36.375 
Q 47.125 51.421875 43.28125 58.90625 
Q 39.453125 66.40625 31.78125 66.40625 
z
M 31.78125 74.21875 
Q 44.046875 74.21875 50.515625 64.515625 
Q 56.984375 54.828125 56.984375 36.375 
Q 56.984375 17.96875 50.515625 8.265625 
Q 44.046875 -1.421875 31.78125 -1.421875 
Q 19.53125 -1.421875 13.0625 8.265625 
Q 6.59375 17.96875 6.59375 36.375 
Q 6.59375 54.828125 13.0625 64.515625 
Q 19.53125 74.21875 31.78125 74.21875 
z
" id="DejaVuSans-48"/>
       </defs>
       <use xlink:href="#DejaVuSans-48"/>
      </g>
     </g>
    </g>
    <g id="xtick_2">
     <g id="line2d_2">
      <g>
       <use style="stroke:#000000;stroke-width:0.8;" x="136.357954" xlink:href="#m5a2089171c" y="307.584"/>
      </g>
     </g>
     <g id="text_2">
      <!-- 20 -->
      <g transform="translate(129.995454 322.182437)scale(0.1 -0.1)">
       <defs>
        <path d="M 19.1875 8.296875 
L 53.609375 8.296875 
L 53.609375 0 
L 7.328125 0 
L 7.328125 8.296875 
Q 12.9375 14.109375 22.625 23.890625 
Q 32.328125 33.6875 34.8125 36.53125 
Q 39.546875 41.84375 41.421875 45.53125 
Q 43.3125 49.21875 43.3125 52.78125 
Q 43.3125 58.59375 39.234375 62.25 
Q 35.15625 65.921875 28.609375 65.921875 
Q 23.96875 65.921875 18.8125 64.3125 
Q 13.671875 62.703125 7.8125 59.421875 
L 7.8125 69.390625 
Q 13.765625 71.78125 18.9375 73 
Q 24.125 74.21875 28.421875 74.21875 
Q 39.75 74.21875 46.484375 68.546875 
Q 53.21875 62.890625 53.21875 53.421875 
Q 53.21875 48.921875 51.53125 44.890625 
Q 49.859375 40.875 45.40625 35.40625 
Q 44.1875 33.984375 37.640625 27.21875 
Q 31.109375 20.453125 19.1875 8.296875 
z
" id="DejaVuSans-50"/>
       </defs>
       <use xlink:href="#DejaVuSans-50"/>
       <use x="63.623047" xlink:href="#DejaVuSans-48"/>
      </g>
     </g>
    </g>
    <g id="xtick_3">
     <g id="line2d_3">
      <g>
       <use style="stroke:#000000;stroke-width:0.8;" x="190.080598" xlink:href="#m5a2089171c" y="307.584"/>
      </g>
     </g>
     <g id="text_3">
      <!-- 40 -->
      <g transform="translate(183.718098 322.182437)scale(0.1 -0.1)">
       <defs>
        <path d="M 37.796875 64.3125 
L 12.890625 25.390625 
L 37.796875 25.390625 
z
M 35.203125 72.90625 
L 47.609375 72.90625 
L 47.609375 25.390625 
L 58.015625 25.390625 
L 58.015625 17.1875 
L 47.609375 17.1875 
L 47.609375 0 
L 37.796875 0 
L 37.796875 17.1875 
L 4.890625 17.1875 
L 4.890625 26.703125 
z
" id="DejaVuSans-52"/>
       </defs>
       <use xlink:href="#DejaVuSans-52"/>
       <use x="63.623047" xlink:href="#DejaVuSans-48"/>
      </g>
     </g>
    </g>
    <g id="xtick_4">
     <g id="line2d_4">
      <g>
       <use style="stroke:#000000;stroke-width:0.8;" x="243.803241" xlink:href="#m5a2089171c" y="307.584"/>
      </g>
     </g>
     <g id="text_4">
      <!-- 60 -->
      <g transform="translate(237.440741 322.182437)scale(0.1 -0.1)">
       <defs>
        <path d="M 33.015625 40.375 
Q 26.375 40.375 22.484375 35.828125 
Q 18.609375 31.296875 18.609375 23.390625 
Q 18.609375 15.53125 22.484375 10.953125 
Q 26.375 6.390625 33.015625 6.390625 
Q 39.65625 6.390625 43.53125 10.953125 
Q 47.40625 15.53125 47.40625 23.390625 
Q 47.40625 31.296875 43.53125 35.828125 
Q 39.65625 40.375 33.015625 40.375 
z
M 52.59375 71.296875 
L 52.59375 62.3125 
Q 48.875 64.0625 45.09375 64.984375 
Q 41.3125 65.921875 37.59375 65.921875 
Q 27.828125 65.921875 22.671875 59.328125 
Q 17.53125 52.734375 16.796875 39.40625 
Q 19.671875 43.65625 24.015625 45.921875 
Q 28.375 48.1875 33.59375 48.1875 
Q 44.578125 48.1875 50.953125 41.515625 
Q 57.328125 34.859375 57.328125 23.390625 
Q 57.328125 12.15625 50.6875 5.359375 
Q 44.046875 -1.421875 33.015625 -1.421875 
Q 20.359375 -1.421875 13.671875 8.265625 
Q 6.984375 17.96875 6.984375 36.375 
Q 6.984375 53.65625 15.1875 63.9375 
Q 23.390625 74.21875 37.203125 74.21875 
Q 40.921875 74.21875 44.703125 73.484375 
Q 48.484375 72.75 52.59375 71.296875 
z
" id="DejaVuSans-54"/>
       </defs>
       <use xlink:href="#DejaVuSans-54"/>
       <use x="63.623047" xlink:href="#DejaVuSans-48"/>
      </g>
     </g>
    </g>
    <g id="xtick_5">
     <g id="line2d_5">
      <g>
       <use style="stroke:#000000;stroke-width:0.8;" x="297.525884" xlink:href="#m5a2089171c" y="307.584"/>
      </g>
     </g>
     <g id="text_5">
      <!-- 80 -->
      <g transform="translate(291.163384 322.182437)scale(0.1 -0.1)">
       <defs>
        <path d="M 31.78125 34.625 
Q 24.75 34.625 20.71875 30.859375 
Q 16.703125 27.09375 16.703125 20.515625 
Q 16.703125 13.921875 20.71875 10.15625 
Q 24.75 6.390625 31.78125 6.390625 
Q 38.8125 6.390625 42.859375 10.171875 
Q 46.921875 13.96875 46.921875 20.515625 
Q 46.921875 27.09375 42.890625 30.859375 
Q 38.875 34.625 31.78125 34.625 
z
M 21.921875 38.8125 
Q 15.578125 40.375 12.03125 44.71875 
Q 8.5 49.078125 8.5 55.328125 
Q 8.5 64.0625 14.71875 69.140625 
Q 20.953125 74.21875 31.78125 74.21875 
Q 42.671875 74.21875 48.875 69.140625 
Q 55.078125 64.0625 55.078125 55.328125 
Q 55.078125 49.078125 51.53125 44.71875 
Q 48 40.375 41.703125 38.8125 
Q 48.828125 37.15625 52.796875 32.3125 
Q 56.78125 27.484375 56.78125 20.515625 
Q 56.78125 9.90625 50.3125 4.234375 
Q 43.84375 -1.421875 31.78125 -1.421875 
Q 19.734375 -1.421875 13.25 4.234375 
Q 6.78125 9.90625 6.78125 20.515625 
Q 6.78125 27.484375 10.78125 32.3125 
Q 14.796875 37.15625 21.921875 38.8125 
z
M 18.3125 54.390625 
Q 18.3125 48.734375 21.84375 45.5625 
Q 25.390625 42.390625 31.78125 42.390625 
Q 38.140625 42.390625 41.71875 45.5625 
Q 45.3125 48.734375 45.3125 54.390625 
Q 45.3125 60.0625 41.71875 63.234375 
Q 38.140625 66.40625 31.78125 66.40625 
Q 25.390625 66.40625 21.84375 63.234375 
Q 18.3125 60.0625 18.3125 54.390625 
z
" id="DejaVuSans-56"/>
       </defs>
       <use xlink:href="#DejaVuSans-56"/>
       <use x="63.623047" xlink:href="#DejaVuSans-48"/>
      </g>
     </g>
    </g>
    <g id="xtick_6">
     <g id="line2d_6">
      <g>
       <use style="stroke:#000000;stroke-width:0.8;" x="351.248528" xlink:href="#m5a2089171c" y="307.584"/>
      </g>
     </g>
     <g id="text_6">
      <!-- 100 -->
      <g transform="translate(341.704778 322.182437)scale(0.1 -0.1)">
       <defs>
        <path d="M 12.40625 8.296875 
L 28.515625 8.296875 
L 28.515625 63.921875 
L 10.984375 60.40625 
L 10.984375 69.390625 
L 28.421875 72.90625 
L 38.28125 72.90625 
L 38.28125 8.296875 
L 54.390625 8.296875 
L 54.390625 0 
L 12.40625 0 
z
" id="DejaVuSans-49"/>
       </defs>
       <use xlink:href="#DejaVuSans-49"/>
       <use x="63.623047" xlink:href="#DejaVuSans-48"/>
       <use x="127.246094" xlink:href="#DejaVuSans-48"/>
      </g>
     </g>
    </g>
    <g id="xtick_7">
     <g id="line2d_7">
      <g>
       <use style="stroke:#000000;stroke-width:0.8;" x="404.971171" xlink:href="#m5a2089171c" y="307.584"/>
      </g>
     </g>
     <g id="text_7">
      <!-- 120 -->
      <g transform="translate(395.427421 322.182437)scale(0.1 -0.1)">
       <use xlink:href="#DejaVuSans-49"/>
       <use x="63.623047" xlink:href="#DejaVuSans-50"/>
       <use x="127.246094" xlink:href="#DejaVuSans-48"/>
      </g>
     </g>
    </g>
   </g>
   <g id="matplotlib.axis_2">
    <g id="ytick_1">
     <g id="line2d_8">
      <defs>
       <path d="M 0 0 
L -3.5 0 
" id="m63edba9017" style="stroke:#000000;stroke-width:0.8;"/>
      </defs>
      <g>
       <use style="stroke:#000000;stroke-width:0.8;" x="57.6" xlink:href="#m63edba9017" y="267.93878"/>
      </g>
     </g>
     <g id="text_8">
      <!-- 20 -->
      <g transform="translate(37.875 271.737998)scale(0.1 -0.1)">
       <use xlink:href="#DejaVuSans-50"/>
       <use x="63.623047" xlink:href="#DejaVuSans-48"/>
      </g>
     </g>
    </g>
    <g id="ytick_2">
     <g id="line2d_9">
      <g>
       <use style="stroke:#000000;stroke-width:0.8;" x="57.6" xlink:href="#m63edba9017" y="214.216136"/>
      </g>
     </g>
     <g id="text_9">
      <!-- 40 -->
      <g transform="translate(37.875 218.015355)scale(0.1 -0.1)">
       <use xlink:href="#DejaVuSans-52"/>
       <use x="63.623047" xlink:href="#DejaVuSans-48"/>
      </g>
     </g>
    </g>
    <g id="ytick_3">
     <g id="line2d_10">
      <g>
       <use style="stroke:#000000;stroke-width:0.8;" x="57.6" xlink:href="#m63edba9017" y="160.493493"/>
      </g>
     </g>
     <g id="text_10">
      <!-- 60 -->
      <g transform="translate(37.875 164.292712)scale(0.1 -0.1)">
       <use xlink:href="#DejaVuSans-54"/>
       <use x="63.623047" xlink:href="#DejaVuSans-48"/>
      </g>
     </g>
    </g>
    <g id="ytick_4">
     <g id="line2d_11">
      <g>
       <use style="stroke:#000000;stroke-width:0.8;" x="57.6" xlink:href="#m63edba9017" y="106.77085"/>
      </g>
     </g>
     <g id="text_11">
      <!-- 80 -->
      <g transform="translate(37.875 110.570068)scale(0.1 -0.1)">
       <use xlink:href="#DejaVuSans-56"/>
       <use x="63.623047" xlink:href="#DejaVuSans-48"/>
      </g>
     </g>
    </g>
    <g id="ytick_5">
     <g id="line2d_12">
      <g>
       <use style="stroke:#000000;stroke-width:0.8;" x="57.6" xlink:href="#m63edba9017" y="53.048206"/>
      </g>
     </g>
     <g id="text_12">
      <!-- 100 -->
      <g transform="translate(31.5125 56.847425)scale(0.1 -0.1)">
       <use xlink:href="#DejaVuSans-49"/>
       <use x="63.623047" xlink:href="#DejaVuSans-48"/>
       <use x="127.246094" xlink:href="#DejaVuSans-48"/>
      </g>
     </g>
    </g>
   </g>
   <g id="line2d_13">
    <path clip-path="url(#pe07ac9d3ee)" d="M 321.711818 62.132705 
L 334.371559 71.826956 
L 338.586101 75.292067 
L 342.685138 78.912973 
L 346.596147 82.719222 
L 350.251973 86.732304 
L 351.963039 88.822114 
L 353.582777 90.976392 
L 355.105813 93.192451 
L 356.521405 95.475664 
L 357.818807 97.828716 
L 358.995333 100.256979 
L 360.037552 102.757768 
L 360.942779 105.323024 
L 361.711012 107.942003 
L 362.336881 110.60396 
L 362.815013 113.298151 
L 363.145407 116.011144 
L 363.322692 118.732196 
L 363.346867 121.450562 
L 363.209874 124.152811 
L 362.9144 126.830885 
L 362.455071 129.474039 
L 361.845319 132.082273 
L 361.10126 134.655588 
L 360.239012 137.202041 
L 358.208296 142.203619 
L 355.874047 147.111182 
L 352.054367 154.318075 
L 349.381666 159.018806 
L 346.555855 163.598662 
L 343.520525 168.022721 
L 340.224641 172.256066 
L 336.609107 176.258403 
L 334.675092 178.157498 
L 332.660493 179.978696 
L 330.570682 181.713937 
L 328.40566 183.355164 
L 326.168112 184.894317 
L 323.86341 186.32334 
L 321.494242 187.631486 
L 319.063292 188.81607 
L 316.575934 189.863662 
L 314.032166 190.768889 
L 311.440049 191.534436 
L 308.810326 192.162991 
L 306.145682 192.659926 
L 303.456864 193.022553 
L 300.749243 193.256247 
L 298.033563 193.366378 
L 295.312511 193.352948 
L 292.596832 193.218641 
L 289.894583 192.968831 
L 284.546494 192.130758 
L 279.292419 190.876334 
L 274.148476 189.237793 
L 269.128095 187.255428 
L 264.252765 184.964157 
L 259.525173 182.401587 
L 254.926514 179.624126 
L 248.205812 175.162461 
L 237.235648 167.39148 
L 228.403645 161.288588 
L 223.888257 158.371448 
L 219.273482 155.593988 
L 214.527086 152.996498 
L 209.64907 150.656877 
L 204.631376 148.655708 
L 202.071492 147.806891 
L 199.479374 147.073577 
L 196.849651 146.466511 
L 194.185008 145.993751 
L 191.488131 145.666043 
L 188.767079 145.488759 
L 186.032596 145.461897 
L 183.3008 145.585459 
L 180.582434 145.867503 
L 177.885558 146.308029 
L 175.226287 146.909723 
L 172.61268 147.672584 
L 170.060855 148.601986 
L 167.581555 149.700614 
L 165.182839 150.965782 
L 162.872765 152.389432 
L 160.65402 153.963506 
L 158.531975 155.671886 
L 156.512004 157.503828 
L 154.594106 159.451274 
L 152.786339 161.500792 
L 151.088703 163.638954 
L 149.511943 165.857699 
L 148.053374 168.146283 
L 146.718366 170.488591 
L 144.359942 175.31557 
L 142.310423 180.284915 
L 139.543707 187.870552 
L 136.76356 195.453503 
L 133.712114 202.912892 
L 130.392055 210.254091 
L 126.824871 217.490531 
L 118.242679 234.268113 
L 116.088401 239.17299 
L 114.226911 244.193371 
L 112.685071 249.329256 
L 111.444078 254.564528 
L 110.485129 259.875011 
L 109.781363 265.241903 
L 109.311289 270.641029 
L 109.053421 276.056271 
L 108.986267 281.460769 
L 109.085654 286.838406 
L 109.496633 294.800101 
L 109.496633 294.800101 
" style="fill:none;stroke:#fea952;stroke-linecap:square;"/>
   </g>
   <g id="line2d_14">
    <path clip-path="url(#pe07ac9d3ee)" d="M 328.199555 53.568 
L 341.132607 63.47632 
L 345.614981 67.165583 
L 350.079317 71.117396 
L 354.418443 75.353315 
L 358.565398 79.925553 
L 360.550946 82.365122 
L 362.437658 84.890674 
L 364.237617 87.530733 
L 365.930484 90.287781 
L 367.488157 93.143787 
L 368.913044 96.123712 
L 370.169735 99.182328 
L 371.252895 102.298723 
L 372.170336 105.482848 
L 372.916106 108.72649 
L 373.480741 111.999255 
L 373.867203 115.312587 
L 374.066796 118.636646 
L 374.077615 121.994566 
L 373.889598 125.331115 
L 373.500272 128.670503 
L 372.917502 131.919942 
L 372.167038 135.066736 
L 371.278198 138.101576 
L 370.263778 141.06843 
L 367.96669 146.700134 
L 365.426314 152.030441 
L 361.432666 159.561396 
L 358.582714 164.567285 
L 355.499149 169.553692 
L 352.108394 174.479765 
L 348.3346 179.304006 
L 346.293725 181.640375 
L 344.13711 183.924827 
L 341.8804 186.127971 
L 339.524331 188.245051 
L 337.061507 190.276302 
L 334.495 192.207555 
L 331.830137 194.025931 
L 329.056949 195.729298 
L 326.200901 197.290278 
L 323.233738 198.718206 
L 320.178196 199.98634 
L 317.075471 201.073411 
L 313.937841 201.9846 
L 310.780132 202.725413 
L 307.581744 203.308053 
L 304.380784 203.727285 
L 301.184618 203.991951 
L 297.980531 204.110776 
L 294.781779 204.08436 
L 291.607768 203.91755 
L 288.446656 203.615352 
L 285.32964 203.182504 
L 282.25074 202.627157 
L 279.212153 201.954583 
L 276.213829 201.17037 
L 270.374649 199.297769 
L 264.703781 197.046768 
L 259.264022 194.480319 
L 254.065273 191.655472 
L 249.10602 188.655557 
L 244.366135 185.551871 
L 237.563551 180.819704 
L 224.630816 171.700883 
L 218.264265 167.526535 
L 214.008391 164.960082 
L 209.739057 162.615212 
L 205.486262 160.562225 
L 201.249714 158.854201 
L 197.062584 157.54277 
L 192.888931 156.659823 
L 190.789574 156.38784 
L 188.661539 156.232769 
L 186.518087 156.195452 
L 184.409646 156.272618 
L 182.31456 156.471495 
L 180.256705 156.787655 
L 178.23679 157.223876 
L 176.289667 157.768358 
L 174.413756 158.425282 
L 172.594112 159.204253 
L 170.819951 160.112795 
L 169.089763 161.152641 
L 167.391881 162.332862 
L 165.75004 163.630808 
L 164.167386 165.04306 
L 162.651993 166.558689 
L 159.846905 169.863003 
L 157.38816 173.466684 
L 155.23472 177.409737 
L 153.287723 181.758714 
L 151.465666 186.465087 
L 145.720088 202.027964 
L 142.420843 209.807107 
L 138.864773 217.430507 
L 135.100253 224.872211 
L 129.093548 236.486329 
L 127.025096 240.908374 
L 125.250593 245.23707 
L 123.754097 249.674047 
L 122.516898 254.259947 
L 121.528208 258.983686 
L 120.770412 263.821475 
L 120.231315 268.758775 
L 119.894676 273.76405 
L 119.741456 278.80397 
L 119.756707 283.875417 
L 120.049892 291.474421 
L 120.219118 294.112202 
L 120.219118 294.112202 
" style="fill:none;stroke:#ffffff;stroke-linecap:square;"/>
   </g>
   <g id="line2d_15">
    <path clip-path="url(#pe07ac9d3ee)" d="M 315.224082 70.69741 
L 327.610511 80.177592 
L 331.55722 83.41855 
L 335.29096 86.70855 
L 338.773851 90.085129 
L 341.938547 93.539054 
L 344.727895 97.062111 
L 347.112326 100.663546 
L 349.077622 104.390246 
L 349.90537 106.333208 
L 350.632662 108.347325 
L 351.251689 110.401158 
L 351.757656 112.48143 
L 352.149284 114.597046 
L 352.423611 116.709701 
L 352.578588 118.827746 
L 352.616119 120.906558 
L 352.530151 122.974506 
L 352.328527 124.991266 
L 351.99264 127.028136 
L 351.523601 129.097809 
L 350.214246 133.335651 
L 348.449902 137.707104 
L 346.321781 142.191924 
L 342.676069 149.074754 
L 340.180618 153.470328 
L 337.61256 157.643632 
L 334.932657 161.565678 
L 332.114682 165.208125 
L 329.081104 168.591978 
L 325.796656 171.71234 
L 322.31632 174.502772 
L 318.669871 176.917382 
L 314.892846 178.913935 
L 312.973671 179.740984 
L 310.988862 180.464366 
L 308.942257 181.084272 
L 304.709621 182.011798 
L 300.313868 182.520543 
L 295.843244 182.621535 
L 291.34251 182.32231 
L 286.842247 181.634358 
L 282.371009 180.582298 
L 277.922304 179.177817 
L 273.552409 177.464088 
L 269.241508 175.447995 
L 264.985072 173.147702 
L 260.747008 170.592695 
L 254.35011 166.348126 
L 243.426772 158.609973 
L 234.301516 152.307496 
L 229.512249 149.216362 
L 224.538573 146.227894 
L 219.315116 143.377784 
L 213.811878 140.751529 
L 210.952423 139.557686 
L 208.013037 138.457215 
L 204.996345 137.468122 
L 201.896164 136.604383 
L 198.726626 135.887198 
L 195.481084 135.32768 
L 192.186688 134.944247 
L 188.872619 134.744748 
L 185.547106 134.728343 
L 182.191955 134.898301 
L 178.850308 135.263512 
L 175.51441 135.828403 
L 172.215783 136.595569 
L 168.935693 137.57681 
L 165.707953 138.77869 
L 162.568997 140.196974 
L 159.545726 141.818769 
L 156.655767 143.626223 
L 153.916158 145.59415 
L 151.313911 147.712964 
L 148.856621 149.964596 
L 146.536219 152.343858 
L 144.371576 154.819725 
L 142.330501 157.414904 
L 140.451142 160.083033 
L 138.718587 162.825883 
L 137.158032 165.58503 
L 135.746887 168.354132 
L 133.320861 173.814909 
L 131.264144 179.138554 
L 125.835411 193.88062 
L 122.849107 200.934299 
L 119.593146 207.923458 
L 116.067503 214.895539 
L 109.712628 227.204114 
L 107.246889 232.505868 
L 104.98145 238.099744 
L 103.077302 243.821718 
L 101.53704 249.609662 
L 100.333847 255.437049 
L 99.431613 261.284694 
L 98.804929 267.118784 
L 98.421684 272.93325 
L 98.252568 278.718442 
L 98.274923 284.434502 
L 98.604921 292.850218 
L 98.774147 295.488 
L 98.774147 295.488 
" style="fill:none;stroke:#ffffff;stroke-linecap:square;"/>
   </g>
   <g id="patch_3">
    <path d="M 57.6 307.584 
L 57.6 41.472 
" style="fill:none;stroke:#000000;stroke-linecap:square;stroke-linejoin:miter;stroke-width:0.8;"/>
   </g>
   <g id="patch_4">
    <path d="M 414.72 307.584 
L 414.72 41.472 
" style="fill:none;stroke:#000000;stroke-linecap:square;stroke-linejoin:miter;stroke-width:0.8;"/>
   </g>
   <g id="patch_5">
    <path d="M 57.6 307.584 
L 414.72 307.584 
" style="fill:none;stroke:#000000;stroke-linecap:square;stroke-linejoin:miter;stroke-width:0.8;"/>
   </g>
   <g id="patch_6">
    <path d="M 57.6 41.472 
L 414.72 41.472 
" style="fill:none;stroke:#000000;stroke-linecap:square;stroke-linejoin:miter;stroke-width:0.8;"/>
   </g>
  </g>
 </g>
 <defs>
  <clipPath id="pe07ac9d3ee">
   <rect height="266.112" width="357.12" x="57.6" y="41.472"/>
  </clipPath>
 </defs>
</svg>
