<?xml version="1.0" encoding="utf-8" standalone="no"?>
<!DOCTYPE svg PUBLIC "-//W3C//DTD SVG 1.1//EN"
  "http://www.w3.org/Graphics/SVG/1.1/DTD/svg11.dtd">
<!-- Created with matplotlib (https://matplotlib.org/) -->
<svg height="345.6pt" version="1.1" viewBox="0 0 460.8 345.6" width="460.8pt" xmlns="http://www.w3.org/2000/svg" xmlns:xlink="http://www.w3.org/1999/xlink">
 <metadata>
  <rdf:RDF xmlns:cc="http://creativecommons.org/ns#" xmlns:dc="http://purl.org/dc/elements/1.1/" xmlns:rdf="http://www.w3.org/1999/02/22-rdf-syntax-ns#">
   <cc:Work>
    <dc:type rdf:resource="http://purl.org/dc/dcmitype/StillImage"/>
    <dc:date>2021-01-23T13:55:54.211360</dc:date>
    <dc:format>image/svg+xml</dc:format>
    <dc:creator>
     <cc:Agent>
      <dc:title>Matplotlib v3.3.3, https://matplotlib.org/</dc:title>
     </cc:Agent>
    </dc:creator>
   </cc:Work>
  </rdf:RDF>
 </metadata>
 <defs>
  <style type="text/css">*{stroke-linecap:butt;stroke-linejoin:round;}</style>
 </defs>
 <g id="figure_1">
  <g id="patch_1">
   <path d="M 0 345.6 
L 460.8 345.6 
L 460.8 0 
L 0 0 
z
" style="fill:#ffffff;"/>
  </g>
  <g id="axes_1">
   <g id="patch_2">
    <path d="M 57.6 307.584 
L 414.72 307.584 
L 414.72 41.472 
L 57.6 41.472 
z
" style="fill:#7d9051;"/>
   </g>
   <g id="matplotlib.axis_1">
    <g id="xtick_1">
     <g id="line2d_1">
      <defs>
       <path d="M 0 0 
L 0 3.5 
" id="me3283db2ae" style="stroke:#000000;stroke-width:0.8;"/>
      </defs>
      <g>
       <use style="stroke:#000000;stroke-width:0.8;" x="66.878148" xlink:href="#me3283db2ae" y="307.584"/>
      </g>
     </g>
     <g id="text_1">
      <!-- 0 -->
      <g transform="translate(63.696898 322.182437)scale(0.1 -0.1)">
       <defs>
        <path d="M 31.78125 66.40625 
Q 24.171875 66.40625 20.328125 58.90625 
Q 16.5 51.421875 16.5 36.375 
Q 16.5 21.390625 20.328125 13.890625 
Q 24.171875 6.390625 31.78125 6.390625 
Q 39.453125 6.390625 43.28125 13.890625 
Q 47.125 21.390625 47.125 36.375 
Q 47.125 51.421875 43.28125 58.90625 
Q 39.453125 66.40625 31.78125 66.40625 
z
M 31.78125 74.21875 
Q 44.046875 74.21875 50.515625 64.515625 
Q 56.984375 54.828125 56.984375 36.375 
Q 56.984375 17.96875 50.515625 8.265625 
Q 44.046875 -1.421875 31.78125 -1.421875 
Q 19.53125 -1.421875 13.0625 8.265625 
Q 6.59375 17.96875 6.59375 36.375 
Q 6.59375 54.828125 13.0625 64.515625 
Q 19.53125 74.21875 31.78125 74.21875 
z
" id="DejaVuSans-48"/>
       </defs>
       <use xlink:href="#DejaVuSans-48"/>
      </g>
     </g>
    </g>
    <g id="xtick_2">
     <g id="line2d_2">
      <g>
       <use style="stroke:#000000;stroke-width:0.8;" x="123.89577" xlink:href="#me3283db2ae" y="307.584"/>
      </g>
     </g>
     <g id="text_2">
      <!-- 20 -->
      <g transform="translate(117.53327 322.182437)scale(0.1 -0.1)">
       <defs>
        <path d="M 19.1875 8.296875 
L 53.609375 8.296875 
L 53.609375 0 
L 7.328125 0 
L 7.328125 8.296875 
Q 12.9375 14.109375 22.625 23.890625 
Q 32.328125 33.6875 34.8125 36.53125 
Q 39.546875 41.84375 41.421875 45.53125 
Q 43.3125 49.21875 43.3125 52.78125 
Q 43.3125 58.59375 39.234375 62.25 
Q 35.15625 65.921875 28.609375 65.921875 
Q 23.96875 65.921875 18.8125 64.3125 
Q 13.671875 62.703125 7.8125 59.421875 
L 7.8125 69.390625 
Q 13.765625 71.78125 18.9375 73 
Q 24.125 74.21875 28.421875 74.21875 
Q 39.75 74.21875 46.484375 68.546875 
Q 53.21875 62.890625 53.21875 53.421875 
Q 53.21875 48.921875 51.53125 44.890625 
Q 49.859375 40.875 45.40625 35.40625 
Q 44.1875 33.984375 37.640625 27.21875 
Q 31.109375 20.453125 19.1875 8.296875 
z
" id="DejaVuSans-50"/>
       </defs>
       <use xlink:href="#DejaVuSans-50"/>
       <use x="63.623047" xlink:href="#DejaVuSans-48"/>
      </g>
     </g>
    </g>
    <g id="xtick_3">
     <g id="line2d_3">
      <g>
       <use style="stroke:#000000;stroke-width:0.8;" x="180.913392" xlink:href="#me3283db2ae" y="307.584"/>
      </g>
     </g>
     <g id="text_3">
      <!-- 40 -->
      <g transform="translate(174.550892 322.182437)scale(0.1 -0.1)">
       <defs>
        <path d="M 37.796875 64.3125 
L 12.890625 25.390625 
L 37.796875 25.390625 
z
M 35.203125 72.90625 
L 47.609375 72.90625 
L 47.609375 25.390625 
L 58.015625 25.390625 
L 58.015625 17.1875 
L 47.609375 17.1875 
L 47.609375 0 
L 37.796875 0 
L 37.796875 17.1875 
L 4.890625 17.1875 
L 4.890625 26.703125 
z
" id="DejaVuSans-52"/>
       </defs>
       <use xlink:href="#DejaVuSans-52"/>
       <use x="63.623047" xlink:href="#DejaVuSans-48"/>
      </g>
     </g>
    </g>
    <g id="xtick_4">
     <g id="line2d_4">
      <g>
       <use style="stroke:#000000;stroke-width:0.8;" x="237.931014" xlink:href="#me3283db2ae" y="307.584"/>
      </g>
     </g>
     <g id="text_4">
      <!-- 60 -->
      <g transform="translate(231.568514 322.182437)scale(0.1 -0.1)">
       <defs>
        <path d="M 33.015625 40.375 
Q 26.375 40.375 22.484375 35.828125 
Q 18.609375 31.296875 18.609375 23.390625 
Q 18.609375 15.53125 22.484375 10.953125 
Q 26.375 6.390625 33.015625 6.390625 
Q 39.65625 6.390625 43.53125 10.953125 
Q 47.40625 15.53125 47.40625 23.390625 
Q 47.40625 31.296875 43.53125 35.828125 
Q 39.65625 40.375 33.015625 40.375 
z
M 52.59375 71.296875 
L 52.59375 62.3125 
Q 48.875 64.0625 45.09375 64.984375 
Q 41.3125 65.921875 37.59375 65.921875 
Q 27.828125 65.921875 22.671875 59.328125 
Q 17.53125 52.734375 16.796875 39.40625 
Q 19.671875 43.65625 24.015625 45.921875 
Q 28.375 48.1875 33.59375 48.1875 
Q 44.578125 48.1875 50.953125 41.515625 
Q 57.328125 34.859375 57.328125 23.390625 
Q 57.328125 12.15625 50.6875 5.359375 
Q 44.046875 -1.421875 33.015625 -1.421875 
Q 20.359375 -1.421875 13.671875 8.265625 
Q 6.984375 17.96875 6.984375 36.375 
Q 6.984375 53.65625 15.1875 63.9375 
Q 23.390625 74.21875 37.203125 74.21875 
Q 40.921875 74.21875 44.703125 73.484375 
Q 48.484375 72.75 52.59375 71.296875 
z
" id="DejaVuSans-54"/>
       </defs>
       <use xlink:href="#DejaVuSans-54"/>
       <use x="63.623047" xlink:href="#DejaVuSans-48"/>
      </g>
     </g>
    </g>
    <g id="xtick_5">
     <g id="line2d_5">
      <g>
       <use style="stroke:#000000;stroke-width:0.8;" x="294.948636" xlink:href="#me3283db2ae" y="307.584"/>
      </g>
     </g>
     <g id="text_5">
      <!-- 80 -->
      <g transform="translate(288.586136 322.182437)scale(0.1 -0.1)">
       <defs>
        <path d="M 31.78125 34.625 
Q 24.75 34.625 20.71875 30.859375 
Q 16.703125 27.09375 16.703125 20.515625 
Q 16.703125 13.921875 20.71875 10.15625 
Q 24.75 6.390625 31.78125 6.390625 
Q 38.8125 6.390625 42.859375 10.171875 
Q 46.921875 13.96875 46.921875 20.515625 
Q 46.921875 27.09375 42.890625 30.859375 
Q 38.875 34.625 31.78125 34.625 
z
M 21.921875 38.8125 
Q 15.578125 40.375 12.03125 44.71875 
Q 8.5 49.078125 8.5 55.328125 
Q 8.5 64.0625 14.71875 69.140625 
Q 20.953125 74.21875 31.78125 74.21875 
Q 42.671875 74.21875 48.875 69.140625 
Q 55.078125 64.0625 55.078125 55.328125 
Q 55.078125 49.078125 51.53125 44.71875 
Q 48 40.375 41.703125 38.8125 
Q 48.828125 37.15625 52.796875 32.3125 
Q 56.78125 27.484375 56.78125 20.515625 
Q 56.78125 9.90625 50.3125 4.234375 
Q 43.84375 -1.421875 31.78125 -1.421875 
Q 19.734375 -1.421875 13.25 4.234375 
Q 6.78125 9.90625 6.78125 20.515625 
Q 6.78125 27.484375 10.78125 32.3125 
Q 14.796875 37.15625 21.921875 38.8125 
z
M 18.3125 54.390625 
Q 18.3125 48.734375 21.84375 45.5625 
Q 25.390625 42.390625 31.78125 42.390625 
Q 38.140625 42.390625 41.71875 45.5625 
Q 45.3125 48.734375 45.3125 54.390625 
Q 45.3125 60.0625 41.71875 63.234375 
Q 38.140625 66.40625 31.78125 66.40625 
Q 25.390625 66.40625 21.84375 63.234375 
Q 18.3125 60.0625 18.3125 54.390625 
z
" id="DejaVuSans-56"/>
       </defs>
       <use xlink:href="#DejaVuSans-56"/>
       <use x="63.623047" xlink:href="#DejaVuSans-48"/>
      </g>
     </g>
    </g>
    <g id="xtick_6">
     <g id="line2d_6">
      <g>
       <use style="stroke:#000000;stroke-width:0.8;" x="351.966258" xlink:href="#me3283db2ae" y="307.584"/>
      </g>
     </g>
     <g id="text_6">
      <!-- 100 -->
      <g transform="translate(342.422508 322.182437)scale(0.1 -0.1)">
       <defs>
        <path d="M 12.40625 8.296875 
L 28.515625 8.296875 
L 28.515625 63.921875 
L 10.984375 60.40625 
L 10.984375 69.390625 
L 28.421875 72.90625 
L 38.28125 72.90625 
L 38.28125 8.296875 
L 54.390625 8.296875 
L 54.390625 0 
L 12.40625 0 
z
" id="DejaVuSans-49"/>
       </defs>
       <use xlink:href="#DejaVuSans-49"/>
       <use x="63.623047" xlink:href="#DejaVuSans-48"/>
       <use x="127.246094" xlink:href="#DejaVuSans-48"/>
      </g>
     </g>
    </g>
    <g id="xtick_7">
     <g id="line2d_7">
      <g>
       <use style="stroke:#000000;stroke-width:0.8;" x="408.983879" xlink:href="#me3283db2ae" y="307.584"/>
      </g>
     </g>
     <g id="text_7">
      <!-- 120 -->
      <g transform="translate(399.440129 322.182437)scale(0.1 -0.1)">
       <use xlink:href="#DejaVuSans-49"/>
       <use x="63.623047" xlink:href="#DejaVuSans-50"/>
       <use x="127.246094" xlink:href="#DejaVuSans-48"/>
      </g>
     </g>
    </g>
   </g>
   <g id="matplotlib.axis_2">
    <g id="ytick_1">
     <g id="line2d_8">
      <defs>
       <path d="M 0 0 
L -3.5 0 
" id="m777ed47b6e" style="stroke:#000000;stroke-width:0.8;"/>
      </defs>
      <g>
       <use style="stroke:#000000;stroke-width:0.8;" x="57.6" xlink:href="#m777ed47b6e" y="255.703821"/>
      </g>
     </g>
     <g id="text_8">
      <!-- 20 -->
      <g transform="translate(37.875 259.503039)scale(0.1 -0.1)">
       <use xlink:href="#DejaVuSans-50"/>
       <use x="63.623047" xlink:href="#DejaVuSans-48"/>
      </g>
     </g>
    </g>
    <g id="ytick_2">
     <g id="line2d_9">
      <g>
       <use style="stroke:#000000;stroke-width:0.8;" x="57.6" xlink:href="#m777ed47b6e" y="198.686199"/>
      </g>
     </g>
     <g id="text_9">
      <!-- 40 -->
      <g transform="translate(37.875 202.485417)scale(0.1 -0.1)">
       <use xlink:href="#DejaVuSans-52"/>
       <use x="63.623047" xlink:href="#DejaVuSans-48"/>
      </g>
     </g>
    </g>
    <g id="ytick_3">
     <g id="line2d_10">
      <g>
       <use style="stroke:#000000;stroke-width:0.8;" x="57.6" xlink:href="#m777ed47b6e" y="141.668577"/>
      </g>
     </g>
     <g id="text_10">
      <!-- 60 -->
      <g transform="translate(37.875 145.467796)scale(0.1 -0.1)">
       <use xlink:href="#DejaVuSans-54"/>
       <use x="63.623047" xlink:href="#DejaVuSans-48"/>
      </g>
     </g>
    </g>
    <g id="ytick_4">
     <g id="line2d_11">
      <g>
       <use style="stroke:#000000;stroke-width:0.8;" x="57.6" xlink:href="#m777ed47b6e" y="84.650955"/>
      </g>
     </g>
     <g id="text_11">
      <!-- 80 -->
      <g transform="translate(37.875 88.450174)scale(0.1 -0.1)">
       <use xlink:href="#DejaVuSans-56"/>
       <use x="63.623047" xlink:href="#DejaVuSans-48"/>
      </g>
     </g>
    </g>
   </g>
   <g id="line2d_12">
    <path clip-path="url(#p232c414740)" d="M 95.386959 153.759164 
L 94.602967 148.165735 
L 94.203843 142.475376 
L 94.200993 136.728 
L 94.600116 130.972071 
L 95.409766 125.250353 
L 96.638496 119.608459 
L 97.413936 116.831701 
L 98.294858 114.092004 
L 99.286964 111.39507 
L 100.390255 108.746602 
L 101.60188 106.149449 
L 102.92754 103.615016 
L 104.364384 101.146153 
L 105.918114 98.748562 
L 107.583028 96.425094 
L 109.359127 94.18145 
L 111.237858 92.017632 
L 113.216369 89.939339 
L 115.286109 87.943723 
L 117.438524 86.036483 
L 119.673615 84.220472 
L 121.979978 82.495689 
L 124.354762 80.864985 
L 126.792265 79.331211 
L 131.832623 76.560154 
L 137.061139 74.18537 
L 142.440752 72.204008 
L 147.942952 70.618918 
L 153.527828 69.430101 
L 159.16402 68.623301 
L 164.840124 68.127248 
L 170.541887 67.847862 
L 184.836204 67.539967 
L 196.24543 67.186457 
L 207.623297 66.627685 
L 233.204253 65.079656 
L 238.934524 64.971323 
L 244.690453 65.062551 
L 250.437829 65.433165 
L 256.125337 66.165842 
L 258.936306 66.693255 
L 261.713064 67.343256 
L 264.452761 68.124397 
L 267.149694 69.048083 
L 269.798163 70.122865 
L 272.389614 71.343042 
L 274.921196 72.702912 
L 277.384357 74.196774 
L 279.770545 75.816074 
L 282.079758 77.552261 
L 284.300595 79.405334 
L 286.430203 81.363889 
L 288.457179 83.422225 
L 290.381524 85.57179 
L 292.194685 87.809731 
L 293.89381 90.127498 
L 295.4789 92.522238 
L 296.955656 94.985399 
L 298.315526 97.51413 
L 299.564212 100.09988 
L 300.698863 102.739795 
L 301.722329 105.428176 
L 302.628909 108.15647 
L 303.424305 110.924675 
L 304.102815 113.721389 
L 304.67014 116.543762 
L 305.120579 119.38609 
L 305.459834 122.242673 
L 305.799089 127.975795 
L 305.799089 130.843781 
L 305.687905 133.706066 
L 305.129132 139.38217 
L 304.142727 144.975599 
L 302.828471 150.503457 
L 300.485047 158.739653 
L 297.283507 169.772563 
L 295.889426 175.357439 
L 294.749074 180.982227 
L 293.939424 186.635524 
L 293.685695 189.4693 
L 293.546002 192.305927 
L 293.528897 195.145404 
L 293.642932 197.984882 
L 293.885257 200.818658 
L 294.247319 203.649583 
L 295.302145 209.277222 
L 296.753243 214.842142 
L 298.540746 220.315834 
L 300.616187 225.67549 
L 302.945357 230.901155 
L 305.536808 235.987127 
L 308.39054 240.927704 
L 311.512255 245.717184 
L 314.904803 250.347015 
L 318.565335 254.782986 
L 322.502401 258.973781 
L 326.710302 262.865234 
L 328.914033 264.678394 
L 331.189036 266.397476 
L 333.529609 268.011074 
L 335.938604 269.51919 
L 338.410318 270.921824 
L 343.521948 273.430599 
L 348.824587 275.585865 
L 354.275471 277.424684 
L 359.83754 278.992668 
L 365.46803 280.329731 
L 371.127029 281.478637 
L 379.579892 282.938288 
L 387.864552 284.212631 
L 387.864552 284.212631 
" style="fill:none;stroke:#fea952;stroke-linecap:square;"/>
   </g>
   <g id="line2d_13">
    <path clip-path="url(#p232c414740)" d="M 84.122793 155.536501 
L 83.629308 152.365702 
L 83.242872 149.160029 
L 82.967335 145.934297 
L 82.80214 142.67918 
L 82.750621 139.412435 
L 82.812552 136.141664 
L 82.988838 132.857812 
L 83.282244 129.577025 
L 83.693041 126.304191 
L 84.223812 123.033418 
L 84.876642 119.78087 
L 85.655207 116.541257 
L 86.557807 113.341021 
L 87.592509 110.154988 
L 88.760299 107.009904 
L 90.055994 103.925459 
L 91.497166 100.864081 
L 93.071642 97.87902 
L 94.794601 94.94457 
L 96.648685 92.106419 
L 98.641912 89.347184 
L 100.74835 86.705163 
L 102.978517 84.15483 
L 105.301196 81.730174 
L 107.723361 79.408782 
L 110.247546 77.186048 
L 112.84415 75.088179 
L 115.524822 73.095086 
L 118.281508 71.213252 
L 121.108999 69.444813 
L 123.984491 67.801375 
L 126.919321 66.26939 
L 129.907426 64.851947 
L 132.925787 63.558083 
L 135.989853 62.3739 
L 139.094311 61.302554 
L 142.214612 60.351905 
L 145.372948 59.508768 
L 148.551066 58.780863 
L 154.901904 57.67024 
L 161.142375 56.969669 
L 167.221468 56.570777 
L 176.053287 56.300778 
L 192.972907 55.896213 
L 204.141458 55.401756 
L 215.338599 54.696354 
L 226.929606 53.944116 
L 235.927805 53.602819 
L 242.104522 53.58868 
L 248.458868 53.839352 
L 254.948745 54.467144 
L 258.228248 54.957892 
L 261.535452 55.589886 
L 264.839824 56.376773 
L 268.147702 57.336081 
L 271.437752 58.481488 
L 274.655936 59.805772 
L 277.7859 61.297125 
L 280.834663 62.952462 
L 283.787728 64.760821 
L 286.623457 66.701363 
L 289.385643 68.796439 
L 292.019965 71.011783 
L 294.55537 73.362513 
L 296.953494 75.816108 
L 299.241963 78.393141 
L 301.391622 81.067573 
L 303.402963 83.833344 
L 305.259338 86.658502 
L 306.999037 89.584393 
L 308.584377 92.555192 
L 310.041018 95.59689 
L 311.356211 98.682544 
L 312.54405 101.832244 
L 313.588973 105.007285 
L 314.506351 108.236065 
L 315.282714 111.474117 
L 315.93311 114.758858 
L 316.444524 118.041231 
L 316.82829 121.349033 
L 317.079575 124.654746 
L 317.202613 127.975795 
L 317.19402 131.286413 
L 317.055869 134.605935 
L 316.787869 137.885632 
L 316.391995 141.167746 
L 315.266827 147.484536 
L 313.832809 153.494263 
L 311.413559 161.996644 
L 308.32015 172.641864 
L 307.035329 177.76767 
L 306.008311 182.790529 
L 305.297511 187.652496 
L 304.94932 192.374621 
L 305.00499 197.013277 
L 305.493527 201.761948 
L 306.383562 206.586021 
L 307.642687 211.456823 
L 309.228378 216.33904 
L 311.090026 221.165605 
L 313.172165 225.856082 
L 315.485869 230.414285 
L 318.026683 234.829743 
L 320.802402 239.104051 
L 323.807252 243.220531 
L 327.00377 247.112708 
L 330.399941 250.74765 
L 333.955611 254.059221 
L 337.661589 257.008843 
L 341.566745 259.601308 
L 345.763307 261.891869 
L 350.272781 263.917542 
L 355.026455 265.687633 
L 360.015578 267.229808 
L 365.1782 268.568884 
L 370.487619 269.734046 
L 378.615961 271.225414 
L 389.569379 272.937263 
L 389.569379 272.937263 
" style="fill:none;stroke:#ffffff;stroke-linecap:square;"/>
   </g>
   <g id="line2d_14">
    <path clip-path="url(#p232c414740)" d="M 106.651125 151.981826 
L 105.963061 147.171441 
L 105.605547 142.271572 
L 105.589433 137.314335 
L 105.917987 132.367117 
L 106.59572 127.467287 
L 107.621785 122.675661 
L 108.997207 118.02902 
L 110.724517 113.567745 
L 112.783437 109.351012 
L 113.934166 107.347736 
L 116.524144 103.503004 
L 119.497199 99.880434 
L 122.848858 96.478663 
L 126.50308 93.352765 
L 130.428016 90.516718 
L 134.589082 87.99306 
L 138.940721 85.793797 
L 143.480678 83.915697 
L 148.146285 82.374092 
L 152.90546 81.168375 
L 157.781392 80.294785 
L 162.853217 79.712459 
L 168.154841 79.358719 
L 176.46252 79.104155 
L 193.816191 78.687667 
L 205.420479 78.172912 
L 216.939159 77.447171 
L 228.069673 76.722653 
L 236.199568 76.408248 
L 241.517604 76.388176 
L 246.675116 76.57654 
L 251.634378 77.032082 
L 256.33716 77.796624 
L 260.757819 78.912714 
L 262.861636 79.614677 
L 264.940389 80.439958 
L 266.993327 81.388959 
L 269.007729 82.453362 
L 270.980986 83.632727 
L 274.773874 86.308083 
L 276.581225 87.798885 
L 278.305036 89.365266 
L 281.521085 92.750438 
L 282.997747 94.55189 
L 284.384656 96.421651 
L 286.912275 100.386405 
L 289.087407 104.602869 
L 290.900608 109.024109 
L 292.342259 113.613286 
L 293.40717 118.328666 
L 294.091379 123.136313 
L 294.395565 127.975795 
L 294.319941 132.806197 
L 293.866269 137.596594 
L 293.018627 142.466662 
L 291.824133 147.512652 
L 289.556535 155.482661 
L 286.246865 166.903261 
L 284.743523 172.947208 
L 283.489837 179.173925 
L 282.98155 182.38035 
L 282.581337 185.618553 
L 282.295974 188.908399 
L 282.142685 192.237232 
L 282.134558 195.603008 
L 282.280875 198.956486 
L 282.573869 202.265331 
L 283.00111 205.537217 
L 283.554011 208.781771 
L 284.996074 215.133659 
L 286.819906 221.28735 
L 288.965749 227.271352 
L 291.392055 233.078417 
L 294.115629 238.76958 
L 297.132398 244.309466 
L 300.449587 249.696764 
L 304.069174 254.917674 
L 308.014016 259.978428 
L 312.319631 264.85641 
L 314.604862 267.199913 
L 316.987599 269.476424 
L 319.464993 271.671247 
L 322.039127 273.776528 
L 324.716483 275.786108 
L 327.478558 277.676743 
L 330.310463 279.437073 
L 333.187451 281.058985 
L 336.114792 282.557484 
L 342.033841 285.184449 
L 348.045094 287.39989 
L 354.077478 289.250263 
L 360.118818 290.807682 
L 366.110291 292.117085 
L 374.933288 293.733177 
L 386.159726 295.488 
L 386.159726 295.488 
" style="fill:none;stroke:#ffffff;stroke-linecap:square;"/>
   </g>
   <g id="patch_3">
    <path d="M 57.6 307.584 
L 57.6 41.472 
" style="fill:none;stroke:#000000;stroke-linecap:square;stroke-linejoin:miter;stroke-width:0.8;"/>
   </g>
   <g id="patch_4">
    <path d="M 414.72 307.584 
L 414.72 41.472 
" style="fill:none;stroke:#000000;stroke-linecap:square;stroke-linejoin:miter;stroke-width:0.8;"/>
   </g>
   <g id="patch_5">
    <path d="M 57.6 307.584 
L 414.72 307.584 
" style="fill:none;stroke:#000000;stroke-linecap:square;stroke-linejoin:miter;stroke-width:0.8;"/>
   </g>
   <g id="patch_6">
    <path d="M 57.6 41.472 
L 414.72 41.472 
" style="fill:none;stroke:#000000;stroke-linecap:square;stroke-linejoin:miter;stroke-width:0.8;"/>
   </g>
  </g>
 </g>
 <defs>
  <clipPath id="p232c414740">
   <rect height="266.112" width="357.12" x="57.6" y="41.472"/>
  </clipPath>
 </defs>
</svg>
