<?xml version="1.0" encoding="utf-8" standalone="no"?>
<!DOCTYPE svg PUBLIC "-//W3C//DTD SVG 1.1//EN"
  "http://www.w3.org/Graphics/SVG/1.1/DTD/svg11.dtd">
<!-- Created with matplotlib (https://matplotlib.org/) -->
<svg height="345.6pt" version="1.1" viewBox="0 0 460.8 345.6" width="460.8pt" xmlns="http://www.w3.org/2000/svg" xmlns:xlink="http://www.w3.org/1999/xlink">
 <metadata>
  <rdf:RDF xmlns:cc="http://creativecommons.org/ns#" xmlns:dc="http://purl.org/dc/elements/1.1/" xmlns:rdf="http://www.w3.org/1999/02/22-rdf-syntax-ns#">
   <cc:Work>
    <dc:type rdf:resource="http://purl.org/dc/dcmitype/StillImage"/>
    <dc:date>2021-01-22T09:22:02.834487</dc:date>
    <dc:format>image/svg+xml</dc:format>
    <dc:creator>
     <cc:Agent>
      <dc:title>Matplotlib v3.3.3, https://matplotlib.org/</dc:title>
     </cc:Agent>
    </dc:creator>
   </cc:Work>
  </rdf:RDF>
 </metadata>
 <defs>
  <style type="text/css">*{stroke-linecap:butt;stroke-linejoin:round;}</style>
 </defs>
 <g id="figure_1">
  <g id="patch_1">
   <path d="M 0 345.6 
L 460.8 345.6 
L 460.8 0 
L 0 0 
z
" style="fill:#ffffff;"/>
  </g>
  <g id="axes_1">
   <g id="patch_2">
    <path d="M 57.6 307.584 
L 414.72 307.584 
L 414.72 41.472 
L 57.6 41.472 
z
" style="fill:#7d9051;"/>
   </g>
   <g id="matplotlib.axis_1">
    <g id="xtick_1">
     <g id="line2d_1">
      <defs>
       <path d="M 0 0 
L 0 3.5 
" id="m8f2cb4e246" style="stroke:#000000;stroke-width:0.8;"/>
      </defs>
      <g>
       <use style="stroke:#000000;stroke-width:0.8;" x="118.062561" xlink:href="#m8f2cb4e246" y="307.584"/>
      </g>
     </g>
     <g id="text_1">
      <!-- 20 -->
      <g transform="translate(111.700061 322.182437)scale(0.1 -0.1)">
       <defs>
        <path d="M 19.1875 8.296875 
L 53.609375 8.296875 
L 53.609375 0 
L 7.328125 0 
L 7.328125 8.296875 
Q 12.9375 14.109375 22.625 23.890625 
Q 32.328125 33.6875 34.8125 36.53125 
Q 39.546875 41.84375 41.421875 45.53125 
Q 43.3125 49.21875 43.3125 52.78125 
Q 43.3125 58.59375 39.234375 62.25 
Q 35.15625 65.921875 28.609375 65.921875 
Q 23.96875 65.921875 18.8125 64.3125 
Q 13.671875 62.703125 7.8125 59.421875 
L 7.8125 69.390625 
Q 13.765625 71.78125 18.9375 73 
Q 24.125 74.21875 28.421875 74.21875 
Q 39.75 74.21875 46.484375 68.546875 
Q 53.21875 62.890625 53.21875 53.421875 
Q 53.21875 48.921875 51.53125 44.890625 
Q 49.859375 40.875 45.40625 35.40625 
Q 44.1875 33.984375 37.640625 27.21875 
Q 31.109375 20.453125 19.1875 8.296875 
z
" id="DejaVuSans-50"/>
        <path d="M 31.78125 66.40625 
Q 24.171875 66.40625 20.328125 58.90625 
Q 16.5 51.421875 16.5 36.375 
Q 16.5 21.390625 20.328125 13.890625 
Q 24.171875 6.390625 31.78125 6.390625 
Q 39.453125 6.390625 43.28125 13.890625 
Q 47.125 21.390625 47.125 36.375 
Q 47.125 51.421875 43.28125 58.90625 
Q 39.453125 66.40625 31.78125 66.40625 
z
M 31.78125 74.21875 
Q 44.046875 74.21875 50.515625 64.515625 
Q 56.984375 54.828125 56.984375 36.375 
Q 56.984375 17.96875 50.515625 8.265625 
Q 44.046875 -1.421875 31.78125 -1.421875 
Q 19.53125 -1.421875 13.0625 8.265625 
Q 6.59375 17.96875 6.59375 36.375 
Q 6.59375 54.828125 13.0625 64.515625 
Q 19.53125 74.21875 31.78125 74.21875 
z
" id="DejaVuSans-48"/>
       </defs>
       <use xlink:href="#DejaVuSans-50"/>
       <use x="63.623047" xlink:href="#DejaVuSans-48"/>
      </g>
     </g>
    </g>
    <g id="xtick_2">
     <g id="line2d_2">
      <g>
       <use style="stroke:#000000;stroke-width:0.8;" x="185.975499" xlink:href="#m8f2cb4e246" y="307.584"/>
      </g>
     </g>
     <g id="text_2">
      <!-- 40 -->
      <g transform="translate(179.612999 322.182437)scale(0.1 -0.1)">
       <defs>
        <path d="M 37.796875 64.3125 
L 12.890625 25.390625 
L 37.796875 25.390625 
z
M 35.203125 72.90625 
L 47.609375 72.90625 
L 47.609375 25.390625 
L 58.015625 25.390625 
L 58.015625 17.1875 
L 47.609375 17.1875 
L 47.609375 0 
L 37.796875 0 
L 37.796875 17.1875 
L 4.890625 17.1875 
L 4.890625 26.703125 
z
" id="DejaVuSans-52"/>
       </defs>
       <use xlink:href="#DejaVuSans-52"/>
       <use x="63.623047" xlink:href="#DejaVuSans-48"/>
      </g>
     </g>
    </g>
    <g id="xtick_3">
     <g id="line2d_3">
      <g>
       <use style="stroke:#000000;stroke-width:0.8;" x="253.888436" xlink:href="#m8f2cb4e246" y="307.584"/>
      </g>
     </g>
     <g id="text_3">
      <!-- 60 -->
      <g transform="translate(247.525936 322.182437)scale(0.1 -0.1)">
       <defs>
        <path d="M 33.015625 40.375 
Q 26.375 40.375 22.484375 35.828125 
Q 18.609375 31.296875 18.609375 23.390625 
Q 18.609375 15.53125 22.484375 10.953125 
Q 26.375 6.390625 33.015625 6.390625 
Q 39.65625 6.390625 43.53125 10.953125 
Q 47.40625 15.53125 47.40625 23.390625 
Q 47.40625 31.296875 43.53125 35.828125 
Q 39.65625 40.375 33.015625 40.375 
z
M 52.59375 71.296875 
L 52.59375 62.3125 
Q 48.875 64.0625 45.09375 64.984375 
Q 41.3125 65.921875 37.59375 65.921875 
Q 27.828125 65.921875 22.671875 59.328125 
Q 17.53125 52.734375 16.796875 39.40625 
Q 19.671875 43.65625 24.015625 45.921875 
Q 28.375 48.1875 33.59375 48.1875 
Q 44.578125 48.1875 50.953125 41.515625 
Q 57.328125 34.859375 57.328125 23.390625 
Q 57.328125 12.15625 50.6875 5.359375 
Q 44.046875 -1.421875 33.015625 -1.421875 
Q 20.359375 -1.421875 13.671875 8.265625 
Q 6.984375 17.96875 6.984375 36.375 
Q 6.984375 53.65625 15.1875 63.9375 
Q 23.390625 74.21875 37.203125 74.21875 
Q 40.921875 74.21875 44.703125 73.484375 
Q 48.484375 72.75 52.59375 71.296875 
z
" id="DejaVuSans-54"/>
       </defs>
       <use xlink:href="#DejaVuSans-54"/>
       <use x="63.623047" xlink:href="#DejaVuSans-48"/>
      </g>
     </g>
    </g>
    <g id="xtick_4">
     <g id="line2d_4">
      <g>
       <use style="stroke:#000000;stroke-width:0.8;" x="321.801374" xlink:href="#m8f2cb4e246" y="307.584"/>
      </g>
     </g>
     <g id="text_4">
      <!-- 80 -->
      <g transform="translate(315.438874 322.182437)scale(0.1 -0.1)">
       <defs>
        <path d="M 31.78125 34.625 
Q 24.75 34.625 20.71875 30.859375 
Q 16.703125 27.09375 16.703125 20.515625 
Q 16.703125 13.921875 20.71875 10.15625 
Q 24.75 6.390625 31.78125 6.390625 
Q 38.8125 6.390625 42.859375 10.171875 
Q 46.921875 13.96875 46.921875 20.515625 
Q 46.921875 27.09375 42.890625 30.859375 
Q 38.875 34.625 31.78125 34.625 
z
M 21.921875 38.8125 
Q 15.578125 40.375 12.03125 44.71875 
Q 8.5 49.078125 8.5 55.328125 
Q 8.5 64.0625 14.71875 69.140625 
Q 20.953125 74.21875 31.78125 74.21875 
Q 42.671875 74.21875 48.875 69.140625 
Q 55.078125 64.0625 55.078125 55.328125 
Q 55.078125 49.078125 51.53125 44.71875 
Q 48 40.375 41.703125 38.8125 
Q 48.828125 37.15625 52.796875 32.3125 
Q 56.78125 27.484375 56.78125 20.515625 
Q 56.78125 9.90625 50.3125 4.234375 
Q 43.84375 -1.421875 31.78125 -1.421875 
Q 19.734375 -1.421875 13.25 4.234375 
Q 6.78125 9.90625 6.78125 20.515625 
Q 6.78125 27.484375 10.78125 32.3125 
Q 14.796875 37.15625 21.921875 38.8125 
z
M 18.3125 54.390625 
Q 18.3125 48.734375 21.84375 45.5625 
Q 25.390625 42.390625 31.78125 42.390625 
Q 38.140625 42.390625 41.71875 45.5625 
Q 45.3125 48.734375 45.3125 54.390625 
Q 45.3125 60.0625 41.71875 63.234375 
Q 38.140625 66.40625 31.78125 66.40625 
Q 25.390625 66.40625 21.84375 63.234375 
Q 18.3125 60.0625 18.3125 54.390625 
z
" id="DejaVuSans-56"/>
       </defs>
       <use xlink:href="#DejaVuSans-56"/>
       <use x="63.623047" xlink:href="#DejaVuSans-48"/>
      </g>
     </g>
    </g>
    <g id="xtick_5">
     <g id="line2d_5">
      <g>
       <use style="stroke:#000000;stroke-width:0.8;" x="389.714311" xlink:href="#m8f2cb4e246" y="307.584"/>
      </g>
     </g>
     <g id="text_5">
      <!-- 100 -->
      <g transform="translate(380.170561 322.182437)scale(0.1 -0.1)">
       <defs>
        <path d="M 12.40625 8.296875 
L 28.515625 8.296875 
L 28.515625 63.921875 
L 10.984375 60.40625 
L 10.984375 69.390625 
L 28.421875 72.90625 
L 38.28125 72.90625 
L 38.28125 8.296875 
L 54.390625 8.296875 
L 54.390625 0 
L 12.40625 0 
z
" id="DejaVuSans-49"/>
       </defs>
       <use xlink:href="#DejaVuSans-49"/>
       <use x="63.623047" xlink:href="#DejaVuSans-48"/>
       <use x="127.246094" xlink:href="#DejaVuSans-48"/>
      </g>
     </g>
    </g>
   </g>
   <g id="matplotlib.axis_2">
    <g id="ytick_1">
     <g id="line2d_6">
      <defs>
       <path d="M 0 0 
L -3.5 0 
" id="m64e14123b5" style="stroke:#000000;stroke-width:0.8;"/>
      </defs>
      <g>
       <use style="stroke:#000000;stroke-width:0.8;" x="57.6" xlink:href="#m64e14123b5" y="294.474542"/>
      </g>
     </g>
     <g id="text_6">
      <!-- 10 -->
      <g transform="translate(37.875 298.273761)scale(0.1 -0.1)">
       <use xlink:href="#DejaVuSans-49"/>
       <use x="63.623047" xlink:href="#DejaVuSans-48"/>
      </g>
     </g>
    </g>
    <g id="ytick_2">
     <g id="line2d_7">
      <g>
       <use style="stroke:#000000;stroke-width:0.8;" x="57.6" xlink:href="#m64e14123b5" y="260.518073"/>
      </g>
     </g>
     <g id="text_7">
      <!-- 20 -->
      <g transform="translate(37.875 264.317292)scale(0.1 -0.1)">
       <use xlink:href="#DejaVuSans-50"/>
       <use x="63.623047" xlink:href="#DejaVuSans-48"/>
      </g>
     </g>
    </g>
    <g id="ytick_3">
     <g id="line2d_8">
      <g>
       <use style="stroke:#000000;stroke-width:0.8;" x="57.6" xlink:href="#m64e14123b5" y="226.561605"/>
      </g>
     </g>
     <g id="text_8">
      <!-- 30 -->
      <g transform="translate(37.875 230.360823)scale(0.1 -0.1)">
       <defs>
        <path d="M 40.578125 39.3125 
Q 47.65625 37.796875 51.625 33 
Q 55.609375 28.21875 55.609375 21.1875 
Q 55.609375 10.40625 48.1875 4.484375 
Q 40.765625 -1.421875 27.09375 -1.421875 
Q 22.515625 -1.421875 17.65625 -0.515625 
Q 12.796875 0.390625 7.625 2.203125 
L 7.625 11.71875 
Q 11.71875 9.328125 16.59375 8.109375 
Q 21.484375 6.890625 26.8125 6.890625 
Q 36.078125 6.890625 40.9375 10.546875 
Q 45.796875 14.203125 45.796875 21.1875 
Q 45.796875 27.640625 41.28125 31.265625 
Q 36.765625 34.90625 28.71875 34.90625 
L 20.21875 34.90625 
L 20.21875 43.015625 
L 29.109375 43.015625 
Q 36.375 43.015625 40.234375 45.921875 
Q 44.09375 48.828125 44.09375 54.296875 
Q 44.09375 59.90625 40.109375 62.90625 
Q 36.140625 65.921875 28.71875 65.921875 
Q 24.65625 65.921875 20.015625 65.03125 
Q 15.375 64.15625 9.8125 62.3125 
L 9.8125 71.09375 
Q 15.4375 72.65625 20.34375 73.4375 
Q 25.25 74.21875 29.59375 74.21875 
Q 40.828125 74.21875 47.359375 69.109375 
Q 53.90625 64.015625 53.90625 55.328125 
Q 53.90625 49.265625 50.4375 45.09375 
Q 46.96875 40.921875 40.578125 39.3125 
z
" id="DejaVuSans-51"/>
       </defs>
       <use xlink:href="#DejaVuSans-51"/>
       <use x="63.623047" xlink:href="#DejaVuSans-48"/>
      </g>
     </g>
    </g>
    <g id="ytick_4">
     <g id="line2d_9">
      <g>
       <use style="stroke:#000000;stroke-width:0.8;" x="57.6" xlink:href="#m64e14123b5" y="192.605136"/>
      </g>
     </g>
     <g id="text_9">
      <!-- 40 -->
      <g transform="translate(37.875 196.404355)scale(0.1 -0.1)">
       <use xlink:href="#DejaVuSans-52"/>
       <use x="63.623047" xlink:href="#DejaVuSans-48"/>
      </g>
     </g>
    </g>
    <g id="ytick_5">
     <g id="line2d_10">
      <g>
       <use style="stroke:#000000;stroke-width:0.8;" x="57.6" xlink:href="#m64e14123b5" y="158.648667"/>
      </g>
     </g>
     <g id="text_10">
      <!-- 50 -->
      <g transform="translate(37.875 162.447886)scale(0.1 -0.1)">
       <defs>
        <path d="M 10.796875 72.90625 
L 49.515625 72.90625 
L 49.515625 64.59375 
L 19.828125 64.59375 
L 19.828125 46.734375 
Q 21.96875 47.46875 24.109375 47.828125 
Q 26.265625 48.1875 28.421875 48.1875 
Q 40.625 48.1875 47.75 41.5 
Q 54.890625 34.8125 54.890625 23.390625 
Q 54.890625 11.625 47.5625 5.09375 
Q 40.234375 -1.421875 26.90625 -1.421875 
Q 22.3125 -1.421875 17.546875 -0.640625 
Q 12.796875 0.140625 7.71875 1.703125 
L 7.71875 11.625 
Q 12.109375 9.234375 16.796875 8.0625 
Q 21.484375 6.890625 26.703125 6.890625 
Q 35.15625 6.890625 40.078125 11.328125 
Q 45.015625 15.765625 45.015625 23.390625 
Q 45.015625 31 40.078125 35.4375 
Q 35.15625 39.890625 26.703125 39.890625 
Q 22.75 39.890625 18.8125 39.015625 
Q 14.890625 38.140625 10.796875 36.28125 
z
" id="DejaVuSans-53"/>
       </defs>
       <use xlink:href="#DejaVuSans-53"/>
       <use x="63.623047" xlink:href="#DejaVuSans-48"/>
      </g>
     </g>
    </g>
    <g id="ytick_6">
     <g id="line2d_11">
      <g>
       <use style="stroke:#000000;stroke-width:0.8;" x="57.6" xlink:href="#m64e14123b5" y="124.692198"/>
      </g>
     </g>
     <g id="text_11">
      <!-- 60 -->
      <g transform="translate(37.875 128.491417)scale(0.1 -0.1)">
       <use xlink:href="#DejaVuSans-54"/>
       <use x="63.623047" xlink:href="#DejaVuSans-48"/>
      </g>
     </g>
    </g>
    <g id="ytick_7">
     <g id="line2d_12">
      <g>
       <use style="stroke:#000000;stroke-width:0.8;" x="57.6" xlink:href="#m64e14123b5" y="90.735729"/>
      </g>
     </g>
     <g id="text_12">
      <!-- 70 -->
      <g transform="translate(37.875 94.534948)scale(0.1 -0.1)">
       <defs>
        <path d="M 8.203125 72.90625 
L 55.078125 72.90625 
L 55.078125 68.703125 
L 28.609375 0 
L 18.3125 0 
L 43.21875 64.59375 
L 8.203125 64.59375 
z
" id="DejaVuSans-55"/>
       </defs>
       <use xlink:href="#DejaVuSans-55"/>
       <use x="63.623047" xlink:href="#DejaVuSans-48"/>
      </g>
     </g>
    </g>
    <g id="ytick_8">
     <g id="line2d_13">
      <g>
       <use style="stroke:#000000;stroke-width:0.8;" x="57.6" xlink:href="#m64e14123b5" y="56.779261"/>
      </g>
     </g>
     <g id="text_13">
      <!-- 80 -->
      <g transform="translate(37.875 60.578479)scale(0.1 -0.1)">
       <use xlink:href="#DejaVuSans-56"/>
       <use x="63.623047" xlink:href="#DejaVuSans-48"/>
      </g>
     </g>
    </g>
   </g>
   <g id="line2d_14">
    <path clip-path="url(#p42b172b0a1)" d="M 388.094588 294.474542 
L 387.680319 287.74437 
L 387.575054 280.97345 
L 387.673528 274.17197 
L 388.298327 250.280198 
L 388.162501 243.471926 
L 387.71088 236.697611 
L 387.340754 233.325733 
L 386.855177 229.964043 
L 386.24396 226.612539 
L 385.496918 223.28141 
L 384.610654 219.970654 
L 383.59196 216.693855 
L 382.434045 213.461199 
L 381.143699 210.279478 
L 379.717527 207.158878 
L 378.155529 204.109587 
L 376.464497 201.141792 
L 374.637639 198.262284 
L 372.681747 195.481249 
L 370.596819 192.808875 
L 368.393045 190.234974 
L 366.080609 187.752756 
L 361.190878 183.02262 
L 356.029494 178.550553 
L 350.691537 174.265247 
L 342.565754 168.041026 
L 331.631772 159.986552 
L 320.575545 152.139212 
L 312.181506 146.370008 
L 303.665224 140.773982 
L 297.892624 137.184783 
L 292.028342 133.744993 
L 283.074021 128.858657 
L 271.087388 122.451071 
L 265.19594 119.092776 
L 259.443714 115.523952 
L 253.834106 111.724223 
L 245.589475 105.747884 
L 229.151149 93.588073 
L 223.544936 89.710244 
L 217.826666 86.025967 
L 211.975967 82.586177 
L 205.965672 79.458786 
L 199.782199 76.687938 
L 193.435735 74.277029 
L 186.946654 72.212476 
L 180.34212 70.484091 
L 173.635718 69.078294 
L 166.854611 68.005269 
L 163.445381 67.611374 
L 160.032756 67.329535 
L 156.616736 67.16994 
L 153.20411 67.142775 
L 149.801672 67.258227 
L 146.409421 67.529879 
L 143.034148 67.967917 
L 139.682645 68.579133 
L 136.358306 69.37711 
L 133.07132 70.355057 
L 129.831873 71.509577 
L 126.653548 72.833879 
L 123.546531 74.324568 
L 120.521009 75.978248 
L 117.590566 77.784732 
L 114.761992 79.740625 
L 112.052266 81.84253 
L 109.471574 84.083657 
L 107.026709 86.453819 
L 104.714273 88.953015 
L 102.534268 91.567663 
L 100.479901 94.287576 
L 98.551174 97.102567 
L 96.741294 100.005845 
L 95.046866 102.990619 
L 93.461099 106.043306 
L 91.987388 109.157114 
L 89.345575 115.530743 
L 88.18766 118.776981 
L 87.148592 122.057176 
L 86.241954 125.367932 
L 85.474538 128.705853 
L 84.85653 132.064148 
L 84.401513 135.442816 
L 84.119675 138.835067 
L 84.017805 142.237506 
L 84.106092 145.650131 
L 84.394722 149.05936 
L 84.8803 152.461798 
L 85.559429 155.837071 
L 86.425319 159.178388 
L 87.474574 162.46877 
L 88.700402 165.694634 
L 90.099409 168.845795 
L 91.668198 171.908668 
L 93.399978 174.866277 
L 95.294749 177.708433 
L 97.338928 180.428346 
L 99.525725 183.02262 
L 101.848347 185.501443 
L 104.286422 187.868208 
L 106.836552 190.133105 
L 109.485157 192.299528 
L 112.215257 194.370872 
L 117.896174 198.269075 
L 123.784226 201.871856 
L 129.828477 205.169029 
L 136.018742 208.102868 
L 139.166506 209.410192 
L 142.344832 210.602064 
L 145.553718 211.671693 
L 148.793165 212.608892 
L 152.063173 213.403473 
L 155.356951 214.048646 
L 158.674498 214.541015 
L 162.01921 214.866997 
L 165.384296 215.016405 
L 168.773151 214.98924 
L 172.182381 214.768523 
L 175.605193 214.350858 
L 179.048379 213.729455 
L 182.508543 212.894126 
L 185.98229 211.834684 
L 185.98229 211.834684 
" style="fill:none;stroke:#fea952;stroke-linecap:square;"/>
   </g>
   <g id="line2d_15">
    <path clip-path="url(#p42b172b0a1)" d="M 374.549862 295.488 
L 374.102008 288.085191 
L 373.9929 280.864902 
L 374.096603 273.779807 
L 374.716414 250.415611 
L 374.598988 244.191512 
L 374.209389 238.179647 
L 373.492979 232.400918 
L 372.990561 229.584759 
L 372.376304 226.793697 
L 371.640381 224.002863 
L 370.804928 221.274084 
L 369.847159 218.565806 
L 368.790101 215.9253 
L 367.628702 213.351372 
L 366.354241 210.833892 
L 364.995378 208.418191 
L 363.527584 206.075949 
L 361.972769 203.836156 
L 360.279348 201.642699 
L 358.454837 199.493414 
L 354.388603 195.262726 
L 349.854716 191.122201 
L 344.948467 187.041658 
L 337.080843 180.925757 
L 326.401132 172.971712 
L 315.550641 165.205168 
L 304.619067 157.65257 
L 296.421406 152.263707 
L 290.944396 148.855636 
L 285.406724 145.604203 
L 276.724506 140.865752 
L 264.454201 134.303814 
L 258.165727 130.714428 
L 251.928312 126.837899 
L 245.976724 122.803403 
L 237.459448 116.628571 
L 221.34753 104.705187 
L 216.082706 101.059333 
L 210.804556 97.652517 
L 205.53971 94.547 
L 200.231488 91.771618 
L 194.779966 89.315858 
L 189.140543 87.162603 
L 183.338547 85.307064 
L 177.394218 83.742921 
L 171.339634 82.465402 
L 165.295679 81.498097 
L 159.398874 80.897324 
L 153.664732 80.71755 
L 150.885896 80.797471 
L 148.157492 80.999509 
L 145.471023 81.330115 
L 142.852963 81.786547 
L 140.231612 82.39572 
L 137.631142 83.14938 
L 135.055945 84.04735 
L 132.52898 85.079939 
L 130.060888 86.243034 
L 127.648576 87.540448 
L 125.315633 88.956573 
L 123.086921 90.472924 
L 120.958187 92.097834 
L 118.925767 93.835833 
L 116.996328 95.678426 
L 115.146484 97.65104 
L 113.372672 99.753973 
L 111.684734 101.964711 
L 110.077508 104.28799 
L 108.553256 106.711384 
L 105.738105 111.853797 
L 103.245013 117.320185 
L 101.136128 122.87867 
L 100.248853 125.644632 
L 99.4792 128.411287 
L 98.83282 131.164101 
L 98.317595 133.876995 
L 97.937463 136.567425 
L 97.696179 139.24155 
L 97.59585 141.886233 
L 97.640263 144.50431 
L 97.841066 147.140371 
L 98.196022 149.782579 
L 98.707692 152.429747 
L 99.365883 155.05183 
L 100.171354 157.643993 
L 101.114533 160.183188 
L 102.188501 162.653821 
L 103.389309 165.045561 
L 104.701374 167.332013 
L 106.15268 169.54804 
L 107.72417 171.674294 
L 109.437268 173.73564 
L 111.309107 175.755638 
L 113.306004 177.712726 
L 115.436092 179.619561 
L 120.068087 183.288465 
L 125.128547 186.772142 
L 130.450868 190.037898 
L 135.838176 192.988298 
L 141.228398 195.559098 
L 146.640023 197.71649 
L 152.000284 199.410366 
L 154.674065 200.074185 
L 157.350949 200.613221 
L 159.99204 201.022481 
L 162.621678 201.297777 
L 165.275421 201.434254 
L 167.895638 201.435028 
L 170.537185 201.285941 
L 173.192868 200.984207 
L 175.860931 200.526165 
L 178.546235 199.902328 
L 182.019982 198.842887 
L 182.019982 198.842887 
" style="fill:none;stroke:#ffffff;stroke-linecap:square;"/>
   </g>
   <g id="line2d_16">
    <path clip-path="url(#p42b172b0a1)" d="M 401.639313 293.461085 
L 401.25863 287.403549 
L 401.157208 281.081999 
L 401.250453 274.564132 
L 401.880239 250.144785 
L 401.726014 242.75234 
L 401.21237 235.215574 
L 400.783826 231.383956 
L 400.217374 227.527168 
L 399.49736 223.640319 
L 398.617532 219.769122 
L 397.580927 215.938445 
L 396.378992 212.113626 
L 395.02093 208.356592 
L 393.497296 204.633655 
L 391.806352 200.966384 
L 389.956818 197.385283 
L 387.933617 193.865393 
L 385.747694 190.448618 
L 383.390724 187.126341 
L 380.914291 183.97505 
L 378.331253 180.976534 
L 375.678159 178.141632 
L 372.96438 175.441342 
L 367.419986 170.400038 
L 361.806522 165.740186 
L 353.483701 159.27182 
L 345.144005 153.02973 
L 333.953487 144.944273 
L 322.623987 137.044286 
L 313.878882 131.19743 
L 307.888766 127.381346 
L 301.76811 123.685915 
L 295.559844 120.161232 
L 283.470191 113.698313 
L 274.945698 109.047352 
L 269.589848 105.880395 
L 264.340529 102.473243 
L 259.043422 98.768002 
L 251.007986 92.841174 
L 239.844826 84.545449 
L 234.009398 80.405047 
L 227.949325 76.35338 
L 221.6647 72.480778 
L 215.092735 68.84505 
L 211.699855 67.145955 
L 204.784432 64.060019 
L 197.730926 61.391455 
L 190.55476 59.117887 
L 183.290023 57.225262 
L 175.931802 55.691185 
L 168.413543 54.512441 
L 164.563321 54.074872 
L 160.666639 53.761747 
L 156.724852 53.587783 
L 152.743489 53.568 
L 148.717449 53.718982 
L 144.66135 54.060249 
L 140.597273 54.605719 
L 136.512326 55.37172 
L 132.485001 56.358501 
L 128.511498 57.560733 
L 124.607801 58.971804 
L 120.778116 60.587819 
L 117.032173 62.406102 
L 113.393442 64.416048 
L 109.865499 66.612891 
L 106.437063 69.008326 
L 103.146345 71.587227 
L 100.017382 74.331482 
L 97.057089 77.229212 
L 94.282062 80.254989 
L 91.695863 83.381353 
L 89.275068 86.610441 
L 87.024839 89.917145 
L 84.929333 93.300306 
L 82.993533 96.729321 
L 81.184093 100.232814 
L 79.525259 103.755075 
L 77.986082 107.323528 
L 76.552468 110.967511 
L 75.239191 114.675293 
L 74.048331 118.46972 
L 73.004708 122.324577 
L 72.116256 126.247605 
L 71.395465 130.251301 
L 70.865563 134.318208 
L 70.543171 138.428585 
L 70.439761 142.588778 
L 70.571921 146.795952 
L 70.948378 150.978349 
L 71.564577 155.141018 
L 72.411166 159.244396 
L 73.484755 163.304946 
L 74.777794 167.293546 
L 76.286271 171.20608 
L 78.010317 175.037769 
L 79.947087 178.771775 
L 82.098582 182.40054 
L 84.436817 185.868826 
L 86.953686 189.182398 
L 89.614182 192.3096 
L 92.387587 195.247247 
L 95.266839 198.02369 
L 98.237013 200.646649 
L 101.275435 203.12021 
L 104.362427 205.453279 
L 107.50772 207.674447 
L 113.871504 211.778938 
L 120.445023 215.574507 
L 127.282387 219.051092 
L 130.809085 220.646638 
L 134.397341 222.127965 
L 138.04964 223.487638 
L 141.778962 224.719218 
L 145.586047 225.807417 
L 149.452282 226.732761 
L 153.362952 227.484071 
L 157.356955 228.059549 
L 161.416742 228.436216 
L 165.493171 228.598556 
L 169.650665 228.543452 
L 173.827577 228.251105 
L 178.017518 227.71751 
L 182.235827 226.932745 
L 186.470851 225.885923 
L 189.944598 224.826482 
L 189.944598 224.826482 
" style="fill:none;stroke:#ffffff;stroke-linecap:square;"/>
   </g>
   <g id="patch_3">
    <path d="M 57.6 307.584 
L 57.6 41.472 
" style="fill:none;stroke:#000000;stroke-linecap:square;stroke-linejoin:miter;stroke-width:0.8;"/>
   </g>
   <g id="patch_4">
    <path d="M 414.72 307.584 
L 414.72 41.472 
" style="fill:none;stroke:#000000;stroke-linecap:square;stroke-linejoin:miter;stroke-width:0.8;"/>
   </g>
   <g id="patch_5">
    <path d="M 57.6 307.584 
L 414.72 307.584 
" style="fill:none;stroke:#000000;stroke-linecap:square;stroke-linejoin:miter;stroke-width:0.8;"/>
   </g>
   <g id="patch_6">
    <path d="M 57.6 41.472 
L 414.72 41.472 
" style="fill:none;stroke:#000000;stroke-linecap:square;stroke-linejoin:miter;stroke-width:0.8;"/>
   </g>
  </g>
 </g>
 <defs>
  <clipPath id="p42b172b0a1">
   <rect height="266.112" width="357.12" x="57.6" y="41.472"/>
  </clipPath>
 </defs>
</svg>
