<?xml version="1.0" encoding="utf-8" standalone="no"?>
<!DOCTYPE svg PUBLIC "-//W3C//DTD SVG 1.1//EN"
  "http://www.w3.org/Graphics/SVG/1.1/DTD/svg11.dtd">
<!-- Created with matplotlib (https://matplotlib.org/) -->
<svg height="345.6pt" version="1.1" viewBox="0 0 460.8 345.6" width="460.8pt" xmlns="http://www.w3.org/2000/svg" xmlns:xlink="http://www.w3.org/1999/xlink">
 <metadata>
  <rdf:RDF xmlns:cc="http://creativecommons.org/ns#" xmlns:dc="http://purl.org/dc/elements/1.1/" xmlns:rdf="http://www.w3.org/1999/02/22-rdf-syntax-ns#">
   <cc:Work>
    <dc:type rdf:resource="http://purl.org/dc/dcmitype/StillImage"/>
    <dc:date>2021-01-22T11:46:44.625093</dc:date>
    <dc:format>image/svg+xml</dc:format>
    <dc:creator>
     <cc:Agent>
      <dc:title>Matplotlib v3.3.3, https://matplotlib.org/</dc:title>
     </cc:Agent>
    </dc:creator>
   </cc:Work>
  </rdf:RDF>
 </metadata>
 <defs>
  <style type="text/css">*{stroke-linecap:butt;stroke-linejoin:round;}</style>
 </defs>
 <g id="figure_1">
  <g id="patch_1">
   <path d="M 0 345.6 
L 460.8 345.6 
L 460.8 0 
L 0 0 
z
" style="fill:#ffffff;"/>
  </g>
  <g id="axes_1">
   <g id="patch_2">
    <path d="M 57.6 307.584 
L 414.72 307.584 
L 414.72 41.472 
L 57.6 41.472 
z
" style="fill:#7d9051;"/>
   </g>
   <g id="matplotlib.axis_1">
    <g id="xtick_1">
     <g id="line2d_1">
      <defs>
       <path d="M 0 0 
L 0 3.5 
" id="md989c3278c" style="stroke:#000000;stroke-width:0.8;"/>
      </defs>
      <g>
       <use style="stroke:#000000;stroke-width:0.8;" x="115.559102" xlink:href="#md989c3278c" y="307.584"/>
      </g>
     </g>
     <g id="text_1">
      <!-- 20 -->
      <g transform="translate(109.196602 322.182437)scale(0.1 -0.1)">
       <defs>
        <path d="M 19.1875 8.296875 
L 53.609375 8.296875 
L 53.609375 0 
L 7.328125 0 
L 7.328125 8.296875 
Q 12.9375 14.109375 22.625 23.890625 
Q 32.328125 33.6875 34.8125 36.53125 
Q 39.546875 41.84375 41.421875 45.53125 
Q 43.3125 49.21875 43.3125 52.78125 
Q 43.3125 58.59375 39.234375 62.25 
Q 35.15625 65.921875 28.609375 65.921875 
Q 23.96875 65.921875 18.8125 64.3125 
Q 13.671875 62.703125 7.8125 59.421875 
L 7.8125 69.390625 
Q 13.765625 71.78125 18.9375 73 
Q 24.125 74.21875 28.421875 74.21875 
Q 39.75 74.21875 46.484375 68.546875 
Q 53.21875 62.890625 53.21875 53.421875 
Q 53.21875 48.921875 51.53125 44.890625 
Q 49.859375 40.875 45.40625 35.40625 
Q 44.1875 33.984375 37.640625 27.21875 
Q 31.109375 20.453125 19.1875 8.296875 
z
" id="DejaVuSans-50"/>
        <path d="M 31.78125 66.40625 
Q 24.171875 66.40625 20.328125 58.90625 
Q 16.5 51.421875 16.5 36.375 
Q 16.5 21.390625 20.328125 13.890625 
Q 24.171875 6.390625 31.78125 6.390625 
Q 39.453125 6.390625 43.28125 13.890625 
Q 47.125 21.390625 47.125 36.375 
Q 47.125 51.421875 43.28125 58.90625 
Q 39.453125 66.40625 31.78125 66.40625 
z
M 31.78125 74.21875 
Q 44.046875 74.21875 50.515625 64.515625 
Q 56.984375 54.828125 56.984375 36.375 
Q 56.984375 17.96875 50.515625 8.265625 
Q 44.046875 -1.421875 31.78125 -1.421875 
Q 19.53125 -1.421875 13.0625 8.265625 
Q 6.59375 17.96875 6.59375 36.375 
Q 6.59375 54.828125 13.0625 64.515625 
Q 19.53125 74.21875 31.78125 74.21875 
z
" id="DejaVuSans-48"/>
       </defs>
       <use xlink:href="#DejaVuSans-50"/>
       <use x="63.623047" xlink:href="#DejaVuSans-48"/>
      </g>
     </g>
    </g>
    <g id="xtick_2">
     <g id="line2d_2">
      <g>
       <use style="stroke:#000000;stroke-width:0.8;" x="177.865731" xlink:href="#md989c3278c" y="307.584"/>
      </g>
     </g>
     <g id="text_2">
      <!-- 40 -->
      <g transform="translate(171.503231 322.182437)scale(0.1 -0.1)">
       <defs>
        <path d="M 37.796875 64.3125 
L 12.890625 25.390625 
L 37.796875 25.390625 
z
M 35.203125 72.90625 
L 47.609375 72.90625 
L 47.609375 25.390625 
L 58.015625 25.390625 
L 58.015625 17.1875 
L 47.609375 17.1875 
L 47.609375 0 
L 37.796875 0 
L 37.796875 17.1875 
L 4.890625 17.1875 
L 4.890625 26.703125 
z
" id="DejaVuSans-52"/>
       </defs>
       <use xlink:href="#DejaVuSans-52"/>
       <use x="63.623047" xlink:href="#DejaVuSans-48"/>
      </g>
     </g>
    </g>
    <g id="xtick_3">
     <g id="line2d_3">
      <g>
       <use style="stroke:#000000;stroke-width:0.8;" x="240.172359" xlink:href="#md989c3278c" y="307.584"/>
      </g>
     </g>
     <g id="text_3">
      <!-- 60 -->
      <g transform="translate(233.809859 322.182437)scale(0.1 -0.1)">
       <defs>
        <path d="M 33.015625 40.375 
Q 26.375 40.375 22.484375 35.828125 
Q 18.609375 31.296875 18.609375 23.390625 
Q 18.609375 15.53125 22.484375 10.953125 
Q 26.375 6.390625 33.015625 6.390625 
Q 39.65625 6.390625 43.53125 10.953125 
Q 47.40625 15.53125 47.40625 23.390625 
Q 47.40625 31.296875 43.53125 35.828125 
Q 39.65625 40.375 33.015625 40.375 
z
M 52.59375 71.296875 
L 52.59375 62.3125 
Q 48.875 64.0625 45.09375 64.984375 
Q 41.3125 65.921875 37.59375 65.921875 
Q 27.828125 65.921875 22.671875 59.328125 
Q 17.53125 52.734375 16.796875 39.40625 
Q 19.671875 43.65625 24.015625 45.921875 
Q 28.375 48.1875 33.59375 48.1875 
Q 44.578125 48.1875 50.953125 41.515625 
Q 57.328125 34.859375 57.328125 23.390625 
Q 57.328125 12.15625 50.6875 5.359375 
Q 44.046875 -1.421875 33.015625 -1.421875 
Q 20.359375 -1.421875 13.671875 8.265625 
Q 6.984375 17.96875 6.984375 36.375 
Q 6.984375 53.65625 15.1875 63.9375 
Q 23.390625 74.21875 37.203125 74.21875 
Q 40.921875 74.21875 44.703125 73.484375 
Q 48.484375 72.75 52.59375 71.296875 
z
" id="DejaVuSans-54"/>
       </defs>
       <use xlink:href="#DejaVuSans-54"/>
       <use x="63.623047" xlink:href="#DejaVuSans-48"/>
      </g>
     </g>
    </g>
    <g id="xtick_4">
     <g id="line2d_4">
      <g>
       <use style="stroke:#000000;stroke-width:0.8;" x="302.478988" xlink:href="#md989c3278c" y="307.584"/>
      </g>
     </g>
     <g id="text_4">
      <!-- 80 -->
      <g transform="translate(296.116488 322.182437)scale(0.1 -0.1)">
       <defs>
        <path d="M 31.78125 34.625 
Q 24.75 34.625 20.71875 30.859375 
Q 16.703125 27.09375 16.703125 20.515625 
Q 16.703125 13.921875 20.71875 10.15625 
Q 24.75 6.390625 31.78125 6.390625 
Q 38.8125 6.390625 42.859375 10.171875 
Q 46.921875 13.96875 46.921875 20.515625 
Q 46.921875 27.09375 42.890625 30.859375 
Q 38.875 34.625 31.78125 34.625 
z
M 21.921875 38.8125 
Q 15.578125 40.375 12.03125 44.71875 
Q 8.5 49.078125 8.5 55.328125 
Q 8.5 64.0625 14.71875 69.140625 
Q 20.953125 74.21875 31.78125 74.21875 
Q 42.671875 74.21875 48.875 69.140625 
Q 55.078125 64.0625 55.078125 55.328125 
Q 55.078125 49.078125 51.53125 44.71875 
Q 48 40.375 41.703125 38.8125 
Q 48.828125 37.15625 52.796875 32.3125 
Q 56.78125 27.484375 56.78125 20.515625 
Q 56.78125 9.90625 50.3125 4.234375 
Q 43.84375 -1.421875 31.78125 -1.421875 
Q 19.734375 -1.421875 13.25 4.234375 
Q 6.78125 9.90625 6.78125 20.515625 
Q 6.78125 27.484375 10.78125 32.3125 
Q 14.796875 37.15625 21.921875 38.8125 
z
M 18.3125 54.390625 
Q 18.3125 48.734375 21.84375 45.5625 
Q 25.390625 42.390625 31.78125 42.390625 
Q 38.140625 42.390625 41.71875 45.5625 
Q 45.3125 48.734375 45.3125 54.390625 
Q 45.3125 60.0625 41.71875 63.234375 
Q 38.140625 66.40625 31.78125 66.40625 
Q 25.390625 66.40625 21.84375 63.234375 
Q 18.3125 60.0625 18.3125 54.390625 
z
" id="DejaVuSans-56"/>
       </defs>
       <use xlink:href="#DejaVuSans-56"/>
       <use x="63.623047" xlink:href="#DejaVuSans-48"/>
      </g>
     </g>
    </g>
    <g id="xtick_5">
     <g id="line2d_5">
      <g>
       <use style="stroke:#000000;stroke-width:0.8;" x="364.785617" xlink:href="#md989c3278c" y="307.584"/>
      </g>
     </g>
     <g id="text_5">
      <!-- 100 -->
      <g transform="translate(355.241867 322.182437)scale(0.1 -0.1)">
       <defs>
        <path d="M 12.40625 8.296875 
L 28.515625 8.296875 
L 28.515625 63.921875 
L 10.984375 60.40625 
L 10.984375 69.390625 
L 28.421875 72.90625 
L 38.28125 72.90625 
L 38.28125 8.296875 
L 54.390625 8.296875 
L 54.390625 0 
L 12.40625 0 
z
" id="DejaVuSans-49"/>
       </defs>
       <use xlink:href="#DejaVuSans-49"/>
       <use x="63.623047" xlink:href="#DejaVuSans-48"/>
       <use x="127.246094" xlink:href="#DejaVuSans-48"/>
      </g>
     </g>
    </g>
   </g>
   <g id="matplotlib.axis_2">
    <g id="ytick_1">
     <g id="line2d_6">
      <defs>
       <path d="M 0 0 
L -3.5 0 
" id="mbd3971be5e" style="stroke:#000000;stroke-width:0.8;"/>
      </defs>
      <g>
       <use style="stroke:#000000;stroke-width:0.8;" x="57.6" xlink:href="#mbd3971be5e" y="278.854466"/>
      </g>
     </g>
     <g id="text_6">
      <!-- 10 -->
      <g transform="translate(37.875 282.653685)scale(0.1 -0.1)">
       <use xlink:href="#DejaVuSans-49"/>
       <use x="63.623047" xlink:href="#DejaVuSans-48"/>
      </g>
     </g>
    </g>
    <g id="ytick_2">
     <g id="line2d_7">
      <g>
       <use style="stroke:#000000;stroke-width:0.8;" x="57.6" xlink:href="#mbd3971be5e" y="247.701152"/>
      </g>
     </g>
     <g id="text_7">
      <!-- 20 -->
      <g transform="translate(37.875 251.50037)scale(0.1 -0.1)">
       <use xlink:href="#DejaVuSans-50"/>
       <use x="63.623047" xlink:href="#DejaVuSans-48"/>
      </g>
     </g>
    </g>
    <g id="ytick_3">
     <g id="line2d_8">
      <g>
       <use style="stroke:#000000;stroke-width:0.8;" x="57.6" xlink:href="#mbd3971be5e" y="216.547837"/>
      </g>
     </g>
     <g id="text_8">
      <!-- 30 -->
      <g transform="translate(37.875 220.347056)scale(0.1 -0.1)">
       <defs>
        <path d="M 40.578125 39.3125 
Q 47.65625 37.796875 51.625 33 
Q 55.609375 28.21875 55.609375 21.1875 
Q 55.609375 10.40625 48.1875 4.484375 
Q 40.765625 -1.421875 27.09375 -1.421875 
Q 22.515625 -1.421875 17.65625 -0.515625 
Q 12.796875 0.390625 7.625 2.203125 
L 7.625 11.71875 
Q 11.71875 9.328125 16.59375 8.109375 
Q 21.484375 6.890625 26.8125 6.890625 
Q 36.078125 6.890625 40.9375 10.546875 
Q 45.796875 14.203125 45.796875 21.1875 
Q 45.796875 27.640625 41.28125 31.265625 
Q 36.765625 34.90625 28.71875 34.90625 
L 20.21875 34.90625 
L 20.21875 43.015625 
L 29.109375 43.015625 
Q 36.375 43.015625 40.234375 45.921875 
Q 44.09375 48.828125 44.09375 54.296875 
Q 44.09375 59.90625 40.109375 62.90625 
Q 36.140625 65.921875 28.71875 65.921875 
Q 24.65625 65.921875 20.015625 65.03125 
Q 15.375 64.15625 9.8125 62.3125 
L 9.8125 71.09375 
Q 15.4375 72.65625 20.34375 73.4375 
Q 25.25 74.21875 29.59375 74.21875 
Q 40.828125 74.21875 47.359375 69.109375 
Q 53.90625 64.015625 53.90625 55.328125 
Q 53.90625 49.265625 50.4375 45.09375 
Q 46.96875 40.921875 40.578125 39.3125 
z
" id="DejaVuSans-51"/>
       </defs>
       <use xlink:href="#DejaVuSans-51"/>
       <use x="63.623047" xlink:href="#DejaVuSans-48"/>
      </g>
     </g>
    </g>
    <g id="ytick_4">
     <g id="line2d_9">
      <g>
       <use style="stroke:#000000;stroke-width:0.8;" x="57.6" xlink:href="#mbd3971be5e" y="185.394523"/>
      </g>
     </g>
     <g id="text_9">
      <!-- 40 -->
      <g transform="translate(37.875 189.193741)scale(0.1 -0.1)">
       <use xlink:href="#DejaVuSans-52"/>
       <use x="63.623047" xlink:href="#DejaVuSans-48"/>
      </g>
     </g>
    </g>
    <g id="ytick_5">
     <g id="line2d_10">
      <g>
       <use style="stroke:#000000;stroke-width:0.8;" x="57.6" xlink:href="#mbd3971be5e" y="154.241208"/>
      </g>
     </g>
     <g id="text_10">
      <!-- 50 -->
      <g transform="translate(37.875 158.040427)scale(0.1 -0.1)">
       <defs>
        <path d="M 10.796875 72.90625 
L 49.515625 72.90625 
L 49.515625 64.59375 
L 19.828125 64.59375 
L 19.828125 46.734375 
Q 21.96875 47.46875 24.109375 47.828125 
Q 26.265625 48.1875 28.421875 48.1875 
Q 40.625 48.1875 47.75 41.5 
Q 54.890625 34.8125 54.890625 23.390625 
Q 54.890625 11.625 47.5625 5.09375 
Q 40.234375 -1.421875 26.90625 -1.421875 
Q 22.3125 -1.421875 17.546875 -0.640625 
Q 12.796875 0.140625 7.71875 1.703125 
L 7.71875 11.625 
Q 12.109375 9.234375 16.796875 8.0625 
Q 21.484375 6.890625 26.703125 6.890625 
Q 35.15625 6.890625 40.078125 11.328125 
Q 45.015625 15.765625 45.015625 23.390625 
Q 45.015625 31 40.078125 35.4375 
Q 35.15625 39.890625 26.703125 39.890625 
Q 22.75 39.890625 18.8125 39.015625 
Q 14.890625 38.140625 10.796875 36.28125 
z
" id="DejaVuSans-53"/>
       </defs>
       <use xlink:href="#DejaVuSans-53"/>
       <use x="63.623047" xlink:href="#DejaVuSans-48"/>
      </g>
     </g>
    </g>
    <g id="ytick_6">
     <g id="line2d_11">
      <g>
       <use style="stroke:#000000;stroke-width:0.8;" x="57.6" xlink:href="#mbd3971be5e" y="123.087894"/>
      </g>
     </g>
     <g id="text_11">
      <!-- 60 -->
      <g transform="translate(37.875 126.887113)scale(0.1 -0.1)">
       <use xlink:href="#DejaVuSans-54"/>
       <use x="63.623047" xlink:href="#DejaVuSans-48"/>
      </g>
     </g>
    </g>
    <g id="ytick_7">
     <g id="line2d_12">
      <g>
       <use style="stroke:#000000;stroke-width:0.8;" x="57.6" xlink:href="#mbd3971be5e" y="91.934579"/>
      </g>
     </g>
     <g id="text_12">
      <!-- 70 -->
      <g transform="translate(37.875 95.733798)scale(0.1 -0.1)">
       <defs>
        <path d="M 8.203125 72.90625 
L 55.078125 72.90625 
L 55.078125 68.703125 
L 28.609375 0 
L 18.3125 0 
L 43.21875 64.59375 
L 8.203125 64.59375 
z
" id="DejaVuSans-55"/>
       </defs>
       <use xlink:href="#DejaVuSans-55"/>
       <use x="63.623047" xlink:href="#DejaVuSans-48"/>
      </g>
     </g>
    </g>
    <g id="ytick_8">
     <g id="line2d_13">
      <g>
       <use style="stroke:#000000;stroke-width:0.8;" x="57.6" xlink:href="#mbd3971be5e" y="60.781265"/>
      </g>
     </g>
     <g id="text_13">
      <!-- 80 -->
      <g transform="translate(37.875 64.580484)scale(0.1 -0.1)">
       <use xlink:href="#DejaVuSans-56"/>
       <use x="63.623047" xlink:href="#DejaVuSans-48"/>
      </g>
     </g>
    </g>
   </g>
   <g id="line2d_14">
    <path clip-path="url(#pfa9fd8c292)" d="M 385.879526 278.854466 
L 386.025947 266.368218 
L 385.938718 250.810252 
L 385.720644 222.797192 
L 385.77672 197.787311 
L 385.356151 191.578456 
L 384.997888 188.491162 
L 384.524357 185.419445 
L 383.919983 182.363305 
L 383.184765 179.328972 
L 382.328049 176.319562 
L 381.35295 173.341305 
L 380.259468 170.400432 
L 379.056951 167.496944 
L 377.745396 164.640185 
L 376.331036 161.836386 
L 373.209473 156.393902 
L 369.726533 151.20376 
L 365.916482 146.259729 
L 361.810476 141.555579 
L 357.442781 137.078847 
L 352.844552 132.817074 
L 348.050057 128.767143 
L 343.059296 124.969554 
L 337.8785 121.458575 
L 332.513899 118.280937 
L 326.962378 115.480254 
L 321.236399 113.072103 
L 315.379576 110.97237 
L 306.444805 108.162341 
L 294.50997 104.461327 
L 285.674891 101.408302 
L 276.920809 98.143435 
L 262.412711 92.436148 
L 253.66486 89.112089 
L 247.761307 87.108931 
L 241.776755 85.376807 
L 235.680052 83.99983 
L 229.480542 83.037193 
L 226.35898 82.716314 
L 223.228072 82.507586 
L 220.090933 82.414126 
L 216.95691 82.435934 
L 213.829117 82.576124 
L 210.716901 82.840927 
L 207.620261 83.230343 
L 204.548544 83.747488 
L 201.498635 84.379901 
L 195.467353 85.965604 
L 189.526416 87.909571 
L 183.672708 90.140148 
L 177.903115 92.579453 
L 169.385798 96.479848 
L 155.385499 103.283732 
L 144.164075 108.657679 
L 135.746449 112.701379 
L 130.20116 115.542561 
L 124.749329 118.595586 
L 119.431459 121.932106 
L 114.309854 125.605082 
L 111.851857 127.577086 
L 109.477975 129.639436 
L 107.194437 131.795245 
L 105.019935 134.050745 
L 102.963817 136.40282 
L 101.035427 138.860817 
L 99.247226 141.424735 
L 97.608562 144.091458 
L 96.119434 146.857873 
L 94.786072 149.708401 
L 93.59913 152.630582 
L 92.567956 155.615069 
L 91.683202 158.652518 
L 90.951099 161.72735 
L 90.368532 164.827104 
L 89.938616 167.945551 
L 89.655121 171.063998 
L 89.521162 174.179329 
L 89.518046 177.28843 
L 89.845156 183.49417 
L 90.499376 189.69368 
L 91.801584 198.999175 
L 93.088216 208.345169 
L 93.770474 214.591409 
L 94.219081 220.828302 
L 94.359271 227.040273 
L 94.11316 233.20863 
L 93.823434 236.271 
L 93.40598 239.314679 
L 92.854566 242.342781 
L 92.156732 245.349076 
L 91.306246 248.330448 
L 90.293764 251.283783 
L 89.103707 254.212194 
L 87.736077 257.112568 
L 86.17218 259.978673 
L 84.405787 262.810509 
L 84.405787 262.810509 
" style="fill:none;stroke:#fea952;stroke-linecap:square;"/>
   </g>
   <g id="line2d_15">
    <path clip-path="url(#pfa9fd8c292)" d="M 373.420677 278.606034 
L 373.564621 266.368218 
L 373.478149 250.947593 
L 373.259474 222.735072 
L 373.333596 198.460586 
L 372.977891 193.014883 
L 372.299778 187.836946 
L 371.809097 185.29777 
L 370.485306 180.196945 
L 368.746499 175.168679 
L 366.619497 170.252583 
L 364.118397 165.474983 
L 361.284837 160.887903 
L 358.110406 156.462387 
L 354.626671 152.206186 
L 350.852497 148.108419 
L 346.81707 144.165718 
L 342.540678 140.376556 
L 338.155308 136.846172 
L 333.651751 133.591074 
L 329.035458 130.645602 
L 324.337505 128.052013 
L 319.468519 125.792417 
L 314.241647 123.765972 
L 308.697586 121.897809 
L 287.482421 115.248206 
L 278.400091 112.017349 
L 269.47002 108.625149 
L 249.541598 100.871483 
L 244.136022 99.031261 
L 238.83055 97.484842 
L 233.563201 96.280041 
L 228.206302 95.433198 
L 222.856995 94.963386 
L 217.514875 94.884762 
L 212.271723 95.204873 
L 209.689098 95.518734 
L 204.476948 96.480078 
L 199.183547 97.859911 
L 193.840682 99.60024 
L 188.44352 101.652055 
L 182.979104 103.960093 
L 174.763627 107.721004 
L 160.838265 114.48873 
L 149.491089 119.923004 
L 141.344244 123.834632 
L 136.173522 126.479449 
L 131.229737 129.239314 
L 126.530336 132.173716 
L 122.107896 135.324916 
L 118.032399 138.700698 
L 116.165536 140.444177 
L 114.401887 142.252186 
L 112.767989 144.09456 
L 111.25638 145.989404 
L 109.864274 147.948762 
L 108.581193 149.997897 
L 107.406945 152.137714 
L 106.331342 154.397898 
L 105.377246 156.700056 
L 104.532065 159.1 
L 103.805657 161.538816 
L 103.198013 164.029031 
L 102.713099 166.528953 
L 102.348766 169.073747 
L 102.104942 171.59934 
L 101.982481 174.191816 
L 102.06564 179.544769 
L 102.520032 185.163196 
L 103.245543 191.045026 
L 105.849968 210.207851 
L 106.467252 216.95424 
L 106.79205 223.824806 
L 106.817534 227.316565 
L 106.731373 230.848411 
L 106.519088 234.382334 
L 106.169181 237.964276 
L 105.665697 241.547159 
L 104.993158 245.160444 
L 104.140012 248.767504 
L 103.094096 252.371642 
L 101.83823 255.975257 
L 100.374829 259.526934 
L 98.67491 263.081366 
L 96.74524 266.57375 
L 94.978847 269.405586 
L 94.978847 269.405586 
" style="fill:none;stroke:#ffffff;stroke-linecap:square;"/>
   </g>
   <g id="line2d_16">
    <path clip-path="url(#pfa9fd8c292)" d="M 398.338376 279.102898 
L 398.487273 266.368218 
L 398.399287 250.672911 
L 398.181815 222.859311 
L 398.219845 197.114036 
L 397.73441 190.142028 
L 397.313731 186.592574 
L 396.748936 183.001944 
L 396.030869 179.42884 
L 395.1699 175.917055 
L 394.170791 172.442179 
L 393.033011 168.998401 
L 391.772438 165.632185 
L 390.381788 162.297645 
L 388.871295 159.027787 
L 387.24802 155.827718 
L 385.515572 152.696115 
L 383.674294 149.628389 
L 381.738398 146.647453 
L 379.714965 143.752863 
L 375.419845 138.199286 
L 370.842758 132.970562 
L 366.028442 128.047178 
L 360.995961 123.391621 
L 355.719397 118.94544 
L 350.19874 114.756182 
L 344.395564 110.837252 
L 341.400555 109.006681 
L 338.315146 107.25233 
L 335.182387 105.612603 
L 331.973496 104.070901 
L 325.568055 101.387866 
L 319.2492 99.12709 
L 310.044898 96.23238 
L 298.469259 92.645716 
L 289.950472 89.70343 
L 281.406687 86.517535 
L 266.952672 80.831261 
L 257.788122 77.352695 
L 251.386592 75.186601 
L 244.722961 73.268772 
L 241.286441 72.439596 
L 237.796902 71.719619 
L 234.296511 71.123234 
L 230.754782 70.641187 
L 227.187895 70.282588 
L 223.599148 70.051787 
L 220.004226 69.953102 
L 216.398944 69.987106 
L 212.772661 70.159661 
L 209.162078 70.476981 
L 205.551425 70.941952 
L 202.018452 71.545715 
L 198.520321 72.279723 
L 191.751159 74.071297 
L 185.21215 76.218902 
L 178.901897 78.628242 
L 172.827126 81.198813 
L 164.007969 85.238692 
L 149.932733 92.078734 
L 138.837061 97.392353 
L 130.148655 101.568125 
L 124.228797 104.605673 
L 118.268922 107.951857 
L 112.332581 111.690496 
L 109.419113 113.71773 
L 106.511812 115.885247 
L 103.67928 118.169981 
L 100.92355 120.578174 
L 98.223338 123.146313 
L 95.637984 125.849304 
L 93.159645 128.711081 
L 90.814473 131.73223 
L 88.630178 134.900707 
L 86.635931 138.18502 
L 84.831922 141.578031 
L 83.240802 145.018904 
L 81.821014 148.561108 
L 80.603847 152.130139 
L 79.560746 155.766219 
L 78.704185 159.425668 
L 78.023964 163.125256 
L 77.528466 166.817356 
L 77.2053 170.528656 
L 77.059842 174.166843 
L 77.065293 177.750569 
L 77.440243 184.678559 
L 78.144667 191.32028 
L 79.469482 200.78912 
L 80.710817 209.788994 
L 81.351681 215.620111 
L 81.765855 221.277517 
L 81.901009 226.763981 
L 81.707232 232.034925 
L 81.146262 237.0822 
L 80.715974 239.525119 
L 80.173452 241.930649 
L 79.518397 244.289255 
L 78.749297 246.592308 
L 77.832585 248.897455 
L 76.797243 251.143769 
L 75.59912 253.383596 
L 73.832727 256.215432 
L 73.832727 256.215432 
" style="fill:none;stroke:#ffffff;stroke-linecap:square;"/>
   </g>
   <g id="patch_3">
    <path d="M 57.6 307.584 
L 57.6 41.472 
" style="fill:none;stroke:#000000;stroke-linecap:square;stroke-linejoin:miter;stroke-width:0.8;"/>
   </g>
   <g id="patch_4">
    <path d="M 414.72 307.584 
L 414.72 41.472 
" style="fill:none;stroke:#000000;stroke-linecap:square;stroke-linejoin:miter;stroke-width:0.8;"/>
   </g>
   <g id="patch_5">
    <path d="M 57.6 307.584 
L 414.72 307.584 
" style="fill:none;stroke:#000000;stroke-linecap:square;stroke-linejoin:miter;stroke-width:0.8;"/>
   </g>
   <g id="patch_6">
    <path d="M 57.6 41.472 
L 414.72 41.472 
" style="fill:none;stroke:#000000;stroke-linecap:square;stroke-linejoin:miter;stroke-width:0.8;"/>
   </g>
  </g>
 </g>
 <defs>
  <clipPath id="pfa9fd8c292">
   <rect height="266.112" width="357.12" x="57.6" y="41.472"/>
  </clipPath>
 </defs>
</svg>
