<?xml version="1.0" encoding="utf-8" standalone="no"?>
<!DOCTYPE svg PUBLIC "-//W3C//DTD SVG 1.1//EN"
  "http://www.w3.org/Graphics/SVG/1.1/DTD/svg11.dtd">
<!-- Created with matplotlib (https://matplotlib.org/) -->
<svg height="345.6pt" version="1.1" viewBox="0 0 460.8 345.6" width="460.8pt" xmlns="http://www.w3.org/2000/svg" xmlns:xlink="http://www.w3.org/1999/xlink">
 <metadata>
  <rdf:RDF xmlns:cc="http://creativecommons.org/ns#" xmlns:dc="http://purl.org/dc/elements/1.1/" xmlns:rdf="http://www.w3.org/1999/02/22-rdf-syntax-ns#">
   <cc:Work>
    <dc:type rdf:resource="http://purl.org/dc/dcmitype/StillImage"/>
    <dc:date>2021-01-23T12:46:34.029208</dc:date>
    <dc:format>image/svg+xml</dc:format>
    <dc:creator>
     <cc:Agent>
      <dc:title>Matplotlib v3.3.3, https://matplotlib.org/</dc:title>
     </cc:Agent>
    </dc:creator>
   </cc:Work>
  </rdf:RDF>
 </metadata>
 <defs>
  <style type="text/css">*{stroke-linecap:butt;stroke-linejoin:round;}</style>
 </defs>
 <g id="figure_1">
  <g id="patch_1">
   <path d="M 0 345.6 
L 460.8 345.6 
L 460.8 0 
L 0 0 
z
" style="fill:#ffffff;"/>
  </g>
  <g id="axes_1">
   <g id="patch_2">
    <path d="M 57.6 307.584 
L 414.72 307.584 
L 414.72 41.472 
L 57.6 41.472 
z
" style="fill:#7d9051;"/>
   </g>
   <g id="matplotlib.axis_1">
    <g id="xtick_1">
     <g id="line2d_1">
      <defs>
       <path d="M 0 0 
L 0 3.5 
" id="m36875ea7a5" style="stroke:#000000;stroke-width:0.8;"/>
      </defs>
      <g>
       <use style="stroke:#000000;stroke-width:0.8;" x="84.712466" xlink:href="#m36875ea7a5" y="307.584"/>
      </g>
     </g>
     <g id="text_1">
      <!-- 0 -->
      <g transform="translate(81.531216 322.182437)scale(0.1 -0.1)">
       <defs>
        <path d="M 31.78125 66.40625 
Q 24.171875 66.40625 20.328125 58.90625 
Q 16.5 51.421875 16.5 36.375 
Q 16.5 21.390625 20.328125 13.890625 
Q 24.171875 6.390625 31.78125 6.390625 
Q 39.453125 6.390625 43.28125 13.890625 
Q 47.125 21.390625 47.125 36.375 
Q 47.125 51.421875 43.28125 58.90625 
Q 39.453125 66.40625 31.78125 66.40625 
z
M 31.78125 74.21875 
Q 44.046875 74.21875 50.515625 64.515625 
Q 56.984375 54.828125 56.984375 36.375 
Q 56.984375 17.96875 50.515625 8.265625 
Q 44.046875 -1.421875 31.78125 -1.421875 
Q 19.53125 -1.421875 13.0625 8.265625 
Q 6.59375 17.96875 6.59375 36.375 
Q 6.59375 54.828125 13.0625 64.515625 
Q 19.53125 74.21875 31.78125 74.21875 
z
" id="DejaVuSans-48"/>
       </defs>
       <use xlink:href="#DejaVuSans-48"/>
      </g>
     </g>
    </g>
    <g id="xtick_2">
     <g id="line2d_2">
      <g>
       <use style="stroke:#000000;stroke-width:0.8;" x="143.030389" xlink:href="#m36875ea7a5" y="307.584"/>
      </g>
     </g>
     <g id="text_2">
      <!-- 20 -->
      <g transform="translate(136.667889 322.182437)scale(0.1 -0.1)">
       <defs>
        <path d="M 19.1875 8.296875 
L 53.609375 8.296875 
L 53.609375 0 
L 7.328125 0 
L 7.328125 8.296875 
Q 12.9375 14.109375 22.625 23.890625 
Q 32.328125 33.6875 34.8125 36.53125 
Q 39.546875 41.84375 41.421875 45.53125 
Q 43.3125 49.21875 43.3125 52.78125 
Q 43.3125 58.59375 39.234375 62.25 
Q 35.15625 65.921875 28.609375 65.921875 
Q 23.96875 65.921875 18.8125 64.3125 
Q 13.671875 62.703125 7.8125 59.421875 
L 7.8125 69.390625 
Q 13.765625 71.78125 18.9375 73 
Q 24.125 74.21875 28.421875 74.21875 
Q 39.75 74.21875 46.484375 68.546875 
Q 53.21875 62.890625 53.21875 53.421875 
Q 53.21875 48.921875 51.53125 44.890625 
Q 49.859375 40.875 45.40625 35.40625 
Q 44.1875 33.984375 37.640625 27.21875 
Q 31.109375 20.453125 19.1875 8.296875 
z
" id="DejaVuSans-50"/>
       </defs>
       <use xlink:href="#DejaVuSans-50"/>
       <use x="63.623047" xlink:href="#DejaVuSans-48"/>
      </g>
     </g>
    </g>
    <g id="xtick_3">
     <g id="line2d_3">
      <g>
       <use style="stroke:#000000;stroke-width:0.8;" x="201.348312" xlink:href="#m36875ea7a5" y="307.584"/>
      </g>
     </g>
     <g id="text_3">
      <!-- 40 -->
      <g transform="translate(194.985812 322.182437)scale(0.1 -0.1)">
       <defs>
        <path d="M 37.796875 64.3125 
L 12.890625 25.390625 
L 37.796875 25.390625 
z
M 35.203125 72.90625 
L 47.609375 72.90625 
L 47.609375 25.390625 
L 58.015625 25.390625 
L 58.015625 17.1875 
L 47.609375 17.1875 
L 47.609375 0 
L 37.796875 0 
L 37.796875 17.1875 
L 4.890625 17.1875 
L 4.890625 26.703125 
z
" id="DejaVuSans-52"/>
       </defs>
       <use xlink:href="#DejaVuSans-52"/>
       <use x="63.623047" xlink:href="#DejaVuSans-48"/>
      </g>
     </g>
    </g>
    <g id="xtick_4">
     <g id="line2d_4">
      <g>
       <use style="stroke:#000000;stroke-width:0.8;" x="259.666234" xlink:href="#m36875ea7a5" y="307.584"/>
      </g>
     </g>
     <g id="text_4">
      <!-- 60 -->
      <g transform="translate(253.303734 322.182437)scale(0.1 -0.1)">
       <defs>
        <path d="M 33.015625 40.375 
Q 26.375 40.375 22.484375 35.828125 
Q 18.609375 31.296875 18.609375 23.390625 
Q 18.609375 15.53125 22.484375 10.953125 
Q 26.375 6.390625 33.015625 6.390625 
Q 39.65625 6.390625 43.53125 10.953125 
Q 47.40625 15.53125 47.40625 23.390625 
Q 47.40625 31.296875 43.53125 35.828125 
Q 39.65625 40.375 33.015625 40.375 
z
M 52.59375 71.296875 
L 52.59375 62.3125 
Q 48.875 64.0625 45.09375 64.984375 
Q 41.3125 65.921875 37.59375 65.921875 
Q 27.828125 65.921875 22.671875 59.328125 
Q 17.53125 52.734375 16.796875 39.40625 
Q 19.671875 43.65625 24.015625 45.921875 
Q 28.375 48.1875 33.59375 48.1875 
Q 44.578125 48.1875 50.953125 41.515625 
Q 57.328125 34.859375 57.328125 23.390625 
Q 57.328125 12.15625 50.6875 5.359375 
Q 44.046875 -1.421875 33.015625 -1.421875 
Q 20.359375 -1.421875 13.671875 8.265625 
Q 6.984375 17.96875 6.984375 36.375 
Q 6.984375 53.65625 15.1875 63.9375 
Q 23.390625 74.21875 37.203125 74.21875 
Q 40.921875 74.21875 44.703125 73.484375 
Q 48.484375 72.75 52.59375 71.296875 
z
" id="DejaVuSans-54"/>
       </defs>
       <use xlink:href="#DejaVuSans-54"/>
       <use x="63.623047" xlink:href="#DejaVuSans-48"/>
      </g>
     </g>
    </g>
    <g id="xtick_5">
     <g id="line2d_5">
      <g>
       <use style="stroke:#000000;stroke-width:0.8;" x="317.984157" xlink:href="#m36875ea7a5" y="307.584"/>
      </g>
     </g>
     <g id="text_5">
      <!-- 80 -->
      <g transform="translate(311.621657 322.182437)scale(0.1 -0.1)">
       <defs>
        <path d="M 31.78125 34.625 
Q 24.75 34.625 20.71875 30.859375 
Q 16.703125 27.09375 16.703125 20.515625 
Q 16.703125 13.921875 20.71875 10.15625 
Q 24.75 6.390625 31.78125 6.390625 
Q 38.8125 6.390625 42.859375 10.171875 
Q 46.921875 13.96875 46.921875 20.515625 
Q 46.921875 27.09375 42.890625 30.859375 
Q 38.875 34.625 31.78125 34.625 
z
M 21.921875 38.8125 
Q 15.578125 40.375 12.03125 44.71875 
Q 8.5 49.078125 8.5 55.328125 
Q 8.5 64.0625 14.71875 69.140625 
Q 20.953125 74.21875 31.78125 74.21875 
Q 42.671875 74.21875 48.875 69.140625 
Q 55.078125 64.0625 55.078125 55.328125 
Q 55.078125 49.078125 51.53125 44.71875 
Q 48 40.375 41.703125 38.8125 
Q 48.828125 37.15625 52.796875 32.3125 
Q 56.78125 27.484375 56.78125 20.515625 
Q 56.78125 9.90625 50.3125 4.234375 
Q 43.84375 -1.421875 31.78125 -1.421875 
Q 19.734375 -1.421875 13.25 4.234375 
Q 6.78125 9.90625 6.78125 20.515625 
Q 6.78125 27.484375 10.78125 32.3125 
Q 14.796875 37.15625 21.921875 38.8125 
z
M 18.3125 54.390625 
Q 18.3125 48.734375 21.84375 45.5625 
Q 25.390625 42.390625 31.78125 42.390625 
Q 38.140625 42.390625 41.71875 45.5625 
Q 45.3125 48.734375 45.3125 54.390625 
Q 45.3125 60.0625 41.71875 63.234375 
Q 38.140625 66.40625 31.78125 66.40625 
Q 25.390625 66.40625 21.84375 63.234375 
Q 18.3125 60.0625 18.3125 54.390625 
z
" id="DejaVuSans-56"/>
       </defs>
       <use xlink:href="#DejaVuSans-56"/>
       <use x="63.623047" xlink:href="#DejaVuSans-48"/>
      </g>
     </g>
    </g>
    <g id="xtick_6">
     <g id="line2d_6">
      <g>
       <use style="stroke:#000000;stroke-width:0.8;" x="376.302079" xlink:href="#m36875ea7a5" y="307.584"/>
      </g>
     </g>
     <g id="text_6">
      <!-- 100 -->
      <g transform="translate(366.758329 322.182437)scale(0.1 -0.1)">
       <defs>
        <path d="M 12.40625 8.296875 
L 28.515625 8.296875 
L 28.515625 63.921875 
L 10.984375 60.40625 
L 10.984375 69.390625 
L 28.421875 72.90625 
L 38.28125 72.90625 
L 38.28125 8.296875 
L 54.390625 8.296875 
L 54.390625 0 
L 12.40625 0 
z
" id="DejaVuSans-49"/>
       </defs>
       <use xlink:href="#DejaVuSans-49"/>
       <use x="63.623047" xlink:href="#DejaVuSans-48"/>
       <use x="127.246094" xlink:href="#DejaVuSans-48"/>
      </g>
     </g>
    </g>
   </g>
   <g id="matplotlib.axis_2">
    <g id="ytick_1">
     <g id="line2d_7">
      <defs>
       <path d="M 0 0 
L -3.5 0 
" id="m06382b306e" style="stroke:#000000;stroke-width:0.8;"/>
      </defs>
      <g>
       <use style="stroke:#000000;stroke-width:0.8;" x="57.6" xlink:href="#m06382b306e" y="266.052272"/>
      </g>
     </g>
     <g id="text_7">
      <!-- 20 -->
      <g transform="translate(37.875 269.851491)scale(0.1 -0.1)">
       <use xlink:href="#DejaVuSans-50"/>
       <use x="63.623047" xlink:href="#DejaVuSans-48"/>
      </g>
     </g>
    </g>
    <g id="ytick_2">
     <g id="line2d_8">
      <g>
       <use style="stroke:#000000;stroke-width:0.8;" x="57.6" xlink:href="#m06382b306e" y="207.734349"/>
      </g>
     </g>
     <g id="text_8">
      <!-- 40 -->
      <g transform="translate(37.875 211.533568)scale(0.1 -0.1)">
       <use xlink:href="#DejaVuSans-52"/>
       <use x="63.623047" xlink:href="#DejaVuSans-48"/>
      </g>
     </g>
    </g>
    <g id="ytick_3">
     <g id="line2d_9">
      <g>
       <use style="stroke:#000000;stroke-width:0.8;" x="57.6" xlink:href="#m06382b306e" y="149.416427"/>
      </g>
     </g>
     <g id="text_9">
      <!-- 60 -->
      <g transform="translate(37.875 153.215646)scale(0.1 -0.1)">
       <use xlink:href="#DejaVuSans-54"/>
       <use x="63.623047" xlink:href="#DejaVuSans-48"/>
      </g>
     </g>
    </g>
    <g id="ytick_4">
     <g id="line2d_10">
      <g>
       <use style="stroke:#000000;stroke-width:0.8;" x="57.6" xlink:href="#m06382b306e" y="91.098504"/>
      </g>
     </g>
     <g id="text_10">
      <!-- 80 -->
      <g transform="translate(37.875 94.897723)scale(0.1 -0.1)">
       <use xlink:href="#DejaVuSans-56"/>
       <use x="63.623047" xlink:href="#DejaVuSans-48"/>
      </g>
     </g>
    </g>
   </g>
   <g id="line2d_11">
    <path clip-path="url(#pad3ffa31b1)" d="M 113.871428 295.211233 
L 113.964736 286.650162 
L 113.894755 266.052272 
L 114.133858 260.141751 
L 114.626645 254.274968 
L 115.446012 248.481082 
L 116.667772 242.792169 
L 117.452148 239.995824 
L 118.361908 237.237386 
L 119.408714 234.519771 
L 120.586737 231.845895 
L 121.887226 229.221588 
L 123.301436 226.649768 
L 124.826449 224.133349 
L 126.45352 221.675249 
L 129.978838 216.954413 
L 133.824905 212.516419 
L 137.933403 208.372931 
L 142.243097 204.46563 
L 146.698586 200.712872 
L 162.561061 187.672984 
L 166.882419 183.698618 
L 170.961758 179.517223 
L 172.883334 177.333216 
L 174.7116 175.079229 
L 176.434895 172.749428 
L 178.050302 170.337982 
L 179.554904 167.847806 
L 180.95745 165.293481 
L 183.476784 160.009877 
L 185.649127 154.542572 
L 187.521132 148.958631 
L 189.136539 143.31054 
L 191.230152 134.801955 
L 194.615507 120.648196 
L 196.198839 115.040927 
L 198.02419 109.494893 
L 200.132383 104.045083 
L 202.56424 98.723573 
L 205.357669 93.562436 
L 206.903094 91.05185 
L 208.553491 88.593749 
L 210.305945 86.202715 
L 212.16337 83.887493 
L 214.119937 81.659748 
L 216.178559 79.536976 
L 218.339238 77.525008 
L 220.593226 75.638423 
L 222.94927 73.891801 
L 225.398623 72.296806 
L 227.941284 70.862185 
L 230.577254 69.599602 
L 233.29487 68.509057 
L 236.082466 67.581802 
L 238.928381 66.817837 
L 241.82095 66.208415 
L 244.745594 65.747703 
L 247.696481 65.432787 
L 250.659031 65.260749 
L 253.618666 65.225758 
L 256.569553 65.319067 
L 259.497112 65.537759 
L 265.288082 66.310471 
L 271.00907 67.441839 
L 276.680488 68.844385 
L 285.122007 71.238336 
L 293.516872 73.780997 
L 299.062907 75.606348 
L 304.541876 77.597905 
L 309.933368 79.813986 
L 315.214055 82.304162 
L 320.35478 85.09759 
L 325.323467 88.200104 
L 330.090958 91.608786 
L 334.619344 95.323638 
L 338.876553 99.347574 
L 340.894353 101.473263 
L 342.830508 103.674764 
L 344.679186 105.949163 
L 346.437471 108.29646 
L 348.096616 110.713738 
L 349.656621 113.198081 
L 351.108737 115.755322 
L 352.450049 118.376713 
L 353.674725 121.065169 
L 354.77985 123.814859 
L 355.753759 126.619951 
L 356.590622 129.471697 
L 357.287521 132.355519 
L 357.832793 135.268499 
L 358.220607 138.198974 
L 358.445131 141.135282 
L 358.497618 144.068673 
L 358.369318 146.990401 
L 358.057317 149.891718 
L 357.555783 152.76096 
L 356.867632 155.598127 
L 356.010358 158.391555 
L 354.989795 161.141245 
L 353.814688 163.841365 
L 352.496703 166.488999 
L 351.047503 169.075399 
L 349.472919 171.600565 
L 347.790447 174.058665 
L 346.003003 176.440952 
L 344.119334 178.747426 
L 342.151104 180.972255 
L 340.092481 183.106691 
L 337.952213 185.144902 
L 335.730301 187.081057 
L 333.432574 188.906408 
L 331.059035 190.620955 
L 328.612598 192.213034 
L 326.09618 193.676814 
L 323.515612 195.006463 
L 320.87381 196.196148 
L 318.167858 197.242955 
L 315.406505 198.135219 
L 312.589749 198.867109 
L 309.723423 199.435709 
L 306.807527 199.832271 
L 303.847892 200.053879 
L 300.841603 200.08887 
L 297.800324 199.934327 
L 294.718222 199.58442 
L 294.718222 199.58442 
" style="fill:none;stroke:#fea952;stroke-linecap:square;"/>
   </g>
   <g id="line2d_12">
    <path clip-path="url(#pad3ffa31b1)" d="M 102.211127 294.934467 
L 102.301528 286.743843 
L 102.236963 265.684736 
L 102.499856 259.311574 
L 103.053664 252.823992 
L 103.997831 246.249855 
L 104.648189 242.957299 
L 105.437621 239.642105 
L 106.375447 236.34262 
L 107.477861 233.044926 
L 108.735093 229.817325 
L 110.135996 226.666972 
L 111.666919 223.601578 
L 113.326608 220.604768 
L 115.100514 217.695541 
L 116.981997 214.868674 
L 118.957902 212.132549 
L 121.030007 209.47393 
L 123.189031 206.902676 
L 127.692065 202.07666 
L 132.326236 197.672032 
L 137.008954 193.596755 
L 143.927006 187.948614 
L 152.708563 180.771246 
L 156.756685 177.209144 
L 160.481222 173.626191 
L 163.824972 169.985748 
L 166.744652 166.258019 
L 168.067474 164.306203 
L 170.522897 160.082021 
L 172.706637 155.532921 
L 174.63712 150.698758 
L 176.339627 145.640025 
L 177.8406 140.405206 
L 179.868412 132.165658 
L 183.360213 117.589184 
L 185.078056 111.524198 
L 187.09132 105.431451 
L 189.446438 99.370709 
L 192.209665 93.354963 
L 193.756967 90.386633 
L 195.425072 87.448295 
L 197.219663 84.550282 
L 199.146095 81.698816 
L 201.208285 78.903962 
L 203.399855 76.190741 
L 205.746993 73.539833 
L 208.230138 71.001063 
L 210.853063 68.580938 
L 213.647135 66.268737 
L 216.584575 64.117863 
L 219.66715 62.138586 
L 222.902791 60.343022 
L 226.233496 58.775048 
L 229.613467 57.441696 
L 233.058523 56.317035 
L 236.523821 55.404805 
L 240.005996 54.686907 
L 243.507891 54.149975 
L 247.020305 53.788819 
L 250.521146 53.597979 
L 253.98729 53.568 
L 257.438415 53.687889 
L 260.834923 53.951152 
L 264.148612 54.34112 
L 270.572491 55.427457 
L 276.757293 56.820194 
L 282.699782 58.39805 
L 294.183437 61.775505 
L 302.956977 64.612012 
L 308.847457 66.758109 
L 314.758915 69.195451 
L 320.633861 71.976291 
L 326.381239 75.11155 
L 331.950421 78.602047 
L 337.330281 82.463766 
L 339.938996 84.537873 
L 342.480713 86.707485 
L 344.942825 88.963705 
L 347.335831 91.317642 
L 349.652664 93.770589 
L 351.881359 96.318047 
L 354.014226 98.95658 
L 356.053828 101.696089 
L 357.974268 104.511222 
L 359.799068 107.438744 
L 361.492004 110.442416 
L 363.064239 113.541615 
L 364.496954 116.71562 
L 365.79823 119.989351 
L 366.945402 123.335696 
L 367.927863 126.73196 
L 368.751983 130.209518 
L 369.395565 133.738301 
L 369.850243 137.309717 
L 370.106849 140.926623 
L 370.149973 144.580354 
L 369.966041 148.237486 
L 369.5467 151.900025 
L 368.890716 155.510234 
L 368.017954 159.020042 
L 366.94507 162.450038 
L 365.684465 165.795621 
L 364.256099 169.039072 
L 362.671881 172.19031 
L 360.944618 175.24681 
L 359.09784 178.18844 
L 357.119944 181.058643 
L 355.03673 183.818687 
L 352.8551 186.47566 
L 350.54625 189.069213 
L 348.136045 191.553008 
L 345.614748 193.938353 
L 342.985348 196.213609 
L 340.262341 198.361221 
L 337.420876 200.396751 
L 334.477188 202.294988 
L 331.438437 204.04501 
L 328.304863 205.641418 
L 325.081993 207.074126 
L 321.754089 208.34152 
L 318.339706 209.423954 
L 314.859258 210.307762 
L 311.295201 210.992902 
L 307.678421 211.463296 
L 303.983638 211.716674 
L 300.249683 211.737425 
L 296.484622 211.523466 
L 293.40252 211.173558 
L 293.40252 211.173558 
" style="fill:none;stroke:#ffffff;stroke-linecap:square;"/>
   </g>
   <g id="line2d_13">
    <path clip-path="url(#pad3ffa31b1)" d="M 125.531728 295.488 
L 125.631231 289.519262 
L 125.508678 274.888082 
L 125.552547 266.419808 
L 125.767861 260.971927 
L 126.199625 255.725943 
L 126.894192 250.712309 
L 127.897924 245.942232 
L 129.245955 241.429847 
L 130.082336 239.222218 
L 132.107534 234.841598 
L 134.552385 230.571157 
L 137.389895 226.430047 
L 140.541815 222.492343 
L 144.010841 218.745624 
L 147.809441 215.119874 
L 151.903571 211.549671 
L 158.550268 206.123239 
L 167.95807 198.423705 
L 172.73345 194.206196 
L 177.435853 189.647967 
L 179.718464 187.221721 
L 181.941695 184.680684 
L 184.088737 182.015259 
L 186.125139 179.240836 
L 188.033129 176.36976 
L 189.778662 173.461537 
L 191.392003 170.504941 
L 192.88151 167.505222 
L 195.510923 161.431021 
L 197.723825 155.331093 
L 199.603344 149.234329 
L 201.195089 143.247553 
L 203.894457 131.80199 
L 205.870802 123.707207 
L 207.319622 118.557657 
L 208.95706 113.558335 
L 210.818328 108.719457 
L 212.918816 104.092182 
L 215.290265 99.676578 
L 217.960887 95.488683 
L 220.926886 91.584246 
L 222.49288 89.779664 
L 224.12698 88.072889 
L 225.825413 86.469078 
L 227.539318 85.008109 
L 229.313965 83.665739 
L 231.130095 82.455026 
L 232.979777 81.381348 
L 234.921013 80.424156 
L 236.976272 79.576418 
L 239.10641 78.846569 
L 241.332941 78.230869 
L 243.635903 77.729923 
L 245.983296 77.345431 
L 248.372656 77.076755 
L 250.796916 76.923518 
L 255.70069 76.950244 
L 260.654077 77.405054 
L 265.742156 78.24904 
L 270.941013 79.410628 
L 276.300537 80.830314 
L 287.269282 84.054447 
L 295.168837 86.600684 
L 300.236295 88.437701 
L 305.10782 90.432522 
L 309.79425 92.632032 
L 314.328321 95.08363 
L 318.696514 97.79816 
L 322.851634 100.753806 
L 326.757976 103.939791 
L 330.417274 107.377507 
L 333.779656 111.031482 
L 336.821115 114.89683 
L 339.514173 118.957418 
L 341.835859 123.21181 
L 343.76147 127.640367 
L 344.562116 129.904206 
L 345.25338 132.211435 
L 345.823059 134.501519 
L 346.270021 136.798697 
L 346.590972 139.088232 
L 346.783414 141.343941 
L 346.845262 143.556993 
L 346.772595 145.743316 
L 346.567935 147.883411 
L 346.220851 150.011685 
L 345.717309 152.176211 
L 345.075646 154.333072 
L 344.295124 156.486869 
L 343.373278 158.643659 
L 342.321525 160.787687 
L 341.150388 162.903987 
L 338.46095 167.058687 
L 335.383568 171.019193 
L 332.048917 174.660373 
L 328.475253 177.948506 
L 324.697194 180.845159 
L 322.748009 182.131081 
L 320.753923 183.308618 
L 318.72636 184.371508 
L 316.665627 185.318171 
L 314.581627 186.14439 
L 312.473303 186.846485 
L 310.32024 187.426457 
L 308.151645 187.878516 
L 305.936632 188.201246 
L 303.712147 188.391084 
L 301.433524 188.440315 
L 299.116025 188.345189 
L 296.033923 187.995281 
L 296.033923 187.995281 
" style="fill:none;stroke:#ffffff;stroke-linecap:square;"/>
   </g>
   <g id="patch_3">
    <path d="M 57.6 307.584 
L 57.6 41.472 
" style="fill:none;stroke:#000000;stroke-linecap:square;stroke-linejoin:miter;stroke-width:0.8;"/>
   </g>
   <g id="patch_4">
    <path d="M 414.72 307.584 
L 414.72 41.472 
" style="fill:none;stroke:#000000;stroke-linecap:square;stroke-linejoin:miter;stroke-width:0.8;"/>
   </g>
   <g id="patch_5">
    <path d="M 57.6 307.584 
L 414.72 307.584 
" style="fill:none;stroke:#000000;stroke-linecap:square;stroke-linejoin:miter;stroke-width:0.8;"/>
   </g>
   <g id="patch_6">
    <path d="M 57.6 41.472 
L 414.72 41.472 
" style="fill:none;stroke:#000000;stroke-linecap:square;stroke-linejoin:miter;stroke-width:0.8;"/>
   </g>
  </g>
 </g>
 <defs>
  <clipPath id="pad3ffa31b1">
   <rect height="266.112" width="357.12" x="57.6" y="41.472"/>
  </clipPath>
 </defs>
</svg>
