<?xml version="1.0" encoding="utf-8" standalone="no"?>
<!DOCTYPE svg PUBLIC "-//W3C//DTD SVG 1.1//EN"
  "http://www.w3.org/Graphics/SVG/1.1/DTD/svg11.dtd">
<!-- Created with matplotlib (https://matplotlib.org/) -->
<svg height="345.6pt" version="1.1" viewBox="0 0 460.8 345.6" width="460.8pt" xmlns="http://www.w3.org/2000/svg" xmlns:xlink="http://www.w3.org/1999/xlink">
 <metadata>
  <rdf:RDF xmlns:cc="http://creativecommons.org/ns#" xmlns:dc="http://purl.org/dc/elements/1.1/" xmlns:rdf="http://www.w3.org/1999/02/22-rdf-syntax-ns#">
   <cc:Work>
    <dc:type rdf:resource="http://purl.org/dc/dcmitype/StillImage"/>
    <dc:date>2021-01-25T11:18:40.386630</dc:date>
    <dc:format>image/svg+xml</dc:format>
    <dc:creator>
     <cc:Agent>
      <dc:title>Matplotlib v3.3.3, https://matplotlib.org/</dc:title>
     </cc:Agent>
    </dc:creator>
   </cc:Work>
  </rdf:RDF>
 </metadata>
 <defs>
  <style type="text/css">*{stroke-linecap:butt;stroke-linejoin:round;}</style>
 </defs>
 <g id="figure_1">
  <g id="patch_1">
   <path d="M 0 345.6 
L 460.8 345.6 
L 460.8 0 
L 0 0 
z
" style="fill:#ffffff;"/>
  </g>
  <g id="axes_1">
   <g id="patch_2">
    <path d="M 57.6 307.584 
L 414.72 307.584 
L 414.72 41.472 
L 57.6 41.472 
z
" style="fill:#7d9051;"/>
   </g>
   <g id="matplotlib.axis_1">
    <g id="xtick_1">
     <g id="line2d_1">
      <defs>
       <path d="M 0 0 
L 0 3.5 
" id="m876c1ed1d7" style="stroke:#000000;stroke-width:0.8;"/>
      </defs>
      <g>
       <use style="stroke:#000000;stroke-width:0.8;" x="82.622791" xlink:href="#m876c1ed1d7" y="307.584"/>
      </g>
     </g>
     <g id="text_1">
      <!-- 0 -->
      <g transform="translate(79.441541 322.182437)scale(0.1 -0.1)">
       <defs>
        <path d="M 31.78125 66.40625 
Q 24.171875 66.40625 20.328125 58.90625 
Q 16.5 51.421875 16.5 36.375 
Q 16.5 21.390625 20.328125 13.890625 
Q 24.171875 6.390625 31.78125 6.390625 
Q 39.453125 6.390625 43.28125 13.890625 
Q 47.125 21.390625 47.125 36.375 
Q 47.125 51.421875 43.28125 58.90625 
Q 39.453125 66.40625 31.78125 66.40625 
z
M 31.78125 74.21875 
Q 44.046875 74.21875 50.515625 64.515625 
Q 56.984375 54.828125 56.984375 36.375 
Q 56.984375 17.96875 50.515625 8.265625 
Q 44.046875 -1.421875 31.78125 -1.421875 
Q 19.53125 -1.421875 13.0625 8.265625 
Q 6.59375 17.96875 6.59375 36.375 
Q 6.59375 54.828125 13.0625 64.515625 
Q 19.53125 74.21875 31.78125 74.21875 
z
" id="DejaVuSans-48"/>
       </defs>
       <use xlink:href="#DejaVuSans-48"/>
      </g>
     </g>
    </g>
    <g id="xtick_2">
     <g id="line2d_2">
      <g>
       <use style="stroke:#000000;stroke-width:0.8;" x="152.044176" xlink:href="#m876c1ed1d7" y="307.584"/>
      </g>
     </g>
     <g id="text_2">
      <!-- 20 -->
      <g transform="translate(145.681676 322.182437)scale(0.1 -0.1)">
       <defs>
        <path d="M 19.1875 8.296875 
L 53.609375 8.296875 
L 53.609375 0 
L 7.328125 0 
L 7.328125 8.296875 
Q 12.9375 14.109375 22.625 23.890625 
Q 32.328125 33.6875 34.8125 36.53125 
Q 39.546875 41.84375 41.421875 45.53125 
Q 43.3125 49.21875 43.3125 52.78125 
Q 43.3125 58.59375 39.234375 62.25 
Q 35.15625 65.921875 28.609375 65.921875 
Q 23.96875 65.921875 18.8125 64.3125 
Q 13.671875 62.703125 7.8125 59.421875 
L 7.8125 69.390625 
Q 13.765625 71.78125 18.9375 73 
Q 24.125 74.21875 28.421875 74.21875 
Q 39.75 74.21875 46.484375 68.546875 
Q 53.21875 62.890625 53.21875 53.421875 
Q 53.21875 48.921875 51.53125 44.890625 
Q 49.859375 40.875 45.40625 35.40625 
Q 44.1875 33.984375 37.640625 27.21875 
Q 31.109375 20.453125 19.1875 8.296875 
z
" id="DejaVuSans-50"/>
       </defs>
       <use xlink:href="#DejaVuSans-50"/>
       <use x="63.623047" xlink:href="#DejaVuSans-48"/>
      </g>
     </g>
    </g>
    <g id="xtick_3">
     <g id="line2d_3">
      <g>
       <use style="stroke:#000000;stroke-width:0.8;" x="221.465562" xlink:href="#m876c1ed1d7" y="307.584"/>
      </g>
     </g>
     <g id="text_3">
      <!-- 40 -->
      <g transform="translate(215.103062 322.182437)scale(0.1 -0.1)">
       <defs>
        <path d="M 37.796875 64.3125 
L 12.890625 25.390625 
L 37.796875 25.390625 
z
M 35.203125 72.90625 
L 47.609375 72.90625 
L 47.609375 25.390625 
L 58.015625 25.390625 
L 58.015625 17.1875 
L 47.609375 17.1875 
L 47.609375 0 
L 37.796875 0 
L 37.796875 17.1875 
L 4.890625 17.1875 
L 4.890625 26.703125 
z
" id="DejaVuSans-52"/>
       </defs>
       <use xlink:href="#DejaVuSans-52"/>
       <use x="63.623047" xlink:href="#DejaVuSans-48"/>
      </g>
     </g>
    </g>
    <g id="xtick_4">
     <g id="line2d_4">
      <g>
       <use style="stroke:#000000;stroke-width:0.8;" x="290.886947" xlink:href="#m876c1ed1d7" y="307.584"/>
      </g>
     </g>
     <g id="text_4">
      <!-- 60 -->
      <g transform="translate(284.524447 322.182437)scale(0.1 -0.1)">
       <defs>
        <path d="M 33.015625 40.375 
Q 26.375 40.375 22.484375 35.828125 
Q 18.609375 31.296875 18.609375 23.390625 
Q 18.609375 15.53125 22.484375 10.953125 
Q 26.375 6.390625 33.015625 6.390625 
Q 39.65625 6.390625 43.53125 10.953125 
Q 47.40625 15.53125 47.40625 23.390625 
Q 47.40625 31.296875 43.53125 35.828125 
Q 39.65625 40.375 33.015625 40.375 
z
M 52.59375 71.296875 
L 52.59375 62.3125 
Q 48.875 64.0625 45.09375 64.984375 
Q 41.3125 65.921875 37.59375 65.921875 
Q 27.828125 65.921875 22.671875 59.328125 
Q 17.53125 52.734375 16.796875 39.40625 
Q 19.671875 43.65625 24.015625 45.921875 
Q 28.375 48.1875 33.59375 48.1875 
Q 44.578125 48.1875 50.953125 41.515625 
Q 57.328125 34.859375 57.328125 23.390625 
Q 57.328125 12.15625 50.6875 5.359375 
Q 44.046875 -1.421875 33.015625 -1.421875 
Q 20.359375 -1.421875 13.671875 8.265625 
Q 6.984375 17.96875 6.984375 36.375 
Q 6.984375 53.65625 15.1875 63.9375 
Q 23.390625 74.21875 37.203125 74.21875 
Q 40.921875 74.21875 44.703125 73.484375 
Q 48.484375 72.75 52.59375 71.296875 
z
" id="DejaVuSans-54"/>
       </defs>
       <use xlink:href="#DejaVuSans-54"/>
       <use x="63.623047" xlink:href="#DejaVuSans-48"/>
      </g>
     </g>
    </g>
    <g id="xtick_5">
     <g id="line2d_5">
      <g>
       <use style="stroke:#000000;stroke-width:0.8;" x="360.308333" xlink:href="#m876c1ed1d7" y="307.584"/>
      </g>
     </g>
     <g id="text_5">
      <!-- 80 -->
      <g transform="translate(353.945833 322.182437)scale(0.1 -0.1)">
       <defs>
        <path d="M 31.78125 34.625 
Q 24.75 34.625 20.71875 30.859375 
Q 16.703125 27.09375 16.703125 20.515625 
Q 16.703125 13.921875 20.71875 10.15625 
Q 24.75 6.390625 31.78125 6.390625 
Q 38.8125 6.390625 42.859375 10.171875 
Q 46.921875 13.96875 46.921875 20.515625 
Q 46.921875 27.09375 42.890625 30.859375 
Q 38.875 34.625 31.78125 34.625 
z
M 21.921875 38.8125 
Q 15.578125 40.375 12.03125 44.71875 
Q 8.5 49.078125 8.5 55.328125 
Q 8.5 64.0625 14.71875 69.140625 
Q 20.953125 74.21875 31.78125 74.21875 
Q 42.671875 74.21875 48.875 69.140625 
Q 55.078125 64.0625 55.078125 55.328125 
Q 55.078125 49.078125 51.53125 44.71875 
Q 48 40.375 41.703125 38.8125 
Q 48.828125 37.15625 52.796875 32.3125 
Q 56.78125 27.484375 56.78125 20.515625 
Q 56.78125 9.90625 50.3125 4.234375 
Q 43.84375 -1.421875 31.78125 -1.421875 
Q 19.734375 -1.421875 13.25 4.234375 
Q 6.78125 9.90625 6.78125 20.515625 
Q 6.78125 27.484375 10.78125 32.3125 
Q 14.796875 37.15625 21.921875 38.8125 
z
M 18.3125 54.390625 
Q 18.3125 48.734375 21.84375 45.5625 
Q 25.390625 42.390625 31.78125 42.390625 
Q 38.140625 42.390625 41.71875 45.5625 
Q 45.3125 48.734375 45.3125 54.390625 
Q 45.3125 60.0625 41.71875 63.234375 
Q 38.140625 66.40625 31.78125 66.40625 
Q 25.390625 66.40625 21.84375 63.234375 
Q 18.3125 60.0625 18.3125 54.390625 
z
" id="DejaVuSans-56"/>
       </defs>
       <use xlink:href="#DejaVuSans-56"/>
       <use x="63.623047" xlink:href="#DejaVuSans-48"/>
      </g>
     </g>
    </g>
   </g>
   <g id="matplotlib.axis_2">
    <g id="ytick_1">
     <g id="line2d_6">
      <defs>
       <path d="M 0 0 
L -3.5 0 
" id="mba53544602" style="stroke:#000000;stroke-width:0.8;"/>
      </defs>
      <g>
       <use style="stroke:#000000;stroke-width:0.8;" x="57.6" xlink:href="#mba53544602" y="281.301199"/>
      </g>
     </g>
     <g id="text_6">
      <!-- 10 -->
      <g transform="translate(37.875 285.100418)scale(0.1 -0.1)">
       <defs>
        <path d="M 12.40625 8.296875 
L 28.515625 8.296875 
L 28.515625 63.921875 
L 10.984375 60.40625 
L 10.984375 69.390625 
L 28.421875 72.90625 
L 38.28125 72.90625 
L 38.28125 8.296875 
L 54.390625 8.296875 
L 54.390625 0 
L 12.40625 0 
z
" id="DejaVuSans-49"/>
       </defs>
       <use xlink:href="#DejaVuSans-49"/>
       <use x="63.623047" xlink:href="#DejaVuSans-48"/>
      </g>
     </g>
    </g>
    <g id="ytick_2">
     <g id="line2d_7">
      <g>
       <use style="stroke:#000000;stroke-width:0.8;" x="57.6" xlink:href="#mba53544602" y="246.590506"/>
      </g>
     </g>
     <g id="text_7">
      <!-- 20 -->
      <g transform="translate(37.875 250.389725)scale(0.1 -0.1)">
       <use xlink:href="#DejaVuSans-50"/>
       <use x="63.623047" xlink:href="#DejaVuSans-48"/>
      </g>
     </g>
    </g>
    <g id="ytick_3">
     <g id="line2d_8">
      <g>
       <use style="stroke:#000000;stroke-width:0.8;" x="57.6" xlink:href="#mba53544602" y="211.879813"/>
      </g>
     </g>
     <g id="text_8">
      <!-- 30 -->
      <g transform="translate(37.875 215.679032)scale(0.1 -0.1)">
       <defs>
        <path d="M 40.578125 39.3125 
Q 47.65625 37.796875 51.625 33 
Q 55.609375 28.21875 55.609375 21.1875 
Q 55.609375 10.40625 48.1875 4.484375 
Q 40.765625 -1.421875 27.09375 -1.421875 
Q 22.515625 -1.421875 17.65625 -0.515625 
Q 12.796875 0.390625 7.625 2.203125 
L 7.625 11.71875 
Q 11.71875 9.328125 16.59375 8.109375 
Q 21.484375 6.890625 26.8125 6.890625 
Q 36.078125 6.890625 40.9375 10.546875 
Q 45.796875 14.203125 45.796875 21.1875 
Q 45.796875 27.640625 41.28125 31.265625 
Q 36.765625 34.90625 28.71875 34.90625 
L 20.21875 34.90625 
L 20.21875 43.015625 
L 29.109375 43.015625 
Q 36.375 43.015625 40.234375 45.921875 
Q 44.09375 48.828125 44.09375 54.296875 
Q 44.09375 59.90625 40.109375 62.90625 
Q 36.140625 65.921875 28.71875 65.921875 
Q 24.65625 65.921875 20.015625 65.03125 
Q 15.375 64.15625 9.8125 62.3125 
L 9.8125 71.09375 
Q 15.4375 72.65625 20.34375 73.4375 
Q 25.25 74.21875 29.59375 74.21875 
Q 40.828125 74.21875 47.359375 69.109375 
Q 53.90625 64.015625 53.90625 55.328125 
Q 53.90625 49.265625 50.4375 45.09375 
Q 46.96875 40.921875 40.578125 39.3125 
z
" id="DejaVuSans-51"/>
       </defs>
       <use xlink:href="#DejaVuSans-51"/>
       <use x="63.623047" xlink:href="#DejaVuSans-48"/>
      </g>
     </g>
    </g>
    <g id="ytick_4">
     <g id="line2d_9">
      <g>
       <use style="stroke:#000000;stroke-width:0.8;" x="57.6" xlink:href="#mba53544602" y="177.169121"/>
      </g>
     </g>
     <g id="text_9">
      <!-- 40 -->
      <g transform="translate(37.875 180.968339)scale(0.1 -0.1)">
       <use xlink:href="#DejaVuSans-52"/>
       <use x="63.623047" xlink:href="#DejaVuSans-48"/>
      </g>
     </g>
    </g>
    <g id="ytick_5">
     <g id="line2d_10">
      <g>
       <use style="stroke:#000000;stroke-width:0.8;" x="57.6" xlink:href="#mba53544602" y="142.458428"/>
      </g>
     </g>
     <g id="text_10">
      <!-- 50 -->
      <g transform="translate(37.875 146.257647)scale(0.1 -0.1)">
       <defs>
        <path d="M 10.796875 72.90625 
L 49.515625 72.90625 
L 49.515625 64.59375 
L 19.828125 64.59375 
L 19.828125 46.734375 
Q 21.96875 47.46875 24.109375 47.828125 
Q 26.265625 48.1875 28.421875 48.1875 
Q 40.625 48.1875 47.75 41.5 
Q 54.890625 34.8125 54.890625 23.390625 
Q 54.890625 11.625 47.5625 5.09375 
Q 40.234375 -1.421875 26.90625 -1.421875 
Q 22.3125 -1.421875 17.546875 -0.640625 
Q 12.796875 0.140625 7.71875 1.703125 
L 7.71875 11.625 
Q 12.109375 9.234375 16.796875 8.0625 
Q 21.484375 6.890625 26.703125 6.890625 
Q 35.15625 6.890625 40.078125 11.328125 
Q 45.015625 15.765625 45.015625 23.390625 
Q 45.015625 31 40.078125 35.4375 
Q 35.15625 39.890625 26.703125 39.890625 
Q 22.75 39.890625 18.8125 39.015625 
Q 14.890625 38.140625 10.796875 36.28125 
z
" id="DejaVuSans-53"/>
       </defs>
       <use xlink:href="#DejaVuSans-53"/>
       <use x="63.623047" xlink:href="#DejaVuSans-48"/>
      </g>
     </g>
    </g>
    <g id="ytick_6">
     <g id="line2d_11">
      <g>
       <use style="stroke:#000000;stroke-width:0.8;" x="57.6" xlink:href="#mba53544602" y="107.747735"/>
      </g>
     </g>
     <g id="text_11">
      <!-- 60 -->
      <g transform="translate(37.875 111.546954)scale(0.1 -0.1)">
       <use xlink:href="#DejaVuSans-54"/>
       <use x="63.623047" xlink:href="#DejaVuSans-48"/>
      </g>
     </g>
    </g>
    <g id="ytick_7">
     <g id="line2d_12">
      <g>
       <use style="stroke:#000000;stroke-width:0.8;" x="57.6" xlink:href="#mba53544602" y="73.037042"/>
      </g>
     </g>
     <g id="text_12">
      <!-- 70 -->
      <g transform="translate(37.875 76.836261)scale(0.1 -0.1)">
       <defs>
        <path d="M 8.203125 72.90625 
L 55.078125 72.90625 
L 55.078125 68.703125 
L 28.609375 0 
L 18.3125 0 
L 43.21875 64.59375 
L 8.203125 64.59375 
z
" id="DejaVuSans-55"/>
       </defs>
       <use xlink:href="#DejaVuSans-55"/>
       <use x="63.623047" xlink:href="#DejaVuSans-48"/>
      </g>
     </g>
    </g>
   </g>
   <g id="line2d_13">
    <path clip-path="url(#p1ce6d1c85c)" d="M 354.428341 169.942354 
L 354.903878 156.335763 
L 354.987184 149.341558 
L 354.862225 142.288345 
L 354.452639 135.231662 
L 353.689004 128.220102 
L 353.150988 124.749032 
L 352.494956 121.309203 
L 351.710494 117.907555 
L 350.78719 114.54756 
L 349.721571 111.239631 
L 348.499755 107.987239 
L 347.111327 104.800797 
L 345.549346 101.683777 
L 343.806869 98.64312 
L 341.890839 95.692712 
L 339.808198 92.842964 
L 337.569358 90.107761 
L 335.177791 87.500988 
L 332.650853 85.036529 
L 329.992014 82.721326 
L 327.211687 80.576205 
L 324.316815 78.604637 
L 321.321283 76.82745 
L 318.22856 75.251585 
L 315.04906 73.863157 
L 311.796669 72.651754 
L 308.478326 71.606962 
L 305.104447 70.711426 
L 301.685444 69.951262 
L 294.746776 68.795396 
L 287.74563 68.028289 
L 280.744483 67.573579 
L 273.767634 67.448621 
L 266.822024 67.70548 
L 263.364839 67.993579 
L 259.921538 68.392752 
L 256.48518 68.909941 
L 253.066176 69.55556 
L 249.664528 70.329608 
L 246.283707 71.235557 
L 242.934125 72.269936 
L 239.626196 73.436215 
L 236.370333 74.734395 
L 233.170007 76.157534 
L 230.035632 77.712573 
L 226.97762 79.39257 
L 224.006384 81.200997 
L 221.125397 83.141325 
L 218.341599 85.199669 
L 215.64805 87.372558 
L 210.472685 91.989081 
L 205.502114 96.85552 
L 190.812549 111.725581 
L 183.256031 118.889867 
L 162.984986 137.85579 
L 155.605493 145.210986 
L 150.829302 150.250978 
L 146.191953 155.422872 
L 141.731629 160.754434 
L 137.486512 166.25955 
L 133.505195 171.955575 
L 129.822391 177.866806 
L 126.490164 184.000185 
L 124.969836 187.158858 
L 123.557111 190.373068 
L 122.262402 193.639344 
L 121.096122 196.950744 
L 120.065215 200.300326 
L 119.183563 203.68809 
L 118.461581 207.103622 
L 117.90621 210.546923 
L 117.524392 214.007579 
L 117.333483 217.482119 
L 117.336954 220.967073 
L 117.534805 224.448555 
L 117.923565 227.923096 
L 118.499763 231.37681 
L 119.259927 234.799284 
L 120.207529 238.187047 
L 121.328684 241.522745 
L 122.630335 244.806377 
L 124.10554 248.020587 
L 125.750826 251.158433 
L 127.559253 254.209503 
L 129.534292 257.159912 
L 131.662057 259.999247 
L 133.94255 262.713623 
L 136.361885 265.285685 
L 138.920063 267.708492 
L 141.610142 269.961216 
L 144.425179 272.033444 
L 147.361704 273.914764 
L 150.409303 275.584348 
L 153.561033 277.042197 
L 156.809954 278.281369 
L 160.13871 279.315747 
L 163.536887 280.148804 
L 166.9906 280.787481 
L 170.485967 281.23872 
L 174.012574 281.509463 
L 177.556535 281.606653 
L 181.103968 281.533761 
L 184.644459 281.301199 
L 188.164123 280.912439 
L 191.656019 280.367481 
L 195.109733 279.666325 
L 198.514852 278.802029 
L 201.867905 277.774593 
L 205.158478 276.587487 
L 208.376159 275.230299 
L 211.514006 273.706499 
L 214.561605 272.016089 
L 217.515485 270.148653 
L 220.365233 268.114607 
L 223.096964 265.910478 
L 225.710679 263.557093 
L 228.189023 261.057923 
L 230.531995 258.423381 
L 232.722239 255.66041 
L 234.756286 252.782894 
L 236.623721 249.801245 
L 238.314132 246.722407 
L 239.824047 243.556792 
L 241.139582 240.311342 
L 242.26768 236.999942 
L 243.20834 233.629534 
L 243.961562 230.21053 
L 244.534288 226.753345 
L 244.926519 223.264921 
L 245.141725 219.75567 
L 245.179907 216.232534 
L 245.048006 212.709399 
L 244.746023 209.196677 
L 244.277429 205.697839 
L 243.642223 202.22677 
L 242.847348 198.793882 
L 241.892804 195.402648 
L 240.778591 192.070421 
L 239.511651 188.797203 
L 238.095455 185.603819 
L 236.526531 182.49027 
L 234.811823 179.47044 
L 232.95133 176.55127 
L 232.95133 176.55127 
" style="fill:none;stroke:#fea952;stroke-linecap:square;"/>
   </g>
   <g id="line2d_14">
    <path clip-path="url(#p1ce6d1c85c)" d="M 340.55546 169.37994 
L 341.021827 156.087129 
L 341.10358 149.478343 
L 340.992751 142.929314 
L 340.629136 136.529322 
L 339.968565 130.34677 
L 338.965773 124.429198 
L 338.322492 121.586489 
L 337.571706 118.804804 
L 336.72417 116.122326 
L 335.771313 113.533401 
L 334.698386 111.021091 
L 333.502889 108.587112 
L 332.162557 106.205074 
L 330.681047 103.885008 
L 329.064183 101.63724 
L 327.338465 99.494026 
L 325.483776 97.440767 
L 323.533181 95.507499 
L 321.510712 93.714081 
L 319.396141 92.051848 
L 317.23251 90.545566 
L 315.017811 89.198359 
L 312.672226 87.97559 
L 310.20289 86.874221 
L 307.626949 85.895114 
L 304.916337 85.026551 
L 302.091067 84.264754 
L 299.189682 83.609385 
L 293.078512 82.579083 
L 286.702791 81.873348 
L 280.31684 81.451269 
L 274.086251 81.329242 
L 267.97505 81.541797 
L 261.987919 82.122399 
L 256.146808 83.09376 
L 253.258268 83.74073 
L 247.550779 85.364196 
L 244.768461 86.333125 
L 242.011825 87.420873 
L 239.340648 88.595232 
L 236.720892 89.881404 
L 234.196268 91.252767 
L 231.762342 92.716998 
L 229.380044 94.305283 
L 227.059121 96.006054 
L 224.745523 97.861082 
L 220.101266 101.99226 
L 215.416093 106.57592 
L 200.426986 121.742354 
L 192.705735 129.062195 
L 172.690941 147.783912 
L 165.615607 154.832357 
L 161.094043 159.600216 
L 156.762026 164.425466 
L 152.632708 169.35325 
L 148.767732 174.353202 
L 145.187947 179.458005 
L 141.918784 184.682259 
L 139.000717 190.021748 
L 136.464357 195.489331 
L 135.358179 198.251694 
L 134.366126 201.03488 
L 133.501926 203.797175 
L 132.767672 206.559527 
L 132.16871 209.314449 
L 131.706745 212.06955 
L 131.387759 214.769302 
L 131.217754 217.46829 
L 131.198865 220.179307 
L 131.332982 222.904703 
L 131.61856 225.638303 
L 132.053738 228.366342 
L 132.630982 231.059224 
L 133.368314 233.763599 
L 134.235846 236.40627 
L 135.24903 239.014859 
L 136.402007 241.573103 
L 137.69469 244.079078 
L 139.097031 246.485979 
L 140.644973 248.833693 
L 142.292512 251.068033 
L 144.055885 253.20081 
L 145.909205 255.20492 
L 147.834204 257.063716 
L 149.841108 258.779787 
L 151.915039 260.342629 
L 154.032557 261.738029 
L 156.238181 262.982867 
L 158.508958 264.069487 
L 160.930026 265.022479 
L 163.444527 265.830766 
L 166.061625 266.496008 
L 168.768258 267.017474 
L 171.548759 267.395179 
L 174.393194 267.630404 
L 177.271302 267.725306 
L 180.193923 267.67934 
L 183.12016 267.500849 
L 186.023208 267.194217 
L 188.893652 266.760774 
L 191.693905 266.208789 
L 194.447136 265.526983 
L 197.156249 264.714215 
L 199.762568 263.794625 
L 202.311022 262.740813 
L 204.779426 261.564894 
L 207.14231 260.280365 
L 209.449319 258.847763 
L 211.64666 257.309069 
L 213.806602 255.59242 
L 215.852021 253.78059 
L 217.814048 251.831166 
L 219.651631 249.798369 
L 221.38454 247.646065 
L 222.989374 245.413163 
L 224.453175 243.119108 
L 225.782379 240.74509 
L 226.956683 238.341037 
L 227.997017 235.834053 
L 228.894478 233.267565 
L 229.649204 230.642394 
L 230.263971 227.941351 
L 230.736952 225.202003 
L 231.068276 222.415058 
L 231.258263 219.605208 
L 231.30535 216.751976 
L 231.214753 213.898621 
L 230.984616 211.039723 
L 230.619956 208.197157 
L 230.115815 205.358769 
L 229.482416 202.555762 
L 228.725143 199.805584 
L 227.830408 197.082178 
L 226.819491 194.4259 
L 225.696392 191.85173 
L 224.452859 189.345895 
L 223.103355 186.932673 
L 221.242862 184.013504 
L 221.242862 184.013504 
" style="fill:none;stroke:#ffffff;stroke-linecap:square;"/>
   </g>
   <g id="line2d_15">
    <path clip-path="url(#p1ce6d1c85c)" d="M 368.301223 170.504769 
L 368.785929 156.584397 
L 368.870787 149.204774 
L 368.731699 141.647377 
L 368.276142 133.934001 
L 367.901624 130.010267 
L 367.409442 126.093434 
L 366.789446 122.147954 
L 366.024138 118.189208 
L 365.098496 114.228621 
L 364.002674 110.290316 
L 362.718973 106.356936 
L 361.228197 102.441077 
L 359.524268 98.580504 
L 357.595803 94.780442 
L 355.451182 91.081167 
L 353.100631 87.500415 
L 350.552213 84.048687 
L 347.800251 80.721496 
L 344.871807 77.561209 
L 341.768525 74.565559 
L 338.473316 71.72857 
L 335.027233 69.100561 
L 331.401121 66.663709 
L 327.624754 64.456541 
L 323.784894 62.52758 
L 319.895231 60.852093 
L 315.966388 59.408393 
L 312.040316 58.187372 
L 308.117826 57.158098 
L 304.181205 56.293139 
L 300.295221 55.589967 
L 292.603711 54.554001 
L 284.99977 53.900833 
L 277.321731 53.581871 
L 269.581737 53.662236 
L 265.668997 53.869162 
L 261.765978 54.201668 
L 257.855157 54.663104 
L 253.908907 55.266775 
L 249.985545 56.01736 
L 246.070788 56.918487 
L 242.187015 57.969425 
L 238.317471 59.175676 
L 234.483932 60.539306 
L 230.728841 62.047918 
L 226.999366 63.719835 
L 223.350372 65.543742 
L 219.758972 67.532373 
L 216.250427 69.684996 
L 212.87075 71.977367 
L 209.624077 74.393284 
L 206.550577 76.884034 
L 200.844105 81.985901 
L 195.588135 87.13512 
L 181.198111 101.708807 
L 173.806328 108.71754 
L 153.279032 127.927668 
L 145.59538 135.589615 
L 140.564561 140.901741 
L 135.621881 146.420277 
L 130.83055 152.155619 
L 126.205291 158.165898 
L 121.822443 164.453144 
L 117.725997 171.051352 
L 115.810674 174.464166 
L 113.979611 177.978622 
L 112.259123 181.572184 
L 110.649864 185.256806 
L 109.166624 189.026995 
L 107.826119 192.866609 
L 106.628504 196.803477 
L 105.599455 200.816652 
L 104.754452 204.892795 
L 104.105675 209.024296 
L 103.661026 213.245855 
L 103.449213 217.495948 
L 103.475043 221.754838 
L 103.736629 225.992407 
L 104.228571 230.207889 
L 104.945788 234.387277 
L 105.888872 238.539343 
L 107.046744 242.610495 
L 108.421522 246.63922 
L 110.01164 250.597894 
L 111.809072 254.468071 
L 113.806963 258.237788 
L 116.021475 261.933028 
L 118.423611 265.486131 
L 121.031602 268.93046 
L 123.829215 272.226436 
L 126.814566 275.366451 
L 130.005922 278.353267 
L 133.379176 281.142645 
L 136.935319 283.724259 
L 140.69085 286.091498 
L 144.580424 288.185829 
L 148.613109 290.014907 
L 152.689882 291.540258 
L 156.832892 292.800729 
L 161.012148 293.8016 
L 165.212943 294.557487 
L 169.423176 295.082261 
L 173.631953 295.388522 
L 177.841768 295.488 
L 182.014013 295.388181 
L 186.168758 295.101549 
L 190.305038 294.630662 
L 194.418385 293.974189 
L 198.52556 293.123861 
L 202.582567 292.077075 
L 206.57956 290.83497 
L 210.554388 289.380348 
L 214.441297 287.719785 
L 218.248587 285.848105 
L 221.980899 283.751813 
L 225.58165 281.449544 
L 229.083805 278.920145 
L 232.387327 276.228535 
L 235.569338 273.333596 
L 238.563998 270.28468 
L 241.412358 267.048393 
L 244.059939 263.674755 
L 246.523198 260.152625 
L 248.794267 256.483383 
L 250.845885 252.699723 
L 252.691411 248.772547 
L 254.282148 244.788631 
L 255.640881 240.732318 
L 256.767475 236.616673 
L 257.659152 232.479709 
L 258.331624 228.304688 
L 258.784761 224.114783 
L 259.025187 219.906131 
L 259.054464 215.713093 
L 258.88126 211.520177 
L 258.507431 207.353631 
L 257.934902 203.198522 
L 257.168632 199.09477 
L 256.212281 195.032003 
L 255.060465 190.999711 
L 253.726774 187.058664 
L 252.203811 183.168506 
L 250.494517 179.355908 
L 248.600203 175.634645 
L 246.520291 172.008206 
L 244.659798 169.089036 
L 244.659798 169.089036 
" style="fill:none;stroke:#ffffff;stroke-linecap:square;"/>
   </g>
   <g id="patch_3">
    <path d="M 57.6 307.584 
L 57.6 41.472 
" style="fill:none;stroke:#000000;stroke-linecap:square;stroke-linejoin:miter;stroke-width:0.8;"/>
   </g>
   <g id="patch_4">
    <path d="M 414.72 307.584 
L 414.72 41.472 
" style="fill:none;stroke:#000000;stroke-linecap:square;stroke-linejoin:miter;stroke-width:0.8;"/>
   </g>
   <g id="patch_5">
    <path d="M 57.6 307.584 
L 414.72 307.584 
" style="fill:none;stroke:#000000;stroke-linecap:square;stroke-linejoin:miter;stroke-width:0.8;"/>
   </g>
   <g id="patch_6">
    <path d="M 57.6 41.472 
L 414.72 41.472 
" style="fill:none;stroke:#000000;stroke-linecap:square;stroke-linejoin:miter;stroke-width:0.8;"/>
   </g>
  </g>
 </g>
 <defs>
  <clipPath id="p1ce6d1c85c">
   <rect height="266.112" width="357.12" x="57.6" y="41.472"/>
  </clipPath>
 </defs>
</svg>
