<?xml version="1.0" encoding="utf-8" standalone="no"?>
<!DOCTYPE svg PUBLIC "-//W3C//DTD SVG 1.1//EN"
  "http://www.w3.org/Graphics/SVG/1.1/DTD/svg11.dtd">
<!-- Created with matplotlib (https://matplotlib.org/) -->
<svg height="345.6pt" version="1.1" viewBox="0 0 460.8 345.6" width="460.8pt" xmlns="http://www.w3.org/2000/svg" xmlns:xlink="http://www.w3.org/1999/xlink">
 <metadata>
  <rdf:RDF xmlns:cc="http://creativecommons.org/ns#" xmlns:dc="http://purl.org/dc/elements/1.1/" xmlns:rdf="http://www.w3.org/1999/02/22-rdf-syntax-ns#">
   <cc:Work>
    <dc:type rdf:resource="http://purl.org/dc/dcmitype/StillImage"/>
    <dc:date>2021-01-22T09:38:17.123386</dc:date>
    <dc:format>image/svg+xml</dc:format>
    <dc:creator>
     <cc:Agent>
      <dc:title>Matplotlib v3.3.3, https://matplotlib.org/</dc:title>
     </cc:Agent>
    </dc:creator>
   </cc:Work>
  </rdf:RDF>
 </metadata>
 <defs>
  <style type="text/css">*{stroke-linecap:butt;stroke-linejoin:round;}</style>
 </defs>
 <g id="figure_1">
  <g id="patch_1">
   <path d="M 0 345.6 
L 460.8 345.6 
L 460.8 0 
L 0 0 
z
" style="fill:#ffffff;"/>
  </g>
  <g id="axes_1">
   <g id="patch_2">
    <path d="M 57.6 307.584 
L 414.72 307.584 
L 414.72 41.472 
L 57.6 41.472 
z
" style="fill:#7d9051;"/>
   </g>
   <g id="matplotlib.axis_1">
    <g id="xtick_1">
     <g id="line2d_1">
      <defs>
       <path d="M 0 0 
L 0 3.5 
" id="m515ac24925" style="stroke:#000000;stroke-width:0.8;"/>
      </defs>
      <g>
       <use style="stroke:#000000;stroke-width:0.8;" x="93.84847" xlink:href="#m515ac24925" y="307.584"/>
      </g>
     </g>
     <g id="text_1">
      <!-- −20 -->
      <g transform="translate(83.296126 322.182437)scale(0.1 -0.1)">
       <defs>
        <path d="M 10.59375 35.5 
L 73.1875 35.5 
L 73.1875 27.203125 
L 10.59375 27.203125 
z
" id="DejaVuSans-8722"/>
        <path d="M 19.1875 8.296875 
L 53.609375 8.296875 
L 53.609375 0 
L 7.328125 0 
L 7.328125 8.296875 
Q 12.9375 14.109375 22.625 23.890625 
Q 32.328125 33.6875 34.8125 36.53125 
Q 39.546875 41.84375 41.421875 45.53125 
Q 43.3125 49.21875 43.3125 52.78125 
Q 43.3125 58.59375 39.234375 62.25 
Q 35.15625 65.921875 28.609375 65.921875 
Q 23.96875 65.921875 18.8125 64.3125 
Q 13.671875 62.703125 7.8125 59.421875 
L 7.8125 69.390625 
Q 13.765625 71.78125 18.9375 73 
Q 24.125 74.21875 28.421875 74.21875 
Q 39.75 74.21875 46.484375 68.546875 
Q 53.21875 62.890625 53.21875 53.421875 
Q 53.21875 48.921875 51.53125 44.890625 
Q 49.859375 40.875 45.40625 35.40625 
Q 44.1875 33.984375 37.640625 27.21875 
Q 31.109375 20.453125 19.1875 8.296875 
z
" id="DejaVuSans-50"/>
        <path d="M 31.78125 66.40625 
Q 24.171875 66.40625 20.328125 58.90625 
Q 16.5 51.421875 16.5 36.375 
Q 16.5 21.390625 20.328125 13.890625 
Q 24.171875 6.390625 31.78125 6.390625 
Q 39.453125 6.390625 43.28125 13.890625 
Q 47.125 21.390625 47.125 36.375 
Q 47.125 51.421875 43.28125 58.90625 
Q 39.453125 66.40625 31.78125 66.40625 
z
M 31.78125 74.21875 
Q 44.046875 74.21875 50.515625 64.515625 
Q 56.984375 54.828125 56.984375 36.375 
Q 56.984375 17.96875 50.515625 8.265625 
Q 44.046875 -1.421875 31.78125 -1.421875 
Q 19.53125 -1.421875 13.0625 8.265625 
Q 6.59375 17.96875 6.59375 36.375 
Q 6.59375 54.828125 13.0625 64.515625 
Q 19.53125 74.21875 31.78125 74.21875 
z
" id="DejaVuSans-48"/>
       </defs>
       <use xlink:href="#DejaVuSans-8722"/>
       <use x="83.789062" xlink:href="#DejaVuSans-50"/>
       <use x="147.412109" xlink:href="#DejaVuSans-48"/>
      </g>
     </g>
    </g>
    <g id="xtick_2">
     <g id="line2d_2">
      <g>
       <use style="stroke:#000000;stroke-width:0.8;" x="133.67304" xlink:href="#m515ac24925" y="307.584"/>
      </g>
     </g>
     <g id="text_2">
      <!-- 0 -->
      <g transform="translate(130.49179 322.182437)scale(0.1 -0.1)">
       <use xlink:href="#DejaVuSans-48"/>
      </g>
     </g>
    </g>
    <g id="xtick_3">
     <g id="line2d_3">
      <g>
       <use style="stroke:#000000;stroke-width:0.8;" x="173.49761" xlink:href="#m515ac24925" y="307.584"/>
      </g>
     </g>
     <g id="text_3">
      <!-- 20 -->
      <g transform="translate(167.13511 322.182437)scale(0.1 -0.1)">
       <use xlink:href="#DejaVuSans-50"/>
       <use x="63.623047" xlink:href="#DejaVuSans-48"/>
      </g>
     </g>
    </g>
    <g id="xtick_4">
     <g id="line2d_4">
      <g>
       <use style="stroke:#000000;stroke-width:0.8;" x="213.322181" xlink:href="#m515ac24925" y="307.584"/>
      </g>
     </g>
     <g id="text_4">
      <!-- 40 -->
      <g transform="translate(206.959681 322.182437)scale(0.1 -0.1)">
       <defs>
        <path d="M 37.796875 64.3125 
L 12.890625 25.390625 
L 37.796875 25.390625 
z
M 35.203125 72.90625 
L 47.609375 72.90625 
L 47.609375 25.390625 
L 58.015625 25.390625 
L 58.015625 17.1875 
L 47.609375 17.1875 
L 47.609375 0 
L 37.796875 0 
L 37.796875 17.1875 
L 4.890625 17.1875 
L 4.890625 26.703125 
z
" id="DejaVuSans-52"/>
       </defs>
       <use xlink:href="#DejaVuSans-52"/>
       <use x="63.623047" xlink:href="#DejaVuSans-48"/>
      </g>
     </g>
    </g>
    <g id="xtick_5">
     <g id="line2d_5">
      <g>
       <use style="stroke:#000000;stroke-width:0.8;" x="253.146751" xlink:href="#m515ac24925" y="307.584"/>
      </g>
     </g>
     <g id="text_5">
      <!-- 60 -->
      <g transform="translate(246.784251 322.182437)scale(0.1 -0.1)">
       <defs>
        <path d="M 33.015625 40.375 
Q 26.375 40.375 22.484375 35.828125 
Q 18.609375 31.296875 18.609375 23.390625 
Q 18.609375 15.53125 22.484375 10.953125 
Q 26.375 6.390625 33.015625 6.390625 
Q 39.65625 6.390625 43.53125 10.953125 
Q 47.40625 15.53125 47.40625 23.390625 
Q 47.40625 31.296875 43.53125 35.828125 
Q 39.65625 40.375 33.015625 40.375 
z
M 52.59375 71.296875 
L 52.59375 62.3125 
Q 48.875 64.0625 45.09375 64.984375 
Q 41.3125 65.921875 37.59375 65.921875 
Q 27.828125 65.921875 22.671875 59.328125 
Q 17.53125 52.734375 16.796875 39.40625 
Q 19.671875 43.65625 24.015625 45.921875 
Q 28.375 48.1875 33.59375 48.1875 
Q 44.578125 48.1875 50.953125 41.515625 
Q 57.328125 34.859375 57.328125 23.390625 
Q 57.328125 12.15625 50.6875 5.359375 
Q 44.046875 -1.421875 33.015625 -1.421875 
Q 20.359375 -1.421875 13.671875 8.265625 
Q 6.984375 17.96875 6.984375 36.375 
Q 6.984375 53.65625 15.1875 63.9375 
Q 23.390625 74.21875 37.203125 74.21875 
Q 40.921875 74.21875 44.703125 73.484375 
Q 48.484375 72.75 52.59375 71.296875 
z
" id="DejaVuSans-54"/>
       </defs>
       <use xlink:href="#DejaVuSans-54"/>
       <use x="63.623047" xlink:href="#DejaVuSans-48"/>
      </g>
     </g>
    </g>
    <g id="xtick_6">
     <g id="line2d_6">
      <g>
       <use style="stroke:#000000;stroke-width:0.8;" x="292.971321" xlink:href="#m515ac24925" y="307.584"/>
      </g>
     </g>
     <g id="text_6">
      <!-- 80 -->
      <g transform="translate(286.608821 322.182437)scale(0.1 -0.1)">
       <defs>
        <path d="M 31.78125 34.625 
Q 24.75 34.625 20.71875 30.859375 
Q 16.703125 27.09375 16.703125 20.515625 
Q 16.703125 13.921875 20.71875 10.15625 
Q 24.75 6.390625 31.78125 6.390625 
Q 38.8125 6.390625 42.859375 10.171875 
Q 46.921875 13.96875 46.921875 20.515625 
Q 46.921875 27.09375 42.890625 30.859375 
Q 38.875 34.625 31.78125 34.625 
z
M 21.921875 38.8125 
Q 15.578125 40.375 12.03125 44.71875 
Q 8.5 49.078125 8.5 55.328125 
Q 8.5 64.0625 14.71875 69.140625 
Q 20.953125 74.21875 31.78125 74.21875 
Q 42.671875 74.21875 48.875 69.140625 
Q 55.078125 64.0625 55.078125 55.328125 
Q 55.078125 49.078125 51.53125 44.71875 
Q 48 40.375 41.703125 38.8125 
Q 48.828125 37.15625 52.796875 32.3125 
Q 56.78125 27.484375 56.78125 20.515625 
Q 56.78125 9.90625 50.3125 4.234375 
Q 43.84375 -1.421875 31.78125 -1.421875 
Q 19.734375 -1.421875 13.25 4.234375 
Q 6.78125 9.90625 6.78125 20.515625 
Q 6.78125 27.484375 10.78125 32.3125 
Q 14.796875 37.15625 21.921875 38.8125 
z
M 18.3125 54.390625 
Q 18.3125 48.734375 21.84375 45.5625 
Q 25.390625 42.390625 31.78125 42.390625 
Q 38.140625 42.390625 41.71875 45.5625 
Q 45.3125 48.734375 45.3125 54.390625 
Q 45.3125 60.0625 41.71875 63.234375 
Q 38.140625 66.40625 31.78125 66.40625 
Q 25.390625 66.40625 21.84375 63.234375 
Q 18.3125 60.0625 18.3125 54.390625 
z
" id="DejaVuSans-56"/>
       </defs>
       <use xlink:href="#DejaVuSans-56"/>
       <use x="63.623047" xlink:href="#DejaVuSans-48"/>
      </g>
     </g>
    </g>
    <g id="xtick_7">
     <g id="line2d_7">
      <g>
       <use style="stroke:#000000;stroke-width:0.8;" x="332.795891" xlink:href="#m515ac24925" y="307.584"/>
      </g>
     </g>
     <g id="text_7">
      <!-- 100 -->
      <g transform="translate(323.252141 322.182437)scale(0.1 -0.1)">
       <defs>
        <path d="M 12.40625 8.296875 
L 28.515625 8.296875 
L 28.515625 63.921875 
L 10.984375 60.40625 
L 10.984375 69.390625 
L 28.421875 72.90625 
L 38.28125 72.90625 
L 38.28125 8.296875 
L 54.390625 8.296875 
L 54.390625 0 
L 12.40625 0 
z
" id="DejaVuSans-49"/>
       </defs>
       <use xlink:href="#DejaVuSans-49"/>
       <use x="63.623047" xlink:href="#DejaVuSans-48"/>
       <use x="127.246094" xlink:href="#DejaVuSans-48"/>
      </g>
     </g>
    </g>
    <g id="xtick_8">
     <g id="line2d_8">
      <g>
       <use style="stroke:#000000;stroke-width:0.8;" x="372.620462" xlink:href="#m515ac24925" y="307.584"/>
      </g>
     </g>
     <g id="text_8">
      <!-- 120 -->
      <g transform="translate(363.076712 322.182437)scale(0.1 -0.1)">
       <use xlink:href="#DejaVuSans-49"/>
       <use x="63.623047" xlink:href="#DejaVuSans-50"/>
       <use x="127.246094" xlink:href="#DejaVuSans-48"/>
      </g>
     </g>
    </g>
    <g id="xtick_9">
     <g id="line2d_9">
      <g>
       <use style="stroke:#000000;stroke-width:0.8;" x="412.445032" xlink:href="#m515ac24925" y="307.584"/>
      </g>
     </g>
     <g id="text_9">
      <!-- 140 -->
      <g transform="translate(402.901282 322.182437)scale(0.1 -0.1)">
       <use xlink:href="#DejaVuSans-49"/>
       <use x="63.623047" xlink:href="#DejaVuSans-52"/>
       <use x="127.246094" xlink:href="#DejaVuSans-48"/>
      </g>
     </g>
    </g>
   </g>
   <g id="matplotlib.axis_2">
    <g id="ytick_1">
     <g id="line2d_10">
      <defs>
       <path d="M 0 0 
L -3.5 0 
" id="m39a8f21c64" style="stroke:#000000;stroke-width:0.8;"/>
      </defs>
      <g>
       <use style="stroke:#000000;stroke-width:0.8;" x="57.6" xlink:href="#m39a8f21c64" y="273.99873"/>
      </g>
     </g>
     <g id="text_10">
      <!-- 20 -->
      <g transform="translate(37.875 277.797949)scale(0.1 -0.1)">
       <use xlink:href="#DejaVuSans-50"/>
       <use x="63.623047" xlink:href="#DejaVuSans-48"/>
      </g>
     </g>
    </g>
    <g id="ytick_2">
     <g id="line2d_11">
      <g>
       <use style="stroke:#000000;stroke-width:0.8;" x="57.6" xlink:href="#m39a8f21c64" y="234.17416"/>
      </g>
     </g>
     <g id="text_11">
      <!-- 40 -->
      <g transform="translate(37.875 237.973379)scale(0.1 -0.1)">
       <use xlink:href="#DejaVuSans-52"/>
       <use x="63.623047" xlink:href="#DejaVuSans-48"/>
      </g>
     </g>
    </g>
    <g id="ytick_3">
     <g id="line2d_12">
      <g>
       <use style="stroke:#000000;stroke-width:0.8;" x="57.6" xlink:href="#m39a8f21c64" y="194.34959"/>
      </g>
     </g>
     <g id="text_12">
      <!-- 60 -->
      <g transform="translate(37.875 198.148809)scale(0.1 -0.1)">
       <use xlink:href="#DejaVuSans-54"/>
       <use x="63.623047" xlink:href="#DejaVuSans-48"/>
      </g>
     </g>
    </g>
    <g id="ytick_4">
     <g id="line2d_13">
      <g>
       <use style="stroke:#000000;stroke-width:0.8;" x="57.6" xlink:href="#m39a8f21c64" y="154.52502"/>
      </g>
     </g>
     <g id="text_13">
      <!-- 80 -->
      <g transform="translate(37.875 158.324238)scale(0.1 -0.1)">
       <use xlink:href="#DejaVuSans-56"/>
       <use x="63.623047" xlink:href="#DejaVuSans-48"/>
      </g>
     </g>
    </g>
    <g id="ytick_5">
     <g id="line2d_14">
      <g>
       <use style="stroke:#000000;stroke-width:0.8;" x="57.6" xlink:href="#m39a8f21c64" y="114.700449"/>
      </g>
     </g>
     <g id="text_14">
      <!-- 100 -->
      <g transform="translate(31.5125 118.499668)scale(0.1 -0.1)">
       <use xlink:href="#DejaVuSans-49"/>
       <use x="63.623047" xlink:href="#DejaVuSans-48"/>
       <use x="127.246094" xlink:href="#DejaVuSans-48"/>
      </g>
     </g>
    </g>
    <g id="ytick_6">
     <g id="line2d_15">
      <g>
       <use style="stroke:#000000;stroke-width:0.8;" x="57.6" xlink:href="#m39a8f21c64" y="74.875879"/>
      </g>
     </g>
     <g id="text_15">
      <!-- 120 -->
      <g transform="translate(31.5125 78.675098)scale(0.1 -0.1)">
       <use xlink:href="#DejaVuSans-49"/>
       <use x="63.623047" xlink:href="#DejaVuSans-50"/>
       <use x="127.246094" xlink:href="#DejaVuSans-48"/>
      </g>
     </g>
    </g>
   </g>
   <g id="line2d_16">
    <path clip-path="url(#p7a8d182a38)" d="M 318.652195 293.911015 
L 319.363064 289.902672 
L 319.703564 285.874417 
L 319.687634 281.850144 
L 319.331204 277.847775 
L 318.646222 273.889213 
L 317.646625 269.99437 
L 316.350335 266.18515 
L 314.767308 262.479473 
L 312.915466 258.899245 
L 310.804764 255.466367 
L 308.457105 252.196769 
L 305.886429 249.098418 
L 303.11663 246.181268 
L 300.16563 243.449303 
L 297.059313 240.908495 
L 293.817593 238.552872 
L 288.80368 235.24345 
L 280.404678 229.791466 
L 275.556037 226.261018 
L 270.866693 222.507552 
L 266.310763 218.566911 
L 255.838892 209.156365 
L 252.704698 206.683259 
L 249.425145 204.429189 
L 245.974346 202.433978 
L 242.38217 200.667758 
L 238.680476 199.088714 
L 233.007466 196.980003 
L 225.373096 194.453134 
L 196.767107 185.426895 
L 191.082149 183.365973 
L 187.330675 181.866578 
L 183.65885 180.213859 
L 180.108489 178.358034 
L 176.723401 176.249323 
L 173.539426 173.847901 
L 170.566522 171.163725 
L 167.796723 168.242593 
L 165.224056 165.122338 
L 162.844538 161.844776 
L 160.652195 158.44774 
L 158.666941 154.943178 
L 156.912668 151.329098 
L 155.419247 147.605501 
L 154.210571 143.772386 
L 153.314518 139.833736 
L 152.760957 135.819419 
L 152.579755 131.773243 
L 152.802773 127.739014 
L 153.07358 125.741812 
L 153.457887 123.760539 
L 153.957685 121.807144 
L 154.570983 119.881626 
L 155.291808 117.989959 
L 157.040107 114.332072 
L 159.164748 110.875299 
L 161.627897 107.655483 
L 164.385749 104.714438 
L 167.40246 102.062122 
L 170.626259 99.664683 
L 174.017321 97.492253 
L 177.525866 95.508989 
L 182.912139 92.810874 
L 193.74044 87.639654 
L 197.264914 85.714136 
L 200.699783 83.579539 
L 203.995266 81.21396 
L 207.095609 78.62138 
L 209.953022 75.791844 
L 212.507768 72.727344 
L 213.656707 71.106484 
L 214.710067 69.423896 
L 215.661874 67.681571 
L 216.506155 65.879509 
L 217.234945 64.015719 
L 217.842269 62.08821 
L 218.320164 60.100964 
L 218.662656 58.05199 
L 218.86377 55.939296 
L 218.917533 53.764875 
L 218.917533 53.764875 
" style="fill:none;stroke:#fea952;stroke-linecap:square;"/>
   </g>
   <g id="line2d_17">
    <path clip-path="url(#p7a8d182a38)" d="M 310.844957 292.334031 
L 311.444042 289.048891 
L 311.739912 285.732631 
L 311.740818 282.386771 
L 311.457272 279.048214 
L 310.894697 275.72053 
L 310.058 272.413589 
L 308.968196 269.175782 
L 307.627616 266.010004 
L 306.053878 262.943804 
L 304.25239 259.99475 
L 302.244472 257.181049 
L 300.022917 254.489066 
L 297.612176 251.938076 
L 295.03174 249.538886 
L 292.301923 247.296538 
L 289.342959 245.142068 
L 284.532632 241.966396 
L 275.824856 236.30799 
L 270.664955 232.547287 
L 265.725011 228.590558 
L 260.97773 224.482874 
L 249.439117 214.216996 
L 246.700862 212.173569 
L 243.85997 210.36842 
L 240.784857 208.724333 
L 237.502904 207.219534 
L 232.244643 205.161066 
L 224.858596 202.650876 
L 215.418224 199.715945 
L 201.914783 195.542245 
L 194.118697 192.938605 
L 188.194539 190.789016 
L 184.158023 189.172339 
L 180.090503 187.334727 
L 176.0375 185.203974 
L 172.076593 182.718251 
L 168.325978 179.869513 
L 164.891292 176.752251 
L 161.734922 173.409258 
L 158.846488 169.893761 
L 156.213714 166.257487 
L 153.781709 162.477166 
L 151.560342 158.539858 
L 149.575498 154.42842 
L 147.87339 150.15499 
L 146.483932 145.706011 
L 145.449883 141.093642 
L 144.81488 136.366885 
L 144.658358 133.960925 
L 144.618318 131.537929 
L 144.700648 129.108243 
L 144.910084 126.668819 
L 145.254403 124.225127 
L 145.741544 121.786225 
L 146.368435 119.389885 
L 147.128117 117.045502 
L 148.016611 114.747836 
L 149.02366 112.515738 
L 150.148309 110.339205 
L 151.382709 108.230079 
L 152.71952 106.195674 
L 154.154786 104.23591 
L 155.683086 102.354627 
L 157.300686 100.5556 
L 158.995446 98.85061 
L 162.530536 95.760995 
L 166.229961 93.022965 
L 170.012351 90.607482 
L 173.844531 88.445871 
L 179.522228 85.603353 
L 190.008669 80.603053 
L 193.167 78.884279 
L 196.166887 77.030286 
L 199.008157 75.003597 
L 201.619092 72.837989 
L 203.967673 70.536803 
L 206.009773 68.121271 
L 207.720148 65.605403 
L 209.088185 62.978892 
L 210.098134 60.225893 
L 210.733586 57.297196 
L 210.901289 55.742422 
L 210.955052 53.568 
L 210.955052 53.568 
" style="fill:none;stroke:#ffffff;stroke-linecap:square;"/>
   </g>
   <g id="line2d_18">
    <path clip-path="url(#p7a8d182a38)" d="M 326.459434 295.488 
L 326.92997 293.112735 
L 327.530116 288.376596 
L 327.701682 283.656316 
L 327.468813 278.968865 
L 326.848045 274.34754 
L 325.859722 269.806131 
L 324.524367 265.364992 
L 322.858075 261.051149 
L 320.880301 256.88448 
L 318.59802 252.865357 
L 316.044957 249.048392 
L 313.241845 245.439597 
L 310.211417 242.040383 
L 306.979068 238.860148 
L 303.58092 235.915442 
L 300.058666 233.213913 
L 296.535046 230.771505 
L 281.949691 221.107125 
L 277.477786 217.634037 
L 273.094497 213.934253 
L 267.226941 208.61822 
L 262.526773 204.389383 
L 259.136332 201.578822 
L 255.470796 198.87516 
L 251.581336 196.435009 
L 247.603518 194.327622 
L 243.581645 192.495122 
L 239.567541 190.886285 
L 233.632409 188.772659 
L 225.8248 186.246925 
L 201.256413 178.547857 
L 193.96976 175.942931 
L 188.848041 173.845034 
L 185.676874 172.321334 
L 182.744047 170.666396 
L 180.047156 168.840621 
L 177.485457 166.738087 
L 175.036885 164.35973 
L 172.713682 161.73928 
L 170.523245 158.915008 
L 168.475945 155.935978 
L 166.621131 152.888207 
L 164.981247 149.790787 
L 163.577473 146.651683 
L 162.419476 143.461717 
L 161.523338 140.215277 
L 160.906038 136.916907 
L 160.584784 133.631737 
L 160.578336 130.396048 
L 160.892756 127.258496 
L 161.546935 124.224403 
L 162.567006 121.232081 
L 163.931904 118.324939 
L 165.609975 115.554925 
L 167.572709 112.956339 
L 169.776052 110.578267 
L 172.274384 108.36325 
L 175.022557 106.306401 
L 178.022291 104.377024 
L 181.2072 102.572107 
L 186.30205 100.018395 
L 197.47221 94.676254 
L 201.362828 92.543993 
L 205.232679 90.128792 
L 208.982375 87.424322 
L 212.572127 84.404771 
L 215.938371 81.046885 
L 217.517847 79.232061 
L 219.005764 77.333417 
L 220.407797 75.332906 
L 221.699986 73.242388 
L 222.874447 71.060721 
L 223.924125 68.780125 
L 224.831689 66.409321 
L 225.586405 63.950527 
L 226.176087 61.414101 
L 226.591725 58.806783 
L 226.82625 56.136171 
L 226.880013 53.961749 
L 226.880013 53.961749 
" style="fill:none;stroke:#ffffff;stroke-linecap:square;"/>
   </g>
   <g id="patch_3">
    <path d="M 57.6 307.584 
L 57.6 41.472 
" style="fill:none;stroke:#000000;stroke-linecap:square;stroke-linejoin:miter;stroke-width:0.8;"/>
   </g>
   <g id="patch_4">
    <path d="M 414.72 307.584 
L 414.72 41.472 
" style="fill:none;stroke:#000000;stroke-linecap:square;stroke-linejoin:miter;stroke-width:0.8;"/>
   </g>
   <g id="patch_5">
    <path d="M 57.6 307.584 
L 414.72 307.584 
" style="fill:none;stroke:#000000;stroke-linecap:square;stroke-linejoin:miter;stroke-width:0.8;"/>
   </g>
   <g id="patch_6">
    <path d="M 57.6 41.472 
L 414.72 41.472 
" style="fill:none;stroke:#000000;stroke-linecap:square;stroke-linejoin:miter;stroke-width:0.8;"/>
   </g>
  </g>
 </g>
 <defs>
  <clipPath id="p7a8d182a38">
   <rect height="266.112" width="357.12" x="57.6" y="41.472"/>
  </clipPath>
 </defs>
</svg>
