<?xml version="1.0" encoding="utf-8" standalone="no"?>
<!DOCTYPE svg PUBLIC "-//W3C//DTD SVG 1.1//EN"
  "http://www.w3.org/Graphics/SVG/1.1/DTD/svg11.dtd">
<!-- Created with matplotlib (https://matplotlib.org/) -->
<svg height="345.6pt" version="1.1" viewBox="0 0 460.8 345.6" width="460.8pt" xmlns="http://www.w3.org/2000/svg" xmlns:xlink="http://www.w3.org/1999/xlink">
 <metadata>
  <rdf:RDF xmlns:cc="http://creativecommons.org/ns#" xmlns:dc="http://purl.org/dc/elements/1.1/" xmlns:rdf="http://www.w3.org/1999/02/22-rdf-syntax-ns#">
   <cc:Work>
    <dc:type rdf:resource="http://purl.org/dc/dcmitype/StillImage"/>
    <dc:date>2021-01-25T14:01:49.394906</dc:date>
    <dc:format>image/svg+xml</dc:format>
    <dc:creator>
     <cc:Agent>
      <dc:title>Matplotlib v3.3.3, https://matplotlib.org/</dc:title>
     </cc:Agent>
    </dc:creator>
   </cc:Work>
  </rdf:RDF>
 </metadata>
 <defs>
  <style type="text/css">*{stroke-linecap:butt;stroke-linejoin:round;}</style>
 </defs>
 <g id="figure_1">
  <g id="patch_1">
   <path d="M 0 345.6 
L 460.8 345.6 
L 460.8 0 
L 0 0 
z
" style="fill:#ffffff;"/>
  </g>
  <g id="axes_1">
   <g id="patch_2">
    <path d="M 57.6 307.584 
L 414.72 307.584 
L 414.72 41.472 
L 57.6 41.472 
z
" style="fill:#7d9051;"/>
   </g>
   <g id="matplotlib.axis_1">
    <g id="xtick_1">
     <g id="line2d_1">
      <defs>
       <path d="M 0 0 
L 0 3.5 
" id="m39c3befd28" style="stroke:#000000;stroke-width:0.8;"/>
      </defs>
      <g>
       <use style="stroke:#000000;stroke-width:0.8;" x="96.661091" xlink:href="#m39c3befd28" y="307.584"/>
      </g>
     </g>
     <g id="text_1">
      <!-- 0 -->
      <g transform="translate(93.479841 322.182437)scale(0.1 -0.1)">
       <defs>
        <path d="M 31.78125 66.40625 
Q 24.171875 66.40625 20.328125 58.90625 
Q 16.5 51.421875 16.5 36.375 
Q 16.5 21.390625 20.328125 13.890625 
Q 24.171875 6.390625 31.78125 6.390625 
Q 39.453125 6.390625 43.28125 13.890625 
Q 47.125 21.390625 47.125 36.375 
Q 47.125 51.421875 43.28125 58.90625 
Q 39.453125 66.40625 31.78125 66.40625 
z
M 31.78125 74.21875 
Q 44.046875 74.21875 50.515625 64.515625 
Q 56.984375 54.828125 56.984375 36.375 
Q 56.984375 17.96875 50.515625 8.265625 
Q 44.046875 -1.421875 31.78125 -1.421875 
Q 19.53125 -1.421875 13.0625 8.265625 
Q 6.59375 17.96875 6.59375 36.375 
Q 6.59375 54.828125 13.0625 64.515625 
Q 19.53125 74.21875 31.78125 74.21875 
z
" id="DejaVuSans-48"/>
       </defs>
       <use xlink:href="#DejaVuSans-48"/>
      </g>
     </g>
    </g>
    <g id="xtick_2">
     <g id="line2d_2">
      <g>
       <use style="stroke:#000000;stroke-width:0.8;" x="165.12744" xlink:href="#m39c3befd28" y="307.584"/>
      </g>
     </g>
     <g id="text_2">
      <!-- 20 -->
      <g transform="translate(158.76494 322.182437)scale(0.1 -0.1)">
       <defs>
        <path d="M 19.1875 8.296875 
L 53.609375 8.296875 
L 53.609375 0 
L 7.328125 0 
L 7.328125 8.296875 
Q 12.9375 14.109375 22.625 23.890625 
Q 32.328125 33.6875 34.8125 36.53125 
Q 39.546875 41.84375 41.421875 45.53125 
Q 43.3125 49.21875 43.3125 52.78125 
Q 43.3125 58.59375 39.234375 62.25 
Q 35.15625 65.921875 28.609375 65.921875 
Q 23.96875 65.921875 18.8125 64.3125 
Q 13.671875 62.703125 7.8125 59.421875 
L 7.8125 69.390625 
Q 13.765625 71.78125 18.9375 73 
Q 24.125 74.21875 28.421875 74.21875 
Q 39.75 74.21875 46.484375 68.546875 
Q 53.21875 62.890625 53.21875 53.421875 
Q 53.21875 48.921875 51.53125 44.890625 
Q 49.859375 40.875 45.40625 35.40625 
Q 44.1875 33.984375 37.640625 27.21875 
Q 31.109375 20.453125 19.1875 8.296875 
z
" id="DejaVuSans-50"/>
       </defs>
       <use xlink:href="#DejaVuSans-50"/>
       <use x="63.623047" xlink:href="#DejaVuSans-48"/>
      </g>
     </g>
    </g>
    <g id="xtick_3">
     <g id="line2d_3">
      <g>
       <use style="stroke:#000000;stroke-width:0.8;" x="233.593789" xlink:href="#m39c3befd28" y="307.584"/>
      </g>
     </g>
     <g id="text_3">
      <!-- 40 -->
      <g transform="translate(227.231289 322.182437)scale(0.1 -0.1)">
       <defs>
        <path d="M 37.796875 64.3125 
L 12.890625 25.390625 
L 37.796875 25.390625 
z
M 35.203125 72.90625 
L 47.609375 72.90625 
L 47.609375 25.390625 
L 58.015625 25.390625 
L 58.015625 17.1875 
L 47.609375 17.1875 
L 47.609375 0 
L 37.796875 0 
L 37.796875 17.1875 
L 4.890625 17.1875 
L 4.890625 26.703125 
z
" id="DejaVuSans-52"/>
       </defs>
       <use xlink:href="#DejaVuSans-52"/>
       <use x="63.623047" xlink:href="#DejaVuSans-48"/>
      </g>
     </g>
    </g>
    <g id="xtick_4">
     <g id="line2d_4">
      <g>
       <use style="stroke:#000000;stroke-width:0.8;" x="302.060138" xlink:href="#m39c3befd28" y="307.584"/>
      </g>
     </g>
     <g id="text_4">
      <!-- 60 -->
      <g transform="translate(295.697638 322.182437)scale(0.1 -0.1)">
       <defs>
        <path d="M 33.015625 40.375 
Q 26.375 40.375 22.484375 35.828125 
Q 18.609375 31.296875 18.609375 23.390625 
Q 18.609375 15.53125 22.484375 10.953125 
Q 26.375 6.390625 33.015625 6.390625 
Q 39.65625 6.390625 43.53125 10.953125 
Q 47.40625 15.53125 47.40625 23.390625 
Q 47.40625 31.296875 43.53125 35.828125 
Q 39.65625 40.375 33.015625 40.375 
z
M 52.59375 71.296875 
L 52.59375 62.3125 
Q 48.875 64.0625 45.09375 64.984375 
Q 41.3125 65.921875 37.59375 65.921875 
Q 27.828125 65.921875 22.671875 59.328125 
Q 17.53125 52.734375 16.796875 39.40625 
Q 19.671875 43.65625 24.015625 45.921875 
Q 28.375 48.1875 33.59375 48.1875 
Q 44.578125 48.1875 50.953125 41.515625 
Q 57.328125 34.859375 57.328125 23.390625 
Q 57.328125 12.15625 50.6875 5.359375 
Q 44.046875 -1.421875 33.015625 -1.421875 
Q 20.359375 -1.421875 13.671875 8.265625 
Q 6.984375 17.96875 6.984375 36.375 
Q 6.984375 53.65625 15.1875 63.9375 
Q 23.390625 74.21875 37.203125 74.21875 
Q 40.921875 74.21875 44.703125 73.484375 
Q 48.484375 72.75 52.59375 71.296875 
z
" id="DejaVuSans-54"/>
       </defs>
       <use xlink:href="#DejaVuSans-54"/>
       <use x="63.623047" xlink:href="#DejaVuSans-48"/>
      </g>
     </g>
    </g>
    <g id="xtick_5">
     <g id="line2d_5">
      <g>
       <use style="stroke:#000000;stroke-width:0.8;" x="370.526487" xlink:href="#m39c3befd28" y="307.584"/>
      </g>
     </g>
     <g id="text_5">
      <!-- 80 -->
      <g transform="translate(364.163987 322.182437)scale(0.1 -0.1)">
       <defs>
        <path d="M 31.78125 34.625 
Q 24.75 34.625 20.71875 30.859375 
Q 16.703125 27.09375 16.703125 20.515625 
Q 16.703125 13.921875 20.71875 10.15625 
Q 24.75 6.390625 31.78125 6.390625 
Q 38.8125 6.390625 42.859375 10.171875 
Q 46.921875 13.96875 46.921875 20.515625 
Q 46.921875 27.09375 42.890625 30.859375 
Q 38.875 34.625 31.78125 34.625 
z
M 21.921875 38.8125 
Q 15.578125 40.375 12.03125 44.71875 
Q 8.5 49.078125 8.5 55.328125 
Q 8.5 64.0625 14.71875 69.140625 
Q 20.953125 74.21875 31.78125 74.21875 
Q 42.671875 74.21875 48.875 69.140625 
Q 55.078125 64.0625 55.078125 55.328125 
Q 55.078125 49.078125 51.53125 44.71875 
Q 48 40.375 41.703125 38.8125 
Q 48.828125 37.15625 52.796875 32.3125 
Q 56.78125 27.484375 56.78125 20.515625 
Q 56.78125 9.90625 50.3125 4.234375 
Q 43.84375 -1.421875 31.78125 -1.421875 
Q 19.734375 -1.421875 13.25 4.234375 
Q 6.78125 9.90625 6.78125 20.515625 
Q 6.78125 27.484375 10.78125 32.3125 
Q 14.796875 37.15625 21.921875 38.8125 
z
M 18.3125 54.390625 
Q 18.3125 48.734375 21.84375 45.5625 
Q 25.390625 42.390625 31.78125 42.390625 
Q 38.140625 42.390625 41.71875 45.5625 
Q 45.3125 48.734375 45.3125 54.390625 
Q 45.3125 60.0625 41.71875 63.234375 
Q 38.140625 66.40625 31.78125 66.40625 
Q 25.390625 66.40625 21.84375 63.234375 
Q 18.3125 60.0625 18.3125 54.390625 
z
" id="DejaVuSans-56"/>
       </defs>
       <use xlink:href="#DejaVuSans-56"/>
       <use x="63.623047" xlink:href="#DejaVuSans-48"/>
      </g>
     </g>
    </g>
   </g>
   <g id="matplotlib.axis_2">
    <g id="ytick_1">
     <g id="line2d_6">
      <defs>
       <path d="M 0 0 
L -3.5 0 
" id="m84e6b2dda8" style="stroke:#000000;stroke-width:0.8;"/>
      </defs>
      <g>
       <use style="stroke:#000000;stroke-width:0.8;" x="57.6" xlink:href="#m84e6b2dda8" y="280.313752"/>
      </g>
     </g>
     <g id="text_6">
      <!-- 10 -->
      <g transform="translate(37.875 284.11297)scale(0.1 -0.1)">
       <defs>
        <path d="M 12.40625 8.296875 
L 28.515625 8.296875 
L 28.515625 63.921875 
L 10.984375 60.40625 
L 10.984375 69.390625 
L 28.421875 72.90625 
L 38.28125 72.90625 
L 38.28125 8.296875 
L 54.390625 8.296875 
L 54.390625 0 
L 12.40625 0 
z
" id="DejaVuSans-49"/>
       </defs>
       <use xlink:href="#DejaVuSans-49"/>
       <use x="63.623047" xlink:href="#DejaVuSans-48"/>
      </g>
     </g>
    </g>
    <g id="ytick_2">
     <g id="line2d_7">
      <g>
       <use style="stroke:#000000;stroke-width:0.8;" x="57.6" xlink:href="#m84e6b2dda8" y="246.080577"/>
      </g>
     </g>
     <g id="text_7">
      <!-- 20 -->
      <g transform="translate(37.875 249.879796)scale(0.1 -0.1)">
       <use xlink:href="#DejaVuSans-50"/>
       <use x="63.623047" xlink:href="#DejaVuSans-48"/>
      </g>
     </g>
    </g>
    <g id="ytick_3">
     <g id="line2d_8">
      <g>
       <use style="stroke:#000000;stroke-width:0.8;" x="57.6" xlink:href="#m84e6b2dda8" y="211.847403"/>
      </g>
     </g>
     <g id="text_8">
      <!-- 30 -->
      <g transform="translate(37.875 215.646622)scale(0.1 -0.1)">
       <defs>
        <path d="M 40.578125 39.3125 
Q 47.65625 37.796875 51.625 33 
Q 55.609375 28.21875 55.609375 21.1875 
Q 55.609375 10.40625 48.1875 4.484375 
Q 40.765625 -1.421875 27.09375 -1.421875 
Q 22.515625 -1.421875 17.65625 -0.515625 
Q 12.796875 0.390625 7.625 2.203125 
L 7.625 11.71875 
Q 11.71875 9.328125 16.59375 8.109375 
Q 21.484375 6.890625 26.8125 6.890625 
Q 36.078125 6.890625 40.9375 10.546875 
Q 45.796875 14.203125 45.796875 21.1875 
Q 45.796875 27.640625 41.28125 31.265625 
Q 36.765625 34.90625 28.71875 34.90625 
L 20.21875 34.90625 
L 20.21875 43.015625 
L 29.109375 43.015625 
Q 36.375 43.015625 40.234375 45.921875 
Q 44.09375 48.828125 44.09375 54.296875 
Q 44.09375 59.90625 40.109375 62.90625 
Q 36.140625 65.921875 28.71875 65.921875 
Q 24.65625 65.921875 20.015625 65.03125 
Q 15.375 64.15625 9.8125 62.3125 
L 9.8125 71.09375 
Q 15.4375 72.65625 20.34375 73.4375 
Q 25.25 74.21875 29.59375 74.21875 
Q 40.828125 74.21875 47.359375 69.109375 
Q 53.90625 64.015625 53.90625 55.328125 
Q 53.90625 49.265625 50.4375 45.09375 
Q 46.96875 40.921875 40.578125 39.3125 
z
" id="DejaVuSans-51"/>
       </defs>
       <use xlink:href="#DejaVuSans-51"/>
       <use x="63.623047" xlink:href="#DejaVuSans-48"/>
      </g>
     </g>
    </g>
    <g id="ytick_4">
     <g id="line2d_9">
      <g>
       <use style="stroke:#000000;stroke-width:0.8;" x="57.6" xlink:href="#m84e6b2dda8" y="177.614228"/>
      </g>
     </g>
     <g id="text_9">
      <!-- 40 -->
      <g transform="translate(37.875 181.413447)scale(0.1 -0.1)">
       <use xlink:href="#DejaVuSans-52"/>
       <use x="63.623047" xlink:href="#DejaVuSans-48"/>
      </g>
     </g>
    </g>
    <g id="ytick_5">
     <g id="line2d_10">
      <g>
       <use style="stroke:#000000;stroke-width:0.8;" x="57.6" xlink:href="#m84e6b2dda8" y="143.381054"/>
      </g>
     </g>
     <g id="text_10">
      <!-- 50 -->
      <g transform="translate(37.875 147.180273)scale(0.1 -0.1)">
       <defs>
        <path d="M 10.796875 72.90625 
L 49.515625 72.90625 
L 49.515625 64.59375 
L 19.828125 64.59375 
L 19.828125 46.734375 
Q 21.96875 47.46875 24.109375 47.828125 
Q 26.265625 48.1875 28.421875 48.1875 
Q 40.625 48.1875 47.75 41.5 
Q 54.890625 34.8125 54.890625 23.390625 
Q 54.890625 11.625 47.5625 5.09375 
Q 40.234375 -1.421875 26.90625 -1.421875 
Q 22.3125 -1.421875 17.546875 -0.640625 
Q 12.796875 0.140625 7.71875 1.703125 
L 7.71875 11.625 
Q 12.109375 9.234375 16.796875 8.0625 
Q 21.484375 6.890625 26.703125 6.890625 
Q 35.15625 6.890625 40.078125 11.328125 
Q 45.015625 15.765625 45.015625 23.390625 
Q 45.015625 31 40.078125 35.4375 
Q 35.15625 39.890625 26.703125 39.890625 
Q 22.75 39.890625 18.8125 39.015625 
Q 14.890625 38.140625 10.796875 36.28125 
z
" id="DejaVuSans-53"/>
       </defs>
       <use xlink:href="#DejaVuSans-53"/>
       <use x="63.623047" xlink:href="#DejaVuSans-48"/>
      </g>
     </g>
    </g>
    <g id="ytick_6">
     <g id="line2d_11">
      <g>
       <use style="stroke:#000000;stroke-width:0.8;" x="57.6" xlink:href="#m84e6b2dda8" y="109.147879"/>
      </g>
     </g>
     <g id="text_11">
      <!-- 60 -->
      <g transform="translate(37.875 112.947098)scale(0.1 -0.1)">
       <use xlink:href="#DejaVuSans-54"/>
       <use x="63.623047" xlink:href="#DejaVuSans-48"/>
      </g>
     </g>
    </g>
    <g id="ytick_7">
     <g id="line2d_12">
      <g>
       <use style="stroke:#000000;stroke-width:0.8;" x="57.6" xlink:href="#m84e6b2dda8" y="74.914705"/>
      </g>
     </g>
     <g id="text_12">
      <!-- 70 -->
      <g transform="translate(37.875 78.713924)scale(0.1 -0.1)">
       <defs>
        <path d="M 8.203125 72.90625 
L 55.078125 72.90625 
L 55.078125 68.703125 
L 28.609375 0 
L 18.3125 0 
L 43.21875 64.59375 
L 8.203125 64.59375 
z
" id="DejaVuSans-55"/>
       </defs>
       <use xlink:href="#DejaVuSans-55"/>
       <use x="63.623047" xlink:href="#DejaVuSans-48"/>
      </g>
     </g>
    </g>
   </g>
   <g id="line2d_13">
    <path clip-path="url(#p7fcea62d57)" d="M 246.263487 170.890833 
L 243.35709 172.670958 
L 240.56024 174.649635 
L 237.883206 176.809749 
L 235.329411 179.141028 
L 232.905702 181.62978 
L 230.622349 184.262311 
L 228.486199 187.031775 
L 226.504099 189.924478 
L 224.67947 192.923304 
L 223.022585 196.02483 
L 221.540288 199.208515 
L 220.242851 202.467513 
L 219.130273 205.791554 
L 218.212824 209.160099 
L 217.49735 212.569723 
L 216.994123 216.00331 
L 216.706564 219.454014 
L 216.644944 222.904718 
L 216.809264 226.341729 
L 217.216638 229.761623 
L 217.863645 233.143861 
L 218.743438 236.481595 
L 219.845746 239.764557 
L 221.156877 242.979052 
L 222.66656 246.11481 
L 224.361102 249.164986 
L 226.233656 252.112463 
L 228.267107 254.950393 
L 230.451184 257.668507 
L 232.775616 260.253111 
L 235.230135 262.69736 
L 237.804469 264.997829 
L 240.491774 267.154519 
L 243.288624 269.16743 
L 246.181327 271.039985 
L 249.169883 272.765337 
L 252.244022 274.350333 
L 255.393474 275.791549 
L 258.61824 277.085563 
L 261.904624 278.239221 
L 265.249205 279.245677 
L 268.63829 280.098083 
L 272.06503 280.789593 
L 275.512311 281.309937 
L 278.973285 281.648845 
L 282.437682 281.796048 
L 285.89181 281.748122 
L 289.321974 281.491373 
L 292.721328 281.015532 
L 296.076179 280.313752 
L 299.376257 279.379186 
L 302.611292 278.222105 
L 305.774437 276.852778 
L 308.858846 275.281475 
L 311.854249 273.52189 
L 314.750376 271.584292 
L 317.536956 269.478952 
L 320.210567 267.219562 
L 322.760938 264.819817 
L 325.177801 262.286562 
L 327.450883 259.633491 
L 329.580187 256.867451 
L 331.558864 254.002134 
L 333.380069 251.040964 
L 335.036955 247.994212 
L 336.529521 244.868723 
L 337.844075 241.678191 
L 338.98404 238.426039 
L 339.942569 235.125961 
L 340.709392 231.78138 
L 341.287932 228.402566 
L 341.678191 224.996365 
L 341.897283 221.569624 
L 341.948633 218.12919 
L 341.845933 214.685333 
L 341.596031 211.238052 
L 341.205773 207.794195 
L 340.688852 204.367454 
L 340.055538 200.95783 
L 338.463696 194.224165 
L 336.481595 187.624009 
L 334.122929 181.174478 
L 331.404815 174.878998 
L 328.344369 168.751259 
L 324.958708 162.801534 
L 321.271795 157.026397 
L 317.328134 151.419003 
L 313.161956 145.965659 
L 308.814343 140.65267 
L 304.326374 135.469767 
L 295.121073 125.336748 
L 288.233359 117.726713 
L 283.748813 112.54381 
L 268.340461 94.122939 
L 265.988642 91.641034 
L 263.554663 89.241288 
L 261.024832 86.940819 
L 258.385454 84.749896 
L 255.643377 82.675366 
L 252.802023 80.720651 
L 249.875087 78.889177 
L 246.865991 77.180941 
L 243.785005 75.606215 
L 240.6424 74.161575 
L 237.441598 72.853868 
L 234.196293 71.686517 
L 230.909908 70.662945 
L 227.592714 69.783152 
L 224.244709 69.043716 
L 220.872741 68.441212 
L 217.480234 67.965371 
L 214.067186 67.616192 
L 210.637022 67.383407 
L 203.742461 67.256744 
L 196.820513 67.534033 
L 189.901988 68.198156 
L 186.464978 68.691114 
L 183.055354 69.307311 
L 179.679963 70.057018 
L 176.352498 70.94708 
L 173.08323 71.994615 
L 169.875581 73.203046 
L 166.739823 74.58949 
L 163.689647 76.160793 
L 160.7319 77.920378 
L 157.876854 79.868245 
L 155.131353 81.987279 
L 152.505669 84.263785 
L 150.01007 86.690917 
L 147.647981 89.254982 
L 145.436518 91.942286 
L 143.375681 94.74256 
L 141.479163 97.64211 
L 139.753811 100.634089 
L 138.209895 103.701381 
L 136.837145 106.840563 
L 135.62529 110.044789 
L 134.567485 113.303787 
L 133.653459 116.617558 
L 132.876366 119.972409 
L 132.222513 123.364917 
L 131.253714 130.238938 
L 130.675173 137.188273 
L 130.411578 144.154724 
L 130.391038 151.090365 
L 130.644363 161.315814 
L 130.894266 167.939933 
L 130.894266 167.939933 
" style="fill:none;stroke:#fea952;stroke-linecap:square;"/>
   </g>
   <g id="line2d_14">
    <path clip-path="url(#p7fcea62d57)" d="M 253.415522 182.567906 
L 251.265583 183.849571 
L 249.159153 185.306292 
L 247.115194 186.92291 
L 245.139357 188.694593 
L 243.250005 190.602016 
L 241.464993 192.625487 
L 239.782105 194.77181 
L 238.202159 197.042133 
L 236.757336 199.375497 
L 235.436305 201.804551 
L 234.262448 204.273324 
L 233.228068 206.813749 
L 232.342283 209.389947 
L 231.614223 211.97224 
L 231.045883 214.5554 
L 230.640093 217.140474 
L 230.397651 219.698498 
L 230.322592 222.250807 
L 230.406406 224.722049 
L 230.666036 227.188813 
L 231.104649 229.653668 
L 231.724508 232.122988 
L 232.524881 234.592982 
L 233.494731 237.039102 
L 234.636631 239.464771 
L 235.91911 241.822093 
L 237.364522 244.136909 
L 238.941368 246.373342 
L 240.632663 248.511918 
L 242.4379 250.55023 
L 244.354385 252.48689 
L 246.375168 254.318468 
L 248.490666 256.040413 
L 250.729766 257.67243 
L 253.027689 259.181108 
L 255.445026 260.594543 
L 257.94193 261.898848 
L 260.49298 263.083258 
L 263.153805 264.165258 
L 265.850437 265.126777 
L 268.589245 265.966001 
L 271.346965 266.675389 
L 274.108788 267.2497 
L 276.846812 267.68185 
L 279.554589 267.96792 
L 282.247705 268.104096 
L 284.869723 268.09305 
L 287.423699 267.930319 
L 289.917605 267.612369 
L 292.345045 267.138613 
L 294.764662 266.485822 
L 297.171326 265.655784 
L 299.558709 264.651534 
L 301.923161 263.474617 
L 304.239973 262.140834 
L 306.495809 260.658736 
L 308.6985 259.020112 
L 310.826936 257.246945 
L 312.853405 255.367494 
L 314.779201 253.37731 
L 316.600265 251.280664 
L 318.312487 249.086411 
L 319.895026 246.828536 
L 321.350553 244.49907 
L 322.680354 242.09336 
L 323.86878 239.65228 
L 324.92169 237.148555 
L 325.834231 234.606593 
L 326.595606 232.065859 
L 327.212545 229.47037 
L 327.683663 226.843886 
L 328.012823 224.122655 
L 328.205538 221.36527 
L 328.261448 218.537357 
L 328.188502 215.675395 
L 327.989844 212.779906 
L 327.665692 209.836705 
L 326.683902 203.908252 
L 325.29064 197.962648 
L 323.555174 192.142114 
L 321.474115 186.419775 
L 319.068147 180.82141 
L 316.353051 175.362911 
L 313.326894 170.026943 
L 309.98677 164.782288 
L 306.376796 159.639334 
L 302.497343 154.554701 
L 298.408956 149.553993 
L 294.118363 144.596769 
L 285.009979 134.570999 
L 277.935751 126.752505 
L 273.219284 121.297932 
L 258.400876 103.541553 
L 254.342209 99.372247 
L 252.278793 97.477063 
L 250.123756 95.67006 
L 247.882284 93.956814 
L 245.538504 92.328706 
L 243.114905 90.797392 
L 240.634032 89.373903 
L 238.065643 88.04786 
L 235.463485 86.837714 
L 232.80679 85.738905 
L 230.124342 84.76034 
L 227.39952 83.898609 
L 224.6396 83.154194 
L 221.836139 82.523494 
L 216.086592 81.587536 
L 210.174492 81.068863 
L 204.094496 80.945488 
L 197.926422 81.182571 
L 191.846069 81.752719 
L 186.024405 82.674823 
L 183.21837 83.285219 
L 180.530828 83.987294 
L 177.910735 84.808702 
L 175.412832 85.726803 
L 173.010746 86.762458 
L 170.69066 87.929032 
L 168.44919 89.231836 
L 166.243413 90.708279 
L 164.101548 92.333353 
L 162.052682 94.080107 
L 160.081206 95.968732 
L 158.22134 97.956115 
L 156.465107 100.05868 
L 154.83534 102.238015 
L 153.341432 104.482594 
L 151.985019 106.790646 
L 150.756026 109.187749 
L 149.645006 111.684562 
L 148.649664 114.272238 
L 147.767817 116.944787 
L 146.993533 119.707555 
L 146.32218 122.563883 
L 145.272373 128.491759 
L 144.580734 134.673773 
L 144.198571 141.059712 
L 144.070507 147.575214 
L 144.217001 157.482385 
L 144.577376 167.412563 
L 144.577376 167.412563 
" style="fill:none;stroke:#ffffff;stroke-linecap:square;"/>
   </g>
   <g id="line2d_15">
    <path clip-path="url(#p7fcea62d57)" d="M 239.111452 159.21376 
L 235.448598 161.492345 
L 231.961327 163.992979 
L 228.651218 166.696587 
L 225.519465 169.587463 
L 222.561399 172.657543 
L 219.779706 175.899135 
L 217.190293 179.29174 
L 214.806038 182.806822 
L 212.601605 186.471111 
L 210.608864 190.245108 
L 208.818129 194.143705 
L 207.257634 198.121277 
L 205.918263 202.193161 
L 204.811425 206.347958 
L 203.948818 210.584046 
L 203.348153 214.866146 
L 203.015477 219.20953 
L 202.967297 223.55863 
L 203.212121 227.961408 
L 203.767241 232.334433 
L 204.622641 236.634053 
L 205.762368 240.840203 
L 207.166612 244.936131 
L 208.819023 248.919001 
L 210.696488 252.76485 
L 212.803093 256.507879 
L 215.102791 260.088017 
L 217.592846 263.527443 
L 220.269704 266.825095 
L 223.113332 269.955993 
L 226.105885 272.90783 
L 229.233771 275.677191 
L 232.492882 278.268626 
L 235.847482 280.662431 
L 239.334965 282.898862 
L 242.894741 284.936131 
L 246.546115 286.801818 
L 250.293969 288.499841 
L 254.082674 290.005868 
L 257.958812 291.351666 
L 261.909166 292.525352 
L 265.929614 293.520777 
L 270.021273 294.329485 
L 274.17781 294.938024 
L 278.391981 295.329771 
L 282.62766 295.488 
L 286.913896 295.403193 
L 291.220248 295.052427 
L 295.525051 294.418695 
L 299.807313 293.48889 
L 303.987852 292.27255 
L 308.051258 290.788425 
L 311.990165 289.054022 
L 315.794532 287.088333 
L 319.468525 284.902946 
L 323.004942 282.509848 
L 326.375412 279.937792 
L 329.594198 277.19218 
L 332.668472 274.27214 
L 335.5764 271.195814 
L 338.301501 267.986318 
L 340.847886 264.64849 
L 343.222703 261.175732 
L 345.409585 257.582858 
L 347.393556 253.895064 
L 349.190262 250.085166 
L 350.76646 246.207827 
L 352.133848 242.245486 
L 353.289531 238.186063 
L 354.206238 234.09239 
L 354.892202 229.961246 
L 355.343558 225.870075 
L 355.589028 221.773979 
L 355.635818 217.721024 
L 355.503364 213.695271 
L 355.202218 209.696198 
L 354.745854 205.751685 
L 354.151851 201.866797 
L 353.427174 198.007408 
L 352.586467 194.225775 
L 351.636751 190.485681 
L 350.575414 186.769168 
L 349.408016 183.105904 
L 346.771743 175.929182 
L 343.741483 168.936585 
L 340.335687 162.139608 
L 336.590522 155.576125 
L 332.556821 149.270507 
L 328.279471 143.198672 
L 323.82657 137.376616 
L 319.21973 131.751347 
L 314.534385 126.342766 
L 305.232168 116.102496 
L 296.386112 106.255535 
L 292.164022 101.247472 
L 283.24866 90.355643 
L 278.280046 84.704325 
L 275.602431 81.890101 
L 272.767118 79.11033 
L 269.770871 76.404575 
L 266.647151 73.829732 
L 263.404469 71.393917 
L 260.065543 69.112597 
L 256.635268 66.980961 
L 253.097949 64.987979 
L 249.504367 63.16457 
L 245.821314 61.485437 
L 242.076406 59.96883 
L 238.268244 58.612694 
L 234.420296 57.42728 
L 230.545827 56.41211 
L 226.653279 55.563937 
L 222.774773 54.880684 
L 218.873876 54.343205 
L 214.994337 53.954346 
L 211.099553 53.697951 
L 207.233918 53.573805 
L 199.537651 53.672698 
L 191.845427 54.205062 
L 187.957908 54.643593 
L 184.029739 55.216128 
L 180.086302 55.939799 
L 176.141555 56.828816 
L 172.174168 57.906866 
L 168.255724 59.180528 
L 164.338331 60.679289 
L 160.468899 62.416521 
L 156.688634 64.392553 
L 153.014611 66.60892 
L 149.510294 69.028212 
L 146.161159 71.641205 
L 142.958656 74.447463 
L 139.938934 77.413102 
L 137.074622 80.553848 
L 134.407929 83.825892 
L 131.916022 87.247104 
L 129.616895 90.801625 
L 127.522603 94.477532 
L 125.663764 98.215014 
L 124.029283 101.996565 
L 122.600917 105.81734 
L 121.367154 109.662786 
L 120.313386 113.527562 
L 119.430553 117.380936 
L 118.694624 121.24316 
L 118.097731 125.091556 
L 117.26257 132.739744 
L 116.823137 140.279861 
L 116.684182 147.683568 
L 116.756844 154.870629 
L 117.084492 165.180918 
L 117.211155 168.467303 
L 117.211155 168.467303 
" style="fill:none;stroke:#ffffff;stroke-linecap:square;"/>
   </g>
   <g id="patch_3">
    <path d="M 57.6 307.584 
L 57.6 41.472 
" style="fill:none;stroke:#000000;stroke-linecap:square;stroke-linejoin:miter;stroke-width:0.8;"/>
   </g>
   <g id="patch_4">
    <path d="M 414.72 307.584 
L 414.72 41.472 
" style="fill:none;stroke:#000000;stroke-linecap:square;stroke-linejoin:miter;stroke-width:0.8;"/>
   </g>
   <g id="patch_5">
    <path d="M 57.6 307.584 
L 414.72 307.584 
" style="fill:none;stroke:#000000;stroke-linecap:square;stroke-linejoin:miter;stroke-width:0.8;"/>
   </g>
   <g id="patch_6">
    <path d="M 57.6 41.472 
L 414.72 41.472 
" style="fill:none;stroke:#000000;stroke-linecap:square;stroke-linejoin:miter;stroke-width:0.8;"/>
   </g>
  </g>
 </g>
 <defs>
  <clipPath id="p7fcea62d57">
   <rect height="266.112" width="357.12" x="57.6" y="41.472"/>
  </clipPath>
 </defs>
</svg>
