<?xml version="1.0" encoding="utf-8" standalone="no"?>
<!DOCTYPE svg PUBLIC "-//W3C//DTD SVG 1.1//EN"
  "http://www.w3.org/Graphics/SVG/1.1/DTD/svg11.dtd">
<!-- Created with matplotlib (https://matplotlib.org/) -->
<svg height="345.6pt" version="1.1" viewBox="0 0 460.8 345.6" width="460.8pt" xmlns="http://www.w3.org/2000/svg" xmlns:xlink="http://www.w3.org/1999/xlink">
 <metadata>
  <rdf:RDF xmlns:cc="http://creativecommons.org/ns#" xmlns:dc="http://purl.org/dc/elements/1.1/" xmlns:rdf="http://www.w3.org/1999/02/22-rdf-syntax-ns#">
   <cc:Work>
    <dc:type rdf:resource="http://purl.org/dc/dcmitype/StillImage"/>
    <dc:date>2021-01-23T11:46:49.544327</dc:date>
    <dc:format>image/svg+xml</dc:format>
    <dc:creator>
     <cc:Agent>
      <dc:title>Matplotlib v3.3.3, https://matplotlib.org/</dc:title>
     </cc:Agent>
    </dc:creator>
   </cc:Work>
  </rdf:RDF>
 </metadata>
 <defs>
  <style type="text/css">*{stroke-linecap:butt;stroke-linejoin:round;}</style>
 </defs>
 <g id="figure_1">
  <g id="patch_1">
   <path d="M 0 345.6 
L 460.8 345.6 
L 460.8 0 
L 0 0 
z
" style="fill:#ffffff;"/>
  </g>
  <g id="axes_1">
   <g id="patch_2">
    <path d="M 57.6 307.584 
L 414.72 307.584 
L 414.72 41.472 
L 57.6 41.472 
z
" style="fill:#7d9051;"/>
   </g>
   <g id="matplotlib.axis_1">
    <g id="xtick_1">
     <g id="line2d_1">
      <defs>
       <path d="M 0 0 
L 0 3.5 
" id="md52e3b3f58" style="stroke:#000000;stroke-width:0.8;"/>
      </defs>
      <g>
       <use style="stroke:#000000;stroke-width:0.8;" x="98.211057" xlink:href="#md52e3b3f58" y="307.584"/>
      </g>
     </g>
     <g id="text_1">
      <!-- −25 -->
      <g transform="translate(87.658713 322.182437)scale(0.1 -0.1)">
       <defs>
        <path d="M 10.59375 35.5 
L 73.1875 35.5 
L 73.1875 27.203125 
L 10.59375 27.203125 
z
" id="DejaVuSans-8722"/>
        <path d="M 19.1875 8.296875 
L 53.609375 8.296875 
L 53.609375 0 
L 7.328125 0 
L 7.328125 8.296875 
Q 12.9375 14.109375 22.625 23.890625 
Q 32.328125 33.6875 34.8125 36.53125 
Q 39.546875 41.84375 41.421875 45.53125 
Q 43.3125 49.21875 43.3125 52.78125 
Q 43.3125 58.59375 39.234375 62.25 
Q 35.15625 65.921875 28.609375 65.921875 
Q 23.96875 65.921875 18.8125 64.3125 
Q 13.671875 62.703125 7.8125 59.421875 
L 7.8125 69.390625 
Q 13.765625 71.78125 18.9375 73 
Q 24.125 74.21875 28.421875 74.21875 
Q 39.75 74.21875 46.484375 68.546875 
Q 53.21875 62.890625 53.21875 53.421875 
Q 53.21875 48.921875 51.53125 44.890625 
Q 49.859375 40.875 45.40625 35.40625 
Q 44.1875 33.984375 37.640625 27.21875 
Q 31.109375 20.453125 19.1875 8.296875 
z
" id="DejaVuSans-50"/>
        <path d="M 10.796875 72.90625 
L 49.515625 72.90625 
L 49.515625 64.59375 
L 19.828125 64.59375 
L 19.828125 46.734375 
Q 21.96875 47.46875 24.109375 47.828125 
Q 26.265625 48.1875 28.421875 48.1875 
Q 40.625 48.1875 47.75 41.5 
Q 54.890625 34.8125 54.890625 23.390625 
Q 54.890625 11.625 47.5625 5.09375 
Q 40.234375 -1.421875 26.90625 -1.421875 
Q 22.3125 -1.421875 17.546875 -0.640625 
Q 12.796875 0.140625 7.71875 1.703125 
L 7.71875 11.625 
Q 12.109375 9.234375 16.796875 8.0625 
Q 21.484375 6.890625 26.703125 6.890625 
Q 35.15625 6.890625 40.078125 11.328125 
Q 45.015625 15.765625 45.015625 23.390625 
Q 45.015625 31 40.078125 35.4375 
Q 35.15625 39.890625 26.703125 39.890625 
Q 22.75 39.890625 18.8125 39.015625 
Q 14.890625 38.140625 10.796875 36.28125 
z
" id="DejaVuSans-53"/>
       </defs>
       <use xlink:href="#DejaVuSans-8722"/>
       <use x="83.789062" xlink:href="#DejaVuSans-50"/>
       <use x="147.412109" xlink:href="#DejaVuSans-53"/>
      </g>
     </g>
    </g>
    <g id="xtick_2">
     <g id="line2d_2">
      <g>
       <use style="stroke:#000000;stroke-width:0.8;" x="144.652796" xlink:href="#md52e3b3f58" y="307.584"/>
      </g>
     </g>
     <g id="text_2">
      <!-- 0 -->
      <g transform="translate(141.471546 322.182437)scale(0.1 -0.1)">
       <defs>
        <path d="M 31.78125 66.40625 
Q 24.171875 66.40625 20.328125 58.90625 
Q 16.5 51.421875 16.5 36.375 
Q 16.5 21.390625 20.328125 13.890625 
Q 24.171875 6.390625 31.78125 6.390625 
Q 39.453125 6.390625 43.28125 13.890625 
Q 47.125 21.390625 47.125 36.375 
Q 47.125 51.421875 43.28125 58.90625 
Q 39.453125 66.40625 31.78125 66.40625 
z
M 31.78125 74.21875 
Q 44.046875 74.21875 50.515625 64.515625 
Q 56.984375 54.828125 56.984375 36.375 
Q 56.984375 17.96875 50.515625 8.265625 
Q 44.046875 -1.421875 31.78125 -1.421875 
Q 19.53125 -1.421875 13.0625 8.265625 
Q 6.59375 17.96875 6.59375 36.375 
Q 6.59375 54.828125 13.0625 64.515625 
Q 19.53125 74.21875 31.78125 74.21875 
z
" id="DejaVuSans-48"/>
       </defs>
       <use xlink:href="#DejaVuSans-48"/>
      </g>
     </g>
    </g>
    <g id="xtick_3">
     <g id="line2d_3">
      <g>
       <use style="stroke:#000000;stroke-width:0.8;" x="191.094535" xlink:href="#md52e3b3f58" y="307.584"/>
      </g>
     </g>
     <g id="text_3">
      <!-- 25 -->
      <g transform="translate(184.732035 322.182437)scale(0.1 -0.1)">
       <use xlink:href="#DejaVuSans-50"/>
       <use x="63.623047" xlink:href="#DejaVuSans-53"/>
      </g>
     </g>
    </g>
    <g id="xtick_4">
     <g id="line2d_4">
      <g>
       <use style="stroke:#000000;stroke-width:0.8;" x="237.536275" xlink:href="#md52e3b3f58" y="307.584"/>
      </g>
     </g>
     <g id="text_4">
      <!-- 50 -->
      <g transform="translate(231.173775 322.182437)scale(0.1 -0.1)">
       <use xlink:href="#DejaVuSans-53"/>
       <use x="63.623047" xlink:href="#DejaVuSans-48"/>
      </g>
     </g>
    </g>
    <g id="xtick_5">
     <g id="line2d_5">
      <g>
       <use style="stroke:#000000;stroke-width:0.8;" x="283.978014" xlink:href="#md52e3b3f58" y="307.584"/>
      </g>
     </g>
     <g id="text_5">
      <!-- 75 -->
      <g transform="translate(277.615514 322.182437)scale(0.1 -0.1)">
       <defs>
        <path d="M 8.203125 72.90625 
L 55.078125 72.90625 
L 55.078125 68.703125 
L 28.609375 0 
L 18.3125 0 
L 43.21875 64.59375 
L 8.203125 64.59375 
z
" id="DejaVuSans-55"/>
       </defs>
       <use xlink:href="#DejaVuSans-55"/>
       <use x="63.623047" xlink:href="#DejaVuSans-53"/>
      </g>
     </g>
    </g>
    <g id="xtick_6">
     <g id="line2d_6">
      <g>
       <use style="stroke:#000000;stroke-width:0.8;" x="330.419753" xlink:href="#md52e3b3f58" y="307.584"/>
      </g>
     </g>
     <g id="text_6">
      <!-- 100 -->
      <g transform="translate(320.876003 322.182437)scale(0.1 -0.1)">
       <defs>
        <path d="M 12.40625 8.296875 
L 28.515625 8.296875 
L 28.515625 63.921875 
L 10.984375 60.40625 
L 10.984375 69.390625 
L 28.421875 72.90625 
L 38.28125 72.90625 
L 38.28125 8.296875 
L 54.390625 8.296875 
L 54.390625 0 
L 12.40625 0 
z
" id="DejaVuSans-49"/>
       </defs>
       <use xlink:href="#DejaVuSans-49"/>
       <use x="63.623047" xlink:href="#DejaVuSans-48"/>
       <use x="127.246094" xlink:href="#DejaVuSans-48"/>
      </g>
     </g>
    </g>
    <g id="xtick_7">
     <g id="line2d_7">
      <g>
       <use style="stroke:#000000;stroke-width:0.8;" x="376.861492" xlink:href="#md52e3b3f58" y="307.584"/>
      </g>
     </g>
     <g id="text_7">
      <!-- 125 -->
      <g transform="translate(367.317742 322.182437)scale(0.1 -0.1)">
       <use xlink:href="#DejaVuSans-49"/>
       <use x="63.623047" xlink:href="#DejaVuSans-50"/>
       <use x="127.246094" xlink:href="#DejaVuSans-53"/>
      </g>
     </g>
    </g>
   </g>
   <g id="matplotlib.axis_2">
    <g id="ytick_1">
     <g id="line2d_8">
      <defs>
       <path d="M 0 0 
L -3.5 0 
" id="m3cb8592194" style="stroke:#000000;stroke-width:0.8;"/>
      </defs>
      <g>
       <use style="stroke:#000000;stroke-width:0.8;" x="57.6" xlink:href="#m3cb8592194" y="275.639674"/>
      </g>
     </g>
     <g id="text_8">
      <!-- 20 -->
      <g transform="translate(37.875 279.438893)scale(0.1 -0.1)">
       <use xlink:href="#DejaVuSans-50"/>
       <use x="63.623047" xlink:href="#DejaVuSans-48"/>
      </g>
     </g>
    </g>
    <g id="ytick_2">
     <g id="line2d_9">
      <g>
       <use style="stroke:#000000;stroke-width:0.8;" x="57.6" xlink:href="#m3cb8592194" y="238.486283"/>
      </g>
     </g>
     <g id="text_9">
      <!-- 40 -->
      <g transform="translate(37.875 242.285502)scale(0.1 -0.1)">
       <defs>
        <path d="M 37.796875 64.3125 
L 12.890625 25.390625 
L 37.796875 25.390625 
z
M 35.203125 72.90625 
L 47.609375 72.90625 
L 47.609375 25.390625 
L 58.015625 25.390625 
L 58.015625 17.1875 
L 47.609375 17.1875 
L 47.609375 0 
L 37.796875 0 
L 37.796875 17.1875 
L 4.890625 17.1875 
L 4.890625 26.703125 
z
" id="DejaVuSans-52"/>
       </defs>
       <use xlink:href="#DejaVuSans-52"/>
       <use x="63.623047" xlink:href="#DejaVuSans-48"/>
      </g>
     </g>
    </g>
    <g id="ytick_3">
     <g id="line2d_10">
      <g>
       <use style="stroke:#000000;stroke-width:0.8;" x="57.6" xlink:href="#m3cb8592194" y="201.332891"/>
      </g>
     </g>
     <g id="text_10">
      <!-- 60 -->
      <g transform="translate(37.875 205.13211)scale(0.1 -0.1)">
       <defs>
        <path d="M 33.015625 40.375 
Q 26.375 40.375 22.484375 35.828125 
Q 18.609375 31.296875 18.609375 23.390625 
Q 18.609375 15.53125 22.484375 10.953125 
Q 26.375 6.390625 33.015625 6.390625 
Q 39.65625 6.390625 43.53125 10.953125 
Q 47.40625 15.53125 47.40625 23.390625 
Q 47.40625 31.296875 43.53125 35.828125 
Q 39.65625 40.375 33.015625 40.375 
z
M 52.59375 71.296875 
L 52.59375 62.3125 
Q 48.875 64.0625 45.09375 64.984375 
Q 41.3125 65.921875 37.59375 65.921875 
Q 27.828125 65.921875 22.671875 59.328125 
Q 17.53125 52.734375 16.796875 39.40625 
Q 19.671875 43.65625 24.015625 45.921875 
Q 28.375 48.1875 33.59375 48.1875 
Q 44.578125 48.1875 50.953125 41.515625 
Q 57.328125 34.859375 57.328125 23.390625 
Q 57.328125 12.15625 50.6875 5.359375 
Q 44.046875 -1.421875 33.015625 -1.421875 
Q 20.359375 -1.421875 13.671875 8.265625 
Q 6.984375 17.96875 6.984375 36.375 
Q 6.984375 53.65625 15.1875 63.9375 
Q 23.390625 74.21875 37.203125 74.21875 
Q 40.921875 74.21875 44.703125 73.484375 
Q 48.484375 72.75 52.59375 71.296875 
z
" id="DejaVuSans-54"/>
       </defs>
       <use xlink:href="#DejaVuSans-54"/>
       <use x="63.623047" xlink:href="#DejaVuSans-48"/>
      </g>
     </g>
    </g>
    <g id="ytick_4">
     <g id="line2d_11">
      <g>
       <use style="stroke:#000000;stroke-width:0.8;" x="57.6" xlink:href="#m3cb8592194" y="164.1795"/>
      </g>
     </g>
     <g id="text_11">
      <!-- 80 -->
      <g transform="translate(37.875 167.978719)scale(0.1 -0.1)">
       <defs>
        <path d="M 31.78125 34.625 
Q 24.75 34.625 20.71875 30.859375 
Q 16.703125 27.09375 16.703125 20.515625 
Q 16.703125 13.921875 20.71875 10.15625 
Q 24.75 6.390625 31.78125 6.390625 
Q 38.8125 6.390625 42.859375 10.171875 
Q 46.921875 13.96875 46.921875 20.515625 
Q 46.921875 27.09375 42.890625 30.859375 
Q 38.875 34.625 31.78125 34.625 
z
M 21.921875 38.8125 
Q 15.578125 40.375 12.03125 44.71875 
Q 8.5 49.078125 8.5 55.328125 
Q 8.5 64.0625 14.71875 69.140625 
Q 20.953125 74.21875 31.78125 74.21875 
Q 42.671875 74.21875 48.875 69.140625 
Q 55.078125 64.0625 55.078125 55.328125 
Q 55.078125 49.078125 51.53125 44.71875 
Q 48 40.375 41.703125 38.8125 
Q 48.828125 37.15625 52.796875 32.3125 
Q 56.78125 27.484375 56.78125 20.515625 
Q 56.78125 9.90625 50.3125 4.234375 
Q 43.84375 -1.421875 31.78125 -1.421875 
Q 19.734375 -1.421875 13.25 4.234375 
Q 6.78125 9.90625 6.78125 20.515625 
Q 6.78125 27.484375 10.78125 32.3125 
Q 14.796875 37.15625 21.921875 38.8125 
z
M 18.3125 54.390625 
Q 18.3125 48.734375 21.84375 45.5625 
Q 25.390625 42.390625 31.78125 42.390625 
Q 38.140625 42.390625 41.71875 45.5625 
Q 45.3125 48.734375 45.3125 54.390625 
Q 45.3125 60.0625 41.71875 63.234375 
Q 38.140625 66.40625 31.78125 66.40625 
Q 25.390625 66.40625 21.84375 63.234375 
Q 18.3125 60.0625 18.3125 54.390625 
z
" id="DejaVuSans-56"/>
       </defs>
       <use xlink:href="#DejaVuSans-56"/>
       <use x="63.623047" xlink:href="#DejaVuSans-48"/>
      </g>
     </g>
    </g>
    <g id="ytick_5">
     <g id="line2d_12">
      <g>
       <use style="stroke:#000000;stroke-width:0.8;" x="57.6" xlink:href="#m3cb8592194" y="127.026109"/>
      </g>
     </g>
     <g id="text_12">
      <!-- 100 -->
      <g transform="translate(31.5125 130.825327)scale(0.1 -0.1)">
       <use xlink:href="#DejaVuSans-49"/>
       <use x="63.623047" xlink:href="#DejaVuSans-48"/>
       <use x="127.246094" xlink:href="#DejaVuSans-48"/>
      </g>
     </g>
    </g>
    <g id="ytick_6">
     <g id="line2d_13">
      <g>
       <use style="stroke:#000000;stroke-width:0.8;" x="57.6" xlink:href="#m3cb8592194" y="89.872717"/>
      </g>
     </g>
     <g id="text_13">
      <!-- 120 -->
      <g transform="translate(31.5125 93.671936)scale(0.1 -0.1)">
       <use xlink:href="#DejaVuSans-49"/>
       <use x="63.623047" xlink:href="#DejaVuSans-50"/>
       <use x="127.246094" xlink:href="#DejaVuSans-48"/>
      </g>
     </g>
    </g>
    <g id="ytick_7">
     <g id="line2d_14">
      <g>
       <use style="stroke:#000000;stroke-width:0.8;" x="57.6" xlink:href="#m3cb8592194" y="52.719326"/>
      </g>
     </g>
     <g id="text_14">
      <!-- 140 -->
      <g transform="translate(31.5125 56.518545)scale(0.1 -0.1)">
       <use xlink:href="#DejaVuSans-49"/>
       <use x="63.623047" xlink:href="#DejaVuSans-52"/>
       <use x="127.246094" xlink:href="#DejaVuSans-48"/>
      </g>
     </g>
    </g>
   </g>
   <g id="line2d_15">
    <path clip-path="url(#pbe59f316c0)" d="M 163.229492 294.21637 
L 162.661045 290.504746 
L 162.387968 286.761542 
L 162.402829 283.005334 
L 162.696341 279.256557 
L 163.26293 275.537502 
L 164.093308 271.866747 
L 165.180045 268.264726 
L 166.513852 264.751873 
L 168.08544 261.348622 
L 169.891095 258.073551 
L 171.910382 254.939662 
L 174.098717 251.917234 
L 177.578132 247.512699 
L 184.616842 238.742641 
L 187.904917 234.198781 
L 189.94278 231.068608 
L 191.8246 227.836263 
L 193.524367 224.492458 
L 195.027222 221.050196 
L 196.316445 217.522482 
L 197.380889 213.929749 
L 198.207552 210.283143 
L 198.796433 206.601242 
L 199.361165 201.030091 
L 200.661534 184.223755 
L 201.189112 180.523277 
L 201.880165 176.850664 
L 202.769989 173.215205 
L 203.890163 169.63176 
L 205.255551 166.130053 
L 206.886584 162.743522 
L 208.799984 159.505603 
L 211.012469 156.451595 
L 213.529611 153.614933 
L 216.323546 151.045776 
L 219.364551 148.790565 
L 222.621046 146.899458 
L 224.322671 146.104375 
L 226.067023 145.418895 
L 229.663471 144.367454 
L 233.367664 143.711697 
L 237.136876 143.412612 
L 240.922806 143.427473 
L 244.680872 143.71727 
L 248.390638 144.229987 
L 253.88934 145.277712 
L 264.875598 147.557073 
L 268.581648 148.138523 
L 272.306276 148.532349 
L 276.047622 148.682821 
L 279.800115 148.537922 
L 283.552608 148.041925 
L 287.253085 147.172535 
L 290.83653 145.918608 
L 292.564163 145.14396 
L 294.236065 144.268998 
L 295.844807 143.291863 
L 297.382957 142.2107 
L 298.83937 141.025507 
L 300.214046 139.739999 
L 301.505126 138.365324 
L 302.707038 136.905196 
L 303.82164 135.372618 
L 305.779624 132.112408 
L 307.364216 128.65157 
L 308.564271 125.053264 
L 309.379788 121.369505 
L 309.838632 117.631874 
L 309.961238 113.870093 
L 309.775471 110.115743 
L 309.305481 106.396688 
L 308.584705 102.729648 
L 307.657728 99.107193 
L 305.976537 93.745958 
L 303.425957 86.69796 
L 298.867235 74.444772 
L 297.115453 69.141125 
L 295.614456 63.757599 
L 294.800797 60.107278 
L 294.165474 56.395654 
L 293.923977 54.513835 
L 293.923977 54.513835 
" style="fill:none;stroke:#fea952;stroke-linecap:square;"/>
   </g>
   <g id="line2d_16">
    <path clip-path="url(#pbe59f316c0)" d="M 155.908431 295.488 
L 155.261916 291.188761 
L 154.958107 286.871777 
L 154.985666 282.557367 
L 155.331939 278.266324 
L 155.987467 274.02667 
L 156.943573 269.842822 
L 158.186091 265.754829 
L 159.713634 261.756539 
L 161.516146 257.875965 
L 163.581586 254.148621 
L 165.840372 250.653643 
L 168.208708 247.387026 
L 171.827104 242.807313 
L 178.670529 234.286595 
L 181.724494 230.073571 
L 183.573636 227.24121 
L 185.250656 224.372414 
L 186.759223 221.41873 
L 188.089183 218.389635 
L 189.226242 215.298971 
L 190.162207 212.167476 
L 190.888014 209.002779 
L 191.419001 205.713287 
L 191.950012 200.491769 
L 193.295011 183.249425 
L 193.87039 179.238254 
L 194.637544 175.189513 
L 195.643246 171.111749 
L 196.918516 167.060552 
L 198.498729 163.038073 
L 200.406658 159.106828 
L 202.680003 155.291245 
L 205.332816 151.660298 
L 206.801853 149.933302 
L 208.359615 148.277694 
L 210.007215 146.695674 
L 211.736894 145.199615 
L 213.553061 143.788681 
L 215.449349 142.475015 
L 217.423413 141.265796 
L 219.475502 140.167405 
L 221.604942 139.188529 
L 223.774804 138.350606 
L 225.971963 137.651342 
L 228.17936 137.086493 
L 230.398211 136.644329 
L 234.824538 136.101733 
L 239.204804 135.954271 
L 243.505563 136.142896 
L 247.657162 136.602917 
L 251.63574 137.25306 
L 259.109864 138.802885 
L 266.104352 140.228694 
L 269.466106 140.76067 
L 272.741324 141.114417 
L 275.922445 141.253197 
L 279.003599 141.150058 
L 282.03535 140.767799 
L 284.994982 140.093273 
L 287.796339 139.138327 
L 290.378558 137.918044 
L 292.6928 136.447246 
L 294.797657 134.652985 
L 296.697581 132.534681 
L 298.369708 130.130055 
L 299.781195 127.49553 
L 300.904337 124.699223 
L 301.725789 121.799101 
L 302.258485 118.770835 
L 302.508789 115.663894 
L 302.492647 112.504403 
L 302.218621 109.311 
L 301.704424 106.10142 
L 300.969828 102.846744 
L 300.040607 99.536442 
L 298.367873 94.485996 
L 295.153941 85.833877 
L 291.842709 76.867789 
L 289.996116 71.26951 
L 288.886063 67.421136 
L 287.91653 63.472711 
L 287.118822 59.415174 
L 286.553741 55.45967 
L 286.553741 55.45967 
" style="fill:none;stroke:#ffffff;stroke-linecap:square;"/>
   </g>
   <g id="line2d_17">
    <path clip-path="url(#pbe59f316c0)" d="M 170.550553 292.94474 
L 170.060174 289.820731 
L 169.817828 286.651307 
L 169.819992 283.453301 
L 170.060743 280.24679 
L 170.538393 277.048334 
L 171.243043 273.890672 
L 172.173999 270.774624 
L 173.314069 267.747207 
L 174.654735 264.82128 
L 176.200604 261.99848 
L 177.980392 259.225681 
L 179.988725 256.447441 
L 183.329159 252.218086 
L 189.359994 244.760971 
L 192.932872 239.980166 
L 195.214729 236.628423 
L 197.377904 233.116569 
L 199.370149 229.449308 
L 201.154079 225.655431 
L 202.718347 221.736547 
L 204.034618 217.731064 
L 205.097882 213.633692 
L 205.882687 209.512314 
L 206.413155 205.488526 
L 206.912462 199.634907 
L 207.660594 188.676415 
L 208.25204 183.493025 
L 208.797587 180.145285 
L 209.489287 176.899757 
L 210.35723 173.745056 
L 211.412397 170.695476 
L 212.667599 167.776364 
L 214.117607 165.026822 
L 215.780083 162.456 
L 217.667777 160.071922 
L 219.779066 157.892586 
L 222.077448 155.962207 
L 224.512026 154.327629 
L 227.0404 153.020222 
L 229.725092 152.030978 
L 232.610632 151.340081 
L 235.670713 150.93898 
L 238.854878 150.811507 
L 242.111119 150.938687 
L 245.427351 151.29604 
L 250.56715 152.181351 
L 265.651286 155.219876 
L 269.763118 155.761121 
L 274.012953 156.070861 
L 278.369537 156.06843 
L 282.827785 155.676654 
L 285.069865 155.316051 
L 287.294683 154.842412 
L 289.511188 154.251797 
L 291.713231 153.537293 
L 293.876721 152.69889 
L 296.009589 151.727577 
L 298.093573 150.619951 
L 300.117839 149.371023 
L 302.073115 147.974154 
L 303.914682 146.452863 
L 305.630435 144.827013 
L 307.242145 143.087781 
L 308.716496 141.27571 
L 310.079233 139.379801 
L 311.32444 137.412558 
L 312.44886 135.389033 
L 313.457386 133.311174 
L 314.349425 131.185705 
L 315.120749 129.02976 
L 315.776086 126.843431 
L 316.31301 124.640387 
L 317.047245 120.237974 
L 317.369103 115.83993 
L 317.318369 111.475859 
L 316.92735 107.18657 
L 316.241492 103.013771 
L 315.319047 98.978951 
L 314.219692 95.085211 
L 312.355423 89.465202 
L 309.048935 80.562344 
L 305.891762 72.021755 
L 304.23479 67.01274 
L 302.848187 62.058152 
L 302.10759 58.756072 
L 301.53571 55.449819 
L 301.294213 53.568 
L 301.294213 53.568 
" style="fill:none;stroke:#ffffff;stroke-linecap:square;"/>
   </g>
   <g id="patch_3">
    <path d="M 57.6 307.584 
L 57.6 41.472 
" style="fill:none;stroke:#000000;stroke-linecap:square;stroke-linejoin:miter;stroke-width:0.8;"/>
   </g>
   <g id="patch_4">
    <path d="M 414.72 307.584 
L 414.72 41.472 
" style="fill:none;stroke:#000000;stroke-linecap:square;stroke-linejoin:miter;stroke-width:0.8;"/>
   </g>
   <g id="patch_5">
    <path d="M 57.6 307.584 
L 414.72 307.584 
" style="fill:none;stroke:#000000;stroke-linecap:square;stroke-linejoin:miter;stroke-width:0.8;"/>
   </g>
   <g id="patch_6">
    <path d="M 57.6 41.472 
L 414.72 41.472 
" style="fill:none;stroke:#000000;stroke-linecap:square;stroke-linejoin:miter;stroke-width:0.8;"/>
   </g>
  </g>
 </g>
 <defs>
  <clipPath id="pbe59f316c0">
   <rect height="266.112" width="357.12" x="57.6" y="41.472"/>
  </clipPath>
 </defs>
</svg>
