<?xml version="1.0" encoding="utf-8" standalone="no"?>
<!DOCTYPE svg PUBLIC "-//W3C//DTD SVG 1.1//EN"
  "http://www.w3.org/Graphics/SVG/1.1/DTD/svg11.dtd">
<!-- Created with matplotlib (https://matplotlib.org/) -->
<svg height="345.6pt" version="1.1" viewBox="0 0 460.8 345.6" width="460.8pt" xmlns="http://www.w3.org/2000/svg" xmlns:xlink="http://www.w3.org/1999/xlink">
 <metadata>
  <rdf:RDF xmlns:cc="http://creativecommons.org/ns#" xmlns:dc="http://purl.org/dc/elements/1.1/" xmlns:rdf="http://www.w3.org/1999/02/22-rdf-syntax-ns#">
   <cc:Work>
    <dc:type rdf:resource="http://purl.org/dc/dcmitype/StillImage"/>
    <dc:date>2021-01-22T09:31:35.578149</dc:date>
    <dc:format>image/svg+xml</dc:format>
    <dc:creator>
     <cc:Agent>
      <dc:title>Matplotlib v3.3.3, https://matplotlib.org/</dc:title>
     </cc:Agent>
    </dc:creator>
   </cc:Work>
  </rdf:RDF>
 </metadata>
 <defs>
  <style type="text/css">*{stroke-linecap:butt;stroke-linejoin:round;}</style>
 </defs>
 <g id="figure_1">
  <g id="patch_1">
   <path d="M 0 345.6 
L 460.8 345.6 
L 460.8 0 
L 0 0 
z
" style="fill:#ffffff;"/>
  </g>
  <g id="axes_1">
   <g id="patch_2">
    <path d="M 57.6 307.584 
L 414.72 307.584 
L 414.72 41.472 
L 57.6 41.472 
z
" style="fill:#7d9051;"/>
   </g>
   <g id="matplotlib.axis_1">
    <g id="xtick_1">
     <g id="line2d_1">
      <defs>
       <path d="M 0 0 
L 0 3.5 
" id="m8b62fa699d" style="stroke:#000000;stroke-width:0.8;"/>
      </defs>
      <g>
       <use style="stroke:#000000;stroke-width:0.8;" x="105.624778" xlink:href="#m8b62fa699d" y="307.584"/>
      </g>
     </g>
     <g id="text_1">
      <!-- 20 -->
      <g transform="translate(99.262278 322.182437)scale(0.1 -0.1)">
       <defs>
        <path d="M 19.1875 8.296875 
L 53.609375 8.296875 
L 53.609375 0 
L 7.328125 0 
L 7.328125 8.296875 
Q 12.9375 14.109375 22.625 23.890625 
Q 32.328125 33.6875 34.8125 36.53125 
Q 39.546875 41.84375 41.421875 45.53125 
Q 43.3125 49.21875 43.3125 52.78125 
Q 43.3125 58.59375 39.234375 62.25 
Q 35.15625 65.921875 28.609375 65.921875 
Q 23.96875 65.921875 18.8125 64.3125 
Q 13.671875 62.703125 7.8125 59.421875 
L 7.8125 69.390625 
Q 13.765625 71.78125 18.9375 73 
Q 24.125 74.21875 28.421875 74.21875 
Q 39.75 74.21875 46.484375 68.546875 
Q 53.21875 62.890625 53.21875 53.421875 
Q 53.21875 48.921875 51.53125 44.890625 
Q 49.859375 40.875 45.40625 35.40625 
Q 44.1875 33.984375 37.640625 27.21875 
Q 31.109375 20.453125 19.1875 8.296875 
z
" id="DejaVuSans-50"/>
        <path d="M 31.78125 66.40625 
Q 24.171875 66.40625 20.328125 58.90625 
Q 16.5 51.421875 16.5 36.375 
Q 16.5 21.390625 20.328125 13.890625 
Q 24.171875 6.390625 31.78125 6.390625 
Q 39.453125 6.390625 43.28125 13.890625 
Q 47.125 21.390625 47.125 36.375 
Q 47.125 51.421875 43.28125 58.90625 
Q 39.453125 66.40625 31.78125 66.40625 
z
M 31.78125 74.21875 
Q 44.046875 74.21875 50.515625 64.515625 
Q 56.984375 54.828125 56.984375 36.375 
Q 56.984375 17.96875 50.515625 8.265625 
Q 44.046875 -1.421875 31.78125 -1.421875 
Q 19.53125 -1.421875 13.0625 8.265625 
Q 6.59375 17.96875 6.59375 36.375 
Q 6.59375 54.828125 13.0625 64.515625 
Q 19.53125 74.21875 31.78125 74.21875 
z
" id="DejaVuSans-48"/>
       </defs>
       <use xlink:href="#DejaVuSans-50"/>
       <use x="63.623047" xlink:href="#DejaVuSans-48"/>
      </g>
     </g>
    </g>
    <g id="xtick_2">
     <g id="line2d_2">
      <g>
       <use style="stroke:#000000;stroke-width:0.8;" x="156.523869" xlink:href="#m8b62fa699d" y="307.584"/>
      </g>
     </g>
     <g id="text_2">
      <!-- 40 -->
      <g transform="translate(150.161369 322.182437)scale(0.1 -0.1)">
       <defs>
        <path d="M 37.796875 64.3125 
L 12.890625 25.390625 
L 37.796875 25.390625 
z
M 35.203125 72.90625 
L 47.609375 72.90625 
L 47.609375 25.390625 
L 58.015625 25.390625 
L 58.015625 17.1875 
L 47.609375 17.1875 
L 47.609375 0 
L 37.796875 0 
L 37.796875 17.1875 
L 4.890625 17.1875 
L 4.890625 26.703125 
z
" id="DejaVuSans-52"/>
       </defs>
       <use xlink:href="#DejaVuSans-52"/>
       <use x="63.623047" xlink:href="#DejaVuSans-48"/>
      </g>
     </g>
    </g>
    <g id="xtick_3">
     <g id="line2d_3">
      <g>
       <use style="stroke:#000000;stroke-width:0.8;" x="207.42296" xlink:href="#m8b62fa699d" y="307.584"/>
      </g>
     </g>
     <g id="text_3">
      <!-- 60 -->
      <g transform="translate(201.06046 322.182437)scale(0.1 -0.1)">
       <defs>
        <path d="M 33.015625 40.375 
Q 26.375 40.375 22.484375 35.828125 
Q 18.609375 31.296875 18.609375 23.390625 
Q 18.609375 15.53125 22.484375 10.953125 
Q 26.375 6.390625 33.015625 6.390625 
Q 39.65625 6.390625 43.53125 10.953125 
Q 47.40625 15.53125 47.40625 23.390625 
Q 47.40625 31.296875 43.53125 35.828125 
Q 39.65625 40.375 33.015625 40.375 
z
M 52.59375 71.296875 
L 52.59375 62.3125 
Q 48.875 64.0625 45.09375 64.984375 
Q 41.3125 65.921875 37.59375 65.921875 
Q 27.828125 65.921875 22.671875 59.328125 
Q 17.53125 52.734375 16.796875 39.40625 
Q 19.671875 43.65625 24.015625 45.921875 
Q 28.375 48.1875 33.59375 48.1875 
Q 44.578125 48.1875 50.953125 41.515625 
Q 57.328125 34.859375 57.328125 23.390625 
Q 57.328125 12.15625 50.6875 5.359375 
Q 44.046875 -1.421875 33.015625 -1.421875 
Q 20.359375 -1.421875 13.671875 8.265625 
Q 6.984375 17.96875 6.984375 36.375 
Q 6.984375 53.65625 15.1875 63.9375 
Q 23.390625 74.21875 37.203125 74.21875 
Q 40.921875 74.21875 44.703125 73.484375 
Q 48.484375 72.75 52.59375 71.296875 
z
" id="DejaVuSans-54"/>
       </defs>
       <use xlink:href="#DejaVuSans-54"/>
       <use x="63.623047" xlink:href="#DejaVuSans-48"/>
      </g>
     </g>
    </g>
    <g id="xtick_4">
     <g id="line2d_4">
      <g>
       <use style="stroke:#000000;stroke-width:0.8;" x="258.322052" xlink:href="#m8b62fa699d" y="307.584"/>
      </g>
     </g>
     <g id="text_4">
      <!-- 80 -->
      <g transform="translate(251.959552 322.182437)scale(0.1 -0.1)">
       <defs>
        <path d="M 31.78125 34.625 
Q 24.75 34.625 20.71875 30.859375 
Q 16.703125 27.09375 16.703125 20.515625 
Q 16.703125 13.921875 20.71875 10.15625 
Q 24.75 6.390625 31.78125 6.390625 
Q 38.8125 6.390625 42.859375 10.171875 
Q 46.921875 13.96875 46.921875 20.515625 
Q 46.921875 27.09375 42.890625 30.859375 
Q 38.875 34.625 31.78125 34.625 
z
M 21.921875 38.8125 
Q 15.578125 40.375 12.03125 44.71875 
Q 8.5 49.078125 8.5 55.328125 
Q 8.5 64.0625 14.71875 69.140625 
Q 20.953125 74.21875 31.78125 74.21875 
Q 42.671875 74.21875 48.875 69.140625 
Q 55.078125 64.0625 55.078125 55.328125 
Q 55.078125 49.078125 51.53125 44.71875 
Q 48 40.375 41.703125 38.8125 
Q 48.828125 37.15625 52.796875 32.3125 
Q 56.78125 27.484375 56.78125 20.515625 
Q 56.78125 9.90625 50.3125 4.234375 
Q 43.84375 -1.421875 31.78125 -1.421875 
Q 19.734375 -1.421875 13.25 4.234375 
Q 6.78125 9.90625 6.78125 20.515625 
Q 6.78125 27.484375 10.78125 32.3125 
Q 14.796875 37.15625 21.921875 38.8125 
z
M 18.3125 54.390625 
Q 18.3125 48.734375 21.84375 45.5625 
Q 25.390625 42.390625 31.78125 42.390625 
Q 38.140625 42.390625 41.71875 45.5625 
Q 45.3125 48.734375 45.3125 54.390625 
Q 45.3125 60.0625 41.71875 63.234375 
Q 38.140625 66.40625 31.78125 66.40625 
Q 25.390625 66.40625 21.84375 63.234375 
Q 18.3125 60.0625 18.3125 54.390625 
z
" id="DejaVuSans-56"/>
       </defs>
       <use xlink:href="#DejaVuSans-56"/>
       <use x="63.623047" xlink:href="#DejaVuSans-48"/>
      </g>
     </g>
    </g>
    <g id="xtick_5">
     <g id="line2d_5">
      <g>
       <use style="stroke:#000000;stroke-width:0.8;" x="309.221143" xlink:href="#m8b62fa699d" y="307.584"/>
      </g>
     </g>
     <g id="text_5">
      <!-- 100 -->
      <g transform="translate(299.677393 322.182437)scale(0.1 -0.1)">
       <defs>
        <path d="M 12.40625 8.296875 
L 28.515625 8.296875 
L 28.515625 63.921875 
L 10.984375 60.40625 
L 10.984375 69.390625 
L 28.421875 72.90625 
L 38.28125 72.90625 
L 38.28125 8.296875 
L 54.390625 8.296875 
L 54.390625 0 
L 12.40625 0 
z
" id="DejaVuSans-49"/>
       </defs>
       <use xlink:href="#DejaVuSans-49"/>
       <use x="63.623047" xlink:href="#DejaVuSans-48"/>
       <use x="127.246094" xlink:href="#DejaVuSans-48"/>
      </g>
     </g>
    </g>
    <g id="xtick_6">
     <g id="line2d_6">
      <g>
       <use style="stroke:#000000;stroke-width:0.8;" x="360.120234" xlink:href="#m8b62fa699d" y="307.584"/>
      </g>
     </g>
     <g id="text_6">
      <!-- 120 -->
      <g transform="translate(350.576484 322.182437)scale(0.1 -0.1)">
       <use xlink:href="#DejaVuSans-49"/>
       <use x="63.623047" xlink:href="#DejaVuSans-50"/>
       <use x="127.246094" xlink:href="#DejaVuSans-48"/>
      </g>
     </g>
    </g>
    <g id="xtick_7">
     <g id="line2d_7">
      <g>
       <use style="stroke:#000000;stroke-width:0.8;" x="411.019325" xlink:href="#m8b62fa699d" y="307.584"/>
      </g>
     </g>
     <g id="text_7">
      <!-- 140 -->
      <g transform="translate(401.475575 322.182437)scale(0.1 -0.1)">
       <use xlink:href="#DejaVuSans-49"/>
       <use x="63.623047" xlink:href="#DejaVuSans-52"/>
       <use x="127.246094" xlink:href="#DejaVuSans-48"/>
      </g>
     </g>
    </g>
   </g>
   <g id="matplotlib.axis_2">
    <g id="ytick_1">
     <g id="line2d_8">
      <defs>
       <path d="M 0 0 
L -3.5 0 
" id="m6c7ad8794b" style="stroke:#000000;stroke-width:0.8;"/>
      </defs>
      <g>
       <use style="stroke:#000000;stroke-width:0.8;" x="57.6" xlink:href="#m6c7ad8794b" y="271.707804"/>
      </g>
     </g>
     <g id="text_8">
      <!-- 0 -->
      <g transform="translate(44.2375 275.507022)scale(0.1 -0.1)">
       <use xlink:href="#DejaVuSans-48"/>
      </g>
     </g>
    </g>
    <g id="ytick_2">
     <g id="line2d_9">
      <g>
       <use style="stroke:#000000;stroke-width:0.8;" x="57.6" xlink:href="#m6c7ad8794b" y="220.808712"/>
      </g>
     </g>
     <g id="text_9">
      <!-- 20 -->
      <g transform="translate(37.875 224.607931)scale(0.1 -0.1)">
       <use xlink:href="#DejaVuSans-50"/>
       <use x="63.623047" xlink:href="#DejaVuSans-48"/>
      </g>
     </g>
    </g>
    <g id="ytick_3">
     <g id="line2d_10">
      <g>
       <use style="stroke:#000000;stroke-width:0.8;" x="57.6" xlink:href="#m6c7ad8794b" y="169.909621"/>
      </g>
     </g>
     <g id="text_10">
      <!-- 40 -->
      <g transform="translate(37.875 173.70884)scale(0.1 -0.1)">
       <use xlink:href="#DejaVuSans-52"/>
       <use x="63.623047" xlink:href="#DejaVuSans-48"/>
      </g>
     </g>
    </g>
    <g id="ytick_4">
     <g id="line2d_11">
      <g>
       <use style="stroke:#000000;stroke-width:0.8;" x="57.6" xlink:href="#m6c7ad8794b" y="119.01053"/>
      </g>
     </g>
     <g id="text_11">
      <!-- 60 -->
      <g transform="translate(37.875 122.809749)scale(0.1 -0.1)">
       <use xlink:href="#DejaVuSans-54"/>
       <use x="63.623047" xlink:href="#DejaVuSans-48"/>
      </g>
     </g>
    </g>
    <g id="ytick_5">
     <g id="line2d_12">
      <g>
       <use style="stroke:#000000;stroke-width:0.8;" x="57.6" xlink:href="#m6c7ad8794b" y="68.111439"/>
      </g>
     </g>
     <g id="text_12">
      <!-- 80 -->
      <g transform="translate(37.875 71.910658)scale(0.1 -0.1)">
       <use xlink:href="#DejaVuSans-56"/>
       <use x="63.623047" xlink:href="#DejaVuSans-48"/>
      </g>
     </g>
    </g>
   </g>
   <g id="line2d_13">
    <path clip-path="url(#pe8e522ff7a)" d="M 377.886562 246.258258 
L 377.629521 236.124249 
L 377.649881 228.471571 
L 377.906921 220.808712 
L 378.454087 213.163669 
L 379.008887 208.09412 
L 379.731654 203.052565 
L 380.637658 198.051729 
L 381.739623 193.096702 
L 384.312572 183.270633 
L 386.172934 175.859725 
L 387.188371 170.84362 
L 387.916228 165.743531 
L 388.282701 160.602723 
L 388.31324 158.029773 
L 388.226712 155.464459 
L 388.015481 152.91187 
L 387.677002 150.37964 
L 387.196005 147.875405 
L 386.569947 145.401709 
L 385.791191 142.966187 
L 384.864827 140.576475 
L 383.793401 138.240207 
L 382.584548 135.965017 
L 381.245902 133.755997 
L 379.780008 131.623325 
L 378.199591 129.574637 
L 376.504651 127.615022 
L 374.702823 125.75466 
L 372.799197 123.998641 
L 370.803953 122.3546 
L 368.72218 120.825083 
L 366.558969 119.417723 
L 364.321954 118.129976 
L 362.021315 116.972022 
L 359.659597 115.941315 
L 357.244435 115.042946 
L 354.786009 114.282005 
L 352.291954 113.661036 
L 349.762269 113.182584 
L 347.212224 112.849195 
L 344.644365 112.660869 
L 342.068871 112.612514 
L 339.493377 112.699043 
L 336.925518 112.922999 
L 334.370384 113.276748 
L 331.840699 113.757744 
L 329.341553 114.363443 
L 326.878037 115.093845 
L 324.462876 115.941315 
L 322.101158 116.903308 
L 317.525329 119.135233 
L 313.122558 121.713272 
L 308.869939 124.558531 
L 304.739478 127.589572 
L 298.71048 132.325732 
L 290.8822 138.825546 
L 271.456562 155.268498 
L 265.422475 159.943579 
L 261.289469 162.905906 
L 257.062299 165.733351 
L 250.57521 169.759469 
L 243.943058 173.571811 
L 223.881182 184.693262 
L 219.605658 187.421454 
L 215.465017 190.340517 
L 209.433475 194.995238 
L 195.415865 206.124325 
L 191.254864 209.109556 
L 186.974251 211.896282 
L 182.556209 214.418332 
L 177.982926 216.617172 
L 173.239131 218.43936 
L 168.352818 219.905254 
L 163.362162 221.040303 
L 158.302792 221.877593 
L 153.210338 222.447663 
L 148.117884 222.778507 
L 143.027975 222.89303 
L 137.940611 222.816682 
L 132.850702 222.574911 
L 125.215838 221.953942 
L 120.133564 221.371147 
L 115.079284 220.617841 
L 110.073359 219.655848 
L 105.138692 218.452085 
L 100.293098 216.970921 
L 95.559483 215.176728 
L 90.96075 213.031331 
L 86.512169 210.504191 
L 84.354048 209.084107 
L 82.239191 207.554589 
L 80.175233 205.910549 
L 80.175233 205.910549 
" style="fill:none;stroke:#fea952;stroke-linecap:square;"/>
   </g>
   <g id="line2d_14">
    <path clip-path="url(#pe8e522ff7a)" d="M 367.713086 246.617563 
L 367.449886 236.185266 
L 367.472506 228.24856 
L 367.744081 220.221031 
L 368.094524 214.846448 
L 368.600965 209.437516 
L 369.284163 204.03308 
L 370.161687 198.627893 
L 371.249658 193.260185 
L 372.508484 188.054078 
L 376.222357 173.711535 
L 377.135089 169.243548 
L 377.778463 164.819176 
L 378.1036 160.481902 
L 378.081571 156.303987 
L 377.67992 152.299811 
L 376.873736 148.502065 
L 376.299574 146.645579 
L 375.611667 144.820027 
L 374.803704 143.016612 
L 373.87852 141.24079 
L 372.856721 139.522308 
L 370.500219 136.234094 
L 369.192315 134.697284 
L 367.800549 133.237126 
L 366.325706 131.855015 
L 363.17077 129.357992 
L 359.745276 127.22298 
L 356.110578 125.482445 
L 354.234429 124.767583 
L 350.400135 123.663522 
L 348.442605 123.276503 
L 346.467637 123.001746 
L 344.453276 122.838893 
L 340.377853 122.840364 
L 336.271915 123.277392 
L 332.235237 124.123325 
L 328.303044 125.36903 
L 324.441903 127.025805 
L 320.591719 129.085875 
L 316.747296 131.496209 
L 312.888889 134.206095 
L 307.066174 138.676177 
L 301.306422 143.36225 
L 291.719825 151.505736 
L 279.851395 161.564886 
L 273.584027 166.53823 
L 269.234428 169.759982 
L 264.7799 172.842165 
L 258.016591 177.157543 
L 251.153297 181.197429 
L 242.027251 186.205495 
L 233.340867 190.947587 
L 229.263616 193.333754 
L 225.386272 195.800786 
L 221.581073 198.478241 
L 215.811347 202.929433 
L 203.602168 212.696545 
L 199.200005 215.969159 
L 194.573419 219.134279 
L 189.686933 222.115003 
L 184.518249 224.824271 
L 181.81985 226.046208 
L 179.093912 227.146934 
L 173.56092 229.016998 
L 167.962523 230.475707 
L 162.353576 231.562151 
L 156.759745 232.326107 
L 151.211749 232.806088 
L 145.705256 233.038904 
L 140.238531 233.054642 
L 134.836611 232.87934 
L 126.80809 232.328307 
L 121.438197 231.78623 
L 116.008454 231.071822 
L 110.536395 230.139473 
L 105.056183 228.943382 
L 99.573156 227.436354 
L 94.135624 225.569656 
L 88.760438 223.290596 
L 86.118162 221.985551 
L 83.505382 220.562508 
L 80.916437 219.008101 
L 78.388426 217.332746 
L 75.896685 215.517084 
L 73.832727 213.873043 
L 73.832727 213.873043 
" style="fill:none;stroke:#ffffff;stroke-linecap:square;"/>
   </g>
   <g id="line2d_15">
    <path clip-path="url(#pe8e522ff7a)" d="M 388.060037 245.898953 
L 387.809157 236.063232 
L 387.827256 228.694581 
L 388.069762 221.396394 
L 388.582068 214.189673 
L 389.098427 209.44685 
L 389.76656 204.764102 
L 390.595966 200.163788 
L 391.614896 195.568074 
L 393.490376 188.355815 
L 395.49065 180.687921 
L 396.71505 175.251867 
L 397.692517 169.577465 
L 398.316743 163.698571 
L 398.461802 160.723543 
L 398.487273 157.686602 
L 398.371853 154.624931 
L 398.105557 151.563146 
L 397.674083 148.459469 
L 397.064671 145.377779 
L 396.266157 142.301353 
L 395.282807 139.286796 
L 394.117987 136.332924 
L 392.783098 133.463802 
L 391.290576 130.689245 
L 389.635083 127.989686 
L 387.840207 125.405457 
L 385.898963 122.91518 
L 383.816987 120.532759 
L 381.605098 118.272194 
L 379.272689 116.142267 
L 376.831317 114.150968 
L 374.273591 112.292173 
L 371.637651 110.595269 
L 368.898632 109.036972 
L 366.093137 107.642018 
L 363.208616 106.400185 
L 360.254442 105.318309 
L 357.24549 104.403763 
L 354.183772 103.65855 
L 351.081933 103.088666 
L 347.956812 102.696644 
L 344.835455 102.482844 
L 341.727054 102.438437 
L 338.608901 102.557721 
L 335.529476 102.83936 
L 332.468853 103.276104 
L 329.44291 103.864347 
L 326.447869 104.603561 
L 323.507467 105.488224 
L 320.622707 106.5136 
L 317.831354 107.662232 
L 315.133685 108.918572 
L 310.01545 111.688826 
L 305.212116 114.719605 
L 300.692533 117.903834 
L 294.340186 122.783914 
L 288.240449 127.74831 
L 278.454853 136.0605 
L 267.016588 145.760377 
L 261.32267 150.284803 
L 257.502965 153.120043 
L 253.594772 155.830177 
L 247.490791 159.729912 
L 241.1814 163.447047 
L 232.406236 168.262506 
L 223.19141 173.29813 
L 218.498747 176.05277 
L 213.825044 179.042122 
L 209.348961 182.202792 
L 203.055603 187.061044 
L 189.398959 197.913019 
L 185.591762 200.650362 
L 181.786228 203.137679 
L 177.962872 205.333732 
L 174.146002 207.188137 
L 170.139151 208.743029 
L 165.931553 210.017576 
L 161.554473 211.022272 
L 157.040141 211.776385 
L 152.439663 212.297059 
L 147.792297 212.603897 
L 143.089053 212.713395 
L 138.347478 212.644997 
L 131.127621 212.252722 
L 123.90866 211.577034 
L 119.194215 210.962975 
L 114.603524 210.190205 
L 110.138053 209.228175 
L 105.833184 208.063 
L 101.686418 206.661977 
L 97.726711 205.011626 
L 93.926818 203.072268 
L 90.31967 200.835468 
L 88.581696 199.592094 
L 86.517738 197.948054 
L 86.517738 197.948054 
" style="fill:none;stroke:#ffffff;stroke-linecap:square;"/>
   </g>
   <g id="patch_3">
    <path d="M 57.6 307.584 
L 57.6 41.472 
" style="fill:none;stroke:#000000;stroke-linecap:square;stroke-linejoin:miter;stroke-width:0.8;"/>
   </g>
   <g id="patch_4">
    <path d="M 414.72 307.584 
L 414.72 41.472 
" style="fill:none;stroke:#000000;stroke-linecap:square;stroke-linejoin:miter;stroke-width:0.8;"/>
   </g>
   <g id="patch_5">
    <path d="M 57.6 307.584 
L 414.72 307.584 
" style="fill:none;stroke:#000000;stroke-linecap:square;stroke-linejoin:miter;stroke-width:0.8;"/>
   </g>
   <g id="patch_6">
    <path d="M 57.6 41.472 
L 414.72 41.472 
" style="fill:none;stroke:#000000;stroke-linecap:square;stroke-linejoin:miter;stroke-width:0.8;"/>
   </g>
  </g>
 </g>
 <defs>
  <clipPath id="pe8e522ff7a">
   <rect height="266.112" width="357.12" x="57.6" y="41.472"/>
  </clipPath>
 </defs>
</svg>
