<?xml version="1.0" encoding="utf-8" standalone="no"?>
<!DOCTYPE svg PUBLIC "-//W3C//DTD SVG 1.1//EN"
  "http://www.w3.org/Graphics/SVG/1.1/DTD/svg11.dtd">
<!-- Created with matplotlib (https://matplotlib.org/) -->
<svg height="345.6pt" version="1.1" viewBox="0 0 460.8 345.6" width="460.8pt" xmlns="http://www.w3.org/2000/svg" xmlns:xlink="http://www.w3.org/1999/xlink">
 <metadata>
  <rdf:RDF xmlns:cc="http://creativecommons.org/ns#" xmlns:dc="http://purl.org/dc/elements/1.1/" xmlns:rdf="http://www.w3.org/1999/02/22-rdf-syntax-ns#">
   <cc:Work>
    <dc:type rdf:resource="http://purl.org/dc/dcmitype/StillImage"/>
    <dc:date>2021-01-23T13:35:26.382303</dc:date>
    <dc:format>image/svg+xml</dc:format>
    <dc:creator>
     <cc:Agent>
      <dc:title>Matplotlib v3.3.3, https://matplotlib.org/</dc:title>
     </cc:Agent>
    </dc:creator>
   </cc:Work>
  </rdf:RDF>
 </metadata>
 <defs>
  <style type="text/css">*{stroke-linecap:butt;stroke-linejoin:round;}</style>
 </defs>
 <g id="figure_1">
  <g id="patch_1">
   <path d="M 0 345.6 
L 460.8 345.6 
L 460.8 0 
L 0 0 
z
" style="fill:#ffffff;"/>
  </g>
  <g id="axes_1">
   <g id="patch_2">
    <path d="M 57.6 307.584 
L 414.72 307.584 
L 414.72 41.472 
L 57.6 41.472 
z
" style="fill:#7d9051;"/>
   </g>
   <g id="matplotlib.axis_1">
    <g id="xtick_1">
     <g id="line2d_1">
      <defs>
       <path d="M 0 0 
L 0 3.5 
" id="mb563fb4b30" style="stroke:#000000;stroke-width:0.8;"/>
      </defs>
      <g>
       <use style="stroke:#000000;stroke-width:0.8;" x="58.956141" xlink:href="#mb563fb4b30" y="307.584"/>
      </g>
     </g>
     <g id="text_1">
      <!-- 0 -->
      <g transform="translate(55.774891 322.182437)scale(0.1 -0.1)">
       <defs>
        <path d="M 31.78125 66.40625 
Q 24.171875 66.40625 20.328125 58.90625 
Q 16.5 51.421875 16.5 36.375 
Q 16.5 21.390625 20.328125 13.890625 
Q 24.171875 6.390625 31.78125 6.390625 
Q 39.453125 6.390625 43.28125 13.890625 
Q 47.125 21.390625 47.125 36.375 
Q 47.125 51.421875 43.28125 58.90625 
Q 39.453125 66.40625 31.78125 66.40625 
z
M 31.78125 74.21875 
Q 44.046875 74.21875 50.515625 64.515625 
Q 56.984375 54.828125 56.984375 36.375 
Q 56.984375 17.96875 50.515625 8.265625 
Q 44.046875 -1.421875 31.78125 -1.421875 
Q 19.53125 -1.421875 13.0625 8.265625 
Q 6.59375 17.96875 6.59375 36.375 
Q 6.59375 54.828125 13.0625 64.515625 
Q 19.53125 74.21875 31.78125 74.21875 
z
" id="DejaVuSans-48"/>
       </defs>
       <use xlink:href="#DejaVuSans-48"/>
      </g>
     </g>
    </g>
    <g id="xtick_2">
     <g id="line2d_2">
      <g>
       <use style="stroke:#000000;stroke-width:0.8;" x="109.138436" xlink:href="#mb563fb4b30" y="307.584"/>
      </g>
     </g>
     <g id="text_2">
      <!-- 20 -->
      <g transform="translate(102.775936 322.182437)scale(0.1 -0.1)">
       <defs>
        <path d="M 19.1875 8.296875 
L 53.609375 8.296875 
L 53.609375 0 
L 7.328125 0 
L 7.328125 8.296875 
Q 12.9375 14.109375 22.625 23.890625 
Q 32.328125 33.6875 34.8125 36.53125 
Q 39.546875 41.84375 41.421875 45.53125 
Q 43.3125 49.21875 43.3125 52.78125 
Q 43.3125 58.59375 39.234375 62.25 
Q 35.15625 65.921875 28.609375 65.921875 
Q 23.96875 65.921875 18.8125 64.3125 
Q 13.671875 62.703125 7.8125 59.421875 
L 7.8125 69.390625 
Q 13.765625 71.78125 18.9375 73 
Q 24.125 74.21875 28.421875 74.21875 
Q 39.75 74.21875 46.484375 68.546875 
Q 53.21875 62.890625 53.21875 53.421875 
Q 53.21875 48.921875 51.53125 44.890625 
Q 49.859375 40.875 45.40625 35.40625 
Q 44.1875 33.984375 37.640625 27.21875 
Q 31.109375 20.453125 19.1875 8.296875 
z
" id="DejaVuSans-50"/>
       </defs>
       <use xlink:href="#DejaVuSans-50"/>
       <use x="63.623047" xlink:href="#DejaVuSans-48"/>
      </g>
     </g>
    </g>
    <g id="xtick_3">
     <g id="line2d_3">
      <g>
       <use style="stroke:#000000;stroke-width:0.8;" x="159.32073" xlink:href="#mb563fb4b30" y="307.584"/>
      </g>
     </g>
     <g id="text_3">
      <!-- 40 -->
      <g transform="translate(152.95823 322.182437)scale(0.1 -0.1)">
       <defs>
        <path d="M 37.796875 64.3125 
L 12.890625 25.390625 
L 37.796875 25.390625 
z
M 35.203125 72.90625 
L 47.609375 72.90625 
L 47.609375 25.390625 
L 58.015625 25.390625 
L 58.015625 17.1875 
L 47.609375 17.1875 
L 47.609375 0 
L 37.796875 0 
L 37.796875 17.1875 
L 4.890625 17.1875 
L 4.890625 26.703125 
z
" id="DejaVuSans-52"/>
       </defs>
       <use xlink:href="#DejaVuSans-52"/>
       <use x="63.623047" xlink:href="#DejaVuSans-48"/>
      </g>
     </g>
    </g>
    <g id="xtick_4">
     <g id="line2d_4">
      <g>
       <use style="stroke:#000000;stroke-width:0.8;" x="209.503025" xlink:href="#mb563fb4b30" y="307.584"/>
      </g>
     </g>
     <g id="text_4">
      <!-- 60 -->
      <g transform="translate(203.140525 322.182437)scale(0.1 -0.1)">
       <defs>
        <path d="M 33.015625 40.375 
Q 26.375 40.375 22.484375 35.828125 
Q 18.609375 31.296875 18.609375 23.390625 
Q 18.609375 15.53125 22.484375 10.953125 
Q 26.375 6.390625 33.015625 6.390625 
Q 39.65625 6.390625 43.53125 10.953125 
Q 47.40625 15.53125 47.40625 23.390625 
Q 47.40625 31.296875 43.53125 35.828125 
Q 39.65625 40.375 33.015625 40.375 
z
M 52.59375 71.296875 
L 52.59375 62.3125 
Q 48.875 64.0625 45.09375 64.984375 
Q 41.3125 65.921875 37.59375 65.921875 
Q 27.828125 65.921875 22.671875 59.328125 
Q 17.53125 52.734375 16.796875 39.40625 
Q 19.671875 43.65625 24.015625 45.921875 
Q 28.375 48.1875 33.59375 48.1875 
Q 44.578125 48.1875 50.953125 41.515625 
Q 57.328125 34.859375 57.328125 23.390625 
Q 57.328125 12.15625 50.6875 5.359375 
Q 44.046875 -1.421875 33.015625 -1.421875 
Q 20.359375 -1.421875 13.671875 8.265625 
Q 6.984375 17.96875 6.984375 36.375 
Q 6.984375 53.65625 15.1875 63.9375 
Q 23.390625 74.21875 37.203125 74.21875 
Q 40.921875 74.21875 44.703125 73.484375 
Q 48.484375 72.75 52.59375 71.296875 
z
" id="DejaVuSans-54"/>
       </defs>
       <use xlink:href="#DejaVuSans-54"/>
       <use x="63.623047" xlink:href="#DejaVuSans-48"/>
      </g>
     </g>
    </g>
    <g id="xtick_5">
     <g id="line2d_5">
      <g>
       <use style="stroke:#000000;stroke-width:0.8;" x="259.68532" xlink:href="#mb563fb4b30" y="307.584"/>
      </g>
     </g>
     <g id="text_5">
      <!-- 80 -->
      <g transform="translate(253.32282 322.182437)scale(0.1 -0.1)">
       <defs>
        <path d="M 31.78125 34.625 
Q 24.75 34.625 20.71875 30.859375 
Q 16.703125 27.09375 16.703125 20.515625 
Q 16.703125 13.921875 20.71875 10.15625 
Q 24.75 6.390625 31.78125 6.390625 
Q 38.8125 6.390625 42.859375 10.171875 
Q 46.921875 13.96875 46.921875 20.515625 
Q 46.921875 27.09375 42.890625 30.859375 
Q 38.875 34.625 31.78125 34.625 
z
M 21.921875 38.8125 
Q 15.578125 40.375 12.03125 44.71875 
Q 8.5 49.078125 8.5 55.328125 
Q 8.5 64.0625 14.71875 69.140625 
Q 20.953125 74.21875 31.78125 74.21875 
Q 42.671875 74.21875 48.875 69.140625 
Q 55.078125 64.0625 55.078125 55.328125 
Q 55.078125 49.078125 51.53125 44.71875 
Q 48 40.375 41.703125 38.8125 
Q 48.828125 37.15625 52.796875 32.3125 
Q 56.78125 27.484375 56.78125 20.515625 
Q 56.78125 9.90625 50.3125 4.234375 
Q 43.84375 -1.421875 31.78125 -1.421875 
Q 19.734375 -1.421875 13.25 4.234375 
Q 6.78125 9.90625 6.78125 20.515625 
Q 6.78125 27.484375 10.78125 32.3125 
Q 14.796875 37.15625 21.921875 38.8125 
z
M 18.3125 54.390625 
Q 18.3125 48.734375 21.84375 45.5625 
Q 25.390625 42.390625 31.78125 42.390625 
Q 38.140625 42.390625 41.71875 45.5625 
Q 45.3125 48.734375 45.3125 54.390625 
Q 45.3125 60.0625 41.71875 63.234375 
Q 38.140625 66.40625 31.78125 66.40625 
Q 25.390625 66.40625 21.84375 63.234375 
Q 18.3125 60.0625 18.3125 54.390625 
z
" id="DejaVuSans-56"/>
       </defs>
       <use xlink:href="#DejaVuSans-56"/>
       <use x="63.623047" xlink:href="#DejaVuSans-48"/>
      </g>
     </g>
    </g>
    <g id="xtick_6">
     <g id="line2d_6">
      <g>
       <use style="stroke:#000000;stroke-width:0.8;" x="309.867615" xlink:href="#mb563fb4b30" y="307.584"/>
      </g>
     </g>
     <g id="text_6">
      <!-- 100 -->
      <g transform="translate(300.323865 322.182437)scale(0.1 -0.1)">
       <defs>
        <path d="M 12.40625 8.296875 
L 28.515625 8.296875 
L 28.515625 63.921875 
L 10.984375 60.40625 
L 10.984375 69.390625 
L 28.421875 72.90625 
L 38.28125 72.90625 
L 38.28125 8.296875 
L 54.390625 8.296875 
L 54.390625 0 
L 12.40625 0 
z
" id="DejaVuSans-49"/>
       </defs>
       <use xlink:href="#DejaVuSans-49"/>
       <use x="63.623047" xlink:href="#DejaVuSans-48"/>
       <use x="127.246094" xlink:href="#DejaVuSans-48"/>
      </g>
     </g>
    </g>
    <g id="xtick_7">
     <g id="line2d_7">
      <g>
       <use style="stroke:#000000;stroke-width:0.8;" x="360.04991" xlink:href="#mb563fb4b30" y="307.584"/>
      </g>
     </g>
     <g id="text_7">
      <!-- 120 -->
      <g transform="translate(350.50616 322.182437)scale(0.1 -0.1)">
       <use xlink:href="#DejaVuSans-49"/>
       <use x="63.623047" xlink:href="#DejaVuSans-50"/>
       <use x="127.246094" xlink:href="#DejaVuSans-48"/>
      </g>
     </g>
    </g>
    <g id="xtick_8">
     <g id="line2d_8">
      <g>
       <use style="stroke:#000000;stroke-width:0.8;" x="410.232205" xlink:href="#mb563fb4b30" y="307.584"/>
      </g>
     </g>
     <g id="text_8">
      <!-- 140 -->
      <g transform="translate(400.688455 322.182437)scale(0.1 -0.1)">
       <use xlink:href="#DejaVuSans-49"/>
       <use x="63.623047" xlink:href="#DejaVuSans-52"/>
       <use x="127.246094" xlink:href="#DejaVuSans-48"/>
      </g>
     </g>
    </g>
   </g>
   <g id="matplotlib.axis_2">
    <g id="ytick_1">
     <g id="line2d_9">
      <defs>
       <path d="M 0 0 
L -3.5 0 
" id="mf73c0abf9a" style="stroke:#000000;stroke-width:0.8;"/>
      </defs>
      <g>
       <use style="stroke:#000000;stroke-width:0.8;" x="57.6" xlink:href="#mf73c0abf9a" y="265.803256"/>
      </g>
     </g>
     <g id="text_9">
      <!-- 0 -->
      <g transform="translate(44.2375 269.602474)scale(0.1 -0.1)">
       <use xlink:href="#DejaVuSans-48"/>
      </g>
     </g>
    </g>
    <g id="ytick_2">
     <g id="line2d_10">
      <g>
       <use style="stroke:#000000;stroke-width:0.8;" x="57.6" xlink:href="#mf73c0abf9a" y="215.620961"/>
      </g>
     </g>
     <g id="text_10">
      <!-- 20 -->
      <g transform="translate(37.875 219.42018)scale(0.1 -0.1)">
       <use xlink:href="#DejaVuSans-50"/>
       <use x="63.623047" xlink:href="#DejaVuSans-48"/>
      </g>
     </g>
    </g>
    <g id="ytick_3">
     <g id="line2d_11">
      <g>
       <use style="stroke:#000000;stroke-width:0.8;" x="57.6" xlink:href="#mf73c0abf9a" y="165.438666"/>
      </g>
     </g>
     <g id="text_11">
      <!-- 40 -->
      <g transform="translate(37.875 169.237885)scale(0.1 -0.1)">
       <use xlink:href="#DejaVuSans-52"/>
       <use x="63.623047" xlink:href="#DejaVuSans-48"/>
      </g>
     </g>
    </g>
    <g id="ytick_4">
     <g id="line2d_12">
      <g>
       <use style="stroke:#000000;stroke-width:0.8;" x="57.6" xlink:href="#mf73c0abf9a" y="115.256371"/>
      </g>
     </g>
     <g id="text_12">
      <!-- 60 -->
      <g transform="translate(37.875 119.05559)scale(0.1 -0.1)">
       <use xlink:href="#DejaVuSans-54"/>
       <use x="63.623047" xlink:href="#DejaVuSans-48"/>
      </g>
     </g>
    </g>
    <g id="ytick_5">
     <g id="line2d_13">
      <g>
       <use style="stroke:#000000;stroke-width:0.8;" x="57.6" xlink:href="#mf73c0abf9a" y="65.074076"/>
      </g>
     </g>
     <g id="text_13">
      <!-- 80 -->
      <g transform="translate(37.875 68.873295)scale(0.1 -0.1)">
       <use xlink:href="#DejaVuSans-56"/>
       <use x="63.623047" xlink:href="#DejaVuSans-48"/>
      </g>
     </g>
    </g>
   </g>
   <g id="line2d_14">
    <path clip-path="url(#pc9afadd963)" d="M 84.047288 240.712108 
L 83.879178 230.663104 
L 83.936887 220.631663 
L 84.273109 210.612768 
L 84.734786 203.105496 
L 85.399701 195.603243 
L 86.287928 188.103499 
L 87.040662 183.115379 
L 87.976562 178.167405 
L 89.145809 173.27965 
L 90.601096 168.479713 
L 92.392604 163.787668 
L 94.537897 159.231116 
L 97.016902 154.835147 
L 99.809547 150.624853 
L 102.895758 146.625324 
L 106.257972 142.861652 
L 109.871097 139.348891 
L 113.710043 136.084533 
L 117.744699 133.068577 
L 121.954994 130.301023 
L 126.308308 127.784381 
L 130.792096 125.51865 
L 135.398831 123.513868 
L 140.123494 121.77756 
L 144.958558 120.322274 
L 149.896495 119.155535 
L 154.914725 118.309964 
L 159.970591 117.840759 
L 162.49727 117.767995 
L 165.01893 117.808141 
L 167.528045 117.971233 
L 170.017087 118.262291 
L 172.486056 118.691349 
L 174.927424 119.263427 
L 177.336174 119.968489 
L 179.709797 120.801515 
L 182.048292 121.752469 
L 186.602335 123.978054 
L 190.973213 126.577497 
L 195.140852 129.480543 
L 199.08769 132.626972 
L 202.831289 135.984168 
L 206.396741 139.52202 
L 209.804119 143.210418 
L 213.078514 147.021764 
L 216.239998 150.933474 
L 219.281045 154.938021 
L 222.189109 159.035405 
L 224.951645 163.228136 
L 227.556106 167.516213 
L 231.184286 174.107657 
L 239.353963 189.66166 
L 241.883151 193.99741 
L 244.570413 198.240323 
L 247.428295 202.372835 
L 250.469342 206.379891 
L 253.703591 210.243928 
L 257.148605 213.942363 
L 260.811913 217.422505 
L 264.708568 220.629154 
L 268.846098 223.504599 
L 271.011464 224.799302 
L 273.239558 225.988623 
L 275.532889 227.065033 
L 277.886438 228.028533 
L 280.287661 228.874105 
L 282.72903 229.59673 
L 285.205526 230.196408 
L 287.704604 230.668122 
L 290.221247 231.009361 
L 292.742907 231.217618 
L 295.267076 231.290382 
L 297.7787 231.222636 
L 300.277778 231.01438 
L 302.756784 230.678158 
L 307.66963 229.666985 
L 312.51724 228.289481 
L 317.309649 226.64852 
L 324.397898 223.916094 
L 336.085355 219.304341 
L 340.799981 217.625743 
L 345.577336 216.13282 
L 350.437491 214.878263 
L 355.37292 213.887162 
L 360.363549 213.169556 
L 365.384288 212.743006 
L 370.420081 212.62006 
L 375.450856 212.81577 
L 380.454031 213.345194 
L 385.414551 214.218366 
L 390.307324 215.45285 
L 395.114788 217.063702 
L 395.114788 217.063702 
" style="fill:none;stroke:#fea952;stroke-linecap:square;"/>
   </g>
   <g id="line2d_15">
    <path clip-path="url(#pc9afadd963)" d="M 74.013707 240.952433 
L 73.842799 230.703249 
L 73.903087 220.400655 
L 74.250246 210.090534 
L 74.729687 202.312715 
L 75.420548 194.532261 
L 76.352141 186.685528 
L 77.159754 181.355218 
L 78.18527 175.962611 
L 79.493999 170.527729 
L 81.158686 165.078037 
L 83.237335 159.675302 
L 85.70718 154.461531 
L 88.552814 149.441659 
L 91.752978 144.639688 
L 95.294555 140.07153 
L 99.141161 135.784823 
L 103.243662 131.811808 
L 107.575266 128.141295 
L 112.10848 124.764148 
L 116.810426 121.683371 
L 121.652443 118.893181 
L 126.651824 116.375967 
L 131.795952 114.146383 
L 137.087822 112.211202 
L 142.503315 110.590764 
L 148.055854 109.289303 
L 153.795513 108.336104 
L 156.706577 108.016911 
L 159.681677 107.80846 
L 162.657034 107.732808 
L 165.669926 107.792817 
L 168.69372 108.002697 
L 171.735473 108.374032 
L 174.775842 108.919584 
L 177.746878 109.631128 
L 180.659748 110.498306 
L 183.4905 111.504376 
L 186.264238 112.644434 
L 188.941953 113.893687 
L 191.567931 115.256049 
L 196.570122 118.246523 
L 201.278471 121.539501 
L 205.688244 125.066338 
L 209.817033 128.777928 
L 213.701165 132.639005 
L 217.361048 136.605622 
L 220.836929 140.654857 
L 224.185442 144.801555 
L 227.419508 149.064697 
L 230.521391 153.440444 
L 233.481658 157.939528 
L 236.281293 162.55621 
L 240.079413 169.459301 
L 248.06805 184.682182 
L 250.411459 188.706051 
L 252.885633 192.620036 
L 255.494583 196.400775 
L 258.245598 200.034787 
L 261.140786 203.504593 
L 264.180418 206.78107 
L 267.333693 209.793817 
L 270.6147 212.514469 
L 273.996597 214.89049 
L 277.503955 216.903171 
L 281.220046 218.561878 
L 285.091074 219.842179 
L 289.05314 220.722673 
L 293.032108 221.185327 
L 296.945218 221.220846 
L 300.937531 220.807959 
L 305.078005 219.970904 
L 309.373296 218.758158 
L 313.795406 217.247424 
L 320.663566 214.600233 
L 332.644157 209.876263 
L 337.698762 208.080433 
L 342.935719 206.45024 
L 348.327048 205.066202 
L 353.804016 203.974088 
L 359.363894 203.183005 
L 364.984348 202.714519 
L 370.650169 202.586238 
L 376.341468 202.818905 
L 382.014719 203.430822 
L 387.691028 204.443492 
L 393.310574 205.876264 
L 398.487273 207.610826 
L 398.487273 207.610826 
" style="fill:none;stroke:#ffffff;stroke-linecap:square;"/>
   </g>
   <g id="line2d_16">
    <path clip-path="url(#pc9afadd963)" d="M 94.080869 240.471783 
L 93.915556 230.622958 
L 93.970687 220.862671 
L 94.295971 211.135001 
L 94.739885 203.898278 
L 95.378855 196.674226 
L 96.223715 189.521471 
L 96.92157 184.875541 
L 97.767853 180.372199 
L 98.79762 176.03157 
L 100.043506 171.881389 
L 101.547873 167.900035 
L 103.368614 164.000701 
L 105.480991 160.228636 
L 107.866117 156.610017 
L 110.496962 153.179117 
L 113.374783 149.938481 
L 116.498532 146.885974 
L 119.84482 144.02777 
L 123.380918 141.373006 
L 127.099562 138.918675 
L 130.964173 136.675581 
L 134.932368 134.661334 
L 139.001709 132.881353 
L 143.159165 131.343919 
L 147.413801 130.053784 
L 151.737137 129.021768 
L 156.033937 128.283823 
L 160.259505 127.873059 
L 164.367934 127.823465 
L 168.2987 128.150549 
L 170.196269 128.463114 
L 174.012601 129.438672 
L 177.832345 130.860504 
L 181.636739 132.700059 
L 185.376304 134.908471 
L 189.003234 137.421585 
L 192.487136 140.187607 
L 195.845546 143.190408 
L 199.092317 146.405035 
L 202.24719 149.815215 
L 205.320098 153.38867 
L 209.735609 158.930649 
L 212.521201 162.71951 
L 215.160462 166.569054 
L 217.648325 170.492075 
L 219.998113 174.527222 
L 223.423973 180.927236 
L 229.353045 192.309674 
L 231.974646 196.973763 
L 234.77923 201.581241 
L 237.784681 206.119404 
L 241.001426 210.554462 
L 244.444807 214.866866 
L 248.150232 219.056546 
L 252.161298 223.103516 
L 256.500703 226.9317 
L 258.802436 228.743839 
L 261.199516 230.476691 
L 263.695599 232.118708 
L 266.28532 233.653345 
L 268.975161 235.074074 
L 271.730442 236.3533 
L 274.55283 237.495189 
L 277.439115 238.497841 
L 280.366986 239.35128 
L 283.343966 240.058715 
L 286.356069 240.613571 
L 289.395177 241.011767 
L 292.453706 241.249909 
L 295.537691 241.323192 
L 298.612183 241.224427 
L 301.626649 240.959784 
L 304.576036 240.548357 
L 307.446759 240.010495 
L 312.994987 238.627282 
L 318.27897 236.954632 
L 323.306651 235.120839 
L 335.062994 230.455811 
L 341.727723 227.927662 
L 346.064422 226.465567 
L 350.371324 225.224278 
L 354.740078 224.214978 
L 359.149825 223.446719 
L 363.5696 222.930701 
L 367.990894 222.678697 
L 372.386648 222.699143 
L 376.736008 223.000937 
L 381.022234 223.588038 
L 385.237803 224.475325 
L 389.351117 225.663478 
L 391.742304 226.516577 
L 391.742304 226.516577 
" style="fill:none;stroke:#ffffff;stroke-linecap:square;"/>
   </g>
   <g id="patch_3">
    <path d="M 57.6 307.584 
L 57.6 41.472 
" style="fill:none;stroke:#000000;stroke-linecap:square;stroke-linejoin:miter;stroke-width:0.8;"/>
   </g>
   <g id="patch_4">
    <path d="M 414.72 307.584 
L 414.72 41.472 
" style="fill:none;stroke:#000000;stroke-linecap:square;stroke-linejoin:miter;stroke-width:0.8;"/>
   </g>
   <g id="patch_5">
    <path d="M 57.6 307.584 
L 414.72 307.584 
" style="fill:none;stroke:#000000;stroke-linecap:square;stroke-linejoin:miter;stroke-width:0.8;"/>
   </g>
   <g id="patch_6">
    <path d="M 57.6 41.472 
L 414.72 41.472 
" style="fill:none;stroke:#000000;stroke-linecap:square;stroke-linejoin:miter;stroke-width:0.8;"/>
   </g>
  </g>
 </g>
 <defs>
  <clipPath id="pc9afadd963">
   <rect height="266.112" width="357.12" x="57.6" y="41.472"/>
  </clipPath>
 </defs>
</svg>
