<?xml version="1.0" encoding="utf-8" standalone="no"?>
<!DOCTYPE svg PUBLIC "-//W3C//DTD SVG 1.1//EN"
  "http://www.w3.org/Graphics/SVG/1.1/DTD/svg11.dtd">
<!-- Created with matplotlib (https://matplotlib.org/) -->
<svg height="345.6pt" version="1.1" viewBox="0 0 460.8 345.6" width="460.8pt" xmlns="http://www.w3.org/2000/svg" xmlns:xlink="http://www.w3.org/1999/xlink">
 <metadata>
  <rdf:RDF xmlns:cc="http://creativecommons.org/ns#" xmlns:dc="http://purl.org/dc/elements/1.1/" xmlns:rdf="http://www.w3.org/1999/02/22-rdf-syntax-ns#">
   <cc:Work>
    <dc:type rdf:resource="http://purl.org/dc/dcmitype/StillImage"/>
    <dc:date>2021-01-22T10:04:22.404163</dc:date>
    <dc:format>image/svg+xml</dc:format>
    <dc:creator>
     <cc:Agent>
      <dc:title>Matplotlib v3.3.3, https://matplotlib.org/</dc:title>
     </cc:Agent>
    </dc:creator>
   </cc:Work>
  </rdf:RDF>
 </metadata>
 <defs>
  <style type="text/css">*{stroke-linecap:butt;stroke-linejoin:round;}</style>
 </defs>
 <g id="figure_1">
  <g id="patch_1">
   <path d="M 0 345.6 
L 460.8 345.6 
L 460.8 0 
L 0 0 
z
" style="fill:#ffffff;"/>
  </g>
  <g id="axes_1">
   <g id="patch_2">
    <path d="M 57.6 307.584 
L 414.72 307.584 
L 414.72 41.472 
L 57.6 41.472 
z
" style="fill:#7d9051;"/>
   </g>
   <g id="matplotlib.axis_1">
    <g id="xtick_1">
     <g id="line2d_1">
      <defs>
       <path d="M 0 0 
L 0 3.5 
" id="ma6a1f30223" style="stroke:#000000;stroke-width:0.8;"/>
      </defs>
      <g>
       <use style="stroke:#000000;stroke-width:0.8;" x="77.0193" xlink:href="#ma6a1f30223" y="307.584"/>
      </g>
     </g>
     <g id="text_1">
      <!-- −20 -->
      <g transform="translate(66.466957 322.182437)scale(0.1 -0.1)">
       <defs>
        <path d="M 10.59375 35.5 
L 73.1875 35.5 
L 73.1875 27.203125 
L 10.59375 27.203125 
z
" id="DejaVuSans-8722"/>
        <path d="M 19.1875 8.296875 
L 53.609375 8.296875 
L 53.609375 0 
L 7.328125 0 
L 7.328125 8.296875 
Q 12.9375 14.109375 22.625 23.890625 
Q 32.328125 33.6875 34.8125 36.53125 
Q 39.546875 41.84375 41.421875 45.53125 
Q 43.3125 49.21875 43.3125 52.78125 
Q 43.3125 58.59375 39.234375 62.25 
Q 35.15625 65.921875 28.609375 65.921875 
Q 23.96875 65.921875 18.8125 64.3125 
Q 13.671875 62.703125 7.8125 59.421875 
L 7.8125 69.390625 
Q 13.765625 71.78125 18.9375 73 
Q 24.125 74.21875 28.421875 74.21875 
Q 39.75 74.21875 46.484375 68.546875 
Q 53.21875 62.890625 53.21875 53.421875 
Q 53.21875 48.921875 51.53125 44.890625 
Q 49.859375 40.875 45.40625 35.40625 
Q 44.1875 33.984375 37.640625 27.21875 
Q 31.109375 20.453125 19.1875 8.296875 
z
" id="DejaVuSans-50"/>
        <path d="M 31.78125 66.40625 
Q 24.171875 66.40625 20.328125 58.90625 
Q 16.5 51.421875 16.5 36.375 
Q 16.5 21.390625 20.328125 13.890625 
Q 24.171875 6.390625 31.78125 6.390625 
Q 39.453125 6.390625 43.28125 13.890625 
Q 47.125 21.390625 47.125 36.375 
Q 47.125 51.421875 43.28125 58.90625 
Q 39.453125 66.40625 31.78125 66.40625 
z
M 31.78125 74.21875 
Q 44.046875 74.21875 50.515625 64.515625 
Q 56.984375 54.828125 56.984375 36.375 
Q 56.984375 17.96875 50.515625 8.265625 
Q 44.046875 -1.421875 31.78125 -1.421875 
Q 19.53125 -1.421875 13.0625 8.265625 
Q 6.59375 17.96875 6.59375 36.375 
Q 6.59375 54.828125 13.0625 64.515625 
Q 19.53125 74.21875 31.78125 74.21875 
z
" id="DejaVuSans-48"/>
       </defs>
       <use xlink:href="#DejaVuSans-8722"/>
       <use x="83.789062" xlink:href="#DejaVuSans-50"/>
       <use x="147.412109" xlink:href="#DejaVuSans-48"/>
      </g>
     </g>
    </g>
    <g id="xtick_2">
     <g id="line2d_2">
      <g>
       <use style="stroke:#000000;stroke-width:0.8;" x="125.237594" xlink:href="#ma6a1f30223" y="307.584"/>
      </g>
     </g>
     <g id="text_2">
      <!-- 0 -->
      <g transform="translate(122.056344 322.182437)scale(0.1 -0.1)">
       <use xlink:href="#DejaVuSans-48"/>
      </g>
     </g>
    </g>
    <g id="xtick_3">
     <g id="line2d_3">
      <g>
       <use style="stroke:#000000;stroke-width:0.8;" x="173.455887" xlink:href="#ma6a1f30223" y="307.584"/>
      </g>
     </g>
     <g id="text_3">
      <!-- 20 -->
      <g transform="translate(167.093387 322.182437)scale(0.1 -0.1)">
       <use xlink:href="#DejaVuSans-50"/>
       <use x="63.623047" xlink:href="#DejaVuSans-48"/>
      </g>
     </g>
    </g>
    <g id="xtick_4">
     <g id="line2d_4">
      <g>
       <use style="stroke:#000000;stroke-width:0.8;" x="221.67418" xlink:href="#ma6a1f30223" y="307.584"/>
      </g>
     </g>
     <g id="text_4">
      <!-- 40 -->
      <g transform="translate(215.31168 322.182437)scale(0.1 -0.1)">
       <defs>
        <path d="M 37.796875 64.3125 
L 12.890625 25.390625 
L 37.796875 25.390625 
z
M 35.203125 72.90625 
L 47.609375 72.90625 
L 47.609375 25.390625 
L 58.015625 25.390625 
L 58.015625 17.1875 
L 47.609375 17.1875 
L 47.609375 0 
L 37.796875 0 
L 37.796875 17.1875 
L 4.890625 17.1875 
L 4.890625 26.703125 
z
" id="DejaVuSans-52"/>
       </defs>
       <use xlink:href="#DejaVuSans-52"/>
       <use x="63.623047" xlink:href="#DejaVuSans-48"/>
      </g>
     </g>
    </g>
    <g id="xtick_5">
     <g id="line2d_5">
      <g>
       <use style="stroke:#000000;stroke-width:0.8;" x="269.892473" xlink:href="#ma6a1f30223" y="307.584"/>
      </g>
     </g>
     <g id="text_5">
      <!-- 60 -->
      <g transform="translate(263.529973 322.182437)scale(0.1 -0.1)">
       <defs>
        <path d="M 33.015625 40.375 
Q 26.375 40.375 22.484375 35.828125 
Q 18.609375 31.296875 18.609375 23.390625 
Q 18.609375 15.53125 22.484375 10.953125 
Q 26.375 6.390625 33.015625 6.390625 
Q 39.65625 6.390625 43.53125 10.953125 
Q 47.40625 15.53125 47.40625 23.390625 
Q 47.40625 31.296875 43.53125 35.828125 
Q 39.65625 40.375 33.015625 40.375 
z
M 52.59375 71.296875 
L 52.59375 62.3125 
Q 48.875 64.0625 45.09375 64.984375 
Q 41.3125 65.921875 37.59375 65.921875 
Q 27.828125 65.921875 22.671875 59.328125 
Q 17.53125 52.734375 16.796875 39.40625 
Q 19.671875 43.65625 24.015625 45.921875 
Q 28.375 48.1875 33.59375 48.1875 
Q 44.578125 48.1875 50.953125 41.515625 
Q 57.328125 34.859375 57.328125 23.390625 
Q 57.328125 12.15625 50.6875 5.359375 
Q 44.046875 -1.421875 33.015625 -1.421875 
Q 20.359375 -1.421875 13.671875 8.265625 
Q 6.984375 17.96875 6.984375 36.375 
Q 6.984375 53.65625 15.1875 63.9375 
Q 23.390625 74.21875 37.203125 74.21875 
Q 40.921875 74.21875 44.703125 73.484375 
Q 48.484375 72.75 52.59375 71.296875 
z
" id="DejaVuSans-54"/>
       </defs>
       <use xlink:href="#DejaVuSans-54"/>
       <use x="63.623047" xlink:href="#DejaVuSans-48"/>
      </g>
     </g>
    </g>
    <g id="xtick_6">
     <g id="line2d_6">
      <g>
       <use style="stroke:#000000;stroke-width:0.8;" x="318.110767" xlink:href="#ma6a1f30223" y="307.584"/>
      </g>
     </g>
     <g id="text_6">
      <!-- 80 -->
      <g transform="translate(311.748267 322.182437)scale(0.1 -0.1)">
       <defs>
        <path d="M 31.78125 34.625 
Q 24.75 34.625 20.71875 30.859375 
Q 16.703125 27.09375 16.703125 20.515625 
Q 16.703125 13.921875 20.71875 10.15625 
Q 24.75 6.390625 31.78125 6.390625 
Q 38.8125 6.390625 42.859375 10.171875 
Q 46.921875 13.96875 46.921875 20.515625 
Q 46.921875 27.09375 42.890625 30.859375 
Q 38.875 34.625 31.78125 34.625 
z
M 21.921875 38.8125 
Q 15.578125 40.375 12.03125 44.71875 
Q 8.5 49.078125 8.5 55.328125 
Q 8.5 64.0625 14.71875 69.140625 
Q 20.953125 74.21875 31.78125 74.21875 
Q 42.671875 74.21875 48.875 69.140625 
Q 55.078125 64.0625 55.078125 55.328125 
Q 55.078125 49.078125 51.53125 44.71875 
Q 48 40.375 41.703125 38.8125 
Q 48.828125 37.15625 52.796875 32.3125 
Q 56.78125 27.484375 56.78125 20.515625 
Q 56.78125 9.90625 50.3125 4.234375 
Q 43.84375 -1.421875 31.78125 -1.421875 
Q 19.734375 -1.421875 13.25 4.234375 
Q 6.78125 9.90625 6.78125 20.515625 
Q 6.78125 27.484375 10.78125 32.3125 
Q 14.796875 37.15625 21.921875 38.8125 
z
M 18.3125 54.390625 
Q 18.3125 48.734375 21.84375 45.5625 
Q 25.390625 42.390625 31.78125 42.390625 
Q 38.140625 42.390625 41.71875 45.5625 
Q 45.3125 48.734375 45.3125 54.390625 
Q 45.3125 60.0625 41.71875 63.234375 
Q 38.140625 66.40625 31.78125 66.40625 
Q 25.390625 66.40625 21.84375 63.234375 
Q 18.3125 60.0625 18.3125 54.390625 
z
" id="DejaVuSans-56"/>
       </defs>
       <use xlink:href="#DejaVuSans-56"/>
       <use x="63.623047" xlink:href="#DejaVuSans-48"/>
      </g>
     </g>
    </g>
    <g id="xtick_7">
     <g id="line2d_7">
      <g>
       <use style="stroke:#000000;stroke-width:0.8;" x="366.32906" xlink:href="#ma6a1f30223" y="307.584"/>
      </g>
     </g>
     <g id="text_7">
      <!-- 100 -->
      <g transform="translate(356.78531 322.182437)scale(0.1 -0.1)">
       <defs>
        <path d="M 12.40625 8.296875 
L 28.515625 8.296875 
L 28.515625 63.921875 
L 10.984375 60.40625 
L 10.984375 69.390625 
L 28.421875 72.90625 
L 38.28125 72.90625 
L 38.28125 8.296875 
L 54.390625 8.296875 
L 54.390625 0 
L 12.40625 0 
z
" id="DejaVuSans-49"/>
       </defs>
       <use xlink:href="#DejaVuSans-49"/>
       <use x="63.623047" xlink:href="#DejaVuSans-48"/>
       <use x="127.246094" xlink:href="#DejaVuSans-48"/>
      </g>
     </g>
    </g>
    <g id="xtick_8">
     <g id="line2d_8">
      <g>
       <use style="stroke:#000000;stroke-width:0.8;" x="414.547353" xlink:href="#ma6a1f30223" y="307.584"/>
      </g>
     </g>
     <g id="text_8">
      <!-- 120 -->
      <g transform="translate(405.003603 322.182437)scale(0.1 -0.1)">
       <use xlink:href="#DejaVuSans-49"/>
       <use x="63.623047" xlink:href="#DejaVuSans-50"/>
       <use x="127.246094" xlink:href="#DejaVuSans-48"/>
      </g>
     </g>
    </g>
   </g>
   <g id="matplotlib.axis_2">
    <g id="ytick_1">
     <g id="line2d_9">
      <defs>
       <path d="M 0 0 
L -3.5 0 
" id="me7211fbb56" style="stroke:#000000;stroke-width:0.8;"/>
      </defs>
      <g>
       <use style="stroke:#000000;stroke-width:0.8;" x="57.6" xlink:href="#me7211fbb56" y="262.18814"/>
      </g>
     </g>
     <g id="text_9">
      <!-- 20 -->
      <g transform="translate(37.875 265.987359)scale(0.1 -0.1)">
       <use xlink:href="#DejaVuSans-50"/>
       <use x="63.623047" xlink:href="#DejaVuSans-48"/>
      </g>
     </g>
    </g>
    <g id="ytick_2">
     <g id="line2d_10">
      <g>
       <use style="stroke:#000000;stroke-width:0.8;" x="57.6" xlink:href="#me7211fbb56" y="213.969847"/>
      </g>
     </g>
     <g id="text_10">
      <!-- 40 -->
      <g transform="translate(37.875 217.769066)scale(0.1 -0.1)">
       <use xlink:href="#DejaVuSans-52"/>
       <use x="63.623047" xlink:href="#DejaVuSans-48"/>
      </g>
     </g>
    </g>
    <g id="ytick_3">
     <g id="line2d_11">
      <g>
       <use style="stroke:#000000;stroke-width:0.8;" x="57.6" xlink:href="#me7211fbb56" y="165.751554"/>
      </g>
     </g>
     <g id="text_11">
      <!-- 60 -->
      <g transform="translate(37.875 169.550772)scale(0.1 -0.1)">
       <use xlink:href="#DejaVuSans-54"/>
       <use x="63.623047" xlink:href="#DejaVuSans-48"/>
      </g>
     </g>
    </g>
    <g id="ytick_4">
     <g id="line2d_12">
      <g>
       <use style="stroke:#000000;stroke-width:0.8;" x="57.6" xlink:href="#me7211fbb56" y="117.53326"/>
      </g>
     </g>
     <g id="text_12">
      <!-- 80 -->
      <g transform="translate(37.875 121.332479)scale(0.1 -0.1)">
       <use xlink:href="#DejaVuSans-56"/>
       <use x="63.623047" xlink:href="#DejaVuSans-48"/>
      </g>
     </g>
    </g>
    <g id="ytick_5">
     <g id="line2d_13">
      <g>
       <use style="stroke:#000000;stroke-width:0.8;" x="57.6" xlink:href="#me7211fbb56" y="69.314967"/>
      </g>
     </g>
     <g id="text_13">
      <!-- 100 -->
      <g transform="translate(31.5125 73.114186)scale(0.1 -0.1)">
       <use xlink:href="#DejaVuSans-49"/>
       <use x="63.623047" xlink:href="#DejaVuSans-48"/>
       <use x="127.246094" xlink:href="#DejaVuSans-48"/>
      </g>
     </g>
    </g>
   </g>
   <g id="line2d_14">
    <path clip-path="url(#p65c88d8ca0)" d="M 245.207118 133.715319 
L 245.756807 131.282707 
L 246.173895 128.850094 
L 246.465616 126.41507 
L 246.63438 123.984868 
L 246.680187 121.557077 
L 246.610271 119.14134 
L 246.427041 116.732837 
L 245.732698 111.964047 
L 244.621266 107.269997 
L 243.121677 102.674793 
L 241.25804 98.200136 
L 239.059286 93.867722 
L 236.549524 89.701661 
L 233.757684 85.721241 
L 230.695823 81.952982 
L 227.36635 78.430635 
L 223.774087 75.180722 
L 219.919034 72.234585 
L 215.806014 69.625975 
L 213.6603 68.459092 
L 211.459135 67.393468 
L 209.212162 66.431513 
L 206.921793 65.585282 
L 204.595261 64.854775 
L 202.234975 64.249635 
L 199.850581 63.777096 
L 197.446899 63.439568 
L 195.028751 63.246695 
L 192.598549 63.203298 
L 190.168347 63.304557 
L 187.745378 63.548059 
L 185.336874 63.933805 
L 182.950069 64.454563 
L 180.592194 65.107921 
L 178.270484 65.891468 
L 175.99458 66.800383 
L 173.771717 67.832254 
L 171.611537 68.982261 
L 169.516452 70.250402 
L 167.496106 71.629445 
L 165.55532 73.114568 
L 163.698915 74.703361 
L 161.934126 76.38618 
L 160.263362 78.165435 
L 158.691446 80.029072 
L 157.22802 81.977091 
L 155.873086 84.00467 
L 154.636287 86.104577 
L 153.522444 88.271989 
L 152.529148 90.502085 
L 151.66604 92.785221 
L 150.930711 95.114165 
L 150.325572 97.481683 
L 149.853032 99.880543 
L 149.517915 102.301101 
L 149.32022 104.738536 
L 149.262358 107.183204 
L 149.34674 109.62546 
L 149.575777 112.062895 
L 149.944647 114.481042 
L 150.450939 116.877491 
L 151.092243 119.242599 
L 151.863735 121.56672 
L 152.760595 123.842624 
L 153.780412 126.060665 
L 154.918364 128.216023 
L 156.174451 130.299053 
L 157.539028 132.300113 
L 159.014508 134.214379 
L 160.586424 136.046674 
L 163.990636 139.474995 
L 167.679335 142.62606 
L 171.580195 145.538445 
L 175.618477 148.250724 
L 181.797652 152.045504 
L 192.111545 158.243965 
L 196.147416 160.89356 
L 200.079618 163.740851 
L 203.859932 166.802712 
L 207.435318 170.088789 
L 210.750326 173.606313 
L 213.756736 177.360108 
L 216.420797 181.350171 
L 218.805192 185.530697 
L 220.991891 189.841413 
L 230.45232 209.468669 
L 233.890285 215.821429 
L 237.547642 222.041589 
L 241.409928 228.141203 
L 254.708533 248.320559 
L 257.483496 252.272048 
L 260.427223 256.083704 
L 263.607219 259.702487 
L 267.071703 263.075357 
L 270.803799 266.175793 
L 274.769754 268.986919 
L 278.933403 271.49186 
L 283.258584 273.668916 
L 287.711544 275.513265 
L 292.270583 277.068305 
L 296.911594 278.39913 
L 303.975574 280.094003 
L 322.879556 284.281762 
L 327.498868 285.574012 
L 329.774772 286.297287 
L 329.774772 286.297287 
" style="fill:none;stroke:#fea952;stroke-linecap:square;"/>
   </g>
   <g id="line2d_15">
    <path clip-path="url(#p65c88d8ca0)" d="M 235.800621 131.589768 
L 236.598706 127.702967 
L 236.992437 123.802944 
L 236.994398 119.872878 
L 236.623349 115.941425 
L 235.890854 112.02436 
L 234.810692 108.131291 
L 233.400686 104.294498 
L 231.683925 100.539208 
L 229.670955 96.885285 
L 227.389424 93.35997 
L 224.890678 90.026765 
L 222.182441 86.91569 
L 219.27431 84.047293 
L 216.18991 81.453399 
L 212.908434 79.14192 
L 209.45816 77.139079 
L 205.869915 75.477481 
L 202.200243 74.196297 
L 198.509563 73.327061 
L 194.856571 72.888816 
L 193.00002 72.838597 
L 189.270472 73.070361 
L 185.525253 73.748033 
L 181.847141 74.847342 
L 178.303497 76.344782 
L 174.953209 78.21544 
L 171.825842 80.44128 
L 168.964184 82.987576 
L 166.40179 85.821372 
L 164.182587 88.898784 
L 162.331786 92.195718 
L 160.86221 95.688774 
L 159.787403 99.345521 
L 159.130009 103.080717 
L 158.900266 106.850206 
L 158.948104 108.723255 
L 159.380035 112.487651 
L 160.244811 116.204402 
L 161.52249 119.814057 
L 163.176749 123.236141 
L 165.177098 126.412835 
L 167.581438 129.408155 
L 170.389789 132.260357 
L 173.556868 134.980489 
L 177.03915 137.588604 
L 180.762345 140.093471 
L 186.72089 143.753226 
L 197.328863 150.133494 
L 201.700841 153.009423 
L 206.043163 156.162178 
L 210.270392 159.59812 
L 214.326113 163.342153 
L 218.146112 167.417412 
L 219.951016 169.58821 
L 221.670303 171.8487 
L 224.72578 176.448395 
L 227.362311 181.083691 
L 229.690954 185.678907 
L 238.983237 204.971602 
L 242.269266 211.047246 
L 245.740086 216.953956 
L 249.479676 222.861117 
L 262.647161 242.845311 
L 265.194947 246.481221 
L 267.783197 249.847537 
L 270.469488 252.926838 
L 273.373741 255.775736 
L 276.528646 258.415233 
L 279.896349 260.8188 
L 283.433205 262.962385 
L 287.102706 264.824546 
L 290.954446 266.43121 
L 295.026635 267.826859 
L 299.295737 269.054827 
L 306.026959 270.671054 
L 325.386651 274.969693 
L 330.419646 276.383299 
L 332.695549 277.106573 
L 332.695549 277.106573 
" style="fill:none;stroke:#ffffff;stroke-linecap:square;"/>
   </g>
   <g id="line2d_16">
    <path clip-path="url(#p65c88d8ca0)" d="M 254.613615 135.840871 
L 255.261767 132.912397 
L 255.749084 129.99722 
L 256.086105 127.083159 
L 256.276322 124.166791 
L 256.319809 121.278086 
L 256.226143 118.409802 
L 255.99873 115.556859 
L 255.64247 112.736172 
L 255.161443 109.93947 
L 254.561957 107.187986 
L 253.846753 104.460985 
L 253.023866 101.784567 
L 252.092035 99.13462 
L 249.938384 93.998734 
L 247.406907 89.038915 
L 244.539554 84.301701 
L 241.353931 79.780097 
L 237.828515 75.462615 
L 233.976072 71.408405 
L 231.928811 69.491737 
L 229.793756 67.646551 
L 227.568306 65.879937 
L 225.261755 64.206167 
L 222.879298 62.631847 
L 220.413226 61.154036 
L 217.86244 59.779106 
L 215.254514 58.528072 
L 212.554409 57.385545 
L 209.810739 56.384513 
L 206.990278 55.513252 
L 204.109695 54.789954 
L 201.191599 54.227131 
L 198.213649 53.826439 
L 195.200932 53.604573 
L 192.197079 53.568 
L 189.204041 53.709232 
L 186.220285 54.025757 
L 183.281164 54.511799 
L 180.374885 55.161093 
L 177.508465 55.970593 
L 174.693826 56.935594 
L 171.934084 58.053239 
L 169.239936 59.319727 
L 166.617842 60.732221 
L 164.079696 62.285364 
L 161.635593 63.97082 
L 159.284797 65.787857 
L 157.043832 67.724105 
L 154.904067 69.784783 
L 152.891768 71.947738 
L 150.981101 74.236771 
L 149.209883 76.618954 
L 147.563586 79.110556 
L 146.058969 81.696656 
L 144.713102 84.34826 
L 143.508544 87.091973 
L 142.469871 89.881669 
L 141.587431 92.726015 
L 140.86374 95.617845 
L 140.300488 98.558029 
L 139.905821 101.521485 
L 139.679262 104.510348 
L 139.624451 107.516201 
L 139.745377 110.527665 
L 140.042398 113.517139 
L 140.509259 116.474434 
L 141.143374 119.401255 
L 141.939674 122.280796 
L 142.891587 125.102355 
L 143.998701 127.871191 
L 145.252364 130.56317 
L 146.659979 133.195906 
L 148.207002 135.732277 
L 149.900959 138.187391 
L 151.695217 140.493561 
L 153.59141 142.685193 
L 155.559409 144.744587 
L 157.591483 146.689632 
L 161.801803 150.271631 
L 166.121241 153.488286 
L 170.47461 156.407977 
L 176.874413 160.337782 
L 186.894226 166.354436 
L 190.593991 168.777698 
L 194.116072 171.319523 
L 197.449471 174.007304 
L 200.544523 176.835425 
L 203.35454 179.795215 
L 205.843169 182.871515 
L 208.115814 186.251948 
L 210.248073 189.977704 
L 212.292829 194.003919 
L 221.921404 213.965736 
L 225.511303 220.595612 
L 229.355198 227.129223 
L 233.340179 233.42129 
L 246.769905 253.795807 
L 249.772045 258.062875 
L 253.071248 262.319872 
L 256.74495 266.478136 
L 260.769665 270.374978 
L 265.078953 273.936353 
L 269.643159 277.155039 
L 274.433602 280.021334 
L 279.414463 282.513286 
L 284.468642 284.595321 
L 289.514532 286.309752 
L 294.527451 287.743434 
L 301.924189 289.516953 
L 320.372461 293.593831 
L 324.578091 294.764726 
L 326.853994 295.488 
L 326.853994 295.488 
" style="fill:none;stroke:#ffffff;stroke-linecap:square;"/>
   </g>
   <g id="patch_3">
    <path d="M 57.6 307.584 
L 57.6 41.472 
" style="fill:none;stroke:#000000;stroke-linecap:square;stroke-linejoin:miter;stroke-width:0.8;"/>
   </g>
   <g id="patch_4">
    <path d="M 414.72 307.584 
L 414.72 41.472 
" style="fill:none;stroke:#000000;stroke-linecap:square;stroke-linejoin:miter;stroke-width:0.8;"/>
   </g>
   <g id="patch_5">
    <path d="M 57.6 307.584 
L 414.72 307.584 
" style="fill:none;stroke:#000000;stroke-linecap:square;stroke-linejoin:miter;stroke-width:0.8;"/>
   </g>
   <g id="patch_6">
    <path d="M 57.6 41.472 
L 414.72 41.472 
" style="fill:none;stroke:#000000;stroke-linecap:square;stroke-linejoin:miter;stroke-width:0.8;"/>
   </g>
  </g>
 </g>
 <defs>
  <clipPath id="p65c88d8ca0">
   <rect height="266.112" width="357.12" x="57.6" y="41.472"/>
  </clipPath>
 </defs>
</svg>
