<?xml version="1.0" encoding="utf-8" standalone="no"?>
<!DOCTYPE svg PUBLIC "-//W3C//DTD SVG 1.1//EN"
  "http://www.w3.org/Graphics/SVG/1.1/DTD/svg11.dtd">
<!-- Created with matplotlib (https://matplotlib.org/) -->
<svg height="345.6pt" version="1.1" viewBox="0 0 460.8 345.6" width="460.8pt" xmlns="http://www.w3.org/2000/svg" xmlns:xlink="http://www.w3.org/1999/xlink">
 <metadata>
  <rdf:RDF xmlns:cc="http://creativecommons.org/ns#" xmlns:dc="http://purl.org/dc/elements/1.1/" xmlns:rdf="http://www.w3.org/1999/02/22-rdf-syntax-ns#">
   <cc:Work>
    <dc:type rdf:resource="http://purl.org/dc/dcmitype/StillImage"/>
    <dc:date>2021-01-23T12:29:35.667218</dc:date>
    <dc:format>image/svg+xml</dc:format>
    <dc:creator>
     <cc:Agent>
      <dc:title>Matplotlib v3.3.3, https://matplotlib.org/</dc:title>
     </cc:Agent>
    </dc:creator>
   </cc:Work>
  </rdf:RDF>
 </metadata>
 <defs>
  <style type="text/css">*{stroke-linecap:butt;stroke-linejoin:round;}</style>
 </defs>
 <g id="figure_1">
  <g id="patch_1">
   <path d="M 0 345.6 
L 460.8 345.6 
L 460.8 0 
L 0 0 
z
" style="fill:#ffffff;"/>
  </g>
  <g id="axes_1">
   <g id="patch_2">
    <path d="M 57.6 307.584 
L 414.72 307.584 
L 414.72 41.472 
L 57.6 41.472 
z
" style="fill:#7d9051;"/>
   </g>
   <g id="matplotlib.axis_1">
    <g id="xtick_1">
     <g id="line2d_1">
      <defs>
       <path d="M 0 0 
L 0 3.5 
" id="m29fa410faa" style="stroke:#000000;stroke-width:0.8;"/>
      </defs>
      <g>
       <use style="stroke:#000000;stroke-width:0.8;" x="62.250036" xlink:href="#m29fa410faa" y="307.584"/>
      </g>
     </g>
     <g id="text_1">
      <!-- 0 -->
      <g transform="translate(59.068786 322.182437)scale(0.1 -0.1)">
       <defs>
        <path d="M 31.78125 66.40625 
Q 24.171875 66.40625 20.328125 58.90625 
Q 16.5 51.421875 16.5 36.375 
Q 16.5 21.390625 20.328125 13.890625 
Q 24.171875 6.390625 31.78125 6.390625 
Q 39.453125 6.390625 43.28125 13.890625 
Q 47.125 21.390625 47.125 36.375 
Q 47.125 51.421875 43.28125 58.90625 
Q 39.453125 66.40625 31.78125 66.40625 
z
M 31.78125 74.21875 
Q 44.046875 74.21875 50.515625 64.515625 
Q 56.984375 54.828125 56.984375 36.375 
Q 56.984375 17.96875 50.515625 8.265625 
Q 44.046875 -1.421875 31.78125 -1.421875 
Q 19.53125 -1.421875 13.0625 8.265625 
Q 6.59375 17.96875 6.59375 36.375 
Q 6.59375 54.828125 13.0625 64.515625 
Q 19.53125 74.21875 31.78125 74.21875 
z
" id="DejaVuSans-48"/>
       </defs>
       <use xlink:href="#DejaVuSans-48"/>
      </g>
     </g>
    </g>
    <g id="xtick_2">
     <g id="line2d_2">
      <g>
       <use style="stroke:#000000;stroke-width:0.8;" x="105.473407" xlink:href="#m29fa410faa" y="307.584"/>
      </g>
     </g>
     <g id="text_2">
      <!-- 20 -->
      <g transform="translate(99.110907 322.182437)scale(0.1 -0.1)">
       <defs>
        <path d="M 19.1875 8.296875 
L 53.609375 8.296875 
L 53.609375 0 
L 7.328125 0 
L 7.328125 8.296875 
Q 12.9375 14.109375 22.625 23.890625 
Q 32.328125 33.6875 34.8125 36.53125 
Q 39.546875 41.84375 41.421875 45.53125 
Q 43.3125 49.21875 43.3125 52.78125 
Q 43.3125 58.59375 39.234375 62.25 
Q 35.15625 65.921875 28.609375 65.921875 
Q 23.96875 65.921875 18.8125 64.3125 
Q 13.671875 62.703125 7.8125 59.421875 
L 7.8125 69.390625 
Q 13.765625 71.78125 18.9375 73 
Q 24.125 74.21875 28.421875 74.21875 
Q 39.75 74.21875 46.484375 68.546875 
Q 53.21875 62.890625 53.21875 53.421875 
Q 53.21875 48.921875 51.53125 44.890625 
Q 49.859375 40.875 45.40625 35.40625 
Q 44.1875 33.984375 37.640625 27.21875 
Q 31.109375 20.453125 19.1875 8.296875 
z
" id="DejaVuSans-50"/>
       </defs>
       <use xlink:href="#DejaVuSans-50"/>
       <use x="63.623047" xlink:href="#DejaVuSans-48"/>
      </g>
     </g>
    </g>
    <g id="xtick_3">
     <g id="line2d_3">
      <g>
       <use style="stroke:#000000;stroke-width:0.8;" x="148.696777" xlink:href="#m29fa410faa" y="307.584"/>
      </g>
     </g>
     <g id="text_3">
      <!-- 40 -->
      <g transform="translate(142.334277 322.182437)scale(0.1 -0.1)">
       <defs>
        <path d="M 37.796875 64.3125 
L 12.890625 25.390625 
L 37.796875 25.390625 
z
M 35.203125 72.90625 
L 47.609375 72.90625 
L 47.609375 25.390625 
L 58.015625 25.390625 
L 58.015625 17.1875 
L 47.609375 17.1875 
L 47.609375 0 
L 37.796875 0 
L 37.796875 17.1875 
L 4.890625 17.1875 
L 4.890625 26.703125 
z
" id="DejaVuSans-52"/>
       </defs>
       <use xlink:href="#DejaVuSans-52"/>
       <use x="63.623047" xlink:href="#DejaVuSans-48"/>
      </g>
     </g>
    </g>
    <g id="xtick_4">
     <g id="line2d_4">
      <g>
       <use style="stroke:#000000;stroke-width:0.8;" x="191.920148" xlink:href="#m29fa410faa" y="307.584"/>
      </g>
     </g>
     <g id="text_4">
      <!-- 60 -->
      <g transform="translate(185.557648 322.182437)scale(0.1 -0.1)">
       <defs>
        <path d="M 33.015625 40.375 
Q 26.375 40.375 22.484375 35.828125 
Q 18.609375 31.296875 18.609375 23.390625 
Q 18.609375 15.53125 22.484375 10.953125 
Q 26.375 6.390625 33.015625 6.390625 
Q 39.65625 6.390625 43.53125 10.953125 
Q 47.40625 15.53125 47.40625 23.390625 
Q 47.40625 31.296875 43.53125 35.828125 
Q 39.65625 40.375 33.015625 40.375 
z
M 52.59375 71.296875 
L 52.59375 62.3125 
Q 48.875 64.0625 45.09375 64.984375 
Q 41.3125 65.921875 37.59375 65.921875 
Q 27.828125 65.921875 22.671875 59.328125 
Q 17.53125 52.734375 16.796875 39.40625 
Q 19.671875 43.65625 24.015625 45.921875 
Q 28.375 48.1875 33.59375 48.1875 
Q 44.578125 48.1875 50.953125 41.515625 
Q 57.328125 34.859375 57.328125 23.390625 
Q 57.328125 12.15625 50.6875 5.359375 
Q 44.046875 -1.421875 33.015625 -1.421875 
Q 20.359375 -1.421875 13.671875 8.265625 
Q 6.984375 17.96875 6.984375 36.375 
Q 6.984375 53.65625 15.1875 63.9375 
Q 23.390625 74.21875 37.203125 74.21875 
Q 40.921875 74.21875 44.703125 73.484375 
Q 48.484375 72.75 52.59375 71.296875 
z
" id="DejaVuSans-54"/>
       </defs>
       <use xlink:href="#DejaVuSans-54"/>
       <use x="63.623047" xlink:href="#DejaVuSans-48"/>
      </g>
     </g>
    </g>
    <g id="xtick_5">
     <g id="line2d_5">
      <g>
       <use style="stroke:#000000;stroke-width:0.8;" x="235.143518" xlink:href="#m29fa410faa" y="307.584"/>
      </g>
     </g>
     <g id="text_5">
      <!-- 80 -->
      <g transform="translate(228.781018 322.182437)scale(0.1 -0.1)">
       <defs>
        <path d="M 31.78125 34.625 
Q 24.75 34.625 20.71875 30.859375 
Q 16.703125 27.09375 16.703125 20.515625 
Q 16.703125 13.921875 20.71875 10.15625 
Q 24.75 6.390625 31.78125 6.390625 
Q 38.8125 6.390625 42.859375 10.171875 
Q 46.921875 13.96875 46.921875 20.515625 
Q 46.921875 27.09375 42.890625 30.859375 
Q 38.875 34.625 31.78125 34.625 
z
M 21.921875 38.8125 
Q 15.578125 40.375 12.03125 44.71875 
Q 8.5 49.078125 8.5 55.328125 
Q 8.5 64.0625 14.71875 69.140625 
Q 20.953125 74.21875 31.78125 74.21875 
Q 42.671875 74.21875 48.875 69.140625 
Q 55.078125 64.0625 55.078125 55.328125 
Q 55.078125 49.078125 51.53125 44.71875 
Q 48 40.375 41.703125 38.8125 
Q 48.828125 37.15625 52.796875 32.3125 
Q 56.78125 27.484375 56.78125 20.515625 
Q 56.78125 9.90625 50.3125 4.234375 
Q 43.84375 -1.421875 31.78125 -1.421875 
Q 19.734375 -1.421875 13.25 4.234375 
Q 6.78125 9.90625 6.78125 20.515625 
Q 6.78125 27.484375 10.78125 32.3125 
Q 14.796875 37.15625 21.921875 38.8125 
z
M 18.3125 54.390625 
Q 18.3125 48.734375 21.84375 45.5625 
Q 25.390625 42.390625 31.78125 42.390625 
Q 38.140625 42.390625 41.71875 45.5625 
Q 45.3125 48.734375 45.3125 54.390625 
Q 45.3125 60.0625 41.71875 63.234375 
Q 38.140625 66.40625 31.78125 66.40625 
Q 25.390625 66.40625 21.84375 63.234375 
Q 18.3125 60.0625 18.3125 54.390625 
z
" id="DejaVuSans-56"/>
       </defs>
       <use xlink:href="#DejaVuSans-56"/>
       <use x="63.623047" xlink:href="#DejaVuSans-48"/>
      </g>
     </g>
    </g>
    <g id="xtick_6">
     <g id="line2d_6">
      <g>
       <use style="stroke:#000000;stroke-width:0.8;" x="278.366888" xlink:href="#m29fa410faa" y="307.584"/>
      </g>
     </g>
     <g id="text_6">
      <!-- 100 -->
      <g transform="translate(268.823138 322.182437)scale(0.1 -0.1)">
       <defs>
        <path d="M 12.40625 8.296875 
L 28.515625 8.296875 
L 28.515625 63.921875 
L 10.984375 60.40625 
L 10.984375 69.390625 
L 28.421875 72.90625 
L 38.28125 72.90625 
L 38.28125 8.296875 
L 54.390625 8.296875 
L 54.390625 0 
L 12.40625 0 
z
" id="DejaVuSans-49"/>
       </defs>
       <use xlink:href="#DejaVuSans-49"/>
       <use x="63.623047" xlink:href="#DejaVuSans-48"/>
       <use x="127.246094" xlink:href="#DejaVuSans-48"/>
      </g>
     </g>
    </g>
    <g id="xtick_7">
     <g id="line2d_7">
      <g>
       <use style="stroke:#000000;stroke-width:0.8;" x="321.590259" xlink:href="#m29fa410faa" y="307.584"/>
      </g>
     </g>
     <g id="text_7">
      <!-- 120 -->
      <g transform="translate(312.046509 322.182437)scale(0.1 -0.1)">
       <use xlink:href="#DejaVuSans-49"/>
       <use x="63.623047" xlink:href="#DejaVuSans-50"/>
       <use x="127.246094" xlink:href="#DejaVuSans-48"/>
      </g>
     </g>
    </g>
    <g id="xtick_8">
     <g id="line2d_8">
      <g>
       <use style="stroke:#000000;stroke-width:0.8;" x="364.813629" xlink:href="#m29fa410faa" y="307.584"/>
      </g>
     </g>
     <g id="text_8">
      <!-- 140 -->
      <g transform="translate(355.269879 322.182437)scale(0.1 -0.1)">
       <use xlink:href="#DejaVuSans-49"/>
       <use x="63.623047" xlink:href="#DejaVuSans-52"/>
       <use x="127.246094" xlink:href="#DejaVuSans-48"/>
      </g>
     </g>
    </g>
    <g id="xtick_9">
     <g id="line2d_9">
      <g>
       <use style="stroke:#000000;stroke-width:0.8;" x="408.037" xlink:href="#m29fa410faa" y="307.584"/>
      </g>
     </g>
     <g id="text_9">
      <!-- 160 -->
      <g transform="translate(398.49325 322.182437)scale(0.1 -0.1)">
       <use xlink:href="#DejaVuSans-49"/>
       <use x="63.623047" xlink:href="#DejaVuSans-54"/>
       <use x="127.246094" xlink:href="#DejaVuSans-48"/>
      </g>
     </g>
    </g>
   </g>
   <g id="matplotlib.axis_2">
    <g id="ytick_1">
     <g id="line2d_10">
      <defs>
       <path d="M 0 0 
L -3.5 0 
" id="md35ba3d84e" style="stroke:#000000;stroke-width:0.8;"/>
      </defs>
      <g>
       <use style="stroke:#000000;stroke-width:0.8;" x="57.6" xlink:href="#md35ba3d84e" y="285.831134"/>
      </g>
     </g>
     <g id="text_10">
      <!-- −20 -->
      <g transform="translate(29.495313 289.630353)scale(0.1 -0.1)">
       <defs>
        <path d="M 10.59375 35.5 
L 73.1875 35.5 
L 73.1875 27.203125 
L 10.59375 27.203125 
z
" id="DejaVuSans-8722"/>
       </defs>
       <use xlink:href="#DejaVuSans-8722"/>
       <use x="83.789062" xlink:href="#DejaVuSans-50"/>
       <use x="147.412109" xlink:href="#DejaVuSans-48"/>
      </g>
     </g>
    </g>
    <g id="ytick_2">
     <g id="line2d_11">
      <g>
       <use style="stroke:#000000;stroke-width:0.8;" x="57.6" xlink:href="#md35ba3d84e" y="242.607764"/>
      </g>
     </g>
     <g id="text_11">
      <!-- 0 -->
      <g transform="translate(44.2375 246.406982)scale(0.1 -0.1)">
       <use xlink:href="#DejaVuSans-48"/>
      </g>
     </g>
    </g>
    <g id="ytick_3">
     <g id="line2d_12">
      <g>
       <use style="stroke:#000000;stroke-width:0.8;" x="57.6" xlink:href="#md35ba3d84e" y="199.384393"/>
      </g>
     </g>
     <g id="text_12">
      <!-- 20 -->
      <g transform="translate(37.875 203.183612)scale(0.1 -0.1)">
       <use xlink:href="#DejaVuSans-50"/>
       <use x="63.623047" xlink:href="#DejaVuSans-48"/>
      </g>
     </g>
    </g>
    <g id="ytick_4">
     <g id="line2d_13">
      <g>
       <use style="stroke:#000000;stroke-width:0.8;" x="57.6" xlink:href="#md35ba3d84e" y="156.161023"/>
      </g>
     </g>
     <g id="text_13">
      <!-- 40 -->
      <g transform="translate(37.875 159.960242)scale(0.1 -0.1)">
       <use xlink:href="#DejaVuSans-52"/>
       <use x="63.623047" xlink:href="#DejaVuSans-48"/>
      </g>
     </g>
    </g>
    <g id="ytick_5">
     <g id="line2d_14">
      <g>
       <use style="stroke:#000000;stroke-width:0.8;" x="57.6" xlink:href="#md35ba3d84e" y="112.937652"/>
      </g>
     </g>
     <g id="text_14">
      <!-- 60 -->
      <g transform="translate(37.875 116.736871)scale(0.1 -0.1)">
       <use xlink:href="#DejaVuSans-54"/>
       <use x="63.623047" xlink:href="#DejaVuSans-48"/>
      </g>
     </g>
    </g>
    <g id="ytick_6">
     <g id="line2d_15">
      <g>
       <use style="stroke:#000000;stroke-width:0.8;" x="57.6" xlink:href="#md35ba3d84e" y="69.714282"/>
      </g>
     </g>
     <g id="text_15">
      <!-- 80 -->
      <g transform="translate(37.875 73.513501)scale(0.1 -0.1)">
       <use xlink:href="#DejaVuSans-56"/>
       <use x="63.623047" xlink:href="#DejaVuSans-48"/>
      </g>
     </g>
    </g>
   </g>
   <g id="line2d_16">
    <path clip-path="url(#p934f308bfc)" d="M 83.861722 220.996078 
L 83.332235 218.77872 
L 82.932419 216.570005 
L 82.657951 214.372097 
L 82.506669 212.187156 
L 82.547731 207.858335 
L 83.016705 203.587866 
L 83.879011 199.384393 
L 85.093588 195.258723 
L 86.628017 191.217337 
L 88.439076 187.266721 
L 90.492187 183.41768 
L 92.752769 179.678859 
L 95.184083 176.05674 
L 97.790453 172.575098 
L 100.576199 169.251221 
L 103.543483 166.111043 
L 106.70095 163.169692 
L 110.046439 160.44662 
L 113.549693 157.91373 
L 117.178295 155.542929 
L 122.777883 152.223374 
L 130.376552 148.086897 
L 136.149033 145.154192 
L 143.978946 141.458593 
L 149.984834 138.88248 
L 154.062959 137.373985 
L 158.212402 136.129152 
L 162.439648 135.230106 
L 164.583527 134.936187 
L 166.749018 134.75681 
L 168.927476 134.694136 
L 173.29952 134.912414 
L 175.475816 135.189043 
L 177.634824 135.575893 
L 181.872875 136.673766 
L 183.93463 137.38263 
L 185.948839 138.193068 
L 189.819492 140.110024 
L 193.508606 142.353317 
L 197.061567 144.8365 
L 202.224599 148.8325 
L 220.847388 163.632182 
L 231.121583 171.485869 
L 239.859188 177.941279 
L 245.24482 181.667134 
L 248.953385 183.927716 
L 252.79162 185.898702 
L 254.77125 186.74588 
L 256.796265 187.487161 
L 258.866665 188.111738 
L 260.978126 188.617452 
L 263.124167 189.008623 
L 265.291819 189.285253 
L 269.672507 189.507853 
L 274.055357 189.296059 
L 278.375533 188.66932 
L 282.583328 187.649248 
L 286.696032 186.324452 
L 290.739578 184.787861 
L 306.818672 178.321645 
L 312.945585 176.2037 
L 319.148138 174.323483 
L 327.520505 172.125575 
L 333.790055 170.457153 
L 337.922209 169.205836 
L 341.989528 167.766498 
L 345.981207 166.111043 
L 349.892922 164.258921 
L 353.720351 162.223101 
L 357.465656 160.023031 
L 362.922607 156.461425 
L 373.629036 149.119936 
L 377.277088 146.865837 
L 381.026715 144.823533 
L 384.921141 143.064342 
L 388.992783 141.661743 
L 391.108567 141.112806 
L 393.284863 140.680573 
L 395.523834 140.371526 
L 397.834123 140.196471 
L 397.834123 140.196471 
" style="fill:none;stroke:#fea952;stroke-linecap:square;"/>
   </g>
   <g id="line2d_17">
    <path clip-path="url(#p934f308bfc)" d="M 75.45345 223.003902 
L 74.825805 220.318533 
L 74.35437 217.641207 
L 74.033923 214.969211 
L 73.86309 212.324765 
L 73.832727 209.712197 
L 73.934618 207.120316 
L 74.163504 204.5651 
L 74.512028 202.038396 
L 75.539946 197.10615 
L 76.95882 192.333668 
L 78.712882 187.741561 
L 80.755663 183.304961 
L 83.037532 179.040635 
L 85.5194 174.945068 
L 88.196909 170.966575 
L 91.085678 167.118323 
L 94.201591 163.412149 
L 97.544349 159.886833 
L 101.135277 156.555037 
L 104.890138 153.508108 
L 108.748525 150.724908 
L 112.664957 148.169994 
L 118.554066 144.680844 
L 126.393216 140.414647 
L 132.366338 137.381057 
L 140.46005 133.562534 
L 146.878126 130.81534 
L 151.427647 129.140789 
L 156.215572 127.718262 
L 158.716365 127.13439 
L 161.265474 126.665545 
L 163.869895 126.321019 
L 166.500415 126.115711 
L 169.140965 126.052098 
L 171.762597 126.127813 
L 174.389575 126.336741 
L 177.00048 126.679884 
L 179.594839 127.156348 
L 182.144933 127.7609 
L 184.683563 128.498778 
L 187.161494 129.362796 
L 189.602654 130.358527 
L 191.926677 131.452909 
L 196.312812 133.895732 
L 200.346801 136.55134 
L 204.100523 139.315698 
L 211.026317 144.809782 
L 226.148696 156.80382 
L 236.304241 164.567021 
L 244.888656 170.910288 
L 249.858106 174.356321 
L 253.059554 176.320498 
L 256.192735 177.951198 
L 259.292973 179.210879 
L 262.528301 180.112903 
L 265.94767 180.665493 
L 269.468359 180.86559 
L 273.022018 180.713367 
L 276.523054 180.225463 
L 280.065987 179.379219 
L 283.704316 178.213963 
L 287.474138 176.783656 
L 303.89637 170.185888 
L 310.323774 167.966194 
L 316.858959 165.987414 
L 325.369016 163.752912 
L 331.36722 162.158944 
L 335.149564 161.017868 
L 338.780468 159.739523 
L 342.376684 158.253702 
L 345.916903 156.582876 
L 349.416569 154.725911 
L 352.864678 152.704466 
L 358.016752 149.343632 
L 368.999752 141.819242 
L 373.017362 139.343528 
L 377.308382 137.019407 
L 381.899159 134.965081 
L 384.322058 134.072835 
L 386.821813 133.29411 
L 389.424543 132.633747 
L 392.102838 132.117092 
L 394.870684 131.751561 
L 397.180973 131.576507 
L 397.180973 131.576507 
" style="fill:none;stroke:#ffffff;stroke-linecap:square;"/>
   </g>
   <g id="line2d_18">
    <path clip-path="url(#p934f308bfc)" d="M 92.269993 218.988255 
L 91.510468 215.498804 
L 91.150248 212.049546 
L 91.160844 208.596354 
L 91.521382 205.137336 
L 92.218076 201.662636 
L 93.228355 198.183777 
L 94.543152 194.693114 
L 96.12249 191.228482 
L 97.946841 187.794725 
L 99.986137 184.412649 
L 102.171258 181.146905 
L 104.495227 178.031872 
L 106.950807 175.090292 
L 109.542617 172.335252 
L 112.266624 169.784348 
L 115.20274 167.385132 
L 118.350862 165.102553 
L 121.691634 162.915863 
L 127.0017 159.765904 
L 134.359887 155.759148 
L 141.813439 152.011339 
L 149.38804 148.511556 
L 154.90695 146.247206 
L 158.460539 145.036998 
L 161.914073 144.125453 
L 165.297159 143.551355 
L 168.713987 143.336173 
L 172.209464 143.488087 
L 175.674808 143.995437 
L 179.062187 144.848754 
L 182.295023 146.027608 
L 185.466382 147.57868 
L 188.651868 149.504714 
L 191.863773 151.743983 
L 196.818037 155.57783 
L 215.54608 170.460544 
L 225.938926 178.404716 
L 234.829719 184.97227 
L 238.640169 187.655796 
L 242.699821 190.278157 
L 247.065696 192.724081 
L 249.390505 193.846205 
L 251.799609 194.863745 
L 254.299558 195.763442 
L 256.853137 196.518646 
L 259.427952 197.122 
L 262.029833 197.583751 
L 264.635968 197.905012 
L 267.257554 198.093502 
L 269.876655 198.150116 
L 272.498692 198.07764 
L 275.088696 197.87875 
L 277.676307 197.556931 
L 280.228012 197.113176 
L 285.10067 195.919277 
L 289.687747 194.434941 
L 294.005018 192.792066 
L 309.740974 186.457402 
L 315.567396 184.441205 
L 321.437318 182.659552 
L 329.671994 180.498238 
L 336.21289 178.755361 
L 340.694855 177.393804 
L 345.198588 175.793473 
L 349.585729 173.968384 
L 353.86894 171.934966 
L 358.024134 169.72029 
L 362.066634 167.341596 
L 365.963095 164.840398 
L 381.536814 154.388146 
L 384.745049 152.627659 
L 387.943123 151.163602 
L 391.163752 150.029376 
L 394.466888 149.244054 
L 396.176984 148.99149 
L 398.487273 148.816435 
L 398.487273 148.816435 
" style="fill:none;stroke:#ffffff;stroke-linecap:square;"/>
   </g>
   <g id="patch_3">
    <path d="M 57.6 307.584 
L 57.6 41.472 
" style="fill:none;stroke:#000000;stroke-linecap:square;stroke-linejoin:miter;stroke-width:0.8;"/>
   </g>
   <g id="patch_4">
    <path d="M 414.72 307.584 
L 414.72 41.472 
" style="fill:none;stroke:#000000;stroke-linecap:square;stroke-linejoin:miter;stroke-width:0.8;"/>
   </g>
   <g id="patch_5">
    <path d="M 57.6 307.584 
L 414.72 307.584 
" style="fill:none;stroke:#000000;stroke-linecap:square;stroke-linejoin:miter;stroke-width:0.8;"/>
   </g>
   <g id="patch_6">
    <path d="M 57.6 41.472 
L 414.72 41.472 
" style="fill:none;stroke:#000000;stroke-linecap:square;stroke-linejoin:miter;stroke-width:0.8;"/>
   </g>
  </g>
 </g>
 <defs>
  <clipPath id="p934f308bfc">
   <rect height="266.112" width="357.12" x="57.6" y="41.472"/>
  </clipPath>
 </defs>
</svg>
