<?xml version="1.0" encoding="utf-8" standalone="no"?>
<!DOCTYPE svg PUBLIC "-//W3C//DTD SVG 1.1//EN"
  "http://www.w3.org/Graphics/SVG/1.1/DTD/svg11.dtd">
<!-- Created with matplotlib (https://matplotlib.org/) -->
<svg height="345.6pt" version="1.1" viewBox="0 0 460.8 345.6" width="460.8pt" xmlns="http://www.w3.org/2000/svg" xmlns:xlink="http://www.w3.org/1999/xlink">
 <metadata>
  <rdf:RDF xmlns:cc="http://creativecommons.org/ns#" xmlns:dc="http://purl.org/dc/elements/1.1/" xmlns:rdf="http://www.w3.org/1999/02/22-rdf-syntax-ns#">
   <cc:Work>
    <dc:type rdf:resource="http://purl.org/dc/dcmitype/StillImage"/>
    <dc:date>2021-01-23T11:36:04.540511</dc:date>
    <dc:format>image/svg+xml</dc:format>
    <dc:creator>
     <cc:Agent>
      <dc:title>Matplotlib v3.3.3, https://matplotlib.org/</dc:title>
     </cc:Agent>
    </dc:creator>
   </cc:Work>
  </rdf:RDF>
 </metadata>
 <defs>
  <style type="text/css">*{stroke-linecap:butt;stroke-linejoin:round;}</style>
 </defs>
 <g id="figure_1">
  <g id="patch_1">
   <path d="M 0 345.6 
L 460.8 345.6 
L 460.8 0 
L 0 0 
z
" style="fill:#ffffff;"/>
  </g>
  <g id="axes_1">
   <g id="patch_2">
    <path d="M 57.6 307.584 
L 414.72 307.584 
L 414.72 41.472 
L 57.6 41.472 
z
" style="fill:#7d9051;"/>
   </g>
   <g id="matplotlib.axis_1">
    <g id="xtick_1">
     <g id="line2d_1">
      <defs>
       <path d="M 0 0 
L 0 3.5 
" id="m2398dccb17" style="stroke:#000000;stroke-width:0.8;"/>
      </defs>
      <g>
       <use style="stroke:#000000;stroke-width:0.8;" x="97.944557" xlink:href="#m2398dccb17" y="307.584"/>
      </g>
     </g>
     <g id="text_1">
      <!-- 20 -->
      <g transform="translate(91.582057 322.182437)scale(0.1 -0.1)">
       <defs>
        <path d="M 19.1875 8.296875 
L 53.609375 8.296875 
L 53.609375 0 
L 7.328125 0 
L 7.328125 8.296875 
Q 12.9375 14.109375 22.625 23.890625 
Q 32.328125 33.6875 34.8125 36.53125 
Q 39.546875 41.84375 41.421875 45.53125 
Q 43.3125 49.21875 43.3125 52.78125 
Q 43.3125 58.59375 39.234375 62.25 
Q 35.15625 65.921875 28.609375 65.921875 
Q 23.96875 65.921875 18.8125 64.3125 
Q 13.671875 62.703125 7.8125 59.421875 
L 7.8125 69.390625 
Q 13.765625 71.78125 18.9375 73 
Q 24.125 74.21875 28.421875 74.21875 
Q 39.75 74.21875 46.484375 68.546875 
Q 53.21875 62.890625 53.21875 53.421875 
Q 53.21875 48.921875 51.53125 44.890625 
Q 49.859375 40.875 45.40625 35.40625 
Q 44.1875 33.984375 37.640625 27.21875 
Q 31.109375 20.453125 19.1875 8.296875 
z
" id="DejaVuSans-50"/>
        <path d="M 31.78125 66.40625 
Q 24.171875 66.40625 20.328125 58.90625 
Q 16.5 51.421875 16.5 36.375 
Q 16.5 21.390625 20.328125 13.890625 
Q 24.171875 6.390625 31.78125 6.390625 
Q 39.453125 6.390625 43.28125 13.890625 
Q 47.125 21.390625 47.125 36.375 
Q 47.125 51.421875 43.28125 58.90625 
Q 39.453125 66.40625 31.78125 66.40625 
z
M 31.78125 74.21875 
Q 44.046875 74.21875 50.515625 64.515625 
Q 56.984375 54.828125 56.984375 36.375 
Q 56.984375 17.96875 50.515625 8.265625 
Q 44.046875 -1.421875 31.78125 -1.421875 
Q 19.53125 -1.421875 13.0625 8.265625 
Q 6.59375 17.96875 6.59375 36.375 
Q 6.59375 54.828125 13.0625 64.515625 
Q 19.53125 74.21875 31.78125 74.21875 
z
" id="DejaVuSans-48"/>
       </defs>
       <use xlink:href="#DejaVuSans-50"/>
       <use x="63.623047" xlink:href="#DejaVuSans-48"/>
      </g>
     </g>
    </g>
    <g id="xtick_2">
     <g id="line2d_2">
      <g>
       <use style="stroke:#000000;stroke-width:0.8;" x="145.184454" xlink:href="#m2398dccb17" y="307.584"/>
      </g>
     </g>
     <g id="text_2">
      <!-- 40 -->
      <g transform="translate(138.821954 322.182437)scale(0.1 -0.1)">
       <defs>
        <path d="M 37.796875 64.3125 
L 12.890625 25.390625 
L 37.796875 25.390625 
z
M 35.203125 72.90625 
L 47.609375 72.90625 
L 47.609375 25.390625 
L 58.015625 25.390625 
L 58.015625 17.1875 
L 47.609375 17.1875 
L 47.609375 0 
L 37.796875 0 
L 37.796875 17.1875 
L 4.890625 17.1875 
L 4.890625 26.703125 
z
" id="DejaVuSans-52"/>
       </defs>
       <use xlink:href="#DejaVuSans-52"/>
       <use x="63.623047" xlink:href="#DejaVuSans-48"/>
      </g>
     </g>
    </g>
    <g id="xtick_3">
     <g id="line2d_3">
      <g>
       <use style="stroke:#000000;stroke-width:0.8;" x="192.424352" xlink:href="#m2398dccb17" y="307.584"/>
      </g>
     </g>
     <g id="text_3">
      <!-- 60 -->
      <g transform="translate(186.061852 322.182437)scale(0.1 -0.1)">
       <defs>
        <path d="M 33.015625 40.375 
Q 26.375 40.375 22.484375 35.828125 
Q 18.609375 31.296875 18.609375 23.390625 
Q 18.609375 15.53125 22.484375 10.953125 
Q 26.375 6.390625 33.015625 6.390625 
Q 39.65625 6.390625 43.53125 10.953125 
Q 47.40625 15.53125 47.40625 23.390625 
Q 47.40625 31.296875 43.53125 35.828125 
Q 39.65625 40.375 33.015625 40.375 
z
M 52.59375 71.296875 
L 52.59375 62.3125 
Q 48.875 64.0625 45.09375 64.984375 
Q 41.3125 65.921875 37.59375 65.921875 
Q 27.828125 65.921875 22.671875 59.328125 
Q 17.53125 52.734375 16.796875 39.40625 
Q 19.671875 43.65625 24.015625 45.921875 
Q 28.375 48.1875 33.59375 48.1875 
Q 44.578125 48.1875 50.953125 41.515625 
Q 57.328125 34.859375 57.328125 23.390625 
Q 57.328125 12.15625 50.6875 5.359375 
Q 44.046875 -1.421875 33.015625 -1.421875 
Q 20.359375 -1.421875 13.671875 8.265625 
Q 6.984375 17.96875 6.984375 36.375 
Q 6.984375 53.65625 15.1875 63.9375 
Q 23.390625 74.21875 37.203125 74.21875 
Q 40.921875 74.21875 44.703125 73.484375 
Q 48.484375 72.75 52.59375 71.296875 
z
" id="DejaVuSans-54"/>
       </defs>
       <use xlink:href="#DejaVuSans-54"/>
       <use x="63.623047" xlink:href="#DejaVuSans-48"/>
      </g>
     </g>
    </g>
    <g id="xtick_4">
     <g id="line2d_4">
      <g>
       <use style="stroke:#000000;stroke-width:0.8;" x="239.664249" xlink:href="#m2398dccb17" y="307.584"/>
      </g>
     </g>
     <g id="text_4">
      <!-- 80 -->
      <g transform="translate(233.301749 322.182437)scale(0.1 -0.1)">
       <defs>
        <path d="M 31.78125 34.625 
Q 24.75 34.625 20.71875 30.859375 
Q 16.703125 27.09375 16.703125 20.515625 
Q 16.703125 13.921875 20.71875 10.15625 
Q 24.75 6.390625 31.78125 6.390625 
Q 38.8125 6.390625 42.859375 10.171875 
Q 46.921875 13.96875 46.921875 20.515625 
Q 46.921875 27.09375 42.890625 30.859375 
Q 38.875 34.625 31.78125 34.625 
z
M 21.921875 38.8125 
Q 15.578125 40.375 12.03125 44.71875 
Q 8.5 49.078125 8.5 55.328125 
Q 8.5 64.0625 14.71875 69.140625 
Q 20.953125 74.21875 31.78125 74.21875 
Q 42.671875 74.21875 48.875 69.140625 
Q 55.078125 64.0625 55.078125 55.328125 
Q 55.078125 49.078125 51.53125 44.71875 
Q 48 40.375 41.703125 38.8125 
Q 48.828125 37.15625 52.796875 32.3125 
Q 56.78125 27.484375 56.78125 20.515625 
Q 56.78125 9.90625 50.3125 4.234375 
Q 43.84375 -1.421875 31.78125 -1.421875 
Q 19.734375 -1.421875 13.25 4.234375 
Q 6.78125 9.90625 6.78125 20.515625 
Q 6.78125 27.484375 10.78125 32.3125 
Q 14.796875 37.15625 21.921875 38.8125 
z
M 18.3125 54.390625 
Q 18.3125 48.734375 21.84375 45.5625 
Q 25.390625 42.390625 31.78125 42.390625 
Q 38.140625 42.390625 41.71875 45.5625 
Q 45.3125 48.734375 45.3125 54.390625 
Q 45.3125 60.0625 41.71875 63.234375 
Q 38.140625 66.40625 31.78125 66.40625 
Q 25.390625 66.40625 21.84375 63.234375 
Q 18.3125 60.0625 18.3125 54.390625 
z
" id="DejaVuSans-56"/>
       </defs>
       <use xlink:href="#DejaVuSans-56"/>
       <use x="63.623047" xlink:href="#DejaVuSans-48"/>
      </g>
     </g>
    </g>
    <g id="xtick_5">
     <g id="line2d_5">
      <g>
       <use style="stroke:#000000;stroke-width:0.8;" x="286.904147" xlink:href="#m2398dccb17" y="307.584"/>
      </g>
     </g>
     <g id="text_5">
      <!-- 100 -->
      <g transform="translate(277.360397 322.182437)scale(0.1 -0.1)">
       <defs>
        <path d="M 12.40625 8.296875 
L 28.515625 8.296875 
L 28.515625 63.921875 
L 10.984375 60.40625 
L 10.984375 69.390625 
L 28.421875 72.90625 
L 38.28125 72.90625 
L 38.28125 8.296875 
L 54.390625 8.296875 
L 54.390625 0 
L 12.40625 0 
z
" id="DejaVuSans-49"/>
       </defs>
       <use xlink:href="#DejaVuSans-49"/>
       <use x="63.623047" xlink:href="#DejaVuSans-48"/>
       <use x="127.246094" xlink:href="#DejaVuSans-48"/>
      </g>
     </g>
    </g>
    <g id="xtick_6">
     <g id="line2d_6">
      <g>
       <use style="stroke:#000000;stroke-width:0.8;" x="334.144044" xlink:href="#m2398dccb17" y="307.584"/>
      </g>
     </g>
     <g id="text_6">
      <!-- 120 -->
      <g transform="translate(324.600294 322.182437)scale(0.1 -0.1)">
       <use xlink:href="#DejaVuSans-49"/>
       <use x="63.623047" xlink:href="#DejaVuSans-50"/>
       <use x="127.246094" xlink:href="#DejaVuSans-48"/>
      </g>
     </g>
    </g>
    <g id="xtick_7">
     <g id="line2d_7">
      <g>
       <use style="stroke:#000000;stroke-width:0.8;" x="381.383942" xlink:href="#m2398dccb17" y="307.584"/>
      </g>
     </g>
     <g id="text_7">
      <!-- 140 -->
      <g transform="translate(371.840192 322.182437)scale(0.1 -0.1)">
       <use xlink:href="#DejaVuSans-49"/>
       <use x="63.623047" xlink:href="#DejaVuSans-52"/>
       <use x="127.246094" xlink:href="#DejaVuSans-48"/>
      </g>
     </g>
    </g>
   </g>
   <g id="matplotlib.axis_2">
    <g id="ytick_1">
     <g id="line2d_8">
      <defs>
       <path d="M 0 0 
L -3.5 0 
" id="mb2d85dcbe4" style="stroke:#000000;stroke-width:0.8;"/>
      </defs>
      <g>
       <use style="stroke:#000000;stroke-width:0.8;" x="57.6" xlink:href="#mb2d85dcbe4" y="265.087789"/>
      </g>
     </g>
     <g id="text_8">
      <!-- 0 -->
      <g transform="translate(44.2375 268.887008)scale(0.1 -0.1)">
       <use xlink:href="#DejaVuSans-48"/>
      </g>
     </g>
    </g>
    <g id="ytick_2">
     <g id="line2d_9">
      <g>
       <use style="stroke:#000000;stroke-width:0.8;" x="57.6" xlink:href="#mb2d85dcbe4" y="217.847892"/>
      </g>
     </g>
     <g id="text_9">
      <!-- 20 -->
      <g transform="translate(37.875 221.647111)scale(0.1 -0.1)">
       <use xlink:href="#DejaVuSans-50"/>
       <use x="63.623047" xlink:href="#DejaVuSans-48"/>
      </g>
     </g>
    </g>
    <g id="ytick_3">
     <g id="line2d_10">
      <g>
       <use style="stroke:#000000;stroke-width:0.8;" x="57.6" xlink:href="#mb2d85dcbe4" y="170.607994"/>
      </g>
     </g>
     <g id="text_10">
      <!-- 40 -->
      <g transform="translate(37.875 174.407213)scale(0.1 -0.1)">
       <use xlink:href="#DejaVuSans-52"/>
       <use x="63.623047" xlink:href="#DejaVuSans-48"/>
      </g>
     </g>
    </g>
    <g id="ytick_4">
     <g id="line2d_11">
      <g>
       <use style="stroke:#000000;stroke-width:0.8;" x="57.6" xlink:href="#mb2d85dcbe4" y="123.368097"/>
      </g>
     </g>
     <g id="text_11">
      <!-- 60 -->
      <g transform="translate(37.875 127.167315)scale(0.1 -0.1)">
       <use xlink:href="#DejaVuSans-54"/>
       <use x="63.623047" xlink:href="#DejaVuSans-48"/>
      </g>
     </g>
    </g>
    <g id="ytick_5">
     <g id="line2d_12">
      <g>
       <use style="stroke:#000000;stroke-width:0.8;" x="57.6" xlink:href="#mb2d85dcbe4" y="76.128199"/>
      </g>
     </g>
     <g id="text_12">
      <!-- 80 -->
      <g transform="translate(37.875 79.927418)scale(0.1 -0.1)">
       <use xlink:href="#DejaVuSans-56"/>
       <use x="63.623047" xlink:href="#DejaVuSans-48"/>
      </g>
     </g>
    </g>
   </g>
   <g id="line2d_13">
    <path clip-path="url(#p381560d467)" d="M 387.709364 194.109843 
L 388.191211 191.806898 
L 388.831312 187.1207 
L 389.041529 182.368367 
L 388.831312 177.592413 
L 388.200659 172.842441 
L 387.156657 168.160968 
L 385.704031 163.597593 
L 383.847503 159.197197 
L 382.768071 157.071402 
L 381.591798 155.004656 
L 380.31632 153.004046 
L 378.941639 151.069573 
L 377.472478 149.213045 
L 375.904114 147.436824 
L 374.248355 145.740912 
L 370.691191 142.590011 
L 366.852949 139.765065 
L 362.787956 137.263713 
L 358.545814 135.081229 
L 354.176123 133.217615 
L 349.702505 131.651613 
L 345.143855 130.359602 
L 340.523793 129.317962 
L 335.858853 128.507798 
L 331.167931 127.888955 
L 312.397158 125.770245 
L 307.760562 124.924651 
L 300.849365 123.372821 
L 284.75237 119.501511 
L 277.805743 118.089038 
L 270.826048 116.865525 
L 263.813285 115.835695 
L 247.421041 113.617782 
L 242.774997 112.79817 
L 235.854352 111.295941 
L 226.633124 109.224471 
L 221.982356 108.374153 
L 217.279624 107.776569 
L 212.534376 107.486043 
L 207.774957 107.535645 
L 203.039157 107.946632 
L 198.360045 108.747348 
L 193.770689 109.95669 
L 189.304157 111.57938 
L 184.991154 113.5918 
L 180.862387 115.972691 
L 176.950923 118.696071 
L 173.287469 121.73832 
L 169.893283 125.073457 
L 166.775449 128.666051 
L 163.943418 132.485397 
L 161.406635 136.493702 
L 159.17455 140.660261 
L 157.207008 144.949644 
L 154.575746 151.530162 
L 150.345413 162.581936 
L 147.544087 169.101041 
L 144.497114 175.502048 
L 141.197407 181.770782 
L 137.663863 187.907245 
L 132.717845 195.959285 
L 122.634489 211.957077 
L 119.960711 215.849644 
L 117.119231 219.628836 
L 114.055724 223.259222 
L 110.751293 226.695925 
L 107.215387 229.891704 
L 103.455091 232.801681 
L 99.484577 235.378618 
L 97.422556 236.526547 
L 95.310932 237.572911 
L 93.152069 238.512985 
L 90.948328 239.339683 
L 88.697347 240.04592 
L 86.40385 240.629332 
L 84.067837 241.082835 
L 81.689308 241.399343 
L 79.272987 241.571768 
L 76.816513 241.59775 
L 74.324608 241.467841 
L 74.324608 241.467841 
" style="fill:none;stroke:#fea952;stroke-linecap:square;"/>
   </g>
   <g id="line2d_14">
    <path clip-path="url(#p381560d467)" d="M 378.461638 192.174934 
L 379.176533 188.411588 
L 379.543835 184.543101 
L 379.562265 180.605147 
L 379.229624 176.654451 
L 378.552605 172.741932 
L 377.545404 168.929125 
L 376.207978 165.24621 
L 374.556855 161.744757 
L 372.614863 158.476877 
L 370.390225 155.466524 
L 367.82127 152.666003 
L 364.928392 150.076964 
L 361.740104 147.710072 
L 358.310343 145.583286 
L 354.688608 143.705978 
L 350.910342 142.083223 
L 346.99024 140.701913 
L 342.947864 139.548831 
L 338.799706 138.607302 
L 334.538552 137.86307 
L 330.139081 137.280748 
L 310.796322 135.081617 
L 305.811318 134.169367 
L 298.613431 132.552413 
L 280.55983 128.266869 
L 273.858694 126.966304 
L 267.12321 125.85002 
L 257.926136 124.600306 
L 248.318058 123.314921 
L 243.381893 122.517159 
L 238.448113 121.556488 
L 220.64357 117.726798 
L 216.537764 117.195377 
L 212.459395 116.933725 
L 208.40405 116.962657 
L 204.43056 117.291594 
L 200.560679 117.935467 
L 196.795007 118.907545 
L 193.111737 120.226151 
L 189.531729 121.877178 
L 186.096699 123.838204 
L 182.83473 126.088306 
L 179.773298 128.608425 
L 176.907511 131.403142 
L 174.255414 134.437918 
L 171.831987 137.684895 
L 169.658082 141.095652 
L 167.710347 144.710506 
L 165.92542 148.590195 
L 163.418285 154.857897 
L 159.072747 166.201046 
L 156.129634 173.044732 
L 152.915276 179.791437 
L 149.438085 186.391988 
L 145.757928 192.780685 
L 140.721221 200.980271 
L 130.467953 217.239231 
L 127.578708 221.438064 
L 124.430306 225.613191 
L 120.975472 229.69206 
L 117.213155 233.588577 
L 113.14033 237.251008 
L 108.765209 240.616217 
L 106.468922 242.166329 
L 104.080146 243.63362 
L 101.617492 244.992174 
L 99.08294 246.235259 
L 96.470515 247.359014 
L 93.776656 248.354387 
L 91.026518 249.202299 
L 88.204421 249.904151 
L 85.31408 250.448261 
L 82.361794 250.823359 
L 79.372912 251.019219 
L 76.324632 251.032917 
L 73.832727 250.903007 
L 73.832727 250.903007 
" style="fill:none;stroke:#ffffff;stroke-linecap:square;"/>
   </g>
   <g id="line2d_15">
    <path clip-path="url(#p381560d467)" d="M 396.957091 196.044752 
L 397.520412 193.300327 
L 397.95228 190.539631 
L 398.258324 187.749794 
L 398.435296 184.955414 
L 398.487273 182.162821 
L 398.416866 179.355633 
L 398.221505 176.549058 
L 397.903913 173.768594 
L 397.463732 170.982387 
L 396.903915 168.237857 
L 396.221908 165.499097 
L 395.41685 162.791644 
L 394.491615 160.127337 
L 393.442759 157.498979 
L 392.271661 154.919596 
L 390.979287 152.398047 
L 389.558431 149.925575 
L 388.017778 147.531216 
L 386.350435 145.206633 
L 384.554732 142.959565 
L 382.664396 140.836605 
L 380.675441 138.815821 
L 378.606628 136.909647 
L 376.45399 135.103058 
L 374.239585 133.409624 
L 371.965795 131.820059 
L 367.265569 128.944139 
L 362.403019 126.456481 
L 357.441904 124.352008 
L 352.41477 122.601312 
L 347.339845 121.170372 
L 342.247879 120.028622 
L 337.179153 119.152525 
L 332.196781 118.497161 
L 313.997994 116.458874 
L 309.709806 115.679936 
L 303.085298 114.193228 
L 286.724906 110.261737 
L 279.52578 108.798947 
L 272.281138 107.530268 
L 265.039715 106.467654 
L 248.991148 104.30118 
L 242.477094 103.095053 
L 223.321142 99.021508 
L 218.021484 98.35776 
L 212.609358 98.038361 
L 207.145863 98.108633 
L 201.647754 98.60167 
L 198.896303 99.020315 
L 196.159411 99.55923 
L 193.439442 100.220579 
L 190.74637 101.005834 
L 188.093511 101.912396 
L 185.496576 102.932609 
L 182.946181 104.065446 
L 180.450579 105.306421 
L 178.004092 106.65735 
L 175.628075 108.107178 
L 173.317938 109.654553 
L 171.067117 111.303836 
L 168.90168 113.037814 
L 166.80164 114.868215 
L 162.879054 118.743772 
L 159.295485 122.894184 
L 156.054848 127.285899 
L 153.155188 131.891752 
L 150.638753 136.610016 
L 148.488597 141.309092 
L 145.733207 148.202426 
L 141.618079 158.962825 
L 138.95854 165.157351 
L 136.078951 171.212658 
L 132.956729 177.149576 
L 129.569797 183.033805 
L 124.71447 190.9383 
L 113.572716 208.499013 
L 111.078278 211.989312 
L 108.488111 215.263846 
L 105.733616 218.342746 
L 102.806584 221.202051 
L 99.724051 223.802491 
L 96.520348 226.101363 
L 93.22762 228.060921 
L 89.833623 229.666956 
L 86.368175 230.889541 
L 82.821594 231.71741 
L 81.016822 231.975327 
L 79.173062 232.124317 
L 77.308393 232.162584 
L 74.816489 232.032674 
L 74.816489 232.032674 
" style="fill:none;stroke:#ffffff;stroke-linecap:square;"/>
   </g>
   <g id="patch_3">
    <path d="M 57.6 307.584 
L 57.6 41.472 
" style="fill:none;stroke:#000000;stroke-linecap:square;stroke-linejoin:miter;stroke-width:0.8;"/>
   </g>
   <g id="patch_4">
    <path d="M 414.72 307.584 
L 414.72 41.472 
" style="fill:none;stroke:#000000;stroke-linecap:square;stroke-linejoin:miter;stroke-width:0.8;"/>
   </g>
   <g id="patch_5">
    <path d="M 57.6 307.584 
L 414.72 307.584 
" style="fill:none;stroke:#000000;stroke-linecap:square;stroke-linejoin:miter;stroke-width:0.8;"/>
   </g>
   <g id="patch_6">
    <path d="M 57.6 41.472 
L 414.72 41.472 
" style="fill:none;stroke:#000000;stroke-linecap:square;stroke-linejoin:miter;stroke-width:0.8;"/>
   </g>
  </g>
 </g>
 <defs>
  <clipPath id="p381560d467">
   <rect height="266.112" width="357.12" x="57.6" y="41.472"/>
  </clipPath>
 </defs>
</svg>
