<?xml version="1.0" encoding="utf-8" standalone="no"?>
<!DOCTYPE svg PUBLIC "-//W3C//DTD SVG 1.1//EN"
  "http://www.w3.org/Graphics/SVG/1.1/DTD/svg11.dtd">
<!-- Created with matplotlib (https://matplotlib.org/) -->
<svg height="345.6pt" version="1.1" viewBox="0 0 460.8 345.6" width="460.8pt" xmlns="http://www.w3.org/2000/svg" xmlns:xlink="http://www.w3.org/1999/xlink">
 <metadata>
  <rdf:RDF xmlns:cc="http://creativecommons.org/ns#" xmlns:dc="http://purl.org/dc/elements/1.1/" xmlns:rdf="http://www.w3.org/1999/02/22-rdf-syntax-ns#">
   <cc:Work>
    <dc:type rdf:resource="http://purl.org/dc/dcmitype/StillImage"/>
    <dc:date>2021-01-23T12:20:43.977062</dc:date>
    <dc:format>image/svg+xml</dc:format>
    <dc:creator>
     <cc:Agent>
      <dc:title>Matplotlib v3.3.3, https://matplotlib.org/</dc:title>
     </cc:Agent>
    </dc:creator>
   </cc:Work>
  </rdf:RDF>
 </metadata>
 <defs>
  <style type="text/css">*{stroke-linecap:butt;stroke-linejoin:round;}</style>
 </defs>
 <g id="figure_1">
  <g id="patch_1">
   <path d="M 0 345.6 
L 460.8 345.6 
L 460.8 0 
L 0 0 
z
" style="fill:#ffffff;"/>
  </g>
  <g id="axes_1">
   <g id="patch_2">
    <path d="M 57.6 307.584 
L 414.72 307.584 
L 414.72 41.472 
L 57.6 41.472 
z
" style="fill:#7d9051;"/>
   </g>
   <g id="matplotlib.axis_1">
    <g id="xtick_1">
     <g id="line2d_1">
      <defs>
       <path d="M 0 0 
L 0 3.5 
" id="m7044203e6f" style="stroke:#000000;stroke-width:0.8;"/>
      </defs>
      <g>
       <use style="stroke:#000000;stroke-width:0.8;" x="91.082916" xlink:href="#m7044203e6f" y="307.584"/>
      </g>
     </g>
     <g id="text_1">
      <!-- −20 -->
      <g transform="translate(80.530572 322.182437)scale(0.1 -0.1)">
       <defs>
        <path d="M 10.59375 35.5 
L 73.1875 35.5 
L 73.1875 27.203125 
L 10.59375 27.203125 
z
" id="DejaVuSans-8722"/>
        <path d="M 19.1875 8.296875 
L 53.609375 8.296875 
L 53.609375 0 
L 7.328125 0 
L 7.328125 8.296875 
Q 12.9375 14.109375 22.625 23.890625 
Q 32.328125 33.6875 34.8125 36.53125 
Q 39.546875 41.84375 41.421875 45.53125 
Q 43.3125 49.21875 43.3125 52.78125 
Q 43.3125 58.59375 39.234375 62.25 
Q 35.15625 65.921875 28.609375 65.921875 
Q 23.96875 65.921875 18.8125 64.3125 
Q 13.671875 62.703125 7.8125 59.421875 
L 7.8125 69.390625 
Q 13.765625 71.78125 18.9375 73 
Q 24.125 74.21875 28.421875 74.21875 
Q 39.75 74.21875 46.484375 68.546875 
Q 53.21875 62.890625 53.21875 53.421875 
Q 53.21875 48.921875 51.53125 44.890625 
Q 49.859375 40.875 45.40625 35.40625 
Q 44.1875 33.984375 37.640625 27.21875 
Q 31.109375 20.453125 19.1875 8.296875 
z
" id="DejaVuSans-50"/>
        <path d="M 31.78125 66.40625 
Q 24.171875 66.40625 20.328125 58.90625 
Q 16.5 51.421875 16.5 36.375 
Q 16.5 21.390625 20.328125 13.890625 
Q 24.171875 6.390625 31.78125 6.390625 
Q 39.453125 6.390625 43.28125 13.890625 
Q 47.125 21.390625 47.125 36.375 
Q 47.125 51.421875 43.28125 58.90625 
Q 39.453125 66.40625 31.78125 66.40625 
z
M 31.78125 74.21875 
Q 44.046875 74.21875 50.515625 64.515625 
Q 56.984375 54.828125 56.984375 36.375 
Q 56.984375 17.96875 50.515625 8.265625 
Q 44.046875 -1.421875 31.78125 -1.421875 
Q 19.53125 -1.421875 13.0625 8.265625 
Q 6.59375 17.96875 6.59375 36.375 
Q 6.59375 54.828125 13.0625 64.515625 
Q 19.53125 74.21875 31.78125 74.21875 
z
" id="DejaVuSans-48"/>
       </defs>
       <use xlink:href="#DejaVuSans-8722"/>
       <use x="83.789062" xlink:href="#DejaVuSans-50"/>
       <use x="147.412109" xlink:href="#DejaVuSans-48"/>
      </g>
     </g>
    </g>
    <g id="xtick_2">
     <g id="line2d_2">
      <g>
       <use style="stroke:#000000;stroke-width:0.8;" x="137.511026" xlink:href="#m7044203e6f" y="307.584"/>
      </g>
     </g>
     <g id="text_2">
      <!-- 0 -->
      <g transform="translate(134.329776 322.182437)scale(0.1 -0.1)">
       <use xlink:href="#DejaVuSans-48"/>
      </g>
     </g>
    </g>
    <g id="xtick_3">
     <g id="line2d_3">
      <g>
       <use style="stroke:#000000;stroke-width:0.8;" x="183.939136" xlink:href="#m7044203e6f" y="307.584"/>
      </g>
     </g>
     <g id="text_3">
      <!-- 20 -->
      <g transform="translate(177.576636 322.182437)scale(0.1 -0.1)">
       <use xlink:href="#DejaVuSans-50"/>
       <use x="63.623047" xlink:href="#DejaVuSans-48"/>
      </g>
     </g>
    </g>
    <g id="xtick_4">
     <g id="line2d_4">
      <g>
       <use style="stroke:#000000;stroke-width:0.8;" x="230.367246" xlink:href="#m7044203e6f" y="307.584"/>
      </g>
     </g>
     <g id="text_4">
      <!-- 40 -->
      <g transform="translate(224.004746 322.182437)scale(0.1 -0.1)">
       <defs>
        <path d="M 37.796875 64.3125 
L 12.890625 25.390625 
L 37.796875 25.390625 
z
M 35.203125 72.90625 
L 47.609375 72.90625 
L 47.609375 25.390625 
L 58.015625 25.390625 
L 58.015625 17.1875 
L 47.609375 17.1875 
L 47.609375 0 
L 37.796875 0 
L 37.796875 17.1875 
L 4.890625 17.1875 
L 4.890625 26.703125 
z
" id="DejaVuSans-52"/>
       </defs>
       <use xlink:href="#DejaVuSans-52"/>
       <use x="63.623047" xlink:href="#DejaVuSans-48"/>
      </g>
     </g>
    </g>
    <g id="xtick_5">
     <g id="line2d_5">
      <g>
       <use style="stroke:#000000;stroke-width:0.8;" x="276.795356" xlink:href="#m7044203e6f" y="307.584"/>
      </g>
     </g>
     <g id="text_5">
      <!-- 60 -->
      <g transform="translate(270.432856 322.182437)scale(0.1 -0.1)">
       <defs>
        <path d="M 33.015625 40.375 
Q 26.375 40.375 22.484375 35.828125 
Q 18.609375 31.296875 18.609375 23.390625 
Q 18.609375 15.53125 22.484375 10.953125 
Q 26.375 6.390625 33.015625 6.390625 
Q 39.65625 6.390625 43.53125 10.953125 
Q 47.40625 15.53125 47.40625 23.390625 
Q 47.40625 31.296875 43.53125 35.828125 
Q 39.65625 40.375 33.015625 40.375 
z
M 52.59375 71.296875 
L 52.59375 62.3125 
Q 48.875 64.0625 45.09375 64.984375 
Q 41.3125 65.921875 37.59375 65.921875 
Q 27.828125 65.921875 22.671875 59.328125 
Q 17.53125 52.734375 16.796875 39.40625 
Q 19.671875 43.65625 24.015625 45.921875 
Q 28.375 48.1875 33.59375 48.1875 
Q 44.578125 48.1875 50.953125 41.515625 
Q 57.328125 34.859375 57.328125 23.390625 
Q 57.328125 12.15625 50.6875 5.359375 
Q 44.046875 -1.421875 33.015625 -1.421875 
Q 20.359375 -1.421875 13.671875 8.265625 
Q 6.984375 17.96875 6.984375 36.375 
Q 6.984375 53.65625 15.1875 63.9375 
Q 23.390625 74.21875 37.203125 74.21875 
Q 40.921875 74.21875 44.703125 73.484375 
Q 48.484375 72.75 52.59375 71.296875 
z
" id="DejaVuSans-54"/>
       </defs>
       <use xlink:href="#DejaVuSans-54"/>
       <use x="63.623047" xlink:href="#DejaVuSans-48"/>
      </g>
     </g>
    </g>
    <g id="xtick_6">
     <g id="line2d_6">
      <g>
       <use style="stroke:#000000;stroke-width:0.8;" x="323.223467" xlink:href="#m7044203e6f" y="307.584"/>
      </g>
     </g>
     <g id="text_6">
      <!-- 80 -->
      <g transform="translate(316.860967 322.182437)scale(0.1 -0.1)">
       <defs>
        <path d="M 31.78125 34.625 
Q 24.75 34.625 20.71875 30.859375 
Q 16.703125 27.09375 16.703125 20.515625 
Q 16.703125 13.921875 20.71875 10.15625 
Q 24.75 6.390625 31.78125 6.390625 
Q 38.8125 6.390625 42.859375 10.171875 
Q 46.921875 13.96875 46.921875 20.515625 
Q 46.921875 27.09375 42.890625 30.859375 
Q 38.875 34.625 31.78125 34.625 
z
M 21.921875 38.8125 
Q 15.578125 40.375 12.03125 44.71875 
Q 8.5 49.078125 8.5 55.328125 
Q 8.5 64.0625 14.71875 69.140625 
Q 20.953125 74.21875 31.78125 74.21875 
Q 42.671875 74.21875 48.875 69.140625 
Q 55.078125 64.0625 55.078125 55.328125 
Q 55.078125 49.078125 51.53125 44.71875 
Q 48 40.375 41.703125 38.8125 
Q 48.828125 37.15625 52.796875 32.3125 
Q 56.78125 27.484375 56.78125 20.515625 
Q 56.78125 9.90625 50.3125 4.234375 
Q 43.84375 -1.421875 31.78125 -1.421875 
Q 19.734375 -1.421875 13.25 4.234375 
Q 6.78125 9.90625 6.78125 20.515625 
Q 6.78125 27.484375 10.78125 32.3125 
Q 14.796875 37.15625 21.921875 38.8125 
z
M 18.3125 54.390625 
Q 18.3125 48.734375 21.84375 45.5625 
Q 25.390625 42.390625 31.78125 42.390625 
Q 38.140625 42.390625 41.71875 45.5625 
Q 45.3125 48.734375 45.3125 54.390625 
Q 45.3125 60.0625 41.71875 63.234375 
Q 38.140625 66.40625 31.78125 66.40625 
Q 25.390625 66.40625 21.84375 63.234375 
Q 18.3125 60.0625 18.3125 54.390625 
z
" id="DejaVuSans-56"/>
       </defs>
       <use xlink:href="#DejaVuSans-56"/>
       <use x="63.623047" xlink:href="#DejaVuSans-48"/>
      </g>
     </g>
    </g>
    <g id="xtick_7">
     <g id="line2d_7">
      <g>
       <use style="stroke:#000000;stroke-width:0.8;" x="369.651577" xlink:href="#m7044203e6f" y="307.584"/>
      </g>
     </g>
     <g id="text_7">
      <!-- 100 -->
      <g transform="translate(360.107827 322.182437)scale(0.1 -0.1)">
       <defs>
        <path d="M 12.40625 8.296875 
L 28.515625 8.296875 
L 28.515625 63.921875 
L 10.984375 60.40625 
L 10.984375 69.390625 
L 28.421875 72.90625 
L 38.28125 72.90625 
L 38.28125 8.296875 
L 54.390625 8.296875 
L 54.390625 0 
L 12.40625 0 
z
" id="DejaVuSans-49"/>
       </defs>
       <use xlink:href="#DejaVuSans-49"/>
       <use x="63.623047" xlink:href="#DejaVuSans-48"/>
       <use x="127.246094" xlink:href="#DejaVuSans-48"/>
      </g>
     </g>
    </g>
   </g>
   <g id="matplotlib.axis_2">
    <g id="ytick_1">
     <g id="line2d_8">
      <defs>
       <path d="M 0 0 
L -3.5 0 
" id="m2800c82e5f" style="stroke:#000000;stroke-width:0.8;"/>
      </defs>
      <g>
       <use style="stroke:#000000;stroke-width:0.8;" x="57.6" xlink:href="#m2800c82e5f" y="271.868146"/>
      </g>
     </g>
     <g id="text_8">
      <!-- 20 -->
      <g transform="translate(37.875 275.667365)scale(0.1 -0.1)">
       <use xlink:href="#DejaVuSans-50"/>
       <use x="63.623047" xlink:href="#DejaVuSans-48"/>
      </g>
     </g>
    </g>
    <g id="ytick_2">
     <g id="line2d_9">
      <g>
       <use style="stroke:#000000;stroke-width:0.8;" x="57.6" xlink:href="#m2800c82e5f" y="225.440036"/>
      </g>
     </g>
     <g id="text_9">
      <!-- 40 -->
      <g transform="translate(37.875 229.239255)scale(0.1 -0.1)">
       <use xlink:href="#DejaVuSans-52"/>
       <use x="63.623047" xlink:href="#DejaVuSans-48"/>
      </g>
     </g>
    </g>
    <g id="ytick_3">
     <g id="line2d_10">
      <g>
       <use style="stroke:#000000;stroke-width:0.8;" x="57.6" xlink:href="#m2800c82e5f" y="179.011926"/>
      </g>
     </g>
     <g id="text_10">
      <!-- 60 -->
      <g transform="translate(37.875 182.811145)scale(0.1 -0.1)">
       <use xlink:href="#DejaVuSans-54"/>
       <use x="63.623047" xlink:href="#DejaVuSans-48"/>
      </g>
     </g>
    </g>
    <g id="ytick_4">
     <g id="line2d_11">
      <g>
       <use style="stroke:#000000;stroke-width:0.8;" x="57.6" xlink:href="#m2800c82e5f" y="132.583816"/>
      </g>
     </g>
     <g id="text_11">
      <!-- 80 -->
      <g transform="translate(37.875 136.383034)scale(0.1 -0.1)">
       <use xlink:href="#DejaVuSans-56"/>
       <use x="63.623047" xlink:href="#DejaVuSans-48"/>
      </g>
     </g>
    </g>
    <g id="ytick_5">
     <g id="line2d_12">
      <g>
       <use style="stroke:#000000;stroke-width:0.8;" x="57.6" xlink:href="#m2800c82e5f" y="86.155705"/>
      </g>
     </g>
     <g id="text_12">
      <!-- 100 -->
      <g transform="translate(31.5125 89.954924)scale(0.1 -0.1)">
       <use xlink:href="#DejaVuSans-49"/>
       <use x="63.623047" xlink:href="#DejaVuSans-48"/>
       <use x="127.246094" xlink:href="#DejaVuSans-48"/>
      </g>
     </g>
    </g>
   </g>
   <g id="line2d_13">
    <path clip-path="url(#p38216fb27f)" d="M 172.580499 295.082201 
L 172.733712 290.499747 
L 172.717462 283.516959 
L 172.601392 271.738147 
L 172.717462 267.025694 
L 173.02853 262.338776 
L 173.599596 257.698287 
L 174.49798 253.118154 
L 175.793324 248.614627 
L 176.605816 246.402328 
L 177.534378 244.222528 
L 178.574368 242.089156 
L 179.725785 240.01382 
L 180.98863 238.003483 
L 182.362902 236.072073 
L 183.843958 234.228877 
L 185.434121 232.485502 
L 187.13339 230.848911 
L 188.939444 229.333033 
L 190.847639 227.944832 
L 192.84869 226.686631 
L 194.930991 225.558428 
L 197.082934 224.557902 
L 199.297555 223.689696 
L 201.558604 222.951489 
L 203.854474 222.345602 
L 206.178201 221.869714 
L 208.518178 221.528468 
L 210.858154 221.31722 
L 213.19581 221.235971 
L 217.854871 221.407755 
L 222.497682 221.932392 
L 227.126564 222.696135 
L 243.274261 225.706998 
L 247.903143 226.294313 
L 252.559883 226.614667 
L 257.251443 226.591453 
L 261.966218 226.161993 
L 264.313159 225.785925 
L 266.634564 225.29843 
L 268.928113 224.694865 
L 271.179876 223.970586 
L 273.378247 223.127916 
L 275.518583 222.15989 
L 277.586956 221.061865 
L 279.574079 219.836163 
L 281.47531 218.480462 
L 283.29297 217.00637 
L 285.024739 215.423171 
L 286.670615 213.742474 
L 288.235243 211.971241 
L 291.118428 208.205921 
L 293.678939 204.208461 
L 295.921416 200.053145 
L 297.848183 195.774795 
L 299.46156 191.382696 
L 300.761547 186.886133 
L 301.748144 182.299036 
L 302.41903 177.628368 
L 302.753313 172.908951 
L 302.711527 168.191855 
L 302.263496 163.518865 
L 301.8735 161.21371 
L 301.372076 158.938732 
L 300.74994 156.698576 
L 299.169063 152.320405 
L 297.209796 148.076876 
L 294.95339 143.951738 
L 292.483415 139.933385 
L 288.550954 134.071837 
L 283.109579 126.478519 
L 272.157188 111.396348 
L 257.249122 90.464234 
L 254.340401 86.810342 
L 251.259896 83.295734 
L 247.956536 79.959874 
L 244.409428 76.846869 
L 240.634823 74.010112 
L 236.655934 71.500672 
L 232.489011 69.369622 
L 230.339389 68.461953 
L 228.152625 67.665711 
L 223.676956 66.386616 
L 219.09218 65.462697 
L 214.43544 64.819667 
L 209.74388 64.380922 
L 202.705378 63.953783 
L 193.368685 63.635751 
L 160.725081 62.84183 
L 160.725081 62.84183 
" style="fill:none;stroke:#fea952;stroke-linecap:square;"/>
   </g>
   <g id="line2d_14">
    <path clip-path="url(#p38216fb27f)" d="M 163.303748 294.676402 
L 163.448389 290.425241 
L 163.433002 283.663894 
L 163.316921 271.591935 
L 163.44555 266.521287 
L 163.795403 261.352804 
L 164.454154 256.090906 
L 165.51678 250.760013 
L 166.230464 248.081455 
L 167.07695 245.41344 
L 168.063003 242.763217 
L 169.187707 240.153639 
L 170.454705 237.584287 
L 171.862836 235.074507 
L 173.42279 232.620097 
L 175.124517 230.25584 
L 176.983498 227.971333 
L 178.9927 225.797388 
L 181.163739 223.736524 
L 183.476817 221.824205 
L 185.904974 220.08399 
L 188.425225 218.522334 
L 191.016174 217.138393 
L 193.693793 215.912874 
L 196.415616 214.862624 
L 199.18922 213.973249 
L 201.99149 213.248786 
L 204.838222 212.681285 
L 207.683288 212.280455 
L 210.535611 212.037201 
L 213.334524 211.951385 
L 216.071771 212.001193 
L 221.367768 212.42377 
L 226.421339 213.144362 
L 233.557852 214.480846 
L 242.420717 216.169496 
L 246.64021 216.804044 
L 250.71588 217.218896 
L 254.670768 217.366693 
L 258.555641 217.205707 
L 262.404804 216.698519 
L 266.084858 215.855256 
L 269.551738 214.667384 
L 272.712146 213.158764 
L 274.183035 212.275778 
L 275.626456 211.268411 
L 278.390447 208.92633 
L 280.994163 206.158364 
L 283.402114 203.04053 
L 285.587765 199.65262 
L 287.52461 196.088751 
L 289.192213 192.4137 
L 290.588352 188.646099 
L 291.720116 184.770641 
L 292.581321 180.818452 
L 293.170504 176.79919 
L 293.468337 172.799393 
L 293.450729 168.870369 
L 293.10798 165.067835 
L 292.425081 161.423494 
L 291.354369 157.850744 
L 289.876758 154.23527 
L 288.036182 150.578533 
L 285.879513 146.874145 
L 282.230717 141.268089 
L 278.322882 135.692128 
L 257.830203 107.180789 
L 251.237284 97.915937 
L 247.273977 92.83433 
L 244.552914 89.717508 
L 241.703983 86.824884 
L 238.685884 84.158765 
L 235.515828 81.757284 
L 232.233348 79.665445 
L 228.876989 77.923924 
L 225.400374 76.534075 
L 221.684118 75.455871 
L 217.696793 74.642875 
L 213.483393 74.056354 
L 209.094015 73.643775 
L 202.300038 73.230554 
L 193.165062 72.91914 
L 160.257262 72.11566 
L 160.257262 72.11566 
" style="fill:none;stroke:#ffffff;stroke-linecap:square;"/>
   </g>
   <g id="line2d_15">
    <path clip-path="url(#p38216fb27f)" d="M 181.85725 295.488 
L 182.019035 290.574253 
L 182.001921 283.370024 
L 181.885862 271.884359 
L 181.989374 267.530101 
L 182.261657 263.324749 
L 182.745038 259.305668 
L 183.47918 255.476294 
L 184.509698 251.815814 
L 185.88105 248.291417 
L 187.588734 244.953132 
L 189.601286 241.888306 
L 191.875542 239.173616 
L 193.103041 237.961297 
L 194.40207 236.84186 
L 195.790303 235.805675 
L 197.272155 234.850927 
L 200.472075 233.202929 
L 203.927988 231.929729 
L 207.51818 231.058143 
L 211.180697 230.597238 
L 214.98123 230.54039 
L 218.989426 230.842092 
L 223.207549 231.435416 
L 229.929827 232.694263 
L 239.508207 234.510935 
L 244.532551 235.255301 
L 249.73786 235.764369 
L 255.128951 235.932284 
L 257.880612 235.855735 
L 260.664342 235.656845 
L 263.43538 235.330654 
L 266.221514 234.873332 
L 268.997693 234.278319 
L 271.771369 233.534473 
L 274.503402 232.641051 
L 277.204757 231.588448 
L 279.872513 230.361479 
L 282.461766 228.964966 
L 284.965123 227.396548 
L 287.324164 225.692514 
L 289.558336 223.859688 
L 291.659031 221.920012 
L 293.629865 219.889963 
L 295.476323 217.784118 
L 297.21841 215.59843 
L 298.834743 213.371313 
L 301.770112 208.764302 
L 304.318223 204.017539 
L 306.504153 199.13589 
L 308.334767 194.119292 
L 309.802977 189.001626 
L 310.914967 183.77962 
L 311.667557 178.457546 
L 312.038288 173.018508 
L 312.062738 170.273749 
L 311.972326 167.513341 
L 311.760693 164.753224 
L 311.419012 161.969896 
L 310.941474 159.215054 
L 310.319072 156.453971 
L 309.55534 153.751084 
L 308.669097 151.135738 
L 307.672547 148.590321 
L 305.423226 143.745324 
L 302.914132 139.171637 
L 300.256968 134.854542 
L 296.147202 128.731444 
L 290.598728 120.988945 
L 279.733757 106.028072 
L 264.57676 84.760858 
L 261.406825 80.786354 
L 257.966877 76.87396 
L 254.209088 73.094864 
L 250.132972 69.534973 
L 245.753817 66.26294 
L 243.456413 64.754949 
L 241.078519 63.3359 
L 238.624992 62.018784 
L 236.101032 60.815321 
L 233.516404 59.736739 
L 230.904876 58.797346 
L 228.28096 57.992899 
L 223.070658 56.752012 
L 217.915749 55.895083 
L 212.870324 55.3252 
L 205.525588 54.801181 
L 195.93976 54.413597 
L 181.872792 54.156171 
L 168.092925 53.868895 
L 161.1929 53.568 
L 161.1929 53.568 
" style="fill:none;stroke:#ffffff;stroke-linecap:square;"/>
   </g>
   <g id="patch_3">
    <path d="M 57.6 307.584 
L 57.6 41.472 
" style="fill:none;stroke:#000000;stroke-linecap:square;stroke-linejoin:miter;stroke-width:0.8;"/>
   </g>
   <g id="patch_4">
    <path d="M 414.72 307.584 
L 414.72 41.472 
" style="fill:none;stroke:#000000;stroke-linecap:square;stroke-linejoin:miter;stroke-width:0.8;"/>
   </g>
   <g id="patch_5">
    <path d="M 57.6 307.584 
L 414.72 307.584 
" style="fill:none;stroke:#000000;stroke-linecap:square;stroke-linejoin:miter;stroke-width:0.8;"/>
   </g>
   <g id="patch_6">
    <path d="M 57.6 41.472 
L 414.72 41.472 
" style="fill:none;stroke:#000000;stroke-linecap:square;stroke-linejoin:miter;stroke-width:0.8;"/>
   </g>
  </g>
 </g>
 <defs>
  <clipPath id="p38216fb27f">
   <rect height="266.112" width="357.12" x="57.6" y="41.472"/>
  </clipPath>
 </defs>
</svg>
