<?xml version="1.0" encoding="utf-8" standalone="no"?>
<!DOCTYPE svg PUBLIC "-//W3C//DTD SVG 1.1//EN"
  "http://www.w3.org/Graphics/SVG/1.1/DTD/svg11.dtd">
<!-- Created with matplotlib (https://matplotlib.org/) -->
<svg height="345.6pt" version="1.1" viewBox="0 0 460.8 345.6" width="460.8pt" xmlns="http://www.w3.org/2000/svg" xmlns:xlink="http://www.w3.org/1999/xlink">
 <metadata>
  <rdf:RDF xmlns:cc="http://creativecommons.org/ns#" xmlns:dc="http://purl.org/dc/elements/1.1/" xmlns:rdf="http://www.w3.org/1999/02/22-rdf-syntax-ns#">
   <cc:Work>
    <dc:type rdf:resource="http://purl.org/dc/dcmitype/StillImage"/>
    <dc:date>2021-01-23T11:55:57.198937</dc:date>
    <dc:format>image/svg+xml</dc:format>
    <dc:creator>
     <cc:Agent>
      <dc:title>Matplotlib v3.3.3, https://matplotlib.org/</dc:title>
     </cc:Agent>
    </dc:creator>
   </cc:Work>
  </rdf:RDF>
 </metadata>
 <defs>
  <style type="text/css">*{stroke-linecap:butt;stroke-linejoin:round;}</style>
 </defs>
 <g id="figure_1">
  <g id="patch_1">
   <path d="M 0 345.6 
L 460.8 345.6 
L 460.8 0 
L 0 0 
z
" style="fill:#ffffff;"/>
  </g>
  <g id="axes_1">
   <g id="patch_2">
    <path d="M 57.6 307.584 
L 414.72 307.584 
L 414.72 41.472 
L 57.6 41.472 
z
" style="fill:#7d9051;"/>
   </g>
   <g id="matplotlib.axis_1">
    <g id="xtick_1">
     <g id="line2d_1">
      <defs>
       <path d="M 0 0 
L 0 3.5 
" id="mbff2ad972d" style="stroke:#000000;stroke-width:0.8;"/>
      </defs>
      <g>
       <use style="stroke:#000000;stroke-width:0.8;" x="60.811047" xlink:href="#mbff2ad972d" y="307.584"/>
      </g>
     </g>
     <g id="text_1">
      <!-- 0 -->
      <g transform="translate(57.629797 322.182437)scale(0.1 -0.1)">
       <defs>
        <path d="M 31.78125 66.40625 
Q 24.171875 66.40625 20.328125 58.90625 
Q 16.5 51.421875 16.5 36.375 
Q 16.5 21.390625 20.328125 13.890625 
Q 24.171875 6.390625 31.78125 6.390625 
Q 39.453125 6.390625 43.28125 13.890625 
Q 47.125 21.390625 47.125 36.375 
Q 47.125 51.421875 43.28125 58.90625 
Q 39.453125 66.40625 31.78125 66.40625 
z
M 31.78125 74.21875 
Q 44.046875 74.21875 50.515625 64.515625 
Q 56.984375 54.828125 56.984375 36.375 
Q 56.984375 17.96875 50.515625 8.265625 
Q 44.046875 -1.421875 31.78125 -1.421875 
Q 19.53125 -1.421875 13.0625 8.265625 
Q 6.59375 17.96875 6.59375 36.375 
Q 6.59375 54.828125 13.0625 64.515625 
Q 19.53125 74.21875 31.78125 74.21875 
z
" id="DejaVuSans-48"/>
       </defs>
       <use xlink:href="#DejaVuSans-48"/>
      </g>
     </g>
    </g>
    <g id="xtick_2">
     <g id="line2d_2">
      <g>
       <use style="stroke:#000000;stroke-width:0.8;" x="104.43498" xlink:href="#mbff2ad972d" y="307.584"/>
      </g>
     </g>
     <g id="text_2">
      <!-- 20 -->
      <g transform="translate(98.07248 322.182437)scale(0.1 -0.1)">
       <defs>
        <path d="M 19.1875 8.296875 
L 53.609375 8.296875 
L 53.609375 0 
L 7.328125 0 
L 7.328125 8.296875 
Q 12.9375 14.109375 22.625 23.890625 
Q 32.328125 33.6875 34.8125 36.53125 
Q 39.546875 41.84375 41.421875 45.53125 
Q 43.3125 49.21875 43.3125 52.78125 
Q 43.3125 58.59375 39.234375 62.25 
Q 35.15625 65.921875 28.609375 65.921875 
Q 23.96875 65.921875 18.8125 64.3125 
Q 13.671875 62.703125 7.8125 59.421875 
L 7.8125 69.390625 
Q 13.765625 71.78125 18.9375 73 
Q 24.125 74.21875 28.421875 74.21875 
Q 39.75 74.21875 46.484375 68.546875 
Q 53.21875 62.890625 53.21875 53.421875 
Q 53.21875 48.921875 51.53125 44.890625 
Q 49.859375 40.875 45.40625 35.40625 
Q 44.1875 33.984375 37.640625 27.21875 
Q 31.109375 20.453125 19.1875 8.296875 
z
" id="DejaVuSans-50"/>
       </defs>
       <use xlink:href="#DejaVuSans-50"/>
       <use x="63.623047" xlink:href="#DejaVuSans-48"/>
      </g>
     </g>
    </g>
    <g id="xtick_3">
     <g id="line2d_3">
      <g>
       <use style="stroke:#000000;stroke-width:0.8;" x="148.058913" xlink:href="#mbff2ad972d" y="307.584"/>
      </g>
     </g>
     <g id="text_3">
      <!-- 40 -->
      <g transform="translate(141.696413 322.182437)scale(0.1 -0.1)">
       <defs>
        <path d="M 37.796875 64.3125 
L 12.890625 25.390625 
L 37.796875 25.390625 
z
M 35.203125 72.90625 
L 47.609375 72.90625 
L 47.609375 25.390625 
L 58.015625 25.390625 
L 58.015625 17.1875 
L 47.609375 17.1875 
L 47.609375 0 
L 37.796875 0 
L 37.796875 17.1875 
L 4.890625 17.1875 
L 4.890625 26.703125 
z
" id="DejaVuSans-52"/>
       </defs>
       <use xlink:href="#DejaVuSans-52"/>
       <use x="63.623047" xlink:href="#DejaVuSans-48"/>
      </g>
     </g>
    </g>
    <g id="xtick_4">
     <g id="line2d_4">
      <g>
       <use style="stroke:#000000;stroke-width:0.8;" x="191.682846" xlink:href="#mbff2ad972d" y="307.584"/>
      </g>
     </g>
     <g id="text_4">
      <!-- 60 -->
      <g transform="translate(185.320346 322.182437)scale(0.1 -0.1)">
       <defs>
        <path d="M 33.015625 40.375 
Q 26.375 40.375 22.484375 35.828125 
Q 18.609375 31.296875 18.609375 23.390625 
Q 18.609375 15.53125 22.484375 10.953125 
Q 26.375 6.390625 33.015625 6.390625 
Q 39.65625 6.390625 43.53125 10.953125 
Q 47.40625 15.53125 47.40625 23.390625 
Q 47.40625 31.296875 43.53125 35.828125 
Q 39.65625 40.375 33.015625 40.375 
z
M 52.59375 71.296875 
L 52.59375 62.3125 
Q 48.875 64.0625 45.09375 64.984375 
Q 41.3125 65.921875 37.59375 65.921875 
Q 27.828125 65.921875 22.671875 59.328125 
Q 17.53125 52.734375 16.796875 39.40625 
Q 19.671875 43.65625 24.015625 45.921875 
Q 28.375 48.1875 33.59375 48.1875 
Q 44.578125 48.1875 50.953125 41.515625 
Q 57.328125 34.859375 57.328125 23.390625 
Q 57.328125 12.15625 50.6875 5.359375 
Q 44.046875 -1.421875 33.015625 -1.421875 
Q 20.359375 -1.421875 13.671875 8.265625 
Q 6.984375 17.96875 6.984375 36.375 
Q 6.984375 53.65625 15.1875 63.9375 
Q 23.390625 74.21875 37.203125 74.21875 
Q 40.921875 74.21875 44.703125 73.484375 
Q 48.484375 72.75 52.59375 71.296875 
z
" id="DejaVuSans-54"/>
       </defs>
       <use xlink:href="#DejaVuSans-54"/>
       <use x="63.623047" xlink:href="#DejaVuSans-48"/>
      </g>
     </g>
    </g>
    <g id="xtick_5">
     <g id="line2d_5">
      <g>
       <use style="stroke:#000000;stroke-width:0.8;" x="235.306779" xlink:href="#mbff2ad972d" y="307.584"/>
      </g>
     </g>
     <g id="text_5">
      <!-- 80 -->
      <g transform="translate(228.944279 322.182437)scale(0.1 -0.1)">
       <defs>
        <path d="M 31.78125 34.625 
Q 24.75 34.625 20.71875 30.859375 
Q 16.703125 27.09375 16.703125 20.515625 
Q 16.703125 13.921875 20.71875 10.15625 
Q 24.75 6.390625 31.78125 6.390625 
Q 38.8125 6.390625 42.859375 10.171875 
Q 46.921875 13.96875 46.921875 20.515625 
Q 46.921875 27.09375 42.890625 30.859375 
Q 38.875 34.625 31.78125 34.625 
z
M 21.921875 38.8125 
Q 15.578125 40.375 12.03125 44.71875 
Q 8.5 49.078125 8.5 55.328125 
Q 8.5 64.0625 14.71875 69.140625 
Q 20.953125 74.21875 31.78125 74.21875 
Q 42.671875 74.21875 48.875 69.140625 
Q 55.078125 64.0625 55.078125 55.328125 
Q 55.078125 49.078125 51.53125 44.71875 
Q 48 40.375 41.703125 38.8125 
Q 48.828125 37.15625 52.796875 32.3125 
Q 56.78125 27.484375 56.78125 20.515625 
Q 56.78125 9.90625 50.3125 4.234375 
Q 43.84375 -1.421875 31.78125 -1.421875 
Q 19.734375 -1.421875 13.25 4.234375 
Q 6.78125 9.90625 6.78125 20.515625 
Q 6.78125 27.484375 10.78125 32.3125 
Q 14.796875 37.15625 21.921875 38.8125 
z
M 18.3125 54.390625 
Q 18.3125 48.734375 21.84375 45.5625 
Q 25.390625 42.390625 31.78125 42.390625 
Q 38.140625 42.390625 41.71875 45.5625 
Q 45.3125 48.734375 45.3125 54.390625 
Q 45.3125 60.0625 41.71875 63.234375 
Q 38.140625 66.40625 31.78125 66.40625 
Q 25.390625 66.40625 21.84375 63.234375 
Q 18.3125 60.0625 18.3125 54.390625 
z
" id="DejaVuSans-56"/>
       </defs>
       <use xlink:href="#DejaVuSans-56"/>
       <use x="63.623047" xlink:href="#DejaVuSans-48"/>
      </g>
     </g>
    </g>
    <g id="xtick_6">
     <g id="line2d_6">
      <g>
       <use style="stroke:#000000;stroke-width:0.8;" x="278.930712" xlink:href="#mbff2ad972d" y="307.584"/>
      </g>
     </g>
     <g id="text_6">
      <!-- 100 -->
      <g transform="translate(269.386962 322.182437)scale(0.1 -0.1)">
       <defs>
        <path d="M 12.40625 8.296875 
L 28.515625 8.296875 
L 28.515625 63.921875 
L 10.984375 60.40625 
L 10.984375 69.390625 
L 28.421875 72.90625 
L 38.28125 72.90625 
L 38.28125 8.296875 
L 54.390625 8.296875 
L 54.390625 0 
L 12.40625 0 
z
" id="DejaVuSans-49"/>
       </defs>
       <use xlink:href="#DejaVuSans-49"/>
       <use x="63.623047" xlink:href="#DejaVuSans-48"/>
       <use x="127.246094" xlink:href="#DejaVuSans-48"/>
      </g>
     </g>
    </g>
    <g id="xtick_7">
     <g id="line2d_7">
      <g>
       <use style="stroke:#000000;stroke-width:0.8;" x="322.554645" xlink:href="#mbff2ad972d" y="307.584"/>
      </g>
     </g>
     <g id="text_7">
      <!-- 120 -->
      <g transform="translate(313.010895 322.182437)scale(0.1 -0.1)">
       <use xlink:href="#DejaVuSans-49"/>
       <use x="63.623047" xlink:href="#DejaVuSans-50"/>
       <use x="127.246094" xlink:href="#DejaVuSans-48"/>
      </g>
     </g>
    </g>
    <g id="xtick_8">
     <g id="line2d_8">
      <g>
       <use style="stroke:#000000;stroke-width:0.8;" x="366.178578" xlink:href="#mbff2ad972d" y="307.584"/>
      </g>
     </g>
     <g id="text_8">
      <!-- 140 -->
      <g transform="translate(356.634828 322.182437)scale(0.1 -0.1)">
       <use xlink:href="#DejaVuSans-49"/>
       <use x="63.623047" xlink:href="#DejaVuSans-52"/>
       <use x="127.246094" xlink:href="#DejaVuSans-48"/>
      </g>
     </g>
    </g>
    <g id="xtick_9">
     <g id="line2d_9">
      <g>
       <use style="stroke:#000000;stroke-width:0.8;" x="409.802511" xlink:href="#mbff2ad972d" y="307.584"/>
      </g>
     </g>
     <g id="text_9">
      <!-- 160 -->
      <g transform="translate(400.258761 322.182437)scale(0.1 -0.1)">
       <use xlink:href="#DejaVuSans-49"/>
       <use x="63.623047" xlink:href="#DejaVuSans-54"/>
       <use x="127.246094" xlink:href="#DejaVuSans-48"/>
      </g>
     </g>
    </g>
   </g>
   <g id="matplotlib.axis_2">
    <g id="ytick_1">
     <g id="line2d_10">
      <defs>
       <path d="M 0 0 
L -3.5 0 
" id="mfa7f1c24c0" style="stroke:#000000;stroke-width:0.8;"/>
      </defs>
      <g>
       <use style="stroke:#000000;stroke-width:0.8;" x="57.6" xlink:href="#mfa7f1c24c0" y="287.007287"/>
      </g>
     </g>
     <g id="text_10">
      <!-- −20 -->
      <g transform="translate(29.495313 290.806505)scale(0.1 -0.1)">
       <defs>
        <path d="M 10.59375 35.5 
L 73.1875 35.5 
L 73.1875 27.203125 
L 10.59375 27.203125 
z
" id="DejaVuSans-8722"/>
       </defs>
       <use xlink:href="#DejaVuSans-8722"/>
       <use x="83.789062" xlink:href="#DejaVuSans-50"/>
       <use x="147.412109" xlink:href="#DejaVuSans-48"/>
      </g>
     </g>
    </g>
    <g id="ytick_2">
     <g id="line2d_11">
      <g>
       <use style="stroke:#000000;stroke-width:0.8;" x="57.6" xlink:href="#mfa7f1c24c0" y="243.383354"/>
      </g>
     </g>
     <g id="text_11">
      <!-- 0 -->
      <g transform="translate(44.2375 247.182572)scale(0.1 -0.1)">
       <use xlink:href="#DejaVuSans-48"/>
      </g>
     </g>
    </g>
    <g id="ytick_3">
     <g id="line2d_12">
      <g>
       <use style="stroke:#000000;stroke-width:0.8;" x="57.6" xlink:href="#mfa7f1c24c0" y="199.759421"/>
      </g>
     </g>
     <g id="text_12">
      <!-- 20 -->
      <g transform="translate(37.875 203.558639)scale(0.1 -0.1)">
       <use xlink:href="#DejaVuSans-50"/>
       <use x="63.623047" xlink:href="#DejaVuSans-48"/>
      </g>
     </g>
    </g>
    <g id="ytick_4">
     <g id="line2d_13">
      <g>
       <use style="stroke:#000000;stroke-width:0.8;" x="57.6" xlink:href="#mfa7f1c24c0" y="156.135488"/>
      </g>
     </g>
     <g id="text_13">
      <!-- 40 -->
      <g transform="translate(37.875 159.934706)scale(0.1 -0.1)">
       <use xlink:href="#DejaVuSans-52"/>
       <use x="63.623047" xlink:href="#DejaVuSans-48"/>
      </g>
     </g>
    </g>
    <g id="ytick_5">
     <g id="line2d_14">
      <g>
       <use style="stroke:#000000;stroke-width:0.8;" x="57.6" xlink:href="#mfa7f1c24c0" y="112.511555"/>
      </g>
     </g>
     <g id="text_14">
      <!-- 60 -->
      <g transform="translate(37.875 116.310773)scale(0.1 -0.1)">
       <use xlink:href="#DejaVuSans-54"/>
       <use x="63.623047" xlink:href="#DejaVuSans-48"/>
      </g>
     </g>
    </g>
    <g id="ytick_6">
     <g id="line2d_15">
      <g>
       <use style="stroke:#000000;stroke-width:0.8;" x="57.6" xlink:href="#mfa7f1c24c0" y="68.887622"/>
      </g>
     </g>
     <g id="text_15">
      <!-- 80 -->
      <g transform="translate(37.875 72.686841)scale(0.1 -0.1)">
       <use xlink:href="#DejaVuSans-56"/>
       <use x="63.623047" xlink:href="#DejaVuSans-48"/>
      </g>
     </g>
    </g>
   </g>
   <g id="line2d_16">
    <path clip-path="url(#pef1ba844b3)" d="M 388.265375 197.076549 
L 388.812855 194.971694 
L 389.236007 192.829759 
L 389.534831 190.657287 
L 389.711508 188.465184 
L 389.766038 186.257813 
L 389.702783 184.041718 
L 389.519563 181.827803 
L 389.22292 179.622613 
L 388.808493 177.432692 
L 388.282824 175.264582 
L 387.643734 173.129191 
L 386.895583 171.03088 
L 386.038373 168.978374 
L 385.074284 166.978216 
L 384.003317 165.041314 
L 382.827652 163.172028 
L 381.551652 161.376903 
L 380.170954 159.666845 
L 378.692103 158.048397 
L 377.115098 156.528103 
L 375.44212 155.112506 
L 373.681894 153.801607 
L 371.840964 152.597587 
L 369.930236 151.496082 
L 367.958434 150.497094 
L 363.862147 148.808848 
L 359.626263 147.524123 
L 355.318399 146.638557 
L 350.979999 146.11507 
L 346.617606 145.881682 
L 342.246488 145.868595 
L 335.685448 146.112889 
L 311.720641 147.29946 
L 305.166145 147.286373 
L 298.620374 146.983187 
L 294.27543 146.586209 
L 289.954479 146.010373 
L 285.657522 145.260041 
L 279.262254 143.855351 
L 272.921515 142.184554 
L 264.541357 139.69799 
L 254.078157 136.626865 
L 247.733056 135.076034 
L 243.460092 134.225367 
L 236.995025 133.195843 
L 230.481972 132.421518 
L 223.940563 131.854407 
L 217.388248 131.538133 
L 213.023674 131.511959 
L 208.667824 131.666824 
L 204.325061 132.031084 
L 200.00193 132.606919 
L 195.70061 133.368157 
L 189.300979 134.812109 
L 182.975509 136.537436 
L 174.643337 139.137422 
L 147.679385 147.903652 
L 118.582221 157.219542 
L 112.38326 159.374565 
L 108.341503 161.027912 
L 104.421893 162.943002 
L 100.657147 165.19836 
L 97.101797 167.817977 
L 95.420094 169.257567 
L 93.812552 170.780042 
L 92.290077 172.383222 
L 90.857031 174.064924 
L 89.524319 175.818606 
L 88.296306 177.644268 
L 87.183895 179.537547 
L 86.191451 181.49408 
L 85.321154 183.511687 
L 84.568641 185.57728 
L 83.938275 187.686497 
L 83.425694 189.834976 
L 83.033078 192.009629 
L 82.756066 194.208275 
L 82.596839 196.42219 
L 82.553215 198.644829 
L 82.623013 200.867469 
L 82.808415 203.083564 
L 83.107239 205.286573 
L 83.517304 207.46777 
L 84.040791 209.622792 
L 84.675519 211.742915 
L 85.419307 213.821595 
L 86.274336 215.850108 
L 87.236244 217.824091 
L 88.307212 219.732638 
L 89.485058 221.571387 
L 89.485058 221.571387 
" style="fill:none;stroke:#fea952;stroke-linecap:square;"/>
   </g>
   <g id="line2d_17">
    <path clip-path="url(#pef1ba844b3)" d="M 379.821543 194.880278 
L 380.592604 191.640857 
L 380.989383 188.249717 
L 381.007722 184.761309 
L 380.650289 181.244924 
L 379.924351 177.766148 
L 378.844721 174.393248 
L 377.438947 171.200008 
L 375.716343 168.226847 
L 373.730081 165.552171 
L 371.479389 163.188486 
L 368.906328 161.103379 
L 365.987122 159.278997 
L 362.807566 157.748918 
L 359.417276 156.52254 
L 355.908656 155.615879 
L 352.272243 155.015642 
L 348.461315 154.684921 
L 344.501704 154.575654 
L 338.288483 154.722985 
L 327.482615 155.328476 
L 316.362364 155.901989 
L 309.526374 156.046054 
L 302.588367 155.934722 
L 297.905203 155.678612 
L 293.219047 155.246807 
L 288.541356 154.61996 
L 283.92129 153.810328 
L 277.137989 152.317584 
L 270.517731 150.57167 
L 262.003117 148.045399 
L 251.86765 145.066981 
L 245.951506 143.616993 
L 239.942364 142.466875 
L 233.802616 141.57648 
L 227.546005 140.90183 
L 221.331033 140.431364 
L 215.239769 140.227951 
L 211.25509 140.279435 
L 207.33325 140.506148 
L 203.417159 140.926758 
L 199.451184 141.543249 
L 195.48392 142.323334 
L 189.48089 143.776345 
L 183.456317 145.50033 
L 175.329785 148.095887 
L 156.558676 154.240753 
L 119.348544 166.156701 
L 115.572421 167.495596 
L 112.025353 168.93684 
L 108.73187 170.52891 
L 105.658747 172.347199 
L 102.775564 174.445968 
L 100.139092 176.788103 
L 97.803542 179.343927 
L 95.818725 182.064122 
L 94.20271 184.949747 
L 92.928083 188.075604 
L 92.011671 191.385102 
L 91.458375 194.834156 
L 91.273703 198.370977 
L 91.454028 201.910843 
L 91.995535 205.40828 
L 92.89026 208.803538 
L 94.117481 212.0282 
L 95.65395 215.026543 
L 96.831796 216.865291 
L 96.831796 216.865291 
" style="fill:none;stroke:#ffffff;stroke-linecap:square;"/>
   </g>
   <g id="line2d_18">
    <path clip-path="url(#pef1ba844b3)" d="M 396.709206 199.27282 
L 397.372212 196.662646 
L 397.87941 194.018661 
L 398.231418 191.358206 
L 398.433634 188.680652 
L 398.487273 186.008881 
L 398.397845 183.322126 
L 398.166464 180.664619 
L 397.795552 178.000302 
L 397.287618 175.376888 
L 396.641297 172.763017 
L 395.861776 170.199057 
L 394.946445 167.668511 
L 393.897807 165.190075 
L 392.709622 162.756425 
L 391.388819 160.396289 
L 389.93896 158.11721 
L 388.339999 155.896005 
L 386.611827 153.781519 
L 384.747483 151.767134 
L 382.750806 149.867721 
L 380.653377 148.115028 
L 378.45746 146.499836 
L 376.198446 145.038866 
L 373.873349 143.713168 
L 371.481166 142.515098 
L 369.056639 141.45669 
L 366.585064 140.519842 
L 364.097308 139.712278 
L 361.569189 139.018423 
L 359.046912 138.450829 
L 354.032699 137.6551 
L 349.140653 137.248577 
L 344.36239 137.126637 
L 337.453532 137.293399 
L 326.451796 137.909377 
L 315.803705 138.461361 
L 309.543789 138.59649 
L 303.372804 138.50279 
L 299.335544 138.287761 
L 295.331813 137.925611 
L 291.367603 137.400786 
L 287.393754 136.709755 
L 281.386518 135.393117 
L 275.325299 133.797437 
L 267.079598 131.350581 
L 258.509732 128.801631 
L 251.779807 127.045504 
L 247.225131 126.059002 
L 240.40266 124.872407 
L 233.58764 123.979935 
L 226.784461 123.32043 
L 219.8591 122.890063 
L 215.169971 122.778517 
L 210.434226 122.84918 
L 205.657455 123.13723 
L 200.90547 123.658897 
L 196.246994 124.390384 
L 191.637792 125.302908 
L 184.885184 126.942834 
L 178.311165 128.826548 
L 169.816979 131.540024 
L 151.276537 137.60986 
L 113.658537 149.6609 
L 109.1941 151.253533 
L 104.657653 153.118983 
L 100.111915 155.357095 
L 97.863291 156.645289 
L 95.655547 158.049521 
L 93.503168 159.568189 
L 91.42803 161.189986 
L 89.420622 162.922881 
L 87.486012 164.771981 
L 85.649337 166.724381 
L 83.910519 168.785921 
L 82.28488 170.949067 
L 80.773887 173.224413 
L 79.402893 175.590661 
L 78.180192 178.038413 
L 77.123427 180.525187 
L 76.209198 183.078956 
L 75.451674 185.661775 
L 74.839716 188.28485 
L 74.376727 190.918997 
L 74.053758 193.582395 
L 73.873732 196.250981 
L 73.832727 198.918682 
L 73.928601 201.594855 
L 74.162802 204.256286 
L 74.532666 206.898593 
L 75.039073 209.527259 
L 75.682542 212.125107 
L 76.460779 214.682292 
L 77.379538 217.210402 
L 78.431192 219.672016 
L 79.627525 222.09367 
L 80.960473 224.438734 
L 82.13832 226.277483 
L 82.13832 226.277483 
" style="fill:none;stroke:#ffffff;stroke-linecap:square;"/>
   </g>
   <g id="patch_3">
    <path d="M 57.6 307.584 
L 57.6 41.472 
" style="fill:none;stroke:#000000;stroke-linecap:square;stroke-linejoin:miter;stroke-width:0.8;"/>
   </g>
   <g id="patch_4">
    <path d="M 414.72 307.584 
L 414.72 41.472 
" style="fill:none;stroke:#000000;stroke-linecap:square;stroke-linejoin:miter;stroke-width:0.8;"/>
   </g>
   <g id="patch_5">
    <path d="M 57.6 307.584 
L 414.72 307.584 
" style="fill:none;stroke:#000000;stroke-linecap:square;stroke-linejoin:miter;stroke-width:0.8;"/>
   </g>
   <g id="patch_6">
    <path d="M 57.6 41.472 
L 414.72 41.472 
" style="fill:none;stroke:#000000;stroke-linecap:square;stroke-linejoin:miter;stroke-width:0.8;"/>
   </g>
  </g>
 </g>
 <defs>
  <clipPath id="pef1ba844b3">
   <rect height="266.112" width="357.12" x="57.6" y="41.472"/>
  </clipPath>
 </defs>
</svg>
