<?xml version="1.0" encoding="utf-8" standalone="no"?>
<!DOCTYPE svg PUBLIC "-//W3C//DTD SVG 1.1//EN"
  "http://www.w3.org/Graphics/SVG/1.1/DTD/svg11.dtd">
<!-- Created with matplotlib (https://matplotlib.org/) -->
<svg height="345.6pt" version="1.1" viewBox="0 0 460.8 345.6" width="460.8pt" xmlns="http://www.w3.org/2000/svg" xmlns:xlink="http://www.w3.org/1999/xlink">
 <metadata>
  <rdf:RDF xmlns:cc="http://creativecommons.org/ns#" xmlns:dc="http://purl.org/dc/elements/1.1/" xmlns:rdf="http://www.w3.org/1999/02/22-rdf-syntax-ns#">
   <cc:Work>
    <dc:type rdf:resource="http://purl.org/dc/dcmitype/StillImage"/>
    <dc:date>2021-01-23T12:28:47.995799</dc:date>
    <dc:format>image/svg+xml</dc:format>
    <dc:creator>
     <cc:Agent>
      <dc:title>Matplotlib v3.3.3, https://matplotlib.org/</dc:title>
     </cc:Agent>
    </dc:creator>
   </cc:Work>
  </rdf:RDF>
 </metadata>
 <defs>
  <style type="text/css">*{stroke-linecap:butt;stroke-linejoin:round;}</style>
 </defs>
 <g id="figure_1">
  <g id="patch_1">
   <path d="M 0 345.6 
L 460.8 345.6 
L 460.8 0 
L 0 0 
z
" style="fill:#ffffff;"/>
  </g>
  <g id="axes_1">
   <g id="patch_2">
    <path d="M 57.6 307.584 
L 414.72 307.584 
L 414.72 41.472 
L 57.6 41.472 
z
" style="fill:#7d9051;"/>
   </g>
   <g id="matplotlib.axis_1">
    <g id="xtick_1">
     <g id="line2d_1">
      <defs>
       <path d="M 0 0 
L 0 3.5 
" id="m3d375d898a" style="stroke:#000000;stroke-width:0.8;"/>
      </defs>
      <g>
       <use style="stroke:#000000;stroke-width:0.8;" x="74.417387" xlink:href="#m3d375d898a" y="307.584"/>
      </g>
     </g>
     <g id="text_1">
      <!-- −20 -->
      <g transform="translate(63.865043 322.182437)scale(0.1 -0.1)">
       <defs>
        <path d="M 10.59375 35.5 
L 73.1875 35.5 
L 73.1875 27.203125 
L 10.59375 27.203125 
z
" id="DejaVuSans-8722"/>
        <path d="M 19.1875 8.296875 
L 53.609375 8.296875 
L 53.609375 0 
L 7.328125 0 
L 7.328125 8.296875 
Q 12.9375 14.109375 22.625 23.890625 
Q 32.328125 33.6875 34.8125 36.53125 
Q 39.546875 41.84375 41.421875 45.53125 
Q 43.3125 49.21875 43.3125 52.78125 
Q 43.3125 58.59375 39.234375 62.25 
Q 35.15625 65.921875 28.609375 65.921875 
Q 23.96875 65.921875 18.8125 64.3125 
Q 13.671875 62.703125 7.8125 59.421875 
L 7.8125 69.390625 
Q 13.765625 71.78125 18.9375 73 
Q 24.125 74.21875 28.421875 74.21875 
Q 39.75 74.21875 46.484375 68.546875 
Q 53.21875 62.890625 53.21875 53.421875 
Q 53.21875 48.921875 51.53125 44.890625 
Q 49.859375 40.875 45.40625 35.40625 
Q 44.1875 33.984375 37.640625 27.21875 
Q 31.109375 20.453125 19.1875 8.296875 
z
" id="DejaVuSans-50"/>
        <path d="M 31.78125 66.40625 
Q 24.171875 66.40625 20.328125 58.90625 
Q 16.5 51.421875 16.5 36.375 
Q 16.5 21.390625 20.328125 13.890625 
Q 24.171875 6.390625 31.78125 6.390625 
Q 39.453125 6.390625 43.28125 13.890625 
Q 47.125 21.390625 47.125 36.375 
Q 47.125 51.421875 43.28125 58.90625 
Q 39.453125 66.40625 31.78125 66.40625 
z
M 31.78125 74.21875 
Q 44.046875 74.21875 50.515625 64.515625 
Q 56.984375 54.828125 56.984375 36.375 
Q 56.984375 17.96875 50.515625 8.265625 
Q 44.046875 -1.421875 31.78125 -1.421875 
Q 19.53125 -1.421875 13.0625 8.265625 
Q 6.59375 17.96875 6.59375 36.375 
Q 6.59375 54.828125 13.0625 64.515625 
Q 19.53125 74.21875 31.78125 74.21875 
z
" id="DejaVuSans-48"/>
       </defs>
       <use xlink:href="#DejaVuSans-8722"/>
       <use x="83.789062" xlink:href="#DejaVuSans-50"/>
       <use x="147.412109" xlink:href="#DejaVuSans-48"/>
      </g>
     </g>
    </g>
    <g id="xtick_2">
     <g id="line2d_2">
      <g>
       <use style="stroke:#000000;stroke-width:0.8;" x="126.837355" xlink:href="#m3d375d898a" y="307.584"/>
      </g>
     </g>
     <g id="text_2">
      <!-- 0 -->
      <g transform="translate(123.656105 322.182437)scale(0.1 -0.1)">
       <use xlink:href="#DejaVuSans-48"/>
      </g>
     </g>
    </g>
    <g id="xtick_3">
     <g id="line2d_3">
      <g>
       <use style="stroke:#000000;stroke-width:0.8;" x="179.257324" xlink:href="#m3d375d898a" y="307.584"/>
      </g>
     </g>
     <g id="text_3">
      <!-- 20 -->
      <g transform="translate(172.894824 322.182437)scale(0.1 -0.1)">
       <use xlink:href="#DejaVuSans-50"/>
       <use x="63.623047" xlink:href="#DejaVuSans-48"/>
      </g>
     </g>
    </g>
    <g id="xtick_4">
     <g id="line2d_4">
      <g>
       <use style="stroke:#000000;stroke-width:0.8;" x="231.677293" xlink:href="#m3d375d898a" y="307.584"/>
      </g>
     </g>
     <g id="text_4">
      <!-- 40 -->
      <g transform="translate(225.314793 322.182437)scale(0.1 -0.1)">
       <defs>
        <path d="M 37.796875 64.3125 
L 12.890625 25.390625 
L 37.796875 25.390625 
z
M 35.203125 72.90625 
L 47.609375 72.90625 
L 47.609375 25.390625 
L 58.015625 25.390625 
L 58.015625 17.1875 
L 47.609375 17.1875 
L 47.609375 0 
L 37.796875 0 
L 37.796875 17.1875 
L 4.890625 17.1875 
L 4.890625 26.703125 
z
" id="DejaVuSans-52"/>
       </defs>
       <use xlink:href="#DejaVuSans-52"/>
       <use x="63.623047" xlink:href="#DejaVuSans-48"/>
      </g>
     </g>
    </g>
    <g id="xtick_5">
     <g id="line2d_5">
      <g>
       <use style="stroke:#000000;stroke-width:0.8;" x="284.097261" xlink:href="#m3d375d898a" y="307.584"/>
      </g>
     </g>
     <g id="text_5">
      <!-- 60 -->
      <g transform="translate(277.734761 322.182437)scale(0.1 -0.1)">
       <defs>
        <path d="M 33.015625 40.375 
Q 26.375 40.375 22.484375 35.828125 
Q 18.609375 31.296875 18.609375 23.390625 
Q 18.609375 15.53125 22.484375 10.953125 
Q 26.375 6.390625 33.015625 6.390625 
Q 39.65625 6.390625 43.53125 10.953125 
Q 47.40625 15.53125 47.40625 23.390625 
Q 47.40625 31.296875 43.53125 35.828125 
Q 39.65625 40.375 33.015625 40.375 
z
M 52.59375 71.296875 
L 52.59375 62.3125 
Q 48.875 64.0625 45.09375 64.984375 
Q 41.3125 65.921875 37.59375 65.921875 
Q 27.828125 65.921875 22.671875 59.328125 
Q 17.53125 52.734375 16.796875 39.40625 
Q 19.671875 43.65625 24.015625 45.921875 
Q 28.375 48.1875 33.59375 48.1875 
Q 44.578125 48.1875 50.953125 41.515625 
Q 57.328125 34.859375 57.328125 23.390625 
Q 57.328125 12.15625 50.6875 5.359375 
Q 44.046875 -1.421875 33.015625 -1.421875 
Q 20.359375 -1.421875 13.671875 8.265625 
Q 6.984375 17.96875 6.984375 36.375 
Q 6.984375 53.65625 15.1875 63.9375 
Q 23.390625 74.21875 37.203125 74.21875 
Q 40.921875 74.21875 44.703125 73.484375 
Q 48.484375 72.75 52.59375 71.296875 
z
" id="DejaVuSans-54"/>
       </defs>
       <use xlink:href="#DejaVuSans-54"/>
       <use x="63.623047" xlink:href="#DejaVuSans-48"/>
      </g>
     </g>
    </g>
    <g id="xtick_6">
     <g id="line2d_6">
      <g>
       <use style="stroke:#000000;stroke-width:0.8;" x="336.51723" xlink:href="#m3d375d898a" y="307.584"/>
      </g>
     </g>
     <g id="text_6">
      <!-- 80 -->
      <g transform="translate(330.15473 322.182437)scale(0.1 -0.1)">
       <defs>
        <path d="M 31.78125 34.625 
Q 24.75 34.625 20.71875 30.859375 
Q 16.703125 27.09375 16.703125 20.515625 
Q 16.703125 13.921875 20.71875 10.15625 
Q 24.75 6.390625 31.78125 6.390625 
Q 38.8125 6.390625 42.859375 10.171875 
Q 46.921875 13.96875 46.921875 20.515625 
Q 46.921875 27.09375 42.890625 30.859375 
Q 38.875 34.625 31.78125 34.625 
z
M 21.921875 38.8125 
Q 15.578125 40.375 12.03125 44.71875 
Q 8.5 49.078125 8.5 55.328125 
Q 8.5 64.0625 14.71875 69.140625 
Q 20.953125 74.21875 31.78125 74.21875 
Q 42.671875 74.21875 48.875 69.140625 
Q 55.078125 64.0625 55.078125 55.328125 
Q 55.078125 49.078125 51.53125 44.71875 
Q 48 40.375 41.703125 38.8125 
Q 48.828125 37.15625 52.796875 32.3125 
Q 56.78125 27.484375 56.78125 20.515625 
Q 56.78125 9.90625 50.3125 4.234375 
Q 43.84375 -1.421875 31.78125 -1.421875 
Q 19.734375 -1.421875 13.25 4.234375 
Q 6.78125 9.90625 6.78125 20.515625 
Q 6.78125 27.484375 10.78125 32.3125 
Q 14.796875 37.15625 21.921875 38.8125 
z
M 18.3125 54.390625 
Q 18.3125 48.734375 21.84375 45.5625 
Q 25.390625 42.390625 31.78125 42.390625 
Q 38.140625 42.390625 41.71875 45.5625 
Q 45.3125 48.734375 45.3125 54.390625 
Q 45.3125 60.0625 41.71875 63.234375 
Q 38.140625 66.40625 31.78125 66.40625 
Q 25.390625 66.40625 21.84375 63.234375 
Q 18.3125 60.0625 18.3125 54.390625 
z
" id="DejaVuSans-56"/>
       </defs>
       <use xlink:href="#DejaVuSans-56"/>
       <use x="63.623047" xlink:href="#DejaVuSans-48"/>
      </g>
     </g>
    </g>
    <g id="xtick_7">
     <g id="line2d_7">
      <g>
       <use style="stroke:#000000;stroke-width:0.8;" x="388.937199" xlink:href="#m3d375d898a" y="307.584"/>
      </g>
     </g>
     <g id="text_7">
      <!-- 100 -->
      <g transform="translate(379.393449 322.182437)scale(0.1 -0.1)">
       <defs>
        <path d="M 12.40625 8.296875 
L 28.515625 8.296875 
L 28.515625 63.921875 
L 10.984375 60.40625 
L 10.984375 69.390625 
L 28.421875 72.90625 
L 38.28125 72.90625 
L 38.28125 8.296875 
L 54.390625 8.296875 
L 54.390625 0 
L 12.40625 0 
z
" id="DejaVuSans-49"/>
       </defs>
       <use xlink:href="#DejaVuSans-49"/>
       <use x="63.623047" xlink:href="#DejaVuSans-48"/>
       <use x="127.246094" xlink:href="#DejaVuSans-48"/>
      </g>
     </g>
    </g>
   </g>
   <g id="matplotlib.axis_2">
    <g id="ytick_1">
     <g id="line2d_8">
      <defs>
       <path d="M 0 0 
L -3.5 0 
" id="m4cab170097" style="stroke:#000000;stroke-width:0.8;"/>
      </defs>
      <g>
       <use style="stroke:#000000;stroke-width:0.8;" x="57.6" xlink:href="#m4cab170097" y="263.727471"/>
      </g>
     </g>
     <g id="text_8">
      <!-- 20 -->
      <g transform="translate(37.875 267.52669)scale(0.1 -0.1)">
       <use xlink:href="#DejaVuSans-50"/>
       <use x="63.623047" xlink:href="#DejaVuSans-48"/>
      </g>
     </g>
    </g>
    <g id="ytick_2">
     <g id="line2d_9">
      <g>
       <use style="stroke:#000000;stroke-width:0.8;" x="57.6" xlink:href="#m4cab170097" y="211.307503"/>
      </g>
     </g>
     <g id="text_9">
      <!-- 40 -->
      <g transform="translate(37.875 215.106721)scale(0.1 -0.1)">
       <use xlink:href="#DejaVuSans-52"/>
       <use x="63.623047" xlink:href="#DejaVuSans-48"/>
      </g>
     </g>
    </g>
    <g id="ytick_3">
     <g id="line2d_10">
      <g>
       <use style="stroke:#000000;stroke-width:0.8;" x="57.6" xlink:href="#m4cab170097" y="158.887534"/>
      </g>
     </g>
     <g id="text_10">
      <!-- 60 -->
      <g transform="translate(37.875 162.686753)scale(0.1 -0.1)">
       <use xlink:href="#DejaVuSans-54"/>
       <use x="63.623047" xlink:href="#DejaVuSans-48"/>
      </g>
     </g>
    </g>
    <g id="ytick_4">
     <g id="line2d_11">
      <g>
       <use style="stroke:#000000;stroke-width:0.8;" x="57.6" xlink:href="#m4cab170097" y="106.467565"/>
      </g>
     </g>
     <g id="text_11">
      <!-- 80 -->
      <g transform="translate(37.875 110.266784)scale(0.1 -0.1)">
       <use xlink:href="#DejaVuSans-56"/>
       <use x="63.623047" xlink:href="#DejaVuSans-48"/>
      </g>
     </g>
    </g>
    <g id="ytick_5">
     <g id="line2d_12">
      <g>
       <use style="stroke:#000000;stroke-width:0.8;" x="57.6" xlink:href="#m4cab170097" y="54.047597"/>
      </g>
     </g>
     <g id="text_12">
      <!-- 100 -->
      <g transform="translate(31.5125 57.846815)scale(0.1 -0.1)">
       <use xlink:href="#DejaVuSans-49"/>
       <use x="63.623047" xlink:href="#DejaVuSans-48"/>
       <use x="127.246094" xlink:href="#DejaVuSans-48"/>
      </g>
     </g>
    </g>
   </g>
   <g id="line2d_13">
    <path clip-path="url(#p85f171014a)" d="M 153.642306 202.747322 
L 153.760251 192.174214 
L 153.697347 179.019423 
L 153.330408 160.612151 
L 152.879596 142.079071 
L 152.966089 136.784654 
L 153.340891 131.52431 
L 153.673758 128.913796 
L 154.119328 126.319007 
L 154.698569 123.742566 
L 155.414101 121.192334 
L 156.265926 118.670934 
L 157.2488 116.191469 
L 158.362724 113.759183 
L 159.597215 111.387179 
L 160.952271 109.080701 
L 162.422651 106.850231 
L 164.003113 104.703633 
L 165.688415 102.648771 
L 167.475936 100.698748 
L 169.360434 98.850944 
L 171.334046 97.102738 
L 175.498812 93.868426 
L 179.899469 90.919803 
L 184.460006 88.191343 
L 191.434483 84.364685 
L 198.466622 80.742466 
L 205.572148 77.303716 
L 212.774652 74.03271 
L 220.095101 70.96352 
L 225.048788 69.113096 
L 230.068 67.485456 
L 235.157979 66.138262 
L 240.323966 65.131799 
L 245.555479 64.463444 
L 250.828928 64.114852 
L 256.125966 64.059811 
L 261.430867 64.274732 
L 266.717421 64.74127 
L 271.967281 65.47515 
L 277.151615 66.518307 
L 282.246836 67.912678 
L 287.229354 69.70282 
L 289.669504 70.756462 
L 292.067718 71.920185 
L 294.416132 73.19399 
L 296.704264 74.577877 
L 298.924249 76.066604 
L 301.062984 77.662792 
L 303.112605 79.36382 
L 305.06787 81.167067 
L 306.913053 83.075154 
L 308.640291 85.08546 
L 310.244342 87.195364 
L 311.714722 89.399623 
L 313.059294 91.690376 
L 314.270195 94.057138 
L 315.355289 96.492045 
L 316.309332 98.984615 
L 317.137568 101.526983 
L 317.834753 104.111288 
L 318.408752 106.724423 
L 318.851701 109.361147 
L 319.171462 112.008356 
L 319.368037 114.666048 
L 319.441425 117.323741 
L 319.40211 119.978812 
L 318.985371 125.270608 
L 318.154515 130.507363 
L 316.93313 135.652383 
L 315.365773 140.6847 
L 313.541558 145.622661 
L 306.750551 162.800685 
L 305.117669 167.830381 
L 303.712814 172.928222 
L 302.554332 178.086347 
L 301.657951 183.286408 
L 301.036774 188.520542 
L 300.664592 193.775644 
L 300.381525 201.683196 
L 300.056521 212.224852 
L 299.728896 217.477333 
L 298.97929 225.332465 
L 297.970206 233.182355 
L 296.339945 243.671591 
L 295.14477 251.547691 
L 294.539319 256.789688 
L 294.195968 262.008096 
L 294.219557 267.200294 
L 294.395164 269.781978 
L 294.701821 272.350556 
L 295.14477 274.908651 
L 295.739736 277.45364 
L 296.499826 279.985524 
L 297.435522 282.499062 
L 298.55731 284.996873 
L 299.880914 287.476338 
L 301.416819 289.937456 
L 301.416819 289.937456 
" style="fill:none;stroke:#fea952;stroke-linecap:square;"/>
   </g>
   <g id="line2d_14">
    <path clip-path="url(#p85f171014a)" d="M 143.159974 202.560693 
L 143.28152 189.560974 
L 143.177993 176.560403 
L 142.779406 158.256147 
L 142.39573 142.027222 
L 142.497728 136.212328 
L 142.941101 130.198233 
L 143.340998 127.139483 
L 143.890652 124.019376 
L 144.60437 120.910381 
L 145.481615 117.836765 
L 146.51975 114.807492 
L 147.716874 111.826094 
L 149.062832 108.919128 
L 150.557798 106.076522 
L 152.199111 103.310404 
L 153.980119 100.634301 
L 155.896787 98.055205 
L 157.960096 95.564478 
L 160.135871 93.212923 
L 162.408843 91.003046 
L 164.732737 88.957995 
L 167.124014 87.031531 
L 171.974072 83.562363 
L 176.873723 80.481942 
L 181.741009 77.691989 
L 188.975695 73.813119 
L 196.26265 70.137141 
L 203.627332 66.651951 
L 211.13842 63.317119 
L 216.334351 61.17726 
L 221.686654 59.18283 
L 227.23192 57.39235 
L 232.975542 55.883942 
L 238.832546 54.75443 
L 244.712398 54.013404 
L 250.579874 53.633816 
L 256.426273 53.580119 
L 262.227829 53.821074 
L 268.022901 54.338874 
L 273.869232 55.16512 
L 279.73105 56.356583 
L 282.666618 57.109174 
L 285.593329 57.97713 
L 288.493812 58.962928 
L 291.385389 60.077775 
L 294.246428 61.324288 
L 297.066368 62.704567 
L 299.841803 64.223136 
L 302.543439 65.870515 
L 305.194859 67.664606 
L 307.758424 69.595252 
L 310.220256 71.656978 
L 312.60436 73.879033 
L 314.865038 76.242874 
L 316.986251 78.740457 
L 318.965956 81.377497 
L 320.756283 84.09262 
L 322.39265 86.915171 
L 323.846334 89.789622 
L 325.146568 92.744384 
L 326.277699 95.737188 
L 327.259688 98.796269 
L 328.07462 101.862009 
L 328.747869 104.987534 
L 329.260037 108.103903 
L 329.626896 111.235025 
L 329.848036 114.37666 
L 329.92427 117.478965 
L 329.868332 120.588997 
L 329.680151 123.667278 
L 329.369921 126.711179 
L 328.941529 129.741271 
L 328.397817 132.740943 
L 326.990614 138.612305 
L 325.237333 144.21548 
L 323.285026 149.492925 
L 316.686099 166.147177 
L 315.193168 170.728385 
L 313.9136 175.348572 
L 312.86181 180.002081 
L 312.051248 184.662452 
L 311.486679 189.365295 
L 311.137621 194.255007 
L 310.862542 201.932992 
L 310.524788 212.798885 
L 310.176963 218.344522 
L 309.38954 226.573767 
L 308.344 234.698445 
L 306.692782 245.324739 
L 305.546682 252.857023 
L 304.989724 257.628236 
L 304.678764 262.166606 
L 304.679381 266.488814 
L 305.032093 270.56181 
L 305.353506 272.522056 
L 305.781009 274.439179 
L 306.325109 276.327937 
L 306.999291 278.203896 
L 307.805997 280.059678 
L 308.775046 281.925794 
L 310.310951 284.386911 
L 310.310951 284.386911 
" style="fill:none;stroke:#ffffff;stroke-linecap:square;"/>
   </g>
   <g id="line2d_15">
    <path clip-path="url(#p85f171014a)" d="M 164.124639 202.933951 
L 164.244224 192.195078 
L 164.180318 178.872954 
L 163.810627 160.330873 
L 163.363461 142.13092 
L 163.434449 137.35698 
L 163.740682 132.850388 
L 164.348004 128.618639 
L 165.346587 124.547904 
L 166.780726 120.556845 
L 168.636631 116.697836 
L 170.865183 113.066161 
L 173.416734 109.733063 
L 174.816001 108.184573 
L 176.312025 106.698842 
L 179.638077 103.855761 
L 183.37441 101.16034 
L 187.454299 98.584647 
L 191.807686 96.085425 
L 198.569132 92.457755 
L 205.38839 89.015101 
L 212.297665 85.743358 
L 219.264973 82.646259 
L 226.140235 79.869933 
L 230.654373 78.280111 
L 235.133118 76.947188 
L 239.558527 75.914097 
L 244.09762 75.175975 
L 248.727085 74.721215 
L 253.445027 74.535895 
L 258.230105 74.605465 
L 263.031802 74.908205 
L 267.751619 75.433119 
L 272.333731 76.198095 
L 276.758044 77.227455 
L 281.011209 78.550351 
L 285.09258 80.188635 
L 288.990461 82.164844 
L 292.65364 84.468603 
L 296.004954 87.070663 
L 297.53138 88.455102 
L 298.961067 89.907434 
L 300.29433 91.430463 
L 301.522727 93.01323 
L 302.67316 94.706627 
L 303.725938 96.465582 
L 304.694056 98.324653 
L 305.564009 100.239706 
L 307.015447 104.257697 
L 308.069635 108.461312 
L 308.716029 112.781687 
L 308.958581 117.168516 
L 308.814792 121.595247 
L 308.300576 126.052426 
L 307.436754 130.482951 
L 306.229302 134.907016 
L 304.683704 139.426688 
L 301.882757 146.512234 
L 298.798613 154.100901 
L 296.815003 159.454192 
L 295.042169 164.932376 
L 293.512028 170.507873 
L 292.246855 176.170614 
L 291.264654 181.910365 
L 290.586869 187.675789 
L 290.191563 193.296282 
L 289.900507 201.4334 
L 289.588254 211.650819 
L 289.075434 219.09548 
L 288.268578 226.614506 
L 287.224143 234.215133 
L 284.387964 253.075426 
L 283.859418 258.865619 
L 283.675745 264.862466 
L 283.759733 267.911775 
L 283.985098 271.024812 
L 284.371549 274.139302 
L 284.936034 277.295245 
L 285.698464 280.468101 
L 286.674543 283.643112 
L 287.871753 286.794228 
L 289.308622 289.934069 
L 290.986782 293.026882 
L 292.522687 295.488 
L 292.522687 295.488 
" style="fill:none;stroke:#ffffff;stroke-linecap:square;"/>
   </g>
   <g id="patch_3">
    <path d="M 57.6 307.584 
L 57.6 41.472 
" style="fill:none;stroke:#000000;stroke-linecap:square;stroke-linejoin:miter;stroke-width:0.8;"/>
   </g>
   <g id="patch_4">
    <path d="M 414.72 307.584 
L 414.72 41.472 
" style="fill:none;stroke:#000000;stroke-linecap:square;stroke-linejoin:miter;stroke-width:0.8;"/>
   </g>
   <g id="patch_5">
    <path d="M 57.6 307.584 
L 414.72 307.584 
" style="fill:none;stroke:#000000;stroke-linecap:square;stroke-linejoin:miter;stroke-width:0.8;"/>
   </g>
   <g id="patch_6">
    <path d="M 57.6 41.472 
L 414.72 41.472 
" style="fill:none;stroke:#000000;stroke-linecap:square;stroke-linejoin:miter;stroke-width:0.8;"/>
   </g>
  </g>
 </g>
 <defs>
  <clipPath id="p85f171014a">
   <rect height="266.112" width="357.12" x="57.6" y="41.472"/>
  </clipPath>
 </defs>
</svg>
