<?xml version="1.0" encoding="utf-8" standalone="no"?>
<!DOCTYPE svg PUBLIC "-//W3C//DTD SVG 1.1//EN"
  "http://www.w3.org/Graphics/SVG/1.1/DTD/svg11.dtd">
<!-- Created with matplotlib (https://matplotlib.org/) -->
<svg height="345.6pt" version="1.1" viewBox="0 0 460.8 345.6" width="460.8pt" xmlns="http://www.w3.org/2000/svg" xmlns:xlink="http://www.w3.org/1999/xlink">
 <metadata>
  <rdf:RDF xmlns:cc="http://creativecommons.org/ns#" xmlns:dc="http://purl.org/dc/elements/1.1/" xmlns:rdf="http://www.w3.org/1999/02/22-rdf-syntax-ns#">
   <cc:Work>
    <dc:type rdf:resource="http://purl.org/dc/dcmitype/StillImage"/>
    <dc:date>2021-01-22T10:26:10.395100</dc:date>
    <dc:format>image/svg+xml</dc:format>
    <dc:creator>
     <cc:Agent>
      <dc:title>Matplotlib v3.3.3, https://matplotlib.org/</dc:title>
     </cc:Agent>
    </dc:creator>
   </cc:Work>
  </rdf:RDF>
 </metadata>
 <defs>
  <style type="text/css">*{stroke-linecap:butt;stroke-linejoin:round;}</style>
 </defs>
 <g id="figure_1">
  <g id="patch_1">
   <path d="M 0 345.6 
L 460.8 345.6 
L 460.8 0 
L 0 0 
z
" style="fill:#ffffff;"/>
  </g>
  <g id="axes_1">
   <g id="patch_2">
    <path d="M 57.6 307.584 
L 414.72 307.584 
L 414.72 41.472 
L 57.6 41.472 
z
" style="fill:#7d9051;"/>
   </g>
   <g id="matplotlib.axis_1">
    <g id="xtick_1">
     <g id="line2d_1">
      <defs>
       <path d="M 0 0 
L 0 3.5 
" id="m607ba45ba5" style="stroke:#000000;stroke-width:0.8;"/>
      </defs>
      <g>
       <use style="stroke:#000000;stroke-width:0.8;" x="87.653644" xlink:href="#m607ba45ba5" y="307.584"/>
      </g>
     </g>
     <g id="text_1">
      <!-- −20 -->
      <g transform="translate(77.1013 322.182437)scale(0.1 -0.1)">
       <defs>
        <path d="M 10.59375 35.5 
L 73.1875 35.5 
L 73.1875 27.203125 
L 10.59375 27.203125 
z
" id="DejaVuSans-8722"/>
        <path d="M 19.1875 8.296875 
L 53.609375 8.296875 
L 53.609375 0 
L 7.328125 0 
L 7.328125 8.296875 
Q 12.9375 14.109375 22.625 23.890625 
Q 32.328125 33.6875 34.8125 36.53125 
Q 39.546875 41.84375 41.421875 45.53125 
Q 43.3125 49.21875 43.3125 52.78125 
Q 43.3125 58.59375 39.234375 62.25 
Q 35.15625 65.921875 28.609375 65.921875 
Q 23.96875 65.921875 18.8125 64.3125 
Q 13.671875 62.703125 7.8125 59.421875 
L 7.8125 69.390625 
Q 13.765625 71.78125 18.9375 73 
Q 24.125 74.21875 28.421875 74.21875 
Q 39.75 74.21875 46.484375 68.546875 
Q 53.21875 62.890625 53.21875 53.421875 
Q 53.21875 48.921875 51.53125 44.890625 
Q 49.859375 40.875 45.40625 35.40625 
Q 44.1875 33.984375 37.640625 27.21875 
Q 31.109375 20.453125 19.1875 8.296875 
z
" id="DejaVuSans-50"/>
        <path d="M 31.78125 66.40625 
Q 24.171875 66.40625 20.328125 58.90625 
Q 16.5 51.421875 16.5 36.375 
Q 16.5 21.390625 20.328125 13.890625 
Q 24.171875 6.390625 31.78125 6.390625 
Q 39.453125 6.390625 43.28125 13.890625 
Q 47.125 21.390625 47.125 36.375 
Q 47.125 51.421875 43.28125 58.90625 
Q 39.453125 66.40625 31.78125 66.40625 
z
M 31.78125 74.21875 
Q 44.046875 74.21875 50.515625 64.515625 
Q 56.984375 54.828125 56.984375 36.375 
Q 56.984375 17.96875 50.515625 8.265625 
Q 44.046875 -1.421875 31.78125 -1.421875 
Q 19.53125 -1.421875 13.0625 8.265625 
Q 6.59375 17.96875 6.59375 36.375 
Q 6.59375 54.828125 13.0625 64.515625 
Q 19.53125 74.21875 31.78125 74.21875 
z
" id="DejaVuSans-48"/>
       </defs>
       <use xlink:href="#DejaVuSans-8722"/>
       <use x="83.789062" xlink:href="#DejaVuSans-50"/>
       <use x="147.412109" xlink:href="#DejaVuSans-48"/>
      </g>
     </g>
    </g>
    <g id="xtick_2">
     <g id="line2d_2">
      <g>
       <use style="stroke:#000000;stroke-width:0.8;" x="139.01958" xlink:href="#m607ba45ba5" y="307.584"/>
      </g>
     </g>
     <g id="text_2">
      <!-- 0 -->
      <g transform="translate(135.83833 322.182437)scale(0.1 -0.1)">
       <use xlink:href="#DejaVuSans-48"/>
      </g>
     </g>
    </g>
    <g id="xtick_3">
     <g id="line2d_3">
      <g>
       <use style="stroke:#000000;stroke-width:0.8;" x="190.385515" xlink:href="#m607ba45ba5" y="307.584"/>
      </g>
     </g>
     <g id="text_3">
      <!-- 20 -->
      <g transform="translate(184.023015 322.182437)scale(0.1 -0.1)">
       <use xlink:href="#DejaVuSans-50"/>
       <use x="63.623047" xlink:href="#DejaVuSans-48"/>
      </g>
     </g>
    </g>
    <g id="xtick_4">
     <g id="line2d_4">
      <g>
       <use style="stroke:#000000;stroke-width:0.8;" x="241.751451" xlink:href="#m607ba45ba5" y="307.584"/>
      </g>
     </g>
     <g id="text_4">
      <!-- 40 -->
      <g transform="translate(235.388951 322.182437)scale(0.1 -0.1)">
       <defs>
        <path d="M 37.796875 64.3125 
L 12.890625 25.390625 
L 37.796875 25.390625 
z
M 35.203125 72.90625 
L 47.609375 72.90625 
L 47.609375 25.390625 
L 58.015625 25.390625 
L 58.015625 17.1875 
L 47.609375 17.1875 
L 47.609375 0 
L 37.796875 0 
L 37.796875 17.1875 
L 4.890625 17.1875 
L 4.890625 26.703125 
z
" id="DejaVuSans-52"/>
       </defs>
       <use xlink:href="#DejaVuSans-52"/>
       <use x="63.623047" xlink:href="#DejaVuSans-48"/>
      </g>
     </g>
    </g>
    <g id="xtick_5">
     <g id="line2d_5">
      <g>
       <use style="stroke:#000000;stroke-width:0.8;" x="293.117386" xlink:href="#m607ba45ba5" y="307.584"/>
      </g>
     </g>
     <g id="text_5">
      <!-- 60 -->
      <g transform="translate(286.754886 322.182437)scale(0.1 -0.1)">
       <defs>
        <path d="M 33.015625 40.375 
Q 26.375 40.375 22.484375 35.828125 
Q 18.609375 31.296875 18.609375 23.390625 
Q 18.609375 15.53125 22.484375 10.953125 
Q 26.375 6.390625 33.015625 6.390625 
Q 39.65625 6.390625 43.53125 10.953125 
Q 47.40625 15.53125 47.40625 23.390625 
Q 47.40625 31.296875 43.53125 35.828125 
Q 39.65625 40.375 33.015625 40.375 
z
M 52.59375 71.296875 
L 52.59375 62.3125 
Q 48.875 64.0625 45.09375 64.984375 
Q 41.3125 65.921875 37.59375 65.921875 
Q 27.828125 65.921875 22.671875 59.328125 
Q 17.53125 52.734375 16.796875 39.40625 
Q 19.671875 43.65625 24.015625 45.921875 
Q 28.375 48.1875 33.59375 48.1875 
Q 44.578125 48.1875 50.953125 41.515625 
Q 57.328125 34.859375 57.328125 23.390625 
Q 57.328125 12.15625 50.6875 5.359375 
Q 44.046875 -1.421875 33.015625 -1.421875 
Q 20.359375 -1.421875 13.671875 8.265625 
Q 6.984375 17.96875 6.984375 36.375 
Q 6.984375 53.65625 15.1875 63.9375 
Q 23.390625 74.21875 37.203125 74.21875 
Q 40.921875 74.21875 44.703125 73.484375 
Q 48.484375 72.75 52.59375 71.296875 
z
" id="DejaVuSans-54"/>
       </defs>
       <use xlink:href="#DejaVuSans-54"/>
       <use x="63.623047" xlink:href="#DejaVuSans-48"/>
      </g>
     </g>
    </g>
    <g id="xtick_6">
     <g id="line2d_6">
      <g>
       <use style="stroke:#000000;stroke-width:0.8;" x="344.483321" xlink:href="#m607ba45ba5" y="307.584"/>
      </g>
     </g>
     <g id="text_6">
      <!-- 80 -->
      <g transform="translate(338.120821 322.182437)scale(0.1 -0.1)">
       <defs>
        <path d="M 31.78125 34.625 
Q 24.75 34.625 20.71875 30.859375 
Q 16.703125 27.09375 16.703125 20.515625 
Q 16.703125 13.921875 20.71875 10.15625 
Q 24.75 6.390625 31.78125 6.390625 
Q 38.8125 6.390625 42.859375 10.171875 
Q 46.921875 13.96875 46.921875 20.515625 
Q 46.921875 27.09375 42.890625 30.859375 
Q 38.875 34.625 31.78125 34.625 
z
M 21.921875 38.8125 
Q 15.578125 40.375 12.03125 44.71875 
Q 8.5 49.078125 8.5 55.328125 
Q 8.5 64.0625 14.71875 69.140625 
Q 20.953125 74.21875 31.78125 74.21875 
Q 42.671875 74.21875 48.875 69.140625 
Q 55.078125 64.0625 55.078125 55.328125 
Q 55.078125 49.078125 51.53125 44.71875 
Q 48 40.375 41.703125 38.8125 
Q 48.828125 37.15625 52.796875 32.3125 
Q 56.78125 27.484375 56.78125 20.515625 
Q 56.78125 9.90625 50.3125 4.234375 
Q 43.84375 -1.421875 31.78125 -1.421875 
Q 19.734375 -1.421875 13.25 4.234375 
Q 6.78125 9.90625 6.78125 20.515625 
Q 6.78125 27.484375 10.78125 32.3125 
Q 14.796875 37.15625 21.921875 38.8125 
z
M 18.3125 54.390625 
Q 18.3125 48.734375 21.84375 45.5625 
Q 25.390625 42.390625 31.78125 42.390625 
Q 38.140625 42.390625 41.71875 45.5625 
Q 45.3125 48.734375 45.3125 54.390625 
Q 45.3125 60.0625 41.71875 63.234375 
Q 38.140625 66.40625 31.78125 66.40625 
Q 25.390625 66.40625 21.84375 63.234375 
Q 18.3125 60.0625 18.3125 54.390625 
z
" id="DejaVuSans-56"/>
       </defs>
       <use xlink:href="#DejaVuSans-56"/>
       <use x="63.623047" xlink:href="#DejaVuSans-48"/>
      </g>
     </g>
    </g>
    <g id="xtick_7">
     <g id="line2d_7">
      <g>
       <use style="stroke:#000000;stroke-width:0.8;" x="395.849257" xlink:href="#m607ba45ba5" y="307.584"/>
      </g>
     </g>
     <g id="text_7">
      <!-- 100 -->
      <g transform="translate(386.305507 322.182437)scale(0.1 -0.1)">
       <defs>
        <path d="M 12.40625 8.296875 
L 28.515625 8.296875 
L 28.515625 63.921875 
L 10.984375 60.40625 
L 10.984375 69.390625 
L 28.421875 72.90625 
L 38.28125 72.90625 
L 38.28125 8.296875 
L 54.390625 8.296875 
L 54.390625 0 
L 12.40625 0 
z
" id="DejaVuSans-49"/>
       </defs>
       <use xlink:href="#DejaVuSans-49"/>
       <use x="63.623047" xlink:href="#DejaVuSans-48"/>
       <use x="127.246094" xlink:href="#DejaVuSans-48"/>
      </g>
     </g>
    </g>
   </g>
   <g id="matplotlib.axis_2">
    <g id="ytick_1">
     <g id="line2d_8">
      <defs>
       <path d="M 0 0 
L -3.5 0 
" id="mc276f1ab19" style="stroke:#000000;stroke-width:0.8;"/>
      </defs>
      <g>
       <use style="stroke:#000000;stroke-width:0.8;" x="57.6" xlink:href="#mc276f1ab19" y="266.562523"/>
      </g>
     </g>
     <g id="text_8">
      <!-- 20 -->
      <g transform="translate(37.875 270.361741)scale(0.1 -0.1)">
       <use xlink:href="#DejaVuSans-50"/>
       <use x="63.623047" xlink:href="#DejaVuSans-48"/>
      </g>
     </g>
    </g>
    <g id="ytick_2">
     <g id="line2d_9">
      <g>
       <use style="stroke:#000000;stroke-width:0.8;" x="57.6" xlink:href="#mc276f1ab19" y="215.196587"/>
      </g>
     </g>
     <g id="text_9">
      <!-- 40 -->
      <g transform="translate(37.875 218.995806)scale(0.1 -0.1)">
       <use xlink:href="#DejaVuSans-52"/>
       <use x="63.623047" xlink:href="#DejaVuSans-48"/>
      </g>
     </g>
    </g>
    <g id="ytick_3">
     <g id="line2d_10">
      <g>
       <use style="stroke:#000000;stroke-width:0.8;" x="57.6" xlink:href="#mc276f1ab19" y="163.830652"/>
      </g>
     </g>
     <g id="text_10">
      <!-- 60 -->
      <g transform="translate(37.875 167.62987)scale(0.1 -0.1)">
       <use xlink:href="#DejaVuSans-54"/>
       <use x="63.623047" xlink:href="#DejaVuSans-48"/>
      </g>
     </g>
    </g>
    <g id="ytick_4">
     <g id="line2d_11">
      <g>
       <use style="stroke:#000000;stroke-width:0.8;" x="57.6" xlink:href="#mc276f1ab19" y="112.464716"/>
      </g>
     </g>
     <g id="text_11">
      <!-- 80 -->
      <g transform="translate(37.875 116.263935)scale(0.1 -0.1)">
       <use xlink:href="#DejaVuSans-56"/>
       <use x="63.623047" xlink:href="#DejaVuSans-48"/>
      </g>
     </g>
    </g>
    <g id="ytick_5">
     <g id="line2d_12">
      <g>
       <use style="stroke:#000000;stroke-width:0.8;" x="57.6" xlink:href="#mc276f1ab19" y="61.098781"/>
      </g>
     </g>
     <g id="text_12">
      <!-- 100 -->
      <g transform="translate(31.5125 64.898)scale(0.1 -0.1)">
       <use xlink:href="#DejaVuSans-49"/>
       <use x="63.623047" xlink:href="#DejaVuSans-48"/>
       <use x="127.246094" xlink:href="#DejaVuSans-48"/>
      </g>
     </g>
    </g>
   </g>
   <g id="line2d_13">
    <path clip-path="url(#p2e6b013775)" d="M 271.030034 224.34486 
L 270.557467 221.756017 
L 270.197906 219.167174 
L 269.812661 213.997193 
L 269.843481 208.847758 
L 270.264681 203.73171 
L 271.05058 198.661893 
L 272.172926 193.648577 
L 273.600899 188.702038 
L 275.311384 183.837684 
L 277.273563 179.065788 
L 279.46432 174.396625 
L 281.845131 169.83533 
L 285.664189 163.142348 
L 293.458969 149.859117 
L 295.906556 145.351756 
L 298.215455 140.767347 
L 300.354846 136.093047 
L 302.29391 131.310878 
L 304.001828 126.407999 
L 305.419528 121.392116 
L 306.454551 116.296615 
L 306.801271 113.730887 
L 307.019576 111.160021 
L 307.096625 108.58402 
L 307.022145 106.013155 
L 306.785861 103.447426 
L 306.374934 100.891971 
L 305.799635 98.362199 
L 305.059966 95.863246 
L 304.166199 93.407954 
L 303.120902 91.006597 
L 301.931781 88.672015 
L 300.603971 86.411914 
L 299.145179 84.241703 
L 297.557971 82.169088 
L 295.85519 80.206909 
L 294.036836 78.360303 
L 292.113182 76.634408 
L 290.091932 75.021518 
L 287.980792 73.526769 
L 285.792604 72.139889 
L 283.529934 70.866013 
L 281.205626 69.697438 
L 276.400342 67.676189 
L 271.440961 66.063298 
L 266.378848 64.866472 
L 263.820825 64.43243 
L 261.24996 64.113961 
L 258.67139 63.913634 
L 256.090251 63.839153 
L 253.509113 63.890519 
L 250.933112 64.072868 
L 248.367383 64.391337 
L 245.814496 64.848494 
L 243.287292 65.441771 
L 240.788339 66.168599 
L 238.327911 67.02641 
L 235.913712 68.007499 
L 233.556016 69.114435 
L 231.262527 70.339513 
L 229.04095 71.682732 
L 226.89899 73.138956 
L 224.844353 74.705617 
L 222.887311 76.377578 
L 221.020159 78.149703 
L 219.240329 80.00915 
L 215.929795 83.966895 
L 212.919751 88.18147 
L 210.17681 92.583531 
L 207.662448 97.103733 
L 205.345844 101.703553 
L 202.143178 108.712435 
L 198.175159 118.17404 
L 191.471905 134.837149 
L 186.877222 146.86962 
L 184.357723 154.178992 
L 182.89893 159.107554 
L 181.689262 164.09005 
L 180.78779 169.136753 
L 180.212492 174.239959 
L 179.94282 179.381689 
L 179.950525 184.543965 
L 180.21506 189.703673 
L 180.708173 194.842835 
L 182.05396 205.056951 
L 182.92975 212.700203 
L 183.232809 217.805977 
L 183.204557 222.929729 
L 182.857837 228.056049 
L 182.231173 233.174665 
L 181.368225 238.267597 
L 180.307519 243.322005 
L 179.087578 248.327616 
L 177.012394 255.752561 
L 174.708632 263.100459 
L 171.410939 272.821462 
L 164.702547 292.24549 
L 164.702547 292.24549 
" style="fill:none;stroke:#fea952;stroke-linecap:square;"/>
   </g>
   <g id="line2d_14">
    <path clip-path="url(#p2e6b013775)" d="M 260.92384 226.189642 
L 260.381955 223.169283 
L 259.971086 220.142124 
L 259.69293 217.13155 
L 259.540473 214.14043 
L 259.506982 211.151877 
L 259.591395 208.18965 
L 260.08727 202.332188 
L 260.991369 196.57607 
L 262.259836 190.952463 
L 263.864152 185.42574 
L 265.760328 180.054075 
L 267.921548 174.813943 
L 270.310818 169.732746 
L 272.866689 164.84274 
L 276.825253 157.906741 
L 284.467449 144.890119 
L 287.867105 138.523654 
L 289.924305 134.259288 
L 291.78572 129.97075 
L 293.432958 125.630509 
L 294.821437 121.279722 
L 295.882372 117.013453 
L 296.564923 112.861666 
L 296.827747 108.88152 
L 296.792246 106.955248 
L 296.642974 105.078443 
L 296.357511 103.170045 
L 295.948906 101.277933 
L 295.406472 99.377279 
L 294.746729 97.508194 
L 293.966779 95.669258 
L 293.074124 93.875888 
L 292.077957 92.14301 
L 290.988897 90.487777 
L 289.798994 88.902336 
L 288.535171 87.414939 
L 287.17629 86.006954 
L 285.705532 84.664377 
L 284.15555 83.405892 
L 280.752682 81.091847 
L 277.024838 79.081435 
L 273.033625 77.382042 
L 268.868404 76.009168 
L 264.660271 74.994891 
L 260.454241 74.356285 
L 256.294653 74.110307 
L 252.198551 74.26782 
L 248.162361 74.849789 
L 244.170362 75.869129 
L 240.27971 77.30677 
L 236.577899 79.130712 
L 233.128062 81.30823 
L 231.517383 82.516445 
L 229.95946 83.828959 
L 226.983718 86.760321 
L 224.184888 90.081779 
L 221.563317 93.73369 
L 219.09894 97.676071 
L 216.799337 101.800074 
L 214.632826 106.095628 
L 211.57826 112.776619 
L 207.683476 122.063806 
L 201.042515 138.571021 
L 196.542612 150.350798 
L 194.177949 157.195865 
L 192.847588 161.669308 
L 191.770406 166.067148 
L 190.976341 170.452731 
L 190.462698 174.926722 
L 190.215275 179.504345 
L 190.215585 184.135406 
L 190.450616 188.825173 
L 190.906527 193.605121 
L 192.24268 203.742278 
L 192.905048 209.152685 
L 193.382941 214.798786 
L 193.531752 220.592977 
L 193.307122 226.334144 
L 192.75678 231.986435 
L 191.937222 237.552821 
L 190.895179 242.997114 
L 189.678424 248.342132 
L 187.59358 256.172953 
L 185.273501 263.814008 
L 181.958057 273.759577 
L 174.450599 295.488 
L 174.450599 295.488 
" style="fill:none;stroke:#ffffff;stroke-linecap:square;"/>
   </g>
   <g id="line2d_15">
    <path clip-path="url(#p2e6b013775)" d="M 281.136228 222.500079 
L 280.424726 218.192224 
L 280.08485 213.853955 
L 280.095567 209.505865 
L 280.442093 205.131233 
L 281.109791 200.747715 
L 282.086015 196.344691 
L 283.337646 191.978335 
L 284.862441 187.621293 
L 286.625578 183.317633 
L 288.617823 179.060503 
L 290.823574 174.827919 
L 294.503125 168.377955 
L 302.45049 154.828115 
L 305.043212 150.048552 
L 307.514317 145.134215 
L 309.828368 140.066805 
L 311.947692 134.824121 
L 313.840641 129.363692 
L 315.443287 123.642141 
L 316.097007 120.690688 
L 316.635202 117.672379 
L 317.03762 114.600107 
L 317.288171 111.467158 
L 317.365504 108.28652 
L 317.252044 105.071062 
L 316.928748 101.816409 
L 316.392356 98.613897 
L 315.650365 95.446464 
L 314.71346 92.349213 
L 313.585668 89.307714 
L 312.275025 86.343936 
L 310.789437 83.468142 
L 309.129985 80.680818 
L 307.30146 77.995629 
L 305.316949 75.435839 
L 303.175209 72.998879 
L 300.897383 70.713652 
L 298.520832 68.604439 
L 296.028315 66.637143 
L 293.48039 64.849626 
L 290.832526 63.18793 
L 288.144516 61.68756 
L 285.386414 60.313442 
L 282.608761 59.085809 
L 279.76706 57.970336 
L 276.921101 56.991386 
L 274.013518 56.117429 
L 271.072119 55.365953 
L 268.097425 54.738053 
L 265.083774 54.23717 
L 262.045678 53.871637 
L 258.967707 53.644721 
L 255.88585 53.568 
L 252.783714 53.642975 
L 249.667672 53.877917 
L 246.556524 54.27901 
L 243.466631 54.847199 
L 240.418197 55.577356 
L 237.406317 56.468068 
L 234.460233 57.509087 
L 231.547714 58.708228 
L 228.715782 60.05295 
L 225.947154 61.548313 
L 223.26507 63.186993 
L 220.669919 64.969682 
L 218.171322 66.894789 
L 215.815161 68.926198 
L 213.598773 71.046084 
L 211.496941 73.257979 
L 209.532224 75.52453 
L 207.674701 77.852011 
L 204.276185 82.62925 
L 201.25468 87.490991 
L 198.525558 92.407392 
L 196.058861 97.311477 
L 192.708096 104.64825 
L 188.666842 114.284274 
L 181.901295 131.103278 
L 177.211832 143.388441 
L 175.401355 148.525785 
L 173.722406 153.822731 
L 172.243627 159.305889 
L 171.053984 164.968911 
L 170.233251 170.696316 
L 169.774608 176.418933 
L 169.639958 182.116141 
L 169.800236 187.76847 
L 170.220093 193.36107 
L 171.179781 201.352872 
L 172.456201 211.15222 
L 172.856667 215.707394 
L 172.990368 220.140161 
L 172.829753 224.651634 
L 172.393869 229.246847 
L 171.718678 233.897145 
L 170.824226 238.602761 
L 169.755196 243.32033 
L 167.874591 250.40104 
L 165.720697 257.502009 
L 162.543487 267.034403 
L 154.954496 289.002981 
L 154.954496 289.002981 
" style="fill:none;stroke:#ffffff;stroke-linecap:square;"/>
   </g>
   <g id="patch_3">
    <path d="M 57.6 307.584 
L 57.6 41.472 
" style="fill:none;stroke:#000000;stroke-linecap:square;stroke-linejoin:miter;stroke-width:0.8;"/>
   </g>
   <g id="patch_4">
    <path d="M 414.72 307.584 
L 414.72 41.472 
" style="fill:none;stroke:#000000;stroke-linecap:square;stroke-linejoin:miter;stroke-width:0.8;"/>
   </g>
   <g id="patch_5">
    <path d="M 57.6 307.584 
L 414.72 307.584 
" style="fill:none;stroke:#000000;stroke-linecap:square;stroke-linejoin:miter;stroke-width:0.8;"/>
   </g>
   <g id="patch_6">
    <path d="M 57.6 41.472 
L 414.72 41.472 
" style="fill:none;stroke:#000000;stroke-linecap:square;stroke-linejoin:miter;stroke-width:0.8;"/>
   </g>
  </g>
 </g>
 <defs>
  <clipPath id="p2e6b013775">
   <rect height="266.112" width="357.12" x="57.6" y="41.472"/>
  </clipPath>
 </defs>
</svg>
