<?xml version="1.0" encoding="utf-8" standalone="no"?>
<!DOCTYPE svg PUBLIC "-//W3C//DTD SVG 1.1//EN"
  "http://www.w3.org/Graphics/SVG/1.1/DTD/svg11.dtd">
<!-- Created with matplotlib (https://matplotlib.org/) -->
<svg height="345.6pt" version="1.1" viewBox="0 0 460.8 345.6" width="460.8pt" xmlns="http://www.w3.org/2000/svg" xmlns:xlink="http://www.w3.org/1999/xlink">
 <metadata>
  <rdf:RDF xmlns:cc="http://creativecommons.org/ns#" xmlns:dc="http://purl.org/dc/elements/1.1/" xmlns:rdf="http://www.w3.org/1999/02/22-rdf-syntax-ns#">
   <cc:Work>
    <dc:type rdf:resource="http://purl.org/dc/dcmitype/StillImage"/>
    <dc:date>2021-01-22T10:57:10.282584</dc:date>
    <dc:format>image/svg+xml</dc:format>
    <dc:creator>
     <cc:Agent>
      <dc:title>Matplotlib v3.3.3, https://matplotlib.org/</dc:title>
     </cc:Agent>
    </dc:creator>
   </cc:Work>
  </rdf:RDF>
 </metadata>
 <defs>
  <style type="text/css">*{stroke-linecap:butt;stroke-linejoin:round;}</style>
 </defs>
 <g id="figure_1">
  <g id="patch_1">
   <path d="M 0 345.6 
L 460.8 345.6 
L 460.8 0 
L 0 0 
z
" style="fill:#ffffff;"/>
  </g>
  <g id="axes_1">
   <g id="patch_2">
    <path d="M 57.6 307.584 
L 414.72 307.584 
L 414.72 41.472 
L 57.6 41.472 
z
" style="fill:#7d9051;"/>
   </g>
   <g id="matplotlib.axis_1">
    <g id="xtick_1">
     <g id="line2d_1">
      <defs>
       <path d="M 0 0 
L 0 3.5 
" id="m627dd9266d" style="stroke:#000000;stroke-width:0.8;"/>
      </defs>
      <g>
       <use style="stroke:#000000;stroke-width:0.8;" x="60.054986" xlink:href="#m627dd9266d" y="307.584"/>
      </g>
     </g>
     <g id="text_1">
      <!-- −20 -->
      <g transform="translate(49.502643 322.182437)scale(0.1 -0.1)">
       <defs>
        <path d="M 10.59375 35.5 
L 73.1875 35.5 
L 73.1875 27.203125 
L 10.59375 27.203125 
z
" id="DejaVuSans-8722"/>
        <path d="M 19.1875 8.296875 
L 53.609375 8.296875 
L 53.609375 0 
L 7.328125 0 
L 7.328125 8.296875 
Q 12.9375 14.109375 22.625 23.890625 
Q 32.328125 33.6875 34.8125 36.53125 
Q 39.546875 41.84375 41.421875 45.53125 
Q 43.3125 49.21875 43.3125 52.78125 
Q 43.3125 58.59375 39.234375 62.25 
Q 35.15625 65.921875 28.609375 65.921875 
Q 23.96875 65.921875 18.8125 64.3125 
Q 13.671875 62.703125 7.8125 59.421875 
L 7.8125 69.390625 
Q 13.765625 71.78125 18.9375 73 
Q 24.125 74.21875 28.421875 74.21875 
Q 39.75 74.21875 46.484375 68.546875 
Q 53.21875 62.890625 53.21875 53.421875 
Q 53.21875 48.921875 51.53125 44.890625 
Q 49.859375 40.875 45.40625 35.40625 
Q 44.1875 33.984375 37.640625 27.21875 
Q 31.109375 20.453125 19.1875 8.296875 
z
" id="DejaVuSans-50"/>
        <path d="M 31.78125 66.40625 
Q 24.171875 66.40625 20.328125 58.90625 
Q 16.5 51.421875 16.5 36.375 
Q 16.5 21.390625 20.328125 13.890625 
Q 24.171875 6.390625 31.78125 6.390625 
Q 39.453125 6.390625 43.28125 13.890625 
Q 47.125 21.390625 47.125 36.375 
Q 47.125 51.421875 43.28125 58.90625 
Q 39.453125 66.40625 31.78125 66.40625 
z
M 31.78125 74.21875 
Q 44.046875 74.21875 50.515625 64.515625 
Q 56.984375 54.828125 56.984375 36.375 
Q 56.984375 17.96875 50.515625 8.265625 
Q 44.046875 -1.421875 31.78125 -1.421875 
Q 19.53125 -1.421875 13.0625 8.265625 
Q 6.59375 17.96875 6.59375 36.375 
Q 6.59375 54.828125 13.0625 64.515625 
Q 19.53125 74.21875 31.78125 74.21875 
z
" id="DejaVuSans-48"/>
       </defs>
       <use xlink:href="#DejaVuSans-8722"/>
       <use x="83.789062" xlink:href="#DejaVuSans-50"/>
       <use x="147.412109" xlink:href="#DejaVuSans-48"/>
      </g>
     </g>
    </g>
    <g id="xtick_2">
     <g id="line2d_2">
      <g>
       <use style="stroke:#000000;stroke-width:0.8;" x="112.681996" xlink:href="#m627dd9266d" y="307.584"/>
      </g>
     </g>
     <g id="text_2">
      <!-- 0 -->
      <g transform="translate(109.500746 322.182437)scale(0.1 -0.1)">
       <use xlink:href="#DejaVuSans-48"/>
      </g>
     </g>
    </g>
    <g id="xtick_3">
     <g id="line2d_3">
      <g>
       <use style="stroke:#000000;stroke-width:0.8;" x="165.309005" xlink:href="#m627dd9266d" y="307.584"/>
      </g>
     </g>
     <g id="text_3">
      <!-- 20 -->
      <g transform="translate(158.946505 322.182437)scale(0.1 -0.1)">
       <use xlink:href="#DejaVuSans-50"/>
       <use x="63.623047" xlink:href="#DejaVuSans-48"/>
      </g>
     </g>
    </g>
    <g id="xtick_4">
     <g id="line2d_4">
      <g>
       <use style="stroke:#000000;stroke-width:0.8;" x="217.936014" xlink:href="#m627dd9266d" y="307.584"/>
      </g>
     </g>
     <g id="text_4">
      <!-- 40 -->
      <g transform="translate(211.573514 322.182437)scale(0.1 -0.1)">
       <defs>
        <path d="M 37.796875 64.3125 
L 12.890625 25.390625 
L 37.796875 25.390625 
z
M 35.203125 72.90625 
L 47.609375 72.90625 
L 47.609375 25.390625 
L 58.015625 25.390625 
L 58.015625 17.1875 
L 47.609375 17.1875 
L 47.609375 0 
L 37.796875 0 
L 37.796875 17.1875 
L 4.890625 17.1875 
L 4.890625 26.703125 
z
" id="DejaVuSans-52"/>
       </defs>
       <use xlink:href="#DejaVuSans-52"/>
       <use x="63.623047" xlink:href="#DejaVuSans-48"/>
      </g>
     </g>
    </g>
    <g id="xtick_5">
     <g id="line2d_5">
      <g>
       <use style="stroke:#000000;stroke-width:0.8;" x="270.563023" xlink:href="#m627dd9266d" y="307.584"/>
      </g>
     </g>
     <g id="text_5">
      <!-- 60 -->
      <g transform="translate(264.200523 322.182437)scale(0.1 -0.1)">
       <defs>
        <path d="M 33.015625 40.375 
Q 26.375 40.375 22.484375 35.828125 
Q 18.609375 31.296875 18.609375 23.390625 
Q 18.609375 15.53125 22.484375 10.953125 
Q 26.375 6.390625 33.015625 6.390625 
Q 39.65625 6.390625 43.53125 10.953125 
Q 47.40625 15.53125 47.40625 23.390625 
Q 47.40625 31.296875 43.53125 35.828125 
Q 39.65625 40.375 33.015625 40.375 
z
M 52.59375 71.296875 
L 52.59375 62.3125 
Q 48.875 64.0625 45.09375 64.984375 
Q 41.3125 65.921875 37.59375 65.921875 
Q 27.828125 65.921875 22.671875 59.328125 
Q 17.53125 52.734375 16.796875 39.40625 
Q 19.671875 43.65625 24.015625 45.921875 
Q 28.375 48.1875 33.59375 48.1875 
Q 44.578125 48.1875 50.953125 41.515625 
Q 57.328125 34.859375 57.328125 23.390625 
Q 57.328125 12.15625 50.6875 5.359375 
Q 44.046875 -1.421875 33.015625 -1.421875 
Q 20.359375 -1.421875 13.671875 8.265625 
Q 6.984375 17.96875 6.984375 36.375 
Q 6.984375 53.65625 15.1875 63.9375 
Q 23.390625 74.21875 37.203125 74.21875 
Q 40.921875 74.21875 44.703125 73.484375 
Q 48.484375 72.75 52.59375 71.296875 
z
" id="DejaVuSans-54"/>
       </defs>
       <use xlink:href="#DejaVuSans-54"/>
       <use x="63.623047" xlink:href="#DejaVuSans-48"/>
      </g>
     </g>
    </g>
    <g id="xtick_6">
     <g id="line2d_6">
      <g>
       <use style="stroke:#000000;stroke-width:0.8;" x="323.190032" xlink:href="#m627dd9266d" y="307.584"/>
      </g>
     </g>
     <g id="text_6">
      <!-- 80 -->
      <g transform="translate(316.827532 322.182437)scale(0.1 -0.1)">
       <defs>
        <path d="M 31.78125 34.625 
Q 24.75 34.625 20.71875 30.859375 
Q 16.703125 27.09375 16.703125 20.515625 
Q 16.703125 13.921875 20.71875 10.15625 
Q 24.75 6.390625 31.78125 6.390625 
Q 38.8125 6.390625 42.859375 10.171875 
Q 46.921875 13.96875 46.921875 20.515625 
Q 46.921875 27.09375 42.890625 30.859375 
Q 38.875 34.625 31.78125 34.625 
z
M 21.921875 38.8125 
Q 15.578125 40.375 12.03125 44.71875 
Q 8.5 49.078125 8.5 55.328125 
Q 8.5 64.0625 14.71875 69.140625 
Q 20.953125 74.21875 31.78125 74.21875 
Q 42.671875 74.21875 48.875 69.140625 
Q 55.078125 64.0625 55.078125 55.328125 
Q 55.078125 49.078125 51.53125 44.71875 
Q 48 40.375 41.703125 38.8125 
Q 48.828125 37.15625 52.796875 32.3125 
Q 56.78125 27.484375 56.78125 20.515625 
Q 56.78125 9.90625 50.3125 4.234375 
Q 43.84375 -1.421875 31.78125 -1.421875 
Q 19.734375 -1.421875 13.25 4.234375 
Q 6.78125 9.90625 6.78125 20.515625 
Q 6.78125 27.484375 10.78125 32.3125 
Q 14.796875 37.15625 21.921875 38.8125 
z
M 18.3125 54.390625 
Q 18.3125 48.734375 21.84375 45.5625 
Q 25.390625 42.390625 31.78125 42.390625 
Q 38.140625 42.390625 41.71875 45.5625 
Q 45.3125 48.734375 45.3125 54.390625 
Q 45.3125 60.0625 41.71875 63.234375 
Q 38.140625 66.40625 31.78125 66.40625 
Q 25.390625 66.40625 21.84375 63.234375 
Q 18.3125 60.0625 18.3125 54.390625 
z
" id="DejaVuSans-56"/>
       </defs>
       <use xlink:href="#DejaVuSans-56"/>
       <use x="63.623047" xlink:href="#DejaVuSans-48"/>
      </g>
     </g>
    </g>
    <g id="xtick_7">
     <g id="line2d_7">
      <g>
       <use style="stroke:#000000;stroke-width:0.8;" x="375.817041" xlink:href="#m627dd9266d" y="307.584"/>
      </g>
     </g>
     <g id="text_7">
      <!-- 100 -->
      <g transform="translate(366.273291 322.182437)scale(0.1 -0.1)">
       <defs>
        <path d="M 12.40625 8.296875 
L 28.515625 8.296875 
L 28.515625 63.921875 
L 10.984375 60.40625 
L 10.984375 69.390625 
L 28.421875 72.90625 
L 38.28125 72.90625 
L 38.28125 8.296875 
L 54.390625 8.296875 
L 54.390625 0 
L 12.40625 0 
z
" id="DejaVuSans-49"/>
       </defs>
       <use xlink:href="#DejaVuSans-49"/>
       <use x="63.623047" xlink:href="#DejaVuSans-48"/>
       <use x="127.246094" xlink:href="#DejaVuSans-48"/>
      </g>
     </g>
    </g>
   </g>
   <g id="matplotlib.axis_2">
    <g id="ytick_1">
     <g id="line2d_8">
      <defs>
       <path d="M 0 0 
L -3.5 0 
" id="m0929c356dd" style="stroke:#000000;stroke-width:0.8;"/>
      </defs>
      <g>
       <use style="stroke:#000000;stroke-width:0.8;" x="57.6" xlink:href="#m0929c356dd" y="267.19475"/>
      </g>
     </g>
     <g id="text_8">
      <!-- 20 -->
      <g transform="translate(37.875 270.993969)scale(0.1 -0.1)">
       <use xlink:href="#DejaVuSans-50"/>
       <use x="63.623047" xlink:href="#DejaVuSans-48"/>
      </g>
     </g>
    </g>
    <g id="ytick_2">
     <g id="line2d_9">
      <g>
       <use style="stroke:#000000;stroke-width:0.8;" x="57.6" xlink:href="#m0929c356dd" y="214.567741"/>
      </g>
     </g>
     <g id="text_9">
      <!-- 40 -->
      <g transform="translate(37.875 218.366959)scale(0.1 -0.1)">
       <use xlink:href="#DejaVuSans-52"/>
       <use x="63.623047" xlink:href="#DejaVuSans-48"/>
      </g>
     </g>
    </g>
    <g id="ytick_3">
     <g id="line2d_10">
      <g>
       <use style="stroke:#000000;stroke-width:0.8;" x="57.6" xlink:href="#m0929c356dd" y="161.940732"/>
      </g>
     </g>
     <g id="text_10">
      <!-- 60 -->
      <g transform="translate(37.875 165.73995)scale(0.1 -0.1)">
       <use xlink:href="#DejaVuSans-54"/>
       <use x="63.623047" xlink:href="#DejaVuSans-48"/>
      </g>
     </g>
    </g>
    <g id="ytick_4">
     <g id="line2d_11">
      <g>
       <use style="stroke:#000000;stroke-width:0.8;" x="57.6" xlink:href="#m0929c356dd" y="109.313722"/>
      </g>
     </g>
     <g id="text_11">
      <!-- 80 -->
      <g transform="translate(37.875 113.112941)scale(0.1 -0.1)">
       <use xlink:href="#DejaVuSans-56"/>
       <use x="63.623047" xlink:href="#DejaVuSans-48"/>
      </g>
     </g>
    </g>
    <g id="ytick_5">
     <g id="line2d_12">
      <g>
       <use style="stroke:#000000;stroke-width:0.8;" x="57.6" xlink:href="#m0929c356dd" y="56.686713"/>
      </g>
     </g>
     <g id="text_12">
      <!-- 100 -->
      <g transform="translate(31.5125 60.485932)scale(0.1 -0.1)">
       <use xlink:href="#DejaVuSans-49"/>
       <use x="63.623047" xlink:href="#DejaVuSans-48"/>
       <use x="127.246094" xlink:href="#DejaVuSans-48"/>
      </g>
     </g>
    </g>
   </g>
   <g id="line2d_13">
    <path clip-path="url(#pd4ce5539eb)" d="M 138.9955 293.508254 
L 138.485018 290.842696 
L 138.095578 288.177138 
L 137.82718 285.51158 
L 137.674562 282.848654 
L 137.70877 277.538588 
L 138.174519 272.267993 
L 139.045496 267.050026 
L 140.30065 261.905735 
L 141.913668 256.850911 
L 143.860867 251.903972 
L 146.118566 247.080707 
L 148.665713 242.399534 
L 151.481258 237.881506 
L 154.567832 233.552934 
L 157.938592 229.448027 
L 161.596169 225.598362 
L 165.55372 222.032882 
L 167.645644 220.367237 
L 169.808614 218.788427 
L 172.039999 217.304345 
L 174.334537 215.922886 
L 176.689595 214.651944 
L 179.099912 213.499412 
L 181.560225 212.470554 
L 184.070533 211.575895 
L 186.625575 210.820698 
L 189.220086 210.215487 
L 191.848805 209.762895 
L 194.503838 209.460289 
L 197.174659 209.30504 
L 199.856005 209.294514 
L 202.53472 209.426082 
L 205.202909 209.697111 
L 207.85531 210.10497 
L 210.478767 210.644397 
L 213.068015 211.315392 
L 215.6099 212.112691 
L 218.101789 213.033663 
L 220.546313 214.067784 
L 225.29327 216.435999 
L 229.869188 219.148922 
L 234.284594 222.127611 
L 238.557907 225.298388 
L 244.770526 230.250589 
L 253.019809 236.85791 
L 257.279966 240.002374 
L 261.713791 242.949487 
L 266.337074 245.620307 
L 271.144551 247.935896 
L 273.612758 248.935809 
L 276.125698 249.817311 
L 278.675476 250.572509 
L 281.267357 251.185614 
L 283.898707 251.653994 
L 286.561634 251.967125 
L 289.245611 252.122374 
L 291.940114 252.122374 
L 294.629354 251.961862 
L 297.302806 251.640837 
L 299.949945 251.156669 
L 302.560244 250.509357 
L 305.117917 249.696269 
L 307.612437 248.717407 
L 310.030648 247.567507 
L 312.367288 246.254463 
L 314.611829 244.788801 
L 316.761643 243.175783 
L 318.808833 241.431197 
L 320.745507 239.562939 
L 322.571665 237.5789 
L 324.274148 235.492239 
L 325.850327 233.313481 
L 327.294939 231.05052 
L 328.597457 228.716512 
L 329.763145 226.31672 
L 330.794635 223.859039 
L 331.694557 221.351362 
L 332.465542 218.798952 
L 333.115486 216.212335 
L 333.64965 213.59151 
L 334.068035 210.949634 
L 334.578517 205.62378 
L 334.681139 200.28477 
L 334.391691 194.966811 
L 333.712802 189.690953 
L 332.647106 184.486142 
L 331.207757 179.373428 
L 329.394756 174.381757 
L 327.231786 169.526915 
L 324.742529 164.824692 
L 321.955929 160.296138 
L 318.895668 155.954409 
L 315.595955 151.810032 
L 312.117309 147.818274 
L 299.705229 134.07473 
L 296.373939 129.972455 
L 293.171586 125.764925 
L 288.574617 119.281278 
L 284.174999 112.629224 
L 278.386028 103.695789 
L 275.354712 99.356692 
L 272.128676 95.193896 
L 268.62898 91.275815 
L 264.837204 87.626132 
L 260.798081 84.210639 
L 256.561607 80.992497 
L 252.172515 77.934868 
L 245.417838 73.566827 
L 227.5536 62.338854 
L 227.5536 62.338854 
" style="fill:none;stroke:#fea952;stroke-linecap:square;"/>
   </g>
   <g id="line2d_14">
    <path clip-path="url(#pd4ce5539eb)" d="M 128.657962 295.488 
L 128.070184 292.364311 
L 127.623131 289.23162 
L 127.319023 286.113827 
L 127.150171 282.994536 
L 127.116095 279.90916 
L 127.208137 276.816931 
L 127.425904 273.765423 
L 127.762361 270.728167 
L 128.213488 267.727252 
L 128.777428 264.736832 
L 130.220582 258.876492 
L 132.060571 253.149483 
L 134.261165 247.587747 
L 136.801966 242.183253 
L 139.648525 236.970501 
L 142.812752 231.911489 
L 146.319454 227.014713 
L 150.174552 222.341427 
L 152.236023 220.10002 
L 154.396722 217.920338 
L 156.649842 215.819081 
L 158.997518 213.798789 
L 161.440151 211.865711 
L 163.979715 210.024408 
L 166.611044 208.28711 
L 169.335807 206.660231 
L 172.149087 205.156268 
L 175.039148 203.788888 
L 178.026734 202.555993 
L 181.087115 201.48217 
L 184.234549 200.570474 
L 187.434182 199.842704 
L 190.656897 199.305197 
L 193.893048 198.952625 
L 197.133342 198.779719 
L 200.372347 198.781785 
L 203.598394 198.954564 
L 206.802596 199.293982 
L 209.975162 199.795251 
L 213.119166 200.455561 
L 216.218133 201.272442 
L 219.258731 202.239995 
L 222.202566 203.339969 
L 225.056133 204.557494 
L 227.829284 205.881817 
L 233.113817 208.788118 
L 238.0935 211.960286 
L 242.788873 215.300512 
L 247.223641 218.711887 
L 261.299886 229.920462 
L 265.173016 232.657212 
L 269.116414 235.123174 
L 273.090312 237.253607 
L 277.096777 239.003755 
L 281.098377 240.329773 
L 283.111885 240.823095 
L 285.127909 241.200614 
L 287.16944 241.459287 
L 289.245611 241.596973 
L 291.313002 241.615671 
L 293.374492 241.511532 
L 295.409098 241.287193 
L 297.41655 240.940701 
L 299.37146 240.478617 
L 301.273116 239.898229 
L 303.092434 239.211953 
L 304.874377 238.391617 
L 306.612558 237.441565 
L 308.29494 236.369716 
L 309.934726 235.16471 
L 311.501254 233.856017 
L 313.001176 232.434867 
L 314.416297 230.925025 
L 315.746315 229.322949 
L 316.978531 227.649974 
L 318.103874 225.921346 
L 319.129889 224.117682 
L 320.057875 222.243416 
L 320.887844 220.303821 
L 321.618786 218.307856 
L 322.802117 214.110313 
L 323.612552 209.738454 
L 324.060484 205.230002 
L 324.162391 200.658955 
L 323.929906 196.122292 
L 323.363572 191.608636 
L 322.466099 187.15657 
L 321.251021 182.786272 
L 319.706966 178.496463 
L 317.849029 174.296396 
L 315.692355 170.198558 
L 313.258011 166.223221 
L 310.576738 162.402625 
L 307.605212 158.660734 
L 304.322518 154.891131 
L 291.588532 140.775724 
L 288.047654 136.41117 
L 284.662936 131.960646 
L 279.854039 125.17497 
L 275.313156 118.308293 
L 269.696517 109.63519 
L 266.940697 105.680334 
L 264.138684 102.045473 
L 261.196947 98.728932 
L 257.926247 95.564819 
L 254.335388 92.518327 
L 250.467394 89.574144 
L 246.355549 86.706812 
L 239.854267 82.501632 
L 221.734991 71.109708 
L 221.734991 71.109708 
" style="fill:none;stroke:#ffffff;stroke-linecap:square;"/>
   </g>
   <g id="line2d_15">
    <path clip-path="url(#pd4ce5539eb)" d="M 149.333038 291.528509 
L 148.568026 287.122657 
L 148.198953 282.702771 
L 148.209403 278.260245 
L 148.586676 273.80782 
L 149.313564 269.363219 
L 150.380718 264.934979 
L 151.766764 260.552339 
L 153.460569 256.220198 
L 155.435166 251.978161 
L 157.682901 247.828568 
L 160.149763 243.851522 
L 162.81621 240.091156 
L 165.702632 236.554628 
L 168.795616 233.276385 
L 172.109923 230.266975 
L 175.637513 227.552445 
L 179.333266 225.185542 
L 183.160677 223.209936 
L 185.093716 222.385115 
L 189.0166 221.070921 
L 191.005991 220.58827 
L 193.040713 220.220592 
L 195.114628 219.967954 
L 197.215975 219.83036 
L 199.339662 219.807244 
L 201.471045 219.897599 
L 203.603221 220.10024 
L 207.838367 220.833233 
L 211.961069 221.985386 
L 216.036494 223.578074 
L 220.07233 225.575249 
L 224.095722 227.949557 
L 228.093232 230.639433 
L 232.080034 233.594245 
L 238.12658 238.414049 
L 246.686158 245.264393 
L 251.32897 248.683949 
L 256.298517 251.974944 
L 261.576112 255.00739 
L 264.34658 256.402588 
L 267.192518 257.691177 
L 270.128739 258.867863 
L 273.136618 259.909362 
L 276.252575 260.815245 
L 279.422828 261.548133 
L 282.669505 262.107374 
L 285.953827 262.474962 
L 289.245611 262.647776 
L 292.567226 262.629078 
L 295.884217 262.412192 
L 299.196515 261.994482 
L 302.48334 261.372636 
L 305.749029 260.540096 
L 308.962718 259.494309 
L 312.132441 258.222861 
L 315.18692 256.743396 
L 318.122017 255.067361 
L 320.928719 253.207885 
L 323.58856 251.186856 
L 326.116413 249.006378 
L 328.489839 246.691011 
L 330.727033 244.232776 
L 332.801982 241.66153 
L 334.722124 238.976988 
L 336.486003 236.179693 
L 338.065025 233.315342 
L 339.468416 230.390025 
L 340.701426 227.414257 
L 341.770327 224.394868 
L 342.67362 221.363952 
L 343.428855 218.314357 
L 344.045495 215.237864 
L 344.523518 212.160814 
L 344.871088 209.088942 
L 345.09655 206.017559 
L 345.203905 202.96334 
L 345.199888 199.910586 
L 345.08362 196.851979 
L 344.853476 193.81133 
L 344.062033 187.773271 
L 343.498712 184.773771 
L 342.052401 178.884887 
L 341.164492 175.960585 
L 339.082546 170.26705 
L 336.614543 164.757434 
L 333.792703 159.450825 
L 330.653846 154.369054 
L 327.214598 149.506193 
L 323.586697 144.95933 
L 319.9121 140.745416 
L 307.821926 127.373736 
L 304.700225 123.53374 
L 301.680236 119.569205 
L 297.295195 113.387586 
L 293.036842 106.950156 
L 287.075539 97.756388 
L 283.768727 93.033051 
L 280.118669 88.342319 
L 278.124858 86.03044 
L 276.061014 83.822698 
L 271.748162 79.687445 
L 267.260775 75.902951 
L 262.65582 72.410851 
L 257.98948 69.162925 
L 250.981409 64.632021 
L 233.372208 53.568 
L 233.372208 53.568 
" style="fill:none;stroke:#ffffff;stroke-linecap:square;"/>
   </g>
   <g id="patch_3">
    <path d="M 57.6 307.584 
L 57.6 41.472 
" style="fill:none;stroke:#000000;stroke-linecap:square;stroke-linejoin:miter;stroke-width:0.8;"/>
   </g>
   <g id="patch_4">
    <path d="M 414.72 307.584 
L 414.72 41.472 
" style="fill:none;stroke:#000000;stroke-linecap:square;stroke-linejoin:miter;stroke-width:0.8;"/>
   </g>
   <g id="patch_5">
    <path d="M 57.6 307.584 
L 414.72 307.584 
" style="fill:none;stroke:#000000;stroke-linecap:square;stroke-linejoin:miter;stroke-width:0.8;"/>
   </g>
   <g id="patch_6">
    <path d="M 57.6 41.472 
L 414.72 41.472 
" style="fill:none;stroke:#000000;stroke-linecap:square;stroke-linejoin:miter;stroke-width:0.8;"/>
   </g>
  </g>
 </g>
 <defs>
  <clipPath id="pd4ce5539eb">
   <rect height="266.112" width="357.12" x="57.6" y="41.472"/>
  </clipPath>
 </defs>
</svg>
