<?xml version="1.0" encoding="utf-8" standalone="no"?>
<!DOCTYPE svg PUBLIC "-//W3C//DTD SVG 1.1//EN"
  "http://www.w3.org/Graphics/SVG/1.1/DTD/svg11.dtd">
<!-- Created with matplotlib (https://matplotlib.org/) -->
<svg height="345.6pt" version="1.1" viewBox="0 0 460.8 345.6" width="460.8pt" xmlns="http://www.w3.org/2000/svg" xmlns:xlink="http://www.w3.org/1999/xlink">
 <metadata>
  <rdf:RDF xmlns:cc="http://creativecommons.org/ns#" xmlns:dc="http://purl.org/dc/elements/1.1/" xmlns:rdf="http://www.w3.org/1999/02/22-rdf-syntax-ns#">
   <cc:Work>
    <dc:type rdf:resource="http://purl.org/dc/dcmitype/StillImage"/>
    <dc:date>2021-01-22T09:39:03.007465</dc:date>
    <dc:format>image/svg+xml</dc:format>
    <dc:creator>
     <cc:Agent>
      <dc:title>Matplotlib v3.3.3, https://matplotlib.org/</dc:title>
     </cc:Agent>
    </dc:creator>
   </cc:Work>
  </rdf:RDF>
 </metadata>
 <defs>
  <style type="text/css">*{stroke-linecap:butt;stroke-linejoin:round;}</style>
 </defs>
 <g id="figure_1">
  <g id="patch_1">
   <path d="M 0 345.6 
L 460.8 345.6 
L 460.8 0 
L 0 0 
z
" style="fill:#ffffff;"/>
  </g>
  <g id="axes_1">
   <g id="patch_2">
    <path d="M 57.6 307.584 
L 414.72 307.584 
L 414.72 41.472 
L 57.6 41.472 
z
" style="fill:#7d9051;"/>
   </g>
   <g id="matplotlib.axis_1">
    <g id="xtick_1">
     <g id="line2d_1">
      <defs>
       <path d="M 0 0 
L 0 3.5 
" id="md08a651fa2" style="stroke:#000000;stroke-width:0.8;"/>
      </defs>
      <g>
       <use style="stroke:#000000;stroke-width:0.8;" x="61.336602" xlink:href="#md08a651fa2" y="307.584"/>
      </g>
     </g>
     <g id="text_1">
      <!-- 0 -->
      <g transform="translate(58.155352 322.182437)scale(0.1 -0.1)">
       <defs>
        <path d="M 31.78125 66.40625 
Q 24.171875 66.40625 20.328125 58.90625 
Q 16.5 51.421875 16.5 36.375 
Q 16.5 21.390625 20.328125 13.890625 
Q 24.171875 6.390625 31.78125 6.390625 
Q 39.453125 6.390625 43.28125 13.890625 
Q 47.125 21.390625 47.125 36.375 
Q 47.125 51.421875 43.28125 58.90625 
Q 39.453125 66.40625 31.78125 66.40625 
z
M 31.78125 74.21875 
Q 44.046875 74.21875 50.515625 64.515625 
Q 56.984375 54.828125 56.984375 36.375 
Q 56.984375 17.96875 50.515625 8.265625 
Q 44.046875 -1.421875 31.78125 -1.421875 
Q 19.53125 -1.421875 13.0625 8.265625 
Q 6.59375 17.96875 6.59375 36.375 
Q 6.59375 54.828125 13.0625 64.515625 
Q 19.53125 74.21875 31.78125 74.21875 
z
" id="DejaVuSans-48"/>
       </defs>
       <use xlink:href="#DejaVuSans-48"/>
      </g>
     </g>
    </g>
    <g id="xtick_2">
     <g id="line2d_2">
      <g>
       <use style="stroke:#000000;stroke-width:0.8;" x="107.87681" xlink:href="#md08a651fa2" y="307.584"/>
      </g>
     </g>
     <g id="text_2">
      <!-- 20 -->
      <g transform="translate(101.51431 322.182437)scale(0.1 -0.1)">
       <defs>
        <path d="M 19.1875 8.296875 
L 53.609375 8.296875 
L 53.609375 0 
L 7.328125 0 
L 7.328125 8.296875 
Q 12.9375 14.109375 22.625 23.890625 
Q 32.328125 33.6875 34.8125 36.53125 
Q 39.546875 41.84375 41.421875 45.53125 
Q 43.3125 49.21875 43.3125 52.78125 
Q 43.3125 58.59375 39.234375 62.25 
Q 35.15625 65.921875 28.609375 65.921875 
Q 23.96875 65.921875 18.8125 64.3125 
Q 13.671875 62.703125 7.8125 59.421875 
L 7.8125 69.390625 
Q 13.765625 71.78125 18.9375 73 
Q 24.125 74.21875 28.421875 74.21875 
Q 39.75 74.21875 46.484375 68.546875 
Q 53.21875 62.890625 53.21875 53.421875 
Q 53.21875 48.921875 51.53125 44.890625 
Q 49.859375 40.875 45.40625 35.40625 
Q 44.1875 33.984375 37.640625 27.21875 
Q 31.109375 20.453125 19.1875 8.296875 
z
" id="DejaVuSans-50"/>
       </defs>
       <use xlink:href="#DejaVuSans-50"/>
       <use x="63.623047" xlink:href="#DejaVuSans-48"/>
      </g>
     </g>
    </g>
    <g id="xtick_3">
     <g id="line2d_3">
      <g>
       <use style="stroke:#000000;stroke-width:0.8;" x="154.417019" xlink:href="#md08a651fa2" y="307.584"/>
      </g>
     </g>
     <g id="text_3">
      <!-- 40 -->
      <g transform="translate(148.054519 322.182437)scale(0.1 -0.1)">
       <defs>
        <path d="M 37.796875 64.3125 
L 12.890625 25.390625 
L 37.796875 25.390625 
z
M 35.203125 72.90625 
L 47.609375 72.90625 
L 47.609375 25.390625 
L 58.015625 25.390625 
L 58.015625 17.1875 
L 47.609375 17.1875 
L 47.609375 0 
L 37.796875 0 
L 37.796875 17.1875 
L 4.890625 17.1875 
L 4.890625 26.703125 
z
" id="DejaVuSans-52"/>
       </defs>
       <use xlink:href="#DejaVuSans-52"/>
       <use x="63.623047" xlink:href="#DejaVuSans-48"/>
      </g>
     </g>
    </g>
    <g id="xtick_4">
     <g id="line2d_4">
      <g>
       <use style="stroke:#000000;stroke-width:0.8;" x="200.957227" xlink:href="#md08a651fa2" y="307.584"/>
      </g>
     </g>
     <g id="text_4">
      <!-- 60 -->
      <g transform="translate(194.594727 322.182437)scale(0.1 -0.1)">
       <defs>
        <path d="M 33.015625 40.375 
Q 26.375 40.375 22.484375 35.828125 
Q 18.609375 31.296875 18.609375 23.390625 
Q 18.609375 15.53125 22.484375 10.953125 
Q 26.375 6.390625 33.015625 6.390625 
Q 39.65625 6.390625 43.53125 10.953125 
Q 47.40625 15.53125 47.40625 23.390625 
Q 47.40625 31.296875 43.53125 35.828125 
Q 39.65625 40.375 33.015625 40.375 
z
M 52.59375 71.296875 
L 52.59375 62.3125 
Q 48.875 64.0625 45.09375 64.984375 
Q 41.3125 65.921875 37.59375 65.921875 
Q 27.828125 65.921875 22.671875 59.328125 
Q 17.53125 52.734375 16.796875 39.40625 
Q 19.671875 43.65625 24.015625 45.921875 
Q 28.375 48.1875 33.59375 48.1875 
Q 44.578125 48.1875 50.953125 41.515625 
Q 57.328125 34.859375 57.328125 23.390625 
Q 57.328125 12.15625 50.6875 5.359375 
Q 44.046875 -1.421875 33.015625 -1.421875 
Q 20.359375 -1.421875 13.671875 8.265625 
Q 6.984375 17.96875 6.984375 36.375 
Q 6.984375 53.65625 15.1875 63.9375 
Q 23.390625 74.21875 37.203125 74.21875 
Q 40.921875 74.21875 44.703125 73.484375 
Q 48.484375 72.75 52.59375 71.296875 
z
" id="DejaVuSans-54"/>
       </defs>
       <use xlink:href="#DejaVuSans-54"/>
       <use x="63.623047" xlink:href="#DejaVuSans-48"/>
      </g>
     </g>
    </g>
    <g id="xtick_5">
     <g id="line2d_5">
      <g>
       <use style="stroke:#000000;stroke-width:0.8;" x="247.497435" xlink:href="#md08a651fa2" y="307.584"/>
      </g>
     </g>
     <g id="text_5">
      <!-- 80 -->
      <g transform="translate(241.134935 322.182437)scale(0.1 -0.1)">
       <defs>
        <path d="M 31.78125 34.625 
Q 24.75 34.625 20.71875 30.859375 
Q 16.703125 27.09375 16.703125 20.515625 
Q 16.703125 13.921875 20.71875 10.15625 
Q 24.75 6.390625 31.78125 6.390625 
Q 38.8125 6.390625 42.859375 10.171875 
Q 46.921875 13.96875 46.921875 20.515625 
Q 46.921875 27.09375 42.890625 30.859375 
Q 38.875 34.625 31.78125 34.625 
z
M 21.921875 38.8125 
Q 15.578125 40.375 12.03125 44.71875 
Q 8.5 49.078125 8.5 55.328125 
Q 8.5 64.0625 14.71875 69.140625 
Q 20.953125 74.21875 31.78125 74.21875 
Q 42.671875 74.21875 48.875 69.140625 
Q 55.078125 64.0625 55.078125 55.328125 
Q 55.078125 49.078125 51.53125 44.71875 
Q 48 40.375 41.703125 38.8125 
Q 48.828125 37.15625 52.796875 32.3125 
Q 56.78125 27.484375 56.78125 20.515625 
Q 56.78125 9.90625 50.3125 4.234375 
Q 43.84375 -1.421875 31.78125 -1.421875 
Q 19.734375 -1.421875 13.25 4.234375 
Q 6.78125 9.90625 6.78125 20.515625 
Q 6.78125 27.484375 10.78125 32.3125 
Q 14.796875 37.15625 21.921875 38.8125 
z
M 18.3125 54.390625 
Q 18.3125 48.734375 21.84375 45.5625 
Q 25.390625 42.390625 31.78125 42.390625 
Q 38.140625 42.390625 41.71875 45.5625 
Q 45.3125 48.734375 45.3125 54.390625 
Q 45.3125 60.0625 41.71875 63.234375 
Q 38.140625 66.40625 31.78125 66.40625 
Q 25.390625 66.40625 21.84375 63.234375 
Q 18.3125 60.0625 18.3125 54.390625 
z
" id="DejaVuSans-56"/>
       </defs>
       <use xlink:href="#DejaVuSans-56"/>
       <use x="63.623047" xlink:href="#DejaVuSans-48"/>
      </g>
     </g>
    </g>
    <g id="xtick_6">
     <g id="line2d_6">
      <g>
       <use style="stroke:#000000;stroke-width:0.8;" x="294.037644" xlink:href="#md08a651fa2" y="307.584"/>
      </g>
     </g>
     <g id="text_6">
      <!-- 100 -->
      <g transform="translate(284.493894 322.182437)scale(0.1 -0.1)">
       <defs>
        <path d="M 12.40625 8.296875 
L 28.515625 8.296875 
L 28.515625 63.921875 
L 10.984375 60.40625 
L 10.984375 69.390625 
L 28.421875 72.90625 
L 38.28125 72.90625 
L 38.28125 8.296875 
L 54.390625 8.296875 
L 54.390625 0 
L 12.40625 0 
z
" id="DejaVuSans-49"/>
       </defs>
       <use xlink:href="#DejaVuSans-49"/>
       <use x="63.623047" xlink:href="#DejaVuSans-48"/>
       <use x="127.246094" xlink:href="#DejaVuSans-48"/>
      </g>
     </g>
    </g>
    <g id="xtick_7">
     <g id="line2d_7">
      <g>
       <use style="stroke:#000000;stroke-width:0.8;" x="340.577852" xlink:href="#md08a651fa2" y="307.584"/>
      </g>
     </g>
     <g id="text_7">
      <!-- 120 -->
      <g transform="translate(331.034102 322.182437)scale(0.1 -0.1)">
       <use xlink:href="#DejaVuSans-49"/>
       <use x="63.623047" xlink:href="#DejaVuSans-50"/>
       <use x="127.246094" xlink:href="#DejaVuSans-48"/>
      </g>
     </g>
    </g>
    <g id="xtick_8">
     <g id="line2d_8">
      <g>
       <use style="stroke:#000000;stroke-width:0.8;" x="387.118061" xlink:href="#md08a651fa2" y="307.584"/>
      </g>
     </g>
     <g id="text_8">
      <!-- 140 -->
      <g transform="translate(377.574311 322.182437)scale(0.1 -0.1)">
       <use xlink:href="#DejaVuSans-49"/>
       <use x="63.623047" xlink:href="#DejaVuSans-52"/>
       <use x="127.246094" xlink:href="#DejaVuSans-48"/>
      </g>
     </g>
    </g>
   </g>
   <g id="matplotlib.axis_2">
    <g id="ytick_1">
     <g id="line2d_9">
      <defs>
       <path d="M 0 0 
L -3.5 0 
" id="me1437298fb" style="stroke:#000000;stroke-width:0.8;"/>
      </defs>
      <g>
       <use style="stroke:#000000;stroke-width:0.8;" x="57.6" xlink:href="#me1437298fb" y="263.903688"/>
      </g>
     </g>
     <g id="text_9">
      <!-- 20 -->
      <g transform="translate(37.875 267.702907)scale(0.1 -0.1)">
       <use xlink:href="#DejaVuSans-50"/>
       <use x="63.623047" xlink:href="#DejaVuSans-48"/>
      </g>
     </g>
    </g>
    <g id="ytick_2">
     <g id="line2d_10">
      <g>
       <use style="stroke:#000000;stroke-width:0.8;" x="57.6" xlink:href="#me1437298fb" y="217.36348"/>
      </g>
     </g>
     <g id="text_10">
      <!-- 40 -->
      <g transform="translate(37.875 221.162698)scale(0.1 -0.1)">
       <use xlink:href="#DejaVuSans-52"/>
       <use x="63.623047" xlink:href="#DejaVuSans-48"/>
      </g>
     </g>
    </g>
    <g id="ytick_3">
     <g id="line2d_11">
      <g>
       <use style="stroke:#000000;stroke-width:0.8;" x="57.6" xlink:href="#me1437298fb" y="170.823271"/>
      </g>
     </g>
     <g id="text_11">
      <!-- 60 -->
      <g transform="translate(37.875 174.62249)scale(0.1 -0.1)">
       <use xlink:href="#DejaVuSans-54"/>
       <use x="63.623047" xlink:href="#DejaVuSans-48"/>
      </g>
     </g>
    </g>
    <g id="ytick_4">
     <g id="line2d_12">
      <g>
       <use style="stroke:#000000;stroke-width:0.8;" x="57.6" xlink:href="#me1437298fb" y="124.283063"/>
      </g>
     </g>
     <g id="text_12">
      <!-- 80 -->
      <g transform="translate(37.875 128.082282)scale(0.1 -0.1)">
       <use xlink:href="#DejaVuSans-56"/>
       <use x="63.623047" xlink:href="#DejaVuSans-48"/>
      </g>
     </g>
    </g>
    <g id="ytick_5">
     <g id="line2d_13">
      <g>
       <use style="stroke:#000000;stroke-width:0.8;" x="57.6" xlink:href="#me1437298fb" y="77.742854"/>
      </g>
     </g>
     <g id="text_13">
      <!-- 100 -->
      <g transform="translate(31.5125 81.542073)scale(0.1 -0.1)">
       <use xlink:href="#DejaVuSans-49"/>
       <use x="63.623047" xlink:href="#DejaVuSans-48"/>
       <use x="127.246094" xlink:href="#DejaVuSans-48"/>
      </g>
     </g>
    </g>
   </g>
   <g id="line2d_14">
    <path clip-path="url(#p173a31de4c)" d="M 84.606706 287.173792 
L 84.055204 284.821185 
L 83.634016 282.468577 
L 83.343139 280.11597 
L 83.177922 277.765689 
L 83.136035 275.424717 
L 83.2105 273.090725 
L 83.398987 270.768369 
L 84.111053 266.172523 
L 85.24198 261.658123 
L 86.763845 257.248438 
L 88.648723 252.966739 
L 90.873345 248.833969 
L 93.405132 244.873397 
L 96.220815 241.108294 
L 99.29945 237.564257 
L 102.631729 234.271537 
L 106.206017 231.253405 
L 110.013006 228.544765 
L 114.041061 226.171214 
L 118.264585 224.149042 
L 122.646345 222.480576 
L 127.151437 221.168142 
L 131.737975 220.218721 
L 136.368726 219.629988 
L 141.02042 219.378671 
L 145.683748 219.413576 
L 150.34475 219.681182 
L 157.314146 220.409536 
L 164.234675 221.3799 
L 182.639001 224.146715 
L 189.594435 224.896012 
L 194.246129 225.205505 
L 198.902477 225.324182 
L 203.558825 225.214813 
L 208.208191 224.842491 
L 212.831961 224.200236 
L 217.411518 223.276413 
L 221.928245 222.071022 
L 226.3612 220.572427 
L 230.691766 218.778302 
L 234.89202 216.693301 
L 238.93171 214.326731 
L 242.782912 211.683247 
L 246.417703 208.772157 
L 249.824446 205.612077 
L 253.052009 202.263509 
L 257.717665 197.053333 
L 262.374013 191.833848 
L 267.209541 186.802852 
L 272.210286 181.937073 
L 280.743433 173.997313 
L 287.517361 167.572438 
L 290.772848 164.242486 
L 293.879407 160.791529 
L 296.790497 157.180009 
L 299.508445 153.412579 
L 302.06583 149.519491 
L 305.688985 143.527439 
L 312.602533 131.371137 
L 321.824475 115.198414 
L 325.489517 109.245921 
L 328.102749 105.390065 
L 330.906797 101.669176 
L 333.941218 98.115831 
L 337.226957 94.76959 
L 340.740743 91.658377 
L 344.46396 88.819424 
L 348.382645 86.282983 
L 352.473529 84.081631 
L 356.711015 82.192098 
L 361.057871 80.535267 
L 367.70614 78.317626 
L 376.61859 75.446095 
L 381.011985 73.868382 
L 385.316955 72.092873 
L 389.496265 70.038123 
L 393.512685 67.625013 
L 393.512685 67.625013 
" style="fill:none;stroke:#fea952;stroke-linecap:square;"/>
   </g>
   <g id="line2d_15">
    <path clip-path="url(#p173a31de4c)" d="M 75.544338 289.298205 
L 74.892841 286.461529 
L 74.396314 283.610726 
L 74.058011 280.768687 
L 73.871369 277.932208 
L 73.832727 275.127901 
L 73.932965 272.337739 
L 74.170015 269.557706 
L 74.538867 266.823457 
L 75.033288 264.114897 
L 75.649567 261.438843 
L 76.37872 258.815191 
L 77.223875 256.209569 
L 79.219972 251.170763 
L 81.611032 246.312097 
L 84.354414 241.671493 
L 87.425634 237.260239 
L 90.814238 233.075847 
L 94.522241 229.13791 
L 98.527758 225.495226 
L 100.653872 223.782573 
L 102.843779 222.165047 
L 105.111442 220.631844 
L 107.453178 219.19198 
L 109.841418 217.864431 
L 112.292961 216.6347 
L 117.306794 214.503868 
L 122.458472 212.794566 
L 127.725106 211.499871 
L 133.055443 210.624083 
L 138.349247 210.163093 
L 143.556403 210.056583 
L 148.655507 210.234612 
L 153.644724 210.631236 
L 160.925613 211.49534 
L 170.283662 212.90038 
L 181.549214 214.61395 
L 188.138905 215.411792 
L 192.448817 215.779908 
L 196.705766 215.984475 
L 200.887652 215.999235 
L 205.012989 215.794204 
L 209.104728 215.357001 
L 213.144874 214.68022 
L 217.131917 213.757907 
L 221.029248 212.591511 
L 224.835994 211.172811 
L 228.532515 209.5034 
L 232.092239 207.593378 
L 235.481215 205.456412 
L 238.671695 203.110808 
L 241.706185 200.499939 
L 244.68139 197.574107 
L 249.192897 192.647607 
L 255.577066 185.474513 
L 260.655749 180.193204 
L 265.817253 175.171811 
L 274.416886 167.169837 
L 280.917015 161.009277 
L 283.926119 157.936779 
L 286.718833 154.844612 
L 289.310623 151.640052 
L 291.776593 148.230099 
L 294.160647 144.605458 
L 297.62912 138.871452 
L 304.49012 126.807322 
L 313.83471 110.423136 
L 317.729065 104.106365 
L 320.589905 99.894903 
L 323.724317 95.748734 
L 327.186206 91.711968 
L 330.932688 87.912344 
L 334.961083 84.362133 
L 339.253816 81.106186 
L 343.807776 78.176799 
L 348.543938 75.643743 
L 353.29108 73.535096 
L 358.003228 71.742725 
L 364.896119 69.443877 
L 375.592989 65.949129 
L 379.510691 64.454757 
L 383.166111 62.827447 
L 386.550831 61.014381 
L 388.538098 59.757795 
L 388.538098 59.757795 
" style="fill:none;stroke:#ffffff;stroke-linecap:square;"/>
   </g>
   <g id="line2d_16">
    <path clip-path="url(#p173a31de4c)" d="M 93.669074 285.04938 
L 92.871717 281.326428 
L 92.484474 277.59917 
L 92.488034 273.843711 
L 92.864131 270.101146 
L 93.601077 266.368533 
L 94.684215 262.666741 
L 96.104169 259.011836 
L 97.831918 255.446725 
L 99.849599 251.989333 
L 102.135157 248.670257 
L 104.643198 245.538528 
L 107.348435 242.630401 
L 110.249485 239.957579 
L 113.319395 237.554005 
L 116.547367 235.435572 
L 119.968471 233.594803 
L 123.569231 232.034996 
L 127.316041 230.765725 
L 131.148017 229.798566 
L 135.04195 229.133873 
L 139.037571 228.766447 
L 143.147765 228.668181 
L 147.375318 228.806625 
L 151.698797 229.145336 
L 158.324123 229.928755 
L 167.37738 231.288204 
L 179.111999 233.069804 
L 186.409906 233.947409 
L 191.38942 234.365823 
L 196.445167 234.598734 
L 201.575976 234.602589 
L 206.758681 234.328257 
L 211.942406 233.755537 
L 217.112567 232.868567 
L 222.224134 231.663992 
L 227.28114 230.126402 
L 232.247223 228.250055 
L 237.086176 226.038013 
L 241.773377 223.494137 
L 246.282274 220.618723 
L 250.589422 217.41208 
L 254.587158 213.940144 
L 258.22997 210.341038 
L 263.156817 204.958882 
L 270.674157 196.585313 
L 275.34962 191.838973 
L 281.936208 185.572589 
L 294.117706 174.135598 
L 297.619577 170.548193 
L 301.039981 166.738446 
L 304.270371 162.719966 
L 307.240297 158.59506 
L 309.971013 154.433524 
L 313.74885 148.183426 
L 320.714946 135.934951 
L 329.814241 119.973693 
L 333.249968 114.385478 
L 335.615594 110.885227 
L 338.089276 107.589617 
L 340.69623 104.519693 
L 343.521226 101.626836 
L 346.520403 98.95462 
L 349.674104 96.532662 
L 352.957514 94.389166 
L 356.403121 92.519519 
L 360.130951 90.8491 
L 364.112513 89.327809 
L 370.51616 87.191375 
L 379.678631 84.23676 
L 384.441646 82.521536 
L 389.269986 80.519805 
L 394.105356 78.124898 
L 398.487273 75.492231 
L 398.487273 75.492231 
" style="fill:none;stroke:#ffffff;stroke-linecap:square;"/>
   </g>
   <g id="patch_3">
    <path d="M 57.6 307.584 
L 57.6 41.472 
" style="fill:none;stroke:#000000;stroke-linecap:square;stroke-linejoin:miter;stroke-width:0.8;"/>
   </g>
   <g id="patch_4">
    <path d="M 414.72 307.584 
L 414.72 41.472 
" style="fill:none;stroke:#000000;stroke-linecap:square;stroke-linejoin:miter;stroke-width:0.8;"/>
   </g>
   <g id="patch_5">
    <path d="M 57.6 307.584 
L 414.72 307.584 
" style="fill:none;stroke:#000000;stroke-linecap:square;stroke-linejoin:miter;stroke-width:0.8;"/>
   </g>
   <g id="patch_6">
    <path d="M 57.6 41.472 
L 414.72 41.472 
" style="fill:none;stroke:#000000;stroke-linecap:square;stroke-linejoin:miter;stroke-width:0.8;"/>
   </g>
  </g>
 </g>
 <defs>
  <clipPath id="p173a31de4c">
   <rect height="266.112" width="357.12" x="57.6" y="41.472"/>
  </clipPath>
 </defs>
</svg>
