<?xml version="1.0" encoding="utf-8" standalone="no"?>
<!DOCTYPE svg PUBLIC "-//W3C//DTD SVG 1.1//EN"
  "http://www.w3.org/Graphics/SVG/1.1/DTD/svg11.dtd">
<!-- Created with matplotlib (https://matplotlib.org/) -->
<svg height="345.6pt" version="1.1" viewBox="0 0 460.8 345.6" width="460.8pt" xmlns="http://www.w3.org/2000/svg" xmlns:xlink="http://www.w3.org/1999/xlink">
 <metadata>
  <rdf:RDF xmlns:cc="http://creativecommons.org/ns#" xmlns:dc="http://purl.org/dc/elements/1.1/" xmlns:rdf="http://www.w3.org/1999/02/22-rdf-syntax-ns#">
   <cc:Work>
    <dc:type rdf:resource="http://purl.org/dc/dcmitype/StillImage"/>
    <dc:date>2021-01-22T09:33:50.469048</dc:date>
    <dc:format>image/svg+xml</dc:format>
    <dc:creator>
     <cc:Agent>
      <dc:title>Matplotlib v3.3.3, https://matplotlib.org/</dc:title>
     </cc:Agent>
    </dc:creator>
   </cc:Work>
  </rdf:RDF>
 </metadata>
 <defs>
  <style type="text/css">*{stroke-linecap:butt;stroke-linejoin:round;}</style>
 </defs>
 <g id="figure_1">
  <g id="patch_1">
   <path d="M 0 345.6 
L 460.8 345.6 
L 460.8 0 
L 0 0 
z
" style="fill:#ffffff;"/>
  </g>
  <g id="axes_1">
   <g id="patch_2">
    <path d="M 57.6 307.584 
L 414.72 307.584 
L 414.72 41.472 
L 57.6 41.472 
z
" style="fill:#7d9051;"/>
   </g>
   <g id="matplotlib.axis_1">
    <g id="xtick_1">
     <g id="line2d_1">
      <defs>
       <path d="M 0 0 
L 0 3.5 
" id="m985bc8f00e" style="stroke:#000000;stroke-width:0.8;"/>
      </defs>
      <g>
       <use style="stroke:#000000;stroke-width:0.8;" x="81.771652" xlink:href="#m985bc8f00e" y="307.584"/>
      </g>
     </g>
     <g id="text_1">
      <!-- −20 -->
      <g transform="translate(71.219309 322.182437)scale(0.1 -0.1)">
       <defs>
        <path d="M 10.59375 35.5 
L 73.1875 35.5 
L 73.1875 27.203125 
L 10.59375 27.203125 
z
" id="DejaVuSans-8722"/>
        <path d="M 19.1875 8.296875 
L 53.609375 8.296875 
L 53.609375 0 
L 7.328125 0 
L 7.328125 8.296875 
Q 12.9375 14.109375 22.625 23.890625 
Q 32.328125 33.6875 34.8125 36.53125 
Q 39.546875 41.84375 41.421875 45.53125 
Q 43.3125 49.21875 43.3125 52.78125 
Q 43.3125 58.59375 39.234375 62.25 
Q 35.15625 65.921875 28.609375 65.921875 
Q 23.96875 65.921875 18.8125 64.3125 
Q 13.671875 62.703125 7.8125 59.421875 
L 7.8125 69.390625 
Q 13.765625 71.78125 18.9375 73 
Q 24.125 74.21875 28.421875 74.21875 
Q 39.75 74.21875 46.484375 68.546875 
Q 53.21875 62.890625 53.21875 53.421875 
Q 53.21875 48.921875 51.53125 44.890625 
Q 49.859375 40.875 45.40625 35.40625 
Q 44.1875 33.984375 37.640625 27.21875 
Q 31.109375 20.453125 19.1875 8.296875 
z
" id="DejaVuSans-50"/>
        <path d="M 31.78125 66.40625 
Q 24.171875 66.40625 20.328125 58.90625 
Q 16.5 51.421875 16.5 36.375 
Q 16.5 21.390625 20.328125 13.890625 
Q 24.171875 6.390625 31.78125 6.390625 
Q 39.453125 6.390625 43.28125 13.890625 
Q 47.125 21.390625 47.125 36.375 
Q 47.125 51.421875 43.28125 58.90625 
Q 39.453125 66.40625 31.78125 66.40625 
z
M 31.78125 74.21875 
Q 44.046875 74.21875 50.515625 64.515625 
Q 56.984375 54.828125 56.984375 36.375 
Q 56.984375 17.96875 50.515625 8.265625 
Q 44.046875 -1.421875 31.78125 -1.421875 
Q 19.53125 -1.421875 13.0625 8.265625 
Q 6.59375 17.96875 6.59375 36.375 
Q 6.59375 54.828125 13.0625 64.515625 
Q 19.53125 74.21875 31.78125 74.21875 
z
" id="DejaVuSans-48"/>
       </defs>
       <use xlink:href="#DejaVuSans-8722"/>
       <use x="83.789062" xlink:href="#DejaVuSans-50"/>
       <use x="147.412109" xlink:href="#DejaVuSans-48"/>
      </g>
     </g>
    </g>
    <g id="xtick_2">
     <g id="line2d_2">
      <g>
       <use style="stroke:#000000;stroke-width:0.8;" x="126.057428" xlink:href="#m985bc8f00e" y="307.584"/>
      </g>
     </g>
     <g id="text_2">
      <!-- 0 -->
      <g transform="translate(122.876178 322.182437)scale(0.1 -0.1)">
       <use xlink:href="#DejaVuSans-48"/>
      </g>
     </g>
    </g>
    <g id="xtick_3">
     <g id="line2d_3">
      <g>
       <use style="stroke:#000000;stroke-width:0.8;" x="170.343205" xlink:href="#m985bc8f00e" y="307.584"/>
      </g>
     </g>
     <g id="text_3">
      <!-- 20 -->
      <g transform="translate(163.980705 322.182437)scale(0.1 -0.1)">
       <use xlink:href="#DejaVuSans-50"/>
       <use x="63.623047" xlink:href="#DejaVuSans-48"/>
      </g>
     </g>
    </g>
    <g id="xtick_4">
     <g id="line2d_4">
      <g>
       <use style="stroke:#000000;stroke-width:0.8;" x="214.628981" xlink:href="#m985bc8f00e" y="307.584"/>
      </g>
     </g>
     <g id="text_4">
      <!-- 40 -->
      <g transform="translate(208.266481 322.182437)scale(0.1 -0.1)">
       <defs>
        <path d="M 37.796875 64.3125 
L 12.890625 25.390625 
L 37.796875 25.390625 
z
M 35.203125 72.90625 
L 47.609375 72.90625 
L 47.609375 25.390625 
L 58.015625 25.390625 
L 58.015625 17.1875 
L 47.609375 17.1875 
L 47.609375 0 
L 37.796875 0 
L 37.796875 17.1875 
L 4.890625 17.1875 
L 4.890625 26.703125 
z
" id="DejaVuSans-52"/>
       </defs>
       <use xlink:href="#DejaVuSans-52"/>
       <use x="63.623047" xlink:href="#DejaVuSans-48"/>
      </g>
     </g>
    </g>
    <g id="xtick_5">
     <g id="line2d_5">
      <g>
       <use style="stroke:#000000;stroke-width:0.8;" x="258.914757" xlink:href="#m985bc8f00e" y="307.584"/>
      </g>
     </g>
     <g id="text_5">
      <!-- 60 -->
      <g transform="translate(252.552257 322.182437)scale(0.1 -0.1)">
       <defs>
        <path d="M 33.015625 40.375 
Q 26.375 40.375 22.484375 35.828125 
Q 18.609375 31.296875 18.609375 23.390625 
Q 18.609375 15.53125 22.484375 10.953125 
Q 26.375 6.390625 33.015625 6.390625 
Q 39.65625 6.390625 43.53125 10.953125 
Q 47.40625 15.53125 47.40625 23.390625 
Q 47.40625 31.296875 43.53125 35.828125 
Q 39.65625 40.375 33.015625 40.375 
z
M 52.59375 71.296875 
L 52.59375 62.3125 
Q 48.875 64.0625 45.09375 64.984375 
Q 41.3125 65.921875 37.59375 65.921875 
Q 27.828125 65.921875 22.671875 59.328125 
Q 17.53125 52.734375 16.796875 39.40625 
Q 19.671875 43.65625 24.015625 45.921875 
Q 28.375 48.1875 33.59375 48.1875 
Q 44.578125 48.1875 50.953125 41.515625 
Q 57.328125 34.859375 57.328125 23.390625 
Q 57.328125 12.15625 50.6875 5.359375 
Q 44.046875 -1.421875 33.015625 -1.421875 
Q 20.359375 -1.421875 13.671875 8.265625 
Q 6.984375 17.96875 6.984375 36.375 
Q 6.984375 53.65625 15.1875 63.9375 
Q 23.390625 74.21875 37.203125 74.21875 
Q 40.921875 74.21875 44.703125 73.484375 
Q 48.484375 72.75 52.59375 71.296875 
z
" id="DejaVuSans-54"/>
       </defs>
       <use xlink:href="#DejaVuSans-54"/>
       <use x="63.623047" xlink:href="#DejaVuSans-48"/>
      </g>
     </g>
    </g>
    <g id="xtick_6">
     <g id="line2d_6">
      <g>
       <use style="stroke:#000000;stroke-width:0.8;" x="303.200533" xlink:href="#m985bc8f00e" y="307.584"/>
      </g>
     </g>
     <g id="text_6">
      <!-- 80 -->
      <g transform="translate(296.838033 322.182437)scale(0.1 -0.1)">
       <defs>
        <path d="M 31.78125 34.625 
Q 24.75 34.625 20.71875 30.859375 
Q 16.703125 27.09375 16.703125 20.515625 
Q 16.703125 13.921875 20.71875 10.15625 
Q 24.75 6.390625 31.78125 6.390625 
Q 38.8125 6.390625 42.859375 10.171875 
Q 46.921875 13.96875 46.921875 20.515625 
Q 46.921875 27.09375 42.890625 30.859375 
Q 38.875 34.625 31.78125 34.625 
z
M 21.921875 38.8125 
Q 15.578125 40.375 12.03125 44.71875 
Q 8.5 49.078125 8.5 55.328125 
Q 8.5 64.0625 14.71875 69.140625 
Q 20.953125 74.21875 31.78125 74.21875 
Q 42.671875 74.21875 48.875 69.140625 
Q 55.078125 64.0625 55.078125 55.328125 
Q 55.078125 49.078125 51.53125 44.71875 
Q 48 40.375 41.703125 38.8125 
Q 48.828125 37.15625 52.796875 32.3125 
Q 56.78125 27.484375 56.78125 20.515625 
Q 56.78125 9.90625 50.3125 4.234375 
Q 43.84375 -1.421875 31.78125 -1.421875 
Q 19.734375 -1.421875 13.25 4.234375 
Q 6.78125 9.90625 6.78125 20.515625 
Q 6.78125 27.484375 10.78125 32.3125 
Q 14.796875 37.15625 21.921875 38.8125 
z
M 18.3125 54.390625 
Q 18.3125 48.734375 21.84375 45.5625 
Q 25.390625 42.390625 31.78125 42.390625 
Q 38.140625 42.390625 41.71875 45.5625 
Q 45.3125 48.734375 45.3125 54.390625 
Q 45.3125 60.0625 41.71875 63.234375 
Q 38.140625 66.40625 31.78125 66.40625 
Q 25.390625 66.40625 21.84375 63.234375 
Q 18.3125 60.0625 18.3125 54.390625 
z
" id="DejaVuSans-56"/>
       </defs>
       <use xlink:href="#DejaVuSans-56"/>
       <use x="63.623047" xlink:href="#DejaVuSans-48"/>
      </g>
     </g>
    </g>
    <g id="xtick_7">
     <g id="line2d_7">
      <g>
       <use style="stroke:#000000;stroke-width:0.8;" x="347.486309" xlink:href="#m985bc8f00e" y="307.584"/>
      </g>
     </g>
     <g id="text_7">
      <!-- 100 -->
      <g transform="translate(337.942559 322.182437)scale(0.1 -0.1)">
       <defs>
        <path d="M 12.40625 8.296875 
L 28.515625 8.296875 
L 28.515625 63.921875 
L 10.984375 60.40625 
L 10.984375 69.390625 
L 28.421875 72.90625 
L 38.28125 72.90625 
L 38.28125 8.296875 
L 54.390625 8.296875 
L 54.390625 0 
L 12.40625 0 
z
" id="DejaVuSans-49"/>
       </defs>
       <use xlink:href="#DejaVuSans-49"/>
       <use x="63.623047" xlink:href="#DejaVuSans-48"/>
       <use x="127.246094" xlink:href="#DejaVuSans-48"/>
      </g>
     </g>
    </g>
    <g id="xtick_8">
     <g id="line2d_8">
      <g>
       <use style="stroke:#000000;stroke-width:0.8;" x="391.772086" xlink:href="#m985bc8f00e" y="307.584"/>
      </g>
     </g>
     <g id="text_8">
      <!-- 120 -->
      <g transform="translate(382.228336 322.182437)scale(0.1 -0.1)">
       <use xlink:href="#DejaVuSans-49"/>
       <use x="63.623047" xlink:href="#DejaVuSans-50"/>
       <use x="127.246094" xlink:href="#DejaVuSans-48"/>
      </g>
     </g>
    </g>
   </g>
   <g id="matplotlib.axis_2">
    <g id="ytick_1">
     <g id="line2d_9">
      <defs>
       <path d="M 0 0 
L -3.5 0 
" id="me2989970d2" style="stroke:#000000;stroke-width:0.8;"/>
      </defs>
      <g>
       <use style="stroke:#000000;stroke-width:0.8;" x="57.6" xlink:href="#me2989970d2" y="269.335966"/>
      </g>
     </g>
     <g id="text_9">
      <!-- 20 -->
      <g transform="translate(37.875 273.135185)scale(0.1 -0.1)">
       <use xlink:href="#DejaVuSans-50"/>
       <use x="63.623047" xlink:href="#DejaVuSans-48"/>
      </g>
     </g>
    </g>
    <g id="ytick_2">
     <g id="line2d_10">
      <g>
       <use style="stroke:#000000;stroke-width:0.8;" x="57.6" xlink:href="#me2989970d2" y="225.05019"/>
      </g>
     </g>
     <g id="text_10">
      <!-- 40 -->
      <g transform="translate(37.875 228.849409)scale(0.1 -0.1)">
       <use xlink:href="#DejaVuSans-52"/>
       <use x="63.623047" xlink:href="#DejaVuSans-48"/>
      </g>
     </g>
    </g>
    <g id="ytick_3">
     <g id="line2d_11">
      <g>
       <use style="stroke:#000000;stroke-width:0.8;" x="57.6" xlink:href="#me2989970d2" y="180.764414"/>
      </g>
     </g>
     <g id="text_11">
      <!-- 60 -->
      <g transform="translate(37.875 184.563633)scale(0.1 -0.1)">
       <use xlink:href="#DejaVuSans-54"/>
       <use x="63.623047" xlink:href="#DejaVuSans-48"/>
      </g>
     </g>
    </g>
    <g id="ytick_4">
     <g id="line2d_12">
      <g>
       <use style="stroke:#000000;stroke-width:0.8;" x="57.6" xlink:href="#me2989970d2" y="136.478638"/>
      </g>
     </g>
     <g id="text_12">
      <!-- 80 -->
      <g transform="translate(37.875 140.277857)scale(0.1 -0.1)">
       <use xlink:href="#DejaVuSans-56"/>
       <use x="63.623047" xlink:href="#DejaVuSans-48"/>
      </g>
     </g>
    </g>
    <g id="ytick_5">
     <g id="line2d_13">
      <g>
       <use style="stroke:#000000;stroke-width:0.8;" x="57.6" xlink:href="#me2989970d2" y="92.192862"/>
      </g>
     </g>
     <g id="text_13">
      <!-- 100 -->
      <g transform="translate(31.5125 95.99208)scale(0.1 -0.1)">
       <use xlink:href="#DejaVuSans-49"/>
       <use x="63.623047" xlink:href="#DejaVuSans-48"/>
       <use x="127.246094" xlink:href="#DejaVuSans-48"/>
      </g>
     </g>
    </g>
    <g id="ytick_6">
     <g id="line2d_14">
      <g>
       <use style="stroke:#000000;stroke-width:0.8;" x="57.6" xlink:href="#me2989970d2" y="47.907085"/>
      </g>
     </g>
     <g id="text_14">
      <!-- 120 -->
      <g transform="translate(31.5125 51.706304)scale(0.1 -0.1)">
       <use xlink:href="#DejaVuSans-49"/>
       <use x="63.623047" xlink:href="#DejaVuSans-50"/>
       <use x="127.246094" xlink:href="#DejaVuSans-48"/>
      </g>
     </g>
    </g>
   </g>
   <g id="line2d_15">
    <path clip-path="url(#p98948b25b2)" d="M 148.200317 149.341441 
L 147.772959 144.853078 
L 147.575887 140.397929 
L 147.59803 135.975994 
L 147.817245 131.576202 
L 148.218031 127.198553 
L 148.782675 122.83419 
L 149.90089 116.308681 
L 151.289249 109.789815 
L 152.892395 103.264306 
L 154.101396 98.935371 
L 155.503041 94.688365 
L 157.177043 90.578645 
L 158.138045 88.594642 
L 159.198689 86.665997 
L 160.363405 84.80378 
L 161.64105 83.01242 
L 163.027194 81.291918 
L 164.510768 79.642273 
L 167.74363 76.564411 
L 171.270992 73.78105 
L 175.02864 71.29219 
L 178.945717 69.100044 
L 182.986794 67.211255 
L 187.138585 65.628039 
L 191.39002 64.352608 
L 195.73224 63.391607 
L 200.154175 62.747249 
L 204.624824 62.439463 
L 209.102116 62.499249 
L 213.541765 62.959821 
L 215.733911 63.35175 
L 217.897271 63.856608 
L 220.029631 64.476609 
L 222.124348 65.218395 
L 224.179208 66.075325 
L 226.187568 67.038541 
L 230.058145 69.272758 
L 233.713936 71.867905 
L 237.123941 74.779694 
L 240.263802 77.954985 
L 243.133521 81.356132 
L 245.748596 84.949923 
L 248.128956 88.703142 
L 250.296745 92.582576 
L 252.271891 96.557225 
L 254.991037 102.617733 
L 258.582614 110.710959 
L 260.544474 114.683393 
L 262.710048 118.565041 
L 265.088194 122.327118 
L 267.676698 125.94748 
L 270.47113 129.401771 
L 273.464849 132.667847 
L 276.646782 135.732422 
L 279.974858 138.646427 
L 286.843582 144.25522 
L 291.978518 148.508869 
L 295.304379 151.456087 
L 298.517312 154.518449 
L 301.590745 157.713667 
L 304.495892 161.057244 
L 307.203967 164.569106 
L 309.695042 168.249254 
L 311.951403 172.082188 
L 313.964191 176.050193 
L 315.715694 180.139985 
L 317.192624 184.336062 
L 318.392769 188.616282 
L 319.32277 192.965145 
L 319.9937 197.358294 
L 320.4122 201.782443 
L 320.589343 206.211021 
L 320.5517 210.639599 
L 320.215128 217.278036 
L 318.368412 243.787502 
L 318.12484 252.662372 
L 318.195697 259.327381 
L 318.421555 263.753744 
L 318.826769 268.15575 
L 319.44677 272.524542 
L 320.308129 276.849048 
L 321.448487 281.115983 
L 322.896632 285.318703 
L 324.685778 289.446137 
L 325.717636 291.478854 
L 325.717636 291.478854 
" style="fill:none;stroke:#fea952;stroke-linecap:square;"/>
   </g>
   <g id="line2d_16">
    <path clip-path="url(#p98948b25b2)" d="M 139.394621 150.294814 
L 138.929931 145.35313 
L 138.718949 140.459928 
L 138.747671 135.629096 
L 138.989587 130.853939 
L 139.424686 126.137288 
L 140.030894 121.472011 
L 141.215395 114.573353 
L 142.669388 107.753351 
L 144.340123 100.960428 
L 145.653516 96.27407 
L 147.236936 91.50706 
L 149.205769 86.717559 
L 150.377076 84.326555 
L 151.689342 81.969306 
L 153.15243 79.660723 
L 154.743867 77.455616 
L 156.441526 75.369236 
L 158.247813 73.379318 
L 160.136323 71.505831 
L 162.107867 69.731595 
L 164.140011 68.066193 
L 168.381521 65.02009 
L 172.787061 62.351589 
L 177.343201 60.030432 
L 182.046955 58.047761 
L 186.858522 56.425397 
L 191.797188 55.150502 
L 196.820633 54.241468 
L 201.957403 53.701192 
L 207.181185 53.568 
L 209.804246 53.669967 
L 212.455339 53.891057 
L 215.100599 54.24092 
L 217.746798 54.726352 
L 220.370152 55.351664 
L 222.98624 56.127497 
L 225.533448 57.043603 
L 228.009398 58.089159 
L 230.426991 59.261877 
L 232.763024 60.547359 
L 235.017538 61.934256 
L 237.207808 63.425777 
L 239.32024 65.010897 
L 241.344076 66.676035 
L 245.157096 70.242684 
L 248.609273 74.047714 
L 251.717465 78.039131 
L 254.514267 82.175304 
L 257.025416 86.409353 
L 259.280876 90.705341 
L 262.222308 97.044909 
L 266.567405 106.877905 
L 268.337268 110.473695 
L 270.262683 113.938281 
L 272.365717 117.278667 
L 274.648585 120.484698 
L 277.094465 123.52124 
L 279.696656 126.373899 
L 282.544906 129.12475 
L 285.650294 131.846528 
L 292.429171 137.381328 
L 297.79848 141.83225 
L 301.347148 144.98043 
L 304.82434 148.299879 
L 308.193546 151.810091 
L 311.426825 155.542593 
L 314.461691 159.492231 
L 317.255526 163.63533 
L 319.785243 167.949374 
L 322.051409 172.438255 
L 324.021161 177.062906 
L 325.68253 181.812036 
L 327.024883 186.632395 
L 328.057979 191.500454 
L 328.798496 196.396648 
L 329.256942 201.313672 
L 329.446481 206.193307 
L 329.402799 210.967089 
L 329.048684 217.924178 
L 327.218852 244.132324 
L 326.981956 252.688837 
L 327.045051 258.955708 
L 327.250276 263.04461 
L 327.611789 267.027644 
L 328.15791 270.922903 
L 328.902397 274.707147 
L 329.873826 278.384157 
L 331.092254 281.959985 
L 332.583622 285.436992 
L 333.615481 287.469709 
L 333.615481 287.469709 
" style="fill:none;stroke:#ffffff;stroke-linecap:square;"/>
   </g>
   <g id="line2d_17">
    <path clip-path="url(#p98948b25b2)" d="M 157.006012 148.388069 
L 156.615987 144.353026 
L 156.432825 140.33593 
L 156.448389 136.322893 
L 156.644902 132.298465 
L 157.011376 128.259819 
L 157.85203 122.149646 
L 158.996212 115.988681 
L 160.404862 109.726439 
L 161.985385 103.555199 
L 163.146828 99.68891 
L 164.438358 96.112129 
L 165.899013 92.862729 
L 167.57438 89.946836 
L 169.612863 87.2146 
L 172.033931 84.629996 
L 174.810396 82.206196 
L 177.87161 79.977864 
L 181.154081 77.965358 
L 184.560523 76.207795 
L 188.049638 74.714033 
L 191.64794 73.479964 
L 195.305143 72.513999 
L 199.045854 71.81546 
L 202.814953 71.394734 
L 206.550184 71.271068 
L 210.204042 71.461727 
L 213.721024 71.977147 
L 217.073022 72.82572 
L 220.349019 74.061491 
L 223.535833 75.668726 
L 226.624059 77.630743 
L 229.555801 79.898492 
L 232.301505 82.429995 
L 234.854478 85.210259 
L 237.224437 88.224853 
L 239.418642 91.444547 
L 241.451214 94.849794 
L 243.332046 98.414532 
L 245.988335 104.13398 
L 250.597822 114.544013 
L 252.751679 118.893091 
L 255.157413 123.191801 
L 257.810671 127.375569 
L 260.704811 131.410263 
L 263.847796 135.282301 
L 267.233042 138.961794 
L 270.748658 142.340095 
L 274.299422 145.446325 
L 281.257993 151.129112 
L 286.158555 155.185487 
L 290.749031 159.317022 
L 293.615093 162.157952 
L 296.299865 165.079189 
L 298.780139 168.092593 
L 301.067123 171.241076 
L 303.149968 174.518479 
L 305.027678 177.930402 
L 306.67729 181.443732 
L 308.086727 185.029368 
L 309.261411 188.724202 
L 310.202452 192.504135 
L 310.916133 196.366614 
L 311.406109 200.27447 
L 311.675629 204.235788 
L 311.738215 208.257054 
L 311.517808 214.499697 
L 310.867362 223.182319 
L 309.871605 236.64183 
L 309.429421 245.721004 
L 309.267724 252.635906 
L 309.346344 259.699054 
L 309.592833 264.462879 
L 310.041749 269.283857 
L 310.735631 274.126182 
L 311.71386 278.99095 
L 313.023149 283.847808 
L 314.701011 288.677421 
L 316.787933 293.455283 
L 317.819791 295.488 
L 317.819791 295.488 
" style="fill:none;stroke:#ffffff;stroke-linecap:square;"/>
   </g>
   <g id="patch_3">
    <path d="M 57.6 307.584 
L 57.6 41.472 
" style="fill:none;stroke:#000000;stroke-linecap:square;stroke-linejoin:miter;stroke-width:0.8;"/>
   </g>
   <g id="patch_4">
    <path d="M 414.72 307.584 
L 414.72 41.472 
" style="fill:none;stroke:#000000;stroke-linecap:square;stroke-linejoin:miter;stroke-width:0.8;"/>
   </g>
   <g id="patch_5">
    <path d="M 57.6 307.584 
L 414.72 307.584 
" style="fill:none;stroke:#000000;stroke-linecap:square;stroke-linejoin:miter;stroke-width:0.8;"/>
   </g>
   <g id="patch_6">
    <path d="M 57.6 41.472 
L 414.72 41.472 
" style="fill:none;stroke:#000000;stroke-linecap:square;stroke-linejoin:miter;stroke-width:0.8;"/>
   </g>
  </g>
 </g>
 <defs>
  <clipPath id="p98948b25b2">
   <rect height="266.112" width="357.12" x="57.6" y="41.472"/>
  </clipPath>
 </defs>
</svg>
