<?xml version="1.0" encoding="utf-8" standalone="no"?>
<!DOCTYPE svg PUBLIC "-//W3C//DTD SVG 1.1//EN"
  "http://www.w3.org/Graphics/SVG/1.1/DTD/svg11.dtd">
<!-- Created with matplotlib (https://matplotlib.org/) -->
<svg height="345.6pt" version="1.1" viewBox="0 0 460.8 345.6" width="460.8pt" xmlns="http://www.w3.org/2000/svg" xmlns:xlink="http://www.w3.org/1999/xlink">
 <metadata>
  <rdf:RDF xmlns:cc="http://creativecommons.org/ns#" xmlns:dc="http://purl.org/dc/elements/1.1/" xmlns:rdf="http://www.w3.org/1999/02/22-rdf-syntax-ns#">
   <cc:Work>
    <dc:type rdf:resource="http://purl.org/dc/dcmitype/StillImage"/>
    <dc:date>2021-01-25T11:02:45.973435</dc:date>
    <dc:format>image/svg+xml</dc:format>
    <dc:creator>
     <cc:Agent>
      <dc:title>Matplotlib v3.3.3, https://matplotlib.org/</dc:title>
     </cc:Agent>
    </dc:creator>
   </cc:Work>
  </rdf:RDF>
 </metadata>
 <defs>
  <style type="text/css">*{stroke-linecap:butt;stroke-linejoin:round;}</style>
 </defs>
 <g id="figure_1">
  <g id="patch_1">
   <path d="M 0 345.6 
L 460.8 345.6 
L 460.8 0 
L 0 0 
z
" style="fill:#ffffff;"/>
  </g>
  <g id="axes_1">
   <g id="patch_2">
    <path d="M 57.6 307.584 
L 414.72 307.584 
L 414.72 41.472 
L 57.6 41.472 
z
" style="fill:#7d9051;"/>
   </g>
   <g id="matplotlib.axis_1">
    <g id="xtick_1">
     <g id="line2d_1">
      <defs>
       <path d="M 0 0 
L 0 3.5 
" id="mcdf9d53f39" style="stroke:#000000;stroke-width:0.8;"/>
      </defs>
      <g>
       <use style="stroke:#000000;stroke-width:0.8;" x="89.565206" xlink:href="#mcdf9d53f39" y="307.584"/>
      </g>
     </g>
     <g id="text_1">
      <!-- 0 -->
      <g transform="translate(86.383956 322.182437)scale(0.1 -0.1)">
       <defs>
        <path d="M 31.78125 66.40625 
Q 24.171875 66.40625 20.328125 58.90625 
Q 16.5 51.421875 16.5 36.375 
Q 16.5 21.390625 20.328125 13.890625 
Q 24.171875 6.390625 31.78125 6.390625 
Q 39.453125 6.390625 43.28125 13.890625 
Q 47.125 21.390625 47.125 36.375 
Q 47.125 51.421875 43.28125 58.90625 
Q 39.453125 66.40625 31.78125 66.40625 
z
M 31.78125 74.21875 
Q 44.046875 74.21875 50.515625 64.515625 
Q 56.984375 54.828125 56.984375 36.375 
Q 56.984375 17.96875 50.515625 8.265625 
Q 44.046875 -1.421875 31.78125 -1.421875 
Q 19.53125 -1.421875 13.0625 8.265625 
Q 6.59375 17.96875 6.59375 36.375 
Q 6.59375 54.828125 13.0625 64.515625 
Q 19.53125 74.21875 31.78125 74.21875 
z
" id="DejaVuSans-48"/>
       </defs>
       <use xlink:href="#DejaVuSans-48"/>
      </g>
     </g>
    </g>
    <g id="xtick_2">
     <g id="line2d_2">
      <g>
       <use style="stroke:#000000;stroke-width:0.8;" x="158.998643" xlink:href="#mcdf9d53f39" y="307.584"/>
      </g>
     </g>
     <g id="text_2">
      <!-- 20 -->
      <g transform="translate(152.636143 322.182437)scale(0.1 -0.1)">
       <defs>
        <path d="M 19.1875 8.296875 
L 53.609375 8.296875 
L 53.609375 0 
L 7.328125 0 
L 7.328125 8.296875 
Q 12.9375 14.109375 22.625 23.890625 
Q 32.328125 33.6875 34.8125 36.53125 
Q 39.546875 41.84375 41.421875 45.53125 
Q 43.3125 49.21875 43.3125 52.78125 
Q 43.3125 58.59375 39.234375 62.25 
Q 35.15625 65.921875 28.609375 65.921875 
Q 23.96875 65.921875 18.8125 64.3125 
Q 13.671875 62.703125 7.8125 59.421875 
L 7.8125 69.390625 
Q 13.765625 71.78125 18.9375 73 
Q 24.125 74.21875 28.421875 74.21875 
Q 39.75 74.21875 46.484375 68.546875 
Q 53.21875 62.890625 53.21875 53.421875 
Q 53.21875 48.921875 51.53125 44.890625 
Q 49.859375 40.875 45.40625 35.40625 
Q 44.1875 33.984375 37.640625 27.21875 
Q 31.109375 20.453125 19.1875 8.296875 
z
" id="DejaVuSans-50"/>
       </defs>
       <use xlink:href="#DejaVuSans-50"/>
       <use x="63.623047" xlink:href="#DejaVuSans-48"/>
      </g>
     </g>
    </g>
    <g id="xtick_3">
     <g id="line2d_3">
      <g>
       <use style="stroke:#000000;stroke-width:0.8;" x="228.43208" xlink:href="#mcdf9d53f39" y="307.584"/>
      </g>
     </g>
     <g id="text_3">
      <!-- 40 -->
      <g transform="translate(222.06958 322.182437)scale(0.1 -0.1)">
       <defs>
        <path d="M 37.796875 64.3125 
L 12.890625 25.390625 
L 37.796875 25.390625 
z
M 35.203125 72.90625 
L 47.609375 72.90625 
L 47.609375 25.390625 
L 58.015625 25.390625 
L 58.015625 17.1875 
L 47.609375 17.1875 
L 47.609375 0 
L 37.796875 0 
L 37.796875 17.1875 
L 4.890625 17.1875 
L 4.890625 26.703125 
z
" id="DejaVuSans-52"/>
       </defs>
       <use xlink:href="#DejaVuSans-52"/>
       <use x="63.623047" xlink:href="#DejaVuSans-48"/>
      </g>
     </g>
    </g>
    <g id="xtick_4">
     <g id="line2d_4">
      <g>
       <use style="stroke:#000000;stroke-width:0.8;" x="297.865518" xlink:href="#mcdf9d53f39" y="307.584"/>
      </g>
     </g>
     <g id="text_4">
      <!-- 60 -->
      <g transform="translate(291.503018 322.182437)scale(0.1 -0.1)">
       <defs>
        <path d="M 33.015625 40.375 
Q 26.375 40.375 22.484375 35.828125 
Q 18.609375 31.296875 18.609375 23.390625 
Q 18.609375 15.53125 22.484375 10.953125 
Q 26.375 6.390625 33.015625 6.390625 
Q 39.65625 6.390625 43.53125 10.953125 
Q 47.40625 15.53125 47.40625 23.390625 
Q 47.40625 31.296875 43.53125 35.828125 
Q 39.65625 40.375 33.015625 40.375 
z
M 52.59375 71.296875 
L 52.59375 62.3125 
Q 48.875 64.0625 45.09375 64.984375 
Q 41.3125 65.921875 37.59375 65.921875 
Q 27.828125 65.921875 22.671875 59.328125 
Q 17.53125 52.734375 16.796875 39.40625 
Q 19.671875 43.65625 24.015625 45.921875 
Q 28.375 48.1875 33.59375 48.1875 
Q 44.578125 48.1875 50.953125 41.515625 
Q 57.328125 34.859375 57.328125 23.390625 
Q 57.328125 12.15625 50.6875 5.359375 
Q 44.046875 -1.421875 33.015625 -1.421875 
Q 20.359375 -1.421875 13.671875 8.265625 
Q 6.984375 17.96875 6.984375 36.375 
Q 6.984375 53.65625 15.1875 63.9375 
Q 23.390625 74.21875 37.203125 74.21875 
Q 40.921875 74.21875 44.703125 73.484375 
Q 48.484375 72.75 52.59375 71.296875 
z
" id="DejaVuSans-54"/>
       </defs>
       <use xlink:href="#DejaVuSans-54"/>
       <use x="63.623047" xlink:href="#DejaVuSans-48"/>
      </g>
     </g>
    </g>
    <g id="xtick_5">
     <g id="line2d_5">
      <g>
       <use style="stroke:#000000;stroke-width:0.8;" x="367.298955" xlink:href="#mcdf9d53f39" y="307.584"/>
      </g>
     </g>
     <g id="text_5">
      <!-- 80 -->
      <g transform="translate(360.936455 322.182437)scale(0.1 -0.1)">
       <defs>
        <path d="M 31.78125 34.625 
Q 24.75 34.625 20.71875 30.859375 
Q 16.703125 27.09375 16.703125 20.515625 
Q 16.703125 13.921875 20.71875 10.15625 
Q 24.75 6.390625 31.78125 6.390625 
Q 38.8125 6.390625 42.859375 10.171875 
Q 46.921875 13.96875 46.921875 20.515625 
Q 46.921875 27.09375 42.890625 30.859375 
Q 38.875 34.625 31.78125 34.625 
z
M 21.921875 38.8125 
Q 15.578125 40.375 12.03125 44.71875 
Q 8.5 49.078125 8.5 55.328125 
Q 8.5 64.0625 14.71875 69.140625 
Q 20.953125 74.21875 31.78125 74.21875 
Q 42.671875 74.21875 48.875 69.140625 
Q 55.078125 64.0625 55.078125 55.328125 
Q 55.078125 49.078125 51.53125 44.71875 
Q 48 40.375 41.703125 38.8125 
Q 48.828125 37.15625 52.796875 32.3125 
Q 56.78125 27.484375 56.78125 20.515625 
Q 56.78125 9.90625 50.3125 4.234375 
Q 43.84375 -1.421875 31.78125 -1.421875 
Q 19.734375 -1.421875 13.25 4.234375 
Q 6.78125 9.90625 6.78125 20.515625 
Q 6.78125 27.484375 10.78125 32.3125 
Q 14.796875 37.15625 21.921875 38.8125 
z
M 18.3125 54.390625 
Q 18.3125 48.734375 21.84375 45.5625 
Q 25.390625 42.390625 31.78125 42.390625 
Q 38.140625 42.390625 41.71875 45.5625 
Q 45.3125 48.734375 45.3125 54.390625 
Q 45.3125 60.0625 41.71875 63.234375 
Q 38.140625 66.40625 31.78125 66.40625 
Q 25.390625 66.40625 21.84375 63.234375 
Q 18.3125 60.0625 18.3125 54.390625 
z
" id="DejaVuSans-56"/>
       </defs>
       <use xlink:href="#DejaVuSans-56"/>
       <use x="63.623047" xlink:href="#DejaVuSans-48"/>
      </g>
     </g>
    </g>
   </g>
   <g id="matplotlib.axis_2">
    <g id="ytick_1">
     <g id="line2d_6">
      <defs>
       <path d="M 0 0 
L -3.5 0 
" id="mf8e4358504" style="stroke:#000000;stroke-width:0.8;"/>
      </defs>
      <g>
       <use style="stroke:#000000;stroke-width:0.8;" x="57.6" xlink:href="#mf8e4358504" y="279.775321"/>
      </g>
     </g>
     <g id="text_6">
      <!-- 10 -->
      <g transform="translate(37.875 283.57454)scale(0.1 -0.1)">
       <defs>
        <path d="M 12.40625 8.296875 
L 28.515625 8.296875 
L 28.515625 63.921875 
L 10.984375 60.40625 
L 10.984375 69.390625 
L 28.421875 72.90625 
L 38.28125 72.90625 
L 38.28125 8.296875 
L 54.390625 8.296875 
L 54.390625 0 
L 12.40625 0 
z
" id="DejaVuSans-49"/>
       </defs>
       <use xlink:href="#DejaVuSans-49"/>
       <use x="63.623047" xlink:href="#DejaVuSans-48"/>
      </g>
     </g>
    </g>
    <g id="ytick_2">
     <g id="line2d_7">
      <g>
       <use style="stroke:#000000;stroke-width:0.8;" x="57.6" xlink:href="#mf8e4358504" y="245.058602"/>
      </g>
     </g>
     <g id="text_7">
      <!-- 20 -->
      <g transform="translate(37.875 248.857821)scale(0.1 -0.1)">
       <use xlink:href="#DejaVuSans-50"/>
       <use x="63.623047" xlink:href="#DejaVuSans-48"/>
      </g>
     </g>
    </g>
    <g id="ytick_3">
     <g id="line2d_8">
      <g>
       <use style="stroke:#000000;stroke-width:0.8;" x="57.6" xlink:href="#mf8e4358504" y="210.341884"/>
      </g>
     </g>
     <g id="text_8">
      <!-- 30 -->
      <g transform="translate(37.875 214.141102)scale(0.1 -0.1)">
       <defs>
        <path d="M 40.578125 39.3125 
Q 47.65625 37.796875 51.625 33 
Q 55.609375 28.21875 55.609375 21.1875 
Q 55.609375 10.40625 48.1875 4.484375 
Q 40.765625 -1.421875 27.09375 -1.421875 
Q 22.515625 -1.421875 17.65625 -0.515625 
Q 12.796875 0.390625 7.625 2.203125 
L 7.625 11.71875 
Q 11.71875 9.328125 16.59375 8.109375 
Q 21.484375 6.890625 26.8125 6.890625 
Q 36.078125 6.890625 40.9375 10.546875 
Q 45.796875 14.203125 45.796875 21.1875 
Q 45.796875 27.640625 41.28125 31.265625 
Q 36.765625 34.90625 28.71875 34.90625 
L 20.21875 34.90625 
L 20.21875 43.015625 
L 29.109375 43.015625 
Q 36.375 43.015625 40.234375 45.921875 
Q 44.09375 48.828125 44.09375 54.296875 
Q 44.09375 59.90625 40.109375 62.90625 
Q 36.140625 65.921875 28.71875 65.921875 
Q 24.65625 65.921875 20.015625 65.03125 
Q 15.375 64.15625 9.8125 62.3125 
L 9.8125 71.09375 
Q 15.4375 72.65625 20.34375 73.4375 
Q 25.25 74.21875 29.59375 74.21875 
Q 40.828125 74.21875 47.359375 69.109375 
Q 53.90625 64.015625 53.90625 55.328125 
Q 53.90625 49.265625 50.4375 45.09375 
Q 46.96875 40.921875 40.578125 39.3125 
z
" id="DejaVuSans-51"/>
       </defs>
       <use xlink:href="#DejaVuSans-51"/>
       <use x="63.623047" xlink:href="#DejaVuSans-48"/>
      </g>
     </g>
    </g>
    <g id="ytick_4">
     <g id="line2d_9">
      <g>
       <use style="stroke:#000000;stroke-width:0.8;" x="57.6" xlink:href="#mf8e4358504" y="175.625165"/>
      </g>
     </g>
     <g id="text_9">
      <!-- 40 -->
      <g transform="translate(37.875 179.424384)scale(0.1 -0.1)">
       <use xlink:href="#DejaVuSans-52"/>
       <use x="63.623047" xlink:href="#DejaVuSans-48"/>
      </g>
     </g>
    </g>
    <g id="ytick_5">
     <g id="line2d_10">
      <g>
       <use style="stroke:#000000;stroke-width:0.8;" x="57.6" xlink:href="#mf8e4358504" y="140.908446"/>
      </g>
     </g>
     <g id="text_10">
      <!-- 50 -->
      <g transform="translate(37.875 144.707665)scale(0.1 -0.1)">
       <defs>
        <path d="M 10.796875 72.90625 
L 49.515625 72.90625 
L 49.515625 64.59375 
L 19.828125 64.59375 
L 19.828125 46.734375 
Q 21.96875 47.46875 24.109375 47.828125 
Q 26.265625 48.1875 28.421875 48.1875 
Q 40.625 48.1875 47.75 41.5 
Q 54.890625 34.8125 54.890625 23.390625 
Q 54.890625 11.625 47.5625 5.09375 
Q 40.234375 -1.421875 26.90625 -1.421875 
Q 22.3125 -1.421875 17.546875 -0.640625 
Q 12.796875 0.140625 7.71875 1.703125 
L 7.71875 11.625 
Q 12.109375 9.234375 16.796875 8.0625 
Q 21.484375 6.890625 26.703125 6.890625 
Q 35.15625 6.890625 40.078125 11.328125 
Q 45.015625 15.765625 45.015625 23.390625 
Q 45.015625 31 40.078125 35.4375 
Q 35.15625 39.890625 26.703125 39.890625 
Q 22.75 39.890625 18.8125 39.015625 
Q 14.890625 38.140625 10.796875 36.28125 
z
" id="DejaVuSans-53"/>
       </defs>
       <use xlink:href="#DejaVuSans-53"/>
       <use x="63.623047" xlink:href="#DejaVuSans-48"/>
      </g>
     </g>
    </g>
    <g id="ytick_6">
     <g id="line2d_11">
      <g>
       <use style="stroke:#000000;stroke-width:0.8;" x="57.6" xlink:href="#mf8e4358504" y="106.191728"/>
      </g>
     </g>
     <g id="text_11">
      <!-- 60 -->
      <g transform="translate(37.875 109.990947)scale(0.1 -0.1)">
       <use xlink:href="#DejaVuSans-54"/>
       <use x="63.623047" xlink:href="#DejaVuSans-48"/>
      </g>
     </g>
    </g>
    <g id="ytick_7">
     <g id="line2d_12">
      <g>
       <use style="stroke:#000000;stroke-width:0.8;" x="57.6" xlink:href="#mf8e4358504" y="71.475009"/>
      </g>
     </g>
     <g id="text_12">
      <!-- 70 -->
      <g transform="translate(37.875 75.274228)scale(0.1 -0.1)">
       <defs>
        <path d="M 8.203125 72.90625 
L 55.078125 72.90625 
L 55.078125 68.703125 
L 28.609375 0 
L 18.3125 0 
L 43.21875 64.59375 
L 8.203125 64.59375 
z
" id="DejaVuSans-55"/>
       </defs>
       <use xlink:href="#DejaVuSans-55"/>
       <use x="63.623047" xlink:href="#DejaVuSans-48"/>
      </g>
     </g>
    </g>
   </g>
   <g id="line2d_13">
    <path clip-path="url(#pb689bb7df1)" d="M 347.829819 169.96634 
L 348.30891 156.357386 
L 348.388758 149.361967 
L 348.263778 142.30753 
L 347.857592 135.249621 
L 347.093825 128.240316 
L 346.555715 124.768644 
L 345.896098 121.324745 
L 345.1115 117.922507 
L 344.191507 114.561929 
L 343.125704 111.253425 
L 341.903675 108.00394 
L 340.515006 104.813474 
L 338.952754 101.695913 
L 337.209975 98.654728 
L 335.293612 95.703807 
L 333.210609 92.853564 
L 330.967909 90.117887 
L 328.579398 87.514133 
L 326.04855 85.045774 
L 323.392721 82.733641 
L 320.60844 80.584676 
L 317.716537 78.616238 
L 314.717013 76.835271 
L 311.627225 75.259131 
L 308.447173 73.870463 
L 305.194217 72.662321 
L 301.875299 71.613876 
L 298.500833 70.718185 
L 295.081237 69.96136 
L 291.623452 69.326044 
L 284.641919 68.378278 
L 277.632614 67.767264 
L 270.637195 67.4687 
L 263.673021 67.527718 
L 260.204821 67.704774 
L 256.747036 67.992922 
L 253.299666 68.392165 
L 249.869654 68.916387 
L 246.453529 69.562118 
L 243.054762 70.343244 
L 239.676825 71.252822 
L 236.333605 72.294324 
L 233.032046 73.467749 
L 229.775617 74.766154 
L 226.578208 76.193011 
L 223.443288 77.74832 
L 220.381273 79.425138 
L 217.399107 81.226935 
L 214.503733 83.150242 
L 211.702094 85.191585 
L 208.987246 87.344021 
L 203.776267 91.919685 
L 198.784003 96.766139 
L 191.53168 104.313553 
L 170.128823 127.118966 
L 165.546216 132.31953 
L 161.085118 137.63466 
L 156.762886 143.071298 
L 152.582994 148.622501 
L 148.552382 154.28827 
L 144.68494 160.068603 
L 140.991081 165.963502 
L 137.515938 171.990325 
L 134.311585 178.159485 
L 131.433569 184.491815 
L 128.930493 191.008143 
L 127.836917 194.334005 
L 126.861377 197.704998 
L 126.007345 201.11418 
L 125.288709 204.551135 
L 124.712412 208.00892 
L 124.285396 211.484064 
L 124.021549 214.969622 
L 123.927814 218.455181 
L 124.011134 221.937268 
L 124.281925 225.408939 
L 124.747129 228.863253 
L 125.403275 232.293265 
L 126.250362 235.685088 
L 127.277977 239.03178 
L 128.486119 242.326396 
L 129.871316 245.558523 
L 131.426625 248.717744 
L 133.148574 251.797117 
L 135.033692 254.789698 
L 137.078507 257.681601 
L 139.279547 260.465882 
L 141.626397 263.132126 
L 144.112114 265.666446 
L 146.729755 268.054957 
L 149.468904 270.28377 
L 152.32609 272.345943 
L 155.290898 274.224117 
L 158.356384 275.907878 
L 161.515605 277.383339 
L 164.758147 278.636612 
L 168.077065 279.664227 
L 171.461945 280.466183 
L 174.8989 281.049424 
L 178.380987 281.424365 
L 181.887376 281.60142 
L 185.414594 281.587533 
L 188.945285 281.389648 
L 192.472503 281.014708 
L 195.978892 280.473127 
L 199.457507 279.775321 
L 202.89099 278.924761 
L 206.279342 277.921448 
L 209.605204 276.768853 
L 212.865104 275.460033 
L 216.052098 273.998459 
L 219.155773 272.384131 
L 222.165713 270.61705 
L 225.078445 268.690273 
L 227.880085 266.610741 
L 230.567159 264.371513 
L 233.132724 261.976059 
L 235.562894 259.434795 
L 237.850726 256.758136 
L 239.985804 253.953025 
L 241.964657 251.029878 
L 243.77687 248.006052 
L 245.408556 244.885019 
L 246.859715 241.677194 
L 248.112988 238.399936 
L 249.164905 235.056716 
L 250.008521 231.66142 
L 250.643837 228.220994 
L 251.077796 224.749322 
L 251.31387 221.253348 
L 251.35553 217.743488 
L 251.206248 214.230156 
L 250.869496 210.723767 
L 250.352216 207.234737 
L 249.661354 203.770009 
L 248.793436 200.339997 
L 247.758878 196.958589 
L 246.557679 193.632727 
L 245.196784 190.372827 
L 243.679663 187.185832 
L 242.009789 184.085629 
L 240.194105 181.082633 
L 238.236082 178.183787 
L 236.13572 175.399506 
L 233.903435 172.740206 
L 231.535755 170.2163 
L 231.535755 170.2163 
" style="fill:none;stroke:#fea952;stroke-linecap:square;"/>
   </g>
   <g id="line2d_14">
    <path clip-path="url(#pb689bb7df1)" d="M 333.954553 169.403244 
L 334.424449 156.108709 
L 334.502617 149.485096 
L 334.391896 142.94861 
L 334.032968 136.561048 
L 333.371004 130.367353 
L 332.364566 124.445282 
L 331.717645 121.589213 
L 330.973728 118.819912 
L 330.127764 116.141539 
L 329.170814 113.545991 
L 328.099911 111.034847 
L 326.904206 108.600446 
L 325.563641 106.217994 
L 324.081874 103.897525 
L 322.471412 101.657526 
L 320.734678 99.50517 
L 318.883527 97.45547 
L 316.930301 95.519438 
L 314.907984 93.72679 
L 312.79454 92.064356 
L 310.626845 90.556772 
L 308.406825 89.205461 
L 306.069926 87.985345 
L 303.612365 86.888324 
L 301.011174 85.904007 
L 298.31269 85.035795 
L 295.500049 84.276775 
L 292.571773 83.619423 
L 286.459334 82.589736 
L 280.065224 81.883433 
L 273.705876 81.456434 
L 267.45646 81.334683 
L 261.358048 81.543493 
L 255.397663 82.119455 
L 249.563966 83.095974 
L 243.807117 84.511057 
L 240.984151 85.379144 
L 235.434692 87.447438 
L 232.74992 88.632869 
L 230.113267 89.928282 
L 227.562508 91.310842 
L 225.082841 92.794144 
L 222.681409 94.373686 
L 220.32944 96.073174 
L 215.669903 99.883718 
L 211.033568 104.17597 
L 206.374617 108.861669 
L 189.664462 126.467002 
L 182.739295 133.888363 
L 176.126 141.314432 
L 171.896228 146.350163 
L 167.793492 151.507283 
L 163.843567 156.748974 
L 160.04029 162.090069 
L 156.39261 167.536572 
L 152.946223 173.028534 
L 149.762749 178.536751 
L 146.873061 184.07974 
L 144.316521 189.675406 
L 142.122353 195.345759 
L 140.331827 201.079469 
L 139.600081 203.956297 
L 138.986453 206.834092 
L 138.495436 209.702538 
L 138.132468 212.532248 
L 137.903218 215.342934 
L 137.810528 218.122992 
L 137.85577 220.857386 
L 138.044369 223.555505 
L 138.386499 226.254102 
L 138.876151 228.928493 
L 139.525347 231.608952 
L 140.315711 234.250819 
L 141.249999 236.856162 
L 142.330045 239.424995 
L 143.547035 241.940153 
L 144.898352 244.395575 
L 146.372253 246.772397 
L 147.972363 249.06975 
L 149.703394 251.290725 
L 151.540373 253.408281 
L 153.472256 255.408384 
L 155.494305 257.283571 
L 157.595931 259.023596 
L 159.757498 260.615033 
L 161.976273 262.0526 
L 164.232646 263.325763 
L 166.522003 264.430499 
L 168.86542 265.371229 
L 171.278516 266.151611 
L 173.785259 266.775227 
L 176.385583 267.242547 
L 179.081304 267.555347 
L 181.832704 267.71484 
L 184.637504 267.722606 
L 187.47741 267.580759 
L 190.352764 267.290758 
L 193.247649 266.85768 
L 196.11836 266.296071 
L 198.948267 265.609544 
L 201.732156 264.800351 
L 204.431258 263.882023 
L 207.076309 262.837436 
L 209.644136 261.678633 
L 212.125207 260.408688 
L 214.504227 259.035093 
L 216.801806 257.539608 
L 218.990044 255.942692 
L 221.090061 254.221404 
L 223.096431 252.378512 
L 225.006781 250.412126 
L 226.800735 248.347561 
L 228.486302 246.168327 
L 230.053303 243.89127 
L 231.470517 241.572252 
L 232.756285 239.161372 
L 233.889098 236.717032 
L 234.866525 234.232045 
L 235.687989 231.708157 
L 236.352714 229.139712 
L 236.864384 226.498562 
L 237.222662 223.813722 
L 237.42816 221.088533 
L 237.481361 218.333003 
L 237.383163 215.55772 
L 237.132957 212.760329 
L 236.733627 209.950268 
L 236.198961 207.176485 
L 235.514363 204.402793 
L 234.697942 201.675795 
L 233.742835 198.982481 
L 232.658285 196.34159 
L 231.453716 193.771141 
L 230.126365 191.270636 
L 228.686539 188.855408 
L 227.149998 186.546731 
L 225.499608 184.327731 
L 223.775622 182.241126 
L 221.407941 179.71722 
L 221.407941 179.71722 
" style="fill:none;stroke:#ffffff;stroke-linecap:square;"/>
   </g>
   <g id="line2d_15">
    <path clip-path="url(#pb689bb7df1)" d="M 361.705085 170.529436 
L 362.19337 156.606063 
L 362.2749 149.238839 
L 362.13566 141.66645 
L 361.682217 133.938194 
L 361.3069 130.039129 
L 360.816645 126.113279 
L 360.194489 122.156379 
L 359.427629 118.204209 
L 358.505355 114.255801 
L 357.409285 110.303945 
L 356.123643 106.365311 
L 354.636537 102.46189 
L 352.930102 98.592101 
L 351.001302 94.791379 
L 348.856309 91.091462 
L 346.50535 87.510089 
L 343.949806 84.049603 
L 341.201139 80.730604 
L 338.27527 77.572797 
L 335.166798 74.572111 
L 331.877458 71.740492 
L 328.42234 69.104996 
L 324.806229 66.675704 
L 321.0272 64.46508 
L 317.184523 62.532918 
L 313.281982 60.852601 
L 309.37726 59.420635 
L 305.437907 58.191957 
L 301.501618 57.159594 
L 297.5907 56.303297 
L 293.677383 55.592092 
L 285.983042 54.556502 
L 278.389195 53.901202 
L 270.706351 53.582185 
L 262.965013 53.659091 
L 259.051595 53.866054 
L 255.149487 54.198433 
L 251.201669 54.664874 
L 247.290406 55.271331 
L 243.343092 56.028262 
L 239.444098 56.934173 
L 235.546534 57.994588 
L 231.68306 59.209504 
L 227.888888 60.568601 
L 224.116543 62.08487 
L 220.406495 63.753154 
L 216.773309 65.568358 
L 213.200039 67.539434 
L 209.715374 69.659726 
L 206.326056 71.926798 
L 203.074747 74.309996 
L 199.98548 76.770077 
L 197.027648 79.296667 
L 191.478098 84.454307 
L 186.312218 89.655929 
L 169.451306 107.419989 
L 162.177335 115.218437 
L 154.966432 123.324628 
L 150.274008 128.919157 
L 145.732281 134.635313 
L 141.32242 140.496028 
L 137.064475 146.48647 
L 132.977271 152.600634 
L 129.035939 158.898471 
L 125.269126 165.443898 
L 121.750109 172.239231 
L 118.550616 179.308223 
L 117.091581 182.952939 
L 115.738633 186.670527 
L 114.497571 190.4737 
L 113.390926 194.330527 
L 112.41461 198.272062 
L 111.590965 202.268178 
L 110.929388 206.315302 
L 110.438324 210.435879 
L 110.13988 214.59631 
L 110.0451 218.787369 
L 110.166498 223.017149 
L 110.51948 227.262374 
L 111.107758 231.472404 
L 111.930398 235.658036 
L 112.975378 239.761224 
L 114.240243 243.81274 
L 115.722239 247.796631 
L 117.412587 251.692051 
L 119.306215 255.495336 
L 121.398797 259.198659 
L 123.695131 262.807 
L 126.184651 266.293452 
L 128.8557 269.641039 
L 131.712421 272.855971 
L 134.751973 275.924508 
L 137.965205 278.826343 
L 141.341877 281.543944 
L 144.894682 284.076853 
L 148.605523 286.395635 
L 152.480121 288.489994 
L 156.509208 290.336179 
L 160.650873 291.901996 
L 164.875614 293.176844 
L 169.138631 294.15714 
L 173.412218 294.856302 
L 177.68067 295.293382 
L 181.942047 295.488 
L 186.191685 295.452461 
L 190.413159 295.198538 
L 194.592242 294.738657 
L 198.710134 294.088574 
L 202.796654 293.254571 
L 206.833714 292.239979 
L 210.826528 291.042545 
L 214.779149 289.655683 
L 218.653898 288.082629 
L 222.460061 286.318284 
L 226.186339 284.359574 
L 229.827198 282.199008 
L 233.355085 279.840937 
L 236.770125 277.27879 
L 240.044256 274.521622 
L 243.169017 271.573607 
L 246.119007 268.457465 
L 248.900718 265.168712 
L 251.485307 261.737724 
L 253.876012 258.168485 
L 256.083222 254.439851 
L 258.060827 250.608665 
L 259.830331 246.637355 
L 261.359451 242.567826 
L 262.64182 238.405274 
L 263.664328 234.183129 
L 264.42329 229.943425 
L 264.93293 225.684922 
L 265.199579 221.418164 
L 265.229698 217.153973 
L 265.029332 212.902593 
L 264.606035 208.687206 
L 263.970806 204.519207 
L 263.123746 200.363533 
L 262.072509 196.277201 
L 260.819814 192.241382 
L 259.372523 188.282973 
L 257.735283 184.404064 
L 255.905611 180.600523 
L 253.893213 176.900623 
L 251.70167 173.309858 
L 249.322166 169.820843 
L 246.771833 166.471281 
L 244.031249 163.239286 
L 241.663569 160.71538 
L 241.663569 160.71538 
" style="fill:none;stroke:#ffffff;stroke-linecap:square;"/>
   </g>
   <g id="patch_3">
    <path d="M 57.6 307.584 
L 57.6 41.472 
" style="fill:none;stroke:#000000;stroke-linecap:square;stroke-linejoin:miter;stroke-width:0.8;"/>
   </g>
   <g id="patch_4">
    <path d="M 414.72 307.584 
L 414.72 41.472 
" style="fill:none;stroke:#000000;stroke-linecap:square;stroke-linejoin:miter;stroke-width:0.8;"/>
   </g>
   <g id="patch_5">
    <path d="M 57.6 307.584 
L 414.72 307.584 
" style="fill:none;stroke:#000000;stroke-linecap:square;stroke-linejoin:miter;stroke-width:0.8;"/>
   </g>
   <g id="patch_6">
    <path d="M 57.6 41.472 
L 414.72 41.472 
" style="fill:none;stroke:#000000;stroke-linecap:square;stroke-linejoin:miter;stroke-width:0.8;"/>
   </g>
  </g>
 </g>
 <defs>
  <clipPath id="pb689bb7df1">
   <rect height="266.112" width="357.12" x="57.6" y="41.472"/>
  </clipPath>
 </defs>
</svg>
