<?xml version="1.0" encoding="utf-8" standalone="no"?>
<!DOCTYPE svg PUBLIC "-//W3C//DTD SVG 1.1//EN"
  "http://www.w3.org/Graphics/SVG/1.1/DTD/svg11.dtd">
<!-- Created with matplotlib (https://matplotlib.org/) -->
<svg height="345.6pt" version="1.1" viewBox="0 0 460.8 345.6" width="460.8pt" xmlns="http://www.w3.org/2000/svg" xmlns:xlink="http://www.w3.org/1999/xlink">
 <metadata>
  <rdf:RDF xmlns:cc="http://creativecommons.org/ns#" xmlns:dc="http://purl.org/dc/elements/1.1/" xmlns:rdf="http://www.w3.org/1999/02/22-rdf-syntax-ns#">
   <cc:Work>
    <dc:type rdf:resource="http://purl.org/dc/dcmitype/StillImage"/>
    <dc:date>2021-01-23T13:11:21.852909</dc:date>
    <dc:format>image/svg+xml</dc:format>
    <dc:creator>
     <cc:Agent>
      <dc:title>Matplotlib v3.3.3, https://matplotlib.org/</dc:title>
     </cc:Agent>
    </dc:creator>
   </cc:Work>
  </rdf:RDF>
 </metadata>
 <defs>
  <style type="text/css">*{stroke-linecap:butt;stroke-linejoin:round;}</style>
 </defs>
 <g id="figure_1">
  <g id="patch_1">
   <path d="M 0 345.6 
L 460.8 345.6 
L 460.8 0 
L 0 0 
z
" style="fill:#ffffff;"/>
  </g>
  <g id="axes_1">
   <g id="patch_2">
    <path d="M 57.6 307.584 
L 414.72 307.584 
L 414.72 41.472 
L 57.6 41.472 
z
" style="fill:#7d9051;"/>
   </g>
   <g id="matplotlib.axis_1">
    <g id="xtick_1">
     <g id="line2d_1">
      <defs>
       <path d="M 0 0 
L 0 3.5 
" id="mf21fb17f7f" style="stroke:#000000;stroke-width:0.8;"/>
      </defs>
      <g>
       <use style="stroke:#000000;stroke-width:0.8;" x="110.575111" xlink:href="#mf21fb17f7f" y="307.584"/>
      </g>
     </g>
     <g id="text_1">
      <!-- 20 -->
      <g transform="translate(104.212611 322.182437)scale(0.1 -0.1)">
       <defs>
        <path d="M 19.1875 8.296875 
L 53.609375 8.296875 
L 53.609375 0 
L 7.328125 0 
L 7.328125 8.296875 
Q 12.9375 14.109375 22.625 23.890625 
Q 32.328125 33.6875 34.8125 36.53125 
Q 39.546875 41.84375 41.421875 45.53125 
Q 43.3125 49.21875 43.3125 52.78125 
Q 43.3125 58.59375 39.234375 62.25 
Q 35.15625 65.921875 28.609375 65.921875 
Q 23.96875 65.921875 18.8125 64.3125 
Q 13.671875 62.703125 7.8125 59.421875 
L 7.8125 69.390625 
Q 13.765625 71.78125 18.9375 73 
Q 24.125 74.21875 28.421875 74.21875 
Q 39.75 74.21875 46.484375 68.546875 
Q 53.21875 62.890625 53.21875 53.421875 
Q 53.21875 48.921875 51.53125 44.890625 
Q 49.859375 40.875 45.40625 35.40625 
Q 44.1875 33.984375 37.640625 27.21875 
Q 31.109375 20.453125 19.1875 8.296875 
z
" id="DejaVuSans-50"/>
        <path d="M 31.78125 66.40625 
Q 24.171875 66.40625 20.328125 58.90625 
Q 16.5 51.421875 16.5 36.375 
Q 16.5 21.390625 20.328125 13.890625 
Q 24.171875 6.390625 31.78125 6.390625 
Q 39.453125 6.390625 43.28125 13.890625 
Q 47.125 21.390625 47.125 36.375 
Q 47.125 51.421875 43.28125 58.90625 
Q 39.453125 66.40625 31.78125 66.40625 
z
M 31.78125 74.21875 
Q 44.046875 74.21875 50.515625 64.515625 
Q 56.984375 54.828125 56.984375 36.375 
Q 56.984375 17.96875 50.515625 8.265625 
Q 44.046875 -1.421875 31.78125 -1.421875 
Q 19.53125 -1.421875 13.0625 8.265625 
Q 6.59375 17.96875 6.59375 36.375 
Q 6.59375 54.828125 13.0625 64.515625 
Q 19.53125 74.21875 31.78125 74.21875 
z
" id="DejaVuSans-48"/>
       </defs>
       <use xlink:href="#DejaVuSans-50"/>
       <use x="63.623047" xlink:href="#DejaVuSans-48"/>
      </g>
     </g>
    </g>
    <g id="xtick_2">
     <g id="line2d_2">
      <g>
       <use style="stroke:#000000;stroke-width:0.8;" x="164.290599" xlink:href="#mf21fb17f7f" y="307.584"/>
      </g>
     </g>
     <g id="text_2">
      <!-- 40 -->
      <g transform="translate(157.928099 322.182437)scale(0.1 -0.1)">
       <defs>
        <path d="M 37.796875 64.3125 
L 12.890625 25.390625 
L 37.796875 25.390625 
z
M 35.203125 72.90625 
L 47.609375 72.90625 
L 47.609375 25.390625 
L 58.015625 25.390625 
L 58.015625 17.1875 
L 47.609375 17.1875 
L 47.609375 0 
L 37.796875 0 
L 37.796875 17.1875 
L 4.890625 17.1875 
L 4.890625 26.703125 
z
" id="DejaVuSans-52"/>
       </defs>
       <use xlink:href="#DejaVuSans-52"/>
       <use x="63.623047" xlink:href="#DejaVuSans-48"/>
      </g>
     </g>
    </g>
    <g id="xtick_3">
     <g id="line2d_3">
      <g>
       <use style="stroke:#000000;stroke-width:0.8;" x="218.006088" xlink:href="#mf21fb17f7f" y="307.584"/>
      </g>
     </g>
     <g id="text_3">
      <!-- 60 -->
      <g transform="translate(211.643588 322.182437)scale(0.1 -0.1)">
       <defs>
        <path d="M 33.015625 40.375 
Q 26.375 40.375 22.484375 35.828125 
Q 18.609375 31.296875 18.609375 23.390625 
Q 18.609375 15.53125 22.484375 10.953125 
Q 26.375 6.390625 33.015625 6.390625 
Q 39.65625 6.390625 43.53125 10.953125 
Q 47.40625 15.53125 47.40625 23.390625 
Q 47.40625 31.296875 43.53125 35.828125 
Q 39.65625 40.375 33.015625 40.375 
z
M 52.59375 71.296875 
L 52.59375 62.3125 
Q 48.875 64.0625 45.09375 64.984375 
Q 41.3125 65.921875 37.59375 65.921875 
Q 27.828125 65.921875 22.671875 59.328125 
Q 17.53125 52.734375 16.796875 39.40625 
Q 19.671875 43.65625 24.015625 45.921875 
Q 28.375 48.1875 33.59375 48.1875 
Q 44.578125 48.1875 50.953125 41.515625 
Q 57.328125 34.859375 57.328125 23.390625 
Q 57.328125 12.15625 50.6875 5.359375 
Q 44.046875 -1.421875 33.015625 -1.421875 
Q 20.359375 -1.421875 13.671875 8.265625 
Q 6.984375 17.96875 6.984375 36.375 
Q 6.984375 53.65625 15.1875 63.9375 
Q 23.390625 74.21875 37.203125 74.21875 
Q 40.921875 74.21875 44.703125 73.484375 
Q 48.484375 72.75 52.59375 71.296875 
z
" id="DejaVuSans-54"/>
       </defs>
       <use xlink:href="#DejaVuSans-54"/>
       <use x="63.623047" xlink:href="#DejaVuSans-48"/>
      </g>
     </g>
    </g>
    <g id="xtick_4">
     <g id="line2d_4">
      <g>
       <use style="stroke:#000000;stroke-width:0.8;" x="271.721577" xlink:href="#mf21fb17f7f" y="307.584"/>
      </g>
     </g>
     <g id="text_4">
      <!-- 80 -->
      <g transform="translate(265.359077 322.182437)scale(0.1 -0.1)">
       <defs>
        <path d="M 31.78125 34.625 
Q 24.75 34.625 20.71875 30.859375 
Q 16.703125 27.09375 16.703125 20.515625 
Q 16.703125 13.921875 20.71875 10.15625 
Q 24.75 6.390625 31.78125 6.390625 
Q 38.8125 6.390625 42.859375 10.171875 
Q 46.921875 13.96875 46.921875 20.515625 
Q 46.921875 27.09375 42.890625 30.859375 
Q 38.875 34.625 31.78125 34.625 
z
M 21.921875 38.8125 
Q 15.578125 40.375 12.03125 44.71875 
Q 8.5 49.078125 8.5 55.328125 
Q 8.5 64.0625 14.71875 69.140625 
Q 20.953125 74.21875 31.78125 74.21875 
Q 42.671875 74.21875 48.875 69.140625 
Q 55.078125 64.0625 55.078125 55.328125 
Q 55.078125 49.078125 51.53125 44.71875 
Q 48 40.375 41.703125 38.8125 
Q 48.828125 37.15625 52.796875 32.3125 
Q 56.78125 27.484375 56.78125 20.515625 
Q 56.78125 9.90625 50.3125 4.234375 
Q 43.84375 -1.421875 31.78125 -1.421875 
Q 19.734375 -1.421875 13.25 4.234375 
Q 6.78125 9.90625 6.78125 20.515625 
Q 6.78125 27.484375 10.78125 32.3125 
Q 14.796875 37.15625 21.921875 38.8125 
z
M 18.3125 54.390625 
Q 18.3125 48.734375 21.84375 45.5625 
Q 25.390625 42.390625 31.78125 42.390625 
Q 38.140625 42.390625 41.71875 45.5625 
Q 45.3125 48.734375 45.3125 54.390625 
Q 45.3125 60.0625 41.71875 63.234375 
Q 38.140625 66.40625 31.78125 66.40625 
Q 25.390625 66.40625 21.84375 63.234375 
Q 18.3125 60.0625 18.3125 54.390625 
z
" id="DejaVuSans-56"/>
       </defs>
       <use xlink:href="#DejaVuSans-56"/>
       <use x="63.623047" xlink:href="#DejaVuSans-48"/>
      </g>
     </g>
    </g>
    <g id="xtick_5">
     <g id="line2d_5">
      <g>
       <use style="stroke:#000000;stroke-width:0.8;" x="325.437066" xlink:href="#mf21fb17f7f" y="307.584"/>
      </g>
     </g>
     <g id="text_5">
      <!-- 100 -->
      <g transform="translate(315.893316 322.182437)scale(0.1 -0.1)">
       <defs>
        <path d="M 12.40625 8.296875 
L 28.515625 8.296875 
L 28.515625 63.921875 
L 10.984375 60.40625 
L 10.984375 69.390625 
L 28.421875 72.90625 
L 38.28125 72.90625 
L 38.28125 8.296875 
L 54.390625 8.296875 
L 54.390625 0 
L 12.40625 0 
z
" id="DejaVuSans-49"/>
       </defs>
       <use xlink:href="#DejaVuSans-49"/>
       <use x="63.623047" xlink:href="#DejaVuSans-48"/>
       <use x="127.246094" xlink:href="#DejaVuSans-48"/>
      </g>
     </g>
    </g>
    <g id="xtick_6">
     <g id="line2d_6">
      <g>
       <use style="stroke:#000000;stroke-width:0.8;" x="379.152554" xlink:href="#mf21fb17f7f" y="307.584"/>
      </g>
     </g>
     <g id="text_6">
      <!-- 120 -->
      <g transform="translate(369.608804 322.182437)scale(0.1 -0.1)">
       <use xlink:href="#DejaVuSans-49"/>
       <use x="63.623047" xlink:href="#DejaVuSans-50"/>
       <use x="127.246094" xlink:href="#DejaVuSans-48"/>
      </g>
     </g>
    </g>
   </g>
   <g id="matplotlib.axis_2">
    <g id="ytick_1">
     <g id="line2d_7">
      <defs>
       <path d="M 0 0 
L -3.5 0 
" id="m0b1adbef3f" style="stroke:#000000;stroke-width:0.8;"/>
      </defs>
      <g>
       <use style="stroke:#000000;stroke-width:0.8;" x="57.6" xlink:href="#m0b1adbef3f" y="285.065176"/>
      </g>
     </g>
     <g id="text_7">
      <!-- 0 -->
      <g transform="translate(44.2375 288.864394)scale(0.1 -0.1)">
       <use xlink:href="#DejaVuSans-48"/>
      </g>
     </g>
    </g>
    <g id="ytick_2">
     <g id="line2d_8">
      <g>
       <use style="stroke:#000000;stroke-width:0.8;" x="57.6" xlink:href="#m0b1adbef3f" y="231.349687"/>
      </g>
     </g>
     <g id="text_8">
      <!-- 20 -->
      <g transform="translate(37.875 235.148906)scale(0.1 -0.1)">
       <use xlink:href="#DejaVuSans-50"/>
       <use x="63.623047" xlink:href="#DejaVuSans-48"/>
      </g>
     </g>
    </g>
    <g id="ytick_3">
     <g id="line2d_9">
      <g>
       <use style="stroke:#000000;stroke-width:0.8;" x="57.6" xlink:href="#m0b1adbef3f" y="177.634198"/>
      </g>
     </g>
     <g id="text_9">
      <!-- 40 -->
      <g transform="translate(37.875 181.433417)scale(0.1 -0.1)">
       <use xlink:href="#DejaVuSans-52"/>
       <use x="63.623047" xlink:href="#DejaVuSans-48"/>
      </g>
     </g>
    </g>
    <g id="ytick_4">
     <g id="line2d_10">
      <g>
       <use style="stroke:#000000;stroke-width:0.8;" x="57.6" xlink:href="#m0b1adbef3f" y="123.918709"/>
      </g>
     </g>
     <g id="text_10">
      <!-- 60 -->
      <g transform="translate(37.875 127.717928)scale(0.1 -0.1)">
       <use xlink:href="#DejaVuSans-54"/>
       <use x="63.623047" xlink:href="#DejaVuSans-48"/>
      </g>
     </g>
    </g>
    <g id="ytick_5">
     <g id="line2d_11">
      <g>
       <use style="stroke:#000000;stroke-width:0.8;" x="57.6" xlink:href="#m0b1adbef3f" y="70.203221"/>
      </g>
     </g>
     <g id="text_11">
      <!-- 80 -->
      <g transform="translate(37.875 74.002439)scale(0.1 -0.1)">
       <use xlink:href="#DejaVuSans-56"/>
       <use x="63.623047" xlink:href="#DejaVuSans-48"/>
      </g>
     </g>
    </g>
   </g>
   <g id="line2d_12">
    <path clip-path="url(#p8dfdfaf8d1)" d="M 386.702266 202.104289 
L 387.411311 196.657539 
L 387.725546 191.25376 
L 387.68526 185.887583 
L 387.338795 180.553635 
L 386.723752 175.246545 
L 385.883105 169.963626 
L 384.859825 164.699508 
L 383.076471 156.832875 
L 379.762225 143.755839 
L 377.538404 135.985894 
L 375.816822 130.899037 
L 373.810549 125.919611 
L 371.449753 121.082532 
L 368.69952 116.43077 
L 367.179372 114.188149 
L 365.565221 112.009986 
L 363.857069 109.907024 
L 362.0576 107.88195 
L 360.166815 105.940135 
L 358.184713 104.092323 
L 356.113981 102.343883 
L 353.954619 100.697504 
L 351.714683 99.163926 
L 349.399545 97.740466 
L 347.014577 96.440551 
L 344.565151 95.261496 
L 342.062009 94.208673 
L 339.505152 93.290138 
L 336.905322 92.505892 
L 334.267892 91.866677 
L 331.598232 91.369809 
L 328.9044 91.023344 
L 326.191768 90.824597 
L 323.471079 90.768196 
L 320.750389 90.856826 
L 318.037757 91.085117 
L 315.341239 91.450382 
L 312.67158 91.949936 
L 310.034149 92.583779 
L 307.439691 93.343853 
L 304.893577 94.232845 
L 302.40655 95.245382 
L 299.973238 96.373407 
L 295.251647 98.919521 
L 290.693887 101.785242 
L 286.256988 104.884626 
L 279.752042 109.77005 
L 273.427044 114.840792 
L 269.376896 118.380643 
L 265.517438 122.097754 
L 261.891642 126.032414 
L 258.542482 130.214165 
L 255.453841 134.616149 
L 252.609606 139.200766 
L 249.993662 143.927729 
L 247.581836 148.759437 
L 245.349958 153.660976 
L 242.239831 161.095199 
L 235.170873 178.504389 
L 224.733953 203.243057 
L 220.670376 213.175051 
L 218.476099 218.081961 
L 216.080388 222.919041 
L 213.418785 227.651376 
L 210.461748 232.214506 
L 207.182417 236.52786 
L 205.415178 238.566363 
L 203.559307 240.513549 
L 201.609435 242.361362 
L 199.562875 244.099058 
L 197.422313 245.71858 
L 195.187749 247.219928 
L 192.875297 248.608473 
L 190.490329 249.886902 
L 188.043589 251.055214 
L 182.997018 253.077602 
L 177.808102 254.69981 
L 172.552042 255.946009 
L 167.25838 256.853801 
L 161.932489 257.484958 
L 156.577055 257.89051 
L 148.47676 258.207431 
L 143.043438 258.282633 
L 137.615488 258.175202 
L 132.227824 257.78845 
L 126.920734 257.017633 
L 124.310161 256.456306 
L 121.731818 255.763377 
L 119.191075 254.928101 
L 116.695991 253.950479 
L 114.246564 252.841254 
L 111.848168 251.603112 
L 109.503487 250.246796 
L 107.220578 248.772306 
L 104.996757 247.190385 
L 102.842766 245.506404 
L 100.761291 243.728421 
L 98.752332 241.859122 
L 94.981504 237.876119 
L 91.557142 233.608423 
L 89.98865 231.384602 
L 87.152472 226.78387 
L 85.892844 224.423075 
L 84.748704 222.027364 
L 83.717366 219.604795 
L 83.717366 219.604795 
" style="fill:none;stroke:#fea952;stroke-linecap:square;"/>
   </g>
   <g id="line2d_13">
    <path clip-path="url(#p8dfdfaf8d1)" d="M 376.075888 200.524975 
L 376.698619 195.849836 
L 376.982792 191.167904 
L 376.956246 186.437512 
L 376.653373 181.665351 
L 376.098329 176.832268 
L 375.322189 171.933705 
L 374.358829 166.96738 
L 372.642284 159.390589 
L 369.394224 146.569858 
L 367.320091 139.302552 
L 365.790353 134.757025 
L 364.064122 130.438605 
L 362.092043 126.359596 
L 359.806864 122.458607 
L 357.226376 118.783301 
L 354.36062 115.376658 
L 351.253887 112.30072 
L 347.885497 109.562035 
L 344.258167 107.173407 
L 340.400017 105.164314 
L 338.429883 104.319153 
L 334.374857 102.94672 
L 332.302178 102.428406 
L 330.227806 102.02514 
L 328.119387 101.737722 
L 325.969106 101.565387 
L 323.820866 101.505597 
L 321.651326 101.56208 
L 317.317221 102.010195 
L 315.181947 102.395615 
L 310.981052 103.486482 
L 308.944525 104.182918 
L 304.893626 105.923482 
L 300.841912 108.093565 
L 296.756133 110.654478 
L 292.622519 113.538768 
L 286.363897 118.237489 
L 280.411499 123.003606 
L 276.722038 126.220479 
L 273.300254 129.503287 
L 270.165874 132.884512 
L 267.241482 136.518255 
L 264.509437 140.396316 
L 261.948385 144.511261 
L 259.555168 148.825867 
L 257.323877 153.28788 
L 255.219973 157.903256 
L 252.20637 165.105468 
L 245.054206 182.715549 
L 234.707927 207.234799 
L 230.511758 217.483342 
L 228.156733 222.740231 
L 225.515362 228.056688 
L 222.533084 233.338528 
L 219.142252 238.54404 
L 217.283766 241.078192 
L 215.2998 243.565064 
L 213.191856 245.978341 
L 210.949007 248.311401 
L 208.562817 250.550662 
L 206.044795 252.666372 
L 203.413626 254.635884 
L 200.718173 256.43017 
L 197.950785 258.077031 
L 195.119472 259.581498 
L 192.239576 260.944998 
L 189.338512 262.16643 
L 186.391102 263.27046 
L 183.431803 264.248161 
L 177.486253 265.862101 
L 171.565429 267.05486 
L 165.739781 267.882673 
L 159.977068 268.429533 
L 154.302079 268.762518 
L 145.846365 269.003909 
L 140.006157 268.994128 
L 133.982466 268.724783 
L 130.896628 268.448754 
L 127.803438 268.053794 
L 124.662364 267.520676 
L 121.521892 266.831262 
L 118.376655 265.969112 
L 115.271832 264.930784 
L 112.264214 263.736873 
L 109.318502 262.387371 
L 106.468846 260.902415 
L 103.674771 259.271219 
L 100.993293 257.526452 
L 98.379966 255.653967 
L 95.865149 253.675064 
L 93.443076 251.593399 
L 91.098208 249.397593 
L 88.880717 247.134134 
L 86.736202 244.763 
L 84.714876 242.329971 
L 82.778026 239.800457 
L 80.960791 237.207996 
L 79.260513 234.555435 
L 77.674164 231.841125 
L 76.198554 229.052859 
L 73.832727 223.81289 
L 73.832727 223.81289 
" style="fill:none;stroke:#ffffff;stroke-linecap:square;"/>
   </g>
   <g id="line2d_14">
    <path clip-path="url(#p8dfdfaf8d1)" d="M 397.328645 203.683603 
L 397.784563 200.567708 
L 398.349581 194.388625 
L 398.487273 188.317531 
L 398.25826 182.372273 
L 397.7186 176.532942 
L 396.92176 170.810418 
L 395.921507 165.199239 
L 394.150591 156.974781 
L 391.520985 146.306205 
L 389.390448 138.218945 
L 387.756717 132.669236 
L 385.843292 127.04105 
L 383.556976 121.400618 
L 382.239011 118.578239 
L 380.807463 115.805467 
L 379.257007 113.074379 
L 377.592177 110.402934 
L 375.810745 107.791779 
L 373.904067 105.23667 
L 371.887735 102.771021 
L 369.75458 100.387242 
L 367.492473 98.082089 
L 365.11554 95.883925 
L 362.627644 93.800678 
L 360.02374 91.832972 
L 357.341558 90.012291 
L 354.540923 88.307525 
L 351.674144 86.760541 
L 348.730285 85.358678 
L 345.694136 84.098193 
L 342.607752 83.004807 
L 339.435788 82.065063 
L 336.233606 81.304948 
L 332.968659 80.714478 
L 329.689414 80.308966 
L 326.41443 80.083807 
L 323.121292 80.030794 
L 319.849452 80.151572 
L 316.595687 80.439245 
L 313.365258 80.890569 
L 310.161213 81.504257 
L 307.013789 82.273999 
L 303.89833 83.201225 
L 300.842629 84.282771 
L 297.8882 85.498656 
L 295.05285 86.823332 
L 292.315362 88.242267 
L 287.110233 91.304974 
L 282.220733 94.566586 
L 277.608897 97.910296 
L 270.907076 103.047321 
L 266.442588 106.677978 
L 262.031754 110.540806 
L 257.734622 114.692221 
L 253.617411 119.180316 
L 249.843482 123.910075 
L 246.398245 128.835982 
L 243.270827 133.890271 
L 240.432156 139.029591 
L 237.839796 144.230994 
L 235.479942 149.418695 
L 232.273292 157.084931 
L 225.287539 174.29323 
L 214.759979 199.251316 
L 210.828995 208.866761 
L 208.795465 213.423692 
L 206.645414 217.781394 
L 204.304487 221.964223 
L 201.781244 225.884972 
L 199.065034 229.490656 
L 196.169608 232.715698 
L 194.656053 234.172062 
L 193.080955 235.531744 
L 191.430999 236.801276 
L 189.657324 238.009686 
L 185.861186 240.192306 
L 181.747753 242.065759 
L 177.400175 243.625939 
L 172.881948 244.875034 
L 168.25305 245.825523 
L 163.459146 246.517859 
L 158.537848 246.991593 
L 153.46974 247.292451 
L 145.676519 247.518385 
L 140.644711 247.517423 
L 135.844731 247.319443 
L 131.318262 246.857035 
L 127.09843 246.081351 
L 125.08698 245.557641 
L 123.110318 244.925417 
L 119.174627 243.295137 
L 115.332203 241.222372 
L 111.613548 238.726802 
L 108.079506 235.863443 
L 104.772545 232.673623 
L 101.73514 229.216344 
L 99.016508 225.561208 
L 96.63078 221.726616 
L 94.633343 217.819269 
L 93.602005 215.396701 
L 93.602005 215.396701 
" style="fill:none;stroke:#ffffff;stroke-linecap:square;"/>
   </g>
   <g id="patch_3">
    <path d="M 57.6 307.584 
L 57.6 41.472 
" style="fill:none;stroke:#000000;stroke-linecap:square;stroke-linejoin:miter;stroke-width:0.8;"/>
   </g>
   <g id="patch_4">
    <path d="M 414.72 307.584 
L 414.72 41.472 
" style="fill:none;stroke:#000000;stroke-linecap:square;stroke-linejoin:miter;stroke-width:0.8;"/>
   </g>
   <g id="patch_5">
    <path d="M 57.6 307.584 
L 414.72 307.584 
" style="fill:none;stroke:#000000;stroke-linecap:square;stroke-linejoin:miter;stroke-width:0.8;"/>
   </g>
   <g id="patch_6">
    <path d="M 57.6 41.472 
L 414.72 41.472 
" style="fill:none;stroke:#000000;stroke-linecap:square;stroke-linejoin:miter;stroke-width:0.8;"/>
   </g>
  </g>
 </g>
 <defs>
  <clipPath id="p8dfdfaf8d1">
   <rect height="266.112" width="357.12" x="57.6" y="41.472"/>
  </clipPath>
 </defs>
</svg>
