<?xml version="1.0" encoding="utf-8" standalone="no"?>
<!DOCTYPE svg PUBLIC "-//W3C//DTD SVG 1.1//EN"
  "http://www.w3.org/Graphics/SVG/1.1/DTD/svg11.dtd">
<!-- Created with matplotlib (https://matplotlib.org/) -->
<svg height="345.6pt" version="1.1" viewBox="0 0 460.8 345.6" width="460.8pt" xmlns="http://www.w3.org/2000/svg" xmlns:xlink="http://www.w3.org/1999/xlink">
 <metadata>
  <rdf:RDF xmlns:cc="http://creativecommons.org/ns#" xmlns:dc="http://purl.org/dc/elements/1.1/" xmlns:rdf="http://www.w3.org/1999/02/22-rdf-syntax-ns#">
   <cc:Work>
    <dc:type rdf:resource="http://purl.org/dc/dcmitype/StillImage"/>
    <dc:date>2021-01-25T09:38:22.592727</dc:date>
    <dc:format>image/svg+xml</dc:format>
    <dc:creator>
     <cc:Agent>
      <dc:title>Matplotlib v3.3.3, https://matplotlib.org/</dc:title>
     </cc:Agent>
    </dc:creator>
   </cc:Work>
  </rdf:RDF>
 </metadata>
 <defs>
  <style type="text/css">*{stroke-linecap:butt;stroke-linejoin:round;}</style>
 </defs>
 <g id="figure_1">
  <g id="patch_1">
   <path d="M 0 345.6 
L 460.8 345.6 
L 460.8 0 
L 0 0 
z
" style="fill:#ffffff;"/>
  </g>
  <g id="axes_1">
   <g id="patch_2">
    <path d="M 57.6 307.584 
L 414.72 307.584 
L 414.72 41.472 
L 57.6 41.472 
z
" style="fill:#7d9051;"/>
   </g>
   <g id="matplotlib.axis_1">
    <g id="xtick_1">
     <g id="line2d_1">
      <defs>
       <path d="M 0 0 
L 0 3.5 
" id="ma1a6320e96" style="stroke:#000000;stroke-width:0.8;"/>
      </defs>
      <g>
       <use style="stroke:#000000;stroke-width:0.8;" x="58.126518" xlink:href="#ma1a6320e96" y="307.584"/>
      </g>
     </g>
     <g id="text_1">
      <!-- 0 -->
      <g transform="translate(54.945268 322.182437)scale(0.1 -0.1)">
       <defs>
        <path d="M 31.78125 66.40625 
Q 24.171875 66.40625 20.328125 58.90625 
Q 16.5 51.421875 16.5 36.375 
Q 16.5 21.390625 20.328125 13.890625 
Q 24.171875 6.390625 31.78125 6.390625 
Q 39.453125 6.390625 43.28125 13.890625 
Q 47.125 21.390625 47.125 36.375 
Q 47.125 51.421875 43.28125 58.90625 
Q 39.453125 66.40625 31.78125 66.40625 
z
M 31.78125 74.21875 
Q 44.046875 74.21875 50.515625 64.515625 
Q 56.984375 54.828125 56.984375 36.375 
Q 56.984375 17.96875 50.515625 8.265625 
Q 44.046875 -1.421875 31.78125 -1.421875 
Q 19.53125 -1.421875 13.0625 8.265625 
Q 6.59375 17.96875 6.59375 36.375 
Q 6.59375 54.828125 13.0625 64.515625 
Q 19.53125 74.21875 31.78125 74.21875 
z
" id="DejaVuSans-48"/>
       </defs>
       <use xlink:href="#DejaVuSans-48"/>
      </g>
     </g>
    </g>
    <g id="xtick_2">
     <g id="line2d_2">
      <g>
       <use style="stroke:#000000;stroke-width:0.8;" x="111.3378" xlink:href="#ma1a6320e96" y="307.584"/>
      </g>
     </g>
     <g id="text_2">
      <!-- 20 -->
      <g transform="translate(104.9753 322.182437)scale(0.1 -0.1)">
       <defs>
        <path d="M 19.1875 8.296875 
L 53.609375 8.296875 
L 53.609375 0 
L 7.328125 0 
L 7.328125 8.296875 
Q 12.9375 14.109375 22.625 23.890625 
Q 32.328125 33.6875 34.8125 36.53125 
Q 39.546875 41.84375 41.421875 45.53125 
Q 43.3125 49.21875 43.3125 52.78125 
Q 43.3125 58.59375 39.234375 62.25 
Q 35.15625 65.921875 28.609375 65.921875 
Q 23.96875 65.921875 18.8125 64.3125 
Q 13.671875 62.703125 7.8125 59.421875 
L 7.8125 69.390625 
Q 13.765625 71.78125 18.9375 73 
Q 24.125 74.21875 28.421875 74.21875 
Q 39.75 74.21875 46.484375 68.546875 
Q 53.21875 62.890625 53.21875 53.421875 
Q 53.21875 48.921875 51.53125 44.890625 
Q 49.859375 40.875 45.40625 35.40625 
Q 44.1875 33.984375 37.640625 27.21875 
Q 31.109375 20.453125 19.1875 8.296875 
z
" id="DejaVuSans-50"/>
       </defs>
       <use xlink:href="#DejaVuSans-50"/>
       <use x="63.623047" xlink:href="#DejaVuSans-48"/>
      </g>
     </g>
    </g>
    <g id="xtick_3">
     <g id="line2d_3">
      <g>
       <use style="stroke:#000000;stroke-width:0.8;" x="164.549082" xlink:href="#ma1a6320e96" y="307.584"/>
      </g>
     </g>
     <g id="text_3">
      <!-- 40 -->
      <g transform="translate(158.186582 322.182437)scale(0.1 -0.1)">
       <defs>
        <path d="M 37.796875 64.3125 
L 12.890625 25.390625 
L 37.796875 25.390625 
z
M 35.203125 72.90625 
L 47.609375 72.90625 
L 47.609375 25.390625 
L 58.015625 25.390625 
L 58.015625 17.1875 
L 47.609375 17.1875 
L 47.609375 0 
L 37.796875 0 
L 37.796875 17.1875 
L 4.890625 17.1875 
L 4.890625 26.703125 
z
" id="DejaVuSans-52"/>
       </defs>
       <use xlink:href="#DejaVuSans-52"/>
       <use x="63.623047" xlink:href="#DejaVuSans-48"/>
      </g>
     </g>
    </g>
    <g id="xtick_4">
     <g id="line2d_4">
      <g>
       <use style="stroke:#000000;stroke-width:0.8;" x="217.760364" xlink:href="#ma1a6320e96" y="307.584"/>
      </g>
     </g>
     <g id="text_4">
      <!-- 60 -->
      <g transform="translate(211.397864 322.182437)scale(0.1 -0.1)">
       <defs>
        <path d="M 33.015625 40.375 
Q 26.375 40.375 22.484375 35.828125 
Q 18.609375 31.296875 18.609375 23.390625 
Q 18.609375 15.53125 22.484375 10.953125 
Q 26.375 6.390625 33.015625 6.390625 
Q 39.65625 6.390625 43.53125 10.953125 
Q 47.40625 15.53125 47.40625 23.390625 
Q 47.40625 31.296875 43.53125 35.828125 
Q 39.65625 40.375 33.015625 40.375 
z
M 52.59375 71.296875 
L 52.59375 62.3125 
Q 48.875 64.0625 45.09375 64.984375 
Q 41.3125 65.921875 37.59375 65.921875 
Q 27.828125 65.921875 22.671875 59.328125 
Q 17.53125 52.734375 16.796875 39.40625 
Q 19.671875 43.65625 24.015625 45.921875 
Q 28.375 48.1875 33.59375 48.1875 
Q 44.578125 48.1875 50.953125 41.515625 
Q 57.328125 34.859375 57.328125 23.390625 
Q 57.328125 12.15625 50.6875 5.359375 
Q 44.046875 -1.421875 33.015625 -1.421875 
Q 20.359375 -1.421875 13.671875 8.265625 
Q 6.984375 17.96875 6.984375 36.375 
Q 6.984375 53.65625 15.1875 63.9375 
Q 23.390625 74.21875 37.203125 74.21875 
Q 40.921875 74.21875 44.703125 73.484375 
Q 48.484375 72.75 52.59375 71.296875 
z
" id="DejaVuSans-54"/>
       </defs>
       <use xlink:href="#DejaVuSans-54"/>
       <use x="63.623047" xlink:href="#DejaVuSans-48"/>
      </g>
     </g>
    </g>
    <g id="xtick_5">
     <g id="line2d_5">
      <g>
       <use style="stroke:#000000;stroke-width:0.8;" x="270.971645" xlink:href="#ma1a6320e96" y="307.584"/>
      </g>
     </g>
     <g id="text_5">
      <!-- 80 -->
      <g transform="translate(264.609145 322.182437)scale(0.1 -0.1)">
       <defs>
        <path d="M 31.78125 34.625 
Q 24.75 34.625 20.71875 30.859375 
Q 16.703125 27.09375 16.703125 20.515625 
Q 16.703125 13.921875 20.71875 10.15625 
Q 24.75 6.390625 31.78125 6.390625 
Q 38.8125 6.390625 42.859375 10.171875 
Q 46.921875 13.96875 46.921875 20.515625 
Q 46.921875 27.09375 42.890625 30.859375 
Q 38.875 34.625 31.78125 34.625 
z
M 21.921875 38.8125 
Q 15.578125 40.375 12.03125 44.71875 
Q 8.5 49.078125 8.5 55.328125 
Q 8.5 64.0625 14.71875 69.140625 
Q 20.953125 74.21875 31.78125 74.21875 
Q 42.671875 74.21875 48.875 69.140625 
Q 55.078125 64.0625 55.078125 55.328125 
Q 55.078125 49.078125 51.53125 44.71875 
Q 48 40.375 41.703125 38.8125 
Q 48.828125 37.15625 52.796875 32.3125 
Q 56.78125 27.484375 56.78125 20.515625 
Q 56.78125 9.90625 50.3125 4.234375 
Q 43.84375 -1.421875 31.78125 -1.421875 
Q 19.734375 -1.421875 13.25 4.234375 
Q 6.78125 9.90625 6.78125 20.515625 
Q 6.78125 27.484375 10.78125 32.3125 
Q 14.796875 37.15625 21.921875 38.8125 
z
M 18.3125 54.390625 
Q 18.3125 48.734375 21.84375 45.5625 
Q 25.390625 42.390625 31.78125 42.390625 
Q 38.140625 42.390625 41.71875 45.5625 
Q 45.3125 48.734375 45.3125 54.390625 
Q 45.3125 60.0625 41.71875 63.234375 
Q 38.140625 66.40625 31.78125 66.40625 
Q 25.390625 66.40625 21.84375 63.234375 
Q 18.3125 60.0625 18.3125 54.390625 
z
" id="DejaVuSans-56"/>
       </defs>
       <use xlink:href="#DejaVuSans-56"/>
       <use x="63.623047" xlink:href="#DejaVuSans-48"/>
      </g>
     </g>
    </g>
    <g id="xtick_6">
     <g id="line2d_6">
      <g>
       <use style="stroke:#000000;stroke-width:0.8;" x="324.182927" xlink:href="#ma1a6320e96" y="307.584"/>
      </g>
     </g>
     <g id="text_6">
      <!-- 100 -->
      <g transform="translate(314.639177 322.182437)scale(0.1 -0.1)">
       <defs>
        <path d="M 12.40625 8.296875 
L 28.515625 8.296875 
L 28.515625 63.921875 
L 10.984375 60.40625 
L 10.984375 69.390625 
L 28.421875 72.90625 
L 38.28125 72.90625 
L 38.28125 8.296875 
L 54.390625 8.296875 
L 54.390625 0 
L 12.40625 0 
z
" id="DejaVuSans-49"/>
       </defs>
       <use xlink:href="#DejaVuSans-49"/>
       <use x="63.623047" xlink:href="#DejaVuSans-48"/>
       <use x="127.246094" xlink:href="#DejaVuSans-48"/>
      </g>
     </g>
    </g>
    <g id="xtick_7">
     <g id="line2d_7">
      <g>
       <use style="stroke:#000000;stroke-width:0.8;" x="377.394209" xlink:href="#ma1a6320e96" y="307.584"/>
      </g>
     </g>
     <g id="text_7">
      <!-- 120 -->
      <g transform="translate(367.850459 322.182437)scale(0.1 -0.1)">
       <use xlink:href="#DejaVuSans-49"/>
       <use x="63.623047" xlink:href="#DejaVuSans-50"/>
       <use x="127.246094" xlink:href="#DejaVuSans-48"/>
      </g>
     </g>
    </g>
   </g>
   <g id="matplotlib.axis_2">
    <g id="ytick_1">
     <g id="line2d_8">
      <defs>
       <path d="M 0 0 
L -3.5 0 
" id="m9234353944" style="stroke:#000000;stroke-width:0.8;"/>
      </defs>
      <g>
       <use style="stroke:#000000;stroke-width:0.8;" x="57.6" xlink:href="#m9234353944" y="256.116505"/>
      </g>
     </g>
     <g id="text_8">
      <!-- 0 -->
      <g transform="translate(44.2375 259.915724)scale(0.1 -0.1)">
       <use xlink:href="#DejaVuSans-48"/>
      </g>
     </g>
    </g>
    <g id="ytick_2">
     <g id="line2d_9">
      <g>
       <use style="stroke:#000000;stroke-width:0.8;" x="57.6" xlink:href="#m9234353944" y="202.905223"/>
      </g>
     </g>
     <g id="text_9">
      <!-- 20 -->
      <g transform="translate(37.875 206.704442)scale(0.1 -0.1)">
       <use xlink:href="#DejaVuSans-50"/>
       <use x="63.623047" xlink:href="#DejaVuSans-48"/>
      </g>
     </g>
    </g>
    <g id="ytick_3">
     <g id="line2d_10">
      <g>
       <use style="stroke:#000000;stroke-width:0.8;" x="57.6" xlink:href="#m9234353944" y="149.693942"/>
      </g>
     </g>
     <g id="text_10">
      <!-- 40 -->
      <g transform="translate(37.875 153.49316)scale(0.1 -0.1)">
       <use xlink:href="#DejaVuSans-52"/>
       <use x="63.623047" xlink:href="#DejaVuSans-48"/>
      </g>
     </g>
    </g>
    <g id="ytick_4">
     <g id="line2d_11">
      <g>
       <use style="stroke:#000000;stroke-width:0.8;" x="57.6" xlink:href="#m9234353944" y="96.48266"/>
      </g>
     </g>
     <g id="text_11">
      <!-- 60 -->
      <g transform="translate(37.875 100.281879)scale(0.1 -0.1)">
       <use xlink:href="#DejaVuSans-54"/>
       <use x="63.623047" xlink:href="#DejaVuSans-48"/>
      </g>
     </g>
    </g>
    <g id="ytick_5">
     <g id="line2d_12">
      <g>
       <use style="stroke:#000000;stroke-width:0.8;" x="57.6" xlink:href="#m9234353944" y="43.271378"/>
      </g>
     </g>
     <g id="text_12">
      <!-- 80 -->
      <g transform="translate(37.875 47.070597)scale(0.1 -0.1)">
       <use xlink:href="#DejaVuSans-56"/>
       <use x="63.623047" xlink:href="#DejaVuSans-48"/>
      </g>
     </g>
    </g>
   </g>
   <g id="line2d_13">
    <path clip-path="url(#p7d304e6880)" d="M 386.519944 220.10311 
L 387.379306 214.813908 
L 387.797015 209.479477 
L 387.789033 204.129083 
L 387.366003 198.791991 
L 386.541228 193.497469 
L 385.325351 188.277442 
L 383.731673 183.158517 
L 381.776158 178.17528 
L 379.469449 173.354338 
L 376.824848 168.727617 
L 373.86098 164.316402 
L 370.60711 160.107389 
L 367.105808 156.087277 
L 363.394321 152.23212 
L 359.512558 148.525954 
L 355.487124 144.966119 
L 351.302057 141.608487 
L 346.936071 138.530215 
L 344.674592 137.117455 
L 342.359901 135.803137 
L 339.986678 134.59524 
L 337.554922 133.504409 
L 335.059313 132.535964 
L 332.507832 131.695226 
L 329.911122 130.984855 
L 327.277163 130.404852 
L 324.613939 129.957877 
L 321.934751 129.649252 
L 319.24226 129.478976 
L 316.552429 129.447049 
L 313.870581 129.558793 
L 311.204696 129.816867 
L 308.565416 130.221273 
L 305.952742 130.761368 
L 303.369334 131.429169 
L 300.817853 132.214036 
L 295.80269 134.100375 
L 290.923216 136.34057 
L 286.18209 138.857464 
L 281.584636 141.579221 
L 277.114888 144.473915 
L 272.748902 147.506958 
L 266.339603 152.266707 
L 260.044709 157.194072 
L 253.885503 162.294373 
L 249.894657 165.81696 
L 246.023536 169.461933 
L 242.296086 173.242594 
L 236.945691 179.138404 
L 230.033546 187.242483 
L 223.060207 195.357203 
L 219.447161 199.308141 
L 215.703748 203.110087 
L 211.790058 206.704509 
L 207.668844 210.038196 
L 203.321482 213.060597 
L 198.766597 215.800978 
L 194.044095 218.288605 
L 189.191227 220.560727 
L 184.245238 222.654591 
L 179.238056 224.58616 
L 174.169682 226.307545 
L 169.032132 227.749571 
L 163.825409 228.837742 
L 161.19145 229.231505 
L 158.538868 229.510864 
L 155.867661 229.670498 
L 153.183152 229.705085 
L 150.493322 229.619947 
L 147.808813 229.409763 
L 145.134946 229.074532 
L 142.482363 228.616915 
L 139.856387 228.034251 
L 137.267658 227.323881 
L 134.724159 226.491124 
L 132.233871 225.53066 
L 129.802115 224.44249 
L 127.428892 223.239915 
L 125.114201 221.925596 
L 120.641793 219.009618 
L 116.371587 215.771711 
L 112.284961 212.281051 
L 108.36329 208.612133 
L 104.614555 204.788903 
L 101.070683 200.800717 
L 97.768923 196.623632 
L 94.741201 192.241683 
L 92.019444 187.638907 
L 89.646221 182.820625 
L 87.666762 177.826746 
L 86.839326 175.272605 
L 86.123634 172.689197 
L 85.532989 170.076523 
L 85.06473 167.445225 
L 84.732159 164.792643 
L 84.535278 162.129418 
L 84.471424 159.460872 
L 84.540599 156.787005 
L 84.740141 154.115799 
L 85.06473 151.452574 
L 85.509044 148.805313 
L 86.075744 146.174015 
L 86.756849 143.569323 
L 87.552357 140.991236 
L 88.45961 138.450398 
L 90.588061 133.491106 
L 91.806599 131.085956 
L 94.533677 126.445933 
L 96.036896 124.224362 
L 97.627913 122.074626 
L 99.304069 119.999386 
L 101.062702 118.009284 
L 102.901151 116.10432 
L 102.901151 116.10432 
" style="fill:none;stroke:#fea952;stroke-linecap:square;"/>
   </g>
   <g id="line2d_14">
    <path clip-path="url(#p7d304e6880)" d="M 376.052744 218.180778 
L 376.788719 213.766488 
L 377.156656 209.278516 
L 377.165692 204.763312 
L 376.822625 200.239329 
L 376.13505 195.72661 
L 375.107839 191.254031 
L 373.754465 186.861616 
L 372.093981 182.592641 
L 370.133568 178.463051 
L 367.890499 174.50992 
L 365.342066 170.694938 
L 362.485781 166.985007 
L 359.351142 163.375815 
L 355.970105 159.85699 
L 352.381633 156.425797 
L 348.718809 153.178764 
L 345.025603 150.202889 
L 341.297596 147.556023 
L 337.532611 145.287592 
L 333.704823 143.425818 
L 331.728738 142.643629 
L 329.699661 141.960302 
L 325.515686 140.900319 
L 321.263064 140.27029 
L 316.995472 140.080079 
L 314.896025 140.15153 
L 312.816552 140.336351 
L 310.719842 140.643176 
L 306.498326 141.601044 
L 302.231694 142.995608 
L 297.941259 144.78006 
L 293.644887 146.904458 
L 289.383299 149.296962 
L 285.197922 151.89056 
L 281.057133 154.668854 
L 274.894669 159.133716 
L 268.7555 163.864753 
L 262.801976 168.686416 
L 257.121482 173.629169 
L 253.5274 177.008432 
L 250.078293 180.501718 
L 244.989686 186.106315 
L 238.158503 194.115814 
L 230.971586 202.475328 
L 227.114171 206.688831 
L 223.013158 210.845081 
L 218.624048 214.862585 
L 213.899003 218.666216 
L 208.95132 222.091795 
L 203.841822 225.155106 
L 198.65483 227.880203 
L 193.420299 230.326615 
L 188.159443 232.550884 
L 182.77725 234.62268 
L 177.202408 236.508535 
L 171.404936 238.123935 
L 168.418612 238.79922 
L 165.398887 239.363034 
L 162.306085 239.815229 
L 159.173726 240.134168 
L 156.004765 240.311871 
L 152.846474 240.342015 
L 149.662625 240.229734 
L 146.484924 239.969353 
L 143.325696 239.561869 
L 140.177078 239.00649 
L 137.040162 238.297121 
L 133.956284 237.437852 
L 130.894572 236.420469 
L 127.887002 235.244689 
L 124.991738 233.935534 
L 122.174076 232.494348 
L 119.475726 230.951404 
L 116.869054 229.313594 
L 111.921183 225.804294 
L 107.293052 222.05688 
L 102.953868 218.161302 
L 98.776097 214.079766 
L 94.76096 209.775627 
L 90.944814 205.21299 
L 87.358022 200.356498 
L 84.078272 195.213126 
L 82.564875 192.524471 
L 81.151857 189.772785 
L 79.834176 186.941473 
L 78.635235 184.06421 
L 77.542518 181.106579 
L 76.583357 178.113857 
L 75.743328 175.035865 
L 75.055347 171.941098 
L 74.505144 168.769145 
L 74.118865 165.577242 
L 73.896067 162.383995 
L 73.832727 159.185642 
L 73.927912 155.994225 
L 74.176056 152.828268 
L 74.569275 149.691026 
L 75.105335 146.564676 
L 75.779678 143.481684 
L 76.587703 140.431475 
L 77.529861 137.412523 
L 78.596717 134.452778 
L 79.780983 131.554366 
L 81.094675 128.681404 
L 82.523498 125.881953 
L 84.060735 123.157925 
L 85.719593 120.481912 
L 87.48261 117.893343 
L 89.348864 115.387701 
L 91.329394 112.952246 
L 95.243438 108.713985 
L 95.243438 108.713985 
" style="fill:none;stroke:#ffffff;stroke-linecap:square;"/>
   </g>
   <g id="line2d_15">
    <path clip-path="url(#p7d304e6880)" d="M 396.987143 222.025441 
L 397.541566 218.956735 
L 397.969893 215.861329 
L 398.267245 212.764452 
L 398.437373 209.680438 
L 398.487273 206.570041 
L 398.412374 203.494854 
L 398.219986 200.407795 
L 397.909382 197.344654 
L 397.485528 194.308386 
L 396.947407 191.268328 
L 395.542862 185.300853 
L 394.676473 182.352493 
L 392.633455 176.578963 
L 390.181184 170.975689 
L 387.329413 165.563768 
L 384.11014 160.408935 
L 380.585804 155.550169 
L 376.813443 150.974795 
L 372.85321 146.667562 
L 368.746809 142.592892 
L 364.485468 138.681124 
L 359.964336 134.870078 
L 355.127958 131.231791 
L 352.574547 129.504406 
L 349.929408 127.863022 
L 347.187191 126.318681 
L 344.342396 124.885176 
L 341.405021 123.583 
L 338.389889 122.428299 
L 335.316004 121.430149 
L 332.199739 120.591595 
L 329.03864 119.909385 
L 325.831805 119.385535 
L 322.606437 119.028213 
L 319.368568 118.837469 
L 316.109387 118.814019 
L 312.845136 118.966055 
L 309.592839 119.297384 
L 306.41099 119.79937 
L 303.289304 120.45779 
L 300.240343 121.257295 
L 297.262616 122.183188 
L 294.359584 123.220362 
L 288.75272 125.581069 
L 283.423171 128.235044 
L 278.3515 131.094493 
L 273.474996 134.125328 
L 268.782712 137.280092 
L 262.025477 142.180416 
L 255.511003 147.203007 
L 249.034371 152.45424 
L 244.778087 156.113542 
L 240.578137 159.940121 
L 236.487665 163.938918 
L 232.602622 168.034016 
L 227.113481 174.235263 
L 213.474463 190.10212 
L 210.096797 193.680011 
L 206.683304 196.99792 
L 203.207412 200.019455 
L 199.606385 202.741624 
L 195.726184 205.260876 
L 191.578671 207.596779 
L 187.216826 209.764964 
L 182.659079 211.793732 
L 178.003634 213.680478 
L 173.405582 215.361373 
L 168.891907 216.779229 
L 164.457553 217.886533 
L 160.076815 218.647781 
L 155.730557 219.029125 
L 151.324019 219.010161 
L 146.944196 218.587195 
L 142.672611 217.771381 
L 138.553745 216.561779 
L 136.580739 215.816632 
L 132.683708 213.985482 
L 128.83639 211.712079 
L 125.046968 209.04887 
L 121.320927 206.049094 
L 117.651814 202.76647 
L 114.151196 199.361179 
L 110.865746 195.859222 
L 107.8336 192.259249 
L 105.077607 188.564688 
L 102.599897 184.725996 
L 100.42335 180.737298 
L 98.576647 176.62307 
L 97.095295 172.431353 
L 96.010631 168.211948 
L 95.345454 164.008044 
L 95.110121 159.736102 
L 95.304226 155.40333 
L 95.912753 151.04595 
L 96.925995 146.707171 
L 98.322503 142.448017 
L 100.081447 138.300809 
L 102.186422 134.315432 
L 104.591183 130.555381 
L 107.278744 127.046525 
L 108.720415 125.399619 
L 110.558865 123.494655 
L 110.558865 123.494655 
" style="fill:none;stroke:#ffffff;stroke-linecap:square;"/>
   </g>
   <g id="patch_3">
    <path d="M 57.6 307.584 
L 57.6 41.472 
" style="fill:none;stroke:#000000;stroke-linecap:square;stroke-linejoin:miter;stroke-width:0.8;"/>
   </g>
   <g id="patch_4">
    <path d="M 414.72 307.584 
L 414.72 41.472 
" style="fill:none;stroke:#000000;stroke-linecap:square;stroke-linejoin:miter;stroke-width:0.8;"/>
   </g>
   <g id="patch_5">
    <path d="M 57.6 307.584 
L 414.72 307.584 
" style="fill:none;stroke:#000000;stroke-linecap:square;stroke-linejoin:miter;stroke-width:0.8;"/>
   </g>
   <g id="patch_6">
    <path d="M 57.6 41.472 
L 414.72 41.472 
" style="fill:none;stroke:#000000;stroke-linecap:square;stroke-linejoin:miter;stroke-width:0.8;"/>
   </g>
  </g>
 </g>
 <defs>
  <clipPath id="p7d304e6880">
   <rect height="266.112" width="357.12" x="57.6" y="41.472"/>
  </clipPath>
 </defs>
</svg>
