<?xml version="1.0" encoding="utf-8" standalone="no"?>
<!DOCTYPE svg PUBLIC "-//W3C//DTD SVG 1.1//EN"
  "http://www.w3.org/Graphics/SVG/1.1/DTD/svg11.dtd">
<!-- Created with matplotlib (https://matplotlib.org/) -->
<svg height="345.6pt" version="1.1" viewBox="0 0 460.8 345.6" width="460.8pt" xmlns="http://www.w3.org/2000/svg" xmlns:xlink="http://www.w3.org/1999/xlink">
 <metadata>
  <rdf:RDF xmlns:cc="http://creativecommons.org/ns#" xmlns:dc="http://purl.org/dc/elements/1.1/" xmlns:rdf="http://www.w3.org/1999/02/22-rdf-syntax-ns#">
   <cc:Work>
    <dc:type rdf:resource="http://purl.org/dc/dcmitype/StillImage"/>
    <dc:date>2021-01-23T12:42:24.579721</dc:date>
    <dc:format>image/svg+xml</dc:format>
    <dc:creator>
     <cc:Agent>
      <dc:title>Matplotlib v3.3.3, https://matplotlib.org/</dc:title>
     </cc:Agent>
    </dc:creator>
   </cc:Work>
  </rdf:RDF>
 </metadata>
 <defs>
  <style type="text/css">*{stroke-linecap:butt;stroke-linejoin:round;}</style>
 </defs>
 <g id="figure_1">
  <g id="patch_1">
   <path d="M 0 345.6 
L 460.8 345.6 
L 460.8 0 
L 0 0 
z
" style="fill:#ffffff;"/>
  </g>
  <g id="axes_1">
   <g id="patch_2">
    <path d="M 57.6 307.584 
L 414.72 307.584 
L 414.72 41.472 
L 57.6 41.472 
z
" style="fill:#7d9051;"/>
   </g>
   <g id="matplotlib.axis_1">
    <g id="xtick_1">
     <g id="line2d_1">
      <defs>
       <path d="M 0 0 
L 0 3.5 
" id="m57cfe39e7a" style="stroke:#000000;stroke-width:0.8;"/>
      </defs>
      <g>
       <use style="stroke:#000000;stroke-width:0.8;" x="76.815914" xlink:href="#m57cfe39e7a" y="307.584"/>
      </g>
     </g>
     <g id="text_1">
      <!-- −20 -->
      <g transform="translate(66.26357 322.182437)scale(0.1 -0.1)">
       <defs>
        <path d="M 10.59375 35.5 
L 73.1875 35.5 
L 73.1875 27.203125 
L 10.59375 27.203125 
z
" id="DejaVuSans-8722"/>
        <path d="M 19.1875 8.296875 
L 53.609375 8.296875 
L 53.609375 0 
L 7.328125 0 
L 7.328125 8.296875 
Q 12.9375 14.109375 22.625 23.890625 
Q 32.328125 33.6875 34.8125 36.53125 
Q 39.546875 41.84375 41.421875 45.53125 
Q 43.3125 49.21875 43.3125 52.78125 
Q 43.3125 58.59375 39.234375 62.25 
Q 35.15625 65.921875 28.609375 65.921875 
Q 23.96875 65.921875 18.8125 64.3125 
Q 13.671875 62.703125 7.8125 59.421875 
L 7.8125 69.390625 
Q 13.765625 71.78125 18.9375 73 
Q 24.125 74.21875 28.421875 74.21875 
Q 39.75 74.21875 46.484375 68.546875 
Q 53.21875 62.890625 53.21875 53.421875 
Q 53.21875 48.921875 51.53125 44.890625 
Q 49.859375 40.875 45.40625 35.40625 
Q 44.1875 33.984375 37.640625 27.21875 
Q 31.109375 20.453125 19.1875 8.296875 
z
" id="DejaVuSans-50"/>
        <path d="M 31.78125 66.40625 
Q 24.171875 66.40625 20.328125 58.90625 
Q 16.5 51.421875 16.5 36.375 
Q 16.5 21.390625 20.328125 13.890625 
Q 24.171875 6.390625 31.78125 6.390625 
Q 39.453125 6.390625 43.28125 13.890625 
Q 47.125 21.390625 47.125 36.375 
Q 47.125 51.421875 43.28125 58.90625 
Q 39.453125 66.40625 31.78125 66.40625 
z
M 31.78125 74.21875 
Q 44.046875 74.21875 50.515625 64.515625 
Q 56.984375 54.828125 56.984375 36.375 
Q 56.984375 17.96875 50.515625 8.265625 
Q 44.046875 -1.421875 31.78125 -1.421875 
Q 19.53125 -1.421875 13.0625 8.265625 
Q 6.59375 17.96875 6.59375 36.375 
Q 6.59375 54.828125 13.0625 64.515625 
Q 19.53125 74.21875 31.78125 74.21875 
z
" id="DejaVuSans-48"/>
       </defs>
       <use xlink:href="#DejaVuSans-8722"/>
       <use x="83.789062" xlink:href="#DejaVuSans-50"/>
       <use x="147.412109" xlink:href="#DejaVuSans-48"/>
      </g>
     </g>
    </g>
    <g id="xtick_2">
     <g id="line2d_2">
      <g>
       <use style="stroke:#000000;stroke-width:0.8;" x="123.516994" xlink:href="#m57cfe39e7a" y="307.584"/>
      </g>
     </g>
     <g id="text_2">
      <!-- 0 -->
      <g transform="translate(120.335744 322.182437)scale(0.1 -0.1)">
       <use xlink:href="#DejaVuSans-48"/>
      </g>
     </g>
    </g>
    <g id="xtick_3">
     <g id="line2d_3">
      <g>
       <use style="stroke:#000000;stroke-width:0.8;" x="170.218074" xlink:href="#m57cfe39e7a" y="307.584"/>
      </g>
     </g>
     <g id="text_3">
      <!-- 20 -->
      <g transform="translate(163.855574 322.182437)scale(0.1 -0.1)">
       <use xlink:href="#DejaVuSans-50"/>
       <use x="63.623047" xlink:href="#DejaVuSans-48"/>
      </g>
     </g>
    </g>
    <g id="xtick_4">
     <g id="line2d_4">
      <g>
       <use style="stroke:#000000;stroke-width:0.8;" x="216.919154" xlink:href="#m57cfe39e7a" y="307.584"/>
      </g>
     </g>
     <g id="text_4">
      <!-- 40 -->
      <g transform="translate(210.556654 322.182437)scale(0.1 -0.1)">
       <defs>
        <path d="M 37.796875 64.3125 
L 12.890625 25.390625 
L 37.796875 25.390625 
z
M 35.203125 72.90625 
L 47.609375 72.90625 
L 47.609375 25.390625 
L 58.015625 25.390625 
L 58.015625 17.1875 
L 47.609375 17.1875 
L 47.609375 0 
L 37.796875 0 
L 37.796875 17.1875 
L 4.890625 17.1875 
L 4.890625 26.703125 
z
" id="DejaVuSans-52"/>
       </defs>
       <use xlink:href="#DejaVuSans-52"/>
       <use x="63.623047" xlink:href="#DejaVuSans-48"/>
      </g>
     </g>
    </g>
    <g id="xtick_5">
     <g id="line2d_5">
      <g>
       <use style="stroke:#000000;stroke-width:0.8;" x="263.620234" xlink:href="#m57cfe39e7a" y="307.584"/>
      </g>
     </g>
     <g id="text_5">
      <!-- 60 -->
      <g transform="translate(257.257734 322.182437)scale(0.1 -0.1)">
       <defs>
        <path d="M 33.015625 40.375 
Q 26.375 40.375 22.484375 35.828125 
Q 18.609375 31.296875 18.609375 23.390625 
Q 18.609375 15.53125 22.484375 10.953125 
Q 26.375 6.390625 33.015625 6.390625 
Q 39.65625 6.390625 43.53125 10.953125 
Q 47.40625 15.53125 47.40625 23.390625 
Q 47.40625 31.296875 43.53125 35.828125 
Q 39.65625 40.375 33.015625 40.375 
z
M 52.59375 71.296875 
L 52.59375 62.3125 
Q 48.875 64.0625 45.09375 64.984375 
Q 41.3125 65.921875 37.59375 65.921875 
Q 27.828125 65.921875 22.671875 59.328125 
Q 17.53125 52.734375 16.796875 39.40625 
Q 19.671875 43.65625 24.015625 45.921875 
Q 28.375 48.1875 33.59375 48.1875 
Q 44.578125 48.1875 50.953125 41.515625 
Q 57.328125 34.859375 57.328125 23.390625 
Q 57.328125 12.15625 50.6875 5.359375 
Q 44.046875 -1.421875 33.015625 -1.421875 
Q 20.359375 -1.421875 13.671875 8.265625 
Q 6.984375 17.96875 6.984375 36.375 
Q 6.984375 53.65625 15.1875 63.9375 
Q 23.390625 74.21875 37.203125 74.21875 
Q 40.921875 74.21875 44.703125 73.484375 
Q 48.484375 72.75 52.59375 71.296875 
z
" id="DejaVuSans-54"/>
       </defs>
       <use xlink:href="#DejaVuSans-54"/>
       <use x="63.623047" xlink:href="#DejaVuSans-48"/>
      </g>
     </g>
    </g>
    <g id="xtick_6">
     <g id="line2d_6">
      <g>
       <use style="stroke:#000000;stroke-width:0.8;" x="310.321314" xlink:href="#m57cfe39e7a" y="307.584"/>
      </g>
     </g>
     <g id="text_6">
      <!-- 80 -->
      <g transform="translate(303.958814 322.182437)scale(0.1 -0.1)">
       <defs>
        <path d="M 31.78125 34.625 
Q 24.75 34.625 20.71875 30.859375 
Q 16.703125 27.09375 16.703125 20.515625 
Q 16.703125 13.921875 20.71875 10.15625 
Q 24.75 6.390625 31.78125 6.390625 
Q 38.8125 6.390625 42.859375 10.171875 
Q 46.921875 13.96875 46.921875 20.515625 
Q 46.921875 27.09375 42.890625 30.859375 
Q 38.875 34.625 31.78125 34.625 
z
M 21.921875 38.8125 
Q 15.578125 40.375 12.03125 44.71875 
Q 8.5 49.078125 8.5 55.328125 
Q 8.5 64.0625 14.71875 69.140625 
Q 20.953125 74.21875 31.78125 74.21875 
Q 42.671875 74.21875 48.875 69.140625 
Q 55.078125 64.0625 55.078125 55.328125 
Q 55.078125 49.078125 51.53125 44.71875 
Q 48 40.375 41.703125 38.8125 
Q 48.828125 37.15625 52.796875 32.3125 
Q 56.78125 27.484375 56.78125 20.515625 
Q 56.78125 9.90625 50.3125 4.234375 
Q 43.84375 -1.421875 31.78125 -1.421875 
Q 19.734375 -1.421875 13.25 4.234375 
Q 6.78125 9.90625 6.78125 20.515625 
Q 6.78125 27.484375 10.78125 32.3125 
Q 14.796875 37.15625 21.921875 38.8125 
z
M 18.3125 54.390625 
Q 18.3125 48.734375 21.84375 45.5625 
Q 25.390625 42.390625 31.78125 42.390625 
Q 38.140625 42.390625 41.71875 45.5625 
Q 45.3125 48.734375 45.3125 54.390625 
Q 45.3125 60.0625 41.71875 63.234375 
Q 38.140625 66.40625 31.78125 66.40625 
Q 25.390625 66.40625 21.84375 63.234375 
Q 18.3125 60.0625 18.3125 54.390625 
z
" id="DejaVuSans-56"/>
       </defs>
       <use xlink:href="#DejaVuSans-56"/>
       <use x="63.623047" xlink:href="#DejaVuSans-48"/>
      </g>
     </g>
    </g>
    <g id="xtick_7">
     <g id="line2d_7">
      <g>
       <use style="stroke:#000000;stroke-width:0.8;" x="357.022394" xlink:href="#m57cfe39e7a" y="307.584"/>
      </g>
     </g>
     <g id="text_7">
      <!-- 100 -->
      <g transform="translate(347.478644 322.182437)scale(0.1 -0.1)">
       <defs>
        <path d="M 12.40625 8.296875 
L 28.515625 8.296875 
L 28.515625 63.921875 
L 10.984375 60.40625 
L 10.984375 69.390625 
L 28.421875 72.90625 
L 38.28125 72.90625 
L 38.28125 8.296875 
L 54.390625 8.296875 
L 54.390625 0 
L 12.40625 0 
z
" id="DejaVuSans-49"/>
       </defs>
       <use xlink:href="#DejaVuSans-49"/>
       <use x="63.623047" xlink:href="#DejaVuSans-48"/>
       <use x="127.246094" xlink:href="#DejaVuSans-48"/>
      </g>
     </g>
    </g>
    <g id="xtick_8">
     <g id="line2d_8">
      <g>
       <use style="stroke:#000000;stroke-width:0.8;" x="403.723474" xlink:href="#m57cfe39e7a" y="307.584"/>
      </g>
     </g>
     <g id="text_8">
      <!-- 120 -->
      <g transform="translate(394.179724 322.182437)scale(0.1 -0.1)">
       <use xlink:href="#DejaVuSans-49"/>
       <use x="63.623047" xlink:href="#DejaVuSans-50"/>
       <use x="127.246094" xlink:href="#DejaVuSans-48"/>
      </g>
     </g>
    </g>
   </g>
   <g id="matplotlib.axis_2">
    <g id="ytick_1">
     <g id="line2d_9">
      <defs>
       <path d="M 0 0 
L -3.5 0 
" id="me7c5105b64" style="stroke:#000000;stroke-width:0.8;"/>
      </defs>
      <g>
       <use style="stroke:#000000;stroke-width:0.8;" x="57.6" xlink:href="#me7c5105b64" y="271.517972"/>
      </g>
     </g>
     <g id="text_9">
      <!-- 20 -->
      <g transform="translate(37.875 275.317191)scale(0.1 -0.1)">
       <use xlink:href="#DejaVuSans-50"/>
       <use x="63.623047" xlink:href="#DejaVuSans-48"/>
      </g>
     </g>
    </g>
    <g id="ytick_2">
     <g id="line2d_10">
      <g>
       <use style="stroke:#000000;stroke-width:0.8;" x="57.6" xlink:href="#me7c5105b64" y="224.816892"/>
      </g>
     </g>
     <g id="text_10">
      <!-- 40 -->
      <g transform="translate(37.875 228.616111)scale(0.1 -0.1)">
       <use xlink:href="#DejaVuSans-52"/>
       <use x="63.623047" xlink:href="#DejaVuSans-48"/>
      </g>
     </g>
    </g>
    <g id="ytick_3">
     <g id="line2d_11">
      <g>
       <use style="stroke:#000000;stroke-width:0.8;" x="57.6" xlink:href="#me7c5105b64" y="178.115812"/>
      </g>
     </g>
     <g id="text_11">
      <!-- 60 -->
      <g transform="translate(37.875 181.915031)scale(0.1 -0.1)">
       <use xlink:href="#DejaVuSans-54"/>
       <use x="63.623047" xlink:href="#DejaVuSans-48"/>
      </g>
     </g>
    </g>
    <g id="ytick_4">
     <g id="line2d_12">
      <g>
       <use style="stroke:#000000;stroke-width:0.8;" x="57.6" xlink:href="#me7c5105b64" y="131.414732"/>
      </g>
     </g>
     <g id="text_12">
      <!-- 80 -->
      <g transform="translate(37.875 135.213951)scale(0.1 -0.1)">
       <use xlink:href="#DejaVuSans-56"/>
       <use x="63.623047" xlink:href="#DejaVuSans-48"/>
      </g>
     </g>
    </g>
    <g id="ytick_5">
     <g id="line2d_13">
      <g>
       <use style="stroke:#000000;stroke-width:0.8;" x="57.6" xlink:href="#me7c5105b64" y="84.713652"/>
      </g>
     </g>
     <g id="text_13">
      <!-- 100 -->
      <g transform="translate(31.5125 88.512871)scale(0.1 -0.1)">
       <use xlink:href="#DejaVuSans-49"/>
       <use x="63.623047" xlink:href="#DejaVuSans-48"/>
       <use x="127.246094" xlink:href="#DejaVuSans-48"/>
      </g>
     </g>
    </g>
   </g>
   <g id="line2d_14">
    <path clip-path="url(#p1fff5200fa)" d="M 147.710489 172.114724 
L 148.119123 167.43294 
L 148.268566 162.758162 
L 148.217195 158.090389 
L 147.880947 151.094567 
L 146.872204 134.774875 
L 146.776467 130.104767 
L 146.867534 125.429989 
L 147.199112 120.750541 
L 147.801556 116.094443 
L 148.705222 111.487382 
L 149.93813 106.962047 
L 151.528302 102.548795 
L 153.496752 98.273311 
L 155.827136 94.177626 
L 158.496103 90.292096 
L 161.480302 86.654082 
L 164.751713 83.30328 
L 168.289319 80.260704 
L 172.051091 77.500671 
L 175.999668 74.981147 
L 180.093017 72.667109 
L 184.289109 70.514189 
L 188.559923 68.506043 
L 192.903124 66.696376 
L 197.328051 65.157575 
L 201.84638 63.966698 
L 204.141738 63.523037 
L 206.462782 63.193795 
L 208.809511 62.98831 
L 211.174921 62.906583 
L 213.547336 62.950949 
L 215.917416 63.123743 
L 218.273485 63.42263 
L 220.608539 63.849945 
L 222.910902 64.408023 
L 225.1689 65.096864 
L 227.377861 65.916468 
L 229.523775 66.86917 
L 231.597303 67.95497 
L 233.60078 69.164528 
L 235.534204 70.488504 
L 237.399912 71.915221 
L 240.930514 75.041859 
L 244.19959 78.465048 
L 247.216479 82.107732 
L 249.997529 85.89519 
L 252.575428 89.7994 
L 254.982869 93.801683 
L 258.357022 99.935869 
L 262.58347 108.262672 
L 266.590422 116.703892 
L 270.39656 125.231509 
L 275.841906 138.135018 
L 282.139547 153.252157 
L 285.067705 159.61985 
L 287.194939 163.771576 
L 289.506642 167.815889 
L 292.007485 171.750455 
L 294.664777 175.593954 
L 298.860869 181.226104 
L 311.752702 197.851689 
L 314.384308 201.709198 
L 316.826774 205.70681 
L 319.035735 209.856201 
L 320.976165 214.141025 
L 322.608368 218.542602 
L 323.899653 223.044586 
L 324.814994 227.630632 
L 325.349721 232.27739 
L 325.543531 236.961508 
L 325.431448 241.657302 
L 325.048499 246.343755 
L 324.42971 250.995183 
L 323.178121 257.899937 
L 319.451375 276.1694 
L 318.778879 280.774126 
L 318.339889 285.416213 
L 318.197451 290.109672 
L 318.414611 294.868512 
L 318.414611 294.868512 
" style="fill:none;stroke:#fea952;stroke-linecap:square;"/>
   </g>
   <g id="line2d_15">
    <path clip-path="url(#p1fff5200fa)" d="M 138.419136 171.160577 
L 138.787917 167.022777 
L 138.928369 162.776843 
L 138.883038 158.426755 
L 138.560479 151.701612 
L 137.535913 135.045627 
L 137.436549 130.030122 
L 137.542364 124.900044 
L 137.91808 119.700734 
L 138.605529 114.459594 
L 139.647173 109.20892 
L 141.084691 103.986101 
L 141.968416 101.384265 
L 142.960165 98.830372 
L 144.068366 96.299517 
L 145.282198 93.828006 
L 146.599447 91.411585 
L 148.016016 89.05649 
L 149.537866 86.751121 
L 151.151398 84.521919 
L 152.855949 82.365686 
L 154.660757 80.271807 
L 156.538486 78.277646 
L 158.521521 76.34452 
L 162.632971 72.827982 
L 166.915329 69.699159 
L 171.310734 66.903182 
L 175.761167 64.392164 
L 180.241901 62.096366 
L 184.856061 59.931602 
L 189.685798 57.92777 
L 194.752237 56.179557 
L 197.390383 55.431811 
L 200.073855 54.796213 
L 202.82995 54.275397 
L 205.64805 53.889181 
L 208.486992 53.653664 
L 211.34956 53.568 
L 214.226495 53.635458 
L 217.092879 53.857788 
L 219.954823 54.23499 
L 222.808831 54.772591 
L 225.636296 55.474274 
L 228.418015 56.339988 
L 231.167834 57.379739 
L 233.856656 58.594765 
L 236.424715 59.958988 
L 238.878052 61.458035 
L 241.20792 63.06903 
L 243.435642 64.787136 
L 245.543538 66.584023 
L 247.562659 68.465059 
L 251.295762 72.39183 
L 254.666355 76.473995 
L 257.731585 80.658395 
L 260.535549 84.913082 
L 263.106791 89.192829 
L 266.638916 95.61732 
L 270.981924 104.175424 
L 275.088638 112.828332 
L 278.972852 121.531933 
L 283.575934 132.400957 
L 291.578735 151.497729 
L 294.37548 157.359143 
L 296.375275 161.071247 
L 298.568674 164.706035 
L 300.956646 168.306335 
L 304.860409 173.694116 
L 310.509745 180.931927 
L 316.447464 188.490641 
L 319.405822 192.497308 
L 322.281135 196.721237 
L 325.001202 201.188142 
L 327.477031 205.858181 
L 329.671842 210.731503 
L 331.533132 215.78793 
L 333.018108 221.021371 
L 333.60285 223.696032 
L 334.071144 226.380305 
L 334.673755 231.727821 
L 334.883451 237.035856 
L 334.749728 242.297064 
L 334.320948 247.466844 
L 333.644098 252.52315 
L 332.323793 259.796333 
L 328.679263 277.613602 
L 328.064118 281.786039 
L 327.669407 285.863136 
L 327.534835 289.879687 
L 327.73426 294.249024 
L 327.73426 294.249024 
" style="fill:none;stroke:#ffffff;stroke-linecap:square;"/>
   </g>
   <g id="line2d_16">
    <path clip-path="url(#p1fff5200fa)" d="M 157.001841 173.06887 
L 157.450329 167.843103 
L 157.608764 162.739482 
L 157.551353 157.754023 
L 157.201416 150.487523 
L 156.208495 134.504123 
L 156.116385 130.179412 
L 156.192704 125.959934 
L 156.480143 121.800347 
L 156.997582 117.729292 
L 157.76327 113.765843 
L 158.791569 109.937993 
L 160.096438 106.267218 
L 161.711306 102.718616 
L 163.638256 99.298763 
L 165.840807 96.062274 
L 168.299847 93.036358 
L 170.981905 90.26204 
L 173.945668 87.693427 
L 177.186853 85.302182 
L 180.688602 83.059113 
L 184.424868 80.942054 
L 190.317536 77.977915 
L 194.20225 76.239707 
L 198.022341 74.761396 
L 201.758362 73.59439 
L 205.453526 72.770678 
L 209.132031 72.322956 
L 212.868177 72.26644 
L 216.592147 72.610271 
L 220.185509 73.341771 
L 223.587888 74.453197 
L 225.190894 75.143575 
L 226.769892 75.950952 
L 229.860489 77.907977 
L 232.852271 80.29133 
L 235.720553 83.04342 
L 238.44941 86.10345 
L 241.030096 89.406087 
L 243.456073 92.888791 
L 245.749852 96.531069 
L 249.018173 102.276111 
L 252.153941 108.274928 
L 256.161853 116.45071 
L 259.977412 124.742244 
L 264.531611 135.276236 
L 275.633745 161.540543 
L 277.842798 166.055633 
L 280.274935 170.544238 
L 282.905758 174.885995 
L 285.682925 179.061425 
L 290.017233 185.036016 
L 295.893723 192.565087 
L 301.509851 199.707872 
L 305.313418 204.936496 
L 307.591767 208.437691 
L 309.651024 212.02251 
L 311.469161 215.688336 
L 313.016855 219.410939 
L 314.271462 223.176364 
L 315.209869 226.960506 
L 315.829707 230.832104 
L 316.149936 234.837765 
L 316.192009 238.93715 
L 315.971812 243.122435 
L 315.522429 247.336023 
L 314.858399 251.627162 
L 313.568223 258.242945 
L 310.657059 272.256589 
L 309.836299 277.211795 
L 309.216402 282.3411 
L 308.888367 287.635488 
L 308.936178 293.09924 
L 309.094961 295.488 
L 309.094961 295.488 
" style="fill:none;stroke:#ffffff;stroke-linecap:square;"/>
   </g>
   <g id="patch_3">
    <path d="M 57.6 307.584 
L 57.6 41.472 
" style="fill:none;stroke:#000000;stroke-linecap:square;stroke-linejoin:miter;stroke-width:0.8;"/>
   </g>
   <g id="patch_4">
    <path d="M 414.72 307.584 
L 414.72 41.472 
" style="fill:none;stroke:#000000;stroke-linecap:square;stroke-linejoin:miter;stroke-width:0.8;"/>
   </g>
   <g id="patch_5">
    <path d="M 57.6 307.584 
L 414.72 307.584 
" style="fill:none;stroke:#000000;stroke-linecap:square;stroke-linejoin:miter;stroke-width:0.8;"/>
   </g>
   <g id="patch_6">
    <path d="M 57.6 41.472 
L 414.72 41.472 
" style="fill:none;stroke:#000000;stroke-linecap:square;stroke-linejoin:miter;stroke-width:0.8;"/>
   </g>
  </g>
 </g>
 <defs>
  <clipPath id="p1fff5200fa">
   <rect height="266.112" width="357.12" x="57.6" y="41.472"/>
  </clipPath>
 </defs>
</svg>
