<?xml version="1.0" encoding="utf-8" standalone="no"?>
<!DOCTYPE svg PUBLIC "-//W3C//DTD SVG 1.1//EN"
  "http://www.w3.org/Graphics/SVG/1.1/DTD/svg11.dtd">
<!-- Created with matplotlib (https://matplotlib.org/) -->
<svg height="345.6pt" version="1.1" viewBox="0 0 460.8 345.6" width="460.8pt" xmlns="http://www.w3.org/2000/svg" xmlns:xlink="http://www.w3.org/1999/xlink">
 <metadata>
  <rdf:RDF xmlns:cc="http://creativecommons.org/ns#" xmlns:dc="http://purl.org/dc/elements/1.1/" xmlns:rdf="http://www.w3.org/1999/02/22-rdf-syntax-ns#">
   <cc:Work>
    <dc:type rdf:resource="http://purl.org/dc/dcmitype/StillImage"/>
    <dc:date>2021-01-23T12:09:35.160867</dc:date>
    <dc:format>image/svg+xml</dc:format>
    <dc:creator>
     <cc:Agent>
      <dc:title>Matplotlib v3.3.3, https://matplotlib.org/</dc:title>
     </cc:Agent>
    </dc:creator>
   </cc:Work>
  </rdf:RDF>
 </metadata>
 <defs>
  <style type="text/css">*{stroke-linecap:butt;stroke-linejoin:round;}</style>
 </defs>
 <g id="figure_1">
  <g id="patch_1">
   <path d="M 0 345.6 
L 460.8 345.6 
L 460.8 0 
L 0 0 
z
" style="fill:#ffffff;"/>
  </g>
  <g id="axes_1">
   <g id="patch_2">
    <path d="M 57.6 307.584 
L 414.72 307.584 
L 414.72 41.472 
L 57.6 41.472 
z
" style="fill:#7d9051;"/>
   </g>
   <g id="matplotlib.axis_1">
    <g id="xtick_1">
     <g id="line2d_1">
      <defs>
       <path d="M 0 0 
L 0 3.5 
" id="m29791f52d5" style="stroke:#000000;stroke-width:0.8;"/>
      </defs>
      <g>
       <use style="stroke:#000000;stroke-width:0.8;" x="65.418114" xlink:href="#m29791f52d5" y="307.584"/>
      </g>
     </g>
     <g id="text_1">
      <!-- −20 -->
      <g transform="translate(54.86577 322.182437)scale(0.1 -0.1)">
       <defs>
        <path d="M 10.59375 35.5 
L 73.1875 35.5 
L 73.1875 27.203125 
L 10.59375 27.203125 
z
" id="DejaVuSans-8722"/>
        <path d="M 19.1875 8.296875 
L 53.609375 8.296875 
L 53.609375 0 
L 7.328125 0 
L 7.328125 8.296875 
Q 12.9375 14.109375 22.625 23.890625 
Q 32.328125 33.6875 34.8125 36.53125 
Q 39.546875 41.84375 41.421875 45.53125 
Q 43.3125 49.21875 43.3125 52.78125 
Q 43.3125 58.59375 39.234375 62.25 
Q 35.15625 65.921875 28.609375 65.921875 
Q 23.96875 65.921875 18.8125 64.3125 
Q 13.671875 62.703125 7.8125 59.421875 
L 7.8125 69.390625 
Q 13.765625 71.78125 18.9375 73 
Q 24.125 74.21875 28.421875 74.21875 
Q 39.75 74.21875 46.484375 68.546875 
Q 53.21875 62.890625 53.21875 53.421875 
Q 53.21875 48.921875 51.53125 44.890625 
Q 49.859375 40.875 45.40625 35.40625 
Q 44.1875 33.984375 37.640625 27.21875 
Q 31.109375 20.453125 19.1875 8.296875 
z
" id="DejaVuSans-50"/>
        <path d="M 31.78125 66.40625 
Q 24.171875 66.40625 20.328125 58.90625 
Q 16.5 51.421875 16.5 36.375 
Q 16.5 21.390625 20.328125 13.890625 
Q 24.171875 6.390625 31.78125 6.390625 
Q 39.453125 6.390625 43.28125 13.890625 
Q 47.125 21.390625 47.125 36.375 
Q 47.125 51.421875 43.28125 58.90625 
Q 39.453125 66.40625 31.78125 66.40625 
z
M 31.78125 74.21875 
Q 44.046875 74.21875 50.515625 64.515625 
Q 56.984375 54.828125 56.984375 36.375 
Q 56.984375 17.96875 50.515625 8.265625 
Q 44.046875 -1.421875 31.78125 -1.421875 
Q 19.53125 -1.421875 13.0625 8.265625 
Q 6.59375 17.96875 6.59375 36.375 
Q 6.59375 54.828125 13.0625 64.515625 
Q 19.53125 74.21875 31.78125 74.21875 
z
" id="DejaVuSans-48"/>
       </defs>
       <use xlink:href="#DejaVuSans-8722"/>
       <use x="83.789062" xlink:href="#DejaVuSans-50"/>
       <use x="147.412109" xlink:href="#DejaVuSans-48"/>
      </g>
     </g>
    </g>
    <g id="xtick_2">
     <g id="line2d_2">
      <g>
       <use style="stroke:#000000;stroke-width:0.8;" x="106.313457" xlink:href="#m29791f52d5" y="307.584"/>
      </g>
     </g>
     <g id="text_2">
      <!-- 0 -->
      <g transform="translate(103.132207 322.182437)scale(0.1 -0.1)">
       <use xlink:href="#DejaVuSans-48"/>
      </g>
     </g>
    </g>
    <g id="xtick_3">
     <g id="line2d_3">
      <g>
       <use style="stroke:#000000;stroke-width:0.8;" x="147.2088" xlink:href="#m29791f52d5" y="307.584"/>
      </g>
     </g>
     <g id="text_3">
      <!-- 20 -->
      <g transform="translate(140.8463 322.182437)scale(0.1 -0.1)">
       <use xlink:href="#DejaVuSans-50"/>
       <use x="63.623047" xlink:href="#DejaVuSans-48"/>
      </g>
     </g>
    </g>
    <g id="xtick_4">
     <g id="line2d_4">
      <g>
       <use style="stroke:#000000;stroke-width:0.8;" x="188.104143" xlink:href="#m29791f52d5" y="307.584"/>
      </g>
     </g>
     <g id="text_4">
      <!-- 40 -->
      <g transform="translate(181.741643 322.182437)scale(0.1 -0.1)">
       <defs>
        <path d="M 37.796875 64.3125 
L 12.890625 25.390625 
L 37.796875 25.390625 
z
M 35.203125 72.90625 
L 47.609375 72.90625 
L 47.609375 25.390625 
L 58.015625 25.390625 
L 58.015625 17.1875 
L 47.609375 17.1875 
L 47.609375 0 
L 37.796875 0 
L 37.796875 17.1875 
L 4.890625 17.1875 
L 4.890625 26.703125 
z
" id="DejaVuSans-52"/>
       </defs>
       <use xlink:href="#DejaVuSans-52"/>
       <use x="63.623047" xlink:href="#DejaVuSans-48"/>
      </g>
     </g>
    </g>
    <g id="xtick_5">
     <g id="line2d_5">
      <g>
       <use style="stroke:#000000;stroke-width:0.8;" x="228.999486" xlink:href="#m29791f52d5" y="307.584"/>
      </g>
     </g>
     <g id="text_5">
      <!-- 60 -->
      <g transform="translate(222.636986 322.182437)scale(0.1 -0.1)">
       <defs>
        <path d="M 33.015625 40.375 
Q 26.375 40.375 22.484375 35.828125 
Q 18.609375 31.296875 18.609375 23.390625 
Q 18.609375 15.53125 22.484375 10.953125 
Q 26.375 6.390625 33.015625 6.390625 
Q 39.65625 6.390625 43.53125 10.953125 
Q 47.40625 15.53125 47.40625 23.390625 
Q 47.40625 31.296875 43.53125 35.828125 
Q 39.65625 40.375 33.015625 40.375 
z
M 52.59375 71.296875 
L 52.59375 62.3125 
Q 48.875 64.0625 45.09375 64.984375 
Q 41.3125 65.921875 37.59375 65.921875 
Q 27.828125 65.921875 22.671875 59.328125 
Q 17.53125 52.734375 16.796875 39.40625 
Q 19.671875 43.65625 24.015625 45.921875 
Q 28.375 48.1875 33.59375 48.1875 
Q 44.578125 48.1875 50.953125 41.515625 
Q 57.328125 34.859375 57.328125 23.390625 
Q 57.328125 12.15625 50.6875 5.359375 
Q 44.046875 -1.421875 33.015625 -1.421875 
Q 20.359375 -1.421875 13.671875 8.265625 
Q 6.984375 17.96875 6.984375 36.375 
Q 6.984375 53.65625 15.1875 63.9375 
Q 23.390625 74.21875 37.203125 74.21875 
Q 40.921875 74.21875 44.703125 73.484375 
Q 48.484375 72.75 52.59375 71.296875 
z
" id="DejaVuSans-54"/>
       </defs>
       <use xlink:href="#DejaVuSans-54"/>
       <use x="63.623047" xlink:href="#DejaVuSans-48"/>
      </g>
     </g>
    </g>
    <g id="xtick_6">
     <g id="line2d_6">
      <g>
       <use style="stroke:#000000;stroke-width:0.8;" x="269.894829" xlink:href="#m29791f52d5" y="307.584"/>
      </g>
     </g>
     <g id="text_6">
      <!-- 80 -->
      <g transform="translate(263.532329 322.182437)scale(0.1 -0.1)">
       <defs>
        <path d="M 31.78125 34.625 
Q 24.75 34.625 20.71875 30.859375 
Q 16.703125 27.09375 16.703125 20.515625 
Q 16.703125 13.921875 20.71875 10.15625 
Q 24.75 6.390625 31.78125 6.390625 
Q 38.8125 6.390625 42.859375 10.171875 
Q 46.921875 13.96875 46.921875 20.515625 
Q 46.921875 27.09375 42.890625 30.859375 
Q 38.875 34.625 31.78125 34.625 
z
M 21.921875 38.8125 
Q 15.578125 40.375 12.03125 44.71875 
Q 8.5 49.078125 8.5 55.328125 
Q 8.5 64.0625 14.71875 69.140625 
Q 20.953125 74.21875 31.78125 74.21875 
Q 42.671875 74.21875 48.875 69.140625 
Q 55.078125 64.0625 55.078125 55.328125 
Q 55.078125 49.078125 51.53125 44.71875 
Q 48 40.375 41.703125 38.8125 
Q 48.828125 37.15625 52.796875 32.3125 
Q 56.78125 27.484375 56.78125 20.515625 
Q 56.78125 9.90625 50.3125 4.234375 
Q 43.84375 -1.421875 31.78125 -1.421875 
Q 19.734375 -1.421875 13.25 4.234375 
Q 6.78125 9.90625 6.78125 20.515625 
Q 6.78125 27.484375 10.78125 32.3125 
Q 14.796875 37.15625 21.921875 38.8125 
z
M 18.3125 54.390625 
Q 18.3125 48.734375 21.84375 45.5625 
Q 25.390625 42.390625 31.78125 42.390625 
Q 38.140625 42.390625 41.71875 45.5625 
Q 45.3125 48.734375 45.3125 54.390625 
Q 45.3125 60.0625 41.71875 63.234375 
Q 38.140625 66.40625 31.78125 66.40625 
Q 25.390625 66.40625 21.84375 63.234375 
Q 18.3125 60.0625 18.3125 54.390625 
z
" id="DejaVuSans-56"/>
       </defs>
       <use xlink:href="#DejaVuSans-56"/>
       <use x="63.623047" xlink:href="#DejaVuSans-48"/>
      </g>
     </g>
    </g>
    <g id="xtick_7">
     <g id="line2d_7">
      <g>
       <use style="stroke:#000000;stroke-width:0.8;" x="310.790172" xlink:href="#m29791f52d5" y="307.584"/>
      </g>
     </g>
     <g id="text_7">
      <!-- 100 -->
      <g transform="translate(301.246422 322.182437)scale(0.1 -0.1)">
       <defs>
        <path d="M 12.40625 8.296875 
L 28.515625 8.296875 
L 28.515625 63.921875 
L 10.984375 60.40625 
L 10.984375 69.390625 
L 28.421875 72.90625 
L 38.28125 72.90625 
L 38.28125 8.296875 
L 54.390625 8.296875 
L 54.390625 0 
L 12.40625 0 
z
" id="DejaVuSans-49"/>
       </defs>
       <use xlink:href="#DejaVuSans-49"/>
       <use x="63.623047" xlink:href="#DejaVuSans-48"/>
       <use x="127.246094" xlink:href="#DejaVuSans-48"/>
      </g>
     </g>
    </g>
    <g id="xtick_8">
     <g id="line2d_8">
      <g>
       <use style="stroke:#000000;stroke-width:0.8;" x="351.685515" xlink:href="#m29791f52d5" y="307.584"/>
      </g>
     </g>
     <g id="text_8">
      <!-- 120 -->
      <g transform="translate(342.141765 322.182437)scale(0.1 -0.1)">
       <use xlink:href="#DejaVuSans-49"/>
       <use x="63.623047" xlink:href="#DejaVuSans-50"/>
       <use x="127.246094" xlink:href="#DejaVuSans-48"/>
      </g>
     </g>
    </g>
    <g id="xtick_9">
     <g id="line2d_9">
      <g>
       <use style="stroke:#000000;stroke-width:0.8;" x="392.580858" xlink:href="#m29791f52d5" y="307.584"/>
      </g>
     </g>
     <g id="text_9">
      <!-- 140 -->
      <g transform="translate(383.037108 322.182437)scale(0.1 -0.1)">
       <use xlink:href="#DejaVuSans-49"/>
       <use x="63.623047" xlink:href="#DejaVuSans-52"/>
       <use x="127.246094" xlink:href="#DejaVuSans-48"/>
      </g>
     </g>
    </g>
   </g>
   <g id="matplotlib.axis_2">
    <g id="ytick_1">
     <g id="line2d_10">
      <defs>
       <path d="M 0 0 
L -3.5 0 
" id="m467c7abc55" style="stroke:#000000;stroke-width:0.8;"/>
      </defs>
      <g>
       <use style="stroke:#000000;stroke-width:0.8;" x="57.6" xlink:href="#m467c7abc55" y="272.754535"/>
      </g>
     </g>
     <g id="text_10">
      <!-- 20 -->
      <g transform="translate(37.875 276.553754)scale(0.1 -0.1)">
       <use xlink:href="#DejaVuSans-50"/>
       <use x="63.623047" xlink:href="#DejaVuSans-48"/>
      </g>
     </g>
    </g>
    <g id="ytick_2">
     <g id="line2d_11">
      <g>
       <use style="stroke:#000000;stroke-width:0.8;" x="57.6" xlink:href="#m467c7abc55" y="231.859192"/>
      </g>
     </g>
     <g id="text_11">
      <!-- 40 -->
      <g transform="translate(37.875 235.658411)scale(0.1 -0.1)">
       <use xlink:href="#DejaVuSans-52"/>
       <use x="63.623047" xlink:href="#DejaVuSans-48"/>
      </g>
     </g>
    </g>
    <g id="ytick_3">
     <g id="line2d_12">
      <g>
       <use style="stroke:#000000;stroke-width:0.8;" x="57.6" xlink:href="#m467c7abc55" y="190.963849"/>
      </g>
     </g>
     <g id="text_12">
      <!-- 60 -->
      <g transform="translate(37.875 194.763068)scale(0.1 -0.1)">
       <use xlink:href="#DejaVuSans-54"/>
       <use x="63.623047" xlink:href="#DejaVuSans-48"/>
      </g>
     </g>
    </g>
    <g id="ytick_4">
     <g id="line2d_13">
      <g>
       <use style="stroke:#000000;stroke-width:0.8;" x="57.6" xlink:href="#m467c7abc55" y="150.068506"/>
      </g>
     </g>
     <g id="text_13">
      <!-- 80 -->
      <g transform="translate(37.875 153.867725)scale(0.1 -0.1)">
       <use xlink:href="#DejaVuSans-56"/>
       <use x="63.623047" xlink:href="#DejaVuSans-48"/>
      </g>
     </g>
    </g>
    <g id="ytick_5">
     <g id="line2d_14">
      <g>
       <use style="stroke:#000000;stroke-width:0.8;" x="57.6" xlink:href="#m467c7abc55" y="109.173163"/>
      </g>
     </g>
     <g id="text_14">
      <!-- 100 -->
      <g transform="translate(31.5125 112.972382)scale(0.1 -0.1)">
       <use xlink:href="#DejaVuSans-49"/>
       <use x="63.623047" xlink:href="#DejaVuSans-48"/>
       <use x="127.246094" xlink:href="#DejaVuSans-48"/>
      </g>
     </g>
    </g>
    <g id="ytick_6">
     <g id="line2d_15">
      <g>
       <use style="stroke:#000000;stroke-width:0.8;" x="57.6" xlink:href="#m467c7abc55" y="68.27782"/>
      </g>
     </g>
     <g id="text_15">
      <!-- 120 -->
      <g transform="translate(31.5125 72.077039)scale(0.1 -0.1)">
       <use xlink:href="#DejaVuSans-49"/>
       <use x="63.623047" xlink:href="#DejaVuSans-50"/>
       <use x="127.246094" xlink:href="#DejaVuSans-48"/>
      </g>
     </g>
    </g>
   </g>
   <g id="line2d_16">
    <path clip-path="url(#p6b2316dcfa)" d="M 344.078981 293.202206 
L 344.698546 291.073604 
L 345.164753 288.955225 
L 345.481692 286.853204 
L 345.655497 284.765497 
L 345.694347 282.694148 
L 345.602333 280.643247 
L 345.387632 278.610748 
L 345.05638 276.598697 
L 344.062623 272.646162 
L 342.672181 268.793821 
L 340.936174 265.055987 
L 338.901631 261.442883 
L 336.617626 257.966779 
L 334.135279 254.637898 
L 331.499574 251.458285 
L 328.739138 248.405448 
L 324.432859 243.994885 
L 317.032846 236.854558 
L 310.98647 231.270299 
L 306.310087 227.250287 
L 301.463989 223.440886 
L 296.462489 219.833916 
L 289.616608 215.255683 
L 275.81034 206.283244 
L 272.47328 203.888822 
L 269.232325 201.363535 
L 266.091562 198.707382 
L 261.541955 194.525833 
L 257.157975 190.174569 
L 250.091259 182.737751 
L 242.96729 175.307067 
L 238.483116 170.98034 
L 235.348488 168.25262 
L 232.070726 165.737557 
L 228.625294 163.50876 
L 226.832033 162.523183 
L 224.985608 161.637798 
L 221.15167 160.163521 
L 217.166419 159.061392 
L 213.080974 158.294604 
L 208.942365 157.828397 
L 204.799667 157.625965 
L 200.683551 157.644368 
L 194.536981 157.938815 
L 182.182497 158.664707 
L 178.033665 158.703558 
L 173.899146 158.529752 
L 169.807567 158.073769 
L 165.783465 157.274265 
L 161.851378 156.069898 
L 158.037887 154.474979 
L 154.36753 152.534495 
L 150.866889 150.287296 
L 147.558455 147.776322 
L 144.466767 145.042468 
L 141.58978 142.102093 
L 138.917269 138.973599 
L 136.439012 135.667211 
L 134.148872 132.197241 
L 132.046852 128.578003 
L 130.186114 124.8279 
L 128.642314 120.965335 
L 127.487021 117.010755 
L 127.078068 115.004839 
L 126.79589 112.980519 
L 126.644577 110.945976 
L 126.624129 108.899164 
L 126.934934 104.795316 
L 127.662871 100.705782 
L 128.740463 96.661233 
L 130.100233 92.700519 
L 131.682883 88.850222 
L 133.472054 85.120567 
L 135.457523 81.511553 
L 137.633156 78.02727 
L 139.990772 74.669762 
L 142.522194 71.441075 
L 145.221286 68.343253 
L 148.079871 65.376295 
L 151.087723 62.546338 
L 154.242799 59.851335 
L 154.242799 59.851335 
" style="fill:none;stroke:#fea952;stroke-linecap:square;"/>
   </g>
   <g id="line2d_17">
    <path clip-path="url(#p6b2316dcfa)" d="M 336.225809 290.916413 
L 337.0771 287.735783 
L 337.477866 284.612116 
L 337.468519 281.502452 
L 337.075572 278.388631 
L 336.305736 275.239974 
L 335.185038 272.086213 
L 333.738895 268.941387 
L 331.995313 265.824656 
L 329.99042 262.760243 
L 327.777009 259.782757 
L 325.381085 256.886108 
L 321.473845 252.634803 
L 317.273444 248.427618 
L 308.501016 240.063064 
L 304.113139 236.11102 
L 299.660526 232.386171 
L 295.030178 228.855903 
L 290.192853 225.449962 
L 283.483571 221.033245 
L 272.893869 214.196263 
L 267.511258 210.390783 
L 264.010626 207.658853 
L 260.650632 204.814218 
L 255.840271 200.389958 
L 251.285601 195.867757 
L 244.135262 188.343396 
L 237.19997 181.106652 
L 233.03429 177.080131 
L 230.256825 174.653568 
L 227.471999 172.501348 
L 224.685844 170.676598 
L 221.855447 169.194203 
L 218.794745 167.995639 
L 215.498906 167.068674 
L 212.02996 166.405864 
L 208.41914 165.990713 
L 204.742869 165.804837 
L 200.960648 165.818742 
L 195.074557 166.100198 
L 182.351683 166.842026 
L 177.815741 166.879723 
L 173.152058 166.67463 
L 168.406155 166.131884 
L 165.999782 165.703869 
L 163.585993 165.152608 
L 161.212808 164.479898 
L 158.869708 163.686118 
L 156.601468 162.788883 
L 152.207077 160.692123 
L 148.037403 158.238443 
L 144.115102 155.47982 
L 140.459599 152.464526 
L 137.0528 149.211086 
L 133.922043 145.769226 
L 131.035398 142.145715 
L 128.382016 138.359925 
L 125.943583 134.411965 
L 123.690965 130.220676 
L 121.710297 125.777357 
L 120.855102 123.466633 
L 120.101134 121.081389 
L 119.47281 118.644641 
L 118.977322 116.134034 
L 118.639348 113.587137 
L 118.465916 111.027681 
L 118.454804 108.500064 
L 118.587958 106.013556 
L 118.852003 103.544963 
L 119.720075 98.754078 
L 120.962947 94.129947 
L 122.490774 89.701638 
L 124.259224 85.417083 
L 126.249621 81.282128 
L 128.460614 77.275939 
L 130.877112 73.417168 
L 133.487879 69.708961 
L 136.285823 66.149115 
L 139.2579 62.745469 
L 142.406839 59.484447 
L 145.700056 56.39246 
L 149.006687 53.568 
L 149.006687 53.568 
" style="fill:none;stroke:#ffffff;stroke-linecap:square;"/>
   </g>
   <g id="line2d_18">
    <path clip-path="url(#p6b2316dcfa)" d="M 351.932153 295.488 
L 352.686458 292.831561 
L 353.252405 290.174667 
L 353.632563 287.531778 
L 353.833127 284.918878 
L 353.865196 282.32756 
L 353.736147 279.784041 
L 353.45806 277.28208 
L 353.037188 274.808763 
L 352.489064 272.414073 
L 351.819511 270.052351 
L 351.040111 267.750328 
L 349.190151 263.314484 
L 347.00701 259.094892 
L 344.550273 255.086596 
L 341.883669 251.297364 
L 339.06936 247.73661 
L 336.148038 244.375604 
L 331.670163 239.66524 
L 325.668184 233.792609 
L 317.986566 226.566165 
L 313.13471 222.295843 
L 308.053975 218.178205 
L 302.853309 214.331069 
L 297.576112 210.699323 
L 290.534568 206.127268 
L 282.121126 200.688992 
L 277.435303 197.386861 
L 274.454023 195.068216 
L 270.092821 191.319291 
L 265.824689 187.282615 
L 261.640988 183.048584 
L 247.179101 167.961857 
L 243.931942 164.880548 
L 240.440151 161.851673 
L 236.669453 158.973765 
L 234.654967 157.614531 
L 232.564744 156.340923 
L 230.368449 155.148162 
L 228.115769 154.081394 
L 225.829695 153.145998 
L 223.508595 152.331404 
L 218.833931 151.05411 
L 214.131988 150.183345 
L 209.46559 149.666082 
L 204.856465 149.447094 
L 200.406453 149.469995 
L 193.999404 149.777432 
L 182.013312 150.487388 
L 178.251588 150.527393 
L 174.646233 150.384875 
L 171.208978 150.015655 
L 167.980936 149.395923 
L 164.833047 148.453677 
L 161.705347 147.16424 
L 158.645183 145.563208 
L 155.683799 143.677112 
L 152.866647 141.553761 
L 150.209486 139.218523 
L 147.719907 136.687418 
L 145.386928 133.969533 
L 143.200701 131.065394 
L 141.163071 127.990321 
L 139.307374 124.812106 
L 137.712552 121.626356 
L 136.429526 118.464037 
L 135.501232 115.376869 
L 134.952432 112.373902 
L 134.793455 109.298264 
L 135.017865 106.04567 
L 135.605667 102.657486 
L 136.517979 99.192519 
L 137.709693 95.6994 
L 139.106542 92.283362 
L 140.694488 88.959006 
L 142.454432 85.747167 
L 144.389199 82.637372 
L 146.493665 79.630563 
L 148.758565 76.733035 
L 151.184673 73.941036 
L 153.752902 71.268144 
L 156.475391 68.700215 
L 159.478911 66.134669 
L 159.478911 66.134669 
" style="fill:none;stroke:#ffffff;stroke-linecap:square;"/>
   </g>
   <g id="patch_3">
    <path d="M 57.6 307.584 
L 57.6 41.472 
" style="fill:none;stroke:#000000;stroke-linecap:square;stroke-linejoin:miter;stroke-width:0.8;"/>
   </g>
   <g id="patch_4">
    <path d="M 414.72 307.584 
L 414.72 41.472 
" style="fill:none;stroke:#000000;stroke-linecap:square;stroke-linejoin:miter;stroke-width:0.8;"/>
   </g>
   <g id="patch_5">
    <path d="M 57.6 307.584 
L 414.72 307.584 
" style="fill:none;stroke:#000000;stroke-linecap:square;stroke-linejoin:miter;stroke-width:0.8;"/>
   </g>
   <g id="patch_6">
    <path d="M 57.6 41.472 
L 414.72 41.472 
" style="fill:none;stroke:#000000;stroke-linecap:square;stroke-linejoin:miter;stroke-width:0.8;"/>
   </g>
  </g>
 </g>
 <defs>
  <clipPath id="p6b2316dcfa">
   <rect height="266.112" width="357.12" x="57.6" y="41.472"/>
  </clipPath>
 </defs>
</svg>
