<?xml version="1.0" encoding="utf-8" standalone="no"?>
<!DOCTYPE svg PUBLIC "-//W3C//DTD SVG 1.1//EN"
  "http://www.w3.org/Graphics/SVG/1.1/DTD/svg11.dtd">
<!-- Created with matplotlib (https://matplotlib.org/) -->
<svg height="345.6pt" version="1.1" viewBox="0 0 460.8 345.6" width="460.8pt" xmlns="http://www.w3.org/2000/svg" xmlns:xlink="http://www.w3.org/1999/xlink">
 <metadata>
  <rdf:RDF xmlns:cc="http://creativecommons.org/ns#" xmlns:dc="http://purl.org/dc/elements/1.1/" xmlns:rdf="http://www.w3.org/1999/02/22-rdf-syntax-ns#">
   <cc:Work>
    <dc:type rdf:resource="http://purl.org/dc/dcmitype/StillImage"/>
    <dc:date>2021-01-23T14:00:44.310460</dc:date>
    <dc:format>image/svg+xml</dc:format>
    <dc:creator>
     <cc:Agent>
      <dc:title>Matplotlib v3.3.3, https://matplotlib.org/</dc:title>
     </cc:Agent>
    </dc:creator>
   </cc:Work>
  </rdf:RDF>
 </metadata>
 <defs>
  <style type="text/css">*{stroke-linecap:butt;stroke-linejoin:round;}</style>
 </defs>
 <g id="figure_1">
  <g id="patch_1">
   <path d="M 0 345.6 
L 460.8 345.6 
L 460.8 0 
L 0 0 
z
" style="fill:#ffffff;"/>
  </g>
  <g id="axes_1">
   <g id="patch_2">
    <path d="M 57.6 307.584 
L 414.72 307.584 
L 414.72 41.472 
L 57.6 41.472 
z
" style="fill:#7d9051;"/>
   </g>
   <g id="matplotlib.axis_1">
    <g id="xtick_1">
     <g id="line2d_1">
      <defs>
       <path d="M 0 0 
L 0 3.5 
" id="m8b65632d65" style="stroke:#000000;stroke-width:0.8;"/>
      </defs>
      <g>
       <use style="stroke:#000000;stroke-width:0.8;" x="62.709014" xlink:href="#m8b65632d65" y="307.584"/>
      </g>
     </g>
     <g id="text_1">
      <!-- −50 -->
      <g transform="translate(52.15667 322.182437)scale(0.1 -0.1)">
       <defs>
        <path d="M 10.59375 35.5 
L 73.1875 35.5 
L 73.1875 27.203125 
L 10.59375 27.203125 
z
" id="DejaVuSans-8722"/>
        <path d="M 10.796875 72.90625 
L 49.515625 72.90625 
L 49.515625 64.59375 
L 19.828125 64.59375 
L 19.828125 46.734375 
Q 21.96875 47.46875 24.109375 47.828125 
Q 26.265625 48.1875 28.421875 48.1875 
Q 40.625 48.1875 47.75 41.5 
Q 54.890625 34.8125 54.890625 23.390625 
Q 54.890625 11.625 47.5625 5.09375 
Q 40.234375 -1.421875 26.90625 -1.421875 
Q 22.3125 -1.421875 17.546875 -0.640625 
Q 12.796875 0.140625 7.71875 1.703125 
L 7.71875 11.625 
Q 12.109375 9.234375 16.796875 8.0625 
Q 21.484375 6.890625 26.703125 6.890625 
Q 35.15625 6.890625 40.078125 11.328125 
Q 45.015625 15.765625 45.015625 23.390625 
Q 45.015625 31 40.078125 35.4375 
Q 35.15625 39.890625 26.703125 39.890625 
Q 22.75 39.890625 18.8125 39.015625 
Q 14.890625 38.140625 10.796875 36.28125 
z
" id="DejaVuSans-53"/>
        <path d="M 31.78125 66.40625 
Q 24.171875 66.40625 20.328125 58.90625 
Q 16.5 51.421875 16.5 36.375 
Q 16.5 21.390625 20.328125 13.890625 
Q 24.171875 6.390625 31.78125 6.390625 
Q 39.453125 6.390625 43.28125 13.890625 
Q 47.125 21.390625 47.125 36.375 
Q 47.125 51.421875 43.28125 58.90625 
Q 39.453125 66.40625 31.78125 66.40625 
z
M 31.78125 74.21875 
Q 44.046875 74.21875 50.515625 64.515625 
Q 56.984375 54.828125 56.984375 36.375 
Q 56.984375 17.96875 50.515625 8.265625 
Q 44.046875 -1.421875 31.78125 -1.421875 
Q 19.53125 -1.421875 13.0625 8.265625 
Q 6.59375 17.96875 6.59375 36.375 
Q 6.59375 54.828125 13.0625 64.515625 
Q 19.53125 74.21875 31.78125 74.21875 
z
" id="DejaVuSans-48"/>
       </defs>
       <use xlink:href="#DejaVuSans-8722"/>
       <use x="83.789062" xlink:href="#DejaVuSans-53"/>
       <use x="147.412109" xlink:href="#DejaVuSans-48"/>
      </g>
     </g>
    </g>
    <g id="xtick_2">
     <g id="line2d_2">
      <g>
       <use style="stroke:#000000;stroke-width:0.8;" x="110.303624" xlink:href="#m8b65632d65" y="307.584"/>
      </g>
     </g>
     <g id="text_2">
      <!-- −25 -->
      <g transform="translate(99.75128 322.182437)scale(0.1 -0.1)">
       <defs>
        <path d="M 19.1875 8.296875 
L 53.609375 8.296875 
L 53.609375 0 
L 7.328125 0 
L 7.328125 8.296875 
Q 12.9375 14.109375 22.625 23.890625 
Q 32.328125 33.6875 34.8125 36.53125 
Q 39.546875 41.84375 41.421875 45.53125 
Q 43.3125 49.21875 43.3125 52.78125 
Q 43.3125 58.59375 39.234375 62.25 
Q 35.15625 65.921875 28.609375 65.921875 
Q 23.96875 65.921875 18.8125 64.3125 
Q 13.671875 62.703125 7.8125 59.421875 
L 7.8125 69.390625 
Q 13.765625 71.78125 18.9375 73 
Q 24.125 74.21875 28.421875 74.21875 
Q 39.75 74.21875 46.484375 68.546875 
Q 53.21875 62.890625 53.21875 53.421875 
Q 53.21875 48.921875 51.53125 44.890625 
Q 49.859375 40.875 45.40625 35.40625 
Q 44.1875 33.984375 37.640625 27.21875 
Q 31.109375 20.453125 19.1875 8.296875 
z
" id="DejaVuSans-50"/>
       </defs>
       <use xlink:href="#DejaVuSans-8722"/>
       <use x="83.789062" xlink:href="#DejaVuSans-50"/>
       <use x="147.412109" xlink:href="#DejaVuSans-53"/>
      </g>
     </g>
    </g>
    <g id="xtick_3">
     <g id="line2d_3">
      <g>
       <use style="stroke:#000000;stroke-width:0.8;" x="157.898235" xlink:href="#m8b65632d65" y="307.584"/>
      </g>
     </g>
     <g id="text_3">
      <!-- 0 -->
      <g transform="translate(154.716985 322.182437)scale(0.1 -0.1)">
       <use xlink:href="#DejaVuSans-48"/>
      </g>
     </g>
    </g>
    <g id="xtick_4">
     <g id="line2d_4">
      <g>
       <use style="stroke:#000000;stroke-width:0.8;" x="205.492845" xlink:href="#m8b65632d65" y="307.584"/>
      </g>
     </g>
     <g id="text_4">
      <!-- 25 -->
      <g transform="translate(199.130345 322.182437)scale(0.1 -0.1)">
       <use xlink:href="#DejaVuSans-50"/>
       <use x="63.623047" xlink:href="#DejaVuSans-53"/>
      </g>
     </g>
    </g>
    <g id="xtick_5">
     <g id="line2d_5">
      <g>
       <use style="stroke:#000000;stroke-width:0.8;" x="253.087456" xlink:href="#m8b65632d65" y="307.584"/>
      </g>
     </g>
     <g id="text_5">
      <!-- 50 -->
      <g transform="translate(246.724956 322.182437)scale(0.1 -0.1)">
       <use xlink:href="#DejaVuSans-53"/>
       <use x="63.623047" xlink:href="#DejaVuSans-48"/>
      </g>
     </g>
    </g>
    <g id="xtick_6">
     <g id="line2d_6">
      <g>
       <use style="stroke:#000000;stroke-width:0.8;" x="300.682067" xlink:href="#m8b65632d65" y="307.584"/>
      </g>
     </g>
     <g id="text_6">
      <!-- 75 -->
      <g transform="translate(294.319567 322.182437)scale(0.1 -0.1)">
       <defs>
        <path d="M 8.203125 72.90625 
L 55.078125 72.90625 
L 55.078125 68.703125 
L 28.609375 0 
L 18.3125 0 
L 43.21875 64.59375 
L 8.203125 64.59375 
z
" id="DejaVuSans-55"/>
       </defs>
       <use xlink:href="#DejaVuSans-55"/>
       <use x="63.623047" xlink:href="#DejaVuSans-53"/>
      </g>
     </g>
    </g>
    <g id="xtick_7">
     <g id="line2d_7">
      <g>
       <use style="stroke:#000000;stroke-width:0.8;" x="348.276677" xlink:href="#m8b65632d65" y="307.584"/>
      </g>
     </g>
     <g id="text_7">
      <!-- 100 -->
      <g transform="translate(338.732927 322.182437)scale(0.1 -0.1)">
       <defs>
        <path d="M 12.40625 8.296875 
L 28.515625 8.296875 
L 28.515625 63.921875 
L 10.984375 60.40625 
L 10.984375 69.390625 
L 28.421875 72.90625 
L 38.28125 72.90625 
L 38.28125 8.296875 
L 54.390625 8.296875 
L 54.390625 0 
L 12.40625 0 
z
" id="DejaVuSans-49"/>
       </defs>
       <use xlink:href="#DejaVuSans-49"/>
       <use x="63.623047" xlink:href="#DejaVuSans-48"/>
       <use x="127.246094" xlink:href="#DejaVuSans-48"/>
      </g>
     </g>
    </g>
    <g id="xtick_8">
     <g id="line2d_8">
      <g>
       <use style="stroke:#000000;stroke-width:0.8;" x="395.871288" xlink:href="#m8b65632d65" y="307.584"/>
      </g>
     </g>
     <g id="text_8">
      <!-- 125 -->
      <g transform="translate(386.327538 322.182437)scale(0.1 -0.1)">
       <use xlink:href="#DejaVuSans-49"/>
       <use x="63.623047" xlink:href="#DejaVuSans-50"/>
       <use x="127.246094" xlink:href="#DejaVuSans-53"/>
      </g>
     </g>
    </g>
   </g>
   <g id="matplotlib.axis_2">
    <g id="ytick_1">
     <g id="line2d_9">
      <defs>
       <path d="M 0 0 
L -3.5 0 
" id="m760b249123" style="stroke:#000000;stroke-width:0.8;"/>
      </defs>
      <g>
       <use style="stroke:#000000;stroke-width:0.8;" x="57.6" xlink:href="#m760b249123" y="275.501756"/>
      </g>
     </g>
     <g id="text_9">
      <!-- 20 -->
      <g transform="translate(37.875 279.300974)scale(0.1 -0.1)">
       <use xlink:href="#DejaVuSans-50"/>
       <use x="63.623047" xlink:href="#DejaVuSans-48"/>
      </g>
     </g>
    </g>
    <g id="ytick_2">
     <g id="line2d_10">
      <g>
       <use style="stroke:#000000;stroke-width:0.8;" x="57.6" xlink:href="#m760b249123" y="237.426067"/>
      </g>
     </g>
     <g id="text_10">
      <!-- 40 -->
      <g transform="translate(37.875 241.225286)scale(0.1 -0.1)">
       <defs>
        <path d="M 37.796875 64.3125 
L 12.890625 25.390625 
L 37.796875 25.390625 
z
M 35.203125 72.90625 
L 47.609375 72.90625 
L 47.609375 25.390625 
L 58.015625 25.390625 
L 58.015625 17.1875 
L 47.609375 17.1875 
L 47.609375 0 
L 37.796875 0 
L 37.796875 17.1875 
L 4.890625 17.1875 
L 4.890625 26.703125 
z
" id="DejaVuSans-52"/>
       </defs>
       <use xlink:href="#DejaVuSans-52"/>
       <use x="63.623047" xlink:href="#DejaVuSans-48"/>
      </g>
     </g>
    </g>
    <g id="ytick_3">
     <g id="line2d_11">
      <g>
       <use style="stroke:#000000;stroke-width:0.8;" x="57.6" xlink:href="#m760b249123" y="199.350379"/>
      </g>
     </g>
     <g id="text_11">
      <!-- 60 -->
      <g transform="translate(37.875 203.149597)scale(0.1 -0.1)">
       <defs>
        <path d="M 33.015625 40.375 
Q 26.375 40.375 22.484375 35.828125 
Q 18.609375 31.296875 18.609375 23.390625 
Q 18.609375 15.53125 22.484375 10.953125 
Q 26.375 6.390625 33.015625 6.390625 
Q 39.65625 6.390625 43.53125 10.953125 
Q 47.40625 15.53125 47.40625 23.390625 
Q 47.40625 31.296875 43.53125 35.828125 
Q 39.65625 40.375 33.015625 40.375 
z
M 52.59375 71.296875 
L 52.59375 62.3125 
Q 48.875 64.0625 45.09375 64.984375 
Q 41.3125 65.921875 37.59375 65.921875 
Q 27.828125 65.921875 22.671875 59.328125 
Q 17.53125 52.734375 16.796875 39.40625 
Q 19.671875 43.65625 24.015625 45.921875 
Q 28.375 48.1875 33.59375 48.1875 
Q 44.578125 48.1875 50.953125 41.515625 
Q 57.328125 34.859375 57.328125 23.390625 
Q 57.328125 12.15625 50.6875 5.359375 
Q 44.046875 -1.421875 33.015625 -1.421875 
Q 20.359375 -1.421875 13.671875 8.265625 
Q 6.984375 17.96875 6.984375 36.375 
Q 6.984375 53.65625 15.1875 63.9375 
Q 23.390625 74.21875 37.203125 74.21875 
Q 40.921875 74.21875 44.703125 73.484375 
Q 48.484375 72.75 52.59375 71.296875 
z
" id="DejaVuSans-54"/>
       </defs>
       <use xlink:href="#DejaVuSans-54"/>
       <use x="63.623047" xlink:href="#DejaVuSans-48"/>
      </g>
     </g>
    </g>
    <g id="ytick_4">
     <g id="line2d_12">
      <g>
       <use style="stroke:#000000;stroke-width:0.8;" x="57.6" xlink:href="#m760b249123" y="161.27469"/>
      </g>
     </g>
     <g id="text_12">
      <!-- 80 -->
      <g transform="translate(37.875 165.073909)scale(0.1 -0.1)">
       <defs>
        <path d="M 31.78125 34.625 
Q 24.75 34.625 20.71875 30.859375 
Q 16.703125 27.09375 16.703125 20.515625 
Q 16.703125 13.921875 20.71875 10.15625 
Q 24.75 6.390625 31.78125 6.390625 
Q 38.8125 6.390625 42.859375 10.171875 
Q 46.921875 13.96875 46.921875 20.515625 
Q 46.921875 27.09375 42.890625 30.859375 
Q 38.875 34.625 31.78125 34.625 
z
M 21.921875 38.8125 
Q 15.578125 40.375 12.03125 44.71875 
Q 8.5 49.078125 8.5 55.328125 
Q 8.5 64.0625 14.71875 69.140625 
Q 20.953125 74.21875 31.78125 74.21875 
Q 42.671875 74.21875 48.875 69.140625 
Q 55.078125 64.0625 55.078125 55.328125 
Q 55.078125 49.078125 51.53125 44.71875 
Q 48 40.375 41.703125 38.8125 
Q 48.828125 37.15625 52.796875 32.3125 
Q 56.78125 27.484375 56.78125 20.515625 
Q 56.78125 9.90625 50.3125 4.234375 
Q 43.84375 -1.421875 31.78125 -1.421875 
Q 19.734375 -1.421875 13.25 4.234375 
Q 6.78125 9.90625 6.78125 20.515625 
Q 6.78125 27.484375 10.78125 32.3125 
Q 14.796875 37.15625 21.921875 38.8125 
z
M 18.3125 54.390625 
Q 18.3125 48.734375 21.84375 45.5625 
Q 25.390625 42.390625 31.78125 42.390625 
Q 38.140625 42.390625 41.71875 45.5625 
Q 45.3125 48.734375 45.3125 54.390625 
Q 45.3125 60.0625 41.71875 63.234375 
Q 38.140625 66.40625 31.78125 66.40625 
Q 25.390625 66.40625 21.84375 63.234375 
Q 18.3125 60.0625 18.3125 54.390625 
z
" id="DejaVuSans-56"/>
       </defs>
       <use xlink:href="#DejaVuSans-56"/>
       <use x="63.623047" xlink:href="#DejaVuSans-48"/>
      </g>
     </g>
    </g>
    <g id="ytick_5">
     <g id="line2d_13">
      <g>
       <use style="stroke:#000000;stroke-width:0.8;" x="57.6" xlink:href="#m760b249123" y="123.199002"/>
      </g>
     </g>
     <g id="text_13">
      <!-- 100 -->
      <g transform="translate(31.5125 126.99822)scale(0.1 -0.1)">
       <use xlink:href="#DejaVuSans-49"/>
       <use x="63.623047" xlink:href="#DejaVuSans-48"/>
       <use x="127.246094" xlink:href="#DejaVuSans-48"/>
      </g>
     </g>
    </g>
    <g id="ytick_6">
     <g id="line2d_14">
      <g>
       <use style="stroke:#000000;stroke-width:0.8;" x="57.6" xlink:href="#m760b249123" y="85.123313"/>
      </g>
     </g>
     <g id="text_14">
      <!-- 120 -->
      <g transform="translate(31.5125 88.922532)scale(0.1 -0.1)">
       <use xlink:href="#DejaVuSans-49"/>
       <use x="63.623047" xlink:href="#DejaVuSans-50"/>
       <use x="127.246094" xlink:href="#DejaVuSans-48"/>
      </g>
     </g>
    </g>
    <g id="ytick_7">
     <g id="line2d_15">
      <g>
       <use style="stroke:#000000;stroke-width:0.8;" x="57.6" xlink:href="#m760b249123" y="47.047625"/>
      </g>
     </g>
     <g id="text_15">
      <!-- 140 -->
      <g transform="translate(31.5125 50.846843)scale(0.1 -0.1)">
       <use xlink:href="#DejaVuSans-49"/>
       <use x="63.623047" xlink:href="#DejaVuSans-52"/>
       <use x="127.246094" xlink:href="#DejaVuSans-48"/>
      </g>
     </g>
    </g>
   </g>
   <g id="line2d_16">
    <path clip-path="url(#p29cc9e20d9)" d="M 176.936079 294.5396 
L 176.521054 290.840547 
L 176.294504 287.053919 
L 176.27737 283.212082 
L 176.48869 279.349304 
L 176.951309 275.501756 
L 177.682363 271.703706 
L 178.702791 267.989422 
L 180.033536 264.395077 
L 181.69554 260.954939 
L 183.704033 257.701371 
L 186.074244 254.674354 
L 188.775714 251.913867 
L 191.76656 249.4656 
L 195.010608 247.371437 
L 196.714495 246.472851 
L 198.465977 245.678973 
L 200.259342 244.99361 
L 203.954588 243.946529 
L 207.74883 243.30305 
L 211.596378 243.040327 
L 215.443927 243.127901 
L 219.247688 243.542926 
L 222.994336 244.222577 
L 228.549579 245.536189 
L 235.9553 247.348591 
L 239.701948 248.081548 
L 243.48096 248.643165 
L 247.280914 249.014403 
L 251.09229 249.180032 
L 254.911282 249.122919 
L 258.720754 248.824024 
L 262.505478 248.271927 
L 266.24451 247.457107 
L 269.913103 246.364335 
L 273.494121 244.985995 
L 276.959009 243.310665 
L 280.267786 241.334536 
L 283.370955 239.063322 
L 286.222824 236.495116 
L 288.775799 233.631825 
L 289.925685 232.091663 
L 291.957023 228.81525 
L 293.607604 225.321806 
L 294.854583 221.664636 
L 295.675114 217.897046 
L 295.918798 215.985647 
L 296.050159 214.066632 
L 295.981623 210.222891 
L 295.501869 206.4039 
L 294.64707 202.647733 
L 293.44959 198.992467 
L 291.941792 195.479985 
L 290.182696 192.104575 
L 287.226118 187.215657 
L 281.076895 177.56347 
L 278.215507 172.619341 
L 275.529267 167.57812 
L 273.014368 162.443614 
L 270.699366 157.212014 
L 268.650894 151.873803 
L 267.46674 148.252805 
L 266.45583 144.574693 
L 265.62578 140.847083 
L 264.986109 137.081398 
L 264.540623 133.289059 
L 264.291227 129.479586 
L 264.243633 125.66821 
L 264.392128 121.862545 
L 264.715771 118.064495 
L 265.494419 112.393121 
L 266.564346 106.765534 
L 267.896995 101.196965 
L 269.513308 95.712162 
L 270.758383 92.115913 
L 272.890622 86.821489 
L 276.062327 79.895521 
L 280.045044 71.248532 
L 282.171571 65.959819 
L 283.384281 62.354051 
L 284.379961 58.662613 
L 285.114822 54.868371 
L 285.114822 54.868371 
" style="fill:none;stroke:#fea952;stroke-linecap:square;"/>
   </g>
   <g id="line2d_17">
    <path clip-path="url(#p29cc9e20d9)" d="M 169.38023 295.488 
L 168.926535 291.400547 
L 168.680721 287.197576 
L 168.668138 282.912211 
L 168.914133 278.564182 
L 169.448457 274.198865 
L 170.300826 269.832012 
L 171.504529 265.504398 
L 173.095527 261.255913 
L 174.050448 259.168803 
L 175.110053 257.131108 
L 176.285281 255.129158 
L 177.582161 253.172243 
L 178.980792 251.300849 
L 180.486972 249.500119 
L 182.091971 247.783992 
L 183.790897 246.156965 
L 185.579216 244.623921 
L 187.454593 243.188876 
L 189.415586 241.856961 
L 191.458303 240.635604 
L 193.570715 239.536932 
L 195.747489 238.565595 
L 197.980634 237.7274 
L 200.220892 237.037156 
L 202.48577 236.474387 
L 204.766199 236.036689 
L 207.049902 235.720054 
L 211.603903 235.425193 
L 216.117002 235.542567 
L 220.495906 236.030785 
L 224.634175 236.786097 
L 230.428725 238.156546 
L 237.496914 239.891129 
L 240.915717 240.563764 
L 244.324413 241.074882 
L 247.721851 241.412042 
L 251.09229 241.564894 
L 254.432954 241.522818 
L 257.751043 241.270881 
L 261.020768 240.802927 
L 264.21457 240.117511 
L 267.326478 239.201955 
L 270.322535 238.062747 
L 273.205979 236.684573 
L 275.921038 235.081849 
L 278.425667 233.272428 
L 280.68526 231.267717 
L 282.673747 229.076028 
L 284.403668 226.65714 
L 285.857297 224.032956 
L 287.008309 221.261264 
L 287.834996 218.38475 
L 288.321439 215.46559 
L 288.461961 212.490621 
L 288.262581 209.452041 
L 287.736335 206.38176 
L 286.90826 203.339341 
L 285.800599 200.370265 
L 284.394299 197.405516 
L 282.719213 194.407392 
L 279.810973 189.766267 
L 274.530236 181.453403 
L 271.535458 176.275469 
L 268.731837 171.011089 
L 266.097243 165.628532 
L 263.641546 160.071648 
L 262.135328 156.252486 
L 260.773455 152.353424 
L 259.573118 148.350351 
L 258.565043 144.280042 
L 257.760595 140.152216 
L 257.164575 135.977203 
L 256.785341 131.780333 
L 256.626595 127.566291 
L 256.689801 123.37617 
L 256.952929 119.232691 
L 257.394833 115.12946 
L 258.3401 109.093226 
L 259.572604 103.122658 
L 261.096975 97.211646 
L 262.293537 93.29034 
L 263.642613 89.403693 
L 265.136959 85.600837 
L 267.543517 80.134671 
L 273.723901 66.653674 
L 275.551895 61.836152 
L 276.527435 58.659527 
L 277.280273 55.4794 
L 277.611532 53.568 
L 277.611532 53.568 
" style="fill:none;stroke:#ffffff;stroke-linecap:square;"/>
   </g>
   <g id="line2d_18">
    <path clip-path="url(#p29cc9e20d9)" d="M 184.491928 293.5912 
L 184.115573 290.280547 
L 183.908286 286.910263 
L 183.886601 283.511954 
L 184.063246 280.134426 
L 184.454162 276.804646 
L 185.063899 273.575399 
L 185.901053 270.474447 
L 186.971545 267.534242 
L 188.281027 264.77877 
L 189.825905 262.2305 
L 191.661517 259.848589 
L 193.760532 257.670768 
L 196.078527 255.742324 
L 198.562914 254.10727 
L 201.184465 252.79235 
L 203.964481 251.800179 
L 206.920085 251.113892 
L 210.008032 250.733618 
L 213.183721 250.649807 
L 216.374328 250.849271 
L 219.656715 251.327054 
L 223.077101 252.037652 
L 236.442533 255.223692 
L 240.563758 255.932015 
L 244.739703 256.442898 
L 248.964392 256.736773 
L 253.229455 256.791766 
L 257.529651 256.584696 
L 261.847376 256.095724 
L 266.140285 255.308299 
L 270.40634 254.200964 
L 274.59874 252.761649 
L 278.700407 250.96989 
L 282.690497 248.806865 
L 286.493874 246.26975 
L 288.316243 244.854216 
L 290.074292 243.339011 
L 291.760388 241.722516 
L 293.363635 240.006264 
L 294.877851 238.187621 
L 296.280313 236.287974 
L 297.572325 234.308791 
L 298.748585 232.259811 
L 299.804423 230.151695 
L 300.741879 227.984968 
L 301.558585 225.761349 
L 302.245873 223.497435 
L 302.803216 221.197873 
L 303.229109 218.860106 
L 303.516157 216.505704 
L 303.664924 214.142026 
L 303.676433 211.796998 
L 303.559414 209.469632 
L 303.319908 207.163327 
L 302.965341 204.891644 
L 301.935639 200.441586 
L 300.510108 196.139503 
L 298.751456 192.071349 
L 296.774252 188.291215 
L 294.686032 184.77233 
L 285.783972 170.537985 
L 283.166763 165.76597 
L 280.711209 160.898437 
L 278.453686 155.987748 
L 276.461033 151.081849 
L 274.785137 146.14772 
L 273.867938 142.827987 
L 273.117355 139.480838 
L 272.537071 136.09484 
L 272.132109 132.689332 
L 271.903798 129.281857 
L 271.855996 125.873744 
L 271.986418 122.425649 
L 272.278802 118.953816 
L 272.996719 113.69919 
L 273.999392 108.411866 
L 275.238871 103.218641 
L 276.73308 98.133984 
L 278.498171 93.186973 
L 280.592577 88.232023 
L 284.590655 79.662082 
L 287.055068 74.223407 
L 288.617504 70.437481 
L 290.051552 66.496756 
L 291.295824 62.381887 
L 292.286853 58.080141 
L 292.618111 56.168742 
L 292.618111 56.168742 
" style="fill:none;stroke:#ffffff;stroke-linecap:square;"/>
   </g>
   <g id="patch_3">
    <path d="M 57.6 307.584 
L 57.6 41.472 
" style="fill:none;stroke:#000000;stroke-linecap:square;stroke-linejoin:miter;stroke-width:0.8;"/>
   </g>
   <g id="patch_4">
    <path d="M 414.72 307.584 
L 414.72 41.472 
" style="fill:none;stroke:#000000;stroke-linecap:square;stroke-linejoin:miter;stroke-width:0.8;"/>
   </g>
   <g id="patch_5">
    <path d="M 57.6 307.584 
L 414.72 307.584 
" style="fill:none;stroke:#000000;stroke-linecap:square;stroke-linejoin:miter;stroke-width:0.8;"/>
   </g>
   <g id="patch_6">
    <path d="M 57.6 41.472 
L 414.72 41.472 
" style="fill:none;stroke:#000000;stroke-linecap:square;stroke-linejoin:miter;stroke-width:0.8;"/>
   </g>
  </g>
 </g>
 <defs>
  <clipPath id="p29cc9e20d9">
   <rect height="266.112" width="357.12" x="57.6" y="41.472"/>
  </clipPath>
 </defs>
</svg>
