<?xml version="1.0" encoding="utf-8" standalone="no"?>
<!DOCTYPE svg PUBLIC "-//W3C//DTD SVG 1.1//EN"
  "http://www.w3.org/Graphics/SVG/1.1/DTD/svg11.dtd">
<!-- Created with matplotlib (https://matplotlib.org/) -->
<svg height="345.6pt" version="1.1" viewBox="0 0 460.8 345.6" width="460.8pt" xmlns="http://www.w3.org/2000/svg" xmlns:xlink="http://www.w3.org/1999/xlink">
 <metadata>
  <rdf:RDF xmlns:cc="http://creativecommons.org/ns#" xmlns:dc="http://purl.org/dc/elements/1.1/" xmlns:rdf="http://www.w3.org/1999/02/22-rdf-syntax-ns#">
   <cc:Work>
    <dc:type rdf:resource="http://purl.org/dc/dcmitype/StillImage"/>
    <dc:date>2021-01-23T12:36:37.250345</dc:date>
    <dc:format>image/svg+xml</dc:format>
    <dc:creator>
     <cc:Agent>
      <dc:title>Matplotlib v3.3.3, https://matplotlib.org/</dc:title>
     </cc:Agent>
    </dc:creator>
   </cc:Work>
  </rdf:RDF>
 </metadata>
 <defs>
  <style type="text/css">*{stroke-linecap:butt;stroke-linejoin:round;}</style>
 </defs>
 <g id="figure_1">
  <g id="patch_1">
   <path d="M 0 345.6 
L 460.8 345.6 
L 460.8 0 
L 0 0 
z
" style="fill:#ffffff;"/>
  </g>
  <g id="axes_1">
   <g id="patch_2">
    <path d="M 57.6 307.584 
L 414.72 307.584 
L 414.72 41.472 
L 57.6 41.472 
z
" style="fill:#7d9051;"/>
   </g>
   <g id="matplotlib.axis_1">
    <g id="xtick_1">
     <g id="line2d_1">
      <defs>
       <path d="M 0 0 
L 0 3.5 
" id="m8590e46fbf" style="stroke:#000000;stroke-width:0.8;"/>
      </defs>
      <g>
       <use style="stroke:#000000;stroke-width:0.8;" x="91.21144" xlink:href="#m8590e46fbf" y="307.584"/>
      </g>
     </g>
     <g id="text_1">
      <!-- −20 -->
      <g transform="translate(80.659096 322.182437)scale(0.1 -0.1)">
       <defs>
        <path d="M 10.59375 35.5 
L 73.1875 35.5 
L 73.1875 27.203125 
L 10.59375 27.203125 
z
" id="DejaVuSans-8722"/>
        <path d="M 19.1875 8.296875 
L 53.609375 8.296875 
L 53.609375 0 
L 7.328125 0 
L 7.328125 8.296875 
Q 12.9375 14.109375 22.625 23.890625 
Q 32.328125 33.6875 34.8125 36.53125 
Q 39.546875 41.84375 41.421875 45.53125 
Q 43.3125 49.21875 43.3125 52.78125 
Q 43.3125 58.59375 39.234375 62.25 
Q 35.15625 65.921875 28.609375 65.921875 
Q 23.96875 65.921875 18.8125 64.3125 
Q 13.671875 62.703125 7.8125 59.421875 
L 7.8125 69.390625 
Q 13.765625 71.78125 18.9375 73 
Q 24.125 74.21875 28.421875 74.21875 
Q 39.75 74.21875 46.484375 68.546875 
Q 53.21875 62.890625 53.21875 53.421875 
Q 53.21875 48.921875 51.53125 44.890625 
Q 49.859375 40.875 45.40625 35.40625 
Q 44.1875 33.984375 37.640625 27.21875 
Q 31.109375 20.453125 19.1875 8.296875 
z
" id="DejaVuSans-50"/>
        <path d="M 31.78125 66.40625 
Q 24.171875 66.40625 20.328125 58.90625 
Q 16.5 51.421875 16.5 36.375 
Q 16.5 21.390625 20.328125 13.890625 
Q 24.171875 6.390625 31.78125 6.390625 
Q 39.453125 6.390625 43.28125 13.890625 
Q 47.125 21.390625 47.125 36.375 
Q 47.125 51.421875 43.28125 58.90625 
Q 39.453125 66.40625 31.78125 66.40625 
z
M 31.78125 74.21875 
Q 44.046875 74.21875 50.515625 64.515625 
Q 56.984375 54.828125 56.984375 36.375 
Q 56.984375 17.96875 50.515625 8.265625 
Q 44.046875 -1.421875 31.78125 -1.421875 
Q 19.53125 -1.421875 13.0625 8.265625 
Q 6.59375 17.96875 6.59375 36.375 
Q 6.59375 54.828125 13.0625 64.515625 
Q 19.53125 74.21875 31.78125 74.21875 
z
" id="DejaVuSans-48"/>
       </defs>
       <use xlink:href="#DejaVuSans-8722"/>
       <use x="83.789062" xlink:href="#DejaVuSans-50"/>
       <use x="147.412109" xlink:href="#DejaVuSans-48"/>
      </g>
     </g>
    </g>
    <g id="xtick_2">
     <g id="line2d_2">
      <g>
       <use style="stroke:#000000;stroke-width:0.8;" x="135.797922" xlink:href="#m8590e46fbf" y="307.584"/>
      </g>
     </g>
     <g id="text_2">
      <!-- 0 -->
      <g transform="translate(132.616672 322.182437)scale(0.1 -0.1)">
       <use xlink:href="#DejaVuSans-48"/>
      </g>
     </g>
    </g>
    <g id="xtick_3">
     <g id="line2d_3">
      <g>
       <use style="stroke:#000000;stroke-width:0.8;" x="180.384404" xlink:href="#m8590e46fbf" y="307.584"/>
      </g>
     </g>
     <g id="text_3">
      <!-- 20 -->
      <g transform="translate(174.021904 322.182437)scale(0.1 -0.1)">
       <use xlink:href="#DejaVuSans-50"/>
       <use x="63.623047" xlink:href="#DejaVuSans-48"/>
      </g>
     </g>
    </g>
    <g id="xtick_4">
     <g id="line2d_4">
      <g>
       <use style="stroke:#000000;stroke-width:0.8;" x="224.970886" xlink:href="#m8590e46fbf" y="307.584"/>
      </g>
     </g>
     <g id="text_4">
      <!-- 40 -->
      <g transform="translate(218.608386 322.182437)scale(0.1 -0.1)">
       <defs>
        <path d="M 37.796875 64.3125 
L 12.890625 25.390625 
L 37.796875 25.390625 
z
M 35.203125 72.90625 
L 47.609375 72.90625 
L 47.609375 25.390625 
L 58.015625 25.390625 
L 58.015625 17.1875 
L 47.609375 17.1875 
L 47.609375 0 
L 37.796875 0 
L 37.796875 17.1875 
L 4.890625 17.1875 
L 4.890625 26.703125 
z
" id="DejaVuSans-52"/>
       </defs>
       <use xlink:href="#DejaVuSans-52"/>
       <use x="63.623047" xlink:href="#DejaVuSans-48"/>
      </g>
     </g>
    </g>
    <g id="xtick_5">
     <g id="line2d_5">
      <g>
       <use style="stroke:#000000;stroke-width:0.8;" x="269.557368" xlink:href="#m8590e46fbf" y="307.584"/>
      </g>
     </g>
     <g id="text_5">
      <!-- 60 -->
      <g transform="translate(263.194868 322.182437)scale(0.1 -0.1)">
       <defs>
        <path d="M 33.015625 40.375 
Q 26.375 40.375 22.484375 35.828125 
Q 18.609375 31.296875 18.609375 23.390625 
Q 18.609375 15.53125 22.484375 10.953125 
Q 26.375 6.390625 33.015625 6.390625 
Q 39.65625 6.390625 43.53125 10.953125 
Q 47.40625 15.53125 47.40625 23.390625 
Q 47.40625 31.296875 43.53125 35.828125 
Q 39.65625 40.375 33.015625 40.375 
z
M 52.59375 71.296875 
L 52.59375 62.3125 
Q 48.875 64.0625 45.09375 64.984375 
Q 41.3125 65.921875 37.59375 65.921875 
Q 27.828125 65.921875 22.671875 59.328125 
Q 17.53125 52.734375 16.796875 39.40625 
Q 19.671875 43.65625 24.015625 45.921875 
Q 28.375 48.1875 33.59375 48.1875 
Q 44.578125 48.1875 50.953125 41.515625 
Q 57.328125 34.859375 57.328125 23.390625 
Q 57.328125 12.15625 50.6875 5.359375 
Q 44.046875 -1.421875 33.015625 -1.421875 
Q 20.359375 -1.421875 13.671875 8.265625 
Q 6.984375 17.96875 6.984375 36.375 
Q 6.984375 53.65625 15.1875 63.9375 
Q 23.390625 74.21875 37.203125 74.21875 
Q 40.921875 74.21875 44.703125 73.484375 
Q 48.484375 72.75 52.59375 71.296875 
z
" id="DejaVuSans-54"/>
       </defs>
       <use xlink:href="#DejaVuSans-54"/>
       <use x="63.623047" xlink:href="#DejaVuSans-48"/>
      </g>
     </g>
    </g>
    <g id="xtick_6">
     <g id="line2d_6">
      <g>
       <use style="stroke:#000000;stroke-width:0.8;" x="314.14385" xlink:href="#m8590e46fbf" y="307.584"/>
      </g>
     </g>
     <g id="text_6">
      <!-- 80 -->
      <g transform="translate(307.78135 322.182437)scale(0.1 -0.1)">
       <defs>
        <path d="M 31.78125 34.625 
Q 24.75 34.625 20.71875 30.859375 
Q 16.703125 27.09375 16.703125 20.515625 
Q 16.703125 13.921875 20.71875 10.15625 
Q 24.75 6.390625 31.78125 6.390625 
Q 38.8125 6.390625 42.859375 10.171875 
Q 46.921875 13.96875 46.921875 20.515625 
Q 46.921875 27.09375 42.890625 30.859375 
Q 38.875 34.625 31.78125 34.625 
z
M 21.921875 38.8125 
Q 15.578125 40.375 12.03125 44.71875 
Q 8.5 49.078125 8.5 55.328125 
Q 8.5 64.0625 14.71875 69.140625 
Q 20.953125 74.21875 31.78125 74.21875 
Q 42.671875 74.21875 48.875 69.140625 
Q 55.078125 64.0625 55.078125 55.328125 
Q 55.078125 49.078125 51.53125 44.71875 
Q 48 40.375 41.703125 38.8125 
Q 48.828125 37.15625 52.796875 32.3125 
Q 56.78125 27.484375 56.78125 20.515625 
Q 56.78125 9.90625 50.3125 4.234375 
Q 43.84375 -1.421875 31.78125 -1.421875 
Q 19.734375 -1.421875 13.25 4.234375 
Q 6.78125 9.90625 6.78125 20.515625 
Q 6.78125 27.484375 10.78125 32.3125 
Q 14.796875 37.15625 21.921875 38.8125 
z
M 18.3125 54.390625 
Q 18.3125 48.734375 21.84375 45.5625 
Q 25.390625 42.390625 31.78125 42.390625 
Q 38.140625 42.390625 41.71875 45.5625 
Q 45.3125 48.734375 45.3125 54.390625 
Q 45.3125 60.0625 41.71875 63.234375 
Q 38.140625 66.40625 31.78125 66.40625 
Q 25.390625 66.40625 21.84375 63.234375 
Q 18.3125 60.0625 18.3125 54.390625 
z
" id="DejaVuSans-56"/>
       </defs>
       <use xlink:href="#DejaVuSans-56"/>
       <use x="63.623047" xlink:href="#DejaVuSans-48"/>
      </g>
     </g>
    </g>
    <g id="xtick_7">
     <g id="line2d_7">
      <g>
       <use style="stroke:#000000;stroke-width:0.8;" x="358.730332" xlink:href="#m8590e46fbf" y="307.584"/>
      </g>
     </g>
     <g id="text_7">
      <!-- 100 -->
      <g transform="translate(349.186582 322.182437)scale(0.1 -0.1)">
       <defs>
        <path d="M 12.40625 8.296875 
L 28.515625 8.296875 
L 28.515625 63.921875 
L 10.984375 60.40625 
L 10.984375 69.390625 
L 28.421875 72.90625 
L 38.28125 72.90625 
L 38.28125 8.296875 
L 54.390625 8.296875 
L 54.390625 0 
L 12.40625 0 
z
" id="DejaVuSans-49"/>
       </defs>
       <use xlink:href="#DejaVuSans-49"/>
       <use x="63.623047" xlink:href="#DejaVuSans-48"/>
       <use x="127.246094" xlink:href="#DejaVuSans-48"/>
      </g>
     </g>
    </g>
    <g id="xtick_8">
     <g id="line2d_8">
      <g>
       <use style="stroke:#000000;stroke-width:0.8;" x="403.316814" xlink:href="#m8590e46fbf" y="307.584"/>
      </g>
     </g>
     <g id="text_8">
      <!-- 120 -->
      <g transform="translate(393.773064 322.182437)scale(0.1 -0.1)">
       <use xlink:href="#DejaVuSans-49"/>
       <use x="63.623047" xlink:href="#DejaVuSans-50"/>
       <use x="127.246094" xlink:href="#DejaVuSans-48"/>
      </g>
     </g>
    </g>
   </g>
   <g id="matplotlib.axis_2">
    <g id="ytick_1">
     <g id="line2d_9">
      <defs>
       <path d="M 0 0 
L -3.5 0 
" id="m8c84459c1a" style="stroke:#000000;stroke-width:0.8;"/>
      </defs>
      <g>
       <use style="stroke:#000000;stroke-width:0.8;" x="57.6" xlink:href="#m8c84459c1a" y="269.239219"/>
      </g>
     </g>
     <g id="text_9">
      <!-- 20 -->
      <g transform="translate(37.875 273.038438)scale(0.1 -0.1)">
       <use xlink:href="#DejaVuSans-50"/>
       <use x="63.623047" xlink:href="#DejaVuSans-48"/>
      </g>
     </g>
    </g>
    <g id="ytick_2">
     <g id="line2d_10">
      <g>
       <use style="stroke:#000000;stroke-width:0.8;" x="57.6" xlink:href="#m8c84459c1a" y="224.652737"/>
      </g>
     </g>
     <g id="text_10">
      <!-- 40 -->
      <g transform="translate(37.875 228.451956)scale(0.1 -0.1)">
       <use xlink:href="#DejaVuSans-52"/>
       <use x="63.623047" xlink:href="#DejaVuSans-48"/>
      </g>
     </g>
    </g>
    <g id="ytick_3">
     <g id="line2d_11">
      <g>
       <use style="stroke:#000000;stroke-width:0.8;" x="57.6" xlink:href="#m8c84459c1a" y="180.066255"/>
      </g>
     </g>
     <g id="text_11">
      <!-- 60 -->
      <g transform="translate(37.875 183.865474)scale(0.1 -0.1)">
       <use xlink:href="#DejaVuSans-54"/>
       <use x="63.623047" xlink:href="#DejaVuSans-48"/>
      </g>
     </g>
    </g>
    <g id="ytick_4">
     <g id="line2d_12">
      <g>
       <use style="stroke:#000000;stroke-width:0.8;" x="57.6" xlink:href="#m8c84459c1a" y="135.479773"/>
      </g>
     </g>
     <g id="text_12">
      <!-- 80 -->
      <g transform="translate(37.875 139.278992)scale(0.1 -0.1)">
       <use xlink:href="#DejaVuSans-56"/>
       <use x="63.623047" xlink:href="#DejaVuSans-48"/>
      </g>
     </g>
    </g>
    <g id="ytick_5">
     <g id="line2d_13">
      <g>
       <use style="stroke:#000000;stroke-width:0.8;" x="57.6" xlink:href="#m8c84459c1a" y="90.893291"/>
      </g>
     </g>
     <g id="text_13">
      <!-- 100 -->
      <g transform="translate(31.5125 94.69251)scale(0.1 -0.1)">
       <use xlink:href="#DejaVuSans-49"/>
       <use x="63.623047" xlink:href="#DejaVuSans-48"/>
       <use x="127.246094" xlink:href="#DejaVuSans-48"/>
      </g>
     </g>
    </g>
    <g id="ytick_6">
     <g id="line2d_14">
      <g>
       <use style="stroke:#000000;stroke-width:0.8;" x="57.6" xlink:href="#m8c84459c1a" y="46.306809"/>
      </g>
     </g>
     <g id="text_14">
      <!-- 120 -->
      <g transform="translate(31.5125 50.106028)scale(0.1 -0.1)">
       <use xlink:href="#DejaVuSans-49"/>
       <use x="63.623047" xlink:href="#DejaVuSans-50"/>
       <use x="127.246094" xlink:href="#DejaVuSans-48"/>
      </g>
     </g>
    </g>
   </g>
   <g id="line2d_15">
    <path clip-path="url(#p90c71235f4)" d="M 158.091163 153.2029 
L 158.249445 148.808902 
L 158.258362 142.136535 
L 158.115685 128.6625 
L 158.336388 121.938859 
L 158.717603 117.491357 
L 159.348501 113.081754 
L 160.284818 108.723425 
L 161.568908 104.434206 
L 163.196315 100.245306 
L 165.151432 96.194624 
L 167.416425 92.3156 
L 169.975689 88.648362 
L 172.813619 85.215203 
L 175.894545 82.004976 
L 179.187257 78.9887 
L 182.660544 76.144083 
L 186.278737 73.439913 
L 190.015084 70.873961 
L 193.871814 68.508648 
L 197.853387 66.428689 
L 201.964261 64.718797 
L 204.070972 64.029936 
L 206.213353 63.463687 
L 208.389173 63.028969 
L 210.596204 62.723552 
L 212.823299 62.542977 
L 215.068228 62.482785 
L 217.322075 62.536289 
L 221.827539 62.973236 
L 226.290646 63.811462 
L 230.655662 65.015297 
L 234.889149 66.560219 
L 238.968812 68.428392 
L 242.881275 70.606442 
L 246.602017 73.078762 
L 250.117662 75.834207 
L 253.414832 78.850482 
L 256.491299 82.100837 
L 259.342605 85.562977 
L 261.96429 89.207922 
L 264.356355 93.011149 
L 266.500964 96.957053 
L 268.371367 101.030028 
L 269.943041 105.221157 
L 271.189233 109.519294 
L 272.080963 113.913292 
L 272.604854 118.378628 
L 272.765365 122.875175 
L 272.560267 127.365033 
L 271.99179 131.805847 
L 271.059932 136.164176 
L 269.807052 140.428873 
L 268.302258 144.622231 
L 265.740765 150.82867 
L 260.44612 163.219253 
L 258.901198 167.410382 
L 257.585897 171.661703 
L 256.571555 175.984363 
L 255.918363 180.391736 
L 255.617404 184.854843 
L 255.648615 189.344702 
L 255.991931 193.830102 
L 256.625059 198.277604 
L 257.525705 202.662684 
L 258.678266 206.976426 
L 260.060447 211.221059 
L 261.656643 215.396584 
L 263.444561 219.502998 
L 265.410825 223.533616 
L 267.562123 227.468374 
L 269.91183 231.278288 
L 272.471094 234.93438 
L 275.251061 238.412126 
L 278.249502 241.700379 
L 283.009109 246.399794 
L 289.429563 252.608461 
L 292.492654 255.847669 
L 295.397463 259.229554 
L 298.152908 262.73851 
L 300.770134 266.361162 
L 303.260289 270.077445 
L 306.778163 275.797891 
L 310.068645 281.647637 
L 313.167406 287.568722 
L 315.144816 291.53246 
L 315.144816 291.53246 
" style="fill:none;stroke:#fea952;stroke-linecap:square;"/>
   </g>
   <g id="line2d_16">
    <path clip-path="url(#p90c71235f4)" d="M 149.183195 152.795109 
L 149.332798 148.701256 
L 149.342061 142.269747 
L 149.199659 128.511981 
L 149.318685 123.730891 
L 149.624687 118.838576 
L 150.19214 113.877638 
L 151.093702 108.853866 
L 152.39294 103.84055 
L 154.094077 98.93134 
L 156.181648 94.163683 
L 158.637282 89.580307 
L 161.452499 85.203923 
L 164.601279 81.088476 
L 167.997347 77.302438 
L 171.58928 73.81226 
L 175.340799 70.577053 
L 179.188703 67.577626 
L 183.162656 64.733212 
L 187.380097 61.990734 
L 191.873258 59.44447 
L 194.233385 58.279225 
L 196.664126 57.21061 
L 199.192843 56.243101 
L 201.792308 55.408691 
L 204.46625 54.719215 
L 207.166812 54.195849 
L 209.875545 53.835424 
L 212.584291 53.628884 
L 215.279855 53.568 
L 217.973033 53.642784 
L 220.645287 53.848314 
L 223.280755 54.175149 
L 225.905948 54.617471 
L 231.030142 55.823534 
L 236.01094 57.431584 
L 240.823103 59.422376 
L 245.443276 61.776798 
L 249.844106 64.476329 
L 254.017697 67.50956 
L 257.932856 70.844327 
L 261.558765 74.429304 
L 264.919283 78.251969 
L 268.003946 82.273736 
L 270.81183 86.462202 
L 273.367723 90.840823 
L 275.642393 95.402135 
L 277.603009 100.136096 
L 279.218404 105.039863 
L 280.453144 110.111087 
L 281.264577 115.282848 
L 281.648236 120.493235 
L 281.607217 125.714916 
L 281.141409 130.910197 
L 280.250111 136.042173 
L 278.981814 140.962289 
L 277.43676 145.645849 
L 275.71623 150.114853 
L 272.109929 158.516367 
L 268.779083 166.394139 
L 267.378566 170.176681 
L 266.226845 173.864473 
L 265.363137 177.47643 
L 264.802035 181.16539 
L 264.534168 184.952246 
L 264.550155 188.814848 
L 264.839411 192.716433 
L 265.38649 196.617636 
L 266.172019 200.481071 
L 267.191546 204.322705 
L 268.42702 208.13583 
L 269.873466 211.932193 
L 271.505444 215.689819 
L 273.286862 219.351964 
L 275.217247 222.894836 
L 277.292892 226.27448 
L 279.528198 229.483191 
L 281.924797 232.497784 
L 284.608341 235.448711 
L 289.156969 239.940537 
L 295.836689 246.406292 
L 299.19088 249.961079 
L 302.355484 253.652447 
L 305.330264 257.446655 
L 308.135966 261.33496 
L 310.790043 265.300314 
L 314.501901 271.341205 
L 317.9329 277.443868 
L 321.134296 283.562873 
L 323.136805 287.57692 
L 323.136805 287.57692 
" style="fill:none;stroke:#ffffff;stroke-linecap:square;"/>
   </g>
   <g id="line2d_17">
    <path clip-path="url(#p90c71235f4)" d="M 166.99913 153.610691 
L 167.166091 148.916548 
L 167.174663 142.003323 
L 167.031711 128.813019 
L 167.229972 122.58874 
L 167.563826 118.61497 
L 168.101439 114.785945 
L 168.877557 111.107332 
L 169.943624 107.497262 
L 171.303692 103.958608 
L 172.940706 100.535752 
L 174.830596 97.270219 
L 176.958027 94.194995 
L 179.351659 91.279212 
L 182.014488 88.490689 
L 184.923831 85.815844 
L 188.072775 83.231108 
L 191.406014 80.735747 
L 194.79006 78.405081 
L 198.153629 76.330684 
L 201.47339 74.578152 
L 204.735679 73.194493 
L 207.960455 72.20816 
L 211.316863 71.61168 
L 214.856601 71.39757 
L 218.506556 71.554203 
L 222.230071 72.069137 
L 225.947376 72.91851 
L 229.56731 74.061447 
L 233.074985 75.48598 
L 236.453627 77.18001 
L 239.686003 79.135307 
L 242.753256 81.336529 
L 245.65537 83.780171 
L 248.40087 86.468511 
L 250.970354 89.365029 
L 253.360911 92.454807 
L 255.569006 95.7212 
L 257.556475 99.09171 
L 259.303507 102.551506 
L 260.789426 106.083879 
L 261.996355 109.673837 
L 262.906225 113.301435 
L 263.512642 116.997925 
L 263.815614 120.758338 
L 263.812047 124.529751 
L 263.50205 128.278518 
L 262.890784 131.952373 
L 261.956508 135.650823 
L 260.723825 139.42086 
L 259.243045 143.280611 
L 255.769013 151.371637 
L 253.013431 157.806106 
L 251.250245 162.315126 
L 249.65161 167.024186 
L 248.318654 171.942123 
L 247.779973 174.492296 
L 247.03469 179.618083 
L 246.70064 184.757441 
L 246.747074 189.874556 
L 247.14445 194.943771 
L 247.863627 199.937571 
L 248.879392 204.844298 
L 250.164986 209.630148 
L 251.693874 214.306289 
L 253.43982 218.860974 
L 255.383678 223.316178 
L 257.534788 227.715269 
L 259.906998 232.041911 
L 262.530768 236.282097 
L 265.41399 240.385569 
L 268.577326 244.326467 
L 271.890664 247.952046 
L 276.861249 252.85905 
L 283.022436 258.810631 
L 285.794428 261.734259 
L 288.439443 264.806661 
L 290.975551 268.030365 
L 293.404303 271.387363 
L 296.864566 276.640453 
L 300.126611 282.11174 
L 303.217652 287.74615 
L 307.152828 295.488 
L 307.152828 295.488 
" style="fill:none;stroke:#ffffff;stroke-linecap:square;"/>
   </g>
   <g id="patch_3">
    <path d="M 57.6 307.584 
L 57.6 41.472 
" style="fill:none;stroke:#000000;stroke-linecap:square;stroke-linejoin:miter;stroke-width:0.8;"/>
   </g>
   <g id="patch_4">
    <path d="M 414.72 307.584 
L 414.72 41.472 
" style="fill:none;stroke:#000000;stroke-linecap:square;stroke-linejoin:miter;stroke-width:0.8;"/>
   </g>
   <g id="patch_5">
    <path d="M 57.6 307.584 
L 414.72 307.584 
" style="fill:none;stroke:#000000;stroke-linecap:square;stroke-linejoin:miter;stroke-width:0.8;"/>
   </g>
   <g id="patch_6">
    <path d="M 57.6 41.472 
L 414.72 41.472 
" style="fill:none;stroke:#000000;stroke-linecap:square;stroke-linejoin:miter;stroke-width:0.8;"/>
   </g>
  </g>
 </g>
 <defs>
  <clipPath id="p90c71235f4">
   <rect height="266.112" width="357.12" x="57.6" y="41.472"/>
  </clipPath>
 </defs>
</svg>
