<?xml version="1.0" encoding="utf-8" standalone="no"?>
<!DOCTYPE svg PUBLIC "-//W3C//DTD SVG 1.1//EN"
  "http://www.w3.org/Graphics/SVG/1.1/DTD/svg11.dtd">
<!-- Created with matplotlib (https://matplotlib.org/) -->
<svg height="345.6pt" version="1.1" viewBox="0 0 460.8 345.6" width="460.8pt" xmlns="http://www.w3.org/2000/svg" xmlns:xlink="http://www.w3.org/1999/xlink">
 <metadata>
  <rdf:RDF xmlns:cc="http://creativecommons.org/ns#" xmlns:dc="http://purl.org/dc/elements/1.1/" xmlns:rdf="http://www.w3.org/1999/02/22-rdf-syntax-ns#">
   <cc:Work>
    <dc:type rdf:resource="http://purl.org/dc/dcmitype/StillImage"/>
    <dc:date>2021-01-22T11:23:07.237721</dc:date>
    <dc:format>image/svg+xml</dc:format>
    <dc:creator>
     <cc:Agent>
      <dc:title>Matplotlib v3.3.3, https://matplotlib.org/</dc:title>
     </cc:Agent>
    </dc:creator>
   </cc:Work>
  </rdf:RDF>
 </metadata>
 <defs>
  <style type="text/css">*{stroke-linecap:butt;stroke-linejoin:round;}</style>
 </defs>
 <g id="figure_1">
  <g id="patch_1">
   <path d="M 0 345.6 
L 460.8 345.6 
L 460.8 0 
L 0 0 
z
" style="fill:#ffffff;"/>
  </g>
  <g id="axes_1">
   <g id="patch_2">
    <path d="M 57.6 307.584 
L 414.72 307.584 
L 414.72 41.472 
L 57.6 41.472 
z
" style="fill:#7d9051;"/>
   </g>
   <g id="matplotlib.axis_1">
    <g id="xtick_1">
     <g id="line2d_1">
      <defs>
       <path d="M 0 0 
L 0 3.5 
" id="m4cc68ba992" style="stroke:#000000;stroke-width:0.8;"/>
      </defs>
      <g>
       <use style="stroke:#000000;stroke-width:0.8;" x="97.433529" xlink:href="#m4cc68ba992" y="307.584"/>
      </g>
     </g>
     <g id="text_1">
      <!-- 0 -->
      <g transform="translate(94.252279 322.182437)scale(0.1 -0.1)">
       <defs>
        <path d="M 31.78125 66.40625 
Q 24.171875 66.40625 20.328125 58.90625 
Q 16.5 51.421875 16.5 36.375 
Q 16.5 21.390625 20.328125 13.890625 
Q 24.171875 6.390625 31.78125 6.390625 
Q 39.453125 6.390625 43.28125 13.890625 
Q 47.125 21.390625 47.125 36.375 
Q 47.125 51.421875 43.28125 58.90625 
Q 39.453125 66.40625 31.78125 66.40625 
z
M 31.78125 74.21875 
Q 44.046875 74.21875 50.515625 64.515625 
Q 56.984375 54.828125 56.984375 36.375 
Q 56.984375 17.96875 50.515625 8.265625 
Q 44.046875 -1.421875 31.78125 -1.421875 
Q 19.53125 -1.421875 13.0625 8.265625 
Q 6.59375 17.96875 6.59375 36.375 
Q 6.59375 54.828125 13.0625 64.515625 
Q 19.53125 74.21875 31.78125 74.21875 
z
" id="DejaVuSans-48"/>
       </defs>
       <use xlink:href="#DejaVuSans-48"/>
      </g>
     </g>
    </g>
    <g id="xtick_2">
     <g id="line2d_2">
      <g>
       <use style="stroke:#000000;stroke-width:0.8;" x="143.423192" xlink:href="#m4cc68ba992" y="307.584"/>
      </g>
     </g>
     <g id="text_2">
      <!-- 20 -->
      <g transform="translate(137.060692 322.182437)scale(0.1 -0.1)">
       <defs>
        <path d="M 19.1875 8.296875 
L 53.609375 8.296875 
L 53.609375 0 
L 7.328125 0 
L 7.328125 8.296875 
Q 12.9375 14.109375 22.625 23.890625 
Q 32.328125 33.6875 34.8125 36.53125 
Q 39.546875 41.84375 41.421875 45.53125 
Q 43.3125 49.21875 43.3125 52.78125 
Q 43.3125 58.59375 39.234375 62.25 
Q 35.15625 65.921875 28.609375 65.921875 
Q 23.96875 65.921875 18.8125 64.3125 
Q 13.671875 62.703125 7.8125 59.421875 
L 7.8125 69.390625 
Q 13.765625 71.78125 18.9375 73 
Q 24.125 74.21875 28.421875 74.21875 
Q 39.75 74.21875 46.484375 68.546875 
Q 53.21875 62.890625 53.21875 53.421875 
Q 53.21875 48.921875 51.53125 44.890625 
Q 49.859375 40.875 45.40625 35.40625 
Q 44.1875 33.984375 37.640625 27.21875 
Q 31.109375 20.453125 19.1875 8.296875 
z
" id="DejaVuSans-50"/>
       </defs>
       <use xlink:href="#DejaVuSans-50"/>
       <use x="63.623047" xlink:href="#DejaVuSans-48"/>
      </g>
     </g>
    </g>
    <g id="xtick_3">
     <g id="line2d_3">
      <g>
       <use style="stroke:#000000;stroke-width:0.8;" x="189.412856" xlink:href="#m4cc68ba992" y="307.584"/>
      </g>
     </g>
     <g id="text_3">
      <!-- 40 -->
      <g transform="translate(183.050356 322.182437)scale(0.1 -0.1)">
       <defs>
        <path d="M 37.796875 64.3125 
L 12.890625 25.390625 
L 37.796875 25.390625 
z
M 35.203125 72.90625 
L 47.609375 72.90625 
L 47.609375 25.390625 
L 58.015625 25.390625 
L 58.015625 17.1875 
L 47.609375 17.1875 
L 47.609375 0 
L 37.796875 0 
L 37.796875 17.1875 
L 4.890625 17.1875 
L 4.890625 26.703125 
z
" id="DejaVuSans-52"/>
       </defs>
       <use xlink:href="#DejaVuSans-52"/>
       <use x="63.623047" xlink:href="#DejaVuSans-48"/>
      </g>
     </g>
    </g>
    <g id="xtick_4">
     <g id="line2d_4">
      <g>
       <use style="stroke:#000000;stroke-width:0.8;" x="235.40252" xlink:href="#m4cc68ba992" y="307.584"/>
      </g>
     </g>
     <g id="text_4">
      <!-- 60 -->
      <g transform="translate(229.04002 322.182437)scale(0.1 -0.1)">
       <defs>
        <path d="M 33.015625 40.375 
Q 26.375 40.375 22.484375 35.828125 
Q 18.609375 31.296875 18.609375 23.390625 
Q 18.609375 15.53125 22.484375 10.953125 
Q 26.375 6.390625 33.015625 6.390625 
Q 39.65625 6.390625 43.53125 10.953125 
Q 47.40625 15.53125 47.40625 23.390625 
Q 47.40625 31.296875 43.53125 35.828125 
Q 39.65625 40.375 33.015625 40.375 
z
M 52.59375 71.296875 
L 52.59375 62.3125 
Q 48.875 64.0625 45.09375 64.984375 
Q 41.3125 65.921875 37.59375 65.921875 
Q 27.828125 65.921875 22.671875 59.328125 
Q 17.53125 52.734375 16.796875 39.40625 
Q 19.671875 43.65625 24.015625 45.921875 
Q 28.375 48.1875 33.59375 48.1875 
Q 44.578125 48.1875 50.953125 41.515625 
Q 57.328125 34.859375 57.328125 23.390625 
Q 57.328125 12.15625 50.6875 5.359375 
Q 44.046875 -1.421875 33.015625 -1.421875 
Q 20.359375 -1.421875 13.671875 8.265625 
Q 6.984375 17.96875 6.984375 36.375 
Q 6.984375 53.65625 15.1875 63.9375 
Q 23.390625 74.21875 37.203125 74.21875 
Q 40.921875 74.21875 44.703125 73.484375 
Q 48.484375 72.75 52.59375 71.296875 
z
" id="DejaVuSans-54"/>
       </defs>
       <use xlink:href="#DejaVuSans-54"/>
       <use x="63.623047" xlink:href="#DejaVuSans-48"/>
      </g>
     </g>
    </g>
    <g id="xtick_5">
     <g id="line2d_5">
      <g>
       <use style="stroke:#000000;stroke-width:0.8;" x="281.392184" xlink:href="#m4cc68ba992" y="307.584"/>
      </g>
     </g>
     <g id="text_5">
      <!-- 80 -->
      <g transform="translate(275.029684 322.182437)scale(0.1 -0.1)">
       <defs>
        <path d="M 31.78125 34.625 
Q 24.75 34.625 20.71875 30.859375 
Q 16.703125 27.09375 16.703125 20.515625 
Q 16.703125 13.921875 20.71875 10.15625 
Q 24.75 6.390625 31.78125 6.390625 
Q 38.8125 6.390625 42.859375 10.171875 
Q 46.921875 13.96875 46.921875 20.515625 
Q 46.921875 27.09375 42.890625 30.859375 
Q 38.875 34.625 31.78125 34.625 
z
M 21.921875 38.8125 
Q 15.578125 40.375 12.03125 44.71875 
Q 8.5 49.078125 8.5 55.328125 
Q 8.5 64.0625 14.71875 69.140625 
Q 20.953125 74.21875 31.78125 74.21875 
Q 42.671875 74.21875 48.875 69.140625 
Q 55.078125 64.0625 55.078125 55.328125 
Q 55.078125 49.078125 51.53125 44.71875 
Q 48 40.375 41.703125 38.8125 
Q 48.828125 37.15625 52.796875 32.3125 
Q 56.78125 27.484375 56.78125 20.515625 
Q 56.78125 9.90625 50.3125 4.234375 
Q 43.84375 -1.421875 31.78125 -1.421875 
Q 19.734375 -1.421875 13.25 4.234375 
Q 6.78125 9.90625 6.78125 20.515625 
Q 6.78125 27.484375 10.78125 32.3125 
Q 14.796875 37.15625 21.921875 38.8125 
z
M 18.3125 54.390625 
Q 18.3125 48.734375 21.84375 45.5625 
Q 25.390625 42.390625 31.78125 42.390625 
Q 38.140625 42.390625 41.71875 45.5625 
Q 45.3125 48.734375 45.3125 54.390625 
Q 45.3125 60.0625 41.71875 63.234375 
Q 38.140625 66.40625 31.78125 66.40625 
Q 25.390625 66.40625 21.84375 63.234375 
Q 18.3125 60.0625 18.3125 54.390625 
z
" id="DejaVuSans-56"/>
       </defs>
       <use xlink:href="#DejaVuSans-56"/>
       <use x="63.623047" xlink:href="#DejaVuSans-48"/>
      </g>
     </g>
    </g>
    <g id="xtick_6">
     <g id="line2d_6">
      <g>
       <use style="stroke:#000000;stroke-width:0.8;" x="327.381848" xlink:href="#m4cc68ba992" y="307.584"/>
      </g>
     </g>
     <g id="text_6">
      <!-- 100 -->
      <g transform="translate(317.838098 322.182437)scale(0.1 -0.1)">
       <defs>
        <path d="M 12.40625 8.296875 
L 28.515625 8.296875 
L 28.515625 63.921875 
L 10.984375 60.40625 
L 10.984375 69.390625 
L 28.421875 72.90625 
L 38.28125 72.90625 
L 38.28125 8.296875 
L 54.390625 8.296875 
L 54.390625 0 
L 12.40625 0 
z
" id="DejaVuSans-49"/>
       </defs>
       <use xlink:href="#DejaVuSans-49"/>
       <use x="63.623047" xlink:href="#DejaVuSans-48"/>
       <use x="127.246094" xlink:href="#DejaVuSans-48"/>
      </g>
     </g>
    </g>
    <g id="xtick_7">
     <g id="line2d_7">
      <g>
       <use style="stroke:#000000;stroke-width:0.8;" x="373.371512" xlink:href="#m4cc68ba992" y="307.584"/>
      </g>
     </g>
     <g id="text_7">
      <!-- 120 -->
      <g transform="translate(363.827762 322.182437)scale(0.1 -0.1)">
       <use xlink:href="#DejaVuSans-49"/>
       <use x="63.623047" xlink:href="#DejaVuSans-50"/>
       <use x="127.246094" xlink:href="#DejaVuSans-48"/>
      </g>
     </g>
    </g>
   </g>
   <g id="matplotlib.axis_2">
    <g id="ytick_1">
     <g id="line2d_8">
      <defs>
       <path d="M 0 0 
L -3.5 0 
" id="md75934f765" style="stroke:#000000;stroke-width:0.8;"/>
      </defs>
      <g>
       <use style="stroke:#000000;stroke-width:0.8;" x="57.6" xlink:href="#md75934f765" y="270.991893"/>
      </g>
     </g>
     <g id="text_8">
      <!-- 20 -->
      <g transform="translate(37.875 274.791111)scale(0.1 -0.1)">
       <use xlink:href="#DejaVuSans-50"/>
       <use x="63.623047" xlink:href="#DejaVuSans-48"/>
      </g>
     </g>
    </g>
    <g id="ytick_2">
     <g id="line2d_9">
      <g>
       <use style="stroke:#000000;stroke-width:0.8;" x="57.6" xlink:href="#md75934f765" y="225.002229"/>
      </g>
     </g>
     <g id="text_9">
      <!-- 40 -->
      <g transform="translate(37.875 228.801448)scale(0.1 -0.1)">
       <use xlink:href="#DejaVuSans-52"/>
       <use x="63.623047" xlink:href="#DejaVuSans-48"/>
      </g>
     </g>
    </g>
    <g id="ytick_3">
     <g id="line2d_10">
      <g>
       <use style="stroke:#000000;stroke-width:0.8;" x="57.6" xlink:href="#md75934f765" y="179.012565"/>
      </g>
     </g>
     <g id="text_10">
      <!-- 60 -->
      <g transform="translate(37.875 182.811784)scale(0.1 -0.1)">
       <use xlink:href="#DejaVuSans-54"/>
       <use x="63.623047" xlink:href="#DejaVuSans-48"/>
      </g>
     </g>
    </g>
    <g id="ytick_4">
     <g id="line2d_11">
      <g>
       <use style="stroke:#000000;stroke-width:0.8;" x="57.6" xlink:href="#md75934f765" y="133.022901"/>
      </g>
     </g>
     <g id="text_11">
      <!-- 80 -->
      <g transform="translate(37.875 136.82212)scale(0.1 -0.1)">
       <use xlink:href="#DejaVuSans-56"/>
       <use x="63.623047" xlink:href="#DejaVuSans-48"/>
      </g>
     </g>
    </g>
    <g id="ytick_5">
     <g id="line2d_12">
      <g>
       <use style="stroke:#000000;stroke-width:0.8;" x="57.6" xlink:href="#md75934f765" y="87.033237"/>
      </g>
     </g>
     <g id="text_12">
      <!-- 100 -->
      <g transform="translate(31.5125 90.832456)scale(0.1 -0.1)">
       <use xlink:href="#DejaVuSans-49"/>
       <use x="63.623047" xlink:href="#DejaVuSans-48"/>
       <use x="127.246094" xlink:href="#DejaVuSans-48"/>
      </g>
     </g>
    </g>
   </g>
   <g id="line2d_13">
    <path clip-path="url(#p323b7b86f9)" d="M 120.428361 293.986725 
L 119.782206 289.576316 
L 119.444182 285.014141 
L 119.434984 280.357688 
L 119.76381 275.664443 
L 120.446756 270.991893 
L 121.49992 266.397525 
L 122.937097 261.936528 
L 123.804002 259.775014 
L 124.772084 257.668687 
L 125.843643 255.624447 
L 127.020979 253.65149 
L 128.30639 251.754416 
L 129.697577 249.940124 
L 131.19914 248.215512 
L 132.80188 246.580579 
L 134.496599 245.026128 
L 138.120584 242.156373 
L 141.997513 239.571754 
L 146.046903 237.246977 
L 150.19747 235.145249 
L 154.403225 233.236678 
L 160.78659 230.633663 
L 169.384358 227.435082 
L 177.984425 224.220405 
L 184.351694 221.564501 
L 188.518357 219.577748 
L 192.604539 217.361046 
L 196.557351 214.879904 
L 200.300909 212.109027 
L 202.071511 210.609763 
L 203.761632 209.032318 
L 205.359772 207.372091 
L 206.859035 205.626783 
L 208.250223 203.794095 
L 209.521837 201.874027 
L 210.676178 199.873476 
L 211.715544 197.801642 
L 212.637637 195.667722 
L 213.447055 193.483213 
L 214.143798 191.252714 
L 214.730166 188.990022 
L 215.574077 184.397955 
L 215.992583 179.778293 
L 216.031674 175.167829 
L 215.760335 170.573462 
L 215.261347 165.990592 
L 214.247275 159.14733 
L 209.498842 129.628864 
L 209.025149 125.050593 
L 208.765307 120.453926 
L 208.781403 115.838863 
L 209.140123 111.203105 
L 209.885155 106.585743 
L 210.409437 104.306955 
L 211.041795 102.06036 
L 211.784528 99.852856 
L 212.642236 97.695941 
L 213.614917 95.598812 
L 214.707172 93.570668 
L 215.923598 91.623005 
L 217.264197 89.758125 
L 218.71977 87.978325 
L 220.281119 86.281306 
L 221.939046 84.667069 
L 225.494047 81.666243 
L 229.301991 78.962051 
L 233.277798 76.536096 
L 237.350183 74.363085 
L 241.50075 72.406224 
L 245.7272 70.626424 
L 252.200245 68.193571 
L 258.820457 65.946976 
L 263.297551 64.631672 
L 267.816035 63.585407 
L 272.355215 62.923156 
L 274.629404 62.76909 
L 276.905893 62.750694 
L 279.180081 62.881765 
L 281.449671 63.150805 
L 283.712363 63.550915 
L 285.961257 64.068298 
L 290.410757 65.424993 
L 294.768278 67.135809 
L 299.001627 69.115664 
L 303.097006 71.290975 
L 307.072813 73.615753 
L 312.892805 77.292626 
L 328.299342 87.316073 
L 334.206714 90.88947 
L 340.23136 94.249015 
L 344.32444 96.334647 
L 348.493403 98.273111 
L 352.742848 100.043713 
L 357.084273 101.625757 
L 359.289477 102.338597 
L 359.289477 102.338597 
" style="fill:none;stroke:#fea952;stroke-linecap:square;"/>
   </g>
   <g id="line2d_14">
    <path clip-path="url(#p323b7b86f9)" d="M 111.353773 295.488 
L 110.623276 290.422471 
L 110.248055 285.196423 
L 110.24898 279.889382 
L 110.638707 274.509253 
L 111.439708 269.127747 
L 112.005454 266.435294 
L 112.683234 263.776835 
L 113.48092 261.126725 
L 114.400166 258.512674 
L 115.446521 255.933857 
L 116.625521 253.398385 
L 117.945132 250.911116 
L 119.406391 248.49203 
L 121.007299 246.157521 
L 122.760551 243.900287 
L 124.630874 241.776579 
L 126.584528 239.802194 
L 128.620858 237.949573 
L 130.729694 236.211381 
L 135.074561 233.081593 
L 139.547285 230.33276 
L 144.051784 227.918592 
L 148.570882 225.759805 
L 153.052743 223.820911 
L 159.713232 221.197841 
L 178.558881 214.057735 
L 182.389466 212.340457 
L 186.069449 210.48223 
L 189.575956 208.451831 
L 192.834712 206.25442 
L 195.795594 203.885566 
L 198.382674 201.378589 
L 200.581573 198.715337 
L 201.555025 197.277085 
L 203.272171 194.153159 
L 204.66749 190.74073 
L 205.725044 187.116595 
L 206.434754 183.361255 
L 206.797981 179.530781 
L 206.84304 175.581318 
L 206.606517 171.473235 
L 206.148317 167.237445 
L 205.170308 160.634153 
L 200.359658 130.666781 
L 199.849713 125.693516 
L 199.568147 120.573131 
L 199.598689 115.309968 
L 200.029813 109.936528 
L 200.415679 107.224656 
L 200.921401 104.523446 
L 201.555556 101.814818 
L 202.324077 99.127211 
L 203.237567 96.454118 
L 204.298131 93.825813 
L 205.516698 91.237526 
L 206.905788 88.698257 
L 208.455145 86.254191 
L 210.14416 83.935149 
L 211.950909 81.750605 
L 213.864611 79.691132 
L 215.848077 77.774895 
L 217.907327 75.967636 
L 220.031973 74.265722 
L 224.389678 71.185732 
L 228.834968 68.482325 
L 233.332847 66.088848 
L 237.855242 63.961567 
L 242.377908 62.059966 
L 249.158053 59.513304 
L 256.12184 57.153829 
L 261.068865 55.707831 
L 266.271107 54.518149 
L 268.974318 54.068263 
L 271.733525 53.746257 
L 274.55508 53.571458 
L 277.435128 53.568 
L 280.262833 53.747784 
L 283.051288 54.093388 
L 285.774581 54.587142 
L 288.456832 55.215385 
L 291.064126 55.958914 
L 296.112899 57.739739 
L 300.917459 59.82175 
L 305.473574 62.109198 
L 309.806839 64.537492 
L 315.954594 68.321105 
L 336.907666 81.801205 
L 342.576779 85.062681 
L 348.278941 88.030196 
L 352.125523 89.822686 
L 355.995541 91.440112 
L 359.913396 92.873727 
L 362.1186 93.586567 
L 362.1186 93.586567 
" style="fill:none;stroke:#ffffff;stroke-linecap:square;"/>
   </g>
   <g id="line2d_15">
    <path clip-path="url(#p323b7b86f9)" d="M 129.502948 292.485449 
L 128.941135 288.730161 
L 128.640308 284.831859 
L 128.620987 280.825994 
L 128.888913 276.819632 
L 129.453805 272.856038 
L 130.316606 269.018215 
L 131.474028 265.360382 
L 132.918647 261.938989 
L 134.635566 258.81095 
L 136.634603 255.979961 
L 139.019231 253.358964 
L 141.813905 250.892939 
L 144.988349 248.57755 
L 148.462639 246.423886 
L 152.176493 244.423045 
L 156.018315 242.580732 
L 162.013901 240.033852 
L 170.388707 236.860801 
L 181.390925 232.764275 
L 185.922656 230.915454 
L 190.498981 228.852381 
L 195.078741 226.52095 
L 199.625025 223.860403 
L 204.083335 220.810393 
L 206.244694 219.128527 
L 208.347429 217.333961 
L 210.388277 215.411153 
L 212.336871 213.365593 
L 214.185269 211.188102 
L 215.918872 208.872853 
L 217.488649 206.470969 
L 218.897577 203.997863 
L 220.158916 201.450125 
L 221.262549 198.863479 
L 222.22662 196.225695 
L 223.047613 193.560105 
L 223.735289 190.86345 
L 224.289024 188.152394 
L 224.7134 185.434654 
L 225.013126 182.708518 
L 225.252143 177.38012 
L 225.101622 172.197344 
L 224.667963 167.189688 
L 223.692702 159.983159 
L 221.404172 146.248584 
L 219.558557 135.085966 
L 218.638027 128.590946 
L 218.200584 124.407669 
L 217.962467 120.33472 
L 217.964117 116.367758 
L 218.250433 112.469682 
L 218.84891 108.648039 
L 219.759513 104.993509 
L 220.98634 101.566068 
L 222.508555 98.443078 
L 223.392052 96.99182 
L 224.384234 95.5811 
L 226.697627 92.87148 
L 229.452183 90.289793 
L 232.560157 87.875214 
L 235.942859 85.64117 
L 239.519635 83.593348 
L 243.242082 81.724499 
L 247.098541 80.006488 
L 253.152106 77.630009 
L 259.453912 75.416564 
L 263.539351 74.11731 
L 267.473086 73.063661 
L 271.192334 72.329924 
L 274.703729 71.966723 
L 276.376657 71.933389 
L 279.848055 72.208221 
L 283.465683 72.921212 
L 287.199988 74.044328 
L 290.990765 75.522248 
L 294.779352 77.287222 
L 298.52072 79.26967 
L 304.105342 82.590854 
L 311.647369 87.481565 
L 321.452849 93.875269 
L 327.546052 97.636862 
L 333.838852 101.25084 
L 338.162629 103.539638 
L 342.599597 105.699119 
L 347.163709 107.710666 
L 351.856598 109.539149 
L 356.460354 111.090627 
L 356.460354 111.090627 
" style="fill:none;stroke:#ffffff;stroke-linecap:square;"/>
   </g>
   <g id="patch_3">
    <path d="M 57.6 307.584 
L 57.6 41.472 
" style="fill:none;stroke:#000000;stroke-linecap:square;stroke-linejoin:miter;stroke-width:0.8;"/>
   </g>
   <g id="patch_4">
    <path d="M 414.72 307.584 
L 414.72 41.472 
" style="fill:none;stroke:#000000;stroke-linecap:square;stroke-linejoin:miter;stroke-width:0.8;"/>
   </g>
   <g id="patch_5">
    <path d="M 57.6 307.584 
L 414.72 307.584 
" style="fill:none;stroke:#000000;stroke-linecap:square;stroke-linejoin:miter;stroke-width:0.8;"/>
   </g>
   <g id="patch_6">
    <path d="M 57.6 41.472 
L 414.72 41.472 
" style="fill:none;stroke:#000000;stroke-linecap:square;stroke-linejoin:miter;stroke-width:0.8;"/>
   </g>
  </g>
 </g>
 <defs>
  <clipPath id="p323b7b86f9">
   <rect height="266.112" width="357.12" x="57.6" y="41.472"/>
  </clipPath>
 </defs>
</svg>
