<?xml version="1.0" encoding="utf-8" standalone="no"?>
<!DOCTYPE svg PUBLIC "-//W3C//DTD SVG 1.1//EN"
  "http://www.w3.org/Graphics/SVG/1.1/DTD/svg11.dtd">
<!-- Created with matplotlib (https://matplotlib.org/) -->
<svg height="345.6pt" version="1.1" viewBox="0 0 460.8 345.6" width="460.8pt" xmlns="http://www.w3.org/2000/svg" xmlns:xlink="http://www.w3.org/1999/xlink">
 <metadata>
  <rdf:RDF xmlns:cc="http://creativecommons.org/ns#" xmlns:dc="http://purl.org/dc/elements/1.1/" xmlns:rdf="http://www.w3.org/1999/02/22-rdf-syntax-ns#">
   <cc:Work>
    <dc:type rdf:resource="http://purl.org/dc/dcmitype/StillImage"/>
    <dc:date>2021-01-23T12:33:31.794997</dc:date>
    <dc:format>image/svg+xml</dc:format>
    <dc:creator>
     <cc:Agent>
      <dc:title>Matplotlib v3.3.3, https://matplotlib.org/</dc:title>
     </cc:Agent>
    </dc:creator>
   </cc:Work>
  </rdf:RDF>
 </metadata>
 <defs>
  <style type="text/css">*{stroke-linecap:butt;stroke-linejoin:round;}</style>
 </defs>
 <g id="figure_1">
  <g id="patch_1">
   <path d="M 0 345.6 
L 460.8 345.6 
L 460.8 0 
L 0 0 
z
" style="fill:#ffffff;"/>
  </g>
  <g id="axes_1">
   <g id="patch_2">
    <path d="M 57.6 307.584 
L 414.72 307.584 
L 414.72 41.472 
L 57.6 41.472 
z
" style="fill:#7d9051;"/>
   </g>
   <g id="matplotlib.axis_1">
    <g id="xtick_1">
     <g id="line2d_1">
      <defs>
       <path d="M 0 0 
L 0 3.5 
" id="mb1d7d55605" style="stroke:#000000;stroke-width:0.8;"/>
      </defs>
      <g>
       <use style="stroke:#000000;stroke-width:0.8;" x="77.443607" xlink:href="#mb1d7d55605" y="307.584"/>
      </g>
     </g>
     <g id="text_1">
      <!-- −50 -->
      <g transform="translate(66.891264 322.182437)scale(0.1 -0.1)">
       <defs>
        <path d="M 10.59375 35.5 
L 73.1875 35.5 
L 73.1875 27.203125 
L 10.59375 27.203125 
z
" id="DejaVuSans-8722"/>
        <path d="M 10.796875 72.90625 
L 49.515625 72.90625 
L 49.515625 64.59375 
L 19.828125 64.59375 
L 19.828125 46.734375 
Q 21.96875 47.46875 24.109375 47.828125 
Q 26.265625 48.1875 28.421875 48.1875 
Q 40.625 48.1875 47.75 41.5 
Q 54.890625 34.8125 54.890625 23.390625 
Q 54.890625 11.625 47.5625 5.09375 
Q 40.234375 -1.421875 26.90625 -1.421875 
Q 22.3125 -1.421875 17.546875 -0.640625 
Q 12.796875 0.140625 7.71875 1.703125 
L 7.71875 11.625 
Q 12.109375 9.234375 16.796875 8.0625 
Q 21.484375 6.890625 26.703125 6.890625 
Q 35.15625 6.890625 40.078125 11.328125 
Q 45.015625 15.765625 45.015625 23.390625 
Q 45.015625 31 40.078125 35.4375 
Q 35.15625 39.890625 26.703125 39.890625 
Q 22.75 39.890625 18.8125 39.015625 
Q 14.890625 38.140625 10.796875 36.28125 
z
" id="DejaVuSans-53"/>
        <path d="M 31.78125 66.40625 
Q 24.171875 66.40625 20.328125 58.90625 
Q 16.5 51.421875 16.5 36.375 
Q 16.5 21.390625 20.328125 13.890625 
Q 24.171875 6.390625 31.78125 6.390625 
Q 39.453125 6.390625 43.28125 13.890625 
Q 47.125 21.390625 47.125 36.375 
Q 47.125 51.421875 43.28125 58.90625 
Q 39.453125 66.40625 31.78125 66.40625 
z
M 31.78125 74.21875 
Q 44.046875 74.21875 50.515625 64.515625 
Q 56.984375 54.828125 56.984375 36.375 
Q 56.984375 17.96875 50.515625 8.265625 
Q 44.046875 -1.421875 31.78125 -1.421875 
Q 19.53125 -1.421875 13.0625 8.265625 
Q 6.59375 17.96875 6.59375 36.375 
Q 6.59375 54.828125 13.0625 64.515625 
Q 19.53125 74.21875 31.78125 74.21875 
z
" id="DejaVuSans-48"/>
       </defs>
       <use xlink:href="#DejaVuSans-8722"/>
       <use x="83.789062" xlink:href="#DejaVuSans-53"/>
       <use x="147.412109" xlink:href="#DejaVuSans-48"/>
      </g>
     </g>
    </g>
    <g id="xtick_2">
     <g id="line2d_2">
      <g>
       <use style="stroke:#000000;stroke-width:0.8;" x="124.964627" xlink:href="#mb1d7d55605" y="307.584"/>
      </g>
     </g>
     <g id="text_2">
      <!-- −25 -->
      <g transform="translate(114.412283 322.182437)scale(0.1 -0.1)">
       <defs>
        <path d="M 19.1875 8.296875 
L 53.609375 8.296875 
L 53.609375 0 
L 7.328125 0 
L 7.328125 8.296875 
Q 12.9375 14.109375 22.625 23.890625 
Q 32.328125 33.6875 34.8125 36.53125 
Q 39.546875 41.84375 41.421875 45.53125 
Q 43.3125 49.21875 43.3125 52.78125 
Q 43.3125 58.59375 39.234375 62.25 
Q 35.15625 65.921875 28.609375 65.921875 
Q 23.96875 65.921875 18.8125 64.3125 
Q 13.671875 62.703125 7.8125 59.421875 
L 7.8125 69.390625 
Q 13.765625 71.78125 18.9375 73 
Q 24.125 74.21875 28.421875 74.21875 
Q 39.75 74.21875 46.484375 68.546875 
Q 53.21875 62.890625 53.21875 53.421875 
Q 53.21875 48.921875 51.53125 44.890625 
Q 49.859375 40.875 45.40625 35.40625 
Q 44.1875 33.984375 37.640625 27.21875 
Q 31.109375 20.453125 19.1875 8.296875 
z
" id="DejaVuSans-50"/>
       </defs>
       <use xlink:href="#DejaVuSans-8722"/>
       <use x="83.789062" xlink:href="#DejaVuSans-50"/>
       <use x="147.412109" xlink:href="#DejaVuSans-53"/>
      </g>
     </g>
    </g>
    <g id="xtick_3">
     <g id="line2d_3">
      <g>
       <use style="stroke:#000000;stroke-width:0.8;" x="172.485646" xlink:href="#mb1d7d55605" y="307.584"/>
      </g>
     </g>
     <g id="text_3">
      <!-- 0 -->
      <g transform="translate(169.304396 322.182437)scale(0.1 -0.1)">
       <use xlink:href="#DejaVuSans-48"/>
      </g>
     </g>
    </g>
    <g id="xtick_4">
     <g id="line2d_4">
      <g>
       <use style="stroke:#000000;stroke-width:0.8;" x="220.006665" xlink:href="#mb1d7d55605" y="307.584"/>
      </g>
     </g>
     <g id="text_4">
      <!-- 25 -->
      <g transform="translate(213.644165 322.182437)scale(0.1 -0.1)">
       <use xlink:href="#DejaVuSans-50"/>
       <use x="63.623047" xlink:href="#DejaVuSans-53"/>
      </g>
     </g>
    </g>
    <g id="xtick_5">
     <g id="line2d_5">
      <g>
       <use style="stroke:#000000;stroke-width:0.8;" x="267.527685" xlink:href="#mb1d7d55605" y="307.584"/>
      </g>
     </g>
     <g id="text_5">
      <!-- 50 -->
      <g transform="translate(261.165185 322.182437)scale(0.1 -0.1)">
       <use xlink:href="#DejaVuSans-53"/>
       <use x="63.623047" xlink:href="#DejaVuSans-48"/>
      </g>
     </g>
    </g>
    <g id="xtick_6">
     <g id="line2d_6">
      <g>
       <use style="stroke:#000000;stroke-width:0.8;" x="315.048704" xlink:href="#mb1d7d55605" y="307.584"/>
      </g>
     </g>
     <g id="text_6">
      <!-- 75 -->
      <g transform="translate(308.686204 322.182437)scale(0.1 -0.1)">
       <defs>
        <path d="M 8.203125 72.90625 
L 55.078125 72.90625 
L 55.078125 68.703125 
L 28.609375 0 
L 18.3125 0 
L 43.21875 64.59375 
L 8.203125 64.59375 
z
" id="DejaVuSans-55"/>
       </defs>
       <use xlink:href="#DejaVuSans-55"/>
       <use x="63.623047" xlink:href="#DejaVuSans-53"/>
      </g>
     </g>
    </g>
    <g id="xtick_7">
     <g id="line2d_7">
      <g>
       <use style="stroke:#000000;stroke-width:0.8;" x="362.569723" xlink:href="#mb1d7d55605" y="307.584"/>
      </g>
     </g>
     <g id="text_7">
      <!-- 100 -->
      <g transform="translate(353.025973 322.182437)scale(0.1 -0.1)">
       <defs>
        <path d="M 12.40625 8.296875 
L 28.515625 8.296875 
L 28.515625 63.921875 
L 10.984375 60.40625 
L 10.984375 69.390625 
L 28.421875 72.90625 
L 38.28125 72.90625 
L 38.28125 8.296875 
L 54.390625 8.296875 
L 54.390625 0 
L 12.40625 0 
z
" id="DejaVuSans-49"/>
       </defs>
       <use xlink:href="#DejaVuSans-49"/>
       <use x="63.623047" xlink:href="#DejaVuSans-48"/>
       <use x="127.246094" xlink:href="#DejaVuSans-48"/>
      </g>
     </g>
    </g>
    <g id="xtick_8">
     <g id="line2d_8">
      <g>
       <use style="stroke:#000000;stroke-width:0.8;" x="410.090743" xlink:href="#mb1d7d55605" y="307.584"/>
      </g>
     </g>
     <g id="text_8">
      <!-- 125 -->
      <g transform="translate(400.546993 322.182437)scale(0.1 -0.1)">
       <use xlink:href="#DejaVuSans-49"/>
       <use x="63.623047" xlink:href="#DejaVuSans-50"/>
       <use x="127.246094" xlink:href="#DejaVuSans-53"/>
      </g>
     </g>
    </g>
   </g>
   <g id="matplotlib.axis_2">
    <g id="ytick_1">
     <g id="line2d_9">
      <defs>
       <path d="M 0 0 
L -3.5 0 
" id="m98e5dcdb9e" style="stroke:#000000;stroke-width:0.8;"/>
      </defs>
      <g>
       <use style="stroke:#000000;stroke-width:0.8;" x="57.6" xlink:href="#m98e5dcdb9e" y="275.135622"/>
      </g>
     </g>
     <g id="text_9">
      <!-- 20 -->
      <g transform="translate(37.875 278.93484)scale(0.1 -0.1)">
       <use xlink:href="#DejaVuSans-50"/>
       <use x="63.623047" xlink:href="#DejaVuSans-48"/>
      </g>
     </g>
    </g>
    <g id="ytick_2">
     <g id="line2d_10">
      <g>
       <use style="stroke:#000000;stroke-width:0.8;" x="57.6" xlink:href="#m98e5dcdb9e" y="237.118806"/>
      </g>
     </g>
     <g id="text_10">
      <!-- 40 -->
      <g transform="translate(37.875 240.918025)scale(0.1 -0.1)">
       <defs>
        <path d="M 37.796875 64.3125 
L 12.890625 25.390625 
L 37.796875 25.390625 
z
M 35.203125 72.90625 
L 47.609375 72.90625 
L 47.609375 25.390625 
L 58.015625 25.390625 
L 58.015625 17.1875 
L 47.609375 17.1875 
L 47.609375 0 
L 37.796875 0 
L 37.796875 17.1875 
L 4.890625 17.1875 
L 4.890625 26.703125 
z
" id="DejaVuSans-52"/>
       </defs>
       <use xlink:href="#DejaVuSans-52"/>
       <use x="63.623047" xlink:href="#DejaVuSans-48"/>
      </g>
     </g>
    </g>
    <g id="ytick_3">
     <g id="line2d_11">
      <g>
       <use style="stroke:#000000;stroke-width:0.8;" x="57.6" xlink:href="#m98e5dcdb9e" y="199.101991"/>
      </g>
     </g>
     <g id="text_11">
      <!-- 60 -->
      <g transform="translate(37.875 202.901209)scale(0.1 -0.1)">
       <defs>
        <path d="M 33.015625 40.375 
Q 26.375 40.375 22.484375 35.828125 
Q 18.609375 31.296875 18.609375 23.390625 
Q 18.609375 15.53125 22.484375 10.953125 
Q 26.375 6.390625 33.015625 6.390625 
Q 39.65625 6.390625 43.53125 10.953125 
Q 47.40625 15.53125 47.40625 23.390625 
Q 47.40625 31.296875 43.53125 35.828125 
Q 39.65625 40.375 33.015625 40.375 
z
M 52.59375 71.296875 
L 52.59375 62.3125 
Q 48.875 64.0625 45.09375 64.984375 
Q 41.3125 65.921875 37.59375 65.921875 
Q 27.828125 65.921875 22.671875 59.328125 
Q 17.53125 52.734375 16.796875 39.40625 
Q 19.671875 43.65625 24.015625 45.921875 
Q 28.375 48.1875 33.59375 48.1875 
Q 44.578125 48.1875 50.953125 41.515625 
Q 57.328125 34.859375 57.328125 23.390625 
Q 57.328125 12.15625 50.6875 5.359375 
Q 44.046875 -1.421875 33.015625 -1.421875 
Q 20.359375 -1.421875 13.671875 8.265625 
Q 6.984375 17.96875 6.984375 36.375 
Q 6.984375 53.65625 15.1875 63.9375 
Q 23.390625 74.21875 37.203125 74.21875 
Q 40.921875 74.21875 44.703125 73.484375 
Q 48.484375 72.75 52.59375 71.296875 
z
" id="DejaVuSans-54"/>
       </defs>
       <use xlink:href="#DejaVuSans-54"/>
       <use x="63.623047" xlink:href="#DejaVuSans-48"/>
      </g>
     </g>
    </g>
    <g id="ytick_4">
     <g id="line2d_12">
      <g>
       <use style="stroke:#000000;stroke-width:0.8;" x="57.6" xlink:href="#m98e5dcdb9e" y="161.085175"/>
      </g>
     </g>
     <g id="text_12">
      <!-- 80 -->
      <g transform="translate(37.875 164.884394)scale(0.1 -0.1)">
       <defs>
        <path d="M 31.78125 34.625 
Q 24.75 34.625 20.71875 30.859375 
Q 16.703125 27.09375 16.703125 20.515625 
Q 16.703125 13.921875 20.71875 10.15625 
Q 24.75 6.390625 31.78125 6.390625 
Q 38.8125 6.390625 42.859375 10.171875 
Q 46.921875 13.96875 46.921875 20.515625 
Q 46.921875 27.09375 42.890625 30.859375 
Q 38.875 34.625 31.78125 34.625 
z
M 21.921875 38.8125 
Q 15.578125 40.375 12.03125 44.71875 
Q 8.5 49.078125 8.5 55.328125 
Q 8.5 64.0625 14.71875 69.140625 
Q 20.953125 74.21875 31.78125 74.21875 
Q 42.671875 74.21875 48.875 69.140625 
Q 55.078125 64.0625 55.078125 55.328125 
Q 55.078125 49.078125 51.53125 44.71875 
Q 48 40.375 41.703125 38.8125 
Q 48.828125 37.15625 52.796875 32.3125 
Q 56.78125 27.484375 56.78125 20.515625 
Q 56.78125 9.90625 50.3125 4.234375 
Q 43.84375 -1.421875 31.78125 -1.421875 
Q 19.734375 -1.421875 13.25 4.234375 
Q 6.78125 9.90625 6.78125 20.515625 
Q 6.78125 27.484375 10.78125 32.3125 
Q 14.796875 37.15625 21.921875 38.8125 
z
M 18.3125 54.390625 
Q 18.3125 48.734375 21.84375 45.5625 
Q 25.390625 42.390625 31.78125 42.390625 
Q 38.140625 42.390625 41.71875 45.5625 
Q 45.3125 48.734375 45.3125 54.390625 
Q 45.3125 60.0625 41.71875 63.234375 
Q 38.140625 66.40625 31.78125 66.40625 
Q 25.390625 66.40625 21.84375 63.234375 
Q 18.3125 60.0625 18.3125 54.390625 
z
" id="DejaVuSans-56"/>
       </defs>
       <use xlink:href="#DejaVuSans-56"/>
       <use x="63.623047" xlink:href="#DejaVuSans-48"/>
      </g>
     </g>
    </g>
    <g id="ytick_5">
     <g id="line2d_13">
      <g>
       <use style="stroke:#000000;stroke-width:0.8;" x="57.6" xlink:href="#m98e5dcdb9e" y="123.06836"/>
      </g>
     </g>
     <g id="text_13">
      <!-- 100 -->
      <g transform="translate(31.5125 126.867578)scale(0.1 -0.1)">
       <use xlink:href="#DejaVuSans-49"/>
       <use x="63.623047" xlink:href="#DejaVuSans-48"/>
       <use x="127.246094" xlink:href="#DejaVuSans-48"/>
      </g>
     </g>
    </g>
    <g id="ytick_6">
     <g id="line2d_14">
      <g>
       <use style="stroke:#000000;stroke-width:0.8;" x="57.6" xlink:href="#m98e5dcdb9e" y="85.051544"/>
      </g>
     </g>
     <g id="text_14">
      <!-- 120 -->
      <g transform="translate(31.5125 88.850763)scale(0.1 -0.1)">
       <use xlink:href="#DejaVuSans-49"/>
       <use x="63.623047" xlink:href="#DejaVuSans-50"/>
       <use x="127.246094" xlink:href="#DejaVuSans-48"/>
      </g>
     </g>
    </g>
    <g id="ytick_7">
     <g id="line2d_15">
      <g>
       <use style="stroke:#000000;stroke-width:0.8;" x="57.6" xlink:href="#m98e5dcdb9e" y="47.034729"/>
      </g>
     </g>
     <g id="text_15">
      <!-- 140 -->
      <g transform="translate(31.5125 50.833947)scale(0.1 -0.1)">
       <use xlink:href="#DejaVuSans-49"/>
       <use x="63.623047" xlink:href="#DejaVuSans-52"/>
       <use x="127.246094" xlink:href="#DejaVuSans-48"/>
      </g>
     </g>
    </g>
   </g>
   <g id="line2d_16">
    <path clip-path="url(#p98b6f52050)" d="M 263.76402 294.144029 
L 264.364686 290.27962 
L 264.609894 286.453227 
L 264.556671 282.657248 
L 264.260139 278.887881 
L 263.779227 275.135622 
L 262.830707 269.52624 
L 260.813915 258.28847 
L 260.310192 254.515301 
L 259.960438 250.721223 
L 259.772254 246.915739 
L 259.747543 243.106454 
L 259.895809 239.300971 
L 260.218952 235.508794 
L 261.180777 227.951051 
L 261.832766 222.288446 
L 262.06847 218.503872 
L 262.060867 214.707893 
L 261.809956 210.910013 
L 261.342349 207.123539 
L 260.675154 203.357973 
L 259.833081 199.626623 
L 258.833239 195.942793 
L 257.666123 192.314088 
L 256.320327 188.753813 
L 254.784448 185.269572 
L 253.045179 181.87277 
L 251.094916 178.576712 
L 248.929859 175.409911 
L 246.553808 172.406583 
L 243.972466 169.59714 
L 241.187734 167.015798 
L 238.207216 164.681566 
L 235.063225 162.556426 
L 231.799481 160.592857 
L 226.760353 157.842341 
L 218.307314 153.356356 
L 215.02076 151.440309 
L 211.842554 149.370293 
L 208.810713 147.093086 
L 205.961353 144.563067 
L 203.319184 141.795443 
L 200.905116 138.816825 
L 198.738158 135.650025 
L 196.84492 132.323553 
L 195.236809 128.858321 
L 193.910022 125.280938 
L 192.853155 121.612316 
L 192.051 117.871461 
L 191.494054 114.083085 
L 191.172812 110.266197 
L 191.096778 106.439805 
L 191.275457 102.622916 
L 191.722155 98.836441 
L 192.446375 95.097488 
L 193.459523 91.426964 
L 194.757797 87.841978 
L 196.335495 84.361539 
L 198.190716 81.006555 
L 200.319657 77.796035 
L 202.710915 74.75469 
L 205.356885 71.931941 
L 208.23856 69.381013 
L 211.340732 67.155128 
L 212.971654 66.179997 
L 214.650096 65.309412 
L 218.143841 63.878079 
L 221.789654 62.823112 
L 225.545715 62.081784 
L 229.374009 61.59707 
L 233.232715 61.310043 
L 237.087621 61.175083 
L 240.921616 61.2131 
L 244.725199 61.460209 
L 248.485062 61.952527 
L 252.1879 62.726169 
L 255.824208 63.809648 
L 259.374979 65.189659 
L 262.825005 66.845291 
L 266.153377 68.759438 
L 269.344888 70.909289 
L 272.382432 73.275836 
L 275.246999 75.84007 
L 277.921482 78.579181 
L 280.388773 81.474162 
L 282.629865 84.506003 
L 282.629865 84.506003 
" style="fill:none;stroke:#fea952;stroke-linecap:square;"/>
   </g>
   <g id="line2d_17">
    <path clip-path="url(#p98b6f52050)" d="M 256.28038 292.800059 
L 256.788791 289.633904 
L 257.006592 286.422814 
L 256.96905 283.146279 
L 256.708646 279.774494 
L 255.991801 274.544177 
L 254.656851 267.194068 
L 253.287426 259.366937 
L 252.746311 255.289138 
L 252.370696 251.176152 
L 252.170118 247.052305 
L 252.146945 242.901443 
L 252.312665 238.746848 
L 252.664909 234.644175 
L 253.639806 226.979002 
L 254.252068 221.701799 
L 254.465966 218.389606 
L 254.467392 215.095548 
L 254.251629 211.73635 
L 253.839596 208.35635 
L 253.239242 204.944905 
L 252.473049 201.534779 
L 251.568073 198.185222 
L 250.520089 194.911265 
L 249.320396 191.722331 
L 247.962703 188.627387 
L 246.440362 185.639403 
L 244.747763 182.762972 
L 242.881729 180.017651 
L 240.854727 177.439635 
L 238.688091 175.063996 
L 236.385065 172.91033 
L 233.855162 170.916207 
L 231.074508 169.029544 
L 226.503511 166.336175 
L 218.084455 161.881379 
L 212.760709 158.944747 
L 209.172344 156.73706 
L 205.624105 154.252069 
L 202.198148 151.440027 
L 199.008493 148.345206 
L 196.076761 144.995635 
L 193.429524 141.421359 
L 191.073726 137.6308 
L 189.043047 133.664189 
L 187.360816 129.589312 
L 186.006545 125.431721 
L 184.95887 121.214485 
L 184.204241 116.9706 
L 183.718464 112.697338 
L 183.501078 108.382282 
L 183.565872 104.045284 
L 183.931347 99.702621 
L 184.612961 95.374441 
L 185.628229 91.091838 
L 186.975953 86.896156 
L 188.649472 82.814748 
L 190.64874 78.858329 
L 192.969276 75.055716 
L 195.602951 71.432129 
L 198.571349 67.993795 
L 201.871381 64.802758 
L 203.640381 63.325612 
L 205.500044 61.927526 
L 207.438905 60.629266 
L 209.470803 59.43054 
L 211.565629 58.359794 
L 213.697957 57.427272 
L 215.85642 56.626952 
L 220.170706 55.394106 
L 224.480936 54.553346 
L 228.731454 54.020906 
L 232.888483 53.714476 
L 237.065036 53.571754 
L 241.300177 53.619167 
L 245.578223 53.904848 
L 249.890887 54.480259 
L 254.207168 55.395843 
L 258.437237 56.669396 
L 262.534365 58.273778 
L 266.493834 60.18565 
L 270.287341 62.3781 
L 273.914106 64.832005 
L 277.357813 67.526339 
L 280.593142 70.433603 
L 283.624763 73.55089 
L 286.422481 76.847554 
L 288.8232 80.095365 
L 288.8232 80.095365 
" style="fill:none;stroke:#ffffff;stroke-linecap:square;"/>
   </g>
   <g id="line2d_18">
    <path clip-path="url(#p98b6f52050)" d="M 271.24766 295.488 
L 271.94058 290.925335 
L 272.213196 286.483641 
L 272.144291 282.168218 
L 271.811633 278.001269 
L 271.291332 273.96114 
L 270.304271 268.127323 
L 268.340404 257.210002 
L 267.694185 251.998155 
L 267.443986 248.522471 
L 267.341308 245.049037 
L 267.39238 241.590595 
L 267.60213 238.139033 
L 268.211221 232.735483 
L 269.210512 224.93143 
L 269.574042 220.755504 
L 269.698971 216.462251 
L 269.542417 212.194481 
L 269.135063 207.977765 
L 268.502117 203.818 
L 267.672738 199.727132 
L 266.668872 195.704206 
L 265.480732 191.706387 
L 264.093246 187.746149 
L 262.490605 183.836659 
L 260.654574 179.987048 
L 258.577561 176.233475 
L 256.242431 172.579218 
L 253.644028 169.059605 
L 250.786068 165.721527 
L 247.656688 162.592811 
L 244.292066 159.744814 
L 240.815314 157.233743 
L 237.294129 155.002159 
L 232.020362 152.027375 
L 220.546455 145.882332 
L 217.656755 144.117262 
L 214.985443 142.268336 
L 212.526397 140.278854 
L 210.21882 138.07033 
L 208.086713 135.667956 
L 206.149121 133.08731 
L 204.440922 130.380795 
L 202.966451 127.549999 
L 201.717585 124.576558 
L 200.692004 121.484343 
L 199.880656 118.284498 
L 199.281887 114.993451 
L 198.889476 111.655746 
L 198.707684 108.321819 
L 198.741735 105.013635 
L 198.999735 101.749133 
L 199.485237 98.546182 
L 200.207338 95.415507 
L 201.171036 92.349976 
L 202.37539 89.360257 
L 203.809041 86.47745 
L 205.472667 83.710758 
L 207.362993 81.072976 
L 209.435624 78.63391 
L 211.66704 76.434163 
L 214.026025 74.519276 
L 216.472505 72.929454 
L 219.054162 71.659474 
L 221.890288 70.65986 
L 224.981929 69.90324 
L 228.299558 69.368083 
L 231.786904 69.021448 
L 237.110205 68.778413 
L 240.543055 68.807033 
L 243.872174 69.01557 
L 247.079236 69.424795 
L 250.168631 70.056496 
L 253.211179 70.949901 
L 256.215593 72.10554 
L 259.156175 73.504932 
L 262.019412 75.140775 
L 264.775671 76.986573 
L 267.407051 79.025332 
L 269.900856 81.246536 
L 272.218201 83.607473 
L 274.355065 86.100769 
L 276.436529 88.916641 
L 276.436529 88.916641 
" style="fill:none;stroke:#ffffff;stroke-linecap:square;"/>
   </g>
   <g id="patch_3">
    <path d="M 57.6 307.584 
L 57.6 41.472 
" style="fill:none;stroke:#000000;stroke-linecap:square;stroke-linejoin:miter;stroke-width:0.8;"/>
   </g>
   <g id="patch_4">
    <path d="M 414.72 307.584 
L 414.72 41.472 
" style="fill:none;stroke:#000000;stroke-linecap:square;stroke-linejoin:miter;stroke-width:0.8;"/>
   </g>
   <g id="patch_5">
    <path d="M 57.6 307.584 
L 414.72 307.584 
" style="fill:none;stroke:#000000;stroke-linecap:square;stroke-linejoin:miter;stroke-width:0.8;"/>
   </g>
   <g id="patch_6">
    <path d="M 57.6 41.472 
L 414.72 41.472 
" style="fill:none;stroke:#000000;stroke-linecap:square;stroke-linejoin:miter;stroke-width:0.8;"/>
   </g>
  </g>
 </g>
 <defs>
  <clipPath id="p98b6f52050">
   <rect height="266.112" width="357.12" x="57.6" y="41.472"/>
  </clipPath>
 </defs>
</svg>
