<?xml version="1.0" encoding="utf-8" standalone="no"?>
<!DOCTYPE svg PUBLIC "-//W3C//DTD SVG 1.1//EN"
  "http://www.w3.org/Graphics/SVG/1.1/DTD/svg11.dtd">
<!-- Created with matplotlib (https://matplotlib.org/) -->
<svg height="345.6pt" version="1.1" viewBox="0 0 460.8 345.6" width="460.8pt" xmlns="http://www.w3.org/2000/svg" xmlns:xlink="http://www.w3.org/1999/xlink">
 <metadata>
  <rdf:RDF xmlns:cc="http://creativecommons.org/ns#" xmlns:dc="http://purl.org/dc/elements/1.1/" xmlns:rdf="http://www.w3.org/1999/02/22-rdf-syntax-ns#">
   <cc:Work>
    <dc:type rdf:resource="http://purl.org/dc/dcmitype/StillImage"/>
    <dc:date>2021-01-22T09:34:35.181228</dc:date>
    <dc:format>image/svg+xml</dc:format>
    <dc:creator>
     <cc:Agent>
      <dc:title>Matplotlib v3.3.3, https://matplotlib.org/</dc:title>
     </cc:Agent>
    </dc:creator>
   </cc:Work>
  </rdf:RDF>
 </metadata>
 <defs>
  <style type="text/css">*{stroke-linecap:butt;stroke-linejoin:round;}</style>
 </defs>
 <g id="figure_1">
  <g id="patch_1">
   <path d="M 0 345.6 
L 460.8 345.6 
L 460.8 0 
L 0 0 
z
" style="fill:#ffffff;"/>
  </g>
  <g id="axes_1">
   <g id="patch_2">
    <path d="M 57.6 307.584 
L 414.72 307.584 
L 414.72 41.472 
L 57.6 41.472 
z
" style="fill:#7d9051;"/>
   </g>
   <g id="matplotlib.axis_1">
    <g id="xtick_1">
     <g id="line2d_1">
      <defs>
       <path d="M 0 0 
L 0 3.5 
" id="m96c5f5c72e" style="stroke:#000000;stroke-width:0.8;"/>
      </defs>
      <g>
       <use style="stroke:#000000;stroke-width:0.8;" x="103.249121" xlink:href="#m96c5f5c72e" y="307.584"/>
      </g>
     </g>
     <g id="text_1">
      <!-- 20 -->
      <g transform="translate(96.886621 322.182437)scale(0.1 -0.1)">
       <defs>
        <path d="M 19.1875 8.296875 
L 53.609375 8.296875 
L 53.609375 0 
L 7.328125 0 
L 7.328125 8.296875 
Q 12.9375 14.109375 22.625 23.890625 
Q 32.328125 33.6875 34.8125 36.53125 
Q 39.546875 41.84375 41.421875 45.53125 
Q 43.3125 49.21875 43.3125 52.78125 
Q 43.3125 58.59375 39.234375 62.25 
Q 35.15625 65.921875 28.609375 65.921875 
Q 23.96875 65.921875 18.8125 64.3125 
Q 13.671875 62.703125 7.8125 59.421875 
L 7.8125 69.390625 
Q 13.765625 71.78125 18.9375 73 
Q 24.125 74.21875 28.421875 74.21875 
Q 39.75 74.21875 46.484375 68.546875 
Q 53.21875 62.890625 53.21875 53.421875 
Q 53.21875 48.921875 51.53125 44.890625 
Q 49.859375 40.875 45.40625 35.40625 
Q 44.1875 33.984375 37.640625 27.21875 
Q 31.109375 20.453125 19.1875 8.296875 
z
" id="DejaVuSans-50"/>
        <path d="M 31.78125 66.40625 
Q 24.171875 66.40625 20.328125 58.90625 
Q 16.5 51.421875 16.5 36.375 
Q 16.5 21.390625 20.328125 13.890625 
Q 24.171875 6.390625 31.78125 6.390625 
Q 39.453125 6.390625 43.28125 13.890625 
Q 47.125 21.390625 47.125 36.375 
Q 47.125 51.421875 43.28125 58.90625 
Q 39.453125 66.40625 31.78125 66.40625 
z
M 31.78125 74.21875 
Q 44.046875 74.21875 50.515625 64.515625 
Q 56.984375 54.828125 56.984375 36.375 
Q 56.984375 17.96875 50.515625 8.265625 
Q 44.046875 -1.421875 31.78125 -1.421875 
Q 19.53125 -1.421875 13.0625 8.265625 
Q 6.59375 17.96875 6.59375 36.375 
Q 6.59375 54.828125 13.0625 64.515625 
Q 19.53125 74.21875 31.78125 74.21875 
z
" id="DejaVuSans-48"/>
       </defs>
       <use xlink:href="#DejaVuSans-50"/>
       <use x="63.623047" xlink:href="#DejaVuSans-48"/>
      </g>
     </g>
    </g>
    <g id="xtick_2">
     <g id="line2d_2">
      <g>
       <use style="stroke:#000000;stroke-width:0.8;" x="151.656039" xlink:href="#m96c5f5c72e" y="307.584"/>
      </g>
     </g>
     <g id="text_2">
      <!-- 40 -->
      <g transform="translate(145.293539 322.182437)scale(0.1 -0.1)">
       <defs>
        <path d="M 37.796875 64.3125 
L 12.890625 25.390625 
L 37.796875 25.390625 
z
M 35.203125 72.90625 
L 47.609375 72.90625 
L 47.609375 25.390625 
L 58.015625 25.390625 
L 58.015625 17.1875 
L 47.609375 17.1875 
L 47.609375 0 
L 37.796875 0 
L 37.796875 17.1875 
L 4.890625 17.1875 
L 4.890625 26.703125 
z
" id="DejaVuSans-52"/>
       </defs>
       <use xlink:href="#DejaVuSans-52"/>
       <use x="63.623047" xlink:href="#DejaVuSans-48"/>
      </g>
     </g>
    </g>
    <g id="xtick_3">
     <g id="line2d_3">
      <g>
       <use style="stroke:#000000;stroke-width:0.8;" x="200.062957" xlink:href="#m96c5f5c72e" y="307.584"/>
      </g>
     </g>
     <g id="text_3">
      <!-- 60 -->
      <g transform="translate(193.700457 322.182437)scale(0.1 -0.1)">
       <defs>
        <path d="M 33.015625 40.375 
Q 26.375 40.375 22.484375 35.828125 
Q 18.609375 31.296875 18.609375 23.390625 
Q 18.609375 15.53125 22.484375 10.953125 
Q 26.375 6.390625 33.015625 6.390625 
Q 39.65625 6.390625 43.53125 10.953125 
Q 47.40625 15.53125 47.40625 23.390625 
Q 47.40625 31.296875 43.53125 35.828125 
Q 39.65625 40.375 33.015625 40.375 
z
M 52.59375 71.296875 
L 52.59375 62.3125 
Q 48.875 64.0625 45.09375 64.984375 
Q 41.3125 65.921875 37.59375 65.921875 
Q 27.828125 65.921875 22.671875 59.328125 
Q 17.53125 52.734375 16.796875 39.40625 
Q 19.671875 43.65625 24.015625 45.921875 
Q 28.375 48.1875 33.59375 48.1875 
Q 44.578125 48.1875 50.953125 41.515625 
Q 57.328125 34.859375 57.328125 23.390625 
Q 57.328125 12.15625 50.6875 5.359375 
Q 44.046875 -1.421875 33.015625 -1.421875 
Q 20.359375 -1.421875 13.671875 8.265625 
Q 6.984375 17.96875 6.984375 36.375 
Q 6.984375 53.65625 15.1875 63.9375 
Q 23.390625 74.21875 37.203125 74.21875 
Q 40.921875 74.21875 44.703125 73.484375 
Q 48.484375 72.75 52.59375 71.296875 
z
" id="DejaVuSans-54"/>
       </defs>
       <use xlink:href="#DejaVuSans-54"/>
       <use x="63.623047" xlink:href="#DejaVuSans-48"/>
      </g>
     </g>
    </g>
    <g id="xtick_4">
     <g id="line2d_4">
      <g>
       <use style="stroke:#000000;stroke-width:0.8;" x="248.469876" xlink:href="#m96c5f5c72e" y="307.584"/>
      </g>
     </g>
     <g id="text_4">
      <!-- 80 -->
      <g transform="translate(242.107376 322.182437)scale(0.1 -0.1)">
       <defs>
        <path d="M 31.78125 34.625 
Q 24.75 34.625 20.71875 30.859375 
Q 16.703125 27.09375 16.703125 20.515625 
Q 16.703125 13.921875 20.71875 10.15625 
Q 24.75 6.390625 31.78125 6.390625 
Q 38.8125 6.390625 42.859375 10.171875 
Q 46.921875 13.96875 46.921875 20.515625 
Q 46.921875 27.09375 42.890625 30.859375 
Q 38.875 34.625 31.78125 34.625 
z
M 21.921875 38.8125 
Q 15.578125 40.375 12.03125 44.71875 
Q 8.5 49.078125 8.5 55.328125 
Q 8.5 64.0625 14.71875 69.140625 
Q 20.953125 74.21875 31.78125 74.21875 
Q 42.671875 74.21875 48.875 69.140625 
Q 55.078125 64.0625 55.078125 55.328125 
Q 55.078125 49.078125 51.53125 44.71875 
Q 48 40.375 41.703125 38.8125 
Q 48.828125 37.15625 52.796875 32.3125 
Q 56.78125 27.484375 56.78125 20.515625 
Q 56.78125 9.90625 50.3125 4.234375 
Q 43.84375 -1.421875 31.78125 -1.421875 
Q 19.734375 -1.421875 13.25 4.234375 
Q 6.78125 9.90625 6.78125 20.515625 
Q 6.78125 27.484375 10.78125 32.3125 
Q 14.796875 37.15625 21.921875 38.8125 
z
M 18.3125 54.390625 
Q 18.3125 48.734375 21.84375 45.5625 
Q 25.390625 42.390625 31.78125 42.390625 
Q 38.140625 42.390625 41.71875 45.5625 
Q 45.3125 48.734375 45.3125 54.390625 
Q 45.3125 60.0625 41.71875 63.234375 
Q 38.140625 66.40625 31.78125 66.40625 
Q 25.390625 66.40625 21.84375 63.234375 
Q 18.3125 60.0625 18.3125 54.390625 
z
" id="DejaVuSans-56"/>
       </defs>
       <use xlink:href="#DejaVuSans-56"/>
       <use x="63.623047" xlink:href="#DejaVuSans-48"/>
      </g>
     </g>
    </g>
    <g id="xtick_5">
     <g id="line2d_5">
      <g>
       <use style="stroke:#000000;stroke-width:0.8;" x="296.876794" xlink:href="#m96c5f5c72e" y="307.584"/>
      </g>
     </g>
     <g id="text_5">
      <!-- 100 -->
      <g transform="translate(287.333044 322.182437)scale(0.1 -0.1)">
       <defs>
        <path d="M 12.40625 8.296875 
L 28.515625 8.296875 
L 28.515625 63.921875 
L 10.984375 60.40625 
L 10.984375 69.390625 
L 28.421875 72.90625 
L 38.28125 72.90625 
L 38.28125 8.296875 
L 54.390625 8.296875 
L 54.390625 0 
L 12.40625 0 
z
" id="DejaVuSans-49"/>
       </defs>
       <use xlink:href="#DejaVuSans-49"/>
       <use x="63.623047" xlink:href="#DejaVuSans-48"/>
       <use x="127.246094" xlink:href="#DejaVuSans-48"/>
      </g>
     </g>
    </g>
    <g id="xtick_6">
     <g id="line2d_6">
      <g>
       <use style="stroke:#000000;stroke-width:0.8;" x="345.283713" xlink:href="#m96c5f5c72e" y="307.584"/>
      </g>
     </g>
     <g id="text_6">
      <!-- 120 -->
      <g transform="translate(335.739963 322.182437)scale(0.1 -0.1)">
       <use xlink:href="#DejaVuSans-49"/>
       <use x="63.623047" xlink:href="#DejaVuSans-50"/>
       <use x="127.246094" xlink:href="#DejaVuSans-48"/>
      </g>
     </g>
    </g>
    <g id="xtick_7">
     <g id="line2d_7">
      <g>
       <use style="stroke:#000000;stroke-width:0.8;" x="393.690631" xlink:href="#m96c5f5c72e" y="307.584"/>
      </g>
     </g>
     <g id="text_7">
      <!-- 140 -->
      <g transform="translate(384.146881 322.182437)scale(0.1 -0.1)">
       <use xlink:href="#DejaVuSans-49"/>
       <use x="63.623047" xlink:href="#DejaVuSans-52"/>
       <use x="127.246094" xlink:href="#DejaVuSans-48"/>
      </g>
     </g>
    </g>
   </g>
   <g id="matplotlib.axis_2">
    <g id="ytick_1">
     <g id="line2d_8">
      <defs>
       <path d="M 0 0 
L -3.5 0 
" id="mb22748d692" style="stroke:#000000;stroke-width:0.8;"/>
      </defs>
      <g>
       <use style="stroke:#000000;stroke-width:0.8;" x="57.6" xlink:href="#mb22748d692" y="303.282444"/>
      </g>
     </g>
     <g id="text_8">
      <!-- −20 -->
      <g transform="translate(29.495313 307.081663)scale(0.1 -0.1)">
       <defs>
        <path d="M 10.59375 35.5 
L 73.1875 35.5 
L 73.1875 27.203125 
L 10.59375 27.203125 
z
" id="DejaVuSans-8722"/>
       </defs>
       <use xlink:href="#DejaVuSans-8722"/>
       <use x="83.789062" xlink:href="#DejaVuSans-50"/>
       <use x="147.412109" xlink:href="#DejaVuSans-48"/>
      </g>
     </g>
    </g>
    <g id="ytick_2">
     <g id="line2d_9">
      <g>
       <use style="stroke:#000000;stroke-width:0.8;" x="57.6" xlink:href="#mb22748d692" y="254.875525"/>
      </g>
     </g>
     <g id="text_9">
      <!-- 0 -->
      <g transform="translate(44.2375 258.674744)scale(0.1 -0.1)">
       <use xlink:href="#DejaVuSans-48"/>
      </g>
     </g>
    </g>
    <g id="ytick_3">
     <g id="line2d_10">
      <g>
       <use style="stroke:#000000;stroke-width:0.8;" x="57.6" xlink:href="#mb22748d692" y="206.468607"/>
      </g>
     </g>
     <g id="text_10">
      <!-- 20 -->
      <g transform="translate(37.875 210.267826)scale(0.1 -0.1)">
       <use xlink:href="#DejaVuSans-50"/>
       <use x="63.623047" xlink:href="#DejaVuSans-48"/>
      </g>
     </g>
    </g>
    <g id="ytick_4">
     <g id="line2d_11">
      <g>
       <use style="stroke:#000000;stroke-width:0.8;" x="57.6" xlink:href="#mb22748d692" y="158.061688"/>
      </g>
     </g>
     <g id="text_11">
      <!-- 40 -->
      <g transform="translate(37.875 161.860907)scale(0.1 -0.1)">
       <use xlink:href="#DejaVuSans-52"/>
       <use x="63.623047" xlink:href="#DejaVuSans-48"/>
      </g>
     </g>
    </g>
    <g id="ytick_5">
     <g id="line2d_12">
      <g>
       <use style="stroke:#000000;stroke-width:0.8;" x="57.6" xlink:href="#mb22748d692" y="109.65477"/>
      </g>
     </g>
     <g id="text_12">
      <!-- 60 -->
      <g transform="translate(37.875 113.453989)scale(0.1 -0.1)">
       <use xlink:href="#DejaVuSans-54"/>
       <use x="63.623047" xlink:href="#DejaVuSans-48"/>
      </g>
     </g>
    </g>
    <g id="ytick_6">
     <g id="line2d_13">
      <g>
       <use style="stroke:#000000;stroke-width:0.8;" x="57.6" xlink:href="#mb22748d692" y="61.247852"/>
      </g>
     </g>
     <g id="text_13">
      <!-- 80 -->
      <g transform="translate(37.875 65.04707)scale(0.1 -0.1)">
       <use xlink:href="#DejaVuSans-56"/>
       <use x="63.623047" xlink:href="#DejaVuSans-48"/>
      </g>
     </g>
    </g>
   </g>
   <g id="line2d_14">
    <path clip-path="url(#pf6063316ab)" d="M 388.2981 230.672066 
L 388.632108 225.821693 
L 388.789431 220.97616 
L 388.78217 216.133048 
L 388.622427 211.297197 
L 388.116574 204.057942 
L 387.322701 196.840471 
L 386.277112 189.649623 
L 385.013691 182.49266 
L 383.542121 175.374423 
L 382.397297 170.671691 
L 381.075788 166.010104 
L 379.543709 161.406607 
L 377.762335 156.873299 
L 375.69778 152.439225 
L 373.330681 148.167314 
L 370.634416 144.113235 
L 369.158005 142.184219 
L 367.5872 140.332655 
L 365.926843 138.563382 
L 364.167252 136.883662 
L 362.320528 135.295915 
L 360.391512 133.800141 
L 358.387466 132.401181 
L 356.315649 131.096615 
L 354.183325 129.891282 
L 349.766193 127.77832 
L 345.19416 126.074397 
L 340.518052 124.777091 
L 335.769333 123.821055 
L 330.969787 123.131256 
L 323.71601 122.422095 
L 311.638484 121.596757 
L 304.391968 121.289373 
L 297.113988 121.1974 
L 292.239412 121.291793 
L 287.369676 121.570133 
L 282.536245 122.092928 
L 277.763323 122.918266 
L 273.087214 124.109076 
L 268.529703 125.704084 
L 264.10047 127.671825 
L 259.801935 129.956632 
L 255.63652 132.505256 
L 251.609065 135.26445 
L 247.719569 138.183387 
L 243.958351 141.245125 
L 240.31331 144.432721 
L 235.039376 149.416213 
L 229.95907 154.600594 
L 225.05787 159.96166 
L 220.338195 165.484889 
L 215.795206 171.163021 
L 205.356254 184.51849 
L 202.190442 188.168371 
L 198.862466 191.677873 
L 195.386849 195.049415 
L 189.962854 199.897368 
L 184.371855 204.549273 
L 178.679201 209.048696 
L 172.843747 213.352071 
L 168.840495 216.082221 
L 164.721066 218.679252 
L 160.466098 221.1117 
L 156.082852 223.299692 
L 151.571327 225.158518 
L 149.269578 225.933029 
L 146.938785 226.593783 
L 144.576527 227.123839 
L 142.187646 227.515935 
L 139.772141 227.76039 
L 137.337273 227.859624 
L 134.892723 227.813638 
L 132.448174 227.634532 
L 130.010885 227.319887 
L 127.588119 226.876964 
L 125.194397 226.310603 
L 122.83456 225.623225 
L 120.518289 224.82209 
L 118.255265 223.90962 
L 116.05033 222.890654 
L 111.807464 220.569542 
L 107.748544 217.931365 
L 103.832424 215.053574 
L 98.13977 210.445235 
L 86.892423 201.10028 
L 83.029551 198.217648 
L 79.045661 195.57463 
L 79.045661 195.57463 
" style="fill:none;stroke:#fea952;stroke-linecap:square;"/>
   </g>
   <g id="line2d_15">
    <path clip-path="url(#pf6063316ab)" d="M 378.645917 229.920699 
L 378.958835 225.425485 
L 379.108284 220.90846 
L 379.103816 216.375249 
L 378.829278 209.559759 
L 378.258106 202.705013 
L 377.420229 195.833025 
L 376.343687 188.943224 
L 375.066935 182.067923 
L 373.598966 175.381169 
L 372.474457 171.071157 
L 371.193757 166.875266 
L 369.728783 162.800738 
L 368.060918 158.872918 
L 366.17268 155.127973 
L 364.083525 151.645764 
L 361.775429 148.447346 
L 359.241853 145.566246 
L 356.388037 142.946715 
L 353.228842 140.593726 
L 349.811639 138.529428 
L 346.188815 136.774517 
L 342.417542 135.349071 
L 338.455812 134.236286 
L 334.279767 133.387161 
L 329.890077 132.752244 
L 322.972744 132.074905 
L 311.154052 131.266013 
L 304.159682 130.96797 
L 297.229464 130.878095 
L 290.455688 131.064848 
L 286.123984 131.407208 
L 281.960505 131.971938 
L 277.995816 132.795811 
L 274.186773 133.923916 
L 270.394376 135.417718 
L 266.61798 137.250937 
L 262.865809 139.391804 
L 259.169524 141.78442 
L 255.541078 144.384346 
L 252.004648 147.148643 
L 248.55327 150.061567 
L 243.51805 154.678399 
L 238.625809 159.547075 
L 233.889484 164.609033 
L 229.31998 169.835343 
L 224.908994 175.230322 
L 211.038291 192.78149 
L 207.500888 196.673513 
L 203.816 200.392333 
L 200.056574 203.907145 
L 194.303029 208.910315 
L 188.491698 213.660619 
L 182.503861 218.29612 
L 176.238051 222.782047 
L 171.88055 225.637181 
L 167.317894 228.378366 
L 162.473728 230.972828 
L 157.352449 233.297464 
L 154.658888 234.334364 
L 151.910091 235.247366 
L 149.058439 236.040278 
L 146.144588 236.677392 
L 143.162446 237.148118 
L 140.166383 237.433743 
L 137.15518 237.539295 
L 134.18529 237.46914 
L 131.208629 237.236236 
L 128.269818 236.84343 
L 125.359022 236.298233 
L 122.486905 235.605691 
L 119.669976 234.772793 
L 116.897891 233.80106 
L 114.193921 232.697945 
L 111.578007 231.477127 
L 109.084517 230.169284 
L 104.34927 227.314344 
L 99.950198 224.250261 
L 95.8187 221.066667 
L 90.014213 216.257317 
L 82.759722 210.184066 
L 79.272401 207.458596 
L 75.844035 205.017928 
L 73.832727 203.732725 
L 73.832727 203.732725 
" style="fill:none;stroke:#ffffff;stroke-linecap:square;"/>
   </g>
   <g id="line2d_16">
    <path clip-path="url(#pf6063316ab)" d="M 397.950283 231.423434 
L 398.305381 226.217901 
L 398.470578 221.043861 
L 398.460523 215.890847 
L 398.288605 210.754806 
L 397.752279 203.118582 
L 396.918227 195.553974 
L 395.825984 188.053307 
L 394.515523 180.636758 
L 392.966019 173.156465 
L 391.738661 168.128442 
L 390.300158 163.070683 
L 388.605105 157.99775 
L 386.606527 152.935094 
L 384.251035 147.903698 
L 381.506799 142.982694 
L 379.968704 140.574276 
L 378.322434 138.229055 
L 376.540581 135.921092 
L 374.646816 133.707625 
L 372.611833 131.560518 
L 370.478898 129.542524 
L 368.253018 127.645114 
L 365.933121 125.861642 
L 363.546089 124.208636 
L 361.07976 122.66854 
L 358.555011 121.253137 
L 355.979404 119.960467 
L 353.343572 118.782124 
L 350.678308 117.732144 
L 347.970778 116.799722 
L 342.580292 115.317897 
L 337.258898 114.254949 
L 332.049497 113.510268 
L 324.459277 112.769285 
L 312.122916 111.927501 
L 304.624255 111.610776 
L 296.998513 111.516705 
L 291.788041 111.620937 
L 286.464517 111.931156 
L 281.057585 112.52513 
L 275.568645 113.488919 
L 272.830518 114.134716 
L 270.086931 114.904322 
L 267.39868 115.79001 
L 264.766287 116.784112 
L 259.69776 119.049451 
L 254.861874 121.630469 
L 250.259621 124.454284 
L 245.882177 127.458558 
L 241.67872 130.617851 
L 237.644264 133.906086 
L 233.764345 137.302486 
L 228.203294 142.560765 
L 222.884985 147.991017 
L 217.767689 153.591224 
L 212.844787 159.354798 
L 208.13086 165.24804 
L 197.975561 178.253144 
L 195.097367 181.579177 
L 192.055534 184.79348 
L 188.832215 187.924392 
L 183.700579 192.514069 
L 178.301536 197.007362 
L 172.83321 201.331599 
L 167.315904 205.403981 
L 163.599859 207.941894 
L 159.819106 210.330601 
L 156.003177 212.520337 
L 152.219477 214.422558 
L 148.483766 215.982672 
L 144.819131 217.147289 
L 141.212846 217.883752 
L 139.377899 218.087037 
L 137.519365 218.179953 
L 133.687718 218.032828 
L 129.817216 217.455694 
L 125.999144 216.473656 
L 122.31661 215.121294 
L 118.722449 213.375624 
L 115.165591 211.254333 
L 111.601726 208.785506 
L 108.017161 206.02957 
L 102.528314 201.481863 
L 94.815386 195.032244 
L 90.673776 191.808504 
L 86.269903 188.701739 
L 84.258595 187.416535 
L 84.258595 187.416535 
" style="fill:none;stroke:#ffffff;stroke-linecap:square;"/>
   </g>
   <g id="patch_3">
    <path d="M 57.6 307.584 
L 57.6 41.472 
" style="fill:none;stroke:#000000;stroke-linecap:square;stroke-linejoin:miter;stroke-width:0.8;"/>
   </g>
   <g id="patch_4">
    <path d="M 414.72 307.584 
L 414.72 41.472 
" style="fill:none;stroke:#000000;stroke-linecap:square;stroke-linejoin:miter;stroke-width:0.8;"/>
   </g>
   <g id="patch_5">
    <path d="M 57.6 307.584 
L 414.72 307.584 
" style="fill:none;stroke:#000000;stroke-linecap:square;stroke-linejoin:miter;stroke-width:0.8;"/>
   </g>
   <g id="patch_6">
    <path d="M 57.6 41.472 
L 414.72 41.472 
" style="fill:none;stroke:#000000;stroke-linecap:square;stroke-linejoin:miter;stroke-width:0.8;"/>
   </g>
  </g>
 </g>
 <defs>
  <clipPath id="pf6063316ab">
   <rect height="266.112" width="357.12" x="57.6" y="41.472"/>
  </clipPath>
 </defs>
</svg>
