<?xml version="1.0" encoding="utf-8" standalone="no"?>
<!DOCTYPE svg PUBLIC "-//W3C//DTD SVG 1.1//EN"
  "http://www.w3.org/Graphics/SVG/1.1/DTD/svg11.dtd">
<!-- Created with matplotlib (https://matplotlib.org/) -->
<svg height="345.6pt" version="1.1" viewBox="0 0 460.8 345.6" width="460.8pt" xmlns="http://www.w3.org/2000/svg" xmlns:xlink="http://www.w3.org/1999/xlink">
 <metadata>
  <rdf:RDF xmlns:cc="http://creativecommons.org/ns#" xmlns:dc="http://purl.org/dc/elements/1.1/" xmlns:rdf="http://www.w3.org/1999/02/22-rdf-syntax-ns#">
   <cc:Work>
    <dc:type rdf:resource="http://purl.org/dc/dcmitype/StillImage"/>
    <dc:date>2021-01-25T14:07:41.178445</dc:date>
    <dc:format>image/svg+xml</dc:format>
    <dc:creator>
     <cc:Agent>
      <dc:title>Matplotlib v3.3.3, https://matplotlib.org/</dc:title>
     </cc:Agent>
    </dc:creator>
   </cc:Work>
  </rdf:RDF>
 </metadata>
 <defs>
  <style type="text/css">*{stroke-linecap:butt;stroke-linejoin:round;}</style>
 </defs>
 <g id="figure_1">
  <g id="patch_1">
   <path d="M 0 345.6 
L 460.8 345.6 
L 460.8 0 
L 0 0 
z
" style="fill:#ffffff;"/>
  </g>
  <g id="axes_1">
   <g id="patch_2">
    <path d="M 57.6 307.584 
L 414.72 307.584 
L 414.72 41.472 
L 57.6 41.472 
z
" style="fill:#7d9051;"/>
   </g>
   <g id="matplotlib.axis_1">
    <g id="xtick_1">
     <g id="line2d_1">
      <defs>
       <path d="M 0 0 
L 0 3.5 
" id="m332008bef7" style="stroke:#000000;stroke-width:0.8;"/>
      </defs>
      <g>
       <use style="stroke:#000000;stroke-width:0.8;" x="98.844974" xlink:href="#m332008bef7" y="307.584"/>
      </g>
     </g>
     <g id="text_1">
      <!-- 0 -->
      <g transform="translate(95.663724 322.182437)scale(0.1 -0.1)">
       <defs>
        <path d="M 31.78125 66.40625 
Q 24.171875 66.40625 20.328125 58.90625 
Q 16.5 51.421875 16.5 36.375 
Q 16.5 21.390625 20.328125 13.890625 
Q 24.171875 6.390625 31.78125 6.390625 
Q 39.453125 6.390625 43.28125 13.890625 
Q 47.125 21.390625 47.125 36.375 
Q 47.125 51.421875 43.28125 58.90625 
Q 39.453125 66.40625 31.78125 66.40625 
z
M 31.78125 74.21875 
Q 44.046875 74.21875 50.515625 64.515625 
Q 56.984375 54.828125 56.984375 36.375 
Q 56.984375 17.96875 50.515625 8.265625 
Q 44.046875 -1.421875 31.78125 -1.421875 
Q 19.53125 -1.421875 13.0625 8.265625 
Q 6.59375 17.96875 6.59375 36.375 
Q 6.59375 54.828125 13.0625 64.515625 
Q 19.53125 74.21875 31.78125 74.21875 
z
" id="DejaVuSans-48"/>
       </defs>
       <use xlink:href="#DejaVuSans-48"/>
      </g>
     </g>
    </g>
    <g id="xtick_2">
     <g id="line2d_2">
      <g>
       <use style="stroke:#000000;stroke-width:0.8;" x="162.703487" xlink:href="#m332008bef7" y="307.584"/>
      </g>
     </g>
     <g id="text_2">
      <!-- 20 -->
      <g transform="translate(156.340987 322.182437)scale(0.1 -0.1)">
       <defs>
        <path d="M 19.1875 8.296875 
L 53.609375 8.296875 
L 53.609375 0 
L 7.328125 0 
L 7.328125 8.296875 
Q 12.9375 14.109375 22.625 23.890625 
Q 32.328125 33.6875 34.8125 36.53125 
Q 39.546875 41.84375 41.421875 45.53125 
Q 43.3125 49.21875 43.3125 52.78125 
Q 43.3125 58.59375 39.234375 62.25 
Q 35.15625 65.921875 28.609375 65.921875 
Q 23.96875 65.921875 18.8125 64.3125 
Q 13.671875 62.703125 7.8125 59.421875 
L 7.8125 69.390625 
Q 13.765625 71.78125 18.9375 73 
Q 24.125 74.21875 28.421875 74.21875 
Q 39.75 74.21875 46.484375 68.546875 
Q 53.21875 62.890625 53.21875 53.421875 
Q 53.21875 48.921875 51.53125 44.890625 
Q 49.859375 40.875 45.40625 35.40625 
Q 44.1875 33.984375 37.640625 27.21875 
Q 31.109375 20.453125 19.1875 8.296875 
z
" id="DejaVuSans-50"/>
       </defs>
       <use xlink:href="#DejaVuSans-50"/>
       <use x="63.623047" xlink:href="#DejaVuSans-48"/>
      </g>
     </g>
    </g>
    <g id="xtick_3">
     <g id="line2d_3">
      <g>
       <use style="stroke:#000000;stroke-width:0.8;" x="226.562" xlink:href="#m332008bef7" y="307.584"/>
      </g>
     </g>
     <g id="text_3">
      <!-- 40 -->
      <g transform="translate(220.1995 322.182437)scale(0.1 -0.1)">
       <defs>
        <path d="M 37.796875 64.3125 
L 12.890625 25.390625 
L 37.796875 25.390625 
z
M 35.203125 72.90625 
L 47.609375 72.90625 
L 47.609375 25.390625 
L 58.015625 25.390625 
L 58.015625 17.1875 
L 47.609375 17.1875 
L 47.609375 0 
L 37.796875 0 
L 37.796875 17.1875 
L 4.890625 17.1875 
L 4.890625 26.703125 
z
" id="DejaVuSans-52"/>
       </defs>
       <use xlink:href="#DejaVuSans-52"/>
       <use x="63.623047" xlink:href="#DejaVuSans-48"/>
      </g>
     </g>
    </g>
    <g id="xtick_4">
     <g id="line2d_4">
      <g>
       <use style="stroke:#000000;stroke-width:0.8;" x="290.420514" xlink:href="#m332008bef7" y="307.584"/>
      </g>
     </g>
     <g id="text_4">
      <!-- 60 -->
      <g transform="translate(284.058014 322.182437)scale(0.1 -0.1)">
       <defs>
        <path d="M 33.015625 40.375 
Q 26.375 40.375 22.484375 35.828125 
Q 18.609375 31.296875 18.609375 23.390625 
Q 18.609375 15.53125 22.484375 10.953125 
Q 26.375 6.390625 33.015625 6.390625 
Q 39.65625 6.390625 43.53125 10.953125 
Q 47.40625 15.53125 47.40625 23.390625 
Q 47.40625 31.296875 43.53125 35.828125 
Q 39.65625 40.375 33.015625 40.375 
z
M 52.59375 71.296875 
L 52.59375 62.3125 
Q 48.875 64.0625 45.09375 64.984375 
Q 41.3125 65.921875 37.59375 65.921875 
Q 27.828125 65.921875 22.671875 59.328125 
Q 17.53125 52.734375 16.796875 39.40625 
Q 19.671875 43.65625 24.015625 45.921875 
Q 28.375 48.1875 33.59375 48.1875 
Q 44.578125 48.1875 50.953125 41.515625 
Q 57.328125 34.859375 57.328125 23.390625 
Q 57.328125 12.15625 50.6875 5.359375 
Q 44.046875 -1.421875 33.015625 -1.421875 
Q 20.359375 -1.421875 13.671875 8.265625 
Q 6.984375 17.96875 6.984375 36.375 
Q 6.984375 53.65625 15.1875 63.9375 
Q 23.390625 74.21875 37.203125 74.21875 
Q 40.921875 74.21875 44.703125 73.484375 
Q 48.484375 72.75 52.59375 71.296875 
z
" id="DejaVuSans-54"/>
       </defs>
       <use xlink:href="#DejaVuSans-54"/>
       <use x="63.623047" xlink:href="#DejaVuSans-48"/>
      </g>
     </g>
    </g>
    <g id="xtick_5">
     <g id="line2d_5">
      <g>
       <use style="stroke:#000000;stroke-width:0.8;" x="354.279027" xlink:href="#m332008bef7" y="307.584"/>
      </g>
     </g>
     <g id="text_5">
      <!-- 80 -->
      <g transform="translate(347.916527 322.182437)scale(0.1 -0.1)">
       <defs>
        <path d="M 31.78125 34.625 
Q 24.75 34.625 20.71875 30.859375 
Q 16.703125 27.09375 16.703125 20.515625 
Q 16.703125 13.921875 20.71875 10.15625 
Q 24.75 6.390625 31.78125 6.390625 
Q 38.8125 6.390625 42.859375 10.171875 
Q 46.921875 13.96875 46.921875 20.515625 
Q 46.921875 27.09375 42.890625 30.859375 
Q 38.875 34.625 31.78125 34.625 
z
M 21.921875 38.8125 
Q 15.578125 40.375 12.03125 44.71875 
Q 8.5 49.078125 8.5 55.328125 
Q 8.5 64.0625 14.71875 69.140625 
Q 20.953125 74.21875 31.78125 74.21875 
Q 42.671875 74.21875 48.875 69.140625 
Q 55.078125 64.0625 55.078125 55.328125 
Q 55.078125 49.078125 51.53125 44.71875 
Q 48 40.375 41.703125 38.8125 
Q 48.828125 37.15625 52.796875 32.3125 
Q 56.78125 27.484375 56.78125 20.515625 
Q 56.78125 9.90625 50.3125 4.234375 
Q 43.84375 -1.421875 31.78125 -1.421875 
Q 19.734375 -1.421875 13.25 4.234375 
Q 6.78125 9.90625 6.78125 20.515625 
Q 6.78125 27.484375 10.78125 32.3125 
Q 14.796875 37.15625 21.921875 38.8125 
z
M 18.3125 54.390625 
Q 18.3125 48.734375 21.84375 45.5625 
Q 25.390625 42.390625 31.78125 42.390625 
Q 38.140625 42.390625 41.71875 45.5625 
Q 45.3125 48.734375 45.3125 54.390625 
Q 45.3125 60.0625 41.71875 63.234375 
Q 38.140625 66.40625 31.78125 66.40625 
Q 25.390625 66.40625 21.84375 63.234375 
Q 18.3125 60.0625 18.3125 54.390625 
z
" id="DejaVuSans-56"/>
       </defs>
       <use xlink:href="#DejaVuSans-56"/>
       <use x="63.623047" xlink:href="#DejaVuSans-48"/>
      </g>
     </g>
    </g>
   </g>
   <g id="matplotlib.axis_2">
    <g id="ytick_1">
     <g id="line2d_6">
      <defs>
       <path d="M 0 0 
L -3.5 0 
" id="m9b9faecef6" style="stroke:#000000;stroke-width:0.8;"/>
      </defs>
      <g>
       <use style="stroke:#000000;stroke-width:0.8;" x="57.6" xlink:href="#m9b9faecef6" y="282.534524"/>
      </g>
     </g>
     <g id="text_6">
      <!-- 10 -->
      <g transform="translate(37.875 286.333742)scale(0.1 -0.1)">
       <defs>
        <path d="M 12.40625 8.296875 
L 28.515625 8.296875 
L 28.515625 63.921875 
L 10.984375 60.40625 
L 10.984375 69.390625 
L 28.421875 72.90625 
L 38.28125 72.90625 
L 38.28125 8.296875 
L 54.390625 8.296875 
L 54.390625 0 
L 12.40625 0 
z
" id="DejaVuSans-49"/>
       </defs>
       <use xlink:href="#DejaVuSans-49"/>
       <use x="63.623047" xlink:href="#DejaVuSans-48"/>
      </g>
     </g>
    </g>
    <g id="ytick_2">
     <g id="line2d_7">
      <g>
       <use style="stroke:#000000;stroke-width:0.8;" x="57.6" xlink:href="#m9b9faecef6" y="250.605267"/>
      </g>
     </g>
     <g id="text_7">
      <!-- 20 -->
      <g transform="translate(37.875 254.404486)scale(0.1 -0.1)">
       <use xlink:href="#DejaVuSans-50"/>
       <use x="63.623047" xlink:href="#DejaVuSans-48"/>
      </g>
     </g>
    </g>
    <g id="ytick_3">
     <g id="line2d_8">
      <g>
       <use style="stroke:#000000;stroke-width:0.8;" x="57.6" xlink:href="#m9b9faecef6" y="218.676011"/>
      </g>
     </g>
     <g id="text_8">
      <!-- 30 -->
      <g transform="translate(37.875 222.475229)scale(0.1 -0.1)">
       <defs>
        <path d="M 40.578125 39.3125 
Q 47.65625 37.796875 51.625 33 
Q 55.609375 28.21875 55.609375 21.1875 
Q 55.609375 10.40625 48.1875 4.484375 
Q 40.765625 -1.421875 27.09375 -1.421875 
Q 22.515625 -1.421875 17.65625 -0.515625 
Q 12.796875 0.390625 7.625 2.203125 
L 7.625 11.71875 
Q 11.71875 9.328125 16.59375 8.109375 
Q 21.484375 6.890625 26.8125 6.890625 
Q 36.078125 6.890625 40.9375 10.546875 
Q 45.796875 14.203125 45.796875 21.1875 
Q 45.796875 27.640625 41.28125 31.265625 
Q 36.765625 34.90625 28.71875 34.90625 
L 20.21875 34.90625 
L 20.21875 43.015625 
L 29.109375 43.015625 
Q 36.375 43.015625 40.234375 45.921875 
Q 44.09375 48.828125 44.09375 54.296875 
Q 44.09375 59.90625 40.109375 62.90625 
Q 36.140625 65.921875 28.71875 65.921875 
Q 24.65625 65.921875 20.015625 65.03125 
Q 15.375 64.15625 9.8125 62.3125 
L 9.8125 71.09375 
Q 15.4375 72.65625 20.34375 73.4375 
Q 25.25 74.21875 29.59375 74.21875 
Q 40.828125 74.21875 47.359375 69.109375 
Q 53.90625 64.015625 53.90625 55.328125 
Q 53.90625 49.265625 50.4375 45.09375 
Q 46.96875 40.921875 40.578125 39.3125 
z
" id="DejaVuSans-51"/>
       </defs>
       <use xlink:href="#DejaVuSans-51"/>
       <use x="63.623047" xlink:href="#DejaVuSans-48"/>
      </g>
     </g>
    </g>
    <g id="ytick_4">
     <g id="line2d_9">
      <g>
       <use style="stroke:#000000;stroke-width:0.8;" x="57.6" xlink:href="#m9b9faecef6" y="186.746754"/>
      </g>
     </g>
     <g id="text_9">
      <!-- 40 -->
      <g transform="translate(37.875 190.545973)scale(0.1 -0.1)">
       <use xlink:href="#DejaVuSans-52"/>
       <use x="63.623047" xlink:href="#DejaVuSans-48"/>
      </g>
     </g>
    </g>
    <g id="ytick_5">
     <g id="line2d_10">
      <g>
       <use style="stroke:#000000;stroke-width:0.8;" x="57.6" xlink:href="#m9b9faecef6" y="154.817497"/>
      </g>
     </g>
     <g id="text_10">
      <!-- 50 -->
      <g transform="translate(37.875 158.616716)scale(0.1 -0.1)">
       <defs>
        <path d="M 10.796875 72.90625 
L 49.515625 72.90625 
L 49.515625 64.59375 
L 19.828125 64.59375 
L 19.828125 46.734375 
Q 21.96875 47.46875 24.109375 47.828125 
Q 26.265625 48.1875 28.421875 48.1875 
Q 40.625 48.1875 47.75 41.5 
Q 54.890625 34.8125 54.890625 23.390625 
Q 54.890625 11.625 47.5625 5.09375 
Q 40.234375 -1.421875 26.90625 -1.421875 
Q 22.3125 -1.421875 17.546875 -0.640625 
Q 12.796875 0.140625 7.71875 1.703125 
L 7.71875 11.625 
Q 12.109375 9.234375 16.796875 8.0625 
Q 21.484375 6.890625 26.703125 6.890625 
Q 35.15625 6.890625 40.078125 11.328125 
Q 45.015625 15.765625 45.015625 23.390625 
Q 45.015625 31 40.078125 35.4375 
Q 35.15625 39.890625 26.703125 39.890625 
Q 22.75 39.890625 18.8125 39.015625 
Q 14.890625 38.140625 10.796875 36.28125 
z
" id="DejaVuSans-53"/>
       </defs>
       <use xlink:href="#DejaVuSans-53"/>
       <use x="63.623047" xlink:href="#DejaVuSans-48"/>
      </g>
     </g>
    </g>
    <g id="ytick_6">
     <g id="line2d_11">
      <g>
       <use style="stroke:#000000;stroke-width:0.8;" x="57.6" xlink:href="#m9b9faecef6" y="122.888241"/>
      </g>
     </g>
     <g id="text_11">
      <!-- 60 -->
      <g transform="translate(37.875 126.68746)scale(0.1 -0.1)">
       <use xlink:href="#DejaVuSans-54"/>
       <use x="63.623047" xlink:href="#DejaVuSans-48"/>
      </g>
     </g>
    </g>
    <g id="ytick_7">
     <g id="line2d_12">
      <g>
       <use style="stroke:#000000;stroke-width:0.8;" x="57.6" xlink:href="#m9b9faecef6" y="90.958984"/>
      </g>
     </g>
     <g id="text_12">
      <!-- 70 -->
      <g transform="translate(37.875 94.758203)scale(0.1 -0.1)">
       <defs>
        <path d="M 8.203125 72.90625 
L 55.078125 72.90625 
L 55.078125 68.703125 
L 28.609375 0 
L 18.3125 0 
L 43.21875 64.59375 
L 8.203125 64.59375 
z
" id="DejaVuSans-55"/>
       </defs>
       <use xlink:href="#DejaVuSans-55"/>
       <use x="63.623047" xlink:href="#DejaVuSans-48"/>
      </g>
     </g>
    </g>
    <g id="ytick_8">
     <g id="line2d_13">
      <g>
       <use style="stroke:#000000;stroke-width:0.8;" x="57.6" xlink:href="#m9b9faecef6" y="59.029728"/>
      </g>
     </g>
     <g id="text_13">
      <!-- 80 -->
      <g transform="translate(37.875 62.828946)scale(0.1 -0.1)">
       <use xlink:href="#DejaVuSans-56"/>
       <use x="63.623047" xlink:href="#DejaVuSans-48"/>
      </g>
     </g>
    </g>
   </g>
   <g id="line2d_14">
    <path clip-path="url(#p9aeb8e8856)" d="M 238.228951 195.358074 
L 236.348318 197.925187 
L 234.630524 200.616823 
L 233.078762 203.426598 
L 231.696225 206.341739 
L 230.482913 209.343089 
L 229.438826 212.424262 
L 228.570351 215.566101 
L 227.877486 218.76222 
L 227.363425 221.996653 
L 227.024975 225.25663 
L 226.868521 228.532572 
L 226.897258 231.805321 
L 227.107991 235.065298 
L 227.503913 238.296539 
L 228.091412 241.492657 
L 228.867293 244.637689 
L 229.834749 247.715669 
L 230.996974 250.71702 
L 232.353968 253.628968 
L 233.908922 256.435549 
L 235.658646 259.130379 
L 237.596751 261.700684 
L 239.704082 264.146465 
L 241.97106 266.461336 
L 244.381719 268.635718 
L 246.920094 270.669612 
L 249.576609 272.556631 
L 252.332103 274.29039 
L 255.177 275.864502 
L 258.098527 277.278968 
L 261.08072 278.521016 
L 264.113999 279.600225 
L 267.198365 280.513402 
L 270.321047 281.266932 
L 273.482043 281.860816 
L 276.671776 282.30144 
L 279.880666 282.582418 
L 283.108714 282.716521 
L 286.349533 282.697363 
L 289.590353 282.534524 
L 292.831172 282.22481 
L 296.056027 281.768222 
L 299.252146 281.158373 
L 302.409949 280.388878 
L 305.516666 279.462929 
L 308.559524 278.370949 
L 311.522559 277.109743 
L 314.396192 275.676119 
L 317.170845 274.066885 
L 319.827359 272.275654 
L 322.359349 270.302426 
L 324.760429 268.159972 
L 327.024213 265.857873 
L 329.144316 263.408899 
L 331.117544 260.832208 
L 332.937512 258.137379 
L 334.601026 255.337183 
L 336.101701 252.447585 
L 337.436344 249.478164 
L 338.598569 246.448078 
L 339.585183 243.363712 
L 340.396186 240.237838 
L 341.041157 237.076841 
L 341.523289 233.887108 
L 341.845774 230.681411 
L 342.014999 227.462942 
L 342.03735 224.24128 
L 341.912826 221.022811 
L 341.651006 217.813921 
L 341.25189 214.627381 
L 340.725057 211.466384 
L 340.076893 208.334124 
L 339.316977 205.227408 
L 337.484238 199.09699 
L 335.290698 193.07194 
L 332.806602 187.155448 
L 330.089422 181.337938 
L 327.167895 175.635373 
L 324.045214 170.050946 
L 320.711799 164.597429 
L 317.167652 159.290786 
L 313.406385 154.137404 
L 309.450351 149.130897 
L 305.337862 144.242528 
L 298.964783 137.074409 
L 277.4732 113.453145 
L 271.310854 106.099838 
L 263.213594 96.166646 
L 258.989353 91.374065 
L 254.512872 86.836917 
L 252.146914 84.694464 
L 249.681975 82.654185 
L 247.118056 80.722465 
L 244.467927 78.902497 
L 241.737976 77.194282 
L 238.931394 75.601012 
L 236.060954 74.129073 
L 233.129848 72.781658 
L 230.147656 71.561961 
L 227.120762 70.46998 
L 224.058747 69.512103 
L 220.964802 68.691521 
L 217.845313 68.001849 
L 214.700282 67.436701 
L 211.532899 66.996077 
L 205.153434 66.45328 
L 198.719689 66.335142 
L 192.263593 66.593769 
L 185.81069 67.213196 
L 179.424839 68.247704 
L 176.276614 68.946955 
L 173.17309 69.780308 
L 170.120654 70.754151 
L 167.132075 71.884446 
L 164.207355 73.174388 
L 161.362458 74.639941 
L 158.606964 76.284298 
L 155.940871 78.09788 
L 153.383337 80.074301 
L 150.934363 82.197596 
L 148.603528 84.46138 
L 146.400409 86.852882 
L 144.337779 89.359328 
L 142.415638 91.971142 
L 140.646757 94.678743 
L 139.037522 97.466167 
L 137.597513 100.330221 
L 136.31715 103.258134 
L 135.186854 106.243519 
L 134.20024 109.286377 
L 133.347729 112.373937 
L 132.622935 115.503004 
L 132.013086 118.667193 
L 131.109488 125.081781 
L 130.569883 131.560227 
L 130.324028 138.057831 
L 130.304871 144.526698 
L 130.541147 154.063967 
L 130.774231 160.245471 
L 130.774231 160.245471 
" style="fill:none;stroke:#fea952;stroke-linecap:square;"/>
   </g>
   <g id="line2d_15">
    <path clip-path="url(#p9aeb8e8856)" d="M 248.531781 202.905795 
L 247.114362 204.796043 
L 245.810546 206.791245 
L 244.618458 208.899422 
L 243.536999 211.128435 
L 242.579009 213.441973 
L 241.748882 215.827042 
L 241.05213 218.271941 
L 240.490875 220.766914 
L 240.066849 223.31552 
L 239.782137 225.865891 
L 239.639732 228.420435 
L 239.642359 230.981446 
L 239.784885 233.512003 
L 240.065167 235.987577 
L 240.49135 238.433586 
L 241.051313 240.808064 
L 241.744681 243.103738 
L 242.573393 245.322307 
L 243.525631 247.439434 
L 244.620753 249.480474 
L 245.856212 251.441034 
L 247.27232 253.364032 
L 248.828942 255.210396 
L 250.525283 256.977579 
L 252.36778 258.668813 
L 254.316243 260.257437 
L 256.378219 261.746706 
L 258.515413 263.11528 
L 260.742482 264.369207 
L 263.008928 265.488957 
L 265.361862 266.488219 
L 267.739701 267.353974 
L 270.194297 268.098057 
L 272.679318 268.714843 
L 275.229706 269.209253 
L 277.785831 269.578419 
L 280.410784 269.821722 
L 283.033217 269.945041 
L 285.708611 269.941752 
L 288.375342 269.820746 
L 291.040758 269.579226 
L 293.662256 269.222854 
L 296.228412 268.74977 
L 298.761961 268.149247 
L 301.202704 267.441859 
L 303.557558 266.619493 
L 305.821041 265.68131 
L 307.988588 264.628088 
L 310.030671 263.477536 
L 311.976621 262.201811 
L 313.856216 260.772834 
L 315.654008 259.205114 
L 317.368209 257.498568 
L 319.004366 255.643733 
L 320.53348 253.684203 
L 321.957249 251.614326 
L 323.266682 249.450839 
L 324.452568 247.211738 
L 325.511726 244.904338 
L 326.434052 242.556944 
L 327.222783 240.156307 
L 327.882319 237.684503 
L 328.412897 235.168065 
L 328.815724 232.608758 
L 329.091689 230.010809 
L 329.243604 227.37434 
L 329.275196 224.735054 
L 329.183424 222.061429 
L 328.978319 219.401181 
L 328.218322 214.054425 
L 327.025198 208.695628 
L 325.427774 203.311024 
L 323.461607 197.887434 
L 321.189693 192.462408 
L 318.67371 187.064884 
L 315.961032 181.760942 
L 313.085697 176.608794 
L 310.014849 171.575368 
L 306.770571 166.708138 
L 303.314692 161.965182 
L 299.622138 157.287037 
L 295.721438 152.647334 
L 289.541076 145.694742 
L 267.773498 121.761706 
L 261.376416 114.126253 
L 253.543661 104.509834 
L 249.743617 100.185009 
L 245.940153 96.303959 
L 244.003306 94.533064 
L 241.996614 92.854754 
L 239.887902 91.250583 
L 237.693248 89.729321 
L 235.43276 88.301065 
L 233.103711 86.965627 
L 230.72651 85.733386 
L 228.295048 84.602872 
L 225.813555 83.575784 
L 223.307664 82.659183 
L 220.784611 81.856997 
L 218.207747 81.162088 
L 212.940519 80.086587 
L 207.483939 79.412734 
L 201.903377 79.116366 
L 196.17536 79.17491 
L 190.428941 79.553896 
L 184.864115 80.246483 
L 179.588726 81.281715 
L 177.054972 81.947781 
L 174.638648 82.700033 
L 172.285991 83.570059 
L 170.056241 84.528107 
L 167.907262 85.607253 
L 165.790349 86.844381 
L 163.750455 88.203659 
L 161.749831 89.724076 
L 159.83258 91.359371 
L 157.996869 93.114792 
L 156.262173 94.968423 
L 154.624136 96.929484 
L 153.107829 98.956371 
L 151.707523 101.064339 
L 150.448131 103.203273 
L 149.29928 105.447352 
L 148.261433 107.780355 
L 147.335892 110.182714 
L 146.511279 112.685599 
L 145.790005 115.255974 
L 144.630538 120.646154 
L 143.823038 126.299169 
L 143.327412 132.161761 
L 143.095111 138.183654 
L 143.074952 144.323191 
L 143.304153 153.592717 
L 143.536478 159.754105 
L 143.536478 159.754105 
" style="fill:none;stroke:#ffffff;stroke-linecap:square;"/>
   </g>
   <g id="line2d_16">
    <path clip-path="url(#p9aeb8e8856)" d="M 227.926121 187.810354 
L 225.582273 191.05433 
L 223.450501 194.442401 
L 221.539066 197.953774 
L 219.855451 201.555043 
L 218.386817 205.244205 
L 217.12877 209.021482 
L 216.088571 212.860261 
L 215.264097 216.757525 
L 214.660001 220.677787 
L 214.267812 224.64737 
L 214.097311 228.64471 
L 214.152156 232.629196 
L 214.431096 236.618593 
L 214.94266 240.6055 
L 215.691473 244.551728 
L 216.683272 248.467314 
L 217.924817 252.327601 
L 219.420556 256.111732 
L 221.182304 259.818501 
L 223.197092 263.390624 
L 225.461079 266.819724 
L 227.921183 270.037336 
L 230.579223 273.082534 
L 233.416836 275.945093 
L 236.395657 278.602624 
L 239.523946 281.081787 
L 242.774998 283.366557 
L 246.148794 285.465499 
L 249.611519 287.359797 
L 253.188127 289.068979 
L 256.799577 290.553813 
L 260.488297 291.846477 
L 264.202433 292.928746 
L 267.962775 293.819022 
L 271.73438 294.51238 
L 275.55772 295.024461 
L 279.350548 295.343114 
L 283.18421 295.488 
L 286.990456 295.452974 
L 290.805364 295.248301 
L 294.621587 294.870394 
L 298.449799 294.313589 
L 302.27588 293.566975 
L 306.057938 292.628509 
L 309.830628 291.483999 
L 313.561491 290.122405 
L 317.224077 288.538176 
L 320.803796 286.724151 
L 324.311019 284.656234 
L 327.678096 282.349496 
L 330.862482 279.832017 
L 333.86685 277.11483 
L 336.680217 274.217178 
L 339.284266 271.174065 
L 341.701608 267.980213 
L 343.917775 264.660431 
L 345.935369 261.223527 
L 347.750834 257.683432 
L 349.360961 254.05199 
L 350.763085 250.339212 
L 351.947583 246.571117 
L 352.910053 242.791172 
L 353.669417 238.985617 
L 354.230854 235.165459 
L 354.599859 231.352013 
L 354.786395 227.551544 
L 354.799504 223.747506 
L 354.642227 219.984193 
L 354.323693 216.22666 
L 353.84982 212.527726 
L 353.231793 208.878344 
L 352.482855 205.299573 
L 351.608756 201.759188 
L 349.540701 194.882957 
L 347.119789 188.256445 
L 344.42351 181.848489 
L 341.505134 175.610992 
L 338.374758 169.509803 
L 335.004731 163.493097 
L 331.40875 157.61949 
L 327.564732 151.873435 
L 323.498079 146.309626 
L 319.278563 140.974757 
L 314.954287 135.837721 
L 308.38849 128.454077 
L 287.172902 105.144585 
L 281.245291 98.073423 
L 272.883527 87.823458 
L 268.23509 82.56312 
L 265.723874 79.939132 
L 263.085591 77.369876 
L 260.290521 74.855864 
L 257.367336 72.453615 
L 254.348209 70.194346 
L 251.242607 68.075673 
L 248.043192 66.087498 
L 244.759078 64.236396 
L 241.395399 62.52476 
L 237.964649 60.960445 
L 234.481757 59.548137 
L 230.93386 58.280777 
L 227.332883 57.167208 
L 223.721856 56.220954 
L 220.10415 55.431485 
L 216.460044 54.786815 
L 212.832748 54.290693 
L 209.215166 53.928064 
L 205.584836 53.688865 
L 198.378389 53.568 
L 191.219617 53.864805 
L 183.985112 54.57264 
L 180.34587 55.105858 
L 176.655606 55.779836 
L 172.964503 56.612195 
L 169.291209 57.612836 
L 165.602659 58.808268 
L 161.978159 60.198834 
L 158.35847 61.82067 
L 154.817655 63.672629 
L 151.423578 65.724215 
L 148.131286 67.9921 
L 145.016843 70.424525 
L 142.036146 73.035821 
L 139.210186 75.807969 
L 136.538645 78.737341 
L 134.051422 81.789173 
L 131.723446 84.985913 
L 129.585991 88.293146 
L 127.626913 91.72906 
L 125.895745 95.21309 
L 124.372866 98.735913 
L 123.037816 102.304324 
L 121.889201 105.887156 
L 120.905452 109.491899 
L 120.082034 113.085938 
L 119.395634 116.688232 
L 118.838718 120.279177 
L 118.060021 127.413397 
L 117.65011 134.446585 
L 117.520496 141.349181 
L 117.671225 151.342954 
L 118.011984 160.736837 
L 118.011984 160.736837 
" style="fill:none;stroke:#ffffff;stroke-linecap:square;"/>
   </g>
   <g id="patch_3">
    <path d="M 57.6 307.584 
L 57.6 41.472 
" style="fill:none;stroke:#000000;stroke-linecap:square;stroke-linejoin:miter;stroke-width:0.8;"/>
   </g>
   <g id="patch_4">
    <path d="M 414.72 307.584 
L 414.72 41.472 
" style="fill:none;stroke:#000000;stroke-linecap:square;stroke-linejoin:miter;stroke-width:0.8;"/>
   </g>
   <g id="patch_5">
    <path d="M 57.6 307.584 
L 414.72 307.584 
" style="fill:none;stroke:#000000;stroke-linecap:square;stroke-linejoin:miter;stroke-width:0.8;"/>
   </g>
   <g id="patch_6">
    <path d="M 57.6 41.472 
L 414.72 41.472 
" style="fill:none;stroke:#000000;stroke-linecap:square;stroke-linejoin:miter;stroke-width:0.8;"/>
   </g>
  </g>
 </g>
 <defs>
  <clipPath id="p9aeb8e8856">
   <rect height="266.112" width="357.12" x="57.6" y="41.472"/>
  </clipPath>
 </defs>
</svg>
