<?xml version="1.0" encoding="utf-8" standalone="no"?>
<!DOCTYPE svg PUBLIC "-//W3C//DTD SVG 1.1//EN"
  "http://www.w3.org/Graphics/SVG/1.1/DTD/svg11.dtd">
<!-- Created with matplotlib (https://matplotlib.org/) -->
<svg height="345.6pt" version="1.1" viewBox="0 0 460.8 345.6" width="460.8pt" xmlns="http://www.w3.org/2000/svg" xmlns:xlink="http://www.w3.org/1999/xlink">
 <metadata>
  <rdf:RDF xmlns:cc="http://creativecommons.org/ns#" xmlns:dc="http://purl.org/dc/elements/1.1/" xmlns:rdf="http://www.w3.org/1999/02/22-rdf-syntax-ns#">
   <cc:Work>
    <dc:type rdf:resource="http://purl.org/dc/dcmitype/StillImage"/>
    <dc:date>2021-01-22T09:49:43.255050</dc:date>
    <dc:format>image/svg+xml</dc:format>
    <dc:creator>
     <cc:Agent>
      <dc:title>Matplotlib v3.3.3, https://matplotlib.org/</dc:title>
     </cc:Agent>
    </dc:creator>
   </cc:Work>
  </rdf:RDF>
 </metadata>
 <defs>
  <style type="text/css">*{stroke-linecap:butt;stroke-linejoin:round;}</style>
 </defs>
 <g id="figure_1">
  <g id="patch_1">
   <path d="M 0 345.6 
L 460.8 345.6 
L 460.8 0 
L 0 0 
z
" style="fill:#ffffff;"/>
  </g>
  <g id="axes_1">
   <g id="patch_2">
    <path d="M 57.6 307.584 
L 414.72 307.584 
L 414.72 41.472 
L 57.6 41.472 
z
" style="fill:#7d9051;"/>
   </g>
   <g id="matplotlib.axis_1">
    <g id="xtick_1">
     <g id="line2d_1">
      <defs>
       <path d="M 0 0 
L 0 3.5 
" id="m476179ab22" style="stroke:#000000;stroke-width:0.8;"/>
      </defs>
      <g>
       <use style="stroke:#000000;stroke-width:0.8;" x="87.417539" xlink:href="#m476179ab22" y="307.584"/>
      </g>
     </g>
     <g id="text_1">
      <!-- −20 -->
      <g transform="translate(76.865196 322.182437)scale(0.1 -0.1)">
       <defs>
        <path d="M 10.59375 35.5 
L 73.1875 35.5 
L 73.1875 27.203125 
L 10.59375 27.203125 
z
" id="DejaVuSans-8722"/>
        <path d="M 19.1875 8.296875 
L 53.609375 8.296875 
L 53.609375 0 
L 7.328125 0 
L 7.328125 8.296875 
Q 12.9375 14.109375 22.625 23.890625 
Q 32.328125 33.6875 34.8125 36.53125 
Q 39.546875 41.84375 41.421875 45.53125 
Q 43.3125 49.21875 43.3125 52.78125 
Q 43.3125 58.59375 39.234375 62.25 
Q 35.15625 65.921875 28.609375 65.921875 
Q 23.96875 65.921875 18.8125 64.3125 
Q 13.671875 62.703125 7.8125 59.421875 
L 7.8125 69.390625 
Q 13.765625 71.78125 18.9375 73 
Q 24.125 74.21875 28.421875 74.21875 
Q 39.75 74.21875 46.484375 68.546875 
Q 53.21875 62.890625 53.21875 53.421875 
Q 53.21875 48.921875 51.53125 44.890625 
Q 49.859375 40.875 45.40625 35.40625 
Q 44.1875 33.984375 37.640625 27.21875 
Q 31.109375 20.453125 19.1875 8.296875 
z
" id="DejaVuSans-50"/>
        <path d="M 31.78125 66.40625 
Q 24.171875 66.40625 20.328125 58.90625 
Q 16.5 51.421875 16.5 36.375 
Q 16.5 21.390625 20.328125 13.890625 
Q 24.171875 6.390625 31.78125 6.390625 
Q 39.453125 6.390625 43.28125 13.890625 
Q 47.125 21.390625 47.125 36.375 
Q 47.125 51.421875 43.28125 58.90625 
Q 39.453125 66.40625 31.78125 66.40625 
z
M 31.78125 74.21875 
Q 44.046875 74.21875 50.515625 64.515625 
Q 56.984375 54.828125 56.984375 36.375 
Q 56.984375 17.96875 50.515625 8.265625 
Q 44.046875 -1.421875 31.78125 -1.421875 
Q 19.53125 -1.421875 13.0625 8.265625 
Q 6.59375 17.96875 6.59375 36.375 
Q 6.59375 54.828125 13.0625 64.515625 
Q 19.53125 74.21875 31.78125 74.21875 
z
" id="DejaVuSans-48"/>
       </defs>
       <use xlink:href="#DejaVuSans-8722"/>
       <use x="83.789062" xlink:href="#DejaVuSans-50"/>
       <use x="147.412109" xlink:href="#DejaVuSans-48"/>
      </g>
     </g>
    </g>
    <g id="xtick_2">
     <g id="line2d_2">
      <g>
       <use style="stroke:#000000;stroke-width:0.8;" x="137.601353" xlink:href="#m476179ab22" y="307.584"/>
      </g>
     </g>
     <g id="text_2">
      <!-- 0 -->
      <g transform="translate(134.420103 322.182437)scale(0.1 -0.1)">
       <use xlink:href="#DejaVuSans-48"/>
      </g>
     </g>
    </g>
    <g id="xtick_3">
     <g id="line2d_3">
      <g>
       <use style="stroke:#000000;stroke-width:0.8;" x="187.785166" xlink:href="#m476179ab22" y="307.584"/>
      </g>
     </g>
     <g id="text_3">
      <!-- 20 -->
      <g transform="translate(181.422666 322.182437)scale(0.1 -0.1)">
       <use xlink:href="#DejaVuSans-50"/>
       <use x="63.623047" xlink:href="#DejaVuSans-48"/>
      </g>
     </g>
    </g>
    <g id="xtick_4">
     <g id="line2d_4">
      <g>
       <use style="stroke:#000000;stroke-width:0.8;" x="237.968979" xlink:href="#m476179ab22" y="307.584"/>
      </g>
     </g>
     <g id="text_4">
      <!-- 40 -->
      <g transform="translate(231.606479 322.182437)scale(0.1 -0.1)">
       <defs>
        <path d="M 37.796875 64.3125 
L 12.890625 25.390625 
L 37.796875 25.390625 
z
M 35.203125 72.90625 
L 47.609375 72.90625 
L 47.609375 25.390625 
L 58.015625 25.390625 
L 58.015625 17.1875 
L 47.609375 17.1875 
L 47.609375 0 
L 37.796875 0 
L 37.796875 17.1875 
L 4.890625 17.1875 
L 4.890625 26.703125 
z
" id="DejaVuSans-52"/>
       </defs>
       <use xlink:href="#DejaVuSans-52"/>
       <use x="63.623047" xlink:href="#DejaVuSans-48"/>
      </g>
     </g>
    </g>
    <g id="xtick_5">
     <g id="line2d_5">
      <g>
       <use style="stroke:#000000;stroke-width:0.8;" x="288.152792" xlink:href="#m476179ab22" y="307.584"/>
      </g>
     </g>
     <g id="text_5">
      <!-- 60 -->
      <g transform="translate(281.790292 322.182437)scale(0.1 -0.1)">
       <defs>
        <path d="M 33.015625 40.375 
Q 26.375 40.375 22.484375 35.828125 
Q 18.609375 31.296875 18.609375 23.390625 
Q 18.609375 15.53125 22.484375 10.953125 
Q 26.375 6.390625 33.015625 6.390625 
Q 39.65625 6.390625 43.53125 10.953125 
Q 47.40625 15.53125 47.40625 23.390625 
Q 47.40625 31.296875 43.53125 35.828125 
Q 39.65625 40.375 33.015625 40.375 
z
M 52.59375 71.296875 
L 52.59375 62.3125 
Q 48.875 64.0625 45.09375 64.984375 
Q 41.3125 65.921875 37.59375 65.921875 
Q 27.828125 65.921875 22.671875 59.328125 
Q 17.53125 52.734375 16.796875 39.40625 
Q 19.671875 43.65625 24.015625 45.921875 
Q 28.375 48.1875 33.59375 48.1875 
Q 44.578125 48.1875 50.953125 41.515625 
Q 57.328125 34.859375 57.328125 23.390625 
Q 57.328125 12.15625 50.6875 5.359375 
Q 44.046875 -1.421875 33.015625 -1.421875 
Q 20.359375 -1.421875 13.671875 8.265625 
Q 6.984375 17.96875 6.984375 36.375 
Q 6.984375 53.65625 15.1875 63.9375 
Q 23.390625 74.21875 37.203125 74.21875 
Q 40.921875 74.21875 44.703125 73.484375 
Q 48.484375 72.75 52.59375 71.296875 
z
" id="DejaVuSans-54"/>
       </defs>
       <use xlink:href="#DejaVuSans-54"/>
       <use x="63.623047" xlink:href="#DejaVuSans-48"/>
      </g>
     </g>
    </g>
    <g id="xtick_6">
     <g id="line2d_6">
      <g>
       <use style="stroke:#000000;stroke-width:0.8;" x="338.336605" xlink:href="#m476179ab22" y="307.584"/>
      </g>
     </g>
     <g id="text_6">
      <!-- 80 -->
      <g transform="translate(331.974105 322.182437)scale(0.1 -0.1)">
       <defs>
        <path d="M 31.78125 34.625 
Q 24.75 34.625 20.71875 30.859375 
Q 16.703125 27.09375 16.703125 20.515625 
Q 16.703125 13.921875 20.71875 10.15625 
Q 24.75 6.390625 31.78125 6.390625 
Q 38.8125 6.390625 42.859375 10.171875 
Q 46.921875 13.96875 46.921875 20.515625 
Q 46.921875 27.09375 42.890625 30.859375 
Q 38.875 34.625 31.78125 34.625 
z
M 21.921875 38.8125 
Q 15.578125 40.375 12.03125 44.71875 
Q 8.5 49.078125 8.5 55.328125 
Q 8.5 64.0625 14.71875 69.140625 
Q 20.953125 74.21875 31.78125 74.21875 
Q 42.671875 74.21875 48.875 69.140625 
Q 55.078125 64.0625 55.078125 55.328125 
Q 55.078125 49.078125 51.53125 44.71875 
Q 48 40.375 41.703125 38.8125 
Q 48.828125 37.15625 52.796875 32.3125 
Q 56.78125 27.484375 56.78125 20.515625 
Q 56.78125 9.90625 50.3125 4.234375 
Q 43.84375 -1.421875 31.78125 -1.421875 
Q 19.734375 -1.421875 13.25 4.234375 
Q 6.78125 9.90625 6.78125 20.515625 
Q 6.78125 27.484375 10.78125 32.3125 
Q 14.796875 37.15625 21.921875 38.8125 
z
M 18.3125 54.390625 
Q 18.3125 48.734375 21.84375 45.5625 
Q 25.390625 42.390625 31.78125 42.390625 
Q 38.140625 42.390625 41.71875 45.5625 
Q 45.3125 48.734375 45.3125 54.390625 
Q 45.3125 60.0625 41.71875 63.234375 
Q 38.140625 66.40625 31.78125 66.40625 
Q 25.390625 66.40625 21.84375 63.234375 
Q 18.3125 60.0625 18.3125 54.390625 
z
" id="DejaVuSans-56"/>
       </defs>
       <use xlink:href="#DejaVuSans-56"/>
       <use x="63.623047" xlink:href="#DejaVuSans-48"/>
      </g>
     </g>
    </g>
    <g id="xtick_7">
     <g id="line2d_7">
      <g>
       <use style="stroke:#000000;stroke-width:0.8;" x="388.520418" xlink:href="#m476179ab22" y="307.584"/>
      </g>
     </g>
     <g id="text_7">
      <!-- 100 -->
      <g transform="translate(378.976668 322.182437)scale(0.1 -0.1)">
       <defs>
        <path d="M 12.40625 8.296875 
L 28.515625 8.296875 
L 28.515625 63.921875 
L 10.984375 60.40625 
L 10.984375 69.390625 
L 28.421875 72.90625 
L 38.28125 72.90625 
L 38.28125 8.296875 
L 54.390625 8.296875 
L 54.390625 0 
L 12.40625 0 
z
" id="DejaVuSans-49"/>
       </defs>
       <use xlink:href="#DejaVuSans-49"/>
       <use x="63.623047" xlink:href="#DejaVuSans-48"/>
       <use x="127.246094" xlink:href="#DejaVuSans-48"/>
      </g>
     </g>
    </g>
   </g>
   <g id="matplotlib.axis_2">
    <g id="ytick_1">
     <g id="line2d_8">
      <defs>
       <path d="M 0 0 
L -3.5 0 
" id="m226296b10c" style="stroke:#000000;stroke-width:0.8;"/>
      </defs>
      <g>
       <use style="stroke:#000000;stroke-width:0.8;" x="57.6" xlink:href="#m226296b10c" y="260.306243"/>
      </g>
     </g>
     <g id="text_8">
      <!-- 20 -->
      <g transform="translate(37.875 264.105462)scale(0.1 -0.1)">
       <use xlink:href="#DejaVuSans-50"/>
       <use x="63.623047" xlink:href="#DejaVuSans-48"/>
      </g>
     </g>
    </g>
    <g id="ytick_2">
     <g id="line2d_9">
      <g>
       <use style="stroke:#000000;stroke-width:0.8;" x="57.6" xlink:href="#m226296b10c" y="210.12243"/>
      </g>
     </g>
     <g id="text_9">
      <!-- 40 -->
      <g transform="translate(37.875 213.921649)scale(0.1 -0.1)">
       <use xlink:href="#DejaVuSans-52"/>
       <use x="63.623047" xlink:href="#DejaVuSans-48"/>
      </g>
     </g>
    </g>
    <g id="ytick_3">
     <g id="line2d_10">
      <g>
       <use style="stroke:#000000;stroke-width:0.8;" x="57.6" xlink:href="#m226296b10c" y="159.938617"/>
      </g>
     </g>
     <g id="text_10">
      <!-- 60 -->
      <g transform="translate(37.875 163.737836)scale(0.1 -0.1)">
       <use xlink:href="#DejaVuSans-54"/>
       <use x="63.623047" xlink:href="#DejaVuSans-48"/>
      </g>
     </g>
    </g>
    <g id="ytick_4">
     <g id="line2d_11">
      <g>
       <use style="stroke:#000000;stroke-width:0.8;" x="57.6" xlink:href="#m226296b10c" y="109.754804"/>
      </g>
     </g>
     <g id="text_11">
      <!-- 80 -->
      <g transform="translate(37.875 113.554023)scale(0.1 -0.1)">
       <use xlink:href="#DejaVuSans-56"/>
       <use x="63.623047" xlink:href="#DejaVuSans-48"/>
      </g>
     </g>
    </g>
    <g id="ytick_5">
     <g id="line2d_12">
      <g>
       <use style="stroke:#000000;stroke-width:0.8;" x="57.6" xlink:href="#m226296b10c" y="59.570991"/>
      </g>
     </g>
     <g id="text_12">
      <!-- 100 -->
      <g transform="translate(31.5125 63.370209)scale(0.1 -0.1)">
       <use xlink:href="#DejaVuSans-49"/>
       <use x="63.623047" xlink:href="#DejaVuSans-48"/>
       <use x="127.246094" xlink:href="#DejaVuSans-48"/>
      </g>
     </g>
    </g>
   </g>
   <g id="line2d_13">
    <path clip-path="url(#p71df2f2eab)" d="M 308.790885 148.730062 
L 309.330361 143.691607 
L 309.593826 138.658171 
L 309.591317 133.632262 
L 309.327852 128.623918 
L 308.810959 123.638156 
L 308.045655 118.682504 
L 307.036961 113.767 
L 305.794911 108.896661 
L 304.322017 104.079015 
L 302.628313 99.31908 
L 300.706273 94.63693 
L 298.525786 90.072712 
L 296.039178 85.686647 
L 294.666651 83.573908 
L 293.203793 81.526409 
L 291.640567 79.551676 
L 289.974464 77.652219 
L 288.200467 75.835564 
L 286.326101 74.11426 
L 284.353877 72.493323 
L 282.296341 70.980281 
L 280.156001 69.58768 
L 277.942895 68.320538 
L 275.662041 67.186384 
L 273.323475 66.197763 
L 270.932216 65.359694 
L 268.493283 64.682212 
L 266.019221 64.172846 
L 263.515049 63.824069 
L 260.988294 63.63337 
L 258.451502 63.595732 
L 255.909692 63.703628 
L 253.3729 63.952038 
L 250.848654 64.335944 
L 248.349501 64.850328 
L 245.880457 65.487662 
L 243.45156 66.242929 
L 241.067829 67.113618 
L 238.734282 68.087184 
L 234.21272 70.335419 
L 229.891894 72.937449 
L 225.769294 75.845601 
L 221.849938 79.0122 
L 218.128808 82.387061 
L 214.560739 85.917493 
L 209.384279 91.387528 
L 200.812884 100.546074 
L 193.774604 107.687231 
L 177.708256 123.65572 
L 174.40867 127.442089 
L 171.387605 131.446757 
L 170.00755 133.551968 
L 168.725353 135.732455 
L 167.553561 137.985708 
L 166.492174 140.299182 
L 165.548718 142.667858 
L 164.730722 145.081699 
L 164.040695 147.533178 
L 163.486163 150.014768 
L 163.074656 152.51894 
L 162.808682 155.033149 
L 162.693259 157.554886 
L 162.733406 160.071604 
L 162.924105 162.583304 
L 163.255318 165.082458 
L 163.717009 167.564047 
L 164.299141 170.028073 
L 165.79211 174.880847 
L 167.663966 179.608162 
L 169.841943 184.174889 
L 172.248257 188.593574 
L 176.117429 195.049722 
L 181.341564 203.598534 
L 185.007492 210.15505 
L 188.399917 216.872153 
L 191.52386 223.744826 
L 194.404411 230.758014 
L 197.272416 237.768693 
L 199.362571 242.33291 
L 201.716192 246.731522 
L 203.028499 248.849279 
L 204.446192 250.901797 
L 207.570134 254.813625 
L 211.030308 258.479552 
L 214.756456 261.914634 
L 218.685849 265.126398 
L 222.755756 268.132409 
L 226.933558 270.935175 
L 231.221765 273.537205 
L 235.627904 275.935992 
L 240.151975 278.136552 
L 244.801505 280.133868 
L 249.563949 281.900338 
L 254.416724 283.375742 
L 259.329719 284.499859 
L 261.803781 284.913876 
L 264.282861 285.214979 
L 266.764451 285.39815 
L 269.24855 285.455861 
L 271.72763 285.380585 
L 274.199183 285.167304 
L 276.660699 284.803472 
L 279.109669 284.284069 
L 281.543584 283.601569 
L 283.957425 282.748444 
L 286.348684 281.719676 
L 288.714851 280.502719 
L 291.050907 279.092554 
L 291.050907 279.092554 
" style="fill:none;stroke:#fea952;stroke-linecap:square;"/>
   </g>
   <g id="line2d_14">
    <path clip-path="url(#p71df2f2eab)" d="M 298.826228 147.529142 
L 299.315258 143.032588 
L 299.557908 138.527964 
L 299.562194 134.023789 
L 299.331897 129.528074 
L 298.87327 125.044906 
L 298.190135 120.581274 
L 297.28301 116.132809 
L 296.16265 111.717323 
L 294.829619 107.339534 
L 293.295072 103.010586 
L 291.581106 98.816396 
L 289.701238 94.854339 
L 287.622549 91.154457 
L 285.334308 87.756001 
L 282.793596 84.664475 
L 279.953269 81.868201 
L 276.82261 79.393061 
L 273.474103 77.307557 
L 271.753906 76.431009 
L 270.003842 75.66965 
L 268.245939 75.030294 
L 266.469341 74.51279 
L 264.63468 74.113654 
L 262.759706 73.832368 
L 260.839397 73.669028 
L 258.877161 73.623465 
L 256.887842 73.692613 
L 252.87204 74.166636 
L 248.860639 75.07177 
L 244.932366 76.376553 
L 241.107774 78.053335 
L 237.369108 80.092137 
L 233.728358 82.459597 
L 230.212852 85.106786 
L 226.804873 88.02388 
L 223.454323 91.202852 
L 218.441473 96.387255 
L 206.236074 109.371514 
L 199.029744 116.610651 
L 185.175995 130.361649 
L 182.294831 133.650557 
L 179.781543 136.949339 
L 177.629976 140.363255 
L 175.816514 144.013114 
L 174.392057 147.801113 
L 173.390094 151.642268 
L 172.834948 155.492063 
L 172.728745 157.394798 
L 172.741365 159.311759 
L 172.873868 161.264661 
L 173.484875 165.256364 
L 174.522814 169.316442 
L 175.948619 173.398259 
L 177.713384 177.454956 
L 179.780278 181.499903 
L 182.115797 185.594249 
L 192.650041 203.183958 
L 196.325661 210.221827 
L 199.706074 217.409254 
L 202.780303 224.676703 
L 206.448251 233.701674 
L 208.299017 237.763825 
L 210.247731 241.444798 
L 212.422116 244.809077 
L 214.998999 248.064656 
L 217.95122 251.210606 
L 221.212022 254.229436 
L 224.736482 257.1185 
L 228.438049 259.859069 
L 232.234069 262.412195 
L 236.123314 264.7787 
L 240.120491 266.960845 
L 244.220886 268.961555 
L 248.4211 270.772504 
L 252.639465 272.346396 
L 256.839266 273.635727 
L 260.986264 274.600745 
L 265.021684 275.205446 
L 268.94393 275.423722 
L 272.73161 275.238415 
L 274.57832 274.985106 
L 276.399762 274.620063 
L 278.199031 274.138453 
L 279.990911 273.528717 
L 281.758177 272.794216 
L 283.527924 271.910141 
L 285.86398 270.499976 
L 285.86398 270.499976 
" style="fill:none;stroke:#ffffff;stroke-linecap:square;"/>
   </g>
   <g id="line2d_15">
    <path clip-path="url(#p71df2f2eab)" d="M 318.755542 149.930982 
L 319.345465 144.350627 
L 319.629744 138.788377 
L 319.62044 133.240735 
L 319.323806 127.719761 
L 318.748647 122.231405 
L 317.901176 116.783734 
L 316.790911 111.40119 
L 315.427173 106.075998 
L 313.814415 100.818495 
L 311.961554 95.627574 
L 309.83144 90.457464 
L 307.350334 85.291085 
L 305.958426 82.737822 
L 304.455808 80.218837 
L 302.833224 77.739212 
L 301.073277 75.296817 
L 299.185968 72.933253 
L 297.155332 70.639962 
L 294.989273 68.443088 
L 292.698934 66.360318 
L 290.299936 64.407471 
L 287.770072 62.567501 
L 285.143073 60.877587 
L 282.411688 59.33352 
L 279.570176 57.94176 
L 276.643108 56.725876 
L 273.618494 55.689093 
L 270.517226 54.851634 
L 267.403762 54.232039 
L 264.270392 53.815769 
L 261.137191 53.597712 
L 258.025843 53.568 
L 254.931542 53.714642 
L 251.863788 54.029377 
L 248.825269 54.505251 
L 245.840937 55.132112 
L 242.900275 55.903555 
L 240.008024 56.81538 
L 237.203293 57.850683 
L 234.458258 59.006863 
L 231.789044 60.273918 
L 229.200871 61.63956 
L 224.246485 64.638898 
L 219.583824 67.94139 
L 215.202438 71.492403 
L 211.137843 75.185464 
L 207.339413 78.946907 
L 202.011924 84.576876 
L 193.606118 93.560436 
L 186.707719 100.560117 
L 170.240517 116.949791 
L 166.52251 121.233621 
L 164.722718 123.533543 
L 162.993667 125.944175 
L 161.355753 128.464433 
L 159.820731 131.101655 
L 158.431056 133.800437 
L 157.167834 136.58525 
L 156.042937 139.446564 
L 155.069387 142.362285 
L 154.245507 145.344365 
L 153.582232 148.387268 
L 153.093588 151.463059 
L 152.782416 154.574236 
L 152.657773 157.714973 
L 152.725447 160.831449 
L 152.974342 163.901947 
L 153.387875 166.918261 
L 153.949143 169.87173 
L 154.645937 172.77621 
L 155.46556 175.622588 
L 156.394803 178.406075 
L 158.540839 183.79208 
L 160.973277 188.874183 
L 163.576169 193.646444 
L 167.578172 200.323969 
L 172.650211 208.618193 
L 176.114252 214.807671 
L 179.320967 221.151084 
L 182.281157 227.657504 
L 185.084138 234.48214 
L 188.09658 241.835712 
L 190.426126 246.901996 
L 191.73986 249.45605 
L 193.184653 252.018245 
L 194.770177 254.553376 
L 196.470267 256.994516 
L 198.257917 259.319394 
L 200.141269 261.562593 
L 204.109396 265.748499 
L 208.30089 269.599832 
L 212.635215 273.134297 
L 217.073462 276.405748 
L 221.633048 279.458155 
L 226.320216 282.295711 
L 231.135316 284.911139 
L 236.083063 287.311549 
L 241.18191 289.495232 
L 246.488433 291.45428 
L 251.994181 293.115757 
L 257.673173 294.398974 
L 260.593634 294.877417 
L 263.544038 295.224511 
L 266.531336 295.432205 
L 269.553169 295.488 
L 272.59054 295.380185 
L 275.666755 295.096193 
L 278.743078 294.621837 
L 281.819576 293.948075 
L 284.888136 293.064686 
L 287.923939 291.968172 
L 290.939191 290.645137 
L 293.901777 289.095297 
L 296.237834 287.685132 
L 296.237834 287.685132 
" style="fill:none;stroke:#ffffff;stroke-linecap:square;"/>
   </g>
   <g id="patch_3">
    <path d="M 57.6 307.584 
L 57.6 41.472 
" style="fill:none;stroke:#000000;stroke-linecap:square;stroke-linejoin:miter;stroke-width:0.8;"/>
   </g>
   <g id="patch_4">
    <path d="M 414.72 307.584 
L 414.72 41.472 
" style="fill:none;stroke:#000000;stroke-linecap:square;stroke-linejoin:miter;stroke-width:0.8;"/>
   </g>
   <g id="patch_5">
    <path d="M 57.6 307.584 
L 414.72 307.584 
" style="fill:none;stroke:#000000;stroke-linecap:square;stroke-linejoin:miter;stroke-width:0.8;"/>
   </g>
   <g id="patch_6">
    <path d="M 57.6 41.472 
L 414.72 41.472 
" style="fill:none;stroke:#000000;stroke-linecap:square;stroke-linejoin:miter;stroke-width:0.8;"/>
   </g>
  </g>
 </g>
 <defs>
  <clipPath id="p71df2f2eab">
   <rect height="266.112" width="357.12" x="57.6" y="41.472"/>
  </clipPath>
 </defs>
</svg>
