<?xml version="1.0" encoding="utf-8" standalone="no"?>
<!DOCTYPE svg PUBLIC "-//W3C//DTD SVG 1.1//EN"
  "http://www.w3.org/Graphics/SVG/1.1/DTD/svg11.dtd">
<!-- Created with matplotlib (https://matplotlib.org/) -->
<svg height="345.6pt" version="1.1" viewBox="0 0 460.8 345.6" width="460.8pt" xmlns="http://www.w3.org/2000/svg" xmlns:xlink="http://www.w3.org/1999/xlink">
 <metadata>
  <rdf:RDF xmlns:cc="http://creativecommons.org/ns#" xmlns:dc="http://purl.org/dc/elements/1.1/" xmlns:rdf="http://www.w3.org/1999/02/22-rdf-syntax-ns#">
   <cc:Work>
    <dc:type rdf:resource="http://purl.org/dc/dcmitype/StillImage"/>
    <dc:date>2021-01-23T11:52:06.921678</dc:date>
    <dc:format>image/svg+xml</dc:format>
    <dc:creator>
     <cc:Agent>
      <dc:title>Matplotlib v3.3.3, https://matplotlib.org/</dc:title>
     </cc:Agent>
    </dc:creator>
   </cc:Work>
  </rdf:RDF>
 </metadata>
 <defs>
  <style type="text/css">*{stroke-linecap:butt;stroke-linejoin:round;}</style>
 </defs>
 <g id="figure_1">
  <g id="patch_1">
   <path d="M 0 345.6 
L 460.8 345.6 
L 460.8 0 
L 0 0 
z
" style="fill:#ffffff;"/>
  </g>
  <g id="axes_1">
   <g id="patch_2">
    <path d="M 57.6 307.584 
L 414.72 307.584 
L 414.72 41.472 
L 57.6 41.472 
z
" style="fill:#7d9051;"/>
   </g>
   <g id="matplotlib.axis_1">
    <g id="xtick_1">
     <g id="line2d_1">
      <defs>
       <path d="M 0 0 
L 0 3.5 
" id="mf672b758ed" style="stroke:#000000;stroke-width:0.8;"/>
      </defs>
      <g>
       <use style="stroke:#000000;stroke-width:0.8;" x="61.079075" xlink:href="#mf672b758ed" y="307.584"/>
      </g>
     </g>
     <g id="text_1">
      <!-- 0 -->
      <g transform="translate(57.897825 322.182437)scale(0.1 -0.1)">
       <defs>
        <path d="M 31.78125 66.40625 
Q 24.171875 66.40625 20.328125 58.90625 
Q 16.5 51.421875 16.5 36.375 
Q 16.5 21.390625 20.328125 13.890625 
Q 24.171875 6.390625 31.78125 6.390625 
Q 39.453125 6.390625 43.28125 13.890625 
Q 47.125 21.390625 47.125 36.375 
Q 47.125 51.421875 43.28125 58.90625 
Q 39.453125 66.40625 31.78125 66.40625 
z
M 31.78125 74.21875 
Q 44.046875 74.21875 50.515625 64.515625 
Q 56.984375 54.828125 56.984375 36.375 
Q 56.984375 17.96875 50.515625 8.265625 
Q 44.046875 -1.421875 31.78125 -1.421875 
Q 19.53125 -1.421875 13.0625 8.265625 
Q 6.59375 17.96875 6.59375 36.375 
Q 6.59375 54.828125 13.0625 64.515625 
Q 19.53125 74.21875 31.78125 74.21875 
z
" id="DejaVuSans-48"/>
       </defs>
       <use xlink:href="#DejaVuSans-48"/>
      </g>
     </g>
    </g>
    <g id="xtick_2">
     <g id="line2d_2">
      <g>
       <use style="stroke:#000000;stroke-width:0.8;" x="108.644351" xlink:href="#mf672b758ed" y="307.584"/>
      </g>
     </g>
     <g id="text_2">
      <!-- 20 -->
      <g transform="translate(102.281851 322.182437)scale(0.1 -0.1)">
       <defs>
        <path d="M 19.1875 8.296875 
L 53.609375 8.296875 
L 53.609375 0 
L 7.328125 0 
L 7.328125 8.296875 
Q 12.9375 14.109375 22.625 23.890625 
Q 32.328125 33.6875 34.8125 36.53125 
Q 39.546875 41.84375 41.421875 45.53125 
Q 43.3125 49.21875 43.3125 52.78125 
Q 43.3125 58.59375 39.234375 62.25 
Q 35.15625 65.921875 28.609375 65.921875 
Q 23.96875 65.921875 18.8125 64.3125 
Q 13.671875 62.703125 7.8125 59.421875 
L 7.8125 69.390625 
Q 13.765625 71.78125 18.9375 73 
Q 24.125 74.21875 28.421875 74.21875 
Q 39.75 74.21875 46.484375 68.546875 
Q 53.21875 62.890625 53.21875 53.421875 
Q 53.21875 48.921875 51.53125 44.890625 
Q 49.859375 40.875 45.40625 35.40625 
Q 44.1875 33.984375 37.640625 27.21875 
Q 31.109375 20.453125 19.1875 8.296875 
z
" id="DejaVuSans-50"/>
       </defs>
       <use xlink:href="#DejaVuSans-50"/>
       <use x="63.623047" xlink:href="#DejaVuSans-48"/>
      </g>
     </g>
    </g>
    <g id="xtick_3">
     <g id="line2d_3">
      <g>
       <use style="stroke:#000000;stroke-width:0.8;" x="156.209627" xlink:href="#mf672b758ed" y="307.584"/>
      </g>
     </g>
     <g id="text_3">
      <!-- 40 -->
      <g transform="translate(149.847127 322.182437)scale(0.1 -0.1)">
       <defs>
        <path d="M 37.796875 64.3125 
L 12.890625 25.390625 
L 37.796875 25.390625 
z
M 35.203125 72.90625 
L 47.609375 72.90625 
L 47.609375 25.390625 
L 58.015625 25.390625 
L 58.015625 17.1875 
L 47.609375 17.1875 
L 47.609375 0 
L 37.796875 0 
L 37.796875 17.1875 
L 4.890625 17.1875 
L 4.890625 26.703125 
z
" id="DejaVuSans-52"/>
       </defs>
       <use xlink:href="#DejaVuSans-52"/>
       <use x="63.623047" xlink:href="#DejaVuSans-48"/>
      </g>
     </g>
    </g>
    <g id="xtick_4">
     <g id="line2d_4">
      <g>
       <use style="stroke:#000000;stroke-width:0.8;" x="203.774903" xlink:href="#mf672b758ed" y="307.584"/>
      </g>
     </g>
     <g id="text_4">
      <!-- 60 -->
      <g transform="translate(197.412403 322.182437)scale(0.1 -0.1)">
       <defs>
        <path d="M 33.015625 40.375 
Q 26.375 40.375 22.484375 35.828125 
Q 18.609375 31.296875 18.609375 23.390625 
Q 18.609375 15.53125 22.484375 10.953125 
Q 26.375 6.390625 33.015625 6.390625 
Q 39.65625 6.390625 43.53125 10.953125 
Q 47.40625 15.53125 47.40625 23.390625 
Q 47.40625 31.296875 43.53125 35.828125 
Q 39.65625 40.375 33.015625 40.375 
z
M 52.59375 71.296875 
L 52.59375 62.3125 
Q 48.875 64.0625 45.09375 64.984375 
Q 41.3125 65.921875 37.59375 65.921875 
Q 27.828125 65.921875 22.671875 59.328125 
Q 17.53125 52.734375 16.796875 39.40625 
Q 19.671875 43.65625 24.015625 45.921875 
Q 28.375 48.1875 33.59375 48.1875 
Q 44.578125 48.1875 50.953125 41.515625 
Q 57.328125 34.859375 57.328125 23.390625 
Q 57.328125 12.15625 50.6875 5.359375 
Q 44.046875 -1.421875 33.015625 -1.421875 
Q 20.359375 -1.421875 13.671875 8.265625 
Q 6.984375 17.96875 6.984375 36.375 
Q 6.984375 53.65625 15.1875 63.9375 
Q 23.390625 74.21875 37.203125 74.21875 
Q 40.921875 74.21875 44.703125 73.484375 
Q 48.484375 72.75 52.59375 71.296875 
z
" id="DejaVuSans-54"/>
       </defs>
       <use xlink:href="#DejaVuSans-54"/>
       <use x="63.623047" xlink:href="#DejaVuSans-48"/>
      </g>
     </g>
    </g>
    <g id="xtick_5">
     <g id="line2d_5">
      <g>
       <use style="stroke:#000000;stroke-width:0.8;" x="251.340179" xlink:href="#mf672b758ed" y="307.584"/>
      </g>
     </g>
     <g id="text_5">
      <!-- 80 -->
      <g transform="translate(244.977679 322.182437)scale(0.1 -0.1)">
       <defs>
        <path d="M 31.78125 34.625 
Q 24.75 34.625 20.71875 30.859375 
Q 16.703125 27.09375 16.703125 20.515625 
Q 16.703125 13.921875 20.71875 10.15625 
Q 24.75 6.390625 31.78125 6.390625 
Q 38.8125 6.390625 42.859375 10.171875 
Q 46.921875 13.96875 46.921875 20.515625 
Q 46.921875 27.09375 42.890625 30.859375 
Q 38.875 34.625 31.78125 34.625 
z
M 21.921875 38.8125 
Q 15.578125 40.375 12.03125 44.71875 
Q 8.5 49.078125 8.5 55.328125 
Q 8.5 64.0625 14.71875 69.140625 
Q 20.953125 74.21875 31.78125 74.21875 
Q 42.671875 74.21875 48.875 69.140625 
Q 55.078125 64.0625 55.078125 55.328125 
Q 55.078125 49.078125 51.53125 44.71875 
Q 48 40.375 41.703125 38.8125 
Q 48.828125 37.15625 52.796875 32.3125 
Q 56.78125 27.484375 56.78125 20.515625 
Q 56.78125 9.90625 50.3125 4.234375 
Q 43.84375 -1.421875 31.78125 -1.421875 
Q 19.734375 -1.421875 13.25 4.234375 
Q 6.78125 9.90625 6.78125 20.515625 
Q 6.78125 27.484375 10.78125 32.3125 
Q 14.796875 37.15625 21.921875 38.8125 
z
M 18.3125 54.390625 
Q 18.3125 48.734375 21.84375 45.5625 
Q 25.390625 42.390625 31.78125 42.390625 
Q 38.140625 42.390625 41.71875 45.5625 
Q 45.3125 48.734375 45.3125 54.390625 
Q 45.3125 60.0625 41.71875 63.234375 
Q 38.140625 66.40625 31.78125 66.40625 
Q 25.390625 66.40625 21.84375 63.234375 
Q 18.3125 60.0625 18.3125 54.390625 
z
" id="DejaVuSans-56"/>
       </defs>
       <use xlink:href="#DejaVuSans-56"/>
       <use x="63.623047" xlink:href="#DejaVuSans-48"/>
      </g>
     </g>
    </g>
    <g id="xtick_6">
     <g id="line2d_6">
      <g>
       <use style="stroke:#000000;stroke-width:0.8;" x="298.905455" xlink:href="#mf672b758ed" y="307.584"/>
      </g>
     </g>
     <g id="text_6">
      <!-- 100 -->
      <g transform="translate(289.361705 322.182437)scale(0.1 -0.1)">
       <defs>
        <path d="M 12.40625 8.296875 
L 28.515625 8.296875 
L 28.515625 63.921875 
L 10.984375 60.40625 
L 10.984375 69.390625 
L 28.421875 72.90625 
L 38.28125 72.90625 
L 38.28125 8.296875 
L 54.390625 8.296875 
L 54.390625 0 
L 12.40625 0 
z
" id="DejaVuSans-49"/>
       </defs>
       <use xlink:href="#DejaVuSans-49"/>
       <use x="63.623047" xlink:href="#DejaVuSans-48"/>
       <use x="127.246094" xlink:href="#DejaVuSans-48"/>
      </g>
     </g>
    </g>
    <g id="xtick_7">
     <g id="line2d_7">
      <g>
       <use style="stroke:#000000;stroke-width:0.8;" x="346.470731" xlink:href="#mf672b758ed" y="307.584"/>
      </g>
     </g>
     <g id="text_7">
      <!-- 120 -->
      <g transform="translate(336.926981 322.182437)scale(0.1 -0.1)">
       <use xlink:href="#DejaVuSans-49"/>
       <use x="63.623047" xlink:href="#DejaVuSans-50"/>
       <use x="127.246094" xlink:href="#DejaVuSans-48"/>
      </g>
     </g>
    </g>
    <g id="xtick_8">
     <g id="line2d_8">
      <g>
       <use style="stroke:#000000;stroke-width:0.8;" x="394.036007" xlink:href="#mf672b758ed" y="307.584"/>
      </g>
     </g>
     <g id="text_8">
      <!-- 140 -->
      <g transform="translate(384.492257 322.182437)scale(0.1 -0.1)">
       <use xlink:href="#DejaVuSans-49"/>
       <use x="63.623047" xlink:href="#DejaVuSans-52"/>
       <use x="127.246094" xlink:href="#DejaVuSans-48"/>
      </g>
     </g>
    </g>
   </g>
   <g id="matplotlib.axis_2">
    <g id="ytick_1">
     <g id="line2d_9">
      <defs>
       <path d="M 0 0 
L -3.5 0 
" id="m2f3ec09a1b" style="stroke:#000000;stroke-width:0.8;"/>
      </defs>
      <g>
       <use style="stroke:#000000;stroke-width:0.8;" x="57.6" xlink:href="#m2f3ec09a1b" y="280.563854"/>
      </g>
     </g>
     <g id="text_9">
      <!-- 0 -->
      <g transform="translate(44.2375 284.363073)scale(0.1 -0.1)">
       <use xlink:href="#DejaVuSans-48"/>
      </g>
     </g>
    </g>
    <g id="ytick_2">
     <g id="line2d_10">
      <g>
       <use style="stroke:#000000;stroke-width:0.8;" x="57.6" xlink:href="#m2f3ec09a1b" y="232.998578"/>
      </g>
     </g>
     <g id="text_10">
      <!-- 20 -->
      <g transform="translate(37.875 236.797797)scale(0.1 -0.1)">
       <use xlink:href="#DejaVuSans-50"/>
       <use x="63.623047" xlink:href="#DejaVuSans-48"/>
      </g>
     </g>
    </g>
    <g id="ytick_3">
     <g id="line2d_11">
      <g>
       <use style="stroke:#000000;stroke-width:0.8;" x="57.6" xlink:href="#m2f3ec09a1b" y="185.433302"/>
      </g>
     </g>
     <g id="text_11">
      <!-- 40 -->
      <g transform="translate(37.875 189.232521)scale(0.1 -0.1)">
       <use xlink:href="#DejaVuSans-52"/>
       <use x="63.623047" xlink:href="#DejaVuSans-48"/>
      </g>
     </g>
    </g>
    <g id="ytick_4">
     <g id="line2d_12">
      <g>
       <use style="stroke:#000000;stroke-width:0.8;" x="57.6" xlink:href="#m2f3ec09a1b" y="137.868026"/>
      </g>
     </g>
     <g id="text_12">
      <!-- 60 -->
      <g transform="translate(37.875 141.667245)scale(0.1 -0.1)">
       <use xlink:href="#DejaVuSans-54"/>
       <use x="63.623047" xlink:href="#DejaVuSans-48"/>
      </g>
     </g>
    </g>
    <g id="ytick_5">
     <g id="line2d_13">
      <g>
       <use style="stroke:#000000;stroke-width:0.8;" x="57.6" xlink:href="#m2f3ec09a1b" y="90.30275"/>
      </g>
     </g>
     <g id="text_13">
      <!-- 80 -->
      <g transform="translate(37.875 94.101969)scale(0.1 -0.1)">
       <use xlink:href="#DejaVuSans-56"/>
       <use x="63.623047" xlink:href="#DejaVuSans-48"/>
      </g>
     </g>
    </g>
    <g id="ytick_6">
     <g id="line2d_14">
      <g>
       <use style="stroke:#000000;stroke-width:0.8;" x="57.6" xlink:href="#m2f3ec09a1b" y="42.737474"/>
      </g>
     </g>
     <g id="text_14">
      <!-- 100 -->
      <g transform="translate(31.5125 46.536693)scale(0.1 -0.1)">
       <use xlink:href="#DejaVuSans-49"/>
       <use x="63.623047" xlink:href="#DejaVuSans-48"/>
       <use x="127.246094" xlink:href="#DejaVuSans-48"/>
      </g>
     </g>
    </g>
   </g>
   <g id="line2d_15">
    <path clip-path="url(#p449741115b)" d="M 84.861713 170.488293 
L 84.279038 168.052951 
L 83.841438 165.6295 
L 83.544155 163.215562 
L 83.377676 160.813516 
L 83.339624 158.42336 
L 83.425241 156.045097 
L 83.938946 151.340891 
L 84.880739 146.705655 
L 86.203054 142.148901 
L 87.86546 137.6849 
L 89.822771 133.320786 
L 92.032178 129.066072 
L 94.450872 124.93265 
L 97.045558 120.930032 
L 99.818614 117.065353 
L 102.784309 113.348127 
L 105.954534 109.785487 
L 109.34356 106.389327 
L 112.958521 103.181049 
L 116.794661 100.232002 
L 120.840088 97.627803 
L 122.937716 96.48148 
L 125.085288 95.451692 
L 127.278048 94.555086 
L 129.518372 93.794042 
L 131.801505 93.182828 
L 134.122691 92.71431 
L 136.474794 92.376596 
L 138.853058 92.164931 
L 143.65715 92.076935 
L 148.487404 92.381353 
L 153.286741 93.009215 
L 158.014729 93.903442 
L 162.652343 95.064035 
L 167.190071 96.510019 
L 171.61602 98.255665 
L 175.918299 100.317619 
L 180.082639 102.705396 
L 184.059096 105.414239 
L 187.79297 108.43939 
L 191.227183 111.771338 
L 192.815863 113.547901 
L 194.307035 115.39819 
L 195.700697 117.319827 
L 198.209765 121.353363 
L 200.397768 125.591429 
L 202.32654 129.976947 
L 204.05316 134.455218 
L 206.398128 141.230891 
L 209.447062 150.230242 
L 211.10709 154.677595 
L 212.962136 159.072626 
L 215.074034 163.386797 
L 217.473702 167.565406 
L 220.173032 171.539485 
L 223.18867 175.240064 
L 224.820159 176.966683 
L 226.534887 178.60055 
L 228.337611 180.136909 
L 232.168994 182.928991 
L 236.247717 185.402385 
L 240.504809 187.616549 
L 244.878436 189.626181 
L 251.511414 192.384967 
L 262.596501 196.658707 
L 271.438886 200.126216 
L 278.012407 202.930189 
L 282.333713 204.937444 
L 286.58367 207.082638 
L 290.743253 209.382419 
L 294.80295 211.848678 
L 300.748609 215.784705 
L 320.383555 229.267082 
L 326.452884 233.015226 
L 332.664909 236.501761 
L 339.01963 239.719552 
L 345.486129 242.742325 
L 356.40236 247.555931 
L 363.01869 250.290934 
L 367.4708 251.96761 
L 371.965719 253.47543 
L 376.515337 254.771583 
L 381.126791 255.808506 
L 385.807214 256.545768 
L 390.56612 256.938182 
L 395.413021 256.94056 
L 397.872146 256.781216 
L 397.872146 256.781216 
" style="fill:none;stroke:#fea952;stroke-linecap:square;"/>
   </g>
   <g id="line2d_16">
    <path clip-path="url(#p449741115b)" d="M 75.609783 172.701889 
L 74.917378 169.743378 
L 74.399712 166.792274 
L 74.053865 163.873305 
L 73.865826 160.964948 
L 73.832727 158.081112 
L 73.946918 155.232942 
L 74.197204 152.432964 
L 74.577659 149.648401 
L 75.080409 146.91751 
L 75.694138 144.234907 
L 77.232861 138.981272 
L 79.126487 133.9261 
L 81.321606 129.051312 
L 83.768468 124.353396 
L 86.411067 119.847402 
L 89.25216 115.474653 
L 92.302808 111.233468 
L 95.591015 107.122796 
L 99.124679 103.163456 
L 102.913657 99.378295 
L 107.015763 95.752601 
L 111.465921 92.351472 
L 113.826103 90.767327 
L 116.278111 89.279954 
L 118.824519 87.903611 
L 121.484821 86.646304 
L 124.218169 85.547569 
L 127.058277 84.604583 
L 129.919308 83.857832 
L 132.770677 83.29782 
L 135.631465 82.900995 
L 138.466054 82.659751 
L 141.285533 82.554441 
L 146.848793 82.70255 
L 152.269679 83.246518 
L 157.566334 84.102404 
L 162.799535 85.257005 
L 167.969436 86.735072 
L 173.055418 88.555377 
L 178.052126 90.743874 
L 182.913727 93.310491 
L 187.605907 96.264902 
L 189.891077 97.898508 
L 192.102101 99.62484 
L 194.25998 101.462572 
L 196.329122 103.394027 
L 198.318442 105.430024 
L 200.2229 107.578477 
L 202.007997 109.813086 
L 203.66552 112.117922 
L 205.185858 114.462714 
L 207.867042 119.234566 
L 210.151791 124.060172 
L 212.119767 128.870601 
L 214.657671 135.943321 
L 219.142895 149.059007 
L 220.724785 153.076684 
L 222.465101 156.933235 
L 224.400179 160.613942 
L 226.542377 164.076926 
L 228.873311 167.248546 
L 231.382556 170.079509 
L 234.117027 172.580681 
L 237.253547 174.888745 
L 240.760669 177.027931 
L 244.566303 179.014079 
L 248.628086 180.883279 
L 255.005154 183.536691 
L 266.002537 187.776301 
L 275.078178 191.336804 
L 281.952514 194.271449 
L 286.542417 196.40603 
L 291.094943 198.707279 
L 295.599817 201.202443 
L 299.947206 203.846501 
L 306.15859 207.959724 
L 325.479188 221.233855 
L 331.236162 224.792181 
L 337.071191 228.070693 
L 343.121059 231.13605 
L 349.387583 234.0661 
L 360.114278 238.796942 
L 366.440046 241.414418 
L 372.647157 243.695889 
L 376.723858 244.971638 
L 380.755644 246.013182 
L 384.773461 246.795974 
L 388.771137 247.293932 
L 392.782628 247.479448 
L 394.797895 247.447413 
L 397.25702 247.288069 
L 397.25702 247.288069 
" style="fill:none;stroke:#ffffff;stroke-linecap:square;"/>
   </g>
   <g id="line2d_17">
    <path clip-path="url(#p449741115b)" d="M 94.113643 168.274696 
L 93.283163 164.466726 
L 92.889526 160.662083 
L 92.903565 156.857251 
L 93.300234 153.033381 
L 94.067339 149.176402 
L 95.173246 145.31653 
L 96.604433 141.4437 
L 98.323936 137.59026 
L 100.295888 133.778748 
L 102.490678 130.017898 
L 104.838957 126.385411 
L 107.33442 122.897238 
L 109.977603 119.573457 
L 112.78439 116.407519 
L 115.773464 113.400358 
L 118.90128 110.609497 
L 122.1234 108.112532 
L 125.402064 105.975652 
L 128.685756 104.257079 
L 131.978467 102.9835 
L 133.683702 102.507824 
L 137.318122 101.852198 
L 141.210406 101.580403 
L 145.29814 101.665365 
L 149.518736 102.072702 
L 153.758918 102.743661 
L 157.89132 103.639124 
L 161.901517 104.767633 
L 165.776834 106.134202 
L 169.51311 107.746171 
L 173.127641 109.626907 
L 176.58815 111.77625 
L 179.816556 114.152685 
L 182.771892 116.742975 
L 185.408826 119.517325 
L 187.735875 122.521733 
L 189.8341 125.864067 
L 191.743235 129.540768 
L 193.483526 133.483985 
L 195.09453 137.655403 
L 197.372301 144.23633 
L 200.507591 153.48356 
L 202.29823 158.269557 
L 204.355828 163.125981 
L 206.740922 167.975639 
L 209.496682 172.748588 
L 211.025874 175.087422 
L 212.661334 177.376661 
L 214.40753 179.607107 
L 216.274139 181.773629 
L 218.257762 183.853857 
L 220.36435 185.840902 
L 222.558196 187.693136 
L 224.795469 189.39148 
L 227.084442 190.969236 
L 231.734764 193.776839 
L 236.443315 196.219018 
L 241.128786 198.369084 
L 248.017674 201.233244 
L 259.190466 205.541114 
L 267.799594 208.915629 
L 274.072301 211.588929 
L 280.105087 214.443887 
L 283.982403 216.484188 
L 287.764844 218.675209 
L 293.434841 222.31631 
L 301.118621 227.647705 
L 309.109742 233.212874 
L 315.287922 237.30031 
L 321.669607 241.238271 
L 326.050184 243.739166 
L 332.69544 247.212129 
L 339.358905 250.398873 
L 348.214942 254.368136 
L 357.265662 258.233214 
L 364.354069 260.955614 
L 369.242683 262.590434 
L 374.284749 264.019431 
L 379.482289 265.178343 
L 384.838054 266.009327 
L 390.359771 266.448999 
L 393.17273 266.501559 
L 398.487273 266.274363 
L 398.487273 266.274363 
" style="fill:none;stroke:#ffffff;stroke-linecap:square;"/>
   </g>
   <g id="patch_3">
    <path d="M 57.6 307.584 
L 57.6 41.472 
" style="fill:none;stroke:#000000;stroke-linecap:square;stroke-linejoin:miter;stroke-width:0.8;"/>
   </g>
   <g id="patch_4">
    <path d="M 414.72 307.584 
L 414.72 41.472 
" style="fill:none;stroke:#000000;stroke-linecap:square;stroke-linejoin:miter;stroke-width:0.8;"/>
   </g>
   <g id="patch_5">
    <path d="M 57.6 307.584 
L 414.72 307.584 
" style="fill:none;stroke:#000000;stroke-linecap:square;stroke-linejoin:miter;stroke-width:0.8;"/>
   </g>
   <g id="patch_6">
    <path d="M 57.6 41.472 
L 414.72 41.472 
" style="fill:none;stroke:#000000;stroke-linecap:square;stroke-linejoin:miter;stroke-width:0.8;"/>
   </g>
  </g>
 </g>
 <defs>
  <clipPath id="p449741115b">
   <rect height="266.112" width="357.12" x="57.6" y="41.472"/>
  </clipPath>
 </defs>
</svg>
