<?xml version="1.0" encoding="utf-8" standalone="no"?>
<!DOCTYPE svg PUBLIC "-//W3C//DTD SVG 1.1//EN"
  "http://www.w3.org/Graphics/SVG/1.1/DTD/svg11.dtd">
<!-- Created with matplotlib (https://matplotlib.org/) -->
<svg height="345.6pt" version="1.1" viewBox="0 0 460.8 345.6" width="460.8pt" xmlns="http://www.w3.org/2000/svg" xmlns:xlink="http://www.w3.org/1999/xlink">
 <metadata>
  <rdf:RDF xmlns:cc="http://creativecommons.org/ns#" xmlns:dc="http://purl.org/dc/elements/1.1/" xmlns:rdf="http://www.w3.org/1999/02/22-rdf-syntax-ns#">
   <cc:Work>
    <dc:type rdf:resource="http://purl.org/dc/dcmitype/StillImage"/>
    <dc:date>2021-01-25T11:57:45.321065</dc:date>
    <dc:format>image/svg+xml</dc:format>
    <dc:creator>
     <cc:Agent>
      <dc:title>Matplotlib v3.3.3, https://matplotlib.org/</dc:title>
     </cc:Agent>
    </dc:creator>
   </cc:Work>
  </rdf:RDF>
 </metadata>
 <defs>
  <style type="text/css">*{stroke-linecap:butt;stroke-linejoin:round;}</style>
 </defs>
 <g id="figure_1">
  <g id="patch_1">
   <path d="M 0 345.6 
L 460.8 345.6 
L 460.8 0 
L 0 0 
z
" style="fill:#ffffff;"/>
  </g>
  <g id="axes_1">
   <g id="patch_2">
    <path d="M 57.6 307.584 
L 414.72 307.584 
L 414.72 41.472 
L 57.6 41.472 
z
" style="fill:#7d9051;"/>
   </g>
   <g id="matplotlib.axis_1">
    <g id="xtick_1">
     <g id="line2d_1">
      <defs>
       <path d="M 0 0 
L 0 3.5 
" id="m119690550d" style="stroke:#000000;stroke-width:0.8;"/>
      </defs>
      <g>
       <use style="stroke:#000000;stroke-width:0.8;" x="128.465449" xlink:href="#m119690550d" y="307.584"/>
      </g>
     </g>
     <g id="text_1">
      <!-- 20 -->
      <g transform="translate(122.102949 322.182437)scale(0.1 -0.1)">
       <defs>
        <path d="M 19.1875 8.296875 
L 53.609375 8.296875 
L 53.609375 0 
L 7.328125 0 
L 7.328125 8.296875 
Q 12.9375 14.109375 22.625 23.890625 
Q 32.328125 33.6875 34.8125 36.53125 
Q 39.546875 41.84375 41.421875 45.53125 
Q 43.3125 49.21875 43.3125 52.78125 
Q 43.3125 58.59375 39.234375 62.25 
Q 35.15625 65.921875 28.609375 65.921875 
Q 23.96875 65.921875 18.8125 64.3125 
Q 13.671875 62.703125 7.8125 59.421875 
L 7.8125 69.390625 
Q 13.765625 71.78125 18.9375 73 
Q 24.125 74.21875 28.421875 74.21875 
Q 39.75 74.21875 46.484375 68.546875 
Q 53.21875 62.890625 53.21875 53.421875 
Q 53.21875 48.921875 51.53125 44.890625 
Q 49.859375 40.875 45.40625 35.40625 
Q 44.1875 33.984375 37.640625 27.21875 
Q 31.109375 20.453125 19.1875 8.296875 
z
" id="DejaVuSans-50"/>
        <path d="M 31.78125 66.40625 
Q 24.171875 66.40625 20.328125 58.90625 
Q 16.5 51.421875 16.5 36.375 
Q 16.5 21.390625 20.328125 13.890625 
Q 24.171875 6.390625 31.78125 6.390625 
Q 39.453125 6.390625 43.28125 13.890625 
Q 47.125 21.390625 47.125 36.375 
Q 47.125 51.421875 43.28125 58.90625 
Q 39.453125 66.40625 31.78125 66.40625 
z
M 31.78125 74.21875 
Q 44.046875 74.21875 50.515625 64.515625 
Q 56.984375 54.828125 56.984375 36.375 
Q 56.984375 17.96875 50.515625 8.265625 
Q 44.046875 -1.421875 31.78125 -1.421875 
Q 19.53125 -1.421875 13.0625 8.265625 
Q 6.59375 17.96875 6.59375 36.375 
Q 6.59375 54.828125 13.0625 64.515625 
Q 19.53125 74.21875 31.78125 74.21875 
z
" id="DejaVuSans-48"/>
       </defs>
       <use xlink:href="#DejaVuSans-50"/>
       <use x="63.623047" xlink:href="#DejaVuSans-48"/>
      </g>
     </g>
    </g>
    <g id="xtick_2">
     <g id="line2d_2">
      <g>
       <use style="stroke:#000000;stroke-width:0.8;" x="205.76211" xlink:href="#m119690550d" y="307.584"/>
      </g>
     </g>
     <g id="text_2">
      <!-- 40 -->
      <g transform="translate(199.39961 322.182437)scale(0.1 -0.1)">
       <defs>
        <path d="M 37.796875 64.3125 
L 12.890625 25.390625 
L 37.796875 25.390625 
z
M 35.203125 72.90625 
L 47.609375 72.90625 
L 47.609375 25.390625 
L 58.015625 25.390625 
L 58.015625 17.1875 
L 47.609375 17.1875 
L 47.609375 0 
L 37.796875 0 
L 37.796875 17.1875 
L 4.890625 17.1875 
L 4.890625 26.703125 
z
" id="DejaVuSans-52"/>
       </defs>
       <use xlink:href="#DejaVuSans-52"/>
       <use x="63.623047" xlink:href="#DejaVuSans-48"/>
      </g>
     </g>
    </g>
    <g id="xtick_3">
     <g id="line2d_3">
      <g>
       <use style="stroke:#000000;stroke-width:0.8;" x="283.058772" xlink:href="#m119690550d" y="307.584"/>
      </g>
     </g>
     <g id="text_3">
      <!-- 60 -->
      <g transform="translate(276.696272 322.182437)scale(0.1 -0.1)">
       <defs>
        <path d="M 33.015625 40.375 
Q 26.375 40.375 22.484375 35.828125 
Q 18.609375 31.296875 18.609375 23.390625 
Q 18.609375 15.53125 22.484375 10.953125 
Q 26.375 6.390625 33.015625 6.390625 
Q 39.65625 6.390625 43.53125 10.953125 
Q 47.40625 15.53125 47.40625 23.390625 
Q 47.40625 31.296875 43.53125 35.828125 
Q 39.65625 40.375 33.015625 40.375 
z
M 52.59375 71.296875 
L 52.59375 62.3125 
Q 48.875 64.0625 45.09375 64.984375 
Q 41.3125 65.921875 37.59375 65.921875 
Q 27.828125 65.921875 22.671875 59.328125 
Q 17.53125 52.734375 16.796875 39.40625 
Q 19.671875 43.65625 24.015625 45.921875 
Q 28.375 48.1875 33.59375 48.1875 
Q 44.578125 48.1875 50.953125 41.515625 
Q 57.328125 34.859375 57.328125 23.390625 
Q 57.328125 12.15625 50.6875 5.359375 
Q 44.046875 -1.421875 33.015625 -1.421875 
Q 20.359375 -1.421875 13.671875 8.265625 
Q 6.984375 17.96875 6.984375 36.375 
Q 6.984375 53.65625 15.1875 63.9375 
Q 23.390625 74.21875 37.203125 74.21875 
Q 40.921875 74.21875 44.703125 73.484375 
Q 48.484375 72.75 52.59375 71.296875 
z
" id="DejaVuSans-54"/>
       </defs>
       <use xlink:href="#DejaVuSans-54"/>
       <use x="63.623047" xlink:href="#DejaVuSans-48"/>
      </g>
     </g>
    </g>
    <g id="xtick_4">
     <g id="line2d_4">
      <g>
       <use style="stroke:#000000;stroke-width:0.8;" x="360.355434" xlink:href="#m119690550d" y="307.584"/>
      </g>
     </g>
     <g id="text_4">
      <!-- 80 -->
      <g transform="translate(353.992934 322.182437)scale(0.1 -0.1)">
       <defs>
        <path d="M 31.78125 34.625 
Q 24.75 34.625 20.71875 30.859375 
Q 16.703125 27.09375 16.703125 20.515625 
Q 16.703125 13.921875 20.71875 10.15625 
Q 24.75 6.390625 31.78125 6.390625 
Q 38.8125 6.390625 42.859375 10.171875 
Q 46.921875 13.96875 46.921875 20.515625 
Q 46.921875 27.09375 42.890625 30.859375 
Q 38.875 34.625 31.78125 34.625 
z
M 21.921875 38.8125 
Q 15.578125 40.375 12.03125 44.71875 
Q 8.5 49.078125 8.5 55.328125 
Q 8.5 64.0625 14.71875 69.140625 
Q 20.953125 74.21875 31.78125 74.21875 
Q 42.671875 74.21875 48.875 69.140625 
Q 55.078125 64.0625 55.078125 55.328125 
Q 55.078125 49.078125 51.53125 44.71875 
Q 48 40.375 41.703125 38.8125 
Q 48.828125 37.15625 52.796875 32.3125 
Q 56.78125 27.484375 56.78125 20.515625 
Q 56.78125 9.90625 50.3125 4.234375 
Q 43.84375 -1.421875 31.78125 -1.421875 
Q 19.734375 -1.421875 13.25 4.234375 
Q 6.78125 9.90625 6.78125 20.515625 
Q 6.78125 27.484375 10.78125 32.3125 
Q 14.796875 37.15625 21.921875 38.8125 
z
M 18.3125 54.390625 
Q 18.3125 48.734375 21.84375 45.5625 
Q 25.390625 42.390625 31.78125 42.390625 
Q 38.140625 42.390625 41.71875 45.5625 
Q 45.3125 48.734375 45.3125 54.390625 
Q 45.3125 60.0625 41.71875 63.234375 
Q 38.140625 66.40625 31.78125 66.40625 
Q 25.390625 66.40625 21.84375 63.234375 
Q 18.3125 60.0625 18.3125 54.390625 
z
" id="DejaVuSans-56"/>
       </defs>
       <use xlink:href="#DejaVuSans-56"/>
       <use x="63.623047" xlink:href="#DejaVuSans-48"/>
      </g>
     </g>
    </g>
   </g>
   <g id="matplotlib.axis_2">
    <g id="ytick_1">
     <g id="line2d_5">
      <defs>
       <path d="M 0 0 
L -3.5 0 
" id="mf399c5df8b" style="stroke:#000000;stroke-width:0.8;"/>
      </defs>
      <g>
       <use style="stroke:#000000;stroke-width:0.8;" x="57.6" xlink:href="#mf399c5df8b" y="298.192113"/>
      </g>
     </g>
     <g id="text_5">
      <!-- 0 -->
      <g transform="translate(44.2375 301.991332)scale(0.1 -0.1)">
       <use xlink:href="#DejaVuSans-48"/>
      </g>
     </g>
    </g>
    <g id="ytick_2">
     <g id="line2d_6">
      <g>
       <use style="stroke:#000000;stroke-width:0.8;" x="57.6" xlink:href="#mf399c5df8b" y="259.543782"/>
      </g>
     </g>
     <g id="text_6">
      <!-- 10 -->
      <g transform="translate(37.875 263.343001)scale(0.1 -0.1)">
       <defs>
        <path d="M 12.40625 8.296875 
L 28.515625 8.296875 
L 28.515625 63.921875 
L 10.984375 60.40625 
L 10.984375 69.390625 
L 28.421875 72.90625 
L 38.28125 72.90625 
L 38.28125 8.296875 
L 54.390625 8.296875 
L 54.390625 0 
L 12.40625 0 
z
" id="DejaVuSans-49"/>
       </defs>
       <use xlink:href="#DejaVuSans-49"/>
       <use x="63.623047" xlink:href="#DejaVuSans-48"/>
      </g>
     </g>
    </g>
    <g id="ytick_3">
     <g id="line2d_7">
      <g>
       <use style="stroke:#000000;stroke-width:0.8;" x="57.6" xlink:href="#mf399c5df8b" y="220.895451"/>
      </g>
     </g>
     <g id="text_7">
      <!-- 20 -->
      <g transform="translate(37.875 224.69467)scale(0.1 -0.1)">
       <use xlink:href="#DejaVuSans-50"/>
       <use x="63.623047" xlink:href="#DejaVuSans-48"/>
      </g>
     </g>
    </g>
    <g id="ytick_4">
     <g id="line2d_8">
      <g>
       <use style="stroke:#000000;stroke-width:0.8;" x="57.6" xlink:href="#mf399c5df8b" y="182.24712"/>
      </g>
     </g>
     <g id="text_8">
      <!-- 30 -->
      <g transform="translate(37.875 186.046339)scale(0.1 -0.1)">
       <defs>
        <path d="M 40.578125 39.3125 
Q 47.65625 37.796875 51.625 33 
Q 55.609375 28.21875 55.609375 21.1875 
Q 55.609375 10.40625 48.1875 4.484375 
Q 40.765625 -1.421875 27.09375 -1.421875 
Q 22.515625 -1.421875 17.65625 -0.515625 
Q 12.796875 0.390625 7.625 2.203125 
L 7.625 11.71875 
Q 11.71875 9.328125 16.59375 8.109375 
Q 21.484375 6.890625 26.8125 6.890625 
Q 36.078125 6.890625 40.9375 10.546875 
Q 45.796875 14.203125 45.796875 21.1875 
Q 45.796875 27.640625 41.28125 31.265625 
Q 36.765625 34.90625 28.71875 34.90625 
L 20.21875 34.90625 
L 20.21875 43.015625 
L 29.109375 43.015625 
Q 36.375 43.015625 40.234375 45.921875 
Q 44.09375 48.828125 44.09375 54.296875 
Q 44.09375 59.90625 40.109375 62.90625 
Q 36.140625 65.921875 28.71875 65.921875 
Q 24.65625 65.921875 20.015625 65.03125 
Q 15.375 64.15625 9.8125 62.3125 
L 9.8125 71.09375 
Q 15.4375 72.65625 20.34375 73.4375 
Q 25.25 74.21875 29.59375 74.21875 
Q 40.828125 74.21875 47.359375 69.109375 
Q 53.90625 64.015625 53.90625 55.328125 
Q 53.90625 49.265625 50.4375 45.09375 
Q 46.96875 40.921875 40.578125 39.3125 
z
" id="DejaVuSans-51"/>
       </defs>
       <use xlink:href="#DejaVuSans-51"/>
       <use x="63.623047" xlink:href="#DejaVuSans-48"/>
      </g>
     </g>
    </g>
    <g id="ytick_5">
     <g id="line2d_9">
      <g>
       <use style="stroke:#000000;stroke-width:0.8;" x="57.6" xlink:href="#mf399c5df8b" y="143.59879"/>
      </g>
     </g>
     <g id="text_9">
      <!-- 40 -->
      <g transform="translate(37.875 147.398008)scale(0.1 -0.1)">
       <use xlink:href="#DejaVuSans-52"/>
       <use x="63.623047" xlink:href="#DejaVuSans-48"/>
      </g>
     </g>
    </g>
    <g id="ytick_6">
     <g id="line2d_10">
      <g>
       <use style="stroke:#000000;stroke-width:0.8;" x="57.6" xlink:href="#mf399c5df8b" y="104.950459"/>
      </g>
     </g>
     <g id="text_10">
      <!-- 50 -->
      <g transform="translate(37.875 108.749678)scale(0.1 -0.1)">
       <defs>
        <path d="M 10.796875 72.90625 
L 49.515625 72.90625 
L 49.515625 64.59375 
L 19.828125 64.59375 
L 19.828125 46.734375 
Q 21.96875 47.46875 24.109375 47.828125 
Q 26.265625 48.1875 28.421875 48.1875 
Q 40.625 48.1875 47.75 41.5 
Q 54.890625 34.8125 54.890625 23.390625 
Q 54.890625 11.625 47.5625 5.09375 
Q 40.234375 -1.421875 26.90625 -1.421875 
Q 22.3125 -1.421875 17.546875 -0.640625 
Q 12.796875 0.140625 7.71875 1.703125 
L 7.71875 11.625 
Q 12.109375 9.234375 16.796875 8.0625 
Q 21.484375 6.890625 26.703125 6.890625 
Q 35.15625 6.890625 40.078125 11.328125 
Q 45.015625 15.765625 45.015625 23.390625 
Q 45.015625 31 40.078125 35.4375 
Q 35.15625 39.890625 26.703125 39.890625 
Q 22.75 39.890625 18.8125 39.015625 
Q 14.890625 38.140625 10.796875 36.28125 
z
" id="DejaVuSans-53"/>
       </defs>
       <use xlink:href="#DejaVuSans-53"/>
       <use x="63.623047" xlink:href="#DejaVuSans-48"/>
      </g>
     </g>
    </g>
    <g id="ytick_7">
     <g id="line2d_11">
      <g>
       <use style="stroke:#000000;stroke-width:0.8;" x="57.6" xlink:href="#mf399c5df8b" y="66.302128"/>
      </g>
     </g>
     <g id="text_11">
      <!-- 60 -->
      <g transform="translate(37.875 70.101347)scale(0.1 -0.1)">
       <use xlink:href="#DejaVuSans-54"/>
       <use x="63.623047" xlink:href="#DejaVuSans-48"/>
      </g>
     </g>
    </g>
   </g>
   <g id="line2d_12">
    <path clip-path="url(#p39e954905e)" d="M 240.939821 207.356941 
L 239.799695 203.44573 
L 238.933973 199.522924 
L 238.334924 195.600119 
L 237.994818 191.677313 
L 237.905927 187.773832 
L 238.060521 183.88581 
L 238.450869 180.028706 
L 239.073107 176.206386 
L 239.91564 172.430444 
L 240.97074 168.70861 
L 242.238405 165.044748 
L 243.699312 161.446589 
L 245.357325 157.929591 
L 247.196986 154.493754 
L 249.218294 151.150673 
L 251.405789 147.908078 
L 253.759473 144.773699 
L 256.263884 141.755264 
L 258.919025 138.860504 
L 261.713299 136.097149 
L 264.642842 133.472927 
L 267.696061 130.999434 
L 270.865224 128.684399 
L 274.146467 126.535552 
L 277.532061 124.568352 
L 281.010411 122.790528 
L 284.577652 121.205947 
L 288.222189 119.830066 
L 291.944023 118.674481 
L 295.727695 117.743056 
L 299.565474 117.043521 
L 303.445767 116.579742 
L 307.356978 116.347852 
L 311.279783 116.340122 
L 315.198724 116.556553 
L 319.102205 116.993279 
L 322.970903 117.646435 
L 326.797088 118.512158 
L 330.561436 119.590446 
L 334.248486 120.877436 
L 337.846646 122.365397 
L 341.348185 124.050464 
L 344.753103 125.921043 
L 348.057535 127.973269 
L 351.253752 130.191684 
L 354.345618 132.576286 
L 357.32154 135.111616 
L 360.185381 137.789945 
L 362.925548 140.607409 
L 365.545905 143.552412 
L 368.034857 146.613359 
L 370.384676 149.790252 
L 372.579901 153.071495 
L 374.605073 156.44936 
L 376.448599 159.916115 
L 378.091153 163.464032 
L 379.525006 167.08538 
L 380.730834 170.776296 
L 381.693177 174.529049 
L 382.404307 178.32818 
L 382.844898 182.173689 
L 383.03041 186.050116 
L 382.960843 189.942003 
L 382.643926 193.837755 
L 382.09512 197.721912 
L 381.318288 201.579016 
L 380.317297 205.393606 
L 379.111469 209.154088 
L 377.700805 212.848869 
L 376.096899 216.458623 
L 374.303616 219.975621 
L 372.332552 223.384404 
L 370.191434 226.677242 
L 367.884129 229.846405 
L 365.4145 232.888028 
L 362.798008 235.782788 
L 360.030788 238.534549 
L 357.128298 241.123988 
L 354.090539 243.543373 
L 350.929106 245.788841 
L 347.647863 247.852662 
L 344.262269 249.738701 
L 340.776189 251.450822 
L 337.208948 252.99289 
L 333.564411 254.372635 
L 329.858036 255.593923 
L 326.097553 256.668346 
L 322.298422 257.595906 
L 318.468373 258.380467 
L 314.618999 259.033624 
L 310.761896 259.559241 
L 306.900927 259.961184 
L 303.03223 260.251047 
L 295.290969 260.502261 
L 287.553573 260.366992 
L 279.827772 259.891617 
L 272.129024 259.130245 
L 264.46506 258.129253 
L 256.824285 256.931155 
L 245.407568 254.863469 
L 226.466021 251.056609 
L 215.099547 248.807276 
L 203.675101 246.789833 
L 196.007272 245.645842 
L 180.632966 243.489265 
L 173.023109 242.121115 
L 169.258762 241.286311 
L 165.525333 240.320102 
L 161.838282 239.199301 
L 158.193745 237.904582 
L 154.603315 236.443675 
L 151.074722 234.820445 
L 147.607967 233.046487 
L 144.214644 231.125664 
L 140.894752 229.065708 
L 137.659887 226.878213 
L 134.517777 224.567043 
L 131.468424 222.139928 
L 128.519556 219.608462 
L 125.678904 216.976511 
L 122.942602 214.247938 
L 120.302921 211.430475 
L 117.755996 208.53185 
L 115.301827 205.548199 
L 110.633109 199.356737 
L 106.265848 192.902465 
L 102.16526 186.216304 
L 98.385453 179.321442 
L 96.657873 175.800579 
L 95.069426 172.229473 
L 93.635573 168.615854 
L 92.375637 164.951992 
L 91.305079 161.245617 
L 90.447086 157.496729 
L 89.817118 153.705328 
L 89.430635 149.875279 
L 89.287636 146.018175 
L 89.380392 142.141748 
L 89.701173 138.261455 
L 90.238385 134.388892 
L 90.995892 130.535654 
L 91.954371 126.713334 
L 93.117685 122.937392 
L 94.470377 119.211693 
L 96.012445 115.559426 
L 97.732296 111.98059 
L 99.622199 108.498376 
L 101.682156 105.116647 
L 103.896705 101.850863 
L 106.265848 98.716483 
L 108.777989 95.717373 
L 111.429265 92.872855 
L 114.20808 90.190661 
L 117.114434 87.682385 
L 120.136733 85.36735 
L 120.136733 85.36735 
" style="fill:none;stroke:#fea952;stroke-linecap:square;"/>
   </g>
   <g id="line2d_13">
    <path clip-path="url(#p39e954905e)" d="M 226.098205 211.683301 
L 224.703612 206.777279 
L 223.651805 201.856654 
L 222.933368 196.935426 
L 222.539493 192.029266 
L 222.458801 187.159632 
L 222.679752 182.329239 
L 223.192395 177.544769 
L 223.984819 172.839706 
L 225.042411 168.214046 
L 226.361153 163.653817 
L 227.914677 159.229099 
L 229.715949 154.854432 
L 231.728639 150.632341 
L 233.967783 146.495057 
L 236.402545 142.505007 
L 239.043813 138.625164 
L 241.862085 134.902371 
L 244.871131 131.305569 
L 248.048609 127.868461 
L 251.398437 124.582177 
L 254.911485 121.460782 
L 258.577088 118.516033 
L 262.395677 115.751583 
L 266.379738 113.168844 
L 270.496348 110.802826 
L 274.734622 108.66235 
L 279.117596 106.742934 
L 283.638126 105.066011 
L 288.248726 103.663294 
L 292.955507 102.534311 
L 297.730803 101.693442 
L 302.530812 101.147509 
L 307.326516 100.888549 
L 312.132254 100.904311 
L 316.917608 101.193077 
L 321.675801 101.749671 
L 326.382534 102.568248 
L 331.054169 103.650522 
L 335.656164 104.994738 
L 340.156227 106.591444 
L 344.550372 108.435177 
L 348.791832 110.501181 
L 352.909221 112.78831 
L 356.872307 115.27324 
L 360.694995 117.950202 
L 364.371133 120.808532 
L 367.88112 123.820636 
L 371.267744 127.011625 
L 374.474978 130.331144 
L 377.540402 133.79931 
L 380.46374 137.42022 
L 383.233631 141.194014 
L 385.838845 145.122197 
L 388.254496 149.190971 
L 390.477431 153.421285 
L 392.464795 157.772867 
L 394.21999 162.284506 
L 395.705635 166.936208 
L 396.888599 171.684738 
L 397.76316 176.568472 
L 398.286557 181.434706 
L 398.487273 186.326406 
L 398.369275 191.195467 
L 397.951217 196.000576 
L 397.25014 200.774176 
L 396.271359 205.502871 
L 395.038325 210.114018 
L 393.553953 214.668217 
L 391.828345 219.126095 
L 389.869233 223.481 
L 387.686682 227.714129 
L 385.29294 231.811698 
L 382.689339 235.776326 
L 379.885597 239.590926 
L 376.883226 243.254286 
L 373.698744 246.744764 
L 370.322367 250.070335 
L 366.759376 253.216683 
L 363.042539 256.147049 
L 359.15991 258.874895 
L 355.171281 261.357814 
L 351.077261 263.614825 
L 346.91042 265.641035 
L 342.682421 267.450831 
L 338.402527 269.0554 
L 334.105041 270.458441 
L 329.764255 271.686544 
L 325.400748 272.740758 
L 321.054528 273.621949 
L 316.706389 274.351384 
L 312.362625 274.935477 
L 308.055981 275.377306 
L 303.741899 275.694081 
L 299.45662 275.885383 
L 290.974586 275.93192 
L 282.592793 275.586457 
L 274.321602 274.914494 
L 266.172118 273.972137 
L 258.150035 272.811068 
L 246.33922 270.772665 
L 234.74836 268.517917 
L 212.285123 264.008262 
L 201.301234 262.065818 
L 193.930867 260.965095 
L 178.071451 258.734907 
L 169.676073 257.213772 
L 165.385507 256.252568 
L 161.029105 255.111143 
L 156.663219 253.766719 
L 152.367352 252.223943 
L 148.142519 250.488214 
L 144.032522 248.582653 
L 139.992509 246.499953 
L 136.063869 244.261715 
L 132.234904 241.871879 
L 128.499879 239.331534 
L 124.890351 236.662646 
L 121.398764 233.869928 
L 118.012671 230.948493 
L 114.762978 227.92336 
L 111.661067 224.817608 
L 108.689716 221.634612 
L 105.816669 218.352411 
L 103.084032 215.020076 
L 100.462337 211.629339 
L 95.509517 204.67212 
L 90.918388 197.526773 
L 86.566044 190.032281 
L 84.506796 186.131277 
L 82.532848 182.083463 
L 80.699953 177.931157 
L 79.016482 173.643094 
L 77.523454 169.241935 
L 76.235382 164.694558 
L 75.196836 160.030665 
L 74.435897 155.257419 
L 73.981916 150.448027 
L 73.832727 145.648367 
L 73.973616 140.86808 
L 74.388477 136.137239 
L 75.069396 131.406824 
L 76.000816 126.775513 
L 77.180301 122.16165 
L 78.586468 117.661535 
L 80.228474 113.198445 
L 82.078555 108.863333 
L 84.145086 104.6064 
L 86.419483 100.456035 
L 88.887169 96.440283 
L 91.563997 92.529099 
L 94.414734 88.789648 
L 97.469212 85.176855 
L 100.692954 81.74979 
L 104.107605 78.487184 
L 107.713761 75.40972 
L 110.736061 73.094685 
L 110.736061 73.094685 
" style="fill:none;stroke:#ffffff;stroke-linecap:square;"/>
   </g>
   <g id="line2d_14">
    <path clip-path="url(#p39e954905e)" d="M 255.781437 203.030581 
L 254.895779 200.11418 
L 254.216141 197.189194 
L 253.736479 194.264811 
L 253.450144 191.32536 
L 253.353054 188.388032 
L 253.441289 185.44238 
L 253.709342 182.512644 
L 254.161394 179.573067 
L 254.788869 176.646843 
L 255.580326 173.763404 
L 256.562133 170.860397 
L 257.682675 168.038745 
L 258.986012 165.22684 
L 260.426189 162.492451 
L 262.034042 159.796339 
L 263.767765 157.190993 
L 265.65686 154.645027 
L 267.656638 152.204959 
L 269.789441 149.852547 
L 272.028161 147.61212 
L 274.3742 145.485072 
L 276.815033 143.482835 
L 279.334771 141.617215 
L 281.913196 139.902259 
L 284.567774 138.333877 
L 287.2862 136.918707 
L 290.037707 135.66896 
L 292.806252 134.594121 
L 295.639321 133.685668 
L 298.499883 132.951801 
L 301.400145 132.393601 
L 304.360721 132.011974 
L 307.387439 131.807154 
L 310.427313 131.775933 
L 313.47984 131.920029 
L 316.528609 132.236886 
L 319.559273 132.724623 
L 322.540008 133.373794 
L 325.466707 134.186155 
L 328.340745 135.163427 
L 331.14292 136.295616 
L 333.904538 137.599747 
L 336.596984 139.053776 
L 339.242763 140.673299 
L 341.812509 142.433166 
L 344.320104 144.344039 
L 346.76196 146.402596 
L 349.103018 148.568266 
L 351.376118 150.883674 
L 353.551407 153.305513 
L 355.605974 155.806499 
L 357.535721 158.386491 
L 359.320956 161.020794 
L 360.95565 163.707748 
L 362.419766 166.410945 
L 363.71751 169.155196 
L 364.830022 171.886255 
L 365.756032 174.616384 
L 366.497755 177.37336 
L 367.045453 180.087888 
L 367.403238 182.912671 
L 367.573546 185.773827 
L 367.55241 188.688539 
L 367.336635 191.674934 
L 366.9401 194.669648 
L 366.365218 197.65516 
L 365.596269 200.673194 
L 364.668985 203.63996 
L 363.573265 206.571643 
L 362.324565 209.436246 
L 360.92055 212.237113 
L 359.372163 214.957109 
L 357.693529 217.578157 
L 355.88266 220.101883 
L 353.945775 222.521771 
L 351.897273 224.820812 
L 349.739208 226.998764 
L 347.49722 229.031292 
L 345.13854 230.939697 
L 342.698302 232.702787 
L 340.124445 234.34751 
L 337.447276 235.862576 
L 334.641958 237.260608 
L 331.735476 238.534949 
L 328.726294 239.689871 
L 325.611031 240.729404 
L 322.430852 241.650149 
L 319.196097 242.451055 
L 315.882218 243.138986 
L 312.531609 243.715865 
L 305.745873 244.545062 
L 298.870443 244.972275 
L 291.869956 245.026223 
L 284.784687 244.745584 
L 277.627464 244.17307 
L 270.410372 243.345334 
L 263.127716 242.295719 
L 252.081908 240.391991 
L 240.901171 238.217641 
L 217.913972 233.60629 
L 206.048967 231.513848 
L 198.083676 230.32659 
L 183.19448 228.243624 
L 176.370146 227.028457 
L 170.021562 225.529062 
L 167.013346 224.631883 
L 164.020137 223.58522 
L 161.064111 222.399136 
L 158.116922 221.058237 
L 155.223426 219.593021 
L 152.365418 217.989614 
L 149.5546 216.259538 
L 146.819894 214.424891 
L 144.145203 212.471439 
L 141.538084 210.409927 
L 139.026442 208.268431 
L 136.59483 206.029661 
L 134.224138 203.678269 
L 129.695324 198.711289 
L 125.395303 193.345164 
L 121.319873 187.648919 
L 117.447017 181.646103 
L 113.884183 175.551842 
L 110.782897 169.517695 
L 109.438899 166.527789 
L 108.254664 163.588614 
L 107.227821 160.66205 
L 106.374776 157.796677 
L 105.697336 154.962794 
L 105.198339 152.153237 
L 104.879354 149.30253 
L 104.742544 146.387984 
L 104.787167 143.415415 
L 105.013869 140.385671 
L 105.407374 137.37096 
L 105.990968 134.295794 
L 106.72844 131.265018 
L 107.648903 128.213249 
L 108.71228 125.224941 
L 109.946336 122.255518 
L 111.319506 119.354781 
L 112.824916 116.540716 
L 114.477142 113.79301 
L 116.229413 111.172626 
L 118.116961 108.643318 
L 120.086766 106.25789 
L 122.165575 103.995921 
L 124.308554 101.894138 
L 126.515107 99.955049 
L 129.537406 97.640014 
L 129.537406 97.640014 
" style="fill:none;stroke:#ffffff;stroke-linecap:square;"/>
   </g>
   <g id="patch_3">
    <path d="M 57.6 307.584 
L 57.6 41.472 
" style="fill:none;stroke:#000000;stroke-linecap:square;stroke-linejoin:miter;stroke-width:0.8;"/>
   </g>
   <g id="patch_4">
    <path d="M 414.72 307.584 
L 414.72 41.472 
" style="fill:none;stroke:#000000;stroke-linecap:square;stroke-linejoin:miter;stroke-width:0.8;"/>
   </g>
   <g id="patch_5">
    <path d="M 57.6 307.584 
L 414.72 307.584 
" style="fill:none;stroke:#000000;stroke-linecap:square;stroke-linejoin:miter;stroke-width:0.8;"/>
   </g>
   <g id="patch_6">
    <path d="M 57.6 41.472 
L 414.72 41.472 
" style="fill:none;stroke:#000000;stroke-linecap:square;stroke-linejoin:miter;stroke-width:0.8;"/>
   </g>
  </g>
 </g>
 <defs>
  <clipPath id="p39e954905e">
   <rect height="266.112" width="357.12" x="57.6" y="41.472"/>
  </clipPath>
 </defs>
</svg>
