<?xml version="1.0" encoding="utf-8" standalone="no"?>
<!DOCTYPE svg PUBLIC "-//W3C//DTD SVG 1.1//EN"
  "http://www.w3.org/Graphics/SVG/1.1/DTD/svg11.dtd">
<!-- Created with matplotlib (https://matplotlib.org/) -->
<svg height="345.6pt" version="1.1" viewBox="0 0 460.8 345.6" width="460.8pt" xmlns="http://www.w3.org/2000/svg" xmlns:xlink="http://www.w3.org/1999/xlink">
 <metadata>
  <rdf:RDF xmlns:cc="http://creativecommons.org/ns#" xmlns:dc="http://purl.org/dc/elements/1.1/" xmlns:rdf="http://www.w3.org/1999/02/22-rdf-syntax-ns#">
   <cc:Work>
    <dc:type rdf:resource="http://purl.org/dc/dcmitype/StillImage"/>
    <dc:date>2021-01-25T09:57:22.315583</dc:date>
    <dc:format>image/svg+xml</dc:format>
    <dc:creator>
     <cc:Agent>
      <dc:title>Matplotlib v3.3.3, https://matplotlib.org/</dc:title>
     </cc:Agent>
    </dc:creator>
   </cc:Work>
  </rdf:RDF>
 </metadata>
 <defs>
  <style type="text/css">*{stroke-linecap:butt;stroke-linejoin:round;}</style>
 </defs>
 <g id="figure_1">
  <g id="patch_1">
   <path d="M 0 345.6 
L 460.8 345.6 
L 460.8 0 
L 0 0 
z
" style="fill:#ffffff;"/>
  </g>
  <g id="axes_1">
   <g id="patch_2">
    <path d="M 57.6 307.584 
L 414.72 307.584 
L 414.72 41.472 
L 57.6 41.472 
z
" style="fill:#7d9051;"/>
   </g>
   <g id="matplotlib.axis_1">
    <g id="xtick_1">
     <g id="line2d_1">
      <defs>
       <path d="M 0 0 
L 0 3.5 
" id="m401c8cc94b" style="stroke:#000000;stroke-width:0.8;"/>
      </defs>
      <g>
       <use style="stroke:#000000;stroke-width:0.8;" x="79.389045" xlink:href="#m401c8cc94b" y="307.584"/>
      </g>
     </g>
     <g id="text_1">
      <!-- 0 -->
      <g transform="translate(76.207795 322.182437)scale(0.1 -0.1)">
       <defs>
        <path d="M 31.78125 66.40625 
Q 24.171875 66.40625 20.328125 58.90625 
Q 16.5 51.421875 16.5 36.375 
Q 16.5 21.390625 20.328125 13.890625 
Q 24.171875 6.390625 31.78125 6.390625 
Q 39.453125 6.390625 43.28125 13.890625 
Q 47.125 21.390625 47.125 36.375 
Q 47.125 51.421875 43.28125 58.90625 
Q 39.453125 66.40625 31.78125 66.40625 
z
M 31.78125 74.21875 
Q 44.046875 74.21875 50.515625 64.515625 
Q 56.984375 54.828125 56.984375 36.375 
Q 56.984375 17.96875 50.515625 8.265625 
Q 44.046875 -1.421875 31.78125 -1.421875 
Q 19.53125 -1.421875 13.0625 8.265625 
Q 6.59375 17.96875 6.59375 36.375 
Q 6.59375 54.828125 13.0625 64.515625 
Q 19.53125 74.21875 31.78125 74.21875 
z
" id="DejaVuSans-48"/>
       </defs>
       <use xlink:href="#DejaVuSans-48"/>
      </g>
     </g>
    </g>
    <g id="xtick_2">
     <g id="line2d_2">
      <g>
       <use style="stroke:#000000;stroke-width:0.8;" x="153.07795" xlink:href="#m401c8cc94b" y="307.584"/>
      </g>
     </g>
     <g id="text_2">
      <!-- 20 -->
      <g transform="translate(146.71545 322.182437)scale(0.1 -0.1)">
       <defs>
        <path d="M 19.1875 8.296875 
L 53.609375 8.296875 
L 53.609375 0 
L 7.328125 0 
L 7.328125 8.296875 
Q 12.9375 14.109375 22.625 23.890625 
Q 32.328125 33.6875 34.8125 36.53125 
Q 39.546875 41.84375 41.421875 45.53125 
Q 43.3125 49.21875 43.3125 52.78125 
Q 43.3125 58.59375 39.234375 62.25 
Q 35.15625 65.921875 28.609375 65.921875 
Q 23.96875 65.921875 18.8125 64.3125 
Q 13.671875 62.703125 7.8125 59.421875 
L 7.8125 69.390625 
Q 13.765625 71.78125 18.9375 73 
Q 24.125 74.21875 28.421875 74.21875 
Q 39.75 74.21875 46.484375 68.546875 
Q 53.21875 62.890625 53.21875 53.421875 
Q 53.21875 48.921875 51.53125 44.890625 
Q 49.859375 40.875 45.40625 35.40625 
Q 44.1875 33.984375 37.640625 27.21875 
Q 31.109375 20.453125 19.1875 8.296875 
z
" id="DejaVuSans-50"/>
       </defs>
       <use xlink:href="#DejaVuSans-50"/>
       <use x="63.623047" xlink:href="#DejaVuSans-48"/>
      </g>
     </g>
    </g>
    <g id="xtick_3">
     <g id="line2d_3">
      <g>
       <use style="stroke:#000000;stroke-width:0.8;" x="226.766856" xlink:href="#m401c8cc94b" y="307.584"/>
      </g>
     </g>
     <g id="text_3">
      <!-- 40 -->
      <g transform="translate(220.404356 322.182437)scale(0.1 -0.1)">
       <defs>
        <path d="M 37.796875 64.3125 
L 12.890625 25.390625 
L 37.796875 25.390625 
z
M 35.203125 72.90625 
L 47.609375 72.90625 
L 47.609375 25.390625 
L 58.015625 25.390625 
L 58.015625 17.1875 
L 47.609375 17.1875 
L 47.609375 0 
L 37.796875 0 
L 37.796875 17.1875 
L 4.890625 17.1875 
L 4.890625 26.703125 
z
" id="DejaVuSans-52"/>
       </defs>
       <use xlink:href="#DejaVuSans-52"/>
       <use x="63.623047" xlink:href="#DejaVuSans-48"/>
      </g>
     </g>
    </g>
    <g id="xtick_4">
     <g id="line2d_4">
      <g>
       <use style="stroke:#000000;stroke-width:0.8;" x="300.455762" xlink:href="#m401c8cc94b" y="307.584"/>
      </g>
     </g>
     <g id="text_4">
      <!-- 60 -->
      <g transform="translate(294.093262 322.182437)scale(0.1 -0.1)">
       <defs>
        <path d="M 33.015625 40.375 
Q 26.375 40.375 22.484375 35.828125 
Q 18.609375 31.296875 18.609375 23.390625 
Q 18.609375 15.53125 22.484375 10.953125 
Q 26.375 6.390625 33.015625 6.390625 
Q 39.65625 6.390625 43.53125 10.953125 
Q 47.40625 15.53125 47.40625 23.390625 
Q 47.40625 31.296875 43.53125 35.828125 
Q 39.65625 40.375 33.015625 40.375 
z
M 52.59375 71.296875 
L 52.59375 62.3125 
Q 48.875 64.0625 45.09375 64.984375 
Q 41.3125 65.921875 37.59375 65.921875 
Q 27.828125 65.921875 22.671875 59.328125 
Q 17.53125 52.734375 16.796875 39.40625 
Q 19.671875 43.65625 24.015625 45.921875 
Q 28.375 48.1875 33.59375 48.1875 
Q 44.578125 48.1875 50.953125 41.515625 
Q 57.328125 34.859375 57.328125 23.390625 
Q 57.328125 12.15625 50.6875 5.359375 
Q 44.046875 -1.421875 33.015625 -1.421875 
Q 20.359375 -1.421875 13.671875 8.265625 
Q 6.984375 17.96875 6.984375 36.375 
Q 6.984375 53.65625 15.1875 63.9375 
Q 23.390625 74.21875 37.203125 74.21875 
Q 40.921875 74.21875 44.703125 73.484375 
Q 48.484375 72.75 52.59375 71.296875 
z
" id="DejaVuSans-54"/>
       </defs>
       <use xlink:href="#DejaVuSans-54"/>
       <use x="63.623047" xlink:href="#DejaVuSans-48"/>
      </g>
     </g>
    </g>
    <g id="xtick_5">
     <g id="line2d_5">
      <g>
       <use style="stroke:#000000;stroke-width:0.8;" x="374.144667" xlink:href="#m401c8cc94b" y="307.584"/>
      </g>
     </g>
     <g id="text_5">
      <!-- 80 -->
      <g transform="translate(367.782167 322.182437)scale(0.1 -0.1)">
       <defs>
        <path d="M 31.78125 34.625 
Q 24.75 34.625 20.71875 30.859375 
Q 16.703125 27.09375 16.703125 20.515625 
Q 16.703125 13.921875 20.71875 10.15625 
Q 24.75 6.390625 31.78125 6.390625 
Q 38.8125 6.390625 42.859375 10.171875 
Q 46.921875 13.96875 46.921875 20.515625 
Q 46.921875 27.09375 42.890625 30.859375 
Q 38.875 34.625 31.78125 34.625 
z
M 21.921875 38.8125 
Q 15.578125 40.375 12.03125 44.71875 
Q 8.5 49.078125 8.5 55.328125 
Q 8.5 64.0625 14.71875 69.140625 
Q 20.953125 74.21875 31.78125 74.21875 
Q 42.671875 74.21875 48.875 69.140625 
Q 55.078125 64.0625 55.078125 55.328125 
Q 55.078125 49.078125 51.53125 44.71875 
Q 48 40.375 41.703125 38.8125 
Q 48.828125 37.15625 52.796875 32.3125 
Q 56.78125 27.484375 56.78125 20.515625 
Q 56.78125 9.90625 50.3125 4.234375 
Q 43.84375 -1.421875 31.78125 -1.421875 
Q 19.734375 -1.421875 13.25 4.234375 
Q 6.78125 9.90625 6.78125 20.515625 
Q 6.78125 27.484375 10.78125 32.3125 
Q 14.796875 37.15625 21.921875 38.8125 
z
M 18.3125 54.390625 
Q 18.3125 48.734375 21.84375 45.5625 
Q 25.390625 42.390625 31.78125 42.390625 
Q 38.140625 42.390625 41.71875 45.5625 
Q 45.3125 48.734375 45.3125 54.390625 
Q 45.3125 60.0625 41.71875 63.234375 
Q 38.140625 66.40625 31.78125 66.40625 
Q 25.390625 66.40625 21.84375 63.234375 
Q 18.3125 60.0625 18.3125 54.390625 
z
" id="DejaVuSans-56"/>
       </defs>
       <use xlink:href="#DejaVuSans-56"/>
       <use x="63.623047" xlink:href="#DejaVuSans-48"/>
      </g>
     </g>
    </g>
   </g>
   <g id="matplotlib.axis_2">
    <g id="ytick_1">
     <g id="line2d_6">
      <defs>
       <path d="M 0 0 
L -3.5 0 
" id="m3644b8684a" style="stroke:#000000;stroke-width:0.8;"/>
      </defs>
      <g>
       <use style="stroke:#000000;stroke-width:0.8;" x="57.6" xlink:href="#m3644b8684a" y="279.480938"/>
      </g>
     </g>
     <g id="text_6">
      <!-- 10 -->
      <g transform="translate(37.875 283.280157)scale(0.1 -0.1)">
       <defs>
        <path d="M 12.40625 8.296875 
L 28.515625 8.296875 
L 28.515625 63.921875 
L 10.984375 60.40625 
L 10.984375 69.390625 
L 28.421875 72.90625 
L 38.28125 72.90625 
L 38.28125 8.296875 
L 54.390625 8.296875 
L 54.390625 0 
L 12.40625 0 
z
" id="DejaVuSans-49"/>
       </defs>
       <use xlink:href="#DejaVuSans-49"/>
       <use x="63.623047" xlink:href="#DejaVuSans-48"/>
      </g>
     </g>
    </g>
    <g id="ytick_2">
     <g id="line2d_7">
      <g>
       <use style="stroke:#000000;stroke-width:0.8;" x="57.6" xlink:href="#m3644b8684a" y="242.636485"/>
      </g>
     </g>
     <g id="text_7">
      <!-- 20 -->
      <g transform="translate(37.875 246.435704)scale(0.1 -0.1)">
       <use xlink:href="#DejaVuSans-50"/>
       <use x="63.623047" xlink:href="#DejaVuSans-48"/>
      </g>
     </g>
    </g>
    <g id="ytick_3">
     <g id="line2d_8">
      <g>
       <use style="stroke:#000000;stroke-width:0.8;" x="57.6" xlink:href="#m3644b8684a" y="205.792032"/>
      </g>
     </g>
     <g id="text_8">
      <!-- 30 -->
      <g transform="translate(37.875 209.591251)scale(0.1 -0.1)">
       <defs>
        <path d="M 40.578125 39.3125 
Q 47.65625 37.796875 51.625 33 
Q 55.609375 28.21875 55.609375 21.1875 
Q 55.609375 10.40625 48.1875 4.484375 
Q 40.765625 -1.421875 27.09375 -1.421875 
Q 22.515625 -1.421875 17.65625 -0.515625 
Q 12.796875 0.390625 7.625 2.203125 
L 7.625 11.71875 
Q 11.71875 9.328125 16.59375 8.109375 
Q 21.484375 6.890625 26.8125 6.890625 
Q 36.078125 6.890625 40.9375 10.546875 
Q 45.796875 14.203125 45.796875 21.1875 
Q 45.796875 27.640625 41.28125 31.265625 
Q 36.765625 34.90625 28.71875 34.90625 
L 20.21875 34.90625 
L 20.21875 43.015625 
L 29.109375 43.015625 
Q 36.375 43.015625 40.234375 45.921875 
Q 44.09375 48.828125 44.09375 54.296875 
Q 44.09375 59.90625 40.109375 62.90625 
Q 36.140625 65.921875 28.71875 65.921875 
Q 24.65625 65.921875 20.015625 65.03125 
Q 15.375 64.15625 9.8125 62.3125 
L 9.8125 71.09375 
Q 15.4375 72.65625 20.34375 73.4375 
Q 25.25 74.21875 29.59375 74.21875 
Q 40.828125 74.21875 47.359375 69.109375 
Q 53.90625 64.015625 53.90625 55.328125 
Q 53.90625 49.265625 50.4375 45.09375 
Q 46.96875 40.921875 40.578125 39.3125 
z
" id="DejaVuSans-51"/>
       </defs>
       <use xlink:href="#DejaVuSans-51"/>
       <use x="63.623047" xlink:href="#DejaVuSans-48"/>
      </g>
     </g>
    </g>
    <g id="ytick_4">
     <g id="line2d_9">
      <g>
       <use style="stroke:#000000;stroke-width:0.8;" x="57.6" xlink:href="#m3644b8684a" y="168.947579"/>
      </g>
     </g>
     <g id="text_9">
      <!-- 40 -->
      <g transform="translate(37.875 172.746798)scale(0.1 -0.1)">
       <use xlink:href="#DejaVuSans-52"/>
       <use x="63.623047" xlink:href="#DejaVuSans-48"/>
      </g>
     </g>
    </g>
    <g id="ytick_5">
     <g id="line2d_10">
      <g>
       <use style="stroke:#000000;stroke-width:0.8;" x="57.6" xlink:href="#m3644b8684a" y="132.103127"/>
      </g>
     </g>
     <g id="text_10">
      <!-- 50 -->
      <g transform="translate(37.875 135.902345)scale(0.1 -0.1)">
       <defs>
        <path d="M 10.796875 72.90625 
L 49.515625 72.90625 
L 49.515625 64.59375 
L 19.828125 64.59375 
L 19.828125 46.734375 
Q 21.96875 47.46875 24.109375 47.828125 
Q 26.265625 48.1875 28.421875 48.1875 
Q 40.625 48.1875 47.75 41.5 
Q 54.890625 34.8125 54.890625 23.390625 
Q 54.890625 11.625 47.5625 5.09375 
Q 40.234375 -1.421875 26.90625 -1.421875 
Q 22.3125 -1.421875 17.546875 -0.640625 
Q 12.796875 0.140625 7.71875 1.703125 
L 7.71875 11.625 
Q 12.109375 9.234375 16.796875 8.0625 
Q 21.484375 6.890625 26.703125 6.890625 
Q 35.15625 6.890625 40.078125 11.328125 
Q 45.015625 15.765625 45.015625 23.390625 
Q 45.015625 31 40.078125 35.4375 
Q 35.15625 39.890625 26.703125 39.890625 
Q 22.75 39.890625 18.8125 39.015625 
Q 14.890625 38.140625 10.796875 36.28125 
z
" id="DejaVuSans-53"/>
       </defs>
       <use xlink:href="#DejaVuSans-53"/>
       <use x="63.623047" xlink:href="#DejaVuSans-48"/>
      </g>
     </g>
    </g>
    <g id="ytick_6">
     <g id="line2d_11">
      <g>
       <use style="stroke:#000000;stroke-width:0.8;" x="57.6" xlink:href="#m3644b8684a" y="95.258674"/>
      </g>
     </g>
     <g id="text_11">
      <!-- 60 -->
      <g transform="translate(37.875 99.057893)scale(0.1 -0.1)">
       <use xlink:href="#DejaVuSans-54"/>
       <use x="63.623047" xlink:href="#DejaVuSans-48"/>
      </g>
     </g>
    </g>
    <g id="ytick_7">
     <g id="line2d_12">
      <g>
       <use style="stroke:#000000;stroke-width:0.8;" x="57.6" xlink:href="#m3644b8684a" y="58.414221"/>
      </g>
     </g>
     <g id="text_12">
      <!-- 70 -->
      <g transform="translate(37.875 62.21344)scale(0.1 -0.1)">
       <defs>
        <path d="M 8.203125 72.90625 
L 55.078125 72.90625 
L 55.078125 68.703125 
L 28.609375 0 
L 18.3125 0 
L 43.21875 64.59375 
L 8.203125 64.59375 
z
" id="DejaVuSans-55"/>
       </defs>
       <use xlink:href="#DejaVuSans-55"/>
       <use x="63.623047" xlink:href="#DejaVuSans-48"/>
      </g>
     </g>
    </g>
   </g>
   <g id="line2d_13">
    <path clip-path="url(#ped0b50fe48)" d="M 116.233498 218.459155 
L 116.601942 211.112371 
L 116.705107 203.747165 
L 116.55036 192.68646 
L 116.141387 174.234758 
L 116.167178 166.858499 
L 116.428773 159.493293 
L 117.007231 152.142825 
L 117.438311 148.473117 
L 117.983609 144.810778 
L 118.646809 141.152124 
L 119.435281 137.511892 
L 120.356392 133.901136 
L 121.413828 130.327224 
L 122.611272 126.80121 
L 123.952411 123.337831 
L 125.448295 119.944457 
L 127.098927 116.632141 
L 128.911674 113.41562 
L 130.890221 110.29858 
L 133.038253 107.299441 
L 135.3484 104.41452 
L 137.805925 101.643818 
L 140.39609 98.991017 
L 143.11521 96.456119 
L 145.948549 94.035438 
L 148.881367 91.736344 
L 151.906297 89.555153 
L 155.012284 87.491863 
L 158.180907 85.546476 
L 161.412166 83.722676 
L 164.691322 82.013093 
L 168.022061 80.417728 
L 171.397012 78.929212 
L 178.279556 76.25799 
L 185.309478 73.977318 
L 192.464671 72.050353 
L 199.719343 70.462357 
L 207.047705 69.264912 
L 210.728466 68.833832 
L 214.412911 68.520655 
L 218.104725 68.343801 
L 221.792855 68.299588 
L 225.4773 68.406437 
L 229.154377 68.664348 
L 232.8204 69.088059 
L 236.468 69.662833 
L 240.093495 70.392353 
L 243.693198 71.265566 
L 247.263425 72.278789 
L 250.796808 73.420967 
L 254.285978 74.6921 
L 257.730934 76.081136 
L 261.124308 77.588074 
L 264.462416 79.198177 
L 270.961777 82.716822 
L 277.247441 86.578121 
L 283.359936 90.712068 
L 289.328737 95.052345 
L 298.082979 101.813302 
L 306.64563 108.780588 
L 312.242302 113.566682 
L 317.728441 118.492786 
L 323.104047 123.57732 
L 328.339644 128.846077 
L 333.350489 134.324847 
L 335.741694 137.154501 
L 338.040788 140.05416 
L 340.233033 143.023822 
L 342.307376 146.067174 
L 344.252763 149.195268 
L 346.054456 152.40442 
L 347.701403 155.698314 
L 349.197288 159.073266 
L 350.538426 162.521907 
L 351.735871 166.029499 
L 352.782254 169.592357 
L 353.684943 173.203114 
L 354.447623 176.84703 
L 355.06661 180.516738 
L 355.549272 184.208552 
L 355.899294 187.907735 
L 356.109308 191.610602 
L 356.190365 195.309785 
L 356.138783 199.005284 
L 355.958245 202.697098 
L 355.648752 206.377859 
L 355.213987 210.047567 
L 354.650267 213.706221 
L 353.961276 217.346453 
L 353.150698 220.968262 
L 352.214849 224.567965 
L 351.157413 228.141877 
L 349.974706 231.682629 
L 348.659359 235.175483 
L 347.211372 238.609386 
L 345.623376 241.976969 
L 343.888003 245.25981 
L 342.005251 248.45054 
L 339.967753 251.538105 
L 337.771823 254.511452 
L 335.413778 257.359528 
L 332.886249 260.067596 
L 330.207657 262.63197 
L 327.378003 265.045281 
L 324.415709 267.307531 
L 321.331829 269.407664 
L 318.13373 271.345683 
L 314.839836 273.110532 
L 311.450146 274.702212 
L 307.986768 276.113355 
L 304.453385 277.336591 
L 300.86842 278.368235 
L 297.231872 279.211973 
L 293.562165 279.871489 
L 289.866666 280.346782 
L 286.152745 280.637854 
L 282.431455 280.752071 
L 278.71385 280.69312 
L 275.007298 280.457316 
L 271.326537 280.052027 
L 267.671568 279.480938 
L 264.060811 278.744049 
L 260.486899 277.856097 
L 256.949832 276.828137 
L 253.449609 275.671221 
L 246.548643 273.02579 
L 239.769263 270.022967 
L 233.093049 266.762233 
L 223.22242 261.618747 
L 213.407057 256.478946 
L 206.822954 253.23295 
L 200.150423 250.259602 
L 196.771787 248.903726 
L 193.352622 247.658384 
L 189.889243 246.530944 
L 186.381651 245.539828 
L 182.818793 244.692406 
L 179.196983 244.007099 
L 175.508853 243.494961 
L 171.750719 243.167045 
L 167.918896 243.041774 
L 164.002331 243.126516 
L 164.002331 243.126516 
" style="fill:none;stroke:#fea952;stroke-linecap:square;"/>
   </g>
   <g id="line2d_14">
    <path clip-path="url(#ped0b50fe48)" d="M 101.522332 217.573829 
L 101.867734 210.787894 
L 101.96751 203.820853 
L 101.817538 193.068749 
L 101.403672 174.278883 
L 101.434375 166.475446 
L 101.723115 158.520774 
L 102.370094 150.423402 
L 102.861226 146.302686 
L 103.48215 142.182115 
L 104.243034 138.032278 
L 105.154841 133.868923 
L 106.22422 129.719761 
L 107.45881 125.588059 
L 108.867923 121.479317 
L 110.466803 117.393036 
L 112.257631 113.371134 
L 114.259733 109.396307 
L 116.4689 105.517547 
L 118.908545 101.717109 
L 121.53428 98.087448 
L 124.322735 94.635108 
L 127.260995 91.347865 
L 130.34648 88.211057 
L 133.542002 85.250947 
L 136.856106 82.436745 
L 140.261576 79.782207 
L 143.751421 77.279152 
L 147.301292 74.932293 
L 150.936792 72.711953 
L 154.598984 70.654288 
L 158.324822 68.721371 
L 162.074749 66.933231 
L 165.867805 65.267951 
L 169.68541 63.72939 
L 173.548596 62.300189 
L 181.305274 59.793928 
L 189.131525 57.694437 
L 197.133131 55.953267 
L 201.21183 55.232491 
L 205.333376 54.627178 
L 209.480255 54.149005 
L 213.707718 53.799755 
L 217.928061 53.607079 
L 222.220071 53.568 
L 226.508479 53.704775 
L 230.846474 54.024027 
L 235.114411 54.52991 
L 239.375257 55.214648 
L 243.567814 56.069947 
L 247.716849 57.087681 
L 251.796509 58.255474 
L 255.84156 59.573488 
L 259.797239 61.023589 
L 263.712443 62.611773 
L 267.527037 64.313766 
L 271.293163 66.138963 
L 274.938817 68.052641 
L 282.007472 72.150863 
L 288.708255 76.49147 
L 295.112046 81.003133 
L 301.287432 85.625161 
L 310.256844 92.67277 
L 316.160094 97.525493 
L 322.026232 102.545026 
L 327.783775 107.718165 
L 333.466522 113.097755 
L 339.091859 118.766789 
L 344.607222 124.812321 
L 347.289943 127.998075 
L 349.897755 131.301188 
L 352.411038 134.723318 
L 354.822349 138.284011 
L 357.103758 141.980415 
L 359.236329 145.813484 
L 361.175017 149.726385 
L 362.932969 153.731612 
L 364.485851 157.760444 
L 365.876419 161.876535 
L 367.080001 166.01792 
L 368.110145 170.183885 
L 368.980121 174.395765 
L 369.680029 178.606201 
L 370.221517 182.820242 
L 370.613428 187.073202 
L 370.843552 191.28774 
L 370.926711 195.515477 
L 370.858974 199.725134 
L 370.644202 203.931953 
L 370.284179 208.111775 
L 369.779884 212.291859 
L 369.130955 216.446999 
L 368.343271 220.565211 
L 367.414325 224.676513 
L 366.347021 228.74934 
L 365.135988 232.8111 
L 363.766933 236.876537 
L 362.239201 240.901747 
L 360.54143 244.895223 
L 358.652715 248.864532 
L 356.580816 252.749449 
L 354.306082 256.567914 
L 351.822882 260.293566 
L 349.123736 263.91019 
L 346.187911 267.415385 
L 343.077991 270.71328 
L 339.771193 273.845398 
L 336.322898 276.75814 
L 332.711269 279.488905 
L 328.969802 282.011773 
L 325.094032 284.336309 
L 321.103964 286.450805 
L 317.011127 288.350571 
L 312.80815 290.04018 
L 308.529072 291.499605 
L 304.199344 292.724667 
L 299.838764 293.717362 
L 295.442166 294.488869 
L 291.018179 295.039509 
L 286.60488 295.368698 
L 282.197784 295.488 
L 277.778149 295.401168 
L 273.394268 295.106559 
L 269.051365 294.613132 
L 264.724601 293.921076 
L 260.507195 293.046986 
L 256.373909 292.008323 
L 252.324702 290.821363 
L 248.371735 289.506589 
L 244.515285 288.084785 
L 237.025834 284.970809 
L 229.846702 281.610858 
L 222.952403 278.127696 
L 203.711597 268.097847 
L 197.651011 265.235205 
L 191.728064 262.75158 
L 185.8818 260.713419 
L 182.97142 259.877628 
L 180.078778 259.173238 
L 177.169928 258.604812 
L 174.227777 258.176958 
L 171.269164 257.896957 
L 168.237701 257.776107 
L 164.321136 257.860849 
L 164.321136 257.860849 
" style="fill:none;stroke:#ffffff;stroke-linecap:square;"/>
   </g>
   <g id="line2d_15">
    <path clip-path="url(#ped0b50fe48)" d="M 130.944663 219.344481 
L 131.336151 211.436848 
L 131.442704 203.673477 
L 131.283182 192.304172 
L 130.879102 174.190634 
L 130.89998 167.241552 
L 131.134432 160.465811 
L 131.644368 153.862247 
L 132.485068 147.439442 
L 133.715721 141.154862 
L 134.488564 138.082511 
L 135.368845 135.066389 
L 136.354622 132.123103 
L 137.438018 129.282627 
L 138.638959 126.51778 
L 139.938121 123.867975 
L 141.354448 121.313693 
L 142.871897 118.88005 
L 144.542225 116.511434 
L 146.374064 114.193933 
L 148.350855 111.93977 
L 150.4457 109.770977 
L 152.688419 107.66129 
L 155.040992 105.634131 
L 157.501159 103.690481 
L 160.061173 101.831153 
L 162.723276 100.051433 
L 165.425022 98.380999 
L 171.057822 95.304815 
L 176.92622 92.590473 
L 183.010516 90.215791 
L 189.313682 88.160708 
L 195.797816 86.406269 
L 202.305556 84.971447 
L 208.762034 83.902647 
L 215.118104 83.241554 
L 221.365639 83.031176 
L 224.446122 83.108099 
L 227.462279 83.304669 
L 230.526388 83.646208 
L 233.560744 84.111018 
L 236.619175 84.714758 
L 239.669546 85.443451 
L 242.730341 86.302103 
L 245.752056 87.268446 
L 251.749425 89.550499 
L 257.631668 92.257391 
L 263.411741 95.373802 
L 269.120021 98.872316 
L 274.778465 102.693744 
L 280.424965 106.796494 
L 288.89256 113.334517 
L 297.131165 120.035683 
L 302.458372 124.588339 
L 307.673107 129.267406 
L 312.741571 134.056886 
L 317.587428 138.925365 
L 322.093756 143.837373 
L 326.183821 148.807132 
L 328.055028 151.324327 
L 329.792402 153.850338 
L 331.401767 156.410121 
L 332.872584 158.995356 
L 334.22779 161.670243 
L 335.461607 164.41492 
L 336.591002 167.28337 
L 337.595323 170.182462 
L 338.484506 173.166794 
L 339.259741 176.222342 
L 339.915125 179.298295 
L 340.45319 182.427275 
L 340.877026 185.596862 
L 341.18516 188.742268 
L 341.45402 195.104094 
L 341.272289 201.462243 
L 340.648091 207.803274 
L 339.579281 214.127695 
L 338.082677 220.386591 
L 336.18248 226.488721 
L 335.079518 229.44922 
L 333.881314 232.323549 
L 332.594038 235.089406 
L 331.19519 237.770171 
L 329.70442 240.333166 
L 328.112623 242.782644 
L 326.419911 245.112715 
L 324.639646 247.303671 
L 322.694507 249.421911 
L 320.644121 251.418541 
L 318.433109 253.332423 
L 316.12015 255.126156 
L 313.693855 256.803556 
L 311.173428 258.355056 
L 308.575708 259.770259 
L 305.889166 261.053854 
L 303.165385 262.18653 
L 300.377697 263.173577 
L 297.537495 264.011804 
L 294.62498 264.706584 
L 291.682163 265.254109 
L 288.715153 265.654056 
L 285.70061 265.90701 
L 282.665127 266.016143 
L 279.649551 265.985073 
L 276.620328 265.808073 
L 273.60171 265.490922 
L 270.618534 265.0408 
L 267.614427 264.441112 
L 264.59989 263.703872 
L 261.574961 262.834911 
L 255.457176 260.71539 
L 249.262596 258.155321 
L 242.993504 255.229608 
L 236.6238 252.014449 
L 216.536837 241.558782 
L 209.348157 238.179974 
L 205.639324 236.582097 
L 201.81551 235.055873 
L 197.914606 233.644445 
L 193.896686 232.348469 
L 189.791883 231.202028 
L 185.558808 230.211573 
L 181.224038 229.409385 
L 176.78993 228.812964 
L 172.232274 228.437134 
L 167.600091 228.307441 
L 163.683526 228.392184 
L 163.683526 228.392184 
" style="fill:none;stroke:#ffffff;stroke-linecap:square;"/>
   </g>
   <g id="patch_3">
    <path d="M 57.6 307.584 
L 57.6 41.472 
" style="fill:none;stroke:#000000;stroke-linecap:square;stroke-linejoin:miter;stroke-width:0.8;"/>
   </g>
   <g id="patch_4">
    <path d="M 414.72 307.584 
L 414.72 41.472 
" style="fill:none;stroke:#000000;stroke-linecap:square;stroke-linejoin:miter;stroke-width:0.8;"/>
   </g>
   <g id="patch_5">
    <path d="M 57.6 307.584 
L 414.72 307.584 
" style="fill:none;stroke:#000000;stroke-linecap:square;stroke-linejoin:miter;stroke-width:0.8;"/>
   </g>
   <g id="patch_6">
    <path d="M 57.6 41.472 
L 414.72 41.472 
" style="fill:none;stroke:#000000;stroke-linecap:square;stroke-linejoin:miter;stroke-width:0.8;"/>
   </g>
  </g>
 </g>
 <defs>
  <clipPath id="ped0b50fe48">
   <rect height="266.112" width="357.12" x="57.6" y="41.472"/>
  </clipPath>
 </defs>
</svg>
