<?xml version="1.0" encoding="utf-8" standalone="no"?>
<!DOCTYPE svg PUBLIC "-//W3C//DTD SVG 1.1//EN"
  "http://www.w3.org/Graphics/SVG/1.1/DTD/svg11.dtd">
<!-- Created with matplotlib (https://matplotlib.org/) -->
<svg height="345.6pt" version="1.1" viewBox="0 0 460.8 345.6" width="460.8pt" xmlns="http://www.w3.org/2000/svg" xmlns:xlink="http://www.w3.org/1999/xlink">
 <metadata>
  <rdf:RDF xmlns:cc="http://creativecommons.org/ns#" xmlns:dc="http://purl.org/dc/elements/1.1/" xmlns:rdf="http://www.w3.org/1999/02/22-rdf-syntax-ns#">
   <cc:Work>
    <dc:type rdf:resource="http://purl.org/dc/dcmitype/StillImage"/>
    <dc:date>2021-01-22T10:43:51.529290</dc:date>
    <dc:format>image/svg+xml</dc:format>
    <dc:creator>
     <cc:Agent>
      <dc:title>Matplotlib v3.3.3, https://matplotlib.org/</dc:title>
     </cc:Agent>
    </dc:creator>
   </cc:Work>
  </rdf:RDF>
 </metadata>
 <defs>
  <style type="text/css">*{stroke-linecap:butt;stroke-linejoin:round;}</style>
 </defs>
 <g id="figure_1">
  <g id="patch_1">
   <path d="M 0 345.6 
L 460.8 345.6 
L 460.8 0 
L 0 0 
z
" style="fill:#ffffff;"/>
  </g>
  <g id="axes_1">
   <g id="patch_2">
    <path d="M 57.6 307.584 
L 414.72 307.584 
L 414.72 41.472 
L 57.6 41.472 
z
" style="fill:#7d9051;"/>
   </g>
   <g id="matplotlib.axis_1">
    <g id="xtick_1">
     <g id="line2d_1">
      <defs>
       <path d="M 0 0 
L 0 3.5 
" id="m6f2ef0959d" style="stroke:#000000;stroke-width:0.8;"/>
      </defs>
      <g>
       <use style="stroke:#000000;stroke-width:0.8;" x="120.168992" xlink:href="#m6f2ef0959d" y="307.584"/>
      </g>
     </g>
     <g id="text_1">
      <!-- 20 -->
      <g transform="translate(113.806492 322.182437)scale(0.1 -0.1)">
       <defs>
        <path d="M 19.1875 8.296875 
L 53.609375 8.296875 
L 53.609375 0 
L 7.328125 0 
L 7.328125 8.296875 
Q 12.9375 14.109375 22.625 23.890625 
Q 32.328125 33.6875 34.8125 36.53125 
Q 39.546875 41.84375 41.421875 45.53125 
Q 43.3125 49.21875 43.3125 52.78125 
Q 43.3125 58.59375 39.234375 62.25 
Q 35.15625 65.921875 28.609375 65.921875 
Q 23.96875 65.921875 18.8125 64.3125 
Q 13.671875 62.703125 7.8125 59.421875 
L 7.8125 69.390625 
Q 13.765625 71.78125 18.9375 73 
Q 24.125 74.21875 28.421875 74.21875 
Q 39.75 74.21875 46.484375 68.546875 
Q 53.21875 62.890625 53.21875 53.421875 
Q 53.21875 48.921875 51.53125 44.890625 
Q 49.859375 40.875 45.40625 35.40625 
Q 44.1875 33.984375 37.640625 27.21875 
Q 31.109375 20.453125 19.1875 8.296875 
z
" id="DejaVuSans-50"/>
        <path d="M 31.78125 66.40625 
Q 24.171875 66.40625 20.328125 58.90625 
Q 16.5 51.421875 16.5 36.375 
Q 16.5 21.390625 20.328125 13.890625 
Q 24.171875 6.390625 31.78125 6.390625 
Q 39.453125 6.390625 43.28125 13.890625 
Q 47.125 21.390625 47.125 36.375 
Q 47.125 51.421875 43.28125 58.90625 
Q 39.453125 66.40625 31.78125 66.40625 
z
M 31.78125 74.21875 
Q 44.046875 74.21875 50.515625 64.515625 
Q 56.984375 54.828125 56.984375 36.375 
Q 56.984375 17.96875 50.515625 8.265625 
Q 44.046875 -1.421875 31.78125 -1.421875 
Q 19.53125 -1.421875 13.0625 8.265625 
Q 6.59375 17.96875 6.59375 36.375 
Q 6.59375 54.828125 13.0625 64.515625 
Q 19.53125 74.21875 31.78125 74.21875 
z
" id="DejaVuSans-48"/>
       </defs>
       <use xlink:href="#DejaVuSans-50"/>
       <use x="63.623047" xlink:href="#DejaVuSans-48"/>
      </g>
     </g>
    </g>
    <g id="xtick_2">
     <g id="line2d_2">
      <g>
       <use style="stroke:#000000;stroke-width:0.8;" x="184.94045" xlink:href="#m6f2ef0959d" y="307.584"/>
      </g>
     </g>
     <g id="text_2">
      <!-- 40 -->
      <g transform="translate(178.57795 322.182437)scale(0.1 -0.1)">
       <defs>
        <path d="M 37.796875 64.3125 
L 12.890625 25.390625 
L 37.796875 25.390625 
z
M 35.203125 72.90625 
L 47.609375 72.90625 
L 47.609375 25.390625 
L 58.015625 25.390625 
L 58.015625 17.1875 
L 47.609375 17.1875 
L 47.609375 0 
L 37.796875 0 
L 37.796875 17.1875 
L 4.890625 17.1875 
L 4.890625 26.703125 
z
" id="DejaVuSans-52"/>
       </defs>
       <use xlink:href="#DejaVuSans-52"/>
       <use x="63.623047" xlink:href="#DejaVuSans-48"/>
      </g>
     </g>
    </g>
    <g id="xtick_3">
     <g id="line2d_3">
      <g>
       <use style="stroke:#000000;stroke-width:0.8;" x="249.711908" xlink:href="#m6f2ef0959d" y="307.584"/>
      </g>
     </g>
     <g id="text_3">
      <!-- 60 -->
      <g transform="translate(243.349408 322.182437)scale(0.1 -0.1)">
       <defs>
        <path d="M 33.015625 40.375 
Q 26.375 40.375 22.484375 35.828125 
Q 18.609375 31.296875 18.609375 23.390625 
Q 18.609375 15.53125 22.484375 10.953125 
Q 26.375 6.390625 33.015625 6.390625 
Q 39.65625 6.390625 43.53125 10.953125 
Q 47.40625 15.53125 47.40625 23.390625 
Q 47.40625 31.296875 43.53125 35.828125 
Q 39.65625 40.375 33.015625 40.375 
z
M 52.59375 71.296875 
L 52.59375 62.3125 
Q 48.875 64.0625 45.09375 64.984375 
Q 41.3125 65.921875 37.59375 65.921875 
Q 27.828125 65.921875 22.671875 59.328125 
Q 17.53125 52.734375 16.796875 39.40625 
Q 19.671875 43.65625 24.015625 45.921875 
Q 28.375 48.1875 33.59375 48.1875 
Q 44.578125 48.1875 50.953125 41.515625 
Q 57.328125 34.859375 57.328125 23.390625 
Q 57.328125 12.15625 50.6875 5.359375 
Q 44.046875 -1.421875 33.015625 -1.421875 
Q 20.359375 -1.421875 13.671875 8.265625 
Q 6.984375 17.96875 6.984375 36.375 
Q 6.984375 53.65625 15.1875 63.9375 
Q 23.390625 74.21875 37.203125 74.21875 
Q 40.921875 74.21875 44.703125 73.484375 
Q 48.484375 72.75 52.59375 71.296875 
z
" id="DejaVuSans-54"/>
       </defs>
       <use xlink:href="#DejaVuSans-54"/>
       <use x="63.623047" xlink:href="#DejaVuSans-48"/>
      </g>
     </g>
    </g>
    <g id="xtick_4">
     <g id="line2d_4">
      <g>
       <use style="stroke:#000000;stroke-width:0.8;" x="314.483367" xlink:href="#m6f2ef0959d" y="307.584"/>
      </g>
     </g>
     <g id="text_4">
      <!-- 80 -->
      <g transform="translate(308.120867 322.182437)scale(0.1 -0.1)">
       <defs>
        <path d="M 31.78125 34.625 
Q 24.75 34.625 20.71875 30.859375 
Q 16.703125 27.09375 16.703125 20.515625 
Q 16.703125 13.921875 20.71875 10.15625 
Q 24.75 6.390625 31.78125 6.390625 
Q 38.8125 6.390625 42.859375 10.171875 
Q 46.921875 13.96875 46.921875 20.515625 
Q 46.921875 27.09375 42.890625 30.859375 
Q 38.875 34.625 31.78125 34.625 
z
M 21.921875 38.8125 
Q 15.578125 40.375 12.03125 44.71875 
Q 8.5 49.078125 8.5 55.328125 
Q 8.5 64.0625 14.71875 69.140625 
Q 20.953125 74.21875 31.78125 74.21875 
Q 42.671875 74.21875 48.875 69.140625 
Q 55.078125 64.0625 55.078125 55.328125 
Q 55.078125 49.078125 51.53125 44.71875 
Q 48 40.375 41.703125 38.8125 
Q 48.828125 37.15625 52.796875 32.3125 
Q 56.78125 27.484375 56.78125 20.515625 
Q 56.78125 9.90625 50.3125 4.234375 
Q 43.84375 -1.421875 31.78125 -1.421875 
Q 19.734375 -1.421875 13.25 4.234375 
Q 6.78125 9.90625 6.78125 20.515625 
Q 6.78125 27.484375 10.78125 32.3125 
Q 14.796875 37.15625 21.921875 38.8125 
z
M 18.3125 54.390625 
Q 18.3125 48.734375 21.84375 45.5625 
Q 25.390625 42.390625 31.78125 42.390625 
Q 38.140625 42.390625 41.71875 45.5625 
Q 45.3125 48.734375 45.3125 54.390625 
Q 45.3125 60.0625 41.71875 63.234375 
Q 38.140625 66.40625 31.78125 66.40625 
Q 25.390625 66.40625 21.84375 63.234375 
Q 18.3125 60.0625 18.3125 54.390625 
z
" id="DejaVuSans-56"/>
       </defs>
       <use xlink:href="#DejaVuSans-56"/>
       <use x="63.623047" xlink:href="#DejaVuSans-48"/>
      </g>
     </g>
    </g>
    <g id="xtick_5">
     <g id="line2d_5">
      <g>
       <use style="stroke:#000000;stroke-width:0.8;" x="379.254825" xlink:href="#m6f2ef0959d" y="307.584"/>
      </g>
     </g>
     <g id="text_5">
      <!-- 100 -->
      <g transform="translate(369.711075 322.182437)scale(0.1 -0.1)">
       <defs>
        <path d="M 12.40625 8.296875 
L 28.515625 8.296875 
L 28.515625 63.921875 
L 10.984375 60.40625 
L 10.984375 69.390625 
L 28.421875 72.90625 
L 38.28125 72.90625 
L 38.28125 8.296875 
L 54.390625 8.296875 
L 54.390625 0 
L 12.40625 0 
z
" id="DejaVuSans-49"/>
       </defs>
       <use xlink:href="#DejaVuSans-49"/>
       <use x="63.623047" xlink:href="#DejaVuSans-48"/>
       <use x="127.246094" xlink:href="#DejaVuSans-48"/>
      </g>
     </g>
    </g>
   </g>
   <g id="matplotlib.axis_2">
    <g id="ytick_1">
     <g id="line2d_6">
      <defs>
       <path d="M 0 0 
L -3.5 0 
" id="m751034b376" style="stroke:#000000;stroke-width:0.8;"/>
      </defs>
      <g>
       <use style="stroke:#000000;stroke-width:0.8;" x="57.6" xlink:href="#m751034b376" y="295.141496"/>
      </g>
     </g>
     <g id="text_6">
      <!-- 10 -->
      <g transform="translate(37.875 298.940715)scale(0.1 -0.1)">
       <use xlink:href="#DejaVuSans-49"/>
       <use x="63.623047" xlink:href="#DejaVuSans-48"/>
      </g>
     </g>
    </g>
    <g id="ytick_2">
     <g id="line2d_7">
      <g>
       <use style="stroke:#000000;stroke-width:0.8;" x="57.6" xlink:href="#m751034b376" y="262.755767"/>
      </g>
     </g>
     <g id="text_7">
      <!-- 20 -->
      <g transform="translate(37.875 266.554986)scale(0.1 -0.1)">
       <use xlink:href="#DejaVuSans-50"/>
       <use x="63.623047" xlink:href="#DejaVuSans-48"/>
      </g>
     </g>
    </g>
    <g id="ytick_3">
     <g id="line2d_8">
      <g>
       <use style="stroke:#000000;stroke-width:0.8;" x="57.6" xlink:href="#m751034b376" y="230.370038"/>
      </g>
     </g>
     <g id="text_8">
      <!-- 30 -->
      <g transform="translate(37.875 234.169257)scale(0.1 -0.1)">
       <defs>
        <path d="M 40.578125 39.3125 
Q 47.65625 37.796875 51.625 33 
Q 55.609375 28.21875 55.609375 21.1875 
Q 55.609375 10.40625 48.1875 4.484375 
Q 40.765625 -1.421875 27.09375 -1.421875 
Q 22.515625 -1.421875 17.65625 -0.515625 
Q 12.796875 0.390625 7.625 2.203125 
L 7.625 11.71875 
Q 11.71875 9.328125 16.59375 8.109375 
Q 21.484375 6.890625 26.8125 6.890625 
Q 36.078125 6.890625 40.9375 10.546875 
Q 45.796875 14.203125 45.796875 21.1875 
Q 45.796875 27.640625 41.28125 31.265625 
Q 36.765625 34.90625 28.71875 34.90625 
L 20.21875 34.90625 
L 20.21875 43.015625 
L 29.109375 43.015625 
Q 36.375 43.015625 40.234375 45.921875 
Q 44.09375 48.828125 44.09375 54.296875 
Q 44.09375 59.90625 40.109375 62.90625 
Q 36.140625 65.921875 28.71875 65.921875 
Q 24.65625 65.921875 20.015625 65.03125 
Q 15.375 64.15625 9.8125 62.3125 
L 9.8125 71.09375 
Q 15.4375 72.65625 20.34375 73.4375 
Q 25.25 74.21875 29.59375 74.21875 
Q 40.828125 74.21875 47.359375 69.109375 
Q 53.90625 64.015625 53.90625 55.328125 
Q 53.90625 49.265625 50.4375 45.09375 
Q 46.96875 40.921875 40.578125 39.3125 
z
" id="DejaVuSans-51"/>
       </defs>
       <use xlink:href="#DejaVuSans-51"/>
       <use x="63.623047" xlink:href="#DejaVuSans-48"/>
      </g>
     </g>
    </g>
    <g id="ytick_4">
     <g id="line2d_9">
      <g>
       <use style="stroke:#000000;stroke-width:0.8;" x="57.6" xlink:href="#m751034b376" y="197.984309"/>
      </g>
     </g>
     <g id="text_9">
      <!-- 40 -->
      <g transform="translate(37.875 201.783527)scale(0.1 -0.1)">
       <use xlink:href="#DejaVuSans-52"/>
       <use x="63.623047" xlink:href="#DejaVuSans-48"/>
      </g>
     </g>
    </g>
    <g id="ytick_5">
     <g id="line2d_10">
      <g>
       <use style="stroke:#000000;stroke-width:0.8;" x="57.6" xlink:href="#m751034b376" y="165.59858"/>
      </g>
     </g>
     <g id="text_10">
      <!-- 50 -->
      <g transform="translate(37.875 169.397798)scale(0.1 -0.1)">
       <defs>
        <path d="M 10.796875 72.90625 
L 49.515625 72.90625 
L 49.515625 64.59375 
L 19.828125 64.59375 
L 19.828125 46.734375 
Q 21.96875 47.46875 24.109375 47.828125 
Q 26.265625 48.1875 28.421875 48.1875 
Q 40.625 48.1875 47.75 41.5 
Q 54.890625 34.8125 54.890625 23.390625 
Q 54.890625 11.625 47.5625 5.09375 
Q 40.234375 -1.421875 26.90625 -1.421875 
Q 22.3125 -1.421875 17.546875 -0.640625 
Q 12.796875 0.140625 7.71875 1.703125 
L 7.71875 11.625 
Q 12.109375 9.234375 16.796875 8.0625 
Q 21.484375 6.890625 26.703125 6.890625 
Q 35.15625 6.890625 40.078125 11.328125 
Q 45.015625 15.765625 45.015625 23.390625 
Q 45.015625 31 40.078125 35.4375 
Q 35.15625 39.890625 26.703125 39.890625 
Q 22.75 39.890625 18.8125 39.015625 
Q 14.890625 38.140625 10.796875 36.28125 
z
" id="DejaVuSans-53"/>
       </defs>
       <use xlink:href="#DejaVuSans-53"/>
       <use x="63.623047" xlink:href="#DejaVuSans-48"/>
      </g>
     </g>
    </g>
    <g id="ytick_6">
     <g id="line2d_11">
      <g>
       <use style="stroke:#000000;stroke-width:0.8;" x="57.6" xlink:href="#m751034b376" y="133.21285"/>
      </g>
     </g>
     <g id="text_11">
      <!-- 60 -->
      <g transform="translate(37.875 137.012069)scale(0.1 -0.1)">
       <use xlink:href="#DejaVuSans-54"/>
       <use x="63.623047" xlink:href="#DejaVuSans-48"/>
      </g>
     </g>
    </g>
    <g id="ytick_7">
     <g id="line2d_12">
      <g>
       <use style="stroke:#000000;stroke-width:0.8;" x="57.6" xlink:href="#m751034b376" y="100.827121"/>
      </g>
     </g>
     <g id="text_12">
      <!-- 70 -->
      <g transform="translate(37.875 104.62634)scale(0.1 -0.1)">
       <defs>
        <path d="M 8.203125 72.90625 
L 55.078125 72.90625 
L 55.078125 68.703125 
L 28.609375 0 
L 18.3125 0 
L 43.21875 64.59375 
L 8.203125 64.59375 
z
" id="DejaVuSans-55"/>
       </defs>
       <use xlink:href="#DejaVuSans-55"/>
       <use x="63.623047" xlink:href="#DejaVuSans-48"/>
      </g>
     </g>
    </g>
    <g id="ytick_8">
     <g id="line2d_13">
      <g>
       <use style="stroke:#000000;stroke-width:0.8;" x="57.6" xlink:href="#m751034b376" y="68.441392"/>
      </g>
     </g>
     <g id="text_13">
      <!-- 80 -->
      <g transform="translate(37.875 72.240611)scale(0.1 -0.1)">
       <use xlink:href="#DejaVuSans-56"/>
       <use x="63.623047" xlink:href="#DejaVuSans-48"/>
      </g>
     </g>
    </g>
   </g>
   <g id="line2d_14">
    <path clip-path="url(#p036320f574)" d="M 379.497718 295.141496 
L 378.843526 291.821959 
L 378.373933 288.521853 
L 378.075985 285.23794 
L 377.933487 281.97022 
L 377.933487 278.712216 
L 378.302685 272.23507 
L 379.063749 265.79031 
L 380.096854 259.36822 
L 384.154786 236.918432 
L 384.954713 230.463956 
L 385.408114 223.970618 
L 385.534418 217.454609 
L 385.369251 210.928885 
L 384.954713 204.406399 
L 384.329669 197.900106 
L 383.10225 188.190864 
L 380.42395 168.846868 
L 379.403799 159.153819 
L 377.347306 136.441708 
L 376.52147 129.94513 
L 375.45274 123.474462 
L 374.060154 117.07828 
L 373.218125 113.920671 
L 372.262746 110.801926 
L 371.18754 107.725281 
L 369.982791 104.697216 
L 368.638783 101.720967 
L 367.145801 98.806252 
L 365.51356 95.959546 
L 363.745299 93.190566 
L 361.841019 90.505789 
L 359.807195 87.914931 
L 357.650305 85.424468 
L 355.37035 83.044117 
L 352.973806 80.783593 
L 350.46715 78.649374 
L 347.850384 76.647936 
L 345.133221 74.788995 
L 342.32214 73.072551 
L 339.423617 71.501843 
L 336.453845 70.076871 
L 333.412825 68.807351 
L 330.31675 67.693282 
L 327.168857 66.731425 
L 323.982101 65.931498 
L 320.759721 65.296738 
L 317.51791 64.823906 
L 314.256667 64.516242 
L 310.988947 64.364029 
L 307.711511 64.364029 
L 304.437314 64.509764 
L 301.169593 64.79152 
L 297.911589 65.209296 
L 294.669778 65.750138 
L 291.453875 66.414045 
L 288.26388 67.188064 
L 281.987526 69.053482 
L 275.856908 71.314006 
L 269.88174 73.93725 
L 264.055548 76.897306 
L 258.391284 80.158549 
L 252.888948 83.701548 
L 247.567973 87.503632 
L 242.447789 91.568041 
L 237.551067 95.88182 
L 232.900476 100.438492 
L 228.508971 105.23158 
L 224.318258 110.199551 
L 209.942233 127.946931 
L 205.573398 132.820983 
L 200.990817 137.487767 
L 196.168582 141.885749 
L 193.65545 143.964912 
L 191.06783 145.953396 
L 188.405723 147.844723 
L 185.66589 149.632415 
L 182.845093 151.303519 
L 179.956286 152.861272 
L 176.999469 154.292721 
L 173.984358 155.597866 
L 170.914191 156.766991 
L 167.792206 157.796857 
L 164.628121 158.680988 
L 161.428411 159.416144 
L 158.193076 159.99261 
L 154.935072 160.407147 
L 151.657636 160.656517 
L 148.367246 160.74072 
L 145.080095 160.659756 
L 141.79942 160.410386 
L 138.5317 159.99261 
L 135.293127 159.406428 
L 132.08694 158.648602 
L 128.922854 157.72237 
L 125.810586 156.621255 
L 122.756611 155.348496 
L 119.773886 153.907331 
L 116.872124 152.304238 
L 114.064282 150.545693 
L 111.360073 148.634935 
L 108.769215 146.584918 
L 106.301422 144.395643 
L 103.972888 142.073586 
L 101.79009 139.628463 
L 99.765982 137.063514 
L 97.91028 134.388452 
L 96.219745 131.606518 
L 94.6879 128.730665 
L 93.311506 125.77061 
L 92.084087 122.732828 
L 91.002404 119.627037 
L 90.053502 116.46619 
L 89.24062 113.253525 
L 88.554043 109.99876 
L 87.987293 106.714847 
L 87.537131 103.408264 
L 86.963903 96.765951 
L 86.785782 90.139831 
L 86.957426 83.610868 
L 87.439974 77.243833 
L 87.783262 74.147757 
L 87.783262 74.147757 
" style="fill:none;stroke:#fea952;stroke-linecap:square;"/>
   </g>
   <g id="line2d_15">
    <path clip-path="url(#p036320f574)" d="M 366.787887 297.646263 
L 366.018427 293.646924 
L 365.472634 289.692385 
L 365.133992 285.802309 
L 364.979196 281.97022 
L 364.989505 278.19549 
L 365.144204 274.509257 
L 365.797831 267.329534 
L 366.78071 260.412452 
L 368.560515 250.518324 
L 370.851925 238.129091 
L 371.720329 232.264074 
L 372.29005 226.487875 
L 372.554626 220.612941 
L 372.539801 214.655725 
L 372.27081 208.601961 
L 371.781271 202.484448 
L 371.099687 196.29038 
L 369.823067 186.804845 
L 367.55646 170.343988 
L 366.499377 160.289409 
L 364.483238 137.967953 
L 363.717814 131.914923 
L 362.756452 126.046996 
L 361.543265 120.416117 
L 360.033724 115.075647 
L 359.150924 112.514181 
L 358.176475 110.028686 
L 357.109028 107.626764 
L 355.907779 105.249895 
L 354.595579 102.931731 
L 353.179042 100.685089 
L 351.651287 98.504729 
L 350.014837 96.395698 
L 348.295075 94.385124 
L 346.481613 92.467706 
L 344.575844 90.647057 
L 342.597119 88.938994 
L 340.53576 87.339519 
L 338.382328 85.845175 
L 336.150179 84.462045 
L 333.819549 83.181231 
L 331.463291 82.031286 
L 329.026761 80.996531 
L 326.531266 80.082139 
L 324.014963 79.295924 
L 321.478414 78.641542 
L 318.890066 78.115398 
L 316.301209 77.720933 
L 313.653899 77.456502 
L 310.988947 77.31832 
L 308.287541 77.305507 
L 305.550155 77.416168 
L 302.817239 77.640603 
L 297.288897 78.436898 
L 291.744876 79.665898 
L 286.276132 81.277292 
L 280.882187 83.253865 
L 275.582448 85.569774 
L 270.377232 88.204383 
L 265.275472 91.132227 
L 260.289315 94.333963 
L 255.493586 97.750501 
L 250.880448 101.401858 
L 246.489563 105.258225 
L 242.346284 109.303615 
L 238.340042 113.66744 
L 234.388416 118.348514 
L 219.673042 136.498248 
L 214.929978 141.780229 
L 209.864023 146.925981 
L 207.193642 149.42834 
L 204.426241 151.866968 
L 201.54885 154.236617 
L 198.570599 156.5138 
L 195.484582 158.693844 
L 192.268616 160.777714 
L 188.99358 162.705702 
L 185.601006 164.521067 
L 182.145533 166.181022 
L 178.594432 167.7041 
L 174.972393 169.069213 
L 171.278439 170.273229 
L 167.528882 171.306329 
L 163.700793 172.169573 
L 159.828154 172.843298 
L 155.917884 173.324103 
L 151.989035 173.606569 
L 148.048272 173.691084 
L 144.098247 173.576785 
L 140.156594 173.260086 
L 136.224462 172.739779 
L 132.31331 172.013345 
L 128.447524 171.081153 
L 124.6021 169.934854 
L 120.827265 168.578688 
L 117.12085 167.012623 
L 113.509606 165.246311 
L 109.996122 163.283048 
L 106.588786 161.12542 
L 103.321909 158.793752 
L 100.172328 156.275491 
L 97.154122 153.568459 
L 94.309113 150.700585 
L 91.620847 147.653434 
L 89.122028 144.447274 
L 86.839768 141.115818 
L 84.786281 137.69664 
L 82.941399 134.19266 
L 81.3006 130.62363 
L 79.850522 126.993528 
L 78.595143 123.351758 
L 77.49498 119.6438 
L 76.565272 115.92733 
L 75.788469 112.201891 
L 75.151407 108.462337 
L 74.64901 104.715937 
L 74.278693 101.008101 
L 73.874642 93.611342 
L 73.886612 86.35583 
L 74.259353 79.276361 
L 74.907875 72.720152 
L 74.907875 72.720152 
" style="fill:none;stroke:#ffffff;stroke-linecap:square;"/>
   </g>
   <g id="line2d_16">
    <path clip-path="url(#p036320f574)" d="M 392.20755 292.636729 
L 391.668626 289.996994 
L 391.275233 287.351321 
L 391.017977 284.673572 
L 390.887779 281.97022 
L 390.877469 279.228942 
L 391.185586 273.593207 
L 391.870523 267.739728 
L 392.844044 261.675345 
L 396.989739 238.672758 
L 397.864701 231.534415 
L 398.356247 224.370013 
L 398.487273 217.261667 
L 398.304302 210.223103 
L 397.858605 203.264802 
L 397.196368 196.396206 
L 395.928905 186.376864 
L 393.29144 167.349748 
L 392.308222 158.01823 
L 390.211374 134.915462 
L 389.325125 127.975337 
L 388.149029 120.901927 
L 386.577043 113.740443 
L 385.604283 110.126365 
L 384.491768 106.528204 
L 383.224156 102.936382 
L 381.789107 99.365746 
L 380.168538 95.815171 
L 378.383822 92.362608 
L 376.431541 88.987361 
L 374.311557 85.696043 
L 372.03075 82.50685 
L 369.599552 79.434164 
L 367.005535 76.463813 
L 364.259087 73.620528 
L 361.371768 70.92013 
L 358.337182 68.359754 
L 355.165007 65.956352 
L 351.884114 63.732815 
L 348.4941 61.683057 
L 345.027685 59.822456 
L 341.4444 58.122456 
L 337.79889 56.618171 
L 334.102234 55.304424 
L 330.32275 54.166927 
L 326.485788 53.221454 
L 322.629376 52.478077 
L 318.73461 51.926879 
L 314.859434 51.575981 
L 310.988947 51.409737 
L 307.135481 51.42255 
L 303.324472 51.603361 
L 299.521948 51.942437 
L 295.779847 52.431607 
L 292.050658 53.063378 
L 288.399283 53.825037 
L 284.782885 54.71023 
L 281.206556 55.71558 
L 277.69892 56.829672 
L 274.230863 58.053291 
L 267.459665 60.799941 
L 260.914178 63.911688 
L 254.601123 67.346425 
L 248.477759 71.089545 
L 242.542918 75.124207 
L 236.798907 79.461285 
L 231.278064 84.087388 
L 226.001144 89.00161 
L 221.019816 94.173159 
L 216.42236 99.427132 
L 210.083247 107.230661 
L 202.171784 117.07767 
L 198.2211 121.664249 
L 194.18172 125.993035 
L 190.027291 130.022901 
L 185.76205 133.693208 
L 181.326864 136.995602 
L 179.063165 138.487116 
L 174.311566 141.201478 
L 171.853405 142.40442 
L 169.374284 143.491633 
L 166.855989 144.464769 
L 164.305974 145.320486 
L 161.727359 146.055646 
L 159.156028 146.662715 
L 156.557999 147.141921 
L 153.95226 147.490191 
L 151.326237 147.706465 
L 148.686221 147.790356 
L 146.061942 147.742726 
L 143.442246 147.560685 
L 140.838938 147.24544 
L 138.272944 146.799511 
L 135.726356 146.216051 
L 133.243608 145.509886 
L 130.793906 144.663823 
L 128.392373 143.684369 
L 126.038166 142.568351 
L 123.748126 141.325428 
L 121.539778 139.965965 
L 119.398238 138.476117 
L 117.366102 136.894344 
L 115.448723 135.222826 
L 113.636664 133.446586 
L 111.959334 131.603492 
L 110.409936 129.679754 
L 108.980791 127.661087 
L 107.653208 125.516396 
L 106.434401 123.268671 
L 105.322412 120.917589 
L 104.317652 118.472129 
L 103.409665 115.902316 
L 102.612024 113.28858 
L 101.915968 110.579721 
L 100.823178 104.967356 
L 100.121945 99.169352 
L 99.781125 93.281485 
L 99.775632 87.362482 
L 100.070038 81.526523 
L 100.65865 75.575363 
L 100.65865 75.575363 
" style="fill:none;stroke:#ffffff;stroke-linecap:square;"/>
   </g>
   <g id="patch_3">
    <path d="M 57.6 307.584 
L 57.6 41.472 
" style="fill:none;stroke:#000000;stroke-linecap:square;stroke-linejoin:miter;stroke-width:0.8;"/>
   </g>
   <g id="patch_4">
    <path d="M 414.72 307.584 
L 414.72 41.472 
" style="fill:none;stroke:#000000;stroke-linecap:square;stroke-linejoin:miter;stroke-width:0.8;"/>
   </g>
   <g id="patch_5">
    <path d="M 57.6 307.584 
L 414.72 307.584 
" style="fill:none;stroke:#000000;stroke-linecap:square;stroke-linejoin:miter;stroke-width:0.8;"/>
   </g>
   <g id="patch_6">
    <path d="M 57.6 41.472 
L 414.72 41.472 
" style="fill:none;stroke:#000000;stroke-linecap:square;stroke-linejoin:miter;stroke-width:0.8;"/>
   </g>
  </g>
 </g>
 <defs>
  <clipPath id="p036320f574">
   <rect height="266.112" width="357.12" x="57.6" y="41.472"/>
  </clipPath>
 </defs>
</svg>
