<?xml version="1.0" encoding="utf-8" standalone="no"?>
<!DOCTYPE svg PUBLIC "-//W3C//DTD SVG 1.1//EN"
  "http://www.w3.org/Graphics/SVG/1.1/DTD/svg11.dtd">
<!-- Created with matplotlib (https://matplotlib.org/) -->
<svg height="345.6pt" version="1.1" viewBox="0 0 460.8 345.6" width="460.8pt" xmlns="http://www.w3.org/2000/svg" xmlns:xlink="http://www.w3.org/1999/xlink">
 <metadata>
  <rdf:RDF xmlns:cc="http://creativecommons.org/ns#" xmlns:dc="http://purl.org/dc/elements/1.1/" xmlns:rdf="http://www.w3.org/1999/02/22-rdf-syntax-ns#">
   <cc:Work>
    <dc:type rdf:resource="http://purl.org/dc/dcmitype/StillImage"/>
    <dc:date>2021-01-25T12:59:08.751519</dc:date>
    <dc:format>image/svg+xml</dc:format>
    <dc:creator>
     <cc:Agent>
      <dc:title>Matplotlib v3.3.3, https://matplotlib.org/</dc:title>
     </cc:Agent>
    </dc:creator>
   </cc:Work>
  </rdf:RDF>
 </metadata>
 <defs>
  <style type="text/css">*{stroke-linecap:butt;stroke-linejoin:round;}</style>
 </defs>
 <g id="figure_1">
  <g id="patch_1">
   <path d="M 0 345.6 
L 460.8 345.6 
L 460.8 0 
L 0 0 
z
" style="fill:#ffffff;"/>
  </g>
  <g id="axes_1">
   <g id="patch_2">
    <path d="M 57.6 307.584 
L 414.72 307.584 
L 414.72 41.472 
L 57.6 41.472 
z
" style="fill:#7d9051;"/>
   </g>
   <g id="matplotlib.axis_1">
    <g id="xtick_1">
     <g id="line2d_1">
      <defs>
       <path d="M 0 0 
L 0 3.5 
" id="m5648871287" style="stroke:#000000;stroke-width:0.8;"/>
      </defs>
      <g>
       <use style="stroke:#000000;stroke-width:0.8;" x="90.077917" xlink:href="#m5648871287" y="307.584"/>
      </g>
     </g>
     <g id="text_1">
      <!-- 0 -->
      <g transform="translate(86.896667 322.182437)scale(0.1 -0.1)">
       <defs>
        <path d="M 31.78125 66.40625 
Q 24.171875 66.40625 20.328125 58.90625 
Q 16.5 51.421875 16.5 36.375 
Q 16.5 21.390625 20.328125 13.890625 
Q 24.171875 6.390625 31.78125 6.390625 
Q 39.453125 6.390625 43.28125 13.890625 
Q 47.125 21.390625 47.125 36.375 
Q 47.125 51.421875 43.28125 58.90625 
Q 39.453125 66.40625 31.78125 66.40625 
z
M 31.78125 74.21875 
Q 44.046875 74.21875 50.515625 64.515625 
Q 56.984375 54.828125 56.984375 36.375 
Q 56.984375 17.96875 50.515625 8.265625 
Q 44.046875 -1.421875 31.78125 -1.421875 
Q 19.53125 -1.421875 13.0625 8.265625 
Q 6.59375 17.96875 6.59375 36.375 
Q 6.59375 54.828125 13.0625 64.515625 
Q 19.53125 74.21875 31.78125 74.21875 
z
" id="DejaVuSans-48"/>
       </defs>
       <use xlink:href="#DejaVuSans-48"/>
      </g>
     </g>
    </g>
    <g id="xtick_2">
     <g id="line2d_2">
      <g>
       <use style="stroke:#000000;stroke-width:0.8;" x="161.814254" xlink:href="#m5648871287" y="307.584"/>
      </g>
     </g>
     <g id="text_2">
      <!-- 20 -->
      <g transform="translate(155.451754 322.182437)scale(0.1 -0.1)">
       <defs>
        <path d="M 19.1875 8.296875 
L 53.609375 8.296875 
L 53.609375 0 
L 7.328125 0 
L 7.328125 8.296875 
Q 12.9375 14.109375 22.625 23.890625 
Q 32.328125 33.6875 34.8125 36.53125 
Q 39.546875 41.84375 41.421875 45.53125 
Q 43.3125 49.21875 43.3125 52.78125 
Q 43.3125 58.59375 39.234375 62.25 
Q 35.15625 65.921875 28.609375 65.921875 
Q 23.96875 65.921875 18.8125 64.3125 
Q 13.671875 62.703125 7.8125 59.421875 
L 7.8125 69.390625 
Q 13.765625 71.78125 18.9375 73 
Q 24.125 74.21875 28.421875 74.21875 
Q 39.75 74.21875 46.484375 68.546875 
Q 53.21875 62.890625 53.21875 53.421875 
Q 53.21875 48.921875 51.53125 44.890625 
Q 49.859375 40.875 45.40625 35.40625 
Q 44.1875 33.984375 37.640625 27.21875 
Q 31.109375 20.453125 19.1875 8.296875 
z
" id="DejaVuSans-50"/>
       </defs>
       <use xlink:href="#DejaVuSans-50"/>
       <use x="63.623047" xlink:href="#DejaVuSans-48"/>
      </g>
     </g>
    </g>
    <g id="xtick_3">
     <g id="line2d_3">
      <g>
       <use style="stroke:#000000;stroke-width:0.8;" x="233.550591" xlink:href="#m5648871287" y="307.584"/>
      </g>
     </g>
     <g id="text_3">
      <!-- 40 -->
      <g transform="translate(227.188091 322.182437)scale(0.1 -0.1)">
       <defs>
        <path d="M 37.796875 64.3125 
L 12.890625 25.390625 
L 37.796875 25.390625 
z
M 35.203125 72.90625 
L 47.609375 72.90625 
L 47.609375 25.390625 
L 58.015625 25.390625 
L 58.015625 17.1875 
L 47.609375 17.1875 
L 47.609375 0 
L 37.796875 0 
L 37.796875 17.1875 
L 4.890625 17.1875 
L 4.890625 26.703125 
z
" id="DejaVuSans-52"/>
       </defs>
       <use xlink:href="#DejaVuSans-52"/>
       <use x="63.623047" xlink:href="#DejaVuSans-48"/>
      </g>
     </g>
    </g>
    <g id="xtick_4">
     <g id="line2d_4">
      <g>
       <use style="stroke:#000000;stroke-width:0.8;" x="305.286928" xlink:href="#m5648871287" y="307.584"/>
      </g>
     </g>
     <g id="text_4">
      <!-- 60 -->
      <g transform="translate(298.924428 322.182437)scale(0.1 -0.1)">
       <defs>
        <path d="M 33.015625 40.375 
Q 26.375 40.375 22.484375 35.828125 
Q 18.609375 31.296875 18.609375 23.390625 
Q 18.609375 15.53125 22.484375 10.953125 
Q 26.375 6.390625 33.015625 6.390625 
Q 39.65625 6.390625 43.53125 10.953125 
Q 47.40625 15.53125 47.40625 23.390625 
Q 47.40625 31.296875 43.53125 35.828125 
Q 39.65625 40.375 33.015625 40.375 
z
M 52.59375 71.296875 
L 52.59375 62.3125 
Q 48.875 64.0625 45.09375 64.984375 
Q 41.3125 65.921875 37.59375 65.921875 
Q 27.828125 65.921875 22.671875 59.328125 
Q 17.53125 52.734375 16.796875 39.40625 
Q 19.671875 43.65625 24.015625 45.921875 
Q 28.375 48.1875 33.59375 48.1875 
Q 44.578125 48.1875 50.953125 41.515625 
Q 57.328125 34.859375 57.328125 23.390625 
Q 57.328125 12.15625 50.6875 5.359375 
Q 44.046875 -1.421875 33.015625 -1.421875 
Q 20.359375 -1.421875 13.671875 8.265625 
Q 6.984375 17.96875 6.984375 36.375 
Q 6.984375 53.65625 15.1875 63.9375 
Q 23.390625 74.21875 37.203125 74.21875 
Q 40.921875 74.21875 44.703125 73.484375 
Q 48.484375 72.75 52.59375 71.296875 
z
" id="DejaVuSans-54"/>
       </defs>
       <use xlink:href="#DejaVuSans-54"/>
       <use x="63.623047" xlink:href="#DejaVuSans-48"/>
      </g>
     </g>
    </g>
    <g id="xtick_5">
     <g id="line2d_5">
      <g>
       <use style="stroke:#000000;stroke-width:0.8;" x="377.023265" xlink:href="#m5648871287" y="307.584"/>
      </g>
     </g>
     <g id="text_5">
      <!-- 80 -->
      <g transform="translate(370.660765 322.182437)scale(0.1 -0.1)">
       <defs>
        <path d="M 31.78125 34.625 
Q 24.75 34.625 20.71875 30.859375 
Q 16.703125 27.09375 16.703125 20.515625 
Q 16.703125 13.921875 20.71875 10.15625 
Q 24.75 6.390625 31.78125 6.390625 
Q 38.8125 6.390625 42.859375 10.171875 
Q 46.921875 13.96875 46.921875 20.515625 
Q 46.921875 27.09375 42.890625 30.859375 
Q 38.875 34.625 31.78125 34.625 
z
M 21.921875 38.8125 
Q 15.578125 40.375 12.03125 44.71875 
Q 8.5 49.078125 8.5 55.328125 
Q 8.5 64.0625 14.71875 69.140625 
Q 20.953125 74.21875 31.78125 74.21875 
Q 42.671875 74.21875 48.875 69.140625 
Q 55.078125 64.0625 55.078125 55.328125 
Q 55.078125 49.078125 51.53125 44.71875 
Q 48 40.375 41.703125 38.8125 
Q 48.828125 37.15625 52.796875 32.3125 
Q 56.78125 27.484375 56.78125 20.515625 
Q 56.78125 9.90625 50.3125 4.234375 
Q 43.84375 -1.421875 31.78125 -1.421875 
Q 19.734375 -1.421875 13.25 4.234375 
Q 6.78125 9.90625 6.78125 20.515625 
Q 6.78125 27.484375 10.78125 32.3125 
Q 14.796875 37.15625 21.921875 38.8125 
z
M 18.3125 54.390625 
Q 18.3125 48.734375 21.84375 45.5625 
Q 25.390625 42.390625 31.78125 42.390625 
Q 38.140625 42.390625 41.71875 45.5625 
Q 45.3125 48.734375 45.3125 54.390625 
Q 45.3125 60.0625 41.71875 63.234375 
Q 38.140625 66.40625 31.78125 66.40625 
Q 25.390625 66.40625 21.84375 63.234375 
Q 18.3125 60.0625 18.3125 54.390625 
z
" id="DejaVuSans-56"/>
       </defs>
       <use xlink:href="#DejaVuSans-56"/>
       <use x="63.623047" xlink:href="#DejaVuSans-48"/>
      </g>
     </g>
    </g>
   </g>
   <g id="matplotlib.axis_2">
    <g id="ytick_1">
     <g id="line2d_6">
      <defs>
       <path d="M 0 0 
L -3.5 0 
" id="m01de460e66" style="stroke:#000000;stroke-width:0.8;"/>
      </defs>
      <g>
       <use style="stroke:#000000;stroke-width:0.8;" x="57.6" xlink:href="#m01de460e66" y="280.999719"/>
      </g>
     </g>
     <g id="text_6">
      <!-- 10 -->
      <g transform="translate(37.875 284.798937)scale(0.1 -0.1)">
       <defs>
        <path d="M 12.40625 8.296875 
L 28.515625 8.296875 
L 28.515625 63.921875 
L 10.984375 60.40625 
L 10.984375 69.390625 
L 28.421875 72.90625 
L 38.28125 72.90625 
L 38.28125 8.296875 
L 54.390625 8.296875 
L 54.390625 0 
L 12.40625 0 
z
" id="DejaVuSans-49"/>
       </defs>
       <use xlink:href="#DejaVuSans-49"/>
       <use x="63.623047" xlink:href="#DejaVuSans-48"/>
      </g>
     </g>
    </g>
    <g id="ytick_2">
     <g id="line2d_7">
      <g>
       <use style="stroke:#000000;stroke-width:0.8;" x="57.6" xlink:href="#m01de460e66" y="245.13155"/>
      </g>
     </g>
     <g id="text_7">
      <!-- 20 -->
      <g transform="translate(37.875 248.930769)scale(0.1 -0.1)">
       <use xlink:href="#DejaVuSans-50"/>
       <use x="63.623047" xlink:href="#DejaVuSans-48"/>
      </g>
     </g>
    </g>
    <g id="ytick_3">
     <g id="line2d_8">
      <g>
       <use style="stroke:#000000;stroke-width:0.8;" x="57.6" xlink:href="#m01de460e66" y="209.263382"/>
      </g>
     </g>
     <g id="text_8">
      <!-- 30 -->
      <g transform="translate(37.875 213.0626)scale(0.1 -0.1)">
       <defs>
        <path d="M 40.578125 39.3125 
Q 47.65625 37.796875 51.625 33 
Q 55.609375 28.21875 55.609375 21.1875 
Q 55.609375 10.40625 48.1875 4.484375 
Q 40.765625 -1.421875 27.09375 -1.421875 
Q 22.515625 -1.421875 17.65625 -0.515625 
Q 12.796875 0.390625 7.625 2.203125 
L 7.625 11.71875 
Q 11.71875 9.328125 16.59375 8.109375 
Q 21.484375 6.890625 26.8125 6.890625 
Q 36.078125 6.890625 40.9375 10.546875 
Q 45.796875 14.203125 45.796875 21.1875 
Q 45.796875 27.640625 41.28125 31.265625 
Q 36.765625 34.90625 28.71875 34.90625 
L 20.21875 34.90625 
L 20.21875 43.015625 
L 29.109375 43.015625 
Q 36.375 43.015625 40.234375 45.921875 
Q 44.09375 48.828125 44.09375 54.296875 
Q 44.09375 59.90625 40.109375 62.90625 
Q 36.140625 65.921875 28.71875 65.921875 
Q 24.65625 65.921875 20.015625 65.03125 
Q 15.375 64.15625 9.8125 62.3125 
L 9.8125 71.09375 
Q 15.4375 72.65625 20.34375 73.4375 
Q 25.25 74.21875 29.59375 74.21875 
Q 40.828125 74.21875 47.359375 69.109375 
Q 53.90625 64.015625 53.90625 55.328125 
Q 53.90625 49.265625 50.4375 45.09375 
Q 46.96875 40.921875 40.578125 39.3125 
z
" id="DejaVuSans-51"/>
       </defs>
       <use xlink:href="#DejaVuSans-51"/>
       <use x="63.623047" xlink:href="#DejaVuSans-48"/>
      </g>
     </g>
    </g>
    <g id="ytick_4">
     <g id="line2d_9">
      <g>
       <use style="stroke:#000000;stroke-width:0.8;" x="57.6" xlink:href="#m01de460e66" y="173.395213"/>
      </g>
     </g>
     <g id="text_9">
      <!-- 40 -->
      <g transform="translate(37.875 177.194432)scale(0.1 -0.1)">
       <use xlink:href="#DejaVuSans-52"/>
       <use x="63.623047" xlink:href="#DejaVuSans-48"/>
      </g>
     </g>
    </g>
    <g id="ytick_5">
     <g id="line2d_10">
      <g>
       <use style="stroke:#000000;stroke-width:0.8;" x="57.6" xlink:href="#m01de460e66" y="137.527044"/>
      </g>
     </g>
     <g id="text_10">
      <!-- 50 -->
      <g transform="translate(37.875 141.326263)scale(0.1 -0.1)">
       <defs>
        <path d="M 10.796875 72.90625 
L 49.515625 72.90625 
L 49.515625 64.59375 
L 19.828125 64.59375 
L 19.828125 46.734375 
Q 21.96875 47.46875 24.109375 47.828125 
Q 26.265625 48.1875 28.421875 48.1875 
Q 40.625 48.1875 47.75 41.5 
Q 54.890625 34.8125 54.890625 23.390625 
Q 54.890625 11.625 47.5625 5.09375 
Q 40.234375 -1.421875 26.90625 -1.421875 
Q 22.3125 -1.421875 17.546875 -0.640625 
Q 12.796875 0.140625 7.71875 1.703125 
L 7.71875 11.625 
Q 12.109375 9.234375 16.796875 8.0625 
Q 21.484375 6.890625 26.703125 6.890625 
Q 35.15625 6.890625 40.078125 11.328125 
Q 45.015625 15.765625 45.015625 23.390625 
Q 45.015625 31 40.078125 35.4375 
Q 35.15625 39.890625 26.703125 39.890625 
Q 22.75 39.890625 18.8125 39.015625 
Q 14.890625 38.140625 10.796875 36.28125 
z
" id="DejaVuSans-53"/>
       </defs>
       <use xlink:href="#DejaVuSans-53"/>
       <use x="63.623047" xlink:href="#DejaVuSans-48"/>
      </g>
     </g>
    </g>
    <g id="ytick_6">
     <g id="line2d_11">
      <g>
       <use style="stroke:#000000;stroke-width:0.8;" x="57.6" xlink:href="#m01de460e66" y="101.658876"/>
      </g>
     </g>
     <g id="text_11">
      <!-- 60 -->
      <g transform="translate(37.875 105.458095)scale(0.1 -0.1)">
       <use xlink:href="#DejaVuSans-54"/>
       <use x="63.623047" xlink:href="#DejaVuSans-48"/>
      </g>
     </g>
    </g>
    <g id="ytick_7">
     <g id="line2d_12">
      <g>
       <use style="stroke:#000000;stroke-width:0.8;" x="57.6" xlink:href="#m01de460e66" y="65.790707"/>
      </g>
     </g>
     <g id="text_12">
      <!-- 70 -->
      <g transform="translate(37.875 69.589926)scale(0.1 -0.1)">
       <defs>
        <path d="M 8.203125 72.90625 
L 55.078125 72.90625 
L 55.078125 68.703125 
L 28.609375 0 
L 18.3125 0 
L 43.21875 64.59375 
L 8.203125 64.59375 
z
" id="DejaVuSans-55"/>
       </defs>
       <use xlink:href="#DejaVuSans-55"/>
       <use x="63.623047" xlink:href="#DejaVuSans-48"/>
      </g>
     </g>
    </g>
   </g>
   <g id="line2d_13">
    <path clip-path="url(#p6741dde4ab)" d="M 254.655421 159.39228 
L 251.344789 160.737336 
L 248.116654 162.308362 
L 244.981776 164.083836 
L 241.943742 166.056586 
L 239.0169 168.219436 
L 236.208422 170.554454 
L 233.525483 173.050879 
L 230.98243 175.705123 
L 228.586436 178.495667 
L 226.348263 181.418922 
L 224.275082 184.456956 
L 222.37407 187.606181 
L 220.659571 190.852251 
L 219.138761 194.180817 
L 217.818812 197.581119 
L 216.710486 201.045984 
L 215.828129 204.564651 
L 215.175328 208.119187 
L 214.759257 211.706004 
L 214.597851 215.307168 
L 214.691108 218.915506 
L 215.031855 222.51667 
L 215.61292 226.096313 
L 216.419954 229.643675 
L 217.445783 233.144408 
L 218.679648 236.584166 
L 220.110788 239.952187 
L 221.732029 243.230537 
L 223.529025 246.412044 
L 225.491013 249.478772 
L 227.614409 252.423549 
L 229.881277 255.242787 
L 232.295205 257.929313 
L 234.841845 260.486713 
L 237.51761 262.914988 
L 240.311741 265.206964 
L 243.217062 267.369815 
L 246.229988 269.392779 
L 249.339759 271.283032 
L 252.542786 273.033398 
L 255.82831 274.643879 
L 259.185571 276.103714 
L 262.607394 277.402141 
L 266.08302 278.528402 
L 269.601687 279.468148 
L 273.156223 280.214206 
L 276.732279 280.748642 
L 280.326269 281.067868 
L 283.923847 281.153952 
L 287.51425 280.999719 
L 291.090307 280.594408 
L 294.641256 279.948781 
L 298.152749 279.070011 
L 301.610441 277.972445 
L 305.010743 276.65967 
L 308.335722 275.14962 
L 311.578205 273.449469 
L 314.720256 271.569977 
L 317.754703 269.521905 
L 320.670786 267.319599 
L 323.457742 264.966647 
L 326.104813 262.47381 
L 328.615585 259.84826 
L 330.979297 257.100758 
L 333.199537 254.234891 
L 335.265543 251.26142 
L 337.17373 248.187518 
L 338.924097 245.016772 
L 340.50947 241.759942 
L 341.926262 238.424203 
L 343.170888 235.020313 
L 344.243346 231.551862 
L 345.136463 228.036781 
L 345.853827 224.475072 
L 346.388262 220.888255 
L 346.743357 217.27633 
L 346.915524 213.653645 
L 346.901177 210.03096 
L 346.696729 206.419036 
L 346.302179 202.825045 
L 345.721114 199.259749 
L 344.957122 195.730322 
L 344.01379 192.240349 
L 342.90905 188.797005 
L 341.642904 185.407463 
L 340.229698 182.071723 
L 338.676606 178.800546 
L 336.990802 175.597519 
L 335.17946 172.466227 
L 333.253339 169.417433 
L 331.219614 166.447549 
L 326.879566 160.733749 
L 322.252572 155.24592 
L 317.428303 149.923083 
L 297.829936 128.933031 
L 290.720865 120.862693 
L 286.101045 115.364103 
L 272.392231 98.692578 
L 267.51416 93.441478 
L 264.953172 90.93788 
L 262.291754 88.534713 
L 259.519145 86.246324 
L 256.638931 84.0763 
L 253.661873 82.031814 
L 250.595145 80.112867 
L 247.442333 78.323045 
L 244.217784 76.669523 
L 240.925086 75.155886 
L 237.578586 73.782135 
L 234.178284 72.555444 
L 230.738526 71.479399 
L 227.262901 70.557587 
L 223.758581 69.779248 
L 220.225566 69.147968 
L 216.671031 68.6494 
L 213.094974 68.283545 
L 209.500984 68.043228 
L 205.892646 67.921276 
L 198.650863 68.003773 
L 191.391145 68.498754 
L 187.772047 68.896891 
L 184.170883 69.416979 
L 180.594827 70.059019 
L 177.061812 70.844532 
L 173.575426 71.780691 
L 170.146429 72.874671 
L 166.785582 74.144404 
L 163.503644 75.593478 
L 160.307791 77.239827 
L 157.212368 79.087037 
L 154.217376 81.124349 
L 151.344335 83.344589 
L 148.593247 85.729822 
L 145.97487 88.272875 
L 143.499967 90.959401 
L 141.182883 93.775052 
L 139.023619 96.709069 
L 137.036523 99.750689 
L 135.228767 102.88198 
L 133.611113 106.099355 
L 132.172799 109.384879 
L 130.903066 112.74214 
L 129.79474 116.160376 
L 128.837059 119.628828 
L 128.022852 123.143909 
L 127.33777 126.698444 
L 126.77464 130.288848 
L 125.97478 137.537805 
L 125.544362 144.83339 
L 125.404476 152.121802 
L 125.476212 159.349238 
L 125.813373 169.959042 
L 125.946085 173.405973 
L 125.946085 173.405973 
" style="fill:none;stroke:#fea952;stroke-linecap:square;"/>
   </g>
   <g id="line2d_14">
    <path clip-path="url(#p6741dde4ab)" d="M 260.05579 172.684387 
L 257.623106 173.637988 
L 255.187154 174.792437 
L 252.795376 176.11678 
L 250.470437 177.595197 
L 248.189318 179.251699 
L 245.981803 181.05803 
L 243.885206 182.976613 
L 241.867783 185.051415 
L 239.978141 187.217659 
L 238.19911 189.506041 
L 236.557969 191.871455 
L 235.060484 194.306851 
L 233.70926 196.814608 
L 232.513656 199.372759 
L 231.483989 201.952278 
L 230.626873 204.53572 
L 229.939395 207.156226 
L 229.42703 209.772384 
L 229.092135 212.348414 
L 228.940329 214.936488 
L 228.974576 217.563982 
L 229.193758 220.217844 
L 229.602717 222.913599 
L 230.188263 225.609109 
L 230.950503 228.300171 
L 231.884262 230.97326 
L 232.971392 233.592238 
L 234.224325 236.174573 
L 235.614601 238.680102 
L 237.128396 241.087383 
L 238.795503 243.433153 
L 240.553307 245.653633 
L 242.46162 247.805673 
L 244.483642 249.862221 
L 246.616793 251.822245 
L 248.879128 253.698534 
L 251.21472 255.45841 
L 253.682179 257.132725 
L 256.219854 258.693021 
L 258.857617 260.150581 
L 261.549455 261.486653 
L 264.275586 262.689697 
L 267.030149 263.753577 
L 269.785051 264.666979 
L 272.548805 265.426831 
L 275.276847 266.024525 
L 278.00164 266.457637 
L 280.669476 266.724706 
L 283.308098 266.819904 
L 285.898476 266.743725 
L 288.52379 266.478564 
L 291.158187 266.030724 
L 293.811975 265.395153 
L 296.443046 264.588047 
L 299.078049 263.596469 
L 301.673238 262.443111 
L 304.213139 261.136879 
L 306.693833 259.677938 
L 309.108087 258.072883 
L 311.415302 256.35693 
L 313.621542 254.521876 
L 315.735647 252.55794 
L 317.739384 250.491319 
L 319.637455 248.314024 
L 321.417157 246.04834 
L 323.075968 243.694496 
L 324.613241 241.253674 
L 326.024041 238.73723 
L 327.303958 236.15115 
L 328.451522 233.49719 
L 329.463907 230.782064 
L 330.337909 228.018745 
L 331.071636 225.203986 
L 331.663217 222.360671 
L 332.109831 219.484516 
L 332.412265 216.595249 
L 332.56837 213.710466 
L 332.576839 210.841772 
L 332.435142 207.984679 
L 332.141742 205.132883 
L 331.698608 202.295109 
L 331.106893 199.474012 
L 330.352414 196.623373 
L 329.468867 193.817518 
L 328.432287 191.004219 
L 327.269033 188.225197 
L 325.980448 185.482735 
L 324.571703 182.781533 
L 323.050022 180.129178 
L 321.415592 177.523716 
L 317.801659 172.408582 
L 313.724821 167.328938 
L 309.29472 162.276619 
L 302.086462 154.55916 
L 292.109095 143.940152 
L 284.666841 135.742645 
L 277.362995 127.296747 
L 270.398292 118.769615 
L 263.875157 110.78382 
L 259.61676 105.943749 
L 255.337926 101.586407 
L 253.159056 99.599879 
L 250.88569 97.705274 
L 248.516839 95.903205 
L 246.051444 94.194275 
L 243.512094 92.589825 
L 240.895724 91.089642 
L 238.225263 89.705387 
L 235.47668 88.428375 
L 232.709814 87.278029 
L 229.894788 86.248352 
L 227.060481 85.347205 
L 224.15206 84.563541 
L 221.234977 83.902827 
L 218.232693 83.356153 
L 215.210828 82.922168 
L 212.137764 82.598845 
L 205.849988 82.26848 
L 199.429457 82.329899 
L 192.960022 82.759985 
L 186.706233 83.538455 
L 183.708692 84.064301 
L 180.782518 84.700954 
L 177.936191 85.449188 
L 175.21704 86.296034 
L 172.5806 87.26926 
L 170.07407 88.347833 
L 167.659986 89.560107 
L 165.281923 90.949852 
L 162.99038 92.476815 
L 160.742951 94.184797 
L 158.589181 96.021828 
L 156.527009 97.993804 
L 154.578315 100.076105 
L 152.738203 102.27909 
L 151.03484 104.556021 
L 149.461786 106.924037 
L 148.047031 109.326838 
L 146.754149 111.853021 
L 145.592371 114.46023 
L 144.550855 117.167289 
L 143.624514 119.978939 
L 142.814262 122.866405 
L 142.110845 125.859153 
L 141.511758 128.921537 
L 140.604642 135.271929 
L 140.047874 141.857752 
L 139.786915 148.622529 
L 139.764269 155.519461 
L 140.021745 165.932511 
L 140.28273 172.85399 
L 140.28273 172.85399 
" style="fill:none;stroke:#ffffff;stroke-linecap:square;"/>
   </g>
   <g id="line2d_15">
    <path clip-path="url(#p6741dde4ab)" d="M 249.255053 146.100173 
L 245.066472 147.836684 
L 241.046154 149.824288 
L 237.168176 152.050892 
L 233.417048 154.517974 
L 229.844482 157.187173 
L 226.435041 160.050878 
L 223.16576 163.125144 
L 220.097077 166.358831 
L 217.194732 169.773674 
L 214.497415 173.331803 
L 211.992196 177.042458 
L 209.687655 180.905512 
L 207.609882 184.889893 
L 205.763866 188.988874 
L 204.153635 193.20996 
L 202.794099 197.556248 
L 201.716863 201.973077 
L 200.923626 206.465989 
L 200.426379 211.063594 
L 200.255372 215.677848 
L 200.407639 220.267029 
L 200.869953 224.815496 
L 201.623123 229.279027 
L 202.651644 233.678241 
L 203.941064 237.988645 
L 205.475035 242.195072 
L 207.250184 246.312135 
L 209.239734 250.286501 
L 211.443448 254.143986 
L 213.853631 257.870161 
L 216.433315 261.413945 
L 219.209248 264.83194 
L 222.128789 268.052952 
L 225.200047 271.111205 
L 228.418428 274.007732 
L 231.744354 276.715394 
L 235.219405 279.281219 
L 238.777798 281.652834 
L 242.459663 283.873043 
L 246.227955 285.916216 
L 250.107166 287.801105 
L 254.095556 289.51773 
L 258.184639 291.050706 
L 262.380988 292.389825 
L 266.654569 293.509465 
L 271.035598 294.403886 
L 275.462918 295.039646 
L 279.983063 295.41103 
L 284.539595 295.488 
L 289.130025 295.255712 
L 293.656824 294.710253 
L 298.124324 293.866839 
L 302.493524 292.74487 
L 306.777835 291.356844 
L 310.943437 289.722871 
L 314.998206 287.85613 
L 318.94327 285.76206 
L 322.74668 283.462017 
L 326.40132 280.970927 
L 329.926269 278.282268 
L 333.293943 275.411418 
L 336.47398 272.389679 
L 339.491786 269.2052 
L 342.32114 265.887492 
L 344.981916 262.421442 
L 347.455118 258.828344 
L 349.734219 255.121363 
L 351.824152 251.296314 
L 353.714981 247.368735 
L 355.401003 243.351215 
L 356.877869 239.258563 
L 358.148783 235.084978 
L 359.20129 230.869576 
L 360.044436 226.589473 
L 360.666694 222.291994 
L 361.07445 217.957412 
L 361.262679 213.596825 
L 361.225515 209.220149 
L 360.958315 204.853393 
L 360.462615 200.517208 
L 359.74362 196.22439 
L 358.807352 191.986631 
L 357.675165 187.857324 
L 356.349234 183.776492 
L 354.853521 179.810707 
L 353.190363 175.918249 
L 351.372765 172.118357 
L 349.409901 168.413504 
L 347.308898 164.803277 
L 345.091086 161.31115 
L 342.776089 157.94508 
L 340.383604 154.704567 
L 335.464705 148.600516 
L 330.425609 142.863689 
L 322.913572 134.820675 
L 313.228009 124.514194 
L 306.208217 116.786234 
L 299.43022 108.955157 
L 292.743498 100.767723 
L 285.600861 92.038951 
L 280.361366 86.118571 
L 277.543608 83.182129 
L 274.568419 80.289354 
L 271.424453 77.469547 
L 268.1526 74.787374 
L 264.761023 72.249394 
L 261.272302 69.869353 
L 257.678196 67.635909 
L 253.988941 65.556448 
L 250.210306 63.633658 
L 246.373493 61.883398 
L 242.447358 60.286242 
L 238.46178 58.862535 
L 234.416572 57.611592 
L 230.373742 56.551633 
L 226.282185 55.655668 
L 222.21844 54.939782 
L 218.131234 54.376633 
L 214.052185 53.968244 
L 209.985605 53.704148 
L 205.935304 53.574072 
L 201.904335 53.568 
L 197.872269 53.677648 
L 193.848239 53.901793 
L 189.822269 54.237523 
L 185.721259 54.696949 
L 181.635533 55.295503 
L 177.480962 56.053737 
L 173.341106 56.98811 
L 169.214661 58.112194 
L 165.075818 59.453307 
L 160.990563 61.019548 
L 156.933219 62.839122 
L 152.955595 64.919546 
L 149.142813 67.224223 
L 145.444371 69.771883 
L 141.94572 72.504381 
L 138.597312 75.437816 
L 135.422732 78.551947 
L 132.421619 81.842697 
L 129.627563 85.271015 
L 127.012399 88.862116 
L 124.61126 92.577341 
L 122.410503 96.437123 
L 120.468076 100.345689 
L 118.753228 104.309529 
L 117.255277 108.316991 
L 115.964965 112.341814 
L 114.859857 116.391252 
L 113.93486 120.428665 
L 113.163782 124.475351 
L 112.538164 128.509288 
L 112.04076 132.536789 
L 111.385184 140.50627 
L 111.093773 148.339838 
L 111.073377 155.976687 
L 111.34675 166.99128 
L 111.60944 173.957957 
L 111.60944 173.957957 
" style="fill:none;stroke:#ffffff;stroke-linecap:square;"/>
   </g>
   <g id="patch_3">
    <path d="M 57.6 307.584 
L 57.6 41.472 
" style="fill:none;stroke:#000000;stroke-linecap:square;stroke-linejoin:miter;stroke-width:0.8;"/>
   </g>
   <g id="patch_4">
    <path d="M 414.72 307.584 
L 414.72 41.472 
" style="fill:none;stroke:#000000;stroke-linecap:square;stroke-linejoin:miter;stroke-width:0.8;"/>
   </g>
   <g id="patch_5">
    <path d="M 57.6 307.584 
L 414.72 307.584 
" style="fill:none;stroke:#000000;stroke-linecap:square;stroke-linejoin:miter;stroke-width:0.8;"/>
   </g>
   <g id="patch_6">
    <path d="M 57.6 41.472 
L 414.72 41.472 
" style="fill:none;stroke:#000000;stroke-linecap:square;stroke-linejoin:miter;stroke-width:0.8;"/>
   </g>
  </g>
 </g>
 <defs>
  <clipPath id="p6741dde4ab">
   <rect height="266.112" width="357.12" x="57.6" y="41.472"/>
  </clipPath>
 </defs>
</svg>
