<?xml version="1.0" encoding="utf-8" standalone="no"?>
<!DOCTYPE svg PUBLIC "-//W3C//DTD SVG 1.1//EN"
  "http://www.w3.org/Graphics/SVG/1.1/DTD/svg11.dtd">
<!-- Created with matplotlib (https://matplotlib.org/) -->
<svg height="345.6pt" version="1.1" viewBox="0 0 460.8 345.6" width="460.8pt" xmlns="http://www.w3.org/2000/svg" xmlns:xlink="http://www.w3.org/1999/xlink">
 <metadata>
  <rdf:RDF xmlns:cc="http://creativecommons.org/ns#" xmlns:dc="http://purl.org/dc/elements/1.1/" xmlns:rdf="http://www.w3.org/1999/02/22-rdf-syntax-ns#">
   <cc:Work>
    <dc:type rdf:resource="http://purl.org/dc/dcmitype/StillImage"/>
    <dc:date>2021-01-23T11:51:42.204340</dc:date>
    <dc:format>image/svg+xml</dc:format>
    <dc:creator>
     <cc:Agent>
      <dc:title>Matplotlib v3.3.3, https://matplotlib.org/</dc:title>
     </cc:Agent>
    </dc:creator>
   </cc:Work>
  </rdf:RDF>
 </metadata>
 <defs>
  <style type="text/css">*{stroke-linecap:butt;stroke-linejoin:round;}</style>
 </defs>
 <g id="figure_1">
  <g id="patch_1">
   <path d="M 0 345.6 
L 460.8 345.6 
L 460.8 0 
L 0 0 
z
" style="fill:#ffffff;"/>
  </g>
  <g id="axes_1">
   <g id="patch_2">
    <path d="M 57.6 307.584 
L 414.72 307.584 
L 414.72 41.472 
L 57.6 41.472 
z
" style="fill:#7d9051;"/>
   </g>
   <g id="matplotlib.axis_1">
    <g id="xtick_1">
     <g id="line2d_1">
      <defs>
       <path d="M 0 0 
L 0 3.5 
" id="mfd49512992" style="stroke:#000000;stroke-width:0.8;"/>
      </defs>
      <g>
       <use style="stroke:#000000;stroke-width:0.8;" x="73.975231" xlink:href="#mfd49512992" y="307.584"/>
      </g>
     </g>
     <g id="text_1">
      <!-- −20 -->
      <g transform="translate(63.422887 322.182437)scale(0.1 -0.1)">
       <defs>
        <path d="M 10.59375 35.5 
L 73.1875 35.5 
L 73.1875 27.203125 
L 10.59375 27.203125 
z
" id="DejaVuSans-8722"/>
        <path d="M 19.1875 8.296875 
L 53.609375 8.296875 
L 53.609375 0 
L 7.328125 0 
L 7.328125 8.296875 
Q 12.9375 14.109375 22.625 23.890625 
Q 32.328125 33.6875 34.8125 36.53125 
Q 39.546875 41.84375 41.421875 45.53125 
Q 43.3125 49.21875 43.3125 52.78125 
Q 43.3125 58.59375 39.234375 62.25 
Q 35.15625 65.921875 28.609375 65.921875 
Q 23.96875 65.921875 18.8125 64.3125 
Q 13.671875 62.703125 7.8125 59.421875 
L 7.8125 69.390625 
Q 13.765625 71.78125 18.9375 73 
Q 24.125 74.21875 28.421875 74.21875 
Q 39.75 74.21875 46.484375 68.546875 
Q 53.21875 62.890625 53.21875 53.421875 
Q 53.21875 48.921875 51.53125 44.890625 
Q 49.859375 40.875 45.40625 35.40625 
Q 44.1875 33.984375 37.640625 27.21875 
Q 31.109375 20.453125 19.1875 8.296875 
z
" id="DejaVuSans-50"/>
        <path d="M 31.78125 66.40625 
Q 24.171875 66.40625 20.328125 58.90625 
Q 16.5 51.421875 16.5 36.375 
Q 16.5 21.390625 20.328125 13.890625 
Q 24.171875 6.390625 31.78125 6.390625 
Q 39.453125 6.390625 43.28125 13.890625 
Q 47.125 21.390625 47.125 36.375 
Q 47.125 51.421875 43.28125 58.90625 
Q 39.453125 66.40625 31.78125 66.40625 
z
M 31.78125 74.21875 
Q 44.046875 74.21875 50.515625 64.515625 
Q 56.984375 54.828125 56.984375 36.375 
Q 56.984375 17.96875 50.515625 8.265625 
Q 44.046875 -1.421875 31.78125 -1.421875 
Q 19.53125 -1.421875 13.0625 8.265625 
Q 6.59375 17.96875 6.59375 36.375 
Q 6.59375 54.828125 13.0625 64.515625 
Q 19.53125 74.21875 31.78125 74.21875 
z
" id="DejaVuSans-48"/>
       </defs>
       <use xlink:href="#DejaVuSans-8722"/>
       <use x="83.789062" xlink:href="#DejaVuSans-50"/>
       <use x="147.412109" xlink:href="#DejaVuSans-48"/>
      </g>
     </g>
    </g>
    <g id="xtick_2">
     <g id="line2d_2">
      <g>
       <use style="stroke:#000000;stroke-width:0.8;" x="124.545896" xlink:href="#mfd49512992" y="307.584"/>
      </g>
     </g>
     <g id="text_2">
      <!-- 0 -->
      <g transform="translate(121.364646 322.182437)scale(0.1 -0.1)">
       <use xlink:href="#DejaVuSans-48"/>
      </g>
     </g>
    </g>
    <g id="xtick_3">
     <g id="line2d_3">
      <g>
       <use style="stroke:#000000;stroke-width:0.8;" x="175.116561" xlink:href="#mfd49512992" y="307.584"/>
      </g>
     </g>
     <g id="text_3">
      <!-- 20 -->
      <g transform="translate(168.754061 322.182437)scale(0.1 -0.1)">
       <use xlink:href="#DejaVuSans-50"/>
       <use x="63.623047" xlink:href="#DejaVuSans-48"/>
      </g>
     </g>
    </g>
    <g id="xtick_4">
     <g id="line2d_4">
      <g>
       <use style="stroke:#000000;stroke-width:0.8;" x="225.687226" xlink:href="#mfd49512992" y="307.584"/>
      </g>
     </g>
     <g id="text_4">
      <!-- 40 -->
      <g transform="translate(219.324726 322.182437)scale(0.1 -0.1)">
       <defs>
        <path d="M 37.796875 64.3125 
L 12.890625 25.390625 
L 37.796875 25.390625 
z
M 35.203125 72.90625 
L 47.609375 72.90625 
L 47.609375 25.390625 
L 58.015625 25.390625 
L 58.015625 17.1875 
L 47.609375 17.1875 
L 47.609375 0 
L 37.796875 0 
L 37.796875 17.1875 
L 4.890625 17.1875 
L 4.890625 26.703125 
z
" id="DejaVuSans-52"/>
       </defs>
       <use xlink:href="#DejaVuSans-52"/>
       <use x="63.623047" xlink:href="#DejaVuSans-48"/>
      </g>
     </g>
    </g>
    <g id="xtick_5">
     <g id="line2d_5">
      <g>
       <use style="stroke:#000000;stroke-width:0.8;" x="276.257891" xlink:href="#mfd49512992" y="307.584"/>
      </g>
     </g>
     <g id="text_5">
      <!-- 60 -->
      <g transform="translate(269.895391 322.182437)scale(0.1 -0.1)">
       <defs>
        <path d="M 33.015625 40.375 
Q 26.375 40.375 22.484375 35.828125 
Q 18.609375 31.296875 18.609375 23.390625 
Q 18.609375 15.53125 22.484375 10.953125 
Q 26.375 6.390625 33.015625 6.390625 
Q 39.65625 6.390625 43.53125 10.953125 
Q 47.40625 15.53125 47.40625 23.390625 
Q 47.40625 31.296875 43.53125 35.828125 
Q 39.65625 40.375 33.015625 40.375 
z
M 52.59375 71.296875 
L 52.59375 62.3125 
Q 48.875 64.0625 45.09375 64.984375 
Q 41.3125 65.921875 37.59375 65.921875 
Q 27.828125 65.921875 22.671875 59.328125 
Q 17.53125 52.734375 16.796875 39.40625 
Q 19.671875 43.65625 24.015625 45.921875 
Q 28.375 48.1875 33.59375 48.1875 
Q 44.578125 48.1875 50.953125 41.515625 
Q 57.328125 34.859375 57.328125 23.390625 
Q 57.328125 12.15625 50.6875 5.359375 
Q 44.046875 -1.421875 33.015625 -1.421875 
Q 20.359375 -1.421875 13.671875 8.265625 
Q 6.984375 17.96875 6.984375 36.375 
Q 6.984375 53.65625 15.1875 63.9375 
Q 23.390625 74.21875 37.203125 74.21875 
Q 40.921875 74.21875 44.703125 73.484375 
Q 48.484375 72.75 52.59375 71.296875 
z
" id="DejaVuSans-54"/>
       </defs>
       <use xlink:href="#DejaVuSans-54"/>
       <use x="63.623047" xlink:href="#DejaVuSans-48"/>
      </g>
     </g>
    </g>
    <g id="xtick_6">
     <g id="line2d_6">
      <g>
       <use style="stroke:#000000;stroke-width:0.8;" x="326.828556" xlink:href="#mfd49512992" y="307.584"/>
      </g>
     </g>
     <g id="text_6">
      <!-- 80 -->
      <g transform="translate(320.466056 322.182437)scale(0.1 -0.1)">
       <defs>
        <path d="M 31.78125 34.625 
Q 24.75 34.625 20.71875 30.859375 
Q 16.703125 27.09375 16.703125 20.515625 
Q 16.703125 13.921875 20.71875 10.15625 
Q 24.75 6.390625 31.78125 6.390625 
Q 38.8125 6.390625 42.859375 10.171875 
Q 46.921875 13.96875 46.921875 20.515625 
Q 46.921875 27.09375 42.890625 30.859375 
Q 38.875 34.625 31.78125 34.625 
z
M 21.921875 38.8125 
Q 15.578125 40.375 12.03125 44.71875 
Q 8.5 49.078125 8.5 55.328125 
Q 8.5 64.0625 14.71875 69.140625 
Q 20.953125 74.21875 31.78125 74.21875 
Q 42.671875 74.21875 48.875 69.140625 
Q 55.078125 64.0625 55.078125 55.328125 
Q 55.078125 49.078125 51.53125 44.71875 
Q 48 40.375 41.703125 38.8125 
Q 48.828125 37.15625 52.796875 32.3125 
Q 56.78125 27.484375 56.78125 20.515625 
Q 56.78125 9.90625 50.3125 4.234375 
Q 43.84375 -1.421875 31.78125 -1.421875 
Q 19.734375 -1.421875 13.25 4.234375 
Q 6.78125 9.90625 6.78125 20.515625 
Q 6.78125 27.484375 10.78125 32.3125 
Q 14.796875 37.15625 21.921875 38.8125 
z
M 18.3125 54.390625 
Q 18.3125 48.734375 21.84375 45.5625 
Q 25.390625 42.390625 31.78125 42.390625 
Q 38.140625 42.390625 41.71875 45.5625 
Q 45.3125 48.734375 45.3125 54.390625 
Q 45.3125 60.0625 41.71875 63.234375 
Q 38.140625 66.40625 31.78125 66.40625 
Q 25.390625 66.40625 21.84375 63.234375 
Q 18.3125 60.0625 18.3125 54.390625 
z
" id="DejaVuSans-56"/>
       </defs>
       <use xlink:href="#DejaVuSans-56"/>
       <use x="63.623047" xlink:href="#DejaVuSans-48"/>
      </g>
     </g>
    </g>
    <g id="xtick_7">
     <g id="line2d_7">
      <g>
       <use style="stroke:#000000;stroke-width:0.8;" x="377.399221" xlink:href="#mfd49512992" y="307.584"/>
      </g>
     </g>
     <g id="text_7">
      <!-- 100 -->
      <g transform="translate(367.855471 322.182437)scale(0.1 -0.1)">
       <defs>
        <path d="M 12.40625 8.296875 
L 28.515625 8.296875 
L 28.515625 63.921875 
L 10.984375 60.40625 
L 10.984375 69.390625 
L 28.421875 72.90625 
L 38.28125 72.90625 
L 38.28125 8.296875 
L 54.390625 8.296875 
L 54.390625 0 
L 12.40625 0 
z
" id="DejaVuSans-49"/>
       </defs>
       <use xlink:href="#DejaVuSans-49"/>
       <use x="63.623047" xlink:href="#DejaVuSans-48"/>
       <use x="127.246094" xlink:href="#DejaVuSans-48"/>
      </g>
     </g>
    </g>
   </g>
   <g id="matplotlib.axis_2">
    <g id="ytick_1">
     <g id="line2d_8">
      <defs>
       <path d="M 0 0 
L -3.5 0 
" id="md3294c1268" style="stroke:#000000;stroke-width:0.8;"/>
      </defs>
      <g>
       <use style="stroke:#000000;stroke-width:0.8;" x="57.6" xlink:href="#md3294c1268" y="263.649899"/>
      </g>
     </g>
     <g id="text_8">
      <!-- 20 -->
      <g transform="translate(37.875 267.449118)scale(0.1 -0.1)">
       <use xlink:href="#DejaVuSans-50"/>
       <use x="63.623047" xlink:href="#DejaVuSans-48"/>
      </g>
     </g>
    </g>
    <g id="ytick_2">
     <g id="line2d_9">
      <g>
       <use style="stroke:#000000;stroke-width:0.8;" x="57.6" xlink:href="#md3294c1268" y="213.079234"/>
      </g>
     </g>
     <g id="text_9">
      <!-- 40 -->
      <g transform="translate(37.875 216.878453)scale(0.1 -0.1)">
       <use xlink:href="#DejaVuSans-52"/>
       <use x="63.623047" xlink:href="#DejaVuSans-48"/>
      </g>
     </g>
    </g>
    <g id="ytick_3">
     <g id="line2d_10">
      <g>
       <use style="stroke:#000000;stroke-width:0.8;" x="57.6" xlink:href="#md3294c1268" y="162.508569"/>
      </g>
     </g>
     <g id="text_10">
      <!-- 60 -->
      <g transform="translate(37.875 166.307787)scale(0.1 -0.1)">
       <use xlink:href="#DejaVuSans-54"/>
       <use x="63.623047" xlink:href="#DejaVuSans-48"/>
      </g>
     </g>
    </g>
    <g id="ytick_4">
     <g id="line2d_11">
      <g>
       <use style="stroke:#000000;stroke-width:0.8;" x="57.6" xlink:href="#md3294c1268" y="111.937904"/>
      </g>
     </g>
     <g id="text_11">
      <!-- 80 -->
      <g transform="translate(37.875 115.737122)scale(0.1 -0.1)">
       <use xlink:href="#DejaVuSans-56"/>
       <use x="63.623047" xlink:href="#DejaVuSans-48"/>
      </g>
     </g>
    </g>
    <g id="ytick_5">
     <g id="line2d_12">
      <g>
       <use style="stroke:#000000;stroke-width:0.8;" x="57.6" xlink:href="#md3294c1268" y="61.367238"/>
      </g>
     </g>
     <g id="text_12">
      <!-- 100 -->
      <g transform="translate(31.5125 65.166457)scale(0.1 -0.1)">
       <use xlink:href="#DejaVuSans-49"/>
       <use x="63.623047" xlink:href="#DejaVuSans-48"/>
       <use x="127.246094" xlink:href="#DejaVuSans-48"/>
      </g>
     </g>
    </g>
   </g>
   <g id="line2d_13">
    <path clip-path="url(#p33606822aa)" d="M 149.831228 191.819326 
L 149.080254 186.883629 
L 148.700974 181.841734 
L 148.703503 176.739154 
L 149.085311 171.621403 
L 149.851457 166.533994 
L 151.004468 161.527498 
L 152.549402 156.642372 
L 154.48373 151.924128 
L 155.601341 149.64592 
L 156.817566 147.423339 
L 158.134932 145.269029 
L 159.55091 143.182989 
L 161.065502 141.172805 
L 164.357652 137.359777 
L 167.940584 133.779374 
L 171.733384 130.383554 
L 177.650151 125.52877 
L 195.488953 111.384155 
L 201.198382 106.420644 
L 206.728284 101.237151 
L 212.09636 95.861489 
L 217.325367 90.324001 
L 224.276305 82.922984 
L 227.902221 79.398209 
L 231.722835 76.101002 
L 233.73049 74.563654 
L 235.811473 73.114804 
L 237.963255 71.754453 
L 240.17825 70.490186 
L 242.451402 69.324533 
L 244.775124 68.26002 
L 247.146888 67.299177 
L 249.55658 66.447062 
L 251.996615 65.703673 
L 254.466992 65.076597 
L 256.957597 64.568362 
L 259.460845 64.176439 
L 264.50274 63.739003 
L 269.572449 63.721303 
L 274.649744 64.08794 
L 279.711868 64.793401 
L 284.74112 65.802286 
L 289.694517 67.117123 
L 294.521487 68.783427 
L 296.865437 69.767026 
L 299.158817 70.856824 
L 301.388983 72.057877 
L 303.550879 73.3803 
L 305.639448 74.826621 
L 307.642046 76.404426 
L 309.558674 78.1036 
L 311.37669 79.916558 
L 313.091035 81.833187 
L 314.694125 83.848428 
L 316.178374 85.952167 
L 317.538725 88.134292 
L 318.767592 90.384686 
L 319.854862 92.698294 
L 320.798005 95.065001 
L 321.589435 97.474693 
L 322.23674 99.922314 
L 322.750032 102.405333 
L 323.139426 104.913638 
L 323.586977 109.988404 
L 323.652719 115.103627 
L 323.420094 120.213793 
L 322.954843 125.283502 
L 322.289839 130.307698 
L 321.445309 135.293965 
L 320.441481 140.242305 
L 318.681622 147.610451 
L 316.686609 154.922969 
L 313.068278 167.047286 
L 307.985927 184.006158 
L 305.280396 193.748597 
L 303.421924 201.1041 
L 301.796077 208.51776 
L 300.890862 213.496442 
L 300.155059 218.510523 
L 299.61901 223.560004 
L 299.315586 228.629713 
L 299.267544 233.70448 
L 299.510283 238.766603 
L 300.071617 243.795856 
L 300.974304 248.774538 
L 302.2057 253.690006 
L 303.750633 258.527091 
L 305.586348 263.26809 
L 307.697674 267.902892 
L 310.066909 272.413795 
L 312.673827 276.788158 
L 315.498199 281.00828 
L 318.524853 285.064047 
L 321.733562 288.935231 
L 321.733562 288.935231 
" style="fill:none;stroke:#fea952;stroke-linecap:square;"/>
   </g>
   <g id="line2d_14">
    <path clip-path="url(#p33606822aa)" d="M 139.864035 193.537098 
L 139.382133 190.695208 
L 138.744229 184.937738 
L 138.543113 179.105457 
L 138.775326 173.23153 
L 139.448806 167.370296 
L 139.953325 164.454889 
L 140.56953 161.558036 
L 141.300049 158.677946 
L 142.149651 155.815393 
L 143.111746 153.005568 
L 144.192848 150.225522 
L 145.403368 147.469612 
L 146.728755 144.790728 
L 148.188862 142.146867 
L 149.766573 139.588689 
L 151.473036 137.096641 
L 153.274835 134.722905 
L 155.153849 132.466861 
L 159.087791 128.269985 
L 163.16042 124.442718 
L 167.274762 120.917011 
L 173.408301 115.990709 
L 187.108161 105.187467 
L 192.576953 100.561204 
L 197.896433 95.697463 
L 203.091849 90.603823 
L 208.187148 85.299741 
L 217.139711 75.756066 
L 221.162022 71.857294 
L 225.57375 68.070782 
L 227.951418 66.263171 
L 230.406818 64.565805 
L 232.94956 62.970459 
L 235.563206 61.49035 
L 238.239023 60.129341 
L 240.977512 58.885916 
L 243.774944 57.763681 
L 246.60894 56.771985 
L 249.508179 55.90044 
L 252.444767 55.166688 
L 255.39313 54.575958 
L 258.36944 54.121364 
L 261.320047 53.810565 
L 264.270641 53.627533 
L 267.197652 53.568 
L 273.014121 53.786632 
L 278.732526 54.406695 
L 284.365631 55.374482 
L 289.989173 56.688258 
L 295.615577 58.410063 
L 298.4351 59.457156 
L 301.206413 60.63184 
L 303.954528 61.951946 
L 306.666671 63.429917 
L 309.308992 65.065264 
L 311.898804 66.882054 
L 314.351589 68.836221 
L 316.700479 70.941874 
L 318.9152 73.173669 
L 321.006256 75.536762 
L 322.958423 78.017727 
L 324.761282 80.601525 
L 326.41559 83.286925 
L 327.921315 86.082937 
L 329.250437 88.954117 
L 330.407136 91.909011 
L 331.367408 94.888783 
L 332.141455 97.874801 
L 332.744449 100.853781 
L 333.194007 103.817689 
L 333.506188 106.760743 
L 333.776887 112.58216 
L 333.666163 118.252906 
L 333.276188 123.791242 
L 332.65965 129.226617 
L 331.846462 134.58666 
L 330.858897 139.858608 
L 329.106553 147.630007 
L 327.107067 155.232979 
L 324.220206 165.132985 
L 317.026548 189.1759 
L 314.443836 198.684945 
L 312.72826 205.74314 
L 311.288914 212.727355 
L 310.519713 217.368213 
L 309.929596 221.997984 
L 309.539527 226.577067 
L 309.371482 231.128026 
L 309.445107 235.60214 
L 309.782908 240.001924 
L 310.401674 244.321575 
L 311.321257 248.628186 
L 312.528525 252.897398 
L 314.0106 257.119772 
L 315.756849 261.282196 
L 317.739405 265.347923 
L 319.959556 269.325173 
L 322.391875 273.184242 
L 325.017725 276.907306 
L 327.812059 280.470892 
L 329.437906 282.382463 
L 329.437906 282.382463 
" style="fill:none;stroke:#ffffff;stroke-linecap:square;"/>
   </g>
   <g id="line2d_15">
    <path clip-path="url(#p33606822aa)" d="M 159.798422 190.101554 
L 159.149373 185.93046 
L 158.813492 181.660974 
L 158.802216 177.297424 
L 159.11399 172.93338 
L 159.749588 168.613099 
L 160.708886 164.37705 
L 161.987057 160.279175 
L 163.564091 156.378645 
L 165.446269 152.699812 
L 167.628785 149.269337 
L 170.188392 145.999979 
L 173.147231 142.813538 
L 176.468033 139.677225 
L 180.096061 136.563003 
L 185.887084 131.911221 
L 199.985919 120.787022 
L 206.057352 115.643034 
L 211.91399 110.281386 
L 217.555867 104.745072 
L 223.004552 99.070263 
L 231.412898 90.089903 
L 234.642421 86.939124 
L 237.87192 84.131222 
L 241.216129 81.663803 
L 244.793294 79.490023 
L 248.572735 77.634125 
L 252.50422 76.122138 
L 256.489217 74.986506 
L 260.55225 74.231513 
L 264.73484 73.850472 
L 269.019218 73.820294 
L 273.407571 74.125504 
L 277.866621 74.737784 
L 282.309195 75.61969 
L 286.583313 76.740849 
L 290.607874 78.109697 
L 294.363106 79.761701 
L 297.792767 81.695336 
L 299.380092 82.771188 
L 300.932503 83.97263 
L 302.41687 85.265326 
L 303.83818 86.659447 
L 305.175814 88.129611 
L 306.429827 89.679128 
L 307.595466 91.30281 
L 309.61387 94.686436 
L 310.459287 96.442471 
L 311.188873 98.220991 
L 311.811463 100.060604 
L 312.332025 101.969826 
L 313.084846 106.009587 
L 313.477302 110.288692 
L 313.543959 114.773994 
L 313.338651 119.401259 
L 312.915742 124.053813 
L 312.302607 128.710549 
L 311.517965 133.359146 
L 310.047964 140.354695 
L 308.27933 147.390953 
L 306.285043 154.48371 
L 301.17522 171.385597 
L 297.554612 183.696258 
L 294.837518 193.70749 
L 292.972691 201.395701 
L 291.860486 206.625748 
L 290.898701 211.930431 
L 290.108697 217.341639 
L 289.530888 222.835109 
L 289.204106 228.398076 
L 289.158892 234.037399 
L 289.441846 239.726946 
L 290.091029 245.434007 
L 291.12534 251.07532 
L 292.525635 256.621223 
L 294.266482 262.040858 
L 296.326215 267.33572 
L 298.679612 272.48222 
L 301.310208 277.475008 
L 304.196919 282.305196 
L 307.318098 286.956526 
L 310.656843 291.419368 
L 314.029218 295.488 
L 314.029218 295.488 
" style="fill:none;stroke:#ffffff;stroke-linecap:square;"/>
   </g>
   <g id="patch_3">
    <path d="M 57.6 307.584 
L 57.6 41.472 
" style="fill:none;stroke:#000000;stroke-linecap:square;stroke-linejoin:miter;stroke-width:0.8;"/>
   </g>
   <g id="patch_4">
    <path d="M 414.72 307.584 
L 414.72 41.472 
" style="fill:none;stroke:#000000;stroke-linecap:square;stroke-linejoin:miter;stroke-width:0.8;"/>
   </g>
   <g id="patch_5">
    <path d="M 57.6 307.584 
L 414.72 307.584 
" style="fill:none;stroke:#000000;stroke-linecap:square;stroke-linejoin:miter;stroke-width:0.8;"/>
   </g>
   <g id="patch_6">
    <path d="M 57.6 41.472 
L 414.72 41.472 
" style="fill:none;stroke:#000000;stroke-linecap:square;stroke-linejoin:miter;stroke-width:0.8;"/>
   </g>
  </g>
 </g>
 <defs>
  <clipPath id="p33606822aa">
   <rect height="266.112" width="357.12" x="57.6" y="41.472"/>
  </clipPath>
 </defs>
</svg>
