<?xml version="1.0" encoding="utf-8" standalone="no"?>
<!DOCTYPE svg PUBLIC "-//W3C//DTD SVG 1.1//EN"
  "http://www.w3.org/Graphics/SVG/1.1/DTD/svg11.dtd">
<!-- Created with matplotlib (https://matplotlib.org/) -->
<svg height="345.6pt" version="1.1" viewBox="0 0 460.8 345.6" width="460.8pt" xmlns="http://www.w3.org/2000/svg" xmlns:xlink="http://www.w3.org/1999/xlink">
 <metadata>
  <rdf:RDF xmlns:cc="http://creativecommons.org/ns#" xmlns:dc="http://purl.org/dc/elements/1.1/" xmlns:rdf="http://www.w3.org/1999/02/22-rdf-syntax-ns#">
   <cc:Work>
    <dc:type rdf:resource="http://purl.org/dc/dcmitype/StillImage"/>
    <dc:date>2021-01-22T10:50:05.456507</dc:date>
    <dc:format>image/svg+xml</dc:format>
    <dc:creator>
     <cc:Agent>
      <dc:title>Matplotlib v3.3.3, https://matplotlib.org/</dc:title>
     </cc:Agent>
    </dc:creator>
   </cc:Work>
  </rdf:RDF>
 </metadata>
 <defs>
  <style type="text/css">*{stroke-linecap:butt;stroke-linejoin:round;}</style>
 </defs>
 <g id="figure_1">
  <g id="patch_1">
   <path d="M 0 345.6 
L 460.8 345.6 
L 460.8 0 
L 0 0 
z
" style="fill:#ffffff;"/>
  </g>
  <g id="axes_1">
   <g id="patch_2">
    <path d="M 57.6 307.584 
L 414.72 307.584 
L 414.72 41.472 
L 57.6 41.472 
z
" style="fill:#7d9051;"/>
   </g>
   <g id="matplotlib.axis_1">
    <g id="xtick_1">
     <g id="line2d_1">
      <defs>
       <path d="M 0 0 
L 0 3.5 
" id="mdcb776a94d" style="stroke:#000000;stroke-width:0.8;"/>
      </defs>
      <g>
       <use style="stroke:#000000;stroke-width:0.8;" x="90.649958" xlink:href="#mdcb776a94d" y="307.584"/>
      </g>
     </g>
     <g id="text_1">
      <!-- −20 -->
      <g transform="translate(80.097614 322.182437)scale(0.1 -0.1)">
       <defs>
        <path d="M 10.59375 35.5 
L 73.1875 35.5 
L 73.1875 27.203125 
L 10.59375 27.203125 
z
" id="DejaVuSans-8722"/>
        <path d="M 19.1875 8.296875 
L 53.609375 8.296875 
L 53.609375 0 
L 7.328125 0 
L 7.328125 8.296875 
Q 12.9375 14.109375 22.625 23.890625 
Q 32.328125 33.6875 34.8125 36.53125 
Q 39.546875 41.84375 41.421875 45.53125 
Q 43.3125 49.21875 43.3125 52.78125 
Q 43.3125 58.59375 39.234375 62.25 
Q 35.15625 65.921875 28.609375 65.921875 
Q 23.96875 65.921875 18.8125 64.3125 
Q 13.671875 62.703125 7.8125 59.421875 
L 7.8125 69.390625 
Q 13.765625 71.78125 18.9375 73 
Q 24.125 74.21875 28.421875 74.21875 
Q 39.75 74.21875 46.484375 68.546875 
Q 53.21875 62.890625 53.21875 53.421875 
Q 53.21875 48.921875 51.53125 44.890625 
Q 49.859375 40.875 45.40625 35.40625 
Q 44.1875 33.984375 37.640625 27.21875 
Q 31.109375 20.453125 19.1875 8.296875 
z
" id="DejaVuSans-50"/>
        <path d="M 31.78125 66.40625 
Q 24.171875 66.40625 20.328125 58.90625 
Q 16.5 51.421875 16.5 36.375 
Q 16.5 21.390625 20.328125 13.890625 
Q 24.171875 6.390625 31.78125 6.390625 
Q 39.453125 6.390625 43.28125 13.890625 
Q 47.125 21.390625 47.125 36.375 
Q 47.125 51.421875 43.28125 58.90625 
Q 39.453125 66.40625 31.78125 66.40625 
z
M 31.78125 74.21875 
Q 44.046875 74.21875 50.515625 64.515625 
Q 56.984375 54.828125 56.984375 36.375 
Q 56.984375 17.96875 50.515625 8.265625 
Q 44.046875 -1.421875 31.78125 -1.421875 
Q 19.53125 -1.421875 13.0625 8.265625 
Q 6.59375 17.96875 6.59375 36.375 
Q 6.59375 54.828125 13.0625 64.515625 
Q 19.53125 74.21875 31.78125 74.21875 
z
" id="DejaVuSans-48"/>
       </defs>
       <use xlink:href="#DejaVuSans-8722"/>
       <use x="83.789062" xlink:href="#DejaVuSans-50"/>
       <use x="147.412109" xlink:href="#DejaVuSans-48"/>
      </g>
     </g>
    </g>
    <g id="xtick_2">
     <g id="line2d_2">
      <g>
       <use style="stroke:#000000;stroke-width:0.8;" x="136.737224" xlink:href="#mdcb776a94d" y="307.584"/>
      </g>
     </g>
     <g id="text_2">
      <!-- 0 -->
      <g transform="translate(133.555974 322.182437)scale(0.1 -0.1)">
       <use xlink:href="#DejaVuSans-48"/>
      </g>
     </g>
    </g>
    <g id="xtick_3">
     <g id="line2d_3">
      <g>
       <use style="stroke:#000000;stroke-width:0.8;" x="182.824491" xlink:href="#mdcb776a94d" y="307.584"/>
      </g>
     </g>
     <g id="text_3">
      <!-- 20 -->
      <g transform="translate(176.461991 322.182437)scale(0.1 -0.1)">
       <use xlink:href="#DejaVuSans-50"/>
       <use x="63.623047" xlink:href="#DejaVuSans-48"/>
      </g>
     </g>
    </g>
    <g id="xtick_4">
     <g id="line2d_4">
      <g>
       <use style="stroke:#000000;stroke-width:0.8;" x="228.911757" xlink:href="#mdcb776a94d" y="307.584"/>
      </g>
     </g>
     <g id="text_4">
      <!-- 40 -->
      <g transform="translate(222.549257 322.182437)scale(0.1 -0.1)">
       <defs>
        <path d="M 37.796875 64.3125 
L 12.890625 25.390625 
L 37.796875 25.390625 
z
M 35.203125 72.90625 
L 47.609375 72.90625 
L 47.609375 25.390625 
L 58.015625 25.390625 
L 58.015625 17.1875 
L 47.609375 17.1875 
L 47.609375 0 
L 37.796875 0 
L 37.796875 17.1875 
L 4.890625 17.1875 
L 4.890625 26.703125 
z
" id="DejaVuSans-52"/>
       </defs>
       <use xlink:href="#DejaVuSans-52"/>
       <use x="63.623047" xlink:href="#DejaVuSans-48"/>
      </g>
     </g>
    </g>
    <g id="xtick_5">
     <g id="line2d_5">
      <g>
       <use style="stroke:#000000;stroke-width:0.8;" x="274.999024" xlink:href="#mdcb776a94d" y="307.584"/>
      </g>
     </g>
     <g id="text_5">
      <!-- 60 -->
      <g transform="translate(268.636524 322.182437)scale(0.1 -0.1)">
       <defs>
        <path d="M 33.015625 40.375 
Q 26.375 40.375 22.484375 35.828125 
Q 18.609375 31.296875 18.609375 23.390625 
Q 18.609375 15.53125 22.484375 10.953125 
Q 26.375 6.390625 33.015625 6.390625 
Q 39.65625 6.390625 43.53125 10.953125 
Q 47.40625 15.53125 47.40625 23.390625 
Q 47.40625 31.296875 43.53125 35.828125 
Q 39.65625 40.375 33.015625 40.375 
z
M 52.59375 71.296875 
L 52.59375 62.3125 
Q 48.875 64.0625 45.09375 64.984375 
Q 41.3125 65.921875 37.59375 65.921875 
Q 27.828125 65.921875 22.671875 59.328125 
Q 17.53125 52.734375 16.796875 39.40625 
Q 19.671875 43.65625 24.015625 45.921875 
Q 28.375 48.1875 33.59375 48.1875 
Q 44.578125 48.1875 50.953125 41.515625 
Q 57.328125 34.859375 57.328125 23.390625 
Q 57.328125 12.15625 50.6875 5.359375 
Q 44.046875 -1.421875 33.015625 -1.421875 
Q 20.359375 -1.421875 13.671875 8.265625 
Q 6.984375 17.96875 6.984375 36.375 
Q 6.984375 53.65625 15.1875 63.9375 
Q 23.390625 74.21875 37.203125 74.21875 
Q 40.921875 74.21875 44.703125 73.484375 
Q 48.484375 72.75 52.59375 71.296875 
z
" id="DejaVuSans-54"/>
       </defs>
       <use xlink:href="#DejaVuSans-54"/>
       <use x="63.623047" xlink:href="#DejaVuSans-48"/>
      </g>
     </g>
    </g>
    <g id="xtick_6">
     <g id="line2d_6">
      <g>
       <use style="stroke:#000000;stroke-width:0.8;" x="321.08629" xlink:href="#mdcb776a94d" y="307.584"/>
      </g>
     </g>
     <g id="text_6">
      <!-- 80 -->
      <g transform="translate(314.72379 322.182437)scale(0.1 -0.1)">
       <defs>
        <path d="M 31.78125 34.625 
Q 24.75 34.625 20.71875 30.859375 
Q 16.703125 27.09375 16.703125 20.515625 
Q 16.703125 13.921875 20.71875 10.15625 
Q 24.75 6.390625 31.78125 6.390625 
Q 38.8125 6.390625 42.859375 10.171875 
Q 46.921875 13.96875 46.921875 20.515625 
Q 46.921875 27.09375 42.890625 30.859375 
Q 38.875 34.625 31.78125 34.625 
z
M 21.921875 38.8125 
Q 15.578125 40.375 12.03125 44.71875 
Q 8.5 49.078125 8.5 55.328125 
Q 8.5 64.0625 14.71875 69.140625 
Q 20.953125 74.21875 31.78125 74.21875 
Q 42.671875 74.21875 48.875 69.140625 
Q 55.078125 64.0625 55.078125 55.328125 
Q 55.078125 49.078125 51.53125 44.71875 
Q 48 40.375 41.703125 38.8125 
Q 48.828125 37.15625 52.796875 32.3125 
Q 56.78125 27.484375 56.78125 20.515625 
Q 56.78125 9.90625 50.3125 4.234375 
Q 43.84375 -1.421875 31.78125 -1.421875 
Q 19.734375 -1.421875 13.25 4.234375 
Q 6.78125 9.90625 6.78125 20.515625 
Q 6.78125 27.484375 10.78125 32.3125 
Q 14.796875 37.15625 21.921875 38.8125 
z
M 18.3125 54.390625 
Q 18.3125 48.734375 21.84375 45.5625 
Q 25.390625 42.390625 31.78125 42.390625 
Q 38.140625 42.390625 41.71875 45.5625 
Q 45.3125 48.734375 45.3125 54.390625 
Q 45.3125 60.0625 41.71875 63.234375 
Q 38.140625 66.40625 31.78125 66.40625 
Q 25.390625 66.40625 21.84375 63.234375 
Q 18.3125 60.0625 18.3125 54.390625 
z
" id="DejaVuSans-56"/>
       </defs>
       <use xlink:href="#DejaVuSans-56"/>
       <use x="63.623047" xlink:href="#DejaVuSans-48"/>
      </g>
     </g>
    </g>
    <g id="xtick_7">
     <g id="line2d_7">
      <g>
       <use style="stroke:#000000;stroke-width:0.8;" x="367.173557" xlink:href="#mdcb776a94d" y="307.584"/>
      </g>
     </g>
     <g id="text_7">
      <!-- 100 -->
      <g transform="translate(357.629807 322.182437)scale(0.1 -0.1)">
       <defs>
        <path d="M 12.40625 8.296875 
L 28.515625 8.296875 
L 28.515625 63.921875 
L 10.984375 60.40625 
L 10.984375 69.390625 
L 28.421875 72.90625 
L 38.28125 72.90625 
L 38.28125 8.296875 
L 54.390625 8.296875 
L 54.390625 0 
L 12.40625 0 
z
" id="DejaVuSans-49"/>
       </defs>
       <use xlink:href="#DejaVuSans-49"/>
       <use x="63.623047" xlink:href="#DejaVuSans-48"/>
       <use x="127.246094" xlink:href="#DejaVuSans-48"/>
      </g>
     </g>
    </g>
    <g id="xtick_8">
     <g id="line2d_8">
      <g>
       <use style="stroke:#000000;stroke-width:0.8;" x="413.260824" xlink:href="#mdcb776a94d" y="307.584"/>
      </g>
     </g>
     <g id="text_8">
      <!-- 120 -->
      <g transform="translate(403.717074 322.182437)scale(0.1 -0.1)">
       <use xlink:href="#DejaVuSans-49"/>
       <use x="63.623047" xlink:href="#DejaVuSans-50"/>
       <use x="127.246094" xlink:href="#DejaVuSans-48"/>
      </g>
     </g>
    </g>
   </g>
   <g id="matplotlib.axis_2">
    <g id="ytick_1">
     <g id="line2d_9">
      <defs>
       <path d="M 0 0 
L -3.5 0 
" id="m927d926e0c" style="stroke:#000000;stroke-width:0.8;"/>
      </defs>
      <g>
       <use style="stroke:#000000;stroke-width:0.8;" x="57.6" xlink:href="#m927d926e0c" y="271.551553"/>
      </g>
     </g>
     <g id="text_9">
      <!-- 20 -->
      <g transform="translate(37.875 275.350772)scale(0.1 -0.1)">
       <use xlink:href="#DejaVuSans-50"/>
       <use x="63.623047" xlink:href="#DejaVuSans-48"/>
      </g>
     </g>
    </g>
    <g id="ytick_2">
     <g id="line2d_10">
      <g>
       <use style="stroke:#000000;stroke-width:0.8;" x="57.6" xlink:href="#m927d926e0c" y="225.464287"/>
      </g>
     </g>
     <g id="text_10">
      <!-- 40 -->
      <g transform="translate(37.875 229.263506)scale(0.1 -0.1)">
       <use xlink:href="#DejaVuSans-52"/>
       <use x="63.623047" xlink:href="#DejaVuSans-48"/>
      </g>
     </g>
    </g>
    <g id="ytick_3">
     <g id="line2d_11">
      <g>
       <use style="stroke:#000000;stroke-width:0.8;" x="57.6" xlink:href="#m927d926e0c" y="179.37702"/>
      </g>
     </g>
     <g id="text_11">
      <!-- 60 -->
      <g transform="translate(37.875 183.176239)scale(0.1 -0.1)">
       <use xlink:href="#DejaVuSans-54"/>
       <use x="63.623047" xlink:href="#DejaVuSans-48"/>
      </g>
     </g>
    </g>
    <g id="ytick_4">
     <g id="line2d_12">
      <g>
       <use style="stroke:#000000;stroke-width:0.8;" x="57.6" xlink:href="#m927d926e0c" y="133.289754"/>
      </g>
     </g>
     <g id="text_12">
      <!-- 80 -->
      <g transform="translate(37.875 137.088972)scale(0.1 -0.1)">
       <use xlink:href="#DejaVuSans-56"/>
       <use x="63.623047" xlink:href="#DejaVuSans-48"/>
      </g>
     </g>
    </g>
    <g id="ytick_5">
     <g id="line2d_13">
      <g>
       <use style="stroke:#000000;stroke-width:0.8;" x="57.6" xlink:href="#m927d926e0c" y="87.202487"/>
      </g>
     </g>
     <g id="text_13">
      <!-- 100 -->
      <g transform="translate(31.5125 91.001706)scale(0.1 -0.1)">
       <use xlink:href="#DejaVuSans-49"/>
       <use x="63.623047" xlink:href="#DejaVuSans-48"/>
       <use x="127.246094" xlink:href="#DejaVuSans-48"/>
      </g>
     </g>
    </g>
   </g>
   <g id="line2d_14">
    <path clip-path="url(#p70b5bfee1a)" d="M 292.337053 294.595187 
L 291.945312 289.958808 
L 291.777093 285.338559 
L 291.804746 280.729833 
L 292.005225 276.134932 
L 292.579012 269.263321 
L 293.403974 262.405535 
L 294.754331 253.280257 
L 297.395131 237.338671 
L 298.73627 230.561539 
L 300.340107 223.853537 
L 302.23199 217.221579 
L 304.338178 210.635709 
L 310.17513 193.046504 
L 311.329616 188.582952 
L 312.186839 184.068704 
L 312.654625 179.489934 
L 312.698408 174.865077 
L 312.338927 170.231002 
L 311.599227 165.633797 
L 310.495437 161.114941 
L 309.055209 156.715911 
L 307.317719 152.443622 
L 305.347489 148.272724 
L 302.091423 142.159248 
L 288.583246 118.016434 
L 281.144761 103.694815 
L 278.815049 99.717484 
L 276.28025 95.857676 
L 273.517318 92.145346 
L 270.533168 88.598931 
L 267.33932 85.246083 
L 263.947297 82.10754 
L 260.366317 79.206346 
L 256.612509 76.544807 
L 252.706613 74.097573 
L 248.667064 71.850819 
L 244.514601 69.779196 
L 240.265355 67.86427 
L 235.935457 66.138302 
L 231.524905 64.686553 
L 227.033701 63.587372 
L 224.759295 63.19563 
L 222.466453 62.926019 
L 220.157481 62.785453 
L 217.830074 62.785453 
L 215.495754 62.926019 
L 213.166043 63.202543 
L 210.852462 63.617328 
L 208.564229 64.165767 
L 206.317475 64.850163 
L 204.119112 65.665907 
L 201.982967 66.615305 
L 199.918258 67.693747 
L 197.93881 68.898929 
L 196.051536 70.230851 
L 194.256437 71.680296 
L 192.5466 73.233437 
L 190.924328 74.883361 
L 187.910221 78.429776 
L 185.186463 82.229671 
L 182.720794 86.202393 
L 180.480953 90.274203 
L 178.4462 94.424362 
L 176.593492 98.643651 
L 174.899785 102.922854 
L 172.604639 109.430376 
L 170.53993 116.020855 
L 168.009739 124.890349 
L 163.818102 140.497802 
L 162.237309 147.224239 
L 160.935343 153.994458 
L 160.276295 158.540967 
L 159.822336 163.117433 
L 159.601117 167.728464 
L 159.647204 172.380973 
L 159.780857 174.722206 
L 159.780857 174.722206 
" style="fill:none;stroke:#fea952;stroke-linecap:square;"/>
   </g>
   <g id="line2d_15">
    <path clip-path="url(#p70b5bfee1a)" d="M 283.162942 295.488 
L 282.738374 290.39898 
L 282.559713 285.375392 
L 282.592967 280.40645 
L 282.809855 275.497263 
L 283.416592 268.257577 
L 284.27353 261.14203 
L 285.650869 251.835117 
L 287.915534 237.991068 
L 289.242479 230.924218 
L 290.840778 223.796169 
L 292.742191 216.782715 
L 294.861056 209.953819 
L 298.605146 198.894747 
L 300.681026 192.628166 
L 301.828901 188.63487 
L 302.714762 184.790078 
L 303.283928 181.059297 
L 303.511682 177.300183 
L 303.397204 173.45954 
L 302.947687 169.576309 
L 302.179202 165.719619 
L 301.111532 161.931257 
L 299.735618 158.168957 
L 298.06873 154.380178 
L 296.163386 150.56098 
L 292.950208 144.706483 
L 282.632167 126.45088 
L 279.313187 120.148859 
L 273.14177 108.267953 
L 271.042433 104.672067 
L 268.803979 101.249041 
L 266.377281 97.974696 
L 263.763669 94.854755 
L 260.974892 91.913579 
L 258.031032 89.175726 
L 254.921853 86.644038 
L 251.61506 84.289931 
L 248.127535 82.097166 
L 244.460801 80.052574 
L 240.646167 78.145597 
L 236.740241 76.381019 
L 232.903082 74.842677 
L 229.140781 73.590339 
L 225.469133 72.67107 
L 221.906348 72.126439 
L 218.384119 71.98624 
L 214.79264 72.275339 
L 211.250157 72.983206 
L 207.862675 74.088923 
L 204.711717 75.566752 
L 203.253638 76.429802 
L 201.842133 77.402353 
L 199.119168 79.69585 
L 196.539135 82.422082 
L 194.104042 85.53288 
L 191.825165 88.946253 
L 189.704747 92.568405 
L 187.759583 96.30804 
L 185.974143 100.150195 
L 184.327261 104.093791 
L 182.073966 110.195713 
L 180.029523 116.488709 
L 177.508621 125.133159 
L 173.319786 140.545755 
L 171.734662 146.979962 
L 170.410931 153.321827 
L 169.717831 157.493975 
L 169.203727 161.618316 
L 168.891627 165.729464 
L 168.804237 169.821323 
L 168.983328 174.196868 
L 168.983328 174.196868 
" style="fill:none;stroke:#ffffff;stroke-linecap:square;"/>
   </g>
   <g id="line2d_16">
    <path clip-path="url(#p70b5bfee1a)" d="M 301.511165 293.702373 
L 301.152249 289.518635 
L 300.994473 285.301727 
L 301.016524 281.053215 
L 301.349713 274.609088 
L 301.981896 268.074032 
L 302.839822 261.459995 
L 304.579353 250.191978 
L 306.455231 239.03456 
L 307.733141 232.565975 
L 309.236599 226.264736 
L 311.036238 219.950435 
L 313.077093 213.567059 
L 319.06652 195.476449 
L 320.350235 190.477651 
L 321.33283 185.214262 
L 321.661233 182.515472 
L 321.867381 179.784154 
L 321.945047 177.061741 
L 321.901613 174.352771 
L 321.741523 171.634235 
L 321.084945 166.276969 
L 320.000722 161.003771 
L 318.519767 155.865029 
L 316.701833 150.958315 
L 314.64487 146.313124 
L 312.425404 141.878093 
L 308.969754 135.583986 
L 298.866527 117.716389 
L 295.742508 111.78685 
L 290.334886 101.283233 
L 287.904885 96.950933 
L 285.210593 92.608903 
L 282.238334 88.368152 
L 279.01576 84.311712 
L 275.538668 80.440485 
L 271.820297 76.786913 
L 267.866854 73.374213 
L 263.725857 70.247703 
L 259.466508 67.420528 
L 255.08276 64.840204 
L 250.627784 62.499992 
L 246.107011 60.362322 
L 241.411094 58.366127 
L 236.469427 56.569368 
L 231.283992 55.088811 
L 228.598269 54.503674 
L 225.835739 54.041248 
L 223.026558 53.7256 
L 220.157481 53.568 
L 217.276029 53.584666 
L 214.40932 53.772817 
L 211.539446 54.129747 
L 208.704089 54.653739 
L 205.878301 55.348328 
L 203.110811 56.208476 
L 200.37555 57.242892 
L 197.715548 58.445203 
L 195.124799 59.820743 
L 192.623981 61.368056 
L 190.26094 63.059349 
L 188.058854 64.857437 
L 185.974031 66.771023 
L 184.042686 68.751114 
L 182.217065 70.815011 
L 178.923511 75.073567 
L 176.022179 79.45355 
L 173.441696 83.887452 
L 171.119179 88.374395 
L 169.024071 92.901688 
L 167.126842 97.461192 
L 164.605496 104.305183 
L 162.386867 111.14245 
L 159.745995 120.200119 
L 155.459382 135.979384 
L 153.740049 142.975007 
L 152.252457 150.14132 
L 151.44772 155.034537 
L 150.837296 160.030866 
L 150.467303 165.104911 
L 150.374953 170.276592 
L 150.578387 175.247544 
L 150.578387 175.247544 
" style="fill:none;stroke:#ffffff;stroke-linecap:square;"/>
   </g>
   <g id="patch_3">
    <path d="M 57.6 307.584 
L 57.6 41.472 
" style="fill:none;stroke:#000000;stroke-linecap:square;stroke-linejoin:miter;stroke-width:0.8;"/>
   </g>
   <g id="patch_4">
    <path d="M 414.72 307.584 
L 414.72 41.472 
" style="fill:none;stroke:#000000;stroke-linecap:square;stroke-linejoin:miter;stroke-width:0.8;"/>
   </g>
   <g id="patch_5">
    <path d="M 57.6 307.584 
L 414.72 307.584 
" style="fill:none;stroke:#000000;stroke-linecap:square;stroke-linejoin:miter;stroke-width:0.8;"/>
   </g>
   <g id="patch_6">
    <path d="M 57.6 41.472 
L 414.72 41.472 
" style="fill:none;stroke:#000000;stroke-linecap:square;stroke-linejoin:miter;stroke-width:0.8;"/>
   </g>
  </g>
 </g>
 <defs>
  <clipPath id="p70b5bfee1a">
   <rect height="266.112" width="357.12" x="57.6" y="41.472"/>
  </clipPath>
 </defs>
</svg>
