<?xml version="1.0" encoding="utf-8" standalone="no"?>
<!DOCTYPE svg PUBLIC "-//W3C//DTD SVG 1.1//EN"
  "http://www.w3.org/Graphics/SVG/1.1/DTD/svg11.dtd">
<!-- Created with matplotlib (https://matplotlib.org/) -->
<svg height="345.6pt" version="1.1" viewBox="0 0 460.8 345.6" width="460.8pt" xmlns="http://www.w3.org/2000/svg" xmlns:xlink="http://www.w3.org/1999/xlink">
 <metadata>
  <rdf:RDF xmlns:cc="http://creativecommons.org/ns#" xmlns:dc="http://purl.org/dc/elements/1.1/" xmlns:rdf="http://www.w3.org/1999/02/22-rdf-syntax-ns#">
   <cc:Work>
    <dc:type rdf:resource="http://purl.org/dc/dcmitype/StillImage"/>
    <dc:date>2021-01-22T09:13:11.068289</dc:date>
    <dc:format>image/svg+xml</dc:format>
    <dc:creator>
     <cc:Agent>
      <dc:title>Matplotlib v3.3.3, https://matplotlib.org/</dc:title>
     </cc:Agent>
    </dc:creator>
   </cc:Work>
  </rdf:RDF>
 </metadata>
 <defs>
  <style type="text/css">*{stroke-linecap:butt;stroke-linejoin:round;}</style>
 </defs>
 <g id="figure_1">
  <g id="patch_1">
   <path d="M 0 345.6 
L 460.8 345.6 
L 460.8 0 
L 0 0 
z
" style="fill:#ffffff;"/>
  </g>
  <g id="axes_1">
   <g id="patch_2">
    <path d="M 57.6 307.584 
L 414.72 307.584 
L 414.72 41.472 
L 57.6 41.472 
z
" style="fill:#7d9051;"/>
   </g>
   <g id="matplotlib.axis_1">
    <g id="xtick_1">
     <g id="line2d_1">
      <defs>
       <path d="M 0 0 
L 0 3.5 
" id="me8f23fe4d3" style="stroke:#000000;stroke-width:0.8;"/>
      </defs>
      <g>
       <use style="stroke:#000000;stroke-width:0.8;" x="87.46531" xlink:href="#me8f23fe4d3" y="307.584"/>
      </g>
     </g>
     <g id="text_1">
      <!-- 0 -->
      <g transform="translate(84.28406 322.182437)scale(0.1 -0.1)">
       <defs>
        <path d="M 31.78125 66.40625 
Q 24.171875 66.40625 20.328125 58.90625 
Q 16.5 51.421875 16.5 36.375 
Q 16.5 21.390625 20.328125 13.890625 
Q 24.171875 6.390625 31.78125 6.390625 
Q 39.453125 6.390625 43.28125 13.890625 
Q 47.125 21.390625 47.125 36.375 
Q 47.125 51.421875 43.28125 58.90625 
Q 39.453125 66.40625 31.78125 66.40625 
z
M 31.78125 74.21875 
Q 44.046875 74.21875 50.515625 64.515625 
Q 56.984375 54.828125 56.984375 36.375 
Q 56.984375 17.96875 50.515625 8.265625 
Q 44.046875 -1.421875 31.78125 -1.421875 
Q 19.53125 -1.421875 13.0625 8.265625 
Q 6.59375 17.96875 6.59375 36.375 
Q 6.59375 54.828125 13.0625 64.515625 
Q 19.53125 74.21875 31.78125 74.21875 
z
" id="DejaVuSans-48"/>
       </defs>
       <use xlink:href="#DejaVuSans-48"/>
      </g>
     </g>
    </g>
    <g id="xtick_2">
     <g id="line2d_2">
      <g>
       <use style="stroke:#000000;stroke-width:0.8;" x="146.984101" xlink:href="#me8f23fe4d3" y="307.584"/>
      </g>
     </g>
     <g id="text_2">
      <!-- 20 -->
      <g transform="translate(140.621601 322.182437)scale(0.1 -0.1)">
       <defs>
        <path d="M 19.1875 8.296875 
L 53.609375 8.296875 
L 53.609375 0 
L 7.328125 0 
L 7.328125 8.296875 
Q 12.9375 14.109375 22.625 23.890625 
Q 32.328125 33.6875 34.8125 36.53125 
Q 39.546875 41.84375 41.421875 45.53125 
Q 43.3125 49.21875 43.3125 52.78125 
Q 43.3125 58.59375 39.234375 62.25 
Q 35.15625 65.921875 28.609375 65.921875 
Q 23.96875 65.921875 18.8125 64.3125 
Q 13.671875 62.703125 7.8125 59.421875 
L 7.8125 69.390625 
Q 13.765625 71.78125 18.9375 73 
Q 24.125 74.21875 28.421875 74.21875 
Q 39.75 74.21875 46.484375 68.546875 
Q 53.21875 62.890625 53.21875 53.421875 
Q 53.21875 48.921875 51.53125 44.890625 
Q 49.859375 40.875 45.40625 35.40625 
Q 44.1875 33.984375 37.640625 27.21875 
Q 31.109375 20.453125 19.1875 8.296875 
z
" id="DejaVuSans-50"/>
       </defs>
       <use xlink:href="#DejaVuSans-50"/>
       <use x="63.623047" xlink:href="#DejaVuSans-48"/>
      </g>
     </g>
    </g>
    <g id="xtick_3">
     <g id="line2d_3">
      <g>
       <use style="stroke:#000000;stroke-width:0.8;" x="206.502891" xlink:href="#me8f23fe4d3" y="307.584"/>
      </g>
     </g>
     <g id="text_3">
      <!-- 40 -->
      <g transform="translate(200.140391 322.182437)scale(0.1 -0.1)">
       <defs>
        <path d="M 37.796875 64.3125 
L 12.890625 25.390625 
L 37.796875 25.390625 
z
M 35.203125 72.90625 
L 47.609375 72.90625 
L 47.609375 25.390625 
L 58.015625 25.390625 
L 58.015625 17.1875 
L 47.609375 17.1875 
L 47.609375 0 
L 37.796875 0 
L 37.796875 17.1875 
L 4.890625 17.1875 
L 4.890625 26.703125 
z
" id="DejaVuSans-52"/>
       </defs>
       <use xlink:href="#DejaVuSans-52"/>
       <use x="63.623047" xlink:href="#DejaVuSans-48"/>
      </g>
     </g>
    </g>
    <g id="xtick_4">
     <g id="line2d_4">
      <g>
       <use style="stroke:#000000;stroke-width:0.8;" x="266.021682" xlink:href="#me8f23fe4d3" y="307.584"/>
      </g>
     </g>
     <g id="text_4">
      <!-- 60 -->
      <g transform="translate(259.659182 322.182437)scale(0.1 -0.1)">
       <defs>
        <path d="M 33.015625 40.375 
Q 26.375 40.375 22.484375 35.828125 
Q 18.609375 31.296875 18.609375 23.390625 
Q 18.609375 15.53125 22.484375 10.953125 
Q 26.375 6.390625 33.015625 6.390625 
Q 39.65625 6.390625 43.53125 10.953125 
Q 47.40625 15.53125 47.40625 23.390625 
Q 47.40625 31.296875 43.53125 35.828125 
Q 39.65625 40.375 33.015625 40.375 
z
M 52.59375 71.296875 
L 52.59375 62.3125 
Q 48.875 64.0625 45.09375 64.984375 
Q 41.3125 65.921875 37.59375 65.921875 
Q 27.828125 65.921875 22.671875 59.328125 
Q 17.53125 52.734375 16.796875 39.40625 
Q 19.671875 43.65625 24.015625 45.921875 
Q 28.375 48.1875 33.59375 48.1875 
Q 44.578125 48.1875 50.953125 41.515625 
Q 57.328125 34.859375 57.328125 23.390625 
Q 57.328125 12.15625 50.6875 5.359375 
Q 44.046875 -1.421875 33.015625 -1.421875 
Q 20.359375 -1.421875 13.671875 8.265625 
Q 6.984375 17.96875 6.984375 36.375 
Q 6.984375 53.65625 15.1875 63.9375 
Q 23.390625 74.21875 37.203125 74.21875 
Q 40.921875 74.21875 44.703125 73.484375 
Q 48.484375 72.75 52.59375 71.296875 
z
" id="DejaVuSans-54"/>
       </defs>
       <use xlink:href="#DejaVuSans-54"/>
       <use x="63.623047" xlink:href="#DejaVuSans-48"/>
      </g>
     </g>
    </g>
    <g id="xtick_5">
     <g id="line2d_5">
      <g>
       <use style="stroke:#000000;stroke-width:0.8;" x="325.540472" xlink:href="#me8f23fe4d3" y="307.584"/>
      </g>
     </g>
     <g id="text_5">
      <!-- 80 -->
      <g transform="translate(319.177972 322.182437)scale(0.1 -0.1)">
       <defs>
        <path d="M 31.78125 34.625 
Q 24.75 34.625 20.71875 30.859375 
Q 16.703125 27.09375 16.703125 20.515625 
Q 16.703125 13.921875 20.71875 10.15625 
Q 24.75 6.390625 31.78125 6.390625 
Q 38.8125 6.390625 42.859375 10.171875 
Q 46.921875 13.96875 46.921875 20.515625 
Q 46.921875 27.09375 42.890625 30.859375 
Q 38.875 34.625 31.78125 34.625 
z
M 21.921875 38.8125 
Q 15.578125 40.375 12.03125 44.71875 
Q 8.5 49.078125 8.5 55.328125 
Q 8.5 64.0625 14.71875 69.140625 
Q 20.953125 74.21875 31.78125 74.21875 
Q 42.671875 74.21875 48.875 69.140625 
Q 55.078125 64.0625 55.078125 55.328125 
Q 55.078125 49.078125 51.53125 44.71875 
Q 48 40.375 41.703125 38.8125 
Q 48.828125 37.15625 52.796875 32.3125 
Q 56.78125 27.484375 56.78125 20.515625 
Q 56.78125 9.90625 50.3125 4.234375 
Q 43.84375 -1.421875 31.78125 -1.421875 
Q 19.734375 -1.421875 13.25 4.234375 
Q 6.78125 9.90625 6.78125 20.515625 
Q 6.78125 27.484375 10.78125 32.3125 
Q 14.796875 37.15625 21.921875 38.8125 
z
M 18.3125 54.390625 
Q 18.3125 48.734375 21.84375 45.5625 
Q 25.390625 42.390625 31.78125 42.390625 
Q 38.140625 42.390625 41.71875 45.5625 
Q 45.3125 48.734375 45.3125 54.390625 
Q 45.3125 60.0625 41.71875 63.234375 
Q 38.140625 66.40625 31.78125 66.40625 
Q 25.390625 66.40625 21.84375 63.234375 
Q 18.3125 60.0625 18.3125 54.390625 
z
" id="DejaVuSans-56"/>
       </defs>
       <use xlink:href="#DejaVuSans-56"/>
       <use x="63.623047" xlink:href="#DejaVuSans-48"/>
      </g>
     </g>
    </g>
    <g id="xtick_6">
     <g id="line2d_6">
      <g>
       <use style="stroke:#000000;stroke-width:0.8;" x="385.059263" xlink:href="#me8f23fe4d3" y="307.584"/>
      </g>
     </g>
     <g id="text_6">
      <!-- 100 -->
      <g transform="translate(375.515513 322.182437)scale(0.1 -0.1)">
       <defs>
        <path d="M 12.40625 8.296875 
L 28.515625 8.296875 
L 28.515625 63.921875 
L 10.984375 60.40625 
L 10.984375 69.390625 
L 28.421875 72.90625 
L 38.28125 72.90625 
L 38.28125 8.296875 
L 54.390625 8.296875 
L 54.390625 0 
L 12.40625 0 
z
" id="DejaVuSans-49"/>
       </defs>
       <use xlink:href="#DejaVuSans-49"/>
       <use x="63.623047" xlink:href="#DejaVuSans-48"/>
       <use x="127.246094" xlink:href="#DejaVuSans-48"/>
      </g>
     </g>
    </g>
   </g>
   <g id="matplotlib.axis_2">
    <g id="ytick_1">
     <g id="line2d_7">
      <defs>
       <path d="M 0 0 
L -3.5 0 
" id="mc0b3d3e3e0" style="stroke:#000000;stroke-width:0.8;"/>
      </defs>
      <g>
       <use style="stroke:#000000;stroke-width:0.8;" x="57.6" xlink:href="#mc0b3d3e3e0" y="283.447402"/>
      </g>
     </g>
     <g id="text_7">
      <!-- 10 -->
      <g transform="translate(37.875 287.24662)scale(0.1 -0.1)">
       <use xlink:href="#DejaVuSans-49"/>
       <use x="63.623047" xlink:href="#DejaVuSans-48"/>
      </g>
     </g>
    </g>
    <g id="ytick_2">
     <g id="line2d_8">
      <g>
       <use style="stroke:#000000;stroke-width:0.8;" x="57.6" xlink:href="#mc0b3d3e3e0" y="253.688006"/>
      </g>
     </g>
     <g id="text_8">
      <!-- 20 -->
      <g transform="translate(37.875 257.487225)scale(0.1 -0.1)">
       <use xlink:href="#DejaVuSans-50"/>
       <use x="63.623047" xlink:href="#DejaVuSans-48"/>
      </g>
     </g>
    </g>
    <g id="ytick_3">
     <g id="line2d_9">
      <g>
       <use style="stroke:#000000;stroke-width:0.8;" x="57.6" xlink:href="#mc0b3d3e3e0" y="223.928611"/>
      </g>
     </g>
     <g id="text_9">
      <!-- 30 -->
      <g transform="translate(37.875 227.72783)scale(0.1 -0.1)">
       <defs>
        <path d="M 40.578125 39.3125 
Q 47.65625 37.796875 51.625 33 
Q 55.609375 28.21875 55.609375 21.1875 
Q 55.609375 10.40625 48.1875 4.484375 
Q 40.765625 -1.421875 27.09375 -1.421875 
Q 22.515625 -1.421875 17.65625 -0.515625 
Q 12.796875 0.390625 7.625 2.203125 
L 7.625 11.71875 
Q 11.71875 9.328125 16.59375 8.109375 
Q 21.484375 6.890625 26.8125 6.890625 
Q 36.078125 6.890625 40.9375 10.546875 
Q 45.796875 14.203125 45.796875 21.1875 
Q 45.796875 27.640625 41.28125 31.265625 
Q 36.765625 34.90625 28.71875 34.90625 
L 20.21875 34.90625 
L 20.21875 43.015625 
L 29.109375 43.015625 
Q 36.375 43.015625 40.234375 45.921875 
Q 44.09375 48.828125 44.09375 54.296875 
Q 44.09375 59.90625 40.109375 62.90625 
Q 36.140625 65.921875 28.71875 65.921875 
Q 24.65625 65.921875 20.015625 65.03125 
Q 15.375 64.15625 9.8125 62.3125 
L 9.8125 71.09375 
Q 15.4375 72.65625 20.34375 73.4375 
Q 25.25 74.21875 29.59375 74.21875 
Q 40.828125 74.21875 47.359375 69.109375 
Q 53.90625 64.015625 53.90625 55.328125 
Q 53.90625 49.265625 50.4375 45.09375 
Q 46.96875 40.921875 40.578125 39.3125 
z
" id="DejaVuSans-51"/>
       </defs>
       <use xlink:href="#DejaVuSans-51"/>
       <use x="63.623047" xlink:href="#DejaVuSans-48"/>
      </g>
     </g>
    </g>
    <g id="ytick_4">
     <g id="line2d_10">
      <g>
       <use style="stroke:#000000;stroke-width:0.8;" x="57.6" xlink:href="#mc0b3d3e3e0" y="194.169216"/>
      </g>
     </g>
     <g id="text_10">
      <!-- 40 -->
      <g transform="translate(37.875 197.968435)scale(0.1 -0.1)">
       <use xlink:href="#DejaVuSans-52"/>
       <use x="63.623047" xlink:href="#DejaVuSans-48"/>
      </g>
     </g>
    </g>
    <g id="ytick_5">
     <g id="line2d_11">
      <g>
       <use style="stroke:#000000;stroke-width:0.8;" x="57.6" xlink:href="#mc0b3d3e3e0" y="164.409821"/>
      </g>
     </g>
     <g id="text_11">
      <!-- 50 -->
      <g transform="translate(37.875 168.209039)scale(0.1 -0.1)">
       <defs>
        <path d="M 10.796875 72.90625 
L 49.515625 72.90625 
L 49.515625 64.59375 
L 19.828125 64.59375 
L 19.828125 46.734375 
Q 21.96875 47.46875 24.109375 47.828125 
Q 26.265625 48.1875 28.421875 48.1875 
Q 40.625 48.1875 47.75 41.5 
Q 54.890625 34.8125 54.890625 23.390625 
Q 54.890625 11.625 47.5625 5.09375 
Q 40.234375 -1.421875 26.90625 -1.421875 
Q 22.3125 -1.421875 17.546875 -0.640625 
Q 12.796875 0.140625 7.71875 1.703125 
L 7.71875 11.625 
Q 12.109375 9.234375 16.796875 8.0625 
Q 21.484375 6.890625 26.703125 6.890625 
Q 35.15625 6.890625 40.078125 11.328125 
Q 45.015625 15.765625 45.015625 23.390625 
Q 45.015625 31 40.078125 35.4375 
Q 35.15625 39.890625 26.703125 39.890625 
Q 22.75 39.890625 18.8125 39.015625 
Q 14.890625 38.140625 10.796875 36.28125 
z
" id="DejaVuSans-53"/>
       </defs>
       <use xlink:href="#DejaVuSans-53"/>
       <use x="63.623047" xlink:href="#DejaVuSans-48"/>
      </g>
     </g>
    </g>
    <g id="ytick_6">
     <g id="line2d_12">
      <g>
       <use style="stroke:#000000;stroke-width:0.8;" x="57.6" xlink:href="#mc0b3d3e3e0" y="134.650425"/>
      </g>
     </g>
     <g id="text_12">
      <!-- 60 -->
      <g transform="translate(37.875 138.449644)scale(0.1 -0.1)">
       <use xlink:href="#DejaVuSans-54"/>
       <use x="63.623047" xlink:href="#DejaVuSans-48"/>
      </g>
     </g>
    </g>
    <g id="ytick_7">
     <g id="line2d_13">
      <g>
       <use style="stroke:#000000;stroke-width:0.8;" x="57.6" xlink:href="#mc0b3d3e3e0" y="104.89103"/>
      </g>
     </g>
     <g id="text_13">
      <!-- 70 -->
      <g transform="translate(37.875 108.690249)scale(0.1 -0.1)">
       <defs>
        <path d="M 8.203125 72.90625 
L 55.078125 72.90625 
L 55.078125 68.703125 
L 28.609375 0 
L 18.3125 0 
L 43.21875 64.59375 
L 8.203125 64.59375 
z
" id="DejaVuSans-55"/>
       </defs>
       <use xlink:href="#DejaVuSans-55"/>
       <use x="63.623047" xlink:href="#DejaVuSans-48"/>
      </g>
     </g>
    </g>
    <g id="ytick_8">
     <g id="line2d_14">
      <g>
       <use style="stroke:#000000;stroke-width:0.8;" x="57.6" xlink:href="#mc0b3d3e3e0" y="75.131635"/>
      </g>
     </g>
     <g id="text_14">
      <!-- 80 -->
      <g transform="translate(37.875 78.930854)scale(0.1 -0.1)">
       <use xlink:href="#DejaVuSans-56"/>
       <use x="63.623047" xlink:href="#DejaVuSans-48"/>
      </g>
     </g>
    </g>
    <g id="ytick_9">
     <g id="line2d_15">
      <g>
       <use style="stroke:#000000;stroke-width:0.8;" x="57.6" xlink:href="#mc0b3d3e3e0" y="45.37224"/>
      </g>
     </g>
     <g id="text_15">
      <!-- 90 -->
      <g transform="translate(37.875 49.171458)scale(0.1 -0.1)">
       <defs>
        <path d="M 10.984375 1.515625 
L 10.984375 10.5 
Q 14.703125 8.734375 18.5 7.8125 
Q 22.3125 6.890625 25.984375 6.890625 
Q 35.75 6.890625 40.890625 13.453125 
Q 46.046875 20.015625 46.78125 33.40625 
Q 43.953125 29.203125 39.59375 26.953125 
Q 35.25 24.703125 29.984375 24.703125 
Q 19.046875 24.703125 12.671875 31.3125 
Q 6.296875 37.9375 6.296875 49.421875 
Q 6.296875 60.640625 12.9375 67.421875 
Q 19.578125 74.21875 30.609375 74.21875 
Q 43.265625 74.21875 49.921875 64.515625 
Q 56.59375 54.828125 56.59375 36.375 
Q 56.59375 19.140625 48.40625 8.859375 
Q 40.234375 -1.421875 26.421875 -1.421875 
Q 22.703125 -1.421875 18.890625 -0.6875 
Q 15.09375 0.046875 10.984375 1.515625 
z
M 30.609375 32.421875 
Q 37.25 32.421875 41.125 36.953125 
Q 45.015625 41.5 45.015625 49.421875 
Q 45.015625 57.28125 41.125 61.84375 
Q 37.25 66.40625 30.609375 66.40625 
Q 23.96875 66.40625 20.09375 61.84375 
Q 16.21875 57.28125 16.21875 49.421875 
Q 16.21875 41.5 20.09375 36.953125 
Q 23.96875 32.421875 30.609375 32.421875 
z
" id="DejaVuSans-57"/>
       </defs>
       <use xlink:href="#DejaVuSans-57"/>
       <use x="63.623047" xlink:href="#DejaVuSans-48"/>
      </g>
     </g>
    </g>
   </g>
   <g id="line2d_16">
    <path clip-path="url(#p92c6a00283)" d="M 249.502242 131.775668 
L 248.788016 128.906862 
L 248.237467 125.981514 
L 247.847619 123.00855 
L 247.618472 119.999875 
L 247.547049 116.970369 
L 247.639303 113.925983 
L 247.886306 110.881596 
L 248.291034 107.846138 
L 248.853487 104.831511 
L 249.570688 101.852596 
L 250.442638 98.915344 
L 251.469338 96.031658 
L 252.64781 93.216419 
L 253.978055 90.478555 
L 255.463048 87.826993 
L 257.096839 85.276613 
L 258.879427 82.836342 
L 260.813788 80.521061 
L 262.893969 78.336722 
L 265.122948 76.298203 
L 267.494772 74.411458 
L 269.994561 72.691365 
L 272.613388 71.134948 
L 275.336372 69.754112 
L 278.145659 68.554809 
L 281.029345 67.540013 
L 283.972549 66.718654 
L 286.960392 66.093707 
L 289.977995 65.677075 
L 293.016429 65.471735 
L 296.054863 65.477687 
L 299.087346 65.694931 
L 302.098997 66.111562 
L 305.077912 66.718654 
L 308.01814 67.516206 
L 310.901826 68.492314 
L 313.723016 69.638051 
L 316.466833 70.95044 
L 319.124347 72.420554 
L 321.680679 74.039465 
L 324.132853 75.801221 
L 326.477893 77.693919 
L 328.7158 79.711606 
L 330.849548 81.842379 
L 332.882115 84.077309 
L 334.807548 86.404494 
L 336.631799 88.817981 
L 338.354868 91.305866 
L 339.976755 93.856246 
L 342.922935 99.120683 
L 345.482243 104.560701 
L 347.672534 110.152491 
L 349.502737 115.869271 
L 350.996659 121.687233 
L 352.160251 127.579593 
L 353.008394 133.522544 
L 353.547039 139.501207 
L 353.782138 145.497725 
L 353.716668 151.491267 
L 353.359555 157.466954 
L 352.746511 163.418833 
L 351.9192 169.34988 
L 350.380639 178.209252 
L 348.615907 187.032913 
L 346.607148 195.794079 
L 345.038828 201.570377 
L 343.211601 207.275253 
L 341.068925 212.887875 
L 338.56616 218.378484 
L 335.694378 223.693512 
L 334.120106 226.264724 
L 332.450604 228.770465 
L 330.685872 231.204783 
L 328.822934 233.555775 
L 326.867741 235.817489 
L 324.814343 237.986949 
L 322.668691 240.061179 
L 318.139311 243.95966 
L 313.356976 247.584354 
L 308.399061 251.000733 
L 300.798511 255.88425 
L 293.141419 260.598138 
L 285.389096 265.10371 
L 280.139539 267.966564 
L 274.797727 270.692525 
L 269.35771 273.251833 
L 263.822462 275.596873 
L 258.191985 277.677055 
L 252.472229 279.438811 
L 246.666171 280.834527 
L 240.782739 281.85825 
L 234.836812 282.572475 
L 228.852197 283.042674 
L 219.841052 283.429546 
L 210.832883 283.584295 
L 204.839341 283.530728 
L 198.860679 283.30158 
L 192.899872 282.85519 
L 186.953945 282.152868 
L 181.037777 281.158904 
L 175.178152 279.86437 
L 169.392925 278.248435 
L 163.708881 276.305147 
L 158.152802 274.013673 
L 152.74552 271.371039 
L 147.522746 268.389148 
L 142.511264 265.067999 
L 137.740833 261.416521 
L 133.247164 257.443642 
L 129.057041 253.152337 
L 127.083993 250.890623 
L 125.200224 248.551535 
L 123.408708 246.138048 
L 121.709447 243.650162 
L 120.111367 241.087878 
L 118.614469 238.451196 
L 117.224706 235.743091 
L 117.224706 235.743091 
" style="fill:none;stroke:#fea952;stroke-linecap:square;"/>
   </g>
   <g id="line2d_17">
    <path clip-path="url(#p92c6a00283)" d="M 237.951086 134.651474 
L 237.089628 131.108492 
L 236.434753 127.529217 
L 235.978237 123.912548 
L 235.71802 120.280436 
L 235.648753 116.609814 
L 235.774532 112.963347 
L 236.086969 109.308351 
L 236.589204 105.662875 
L 237.28042 102.045189 
L 238.159138 98.464973 
L 239.228448 94.922675 
L 240.488823 91.435164 
L 241.940936 88.014275 
L 243.592153 84.661984 
L 245.439616 81.405914 
L 247.484562 78.254962 
L 249.744338 75.204199 
L 252.193546 72.311866 
L 254.860403 69.552574 
L 257.712415 66.982439 
L 260.746987 64.604988 
L 263.912933 62.458415 
L 267.229615 60.518242 
L 270.662654 58.806244 
L 274.194155 57.326048 
L 277.829627 56.074357 
L 281.535459 55.067042 
L 285.33232 54.30181 
L 289.17536 53.800407 
L 293.039747 53.568 
L 296.905455 53.604358 
L 300.718576 53.90347 
L 304.476076 54.44756 
L 308.194252 55.230056 
L 311.834761 56.240885 
L 315.380879 57.463373 
L 318.85937 58.89946 
L 322.228982 60.534246 
L 325.493199 62.363856 
L 328.626207 64.372041 
L 331.609142 66.538146 
L 334.448879 68.852944 
L 337.127152 71.288506 
L 339.656024 73.833294 
L 342.053696 76.489058 
L 344.303791 79.226693 
L 346.417711 82.040417 
L 348.39954 84.918064 
L 350.256844 87.854644 
L 351.992661 90.84363 
L 353.605078 93.867943 
L 355.107481 96.939391 
L 356.495969 100.044365 
L 358.953575 106.35281 
L 360.988955 112.744171 
L 362.642191 119.221259 
L 363.920631 125.737606 
L 364.848673 132.294838 
L 365.434958 138.887332 
L 365.685891 145.485916 
L 365.606872 152.059158 
L 365.212268 158.568155 
L 364.548825 164.969588 
L 363.669818 171.253149 
L 362.068857 180.464252 
L 360.250215 189.551315 
L 358.881624 195.698289 
L 357.308107 201.920783 
L 355.451456 208.204623 
L 353.240774 214.498164 
L 350.61197 220.768527 
L 349.137143 223.851487 
L 347.547658 226.905416 
L 345.846407 229.909279 
L 344.026441 232.865025 
L 342.088291 235.757199 
L 340.01561 238.597715 
L 337.82824 241.340626 
L 335.513045 244.000287 
L 333.087922 246.545415 
L 330.59183 248.945059 
L 328.045154 251.206438 
L 322.83731 255.385253 
L 317.553077 259.184538 
L 312.309544 262.669383 
L 304.492812 267.614312 
L 296.556369 272.413882 
L 288.41187 277.033593 
L 282.816738 279.98735 
L 277.061547 282.811689 
L 271.128414 285.463696 
L 265.00933 287.886255 
L 258.682973 290.025478 
L 252.16693 291.804948 
L 245.594528 293.148155 
L 239.092638 294.086147 
L 232.674447 294.70946 
L 226.34703 295.09983 
L 217.047676 295.405809 
L 207.658817 295.477805 
L 201.291884 295.332186 
L 194.871603 294.969217 
L 188.386333 294.343775 
L 181.87609 293.40617 
L 175.385938 292.138939 
L 168.911602 290.515693 
L 162.514431 288.523792 
L 156.212557 286.13686 
L 150.023419 283.343714 
L 144.03995 280.162267 
L 141.116678 278.42218 
L 138.243423 276.579432 
L 135.437103 274.641697 
L 132.700365 272.610982 
L 130.017337 270.474505 
L 127.415159 268.245652 
L 124.883264 265.913863 
L 122.446139 263.496197 
L 120.086862 260.977638 
L 117.812935 258.35701 
L 115.641977 255.646559 
L 113.578974 252.851897 
L 111.609153 249.949649 
L 109.759514 246.964833 
L 108.023873 243.88615 
L 106.634109 241.178045 
L 106.634109 241.178045 
" style="fill:none;stroke:#ffffff;stroke-linecap:square;"/>
   </g>
   <g id="line2d_18">
    <path clip-path="url(#p92c6a00283)" d="M 261.053397 128.899861 
L 260.486404 126.705233 
L 260.040182 124.43381 
L 259.717002 122.104552 
L 259.518923 119.719314 
L 259.445346 117.330923 
L 259.504074 114.888618 
L 259.685643 112.454841 
L 259.992864 110.029401 
L 260.426553 107.617834 
L 260.982238 105.240219 
L 261.656828 102.908012 
L 262.449852 100.628153 
L 263.354684 98.418564 
L 264.363956 96.295126 
L 265.486481 94.248072 
L 266.709116 92.298264 
L 268.014516 90.468486 
L 269.43403 88.730256 
L 270.927536 87.12087 
L 272.533481 85.613967 
L 274.242557 84.217927 
L 276.076189 82.924314 
L 277.99716 81.751654 
L 280.010091 80.70198 
L 282.097164 79.78357 
L 284.229063 79.005669 
L 286.409639 78.370265 
L 288.588465 77.885604 
L 290.78063 77.553743 
L 292.993111 77.375471 
L 295.204272 77.351016 
L 297.456116 77.486391 
L 299.721917 77.775565 
L 301.961572 78.207252 
L 304.20152 78.791527 
L 306.422773 79.521255 
L 308.586662 80.376641 
L 310.704683 81.366633 
L 312.755495 82.477252 
L 314.73515 83.70689 
L 316.656564 85.064296 
L 318.506908 86.534894 
L 320.304448 88.134706 
L 322.043073 89.851464 
L 323.710534 91.665561 
L 325.311305 93.582295 
L 328.310196 97.693668 
L 331.008211 102.08866 
L 333.392927 106.70033 
L 335.470867 111.505689 
L 337.240488 116.455891 
L 338.720487 121.563246 
L 339.909911 126.770494 
L 340.818373 132.065098 
L 341.44885 137.415877 
L 341.802298 142.816714 
L 341.884466 148.22539 
L 341.700617 153.629772 
L 341.254463 159.10793 
L 340.580474 164.647792 
L 339.713307 170.262873 
L 338.140549 178.81637 
L 336.37638 187.31392 
L 335.089369 192.787382 
L 333.658146 198.080459 
L 332.030746 203.190168 
L 330.157018 208.130801 
L 327.995176 212.90548 
L 325.542349 217.477744 
L 322.812917 221.783731 
L 319.817627 225.770925 
L 318.222438 227.634692 
L 316.540764 229.428483 
L 312.83427 232.891776 
L 308.715519 236.21828 
L 304.238671 239.448165 
L 296.994837 244.210409 
L 287.064089 250.362635 
L 279.629264 254.686235 
L 272.14136 258.70745 
L 267.117698 261.180284 
L 262.075566 263.444528 
L 257.028925 265.45612 
L 252.005048 267.173714 
L 246.992302 268.566595 
L 241.869262 269.633899 
L 236.538816 270.416001 
L 231.023489 270.959256 
L 225.35787 271.312871 
L 216.623031 271.60208 
L 208.013408 271.672929 
L 202.40516 271.550713 
L 196.885971 271.247072 
L 191.461532 270.735705 
L 186.103728 269.977024 
L 180.815111 268.958734 
L 175.635668 267.677463 
L 170.557616 266.116092 
L 165.616391 264.265286 
L 160.830264 262.130277 
L 156.177725 259.681246 
L 151.731068 256.961041 
L 147.489237 253.953889 
L 143.501415 250.694862 
L 139.780692 247.177156 
L 136.355052 243.424236 
L 133.238442 239.424198 
L 130.46322 235.210923 
L 129.205066 233.016242 
L 127.815302 230.308137 
L 127.815302 230.308137 
" style="fill:none;stroke:#ffffff;stroke-linecap:square;"/>
   </g>
   <g id="patch_3">
    <path d="M 57.6 307.584 
L 57.6 41.472 
" style="fill:none;stroke:#000000;stroke-linecap:square;stroke-linejoin:miter;stroke-width:0.8;"/>
   </g>
   <g id="patch_4">
    <path d="M 414.72 307.584 
L 414.72 41.472 
" style="fill:none;stroke:#000000;stroke-linecap:square;stroke-linejoin:miter;stroke-width:0.8;"/>
   </g>
   <g id="patch_5">
    <path d="M 57.6 307.584 
L 414.72 307.584 
" style="fill:none;stroke:#000000;stroke-linecap:square;stroke-linejoin:miter;stroke-width:0.8;"/>
   </g>
   <g id="patch_6">
    <path d="M 57.6 41.472 
L 414.72 41.472 
" style="fill:none;stroke:#000000;stroke-linecap:square;stroke-linejoin:miter;stroke-width:0.8;"/>
   </g>
  </g>
 </g>
 <defs>
  <clipPath id="p92c6a00283">
   <rect height="266.112" width="357.12" x="57.6" y="41.472"/>
  </clipPath>
 </defs>
</svg>
