<?xml version="1.0" encoding="utf-8" standalone="no"?>
<!DOCTYPE svg PUBLIC "-//W3C//DTD SVG 1.1//EN"
  "http://www.w3.org/Graphics/SVG/1.1/DTD/svg11.dtd">
<!-- Created with matplotlib (https://matplotlib.org/) -->
<svg height="345.6pt" version="1.1" viewBox="0 0 460.8 345.6" width="460.8pt" xmlns="http://www.w3.org/2000/svg" xmlns:xlink="http://www.w3.org/1999/xlink">
 <metadata>
  <rdf:RDF xmlns:cc="http://creativecommons.org/ns#" xmlns:dc="http://purl.org/dc/elements/1.1/" xmlns:rdf="http://www.w3.org/1999/02/22-rdf-syntax-ns#">
   <cc:Work>
    <dc:type rdf:resource="http://purl.org/dc/dcmitype/StillImage"/>
    <dc:date>2021-01-23T12:17:24.532605</dc:date>
    <dc:format>image/svg+xml</dc:format>
    <dc:creator>
     <cc:Agent>
      <dc:title>Matplotlib v3.3.3, https://matplotlib.org/</dc:title>
     </cc:Agent>
    </dc:creator>
   </cc:Work>
  </rdf:RDF>
 </metadata>
 <defs>
  <style type="text/css">*{stroke-linecap:butt;stroke-linejoin:round;}</style>
 </defs>
 <g id="figure_1">
  <g id="patch_1">
   <path d="M 0 345.6 
L 460.8 345.6 
L 460.8 0 
L 0 0 
z
" style="fill:#ffffff;"/>
  </g>
  <g id="axes_1">
   <g id="patch_2">
    <path d="M 57.6 307.584 
L 414.72 307.584 
L 414.72 41.472 
L 57.6 41.472 
z
" style="fill:#7d9051;"/>
   </g>
   <g id="matplotlib.axis_1">
    <g id="xtick_1">
     <g id="line2d_1">
      <defs>
       <path d="M 0 0 
L 0 3.5 
" id="mfac28fa23c" style="stroke:#000000;stroke-width:0.8;"/>
      </defs>
      <g>
       <use style="stroke:#000000;stroke-width:0.8;" x="71.828721" xlink:href="#mfac28fa23c" y="307.584"/>
      </g>
     </g>
     <g id="text_1">
      <!-- −20 -->
      <g transform="translate(61.276378 322.182437)scale(0.1 -0.1)">
       <defs>
        <path d="M 10.59375 35.5 
L 73.1875 35.5 
L 73.1875 27.203125 
L 10.59375 27.203125 
z
" id="DejaVuSans-8722"/>
        <path d="M 19.1875 8.296875 
L 53.609375 8.296875 
L 53.609375 0 
L 7.328125 0 
L 7.328125 8.296875 
Q 12.9375 14.109375 22.625 23.890625 
Q 32.328125 33.6875 34.8125 36.53125 
Q 39.546875 41.84375 41.421875 45.53125 
Q 43.3125 49.21875 43.3125 52.78125 
Q 43.3125 58.59375 39.234375 62.25 
Q 35.15625 65.921875 28.609375 65.921875 
Q 23.96875 65.921875 18.8125 64.3125 
Q 13.671875 62.703125 7.8125 59.421875 
L 7.8125 69.390625 
Q 13.765625 71.78125 18.9375 73 
Q 24.125 74.21875 28.421875 74.21875 
Q 39.75 74.21875 46.484375 68.546875 
Q 53.21875 62.890625 53.21875 53.421875 
Q 53.21875 48.921875 51.53125 44.890625 
Q 49.859375 40.875 45.40625 35.40625 
Q 44.1875 33.984375 37.640625 27.21875 
Q 31.109375 20.453125 19.1875 8.296875 
z
" id="DejaVuSans-50"/>
        <path d="M 31.78125 66.40625 
Q 24.171875 66.40625 20.328125 58.90625 
Q 16.5 51.421875 16.5 36.375 
Q 16.5 21.390625 20.328125 13.890625 
Q 24.171875 6.390625 31.78125 6.390625 
Q 39.453125 6.390625 43.28125 13.890625 
Q 47.125 21.390625 47.125 36.375 
Q 47.125 51.421875 43.28125 58.90625 
Q 39.453125 66.40625 31.78125 66.40625 
z
M 31.78125 74.21875 
Q 44.046875 74.21875 50.515625 64.515625 
Q 56.984375 54.828125 56.984375 36.375 
Q 56.984375 17.96875 50.515625 8.265625 
Q 44.046875 -1.421875 31.78125 -1.421875 
Q 19.53125 -1.421875 13.0625 8.265625 
Q 6.59375 17.96875 6.59375 36.375 
Q 6.59375 54.828125 13.0625 64.515625 
Q 19.53125 74.21875 31.78125 74.21875 
z
" id="DejaVuSans-48"/>
       </defs>
       <use xlink:href="#DejaVuSans-8722"/>
       <use x="83.789062" xlink:href="#DejaVuSans-50"/>
       <use x="147.412109" xlink:href="#DejaVuSans-48"/>
      </g>
     </g>
    </g>
    <g id="xtick_2">
     <g id="line2d_2">
      <g>
       <use style="stroke:#000000;stroke-width:0.8;" x="117.574425" xlink:href="#mfac28fa23c" y="307.584"/>
      </g>
     </g>
     <g id="text_2">
      <!-- 0 -->
      <g transform="translate(114.393175 322.182437)scale(0.1 -0.1)">
       <use xlink:href="#DejaVuSans-48"/>
      </g>
     </g>
    </g>
    <g id="xtick_3">
     <g id="line2d_3">
      <g>
       <use style="stroke:#000000;stroke-width:0.8;" x="163.320129" xlink:href="#mfac28fa23c" y="307.584"/>
      </g>
     </g>
     <g id="text_3">
      <!-- 20 -->
      <g transform="translate(156.957629 322.182437)scale(0.1 -0.1)">
       <use xlink:href="#DejaVuSans-50"/>
       <use x="63.623047" xlink:href="#DejaVuSans-48"/>
      </g>
     </g>
    </g>
    <g id="xtick_4">
     <g id="line2d_4">
      <g>
       <use style="stroke:#000000;stroke-width:0.8;" x="209.065833" xlink:href="#mfac28fa23c" y="307.584"/>
      </g>
     </g>
     <g id="text_4">
      <!-- 40 -->
      <g transform="translate(202.703333 322.182437)scale(0.1 -0.1)">
       <defs>
        <path d="M 37.796875 64.3125 
L 12.890625 25.390625 
L 37.796875 25.390625 
z
M 35.203125 72.90625 
L 47.609375 72.90625 
L 47.609375 25.390625 
L 58.015625 25.390625 
L 58.015625 17.1875 
L 47.609375 17.1875 
L 47.609375 0 
L 37.796875 0 
L 37.796875 17.1875 
L 4.890625 17.1875 
L 4.890625 26.703125 
z
" id="DejaVuSans-52"/>
       </defs>
       <use xlink:href="#DejaVuSans-52"/>
       <use x="63.623047" xlink:href="#DejaVuSans-48"/>
      </g>
     </g>
    </g>
    <g id="xtick_5">
     <g id="line2d_5">
      <g>
       <use style="stroke:#000000;stroke-width:0.8;" x="254.811537" xlink:href="#mfac28fa23c" y="307.584"/>
      </g>
     </g>
     <g id="text_5">
      <!-- 60 -->
      <g transform="translate(248.449037 322.182437)scale(0.1 -0.1)">
       <defs>
        <path d="M 33.015625 40.375 
Q 26.375 40.375 22.484375 35.828125 
Q 18.609375 31.296875 18.609375 23.390625 
Q 18.609375 15.53125 22.484375 10.953125 
Q 26.375 6.390625 33.015625 6.390625 
Q 39.65625 6.390625 43.53125 10.953125 
Q 47.40625 15.53125 47.40625 23.390625 
Q 47.40625 31.296875 43.53125 35.828125 
Q 39.65625 40.375 33.015625 40.375 
z
M 52.59375 71.296875 
L 52.59375 62.3125 
Q 48.875 64.0625 45.09375 64.984375 
Q 41.3125 65.921875 37.59375 65.921875 
Q 27.828125 65.921875 22.671875 59.328125 
Q 17.53125 52.734375 16.796875 39.40625 
Q 19.671875 43.65625 24.015625 45.921875 
Q 28.375 48.1875 33.59375 48.1875 
Q 44.578125 48.1875 50.953125 41.515625 
Q 57.328125 34.859375 57.328125 23.390625 
Q 57.328125 12.15625 50.6875 5.359375 
Q 44.046875 -1.421875 33.015625 -1.421875 
Q 20.359375 -1.421875 13.671875 8.265625 
Q 6.984375 17.96875 6.984375 36.375 
Q 6.984375 53.65625 15.1875 63.9375 
Q 23.390625 74.21875 37.203125 74.21875 
Q 40.921875 74.21875 44.703125 73.484375 
Q 48.484375 72.75 52.59375 71.296875 
z
" id="DejaVuSans-54"/>
       </defs>
       <use xlink:href="#DejaVuSans-54"/>
       <use x="63.623047" xlink:href="#DejaVuSans-48"/>
      </g>
     </g>
    </g>
    <g id="xtick_6">
     <g id="line2d_6">
      <g>
       <use style="stroke:#000000;stroke-width:0.8;" x="300.55724" xlink:href="#mfac28fa23c" y="307.584"/>
      </g>
     </g>
     <g id="text_6">
      <!-- 80 -->
      <g transform="translate(294.19474 322.182437)scale(0.1 -0.1)">
       <defs>
        <path d="M 31.78125 34.625 
Q 24.75 34.625 20.71875 30.859375 
Q 16.703125 27.09375 16.703125 20.515625 
Q 16.703125 13.921875 20.71875 10.15625 
Q 24.75 6.390625 31.78125 6.390625 
Q 38.8125 6.390625 42.859375 10.171875 
Q 46.921875 13.96875 46.921875 20.515625 
Q 46.921875 27.09375 42.890625 30.859375 
Q 38.875 34.625 31.78125 34.625 
z
M 21.921875 38.8125 
Q 15.578125 40.375 12.03125 44.71875 
Q 8.5 49.078125 8.5 55.328125 
Q 8.5 64.0625 14.71875 69.140625 
Q 20.953125 74.21875 31.78125 74.21875 
Q 42.671875 74.21875 48.875 69.140625 
Q 55.078125 64.0625 55.078125 55.328125 
Q 55.078125 49.078125 51.53125 44.71875 
Q 48 40.375 41.703125 38.8125 
Q 48.828125 37.15625 52.796875 32.3125 
Q 56.78125 27.484375 56.78125 20.515625 
Q 56.78125 9.90625 50.3125 4.234375 
Q 43.84375 -1.421875 31.78125 -1.421875 
Q 19.734375 -1.421875 13.25 4.234375 
Q 6.78125 9.90625 6.78125 20.515625 
Q 6.78125 27.484375 10.78125 32.3125 
Q 14.796875 37.15625 21.921875 38.8125 
z
M 18.3125 54.390625 
Q 18.3125 48.734375 21.84375 45.5625 
Q 25.390625 42.390625 31.78125 42.390625 
Q 38.140625 42.390625 41.71875 45.5625 
Q 45.3125 48.734375 45.3125 54.390625 
Q 45.3125 60.0625 41.71875 63.234375 
Q 38.140625 66.40625 31.78125 66.40625 
Q 25.390625 66.40625 21.84375 63.234375 
Q 18.3125 60.0625 18.3125 54.390625 
z
" id="DejaVuSans-56"/>
       </defs>
       <use xlink:href="#DejaVuSans-56"/>
       <use x="63.623047" xlink:href="#DejaVuSans-48"/>
      </g>
     </g>
    </g>
    <g id="xtick_7">
     <g id="line2d_7">
      <g>
       <use style="stroke:#000000;stroke-width:0.8;" x="346.302944" xlink:href="#mfac28fa23c" y="307.584"/>
      </g>
     </g>
     <g id="text_7">
      <!-- 100 -->
      <g transform="translate(336.759194 322.182437)scale(0.1 -0.1)">
       <defs>
        <path d="M 12.40625 8.296875 
L 28.515625 8.296875 
L 28.515625 63.921875 
L 10.984375 60.40625 
L 10.984375 69.390625 
L 28.421875 72.90625 
L 38.28125 72.90625 
L 38.28125 8.296875 
L 54.390625 8.296875 
L 54.390625 0 
L 12.40625 0 
z
" id="DejaVuSans-49"/>
       </defs>
       <use xlink:href="#DejaVuSans-49"/>
       <use x="63.623047" xlink:href="#DejaVuSans-48"/>
       <use x="127.246094" xlink:href="#DejaVuSans-48"/>
      </g>
     </g>
    </g>
    <g id="xtick_8">
     <g id="line2d_8">
      <g>
       <use style="stroke:#000000;stroke-width:0.8;" x="392.048648" xlink:href="#mfac28fa23c" y="307.584"/>
      </g>
     </g>
     <g id="text_8">
      <!-- 120 -->
      <g transform="translate(382.504898 322.182437)scale(0.1 -0.1)">
       <use xlink:href="#DejaVuSans-49"/>
       <use x="63.623047" xlink:href="#DejaVuSans-50"/>
       <use x="127.246094" xlink:href="#DejaVuSans-48"/>
      </g>
     </g>
    </g>
   </g>
   <g id="matplotlib.axis_2">
    <g id="ytick_1">
     <g id="line2d_9">
      <defs>
       <path d="M 0 0 
L -3.5 0 
" id="me1654a057c" style="stroke:#000000;stroke-width:0.8;"/>
      </defs>
      <g>
       <use style="stroke:#000000;stroke-width:0.8;" x="57.6" xlink:href="#me1654a057c" y="263.46294"/>
      </g>
     </g>
     <g id="text_9">
      <!-- 20 -->
      <g transform="translate(37.875 267.262159)scale(0.1 -0.1)">
       <use xlink:href="#DejaVuSans-50"/>
       <use x="63.623047" xlink:href="#DejaVuSans-48"/>
      </g>
     </g>
    </g>
    <g id="ytick_2">
     <g id="line2d_10">
      <g>
       <use style="stroke:#000000;stroke-width:0.8;" x="57.6" xlink:href="#me1654a057c" y="217.717236"/>
      </g>
     </g>
     <g id="text_10">
      <!-- 40 -->
      <g transform="translate(37.875 221.516455)scale(0.1 -0.1)">
       <use xlink:href="#DejaVuSans-52"/>
       <use x="63.623047" xlink:href="#DejaVuSans-48"/>
      </g>
     </g>
    </g>
    <g id="ytick_3">
     <g id="line2d_11">
      <g>
       <use style="stroke:#000000;stroke-width:0.8;" x="57.6" xlink:href="#me1654a057c" y="171.971532"/>
      </g>
     </g>
     <g id="text_11">
      <!-- 60 -->
      <g transform="translate(37.875 175.770751)scale(0.1 -0.1)">
       <use xlink:href="#DejaVuSans-54"/>
       <use x="63.623047" xlink:href="#DejaVuSans-48"/>
      </g>
     </g>
    </g>
    <g id="ytick_4">
     <g id="line2d_12">
      <g>
       <use style="stroke:#000000;stroke-width:0.8;" x="57.6" xlink:href="#me1654a057c" y="126.225828"/>
      </g>
     </g>
     <g id="text_12">
      <!-- 80 -->
      <g transform="translate(37.875 130.025047)scale(0.1 -0.1)">
       <use xlink:href="#DejaVuSans-56"/>
       <use x="63.623047" xlink:href="#DejaVuSans-48"/>
      </g>
     </g>
    </g>
    <g id="ytick_5">
     <g id="line2d_13">
      <g>
       <use style="stroke:#000000;stroke-width:0.8;" x="57.6" xlink:href="#me1654a057c" y="80.480125"/>
      </g>
     </g>
     <g id="text_13">
      <!-- 100 -->
      <g transform="translate(31.5125 84.279343)scale(0.1 -0.1)">
       <use xlink:href="#DejaVuSans-49"/>
       <use x="63.623047" xlink:href="#DejaVuSans-48"/>
       <use x="127.246094" xlink:href="#DejaVuSans-48"/>
      </g>
     </g>
    </g>
   </g>
   <g id="line2d_14">
    <path clip-path="url(#p6d459a161b)" d="M 325.943819 134.915225 
L 326.387552 128.140286 
L 326.499629 123.558854 
L 326.44016 118.952261 
L 326.177122 114.341095 
L 325.687643 109.7528 
L 324.944275 105.205677 
L 323.924146 100.727173 
L 322.595233 96.335585 
L 320.939239 92.056075 
L 318.924141 87.913801 
L 316.547651 83.947649 
L 313.816633 80.210225 
L 312.325323 78.442153 
L 310.749383 76.756424 
L 309.091102 75.153037 
L 307.355052 73.641142 
L 305.538948 72.2276 
L 303.645075 70.919272 
L 301.682585 69.713873 
L 299.658337 68.611402 
L 295.449733 66.70838 
L 291.078731 65.198772 
L 286.600226 64.066566 
L 282.071402 63.302613 
L 277.524279 62.870316 
L 272.958857 62.717068 
L 268.375138 62.783399 
L 261.469824 63.174525 
L 254.555361 63.828688 
L 249.996801 64.519448 
L 245.525159 65.516705 
L 243.33394 66.161719 
L 241.179317 66.916523 
L 239.07044 67.794841 
L 237.007309 68.803534 
L 234.999072 69.942602 
L 233.052593 71.198321 
L 231.174731 72.568405 
L 229.374638 74.045991 
L 227.659174 75.621931 
L 226.032914 77.289362 
L 224.507295 79.039135 
L 223.086891 80.868963 
L 221.778564 82.769697 
L 220.589176 84.732188 
L 219.511864 86.751861 
L 217.659163 90.93988 
L 216.15413 95.283434 
L 214.928145 99.734491 
L 213.917165 104.247305 
L 213.064007 108.778417 
L 212.375534 113.320965 
L 211.867757 117.870376 
L 211.556686 122.426648 
L 211.46062 126.987494 
L 211.590996 131.550628 
L 211.920365 136.113762 
L 212.42128 140.667747 
L 213.423111 147.479282 
L 215.049371 156.502622 
L 216.609299 165.514526 
L 217.210855 170.045638 
L 217.613418 174.608772 
L 217.775815 179.199353 
L 217.686611 183.796797 
L 217.338943 188.375942 
L 216.719089 192.91849 
L 215.817899 197.399282 
L 214.669682 201.822891 
L 212.638572 208.378251 
L 208.384222 221.452373 
L 206.513223 228.058052 
L 204.877814 234.720914 
L 203.498581 241.452394 
L 201.789979 250.457436 
L 200.744689 254.910781 
L 199.415777 259.293219 
L 198.608365 261.445554 
L 197.691164 263.570442 
L 196.659598 265.651872 
L 195.522817 267.685268 
L 194.276247 269.656908 
L 192.926748 271.557642 
L 191.474322 273.373747 
L 189.923543 275.09836 
L 188.276698 276.717758 
L 186.533786 278.222791 
L 184.699384 279.604311 
L 182.778064 280.853169 
L 180.774402 281.967077 
L 178.697547 282.948322 
L 176.558936 283.803767 
L 174.363142 284.528836 
L 172.119315 285.13268 
L 169.836604 285.610722 
L 167.524159 285.969826 
L 165.188841 286.209991 
L 162.839799 286.335792 
L 160.486183 286.347228 
L 155.794961 286.036157 
L 151.183794 285.29279 
L 146.7213 284.139998 
L 144.56439 283.414929 
L 142.471524 282.591506 
L 140.447277 281.674305 
L 140.447277 281.674305 
" style="fill:none;stroke:#fea952;stroke-linecap:square;"/>
   </g>
   <g id="line2d_15">
    <path clip-path="url(#p6d459a161b)" d="M 316.824261 134.180077 
L 317.243399 127.838227 
L 317.350529 123.586137 
L 317.300531 119.369348 
L 317.06774 115.193116 
L 316.637671 111.096226 
L 315.991482 107.090955 
L 315.119842 103.215346 
L 313.998264 99.465904 
L 312.630859 95.887212 
L 310.973784 92.44134 
L 309.036706 89.171869 
L 306.823047 86.109084 
L 304.389747 83.333794 
L 301.735505 80.861077 
L 298.856627 78.715267 
L 295.694207 76.857155 
L 292.272989 75.288303 
L 288.653828 74.020712 
L 284.900426 73.056419 
L 281.055018 72.395123 
L 277.093454 72.009307 
L 272.995417 71.866135 
L 268.766236 71.924177 
L 262.192957 72.295043 
L 255.797193 72.893159 
L 251.81037 73.487043 
L 248.108722 74.293491 
L 244.696916 75.362426 
L 241.521151 76.761674 
L 238.445093 78.589378 
L 235.564257 80.783602 
L 232.928944 83.301978 
L 230.623255 86.056448 
L 228.661694 89.03814 
L 226.98877 92.326492 
L 225.566298 95.930389 
L 224.364477 99.797385 
L 223.347157 103.898293 
L 222.096646 110.233827 
L 221.457632 114.426533 
L 220.988253 118.593788 
L 220.70082 122.729312 
L 220.608434 126.83167 
L 220.722532 130.983338 
L 221.022824 135.190722 
L 221.777314 141.610426 
L 222.816442 148.133706 
L 226.012532 166.659868 
L 226.565337 171.638829 
L 226.869948 176.693382 
L 226.906304 181.798333 
L 226.658579 186.917802 
L 226.109009 192.033598 
L 225.243841 197.117664 
L 224.097786 202.026021 
L 222.758787 206.733375 
L 220.592686 213.454881 
L 217.159989 224.039396 
L 215.371699 230.345882 
L 213.81549 236.676602 
L 212.495432 243.114757 
L 210.723398 252.432481 
L 209.549357 257.397665 
L 207.98201 262.506694 
L 207.00837 265.071391 
L 205.888766 267.63321 
L 204.645493 270.116427 
L 203.255968 272.574558 
L 201.736343 274.953487 
L 200.071905 277.271968 
L 198.277516 279.491208 
L 196.338371 281.621914 
L 194.256285 283.642446 
L 192.03784 285.531154 
L 189.685559 287.27535 
L 187.223605 288.849665 
L 184.682798 290.239393 
L 182.095453 291.443086 
L 179.427702 292.491515 
L 176.740707 293.363652 
L 173.994636 294.087564 
L 171.240563 294.651501 
L 168.460124 295.070966 
L 165.678113 295.34604 
L 162.884255 295.484825 
L 160.094943 295.488 
L 157.315364 295.358954 
L 154.552409 295.10053 
L 151.805836 294.713695 
L 149.103408 294.202266 
L 146.434208 293.56863 
L 143.806026 292.81225 
L 141.214668 291.928807 
L 136.671271 290.007884 
L 136.671271 290.007884 
" style="fill:none;stroke:#ffffff;stroke-linecap:square;"/>
   </g>
   <g id="line2d_16">
    <path clip-path="url(#p6d459a161b)" d="M 335.063377 135.650373 
L 335.531705 128.442345 
L 335.648729 123.53157 
L 335.579789 118.535175 
L 335.286504 113.489073 
L 334.737614 108.409374 
L 333.897068 103.3204 
L 332.72845 98.239 
L 331.192203 93.205267 
L 329.247618 88.224938 
L 328.119244 85.796561 
L 326.874498 83.386263 
L 325.52265 81.030542 
L 324.058597 78.723429 
L 322.484816 76.478202 
L 320.810218 74.311366 
L 319.008722 72.194037 
L 317.10902 70.179054 
L 315.099748 68.253548 
L 312.974599 66.421206 
L 310.739163 64.700015 
L 308.433524 63.123278 
L 306.058581 61.679109 
L 303.622467 60.365648 
L 301.152623 59.189424 
L 298.626476 58.128457 
L 296.076715 57.193889 
L 293.503633 56.376832 
L 288.300027 55.076713 
L 283.087785 54.210103 
L 277.955104 53.731324 
L 272.922298 53.568 
L 267.98404 53.642621 
L 260.746691 54.054006 
L 255.844032 54.479551 
L 250.768388 55.116654 
L 245.576692 56.086402 
L 242.941595 56.739919 
L 240.309067 57.527084 
L 237.661718 58.470621 
L 235.051881 59.575476 
L 232.493466 60.845393 
L 230.039283 62.254477 
L 227.660092 63.807265 
L 225.369903 65.496578 
L 223.18502 67.30838 
L 221.109399 69.233878 
L 219.136885 71.276745 
L 217.280053 73.428988 
L 215.550527 75.681478 
L 213.954239 78.027682 
L 212.516657 80.426235 
L 211.233965 82.855303 
L 210.086192 85.317215 
L 208.169227 90.258616 
L 206.653754 95.197668 
L 205.452407 100.076641 
L 204.466111 104.894264 
L 203.639763 109.76347 
L 202.996406 114.670568 
L 202.552867 119.625772 
L 202.332438 124.624484 
L 202.357718 129.636977 
L 202.614455 134.583294 
L 203.065907 139.469372 
L 204.025826 146.661971 
L 205.215373 153.659033 
L 207.551746 166.805846 
L 208.108396 170.968679 
L 208.474736 175.046117 
L 208.626837 179.144733 
L 208.554377 183.240842 
L 208.255492 187.28155 
L 207.721209 191.261708 
L 206.934438 195.21047 
L 205.894646 199.233387 
L 203.9562 205.493256 
L 199.608455 218.86535 
L 197.654746 225.770223 
L 195.940137 232.765226 
L 194.50173 239.790032 
L 192.416733 250.486047 
L 191.419459 254.291553 
L 190.20836 257.819718 
L 188.673703 261.187316 
L 186.816151 264.36033 
L 184.671128 267.256286 
L 182.297111 269.793069 
L 179.713209 271.933273 
L 178.332524 272.856673 
L 176.866006 273.694761 
L 173.690169 275.11602 
L 170.243994 276.177796 
L 166.588195 276.868686 
L 162.795343 277.186759 
L 158.954343 277.134222 
L 155.145471 276.722755 
L 151.427427 275.964799 
L 147.914113 274.90105 
L 146.247531 274.257926 
L 144.223283 273.340725 
L 144.223283 273.340725 
" style="fill:none;stroke:#ffffff;stroke-linecap:square;"/>
   </g>
   <g id="patch_3">
    <path d="M 57.6 307.584 
L 57.6 41.472 
" style="fill:none;stroke:#000000;stroke-linecap:square;stroke-linejoin:miter;stroke-width:0.8;"/>
   </g>
   <g id="patch_4">
    <path d="M 414.72 307.584 
L 414.72 41.472 
" style="fill:none;stroke:#000000;stroke-linecap:square;stroke-linejoin:miter;stroke-width:0.8;"/>
   </g>
   <g id="patch_5">
    <path d="M 57.6 307.584 
L 414.72 307.584 
" style="fill:none;stroke:#000000;stroke-linecap:square;stroke-linejoin:miter;stroke-width:0.8;"/>
   </g>
   <g id="patch_6">
    <path d="M 57.6 41.472 
L 414.72 41.472 
" style="fill:none;stroke:#000000;stroke-linecap:square;stroke-linejoin:miter;stroke-width:0.8;"/>
   </g>
  </g>
 </g>
 <defs>
  <clipPath id="p6d459a161b">
   <rect height="266.112" width="357.12" x="57.6" y="41.472"/>
  </clipPath>
 </defs>
</svg>
