<?xml version="1.0" encoding="utf-8" standalone="no"?>
<!DOCTYPE svg PUBLIC "-//W3C//DTD SVG 1.1//EN"
  "http://www.w3.org/Graphics/SVG/1.1/DTD/svg11.dtd">
<!-- Created with matplotlib (https://matplotlib.org/) -->
<svg height="345.6pt" version="1.1" viewBox="0 0 460.8 345.6" width="460.8pt" xmlns="http://www.w3.org/2000/svg" xmlns:xlink="http://www.w3.org/1999/xlink">
 <metadata>
  <rdf:RDF xmlns:cc="http://creativecommons.org/ns#" xmlns:dc="http://purl.org/dc/elements/1.1/" xmlns:rdf="http://www.w3.org/1999/02/22-rdf-syntax-ns#">
   <cc:Work>
    <dc:type rdf:resource="http://purl.org/dc/dcmitype/StillImage"/>
    <dc:date>2021-01-23T11:52:42.823933</dc:date>
    <dc:format>image/svg+xml</dc:format>
    <dc:creator>
     <cc:Agent>
      <dc:title>Matplotlib v3.3.3, https://matplotlib.org/</dc:title>
     </cc:Agent>
    </dc:creator>
   </cc:Work>
  </rdf:RDF>
 </metadata>
 <defs>
  <style type="text/css">*{stroke-linecap:butt;stroke-linejoin:round;}</style>
 </defs>
 <g id="figure_1">
  <g id="patch_1">
   <path d="M 0 345.6 
L 460.8 345.6 
L 460.8 0 
L 0 0 
z
" style="fill:#ffffff;"/>
  </g>
  <g id="axes_1">
   <g id="patch_2">
    <path d="M 57.6 307.584 
L 414.72 307.584 
L 414.72 41.472 
L 57.6 41.472 
z
" style="fill:#7d9051;"/>
   </g>
   <g id="matplotlib.axis_1">
    <g id="xtick_1">
     <g id="line2d_1">
      <defs>
       <path d="M 0 0 
L 0 3.5 
" id="m6951bf2a57" style="stroke:#000000;stroke-width:0.8;"/>
      </defs>
      <g>
       <use style="stroke:#000000;stroke-width:0.8;" x="59.134934" xlink:href="#m6951bf2a57" y="307.584"/>
      </g>
     </g>
     <g id="text_1">
      <!-- −20 -->
      <g transform="translate(48.58259 322.182437)scale(0.1 -0.1)">
       <defs>
        <path d="M 10.59375 35.5 
L 73.1875 35.5 
L 73.1875 27.203125 
L 10.59375 27.203125 
z
" id="DejaVuSans-8722"/>
        <path d="M 19.1875 8.296875 
L 53.609375 8.296875 
L 53.609375 0 
L 7.328125 0 
L 7.328125 8.296875 
Q 12.9375 14.109375 22.625 23.890625 
Q 32.328125 33.6875 34.8125 36.53125 
Q 39.546875 41.84375 41.421875 45.53125 
Q 43.3125 49.21875 43.3125 52.78125 
Q 43.3125 58.59375 39.234375 62.25 
Q 35.15625 65.921875 28.609375 65.921875 
Q 23.96875 65.921875 18.8125 64.3125 
Q 13.671875 62.703125 7.8125 59.421875 
L 7.8125 69.390625 
Q 13.765625 71.78125 18.9375 73 
Q 24.125 74.21875 28.421875 74.21875 
Q 39.75 74.21875 46.484375 68.546875 
Q 53.21875 62.890625 53.21875 53.421875 
Q 53.21875 48.921875 51.53125 44.890625 
Q 49.859375 40.875 45.40625 35.40625 
Q 44.1875 33.984375 37.640625 27.21875 
Q 31.109375 20.453125 19.1875 8.296875 
z
" id="DejaVuSans-50"/>
        <path d="M 31.78125 66.40625 
Q 24.171875 66.40625 20.328125 58.90625 
Q 16.5 51.421875 16.5 36.375 
Q 16.5 21.390625 20.328125 13.890625 
Q 24.171875 6.390625 31.78125 6.390625 
Q 39.453125 6.390625 43.28125 13.890625 
Q 47.125 21.390625 47.125 36.375 
Q 47.125 51.421875 43.28125 58.90625 
Q 39.453125 66.40625 31.78125 66.40625 
z
M 31.78125 74.21875 
Q 44.046875 74.21875 50.515625 64.515625 
Q 56.984375 54.828125 56.984375 36.375 
Q 56.984375 17.96875 50.515625 8.265625 
Q 44.046875 -1.421875 31.78125 -1.421875 
Q 19.53125 -1.421875 13.0625 8.265625 
Q 6.59375 17.96875 6.59375 36.375 
Q 6.59375 54.828125 13.0625 64.515625 
Q 19.53125 74.21875 31.78125 74.21875 
z
" id="DejaVuSans-48"/>
       </defs>
       <use xlink:href="#DejaVuSans-8722"/>
       <use x="83.789062" xlink:href="#DejaVuSans-50"/>
       <use x="147.412109" xlink:href="#DejaVuSans-48"/>
      </g>
     </g>
    </g>
    <g id="xtick_2">
     <g id="line2d_2">
      <g>
       <use style="stroke:#000000;stroke-width:0.8;" x="113.342922" xlink:href="#m6951bf2a57" y="307.584"/>
      </g>
     </g>
     <g id="text_2">
      <!-- 0 -->
      <g transform="translate(110.161672 322.182437)scale(0.1 -0.1)">
       <use xlink:href="#DejaVuSans-48"/>
      </g>
     </g>
    </g>
    <g id="xtick_3">
     <g id="line2d_3">
      <g>
       <use style="stroke:#000000;stroke-width:0.8;" x="167.55091" xlink:href="#m6951bf2a57" y="307.584"/>
      </g>
     </g>
     <g id="text_3">
      <!-- 20 -->
      <g transform="translate(161.18841 322.182437)scale(0.1 -0.1)">
       <use xlink:href="#DejaVuSans-50"/>
       <use x="63.623047" xlink:href="#DejaVuSans-48"/>
      </g>
     </g>
    </g>
    <g id="xtick_4">
     <g id="line2d_4">
      <g>
       <use style="stroke:#000000;stroke-width:0.8;" x="221.758899" xlink:href="#m6951bf2a57" y="307.584"/>
      </g>
     </g>
     <g id="text_4">
      <!-- 40 -->
      <g transform="translate(215.396399 322.182437)scale(0.1 -0.1)">
       <defs>
        <path d="M 37.796875 64.3125 
L 12.890625 25.390625 
L 37.796875 25.390625 
z
M 35.203125 72.90625 
L 47.609375 72.90625 
L 47.609375 25.390625 
L 58.015625 25.390625 
L 58.015625 17.1875 
L 47.609375 17.1875 
L 47.609375 0 
L 37.796875 0 
L 37.796875 17.1875 
L 4.890625 17.1875 
L 4.890625 26.703125 
z
" id="DejaVuSans-52"/>
       </defs>
       <use xlink:href="#DejaVuSans-52"/>
       <use x="63.623047" xlink:href="#DejaVuSans-48"/>
      </g>
     </g>
    </g>
    <g id="xtick_5">
     <g id="line2d_5">
      <g>
       <use style="stroke:#000000;stroke-width:0.8;" x="275.966887" xlink:href="#m6951bf2a57" y="307.584"/>
      </g>
     </g>
     <g id="text_5">
      <!-- 60 -->
      <g transform="translate(269.604387 322.182437)scale(0.1 -0.1)">
       <defs>
        <path d="M 33.015625 40.375 
Q 26.375 40.375 22.484375 35.828125 
Q 18.609375 31.296875 18.609375 23.390625 
Q 18.609375 15.53125 22.484375 10.953125 
Q 26.375 6.390625 33.015625 6.390625 
Q 39.65625 6.390625 43.53125 10.953125 
Q 47.40625 15.53125 47.40625 23.390625 
Q 47.40625 31.296875 43.53125 35.828125 
Q 39.65625 40.375 33.015625 40.375 
z
M 52.59375 71.296875 
L 52.59375 62.3125 
Q 48.875 64.0625 45.09375 64.984375 
Q 41.3125 65.921875 37.59375 65.921875 
Q 27.828125 65.921875 22.671875 59.328125 
Q 17.53125 52.734375 16.796875 39.40625 
Q 19.671875 43.65625 24.015625 45.921875 
Q 28.375 48.1875 33.59375 48.1875 
Q 44.578125 48.1875 50.953125 41.515625 
Q 57.328125 34.859375 57.328125 23.390625 
Q 57.328125 12.15625 50.6875 5.359375 
Q 44.046875 -1.421875 33.015625 -1.421875 
Q 20.359375 -1.421875 13.671875 8.265625 
Q 6.984375 17.96875 6.984375 36.375 
Q 6.984375 53.65625 15.1875 63.9375 
Q 23.390625 74.21875 37.203125 74.21875 
Q 40.921875 74.21875 44.703125 73.484375 
Q 48.484375 72.75 52.59375 71.296875 
z
" id="DejaVuSans-54"/>
       </defs>
       <use xlink:href="#DejaVuSans-54"/>
       <use x="63.623047" xlink:href="#DejaVuSans-48"/>
      </g>
     </g>
    </g>
    <g id="xtick_6">
     <g id="line2d_6">
      <g>
       <use style="stroke:#000000;stroke-width:0.8;" x="330.174876" xlink:href="#m6951bf2a57" y="307.584"/>
      </g>
     </g>
     <g id="text_6">
      <!-- 80 -->
      <g transform="translate(323.812376 322.182437)scale(0.1 -0.1)">
       <defs>
        <path d="M 31.78125 34.625 
Q 24.75 34.625 20.71875 30.859375 
Q 16.703125 27.09375 16.703125 20.515625 
Q 16.703125 13.921875 20.71875 10.15625 
Q 24.75 6.390625 31.78125 6.390625 
Q 38.8125 6.390625 42.859375 10.171875 
Q 46.921875 13.96875 46.921875 20.515625 
Q 46.921875 27.09375 42.890625 30.859375 
Q 38.875 34.625 31.78125 34.625 
z
M 21.921875 38.8125 
Q 15.578125 40.375 12.03125 44.71875 
Q 8.5 49.078125 8.5 55.328125 
Q 8.5 64.0625 14.71875 69.140625 
Q 20.953125 74.21875 31.78125 74.21875 
Q 42.671875 74.21875 48.875 69.140625 
Q 55.078125 64.0625 55.078125 55.328125 
Q 55.078125 49.078125 51.53125 44.71875 
Q 48 40.375 41.703125 38.8125 
Q 48.828125 37.15625 52.796875 32.3125 
Q 56.78125 27.484375 56.78125 20.515625 
Q 56.78125 9.90625 50.3125 4.234375 
Q 43.84375 -1.421875 31.78125 -1.421875 
Q 19.734375 -1.421875 13.25 4.234375 
Q 6.78125 9.90625 6.78125 20.515625 
Q 6.78125 27.484375 10.78125 32.3125 
Q 14.796875 37.15625 21.921875 38.8125 
z
M 18.3125 54.390625 
Q 18.3125 48.734375 21.84375 45.5625 
Q 25.390625 42.390625 31.78125 42.390625 
Q 38.140625 42.390625 41.71875 45.5625 
Q 45.3125 48.734375 45.3125 54.390625 
Q 45.3125 60.0625 41.71875 63.234375 
Q 38.140625 66.40625 31.78125 66.40625 
Q 25.390625 66.40625 21.84375 63.234375 
Q 18.3125 60.0625 18.3125 54.390625 
z
" id="DejaVuSans-56"/>
       </defs>
       <use xlink:href="#DejaVuSans-56"/>
       <use x="63.623047" xlink:href="#DejaVuSans-48"/>
      </g>
     </g>
    </g>
    <g id="xtick_7">
     <g id="line2d_7">
      <g>
       <use style="stroke:#000000;stroke-width:0.8;" x="384.382864" xlink:href="#m6951bf2a57" y="307.584"/>
      </g>
     </g>
     <g id="text_7">
      <!-- 100 -->
      <g transform="translate(374.839114 322.182437)scale(0.1 -0.1)">
       <defs>
        <path d="M 12.40625 8.296875 
L 28.515625 8.296875 
L 28.515625 63.921875 
L 10.984375 60.40625 
L 10.984375 69.390625 
L 28.421875 72.90625 
L 38.28125 72.90625 
L 38.28125 8.296875 
L 54.390625 8.296875 
L 54.390625 0 
L 12.40625 0 
z
" id="DejaVuSans-49"/>
       </defs>
       <use xlink:href="#DejaVuSans-49"/>
       <use x="63.623047" xlink:href="#DejaVuSans-48"/>
       <use x="127.246094" xlink:href="#DejaVuSans-48"/>
      </g>
     </g>
    </g>
   </g>
   <g id="matplotlib.axis_2">
    <g id="ytick_1">
     <g id="line2d_8">
      <defs>
       <path d="M 0 0 
L -3.5 0 
" id="m940eb5ba0a" style="stroke:#000000;stroke-width:0.8;"/>
      </defs>
      <g>
       <use style="stroke:#000000;stroke-width:0.8;" x="57.6" xlink:href="#m940eb5ba0a" y="267.636933"/>
      </g>
     </g>
     <g id="text_8">
      <!-- 20 -->
      <g transform="translate(37.875 271.436152)scale(0.1 -0.1)">
       <use xlink:href="#DejaVuSans-50"/>
       <use x="63.623047" xlink:href="#DejaVuSans-48"/>
      </g>
     </g>
    </g>
    <g id="ytick_2">
     <g id="line2d_9">
      <g>
       <use style="stroke:#000000;stroke-width:0.8;" x="57.6" xlink:href="#m940eb5ba0a" y="213.428945"/>
      </g>
     </g>
     <g id="text_9">
      <!-- 40 -->
      <g transform="translate(37.875 217.228164)scale(0.1 -0.1)">
       <use xlink:href="#DejaVuSans-52"/>
       <use x="63.623047" xlink:href="#DejaVuSans-48"/>
      </g>
     </g>
    </g>
    <g id="ytick_3">
     <g id="line2d_10">
      <g>
       <use style="stroke:#000000;stroke-width:0.8;" x="57.6" xlink:href="#m940eb5ba0a" y="159.220956"/>
      </g>
     </g>
     <g id="text_10">
      <!-- 60 -->
      <g transform="translate(37.875 163.020175)scale(0.1 -0.1)">
       <use xlink:href="#DejaVuSans-54"/>
       <use x="63.623047" xlink:href="#DejaVuSans-48"/>
      </g>
     </g>
    </g>
    <g id="ytick_4">
     <g id="line2d_11">
      <g>
       <use style="stroke:#000000;stroke-width:0.8;" x="57.6" xlink:href="#m940eb5ba0a" y="105.012968"/>
      </g>
     </g>
     <g id="text_11">
      <!-- 80 -->
      <g transform="translate(37.875 108.812187)scale(0.1 -0.1)">
       <use xlink:href="#DejaVuSans-56"/>
       <use x="63.623047" xlink:href="#DejaVuSans-48"/>
      </g>
     </g>
    </g>
    <g id="ytick_5">
     <g id="line2d_12">
      <g>
       <use style="stroke:#000000;stroke-width:0.8;" x="57.6" xlink:href="#m940eb5ba0a" y="50.80498"/>
      </g>
     </g>
     <g id="text_12">
      <!-- 100 -->
      <g transform="translate(31.5125 54.604198)scale(0.1 -0.1)">
       <use xlink:href="#DejaVuSans-49"/>
       <use x="63.623047" xlink:href="#DejaVuSans-48"/>
       <use x="127.246094" xlink:href="#DejaVuSans-48"/>
      </g>
     </g>
    </g>
   </g>
   <g id="line2d_13">
    <path clip-path="url(#p63e0c1fbfe)" d="M 241.525842 154.83282 
L 242.013714 152.062792 
L 242.382328 149.309026 
L 242.637105 146.566102 
L 242.813281 141.120909 
L 242.582897 135.727214 
L 241.978478 130.382307 
L 241.035259 125.086186 
L 239.791186 119.836142 
L 238.278783 114.634886 
L 236.533286 109.479706 
L 234.59264 104.367893 
L 232.48666 99.302156 
L 230.199083 94.317732 
L 227.654017 89.482379 
L 226.263583 87.146015 
L 224.780994 84.8747 
L 223.198121 82.676566 
L 221.506832 80.562455 
L 219.693574 78.537786 
L 217.755639 76.616113 
L 215.698446 74.805566 
L 213.532836 73.108856 
L 211.264232 71.542246 
L 208.906185 70.105734 
L 206.466825 68.815584 
L 203.954285 67.674506 
L 201.379405 66.690631 
L 198.750318 65.877511 
L 196.077864 65.237857 
L 193.370175 64.782509 
L 190.638093 64.506049 
L 187.895168 64.405764 
L 185.144113 64.478945 
L 182.403899 64.722881 
L 179.677237 65.134861 
L 176.98039 65.706756 
L 174.321488 66.441274 
L 171.708663 67.330285 
L 169.155467 68.371078 
L 166.670031 69.560944 
L 164.260485 70.89175 
L 161.932252 72.360786 
L 159.693462 73.962632 
L 157.552247 75.683736 
L 155.514026 77.526807 
L 153.584222 79.478295 
L 151.770965 81.535488 
L 150.079676 83.692966 
L 148.521196 85.942598 
L 147.095526 88.278962 
L 145.808086 90.693928 
L 144.658877 93.176654 
L 143.645187 95.724429 
L 142.767018 98.320992 
L 142.029789 100.966342 
L 141.428081 103.644216 
L 140.961892 106.351905 
L 140.636644 109.078567 
L 140.446916 111.816071 
L 140.395419 114.558995 
L 140.479441 117.296498 
L 140.698983 120.02587 
L 141.048625 122.73898 
L 141.533786 125.433117 
L 142.146337 128.10015 
L 142.888986 130.731948 
L 143.759024 133.3258 
L 144.753741 135.876286 
L 145.870425 138.372564 
L 147.111788 140.814634 
L 148.469698 143.194365 
L 149.941445 145.506335 
L 151.518898 147.747836 
L 153.199345 149.910734 
L 154.977367 151.995032 
L 156.850253 153.989886 
L 158.807162 155.895296 
L 160.845382 157.703133 
L 162.964915 159.407974 
L 165.152207 161.00982 
L 169.72194 163.92621 
L 174.497664 166.511931 
L 179.427881 168.829322 
L 184.458382 170.940723 
L 192.088156 173.857113 
L 199.755876 176.570223 
L 212.592328 180.855365 
L 235.801478 188.360461 
L 251.361881 193.122632 
L 264.371798 196.890088 
L 279.975568 201.359536 
L 287.72731 203.880208 
L 292.855386 205.769356 
L 297.910281 207.888888 
L 302.821525 210.295723 
L 307.513226 213.05491 
L 309.754726 214.583575 
L 311.912204 216.220656 
L 313.980239 217.974285 
L 315.947989 219.852591 
L 317.812744 221.844735 
L 319.569083 223.942584 
L 321.217005 226.138008 
L 322.751091 228.420164 
L 324.16863 230.778211 
L 325.464201 233.204019 
L 326.640515 235.689455 
L 327.689439 238.220968 
L 328.608265 240.793137 
L 329.396991 243.397831 
L 330.061039 246.026919 
L 331.053045 251.358274 
L 331.641202 256.762811 
L 331.89869 262.216134 
L 331.885138 267.699272 
L 331.668306 273.187831 
L 331.099122 281.381369 
L 330.050197 294.740927 
L 330.050197 294.740927 
" style="fill:none;stroke:#fea952;stroke-linecap:square;"/>
   </g>
   <g id="line2d_14">
    <path clip-path="url(#p63e0c1fbfe)" d="M 230.848584 152.952285 
L 231.587199 148.306316 
L 231.937359 143.698932 
L 231.927033 139.083387 
L 231.57439 134.447846 
L 230.904054 129.792021 
L 229.935771 125.099225 
L 228.688215 120.372586 
L 227.199702 115.631961 
L 225.480428 110.848394 
L 223.575174 106.058857 
L 221.568086 101.427877 
L 219.451531 97.078501 
L 217.184917 93.072065 
L 214.732255 89.449259 
L 213.430619 87.795368 
L 212.059776 86.236187 
L 210.592893 84.754622 
L 209.012072 83.339771 
L 207.372226 82.030018 
L 205.623801 80.801067 
L 203.837449 79.689478 
L 201.98375 78.686869 
L 200.084533 77.801956 
L 198.176042 77.048174 
L 196.226654 76.421294 
L 194.279899 75.929328 
L 192.278683 75.569023 
L 190.241975 75.340407 
L 188.183464 75.243528 
L 186.105439 75.277838 
L 184.023609 75.442805 
L 181.926296 75.740613 
L 179.86724 76.156939 
L 177.813718 76.705024 
L 175.801195 77.369778 
L 173.836907 78.149849 
L 171.911593 79.051268 
L 170.045806 80.060736 
L 168.240869 81.177906 
L 166.485703 82.412822 
L 164.823779 83.725195 
L 163.222901 85.150028 
L 161.717414 86.647077 
L 160.303346 88.224189 
L 158.991619 89.866903 
L 157.775848 91.589868 
L 156.662533 93.379218 
L 155.646781 95.248083 
L 154.732421 97.184638 
L 153.915323 99.197836 
L 153.210635 101.231508 
L 152.607645 103.343147 
L 151.727172 107.636034 
L 151.286604 112.019582 
L 151.286135 116.427241 
L 151.718595 120.817527 
L 152.580469 125.155812 
L 153.859612 129.386464 
L 155.535052 133.459802 
L 157.615454 137.372389 
L 160.080202 141.096196 
L 162.881356 144.574303 
L 166.00122 147.784454 
L 169.370601 150.661122 
L 173.053595 153.25887 
L 177.088911 155.639053 
L 181.43712 157.831843 
L 186.041244 159.874169 
L 193.313922 162.747492 
L 200.745897 165.439538 
L 213.412152 169.711516 
L 236.487761 177.205855 
L 251.861018 181.958036 
L 267.304282 186.452618 
L 283.201947 191.009139 
L 291.381244 193.672906 
L 296.920661 195.718795 
L 302.516773 198.074589 
L 308.125987 200.840411 
L 310.884216 202.39813 
L 313.621705 204.097973 
L 316.308191 205.946889 
L 318.923991 207.951733 
L 321.466099 210.131955 
L 323.863044 212.443669 
L 326.125622 214.885116 
L 328.239791 217.434201 
L 330.214678 220.089691 
L 332.04297 222.834357 
L 333.731787 225.670738 
L 335.263686 228.566095 
L 336.656373 231.539416 
L 337.899183 234.573863 
L 338.984574 237.651092 
L 339.90848 240.742867 
L 340.677267 243.827843 
L 341.30796 246.916581 
L 341.809921 250.005548 
L 342.462186 256.094583 
L 342.739948 262.130348 
L 342.72133 268.041581 
L 342.490184 273.84143 
L 341.90438 282.268287 
L 340.866025 295.488 
L 340.866025 295.488 
" style="fill:none;stroke:#ffffff;stroke-linecap:square;"/>
   </g>
   <g id="line2d_15">
    <path clip-path="url(#p63e0c1fbfe)" d="M 252.203099 156.713354 
L 252.759467 153.5012 
L 253.177457 150.311735 
L 253.464249 147.125755 
L 253.618733 143.979947 
L 253.651739 140.860003 
L 253.569431 137.753894 
L 253.076429 131.650833 
L 252.190995 125.66563 
L 250.963855 119.809552 
L 249.441383 114.090311 
L 247.666575 108.47179 
L 245.688864 102.988364 
L 243.539361 97.59764 
L 241.171864 92.162197 
L 238.474749 86.672823 
L 236.970578 83.937837 
L 235.342248 81.219965 
L 233.578911 78.539332 
L 231.663986 75.903874 
L 229.583044 73.329542 
L 227.327373 70.839386 
L 224.918384 68.477605 
L 222.384819 66.271362 
L 219.693447 64.187695 
L 216.904664 62.283424 
L 213.974921 60.521989 
L 210.949901 58.944298 
L 207.824037 57.547055 
L 204.582769 56.333087 
L 201.273982 55.333728 
L 197.875829 54.546385 
L 194.461668 53.995995 
L 191.03421 53.67169 
L 187.606873 53.568 
L 184.182787 53.680052 
L 180.784189 54.002956 
L 177.428178 54.529109 
L 174.09354 55.256572 
L 170.829258 56.177524 
L 167.616131 57.290792 
L 164.474027 58.592307 
L 161.428468 60.070619 
L 158.475165 61.722764 
L 155.623635 63.543667 
L 152.901221 65.512443 
L 150.280715 67.642277 
L 147.805152 69.903587 
L 145.45103 72.309513 
L 143.238584 74.846788 
L 141.167732 77.519029 
L 139.266544 80.295328 
L 137.528519 83.178706 
L 135.969392 86.139772 
L 134.585332 89.168669 
L 133.375052 92.251022 
L 132.323401 95.410476 
L 131.451934 98.589536 
L 130.743687 101.804661 
L 130.196612 105.067776 
L 129.820992 108.328967 
L 129.607229 111.612559 
L 129.558924 114.8916 
L 129.672747 118.165756 
L 129.946307 121.41158 
L 130.378655 124.660434 
L 130.967301 127.859973 
L 131.712204 131.044488 
L 132.610206 134.179689 
L 133.658437 137.265137 
L 134.857227 140.303391 
L 136.205799 143.285326 
L 137.695347 146.187797 
L 139.323943 149.01634 
L 141.075304 151.745869 
L 142.957594 154.399475 
L 144.951157 156.9469 
L 147.073379 159.41576 
L 149.286974 161.757578 
L 151.613103 164.006139 
L 154.050317 166.151051 
L 156.559228 168.154826 
L 159.135869 170.028906 
L 161.760923 171.769314 
L 167.081907 174.874979 
L 172.453189 177.566329 
L 177.828756 179.941954 
L 185.76684 183.074876 
L 193.648622 185.928307 
L 204.054851 189.457405 
L 227.348189 197.053612 
L 243.034835 201.943737 
L 256.179536 205.827194 
L 279.22282 212.480268 
L 286.453245 214.937494 
L 291.076513 216.740975 
L 295.453265 218.705287 
L 299.512873 220.860349 
L 303.201261 223.220261 
L 306.494379 225.816614 
L 308.032933 227.261514 
L 309.499866 228.804354 
L 310.898374 230.450968 
L 312.219333 232.186324 
L 313.459213 234.005971 
L 314.605474 235.885685 
L 316.624657 239.839495 
L 318.231956 243.935183 
L 319.44481 248.225994 
L 320.296169 252.711 
L 320.820217 257.431039 
L 321.057431 262.301921 
L 321.048945 267.356964 
L 320.846427 272.534233 
L 320.293863 280.494451 
L 319.23437 293.993855 
L 319.23437 293.993855 
" style="fill:none;stroke:#ffffff;stroke-linecap:square;"/>
   </g>
   <g id="patch_3">
    <path d="M 57.6 307.584 
L 57.6 41.472 
" style="fill:none;stroke:#000000;stroke-linecap:square;stroke-linejoin:miter;stroke-width:0.8;"/>
   </g>
   <g id="patch_4">
    <path d="M 414.72 307.584 
L 414.72 41.472 
" style="fill:none;stroke:#000000;stroke-linecap:square;stroke-linejoin:miter;stroke-width:0.8;"/>
   </g>
   <g id="patch_5">
    <path d="M 57.6 307.584 
L 414.72 307.584 
" style="fill:none;stroke:#000000;stroke-linecap:square;stroke-linejoin:miter;stroke-width:0.8;"/>
   </g>
   <g id="patch_6">
    <path d="M 57.6 41.472 
L 414.72 41.472 
" style="fill:none;stroke:#000000;stroke-linecap:square;stroke-linejoin:miter;stroke-width:0.8;"/>
   </g>
  </g>
 </g>
 <defs>
  <clipPath id="p63e0c1fbfe">
   <rect height="266.112" width="357.12" x="57.6" y="41.472"/>
  </clipPath>
 </defs>
</svg>
