<?xml version="1.0" encoding="utf-8" standalone="no"?>
<!DOCTYPE svg PUBLIC "-//W3C//DTD SVG 1.1//EN"
  "http://www.w3.org/Graphics/SVG/1.1/DTD/svg11.dtd">
<!-- Created with matplotlib (https://matplotlib.org/) -->
<svg height="345.6pt" version="1.1" viewBox="0 0 460.8 345.6" width="460.8pt" xmlns="http://www.w3.org/2000/svg" xmlns:xlink="http://www.w3.org/1999/xlink">
 <metadata>
  <rdf:RDF xmlns:cc="http://creativecommons.org/ns#" xmlns:dc="http://purl.org/dc/elements/1.1/" xmlns:rdf="http://www.w3.org/1999/02/22-rdf-syntax-ns#">
   <cc:Work>
    <dc:type rdf:resource="http://purl.org/dc/dcmitype/StillImage"/>
    <dc:date>2021-01-23T14:07:55.080267</dc:date>
    <dc:format>image/svg+xml</dc:format>
    <dc:creator>
     <cc:Agent>
      <dc:title>Matplotlib v3.3.3, https://matplotlib.org/</dc:title>
     </cc:Agent>
    </dc:creator>
   </cc:Work>
  </rdf:RDF>
 </metadata>
 <defs>
  <style type="text/css">*{stroke-linecap:butt;stroke-linejoin:round;}</style>
 </defs>
 <g id="figure_1">
  <g id="patch_1">
   <path d="M 0 345.6 
L 460.8 345.6 
L 460.8 0 
L 0 0 
z
" style="fill:#ffffff;"/>
  </g>
  <g id="axes_1">
   <g id="patch_2">
    <path d="M 57.6 307.584 
L 414.72 307.584 
L 414.72 41.472 
L 57.6 41.472 
z
" style="fill:#7d9051;"/>
   </g>
   <g id="matplotlib.axis_1">
    <g id="xtick_1">
     <g id="line2d_1">
      <defs>
       <path d="M 0 0 
L 0 3.5 
" id="mcdaa7f8d57" style="stroke:#000000;stroke-width:0.8;"/>
      </defs>
      <g>
       <use style="stroke:#000000;stroke-width:0.8;" x="92.632356" xlink:href="#mcdaa7f8d57" y="307.584"/>
      </g>
     </g>
     <g id="text_1">
      <!-- 0 -->
      <g transform="translate(89.451106 322.182437)scale(0.1 -0.1)">
       <defs>
        <path d="M 31.78125 66.40625 
Q 24.171875 66.40625 20.328125 58.90625 
Q 16.5 51.421875 16.5 36.375 
Q 16.5 21.390625 20.328125 13.890625 
Q 24.171875 6.390625 31.78125 6.390625 
Q 39.453125 6.390625 43.28125 13.890625 
Q 47.125 21.390625 47.125 36.375 
Q 47.125 51.421875 43.28125 58.90625 
Q 39.453125 66.40625 31.78125 66.40625 
z
M 31.78125 74.21875 
Q 44.046875 74.21875 50.515625 64.515625 
Q 56.984375 54.828125 56.984375 36.375 
Q 56.984375 17.96875 50.515625 8.265625 
Q 44.046875 -1.421875 31.78125 -1.421875 
Q 19.53125 -1.421875 13.0625 8.265625 
Q 6.59375 17.96875 6.59375 36.375 
Q 6.59375 54.828125 13.0625 64.515625 
Q 19.53125 74.21875 31.78125 74.21875 
z
" id="DejaVuSans-48"/>
       </defs>
       <use xlink:href="#DejaVuSans-48"/>
      </g>
     </g>
    </g>
    <g id="xtick_2">
     <g id="line2d_2">
      <g>
       <use style="stroke:#000000;stroke-width:0.8;" x="143.614699" xlink:href="#mcdaa7f8d57" y="307.584"/>
      </g>
     </g>
     <g id="text_2">
      <!-- 20 -->
      <g transform="translate(137.252199 322.182437)scale(0.1 -0.1)">
       <defs>
        <path d="M 19.1875 8.296875 
L 53.609375 8.296875 
L 53.609375 0 
L 7.328125 0 
L 7.328125 8.296875 
Q 12.9375 14.109375 22.625 23.890625 
Q 32.328125 33.6875 34.8125 36.53125 
Q 39.546875 41.84375 41.421875 45.53125 
Q 43.3125 49.21875 43.3125 52.78125 
Q 43.3125 58.59375 39.234375 62.25 
Q 35.15625 65.921875 28.609375 65.921875 
Q 23.96875 65.921875 18.8125 64.3125 
Q 13.671875 62.703125 7.8125 59.421875 
L 7.8125 69.390625 
Q 13.765625 71.78125 18.9375 73 
Q 24.125 74.21875 28.421875 74.21875 
Q 39.75 74.21875 46.484375 68.546875 
Q 53.21875 62.890625 53.21875 53.421875 
Q 53.21875 48.921875 51.53125 44.890625 
Q 49.859375 40.875 45.40625 35.40625 
Q 44.1875 33.984375 37.640625 27.21875 
Q 31.109375 20.453125 19.1875 8.296875 
z
" id="DejaVuSans-50"/>
       </defs>
       <use xlink:href="#DejaVuSans-50"/>
       <use x="63.623047" xlink:href="#DejaVuSans-48"/>
      </g>
     </g>
    </g>
    <g id="xtick_3">
     <g id="line2d_3">
      <g>
       <use style="stroke:#000000;stroke-width:0.8;" x="194.597042" xlink:href="#mcdaa7f8d57" y="307.584"/>
      </g>
     </g>
     <g id="text_3">
      <!-- 40 -->
      <g transform="translate(188.234542 322.182437)scale(0.1 -0.1)">
       <defs>
        <path d="M 37.796875 64.3125 
L 12.890625 25.390625 
L 37.796875 25.390625 
z
M 35.203125 72.90625 
L 47.609375 72.90625 
L 47.609375 25.390625 
L 58.015625 25.390625 
L 58.015625 17.1875 
L 47.609375 17.1875 
L 47.609375 0 
L 37.796875 0 
L 37.796875 17.1875 
L 4.890625 17.1875 
L 4.890625 26.703125 
z
" id="DejaVuSans-52"/>
       </defs>
       <use xlink:href="#DejaVuSans-52"/>
       <use x="63.623047" xlink:href="#DejaVuSans-48"/>
      </g>
     </g>
    </g>
    <g id="xtick_4">
     <g id="line2d_4">
      <g>
       <use style="stroke:#000000;stroke-width:0.8;" x="245.579385" xlink:href="#mcdaa7f8d57" y="307.584"/>
      </g>
     </g>
     <g id="text_4">
      <!-- 60 -->
      <g transform="translate(239.216885 322.182437)scale(0.1 -0.1)">
       <defs>
        <path d="M 33.015625 40.375 
Q 26.375 40.375 22.484375 35.828125 
Q 18.609375 31.296875 18.609375 23.390625 
Q 18.609375 15.53125 22.484375 10.953125 
Q 26.375 6.390625 33.015625 6.390625 
Q 39.65625 6.390625 43.53125 10.953125 
Q 47.40625 15.53125 47.40625 23.390625 
Q 47.40625 31.296875 43.53125 35.828125 
Q 39.65625 40.375 33.015625 40.375 
z
M 52.59375 71.296875 
L 52.59375 62.3125 
Q 48.875 64.0625 45.09375 64.984375 
Q 41.3125 65.921875 37.59375 65.921875 
Q 27.828125 65.921875 22.671875 59.328125 
Q 17.53125 52.734375 16.796875 39.40625 
Q 19.671875 43.65625 24.015625 45.921875 
Q 28.375 48.1875 33.59375 48.1875 
Q 44.578125 48.1875 50.953125 41.515625 
Q 57.328125 34.859375 57.328125 23.390625 
Q 57.328125 12.15625 50.6875 5.359375 
Q 44.046875 -1.421875 33.015625 -1.421875 
Q 20.359375 -1.421875 13.671875 8.265625 
Q 6.984375 17.96875 6.984375 36.375 
Q 6.984375 53.65625 15.1875 63.9375 
Q 23.390625 74.21875 37.203125 74.21875 
Q 40.921875 74.21875 44.703125 73.484375 
Q 48.484375 72.75 52.59375 71.296875 
z
" id="DejaVuSans-54"/>
       </defs>
       <use xlink:href="#DejaVuSans-54"/>
       <use x="63.623047" xlink:href="#DejaVuSans-48"/>
      </g>
     </g>
    </g>
    <g id="xtick_5">
     <g id="line2d_5">
      <g>
       <use style="stroke:#000000;stroke-width:0.8;" x="296.561727" xlink:href="#mcdaa7f8d57" y="307.584"/>
      </g>
     </g>
     <g id="text_5">
      <!-- 80 -->
      <g transform="translate(290.199227 322.182437)scale(0.1 -0.1)">
       <defs>
        <path d="M 31.78125 34.625 
Q 24.75 34.625 20.71875 30.859375 
Q 16.703125 27.09375 16.703125 20.515625 
Q 16.703125 13.921875 20.71875 10.15625 
Q 24.75 6.390625 31.78125 6.390625 
Q 38.8125 6.390625 42.859375 10.171875 
Q 46.921875 13.96875 46.921875 20.515625 
Q 46.921875 27.09375 42.890625 30.859375 
Q 38.875 34.625 31.78125 34.625 
z
M 21.921875 38.8125 
Q 15.578125 40.375 12.03125 44.71875 
Q 8.5 49.078125 8.5 55.328125 
Q 8.5 64.0625 14.71875 69.140625 
Q 20.953125 74.21875 31.78125 74.21875 
Q 42.671875 74.21875 48.875 69.140625 
Q 55.078125 64.0625 55.078125 55.328125 
Q 55.078125 49.078125 51.53125 44.71875 
Q 48 40.375 41.703125 38.8125 
Q 48.828125 37.15625 52.796875 32.3125 
Q 56.78125 27.484375 56.78125 20.515625 
Q 56.78125 9.90625 50.3125 4.234375 
Q 43.84375 -1.421875 31.78125 -1.421875 
Q 19.734375 -1.421875 13.25 4.234375 
Q 6.78125 9.90625 6.78125 20.515625 
Q 6.78125 27.484375 10.78125 32.3125 
Q 14.796875 37.15625 21.921875 38.8125 
z
M 18.3125 54.390625 
Q 18.3125 48.734375 21.84375 45.5625 
Q 25.390625 42.390625 31.78125 42.390625 
Q 38.140625 42.390625 41.71875 45.5625 
Q 45.3125 48.734375 45.3125 54.390625 
Q 45.3125 60.0625 41.71875 63.234375 
Q 38.140625 66.40625 31.78125 66.40625 
Q 25.390625 66.40625 21.84375 63.234375 
Q 18.3125 60.0625 18.3125 54.390625 
z
" id="DejaVuSans-56"/>
       </defs>
       <use xlink:href="#DejaVuSans-56"/>
       <use x="63.623047" xlink:href="#DejaVuSans-48"/>
      </g>
     </g>
    </g>
    <g id="xtick_6">
     <g id="line2d_6">
      <g>
       <use style="stroke:#000000;stroke-width:0.8;" x="347.54407" xlink:href="#mcdaa7f8d57" y="307.584"/>
      </g>
     </g>
     <g id="text_6">
      <!-- 100 -->
      <g transform="translate(338.00032 322.182437)scale(0.1 -0.1)">
       <defs>
        <path d="M 12.40625 8.296875 
L 28.515625 8.296875 
L 28.515625 63.921875 
L 10.984375 60.40625 
L 10.984375 69.390625 
L 28.421875 72.90625 
L 38.28125 72.90625 
L 38.28125 8.296875 
L 54.390625 8.296875 
L 54.390625 0 
L 12.40625 0 
z
" id="DejaVuSans-49"/>
       </defs>
       <use xlink:href="#DejaVuSans-49"/>
       <use x="63.623047" xlink:href="#DejaVuSans-48"/>
       <use x="127.246094" xlink:href="#DejaVuSans-48"/>
      </g>
     </g>
    </g>
    <g id="xtick_7">
     <g id="line2d_7">
      <g>
       <use style="stroke:#000000;stroke-width:0.8;" x="398.526413" xlink:href="#mcdaa7f8d57" y="307.584"/>
      </g>
     </g>
     <g id="text_7">
      <!-- 120 -->
      <g transform="translate(388.982663 322.182437)scale(0.1 -0.1)">
       <use xlink:href="#DejaVuSans-49"/>
       <use x="63.623047" xlink:href="#DejaVuSans-50"/>
       <use x="127.246094" xlink:href="#DejaVuSans-48"/>
      </g>
     </g>
    </g>
   </g>
   <g id="matplotlib.axis_2">
    <g id="ytick_1">
     <g id="line2d_8">
      <defs>
       <path d="M 0 0 
L -3.5 0 
" id="mc0bdc53900" style="stroke:#000000;stroke-width:0.8;"/>
      </defs>
      <g>
       <use style="stroke:#000000;stroke-width:0.8;" x="57.6" xlink:href="#mc0bdc53900" y="269.05286"/>
      </g>
     </g>
     <g id="text_8">
      <!-- 20 -->
      <g transform="translate(37.875 272.852079)scale(0.1 -0.1)">
       <use xlink:href="#DejaVuSans-50"/>
       <use x="63.623047" xlink:href="#DejaVuSans-48"/>
      </g>
     </g>
    </g>
    <g id="ytick_2">
     <g id="line2d_9">
      <g>
       <use style="stroke:#000000;stroke-width:0.8;" x="57.6" xlink:href="#mc0bdc53900" y="218.070518"/>
      </g>
     </g>
     <g id="text_9">
      <!-- 40 -->
      <g transform="translate(37.875 221.869736)scale(0.1 -0.1)">
       <use xlink:href="#DejaVuSans-52"/>
       <use x="63.623047" xlink:href="#DejaVuSans-48"/>
      </g>
     </g>
    </g>
    <g id="ytick_3">
     <g id="line2d_10">
      <g>
       <use style="stroke:#000000;stroke-width:0.8;" x="57.6" xlink:href="#mc0bdc53900" y="167.088175"/>
      </g>
     </g>
     <g id="text_10">
      <!-- 60 -->
      <g transform="translate(37.875 170.887394)scale(0.1 -0.1)">
       <use xlink:href="#DejaVuSans-54"/>
       <use x="63.623047" xlink:href="#DejaVuSans-48"/>
      </g>
     </g>
    </g>
    <g id="ytick_4">
     <g id="line2d_11">
      <g>
       <use style="stroke:#000000;stroke-width:0.8;" x="57.6" xlink:href="#mc0bdc53900" y="116.105832"/>
      </g>
     </g>
     <g id="text_11">
      <!-- 80 -->
      <g transform="translate(37.875 119.905051)scale(0.1 -0.1)">
       <use xlink:href="#DejaVuSans-56"/>
       <use x="63.623047" xlink:href="#DejaVuSans-48"/>
      </g>
     </g>
    </g>
    <g id="ytick_5">
     <g id="line2d_12">
      <g>
       <use style="stroke:#000000;stroke-width:0.8;" x="57.6" xlink:href="#mc0bdc53900" y="65.123489"/>
      </g>
     </g>
     <g id="text_12">
      <!-- 100 -->
      <g transform="translate(31.5125 68.922708)scale(0.1 -0.1)">
       <use xlink:href="#DejaVuSans-49"/>
       <use x="63.623047" xlink:href="#DejaVuSans-48"/>
       <use x="127.246094" xlink:href="#DejaVuSans-48"/>
      </g>
     </g>
    </g>
   </g>
   <g id="line2d_13">
    <path clip-path="url(#p6ddc30e89c)" d="M 354.27119 294.544032 
L 354.686696 289.394815 
L 354.857487 284.258344 
L 354.824349 279.134619 
L 354.464923 271.464325 
L 353.842939 263.806777 
L 351.421277 238.282467 
L 350.995575 230.599428 
L 350.80694 222.911291 
L 350.888512 215.215506 
L 351.454416 194.715506 
L 351.311665 189.599428 
L 350.98028 184.488449 
L 350.195152 176.835999 
L 349.16276 169.196295 
L 347.964675 161.576984 
L 347.016403 156.527183 
L 345.8693 151.528364 
L 344.449442 146.598371 
L 342.690551 141.755049 
L 340.539096 137.034084 
L 339.318069 134.739878 
L 337.997627 132.501754 
L 336.580317 130.327357 
L 335.068691 128.224335 
L 333.460198 126.205434 
L 331.757388 124.275753 
L 329.96026 122.445486 
L 328.071364 120.724832 
L 326.09325 119.111241 
L 324.036112 117.599615 
L 319.712809 114.84147 
L 315.183028 112.376474 
L 310.510496 110.128152 
L 303.403558 107.002935 
L 291.618989 101.914897 
L 286.99744 99.750697 
L 282.457462 97.420804 
L 278.009253 94.909923 
L 271.450375 90.900162 
L 258.378502 82.712398 
L 251.710011 78.855583 
L 247.185329 76.43902 
L 242.591819 74.172855 
L 237.916739 72.082579 
L 233.154988 70.186036 
L 228.311665 68.503619 
L 223.386771 67.042975 
L 218.382854 65.824497 
L 213.305013 64.855832 
L 208.168542 64.167571 
L 203.006579 63.805596 
L 197.852265 63.815792 
L 192.743834 64.246593 
L 190.21511 64.636608 
L 187.714426 65.146431 
L 185.236684 65.773514 
L 180.360223 67.348869 
L 175.585726 69.281099 
L 170.913195 71.501381 
L 166.345177 73.933238 
L 161.876574 76.510396 
L 157.515035 79.225205 
L 153.260558 82.087864 
L 149.120792 85.10347 
L 145.098285 88.282219 
L 141.200685 91.634308 
L 137.46368 95.175031 
L 133.928054 98.914586 
L 130.639693 102.865718 
L 127.636833 107.04627 
L 124.96026 111.461341 
L 122.643113 116.085439 
L 120.71598 120.882878 
L 119.90791 123.335128 
L 119.206903 125.817968 
L 118.620606 128.3263 
L 118.14647 130.857573 
L 117.792143 133.404141 
L 117.560173 135.963455 
L 117.455659 138.532965 
L 117.48115 141.105024 
L 117.641745 143.677083 
L 117.937442 146.244044 
L 118.37589 148.800809 
L 118.959638 151.342278 
L 119.691235 153.868453 
L 120.573229 156.371686 
L 120.573229 156.371686 
" style="fill:none;stroke:#fea952;stroke-linecap:square;"/>
   </g>
   <g id="line2d_14">
    <path clip-path="url(#p6ddc30e89c)" d="M 344.118511 293.600064 
L 344.499928 288.950155 
L 344.661064 284.227937 
L 344.633384 279.469581 
L 344.295408 272.205218 
L 343.694104 264.791214 
L 341.246111 238.941218 
L 340.805642 230.964441 
L 340.610492 222.931562 
L 340.697198 214.89133 
L 341.259586 194.898282 
L 341.131622 190.177955 
L 340.823877 185.391465 
L 340.078672 178.110675 
L 339.078066 170.701925 
L 337.928494 163.377831 
L 337.053296 158.69616 
L 336.030015 154.203515 
L 334.802807 149.90146 
L 333.329972 145.798257 
L 331.538063 141.824634 
L 329.455562 138.069617 
L 327.093832 134.578042 
L 324.481832 131.419579 
L 323.093782 129.983354 
L 321.626226 128.625982 
L 318.382471 126.085151 
L 314.70621 123.724146 
L 310.671218 121.520409 
L 306.319139 119.423339 
L 299.41253 116.385881 
L 287.362871 111.180609 
L 282.433366 108.868657 
L 277.526394 106.34563 
L 272.779649 103.663163 
L 266.006293 99.521644 
L 253.171174 91.478908 
L 246.836642 87.812047 
L 240.473247 84.470277 
L 236.202591 82.454716 
L 231.87487 80.621457 
L 227.509995 78.986961 
L 223.078271 77.553835 
L 218.603908 76.339175 
L 214.076978 75.347429 
L 209.540149 74.598718 
L 205.046062 74.12526 
L 200.636494 73.956522 
L 196.36627 74.115937 
L 192.252 74.627556 
L 188.179649 75.536041 
L 184.026632 76.863353 
L 179.84971 78.543195 
L 175.613252 80.549995 
L 171.36607 82.807843 
L 167.192297 85.211606 
L 163.128856 87.737137 
L 159.183291 90.387817 
L 155.359727 93.168434 
L 151.664637 96.082923 
L 148.117166 99.126321 
L 144.769023 102.288394 
L 141.654064 105.568663 
L 138.81018 108.965809 
L 136.248727 112.505506 
L 133.981775 116.213208 
L 132.025517 120.077738 
L 130.400216 124.074045 
L 129.13575 128.138736 
L 128.245649 132.262764 
L 127.748217 136.377849 
L 127.657801 140.469614 
L 127.987213 144.520654 
L 128.313586 146.518228 
L 128.753654 148.505868 
L 129.308213 150.479987 
L 130.190207 152.98322 
L 130.190207 152.98322 
" style="fill:none;stroke:#ffffff;stroke-linecap:square;"/>
   </g>
   <g id="line2d_15">
    <path clip-path="url(#p6ddc30e89c)" d="M 364.42387 295.488 
L 364.873465 289.839476 
L 365.05391 284.288751 
L 365.015314 278.799657 
L 364.798045 273.398945 
L 364.226214 265.455427 
L 363.219973 255.102133 
L 361.981502 242.565159 
L 361.436261 235.155872 
L 361.097128 227.784253 
L 360.997701 220.458365 
L 361.159663 213.02586 
L 361.650884 197.27482 
L 361.59769 191.770163 
L 361.335881 186.301771 
L 360.896323 180.893106 
L 359.977239 172.911461 
L 358.444376 162.445264 
L 357.516717 157.085547 
L 356.382857 151.629556 
L 354.951274 146.085157 
L 353.134267 140.507696 
L 352.05113 137.711841 
L 350.856077 134.965369 
L 349.54013 132.243534 
L 348.100062 129.558703 
L 346.539691 126.93389 
L 344.859858 124.376123 
L 343.04355 121.870628 
L 341.105601 119.458896 
L 339.032944 117.131926 
L 336.826739 114.907619 
L 334.516503 112.823683 
L 332.131013 110.894588 
L 329.689753 109.114079 
L 327.217905 107.476795 
L 322.209842 104.549487 
L 317.188271 101.997971 
L 309.801871 98.654196 
L 293.691402 91.647337 
L 289.46243 89.584326 
L 285.3172 87.353474 
L 279.027978 83.611684 
L 261.278414 72.576003 
L 254.190097 68.598295 
L 249.324294 66.098264 
L 244.32636 63.749736 
L 239.217249 61.596176 
L 233.977051 59.646613 
L 228.640558 57.934129 
L 223.18356 56.467117 
L 217.631281 55.266622 
L 211.94615 54.348211 
L 206.131608 53.761236 
L 200.212154 53.568 
L 197.214335 53.639299 
L 194.214534 53.836837 
L 191.189571 54.16928 
L 188.178219 54.64566 
L 185.212715 55.261624 
L 182.293718 56.010988 
L 179.459855 56.873508 
L 173.976466 58.887625 
L 168.750416 61.206071 
L 163.733839 63.742933 
L 158.929687 66.415006 
L 154.221323 69.240114 
L 149.603641 72.230663 
L 145.094171 75.391344 
L 140.690019 78.736829 
L 136.402769 82.276759 
L 132.200926 86.070198 
L 128.157763 90.122554 
L 124.304436 94.472721 
L 120.710396 99.13295 
L 119.024939 101.587034 
L 117.432068 104.114982 
L 115.938745 106.709474 
L 114.547796 109.368204 
L 113.260708 112.09314 
L 112.094226 114.856029 
L 111.031744 117.691711 
L 110.095065 120.564561 
L 109.278055 123.497201 
L 108.598438 126.449036 
L 108.047291 129.452382 
L 107.637301 132.483732 
L 107.372129 135.54906 
L 107.259691 138.634015 
L 107.304499 141.740434 
L 107.512262 144.843935 
L 107.887671 147.967435 
L 108.438195 151.083389 
L 109.165622 154.178689 
L 110.074257 157.25692 
L 110.956252 159.760153 
L 110.956252 159.760153 
" style="fill:none;stroke:#ffffff;stroke-linecap:square;"/>
   </g>
   <g id="patch_3">
    <path d="M 57.6 307.584 
L 57.6 41.472 
" style="fill:none;stroke:#000000;stroke-linecap:square;stroke-linejoin:miter;stroke-width:0.8;"/>
   </g>
   <g id="patch_4">
    <path d="M 414.72 307.584 
L 414.72 41.472 
" style="fill:none;stroke:#000000;stroke-linecap:square;stroke-linejoin:miter;stroke-width:0.8;"/>
   </g>
   <g id="patch_5">
    <path d="M 57.6 307.584 
L 414.72 307.584 
" style="fill:none;stroke:#000000;stroke-linecap:square;stroke-linejoin:miter;stroke-width:0.8;"/>
   </g>
   <g id="patch_6">
    <path d="M 57.6 41.472 
L 414.72 41.472 
" style="fill:none;stroke:#000000;stroke-linecap:square;stroke-linejoin:miter;stroke-width:0.8;"/>
   </g>
  </g>
 </g>
 <defs>
  <clipPath id="p6ddc30e89c">
   <rect height="266.112" width="357.12" x="57.6" y="41.472"/>
  </clipPath>
 </defs>
</svg>
