<?xml version="1.0" encoding="utf-8" standalone="no"?>
<!DOCTYPE svg PUBLIC "-//W3C//DTD SVG 1.1//EN"
  "http://www.w3.org/Graphics/SVG/1.1/DTD/svg11.dtd">
<!-- Created with matplotlib (https://matplotlib.org/) -->
<svg height="345.6pt" version="1.1" viewBox="0 0 460.8 345.6" width="460.8pt" xmlns="http://www.w3.org/2000/svg" xmlns:xlink="http://www.w3.org/1999/xlink">
 <metadata>
  <rdf:RDF xmlns:cc="http://creativecommons.org/ns#" xmlns:dc="http://purl.org/dc/elements/1.1/" xmlns:rdf="http://www.w3.org/1999/02/22-rdf-syntax-ns#">
   <cc:Work>
    <dc:type rdf:resource="http://purl.org/dc/dcmitype/StillImage"/>
    <dc:date>2021-01-25T14:35:20.072452</dc:date>
    <dc:format>image/svg+xml</dc:format>
    <dc:creator>
     <cc:Agent>
      <dc:title>Matplotlib v3.3.3, https://matplotlib.org/</dc:title>
     </cc:Agent>
    </dc:creator>
   </cc:Work>
  </rdf:RDF>
 </metadata>
 <defs>
  <style type="text/css">*{stroke-linecap:butt;stroke-linejoin:round;}</style>
 </defs>
 <g id="figure_1">
  <g id="patch_1">
   <path d="M 0 345.6 
L 460.8 345.6 
L 460.8 0 
L 0 0 
z
" style="fill:#ffffff;"/>
  </g>
  <g id="axes_1">
   <g id="patch_2">
    <path d="M 57.6 307.584 
L 414.72 307.584 
L 414.72 41.472 
L 57.6 41.472 
z
" style="fill:#7d9051;"/>
   </g>
   <g id="matplotlib.axis_1">
    <g id="xtick_1">
     <g id="line2d_1">
      <defs>
       <path d="M 0 0 
L 0 3.5 
" id="mf8f595c0a3" style="stroke:#000000;stroke-width:0.8;"/>
      </defs>
      <g>
       <use style="stroke:#000000;stroke-width:0.8;" x="98.136522" xlink:href="#mf8f595c0a3" y="307.584"/>
      </g>
     </g>
     <g id="text_1">
      <!-- 0 -->
      <g transform="translate(94.955272 322.182437)scale(0.1 -0.1)">
       <defs>
        <path d="M 31.78125 66.40625 
Q 24.171875 66.40625 20.328125 58.90625 
Q 16.5 51.421875 16.5 36.375 
Q 16.5 21.390625 20.328125 13.890625 
Q 24.171875 6.390625 31.78125 6.390625 
Q 39.453125 6.390625 43.28125 13.890625 
Q 47.125 21.390625 47.125 36.375 
Q 47.125 51.421875 43.28125 58.90625 
Q 39.453125 66.40625 31.78125 66.40625 
z
M 31.78125 74.21875 
Q 44.046875 74.21875 50.515625 64.515625 
Q 56.984375 54.828125 56.984375 36.375 
Q 56.984375 17.96875 50.515625 8.265625 
Q 44.046875 -1.421875 31.78125 -1.421875 
Q 19.53125 -1.421875 13.0625 8.265625 
Q 6.59375 17.96875 6.59375 36.375 
Q 6.59375 54.828125 13.0625 64.515625 
Q 19.53125 74.21875 31.78125 74.21875 
z
" id="DejaVuSans-48"/>
       </defs>
       <use xlink:href="#DejaVuSans-48"/>
      </g>
     </g>
    </g>
    <g id="xtick_2">
     <g id="line2d_2">
      <g>
       <use style="stroke:#000000;stroke-width:0.8;" x="168.991482" xlink:href="#mf8f595c0a3" y="307.584"/>
      </g>
     </g>
     <g id="text_2">
      <!-- 20 -->
      <g transform="translate(162.628982 322.182437)scale(0.1 -0.1)">
       <defs>
        <path d="M 19.1875 8.296875 
L 53.609375 8.296875 
L 53.609375 0 
L 7.328125 0 
L 7.328125 8.296875 
Q 12.9375 14.109375 22.625 23.890625 
Q 32.328125 33.6875 34.8125 36.53125 
Q 39.546875 41.84375 41.421875 45.53125 
Q 43.3125 49.21875 43.3125 52.78125 
Q 43.3125 58.59375 39.234375 62.25 
Q 35.15625 65.921875 28.609375 65.921875 
Q 23.96875 65.921875 18.8125 64.3125 
Q 13.671875 62.703125 7.8125 59.421875 
L 7.8125 69.390625 
Q 13.765625 71.78125 18.9375 73 
Q 24.125 74.21875 28.421875 74.21875 
Q 39.75 74.21875 46.484375 68.546875 
Q 53.21875 62.890625 53.21875 53.421875 
Q 53.21875 48.921875 51.53125 44.890625 
Q 49.859375 40.875 45.40625 35.40625 
Q 44.1875 33.984375 37.640625 27.21875 
Q 31.109375 20.453125 19.1875 8.296875 
z
" id="DejaVuSans-50"/>
       </defs>
       <use xlink:href="#DejaVuSans-50"/>
       <use x="63.623047" xlink:href="#DejaVuSans-48"/>
      </g>
     </g>
    </g>
    <g id="xtick_3">
     <g id="line2d_3">
      <g>
       <use style="stroke:#000000;stroke-width:0.8;" x="239.846442" xlink:href="#mf8f595c0a3" y="307.584"/>
      </g>
     </g>
     <g id="text_3">
      <!-- 40 -->
      <g transform="translate(233.483942 322.182437)scale(0.1 -0.1)">
       <defs>
        <path d="M 37.796875 64.3125 
L 12.890625 25.390625 
L 37.796875 25.390625 
z
M 35.203125 72.90625 
L 47.609375 72.90625 
L 47.609375 25.390625 
L 58.015625 25.390625 
L 58.015625 17.1875 
L 47.609375 17.1875 
L 47.609375 0 
L 37.796875 0 
L 37.796875 17.1875 
L 4.890625 17.1875 
L 4.890625 26.703125 
z
" id="DejaVuSans-52"/>
       </defs>
       <use xlink:href="#DejaVuSans-52"/>
       <use x="63.623047" xlink:href="#DejaVuSans-48"/>
      </g>
     </g>
    </g>
    <g id="xtick_4">
     <g id="line2d_4">
      <g>
       <use style="stroke:#000000;stroke-width:0.8;" x="310.701402" xlink:href="#mf8f595c0a3" y="307.584"/>
      </g>
     </g>
     <g id="text_4">
      <!-- 60 -->
      <g transform="translate(304.338902 322.182437)scale(0.1 -0.1)">
       <defs>
        <path d="M 33.015625 40.375 
Q 26.375 40.375 22.484375 35.828125 
Q 18.609375 31.296875 18.609375 23.390625 
Q 18.609375 15.53125 22.484375 10.953125 
Q 26.375 6.390625 33.015625 6.390625 
Q 39.65625 6.390625 43.53125 10.953125 
Q 47.40625 15.53125 47.40625 23.390625 
Q 47.40625 31.296875 43.53125 35.828125 
Q 39.65625 40.375 33.015625 40.375 
z
M 52.59375 71.296875 
L 52.59375 62.3125 
Q 48.875 64.0625 45.09375 64.984375 
Q 41.3125 65.921875 37.59375 65.921875 
Q 27.828125 65.921875 22.671875 59.328125 
Q 17.53125 52.734375 16.796875 39.40625 
Q 19.671875 43.65625 24.015625 45.921875 
Q 28.375 48.1875 33.59375 48.1875 
Q 44.578125 48.1875 50.953125 41.515625 
Q 57.328125 34.859375 57.328125 23.390625 
Q 57.328125 12.15625 50.6875 5.359375 
Q 44.046875 -1.421875 33.015625 -1.421875 
Q 20.359375 -1.421875 13.671875 8.265625 
Q 6.984375 17.96875 6.984375 36.375 
Q 6.984375 53.65625 15.1875 63.9375 
Q 23.390625 74.21875 37.203125 74.21875 
Q 40.921875 74.21875 44.703125 73.484375 
Q 48.484375 72.75 52.59375 71.296875 
z
" id="DejaVuSans-54"/>
       </defs>
       <use xlink:href="#DejaVuSans-54"/>
       <use x="63.623047" xlink:href="#DejaVuSans-48"/>
      </g>
     </g>
    </g>
    <g id="xtick_5">
     <g id="line2d_5">
      <g>
       <use style="stroke:#000000;stroke-width:0.8;" x="381.556363" xlink:href="#mf8f595c0a3" y="307.584"/>
      </g>
     </g>
     <g id="text_5">
      <!-- 80 -->
      <g transform="translate(375.193863 322.182437)scale(0.1 -0.1)">
       <defs>
        <path d="M 31.78125 34.625 
Q 24.75 34.625 20.71875 30.859375 
Q 16.703125 27.09375 16.703125 20.515625 
Q 16.703125 13.921875 20.71875 10.15625 
Q 24.75 6.390625 31.78125 6.390625 
Q 38.8125 6.390625 42.859375 10.171875 
Q 46.921875 13.96875 46.921875 20.515625 
Q 46.921875 27.09375 42.890625 30.859375 
Q 38.875 34.625 31.78125 34.625 
z
M 21.921875 38.8125 
Q 15.578125 40.375 12.03125 44.71875 
Q 8.5 49.078125 8.5 55.328125 
Q 8.5 64.0625 14.71875 69.140625 
Q 20.953125 74.21875 31.78125 74.21875 
Q 42.671875 74.21875 48.875 69.140625 
Q 55.078125 64.0625 55.078125 55.328125 
Q 55.078125 49.078125 51.53125 44.71875 
Q 48 40.375 41.703125 38.8125 
Q 48.828125 37.15625 52.796875 32.3125 
Q 56.78125 27.484375 56.78125 20.515625 
Q 56.78125 9.90625 50.3125 4.234375 
Q 43.84375 -1.421875 31.78125 -1.421875 
Q 19.734375 -1.421875 13.25 4.234375 
Q 6.78125 9.90625 6.78125 20.515625 
Q 6.78125 27.484375 10.78125 32.3125 
Q 14.796875 37.15625 21.921875 38.8125 
z
M 18.3125 54.390625 
Q 18.3125 48.734375 21.84375 45.5625 
Q 25.390625 42.390625 31.78125 42.390625 
Q 38.140625 42.390625 41.71875 45.5625 
Q 45.3125 48.734375 45.3125 54.390625 
Q 45.3125 60.0625 41.71875 63.234375 
Q 38.140625 66.40625 31.78125 66.40625 
Q 25.390625 66.40625 21.84375 63.234375 
Q 18.3125 60.0625 18.3125 54.390625 
z
" id="DejaVuSans-56"/>
       </defs>
       <use xlink:href="#DejaVuSans-56"/>
       <use x="63.623047" xlink:href="#DejaVuSans-48"/>
      </g>
     </g>
    </g>
   </g>
   <g id="matplotlib.axis_2">
    <g id="ytick_1">
     <g id="line2d_6">
      <defs>
       <path d="M 0 0 
L -3.5 0 
" id="m5f84a32cf6" style="stroke:#000000;stroke-width:0.8;"/>
      </defs>
      <g>
       <use style="stroke:#000000;stroke-width:0.8;" x="57.6" xlink:href="#m5f84a32cf6" y="281.317036"/>
      </g>
     </g>
     <g id="text_6">
      <!-- 10 -->
      <g transform="translate(37.875 285.116255)scale(0.1 -0.1)">
       <defs>
        <path d="M 12.40625 8.296875 
L 28.515625 8.296875 
L 28.515625 63.921875 
L 10.984375 60.40625 
L 10.984375 69.390625 
L 28.421875 72.90625 
L 38.28125 72.90625 
L 38.28125 8.296875 
L 54.390625 8.296875 
L 54.390625 0 
L 12.40625 0 
z
" id="DejaVuSans-49"/>
       </defs>
       <use xlink:href="#DejaVuSans-49"/>
       <use x="63.623047" xlink:href="#DejaVuSans-48"/>
      </g>
     </g>
    </g>
    <g id="ytick_2">
     <g id="line2d_7">
      <g>
       <use style="stroke:#000000;stroke-width:0.8;" x="57.6" xlink:href="#m5f84a32cf6" y="245.889556"/>
      </g>
     </g>
     <g id="text_7">
      <!-- 20 -->
      <g transform="translate(37.875 249.688775)scale(0.1 -0.1)">
       <use xlink:href="#DejaVuSans-50"/>
       <use x="63.623047" xlink:href="#DejaVuSans-48"/>
      </g>
     </g>
    </g>
    <g id="ytick_3">
     <g id="line2d_8">
      <g>
       <use style="stroke:#000000;stroke-width:0.8;" x="57.6" xlink:href="#m5f84a32cf6" y="210.462076"/>
      </g>
     </g>
     <g id="text_8">
      <!-- 30 -->
      <g transform="translate(37.875 214.261295)scale(0.1 -0.1)">
       <defs>
        <path d="M 40.578125 39.3125 
Q 47.65625 37.796875 51.625 33 
Q 55.609375 28.21875 55.609375 21.1875 
Q 55.609375 10.40625 48.1875 4.484375 
Q 40.765625 -1.421875 27.09375 -1.421875 
Q 22.515625 -1.421875 17.65625 -0.515625 
Q 12.796875 0.390625 7.625 2.203125 
L 7.625 11.71875 
Q 11.71875 9.328125 16.59375 8.109375 
Q 21.484375 6.890625 26.8125 6.890625 
Q 36.078125 6.890625 40.9375 10.546875 
Q 45.796875 14.203125 45.796875 21.1875 
Q 45.796875 27.640625 41.28125 31.265625 
Q 36.765625 34.90625 28.71875 34.90625 
L 20.21875 34.90625 
L 20.21875 43.015625 
L 29.109375 43.015625 
Q 36.375 43.015625 40.234375 45.921875 
Q 44.09375 48.828125 44.09375 54.296875 
Q 44.09375 59.90625 40.109375 62.90625 
Q 36.140625 65.921875 28.71875 65.921875 
Q 24.65625 65.921875 20.015625 65.03125 
Q 15.375 64.15625 9.8125 62.3125 
L 9.8125 71.09375 
Q 15.4375 72.65625 20.34375 73.4375 
Q 25.25 74.21875 29.59375 74.21875 
Q 40.828125 74.21875 47.359375 69.109375 
Q 53.90625 64.015625 53.90625 55.328125 
Q 53.90625 49.265625 50.4375 45.09375 
Q 46.96875 40.921875 40.578125 39.3125 
z
" id="DejaVuSans-51"/>
       </defs>
       <use xlink:href="#DejaVuSans-51"/>
       <use x="63.623047" xlink:href="#DejaVuSans-48"/>
      </g>
     </g>
    </g>
    <g id="ytick_4">
     <g id="line2d_9">
      <g>
       <use style="stroke:#000000;stroke-width:0.8;" x="57.6" xlink:href="#m5f84a32cf6" y="175.034596"/>
      </g>
     </g>
     <g id="text_9">
      <!-- 40 -->
      <g transform="translate(37.875 178.833814)scale(0.1 -0.1)">
       <use xlink:href="#DejaVuSans-52"/>
       <use x="63.623047" xlink:href="#DejaVuSans-48"/>
      </g>
     </g>
    </g>
    <g id="ytick_5">
     <g id="line2d_10">
      <g>
       <use style="stroke:#000000;stroke-width:0.8;" x="57.6" xlink:href="#m5f84a32cf6" y="139.607116"/>
      </g>
     </g>
     <g id="text_10">
      <!-- 50 -->
      <g transform="translate(37.875 143.406334)scale(0.1 -0.1)">
       <defs>
        <path d="M 10.796875 72.90625 
L 49.515625 72.90625 
L 49.515625 64.59375 
L 19.828125 64.59375 
L 19.828125 46.734375 
Q 21.96875 47.46875 24.109375 47.828125 
Q 26.265625 48.1875 28.421875 48.1875 
Q 40.625 48.1875 47.75 41.5 
Q 54.890625 34.8125 54.890625 23.390625 
Q 54.890625 11.625 47.5625 5.09375 
Q 40.234375 -1.421875 26.90625 -1.421875 
Q 22.3125 -1.421875 17.546875 -0.640625 
Q 12.796875 0.140625 7.71875 1.703125 
L 7.71875 11.625 
Q 12.109375 9.234375 16.796875 8.0625 
Q 21.484375 6.890625 26.703125 6.890625 
Q 35.15625 6.890625 40.078125 11.328125 
Q 45.015625 15.765625 45.015625 23.390625 
Q 45.015625 31 40.078125 35.4375 
Q 35.15625 39.890625 26.703125 39.890625 
Q 22.75 39.890625 18.8125 39.015625 
Q 14.890625 38.140625 10.796875 36.28125 
z
" id="DejaVuSans-53"/>
       </defs>
       <use xlink:href="#DejaVuSans-53"/>
       <use x="63.623047" xlink:href="#DejaVuSans-48"/>
      </g>
     </g>
    </g>
    <g id="ytick_6">
     <g id="line2d_11">
      <g>
       <use style="stroke:#000000;stroke-width:0.8;" x="57.6" xlink:href="#m5f84a32cf6" y="104.179635"/>
      </g>
     </g>
     <g id="text_11">
      <!-- 60 -->
      <g transform="translate(37.875 107.978854)scale(0.1 -0.1)">
       <use xlink:href="#DejaVuSans-54"/>
       <use x="63.623047" xlink:href="#DejaVuSans-48"/>
      </g>
     </g>
    </g>
    <g id="ytick_7">
     <g id="line2d_12">
      <g>
       <use style="stroke:#000000;stroke-width:0.8;" x="57.6" xlink:href="#m5f84a32cf6" y="68.752155"/>
      </g>
     </g>
     <g id="text_12">
      <!-- 70 -->
      <g transform="translate(37.875 72.551374)scale(0.1 -0.1)">
       <defs>
        <path d="M 8.203125 72.90625 
L 55.078125 72.90625 
L 55.078125 68.703125 
L 28.609375 0 
L 18.3125 0 
L 43.21875 64.59375 
L 8.203125 64.59375 
z
" id="DejaVuSans-55"/>
       </defs>
       <use xlink:href="#DejaVuSans-55"/>
       <use x="63.623047" xlink:href="#DejaVuSans-48"/>
      </g>
     </g>
    </g>
   </g>
   <g id="line2d_13">
    <path clip-path="url(#pbe8f5784f5)" d="M 133.564002 171.934691 
L 133.099902 158.054204 
L 133.029047 150.915567 
L 133.167214 143.713161 
L 133.592344 136.507211 
L 134.382376 129.347317 
L 134.938588 125.804569 
L 135.615253 122.293706 
L 136.419457 118.81827 
L 137.36537 115.392433 
L 138.460079 112.019737 
L 139.714212 108.703725 
L 141.134854 105.455025 
L 142.732634 102.280722 
L 144.518179 99.184361 
L 146.480861 96.183653 
L 148.610052 93.285685 
L 150.90221 90.504628 
L 153.346707 87.85111 
L 155.92937 85.339301 
L 158.646658 82.979831 
L 161.487942 80.790413 
L 164.442593 78.774589 
L 167.503528 76.950074 
L 170.660116 75.327496 
L 173.905273 73.892683 
L 177.224828 72.642093 
L 180.611695 71.558012 
L 184.055246 70.633354 
L 187.544853 69.861035 
L 191.07343 69.223341 
L 194.630349 68.709642 
L 201.790243 68.025892 
L 208.953679 67.738929 
L 212.524769 67.749558 
L 216.085231 67.873554 
L 219.635065 68.114461 
L 223.167184 68.475821 
L 226.678048 68.96472 
L 230.167655 69.588244 
L 233.632462 70.353477 
L 237.068928 71.263964 
L 240.469966 72.319702 
L 243.835576 73.52778 
L 247.148046 74.877567 
L 250.403831 76.369063 
L 253.592304 77.998728 
L 256.70638 79.763016 
L 259.73543 81.661929 
L 262.672368 83.684838 
L 265.510109 85.835286 
L 268.234482 88.10973 
L 270.845487 90.497543 
L 273.353753 92.988094 
L 278.13292 98.210105 
L 282.703065 103.64468 
L 291.751243 114.605943 
L 296.459555 119.905894 
L 310.821856 135.561297 
L 315.384915 140.999416 
L 319.689354 146.671355 
L 323.671403 152.587744 
L 325.527803 155.630965 
L 327.281463 158.730869 
L 328.928841 161.883915 
L 330.462851 165.086559 
L 331.876407 168.342345 
L 333.162425 171.640643 
L 334.317361 174.98854 
L 335.337672 178.375407 
L 336.233987 181.801244 
L 337.006307 185.262509 
L 337.661715 188.755659 
L 338.200213 192.273608 
L 338.628885 195.812813 
L 339.160297 202.95145 
L 339.294922 210.1326 
L 339.20281 213.724947 
L 338.997331 217.313751 
L 338.667855 220.881298 
L 338.203755 224.427589 
L 337.594403 227.938452 
L 336.832712 231.410345 
L 335.904512 234.832639 
L 334.802717 238.194707 
L 333.520242 241.493006 
L 332.050002 244.720449 
L 330.391996 247.862867 
L 328.556852 250.916715 
L 326.551657 253.87491 
L 324.387038 256.730365 
L 322.066538 259.468909 
L 319.597243 262.090543 
L 316.986237 264.581095 
L 314.247693 266.937022 
L 311.38161 269.15124 
L 308.398616 271.213119 
L 305.30934 273.112032 
L 302.127952 274.840893 
L 298.857996 276.389074 
L 295.517184 277.745946 
L 292.116146 278.900882 
L 288.661967 279.846796 
L 285.168818 280.569516 
L 281.647326 281.061958 
L 278.108121 281.317036 
L 274.56183 281.324122 
L 271.019082 281.093843 
L 267.486962 280.633286 
L 263.976099 279.960164 
L 260.500663 279.081562 
L 257.064198 278.011652 
L 253.67733 276.764605 
L 250.35069 275.343963 
L 247.091362 273.76744 
L 243.913517 272.045665 
L 240.824241 270.189265 
L 237.830619 268.201783 
L 234.939736 266.079677 
L 232.155136 263.830032 
L 229.49099 261.452848 
L 226.950839 258.951668 
L 224.541771 256.322949 
L 222.267326 253.573777 
L 220.141678 250.700608 
L 218.168367 247.710529 
L 216.35448 244.603539 
L 214.710645 241.393809 
L 213.243947 238.088425 
L 211.965015 234.708643 
L 210.88802 231.265092 
L 210.016504 227.7684 
L 209.361095 224.23628 
L 208.932423 220.679361 
L 208.741115 217.111814 
L 208.794256 213.547809 
L 209.098932 209.997976 
L 209.651601 206.476484 
L 210.441634 202.993963 
L 211.45486 199.56104 
L 212.687736 196.184801 
L 214.126092 192.879417 
L 215.762841 189.655517 
L 217.583814 186.523728 
L 219.585466 183.491135 
L 221.757171 180.575454 
L 224.084756 177.780225 
L 226.561137 175.123164 
L 229.179228 172.607813 
L 231.924858 170.251886 
L 234.790941 168.058925 
L 237.766849 166.046644 
L 240.845497 164.218586 
L 244.012714 162.592465 
L 247.261414 161.175365 
L 250.580969 159.977917 
L 250.580969 159.977917 
" style="fill:none;stroke:#fea952;stroke-linecap:square;"/>
   </g>
   <g id="line2d_14">
    <path clip-path="url(#pbe8f5784f5)" d="M 119.403501 172.479893 
L 118.930705 158.279784 
L 118.858742 150.775958 
L 119.011948 143.045722 
L 119.485876 135.156444 
L 119.874428 131.160712 
L 120.382871 127.149395 
L 121.023685 123.122686 
L 121.809063 119.099002 
L 122.759599 115.046624 
L 123.88661 111.017499 
L 125.205385 107.006743 
L 126.730379 103.025952 
L 128.476931 99.083682 
L 130.456522 95.201592 
L 132.658722 91.427408 
L 135.060852 87.793158 
L 137.674655 84.272689 
L 140.479719 80.903134 
L 143.466623 77.692322 
L 146.638267 74.639188 
L 149.996985 71.754851 
L 153.501416 69.084328 
L 157.18693 66.601982 
L 161.02501 64.346669 
L 164.929685 62.366817 
L 168.909349 60.631546 
L 172.904829 59.145625 
L 176.936703 57.871834 
L 180.993026 56.797176 
L 185.024656 55.915942 
L 189.047838 55.197864 
L 193.080748 54.62363 
L 197.06049 54.191697 
L 205.007645 53.664732 
L 208.995855 53.568 
L 213.017988 53.587151 
L 217.044728 53.735082 
L 221.077327 54.017053 
L 225.121682 54.440261 
L 229.170646 55.014667 
L 233.223794 55.750721 
L 237.261819 56.655128 
L 241.270085 57.730033 
L 245.257526 58.981926 
L 249.183139 60.404495 
L 253.050043 61.99411 
L 256.853206 63.750721 
L 260.57772 65.669048 
L 264.233393 67.756306 
L 267.773859 69.991425 
L 271.231259 72.390486 
L 274.591893 74.956949 
L 277.797956 77.652341 
L 280.830321 80.441693 
L 283.681395 83.28465 
L 288.914281 89.013406 
L 293.68276 94.685701 
L 302.415124 105.273277 
L 306.896338 110.319936 
L 321.577278 126.334277 
L 326.557133 132.2817 
L 331.330996 138.591183 
L 333.591264 141.857904 
L 335.769167 145.207967 
L 337.861916 148.653381 
L 339.841473 152.168617 
L 341.709387 155.76226 
L 343.461565 159.442939 
L 345.079309 163.19449 
L 346.558695 167.019284 
L 347.886013 170.900913 
L 349.047206 174.788528 
L 350.064857 178.715134 
L 350.934261 182.649252 
L 351.669549 186.611459 
L 352.268388 190.569654 
L 352.743394 194.548827 
L 353.093785 198.532915 
L 353.448028 206.466904 
L 353.461258 210.49584 
L 353.350632 214.53499 
L 353.108273 218.616946 
L 352.719033 222.720163 
L 352.16601 226.850906 
L 351.4362 230.975173 
L 350.509587 235.119808 
L 349.370827 239.245731 
L 348.010414 243.330246 
L 346.416186 247.367667 
L 344.583421 251.333347 
L 342.538545 255.162069 
L 340.286967 258.867907 
L 337.844586 262.435679 
L 335.19861 265.891529 
L 332.38217 269.18512 
L 329.378328 272.344682 
L 326.228038 275.323819 
L 322.911327 278.15123 
L 319.439239 280.808496 
L 315.819416 283.285763 
L 312.075712 285.563266 
L 308.191974 287.648885 
L 304.190512 289.518479 
L 300.073854 291.164358 
L 295.859013 292.568653 
L 291.533089 293.723887 
L 287.131379 294.603951 
L 282.666016 295.196288 
L 278.136434 295.488 
L 273.642655 295.465272 
L 269.18682 295.145883 
L 264.818621 294.550792 
L 260.502893 293.698936 
L 256.288109 292.61195 
L 252.167788 291.309855 
L 248.111858 289.79697 
L 244.180172 288.100989 
L 240.340615 286.227152 
L 236.614409 284.192271 
L 232.986172 281.995268 
L 229.444947 279.625335 
L 226.03427 277.102821 
L 222.720386 274.403702 
L 219.548341 271.55041 
L 216.503465 268.526081 
L 213.623089 265.356188 
L 210.875149 262.002021 
L 208.314177 258.506198 
L 205.930294 254.855219 
L 203.741407 251.063214 
L 201.757596 247.141464 
L 199.990137 243.103755 
L 198.440078 238.938665 
L 197.137683 234.692228 
L 196.08335 230.35379 
L 195.29191 225.931869 
L 194.781762 221.438185 
L 194.571698 216.90054 
L 194.675172 212.335992 
L 195.099302 207.800851 
L 195.831759 203.341363 
L 196.850276 198.982479 
L 198.143592 194.700262 
L 199.693715 190.530383 
L 201.490289 186.464318 
L 203.512197 182.532405 
L 205.756824 178.717362 
L 208.220564 175.026147 
L 210.86732 171.507479 
L 213.718086 168.118489 
L 216.743245 164.90426 
L 219.951156 161.853293 
L 223.313589 158.997417 
L 226.853057 156.319801 
L 230.531684 153.861842 
L 234.373026 151.612074 
L 238.346835 149.603437 
L 242.45286 147.845143 
L 245.772415 146.647694 
L 245.772415 146.647694 
" style="fill:none;stroke:#ffffff;stroke-linecap:square;"/>
   </g>
   <g id="line2d_15">
    <path clip-path="url(#pbe8f5784f5)" d="M 147.724502 171.38949 
L 147.269098 157.828625 
L 147.199351 151.055176 
L 147.322479 144.380599 
L 147.698812 137.857978 
L 148.381882 131.54524 
L 149.421443 125.48841 
L 150.079314 122.589916 
L 150.84413 119.767367 
L 151.714773 117.03273 
L 152.698045 114.381497 
L 153.792777 111.826367 
L 155.008745 109.359853 
L 156.377635 106.941313 
L 157.90087 104.574149 
L 159.54545 102.298682 
L 161.324702 100.106122 
L 163.22679 98.009898 
L 165.220472 96.039415 
L 167.29633 94.204811 
L 169.474467 92.496498 
L 171.698256 90.947197 
L 173.982046 89.553479 
L 176.390547 88.288174 
L 178.901198 87.15382 
L 181.544827 86.13856 
L 184.286687 85.244189 
L 187.117467 84.469533 
L 190.065051 83.806128 
L 196.17995 82.795655 
L 202.560029 82.175961 
L 208.911504 81.909859 
L 215.125734 82.012025 
L 221.212687 82.511381 
L 224.18545 82.914773 
L 227.111515 83.425766 
L 230.003106 84.051827 
L 232.86777 84.797895 
L 235.682406 85.657479 
L 238.488014 86.651064 
L 241.246049 87.761023 
L 243.954456 88.987406 
L 246.606889 90.328407 
L 249.179366 91.769726 
L 251.697 93.332433 
L 254.113476 94.979191 
L 256.428324 96.713623 
L 258.671008 98.567119 
L 260.860654 100.553392 
L 263.026111 102.691538 
L 267.351559 107.406804 
L 271.72337 112.60366 
L 281.087362 123.938609 
L 286.022773 129.491852 
L 300.066433 144.788318 
L 304.212697 149.717131 
L 308.047712 154.751527 
L 311.573639 159.967521 
L 314.721453 165.293122 
L 317.464137 170.730179 
L 318.673506 173.4902 
L 319.766155 176.262002 
L 320.748709 179.076167 
L 321.628138 181.962286 
L 322.403118 184.887354 
L 323.653881 190.899859 
L 324.514376 197.076799 
L 324.996833 203.413302 
L 325.128586 209.769361 
L 324.886388 216.010555 
L 324.616678 219.042432 
L 324.241501 222.004271 
L 323.752606 224.901731 
L 323.155837 227.700882 
L 322.438197 230.419548 
L 321.59502 233.059169 
L 320.624299 235.618344 
L 319.516583 238.107552 
L 318.245447 240.563664 
L 316.826738 242.965524 
L 315.258728 245.314141 
L 313.575466 247.569201 
L 311.750906 249.752699 
L 309.816157 251.836403 
L 307.744437 253.83837 
L 305.584059 255.722814 
L 303.323981 257.493983 
L 300.977816 259.140474 
L 298.542968 260.660798 
L 296.06393 262.032901 
L 293.52548 263.259668 
L 290.960515 264.327534 
L 288.37328 265.233111 
L 285.790845 265.969704 
L 283.206256 266.535081 
L 280.628636 266.927628 
L 278.079807 267.146072 
L 275.481005 267.182971 
L 272.851344 267.041803 
L 270.155303 266.71578 
L 267.449305 266.221392 
L 264.713217 265.551174 
L 261.960607 264.71345 
L 259.242803 263.73224 
L 256.521208 262.586937 
L 253.842109 261.307728 
L 251.212624 259.899058 
L 248.662309 258.383262 
L 246.21629 256.778231 
L 243.845202 255.056533 
L 241.589887 253.256362 
L 239.433638 251.355286 
L 237.398214 249.377255 
L 235.460452 247.28971 
L 233.659504 245.145532 
L 231.969179 242.895018 
L 230.40644 240.565839 
L 228.967553 238.143863 
L 227.663694 235.646154 
L 226.497757 233.073094 
L 225.489953 230.478622 
L 224.638357 227.837957 
L 223.949658 225.18301 
L 223.430281 222.540691 
L 223.083084 219.920537 
L 222.910532 217.323088 
L 222.913339 214.759627 
L 223.098563 212.195101 
L 223.471443 209.611606 
L 224.032992 207.005447 
L 224.766128 204.421818 
L 225.681756 201.83922 
L 226.761894 199.294517 
L 228.013486 196.778629 
L 229.410803 194.330093 
L 230.950368 191.956123 
L 232.647022 189.643428 
L 234.451427 187.441962 
L 236.379029 185.342069 
L 238.4073 183.362333 
L 240.536126 181.506355 
L 242.728824 179.798048 
L 245.002014 178.231446 
L 247.317968 176.825098 
L 249.678593 175.581492 
L 252.069968 174.505588 
L 255.389523 173.308139 
L 255.389523 173.308139 
" style="fill:none;stroke:#ffffff;stroke-linecap:square;"/>
   </g>
   <g id="patch_3">
    <path d="M 57.6 307.584 
L 57.6 41.472 
" style="fill:none;stroke:#000000;stroke-linecap:square;stroke-linejoin:miter;stroke-width:0.8;"/>
   </g>
   <g id="patch_4">
    <path d="M 414.72 307.584 
L 414.72 41.472 
" style="fill:none;stroke:#000000;stroke-linecap:square;stroke-linejoin:miter;stroke-width:0.8;"/>
   </g>
   <g id="patch_5">
    <path d="M 57.6 307.584 
L 414.72 307.584 
" style="fill:none;stroke:#000000;stroke-linecap:square;stroke-linejoin:miter;stroke-width:0.8;"/>
   </g>
   <g id="patch_6">
    <path d="M 57.6 41.472 
L 414.72 41.472 
" style="fill:none;stroke:#000000;stroke-linecap:square;stroke-linejoin:miter;stroke-width:0.8;"/>
   </g>
  </g>
 </g>
 <defs>
  <clipPath id="pbe8f5784f5">
   <rect height="266.112" width="357.12" x="57.6" y="41.472"/>
  </clipPath>
 </defs>
</svg>
