<?xml version="1.0" encoding="utf-8" standalone="no"?>
<!DOCTYPE svg PUBLIC "-//W3C//DTD SVG 1.1//EN"
  "http://www.w3.org/Graphics/SVG/1.1/DTD/svg11.dtd">
<!-- Created with matplotlib (https://matplotlib.org/) -->
<svg height="345.6pt" version="1.1" viewBox="0 0 460.8 345.6" width="460.8pt" xmlns="http://www.w3.org/2000/svg" xmlns:xlink="http://www.w3.org/1999/xlink">
 <metadata>
  <rdf:RDF xmlns:cc="http://creativecommons.org/ns#" xmlns:dc="http://purl.org/dc/elements/1.1/" xmlns:rdf="http://www.w3.org/1999/02/22-rdf-syntax-ns#">
   <cc:Work>
    <dc:type rdf:resource="http://purl.org/dc/dcmitype/StillImage"/>
    <dc:date>2021-01-23T12:25:37.696167</dc:date>
    <dc:format>image/svg+xml</dc:format>
    <dc:creator>
     <cc:Agent>
      <dc:title>Matplotlib v3.3.3, https://matplotlib.org/</dc:title>
     </cc:Agent>
    </dc:creator>
   </cc:Work>
  </rdf:RDF>
 </metadata>
 <defs>
  <style type="text/css">*{stroke-linecap:butt;stroke-linejoin:round;}</style>
 </defs>
 <g id="figure_1">
  <g id="patch_1">
   <path d="M 0 345.6 
L 460.8 345.6 
L 460.8 0 
L 0 0 
z
" style="fill:#ffffff;"/>
  </g>
  <g id="axes_1">
   <g id="patch_2">
    <path d="M 57.6 307.584 
L 414.72 307.584 
L 414.72 41.472 
L 57.6 41.472 
z
" style="fill:#7d9051;"/>
   </g>
   <g id="matplotlib.axis_1">
    <g id="xtick_1">
     <g id="line2d_1">
      <defs>
       <path d="M 0 0 
L 0 3.5 
" id="m5200e60085" style="stroke:#000000;stroke-width:0.8;"/>
      </defs>
      <g>
       <use style="stroke:#000000;stroke-width:0.8;" x="112.740587" xlink:href="#m5200e60085" y="307.584"/>
      </g>
     </g>
     <g id="text_1">
      <!-- 20 -->
      <g transform="translate(106.378087 322.182437)scale(0.1 -0.1)">
       <defs>
        <path d="M 19.1875 8.296875 
L 53.609375 8.296875 
L 53.609375 0 
L 7.328125 0 
L 7.328125 8.296875 
Q 12.9375 14.109375 22.625 23.890625 
Q 32.328125 33.6875 34.8125 36.53125 
Q 39.546875 41.84375 41.421875 45.53125 
Q 43.3125 49.21875 43.3125 52.78125 
Q 43.3125 58.59375 39.234375 62.25 
Q 35.15625 65.921875 28.609375 65.921875 
Q 23.96875 65.921875 18.8125 64.3125 
Q 13.671875 62.703125 7.8125 59.421875 
L 7.8125 69.390625 
Q 13.765625 71.78125 18.9375 73 
Q 24.125 74.21875 28.421875 74.21875 
Q 39.75 74.21875 46.484375 68.546875 
Q 53.21875 62.890625 53.21875 53.421875 
Q 53.21875 48.921875 51.53125 44.890625 
Q 49.859375 40.875 45.40625 35.40625 
Q 44.1875 33.984375 37.640625 27.21875 
Q 31.109375 20.453125 19.1875 8.296875 
z
" id="DejaVuSans-50"/>
        <path d="M 31.78125 66.40625 
Q 24.171875 66.40625 20.328125 58.90625 
Q 16.5 51.421875 16.5 36.375 
Q 16.5 21.390625 20.328125 13.890625 
Q 24.171875 6.390625 31.78125 6.390625 
Q 39.453125 6.390625 43.28125 13.890625 
Q 47.125 21.390625 47.125 36.375 
Q 47.125 51.421875 43.28125 58.90625 
Q 39.453125 66.40625 31.78125 66.40625 
z
M 31.78125 74.21875 
Q 44.046875 74.21875 50.515625 64.515625 
Q 56.984375 54.828125 56.984375 36.375 
Q 56.984375 17.96875 50.515625 8.265625 
Q 44.046875 -1.421875 31.78125 -1.421875 
Q 19.53125 -1.421875 13.0625 8.265625 
Q 6.59375 17.96875 6.59375 36.375 
Q 6.59375 54.828125 13.0625 64.515625 
Q 19.53125 74.21875 31.78125 74.21875 
z
" id="DejaVuSans-48"/>
       </defs>
       <use xlink:href="#DejaVuSans-50"/>
       <use x="63.623047" xlink:href="#DejaVuSans-48"/>
      </g>
     </g>
    </g>
    <g id="xtick_2">
     <g id="line2d_2">
      <g>
       <use style="stroke:#000000;stroke-width:0.8;" x="168.004796" xlink:href="#m5200e60085" y="307.584"/>
      </g>
     </g>
     <g id="text_2">
      <!-- 40 -->
      <g transform="translate(161.642296 322.182437)scale(0.1 -0.1)">
       <defs>
        <path d="M 37.796875 64.3125 
L 12.890625 25.390625 
L 37.796875 25.390625 
z
M 35.203125 72.90625 
L 47.609375 72.90625 
L 47.609375 25.390625 
L 58.015625 25.390625 
L 58.015625 17.1875 
L 47.609375 17.1875 
L 47.609375 0 
L 37.796875 0 
L 37.796875 17.1875 
L 4.890625 17.1875 
L 4.890625 26.703125 
z
" id="DejaVuSans-52"/>
       </defs>
       <use xlink:href="#DejaVuSans-52"/>
       <use x="63.623047" xlink:href="#DejaVuSans-48"/>
      </g>
     </g>
    </g>
    <g id="xtick_3">
     <g id="line2d_3">
      <g>
       <use style="stroke:#000000;stroke-width:0.8;" x="223.269005" xlink:href="#m5200e60085" y="307.584"/>
      </g>
     </g>
     <g id="text_3">
      <!-- 60 -->
      <g transform="translate(216.906505 322.182437)scale(0.1 -0.1)">
       <defs>
        <path d="M 33.015625 40.375 
Q 26.375 40.375 22.484375 35.828125 
Q 18.609375 31.296875 18.609375 23.390625 
Q 18.609375 15.53125 22.484375 10.953125 
Q 26.375 6.390625 33.015625 6.390625 
Q 39.65625 6.390625 43.53125 10.953125 
Q 47.40625 15.53125 47.40625 23.390625 
Q 47.40625 31.296875 43.53125 35.828125 
Q 39.65625 40.375 33.015625 40.375 
z
M 52.59375 71.296875 
L 52.59375 62.3125 
Q 48.875 64.0625 45.09375 64.984375 
Q 41.3125 65.921875 37.59375 65.921875 
Q 27.828125 65.921875 22.671875 59.328125 
Q 17.53125 52.734375 16.796875 39.40625 
Q 19.671875 43.65625 24.015625 45.921875 
Q 28.375 48.1875 33.59375 48.1875 
Q 44.578125 48.1875 50.953125 41.515625 
Q 57.328125 34.859375 57.328125 23.390625 
Q 57.328125 12.15625 50.6875 5.359375 
Q 44.046875 -1.421875 33.015625 -1.421875 
Q 20.359375 -1.421875 13.671875 8.265625 
Q 6.984375 17.96875 6.984375 36.375 
Q 6.984375 53.65625 15.1875 63.9375 
Q 23.390625 74.21875 37.203125 74.21875 
Q 40.921875 74.21875 44.703125 73.484375 
Q 48.484375 72.75 52.59375 71.296875 
z
" id="DejaVuSans-54"/>
       </defs>
       <use xlink:href="#DejaVuSans-54"/>
       <use x="63.623047" xlink:href="#DejaVuSans-48"/>
      </g>
     </g>
    </g>
    <g id="xtick_4">
     <g id="line2d_4">
      <g>
       <use style="stroke:#000000;stroke-width:0.8;" x="278.533214" xlink:href="#m5200e60085" y="307.584"/>
      </g>
     </g>
     <g id="text_4">
      <!-- 80 -->
      <g transform="translate(272.170714 322.182437)scale(0.1 -0.1)">
       <defs>
        <path d="M 31.78125 34.625 
Q 24.75 34.625 20.71875 30.859375 
Q 16.703125 27.09375 16.703125 20.515625 
Q 16.703125 13.921875 20.71875 10.15625 
Q 24.75 6.390625 31.78125 6.390625 
Q 38.8125 6.390625 42.859375 10.171875 
Q 46.921875 13.96875 46.921875 20.515625 
Q 46.921875 27.09375 42.890625 30.859375 
Q 38.875 34.625 31.78125 34.625 
z
M 21.921875 38.8125 
Q 15.578125 40.375 12.03125 44.71875 
Q 8.5 49.078125 8.5 55.328125 
Q 8.5 64.0625 14.71875 69.140625 
Q 20.953125 74.21875 31.78125 74.21875 
Q 42.671875 74.21875 48.875 69.140625 
Q 55.078125 64.0625 55.078125 55.328125 
Q 55.078125 49.078125 51.53125 44.71875 
Q 48 40.375 41.703125 38.8125 
Q 48.828125 37.15625 52.796875 32.3125 
Q 56.78125 27.484375 56.78125 20.515625 
Q 56.78125 9.90625 50.3125 4.234375 
Q 43.84375 -1.421875 31.78125 -1.421875 
Q 19.734375 -1.421875 13.25 4.234375 
Q 6.78125 9.90625 6.78125 20.515625 
Q 6.78125 27.484375 10.78125 32.3125 
Q 14.796875 37.15625 21.921875 38.8125 
z
M 18.3125 54.390625 
Q 18.3125 48.734375 21.84375 45.5625 
Q 25.390625 42.390625 31.78125 42.390625 
Q 38.140625 42.390625 41.71875 45.5625 
Q 45.3125 48.734375 45.3125 54.390625 
Q 45.3125 60.0625 41.71875 63.234375 
Q 38.140625 66.40625 31.78125 66.40625 
Q 25.390625 66.40625 21.84375 63.234375 
Q 18.3125 60.0625 18.3125 54.390625 
z
" id="DejaVuSans-56"/>
       </defs>
       <use xlink:href="#DejaVuSans-56"/>
       <use x="63.623047" xlink:href="#DejaVuSans-48"/>
      </g>
     </g>
    </g>
    <g id="xtick_5">
     <g id="line2d_5">
      <g>
       <use style="stroke:#000000;stroke-width:0.8;" x="333.797423" xlink:href="#m5200e60085" y="307.584"/>
      </g>
     </g>
     <g id="text_5">
      <!-- 100 -->
      <g transform="translate(324.253673 322.182437)scale(0.1 -0.1)">
       <defs>
        <path d="M 12.40625 8.296875 
L 28.515625 8.296875 
L 28.515625 63.921875 
L 10.984375 60.40625 
L 10.984375 69.390625 
L 28.421875 72.90625 
L 38.28125 72.90625 
L 38.28125 8.296875 
L 54.390625 8.296875 
L 54.390625 0 
L 12.40625 0 
z
" id="DejaVuSans-49"/>
       </defs>
       <use xlink:href="#DejaVuSans-49"/>
       <use x="63.623047" xlink:href="#DejaVuSans-48"/>
       <use x="127.246094" xlink:href="#DejaVuSans-48"/>
      </g>
     </g>
    </g>
    <g id="xtick_6">
     <g id="line2d_6">
      <g>
       <use style="stroke:#000000;stroke-width:0.8;" x="389.061632" xlink:href="#m5200e60085" y="307.584"/>
      </g>
     </g>
     <g id="text_6">
      <!-- 120 -->
      <g transform="translate(379.517882 322.182437)scale(0.1 -0.1)">
       <use xlink:href="#DejaVuSans-49"/>
       <use x="63.623047" xlink:href="#DejaVuSans-50"/>
       <use x="127.246094" xlink:href="#DejaVuSans-48"/>
      </g>
     </g>
    </g>
   </g>
   <g id="matplotlib.axis_2">
    <g id="ytick_1">
     <g id="line2d_7">
      <defs>
       <path d="M 0 0 
L -3.5 0 
" id="m8bf99e098c" style="stroke:#000000;stroke-width:0.8;"/>
      </defs>
      <g>
       <use style="stroke:#000000;stroke-width:0.8;" x="57.6" xlink:href="#m8bf99e098c" y="298.064252"/>
      </g>
     </g>
     <g id="text_7">
      <!-- 0 -->
      <g transform="translate(44.2375 301.86347)scale(0.1 -0.1)">
       <use xlink:href="#DejaVuSans-48"/>
      </g>
     </g>
    </g>
    <g id="ytick_2">
     <g id="line2d_8">
      <g>
       <use style="stroke:#000000;stroke-width:0.8;" x="57.6" xlink:href="#m8bf99e098c" y="242.800043"/>
      </g>
     </g>
     <g id="text_8">
      <!-- 20 -->
      <g transform="translate(37.875 246.599261)scale(0.1 -0.1)">
       <use xlink:href="#DejaVuSans-50"/>
       <use x="63.623047" xlink:href="#DejaVuSans-48"/>
      </g>
     </g>
    </g>
    <g id="ytick_3">
     <g id="line2d_9">
      <g>
       <use style="stroke:#000000;stroke-width:0.8;" x="57.6" xlink:href="#m8bf99e098c" y="187.535834"/>
      </g>
     </g>
     <g id="text_9">
      <!-- 40 -->
      <g transform="translate(37.875 191.335052)scale(0.1 -0.1)">
       <use xlink:href="#DejaVuSans-52"/>
       <use x="63.623047" xlink:href="#DejaVuSans-48"/>
      </g>
     </g>
    </g>
    <g id="ytick_4">
     <g id="line2d_10">
      <g>
       <use style="stroke:#000000;stroke-width:0.8;" x="57.6" xlink:href="#m8bf99e098c" y="132.271625"/>
      </g>
     </g>
     <g id="text_10">
      <!-- 60 -->
      <g transform="translate(37.875 136.070843)scale(0.1 -0.1)">
       <use xlink:href="#DejaVuSans-54"/>
       <use x="63.623047" xlink:href="#DejaVuSans-48"/>
      </g>
     </g>
    </g>
    <g id="ytick_5">
     <g id="line2d_11">
      <g>
       <use style="stroke:#000000;stroke-width:0.8;" x="57.6" xlink:href="#m8bf99e098c" y="77.007416"/>
      </g>
     </g>
     <g id="text_11">
      <!-- 80 -->
      <g transform="translate(37.875 80.806634)scale(0.1 -0.1)">
       <use xlink:href="#DejaVuSans-56"/>
       <use x="63.623047" xlink:href="#DejaVuSans-48"/>
      </g>
     </g>
    </g>
   </g>
   <g id="line2d_12">
    <path clip-path="url(#pc56e5282ee)" d="M 85.108483 169.563913 
L 85.431778 166.872546 
L 85.763364 161.406916 
L 85.766127 155.858389 
L 85.417962 147.427834 
L 84.917821 136.126303 
L 84.920584 130.505933 
L 85.246643 124.943591 
L 85.569939 122.191433 
L 86.020342 119.461381 
L 86.608906 116.758961 
L 87.354973 114.086937 
L 88.266832 111.450834 
L 89.341721 108.858943 
L 90.57135 106.322315 
L 91.950192 103.857532 
L 93.472721 101.470118 
L 95.130647 99.176653 
L 96.921207 96.985427 
L 98.836112 94.907493 
L 100.869835 92.953903 
L 103.01685 91.138474 
L 105.268866 89.466732 
L 107.614832 87.938676 
L 110.04922 86.546018 
L 112.558215 85.288757 
L 115.130764 84.164131 
L 117.758577 83.166612 
L 120.433365 82.290674 
L 123.144074 81.533554 
L 125.879653 80.89249 
L 131.389494 79.941945 
L 136.926968 79.372724 
L 142.478258 79.090876 
L 150.825917 79.019033 
L 170.265102 79.253906 
L 178.598945 79.508121 
L 186.954893 79.986157 
L 192.525526 80.491824 
L 198.060236 81.218548 
L 203.531393 82.22712 
L 208.911364 83.572804 
L 214.16699 85.313626 
L 219.298272 87.438535 
L 224.299683 89.895029 
L 229.176749 92.627844 
L 233.932234 95.592769 
L 238.566138 98.734539 
L 243.050829 102.064208 
L 247.344858 105.609407 
L 251.412304 109.403295 
L 255.208955 113.47903 
L 256.993989 115.631571 
L 258.693363 117.864245 
L 260.304315 120.166 
L 261.818554 122.536834 
L 263.230555 124.968459 
L 264.53479 127.458112 
L 265.72297 129.997502 
L 266.786806 132.586631 
L 267.723535 135.214444 
L 268.524866 137.878179 
L 269.188036 140.575072 
L 269.713046 143.296834 
L 270.401086 148.803913 
L 270.68846 154.371782 
L 270.68017 159.972809 
L 270.326479 168.36468 
L 269.270933 187.781759 
L 269.171457 193.335812 
L 269.270933 198.911971 
L 269.632913 204.485367 
L 270.326479 210.02284 
L 270.821094 212.769471 
L 271.426237 215.491234 
L 272.150198 218.19089 
L 273.001267 220.857388 
L 273.98497 223.490728 
L 275.109596 226.079856 
L 276.364094 228.61372 
L 277.748462 231.081267 
L 279.257175 233.471444 
L 280.890233 235.773198 
L 282.642108 237.975477 
L 284.507275 240.069991 
L 286.485734 242.04016 
L 288.574721 243.877695 
L 290.765947 245.574306 
L 293.053885 247.132757 
L 295.430246 248.561336 
L 297.87845 249.876625 
L 302.962758 252.203248 
L 308.226674 254.198286 
L 313.581775 255.947398 
L 318.961746 257.527954 
L 324.35277 258.953771 
L 329.757609 260.227611 
L 335.184555 261.341185 
L 340.641895 262.294492 
L 348.879026 263.438461 
L 359.934631 264.651511 
L 373.761736 266.190619 
L 382.009919 267.409195 
L 387.472786 268.439872 
L 392.894205 269.699896 
L 395.588335 270.432147 
L 395.588335 270.432147 
" style="fill:none;stroke:#fea952;stroke-linecap:square;"/>
   </g>
   <g id="line2d_13">
    <path clip-path="url(#pc56e5282ee)" d="M 74.134532 168.245687 
L 74.602031 163.675853 
L 74.744338 158.764314 
L 74.637472 153.52571 
L 73.832727 133.16904 
L 74.013461 126.869057 
L 74.269281 123.654081 
L 74.664514 120.392259 
L 75.220664 117.109304 
L 75.963247 113.786544 
L 76.90941 110.473692 
L 78.057139 107.21675 
L 79.395831 104.037678 
L 80.925282 100.926141 
L 82.631113 97.914462 
L 84.515258 94.994844 
L 86.571893 92.182867 
L 88.793328 89.495241 
L 91.179188 86.936494 
L 93.73326 84.513844 
L 96.428782 82.26364 
L 99.23638 80.205283 
L 102.126396 78.344804 
L 105.097535 76.664413 
L 108.130882 75.161367 
L 111.208207 73.830745 
L 114.318752 72.662664 
L 117.460031 71.645271 
L 120.622234 70.772252 
L 123.798012 70.037441 
L 126.956905 69.439516 
L 133.189438 68.605341 
L 139.261665 68.157307 
L 145.173006 67.980356 
L 153.726555 67.988957 
L 173.371917 68.272302 
L 182.005513 68.602779 
L 187.861036 68.970521 
L 193.838536 69.517248 
L 199.904002 70.320574 
L 206.030396 71.460491 
L 212.187417 73.016631 
L 215.229171 73.968923 
L 218.22823 75.033955 
L 224.02937 77.44944 
L 229.580864 80.185527 
L 234.922603 83.185891 
L 240.050658 86.387868 
L 245.055409 89.787212 
L 249.970184 93.445169 
L 254.749722 97.40372 
L 259.358437 101.720569 
L 261.572403 104.021403 
L 263.716968 106.423605 
L 265.789017 108.937336 
L 267.748715 111.526586 
L 269.619324 114.216553 
L 271.376777 116.986548 
L 273.021298 119.839458 
L 274.545953 122.77389 
L 275.946452 125.796819 
L 277.197958 128.8754 
L 278.307817 132.030376 
L 279.257968 135.238891 
L 280.040818 138.481642 
L 280.651472 141.710597 
L 281.103361 144.886499 
L 281.428763 148.058503 
L 281.740763 154.262677 
L 281.728178 160.299674 
L 281.361069 168.999606 
L 280.32035 188.056894 
L 280.223951 193.248094 
L 280.309126 198.343105 
L 280.621188 203.292416 
L 281.204349 208.063948 
L 282.101878 212.62837 
L 283.355268 216.989577 
L 284.122747 219.087232 
L 285.014926 221.1758 
L 286.003528 223.205706 
L 287.095058 225.181566 
L 288.27167 227.075806 
L 289.540078 228.892393 
L 290.896493 230.624937 
L 292.30639 232.238061 
L 293.785817 233.741118 
L 295.341419 235.138295 
L 296.988311 236.439346 
L 298.748622 237.659886 
L 300.661219 238.824693 
L 304.79684 240.949295 
L 309.347027 242.846772 
L 314.240554 244.560803 
L 319.314032 246.131507 
L 326.968772 248.21497 
L 332.060706 249.417382 
L 337.16951 250.468041 
L 342.296037 251.366129 
L 350.175553 252.461926 
L 361.07683 253.657845 
L 375.234035 255.236275 
L 381.039504 256.054232 
L 386.89835 257.057133 
L 392.810333 258.301983 
L 398.487273 259.766245 
L 398.487273 259.766245 
" style="fill:none;stroke:#ffffff;stroke-linecap:square;"/>
   </g>
   <g id="line2d_14">
    <path clip-path="url(#pc56e5282ee)" d="M 96.082433 170.882139 
L 96.450934 167.734817 
L 96.81541 161.53954 
L 96.813797 155.520306 
L 96.454864 146.834452 
L 95.969897 135.996151 
L 95.964331 130.954244 
L 96.224005 126.2331 
L 96.82002 121.813458 
L 97.254564 119.731379 
L 97.800535 117.700182 
L 98.476526 115.684918 
L 99.287611 113.680207 
L 100.217417 111.71849 
L 101.269271 109.800602 
L 102.430183 107.945392 
L 103.689401 106.170439 
L 105.049086 104.475614 
L 106.493036 102.878492 
L 108.00641 101.393963 
L 109.604917 100.013308 
L 111.301352 98.72818 
L 113.103267 97.532549 
L 115.000906 96.427623 
L 116.985549 95.416147 
L 119.053322 94.497516 
L 123.406699 92.936077 
L 127.961294 91.747538 
L 132.683467 90.918782 
L 137.608217 90.404551 
L 142.708704 90.141316 
L 150.738024 90.071525 
L 170.001229 90.303597 
L 178.083634 90.548944 
L 186.048751 91.001792 
L 191.212516 91.4664 
L 196.21647 92.116522 
L 201.03239 92.993749 
L 205.63531 94.128977 
L 210.105749 95.593297 
L 214.567173 97.42763 
L 219.018501 99.604531 
L 223.430895 102.069797 
L 227.813811 104.79767 
L 232.076867 107.681867 
L 236.131473 110.683247 
L 239.939993 113.815094 
L 243.46617 117.086021 
L 246.700942 120.534456 
L 249.638012 124.201904 
L 252.260331 128.087121 
L 254.523627 132.142334 
L 256.375655 136.297861 
L 257.791764 140.517466 
L 258.335255 142.668502 
L 258.77462 144.883071 
L 259.373408 149.549322 
L 259.636156 154.480887 
L 259.632162 159.645945 
L 259.291889 167.729753 
L 258.221516 187.506625 
L 258.118963 193.423531 
L 258.23274 199.480837 
L 258.644639 205.678317 
L 259.448609 211.981732 
L 260.03171 215.168329 
L 260.750595 218.354098 
L 261.620674 221.551609 
L 262.647265 224.7252 
L 263.847192 227.894224 
L 265.204267 230.983912 
L 266.72466 234.021734 
L 268.401867 236.980968 
L 270.24268 239.867082 
L 272.240387 242.654004 
L 274.387723 245.326018 
L 276.708161 247.901921 
L 279.185651 250.339202 
L 281.808023 252.617095 
L 284.543583 254.709266 
L 287.359148 256.605627 
L 290.199273 258.29798 
L 293.084871 259.835887 
L 295.989104 261.224527 
L 301.806483 263.626605 
L 307.556842 265.631855 
L 313.226727 267.38253 
L 318.902971 268.964729 
L 324.59765 270.388213 
L 330.328263 271.648806 
L 336.090217 272.740721 
L 341.860316 273.656812 
L 350.418891 274.74976 
L 374.913592 277.496862 
L 380.064651 278.289509 
L 385.090204 279.232861 
L 389.995267 280.365799 
L 392.689398 281.098049 
L 392.689398 281.098049 
" style="fill:none;stroke:#ffffff;stroke-linecap:square;"/>
   </g>
   <g id="patch_3">
    <path d="M 57.6 307.584 
L 57.6 41.472 
" style="fill:none;stroke:#000000;stroke-linecap:square;stroke-linejoin:miter;stroke-width:0.8;"/>
   </g>
   <g id="patch_4">
    <path d="M 414.72 307.584 
L 414.72 41.472 
" style="fill:none;stroke:#000000;stroke-linecap:square;stroke-linejoin:miter;stroke-width:0.8;"/>
   </g>
   <g id="patch_5">
    <path d="M 57.6 307.584 
L 414.72 307.584 
" style="fill:none;stroke:#000000;stroke-linecap:square;stroke-linejoin:miter;stroke-width:0.8;"/>
   </g>
   <g id="patch_6">
    <path d="M 57.6 41.472 
L 414.72 41.472 
" style="fill:none;stroke:#000000;stroke-linecap:square;stroke-linejoin:miter;stroke-width:0.8;"/>
   </g>
  </g>
 </g>
 <defs>
  <clipPath id="pc56e5282ee">
   <rect height="266.112" width="357.12" x="57.6" y="41.472"/>
  </clipPath>
 </defs>
</svg>
