<?xml version="1.0" encoding="utf-8" standalone="no"?>
<!DOCTYPE svg PUBLIC "-//W3C//DTD SVG 1.1//EN"
  "http://www.w3.org/Graphics/SVG/1.1/DTD/svg11.dtd">
<!-- Created with matplotlib (https://matplotlib.org/) -->
<svg height="345.6pt" version="1.1" viewBox="0 0 460.8 345.6" width="460.8pt" xmlns="http://www.w3.org/2000/svg" xmlns:xlink="http://www.w3.org/1999/xlink">
 <metadata>
  <rdf:RDF xmlns:cc="http://creativecommons.org/ns#" xmlns:dc="http://purl.org/dc/elements/1.1/" xmlns:rdf="http://www.w3.org/1999/02/22-rdf-syntax-ns#">
   <cc:Work>
    <dc:type rdf:resource="http://purl.org/dc/dcmitype/StillImage"/>
    <dc:date>2021-01-25T12:28:50.923042</dc:date>
    <dc:format>image/svg+xml</dc:format>
    <dc:creator>
     <cc:Agent>
      <dc:title>Matplotlib v3.3.3, https://matplotlib.org/</dc:title>
     </cc:Agent>
    </dc:creator>
   </cc:Work>
  </rdf:RDF>
 </metadata>
 <defs>
  <style type="text/css">*{stroke-linecap:butt;stroke-linejoin:round;}</style>
 </defs>
 <g id="figure_1">
  <g id="patch_1">
   <path d="M 0 345.6 
L 460.8 345.6 
L 460.8 0 
L 0 0 
z
" style="fill:#ffffff;"/>
  </g>
  <g id="axes_1">
   <g id="patch_2">
    <path d="M 57.6 307.584 
L 414.72 307.584 
L 414.72 41.472 
L 57.6 41.472 
z
" style="fill:#7d9051;"/>
   </g>
   <g id="matplotlib.axis_1">
    <g id="xtick_1">
     <g id="line2d_1">
      <defs>
       <path d="M 0 0 
L 0 3.5 
" id="md30836f9c9" style="stroke:#000000;stroke-width:0.8;"/>
      </defs>
      <g>
       <use style="stroke:#000000;stroke-width:0.8;" x="86.423372" xlink:href="#md30836f9c9" y="307.584"/>
      </g>
     </g>
     <g id="text_1">
      <!-- 10 -->
      <g transform="translate(80.060872 322.182437)scale(0.1 -0.1)">
       <defs>
        <path d="M 12.40625 8.296875 
L 28.515625 8.296875 
L 28.515625 63.921875 
L 10.984375 60.40625 
L 10.984375 69.390625 
L 28.421875 72.90625 
L 38.28125 72.90625 
L 38.28125 8.296875 
L 54.390625 8.296875 
L 54.390625 0 
L 12.40625 0 
z
" id="DejaVuSans-49"/>
        <path d="M 31.78125 66.40625 
Q 24.171875 66.40625 20.328125 58.90625 
Q 16.5 51.421875 16.5 36.375 
Q 16.5 21.390625 20.328125 13.890625 
Q 24.171875 6.390625 31.78125 6.390625 
Q 39.453125 6.390625 43.28125 13.890625 
Q 47.125 21.390625 47.125 36.375 
Q 47.125 51.421875 43.28125 58.90625 
Q 39.453125 66.40625 31.78125 66.40625 
z
M 31.78125 74.21875 
Q 44.046875 74.21875 50.515625 64.515625 
Q 56.984375 54.828125 56.984375 36.375 
Q 56.984375 17.96875 50.515625 8.265625 
Q 44.046875 -1.421875 31.78125 -1.421875 
Q 19.53125 -1.421875 13.0625 8.265625 
Q 6.59375 17.96875 6.59375 36.375 
Q 6.59375 54.828125 13.0625 64.515625 
Q 19.53125 74.21875 31.78125 74.21875 
z
" id="DejaVuSans-48"/>
       </defs>
       <use xlink:href="#DejaVuSans-49"/>
       <use x="63.623047" xlink:href="#DejaVuSans-48"/>
      </g>
     </g>
    </g>
    <g id="xtick_2">
     <g id="line2d_2">
      <g>
       <use style="stroke:#000000;stroke-width:0.8;" x="126.820346" xlink:href="#md30836f9c9" y="307.584"/>
      </g>
     </g>
     <g id="text_2">
      <!-- 20 -->
      <g transform="translate(120.457846 322.182437)scale(0.1 -0.1)">
       <defs>
        <path d="M 19.1875 8.296875 
L 53.609375 8.296875 
L 53.609375 0 
L 7.328125 0 
L 7.328125 8.296875 
Q 12.9375 14.109375 22.625 23.890625 
Q 32.328125 33.6875 34.8125 36.53125 
Q 39.546875 41.84375 41.421875 45.53125 
Q 43.3125 49.21875 43.3125 52.78125 
Q 43.3125 58.59375 39.234375 62.25 
Q 35.15625 65.921875 28.609375 65.921875 
Q 23.96875 65.921875 18.8125 64.3125 
Q 13.671875 62.703125 7.8125 59.421875 
L 7.8125 69.390625 
Q 13.765625 71.78125 18.9375 73 
Q 24.125 74.21875 28.421875 74.21875 
Q 39.75 74.21875 46.484375 68.546875 
Q 53.21875 62.890625 53.21875 53.421875 
Q 53.21875 48.921875 51.53125 44.890625 
Q 49.859375 40.875 45.40625 35.40625 
Q 44.1875 33.984375 37.640625 27.21875 
Q 31.109375 20.453125 19.1875 8.296875 
z
" id="DejaVuSans-50"/>
       </defs>
       <use xlink:href="#DejaVuSans-50"/>
       <use x="63.623047" xlink:href="#DejaVuSans-48"/>
      </g>
     </g>
    </g>
    <g id="xtick_3">
     <g id="line2d_3">
      <g>
       <use style="stroke:#000000;stroke-width:0.8;" x="167.21732" xlink:href="#md30836f9c9" y="307.584"/>
      </g>
     </g>
     <g id="text_3">
      <!-- 30 -->
      <g transform="translate(160.85482 322.182437)scale(0.1 -0.1)">
       <defs>
        <path d="M 40.578125 39.3125 
Q 47.65625 37.796875 51.625 33 
Q 55.609375 28.21875 55.609375 21.1875 
Q 55.609375 10.40625 48.1875 4.484375 
Q 40.765625 -1.421875 27.09375 -1.421875 
Q 22.515625 -1.421875 17.65625 -0.515625 
Q 12.796875 0.390625 7.625 2.203125 
L 7.625 11.71875 
Q 11.71875 9.328125 16.59375 8.109375 
Q 21.484375 6.890625 26.8125 6.890625 
Q 36.078125 6.890625 40.9375 10.546875 
Q 45.796875 14.203125 45.796875 21.1875 
Q 45.796875 27.640625 41.28125 31.265625 
Q 36.765625 34.90625 28.71875 34.90625 
L 20.21875 34.90625 
L 20.21875 43.015625 
L 29.109375 43.015625 
Q 36.375 43.015625 40.234375 45.921875 
Q 44.09375 48.828125 44.09375 54.296875 
Q 44.09375 59.90625 40.109375 62.90625 
Q 36.140625 65.921875 28.71875 65.921875 
Q 24.65625 65.921875 20.015625 65.03125 
Q 15.375 64.15625 9.8125 62.3125 
L 9.8125 71.09375 
Q 15.4375 72.65625 20.34375 73.4375 
Q 25.25 74.21875 29.59375 74.21875 
Q 40.828125 74.21875 47.359375 69.109375 
Q 53.90625 64.015625 53.90625 55.328125 
Q 53.90625 49.265625 50.4375 45.09375 
Q 46.96875 40.921875 40.578125 39.3125 
z
" id="DejaVuSans-51"/>
       </defs>
       <use xlink:href="#DejaVuSans-51"/>
       <use x="63.623047" xlink:href="#DejaVuSans-48"/>
      </g>
     </g>
    </g>
    <g id="xtick_4">
     <g id="line2d_4">
      <g>
       <use style="stroke:#000000;stroke-width:0.8;" x="207.614293" xlink:href="#md30836f9c9" y="307.584"/>
      </g>
     </g>
     <g id="text_4">
      <!-- 40 -->
      <g transform="translate(201.251793 322.182437)scale(0.1 -0.1)">
       <defs>
        <path d="M 37.796875 64.3125 
L 12.890625 25.390625 
L 37.796875 25.390625 
z
M 35.203125 72.90625 
L 47.609375 72.90625 
L 47.609375 25.390625 
L 58.015625 25.390625 
L 58.015625 17.1875 
L 47.609375 17.1875 
L 47.609375 0 
L 37.796875 0 
L 37.796875 17.1875 
L 4.890625 17.1875 
L 4.890625 26.703125 
z
" id="DejaVuSans-52"/>
       </defs>
       <use xlink:href="#DejaVuSans-52"/>
       <use x="63.623047" xlink:href="#DejaVuSans-48"/>
      </g>
     </g>
    </g>
    <g id="xtick_5">
     <g id="line2d_5">
      <g>
       <use style="stroke:#000000;stroke-width:0.8;" x="248.011267" xlink:href="#md30836f9c9" y="307.584"/>
      </g>
     </g>
     <g id="text_5">
      <!-- 50 -->
      <g transform="translate(241.648767 322.182437)scale(0.1 -0.1)">
       <defs>
        <path d="M 10.796875 72.90625 
L 49.515625 72.90625 
L 49.515625 64.59375 
L 19.828125 64.59375 
L 19.828125 46.734375 
Q 21.96875 47.46875 24.109375 47.828125 
Q 26.265625 48.1875 28.421875 48.1875 
Q 40.625 48.1875 47.75 41.5 
Q 54.890625 34.8125 54.890625 23.390625 
Q 54.890625 11.625 47.5625 5.09375 
Q 40.234375 -1.421875 26.90625 -1.421875 
Q 22.3125 -1.421875 17.546875 -0.640625 
Q 12.796875 0.140625 7.71875 1.703125 
L 7.71875 11.625 
Q 12.109375 9.234375 16.796875 8.0625 
Q 21.484375 6.890625 26.703125 6.890625 
Q 35.15625 6.890625 40.078125 11.328125 
Q 45.015625 15.765625 45.015625 23.390625 
Q 45.015625 31 40.078125 35.4375 
Q 35.15625 39.890625 26.703125 39.890625 
Q 22.75 39.890625 18.8125 39.015625 
Q 14.890625 38.140625 10.796875 36.28125 
z
" id="DejaVuSans-53"/>
       </defs>
       <use xlink:href="#DejaVuSans-53"/>
       <use x="63.623047" xlink:href="#DejaVuSans-48"/>
      </g>
     </g>
    </g>
    <g id="xtick_6">
     <g id="line2d_6">
      <g>
       <use style="stroke:#000000;stroke-width:0.8;" x="288.40824" xlink:href="#md30836f9c9" y="307.584"/>
      </g>
     </g>
     <g id="text_6">
      <!-- 60 -->
      <g transform="translate(282.04574 322.182437)scale(0.1 -0.1)">
       <defs>
        <path d="M 33.015625 40.375 
Q 26.375 40.375 22.484375 35.828125 
Q 18.609375 31.296875 18.609375 23.390625 
Q 18.609375 15.53125 22.484375 10.953125 
Q 26.375 6.390625 33.015625 6.390625 
Q 39.65625 6.390625 43.53125 10.953125 
Q 47.40625 15.53125 47.40625 23.390625 
Q 47.40625 31.296875 43.53125 35.828125 
Q 39.65625 40.375 33.015625 40.375 
z
M 52.59375 71.296875 
L 52.59375 62.3125 
Q 48.875 64.0625 45.09375 64.984375 
Q 41.3125 65.921875 37.59375 65.921875 
Q 27.828125 65.921875 22.671875 59.328125 
Q 17.53125 52.734375 16.796875 39.40625 
Q 19.671875 43.65625 24.015625 45.921875 
Q 28.375 48.1875 33.59375 48.1875 
Q 44.578125 48.1875 50.953125 41.515625 
Q 57.328125 34.859375 57.328125 23.390625 
Q 57.328125 12.15625 50.6875 5.359375 
Q 44.046875 -1.421875 33.015625 -1.421875 
Q 20.359375 -1.421875 13.671875 8.265625 
Q 6.984375 17.96875 6.984375 36.375 
Q 6.984375 53.65625 15.1875 63.9375 
Q 23.390625 74.21875 37.203125 74.21875 
Q 40.921875 74.21875 44.703125 73.484375 
Q 48.484375 72.75 52.59375 71.296875 
z
" id="DejaVuSans-54"/>
       </defs>
       <use xlink:href="#DejaVuSans-54"/>
       <use x="63.623047" xlink:href="#DejaVuSans-48"/>
      </g>
     </g>
    </g>
    <g id="xtick_7">
     <g id="line2d_7">
      <g>
       <use style="stroke:#000000;stroke-width:0.8;" x="328.805214" xlink:href="#md30836f9c9" y="307.584"/>
      </g>
     </g>
     <g id="text_7">
      <!-- 70 -->
      <g transform="translate(322.442714 322.182437)scale(0.1 -0.1)">
       <defs>
        <path d="M 8.203125 72.90625 
L 55.078125 72.90625 
L 55.078125 68.703125 
L 28.609375 0 
L 18.3125 0 
L 43.21875 64.59375 
L 8.203125 64.59375 
z
" id="DejaVuSans-55"/>
       </defs>
       <use xlink:href="#DejaVuSans-55"/>
       <use x="63.623047" xlink:href="#DejaVuSans-48"/>
      </g>
     </g>
    </g>
    <g id="xtick_8">
     <g id="line2d_8">
      <g>
       <use style="stroke:#000000;stroke-width:0.8;" x="369.202188" xlink:href="#md30836f9c9" y="307.584"/>
      </g>
     </g>
     <g id="text_8">
      <!-- 80 -->
      <g transform="translate(362.839688 322.182437)scale(0.1 -0.1)">
       <defs>
        <path d="M 31.78125 34.625 
Q 24.75 34.625 20.71875 30.859375 
Q 16.703125 27.09375 16.703125 20.515625 
Q 16.703125 13.921875 20.71875 10.15625 
Q 24.75 6.390625 31.78125 6.390625 
Q 38.8125 6.390625 42.859375 10.171875 
Q 46.921875 13.96875 46.921875 20.515625 
Q 46.921875 27.09375 42.890625 30.859375 
Q 38.875 34.625 31.78125 34.625 
z
M 21.921875 38.8125 
Q 15.578125 40.375 12.03125 44.71875 
Q 8.5 49.078125 8.5 55.328125 
Q 8.5 64.0625 14.71875 69.140625 
Q 20.953125 74.21875 31.78125 74.21875 
Q 42.671875 74.21875 48.875 69.140625 
Q 55.078125 64.0625 55.078125 55.328125 
Q 55.078125 49.078125 51.53125 44.71875 
Q 48 40.375 41.703125 38.8125 
Q 48.828125 37.15625 52.796875 32.3125 
Q 56.78125 27.484375 56.78125 20.515625 
Q 56.78125 9.90625 50.3125 4.234375 
Q 43.84375 -1.421875 31.78125 -1.421875 
Q 19.734375 -1.421875 13.25 4.234375 
Q 6.78125 9.90625 6.78125 20.515625 
Q 6.78125 27.484375 10.78125 32.3125 
Q 14.796875 37.15625 21.921875 38.8125 
z
M 18.3125 54.390625 
Q 18.3125 48.734375 21.84375 45.5625 
Q 25.390625 42.390625 31.78125 42.390625 
Q 38.140625 42.390625 41.71875 45.5625 
Q 45.3125 48.734375 45.3125 54.390625 
Q 45.3125 60.0625 41.71875 63.234375 
Q 38.140625 66.40625 31.78125 66.40625 
Q 25.390625 66.40625 21.84375 63.234375 
Q 18.3125 60.0625 18.3125 54.390625 
z
" id="DejaVuSans-56"/>
       </defs>
       <use xlink:href="#DejaVuSans-56"/>
       <use x="63.623047" xlink:href="#DejaVuSans-48"/>
      </g>
     </g>
    </g>
    <g id="xtick_9">
     <g id="line2d_9">
      <g>
       <use style="stroke:#000000;stroke-width:0.8;" x="409.599161" xlink:href="#md30836f9c9" y="307.584"/>
      </g>
     </g>
     <g id="text_9">
      <!-- 90 -->
      <g transform="translate(403.236661 322.182437)scale(0.1 -0.1)">
       <defs>
        <path d="M 10.984375 1.515625 
L 10.984375 10.5 
Q 14.703125 8.734375 18.5 7.8125 
Q 22.3125 6.890625 25.984375 6.890625 
Q 35.75 6.890625 40.890625 13.453125 
Q 46.046875 20.015625 46.78125 33.40625 
Q 43.953125 29.203125 39.59375 26.953125 
Q 35.25 24.703125 29.984375 24.703125 
Q 19.046875 24.703125 12.671875 31.3125 
Q 6.296875 37.9375 6.296875 49.421875 
Q 6.296875 60.640625 12.9375 67.421875 
Q 19.578125 74.21875 30.609375 74.21875 
Q 43.265625 74.21875 49.921875 64.515625 
Q 56.59375 54.828125 56.59375 36.375 
Q 56.59375 19.140625 48.40625 8.859375 
Q 40.234375 -1.421875 26.421875 -1.421875 
Q 22.703125 -1.421875 18.890625 -0.6875 
Q 15.09375 0.046875 10.984375 1.515625 
z
M 30.609375 32.421875 
Q 37.25 32.421875 41.125 36.953125 
Q 45.015625 41.5 45.015625 49.421875 
Q 45.015625 57.28125 41.125 61.84375 
Q 37.25 66.40625 30.609375 66.40625 
Q 23.96875 66.40625 20.09375 61.84375 
Q 16.21875 57.28125 16.21875 49.421875 
Q 16.21875 41.5 20.09375 36.953125 
Q 23.96875 32.421875 30.609375 32.421875 
z
" id="DejaVuSans-57"/>
       </defs>
       <use xlink:href="#DejaVuSans-57"/>
       <use x="63.623047" xlink:href="#DejaVuSans-48"/>
      </g>
     </g>
    </g>
   </g>
   <g id="matplotlib.axis_2">
    <g id="ytick_1">
     <g id="line2d_10">
      <defs>
       <path d="M 0 0 
L -3.5 0 
" id="m989072515f" style="stroke:#000000;stroke-width:0.8;"/>
      </defs>
      <g>
       <use style="stroke:#000000;stroke-width:0.8;" x="57.6" xlink:href="#m989072515f" y="279.323815"/>
      </g>
     </g>
     <g id="text_10">
      <!-- 10 -->
      <g transform="translate(37.875 283.123033)scale(0.1 -0.1)">
       <use xlink:href="#DejaVuSans-49"/>
       <use x="63.623047" xlink:href="#DejaVuSans-48"/>
      </g>
     </g>
    </g>
    <g id="ytick_2">
     <g id="line2d_11">
      <g>
       <use style="stroke:#000000;stroke-width:0.8;" x="57.6" xlink:href="#m989072515f" y="238.926841"/>
      </g>
     </g>
     <g id="text_11">
      <!-- 20 -->
      <g transform="translate(37.875 242.72606)scale(0.1 -0.1)">
       <use xlink:href="#DejaVuSans-50"/>
       <use x="63.623047" xlink:href="#DejaVuSans-48"/>
      </g>
     </g>
    </g>
    <g id="ytick_3">
     <g id="line2d_12">
      <g>
       <use style="stroke:#000000;stroke-width:0.8;" x="57.6" xlink:href="#m989072515f" y="198.529867"/>
      </g>
     </g>
     <g id="text_12">
      <!-- 30 -->
      <g transform="translate(37.875 202.329086)scale(0.1 -0.1)">
       <use xlink:href="#DejaVuSans-51"/>
       <use x="63.623047" xlink:href="#DejaVuSans-48"/>
      </g>
     </g>
    </g>
    <g id="ytick_4">
     <g id="line2d_13">
      <g>
       <use style="stroke:#000000;stroke-width:0.8;" x="57.6" xlink:href="#m989072515f" y="158.132894"/>
      </g>
     </g>
     <g id="text_13">
      <!-- 40 -->
      <g transform="translate(37.875 161.932113)scale(0.1 -0.1)">
       <use xlink:href="#DejaVuSans-52"/>
       <use x="63.623047" xlink:href="#DejaVuSans-48"/>
      </g>
     </g>
    </g>
    <g id="ytick_5">
     <g id="line2d_14">
      <g>
       <use style="stroke:#000000;stroke-width:0.8;" x="57.6" xlink:href="#m989072515f" y="117.73592"/>
      </g>
     </g>
     <g id="text_14">
      <!-- 50 -->
      <g transform="translate(37.875 121.535139)scale(0.1 -0.1)">
       <use xlink:href="#DejaVuSans-53"/>
       <use x="63.623047" xlink:href="#DejaVuSans-48"/>
      </g>
     </g>
    </g>
    <g id="ytick_6">
     <g id="line2d_15">
      <g>
       <use style="stroke:#000000;stroke-width:0.8;" x="57.6" xlink:href="#m989072515f" y="77.338947"/>
      </g>
     </g>
     <g id="text_15">
      <!-- 60 -->
      <g transform="translate(37.875 81.138165)scale(0.1 -0.1)">
       <use xlink:href="#DejaVuSans-54"/>
       <use x="63.623047" xlink:href="#DejaVuSans-48"/>
      </g>
     </g>
    </g>
   </g>
   <g id="line2d_16">
    <path clip-path="url(#pb618cd465d)" d="M 246.274197 221.5925 
L 245.151161 217.57704 
L 244.294745 213.525224 
L 243.69687 209.453209 
L 243.353496 205.369075 
L 243.256543 201.280901 
L 243.401972 197.200807 
L 243.785743 193.144951 
L 244.399777 189.117373 
L 245.240034 185.130191 
L 246.306515 181.195526 
L 247.587099 177.325496 
L 249.077747 173.52818 
L 250.77442 169.815699 
L 252.673078 166.200169 
L 254.765641 162.689672 
L 257.05211 159.296327 
L 259.520365 156.028212 
L 262.170406 152.901486 
L 264.994155 149.924229 
L 267.983531 147.10856 
L 271.142574 144.462558 
L 274.447046 142.002382 
L 277.892908 139.732072 
L 281.459961 137.671827 
L 285.140125 135.833764 
L 288.917242 134.221925 
L 292.775153 132.852468 
L 296.705779 131.737511 
L 300.697 130.893215 
L 304.728618 130.323617 
L 308.792553 130.040838 
L 312.872648 130.040838 
L 316.952742 130.307458 
L 321.016677 130.836659 
L 325.048295 131.61632 
L 329.035477 132.634324 
L 332.958023 133.878551 
L 336.807854 135.344961 
L 340.560733 137.021435 
L 344.20858 138.895855 
L 347.731196 140.96014 
L 351.128582 143.206212 
L 354.400736 145.621951 
L 357.539581 148.207357 
L 360.545116 150.946272 
L 363.417341 153.834656 
L 366.148176 156.864429 
L 368.741662 160.023472 
L 371.193758 163.311786 
L 373.500426 166.717251 
L 375.653584 170.227748 
L 377.649195 173.839237 
L 379.471098 177.5396 
L 381.103136 181.316717 
L 382.529149 185.166549 
L 383.745098 189.068896 
L 384.726745 193.02376 
L 385.466009 197.019021 
L 385.946733 201.03852 
L 386.156797 205.078217 
L 386.084083 209.125994 
L 385.736669 213.169731 
L 385.126675 217.193269 
L 384.262179 221.18449 
L 383.155302 225.131275 
L 381.818162 229.017463 
L 380.2548 232.830938 
L 378.485412 236.563618 
L 376.51 240.195306 
L 374.348762 243.709843 
L 372.009777 247.103188 
L 369.497085 250.363224 
L 366.818766 253.481871 
L 363.990978 256.447008 
L 361.013721 259.254598 
L 357.899114 261.892521 
L 354.655237 264.360776 
L 351.28613 266.639165 
L 347.80795 268.731728 
L 344.220699 270.622306 
L 340.536495 272.30686 
L 336.767457 273.789429 
L 332.921666 275.082132 
L 329.007199 276.18497 
L 325.044256 277.11006 
L 321.032836 277.865484 
L 316.989099 278.459319 
L 312.925164 278.891567 
L 308.849109 279.178386 
L 304.773054 279.323815 
L 300.705079 279.335934 
L 296.645183 279.218782 
L 292.597407 278.98044 
L 284.54629 278.172501 
L 276.543649 276.960592 
L 268.605644 275.401268 
L 260.736313 273.547047 
L 252.931618 271.450444 
L 245.179439 269.155896 
L 233.642063 265.431295 
L 218.359888 260.191808 
L 203.077713 254.968479 
L 191.520139 251.300434 
L 183.727563 249.054362 
L 168.089894 244.695529 
L 160.394271 242.223234 
L 156.613114 240.837618 
L 152.884473 239.318692 
L 149.220468 237.650297 
L 145.633217 235.808195 
L 142.12272 233.796425 
L 138.697056 231.627108 
L 135.356227 229.308322 
L 132.11235 226.852186 
L 128.961386 224.2587 
L 125.911414 221.544023 
L 122.966475 218.716235 
L 120.134647 215.779375 
L 117.411891 212.745562 
L 114.810326 209.626916 
L 112.321872 206.419396 
L 109.94653 203.135122 
L 107.688339 199.778134 
L 105.535181 196.344391 
L 103.491094 192.846013 
L 101.552039 189.28704 
L 99.718016 185.671511 
L 96.348909 178.274825 
L 93.379731 170.700392 
L 92.05875 166.8546 
L 90.850881 162.972451 
L 89.768242 159.057985 
L 88.814873 155.11524 
L 87.994815 151.144217 
L 87.320185 147.152996 
L 86.795025 143.145617 
L 86.423372 139.118038 
L 86.213308 135.078341 
L 86.160792 131.034604 
L 86.261785 126.982788 
L 86.520325 122.935011 
L 86.924295 118.899353 
L 87.473694 114.871775 
L 88.164482 110.860355 
L 88.99262 106.873174 
L 89.962147 102.914271 
L 91.060945 98.987685 
L 92.289013 95.097456 
L 93.642312 91.251664 
L 95.120841 87.450309 
L 96.716521 83.70551 
L 98.429353 80.017266 
L 100.255296 76.389618 
L 102.190311 72.830644 
L 104.230358 69.344386 
L 106.375438 65.934881 
L 108.621509 62.60617 
L 108.621509 62.60617 
" style="fill:none;stroke:#fea952;stroke-linecap:square;"/>
   </g>
   <g id="line2d_17">
    <path clip-path="url(#pb618cd465d)" d="M 230.712564 225.944747 
L 229.341662 220.91863 
L 228.307363 215.872578 
L 227.59489 210.806986 
L 227.199248 205.75218 
L 227.108008 200.70531 
L 227.315037 195.678637 
L 227.811534 190.709565 
L 228.588278 185.785263 
L 229.643987 180.902926 
L 230.965768 176.119308 
L 232.545726 171.420957 
L 234.381049 166.811518 
L 236.468284 162.302979 
L 238.793129 157.926506 
L 241.365056 153.660231 
L 244.157666 149.557754 
L 247.193428 145.580575 
L 250.446162 141.781748 
L 253.915029 138.161599 
L 257.607796 134.721042 
L 261.492994 131.501382 
L 265.556904 128.508982 
L 269.81114 125.739521 
L 274.239879 123.215794 
L 278.797895 120.971645 
L 283.511757 118.994082 
L 288.365543 117.306992 
L 293.361578 115.928564 
L 298.436494 114.893321 
L 303.606961 114.203805 
L 308.792553 113.882049 
L 313.926321 113.916439 
L 319.039302 114.283952 
L 324.08473 114.971807 
L 329.045709 115.959783 
L 333.921129 117.231828 
L 338.709817 118.778109 
L 343.398545 120.591342 
L 347.945888 122.649033 
L 352.378343 124.954498 
L 356.642631 127.480793 
L 360.726 130.206365 
L 364.674121 133.14942 
L 368.423534 136.263905 
L 372.003111 139.552378 
L 375.420114 143.016157 
L 378.637294 146.611214 
L 381.695379 150.363882 
L 384.572398 154.249861 
L 387.274695 158.268821 
L 389.79678 162.412604 
L 392.146097 166.70157 
L 394.304431 171.130331 
L 396.255829 175.70402 
L 397.956363 180.359518 
L 399.428 185.176204 
L 400.615817 190.083719 
L 401.510459 195.100137 
L 402.08372 200.199396 
L 402.31298 205.368448 
L 402.183565 210.509166 
L 401.712898 215.59183 
L 400.919254 220.613929 
L 399.820691 225.547881 
L 398.434926 230.388609 
L 396.769335 235.146811 
L 394.856178 239.75237 
L 392.680183 244.284689 
L 390.274483 248.659672 
L 387.653181 252.880389 
L 384.808182 256.967635 
L 381.75566 260.890989 
L 378.512378 264.633817 
L 375.07708 268.203063 
L 371.4571 271.585142 
L 367.683835 274.751981 
L 363.707215 277.746147 
L 359.616307 280.48527 
L 355.341809 283.026743 
L 350.940016 285.317791 
L 346.451477 287.34413 
L 341.915913 289.106083 
L 337.303558 290.635444 
L 332.680476 291.92071 
L 328.034686 292.989727 
L 323.380624 293.852803 
L 318.698138 294.527476 
L 314.0594 295.010499 
L 309.42527 295.3269 
L 304.821194 295.482532 
L 300.239 295.488 
L 295.695363 295.349632 
L 291.194097 295.078179 
L 286.742391 294.684568 
L 282.30401 294.174959 
L 273.589167 292.846986 
L 265.037079 291.161085 
L 256.665373 289.184628 
L 248.426383 286.968477 
L 240.332083 284.570487 
L 228.488608 280.746267 
L 213.05641 275.455477 
L 198.050371 270.325312 
L 186.944976 266.797994 
L 179.450057 264.636705 
L 163.329887 260.137316 
L 154.83439 257.395386 
L 150.516968 255.802359 
L 146.188148 254.024666 
L 141.839057 252.024623 
L 137.598844 249.828014 
L 133.477692 247.448164 
L 129.48346 244.90175 
L 125.602015 242.190939 
L 121.843454 239.328414 
L 118.218134 236.328871 
L 114.719607 233.199491 
L 111.334377 229.93233 
L 108.108797 226.572215 
L 105.003636 223.09649 
L 102.043238 219.531861 
L 99.22865 215.889033 
L 96.538954 212.154178 
L 93.998396 208.362534 
L 91.583406 204.496352 
L 89.301673 200.576912 
L 87.141285 196.597076 
L 85.104902 192.568129 
L 83.190584 188.498052 
L 81.38604 184.375565 
L 79.69114 180.202884 
L 78.097347 175.949699 
L 76.629522 171.655162 
L 75.276772 167.279842 
L 74.06209 162.855784 
L 72.99 158.383245 
L 72.062027 153.83731 
L 71.298387 149.252627 
L 70.704595 144.63039 
L 70.286386 139.957162 
L 70.055881 135.288178 
L 70.00702 130.631968 
L 70.135856 125.952788 
L 70.441888 121.325558 
L 70.913777 116.715371 
L 71.549296 112.129507 
L 72.343346 107.574304 
L 73.297631 103.029503 
L 74.40115 98.559753 
L 75.65172 94.123298 
L 77.046412 89.733726 
L 78.582545 85.394199 
L 80.255331 81.11603 
L 82.061011 76.899446 
L 83.995831 72.752286 
L 86.059111 68.671147 
L 88.243839 64.669615 
L 90.553284 60.739497 
L 92.980739 56.896711 
L 95.226811 53.568 
L 95.226811 53.568 
" style="fill:none;stroke:#ffffff;stroke-linecap:square;"/>
   </g>
   <g id="line2d_18">
    <path clip-path="url(#pb618cd465d)" d="M 261.83583 217.240252 
L 260.96066 214.235451 
L 260.282128 211.17787 
L 259.79885 208.099432 
L 259.507743 204.98597 
L 259.405078 201.856493 
L 259.488907 198.722977 
L 259.759953 195.580337 
L 260.211277 192.449482 
L 260.836082 189.357457 
L 261.647261 186.271744 
L 262.628471 183.230035 
L 263.774444 180.244843 
L 265.080556 177.328418 
L 266.553026 174.473833 
L 268.166225 171.719114 
L 269.946553 169.034899 
L 271.847301 166.475848 
L 273.89465 164.021224 
L 276.07328 161.686858 
L 278.359265 159.496078 
L 280.792154 157.423734 
L 283.337188 155.495783 
L 285.974676 153.724624 
L 288.680043 152.12786 
L 291.482356 150.695884 
L 294.322728 149.449768 
L 297.184764 148.397943 
L 300.049979 147.546458 
L 302.957506 146.893108 
L 305.850275 146.44343 
L 308.792553 146.199628 
L 311.818974 146.165238 
L 314.866182 146.330964 
L 317.948625 146.701511 
L 321.050882 147.272858 
L 324.149824 148.03682 
L 327.206228 148.978992 
L 330.217164 150.09858 
L 333.175578 151.393838 
L 336.038817 152.837212 
L 338.819761 154.439488 
L 341.531163 156.20606 
L 344.127352 158.094483 
L 346.655629 160.15081 
L 349.087121 162.340167 
L 351.414568 164.653155 
L 353.659058 167.117643 
L 355.787945 169.683062 
L 357.815119 172.373711 
L 359.726156 175.165681 
L 361.510388 178.042892 
L 363.152292 180.976904 
L 364.637766 183.948869 
L 365.950443 186.929414 
L 367.101935 189.973579 
L 368.062196 192.961588 
L 368.837672 195.963801 
L 369.42156 198.937905 
L 369.809746 201.877643 
L 370.000615 204.787986 
L 369.984601 207.742821 
L 369.760439 210.747632 
L 369.334095 213.772609 
L 368.703667 216.8211 
L 367.875678 219.87394 
L 366.866989 222.888116 
L 365.653421 225.909505 
L 364.290641 228.842547 
L 362.745517 231.73094 
L 361.044343 234.539297 
L 359.211372 237.238742 
L 357.238511 239.835459 
L 355.125154 242.329924 
L 352.904875 244.690954 
L 350.570342 246.924054 
L 348.114394 249.03306 
L 345.603259 250.975404 
L 342.955953 252.79306 
L 340.274091 254.436713 
L 337.501382 255.926822 
L 334.621514 257.269591 
L 331.619002 258.472775 
L 328.539773 259.528821 
L 325.333922 260.44923 
L 322.053825 261.230394 
L 318.685048 261.878165 
L 315.280061 262.391163 
L 311.790928 262.772635 
L 308.272948 263.029871 
L 304.724915 263.165097 
L 301.171159 263.183867 
L 294.000716 262.882701 
L 286.78857 262.170043 
L 279.498131 261.074198 
L 272.174209 259.641452 
L 264.807254 257.909467 
L 257.436853 255.932412 
L 250.026795 253.741305 
L 238.795519 250.116323 
L 223.663366 244.928139 
L 208.105055 239.611647 
L 200.131395 237.041781 
L 192.009337 234.598017 
L 169.348308 228.179101 
L 162.70926 225.872877 
L 159.580799 224.612717 
L 156.601879 223.275971 
L 153.667589 221.788375 
L 150.767748 220.144687 
L 147.910653 218.352466 
L 145.110438 216.425704 
L 142.381245 214.375958 
L 139.704637 212.188529 
L 137.103221 209.888556 
L 134.598573 207.500141 
L 132.160497 204.986535 
L 129.820145 202.394635 
L 127.577414 199.721971 
L 125.415094 196.94976 
L 123.354107 194.116067 
L 121.378283 191.193734 
L 119.486955 188.192431 
L 115.962794 181.977004 
L 112.779389 175.5008 
L 109.936508 168.81677 
L 107.487979 162.054039 
L 106.42499 158.665061 
L 105.474394 155.260186 
L 104.639747 151.847235 
L 103.927603 148.451125 
L 103.341984 145.053366 
L 102.885454 141.660843 
L 102.560359 138.278915 
L 102.370735 134.868504 
L 102.314564 131.43724 
L 102.387713 128.012787 
L 102.598762 124.544464 
L 102.934813 121.083336 
L 103.398092 117.614043 
L 103.985618 114.146407 
L 104.687609 110.716845 
L 105.523145 107.268789 
L 106.47017 103.852072 
L 107.531614 100.461187 
L 108.702079 97.10913 
L 109.986351 93.784588 
L 111.372031 90.511573 
L 112.862875 87.282246 
L 114.451482 84.108089 
L 117.907433 77.949275 
L 119.770136 74.973051 
L 122.016208 71.644341 
L 122.016208 71.644341 
" style="fill:none;stroke:#ffffff;stroke-linecap:square;"/>
   </g>
   <g id="patch_3">
    <path d="M 57.6 307.584 
L 57.6 41.472 
" style="fill:none;stroke:#000000;stroke-linecap:square;stroke-linejoin:miter;stroke-width:0.8;"/>
   </g>
   <g id="patch_4">
    <path d="M 414.72 307.584 
L 414.72 41.472 
" style="fill:none;stroke:#000000;stroke-linecap:square;stroke-linejoin:miter;stroke-width:0.8;"/>
   </g>
   <g id="patch_5">
    <path d="M 57.6 307.584 
L 414.72 307.584 
" style="fill:none;stroke:#000000;stroke-linecap:square;stroke-linejoin:miter;stroke-width:0.8;"/>
   </g>
   <g id="patch_6">
    <path d="M 57.6 41.472 
L 414.72 41.472 
" style="fill:none;stroke:#000000;stroke-linecap:square;stroke-linejoin:miter;stroke-width:0.8;"/>
   </g>
  </g>
 </g>
 <defs>
  <clipPath id="pb618cd465d">
   <rect height="266.112" width="357.12" x="57.6" y="41.472"/>
  </clipPath>
 </defs>
</svg>
