<?xml version="1.0" encoding="utf-8" standalone="no"?>
<!DOCTYPE svg PUBLIC "-//W3C//DTD SVG 1.1//EN"
  "http://www.w3.org/Graphics/SVG/1.1/DTD/svg11.dtd">
<!-- Created with matplotlib (https://matplotlib.org/) -->
<svg height="345.6pt" version="1.1" viewBox="0 0 460.8 345.6" width="460.8pt" xmlns="http://www.w3.org/2000/svg" xmlns:xlink="http://www.w3.org/1999/xlink">
 <metadata>
  <rdf:RDF xmlns:cc="http://creativecommons.org/ns#" xmlns:dc="http://purl.org/dc/elements/1.1/" xmlns:rdf="http://www.w3.org/1999/02/22-rdf-syntax-ns#">
   <cc:Work>
    <dc:type rdf:resource="http://purl.org/dc/dcmitype/StillImage"/>
    <dc:date>2021-01-23T11:32:46.827368</dc:date>
    <dc:format>image/svg+xml</dc:format>
    <dc:creator>
     <cc:Agent>
      <dc:title>Matplotlib v3.3.3, https://matplotlib.org/</dc:title>
     </cc:Agent>
    </dc:creator>
   </cc:Work>
  </rdf:RDF>
 </metadata>
 <defs>
  <style type="text/css">*{stroke-linecap:butt;stroke-linejoin:round;}</style>
 </defs>
 <g id="figure_1">
  <g id="patch_1">
   <path d="M 0 345.6 
L 460.8 345.6 
L 460.8 0 
L 0 0 
z
" style="fill:#ffffff;"/>
  </g>
  <g id="axes_1">
   <g id="patch_2">
    <path d="M 57.6 307.584 
L 414.72 307.584 
L 414.72 41.472 
L 57.6 41.472 
z
" style="fill:#7d9051;"/>
   </g>
   <g id="matplotlib.axis_1">
    <g id="xtick_1">
     <g id="line2d_1">
      <defs>
       <path d="M 0 0 
L 0 3.5 
" id="m8c4c5ec35c" style="stroke:#000000;stroke-width:0.8;"/>
      </defs>
      <g>
       <use style="stroke:#000000;stroke-width:0.8;" x="108.804982" xlink:href="#m8c4c5ec35c" y="307.584"/>
      </g>
     </g>
     <g id="text_1">
      <!-- 20 -->
      <g transform="translate(102.442482 322.182437)scale(0.1 -0.1)">
       <defs>
        <path d="M 19.1875 8.296875 
L 53.609375 8.296875 
L 53.609375 0 
L 7.328125 0 
L 7.328125 8.296875 
Q 12.9375 14.109375 22.625 23.890625 
Q 32.328125 33.6875 34.8125 36.53125 
Q 39.546875 41.84375 41.421875 45.53125 
Q 43.3125 49.21875 43.3125 52.78125 
Q 43.3125 58.59375 39.234375 62.25 
Q 35.15625 65.921875 28.609375 65.921875 
Q 23.96875 65.921875 18.8125 64.3125 
Q 13.671875 62.703125 7.8125 59.421875 
L 7.8125 69.390625 
Q 13.765625 71.78125 18.9375 73 
Q 24.125 74.21875 28.421875 74.21875 
Q 39.75 74.21875 46.484375 68.546875 
Q 53.21875 62.890625 53.21875 53.421875 
Q 53.21875 48.921875 51.53125 44.890625 
Q 49.859375 40.875 45.40625 35.40625 
Q 44.1875 33.984375 37.640625 27.21875 
Q 31.109375 20.453125 19.1875 8.296875 
z
" id="DejaVuSans-50"/>
        <path d="M 31.78125 66.40625 
Q 24.171875 66.40625 20.328125 58.90625 
Q 16.5 51.421875 16.5 36.375 
Q 16.5 21.390625 20.328125 13.890625 
Q 24.171875 6.390625 31.78125 6.390625 
Q 39.453125 6.390625 43.28125 13.890625 
Q 47.125 21.390625 47.125 36.375 
Q 47.125 51.421875 43.28125 58.90625 
Q 39.453125 66.40625 31.78125 66.40625 
z
M 31.78125 74.21875 
Q 44.046875 74.21875 50.515625 64.515625 
Q 56.984375 54.828125 56.984375 36.375 
Q 56.984375 17.96875 50.515625 8.265625 
Q 44.046875 -1.421875 31.78125 -1.421875 
Q 19.53125 -1.421875 13.0625 8.265625 
Q 6.59375 17.96875 6.59375 36.375 
Q 6.59375 54.828125 13.0625 64.515625 
Q 19.53125 74.21875 31.78125 74.21875 
z
" id="DejaVuSans-48"/>
       </defs>
       <use xlink:href="#DejaVuSans-50"/>
       <use x="63.623047" xlink:href="#DejaVuSans-48"/>
      </g>
     </g>
    </g>
    <g id="xtick_2">
     <g id="line2d_2">
      <g>
       <use style="stroke:#000000;stroke-width:0.8;" x="161.553439" xlink:href="#m8c4c5ec35c" y="307.584"/>
      </g>
     </g>
     <g id="text_2">
      <!-- 40 -->
      <g transform="translate(155.190939 322.182437)scale(0.1 -0.1)">
       <defs>
        <path d="M 37.796875 64.3125 
L 12.890625 25.390625 
L 37.796875 25.390625 
z
M 35.203125 72.90625 
L 47.609375 72.90625 
L 47.609375 25.390625 
L 58.015625 25.390625 
L 58.015625 17.1875 
L 47.609375 17.1875 
L 47.609375 0 
L 37.796875 0 
L 37.796875 17.1875 
L 4.890625 17.1875 
L 4.890625 26.703125 
z
" id="DejaVuSans-52"/>
       </defs>
       <use xlink:href="#DejaVuSans-52"/>
       <use x="63.623047" xlink:href="#DejaVuSans-48"/>
      </g>
     </g>
    </g>
    <g id="xtick_3">
     <g id="line2d_3">
      <g>
       <use style="stroke:#000000;stroke-width:0.8;" x="214.301896" xlink:href="#m8c4c5ec35c" y="307.584"/>
      </g>
     </g>
     <g id="text_3">
      <!-- 60 -->
      <g transform="translate(207.939396 322.182437)scale(0.1 -0.1)">
       <defs>
        <path d="M 33.015625 40.375 
Q 26.375 40.375 22.484375 35.828125 
Q 18.609375 31.296875 18.609375 23.390625 
Q 18.609375 15.53125 22.484375 10.953125 
Q 26.375 6.390625 33.015625 6.390625 
Q 39.65625 6.390625 43.53125 10.953125 
Q 47.40625 15.53125 47.40625 23.390625 
Q 47.40625 31.296875 43.53125 35.828125 
Q 39.65625 40.375 33.015625 40.375 
z
M 52.59375 71.296875 
L 52.59375 62.3125 
Q 48.875 64.0625 45.09375 64.984375 
Q 41.3125 65.921875 37.59375 65.921875 
Q 27.828125 65.921875 22.671875 59.328125 
Q 17.53125 52.734375 16.796875 39.40625 
Q 19.671875 43.65625 24.015625 45.921875 
Q 28.375 48.1875 33.59375 48.1875 
Q 44.578125 48.1875 50.953125 41.515625 
Q 57.328125 34.859375 57.328125 23.390625 
Q 57.328125 12.15625 50.6875 5.359375 
Q 44.046875 -1.421875 33.015625 -1.421875 
Q 20.359375 -1.421875 13.671875 8.265625 
Q 6.984375 17.96875 6.984375 36.375 
Q 6.984375 53.65625 15.1875 63.9375 
Q 23.390625 74.21875 37.203125 74.21875 
Q 40.921875 74.21875 44.703125 73.484375 
Q 48.484375 72.75 52.59375 71.296875 
z
" id="DejaVuSans-54"/>
       </defs>
       <use xlink:href="#DejaVuSans-54"/>
       <use x="63.623047" xlink:href="#DejaVuSans-48"/>
      </g>
     </g>
    </g>
    <g id="xtick_4">
     <g id="line2d_4">
      <g>
       <use style="stroke:#000000;stroke-width:0.8;" x="267.050352" xlink:href="#m8c4c5ec35c" y="307.584"/>
      </g>
     </g>
     <g id="text_4">
      <!-- 80 -->
      <g transform="translate(260.687852 322.182437)scale(0.1 -0.1)">
       <defs>
        <path d="M 31.78125 34.625 
Q 24.75 34.625 20.71875 30.859375 
Q 16.703125 27.09375 16.703125 20.515625 
Q 16.703125 13.921875 20.71875 10.15625 
Q 24.75 6.390625 31.78125 6.390625 
Q 38.8125 6.390625 42.859375 10.171875 
Q 46.921875 13.96875 46.921875 20.515625 
Q 46.921875 27.09375 42.890625 30.859375 
Q 38.875 34.625 31.78125 34.625 
z
M 21.921875 38.8125 
Q 15.578125 40.375 12.03125 44.71875 
Q 8.5 49.078125 8.5 55.328125 
Q 8.5 64.0625 14.71875 69.140625 
Q 20.953125 74.21875 31.78125 74.21875 
Q 42.671875 74.21875 48.875 69.140625 
Q 55.078125 64.0625 55.078125 55.328125 
Q 55.078125 49.078125 51.53125 44.71875 
Q 48 40.375 41.703125 38.8125 
Q 48.828125 37.15625 52.796875 32.3125 
Q 56.78125 27.484375 56.78125 20.515625 
Q 56.78125 9.90625 50.3125 4.234375 
Q 43.84375 -1.421875 31.78125 -1.421875 
Q 19.734375 -1.421875 13.25 4.234375 
Q 6.78125 9.90625 6.78125 20.515625 
Q 6.78125 27.484375 10.78125 32.3125 
Q 14.796875 37.15625 21.921875 38.8125 
z
M 18.3125 54.390625 
Q 18.3125 48.734375 21.84375 45.5625 
Q 25.390625 42.390625 31.78125 42.390625 
Q 38.140625 42.390625 41.71875 45.5625 
Q 45.3125 48.734375 45.3125 54.390625 
Q 45.3125 60.0625 41.71875 63.234375 
Q 38.140625 66.40625 31.78125 66.40625 
Q 25.390625 66.40625 21.84375 63.234375 
Q 18.3125 60.0625 18.3125 54.390625 
z
" id="DejaVuSans-56"/>
       </defs>
       <use xlink:href="#DejaVuSans-56"/>
       <use x="63.623047" xlink:href="#DejaVuSans-48"/>
      </g>
     </g>
    </g>
    <g id="xtick_5">
     <g id="line2d_5">
      <g>
       <use style="stroke:#000000;stroke-width:0.8;" x="319.798809" xlink:href="#m8c4c5ec35c" y="307.584"/>
      </g>
     </g>
     <g id="text_5">
      <!-- 100 -->
      <g transform="translate(310.255059 322.182437)scale(0.1 -0.1)">
       <defs>
        <path d="M 12.40625 8.296875 
L 28.515625 8.296875 
L 28.515625 63.921875 
L 10.984375 60.40625 
L 10.984375 69.390625 
L 28.421875 72.90625 
L 38.28125 72.90625 
L 38.28125 8.296875 
L 54.390625 8.296875 
L 54.390625 0 
L 12.40625 0 
z
" id="DejaVuSans-49"/>
       </defs>
       <use xlink:href="#DejaVuSans-49"/>
       <use x="63.623047" xlink:href="#DejaVuSans-48"/>
       <use x="127.246094" xlink:href="#DejaVuSans-48"/>
      </g>
     </g>
    </g>
    <g id="xtick_6">
     <g id="line2d_6">
      <g>
       <use style="stroke:#000000;stroke-width:0.8;" x="372.547266" xlink:href="#m8c4c5ec35c" y="307.584"/>
      </g>
     </g>
     <g id="text_6">
      <!-- 120 -->
      <g transform="translate(363.003516 322.182437)scale(0.1 -0.1)">
       <use xlink:href="#DejaVuSans-49"/>
       <use x="63.623047" xlink:href="#DejaVuSans-50"/>
       <use x="127.246094" xlink:href="#DejaVuSans-48"/>
      </g>
     </g>
    </g>
   </g>
   <g id="matplotlib.axis_2">
    <g id="ytick_1">
     <g id="line2d_7">
      <defs>
       <path d="M 0 0 
L -3.5 0 
" id="m09fb6d8bd6" style="stroke:#000000;stroke-width:0.8;"/>
      </defs>
      <g>
       <use style="stroke:#000000;stroke-width:0.8;" x="57.6" xlink:href="#m09fb6d8bd6" y="267.571455"/>
      </g>
     </g>
     <g id="text_7">
      <!-- 20 -->
      <g transform="translate(37.875 271.370674)scale(0.1 -0.1)">
       <use xlink:href="#DejaVuSans-50"/>
       <use x="63.623047" xlink:href="#DejaVuSans-48"/>
      </g>
     </g>
    </g>
    <g id="ytick_2">
     <g id="line2d_8">
      <g>
       <use style="stroke:#000000;stroke-width:0.8;" x="57.6" xlink:href="#m09fb6d8bd6" y="214.822998"/>
      </g>
     </g>
     <g id="text_8">
      <!-- 40 -->
      <g transform="translate(37.875 218.622217)scale(0.1 -0.1)">
       <use xlink:href="#DejaVuSans-52"/>
       <use x="63.623047" xlink:href="#DejaVuSans-48"/>
      </g>
     </g>
    </g>
    <g id="ytick_3">
     <g id="line2d_9">
      <g>
       <use style="stroke:#000000;stroke-width:0.8;" x="57.6" xlink:href="#m09fb6d8bd6" y="162.074542"/>
      </g>
     </g>
     <g id="text_9">
      <!-- 60 -->
      <g transform="translate(37.875 165.87376)scale(0.1 -0.1)">
       <use xlink:href="#DejaVuSans-54"/>
       <use x="63.623047" xlink:href="#DejaVuSans-48"/>
      </g>
     </g>
    </g>
    <g id="ytick_4">
     <g id="line2d_10">
      <g>
       <use style="stroke:#000000;stroke-width:0.8;" x="57.6" xlink:href="#m09fb6d8bd6" y="109.326085"/>
      </g>
     </g>
     <g id="text_10">
      <!-- 80 -->
      <g transform="translate(37.875 113.125304)scale(0.1 -0.1)">
       <use xlink:href="#DejaVuSans-56"/>
       <use x="63.623047" xlink:href="#DejaVuSans-48"/>
      </g>
     </g>
    </g>
    <g id="ytick_5">
     <g id="line2d_11">
      <g>
       <use style="stroke:#000000;stroke-width:0.8;" x="57.6" xlink:href="#m09fb6d8bd6" y="56.577628"/>
      </g>
     </g>
     <g id="text_11">
      <!-- 100 -->
      <g transform="translate(31.5125 60.376847)scale(0.1 -0.1)">
       <use xlink:href="#DejaVuSans-49"/>
       <use x="63.623047" xlink:href="#DejaVuSans-48"/>
       <use x="127.246094" xlink:href="#DejaVuSans-48"/>
      </g>
     </g>
    </g>
   </g>
   <g id="line2d_12">
    <path clip-path="url(#p6d1ceff29f)" d="M 82.430754 293.945683 
L 81.747661 288.602265 
L 81.465457 283.298407 
L 81.526118 278.031474 
L 81.87162 272.790915 
L 82.451853 267.571455 
L 83.636056 259.769958 
L 90.459069 220.759837 
L 91.730307 215.645874 
L 93.307486 210.605759 
L 95.190605 205.657954 
L 97.374392 200.826195 
L 99.843019 196.136858 
L 102.585939 191.61104 
L 105.589964 187.264567 
L 108.826082 183.092164 
L 112.265281 179.080644 
L 115.881188 175.219457 
L 119.639515 171.490141 
L 123.519164 167.890059 
L 127.517497 164.42976 
L 131.639789 161.127707 
L 135.888677 157.999723 
L 140.272074 155.061634 
L 144.787342 152.331902 
L 149.426569 149.805251 
L 154.17393 147.481681 
L 159.016238 145.358556 
L 163.940307 143.427962 
L 171.4385 140.835375 
L 181.429057 137.430463 
L 186.329389 135.510419 
L 191.113674 133.305533 
L 195.752901 130.778882 
L 200.233882 127.95684 
L 204.546068 124.86578 
L 208.676273 121.537353 
L 212.611308 118.003206 
L 216.372272 114.294989 
L 221.789539 108.524308 
L 234.214438 94.894107 
L 239.742476 89.247385 
L 245.494695 83.785282 
L 249.485116 80.26696 
L 253.623233 76.896334 
L 257.927507 73.765713 
L 262.419038 70.96477 
L 264.73997 69.714631 
L 267.11365 68.580539 
L 269.542717 67.573044 
L 272.027169 66.700057 
L 274.56437 65.964216 
L 277.143769 65.354971 
L 279.754818 64.872323 
L 282.394878 64.510996 
L 285.053401 64.268353 
L 290.396819 64.112745 
L 295.721776 64.37385 
L 300.97816 65.012106 
L 306.168608 65.958941 
L 311.311582 67.135232 
L 318.968021 69.171322 
L 331.667212 72.82679 
L 336.69414 74.432981 
L 341.665682 76.194779 
L 346.555464 78.164934 
L 351.347661 80.380369 
L 356.015899 82.862184 
L 360.536442 85.615654 
L 364.885552 88.646052 
L 369.031581 91.961293 
L 372.953429 95.564013 
L 376.603622 99.443662 
L 379.942599 103.581778 
L 382.92025 107.9599 
L 384.26006 110.235996 
L 385.494374 112.567478 
L 386.615279 114.94907 
L 387.620137 117.383412 
L 388.501036 119.865227 
L 389.252702 122.391878 
L 389.867221 124.963365 
L 390.344595 127.579688 
L 390.674273 130.232936 
L 390.853618 132.925744 
L 390.874717 135.65284 
L 390.734934 138.414221 
L 390.734934 138.414221 
" style="fill:none;stroke:#fea952;stroke-linecap:square;"/>
   </g>
   <g id="line2d_13">
    <path clip-path="url(#p6d1ceff29f)" d="M 71.994411 295.488 
L 71.546234 292.399551 
L 71.224095 289.344244 
L 70.91585 283.340606 
L 70.991361 277.470326 
L 71.37534 271.730684 
L 72.000908 266.131406 
L 72.798953 260.655744 
L 74.654526 250.062174 
L 76.478718 239.891218 
L 79.592586 221.164826 
L 80.856794 215.506244 
L 82.460545 209.812069 
L 84.409028 204.220548 
L 86.699066 198.736244 
L 89.31249 193.412058 
L 92.240258 188.255851 
L 95.463743 183.297779 
L 98.930084 178.582357 
L 102.593591 174.10694 
L 106.427293 169.842031 
L 110.378602 165.785263 
L 114.449008 161.887076 
L 118.672459 158.101146 
L 123.05112 154.456373 
L 127.587302 150.975342 
L 132.285842 147.680702 
L 137.157607 144.582912 
L 142.152507 141.720563 
L 147.250987 139.093705 
L 152.447871 136.690219 
L 157.712963 134.511132 
L 162.999366 132.557579 
L 179.925154 126.724133 
L 184.166231 124.940872 
L 188.253 122.902702 
L 192.25638 120.563315 
L 196.141456 117.959367 
L 199.899751 115.110624 
L 203.519318 112.035209 
L 207.029451 108.728904 
L 210.499015 105.185766 
L 215.709337 99.519301 
L 224.731883 89.574532 
L 230.423341 83.64437 
L 236.388272 77.836081 
L 240.559075 74.044439 
L 244.966962 70.301711 
L 249.681955 66.668543 
L 252.165511 64.928553 
L 254.748334 63.254807 
L 257.416172 61.676749 
L 260.19199 60.195605 
L 263.071859 58.835802 
L 266.045388 57.61992 
L 269.088628 56.567882 
L 272.139299 55.697034 
L 275.226161 54.981025 
L 278.32429 54.420071 
L 281.435995 54.004973 
L 284.533318 53.731489 
L 287.631385 53.587207 
L 290.71983 53.568 
L 293.776665 53.668785 
L 299.801037 54.200081 
L 305.607622 55.099296 
L 311.192222 56.261337 
L 316.599293 57.596174 
L 326.9523 60.458471 
L 334.806722 62.755074 
L 340.121862 64.455671 
L 345.488868 66.362219 
L 350.85574 68.531471 
L 356.170638 70.997679 
L 361.366183 73.769855 
L 366.429504 76.86535 
L 371.335538 80.297779 
L 376.033925 84.070592 
L 380.501397 88.19352 
L 382.631983 90.385829 
L 384.678893 92.654995 
L 386.657364 95.021725 
L 388.54211 97.470771 
L 390.321219 99.989781 
L 392.011764 102.608232 
L 393.58375 105.299925 
L 395.039693 108.074941 
L 396.366843 110.923777 
L 397.562137 113.854583 
L 398.612753 116.857043 
L 399.513471 119.939817 
L 400.245572 123.069734 
L 400.813778 126.278845 
L 401.200644 129.531865 
L 401.402993 132.844124 
L 401.410918 136.186191 
L 401.271134 138.947572 
L 401.271134 138.947572 
" style="fill:none;stroke:#ffffff;stroke-linecap:square;"/>
   </g>
   <g id="line2d_14">
    <path clip-path="url(#p6d1ceff29f)" d="M 92.867096 292.403367 
L 92.271228 287.860285 
L 92.015064 283.256209 
L 92.060875 278.592622 
L 92.3679 273.851145 
L 92.902798 269.011504 
L 94.030278 261.574437 
L 100.732325 223.159044 
L 101.845756 218.641482 
L 103.221709 214.211887 
L 104.868746 209.856713 
L 106.780744 205.602859 
L 108.942635 201.474739 
L 111.347578 197.487235 
L 114.010708 193.619647 
L 116.915018 189.864542 
L 120.038972 186.212664 
L 123.377654 182.642326 
L 126.875148 179.167484 
L 130.495935 175.80338 
L 134.197387 172.59524 
L 137.988149 169.553519 
L 141.856876 166.698953 
L 145.831125 164.027845 
L 149.938428 161.538546 
L 154.165585 159.230627 
L 158.509275 157.099413 
L 162.961489 155.142777 
L 167.50587 153.356847 
L 174.755644 150.849992 
L 185.158762 147.298861 
L 190.585588 145.163437 
L 196.003684 142.653463 
L 201.236181 139.79163 
L 206.254133 136.620128 
L 211.049062 133.17283 
L 215.625526 129.47485 
L 219.943576 125.588311 
L 223.972989 121.611074 
L 229.614261 115.600304 
L 241.83625 102.188213 
L 247.11208 96.796221 
L 252.534686 91.642414 
L 256.24194 88.368893 
L 259.959726 85.331073 
L 263.689503 82.602872 
L 267.421903 80.25279 
L 271.155442 78.325277 
L 273.040046 77.526168 
L 274.96571 76.832232 
L 279.061378 75.728918 
L 283.353761 75.01702 
L 287.818835 74.685757 
L 292.355118 74.720226 
L 296.91736 75.101477 
L 301.55497 75.805816 
L 306.298518 76.785362 
L 313.619525 78.640894 
L 326.103592 82.171114 
L 333.266417 84.41029 
L 337.842495 86.027339 
L 342.255187 87.798397 
L 346.524684 89.76306 
L 350.665615 91.954513 
L 354.643381 94.365957 
L 358.435567 96.994326 
L 362.029237 99.851994 
L 365.40546 102.934505 
L 368.528351 106.232328 
L 371.343089 109.692785 
L 373.828735 113.311568 
L 375.949056 117.060014 
L 377.678138 120.91224 
L 378.991933 124.843938 
L 379.875412 128.880531 
L 380.147902 130.934006 
L 380.304242 133.007364 
L 380.338516 135.119488 
L 380.198733 137.88087 
L 380.198733 137.88087 
" style="fill:none;stroke:#ffffff;stroke-linecap:square;"/>
   </g>
   <g id="patch_3">
    <path d="M 57.6 307.584 
L 57.6 41.472 
" style="fill:none;stroke:#000000;stroke-linecap:square;stroke-linejoin:miter;stroke-width:0.8;"/>
   </g>
   <g id="patch_4">
    <path d="M 414.72 307.584 
L 414.72 41.472 
" style="fill:none;stroke:#000000;stroke-linecap:square;stroke-linejoin:miter;stroke-width:0.8;"/>
   </g>
   <g id="patch_5">
    <path d="M 57.6 307.584 
L 414.72 307.584 
" style="fill:none;stroke:#000000;stroke-linecap:square;stroke-linejoin:miter;stroke-width:0.8;"/>
   </g>
   <g id="patch_6">
    <path d="M 57.6 41.472 
L 414.72 41.472 
" style="fill:none;stroke:#000000;stroke-linecap:square;stroke-linejoin:miter;stroke-width:0.8;"/>
   </g>
  </g>
 </g>
 <defs>
  <clipPath id="p6d1ceff29f">
   <rect height="266.112" width="357.12" x="57.6" y="41.472"/>
  </clipPath>
 </defs>
</svg>
