<?xml version="1.0" encoding="utf-8" standalone="no"?>
<!DOCTYPE svg PUBLIC "-//W3C//DTD SVG 1.1//EN"
  "http://www.w3.org/Graphics/SVG/1.1/DTD/svg11.dtd">
<!-- Created with matplotlib (https://matplotlib.org/) -->
<svg height="345.6pt" version="1.1" viewBox="0 0 460.8 345.6" width="460.8pt" xmlns="http://www.w3.org/2000/svg" xmlns:xlink="http://www.w3.org/1999/xlink">
 <metadata>
  <rdf:RDF xmlns:cc="http://creativecommons.org/ns#" xmlns:dc="http://purl.org/dc/elements/1.1/" xmlns:rdf="http://www.w3.org/1999/02/22-rdf-syntax-ns#">
   <cc:Work>
    <dc:type rdf:resource="http://purl.org/dc/dcmitype/StillImage"/>
    <dc:date>2021-01-25T09:31:06.557635</dc:date>
    <dc:format>image/svg+xml</dc:format>
    <dc:creator>
     <cc:Agent>
      <dc:title>Matplotlib v3.3.3, https://matplotlib.org/</dc:title>
     </cc:Agent>
    </dc:creator>
   </cc:Work>
  </rdf:RDF>
 </metadata>
 <defs>
  <style type="text/css">*{stroke-linecap:butt;stroke-linejoin:round;}</style>
 </defs>
 <g id="figure_1">
  <g id="patch_1">
   <path d="M 0 345.6 
L 460.8 345.6 
L 460.8 0 
L 0 0 
z
" style="fill:#ffffff;"/>
  </g>
  <g id="axes_1">
   <g id="patch_2">
    <path d="M 57.6 307.584 
L 414.72 307.584 
L 414.72 41.472 
L 57.6 41.472 
z
" style="fill:#7d9051;"/>
   </g>
   <g id="matplotlib.axis_1">
    <g id="xtick_1">
     <g id="line2d_1">
      <defs>
       <path d="M 0 0 
L 0 3.5 
" id="m6b153ea17b" style="stroke:#000000;stroke-width:0.8;"/>
      </defs>
      <g>
       <use style="stroke:#000000;stroke-width:0.8;" x="71.662175" xlink:href="#m6b153ea17b" y="307.584"/>
      </g>
     </g>
     <g id="text_1">
      <!-- 0 -->
      <g transform="translate(68.480925 322.182437)scale(0.1 -0.1)">
       <defs>
        <path d="M 31.78125 66.40625 
Q 24.171875 66.40625 20.328125 58.90625 
Q 16.5 51.421875 16.5 36.375 
Q 16.5 21.390625 20.328125 13.890625 
Q 24.171875 6.390625 31.78125 6.390625 
Q 39.453125 6.390625 43.28125 13.890625 
Q 47.125 21.390625 47.125 36.375 
Q 47.125 51.421875 43.28125 58.90625 
Q 39.453125 66.40625 31.78125 66.40625 
z
M 31.78125 74.21875 
Q 44.046875 74.21875 50.515625 64.515625 
Q 56.984375 54.828125 56.984375 36.375 
Q 56.984375 17.96875 50.515625 8.265625 
Q 44.046875 -1.421875 31.78125 -1.421875 
Q 19.53125 -1.421875 13.0625 8.265625 
Q 6.59375 17.96875 6.59375 36.375 
Q 6.59375 54.828125 13.0625 64.515625 
Q 19.53125 74.21875 31.78125 74.21875 
z
" id="DejaVuSans-48"/>
       </defs>
       <use xlink:href="#DejaVuSans-48"/>
      </g>
     </g>
    </g>
    <g id="xtick_2">
     <g id="line2d_2">
      <g>
       <use style="stroke:#000000;stroke-width:0.8;" x="127.936221" xlink:href="#m6b153ea17b" y="307.584"/>
      </g>
     </g>
     <g id="text_2">
      <!-- 20 -->
      <g transform="translate(121.573721 322.182437)scale(0.1 -0.1)">
       <defs>
        <path d="M 19.1875 8.296875 
L 53.609375 8.296875 
L 53.609375 0 
L 7.328125 0 
L 7.328125 8.296875 
Q 12.9375 14.109375 22.625 23.890625 
Q 32.328125 33.6875 34.8125 36.53125 
Q 39.546875 41.84375 41.421875 45.53125 
Q 43.3125 49.21875 43.3125 52.78125 
Q 43.3125 58.59375 39.234375 62.25 
Q 35.15625 65.921875 28.609375 65.921875 
Q 23.96875 65.921875 18.8125 64.3125 
Q 13.671875 62.703125 7.8125 59.421875 
L 7.8125 69.390625 
Q 13.765625 71.78125 18.9375 73 
Q 24.125 74.21875 28.421875 74.21875 
Q 39.75 74.21875 46.484375 68.546875 
Q 53.21875 62.890625 53.21875 53.421875 
Q 53.21875 48.921875 51.53125 44.890625 
Q 49.859375 40.875 45.40625 35.40625 
Q 44.1875 33.984375 37.640625 27.21875 
Q 31.109375 20.453125 19.1875 8.296875 
z
" id="DejaVuSans-50"/>
       </defs>
       <use xlink:href="#DejaVuSans-50"/>
       <use x="63.623047" xlink:href="#DejaVuSans-48"/>
      </g>
     </g>
    </g>
    <g id="xtick_3">
     <g id="line2d_3">
      <g>
       <use style="stroke:#000000;stroke-width:0.8;" x="184.210266" xlink:href="#m6b153ea17b" y="307.584"/>
      </g>
     </g>
     <g id="text_3">
      <!-- 40 -->
      <g transform="translate(177.847766 322.182437)scale(0.1 -0.1)">
       <defs>
        <path d="M 37.796875 64.3125 
L 12.890625 25.390625 
L 37.796875 25.390625 
z
M 35.203125 72.90625 
L 47.609375 72.90625 
L 47.609375 25.390625 
L 58.015625 25.390625 
L 58.015625 17.1875 
L 47.609375 17.1875 
L 47.609375 0 
L 37.796875 0 
L 37.796875 17.1875 
L 4.890625 17.1875 
L 4.890625 26.703125 
z
" id="DejaVuSans-52"/>
       </defs>
       <use xlink:href="#DejaVuSans-52"/>
       <use x="63.623047" xlink:href="#DejaVuSans-48"/>
      </g>
     </g>
    </g>
    <g id="xtick_4">
     <g id="line2d_4">
      <g>
       <use style="stroke:#000000;stroke-width:0.8;" x="240.484312" xlink:href="#m6b153ea17b" y="307.584"/>
      </g>
     </g>
     <g id="text_4">
      <!-- 60 -->
      <g transform="translate(234.121812 322.182437)scale(0.1 -0.1)">
       <defs>
        <path d="M 33.015625 40.375 
Q 26.375 40.375 22.484375 35.828125 
Q 18.609375 31.296875 18.609375 23.390625 
Q 18.609375 15.53125 22.484375 10.953125 
Q 26.375 6.390625 33.015625 6.390625 
Q 39.65625 6.390625 43.53125 10.953125 
Q 47.40625 15.53125 47.40625 23.390625 
Q 47.40625 31.296875 43.53125 35.828125 
Q 39.65625 40.375 33.015625 40.375 
z
M 52.59375 71.296875 
L 52.59375 62.3125 
Q 48.875 64.0625 45.09375 64.984375 
Q 41.3125 65.921875 37.59375 65.921875 
Q 27.828125 65.921875 22.671875 59.328125 
Q 17.53125 52.734375 16.796875 39.40625 
Q 19.671875 43.65625 24.015625 45.921875 
Q 28.375 48.1875 33.59375 48.1875 
Q 44.578125 48.1875 50.953125 41.515625 
Q 57.328125 34.859375 57.328125 23.390625 
Q 57.328125 12.15625 50.6875 5.359375 
Q 44.046875 -1.421875 33.015625 -1.421875 
Q 20.359375 -1.421875 13.671875 8.265625 
Q 6.984375 17.96875 6.984375 36.375 
Q 6.984375 53.65625 15.1875 63.9375 
Q 23.390625 74.21875 37.203125 74.21875 
Q 40.921875 74.21875 44.703125 73.484375 
Q 48.484375 72.75 52.59375 71.296875 
z
" id="DejaVuSans-54"/>
       </defs>
       <use xlink:href="#DejaVuSans-54"/>
       <use x="63.623047" xlink:href="#DejaVuSans-48"/>
      </g>
     </g>
    </g>
    <g id="xtick_5">
     <g id="line2d_5">
      <g>
       <use style="stroke:#000000;stroke-width:0.8;" x="296.758357" xlink:href="#m6b153ea17b" y="307.584"/>
      </g>
     </g>
     <g id="text_5">
      <!-- 80 -->
      <g transform="translate(290.395857 322.182437)scale(0.1 -0.1)">
       <defs>
        <path d="M 31.78125 34.625 
Q 24.75 34.625 20.71875 30.859375 
Q 16.703125 27.09375 16.703125 20.515625 
Q 16.703125 13.921875 20.71875 10.15625 
Q 24.75 6.390625 31.78125 6.390625 
Q 38.8125 6.390625 42.859375 10.171875 
Q 46.921875 13.96875 46.921875 20.515625 
Q 46.921875 27.09375 42.890625 30.859375 
Q 38.875 34.625 31.78125 34.625 
z
M 21.921875 38.8125 
Q 15.578125 40.375 12.03125 44.71875 
Q 8.5 49.078125 8.5 55.328125 
Q 8.5 64.0625 14.71875 69.140625 
Q 20.953125 74.21875 31.78125 74.21875 
Q 42.671875 74.21875 48.875 69.140625 
Q 55.078125 64.0625 55.078125 55.328125 
Q 55.078125 49.078125 51.53125 44.71875 
Q 48 40.375 41.703125 38.8125 
Q 48.828125 37.15625 52.796875 32.3125 
Q 56.78125 27.484375 56.78125 20.515625 
Q 56.78125 9.90625 50.3125 4.234375 
Q 43.84375 -1.421875 31.78125 -1.421875 
Q 19.734375 -1.421875 13.25 4.234375 
Q 6.78125 9.90625 6.78125 20.515625 
Q 6.78125 27.484375 10.78125 32.3125 
Q 14.796875 37.15625 21.921875 38.8125 
z
M 18.3125 54.390625 
Q 18.3125 48.734375 21.84375 45.5625 
Q 25.390625 42.390625 31.78125 42.390625 
Q 38.140625 42.390625 41.71875 45.5625 
Q 45.3125 48.734375 45.3125 54.390625 
Q 45.3125 60.0625 41.71875 63.234375 
Q 38.140625 66.40625 31.78125 66.40625 
Q 25.390625 66.40625 21.84375 63.234375 
Q 18.3125 60.0625 18.3125 54.390625 
z
" id="DejaVuSans-56"/>
       </defs>
       <use xlink:href="#DejaVuSans-56"/>
       <use x="63.623047" xlink:href="#DejaVuSans-48"/>
      </g>
     </g>
    </g>
    <g id="xtick_6">
     <g id="line2d_6">
      <g>
       <use style="stroke:#000000;stroke-width:0.8;" x="353.032403" xlink:href="#m6b153ea17b" y="307.584"/>
      </g>
     </g>
     <g id="text_6">
      <!-- 100 -->
      <g transform="translate(343.488653 322.182437)scale(0.1 -0.1)">
       <defs>
        <path d="M 12.40625 8.296875 
L 28.515625 8.296875 
L 28.515625 63.921875 
L 10.984375 60.40625 
L 10.984375 69.390625 
L 28.421875 72.90625 
L 38.28125 72.90625 
L 38.28125 8.296875 
L 54.390625 8.296875 
L 54.390625 0 
L 12.40625 0 
z
" id="DejaVuSans-49"/>
       </defs>
       <use xlink:href="#DejaVuSans-49"/>
       <use x="63.623047" xlink:href="#DejaVuSans-48"/>
       <use x="127.246094" xlink:href="#DejaVuSans-48"/>
      </g>
     </g>
    </g>
    <g id="xtick_7">
     <g id="line2d_7">
      <g>
       <use style="stroke:#000000;stroke-width:0.8;" x="409.306448" xlink:href="#m6b153ea17b" y="307.584"/>
      </g>
     </g>
     <g id="text_7">
      <!-- 120 -->
      <g transform="translate(399.762698 322.182437)scale(0.1 -0.1)">
       <use xlink:href="#DejaVuSans-49"/>
       <use x="63.623047" xlink:href="#DejaVuSans-50"/>
       <use x="127.246094" xlink:href="#DejaVuSans-48"/>
      </g>
     </g>
    </g>
   </g>
   <g id="matplotlib.axis_2">
    <g id="ytick_1">
     <g id="line2d_8">
      <defs>
       <path d="M 0 0 
L -3.5 0 
" id="m9527800d5b" style="stroke:#000000;stroke-width:0.8;"/>
      </defs>
      <g>
       <use style="stroke:#000000;stroke-width:0.8;" x="57.6" xlink:href="#m9527800d5b" y="255.237274"/>
      </g>
     </g>
     <g id="text_8">
      <!-- 20 -->
      <g transform="translate(37.875 259.036493)scale(0.1 -0.1)">
       <use xlink:href="#DejaVuSans-50"/>
       <use x="63.623047" xlink:href="#DejaVuSans-48"/>
      </g>
     </g>
    </g>
    <g id="ytick_2">
     <g id="line2d_9">
      <g>
       <use style="stroke:#000000;stroke-width:0.8;" x="57.6" xlink:href="#m9527800d5b" y="198.963229"/>
      </g>
     </g>
     <g id="text_9">
      <!-- 40 -->
      <g transform="translate(37.875 202.762448)scale(0.1 -0.1)">
       <use xlink:href="#DejaVuSans-52"/>
       <use x="63.623047" xlink:href="#DejaVuSans-48"/>
      </g>
     </g>
    </g>
    <g id="ytick_3">
     <g id="line2d_10">
      <g>
       <use style="stroke:#000000;stroke-width:0.8;" x="57.6" xlink:href="#m9527800d5b" y="142.689184"/>
      </g>
     </g>
     <g id="text_10">
      <!-- 60 -->
      <g transform="translate(37.875 146.488402)scale(0.1 -0.1)">
       <use xlink:href="#DejaVuSans-54"/>
       <use x="63.623047" xlink:href="#DejaVuSans-48"/>
      </g>
     </g>
    </g>
    <g id="ytick_4">
     <g id="line2d_11">
      <g>
       <use style="stroke:#000000;stroke-width:0.8;" x="57.6" xlink:href="#m9527800d5b" y="86.415138"/>
      </g>
     </g>
     <g id="text_11">
      <!-- 80 -->
      <g transform="translate(37.875 90.214357)scale(0.1 -0.1)">
       <use xlink:href="#DejaVuSans-56"/>
       <use x="63.623047" xlink:href="#DejaVuSans-48"/>
      </g>
     </g>
    </g>
   </g>
   <g id="line2d_12">
    <path clip-path="url(#p4461c9028d)" d="M 99.799198 144.917636 
L 99.202693 142.070169 
L 98.746873 139.222702 
L 98.428925 136.378049 
L 98.246034 133.539024 
L 98.198202 130.711253 
L 98.276985 127.891923 
L 98.482385 125.086662 
L 98.811589 122.298283 
L 99.258967 119.5296 
L 99.821708 116.780613 
L 100.496996 114.056949 
L 102.176777 108.688405 
L 104.270171 103.446478 
L 106.751856 98.348049 
L 109.593696 93.418443 
L 112.775993 88.677355 
L 116.287493 84.169804 
L 118.167047 82.03139 
L 120.136638 79.980201 
L 122.190641 78.024678 
L 124.331868 76.178889 
L 126.563134 74.451276 
L 128.887252 72.853093 
L 131.298595 71.389968 
L 133.80279 70.070342 
L 136.388582 68.899841 
L 139.044717 67.875654 
L 141.75994 67.000592 
L 144.522996 66.26903 
L 147.32263 65.686593 
L 150.147587 65.253283 
L 152.986612 64.963472 
L 155.828451 64.822787 
L 158.66185 64.828414 
L 161.475552 64.977541 
L 164.272372 65.258911 
L 169.820993 66.156482 
L 175.321781 67.397324 
L 183.512468 69.642659 
L 197.077327 73.64093 
L 202.426175 75.393866 
L 207.693425 77.340948 
L 212.853755 79.546891 
L 217.879028 82.076409 
L 222.75236 84.921062 
L 227.451243 88.063968 
L 231.95598 91.488243 
L 236.24969 95.179821 
L 240.307048 99.119004 
L 244.105547 103.302979 
L 247.608606 107.731747 
L 250.788089 112.405306 
L 253.613047 117.31803 
L 254.882026 119.864431 
L 256.052526 122.464292 
L 257.113292 125.111985 
L 258.064324 127.799071 
L 258.897179 130.522735 
L 259.609046 133.271722 
L 260.191482 136.046033 
L 260.641675 138.834411 
L 260.953996 141.634045 
L 261.122818 144.433679 
L 261.148141 147.233313 
L 261.041221 150.030133 
L 260.506617 155.615332 
L 259.659693 161.194903 
L 256.193212 180.719183 
L 255.439139 186.307196 
L 254.853889 191.898023 
L 254.462785 197.49729 
L 254.285521 203.102185 
L 254.338982 208.712707 
L 254.614725 214.326043 
L 255.115564 219.942193 
L 255.833058 225.561157 
L 256.775648 231.177306 
L 257.971471 236.754064 
L 259.496498 242.232343 
L 260.405324 244.910987 
L 261.423884 247.541799 
L 262.563433 250.110709 
L 263.832413 252.614904 
L 265.239264 255.040315 
L 266.789614 257.384129 
L 268.477836 259.643532 
L 270.295487 261.812897 
L 272.228501 263.889409 
L 274.271249 265.873069 
L 276.412476 267.761063 
L 278.640928 269.547764 
L 280.948164 271.235986 
L 283.322929 272.817286 
L 285.756781 274.29448 
L 288.238467 275.664753 
L 290.767985 276.925292 
L 293.339709 278.081723 
L 298.60696 280.085079 
L 304.023336 281.68889 
L 309.571957 282.904409 
L 315.227499 283.74852 
L 320.953383 284.190271 
L 323.814918 284.238104 
L 326.670826 284.153693 
L 329.504224 283.937038 
L 332.309485 283.571256 
L 335.075355 283.047908 
L 337.796205 282.361364 
L 340.460781 281.500371 
L 343.063455 280.459302 
L 345.592974 279.243782 
L 348.05215 277.862254 
L 350.432542 276.328787 
L 352.728523 274.649006 
L 354.940093 272.836982 
L 357.058811 270.895528 
L 359.084676 268.841525 
L 361.006435 266.683415 
L 362.8269 264.426826 
L 364.537631 262.085826 
L 366.138628 259.668856 
L 367.618635 257.184356 
L 368.977653 254.643583 
L 370.212869 252.054977 
L 371.31584 249.429793 
L 372.283754 246.776472 
L 373.113796 244.106268 
L 373.800339 241.427624 
L 374.337756 238.751793 
L 374.337756 238.751793 
" style="fill:none;stroke:#fea952;stroke-linecap:square;"/>
   </g>
   <g id="line2d_13">
    <path clip-path="url(#p4461c9028d)" d="M 88.783503 147.225272 
L 88.089375 143.849179 
L 87.561714 140.472874 
L 87.197397 137.101587 
L 86.992835 133.729376 
L 86.947784 130.39687 
L 87.052225 127.07005 
L 87.305205 123.767056 
L 87.700894 120.502958 
L 88.232815 117.272455 
L 88.897649 114.072169 
L 89.693263 110.902575 
L 90.609835 107.792777 
L 91.646898 104.714443 
L 92.802109 101.676633 
L 94.062416 98.705965 
L 95.434787 95.768553 
L 96.908135 92.891688 
L 100.143006 87.306553 
L 103.768159 81.929789 
L 105.743344 79.306396 
L 107.833944 76.739579 
L 110.04886 74.236149 
L 112.376095 71.828839 
L 114.842152 69.499982 
L 117.441523 67.279795 
L 120.186007 65.177497 
L 123.048889 63.231022 
L 126.051637 61.433053 
L 129.161494 59.817094 
L 132.339398 58.398659 
L 135.592379 57.163414 
L 138.879309 56.120671 
L 142.230625 55.250148 
L 145.616251 54.561891 
L 149.004621 54.056661 
L 152.430125 53.722429 
L 155.850805 53.568 
L 159.257519 53.589379 
L 162.60214 53.779258 
L 165.860888 54.116768 
L 169.060513 54.580936 
L 175.194372 55.795156 
L 181.05398 57.260825 
L 192.111103 60.415347 
L 200.507928 62.921708 
L 206.214434 64.795762 
L 211.972445 66.931303 
L 217.755911 69.41577 
L 223.404821 72.271495 
L 228.86283 75.469455 
L 234.126821 79.002655 
L 239.16663 82.846643 
L 243.963688 86.984398 
L 248.513654 91.416903 
L 252.810288 96.168681 
L 254.842086 98.65842 
L 256.797208 101.232491 
L 258.659894 103.87889 
L 260.435056 106.608173 
L 262.108172 109.408527 
L 263.686323 112.298088 
L 265.144697 115.244007 
L 266.500056 118.278618 
L 267.723183 121.356862 
L 268.827187 124.507948 
L 269.792602 127.7013 
L 270.623739 130.959307 
L 271.302408 134.252139 
L 271.827097 137.58659 
L 272.188398 140.956594 
L 272.377167 144.331881 
L 272.394735 147.663263 
L 272.261468 150.911482 
L 271.65099 157.188126 
L 270.739168 163.17378 
L 266.960354 184.940997 
L 266.326688 190.183152 
L 265.866009 195.375108 
L 265.599487 200.548277 
L 265.538291 205.690401 
L 265.683909 210.853764 
L 266.036846 216.023112 
L 266.598027 221.221128 
L 267.359493 226.40381 
L 268.307007 231.464467 
L 269.472729 236.298944 
L 270.900956 240.847438 
L 272.602823 245.023333 
L 273.567978 246.967825 
L 274.626308 248.831118 
L 275.805573 250.647423 
L 277.104728 252.415293 
L 278.53339 254.14428 
L 280.069219 255.815137 
L 281.714738 257.431198 
L 283.45276 258.980111 
L 287.186085 261.868005 
L 291.196973 264.441813 
L 295.383759 266.660529 
L 299.751137 268.539251 
L 304.302705 270.088043 
L 308.999393 271.30995 
L 313.859288 272.216007 
L 318.736783 272.788271 
L 323.482409 272.988208 
L 328.049015 272.776702 
L 330.217017 272.512671 
L 332.321771 272.13514 
L 334.335661 271.651772 
L 336.28085 271.050544 
L 338.188748 270.314946 
L 340.080508 269.431369 
L 341.956985 268.40077 
L 343.786995 267.245426 
L 345.595523 265.943202 
L 347.336438 264.539081 
L 349.045764 262.992249 
L 350.679381 261.356758 
L 352.24675 259.616687 
L 353.739867 257.786302 
L 356.469399 253.90893 
L 358.820011 249.796622 
L 360.742578 245.572739 
L 362.211386 241.311953 
L 362.765879 239.211449 
L 363.303297 236.535619 
L 363.303297 236.535619 
" style="fill:none;stroke:#ffffff;stroke-linecap:square;"/>
   </g>
   <g id="line2d_14">
    <path clip-path="url(#p4461c9028d)" d="M 110.814894 142.61 
L 110.316012 140.29116 
L 109.660453 135.654512 
L 109.499234 133.348671 
L 109.501746 128.713796 
L 109.922283 124.093609 
L 110.745766 119.489057 
L 111.95983 114.92444 
L 113.543546 110.421672 
L 115.491575 105.986583 
L 117.785413 101.644744 
L 120.380464 97.452288 
L 123.235731 93.473234 
L 126.285233 89.826631 
L 129.53913 86.549373 
L 131.222213 85.077983 
L 132.940261 83.725055 
L 134.725615 82.475164 
L 136.545554 81.346883 
L 138.444086 80.32359 
L 140.437767 79.401024 
L 142.497056 78.587894 
L 144.640571 77.880514 
L 146.815366 77.287912 
L 149.029008 76.811296 
L 151.290552 76.449906 
L 153.543099 76.204515 
L 155.806098 76.077574 
L 158.066181 76.067449 
L 160.348964 76.175823 
L 165.049734 76.73035 
L 169.96247 77.688308 
L 175.059419 78.957557 
L 185.797234 82.021317 
L 196.179448 85.169586 
L 201.055015 86.853173 
L 205.719788 88.693511 
L 210.166426 90.743576 
L 214.515181 93.093813 
L 218.722036 95.710966 
L 222.782958 98.597777 
L 226.668279 101.727981 
L 230.345369 105.071211 
L 233.783152 108.605033 
L 236.948037 112.314405 
L 239.821212 116.199075 
L 242.383002 120.252908 
L 244.619355 124.484854 
L 246.503402 128.867109 
L 248.001757 133.34417 
L 249.080557 137.839926 
L 249.719594 142.311497 
L 249.868469 144.535477 
L 249.901547 146.803362 
L 249.637997 151.561457 
L 249.003542 156.601707 
L 248.100008 161.907128 
L 245.500422 176.212403 
L 244.632605 182.085383 
L 243.921321 188.019253 
L 243.397205 194.020205 
L 243.095358 200.051198 
L 243.032751 206.118864 
L 243.213523 212.182173 
L 243.637168 218.245124 
L 244.297134 224.279408 
L 245.195753 230.334653 
L 246.364142 236.483786 
L 247.899574 242.724041 
L 248.838434 245.848472 
L 249.909692 248.974537 
L 251.135859 252.10549 
L 252.524044 255.198085 
L 254.096848 258.261983 
L 255.85222 261.249513 
L 257.773655 264.120836 
L 259.850943 266.871772 
L 262.057584 269.481514 
L 264.387782 271.963681 
L 266.827759 274.31494 
L 269.372192 276.542016 
L 271.994851 278.630736 
L 274.710243 280.603967 
L 277.48338 282.438638 
L 280.31659 284.147147 
L 283.218614 285.738074 
L 286.152211 287.190054 
L 289.136536 288.522224 
L 292.156139 289.728845 
L 295.219931 290.818148 
L 298.29664 291.781592 
L 301.422528 292.639073 
L 304.567764 293.379014 
L 310.917658 294.532587 
L 314.146912 294.951334 
L 317.435658 295.260253 
L 320.765276 295.443508 
L 324.147427 295.488 
L 327.528917 295.375743 
L 330.959433 295.097373 
L 334.401954 294.629841 
L 337.828938 293.960676 
L 341.256749 293.070956 
L 344.640712 291.950199 
L 347.938163 290.603658 
L 351.105439 289.056195 
L 354.147314 287.323739 
L 357.078088 285.412147 
L 359.861523 283.354811 
L 362.543747 281.134883 
L 365.071857 278.798806 
L 367.489971 276.326292 
L 369.76612 273.750144 
L 371.913933 271.06735 
L 373.920643 268.301115 
L 375.807857 265.428781 
L 377.542953 262.492712 
L 379.135295 259.490545 
L 380.589045 256.414528 
L 381.889102 253.286847 
L 383.031269 250.117375 
L 384.016205 246.900583 
L 384.834799 243.643798 
L 385.372216 240.967967 
L 385.372216 240.967967 
" style="fill:none;stroke:#ffffff;stroke-linecap:square;"/>
   </g>
   <g id="patch_3">
    <path d="M 57.6 307.584 
L 57.6 41.472 
" style="fill:none;stroke:#000000;stroke-linecap:square;stroke-linejoin:miter;stroke-width:0.8;"/>
   </g>
   <g id="patch_4">
    <path d="M 414.72 307.584 
L 414.72 41.472 
" style="fill:none;stroke:#000000;stroke-linecap:square;stroke-linejoin:miter;stroke-width:0.8;"/>
   </g>
   <g id="patch_5">
    <path d="M 57.6 307.584 
L 414.72 307.584 
" style="fill:none;stroke:#000000;stroke-linecap:square;stroke-linejoin:miter;stroke-width:0.8;"/>
   </g>
   <g id="patch_6">
    <path d="M 57.6 41.472 
L 414.72 41.472 
" style="fill:none;stroke:#000000;stroke-linecap:square;stroke-linejoin:miter;stroke-width:0.8;"/>
   </g>
  </g>
 </g>
 <defs>
  <clipPath id="p4461c9028d">
   <rect height="266.112" width="357.12" x="57.6" y="41.472"/>
  </clipPath>
 </defs>
</svg>
