<?xml version="1.0" encoding="utf-8" standalone="no"?>
<!DOCTYPE svg PUBLIC "-//W3C//DTD SVG 1.1//EN"
  "http://www.w3.org/Graphics/SVG/1.1/DTD/svg11.dtd">
<!-- Created with matplotlib (https://matplotlib.org/) -->
<svg height="345.6pt" version="1.1" viewBox="0 0 460.8 345.6" width="460.8pt" xmlns="http://www.w3.org/2000/svg" xmlns:xlink="http://www.w3.org/1999/xlink">
 <metadata>
  <rdf:RDF xmlns:cc="http://creativecommons.org/ns#" xmlns:dc="http://purl.org/dc/elements/1.1/" xmlns:rdf="http://www.w3.org/1999/02/22-rdf-syntax-ns#">
   <cc:Work>
    <dc:type rdf:resource="http://purl.org/dc/dcmitype/StillImage"/>
    <dc:date>2021-01-23T13:36:13.266145</dc:date>
    <dc:format>image/svg+xml</dc:format>
    <dc:creator>
     <cc:Agent>
      <dc:title>Matplotlib v3.3.3, https://matplotlib.org/</dc:title>
     </cc:Agent>
    </dc:creator>
   </cc:Work>
  </rdf:RDF>
 </metadata>
 <defs>
  <style type="text/css">*{stroke-linecap:butt;stroke-linejoin:round;}</style>
 </defs>
 <g id="figure_1">
  <g id="patch_1">
   <path d="M 0 345.6 
L 460.8 345.6 
L 460.8 0 
L 0 0 
z
" style="fill:#ffffff;"/>
  </g>
  <g id="axes_1">
   <g id="patch_2">
    <path d="M 57.6 307.584 
L 414.72 307.584 
L 414.72 41.472 
L 57.6 41.472 
z
" style="fill:#7d9051;"/>
   </g>
   <g id="matplotlib.axis_1">
    <g id="xtick_1">
     <g id="line2d_1">
      <defs>
       <path d="M 0 0 
L 0 3.5 
" id="m7a689265cd" style="stroke:#000000;stroke-width:0.8;"/>
      </defs>
      <g>
       <use style="stroke:#000000;stroke-width:0.8;" x="105.989938" xlink:href="#m7a689265cd" y="307.584"/>
      </g>
     </g>
     <g id="text_1">
      <!-- 20 -->
      <g transform="translate(99.627438 322.182437)scale(0.1 -0.1)">
       <defs>
        <path d="M 19.1875 8.296875 
L 53.609375 8.296875 
L 53.609375 0 
L 7.328125 0 
L 7.328125 8.296875 
Q 12.9375 14.109375 22.625 23.890625 
Q 32.328125 33.6875 34.8125 36.53125 
Q 39.546875 41.84375 41.421875 45.53125 
Q 43.3125 49.21875 43.3125 52.78125 
Q 43.3125 58.59375 39.234375 62.25 
Q 35.15625 65.921875 28.609375 65.921875 
Q 23.96875 65.921875 18.8125 64.3125 
Q 13.671875 62.703125 7.8125 59.421875 
L 7.8125 69.390625 
Q 13.765625 71.78125 18.9375 73 
Q 24.125 74.21875 28.421875 74.21875 
Q 39.75 74.21875 46.484375 68.546875 
Q 53.21875 62.890625 53.21875 53.421875 
Q 53.21875 48.921875 51.53125 44.890625 
Q 49.859375 40.875 45.40625 35.40625 
Q 44.1875 33.984375 37.640625 27.21875 
Q 31.109375 20.453125 19.1875 8.296875 
z
" id="DejaVuSans-50"/>
        <path d="M 31.78125 66.40625 
Q 24.171875 66.40625 20.328125 58.90625 
Q 16.5 51.421875 16.5 36.375 
Q 16.5 21.390625 20.328125 13.890625 
Q 24.171875 6.390625 31.78125 6.390625 
Q 39.453125 6.390625 43.28125 13.890625 
Q 47.125 21.390625 47.125 36.375 
Q 47.125 51.421875 43.28125 58.90625 
Q 39.453125 66.40625 31.78125 66.40625 
z
M 31.78125 74.21875 
Q 44.046875 74.21875 50.515625 64.515625 
Q 56.984375 54.828125 56.984375 36.375 
Q 56.984375 17.96875 50.515625 8.265625 
Q 44.046875 -1.421875 31.78125 -1.421875 
Q 19.53125 -1.421875 13.0625 8.265625 
Q 6.59375 17.96875 6.59375 36.375 
Q 6.59375 54.828125 13.0625 64.515625 
Q 19.53125 74.21875 31.78125 74.21875 
z
" id="DejaVuSans-48"/>
       </defs>
       <use xlink:href="#DejaVuSans-50"/>
       <use x="63.623047" xlink:href="#DejaVuSans-48"/>
      </g>
     </g>
    </g>
    <g id="xtick_2">
     <g id="line2d_2">
      <g>
       <use style="stroke:#000000;stroke-width:0.8;" x="160.167685" xlink:href="#m7a689265cd" y="307.584"/>
      </g>
     </g>
     <g id="text_2">
      <!-- 40 -->
      <g transform="translate(153.805185 322.182437)scale(0.1 -0.1)">
       <defs>
        <path d="M 37.796875 64.3125 
L 12.890625 25.390625 
L 37.796875 25.390625 
z
M 35.203125 72.90625 
L 47.609375 72.90625 
L 47.609375 25.390625 
L 58.015625 25.390625 
L 58.015625 17.1875 
L 47.609375 17.1875 
L 47.609375 0 
L 37.796875 0 
L 37.796875 17.1875 
L 4.890625 17.1875 
L 4.890625 26.703125 
z
" id="DejaVuSans-52"/>
       </defs>
       <use xlink:href="#DejaVuSans-52"/>
       <use x="63.623047" xlink:href="#DejaVuSans-48"/>
      </g>
     </g>
    </g>
    <g id="xtick_3">
     <g id="line2d_3">
      <g>
       <use style="stroke:#000000;stroke-width:0.8;" x="214.345432" xlink:href="#m7a689265cd" y="307.584"/>
      </g>
     </g>
     <g id="text_3">
      <!-- 60 -->
      <g transform="translate(207.982932 322.182437)scale(0.1 -0.1)">
       <defs>
        <path d="M 33.015625 40.375 
Q 26.375 40.375 22.484375 35.828125 
Q 18.609375 31.296875 18.609375 23.390625 
Q 18.609375 15.53125 22.484375 10.953125 
Q 26.375 6.390625 33.015625 6.390625 
Q 39.65625 6.390625 43.53125 10.953125 
Q 47.40625 15.53125 47.40625 23.390625 
Q 47.40625 31.296875 43.53125 35.828125 
Q 39.65625 40.375 33.015625 40.375 
z
M 52.59375 71.296875 
L 52.59375 62.3125 
Q 48.875 64.0625 45.09375 64.984375 
Q 41.3125 65.921875 37.59375 65.921875 
Q 27.828125 65.921875 22.671875 59.328125 
Q 17.53125 52.734375 16.796875 39.40625 
Q 19.671875 43.65625 24.015625 45.921875 
Q 28.375 48.1875 33.59375 48.1875 
Q 44.578125 48.1875 50.953125 41.515625 
Q 57.328125 34.859375 57.328125 23.390625 
Q 57.328125 12.15625 50.6875 5.359375 
Q 44.046875 -1.421875 33.015625 -1.421875 
Q 20.359375 -1.421875 13.671875 8.265625 
Q 6.984375 17.96875 6.984375 36.375 
Q 6.984375 53.65625 15.1875 63.9375 
Q 23.390625 74.21875 37.203125 74.21875 
Q 40.921875 74.21875 44.703125 73.484375 
Q 48.484375 72.75 52.59375 71.296875 
z
" id="DejaVuSans-54"/>
       </defs>
       <use xlink:href="#DejaVuSans-54"/>
       <use x="63.623047" xlink:href="#DejaVuSans-48"/>
      </g>
     </g>
    </g>
    <g id="xtick_4">
     <g id="line2d_4">
      <g>
       <use style="stroke:#000000;stroke-width:0.8;" x="268.523179" xlink:href="#m7a689265cd" y="307.584"/>
      </g>
     </g>
     <g id="text_4">
      <!-- 80 -->
      <g transform="translate(262.160679 322.182437)scale(0.1 -0.1)">
       <defs>
        <path d="M 31.78125 34.625 
Q 24.75 34.625 20.71875 30.859375 
Q 16.703125 27.09375 16.703125 20.515625 
Q 16.703125 13.921875 20.71875 10.15625 
Q 24.75 6.390625 31.78125 6.390625 
Q 38.8125 6.390625 42.859375 10.171875 
Q 46.921875 13.96875 46.921875 20.515625 
Q 46.921875 27.09375 42.890625 30.859375 
Q 38.875 34.625 31.78125 34.625 
z
M 21.921875 38.8125 
Q 15.578125 40.375 12.03125 44.71875 
Q 8.5 49.078125 8.5 55.328125 
Q 8.5 64.0625 14.71875 69.140625 
Q 20.953125 74.21875 31.78125 74.21875 
Q 42.671875 74.21875 48.875 69.140625 
Q 55.078125 64.0625 55.078125 55.328125 
Q 55.078125 49.078125 51.53125 44.71875 
Q 48 40.375 41.703125 38.8125 
Q 48.828125 37.15625 52.796875 32.3125 
Q 56.78125 27.484375 56.78125 20.515625 
Q 56.78125 9.90625 50.3125 4.234375 
Q 43.84375 -1.421875 31.78125 -1.421875 
Q 19.734375 -1.421875 13.25 4.234375 
Q 6.78125 9.90625 6.78125 20.515625 
Q 6.78125 27.484375 10.78125 32.3125 
Q 14.796875 37.15625 21.921875 38.8125 
z
M 18.3125 54.390625 
Q 18.3125 48.734375 21.84375 45.5625 
Q 25.390625 42.390625 31.78125 42.390625 
Q 38.140625 42.390625 41.71875 45.5625 
Q 45.3125 48.734375 45.3125 54.390625 
Q 45.3125 60.0625 41.71875 63.234375 
Q 38.140625 66.40625 31.78125 66.40625 
Q 25.390625 66.40625 21.84375 63.234375 
Q 18.3125 60.0625 18.3125 54.390625 
z
" id="DejaVuSans-56"/>
       </defs>
       <use xlink:href="#DejaVuSans-56"/>
       <use x="63.623047" xlink:href="#DejaVuSans-48"/>
      </g>
     </g>
    </g>
    <g id="xtick_5">
     <g id="line2d_5">
      <g>
       <use style="stroke:#000000;stroke-width:0.8;" x="322.700926" xlink:href="#m7a689265cd" y="307.584"/>
      </g>
     </g>
     <g id="text_5">
      <!-- 100 -->
      <g transform="translate(313.157176 322.182437)scale(0.1 -0.1)">
       <defs>
        <path d="M 12.40625 8.296875 
L 28.515625 8.296875 
L 28.515625 63.921875 
L 10.984375 60.40625 
L 10.984375 69.390625 
L 28.421875 72.90625 
L 38.28125 72.90625 
L 38.28125 8.296875 
L 54.390625 8.296875 
L 54.390625 0 
L 12.40625 0 
z
" id="DejaVuSans-49"/>
       </defs>
       <use xlink:href="#DejaVuSans-49"/>
       <use x="63.623047" xlink:href="#DejaVuSans-48"/>
       <use x="127.246094" xlink:href="#DejaVuSans-48"/>
      </g>
     </g>
    </g>
    <g id="xtick_6">
     <g id="line2d_6">
      <g>
       <use style="stroke:#000000;stroke-width:0.8;" x="376.878673" xlink:href="#m7a689265cd" y="307.584"/>
      </g>
     </g>
     <g id="text_6">
      <!-- 120 -->
      <g transform="translate(367.334923 322.182437)scale(0.1 -0.1)">
       <use xlink:href="#DejaVuSans-49"/>
       <use x="63.623047" xlink:href="#DejaVuSans-50"/>
       <use x="127.246094" xlink:href="#DejaVuSans-48"/>
      </g>
     </g>
    </g>
   </g>
   <g id="matplotlib.axis_2">
    <g id="ytick_1">
     <g id="line2d_7">
      <defs>
       <path d="M 0 0 
L -3.5 0 
" id="m249ae15389" style="stroke:#000000;stroke-width:0.8;"/>
      </defs>
      <g>
       <use style="stroke:#000000;stroke-width:0.8;" x="57.6" xlink:href="#m249ae15389" y="297.590038"/>
      </g>
     </g>
     <g id="text_7">
      <!-- 0 -->
      <g transform="translate(44.2375 301.389257)scale(0.1 -0.1)">
       <use xlink:href="#DejaVuSans-48"/>
      </g>
     </g>
    </g>
    <g id="ytick_2">
     <g id="line2d_8">
      <g>
       <use style="stroke:#000000;stroke-width:0.8;" x="57.6" xlink:href="#m249ae15389" y="243.412291"/>
      </g>
     </g>
     <g id="text_8">
      <!-- 20 -->
      <g transform="translate(37.875 247.21151)scale(0.1 -0.1)">
       <use xlink:href="#DejaVuSans-50"/>
       <use x="63.623047" xlink:href="#DejaVuSans-48"/>
      </g>
     </g>
    </g>
    <g id="ytick_3">
     <g id="line2d_9">
      <g>
       <use style="stroke:#000000;stroke-width:0.8;" x="57.6" xlink:href="#m249ae15389" y="189.234544"/>
      </g>
     </g>
     <g id="text_9">
      <!-- 40 -->
      <g transform="translate(37.875 193.033763)scale(0.1 -0.1)">
       <use xlink:href="#DejaVuSans-52"/>
       <use x="63.623047" xlink:href="#DejaVuSans-48"/>
      </g>
     </g>
    </g>
    <g id="ytick_4">
     <g id="line2d_10">
      <g>
       <use style="stroke:#000000;stroke-width:0.8;" x="57.6" xlink:href="#m249ae15389" y="135.056797"/>
      </g>
     </g>
     <g id="text_10">
      <!-- 60 -->
      <g transform="translate(37.875 138.856016)scale(0.1 -0.1)">
       <use xlink:href="#DejaVuSans-54"/>
       <use x="63.623047" xlink:href="#DejaVuSans-48"/>
      </g>
     </g>
    </g>
    <g id="ytick_5">
     <g id="line2d_11">
      <g>
       <use style="stroke:#000000;stroke-width:0.8;" x="57.6" xlink:href="#m249ae15389" y="80.87905"/>
      </g>
     </g>
     <g id="text_11">
      <!-- 80 -->
      <g transform="translate(37.875 84.678268)scale(0.1 -0.1)">
       <use xlink:href="#DejaVuSans-56"/>
       <use x="63.623047" xlink:href="#DejaVuSans-48"/>
      </g>
     </g>
    </g>
   </g>
   <g id="line2d_12">
    <path clip-path="url(#p636b46216a)" d="M 78.901064 171.117505 
L 105.25583 184.997844 
L 112.548154 188.524815 
L 119.970506 191.829658 
L 125.017163 193.874868 
L 130.155922 195.776507 
L 135.386784 197.461435 
L 140.690785 198.824005 
L 143.367166 199.34682 
L 146.051673 199.747736 
L 148.747016 200.007789 
L 151.450486 200.116144 
L 154.156664 200.059258 
L 156.865551 199.823585 
L 159.563603 199.411834 
L 162.245402 198.834841 
L 164.894694 198.092605 
L 167.500643 197.193255 
L 170.055124 196.142207 
L 172.5473 194.950296 
L 174.960919 193.614815 
L 177.290562 192.149307 
L 179.525394 190.556481 
L 181.651871 188.841755 
L 183.672701 187.018674 
L 185.596011 185.089946 
L 187.421801 183.069116 
L 189.155489 180.964311 
L 192.357393 176.537989 
L 195.236941 171.886829 
L 197.823928 167.081263 
L 200.148154 162.167341 
L 202.242123 157.161318 
L 204.135636 152.084863 
L 205.863906 146.948812 
L 208.220638 139.179723 
L 211.346694 128.818229 
L 213.121015 123.695723 
L 215.171643 118.643648 
L 217.577135 113.705347 
L 218.926161 111.302564 
L 220.378124 108.962085 
L 221.930317 106.697455 
L 223.590865 104.51951 
L 225.362477 102.439084 
L 227.242445 100.472432 
L 229.238895 98.62768 
L 231.351827 96.921081 
L 233.58395 95.360761 
L 235.92172 93.949431 
L 238.35701 92.689799 
L 240.873566 91.584573 
L 243.457845 90.631044 
L 246.101719 89.831922 
L 248.791644 89.189916 
L 251.511367 88.702316 
L 254.252761 88.374541 
L 257.002281 88.20659 
L 259.746384 88.195754 
L 262.479652 88.339325 
L 265.199374 88.629176 
L 267.900135 89.05989 
L 270.576516 89.623338 
L 273.22039 90.316813 
L 275.831757 91.129479 
L 278.4052 92.055919 
L 280.935301 93.088005 
L 285.841096 95.452864 
L 290.543725 98.167169 
L 295.062149 101.179452 
L 299.409913 104.440952 
L 303.611397 107.894783 
L 307.682855 111.489477 
L 313.612609 117.05624 
L 329.251016 132.033678 
L 349.218225 150.359301 
L 353.064845 154.189668 
L 356.784147 158.133808 
L 360.349043 162.21881 
L 363.721607 166.469055 
L 366.869335 170.906212 
L 369.762426 175.522156 
L 372.38192 180.295216 
L 374.700728 185.209137 
L 376.69176 190.250377 
L 378.349599 195.399971 
L 379.728423 200.633542 
L 380.893244 205.932125 
L 382.402095 213.947723 
L 385.146198 230.008716 
L 386.294766 238.045985 
L 386.904265 243.412291 
L 387.353941 248.792141 
L 387.608576 254.188245 
L 387.635665 259.600602 
L 387.40541 265.037339 
L 386.882594 270.501164 
L 386.882594 270.501164 
" style="fill:none;stroke:#fea952;stroke-linecap:square;"/>
   </g>
   <g id="line2d_13">
    <path clip-path="url(#p636b46216a)" d="M 83.969402 161.540392 
L 110.062446 175.286739 
L 117.07442 178.679916 
L 124.117312 181.819007 
L 128.868767 183.746972 
L 133.604839 185.504501 
L 138.26587 187.015383 
L 142.768181 188.18946 
L 147.092281 188.96227 
L 151.222762 189.282988 
L 153.217519 189.264484 
L 155.23086 189.112053 
L 157.284472 188.81869 
L 159.32223 188.40104 
L 161.35978 187.849875 
L 163.377682 187.17276 
L 165.380067 186.367087 
L 167.301362 185.469301 
L 169.191272 184.443102 
L 171.001636 183.325558 
L 172.723771 182.121609 
L 174.393742 180.79634 
L 176.000042 179.367567 
L 177.555959 177.825878 
L 180.503844 174.440648 
L 183.240672 170.681836 
L 185.764966 166.624621 
L 188.083206 162.334953 
L 190.195439 157.883347 
L 192.124351 153.283199 
L 193.89131 148.554577 
L 196.300974 141.234782 
L 202.005287 122.594168 
L 204.127716 116.938592 
L 206.67488 111.230209 
L 208.128871 108.400684 
L 209.718526 105.59042 
L 211.440452 102.836144 
L 213.313592 100.127738 
L 215.341198 97.494403 
L 217.529913 94.951757 
L 219.888872 92.51416 
L 222.430517 90.19826 
L 225.143835 88.040204 
L 227.983835 86.084564 
L 230.94362 84.325105 
L 233.999916 82.768868 
L 237.122721 81.41893 
L 240.32283 80.258927 
L 243.586244 79.292401 
L 246.879503 78.524418 
L 250.224974 77.943398 
L 253.592116 77.55915 
L 256.959496 77.371125 
L 260.314762 77.375122 
L 263.627934 77.564792 
L 266.905846 77.928845 
L 270.132372 78.456765 
L 273.325632 79.142332 
L 276.440139 79.970686 
L 279.501969 80.934447 
L 282.497855 82.023008 
L 285.446647 83.236259 
L 288.311449 84.557447 
L 291.093208 85.975287 
L 296.416243 89.060981 
L 301.455844 92.431321 
L 306.201187 95.997746 
L 310.719849 99.716823 
L 315.0189 103.515044 
L 321.143369 109.265426 
L 336.558123 124.032721 
L 356.809503 142.627444 
L 360.882122 146.686381 
L 364.867176 150.917592 
L 368.75071 155.376215 
L 372.473494 160.080501 
L 375.967117 165.02068 
L 379.181572 170.16596 
L 382.109962 175.522969 
L 384.712035 181.063915 
L 386.952677 186.768607 
L 388.79403 192.515009 
L 390.291752 198.219994 
L 391.524152 203.836194 
L 393.073417 212.068361 
L 395.858986 228.382281 
L 397.052875 236.752839 
L 397.694509 242.42246 
L 398.171754 248.172427 
L 398.442733 254.014551 
L 398.466371 259.924551 
L 398.205212 265.916766 
L 397.653294 271.684875 
L 397.653294 271.684875 
" style="fill:none;stroke:#ffffff;stroke-linecap:square;"/>
   </g>
   <g id="line2d_14">
    <path clip-path="url(#p636b46216a)" d="M 73.832727 180.694618 
L 100.449213 194.708949 
L 108.021888 198.369715 
L 115.823699 201.840309 
L 121.165558 204.002764 
L 126.707005 206.048513 
L 132.507698 207.907486 
L 135.518987 208.730554 
L 138.613389 209.458551 
L 141.76669 210.063518 
L 145.011065 210.533201 
L 148.313074 210.834646 
L 151.67821 210.949301 
L 155.095809 210.854031 
L 158.500243 210.535116 
L 161.842734 210.004977 
L 165.168573 209.268642 
L 168.429607 208.335336 
L 171.623604 207.21375 
L 174.730181 205.917327 
L 177.793238 204.431291 
L 180.730566 202.786527 
L 183.579488 200.973055 
L 186.327017 198.991353 
L 188.909999 196.88717 
L 191.34536 194.669781 
L 193.636063 192.354015 
L 195.785467 189.958108 
L 197.807133 187.487973 
L 199.703271 184.959176 
L 203.142973 179.785001 
L 206.172657 174.506434 
L 208.864178 169.153915 
L 211.259647 163.753417 
L 213.397928 158.326359 
L 215.313308 152.90321 
L 217.851293 144.834614 
L 221.622942 132.254485 
L 223.219798 127.623028 
L 225.000459 123.204733 
L 227.025399 119.010009 
L 229.315797 115.088025 
L 231.840532 111.544617 
L 233.195041 109.926411 
L 234.596018 108.430704 
L 236.047273 107.0571 
L 237.559818 105.801957 
L 239.184065 104.636959 
L 240.89982 103.573757 
L 242.714103 102.610729 
L 244.624411 101.750215 
L 246.592859 101.003161 
L 248.617194 100.371444 
L 250.703785 99.855414 
L 252.797759 99.461235 
L 254.913405 99.189932 
L 257.045067 99.042055 
L 259.178006 99.016386 
L 261.33137 99.113859 
L 263.492902 99.329507 
L 267.827399 100.104344 
L 272.161546 101.324511 
L 276.423955 102.939751 
L 280.588984 104.93044 
L 284.671206 107.273357 
L 288.668453 109.927582 
L 292.618639 112.884158 
L 296.502945 116.072744 
L 300.34681 119.463909 
L 306.08185 124.847055 
L 321.943909 140.034636 
L 341.626946 158.091159 
L 346.993403 163.509403 
L 350.344526 167.186699 
L 353.488241 170.947815 
L 356.403568 174.815139 
L 359.085612 178.814802 
L 361.531891 182.958553 
L 363.71086 187.210746 
L 365.596158 191.528971 
L 367.196278 195.971335 
L 368.560053 200.644292 
L 369.730875 205.51674 
L 371.255708 213.187975 
L 374.017581 229.053962 
L 375.196694 236.796253 
L 376.114021 244.402122 
L 376.536127 249.411855 
L 376.774419 254.361939 
L 376.804959 259.276652 
L 376.605607 264.157911 
L 376.111895 269.317454 
L 376.111895 269.317454 
" style="fill:none;stroke:#ffffff;stroke-linecap:square;"/>
   </g>
   <g id="patch_3">
    <path d="M 57.6 307.584 
L 57.6 41.472 
" style="fill:none;stroke:#000000;stroke-linecap:square;stroke-linejoin:miter;stroke-width:0.8;"/>
   </g>
   <g id="patch_4">
    <path d="M 414.72 307.584 
L 414.72 41.472 
" style="fill:none;stroke:#000000;stroke-linecap:square;stroke-linejoin:miter;stroke-width:0.8;"/>
   </g>
   <g id="patch_5">
    <path d="M 57.6 307.584 
L 414.72 307.584 
" style="fill:none;stroke:#000000;stroke-linecap:square;stroke-linejoin:miter;stroke-width:0.8;"/>
   </g>
   <g id="patch_6">
    <path d="M 57.6 41.472 
L 414.72 41.472 
" style="fill:none;stroke:#000000;stroke-linecap:square;stroke-linejoin:miter;stroke-width:0.8;"/>
   </g>
  </g>
 </g>
 <defs>
  <clipPath id="p636b46216a">
   <rect height="266.112" width="357.12" x="57.6" y="41.472"/>
  </clipPath>
 </defs>
</svg>
