<?xml version="1.0" encoding="utf-8" standalone="no"?>
<!DOCTYPE svg PUBLIC "-//W3C//DTD SVG 1.1//EN"
  "http://www.w3.org/Graphics/SVG/1.1/DTD/svg11.dtd">
<!-- Created with matplotlib (https://matplotlib.org/) -->
<svg height="345.6pt" version="1.1" viewBox="0 0 460.8 345.6" width="460.8pt" xmlns="http://www.w3.org/2000/svg" xmlns:xlink="http://www.w3.org/1999/xlink">
 <metadata>
  <rdf:RDF xmlns:cc="http://creativecommons.org/ns#" xmlns:dc="http://purl.org/dc/elements/1.1/" xmlns:rdf="http://www.w3.org/1999/02/22-rdf-syntax-ns#">
   <cc:Work>
    <dc:type rdf:resource="http://purl.org/dc/dcmitype/StillImage"/>
    <dc:date>2021-01-22T09:19:49.073642</dc:date>
    <dc:format>image/svg+xml</dc:format>
    <dc:creator>
     <cc:Agent>
      <dc:title>Matplotlib v3.3.3, https://matplotlib.org/</dc:title>
     </cc:Agent>
    </dc:creator>
   </cc:Work>
  </rdf:RDF>
 </metadata>
 <defs>
  <style type="text/css">*{stroke-linecap:butt;stroke-linejoin:round;}</style>
 </defs>
 <g id="figure_1">
  <g id="patch_1">
   <path d="M 0 345.6 
L 460.8 345.6 
L 460.8 0 
L 0 0 
z
" style="fill:#ffffff;"/>
  </g>
  <g id="axes_1">
   <g id="patch_2">
    <path d="M 57.6 307.584 
L 414.72 307.584 
L 414.72 41.472 
L 57.6 41.472 
z
" style="fill:#7d9051;"/>
   </g>
   <g id="matplotlib.axis_1">
    <g id="xtick_1">
     <g id="line2d_1">
      <defs>
       <path d="M 0 0 
L 0 3.5 
" id="m8209735577" style="stroke:#000000;stroke-width:0.8;"/>
      </defs>
      <g>
       <use style="stroke:#000000;stroke-width:0.8;" x="90.642626" xlink:href="#m8209735577" y="307.584"/>
      </g>
     </g>
     <g id="text_1">
      <!-- −20 -->
      <g transform="translate(80.090282 322.182437)scale(0.1 -0.1)">
       <defs>
        <path d="M 10.59375 35.5 
L 73.1875 35.5 
L 73.1875 27.203125 
L 10.59375 27.203125 
z
" id="DejaVuSans-8722"/>
        <path d="M 19.1875 8.296875 
L 53.609375 8.296875 
L 53.609375 0 
L 7.328125 0 
L 7.328125 8.296875 
Q 12.9375 14.109375 22.625 23.890625 
Q 32.328125 33.6875 34.8125 36.53125 
Q 39.546875 41.84375 41.421875 45.53125 
Q 43.3125 49.21875 43.3125 52.78125 
Q 43.3125 58.59375 39.234375 62.25 
Q 35.15625 65.921875 28.609375 65.921875 
Q 23.96875 65.921875 18.8125 64.3125 
Q 13.671875 62.703125 7.8125 59.421875 
L 7.8125 69.390625 
Q 13.765625 71.78125 18.9375 73 
Q 24.125 74.21875 28.421875 74.21875 
Q 39.75 74.21875 46.484375 68.546875 
Q 53.21875 62.890625 53.21875 53.421875 
Q 53.21875 48.921875 51.53125 44.890625 
Q 49.859375 40.875 45.40625 35.40625 
Q 44.1875 33.984375 37.640625 27.21875 
Q 31.109375 20.453125 19.1875 8.296875 
z
" id="DejaVuSans-50"/>
        <path d="M 31.78125 66.40625 
Q 24.171875 66.40625 20.328125 58.90625 
Q 16.5 51.421875 16.5 36.375 
Q 16.5 21.390625 20.328125 13.890625 
Q 24.171875 6.390625 31.78125 6.390625 
Q 39.453125 6.390625 43.28125 13.890625 
Q 47.125 21.390625 47.125 36.375 
Q 47.125 51.421875 43.28125 58.90625 
Q 39.453125 66.40625 31.78125 66.40625 
z
M 31.78125 74.21875 
Q 44.046875 74.21875 50.515625 64.515625 
Q 56.984375 54.828125 56.984375 36.375 
Q 56.984375 17.96875 50.515625 8.265625 
Q 44.046875 -1.421875 31.78125 -1.421875 
Q 19.53125 -1.421875 13.0625 8.265625 
Q 6.59375 17.96875 6.59375 36.375 
Q 6.59375 54.828125 13.0625 64.515625 
Q 19.53125 74.21875 31.78125 74.21875 
z
" id="DejaVuSans-48"/>
       </defs>
       <use xlink:href="#DejaVuSans-8722"/>
       <use x="83.789062" xlink:href="#DejaVuSans-50"/>
       <use x="147.412109" xlink:href="#DejaVuSans-48"/>
      </g>
     </g>
    </g>
    <g id="xtick_2">
     <g id="line2d_2">
      <g>
       <use style="stroke:#000000;stroke-width:0.8;" x="136.748556" xlink:href="#m8209735577" y="307.584"/>
      </g>
     </g>
     <g id="text_2">
      <!-- 0 -->
      <g transform="translate(133.567306 322.182437)scale(0.1 -0.1)">
       <use xlink:href="#DejaVuSans-48"/>
      </g>
     </g>
    </g>
    <g id="xtick_3">
     <g id="line2d_3">
      <g>
       <use style="stroke:#000000;stroke-width:0.8;" x="182.854486" xlink:href="#m8209735577" y="307.584"/>
      </g>
     </g>
     <g id="text_3">
      <!-- 20 -->
      <g transform="translate(176.491986 322.182437)scale(0.1 -0.1)">
       <use xlink:href="#DejaVuSans-50"/>
       <use x="63.623047" xlink:href="#DejaVuSans-48"/>
      </g>
     </g>
    </g>
    <g id="xtick_4">
     <g id="line2d_4">
      <g>
       <use style="stroke:#000000;stroke-width:0.8;" x="228.960416" xlink:href="#m8209735577" y="307.584"/>
      </g>
     </g>
     <g id="text_4">
      <!-- 40 -->
      <g transform="translate(222.597916 322.182437)scale(0.1 -0.1)">
       <defs>
        <path d="M 37.796875 64.3125 
L 12.890625 25.390625 
L 37.796875 25.390625 
z
M 35.203125 72.90625 
L 47.609375 72.90625 
L 47.609375 25.390625 
L 58.015625 25.390625 
L 58.015625 17.1875 
L 47.609375 17.1875 
L 47.609375 0 
L 37.796875 0 
L 37.796875 17.1875 
L 4.890625 17.1875 
L 4.890625 26.703125 
z
" id="DejaVuSans-52"/>
       </defs>
       <use xlink:href="#DejaVuSans-52"/>
       <use x="63.623047" xlink:href="#DejaVuSans-48"/>
      </g>
     </g>
    </g>
    <g id="xtick_5">
     <g id="line2d_5">
      <g>
       <use style="stroke:#000000;stroke-width:0.8;" x="275.066346" xlink:href="#m8209735577" y="307.584"/>
      </g>
     </g>
     <g id="text_5">
      <!-- 60 -->
      <g transform="translate(268.703846 322.182437)scale(0.1 -0.1)">
       <defs>
        <path d="M 33.015625 40.375 
Q 26.375 40.375 22.484375 35.828125 
Q 18.609375 31.296875 18.609375 23.390625 
Q 18.609375 15.53125 22.484375 10.953125 
Q 26.375 6.390625 33.015625 6.390625 
Q 39.65625 6.390625 43.53125 10.953125 
Q 47.40625 15.53125 47.40625 23.390625 
Q 47.40625 31.296875 43.53125 35.828125 
Q 39.65625 40.375 33.015625 40.375 
z
M 52.59375 71.296875 
L 52.59375 62.3125 
Q 48.875 64.0625 45.09375 64.984375 
Q 41.3125 65.921875 37.59375 65.921875 
Q 27.828125 65.921875 22.671875 59.328125 
Q 17.53125 52.734375 16.796875 39.40625 
Q 19.671875 43.65625 24.015625 45.921875 
Q 28.375 48.1875 33.59375 48.1875 
Q 44.578125 48.1875 50.953125 41.515625 
Q 57.328125 34.859375 57.328125 23.390625 
Q 57.328125 12.15625 50.6875 5.359375 
Q 44.046875 -1.421875 33.015625 -1.421875 
Q 20.359375 -1.421875 13.671875 8.265625 
Q 6.984375 17.96875 6.984375 36.375 
Q 6.984375 53.65625 15.1875 63.9375 
Q 23.390625 74.21875 37.203125 74.21875 
Q 40.921875 74.21875 44.703125 73.484375 
Q 48.484375 72.75 52.59375 71.296875 
z
" id="DejaVuSans-54"/>
       </defs>
       <use xlink:href="#DejaVuSans-54"/>
       <use x="63.623047" xlink:href="#DejaVuSans-48"/>
      </g>
     </g>
    </g>
    <g id="xtick_6">
     <g id="line2d_6">
      <g>
       <use style="stroke:#000000;stroke-width:0.8;" x="321.172276" xlink:href="#m8209735577" y="307.584"/>
      </g>
     </g>
     <g id="text_6">
      <!-- 80 -->
      <g transform="translate(314.809776 322.182437)scale(0.1 -0.1)">
       <defs>
        <path d="M 31.78125 34.625 
Q 24.75 34.625 20.71875 30.859375 
Q 16.703125 27.09375 16.703125 20.515625 
Q 16.703125 13.921875 20.71875 10.15625 
Q 24.75 6.390625 31.78125 6.390625 
Q 38.8125 6.390625 42.859375 10.171875 
Q 46.921875 13.96875 46.921875 20.515625 
Q 46.921875 27.09375 42.890625 30.859375 
Q 38.875 34.625 31.78125 34.625 
z
M 21.921875 38.8125 
Q 15.578125 40.375 12.03125 44.71875 
Q 8.5 49.078125 8.5 55.328125 
Q 8.5 64.0625 14.71875 69.140625 
Q 20.953125 74.21875 31.78125 74.21875 
Q 42.671875 74.21875 48.875 69.140625 
Q 55.078125 64.0625 55.078125 55.328125 
Q 55.078125 49.078125 51.53125 44.71875 
Q 48 40.375 41.703125 38.8125 
Q 48.828125 37.15625 52.796875 32.3125 
Q 56.78125 27.484375 56.78125 20.515625 
Q 56.78125 9.90625 50.3125 4.234375 
Q 43.84375 -1.421875 31.78125 -1.421875 
Q 19.734375 -1.421875 13.25 4.234375 
Q 6.78125 9.90625 6.78125 20.515625 
Q 6.78125 27.484375 10.78125 32.3125 
Q 14.796875 37.15625 21.921875 38.8125 
z
M 18.3125 54.390625 
Q 18.3125 48.734375 21.84375 45.5625 
Q 25.390625 42.390625 31.78125 42.390625 
Q 38.140625 42.390625 41.71875 45.5625 
Q 45.3125 48.734375 45.3125 54.390625 
Q 45.3125 60.0625 41.71875 63.234375 
Q 38.140625 66.40625 31.78125 66.40625 
Q 25.390625 66.40625 21.84375 63.234375 
Q 18.3125 60.0625 18.3125 54.390625 
z
" id="DejaVuSans-56"/>
       </defs>
       <use xlink:href="#DejaVuSans-56"/>
       <use x="63.623047" xlink:href="#DejaVuSans-48"/>
      </g>
     </g>
    </g>
    <g id="xtick_7">
     <g id="line2d_7">
      <g>
       <use style="stroke:#000000;stroke-width:0.8;" x="367.278206" xlink:href="#m8209735577" y="307.584"/>
      </g>
     </g>
     <g id="text_7">
      <!-- 100 -->
      <g transform="translate(357.734456 322.182437)scale(0.1 -0.1)">
       <defs>
        <path d="M 12.40625 8.296875 
L 28.515625 8.296875 
L 28.515625 63.921875 
L 10.984375 60.40625 
L 10.984375 69.390625 
L 28.421875 72.90625 
L 38.28125 72.90625 
L 38.28125 8.296875 
L 54.390625 8.296875 
L 54.390625 0 
L 12.40625 0 
z
" id="DejaVuSans-49"/>
       </defs>
       <use xlink:href="#DejaVuSans-49"/>
       <use x="63.623047" xlink:href="#DejaVuSans-48"/>
       <use x="127.246094" xlink:href="#DejaVuSans-48"/>
      </g>
     </g>
    </g>
    <g id="xtick_8">
     <g id="line2d_8">
      <g>
       <use style="stroke:#000000;stroke-width:0.8;" x="413.384136" xlink:href="#m8209735577" y="307.584"/>
      </g>
     </g>
     <g id="text_8">
      <!-- 120 -->
      <g transform="translate(403.840386 322.182437)scale(0.1 -0.1)">
       <use xlink:href="#DejaVuSans-49"/>
       <use x="63.623047" xlink:href="#DejaVuSans-50"/>
       <use x="127.246094" xlink:href="#DejaVuSans-48"/>
      </g>
     </g>
    </g>
   </g>
   <g id="matplotlib.axis_2">
    <g id="ytick_1">
     <g id="line2d_9">
      <defs>
       <path d="M 0 0 
L -3.5 0 
" id="m92c91aeb99" style="stroke:#000000;stroke-width:0.8;"/>
      </defs>
      <g>
       <use style="stroke:#000000;stroke-width:0.8;" x="57.6" xlink:href="#m92c91aeb99" y="271.528267"/>
      </g>
     </g>
     <g id="text_9">
      <!-- 20 -->
      <g transform="translate(37.875 275.327486)scale(0.1 -0.1)">
       <use xlink:href="#DejaVuSans-50"/>
       <use x="63.623047" xlink:href="#DejaVuSans-48"/>
      </g>
     </g>
    </g>
    <g id="ytick_2">
     <g id="line2d_10">
      <g>
       <use style="stroke:#000000;stroke-width:0.8;" x="57.6" xlink:href="#m92c91aeb99" y="225.422337"/>
      </g>
     </g>
     <g id="text_10">
      <!-- 40 -->
      <g transform="translate(37.875 229.221556)scale(0.1 -0.1)">
       <use xlink:href="#DejaVuSans-52"/>
       <use x="63.623047" xlink:href="#DejaVuSans-48"/>
      </g>
     </g>
    </g>
    <g id="ytick_3">
     <g id="line2d_11">
      <g>
       <use style="stroke:#000000;stroke-width:0.8;" x="57.6" xlink:href="#m92c91aeb99" y="179.316407"/>
      </g>
     </g>
     <g id="text_11">
      <!-- 60 -->
      <g transform="translate(37.875 183.115626)scale(0.1 -0.1)">
       <use xlink:href="#DejaVuSans-54"/>
       <use x="63.623047" xlink:href="#DejaVuSans-48"/>
      </g>
     </g>
    </g>
    <g id="ytick_4">
     <g id="line2d_12">
      <g>
       <use style="stroke:#000000;stroke-width:0.8;" x="57.6" xlink:href="#m92c91aeb99" y="133.210477"/>
      </g>
     </g>
     <g id="text_12">
      <!-- 80 -->
      <g transform="translate(37.875 137.009696)scale(0.1 -0.1)">
       <use xlink:href="#DejaVuSans-56"/>
       <use x="63.623047" xlink:href="#DejaVuSans-48"/>
      </g>
     </g>
    </g>
    <g id="ytick_5">
     <g id="line2d_13">
      <g>
       <use style="stroke:#000000;stroke-width:0.8;" x="57.6" xlink:href="#m92c91aeb99" y="87.104547"/>
      </g>
     </g>
     <g id="text_13">
      <!-- 100 -->
      <g transform="translate(31.5125 90.903765)scale(0.1 -0.1)">
       <use xlink:href="#DejaVuSans-49"/>
       <use x="63.623047" xlink:href="#DejaVuSans-48"/>
       <use x="127.246094" xlink:href="#DejaVuSans-48"/>
      </g>
     </g>
    </g>
   </g>
   <g id="line2d_14">
    <path clip-path="url(#pe887a8b2da)" d="M 179.765388 294.581232 
L 180.16651 289.917617 
L 180.341713 285.270139 
L 180.31866 280.634188 
L 180.120404 276.012068 
L 179.550996 269.098484 
L 178.7257 262.198732 
L 177.379407 253.016736 
L 174.739842 236.976483 
L 173.391244 230.159721 
L 171.77062 223.412118 
L 169.861835 216.74059 
L 167.005572 207.908999 
L 162.574792 194.637407 
L 161.329932 190.162827 
L 160.354792 185.63753 
L 159.741583 181.0546 
L 159.552549 176.414038 
L 159.780773 171.750424 
L 160.403203 167.109862 
L 161.399091 162.533848 
L 162.743079 158.066184 
L 164.407503 153.729921 
L 166.327815 149.508923 
L 168.439467 145.375526 
L 171.828253 139.280322 
L 181.001027 123.152468 
L 184.276854 117.022685 
L 190.685578 104.668601 
L 192.99318 100.648164 
L 195.492121 96.736076 
L 198.221592 92.966916 
L 201.176982 89.361432 
L 204.346765 85.944983 
L 207.721719 82.742926 
L 211.285708 79.776009 
L 215.029509 77.051149 
L 218.932376 74.552207 
L 222.973561 72.258437 
L 227.134621 70.146786 
L 231.392504 68.196505 
L 235.735682 66.426037 
L 240.161851 64.913763 
L 244.666401 63.744977 
L 246.948644 63.318497 
L 249.24933 63.007282 
L 251.568459 62.825164 
L 253.903724 62.781363 
L 256.252821 62.878186 
L 258.597308 63.115631 
L 260.930268 63.4937 
L 263.240175 64.007781 
L 265.513197 64.66018 
L 267.740114 65.443981 
L 269.907092 66.363794 
L 272.004912 67.412704 
L 274.019741 68.593016 
L 275.942358 69.902424 
L 277.770459 71.331708 
L 279.508652 72.871646 
L 281.16155 74.510712 
L 282.733762 76.237379 
L 285.645351 79.914327 
L 288.275695 83.819499 
L 290.659371 87.862989 
L 292.819434 91.996386 
L 294.785852 96.203552 
L 296.574762 100.475266 
L 298.983797 106.985424 
L 301.130028 113.590098 
L 303.721181 122.495459 
L 307.962927 138.189917 
L 309.61813 144.946741 
L 311.028971 151.742755 
L 311.780498 156.302632 
L 312.340685 160.890172 
L 312.679564 165.512291 
L 312.767165 170.171296 
L 312.566604 174.871795 
L 312.566604 174.871795 
" style="fill:none;stroke:#fea952;stroke-linecap:square;"/>
   </g>
   <g id="line2d_15">
    <path clip-path="url(#pe887a8b2da)" d="M 170.588894 293.674464 
L 170.956625 289.46123 
L 171.120691 285.215143 
L 171.102767 280.946591 
L 170.920422 276.637042 
L 170.384213 270.098664 
L 169.590528 263.455277 
L 168.270912 254.453956 
L 165.67618 238.673626 
L 164.392024 232.170771 
L 162.872657 225.832143 
L 161.055997 219.476919 
L 158.275093 210.876997 
L 153.721635 197.21653 
L 152.349083 192.254383 
L 151.244588 187.063875 
L 150.832796 184.374604 
L 150.539075 181.641214 
L 150.374325 178.904557 
L 150.334897 176.158752 
L 150.418522 173.438029 
L 150.617885 170.715172 
L 150.931726 168.008594 
L 151.886175 162.66912 
L 153.251696 157.455615 
L 154.987526 152.431588 
L 156.998044 147.674652 
L 159.19358 143.154867 
L 162.661634 136.748757 
L 175.031477 114.80315 
L 183.867723 97.978345 
L 186.511672 93.608683 
L 189.440206 89.315277 
L 192.631259 85.185994 
L 196.072864 81.2552 
L 199.768391 77.528738 
L 203.700112 74.043951 
L 207.828537 70.843586 
L 212.096384 67.942904 
L 216.484647 65.306585 
L 220.955334 62.914272 
L 225.488762 60.735402 
L 230.172464 58.707475 
L 235.100108 56.859882 
L 240.274035 55.310508 
L 242.97257 54.680695 
L 245.712547 54.180536 
L 248.527424 53.814398 
L 251.395535 53.6056 
L 254.28347 53.568 
L 257.181974 53.703931 
L 260.072406 54.013195 
L 262.933477 54.492732 
L 265.784113 55.144449 
L 268.574656 55.962034 
L 271.34307 56.955814 
L 274.030932 58.116115 
L 276.665909 59.456236 
L 279.210404 60.971514 
L 281.621993 62.637989 
L 283.885309 64.429616 
L 286.001562 66.323944 
L 287.97973 68.302436 
L 289.842168 70.363638 
L 291.571727 72.469266 
L 294.729722 76.825086 
L 297.505965 81.25633 
L 299.989725 85.74808 
L 302.224328 90.280052 
L 304.240368 94.851341 
L 306.061396 99.437552 
L 308.494471 106.330736 
L 310.646919 113.204396 
L 313.233152 122.2976 
L 317.489595 138.237797 
L 319.147663 145.323398 
L 320.113251 150.159679 
L 320.921276 155.087543 
L 321.527959 160.100066 
L 321.895508 165.201436 
L 321.985103 170.41602 
L 321.77194 175.412226 
L 321.77194 175.412226 
" style="fill:none;stroke:#ffffff;stroke-linecap:square;"/>
   </g>
   <g id="line2d_16">
    <path clip-path="url(#pe887a8b2da)" d="M 188.941883 295.488 
L 189.376395 290.374004 
L 189.562735 285.325135 
L 189.534552 280.321785 
L 189.320387 275.387095 
L 188.717779 268.098305 
L 187.860872 260.942187 
L 186.487901 251.579516 
L 183.803504 235.27934 
L 182.390463 228.148671 
L 181.277471 223.35592 
L 179.359569 216.313652 
L 177.228751 209.446573 
L 173.481079 198.34406 
L 171.42795 192.058285 
L 170.310782 188.07127 
L 169.464996 184.211185 
L 168.944091 180.467986 
L 168.7702 176.669325 
L 168.943662 172.785676 
L 169.451205 168.888606 
L 170.279423 165.017793 
L 171.407218 161.222602 
L 172.851979 157.434121 
L 174.580983 153.621767 
L 176.543428 149.775081 
L 179.828281 143.866151 
L 189.096617 127.56741 
L 192.472556 121.24888 
L 199.771845 107.315367 
L 201.918302 103.745587 
L 204.218181 100.348524 
L 206.711988 97.096248 
L 209.402473 94.000498 
L 212.249376 91.106149 
L 215.261208 88.412741 
L 218.445185 85.923634 
L 221.826311 83.609735 
L 225.391321 81.455648 
L 229.122879 79.449456 
L 233.017614 77.571004 
L 236.937279 75.86435 
L 240.778983 74.406148 
L 244.535775 73.253715 
L 248.184741 72.456459 
L 251.741382 72.044728 
L 255.323668 72.05244 
L 258.927058 72.494668 
L 260.696237 72.871113 
L 264.137158 73.932148 
L 267.343915 75.369172 
L 268.829078 76.214518 
L 270.262724 77.16686 
L 271.655608 78.2338 
L 274.34337 80.718988 
L 276.87885 83.615586 
L 279.258177 86.862634 
L 281.489039 90.398494 
L 283.542102 94.090548 
L 285.42937 97.899138 
L 287.161741 101.81134 
L 289.518678 107.874571 
L 291.637819 114.132381 
L 293.590914 120.571712 
L 296.661383 131.627736 
L 299.579685 142.637366 
L 301.093706 149.088465 
L 302.313659 155.434047 
L 302.920235 159.612119 
L 303.334693 163.754134 
L 303.536829 167.872441 
L 303.499586 171.975351 
L 303.361268 174.331364 
L 303.361268 174.331364 
" style="fill:none;stroke:#ffffff;stroke-linecap:square;"/>
   </g>
   <g id="patch_3">
    <path d="M 57.6 307.584 
L 57.6 41.472 
" style="fill:none;stroke:#000000;stroke-linecap:square;stroke-linejoin:miter;stroke-width:0.8;"/>
   </g>
   <g id="patch_4">
    <path d="M 414.72 307.584 
L 414.72 41.472 
" style="fill:none;stroke:#000000;stroke-linecap:square;stroke-linejoin:miter;stroke-width:0.8;"/>
   </g>
   <g id="patch_5">
    <path d="M 57.6 307.584 
L 414.72 307.584 
" style="fill:none;stroke:#000000;stroke-linecap:square;stroke-linejoin:miter;stroke-width:0.8;"/>
   </g>
   <g id="patch_6">
    <path d="M 57.6 41.472 
L 414.72 41.472 
" style="fill:none;stroke:#000000;stroke-linecap:square;stroke-linejoin:miter;stroke-width:0.8;"/>
   </g>
  </g>
 </g>
 <defs>
  <clipPath id="pe887a8b2da">
   <rect height="266.112" width="357.12" x="57.6" y="41.472"/>
  </clipPath>
 </defs>
</svg>
