<?xml version="1.0" encoding="utf-8" standalone="no"?>
<!DOCTYPE svg PUBLIC "-//W3C//DTD SVG 1.1//EN"
  "http://www.w3.org/Graphics/SVG/1.1/DTD/svg11.dtd">
<!-- Created with matplotlib (https://matplotlib.org/) -->
<svg height="345.6pt" version="1.1" viewBox="0 0 460.8 345.6" width="460.8pt" xmlns="http://www.w3.org/2000/svg" xmlns:xlink="http://www.w3.org/1999/xlink">
 <metadata>
  <rdf:RDF xmlns:cc="http://creativecommons.org/ns#" xmlns:dc="http://purl.org/dc/elements/1.1/" xmlns:rdf="http://www.w3.org/1999/02/22-rdf-syntax-ns#">
   <cc:Work>
    <dc:type rdf:resource="http://purl.org/dc/dcmitype/StillImage"/>
    <dc:date>2021-01-22T10:02:47.498208</dc:date>
    <dc:format>image/svg+xml</dc:format>
    <dc:creator>
     <cc:Agent>
      <dc:title>Matplotlib v3.3.3, https://matplotlib.org/</dc:title>
     </cc:Agent>
    </dc:creator>
   </cc:Work>
  </rdf:RDF>
 </metadata>
 <defs>
  <style type="text/css">*{stroke-linecap:butt;stroke-linejoin:round;}</style>
 </defs>
 <g id="figure_1">
  <g id="patch_1">
   <path d="M 0 345.6 
L 460.8 345.6 
L 460.8 0 
L 0 0 
z
" style="fill:#ffffff;"/>
  </g>
  <g id="axes_1">
   <g id="patch_2">
    <path d="M 57.6 307.584 
L 414.72 307.584 
L 414.72 41.472 
L 57.6 41.472 
z
" style="fill:#7d9051;"/>
   </g>
   <g id="matplotlib.axis_1">
    <g id="xtick_1">
     <g id="line2d_1">
      <defs>
       <path d="M 0 0 
L 0 3.5 
" id="mc1683293a4" style="stroke:#000000;stroke-width:0.8;"/>
      </defs>
      <g>
       <use style="stroke:#000000;stroke-width:0.8;" x="79.098656" xlink:href="#mc1683293a4" y="307.584"/>
      </g>
     </g>
     <g id="text_1">
      <!-- −20 -->
      <g transform="translate(68.546313 322.182437)scale(0.1 -0.1)">
       <defs>
        <path d="M 10.59375 35.5 
L 73.1875 35.5 
L 73.1875 27.203125 
L 10.59375 27.203125 
z
" id="DejaVuSans-8722"/>
        <path d="M 19.1875 8.296875 
L 53.609375 8.296875 
L 53.609375 0 
L 7.328125 0 
L 7.328125 8.296875 
Q 12.9375 14.109375 22.625 23.890625 
Q 32.328125 33.6875 34.8125 36.53125 
Q 39.546875 41.84375 41.421875 45.53125 
Q 43.3125 49.21875 43.3125 52.78125 
Q 43.3125 58.59375 39.234375 62.25 
Q 35.15625 65.921875 28.609375 65.921875 
Q 23.96875 65.921875 18.8125 64.3125 
Q 13.671875 62.703125 7.8125 59.421875 
L 7.8125 69.390625 
Q 13.765625 71.78125 18.9375 73 
Q 24.125 74.21875 28.421875 74.21875 
Q 39.75 74.21875 46.484375 68.546875 
Q 53.21875 62.890625 53.21875 53.421875 
Q 53.21875 48.921875 51.53125 44.890625 
Q 49.859375 40.875 45.40625 35.40625 
Q 44.1875 33.984375 37.640625 27.21875 
Q 31.109375 20.453125 19.1875 8.296875 
z
" id="DejaVuSans-50"/>
        <path d="M 31.78125 66.40625 
Q 24.171875 66.40625 20.328125 58.90625 
Q 16.5 51.421875 16.5 36.375 
Q 16.5 21.390625 20.328125 13.890625 
Q 24.171875 6.390625 31.78125 6.390625 
Q 39.453125 6.390625 43.28125 13.890625 
Q 47.125 21.390625 47.125 36.375 
Q 47.125 51.421875 43.28125 58.90625 
Q 39.453125 66.40625 31.78125 66.40625 
z
M 31.78125 74.21875 
Q 44.046875 74.21875 50.515625 64.515625 
Q 56.984375 54.828125 56.984375 36.375 
Q 56.984375 17.96875 50.515625 8.265625 
Q 44.046875 -1.421875 31.78125 -1.421875 
Q 19.53125 -1.421875 13.0625 8.265625 
Q 6.59375 17.96875 6.59375 36.375 
Q 6.59375 54.828125 13.0625 64.515625 
Q 19.53125 74.21875 31.78125 74.21875 
z
" id="DejaVuSans-48"/>
       </defs>
       <use xlink:href="#DejaVuSans-8722"/>
       <use x="83.789062" xlink:href="#DejaVuSans-50"/>
       <use x="147.412109" xlink:href="#DejaVuSans-48"/>
      </g>
     </g>
    </g>
    <g id="xtick_2">
     <g id="line2d_2">
      <g>
       <use style="stroke:#000000;stroke-width:0.8;" x="125.096335" xlink:href="#mc1683293a4" y="307.584"/>
      </g>
     </g>
     <g id="text_2">
      <!-- 0 -->
      <g transform="translate(121.915085 322.182437)scale(0.1 -0.1)">
       <use xlink:href="#DejaVuSans-48"/>
      </g>
     </g>
    </g>
    <g id="xtick_3">
     <g id="line2d_3">
      <g>
       <use style="stroke:#000000;stroke-width:0.8;" x="171.094013" xlink:href="#mc1683293a4" y="307.584"/>
      </g>
     </g>
     <g id="text_3">
      <!-- 20 -->
      <g transform="translate(164.731513 322.182437)scale(0.1 -0.1)">
       <use xlink:href="#DejaVuSans-50"/>
       <use x="63.623047" xlink:href="#DejaVuSans-48"/>
      </g>
     </g>
    </g>
    <g id="xtick_4">
     <g id="line2d_4">
      <g>
       <use style="stroke:#000000;stroke-width:0.8;" x="217.091691" xlink:href="#mc1683293a4" y="307.584"/>
      </g>
     </g>
     <g id="text_4">
      <!-- 40 -->
      <g transform="translate(210.729191 322.182437)scale(0.1 -0.1)">
       <defs>
        <path d="M 37.796875 64.3125 
L 12.890625 25.390625 
L 37.796875 25.390625 
z
M 35.203125 72.90625 
L 47.609375 72.90625 
L 47.609375 25.390625 
L 58.015625 25.390625 
L 58.015625 17.1875 
L 47.609375 17.1875 
L 47.609375 0 
L 37.796875 0 
L 37.796875 17.1875 
L 4.890625 17.1875 
L 4.890625 26.703125 
z
" id="DejaVuSans-52"/>
       </defs>
       <use xlink:href="#DejaVuSans-52"/>
       <use x="63.623047" xlink:href="#DejaVuSans-48"/>
      </g>
     </g>
    </g>
    <g id="xtick_5">
     <g id="line2d_5">
      <g>
       <use style="stroke:#000000;stroke-width:0.8;" x="263.089369" xlink:href="#mc1683293a4" y="307.584"/>
      </g>
     </g>
     <g id="text_5">
      <!-- 60 -->
      <g transform="translate(256.726869 322.182437)scale(0.1 -0.1)">
       <defs>
        <path d="M 33.015625 40.375 
Q 26.375 40.375 22.484375 35.828125 
Q 18.609375 31.296875 18.609375 23.390625 
Q 18.609375 15.53125 22.484375 10.953125 
Q 26.375 6.390625 33.015625 6.390625 
Q 39.65625 6.390625 43.53125 10.953125 
Q 47.40625 15.53125 47.40625 23.390625 
Q 47.40625 31.296875 43.53125 35.828125 
Q 39.65625 40.375 33.015625 40.375 
z
M 52.59375 71.296875 
L 52.59375 62.3125 
Q 48.875 64.0625 45.09375 64.984375 
Q 41.3125 65.921875 37.59375 65.921875 
Q 27.828125 65.921875 22.671875 59.328125 
Q 17.53125 52.734375 16.796875 39.40625 
Q 19.671875 43.65625 24.015625 45.921875 
Q 28.375 48.1875 33.59375 48.1875 
Q 44.578125 48.1875 50.953125 41.515625 
Q 57.328125 34.859375 57.328125 23.390625 
Q 57.328125 12.15625 50.6875 5.359375 
Q 44.046875 -1.421875 33.015625 -1.421875 
Q 20.359375 -1.421875 13.671875 8.265625 
Q 6.984375 17.96875 6.984375 36.375 
Q 6.984375 53.65625 15.1875 63.9375 
Q 23.390625 74.21875 37.203125 74.21875 
Q 40.921875 74.21875 44.703125 73.484375 
Q 48.484375 72.75 52.59375 71.296875 
z
" id="DejaVuSans-54"/>
       </defs>
       <use xlink:href="#DejaVuSans-54"/>
       <use x="63.623047" xlink:href="#DejaVuSans-48"/>
      </g>
     </g>
    </g>
    <g id="xtick_6">
     <g id="line2d_6">
      <g>
       <use style="stroke:#000000;stroke-width:0.8;" x="309.087047" xlink:href="#mc1683293a4" y="307.584"/>
      </g>
     </g>
     <g id="text_6">
      <!-- 80 -->
      <g transform="translate(302.724547 322.182437)scale(0.1 -0.1)">
       <defs>
        <path d="M 31.78125 34.625 
Q 24.75 34.625 20.71875 30.859375 
Q 16.703125 27.09375 16.703125 20.515625 
Q 16.703125 13.921875 20.71875 10.15625 
Q 24.75 6.390625 31.78125 6.390625 
Q 38.8125 6.390625 42.859375 10.171875 
Q 46.921875 13.96875 46.921875 20.515625 
Q 46.921875 27.09375 42.890625 30.859375 
Q 38.875 34.625 31.78125 34.625 
z
M 21.921875 38.8125 
Q 15.578125 40.375 12.03125 44.71875 
Q 8.5 49.078125 8.5 55.328125 
Q 8.5 64.0625 14.71875 69.140625 
Q 20.953125 74.21875 31.78125 74.21875 
Q 42.671875 74.21875 48.875 69.140625 
Q 55.078125 64.0625 55.078125 55.328125 
Q 55.078125 49.078125 51.53125 44.71875 
Q 48 40.375 41.703125 38.8125 
Q 48.828125 37.15625 52.796875 32.3125 
Q 56.78125 27.484375 56.78125 20.515625 
Q 56.78125 9.90625 50.3125 4.234375 
Q 43.84375 -1.421875 31.78125 -1.421875 
Q 19.734375 -1.421875 13.25 4.234375 
Q 6.78125 9.90625 6.78125 20.515625 
Q 6.78125 27.484375 10.78125 32.3125 
Q 14.796875 37.15625 21.921875 38.8125 
z
M 18.3125 54.390625 
Q 18.3125 48.734375 21.84375 45.5625 
Q 25.390625 42.390625 31.78125 42.390625 
Q 38.140625 42.390625 41.71875 45.5625 
Q 45.3125 48.734375 45.3125 54.390625 
Q 45.3125 60.0625 41.71875 63.234375 
Q 38.140625 66.40625 31.78125 66.40625 
Q 25.390625 66.40625 21.84375 63.234375 
Q 18.3125 60.0625 18.3125 54.390625 
z
" id="DejaVuSans-56"/>
       </defs>
       <use xlink:href="#DejaVuSans-56"/>
       <use x="63.623047" xlink:href="#DejaVuSans-48"/>
      </g>
     </g>
    </g>
    <g id="xtick_7">
     <g id="line2d_7">
      <g>
       <use style="stroke:#000000;stroke-width:0.8;" x="355.084725" xlink:href="#mc1683293a4" y="307.584"/>
      </g>
     </g>
     <g id="text_7">
      <!-- 100 -->
      <g transform="translate(345.540975 322.182437)scale(0.1 -0.1)">
       <defs>
        <path d="M 12.40625 8.296875 
L 28.515625 8.296875 
L 28.515625 63.921875 
L 10.984375 60.40625 
L 10.984375 69.390625 
L 28.421875 72.90625 
L 38.28125 72.90625 
L 38.28125 8.296875 
L 54.390625 8.296875 
L 54.390625 0 
L 12.40625 0 
z
" id="DejaVuSans-49"/>
       </defs>
       <use xlink:href="#DejaVuSans-49"/>
       <use x="63.623047" xlink:href="#DejaVuSans-48"/>
       <use x="127.246094" xlink:href="#DejaVuSans-48"/>
      </g>
     </g>
    </g>
    <g id="xtick_8">
     <g id="line2d_8">
      <g>
       <use style="stroke:#000000;stroke-width:0.8;" x="401.082404" xlink:href="#mc1683293a4" y="307.584"/>
      </g>
     </g>
     <g id="text_8">
      <!-- 120 -->
      <g transform="translate(391.538654 322.182437)scale(0.1 -0.1)">
       <use xlink:href="#DejaVuSans-49"/>
       <use x="63.623047" xlink:href="#DejaVuSans-50"/>
       <use x="127.246094" xlink:href="#DejaVuSans-48"/>
      </g>
     </g>
    </g>
   </g>
   <g id="matplotlib.axis_2">
    <g id="ytick_1">
     <g id="line2d_9">
      <defs>
       <path d="M 0 0 
L -3.5 0 
" id="m90dd2a4be4" style="stroke:#000000;stroke-width:0.8;"/>
      </defs>
      <g>
       <use style="stroke:#000000;stroke-width:0.8;" x="57.6" xlink:href="#m90dd2a4be4" y="272.479989"/>
      </g>
     </g>
     <g id="text_9">
      <!-- 20 -->
      <g transform="translate(37.875 276.279208)scale(0.1 -0.1)">
       <use xlink:href="#DejaVuSans-50"/>
       <use x="63.623047" xlink:href="#DejaVuSans-48"/>
      </g>
     </g>
    </g>
    <g id="ytick_2">
     <g id="line2d_10">
      <g>
       <use style="stroke:#000000;stroke-width:0.8;" x="57.6" xlink:href="#m90dd2a4be4" y="226.482311"/>
      </g>
     </g>
     <g id="text_10">
      <!-- 40 -->
      <g transform="translate(37.875 230.281529)scale(0.1 -0.1)">
       <use xlink:href="#DejaVuSans-52"/>
       <use x="63.623047" xlink:href="#DejaVuSans-48"/>
      </g>
     </g>
    </g>
    <g id="ytick_3">
     <g id="line2d_11">
      <g>
       <use style="stroke:#000000;stroke-width:0.8;" x="57.6" xlink:href="#m90dd2a4be4" y="180.484633"/>
      </g>
     </g>
     <g id="text_11">
      <!-- 60 -->
      <g transform="translate(37.875 184.283851)scale(0.1 -0.1)">
       <use xlink:href="#DejaVuSans-54"/>
       <use x="63.623047" xlink:href="#DejaVuSans-48"/>
      </g>
     </g>
    </g>
    <g id="ytick_4">
     <g id="line2d_12">
      <g>
       <use style="stroke:#000000;stroke-width:0.8;" x="57.6" xlink:href="#m90dd2a4be4" y="134.486954"/>
      </g>
     </g>
     <g id="text_12">
      <!-- 80 -->
      <g transform="translate(37.875 138.286173)scale(0.1 -0.1)">
       <use xlink:href="#DejaVuSans-56"/>
       <use x="63.623047" xlink:href="#DejaVuSans-48"/>
      </g>
     </g>
    </g>
    <g id="ytick_5">
     <g id="line2d_13">
      <g>
       <use style="stroke:#000000;stroke-width:0.8;" x="57.6" xlink:href="#m90dd2a4be4" y="88.489276"/>
      </g>
     </g>
     <g id="text_13">
      <!-- 100 -->
      <g transform="translate(31.5125 92.288495)scale(0.1 -0.1)">
       <use xlink:href="#DejaVuSans-49"/>
       <use x="63.623047" xlink:href="#DejaVuSans-48"/>
       <use x="127.246094" xlink:href="#DejaVuSans-48"/>
      </g>
     </g>
    </g>
    <g id="ytick_6">
     <g id="line2d_14">
      <g>
       <use style="stroke:#000000;stroke-width:0.8;" x="57.6" xlink:href="#m90dd2a4be4" y="42.491598"/>
      </g>
     </g>
     <g id="text_14">
      <!-- 120 -->
      <g transform="translate(31.5125 46.290817)scale(0.1 -0.1)">
       <use xlink:href="#DejaVuSans-49"/>
       <use x="63.623047" xlink:href="#DejaVuSans-50"/>
       <use x="127.246094" xlink:href="#DejaVuSans-48"/>
      </g>
     </g>
    </g>
   </g>
   <g id="line2d_15">
    <path clip-path="url(#p0850ab6f50)" d="M 148.226267 295.478828 
L 148.17107 256.394601 
L 148.090574 237.944932 
L 148.329762 233.349764 
L 148.821937 228.779895 
L 149.640696 224.246824 
L 150.815936 219.771249 
L 152.338459 215.392271 
L 154.194466 211.142085 
L 156.370156 207.059791 
L 158.849431 203.179887 
L 161.590892 199.495473 
L 164.532444 195.958251 
L 169.16671 190.820311 
L 188.025758 170.645729 
L 192.995807 165.88267 
L 198.136048 161.285202 
L 203.416581 156.818827 
L 215.870453 146.490049 
L 219.186885 143.318509 
L 222.26643 139.93078 
L 225.046989 136.280864 
L 227.535464 132.40096 
L 229.750252 128.332465 
L 231.712053 124.125977 
L 233.439266 119.827494 
L 234.957189 115.480714 
L 236.999486 108.903046 
L 239.674251 100.10369 
L 241.162276 95.720111 
L 242.841191 91.38943 
L 244.763894 87.166843 
L 246.983282 83.116747 
L 248.22062 81.173346 
L 249.552252 79.29664 
L 250.98278 77.488931 
L 252.521403 75.761719 
L 254.15892 74.119602 
L 255.888433 72.56948 
L 257.707641 71.111353 
L 259.607345 69.756722 
L 261.578345 68.505585 
L 263.620642 67.367142 
L 265.720436 66.343694 
L 267.875427 65.44214 
L 270.076416 64.667079 
L 272.318803 64.025411 
L 274.593388 63.512537 
L 276.895572 63.133056 
L 279.213855 62.884669 
L 281.541338 62.767375 
L 283.87342 62.781174 
L 286.198603 62.923767 
L 288.512286 63.195153 
L 290.80527 63.597633 
L 293.068356 64.128906 
L 295.299243 64.788973 
L 297.486433 65.573233 
L 299.627625 66.479387 
L 301.718219 67.500536 
L 303.749017 68.636678 
L 305.715417 69.883215 
L 307.615122 71.235547 
L 309.43663 72.686774 
L 311.179942 74.239196 
L 312.838158 75.883613 
L 314.402079 77.620025 
L 315.871705 79.439233 
L 317.240136 81.334337 
L 318.500472 83.300738 
L 319.650414 85.333835 
L 320.683062 87.42213 
L 321.596116 89.563322 
L 322.382676 91.750512 
L 323.035843 93.974499 
L 323.555617 96.232985 
L 323.935098 98.51447 
L 324.178885 100.816654 
L 324.29158 103.132637 
L 324.275481 105.45322 
L 324.137488 107.776103 
L 323.8822 110.092086 
L 323.033543 114.678054 
L 321.768607 119.162828 
L 320.11959 123.500409 
L 318.116391 127.670098 
L 315.779709 131.662697 
L 313.139443 135.459805 
L 310.21629 139.047624 
L 307.035551 142.416954 
L 303.624823 145.549396 
L 300.007106 148.43575 
L 296.205397 151.057618 
L 292.247297 153.4035 
L 292.247297 153.4035 
" style="fill:none;stroke:#fea952;stroke-linecap:square;"/>
   </g>
   <g id="line2d_16">
    <path clip-path="url(#p0850ab6f50)" d="M 139.026736 295.469656 
L 138.971906 256.477311 
L 138.898761 237.568068 
L 139.168461 232.511896 
L 139.737827 227.327173 
L 140.698351 222.086748 
L 142.071302 216.914182 
L 143.839045 211.872127 
L 145.993761 206.973165 
L 148.522402 202.259352 
L 151.382818 197.805769 
L 154.453255 193.691544 
L 157.627321 189.87954 
L 162.423393 184.562586 
L 181.580911 164.081021 
L 186.796993 159.085159 
L 192.136216 154.311431 
L 197.588597 149.700818 
L 209.614153 139.745408 
L 212.5087 136.991321 
L 215.0729 134.196271 
L 217.402422 131.163047 
L 219.530096 127.86824 
L 221.471512 124.320741 
L 223.220444 120.587047 
L 224.78506 116.707208 
L 226.199831 112.662889 
L 228.183373 106.274811 
L 230.9377 97.222 
L 232.546239 92.495928 
L 234.409212 87.710683 
L 236.608215 82.910512 
L 237.857214 80.533666 
L 239.223123 78.17596 
L 240.717913 75.849734 
L 242.338278 73.587872 
L 244.113526 71.369716 
L 246.007231 69.265795 
L 248.018861 67.268972 
L 250.13489 65.391165 
L 252.366526 63.621097 
L 254.677139 61.989835 
L 257.099136 60.470155 
L 259.590025 59.097585 
L 262.169938 57.856915 
L 264.819803 56.764892 
L 267.545515 55.822533 
L 270.295291 55.051178 
L 273.097172 54.435489 
L 275.915517 53.985874 
L 278.75083 53.696793 
L 281.595772 53.568 
L 284.436527 53.598888 
L 287.270326 53.786871 
L 290.102734 54.134141 
L 292.90776 54.641574 
L 295.67843 55.3074 
L 298.404339 56.129305 
L 301.07183 57.101139 
L 303.665218 58.213234 
L 306.209821 59.472026 
L 308.67449 60.86679 
L 311.050516 62.388672 
L 313.347612 64.040409 
L 315.554654 65.816459 
L 317.657759 67.707019 
L 319.673867 69.726947 
L 321.558266 71.838984 
L 323.330055 74.053653 
L 324.985349 76.370154 
L 326.507896 78.771652 
L 327.896813 81.256046 
L 329.145337 83.813619 
L 330.252887 86.450161 
L 331.20941 89.158172 
L 332.001019 91.911231 
L 332.630477 94.723558 
L 333.083483 97.54571 
L 333.367549 100.369539 
L 333.490894 103.196458 
L 333.458826 105.998765 
L 333.281639 108.784048 
L 332.965004 111.552956 
L 332.516042 114.28033 
L 331.942165 116.973249 
L 331.246554 119.63497 
L 330.436928 122.243682 
L 329.516989 124.805907 
L 328.492347 127.312024 
L 326.149586 132.153316 
L 323.431368 136.769905 
L 320.378912 141.136207 
L 317.020088 145.239537 
L 313.374126 149.084331 
L 309.4836 152.642081 
L 305.356826 155.919863 
L 301.034019 158.888063 
L 296.79765 161.398857 
L 296.79765 161.398857 
" style="fill:none;stroke:#ffffff;stroke-linecap:square;"/>
   </g>
   <g id="line2d_17">
    <path clip-path="url(#p0850ab6f50)" d="M 157.425798 295.488 
L 157.370234 256.311891 
L 157.282387 238.321796 
L 157.491063 234.187632 
L 157.906047 230.232617 
L 158.58304 226.406899 
L 159.56057 222.628317 
L 160.837874 218.912414 
L 162.395171 215.311005 
L 164.21791 211.86023 
L 166.316044 208.554005 
L 168.728529 205.299402 
L 171.437567 202.036963 
L 175.910027 197.078036 
L 194.470605 177.210438 
L 199.194622 172.680181 
L 204.135879 168.258972 
L 209.244566 163.936836 
L 220.243685 154.905137 
L 224.012724 151.479452 
L 227.69596 147.701839 
L 229.459959 145.665288 
L 231.133061 143.552266 
L 234.167604 139.181137 
L 236.828302 134.649451 
L 239.156394 130.008342 
L 241.183899 125.304994 
L 242.936634 120.60372 
L 245.145628 113.755344 
L 249.084191 100.939455 
L 250.514214 96.970467 
L 252.080962 93.204998 
L 253.809466 89.701627 
L 255.723327 86.496957 
L 257.852034 83.608147 
L 260.298979 80.970231 
L 263.048756 78.60161 
L 266.057555 76.541015 
L 269.270935 74.830473 
L 272.607317 73.511625 
L 276.089605 72.589584 
L 279.676881 72.072545 
L 283.310312 71.963459 
L 286.921837 72.256165 
L 290.458281 72.950412 
L 293.901035 74.045327 
L 297.226618 75.529046 
L 300.380319 77.377759 
L 303.318605 79.557089 
L 306.002448 82.040278 
L 308.413355 84.824813 
L 310.493048 87.829824 
L 312.220786 91.030641 
L 313.555942 94.342851 
L 314.480757 97.742413 
L 314.990222 101.263769 
L 315.092135 104.907675 
L 314.799397 108.631215 
L 314.124922 112.38286 
L 313.100286 116.081973 
L 311.746834 119.688794 
L 310.083197 123.186881 
L 308.12805 126.555489 
L 305.899973 129.783403 
L 303.412492 132.855711 
L 300.696976 135.749577 
L 297.766046 138.456711 
L 294.657385 140.951638 
L 291.376776 143.227173 
L 287.696944 145.408142 
L 287.696944 145.408142 
" style="fill:none;stroke:#ffffff;stroke-linecap:square;"/>
   </g>
   <g id="patch_3">
    <path d="M 57.6 307.584 
L 57.6 41.472 
" style="fill:none;stroke:#000000;stroke-linecap:square;stroke-linejoin:miter;stroke-width:0.8;"/>
   </g>
   <g id="patch_4">
    <path d="M 414.72 307.584 
L 414.72 41.472 
" style="fill:none;stroke:#000000;stroke-linecap:square;stroke-linejoin:miter;stroke-width:0.8;"/>
   </g>
   <g id="patch_5">
    <path d="M 57.6 307.584 
L 414.72 307.584 
" style="fill:none;stroke:#000000;stroke-linecap:square;stroke-linejoin:miter;stroke-width:0.8;"/>
   </g>
   <g id="patch_6">
    <path d="M 57.6 41.472 
L 414.72 41.472 
" style="fill:none;stroke:#000000;stroke-linecap:square;stroke-linejoin:miter;stroke-width:0.8;"/>
   </g>
  </g>
 </g>
 <defs>
  <clipPath id="p0850ab6f50">
   <rect height="266.112" width="357.12" x="57.6" y="41.472"/>
  </clipPath>
 </defs>
</svg>
