<?xml version="1.0" encoding="utf-8" standalone="no"?>
<!DOCTYPE svg PUBLIC "-//W3C//DTD SVG 1.1//EN"
  "http://www.w3.org/Graphics/SVG/1.1/DTD/svg11.dtd">
<!-- Created with matplotlib (https://matplotlib.org/) -->
<svg height="345.6pt" version="1.1" viewBox="0 0 460.8 345.6" width="460.8pt" xmlns="http://www.w3.org/2000/svg" xmlns:xlink="http://www.w3.org/1999/xlink">
 <metadata>
  <rdf:RDF xmlns:cc="http://creativecommons.org/ns#" xmlns:dc="http://purl.org/dc/elements/1.1/" xmlns:rdf="http://www.w3.org/1999/02/22-rdf-syntax-ns#">
   <cc:Work>
    <dc:type rdf:resource="http://purl.org/dc/dcmitype/StillImage"/>
    <dc:date>2021-01-25T10:12:33.939794</dc:date>
    <dc:format>image/svg+xml</dc:format>
    <dc:creator>
     <cc:Agent>
      <dc:title>Matplotlib v3.3.3, https://matplotlib.org/</dc:title>
     </cc:Agent>
    </dc:creator>
   </cc:Work>
  </rdf:RDF>
 </metadata>
 <defs>
  <style type="text/css">*{stroke-linecap:butt;stroke-linejoin:round;}</style>
 </defs>
 <g id="figure_1">
  <g id="patch_1">
   <path d="M 0 345.6 
L 460.8 345.6 
L 460.8 0 
L 0 0 
z
" style="fill:#ffffff;"/>
  </g>
  <g id="axes_1">
   <g id="patch_2">
    <path d="M 57.6 307.584 
L 414.72 307.584 
L 414.72 41.472 
L 57.6 41.472 
z
" style="fill:#7d9051;"/>
   </g>
   <g id="matplotlib.axis_1">
    <g id="xtick_1">
     <g id="line2d_1">
      <defs>
       <path d="M 0 0 
L 0 3.5 
" id="m62a37426ef" style="stroke:#000000;stroke-width:0.8;"/>
      </defs>
      <g>
       <use style="stroke:#000000;stroke-width:0.8;" x="59.617731" xlink:href="#m62a37426ef" y="307.584"/>
      </g>
     </g>
     <g id="text_1">
      <!-- 0 -->
      <g transform="translate(56.436481 322.182437)scale(0.1 -0.1)">
       <defs>
        <path d="M 31.78125 66.40625 
Q 24.171875 66.40625 20.328125 58.90625 
Q 16.5 51.421875 16.5 36.375 
Q 16.5 21.390625 20.328125 13.890625 
Q 24.171875 6.390625 31.78125 6.390625 
Q 39.453125 6.390625 43.28125 13.890625 
Q 47.125 21.390625 47.125 36.375 
Q 47.125 51.421875 43.28125 58.90625 
Q 39.453125 66.40625 31.78125 66.40625 
z
M 31.78125 74.21875 
Q 44.046875 74.21875 50.515625 64.515625 
Q 56.984375 54.828125 56.984375 36.375 
Q 56.984375 17.96875 50.515625 8.265625 
Q 44.046875 -1.421875 31.78125 -1.421875 
Q 19.53125 -1.421875 13.0625 8.265625 
Q 6.59375 17.96875 6.59375 36.375 
Q 6.59375 54.828125 13.0625 64.515625 
Q 19.53125 74.21875 31.78125 74.21875 
z
" id="DejaVuSans-48"/>
       </defs>
       <use xlink:href="#DejaVuSans-48"/>
      </g>
     </g>
    </g>
    <g id="xtick_2">
     <g id="line2d_2">
      <g>
       <use style="stroke:#000000;stroke-width:0.8;" x="107.745621" xlink:href="#m62a37426ef" y="307.584"/>
      </g>
     </g>
     <g id="text_2">
      <!-- 20 -->
      <g transform="translate(101.383121 322.182437)scale(0.1 -0.1)">
       <defs>
        <path d="M 19.1875 8.296875 
L 53.609375 8.296875 
L 53.609375 0 
L 7.328125 0 
L 7.328125 8.296875 
Q 12.9375 14.109375 22.625 23.890625 
Q 32.328125 33.6875 34.8125 36.53125 
Q 39.546875 41.84375 41.421875 45.53125 
Q 43.3125 49.21875 43.3125 52.78125 
Q 43.3125 58.59375 39.234375 62.25 
Q 35.15625 65.921875 28.609375 65.921875 
Q 23.96875 65.921875 18.8125 64.3125 
Q 13.671875 62.703125 7.8125 59.421875 
L 7.8125 69.390625 
Q 13.765625 71.78125 18.9375 73 
Q 24.125 74.21875 28.421875 74.21875 
Q 39.75 74.21875 46.484375 68.546875 
Q 53.21875 62.890625 53.21875 53.421875 
Q 53.21875 48.921875 51.53125 44.890625 
Q 49.859375 40.875 45.40625 35.40625 
Q 44.1875 33.984375 37.640625 27.21875 
Q 31.109375 20.453125 19.1875 8.296875 
z
" id="DejaVuSans-50"/>
       </defs>
       <use xlink:href="#DejaVuSans-50"/>
       <use x="63.623047" xlink:href="#DejaVuSans-48"/>
      </g>
     </g>
    </g>
    <g id="xtick_3">
     <g id="line2d_3">
      <g>
       <use style="stroke:#000000;stroke-width:0.8;" x="155.87351" xlink:href="#m62a37426ef" y="307.584"/>
      </g>
     </g>
     <g id="text_3">
      <!-- 40 -->
      <g transform="translate(149.51101 322.182437)scale(0.1 -0.1)">
       <defs>
        <path d="M 37.796875 64.3125 
L 12.890625 25.390625 
L 37.796875 25.390625 
z
M 35.203125 72.90625 
L 47.609375 72.90625 
L 47.609375 25.390625 
L 58.015625 25.390625 
L 58.015625 17.1875 
L 47.609375 17.1875 
L 47.609375 0 
L 37.796875 0 
L 37.796875 17.1875 
L 4.890625 17.1875 
L 4.890625 26.703125 
z
" id="DejaVuSans-52"/>
       </defs>
       <use xlink:href="#DejaVuSans-52"/>
       <use x="63.623047" xlink:href="#DejaVuSans-48"/>
      </g>
     </g>
    </g>
    <g id="xtick_4">
     <g id="line2d_4">
      <g>
       <use style="stroke:#000000;stroke-width:0.8;" x="204.0014" xlink:href="#m62a37426ef" y="307.584"/>
      </g>
     </g>
     <g id="text_4">
      <!-- 60 -->
      <g transform="translate(197.6389 322.182437)scale(0.1 -0.1)">
       <defs>
        <path d="M 33.015625 40.375 
Q 26.375 40.375 22.484375 35.828125 
Q 18.609375 31.296875 18.609375 23.390625 
Q 18.609375 15.53125 22.484375 10.953125 
Q 26.375 6.390625 33.015625 6.390625 
Q 39.65625 6.390625 43.53125 10.953125 
Q 47.40625 15.53125 47.40625 23.390625 
Q 47.40625 31.296875 43.53125 35.828125 
Q 39.65625 40.375 33.015625 40.375 
z
M 52.59375 71.296875 
L 52.59375 62.3125 
Q 48.875 64.0625 45.09375 64.984375 
Q 41.3125 65.921875 37.59375 65.921875 
Q 27.828125 65.921875 22.671875 59.328125 
Q 17.53125 52.734375 16.796875 39.40625 
Q 19.671875 43.65625 24.015625 45.921875 
Q 28.375 48.1875 33.59375 48.1875 
Q 44.578125 48.1875 50.953125 41.515625 
Q 57.328125 34.859375 57.328125 23.390625 
Q 57.328125 12.15625 50.6875 5.359375 
Q 44.046875 -1.421875 33.015625 -1.421875 
Q 20.359375 -1.421875 13.671875 8.265625 
Q 6.984375 17.96875 6.984375 36.375 
Q 6.984375 53.65625 15.1875 63.9375 
Q 23.390625 74.21875 37.203125 74.21875 
Q 40.921875 74.21875 44.703125 73.484375 
Q 48.484375 72.75 52.59375 71.296875 
z
" id="DejaVuSans-54"/>
       </defs>
       <use xlink:href="#DejaVuSans-54"/>
       <use x="63.623047" xlink:href="#DejaVuSans-48"/>
      </g>
     </g>
    </g>
    <g id="xtick_5">
     <g id="line2d_5">
      <g>
       <use style="stroke:#000000;stroke-width:0.8;" x="252.129289" xlink:href="#m62a37426ef" y="307.584"/>
      </g>
     </g>
     <g id="text_5">
      <!-- 80 -->
      <g transform="translate(245.766789 322.182437)scale(0.1 -0.1)">
       <defs>
        <path d="M 31.78125 34.625 
Q 24.75 34.625 20.71875 30.859375 
Q 16.703125 27.09375 16.703125 20.515625 
Q 16.703125 13.921875 20.71875 10.15625 
Q 24.75 6.390625 31.78125 6.390625 
Q 38.8125 6.390625 42.859375 10.171875 
Q 46.921875 13.96875 46.921875 20.515625 
Q 46.921875 27.09375 42.890625 30.859375 
Q 38.875 34.625 31.78125 34.625 
z
M 21.921875 38.8125 
Q 15.578125 40.375 12.03125 44.71875 
Q 8.5 49.078125 8.5 55.328125 
Q 8.5 64.0625 14.71875 69.140625 
Q 20.953125 74.21875 31.78125 74.21875 
Q 42.671875 74.21875 48.875 69.140625 
Q 55.078125 64.0625 55.078125 55.328125 
Q 55.078125 49.078125 51.53125 44.71875 
Q 48 40.375 41.703125 38.8125 
Q 48.828125 37.15625 52.796875 32.3125 
Q 56.78125 27.484375 56.78125 20.515625 
Q 56.78125 9.90625 50.3125 4.234375 
Q 43.84375 -1.421875 31.78125 -1.421875 
Q 19.734375 -1.421875 13.25 4.234375 
Q 6.78125 9.90625 6.78125 20.515625 
Q 6.78125 27.484375 10.78125 32.3125 
Q 14.796875 37.15625 21.921875 38.8125 
z
M 18.3125 54.390625 
Q 18.3125 48.734375 21.84375 45.5625 
Q 25.390625 42.390625 31.78125 42.390625 
Q 38.140625 42.390625 41.71875 45.5625 
Q 45.3125 48.734375 45.3125 54.390625 
Q 45.3125 60.0625 41.71875 63.234375 
Q 38.140625 66.40625 31.78125 66.40625 
Q 25.390625 66.40625 21.84375 63.234375 
Q 18.3125 60.0625 18.3125 54.390625 
z
" id="DejaVuSans-56"/>
       </defs>
       <use xlink:href="#DejaVuSans-56"/>
       <use x="63.623047" xlink:href="#DejaVuSans-48"/>
      </g>
     </g>
    </g>
    <g id="xtick_6">
     <g id="line2d_6">
      <g>
       <use style="stroke:#000000;stroke-width:0.8;" x="300.257179" xlink:href="#m62a37426ef" y="307.584"/>
      </g>
     </g>
     <g id="text_6">
      <!-- 100 -->
      <g transform="translate(290.713429 322.182437)scale(0.1 -0.1)">
       <defs>
        <path d="M 12.40625 8.296875 
L 28.515625 8.296875 
L 28.515625 63.921875 
L 10.984375 60.40625 
L 10.984375 69.390625 
L 28.421875 72.90625 
L 38.28125 72.90625 
L 38.28125 8.296875 
L 54.390625 8.296875 
L 54.390625 0 
L 12.40625 0 
z
" id="DejaVuSans-49"/>
       </defs>
       <use xlink:href="#DejaVuSans-49"/>
       <use x="63.623047" xlink:href="#DejaVuSans-48"/>
       <use x="127.246094" xlink:href="#DejaVuSans-48"/>
      </g>
     </g>
    </g>
    <g id="xtick_7">
     <g id="line2d_7">
      <g>
       <use style="stroke:#000000;stroke-width:0.8;" x="348.385068" xlink:href="#m62a37426ef" y="307.584"/>
      </g>
     </g>
     <g id="text_7">
      <!-- 120 -->
      <g transform="translate(338.841318 322.182437)scale(0.1 -0.1)">
       <use xlink:href="#DejaVuSans-49"/>
       <use x="63.623047" xlink:href="#DejaVuSans-50"/>
       <use x="127.246094" xlink:href="#DejaVuSans-48"/>
      </g>
     </g>
    </g>
    <g id="xtick_8">
     <g id="line2d_8">
      <g>
       <use style="stroke:#000000;stroke-width:0.8;" x="396.512958" xlink:href="#m62a37426ef" y="307.584"/>
      </g>
     </g>
     <g id="text_8">
      <!-- 140 -->
      <g transform="translate(386.969208 322.182437)scale(0.1 -0.1)">
       <use xlink:href="#DejaVuSans-49"/>
       <use x="63.623047" xlink:href="#DejaVuSans-52"/>
       <use x="127.246094" xlink:href="#DejaVuSans-48"/>
      </g>
     </g>
    </g>
   </g>
   <g id="matplotlib.axis_2">
    <g id="ytick_1">
     <g id="line2d_9">
      <defs>
       <path d="M 0 0 
L -3.5 0 
" id="md36e0238f6" style="stroke:#000000;stroke-width:0.8;"/>
      </defs>
      <g>
       <use style="stroke:#000000;stroke-width:0.8;" x="57.6" xlink:href="#md36e0238f6" y="294.152234"/>
      </g>
     </g>
     <g id="text_9">
      <!-- 0 -->
      <g transform="translate(44.2375 297.951453)scale(0.1 -0.1)">
       <use xlink:href="#DejaVuSans-48"/>
      </g>
     </g>
    </g>
    <g id="ytick_2">
     <g id="line2d_10">
      <g>
       <use style="stroke:#000000;stroke-width:0.8;" x="57.6" xlink:href="#md36e0238f6" y="246.024344"/>
      </g>
     </g>
     <g id="text_10">
      <!-- 20 -->
      <g transform="translate(37.875 249.823563)scale(0.1 -0.1)">
       <use xlink:href="#DejaVuSans-50"/>
       <use x="63.623047" xlink:href="#DejaVuSans-48"/>
      </g>
     </g>
    </g>
    <g id="ytick_3">
     <g id="line2d_11">
      <g>
       <use style="stroke:#000000;stroke-width:0.8;" x="57.6" xlink:href="#md36e0238f6" y="197.896455"/>
      </g>
     </g>
     <g id="text_11">
      <!-- 40 -->
      <g transform="translate(37.875 201.695674)scale(0.1 -0.1)">
       <use xlink:href="#DejaVuSans-52"/>
       <use x="63.623047" xlink:href="#DejaVuSans-48"/>
      </g>
     </g>
    </g>
    <g id="ytick_4">
     <g id="line2d_12">
      <g>
       <use style="stroke:#000000;stroke-width:0.8;" x="57.6" xlink:href="#md36e0238f6" y="149.768565"/>
      </g>
     </g>
     <g id="text_12">
      <!-- 60 -->
      <g transform="translate(37.875 153.567784)scale(0.1 -0.1)">
       <use xlink:href="#DejaVuSans-54"/>
       <use x="63.623047" xlink:href="#DejaVuSans-48"/>
      </g>
     </g>
    </g>
    <g id="ytick_5">
     <g id="line2d_13">
      <g>
       <use style="stroke:#000000;stroke-width:0.8;" x="57.6" xlink:href="#md36e0238f6" y="101.640676"/>
      </g>
     </g>
     <g id="text_13">
      <!-- 80 -->
      <g transform="translate(37.875 105.439895)scale(0.1 -0.1)">
       <use xlink:href="#DejaVuSans-56"/>
       <use x="63.623047" xlink:href="#DejaVuSans-48"/>
      </g>
     </g>
    </g>
    <g id="ytick_6">
     <g id="line2d_14">
      <g>
       <use style="stroke:#000000;stroke-width:0.8;" x="57.6" xlink:href="#md36e0238f6" y="53.512786"/>
      </g>
     </g>
     <g id="text_14">
      <!-- 100 -->
      <g transform="translate(31.5125 57.312005)scale(0.1 -0.1)">
       <use xlink:href="#DejaVuSans-49"/>
       <use x="63.623047" xlink:href="#DejaVuSans-48"/>
       <use x="127.246094" xlink:href="#DejaVuSans-48"/>
      </g>
     </g>
    </g>
   </g>
   <g id="line2d_15">
    <path clip-path="url(#p817d26426f)" d="M 387.455289 270.088289 
L 387.979883 267.674676 
L 388.379344 265.256249 
L 388.658486 262.83301 
L 388.819714 260.409771 
L 388.865436 257.988938 
L 388.62239 253.166523 
L 387.958225 248.387424 
L 386.892192 243.680516 
L 385.455575 239.065052 
L 383.667624 234.562688 
L 381.557216 230.202301 
L 379.148415 226.003142 
L 376.465285 221.991683 
L 373.534297 218.170328 
L 370.377107 214.529454 
L 367.020187 211.064245 
L 363.482787 207.757859 
L 359.796191 204.605483 
L 355.960398 201.626366 
L 351.977815 198.871045 
L 347.834004 196.394865 
L 343.528964 194.245955 
L 339.050664 192.482067 
L 334.423167 191.115235 
L 329.677757 190.138239 
L 324.860156 189.536641 
L 320.008864 189.293595 
L 315.164792 189.39707 
L 310.349597 189.823001 
L 305.572904 190.547326 
L 300.849152 191.533948 
L 296.185559 192.761209 
L 291.591752 194.193014 
L 284.803313 196.61144 
L 273.507698 200.772096 
L 268.909078 202.27128 
L 264.240672 203.582765 
L 259.519326 204.656017 
L 254.754665 205.438095 
L 249.963534 205.885685 
L 245.162777 205.950657 
L 240.36202 205.630607 
L 235.578108 204.971255 
L 230.830292 204.018322 
L 226.13301 202.819938 
L 221.498294 201.421823 
L 214.647289 199.092433 
L 205.560743 195.949682 
L 200.976562 194.534722 
L 196.334627 193.312273 
L 191.639751 192.275117 
L 186.899154 191.406409 
L 179.725692 190.378879 
L 172.511321 189.608832 
L 162.912214 188.598147 
L 158.161991 187.895479 
L 153.469522 186.937734 
L 148.846838 185.659939 
L 144.296346 184.088563 
L 139.820452 182.276548 
L 135.414344 180.272022 
L 128.93633 177.013764 
L 122.607513 173.536524 
L 116.423079 169.82827 
L 110.370997 165.862532 
L 106.417291 163.063895 
L 102.583904 160.096811 
L 98.940623 156.917963 
L 95.554826 153.488851 
L 93.976231 151.664804 
L 92.48908 149.761346 
L 91.098184 147.773664 
L 89.810763 145.708978 
L 88.626816 143.576912 
L 87.555971 141.382281 
L 86.598226 139.134708 
L 85.760801 136.839008 
L 85.043695 134.507212 
L 84.456535 132.146539 
L 84.001726 129.764208 
L 83.681676 127.367439 
L 83.501196 124.961045 
L 83.453068 122.55465 
L 83.532479 120.148256 
L 83.734616 117.744268 
L 84.47338 112.955543 
L 85.618823 108.214946 
L 87.120414 103.548947 
L 88.922803 98.979204 
L 90.977864 94.52978 
L 93.232655 90.227147 
L 95.634237 86.092961 
L 98.132075 82.153693 
L 98.132075 82.153693 
" style="fill:none;stroke:#fea952;stroke-linecap:square;"/>
   </g>
   <g id="line2d_16">
    <path clip-path="url(#p817d26426f)" d="M 378.049317 268.04392 
L 378.817001 264.154728 
L 379.195853 260.228008 
L 379.198024 256.27372 
L 378.837055 252.29612 
L 378.132982 248.345347 
L 377.084862 244.39647 
L 375.72508 240.515976 
L 374.065817 236.713767 
L 372.126139 233.017697 
L 369.9308 229.459113 
L 367.483335 226.033538 
L 364.802262 222.738008 
L 361.896024 219.562277 
L 358.784498 216.501599 
L 355.478236 213.543671 
L 352.090208 210.768226 
L 348.63238 208.214853 
L 345.131961 205.94293 
L 341.57929 203.973909 
L 337.982209 202.34661 
L 334.228833 201.036958 
L 330.314569 200.044152 
L 326.265546 199.364094 
L 322.131799 198.99134 
L 317.956468 198.921559 
L 313.758331 199.143072 
L 309.53767 199.644883 
L 305.297157 200.404814 
L 301.065546 201.401282 
L 296.837282 202.61436 
L 292.559991 204.036623 
L 283.669112 207.317781 
L 276.574564 209.896025 
L 271.621472 211.506791 
L 266.4986 212.939769 
L 261.235297 214.127405 
L 255.832418 215.003146 
L 250.301235 215.505337 
L 247.487202 215.595177 
L 241.933977 215.427523 
L 236.492503 214.853709 
L 231.175271 213.93857 
L 225.980604 212.744919 
L 220.93223 211.33031 
L 213.747944 208.973972 
L 200.522073 204.444154 
L 196.306632 203.232484 
L 192.009264 202.189737 
L 187.621764 201.302977 
L 180.889728 200.235307 
L 173.972764 199.42591 
L 161.61038 198.135284 
L 156.382268 197.355096 
L 151.062255 196.257435 
L 145.840567 194.804013 
L 140.792773 193.05387 
L 135.914688 191.074091 
L 131.205574 188.928696 
L 124.402659 185.504793 
L 117.760459 181.852642 
L 111.255965 177.949395 
L 104.878097 173.766948 
L 100.617513 170.745973 
L 96.376649 167.453558 
L 92.235918 163.824386 
L 90.219175 161.854504 
L 88.276448 159.787817 
L 86.391187 157.59092 
L 84.602602 155.279971 
L 82.930366 152.866651 
L 81.395598 150.381959 
L 79.976107 147.797928 
L 78.700842 145.155666 
L 77.555497 142.433314 
L 76.560465 139.66842 
L 75.702719 136.830553 
L 75.001712 133.95155 
L 74.460836 131.038243 
L 74.083056 128.087336 
L 73.877543 125.153518 
L 73.832727 122.237179 
L 73.940749 119.341744 
L 74.191068 116.490301 
L 74.571995 113.66523 
L 75.075897 110.872498 
L 76.406513 105.424769 
L 78.113531 100.153682 
L 80.134641 95.052377 
L 82.399135 90.16433 
L 84.862881 85.473346 
L 87.457941 81.013598 
L 90.051532 76.923342 
L 90.051532 76.923342 
" style="fill:none;stroke:#ffffff;stroke-linecap:square;"/>
   </g>
   <g id="line2d_17">
    <path clip-path="url(#p817d26426f)" d="M 396.861261 272.132658 
L 397.476783 269.243318 
L 397.941687 266.35777 
L 398.262829 263.472028 
L 398.443576 260.591533 
L 398.487273 257.7206 
L 398.398089 254.872115 
L 398.182235 252.043529 
L 397.844628 249.243389 
L 397.38829 246.457237 
L 396.816097 243.703341 
L 395.351942 238.320222 
L 393.482343 233.08048 
L 391.238434 228.012719 
L 388.65409 223.146838 
L 385.747872 218.485178 
L 382.574 214.080345 
L 379.162083 209.916053 
L 375.546992 205.988107 
L 371.76179 202.282004 
L 367.834431 198.781169 
L 363.704883 195.415495 
L 359.341928 192.217585 
L 354.71836 189.248381 
L 349.824587 186.577873 
L 347.254336 185.370519 
L 344.638328 184.282749 
L 341.97908 183.312764 
L 339.276281 182.459276 
L 336.556812 181.729112 
L 333.81042 181.113066 
L 328.286805 180.219343 
L 322.742034 179.749859 
L 317.20997 179.684882 
L 311.744026 179.997588 
L 306.372799 180.65566 
L 301.112866 181.613893 
L 295.954726 182.840934 
L 290.923184 184.294141 
L 286.08024 185.908748 
L 276.932787 189.283677 
L 270.440831 191.648167 
L 266.196684 193.035769 
L 261.982745 194.225762 
L 257.803356 195.184629 
L 253.676913 195.873044 
L 249.625833 196.266032 
L 245.615584 196.335736 
L 241.514542 196.074277 
L 237.340424 195.50838 
L 233.095069 194.662975 
L 228.818994 193.576711 
L 224.507645 192.278762 
L 217.852385 190.016139 
L 208.485628 186.779251 
L 203.523912 185.252332 
L 198.503253 183.934171 
L 193.45716 182.822669 
L 188.395949 181.897921 
L 180.837015 180.81767 
L 173.431148 180.027305 
L 164.214048 179.06101 
L 159.941714 178.435863 
L 155.876789 177.618034 
L 151.853109 176.515865 
L 147.799919 175.123257 
L 143.726217 173.479006 
L 139.623114 171.615348 
L 133.470002 168.522735 
L 127.454567 165.220406 
L 121.590193 161.707144 
L 115.863897 157.958115 
L 112.217069 155.381817 
L 108.79116 152.740063 
L 105.645328 150.011541 
L 102.833204 147.189886 
L 100.375557 144.242721 
L 98.225927 141.035997 
L 96.4111 137.608896 
L 94.961136 134.009596 
L 93.911358 130.341527 
L 93.280295 126.647543 
L 93.073409 122.872122 
L 93.278165 118.998235 
L 93.870862 115.038588 
L 94.831134 111.005122 
L 96.127296 106.944211 
L 97.710965 102.90603 
L 99.556593 98.895231 
L 101.60243 94.980948 
L 103.810533 91.172325 
L 106.212618 87.384045 
L 106.212618 87.384045 
" style="fill:none;stroke:#ffffff;stroke-linecap:square;"/>
   </g>
   <g id="patch_3">
    <path d="M 57.6 307.584 
L 57.6 41.472 
" style="fill:none;stroke:#000000;stroke-linecap:square;stroke-linejoin:miter;stroke-width:0.8;"/>
   </g>
   <g id="patch_4">
    <path d="M 414.72 307.584 
L 414.72 41.472 
" style="fill:none;stroke:#000000;stroke-linecap:square;stroke-linejoin:miter;stroke-width:0.8;"/>
   </g>
   <g id="patch_5">
    <path d="M 57.6 307.584 
L 414.72 307.584 
" style="fill:none;stroke:#000000;stroke-linecap:square;stroke-linejoin:miter;stroke-width:0.8;"/>
   </g>
   <g id="patch_6">
    <path d="M 57.6 41.472 
L 414.72 41.472 
" style="fill:none;stroke:#000000;stroke-linecap:square;stroke-linejoin:miter;stroke-width:0.8;"/>
   </g>
  </g>
 </g>
 <defs>
  <clipPath id="p817d26426f">
   <rect height="266.112" width="357.12" x="57.6" y="41.472"/>
  </clipPath>
 </defs>
</svg>
