<?xml version="1.0" encoding="utf-8" standalone="no"?>
<!DOCTYPE svg PUBLIC "-//W3C//DTD SVG 1.1//EN"
  "http://www.w3.org/Graphics/SVG/1.1/DTD/svg11.dtd">
<!-- Created with matplotlib (https://matplotlib.org/) -->
<svg height="345.6pt" version="1.1" viewBox="0 0 460.8 345.6" width="460.8pt" xmlns="http://www.w3.org/2000/svg" xmlns:xlink="http://www.w3.org/1999/xlink">
 <metadata>
  <rdf:RDF xmlns:cc="http://creativecommons.org/ns#" xmlns:dc="http://purl.org/dc/elements/1.1/" xmlns:rdf="http://www.w3.org/1999/02/22-rdf-syntax-ns#">
   <cc:Work>
    <dc:type rdf:resource="http://purl.org/dc/dcmitype/StillImage"/>
    <dc:date>2021-01-23T13:13:46.518385</dc:date>
    <dc:format>image/svg+xml</dc:format>
    <dc:creator>
     <cc:Agent>
      <dc:title>Matplotlib v3.3.3, https://matplotlib.org/</dc:title>
     </cc:Agent>
    </dc:creator>
   </cc:Work>
  </rdf:RDF>
 </metadata>
 <defs>
  <style type="text/css">*{stroke-linecap:butt;stroke-linejoin:round;}</style>
 </defs>
 <g id="figure_1">
  <g id="patch_1">
   <path d="M 0 345.6 
L 460.8 345.6 
L 460.8 0 
L 0 0 
z
" style="fill:#ffffff;"/>
  </g>
  <g id="axes_1">
   <g id="patch_2">
    <path d="M 57.6 307.584 
L 414.72 307.584 
L 414.72 41.472 
L 57.6 41.472 
z
" style="fill:#7d9051;"/>
   </g>
   <g id="matplotlib.axis_1">
    <g id="xtick_1">
     <g id="line2d_1">
      <defs>
       <path d="M 0 0 
L 0 3.5 
" id="mde931044e4" style="stroke:#000000;stroke-width:0.8;"/>
      </defs>
      <g>
       <use style="stroke:#000000;stroke-width:0.8;" x="113.538028" xlink:href="#mde931044e4" y="307.584"/>
      </g>
     </g>
     <g id="text_1">
      <!-- 20 -->
      <g transform="translate(107.175528 322.182437)scale(0.1 -0.1)">
       <defs>
        <path d="M 19.1875 8.296875 
L 53.609375 8.296875 
L 53.609375 0 
L 7.328125 0 
L 7.328125 8.296875 
Q 12.9375 14.109375 22.625 23.890625 
Q 32.328125 33.6875 34.8125 36.53125 
Q 39.546875 41.84375 41.421875 45.53125 
Q 43.3125 49.21875 43.3125 52.78125 
Q 43.3125 58.59375 39.234375 62.25 
Q 35.15625 65.921875 28.609375 65.921875 
Q 23.96875 65.921875 18.8125 64.3125 
Q 13.671875 62.703125 7.8125 59.421875 
L 7.8125 69.390625 
Q 13.765625 71.78125 18.9375 73 
Q 24.125 74.21875 28.421875 74.21875 
Q 39.75 74.21875 46.484375 68.546875 
Q 53.21875 62.890625 53.21875 53.421875 
Q 53.21875 48.921875 51.53125 44.890625 
Q 49.859375 40.875 45.40625 35.40625 
Q 44.1875 33.984375 37.640625 27.21875 
Q 31.109375 20.453125 19.1875 8.296875 
z
" id="DejaVuSans-50"/>
        <path d="M 31.78125 66.40625 
Q 24.171875 66.40625 20.328125 58.90625 
Q 16.5 51.421875 16.5 36.375 
Q 16.5 21.390625 20.328125 13.890625 
Q 24.171875 6.390625 31.78125 6.390625 
Q 39.453125 6.390625 43.28125 13.890625 
Q 47.125 21.390625 47.125 36.375 
Q 47.125 51.421875 43.28125 58.90625 
Q 39.453125 66.40625 31.78125 66.40625 
z
M 31.78125 74.21875 
Q 44.046875 74.21875 50.515625 64.515625 
Q 56.984375 54.828125 56.984375 36.375 
Q 56.984375 17.96875 50.515625 8.265625 
Q 44.046875 -1.421875 31.78125 -1.421875 
Q 19.53125 -1.421875 13.0625 8.265625 
Q 6.59375 17.96875 6.59375 36.375 
Q 6.59375 54.828125 13.0625 64.515625 
Q 19.53125 74.21875 31.78125 74.21875 
z
" id="DejaVuSans-48"/>
       </defs>
       <use xlink:href="#DejaVuSans-50"/>
       <use x="63.623047" xlink:href="#DejaVuSans-48"/>
      </g>
     </g>
    </g>
    <g id="xtick_2">
     <g id="line2d_2">
      <g>
       <use style="stroke:#000000;stroke-width:0.8;" x="170.268274" xlink:href="#mde931044e4" y="307.584"/>
      </g>
     </g>
     <g id="text_2">
      <!-- 40 -->
      <g transform="translate(163.905774 322.182437)scale(0.1 -0.1)">
       <defs>
        <path d="M 37.796875 64.3125 
L 12.890625 25.390625 
L 37.796875 25.390625 
z
M 35.203125 72.90625 
L 47.609375 72.90625 
L 47.609375 25.390625 
L 58.015625 25.390625 
L 58.015625 17.1875 
L 47.609375 17.1875 
L 47.609375 0 
L 37.796875 0 
L 37.796875 17.1875 
L 4.890625 17.1875 
L 4.890625 26.703125 
z
" id="DejaVuSans-52"/>
       </defs>
       <use xlink:href="#DejaVuSans-52"/>
       <use x="63.623047" xlink:href="#DejaVuSans-48"/>
      </g>
     </g>
    </g>
    <g id="xtick_3">
     <g id="line2d_3">
      <g>
       <use style="stroke:#000000;stroke-width:0.8;" x="226.99852" xlink:href="#mde931044e4" y="307.584"/>
      </g>
     </g>
     <g id="text_3">
      <!-- 60 -->
      <g transform="translate(220.63602 322.182437)scale(0.1 -0.1)">
       <defs>
        <path d="M 33.015625 40.375 
Q 26.375 40.375 22.484375 35.828125 
Q 18.609375 31.296875 18.609375 23.390625 
Q 18.609375 15.53125 22.484375 10.953125 
Q 26.375 6.390625 33.015625 6.390625 
Q 39.65625 6.390625 43.53125 10.953125 
Q 47.40625 15.53125 47.40625 23.390625 
Q 47.40625 31.296875 43.53125 35.828125 
Q 39.65625 40.375 33.015625 40.375 
z
M 52.59375 71.296875 
L 52.59375 62.3125 
Q 48.875 64.0625 45.09375 64.984375 
Q 41.3125 65.921875 37.59375 65.921875 
Q 27.828125 65.921875 22.671875 59.328125 
Q 17.53125 52.734375 16.796875 39.40625 
Q 19.671875 43.65625 24.015625 45.921875 
Q 28.375 48.1875 33.59375 48.1875 
Q 44.578125 48.1875 50.953125 41.515625 
Q 57.328125 34.859375 57.328125 23.390625 
Q 57.328125 12.15625 50.6875 5.359375 
Q 44.046875 -1.421875 33.015625 -1.421875 
Q 20.359375 -1.421875 13.671875 8.265625 
Q 6.984375 17.96875 6.984375 36.375 
Q 6.984375 53.65625 15.1875 63.9375 
Q 23.390625 74.21875 37.203125 74.21875 
Q 40.921875 74.21875 44.703125 73.484375 
Q 48.484375 72.75 52.59375 71.296875 
z
" id="DejaVuSans-54"/>
       </defs>
       <use xlink:href="#DejaVuSans-54"/>
       <use x="63.623047" xlink:href="#DejaVuSans-48"/>
      </g>
     </g>
    </g>
    <g id="xtick_4">
     <g id="line2d_4">
      <g>
       <use style="stroke:#000000;stroke-width:0.8;" x="283.728766" xlink:href="#mde931044e4" y="307.584"/>
      </g>
     </g>
     <g id="text_4">
      <!-- 80 -->
      <g transform="translate(277.366266 322.182437)scale(0.1 -0.1)">
       <defs>
        <path d="M 31.78125 34.625 
Q 24.75 34.625 20.71875 30.859375 
Q 16.703125 27.09375 16.703125 20.515625 
Q 16.703125 13.921875 20.71875 10.15625 
Q 24.75 6.390625 31.78125 6.390625 
Q 38.8125 6.390625 42.859375 10.171875 
Q 46.921875 13.96875 46.921875 20.515625 
Q 46.921875 27.09375 42.890625 30.859375 
Q 38.875 34.625 31.78125 34.625 
z
M 21.921875 38.8125 
Q 15.578125 40.375 12.03125 44.71875 
Q 8.5 49.078125 8.5 55.328125 
Q 8.5 64.0625 14.71875 69.140625 
Q 20.953125 74.21875 31.78125 74.21875 
Q 42.671875 74.21875 48.875 69.140625 
Q 55.078125 64.0625 55.078125 55.328125 
Q 55.078125 49.078125 51.53125 44.71875 
Q 48 40.375 41.703125 38.8125 
Q 48.828125 37.15625 52.796875 32.3125 
Q 56.78125 27.484375 56.78125 20.515625 
Q 56.78125 9.90625 50.3125 4.234375 
Q 43.84375 -1.421875 31.78125 -1.421875 
Q 19.734375 -1.421875 13.25 4.234375 
Q 6.78125 9.90625 6.78125 20.515625 
Q 6.78125 27.484375 10.78125 32.3125 
Q 14.796875 37.15625 21.921875 38.8125 
z
M 18.3125 54.390625 
Q 18.3125 48.734375 21.84375 45.5625 
Q 25.390625 42.390625 31.78125 42.390625 
Q 38.140625 42.390625 41.71875 45.5625 
Q 45.3125 48.734375 45.3125 54.390625 
Q 45.3125 60.0625 41.71875 63.234375 
Q 38.140625 66.40625 31.78125 66.40625 
Q 25.390625 66.40625 21.84375 63.234375 
Q 18.3125 60.0625 18.3125 54.390625 
z
" id="DejaVuSans-56"/>
       </defs>
       <use xlink:href="#DejaVuSans-56"/>
       <use x="63.623047" xlink:href="#DejaVuSans-48"/>
      </g>
     </g>
    </g>
    <g id="xtick_5">
     <g id="line2d_5">
      <g>
       <use style="stroke:#000000;stroke-width:0.8;" x="340.459012" xlink:href="#mde931044e4" y="307.584"/>
      </g>
     </g>
     <g id="text_5">
      <!-- 100 -->
      <g transform="translate(330.915262 322.182437)scale(0.1 -0.1)">
       <defs>
        <path d="M 12.40625 8.296875 
L 28.515625 8.296875 
L 28.515625 63.921875 
L 10.984375 60.40625 
L 10.984375 69.390625 
L 28.421875 72.90625 
L 38.28125 72.90625 
L 38.28125 8.296875 
L 54.390625 8.296875 
L 54.390625 0 
L 12.40625 0 
z
" id="DejaVuSans-49"/>
       </defs>
       <use xlink:href="#DejaVuSans-49"/>
       <use x="63.623047" xlink:href="#DejaVuSans-48"/>
       <use x="127.246094" xlink:href="#DejaVuSans-48"/>
      </g>
     </g>
    </g>
    <g id="xtick_6">
     <g id="line2d_6">
      <g>
       <use style="stroke:#000000;stroke-width:0.8;" x="397.189257" xlink:href="#mde931044e4" y="307.584"/>
      </g>
     </g>
     <g id="text_6">
      <!-- 120 -->
      <g transform="translate(387.645507 322.182437)scale(0.1 -0.1)">
       <use xlink:href="#DejaVuSans-49"/>
       <use x="63.623047" xlink:href="#DejaVuSans-50"/>
       <use x="127.246094" xlink:href="#DejaVuSans-48"/>
      </g>
     </g>
    </g>
   </g>
   <g id="matplotlib.axis_2">
    <g id="ytick_1">
     <g id="line2d_7">
      <defs>
       <path d="M 0 0 
L -3.5 0 
" id="m03683b4d28" style="stroke:#000000;stroke-width:0.8;"/>
      </defs>
      <g>
       <use style="stroke:#000000;stroke-width:0.8;" x="57.6" xlink:href="#m03683b4d28" y="267.582192"/>
      </g>
     </g>
     <g id="text_7">
      <!-- 0 -->
      <g transform="translate(44.2375 271.381411)scale(0.1 -0.1)">
       <use xlink:href="#DejaVuSans-48"/>
      </g>
     </g>
    </g>
    <g id="ytick_2">
     <g id="line2d_8">
      <g>
       <use style="stroke:#000000;stroke-width:0.8;" x="57.6" xlink:href="#m03683b4d28" y="210.851946"/>
      </g>
     </g>
     <g id="text_8">
      <!-- 20 -->
      <g transform="translate(37.875 214.651165)scale(0.1 -0.1)">
       <use xlink:href="#DejaVuSans-50"/>
       <use x="63.623047" xlink:href="#DejaVuSans-48"/>
      </g>
     </g>
    </g>
    <g id="ytick_3">
     <g id="line2d_9">
      <g>
       <use style="stroke:#000000;stroke-width:0.8;" x="57.6" xlink:href="#m03683b4d28" y="154.1217"/>
      </g>
     </g>
     <g id="text_9">
      <!-- 40 -->
      <g transform="translate(37.875 157.920919)scale(0.1 -0.1)">
       <use xlink:href="#DejaVuSans-52"/>
       <use x="63.623047" xlink:href="#DejaVuSans-48"/>
      </g>
     </g>
    </g>
    <g id="ytick_4">
     <g id="line2d_10">
      <g>
       <use style="stroke:#000000;stroke-width:0.8;" x="57.6" xlink:href="#m03683b4d28" y="97.391454"/>
      </g>
     </g>
     <g id="text_10">
      <!-- 60 -->
      <g transform="translate(37.875 101.190673)scale(0.1 -0.1)">
       <use xlink:href="#DejaVuSans-54"/>
       <use x="63.623047" xlink:href="#DejaVuSans-48"/>
      </g>
     </g>
    </g>
   </g>
   <g id="line2d_11">
    <path clip-path="url(#pb45d8eadde)" d="M 85.172906 208.012597 
L 85.351606 202.484235 
L 85.323241 194.011573 
L 85.178579 182.529371 
L 85.255164 176.768414 
L 85.547325 171.038659 
L 86.140156 165.365635 
L 86.574143 162.557488 
L 87.118753 159.774869 
L 87.77966 157.020616 
L 88.568211 154.297564 
L 89.498587 151.611387 
L 90.576461 148.964921 
L 91.801835 146.366676 
L 93.163361 143.830834 
L 94.661039 141.363068 
L 96.286361 138.980398 
L 98.036489 136.688496 
L 99.90575 134.498708 
L 101.885636 132.425218 
L 103.973309 130.473697 
L 106.163097 128.655493 
L 108.449325 126.981951 
L 110.823486 125.441724 
L 113.271396 124.020632 
L 115.790219 122.710163 
L 120.989546 120.367204 
L 126.342045 118.316406 
L 134.494181 115.579171 
L 139.948794 113.919812 
L 145.431773 112.453335 
L 150.965808 111.24498 
L 156.570756 110.359989 
L 162.266473 109.860762 
L 165.13986 109.772831 
L 168.021757 109.801196 
L 170.89798 109.954367 
L 173.760021 110.235182 
L 176.59937 110.652149 
L 179.407517 111.210942 
L 182.167443 111.914397 
L 184.879149 112.773861 
L 187.522779 113.792168 
L 190.098332 114.974994 
L 192.600136 116.310991 
L 195.031027 117.788814 
L 197.388168 119.39428 
L 199.671561 121.11888 
L 201.88404 122.94843 
L 206.093424 126.874163 
L 210.016321 131.075038 
L 213.664076 135.465959 
L 217.101929 139.987359 
L 222.017604 146.916959 
L 230.172577 158.498439 
L 245.186237 179.148248 
L 254.921147 193.092543 
L 258.319289 197.645145 
L 261.887621 202.092796 
L 265.651673 206.390112 
L 269.625627 210.491709 
L 273.817992 214.340856 
L 278.234442 217.892169 
L 282.889158 221.091755 
L 287.75945 223.95096 
L 292.811278 226.52084 
L 298.004932 228.869472 
L 305.964186 232.10026 
L 311.33654 234.122693 
L 316.757115 235.95508 
L 322.240093 237.492469 
L 325.005693 238.113666 
L 327.791148 238.615728 
L 330.596458 238.990148 
L 333.421625 239.217069 
L 336.269483 239.287982 
L 339.128687 239.20005 
L 341.985055 238.953273 
L 344.832914 238.550488 
L 347.660916 237.988859 
L 350.452044 237.271221 
L 353.200625 236.397576 
L 355.889638 235.367922 
L 358.516249 234.18226 
L 361.0606 232.843426 
L 363.519857 231.348584 
L 365.882671 229.711916 
L 368.143372 227.93626 
L 370.299121 226.030123 
L 372.34141 224.004853 
L 374.267402 221.866123 
L 376.068587 219.622442 
L 377.742129 217.285156 
L 379.279519 214.857101 
L 380.677919 212.352461 
L 381.931658 209.776908 
L 383.040734 207.138951 
L 384.010821 204.444265 
L 384.844756 201.704194 
L 385.545374 198.927248 
L 386.112677 196.116265 
L 386.555173 193.285425 
L 386.870026 190.440404 
L 387.065745 187.586872 
L 387.142331 184.733341 
L 386.955121 179.05748 
L 386.373636 173.415657 
L 385.460279 167.807872 
L 384.283126 162.231289 
L 382.907418 156.685907 
L 380.61268 148.423147 
L 376.726658 134.771013 
L 375.345276 129.347602 
L 375.345276 129.347602 
" style="fill:none;stroke:#fea952;stroke-linecap:square;"/>
   </g>
   <g id="line2d_12">
    <path clip-path="url(#pb45d8eadde)" d="M 73.836999 207.532956 
L 74.005841 202.40385 
L 73.978808 194.203087 
L 73.832727 182.462368 
L 73.917968 176.320304 
L 74.245682 170.035822 
L 74.927223 163.632727 
L 75.439353 160.378202 
L 76.085896 157.127438 
L 76.88137 153.864653 
L 77.847025 150.584207 
L 78.99066 147.331631 
L 80.31441 144.125176 
L 81.805511 140.999522 
L 83.46384 137.944228 
L 85.28804 134.969343 
L 87.268788 132.094454 
L 89.406952 129.32209 
L 91.699797 126.663202 
L 94.137602 124.136623 
L 96.725328 121.744459 
L 99.461337 119.500208 
L 102.274257 117.463476 
L 105.127055 115.629309 
L 108.034724 113.95534 
L 110.952574 112.447122 
L 116.810616 109.818774 
L 122.609852 107.601763 
L 131.113147 104.748592 
L 136.909755 102.98834 
L 142.864747 101.401493 
L 149.012177 100.068391 
L 155.36362 99.078337 
L 158.632418 98.736922 
L 161.919422 98.520022 
L 165.251528 98.427331 
L 168.625129 98.471201 
L 172.0059 98.662541 
L 175.408543 99.009533 
L 178.813704 99.524276 
L 182.209825 100.216403 
L 185.595463 101.098598 
L 188.957472 102.186126 
L 192.257982 103.481461 
L 195.442949 104.966603 
L 198.494095 106.615937 
L 201.418121 108.411296 
L 204.226351 110.340436 
L 206.901993 112.375101 
L 209.464876 114.506644 
L 211.918872 116.721174 
L 216.501439 121.332796 
L 220.691373 126.113353 
L 224.501552 130.930279 
L 228.021505 135.726092 
L 244.339863 158.623308 
L 252.845651 170.310785 
L 267.239328 190.633317 
L 270.511726 194.720032 
L 273.907581 198.607258 
L 277.431004 202.257092 
L 281.081556 205.62458 
L 284.839967 208.667211 
L 288.793564 211.403059 
L 293.032587 213.904724 
L 297.593878 216.232032 
L 302.396768 218.407894 
L 310.022901 221.504994 
L 317.553262 224.281762 
L 322.379006 225.796684 
L 327.018323 226.947549 
L 331.504862 227.680522 
L 333.704058 227.874536 
L 335.920712 227.947294 
L 338.152081 227.896109 
L 340.396148 227.719031 
L 342.622798 227.421777 
L 344.835584 227.000214 
L 347.015105 226.458253 
L 349.143364 225.801753 
L 351.221551 225.026655 
L 353.23279 224.141448 
L 355.167289 223.147978 
L 357.059243 222.021563 
L 358.874321 220.789144 
L 360.627706 219.4364 
L 362.309891 217.973757 
L 363.910182 216.412276 
L 365.419642 214.763308 
L 366.843498 213.017099 
L 368.156096 211.215494 
L 369.372952 209.326028 
L 370.476349 207.386498 
L 371.47241 205.379525 
L 372.365379 203.295824 
L 373.156352 201.140731 
L 373.843446 198.928583 
L 374.42356 196.682684 
L 375.277972 192.0374 
L 375.72378 187.282466 
L 375.77191 182.480942 
L 375.445737 177.582352 
L 374.780088 172.577349 
L 373.825089 167.475659 
L 372.624651 162.269845 
L 370.48932 154.290214 
L 364.999986 134.77843 
L 364.330569 132.069561 
L 364.330569 132.069561 
" style="fill:none;stroke:#ffffff;stroke-linecap:square;"/>
   </g>
   <g id="line2d_13">
    <path clip-path="url(#pb45d8eadde)" d="M 96.508812 208.492238 
L 96.69737 202.56462 
L 96.667673 193.820058 
L 96.539219 179.88217 
L 96.692579 174.605611 
L 97.064522 169.549475 
L 97.708932 164.736774 
L 98.67795 160.176579 
L 99.289396 158.010921 
L 100.006513 155.891143 
L 100.838513 153.804666 
L 101.798159 151.733829 
L 102.862882 149.717439 
L 104.034039 147.756793 
L 105.303933 145.866341 
L 106.666026 144.054901 
L 108.111704 142.334215 
L 109.63367 140.713812 
L 111.22129 139.202935 
L 112.864856 137.810778 
L 114.624393 136.500426 
L 116.519918 135.25414 
L 118.508068 134.085924 
L 122.850154 131.918379 
L 127.59258 129.952171 
L 132.655147 128.131158 
L 140.442965 125.606902 
L 145.507001 124.148663 
L 150.464909 122.928278 
L 155.342481 121.991818 
L 160.18212 121.376042 
L 165.028192 121.11833 
L 169.79006 121.246194 
L 174.385035 121.780022 
L 176.605209 122.205482 
L 178.739423 122.730196 
L 180.800827 123.361595 
L 182.787575 124.102875 
L 184.753714 124.983386 
L 186.706176 126.006045 
L 188.643932 127.166333 
L 190.549986 128.448124 
L 194.303204 131.390217 
L 197.92105 134.744685 
L 201.382717 138.436676 
L 204.697084 142.417642 
L 207.90782 146.635757 
L 212.692244 153.379968 
L 221.009385 165.189383 
L 235.860876 185.611257 
L 245.782101 199.816431 
L 249.39925 204.656973 
L 253.263516 209.46556 
L 257.395765 214.172966 
L 261.820249 218.726326 
L 266.554428 223.057133 
L 269.042439 225.121423 
L 271.628916 227.117128 
L 274.285786 229.009276 
L 276.984753 230.780451 
L 282.486312 233.997196 
L 288.028678 236.809648 
L 293.613096 239.33105 
L 301.90547 242.695525 
L 307.583864 244.830179 
L 313.519627 246.82943 
L 319.75355 248.562697 
L 322.993063 249.279782 
L 326.290122 249.86205 
L 329.688055 250.299774 
L 333.139191 250.559602 
L 336.618254 250.628669 
L 340.105294 250.50399 
L 343.573962 250.187516 
L 347.043029 249.6792 
L 350.486249 248.977504 
L 353.888984 248.08419 
L 357.257886 246.993399 
L 360.557726 245.709188 
L 363.799708 244.223071 
L 366.953912 242.538874 
L 369.98047 240.675604 
L 372.891022 238.634688 
L 375.659037 236.436119 
L 378.288351 234.08649 
L 380.772637 231.597431 
L 383.115161 228.968939 
L 385.293676 226.227785 
L 387.328163 223.354817 
L 389.186086 220.388174 
L 390.87949 217.318424 
L 392.390905 214.17429 
L 393.716089 210.982079 
L 394.86529 207.747799 
L 395.846066 204.479805 
L 396.667189 201.171812 
L 397.322603 197.868518 
L 397.832374 194.533451 
L 398.189481 191.216788 
L 398.40771 187.891279 
L 398.487273 184.574829 
L 398.433329 181.301369 
L 397.976625 174.882275 
L 397.127577 168.63767 
L 395.977883 162.557829 
L 394.608441 156.644515 
L 392.307467 148.053241 
L 387.0294 129.334512 
L 386.359983 126.625643 
L 386.359983 126.625643 
" style="fill:none;stroke:#ffffff;stroke-linecap:square;"/>
   </g>
   <g id="patch_3">
    <path d="M 57.6 307.584 
L 57.6 41.472 
" style="fill:none;stroke:#000000;stroke-linecap:square;stroke-linejoin:miter;stroke-width:0.8;"/>
   </g>
   <g id="patch_4">
    <path d="M 414.72 307.584 
L 414.72 41.472 
" style="fill:none;stroke:#000000;stroke-linecap:square;stroke-linejoin:miter;stroke-width:0.8;"/>
   </g>
   <g id="patch_5">
    <path d="M 57.6 307.584 
L 414.72 307.584 
" style="fill:none;stroke:#000000;stroke-linecap:square;stroke-linejoin:miter;stroke-width:0.8;"/>
   </g>
   <g id="patch_6">
    <path d="M 57.6 41.472 
L 414.72 41.472 
" style="fill:none;stroke:#000000;stroke-linecap:square;stroke-linejoin:miter;stroke-width:0.8;"/>
   </g>
  </g>
 </g>
 <defs>
  <clipPath id="pb45d8eadde">
   <rect height="266.112" width="357.12" x="57.6" y="41.472"/>
  </clipPath>
 </defs>
</svg>
