<?xml version="1.0" encoding="utf-8" standalone="no"?>
<!DOCTYPE svg PUBLIC "-//W3C//DTD SVG 1.1//EN"
  "http://www.w3.org/Graphics/SVG/1.1/DTD/svg11.dtd">
<!-- Created with matplotlib (https://matplotlib.org/) -->
<svg height="345.6pt" version="1.1" viewBox="0 0 460.8 345.6" width="460.8pt" xmlns="http://www.w3.org/2000/svg" xmlns:xlink="http://www.w3.org/1999/xlink">
 <metadata>
  <rdf:RDF xmlns:cc="http://creativecommons.org/ns#" xmlns:dc="http://purl.org/dc/elements/1.1/" xmlns:rdf="http://www.w3.org/1999/02/22-rdf-syntax-ns#">
   <cc:Work>
    <dc:type rdf:resource="http://purl.org/dc/dcmitype/StillImage"/>
    <dc:date>2021-01-22T10:58:50.772635</dc:date>
    <dc:format>image/svg+xml</dc:format>
    <dc:creator>
     <cc:Agent>
      <dc:title>Matplotlib v3.3.3, https://matplotlib.org/</dc:title>
     </cc:Agent>
    </dc:creator>
   </cc:Work>
  </rdf:RDF>
 </metadata>
 <defs>
  <style type="text/css">*{stroke-linecap:butt;stroke-linejoin:round;}</style>
 </defs>
 <g id="figure_1">
  <g id="patch_1">
   <path d="M 0 345.6 
L 460.8 345.6 
L 460.8 0 
L 0 0 
z
" style="fill:#ffffff;"/>
  </g>
  <g id="axes_1">
   <g id="patch_2">
    <path d="M 57.6 307.584 
L 414.72 307.584 
L 414.72 41.472 
L 57.6 41.472 
z
" style="fill:#7d9051;"/>
   </g>
   <g id="matplotlib.axis_1">
    <g id="xtick_1">
     <g id="line2d_1">
      <defs>
       <path d="M 0 0 
L 0 3.5 
" id="m816e5f23dd" style="stroke:#000000;stroke-width:0.8;"/>
      </defs>
      <g>
       <use style="stroke:#000000;stroke-width:0.8;" x="88.442766" xlink:href="#m816e5f23dd" y="307.584"/>
      </g>
     </g>
     <g id="text_1">
      <!-- −20 -->
      <g transform="translate(77.890422 322.182437)scale(0.1 -0.1)">
       <defs>
        <path d="M 10.59375 35.5 
L 73.1875 35.5 
L 73.1875 27.203125 
L 10.59375 27.203125 
z
" id="DejaVuSans-8722"/>
        <path d="M 19.1875 8.296875 
L 53.609375 8.296875 
L 53.609375 0 
L 7.328125 0 
L 7.328125 8.296875 
Q 12.9375 14.109375 22.625 23.890625 
Q 32.328125 33.6875 34.8125 36.53125 
Q 39.546875 41.84375 41.421875 45.53125 
Q 43.3125 49.21875 43.3125 52.78125 
Q 43.3125 58.59375 39.234375 62.25 
Q 35.15625 65.921875 28.609375 65.921875 
Q 23.96875 65.921875 18.8125 64.3125 
Q 13.671875 62.703125 7.8125 59.421875 
L 7.8125 69.390625 
Q 13.765625 71.78125 18.9375 73 
Q 24.125 74.21875 28.421875 74.21875 
Q 39.75 74.21875 46.484375 68.546875 
Q 53.21875 62.890625 53.21875 53.421875 
Q 53.21875 48.921875 51.53125 44.890625 
Q 49.859375 40.875 45.40625 35.40625 
Q 44.1875 33.984375 37.640625 27.21875 
Q 31.109375 20.453125 19.1875 8.296875 
z
" id="DejaVuSans-50"/>
        <path d="M 31.78125 66.40625 
Q 24.171875 66.40625 20.328125 58.90625 
Q 16.5 51.421875 16.5 36.375 
Q 16.5 21.390625 20.328125 13.890625 
Q 24.171875 6.390625 31.78125 6.390625 
Q 39.453125 6.390625 43.28125 13.890625 
Q 47.125 21.390625 47.125 36.375 
Q 47.125 51.421875 43.28125 58.90625 
Q 39.453125 66.40625 31.78125 66.40625 
z
M 31.78125 74.21875 
Q 44.046875 74.21875 50.515625 64.515625 
Q 56.984375 54.828125 56.984375 36.375 
Q 56.984375 17.96875 50.515625 8.265625 
Q 44.046875 -1.421875 31.78125 -1.421875 
Q 19.53125 -1.421875 13.0625 8.265625 
Q 6.59375 17.96875 6.59375 36.375 
Q 6.59375 54.828125 13.0625 64.515625 
Q 19.53125 74.21875 31.78125 74.21875 
z
" id="DejaVuSans-48"/>
       </defs>
       <use xlink:href="#DejaVuSans-8722"/>
       <use x="83.789062" xlink:href="#DejaVuSans-50"/>
       <use x="147.412109" xlink:href="#DejaVuSans-48"/>
      </g>
     </g>
    </g>
    <g id="xtick_2">
     <g id="line2d_2">
      <g>
       <use style="stroke:#000000;stroke-width:0.8;" x="128.435064" xlink:href="#m816e5f23dd" y="307.584"/>
      </g>
     </g>
     <g id="text_2">
      <!-- 0 -->
      <g transform="translate(125.253814 322.182437)scale(0.1 -0.1)">
       <use xlink:href="#DejaVuSans-48"/>
      </g>
     </g>
    </g>
    <g id="xtick_3">
     <g id="line2d_3">
      <g>
       <use style="stroke:#000000;stroke-width:0.8;" x="168.427361" xlink:href="#m816e5f23dd" y="307.584"/>
      </g>
     </g>
     <g id="text_3">
      <!-- 20 -->
      <g transform="translate(162.064861 322.182437)scale(0.1 -0.1)">
       <use xlink:href="#DejaVuSans-50"/>
       <use x="63.623047" xlink:href="#DejaVuSans-48"/>
      </g>
     </g>
    </g>
    <g id="xtick_4">
     <g id="line2d_4">
      <g>
       <use style="stroke:#000000;stroke-width:0.8;" x="208.419659" xlink:href="#m816e5f23dd" y="307.584"/>
      </g>
     </g>
     <g id="text_4">
      <!-- 40 -->
      <g transform="translate(202.057159 322.182437)scale(0.1 -0.1)">
       <defs>
        <path d="M 37.796875 64.3125 
L 12.890625 25.390625 
L 37.796875 25.390625 
z
M 35.203125 72.90625 
L 47.609375 72.90625 
L 47.609375 25.390625 
L 58.015625 25.390625 
L 58.015625 17.1875 
L 47.609375 17.1875 
L 47.609375 0 
L 37.796875 0 
L 37.796875 17.1875 
L 4.890625 17.1875 
L 4.890625 26.703125 
z
" id="DejaVuSans-52"/>
       </defs>
       <use xlink:href="#DejaVuSans-52"/>
       <use x="63.623047" xlink:href="#DejaVuSans-48"/>
      </g>
     </g>
    </g>
    <g id="xtick_5">
     <g id="line2d_5">
      <g>
       <use style="stroke:#000000;stroke-width:0.8;" x="248.411957" xlink:href="#m816e5f23dd" y="307.584"/>
      </g>
     </g>
     <g id="text_5">
      <!-- 60 -->
      <g transform="translate(242.049457 322.182437)scale(0.1 -0.1)">
       <defs>
        <path d="M 33.015625 40.375 
Q 26.375 40.375 22.484375 35.828125 
Q 18.609375 31.296875 18.609375 23.390625 
Q 18.609375 15.53125 22.484375 10.953125 
Q 26.375 6.390625 33.015625 6.390625 
Q 39.65625 6.390625 43.53125 10.953125 
Q 47.40625 15.53125 47.40625 23.390625 
Q 47.40625 31.296875 43.53125 35.828125 
Q 39.65625 40.375 33.015625 40.375 
z
M 52.59375 71.296875 
L 52.59375 62.3125 
Q 48.875 64.0625 45.09375 64.984375 
Q 41.3125 65.921875 37.59375 65.921875 
Q 27.828125 65.921875 22.671875 59.328125 
Q 17.53125 52.734375 16.796875 39.40625 
Q 19.671875 43.65625 24.015625 45.921875 
Q 28.375 48.1875 33.59375 48.1875 
Q 44.578125 48.1875 50.953125 41.515625 
Q 57.328125 34.859375 57.328125 23.390625 
Q 57.328125 12.15625 50.6875 5.359375 
Q 44.046875 -1.421875 33.015625 -1.421875 
Q 20.359375 -1.421875 13.671875 8.265625 
Q 6.984375 17.96875 6.984375 36.375 
Q 6.984375 53.65625 15.1875 63.9375 
Q 23.390625 74.21875 37.203125 74.21875 
Q 40.921875 74.21875 44.703125 73.484375 
Q 48.484375 72.75 52.59375 71.296875 
z
" id="DejaVuSans-54"/>
       </defs>
       <use xlink:href="#DejaVuSans-54"/>
       <use x="63.623047" xlink:href="#DejaVuSans-48"/>
      </g>
     </g>
    </g>
    <g id="xtick_6">
     <g id="line2d_6">
      <g>
       <use style="stroke:#000000;stroke-width:0.8;" x="288.404255" xlink:href="#m816e5f23dd" y="307.584"/>
      </g>
     </g>
     <g id="text_6">
      <!-- 80 -->
      <g transform="translate(282.041755 322.182437)scale(0.1 -0.1)">
       <defs>
        <path d="M 31.78125 34.625 
Q 24.75 34.625 20.71875 30.859375 
Q 16.703125 27.09375 16.703125 20.515625 
Q 16.703125 13.921875 20.71875 10.15625 
Q 24.75 6.390625 31.78125 6.390625 
Q 38.8125 6.390625 42.859375 10.171875 
Q 46.921875 13.96875 46.921875 20.515625 
Q 46.921875 27.09375 42.890625 30.859375 
Q 38.875 34.625 31.78125 34.625 
z
M 21.921875 38.8125 
Q 15.578125 40.375 12.03125 44.71875 
Q 8.5 49.078125 8.5 55.328125 
Q 8.5 64.0625 14.71875 69.140625 
Q 20.953125 74.21875 31.78125 74.21875 
Q 42.671875 74.21875 48.875 69.140625 
Q 55.078125 64.0625 55.078125 55.328125 
Q 55.078125 49.078125 51.53125 44.71875 
Q 48 40.375 41.703125 38.8125 
Q 48.828125 37.15625 52.796875 32.3125 
Q 56.78125 27.484375 56.78125 20.515625 
Q 56.78125 9.90625 50.3125 4.234375 
Q 43.84375 -1.421875 31.78125 -1.421875 
Q 19.734375 -1.421875 13.25 4.234375 
Q 6.78125 9.90625 6.78125 20.515625 
Q 6.78125 27.484375 10.78125 32.3125 
Q 14.796875 37.15625 21.921875 38.8125 
z
M 18.3125 54.390625 
Q 18.3125 48.734375 21.84375 45.5625 
Q 25.390625 42.390625 31.78125 42.390625 
Q 38.140625 42.390625 41.71875 45.5625 
Q 45.3125 48.734375 45.3125 54.390625 
Q 45.3125 60.0625 41.71875 63.234375 
Q 38.140625 66.40625 31.78125 66.40625 
Q 25.390625 66.40625 21.84375 63.234375 
Q 18.3125 60.0625 18.3125 54.390625 
z
" id="DejaVuSans-56"/>
       </defs>
       <use xlink:href="#DejaVuSans-56"/>
       <use x="63.623047" xlink:href="#DejaVuSans-48"/>
      </g>
     </g>
    </g>
    <g id="xtick_7">
     <g id="line2d_7">
      <g>
       <use style="stroke:#000000;stroke-width:0.8;" x="328.396553" xlink:href="#m816e5f23dd" y="307.584"/>
      </g>
     </g>
     <g id="text_7">
      <!-- 100 -->
      <g transform="translate(318.852803 322.182437)scale(0.1 -0.1)">
       <defs>
        <path d="M 12.40625 8.296875 
L 28.515625 8.296875 
L 28.515625 63.921875 
L 10.984375 60.40625 
L 10.984375 69.390625 
L 28.421875 72.90625 
L 38.28125 72.90625 
L 38.28125 8.296875 
L 54.390625 8.296875 
L 54.390625 0 
L 12.40625 0 
z
" id="DejaVuSans-49"/>
       </defs>
       <use xlink:href="#DejaVuSans-49"/>
       <use x="63.623047" xlink:href="#DejaVuSans-48"/>
       <use x="127.246094" xlink:href="#DejaVuSans-48"/>
      </g>
     </g>
    </g>
    <g id="xtick_8">
     <g id="line2d_8">
      <g>
       <use style="stroke:#000000;stroke-width:0.8;" x="368.388851" xlink:href="#m816e5f23dd" y="307.584"/>
      </g>
     </g>
     <g id="text_8">
      <!-- 120 -->
      <g transform="translate(358.845101 322.182437)scale(0.1 -0.1)">
       <use xlink:href="#DejaVuSans-49"/>
       <use x="63.623047" xlink:href="#DejaVuSans-50"/>
       <use x="127.246094" xlink:href="#DejaVuSans-48"/>
      </g>
     </g>
    </g>
    <g id="xtick_9">
     <g id="line2d_9">
      <g>
       <use style="stroke:#000000;stroke-width:0.8;" x="408.381149" xlink:href="#m816e5f23dd" y="307.584"/>
      </g>
     </g>
     <g id="text_9">
      <!-- 140 -->
      <g transform="translate(398.837399 322.182437)scale(0.1 -0.1)">
       <use xlink:href="#DejaVuSans-49"/>
       <use x="63.623047" xlink:href="#DejaVuSans-52"/>
       <use x="127.246094" xlink:href="#DejaVuSans-48"/>
      </g>
     </g>
    </g>
   </g>
   <g id="matplotlib.axis_2">
    <g id="ytick_1">
     <g id="line2d_10">
      <defs>
       <path d="M 0 0 
L -3.5 0 
" id="mfb8c0a80d1" style="stroke:#000000;stroke-width:0.8;"/>
      </defs>
      <g>
       <use style="stroke:#000000;stroke-width:0.8;" x="57.6" xlink:href="#mfb8c0a80d1" y="273.915722"/>
      </g>
     </g>
     <g id="text_10">
      <!-- 20 -->
      <g transform="translate(37.875 277.714941)scale(0.1 -0.1)">
       <use xlink:href="#DejaVuSans-50"/>
       <use x="63.623047" xlink:href="#DejaVuSans-48"/>
      </g>
     </g>
    </g>
    <g id="ytick_2">
     <g id="line2d_11">
      <g>
       <use style="stroke:#000000;stroke-width:0.8;" x="57.6" xlink:href="#mfb8c0a80d1" y="233.923424"/>
      </g>
     </g>
     <g id="text_11">
      <!-- 40 -->
      <g transform="translate(37.875 237.722643)scale(0.1 -0.1)">
       <use xlink:href="#DejaVuSans-52"/>
       <use x="63.623047" xlink:href="#DejaVuSans-48"/>
      </g>
     </g>
    </g>
    <g id="ytick_3">
     <g id="line2d_12">
      <g>
       <use style="stroke:#000000;stroke-width:0.8;" x="57.6" xlink:href="#mfb8c0a80d1" y="193.931126"/>
      </g>
     </g>
     <g id="text_12">
      <!-- 60 -->
      <g transform="translate(37.875 197.730345)scale(0.1 -0.1)">
       <use xlink:href="#DejaVuSans-54"/>
       <use x="63.623047" xlink:href="#DejaVuSans-48"/>
      </g>
     </g>
    </g>
    <g id="ytick_4">
     <g id="line2d_13">
      <g>
       <use style="stroke:#000000;stroke-width:0.8;" x="57.6" xlink:href="#mfb8c0a80d1" y="153.938828"/>
      </g>
     </g>
     <g id="text_13">
      <!-- 80 -->
      <g transform="translate(37.875 157.738047)scale(0.1 -0.1)">
       <use xlink:href="#DejaVuSans-56"/>
       <use x="63.623047" xlink:href="#DejaVuSans-48"/>
      </g>
     </g>
    </g>
    <g id="ytick_5">
     <g id="line2d_14">
      <g>
       <use style="stroke:#000000;stroke-width:0.8;" x="57.6" xlink:href="#mfb8c0a80d1" y="113.946531"/>
      </g>
     </g>
     <g id="text_14">
      <!-- 100 -->
      <g transform="translate(31.5125 117.745749)scale(0.1 -0.1)">
       <use xlink:href="#DejaVuSans-49"/>
       <use x="63.623047" xlink:href="#DejaVuSans-48"/>
       <use x="127.246094" xlink:href="#DejaVuSans-48"/>
      </g>
     </g>
    </g>
    <g id="ytick_6">
     <g id="line2d_15">
      <g>
       <use style="stroke:#000000;stroke-width:0.8;" x="57.6" xlink:href="#mfb8c0a80d1" y="73.954233"/>
      </g>
     </g>
     <g id="text_15">
      <!-- 120 -->
      <g transform="translate(31.5125 77.753451)scale(0.1 -0.1)">
       <use xlink:href="#DejaVuSans-49"/>
       <use x="63.623047" xlink:href="#DejaVuSans-50"/>
       <use x="127.246094" xlink:href="#DejaVuSans-48"/>
      </g>
     </g>
    </g>
   </g>
   <g id="line2d_16">
    <path clip-path="url(#pb8b28e46a4)" d="M 322.977597 293.911871 
L 323.691459 289.886646 
L 324.033393 285.841425 
L 324.017397 281.800204 
L 323.659465 277.780978 
L 322.969598 273.805743 
L 321.967791 269.894497 
L 320.664042 266.069233 
L 319.076348 262.34795 
L 317.214707 258.752642 
L 315.097115 255.305306 
L 312.737569 252.019939 
L 310.158066 248.910538 
L 307.374602 245.981102 
L 304.413172 243.237631 
L 301.291773 240.686122 
L 298.0384 238.322577 
L 293.00137 234.999217 
L 284.568994 229.522272 
L 279.699932 225.972955 
L 274.992838 222.201682 
L 270.41572 218.248443 
L 259.891746 208.822259 
L 256.748352 206.332738 
L 253.458985 204.049178 
L 250.00565 202.01357 
L 246.406344 200.209917 
L 242.693059 198.610225 
L 238.89779 197.194498 
L 233.116903 195.354852 
L 227.278027 193.795153 
L 221.39916 192.45941 
L 213.520677 190.925705 
L 197.699724 188.008267 
L 191.768866 186.672524 
L 187.861619 185.60673 
L 184.030356 184.340973 
L 180.313072 182.825265 
L 176.74176 181.011615 
L 173.338416 178.882025 
L 170.109038 176.468489 
L 167.049627 173.811001 
L 164.160183 170.953552 
L 161.438707 167.934133 
L 158.899196 164.778741 
L 156.561647 161.483375 
L 154.454053 158.048037 
L 152.604409 154.466727 
L 151.036711 150.735445 
L 149.782952 146.86819 
L 148.877127 142.900954 
L 148.357227 138.87373 
L 148.257246 134.82251 
L 148.377223 132.800899 
L 148.615177 130.789287 
L 148.969109 128.791672 
L 149.435019 126.812053 
L 150.690777 122.940798 
L 152.346458 119.215516 
L 154.368069 115.684196 
L 156.725615 112.39083 
L 159.373105 109.349416 
L 162.266548 106.535958 
L 165.351954 103.922461 
L 168.581332 101.482931 
L 173.586368 98.081586 
L 183.676425 91.494854 
L 186.929798 89.111314 
L 190.063195 86.529811 
L 193.028624 83.738348 
L 195.772095 80.742925 
L 198.23962 77.54954 
L 200.377208 74.160193 
L 201.30503 72.392533 
L 202.130871 70.578883 
L 202.846733 68.717241 
L 203.446617 66.811608 
L 203.924525 64.859984 
L 204.272458 62.862369 
L 204.484417 60.818762 
L 204.554404 58.733164 
L 204.47242 56.603574 
L 204.236465 54.431992 
L 204.236465 54.431992 
" style="fill:none;stroke:#fea952;stroke-linecap:square;"/>
   </g>
   <g id="line2d_17">
    <path clip-path="url(#pb8b28e46a4)" d="M 315.135966 292.335742 
L 315.73825 289.037045 
L 316.036201 285.699042 
L 316.037648 282.346979 
L 315.752371 278.986473 
L 315.183656 275.637263 
L 314.349498 272.331085 
L 313.250812 269.072461 
L 311.906586 265.89335 
L 310.32422 262.814237 
L 308.517144 259.852762 
L 306.498006 257.024259 
L 304.269859 254.32389 
L 301.846964 251.762156 
L 299.25766 249.352861 
L 296.510536 247.09823 
L 293.54492 244.939525 
L 288.708736 241.748191 
L 279.964552 236.062491 
L 274.78825 232.2857 
L 269.833415 228.313614 
L 265.068972 224.197195 
L 253.452281 213.89041 
L 250.684232 211.813626 
L 247.817614 209.964541 
L 244.753331 208.290949 
L 241.497031 206.773703 
L 238.08776 205.405698 
L 234.56022 204.170221 
L 229.110418 202.534293 
L 223.555282 201.128053 
L 215.972075 199.521665 
L 204.187391 197.38542 
L 196.047575 195.834234 
L 189.749238 194.411804 
L 185.463262 193.237145 
L 181.150549 191.803015 
L 176.854747 190.037431 
L 172.645354 187.881463 
L 168.675138 185.380425 
L 164.968382 182.596214 
L 161.517159 179.587433 
L 158.292245 176.388867 
L 155.279278 173.036759 
L 152.450457 169.510454 
L 149.817578 165.783711 
L 147.418025 161.851939 
L 145.296303 157.71741 
L 143.483254 153.366159 
L 142.027484 148.824737 
L 140.972131 144.120133 
L 140.611687 141.719218 
L 140.369285 139.283772 
L 140.254803 136.832328 
L 140.272835 134.348658 
L 140.434142 131.86131 
L 140.73938 129.393875 
L 141.183374 126.959271 
L 141.763579 124.548349 
L 142.471342 122.190166 
L 143.30064 119.881187 
L 144.247395 117.622008 
L 145.309096 115.414083 
L 146.473056 113.279814 
L 147.749538 111.193049 
L 149.123351 109.186477 
L 150.574536 107.278142 
L 153.689665 103.721462 
L 157.003449 100.513073 
L 160.452324 97.600358 
L 163.97435 94.9445 
L 169.247468 91.362263 
L 179.027414 84.98624 
L 181.936087 82.863258 
L 184.684803 80.609654 
L 187.240751 78.217851 
L 189.554228 75.711674 
L 191.583275 73.114631 
L 193.295059 70.442866 
L 194.665337 67.70814 
L 195.677697 64.909178 
L 196.316676 62.037209 
L 196.561865 59.040858 
L 196.520761 57.467566 
L 196.284807 55.295985 
L 196.284807 55.295985 
" style="fill:none;stroke:#ffffff;stroke-linecap:square;"/>
   </g>
   <g id="line2d_18">
    <path clip-path="url(#pb8b28e46a4)" d="M 330.819228 295.488 
L 331.644668 290.736247 
L 332.030586 285.983809 
L 331.997145 281.253429 
L 331.56656 276.575483 
L 330.75554 271.974224 
L 329.586085 267.457909 
L 328.077272 263.066006 
L 326.246111 258.80255 
L 324.105193 254.691048 
L 321.677085 250.757851 
L 318.977132 247.01562 
L 316.046273 243.497186 
L 312.902239 240.200049 
L 309.568684 237.1224 
L 306.07301 234.274014 
L 302.53188 231.70563 
L 297.294004 228.250243 
L 289.173436 222.982053 
L 284.611613 219.660211 
L 280.152261 216.08975 
L 275.762467 212.299691 
L 264.940611 202.618685 
L 261.429041 199.846868 
L 257.645607 197.233933 
L 253.70302 194.920981 
L 249.669517 192.907379 
L 245.568043 191.146324 
L 241.45792 189.616828 
L 237.347966 188.272735 
L 231.184518 186.531166 
L 225.050651 185.064988 
L 216.944737 183.423786 
L 197.470236 179.785708 
L 191.997279 178.467827 
L 188.553642 177.443547 
L 185.314129 176.269088 
L 182.290443 174.912156 
L 179.405107 173.295804 
L 176.613858 171.395075 
L 173.905408 169.219179 
L 171.2964 166.808849 
L 168.792049 164.188133 
L 166.446619 161.446542 
L 164.300726 158.626776 
L 162.3671 155.720001 
L 160.67077 152.740642 
L 159.21925 149.674409 
L 158.028892 146.515871 
L 157.121153 143.291195 
L 156.522686 140.063465 
L 156.251691 136.863912 
L 156.320303 133.740488 
L 156.754844 130.624072 
L 157.550474 127.530692 
L 158.693859 124.492314 
L 160.155488 121.567908 
L 161.892349 118.822561 
L 163.926921 116.226975 
L 166.259353 113.75457 
L 168.863506 111.388218 
L 171.693628 109.123892 
L 174.720863 106.939922 
L 179.573886 103.736179 
L 186.528495 99.233139 
L 190.118249 96.720046 
L 193.690256 93.942809 
L 197.155536 90.886089 
L 200.439094 87.548149 
L 203.48146 83.918072 
L 204.895965 81.98445 
L 206.223996 79.973022 
L 207.459357 77.87752 
L 208.584359 75.707156 
L 209.596404 73.449625 
L 210.4761 71.118931 
L 211.215537 68.714038 
L 211.804354 66.232447 
L 212.22824 63.687528 
L 212.478377 61.087016 
L 212.546943 58.42547 
L 212.424078 55.739582 
L 212.188124 53.568 
L 212.188124 53.568 
" style="fill:none;stroke:#ffffff;stroke-linecap:square;"/>
   </g>
   <g id="patch_3">
    <path d="M 57.6 307.584 
L 57.6 41.472 
" style="fill:none;stroke:#000000;stroke-linecap:square;stroke-linejoin:miter;stroke-width:0.8;"/>
   </g>
   <g id="patch_4">
    <path d="M 414.72 307.584 
L 414.72 41.472 
" style="fill:none;stroke:#000000;stroke-linecap:square;stroke-linejoin:miter;stroke-width:0.8;"/>
   </g>
   <g id="patch_5">
    <path d="M 57.6 307.584 
L 414.72 307.584 
" style="fill:none;stroke:#000000;stroke-linecap:square;stroke-linejoin:miter;stroke-width:0.8;"/>
   </g>
   <g id="patch_6">
    <path d="M 57.6 41.472 
L 414.72 41.472 
" style="fill:none;stroke:#000000;stroke-linecap:square;stroke-linejoin:miter;stroke-width:0.8;"/>
   </g>
  </g>
 </g>
 <defs>
  <clipPath id="pb8b28e46a4">
   <rect height="266.112" width="357.12" x="57.6" y="41.472"/>
  </clipPath>
 </defs>
</svg>
