<?xml version="1.0" encoding="utf-8" standalone="no"?>
<!DOCTYPE svg PUBLIC "-//W3C//DTD SVG 1.1//EN"
  "http://www.w3.org/Graphics/SVG/1.1/DTD/svg11.dtd">
<!-- Created with matplotlib (https://matplotlib.org/) -->
<svg height="345.6pt" version="1.1" viewBox="0 0 460.8 345.6" width="460.8pt" xmlns="http://www.w3.org/2000/svg" xmlns:xlink="http://www.w3.org/1999/xlink">
 <metadata>
  <rdf:RDF xmlns:cc="http://creativecommons.org/ns#" xmlns:dc="http://purl.org/dc/elements/1.1/" xmlns:rdf="http://www.w3.org/1999/02/22-rdf-syntax-ns#">
   <cc:Work>
    <dc:type rdf:resource="http://purl.org/dc/dcmitype/StillImage"/>
    <dc:date>2021-01-23T13:22:06.911346</dc:date>
    <dc:format>image/svg+xml</dc:format>
    <dc:creator>
     <cc:Agent>
      <dc:title>Matplotlib v3.3.3, https://matplotlib.org/</dc:title>
     </cc:Agent>
    </dc:creator>
   </cc:Work>
  </rdf:RDF>
 </metadata>
 <defs>
  <style type="text/css">*{stroke-linecap:butt;stroke-linejoin:round;}</style>
 </defs>
 <g id="figure_1">
  <g id="patch_1">
   <path d="M 0 345.6 
L 460.8 345.6 
L 460.8 0 
L 0 0 
z
" style="fill:#ffffff;"/>
  </g>
  <g id="axes_1">
   <g id="patch_2">
    <path d="M 57.6 307.584 
L 414.72 307.584 
L 414.72 41.472 
L 57.6 41.472 
z
" style="fill:#7d9051;"/>
   </g>
   <g id="matplotlib.axis_1">
    <g id="xtick_1">
     <g id="line2d_1">
      <defs>
       <path d="M 0 0 
L 0 3.5 
" id="m75f1d3ea6f" style="stroke:#000000;stroke-width:0.8;"/>
      </defs>
      <g>
       <use style="stroke:#000000;stroke-width:0.8;" x="64.153756" xlink:href="#m75f1d3ea6f" y="307.584"/>
      </g>
     </g>
     <g id="text_1">
      <!-- −20 -->
      <g transform="translate(53.601412 322.182437)scale(0.1 -0.1)">
       <defs>
        <path d="M 10.59375 35.5 
L 73.1875 35.5 
L 73.1875 27.203125 
L 10.59375 27.203125 
z
" id="DejaVuSans-8722"/>
        <path d="M 19.1875 8.296875 
L 53.609375 8.296875 
L 53.609375 0 
L 7.328125 0 
L 7.328125 8.296875 
Q 12.9375 14.109375 22.625 23.890625 
Q 32.328125 33.6875 34.8125 36.53125 
Q 39.546875 41.84375 41.421875 45.53125 
Q 43.3125 49.21875 43.3125 52.78125 
Q 43.3125 58.59375 39.234375 62.25 
Q 35.15625 65.921875 28.609375 65.921875 
Q 23.96875 65.921875 18.8125 64.3125 
Q 13.671875 62.703125 7.8125 59.421875 
L 7.8125 69.390625 
Q 13.765625 71.78125 18.9375 73 
Q 24.125 74.21875 28.421875 74.21875 
Q 39.75 74.21875 46.484375 68.546875 
Q 53.21875 62.890625 53.21875 53.421875 
Q 53.21875 48.921875 51.53125 44.890625 
Q 49.859375 40.875 45.40625 35.40625 
Q 44.1875 33.984375 37.640625 27.21875 
Q 31.109375 20.453125 19.1875 8.296875 
z
" id="DejaVuSans-50"/>
        <path d="M 31.78125 66.40625 
Q 24.171875 66.40625 20.328125 58.90625 
Q 16.5 51.421875 16.5 36.375 
Q 16.5 21.390625 20.328125 13.890625 
Q 24.171875 6.390625 31.78125 6.390625 
Q 39.453125 6.390625 43.28125 13.890625 
Q 47.125 21.390625 47.125 36.375 
Q 47.125 51.421875 43.28125 58.90625 
Q 39.453125 66.40625 31.78125 66.40625 
z
M 31.78125 74.21875 
Q 44.046875 74.21875 50.515625 64.515625 
Q 56.984375 54.828125 56.984375 36.375 
Q 56.984375 17.96875 50.515625 8.265625 
Q 44.046875 -1.421875 31.78125 -1.421875 
Q 19.53125 -1.421875 13.0625 8.265625 
Q 6.59375 17.96875 6.59375 36.375 
Q 6.59375 54.828125 13.0625 64.515625 
Q 19.53125 74.21875 31.78125 74.21875 
z
" id="DejaVuSans-48"/>
       </defs>
       <use xlink:href="#DejaVuSans-8722"/>
       <use x="83.789062" xlink:href="#DejaVuSans-50"/>
       <use x="147.412109" xlink:href="#DejaVuSans-48"/>
      </g>
     </g>
    </g>
    <g id="xtick_2">
     <g id="line2d_2">
      <g>
       <use style="stroke:#000000;stroke-width:0.8;" x="106.105074" xlink:href="#m75f1d3ea6f" y="307.584"/>
      </g>
     </g>
     <g id="text_2">
      <!-- 0 -->
      <g transform="translate(102.923824 322.182437)scale(0.1 -0.1)">
       <use xlink:href="#DejaVuSans-48"/>
      </g>
     </g>
    </g>
    <g id="xtick_3">
     <g id="line2d_3">
      <g>
       <use style="stroke:#000000;stroke-width:0.8;" x="148.056393" xlink:href="#m75f1d3ea6f" y="307.584"/>
      </g>
     </g>
     <g id="text_3">
      <!-- 20 -->
      <g transform="translate(141.693893 322.182437)scale(0.1 -0.1)">
       <use xlink:href="#DejaVuSans-50"/>
       <use x="63.623047" xlink:href="#DejaVuSans-48"/>
      </g>
     </g>
    </g>
    <g id="xtick_4">
     <g id="line2d_4">
      <g>
       <use style="stroke:#000000;stroke-width:0.8;" x="190.007712" xlink:href="#m75f1d3ea6f" y="307.584"/>
      </g>
     </g>
     <g id="text_4">
      <!-- 40 -->
      <g transform="translate(183.645212 322.182437)scale(0.1 -0.1)">
       <defs>
        <path d="M 37.796875 64.3125 
L 12.890625 25.390625 
L 37.796875 25.390625 
z
M 35.203125 72.90625 
L 47.609375 72.90625 
L 47.609375 25.390625 
L 58.015625 25.390625 
L 58.015625 17.1875 
L 47.609375 17.1875 
L 47.609375 0 
L 37.796875 0 
L 37.796875 17.1875 
L 4.890625 17.1875 
L 4.890625 26.703125 
z
" id="DejaVuSans-52"/>
       </defs>
       <use xlink:href="#DejaVuSans-52"/>
       <use x="63.623047" xlink:href="#DejaVuSans-48"/>
      </g>
     </g>
    </g>
    <g id="xtick_5">
     <g id="line2d_5">
      <g>
       <use style="stroke:#000000;stroke-width:0.8;" x="231.959031" xlink:href="#m75f1d3ea6f" y="307.584"/>
      </g>
     </g>
     <g id="text_5">
      <!-- 60 -->
      <g transform="translate(225.596531 322.182437)scale(0.1 -0.1)">
       <defs>
        <path d="M 33.015625 40.375 
Q 26.375 40.375 22.484375 35.828125 
Q 18.609375 31.296875 18.609375 23.390625 
Q 18.609375 15.53125 22.484375 10.953125 
Q 26.375 6.390625 33.015625 6.390625 
Q 39.65625 6.390625 43.53125 10.953125 
Q 47.40625 15.53125 47.40625 23.390625 
Q 47.40625 31.296875 43.53125 35.828125 
Q 39.65625 40.375 33.015625 40.375 
z
M 52.59375 71.296875 
L 52.59375 62.3125 
Q 48.875 64.0625 45.09375 64.984375 
Q 41.3125 65.921875 37.59375 65.921875 
Q 27.828125 65.921875 22.671875 59.328125 
Q 17.53125 52.734375 16.796875 39.40625 
Q 19.671875 43.65625 24.015625 45.921875 
Q 28.375 48.1875 33.59375 48.1875 
Q 44.578125 48.1875 50.953125 41.515625 
Q 57.328125 34.859375 57.328125 23.390625 
Q 57.328125 12.15625 50.6875 5.359375 
Q 44.046875 -1.421875 33.015625 -1.421875 
Q 20.359375 -1.421875 13.671875 8.265625 
Q 6.984375 17.96875 6.984375 36.375 
Q 6.984375 53.65625 15.1875 63.9375 
Q 23.390625 74.21875 37.203125 74.21875 
Q 40.921875 74.21875 44.703125 73.484375 
Q 48.484375 72.75 52.59375 71.296875 
z
" id="DejaVuSans-54"/>
       </defs>
       <use xlink:href="#DejaVuSans-54"/>
       <use x="63.623047" xlink:href="#DejaVuSans-48"/>
      </g>
     </g>
    </g>
    <g id="xtick_6">
     <g id="line2d_6">
      <g>
       <use style="stroke:#000000;stroke-width:0.8;" x="273.910349" xlink:href="#m75f1d3ea6f" y="307.584"/>
      </g>
     </g>
     <g id="text_6">
      <!-- 80 -->
      <g transform="translate(267.547849 322.182437)scale(0.1 -0.1)">
       <defs>
        <path d="M 31.78125 34.625 
Q 24.75 34.625 20.71875 30.859375 
Q 16.703125 27.09375 16.703125 20.515625 
Q 16.703125 13.921875 20.71875 10.15625 
Q 24.75 6.390625 31.78125 6.390625 
Q 38.8125 6.390625 42.859375 10.171875 
Q 46.921875 13.96875 46.921875 20.515625 
Q 46.921875 27.09375 42.890625 30.859375 
Q 38.875 34.625 31.78125 34.625 
z
M 21.921875 38.8125 
Q 15.578125 40.375 12.03125 44.71875 
Q 8.5 49.078125 8.5 55.328125 
Q 8.5 64.0625 14.71875 69.140625 
Q 20.953125 74.21875 31.78125 74.21875 
Q 42.671875 74.21875 48.875 69.140625 
Q 55.078125 64.0625 55.078125 55.328125 
Q 55.078125 49.078125 51.53125 44.71875 
Q 48 40.375 41.703125 38.8125 
Q 48.828125 37.15625 52.796875 32.3125 
Q 56.78125 27.484375 56.78125 20.515625 
Q 56.78125 9.90625 50.3125 4.234375 
Q 43.84375 -1.421875 31.78125 -1.421875 
Q 19.734375 -1.421875 13.25 4.234375 
Q 6.78125 9.90625 6.78125 20.515625 
Q 6.78125 27.484375 10.78125 32.3125 
Q 14.796875 37.15625 21.921875 38.8125 
z
M 18.3125 54.390625 
Q 18.3125 48.734375 21.84375 45.5625 
Q 25.390625 42.390625 31.78125 42.390625 
Q 38.140625 42.390625 41.71875 45.5625 
Q 45.3125 48.734375 45.3125 54.390625 
Q 45.3125 60.0625 41.71875 63.234375 
Q 38.140625 66.40625 31.78125 66.40625 
Q 25.390625 66.40625 21.84375 63.234375 
Q 18.3125 60.0625 18.3125 54.390625 
z
" id="DejaVuSans-56"/>
       </defs>
       <use xlink:href="#DejaVuSans-56"/>
       <use x="63.623047" xlink:href="#DejaVuSans-48"/>
      </g>
     </g>
    </g>
    <g id="xtick_7">
     <g id="line2d_7">
      <g>
       <use style="stroke:#000000;stroke-width:0.8;" x="315.861668" xlink:href="#m75f1d3ea6f" y="307.584"/>
      </g>
     </g>
     <g id="text_7">
      <!-- 100 -->
      <g transform="translate(306.317918 322.182437)scale(0.1 -0.1)">
       <defs>
        <path d="M 12.40625 8.296875 
L 28.515625 8.296875 
L 28.515625 63.921875 
L 10.984375 60.40625 
L 10.984375 69.390625 
L 28.421875 72.90625 
L 38.28125 72.90625 
L 38.28125 8.296875 
L 54.390625 8.296875 
L 54.390625 0 
L 12.40625 0 
z
" id="DejaVuSans-49"/>
       </defs>
       <use xlink:href="#DejaVuSans-49"/>
       <use x="63.623047" xlink:href="#DejaVuSans-48"/>
       <use x="127.246094" xlink:href="#DejaVuSans-48"/>
      </g>
     </g>
    </g>
    <g id="xtick_8">
     <g id="line2d_8">
      <g>
       <use style="stroke:#000000;stroke-width:0.8;" x="357.812987" xlink:href="#m75f1d3ea6f" y="307.584"/>
      </g>
     </g>
     <g id="text_8">
      <!-- 120 -->
      <g transform="translate(348.269237 322.182437)scale(0.1 -0.1)">
       <use xlink:href="#DejaVuSans-49"/>
       <use x="63.623047" xlink:href="#DejaVuSans-50"/>
       <use x="127.246094" xlink:href="#DejaVuSans-48"/>
      </g>
     </g>
    </g>
    <g id="xtick_9">
     <g id="line2d_9">
      <g>
       <use style="stroke:#000000;stroke-width:0.8;" x="399.764306" xlink:href="#m75f1d3ea6f" y="307.584"/>
      </g>
     </g>
     <g id="text_9">
      <!-- 140 -->
      <g transform="translate(390.220556 322.182437)scale(0.1 -0.1)">
       <use xlink:href="#DejaVuSans-49"/>
       <use x="63.623047" xlink:href="#DejaVuSans-52"/>
       <use x="127.246094" xlink:href="#DejaVuSans-48"/>
      </g>
     </g>
    </g>
   </g>
   <g id="matplotlib.axis_2">
    <g id="ytick_1">
     <g id="line2d_10">
      <defs>
       <path d="M 0 0 
L -3.5 0 
" id="m4da418c0ba" style="stroke:#000000;stroke-width:0.8;"/>
      </defs>
      <g>
       <use style="stroke:#000000;stroke-width:0.8;" x="57.6" xlink:href="#m4da418c0ba" y="273.264135"/>
      </g>
     </g>
     <g id="text_10">
      <!-- 20 -->
      <g transform="translate(37.875 277.063354)scale(0.1 -0.1)">
       <use xlink:href="#DejaVuSans-50"/>
       <use x="63.623047" xlink:href="#DejaVuSans-48"/>
      </g>
     </g>
    </g>
    <g id="ytick_2">
     <g id="line2d_11">
      <g>
       <use style="stroke:#000000;stroke-width:0.8;" x="57.6" xlink:href="#m4da418c0ba" y="231.312816"/>
      </g>
     </g>
     <g id="text_11">
      <!-- 40 -->
      <g transform="translate(37.875 235.112035)scale(0.1 -0.1)">
       <use xlink:href="#DejaVuSans-52"/>
       <use x="63.623047" xlink:href="#DejaVuSans-48"/>
      </g>
     </g>
    </g>
    <g id="ytick_3">
     <g id="line2d_12">
      <g>
       <use style="stroke:#000000;stroke-width:0.8;" x="57.6" xlink:href="#m4da418c0ba" y="189.361497"/>
      </g>
     </g>
     <g id="text_12">
      <!-- 60 -->
      <g transform="translate(37.875 193.160716)scale(0.1 -0.1)">
       <use xlink:href="#DejaVuSans-54"/>
       <use x="63.623047" xlink:href="#DejaVuSans-48"/>
      </g>
     </g>
    </g>
    <g id="ytick_4">
     <g id="line2d_13">
      <g>
       <use style="stroke:#000000;stroke-width:0.8;" x="57.6" xlink:href="#m4da418c0ba" y="147.410179"/>
      </g>
     </g>
     <g id="text_13">
      <!-- 80 -->
      <g transform="translate(37.875 151.209397)scale(0.1 -0.1)">
       <use xlink:href="#DejaVuSans-56"/>
       <use x="63.623047" xlink:href="#DejaVuSans-48"/>
      </g>
     </g>
    </g>
    <g id="ytick_5">
     <g id="line2d_14">
      <g>
       <use style="stroke:#000000;stroke-width:0.8;" x="57.6" xlink:href="#m4da418c0ba" y="105.45886"/>
      </g>
     </g>
     <g id="text_14">
      <!-- 100 -->
      <g transform="translate(31.5125 109.258079)scale(0.1 -0.1)">
       <use xlink:href="#DejaVuSans-49"/>
       <use x="63.623047" xlink:href="#DejaVuSans-48"/>
       <use x="127.246094" xlink:href="#DejaVuSans-48"/>
      </g>
     </g>
    </g>
    <g id="ytick_6">
     <g id="line2d_15">
      <g>
       <use style="stroke:#000000;stroke-width:0.8;" x="57.6" xlink:href="#m4da418c0ba" y="63.507541"/>
      </g>
     </g>
     <g id="text_15">
      <!-- 120 -->
      <g transform="translate(31.5125 67.30676)scale(0.1 -0.1)">
       <use xlink:href="#DejaVuSans-49"/>
       <use x="63.623047" xlink:href="#DejaVuSans-50"/>
       <use x="127.246094" xlink:href="#DejaVuSans-48"/>
      </g>
     </g>
    </g>
   </g>
   <g id="line2d_16">
    <path clip-path="url(#pf6c3f411c1)" d="M 127.080734 294.239794 
L 126.524879 289.981735 
L 126.296244 285.761433 
L 126.344488 281.572593 
L 126.62766 277.408925 
L 127.097514 273.264135 
L 128.049809 267.065827 
L 131.269573 248.420564 
L 132.588942 240.110008 
L 133.421676 236.007169 
L 134.476751 231.967257 
L 135.806608 228.007052 
L 137.386075 224.12236 
L 139.162714 220.306888 
L 142.088818 214.695899 
L 146.239901 207.379589 
L 155.666362 191.029062 
L 159.836323 183.73163 
L 162.051353 180.169963 
L 164.421603 176.71737 
L 166.982731 173.401118 
L 169.726347 170.225403 
L 172.629378 167.179738 
L 175.668751 164.262023 
L 178.82349 161.468066 
L 183.702429 157.459617 
L 190.194395 152.14019 
L 193.307183 149.344134 
L 196.254263 146.369786 
L 199.00627 143.196169 
L 201.561105 139.846356 
L 203.916672 136.345518 
L 206.068774 132.718827 
L 208.019511 128.989355 
L 209.791954 125.182272 
L 212.223033 119.37621 
L 217.68929 105.765105 
L 220.23993 100.021969 
L 223.006619 94.352248 
L 226.054382 88.776918 
L 228.292485 85.1733 
L 230.738247 81.733292 
L 233.433619 78.515625 
L 236.418456 75.585326 
L 238.027289 74.244981 
L 239.711634 72.988539 
L 243.277496 70.733656 
L 247.05731 68.80809 
L 250.996539 67.207648 
L 255.036451 65.923937 
L 259.128802 64.935984 
L 263.261007 64.19764 
L 269.507558 63.419443 
L 279.978608 62.519588 
L 286.26711 62.11266 
L 292.555613 61.95744 
L 296.74655 62.064416 
L 300.935389 62.383246 
L 305.103252 62.934906 
L 309.237555 63.729883 
L 313.319418 64.778666 
L 317.332062 66.095938 
L 321.25451 67.690088 
L 325.053202 69.565312 
L 328.690381 71.719512 
L 332.128292 74.154786 
L 335.32708 76.873231 
L 338.248989 79.870653 
L 339.595627 81.473193 
L 340.858361 83.149149 
L 342.032998 84.894323 
L 343.115342 86.708718 
L 344.099101 88.59443 
L 344.980078 90.551459 
L 345.756178 92.577708 
L 346.419009 94.675273 
L 346.419009 94.675273 
" style="fill:none;stroke:#fea952;stroke-linecap:square;"/>
   </g>
   <g id="line2d_17">
    <path clip-path="url(#pf6c3f411c1)" d="M 118.783836 295.488 
L 118.155937 290.579517 
L 117.906048 285.794993 
L 117.967039 281.109053 
L 118.281665 276.548165 
L 118.78824 272.101173 
L 119.786539 265.611559 
L 122.970975 247.183713 
L 124.348632 238.530825 
L 125.270648 234.01788 
L 126.479903 229.428173 
L 127.990634 224.956301 
L 129.741565 220.664328 
L 131.664925 216.541294 
L 134.749687 210.629736 
L 138.992568 203.151978 
L 148.342241 186.935925 
L 152.670021 179.368074 
L 155.07282 175.512003 
L 157.708383 171.684556 
L 160.564054 167.997683 
L 163.583981 164.509823 
L 166.755344 161.188724 
L 170.048583 158.032238 
L 173.426743 155.043764 
L 178.449842 150.916922 
L 184.661038 145.833171 
L 187.446276 143.340278 
L 190.003684 140.772752 
L 192.413203 138.006949 
L 194.667206 135.064026 
L 196.759887 131.966367 
L 198.686765 128.731037 
L 200.450792 125.368439 
L 202.094032 121.844829 
L 204.424224 116.281844 
L 209.986574 102.438741 
L 212.647123 96.451841 
L 215.576869 90.454128 
L 217.715596 86.459727 
L 220.08379 82.433405 
L 222.734937 78.448288 
L 225.739104 74.567968 
L 227.400697 72.684642 
L 229.168398 70.872334 
L 231.047967 69.139058 
L 233.010568 67.519728 
L 235.059481 66.006133 
L 237.150894 64.624134 
L 239.3076 63.342008 
L 243.745229 61.099222 
L 248.301044 59.262156 
L 252.93284 57.801662 
L 257.544634 56.696631 
L 262.077969 55.8912 
L 266.515096 55.304709 
L 272.988496 54.67279 
L 283.708776 53.850424 
L 290.401355 53.582065 
L 294.961619 53.602291 
L 299.58729 53.839464 
L 304.235971 54.328715 
L 308.880536 55.086757 
L 313.503695 56.129179 
L 318.090585 57.476729 
L 322.602938 59.142052 
L 327.026591 61.139778 
L 331.311693 63.474208 
L 335.43157 66.160334 
L 339.339071 69.211556 
L 341.187987 70.869375 
L 342.976065 72.629295 
L 344.672461 74.472919 
L 346.296751 76.424286 
L 347.818821 78.464224 
L 349.238592 80.595958 
L 350.55417 82.82795 
L 351.749902 85.150339 
L 352.815268 87.550403 
L 353.756504 90.049604 
L 354.419335 92.14717 
L 354.419335 92.14717 
" style="fill:none;stroke:#ffffff;stroke-linecap:square;"/>
   </g>
   <g id="line2d_18">
    <path clip-path="url(#pf6c3f411c1)" d="M 135.377631 292.991588 
L 134.89382 289.383954 
L 134.686441 285.727872 
L 134.721937 282.036134 
L 134.973654 278.269685 
L 135.406789 274.427096 
L 136.313079 268.520096 
L 139.568171 249.657414 
L 140.829252 241.68919 
L 141.572703 237.996458 
L 142.473599 234.50634 
L 143.622582 231.057803 
L 145.030586 227.580392 
L 146.660502 224.072481 
L 149.427949 218.762061 
L 153.487234 211.6072 
L 162.990484 195.1222 
L 167.002626 188.095187 
L 169.029886 184.827924 
L 171.134822 181.750184 
L 173.401408 178.804553 
L 175.868713 175.940984 
L 178.503412 173.170751 
L 181.28892 170.491809 
L 185.750006 166.606371 
L 197.446977 156.93582 
L 200.862342 153.687582 
L 204.081058 150.200178 
L 207.056976 146.527113 
L 209.789955 142.698368 
L 212.290835 138.729209 
L 214.555302 134.655674 
L 216.568745 130.556431 
L 219.209382 124.474281 
L 226.996622 105.420164 
L 229.545813 100.016033 
L 232.287213 94.78163 
L 234.214834 91.483251 
L 236.237064 88.412157 
L 238.367738 85.618022 
L 240.606067 83.151008 
L 243.04401 80.970235 
L 245.779505 79.016256 
L 248.790136 77.28778 
L 252.013201 75.803486 
L 255.390998 74.570088 
L 258.91078 73.582852 
L 262.557818 72.81768 
L 266.360732 72.229532 
L 272.335795 71.575912 
L 282.618837 70.736928 
L 288.57227 70.412205 
L 294.340544 70.371321 
L 298.096746 70.553661 
L 301.808963 70.932803 
L 305.470759 71.517202 
L 309.065863 72.312249 
L 312.579773 73.326557 
L 316.008805 74.572656 
L 319.31678 76.044304 
L 322.478037 77.741396 
L 325.443738 79.644744 
L 328.181325 81.745144 
L 330.673419 84.041175 
L 332.894503 86.5221 
L 334.827405 89.192689 
L 336.448299 92.038521 
L 337.755852 95.105811 
L 338.418682 97.203377 
L 338.418682 97.203377 
" style="fill:none;stroke:#ffffff;stroke-linecap:square;"/>
   </g>
   <g id="patch_3">
    <path d="M 57.6 307.584 
L 57.6 41.472 
" style="fill:none;stroke:#000000;stroke-linecap:square;stroke-linejoin:miter;stroke-width:0.8;"/>
   </g>
   <g id="patch_4">
    <path d="M 414.72 307.584 
L 414.72 41.472 
" style="fill:none;stroke:#000000;stroke-linecap:square;stroke-linejoin:miter;stroke-width:0.8;"/>
   </g>
   <g id="patch_5">
    <path d="M 57.6 307.584 
L 414.72 307.584 
" style="fill:none;stroke:#000000;stroke-linecap:square;stroke-linejoin:miter;stroke-width:0.8;"/>
   </g>
   <g id="patch_6">
    <path d="M 57.6 41.472 
L 414.72 41.472 
" style="fill:none;stroke:#000000;stroke-linecap:square;stroke-linejoin:miter;stroke-width:0.8;"/>
   </g>
  </g>
 </g>
 <defs>
  <clipPath id="pf6c3f411c1">
   <rect height="266.112" width="357.12" x="57.6" y="41.472"/>
  </clipPath>
 </defs>
</svg>
