<?xml version="1.0" encoding="utf-8" standalone="no"?>
<!DOCTYPE svg PUBLIC "-//W3C//DTD SVG 1.1//EN"
  "http://www.w3.org/Graphics/SVG/1.1/DTD/svg11.dtd">
<!-- Created with matplotlib (https://matplotlib.org/) -->
<svg height="345.6pt" version="1.1" viewBox="0 0 460.8 345.6" width="460.8pt" xmlns="http://www.w3.org/2000/svg" xmlns:xlink="http://www.w3.org/1999/xlink">
 <metadata>
  <rdf:RDF xmlns:cc="http://creativecommons.org/ns#" xmlns:dc="http://purl.org/dc/elements/1.1/" xmlns:rdf="http://www.w3.org/1999/02/22-rdf-syntax-ns#">
   <cc:Work>
    <dc:type rdf:resource="http://purl.org/dc/dcmitype/StillImage"/>
    <dc:date>2021-01-25T14:44:41.110916</dc:date>
    <dc:format>image/svg+xml</dc:format>
    <dc:creator>
     <cc:Agent>
      <dc:title>Matplotlib v3.3.3, https://matplotlib.org/</dc:title>
     </cc:Agent>
    </dc:creator>
   </cc:Work>
  </rdf:RDF>
 </metadata>
 <defs>
  <style type="text/css">*{stroke-linecap:butt;stroke-linejoin:round;}</style>
 </defs>
 <g id="figure_1">
  <g id="patch_1">
   <path d="M 0 345.6 
L 460.8 345.6 
L 460.8 0 
L 0 0 
z
" style="fill:#ffffff;"/>
  </g>
  <g id="axes_1">
   <g id="patch_2">
    <path d="M 57.6 307.584 
L 414.72 307.584 
L 414.72 41.472 
L 57.6 41.472 
z
" style="fill:#7d9051;"/>
   </g>
   <g id="matplotlib.axis_1">
    <g id="xtick_1">
     <g id="line2d_1">
      <defs>
       <path d="M 0 0 
L 0 3.5 
" id="mc071030b01" style="stroke:#000000;stroke-width:0.8;"/>
      </defs>
      <g>
       <use style="stroke:#000000;stroke-width:0.8;" x="82.241427" xlink:href="#mc071030b01" y="307.584"/>
      </g>
     </g>
     <g id="text_1">
      <!-- 0 -->
      <g transform="translate(79.060177 322.182437)scale(0.1 -0.1)">
       <defs>
        <path d="M 31.78125 66.40625 
Q 24.171875 66.40625 20.328125 58.90625 
Q 16.5 51.421875 16.5 36.375 
Q 16.5 21.390625 20.328125 13.890625 
Q 24.171875 6.390625 31.78125 6.390625 
Q 39.453125 6.390625 43.28125 13.890625 
Q 47.125 21.390625 47.125 36.375 
Q 47.125 51.421875 43.28125 58.90625 
Q 39.453125 66.40625 31.78125 66.40625 
z
M 31.78125 74.21875 
Q 44.046875 74.21875 50.515625 64.515625 
Q 56.984375 54.828125 56.984375 36.375 
Q 56.984375 17.96875 50.515625 8.265625 
Q 44.046875 -1.421875 31.78125 -1.421875 
Q 19.53125 -1.421875 13.0625 8.265625 
Q 6.59375 17.96875 6.59375 36.375 
Q 6.59375 54.828125 13.0625 64.515625 
Q 19.53125 74.21875 31.78125 74.21875 
z
" id="DejaVuSans-48"/>
       </defs>
       <use xlink:href="#DejaVuSans-48"/>
      </g>
     </g>
    </g>
    <g id="xtick_2">
     <g id="line2d_2">
      <g>
       <use style="stroke:#000000;stroke-width:0.8;" x="152.532078" xlink:href="#mc071030b01" y="307.584"/>
      </g>
     </g>
     <g id="text_2">
      <!-- 20 -->
      <g transform="translate(146.169578 322.182437)scale(0.1 -0.1)">
       <defs>
        <path d="M 19.1875 8.296875 
L 53.609375 8.296875 
L 53.609375 0 
L 7.328125 0 
L 7.328125 8.296875 
Q 12.9375 14.109375 22.625 23.890625 
Q 32.328125 33.6875 34.8125 36.53125 
Q 39.546875 41.84375 41.421875 45.53125 
Q 43.3125 49.21875 43.3125 52.78125 
Q 43.3125 58.59375 39.234375 62.25 
Q 35.15625 65.921875 28.609375 65.921875 
Q 23.96875 65.921875 18.8125 64.3125 
Q 13.671875 62.703125 7.8125 59.421875 
L 7.8125 69.390625 
Q 13.765625 71.78125 18.9375 73 
Q 24.125 74.21875 28.421875 74.21875 
Q 39.75 74.21875 46.484375 68.546875 
Q 53.21875 62.890625 53.21875 53.421875 
Q 53.21875 48.921875 51.53125 44.890625 
Q 49.859375 40.875 45.40625 35.40625 
Q 44.1875 33.984375 37.640625 27.21875 
Q 31.109375 20.453125 19.1875 8.296875 
z
" id="DejaVuSans-50"/>
       </defs>
       <use xlink:href="#DejaVuSans-50"/>
       <use x="63.623047" xlink:href="#DejaVuSans-48"/>
      </g>
     </g>
    </g>
    <g id="xtick_3">
     <g id="line2d_3">
      <g>
       <use style="stroke:#000000;stroke-width:0.8;" x="222.822728" xlink:href="#mc071030b01" y="307.584"/>
      </g>
     </g>
     <g id="text_3">
      <!-- 40 -->
      <g transform="translate(216.460228 322.182437)scale(0.1 -0.1)">
       <defs>
        <path d="M 37.796875 64.3125 
L 12.890625 25.390625 
L 37.796875 25.390625 
z
M 35.203125 72.90625 
L 47.609375 72.90625 
L 47.609375 25.390625 
L 58.015625 25.390625 
L 58.015625 17.1875 
L 47.609375 17.1875 
L 47.609375 0 
L 37.796875 0 
L 37.796875 17.1875 
L 4.890625 17.1875 
L 4.890625 26.703125 
z
" id="DejaVuSans-52"/>
       </defs>
       <use xlink:href="#DejaVuSans-52"/>
       <use x="63.623047" xlink:href="#DejaVuSans-48"/>
      </g>
     </g>
    </g>
    <g id="xtick_4">
     <g id="line2d_4">
      <g>
       <use style="stroke:#000000;stroke-width:0.8;" x="293.113379" xlink:href="#mc071030b01" y="307.584"/>
      </g>
     </g>
     <g id="text_4">
      <!-- 60 -->
      <g transform="translate(286.750879 322.182437)scale(0.1 -0.1)">
       <defs>
        <path d="M 33.015625 40.375 
Q 26.375 40.375 22.484375 35.828125 
Q 18.609375 31.296875 18.609375 23.390625 
Q 18.609375 15.53125 22.484375 10.953125 
Q 26.375 6.390625 33.015625 6.390625 
Q 39.65625 6.390625 43.53125 10.953125 
Q 47.40625 15.53125 47.40625 23.390625 
Q 47.40625 31.296875 43.53125 35.828125 
Q 39.65625 40.375 33.015625 40.375 
z
M 52.59375 71.296875 
L 52.59375 62.3125 
Q 48.875 64.0625 45.09375 64.984375 
Q 41.3125 65.921875 37.59375 65.921875 
Q 27.828125 65.921875 22.671875 59.328125 
Q 17.53125 52.734375 16.796875 39.40625 
Q 19.671875 43.65625 24.015625 45.921875 
Q 28.375 48.1875 33.59375 48.1875 
Q 44.578125 48.1875 50.953125 41.515625 
Q 57.328125 34.859375 57.328125 23.390625 
Q 57.328125 12.15625 50.6875 5.359375 
Q 44.046875 -1.421875 33.015625 -1.421875 
Q 20.359375 -1.421875 13.671875 8.265625 
Q 6.984375 17.96875 6.984375 36.375 
Q 6.984375 53.65625 15.1875 63.9375 
Q 23.390625 74.21875 37.203125 74.21875 
Q 40.921875 74.21875 44.703125 73.484375 
Q 48.484375 72.75 52.59375 71.296875 
z
" id="DejaVuSans-54"/>
       </defs>
       <use xlink:href="#DejaVuSans-54"/>
       <use x="63.623047" xlink:href="#DejaVuSans-48"/>
      </g>
     </g>
    </g>
    <g id="xtick_5">
     <g id="line2d_5">
      <g>
       <use style="stroke:#000000;stroke-width:0.8;" x="363.40403" xlink:href="#mc071030b01" y="307.584"/>
      </g>
     </g>
     <g id="text_5">
      <!-- 80 -->
      <g transform="translate(357.04153 322.182437)scale(0.1 -0.1)">
       <defs>
        <path d="M 31.78125 34.625 
Q 24.75 34.625 20.71875 30.859375 
Q 16.703125 27.09375 16.703125 20.515625 
Q 16.703125 13.921875 20.71875 10.15625 
Q 24.75 6.390625 31.78125 6.390625 
Q 38.8125 6.390625 42.859375 10.171875 
Q 46.921875 13.96875 46.921875 20.515625 
Q 46.921875 27.09375 42.890625 30.859375 
Q 38.875 34.625 31.78125 34.625 
z
M 21.921875 38.8125 
Q 15.578125 40.375 12.03125 44.71875 
Q 8.5 49.078125 8.5 55.328125 
Q 8.5 64.0625 14.71875 69.140625 
Q 20.953125 74.21875 31.78125 74.21875 
Q 42.671875 74.21875 48.875 69.140625 
Q 55.078125 64.0625 55.078125 55.328125 
Q 55.078125 49.078125 51.53125 44.71875 
Q 48 40.375 41.703125 38.8125 
Q 48.828125 37.15625 52.796875 32.3125 
Q 56.78125 27.484375 56.78125 20.515625 
Q 56.78125 9.90625 50.3125 4.234375 
Q 43.84375 -1.421875 31.78125 -1.421875 
Q 19.734375 -1.421875 13.25 4.234375 
Q 6.78125 9.90625 6.78125 20.515625 
Q 6.78125 27.484375 10.78125 32.3125 
Q 14.796875 37.15625 21.921875 38.8125 
z
M 18.3125 54.390625 
Q 18.3125 48.734375 21.84375 45.5625 
Q 25.390625 42.390625 31.78125 42.390625 
Q 38.140625 42.390625 41.71875 45.5625 
Q 45.3125 48.734375 45.3125 54.390625 
Q 45.3125 60.0625 41.71875 63.234375 
Q 38.140625 66.40625 31.78125 66.40625 
Q 25.390625 66.40625 21.84375 63.234375 
Q 18.3125 60.0625 18.3125 54.390625 
z
" id="DejaVuSans-56"/>
       </defs>
       <use xlink:href="#DejaVuSans-56"/>
       <use x="63.623047" xlink:href="#DejaVuSans-48"/>
      </g>
     </g>
    </g>
   </g>
   <g id="matplotlib.axis_2">
    <g id="ytick_1">
     <g id="line2d_6">
      <defs>
       <path d="M 0 0 
L -3.5 0 
" id="m63d8793648" style="stroke:#000000;stroke-width:0.8;"/>
      </defs>
      <g>
       <use style="stroke:#000000;stroke-width:0.8;" x="57.6" xlink:href="#m63d8793648" y="281.355819"/>
      </g>
     </g>
     <g id="text_6">
      <!-- 10 -->
      <g transform="translate(37.875 285.155038)scale(0.1 -0.1)">
       <defs>
        <path d="M 12.40625 8.296875 
L 28.515625 8.296875 
L 28.515625 63.921875 
L 10.984375 60.40625 
L 10.984375 69.390625 
L 28.421875 72.90625 
L 38.28125 72.90625 
L 38.28125 8.296875 
L 54.390625 8.296875 
L 54.390625 0 
L 12.40625 0 
z
" id="DejaVuSans-49"/>
       </defs>
       <use xlink:href="#DejaVuSans-49"/>
       <use x="63.623047" xlink:href="#DejaVuSans-48"/>
      </g>
     </g>
    </g>
    <g id="ytick_2">
     <g id="line2d_7">
      <g>
       <use style="stroke:#000000;stroke-width:0.8;" x="57.6" xlink:href="#m63d8793648" y="246.210494"/>
      </g>
     </g>
     <g id="text_7">
      <!-- 20 -->
      <g transform="translate(37.875 250.009712)scale(0.1 -0.1)">
       <use xlink:href="#DejaVuSans-50"/>
       <use x="63.623047" xlink:href="#DejaVuSans-48"/>
      </g>
     </g>
    </g>
    <g id="ytick_3">
     <g id="line2d_8">
      <g>
       <use style="stroke:#000000;stroke-width:0.8;" x="57.6" xlink:href="#m63d8793648" y="211.065168"/>
      </g>
     </g>
     <g id="text_8">
      <!-- 30 -->
      <g transform="translate(37.875 214.864387)scale(0.1 -0.1)">
       <defs>
        <path d="M 40.578125 39.3125 
Q 47.65625 37.796875 51.625 33 
Q 55.609375 28.21875 55.609375 21.1875 
Q 55.609375 10.40625 48.1875 4.484375 
Q 40.765625 -1.421875 27.09375 -1.421875 
Q 22.515625 -1.421875 17.65625 -0.515625 
Q 12.796875 0.390625 7.625 2.203125 
L 7.625 11.71875 
Q 11.71875 9.328125 16.59375 8.109375 
Q 21.484375 6.890625 26.8125 6.890625 
Q 36.078125 6.890625 40.9375 10.546875 
Q 45.796875 14.203125 45.796875 21.1875 
Q 45.796875 27.640625 41.28125 31.265625 
Q 36.765625 34.90625 28.71875 34.90625 
L 20.21875 34.90625 
L 20.21875 43.015625 
L 29.109375 43.015625 
Q 36.375 43.015625 40.234375 45.921875 
Q 44.09375 48.828125 44.09375 54.296875 
Q 44.09375 59.90625 40.109375 62.90625 
Q 36.140625 65.921875 28.71875 65.921875 
Q 24.65625 65.921875 20.015625 65.03125 
Q 15.375 64.15625 9.8125 62.3125 
L 9.8125 71.09375 
Q 15.4375 72.65625 20.34375 73.4375 
Q 25.25 74.21875 29.59375 74.21875 
Q 40.828125 74.21875 47.359375 69.109375 
Q 53.90625 64.015625 53.90625 55.328125 
Q 53.90625 49.265625 50.4375 45.09375 
Q 46.96875 40.921875 40.578125 39.3125 
z
" id="DejaVuSans-51"/>
       </defs>
       <use xlink:href="#DejaVuSans-51"/>
       <use x="63.623047" xlink:href="#DejaVuSans-48"/>
      </g>
     </g>
    </g>
    <g id="ytick_4">
     <g id="line2d_9">
      <g>
       <use style="stroke:#000000;stroke-width:0.8;" x="57.6" xlink:href="#m63d8793648" y="175.919843"/>
      </g>
     </g>
     <g id="text_9">
      <!-- 40 -->
      <g transform="translate(37.875 179.719062)scale(0.1 -0.1)">
       <use xlink:href="#DejaVuSans-52"/>
       <use x="63.623047" xlink:href="#DejaVuSans-48"/>
      </g>
     </g>
    </g>
    <g id="ytick_5">
     <g id="line2d_10">
      <g>
       <use style="stroke:#000000;stroke-width:0.8;" x="57.6" xlink:href="#m63d8793648" y="140.774518"/>
      </g>
     </g>
     <g id="text_10">
      <!-- 50 -->
      <g transform="translate(37.875 144.573736)scale(0.1 -0.1)">
       <defs>
        <path d="M 10.796875 72.90625 
L 49.515625 72.90625 
L 49.515625 64.59375 
L 19.828125 64.59375 
L 19.828125 46.734375 
Q 21.96875 47.46875 24.109375 47.828125 
Q 26.265625 48.1875 28.421875 48.1875 
Q 40.625 48.1875 47.75 41.5 
Q 54.890625 34.8125 54.890625 23.390625 
Q 54.890625 11.625 47.5625 5.09375 
Q 40.234375 -1.421875 26.90625 -1.421875 
Q 22.3125 -1.421875 17.546875 -0.640625 
Q 12.796875 0.140625 7.71875 1.703125 
L 7.71875 11.625 
Q 12.109375 9.234375 16.796875 8.0625 
Q 21.484375 6.890625 26.703125 6.890625 
Q 35.15625 6.890625 40.078125 11.328125 
Q 45.015625 15.765625 45.015625 23.390625 
Q 45.015625 31 40.078125 35.4375 
Q 35.15625 39.890625 26.703125 39.890625 
Q 22.75 39.890625 18.8125 39.015625 
Q 14.890625 38.140625 10.796875 36.28125 
z
" id="DejaVuSans-53"/>
       </defs>
       <use xlink:href="#DejaVuSans-53"/>
       <use x="63.623047" xlink:href="#DejaVuSans-48"/>
      </g>
     </g>
    </g>
    <g id="ytick_6">
     <g id="line2d_11">
      <g>
       <use style="stroke:#000000;stroke-width:0.8;" x="57.6" xlink:href="#m63d8793648" y="105.629192"/>
      </g>
     </g>
     <g id="text_11">
      <!-- 60 -->
      <g transform="translate(37.875 109.428411)scale(0.1 -0.1)">
       <use xlink:href="#DejaVuSans-54"/>
       <use x="63.623047" xlink:href="#DejaVuSans-48"/>
      </g>
     </g>
    </g>
    <g id="ytick_7">
     <g id="line2d_12">
      <g>
       <use style="stroke:#000000;stroke-width:0.8;" x="57.6" xlink:href="#m63d8793648" y="70.483867"/>
      </g>
     </g>
     <g id="text_12">
      <!-- 70 -->
      <g transform="translate(37.875 74.283086)scale(0.1 -0.1)">
       <defs>
        <path d="M 8.203125 72.90625 
L 55.078125 72.90625 
L 55.078125 68.703125 
L 28.609375 0 
L 18.3125 0 
L 43.21875 64.59375 
L 8.203125 64.59375 
z
" id="DejaVuSans-55"/>
       </defs>
       <use xlink:href="#DejaVuSans-55"/>
       <use x="63.623047" xlink:href="#DejaVuSans-48"/>
      </g>
     </g>
    </g>
   </g>
   <g id="line2d_13">
    <path clip-path="url(#p1a8d7eb966)" d="M 117.386752 180.204058 
L 117.738205 173.396409 
L 117.790923 166.437634 
L 117.506246 152.224865 
L 117.414868 145.058733 
L 117.523819 137.903145 
L 117.959621 130.807303 
L 118.335676 127.292771 
L 118.841769 123.806355 
L 119.488443 120.358598 
L 120.293271 116.949502 
L 121.27734 113.586094 
L 122.447679 110.275404 
L 123.818347 107.020947 
L 125.385828 103.836781 
L 127.13958 100.733449 
L 129.072573 97.725009 
L 131.174263 94.829034 
L 133.437622 92.052553 
L 135.852106 89.416654 
L 138.407171 86.92485 
L 141.095789 84.59823 
L 143.907415 82.443821 
L 146.83502 80.475683 
L 149.868062 78.686786 
L 152.995996 77.066586 
L 156.208279 75.608055 
L 159.490852 74.300649 
L 162.840201 73.13031 
L 166.238754 72.093523 
L 169.679482 71.17623 
L 176.6488 69.668495 
L 183.670836 68.550874 
L 190.717474 67.851482 
L 194.24255 67.675756 
L 197.764111 67.623038 
L 201.282158 67.696843 
L 204.793176 67.907715 
L 208.293651 68.259168 
L 211.783582 68.758232 
L 215.25594 69.411935 
L 218.707211 70.213248 
L 222.123336 71.162172 
L 225.500802 72.258706 
L 228.829064 73.499336 
L 232.101094 74.877033 
L 235.306348 76.391796 
L 238.437796 78.043626 
L 241.48841 79.825494 
L 244.444132 81.7374 
L 247.308476 83.772315 
L 250.081443 85.919694 
L 255.423532 90.474528 
L 260.572322 95.278894 
L 273.25627 107.523525 
L 281.083134 114.594765 
L 291.707566 123.788782 
L 304.98547 135.302391 
L 312.784217 142.408775 
L 317.848659 147.283432 
L 322.776033 152.302184 
L 327.531196 157.489634 
L 332.071972 162.866869 
L 336.356187 168.451461 
L 340.341667 174.264498 
L 342.211398 177.262394 
L 343.986237 180.323552 
L 345.666184 183.451486 
L 347.240694 186.639167 
L 348.695711 189.886595 
L 350.024204 193.183227 
L 351.215631 196.525547 
L 352.259447 199.913557 
L 353.145109 203.336711 
L 353.862074 206.791497 
L 354.403312 210.274398 
L 354.75125 213.781902 
L 354.90589 217.303464 
L 354.863715 220.835569 
L 354.624727 224.367674 
L 354.195954 227.885721 
L 353.577397 231.386195 
L 352.776083 234.851524 
L 351.788499 238.278194 
L 350.61816 241.655659 
L 349.272094 244.973378 
L 347.750302 248.220806 
L 346.056297 251.390915 
L 344.193595 254.462616 
L 342.169224 257.432396 
L 339.986699 260.279167 
L 337.65305 262.988872 
L 335.17179 265.550966 
L 332.553463 267.951392 
L 329.798069 270.176091 
L 326.912638 272.211005 
L 323.904198 274.038562 
L 320.776264 275.651733 
L 317.542894 277.054031 
L 314.218147 278.252487 
L 310.816079 279.247099 
L 307.35075 280.048413 
L 303.832703 280.663456 
L 300.279511 281.095744 
L 296.701717 281.34879 
L 293.113379 281.433139 
L 289.528556 281.355819 
L 285.961305 281.116831 
L 282.415142 280.719689 
L 278.904124 280.157363 
L 275.428251 279.43337 
L 271.998067 278.544193 
L 268.624116 277.489833 
L 265.306397 276.263261 
L 262.05194 274.864477 
L 258.874803 273.293481 
L 255.7785 271.550273 
L 252.77006 269.631338 
L 249.863542 267.543706 
L 247.073003 265.290891 
L 244.412502 262.886951 
L 241.899611 260.3354 
L 239.544874 257.646783 
L 237.365864 254.828127 
L 235.373124 251.882949 
L 233.587741 248.821791 
L 232.02026 245.651683 
L 230.681223 242.379653 
L 229.574145 239.023275 
L 228.691998 235.593091 
L 228.031265 232.10316 
L 227.588434 228.564026 
L 227.356475 224.996775 
L 227.338903 221.411952 
L 227.528687 217.8201 
L 227.922315 214.238791 
L 228.516271 210.682084 
L 229.303526 207.160523 
L 230.284081 203.691679 
L 231.45442 200.286097 
L 232.807515 196.961349 
L 234.343366 193.727979 
L 236.058458 190.60356 
L 237.945762 187.59512 
L 240.005278 184.723747 
L 242.226462 182.003499 
L 244.616344 179.441405 
L 244.616344 179.441405 
" style="fill:none;stroke:#fea952;stroke-linecap:square;"/>
   </g>
   <g id="line2d_14">
    <path clip-path="url(#p1a8d7eb966)" d="M 103.358671 179.285379 
L 103.68193 173.168083 
L 103.733974 166.619828 
L 103.450309 152.473154 
L 103.356982 144.975958 
L 103.481475 137.237105 
L 103.674254 133.288456 
L 103.981282 129.311621 
L 104.423361 125.273241 
L 105.024583 121.214752 
L 105.806426 117.128514 
L 106.800787 113.001857 
L 108.022998 108.900642 
L 109.491736 104.818798 
L 111.205635 100.812041 
L 113.146826 96.920289 
L 115.312388 93.134201 
L 117.694902 89.467913 
L 120.277911 85.946437 
L 123.071172 82.556884 
L 126.036882 79.352242 
L 129.208011 76.2944 
L 132.545307 73.439363 
L 136.064176 70.777004 
L 139.693167 68.366804 
L 143.402186 66.203859 
L 147.183977 64.266139 
L 151.006513 62.547709 
L 154.853567 61.029379 
L 158.738161 59.683961 
L 162.617363 58.509836 
L 166.508265 57.480449 
L 170.382332 56.58948 
L 178.138971 55.147847 
L 182.0679 54.584428 
L 186.019154 54.137616 
L 190.017539 53.810787 
L 194.032122 53.6192 
L 198.058972 53.568 
L 202.124972 53.664 
L 206.197574 53.91991 
L 210.283733 54.34261 
L 214.384464 54.94279 
L 218.435373 55.718059 
L 222.469783 56.667988 
L 226.464418 57.791082 
L 230.411017 59.085976 
L 234.28442 60.542866 
L 238.107803 62.166782 
L 241.865372 63.95756 
L 245.528236 65.90457 
L 249.123762 68.021578 
L 252.585964 70.276964 
L 255.915907 72.657318 
L 259.04935 75.093445 
L 264.933766 80.121438 
L 270.364737 85.192287 
L 282.781112 97.183873 
L 290.340477 104.014944 
L 300.859949 113.118032 
L 314.363462 124.829364 
L 322.468594 132.218394 
L 327.803288 137.356883 
L 333.054704 142.711567 
L 338.175131 148.306081 
L 343.121751 154.175874 
L 347.835398 160.336122 
L 350.098947 163.548002 
L 352.270003 166.82502 
L 354.37321 170.211057 
L 356.371157 173.671876 
L 358.270582 177.22572 
L 360.069941 180.890998 
L 361.734892 184.632 
L 363.266167 188.462906 
L 364.650589 192.386354 
L 365.869432 196.392287 
L 366.909953 200.480121 
L 367.753475 204.632793 
L 368.39278 208.886666 
L 368.795846 213.165173 
L 368.963018 217.47131 
L 368.889776 221.784596 
L 368.579595 226.068467 
L 368.03961 230.331989 
L 367.274109 234.553386 
L 366.284388 238.744687 
L 365.071757 242.881029 
L 363.644952 246.940894 
L 362.001815 250.938713 
L 360.149203 254.846383 
L 358.076932 258.680315 
L 355.809679 262.380799 
L 353.325845 265.985806 
L 350.638942 269.453084 
L 347.751678 272.768888 
L 344.671844 275.913398 
L 341.384759 278.889364 
L 337.900212 281.664621 
L 334.21143 284.22594 
L 330.347926 286.532937 
L 326.369815 288.549144 
L 322.310102 290.279187 
L 318.162987 291.745791 
L 313.98327 292.943812 
L 309.771746 293.89651 
L 305.53052 294.618686 
L 301.271321 295.118844 
L 297.032081 295.403038 
L 292.810235 295.488 
L 288.588837 295.382506 
L 284.396687 295.087622 
L 280.191923 294.60091 
L 276.037464 293.920113 
L 271.900676 293.041721 
L 267.804879 291.962397 
L 263.74926 290.675689 
L 259.755165 289.178943 
L 255.820775 287.466208 
L 251.978026 285.543603 
L 248.218495 283.402588 
L 244.568927 281.049414 
L 241.032862 278.482176 
L 237.648073 275.721697 
L 234.396312 272.75138 
L 231.324073 269.597636 
L 228.422717 266.244959 
L 225.722506 262.706151 
L 223.229502 258.965567 
L 220.98595 255.052832 
L 219.009468 250.976185 
L 217.330596 246.783263 
L 215.959042 242.5247 
L 214.879241 238.208195 
L 214.081907 233.848561 
L 213.559931 229.476224 
L 213.298514 225.065687 
L 213.300355 220.670189 
L 213.554711 216.284197 
L 214.056202 211.923205 
L 214.796783 207.615053 
L 215.775489 203.336488 
L 216.9891 199.122816 
L 218.433335 194.986818 
L 220.109122 190.929613 
L 222.019852 186.963216 
L 224.149709 183.132768 
L 226.522273 179.401529 
L 229.116115 175.832338 
L 231.946379 172.414395 
L 234.336261 169.852301 
L 234.336261 169.852301 
" style="fill:none;stroke:#ffffff;stroke-linecap:square;"/>
   </g>
   <g id="line2d_15">
    <path clip-path="url(#p1a8d7eb966)" d="M 131.414833 181.122737 
L 131.794481 173.624734 
L 131.847873 166.25544 
L 131.562184 151.976575 
L 131.48984 141.822898 
L 131.71078 135.40442 
L 132.247992 129.312301 
L 132.658954 126.397957 
L 133.170459 123.588683 
L 133.785755 120.897146 
L 134.531681 118.271546 
L 135.403622 115.732011 
L 136.431059 113.229854 
L 137.62483 110.753272 
L 138.966772 108.332696 
L 140.450244 105.982105 
L 142.070616 103.71163 
L 143.804073 101.548222 
L 145.667331 99.481066 
L 147.606332 97.5553 
L 149.64627 95.757096 
L 151.750653 94.110639 
L 153.976874 92.584562 
L 156.333938 91.169713 
L 158.808015 89.867034 
L 161.410044 88.668402 
L 164.128137 87.571919 
L 166.942242 86.576659 
L 169.860146 85.67721 
L 175.928377 84.153324 
L 182.173635 82.973116 
L 188.365641 82.15579 
L 194.452977 81.732311 
L 200.439345 81.729686 
L 203.388778 81.89552 
L 206.303569 82.175726 
L 209.182699 82.573673 
L 212.076506 83.10581 
L 214.944638 83.758508 
L 217.782254 84.533261 
L 220.590587 85.431436 
L 223.373709 86.455806 
L 226.094386 87.587284 
L 228.747323 88.826032 
L 231.347357 90.182683 
L 233.853059 91.629411 
L 236.302301 93.197837 
L 238.701045 94.887311 
L 243.511842 98.725188 
L 248.343006 103.057194 
L 255.805417 110.261722 
L 263.731428 117.863177 
L 271.825791 125.174586 
L 282.555183 134.459532 
L 295.607478 145.775417 
L 303.099841 152.599157 
L 307.894029 157.209981 
L 312.497363 161.892802 
L 316.88726 166.673188 
L 321.022193 171.557865 
L 324.876976 176.566801 
L 328.413331 181.703976 
L 331.601318 186.975228 
L 334.411448 192.387336 
L 335.65653 195.141191 
L 336.782241 197.903548 
L 337.780673 200.664741 
L 338.649462 203.434826 
L 339.380266 206.193301 
L 339.970673 208.950201 
L 340.413844 211.662131 
L 340.706655 214.398631 
L 340.848762 217.135617 
L 340.837655 219.886542 
L 340.66986 222.666881 
L 340.352299 225.439453 
L 339.880684 228.219004 
L 339.267778 230.958362 
L 338.505242 233.675358 
L 337.591368 236.370425 
L 336.542373 239.008043 
L 335.3514 241.595229 
L 334.035662 244.101514 
L 332.577511 246.544433 
L 331.012602 248.878986 
L 329.334456 251.105251 
L 327.554421 253.208856 
L 325.671735 255.188535 
L 323.722167 257.01342 
L 321.695927 258.687561 
L 319.613846 260.196071 
L 317.46047 261.544188 
L 315.182713 262.754322 
L 312.775687 263.828875 
L 310.273307 264.759182 
L 307.648888 265.550387 
L 304.929754 266.200315 
L 302.134886 266.708226 
L 299.2877 267.072644 
L 296.371352 267.294542 
L 293.416523 267.378277 
L 290.468275 267.329132 
L 287.525923 267.14604 
L 284.638361 266.838467 
L 281.770784 266.394613 
L 278.955826 265.825018 
L 276.191256 265.125989 
L 273.498972 264.303977 
L 270.85763 263.347579 
L 268.283106 262.262747 
L 265.77158 261.043359 
L 263.338504 259.697959 
L 260.971193 258.213263 
L 258.694221 256.605236 
L 256.497932 254.860084 
L 254.428691 253.022521 
L 252.475149 251.073164 
L 250.667031 249.048606 
L 249.009221 246.950104 
L 247.516746 244.800332 
L 246.189533 242.59075 
L 245.031051 240.327181 
L 244.03185 237.976043 
L 243.189249 235.521849 
L 242.504754 232.977987 
L 241.980624 230.357759 
L 241.616938 227.651828 
L 241.414436 224.927864 
L 241.37745 222.153715 
L 241.502664 219.356003 
L 241.788428 216.554377 
L 242.235759 213.749115 
L 242.831563 210.984557 
L 243.579061 208.260542 
L 244.475506 205.585376 
L 245.505908 202.993086 
L 246.66688 200.492743 
L 247.967206 198.074352 
L 249.36925 195.788711 
L 250.89444 193.615156 
L 252.506546 191.592603 
L 254.896428 189.030508 
L 254.896428 189.030508 
" style="fill:none;stroke:#ffffff;stroke-linecap:square;"/>
   </g>
   <g id="patch_3">
    <path d="M 57.6 307.584 
L 57.6 41.472 
" style="fill:none;stroke:#000000;stroke-linecap:square;stroke-linejoin:miter;stroke-width:0.8;"/>
   </g>
   <g id="patch_4">
    <path d="M 414.72 307.584 
L 414.72 41.472 
" style="fill:none;stroke:#000000;stroke-linecap:square;stroke-linejoin:miter;stroke-width:0.8;"/>
   </g>
   <g id="patch_5">
    <path d="M 57.6 307.584 
L 414.72 307.584 
" style="fill:none;stroke:#000000;stroke-linecap:square;stroke-linejoin:miter;stroke-width:0.8;"/>
   </g>
   <g id="patch_6">
    <path d="M 57.6 41.472 
L 414.72 41.472 
" style="fill:none;stroke:#000000;stroke-linecap:square;stroke-linejoin:miter;stroke-width:0.8;"/>
   </g>
  </g>
 </g>
 <defs>
  <clipPath id="p1a8d7eb966">
   <rect height="266.112" width="357.12" x="57.6" y="41.472"/>
  </clipPath>
 </defs>
</svg>
