<?xml version="1.0" encoding="utf-8" standalone="no"?>
<!DOCTYPE svg PUBLIC "-//W3C//DTD SVG 1.1//EN"
  "http://www.w3.org/Graphics/SVG/1.1/DTD/svg11.dtd">
<!-- Created with matplotlib (https://matplotlib.org/) -->
<svg height="345.6pt" version="1.1" viewBox="0 0 460.8 345.6" width="460.8pt" xmlns="http://www.w3.org/2000/svg" xmlns:xlink="http://www.w3.org/1999/xlink">
 <metadata>
  <rdf:RDF xmlns:cc="http://creativecommons.org/ns#" xmlns:dc="http://purl.org/dc/elements/1.1/" xmlns:rdf="http://www.w3.org/1999/02/22-rdf-syntax-ns#">
   <cc:Work>
    <dc:type rdf:resource="http://purl.org/dc/dcmitype/StillImage"/>
    <dc:date>2021-01-25T13:00:12.889194</dc:date>
    <dc:format>image/svg+xml</dc:format>
    <dc:creator>
     <cc:Agent>
      <dc:title>Matplotlib v3.3.3, https://matplotlib.org/</dc:title>
     </cc:Agent>
    </dc:creator>
   </cc:Work>
  </rdf:RDF>
 </metadata>
 <defs>
  <style type="text/css">*{stroke-linecap:butt;stroke-linejoin:round;}</style>
 </defs>
 <g id="figure_1">
  <g id="patch_1">
   <path d="M 0 345.6 
L 460.8 345.6 
L 460.8 0 
L 0 0 
z
" style="fill:#ffffff;"/>
  </g>
  <g id="axes_1">
   <g id="patch_2">
    <path d="M 57.6 307.584 
L 414.72 307.584 
L 414.72 41.472 
L 57.6 41.472 
z
" style="fill:#7d9051;"/>
   </g>
   <g id="matplotlib.axis_1">
    <g id="xtick_1">
     <g id="line2d_1">
      <defs>
       <path d="M 0 0 
L 0 3.5 
" id="mdc1961ef4f" style="stroke:#000000;stroke-width:0.8;"/>
      </defs>
      <g>
       <use style="stroke:#000000;stroke-width:0.8;" x="90.039012" xlink:href="#mdc1961ef4f" y="307.584"/>
      </g>
     </g>
     <g id="text_1">
      <!-- 0 -->
      <g transform="translate(86.857762 322.182437)scale(0.1 -0.1)">
       <defs>
        <path d="M 31.78125 66.40625 
Q 24.171875 66.40625 20.328125 58.90625 
Q 16.5 51.421875 16.5 36.375 
Q 16.5 21.390625 20.328125 13.890625 
Q 24.171875 6.390625 31.78125 6.390625 
Q 39.453125 6.390625 43.28125 13.890625 
Q 47.125 21.390625 47.125 36.375 
Q 47.125 51.421875 43.28125 58.90625 
Q 39.453125 66.40625 31.78125 66.40625 
z
M 31.78125 74.21875 
Q 44.046875 74.21875 50.515625 64.515625 
Q 56.984375 54.828125 56.984375 36.375 
Q 56.984375 17.96875 50.515625 8.265625 
Q 44.046875 -1.421875 31.78125 -1.421875 
Q 19.53125 -1.421875 13.0625 8.265625 
Q 6.59375 17.96875 6.59375 36.375 
Q 6.59375 54.828125 13.0625 64.515625 
Q 19.53125 74.21875 31.78125 74.21875 
z
" id="DejaVuSans-48"/>
       </defs>
       <use xlink:href="#DejaVuSans-48"/>
      </g>
     </g>
    </g>
    <g id="xtick_2">
     <g id="line2d_2">
      <g>
       <use style="stroke:#000000;stroke-width:0.8;" x="161.809446" xlink:href="#mdc1961ef4f" y="307.584"/>
      </g>
     </g>
     <g id="text_2">
      <!-- 20 -->
      <g transform="translate(155.446946 322.182437)scale(0.1 -0.1)">
       <defs>
        <path d="M 19.1875 8.296875 
L 53.609375 8.296875 
L 53.609375 0 
L 7.328125 0 
L 7.328125 8.296875 
Q 12.9375 14.109375 22.625 23.890625 
Q 32.328125 33.6875 34.8125 36.53125 
Q 39.546875 41.84375 41.421875 45.53125 
Q 43.3125 49.21875 43.3125 52.78125 
Q 43.3125 58.59375 39.234375 62.25 
Q 35.15625 65.921875 28.609375 65.921875 
Q 23.96875 65.921875 18.8125 64.3125 
Q 13.671875 62.703125 7.8125 59.421875 
L 7.8125 69.390625 
Q 13.765625 71.78125 18.9375 73 
Q 24.125 74.21875 28.421875 74.21875 
Q 39.75 74.21875 46.484375 68.546875 
Q 53.21875 62.890625 53.21875 53.421875 
Q 53.21875 48.921875 51.53125 44.890625 
Q 49.859375 40.875 45.40625 35.40625 
Q 44.1875 33.984375 37.640625 27.21875 
Q 31.109375 20.453125 19.1875 8.296875 
z
" id="DejaVuSans-50"/>
       </defs>
       <use xlink:href="#DejaVuSans-50"/>
       <use x="63.623047" xlink:href="#DejaVuSans-48"/>
      </g>
     </g>
    </g>
    <g id="xtick_3">
     <g id="line2d_3">
      <g>
       <use style="stroke:#000000;stroke-width:0.8;" x="233.57988" xlink:href="#mdc1961ef4f" y="307.584"/>
      </g>
     </g>
     <g id="text_3">
      <!-- 40 -->
      <g transform="translate(227.21738 322.182437)scale(0.1 -0.1)">
       <defs>
        <path d="M 37.796875 64.3125 
L 12.890625 25.390625 
L 37.796875 25.390625 
z
M 35.203125 72.90625 
L 47.609375 72.90625 
L 47.609375 25.390625 
L 58.015625 25.390625 
L 58.015625 17.1875 
L 47.609375 17.1875 
L 47.609375 0 
L 37.796875 0 
L 37.796875 17.1875 
L 4.890625 17.1875 
L 4.890625 26.703125 
z
" id="DejaVuSans-52"/>
       </defs>
       <use xlink:href="#DejaVuSans-52"/>
       <use x="63.623047" xlink:href="#DejaVuSans-48"/>
      </g>
     </g>
    </g>
    <g id="xtick_4">
     <g id="line2d_4">
      <g>
       <use style="stroke:#000000;stroke-width:0.8;" x="305.350314" xlink:href="#mdc1961ef4f" y="307.584"/>
      </g>
     </g>
     <g id="text_4">
      <!-- 60 -->
      <g transform="translate(298.987814 322.182437)scale(0.1 -0.1)">
       <defs>
        <path d="M 33.015625 40.375 
Q 26.375 40.375 22.484375 35.828125 
Q 18.609375 31.296875 18.609375 23.390625 
Q 18.609375 15.53125 22.484375 10.953125 
Q 26.375 6.390625 33.015625 6.390625 
Q 39.65625 6.390625 43.53125 10.953125 
Q 47.40625 15.53125 47.40625 23.390625 
Q 47.40625 31.296875 43.53125 35.828125 
Q 39.65625 40.375 33.015625 40.375 
z
M 52.59375 71.296875 
L 52.59375 62.3125 
Q 48.875 64.0625 45.09375 64.984375 
Q 41.3125 65.921875 37.59375 65.921875 
Q 27.828125 65.921875 22.671875 59.328125 
Q 17.53125 52.734375 16.796875 39.40625 
Q 19.671875 43.65625 24.015625 45.921875 
Q 28.375 48.1875 33.59375 48.1875 
Q 44.578125 48.1875 50.953125 41.515625 
Q 57.328125 34.859375 57.328125 23.390625 
Q 57.328125 12.15625 50.6875 5.359375 
Q 44.046875 -1.421875 33.015625 -1.421875 
Q 20.359375 -1.421875 13.671875 8.265625 
Q 6.984375 17.96875 6.984375 36.375 
Q 6.984375 53.65625 15.1875 63.9375 
Q 23.390625 74.21875 37.203125 74.21875 
Q 40.921875 74.21875 44.703125 73.484375 
Q 48.484375 72.75 52.59375 71.296875 
z
" id="DejaVuSans-54"/>
       </defs>
       <use xlink:href="#DejaVuSans-54"/>
       <use x="63.623047" xlink:href="#DejaVuSans-48"/>
      </g>
     </g>
    </g>
    <g id="xtick_5">
     <g id="line2d_5">
      <g>
       <use style="stroke:#000000;stroke-width:0.8;" x="377.120748" xlink:href="#mdc1961ef4f" y="307.584"/>
      </g>
     </g>
     <g id="text_5">
      <!-- 80 -->
      <g transform="translate(370.758248 322.182437)scale(0.1 -0.1)">
       <defs>
        <path d="M 31.78125 34.625 
Q 24.75 34.625 20.71875 30.859375 
Q 16.703125 27.09375 16.703125 20.515625 
Q 16.703125 13.921875 20.71875 10.15625 
Q 24.75 6.390625 31.78125 6.390625 
Q 38.8125 6.390625 42.859375 10.171875 
Q 46.921875 13.96875 46.921875 20.515625 
Q 46.921875 27.09375 42.890625 30.859375 
Q 38.875 34.625 31.78125 34.625 
z
M 21.921875 38.8125 
Q 15.578125 40.375 12.03125 44.71875 
Q 8.5 49.078125 8.5 55.328125 
Q 8.5 64.0625 14.71875 69.140625 
Q 20.953125 74.21875 31.78125 74.21875 
Q 42.671875 74.21875 48.875 69.140625 
Q 55.078125 64.0625 55.078125 55.328125 
Q 55.078125 49.078125 51.53125 44.71875 
Q 48 40.375 41.703125 38.8125 
Q 48.828125 37.15625 52.796875 32.3125 
Q 56.78125 27.484375 56.78125 20.515625 
Q 56.78125 9.90625 50.3125 4.234375 
Q 43.84375 -1.421875 31.78125 -1.421875 
Q 19.734375 -1.421875 13.25 4.234375 
Q 6.78125 9.90625 6.78125 20.515625 
Q 6.78125 27.484375 10.78125 32.3125 
Q 14.796875 37.15625 21.921875 38.8125 
z
M 18.3125 54.390625 
Q 18.3125 48.734375 21.84375 45.5625 
Q 25.390625 42.390625 31.78125 42.390625 
Q 38.140625 42.390625 41.71875 45.5625 
Q 45.3125 48.734375 45.3125 54.390625 
Q 45.3125 60.0625 41.71875 63.234375 
Q 38.140625 66.40625 31.78125 66.40625 
Q 25.390625 66.40625 21.84375 63.234375 
Q 18.3125 60.0625 18.3125 54.390625 
z
" id="DejaVuSans-56"/>
       </defs>
       <use xlink:href="#DejaVuSans-56"/>
       <use x="63.623047" xlink:href="#DejaVuSans-48"/>
      </g>
     </g>
    </g>
   </g>
   <g id="matplotlib.axis_2">
    <g id="ytick_1">
     <g id="line2d_6">
      <defs>
       <path d="M 0 0 
L -3.5 0 
" id="m8fa9c69887" style="stroke:#000000;stroke-width:0.8;"/>
      </defs>
      <g>
       <use style="stroke:#000000;stroke-width:0.8;" x="57.6" xlink:href="#m8fa9c69887" y="280.976202"/>
      </g>
     </g>
     <g id="text_6">
      <!-- 10 -->
      <g transform="translate(37.875 284.775421)scale(0.1 -0.1)">
       <defs>
        <path d="M 12.40625 8.296875 
L 28.515625 8.296875 
L 28.515625 63.921875 
L 10.984375 60.40625 
L 10.984375 69.390625 
L 28.421875 72.90625 
L 38.28125 72.90625 
L 38.28125 8.296875 
L 54.390625 8.296875 
L 54.390625 0 
L 12.40625 0 
z
" id="DejaVuSans-49"/>
       </defs>
       <use xlink:href="#DejaVuSans-49"/>
       <use x="63.623047" xlink:href="#DejaVuSans-48"/>
      </g>
     </g>
    </g>
    <g id="ytick_2">
     <g id="line2d_7">
      <g>
       <use style="stroke:#000000;stroke-width:0.8;" x="57.6" xlink:href="#m8fa9c69887" y="245.090985"/>
      </g>
     </g>
     <g id="text_7">
      <!-- 20 -->
      <g transform="translate(37.875 248.890204)scale(0.1 -0.1)">
       <use xlink:href="#DejaVuSans-50"/>
       <use x="63.623047" xlink:href="#DejaVuSans-48"/>
      </g>
     </g>
    </g>
    <g id="ytick_3">
     <g id="line2d_8">
      <g>
       <use style="stroke:#000000;stroke-width:0.8;" x="57.6" xlink:href="#m8fa9c69887" y="209.205768"/>
      </g>
     </g>
     <g id="text_8">
      <!-- 30 -->
      <g transform="translate(37.875 213.004987)scale(0.1 -0.1)">
       <defs>
        <path d="M 40.578125 39.3125 
Q 47.65625 37.796875 51.625 33 
Q 55.609375 28.21875 55.609375 21.1875 
Q 55.609375 10.40625 48.1875 4.484375 
Q 40.765625 -1.421875 27.09375 -1.421875 
Q 22.515625 -1.421875 17.65625 -0.515625 
Q 12.796875 0.390625 7.625 2.203125 
L 7.625 11.71875 
Q 11.71875 9.328125 16.59375 8.109375 
Q 21.484375 6.890625 26.8125 6.890625 
Q 36.078125 6.890625 40.9375 10.546875 
Q 45.796875 14.203125 45.796875 21.1875 
Q 45.796875 27.640625 41.28125 31.265625 
Q 36.765625 34.90625 28.71875 34.90625 
L 20.21875 34.90625 
L 20.21875 43.015625 
L 29.109375 43.015625 
Q 36.375 43.015625 40.234375 45.921875 
Q 44.09375 48.828125 44.09375 54.296875 
Q 44.09375 59.90625 40.109375 62.90625 
Q 36.140625 65.921875 28.71875 65.921875 
Q 24.65625 65.921875 20.015625 65.03125 
Q 15.375 64.15625 9.8125 62.3125 
L 9.8125 71.09375 
Q 15.4375 72.65625 20.34375 73.4375 
Q 25.25 74.21875 29.59375 74.21875 
Q 40.828125 74.21875 47.359375 69.109375 
Q 53.90625 64.015625 53.90625 55.328125 
Q 53.90625 49.265625 50.4375 45.09375 
Q 46.96875 40.921875 40.578125 39.3125 
z
" id="DejaVuSans-51"/>
       </defs>
       <use xlink:href="#DejaVuSans-51"/>
       <use x="63.623047" xlink:href="#DejaVuSans-48"/>
      </g>
     </g>
    </g>
    <g id="ytick_4">
     <g id="line2d_9">
      <g>
       <use style="stroke:#000000;stroke-width:0.8;" x="57.6" xlink:href="#m8fa9c69887" y="173.320551"/>
      </g>
     </g>
     <g id="text_9">
      <!-- 40 -->
      <g transform="translate(37.875 177.11977)scale(0.1 -0.1)">
       <use xlink:href="#DejaVuSans-52"/>
       <use x="63.623047" xlink:href="#DejaVuSans-48"/>
      </g>
     </g>
    </g>
    <g id="ytick_5">
     <g id="line2d_10">
      <g>
       <use style="stroke:#000000;stroke-width:0.8;" x="57.6" xlink:href="#m8fa9c69887" y="137.435334"/>
      </g>
     </g>
     <g id="text_10">
      <!-- 50 -->
      <g transform="translate(37.875 141.234553)scale(0.1 -0.1)">
       <defs>
        <path d="M 10.796875 72.90625 
L 49.515625 72.90625 
L 49.515625 64.59375 
L 19.828125 64.59375 
L 19.828125 46.734375 
Q 21.96875 47.46875 24.109375 47.828125 
Q 26.265625 48.1875 28.421875 48.1875 
Q 40.625 48.1875 47.75 41.5 
Q 54.890625 34.8125 54.890625 23.390625 
Q 54.890625 11.625 47.5625 5.09375 
Q 40.234375 -1.421875 26.90625 -1.421875 
Q 22.3125 -1.421875 17.546875 -0.640625 
Q 12.796875 0.140625 7.71875 1.703125 
L 7.71875 11.625 
Q 12.109375 9.234375 16.796875 8.0625 
Q 21.484375 6.890625 26.703125 6.890625 
Q 35.15625 6.890625 40.078125 11.328125 
Q 45.015625 15.765625 45.015625 23.390625 
Q 45.015625 31 40.078125 35.4375 
Q 35.15625 39.890625 26.703125 39.890625 
Q 22.75 39.890625 18.8125 39.015625 
Q 14.890625 38.140625 10.796875 36.28125 
z
" id="DejaVuSans-53"/>
       </defs>
       <use xlink:href="#DejaVuSans-53"/>
       <use x="63.623047" xlink:href="#DejaVuSans-48"/>
      </g>
     </g>
    </g>
    <g id="ytick_6">
     <g id="line2d_11">
      <g>
       <use style="stroke:#000000;stroke-width:0.8;" x="57.6" xlink:href="#m8fa9c69887" y="101.550117"/>
      </g>
     </g>
     <g id="text_11">
      <!-- 60 -->
      <g transform="translate(37.875 105.349335)scale(0.1 -0.1)">
       <use xlink:href="#DejaVuSans-54"/>
       <use x="63.623047" xlink:href="#DejaVuSans-48"/>
      </g>
     </g>
    </g>
    <g id="ytick_7">
     <g id="line2d_12">
      <g>
       <use style="stroke:#000000;stroke-width:0.8;" x="57.6" xlink:href="#m8fa9c69887" y="65.6649"/>
      </g>
     </g>
     <g id="text_12">
      <!-- 70 -->
      <g transform="translate(37.875 69.464118)scale(0.1 -0.1)">
       <defs>
        <path d="M 8.203125 72.90625 
L 55.078125 72.90625 
L 55.078125 68.703125 
L 28.609375 0 
L 18.3125 0 
L 43.21875 64.59375 
L 8.203125 64.59375 
z
" id="DejaVuSans-55"/>
       </defs>
       <use xlink:href="#DejaVuSans-55"/>
       <use x="63.623047" xlink:href="#DejaVuSans-48"/>
      </g>
     </g>
    </g>
   </g>
   <g id="line2d_13">
    <path clip-path="url(#p8f6120a1ac)" d="M 346.431711 173.586102 
L 346.926927 159.526273 
L 347.009463 152.295402 
L 346.880276 145.003526 
L 346.460419 137.700884 
L 345.674533 130.448482 
L 345.114723 126.85996 
L 344.436493 123.300147 
L 343.625487 119.779807 
L 342.674528 116.309707 
L 341.569264 112.889845 
L 340.306104 109.5274 
L 338.870695 106.236726 
L 337.255861 103.017822 
L 335.454423 99.881454 
L 333.473559 96.834799 
L 331.316857 93.8958 
L 329.002261 91.075222 
L 326.529769 88.383831 
L 323.917325 85.83598 
L 321.168518 83.442436 
L 318.294112 81.217553 
L 315.304873 79.175684 
L 312.207979 77.320418 
L 309.014195 75.669698 
L 305.730697 74.212758 
L 302.371841 72.938833 
L 298.941214 71.837157 
L 295.45676 70.896964 
L 291.922066 70.10749 
L 288.347898 69.454379 
L 284.745022 68.934043 
L 277.49262 68.223516 
L 270.236629 67.92208 
L 266.615811 67.925668 
L 263.005758 68.04409 
L 259.410059 68.277343 
L 255.832303 68.639784 
L 252.276078 69.131412 
L 248.741384 69.759403 
L 245.23181 70.527347 
L 241.754532 71.446008 
L 238.309552 72.518976 
L 234.907633 73.739073 
L 231.555954 75.1063 
L 228.258102 76.617068 
L 225.032021 78.267788 
L 221.874122 80.051283 
L 218.802348 81.967554 
L 215.820286 84.009423 
L 212.935115 86.173301 
L 210.157599 88.45919 
L 207.491327 90.859911 
L 204.925534 93.36111 
L 200.037968 98.60394 
L 195.380066 104.083613 
L 181.664736 120.755885 
L 174.537932 128.822882 
L 167.246056 136.735572 
L 150.064214 155.108803 
L 145.424256 160.588476 
L 141.074967 166.301402 
L 139.036687 169.265521 
L 137.102474 172.315765 
L 135.286682 175.444956 
L 133.5929 178.645917 
L 132.031893 181.918649 
L 130.614427 185.252386 
L 129.34409 188.643539 
L 128.231648 192.084931 
L 127.284278 195.576563 
L 126.512746 199.104079 
L 125.924229 202.67107 
L 125.525903 206.266769 
L 125.317768 209.88041 
L 125.296237 213.504817 
L 125.461309 217.129224 
L 125.809396 220.739277 
L 126.340497 224.334976 
L 127.051024 227.894789 
L 127.940978 231.415129 
L 129.006769 234.885229 
L 130.248397 238.294325 
L 131.658686 241.635239 
L 133.241224 244.893616 
L 134.985246 248.069458 
L 136.890751 251.14841 
L 138.954151 254.126883 
L 141.168269 256.9977 
L 143.529516 259.750096 
L 146.037893 262.380483 
L 148.682633 264.878094 
L 151.467326 267.235753 
L 154.377617 269.446282 
L 157.413507 271.498916 
L 160.553463 273.38289 
L 163.793898 275.091027 
L 167.120458 276.605383 
L 170.518788 277.92237 
L 173.978123 279.031223 
L 177.487697 279.914 
L 181.040334 280.567111 
L 184.614501 280.976202 
L 188.2102 281.137686 
L 191.809487 281.05515 
L 195.401597 280.742948 
L 198.982942 280.211847 
L 202.539167 279.472612 
L 206.063095 278.536007 
L 209.540373 277.416389 
L 212.967411 276.124521 
L 216.329856 274.667581 
L 219.616942 273.063512 
L 222.82508 271.315902 
L 225.939917 269.431928 
L 228.957864 267.408002 
L 231.868155 265.2513 
L 234.667202 262.961823 
L 237.347828 260.539571 
L 239.899267 257.984544 
L 242.31793 255.296741 
L 244.593053 252.48334 
L 246.717458 249.540752 
L 248.687556 246.472566 
L 250.492583 243.293136 
L 252.114595 240.013227 
L 253.553592 236.647194 
L 254.79522 233.20939 
L 255.828715 229.706993 
L 256.643309 226.161533 
L 257.228238 222.580188 
L 257.576325 218.977313 
L 257.673215 215.36726 
L 257.51532 211.764384 
L 257.106228 208.175862 
L 256.460294 204.619637 
L 255.581107 201.099297 
L 254.47943 197.629197 
L 253.166031 194.22369 
L 251.648087 190.889953 
L 249.936362 187.642341 
L 248.041622 184.491619 
L 245.971045 181.444964 
L 243.735396 178.51673 
L 241.341852 175.721272 
L 238.801179 173.062177 
L 236.124142 170.560978 
L 233.317918 168.217673 
L 230.393273 166.053794 
L 227.357383 164.07293 
L 224.221015 162.289435 
L 220.994934 160.717663 
L 217.686317 159.361201 
L 217.686317 159.361201 
" style="fill:none;stroke:#fea952;stroke-linecap:square;"/>
   </g>
   <g id="line2d_14">
    <path clip-path="url(#p8f6120a1ac)" d="M 332.089454 173.003447 
L 332.575146 159.268971 
L 332.65594 152.422675 
L 332.541463 145.665534 
L 332.16904 139.041142 
L 331.491982 132.66096 
L 330.448796 126.522593 
L 329.781819 123.573573 
L 329.016054 120.723988 
L 328.132062 117.937759 
L 327.149253 115.266485 
L 326.040603 112.673227 
L 324.808829 110.167033 
L 323.420302 107.705759 
L 321.901047 105.32696 
L 320.220627 103.001485 
L 318.431623 100.786114 
L 316.507732 98.659948 
L 314.491134 96.661262 
L 312.382474 94.793438 
L 310.197774 93.070364 
L 307.928151 91.489245 
L 305.617281 90.071987 
L 303.192432 88.790174 
L 300.640392 87.633958 
L 297.983061 86.605523 
L 295.201856 85.69562 
L 292.327864 84.905884 
L 289.341854 84.22777 
L 286.296135 83.66107 
L 279.936841 82.829845 
L 273.467236 82.371143 
L 267.086417 82.272039 
L 260.85678 82.558338 
L 254.786976 83.264182 
L 251.809663 83.781723 
L 248.898221 84.405287 
L 246.02299 85.150755 
L 243.155407 86.03036 
L 240.329261 87.029888 
L 237.534207 88.156216 
L 234.796565 89.395499 
L 232.090841 90.766302 
L 229.471539 92.229914 
L 226.911956 93.811288 
L 224.432738 95.492692 
L 222.056598 97.256548 
L 219.762356 99.126356 
L 217.510996 101.138337 
L 213.085851 105.579705 
L 208.699327 110.5316 
L 202.002289 118.695399 
L 194.915389 127.339323 
L 187.615787 135.742702 
L 180.199212 143.885936 
L 170.240317 154.450767 
L 163.148469 162.017902 
L 158.766689 166.983478 
L 154.756618 171.935302 
L 151.158994 176.95249 
L 149.517723 179.520027 
L 147.974034 182.158443 
L 146.548696 184.825491 
L 145.241507 187.535223 
L 144.05633 190.287765 
L 143.002311 193.058605 
L 142.084868 195.843667 
L 141.306879 198.643561 
L 140.675362 201.440769 
L 140.191042 204.251525 
L 139.85624 207.092151 
L 139.671602 209.96568 
L 139.63546 212.851743 
L 139.749132 215.751571 
L 140.00942 218.641868 
L 140.416928 221.525365 
L 140.967307 224.376708 
L 141.662459 227.200775 
L 142.494156 229.972981 
L 143.472546 232.712058 
L 144.570464 235.36421 
L 145.823003 237.9843 
L 147.190935 240.515588 
L 148.69001 242.974225 
L 150.320444 245.360629 
L 152.062693 247.651506 
L 153.917449 249.844005 
L 155.893331 251.94448 
L 157.957708 253.923059 
L 160.149527 255.805127 
L 162.41751 257.555112 
L 164.798623 259.190388 
L 167.24694 260.68497 
L 169.741093 262.026928 
L 172.307353 263.221216 
L 174.900253 264.253333 
L 177.479591 265.110752 
L 180.083037 265.796492 
L 182.672614 266.306134 
L 185.258497 266.636569 
L 187.88113 266.787371 
L 190.566615 266.754972 
L 193.295963 266.544142 
L 196.061595 266.158181 
L 198.852087 265.600148 
L 201.663767 264.872709 
L 204.477205 263.984928 
L 207.260514 262.953677 
L 210.034743 261.767528 
L 212.750373 260.458353 
L 215.396312 259.033671 
L 217.94502 257.510459 
L 220.411536 255.875435 
L 222.780156 254.140581 
L 225.043576 252.311677 
L 227.190825 250.396834 
L 229.22925 248.382953 
L 231.15665 246.27091 
L 232.954996 244.08123 
L 234.63898 241.785098 
L 236.204827 239.385869 
L 237.625866 236.930164 
L 238.916018 234.370765 
L 240.05305 231.771215 
L 241.028004 229.146932 
L 241.839123 226.492785 
L 242.476927 223.847785 
L 242.940678 221.199817 
L 243.227405 218.592202 
L 243.332892 215.99572 
L 243.253606 213.390219 
L 242.983218 210.741091 
L 242.53395 208.097674 
L 241.899943 205.442749 
L 241.08684 202.794305 
L 240.102407 200.171928 
L 238.949853 197.582835 
L 237.635257 195.039816 
L 236.169767 192.560006 
L 234.562021 190.155531 
L 232.832023 187.852482 
L 230.963515 185.637416 
L 229.001615 183.550664 
L 226.923797 181.578848 
L 224.780405 179.756766 
L 222.549497 178.075233 
L 220.261915 176.550676 
L 217.934067 175.193469 
L 215.549911 173.99891 
L 212.241294 172.642449 
L 212.241294 172.642449 
" style="fill:none;stroke:#ffffff;stroke-linecap:square;"/>
   </g>
   <g id="line2d_15">
    <path clip-path="url(#p8f6120a1ac)" d="M 360.773967 174.168756 
L 361.278707 159.783576 
L 361.362985 152.16813 
L 361.219089 144.341518 
L 360.751798 136.360627 
L 360.366204 132.313142 
L 359.857083 128.236004 
L 359.215172 124.173484 
L 358.424189 120.077701 
L 357.469155 115.986041 
L 356.333003 111.895425 
L 355.006465 107.841932 
L 353.462955 103.788316 
L 351.700787 99.800225 
L 349.702892 95.868612 
L 347.488544 92.057149 
L 345.04607 88.342639 
L 342.413087 84.790115 
L 339.572898 81.364329 
L 336.551806 78.107714 
L 333.343517 75.010699 
L 329.954562 72.091434 
L 326.39045 69.364742 
L 322.681595 66.862123 
L 318.798678 64.568849 
L 314.835958 62.549222 
L 310.821003 60.791559 
L 306.760621 59.272143 
L 302.680573 57.978694 
L 298.585655 56.888045 
L 294.502278 55.987209 
L 290.399661 55.247687 
L 286.356539 54.670705 
L 282.311567 54.220058 
L 274.262014 53.673973 
L 270.222403 53.568 
L 266.145204 53.579298 
L 262.076558 53.72011 
L 257.963339 53.996349 
L 253.866628 54.420926 
L 249.76518 54.998641 
L 245.673105 55.737082 
L 241.565398 56.649406 
L 237.486075 57.741262 
L 233.463697 59.007592 
L 229.486005 60.448259 
L 225.577701 62.056385 
L 221.719639 63.838637 
L 217.973201 65.769273 
L 214.276705 67.872652 
L 210.692739 70.123819 
L 207.207834 72.526153 
L 203.813631 75.090055 
L 200.552842 77.792023 
L 197.471658 80.581484 
L 194.569241 83.421945 
L 191.80588 86.309987 
L 186.675645 92.11648 
L 179.671707 100.653661 
L 173.071985 108.710717 
L 166.254342 116.563341 
L 159.180467 124.331612 
L 149.431201 134.673509 
L 141.774224 142.852807 
L 136.660776 148.66715 
L 131.656481 154.889983 
L 129.247434 158.168183 
L 126.91438 161.578553 
L 124.687224 165.111503 
L 122.59933 168.731469 
L 120.637103 172.466343 
L 118.822279 176.302075 
L 117.172523 180.217006 
L 115.685869 184.228472 
L 114.378428 188.326195 
L 113.261678 192.509564 
L 112.35013 196.76739 
L 111.657415 201.090615 
L 111.195566 205.441387 
L 110.963935 209.79514 
L 110.957015 214.157891 
L 111.173487 218.506877 
L 111.609372 222.836686 
L 112.264067 227.144586 
L 113.134742 231.412871 
L 114.219497 235.629482 
L 115.519381 239.797478 
L 117.024249 243.876592 
L 118.746908 247.906267 
L 120.659445 251.802932 
L 122.779557 255.623329 
L 125.091492 259.322595 
L 127.587858 262.893136 
L 130.273845 266.343894 
L 133.141583 269.656188 
L 136.182455 272.816485 
L 139.407558 275.833129 
L 142.785125 278.666378 
L 146.337724 281.337452 
L 150.02839 283.807444 
L 153.859986 286.08081 
L 157.846703 288.155126 
L 161.933563 289.98955 
L 166.137323 291.591407 
L 170.476655 292.951695 
L 174.892357 294.031507 
L 179.408053 294.828088 
L 183.970506 295.315835 
L 188.53927 295.488 
L 193.05236 295.355327 
L 197.507232 294.941755 
L 201.90429 294.265513 
L 206.226248 293.345075 
L 210.462424 292.199306 
L 214.603541 290.847849 
L 218.674308 289.295365 
L 222.624969 287.567634 
L 226.483511 285.668671 
L 230.253849 283.598133 
L 233.934814 281.353397 
L 237.504192 278.940568 
L 240.956154 276.36202 
L 244.290828 273.61197 
L 247.50483 270.682308 
L 250.569284 267.586134 
L 253.479211 264.322572 
L 256.23111 260.885449 
L 258.795936 257.296406 
L 261.170286 253.559262 
L 263.3593 249.656107 
L 265.313171 245.655689 
L 267.054134 241.523172 
L 268.562437 237.271847 
L 269.818306 232.9212 
L 270.809691 228.475281 
L 271.515798 223.96056 
L 271.925244 219.362423 
L 272.013537 214.738799 
L 271.777033 210.138549 
L 271.229238 205.610633 
L 270.386639 201.1416 
L 269.26227 196.755846 
L 267.87202 192.464089 
L 266.229656 188.275452 
L 264.346321 184.197072 
L 262.237466 180.244866 
L 259.913478 176.423232 
L 257.38007 172.734398 
L 254.63877 169.180979 
L 251.72019 165.805128 
L 248.600743 162.573691 
L 245.324486 159.543107 
L 241.855431 156.67858 
L 238.237048 154.032356 
L 234.452852 151.595185 
L 230.507964 149.385401 
L 226.439958 147.436415 
L 223.131341 146.079954 
L 223.131341 146.079954 
" style="fill:none;stroke:#ffffff;stroke-linecap:square;"/>
   </g>
   <g id="patch_3">
    <path d="M 57.6 307.584 
L 57.6 41.472 
" style="fill:none;stroke:#000000;stroke-linecap:square;stroke-linejoin:miter;stroke-width:0.8;"/>
   </g>
   <g id="patch_4">
    <path d="M 414.72 307.584 
L 414.72 41.472 
" style="fill:none;stroke:#000000;stroke-linecap:square;stroke-linejoin:miter;stroke-width:0.8;"/>
   </g>
   <g id="patch_5">
    <path d="M 57.6 307.584 
L 414.72 307.584 
" style="fill:none;stroke:#000000;stroke-linecap:square;stroke-linejoin:miter;stroke-width:0.8;"/>
   </g>
   <g id="patch_6">
    <path d="M 57.6 41.472 
L 414.72 41.472 
" style="fill:none;stroke:#000000;stroke-linecap:square;stroke-linejoin:miter;stroke-width:0.8;"/>
   </g>
  </g>
 </g>
 <defs>
  <clipPath id="p8f6120a1ac">
   <rect height="266.112" width="357.12" x="57.6" y="41.472"/>
  </clipPath>
 </defs>
</svg>
