<?xml version="1.0" encoding="utf-8" standalone="no"?>
<!DOCTYPE svg PUBLIC "-//W3C//DTD SVG 1.1//EN"
  "http://www.w3.org/Graphics/SVG/1.1/DTD/svg11.dtd">
<!-- Created with matplotlib (https://matplotlib.org/) -->
<svg height="345.6pt" version="1.1" viewBox="0 0 460.8 345.6" width="460.8pt" xmlns="http://www.w3.org/2000/svg" xmlns:xlink="http://www.w3.org/1999/xlink">
 <metadata>
  <rdf:RDF xmlns:cc="http://creativecommons.org/ns#" xmlns:dc="http://purl.org/dc/elements/1.1/" xmlns:rdf="http://www.w3.org/1999/02/22-rdf-syntax-ns#">
   <cc:Work>
    <dc:type rdf:resource="http://purl.org/dc/dcmitype/StillImage"/>
    <dc:date>2021-01-22T10:37:32.756609</dc:date>
    <dc:format>image/svg+xml</dc:format>
    <dc:creator>
     <cc:Agent>
      <dc:title>Matplotlib v3.3.3, https://matplotlib.org/</dc:title>
     </cc:Agent>
    </dc:creator>
   </cc:Work>
  </rdf:RDF>
 </metadata>
 <defs>
  <style type="text/css">*{stroke-linecap:butt;stroke-linejoin:round;}</style>
 </defs>
 <g id="figure_1">
  <g id="patch_1">
   <path d="M 0 345.6 
L 460.8 345.6 
L 460.8 0 
L 0 0 
z
" style="fill:#ffffff;"/>
  </g>
  <g id="axes_1">
   <g id="patch_2">
    <path d="M 57.6 307.584 
L 414.72 307.584 
L 414.72 41.472 
L 57.6 41.472 
z
" style="fill:#7d9051;"/>
   </g>
   <g id="matplotlib.axis_1">
    <g id="xtick_1">
     <g id="line2d_1">
      <defs>
       <path d="M 0 0 
L 0 3.5 
" id="m1a2bef91d1" style="stroke:#000000;stroke-width:0.8;"/>
      </defs>
      <g>
       <use style="stroke:#000000;stroke-width:0.8;" x="83.750899" xlink:href="#m1a2bef91d1" y="307.584"/>
      </g>
     </g>
     <g id="text_1">
      <!-- 0 -->
      <g transform="translate(80.569649 322.182437)scale(0.1 -0.1)">
       <defs>
        <path d="M 31.78125 66.40625 
Q 24.171875 66.40625 20.328125 58.90625 
Q 16.5 51.421875 16.5 36.375 
Q 16.5 21.390625 20.328125 13.890625 
Q 24.171875 6.390625 31.78125 6.390625 
Q 39.453125 6.390625 43.28125 13.890625 
Q 47.125 21.390625 47.125 36.375 
Q 47.125 51.421875 43.28125 58.90625 
Q 39.453125 66.40625 31.78125 66.40625 
z
M 31.78125 74.21875 
Q 44.046875 74.21875 50.515625 64.515625 
Q 56.984375 54.828125 56.984375 36.375 
Q 56.984375 17.96875 50.515625 8.265625 
Q 44.046875 -1.421875 31.78125 -1.421875 
Q 19.53125 -1.421875 13.0625 8.265625 
Q 6.59375 17.96875 6.59375 36.375 
Q 6.59375 54.828125 13.0625 64.515625 
Q 19.53125 74.21875 31.78125 74.21875 
z
" id="DejaVuSans-48"/>
       </defs>
       <use xlink:href="#DejaVuSans-48"/>
      </g>
     </g>
    </g>
    <g id="xtick_2">
     <g id="line2d_2">
      <g>
       <use style="stroke:#000000;stroke-width:0.8;" x="138.516997" xlink:href="#m1a2bef91d1" y="307.584"/>
      </g>
     </g>
     <g id="text_2">
      <!-- 20 -->
      <g transform="translate(132.154497 322.182437)scale(0.1 -0.1)">
       <defs>
        <path d="M 19.1875 8.296875 
L 53.609375 8.296875 
L 53.609375 0 
L 7.328125 0 
L 7.328125 8.296875 
Q 12.9375 14.109375 22.625 23.890625 
Q 32.328125 33.6875 34.8125 36.53125 
Q 39.546875 41.84375 41.421875 45.53125 
Q 43.3125 49.21875 43.3125 52.78125 
Q 43.3125 58.59375 39.234375 62.25 
Q 35.15625 65.921875 28.609375 65.921875 
Q 23.96875 65.921875 18.8125 64.3125 
Q 13.671875 62.703125 7.8125 59.421875 
L 7.8125 69.390625 
Q 13.765625 71.78125 18.9375 73 
Q 24.125 74.21875 28.421875 74.21875 
Q 39.75 74.21875 46.484375 68.546875 
Q 53.21875 62.890625 53.21875 53.421875 
Q 53.21875 48.921875 51.53125 44.890625 
Q 49.859375 40.875 45.40625 35.40625 
Q 44.1875 33.984375 37.640625 27.21875 
Q 31.109375 20.453125 19.1875 8.296875 
z
" id="DejaVuSans-50"/>
       </defs>
       <use xlink:href="#DejaVuSans-50"/>
       <use x="63.623047" xlink:href="#DejaVuSans-48"/>
      </g>
     </g>
    </g>
    <g id="xtick_3">
     <g id="line2d_3">
      <g>
       <use style="stroke:#000000;stroke-width:0.8;" x="193.283095" xlink:href="#m1a2bef91d1" y="307.584"/>
      </g>
     </g>
     <g id="text_3">
      <!-- 40 -->
      <g transform="translate(186.920595 322.182437)scale(0.1 -0.1)">
       <defs>
        <path d="M 37.796875 64.3125 
L 12.890625 25.390625 
L 37.796875 25.390625 
z
M 35.203125 72.90625 
L 47.609375 72.90625 
L 47.609375 25.390625 
L 58.015625 25.390625 
L 58.015625 17.1875 
L 47.609375 17.1875 
L 47.609375 0 
L 37.796875 0 
L 37.796875 17.1875 
L 4.890625 17.1875 
L 4.890625 26.703125 
z
" id="DejaVuSans-52"/>
       </defs>
       <use xlink:href="#DejaVuSans-52"/>
       <use x="63.623047" xlink:href="#DejaVuSans-48"/>
      </g>
     </g>
    </g>
    <g id="xtick_4">
     <g id="line2d_4">
      <g>
       <use style="stroke:#000000;stroke-width:0.8;" x="248.049193" xlink:href="#m1a2bef91d1" y="307.584"/>
      </g>
     </g>
     <g id="text_4">
      <!-- 60 -->
      <g transform="translate(241.686693 322.182437)scale(0.1 -0.1)">
       <defs>
        <path d="M 33.015625 40.375 
Q 26.375 40.375 22.484375 35.828125 
Q 18.609375 31.296875 18.609375 23.390625 
Q 18.609375 15.53125 22.484375 10.953125 
Q 26.375 6.390625 33.015625 6.390625 
Q 39.65625 6.390625 43.53125 10.953125 
Q 47.40625 15.53125 47.40625 23.390625 
Q 47.40625 31.296875 43.53125 35.828125 
Q 39.65625 40.375 33.015625 40.375 
z
M 52.59375 71.296875 
L 52.59375 62.3125 
Q 48.875 64.0625 45.09375 64.984375 
Q 41.3125 65.921875 37.59375 65.921875 
Q 27.828125 65.921875 22.671875 59.328125 
Q 17.53125 52.734375 16.796875 39.40625 
Q 19.671875 43.65625 24.015625 45.921875 
Q 28.375 48.1875 33.59375 48.1875 
Q 44.578125 48.1875 50.953125 41.515625 
Q 57.328125 34.859375 57.328125 23.390625 
Q 57.328125 12.15625 50.6875 5.359375 
Q 44.046875 -1.421875 33.015625 -1.421875 
Q 20.359375 -1.421875 13.671875 8.265625 
Q 6.984375 17.96875 6.984375 36.375 
Q 6.984375 53.65625 15.1875 63.9375 
Q 23.390625 74.21875 37.203125 74.21875 
Q 40.921875 74.21875 44.703125 73.484375 
Q 48.484375 72.75 52.59375 71.296875 
z
" id="DejaVuSans-54"/>
       </defs>
       <use xlink:href="#DejaVuSans-54"/>
       <use x="63.623047" xlink:href="#DejaVuSans-48"/>
      </g>
     </g>
    </g>
    <g id="xtick_5">
     <g id="line2d_5">
      <g>
       <use style="stroke:#000000;stroke-width:0.8;" x="302.815291" xlink:href="#m1a2bef91d1" y="307.584"/>
      </g>
     </g>
     <g id="text_5">
      <!-- 80 -->
      <g transform="translate(296.452791 322.182437)scale(0.1 -0.1)">
       <defs>
        <path d="M 31.78125 34.625 
Q 24.75 34.625 20.71875 30.859375 
Q 16.703125 27.09375 16.703125 20.515625 
Q 16.703125 13.921875 20.71875 10.15625 
Q 24.75 6.390625 31.78125 6.390625 
Q 38.8125 6.390625 42.859375 10.171875 
Q 46.921875 13.96875 46.921875 20.515625 
Q 46.921875 27.09375 42.890625 30.859375 
Q 38.875 34.625 31.78125 34.625 
z
M 21.921875 38.8125 
Q 15.578125 40.375 12.03125 44.71875 
Q 8.5 49.078125 8.5 55.328125 
Q 8.5 64.0625 14.71875 69.140625 
Q 20.953125 74.21875 31.78125 74.21875 
Q 42.671875 74.21875 48.875 69.140625 
Q 55.078125 64.0625 55.078125 55.328125 
Q 55.078125 49.078125 51.53125 44.71875 
Q 48 40.375 41.703125 38.8125 
Q 48.828125 37.15625 52.796875 32.3125 
Q 56.78125 27.484375 56.78125 20.515625 
Q 56.78125 9.90625 50.3125 4.234375 
Q 43.84375 -1.421875 31.78125 -1.421875 
Q 19.734375 -1.421875 13.25 4.234375 
Q 6.78125 9.90625 6.78125 20.515625 
Q 6.78125 27.484375 10.78125 32.3125 
Q 14.796875 37.15625 21.921875 38.8125 
z
M 18.3125 54.390625 
Q 18.3125 48.734375 21.84375 45.5625 
Q 25.390625 42.390625 31.78125 42.390625 
Q 38.140625 42.390625 41.71875 45.5625 
Q 45.3125 48.734375 45.3125 54.390625 
Q 45.3125 60.0625 41.71875 63.234375 
Q 38.140625 66.40625 31.78125 66.40625 
Q 25.390625 66.40625 21.84375 63.234375 
Q 18.3125 60.0625 18.3125 54.390625 
z
" id="DejaVuSans-56"/>
       </defs>
       <use xlink:href="#DejaVuSans-56"/>
       <use x="63.623047" xlink:href="#DejaVuSans-48"/>
      </g>
     </g>
    </g>
    <g id="xtick_6">
     <g id="line2d_6">
      <g>
       <use style="stroke:#000000;stroke-width:0.8;" x="357.581389" xlink:href="#m1a2bef91d1" y="307.584"/>
      </g>
     </g>
     <g id="text_6">
      <!-- 100 -->
      <g transform="translate(348.037639 322.182437)scale(0.1 -0.1)">
       <defs>
        <path d="M 12.40625 8.296875 
L 28.515625 8.296875 
L 28.515625 63.921875 
L 10.984375 60.40625 
L 10.984375 69.390625 
L 28.421875 72.90625 
L 38.28125 72.90625 
L 38.28125 8.296875 
L 54.390625 8.296875 
L 54.390625 0 
L 12.40625 0 
z
" id="DejaVuSans-49"/>
       </defs>
       <use xlink:href="#DejaVuSans-49"/>
       <use x="63.623047" xlink:href="#DejaVuSans-48"/>
       <use x="127.246094" xlink:href="#DejaVuSans-48"/>
      </g>
     </g>
    </g>
    <g id="xtick_7">
     <g id="line2d_7">
      <g>
       <use style="stroke:#000000;stroke-width:0.8;" x="412.347487" xlink:href="#m1a2bef91d1" y="307.584"/>
      </g>
     </g>
     <g id="text_7">
      <!-- 120 -->
      <g transform="translate(402.803737 322.182437)scale(0.1 -0.1)">
       <use xlink:href="#DejaVuSans-49"/>
       <use x="63.623047" xlink:href="#DejaVuSans-50"/>
       <use x="127.246094" xlink:href="#DejaVuSans-48"/>
      </g>
     </g>
    </g>
   </g>
   <g id="matplotlib.axis_2">
    <g id="ytick_1">
     <g id="line2d_8">
      <defs>
       <path d="M 0 0 
L -3.5 0 
" id="m617de722b3" style="stroke:#000000;stroke-width:0.8;"/>
      </defs>
      <g>
       <use style="stroke:#000000;stroke-width:0.8;" x="57.6" xlink:href="#m617de722b3" y="267.364795"/>
      </g>
     </g>
     <g id="text_8">
      <!-- 20 -->
      <g transform="translate(37.875 271.164014)scale(0.1 -0.1)">
       <use xlink:href="#DejaVuSans-50"/>
       <use x="63.623047" xlink:href="#DejaVuSans-48"/>
      </g>
     </g>
    </g>
    <g id="ytick_2">
     <g id="line2d_9">
      <g>
       <use style="stroke:#000000;stroke-width:0.8;" x="57.6" xlink:href="#m617de722b3" y="212.598697"/>
      </g>
     </g>
     <g id="text_9">
      <!-- 40 -->
      <g transform="translate(37.875 216.397916)scale(0.1 -0.1)">
       <use xlink:href="#DejaVuSans-52"/>
       <use x="63.623047" xlink:href="#DejaVuSans-48"/>
      </g>
     </g>
    </g>
    <g id="ytick_3">
     <g id="line2d_10">
      <g>
       <use style="stroke:#000000;stroke-width:0.8;" x="57.6" xlink:href="#m617de722b3" y="157.832599"/>
      </g>
     </g>
     <g id="text_10">
      <!-- 60 -->
      <g transform="translate(37.875 161.631818)scale(0.1 -0.1)">
       <use xlink:href="#DejaVuSans-54"/>
       <use x="63.623047" xlink:href="#DejaVuSans-48"/>
      </g>
     </g>
    </g>
    <g id="ytick_4">
     <g id="line2d_11">
      <g>
       <use style="stroke:#000000;stroke-width:0.8;" x="57.6" xlink:href="#m617de722b3" y="103.066501"/>
      </g>
     </g>
     <g id="text_11">
      <!-- 80 -->
      <g transform="translate(37.875 106.86572)scale(0.1 -0.1)">
       <use xlink:href="#DejaVuSans-56"/>
       <use x="63.623047" xlink:href="#DejaVuSans-48"/>
      </g>
     </g>
    </g>
    <g id="ytick_5">
     <g id="line2d_12">
      <g>
       <use style="stroke:#000000;stroke-width:0.8;" x="57.6" xlink:href="#m617de722b3" y="48.300403"/>
      </g>
     </g>
     <g id="text_12">
      <!-- 100 -->
      <g transform="translate(31.5125 52.099622)scale(0.1 -0.1)">
       <use xlink:href="#DejaVuSans-49"/>
       <use x="63.623047" xlink:href="#DejaVuSans-48"/>
       <use x="127.246094" xlink:href="#DejaVuSans-48"/>
      </g>
     </g>
    </g>
   </g>
   <g id="line2d_13">
    <path clip-path="url(#pbedde58642)" d="M 118.037215 294.747844 
L 117.716833 289.254805 
L 117.593609 283.76998 
L 117.700403 275.560542 
L 118.059121 267.364795 
L 119.688413 237.284516 
L 119.737702 229.050433 
L 119.592572 223.568347 
L 119.280405 218.099952 
L 118.784772 212.656201 
L 118.091981 207.237096 
L 116.76938 199.145405 
L 114.20085 185.659253 
L 112.719427 177.518273 
L 111.908888 172.071785 
L 111.342059 166.619819 
L 111.103827 161.170593 
L 111.273602 155.726843 
L 111.859599 150.299522 
L 112.787884 144.89137 
L 113.979047 139.513339 
L 116.09028 131.517489 
L 118.412363 123.617479 
L 120.931603 115.810572 
L 123.689076 108.074861 
L 126.728595 100.410345 
L 128.993173 95.393771 
L 131.53432 90.522326 
L 132.933593 88.159169 
L 134.428708 85.853516 
L 136.027878 83.616321 
L 137.747533 81.455799 
L 139.587674 79.374687 
L 141.542824 77.386678 
L 143.610244 75.502724 
L 145.776243 73.733779 
L 148.038083 72.090796 
L 150.384811 70.584728 
L 152.805472 69.226529 
L 155.29733 68.02989 
L 157.852168 67.000287 
L 160.456296 66.154151 
L 163.106975 65.496958 
L 165.795991 65.017754 
L 168.515127 64.702849 
L 171.258909 64.538551 
L 174.01912 64.513906 
L 179.566926 64.826073 
L 185.095564 65.524341 
L 190.558482 66.504654 
L 198.611837 68.279075 
L 209.252889 70.729858 
L 214.600799 71.781367 
L 220.006213 72.627504 
L 236.29365 74.952325 
L 241.647036 76.066815 
L 246.918273 77.529069 
L 252.101885 79.314444 
L 257.195132 81.379126 
L 262.198015 83.668349 
L 267.113272 86.135562 
L 274.320491 90.075982 
L 281.382579 94.251897 
L 290.665433 100.100917 
L 297.557746 104.671148 
L 302.040351 107.869488 
L 306.361396 111.245818 
L 310.4579 114.852165 
L 314.269621 118.735082 
L 317.807511 122.886352 
L 321.140028 127.23478 
L 325.923846 133.960057 
L 332.28219 142.941697 
L 337.216616 149.521844 
L 342.309863 155.954122 
L 347.5811 162.233055 
L 353.04128 168.350428 
L 358.704094 174.303503 
L 364.588712 180.081326 
L 364.588712 180.081326 
" style="fill:none;stroke:#fea952;stroke-linecap:square;"/>
   </g>
   <g id="line2d_14">
    <path clip-path="url(#pbedde58642)" d="M 107.109032 295.488 
L 106.768852 289.593515 
L 106.64039 283.76998 
L 106.753913 275.176647 
L 107.123759 266.739604 
L 108.736956 237.087979 
L 108.786455 229.258299 
L 108.652504 224.104946 
L 108.364193 218.999579 
L 107.908384 213.951271 
L 107.261723 208.873717 
L 105.994945 201.116338 
L 103.43994 187.702739 
L 101.90033 179.227124 
L 101.029354 173.340152 
L 100.4087 167.279117 
L 100.151278 161.049387 
L 100.195117 157.88747 
L 100.365185 154.737168 
L 101.040148 148.592915 
L 102.069729 142.634342 
L 103.352224 136.859353 
L 104.79952 131.251146 
L 107.134836 123.067298 
L 109.675708 114.94662 
L 112.463931 106.859035 
L 115.554534 98.770097 
L 117.90178 93.266556 
L 120.597957 87.711251 
L 122.109407 84.941642 
L 123.743458 82.19977 
L 125.517918 79.483992 
L 127.457922 76.795114 
L 129.541961 74.200345 
L 131.778307 71.6944 
L 134.165289 69.290691 
L 136.681847 67.019191 
L 139.338974 64.871805 
L 142.122116 62.872643 
L 145.025135 61.032404 
L 148.06391 59.352796 
L 151.203136 57.870628 
L 154.467424 56.583161 
L 157.820429 55.522819 
L 161.185302 54.713628 
L 164.535913 54.137257 
L 167.860419 53.769214 
L 171.161116 53.585768 
L 174.419316 53.568 
L 177.61965 53.693448 
L 183.873827 54.288128 
L 189.887331 55.22706 
L 195.636848 56.374129 
L 216.389043 60.97511 
L 221.483208 61.774324 
L 235.412142 63.696552 
L 241.372279 64.7811 
L 247.398071 66.249662 
L 253.240989 68.080745 
L 258.89237 70.214412 
L 264.365915 72.585204 
L 269.657898 75.133588 
L 274.795456 77.81159 
L 282.272801 82.021995 
L 289.525941 86.406119 
L 299.011865 92.465588 
L 303.840466 95.698944 
L 308.671561 99.151686 
L 313.460653 102.90474 
L 318.119872 107.024828 
L 320.369814 109.239404 
L 324.510149 113.803739 
L 328.255569 118.467716 
L 331.690128 123.125923 
L 344.260211 140.697862 
L 349.116999 146.947976 
L 354.124117 153.03368 
L 359.291704 158.949081 
L 364.646464 164.70246 
L 370.180713 170.268731 
L 372.168722 172.174591 
L 372.168722 172.174591 
" style="fill:none;stroke:#ffffff;stroke-linecap:square;"/>
   </g>
   <g id="line2d_15">
    <path clip-path="url(#pbedde58642)" d="M 128.965398 294.007688 
L 128.664814 288.916095 
L 128.546829 283.76998 
L 128.646893 275.944437 
L 128.994484 267.989986 
L 130.639869 237.481052 
L 130.688949 228.842567 
L 130.53264 223.031747 
L 130.196617 217.200324 
L 129.66116 211.361132 
L 128.922239 205.600475 
L 127.543814 197.174472 
L 124.96176 183.615767 
L 123.538523 175.809422 
L 122.788423 170.803417 
L 122.275419 165.960521 
L 122.056376 161.291798 
L 122.182019 156.716517 
L 122.67905 152.006129 
L 123.506039 147.148398 
L 124.60587 142.167326 
L 126.624939 134.516486 
L 128.866406 126.886425 
L 131.284848 119.385951 
L 133.923166 111.978247 
L 136.763217 104.801173 
L 138.785664 100.300921 
L 140.959233 96.10301 
L 143.339498 92.223041 
L 144.597834 90.437529 
L 145.953106 88.711252 
L 147.397042 87.054974 
L 148.920359 85.482664 
L 150.538642 83.986257 
L 152.213513 82.595753 
L 153.954051 81.308949 
L 155.744486 80.137053 
L 157.547034 79.100262 
L 159.391523 78.189152 
L 161.236913 77.417414 
L 163.092164 76.785483 
L 165.028648 76.280287 
L 167.056068 75.898252 
L 169.169836 75.636484 
L 171.356702 75.491334 
L 175.960919 75.536999 
L 180.796877 75.977398 
L 185.791359 76.747169 
L 190.880053 77.757884 
L 212.812555 82.587625 
L 218.529218 83.480683 
L 234.221504 85.707752 
L 238.895149 86.668708 
L 243.503847 87.936505 
L 248.105599 89.512617 
L 252.737509 91.384256 
L 257.360692 93.495522 
L 261.984376 95.813756 
L 268.839014 99.558937 
L 275.631638 103.573898 
L 284.688021 109.279346 
L 291.275025 113.643352 
L 295.409141 116.58729 
L 299.262139 119.586895 
L 302.795929 122.679503 
L 306.040128 125.963392 
L 309.182258 129.637503 
L 312.273744 133.666112 
L 316.934288 140.217921 
L 323.466159 149.441745 
L 328.567127 156.241915 
L 333.849676 162.911007 
L 339.331841 169.438799 
L 345.021859 175.811119 
L 350.942618 182.032184 
L 357.008701 187.988061 
L 357.008701 187.988061 
" style="fill:none;stroke:#ffffff;stroke-linecap:square;"/>
   </g>
   <g id="patch_3">
    <path d="M 57.6 307.584 
L 57.6 41.472 
" style="fill:none;stroke:#000000;stroke-linecap:square;stroke-linejoin:miter;stroke-width:0.8;"/>
   </g>
   <g id="patch_4">
    <path d="M 414.72 307.584 
L 414.72 41.472 
" style="fill:none;stroke:#000000;stroke-linecap:square;stroke-linejoin:miter;stroke-width:0.8;"/>
   </g>
   <g id="patch_5">
    <path d="M 57.6 307.584 
L 414.72 307.584 
" style="fill:none;stroke:#000000;stroke-linecap:square;stroke-linejoin:miter;stroke-width:0.8;"/>
   </g>
   <g id="patch_6">
    <path d="M 57.6 41.472 
L 414.72 41.472 
" style="fill:none;stroke:#000000;stroke-linecap:square;stroke-linejoin:miter;stroke-width:0.8;"/>
   </g>
  </g>
 </g>
 <defs>
  <clipPath id="pbedde58642">
   <rect height="266.112" width="357.12" x="57.6" y="41.472"/>
  </clipPath>
 </defs>
</svg>
