<?xml version="1.0" encoding="utf-8" standalone="no"?>
<!DOCTYPE svg PUBLIC "-//W3C//DTD SVG 1.1//EN"
  "http://www.w3.org/Graphics/SVG/1.1/DTD/svg11.dtd">
<!-- Created with matplotlib (https://matplotlib.org/) -->
<svg height="345.6pt" version="1.1" viewBox="0 0 460.8 345.6" width="460.8pt" xmlns="http://www.w3.org/2000/svg" xmlns:xlink="http://www.w3.org/1999/xlink">
 <metadata>
  <rdf:RDF xmlns:cc="http://creativecommons.org/ns#" xmlns:dc="http://purl.org/dc/elements/1.1/" xmlns:rdf="http://www.w3.org/1999/02/22-rdf-syntax-ns#">
   <cc:Work>
    <dc:type rdf:resource="http://purl.org/dc/dcmitype/StillImage"/>
    <dc:date>2021-01-23T11:49:20.881621</dc:date>
    <dc:format>image/svg+xml</dc:format>
    <dc:creator>
     <cc:Agent>
      <dc:title>Matplotlib v3.3.3, https://matplotlib.org/</dc:title>
     </cc:Agent>
    </dc:creator>
   </cc:Work>
  </rdf:RDF>
 </metadata>
 <defs>
  <style type="text/css">*{stroke-linecap:butt;stroke-linejoin:round;}</style>
 </defs>
 <g id="figure_1">
  <g id="patch_1">
   <path d="M 0 345.6 
L 460.8 345.6 
L 460.8 0 
L 0 0 
z
" style="fill:#ffffff;"/>
  </g>
  <g id="axes_1">
   <g id="patch_2">
    <path d="M 57.6 307.584 
L 414.72 307.584 
L 414.72 41.472 
L 57.6 41.472 
z
" style="fill:#7d9051;"/>
   </g>
   <g id="matplotlib.axis_1">
    <g id="xtick_1">
     <g id="line2d_1">
      <defs>
       <path d="M 0 0 
L 0 3.5 
" id="m6b99aa2023" style="stroke:#000000;stroke-width:0.8;"/>
      </defs>
      <g>
       <use style="stroke:#000000;stroke-width:0.8;" x="104.328246" xlink:href="#m6b99aa2023" y="307.584"/>
      </g>
     </g>
     <g id="text_1">
      <!-- 20 -->
      <g transform="translate(97.965746 322.182437)scale(0.1 -0.1)">
       <defs>
        <path d="M 19.1875 8.296875 
L 53.609375 8.296875 
L 53.609375 0 
L 7.328125 0 
L 7.328125 8.296875 
Q 12.9375 14.109375 22.625 23.890625 
Q 32.328125 33.6875 34.8125 36.53125 
Q 39.546875 41.84375 41.421875 45.53125 
Q 43.3125 49.21875 43.3125 52.78125 
Q 43.3125 58.59375 39.234375 62.25 
Q 35.15625 65.921875 28.609375 65.921875 
Q 23.96875 65.921875 18.8125 64.3125 
Q 13.671875 62.703125 7.8125 59.421875 
L 7.8125 69.390625 
Q 13.765625 71.78125 18.9375 73 
Q 24.125 74.21875 28.421875 74.21875 
Q 39.75 74.21875 46.484375 68.546875 
Q 53.21875 62.890625 53.21875 53.421875 
Q 53.21875 48.921875 51.53125 44.890625 
Q 49.859375 40.875 45.40625 35.40625 
Q 44.1875 33.984375 37.640625 27.21875 
Q 31.109375 20.453125 19.1875 8.296875 
z
" id="DejaVuSans-50"/>
        <path d="M 31.78125 66.40625 
Q 24.171875 66.40625 20.328125 58.90625 
Q 16.5 51.421875 16.5 36.375 
Q 16.5 21.390625 20.328125 13.890625 
Q 24.171875 6.390625 31.78125 6.390625 
Q 39.453125 6.390625 43.28125 13.890625 
Q 47.125 21.390625 47.125 36.375 
Q 47.125 51.421875 43.28125 58.90625 
Q 39.453125 66.40625 31.78125 66.40625 
z
M 31.78125 74.21875 
Q 44.046875 74.21875 50.515625 64.515625 
Q 56.984375 54.828125 56.984375 36.375 
Q 56.984375 17.96875 50.515625 8.265625 
Q 44.046875 -1.421875 31.78125 -1.421875 
Q 19.53125 -1.421875 13.0625 8.265625 
Q 6.59375 17.96875 6.59375 36.375 
Q 6.59375 54.828125 13.0625 64.515625 
Q 19.53125 74.21875 31.78125 74.21875 
z
" id="DejaVuSans-48"/>
       </defs>
       <use xlink:href="#DejaVuSans-50"/>
       <use x="63.623047" xlink:href="#DejaVuSans-48"/>
      </g>
     </g>
    </g>
    <g id="xtick_2">
     <g id="line2d_2">
      <g>
       <use style="stroke:#000000;stroke-width:0.8;" x="159.558569" xlink:href="#m6b99aa2023" y="307.584"/>
      </g>
     </g>
     <g id="text_2">
      <!-- 40 -->
      <g transform="translate(153.196069 322.182437)scale(0.1 -0.1)">
       <defs>
        <path d="M 37.796875 64.3125 
L 12.890625 25.390625 
L 37.796875 25.390625 
z
M 35.203125 72.90625 
L 47.609375 72.90625 
L 47.609375 25.390625 
L 58.015625 25.390625 
L 58.015625 17.1875 
L 47.609375 17.1875 
L 47.609375 0 
L 37.796875 0 
L 37.796875 17.1875 
L 4.890625 17.1875 
L 4.890625 26.703125 
z
" id="DejaVuSans-52"/>
       </defs>
       <use xlink:href="#DejaVuSans-52"/>
       <use x="63.623047" xlink:href="#DejaVuSans-48"/>
      </g>
     </g>
    </g>
    <g id="xtick_3">
     <g id="line2d_3">
      <g>
       <use style="stroke:#000000;stroke-width:0.8;" x="214.788893" xlink:href="#m6b99aa2023" y="307.584"/>
      </g>
     </g>
     <g id="text_3">
      <!-- 60 -->
      <g transform="translate(208.426393 322.182437)scale(0.1 -0.1)">
       <defs>
        <path d="M 33.015625 40.375 
Q 26.375 40.375 22.484375 35.828125 
Q 18.609375 31.296875 18.609375 23.390625 
Q 18.609375 15.53125 22.484375 10.953125 
Q 26.375 6.390625 33.015625 6.390625 
Q 39.65625 6.390625 43.53125 10.953125 
Q 47.40625 15.53125 47.40625 23.390625 
Q 47.40625 31.296875 43.53125 35.828125 
Q 39.65625 40.375 33.015625 40.375 
z
M 52.59375 71.296875 
L 52.59375 62.3125 
Q 48.875 64.0625 45.09375 64.984375 
Q 41.3125 65.921875 37.59375 65.921875 
Q 27.828125 65.921875 22.671875 59.328125 
Q 17.53125 52.734375 16.796875 39.40625 
Q 19.671875 43.65625 24.015625 45.921875 
Q 28.375 48.1875 33.59375 48.1875 
Q 44.578125 48.1875 50.953125 41.515625 
Q 57.328125 34.859375 57.328125 23.390625 
Q 57.328125 12.15625 50.6875 5.359375 
Q 44.046875 -1.421875 33.015625 -1.421875 
Q 20.359375 -1.421875 13.671875 8.265625 
Q 6.984375 17.96875 6.984375 36.375 
Q 6.984375 53.65625 15.1875 63.9375 
Q 23.390625 74.21875 37.203125 74.21875 
Q 40.921875 74.21875 44.703125 73.484375 
Q 48.484375 72.75 52.59375 71.296875 
z
" id="DejaVuSans-54"/>
       </defs>
       <use xlink:href="#DejaVuSans-54"/>
       <use x="63.623047" xlink:href="#DejaVuSans-48"/>
      </g>
     </g>
    </g>
    <g id="xtick_4">
     <g id="line2d_4">
      <g>
       <use style="stroke:#000000;stroke-width:0.8;" x="270.019217" xlink:href="#m6b99aa2023" y="307.584"/>
      </g>
     </g>
     <g id="text_4">
      <!-- 80 -->
      <g transform="translate(263.656717 322.182437)scale(0.1 -0.1)">
       <defs>
        <path d="M 31.78125 34.625 
Q 24.75 34.625 20.71875 30.859375 
Q 16.703125 27.09375 16.703125 20.515625 
Q 16.703125 13.921875 20.71875 10.15625 
Q 24.75 6.390625 31.78125 6.390625 
Q 38.8125 6.390625 42.859375 10.171875 
Q 46.921875 13.96875 46.921875 20.515625 
Q 46.921875 27.09375 42.890625 30.859375 
Q 38.875 34.625 31.78125 34.625 
z
M 21.921875 38.8125 
Q 15.578125 40.375 12.03125 44.71875 
Q 8.5 49.078125 8.5 55.328125 
Q 8.5 64.0625 14.71875 69.140625 
Q 20.953125 74.21875 31.78125 74.21875 
Q 42.671875 74.21875 48.875 69.140625 
Q 55.078125 64.0625 55.078125 55.328125 
Q 55.078125 49.078125 51.53125 44.71875 
Q 48 40.375 41.703125 38.8125 
Q 48.828125 37.15625 52.796875 32.3125 
Q 56.78125 27.484375 56.78125 20.515625 
Q 56.78125 9.90625 50.3125 4.234375 
Q 43.84375 -1.421875 31.78125 -1.421875 
Q 19.734375 -1.421875 13.25 4.234375 
Q 6.78125 9.90625 6.78125 20.515625 
Q 6.78125 27.484375 10.78125 32.3125 
Q 14.796875 37.15625 21.921875 38.8125 
z
M 18.3125 54.390625 
Q 18.3125 48.734375 21.84375 45.5625 
Q 25.390625 42.390625 31.78125 42.390625 
Q 38.140625 42.390625 41.71875 45.5625 
Q 45.3125 48.734375 45.3125 54.390625 
Q 45.3125 60.0625 41.71875 63.234375 
Q 38.140625 66.40625 31.78125 66.40625 
Q 25.390625 66.40625 21.84375 63.234375 
Q 18.3125 60.0625 18.3125 54.390625 
z
" id="DejaVuSans-56"/>
       </defs>
       <use xlink:href="#DejaVuSans-56"/>
       <use x="63.623047" xlink:href="#DejaVuSans-48"/>
      </g>
     </g>
    </g>
    <g id="xtick_5">
     <g id="line2d_5">
      <g>
       <use style="stroke:#000000;stroke-width:0.8;" x="325.24954" xlink:href="#m6b99aa2023" y="307.584"/>
      </g>
     </g>
     <g id="text_5">
      <!-- 100 -->
      <g transform="translate(315.70579 322.182437)scale(0.1 -0.1)">
       <defs>
        <path d="M 12.40625 8.296875 
L 28.515625 8.296875 
L 28.515625 63.921875 
L 10.984375 60.40625 
L 10.984375 69.390625 
L 28.421875 72.90625 
L 38.28125 72.90625 
L 38.28125 8.296875 
L 54.390625 8.296875 
L 54.390625 0 
L 12.40625 0 
z
" id="DejaVuSans-49"/>
       </defs>
       <use xlink:href="#DejaVuSans-49"/>
       <use x="63.623047" xlink:href="#DejaVuSans-48"/>
       <use x="127.246094" xlink:href="#DejaVuSans-48"/>
      </g>
     </g>
    </g>
    <g id="xtick_6">
     <g id="line2d_6">
      <g>
       <use style="stroke:#000000;stroke-width:0.8;" x="380.479864" xlink:href="#m6b99aa2023" y="307.584"/>
      </g>
     </g>
     <g id="text_6">
      <!-- 120 -->
      <g transform="translate(370.936114 322.182437)scale(0.1 -0.1)">
       <use xlink:href="#DejaVuSans-49"/>
       <use x="63.623047" xlink:href="#DejaVuSans-50"/>
       <use x="127.246094" xlink:href="#DejaVuSans-48"/>
      </g>
     </g>
    </g>
   </g>
   <g id="matplotlib.axis_2">
    <g id="ytick_1">
     <g id="line2d_7">
      <defs>
       <path d="M 0 0 
L -3.5 0 
" id="mfa679e4a24" style="stroke:#000000;stroke-width:0.8;"/>
      </defs>
      <g>
       <use style="stroke:#000000;stroke-width:0.8;" x="57.6" xlink:href="#mfa679e4a24" y="297.788706"/>
      </g>
     </g>
     <g id="text_7">
      <!-- 0 -->
      <g transform="translate(44.2375 301.587925)scale(0.1 -0.1)">
       <use xlink:href="#DejaVuSans-48"/>
      </g>
     </g>
    </g>
    <g id="ytick_2">
     <g id="line2d_8">
      <g>
       <use style="stroke:#000000;stroke-width:0.8;" x="57.6" xlink:href="#mfa679e4a24" y="242.558382"/>
      </g>
     </g>
     <g id="text_8">
      <!-- 20 -->
      <g transform="translate(37.875 246.357601)scale(0.1 -0.1)">
       <use xlink:href="#DejaVuSans-50"/>
       <use x="63.623047" xlink:href="#DejaVuSans-48"/>
      </g>
     </g>
    </g>
    <g id="ytick_3">
     <g id="line2d_9">
      <g>
       <use style="stroke:#000000;stroke-width:0.8;" x="57.6" xlink:href="#mfa679e4a24" y="187.328059"/>
      </g>
     </g>
     <g id="text_9">
      <!-- 40 -->
      <g transform="translate(37.875 191.127277)scale(0.1 -0.1)">
       <use xlink:href="#DejaVuSans-52"/>
       <use x="63.623047" xlink:href="#DejaVuSans-48"/>
      </g>
     </g>
    </g>
    <g id="ytick_4">
     <g id="line2d_10">
      <g>
       <use style="stroke:#000000;stroke-width:0.8;" x="57.6" xlink:href="#mfa679e4a24" y="132.097735"/>
      </g>
     </g>
     <g id="text_10">
      <!-- 60 -->
      <g transform="translate(37.875 135.896954)scale(0.1 -0.1)">
       <use xlink:href="#DejaVuSans-54"/>
       <use x="63.623047" xlink:href="#DejaVuSans-48"/>
      </g>
     </g>
    </g>
    <g id="ytick_5">
     <g id="line2d_11">
      <g>
       <use style="stroke:#000000;stroke-width:0.8;" x="57.6" xlink:href="#mfa679e4a24" y="76.867411"/>
      </g>
     </g>
     <g id="text_11">
      <!-- 80 -->
      <g transform="translate(37.875 80.66663)scale(0.1 -0.1)">
       <use xlink:href="#DejaVuSans-56"/>
       <use x="63.623047" xlink:href="#DejaVuSans-48"/>
      </g>
     </g>
    </g>
   </g>
   <g id="line2d_12">
    <path clip-path="url(#p4478799a8a)" d="M 387.162733 169.861469 
L 386.842397 167.185559 
L 386.522062 161.756419 
L 386.524823 156.241671 
L 386.881059 147.863231 
L 387.400224 136.632144 
L 387.416793 131.045597 
L 387.115788 125.51428 
L 386.809259 122.774856 
L 386.381224 120.060286 
L 385.815113 117.370569 
L 385.094358 114.711229 
L 384.210673 112.082266 
L 383.166819 109.500248 
L 381.968321 106.970699 
L 380.620702 104.510188 
L 379.132244 102.124238 
L 377.505711 99.826657 
L 375.746625 97.62849 
L 373.866033 95.543545 
L 371.866695 93.580107 
L 369.754135 91.749222 
L 367.536638 90.059174 
L 365.219726 88.512725 
L 362.819968 87.10159 
L 360.342888 85.823008 
L 357.799532 84.676979 
L 355.198184 83.655218 
L 352.54989 82.754964 
L 349.862934 81.976216 
L 347.151125 81.310691 
L 341.680562 80.311022 
L 336.182383 79.695204 
L 330.664874 79.377629 
L 325.136318 79.267169 
L 311.320453 79.350014 
L 297.529441 79.584743 
L 289.233846 79.935456 
L 283.694245 80.319306 
L 278.16569 80.877133 
L 272.681318 81.675211 
L 267.265985 82.76601 
L 261.952828 84.213044 
L 256.763939 86.054975 
L 251.699318 88.261427 
L 246.761727 90.77993 
L 241.945643 93.560776 
L 237.248304 96.551498 
L 232.675233 99.716196 
L 228.259569 103.071438 
L 224.039972 106.650363 
L 220.057866 110.486109 
L 216.351911 114.606291 
L 214.614918 116.782366 
L 212.963531 119.03024 
L 211.406036 121.349914 
L 209.945194 123.735864 
L 208.589289 126.177044 
L 207.343845 128.673455 
L 206.214385 131.219573 
L 205.209193 133.807113 
L 204.333793 136.436077 
L 203.593706 139.098178 
L 202.994457 141.787895 
L 202.525 144.502466 
L 201.922989 149.989598 
L 201.696545 155.531961 
L 201.746252 161.101939 
L 202.116295 169.436195 
L 203.022073 185.974916 
L 203.16291 191.489663 
L 203.12701 197.023742 
L 202.856382 202.566105 
L 202.279225 208.086376 
L 201.326502 213.548655 
L 200.688591 216.246656 
L 199.929174 218.917042 
L 199.042728 221.559813 
L 198.020967 224.161161 
L 196.866653 226.718325 
L 195.579786 229.220259 
L 194.168652 231.650393 
L 192.633249 234.003205 
L 190.976339 236.264887 
L 189.206207 238.427154 
L 187.320092 240.476199 
L 185.326277 242.400976 
L 183.224763 244.1932 
L 181.021073 245.844587 
L 178.726253 247.360659 
L 176.345826 248.755225 
L 173.896361 250.036568 
L 168.817933 252.303773 
L 163.573814 254.250642 
L 158.241326 255.962782 
L 152.892269 257.514754 
L 147.532166 258.912081 
L 142.155494 260.157525 
L 136.759492 261.245562 
L 131.335874 262.176193 
L 123.142455 263.289084 
L 112.154383 264.473775 
L 98.410316 265.987086 
L 90.208613 267.185584 
L 84.779473 268.204583 
L 79.391755 269.450027 
L 76.713084 270.173544 
L 76.713084 270.173544 
" style="fill:none;stroke:#fea952;stroke-linecap:square;"/>
   </g>
   <g id="line2d_13">
    <path clip-path="url(#p4478799a8a)" d="M 376.194977 171.17443 
L 375.828605 168.029313 
L 375.47667 161.878406 
L 375.483978 155.902121 
L 375.851702 147.255911 
L 376.35537 136.468598 
L 376.378207 131.451993 
L 376.138231 126.742616 
L 375.571982 122.335332 
L 375.153684 120.260115 
L 374.623973 118.230686 
L 373.969836 116.222411 
L 373.184517 114.229854 
L 372.280186 112.276883 
L 371.248786 110.356789 
L 370.116682 108.50665 
L 368.881241 106.7284 
L 367.544258 105.026916 
L 366.126363 103.424728 
L 364.63229 101.927498 
L 363.058424 100.534607 
L 361.40433 99.246685 
L 359.620585 98.034551 
L 357.75349 96.917208 
L 355.804973 95.8939 
L 353.761187 94.958385 
L 349.475 93.364422 
L 344.961661 92.137592 
L 340.282008 91.268193 
L 335.421255 90.715015 
L 330.356014 90.419375 
L 325.125283 90.313228 
L 311.431129 90.395524 
L 297.90479 90.624429 
L 289.926302 90.959795 
L 282.133421 91.553071 
L 277.145348 92.151382 
L 272.316458 92.96986 
L 267.697429 94.041432 
L 263.229006 95.425704 
L 258.794266 97.167582 
L 254.37089 99.254632 
L 249.97504 101.640271 
L 245.607537 104.290411 
L 241.323293 107.128419 
L 237.237746 110.077323 
L 233.385094 113.155862 
L 229.815488 116.355489 
L 226.522681 119.731473 
L 223.516953 123.322191 
L 220.826587 127.117821 
L 218.47356 131.108245 
L 216.510812 135.219465 
L 214.976241 139.394766 
L 214.375428 141.500266 
L 213.878953 143.67026 
L 213.172857 148.229466 
L 212.813186 153.05329 
L 212.73789 158.107603 
L 212.874173 163.370041 
L 213.471728 174.310103 
L 214.062463 185.620915 
L 214.208925 191.456558 
L 214.165582 197.430542 
L 213.859043 203.544363 
L 213.194543 209.780891 
L 212.698424 212.926504 
L 212.076183 216.090289 
L 211.313371 219.268181 
L 210.401807 222.429806 
L 209.324134 225.598158 
L 208.088815 228.705827 
L 206.689532 231.770711 
L 205.132149 234.767142 
L 203.419224 237.687152 
L 201.543963 240.531201 
L 199.523576 243.26205 
L 197.333384 245.9081 
L 194.992038 248.423323 
L 192.494019 250.805678 
L 189.848857 253.032709 
L 187.109883 255.060982 
L 184.30991 256.891573 
L 181.465917 258.542983 
L 178.588627 260.036478 
L 175.696296 261.385018 
L 169.915899 263.717961 
L 164.194345 265.679456 
L 158.573779 267.387393 
L 152.926381 268.940519 
L 147.258247 270.335409 
L 141.556146 271.56904 
L 135.835828 272.632412 
L 130.093342 273.525424 
L 121.593424 274.588094 
L 97.260861 277.282642 
L 92.142757 278.060998 
L 87.14064 278.99534 
L 82.272111 280.113942 
L 79.59344 280.83746 
L 79.59344 280.83746 
" style="fill:none;stroke:#ffffff;stroke-linecap:square;"/>
   </g>
   <g id="line2d_14">
    <path clip-path="url(#p4478799a8a)" d="M 398.13049 168.548507 
L 397.67183 164.023577 
L 397.536956 159.138359 
L 397.645569 153.949241 
L 398.487273 133.736302 
L 398.332047 127.475429 
L 398.093344 124.285945 
L 397.720513 121.054364 
L 397.190466 117.78524 
L 396.476543 114.481023 
L 395.564743 111.191772 
L 394.451509 107.94212 
L 393.149122 104.770642 
L 391.656456 101.664515 
L 389.992618 98.663588 
L 388.147807 95.741827 
L 386.130182 92.924914 
L 383.948993 90.230063 
L 381.605703 87.662362 
L 379.1011 85.232717 
L 376.449846 82.963836 
L 373.668945 80.871663 
L 370.818866 78.990899 
L 367.886446 77.285973 
L 364.880804 75.752116 
L 361.837876 74.395572 
L 358.753355 73.196905 
L 355.624779 72.145505 
L 352.495706 71.248492 
L 349.34059 70.483789 
L 346.200296 69.856734 
L 339.992623 68.9652 
L 333.931718 68.470286 
L 328.033007 68.255036 
L 319.516636 68.235265 
L 299.989762 68.46815 
L 291.442708 68.762806 
L 282.685282 69.319418 
L 276.714443 69.926816 
L 270.674293 70.813011 
L 264.563473 72.055642 
L 261.493769 72.838207 
L 258.44978 73.737157 
L 255.457385 74.745663 
L 249.635854 77.063213 
L 244.062541 79.714925 
L 238.699193 82.642443 
L 233.556034 85.774919 
L 228.561583 89.095091 
L 223.65011 92.657842 
L 218.859217 96.510709 
L 214.216074 100.711946 
L 211.992482 102.938585 
L 209.809774 105.283605 
L 207.718907 107.715226 
L 205.712882 110.242541 
L 203.792855 112.872786 
L 201.985484 115.582007 
L 200.288681 118.372348 
L 198.705019 121.245843 
L 197.246665 124.194337 
L 195.917958 127.21968 
L 194.728876 130.317344 
L 193.691344 133.477388 
L 192.811985 136.69609 
L 192.109962 139.905531 
L 191.57012 143.086077 
L 191.170194 146.243267 
L 190.729025 152.459985 
L 190.649676 158.523536 
L 190.806115 164.401054 
L 191.418103 175.613875 
L 191.981682 186.328916 
L 192.126535 194.077755 
L 191.999141 199.125749 
L 191.643537 204.011697 
L 191.009479 208.725096 
L 190.063812 213.225131 
L 188.761321 217.521469 
L 187.043774 221.66594 
L 186.027424 223.673376 
L 184.918079 225.613635 
L 183.722535 227.47521 
L 182.429102 229.267724 
L 181.079031 230.946208 
L 179.648145 232.529075 
L 178.158535 233.996274 
L 176.600669 235.35369 
L 174.932263 236.628191 
L 173.142597 237.829745 
L 171.225736 238.967466 
L 167.070467 241.046453 
L 162.506224 242.905491 
L 157.634603 244.583675 
L 150.032421 246.84532 
L 142.437699 248.77562 
L 134.808875 250.373091 
L 129.719495 251.249031 
L 121.871697 252.316358 
L 111.029045 253.485182 
L 96.95332 255.037533 
L 91.192679 255.841793 
L 85.350442 256.832228 
L 79.464578 258.063266 
L 73.832727 259.509629 
L 73.832727 259.509629 
" style="fill:none;stroke:#ffffff;stroke-linecap:square;"/>
   </g>
   <g id="patch_3">
    <path d="M 57.6 307.584 
L 57.6 41.472 
" style="fill:none;stroke:#000000;stroke-linecap:square;stroke-linejoin:miter;stroke-width:0.8;"/>
   </g>
   <g id="patch_4">
    <path d="M 414.72 307.584 
L 414.72 41.472 
" style="fill:none;stroke:#000000;stroke-linecap:square;stroke-linejoin:miter;stroke-width:0.8;"/>
   </g>
   <g id="patch_5">
    <path d="M 57.6 307.584 
L 414.72 307.584 
" style="fill:none;stroke:#000000;stroke-linecap:square;stroke-linejoin:miter;stroke-width:0.8;"/>
   </g>
   <g id="patch_6">
    <path d="M 57.6 41.472 
L 414.72 41.472 
" style="fill:none;stroke:#000000;stroke-linecap:square;stroke-linejoin:miter;stroke-width:0.8;"/>
   </g>
  </g>
 </g>
 <defs>
  <clipPath id="p4478799a8a">
   <rect height="266.112" width="357.12" x="57.6" y="41.472"/>
  </clipPath>
 </defs>
</svg>
