<?xml version="1.0" encoding="utf-8" standalone="no"?>
<!DOCTYPE svg PUBLIC "-//W3C//DTD SVG 1.1//EN"
  "http://www.w3.org/Graphics/SVG/1.1/DTD/svg11.dtd">
<!-- Created with matplotlib (https://matplotlib.org/) -->
<svg height="345.6pt" version="1.1" viewBox="0 0 460.8 345.6" width="460.8pt" xmlns="http://www.w3.org/2000/svg" xmlns:xlink="http://www.w3.org/1999/xlink">
 <metadata>
  <rdf:RDF xmlns:cc="http://creativecommons.org/ns#" xmlns:dc="http://purl.org/dc/elements/1.1/" xmlns:rdf="http://www.w3.org/1999/02/22-rdf-syntax-ns#">
   <cc:Work>
    <dc:type rdf:resource="http://purl.org/dc/dcmitype/StillImage"/>
    <dc:date>2021-01-23T12:44:33.464467</dc:date>
    <dc:format>image/svg+xml</dc:format>
    <dc:creator>
     <cc:Agent>
      <dc:title>Matplotlib v3.3.3, https://matplotlib.org/</dc:title>
     </cc:Agent>
    </dc:creator>
   </cc:Work>
  </rdf:RDF>
 </metadata>
 <defs>
  <style type="text/css">*{stroke-linecap:butt;stroke-linejoin:round;}</style>
 </defs>
 <g id="figure_1">
  <g id="patch_1">
   <path d="M 0 345.6 
L 460.8 345.6 
L 460.8 0 
L 0 0 
z
" style="fill:#ffffff;"/>
  </g>
  <g id="axes_1">
   <g id="patch_2">
    <path d="M 57.6 307.584 
L 414.72 307.584 
L 414.72 41.472 
L 57.6 41.472 
z
" style="fill:#7d9051;"/>
   </g>
   <g id="matplotlib.axis_1">
    <g id="xtick_1">
     <g id="line2d_1">
      <defs>
       <path d="M 0 0 
L 0 3.5 
" id="m57ee47b20b" style="stroke:#000000;stroke-width:0.8;"/>
      </defs>
      <g>
       <use style="stroke:#000000;stroke-width:0.8;" x="61.277741" xlink:href="#m57ee47b20b" y="307.584"/>
      </g>
     </g>
     <g id="text_1">
      <!-- −40 -->
      <g transform="translate(50.725398 322.182437)scale(0.1 -0.1)">
       <defs>
        <path d="M 10.59375 35.5 
L 73.1875 35.5 
L 73.1875 27.203125 
L 10.59375 27.203125 
z
" id="DejaVuSans-8722"/>
        <path d="M 37.796875 64.3125 
L 12.890625 25.390625 
L 37.796875 25.390625 
z
M 35.203125 72.90625 
L 47.609375 72.90625 
L 47.609375 25.390625 
L 58.015625 25.390625 
L 58.015625 17.1875 
L 47.609375 17.1875 
L 47.609375 0 
L 37.796875 0 
L 37.796875 17.1875 
L 4.890625 17.1875 
L 4.890625 26.703125 
z
" id="DejaVuSans-52"/>
        <path d="M 31.78125 66.40625 
Q 24.171875 66.40625 20.328125 58.90625 
Q 16.5 51.421875 16.5 36.375 
Q 16.5 21.390625 20.328125 13.890625 
Q 24.171875 6.390625 31.78125 6.390625 
Q 39.453125 6.390625 43.28125 13.890625 
Q 47.125 21.390625 47.125 36.375 
Q 47.125 51.421875 43.28125 58.90625 
Q 39.453125 66.40625 31.78125 66.40625 
z
M 31.78125 74.21875 
Q 44.046875 74.21875 50.515625 64.515625 
Q 56.984375 54.828125 56.984375 36.375 
Q 56.984375 17.96875 50.515625 8.265625 
Q 44.046875 -1.421875 31.78125 -1.421875 
Q 19.53125 -1.421875 13.0625 8.265625 
Q 6.59375 17.96875 6.59375 36.375 
Q 6.59375 54.828125 13.0625 64.515625 
Q 19.53125 74.21875 31.78125 74.21875 
z
" id="DejaVuSans-48"/>
       </defs>
       <use xlink:href="#DejaVuSans-8722"/>
       <use x="83.789062" xlink:href="#DejaVuSans-52"/>
       <use x="147.412109" xlink:href="#DejaVuSans-48"/>
      </g>
     </g>
    </g>
    <g id="xtick_2">
     <g id="line2d_2">
      <g>
       <use style="stroke:#000000;stroke-width:0.8;" x="101.260151" xlink:href="#m57ee47b20b" y="307.584"/>
      </g>
     </g>
     <g id="text_2">
      <!-- −20 -->
      <g transform="translate(90.707807 322.182437)scale(0.1 -0.1)">
       <defs>
        <path d="M 19.1875 8.296875 
L 53.609375 8.296875 
L 53.609375 0 
L 7.328125 0 
L 7.328125 8.296875 
Q 12.9375 14.109375 22.625 23.890625 
Q 32.328125 33.6875 34.8125 36.53125 
Q 39.546875 41.84375 41.421875 45.53125 
Q 43.3125 49.21875 43.3125 52.78125 
Q 43.3125 58.59375 39.234375 62.25 
Q 35.15625 65.921875 28.609375 65.921875 
Q 23.96875 65.921875 18.8125 64.3125 
Q 13.671875 62.703125 7.8125 59.421875 
L 7.8125 69.390625 
Q 13.765625 71.78125 18.9375 73 
Q 24.125 74.21875 28.421875 74.21875 
Q 39.75 74.21875 46.484375 68.546875 
Q 53.21875 62.890625 53.21875 53.421875 
Q 53.21875 48.921875 51.53125 44.890625 
Q 49.859375 40.875 45.40625 35.40625 
Q 44.1875 33.984375 37.640625 27.21875 
Q 31.109375 20.453125 19.1875 8.296875 
z
" id="DejaVuSans-50"/>
       </defs>
       <use xlink:href="#DejaVuSans-8722"/>
       <use x="83.789062" xlink:href="#DejaVuSans-50"/>
       <use x="147.412109" xlink:href="#DejaVuSans-48"/>
      </g>
     </g>
    </g>
    <g id="xtick_3">
     <g id="line2d_3">
      <g>
       <use style="stroke:#000000;stroke-width:0.8;" x="141.242561" xlink:href="#m57ee47b20b" y="307.584"/>
      </g>
     </g>
     <g id="text_3">
      <!-- 0 -->
      <g transform="translate(138.061311 322.182437)scale(0.1 -0.1)">
       <use xlink:href="#DejaVuSans-48"/>
      </g>
     </g>
    </g>
    <g id="xtick_4">
     <g id="line2d_4">
      <g>
       <use style="stroke:#000000;stroke-width:0.8;" x="181.22497" xlink:href="#m57ee47b20b" y="307.584"/>
      </g>
     </g>
     <g id="text_4">
      <!-- 20 -->
      <g transform="translate(174.86247 322.182437)scale(0.1 -0.1)">
       <use xlink:href="#DejaVuSans-50"/>
       <use x="63.623047" xlink:href="#DejaVuSans-48"/>
      </g>
     </g>
    </g>
    <g id="xtick_5">
     <g id="line2d_5">
      <g>
       <use style="stroke:#000000;stroke-width:0.8;" x="221.20738" xlink:href="#m57ee47b20b" y="307.584"/>
      </g>
     </g>
     <g id="text_5">
      <!-- 40 -->
      <g transform="translate(214.84488 322.182437)scale(0.1 -0.1)">
       <use xlink:href="#DejaVuSans-52"/>
       <use x="63.623047" xlink:href="#DejaVuSans-48"/>
      </g>
     </g>
    </g>
    <g id="xtick_6">
     <g id="line2d_6">
      <g>
       <use style="stroke:#000000;stroke-width:0.8;" x="261.18979" xlink:href="#m57ee47b20b" y="307.584"/>
      </g>
     </g>
     <g id="text_6">
      <!-- 60 -->
      <g transform="translate(254.82729 322.182437)scale(0.1 -0.1)">
       <defs>
        <path d="M 33.015625 40.375 
Q 26.375 40.375 22.484375 35.828125 
Q 18.609375 31.296875 18.609375 23.390625 
Q 18.609375 15.53125 22.484375 10.953125 
Q 26.375 6.390625 33.015625 6.390625 
Q 39.65625 6.390625 43.53125 10.953125 
Q 47.40625 15.53125 47.40625 23.390625 
Q 47.40625 31.296875 43.53125 35.828125 
Q 39.65625 40.375 33.015625 40.375 
z
M 52.59375 71.296875 
L 52.59375 62.3125 
Q 48.875 64.0625 45.09375 64.984375 
Q 41.3125 65.921875 37.59375 65.921875 
Q 27.828125 65.921875 22.671875 59.328125 
Q 17.53125 52.734375 16.796875 39.40625 
Q 19.671875 43.65625 24.015625 45.921875 
Q 28.375 48.1875 33.59375 48.1875 
Q 44.578125 48.1875 50.953125 41.515625 
Q 57.328125 34.859375 57.328125 23.390625 
Q 57.328125 12.15625 50.6875 5.359375 
Q 44.046875 -1.421875 33.015625 -1.421875 
Q 20.359375 -1.421875 13.671875 8.265625 
Q 6.984375 17.96875 6.984375 36.375 
Q 6.984375 53.65625 15.1875 63.9375 
Q 23.390625 74.21875 37.203125 74.21875 
Q 40.921875 74.21875 44.703125 73.484375 
Q 48.484375 72.75 52.59375 71.296875 
z
" id="DejaVuSans-54"/>
       </defs>
       <use xlink:href="#DejaVuSans-54"/>
       <use x="63.623047" xlink:href="#DejaVuSans-48"/>
      </g>
     </g>
    </g>
    <g id="xtick_7">
     <g id="line2d_7">
      <g>
       <use style="stroke:#000000;stroke-width:0.8;" x="301.172199" xlink:href="#m57ee47b20b" y="307.584"/>
      </g>
     </g>
     <g id="text_7">
      <!-- 80 -->
      <g transform="translate(294.809699 322.182437)scale(0.1 -0.1)">
       <defs>
        <path d="M 31.78125 34.625 
Q 24.75 34.625 20.71875 30.859375 
Q 16.703125 27.09375 16.703125 20.515625 
Q 16.703125 13.921875 20.71875 10.15625 
Q 24.75 6.390625 31.78125 6.390625 
Q 38.8125 6.390625 42.859375 10.171875 
Q 46.921875 13.96875 46.921875 20.515625 
Q 46.921875 27.09375 42.890625 30.859375 
Q 38.875 34.625 31.78125 34.625 
z
M 21.921875 38.8125 
Q 15.578125 40.375 12.03125 44.71875 
Q 8.5 49.078125 8.5 55.328125 
Q 8.5 64.0625 14.71875 69.140625 
Q 20.953125 74.21875 31.78125 74.21875 
Q 42.671875 74.21875 48.875 69.140625 
Q 55.078125 64.0625 55.078125 55.328125 
Q 55.078125 49.078125 51.53125 44.71875 
Q 48 40.375 41.703125 38.8125 
Q 48.828125 37.15625 52.796875 32.3125 
Q 56.78125 27.484375 56.78125 20.515625 
Q 56.78125 9.90625 50.3125 4.234375 
Q 43.84375 -1.421875 31.78125 -1.421875 
Q 19.734375 -1.421875 13.25 4.234375 
Q 6.78125 9.90625 6.78125 20.515625 
Q 6.78125 27.484375 10.78125 32.3125 
Q 14.796875 37.15625 21.921875 38.8125 
z
M 18.3125 54.390625 
Q 18.3125 48.734375 21.84375 45.5625 
Q 25.390625 42.390625 31.78125 42.390625 
Q 38.140625 42.390625 41.71875 45.5625 
Q 45.3125 48.734375 45.3125 54.390625 
Q 45.3125 60.0625 41.71875 63.234375 
Q 38.140625 66.40625 31.78125 66.40625 
Q 25.390625 66.40625 21.84375 63.234375 
Q 18.3125 60.0625 18.3125 54.390625 
z
" id="DejaVuSans-56"/>
       </defs>
       <use xlink:href="#DejaVuSans-56"/>
       <use x="63.623047" xlink:href="#DejaVuSans-48"/>
      </g>
     </g>
    </g>
    <g id="xtick_8">
     <g id="line2d_8">
      <g>
       <use style="stroke:#000000;stroke-width:0.8;" x="341.154609" xlink:href="#m57ee47b20b" y="307.584"/>
      </g>
     </g>
     <g id="text_8">
      <!-- 100 -->
      <g transform="translate(331.610859 322.182437)scale(0.1 -0.1)">
       <defs>
        <path d="M 12.40625 8.296875 
L 28.515625 8.296875 
L 28.515625 63.921875 
L 10.984375 60.40625 
L 10.984375 69.390625 
L 28.421875 72.90625 
L 38.28125 72.90625 
L 38.28125 8.296875 
L 54.390625 8.296875 
L 54.390625 0 
L 12.40625 0 
z
" id="DejaVuSans-49"/>
       </defs>
       <use xlink:href="#DejaVuSans-49"/>
       <use x="63.623047" xlink:href="#DejaVuSans-48"/>
       <use x="127.246094" xlink:href="#DejaVuSans-48"/>
      </g>
     </g>
    </g>
    <g id="xtick_9">
     <g id="line2d_9">
      <g>
       <use style="stroke:#000000;stroke-width:0.8;" x="381.137019" xlink:href="#m57ee47b20b" y="307.584"/>
      </g>
     </g>
     <g id="text_9">
      <!-- 120 -->
      <g transform="translate(371.593269 322.182437)scale(0.1 -0.1)">
       <use xlink:href="#DejaVuSans-49"/>
       <use x="63.623047" xlink:href="#DejaVuSans-50"/>
       <use x="127.246094" xlink:href="#DejaVuSans-48"/>
      </g>
     </g>
    </g>
   </g>
   <g id="matplotlib.axis_2">
    <g id="ytick_1">
     <g id="line2d_10">
      <defs>
       <path d="M 0 0 
L -3.5 0 
" id="mc10bfd0429" style="stroke:#000000;stroke-width:0.8;"/>
      </defs>
      <g>
       <use style="stroke:#000000;stroke-width:0.8;" x="57.6" xlink:href="#mc10bfd0429" y="275.150499"/>
      </g>
     </g>
     <g id="text_10">
      <!-- 20 -->
      <g transform="translate(37.875 278.949717)scale(0.1 -0.1)">
       <use xlink:href="#DejaVuSans-50"/>
       <use x="63.623047" xlink:href="#DejaVuSans-48"/>
      </g>
     </g>
    </g>
    <g id="ytick_2">
     <g id="line2d_11">
      <g>
       <use style="stroke:#000000;stroke-width:0.8;" x="57.6" xlink:href="#mc10bfd0429" y="235.168089"/>
      </g>
     </g>
     <g id="text_11">
      <!-- 40 -->
      <g transform="translate(37.875 238.967308)scale(0.1 -0.1)">
       <use xlink:href="#DejaVuSans-52"/>
       <use x="63.623047" xlink:href="#DejaVuSans-48"/>
      </g>
     </g>
    </g>
    <g id="ytick_3">
     <g id="line2d_12">
      <g>
       <use style="stroke:#000000;stroke-width:0.8;" x="57.6" xlink:href="#mc10bfd0429" y="195.185679"/>
      </g>
     </g>
     <g id="text_12">
      <!-- 60 -->
      <g transform="translate(37.875 198.984898)scale(0.1 -0.1)">
       <use xlink:href="#DejaVuSans-54"/>
       <use x="63.623047" xlink:href="#DejaVuSans-48"/>
      </g>
     </g>
    </g>
    <g id="ytick_4">
     <g id="line2d_13">
      <g>
       <use style="stroke:#000000;stroke-width:0.8;" x="57.6" xlink:href="#mc10bfd0429" y="155.20327"/>
      </g>
     </g>
     <g id="text_13">
      <!-- 80 -->
      <g transform="translate(37.875 159.002488)scale(0.1 -0.1)">
       <use xlink:href="#DejaVuSans-56"/>
       <use x="63.623047" xlink:href="#DejaVuSans-48"/>
      </g>
     </g>
    </g>
    <g id="ytick_5">
     <g id="line2d_14">
      <g>
       <use style="stroke:#000000;stroke-width:0.8;" x="57.6" xlink:href="#mc10bfd0429" y="115.22086"/>
      </g>
     </g>
     <g id="text_14">
      <!-- 100 -->
      <g transform="translate(31.5125 119.020079)scale(0.1 -0.1)">
       <use xlink:href="#DejaVuSans-49"/>
       <use x="63.623047" xlink:href="#DejaVuSans-48"/>
       <use x="127.246094" xlink:href="#DejaVuSans-48"/>
      </g>
     </g>
    </g>
    <g id="ytick_6">
     <g id="line2d_15">
      <g>
       <use style="stroke:#000000;stroke-width:0.8;" x="57.6" xlink:href="#mc10bfd0429" y="75.23845"/>
      </g>
     </g>
     <g id="text_15">
      <!-- 120 -->
      <g transform="translate(31.5125 79.037669)scale(0.1 -0.1)">
       <use xlink:href="#DejaVuSans-49"/>
       <use x="63.623047" xlink:href="#DejaVuSans-50"/>
       <use x="127.246094" xlink:href="#DejaVuSans-48"/>
      </g>
     </g>
    </g>
   </g>
   <g id="line2d_16">
    <path clip-path="url(#pd870a87b9d)" d="M 170.867527 295.141703 
L 170.697602 289.176328 
L 170.761574 281.17185 
L 170.939496 269.131147 
L 170.817549 263.125789 
L 170.581653 259.139543 
L 170.185827 255.171289 
L 169.602084 251.225025 
L 168.430599 245.345611 
L 166.99723 239.50618 
L 161.933458 220.146698 
L 161.233766 216.206431 
L 160.753977 212.220185 
L 160.522079 208.203952 
L 160.556064 204.181722 
L 160.877922 200.179482 
L 161.505646 196.217226 
L 162.455228 192.32094 
L 163.704679 188.504619 
L 165.228008 184.784255 
L 166.99723 181.169846 
L 168.984356 177.677382 
L 171.1574 174.310863 
L 174.623875 169.411019 
L 179.275828 162.913877 
L 181.460867 159.575346 
L 184.49953 154.411618 
L 188.283865 147.356722 
L 195.802557 133.228937 
L 201.41009 122.627601 
L 204.976521 115.468751 
L 207.495413 110.025146 
L 210.606044 102.656388 
L 213.724672 95.291628 
L 215.431921 91.675219 
L 217.315093 88.136776 
L 219.408172 84.708284 
L 221.717156 81.417732 
L 224.248042 78.297105 
L 227.012826 75.380388 
L 230.013506 72.697568 
L 233.238087 70.274634 
L 236.658582 68.129578 
L 240.243005 66.286389 
L 243.95937 64.759061 
L 247.77769 63.569584 
L 251.673976 62.701966 
L 255.632235 62.114224 
L 259.634474 61.76038 
L 263.664701 61.592454 
L 269.726034 61.610446 
L 273.748265 61.836347 
L 277.732512 62.302142 
L 281.656785 63.071803 
L 285.501094 64.205304 
L 289.23745 65.750625 
L 292.809878 67.691771 
L 294.515128 68.805281 
L 297.717719 71.296185 
L 299.203066 72.669581 
L 300.596453 74.120942 
L 301.893882 75.64827 
L 303.087357 77.249566 
L 304.178877 78.916832 
L 306.08004 82.433285 
L 307.631358 86.147651 
L 308.870812 90.017948 
L 309.834388 93.994199 
L 310.560069 98.034421 
L 311.085838 102.088638 
L 311.575622 108.099993 
L 311.817516 113.887447 
L 311.817516 113.887447 
" style="fill:none;stroke:#fea952;stroke-linecap:square;"/>
   </g>
   <g id="line2d_17">
    <path clip-path="url(#pd870a87b9d)" d="M 162.878547 295.488 
L 162.701156 289.200341 
L 162.766841 281.004629 
L 162.943268 269.194925 
L 162.831084 263.525912 
L 162.458059 258.0346 
L 162.018947 254.45359 
L 161.405045 250.828128 
L 160.212552 245.307631 
L 158.248374 237.786426 
L 155.023484 225.869355 
L 154.077856 221.6411 
L 153.310029 217.282593 
L 152.77917 212.808556 
L 152.525917 208.275488 
L 152.574816 203.688364 
L 152.956327 199.087673 
L 153.700335 194.479169 
L 154.811498 189.972085 
L 156.253563 185.602103 
L 157.990483 181.383969 
L 159.988739 177.319551 
L 162.215474 173.419923 
L 164.573564 169.772491 
L 168.162023 164.700585 
L 172.630997 158.465288 
L 174.635239 155.40947 
L 177.49694 150.550601 
L 181.199861 143.647193 
L 188.759061 129.443058 
L 194.290105 118.987609 
L 197.75224 112.040414 
L 200.170111 106.818327 
L 203.212204 99.610925 
L 206.45952 91.950777 
L 208.320005 88.019487 
L 210.426749 84.07544 
L 212.782973 80.230509 
L 215.416698 76.49351 
L 218.337248 72.911361 
L 221.552434 69.538484 
L 225.073457 66.409513 
L 228.853705 63.587264 
L 232.852803 61.096814 
L 237.040366 58.959259 
L 241.41391 57.178536 
L 245.889139 55.799314 
L 250.37103 54.812349 
L 254.82 54.1591 
L 259.222097 53.774538 
L 263.553979 53.596739 
L 267.87315 53.573711 
L 272.294771 53.719253 
L 276.805887 54.110411 
L 281.406982 54.833029 
L 283.725631 55.347581 
L 286.042085 55.978355 
L 288.359985 56.737342 
L 290.636871 57.621011 
L 292.863842 58.623703 
L 295.054871 59.751674 
L 297.181929 60.996332 
L 299.251116 62.362134 
L 301.231958 63.832839 
L 303.146495 65.424889 
L 304.971468 67.131597 
L 306.690861 68.943886 
L 308.305447 70.869613 
L 309.777624 72.869606 
L 311.108912 74.927054 
L 312.307458 77.031689 
L 313.387318 79.185606 
L 315.198357 83.56226 
L 316.610254 88.006789 
L 317.683858 92.467913 
L 318.4782 96.917762 
L 319.04418 101.308562 
L 319.56132 107.684834 
L 319.809726 113.626098 
L 319.809726 113.626098 
" style="fill:none;stroke:#ffffff;stroke-linecap:square;"/>
   </g>
   <g id="line2d_18">
    <path clip-path="url(#pd870a87b9d)" d="M 178.856507 294.795407 
L 178.694048 289.152315 
L 178.756307 281.33907 
L 178.935723 269.067368 
L 178.804014 262.725665 
L 178.546981 258.434363 
L 178.10869 254.088711 
L 177.470604 249.800206 
L 176.219196 243.534124 
L 174.722518 237.44132 
L 169.78906 218.652295 
L 169.157502 215.13027 
L 168.728783 211.631814 
L 168.518241 208.132416 
L 168.537312 204.675079 
L 168.799518 201.271292 
L 169.310957 197.955283 
L 170.098958 194.669794 
L 171.155794 191.407134 
L 172.465534 188.184542 
L 174.005721 185.020141 
L 175.753238 181.934841 
L 177.741236 178.849236 
L 181.085727 174.121453 
L 185.920658 167.362467 
L 188.286495 163.741222 
L 191.50212 158.272635 
L 195.367869 151.066251 
L 202.846053 137.014817 
L 208.530075 126.267594 
L 212.200802 118.897088 
L 214.820714 113.231964 
L 217.999885 105.701851 
L 220.989824 98.632479 
L 222.543837 95.330951 
L 224.203436 92.198111 
L 226.03337 89.186059 
L 228.017614 86.341953 
L 230.158836 83.682849 
L 232.473218 81.222292 
L 234.953555 78.985624 
L 237.622469 76.962004 
L 240.464362 75.162342 
L 243.445644 73.613518 
L 246.504831 72.339586 
L 249.666242 71.339854 
L 252.976922 70.591583 
L 256.44447 70.069348 
L 260.046851 69.746222 
L 265.669993 69.560933 
L 271.183526 69.673564 
L 274.684885 69.962106 
L 278.000307 70.458952 
L 281.137784 71.200796 
L 284.135658 72.232962 
L 287.042435 73.592764 
L 289.77914 75.248427 
L 292.288943 77.167481 
L 294.502044 79.297998 
L 296.397089 81.629525 
L 298.041419 84.260454 
L 299.449483 87.183585 
L 300.626102 90.358817 
L 301.583141 93.750404 
L 302.336232 97.31003 
L 302.904876 101.001301 
L 303.46624 106.634661 
L 303.763333 112.253629 
L 303.825306 114.148795 
L 303.825306 114.148795 
" style="fill:none;stroke:#ffffff;stroke-linecap:square;"/>
   </g>
   <g id="patch_3">
    <path d="M 57.6 307.584 
L 57.6 41.472 
" style="fill:none;stroke:#000000;stroke-linecap:square;stroke-linejoin:miter;stroke-width:0.8;"/>
   </g>
   <g id="patch_4">
    <path d="M 414.72 307.584 
L 414.72 41.472 
" style="fill:none;stroke:#000000;stroke-linecap:square;stroke-linejoin:miter;stroke-width:0.8;"/>
   </g>
   <g id="patch_5">
    <path d="M 57.6 307.584 
L 414.72 307.584 
" style="fill:none;stroke:#000000;stroke-linecap:square;stroke-linejoin:miter;stroke-width:0.8;"/>
   </g>
   <g id="patch_6">
    <path d="M 57.6 41.472 
L 414.72 41.472 
" style="fill:none;stroke:#000000;stroke-linecap:square;stroke-linejoin:miter;stroke-width:0.8;"/>
   </g>
  </g>
 </g>
 <defs>
  <clipPath id="pd870a87b9d">
   <rect height="266.112" width="357.12" x="57.6" y="41.472"/>
  </clipPath>
 </defs>
</svg>
