<?xml version="1.0" encoding="utf-8" standalone="no"?>
<!DOCTYPE svg PUBLIC "-//W3C//DTD SVG 1.1//EN"
  "http://www.w3.org/Graphics/SVG/1.1/DTD/svg11.dtd">
<!-- Created with matplotlib (https://matplotlib.org/) -->
<svg height="345.6pt" version="1.1" viewBox="0 0 460.8 345.6" width="460.8pt" xmlns="http://www.w3.org/2000/svg" xmlns:xlink="http://www.w3.org/1999/xlink">
 <metadata>
  <rdf:RDF xmlns:cc="http://creativecommons.org/ns#" xmlns:dc="http://purl.org/dc/elements/1.1/" xmlns:rdf="http://www.w3.org/1999/02/22-rdf-syntax-ns#">
   <cc:Work>
    <dc:type rdf:resource="http://purl.org/dc/dcmitype/StillImage"/>
    <dc:date>2021-01-25T11:12:51.218854</dc:date>
    <dc:format>image/svg+xml</dc:format>
    <dc:creator>
     <cc:Agent>
      <dc:title>Matplotlib v3.3.3, https://matplotlib.org/</dc:title>
     </cc:Agent>
    </dc:creator>
   </cc:Work>
  </rdf:RDF>
 </metadata>
 <defs>
  <style type="text/css">*{stroke-linecap:butt;stroke-linejoin:round;}</style>
 </defs>
 <g id="figure_1">
  <g id="patch_1">
   <path d="M 0 345.6 
L 460.8 345.6 
L 460.8 0 
L 0 0 
z
" style="fill:#ffffff;"/>
  </g>
  <g id="axes_1">
   <g id="patch_2">
    <path d="M 57.6 307.584 
L 414.72 307.584 
L 414.72 41.472 
L 57.6 41.472 
z
" style="fill:#7d9051;"/>
   </g>
   <g id="matplotlib.axis_1">
    <g id="xtick_1">
     <g id="line2d_1">
      <defs>
       <path d="M 0 0 
L 0 3.5 
" id="m125a111aec" style="stroke:#000000;stroke-width:0.8;"/>
      </defs>
      <g>
       <use style="stroke:#000000;stroke-width:0.8;" x="83.297195" xlink:href="#m125a111aec" y="307.584"/>
      </g>
     </g>
     <g id="text_1">
      <!-- 0 -->
      <g transform="translate(80.115945 322.182437)scale(0.1 -0.1)">
       <defs>
        <path d="M 31.78125 66.40625 
Q 24.171875 66.40625 20.328125 58.90625 
Q 16.5 51.421875 16.5 36.375 
Q 16.5 21.390625 20.328125 13.890625 
Q 24.171875 6.390625 31.78125 6.390625 
Q 39.453125 6.390625 43.28125 13.890625 
Q 47.125 21.390625 47.125 36.375 
Q 47.125 51.421875 43.28125 58.90625 
Q 39.453125 66.40625 31.78125 66.40625 
z
M 31.78125 74.21875 
Q 44.046875 74.21875 50.515625 64.515625 
Q 56.984375 54.828125 56.984375 36.375 
Q 56.984375 17.96875 50.515625 8.265625 
Q 44.046875 -1.421875 31.78125 -1.421875 
Q 19.53125 -1.421875 13.0625 8.265625 
Q 6.59375 17.96875 6.59375 36.375 
Q 6.59375 54.828125 13.0625 64.515625 
Q 19.53125 74.21875 31.78125 74.21875 
z
" id="DejaVuSans-48"/>
       </defs>
       <use xlink:href="#DejaVuSans-48"/>
      </g>
     </g>
    </g>
    <g id="xtick_2">
     <g id="line2d_2">
      <g>
       <use style="stroke:#000000;stroke-width:0.8;" x="152.676049" xlink:href="#m125a111aec" y="307.584"/>
      </g>
     </g>
     <g id="text_2">
      <!-- 20 -->
      <g transform="translate(146.313549 322.182437)scale(0.1 -0.1)">
       <defs>
        <path d="M 19.1875 8.296875 
L 53.609375 8.296875 
L 53.609375 0 
L 7.328125 0 
L 7.328125 8.296875 
Q 12.9375 14.109375 22.625 23.890625 
Q 32.328125 33.6875 34.8125 36.53125 
Q 39.546875 41.84375 41.421875 45.53125 
Q 43.3125 49.21875 43.3125 52.78125 
Q 43.3125 58.59375 39.234375 62.25 
Q 35.15625 65.921875 28.609375 65.921875 
Q 23.96875 65.921875 18.8125 64.3125 
Q 13.671875 62.703125 7.8125 59.421875 
L 7.8125 69.390625 
Q 13.765625 71.78125 18.9375 73 
Q 24.125 74.21875 28.421875 74.21875 
Q 39.75 74.21875 46.484375 68.546875 
Q 53.21875 62.890625 53.21875 53.421875 
Q 53.21875 48.921875 51.53125 44.890625 
Q 49.859375 40.875 45.40625 35.40625 
Q 44.1875 33.984375 37.640625 27.21875 
Q 31.109375 20.453125 19.1875 8.296875 
z
" id="DejaVuSans-50"/>
       </defs>
       <use xlink:href="#DejaVuSans-50"/>
       <use x="63.623047" xlink:href="#DejaVuSans-48"/>
      </g>
     </g>
    </g>
    <g id="xtick_3">
     <g id="line2d_3">
      <g>
       <use style="stroke:#000000;stroke-width:0.8;" x="222.054903" xlink:href="#m125a111aec" y="307.584"/>
      </g>
     </g>
     <g id="text_3">
      <!-- 40 -->
      <g transform="translate(215.692403 322.182437)scale(0.1 -0.1)">
       <defs>
        <path d="M 37.796875 64.3125 
L 12.890625 25.390625 
L 37.796875 25.390625 
z
M 35.203125 72.90625 
L 47.609375 72.90625 
L 47.609375 25.390625 
L 58.015625 25.390625 
L 58.015625 17.1875 
L 47.609375 17.1875 
L 47.609375 0 
L 37.796875 0 
L 37.796875 17.1875 
L 4.890625 17.1875 
L 4.890625 26.703125 
z
" id="DejaVuSans-52"/>
       </defs>
       <use xlink:href="#DejaVuSans-52"/>
       <use x="63.623047" xlink:href="#DejaVuSans-48"/>
      </g>
     </g>
    </g>
    <g id="xtick_4">
     <g id="line2d_4">
      <g>
       <use style="stroke:#000000;stroke-width:0.8;" x="291.433757" xlink:href="#m125a111aec" y="307.584"/>
      </g>
     </g>
     <g id="text_4">
      <!-- 60 -->
      <g transform="translate(285.071257 322.182437)scale(0.1 -0.1)">
       <defs>
        <path d="M 33.015625 40.375 
Q 26.375 40.375 22.484375 35.828125 
Q 18.609375 31.296875 18.609375 23.390625 
Q 18.609375 15.53125 22.484375 10.953125 
Q 26.375 6.390625 33.015625 6.390625 
Q 39.65625 6.390625 43.53125 10.953125 
Q 47.40625 15.53125 47.40625 23.390625 
Q 47.40625 31.296875 43.53125 35.828125 
Q 39.65625 40.375 33.015625 40.375 
z
M 52.59375 71.296875 
L 52.59375 62.3125 
Q 48.875 64.0625 45.09375 64.984375 
Q 41.3125 65.921875 37.59375 65.921875 
Q 27.828125 65.921875 22.671875 59.328125 
Q 17.53125 52.734375 16.796875 39.40625 
Q 19.671875 43.65625 24.015625 45.921875 
Q 28.375 48.1875 33.59375 48.1875 
Q 44.578125 48.1875 50.953125 41.515625 
Q 57.328125 34.859375 57.328125 23.390625 
Q 57.328125 12.15625 50.6875 5.359375 
Q 44.046875 -1.421875 33.015625 -1.421875 
Q 20.359375 -1.421875 13.671875 8.265625 
Q 6.984375 17.96875 6.984375 36.375 
Q 6.984375 53.65625 15.1875 63.9375 
Q 23.390625 74.21875 37.203125 74.21875 
Q 40.921875 74.21875 44.703125 73.484375 
Q 48.484375 72.75 52.59375 71.296875 
z
" id="DejaVuSans-54"/>
       </defs>
       <use xlink:href="#DejaVuSans-54"/>
       <use x="63.623047" xlink:href="#DejaVuSans-48"/>
      </g>
     </g>
    </g>
    <g id="xtick_5">
     <g id="line2d_5">
      <g>
       <use style="stroke:#000000;stroke-width:0.8;" x="360.812611" xlink:href="#m125a111aec" y="307.584"/>
      </g>
     </g>
     <g id="text_5">
      <!-- 80 -->
      <g transform="translate(354.450111 322.182437)scale(0.1 -0.1)">
       <defs>
        <path d="M 31.78125 34.625 
Q 24.75 34.625 20.71875 30.859375 
Q 16.703125 27.09375 16.703125 20.515625 
Q 16.703125 13.921875 20.71875 10.15625 
Q 24.75 6.390625 31.78125 6.390625 
Q 38.8125 6.390625 42.859375 10.171875 
Q 46.921875 13.96875 46.921875 20.515625 
Q 46.921875 27.09375 42.890625 30.859375 
Q 38.875 34.625 31.78125 34.625 
z
M 21.921875 38.8125 
Q 15.578125 40.375 12.03125 44.71875 
Q 8.5 49.078125 8.5 55.328125 
Q 8.5 64.0625 14.71875 69.140625 
Q 20.953125 74.21875 31.78125 74.21875 
Q 42.671875 74.21875 48.875 69.140625 
Q 55.078125 64.0625 55.078125 55.328125 
Q 55.078125 49.078125 51.53125 44.71875 
Q 48 40.375 41.703125 38.8125 
Q 48.828125 37.15625 52.796875 32.3125 
Q 56.78125 27.484375 56.78125 20.515625 
Q 56.78125 9.90625 50.3125 4.234375 
Q 43.84375 -1.421875 31.78125 -1.421875 
Q 19.734375 -1.421875 13.25 4.234375 
Q 6.78125 9.90625 6.78125 20.515625 
Q 6.78125 27.484375 10.78125 32.3125 
Q 14.796875 37.15625 21.921875 38.8125 
z
M 18.3125 54.390625 
Q 18.3125 48.734375 21.84375 45.5625 
Q 25.390625 42.390625 31.78125 42.390625 
Q 38.140625 42.390625 41.71875 45.5625 
Q 45.3125 48.734375 45.3125 54.390625 
Q 45.3125 60.0625 41.71875 63.234375 
Q 38.140625 66.40625 31.78125 66.40625 
Q 25.390625 66.40625 21.84375 63.234375 
Q 18.3125 60.0625 18.3125 54.390625 
z
" id="DejaVuSans-56"/>
       </defs>
       <use xlink:href="#DejaVuSans-56"/>
       <use x="63.623047" xlink:href="#DejaVuSans-48"/>
      </g>
     </g>
    </g>
   </g>
   <g id="matplotlib.axis_2">
    <g id="ytick_1">
     <g id="line2d_6">
      <defs>
       <path d="M 0 0 
L -3.5 0 
" id="md851916d02" style="stroke:#000000;stroke-width:0.8;"/>
      </defs>
      <g>
       <use style="stroke:#000000;stroke-width:0.8;" x="57.6" xlink:href="#md851916d02" y="281.303232"/>
      </g>
     </g>
     <g id="text_6">
      <!-- 10 -->
      <g transform="translate(37.875 285.102451)scale(0.1 -0.1)">
       <defs>
        <path d="M 12.40625 8.296875 
L 28.515625 8.296875 
L 28.515625 63.921875 
L 10.984375 60.40625 
L 10.984375 69.390625 
L 28.421875 72.90625 
L 38.28125 72.90625 
L 38.28125 8.296875 
L 54.390625 8.296875 
L 54.390625 0 
L 12.40625 0 
z
" id="DejaVuSans-49"/>
       </defs>
       <use xlink:href="#DejaVuSans-49"/>
       <use x="63.623047" xlink:href="#DejaVuSans-48"/>
      </g>
     </g>
    </g>
    <g id="ytick_2">
     <g id="line2d_7">
      <g>
       <use style="stroke:#000000;stroke-width:0.8;" x="57.6" xlink:href="#md851916d02" y="246.613805"/>
      </g>
     </g>
     <g id="text_7">
      <!-- 20 -->
      <g transform="translate(37.875 250.413024)scale(0.1 -0.1)">
       <use xlink:href="#DejaVuSans-50"/>
       <use x="63.623047" xlink:href="#DejaVuSans-48"/>
      </g>
     </g>
    </g>
    <g id="ytick_3">
     <g id="line2d_8">
      <g>
       <use style="stroke:#000000;stroke-width:0.8;" x="57.6" xlink:href="#md851916d02" y="211.924378"/>
      </g>
     </g>
     <g id="text_8">
      <!-- 30 -->
      <g transform="translate(37.875 215.723597)scale(0.1 -0.1)">
       <defs>
        <path d="M 40.578125 39.3125 
Q 47.65625 37.796875 51.625 33 
Q 55.609375 28.21875 55.609375 21.1875 
Q 55.609375 10.40625 48.1875 4.484375 
Q 40.765625 -1.421875 27.09375 -1.421875 
Q 22.515625 -1.421875 17.65625 -0.515625 
Q 12.796875 0.390625 7.625 2.203125 
L 7.625 11.71875 
Q 11.71875 9.328125 16.59375 8.109375 
Q 21.484375 6.890625 26.8125 6.890625 
Q 36.078125 6.890625 40.9375 10.546875 
Q 45.796875 14.203125 45.796875 21.1875 
Q 45.796875 27.640625 41.28125 31.265625 
Q 36.765625 34.90625 28.71875 34.90625 
L 20.21875 34.90625 
L 20.21875 43.015625 
L 29.109375 43.015625 
Q 36.375 43.015625 40.234375 45.921875 
Q 44.09375 48.828125 44.09375 54.296875 
Q 44.09375 59.90625 40.109375 62.90625 
Q 36.140625 65.921875 28.71875 65.921875 
Q 24.65625 65.921875 20.015625 65.03125 
Q 15.375 64.15625 9.8125 62.3125 
L 9.8125 71.09375 
Q 15.4375 72.65625 20.34375 73.4375 
Q 25.25 74.21875 29.59375 74.21875 
Q 40.828125 74.21875 47.359375 69.109375 
Q 53.90625 64.015625 53.90625 55.328125 
Q 53.90625 49.265625 50.4375 45.09375 
Q 46.96875 40.921875 40.578125 39.3125 
z
" id="DejaVuSans-51"/>
       </defs>
       <use xlink:href="#DejaVuSans-51"/>
       <use x="63.623047" xlink:href="#DejaVuSans-48"/>
      </g>
     </g>
    </g>
    <g id="ytick_4">
     <g id="line2d_9">
      <g>
       <use style="stroke:#000000;stroke-width:0.8;" x="57.6" xlink:href="#md851916d02" y="177.234951"/>
      </g>
     </g>
     <g id="text_9">
      <!-- 40 -->
      <g transform="translate(37.875 181.03417)scale(0.1 -0.1)">
       <use xlink:href="#DejaVuSans-52"/>
       <use x="63.623047" xlink:href="#DejaVuSans-48"/>
      </g>
     </g>
    </g>
    <g id="ytick_5">
     <g id="line2d_10">
      <g>
       <use style="stroke:#000000;stroke-width:0.8;" x="57.6" xlink:href="#md851916d02" y="142.545524"/>
      </g>
     </g>
     <g id="text_10">
      <!-- 50 -->
      <g transform="translate(37.875 146.344743)scale(0.1 -0.1)">
       <defs>
        <path d="M 10.796875 72.90625 
L 49.515625 72.90625 
L 49.515625 64.59375 
L 19.828125 64.59375 
L 19.828125 46.734375 
Q 21.96875 47.46875 24.109375 47.828125 
Q 26.265625 48.1875 28.421875 48.1875 
Q 40.625 48.1875 47.75 41.5 
Q 54.890625 34.8125 54.890625 23.390625 
Q 54.890625 11.625 47.5625 5.09375 
Q 40.234375 -1.421875 26.90625 -1.421875 
Q 22.3125 -1.421875 17.546875 -0.640625 
Q 12.796875 0.140625 7.71875 1.703125 
L 7.71875 11.625 
Q 12.109375 9.234375 16.796875 8.0625 
Q 21.484375 6.890625 26.703125 6.890625 
Q 35.15625 6.890625 40.078125 11.328125 
Q 45.015625 15.765625 45.015625 23.390625 
Q 45.015625 31 40.078125 35.4375 
Q 35.15625 39.890625 26.703125 39.890625 
Q 22.75 39.890625 18.8125 39.015625 
Q 14.890625 38.140625 10.796875 36.28125 
z
" id="DejaVuSans-53"/>
       </defs>
       <use xlink:href="#DejaVuSans-53"/>
       <use x="63.623047" xlink:href="#DejaVuSans-48"/>
      </g>
     </g>
    </g>
    <g id="ytick_6">
     <g id="line2d_11">
      <g>
       <use style="stroke:#000000;stroke-width:0.8;" x="57.6" xlink:href="#md851916d02" y="107.856097"/>
      </g>
     </g>
     <g id="text_11">
      <!-- 60 -->
      <g transform="translate(37.875 111.655315)scale(0.1 -0.1)">
       <use xlink:href="#DejaVuSans-54"/>
       <use x="63.623047" xlink:href="#DejaVuSans-48"/>
      </g>
     </g>
    </g>
    <g id="ytick_7">
     <g id="line2d_12">
      <g>
       <use style="stroke:#000000;stroke-width:0.8;" x="57.6" xlink:href="#md851916d02" y="73.16667"/>
      </g>
     </g>
     <g id="text_12">
      <!-- 70 -->
      <g transform="translate(37.875 76.965888)scale(0.1 -0.1)">
       <defs>
        <path d="M 8.203125 72.90625 
L 55.078125 72.90625 
L 55.078125 68.703125 
L 28.609375 0 
L 18.3125 0 
L 43.21875 64.59375 
L 8.203125 64.59375 
z
" id="DejaVuSans-55"/>
       </defs>
       <use xlink:href="#DejaVuSans-55"/>
       <use x="63.623047" xlink:href="#DejaVuSans-48"/>
      </g>
     </g>
    </g>
   </g>
   <g id="line2d_13">
    <path clip-path="url(#p84e64c7547)" d="M 117.986622 169.742035 
L 117.528721 156.143779 
L 117.459342 149.15386 
L 117.5981 142.104968 
L 118.014373 135.052608 
L 118.787947 128.048812 
L 119.332571 124.57987 
L 119.995139 121.142147 
L 120.786058 117.742583 
L 121.712266 114.388116 
L 122.7807 111.082213 
L 124.008706 107.835283 
L 125.399752 104.650794 
L 126.964245 101.539152 
L 128.712592 98.503827 
L 130.630918 95.558695 
L 132.719221 92.714162 
L 134.963627 89.984104 
L 137.353729 87.382397 
L 139.882588 84.922917 
L 142.543267 82.61607 
L 145.328828 80.472263 
L 148.221926 78.508841 
L 151.219093 76.739681 
L 154.31339 75.164781 
L 157.490941 73.784142 
L 160.744809 72.580418 
L 164.061119 71.539736 
L 167.4364 70.648217 
L 170.856777 69.898926 
L 174.311844 69.271047 
L 181.287888 68.334433 
L 188.291683 67.737774 
L 195.278134 67.453321 
L 202.233364 67.526169 
L 209.153905 68.001414 
L 212.598565 68.40728 
L 216.02588 68.931091 
L 219.442789 69.579783 
L 222.845822 70.356826 
L 226.221103 71.269158 
L 229.565164 72.309841 
L 232.867597 73.478875 
L 236.121465 74.779728 
L 239.31983 76.208932 
L 242.448817 77.766488 
L 245.501486 79.452394 
L 248.467432 81.263182 
L 251.346655 83.20579 
L 254.121809 85.269811 
L 256.813708 87.444838 
L 261.975495 92.06547 
L 266.936083 96.939334 
L 281.592366 111.821098 
L 289.133848 118.994872 
L 309.361253 137.980395 
L 316.722349 145.341492 
L 321.492145 150.385334 
L 326.116246 155.564466 
L 330.56343 160.8997 
L 334.799009 166.408381 
L 338.770949 172.107853 
L 342.44109 178.018932 
L 345.760868 184.155491 
L 347.273327 187.315698 
L 348.681718 190.527939 
L 349.968696 193.792214 
L 351.130792 197.105055 
L 352.15413 200.456053 
L 353.031772 203.841741 
L 353.749843 207.25865 
L 354.297936 210.696372 
L 354.672582 214.158377 
L 354.859905 217.630789 
L 354.849498 221.110138 
L 354.6483 224.592957 
L 354.25284 228.061899 
L 353.673527 231.513497 
L 352.903421 234.933875 
L 351.9564 238.316094 
L 350.825525 241.649748 
L 349.521202 244.927899 
L 348.043433 248.136671 
L 346.395685 251.272595 
L 344.577959 254.318327 
L 342.600662 257.266928 
L 340.467262 260.101054 
L 338.188166 262.806829 
L 335.763375 265.377316 
L 333.203296 267.7917 
L 330.511396 270.039575 
L 327.694615 272.107065 
L 324.759889 273.980294 
L 321.710689 275.645386 
L 318.560889 277.095404 
L 315.313958 278.330348 
L 311.987242 279.357155 
L 308.591147 280.182763 
L 305.139549 280.814111 
L 301.646324 281.261605 
L 298.121878 281.525244 
L 294.576619 281.615437 
L 291.02789 281.53912 
L 287.4861 281.303232 
L 283.961654 280.911241 
L 280.468429 280.363148 
L 277.009893 279.658953 
L 273.599922 278.791717 
L 270.248924 277.76491 
L 266.960366 276.571594 
L 263.748125 275.211768 
L 260.619139 273.681965 
L 257.583814 271.982183 
L 254.652557 270.105485 
L 251.832307 268.058809 
L 249.13 265.845623 
L 246.552576 263.476335 
L 244.100033 260.96829 
L 241.786249 258.321486 
L 239.607753 255.556739 
L 237.574952 252.680986 
L 235.694785 249.704633 
L 233.967252 246.638087 
L 232.402759 243.491756 
L 231.004775 240.279515 
L 229.769831 237.004834 
L 228.697928 233.678118 
L 227.789065 230.302836 
L 227.036304 226.889397 
L 226.443115 223.441268 
L 226.009497 219.972325 
L 225.725044 216.482569 
L 225.596693 212.978936 
L 225.617507 209.475304 
L 225.787485 205.971672 
L 226.106628 202.478447 
L 226.567997 199.002566 
L 227.175062 195.550968 
L 227.924354 192.130591 
L 228.812403 188.748372 
L 229.83921 185.411249 
L 231.001306 182.129629 
L 232.29869 178.903512 
L 233.731364 175.746774 
L 233.731364 175.746774 
" style="fill:none;stroke:#fea952;stroke-linecap:square;"/>
   </g>
   <g id="line2d_14">
    <path clip-path="url(#p84e64c7547)" d="M 104.121102 170.275324 
L 103.654708 156.364659 
L 103.584386 149.003491 
L 103.737758 141.450793 
L 104.201906 133.728685 
L 104.582451 129.819277 
L 105.080091 125.896679 
L 105.707555 121.953857 
L 106.48031 117.997881 
L 107.410774 114.049511 
L 108.508928 110.12093 
L 109.802139 106.173655 
L 111.29314 102.28088 
L 113.002737 98.417735 
L 114.940451 94.613447 
L 117.085743 90.930626 
L 119.445765 87.347156 
L 122.000628 83.902307 
L 124.745231 80.596804 
L 127.679475 77.435245 
L 130.79284 74.438952 
L 134.080413 71.619837 
L 137.53689 68.990856 
L 141.168507 66.55952 
L 144.925092 64.373494 
L 148.783806 62.438402 
L 152.676658 60.770315 
L 156.590246 59.341211 
L 160.517613 58.124051 
L 164.467091 57.093874 
L 168.37581 56.246753 
L 172.272913 55.545896 
L 179.961368 54.522215 
L 187.56311 53.881144 
L 195.222852 53.57766 
L 199.107392 53.568 
L 206.864944 53.883338 
L 210.777583 54.220968 
L 214.694912 54.690781 
L 218.613937 55.298814 
L 222.531659 56.052185 
L 226.466482 56.961759 
L 230.344244 58.020131 
L 234.195515 59.229441 
L 238.018561 60.594598 
L 241.782435 62.111246 
L 245.50322 63.787068 
L 249.156995 65.619992 
L 252.731964 67.60937 
L 256.228169 69.760661 
L 259.627515 72.071861 
L 262.842413 74.476846 
L 265.920415 76.975601 
L 271.619463 82.088952 
L 276.857659 87.238852 
L 291.222237 101.830973 
L 298.592133 108.842145 
L 319.082352 128.079019 
L 326.74655 135.747097 
L 331.770674 141.063915 
L 336.692502 146.582271 
L 341.469874 152.321442 
L 346.079879 158.328839 
L 350.452832 164.619822 
L 352.539917 167.886451 
L 354.539296 171.224049 
L 356.455015 174.649159 
L 358.277048 178.165311 
L 359.981303 181.743951 
L 361.590434 185.438531 
L 363.062249 189.199188 
L 364.401547 193.052391 
L 365.585957 196.974237 
L 366.610928 200.988051 
L 367.452549 205.07396 
L 368.093166 209.203502 
L 368.528206 213.410921 
L 368.735614 217.672291 
L 368.702173 221.910392 
L 368.434775 226.164615 
L 367.937205 230.358672 
L 367.210423 234.561358 
L 366.265289 238.675198 
L 365.096682 242.773671 
L 363.718242 246.779549 
L 362.12462 250.732283 
L 360.326773 254.59086 
L 358.310791 258.383661 
L 356.102397 262.046479 
L 353.686606 265.611917 
L 351.079936 269.040191 
L 348.281699 272.328259 
L 345.283574 275.472009 
L 342.097143 278.442357 
L 338.7218 281.225561 
L 335.160271 283.80326 
L 331.410155 286.158593 
L 327.513117 288.249705 
L 323.493683 290.064774 
L 319.406283 291.588926 
L 315.265045 292.840219 
L 311.087805 293.832075 
L 306.902673 294.57741 
L 302.681384 295.098717 
L 298.474768 295.396527 
L 294.278284 295.488 
L 290.105788 295.384218 
L 285.952288 295.093969 
L 281.810836 294.619305 
L 277.699975 293.959938 
L 273.589831 293.106637 
L 269.534698 292.05863 
L 265.515814 290.808479 
L 261.55111 289.349582 
L 257.653498 287.677423 
L 253.83939 285.788658 
L 250.102066 283.668092 
L 246.502724 281.335678 
L 243.040392 278.793764 
L 239.73949 276.061069 
L 236.631765 273.177599 
L 233.653212 270.100701 
L 230.887349 266.909327 
L 228.276999 263.566174 
L 225.843792 260.091579 
L 223.605388 256.515176 
L 221.542717 252.816109 
L 219.679672 249.02891 
L 218.021551 245.175731 
L 216.562713 241.260307 
L 215.299398 237.285944 
L 214.238874 233.291039 
L 213.361413 229.241918 
L 212.674495 225.162345 
L 212.179594 221.099613 
L 211.858575 216.990548 
L 211.721167 212.896508 
L 211.758037 208.802914 
L 211.969263 204.709233 
L 212.3515 200.652666 
L 212.901986 196.598996 
L 213.620719 192.58166 
L 214.50349 188.606754 
L 215.550233 184.667704 
L 216.759349 180.779374 
L 218.127545 176.952439 
L 219.663327 173.169001 
L 221.096001 170.012263 
L 221.096001 170.012263 
" style="fill:none;stroke:#ffffff;stroke-linecap:square;"/>
   </g>
   <g id="line2d_15">
    <path clip-path="url(#p84e64c7547)" d="M 131.852141 169.208745 
L 131.402734 155.922899 
L 131.334298 149.304229 
L 131.458442 142.759143 
L 131.82684 136.37653 
L 132.495804 130.200946 
L 133.509968 124.286414 
L 134.161343 121.435656 
L 134.915604 118.655302 
L 135.759262 115.990772 
L 136.724272 113.389686 
L 137.796767 110.883853 
L 138.988039 108.464857 
L 140.339442 106.077029 
L 141.81607 103.770234 
L 143.437814 101.526016 
L 145.182023 99.371404 
L 147.027982 97.329549 
L 148.972335 95.406881 
L 151.006121 93.612302 
L 153.120766 91.95367 
L 155.275345 90.458163 
L 157.513093 89.105867 
L 159.842973 87.89116 
L 162.305225 86.797968 
L 164.899372 85.819626 
L 167.604624 84.95542 
L 170.405708 84.202561 
L 173.337744 83.551098 
L 179.444964 82.531041 
L 185.820083 81.835542 
L 192.188209 81.423929 
L 198.414513 81.310891 
L 204.532732 81.536708 
L 210.502217 82.123779 
L 216.353918 83.107381 
L 219.225161 83.751894 
L 222.097962 84.518185 
L 224.934812 85.390241 
L 227.716633 86.363151 
L 230.460495 87.44821 
L 233.136441 88.630797 
L 235.740638 89.912983 
L 238.271009 91.295418 
L 240.706696 92.765703 
L 243.065795 94.339719 
L 245.401205 96.062775 
L 247.707002 97.914074 
L 252.331528 102.041987 
L 257.014508 106.639816 
L 271.962495 121.811223 
L 279.675562 129.147598 
L 299.640154 147.881771 
L 306.698148 154.935886 
L 311.213616 159.706753 
L 315.539989 164.54666 
L 319.656987 169.477957 
L 323.51814 174.487922 
L 327.089066 179.595885 
L 330.342884 184.813815 
L 333.244689 190.145672 
L 335.773003 195.617348 
L 337.860037 201.157718 
L 338.722303 203.937869 
L 339.452617 206.695432 
L 340.047138 209.44334 
L 340.502707 212.189243 
L 340.816958 214.905833 
L 340.984196 217.589286 
L 340.996823 220.309884 
L 340.861824 223.021298 
L 340.568475 225.765126 
L 340.13663 228.465636 
L 339.541553 231.192552 
L 338.816118 233.858516 
L 337.932807 236.519947 
L 336.917785 239.123514 
L 335.760092 241.682482 
L 334.480578 244.161529 
L 333.053521 246.590174 
L 331.514717 248.921939 
L 329.854588 251.161917 
L 328.094634 253.2854 
L 326.243177 255.282623 
L 324.309448 257.141043 
L 322.300993 258.853589 
L 320.228958 260.410869 
L 318.109623 261.801994 
L 315.90826 263.041068 
L 313.628094 264.126035 
L 311.221634 265.07177 
L 308.709439 265.874091 
L 306.094489 266.533452 
L 303.376426 267.050812 
L 300.611264 267.424493 
L 297.768988 267.653961 
L 294.874953 267.742873 
L 291.949993 267.694022 
L 289.019912 267.512495 
L 286.112472 267.203178 
L 283.236882 266.766359 
L 280.429955 266.21127 
L 277.665146 265.524805 
L 274.982033 264.721341 
L 272.369622 263.793607 
L 269.842752 262.746114 
L 267.398887 261.575271 
L 265.065561 260.296274 
L 262.80239 258.875292 
L 260.624221 257.323854 
L 258.520511 255.630178 
L 256.473387 253.775072 
L 254.546855 251.835878 
L 252.685148 249.733646 
L 250.938506 247.547304 
L 249.306113 245.270392 
L 247.784182 242.89409 
L 246.391787 240.460066 
L 245.125846 237.954603 
L 243.987998 235.3833 
L 242.976949 232.74936 
L 242.096458 230.070291 
L 241.339255 227.314634 
L 240.711196 224.536875 
L 240.211736 221.72019 
L 239.839401 218.845037 
L 239.591513 215.974589 
L 239.472219 213.061365 
L 239.476977 210.147694 
L 239.605707 207.234112 
L 239.861756 204.304227 
L 240.234008 201.406136 
L 240.729405 198.520277 
L 241.345218 195.654428 
L 242.074573 192.829039 
L 242.919071 190.043123 
L 243.875067 187.306819 
L 244.934053 184.638023 
L 246.366727 181.481285 
L 246.366727 181.481285 
" style="fill:none;stroke:#ffffff;stroke-linecap:square;"/>
   </g>
   <g id="patch_3">
    <path d="M 57.6 307.584 
L 57.6 41.472 
" style="fill:none;stroke:#000000;stroke-linecap:square;stroke-linejoin:miter;stroke-width:0.8;"/>
   </g>
   <g id="patch_4">
    <path d="M 414.72 307.584 
L 414.72 41.472 
" style="fill:none;stroke:#000000;stroke-linecap:square;stroke-linejoin:miter;stroke-width:0.8;"/>
   </g>
   <g id="patch_5">
    <path d="M 57.6 307.584 
L 414.72 307.584 
" style="fill:none;stroke:#000000;stroke-linecap:square;stroke-linejoin:miter;stroke-width:0.8;"/>
   </g>
   <g id="patch_6">
    <path d="M 57.6 41.472 
L 414.72 41.472 
" style="fill:none;stroke:#000000;stroke-linecap:square;stroke-linejoin:miter;stroke-width:0.8;"/>
   </g>
  </g>
 </g>
 <defs>
  <clipPath id="p84e64c7547">
   <rect height="266.112" width="357.12" x="57.6" y="41.472"/>
  </clipPath>
 </defs>
</svg>
