<?xml version="1.0" encoding="utf-8" standalone="no"?>
<!DOCTYPE svg PUBLIC "-//W3C//DTD SVG 1.1//EN"
  "http://www.w3.org/Graphics/SVG/1.1/DTD/svg11.dtd">
<!-- Created with matplotlib (https://matplotlib.org/) -->
<svg height="345.6pt" version="1.1" viewBox="0 0 460.8 345.6" width="460.8pt" xmlns="http://www.w3.org/2000/svg" xmlns:xlink="http://www.w3.org/1999/xlink">
 <metadata>
  <rdf:RDF xmlns:cc="http://creativecommons.org/ns#" xmlns:dc="http://purl.org/dc/elements/1.1/" xmlns:rdf="http://www.w3.org/1999/02/22-rdf-syntax-ns#">
   <cc:Work>
    <dc:type rdf:resource="http://purl.org/dc/dcmitype/StillImage"/>
    <dc:date>2021-01-23T14:03:00.355371</dc:date>
    <dc:format>image/svg+xml</dc:format>
    <dc:creator>
     <cc:Agent>
      <dc:title>Matplotlib v3.3.3, https://matplotlib.org/</dc:title>
     </cc:Agent>
    </dc:creator>
   </cc:Work>
  </rdf:RDF>
 </metadata>
 <defs>
  <style type="text/css">*{stroke-linecap:butt;stroke-linejoin:round;}</style>
 </defs>
 <g id="figure_1">
  <g id="patch_1">
   <path d="M 0 345.6 
L 460.8 345.6 
L 460.8 0 
L 0 0 
z
" style="fill:#ffffff;"/>
  </g>
  <g id="axes_1">
   <g id="patch_2">
    <path d="M 57.6 307.584 
L 414.72 307.584 
L 414.72 41.472 
L 57.6 41.472 
z
" style="fill:#7d9051;"/>
   </g>
   <g id="matplotlib.axis_1">
    <g id="xtick_1">
     <g id="line2d_1">
      <defs>
       <path d="M 0 0 
L 0 3.5 
" id="me2bebd373b" style="stroke:#000000;stroke-width:0.8;"/>
      </defs>
      <g>
       <use style="stroke:#000000;stroke-width:0.8;" x="58.290497" xlink:href="#me2bebd373b" y="307.584"/>
      </g>
     </g>
     <g id="text_1">
      <!-- 0 -->
      <g transform="translate(55.109247 322.182437)scale(0.1 -0.1)">
       <defs>
        <path d="M 31.78125 66.40625 
Q 24.171875 66.40625 20.328125 58.90625 
Q 16.5 51.421875 16.5 36.375 
Q 16.5 21.390625 20.328125 13.890625 
Q 24.171875 6.390625 31.78125 6.390625 
Q 39.453125 6.390625 43.28125 13.890625 
Q 47.125 21.390625 47.125 36.375 
Q 47.125 51.421875 43.28125 58.90625 
Q 39.453125 66.40625 31.78125 66.40625 
z
M 31.78125 74.21875 
Q 44.046875 74.21875 50.515625 64.515625 
Q 56.984375 54.828125 56.984375 36.375 
Q 56.984375 17.96875 50.515625 8.265625 
Q 44.046875 -1.421875 31.78125 -1.421875 
Q 19.53125 -1.421875 13.0625 8.265625 
Q 6.59375 17.96875 6.59375 36.375 
Q 6.59375 54.828125 13.0625 64.515625 
Q 19.53125 74.21875 31.78125 74.21875 
z
" id="DejaVuSans-48"/>
       </defs>
       <use xlink:href="#DejaVuSans-48"/>
      </g>
     </g>
    </g>
    <g id="xtick_2">
     <g id="line2d_2">
      <g>
       <use style="stroke:#000000;stroke-width:0.8;" x="112.629686" xlink:href="#me2bebd373b" y="307.584"/>
      </g>
     </g>
     <g id="text_2">
      <!-- 20 -->
      <g transform="translate(106.267186 322.182437)scale(0.1 -0.1)">
       <defs>
        <path d="M 19.1875 8.296875 
L 53.609375 8.296875 
L 53.609375 0 
L 7.328125 0 
L 7.328125 8.296875 
Q 12.9375 14.109375 22.625 23.890625 
Q 32.328125 33.6875 34.8125 36.53125 
Q 39.546875 41.84375 41.421875 45.53125 
Q 43.3125 49.21875 43.3125 52.78125 
Q 43.3125 58.59375 39.234375 62.25 
Q 35.15625 65.921875 28.609375 65.921875 
Q 23.96875 65.921875 18.8125 64.3125 
Q 13.671875 62.703125 7.8125 59.421875 
L 7.8125 69.390625 
Q 13.765625 71.78125 18.9375 73 
Q 24.125 74.21875 28.421875 74.21875 
Q 39.75 74.21875 46.484375 68.546875 
Q 53.21875 62.890625 53.21875 53.421875 
Q 53.21875 48.921875 51.53125 44.890625 
Q 49.859375 40.875 45.40625 35.40625 
Q 44.1875 33.984375 37.640625 27.21875 
Q 31.109375 20.453125 19.1875 8.296875 
z
" id="DejaVuSans-50"/>
       </defs>
       <use xlink:href="#DejaVuSans-50"/>
       <use x="63.623047" xlink:href="#DejaVuSans-48"/>
      </g>
     </g>
    </g>
    <g id="xtick_3">
     <g id="line2d_3">
      <g>
       <use style="stroke:#000000;stroke-width:0.8;" x="166.968874" xlink:href="#me2bebd373b" y="307.584"/>
      </g>
     </g>
     <g id="text_3">
      <!-- 40 -->
      <g transform="translate(160.606374 322.182437)scale(0.1 -0.1)">
       <defs>
        <path d="M 37.796875 64.3125 
L 12.890625 25.390625 
L 37.796875 25.390625 
z
M 35.203125 72.90625 
L 47.609375 72.90625 
L 47.609375 25.390625 
L 58.015625 25.390625 
L 58.015625 17.1875 
L 47.609375 17.1875 
L 47.609375 0 
L 37.796875 0 
L 37.796875 17.1875 
L 4.890625 17.1875 
L 4.890625 26.703125 
z
" id="DejaVuSans-52"/>
       </defs>
       <use xlink:href="#DejaVuSans-52"/>
       <use x="63.623047" xlink:href="#DejaVuSans-48"/>
      </g>
     </g>
    </g>
    <g id="xtick_4">
     <g id="line2d_4">
      <g>
       <use style="stroke:#000000;stroke-width:0.8;" x="221.308063" xlink:href="#me2bebd373b" y="307.584"/>
      </g>
     </g>
     <g id="text_4">
      <!-- 60 -->
      <g transform="translate(214.945563 322.182437)scale(0.1 -0.1)">
       <defs>
        <path d="M 33.015625 40.375 
Q 26.375 40.375 22.484375 35.828125 
Q 18.609375 31.296875 18.609375 23.390625 
Q 18.609375 15.53125 22.484375 10.953125 
Q 26.375 6.390625 33.015625 6.390625 
Q 39.65625 6.390625 43.53125 10.953125 
Q 47.40625 15.53125 47.40625 23.390625 
Q 47.40625 31.296875 43.53125 35.828125 
Q 39.65625 40.375 33.015625 40.375 
z
M 52.59375 71.296875 
L 52.59375 62.3125 
Q 48.875 64.0625 45.09375 64.984375 
Q 41.3125 65.921875 37.59375 65.921875 
Q 27.828125 65.921875 22.671875 59.328125 
Q 17.53125 52.734375 16.796875 39.40625 
Q 19.671875 43.65625 24.015625 45.921875 
Q 28.375 48.1875 33.59375 48.1875 
Q 44.578125 48.1875 50.953125 41.515625 
Q 57.328125 34.859375 57.328125 23.390625 
Q 57.328125 12.15625 50.6875 5.359375 
Q 44.046875 -1.421875 33.015625 -1.421875 
Q 20.359375 -1.421875 13.671875 8.265625 
Q 6.984375 17.96875 6.984375 36.375 
Q 6.984375 53.65625 15.1875 63.9375 
Q 23.390625 74.21875 37.203125 74.21875 
Q 40.921875 74.21875 44.703125 73.484375 
Q 48.484375 72.75 52.59375 71.296875 
z
" id="DejaVuSans-54"/>
       </defs>
       <use xlink:href="#DejaVuSans-54"/>
       <use x="63.623047" xlink:href="#DejaVuSans-48"/>
      </g>
     </g>
    </g>
    <g id="xtick_5">
     <g id="line2d_5">
      <g>
       <use style="stroke:#000000;stroke-width:0.8;" x="275.647252" xlink:href="#me2bebd373b" y="307.584"/>
      </g>
     </g>
     <g id="text_5">
      <!-- 80 -->
      <g transform="translate(269.284752 322.182437)scale(0.1 -0.1)">
       <defs>
        <path d="M 31.78125 34.625 
Q 24.75 34.625 20.71875 30.859375 
Q 16.703125 27.09375 16.703125 20.515625 
Q 16.703125 13.921875 20.71875 10.15625 
Q 24.75 6.390625 31.78125 6.390625 
Q 38.8125 6.390625 42.859375 10.171875 
Q 46.921875 13.96875 46.921875 20.515625 
Q 46.921875 27.09375 42.890625 30.859375 
Q 38.875 34.625 31.78125 34.625 
z
M 21.921875 38.8125 
Q 15.578125 40.375 12.03125 44.71875 
Q 8.5 49.078125 8.5 55.328125 
Q 8.5 64.0625 14.71875 69.140625 
Q 20.953125 74.21875 31.78125 74.21875 
Q 42.671875 74.21875 48.875 69.140625 
Q 55.078125 64.0625 55.078125 55.328125 
Q 55.078125 49.078125 51.53125 44.71875 
Q 48 40.375 41.703125 38.8125 
Q 48.828125 37.15625 52.796875 32.3125 
Q 56.78125 27.484375 56.78125 20.515625 
Q 56.78125 9.90625 50.3125 4.234375 
Q 43.84375 -1.421875 31.78125 -1.421875 
Q 19.734375 -1.421875 13.25 4.234375 
Q 6.78125 9.90625 6.78125 20.515625 
Q 6.78125 27.484375 10.78125 32.3125 
Q 14.796875 37.15625 21.921875 38.8125 
z
M 18.3125 54.390625 
Q 18.3125 48.734375 21.84375 45.5625 
Q 25.390625 42.390625 31.78125 42.390625 
Q 38.140625 42.390625 41.71875 45.5625 
Q 45.3125 48.734375 45.3125 54.390625 
Q 45.3125 60.0625 41.71875 63.234375 
Q 38.140625 66.40625 31.78125 66.40625 
Q 25.390625 66.40625 21.84375 63.234375 
Q 18.3125 60.0625 18.3125 54.390625 
z
" id="DejaVuSans-56"/>
       </defs>
       <use xlink:href="#DejaVuSans-56"/>
       <use x="63.623047" xlink:href="#DejaVuSans-48"/>
      </g>
     </g>
    </g>
    <g id="xtick_6">
     <g id="line2d_6">
      <g>
       <use style="stroke:#000000;stroke-width:0.8;" x="329.986441" xlink:href="#me2bebd373b" y="307.584"/>
      </g>
     </g>
     <g id="text_6">
      <!-- 100 -->
      <g transform="translate(320.442691 322.182437)scale(0.1 -0.1)">
       <defs>
        <path d="M 12.40625 8.296875 
L 28.515625 8.296875 
L 28.515625 63.921875 
L 10.984375 60.40625 
L 10.984375 69.390625 
L 28.421875 72.90625 
L 38.28125 72.90625 
L 38.28125 8.296875 
L 54.390625 8.296875 
L 54.390625 0 
L 12.40625 0 
z
" id="DejaVuSans-49"/>
       </defs>
       <use xlink:href="#DejaVuSans-49"/>
       <use x="63.623047" xlink:href="#DejaVuSans-48"/>
       <use x="127.246094" xlink:href="#DejaVuSans-48"/>
      </g>
     </g>
    </g>
    <g id="xtick_7">
     <g id="line2d_7">
      <g>
       <use style="stroke:#000000;stroke-width:0.8;" x="384.32563" xlink:href="#me2bebd373b" y="307.584"/>
      </g>
     </g>
     <g id="text_7">
      <!-- 120 -->
      <g transform="translate(374.78188 322.182437)scale(0.1 -0.1)">
       <use xlink:href="#DejaVuSans-49"/>
       <use x="63.623047" xlink:href="#DejaVuSans-50"/>
       <use x="127.246094" xlink:href="#DejaVuSans-48"/>
      </g>
     </g>
    </g>
   </g>
   <g id="matplotlib.axis_2">
    <g id="ytick_1">
     <g id="line2d_8">
      <defs>
       <path d="M 0 0 
L -3.5 0 
" id="m792fc637cf" style="stroke:#000000;stroke-width:0.8;"/>
      </defs>
      <g>
       <use style="stroke:#000000;stroke-width:0.8;" x="57.6" xlink:href="#m792fc637cf" y="267.327645"/>
      </g>
     </g>
     <g id="text_8">
      <!-- 20 -->
      <g transform="translate(37.875 271.126863)scale(0.1 -0.1)">
       <use xlink:href="#DejaVuSans-50"/>
       <use x="63.623047" xlink:href="#DejaVuSans-48"/>
      </g>
     </g>
    </g>
    <g id="ytick_2">
     <g id="line2d_9">
      <g>
       <use style="stroke:#000000;stroke-width:0.8;" x="57.6" xlink:href="#m792fc637cf" y="213.258731"/>
      </g>
     </g>
     <g id="text_9">
      <!-- 40 -->
      <g transform="translate(37.875 217.05795)scale(0.1 -0.1)">
       <use xlink:href="#DejaVuSans-52"/>
       <use x="63.623047" xlink:href="#DejaVuSans-48"/>
      </g>
     </g>
    </g>
    <g id="ytick_3">
     <g id="line2d_10">
      <g>
       <use style="stroke:#000000;stroke-width:0.8;" x="57.6" xlink:href="#m792fc637cf" y="159.189817"/>
      </g>
     </g>
     <g id="text_10">
      <!-- 60 -->
      <g transform="translate(37.875 162.989036)scale(0.1 -0.1)">
       <use xlink:href="#DejaVuSans-54"/>
       <use x="63.623047" xlink:href="#DejaVuSans-48"/>
      </g>
     </g>
    </g>
    <g id="ytick_4">
     <g id="line2d_11">
      <g>
       <use style="stroke:#000000;stroke-width:0.8;" x="57.6" xlink:href="#m792fc637cf" y="105.120903"/>
      </g>
     </g>
     <g id="text_11">
      <!-- 80 -->
      <g transform="translate(37.875 108.920122)scale(0.1 -0.1)">
       <use xlink:href="#DejaVuSans-56"/>
       <use x="63.623047" xlink:href="#DejaVuSans-48"/>
      </g>
     </g>
    </g>
    <g id="ytick_5">
     <g id="line2d_12">
      <g>
       <use style="stroke:#000000;stroke-width:0.8;" x="57.6" xlink:href="#m792fc637cf" y="51.05199"/>
      </g>
     </g>
     <g id="text_12">
      <!-- 100 -->
      <g transform="translate(31.5125 54.851208)scale(0.1 -0.1)">
       <use xlink:href="#DejaVuSans-49"/>
       <use x="63.623047" xlink:href="#DejaVuSans-48"/>
       <use x="127.246094" xlink:href="#DejaVuSans-48"/>
      </g>
     </g>
    </g>
   </g>
   <g id="line2d_13">
    <path clip-path="url(#p35ac0d6416)" d="M 85.460091 294.362102 
L 84.957454 288.941693 
L 84.721078 283.523988 
L 84.740097 278.11169 
L 84.998208 272.710205 
L 85.481827 267.327645 
L 86.180086 261.964008 
L 87.076682 256.627407 
L 88.160749 251.323246 
L 89.415984 246.051527 
L 90.828803 240.823063 
L 92.393772 235.637854 
L 94.105456 230.501308 
L 95.96929 225.41883 
L 97.987991 220.395828 
L 100.16971 215.435005 
L 102.511729 210.544472 
L 105.027633 205.735042 
L 107.72014 201.028343 
L 110.600117 196.437892 
L 113.672998 191.977207 
L 116.944217 187.659804 
L 120.383888 183.47487 
L 123.970274 179.403481 
L 129.553626 173.474824 
L 135.302712 167.708375 
L 141.184929 162.090614 
L 147.200278 156.621544 
L 153.356908 151.303866 
L 167.868188 139.062664 
L 171.87842 135.418419 
L 177.700864 129.749294 
L 183.50429 124.055837 
L 187.500937 120.387261 
L 191.698639 116.926851 
L 196.15717 113.753006 
L 200.86566 110.933312 
L 203.30549 109.676209 
L 205.794225 108.527245 
L 208.329148 107.499936 
L 210.907543 106.596985 
L 213.526691 105.829206 
L 216.178444 105.202007 
L 218.860083 104.720794 
L 221.568891 104.385566 
L 224.291285 104.190918 
L 227.02998 104.126035 
L 229.771392 104.193622 
L 232.510087 104.380159 
L 235.243348 104.688352 
L 237.960308 105.107386 
L 243.326303 106.267164 
L 248.570034 107.813535 
L 253.680635 109.705947 
L 258.663539 111.898442 
L 263.524179 114.342357 
L 268.262556 116.999844 
L 272.892255 119.822241 
L 279.690088 124.269409 
L 295.51366 134.87773 
L 300.178679 137.716348 
L 304.965961 140.308953 
L 309.910828 142.555516 
L 312.453902 143.520646 
L 315.045881 144.361418 
L 317.692199 145.06972 
L 320.381989 145.637444 
L 323.104383 146.064588 
L 325.851229 146.34845 
L 328.608943 146.483623 
L 331.369373 146.467402 
L 334.121653 146.299788 
L 336.852197 145.972671 
L 339.552855 145.486051 
L 342.212758 144.834521 
L 344.818323 144.01808 
L 347.372264 143.04484 
L 349.863716 141.92291 
L 352.292678 140.6604 
L 354.653716 139.265423 
L 356.944113 137.746086 
L 359.161151 136.115908 
L 361.299399 134.377593 
L 363.356137 132.544657 
L 365.325932 130.622507 
L 367.206068 128.621957 
L 368.993828 126.545711 
L 370.691927 124.401878 
L 372.29765 122.19046 
L 375.223816 117.591898 
L 377.764173 112.787875 
L 379.910571 107.813535 
L 381.66301 102.706726 
L 383.062244 97.486373 
L 384.159895 92.179509 
L 385.00487 86.807762 
L 385.651506 81.390057 
L 386.355198 73.231058 
L 387.653905 54.428593 
L 387.653905 54.428593 
" style="fill:none;stroke:#fea952;stroke-linecap:square;"/>
   </g>
   <g id="line2d_14">
    <path clip-path="url(#p35ac0d6416)" d="M 74.65132 295.488 
L 74.106549 289.545114 
L 73.853587 283.610323 
L 73.879295 277.722645 
L 74.164396 271.855171 
L 74.691197 266.04094 
L 75.445238 260.277463 
L 76.408758 254.562805 
L 77.565405 248.91689 
L 78.900653 243.319694 
L 80.396894 237.791061 
L 82.052599 232.312315 
L 83.868059 226.871767 
L 85.846133 221.484815 
L 87.996069 216.142585 
L 90.318412 210.868515 
L 92.826155 205.639531 
L 95.531532 200.476071 
L 98.444399 195.393426 
L 101.569236 190.422049 
L 104.922962 185.563588 
L 108.468473 180.89131 
L 112.155442 176.410704 
L 115.95135 172.104657 
L 121.777269 165.920605 
L 127.71643 159.965164 
L 133.782396 154.173282 
L 140.008444 148.514222 
L 146.363236 143.026681 
L 160.602196 131.021077 
L 164.358669 127.611221 
L 170.02702 122.091987 
L 176.051114 116.185685 
L 180.436289 112.169969 
L 185.205581 108.255262 
L 187.742021 106.384933 
L 190.366357 104.602206 
L 193.067804 102.920042 
L 195.868342 101.330577 
L 198.731451 99.866843 
L 201.694852 98.512267 
L 204.721155 97.299472 
L 207.836321 96.223987 
L 211.013383 95.308567 
L 214.249605 94.559902 
L 217.51875 93.98969 
L 220.789977 93.599593 
L 224.0326 93.380199 
L 227.29917 93.31557 
L 230.513585 93.405085 
L 233.733799 93.635147 
L 236.907985 94.002175 
L 240.064816 94.498292 
L 243.167213 95.115595 
L 246.22778 95.845895 
L 252.19783 97.620028 
L 257.928964 99.752622 
L 263.445553 102.18777 
L 268.762427 104.867604 
L 273.865208 107.733794 
L 278.766367 110.724159 
L 285.791064 115.320368 
L 301.288148 125.716723 
L 305.526277 128.302271 
L 309.677988 130.564465 
L 313.783787 132.451708 
L 317.868912 133.918838 
L 319.947322 134.491309 
L 322.074765 134.955644 
L 324.227051 135.308659 
L 326.385942 135.547764 
L 328.544764 135.670028 
L 330.705457 135.673816 
L 332.822569 135.56354 
L 334.915674 135.331948 
L 336.955079 134.985745 
L 338.94839 134.520087 
L 340.93147 133.919556 
L 342.891397 133.192989 
L 344.831837 132.33806 
L 346.743977 131.362265 
L 348.625324 130.267811 
L 352.285051 127.741763 
L 355.746697 124.823976 
L 358.953074 121.586202 
L 361.882733 118.068946 
L 364.510214 114.321194 
L 366.827558 110.363869 
L 368.819128 106.245802 
L 370.486712 101.969392 
L 371.859951 97.480899 
L 372.973254 92.804647 
L 373.856441 87.942521 
L 374.548032 82.912135 
L 375.311692 75.139608 
L 376.223275 61.689843 
L 376.820537 53.568 
L 376.820537 53.568 
" style="fill:none;stroke:#ffffff;stroke-linecap:square;"/>
   </g>
   <g id="line2d_15">
    <path clip-path="url(#p35ac0d6416)" d="M 96.268863 293.236203 
L 95.808358 288.338272 
L 95.58857 283.437653 
L 95.600899 278.500734 
L 95.83202 273.565239 
L 96.272457 268.61435 
L 96.914933 263.650554 
L 97.744606 258.692008 
L 98.756093 253.729602 
L 99.931315 248.78336 
L 101.976933 241.410883 
L 104.342853 234.130848 
L 106.092448 229.352844 
L 107.979914 224.64907 
L 110.021008 220.001494 
L 112.197302 215.449412 
L 114.523734 210.994012 
L 116.995881 206.663259 
L 119.630998 202.453735 
L 122.423034 198.390825 
L 125.419961 194.428298 
L 128.612334 190.539035 
L 131.989199 186.702304 
L 137.329983 181.029043 
L 142.888994 175.451585 
L 148.587463 170.007946 
L 154.392111 164.728866 
L 160.35058 159.581051 
L 175.134181 147.104252 
L 179.398172 143.225618 
L 185.374709 137.406601 
L 192.76622 130.22673 
L 196.369488 127.062009 
L 200.045864 124.21382 
L 203.89797 121.671655 
L 207.87953 119.485576 
L 211.937141 117.700399 
L 216.04 116.349846 
L 218.107283 115.844112 
L 220.201415 115.451897 
L 222.347806 115.171539 
L 226.76079 114.9365 
L 231.286375 115.125171 
L 235.855799 115.716481 
L 240.424825 116.688434 
L 244.942239 118.007043 
L 249.432307 119.659273 
L 253.881524 121.609114 
L 258.285932 123.817109 
L 262.659905 126.265893 
L 267.018144 128.920324 
L 273.589111 133.21845 
L 289.739171 144.038738 
L 294.831081 147.130426 
L 300.253935 150.05344 
L 303.102845 151.407648 
L 306.037868 152.659323 
L 309.085499 153.801908 
L 312.22285 154.803998 
L 315.437077 155.648132 
L 318.689214 156.319244 
L 321.981714 156.820518 
L 325.316516 157.149136 
L 328.673122 157.297217 
L 332.03329 157.260987 
L 335.420738 157.036036 
L 338.788721 156.613394 
L 342.150632 155.986357 
L 345.477127 155.148954 
L 348.705175 154.116604 
L 351.853132 152.89669 
L 354.895595 151.507759 
L 357.841379 149.958536 
L 360.682107 148.263034 
L 363.402955 146.442937 
L 366.037252 144.490053 
L 368.55008 142.432851 
L 370.965576 140.265337 
L 373.263785 138.00855 
L 375.459063 135.657712 
L 377.529314 133.239462 
L 379.501122 130.734811 
L 381.360106 128.159107 
L 383.106345 125.517936 
L 384.741817 122.811524 
L 386.255524 120.061863 
L 387.666043 117.244756 
L 388.953426 114.393457 
L 390.129167 111.495156 
L 391.181962 108.580608 
L 392.944094 102.736531 
L 394.319526 96.880159 
L 395.36538 91.058268 
L 396.151815 85.291091 
L 396.985727 76.767248 
L 397.910809 63.128487 
L 398.487273 55.289187 
L 398.487273 55.289187 
" style="fill:none;stroke:#ffffff;stroke-linecap:square;"/>
   </g>
   <g id="patch_3">
    <path d="M 57.6 307.584 
L 57.6 41.472 
" style="fill:none;stroke:#000000;stroke-linecap:square;stroke-linejoin:miter;stroke-width:0.8;"/>
   </g>
   <g id="patch_4">
    <path d="M 414.72 307.584 
L 414.72 41.472 
" style="fill:none;stroke:#000000;stroke-linecap:square;stroke-linejoin:miter;stroke-width:0.8;"/>
   </g>
   <g id="patch_5">
    <path d="M 57.6 307.584 
L 414.72 307.584 
" style="fill:none;stroke:#000000;stroke-linecap:square;stroke-linejoin:miter;stroke-width:0.8;"/>
   </g>
   <g id="patch_6">
    <path d="M 57.6 41.472 
L 414.72 41.472 
" style="fill:none;stroke:#000000;stroke-linecap:square;stroke-linejoin:miter;stroke-width:0.8;"/>
   </g>
  </g>
 </g>
 <defs>
  <clipPath id="p35ac0d6416">
   <rect height="266.112" width="357.12" x="57.6" y="41.472"/>
  </clipPath>
 </defs>
</svg>
