<?xml version="1.0" encoding="utf-8" standalone="no"?>
<!DOCTYPE svg PUBLIC "-//W3C//DTD SVG 1.1//EN"
  "http://www.w3.org/Graphics/SVG/1.1/DTD/svg11.dtd">
<!-- Created with matplotlib (https://matplotlib.org/) -->
<svg height="345.6pt" version="1.1" viewBox="0 0 460.8 345.6" width="460.8pt" xmlns="http://www.w3.org/2000/svg" xmlns:xlink="http://www.w3.org/1999/xlink">
 <metadata>
  <rdf:RDF xmlns:cc="http://creativecommons.org/ns#" xmlns:dc="http://purl.org/dc/elements/1.1/" xmlns:rdf="http://www.w3.org/1999/02/22-rdf-syntax-ns#">
   <cc:Work>
    <dc:type rdf:resource="http://purl.org/dc/dcmitype/StillImage"/>
    <dc:date>2021-01-25T13:01:08.192993</dc:date>
    <dc:format>image/svg+xml</dc:format>
    <dc:creator>
     <cc:Agent>
      <dc:title>Matplotlib v3.3.3, https://matplotlib.org/</dc:title>
     </cc:Agent>
    </dc:creator>
   </cc:Work>
  </rdf:RDF>
 </metadata>
 <defs>
  <style type="text/css">*{stroke-linecap:butt;stroke-linejoin:round;}</style>
 </defs>
 <g id="figure_1">
  <g id="patch_1">
   <path d="M 0 345.6 
L 460.8 345.6 
L 460.8 0 
L 0 0 
z
" style="fill:#ffffff;"/>
  </g>
  <g id="axes_1">
   <g id="patch_2">
    <path d="M 57.6 307.584 
L 414.72 307.584 
L 414.72 41.472 
L 57.6 41.472 
z
" style="fill:#7d9051;"/>
   </g>
   <g id="matplotlib.axis_1">
    <g id="xtick_1">
     <g id="line2d_1">
      <defs>
       <path d="M 0 0 
L 0 3.5 
" id="mf0cbb3f02b" style="stroke:#000000;stroke-width:0.8;"/>
      </defs>
      <g>
       <use style="stroke:#000000;stroke-width:0.8;" x="87.848231" xlink:href="#mf0cbb3f02b" y="307.584"/>
      </g>
     </g>
     <g id="text_1">
      <!-- 0 -->
      <g transform="translate(84.666981 322.182437)scale(0.1 -0.1)">
       <defs>
        <path d="M 31.78125 66.40625 
Q 24.171875 66.40625 20.328125 58.90625 
Q 16.5 51.421875 16.5 36.375 
Q 16.5 21.390625 20.328125 13.890625 
Q 24.171875 6.390625 31.78125 6.390625 
Q 39.453125 6.390625 43.28125 13.890625 
Q 47.125 21.390625 47.125 36.375 
Q 47.125 51.421875 43.28125 58.90625 
Q 39.453125 66.40625 31.78125 66.40625 
z
M 31.78125 74.21875 
Q 44.046875 74.21875 50.515625 64.515625 
Q 56.984375 54.828125 56.984375 36.375 
Q 56.984375 17.96875 50.515625 8.265625 
Q 44.046875 -1.421875 31.78125 -1.421875 
Q 19.53125 -1.421875 13.0625 8.265625 
Q 6.59375 17.96875 6.59375 36.375 
Q 6.59375 54.828125 13.0625 64.515625 
Q 19.53125 74.21875 31.78125 74.21875 
z
" id="DejaVuSans-48"/>
       </defs>
       <use xlink:href="#DejaVuSans-48"/>
      </g>
     </g>
    </g>
    <g id="xtick_2">
     <g id="line2d_2">
      <g>
       <use style="stroke:#000000;stroke-width:0.8;" x="161.193774" xlink:href="#mf0cbb3f02b" y="307.584"/>
      </g>
     </g>
     <g id="text_2">
      <!-- 20 -->
      <g transform="translate(154.831274 322.182437)scale(0.1 -0.1)">
       <defs>
        <path d="M 19.1875 8.296875 
L 53.609375 8.296875 
L 53.609375 0 
L 7.328125 0 
L 7.328125 8.296875 
Q 12.9375 14.109375 22.625 23.890625 
Q 32.328125 33.6875 34.8125 36.53125 
Q 39.546875 41.84375 41.421875 45.53125 
Q 43.3125 49.21875 43.3125 52.78125 
Q 43.3125 58.59375 39.234375 62.25 
Q 35.15625 65.921875 28.609375 65.921875 
Q 23.96875 65.921875 18.8125 64.3125 
Q 13.671875 62.703125 7.8125 59.421875 
L 7.8125 69.390625 
Q 13.765625 71.78125 18.9375 73 
Q 24.125 74.21875 28.421875 74.21875 
Q 39.75 74.21875 46.484375 68.546875 
Q 53.21875 62.890625 53.21875 53.421875 
Q 53.21875 48.921875 51.53125 44.890625 
Q 49.859375 40.875 45.40625 35.40625 
Q 44.1875 33.984375 37.640625 27.21875 
Q 31.109375 20.453125 19.1875 8.296875 
z
" id="DejaVuSans-50"/>
       </defs>
       <use xlink:href="#DejaVuSans-50"/>
       <use x="63.623047" xlink:href="#DejaVuSans-48"/>
      </g>
     </g>
    </g>
    <g id="xtick_3">
     <g id="line2d_3">
      <g>
       <use style="stroke:#000000;stroke-width:0.8;" x="234.539317" xlink:href="#mf0cbb3f02b" y="307.584"/>
      </g>
     </g>
     <g id="text_3">
      <!-- 40 -->
      <g transform="translate(228.176817 322.182437)scale(0.1 -0.1)">
       <defs>
        <path d="M 37.796875 64.3125 
L 12.890625 25.390625 
L 37.796875 25.390625 
z
M 35.203125 72.90625 
L 47.609375 72.90625 
L 47.609375 25.390625 
L 58.015625 25.390625 
L 58.015625 17.1875 
L 47.609375 17.1875 
L 47.609375 0 
L 37.796875 0 
L 37.796875 17.1875 
L 4.890625 17.1875 
L 4.890625 26.703125 
z
" id="DejaVuSans-52"/>
       </defs>
       <use xlink:href="#DejaVuSans-52"/>
       <use x="63.623047" xlink:href="#DejaVuSans-48"/>
      </g>
     </g>
    </g>
    <g id="xtick_4">
     <g id="line2d_4">
      <g>
       <use style="stroke:#000000;stroke-width:0.8;" x="307.884861" xlink:href="#mf0cbb3f02b" y="307.584"/>
      </g>
     </g>
     <g id="text_4">
      <!-- 60 -->
      <g transform="translate(301.522361 322.182437)scale(0.1 -0.1)">
       <defs>
        <path d="M 33.015625 40.375 
Q 26.375 40.375 22.484375 35.828125 
Q 18.609375 31.296875 18.609375 23.390625 
Q 18.609375 15.53125 22.484375 10.953125 
Q 26.375 6.390625 33.015625 6.390625 
Q 39.65625 6.390625 43.53125 10.953125 
Q 47.40625 15.53125 47.40625 23.390625 
Q 47.40625 31.296875 43.53125 35.828125 
Q 39.65625 40.375 33.015625 40.375 
z
M 52.59375 71.296875 
L 52.59375 62.3125 
Q 48.875 64.0625 45.09375 64.984375 
Q 41.3125 65.921875 37.59375 65.921875 
Q 27.828125 65.921875 22.671875 59.328125 
Q 17.53125 52.734375 16.796875 39.40625 
Q 19.671875 43.65625 24.015625 45.921875 
Q 28.375 48.1875 33.59375 48.1875 
Q 44.578125 48.1875 50.953125 41.515625 
Q 57.328125 34.859375 57.328125 23.390625 
Q 57.328125 12.15625 50.6875 5.359375 
Q 44.046875 -1.421875 33.015625 -1.421875 
Q 20.359375 -1.421875 13.671875 8.265625 
Q 6.984375 17.96875 6.984375 36.375 
Q 6.984375 53.65625 15.1875 63.9375 
Q 23.390625 74.21875 37.203125 74.21875 
Q 40.921875 74.21875 44.703125 73.484375 
Q 48.484375 72.75 52.59375 71.296875 
z
" id="DejaVuSans-54"/>
       </defs>
       <use xlink:href="#DejaVuSans-54"/>
       <use x="63.623047" xlink:href="#DejaVuSans-48"/>
      </g>
     </g>
    </g>
    <g id="xtick_5">
     <g id="line2d_5">
      <g>
       <use style="stroke:#000000;stroke-width:0.8;" x="381.230404" xlink:href="#mf0cbb3f02b" y="307.584"/>
      </g>
     </g>
     <g id="text_5">
      <!-- 80 -->
      <g transform="translate(374.867904 322.182437)scale(0.1 -0.1)">
       <defs>
        <path d="M 31.78125 34.625 
Q 24.75 34.625 20.71875 30.859375 
Q 16.703125 27.09375 16.703125 20.515625 
Q 16.703125 13.921875 20.71875 10.15625 
Q 24.75 6.390625 31.78125 6.390625 
Q 38.8125 6.390625 42.859375 10.171875 
Q 46.921875 13.96875 46.921875 20.515625 
Q 46.921875 27.09375 42.890625 30.859375 
Q 38.875 34.625 31.78125 34.625 
z
M 21.921875 38.8125 
Q 15.578125 40.375 12.03125 44.71875 
Q 8.5 49.078125 8.5 55.328125 
Q 8.5 64.0625 14.71875 69.140625 
Q 20.953125 74.21875 31.78125 74.21875 
Q 42.671875 74.21875 48.875 69.140625 
Q 55.078125 64.0625 55.078125 55.328125 
Q 55.078125 49.078125 51.53125 44.71875 
Q 48 40.375 41.703125 38.8125 
Q 48.828125 37.15625 52.796875 32.3125 
Q 56.78125 27.484375 56.78125 20.515625 
Q 56.78125 9.90625 50.3125 4.234375 
Q 43.84375 -1.421875 31.78125 -1.421875 
Q 19.734375 -1.421875 13.25 4.234375 
Q 6.78125 9.90625 6.78125 20.515625 
Q 6.78125 27.484375 10.78125 32.3125 
Q 14.796875 37.15625 21.921875 38.8125 
z
M 18.3125 54.390625 
Q 18.3125 48.734375 21.84375 45.5625 
Q 25.390625 42.390625 31.78125 42.390625 
Q 38.140625 42.390625 41.71875 45.5625 
Q 45.3125 48.734375 45.3125 54.390625 
Q 45.3125 60.0625 41.71875 63.234375 
Q 38.140625 66.40625 31.78125 66.40625 
Q 25.390625 66.40625 21.84375 63.234375 
Q 18.3125 60.0625 18.3125 54.390625 
z
" id="DejaVuSans-56"/>
       </defs>
       <use xlink:href="#DejaVuSans-56"/>
       <use x="63.623047" xlink:href="#DejaVuSans-48"/>
      </g>
     </g>
    </g>
   </g>
   <g id="matplotlib.axis_2">
    <g id="ytick_1">
     <g id="line2d_6">
      <defs>
       <path d="M 0 0 
L -3.5 0 
" id="ma6069e377a" style="stroke:#000000;stroke-width:0.8;"/>
      </defs>
      <g>
       <use style="stroke:#000000;stroke-width:0.8;" x="57.6" xlink:href="#ma6069e377a" y="280.836435"/>
      </g>
     </g>
     <g id="text_6">
      <!-- 10 -->
      <g transform="translate(37.875 284.635654)scale(0.1 -0.1)">
       <defs>
        <path d="M 12.40625 8.296875 
L 28.515625 8.296875 
L 28.515625 63.921875 
L 10.984375 60.40625 
L 10.984375 69.390625 
L 28.421875 72.90625 
L 38.28125 72.90625 
L 38.28125 8.296875 
L 54.390625 8.296875 
L 54.390625 0 
L 12.40625 0 
z
" id="DejaVuSans-49"/>
       </defs>
       <use xlink:href="#DejaVuSans-49"/>
       <use x="63.623047" xlink:href="#DejaVuSans-48"/>
      </g>
     </g>
    </g>
    <g id="ytick_2">
     <g id="line2d_7">
      <g>
       <use style="stroke:#000000;stroke-width:0.8;" x="57.6" xlink:href="#ma6069e377a" y="244.163663"/>
      </g>
     </g>
     <g id="text_7">
      <!-- 20 -->
      <g transform="translate(37.875 247.962882)scale(0.1 -0.1)">
       <use xlink:href="#DejaVuSans-50"/>
       <use x="63.623047" xlink:href="#DejaVuSans-48"/>
      </g>
     </g>
    </g>
    <g id="ytick_3">
     <g id="line2d_8">
      <g>
       <use style="stroke:#000000;stroke-width:0.8;" x="57.6" xlink:href="#ma6069e377a" y="207.490892"/>
      </g>
     </g>
     <g id="text_8">
      <!-- 30 -->
      <g transform="translate(37.875 211.290111)scale(0.1 -0.1)">
       <defs>
        <path d="M 40.578125 39.3125 
Q 47.65625 37.796875 51.625 33 
Q 55.609375 28.21875 55.609375 21.1875 
Q 55.609375 10.40625 48.1875 4.484375 
Q 40.765625 -1.421875 27.09375 -1.421875 
Q 22.515625 -1.421875 17.65625 -0.515625 
Q 12.796875 0.390625 7.625 2.203125 
L 7.625 11.71875 
Q 11.71875 9.328125 16.59375 8.109375 
Q 21.484375 6.890625 26.8125 6.890625 
Q 36.078125 6.890625 40.9375 10.546875 
Q 45.796875 14.203125 45.796875 21.1875 
Q 45.796875 27.640625 41.28125 31.265625 
Q 36.765625 34.90625 28.71875 34.90625 
L 20.21875 34.90625 
L 20.21875 43.015625 
L 29.109375 43.015625 
Q 36.375 43.015625 40.234375 45.921875 
Q 44.09375 48.828125 44.09375 54.296875 
Q 44.09375 59.90625 40.109375 62.90625 
Q 36.140625 65.921875 28.71875 65.921875 
Q 24.65625 65.921875 20.015625 65.03125 
Q 15.375 64.15625 9.8125 62.3125 
L 9.8125 71.09375 
Q 15.4375 72.65625 20.34375 73.4375 
Q 25.25 74.21875 29.59375 74.21875 
Q 40.828125 74.21875 47.359375 69.109375 
Q 53.90625 64.015625 53.90625 55.328125 
Q 53.90625 49.265625 50.4375 45.09375 
Q 46.96875 40.921875 40.578125 39.3125 
z
" id="DejaVuSans-51"/>
       </defs>
       <use xlink:href="#DejaVuSans-51"/>
       <use x="63.623047" xlink:href="#DejaVuSans-48"/>
      </g>
     </g>
    </g>
    <g id="ytick_4">
     <g id="line2d_9">
      <g>
       <use style="stroke:#000000;stroke-width:0.8;" x="57.6" xlink:href="#ma6069e377a" y="170.81812"/>
      </g>
     </g>
     <g id="text_9">
      <!-- 40 -->
      <g transform="translate(37.875 174.617339)scale(0.1 -0.1)">
       <use xlink:href="#DejaVuSans-52"/>
       <use x="63.623047" xlink:href="#DejaVuSans-48"/>
      </g>
     </g>
    </g>
    <g id="ytick_5">
     <g id="line2d_10">
      <g>
       <use style="stroke:#000000;stroke-width:0.8;" x="57.6" xlink:href="#ma6069e377a" y="134.145349"/>
      </g>
     </g>
     <g id="text_10">
      <!-- 50 -->
      <g transform="translate(37.875 137.944568)scale(0.1 -0.1)">
       <defs>
        <path d="M 10.796875 72.90625 
L 49.515625 72.90625 
L 49.515625 64.59375 
L 19.828125 64.59375 
L 19.828125 46.734375 
Q 21.96875 47.46875 24.109375 47.828125 
Q 26.265625 48.1875 28.421875 48.1875 
Q 40.625 48.1875 47.75 41.5 
Q 54.890625 34.8125 54.890625 23.390625 
Q 54.890625 11.625 47.5625 5.09375 
Q 40.234375 -1.421875 26.90625 -1.421875 
Q 22.3125 -1.421875 17.546875 -0.640625 
Q 12.796875 0.140625 7.71875 1.703125 
L 7.71875 11.625 
Q 12.109375 9.234375 16.796875 8.0625 
Q 21.484375 6.890625 26.703125 6.890625 
Q 35.15625 6.890625 40.078125 11.328125 
Q 45.015625 15.765625 45.015625 23.390625 
Q 45.015625 31 40.078125 35.4375 
Q 35.15625 39.890625 26.703125 39.890625 
Q 22.75 39.890625 18.8125 39.015625 
Q 14.890625 38.140625 10.796875 36.28125 
z
" id="DejaVuSans-53"/>
       </defs>
       <use xlink:href="#DejaVuSans-53"/>
       <use x="63.623047" xlink:href="#DejaVuSans-48"/>
      </g>
     </g>
    </g>
    <g id="ytick_6">
     <g id="line2d_11">
      <g>
       <use style="stroke:#000000;stroke-width:0.8;" x="57.6" xlink:href="#ma6069e377a" y="97.472577"/>
      </g>
     </g>
     <g id="text_11">
      <!-- 60 -->
      <g transform="translate(37.875 101.271796)scale(0.1 -0.1)">
       <use xlink:href="#DejaVuSans-54"/>
       <use x="63.623047" xlink:href="#DejaVuSans-48"/>
      </g>
     </g>
    </g>
    <g id="ytick_7">
     <g id="line2d_12">
      <g>
       <use style="stroke:#000000;stroke-width:0.8;" x="57.6" xlink:href="#ma6069e377a" y="60.799806"/>
      </g>
     </g>
     <g id="text_12">
      <!-- 70 -->
      <g transform="translate(37.875 64.599024)scale(0.1 -0.1)">
       <defs>
        <path d="M 8.203125 72.90625 
L 55.078125 72.90625 
L 55.078125 68.703125 
L 28.609375 0 
L 18.3125 0 
L 43.21875 64.59375 
L 8.203125 64.59375 
z
" id="DejaVuSans-55"/>
       </defs>
       <use xlink:href="#DejaVuSans-55"/>
       <use x="63.623047" xlink:href="#DejaVuSans-48"/>
      </g>
     </g>
    </g>
   </g>
   <g id="line2d_13">
    <path clip-path="url(#paa8ee70d8b)" d="M 124.521003 176.098999 
L 124.040589 161.730608 
L 123.967244 154.341044 
L 124.110268 146.88547 
L 124.550341 139.426228 
L 125.368144 132.018328 
L 125.943906 128.347384 
L 126.644356 124.713112 
L 127.476828 121.11918 
L 128.455991 117.569256 
L 129.58918 114.078008 
L 130.887396 110.645437 
L 132.357974 107.282544 
L 134.011916 103.996663 
L 135.860224 100.791463 
L 137.891895 97.685279 
L 140.099596 94.685447 
L 142.468657 91.806634 
L 144.999078 89.059843 
L 147.676191 86.459744 
L 150.488992 84.021005 
L 153.426481 81.75096 
L 156.488658 79.664279 
L 159.653518 77.779299 
L 162.921062 76.096019 
L 166.27662 74.610771 
L 169.712859 73.316223 
L 173.218776 72.197703 
L 176.78337 71.240544 
L 180.395638 70.43741 
L 184.051913 69.7773 
L 187.733859 69.249212 
L 195.145426 68.537761 
L 202.560661 68.237044 
L 206.260943 68.248046 
L 209.950224 68.3764 
L 213.624836 68.622108 
L 217.281111 68.99617 
L 220.915383 69.505922 
L 224.527651 70.151362 
L 228.110581 70.943494 
L 231.664172 71.889652 
L 235.181091 72.989835 
L 238.65767 74.244044 
L 242.079239 75.644944 
L 245.4458 77.196202 
L 248.742682 78.886817 
L 251.962551 80.716788 
L 255.10174 82.678781 
L 258.14558 84.769129 
L 261.090404 86.987832 
L 263.925209 89.327555 
L 266.646329 91.780963 
L 269.268432 94.340723 
L 274.255929 99.705949 
L 279.00872 105.309549 
L 292.981046 122.384391 
L 300.238588 130.650434 
L 307.68316 138.744114 
L 325.315429 157.472899 
L 330.049884 163.080166 
L 332.297925 165.977314 
L 334.443282 168.955144 
L 336.47862 172.020987 
L 338.381937 175.185847 
L 340.153232 178.44239 
L 341.774169 181.783279 
L 343.237412 185.197514 
L 344.539296 188.67776 
L 345.66515 192.213015 
L 346.60764 195.799612 
L 347.355765 199.422882 
L 347.902189 203.079157 
L 348.239578 206.757436 
L 348.356931 210.450385 
L 348.261582 214.143333 
L 347.953531 217.832613 
L 347.443779 221.503558 
L 346.739662 225.145164 
L 345.837512 228.753765 
L 344.755665 232.311024 
L 343.490454 235.809606 
L 342.052882 239.242177 
L 340.442947 242.594069 
L 338.675319 245.857945 
L 336.746332 249.022806 
L 334.663318 252.084982 
L 332.429947 255.040807 
L 330.049884 257.871945 
L 327.526797 260.582063 
L 324.864354 263.156492 
L 322.069889 265.595231 
L 319.147069 267.883612 
L 316.095894 270.0143 
L 312.923699 271.987295 
L 309.645154 273.787928 
L 306.267591 275.405197 
L 302.809349 276.831768 
L 299.281428 278.060306 
L 295.698499 279.072475 
L 292.071561 279.868274 
L 288.411619 280.436702 
L 284.737007 280.759422 
L 281.055061 280.836435 
L 277.384116 280.656738 
L 273.727841 280.231334 
L 270.100904 279.571224 
L 266.506972 278.687411 
L 262.960715 277.598229 
L 259.4658 276.311015 
L 256.033229 274.840437 
L 252.670336 273.197497 
L 249.388123 271.396864 
L 246.197592 269.449539 
L 243.10241 267.362859 
L 240.109911 265.151491 
L 237.234766 262.804433 
L 234.476974 260.332688 
L 231.847536 257.736256 
L 229.35012 255.015137 
L 226.999396 252.169329 
L 224.795362 249.20617 
L 222.749021 246.125657 
L 220.864041 242.931458 
L 219.151422 239.623574 
L 217.622168 236.216674 
L 216.279944 232.721759 
L 215.139421 229.160833 
L 214.204266 225.54123 
L 213.485479 221.881287 
L 212.997731 218.195674 
L 212.741022 214.495391 
L 212.733687 210.798776 
L 212.975728 207.11683 
L 213.481812 203.464222 
L 214.237271 199.851954 
L 215.23477 196.294695 
L 216.466976 192.796112 
L 217.919217 189.370875 
L 219.580494 186.029986 
L 221.439803 182.784446 
L 223.489811 179.641589 
L 225.719516 176.616086 
L 228.117915 173.715269 
L 230.67034 170.950142 
L 233.373123 168.331706 
L 236.211596 165.870963 
L 239.174756 163.578915 
L 242.251601 161.462896 
L 245.434798 159.537576 
L 248.713344 157.813956 
L 252.07257 156.29937 
L 255.508808 155.004821 
L 259.003723 153.941311 
L 259.003723 153.941311 
" style="fill:none;stroke:#fea952;stroke-linecap:square;"/>
   </g>
   <g id="line2d_14">
    <path clip-path="url(#paa8ee70d8b)" d="M 109.862777 176.663952 
L 109.373343 161.964349 
L 109.298847 154.196528 
L 109.45747 146.193892 
L 109.948024 138.02798 
L 110.350457 133.890018 
L 110.876202 129.745366 
L 111.539889 125.571231 
L 112.353614 121.402909 
L 113.335787 117.218707 
L 114.503447 113.040542 
L 115.868577 108.888806 
L 117.447176 104.768088 
L 119.25512 100.687245 
L 121.304294 96.668698 
L 123.583902 92.76185 
L 126.077363 88.990477 
L 128.772736 85.364235 
L 131.679811 81.867643 
L 134.778913 78.536965 
L 138.066743 75.376366 
L 141.51919 72.413878 
L 145.165986 69.628792 
L 148.982308 67.061206 
L 152.935703 64.738835 
L 156.983783 62.682165 
L 161.105087 60.8835 
L 165.254272 59.341111 
L 169.414607 58.030451 
L 173.599654 56.921092 
L 177.789388 56.001683 
L 181.969289 55.256783 
L 186.115513 54.669648 
L 190.249421 54.217288 
L 198.464706 53.67219 
L 202.604275 53.568 
L 206.770991 53.587807 
L 210.928907 53.739976 
L 215.117794 54.02917 
L 219.318689 54.469263 
L 223.495597 55.065519 
L 227.694303 55.828127 
L 231.884799 56.768233 
L 236.043756 57.889581 
L 240.15908 59.191198 
L 244.215842 60.668718 
L 248.218165 62.322168 
L 252.139263 64.143222 
L 255.990857 66.133515 
L 259.737163 68.277409 
L 263.406029 70.586571 
L 266.972703 73.05313 
L 270.427969 75.674449 
L 273.748056 78.432858 
L 276.893419 81.284302 
L 279.873409 84.205772 
L 285.362459 90.12327 
L 290.380196 96.042819 
L 304.094825 112.81012 
L 311.105465 120.796819 
L 318.359176 128.684023 
L 336.401197 147.866209 
L 341.639239 154.087413 
L 344.199907 157.40261 
L 346.664438 160.841816 
L 349.049559 164.460944 
L 351.268193 168.176769 
L 353.350979 172.039092 
L 355.257207 176.004834 
L 356.976687 180.057954 
L 358.516724 184.226442 
L 359.852586 188.484824 
L 360.97371 192.833339 
L 361.863751 197.254688 
L 362.509975 201.739261 
L 362.901286 206.291523 
L 363.021153 210.829004 
L 362.879819 215.363941 
L 362.483224 219.850223 
L 361.846138 224.288304 
L 360.970788 228.702946 
L 359.871941 233.021967 
L 358.550441 237.299701 
L 357.020883 241.476196 
L 355.275841 245.593249 
L 353.341882 249.579784 
L 351.201164 253.49247 
L 348.875255 257.273379 
L 346.367166 260.928212 
L 343.658429 264.480296 
L 340.786366 267.867479 
L 337.723653 271.12753 
L 334.509645 274.208691 
L 331.112926 277.145392 
L 327.545662 279.910514 
L 323.843305 282.470639 
L 319.985287 284.84485 
L 315.98032 287.018514 
L 311.86153 288.965824 
L 307.63348 290.684945 
L 303.269341 292.176938 
L 298.842314 293.400739 
L 294.32284 294.3636 
L 289.694984 295.049563 
L 285.043764 295.425323 
L 280.337851 295.488 
L 275.688816 295.227555 
L 271.101183 294.663362 
L 266.59787 293.815925 
L 262.200129 292.71003 
L 257.890865 291.363379 
L 253.689094 289.794798 
L 249.594017 288.020699 
L 245.614812 286.05838 
L 241.745903 283.918015 
L 237.997555 281.612687 
L 234.384442 279.160307 
L 230.833512 276.51508 
L 227.444142 273.728097 
L 224.170064 270.770618 
L 221.04019 267.655128 
L 218.040487 264.357243 
L 215.22924 260.924111 
L 212.576515 257.322975 
L 210.115667 253.580931 
L 207.837323 249.67589 
L 205.768692 245.630677 
L 203.928229 241.475836 
L 202.309901 237.196201 
L 200.936667 232.830237 
L 199.810123 228.368136 
L 198.943161 223.805793 
L 198.363797 219.210912 
L 198.071942 214.524497 
L 198.096172 209.836549 
L 198.445427 205.103595 
L 199.12335 200.461335 
L 200.112961 195.891322 
L 201.398733 191.421625 
L 202.961601 187.070065 
L 204.784381 182.839503 
L 206.852114 178.738135 
L 209.153373 174.77031 
L 211.681079 170.938912 
L 214.414162 167.268802 
L 217.339004 163.765505 
L 220.463414 160.414422 
L 223.764241 157.247839 
L 227.236485 154.267941 
L 230.862449 151.492216 
L 234.659797 148.911113 
L 238.608699 146.553465 
L 242.683949 144.441254 
L 246.901036 142.572098 
L 251.238313 140.97109 
L 254.733228 139.907579 
L 254.733228 139.907579 
" style="fill:none;stroke:#ffffff;stroke-linecap:square;"/>
   </g>
   <g id="line2d_15">
    <path clip-path="url(#paa8ee70d8b)" d="M 139.179228 175.534047 
L 138.707836 161.496867 
L 138.635641 154.48556 
L 138.763065 147.577047 
L 139.152658 140.824475 
L 139.860086 134.29129 
L 140.935098 128.023314 
L 141.61787 125.019654 
L 142.408535 122.097971 
L 143.309782 119.26721 
L 144.327616 116.522785 
L 145.460828 113.877842 
L 146.719539 111.324629 
L 148.136545 108.821076 
L 149.706427 106.380081 
L 151.426456 104.006659 
L 153.257504 101.745625 
L 155.219244 99.582722 
L 157.285638 97.543122 
L 159.458795 95.628132 
L 161.686977 93.873128 
L 163.995007 92.267353 
L 166.371333 90.819763 
L 168.858341 89.509872 
L 171.448154 88.338043 
L 174.171446 87.291334 
L 177.022946 86.364956 
L 179.967085 85.559996 
L 183.001887 84.873137 
L 186.134537 84.297818 
L 192.618863 83.459667 
L 199.248715 82.99993 
L 205.750895 82.908284 
L 212.131877 83.215045 
L 215.243533 83.523077 
L 218.335169 83.946325 
L 221.360999 84.474598 
L 224.336362 85.118755 
L 227.284588 85.889723 
L 230.203102 86.788472 
L 233.099498 87.81937 
L 235.940313 88.967719 
L 238.752336 90.249182 
L 241.494507 91.640118 
L 244.187939 93.156167 
L 246.797452 94.770991 
L 249.318457 96.485129 
L 251.752839 98.301214 
L 254.102362 100.222252 
L 256.399239 102.277624 
L 258.663455 104.475673 
L 263.149399 109.288628 
L 267.637244 114.576278 
L 281.867267 131.958662 
L 289.37171 140.504048 
L 297.007145 148.804206 
L 314.22966 167.079588 
L 318.460529 172.072918 
L 322.222125 177.068471 
L 323.907682 179.58103 
L 325.495682 182.194925 
L 326.955485 184.845687 
L 328.29113 187.561724 
L 329.498138 190.337074 
L 330.561867 193.129078 
L 331.477714 195.941206 
L 332.24157 198.765886 
L 332.847778 201.591077 
L 333.294402 204.419054 
L 333.577871 207.22335 
L 333.69271 210.071765 
L 333.643345 212.922724 
L 333.423837 215.815004 
L 333.04142 218.718812 
L 332.508536 221.587383 
L 331.803083 224.485562 
L 330.960889 227.322347 
L 329.960025 230.143016 
L 328.829923 232.891106 
L 327.544012 235.608353 
L 326.149475 238.223421 
L 324.617408 240.772232 
L 322.959471 243.241753 
L 321.201464 245.601319 
L 319.313402 247.876411 
L 317.329941 250.036596 
L 315.219062 252.104293 
L 313.026851 254.04507 
L 310.748475 255.85671 
L 308.348483 257.557961 
L 305.862111 259.12974 
L 303.309987 260.557342 
L 300.673653 261.844571 
L 297.985218 262.978592 
L 295.293516 263.943674 
L 292.554683 264.74421 
L 289.820283 265.372947 
L 287.128254 265.82384 
L 284.43025 266.093521 
L 281.77227 266.18487 
L 279.079417 266.085922 
L 276.354499 265.799307 
L 273.603938 265.326523 
L 270.813816 264.664791 
L 268.030566 263.833079 
L 265.242507 262.827232 
L 262.472441 261.660175 
L 259.72586 260.336613 
L 257.030342 258.875712 
L 254.397628 257.286392 
L 251.820377 255.56541 
L 249.386311 253.787901 
L 247.02539 251.88077 
L 244.783883 249.894759 
L 242.654882 247.817384 
L 240.659753 245.67303 
L 238.769551 243.414548 
L 237.014209 241.089364 
L 235.382375 238.670382 
L 233.890759 236.187027 
L 232.534153 233.616472 
L 231.316107 230.957512 
L 230.249988 228.247316 
L 229.342175 225.491428 
L 228.598409 222.714324 
L 228.027798 219.956782 
L 227.631666 217.180436 
L 227.410102 214.466286 
L 227.371203 211.761003 
L 227.506028 209.130064 
L 227.840274 206.467108 
L 228.361582 203.812585 
L 229.070808 201.167765 
L 229.97235 198.52216 
L 231.054053 195.902248 
L 232.308874 193.321837 
L 233.726234 190.798582 
L 235.298543 188.344267 
L 237.02487 185.963369 
L 238.896827 183.665034 
L 240.877266 181.485863 
L 242.982006 179.415574 
L 245.186706 177.473986 
L 247.487063 175.665615 
L 249.843406 174.014679 
L 252.260896 172.521686 
L 254.742739 171.186657 
L 257.244103 170.026642 
L 259.779304 169.038553 
L 263.274219 167.975042 
L 263.274219 167.975042 
" style="fill:none;stroke:#ffffff;stroke-linecap:square;"/>
   </g>
   <g id="patch_3">
    <path d="M 57.6 307.584 
L 57.6 41.472 
" style="fill:none;stroke:#000000;stroke-linecap:square;stroke-linejoin:miter;stroke-width:0.8;"/>
   </g>
   <g id="patch_4">
    <path d="M 414.72 307.584 
L 414.72 41.472 
" style="fill:none;stroke:#000000;stroke-linecap:square;stroke-linejoin:miter;stroke-width:0.8;"/>
   </g>
   <g id="patch_5">
    <path d="M 57.6 307.584 
L 414.72 307.584 
" style="fill:none;stroke:#000000;stroke-linecap:square;stroke-linejoin:miter;stroke-width:0.8;"/>
   </g>
   <g id="patch_6">
    <path d="M 57.6 41.472 
L 414.72 41.472 
" style="fill:none;stroke:#000000;stroke-linecap:square;stroke-linejoin:miter;stroke-width:0.8;"/>
   </g>
  </g>
 </g>
 <defs>
  <clipPath id="paa8ee70d8b">
   <rect height="266.112" width="357.12" x="57.6" y="41.472"/>
  </clipPath>
 </defs>
</svg>
