<?xml version="1.0" encoding="utf-8" standalone="no"?>
<!DOCTYPE svg PUBLIC "-//W3C//DTD SVG 1.1//EN"
  "http://www.w3.org/Graphics/SVG/1.1/DTD/svg11.dtd">
<!-- Created with matplotlib (https://matplotlib.org/) -->
<svg height="345.6pt" version="1.1" viewBox="0 0 460.8 345.6" width="460.8pt" xmlns="http://www.w3.org/2000/svg" xmlns:xlink="http://www.w3.org/1999/xlink">
 <metadata>
  <rdf:RDF xmlns:cc="http://creativecommons.org/ns#" xmlns:dc="http://purl.org/dc/elements/1.1/" xmlns:rdf="http://www.w3.org/1999/02/22-rdf-syntax-ns#">
   <cc:Work>
    <dc:type rdf:resource="http://purl.org/dc/dcmitype/StillImage"/>
    <dc:date>2021-01-25T12:14:43.351725</dc:date>
    <dc:format>image/svg+xml</dc:format>
    <dc:creator>
     <cc:Agent>
      <dc:title>Matplotlib v3.3.3, https://matplotlib.org/</dc:title>
     </cc:Agent>
    </dc:creator>
   </cc:Work>
  </rdf:RDF>
 </metadata>
 <defs>
  <style type="text/css">*{stroke-linecap:butt;stroke-linejoin:round;}</style>
 </defs>
 <g id="figure_1">
  <g id="patch_1">
   <path d="M 0 345.6 
L 460.8 345.6 
L 460.8 0 
L 0 0 
z
" style="fill:#ffffff;"/>
  </g>
  <g id="axes_1">
   <g id="patch_2">
    <path d="M 57.6 307.584 
L 414.72 307.584 
L 414.72 41.472 
L 57.6 41.472 
z
" style="fill:#7d9051;"/>
   </g>
   <g id="matplotlib.axis_1">
    <g id="xtick_1">
     <g id="line2d_1">
      <defs>
       <path d="M 0 0 
L 0 3.5 
" id="m2020f9161b" style="stroke:#000000;stroke-width:0.8;"/>
      </defs>
      <g>
       <use style="stroke:#000000;stroke-width:0.8;" x="82.191445" xlink:href="#m2020f9161b" y="307.584"/>
      </g>
     </g>
     <g id="text_1">
      <!-- 0 -->
      <g transform="translate(79.010195 322.182437)scale(0.1 -0.1)">
       <defs>
        <path d="M 31.78125 66.40625 
Q 24.171875 66.40625 20.328125 58.90625 
Q 16.5 51.421875 16.5 36.375 
Q 16.5 21.390625 20.328125 13.890625 
Q 24.171875 6.390625 31.78125 6.390625 
Q 39.453125 6.390625 43.28125 13.890625 
Q 47.125 21.390625 47.125 36.375 
Q 47.125 51.421875 43.28125 58.90625 
Q 39.453125 66.40625 31.78125 66.40625 
z
M 31.78125 74.21875 
Q 44.046875 74.21875 50.515625 64.515625 
Q 56.984375 54.828125 56.984375 36.375 
Q 56.984375 17.96875 50.515625 8.265625 
Q 44.046875 -1.421875 31.78125 -1.421875 
Q 19.53125 -1.421875 13.0625 8.265625 
Q 6.59375 17.96875 6.59375 36.375 
Q 6.59375 54.828125 13.0625 64.515625 
Q 19.53125 74.21875 31.78125 74.21875 
z
" id="DejaVuSans-48"/>
       </defs>
       <use xlink:href="#DejaVuSans-48"/>
      </g>
     </g>
    </g>
    <g id="xtick_2">
     <g id="line2d_2">
      <g>
       <use style="stroke:#000000;stroke-width:0.8;" x="151.606149" xlink:href="#m2020f9161b" y="307.584"/>
      </g>
     </g>
     <g id="text_2">
      <!-- 20 -->
      <g transform="translate(145.243649 322.182437)scale(0.1 -0.1)">
       <defs>
        <path d="M 19.1875 8.296875 
L 53.609375 8.296875 
L 53.609375 0 
L 7.328125 0 
L 7.328125 8.296875 
Q 12.9375 14.109375 22.625 23.890625 
Q 32.328125 33.6875 34.8125 36.53125 
Q 39.546875 41.84375 41.421875 45.53125 
Q 43.3125 49.21875 43.3125 52.78125 
Q 43.3125 58.59375 39.234375 62.25 
Q 35.15625 65.921875 28.609375 65.921875 
Q 23.96875 65.921875 18.8125 64.3125 
Q 13.671875 62.703125 7.8125 59.421875 
L 7.8125 69.390625 
Q 13.765625 71.78125 18.9375 73 
Q 24.125 74.21875 28.421875 74.21875 
Q 39.75 74.21875 46.484375 68.546875 
Q 53.21875 62.890625 53.21875 53.421875 
Q 53.21875 48.921875 51.53125 44.890625 
Q 49.859375 40.875 45.40625 35.40625 
Q 44.1875 33.984375 37.640625 27.21875 
Q 31.109375 20.453125 19.1875 8.296875 
z
" id="DejaVuSans-50"/>
       </defs>
       <use xlink:href="#DejaVuSans-50"/>
       <use x="63.623047" xlink:href="#DejaVuSans-48"/>
      </g>
     </g>
    </g>
    <g id="xtick_3">
     <g id="line2d_3">
      <g>
       <use style="stroke:#000000;stroke-width:0.8;" x="221.020852" xlink:href="#m2020f9161b" y="307.584"/>
      </g>
     </g>
     <g id="text_3">
      <!-- 40 -->
      <g transform="translate(214.658352 322.182437)scale(0.1 -0.1)">
       <defs>
        <path d="M 37.796875 64.3125 
L 12.890625 25.390625 
L 37.796875 25.390625 
z
M 35.203125 72.90625 
L 47.609375 72.90625 
L 47.609375 25.390625 
L 58.015625 25.390625 
L 58.015625 17.1875 
L 47.609375 17.1875 
L 47.609375 0 
L 37.796875 0 
L 37.796875 17.1875 
L 4.890625 17.1875 
L 4.890625 26.703125 
z
" id="DejaVuSans-52"/>
       </defs>
       <use xlink:href="#DejaVuSans-52"/>
       <use x="63.623047" xlink:href="#DejaVuSans-48"/>
      </g>
     </g>
    </g>
    <g id="xtick_4">
     <g id="line2d_4">
      <g>
       <use style="stroke:#000000;stroke-width:0.8;" x="290.435556" xlink:href="#m2020f9161b" y="307.584"/>
      </g>
     </g>
     <g id="text_4">
      <!-- 60 -->
      <g transform="translate(284.073056 322.182437)scale(0.1 -0.1)">
       <defs>
        <path d="M 33.015625 40.375 
Q 26.375 40.375 22.484375 35.828125 
Q 18.609375 31.296875 18.609375 23.390625 
Q 18.609375 15.53125 22.484375 10.953125 
Q 26.375 6.390625 33.015625 6.390625 
Q 39.65625 6.390625 43.53125 10.953125 
Q 47.40625 15.53125 47.40625 23.390625 
Q 47.40625 31.296875 43.53125 35.828125 
Q 39.65625 40.375 33.015625 40.375 
z
M 52.59375 71.296875 
L 52.59375 62.3125 
Q 48.875 64.0625 45.09375 64.984375 
Q 41.3125 65.921875 37.59375 65.921875 
Q 27.828125 65.921875 22.671875 59.328125 
Q 17.53125 52.734375 16.796875 39.40625 
Q 19.671875 43.65625 24.015625 45.921875 
Q 28.375 48.1875 33.59375 48.1875 
Q 44.578125 48.1875 50.953125 41.515625 
Q 57.328125 34.859375 57.328125 23.390625 
Q 57.328125 12.15625 50.6875 5.359375 
Q 44.046875 -1.421875 33.015625 -1.421875 
Q 20.359375 -1.421875 13.671875 8.265625 
Q 6.984375 17.96875 6.984375 36.375 
Q 6.984375 53.65625 15.1875 63.9375 
Q 23.390625 74.21875 37.203125 74.21875 
Q 40.921875 74.21875 44.703125 73.484375 
Q 48.484375 72.75 52.59375 71.296875 
z
" id="DejaVuSans-54"/>
       </defs>
       <use xlink:href="#DejaVuSans-54"/>
       <use x="63.623047" xlink:href="#DejaVuSans-48"/>
      </g>
     </g>
    </g>
    <g id="xtick_5">
     <g id="line2d_5">
      <g>
       <use style="stroke:#000000;stroke-width:0.8;" x="359.850259" xlink:href="#m2020f9161b" y="307.584"/>
      </g>
     </g>
     <g id="text_5">
      <!-- 80 -->
      <g transform="translate(353.487759 322.182437)scale(0.1 -0.1)">
       <defs>
        <path d="M 31.78125 34.625 
Q 24.75 34.625 20.71875 30.859375 
Q 16.703125 27.09375 16.703125 20.515625 
Q 16.703125 13.921875 20.71875 10.15625 
Q 24.75 6.390625 31.78125 6.390625 
Q 38.8125 6.390625 42.859375 10.171875 
Q 46.921875 13.96875 46.921875 20.515625 
Q 46.921875 27.09375 42.890625 30.859375 
Q 38.875 34.625 31.78125 34.625 
z
M 21.921875 38.8125 
Q 15.578125 40.375 12.03125 44.71875 
Q 8.5 49.078125 8.5 55.328125 
Q 8.5 64.0625 14.71875 69.140625 
Q 20.953125 74.21875 31.78125 74.21875 
Q 42.671875 74.21875 48.875 69.140625 
Q 55.078125 64.0625 55.078125 55.328125 
Q 55.078125 49.078125 51.53125 44.71875 
Q 48 40.375 41.703125 38.8125 
Q 48.828125 37.15625 52.796875 32.3125 
Q 56.78125 27.484375 56.78125 20.515625 
Q 56.78125 9.90625 50.3125 4.234375 
Q 43.84375 -1.421875 31.78125 -1.421875 
Q 19.734375 -1.421875 13.25 4.234375 
Q 6.78125 9.90625 6.78125 20.515625 
Q 6.78125 27.484375 10.78125 32.3125 
Q 14.796875 37.15625 21.921875 38.8125 
z
M 18.3125 54.390625 
Q 18.3125 48.734375 21.84375 45.5625 
Q 25.390625 42.390625 31.78125 42.390625 
Q 38.140625 42.390625 41.71875 45.5625 
Q 45.3125 48.734375 45.3125 54.390625 
Q 45.3125 60.0625 41.71875 63.234375 
Q 38.140625 66.40625 31.78125 66.40625 
Q 25.390625 66.40625 21.84375 63.234375 
Q 18.3125 60.0625 18.3125 54.390625 
z
" id="DejaVuSans-56"/>
       </defs>
       <use xlink:href="#DejaVuSans-56"/>
       <use x="63.623047" xlink:href="#DejaVuSans-48"/>
      </g>
     </g>
    </g>
   </g>
   <g id="matplotlib.axis_2">
    <g id="ytick_1">
     <g id="line2d_6">
      <defs>
       <path d="M 0 0 
L -3.5 0 
" id="m8056e106f5" style="stroke:#000000;stroke-width:0.8;"/>
      </defs>
      <g>
       <use style="stroke:#000000;stroke-width:0.8;" x="57.6" xlink:href="#m8056e106f5" y="281.421643"/>
      </g>
     </g>
     <g id="text_6">
      <!-- 10 -->
      <g transform="translate(37.875 285.220862)scale(0.1 -0.1)">
       <defs>
        <path d="M 12.40625 8.296875 
L 28.515625 8.296875 
L 28.515625 63.921875 
L 10.984375 60.40625 
L 10.984375 69.390625 
L 28.421875 72.90625 
L 38.28125 72.90625 
L 38.28125 8.296875 
L 54.390625 8.296875 
L 54.390625 0 
L 12.40625 0 
z
" id="DejaVuSans-49"/>
       </defs>
       <use xlink:href="#DejaVuSans-49"/>
       <use x="63.623047" xlink:href="#DejaVuSans-48"/>
      </g>
     </g>
    </g>
    <g id="ytick_2">
     <g id="line2d_7">
      <g>
       <use style="stroke:#000000;stroke-width:0.8;" x="57.6" xlink:href="#m8056e106f5" y="246.714292"/>
      </g>
     </g>
     <g id="text_7">
      <!-- 20 -->
      <g transform="translate(37.875 250.51351)scale(0.1 -0.1)">
       <use xlink:href="#DejaVuSans-50"/>
       <use x="63.623047" xlink:href="#DejaVuSans-48"/>
      </g>
     </g>
    </g>
    <g id="ytick_3">
     <g id="line2d_8">
      <g>
       <use style="stroke:#000000;stroke-width:0.8;" x="57.6" xlink:href="#m8056e106f5" y="212.00694"/>
      </g>
     </g>
     <g id="text_8">
      <!-- 30 -->
      <g transform="translate(37.875 215.806159)scale(0.1 -0.1)">
       <defs>
        <path d="M 40.578125 39.3125 
Q 47.65625 37.796875 51.625 33 
Q 55.609375 28.21875 55.609375 21.1875 
Q 55.609375 10.40625 48.1875 4.484375 
Q 40.765625 -1.421875 27.09375 -1.421875 
Q 22.515625 -1.421875 17.65625 -0.515625 
Q 12.796875 0.390625 7.625 2.203125 
L 7.625 11.71875 
Q 11.71875 9.328125 16.59375 8.109375 
Q 21.484375 6.890625 26.8125 6.890625 
Q 36.078125 6.890625 40.9375 10.546875 
Q 45.796875 14.203125 45.796875 21.1875 
Q 45.796875 27.640625 41.28125 31.265625 
Q 36.765625 34.90625 28.71875 34.90625 
L 20.21875 34.90625 
L 20.21875 43.015625 
L 29.109375 43.015625 
Q 36.375 43.015625 40.234375 45.921875 
Q 44.09375 48.828125 44.09375 54.296875 
Q 44.09375 59.90625 40.109375 62.90625 
Q 36.140625 65.921875 28.71875 65.921875 
Q 24.65625 65.921875 20.015625 65.03125 
Q 15.375 64.15625 9.8125 62.3125 
L 9.8125 71.09375 
Q 15.4375 72.65625 20.34375 73.4375 
Q 25.25 74.21875 29.59375 74.21875 
Q 40.828125 74.21875 47.359375 69.109375 
Q 53.90625 64.015625 53.90625 55.328125 
Q 53.90625 49.265625 50.4375 45.09375 
Q 46.96875 40.921875 40.578125 39.3125 
z
" id="DejaVuSans-51"/>
       </defs>
       <use xlink:href="#DejaVuSans-51"/>
       <use x="63.623047" xlink:href="#DejaVuSans-48"/>
      </g>
     </g>
    </g>
    <g id="ytick_4">
     <g id="line2d_9">
      <g>
       <use style="stroke:#000000;stroke-width:0.8;" x="57.6" xlink:href="#m8056e106f5" y="177.299588"/>
      </g>
     </g>
     <g id="text_9">
      <!-- 40 -->
      <g transform="translate(37.875 181.098807)scale(0.1 -0.1)">
       <use xlink:href="#DejaVuSans-52"/>
       <use x="63.623047" xlink:href="#DejaVuSans-48"/>
      </g>
     </g>
    </g>
    <g id="ytick_5">
     <g id="line2d_10">
      <g>
       <use style="stroke:#000000;stroke-width:0.8;" x="57.6" xlink:href="#m8056e106f5" y="142.592237"/>
      </g>
     </g>
     <g id="text_10">
      <!-- 50 -->
      <g transform="translate(37.875 146.391455)scale(0.1 -0.1)">
       <defs>
        <path d="M 10.796875 72.90625 
L 49.515625 72.90625 
L 49.515625 64.59375 
L 19.828125 64.59375 
L 19.828125 46.734375 
Q 21.96875 47.46875 24.109375 47.828125 
Q 26.265625 48.1875 28.421875 48.1875 
Q 40.625 48.1875 47.75 41.5 
Q 54.890625 34.8125 54.890625 23.390625 
Q 54.890625 11.625 47.5625 5.09375 
Q 40.234375 -1.421875 26.90625 -1.421875 
Q 22.3125 -1.421875 17.546875 -0.640625 
Q 12.796875 0.140625 7.71875 1.703125 
L 7.71875 11.625 
Q 12.109375 9.234375 16.796875 8.0625 
Q 21.484375 6.890625 26.703125 6.890625 
Q 35.15625 6.890625 40.078125 11.328125 
Q 45.015625 15.765625 45.015625 23.390625 
Q 45.015625 31 40.078125 35.4375 
Q 35.15625 39.890625 26.703125 39.890625 
Q 22.75 39.890625 18.8125 39.015625 
Q 14.890625 38.140625 10.796875 36.28125 
z
" id="DejaVuSans-53"/>
       </defs>
       <use xlink:href="#DejaVuSans-53"/>
       <use x="63.623047" xlink:href="#DejaVuSans-48"/>
      </g>
     </g>
    </g>
    <g id="ytick_6">
     <g id="line2d_11">
      <g>
       <use style="stroke:#000000;stroke-width:0.8;" x="57.6" xlink:href="#m8056e106f5" y="107.884885"/>
      </g>
     </g>
     <g id="text_11">
      <!-- 60 -->
      <g transform="translate(37.875 111.684104)scale(0.1 -0.1)">
       <use xlink:href="#DejaVuSans-54"/>
       <use x="63.623047" xlink:href="#DejaVuSans-48"/>
      </g>
     </g>
    </g>
    <g id="ytick_7">
     <g id="line2d_12">
      <g>
       <use style="stroke:#000000;stroke-width:0.8;" x="57.6" xlink:href="#m8056e106f5" y="73.177533"/>
      </g>
     </g>
     <g id="text_12">
      <!-- 70 -->
      <g transform="translate(37.875 76.976752)scale(0.1 -0.1)">
       <defs>
        <path d="M 8.203125 72.90625 
L 55.078125 72.90625 
L 55.078125 68.703125 
L 28.609375 0 
L 18.3125 0 
L 43.21875 64.59375 
L 8.203125 64.59375 
z
" id="DejaVuSans-55"/>
       </defs>
       <use xlink:href="#DejaVuSans-55"/>
       <use x="63.623047" xlink:href="#DejaVuSans-48"/>
      </g>
     </g>
    </g>
   </g>
   <g id="line2d_13">
    <path clip-path="url(#p0aaee84608)" d="M 248.033584 179.677042 
L 245.597128 182.162088 
L 243.323796 184.810259 
L 241.210119 187.611143 
L 239.263036 190.547384 
L 237.48602 193.612044 
L 235.886011 196.784296 
L 234.46301 200.053728 
L 233.223957 203.406458 
L 232.172324 206.832074 
L 231.308111 210.30628 
L 230.64173 213.825605 
L 230.173181 217.372697 
L 229.909405 220.933671 
L 229.850402 224.494645 
L 230.006586 228.041737 
L 230.374484 231.561062 
L 230.964508 235.038739 
L 231.77319 238.460883 
L 232.81441 241.813614 
L 234.084699 245.083046 
L 235.587528 248.258769 
L 237.309012 251.330369 
L 239.2318 254.290907 
L 241.348948 257.129968 
L 243.639633 259.840612 
L 246.093443 262.415898 
L 248.693024 264.848883 
L 251.427963 267.129156 
L 254.277437 269.249775 
L 257.231032 271.203799 
L 260.278338 272.987757 
L 263.40547 274.594707 
L 266.612429 276.035062 
L 269.885333 277.305352 
L 273.22418 278.405575 
L 276.615088 279.342673 
L 280.054587 280.116647 
L 283.535734 280.730967 
L 287.051589 281.182163 
L 290.591739 281.473704 
L 294.152713 281.605592 
L 297.717158 281.574356 
L 301.271191 281.369582 
L 304.804399 280.987802 
L 308.3029 280.422072 
L 311.74934 279.665451 
L 315.136778 278.710999 
L 318.444388 277.551774 
L 321.66176 276.184304 
L 324.77848 274.601649 
L 327.780666 272.803808 
L 330.661376 270.801194 
L 333.413669 268.607689 
L 336.037545 266.240648 
L 338.519121 263.713953 
L 340.861867 261.034545 
L 343.051901 258.22672 
L 345.085752 255.293949 
L 346.959949 252.257056 
L 348.66755 249.126453 
L 350.201615 245.912552 
L 351.562143 242.632707 
L 352.745664 239.286918 
L 353.748707 235.892539 
L 354.571271 232.456512 
L 355.202945 228.989247 
L 355.647199 225.501158 
L 355.900562 221.999187 
L 355.959565 218.493744 
L 355.820735 214.995243 
L 355.484074 211.510625 
L 354.966935 208.046831 
L 354.272788 204.610803 
L 353.415516 201.202541 
L 352.402061 197.828987 
L 351.242836 194.497081 
L 349.951722 191.210295 
L 348.535662 187.97557 
L 347.008539 184.796376 
L 345.373823 181.676185 
L 341.826731 175.623223 
L 337.942979 169.8028 
L 333.764213 164.201034 
L 329.335555 158.793628 
L 324.702124 153.563231 
L 319.902097 148.495957 
L 314.963241 143.557101 
L 307.369272 136.341443 
L 297.047306 126.939221 
L 284.163937 115.183841 
L 276.608147 107.919592 
L 269.253659 100.40198 
L 264.346039 95.400651 
L 259.303061 90.562446 
L 256.703481 88.243995 
L 254.027544 86.019253 
L 251.268309 83.898634 
L 248.408423 81.899491 
L 245.454828 80.032235 
L 242.407522 78.293397 
L 239.283861 76.686447 
L 236.087314 75.207913 
L 232.831764 73.861268 
L 229.520683 72.646511 
L 226.167952 71.563641 
L 222.777044 70.609189 
L 219.361841 69.790096 
L 215.925813 69.099419 
L 212.479373 68.540631 
L 209.01905 68.103318 
L 205.544844 67.78054 
L 198.568666 67.457762 
L 191.557781 67.527176 
L 184.51913 67.940194 
L 177.477009 68.662107 
L 173.971566 69.158422 
L 170.486948 69.765801 
L 167.040508 70.498126 
L 163.635717 71.36581 
L 160.286458 72.382735 
L 156.999671 73.562785 
L 153.789241 74.923313 
L 150.662109 76.471261 
L 147.628686 78.220511 
L 144.699386 80.167594 
L 141.881149 82.295155 
L 139.187858 84.592781 
L 136.619514 87.046591 
L 134.196941 89.646172 
L 131.916668 92.374169 
L 129.79952 95.220172 
L 127.845496 98.173768 
L 126.068479 101.217603 
L 124.475412 104.341264 
L 123.055881 107.537811 
L 121.806417 110.800303 
L 120.713135 114.118325 
L 119.772566 117.49188 
L 118.967355 120.907083 
L 118.290562 124.363936 
L 117.287519 131.364408 
L 116.687082 138.441237 
L 116.412894 145.538891 
L 116.385128 152.608778 
L 116.641963 163.038338 
L 116.898797 169.79933 
L 116.898797 169.79933 
" style="fill:none;stroke:#fea952;stroke-linecap:square;"/>
   </g>
   <g id="line2d_14">
    <path clip-path="url(#p0aaee84608)" d="M 257.946743 189.396369 
L 256.131018 191.204942 
L 254.405383 193.172943 
L 252.780325 195.283584 
L 251.273039 197.511282 
L 249.881525 199.864043 
L 248.615491 202.324727 
L 247.485132 204.866251 
L 246.495594 207.48073 
L 245.644704 210.183345 
L 244.948677 212.889109 
L 244.405113 215.643665 
L 244.01819 218.398253 
L 243.79044 221.163669 
L 243.719905 223.883953 
L 243.814287 226.598328 
L 244.061828 229.238858 
L 244.47534 231.846017 
L 245.031484 234.343401 
L 245.754922 236.785772 
L 246.633471 239.144666 
L 247.698143 241.471351 
L 248.951881 243.768647 
L 250.360967 245.99165 
L 251.952657 248.169087 
L 253.690542 250.263803 
L 255.580001 252.279761 
L 257.583327 254.185931 
L 259.716431 255.991951 
L 261.937441 257.671331 
L 264.244901 259.222911 
L 266.623647 260.639757 
L 269.093419 261.930455 
L 271.635638 263.092751 
L 274.230247 264.119838 
L 276.9222 265.024219 
L 279.662888 265.798414 
L 282.467238 266.444955 
L 285.302863 266.960953 
L 288.191032 267.346061 
L 291.105569 267.600276 
L 294.031056 267.723185 
L 296.918586 267.714402 
L 299.779751 267.566987 
L 302.588228 267.282889 
L 305.325979 266.862058 
L 307.984252 266.302811 
L 310.545032 265.6094 
L 313.013914 264.774998 
L 315.376047 263.805861 
L 317.645893 262.691055 
L 319.856234 261.404711 
L 322.008822 259.944429 
L 324.114425 258.299436 
L 326.132787 256.51276 
L 328.067789 254.575807 
L 329.915005 252.496263 
L 331.643777 250.315288 
L 333.271511 248.002875 
L 334.772176 245.60918 
L 336.138699 243.146158 
L 337.378178 240.5932 
L 338.473926 238.002954 
L 339.431846 235.352672 
L 340.247257 232.660374 
L 340.913139 229.968243 
L 341.431253 227.235241 
L 341.80045 224.499362 
L 342.019588 221.765546 
L 342.087542 219.044221 
L 342.002138 216.330307 
L 341.75332 213.560607 
L 341.358904 210.795928 
L 340.80921 207.997263 
L 340.119577 205.196795 
L 339.290037 202.390879 
L 338.321102 199.572989 
L 337.234017 196.777702 
L 334.711128 191.23918 
L 331.77865 185.823769 
L 328.482635 180.549145 
L 324.861846 175.412862 
L 320.940846 170.390468 
L 316.733963 165.45602 
L 312.313121 160.6338 
L 307.693849 155.889522 
L 300.440307 148.868149 
L 292.900693 141.909394 
L 274.641314 125.286102 
L 266.757089 117.701857 
L 259.300424 110.080263 
L 252.338692 103.069415 
L 247.828102 98.919372 
L 243.314381 95.27717 
L 240.989843 93.634085 
L 238.574357 92.090227 
L 236.056637 90.63853 
L 233.455692 89.286783 
L 230.780757 88.036651 
L 228.050089 86.894749 
L 225.253787 85.857477 
L 222.406435 84.927287 
L 219.539217 84.109282 
L 213.703918 82.803405 
L 207.734757 81.926727 
L 201.618845 81.444748 
L 195.382446 81.326699 
L 189.010681 81.542871 
L 182.574229 82.052481 
L 176.355459 82.835157 
L 170.468888 83.95109 
L 167.669131 84.649921 
L 164.977641 85.44906 
L 162.416683 86.345274 
L 159.948118 87.36535 
L 157.597343 88.497838 
L 155.313743 89.782343 
L 153.064041 91.247692 
L 150.891363 92.856977 
L 148.778208 94.630771 
L 146.775923 96.511442 
L 144.84877 98.549799 
L 143.055537 100.660401 
L 141.377964 102.880177 
L 139.834807 105.173229 
L 138.435895 107.524985 
L 137.163507 109.975826 
L 136.020559 112.503007 
L 134.992024 115.144932 
L 134.086043 117.84678 
L 133.285017 120.677742 
L 132.591635 123.574487 
L 132.00084 126.546666 
L 131.105273 132.708178 
L 130.553471 139.118969 
L 130.294876 145.702048 
L 130.266327 152.388878 
L 130.515565 162.529215 
L 130.771031 169.254195 
L 130.771031 169.254195 
" style="fill:none;stroke:#ffffff;stroke-linecap:square;"/>
   </g>
   <g id="line2d_15">
    <path clip-path="url(#p0aaee84608)" d="M 238.120425 169.957715 
L 235.063238 173.119234 
L 232.24221 176.447575 
L 229.639912 179.938701 
L 227.253033 183.583487 
L 225.090515 187.360044 
L 223.156531 191.243864 
L 221.440888 195.241205 
L 219.95232 199.332187 
L 218.699944 203.480803 
L 217.667545 207.723451 
L 216.878347 212.007546 
L 216.328172 216.34714 
L 216.02837 220.703673 
L 215.9809 225.105338 
L 216.198884 229.485145 
L 216.687139 233.883266 
L 217.453677 238.23146 
L 218.514895 242.578366 
L 219.873899 246.841456 
L 221.535927 251.021427 
L 223.476913 255.046187 
L 225.666144 258.892092 
L 228.102632 262.590164 
L 230.745239 266.090849 
L 233.588725 269.417421 
L 236.606885 272.552034 
L 239.80272 275.511835 
L 243.139495 278.266361 
L 246.617432 280.828219 
L 250.217164 283.184688 
L 253.933028 285.335756 
L 257.717521 287.258959 
L 261.589221 288.977373 
L 265.540418 290.490865 
L 269.526159 291.78693 
L 273.567288 292.886932 
L 277.641935 293.788339 
L 281.768605 294.500982 
L 285.912145 295.018264 
L 290.077908 295.347133 
L 294.27437 295.488 
L 298.51573 295.43431 
L 302.76263 295.172178 
L 307.020571 294.692714 
L 311.279822 293.982086 
L 315.514428 293.028092 
L 319.728524 291.812599 
L 323.874863 290.328549 
L 327.947473 288.562747 
L 331.911067 286.512243 
L 335.705099 284.202905 
L 339.31393 281.657959 
L 342.712914 278.915943 
L 345.942303 275.968536 
L 348.970452 272.852099 
L 351.808729 269.572827 
L 354.460024 266.138153 
L 356.899992 262.585023 
L 359.147721 258.904932 
L 361.196402 255.106747 
L 363.025052 251.231904 
L 364.650361 247.26246 
L 366.059482 243.221165 
L 367.250156 239.124705 
L 368.229403 234.94478 
L 368.974637 230.743254 
L 369.493947 226.502955 
L 369.781537 222.232827 
L 369.831588 217.943267 
L 369.639333 213.660179 
L 369.214828 209.460643 
L 368.574966 205.297734 
L 367.736365 201.224343 
L 366.711455 197.208288 
L 365.514086 193.267095 
L 364.164569 189.421173 
L 362.669427 185.642888 
L 361.049747 181.964437 
L 359.30595 178.353572 
L 357.459539 174.844532 
L 355.512143 171.413166 
L 353.478737 168.075588 
L 349.170614 161.637248 
L 344.603623 155.526748 
L 339.810809 149.682915 
L 334.851321 144.090647 
L 329.780709 138.741518 
L 324.612905 133.576118 
L 316.77777 126.132809 
L 306.346712 116.631113 
L 293.686561 105.08158 
L 286.459204 98.137327 
L 279.206893 90.723697 
L 274.058889 85.481145 
L 268.543544 80.201485 
L 265.578859 77.568617 
L 262.487437 75.0117 
L 259.222237 72.520099 
L 255.827004 70.164896 
L 252.335299 67.974244 
L 248.758407 65.948264 
L 245.11203 64.08611 
L 241.39387 62.379176 
L 237.613439 60.827787 
L 233.787579 59.435544 
L 229.92947 58.199996 
L 226.014871 57.109096 
L 222.097728 56.179403 
L 218.147708 55.395434 
L 214.220041 54.767247 
L 210.303343 54.27991 
L 206.386777 53.923152 
L 202.501607 53.692903 
L 194.750943 53.568 
L 187.073172 53.844672 
L 179.418439 54.466522 
L 171.587673 55.481686 
L 167.601421 56.186045 
L 163.612128 57.045161 
L 159.602303 58.081698 
L 155.595274 59.31641 
L 151.58266 60.780296 
L 147.630364 62.481276 
L 143.726874 64.444684 
L 139.94363 66.65868 
L 136.33473 69.087496 
L 132.870935 71.733333 
L 129.597509 74.554792 
L 126.463106 77.58174 
L 123.545113 80.742544 
L 120.777799 84.087938 
L 118.221076 87.560168 
L 115.856185 91.174307 
L 113.701064 94.910221 
L 111.787317 98.706703 
L 110.091203 102.572616 
L 108.62081 106.455673 
L 107.340227 110.389871 
L 106.260115 114.306018 
L 105.343076 118.239679 
L 104.580284 122.181205 
L 103.963737 126.096565 
L 103.469766 130.020639 
L 102.820694 137.763506 
L 102.530912 145.375733 
L 102.503929 152.828679 
L 102.768361 163.547461 
L 103.026563 170.344464 
L 103.026563 170.344464 
" style="fill:none;stroke:#ffffff;stroke-linecap:square;"/>
   </g>
   <g id="patch_3">
    <path d="M 57.6 307.584 
L 57.6 41.472 
" style="fill:none;stroke:#000000;stroke-linecap:square;stroke-linejoin:miter;stroke-width:0.8;"/>
   </g>
   <g id="patch_4">
    <path d="M 414.72 307.584 
L 414.72 41.472 
" style="fill:none;stroke:#000000;stroke-linecap:square;stroke-linejoin:miter;stroke-width:0.8;"/>
   </g>
   <g id="patch_5">
    <path d="M 57.6 307.584 
L 414.72 307.584 
" style="fill:none;stroke:#000000;stroke-linecap:square;stroke-linejoin:miter;stroke-width:0.8;"/>
   </g>
   <g id="patch_6">
    <path d="M 57.6 41.472 
L 414.72 41.472 
" style="fill:none;stroke:#000000;stroke-linecap:square;stroke-linejoin:miter;stroke-width:0.8;"/>
   </g>
  </g>
 </g>
 <defs>
  <clipPath id="p0aaee84608">
   <rect height="266.112" width="357.12" x="57.6" y="41.472"/>
  </clipPath>
 </defs>
</svg>
