<?xml version="1.0" encoding="utf-8" standalone="no"?>
<!DOCTYPE svg PUBLIC "-//W3C//DTD SVG 1.1//EN"
  "http://www.w3.org/Graphics/SVG/1.1/DTD/svg11.dtd">
<!-- Created with matplotlib (https://matplotlib.org/) -->
<svg height="345.6pt" version="1.1" viewBox="0 0 460.8 345.6" width="460.8pt" xmlns="http://www.w3.org/2000/svg" xmlns:xlink="http://www.w3.org/1999/xlink">
 <metadata>
  <rdf:RDF xmlns:cc="http://creativecommons.org/ns#" xmlns:dc="http://purl.org/dc/elements/1.1/" xmlns:rdf="http://www.w3.org/1999/02/22-rdf-syntax-ns#">
   <cc:Work>
    <dc:type rdf:resource="http://purl.org/dc/dcmitype/StillImage"/>
    <dc:date>2021-01-22T10:01:14.157558</dc:date>
    <dc:format>image/svg+xml</dc:format>
    <dc:creator>
     <cc:Agent>
      <dc:title>Matplotlib v3.3.3, https://matplotlib.org/</dc:title>
     </cc:Agent>
    </dc:creator>
   </cc:Work>
  </rdf:RDF>
 </metadata>
 <defs>
  <style type="text/css">*{stroke-linecap:butt;stroke-linejoin:round;}</style>
 </defs>
 <g id="figure_1">
  <g id="patch_1">
   <path d="M 0 345.6 
L 460.8 345.6 
L 460.8 0 
L 0 0 
z
" style="fill:#ffffff;"/>
  </g>
  <g id="axes_1">
   <g id="patch_2">
    <path d="M 57.6 307.584 
L 414.72 307.584 
L 414.72 41.472 
L 57.6 41.472 
z
" style="fill:#7d9051;"/>
   </g>
   <g id="matplotlib.axis_1">
    <g id="xtick_1">
     <g id="line2d_1">
      <defs>
       <path d="M 0 0 
L 0 3.5 
" id="mfab223a948" style="stroke:#000000;stroke-width:0.8;"/>
      </defs>
      <g>
       <use style="stroke:#000000;stroke-width:0.8;" x="78.26919" xlink:href="#mfab223a948" y="307.584"/>
      </g>
     </g>
     <g id="text_1">
      <!-- −40 -->
      <g transform="translate(67.716846 322.182437)scale(0.1 -0.1)">
       <defs>
        <path d="M 10.59375 35.5 
L 73.1875 35.5 
L 73.1875 27.203125 
L 10.59375 27.203125 
z
" id="DejaVuSans-8722"/>
        <path d="M 37.796875 64.3125 
L 12.890625 25.390625 
L 37.796875 25.390625 
z
M 35.203125 72.90625 
L 47.609375 72.90625 
L 47.609375 25.390625 
L 58.015625 25.390625 
L 58.015625 17.1875 
L 47.609375 17.1875 
L 47.609375 0 
L 37.796875 0 
L 37.796875 17.1875 
L 4.890625 17.1875 
L 4.890625 26.703125 
z
" id="DejaVuSans-52"/>
        <path d="M 31.78125 66.40625 
Q 24.171875 66.40625 20.328125 58.90625 
Q 16.5 51.421875 16.5 36.375 
Q 16.5 21.390625 20.328125 13.890625 
Q 24.171875 6.390625 31.78125 6.390625 
Q 39.453125 6.390625 43.28125 13.890625 
Q 47.125 21.390625 47.125 36.375 
Q 47.125 51.421875 43.28125 58.90625 
Q 39.453125 66.40625 31.78125 66.40625 
z
M 31.78125 74.21875 
Q 44.046875 74.21875 50.515625 64.515625 
Q 56.984375 54.828125 56.984375 36.375 
Q 56.984375 17.96875 50.515625 8.265625 
Q 44.046875 -1.421875 31.78125 -1.421875 
Q 19.53125 -1.421875 13.0625 8.265625 
Q 6.59375 17.96875 6.59375 36.375 
Q 6.59375 54.828125 13.0625 64.515625 
Q 19.53125 74.21875 31.78125 74.21875 
z
" id="DejaVuSans-48"/>
       </defs>
       <use xlink:href="#DejaVuSans-8722"/>
       <use x="83.789062" xlink:href="#DejaVuSans-52"/>
       <use x="147.412109" xlink:href="#DejaVuSans-48"/>
      </g>
     </g>
    </g>
    <g id="xtick_2">
     <g id="line2d_2">
      <g>
       <use style="stroke:#000000;stroke-width:0.8;" x="118.284212" xlink:href="#mfab223a948" y="307.584"/>
      </g>
     </g>
     <g id="text_2">
      <!-- −20 -->
      <g transform="translate(107.731868 322.182437)scale(0.1 -0.1)">
       <defs>
        <path d="M 19.1875 8.296875 
L 53.609375 8.296875 
L 53.609375 0 
L 7.328125 0 
L 7.328125 8.296875 
Q 12.9375 14.109375 22.625 23.890625 
Q 32.328125 33.6875 34.8125 36.53125 
Q 39.546875 41.84375 41.421875 45.53125 
Q 43.3125 49.21875 43.3125 52.78125 
Q 43.3125 58.59375 39.234375 62.25 
Q 35.15625 65.921875 28.609375 65.921875 
Q 23.96875 65.921875 18.8125 64.3125 
Q 13.671875 62.703125 7.8125 59.421875 
L 7.8125 69.390625 
Q 13.765625 71.78125 18.9375 73 
Q 24.125 74.21875 28.421875 74.21875 
Q 39.75 74.21875 46.484375 68.546875 
Q 53.21875 62.890625 53.21875 53.421875 
Q 53.21875 48.921875 51.53125 44.890625 
Q 49.859375 40.875 45.40625 35.40625 
Q 44.1875 33.984375 37.640625 27.21875 
Q 31.109375 20.453125 19.1875 8.296875 
z
" id="DejaVuSans-50"/>
       </defs>
       <use xlink:href="#DejaVuSans-8722"/>
       <use x="83.789062" xlink:href="#DejaVuSans-50"/>
       <use x="147.412109" xlink:href="#DejaVuSans-48"/>
      </g>
     </g>
    </g>
    <g id="xtick_3">
     <g id="line2d_3">
      <g>
       <use style="stroke:#000000;stroke-width:0.8;" x="158.299235" xlink:href="#mfab223a948" y="307.584"/>
      </g>
     </g>
     <g id="text_3">
      <!-- 0 -->
      <g transform="translate(155.117985 322.182437)scale(0.1 -0.1)">
       <use xlink:href="#DejaVuSans-48"/>
      </g>
     </g>
    </g>
    <g id="xtick_4">
     <g id="line2d_4">
      <g>
       <use style="stroke:#000000;stroke-width:0.8;" x="198.314257" xlink:href="#mfab223a948" y="307.584"/>
      </g>
     </g>
     <g id="text_4">
      <!-- 20 -->
      <g transform="translate(191.951757 322.182437)scale(0.1 -0.1)">
       <use xlink:href="#DejaVuSans-50"/>
       <use x="63.623047" xlink:href="#DejaVuSans-48"/>
      </g>
     </g>
    </g>
    <g id="xtick_5">
     <g id="line2d_5">
      <g>
       <use style="stroke:#000000;stroke-width:0.8;" x="238.329279" xlink:href="#mfab223a948" y="307.584"/>
      </g>
     </g>
     <g id="text_5">
      <!-- 40 -->
      <g transform="translate(231.966779 322.182437)scale(0.1 -0.1)">
       <use xlink:href="#DejaVuSans-52"/>
       <use x="63.623047" xlink:href="#DejaVuSans-48"/>
      </g>
     </g>
    </g>
    <g id="xtick_6">
     <g id="line2d_6">
      <g>
       <use style="stroke:#000000;stroke-width:0.8;" x="278.344302" xlink:href="#mfab223a948" y="307.584"/>
      </g>
     </g>
     <g id="text_6">
      <!-- 60 -->
      <g transform="translate(271.981802 322.182437)scale(0.1 -0.1)">
       <defs>
        <path d="M 33.015625 40.375 
Q 26.375 40.375 22.484375 35.828125 
Q 18.609375 31.296875 18.609375 23.390625 
Q 18.609375 15.53125 22.484375 10.953125 
Q 26.375 6.390625 33.015625 6.390625 
Q 39.65625 6.390625 43.53125 10.953125 
Q 47.40625 15.53125 47.40625 23.390625 
Q 47.40625 31.296875 43.53125 35.828125 
Q 39.65625 40.375 33.015625 40.375 
z
M 52.59375 71.296875 
L 52.59375 62.3125 
Q 48.875 64.0625 45.09375 64.984375 
Q 41.3125 65.921875 37.59375 65.921875 
Q 27.828125 65.921875 22.671875 59.328125 
Q 17.53125 52.734375 16.796875 39.40625 
Q 19.671875 43.65625 24.015625 45.921875 
Q 28.375 48.1875 33.59375 48.1875 
Q 44.578125 48.1875 50.953125 41.515625 
Q 57.328125 34.859375 57.328125 23.390625 
Q 57.328125 12.15625 50.6875 5.359375 
Q 44.046875 -1.421875 33.015625 -1.421875 
Q 20.359375 -1.421875 13.671875 8.265625 
Q 6.984375 17.96875 6.984375 36.375 
Q 6.984375 53.65625 15.1875 63.9375 
Q 23.390625 74.21875 37.203125 74.21875 
Q 40.921875 74.21875 44.703125 73.484375 
Q 48.484375 72.75 52.59375 71.296875 
z
" id="DejaVuSans-54"/>
       </defs>
       <use xlink:href="#DejaVuSans-54"/>
       <use x="63.623047" xlink:href="#DejaVuSans-48"/>
      </g>
     </g>
    </g>
    <g id="xtick_7">
     <g id="line2d_7">
      <g>
       <use style="stroke:#000000;stroke-width:0.8;" x="318.359324" xlink:href="#mfab223a948" y="307.584"/>
      </g>
     </g>
     <g id="text_7">
      <!-- 80 -->
      <g transform="translate(311.996824 322.182437)scale(0.1 -0.1)">
       <defs>
        <path d="M 31.78125 34.625 
Q 24.75 34.625 20.71875 30.859375 
Q 16.703125 27.09375 16.703125 20.515625 
Q 16.703125 13.921875 20.71875 10.15625 
Q 24.75 6.390625 31.78125 6.390625 
Q 38.8125 6.390625 42.859375 10.171875 
Q 46.921875 13.96875 46.921875 20.515625 
Q 46.921875 27.09375 42.890625 30.859375 
Q 38.875 34.625 31.78125 34.625 
z
M 21.921875 38.8125 
Q 15.578125 40.375 12.03125 44.71875 
Q 8.5 49.078125 8.5 55.328125 
Q 8.5 64.0625 14.71875 69.140625 
Q 20.953125 74.21875 31.78125 74.21875 
Q 42.671875 74.21875 48.875 69.140625 
Q 55.078125 64.0625 55.078125 55.328125 
Q 55.078125 49.078125 51.53125 44.71875 
Q 48 40.375 41.703125 38.8125 
Q 48.828125 37.15625 52.796875 32.3125 
Q 56.78125 27.484375 56.78125 20.515625 
Q 56.78125 9.90625 50.3125 4.234375 
Q 43.84375 -1.421875 31.78125 -1.421875 
Q 19.734375 -1.421875 13.25 4.234375 
Q 6.78125 9.90625 6.78125 20.515625 
Q 6.78125 27.484375 10.78125 32.3125 
Q 14.796875 37.15625 21.921875 38.8125 
z
M 18.3125 54.390625 
Q 18.3125 48.734375 21.84375 45.5625 
Q 25.390625 42.390625 31.78125 42.390625 
Q 38.140625 42.390625 41.71875 45.5625 
Q 45.3125 48.734375 45.3125 54.390625 
Q 45.3125 60.0625 41.71875 63.234375 
Q 38.140625 66.40625 31.78125 66.40625 
Q 25.390625 66.40625 21.84375 63.234375 
Q 18.3125 60.0625 18.3125 54.390625 
z
" id="DejaVuSans-56"/>
       </defs>
       <use xlink:href="#DejaVuSans-56"/>
       <use x="63.623047" xlink:href="#DejaVuSans-48"/>
      </g>
     </g>
    </g>
    <g id="xtick_8">
     <g id="line2d_8">
      <g>
       <use style="stroke:#000000;stroke-width:0.8;" x="358.374347" xlink:href="#mfab223a948" y="307.584"/>
      </g>
     </g>
     <g id="text_8">
      <!-- 100 -->
      <g transform="translate(348.830597 322.182437)scale(0.1 -0.1)">
       <defs>
        <path d="M 12.40625 8.296875 
L 28.515625 8.296875 
L 28.515625 63.921875 
L 10.984375 60.40625 
L 10.984375 69.390625 
L 28.421875 72.90625 
L 38.28125 72.90625 
L 38.28125 8.296875 
L 54.390625 8.296875 
L 54.390625 0 
L 12.40625 0 
z
" id="DejaVuSans-49"/>
       </defs>
       <use xlink:href="#DejaVuSans-49"/>
       <use x="63.623047" xlink:href="#DejaVuSans-48"/>
       <use x="127.246094" xlink:href="#DejaVuSans-48"/>
      </g>
     </g>
    </g>
    <g id="xtick_9">
     <g id="line2d_9">
      <g>
       <use style="stroke:#000000;stroke-width:0.8;" x="398.389369" xlink:href="#mfab223a948" y="307.584"/>
      </g>
     </g>
     <g id="text_9">
      <!-- 120 -->
      <g transform="translate(388.845619 322.182437)scale(0.1 -0.1)">
       <use xlink:href="#DejaVuSans-49"/>
       <use x="63.623047" xlink:href="#DejaVuSans-50"/>
       <use x="127.246094" xlink:href="#DejaVuSans-48"/>
      </g>
     </g>
    </g>
   </g>
   <g id="matplotlib.axis_2">
    <g id="ytick_1">
     <g id="line2d_10">
      <defs>
       <path d="M 0 0 
L -3.5 0 
" id="mc3e9bcbc1e" style="stroke:#000000;stroke-width:0.8;"/>
      </defs>
      <g>
       <use style="stroke:#000000;stroke-width:0.8;" x="57.6" xlink:href="#mc3e9bcbc1e" y="274.370583"/>
      </g>
     </g>
     <g id="text_10">
      <!-- 20 -->
      <g transform="translate(37.875 278.169802)scale(0.1 -0.1)">
       <use xlink:href="#DejaVuSans-50"/>
       <use x="63.623047" xlink:href="#DejaVuSans-48"/>
      </g>
     </g>
    </g>
    <g id="ytick_2">
     <g id="line2d_11">
      <g>
       <use style="stroke:#000000;stroke-width:0.8;" x="57.6" xlink:href="#mc3e9bcbc1e" y="234.35556"/>
      </g>
     </g>
     <g id="text_11">
      <!-- 40 -->
      <g transform="translate(37.875 238.154779)scale(0.1 -0.1)">
       <use xlink:href="#DejaVuSans-52"/>
       <use x="63.623047" xlink:href="#DejaVuSans-48"/>
      </g>
     </g>
    </g>
    <g id="ytick_3">
     <g id="line2d_12">
      <g>
       <use style="stroke:#000000;stroke-width:0.8;" x="57.6" xlink:href="#mc3e9bcbc1e" y="194.340538"/>
      </g>
     </g>
     <g id="text_12">
      <!-- 60 -->
      <g transform="translate(37.875 198.139757)scale(0.1 -0.1)">
       <use xlink:href="#DejaVuSans-54"/>
       <use x="63.623047" xlink:href="#DejaVuSans-48"/>
      </g>
     </g>
    </g>
    <g id="ytick_4">
     <g id="line2d_13">
      <g>
       <use style="stroke:#000000;stroke-width:0.8;" x="57.6" xlink:href="#mc3e9bcbc1e" y="154.325516"/>
      </g>
     </g>
     <g id="text_13">
      <!-- 80 -->
      <g transform="translate(37.875 158.124734)scale(0.1 -0.1)">
       <use xlink:href="#DejaVuSans-56"/>
       <use x="63.623047" xlink:href="#DejaVuSans-48"/>
      </g>
     </g>
    </g>
    <g id="ytick_5">
     <g id="line2d_14">
      <g>
       <use style="stroke:#000000;stroke-width:0.8;" x="57.6" xlink:href="#mc3e9bcbc1e" y="114.310493"/>
      </g>
     </g>
     <g id="text_14">
      <!-- 100 -->
      <g transform="translate(31.5125 118.109712)scale(0.1 -0.1)">
       <use xlink:href="#DejaVuSans-49"/>
       <use x="63.623047" xlink:href="#DejaVuSans-48"/>
       <use x="127.246094" xlink:href="#DejaVuSans-48"/>
      </g>
     </g>
    </g>
    <g id="ytick_6">
     <g id="line2d_15">
      <g>
       <use style="stroke:#000000;stroke-width:0.8;" x="57.6" xlink:href="#mc3e9bcbc1e" y="74.295471"/>
      </g>
     </g>
     <g id="text_15">
      <!-- 120 -->
      <g transform="translate(31.5125 78.094689)scale(0.1 -0.1)">
       <use xlink:href="#DejaVuSans-49"/>
       <use x="63.623047" xlink:href="#DejaVuSans-50"/>
       <use x="127.246094" xlink:href="#DejaVuSans-48"/>
      </g>
     </g>
    </g>
   </g>
   <g id="line2d_16">
    <path clip-path="url(#p5deab7bb09)" d="M 214.884478 294.378094 
L 215.380664 290.326573 
L 215.606749 286.301062 
L 215.586741 282.30156 
L 215.34265 278.326068 
L 214.900484 274.370583 
L 214.282252 270.435105 
L 213.083802 264.5609 
L 211.631256 258.720708 
L 208.894229 249.029069 
L 207.357652 243.208884 
L 206.52734 239.305419 
L 205.94112 235.371942 
L 205.651011 231.404453 
L 205.631004 227.410953 
L 205.837081 223.401448 
L 206.221225 219.387941 
L 207.03353 213.381686 
L 208.20397 205.420698 
L 208.626128 201.447206 
L 208.8182 197.469713 
L 208.692153 193.486217 
L 208.213973 189.504723 
L 207.40567 185.557241 
L 206.293252 181.673783 
L 204.90273 177.880359 
L 203.254111 174.210981 
L 201.389411 170.663649 
L 199.358649 167.214354 
L 196.107428 162.162458 
L 188.410539 150.472069 
L 185.379401 145.288123 
L 183.532708 141.71078 
L 181.870083 138.011391 
L 180.451551 134.205962 
L 179.343135 130.318503 
L 178.604858 126.375022 
L 178.39678 124.388277 
L 178.306746 122.397529 
L 178.338758 120.40278 
L 178.750912 116.423286 
L 179.579223 112.477805 
L 180.759667 108.598349 
L 182.238222 104.812928 
L 183.952865 101.151553 
L 185.863583 97.618227 
L 187.940362 94.196942 
L 190.155194 90.865691 
L 193.674515 85.999865 
L 197.379906 81.260085 
L 199.984884 78.210941 
L 202.729915 75.291845 
L 205.645009 72.53681 
L 208.756177 69.981851 
L 212.069421 67.666982 
L 215.572736 65.650225 
L 219.248116 63.979598 
L 221.144828 63.29334 
L 223.079554 62.713122 
L 225.050294 62.246947 
L 227.051045 61.898817 
L 229.075805 61.674733 
L 231.114571 61.570694 
L 233.157338 61.5887 
L 235.194102 61.732754 
L 237.214861 61.998854 
L 239.211611 62.391002 
L 241.172347 62.909196 
L 243.087066 63.553438 
L 244.949765 64.325728 
L 246.74844 65.222064 
L 248.483091 66.238446 
L 250.151718 67.364869 
L 253.298899 69.901821 
L 256.183982 72.760895 
L 258.810969 75.860058 
L 261.177857 79.127285 
L 263.322662 82.504553 
L 266.29978 87.698502 
L 270.237258 94.683125 
L 272.362056 98.118414 
L 274.642912 101.455667 
L 277.099835 104.650867 
L 279.746828 107.649993 
L 282.607902 110.409028 
L 285.697062 112.875955 
L 287.335677 113.986371 
L 289.038317 115.004754 
L 290.806981 115.9271 
L 292.645671 116.745407 
L 294.554387 117.455674 
L 296.539132 118.049897 
L 298.597905 118.524075 
L 300.736708 118.870205 
L 300.736708 118.870205 
" style="fill:none;stroke:#fea952;stroke-linecap:square;"/>
   </g>
   <g id="line2d_17">
    <path clip-path="url(#p5deab7bb09)" d="M 206.958811 293.268188 
L 207.398564 289.748504 
L 207.604144 286.221116 
L 207.593033 282.687186 
L 207.379363 279.122397 
L 206.981654 275.528259 
L 206.414963 271.902704 
L 205.29501 266.400142 
L 203.908598 260.82038 
L 201.185477 251.179238 
L 199.551304 244.972125 
L 198.633879 240.625019 
L 197.97178 236.105218 
L 197.64962 231.565123 
L 197.634067 227.099384 
L 197.863334 222.717757 
L 198.277845 218.412856 
L 199.123312 212.166562 
L 200.470671 202.679738 
L 200.757054 199.211241 
L 200.808925 195.912227 
L 200.572397 192.617452 
L 200.043048 189.287267 
L 199.237858 185.958409 
L 198.166968 182.650322 
L 196.864818 179.43233 
L 195.31326 176.244242 
L 193.540415 173.06296 
L 190.527668 168.239246 
L 180.468334 152.81332 
L 178.314402 149.047626 
L 176.282337 145.099025 
L 174.419553 140.933322 
L 172.803474 136.562867 
L 171.516731 131.990471 
L 171.021636 129.623337 
L 170.645388 127.208643 
L 170.401947 124.749852 
L 170.304772 122.269112 
L 170.358951 119.793879 
L 170.555523 117.371172 
L 170.881491 114.967165 
L 171.326269 112.613749 
L 172.522585 108.034198 
L 174.063934 103.648852 
L 175.875838 99.455214 
L 177.899145 95.464668 
L 180.089594 91.663349 
L 182.411536 88.022114 
L 186.057564 82.831581 
L 189.891665 77.796922 
L 192.637088 74.458846 
L 195.579468 71.176113 
L 198.76241 67.986574 
L 202.211993 64.952933 
L 205.938564 62.139821 
L 209.964704 59.593392 
L 212.076375 58.451368 
L 214.264661 57.400128 
L 216.525259 56.454033 
L 218.845909 55.627634 
L 221.237298 54.925044 
L 223.678384 54.362409 
L 226.170712 53.944378 
L 228.667939 53.682128 
L 231.185114 53.568 
L 233.721955 53.605638 
L 236.238943 53.798248 
L 238.757132 54.145862 
L 241.256482 54.653652 
L 243.724509 55.324043 
L 246.152171 56.160657 
L 248.519253 57.162849 
L 250.794285 58.31705 
L 252.960828 59.605351 
L 255.00284 60.999753 
L 256.94834 62.497385 
L 258.797888 64.087253 
L 262.18241 67.46307 
L 265.212423 71.056989 
L 267.879508 74.752818 
L 270.214737 78.436704 
L 273.300948 83.821425 
L 277.085031 90.541134 
L 279.023394 93.682803 
L 281.063365 96.678025 
L 283.195864 99.465647 
L 285.425881 102.01116 
L 287.755941 104.281567 
L 290.186605 106.250845 
L 292.738863 107.908696 
L 295.436749 109.244876 
L 298.335363 110.251074 
L 299.876425 110.623856 
L 302.015228 110.969985 
L 302.015228 110.969985 
" style="fill:none;stroke:#ffffff;stroke-linecap:square;"/>
   </g>
   <g id="line2d_18">
    <path clip-path="url(#p5deab7bb09)" d="M 222.810144 295.488 
L 223.362764 290.904642 
L 223.609354 286.381008 
L 223.58045 281.915934 
L 223.305937 277.529739 
L 222.819314 273.212906 
L 222.149541 268.967507 
L 220.872593 262.721658 
L 219.353915 256.621035 
L 214.765696 239.693724 
L 214.134459 236.303447 
L 213.750273 232.959068 
L 213.613601 229.49173 
L 213.695795 225.917825 
L 213.967829 222.235792 
L 214.657165 216.54551 
L 216.405444 204.188166 
L 216.7553 199.709679 
L 216.791462 195.045704 
L 216.419762 190.369486 
L 215.656625 185.764692 
L 214.537093 181.254607 
L 213.095039 176.875808 
L 211.352046 172.626998 
L 209.378281 168.604378 
L 207.24566 164.795036 
L 203.892017 159.430925 
L 194.275964 144.717537 
L 191.591562 139.931227 
L 190.021708 136.701562 
L 188.673102 133.450991 
L 187.59647 130.240772 
L 186.824318 127.080192 
L 186.391612 124.026701 
L 186.318565 121.011681 
L 186.620334 117.879408 
L 187.283774 114.642981 
L 188.264379 111.378164 
L 189.538697 108.091821 
L 191.044515 104.860541 
L 192.752785 101.690937 
L 194.649333 98.560175 
L 197.788644 93.921471 
L 201.19728 89.325467 
L 204.69569 84.984169 
L 207.095315 82.292659 
L 209.566497 79.796064 
L 212.135172 77.511708 
L 214.839016 75.442988 
L 217.631435 73.643785 
L 220.514176 72.13566 
L 223.443747 70.959046 
L 226.422204 70.131486 
L 229.483671 69.667337 
L 232.59272 69.571763 
L 235.67259 69.851846 
L 238.620184 70.494349 
L 241.380277 71.488607 
L 244.005354 72.871541 
L 246.568301 74.681272 
L 249.009164 76.848016 
L 251.321417 79.334775 
L 253.466117 82.063812 
L 255.463328 85.009436 
L 258.338733 89.855388 
L 263.389485 98.825115 
L 265.700718 102.554026 
L 268.222459 106.233309 
L 271.003805 109.836087 
L 274.067775 113.288826 
L 277.459864 116.53649 
L 279.285741 118.057564 
L 281.207519 119.501064 
L 283.227664 120.854582 
L 285.33777 122.100812 
L 287.552962 123.238697 
L 289.854593 124.245938 
L 292.258996 125.122437 
L 294.742902 125.84872 
L 297.319385 126.424294 
L 299.458188 126.770424 
L 299.458188 126.770424 
" style="fill:none;stroke:#ffffff;stroke-linecap:square;"/>
   </g>
   <g id="patch_3">
    <path d="M 57.6 307.584 
L 57.6 41.472 
" style="fill:none;stroke:#000000;stroke-linecap:square;stroke-linejoin:miter;stroke-width:0.8;"/>
   </g>
   <g id="patch_4">
    <path d="M 414.72 307.584 
L 414.72 41.472 
" style="fill:none;stroke:#000000;stroke-linecap:square;stroke-linejoin:miter;stroke-width:0.8;"/>
   </g>
   <g id="patch_5">
    <path d="M 57.6 307.584 
L 414.72 307.584 
" style="fill:none;stroke:#000000;stroke-linecap:square;stroke-linejoin:miter;stroke-width:0.8;"/>
   </g>
   <g id="patch_6">
    <path d="M 57.6 41.472 
L 414.72 41.472 
" style="fill:none;stroke:#000000;stroke-linecap:square;stroke-linejoin:miter;stroke-width:0.8;"/>
   </g>
  </g>
 </g>
 <defs>
  <clipPath id="p5deab7bb09">
   <rect height="266.112" width="357.12" x="57.6" y="41.472"/>
  </clipPath>
 </defs>
</svg>
