<?xml version="1.0" encoding="utf-8" standalone="no"?>
<!DOCTYPE svg PUBLIC "-//W3C//DTD SVG 1.1//EN"
  "http://www.w3.org/Graphics/SVG/1.1/DTD/svg11.dtd">
<!-- Created with matplotlib (https://matplotlib.org/) -->
<svg height="345.6pt" version="1.1" viewBox="0 0 460.8 345.6" width="460.8pt" xmlns="http://www.w3.org/2000/svg" xmlns:xlink="http://www.w3.org/1999/xlink">
 <metadata>
  <rdf:RDF xmlns:cc="http://creativecommons.org/ns#" xmlns:dc="http://purl.org/dc/elements/1.1/" xmlns:rdf="http://www.w3.org/1999/02/22-rdf-syntax-ns#">
   <cc:Work>
    <dc:type rdf:resource="http://purl.org/dc/dcmitype/StillImage"/>
    <dc:date>2021-01-25T10:11:47.164822</dc:date>
    <dc:format>image/svg+xml</dc:format>
    <dc:creator>
     <cc:Agent>
      <dc:title>Matplotlib v3.3.3, https://matplotlib.org/</dc:title>
     </cc:Agent>
    </dc:creator>
   </cc:Work>
  </rdf:RDF>
 </metadata>
 <defs>
  <style type="text/css">*{stroke-linecap:butt;stroke-linejoin:round;}</style>
 </defs>
 <g id="figure_1">
  <g id="patch_1">
   <path d="M 0 345.6 
L 460.8 345.6 
L 460.8 0 
L 0 0 
z
" style="fill:#ffffff;"/>
  </g>
  <g id="axes_1">
   <g id="patch_2">
    <path d="M 57.6 307.584 
L 414.72 307.584 
L 414.72 41.472 
L 57.6 41.472 
z
" style="fill:#7d9051;"/>
   </g>
   <g id="matplotlib.axis_1">
    <g id="xtick_1">
     <g id="line2d_1">
      <defs>
       <path d="M 0 0 
L 0 3.5 
" id="m504aea0ad3" style="stroke:#000000;stroke-width:0.8;"/>
      </defs>
      <g>
       <use style="stroke:#000000;stroke-width:0.8;" x="120.141553" xlink:href="#m504aea0ad3" y="307.584"/>
      </g>
     </g>
     <g id="text_1">
      <!-- −50 -->
      <g transform="translate(109.58921 322.182437)scale(0.1 -0.1)">
       <defs>
        <path d="M 10.59375 35.5 
L 73.1875 35.5 
L 73.1875 27.203125 
L 10.59375 27.203125 
z
" id="DejaVuSans-8722"/>
        <path d="M 10.796875 72.90625 
L 49.515625 72.90625 
L 49.515625 64.59375 
L 19.828125 64.59375 
L 19.828125 46.734375 
Q 21.96875 47.46875 24.109375 47.828125 
Q 26.265625 48.1875 28.421875 48.1875 
Q 40.625 48.1875 47.75 41.5 
Q 54.890625 34.8125 54.890625 23.390625 
Q 54.890625 11.625 47.5625 5.09375 
Q 40.234375 -1.421875 26.90625 -1.421875 
Q 22.3125 -1.421875 17.546875 -0.640625 
Q 12.796875 0.140625 7.71875 1.703125 
L 7.71875 11.625 
Q 12.109375 9.234375 16.796875 8.0625 
Q 21.484375 6.890625 26.703125 6.890625 
Q 35.15625 6.890625 40.078125 11.328125 
Q 45.015625 15.765625 45.015625 23.390625 
Q 45.015625 31 40.078125 35.4375 
Q 35.15625 39.890625 26.703125 39.890625 
Q 22.75 39.890625 18.8125 39.015625 
Q 14.890625 38.140625 10.796875 36.28125 
z
" id="DejaVuSans-53"/>
        <path d="M 31.78125 66.40625 
Q 24.171875 66.40625 20.328125 58.90625 
Q 16.5 51.421875 16.5 36.375 
Q 16.5 21.390625 20.328125 13.890625 
Q 24.171875 6.390625 31.78125 6.390625 
Q 39.453125 6.390625 43.28125 13.890625 
Q 47.125 21.390625 47.125 36.375 
Q 47.125 51.421875 43.28125 58.90625 
Q 39.453125 66.40625 31.78125 66.40625 
z
M 31.78125 74.21875 
Q 44.046875 74.21875 50.515625 64.515625 
Q 56.984375 54.828125 56.984375 36.375 
Q 56.984375 17.96875 50.515625 8.265625 
Q 44.046875 -1.421875 31.78125 -1.421875 
Q 19.53125 -1.421875 13.0625 8.265625 
Q 6.59375 17.96875 6.59375 36.375 
Q 6.59375 54.828125 13.0625 64.515625 
Q 19.53125 74.21875 31.78125 74.21875 
z
" id="DejaVuSans-48"/>
       </defs>
       <use xlink:href="#DejaVuSans-8722"/>
       <use x="83.789062" xlink:href="#DejaVuSans-53"/>
       <use x="147.412109" xlink:href="#DejaVuSans-48"/>
      </g>
     </g>
    </g>
    <g id="xtick_2">
     <g id="line2d_2">
      <g>
       <use style="stroke:#000000;stroke-width:0.8;" x="197.439275" xlink:href="#m504aea0ad3" y="307.584"/>
      </g>
     </g>
     <g id="text_2">
      <!-- 0 -->
      <g transform="translate(194.258025 322.182437)scale(0.1 -0.1)">
       <use xlink:href="#DejaVuSans-48"/>
      </g>
     </g>
    </g>
    <g id="xtick_3">
     <g id="line2d_3">
      <g>
       <use style="stroke:#000000;stroke-width:0.8;" x="274.736996" xlink:href="#m504aea0ad3" y="307.584"/>
      </g>
     </g>
     <g id="text_3">
      <!-- 50 -->
      <g transform="translate(268.374496 322.182437)scale(0.1 -0.1)">
       <use xlink:href="#DejaVuSans-53"/>
       <use x="63.623047" xlink:href="#DejaVuSans-48"/>
      </g>
     </g>
    </g>
    <g id="xtick_4">
     <g id="line2d_4">
      <g>
       <use style="stroke:#000000;stroke-width:0.8;" x="352.034717" xlink:href="#m504aea0ad3" y="307.584"/>
      </g>
     </g>
     <g id="text_4">
      <!-- 100 -->
      <g transform="translate(342.490967 322.182437)scale(0.1 -0.1)">
       <defs>
        <path d="M 12.40625 8.296875 
L 28.515625 8.296875 
L 28.515625 63.921875 
L 10.984375 60.40625 
L 10.984375 69.390625 
L 28.421875 72.90625 
L 38.28125 72.90625 
L 38.28125 8.296875 
L 54.390625 8.296875 
L 54.390625 0 
L 12.40625 0 
z
" id="DejaVuSans-49"/>
       </defs>
       <use xlink:href="#DejaVuSans-49"/>
       <use x="63.623047" xlink:href="#DejaVuSans-48"/>
       <use x="127.246094" xlink:href="#DejaVuSans-48"/>
      </g>
     </g>
    </g>
   </g>
   <g id="matplotlib.axis_2">
    <g id="ytick_1">
     <g id="line2d_5">
      <defs>
       <path d="M 0 0 
L -3.5 0 
" id="m25edb1bc2e" style="stroke:#000000;stroke-width:0.8;"/>
      </defs>
      <g>
       <use style="stroke:#000000;stroke-width:0.8;" x="57.6" xlink:href="#m25edb1bc2e" y="278.370395"/>
      </g>
     </g>
     <g id="text_5">
      <!-- 20 -->
      <g transform="translate(37.875 282.169613)scale(0.1 -0.1)">
       <defs>
        <path d="M 19.1875 8.296875 
L 53.609375 8.296875 
L 53.609375 0 
L 7.328125 0 
L 7.328125 8.296875 
Q 12.9375 14.109375 22.625 23.890625 
Q 32.328125 33.6875 34.8125 36.53125 
Q 39.546875 41.84375 41.421875 45.53125 
Q 43.3125 49.21875 43.3125 52.78125 
Q 43.3125 58.59375 39.234375 62.25 
Q 35.15625 65.921875 28.609375 65.921875 
Q 23.96875 65.921875 18.8125 64.3125 
Q 13.671875 62.703125 7.8125 59.421875 
L 7.8125 69.390625 
Q 13.765625 71.78125 18.9375 73 
Q 24.125 74.21875 28.421875 74.21875 
Q 39.75 74.21875 46.484375 68.546875 
Q 53.21875 62.890625 53.21875 53.421875 
Q 53.21875 48.921875 51.53125 44.890625 
Q 49.859375 40.875 45.40625 35.40625 
Q 44.1875 33.984375 37.640625 27.21875 
Q 31.109375 20.453125 19.1875 8.296875 
z
" id="DejaVuSans-50"/>
       </defs>
       <use xlink:href="#DejaVuSans-50"/>
       <use x="63.623047" xlink:href="#DejaVuSans-48"/>
      </g>
     </g>
    </g>
    <g id="ytick_2">
     <g id="line2d_6">
      <g>
       <use style="stroke:#000000;stroke-width:0.8;" x="57.6" xlink:href="#m25edb1bc2e" y="247.451306"/>
      </g>
     </g>
     <g id="text_6">
      <!-- 40 -->
      <g transform="translate(37.875 251.250525)scale(0.1 -0.1)">
       <defs>
        <path d="M 37.796875 64.3125 
L 12.890625 25.390625 
L 37.796875 25.390625 
z
M 35.203125 72.90625 
L 47.609375 72.90625 
L 47.609375 25.390625 
L 58.015625 25.390625 
L 58.015625 17.1875 
L 47.609375 17.1875 
L 47.609375 0 
L 37.796875 0 
L 37.796875 17.1875 
L 4.890625 17.1875 
L 4.890625 26.703125 
z
" id="DejaVuSans-52"/>
       </defs>
       <use xlink:href="#DejaVuSans-52"/>
       <use x="63.623047" xlink:href="#DejaVuSans-48"/>
      </g>
     </g>
    </g>
    <g id="ytick_3">
     <g id="line2d_7">
      <g>
       <use style="stroke:#000000;stroke-width:0.8;" x="57.6" xlink:href="#m25edb1bc2e" y="216.532218"/>
      </g>
     </g>
     <g id="text_7">
      <!-- 60 -->
      <g transform="translate(37.875 220.331436)scale(0.1 -0.1)">
       <defs>
        <path d="M 33.015625 40.375 
Q 26.375 40.375 22.484375 35.828125 
Q 18.609375 31.296875 18.609375 23.390625 
Q 18.609375 15.53125 22.484375 10.953125 
Q 26.375 6.390625 33.015625 6.390625 
Q 39.65625 6.390625 43.53125 10.953125 
Q 47.40625 15.53125 47.40625 23.390625 
Q 47.40625 31.296875 43.53125 35.828125 
Q 39.65625 40.375 33.015625 40.375 
z
M 52.59375 71.296875 
L 52.59375 62.3125 
Q 48.875 64.0625 45.09375 64.984375 
Q 41.3125 65.921875 37.59375 65.921875 
Q 27.828125 65.921875 22.671875 59.328125 
Q 17.53125 52.734375 16.796875 39.40625 
Q 19.671875 43.65625 24.015625 45.921875 
Q 28.375 48.1875 33.59375 48.1875 
Q 44.578125 48.1875 50.953125 41.515625 
Q 57.328125 34.859375 57.328125 23.390625 
Q 57.328125 12.15625 50.6875 5.359375 
Q 44.046875 -1.421875 33.015625 -1.421875 
Q 20.359375 -1.421875 13.671875 8.265625 
Q 6.984375 17.96875 6.984375 36.375 
Q 6.984375 53.65625 15.1875 63.9375 
Q 23.390625 74.21875 37.203125 74.21875 
Q 40.921875 74.21875 44.703125 73.484375 
Q 48.484375 72.75 52.59375 71.296875 
z
" id="DejaVuSans-54"/>
       </defs>
       <use xlink:href="#DejaVuSans-54"/>
       <use x="63.623047" xlink:href="#DejaVuSans-48"/>
      </g>
     </g>
    </g>
    <g id="ytick_4">
     <g id="line2d_8">
      <g>
       <use style="stroke:#000000;stroke-width:0.8;" x="57.6" xlink:href="#m25edb1bc2e" y="185.613129"/>
      </g>
     </g>
     <g id="text_8">
      <!-- 80 -->
      <g transform="translate(37.875 189.412348)scale(0.1 -0.1)">
       <defs>
        <path d="M 31.78125 34.625 
Q 24.75 34.625 20.71875 30.859375 
Q 16.703125 27.09375 16.703125 20.515625 
Q 16.703125 13.921875 20.71875 10.15625 
Q 24.75 6.390625 31.78125 6.390625 
Q 38.8125 6.390625 42.859375 10.171875 
Q 46.921875 13.96875 46.921875 20.515625 
Q 46.921875 27.09375 42.890625 30.859375 
Q 38.875 34.625 31.78125 34.625 
z
M 21.921875 38.8125 
Q 15.578125 40.375 12.03125 44.71875 
Q 8.5 49.078125 8.5 55.328125 
Q 8.5 64.0625 14.71875 69.140625 
Q 20.953125 74.21875 31.78125 74.21875 
Q 42.671875 74.21875 48.875 69.140625 
Q 55.078125 64.0625 55.078125 55.328125 
Q 55.078125 49.078125 51.53125 44.71875 
Q 48 40.375 41.703125 38.8125 
Q 48.828125 37.15625 52.796875 32.3125 
Q 56.78125 27.484375 56.78125 20.515625 
Q 56.78125 9.90625 50.3125 4.234375 
Q 43.84375 -1.421875 31.78125 -1.421875 
Q 19.734375 -1.421875 13.25 4.234375 
Q 6.78125 9.90625 6.78125 20.515625 
Q 6.78125 27.484375 10.78125 32.3125 
Q 14.796875 37.15625 21.921875 38.8125 
z
M 18.3125 54.390625 
Q 18.3125 48.734375 21.84375 45.5625 
Q 25.390625 42.390625 31.78125 42.390625 
Q 38.140625 42.390625 41.71875 45.5625 
Q 45.3125 48.734375 45.3125 54.390625 
Q 45.3125 60.0625 41.71875 63.234375 
Q 38.140625 66.40625 31.78125 66.40625 
Q 25.390625 66.40625 21.84375 63.234375 
Q 18.3125 60.0625 18.3125 54.390625 
z
" id="DejaVuSans-56"/>
       </defs>
       <use xlink:href="#DejaVuSans-56"/>
       <use x="63.623047" xlink:href="#DejaVuSans-48"/>
      </g>
     </g>
    </g>
    <g id="ytick_5">
     <g id="line2d_9">
      <g>
       <use style="stroke:#000000;stroke-width:0.8;" x="57.6" xlink:href="#m25edb1bc2e" y="154.694041"/>
      </g>
     </g>
     <g id="text_9">
      <!-- 100 -->
      <g transform="translate(31.5125 158.49326)scale(0.1 -0.1)">
       <use xlink:href="#DejaVuSans-49"/>
       <use x="63.623047" xlink:href="#DejaVuSans-48"/>
       <use x="127.246094" xlink:href="#DejaVuSans-48"/>
      </g>
     </g>
    </g>
    <g id="ytick_6">
     <g id="line2d_10">
      <g>
       <use style="stroke:#000000;stroke-width:0.8;" x="57.6" xlink:href="#m25edb1bc2e" y="123.774952"/>
      </g>
     </g>
     <g id="text_10">
      <!-- 120 -->
      <g transform="translate(31.5125 127.574171)scale(0.1 -0.1)">
       <use xlink:href="#DejaVuSans-49"/>
       <use x="63.623047" xlink:href="#DejaVuSans-50"/>
       <use x="127.246094" xlink:href="#DejaVuSans-48"/>
      </g>
     </g>
    </g>
    <g id="ytick_7">
     <g id="line2d_11">
      <g>
       <use style="stroke:#000000;stroke-width:0.8;" x="57.6" xlink:href="#m25edb1bc2e" y="92.855864"/>
      </g>
     </g>
     <g id="text_11">
      <!-- 140 -->
      <g transform="translate(31.5125 96.655083)scale(0.1 -0.1)">
       <use xlink:href="#DejaVuSans-49"/>
       <use x="63.623047" xlink:href="#DejaVuSans-52"/>
       <use x="127.246094" xlink:href="#DejaVuSans-48"/>
      </g>
     </g>
    </g>
    <g id="ytick_8">
     <g id="line2d_12">
      <g>
       <use style="stroke:#000000;stroke-width:0.8;" x="57.6" xlink:href="#m25edb1bc2e" y="61.936775"/>
      </g>
     </g>
     <g id="text_12">
      <!-- 160 -->
      <g transform="translate(31.5125 65.735994)scale(0.1 -0.1)">
       <use xlink:href="#DejaVuSans-49"/>
       <use x="63.623047" xlink:href="#DejaVuSans-54"/>
       <use x="127.246094" xlink:href="#DejaVuSans-48"/>
      </g>
     </g>
    </g>
   </g>
   <g id="line2d_13">
    <path clip-path="url(#p1b25e85a6d)" d="M 258.77347 293.829939 
L 259.547993 290.668462 
L 259.905109 287.528629 
L 259.875736 284.424352 
L 259.492339 281.366454 
L 258.785838 278.370395 
L 257.785605 275.446995 
L 256.524107 272.610168 
L 255.032261 269.872283 
L 253.340986 267.245707 
L 251.481203 264.744352 
L 249.485376 262.372858 
L 246.314624 258.99031 
L 237.688198 250.118077 
L 234.668949 246.59021 
L 231.85995 242.895378 
L 230.131573 240.326002 
L 228.534602 237.668507 
L 227.081405 234.930621 
L 225.782803 232.112346 
L 224.65271 229.221412 
L 223.703494 226.260909 
L 222.947523 223.243206 
L 222.397163 220.18067 
L 222.066328 217.090307 
L 221.972025 213.989123 
L 222.123529 210.89103 
L 222.520839 207.811489 
L 223.151589 204.767505 
L 223.997226 201.772991 
L 225.045383 198.844953 
L 226.279054 195.997305 
L 227.681235 193.234685 
L 229.227189 190.550908 
L 231.770284 186.65974 
L 234.517445 182.912347 
L 238.396245 178.093607 
L 243.456154 172.251445 
L 248.522247 166.413921 
L 251.355981 162.739188 
L 253.084358 160.155898 
L 254.638042 157.435018 
L 255.972201 154.592008 
L 257.037363 151.650057 
L 257.787151 148.632353 
L 258.175186 145.55745 
L 258.162818 142.45472 
L 257.773238 139.358173 
L 257.035818 136.308005 
L 255.983023 133.34441 
L 254.647318 130.506038 
L 253.059623 127.823807 
L 251.253948 125.297717 
L 249.262759 122.913856 
L 247.120066 120.666038 
L 244.856789 118.540351 
L 241.301093 115.559751 
L 237.598533 112.767757 
L 231.230746 108.363333 
L 226.153832 104.810729 
L 223.723592 102.89993 
L 221.418574 100.831443 
L 219.278973 98.560436 
L 217.348076 96.076087 
L 215.672261 93.409316 
L 214.296362 90.595679 
L 213.268302 87.663003 
L 212.631369 84.648392 
L 212.387108 81.578126 
L 212.498417 78.476942 
L 212.923554 75.368027 
L 213.620779 72.279211 
L 214.551444 69.232134 
L 215.672261 66.251534 
L 216.944581 63.363691 
L 219.04708 59.25609 
L 220.517282 56.702174 
L 220.517282 56.702174 
" style="fill:none;stroke:#fea952;stroke-linecap:square;"/>
   </g>
   <g id="line2d_14">
    <path clip-path="url(#p1b25e85a6d)" d="M 252.816085 292.171878 
L 253.428509 289.778792 
L 253.722635 287.399699 
L 253.720615 285.019409 
L 253.438606 282.628167 
L 252.889712 280.234611 
L 252.083136 277.838949 
L 251.038021 275.463669 
L 249.775028 273.128217 
L 248.32063 270.856195 
L 246.695467 268.660515 
L 244.901613 266.523607 
L 241.914242 263.33499 
L 233.060905 254.220243 
L 229.827573 250.437374 
L 226.771443 246.409165 
L 224.873557 243.580671 
L 223.11247 240.641735 
L 221.502042 237.597138 
L 220.057134 234.448222 
L 218.794897 231.202731 
L 217.731236 227.864571 
L 216.881909 224.446506 
L 216.261287 220.949192 
L 215.890195 217.398497 
L 215.790616 213.816561 
L 215.976267 210.219636 
L 216.443774 206.667426 
L 217.172811 203.188321 
L 218.142518 199.782513 
L 219.333608 196.475305 
L 220.726046 193.276331 
L 222.284659 190.215319 
L 223.982629 187.2746 
L 226.727901 183.08008 
L 229.637899 179.113712 
L 233.673726 174.101438 
L 238.828861 168.149279 
L 243.710438 162.529839 
L 246.274135 159.215774 
L 247.772631 156.989644 
L 249.09736 154.689032 
L 250.210688 152.345994 
L 251.079584 149.993413 
L 251.679506 147.664745 
L 251.993776 145.384888 
L 252.007077 143.043316 
L 251.725973 140.650532 
L 251.157886 138.228818 
L 250.326924 135.844041 
L 249.257654 133.537724 
L 247.958338 131.319018 
L 246.438443 129.177216 
L 244.724066 127.11384 
L 242.831303 125.120936 
L 239.722027 122.263481 
L 236.359602 119.550151 
L 232.792393 116.935538 
L 221.033951 108.678676 
L 218.332866 106.409998 
L 215.72248 103.855553 
L 213.30949 101.016463 
L 211.154429 97.915597 
L 209.315414 94.580226 
L 208.525672 92.818008 
L 207.841343 91.009045 
L 207.264409 89.143839 
L 206.808972 87.238922 
L 206.484694 85.325147 
L 206.286512 83.421753 
L 206.229342 79.641813 
L 206.568692 75.943542 
L 207.236714 72.339158 
L 208.177357 68.841859 
L 209.334655 65.47329 
L 210.665148 62.23087 
L 212.120137 59.144016 
L 214.447598 54.824861 
L 215.186564 53.568 
L 215.186564 53.568 
" style="fill:none;stroke:#ffffff;stroke-linecap:square;"/>
   </g>
   <g id="line2d_15">
    <path clip-path="url(#p1b25e85a6d)" d="M 264.730855 295.488 
L 265.26398 293.526785 
L 265.667478 291.558132 
L 265.939959 289.599658 
L 266.087582 287.657558 
L 266.11646 285.724944 
L 265.838804 281.946128 
L 265.158241 278.285123 
L 264.122943 274.760581 
L 262.781566 271.38512 
L 261.177308 268.165331 
L 259.349405 265.105676 
L 257.333686 262.211603 
L 255.175414 259.49801 
L 251.832268 255.79943 
L 241.35766 244.936799 
L 238.628308 241.635361 
L 236.152922 238.232766 
L 233.956734 234.695278 
L 232.660768 232.264105 
L 231.508472 229.776471 
L 230.510523 227.240092 
L 229.675753 224.657247 
L 229.013136 222.039906 
L 228.533039 219.412149 
L 228.242462 216.782117 
L 228.153435 214.161684 
L 228.270791 211.562424 
L 228.597904 208.955552 
L 229.130366 206.346688 
L 229.851933 203.763468 
L 230.757157 201.214601 
L 231.832063 198.718279 
L 233.077811 196.25405 
L 235.222563 192.622764 
L 237.652226 189.055453 
L 240.304792 185.54423 
L 244.08718 180.939947 
L 250.162567 174.004612 
L 253.334056 170.298004 
L 255.424518 167.647076 
L 257.435967 164.817028 
L 259.311346 161.77829 
L 260.988117 158.535168 
L 262.405146 155.095458 
L 263.49522 151.472784 
L 263.894797 149.599962 
L 264.186435 147.68019 
L 264.356595 145.730012 
L 264.398319 143.78527 
L 264.31856 141.866123 
L 264.12418 139.948503 
L 263.415334 136.211939 
L 262.319718 132.595242 
L 260.87861 129.141185 
L 259.132482 125.878675 
L 257.139639 122.846719 
L 254.955069 120.041152 
L 252.620855 117.442052 
L 250.178237 115.029058 
L 247.660251 112.779652 
L 243.799977 109.670918 
L 239.884766 106.803576 
L 227.763206 98.21793 
L 225.815689 96.483457 
L 224.067149 94.647256 
L 222.49612 92.650121 
L 221.149843 90.539526 
L 220.067051 88.373349 
L 219.272194 86.182167 
L 218.778043 83.971637 
L 218.570676 81.633667 
L 218.642908 79.173236 
L 218.981635 76.608693 
L 219.564852 73.984379 
L 220.370103 71.325652 
L 221.362005 68.673602 
L 223.129466 64.779005 
L 225.109034 61.093208 
L 225.848 59.836348 
L 225.848 59.836348 
" style="fill:none;stroke:#ffffff;stroke-linecap:square;"/>
   </g>
   <g id="patch_3">
    <path d="M 57.6 307.584 
L 57.6 41.472 
" style="fill:none;stroke:#000000;stroke-linecap:square;stroke-linejoin:miter;stroke-width:0.8;"/>
   </g>
   <g id="patch_4">
    <path d="M 414.72 307.584 
L 414.72 41.472 
" style="fill:none;stroke:#000000;stroke-linecap:square;stroke-linejoin:miter;stroke-width:0.8;"/>
   </g>
   <g id="patch_5">
    <path d="M 57.6 307.584 
L 414.72 307.584 
" style="fill:none;stroke:#000000;stroke-linecap:square;stroke-linejoin:miter;stroke-width:0.8;"/>
   </g>
   <g id="patch_6">
    <path d="M 57.6 41.472 
L 414.72 41.472 
" style="fill:none;stroke:#000000;stroke-linecap:square;stroke-linejoin:miter;stroke-width:0.8;"/>
   </g>
  </g>
 </g>
 <defs>
  <clipPath id="p1b25e85a6d">
   <rect height="266.112" width="357.12" x="57.6" y="41.472"/>
  </clipPath>
 </defs>
</svg>
