<?xml version="1.0" encoding="utf-8" standalone="no"?>
<!DOCTYPE svg PUBLIC "-//W3C//DTD SVG 1.1//EN"
  "http://www.w3.org/Graphics/SVG/1.1/DTD/svg11.dtd">
<!-- Created with matplotlib (https://matplotlib.org/) -->
<svg height="345.6pt" version="1.1" viewBox="0 0 460.8 345.6" width="460.8pt" xmlns="http://www.w3.org/2000/svg" xmlns:xlink="http://www.w3.org/1999/xlink">
 <metadata>
  <rdf:RDF xmlns:cc="http://creativecommons.org/ns#" xmlns:dc="http://purl.org/dc/elements/1.1/" xmlns:rdf="http://www.w3.org/1999/02/22-rdf-syntax-ns#">
   <cc:Work>
    <dc:type rdf:resource="http://purl.org/dc/dcmitype/StillImage"/>
    <dc:date>2021-01-22T10:27:04.866719</dc:date>
    <dc:format>image/svg+xml</dc:format>
    <dc:creator>
     <cc:Agent>
      <dc:title>Matplotlib v3.3.3, https://matplotlib.org/</dc:title>
     </cc:Agent>
    </dc:creator>
   </cc:Work>
  </rdf:RDF>
 </metadata>
 <defs>
  <style type="text/css">*{stroke-linecap:butt;stroke-linejoin:round;}</style>
 </defs>
 <g id="figure_1">
  <g id="patch_1">
   <path d="M 0 345.6 
L 460.8 345.6 
L 460.8 0 
L 0 0 
z
" style="fill:#ffffff;"/>
  </g>
  <g id="axes_1">
   <g id="patch_2">
    <path d="M 57.6 307.584 
L 414.72 307.584 
L 414.72 41.472 
L 57.6 41.472 
z
" style="fill:#7d9051;"/>
   </g>
   <g id="matplotlib.axis_1">
    <g id="xtick_1">
     <g id="line2d_1">
      <defs>
       <path d="M 0 0 
L 0 3.5 
" id="m7ec24e2bb4" style="stroke:#000000;stroke-width:0.8;"/>
      </defs>
      <g>
       <use style="stroke:#000000;stroke-width:0.8;" x="96.054889" xlink:href="#m7ec24e2bb4" y="307.584"/>
      </g>
     </g>
     <g id="text_1">
      <!-- −20 -->
      <g transform="translate(85.502545 322.182437)scale(0.1 -0.1)">
       <defs>
        <path d="M 10.59375 35.5 
L 73.1875 35.5 
L 73.1875 27.203125 
L 10.59375 27.203125 
z
" id="DejaVuSans-8722"/>
        <path d="M 19.1875 8.296875 
L 53.609375 8.296875 
L 53.609375 0 
L 7.328125 0 
L 7.328125 8.296875 
Q 12.9375 14.109375 22.625 23.890625 
Q 32.328125 33.6875 34.8125 36.53125 
Q 39.546875 41.84375 41.421875 45.53125 
Q 43.3125 49.21875 43.3125 52.78125 
Q 43.3125 58.59375 39.234375 62.25 
Q 35.15625 65.921875 28.609375 65.921875 
Q 23.96875 65.921875 18.8125 64.3125 
Q 13.671875 62.703125 7.8125 59.421875 
L 7.8125 69.390625 
Q 13.765625 71.78125 18.9375 73 
Q 24.125 74.21875 28.421875 74.21875 
Q 39.75 74.21875 46.484375 68.546875 
Q 53.21875 62.890625 53.21875 53.421875 
Q 53.21875 48.921875 51.53125 44.890625 
Q 49.859375 40.875 45.40625 35.40625 
Q 44.1875 33.984375 37.640625 27.21875 
Q 31.109375 20.453125 19.1875 8.296875 
z
" id="DejaVuSans-50"/>
        <path d="M 31.78125 66.40625 
Q 24.171875 66.40625 20.328125 58.90625 
Q 16.5 51.421875 16.5 36.375 
Q 16.5 21.390625 20.328125 13.890625 
Q 24.171875 6.390625 31.78125 6.390625 
Q 39.453125 6.390625 43.28125 13.890625 
Q 47.125 21.390625 47.125 36.375 
Q 47.125 51.421875 43.28125 58.90625 
Q 39.453125 66.40625 31.78125 66.40625 
z
M 31.78125 74.21875 
Q 44.046875 74.21875 50.515625 64.515625 
Q 56.984375 54.828125 56.984375 36.375 
Q 56.984375 17.96875 50.515625 8.265625 
Q 44.046875 -1.421875 31.78125 -1.421875 
Q 19.53125 -1.421875 13.0625 8.265625 
Q 6.59375 17.96875 6.59375 36.375 
Q 6.59375 54.828125 13.0625 64.515625 
Q 19.53125 74.21875 31.78125 74.21875 
z
" id="DejaVuSans-48"/>
       </defs>
       <use xlink:href="#DejaVuSans-8722"/>
       <use x="83.789062" xlink:href="#DejaVuSans-50"/>
       <use x="147.412109" xlink:href="#DejaVuSans-48"/>
      </g>
     </g>
    </g>
    <g id="xtick_2">
     <g id="line2d_2">
      <g>
       <use style="stroke:#000000;stroke-width:0.8;" x="147.374751" xlink:href="#m7ec24e2bb4" y="307.584"/>
      </g>
     </g>
     <g id="text_2">
      <!-- 0 -->
      <g transform="translate(144.193501 322.182437)scale(0.1 -0.1)">
       <use xlink:href="#DejaVuSans-48"/>
      </g>
     </g>
    </g>
    <g id="xtick_3">
     <g id="line2d_3">
      <g>
       <use style="stroke:#000000;stroke-width:0.8;" x="198.694613" xlink:href="#m7ec24e2bb4" y="307.584"/>
      </g>
     </g>
     <g id="text_3">
      <!-- 20 -->
      <g transform="translate(192.332113 322.182437)scale(0.1 -0.1)">
       <use xlink:href="#DejaVuSans-50"/>
       <use x="63.623047" xlink:href="#DejaVuSans-48"/>
      </g>
     </g>
    </g>
    <g id="xtick_4">
     <g id="line2d_4">
      <g>
       <use style="stroke:#000000;stroke-width:0.8;" x="250.014475" xlink:href="#m7ec24e2bb4" y="307.584"/>
      </g>
     </g>
     <g id="text_4">
      <!-- 40 -->
      <g transform="translate(243.651975 322.182437)scale(0.1 -0.1)">
       <defs>
        <path d="M 37.796875 64.3125 
L 12.890625 25.390625 
L 37.796875 25.390625 
z
M 35.203125 72.90625 
L 47.609375 72.90625 
L 47.609375 25.390625 
L 58.015625 25.390625 
L 58.015625 17.1875 
L 47.609375 17.1875 
L 47.609375 0 
L 37.796875 0 
L 37.796875 17.1875 
L 4.890625 17.1875 
L 4.890625 26.703125 
z
" id="DejaVuSans-52"/>
       </defs>
       <use xlink:href="#DejaVuSans-52"/>
       <use x="63.623047" xlink:href="#DejaVuSans-48"/>
      </g>
     </g>
    </g>
    <g id="xtick_5">
     <g id="line2d_5">
      <g>
       <use style="stroke:#000000;stroke-width:0.8;" x="301.334337" xlink:href="#m7ec24e2bb4" y="307.584"/>
      </g>
     </g>
     <g id="text_5">
      <!-- 60 -->
      <g transform="translate(294.971837 322.182437)scale(0.1 -0.1)">
       <defs>
        <path d="M 33.015625 40.375 
Q 26.375 40.375 22.484375 35.828125 
Q 18.609375 31.296875 18.609375 23.390625 
Q 18.609375 15.53125 22.484375 10.953125 
Q 26.375 6.390625 33.015625 6.390625 
Q 39.65625 6.390625 43.53125 10.953125 
Q 47.40625 15.53125 47.40625 23.390625 
Q 47.40625 31.296875 43.53125 35.828125 
Q 39.65625 40.375 33.015625 40.375 
z
M 52.59375 71.296875 
L 52.59375 62.3125 
Q 48.875 64.0625 45.09375 64.984375 
Q 41.3125 65.921875 37.59375 65.921875 
Q 27.828125 65.921875 22.671875 59.328125 
Q 17.53125 52.734375 16.796875 39.40625 
Q 19.671875 43.65625 24.015625 45.921875 
Q 28.375 48.1875 33.59375 48.1875 
Q 44.578125 48.1875 50.953125 41.515625 
Q 57.328125 34.859375 57.328125 23.390625 
Q 57.328125 12.15625 50.6875 5.359375 
Q 44.046875 -1.421875 33.015625 -1.421875 
Q 20.359375 -1.421875 13.671875 8.265625 
Q 6.984375 17.96875 6.984375 36.375 
Q 6.984375 53.65625 15.1875 63.9375 
Q 23.390625 74.21875 37.203125 74.21875 
Q 40.921875 74.21875 44.703125 73.484375 
Q 48.484375 72.75 52.59375 71.296875 
z
" id="DejaVuSans-54"/>
       </defs>
       <use xlink:href="#DejaVuSans-54"/>
       <use x="63.623047" xlink:href="#DejaVuSans-48"/>
      </g>
     </g>
    </g>
    <g id="xtick_6">
     <g id="line2d_6">
      <g>
       <use style="stroke:#000000;stroke-width:0.8;" x="352.654199" xlink:href="#m7ec24e2bb4" y="307.584"/>
      </g>
     </g>
     <g id="text_6">
      <!-- 80 -->
      <g transform="translate(346.291699 322.182437)scale(0.1 -0.1)">
       <defs>
        <path d="M 31.78125 34.625 
Q 24.75 34.625 20.71875 30.859375 
Q 16.703125 27.09375 16.703125 20.515625 
Q 16.703125 13.921875 20.71875 10.15625 
Q 24.75 6.390625 31.78125 6.390625 
Q 38.8125 6.390625 42.859375 10.171875 
Q 46.921875 13.96875 46.921875 20.515625 
Q 46.921875 27.09375 42.890625 30.859375 
Q 38.875 34.625 31.78125 34.625 
z
M 21.921875 38.8125 
Q 15.578125 40.375 12.03125 44.71875 
Q 8.5 49.078125 8.5 55.328125 
Q 8.5 64.0625 14.71875 69.140625 
Q 20.953125 74.21875 31.78125 74.21875 
Q 42.671875 74.21875 48.875 69.140625 
Q 55.078125 64.0625 55.078125 55.328125 
Q 55.078125 49.078125 51.53125 44.71875 
Q 48 40.375 41.703125 38.8125 
Q 48.828125 37.15625 52.796875 32.3125 
Q 56.78125 27.484375 56.78125 20.515625 
Q 56.78125 9.90625 50.3125 4.234375 
Q 43.84375 -1.421875 31.78125 -1.421875 
Q 19.734375 -1.421875 13.25 4.234375 
Q 6.78125 9.90625 6.78125 20.515625 
Q 6.78125 27.484375 10.78125 32.3125 
Q 14.796875 37.15625 21.921875 38.8125 
z
M 18.3125 54.390625 
Q 18.3125 48.734375 21.84375 45.5625 
Q 25.390625 42.390625 31.78125 42.390625 
Q 38.140625 42.390625 41.71875 45.5625 
Q 45.3125 48.734375 45.3125 54.390625 
Q 45.3125 60.0625 41.71875 63.234375 
Q 38.140625 66.40625 31.78125 66.40625 
Q 25.390625 66.40625 21.84375 63.234375 
Q 18.3125 60.0625 18.3125 54.390625 
z
" id="DejaVuSans-56"/>
       </defs>
       <use xlink:href="#DejaVuSans-56"/>
       <use x="63.623047" xlink:href="#DejaVuSans-48"/>
      </g>
     </g>
    </g>
    <g id="xtick_7">
     <g id="line2d_7">
      <g>
       <use style="stroke:#000000;stroke-width:0.8;" x="403.974061" xlink:href="#m7ec24e2bb4" y="307.584"/>
      </g>
     </g>
     <g id="text_7">
      <!-- 100 -->
      <g transform="translate(394.430311 322.182437)scale(0.1 -0.1)">
       <defs>
        <path d="M 12.40625 8.296875 
L 28.515625 8.296875 
L 28.515625 63.921875 
L 10.984375 60.40625 
L 10.984375 69.390625 
L 28.421875 72.90625 
L 38.28125 72.90625 
L 38.28125 8.296875 
L 54.390625 8.296875 
L 54.390625 0 
L 12.40625 0 
z
" id="DejaVuSans-49"/>
       </defs>
       <use xlink:href="#DejaVuSans-49"/>
       <use x="63.623047" xlink:href="#DejaVuSans-48"/>
       <use x="127.246094" xlink:href="#DejaVuSans-48"/>
      </g>
     </g>
    </g>
   </g>
   <g id="matplotlib.axis_2">
    <g id="ytick_1">
     <g id="line2d_8">
      <defs>
       <path d="M 0 0 
L -3.5 0 
" id="m8938636b87" style="stroke:#000000;stroke-width:0.8;"/>
      </defs>
      <g>
       <use style="stroke:#000000;stroke-width:0.8;" x="57.6" xlink:href="#m8938636b87" y="269.060427"/>
      </g>
     </g>
     <g id="text_8">
      <!-- 20 -->
      <g transform="translate(37.875 272.859646)scale(0.1 -0.1)">
       <use xlink:href="#DejaVuSans-50"/>
       <use x="63.623047" xlink:href="#DejaVuSans-48"/>
      </g>
     </g>
    </g>
    <g id="ytick_2">
     <g id="line2d_9">
      <g>
       <use style="stroke:#000000;stroke-width:0.8;" x="57.6" xlink:href="#m8938636b87" y="217.740565"/>
      </g>
     </g>
     <g id="text_9">
      <!-- 40 -->
      <g transform="translate(37.875 221.539784)scale(0.1 -0.1)">
       <use xlink:href="#DejaVuSans-52"/>
       <use x="63.623047" xlink:href="#DejaVuSans-48"/>
      </g>
     </g>
    </g>
    <g id="ytick_3">
     <g id="line2d_10">
      <g>
       <use style="stroke:#000000;stroke-width:0.8;" x="57.6" xlink:href="#m8938636b87" y="166.420703"/>
      </g>
     </g>
     <g id="text_10">
      <!-- 60 -->
      <g transform="translate(37.875 170.219922)scale(0.1 -0.1)">
       <use xlink:href="#DejaVuSans-54"/>
       <use x="63.623047" xlink:href="#DejaVuSans-48"/>
      </g>
     </g>
    </g>
    <g id="ytick_4">
     <g id="line2d_11">
      <g>
       <use style="stroke:#000000;stroke-width:0.8;" x="57.6" xlink:href="#m8938636b87" y="115.100841"/>
      </g>
     </g>
     <g id="text_11">
      <!-- 80 -->
      <g transform="translate(37.875 118.900059)scale(0.1 -0.1)">
       <use xlink:href="#DejaVuSans-56"/>
       <use x="63.623047" xlink:href="#DejaVuSans-48"/>
      </g>
     </g>
    </g>
    <g id="ytick_5">
     <g id="line2d_12">
      <g>
       <use style="stroke:#000000;stroke-width:0.8;" x="57.6" xlink:href="#m8938636b87" y="63.780979"/>
      </g>
     </g>
     <g id="text_12">
      <!-- 100 -->
      <g transform="translate(31.5125 67.580197)scale(0.1 -0.1)">
       <use xlink:href="#DejaVuSans-49"/>
       <use x="63.623047" xlink:href="#DejaVuSans-48"/>
       <use x="127.246094" xlink:href="#DejaVuSans-48"/>
      </g>
     </g>
    </g>
   </g>
   <g id="line2d_13">
    <path clip-path="url(#p67a56cbba1)" d="M 208.565988 224.165812 
L 209.405068 218.995335 
L 209.797665 213.829991 
L 209.774571 208.685175 
L 209.361446 203.573717 
L 208.58395 198.505881 
L 207.472875 193.494496 
L 206.053881 188.552393 
L 204.352628 183.689836 
L 202.397341 178.917089 
L 200.218813 174.249548 
L 197.845269 169.689778 
L 194.042467 162.995102 
L 186.27264 149.713522 
L 182.66742 142.923904 
L 180.447836 138.297418 
L 178.415569 133.570859 
L 176.59628 128.731396 
L 175.033591 123.771331 
L 173.80448 118.713759 
L 173.345167 116.160596 
L 173.001324 113.597169 
L 172.788347 111.026044 
L 172.713933 108.452353 
L 172.793479 105.883793 
L 173.034682 103.320366 
L 173.447807 100.769769 
L 174.027721 98.242266 
L 174.769293 95.745555 
L 175.667391 93.295031 
L 176.716882 90.895828 
L 177.907503 88.565906 
L 179.236687 86.312964 
L 180.699303 84.1447 
L 182.285087 82.076509 
L 183.991472 80.118657 
L 185.813328 78.276274 
L 187.737822 76.554492 
L 189.759825 74.948181 
L 191.869071 73.454773 
L 194.057863 72.074268 
L 196.321069 70.804102 
L 198.643293 69.641707 
L 201.024535 68.584518 
L 205.912752 66.780624 
L 210.926702 65.379592 
L 213.467035 64.838168 
L 216.022764 64.409647 
L 218.591323 64.09403 
L 221.167581 63.899014 
L 223.746404 63.829732 
L 226.325227 63.883618 
L 228.898918 64.070936 
L 231.462345 64.394251 
L 234.010376 64.85613 
L 236.535313 65.45144 
L 239.032025 66.180182 
L 241.48768 67.03979 
L 243.897148 68.025131 
L 246.250163 69.13364 
L 248.541595 70.362751 
L 250.758613 71.707331 
L 252.896085 73.167381 
L 254.946314 74.735203 
L 256.901601 76.408231 
L 258.761946 78.181332 
L 260.537613 80.044243 
L 263.83748 84.00357 
L 266.839692 88.219497 
L 269.575041 92.620175 
L 272.076884 97.141455 
L 274.386278 101.739715 
L 277.575807 108.747442 
L 281.522304 118.205692 
L 288.188754 134.866686 
L 292.771618 146.893495 
L 295.286291 154.201444 
L 296.736078 159.12815 
L 297.929264 164.108743 
L 298.801702 169.150919 
L 299.340561 174.249548 
L 299.581764 179.389232 
L 299.563802 184.544312 
L 299.322599 189.699392 
L 298.896644 194.83651 
L 298.031904 202.496 
L 296.530798 215.223326 
L 296.094579 220.327086 
L 295.69685 228.009669 
L 295.458213 238.278774 
L 295.07588 271.63925 
L 295.260631 281.895524 
L 295.609607 289.588372 
L 295.963714 294.720358 
L 295.963714 294.720358 
" style="fill:none;stroke:#fea952;stroke-linecap:square;"/>
   </g>
   <g id="line2d_14">
    <path clip-path="url(#p67a56cbba1)" d="M 198.470633 222.312993 
L 199.189358 218.001155 
L 199.534996 213.666443 
L 199.530388 209.322226 
L 199.190222 204.950428 
L 198.529698 200.570135 
L 197.566789 196.18124 
L 196.321745 191.813477 
L 194.805265 187.457726 
L 193.046029 183.148175 
L 191.06938 178.901107 
L 188.861357 174.653492 
L 185.206963 168.218414 
L 177.275717 154.653613 
L 174.698143 149.881389 
L 172.241348 144.974178 
L 169.932212 139.896103 
L 167.82359 134.655374 
L 165.942181 129.199951 
L 164.354636 123.489889 
L 163.702672 120.531069 
L 163.172302 117.525124 
L 162.772385 114.444476 
L 162.528662 111.322685 
L 162.454879 108.13464 
L 162.574644 104.922261 
L 162.902754 101.679279 
L 163.44378 98.474429 
L 164.188584 95.31985 
L 165.132149 92.213617 
L 166.263746 89.181565 
L 167.577122 86.22529 
L 169.067371 83.350429 
L 170.727657 80.573145 
L 172.554075 77.899351 
L 174.547483 75.332726 
L 176.693203 72.901705 
L 178.969662 70.626871 
L 181.35337 68.517833 
L 183.828768 66.571326 
L 186.393544 64.773314 
L 189.034511 63.123567 
L 191.726825 61.625755 
L 194.478451 60.260704 
L 197.273679 59.03045 
L 200.094721 57.932263 
L 202.950438 56.953426 
L 205.846135 56.089391 
L 208.787182 55.341087 
L 211.769761 54.715501 
L 214.770972 54.222295 
L 217.816586 53.859338 
L 220.891932 53.638744 
L 223.960828 53.568 
L 227.070285 53.646723 
L 230.183297 53.887641 
L 233.29305 54.294862 
L 236.365756 54.866069 
L 239.41117 55.598594 
L 242.423183 56.492604 
L 245.372775 57.539518 
L 248.271417 58.739934 
L 251.101808 60.088715 
L 253.864131 61.586662 
L 256.547946 63.231911 
L 259.130936 65.014114 
L 261.619273 66.936438 
L 263.983017 68.97838 
L 266.191556 71.099664 
L 268.279119 73.304939 
L 270.252374 75.586057 
L 273.840452 80.27884 
L 277.03046 85.104881 
L 279.888069 90.000751 
L 282.469637 94.912533 
L 284.828394 99.82266 
L 288.050448 107.135645 
L 292.969979 119.117802 
L 298.701289 133.572774 
L 302.430682 143.42195 
L 304.240221 148.562547 
L 305.920898 153.876688 
L 307.386036 159.367656 
L 308.551695 165.047 
L 309.335426 170.780296 
L 309.755508 176.478025 
L 309.865121 182.118666 
L 309.716331 187.704914 
L 309.351886 193.200695 
L 308.52966 201.179369 
L 306.525536 218.565852 
L 306.055245 225.856883 
L 305.76193 235.874253 
L 305.332108 269.045 
L 305.448727 279.044531 
L 305.720053 286.470944 
L 306.19894 293.952716 
L 306.19894 293.952716 
" style="fill:none;stroke:#ffffff;stroke-linecap:square;"/>
   </g>
   <g id="line2d_15">
    <path clip-path="url(#p67a56cbba1)" d="M 218.661344 226.01863 
L 219.204119 223.012464 
L 219.620778 219.989516 
L 219.905203 216.971695 
L 220.060334 213.99354 
L 220.099494 210.997471 
L 219.829021 205.110658 
L 219.133758 199.297719 
L 218.052822 193.615503 
L 216.623199 188.038267 
L 214.877756 182.592076 
L 212.852487 177.277057 
L 210.583913 172.118687 
L 208.112283 167.131735 
L 205.521891 162.361774 
L 200.256061 153.343617 
L 195.269564 144.77343 
L 191.880391 138.399494 
L 189.831392 134.138331 
L 187.976076 129.836446 
L 186.337587 125.497809 
L 184.960664 121.1632 
L 183.906287 116.896449 
L 183.230263 112.749861 
L 182.972987 108.770065 
L 183.012313 106.845325 
L 183.16661 104.961453 
L 183.451833 103.065109 
L 183.866858 101.164682 
L 184.406437 99.277492 
L 185.071035 97.408497 
L 185.856642 95.566366 
L 186.747635 93.781382 
L 187.745718 92.052783 
L 188.844532 90.390049 
L 190.022691 88.820293 
L 191.289742 87.335608 
L 192.656993 85.925677 
L 194.122275 84.591152 
L 195.690882 83.325035 
L 197.344599 82.136231 
L 200.915314 79.982448 
L 204.775391 78.138585 
L 208.875065 76.607823 
L 213.066222 75.418097 
L 217.274557 74.596999 
L 221.44323 74.159285 
L 225.580169 74.120513 
L 229.63164 74.493639 
L 233.659457 75.304286 
L 237.602585 76.540062 
L 241.398518 78.178565 
L 244.96928 80.182752 
L 248.273354 82.533969 
L 249.820185 83.838081 
L 252.796106 86.783546 
L 255.584921 90.106389 
L 258.19926 93.759539 
L 260.649671 97.688401 
L 262.948189 101.833583 
L 265.1018 106.115512 
L 268.140134 112.786897 
L 272.013861 122.070746 
L 278.626729 138.597208 
L 283.112555 150.36504 
L 285.474873 157.21561 
L 286.791395 161.668312 
L 287.847561 166.034462 
L 288.613393 170.394901 
L 289.095631 174.874488 
L 289.318117 179.471014 
L 289.306778 184.16669 
L 289.087258 188.933274 
L 288.435085 196.226476 
L 285.851037 219.679801 
L 285.438129 227.68139 
L 285.195242 238.135379 
L 284.812237 271.721441 
L 285.003692 282.275411 
L 285.365943 290.233723 
L 285.728487 295.488 
L 285.728487 295.488 
" style="fill:none;stroke:#ffffff;stroke-linecap:square;"/>
   </g>
   <g id="patch_3">
    <path d="M 57.6 307.584 
L 57.6 41.472 
" style="fill:none;stroke:#000000;stroke-linecap:square;stroke-linejoin:miter;stroke-width:0.8;"/>
   </g>
   <g id="patch_4">
    <path d="M 414.72 307.584 
L 414.72 41.472 
" style="fill:none;stroke:#000000;stroke-linecap:square;stroke-linejoin:miter;stroke-width:0.8;"/>
   </g>
   <g id="patch_5">
    <path d="M 57.6 307.584 
L 414.72 307.584 
" style="fill:none;stroke:#000000;stroke-linecap:square;stroke-linejoin:miter;stroke-width:0.8;"/>
   </g>
   <g id="patch_6">
    <path d="M 57.6 41.472 
L 414.72 41.472 
" style="fill:none;stroke:#000000;stroke-linecap:square;stroke-linejoin:miter;stroke-width:0.8;"/>
   </g>
  </g>
 </g>
 <defs>
  <clipPath id="p67a56cbba1">
   <rect height="266.112" width="357.12" x="57.6" y="41.472"/>
  </clipPath>
 </defs>
</svg>
