<?xml version="1.0" encoding="utf-8" standalone="no"?>
<!DOCTYPE svg PUBLIC "-//W3C//DTD SVG 1.1//EN"
  "http://www.w3.org/Graphics/SVG/1.1/DTD/svg11.dtd">
<!-- Created with matplotlib (https://matplotlib.org/) -->
<svg height="345.6pt" version="1.1" viewBox="0 0 460.8 345.6" width="460.8pt" xmlns="http://www.w3.org/2000/svg" xmlns:xlink="http://www.w3.org/1999/xlink">
 <metadata>
  <rdf:RDF xmlns:cc="http://creativecommons.org/ns#" xmlns:dc="http://purl.org/dc/elements/1.1/" xmlns:rdf="http://www.w3.org/1999/02/22-rdf-syntax-ns#">
   <cc:Work>
    <dc:type rdf:resource="http://purl.org/dc/dcmitype/StillImage"/>
    <dc:date>2021-01-23T12:23:17.867216</dc:date>
    <dc:format>image/svg+xml</dc:format>
    <dc:creator>
     <cc:Agent>
      <dc:title>Matplotlib v3.3.3, https://matplotlib.org/</dc:title>
     </cc:Agent>
    </dc:creator>
   </cc:Work>
  </rdf:RDF>
 </metadata>
 <defs>
  <style type="text/css">*{stroke-linecap:butt;stroke-linejoin:round;}</style>
 </defs>
 <g id="figure_1">
  <g id="patch_1">
   <path d="M 0 345.6 
L 460.8 345.6 
L 460.8 0 
L 0 0 
z
" style="fill:#ffffff;"/>
  </g>
  <g id="axes_1">
   <g id="patch_2">
    <path d="M 57.6 307.584 
L 414.72 307.584 
L 414.72 41.472 
L 57.6 41.472 
z
" style="fill:#7d9051;"/>
   </g>
   <g id="matplotlib.axis_1">
    <g id="xtick_1">
     <g id="line2d_1">
      <defs>
       <path d="M 0 0 
L 0 3.5 
" id="mefc6fc00fc" style="stroke:#000000;stroke-width:0.8;"/>
      </defs>
      <g>
       <use style="stroke:#000000;stroke-width:0.8;" x="104.328318" xlink:href="#mefc6fc00fc" y="307.584"/>
      </g>
     </g>
     <g id="text_1">
      <!-- 20 -->
      <g transform="translate(97.965818 322.182437)scale(0.1 -0.1)">
       <defs>
        <path d="M 19.1875 8.296875 
L 53.609375 8.296875 
L 53.609375 0 
L 7.328125 0 
L 7.328125 8.296875 
Q 12.9375 14.109375 22.625 23.890625 
Q 32.328125 33.6875 34.8125 36.53125 
Q 39.546875 41.84375 41.421875 45.53125 
Q 43.3125 49.21875 43.3125 52.78125 
Q 43.3125 58.59375 39.234375 62.25 
Q 35.15625 65.921875 28.609375 65.921875 
Q 23.96875 65.921875 18.8125 64.3125 
Q 13.671875 62.703125 7.8125 59.421875 
L 7.8125 69.390625 
Q 13.765625 71.78125 18.9375 73 
Q 24.125 74.21875 28.421875 74.21875 
Q 39.75 74.21875 46.484375 68.546875 
Q 53.21875 62.890625 53.21875 53.421875 
Q 53.21875 48.921875 51.53125 44.890625 
Q 49.859375 40.875 45.40625 35.40625 
Q 44.1875 33.984375 37.640625 27.21875 
Q 31.109375 20.453125 19.1875 8.296875 
z
" id="DejaVuSans-50"/>
        <path d="M 31.78125 66.40625 
Q 24.171875 66.40625 20.328125 58.90625 
Q 16.5 51.421875 16.5 36.375 
Q 16.5 21.390625 20.328125 13.890625 
Q 24.171875 6.390625 31.78125 6.390625 
Q 39.453125 6.390625 43.28125 13.890625 
Q 47.125 21.390625 47.125 36.375 
Q 47.125 51.421875 43.28125 58.90625 
Q 39.453125 66.40625 31.78125 66.40625 
z
M 31.78125 74.21875 
Q 44.046875 74.21875 50.515625 64.515625 
Q 56.984375 54.828125 56.984375 36.375 
Q 56.984375 17.96875 50.515625 8.265625 
Q 44.046875 -1.421875 31.78125 -1.421875 
Q 19.53125 -1.421875 13.0625 8.265625 
Q 6.59375 17.96875 6.59375 36.375 
Q 6.59375 54.828125 13.0625 64.515625 
Q 19.53125 74.21875 31.78125 74.21875 
z
" id="DejaVuSans-48"/>
       </defs>
       <use xlink:href="#DejaVuSans-50"/>
       <use x="63.623047" xlink:href="#DejaVuSans-48"/>
      </g>
     </g>
    </g>
    <g id="xtick_2">
     <g id="line2d_2">
      <g>
       <use style="stroke:#000000;stroke-width:0.8;" x="159.558773" xlink:href="#mefc6fc00fc" y="307.584"/>
      </g>
     </g>
     <g id="text_2">
      <!-- 40 -->
      <g transform="translate(153.196273 322.182437)scale(0.1 -0.1)">
       <defs>
        <path d="M 37.796875 64.3125 
L 12.890625 25.390625 
L 37.796875 25.390625 
z
M 35.203125 72.90625 
L 47.609375 72.90625 
L 47.609375 25.390625 
L 58.015625 25.390625 
L 58.015625 17.1875 
L 47.609375 17.1875 
L 47.609375 0 
L 37.796875 0 
L 37.796875 17.1875 
L 4.890625 17.1875 
L 4.890625 26.703125 
z
" id="DejaVuSans-52"/>
       </defs>
       <use xlink:href="#DejaVuSans-52"/>
       <use x="63.623047" xlink:href="#DejaVuSans-48"/>
      </g>
     </g>
    </g>
    <g id="xtick_3">
     <g id="line2d_3">
      <g>
       <use style="stroke:#000000;stroke-width:0.8;" x="214.789228" xlink:href="#mefc6fc00fc" y="307.584"/>
      </g>
     </g>
     <g id="text_3">
      <!-- 60 -->
      <g transform="translate(208.426728 322.182437)scale(0.1 -0.1)">
       <defs>
        <path d="M 33.015625 40.375 
Q 26.375 40.375 22.484375 35.828125 
Q 18.609375 31.296875 18.609375 23.390625 
Q 18.609375 15.53125 22.484375 10.953125 
Q 26.375 6.390625 33.015625 6.390625 
Q 39.65625 6.390625 43.53125 10.953125 
Q 47.40625 15.53125 47.40625 23.390625 
Q 47.40625 31.296875 43.53125 35.828125 
Q 39.65625 40.375 33.015625 40.375 
z
M 52.59375 71.296875 
L 52.59375 62.3125 
Q 48.875 64.0625 45.09375 64.984375 
Q 41.3125 65.921875 37.59375 65.921875 
Q 27.828125 65.921875 22.671875 59.328125 
Q 17.53125 52.734375 16.796875 39.40625 
Q 19.671875 43.65625 24.015625 45.921875 
Q 28.375 48.1875 33.59375 48.1875 
Q 44.578125 48.1875 50.953125 41.515625 
Q 57.328125 34.859375 57.328125 23.390625 
Q 57.328125 12.15625 50.6875 5.359375 
Q 44.046875 -1.421875 33.015625 -1.421875 
Q 20.359375 -1.421875 13.671875 8.265625 
Q 6.984375 17.96875 6.984375 36.375 
Q 6.984375 53.65625 15.1875 63.9375 
Q 23.390625 74.21875 37.203125 74.21875 
Q 40.921875 74.21875 44.703125 73.484375 
Q 48.484375 72.75 52.59375 71.296875 
z
" id="DejaVuSans-54"/>
       </defs>
       <use xlink:href="#DejaVuSans-54"/>
       <use x="63.623047" xlink:href="#DejaVuSans-48"/>
      </g>
     </g>
    </g>
    <g id="xtick_4">
     <g id="line2d_4">
      <g>
       <use style="stroke:#000000;stroke-width:0.8;" x="270.019683" xlink:href="#mefc6fc00fc" y="307.584"/>
      </g>
     </g>
     <g id="text_4">
      <!-- 80 -->
      <g transform="translate(263.657183 322.182437)scale(0.1 -0.1)">
       <defs>
        <path d="M 31.78125 34.625 
Q 24.75 34.625 20.71875 30.859375 
Q 16.703125 27.09375 16.703125 20.515625 
Q 16.703125 13.921875 20.71875 10.15625 
Q 24.75 6.390625 31.78125 6.390625 
Q 38.8125 6.390625 42.859375 10.171875 
Q 46.921875 13.96875 46.921875 20.515625 
Q 46.921875 27.09375 42.890625 30.859375 
Q 38.875 34.625 31.78125 34.625 
z
M 21.921875 38.8125 
Q 15.578125 40.375 12.03125 44.71875 
Q 8.5 49.078125 8.5 55.328125 
Q 8.5 64.0625 14.71875 69.140625 
Q 20.953125 74.21875 31.78125 74.21875 
Q 42.671875 74.21875 48.875 69.140625 
Q 55.078125 64.0625 55.078125 55.328125 
Q 55.078125 49.078125 51.53125 44.71875 
Q 48 40.375 41.703125 38.8125 
Q 48.828125 37.15625 52.796875 32.3125 
Q 56.78125 27.484375 56.78125 20.515625 
Q 56.78125 9.90625 50.3125 4.234375 
Q 43.84375 -1.421875 31.78125 -1.421875 
Q 19.734375 -1.421875 13.25 4.234375 
Q 6.78125 9.90625 6.78125 20.515625 
Q 6.78125 27.484375 10.78125 32.3125 
Q 14.796875 37.15625 21.921875 38.8125 
z
M 18.3125 54.390625 
Q 18.3125 48.734375 21.84375 45.5625 
Q 25.390625 42.390625 31.78125 42.390625 
Q 38.140625 42.390625 41.71875 45.5625 
Q 45.3125 48.734375 45.3125 54.390625 
Q 45.3125 60.0625 41.71875 63.234375 
Q 38.140625 66.40625 31.78125 66.40625 
Q 25.390625 66.40625 21.84375 63.234375 
Q 18.3125 60.0625 18.3125 54.390625 
z
" id="DejaVuSans-56"/>
       </defs>
       <use xlink:href="#DejaVuSans-56"/>
       <use x="63.623047" xlink:href="#DejaVuSans-48"/>
      </g>
     </g>
    </g>
    <g id="xtick_5">
     <g id="line2d_5">
      <g>
       <use style="stroke:#000000;stroke-width:0.8;" x="325.250139" xlink:href="#mefc6fc00fc" y="307.584"/>
      </g>
     </g>
     <g id="text_5">
      <!-- 100 -->
      <g transform="translate(315.706389 322.182437)scale(0.1 -0.1)">
       <defs>
        <path d="M 12.40625 8.296875 
L 28.515625 8.296875 
L 28.515625 63.921875 
L 10.984375 60.40625 
L 10.984375 69.390625 
L 28.421875 72.90625 
L 38.28125 72.90625 
L 38.28125 8.296875 
L 54.390625 8.296875 
L 54.390625 0 
L 12.40625 0 
z
" id="DejaVuSans-49"/>
       </defs>
       <use xlink:href="#DejaVuSans-49"/>
       <use x="63.623047" xlink:href="#DejaVuSans-48"/>
       <use x="127.246094" xlink:href="#DejaVuSans-48"/>
      </g>
     </g>
    </g>
    <g id="xtick_6">
     <g id="line2d_6">
      <g>
       <use style="stroke:#000000;stroke-width:0.8;" x="380.480594" xlink:href="#mefc6fc00fc" y="307.584"/>
      </g>
     </g>
     <g id="text_6">
      <!-- 120 -->
      <g transform="translate(370.936844 322.182437)scale(0.1 -0.1)">
       <use xlink:href="#DejaVuSans-49"/>
       <use x="63.623047" xlink:href="#DejaVuSans-50"/>
       <use x="127.246094" xlink:href="#DejaVuSans-48"/>
      </g>
     </g>
    </g>
   </g>
   <g id="matplotlib.axis_2">
    <g id="ytick_1">
     <g id="line2d_7">
      <defs>
       <path d="M 0 0 
L -3.5 0 
" id="mc274985ac0" style="stroke:#000000;stroke-width:0.8;"/>
      </defs>
      <g>
       <use style="stroke:#000000;stroke-width:0.8;" x="57.6" xlink:href="#mc274985ac0" y="297.789095"/>
      </g>
     </g>
     <g id="text_7">
      <!-- 0 -->
      <g transform="translate(44.2375 301.588314)scale(0.1 -0.1)">
       <use xlink:href="#DejaVuSans-48"/>
      </g>
     </g>
    </g>
    <g id="ytick_2">
     <g id="line2d_8">
      <g>
       <use style="stroke:#000000;stroke-width:0.8;" x="57.6" xlink:href="#mc274985ac0" y="242.55864"/>
      </g>
     </g>
     <g id="text_8">
      <!-- 20 -->
      <g transform="translate(37.875 246.357859)scale(0.1 -0.1)">
       <use xlink:href="#DejaVuSans-50"/>
       <use x="63.623047" xlink:href="#DejaVuSans-48"/>
      </g>
     </g>
    </g>
    <g id="ytick_3">
     <g id="line2d_9">
      <g>
       <use style="stroke:#000000;stroke-width:0.8;" x="57.6" xlink:href="#mc274985ac0" y="187.328185"/>
      </g>
     </g>
     <g id="text_9">
      <!-- 40 -->
      <g transform="translate(37.875 191.127404)scale(0.1 -0.1)">
       <use xlink:href="#DejaVuSans-52"/>
       <use x="63.623047" xlink:href="#DejaVuSans-48"/>
      </g>
     </g>
    </g>
    <g id="ytick_4">
     <g id="line2d_10">
      <g>
       <use style="stroke:#000000;stroke-width:0.8;" x="57.6" xlink:href="#mc274985ac0" y="132.09773"/>
      </g>
     </g>
     <g id="text_10">
      <!-- 60 -->
      <g transform="translate(37.875 135.896949)scale(0.1 -0.1)">
       <use xlink:href="#DejaVuSans-54"/>
       <use x="63.623047" xlink:href="#DejaVuSans-48"/>
      </g>
     </g>
    </g>
    <g id="ytick_5">
     <g id="line2d_11">
      <g>
       <use style="stroke:#000000;stroke-width:0.8;" x="57.6" xlink:href="#mc274985ac0" y="76.867275"/>
      </g>
     </g>
     <g id="text_11">
      <!-- 80 -->
      <g transform="translate(37.875 80.666494)scale(0.1 -0.1)">
       <use xlink:href="#DejaVuSans-56"/>
       <use x="63.623047" xlink:href="#DejaVuSans-48"/>
      </g>
     </g>
    </g>
   </g>
   <g id="line2d_12">
    <path clip-path="url(#p9933225a4d)" d="M 76.713091 270.173868 
L 82.078729 268.795868 
L 87.491314 267.669167 
L 92.937037 266.74958 
L 101.152567 265.650494 
L 112.154474 264.474085 
L 123.142573 263.289392 
L 131.336011 262.176498 
L 136.759641 261.245865 
L 142.155657 260.157825 
L 147.532342 258.912378 
L 152.892457 257.515048 
L 160.914681 255.131853 
L 166.211282 253.31201 
L 171.383614 251.216014 
L 173.896599 250.036844 
L 176.34607 248.755497 
L 178.726503 247.360928 
L 181.021328 245.844852 
L 183.225023 244.193462 
L 185.326542 242.401234 
L 187.320362 240.476452 
L 189.206482 238.427402 
L 190.976618 236.26513 
L 192.633531 234.003443 
L 194.168938 231.650625 
L 195.580076 229.220485 
L 196.866946 226.718546 
L 198.021262 224.161376 
L 199.043026 221.560021 
L 199.929474 218.917244 
L 200.688893 216.246852 
L 201.326805 213.548844 
L 202.27953 208.086552 
L 202.856689 202.566268 
L 203.127318 197.023892 
L 203.163218 191.4898 
L 202.903634 183.221801 
L 201.694087 158.315627 
L 201.77141 152.756682 
L 202.171831 147.236398 
L 202.525306 144.50249 
L 202.994765 141.787914 
L 203.594015 139.09819 
L 204.334103 136.436082 
L 205.209506 133.807113 
L 206.2147 131.219566 
L 207.344163 128.673442 
L 208.58961 126.177025 
L 209.945517 123.735839 
L 211.406363 121.349884 
L 212.963862 119.030204 
L 214.615252 116.782325 
L 218.166571 112.507488 
L 222.016133 108.533656 
L 226.122518 104.833216 
L 230.444301 101.367505 
L 234.942821 98.11167 
L 239.58218 95.032572 
L 244.337522 92.141257 
L 249.217133 89.484673 
L 254.215489 87.115286 
L 259.343637 85.085567 
L 264.596053 83.439699 
L 269.961691 82.177683 
L 275.415699 81.241527 
L 280.924937 80.573239 
L 286.464551 80.109303 
L 294.76845 79.678505 
L 305.806257 79.410638 
L 325.136916 79.267038 
L 330.665485 79.377499 
L 336.183007 79.695074 
L 341.681199 80.310894 
L 347.151776 81.310565 
L 349.863591 81.976092 
L 352.550553 82.754842 
L 355.198853 83.655098 
L 357.800207 84.676861 
L 360.34357 85.822893 
L 362.820656 87.101478 
L 365.220419 88.512617 
L 367.537336 90.059069 
L 369.754839 91.749121 
L 371.867404 93.580011 
L 373.866747 95.543453 
L 375.747344 97.628403 
L 377.506434 99.826575 
L 379.132971 102.124162 
L 380.621431 104.510118 
L 381.969054 106.970635 
L 383.167555 109.500189 
L 384.211411 112.082213 
L 385.095098 114.711183 
L 385.815856 117.370529 
L 386.381968 120.060252 
L 386.810004 122.774829 
L 387.315362 128.27026 
L 387.442393 133.834728 
L 387.309839 139.437858 
L 386.492429 159.006008 
L 386.636028 164.482107 
L 386.843142 167.185638 
L 387.163479 169.861554 
L 387.163479 169.861554 
" style="fill:none;stroke:#fea952;stroke-linecap:square;"/>
   </g>
   <g id="line2d_13">
    <path clip-path="url(#p9933225a4d)" d="M 73.832727 259.509927 
L 79.717556 258.005085 
L 85.557166 256.793727 
L 91.347064 255.818518 
L 99.89521 254.676197 
L 111.029133 253.485466 
L 121.782004 252.327413 
L 129.550622 251.275649 
L 134.663745 250.400435 
L 139.745377 249.377905 
L 144.819553 248.204582 
L 152.418393 246.170957 
L 159.869181 243.844668 
L 164.505234 242.134747 
L 168.776497 240.249062 
L 172.637678 238.144511 
L 174.397219 237.005322 
L 176.057264 235.78874 
L 177.654577 234.454091 
L 179.193166 232.995489 
L 180.659225 231.430223 
L 182.065883 229.737119 
L 183.382937 227.96667 
L 184.616553 226.103729 
L 185.757174 224.168088 
L 186.799074 222.173869 
L 188.570368 218.047249 
L 189.939187 213.705212 
L 190.938912 209.131463 
L 191.608226 204.352291 
L 191.986544 199.38966 
L 192.125461 194.287189 
L 192.070332 189.08504 
L 191.737476 181.101816 
L 190.702423 161.30997 
L 190.654742 155.235359 
L 190.921936 148.996535 
L 191.216925 145.820006 
L 191.640784 142.620121 
L 192.213017 139.38582 
L 192.951542 136.139494 
L 193.853761 132.946305 
L 194.913055 129.807211 
L 196.117496 126.740437 
L 197.459869 123.742229 
L 198.933074 120.813497 
L 200.524943 117.967918 
L 202.235665 115.192415 
L 204.061805 112.490364 
L 205.982228 109.891243 
L 207.995777 107.382294 
L 210.101168 104.959945 
L 214.491772 100.446623 
L 219.096578 96.309584 
L 223.873043 92.488615 
L 228.752488 88.963123 
L 233.743526 85.655672 
L 238.929345 82.509656 
L 244.334566 79.576258 
L 249.972485 76.916607 
L 255.84058 74.609655 
L 258.851438 73.611288 
L 261.893534 72.729306 
L 267.954661 71.315457 
L 273.964449 70.291185 
L 279.915972 69.573324 
L 285.772094 69.084938 
L 294.3931 68.638793 
L 305.673581 68.365343 
L 325.269327 68.221741 
L 331.173575 68.3431 
L 337.242779 68.699939 
L 343.461513 69.409215 
L 346.610099 69.931334 
L 349.784553 70.582816 
L 352.938487 71.366609 
L 356.105733 72.296504 
L 359.237207 73.373667 
L 362.338134 74.605945 
L 365.41006 76.007253 
L 368.419809 77.57963 
L 371.352741 79.325084 
L 374.233063 81.273663 
L 376.989262 83.401711 
L 379.607093 85.698809 
L 382.069133 88.145009 
L 384.371834 90.726644 
L 386.522018 93.444149 
L 388.504909 96.277548 
L 390.309589 99.203921 
L 391.951381 102.241017 
L 393.408416 105.360034 
L 394.681821 108.562748 
L 395.756553 111.82163 
L 396.625123 115.095478 
L 397.293247 118.339756 
L 397.787586 121.546491 
L 398.133989 124.719413 
L 398.463191 130.947163 
L 398.441239 136.990742 
L 398.065832 145.662116 
L 397.570864 156.374135 
L 397.559378 161.298025 
L 397.810924 165.872674 
L 398.131261 168.548589 
L 398.131261 168.548589 
" style="fill:none;stroke:#ffffff;stroke-linecap:square;"/>
   </g>
   <g id="line2d_14">
    <path clip-path="url(#p9933225a4d)" d="M 79.593454 280.837809 
L 84.439903 279.586651 
L 89.425462 278.544607 
L 94.527009 277.680642 
L 102.409924 276.62479 
L 113.279814 275.462703 
L 124.503141 274.25137 
L 133.121399 273.077347 
L 138.855537 272.091295 
L 144.565936 270.937745 
L 150.24513 269.620174 
L 155.898065 268.144368 
L 161.521406 266.510987 
L 167.278874 264.657187 
L 173.131084 262.473361 
L 176.07589 261.215948 
L 179.016702 259.824626 
L 181.92974 258.286434 
L 184.815327 256.577346 
L 187.645438 254.684383 
L 190.392782 252.598184 
L 192.998507 250.348377 
L 195.447557 247.957416 
L 197.753739 245.424582 
L 199.887353 242.793141 
L 201.884126 240.040216 
L 203.721323 237.197522 
L 205.402978 234.272883 
L 206.934818 231.263222 
L 208.302693 228.19973 
L 209.515683 225.072794 
L 210.554279 221.938776 
L 211.4386 218.788491 
L 212.171303 215.649553 
L 212.7696 212.520501 
L 213.613601 206.308813 
L 214.063739 200.203261 
L 214.217544 194.220979 
L 214.151166 188.377037 
L 213.793641 179.840832 
L 212.79069 160.894037 
L 212.738956 155.828666 
L 212.924652 150.982738 
L 213.409828 146.384859 
L 214.236489 142.056886 
L 214.814446 139.92586 
L 215.505957 137.807015 
L 217.228457 133.604655 
L 219.366092 129.50376 
L 221.865919 125.570045 
L 224.708724 121.830197 
L 227.85794 118.307843 
L 231.303285 114.972894 
L 235.053771 111.781126 
L 239.056481 108.7328 
L 243.274459 105.809177 
L 247.58398 103.059617 
L 251.916326 100.549703 
L 256.278958 98.313527 
L 260.650194 96.394906 
L 265.055113 94.814564 
L 269.621684 93.557967 
L 274.411924 92.584842 
L 279.375155 91.856737 
L 284.529344 91.333695 
L 292.467231 90.83087 
L 300.509833 90.55393 
L 314.181951 90.373436 
L 327.59234 90.341949 
L 332.663116 90.524366 
L 337.534927 90.917378 
L 342.23116 91.585188 
L 346.788694 92.585576 
L 351.160499 93.936529 
L 355.27708 95.638534 
L 357.221502 96.623327 
L 359.088097 97.700149 
L 360.84161 98.844476 
L 362.520417 100.096532 
L 364.127715 101.461213 
L 365.66436 102.941898 
L 367.122853 104.530163 
L 368.49085 106.209002 
L 369.761032 107.970776 
L 370.933273 109.816314 
L 371.986728 111.700252 
L 372.926694 113.640345 
L 373.741001 115.601679 
L 374.433644 117.600736 
L 375.006588 119.645581 
L 375.470688 121.780749 
L 376.099076 126.309106 
L 376.371886 131.144017 
L 376.360701 136.273559 
L 376.007066 144.447474 
L 375.570303 153.118558 
L 375.447011 159.127995 
L 375.622209 165.325863 
L 376.195696 171.174518 
L 376.195696 171.174518 
" style="fill:none;stroke:#ffffff;stroke-linecap:square;"/>
   </g>
   <g id="patch_3">
    <path d="M 57.6 307.584 
L 57.6 41.472 
" style="fill:none;stroke:#000000;stroke-linecap:square;stroke-linejoin:miter;stroke-width:0.8;"/>
   </g>
   <g id="patch_4">
    <path d="M 414.72 307.584 
L 414.72 41.472 
" style="fill:none;stroke:#000000;stroke-linecap:square;stroke-linejoin:miter;stroke-width:0.8;"/>
   </g>
   <g id="patch_5">
    <path d="M 57.6 307.584 
L 414.72 307.584 
" style="fill:none;stroke:#000000;stroke-linecap:square;stroke-linejoin:miter;stroke-width:0.8;"/>
   </g>
   <g id="patch_6">
    <path d="M 57.6 41.472 
L 414.72 41.472 
" style="fill:none;stroke:#000000;stroke-linecap:square;stroke-linejoin:miter;stroke-width:0.8;"/>
   </g>
  </g>
 </g>
 <defs>
  <clipPath id="p9933225a4d">
   <rect height="266.112" width="357.12" x="57.6" y="41.472"/>
  </clipPath>
 </defs>
</svg>
