<?xml version="1.0" encoding="utf-8" standalone="no"?>
<!DOCTYPE svg PUBLIC "-//W3C//DTD SVG 1.1//EN"
  "http://www.w3.org/Graphics/SVG/1.1/DTD/svg11.dtd">
<!-- Created with matplotlib (https://matplotlib.org/) -->
<svg height="345.6pt" version="1.1" viewBox="0 0 460.8 345.6" width="460.8pt" xmlns="http://www.w3.org/2000/svg" xmlns:xlink="http://www.w3.org/1999/xlink">
 <metadata>
  <rdf:RDF xmlns:cc="http://creativecommons.org/ns#" xmlns:dc="http://purl.org/dc/elements/1.1/" xmlns:rdf="http://www.w3.org/1999/02/22-rdf-syntax-ns#">
   <cc:Work>
    <dc:type rdf:resource="http://purl.org/dc/dcmitype/StillImage"/>
    <dc:date>2021-01-25T09:52:25.764357</dc:date>
    <dc:format>image/svg+xml</dc:format>
    <dc:creator>
     <cc:Agent>
      <dc:title>Matplotlib v3.3.3, https://matplotlib.org/</dc:title>
     </cc:Agent>
    </dc:creator>
   </cc:Work>
  </rdf:RDF>
 </metadata>
 <defs>
  <style type="text/css">*{stroke-linecap:butt;stroke-linejoin:round;}</style>
 </defs>
 <g id="figure_1">
  <g id="patch_1">
   <path d="M 0 345.6 
L 460.8 345.6 
L 460.8 0 
L 0 0 
z
" style="fill:#ffffff;"/>
  </g>
  <g id="axes_1">
   <g id="patch_2">
    <path d="M 57.6 307.584 
L 414.72 307.584 
L 414.72 41.472 
L 57.6 41.472 
z
" style="fill:#7d9051;"/>
   </g>
   <g id="matplotlib.axis_1">
    <g id="xtick_1">
     <g id="line2d_1">
      <defs>
       <path d="M 0 0 
L 0 3.5 
" id="mefefde9447" style="stroke:#000000;stroke-width:0.8;"/>
      </defs>
      <g>
       <use style="stroke:#000000;stroke-width:0.8;" x="65.865447" xlink:href="#mefefde9447" y="307.584"/>
      </g>
     </g>
     <g id="text_1">
      <!-- −20 -->
      <g transform="translate(55.313103 322.182437)scale(0.1 -0.1)">
       <defs>
        <path d="M 10.59375 35.5 
L 73.1875 35.5 
L 73.1875 27.203125 
L 10.59375 27.203125 
z
" id="DejaVuSans-8722"/>
        <path d="M 19.1875 8.296875 
L 53.609375 8.296875 
L 53.609375 0 
L 7.328125 0 
L 7.328125 8.296875 
Q 12.9375 14.109375 22.625 23.890625 
Q 32.328125 33.6875 34.8125 36.53125 
Q 39.546875 41.84375 41.421875 45.53125 
Q 43.3125 49.21875 43.3125 52.78125 
Q 43.3125 58.59375 39.234375 62.25 
Q 35.15625 65.921875 28.609375 65.921875 
Q 23.96875 65.921875 18.8125 64.3125 
Q 13.671875 62.703125 7.8125 59.421875 
L 7.8125 69.390625 
Q 13.765625 71.78125 18.9375 73 
Q 24.125 74.21875 28.421875 74.21875 
Q 39.75 74.21875 46.484375 68.546875 
Q 53.21875 62.890625 53.21875 53.421875 
Q 53.21875 48.921875 51.53125 44.890625 
Q 49.859375 40.875 45.40625 35.40625 
Q 44.1875 33.984375 37.640625 27.21875 
Q 31.109375 20.453125 19.1875 8.296875 
z
" id="DejaVuSans-50"/>
        <path d="M 31.78125 66.40625 
Q 24.171875 66.40625 20.328125 58.90625 
Q 16.5 51.421875 16.5 36.375 
Q 16.5 21.390625 20.328125 13.890625 
Q 24.171875 6.390625 31.78125 6.390625 
Q 39.453125 6.390625 43.28125 13.890625 
Q 47.125 21.390625 47.125 36.375 
Q 47.125 51.421875 43.28125 58.90625 
Q 39.453125 66.40625 31.78125 66.40625 
z
M 31.78125 74.21875 
Q 44.046875 74.21875 50.515625 64.515625 
Q 56.984375 54.828125 56.984375 36.375 
Q 56.984375 17.96875 50.515625 8.265625 
Q 44.046875 -1.421875 31.78125 -1.421875 
Q 19.53125 -1.421875 13.0625 8.265625 
Q 6.59375 17.96875 6.59375 36.375 
Q 6.59375 54.828125 13.0625 64.515625 
Q 19.53125 74.21875 31.78125 74.21875 
z
" id="DejaVuSans-48"/>
       </defs>
       <use xlink:href="#DejaVuSans-8722"/>
       <use x="83.789062" xlink:href="#DejaVuSans-50"/>
       <use x="147.412109" xlink:href="#DejaVuSans-48"/>
      </g>
     </g>
    </g>
    <g id="xtick_2">
     <g id="line2d_2">
      <g>
       <use style="stroke:#000000;stroke-width:0.8;" x="108.543522" xlink:href="#mefefde9447" y="307.584"/>
      </g>
     </g>
     <g id="text_2">
      <!-- 0 -->
      <g transform="translate(105.362272 322.182437)scale(0.1 -0.1)">
       <use xlink:href="#DejaVuSans-48"/>
      </g>
     </g>
    </g>
    <g id="xtick_3">
     <g id="line2d_3">
      <g>
       <use style="stroke:#000000;stroke-width:0.8;" x="151.221596" xlink:href="#mefefde9447" y="307.584"/>
      </g>
     </g>
     <g id="text_3">
      <!-- 20 -->
      <g transform="translate(144.859096 322.182437)scale(0.1 -0.1)">
       <use xlink:href="#DejaVuSans-50"/>
       <use x="63.623047" xlink:href="#DejaVuSans-48"/>
      </g>
     </g>
    </g>
    <g id="xtick_4">
     <g id="line2d_4">
      <g>
       <use style="stroke:#000000;stroke-width:0.8;" x="193.89967" xlink:href="#mefefde9447" y="307.584"/>
      </g>
     </g>
     <g id="text_4">
      <!-- 40 -->
      <g transform="translate(187.53717 322.182437)scale(0.1 -0.1)">
       <defs>
        <path d="M 37.796875 64.3125 
L 12.890625 25.390625 
L 37.796875 25.390625 
z
M 35.203125 72.90625 
L 47.609375 72.90625 
L 47.609375 25.390625 
L 58.015625 25.390625 
L 58.015625 17.1875 
L 47.609375 17.1875 
L 47.609375 0 
L 37.796875 0 
L 37.796875 17.1875 
L 4.890625 17.1875 
L 4.890625 26.703125 
z
" id="DejaVuSans-52"/>
       </defs>
       <use xlink:href="#DejaVuSans-52"/>
       <use x="63.623047" xlink:href="#DejaVuSans-48"/>
      </g>
     </g>
    </g>
    <g id="xtick_5">
     <g id="line2d_5">
      <g>
       <use style="stroke:#000000;stroke-width:0.8;" x="236.577745" xlink:href="#mefefde9447" y="307.584"/>
      </g>
     </g>
     <g id="text_5">
      <!-- 60 -->
      <g transform="translate(230.215245 322.182437)scale(0.1 -0.1)">
       <defs>
        <path d="M 33.015625 40.375 
Q 26.375 40.375 22.484375 35.828125 
Q 18.609375 31.296875 18.609375 23.390625 
Q 18.609375 15.53125 22.484375 10.953125 
Q 26.375 6.390625 33.015625 6.390625 
Q 39.65625 6.390625 43.53125 10.953125 
Q 47.40625 15.53125 47.40625 23.390625 
Q 47.40625 31.296875 43.53125 35.828125 
Q 39.65625 40.375 33.015625 40.375 
z
M 52.59375 71.296875 
L 52.59375 62.3125 
Q 48.875 64.0625 45.09375 64.984375 
Q 41.3125 65.921875 37.59375 65.921875 
Q 27.828125 65.921875 22.671875 59.328125 
Q 17.53125 52.734375 16.796875 39.40625 
Q 19.671875 43.65625 24.015625 45.921875 
Q 28.375 48.1875 33.59375 48.1875 
Q 44.578125 48.1875 50.953125 41.515625 
Q 57.328125 34.859375 57.328125 23.390625 
Q 57.328125 12.15625 50.6875 5.359375 
Q 44.046875 -1.421875 33.015625 -1.421875 
Q 20.359375 -1.421875 13.671875 8.265625 
Q 6.984375 17.96875 6.984375 36.375 
Q 6.984375 53.65625 15.1875 63.9375 
Q 23.390625 74.21875 37.203125 74.21875 
Q 40.921875 74.21875 44.703125 73.484375 
Q 48.484375 72.75 52.59375 71.296875 
z
" id="DejaVuSans-54"/>
       </defs>
       <use xlink:href="#DejaVuSans-54"/>
       <use x="63.623047" xlink:href="#DejaVuSans-48"/>
      </g>
     </g>
    </g>
    <g id="xtick_6">
     <g id="line2d_6">
      <g>
       <use style="stroke:#000000;stroke-width:0.8;" x="279.255819" xlink:href="#mefefde9447" y="307.584"/>
      </g>
     </g>
     <g id="text_6">
      <!-- 80 -->
      <g transform="translate(272.893319 322.182437)scale(0.1 -0.1)">
       <defs>
        <path d="M 31.78125 34.625 
Q 24.75 34.625 20.71875 30.859375 
Q 16.703125 27.09375 16.703125 20.515625 
Q 16.703125 13.921875 20.71875 10.15625 
Q 24.75 6.390625 31.78125 6.390625 
Q 38.8125 6.390625 42.859375 10.171875 
Q 46.921875 13.96875 46.921875 20.515625 
Q 46.921875 27.09375 42.890625 30.859375 
Q 38.875 34.625 31.78125 34.625 
z
M 21.921875 38.8125 
Q 15.578125 40.375 12.03125 44.71875 
Q 8.5 49.078125 8.5 55.328125 
Q 8.5 64.0625 14.71875 69.140625 
Q 20.953125 74.21875 31.78125 74.21875 
Q 42.671875 74.21875 48.875 69.140625 
Q 55.078125 64.0625 55.078125 55.328125 
Q 55.078125 49.078125 51.53125 44.71875 
Q 48 40.375 41.703125 38.8125 
Q 48.828125 37.15625 52.796875 32.3125 
Q 56.78125 27.484375 56.78125 20.515625 
Q 56.78125 9.90625 50.3125 4.234375 
Q 43.84375 -1.421875 31.78125 -1.421875 
Q 19.734375 -1.421875 13.25 4.234375 
Q 6.78125 9.90625 6.78125 20.515625 
Q 6.78125 27.484375 10.78125 32.3125 
Q 14.796875 37.15625 21.921875 38.8125 
z
M 18.3125 54.390625 
Q 18.3125 48.734375 21.84375 45.5625 
Q 25.390625 42.390625 31.78125 42.390625 
Q 38.140625 42.390625 41.71875 45.5625 
Q 45.3125 48.734375 45.3125 54.390625 
Q 45.3125 60.0625 41.71875 63.234375 
Q 38.140625 66.40625 31.78125 66.40625 
Q 25.390625 66.40625 21.84375 63.234375 
Q 18.3125 60.0625 18.3125 54.390625 
z
" id="DejaVuSans-56"/>
       </defs>
       <use xlink:href="#DejaVuSans-56"/>
       <use x="63.623047" xlink:href="#DejaVuSans-48"/>
      </g>
     </g>
    </g>
    <g id="xtick_7">
     <g id="line2d_7">
      <g>
       <use style="stroke:#000000;stroke-width:0.8;" x="321.933894" xlink:href="#mefefde9447" y="307.584"/>
      </g>
     </g>
     <g id="text_7">
      <!-- 100 -->
      <g transform="translate(312.390144 322.182437)scale(0.1 -0.1)">
       <defs>
        <path d="M 12.40625 8.296875 
L 28.515625 8.296875 
L 28.515625 63.921875 
L 10.984375 60.40625 
L 10.984375 69.390625 
L 28.421875 72.90625 
L 38.28125 72.90625 
L 38.28125 8.296875 
L 54.390625 8.296875 
L 54.390625 0 
L 12.40625 0 
z
" id="DejaVuSans-49"/>
       </defs>
       <use xlink:href="#DejaVuSans-49"/>
       <use x="63.623047" xlink:href="#DejaVuSans-48"/>
       <use x="127.246094" xlink:href="#DejaVuSans-48"/>
      </g>
     </g>
    </g>
    <g id="xtick_8">
     <g id="line2d_8">
      <g>
       <use style="stroke:#000000;stroke-width:0.8;" x="364.611968" xlink:href="#mefefde9447" y="307.584"/>
      </g>
     </g>
     <g id="text_8">
      <!-- 120 -->
      <g transform="translate(355.068218 322.182437)scale(0.1 -0.1)">
       <use xlink:href="#DejaVuSans-49"/>
       <use x="63.623047" xlink:href="#DejaVuSans-50"/>
       <use x="127.246094" xlink:href="#DejaVuSans-48"/>
      </g>
     </g>
    </g>
    <g id="xtick_9">
     <g id="line2d_9">
      <g>
       <use style="stroke:#000000;stroke-width:0.8;" x="407.290043" xlink:href="#mefefde9447" y="307.584"/>
      </g>
     </g>
     <g id="text_9">
      <!-- 140 -->
      <g transform="translate(397.746293 322.182437)scale(0.1 -0.1)">
       <use xlink:href="#DejaVuSans-49"/>
       <use x="63.623047" xlink:href="#DejaVuSans-52"/>
       <use x="127.246094" xlink:href="#DejaVuSans-48"/>
      </g>
     </g>
    </g>
   </g>
   <g id="matplotlib.axis_2">
    <g id="ytick_1">
     <g id="line2d_10">
      <defs>
       <path d="M 0 0 
L -3.5 0 
" id="m4f6a23c18b" style="stroke:#000000;stroke-width:0.8;"/>
      </defs>
      <g>
       <use style="stroke:#000000;stroke-width:0.8;" x="57.6" xlink:href="#m4f6a23c18b" y="267.591722"/>
      </g>
     </g>
     <g id="text_10">
      <!-- 20 -->
      <g transform="translate(37.875 271.390941)scale(0.1 -0.1)">
       <use xlink:href="#DejaVuSans-50"/>
       <use x="63.623047" xlink:href="#DejaVuSans-48"/>
      </g>
     </g>
    </g>
    <g id="ytick_2">
     <g id="line2d_11">
      <g>
       <use style="stroke:#000000;stroke-width:0.8;" x="57.6" xlink:href="#m4f6a23c18b" y="224.913647"/>
      </g>
     </g>
     <g id="text_11">
      <!-- 40 -->
      <g transform="translate(37.875 228.712866)scale(0.1 -0.1)">
       <use xlink:href="#DejaVuSans-52"/>
       <use x="63.623047" xlink:href="#DejaVuSans-48"/>
      </g>
     </g>
    </g>
    <g id="ytick_3">
     <g id="line2d_12">
      <g>
       <use style="stroke:#000000;stroke-width:0.8;" x="57.6" xlink:href="#m4f6a23c18b" y="182.235573"/>
      </g>
     </g>
     <g id="text_12">
      <!-- 60 -->
      <g transform="translate(37.875 186.034792)scale(0.1 -0.1)">
       <use xlink:href="#DejaVuSans-54"/>
       <use x="63.623047" xlink:href="#DejaVuSans-48"/>
      </g>
     </g>
    </g>
    <g id="ytick_4">
     <g id="line2d_13">
      <g>
       <use style="stroke:#000000;stroke-width:0.8;" x="57.6" xlink:href="#m4f6a23c18b" y="139.557498"/>
      </g>
     </g>
     <g id="text_13">
      <!-- 80 -->
      <g transform="translate(37.875 143.356717)scale(0.1 -0.1)">
       <use xlink:href="#DejaVuSans-56"/>
       <use x="63.623047" xlink:href="#DejaVuSans-48"/>
      </g>
     </g>
    </g>
    <g id="ytick_5">
     <g id="line2d_14">
      <g>
       <use style="stroke:#000000;stroke-width:0.8;" x="57.6" xlink:href="#m4f6a23c18b" y="96.879424"/>
      </g>
     </g>
     <g id="text_14">
      <!-- 100 -->
      <g transform="translate(31.5125 100.678643)scale(0.1 -0.1)">
       <use xlink:href="#DejaVuSans-49"/>
       <use x="63.623047" xlink:href="#DejaVuSans-48"/>
       <use x="127.246094" xlink:href="#DejaVuSans-48"/>
      </g>
     </g>
    </g>
    <g id="ytick_6">
     <g id="line2d_15">
      <g>
       <use style="stroke:#000000;stroke-width:0.8;" x="57.6" xlink:href="#m4f6a23c18b" y="54.201349"/>
      </g>
     </g>
     <g id="text_15">
      <!-- 120 -->
      <g transform="translate(31.5125 58.000568)scale(0.1 -0.1)">
       <use xlink:href="#DejaVuSans-49"/>
       <use x="63.623047" xlink:href="#DejaVuSans-50"/>
       <use x="127.246094" xlink:href="#DejaVuSans-48"/>
      </g>
     </g>
    </g>
   </g>
   <g id="line2d_16">
    <path clip-path="url(#p1641267728)" d="M 341.642629 117.390506 
L 342.124891 113.333955 
L 342.395897 109.115228 
L 342.427905 104.791939 
L 342.191042 100.417436 
L 341.6597 96.051469 
L 340.806138 91.749519 
L 339.600483 87.564934 
L 338.014992 83.557463 
L 337.069673 81.639083 
L 336.021926 79.782587 
L 334.863217 78.000778 
L 333.59141 76.295789 
L 332.206506 74.67829 
L 330.714908 73.148281 
L 329.123016 71.707896 
L 327.441499 70.361402 
L 325.678895 69.108801 
L 323.841604 67.952225 
L 321.938162 66.893809 
L 319.979238 65.935686 
L 317.971235 65.079991 
L 315.924821 64.328856 
L 313.846399 63.684418 
L 309.617002 62.719893 
L 307.47883 62.401941 
L 303.17688 62.103195 
L 301.025905 62.124534 
L 298.881332 62.261104 
L 296.749562 62.512904 
L 294.634864 62.88207 
L 292.543638 63.370734 
L 290.480153 63.972495 
L 286.451343 65.493968 
L 282.582575 67.405946 
L 278.905859 69.667884 
L 275.453203 72.232836 
L 272.24808 75.062392 
L 269.252079 78.103205 
L 266.420389 81.304061 
L 262.374507 86.295261 
L 255.851163 94.766859 
L 250.827954 101.663636 
L 247.24513 106.957851 
L 243.830884 112.369431 
L 239.460649 119.707926 
L 226.492916 141.791696 
L 221.89222 148.985085 
L 218.268851 154.266497 
L 214.468368 159.422008 
L 210.475835 164.428146 
L 206.295517 169.282777 
L 201.946621 173.983767 
L 197.441951 178.535384 
L 192.80071 182.946163 
L 186.431007 188.633016 
L 179.886325 194.12355 
L 174.856714 198.090477 
L 169.70547 201.888826 
L 164.421924 205.501525 
L 155.551287 211.427376 
L 152.090095 213.928311 
L 148.733464 216.587155 
L 145.521939 219.435916 
L 142.498198 222.483131 
L 139.707052 225.739468 
L 137.191179 229.211329 
L 134.993258 232.909385 
L 133.147431 236.810161 
L 131.683574 240.877381 
L 130.631559 245.059832 
L 130.266661 247.183067 
L 130.016995 249.31697 
L 129.882559 251.461544 
L 129.867621 253.606117 
L 129.970049 255.748556 
L 130.509926 260.007828 
L 131.476585 264.205217 
L 132.844417 268.30658 
L 134.583549 272.27564 
L 136.670507 276.078257 
L 139.073282 279.680286 
L 141.768403 283.045453 
L 144.728127 286.141747 
L 147.924715 288.930759 
L 147.924715 288.930759 
" style="fill:none;stroke:#fea952;stroke-linecap:square;"/>
   </g>
   <g id="line2d_17">
    <path clip-path="url(#p1641267728)" d="M 333.181653 116.264179 
L 333.615449 112.666038 
L 333.86231 108.929163 
L 333.898474 105.11679 
L 333.700707 101.295461 
L 333.255473 97.543344 
L 332.553078 93.927526 
L 331.587413 90.505587 
L 330.358491 87.330355 
L 328.866274 84.435904 
L 327.10767 81.84717 
L 324.988028 79.477543 
L 322.497021 77.31905 
L 319.693503 75.412116 
L 316.633016 73.788043 
L 313.396978 72.48157 
L 310.053861 71.515746 
L 306.66878 70.899032 
L 303.261555 70.63839 
L 299.882582 70.737791 
L 296.577089 71.193777 
L 293.290845 72.032069 
L 290.047523 73.235041 
L 286.890761 74.774545 
L 283.845458 76.628996 
L 280.975104 78.741702 
L 278.23657 81.144719 
L 275.582957 83.828299 
L 272.979721 86.765917 
L 269.100651 91.550327 
L 262.689874 99.874575 
L 257.840632 106.52975 
L 254.421217 111.579593 
L 251.127426 116.79856 
L 246.839404 123.998694 
L 234.883354 144.439002 
L 230.198447 151.886498 
L 226.483552 157.417692 
L 222.563156 162.870493 
L 218.431889 168.185294 
L 214.111225 173.32446 
L 209.610303 178.305823 
L 204.960504 183.104891 
L 200.18126 187.735951 
L 195.293666 192.209228 
L 188.639109 197.963559 
L 183.50816 202.163147 
L 178.216303 206.249512 
L 172.765169 210.166768 
L 163.845142 216.112493 
L 158.873921 219.53199 
L 155.783708 221.854449 
L 152.867639 224.283989 
L 150.144948 226.84086 
L 147.656325 229.515716 
L 145.429076 232.308166 
L 143.488974 235.21623 
L 141.824757 238.302159 
L 140.46486 241.52337 
L 139.432443 244.830681 
L 138.744447 248.174968 
L 138.417967 251.520994 
L 138.462458 254.890823 
L 138.870882 258.289939 
L 139.634382 261.693829 
L 140.734847 265.051146 
L 142.153189 268.331371 
L 143.87306 271.49787 
L 145.84978 274.490316 
L 148.065396 277.28311 
L 150.483431 279.838319 
L 153.389082 282.373518 
L 153.389082 282.373518 
" style="fill:none;stroke:#ffffff;stroke-linecap:square;"/>
   </g>
   <g id="line2d_18">
    <path clip-path="url(#p1641267728)" d="M 350.103604 118.516834 
L 350.634333 114.001873 
L 350.929483 109.301292 
L 350.957336 104.467088 
L 350.681377 99.539411 
L 350.063927 94.559595 
L 349.059199 89.571512 
L 348.395666 87.091219 
L 347.613552 84.624281 
L 346.711264 82.196786 
L 345.671493 79.784571 
L 344.503166 77.443859 
L 343.177579 75.129271 
L 341.705044 72.897237 
L 340.07515 70.744407 
L 338.318327 68.719903 
L 336.441788 66.819018 
L 334.458265 65.045176 
L 332.385978 63.403755 
L 330.226116 61.885263 
L 327.989705 60.492334 
L 325.688438 59.226205 
L 323.325461 58.083329 
L 320.91236 57.067095 
L 318.452664 56.176143 
L 315.952101 55.412614 
L 313.430878 54.781869 
L 310.872465 54.277113 
L 308.28888 53.904851 
L 305.701853 53.669576 
L 303.092206 53.568 
L 300.483442 53.606174 
L 297.880082 53.784417 
L 295.281689 54.104452 
L 292.692638 54.570362 
L 290.153991 55.176449 
L 287.669461 55.912921 
L 285.230631 56.775199 
L 282.855163 57.752895 
L 280.529556 58.844207 
L 278.27439 60.037346 
L 276.08266 61.328764 
L 271.911057 64.175108 
L 268.046479 67.331698 
L 264.556005 70.662902 
L 261.366027 74.100866 
L 258.414377 77.58091 
L 252.987055 84.457057 
L 247.696588 91.421344 
L 243.815276 96.797522 
L 240.069043 102.336109 
L 236.534341 107.940302 
L 232.081893 115.417158 
L 219.248504 137.277804 
L 214.805941 144.22679 
L 211.339317 149.282694 
L 207.724791 154.189333 
L 203.942426 158.935306 
L 199.964639 163.557684 
L 195.813735 168.047065 
L 191.500984 172.406628 
L 187.039945 176.647726 
L 180.878211 182.150488 
L 174.538581 187.470855 
L 169.7108 191.280463 
L 164.806608 194.898986 
L 159.716817 198.37982 
L 150.617553 204.462105 
L 146.879257 207.167845 
L 143.168786 210.114823 
L 139.567466 213.320283 
L 136.12469 216.805532 
L 132.904123 220.58419 
L 129.960145 224.676038 
L 128.610107 226.846868 
L 127.367236 229.07526 
L 126.224175 231.370441 
L 125.187938 233.727436 
L 124.267985 236.130029 
L 123.460324 238.589393 
L 122.778128 241.080926 
L 122.219271 243.614102 
L 121.788876 246.191166 
L 121.498101 248.78295 
L 121.347151 251.402093 
L 121.341745 254.013728 
L 121.47764 256.606289 
L 121.747652 259.170175 
L 122.148971 261.725717 
L 122.672887 264.22803 
L 123.318788 266.716604 
L 124.080256 269.158734 
L 124.953988 271.562013 
L 125.92813 273.902132 
L 127.013908 276.21991 
L 129.467953 280.658644 
L 132.296784 284.870257 
L 135.471409 288.807795 
L 137.177474 290.660139 
L 138.972823 292.445175 
L 142.460347 295.488 
L 142.460347 295.488 
" style="fill:none;stroke:#ffffff;stroke-linecap:square;"/>
   </g>
   <g id="patch_3">
    <path d="M 57.6 307.584 
L 57.6 41.472 
" style="fill:none;stroke:#000000;stroke-linecap:square;stroke-linejoin:miter;stroke-width:0.8;"/>
   </g>
   <g id="patch_4">
    <path d="M 414.72 307.584 
L 414.72 41.472 
" style="fill:none;stroke:#000000;stroke-linecap:square;stroke-linejoin:miter;stroke-width:0.8;"/>
   </g>
   <g id="patch_5">
    <path d="M 57.6 307.584 
L 414.72 307.584 
" style="fill:none;stroke:#000000;stroke-linecap:square;stroke-linejoin:miter;stroke-width:0.8;"/>
   </g>
   <g id="patch_6">
    <path d="M 57.6 41.472 
L 414.72 41.472 
" style="fill:none;stroke:#000000;stroke-linecap:square;stroke-linejoin:miter;stroke-width:0.8;"/>
   </g>
  </g>
 </g>
 <defs>
  <clipPath id="p1641267728">
   <rect height="266.112" width="357.12" x="57.6" y="41.472"/>
  </clipPath>
 </defs>
</svg>
