<?xml version="1.0" encoding="utf-8" standalone="no"?>
<!DOCTYPE svg PUBLIC "-//W3C//DTD SVG 1.1//EN"
  "http://www.w3.org/Graphics/SVG/1.1/DTD/svg11.dtd">
<!-- Created with matplotlib (https://matplotlib.org/) -->
<svg height="345.6pt" version="1.1" viewBox="0 0 460.8 345.6" width="460.8pt" xmlns="http://www.w3.org/2000/svg" xmlns:xlink="http://www.w3.org/1999/xlink">
 <metadata>
  <rdf:RDF xmlns:cc="http://creativecommons.org/ns#" xmlns:dc="http://purl.org/dc/elements/1.1/" xmlns:rdf="http://www.w3.org/1999/02/22-rdf-syntax-ns#">
   <cc:Work>
    <dc:type rdf:resource="http://purl.org/dc/dcmitype/StillImage"/>
    <dc:date>2021-01-25T14:31:45.885826</dc:date>
    <dc:format>image/svg+xml</dc:format>
    <dc:creator>
     <cc:Agent>
      <dc:title>Matplotlib v3.3.3, https://matplotlib.org/</dc:title>
     </cc:Agent>
    </dc:creator>
   </cc:Work>
  </rdf:RDF>
 </metadata>
 <defs>
  <style type="text/css">*{stroke-linecap:butt;stroke-linejoin:round;}</style>
 </defs>
 <g id="figure_1">
  <g id="patch_1">
   <path d="M 0 345.6 
L 460.8 345.6 
L 460.8 0 
L 0 0 
z
" style="fill:#ffffff;"/>
  </g>
  <g id="axes_1">
   <g id="patch_2">
    <path d="M 57.6 307.584 
L 414.72 307.584 
L 414.72 41.472 
L 57.6 41.472 
z
" style="fill:#7d9051;"/>
   </g>
   <g id="matplotlib.axis_1">
    <g id="xtick_1">
     <g id="line2d_1">
      <defs>
       <path d="M 0 0 
L 0 3.5 
" id="m96abcc61b5" style="stroke:#000000;stroke-width:0.8;"/>
      </defs>
      <g>
       <use style="stroke:#000000;stroke-width:0.8;" x="86.627886" xlink:href="#m96abcc61b5" y="307.584"/>
      </g>
     </g>
     <g id="text_1">
      <!-- 10 -->
      <g transform="translate(80.265386 322.182437)scale(0.1 -0.1)">
       <defs>
        <path d="M 12.40625 8.296875 
L 28.515625 8.296875 
L 28.515625 63.921875 
L 10.984375 60.40625 
L 10.984375 69.390625 
L 28.421875 72.90625 
L 38.28125 72.90625 
L 38.28125 8.296875 
L 54.390625 8.296875 
L 54.390625 0 
L 12.40625 0 
z
" id="DejaVuSans-49"/>
        <path d="M 31.78125 66.40625 
Q 24.171875 66.40625 20.328125 58.90625 
Q 16.5 51.421875 16.5 36.375 
Q 16.5 21.390625 20.328125 13.890625 
Q 24.171875 6.390625 31.78125 6.390625 
Q 39.453125 6.390625 43.28125 13.890625 
Q 47.125 21.390625 47.125 36.375 
Q 47.125 51.421875 43.28125 58.90625 
Q 39.453125 66.40625 31.78125 66.40625 
z
M 31.78125 74.21875 
Q 44.046875 74.21875 50.515625 64.515625 
Q 56.984375 54.828125 56.984375 36.375 
Q 56.984375 17.96875 50.515625 8.265625 
Q 44.046875 -1.421875 31.78125 -1.421875 
Q 19.53125 -1.421875 13.0625 8.265625 
Q 6.59375 17.96875 6.59375 36.375 
Q 6.59375 54.828125 13.0625 64.515625 
Q 19.53125 74.21875 31.78125 74.21875 
z
" id="DejaVuSans-48"/>
       </defs>
       <use xlink:href="#DejaVuSans-49"/>
       <use x="63.623047" xlink:href="#DejaVuSans-48"/>
      </g>
     </g>
    </g>
    <g id="xtick_2">
     <g id="line2d_2">
      <g>
       <use style="stroke:#000000;stroke-width:0.8;" x="127.062052" xlink:href="#m96abcc61b5" y="307.584"/>
      </g>
     </g>
     <g id="text_2">
      <!-- 20 -->
      <g transform="translate(120.699552 322.182437)scale(0.1 -0.1)">
       <defs>
        <path d="M 19.1875 8.296875 
L 53.609375 8.296875 
L 53.609375 0 
L 7.328125 0 
L 7.328125 8.296875 
Q 12.9375 14.109375 22.625 23.890625 
Q 32.328125 33.6875 34.8125 36.53125 
Q 39.546875 41.84375 41.421875 45.53125 
Q 43.3125 49.21875 43.3125 52.78125 
Q 43.3125 58.59375 39.234375 62.25 
Q 35.15625 65.921875 28.609375 65.921875 
Q 23.96875 65.921875 18.8125 64.3125 
Q 13.671875 62.703125 7.8125 59.421875 
L 7.8125 69.390625 
Q 13.765625 71.78125 18.9375 73 
Q 24.125 74.21875 28.421875 74.21875 
Q 39.75 74.21875 46.484375 68.546875 
Q 53.21875 62.890625 53.21875 53.421875 
Q 53.21875 48.921875 51.53125 44.890625 
Q 49.859375 40.875 45.40625 35.40625 
Q 44.1875 33.984375 37.640625 27.21875 
Q 31.109375 20.453125 19.1875 8.296875 
z
" id="DejaVuSans-50"/>
       </defs>
       <use xlink:href="#DejaVuSans-50"/>
       <use x="63.623047" xlink:href="#DejaVuSans-48"/>
      </g>
     </g>
    </g>
    <g id="xtick_3">
     <g id="line2d_3">
      <g>
       <use style="stroke:#000000;stroke-width:0.8;" x="167.496218" xlink:href="#m96abcc61b5" y="307.584"/>
      </g>
     </g>
     <g id="text_3">
      <!-- 30 -->
      <g transform="translate(161.133718 322.182437)scale(0.1 -0.1)">
       <defs>
        <path d="M 40.578125 39.3125 
Q 47.65625 37.796875 51.625 33 
Q 55.609375 28.21875 55.609375 21.1875 
Q 55.609375 10.40625 48.1875 4.484375 
Q 40.765625 -1.421875 27.09375 -1.421875 
Q 22.515625 -1.421875 17.65625 -0.515625 
Q 12.796875 0.390625 7.625 2.203125 
L 7.625 11.71875 
Q 11.71875 9.328125 16.59375 8.109375 
Q 21.484375 6.890625 26.8125 6.890625 
Q 36.078125 6.890625 40.9375 10.546875 
Q 45.796875 14.203125 45.796875 21.1875 
Q 45.796875 27.640625 41.28125 31.265625 
Q 36.765625 34.90625 28.71875 34.90625 
L 20.21875 34.90625 
L 20.21875 43.015625 
L 29.109375 43.015625 
Q 36.375 43.015625 40.234375 45.921875 
Q 44.09375 48.828125 44.09375 54.296875 
Q 44.09375 59.90625 40.109375 62.90625 
Q 36.140625 65.921875 28.71875 65.921875 
Q 24.65625 65.921875 20.015625 65.03125 
Q 15.375 64.15625 9.8125 62.3125 
L 9.8125 71.09375 
Q 15.4375 72.65625 20.34375 73.4375 
Q 25.25 74.21875 29.59375 74.21875 
Q 40.828125 74.21875 47.359375 69.109375 
Q 53.90625 64.015625 53.90625 55.328125 
Q 53.90625 49.265625 50.4375 45.09375 
Q 46.96875 40.921875 40.578125 39.3125 
z
" id="DejaVuSans-51"/>
       </defs>
       <use xlink:href="#DejaVuSans-51"/>
       <use x="63.623047" xlink:href="#DejaVuSans-48"/>
      </g>
     </g>
    </g>
    <g id="xtick_4">
     <g id="line2d_4">
      <g>
       <use style="stroke:#000000;stroke-width:0.8;" x="207.930384" xlink:href="#m96abcc61b5" y="307.584"/>
      </g>
     </g>
     <g id="text_4">
      <!-- 40 -->
      <g transform="translate(201.567884 322.182437)scale(0.1 -0.1)">
       <defs>
        <path d="M 37.796875 64.3125 
L 12.890625 25.390625 
L 37.796875 25.390625 
z
M 35.203125 72.90625 
L 47.609375 72.90625 
L 47.609375 25.390625 
L 58.015625 25.390625 
L 58.015625 17.1875 
L 47.609375 17.1875 
L 47.609375 0 
L 37.796875 0 
L 37.796875 17.1875 
L 4.890625 17.1875 
L 4.890625 26.703125 
z
" id="DejaVuSans-52"/>
       </defs>
       <use xlink:href="#DejaVuSans-52"/>
       <use x="63.623047" xlink:href="#DejaVuSans-48"/>
      </g>
     </g>
    </g>
    <g id="xtick_5">
     <g id="line2d_5">
      <g>
       <use style="stroke:#000000;stroke-width:0.8;" x="248.36455" xlink:href="#m96abcc61b5" y="307.584"/>
      </g>
     </g>
     <g id="text_5">
      <!-- 50 -->
      <g transform="translate(242.00205 322.182437)scale(0.1 -0.1)">
       <defs>
        <path d="M 10.796875 72.90625 
L 49.515625 72.90625 
L 49.515625 64.59375 
L 19.828125 64.59375 
L 19.828125 46.734375 
Q 21.96875 47.46875 24.109375 47.828125 
Q 26.265625 48.1875 28.421875 48.1875 
Q 40.625 48.1875 47.75 41.5 
Q 54.890625 34.8125 54.890625 23.390625 
Q 54.890625 11.625 47.5625 5.09375 
Q 40.234375 -1.421875 26.90625 -1.421875 
Q 22.3125 -1.421875 17.546875 -0.640625 
Q 12.796875 0.140625 7.71875 1.703125 
L 7.71875 11.625 
Q 12.109375 9.234375 16.796875 8.0625 
Q 21.484375 6.890625 26.703125 6.890625 
Q 35.15625 6.890625 40.078125 11.328125 
Q 45.015625 15.765625 45.015625 23.390625 
Q 45.015625 31 40.078125 35.4375 
Q 35.15625 39.890625 26.703125 39.890625 
Q 22.75 39.890625 18.8125 39.015625 
Q 14.890625 38.140625 10.796875 36.28125 
z
" id="DejaVuSans-53"/>
       </defs>
       <use xlink:href="#DejaVuSans-53"/>
       <use x="63.623047" xlink:href="#DejaVuSans-48"/>
      </g>
     </g>
    </g>
    <g id="xtick_6">
     <g id="line2d_6">
      <g>
       <use style="stroke:#000000;stroke-width:0.8;" x="288.798716" xlink:href="#m96abcc61b5" y="307.584"/>
      </g>
     </g>
     <g id="text_6">
      <!-- 60 -->
      <g transform="translate(282.436216 322.182437)scale(0.1 -0.1)">
       <defs>
        <path d="M 33.015625 40.375 
Q 26.375 40.375 22.484375 35.828125 
Q 18.609375 31.296875 18.609375 23.390625 
Q 18.609375 15.53125 22.484375 10.953125 
Q 26.375 6.390625 33.015625 6.390625 
Q 39.65625 6.390625 43.53125 10.953125 
Q 47.40625 15.53125 47.40625 23.390625 
Q 47.40625 31.296875 43.53125 35.828125 
Q 39.65625 40.375 33.015625 40.375 
z
M 52.59375 71.296875 
L 52.59375 62.3125 
Q 48.875 64.0625 45.09375 64.984375 
Q 41.3125 65.921875 37.59375 65.921875 
Q 27.828125 65.921875 22.671875 59.328125 
Q 17.53125 52.734375 16.796875 39.40625 
Q 19.671875 43.65625 24.015625 45.921875 
Q 28.375 48.1875 33.59375 48.1875 
Q 44.578125 48.1875 50.953125 41.515625 
Q 57.328125 34.859375 57.328125 23.390625 
Q 57.328125 12.15625 50.6875 5.359375 
Q 44.046875 -1.421875 33.015625 -1.421875 
Q 20.359375 -1.421875 13.671875 8.265625 
Q 6.984375 17.96875 6.984375 36.375 
Q 6.984375 53.65625 15.1875 63.9375 
Q 23.390625 74.21875 37.203125 74.21875 
Q 40.921875 74.21875 44.703125 73.484375 
Q 48.484375 72.75 52.59375 71.296875 
z
" id="DejaVuSans-54"/>
       </defs>
       <use xlink:href="#DejaVuSans-54"/>
       <use x="63.623047" xlink:href="#DejaVuSans-48"/>
      </g>
     </g>
    </g>
    <g id="xtick_7">
     <g id="line2d_7">
      <g>
       <use style="stroke:#000000;stroke-width:0.8;" x="329.232882" xlink:href="#m96abcc61b5" y="307.584"/>
      </g>
     </g>
     <g id="text_7">
      <!-- 70 -->
      <g transform="translate(322.870382 322.182437)scale(0.1 -0.1)">
       <defs>
        <path d="M 8.203125 72.90625 
L 55.078125 72.90625 
L 55.078125 68.703125 
L 28.609375 0 
L 18.3125 0 
L 43.21875 64.59375 
L 8.203125 64.59375 
z
" id="DejaVuSans-55"/>
       </defs>
       <use xlink:href="#DejaVuSans-55"/>
       <use x="63.623047" xlink:href="#DejaVuSans-48"/>
      </g>
     </g>
    </g>
    <g id="xtick_8">
     <g id="line2d_8">
      <g>
       <use style="stroke:#000000;stroke-width:0.8;" x="369.667048" xlink:href="#m96abcc61b5" y="307.584"/>
      </g>
     </g>
     <g id="text_8">
      <!-- 80 -->
      <g transform="translate(363.304548 322.182437)scale(0.1 -0.1)">
       <defs>
        <path d="M 31.78125 34.625 
Q 24.75 34.625 20.71875 30.859375 
Q 16.703125 27.09375 16.703125 20.515625 
Q 16.703125 13.921875 20.71875 10.15625 
Q 24.75 6.390625 31.78125 6.390625 
Q 38.8125 6.390625 42.859375 10.171875 
Q 46.921875 13.96875 46.921875 20.515625 
Q 46.921875 27.09375 42.890625 30.859375 
Q 38.875 34.625 31.78125 34.625 
z
M 21.921875 38.8125 
Q 15.578125 40.375 12.03125 44.71875 
Q 8.5 49.078125 8.5 55.328125 
Q 8.5 64.0625 14.71875 69.140625 
Q 20.953125 74.21875 31.78125 74.21875 
Q 42.671875 74.21875 48.875 69.140625 
Q 55.078125 64.0625 55.078125 55.328125 
Q 55.078125 49.078125 51.53125 44.71875 
Q 48 40.375 41.703125 38.8125 
Q 48.828125 37.15625 52.796875 32.3125 
Q 56.78125 27.484375 56.78125 20.515625 
Q 56.78125 9.90625 50.3125 4.234375 
Q 43.84375 -1.421875 31.78125 -1.421875 
Q 19.734375 -1.421875 13.25 4.234375 
Q 6.78125 9.90625 6.78125 20.515625 
Q 6.78125 27.484375 10.78125 32.3125 
Q 14.796875 37.15625 21.921875 38.8125 
z
M 18.3125 54.390625 
Q 18.3125 48.734375 21.84375 45.5625 
Q 25.390625 42.390625 31.78125 42.390625 
Q 38.140625 42.390625 41.71875 45.5625 
Q 45.3125 48.734375 45.3125 54.390625 
Q 45.3125 60.0625 41.71875 63.234375 
Q 38.140625 66.40625 31.78125 66.40625 
Q 25.390625 66.40625 21.84375 63.234375 
Q 18.3125 60.0625 18.3125 54.390625 
z
" id="DejaVuSans-56"/>
       </defs>
       <use xlink:href="#DejaVuSans-56"/>
       <use x="63.623047" xlink:href="#DejaVuSans-48"/>
      </g>
     </g>
    </g>
    <g id="xtick_9">
     <g id="line2d_9">
      <g>
       <use style="stroke:#000000;stroke-width:0.8;" x="410.101214" xlink:href="#m96abcc61b5" y="307.584"/>
      </g>
     </g>
     <g id="text_9">
      <!-- 90 -->
      <g transform="translate(403.738714 322.182437)scale(0.1 -0.1)">
       <defs>
        <path d="M 10.984375 1.515625 
L 10.984375 10.5 
Q 14.703125 8.734375 18.5 7.8125 
Q 22.3125 6.890625 25.984375 6.890625 
Q 35.75 6.890625 40.890625 13.453125 
Q 46.046875 20.015625 46.78125 33.40625 
Q 43.953125 29.203125 39.59375 26.953125 
Q 35.25 24.703125 29.984375 24.703125 
Q 19.046875 24.703125 12.671875 31.3125 
Q 6.296875 37.9375 6.296875 49.421875 
Q 6.296875 60.640625 12.9375 67.421875 
Q 19.578125 74.21875 30.609375 74.21875 
Q 43.265625 74.21875 49.921875 64.515625 
Q 56.59375 54.828125 56.59375 36.375 
Q 56.59375 19.140625 48.40625 8.859375 
Q 40.234375 -1.421875 26.421875 -1.421875 
Q 22.703125 -1.421875 18.890625 -0.6875 
Q 15.09375 0.046875 10.984375 1.515625 
z
M 30.609375 32.421875 
Q 37.25 32.421875 41.125 36.953125 
Q 45.015625 41.5 45.015625 49.421875 
Q 45.015625 57.28125 41.125 61.84375 
Q 37.25 66.40625 30.609375 66.40625 
Q 23.96875 66.40625 20.09375 61.84375 
Q 16.21875 57.28125 16.21875 49.421875 
Q 16.21875 41.5 20.09375 36.953125 
Q 23.96875 32.421875 30.609375 32.421875 
z
" id="DejaVuSans-57"/>
       </defs>
       <use xlink:href="#DejaVuSans-57"/>
       <use x="63.623047" xlink:href="#DejaVuSans-48"/>
      </g>
     </g>
    </g>
   </g>
   <g id="matplotlib.axis_2">
    <g id="ytick_1">
     <g id="line2d_10">
      <defs>
       <path d="M 0 0 
L -3.5 0 
" id="m40c72b79a3" style="stroke:#000000;stroke-width:0.8;"/>
      </defs>
      <g>
       <use style="stroke:#000000;stroke-width:0.8;" x="57.6" xlink:href="#m40c72b79a3" y="279.308933"/>
      </g>
     </g>
     <g id="text_10">
      <!-- 10 -->
      <g transform="translate(37.875 283.108151)scale(0.1 -0.1)">
       <use xlink:href="#DejaVuSans-49"/>
       <use x="63.623047" xlink:href="#DejaVuSans-48"/>
      </g>
     </g>
    </g>
    <g id="ytick_2">
     <g id="line2d_11">
      <g>
       <use style="stroke:#000000;stroke-width:0.8;" x="57.6" xlink:href="#m40c72b79a3" y="238.874767"/>
      </g>
     </g>
     <g id="text_11">
      <!-- 20 -->
      <g transform="translate(37.875 242.673986)scale(0.1 -0.1)">
       <use xlink:href="#DejaVuSans-50"/>
       <use x="63.623047" xlink:href="#DejaVuSans-48"/>
      </g>
     </g>
    </g>
    <g id="ytick_3">
     <g id="line2d_12">
      <g>
       <use style="stroke:#000000;stroke-width:0.8;" x="57.6" xlink:href="#m40c72b79a3" y="198.440601"/>
      </g>
     </g>
     <g id="text_12">
      <!-- 30 -->
      <g transform="translate(37.875 202.23982)scale(0.1 -0.1)">
       <use xlink:href="#DejaVuSans-51"/>
       <use x="63.623047" xlink:href="#DejaVuSans-48"/>
      </g>
     </g>
    </g>
    <g id="ytick_4">
     <g id="line2d_13">
      <g>
       <use style="stroke:#000000;stroke-width:0.8;" x="57.6" xlink:href="#m40c72b79a3" y="158.006435"/>
      </g>
     </g>
     <g id="text_13">
      <!-- 40 -->
      <g transform="translate(37.875 161.805654)scale(0.1 -0.1)">
       <use xlink:href="#DejaVuSans-52"/>
       <use x="63.623047" xlink:href="#DejaVuSans-48"/>
      </g>
     </g>
    </g>
    <g id="ytick_5">
     <g id="line2d_14">
      <g>
       <use style="stroke:#000000;stroke-width:0.8;" x="57.6" xlink:href="#m40c72b79a3" y="117.572269"/>
      </g>
     </g>
     <g id="text_14">
      <!-- 50 -->
      <g transform="translate(37.875 121.371488)scale(0.1 -0.1)">
       <use xlink:href="#DejaVuSans-53"/>
       <use x="63.623047" xlink:href="#DejaVuSans-48"/>
      </g>
     </g>
    </g>
    <g id="ytick_6">
     <g id="line2d_15">
      <g>
       <use style="stroke:#000000;stroke-width:0.8;" x="57.6" xlink:href="#m40c72b79a3" y="77.138103"/>
      </g>
     </g>
     <g id="text_15">
      <!-- 60 -->
      <g transform="translate(37.875 80.937322)scale(0.1 -0.1)">
       <use xlink:href="#DejaVuSans-54"/>
       <use x="63.623047" xlink:href="#DejaVuSans-48"/>
      </g>
     </g>
    </g>
   </g>
   <g id="line2d_16">
    <path clip-path="url(#pfef4d6b0e3)" d="M 246.015325 221.524466 
L 244.895299 217.50531 
L 244.038094 213.449763 
L 243.439669 209.373999 
L 243.091935 205.286105 
L 242.994893 201.194168 
L 243.140456 197.110317 
L 243.52458 193.050726 
L 244.13918 189.01944 
L 244.984254 185.028588 
L 246.047672 181.0903 
L 247.329435 177.216707 
L 248.821456 173.415896 
L 250.519691 169.699996 
L 252.420097 166.081138 
L 254.514587 162.567409 
L 256.80316 159.170939 
L 259.273688 155.899815 
L 261.926169 152.77021 
L 264.752518 149.790212 
L 267.748689 146.971951 
L 270.906598 144.323513 
L 274.214112 141.861072 
L 277.663147 139.588672 
L 281.233484 137.52653 
L 284.917036 135.686775 
L 288.697631 134.073452 
L 292.559093 132.702734 
L 296.497381 131.586751 
L 300.488233 130.741677 
L 304.527607 130.171555 
L 308.595284 129.888516 
L 312.675091 129.888516 
L 316.758942 130.155381 
L 320.826619 130.685069 
L 324.861949 131.465448 
L 328.852801 132.484389 
L 332.778958 133.729762 
L 336.632334 135.197522 
L 340.388668 136.87554 
L 344.039874 138.751685 
L 347.565733 140.817871 
L 350.97029 143.066011 
L 354.241414 145.483974 
L 357.383148 148.07176 
L 360.39145 150.813197 
L 363.266319 153.70424 
L 366.003712 156.736802 
L 368.599586 159.898754 
L 371.049896 163.190095 
L 373.358687 166.598695 
L 375.517872 170.112424 
L 377.511276 173.727239 
L 379.334857 177.431008 
L 380.968397 181.211603 
L 382.399767 185.064979 
L 383.612792 188.970919 
L 384.595342 192.929424 
L 385.335287 196.928363 
L 385.816454 200.951563 
L 386.026711 204.994979 
L 385.95393 209.046483 
L 385.61024 213.093943 
L 384.99564 217.121185 
L 384.134392 221.116081 
L 383.022453 225.066499 
L 381.684082 228.956266 
L 380.123323 232.773251 
L 378.348263 236.509368 
L 376.375076 240.1444 
L 374.211848 243.662172 
L 371.866667 247.058642 
L 369.351661 250.321679 
L 366.67492 253.443197 
L 363.840485 256.411065 
L 360.860487 259.221239 
L 357.743012 261.86159 
L 354.496149 264.332118 
L 351.127983 266.612605 
L 347.642558 268.707094 
L 344.052004 270.599413 
L 340.364408 272.285518 
L 336.5919 273.769452 
L 332.742568 275.063345 
L 328.82854 276.167198 
L 324.857905 277.09314 
L 320.842793 277.849259 
L 316.799376 278.443642 
L 312.727655 278.876287 
L 308.647848 279.16337 
L 304.568041 279.308933 
L 300.49632 279.321063 
L 296.432687 279.203804 
L 292.385227 278.965242 
L 284.322654 278.156559 
L 276.312646 276.943534 
L 268.367332 275.382775 
L 260.490756 273.526847 
L 252.682919 271.428314 
L 244.927646 269.12761 
L 233.375605 265.403623 
L 214.250244 258.841158 
L 198.925695 253.681758 
L 191.206813 251.263795 
L 183.423236 249.003525 
L 167.811605 244.620462 
L 160.112939 242.145891 
L 156.316171 240.763042 
L 152.567924 239.254848 
L 148.876285 237.597047 
L 145.245297 235.769423 
L 141.691133 233.784105 
L 138.217839 231.637051 
L 134.837542 229.336347 
L 131.558331 226.89008 
L 128.392336 224.306337 
L 125.347644 221.585117 
L 122.43234 218.734509 
L 119.658556 215.762597 
L 117.034379 212.669384 
L 114.567895 209.471041 
L 112.251017 206.171613 
L 110.067572 202.775143 
L 108.00543 199.301849 
L 106.056503 195.751729 
L 102.445732 188.473579 
L 99.134174 181.009432 
L 96.02883 173.444199 
L 93.145874 165.802142 
L 90.610652 158.075173 
L 89.514886 154.177319 
L 88.552553 150.251162 
L 87.739826 146.300744 
L 87.092879 142.317978 
L 86.627886 138.306909 
L 86.361021 134.267536 
L 86.288239 130.207946 
L 86.413585 126.136225 
L 86.733015 122.068548 
L 87.246529 118.013001 
L 87.954127 113.981715 
L 88.855809 109.986819 
L 89.947531 106.040445 
L 91.229294 102.150678 
L 92.701098 98.333693 
L 94.358899 94.597576 
L 96.20674 90.950414 
L 98.240579 87.412425 
L 100.460414 83.987651 
L 102.866247 80.688223 
L 105.454034 77.526271 
L 108.223774 74.513926 
L 111.175468 71.663317 
L 114.305073 68.986575 
L 117.620674 66.491787 
L 117.620674 66.491787 
" style="fill:none;stroke:#fea952;stroke-linecap:square;"/>
   </g>
   <g id="line2d_17">
    <path clip-path="url(#pfef4d6b0e3)" d="M 230.435306 225.866182 
L 229.071244 220.849976 
L 228.035992 215.799278 
L 227.324202 210.74485 
L 226.922815 205.669562 
L 226.831491 200.618046 
L 227.03871 195.586745 
L 227.535664 190.613098 
L 228.316365 185.668915 
L 229.369807 180.812367 
L 230.692802 176.009409 
L 232.274214 171.306732 
L 234.111228 166.693049 
L 236.200384 162.18036 
L 238.527369 157.799857 
L 241.101665 153.529654 
L 243.896845 149.4234 
L 246.935402 145.44256 
L 250.191131 141.640235 
L 253.671129 138.009282 
L 257.355593 134.579573 
L 261.248134 131.350404 
L 265.315786 128.355249 
L 269.573938 125.583238 
L 274.006754 123.057188 
L 278.568966 120.810973 
L 283.287168 118.831589 
L 288.149617 117.141757 
L 293.146856 115.763936 
L 298.227867 114.726739 
L 303.404917 114.036901 
L 308.595284 113.714849 
L 313.729735 113.749271 
L 318.847423 114.117123 
L 323.897496 114.805611 
L 328.863043 115.794497 
L 333.742951 117.067713 
L 338.536048 118.615418 
L 343.229093 120.43032 
L 347.780623 122.489905 
L 352.217158 124.797492 
L 356.477997 127.321241 
L 360.584224 130.059868 
L 364.524257 132.999959 
L 368.277121 136.117312 
L 371.859994 139.408812 
L 375.272179 142.866951 
L 378.504329 146.474148 
L 381.572863 150.240516 
L 384.440853 154.119827 
L 387.138566 158.130967 
L 389.68079 162.302224 
L 392.021526 166.583 
L 394.181846 171.015839 
L 396.129853 175.57975 
L 397.845719 180.268099 
L 399.310133 185.074643 
L 400.499043 189.986676 
L 401.394508 195.007712 
L 401.968298 200.111667 
L 402.197769 205.285477 
L 402.069599 210.414946 
L 401.598791 215.533962 
L 400.806063 220.529708 
L 399.703079 225.49826 
L 398.316145 230.328674 
L 396.65458 235.077677 
L 394.732019 239.713963 
L 392.562735 244.225344 
L 390.152231 248.616558 
L 387.521108 252.851899 
L 384.676855 256.93217 
L 381.629379 260.849981 
L 378.371336 264.613753 
L 374.936794 268.177942 
L 371.31348 271.563135 
L 367.536741 274.73289 
L 363.56392 277.724765 
L 359.458724 280.47573 
L 355.183353 283.01527 
L 350.777507 285.308427 
L 346.284835 287.336632 
L 341.745095 289.100207 
L 337.132692 290.629793 
L 332.501648 291.918254 
L 327.851089 292.987427 
L 323.195042 293.850959 
L 318.508308 294.52677 
L 313.862936 295.01006 
L 309.22454 295.326751 
L 304.616224 295.482527 
L 300.029812 295.488 
L 295.481045 295.349449 
L 290.98202 295.077923 
L 286.520777 294.683828 
L 282.07831 294.17375 
L 273.355444 292.844554 
L 264.795481 291.157101 
L 256.396972 289.173841 
L 248.173536 286.960633 
L 240.095164 284.56246 
L 228.202886 280.727802 
L 208.995224 274.137309 
L 194.010437 269.090448 
L 186.608218 266.769936 
L 179.114433 264.592679 
L 163.02791 260.070502 
L 154.577905 257.342959 
L 150.278737 255.767604 
L 145.942248 254.009098 
L 141.604616 252.043857 
L 137.357957 249.889528 
L 133.186873 247.541468 
L 129.117538 245.007616 
L 125.166623 242.300174 
L 121.332249 239.420632 
L 117.614374 236.365483 
L 114.040166 233.149219 
L 110.608496 229.770096 
L 107.325265 226.225743 
L 104.226791 222.546285 
L 101.331643 218.765615 
L 98.646077 214.917646 
L 96.160346 211.032053 
L 93.827674 207.085081 
L 91.655345 203.113395 
L 87.723415 195.16991 
L 84.211743 187.247104 
L 80.947698 179.287738 
L 77.844488 171.041902 
L 76.396304 166.796247 
L 75.04053 162.452251 
L 73.80621 158.027644 
L 72.71067 153.510341 
L 71.775404 148.893949 
L 71.02681 144.180476 
L 70.489402 139.373115 
L 70.189953 134.557456 
L 70.122231 129.710283 
L 70.289559 124.870024 
L 70.687464 120.036858 
L 71.316401 115.216841 
L 72.177338 110.42076 
L 73.267624 105.674514 
L 74.58637 100.978607 
L 76.138623 96.331818 
L 77.917459 91.773853 
L 79.931324 87.287818 
L 82.184821 82.889814 
L 84.668534 78.615432 
L 87.39197 74.458577 
L 90.349947 70.444703 
L 93.548147 66.579247 
L 96.988212 62.87994 
L 100.66287 59.372151 
L 104.580711 56.062788 
L 107.896313 53.568 
L 107.896313 53.568 
" style="fill:none;stroke:#ffffff;stroke-linecap:square;"/>
   </g>
   <g id="line2d_18">
    <path clip-path="url(#pfef4d6b0e3)" d="M 261.595344 217.182751 
L 260.719353 214.160645 
L 260.040196 211.100248 
L 259.555135 208.003149 
L 259.261055 204.902648 
L 259.158295 201.770289 
L 259.242201 198.633888 
L 259.513497 195.488355 
L 259.961994 192.369965 
L 260.598701 189.244809 
L 261.402542 186.171191 
L 262.384656 183.126682 
L 263.531685 180.138742 
L 264.838998 177.219632 
L 266.312824 174.362418 
L 267.927509 171.605163 
L 269.709476 168.918477 
L 271.611974 166.35707 
L 273.661208 163.900186 
L 275.833906 161.571143 
L 278.141785 159.364329 
L 280.565061 157.296622 
L 283.112439 155.366896 
L 285.752356 153.594106 
L 288.460213 151.995872 
L 291.265106 150.562578 
L 294.108093 149.315315 
L 296.968569 148.263711 
L 299.847906 147.409566 
L 302.7486 146.756614 
L 305.650296 146.306209 
L 308.595284 146.062182 
L 311.620447 146.02776 
L 314.670461 146.19364 
L 317.755742 146.564527 
L 320.860855 147.1364 
L 323.96265 147.901066 
L 327.021868 148.844106 
L 330.035576 149.964724 
L 332.996714 151.261175 
L 335.862589 152.705878 
L 338.653469 154.314501 
L 341.356355 156.072153 
L 343.95857 157.967988 
L 346.489175 160.026209 
L 348.922906 162.217581 
L 351.26046 164.541528 
L 353.503096 166.999456 
L 355.626309 169.556992 
L 357.65894 172.260363 
L 359.578808 175.066423 
L 361.354953 177.922624 
L 363.001027 180.871477 
L 364.487868 183.846178 
L 365.806942 186.843455 
L 366.953815 189.861858 
L 367.915451 192.867195 
L 368.69164 195.872172 
L 369.276066 198.849014 
L 369.66461 201.791458 
L 369.855654 204.704481 
L 369.838261 207.678019 
L 369.621688 210.653923 
L 369.185218 213.712663 
L 368.565706 216.733902 
L 367.728761 219.804325 
L 366.713584 222.834855 
L 365.514627 225.832539 
L 364.133792 228.793392 
L 362.597921 231.672241 
L 360.902588 234.472445 
L 359.056478 237.185114 
L 357.073944 239.793377 
L 354.978503 242.272641 
L 352.744175 244.644187 
L 350.407493 246.879343 
L 347.949284 248.99029 
L 345.428378 250.93947 
L 342.797242 252.749479 
L 340.101762 254.398919 
L 337.326501 255.890399 
L 334.44398 257.234404 
L 331.438705 258.438696 
L 328.352443 259.496898 
L 325.155433 260.416142 
L 321.864721 261.198854 
L 318.490543 261.847559 
L 315.090444 262.360513 
L 311.592375 262.742514 
L 308.071157 262.999988 
L 304.519857 263.135338 
L 300.962829 263.154126 
L 293.788433 262.852561 
L 286.566998 262.139368 
L 279.269847 261.042514 
L 271.939182 259.608449 
L 264.584541 257.879853 
L 257.192302 255.895994 
L 249.760128 253.692759 
L 238.548323 250.079444 
L 219.505265 243.545007 
L 203.840954 238.273069 
L 195.805408 235.757654 
L 187.732039 233.414372 
L 172.595299 229.170421 
L 165.647974 226.948823 
L 159.1936 224.500598 
L 156.147953 223.150237 
L 153.132636 221.649318 
L 150.195394 220.026742 
L 147.318139 218.266486 
L 144.508461 216.37252 
L 141.784414 214.359528 
L 139.170299 212.24719 
L 136.655121 210.021016 
L 134.256184 207.698921 
L 131.991848 205.299452 
L 129.841967 202.792483 
L 127.804147 200.176467 
L 125.855957 197.42558 
L 123.974798 194.518234 
L 122.183186 191.518616 
L 118.782559 185.123427 
L 115.599909 178.336348 
L 112.558622 171.191591 
L 109.735983 164.061794 
L 107.259136 157.109372 
L 105.223561 150.326995 
L 104.394435 146.991982 
L 103.704248 143.707538 
L 103.158949 140.455481 
L 102.766371 137.240703 
L 102.532088 133.977617 
L 102.454247 130.705608 
L 102.537611 127.402426 
L 102.778567 124.100238 
L 103.176657 120.809162 
L 103.730916 117.54267 
L 104.443994 114.299125 
L 105.308693 111.102283 
L 106.319965 107.969538 
L 107.484737 104.893533 
L 108.786474 101.907334 
L 110.228659 99.011014 
L 111.812624 96.209417 
L 113.528859 93.516725 
L 115.382548 90.931743 
L 117.359921 88.473295 
L 119.459336 86.147912 
L 121.688067 83.954482 
L 124.029435 81.910362 
L 127.345036 79.415574 
L 127.345036 79.415574 
" style="fill:none;stroke:#ffffff;stroke-linecap:square;"/>
   </g>
   <g id="patch_3">
    <path d="M 57.6 307.584 
L 57.6 41.472 
" style="fill:none;stroke:#000000;stroke-linecap:square;stroke-linejoin:miter;stroke-width:0.8;"/>
   </g>
   <g id="patch_4">
    <path d="M 414.72 307.584 
L 414.72 41.472 
" style="fill:none;stroke:#000000;stroke-linecap:square;stroke-linejoin:miter;stroke-width:0.8;"/>
   </g>
   <g id="patch_5">
    <path d="M 57.6 307.584 
L 414.72 307.584 
" style="fill:none;stroke:#000000;stroke-linecap:square;stroke-linejoin:miter;stroke-width:0.8;"/>
   </g>
   <g id="patch_6">
    <path d="M 57.6 41.472 
L 414.72 41.472 
" style="fill:none;stroke:#000000;stroke-linecap:square;stroke-linejoin:miter;stroke-width:0.8;"/>
   </g>
  </g>
 </g>
 <defs>
  <clipPath id="pfef4d6b0e3">
   <rect height="266.112" width="357.12" x="57.6" y="41.472"/>
  </clipPath>
 </defs>
</svg>
