<?xml version="1.0" encoding="utf-8" standalone="no"?>
<!DOCTYPE svg PUBLIC "-//W3C//DTD SVG 1.1//EN"
  "http://www.w3.org/Graphics/SVG/1.1/DTD/svg11.dtd">
<!-- Created with matplotlib (https://matplotlib.org/) -->
<svg height="345.6pt" version="1.1" viewBox="0 0 460.8 345.6" width="460.8pt" xmlns="http://www.w3.org/2000/svg" xmlns:xlink="http://www.w3.org/1999/xlink">
 <metadata>
  <rdf:RDF xmlns:cc="http://creativecommons.org/ns#" xmlns:dc="http://purl.org/dc/elements/1.1/" xmlns:rdf="http://www.w3.org/1999/02/22-rdf-syntax-ns#">
   <cc:Work>
    <dc:type rdf:resource="http://purl.org/dc/dcmitype/StillImage"/>
    <dc:date>2021-01-23T11:29:52.655411</dc:date>
    <dc:format>image/svg+xml</dc:format>
    <dc:creator>
     <cc:Agent>
      <dc:title>Matplotlib v3.3.3, https://matplotlib.org/</dc:title>
     </cc:Agent>
    </dc:creator>
   </cc:Work>
  </rdf:RDF>
 </metadata>
 <defs>
  <style type="text/css">*{stroke-linecap:butt;stroke-linejoin:round;}</style>
 </defs>
 <g id="figure_1">
  <g id="patch_1">
   <path d="M 0 345.6 
L 460.8 345.6 
L 460.8 0 
L 0 0 
z
" style="fill:#ffffff;"/>
  </g>
  <g id="axes_1">
   <g id="patch_2">
    <path d="M 57.6 307.584 
L 414.72 307.584 
L 414.72 41.472 
L 57.6 41.472 
z
" style="fill:#7d9051;"/>
   </g>
   <g id="matplotlib.axis_1">
    <g id="xtick_1">
     <g id="line2d_1">
      <defs>
       <path d="M 0 0 
L 0 3.5 
" id="m39e0ea08c1" style="stroke:#000000;stroke-width:0.8;"/>
      </defs>
      <g>
       <use style="stroke:#000000;stroke-width:0.8;" x="111.798844" xlink:href="#m39e0ea08c1" y="307.584"/>
      </g>
     </g>
     <g id="text_1">
      <!-- 20 -->
      <g transform="translate(105.436344 322.182437)scale(0.1 -0.1)">
       <defs>
        <path d="M 19.1875 8.296875 
L 53.609375 8.296875 
L 53.609375 0 
L 7.328125 0 
L 7.328125 8.296875 
Q 12.9375 14.109375 22.625 23.890625 
Q 32.328125 33.6875 34.8125 36.53125 
Q 39.546875 41.84375 41.421875 45.53125 
Q 43.3125 49.21875 43.3125 52.78125 
Q 43.3125 58.59375 39.234375 62.25 
Q 35.15625 65.921875 28.609375 65.921875 
Q 23.96875 65.921875 18.8125 64.3125 
Q 13.671875 62.703125 7.8125 59.421875 
L 7.8125 69.390625 
Q 13.765625 71.78125 18.9375 73 
Q 24.125 74.21875 28.421875 74.21875 
Q 39.75 74.21875 46.484375 68.546875 
Q 53.21875 62.890625 53.21875 53.421875 
Q 53.21875 48.921875 51.53125 44.890625 
Q 49.859375 40.875 45.40625 35.40625 
Q 44.1875 33.984375 37.640625 27.21875 
Q 31.109375 20.453125 19.1875 8.296875 
z
" id="DejaVuSans-50"/>
        <path d="M 31.78125 66.40625 
Q 24.171875 66.40625 20.328125 58.90625 
Q 16.5 51.421875 16.5 36.375 
Q 16.5 21.390625 20.328125 13.890625 
Q 24.171875 6.390625 31.78125 6.390625 
Q 39.453125 6.390625 43.28125 13.890625 
Q 47.125 21.390625 47.125 36.375 
Q 47.125 51.421875 43.28125 58.90625 
Q 39.453125 66.40625 31.78125 66.40625 
z
M 31.78125 74.21875 
Q 44.046875 74.21875 50.515625 64.515625 
Q 56.984375 54.828125 56.984375 36.375 
Q 56.984375 17.96875 50.515625 8.265625 
Q 44.046875 -1.421875 31.78125 -1.421875 
Q 19.53125 -1.421875 13.0625 8.265625 
Q 6.59375 17.96875 6.59375 36.375 
Q 6.59375 54.828125 13.0625 64.515625 
Q 19.53125 74.21875 31.78125 74.21875 
z
" id="DejaVuSans-48"/>
       </defs>
       <use xlink:href="#DejaVuSans-50"/>
       <use x="63.623047" xlink:href="#DejaVuSans-48"/>
      </g>
     </g>
    </g>
    <g id="xtick_2">
     <g id="line2d_2">
      <g>
       <use style="stroke:#000000;stroke-width:0.8;" x="166.036879" xlink:href="#m39e0ea08c1" y="307.584"/>
      </g>
     </g>
     <g id="text_2">
      <!-- 40 -->
      <g transform="translate(159.674379 322.182437)scale(0.1 -0.1)">
       <defs>
        <path d="M 37.796875 64.3125 
L 12.890625 25.390625 
L 37.796875 25.390625 
z
M 35.203125 72.90625 
L 47.609375 72.90625 
L 47.609375 25.390625 
L 58.015625 25.390625 
L 58.015625 17.1875 
L 47.609375 17.1875 
L 47.609375 0 
L 37.796875 0 
L 37.796875 17.1875 
L 4.890625 17.1875 
L 4.890625 26.703125 
z
" id="DejaVuSans-52"/>
       </defs>
       <use xlink:href="#DejaVuSans-52"/>
       <use x="63.623047" xlink:href="#DejaVuSans-48"/>
      </g>
     </g>
    </g>
    <g id="xtick_3">
     <g id="line2d_3">
      <g>
       <use style="stroke:#000000;stroke-width:0.8;" x="220.274914" xlink:href="#m39e0ea08c1" y="307.584"/>
      </g>
     </g>
     <g id="text_3">
      <!-- 60 -->
      <g transform="translate(213.912414 322.182437)scale(0.1 -0.1)">
       <defs>
        <path d="M 33.015625 40.375 
Q 26.375 40.375 22.484375 35.828125 
Q 18.609375 31.296875 18.609375 23.390625 
Q 18.609375 15.53125 22.484375 10.953125 
Q 26.375 6.390625 33.015625 6.390625 
Q 39.65625 6.390625 43.53125 10.953125 
Q 47.40625 15.53125 47.40625 23.390625 
Q 47.40625 31.296875 43.53125 35.828125 
Q 39.65625 40.375 33.015625 40.375 
z
M 52.59375 71.296875 
L 52.59375 62.3125 
Q 48.875 64.0625 45.09375 64.984375 
Q 41.3125 65.921875 37.59375 65.921875 
Q 27.828125 65.921875 22.671875 59.328125 
Q 17.53125 52.734375 16.796875 39.40625 
Q 19.671875 43.65625 24.015625 45.921875 
Q 28.375 48.1875 33.59375 48.1875 
Q 44.578125 48.1875 50.953125 41.515625 
Q 57.328125 34.859375 57.328125 23.390625 
Q 57.328125 12.15625 50.6875 5.359375 
Q 44.046875 -1.421875 33.015625 -1.421875 
Q 20.359375 -1.421875 13.671875 8.265625 
Q 6.984375 17.96875 6.984375 36.375 
Q 6.984375 53.65625 15.1875 63.9375 
Q 23.390625 74.21875 37.203125 74.21875 
Q 40.921875 74.21875 44.703125 73.484375 
Q 48.484375 72.75 52.59375 71.296875 
z
" id="DejaVuSans-54"/>
       </defs>
       <use xlink:href="#DejaVuSans-54"/>
       <use x="63.623047" xlink:href="#DejaVuSans-48"/>
      </g>
     </g>
    </g>
    <g id="xtick_4">
     <g id="line2d_4">
      <g>
       <use style="stroke:#000000;stroke-width:0.8;" x="274.512948" xlink:href="#m39e0ea08c1" y="307.584"/>
      </g>
     </g>
     <g id="text_4">
      <!-- 80 -->
      <g transform="translate(268.150448 322.182437)scale(0.1 -0.1)">
       <defs>
        <path d="M 31.78125 34.625 
Q 24.75 34.625 20.71875 30.859375 
Q 16.703125 27.09375 16.703125 20.515625 
Q 16.703125 13.921875 20.71875 10.15625 
Q 24.75 6.390625 31.78125 6.390625 
Q 38.8125 6.390625 42.859375 10.171875 
Q 46.921875 13.96875 46.921875 20.515625 
Q 46.921875 27.09375 42.890625 30.859375 
Q 38.875 34.625 31.78125 34.625 
z
M 21.921875 38.8125 
Q 15.578125 40.375 12.03125 44.71875 
Q 8.5 49.078125 8.5 55.328125 
Q 8.5 64.0625 14.71875 69.140625 
Q 20.953125 74.21875 31.78125 74.21875 
Q 42.671875 74.21875 48.875 69.140625 
Q 55.078125 64.0625 55.078125 55.328125 
Q 55.078125 49.078125 51.53125 44.71875 
Q 48 40.375 41.703125 38.8125 
Q 48.828125 37.15625 52.796875 32.3125 
Q 56.78125 27.484375 56.78125 20.515625 
Q 56.78125 9.90625 50.3125 4.234375 
Q 43.84375 -1.421875 31.78125 -1.421875 
Q 19.734375 -1.421875 13.25 4.234375 
Q 6.78125 9.90625 6.78125 20.515625 
Q 6.78125 27.484375 10.78125 32.3125 
Q 14.796875 37.15625 21.921875 38.8125 
z
M 18.3125 54.390625 
Q 18.3125 48.734375 21.84375 45.5625 
Q 25.390625 42.390625 31.78125 42.390625 
Q 38.140625 42.390625 41.71875 45.5625 
Q 45.3125 48.734375 45.3125 54.390625 
Q 45.3125 60.0625 41.71875 63.234375 
Q 38.140625 66.40625 31.78125 66.40625 
Q 25.390625 66.40625 21.84375 63.234375 
Q 18.3125 60.0625 18.3125 54.390625 
z
" id="DejaVuSans-56"/>
       </defs>
       <use xlink:href="#DejaVuSans-56"/>
       <use x="63.623047" xlink:href="#DejaVuSans-48"/>
      </g>
     </g>
    </g>
    <g id="xtick_5">
     <g id="line2d_5">
      <g>
       <use style="stroke:#000000;stroke-width:0.8;" x="328.750983" xlink:href="#m39e0ea08c1" y="307.584"/>
      </g>
     </g>
     <g id="text_5">
      <!-- 100 -->
      <g transform="translate(319.207233 322.182437)scale(0.1 -0.1)">
       <defs>
        <path d="M 12.40625 8.296875 
L 28.515625 8.296875 
L 28.515625 63.921875 
L 10.984375 60.40625 
L 10.984375 69.390625 
L 28.421875 72.90625 
L 38.28125 72.90625 
L 38.28125 8.296875 
L 54.390625 8.296875 
L 54.390625 0 
L 12.40625 0 
z
" id="DejaVuSans-49"/>
       </defs>
       <use xlink:href="#DejaVuSans-49"/>
       <use x="63.623047" xlink:href="#DejaVuSans-48"/>
       <use x="127.246094" xlink:href="#DejaVuSans-48"/>
      </g>
     </g>
    </g>
    <g id="xtick_6">
     <g id="line2d_6">
      <g>
       <use style="stroke:#000000;stroke-width:0.8;" x="382.989018" xlink:href="#m39e0ea08c1" y="307.584"/>
      </g>
     </g>
     <g id="text_6">
      <!-- 120 -->
      <g transform="translate(373.445268 322.182437)scale(0.1 -0.1)">
       <use xlink:href="#DejaVuSans-49"/>
       <use x="63.623047" xlink:href="#DejaVuSans-50"/>
       <use x="127.246094" xlink:href="#DejaVuSans-48"/>
      </g>
     </g>
    </g>
   </g>
   <g id="matplotlib.axis_2">
    <g id="ytick_1">
     <g id="line2d_7">
      <defs>
       <path d="M 0 0 
L -3.5 0 
" id="m50add443d3" style="stroke:#000000;stroke-width:0.8;"/>
      </defs>
      <g>
       <use style="stroke:#000000;stroke-width:0.8;" x="57.6" xlink:href="#m50add443d3" y="265.138017"/>
      </g>
     </g>
     <g id="text_7">
      <!-- 0 -->
      <g transform="translate(44.2375 268.937236)scale(0.1 -0.1)">
       <use xlink:href="#DejaVuSans-48"/>
      </g>
     </g>
    </g>
    <g id="ytick_2">
     <g id="line2d_8">
      <g>
       <use style="stroke:#000000;stroke-width:0.8;" x="57.6" xlink:href="#m50add443d3" y="210.899983"/>
      </g>
     </g>
     <g id="text_8">
      <!-- 20 -->
      <g transform="translate(37.875 214.699201)scale(0.1 -0.1)">
       <use xlink:href="#DejaVuSans-50"/>
       <use x="63.623047" xlink:href="#DejaVuSans-48"/>
      </g>
     </g>
    </g>
    <g id="ytick_3">
     <g id="line2d_9">
      <g>
       <use style="stroke:#000000;stroke-width:0.8;" x="57.6" xlink:href="#m50add443d3" y="156.661948"/>
      </g>
     </g>
     <g id="text_9">
      <!-- 40 -->
      <g transform="translate(37.875 160.461167)scale(0.1 -0.1)">
       <use xlink:href="#DejaVuSans-52"/>
       <use x="63.623047" xlink:href="#DejaVuSans-48"/>
      </g>
     </g>
    </g>
    <g id="ytick_4">
     <g id="line2d_10">
      <g>
       <use style="stroke:#000000;stroke-width:0.8;" x="57.6" xlink:href="#m50add443d3" y="102.423913"/>
      </g>
     </g>
     <g id="text_10">
      <!-- 60 -->
      <g transform="translate(37.875 106.223132)scale(0.1 -0.1)">
       <use xlink:href="#DejaVuSans-54"/>
       <use x="63.623047" xlink:href="#DejaVuSans-48"/>
      </g>
     </g>
    </g>
    <g id="ytick_5">
     <g id="line2d_11">
      <g>
       <use style="stroke:#000000;stroke-width:0.8;" x="57.6" xlink:href="#m50add443d3" y="48.185879"/>
      </g>
     </g>
     <g id="text_11">
      <!-- 80 -->
      <g transform="translate(37.875 51.985097)scale(0.1 -0.1)">
       <use xlink:href="#DejaVuSans-56"/>
       <use x="63.623047" xlink:href="#DejaVuSans-48"/>
      </g>
     </g>
    </g>
   </g>
   <g id="line2d_12">
    <path clip-path="url(#p64b8bf4aa7)" d="M 386.97009 231.033141 
L 387.387723 225.660864 
L 387.607387 220.245196 
L 387.620946 214.805121 
L 387.420265 209.354199 
L 386.991785 203.914124 
L 386.324657 198.498456 
L 385.41617 193.126179 
L 384.250052 187.813563 
L 382.818168 182.579593 
L 381.10967 177.440539 
L 379.129982 172.407249 
L 376.933341 167.455317 
L 373.38075 160.127758 
L 363.579937 140.694271 
L 360.870747 135.997257 
L 357.868672 131.479228 
L 356.22526 129.304283 
L 354.476083 127.199848 
L 352.621142 125.168633 
L 350.663149 123.226911 
L 348.61024 121.38553 
L 346.467837 119.649913 
L 344.238654 118.036332 
L 341.930826 116.550209 
L 339.547064 115.207818 
L 337.090081 114.011869 
L 334.570724 112.981347 
L 331.991706 112.118962 
L 329.358449 111.422003 
L 326.684514 110.89047 
L 323.975324 110.513516 
L 321.241727 110.288428 
L 318.494571 110.207071 
L 315.736567 110.269445 
L 312.978563 110.470126 
L 310.234118 110.798266 
L 307.505945 111.253865 
L 304.807603 111.8315 
L 302.141803 112.531171 
L 299.513971 113.347453 
L 296.934952 114.28306 
L 294.40746 115.337989 
L 291.936917 116.509531 
L 289.53146 117.800396 
L 287.199225 119.205161 
L 284.940211 120.726538 
L 282.765265 122.361815 
L 280.679813 124.110991 
L 278.683853 125.965932 
L 276.777386 127.921213 
L 274.963124 129.965987 
L 273.238355 132.092118 
L 271.60579 134.291471 
L 268.617274 138.885432 
L 266.000289 143.677362 
L 263.743987 148.613024 
L 261.756163 153.649025 
L 259.055109 161.323707 
L 256.37575 169.030932 
L 254.434028 174.132019 
L 252.305185 179.154461 
L 249.945831 184.060291 
L 247.315286 188.806119 
L 244.372873 193.348555 
L 241.094183 197.660478 
L 237.511761 201.744602 
L 233.682556 205.617198 
L 229.65267 209.297249 
L 225.473629 212.798314 
L 221.188825 216.136665 
L 216.800968 219.320438 
L 212.31277 222.352344 
L 207.718809 225.245943 
L 203.016371 228.001235 
L 198.202746 230.610085 
L 193.27522 233.004694 
L 188.236507 235.09557 
L 183.083893 236.795932 
L 180.464196 237.471196 
L 177.814668 238.019 
L 175.138021 238.428497 
L 172.439679 238.699687 
L 169.722354 238.840706 
L 166.99418 238.854266 
L 164.260583 238.748502 
L 161.529698 238.523414 
L 156.095047 237.745098 
L 150.736329 236.557285 
L 145.494223 234.997942 
L 140.387712 233.091475 
L 135.424932 230.859579 
L 130.61673 228.323951 
L 125.968531 225.508997 
L 121.493893 222.433701 
L 117.195529 219.111621 
L 113.081574 215.561742 
L 109.152028 211.792198 
L 105.412316 207.821974 
L 101.875996 203.659205 
L 98.570188 199.312027 
L 95.530146 194.791286 
L 92.793837 190.096984 
L 90.391092 185.24268 
L 88.365301 180.228374 
L 87.500205 177.665627 
L 86.743584 175.064913 
L 86.098152 172.426233 
L 85.566619 169.75501 
L 85.15441 167.048532 
L 84.866948 164.309511 
L 84.706946 161.535235 
L 84.679827 158.731129 
L 84.679827 158.731129 
" style="fill:none;stroke:#fea952;stroke-linecap:square;"/>
   </g>
   <g id="line2d_13">
    <path clip-path="url(#p64b8bf4aa7)" d="M 376.162406 230.10333 
L 376.553731 225.117534 
L 376.760557 220.115294 
L 376.777252 215.096444 
L 376.598185 210.097947 
L 376.211581 205.121507 
L 375.608483 200.181964 
L 374.792725 195.320034 
L 373.751652 190.543797 
L 372.478355 185.85966 
L 370.963955 181.279164 
L 369.176963 176.720949 
L 367.124873 172.088299 
L 363.68485 164.991922 
L 354.111269 145.98718 
L 351.729783 141.83792 
L 349.213952 138.01883 
L 346.465977 134.514817 
L 343.420048 131.302062 
L 340.107302 128.437072 
L 336.60807 126.002133 
L 334.79949 124.961336 
L 332.983242 124.052011 
L 331.130675 123.26904 
L 329.216181 122.605479 
L 327.24351 122.06144 
L 325.189589 121.634575 
L 323.085131 121.324535 
L 320.920616 121.131281 
L 318.739833 121.051905 
L 316.52379 121.088449 
L 312.020903 121.497704 
L 307.561415 122.32374 
L 303.213315 123.544778 
L 299.055334 125.13941 
L 295.128389 127.092595 
L 291.459149 129.396834 
L 289.736275 130.672988 
L 288.064391 132.05697 
L 284.891517 135.120621 
L 281.948554 138.557642 
L 279.27502 142.290463 
L 276.87807 146.279899 
L 274.766831 150.485824 
L 272.855106 154.992271 
L 271.071361 159.775147 
L 265.53215 175.531365 
L 263.337197 180.996229 
L 260.870681 186.450218 
L 258.072132 191.857838 
L 254.880602 197.165595 
L 253.125958 199.7559 
L 251.286672 202.256357 
L 247.376657 207.011996 
L 243.235089 211.434869 
L 238.910772 215.574781 
L 234.467153 219.447324 
L 229.93709 223.100398 
L 225.303228 226.581923 
L 220.56388 229.897794 
L 215.735682 233.042189 
L 210.793229 236.040923 
L 205.70364 238.910939 
L 200.362944 241.661027 
L 194.76459 244.177265 
L 191.841711 245.326556 
L 188.865413 246.366079 
L 185.791512 247.300188 
L 182.660544 248.094126 
L 179.455144 248.741846 
L 176.222768 249.221731 
L 173.001872 249.532716 
L 169.776267 249.688179 
L 166.574795 249.693763 
L 163.369512 249.559448 
L 160.200057 249.289222 
L 157.06182 248.893449 
L 153.942954 248.377081 
L 150.859637 247.745446 
L 144.822847 246.163841 
L 138.959895 244.18435 
L 133.279922 241.835353 
L 127.793203 239.1444 
L 122.511014 236.143784 
L 117.437308 232.854314 
L 112.566358 229.291278 
L 107.918824 225.481709 
L 103.474827 221.428331 
L 99.272165 217.171732 
L 95.259008 212.678402 
L 91.464937 207.95154 
L 87.920179 202.986475 
L 84.663245 197.773888 
L 81.744575 192.330192 
L 80.411034 189.493446 
L 79.198618 186.627521 
L 78.087484 183.697817 
L 77.084437 180.695866 
L 76.206618 177.642301 
L 75.459126 174.543237 
L 74.842679 171.388315 
L 74.366055 168.180775 
L 74.037337 164.934093 
L 73.859846 161.64014 
L 73.832727 158.836033 
L 73.832727 158.836033 
" style="fill:none;stroke:#ffffff;stroke-linecap:square;"/>
   </g>
   <g id="line2d_14">
    <path clip-path="url(#p64b8bf4aa7)" d="M 397.777773 231.962952 
L 398.221714 226.204193 
L 398.454216 220.375098 
L 398.46464 214.513798 
L 398.242345 208.61045 
L 397.771989 202.706741 
L 397.040831 196.814948 
L 396.039615 190.932324 
L 394.748452 185.083329 
L 393.157981 179.299526 
L 391.255385 173.601914 
L 389.083 168.09355 
L 386.74181 162.822335 
L 383.07665 155.263594 
L 373.048606 135.401361 
L 370.011712 130.156593 
L 368.337965 127.549977 
L 366.523393 124.939627 
L 364.567427 122.370394 
L 362.486189 119.884878 
L 360.259488 117.466279 
L 357.90625 115.151761 
L 355.438604 112.956769 
L 352.828372 110.862754 
L 350.11162 108.916088 
L 347.253581 107.098286 
L 344.294638 105.4543 
L 341.196921 103.971728 
L 338.010773 102.693653 
L 334.767231 101.632445 
L 331.473388 100.782567 
L 328.17944 100.146366 
L 324.865517 99.702497 
L 321.562838 99.445575 
L 318.249309 99.362237 
L 314.949343 99.450441 
L 311.690739 99.699235 
L 308.447333 100.098828 
L 305.23524 100.646581 
L 302.05379 101.339261 
L 298.923891 102.171846 
L 295.814626 103.150129 
L 292.756695 104.272428 
L 289.759585 105.536569 
L 286.807568 106.95127 
L 283.934531 108.508197 
L 281.139747 110.207755 
L 278.421273 112.056243 
L 275.794256 114.050642 
L 273.295235 116.165013 
L 270.9171 118.393078 
L 268.663256 120.721806 
L 266.538888 123.132041 
L 264.528155 125.626594 
L 262.633221 128.195276 
L 260.855839 130.826778 
L 259.196268 133.508145 
L 257.644577 136.242217 
L 254.896088 141.777443 
L 252.588093 147.250794 
L 250.591448 152.615855 
L 244.402145 170.005047 
L 242.470583 174.577215 
L 240.379216 178.94654 
L 238.106786 183.072525 
L 235.619787 186.941209 
L 232.826025 190.638504 
L 229.696811 194.221496 
L 226.275275 197.692378 
L 222.610031 201.046684 
L 218.735502 204.297242 
L 214.742935 207.411925 
L 210.649029 210.385997 
L 206.456714 213.221233 
L 202.163214 215.928972 
L 197.761087 218.511632 
L 193.330095 220.918446 
L 188.956691 223.05377 
L 184.631302 224.864584 
L 180.376275 226.291677 
L 176.174192 227.296155 
L 174.053274 227.635263 
L 169.66844 227.993233 
L 165.151654 227.937555 
L 160.552078 227.480827 
L 155.944621 226.654565 
L 151.372452 225.480878 
L 146.886786 223.989135 
L 142.494756 222.194346 
L 138.207782 220.112352 
L 134.030857 217.759674 
L 129.981725 215.15347 
L 126.076961 212.316417 
L 122.312177 209.248604 
L 118.707249 205.979847 
L 115.246077 202.491254 
L 111.975066 198.84888 
L 108.918873 195.065794 
L 106.106933 191.157516 
L 103.582093 187.155061 
L 101.353573 183.04744 
L 99.462859 178.878788 
L 97.915973 174.635388 
L 96.737177 170.309229 
L 95.942765 165.916288 
L 95.554046 161.430331 
L 95.526927 158.626225 
L 95.526927 158.626225 
" style="fill:none;stroke:#ffffff;stroke-linecap:square;"/>
   </g>
   <g id="patch_3">
    <path d="M 57.6 307.584 
L 57.6 41.472 
" style="fill:none;stroke:#000000;stroke-linecap:square;stroke-linejoin:miter;stroke-width:0.8;"/>
   </g>
   <g id="patch_4">
    <path d="M 414.72 307.584 
L 414.72 41.472 
" style="fill:none;stroke:#000000;stroke-linecap:square;stroke-linejoin:miter;stroke-width:0.8;"/>
   </g>
   <g id="patch_5">
    <path d="M 57.6 307.584 
L 414.72 307.584 
" style="fill:none;stroke:#000000;stroke-linecap:square;stroke-linejoin:miter;stroke-width:0.8;"/>
   </g>
   <g id="patch_6">
    <path d="M 57.6 41.472 
L 414.72 41.472 
" style="fill:none;stroke:#000000;stroke-linecap:square;stroke-linejoin:miter;stroke-width:0.8;"/>
   </g>
  </g>
 </g>
 <defs>
  <clipPath id="p64b8bf4aa7">
   <rect height="266.112" width="357.12" x="57.6" y="41.472"/>
  </clipPath>
 </defs>
</svg>
