<?xml version="1.0" encoding="utf-8" standalone="no"?>
<!DOCTYPE svg PUBLIC "-//W3C//DTD SVG 1.1//EN"
  "http://www.w3.org/Graphics/SVG/1.1/DTD/svg11.dtd">
<!-- Created with matplotlib (https://matplotlib.org/) -->
<svg height="345.6pt" version="1.1" viewBox="0 0 460.8 345.6" width="460.8pt" xmlns="http://www.w3.org/2000/svg" xmlns:xlink="http://www.w3.org/1999/xlink">
 <metadata>
  <rdf:RDF xmlns:cc="http://creativecommons.org/ns#" xmlns:dc="http://purl.org/dc/elements/1.1/" xmlns:rdf="http://www.w3.org/1999/02/22-rdf-syntax-ns#">
   <cc:Work>
    <dc:type rdf:resource="http://purl.org/dc/dcmitype/StillImage"/>
    <dc:date>2021-01-23T13:09:22.453796</dc:date>
    <dc:format>image/svg+xml</dc:format>
    <dc:creator>
     <cc:Agent>
      <dc:title>Matplotlib v3.3.3, https://matplotlib.org/</dc:title>
     </cc:Agent>
    </dc:creator>
   </cc:Work>
  </rdf:RDF>
 </metadata>
 <defs>
  <style type="text/css">*{stroke-linecap:butt;stroke-linejoin:round;}</style>
 </defs>
 <g id="figure_1">
  <g id="patch_1">
   <path d="M 0 345.6 
L 460.8 345.6 
L 460.8 0 
L 0 0 
z
" style="fill:#ffffff;"/>
  </g>
  <g id="axes_1">
   <g id="patch_2">
    <path d="M 57.6 307.584 
L 414.72 307.584 
L 414.72 41.472 
L 57.6 41.472 
z
" style="fill:#7d9051;"/>
   </g>
   <g id="matplotlib.axis_1">
    <g id="xtick_1">
     <g id="line2d_1">
      <defs>
       <path d="M 0 0 
L 0 3.5 
" id="m791f605bc6" style="stroke:#000000;stroke-width:0.8;"/>
      </defs>
      <g>
       <use style="stroke:#000000;stroke-width:0.8;" x="74.382228" xlink:href="#m791f605bc6" y="307.584"/>
      </g>
     </g>
     <g id="text_1">
      <!-- −20 -->
      <g transform="translate(63.829884 322.182437)scale(0.1 -0.1)">
       <defs>
        <path d="M 10.59375 35.5 
L 73.1875 35.5 
L 73.1875 27.203125 
L 10.59375 27.203125 
z
" id="DejaVuSans-8722"/>
        <path d="M 19.1875 8.296875 
L 53.609375 8.296875 
L 53.609375 0 
L 7.328125 0 
L 7.328125 8.296875 
Q 12.9375 14.109375 22.625 23.890625 
Q 32.328125 33.6875 34.8125 36.53125 
Q 39.546875 41.84375 41.421875 45.53125 
Q 43.3125 49.21875 43.3125 52.78125 
Q 43.3125 58.59375 39.234375 62.25 
Q 35.15625 65.921875 28.609375 65.921875 
Q 23.96875 65.921875 18.8125 64.3125 
Q 13.671875 62.703125 7.8125 59.421875 
L 7.8125 69.390625 
Q 13.765625 71.78125 18.9375 73 
Q 24.125 74.21875 28.421875 74.21875 
Q 39.75 74.21875 46.484375 68.546875 
Q 53.21875 62.890625 53.21875 53.421875 
Q 53.21875 48.921875 51.53125 44.890625 
Q 49.859375 40.875 45.40625 35.40625 
Q 44.1875 33.984375 37.640625 27.21875 
Q 31.109375 20.453125 19.1875 8.296875 
z
" id="DejaVuSans-50"/>
        <path d="M 31.78125 66.40625 
Q 24.171875 66.40625 20.328125 58.90625 
Q 16.5 51.421875 16.5 36.375 
Q 16.5 21.390625 20.328125 13.890625 
Q 24.171875 6.390625 31.78125 6.390625 
Q 39.453125 6.390625 43.28125 13.890625 
Q 47.125 21.390625 47.125 36.375 
Q 47.125 51.421875 43.28125 58.90625 
Q 39.453125 66.40625 31.78125 66.40625 
z
M 31.78125 74.21875 
Q 44.046875 74.21875 50.515625 64.515625 
Q 56.984375 54.828125 56.984375 36.375 
Q 56.984375 17.96875 50.515625 8.265625 
Q 44.046875 -1.421875 31.78125 -1.421875 
Q 19.53125 -1.421875 13.0625 8.265625 
Q 6.59375 17.96875 6.59375 36.375 
Q 6.59375 54.828125 13.0625 64.515625 
Q 19.53125 74.21875 31.78125 74.21875 
z
" id="DejaVuSans-48"/>
       </defs>
       <use xlink:href="#DejaVuSans-8722"/>
       <use x="83.789062" xlink:href="#DejaVuSans-50"/>
       <use x="147.412109" xlink:href="#DejaVuSans-48"/>
      </g>
     </g>
    </g>
    <g id="xtick_2">
     <g id="line2d_2">
      <g>
       <use style="stroke:#000000;stroke-width:0.8;" x="125.430612" xlink:href="#m791f605bc6" y="307.584"/>
      </g>
     </g>
     <g id="text_2">
      <!-- 0 -->
      <g transform="translate(122.249362 322.182437)scale(0.1 -0.1)">
       <use xlink:href="#DejaVuSans-48"/>
      </g>
     </g>
    </g>
    <g id="xtick_3">
     <g id="line2d_3">
      <g>
       <use style="stroke:#000000;stroke-width:0.8;" x="176.478996" xlink:href="#m791f605bc6" y="307.584"/>
      </g>
     </g>
     <g id="text_3">
      <!-- 20 -->
      <g transform="translate(170.116496 322.182437)scale(0.1 -0.1)">
       <use xlink:href="#DejaVuSans-50"/>
       <use x="63.623047" xlink:href="#DejaVuSans-48"/>
      </g>
     </g>
    </g>
    <g id="xtick_4">
     <g id="line2d_4">
      <g>
       <use style="stroke:#000000;stroke-width:0.8;" x="227.52738" xlink:href="#m791f605bc6" y="307.584"/>
      </g>
     </g>
     <g id="text_4">
      <!-- 40 -->
      <g transform="translate(221.16488 322.182437)scale(0.1 -0.1)">
       <defs>
        <path d="M 37.796875 64.3125 
L 12.890625 25.390625 
L 37.796875 25.390625 
z
M 35.203125 72.90625 
L 47.609375 72.90625 
L 47.609375 25.390625 
L 58.015625 25.390625 
L 58.015625 17.1875 
L 47.609375 17.1875 
L 47.609375 0 
L 37.796875 0 
L 37.796875 17.1875 
L 4.890625 17.1875 
L 4.890625 26.703125 
z
" id="DejaVuSans-52"/>
       </defs>
       <use xlink:href="#DejaVuSans-52"/>
       <use x="63.623047" xlink:href="#DejaVuSans-48"/>
      </g>
     </g>
    </g>
    <g id="xtick_5">
     <g id="line2d_5">
      <g>
       <use style="stroke:#000000;stroke-width:0.8;" x="278.575763" xlink:href="#m791f605bc6" y="307.584"/>
      </g>
     </g>
     <g id="text_5">
      <!-- 60 -->
      <g transform="translate(272.213263 322.182437)scale(0.1 -0.1)">
       <defs>
        <path d="M 33.015625 40.375 
Q 26.375 40.375 22.484375 35.828125 
Q 18.609375 31.296875 18.609375 23.390625 
Q 18.609375 15.53125 22.484375 10.953125 
Q 26.375 6.390625 33.015625 6.390625 
Q 39.65625 6.390625 43.53125 10.953125 
Q 47.40625 15.53125 47.40625 23.390625 
Q 47.40625 31.296875 43.53125 35.828125 
Q 39.65625 40.375 33.015625 40.375 
z
M 52.59375 71.296875 
L 52.59375 62.3125 
Q 48.875 64.0625 45.09375 64.984375 
Q 41.3125 65.921875 37.59375 65.921875 
Q 27.828125 65.921875 22.671875 59.328125 
Q 17.53125 52.734375 16.796875 39.40625 
Q 19.671875 43.65625 24.015625 45.921875 
Q 28.375 48.1875 33.59375 48.1875 
Q 44.578125 48.1875 50.953125 41.515625 
Q 57.328125 34.859375 57.328125 23.390625 
Q 57.328125 12.15625 50.6875 5.359375 
Q 44.046875 -1.421875 33.015625 -1.421875 
Q 20.359375 -1.421875 13.671875 8.265625 
Q 6.984375 17.96875 6.984375 36.375 
Q 6.984375 53.65625 15.1875 63.9375 
Q 23.390625 74.21875 37.203125 74.21875 
Q 40.921875 74.21875 44.703125 73.484375 
Q 48.484375 72.75 52.59375 71.296875 
z
" id="DejaVuSans-54"/>
       </defs>
       <use xlink:href="#DejaVuSans-54"/>
       <use x="63.623047" xlink:href="#DejaVuSans-48"/>
      </g>
     </g>
    </g>
    <g id="xtick_6">
     <g id="line2d_6">
      <g>
       <use style="stroke:#000000;stroke-width:0.8;" x="329.624147" xlink:href="#m791f605bc6" y="307.584"/>
      </g>
     </g>
     <g id="text_6">
      <!-- 80 -->
      <g transform="translate(323.261647 322.182437)scale(0.1 -0.1)">
       <defs>
        <path d="M 31.78125 34.625 
Q 24.75 34.625 20.71875 30.859375 
Q 16.703125 27.09375 16.703125 20.515625 
Q 16.703125 13.921875 20.71875 10.15625 
Q 24.75 6.390625 31.78125 6.390625 
Q 38.8125 6.390625 42.859375 10.171875 
Q 46.921875 13.96875 46.921875 20.515625 
Q 46.921875 27.09375 42.890625 30.859375 
Q 38.875 34.625 31.78125 34.625 
z
M 21.921875 38.8125 
Q 15.578125 40.375 12.03125 44.71875 
Q 8.5 49.078125 8.5 55.328125 
Q 8.5 64.0625 14.71875 69.140625 
Q 20.953125 74.21875 31.78125 74.21875 
Q 42.671875 74.21875 48.875 69.140625 
Q 55.078125 64.0625 55.078125 55.328125 
Q 55.078125 49.078125 51.53125 44.71875 
Q 48 40.375 41.703125 38.8125 
Q 48.828125 37.15625 52.796875 32.3125 
Q 56.78125 27.484375 56.78125 20.515625 
Q 56.78125 9.90625 50.3125 4.234375 
Q 43.84375 -1.421875 31.78125 -1.421875 
Q 19.734375 -1.421875 13.25 4.234375 
Q 6.78125 9.90625 6.78125 20.515625 
Q 6.78125 27.484375 10.78125 32.3125 
Q 14.796875 37.15625 21.921875 38.8125 
z
M 18.3125 54.390625 
Q 18.3125 48.734375 21.84375 45.5625 
Q 25.390625 42.390625 31.78125 42.390625 
Q 38.140625 42.390625 41.71875 45.5625 
Q 45.3125 48.734375 45.3125 54.390625 
Q 45.3125 60.0625 41.71875 63.234375 
Q 38.140625 66.40625 31.78125 66.40625 
Q 25.390625 66.40625 21.84375 63.234375 
Q 18.3125 60.0625 18.3125 54.390625 
z
" id="DejaVuSans-56"/>
       </defs>
       <use xlink:href="#DejaVuSans-56"/>
       <use x="63.623047" xlink:href="#DejaVuSans-48"/>
      </g>
     </g>
    </g>
    <g id="xtick_7">
     <g id="line2d_7">
      <g>
       <use style="stroke:#000000;stroke-width:0.8;" x="380.672531" xlink:href="#m791f605bc6" y="307.584"/>
      </g>
     </g>
     <g id="text_7">
      <!-- 100 -->
      <g transform="translate(371.128781 322.182437)scale(0.1 -0.1)">
       <defs>
        <path d="M 12.40625 8.296875 
L 28.515625 8.296875 
L 28.515625 63.921875 
L 10.984375 60.40625 
L 10.984375 69.390625 
L 28.421875 72.90625 
L 38.28125 72.90625 
L 38.28125 8.296875 
L 54.390625 8.296875 
L 54.390625 0 
L 12.40625 0 
z
" id="DejaVuSans-49"/>
       </defs>
       <use xlink:href="#DejaVuSans-49"/>
       <use x="63.623047" xlink:href="#DejaVuSans-48"/>
       <use x="127.246094" xlink:href="#DejaVuSans-48"/>
      </g>
     </g>
    </g>
   </g>
   <g id="matplotlib.axis_2">
    <g id="ytick_1">
     <g id="line2d_8">
      <defs>
       <path d="M 0 0 
L -3.5 0 
" id="m1b183b6ae1" style="stroke:#000000;stroke-width:0.8;"/>
      </defs>
      <g>
       <use style="stroke:#000000;stroke-width:0.8;" x="57.6" xlink:href="#m1b183b6ae1" y="265.414378"/>
      </g>
     </g>
     <g id="text_8">
      <!-- 20 -->
      <g transform="translate(37.875 269.213597)scale(0.1 -0.1)">
       <use xlink:href="#DejaVuSans-50"/>
       <use x="63.623047" xlink:href="#DejaVuSans-48"/>
      </g>
     </g>
    </g>
    <g id="ytick_2">
     <g id="line2d_9">
      <g>
       <use style="stroke:#000000;stroke-width:0.8;" x="57.6" xlink:href="#m1b183b6ae1" y="214.365994"/>
      </g>
     </g>
     <g id="text_9">
      <!-- 40 -->
      <g transform="translate(37.875 218.165213)scale(0.1 -0.1)">
       <use xlink:href="#DejaVuSans-52"/>
       <use x="63.623047" xlink:href="#DejaVuSans-48"/>
      </g>
     </g>
    </g>
    <g id="ytick_3">
     <g id="line2d_10">
      <g>
       <use style="stroke:#000000;stroke-width:0.8;" x="57.6" xlink:href="#m1b183b6ae1" y="163.31761"/>
      </g>
     </g>
     <g id="text_10">
      <!-- 60 -->
      <g transform="translate(37.875 167.116829)scale(0.1 -0.1)">
       <use xlink:href="#DejaVuSans-54"/>
       <use x="63.623047" xlink:href="#DejaVuSans-48"/>
      </g>
     </g>
    </g>
    <g id="ytick_4">
     <g id="line2d_11">
      <g>
       <use style="stroke:#000000;stroke-width:0.8;" x="57.6" xlink:href="#m1b183b6ae1" y="112.269226"/>
      </g>
     </g>
     <g id="text_11">
      <!-- 80 -->
      <g transform="translate(37.875 116.068445)scale(0.1 -0.1)">
       <use xlink:href="#DejaVuSans-56"/>
       <use x="63.623047" xlink:href="#DejaVuSans-48"/>
      </g>
     </g>
    </g>
    <g id="ytick_5">
     <g id="line2d_12">
      <g>
       <use style="stroke:#000000;stroke-width:0.8;" x="57.6" xlink:href="#m1b183b6ae1" y="61.220843"/>
      </g>
     </g>
     <g id="text_12">
      <!-- 100 -->
      <g transform="translate(31.5125 65.020061)scale(0.1 -0.1)">
       <use xlink:href="#DejaVuSans-49"/>
       <use x="63.623047" xlink:href="#DejaVuSans-48"/>
       <use x="127.246094" xlink:href="#DejaVuSans-48"/>
      </g>
     </g>
    </g>
   </g>
   <g id="line2d_13">
    <path clip-path="url(#p8f8492259f)" d="M 150.954804 182.659843 
L 150.099743 177.69794 
L 149.676042 172.608416 
L 149.681147 167.449977 
L 150.115058 162.273671 
L 150.490264 159.695727 
L 151.564832 154.601099 
L 153.068207 149.626434 
L 153.979421 147.201635 
L 154.997836 144.827886 
L 156.1209 142.512841 
L 157.353719 140.261608 
L 158.688634 138.081842 
L 160.133303 135.981201 
L 161.682622 133.967342 
L 163.339142 132.042818 
L 165.087549 130.202524 
L 168.837053 126.7491 
L 172.844351 123.545814 
L 177.032871 120.53396 
L 183.470072 116.251 
L 198.440011 106.493102 
L 204.665361 102.085074 
L 210.712042 97.411594 
L 216.595368 92.498187 
L 222.328102 87.375482 
L 231.774605 78.702362 
L 235.705331 75.445475 
L 239.835145 72.464249 
L 241.994492 71.106362 
L 244.227858 69.850572 
L 246.53014 68.704536 
L 248.893681 67.670806 
L 251.308269 66.749383 
L 253.766249 65.947923 
L 256.262515 65.266427 
L 258.786857 64.707447 
L 261.331619 64.276088 
L 263.889143 63.974903 
L 266.451772 63.803891 
L 269.011849 63.770709 
L 271.56682 63.865149 
L 274.111582 64.082104 
L 276.648687 64.416471 
L 281.682058 65.41702 
L 286.646513 66.810641 
L 291.529291 68.553943 
L 296.302315 70.611193 
L 300.894117 73.007914 
L 303.099407 74.345382 
L 305.230677 75.782394 
L 307.277717 77.324055 
L 309.235423 78.972918 
L 311.088479 80.739192 
L 312.829229 82.622877 
L 314.447463 84.629079 
L 315.940628 86.745034 
L 317.298515 88.960534 
L 318.518571 91.265369 
L 319.595692 93.641671 
L 320.519668 96.079231 
L 321.290499 98.56784 
L 321.897974 101.092183 
L 322.33699 103.639497 
L 322.604994 106.199574 
L 322.696882 108.75965 
L 322.622861 111.314622 
L 322.393144 113.864488 
L 322.025595 116.401593 
L 321.525321 118.923383 
L 320.192958 123.915915 
L 318.4956 128.811455 
L 316.530237 133.587031 
L 314.358128 138.237539 
L 311.999693 142.770636 
L 309.477903 147.201635 
L 306.813177 151.545853 
L 302.588923 157.919244 
L 298.168133 164.167566 
L 289.053444 176.490646 
L 281.511045 186.787105 
L 275.645586 195.143725 
L 271.40857 201.522221 
L 267.393615 208.046204 
L 264.889692 212.500176 
L 262.554228 217.053691 
L 260.415301 221.716961 
L 258.508644 226.48488 
L 256.877648 231.344686 
L 255.555495 236.28617 
L 254.580471 241.301674 
L 253.985757 246.375883 
L 253.761144 251.488379 
L 253.89387 256.613636 
L 254.366067 261.733789 
L 255.167527 266.818208 
L 256.275277 271.849027 
L 257.68166 276.798167 
L 259.366257 281.645211 
L 261.316305 286.367187 
L 263.513938 290.93857 
L 263.513938 290.93857 
" style="fill:none;stroke:#fea952;stroke-linecap:square;"/>
   </g>
   <g id="line2d_14">
    <path clip-path="url(#p8f8492259f)" d="M 140.933912 184.614125 
L 140.378229 181.713819 
L 139.945716 178.762475 
L 139.644104 175.796471 
L 139.468374 172.810949 
L 139.417724 169.813899 
L 139.491706 166.80749 
L 139.690265 163.796735 
L 140.01183 160.803201 
L 140.458984 157.795485 
L 141.03107 154.822359 
L 141.730789 151.85718 
L 142.556586 148.932372 
L 143.511072 146.034963 
L 144.596813 143.176194 
L 145.811989 140.371686 
L 147.166031 137.608984 
L 148.647031 134.929526 
L 150.276327 132.296464 
L 152.04125 129.755755 
L 153.944638 127.306929 
L 155.937388 125.010639 
L 158.023419 122.831257 
L 160.158203 120.796485 
L 164.557833 117.051266 
L 169.046168 113.670104 
L 173.517607 110.581452 
L 182.252443 104.88657 
L 192.652022 98.082591 
L 198.536281 93.919789 
L 204.259684 89.499289 
L 209.865043 84.820933 
L 215.382863 79.892089 
L 225.154629 70.929755 
L 229.569712 67.285102 
L 231.928583 65.521181 
L 234.400172 63.821416 
L 236.990531 62.207043 
L 239.678172 60.710667 
L 242.43897 59.350402 
L 245.253633 58.132066 
L 248.143257 57.042674 
L 251.077349 56.098694 
L 254.055196 55.298215 
L 257.08057 54.641361 
L 260.137534 54.13648 
L 263.209332 53.787884 
L 266.319455 53.595071 
L 269.388972 53.568 
L 272.434108 53.692376 
L 275.445588 53.959954 
L 278.429364 54.363278 
L 281.369172 54.893027 
L 284.262911 55.538928 
L 289.923303 57.141093 
L 295.417631 59.113694 
L 300.844089 61.467354 
L 303.530165 62.810724 
L 306.188497 64.27825 
L 308.80709 65.880168 
L 311.372741 67.626872 
L 313.854762 69.515087 
L 316.279629 71.582609 
L 318.586688 73.809953 
L 320.775937 76.212937 
L 322.789277 78.742515 
L 324.645411 81.409845 
L 326.321947 84.184011 
L 327.81756 87.05036 
L 329.142515 90.022876 
L 330.272222 93.05844 
L 331.216799 96.179105 
L 331.95932 99.358163 
L 332.491178 102.576496 
L 332.808101 105.83336 
L 332.902276 109.055311 
L 332.791357 112.230702 
L 332.497342 115.328276 
L 332.040114 118.388279 
L 331.443095 121.347279 
L 330.71965 124.269231 
L 328.975301 129.875219 
L 326.932994 135.219313 
L 324.670308 140.350602 
L 322.210138 145.321933 
L 319.584419 150.132445 
L 316.822918 154.792314 
L 313.939847 159.331751 
L 309.46539 165.913598 
L 303.350511 174.369731 
L 288.3617 194.759339 
L 282.714919 202.911014 
L 278.732476 209.035002 
L 275.065591 215.187027 
L 272.83004 219.334148 
L 270.788083 223.514062 
L 268.959747 227.751859 
L 267.38373 232.002247 
L 266.080574 236.281429 
L 265.078102 240.549389 
L 264.396603 244.829867 
L 264.033755 249.192871 
L 263.984442 253.614141 
L 264.237653 258.072145 
L 264.784429 262.530485 
L 265.619263 266.995111 
L 266.724501 271.406003 
L 268.086654 275.74909 
L 269.686451 279.988719 
L 271.5258 284.122591 
L 272.65397 286.389139 
L 272.65397 286.389139 
" style="fill:none;stroke:#ffffff;stroke-linecap:square;"/>
   </g>
   <g id="line2d_15">
    <path clip-path="url(#p8f8492259f)" d="M 160.975696 180.705561 
L 160.25377 176.633405 
L 159.88371 172.405883 
L 159.870588 168.092464 
L 160.218286 163.744141 
L 160.919376 159.448943 
L 161.971804 155.256874 
L 163.362028 151.227077 
L 165.07577 147.416698 
L 167.100941 143.867219 
L 169.420606 140.627755 
L 172.151679 137.57379 
L 175.330985 134.62732 
L 178.888992 131.773804 
L 182.765866 128.982052 
L 189.022804 124.818653 
L 204.227999 114.903612 
L 210.794441 110.250359 
L 215.07153 106.989529 
L 221.282202 101.922353 
L 227.308016 96.650201 
L 240.126102 84.99528 
L 243.55574 82.306866 
L 246.998452 80.005681 
L 250.621311 78.05867 
L 254.473281 76.456091 
L 258.469834 75.234639 
L 262.525705 74.415697 
L 266.58409 74.01271 
L 270.699533 74.037922 
L 274.86801 74.469664 
L 279.101204 75.295111 
L 283.369722 76.480188 
L 287.64095 77.994192 
L 291.76054 79.755031 
L 295.599737 81.737579 
L 299.088613 83.937916 
L 302.191217 86.363227 
L 303.59027 87.668431 
L 304.882521 89.032818 
L 306.105648 90.515643 
L 307.235845 92.080224 
L 308.275083 93.737058 
L 309.219582 95.480378 
L 310.04887 97.260467 
L 310.767113 99.100023 
L 311.364198 100.956576 
L 311.836629 102.826202 
L 312.182803 104.702498 
L 312.401888 106.565787 
L 312.491487 108.463989 
L 312.454366 110.398541 
L 312.011077 114.414907 
L 311.105831 118.590487 
L 309.792382 122.877676 
L 308.148995 127.212355 
L 306.266553 131.504598 
L 304.193626 135.711766 
L 301.934015 139.86535 
L 299.503895 143.975593 
L 295.582251 150.067706 
L 291.370146 156.133742 
L 285.438882 164.243834 
L 273.205848 180.848991 
L 267.193263 189.41697 
L 262.787086 196.053445 
L 259.930451 200.626387 
L 257.179429 205.336381 
L 254.570488 210.194194 
L 252.125293 215.228514 
L 249.900387 220.424458 
L 247.928541 225.801795 
L 246.270891 231.329008 
L 244.965977 237.020588 
L 244.464229 239.923578 
L 243.795647 245.744096 
L 243.551877 251.579896 
L 243.713319 257.384276 
L 244.256787 263.162054 
L 245.164368 268.861321 
L 246.416066 274.501094 
L 247.991859 280.014572 
L 249.873522 285.403601 
L 252.055057 290.664488 
L 254.373906 295.488 
L 254.373906 295.488 
" style="fill:none;stroke:#ffffff;stroke-linecap:square;"/>
   </g>
   <g id="patch_3">
    <path d="M 57.6 307.584 
L 57.6 41.472 
" style="fill:none;stroke:#000000;stroke-linecap:square;stroke-linejoin:miter;stroke-width:0.8;"/>
   </g>
   <g id="patch_4">
    <path d="M 414.72 307.584 
L 414.72 41.472 
" style="fill:none;stroke:#000000;stroke-linecap:square;stroke-linejoin:miter;stroke-width:0.8;"/>
   </g>
   <g id="patch_5">
    <path d="M 57.6 307.584 
L 414.72 307.584 
" style="fill:none;stroke:#000000;stroke-linecap:square;stroke-linejoin:miter;stroke-width:0.8;"/>
   </g>
   <g id="patch_6">
    <path d="M 57.6 41.472 
L 414.72 41.472 
" style="fill:none;stroke:#000000;stroke-linecap:square;stroke-linejoin:miter;stroke-width:0.8;"/>
   </g>
  </g>
 </g>
 <defs>
  <clipPath id="p8f8492259f">
   <rect height="266.112" width="357.12" x="57.6" y="41.472"/>
  </clipPath>
 </defs>
</svg>
