<?xml version="1.0" encoding="utf-8" standalone="no"?>
<!DOCTYPE svg PUBLIC "-//W3C//DTD SVG 1.1//EN"
  "http://www.w3.org/Graphics/SVG/1.1/DTD/svg11.dtd">
<!-- Created with matplotlib (https://matplotlib.org/) -->
<svg height="345.6pt" version="1.1" viewBox="0 0 460.8 345.6" width="460.8pt" xmlns="http://www.w3.org/2000/svg" xmlns:xlink="http://www.w3.org/1999/xlink">
 <metadata>
  <rdf:RDF xmlns:cc="http://creativecommons.org/ns#" xmlns:dc="http://purl.org/dc/elements/1.1/" xmlns:rdf="http://www.w3.org/1999/02/22-rdf-syntax-ns#">
   <cc:Work>
    <dc:type rdf:resource="http://purl.org/dc/dcmitype/StillImage"/>
    <dc:date>2021-01-23T12:05:50.559399</dc:date>
    <dc:format>image/svg+xml</dc:format>
    <dc:creator>
     <cc:Agent>
      <dc:title>Matplotlib v3.3.3, https://matplotlib.org/</dc:title>
     </cc:Agent>
    </dc:creator>
   </cc:Work>
  </rdf:RDF>
 </metadata>
 <defs>
  <style type="text/css">*{stroke-linecap:butt;stroke-linejoin:round;}</style>
 </defs>
 <g id="figure_1">
  <g id="patch_1">
   <path d="M 0 345.6 
L 460.8 345.6 
L 460.8 0 
L 0 0 
z
" style="fill:#ffffff;"/>
  </g>
  <g id="axes_1">
   <g id="patch_2">
    <path d="M 57.6 307.584 
L 414.72 307.584 
L 414.72 41.472 
L 57.6 41.472 
z
" style="fill:#7d9051;"/>
   </g>
   <g id="matplotlib.axis_1">
    <g id="xtick_1">
     <g id="line2d_1">
      <defs>
       <path d="M 0 0 
L 0 3.5 
" id="mfa89022827" style="stroke:#000000;stroke-width:0.8;"/>
      </defs>
      <g>
       <use style="stroke:#000000;stroke-width:0.8;" x="76.325215" xlink:href="#mfa89022827" y="307.584"/>
      </g>
     </g>
     <g id="text_1">
      <!-- −40 -->
      <g transform="translate(65.772871 322.182437)scale(0.1 -0.1)">
       <defs>
        <path d="M 10.59375 35.5 
L 73.1875 35.5 
L 73.1875 27.203125 
L 10.59375 27.203125 
z
" id="DejaVuSans-8722"/>
        <path d="M 37.796875 64.3125 
L 12.890625 25.390625 
L 37.796875 25.390625 
z
M 35.203125 72.90625 
L 47.609375 72.90625 
L 47.609375 25.390625 
L 58.015625 25.390625 
L 58.015625 17.1875 
L 47.609375 17.1875 
L 47.609375 0 
L 37.796875 0 
L 37.796875 17.1875 
L 4.890625 17.1875 
L 4.890625 26.703125 
z
" id="DejaVuSans-52"/>
        <path d="M 31.78125 66.40625 
Q 24.171875 66.40625 20.328125 58.90625 
Q 16.5 51.421875 16.5 36.375 
Q 16.5 21.390625 20.328125 13.890625 
Q 24.171875 6.390625 31.78125 6.390625 
Q 39.453125 6.390625 43.28125 13.890625 
Q 47.125 21.390625 47.125 36.375 
Q 47.125 51.421875 43.28125 58.90625 
Q 39.453125 66.40625 31.78125 66.40625 
z
M 31.78125 74.21875 
Q 44.046875 74.21875 50.515625 64.515625 
Q 56.984375 54.828125 56.984375 36.375 
Q 56.984375 17.96875 50.515625 8.265625 
Q 44.046875 -1.421875 31.78125 -1.421875 
Q 19.53125 -1.421875 13.0625 8.265625 
Q 6.59375 17.96875 6.59375 36.375 
Q 6.59375 54.828125 13.0625 64.515625 
Q 19.53125 74.21875 31.78125 74.21875 
z
" id="DejaVuSans-48"/>
       </defs>
       <use xlink:href="#DejaVuSans-8722"/>
       <use x="83.789062" xlink:href="#DejaVuSans-52"/>
       <use x="147.412109" xlink:href="#DejaVuSans-48"/>
      </g>
     </g>
    </g>
    <g id="xtick_2">
     <g id="line2d_2">
      <g>
       <use style="stroke:#000000;stroke-width:0.8;" x="120.755935" xlink:href="#mfa89022827" y="307.584"/>
      </g>
     </g>
     <g id="text_2">
      <!-- −20 -->
      <g transform="translate(110.203591 322.182437)scale(0.1 -0.1)">
       <defs>
        <path d="M 19.1875 8.296875 
L 53.609375 8.296875 
L 53.609375 0 
L 7.328125 0 
L 7.328125 8.296875 
Q 12.9375 14.109375 22.625 23.890625 
Q 32.328125 33.6875 34.8125 36.53125 
Q 39.546875 41.84375 41.421875 45.53125 
Q 43.3125 49.21875 43.3125 52.78125 
Q 43.3125 58.59375 39.234375 62.25 
Q 35.15625 65.921875 28.609375 65.921875 
Q 23.96875 65.921875 18.8125 64.3125 
Q 13.671875 62.703125 7.8125 59.421875 
L 7.8125 69.390625 
Q 13.765625 71.78125 18.9375 73 
Q 24.125 74.21875 28.421875 74.21875 
Q 39.75 74.21875 46.484375 68.546875 
Q 53.21875 62.890625 53.21875 53.421875 
Q 53.21875 48.921875 51.53125 44.890625 
Q 49.859375 40.875 45.40625 35.40625 
Q 44.1875 33.984375 37.640625 27.21875 
Q 31.109375 20.453125 19.1875 8.296875 
z
" id="DejaVuSans-50"/>
       </defs>
       <use xlink:href="#DejaVuSans-8722"/>
       <use x="83.789062" xlink:href="#DejaVuSans-50"/>
       <use x="147.412109" xlink:href="#DejaVuSans-48"/>
      </g>
     </g>
    </g>
    <g id="xtick_3">
     <g id="line2d_3">
      <g>
       <use style="stroke:#000000;stroke-width:0.8;" x="165.186654" xlink:href="#mfa89022827" y="307.584"/>
      </g>
     </g>
     <g id="text_3">
      <!-- 0 -->
      <g transform="translate(162.005404 322.182437)scale(0.1 -0.1)">
       <use xlink:href="#DejaVuSans-48"/>
      </g>
     </g>
    </g>
    <g id="xtick_4">
     <g id="line2d_4">
      <g>
       <use style="stroke:#000000;stroke-width:0.8;" x="209.617373" xlink:href="#mfa89022827" y="307.584"/>
      </g>
     </g>
     <g id="text_4">
      <!-- 20 -->
      <g transform="translate(203.254873 322.182437)scale(0.1 -0.1)">
       <use xlink:href="#DejaVuSans-50"/>
       <use x="63.623047" xlink:href="#DejaVuSans-48"/>
      </g>
     </g>
    </g>
    <g id="xtick_5">
     <g id="line2d_5">
      <g>
       <use style="stroke:#000000;stroke-width:0.8;" x="254.048093" xlink:href="#mfa89022827" y="307.584"/>
      </g>
     </g>
     <g id="text_5">
      <!-- 40 -->
      <g transform="translate(247.685593 322.182437)scale(0.1 -0.1)">
       <use xlink:href="#DejaVuSans-52"/>
       <use x="63.623047" xlink:href="#DejaVuSans-48"/>
      </g>
     </g>
    </g>
    <g id="xtick_6">
     <g id="line2d_6">
      <g>
       <use style="stroke:#000000;stroke-width:0.8;" x="298.478812" xlink:href="#mfa89022827" y="307.584"/>
      </g>
     </g>
     <g id="text_6">
      <!-- 60 -->
      <g transform="translate(292.116312 322.182437)scale(0.1 -0.1)">
       <defs>
        <path d="M 33.015625 40.375 
Q 26.375 40.375 22.484375 35.828125 
Q 18.609375 31.296875 18.609375 23.390625 
Q 18.609375 15.53125 22.484375 10.953125 
Q 26.375 6.390625 33.015625 6.390625 
Q 39.65625 6.390625 43.53125 10.953125 
Q 47.40625 15.53125 47.40625 23.390625 
Q 47.40625 31.296875 43.53125 35.828125 
Q 39.65625 40.375 33.015625 40.375 
z
M 52.59375 71.296875 
L 52.59375 62.3125 
Q 48.875 64.0625 45.09375 64.984375 
Q 41.3125 65.921875 37.59375 65.921875 
Q 27.828125 65.921875 22.671875 59.328125 
Q 17.53125 52.734375 16.796875 39.40625 
Q 19.671875 43.65625 24.015625 45.921875 
Q 28.375 48.1875 33.59375 48.1875 
Q 44.578125 48.1875 50.953125 41.515625 
Q 57.328125 34.859375 57.328125 23.390625 
Q 57.328125 12.15625 50.6875 5.359375 
Q 44.046875 -1.421875 33.015625 -1.421875 
Q 20.359375 -1.421875 13.671875 8.265625 
Q 6.984375 17.96875 6.984375 36.375 
Q 6.984375 53.65625 15.1875 63.9375 
Q 23.390625 74.21875 37.203125 74.21875 
Q 40.921875 74.21875 44.703125 73.484375 
Q 48.484375 72.75 52.59375 71.296875 
z
" id="DejaVuSans-54"/>
       </defs>
       <use xlink:href="#DejaVuSans-54"/>
       <use x="63.623047" xlink:href="#DejaVuSans-48"/>
      </g>
     </g>
    </g>
    <g id="xtick_7">
     <g id="line2d_7">
      <g>
       <use style="stroke:#000000;stroke-width:0.8;" x="342.909531" xlink:href="#mfa89022827" y="307.584"/>
      </g>
     </g>
     <g id="text_7">
      <!-- 80 -->
      <g transform="translate(336.547031 322.182437)scale(0.1 -0.1)">
       <defs>
        <path d="M 31.78125 34.625 
Q 24.75 34.625 20.71875 30.859375 
Q 16.703125 27.09375 16.703125 20.515625 
Q 16.703125 13.921875 20.71875 10.15625 
Q 24.75 6.390625 31.78125 6.390625 
Q 38.8125 6.390625 42.859375 10.171875 
Q 46.921875 13.96875 46.921875 20.515625 
Q 46.921875 27.09375 42.890625 30.859375 
Q 38.875 34.625 31.78125 34.625 
z
M 21.921875 38.8125 
Q 15.578125 40.375 12.03125 44.71875 
Q 8.5 49.078125 8.5 55.328125 
Q 8.5 64.0625 14.71875 69.140625 
Q 20.953125 74.21875 31.78125 74.21875 
Q 42.671875 74.21875 48.875 69.140625 
Q 55.078125 64.0625 55.078125 55.328125 
Q 55.078125 49.078125 51.53125 44.71875 
Q 48 40.375 41.703125 38.8125 
Q 48.828125 37.15625 52.796875 32.3125 
Q 56.78125 27.484375 56.78125 20.515625 
Q 56.78125 9.90625 50.3125 4.234375 
Q 43.84375 -1.421875 31.78125 -1.421875 
Q 19.734375 -1.421875 13.25 4.234375 
Q 6.78125 9.90625 6.78125 20.515625 
Q 6.78125 27.484375 10.78125 32.3125 
Q 14.796875 37.15625 21.921875 38.8125 
z
M 18.3125 54.390625 
Q 18.3125 48.734375 21.84375 45.5625 
Q 25.390625 42.390625 31.78125 42.390625 
Q 38.140625 42.390625 41.71875 45.5625 
Q 45.3125 48.734375 45.3125 54.390625 
Q 45.3125 60.0625 41.71875 63.234375 
Q 38.140625 66.40625 31.78125 66.40625 
Q 25.390625 66.40625 21.84375 63.234375 
Q 18.3125 60.0625 18.3125 54.390625 
z
" id="DejaVuSans-56"/>
       </defs>
       <use xlink:href="#DejaVuSans-56"/>
       <use x="63.623047" xlink:href="#DejaVuSans-48"/>
      </g>
     </g>
    </g>
    <g id="xtick_8">
     <g id="line2d_8">
      <g>
       <use style="stroke:#000000;stroke-width:0.8;" x="387.340251" xlink:href="#mfa89022827" y="307.584"/>
      </g>
     </g>
     <g id="text_8">
      <!-- 100 -->
      <g transform="translate(377.796501 322.182437)scale(0.1 -0.1)">
       <defs>
        <path d="M 12.40625 8.296875 
L 28.515625 8.296875 
L 28.515625 63.921875 
L 10.984375 60.40625 
L 10.984375 69.390625 
L 28.421875 72.90625 
L 38.28125 72.90625 
L 38.28125 8.296875 
L 54.390625 8.296875 
L 54.390625 0 
L 12.40625 0 
z
" id="DejaVuSans-49"/>
       </defs>
       <use xlink:href="#DejaVuSans-49"/>
       <use x="63.623047" xlink:href="#DejaVuSans-48"/>
       <use x="127.246094" xlink:href="#DejaVuSans-48"/>
      </g>
     </g>
    </g>
   </g>
   <g id="matplotlib.axis_2">
    <g id="ytick_1">
     <g id="line2d_9">
      <defs>
       <path d="M 0 0 
L -3.5 0 
" id="mb4b3f3576c" style="stroke:#000000;stroke-width:0.8;"/>
      </defs>
      <g>
       <use style="stroke:#000000;stroke-width:0.8;" x="57.6" xlink:href="#mb4b3f3576c" y="272.856697"/>
      </g>
     </g>
     <g id="text_9">
      <!-- 20 -->
      <g transform="translate(37.875 276.655916)scale(0.1 -0.1)">
       <use xlink:href="#DejaVuSans-50"/>
       <use x="63.623047" xlink:href="#DejaVuSans-48"/>
      </g>
     </g>
    </g>
    <g id="ytick_2">
     <g id="line2d_10">
      <g>
       <use style="stroke:#000000;stroke-width:0.8;" x="57.6" xlink:href="#mb4b3f3576c" y="228.425978"/>
      </g>
     </g>
     <g id="text_10">
      <!-- 40 -->
      <g transform="translate(37.875 232.225197)scale(0.1 -0.1)">
       <use xlink:href="#DejaVuSans-52"/>
       <use x="63.623047" xlink:href="#DejaVuSans-48"/>
      </g>
     </g>
    </g>
    <g id="ytick_3">
     <g id="line2d_11">
      <g>
       <use style="stroke:#000000;stroke-width:0.8;" x="57.6" xlink:href="#mb4b3f3576c" y="183.995258"/>
      </g>
     </g>
     <g id="text_11">
      <!-- 60 -->
      <g transform="translate(37.875 187.794477)scale(0.1 -0.1)">
       <use xlink:href="#DejaVuSans-54"/>
       <use x="63.623047" xlink:href="#DejaVuSans-48"/>
      </g>
     </g>
    </g>
    <g id="ytick_4">
     <g id="line2d_12">
      <g>
       <use style="stroke:#000000;stroke-width:0.8;" x="57.6" xlink:href="#mb4b3f3576c" y="139.564539"/>
      </g>
     </g>
     <g id="text_12">
      <!-- 80 -->
      <g transform="translate(37.875 143.363758)scale(0.1 -0.1)">
       <use xlink:href="#DejaVuSans-56"/>
       <use x="63.623047" xlink:href="#DejaVuSans-48"/>
      </g>
     </g>
    </g>
    <g id="ytick_5">
     <g id="line2d_13">
      <g>
       <use style="stroke:#000000;stroke-width:0.8;" x="57.6" xlink:href="#mb4b3f3576c" y="95.13382"/>
      </g>
     </g>
     <g id="text_13">
      <!-- 100 -->
      <g transform="translate(31.5125 98.933038)scale(0.1 -0.1)">
       <use xlink:href="#DejaVuSans-49"/>
       <use x="63.623047" xlink:href="#DejaVuSans-48"/>
       <use x="127.246094" xlink:href="#DejaVuSans-48"/>
      </g>
     </g>
    </g>
    <g id="ytick_6">
     <g id="line2d_14">
      <g>
       <use style="stroke:#000000;stroke-width:0.8;" x="57.6" xlink:href="#mb4b3f3576c" y="50.7031"/>
      </g>
     </g>
     <g id="text_14">
      <!-- 120 -->
      <g transform="translate(31.5125 54.502319)scale(0.1 -0.1)">
       <use xlink:href="#DejaVuSans-49"/>
       <use x="63.623047" xlink:href="#DejaVuSans-50"/>
       <use x="127.246094" xlink:href="#DejaVuSans-48"/>
      </g>
     </g>
    </g>
   </g>
   <g id="line2d_15">
    <path clip-path="url(#p843f0c9475)" d="M 244.639888 295.072057 
L 244.85982 288.383012 
L 244.850934 281.680638 
L 244.479937 257.08157 
L 244.733192 250.394747 
L 245.284133 243.725696 
L 246.312704 234.846217 
L 249.151827 212.661959 
L 250.002676 208.278868 
L 251.082342 203.937987 
L 252.415264 199.657087 
L 253.988111 195.453941 
L 255.800885 191.348542 
L 257.840255 187.360885 
L 260.101778 183.508742 
L 262.543246 179.776562 
L 266.422048 174.311583 
L 272.977801 165.227723 
L 275.461478 161.495542 
L 277.776318 157.663393 
L 279.864562 153.706837 
L 281.666228 149.601439 
L 283.125777 145.327203 
L 284.194336 140.913011 
L 284.569775 138.671482 
L 284.831917 136.421066 
L 284.98076 134.163985 
L 285.005196 131.911348 
L 284.905227 129.669818 
L 284.671966 127.44606 
L 284.305413 125.248961 
L 283.805567 123.080742 
L 282.459316 118.830944 
L 280.742069 114.683336 
L 278.758237 110.626812 
L 275.512573 104.684203 
L 271.027292 96.962144 
L 266.355402 89.364491 
L 262.683203 83.688466 
L 260.095114 79.971837 
L 257.324858 76.417379 
L 254.308012 73.118398 
L 252.686291 71.594425 
L 250.97793 70.17042 
L 249.176264 68.857492 
L 247.283516 67.662306 
L 245.310792 66.584861 
L 243.264757 65.627379 
L 241.156519 64.794303 
L 238.994965 64.083411 
L 236.791201 63.499147 
L 234.554115 63.041511 
L 232.294812 62.712724 
L 230.01996 62.515007 
L 227.742885 62.450582 
L 225.468032 62.515007 
L 223.204287 62.712724 
L 220.958314 63.037068 
L 218.739 63.492483 
L 216.553009 64.072304 
L 214.404783 64.778752 
L 212.30321 65.607385 
L 210.257176 66.560424 
L 208.271123 67.635647 
L 206.353937 68.828612 
L 204.510062 70.137097 
L 202.741719 71.552215 
L 201.057795 73.067303 
L 199.460511 74.675695 
L 197.952088 76.370727 
L 196.539191 78.141291 
L 195.226263 79.985166 
L 194.015526 81.891244 
L 192.913644 83.855082 
L 191.922839 85.865572 
L 191.04089 87.922714 
L 189.590227 92.15474 
L 188.528332 96.515615 
L 187.815219 100.974238 
L 187.422007 105.497285 
L 187.319817 110.051434 
L 187.537527 114.590032 
L 188.115127 119.066427 
L 188.550548 121.263526 
L 189.094824 123.429523 
L 189.747956 125.553312 
L 190.518829 127.630448 
L 191.411886 129.656489 
L 192.418242 131.629213 
L 194.74419 135.423596 
L 197.436692 139.024706 
L 200.429101 142.441428 
L 203.656992 145.684871 
L 207.058164 148.763919 
L 210.565969 151.691904 
L 215.890991 155.815075 
L 221.098271 159.647224 
L 221.098271 159.647224 
" style="fill:none;stroke:#fea952;stroke-linecap:square;"/>
   </g>
   <g id="line2d_16">
    <path clip-path="url(#p843f0c9475)" d="M 235.763484 294.656114 
L 235.973958 288.312279 
L 235.966058 281.83078 
L 235.596331 256.869213 
L 235.868043 249.784273 
L 236.447495 242.789012 
L 237.494099 233.75271 
L 240.409301 211.070801 
L 241.349634 206.256882 
L 242.560373 201.420132 
L 244.047805 196.665567 
L 245.809127 191.980071 
L 247.830108 187.420403 
L 250.113535 182.972109 
L 252.618038 178.717377 
L 255.241905 174.711587 
L 259.254253 169.05932 
L 265.622248 160.241803 
L 267.911725 156.808881 
L 269.983997 153.392177 
L 271.801988 149.970737 
L 273.323049 146.542857 
L 274.539241 143.0392 
L 275.430274 139.445096 
L 275.965032 135.83634 
L 276.127877 132.307264 
L 275.906967 128.908371 
L 275.271103 125.555914 
L 274.188846 122.081001 
L 272.711859 118.488501 
L 270.906681 114.788136 
L 267.785339 109.072073 
L 263.41611 101.548369 
L 258.861766 94.140365 
L 254.169436 86.969947 
L 251.822879 83.748992 
L 249.43721 80.878343 
L 246.996647 78.420222 
L 244.431789 76.371047 
L 241.544362 74.633312 
L 238.380331 73.23565 
L 235.010263 72.204997 
L 231.525382 71.565493 
L 227.994443 71.333165 
L 224.474373 71.507633 
L 221.017216 72.08162 
L 217.664294 73.045501 
L 214.487807 74.374854 
L 211.496579 76.075459 
L 208.685273 78.158101 
L 206.098736 80.583107 
L 203.777796 83.295527 
L 201.76515 86.239449 
L 200.090038 89.36706 
L 198.737913 92.69996 
L 197.690049 96.235391 
L 196.929939 99.974508 
L 196.446089 103.854187 
L 196.219138 107.824103 
L 196.252887 111.734612 
L 196.563282 115.506774 
L 197.168768 119.097922 
L 198.078882 122.461513 
L 199.327545 125.618433 
L 200.989636 128.720131 
L 203.05073 131.776775 
L 205.477989 134.782563 
L 208.222905 137.724823 
L 211.229572 140.589519 
L 214.436178 143.373976 
L 219.481094 147.387861 
L 226.33539 152.468357 
L 226.33539 152.468357 
" style="fill:none;stroke:#ffffff;stroke-linecap:square;"/>
   </g>
   <g id="line2d_17">
    <path clip-path="url(#p843f0c9475)" d="M 253.516292 295.488 
L 253.745682 288.453745 
L 253.735809 281.530496 
L 253.363543 257.293927 
L 253.598342 251.005221 
L 254.120772 244.66238 
L 255.13131 235.939724 
L 257.894354 214.253116 
L 258.655717 210.300854 
L 259.604311 206.455841 
L 260.782722 202.648607 
L 262.167095 198.927811 
L 263.771661 195.276682 
L 265.566974 191.749662 
L 267.585519 188.300107 
L 269.844588 184.841536 
L 273.589843 179.563847 
L 280.333354 170.213642 
L 283.01123 166.182203 
L 285.56864 161.934608 
L 287.927137 157.442937 
L 290.009407 152.66002 
L 290.912578 150.170774 
L 291.712313 147.615206 
L 292.392272 145.027274 
L 292.958398 142.380927 
L 293.396238 139.699638 
L 293.698802 137.005791 
L 293.866381 134.260377 
L 293.882516 131.515431 
L 293.742884 128.742791 
L 293.436965 125.98375 
L 292.964441 123.252771 
L 292.340031 120.60557 
L 291.589011 118.054178 
L 289.78711 113.197932 
L 287.70968 108.642025 
L 285.488619 104.35208 
L 280.959625 96.31138 
L 276.270919 88.471074 
L 271.350372 80.694221 
L 268.646647 76.661476 
L 265.652632 72.586907 
L 262.26675 68.57968 
L 260.393279 66.642823 
L 258.375935 64.768627 
L 256.211351 62.988856 
L 253.920739 61.343937 
L 251.542971 59.86355 
L 249.077222 58.53641 
L 246.530426 57.36306 
L 243.932707 56.352956 
L 241.272195 55.494012 
L 238.57214 54.793298 
L 235.833801 54.247993 
L 233.064243 53.859954 
L 230.271272 53.632418 
L 227.491328 53.568 
L 224.694855 53.662564 
L 221.934201 53.917814 
L 219.172053 54.332309 
L 216.460784 54.903345 
L 213.777031 55.630888 
L 211.145272 56.512003 
L 208.551136 57.552232 
L 206.026545 58.745994 
L 203.576416 60.090895 
L 201.211295 61.581766 
L 198.957869 63.199035 
L 196.798166 64.94633 
L 194.752608 66.80566 
L 192.822285 68.768283 
L 191.006379 70.828103 
L 189.300586 72.987055 
L 187.725409 75.220637 
L 186.265903 77.543039 
L 184.942868 79.926942 
L 183.755641 82.364084 
L 182.70611 84.841318 
L 181.793234 87.339728 
L 181.004124 89.865113 
L 180.335205 92.406084 
L 179.331416 97.495351 
L 178.717827 102.604006 
L 178.447154 107.720173 
L 178.520039 112.917962 
L 178.991624 118.169678 
L 179.398508 120.793886 
L 179.932328 123.42913 
L 180.60125 126.041564 
L 181.417029 128.64511 
L 182.387576 131.214618 
L 183.496227 133.694544 
L 184.728751 136.082895 
L 186.072827 138.381551 
L 187.515618 140.591893 
L 190.648176 144.75878 
L 194.038628 148.616006 
L 197.618989 152.204538 
L 201.304319 155.535686 
L 205.042507 158.65286 
L 210.588158 162.945539 
L 215.861152 166.826092 
L 215.861152 166.826092 
" style="fill:none;stroke:#ffffff;stroke-linecap:square;"/>
   </g>
   <g id="patch_3">
    <path d="M 57.6 307.584 
L 57.6 41.472 
" style="fill:none;stroke:#000000;stroke-linecap:square;stroke-linejoin:miter;stroke-width:0.8;"/>
   </g>
   <g id="patch_4">
    <path d="M 414.72 307.584 
L 414.72 41.472 
" style="fill:none;stroke:#000000;stroke-linecap:square;stroke-linejoin:miter;stroke-width:0.8;"/>
   </g>
   <g id="patch_5">
    <path d="M 57.6 307.584 
L 414.72 307.584 
" style="fill:none;stroke:#000000;stroke-linecap:square;stroke-linejoin:miter;stroke-width:0.8;"/>
   </g>
   <g id="patch_6">
    <path d="M 57.6 41.472 
L 414.72 41.472 
" style="fill:none;stroke:#000000;stroke-linecap:square;stroke-linejoin:miter;stroke-width:0.8;"/>
   </g>
  </g>
 </g>
 <defs>
  <clipPath id="p843f0c9475">
   <rect height="266.112" width="357.12" x="57.6" y="41.472"/>
  </clipPath>
 </defs>
</svg>
