<?xml version="1.0" encoding="utf-8" standalone="no"?>
<!DOCTYPE svg PUBLIC "-//W3C//DTD SVG 1.1//EN"
  "http://www.w3.org/Graphics/SVG/1.1/DTD/svg11.dtd">
<!-- Created with matplotlib (https://matplotlib.org/) -->
<svg height="345.6pt" version="1.1" viewBox="0 0 460.8 345.6" width="460.8pt" xmlns="http://www.w3.org/2000/svg" xmlns:xlink="http://www.w3.org/1999/xlink">
 <metadata>
  <rdf:RDF xmlns:cc="http://creativecommons.org/ns#" xmlns:dc="http://purl.org/dc/elements/1.1/" xmlns:rdf="http://www.w3.org/1999/02/22-rdf-syntax-ns#">
   <cc:Work>
    <dc:type rdf:resource="http://purl.org/dc/dcmitype/StillImage"/>
    <dc:date>2021-01-25T11:10:09.465018</dc:date>
    <dc:format>image/svg+xml</dc:format>
    <dc:creator>
     <cc:Agent>
      <dc:title>Matplotlib v3.3.3, https://matplotlib.org/</dc:title>
     </cc:Agent>
    </dc:creator>
   </cc:Work>
  </rdf:RDF>
 </metadata>
 <defs>
  <style type="text/css">*{stroke-linecap:butt;stroke-linejoin:round;}</style>
 </defs>
 <g id="figure_1">
  <g id="patch_1">
   <path d="M 0 345.6 
L 460.8 345.6 
L 460.8 0 
L 0 0 
z
" style="fill:#ffffff;"/>
  </g>
  <g id="axes_1">
   <g id="patch_2">
    <path d="M 57.6 307.584 
L 414.72 307.584 
L 414.72 41.472 
L 57.6 41.472 
z
" style="fill:#7d9051;"/>
   </g>
   <g id="matplotlib.axis_1">
    <g id="xtick_1">
     <g id="line2d_1">
      <defs>
       <path d="M 0 0 
L 0 3.5 
" id="mfa162315b2" style="stroke:#000000;stroke-width:0.8;"/>
      </defs>
      <g>
       <use style="stroke:#000000;stroke-width:0.8;" x="89.870613" xlink:href="#mfa162315b2" y="307.584"/>
      </g>
     </g>
     <g id="text_1">
      <!-- 0 -->
      <g transform="translate(86.689363 322.182437)scale(0.1 -0.1)">
       <defs>
        <path d="M 31.78125 66.40625 
Q 24.171875 66.40625 20.328125 58.90625 
Q 16.5 51.421875 16.5 36.375 
Q 16.5 21.390625 20.328125 13.890625 
Q 24.171875 6.390625 31.78125 6.390625 
Q 39.453125 6.390625 43.28125 13.890625 
Q 47.125 21.390625 47.125 36.375 
Q 47.125 51.421875 43.28125 58.90625 
Q 39.453125 66.40625 31.78125 66.40625 
z
M 31.78125 74.21875 
Q 44.046875 74.21875 50.515625 64.515625 
Q 56.984375 54.828125 56.984375 36.375 
Q 56.984375 17.96875 50.515625 8.265625 
Q 44.046875 -1.421875 31.78125 -1.421875 
Q 19.53125 -1.421875 13.0625 8.265625 
Q 6.59375 17.96875 6.59375 36.375 
Q 6.59375 54.828125 13.0625 64.515625 
Q 19.53125 74.21875 31.78125 74.21875 
z
" id="DejaVuSans-48"/>
       </defs>
       <use xlink:href="#DejaVuSans-48"/>
      </g>
     </g>
    </g>
    <g id="xtick_2">
     <g id="line2d_2">
      <g>
       <use style="stroke:#000000;stroke-width:0.8;" x="159.268931" xlink:href="#mfa162315b2" y="307.584"/>
      </g>
     </g>
     <g id="text_2">
      <!-- 20 -->
      <g transform="translate(152.906431 322.182437)scale(0.1 -0.1)">
       <defs>
        <path d="M 19.1875 8.296875 
L 53.609375 8.296875 
L 53.609375 0 
L 7.328125 0 
L 7.328125 8.296875 
Q 12.9375 14.109375 22.625 23.890625 
Q 32.328125 33.6875 34.8125 36.53125 
Q 39.546875 41.84375 41.421875 45.53125 
Q 43.3125 49.21875 43.3125 52.78125 
Q 43.3125 58.59375 39.234375 62.25 
Q 35.15625 65.921875 28.609375 65.921875 
Q 23.96875 65.921875 18.8125 64.3125 
Q 13.671875 62.703125 7.8125 59.421875 
L 7.8125 69.390625 
Q 13.765625 71.78125 18.9375 73 
Q 24.125 74.21875 28.421875 74.21875 
Q 39.75 74.21875 46.484375 68.546875 
Q 53.21875 62.890625 53.21875 53.421875 
Q 53.21875 48.921875 51.53125 44.890625 
Q 49.859375 40.875 45.40625 35.40625 
Q 44.1875 33.984375 37.640625 27.21875 
Q 31.109375 20.453125 19.1875 8.296875 
z
" id="DejaVuSans-50"/>
       </defs>
       <use xlink:href="#DejaVuSans-50"/>
       <use x="63.623047" xlink:href="#DejaVuSans-48"/>
      </g>
     </g>
    </g>
    <g id="xtick_3">
     <g id="line2d_3">
      <g>
       <use style="stroke:#000000;stroke-width:0.8;" x="228.667248" xlink:href="#mfa162315b2" y="307.584"/>
      </g>
     </g>
     <g id="text_3">
      <!-- 40 -->
      <g transform="translate(222.304748 322.182437)scale(0.1 -0.1)">
       <defs>
        <path d="M 37.796875 64.3125 
L 12.890625 25.390625 
L 37.796875 25.390625 
z
M 35.203125 72.90625 
L 47.609375 72.90625 
L 47.609375 25.390625 
L 58.015625 25.390625 
L 58.015625 17.1875 
L 47.609375 17.1875 
L 47.609375 0 
L 37.796875 0 
L 37.796875 17.1875 
L 4.890625 17.1875 
L 4.890625 26.703125 
z
" id="DejaVuSans-52"/>
       </defs>
       <use xlink:href="#DejaVuSans-52"/>
       <use x="63.623047" xlink:href="#DejaVuSans-48"/>
      </g>
     </g>
    </g>
    <g id="xtick_4">
     <g id="line2d_4">
      <g>
       <use style="stroke:#000000;stroke-width:0.8;" x="298.065566" xlink:href="#mfa162315b2" y="307.584"/>
      </g>
     </g>
     <g id="text_4">
      <!-- 60 -->
      <g transform="translate(291.703066 322.182437)scale(0.1 -0.1)">
       <defs>
        <path d="M 33.015625 40.375 
Q 26.375 40.375 22.484375 35.828125 
Q 18.609375 31.296875 18.609375 23.390625 
Q 18.609375 15.53125 22.484375 10.953125 
Q 26.375 6.390625 33.015625 6.390625 
Q 39.65625 6.390625 43.53125 10.953125 
Q 47.40625 15.53125 47.40625 23.390625 
Q 47.40625 31.296875 43.53125 35.828125 
Q 39.65625 40.375 33.015625 40.375 
z
M 52.59375 71.296875 
L 52.59375 62.3125 
Q 48.875 64.0625 45.09375 64.984375 
Q 41.3125 65.921875 37.59375 65.921875 
Q 27.828125 65.921875 22.671875 59.328125 
Q 17.53125 52.734375 16.796875 39.40625 
Q 19.671875 43.65625 24.015625 45.921875 
Q 28.375 48.1875 33.59375 48.1875 
Q 44.578125 48.1875 50.953125 41.515625 
Q 57.328125 34.859375 57.328125 23.390625 
Q 57.328125 12.15625 50.6875 5.359375 
Q 44.046875 -1.421875 33.015625 -1.421875 
Q 20.359375 -1.421875 13.671875 8.265625 
Q 6.984375 17.96875 6.984375 36.375 
Q 6.984375 53.65625 15.1875 63.9375 
Q 23.390625 74.21875 37.203125 74.21875 
Q 40.921875 74.21875 44.703125 73.484375 
Q 48.484375 72.75 52.59375 71.296875 
z
" id="DejaVuSans-54"/>
       </defs>
       <use xlink:href="#DejaVuSans-54"/>
       <use x="63.623047" xlink:href="#DejaVuSans-48"/>
      </g>
     </g>
    </g>
    <g id="xtick_5">
     <g id="line2d_5">
      <g>
       <use style="stroke:#000000;stroke-width:0.8;" x="367.463884" xlink:href="#mfa162315b2" y="307.584"/>
      </g>
     </g>
     <g id="text_5">
      <!-- 80 -->
      <g transform="translate(361.101384 322.182437)scale(0.1 -0.1)">
       <defs>
        <path d="M 31.78125 34.625 
Q 24.75 34.625 20.71875 30.859375 
Q 16.703125 27.09375 16.703125 20.515625 
Q 16.703125 13.921875 20.71875 10.15625 
Q 24.75 6.390625 31.78125 6.390625 
Q 38.8125 6.390625 42.859375 10.171875 
Q 46.921875 13.96875 46.921875 20.515625 
Q 46.921875 27.09375 42.890625 30.859375 
Q 38.875 34.625 31.78125 34.625 
z
M 21.921875 38.8125 
Q 15.578125 40.375 12.03125 44.71875 
Q 8.5 49.078125 8.5 55.328125 
Q 8.5 64.0625 14.71875 69.140625 
Q 20.953125 74.21875 31.78125 74.21875 
Q 42.671875 74.21875 48.875 69.140625 
Q 55.078125 64.0625 55.078125 55.328125 
Q 55.078125 49.078125 51.53125 44.71875 
Q 48 40.375 41.703125 38.8125 
Q 48.828125 37.15625 52.796875 32.3125 
Q 56.78125 27.484375 56.78125 20.515625 
Q 56.78125 9.90625 50.3125 4.234375 
Q 43.84375 -1.421875 31.78125 -1.421875 
Q 19.734375 -1.421875 13.25 4.234375 
Q 6.78125 9.90625 6.78125 20.515625 
Q 6.78125 27.484375 10.78125 32.3125 
Q 14.796875 37.15625 21.921875 38.8125 
z
M 18.3125 54.390625 
Q 18.3125 48.734375 21.84375 45.5625 
Q 25.390625 42.390625 31.78125 42.390625 
Q 38.140625 42.390625 41.71875 45.5625 
Q 45.3125 48.734375 45.3125 54.390625 
Q 45.3125 60.0625 41.71875 63.234375 
Q 38.140625 66.40625 31.78125 66.40625 
Q 25.390625 66.40625 21.84375 63.234375 
Q 18.3125 60.0625 18.3125 54.390625 
z
" id="DejaVuSans-56"/>
       </defs>
       <use xlink:href="#DejaVuSans-56"/>
       <use x="63.623047" xlink:href="#DejaVuSans-48"/>
      </g>
     </g>
    </g>
   </g>
   <g id="matplotlib.axis_2">
    <g id="ytick_1">
     <g id="line2d_6">
      <defs>
       <path d="M 0 0 
L -3.5 0 
" id="mdeb815c5a9" style="stroke:#000000;stroke-width:0.8;"/>
      </defs>
      <g>
       <use style="stroke:#000000;stroke-width:0.8;" x="57.6" xlink:href="#mdeb815c5a9" y="279.771707"/>
      </g>
     </g>
     <g id="text_6">
      <!-- 10 -->
      <g transform="translate(37.875 283.570926)scale(0.1 -0.1)">
       <defs>
        <path d="M 12.40625 8.296875 
L 28.515625 8.296875 
L 28.515625 63.921875 
L 10.984375 60.40625 
L 10.984375 69.390625 
L 28.421875 72.90625 
L 38.28125 72.90625 
L 38.28125 8.296875 
L 54.390625 8.296875 
L 54.390625 0 
L 12.40625 0 
z
" id="DejaVuSans-49"/>
       </defs>
       <use xlink:href="#DejaVuSans-49"/>
       <use x="63.623047" xlink:href="#DejaVuSans-48"/>
      </g>
     </g>
    </g>
    <g id="ytick_2">
     <g id="line2d_7">
      <g>
       <use style="stroke:#000000;stroke-width:0.8;" x="57.6" xlink:href="#mdeb815c5a9" y="245.072548"/>
      </g>
     </g>
     <g id="text_7">
      <!-- 20 -->
      <g transform="translate(37.875 248.871767)scale(0.1 -0.1)">
       <use xlink:href="#DejaVuSans-50"/>
       <use x="63.623047" xlink:href="#DejaVuSans-48"/>
      </g>
     </g>
    </g>
    <g id="ytick_3">
     <g id="line2d_8">
      <g>
       <use style="stroke:#000000;stroke-width:0.8;" x="57.6" xlink:href="#mdeb815c5a9" y="210.373389"/>
      </g>
     </g>
     <g id="text_8">
      <!-- 30 -->
      <g transform="translate(37.875 214.172608)scale(0.1 -0.1)">
       <defs>
        <path d="M 40.578125 39.3125 
Q 47.65625 37.796875 51.625 33 
Q 55.609375 28.21875 55.609375 21.1875 
Q 55.609375 10.40625 48.1875 4.484375 
Q 40.765625 -1.421875 27.09375 -1.421875 
Q 22.515625 -1.421875 17.65625 -0.515625 
Q 12.796875 0.390625 7.625 2.203125 
L 7.625 11.71875 
Q 11.71875 9.328125 16.59375 8.109375 
Q 21.484375 6.890625 26.8125 6.890625 
Q 36.078125 6.890625 40.9375 10.546875 
Q 45.796875 14.203125 45.796875 21.1875 
Q 45.796875 27.640625 41.28125 31.265625 
Q 36.765625 34.90625 28.71875 34.90625 
L 20.21875 34.90625 
L 20.21875 43.015625 
L 29.109375 43.015625 
Q 36.375 43.015625 40.234375 45.921875 
Q 44.09375 48.828125 44.09375 54.296875 
Q 44.09375 59.90625 40.109375 62.90625 
Q 36.140625 65.921875 28.71875 65.921875 
Q 24.65625 65.921875 20.015625 65.03125 
Q 15.375 64.15625 9.8125 62.3125 
L 9.8125 71.09375 
Q 15.4375 72.65625 20.34375 73.4375 
Q 25.25 74.21875 29.59375 74.21875 
Q 40.828125 74.21875 47.359375 69.109375 
Q 53.90625 64.015625 53.90625 55.328125 
Q 53.90625 49.265625 50.4375 45.09375 
Q 46.96875 40.921875 40.578125 39.3125 
z
" id="DejaVuSans-51"/>
       </defs>
       <use xlink:href="#DejaVuSans-51"/>
       <use x="63.623047" xlink:href="#DejaVuSans-48"/>
      </g>
     </g>
    </g>
    <g id="ytick_4">
     <g id="line2d_9">
      <g>
       <use style="stroke:#000000;stroke-width:0.8;" x="57.6" xlink:href="#mdeb815c5a9" y="175.67423"/>
      </g>
     </g>
     <g id="text_9">
      <!-- 40 -->
      <g transform="translate(37.875 179.473449)scale(0.1 -0.1)">
       <use xlink:href="#DejaVuSans-52"/>
       <use x="63.623047" xlink:href="#DejaVuSans-48"/>
      </g>
     </g>
    </g>
    <g id="ytick_5">
     <g id="line2d_10">
      <g>
       <use style="stroke:#000000;stroke-width:0.8;" x="57.6" xlink:href="#mdeb815c5a9" y="140.975071"/>
      </g>
     </g>
     <g id="text_10">
      <!-- 50 -->
      <g transform="translate(37.875 144.77429)scale(0.1 -0.1)">
       <defs>
        <path d="M 10.796875 72.90625 
L 49.515625 72.90625 
L 49.515625 64.59375 
L 19.828125 64.59375 
L 19.828125 46.734375 
Q 21.96875 47.46875 24.109375 47.828125 
Q 26.265625 48.1875 28.421875 48.1875 
Q 40.625 48.1875 47.75 41.5 
Q 54.890625 34.8125 54.890625 23.390625 
Q 54.890625 11.625 47.5625 5.09375 
Q 40.234375 -1.421875 26.90625 -1.421875 
Q 22.3125 -1.421875 17.546875 -0.640625 
Q 12.796875 0.140625 7.71875 1.703125 
L 7.71875 11.625 
Q 12.109375 9.234375 16.796875 8.0625 
Q 21.484375 6.890625 26.703125 6.890625 
Q 35.15625 6.890625 40.078125 11.328125 
Q 45.015625 15.765625 45.015625 23.390625 
Q 45.015625 31 40.078125 35.4375 
Q 35.15625 39.890625 26.703125 39.890625 
Q 22.75 39.890625 18.8125 39.015625 
Q 14.890625 38.140625 10.796875 36.28125 
z
" id="DejaVuSans-53"/>
       </defs>
       <use xlink:href="#DejaVuSans-53"/>
       <use x="63.623047" xlink:href="#DejaVuSans-48"/>
      </g>
     </g>
    </g>
    <g id="ytick_6">
     <g id="line2d_11">
      <g>
       <use style="stroke:#000000;stroke-width:0.8;" x="57.6" xlink:href="#mdeb815c5a9" y="106.275912"/>
      </g>
     </g>
     <g id="text_11">
      <!-- 60 -->
      <g transform="translate(37.875 110.075131)scale(0.1 -0.1)">
       <use xlink:href="#DejaVuSans-54"/>
       <use x="63.623047" xlink:href="#DejaVuSans-48"/>
      </g>
     </g>
    </g>
    <g id="ytick_7">
     <g id="line2d_12">
      <g>
       <use style="stroke:#000000;stroke-width:0.8;" x="57.6" xlink:href="#mdeb815c5a9" y="71.576753"/>
      </g>
     </g>
     <g id="text_12">
      <!-- 70 -->
      <g transform="translate(37.875 75.375972)scale(0.1 -0.1)">
       <defs>
        <path d="M 8.203125 72.90625 
L 55.078125 72.90625 
L 55.078125 68.703125 
L 28.609375 0 
L 18.3125 0 
L 43.21875 64.59375 
L 8.203125 64.59375 
z
" id="DejaVuSans-55"/>
       </defs>
       <use xlink:href="#DejaVuSans-55"/>
       <use x="63.623047" xlink:href="#DejaVuSans-48"/>
      </g>
     </g>
    </g>
   </g>
   <g id="line2d_13">
    <path clip-path="url(#pc815d21b20)" d="M 233.362045 168.002246 
L 231.522989 170.941265 
L 229.808851 173.967031 
L 228.223099 177.069136 
L 226.762265 180.244109 
L 225.433287 183.478071 
L 224.239636 186.771021 
L 223.181311 190.11255 
L 222.261784 193.495718 
L 221.487992 196.917055 
L 220.852998 200.369621 
L 220.37068 203.839537 
L 220.034098 207.330273 
L 219.853662 210.827948 
L 219.825903 214.329093 
L 219.95776 217.823298 
L 220.249233 221.307094 
L 220.707261 224.77354 
L 221.328376 228.215696 
L 222.119517 231.623154 
L 223.080684 234.995912 
L 224.215346 238.320092 
L 225.523505 241.588752 
L 226.994749 244.791485 
L 228.629079 247.910939 
L 230.419556 250.940176 
L 232.369649 253.868785 
L 234.465478 256.682886 
L 236.710514 259.372071 
L 239.097816 261.922459 
L 241.620444 264.327111 
L 244.2784 266.572147 
L 247.064743 268.661036 
L 249.962122 270.590309 
L 252.967069 272.363436 
L 256.069174 273.980417 
L 259.258027 275.444722 
L 262.523218 276.75635 
L 265.857807 277.911832 
L 269.251385 278.918107 
L 272.693541 279.771707 
L 276.173867 280.4761 
L 279.681952 281.020877 
L 283.207386 281.399097 
L 286.739761 281.603822 
L 290.261725 281.624642 
L 293.766341 281.454616 
L 297.243196 281.083335 
L 300.678413 280.503859 
L 304.058111 279.709248 
L 307.375351 278.689093 
L 310.616252 277.439923 
L 313.773876 275.972149 
L 316.841281 274.29618 
L 319.808059 272.422425 
L 322.66727 270.368235 
L 325.411973 268.140549 
L 328.03176 265.756717 
L 330.51969 263.230618 
L 332.868823 260.569192 
L 335.072219 257.78979 
L 337.12294 254.89935 
L 339.014044 251.915222 
L 340.738592 248.837407 
L 342.300054 245.683253 
L 343.68802 242.452761 
L 344.902491 239.163281 
L 345.933056 235.818282 
L 346.783185 232.431644 
L 347.445939 229.006837 
L 347.917848 225.554271 
L 348.191971 222.084355 
L 348.282189 218.604029 
L 348.191971 215.116764 
L 347.935197 211.636438 
L 347.515338 208.163053 
L 346.942802 204.703546 
L 346.231469 201.26833 
L 345.384809 197.860872 
L 344.413233 194.488114 
L 343.323679 191.160465 
L 342.130028 187.877924 
L 339.444313 181.45511 
L 336.408137 175.205791 
L 333.073548 169.109149 
L 329.496064 163.147834 
L 325.720796 157.307965 
L 321.782441 151.579134 
L 317.687941 145.96828 
L 313.444234 140.468463 
L 309.06173 135.090094 
L 304.550839 129.829701 
L 297.579778 122.119548 
L 285.671027 109.485584 
L 273.658178 96.855091 
L 268.675379 92.004148 
L 263.473975 87.423859 
L 260.76397 85.269041 
L 257.967218 83.221791 
L 255.076778 81.292518 
L 252.09959 79.488162 
L 249.039125 77.808722 
L 245.909261 76.25073 
L 242.713468 74.817655 
L 239.462157 73.516436 
L 236.165737 72.340135 
L 232.824208 71.29222 
L 229.451449 70.376162 
L 226.054402 69.591961 
L 222.640005 68.939617 
L 219.211728 68.41219 
L 215.769571 68.00621 
L 208.847089 67.530831 
L 201.886438 67.461433 
L 194.894557 67.749436 
L 187.888797 68.346262 
L 180.907326 69.283139 
L 177.45129 69.911194 
L 174.029953 70.664165 
L 170.657195 71.552464 
L 167.339955 72.593439 
L 164.085174 73.797499 
L 160.906731 75.178526 
L 157.811566 76.753868 
L 154.813559 78.523525 
L 151.919649 80.487497 
L 149.136776 82.631905 
L 146.475351 84.939399 
L 143.942312 87.39957 
L 141.55154 90.002007 
L 139.306505 92.732831 
L 137.217615 95.578162 
L 135.298752 98.52412 
L 133.549914 101.560297 
L 131.984982 104.672811 
L 130.593546 107.858194 
L 129.365195 111.106035 
L 128.296461 114.412865 
L 127.369994 117.768274 
L 126.578853 121.168791 
L 125.916099 124.607478 
L 124.934113 131.571599 
L 124.347697 138.608589 
L 124.080514 145.666397 
L 124.056224 152.692977 
L 124.312998 163.061086 
L 124.569772 169.782313 
L 124.569772 169.782313 
" style="fill:none;stroke:#fea952;stroke-linecap:square;"/>
   </g>
   <g id="line2d_14">
    <path clip-path="url(#pc815d21b20)" d="M 245.128072 175.364695 
L 243.599396 177.782716 
L 242.167411 180.284551 
L 240.832118 182.870663 
L 239.600191 185.519781 
L 238.482114 188.208099 
L 237.471507 190.961801 
L 236.575074 193.752906 
L 235.799529 196.5575 
L 235.138699 199.427688 
L 234.600489 202.280523 
L 234.186269 205.171657 
L 233.895329 208.045336 
L 233.732889 210.937991 
L 233.695695 213.805705 
L 233.789099 216.666095 
L 234.009298 219.488947 
L 234.366337 222.308848 
L 234.848409 225.076626 
L 235.467734 227.819187 
L 236.216213 230.512282 
L 237.101347 233.162955 
L 238.136054 235.794905 
L 239.289257 238.350202 
L 240.577632 240.848564 
L 241.972344 243.247442 
L 243.501318 245.578368 
L 245.120238 247.78788 
L 246.84355 249.886997 
L 248.674482 251.875942 
L 250.576594 253.723694 
L 252.603985 255.466757 
L 254.757408 257.108203 
L 257.015672 258.636544 
L 259.382625 260.055483 
L 261.861179 261.367022 
L 264.431678 262.565343 
L 267.067621 263.641722 
L 269.803637 264.604861 
L 272.592129 265.44649 
L 275.44686 266.167873 
L 278.303736 266.760827 
L 281.162514 267.220406 
L 284.010459 267.542686 
L 286.821807 267.724401 
L 289.589147 267.761284 
L 292.29256 267.653419 
L 294.934496 267.397029 
L 297.501744 266.992611 
L 299.978249 266.442757 
L 302.383551 265.738147 
L 304.76568 264.853587 
L 307.118882 263.791996 
L 309.429638 262.561078 
L 311.709642 261.150304 
L 313.9205 259.591451 
L 316.070765 257.874737 
L 318.14293 256.017306 
L 320.113776 254.045737 
L 321.992315 251.946742 
L 323.75222 249.758434 
L 325.399189 247.469764 
L 326.905584 245.130662 
L 328.29971 242.679544 
L 329.547595 240.204216 
L 330.66742 237.645578 
L 331.638088 235.076634 
L 332.471056 232.438989 
L 333.156328 229.794633 
L 333.694139 227.127194 
L 334.081294 224.461183 
L 334.316969 221.724684 
L 334.407168 218.962985 
L 334.34993 216.138011 
L 334.155839 213.302075 
L 333.821932 210.429263 
L 333.351466 207.517914 
L 332.76139 204.615274 
L 332.047497 201.702897 
L 331.222632 198.807039 
L 329.248811 193.046996 
L 326.88385 187.361023 
L 324.158691 181.732363 
L 321.108767 176.143997 
L 317.784047 170.595901 
L 314.232262 165.096332 
L 310.516253 159.685801 
L 306.639347 154.369093 
L 302.625033 149.162712 
L 298.467767 144.057424 
L 294.170152 139.043082 
L 287.424203 131.580487 
L 275.577262 119.012439 
L 263.871498 106.697141 
L 259.344437 102.279292 
L 254.835687 98.287793 
L 252.565683 96.468735 
L 250.261771 94.766103 
L 247.882925 93.162376 
L 245.422374 91.656146 
L 242.854001 90.234071 
L 240.230123 88.915344 
L 237.556319 87.70365 
L 234.797408 86.588742 
L 232.01247 85.583829 
L 229.186221 84.686626 
L 226.329466 83.900152 
L 223.449709 83.225033 
L 217.585979 82.196311 
L 211.57821 81.574909 
L 205.42553 81.327107 
L 199.134721 81.42185 
L 192.720304 81.825773 
L 186.428637 82.495418 
L 180.434548 83.466459 
L 177.564953 84.086119 
L 174.812923 84.795386 
L 172.155589 85.610916 
L 169.616309 86.527449 
L 167.202497 87.548182 
L 164.866964 88.706542 
L 162.607683 90.008153 
L 160.391501 91.481713 
L 158.229074 93.118811 
L 156.145499 94.89597 
L 154.163575 96.789503 
L 152.27314 98.816333 
L 150.494795 100.946673 
L 148.847727 103.153488 
L 147.325919 105.451768 
L 145.950407 107.795104 
L 144.704115 110.228772 
L 143.575749 112.76813 
L 142.572238 115.374418 
L 141.675498 118.106973 
L 140.888614 120.913422 
L 140.207692 123.79554 
L 139.143595 129.800637 
L 138.442473 136.064292 
L 138.055165 142.533114 
L 137.921899 149.133394 
L 137.990506 155.831967 
L 138.310794 165.910815 
L 138.439181 169.248874 
L 138.439181 169.248874 
" style="fill:none;stroke:#ffffff;stroke-linecap:square;"/>
   </g>
   <g id="line2d_15">
    <path clip-path="url(#pc815d21b20)" d="M 221.596017 160.639797 
L 219.446582 164.099814 
L 217.45029 167.649512 
L 215.614081 171.26761 
L 213.924338 174.968438 
L 212.384459 178.748043 
L 211.007764 182.580241 
L 209.787549 186.472194 
L 208.724038 190.433936 
L 207.837286 194.406423 
L 207.105507 198.45872 
L 206.55509 202.507418 
L 206.172866 206.615209 
L 205.974435 210.717905 
L 205.956111 214.852481 
L 206.126421 218.980502 
L 206.489167 223.125241 
L 207.048186 227.238232 
L 207.808343 231.354767 
L 208.7713 235.427121 
L 209.945155 239.479543 
L 211.329346 243.477228 
L 212.910955 247.382599 
L 214.700241 251.232768 
L 216.680526 254.973314 
L 218.866768 258.632909 
L 221.23798 262.159201 
L 223.810717 265.577893 
L 226.577477 268.857145 
L 229.521149 271.968977 
L 232.664295 274.930528 
L 235.952815 277.677537 
L 239.372077 280.21387 
L 242.908573 282.544074 
L 246.551514 284.67139 
L 250.277169 286.593812 
L 254.084376 288.324101 
L 257.978815 289.870978 
L 261.911977 291.218803 
L 265.910641 292.389725 
L 269.940223 293.375541 
L 274.043998 294.191373 
L 278.20139 294.821347 
L 282.404313 295.255509 
L 286.657715 295.483243 
L 290.934304 295.488 
L 295.240121 295.255813 
L 299.551896 294.769641 
L 303.855082 294.015107 
L 308.137973 292.975739 
L 312.36715 291.640039 
L 316.466824 290.02626 
L 320.428869 288.152302 
L 324.252924 286.031281 
L 327.906476 283.694546 
L 331.41404 281.145019 
L 334.753182 278.40636 
L 337.920589 275.496127 
L 340.925603 272.415498 
L 343.74533 269.191642 
L 346.392218 265.821146 
L 348.84669 262.328935 
L 351.122504 258.699782 
L 353.177474 254.995269 
L 355.052513 251.16229 
L 356.708621 247.259945 
L 358.166894 243.249928 
L 359.395056 239.197575 
L 360.410043 235.068655 
L 361.197739 230.88648 
L 361.754402 226.647359 
L 362.066974 222.444026 
L 362.15721 218.245074 
L 362.034013 214.095517 
L 361.714556 209.970802 
L 361.208743 205.896842 
L 360.534137 201.889179 
L 359.701548 197.921385 
L 358.722122 194.018848 
L 357.603834 190.169189 
L 356.367696 186.417186 
L 355.011245 182.708852 
L 353.558701 179.104715 
L 350.37215 172.087564 
L 346.877271 165.344918 
L 343.147238 158.862382 
L 339.228742 152.590157 
L 335.156963 146.494268 
L 330.90933 140.501513 
L 326.513427 134.645988 
L 321.972163 128.924981 
L 317.301791 123.34364 
L 312.539257 117.921983 
L 305.331672 110.078635 
L 286.028603 89.660742 
L 280.767055 84.354695 
L 275.119773 79.116488 
L 272.112262 76.559926 
L 268.962258 74.069347 
L 265.672666 71.677479 
L 262.270632 69.42266 
L 258.776806 67.320177 
L 255.224249 65.383373 
L 251.588398 63.586116 
L 247.870617 61.931659 
L 244.126906 60.444131 
L 240.319003 59.096441 
L 236.462195 57.897814 
L 232.573433 56.852173 
L 228.659094 55.95889 
L 224.750507 55.221351 
L 220.837476 54.628069 
L 216.936004 54.175646 
L 213.048859 53.854565 
L 209.179441 53.655148 
L 201.486891 53.587521 
L 193.865706 53.907958 
L 186.234562 54.56553 
L 182.353607 55.036825 
L 178.425663 55.627136 
L 174.468032 56.355928 
L 170.494953 57.242212 
L 166.501466 58.309542 
L 162.524321 59.575961 
L 158.554039 61.06755 
L 154.610964 62.80887 
L 150.756168 64.801194 
L 147.019434 67.038897 
L 143.447797 69.493281 
L 140.044479 72.145 
L 136.805202 74.982829 
L 133.721049 78.009636 
L 130.82994 81.18768 
L 128.118214 84.518988 
L 125.587503 88.002836 
L 123.271585 91.596472 
L 121.149421 95.325489 
L 119.265849 99.11685 
L 117.611343 102.948258 
L 116.158153 106.837652 
L 114.917425 110.718757 
L 113.851373 114.623125 
L 112.950014 118.542042 
L 112.204397 122.454741 
L 111.59905 126.35415 
L 110.752589 134.102016 
L 110.307117 141.741872 
L 110.16279 149.243331 
L 110.239919 156.528518 
L 110.571976 166.977693 
L 110.700363 170.315752 
L 110.700363 170.315752 
" style="fill:none;stroke:#ffffff;stroke-linecap:square;"/>
   </g>
   <g id="patch_3">
    <path d="M 57.6 307.584 
L 57.6 41.472 
" style="fill:none;stroke:#000000;stroke-linecap:square;stroke-linejoin:miter;stroke-width:0.8;"/>
   </g>
   <g id="patch_4">
    <path d="M 414.72 307.584 
L 414.72 41.472 
" style="fill:none;stroke:#000000;stroke-linecap:square;stroke-linejoin:miter;stroke-width:0.8;"/>
   </g>
   <g id="patch_5">
    <path d="M 57.6 307.584 
L 414.72 307.584 
" style="fill:none;stroke:#000000;stroke-linecap:square;stroke-linejoin:miter;stroke-width:0.8;"/>
   </g>
   <g id="patch_6">
    <path d="M 57.6 41.472 
L 414.72 41.472 
" style="fill:none;stroke:#000000;stroke-linecap:square;stroke-linejoin:miter;stroke-width:0.8;"/>
   </g>
  </g>
 </g>
 <defs>
  <clipPath id="pc815d21b20">
   <rect height="266.112" width="357.12" x="57.6" y="41.472"/>
  </clipPath>
 </defs>
</svg>
