<?xml version="1.0" encoding="utf-8" standalone="no"?>
<!DOCTYPE svg PUBLIC "-//W3C//DTD SVG 1.1//EN"
  "http://www.w3.org/Graphics/SVG/1.1/DTD/svg11.dtd">
<!-- Created with matplotlib (https://matplotlib.org/) -->
<svg height="345.6pt" version="1.1" viewBox="0 0 460.8 345.6" width="460.8pt" xmlns="http://www.w3.org/2000/svg" xmlns:xlink="http://www.w3.org/1999/xlink">
 <metadata>
  <rdf:RDF xmlns:cc="http://creativecommons.org/ns#" xmlns:dc="http://purl.org/dc/elements/1.1/" xmlns:rdf="http://www.w3.org/1999/02/22-rdf-syntax-ns#">
   <cc:Work>
    <dc:type rdf:resource="http://purl.org/dc/dcmitype/StillImage"/>
    <dc:date>2021-01-25T14:20:05.053024</dc:date>
    <dc:format>image/svg+xml</dc:format>
    <dc:creator>
     <cc:Agent>
      <dc:title>Matplotlib v3.3.3, https://matplotlib.org/</dc:title>
     </cc:Agent>
    </dc:creator>
   </cc:Work>
  </rdf:RDF>
 </metadata>
 <defs>
  <style type="text/css">*{stroke-linecap:butt;stroke-linejoin:round;}</style>
 </defs>
 <g id="figure_1">
  <g id="patch_1">
   <path d="M 0 345.6 
L 460.8 345.6 
L 460.8 0 
L 0 0 
z
" style="fill:#ffffff;"/>
  </g>
  <g id="axes_1">
   <g id="patch_2">
    <path d="M 57.6 307.584 
L 414.72 307.584 
L 414.72 41.472 
L 57.6 41.472 
z
" style="fill:#7d9051;"/>
   </g>
   <g id="matplotlib.axis_1">
    <g id="xtick_1">
     <g id="line2d_1">
      <defs>
       <path d="M 0 0 
L 0 3.5 
" id="m98987624c4" style="stroke:#000000;stroke-width:0.8;"/>
      </defs>
      <g>
       <use style="stroke:#000000;stroke-width:0.8;" x="94.036371" xlink:href="#m98987624c4" y="307.584"/>
      </g>
     </g>
     <g id="text_1">
      <!-- 0 -->
      <g transform="translate(90.855121 322.182437)scale(0.1 -0.1)">
       <defs>
        <path d="M 31.78125 66.40625 
Q 24.171875 66.40625 20.328125 58.90625 
Q 16.5 51.421875 16.5 36.375 
Q 16.5 21.390625 20.328125 13.890625 
Q 24.171875 6.390625 31.78125 6.390625 
Q 39.453125 6.390625 43.28125 13.890625 
Q 47.125 21.390625 47.125 36.375 
Q 47.125 51.421875 43.28125 58.90625 
Q 39.453125 66.40625 31.78125 66.40625 
z
M 31.78125 74.21875 
Q 44.046875 74.21875 50.515625 64.515625 
Q 56.984375 54.828125 56.984375 36.375 
Q 56.984375 17.96875 50.515625 8.265625 
Q 44.046875 -1.421875 31.78125 -1.421875 
Q 19.53125 -1.421875 13.0625 8.265625 
Q 6.59375 17.96875 6.59375 36.375 
Q 6.59375 54.828125 13.0625 64.515625 
Q 19.53125 74.21875 31.78125 74.21875 
z
" id="DejaVuSans-48"/>
       </defs>
       <use xlink:href="#DejaVuSans-48"/>
      </g>
     </g>
    </g>
    <g id="xtick_2">
     <g id="line2d_2">
      <g>
       <use style="stroke:#000000;stroke-width:0.8;" x="158.489088" xlink:href="#m98987624c4" y="307.584"/>
      </g>
     </g>
     <g id="text_2">
      <!-- 20 -->
      <g transform="translate(152.126588 322.182437)scale(0.1 -0.1)">
       <defs>
        <path d="M 19.1875 8.296875 
L 53.609375 8.296875 
L 53.609375 0 
L 7.328125 0 
L 7.328125 8.296875 
Q 12.9375 14.109375 22.625 23.890625 
Q 32.328125 33.6875 34.8125 36.53125 
Q 39.546875 41.84375 41.421875 45.53125 
Q 43.3125 49.21875 43.3125 52.78125 
Q 43.3125 58.59375 39.234375 62.25 
Q 35.15625 65.921875 28.609375 65.921875 
Q 23.96875 65.921875 18.8125 64.3125 
Q 13.671875 62.703125 7.8125 59.421875 
L 7.8125 69.390625 
Q 13.765625 71.78125 18.9375 73 
Q 24.125 74.21875 28.421875 74.21875 
Q 39.75 74.21875 46.484375 68.546875 
Q 53.21875 62.890625 53.21875 53.421875 
Q 53.21875 48.921875 51.53125 44.890625 
Q 49.859375 40.875 45.40625 35.40625 
Q 44.1875 33.984375 37.640625 27.21875 
Q 31.109375 20.453125 19.1875 8.296875 
z
" id="DejaVuSans-50"/>
       </defs>
       <use xlink:href="#DejaVuSans-50"/>
       <use x="63.623047" xlink:href="#DejaVuSans-48"/>
      </g>
     </g>
    </g>
    <g id="xtick_3">
     <g id="line2d_3">
      <g>
       <use style="stroke:#000000;stroke-width:0.8;" x="222.941805" xlink:href="#m98987624c4" y="307.584"/>
      </g>
     </g>
     <g id="text_3">
      <!-- 40 -->
      <g transform="translate(216.579305 322.182437)scale(0.1 -0.1)">
       <defs>
        <path d="M 37.796875 64.3125 
L 12.890625 25.390625 
L 37.796875 25.390625 
z
M 35.203125 72.90625 
L 47.609375 72.90625 
L 47.609375 25.390625 
L 58.015625 25.390625 
L 58.015625 17.1875 
L 47.609375 17.1875 
L 47.609375 0 
L 37.796875 0 
L 37.796875 17.1875 
L 4.890625 17.1875 
L 4.890625 26.703125 
z
" id="DejaVuSans-52"/>
       </defs>
       <use xlink:href="#DejaVuSans-52"/>
       <use x="63.623047" xlink:href="#DejaVuSans-48"/>
      </g>
     </g>
    </g>
    <g id="xtick_4">
     <g id="line2d_4">
      <g>
       <use style="stroke:#000000;stroke-width:0.8;" x="287.394522" xlink:href="#m98987624c4" y="307.584"/>
      </g>
     </g>
     <g id="text_4">
      <!-- 60 -->
      <g transform="translate(281.032022 322.182437)scale(0.1 -0.1)">
       <defs>
        <path d="M 33.015625 40.375 
Q 26.375 40.375 22.484375 35.828125 
Q 18.609375 31.296875 18.609375 23.390625 
Q 18.609375 15.53125 22.484375 10.953125 
Q 26.375 6.390625 33.015625 6.390625 
Q 39.65625 6.390625 43.53125 10.953125 
Q 47.40625 15.53125 47.40625 23.390625 
Q 47.40625 31.296875 43.53125 35.828125 
Q 39.65625 40.375 33.015625 40.375 
z
M 52.59375 71.296875 
L 52.59375 62.3125 
Q 48.875 64.0625 45.09375 64.984375 
Q 41.3125 65.921875 37.59375 65.921875 
Q 27.828125 65.921875 22.671875 59.328125 
Q 17.53125 52.734375 16.796875 39.40625 
Q 19.671875 43.65625 24.015625 45.921875 
Q 28.375 48.1875 33.59375 48.1875 
Q 44.578125 48.1875 50.953125 41.515625 
Q 57.328125 34.859375 57.328125 23.390625 
Q 57.328125 12.15625 50.6875 5.359375 
Q 44.046875 -1.421875 33.015625 -1.421875 
Q 20.359375 -1.421875 13.671875 8.265625 
Q 6.984375 17.96875 6.984375 36.375 
Q 6.984375 53.65625 15.1875 63.9375 
Q 23.390625 74.21875 37.203125 74.21875 
Q 40.921875 74.21875 44.703125 73.484375 
Q 48.484375 72.75 52.59375 71.296875 
z
" id="DejaVuSans-54"/>
       </defs>
       <use xlink:href="#DejaVuSans-54"/>
       <use x="63.623047" xlink:href="#DejaVuSans-48"/>
      </g>
     </g>
    </g>
    <g id="xtick_5">
     <g id="line2d_5">
      <g>
       <use style="stroke:#000000;stroke-width:0.8;" x="351.847239" xlink:href="#m98987624c4" y="307.584"/>
      </g>
     </g>
     <g id="text_5">
      <!-- 80 -->
      <g transform="translate(345.484739 322.182437)scale(0.1 -0.1)">
       <defs>
        <path d="M 31.78125 34.625 
Q 24.75 34.625 20.71875 30.859375 
Q 16.703125 27.09375 16.703125 20.515625 
Q 16.703125 13.921875 20.71875 10.15625 
Q 24.75 6.390625 31.78125 6.390625 
Q 38.8125 6.390625 42.859375 10.171875 
Q 46.921875 13.96875 46.921875 20.515625 
Q 46.921875 27.09375 42.890625 30.859375 
Q 38.875 34.625 31.78125 34.625 
z
M 21.921875 38.8125 
Q 15.578125 40.375 12.03125 44.71875 
Q 8.5 49.078125 8.5 55.328125 
Q 8.5 64.0625 14.71875 69.140625 
Q 20.953125 74.21875 31.78125 74.21875 
Q 42.671875 74.21875 48.875 69.140625 
Q 55.078125 64.0625 55.078125 55.328125 
Q 55.078125 49.078125 51.53125 44.71875 
Q 48 40.375 41.703125 38.8125 
Q 48.828125 37.15625 52.796875 32.3125 
Q 56.78125 27.484375 56.78125 20.515625 
Q 56.78125 9.90625 50.3125 4.234375 
Q 43.84375 -1.421875 31.78125 -1.421875 
Q 19.734375 -1.421875 13.25 4.234375 
Q 6.78125 9.90625 6.78125 20.515625 
Q 6.78125 27.484375 10.78125 32.3125 
Q 14.796875 37.15625 21.921875 38.8125 
z
M 18.3125 54.390625 
Q 18.3125 48.734375 21.84375 45.5625 
Q 25.390625 42.390625 31.78125 42.390625 
Q 38.140625 42.390625 41.71875 45.5625 
Q 45.3125 48.734375 45.3125 54.390625 
Q 45.3125 60.0625 41.71875 63.234375 
Q 38.140625 66.40625 31.78125 66.40625 
Q 25.390625 66.40625 21.84375 63.234375 
Q 18.3125 60.0625 18.3125 54.390625 
z
" id="DejaVuSans-56"/>
       </defs>
       <use xlink:href="#DejaVuSans-56"/>
       <use x="63.623047" xlink:href="#DejaVuSans-48"/>
      </g>
     </g>
    </g>
   </g>
   <g id="matplotlib.axis_2">
    <g id="ytick_1">
     <g id="line2d_6">
      <defs>
       <path d="M 0 0 
L -3.5 0 
" id="m301e9a0f00" style="stroke:#000000;stroke-width:0.8;"/>
      </defs>
      <g>
       <use style="stroke:#000000;stroke-width:0.8;" x="57.6" xlink:href="#m301e9a0f00" y="282.136645"/>
      </g>
     </g>
     <g id="text_6">
      <!-- 10 -->
      <g transform="translate(37.875 285.935864)scale(0.1 -0.1)">
       <defs>
        <path d="M 12.40625 8.296875 
L 28.515625 8.296875 
L 28.515625 63.921875 
L 10.984375 60.40625 
L 10.984375 69.390625 
L 28.421875 72.90625 
L 38.28125 72.90625 
L 38.28125 8.296875 
L 54.390625 8.296875 
L 54.390625 0 
L 12.40625 0 
z
" id="DejaVuSans-49"/>
       </defs>
       <use xlink:href="#DejaVuSans-49"/>
       <use x="63.623047" xlink:href="#DejaVuSans-48"/>
      </g>
     </g>
    </g>
    <g id="ytick_2">
     <g id="line2d_7">
      <g>
       <use style="stroke:#000000;stroke-width:0.8;" x="57.6" xlink:href="#m301e9a0f00" y="249.910286"/>
      </g>
     </g>
     <g id="text_7">
      <!-- 20 -->
      <g transform="translate(37.875 253.709505)scale(0.1 -0.1)">
       <use xlink:href="#DejaVuSans-50"/>
       <use x="63.623047" xlink:href="#DejaVuSans-48"/>
      </g>
     </g>
    </g>
    <g id="ytick_3">
     <g id="line2d_8">
      <g>
       <use style="stroke:#000000;stroke-width:0.8;" x="57.6" xlink:href="#m301e9a0f00" y="217.683928"/>
      </g>
     </g>
     <g id="text_8">
      <!-- 30 -->
      <g transform="translate(37.875 221.483147)scale(0.1 -0.1)">
       <defs>
        <path d="M 40.578125 39.3125 
Q 47.65625 37.796875 51.625 33 
Q 55.609375 28.21875 55.609375 21.1875 
Q 55.609375 10.40625 48.1875 4.484375 
Q 40.765625 -1.421875 27.09375 -1.421875 
Q 22.515625 -1.421875 17.65625 -0.515625 
Q 12.796875 0.390625 7.625 2.203125 
L 7.625 11.71875 
Q 11.71875 9.328125 16.59375 8.109375 
Q 21.484375 6.890625 26.8125 6.890625 
Q 36.078125 6.890625 40.9375 10.546875 
Q 45.796875 14.203125 45.796875 21.1875 
Q 45.796875 27.640625 41.28125 31.265625 
Q 36.765625 34.90625 28.71875 34.90625 
L 20.21875 34.90625 
L 20.21875 43.015625 
L 29.109375 43.015625 
Q 36.375 43.015625 40.234375 45.921875 
Q 44.09375 48.828125 44.09375 54.296875 
Q 44.09375 59.90625 40.109375 62.90625 
Q 36.140625 65.921875 28.71875 65.921875 
Q 24.65625 65.921875 20.015625 65.03125 
Q 15.375 64.15625 9.8125 62.3125 
L 9.8125 71.09375 
Q 15.4375 72.65625 20.34375 73.4375 
Q 25.25 74.21875 29.59375 74.21875 
Q 40.828125 74.21875 47.359375 69.109375 
Q 53.90625 64.015625 53.90625 55.328125 
Q 53.90625 49.265625 50.4375 45.09375 
Q 46.96875 40.921875 40.578125 39.3125 
z
" id="DejaVuSans-51"/>
       </defs>
       <use xlink:href="#DejaVuSans-51"/>
       <use x="63.623047" xlink:href="#DejaVuSans-48"/>
      </g>
     </g>
    </g>
    <g id="ytick_4">
     <g id="line2d_9">
      <g>
       <use style="stroke:#000000;stroke-width:0.8;" x="57.6" xlink:href="#m301e9a0f00" y="185.457569"/>
      </g>
     </g>
     <g id="text_9">
      <!-- 40 -->
      <g transform="translate(37.875 189.256788)scale(0.1 -0.1)">
       <use xlink:href="#DejaVuSans-52"/>
       <use x="63.623047" xlink:href="#DejaVuSans-48"/>
      </g>
     </g>
    </g>
    <g id="ytick_5">
     <g id="line2d_10">
      <g>
       <use style="stroke:#000000;stroke-width:0.8;" x="57.6" xlink:href="#m301e9a0f00" y="153.231211"/>
      </g>
     </g>
     <g id="text_10">
      <!-- 50 -->
      <g transform="translate(37.875 157.03043)scale(0.1 -0.1)">
       <defs>
        <path d="M 10.796875 72.90625 
L 49.515625 72.90625 
L 49.515625 64.59375 
L 19.828125 64.59375 
L 19.828125 46.734375 
Q 21.96875 47.46875 24.109375 47.828125 
Q 26.265625 48.1875 28.421875 48.1875 
Q 40.625 48.1875 47.75 41.5 
Q 54.890625 34.8125 54.890625 23.390625 
Q 54.890625 11.625 47.5625 5.09375 
Q 40.234375 -1.421875 26.90625 -1.421875 
Q 22.3125 -1.421875 17.546875 -0.640625 
Q 12.796875 0.140625 7.71875 1.703125 
L 7.71875 11.625 
Q 12.109375 9.234375 16.796875 8.0625 
Q 21.484375 6.890625 26.703125 6.890625 
Q 35.15625 6.890625 40.078125 11.328125 
Q 45.015625 15.765625 45.015625 23.390625 
Q 45.015625 31 40.078125 35.4375 
Q 35.15625 39.890625 26.703125 39.890625 
Q 22.75 39.890625 18.8125 39.015625 
Q 14.890625 38.140625 10.796875 36.28125 
z
" id="DejaVuSans-53"/>
       </defs>
       <use xlink:href="#DejaVuSans-53"/>
       <use x="63.623047" xlink:href="#DejaVuSans-48"/>
      </g>
     </g>
    </g>
    <g id="ytick_6">
     <g id="line2d_11">
      <g>
       <use style="stroke:#000000;stroke-width:0.8;" x="57.6" xlink:href="#m301e9a0f00" y="121.004852"/>
      </g>
     </g>
     <g id="text_11">
      <!-- 60 -->
      <g transform="translate(37.875 124.804071)scale(0.1 -0.1)">
       <use xlink:href="#DejaVuSans-54"/>
       <use x="63.623047" xlink:href="#DejaVuSans-48"/>
      </g>
     </g>
    </g>
    <g id="ytick_7">
     <g id="line2d_12">
      <g>
       <use style="stroke:#000000;stroke-width:0.8;" x="57.6" xlink:href="#m301e9a0f00" y="88.778494"/>
      </g>
     </g>
     <g id="text_12">
      <!-- 70 -->
      <g transform="translate(37.875 92.577713)scale(0.1 -0.1)">
       <defs>
        <path d="M 8.203125 72.90625 
L 55.078125 72.90625 
L 55.078125 68.703125 
L 28.609375 0 
L 18.3125 0 
L 43.21875 64.59375 
L 8.203125 64.59375 
z
" id="DejaVuSans-55"/>
       </defs>
       <use xlink:href="#DejaVuSans-55"/>
       <use x="63.623047" xlink:href="#DejaVuSans-48"/>
      </g>
     </g>
    </g>
    <g id="ytick_8">
     <g id="line2d_13">
      <g>
       <use style="stroke:#000000;stroke-width:0.8;" x="57.6" xlink:href="#m301e9a0f00" y="56.552135"/>
      </g>
     </g>
     <g id="text_13">
      <!-- 80 -->
      <g transform="translate(37.875 60.351354)scale(0.1 -0.1)">
       <use xlink:href="#DejaVuSans-56"/>
       <use x="63.623047" xlink:href="#DejaVuSans-48"/>
      </g>
     </g>
    </g>
   </g>
   <g id="line2d_14">
    <path clip-path="url(#p205610cfd0)" d="M 347.151859 161.352253 
L 347.59336 148.725966 
L 347.667481 142.232355 
L 347.554688 135.680736 
L 347.17764 129.125895 
L 346.46866 122.612948 
L 345.356851 116.190234 
L 344.628535 113.032051 
L 343.774537 109.91254 
L 342.781965 106.841368 
L 341.647597 103.824981 
L 340.358543 100.866601 
L 338.908356 97.975897 
L 337.290593 95.159313 
L 335.511698 92.426518 
L 333.574894 89.787179 
L 331.496294 87.250965 
L 329.275898 84.83721 
L 326.929819 82.549139 
L 324.46128 80.399641 
L 321.879949 78.401606 
L 319.195493 76.564704 
L 316.414358 74.901824 
L 313.546212 73.419411 
L 310.597501 72.111021 
L 307.581113 70.966986 
L 304.500274 69.977636 
L 301.371094 69.133306 
L 298.196798 68.421103 
L 294.987052 67.837806 
L 288.499887 67.003143 
L 281.980494 66.551974 
L 275.473992 66.464963 
L 269.00294 66.780782 
L 265.789972 67.106268 
L 262.593117 67.547769 
L 259.418821 68.11173 
L 256.270305 68.801374 
L 253.144349 69.626369 
L 250.050618 70.586715 
L 246.992337 71.682411 
L 243.979172 72.907012 
L 241.01757 74.263742 
L 238.117198 75.742932 
L 235.284501 77.344582 
L 232.522702 79.065469 
L 229.847914 80.899149 
L 227.260137 82.848844 
L 224.76904 84.904886 
L 222.381067 87.064052 
L 220.083327 89.313451 
L 215.706988 94.037836 
L 211.530452 98.962023 
L 201.250244 111.433624 
L 194.833976 118.671664 
L 177.538089 137.778672 
L 169.159236 147.585153 
L 154.741163 164.890707 
L 148.676162 172.396226 
L 144.728433 177.504104 
L 140.887051 182.734442 
L 137.197133 188.113021 
L 133.765026 193.6624 
L 132.182712 196.504765 
L 130.71319 199.395469 
L 129.372574 202.331291 
L 128.17053 205.318674 
L 127.129619 208.35762 
L 126.26273 211.448128 
L 125.582754 214.59342 
L 125.086468 217.78383 
L 124.777095 221.006465 
L 124.651412 224.254882 
L 124.702974 227.512967 
L 124.931781 230.777497 
L 125.337833 234.03236 
L 125.914685 237.267886 
L 126.662337 240.477631 
L 127.577565 243.648705 
L 128.657148 246.771439 
L 129.901086 249.82972 
L 131.302932 252.810659 
L 132.862688 255.707808 
L 134.580353 258.501834 
L 136.449482 261.183067 
L 138.466852 263.735394 
L 140.632463 266.145926 
L 142.946316 268.404993 
L 145.398742 270.499707 
L 147.992963 272.413952 
L 150.712868 274.154176 
L 153.548788 275.720377 
L 156.481386 277.119001 
L 159.504219 278.350048 
L 162.597949 279.419963 
L 165.756132 280.328746 
L 168.95621 281.082843 
L 172.194959 281.685476 
L 175.453044 282.136645 
L 178.717574 282.442795 
L 181.985326 282.597482 
L 185.246634 282.603927 
L 188.498273 282.455686 
L 191.730577 282.149535 
L 194.943545 281.685476 
L 198.124287 281.060284 
L 201.269579 280.267516 
L 204.3762 279.310393 
L 207.434482 278.182471 
L 210.437978 276.883748 
L 213.3738 275.417449 
L 216.229055 273.786795 
L 218.987631 271.998232 
L 221.636638 270.054983 
L 224.159962 267.963492 
L 226.54149 265.730206 
L 228.774776 263.355123 
L 230.837263 260.84469 
L 232.719283 258.202128 
L 234.407944 255.437107 
L 235.900024 252.559293 
L 237.201969 249.581578 
L 238.307333 246.520073 
L 239.225784 243.381226 
L 239.9541 240.184371 
L 240.49228 236.9424 
L 240.843548 233.661756 
L 241.011125 230.365 
L 240.995011 227.055353 
L 240.791985 223.755374 
L 240.411714 220.471508 
L 239.847753 217.219868 
L 239.106547 214.010123 
L 238.188096 210.858385 
L 237.092399 207.780768 
L 235.822681 204.783717 
L 234.37894 201.883344 
L 232.7644 199.092542 
L 230.975837 196.427422 
L 230.975837 196.427422 
" style="fill:none;stroke:#fea952;stroke-linecap:square;"/>
   </g>
   <g id="line2d_15">
    <path clip-path="url(#p205610cfd0)" d="M 334.271381 160.842932 
L 334.704884 148.495128 
L 334.777444 142.346651 
L 334.677862 136.275246 
L 334.344594 130.342057 
L 333.731861 124.597903 
L 332.795987 119.086923 
L 331.508681 113.876741 
L 330.716416 111.378839 
L 329.830162 108.97419 
L 328.836607 106.646836 
L 327.730425 104.396173 
L 326.487259 102.191672 
L 325.119121 100.052817 
L 323.604941 97.958234 
L 322.009238 95.978042 
L 320.275708 94.065574 
L 318.464722 92.270674 
L 316.571062 90.593294 
L 314.600408 89.039952 
L 312.580339 87.628421 
L 310.495648 86.353242 
L 308.318037 85.202123 
L 306.026203 84.163795 
L 303.639813 83.240219 
L 301.14218 82.42309 
L 298.549059 81.711153 
L 295.891988 81.103925 
L 290.316856 80.177759 
L 284.529581 79.603295 
L 278.747986 79.349036 
L 273.06648 79.434816 
L 267.55348 79.875612 
L 262.176949 80.703745 
L 259.559716 81.265157 
L 256.965902 81.937414 
L 254.398326 82.721934 
L 251.845754 83.624372 
L 249.347882 84.626358 
L 246.87408 85.747095 
L 244.461766 86.964009 
L 242.101551 88.285054 
L 239.811425 89.697526 
L 237.604787 91.194635 
L 235.465564 92.790528 
L 233.414436 94.466436 
L 231.398649 96.275421 
L 227.442473 100.268873 
L 223.496965 104.743025 
L 217.440107 112.119624 
L 210.974468 119.895631 
L 204.364615 127.351123 
L 187.274231 146.226965 
L 179.03238 155.872923 
L 164.71559 173.056301 
L 158.83188 180.335213 
L 153.233143 187.665158 
L 149.717989 192.591295 
L 146.495472 197.49863 
L 143.673677 202.346326 
L 141.331331 207.143175 
L 140.365534 209.495754 
L 139.541134 211.839056 
L 138.862202 214.171989 
L 138.320112 216.574787 
L 137.918019 219.015658 
L 137.658001 221.504834 
L 137.540341 224.050903 
L 137.561972 226.611695 
L 137.723172 229.18174 
L 138.028264 231.769823 
L 138.469142 234.343555 
L 139.047359 236.903092 
L 139.760593 239.436822 
L 140.597748 241.914672 
L 141.566119 244.344002 
L 142.653089 246.700007 
L 143.84407 248.956855 
L 145.155009 251.130079 
L 146.56247 253.18972 
L 148.055963 255.120578 
L 149.637608 256.922397 
L 151.318386 258.603231 
L 153.05243 260.127284 
L 154.940198 261.555682 
L 156.944743 262.870123 
L 159.097812 264.085325 
L 161.343331 265.180508 
L 163.717365 266.167457 
L 166.162621 267.032097 
L 168.712799 267.781865 
L 171.314276 268.409815 
L 173.963127 268.916776 
L 176.656648 269.302415 
L 179.327094 269.56667 
L 182.010802 269.706964 
L 184.659568 269.726759 
L 187.282775 269.622577 
L 189.887875 269.391379 
L 192.457411 269.036948 
L 194.973769 268.560671 
L 197.474163 267.948388 
L 199.915737 267.216164 
L 202.31837 266.35067 
L 204.678216 265.351565 
L 206.98102 264.223769 
L 209.216299 262.970725 
L 211.362988 261.60444 
L 213.410523 260.13041 
L 215.342319 258.560552 
L 217.150482 256.899855 
L 218.814587 255.172169 
L 220.337425 253.366756 
L 221.718115 251.483467 
L 222.964112 249.503743 
L 224.089085 247.395203 
L 225.077492 245.204003 
L 225.935546 242.899992 
L 226.657287 240.517839 
L 227.237582 238.073379 
L 227.675 235.570019 
L 227.969625 233.007363 
L 228.120734 230.427757 
L 228.128795 227.846927 
L 227.987011 225.238187 
L 227.710785 222.674345 
L 227.287746 220.120271 
L 226.730775 217.61656 
L 226.044221 215.181859 
L 225.223099 212.809267 
L 224.282789 210.528018 
L 223.221067 208.338419 
L 222.060772 206.27575 
L 220.27221 203.61063 
L 220.27221 203.61063 
" style="fill:none;stroke:#ffffff;stroke-linecap:square;"/>
   </g>
   <g id="line2d_16">
    <path clip-path="url(#p205610cfd0)" d="M 360.032336 161.861575 
L 360.481836 148.956804 
L 360.557517 142.118059 
L 360.431515 135.086226 
L 360.010686 127.909732 
L 359.20546 120.627992 
L 358.628695 116.974526 
L 357.917715 113.293545 
L 357.061599 109.628372 
L 356.040392 105.948339 
L 354.847513 102.303897 
L 353.465031 98.675772 
L 351.880478 95.086366 
L 350.086288 91.55562 
L 348.093928 88.126954 
L 345.904276 84.800218 
L 343.544848 81.616124 
L 340.98335 78.523887 
L 338.276088 75.608847 
L 335.394916 72.827604 
L 332.351498 70.205988 
L 329.159489 67.763261 
L 325.810647 65.500987 
L 322.333069 63.450406 
L 318.774388 61.6367 
L 315.168798 60.058248 
L 311.522413 58.693752 
L 307.858367 57.532183 
L 304.193129 56.555459 
L 300.501608 55.738282 
L 296.842063 55.081433 
L 293.186196 54.556843 
L 285.954023 53.861589 
L 278.696833 53.568 
L 275.051369 53.58135 
L 271.397562 53.707804 
L 267.703727 53.955878 
L 264.026463 54.336924 
L 260.33823 54.855977 
L 256.660692 55.519715 
L 252.980895 56.337591 
L 249.322795 57.315324 
L 245.702911 58.451495 
L 242.138919 59.740449 
L 238.610462 61.187667 
L 235.16106 62.780389 
L 231.77263 64.521855 
L 228.46745 66.40411 
L 225.233979 68.433413 
L 222.091041 70.603663 
L 219.054711 72.90716 
L 216.123644 75.343336 
L 213.363485 77.852682 
L 210.751559 80.420521 
L 205.940706 85.624403 
L 201.554295 90.798544 
L 191.526019 102.971617 
L 185.303336 109.992205 
L 167.801947 129.330379 
L 159.286091 139.297383 
L 144.766736 156.725114 
L 138.520445 164.457239 
L 134.388354 169.806775 
L 130.329104 175.338778 
L 126.327116 181.18418 
L 122.502089 187.392443 
L 120.691747 190.663204 
L 118.987346 194.040968 
L 117.413816 197.519407 
L 115.975527 201.141594 
L 114.718104 204.876183 
L 113.663258 208.724266 
L 112.845396 212.612053 
L 112.254917 216.552001 
L 111.896189 220.508097 
L 111.762483 224.458861 
L 111.843977 228.414239 
L 112.140391 232.373255 
L 112.647403 236.294897 
L 113.360228 240.192217 
L 114.277314 244.05217 
L 115.394538 247.860587 
L 116.716548 251.628206 
L 118.236052 255.315439 
L 119.952776 258.92131 
L 121.881307 262.458761 
L 124.005698 265.873589 
L 126.336494 269.176413 
L 128.877741 272.35021 
L 131.627319 275.369455 
L 134.574245 278.206756 
L 137.745053 280.87213 
L 141.045729 283.272223 
L 144.480994 285.438229 
L 147.999763 287.355429 
L 151.619442 289.057493 
L 155.291073 290.532638 
L 159.033278 291.807829 
L 162.799465 292.875627 
L 166.598144 293.755871 
L 170.426791 294.454175 
L 174.249439 294.970874 
L 178.108053 295.31892 
L 181.959851 295.488 
L 185.8337 295.481095 
L 189.713772 295.288794 
L 193.57328 294.907692 
L 197.429679 294.334003 
L 201.274804 293.559898 
L 205.064995 292.586644 
L 208.836664 291.404622 
L 212.550593 290.014272 
L 216.197741 288.415932 
L 219.766579 286.61113 
L 223.241811 284.602865 
L 226.612275 282.392025 
L 229.862753 279.979556 
L 232.977604 277.366433 
L 235.932497 274.560556 
L 238.734966 271.538077 
L 241.337102 268.322624 
L 243.72045 264.92079 
L 245.851776 261.370471 
L 247.710963 257.723383 
L 249.326446 253.959152 
L 250.67912 250.140155 
L 251.794282 246.244614 
L 252.670618 242.295364 
L 253.309561 238.31478 
L 253.71747 234.316149 
L 253.901515 230.302242 
L 253.861228 226.263779 
L 253.59696 222.27256 
L 253.112644 218.268671 
L 252.40776 214.319465 
L 251.482319 210.403686 
L 250.33197 206.534912 
L 248.9617 202.752268 
L 247.362573 199.039415 
L 245.536813 195.42827 
L 243.468027 191.909334 
L 241.679464 189.244214 
L 241.679464 189.244214 
" style="fill:none;stroke:#ffffff;stroke-linecap:square;"/>
   </g>
   <g id="patch_3">
    <path d="M 57.6 307.584 
L 57.6 41.472 
" style="fill:none;stroke:#000000;stroke-linecap:square;stroke-linejoin:miter;stroke-width:0.8;"/>
   </g>
   <g id="patch_4">
    <path d="M 414.72 307.584 
L 414.72 41.472 
" style="fill:none;stroke:#000000;stroke-linecap:square;stroke-linejoin:miter;stroke-width:0.8;"/>
   </g>
   <g id="patch_5">
    <path d="M 57.6 307.584 
L 414.72 307.584 
" style="fill:none;stroke:#000000;stroke-linecap:square;stroke-linejoin:miter;stroke-width:0.8;"/>
   </g>
   <g id="patch_6">
    <path d="M 57.6 41.472 
L 414.72 41.472 
" style="fill:none;stroke:#000000;stroke-linecap:square;stroke-linejoin:miter;stroke-width:0.8;"/>
   </g>
  </g>
 </g>
 <defs>
  <clipPath id="p205610cfd0">
   <rect height="266.112" width="357.12" x="57.6" y="41.472"/>
  </clipPath>
 </defs>
</svg>
