<?xml version="1.0" encoding="utf-8" standalone="no"?>
<!DOCTYPE svg PUBLIC "-//W3C//DTD SVG 1.1//EN"
  "http://www.w3.org/Graphics/SVG/1.1/DTD/svg11.dtd">
<!-- Created with matplotlib (https://matplotlib.org/) -->
<svg height="345.6pt" version="1.1" viewBox="0 0 460.8 345.6" width="460.8pt" xmlns="http://www.w3.org/2000/svg" xmlns:xlink="http://www.w3.org/1999/xlink">
 <metadata>
  <rdf:RDF xmlns:cc="http://creativecommons.org/ns#" xmlns:dc="http://purl.org/dc/elements/1.1/" xmlns:rdf="http://www.w3.org/1999/02/22-rdf-syntax-ns#">
   <cc:Work>
    <dc:type rdf:resource="http://purl.org/dc/dcmitype/StillImage"/>
    <dc:date>2021-01-25T09:28:52.019573</dc:date>
    <dc:format>image/svg+xml</dc:format>
    <dc:creator>
     <cc:Agent>
      <dc:title>Matplotlib v3.3.3, https://matplotlib.org/</dc:title>
     </cc:Agent>
    </dc:creator>
   </cc:Work>
  </rdf:RDF>
 </metadata>
 <defs>
  <style type="text/css">*{stroke-linecap:butt;stroke-linejoin:round;}</style>
 </defs>
 <g id="figure_1">
  <g id="patch_1">
   <path d="M 0 345.6 
L 460.8 345.6 
L 460.8 0 
L 0 0 
z
" style="fill:#ffffff;"/>
  </g>
  <g id="axes_1">
   <g id="patch_2">
    <path d="M 57.6 307.584 
L 414.72 307.584 
L 414.72 41.472 
L 57.6 41.472 
z
" style="fill:#7d9051;"/>
   </g>
   <g id="matplotlib.axis_1">
    <g id="xtick_1">
     <g id="line2d_1">
      <defs>
       <path d="M 0 0 
L 0 3.5 
" id="m680a52917e" style="stroke:#000000;stroke-width:0.8;"/>
      </defs>
      <g>
       <use style="stroke:#000000;stroke-width:0.8;" x="107.38218" xlink:href="#m680a52917e" y="307.584"/>
      </g>
     </g>
     <g id="text_1">
      <!-- 0 -->
      <g transform="translate(104.20093 322.182437)scale(0.1 -0.1)">
       <defs>
        <path d="M 31.78125 66.40625 
Q 24.171875 66.40625 20.328125 58.90625 
Q 16.5 51.421875 16.5 36.375 
Q 16.5 21.390625 20.328125 13.890625 
Q 24.171875 6.390625 31.78125 6.390625 
Q 39.453125 6.390625 43.28125 13.890625 
Q 47.125 21.390625 47.125 36.375 
Q 47.125 51.421875 43.28125 58.90625 
Q 39.453125 66.40625 31.78125 66.40625 
z
M 31.78125 74.21875 
Q 44.046875 74.21875 50.515625 64.515625 
Q 56.984375 54.828125 56.984375 36.375 
Q 56.984375 17.96875 50.515625 8.265625 
Q 44.046875 -1.421875 31.78125 -1.421875 
Q 19.53125 -1.421875 13.0625 8.265625 
Q 6.59375 17.96875 6.59375 36.375 
Q 6.59375 54.828125 13.0625 64.515625 
Q 19.53125 74.21875 31.78125 74.21875 
z
" id="DejaVuSans-48"/>
       </defs>
       <use xlink:href="#DejaVuSans-48"/>
      </g>
     </g>
    </g>
    <g id="xtick_2">
     <g id="line2d_2">
      <g>
       <use style="stroke:#000000;stroke-width:0.8;" x="176.795273" xlink:href="#m680a52917e" y="307.584"/>
      </g>
     </g>
     <g id="text_2">
      <!-- 20 -->
      <g transform="translate(170.432773 322.182437)scale(0.1 -0.1)">
       <defs>
        <path d="M 19.1875 8.296875 
L 53.609375 8.296875 
L 53.609375 0 
L 7.328125 0 
L 7.328125 8.296875 
Q 12.9375 14.109375 22.625 23.890625 
Q 32.328125 33.6875 34.8125 36.53125 
Q 39.546875 41.84375 41.421875 45.53125 
Q 43.3125 49.21875 43.3125 52.78125 
Q 43.3125 58.59375 39.234375 62.25 
Q 35.15625 65.921875 28.609375 65.921875 
Q 23.96875 65.921875 18.8125 64.3125 
Q 13.671875 62.703125 7.8125 59.421875 
L 7.8125 69.390625 
Q 13.765625 71.78125 18.9375 73 
Q 24.125 74.21875 28.421875 74.21875 
Q 39.75 74.21875 46.484375 68.546875 
Q 53.21875 62.890625 53.21875 53.421875 
Q 53.21875 48.921875 51.53125 44.890625 
Q 49.859375 40.875 45.40625 35.40625 
Q 44.1875 33.984375 37.640625 27.21875 
Q 31.109375 20.453125 19.1875 8.296875 
z
" id="DejaVuSans-50"/>
       </defs>
       <use xlink:href="#DejaVuSans-50"/>
       <use x="63.623047" xlink:href="#DejaVuSans-48"/>
      </g>
     </g>
    </g>
    <g id="xtick_3">
     <g id="line2d_3">
      <g>
       <use style="stroke:#000000;stroke-width:0.8;" x="246.208365" xlink:href="#m680a52917e" y="307.584"/>
      </g>
     </g>
     <g id="text_3">
      <!-- 40 -->
      <g transform="translate(239.845865 322.182437)scale(0.1 -0.1)">
       <defs>
        <path d="M 37.796875 64.3125 
L 12.890625 25.390625 
L 37.796875 25.390625 
z
M 35.203125 72.90625 
L 47.609375 72.90625 
L 47.609375 25.390625 
L 58.015625 25.390625 
L 58.015625 17.1875 
L 47.609375 17.1875 
L 47.609375 0 
L 37.796875 0 
L 37.796875 17.1875 
L 4.890625 17.1875 
L 4.890625 26.703125 
z
" id="DejaVuSans-52"/>
       </defs>
       <use xlink:href="#DejaVuSans-52"/>
       <use x="63.623047" xlink:href="#DejaVuSans-48"/>
      </g>
     </g>
    </g>
    <g id="xtick_4">
     <g id="line2d_4">
      <g>
       <use style="stroke:#000000;stroke-width:0.8;" x="315.621458" xlink:href="#m680a52917e" y="307.584"/>
      </g>
     </g>
     <g id="text_4">
      <!-- 60 -->
      <g transform="translate(309.258958 322.182437)scale(0.1 -0.1)">
       <defs>
        <path d="M 33.015625 40.375 
Q 26.375 40.375 22.484375 35.828125 
Q 18.609375 31.296875 18.609375 23.390625 
Q 18.609375 15.53125 22.484375 10.953125 
Q 26.375 6.390625 33.015625 6.390625 
Q 39.65625 6.390625 43.53125 10.953125 
Q 47.40625 15.53125 47.40625 23.390625 
Q 47.40625 31.296875 43.53125 35.828125 
Q 39.65625 40.375 33.015625 40.375 
z
M 52.59375 71.296875 
L 52.59375 62.3125 
Q 48.875 64.0625 45.09375 64.984375 
Q 41.3125 65.921875 37.59375 65.921875 
Q 27.828125 65.921875 22.671875 59.328125 
Q 17.53125 52.734375 16.796875 39.40625 
Q 19.671875 43.65625 24.015625 45.921875 
Q 28.375 48.1875 33.59375 48.1875 
Q 44.578125 48.1875 50.953125 41.515625 
Q 57.328125 34.859375 57.328125 23.390625 
Q 57.328125 12.15625 50.6875 5.359375 
Q 44.046875 -1.421875 33.015625 -1.421875 
Q 20.359375 -1.421875 13.671875 8.265625 
Q 6.984375 17.96875 6.984375 36.375 
Q 6.984375 53.65625 15.1875 63.9375 
Q 23.390625 74.21875 37.203125 74.21875 
Q 40.921875 74.21875 44.703125 73.484375 
Q 48.484375 72.75 52.59375 71.296875 
z
" id="DejaVuSans-54"/>
       </defs>
       <use xlink:href="#DejaVuSans-54"/>
       <use x="63.623047" xlink:href="#DejaVuSans-48"/>
      </g>
     </g>
    </g>
    <g id="xtick_5">
     <g id="line2d_5">
      <g>
       <use style="stroke:#000000;stroke-width:0.8;" x="385.03455" xlink:href="#m680a52917e" y="307.584"/>
      </g>
     </g>
     <g id="text_5">
      <!-- 80 -->
      <g transform="translate(378.67205 322.182437)scale(0.1 -0.1)">
       <defs>
        <path d="M 31.78125 34.625 
Q 24.75 34.625 20.71875 30.859375 
Q 16.703125 27.09375 16.703125 20.515625 
Q 16.703125 13.921875 20.71875 10.15625 
Q 24.75 6.390625 31.78125 6.390625 
Q 38.8125 6.390625 42.859375 10.171875 
Q 46.921875 13.96875 46.921875 20.515625 
Q 46.921875 27.09375 42.890625 30.859375 
Q 38.875 34.625 31.78125 34.625 
z
M 21.921875 38.8125 
Q 15.578125 40.375 12.03125 44.71875 
Q 8.5 49.078125 8.5 55.328125 
Q 8.5 64.0625 14.71875 69.140625 
Q 20.953125 74.21875 31.78125 74.21875 
Q 42.671875 74.21875 48.875 69.140625 
Q 55.078125 64.0625 55.078125 55.328125 
Q 55.078125 49.078125 51.53125 44.71875 
Q 48 40.375 41.703125 38.8125 
Q 48.828125 37.15625 52.796875 32.3125 
Q 56.78125 27.484375 56.78125 20.515625 
Q 56.78125 9.90625 50.3125 4.234375 
Q 43.84375 -1.421875 31.78125 -1.421875 
Q 19.734375 -1.421875 13.25 4.234375 
Q 6.78125 9.90625 6.78125 20.515625 
Q 6.78125 27.484375 10.78125 32.3125 
Q 14.796875 37.15625 21.921875 38.8125 
z
M 18.3125 54.390625 
Q 18.3125 48.734375 21.84375 45.5625 
Q 25.390625 42.390625 31.78125 42.390625 
Q 38.140625 42.390625 41.71875 45.5625 
Q 45.3125 48.734375 45.3125 54.390625 
Q 45.3125 60.0625 41.71875 63.234375 
Q 38.140625 66.40625 31.78125 66.40625 
Q 25.390625 66.40625 21.84375 63.234375 
Q 18.3125 60.0625 18.3125 54.390625 
z
" id="DejaVuSans-56"/>
       </defs>
       <use xlink:href="#DejaVuSans-56"/>
       <use x="63.623047" xlink:href="#DejaVuSans-48"/>
      </g>
     </g>
    </g>
   </g>
   <g id="matplotlib.axis_2">
    <g id="ytick_1">
     <g id="line2d_6">
      <defs>
       <path d="M 0 0 
L -3.5 0 
" id="m62d1ca7a37" style="stroke:#000000;stroke-width:0.8;"/>
      </defs>
      <g>
       <use style="stroke:#000000;stroke-width:0.8;" x="57.6" xlink:href="#m62d1ca7a37" y="281.131823"/>
      </g>
     </g>
     <g id="text_6">
      <!-- 10 -->
      <g transform="translate(37.875 284.931042)scale(0.1 -0.1)">
       <defs>
        <path d="M 12.40625 8.296875 
L 28.515625 8.296875 
L 28.515625 63.921875 
L 10.984375 60.40625 
L 10.984375 69.390625 
L 28.421875 72.90625 
L 38.28125 72.90625 
L 38.28125 8.296875 
L 54.390625 8.296875 
L 54.390625 0 
L 12.40625 0 
z
" id="DejaVuSans-49"/>
       </defs>
       <use xlink:href="#DejaVuSans-49"/>
       <use x="63.623047" xlink:href="#DejaVuSans-48"/>
      </g>
     </g>
    </g>
    <g id="ytick_2">
     <g id="line2d_7">
      <g>
       <use style="stroke:#000000;stroke-width:0.8;" x="57.6" xlink:href="#m62d1ca7a37" y="246.425277"/>
      </g>
     </g>
     <g id="text_7">
      <!-- 20 -->
      <g transform="translate(37.875 250.224496)scale(0.1 -0.1)">
       <use xlink:href="#DejaVuSans-50"/>
       <use x="63.623047" xlink:href="#DejaVuSans-48"/>
      </g>
     </g>
    </g>
    <g id="ytick_3">
     <g id="line2d_8">
      <g>
       <use style="stroke:#000000;stroke-width:0.8;" x="57.6" xlink:href="#m62d1ca7a37" y="211.718731"/>
      </g>
     </g>
     <g id="text_8">
      <!-- 30 -->
      <g transform="translate(37.875 215.51795)scale(0.1 -0.1)">
       <defs>
        <path d="M 40.578125 39.3125 
Q 47.65625 37.796875 51.625 33 
Q 55.609375 28.21875 55.609375 21.1875 
Q 55.609375 10.40625 48.1875 4.484375 
Q 40.765625 -1.421875 27.09375 -1.421875 
Q 22.515625 -1.421875 17.65625 -0.515625 
Q 12.796875 0.390625 7.625 2.203125 
L 7.625 11.71875 
Q 11.71875 9.328125 16.59375 8.109375 
Q 21.484375 6.890625 26.8125 6.890625 
Q 36.078125 6.890625 40.9375 10.546875 
Q 45.796875 14.203125 45.796875 21.1875 
Q 45.796875 27.640625 41.28125 31.265625 
Q 36.765625 34.90625 28.71875 34.90625 
L 20.21875 34.90625 
L 20.21875 43.015625 
L 29.109375 43.015625 
Q 36.375 43.015625 40.234375 45.921875 
Q 44.09375 48.828125 44.09375 54.296875 
Q 44.09375 59.90625 40.109375 62.90625 
Q 36.140625 65.921875 28.71875 65.921875 
Q 24.65625 65.921875 20.015625 65.03125 
Q 15.375 64.15625 9.8125 62.3125 
L 9.8125 71.09375 
Q 15.4375 72.65625 20.34375 73.4375 
Q 25.25 74.21875 29.59375 74.21875 
Q 40.828125 74.21875 47.359375 69.109375 
Q 53.90625 64.015625 53.90625 55.328125 
Q 53.90625 49.265625 50.4375 45.09375 
Q 46.96875 40.921875 40.578125 39.3125 
z
" id="DejaVuSans-51"/>
       </defs>
       <use xlink:href="#DejaVuSans-51"/>
       <use x="63.623047" xlink:href="#DejaVuSans-48"/>
      </g>
     </g>
    </g>
    <g id="ytick_4">
     <g id="line2d_9">
      <g>
       <use style="stroke:#000000;stroke-width:0.8;" x="57.6" xlink:href="#m62d1ca7a37" y="177.012185"/>
      </g>
     </g>
     <g id="text_9">
      <!-- 40 -->
      <g transform="translate(37.875 180.811403)scale(0.1 -0.1)">
       <use xlink:href="#DejaVuSans-52"/>
       <use x="63.623047" xlink:href="#DejaVuSans-48"/>
      </g>
     </g>
    </g>
    <g id="ytick_5">
     <g id="line2d_10">
      <g>
       <use style="stroke:#000000;stroke-width:0.8;" x="57.6" xlink:href="#m62d1ca7a37" y="142.305638"/>
      </g>
     </g>
     <g id="text_10">
      <!-- 50 -->
      <g transform="translate(37.875 146.104857)scale(0.1 -0.1)">
       <defs>
        <path d="M 10.796875 72.90625 
L 49.515625 72.90625 
L 49.515625 64.59375 
L 19.828125 64.59375 
L 19.828125 46.734375 
Q 21.96875 47.46875 24.109375 47.828125 
Q 26.265625 48.1875 28.421875 48.1875 
Q 40.625 48.1875 47.75 41.5 
Q 54.890625 34.8125 54.890625 23.390625 
Q 54.890625 11.625 47.5625 5.09375 
Q 40.234375 -1.421875 26.90625 -1.421875 
Q 22.3125 -1.421875 17.546875 -0.640625 
Q 12.796875 0.140625 7.71875 1.703125 
L 7.71875 11.625 
Q 12.109375 9.234375 16.796875 8.0625 
Q 21.484375 6.890625 26.703125 6.890625 
Q 35.15625 6.890625 40.078125 11.328125 
Q 45.015625 15.765625 45.015625 23.390625 
Q 45.015625 31 40.078125 35.4375 
Q 35.15625 39.890625 26.703125 39.890625 
Q 22.75 39.890625 18.8125 39.015625 
Q 14.890625 38.140625 10.796875 36.28125 
z
" id="DejaVuSans-53"/>
       </defs>
       <use xlink:href="#DejaVuSans-53"/>
       <use x="63.623047" xlink:href="#DejaVuSans-48"/>
      </g>
     </g>
    </g>
    <g id="ytick_6">
     <g id="line2d_11">
      <g>
       <use style="stroke:#000000;stroke-width:0.8;" x="57.6" xlink:href="#m62d1ca7a37" y="107.599092"/>
      </g>
     </g>
     <g id="text_11">
      <!-- 60 -->
      <g transform="translate(37.875 111.398311)scale(0.1 -0.1)">
       <use xlink:href="#DejaVuSans-54"/>
       <use x="63.623047" xlink:href="#DejaVuSans-48"/>
      </g>
     </g>
    </g>
    <g id="ytick_7">
     <g id="line2d_12">
      <g>
       <use style="stroke:#000000;stroke-width:0.8;" x="57.6" xlink:href="#m62d1ca7a37" y="72.892546"/>
      </g>
     </g>
     <g id="text_12">
      <!-- 70 -->
      <g transform="translate(37.875 76.691764)scale(0.1 -0.1)">
       <defs>
        <path d="M 8.203125 72.90625 
L 55.078125 72.90625 
L 55.078125 68.703125 
L 28.609375 0 
L 18.3125 0 
L 43.21875 64.59375 
L 8.203125 64.59375 
z
" id="DejaVuSans-55"/>
       </defs>
       <use xlink:href="#DejaVuSans-55"/>
       <use x="63.623047" xlink:href="#DejaVuSans-48"/>
      </g>
     </g>
    </g>
   </g>
   <g id="line2d_13">
    <path clip-path="url(#pf43a70b5b2)" d="M 142.564206 254.334899 
L 142.789799 243.822286 
L 142.79674 233.354792 
L 142.515617 215.959871 
L 142.099138 191.554227 
L 142.119962 181.01732 
L 142.310848 173.978832 
L 142.765504 166.971581 
L 143.126452 163.490514 
L 143.598461 160.033742 
L 144.191943 156.604735 
L 144.924251 153.206964 
L 145.809268 149.847371 
L 146.853935 146.525954 
L 148.047841 143.253127 
L 149.384043 140.021948 
L 150.852129 136.835887 
L 152.434748 133.701885 
L 155.915815 127.579651 
L 159.743947 121.665655 
L 163.832378 115.980723 
L 168.13599 110.497089 
L 172.637429 105.186987 
L 177.319342 100.012241 
L 182.164376 94.938144 
L 187.151706 89.936931 
L 192.319511 85.091897 
L 194.984974 82.77697 
L 197.71985 80.559222 
L 200.524138 78.459476 
L 203.411723 76.498556 
L 206.386074 74.697286 
L 209.457603 73.07302 
L 212.629782 71.646581 
L 215.90608 70.431852 
L 219.269144 69.425362 
L 222.701622 68.627111 
L 226.189629 68.033629 
L 229.719285 67.641445 
L 233.273236 67.450559 
L 236.837598 67.460971 
L 240.391548 67.662269 
L 243.928145 68.061394 
L 247.426565 68.654876 
L 250.872925 69.432303 
L 254.270696 70.393674 
L 257.605995 71.525108 
L 260.878822 72.823133 
L 264.085707 74.280808 
L 267.216238 75.887721 
L 270.270414 77.636931 
L 273.244765 79.521496 
L 276.128879 81.534476 
L 278.922756 83.668928 
L 281.619454 85.917913 
L 284.222445 88.271016 
L 286.728258 90.724769 
L 289.143834 93.2757 
L 291.462231 95.909927 
L 293.68345 98.62745 
L 295.810961 101.417856 
L 297.844765 104.277676 
L 301.624308 110.170847 
L 305.046373 116.261846 
L 308.166492 122.505554 
L 311.057547 128.870734 
L 315.097389 138.55039 
L 318.942874 148.299459 
L 321.365391 154.841643 
L 323.617846 161.446299 
L 325.641238 168.13425 
L 327.386977 174.926321 
L 328.792592 181.825982 
L 329.337485 185.303578 
L 329.767846 188.795057 
L 330.069793 192.293477 
L 330.232914 195.795367 
L 330.246796 199.297258 
L 330.101029 202.792207 
L 329.781729 206.276744 
L 329.285425 209.747399 
L 328.605177 213.193759 
L 327.747925 216.605412 
L 326.720611 219.978889 
L 325.526706 223.300305 
L 324.16968 226.562721 
L 322.656475 229.755723 
L 320.994031 232.872371 
L 319.18582 235.902252 
L 317.235312 238.834955 
L 315.149449 241.660068 
L 312.938642 244.384532 
L 310.606362 247.001406 
L 308.163021 249.51763 
L 305.619031 251.936677 
L 302.981334 254.255074 
L 300.26034 256.476293 
L 297.462993 258.607275 
L 291.677412 262.591586 
L 285.690532 266.225362 
L 279.516238 269.508601 
L 273.171881 272.437833 
L 266.664404 275.013059 
L 260.000747 277.227337 
L 253.191322 279.073725 
L 249.744962 279.833798 
L 246.277778 280.47587 
L 242.793241 280.986056 
L 239.298292 281.350475 
L 235.799872 281.565655 
L 232.297982 281.614244 
L 228.803032 281.489301 
L 225.318495 281.176942 
L 221.851311 280.673697 
L 218.408422 279.972625 
L 215.000239 279.087608 
L 211.640645 278.015175 
L 208.333111 276.76574 
L 205.094991 275.342771 
L 201.933224 273.749741 
L 198.858224 271.990119 
L 195.880403 270.074318 
L 193.010171 267.998866 
L 190.257942 265.777647 
L 187.634127 263.40719 
L 185.149138 260.897907 
L 182.809917 258.253268 
L 180.630346 255.476744 
L 178.620837 252.571806 
L 176.788331 249.548866 
L 175.146712 246.404453 
L 173.70292 243.15245 
L 172.470837 239.789385 
L 172.470837 239.789385 
" style="fill:none;stroke:#fea952;stroke-linecap:square;"/>
   </g>
   <g id="line2d_14">
    <path clip-path="url(#pf43a70b5b2)" d="M 128.687696 253.923133 
L 128.907516 243.725786 
L 128.91481 233.493058 
L 128.636046 216.25076 
L 128.216629 191.609208 
L 128.240044 180.743554 
L 128.447267 173.252057 
L 128.956918 165.539783 
L 129.371471 161.612324 
L 129.919216 157.66618 
L 130.620944 153.679831 
L 131.499623 149.670518 
L 132.566242 145.682114 
L 133.811994 141.768343 
L 135.218893 137.947923 
L 136.775573 134.212163 
L 138.459938 130.578036 
L 140.261924 127.027348 
L 142.167804 123.565267 
L 144.164922 120.187519 
L 148.38443 113.685149 
L 152.828168 107.517008 
L 157.473337 101.606929 
L 162.283578 95.939021 
L 167.218103 90.489002 
L 172.279762 85.190247 
L 177.548316 79.911862 
L 183.216454 74.610416 
L 186.241004 71.994109 
L 189.399083 69.446529 
L 192.724978 66.974695 
L 196.220331 64.623752 
L 199.896302 62.424961 
L 203.764123 60.411607 
L 207.803658 58.629837 
L 211.925754 57.132073 
L 216.124544 55.90358 
L 220.372972 54.941188 
L 224.656551 54.235921 
L 228.97471 53.778808 
L 233.313788 53.568 
L 237.62266 53.600568 
L 241.948398 53.867222 
L 246.250058 54.374327 
L 250.481433 55.11254 
L 254.652521 56.074094 
L 258.730473 57.246907 
L 262.724097 58.620375 
L 266.623491 60.184862 
L 270.425302 61.930236 
L 274.115736 63.840978 
L 277.700616 65.910073 
L 281.190286 68.137482 
L 284.556789 70.50282 
L 287.81424 73.00738 
L 290.929173 75.619551 
L 293.935362 78.352027 
L 296.808544 81.179355 
L 299.565158 84.103836 
L 302.211065 87.124162 
L 304.723288 90.21026 
L 307.124387 93.372143 
L 309.412703 96.602397 
L 311.582361 99.884576 
L 313.634283 103.207544 
L 317.399226 109.926696 
L 320.76003 116.663475 
L 323.816974 123.40044 
L 327.982319 133.382637 
L 331.936461 143.41133 
L 334.469262 150.257359 
L 336.868528 157.305461 
L 339.044786 164.518729 
L 340.951136 171.969855 
L 342.507872 179.676982 
L 343.11583 183.605254 
L 343.599044 187.601293 
L 343.937375 191.647514 
L 344.115423 195.740333 
L 344.117356 199.875772 
L 343.925728 204.059012 
L 343.524545 208.241967 
L 342.905267 212.435706 
L 342.069257 216.5769 
L 341.028402 220.649673 
L 339.784853 224.674917 
L 338.344656 228.632027 
L 336.714817 232.508025 
L 334.905466 236.289428 
L 332.915113 239.986785 
L 330.745268 243.590311 
L 328.403658 247.080872 
L 325.929402 250.407623 
L 323.302498 253.621284 
L 320.566039 256.672596 
L 317.729355 259.578065 
L 314.784089 262.363988 
L 311.760375 265.0094 
L 308.672982 267.519597 
L 305.511336 269.91883 
L 302.297227 272.197696 
L 295.743493 276.418823 
L 288.96641 280.262225 
L 282.004428 283.703864 
L 274.864494 286.749362 
L 267.546169 289.398557 
L 260.050985 291.6494 
L 256.181198 292.630559 
L 252.272838 293.484327 
L 248.28895 294.212037 
L 244.232978 294.793816 
L 240.150573 295.206907 
L 235.992477 295.446938 
L 231.801998 295.488 
L 227.563545 295.316476 
L 223.324396 294.915598 
L 219.081254 294.277148 
L 214.919187 293.409601 
L 210.778574 292.31276 
L 206.734785 291.002078 
L 202.74798 289.475319 
L 198.848419 287.740652 
L 195.038195 285.799042 
L 191.346967 283.665225 
L 187.745805 281.324003 
L 184.29133 278.802056 
L 180.951403 276.078882 
L 177.769998 273.175816 
L 174.750584 270.095578 
L 171.889972 266.825425 
L 169.21322 263.374613 
L 166.749184 259.7684 
L 164.481908 255.973743 
L 162.458382 252.037692 
L 160.667554 247.928048 
L 159.435472 244.564984 
L 159.435472 244.564984 
" style="fill:none;stroke:#ffffff;stroke-linecap:square;"/>
   </g>
   <g id="line2d_15">
    <path clip-path="url(#pf43a70b5b2)" d="M 156.440717 254.746665 
L 156.672082 243.918787 
L 156.67867 233.216525 
L 156.395188 215.668982 
L 155.981648 191.499247 
L 155.999881 181.291086 
L 156.17443 174.705608 
L 156.57409 168.403378 
L 157.277706 162.401304 
L 157.762943 159.529639 
L 158.34888 156.743411 
L 159.052294 154.012628 
L 159.895876 151.283566 
L 160.876789 148.558331 
L 161.992512 145.831732 
L 164.607572 140.376423 
L 167.666708 134.971782 
L 171.103463 129.646162 
L 174.836587 124.444438 
L 178.798642 119.387248 
L 182.991279 114.434953 
L 187.42058 109.53548 
L 192.04899 104.686041 
L 196.755096 99.961999 
L 201.422568 95.573378 
L 206.040616 91.671915 
L 208.323299 89.944257 
L 210.603116 88.37336 
L 212.875846 86.969611 
L 215.151084 85.734433 
L 217.455905 84.663325 
L 219.886406 83.73163 
L 222.413745 82.947144 
L 225.030271 82.313034 
L 227.722708 81.831338 
L 230.46386 81.504082 
L 233.232683 81.333119 
L 236.052536 81.321374 
L 238.834698 81.457316 
L 241.606232 81.748462 
L 244.371698 82.197213 
L 247.09333 82.790512 
L 249.810919 83.540441 
L 252.487893 84.429841 
L 255.134154 85.461403 
L 257.746112 86.63138 
L 260.316739 87.934464 
L 262.840211 89.363788 
L 265.299243 90.90551 
L 267.700968 92.566131 
L 270.031272 94.330476 
L 272.309736 96.216274 
L 274.509529 98.190006 
L 276.647972 100.270183 
L 280.713397 104.695692 
L 284.497536 109.463569 
L 287.980419 114.508416 
L 291.182652 119.828941 
L 294.156841 125.443666 
L 296.952521 131.317277 
L 299.618227 137.418157 
L 303.488375 146.898965 
L 307.127923 156.318508 
L 309.343303 162.512933 
L 311.335284 168.677428 
L 313.068317 174.814033 
L 314.496937 180.9514 
L 315.55914 187.001903 
L 316.202211 192.93944 
L 316.350404 195.850402 
L 316.376237 198.718744 
L 316.27633 201.525402 
L 316.038913 204.311522 
L 315.665583 207.059092 
L 315.141097 209.810618 
L 314.467449 212.561152 
L 313.65637 215.28286 
L 312.708756 217.968584 
L 311.624543 220.617417 
L 310.407483 223.222018 
L 309.072949 225.757956 
L 307.626372 228.214193 
L 306.066966 230.589039 
L 304.369496 232.912514 
L 302.574786 235.14778 
L 300.646684 237.330215 
L 298.596687 239.457196 
L 296.453974 241.509366 
L 294.202292 243.500748 
L 289.41465 247.29572 
L 284.309757 250.825331 
L 278.996537 254.063227 
L 273.518213 256.988585 
L 267.883306 259.602021 
L 262.105807 261.90023 
L 256.172454 263.883002 
L 250.201447 265.516891 
L 244.266607 266.739703 
L 241.353504 267.178295 
L 238.446011 267.494042 
L 235.607268 267.684373 
L 232.793965 267.740489 
L 230.04252 267.662126 
L 227.312594 267.438286 
L 224.621369 267.070246 
L 221.897657 266.535648 
L 219.221904 265.862456 
L 216.546506 265.028273 
L 213.918243 264.056161 
L 211.341563 262.944891 
L 208.828253 261.700439 
L 206.369482 260.315013 
L 204.015 258.824632 
L 201.729013 257.195677 
L 199.564481 255.476413 
L 197.498256 253.638564 
L 195.547693 251.700235 
L 193.729863 249.681111 
L 192.047472 247.578876 
L 190.49249 245.375213 
L 189.094755 243.12399 
L 187.835042 240.771214 
L 186.738285 238.376851 
L 185.506203 235.013787 
L 185.506203 235.013787 
" style="fill:none;stroke:#ffffff;stroke-linecap:square;"/>
   </g>
   <g id="patch_3">
    <path d="M 57.6 307.584 
L 57.6 41.472 
" style="fill:none;stroke:#000000;stroke-linecap:square;stroke-linejoin:miter;stroke-width:0.8;"/>
   </g>
   <g id="patch_4">
    <path d="M 414.72 307.584 
L 414.72 41.472 
" style="fill:none;stroke:#000000;stroke-linecap:square;stroke-linejoin:miter;stroke-width:0.8;"/>
   </g>
   <g id="patch_5">
    <path d="M 57.6 307.584 
L 414.72 307.584 
" style="fill:none;stroke:#000000;stroke-linecap:square;stroke-linejoin:miter;stroke-width:0.8;"/>
   </g>
   <g id="patch_6">
    <path d="M 57.6 41.472 
L 414.72 41.472 
" style="fill:none;stroke:#000000;stroke-linecap:square;stroke-linejoin:miter;stroke-width:0.8;"/>
   </g>
  </g>
 </g>
 <defs>
  <clipPath id="pf43a70b5b2">
   <rect height="266.112" width="357.12" x="57.6" y="41.472"/>
  </clipPath>
 </defs>
</svg>
