<?xml version="1.0" encoding="utf-8" standalone="no"?>
<!DOCTYPE svg PUBLIC "-//W3C//DTD SVG 1.1//EN"
  "http://www.w3.org/Graphics/SVG/1.1/DTD/svg11.dtd">
<!-- Created with matplotlib (https://matplotlib.org/) -->
<svg height="345.6pt" version="1.1" viewBox="0 0 460.8 345.6" width="460.8pt" xmlns="http://www.w3.org/2000/svg" xmlns:xlink="http://www.w3.org/1999/xlink">
 <metadata>
  <rdf:RDF xmlns:cc="http://creativecommons.org/ns#" xmlns:dc="http://purl.org/dc/elements/1.1/" xmlns:rdf="http://www.w3.org/1999/02/22-rdf-syntax-ns#">
   <cc:Work>
    <dc:type rdf:resource="http://purl.org/dc/dcmitype/StillImage"/>
    <dc:date>2021-01-23T11:44:21.222466</dc:date>
    <dc:format>image/svg+xml</dc:format>
    <dc:creator>
     <cc:Agent>
      <dc:title>Matplotlib v3.3.3, https://matplotlib.org/</dc:title>
     </cc:Agent>
    </dc:creator>
   </cc:Work>
  </rdf:RDF>
 </metadata>
 <defs>
  <style type="text/css">*{stroke-linecap:butt;stroke-linejoin:round;}</style>
 </defs>
 <g id="figure_1">
  <g id="patch_1">
   <path d="M 0 345.6 
L 460.8 345.6 
L 460.8 0 
L 0 0 
z
" style="fill:#ffffff;"/>
  </g>
  <g id="axes_1">
   <g id="patch_2">
    <path d="M 57.6 307.584 
L 414.72 307.584 
L 414.72 41.472 
L 57.6 41.472 
z
" style="fill:#7d9051;"/>
   </g>
   <g id="matplotlib.axis_1">
    <g id="xtick_1">
     <g id="line2d_1">
      <defs>
       <path d="M 0 0 
L 0 3.5 
" id="me220a45296" style="stroke:#000000;stroke-width:0.8;"/>
      </defs>
      <g>
       <use style="stroke:#000000;stroke-width:0.8;" x="57.808783" xlink:href="#me220a45296" y="307.584"/>
      </g>
     </g>
     <g id="text_1">
      <!-- −20 -->
      <g transform="translate(47.256439 322.182437)scale(0.1 -0.1)">
       <defs>
        <path d="M 10.59375 35.5 
L 73.1875 35.5 
L 73.1875 27.203125 
L 10.59375 27.203125 
z
" id="DejaVuSans-8722"/>
        <path d="M 19.1875 8.296875 
L 53.609375 8.296875 
L 53.609375 0 
L 7.328125 0 
L 7.328125 8.296875 
Q 12.9375 14.109375 22.625 23.890625 
Q 32.328125 33.6875 34.8125 36.53125 
Q 39.546875 41.84375 41.421875 45.53125 
Q 43.3125 49.21875 43.3125 52.78125 
Q 43.3125 58.59375 39.234375 62.25 
Q 35.15625 65.921875 28.609375 65.921875 
Q 23.96875 65.921875 18.8125 64.3125 
Q 13.671875 62.703125 7.8125 59.421875 
L 7.8125 69.390625 
Q 13.765625 71.78125 18.9375 73 
Q 24.125 74.21875 28.421875 74.21875 
Q 39.75 74.21875 46.484375 68.546875 
Q 53.21875 62.890625 53.21875 53.421875 
Q 53.21875 48.921875 51.53125 44.890625 
Q 49.859375 40.875 45.40625 35.40625 
Q 44.1875 33.984375 37.640625 27.21875 
Q 31.109375 20.453125 19.1875 8.296875 
z
" id="DejaVuSans-50"/>
        <path d="M 31.78125 66.40625 
Q 24.171875 66.40625 20.328125 58.90625 
Q 16.5 51.421875 16.5 36.375 
Q 16.5 21.390625 20.328125 13.890625 
Q 24.171875 6.390625 31.78125 6.390625 
Q 39.453125 6.390625 43.28125 13.890625 
Q 47.125 21.390625 47.125 36.375 
Q 47.125 51.421875 43.28125 58.90625 
Q 39.453125 66.40625 31.78125 66.40625 
z
M 31.78125 74.21875 
Q 44.046875 74.21875 50.515625 64.515625 
Q 56.984375 54.828125 56.984375 36.375 
Q 56.984375 17.96875 50.515625 8.265625 
Q 44.046875 -1.421875 31.78125 -1.421875 
Q 19.53125 -1.421875 13.0625 8.265625 
Q 6.59375 17.96875 6.59375 36.375 
Q 6.59375 54.828125 13.0625 64.515625 
Q 19.53125 74.21875 31.78125 74.21875 
z
" id="DejaVuSans-48"/>
       </defs>
       <use xlink:href="#DejaVuSans-8722"/>
       <use x="83.789062" xlink:href="#DejaVuSans-50"/>
       <use x="147.412109" xlink:href="#DejaVuSans-48"/>
      </g>
     </g>
    </g>
    <g id="xtick_2">
     <g id="line2d_2">
      <g>
       <use style="stroke:#000000;stroke-width:0.8;" x="115.032812" xlink:href="#me220a45296" y="307.584"/>
      </g>
     </g>
     <g id="text_2">
      <!-- 0 -->
      <g transform="translate(111.851562 322.182437)scale(0.1 -0.1)">
       <use xlink:href="#DejaVuSans-48"/>
      </g>
     </g>
    </g>
    <g id="xtick_3">
     <g id="line2d_3">
      <g>
       <use style="stroke:#000000;stroke-width:0.8;" x="172.256841" xlink:href="#me220a45296" y="307.584"/>
      </g>
     </g>
     <g id="text_3">
      <!-- 20 -->
      <g transform="translate(165.894341 322.182437)scale(0.1 -0.1)">
       <use xlink:href="#DejaVuSans-50"/>
       <use x="63.623047" xlink:href="#DejaVuSans-48"/>
      </g>
     </g>
    </g>
    <g id="xtick_4">
     <g id="line2d_4">
      <g>
       <use style="stroke:#000000;stroke-width:0.8;" x="229.480871" xlink:href="#me220a45296" y="307.584"/>
      </g>
     </g>
     <g id="text_4">
      <!-- 40 -->
      <g transform="translate(223.118371 322.182437)scale(0.1 -0.1)">
       <defs>
        <path d="M 37.796875 64.3125 
L 12.890625 25.390625 
L 37.796875 25.390625 
z
M 35.203125 72.90625 
L 47.609375 72.90625 
L 47.609375 25.390625 
L 58.015625 25.390625 
L 58.015625 17.1875 
L 47.609375 17.1875 
L 47.609375 0 
L 37.796875 0 
L 37.796875 17.1875 
L 4.890625 17.1875 
L 4.890625 26.703125 
z
" id="DejaVuSans-52"/>
       </defs>
       <use xlink:href="#DejaVuSans-52"/>
       <use x="63.623047" xlink:href="#DejaVuSans-48"/>
      </g>
     </g>
    </g>
    <g id="xtick_5">
     <g id="line2d_5">
      <g>
       <use style="stroke:#000000;stroke-width:0.8;" x="286.7049" xlink:href="#me220a45296" y="307.584"/>
      </g>
     </g>
     <g id="text_5">
      <!-- 60 -->
      <g transform="translate(280.3424 322.182437)scale(0.1 -0.1)">
       <defs>
        <path d="M 33.015625 40.375 
Q 26.375 40.375 22.484375 35.828125 
Q 18.609375 31.296875 18.609375 23.390625 
Q 18.609375 15.53125 22.484375 10.953125 
Q 26.375 6.390625 33.015625 6.390625 
Q 39.65625 6.390625 43.53125 10.953125 
Q 47.40625 15.53125 47.40625 23.390625 
Q 47.40625 31.296875 43.53125 35.828125 
Q 39.65625 40.375 33.015625 40.375 
z
M 52.59375 71.296875 
L 52.59375 62.3125 
Q 48.875 64.0625 45.09375 64.984375 
Q 41.3125 65.921875 37.59375 65.921875 
Q 27.828125 65.921875 22.671875 59.328125 
Q 17.53125 52.734375 16.796875 39.40625 
Q 19.671875 43.65625 24.015625 45.921875 
Q 28.375 48.1875 33.59375 48.1875 
Q 44.578125 48.1875 50.953125 41.515625 
Q 57.328125 34.859375 57.328125 23.390625 
Q 57.328125 12.15625 50.6875 5.359375 
Q 44.046875 -1.421875 33.015625 -1.421875 
Q 20.359375 -1.421875 13.671875 8.265625 
Q 6.984375 17.96875 6.984375 36.375 
Q 6.984375 53.65625 15.1875 63.9375 
Q 23.390625 74.21875 37.203125 74.21875 
Q 40.921875 74.21875 44.703125 73.484375 
Q 48.484375 72.75 52.59375 71.296875 
z
" id="DejaVuSans-54"/>
       </defs>
       <use xlink:href="#DejaVuSans-54"/>
       <use x="63.623047" xlink:href="#DejaVuSans-48"/>
      </g>
     </g>
    </g>
    <g id="xtick_6">
     <g id="line2d_6">
      <g>
       <use style="stroke:#000000;stroke-width:0.8;" x="343.928929" xlink:href="#me220a45296" y="307.584"/>
      </g>
     </g>
     <g id="text_6">
      <!-- 80 -->
      <g transform="translate(337.566429 322.182437)scale(0.1 -0.1)">
       <defs>
        <path d="M 31.78125 34.625 
Q 24.75 34.625 20.71875 30.859375 
Q 16.703125 27.09375 16.703125 20.515625 
Q 16.703125 13.921875 20.71875 10.15625 
Q 24.75 6.390625 31.78125 6.390625 
Q 38.8125 6.390625 42.859375 10.171875 
Q 46.921875 13.96875 46.921875 20.515625 
Q 46.921875 27.09375 42.890625 30.859375 
Q 38.875 34.625 31.78125 34.625 
z
M 21.921875 38.8125 
Q 15.578125 40.375 12.03125 44.71875 
Q 8.5 49.078125 8.5 55.328125 
Q 8.5 64.0625 14.71875 69.140625 
Q 20.953125 74.21875 31.78125 74.21875 
Q 42.671875 74.21875 48.875 69.140625 
Q 55.078125 64.0625 55.078125 55.328125 
Q 55.078125 49.078125 51.53125 44.71875 
Q 48 40.375 41.703125 38.8125 
Q 48.828125 37.15625 52.796875 32.3125 
Q 56.78125 27.484375 56.78125 20.515625 
Q 56.78125 9.90625 50.3125 4.234375 
Q 43.84375 -1.421875 31.78125 -1.421875 
Q 19.734375 -1.421875 13.25 4.234375 
Q 6.78125 9.90625 6.78125 20.515625 
Q 6.78125 27.484375 10.78125 32.3125 
Q 14.796875 37.15625 21.921875 38.8125 
z
M 18.3125 54.390625 
Q 18.3125 48.734375 21.84375 45.5625 
Q 25.390625 42.390625 31.78125 42.390625 
Q 38.140625 42.390625 41.71875 45.5625 
Q 45.3125 48.734375 45.3125 54.390625 
Q 45.3125 60.0625 41.71875 63.234375 
Q 38.140625 66.40625 31.78125 66.40625 
Q 25.390625 66.40625 21.84375 63.234375 
Q 18.3125 60.0625 18.3125 54.390625 
z
" id="DejaVuSans-56"/>
       </defs>
       <use xlink:href="#DejaVuSans-56"/>
       <use x="63.623047" xlink:href="#DejaVuSans-48"/>
      </g>
     </g>
    </g>
    <g id="xtick_7">
     <g id="line2d_7">
      <g>
       <use style="stroke:#000000;stroke-width:0.8;" x="401.152959" xlink:href="#me220a45296" y="307.584"/>
      </g>
     </g>
     <g id="text_7">
      <!-- 100 -->
      <g transform="translate(391.609209 322.182437)scale(0.1 -0.1)">
       <defs>
        <path d="M 12.40625 8.296875 
L 28.515625 8.296875 
L 28.515625 63.921875 
L 10.984375 60.40625 
L 10.984375 69.390625 
L 28.421875 72.90625 
L 38.28125 72.90625 
L 38.28125 8.296875 
L 54.390625 8.296875 
L 54.390625 0 
L 12.40625 0 
z
" id="DejaVuSans-49"/>
       </defs>
       <use xlink:href="#DejaVuSans-49"/>
       <use x="63.623047" xlink:href="#DejaVuSans-48"/>
       <use x="127.246094" xlink:href="#DejaVuSans-48"/>
      </g>
     </g>
    </g>
   </g>
   <g id="matplotlib.axis_2">
    <g id="ytick_1">
     <g id="line2d_8">
      <defs>
       <path d="M 0 0 
L -3.5 0 
" id="m08b40fb8e9" style="stroke:#000000;stroke-width:0.8;"/>
      </defs>
      <g>
       <use style="stroke:#000000;stroke-width:0.8;" x="57.6" xlink:href="#m08b40fb8e9" y="259.568074"/>
      </g>
     </g>
     <g id="text_8">
      <!-- 20 -->
      <g transform="translate(37.875 263.367292)scale(0.1 -0.1)">
       <use xlink:href="#DejaVuSans-50"/>
       <use x="63.623047" xlink:href="#DejaVuSans-48"/>
      </g>
     </g>
    </g>
    <g id="ytick_2">
     <g id="line2d_9">
      <g>
       <use style="stroke:#000000;stroke-width:0.8;" x="57.6" xlink:href="#m08b40fb8e9" y="202.344044"/>
      </g>
     </g>
     <g id="text_9">
      <!-- 40 -->
      <g transform="translate(37.875 206.143263)scale(0.1 -0.1)">
       <use xlink:href="#DejaVuSans-52"/>
       <use x="63.623047" xlink:href="#DejaVuSans-48"/>
      </g>
     </g>
    </g>
    <g id="ytick_3">
     <g id="line2d_10">
      <g>
       <use style="stroke:#000000;stroke-width:0.8;" x="57.6" xlink:href="#m08b40fb8e9" y="145.120015"/>
      </g>
     </g>
     <g id="text_10">
      <!-- 60 -->
      <g transform="translate(37.875 148.919234)scale(0.1 -0.1)">
       <use xlink:href="#DejaVuSans-54"/>
       <use x="63.623047" xlink:href="#DejaVuSans-48"/>
      </g>
     </g>
    </g>
    <g id="ytick_4">
     <g id="line2d_11">
      <g>
       <use style="stroke:#000000;stroke-width:0.8;" x="57.6" xlink:href="#m08b40fb8e9" y="87.895986"/>
      </g>
     </g>
     <g id="text_11">
      <!-- 80 -->
      <g transform="translate(37.875 91.695204)scale(0.1 -0.1)">
       <use xlink:href="#DejaVuSans-56"/>
       <use x="63.623047" xlink:href="#DejaVuSans-48"/>
      </g>
     </g>
    </g>
   </g>
   <g id="line2d_12">
    <path clip-path="url(#pc3f6138f0f)" d="M 251.566485 191.362753 
L 251.080081 188.424299 
L 250.733875 185.505874 
L 250.516424 182.601754 
L 250.422004 176.839294 
L 250.699541 171.119753 
L 251.257475 165.431684 
L 252.410539 156.91961 
L 254.038563 145.543473 
L 254.676611 139.809625 
L 255.074318 134.027137 
L 255.142987 128.196008 
L 254.811087 122.370602 
L 254.479188 119.480789 
L 254.024257 116.616726 
L 253.440572 113.786998 
L 252.719549 110.997326 
L 251.852605 108.262018 
L 250.834017 105.583933 
L 249.660925 102.968795 
L 248.33905 100.422326 
L 246.879837 97.941664 
L 245.294731 95.52681 
L 243.592316 93.180625 
L 241.784037 90.900247 
L 237.889942 86.542637 
L 233.689698 82.456842 
L 229.246252 78.662888 
L 226.937263 76.888944 
L 224.571049 75.21228 
L 222.141889 73.632896 
L 219.655505 72.1651 
L 217.109036 70.814613 
L 214.502481 69.590019 
L 211.83298 68.49704 
L 209.103394 67.541398 
L 206.319445 66.737401 
L 203.483994 66.079324 
L 200.614209 65.575753 
L 197.715812 65.223825 
L 194.800248 65.032125 
L 191.881822 65.000651 
L 188.966258 65.135128 
L 186.065 65.432693 
L 183.192353 65.899069 
L 180.354042 66.537117 
L 177.561509 67.346837 
L 174.823339 68.322506 
L 172.145255 69.461265 
L 169.535839 70.754528 
L 167.003675 72.199434 
L 164.557348 73.787401 
L 162.202579 75.518428 
L 159.947953 77.383931 
L 157.79919 79.378189 
L 155.767737 81.498339 
L 153.862177 83.735799 
L 152.08251 86.079123 
L 150.445903 88.519728 
L 148.952355 91.04903 
L 147.610452 93.652723 
L 146.431637 96.322224 
L 145.418772 99.048949 
L 144.58044 101.821453 
L 143.928086 104.628292 
L 143.46171 107.460881 
L 143.181312 110.310638 
L 143.069725 113.174701 
L 143.109782 116.050208 
L 143.278593 118.931438 
L 143.942392 124.69962 
L 144.918061 130.447774 
L 146.651949 138.979877 
L 149.198419 150.178619 
L 152.031008 161.328721 
L 154.402944 169.720625 
L 156.239836 175.239883 
L 158.405765 180.598913 
L 159.644665 183.194023 
L 161.009458 185.714741 
L 162.508728 188.155346 
L 164.15678 190.504393 
L 165.953615 192.753297 
L 167.887787 194.902059 
L 169.947852 196.947818 
L 172.122365 198.887713 
L 174.399881 200.716021 
L 176.768956 202.432742 
L 179.218145 204.037876 
L 181.736002 205.522839 
L 184.311083 206.887632 
L 186.934805 208.129394 
L 189.595722 209.256707 
L 195.026283 211.19374 
L 200.565569 212.775985 
L 206.18783 214.077832 
L 211.858731 215.182255 
L 234.539475 219.236578 
L 240.121679 220.607093 
L 245.629492 222.286619 
L 251.045746 224.286598 
L 256.344691 226.598449 
L 261.503438 229.202143 
L 266.499095 232.091956 
L 271.314497 235.242139 
L 275.978256 238.606912 
L 282.785054 243.925885 
L 305.128176 262.097376 
L 311.697495 267.67958 
L 318.083697 273.462068 
L 322.203827 277.46775 
L 326.195203 281.619353 
L 330.032074 285.94549 
L 331.886132 288.180088 
L 331.886132 288.180088 
" style="fill:none;stroke:#fea952;stroke-linecap:square;"/>
   </g>
   <g id="line2d_13">
    <path clip-path="url(#pc3f6138f0f)" d="M 240.275325 193.231786 
L 239.714963 189.772514 
L 239.321018 186.360432 
L 239.078497 182.998511 
L 238.971499 179.692026 
L 239.097215 173.254199 
L 239.570755 167.035402 
L 240.272196 161.04856 
L 243.269487 138.881665 
L 243.633839 133.712468 
L 243.706537 128.633284 
L 243.441026 123.676471 
L 242.815418 118.928762 
L 241.809609 114.455184 
L 241.155403 112.330612 
L 240.391702 110.268123 
L 239.503166 108.241699 
L 238.47438 106.225073 
L 237.312081 104.221921 
L 236.031582 102.248242 
L 233.113523 98.370573 
L 229.780504 94.618565 
L 226.116826 91.037936 
L 222.273667 87.738495 
L 218.332571 84.807329 
L 214.293315 82.27601 
L 210.166008 80.181458 
L 208.051175 79.298962 
L 205.927934 78.536853 
L 203.732006 77.885887 
L 201.505955 77.351899 
L 199.234695 76.937114 
L 196.964929 76.643972 
L 194.676831 76.476265 
L 192.409138 76.433303 
L 190.133958 76.520208 
L 187.899057 76.729587 
L 185.702485 77.065215 
L 183.541284 77.529162 
L 181.402963 78.127691 
L 179.301774 78.854705 
L 177.227515 79.715737 
L 175.208004 80.694856 
L 173.23504 81.799105 
L 171.336072 83.008707 
L 169.498502 84.3362 
L 167.733441 85.7726 
L 166.062902 87.296185 
L 164.480833 88.918955 
L 162.976457 90.657755 
L 161.587985 92.453252 
L 160.300815 94.339031 
L 159.125531 96.292128 
L 158.079923 98.275898 
L 157.160182 100.307434 
L 156.373725 102.361437 
L 155.728122 104.412352 
L 155.22085 106.487606 
L 154.851514 108.581565 
L 154.617441 110.756201 
L 154.513421 113.015286 
L 154.667492 117.801587 
L 155.245136 122.901967 
L 156.151288 128.257295 
L 157.834824 136.545355 
L 160.316126 147.461972 
L 163.07748 158.335557 
L 165.307813 166.246806 
L 166.927323 171.14584 
L 168.733982 175.668243 
L 169.708988 177.744895 
L 170.76123 179.724204 
L 171.877703 181.582228 
L 173.09811 183.36043 
L 174.459909 185.0965 
L 175.95224 186.781211 
L 177.566699 188.407517 
L 179.286909 189.962866 
L 181.11541 191.448591 
L 183.042359 192.86049 
L 185.032148 194.179836 
L 189.207053 196.542921 
L 193.627951 198.545745 
L 198.323267 200.234111 
L 203.266512 201.654452 
L 208.454128 202.859656 
L 213.832141 203.908869 
L 237.127099 208.088135 
L 243.297366 209.611704 
L 249.442114 211.495535 
L 255.473311 213.732914 
L 261.353878 216.308083 
L 267.092301 219.214741 
L 272.641323 222.435009 
L 277.9181 225.894625 
L 282.91773 229.505962 
L 289.980218 235.025706 
L 312.471747 253.319247 
L 319.279048 259.106154 
L 325.997712 265.194545 
L 330.375805 269.455114 
L 334.680592 273.939396 
L 338.839912 278.637578 
L 340.69397 280.872177 
L 340.69397 280.872177 
" style="fill:none;stroke:#ffffff;stroke-linecap:square;"/>
   </g>
   <g id="line2d_14">
    <path clip-path="url(#pc3f6138f0f)" d="M 262.857645 189.49372 
L 262.445198 187.076084 
L 261.954351 182.204998 
L 261.860214 177.227805 
L 262.100847 172.116651 
L 262.613903 166.851238 
L 263.731474 158.598901 
L 265.401846 146.907067 
L 266.083735 140.737586 
L 266.514797 134.341806 
L 266.579436 127.758732 
L 266.443479 124.412691 
L 266.181148 121.064734 
L 265.782291 117.685391 
L 265.233096 114.30469 
L 264.521253 110.923068 
L 263.62949 107.539469 
L 262.549807 104.193424 
L 261.276333 100.899744 
L 259.818684 97.695891 
L 258.203719 94.619579 
L 256.447593 91.661407 
L 254.557881 88.805378 
L 252.559862 86.069597 
L 250.454551 83.429921 
L 248.273125 80.909498 
L 245.999379 78.46671 
L 241.26257 73.875747 
L 236.218837 69.587282 
L 233.554125 67.550812 
L 230.809527 65.61723 
L 227.959994 63.777277 
L 225.017695 62.05419 
L 221.975628 60.456048 
L 218.838954 58.99858 
L 215.614785 57.695117 
L 212.278854 56.545943 
L 208.906884 55.588915 
L 205.462033 54.80675 
L 201.993723 54.214392 
L 198.466695 53.803678 
L 194.923665 53.587984 
L 191.354507 53.568 
L 187.798557 53.750047 
L 184.230942 54.135799 
L 180.682222 54.732923 
L 177.166799 55.545071 
L 173.720055 56.565983 
L 170.344904 57.790308 
L 167.062994 59.206792 
L 163.863674 60.814199 
L 160.77231 62.599764 
L 157.778624 64.566095 
L 154.906657 66.700657 
L 152.162464 68.995263 
L 149.535479 71.460193 
L 147.054642 74.077723 
L 144.747897 76.813842 
L 142.577034 79.704994 
L 140.590991 82.700424 
L 138.77918 85.805931 
L 137.14098 89.029548 
L 135.703092 92.337014 
L 134.463818 95.73646 
L 133.432757 99.230554 
L 132.635321 102.768978 
L 132.071905 106.340198 
L 131.745183 109.865074 
L 131.62603 113.334115 
L 131.684569 116.71961 
L 131.889694 120.061289 
L 132.639648 126.497273 
L 133.684835 132.638253 
L 135.469075 141.414399 
L 138.080712 152.895266 
L 140.984536 164.321886 
L 143.498075 173.194444 
L 145.552348 179.333926 
L 146.745034 182.426013 
L 148.077548 185.529584 
L 149.580343 188.643151 
L 151.257687 191.705279 
L 153.139752 194.728464 
L 155.21545 197.648356 
L 157.447321 200.410094 
L 159.823333 203.022907 
L 162.329004 205.488119 
L 164.957821 207.81256 
L 167.684352 209.98345 
L 170.495553 212.004993 
L 173.404141 213.895915 
L 176.376472 215.635159 
L 179.415113 217.232344 
L 182.470276 218.667494 
L 185.563494 219.967669 
L 188.637217 221.117374 
L 194.795279 223.071034 
L 200.907248 224.633742 
L 206.911273 225.898853 
L 215.688394 227.453229 
L 226.732095 229.333756 
L 231.951851 230.385021 
L 236.945992 231.602483 
L 241.816869 233.077702 
L 246.618181 234.840283 
L 251.335504 236.888815 
L 255.914574 239.189544 
L 260.356868 241.748903 
L 264.710895 244.589652 
L 269.038782 247.707861 
L 275.58989 252.826065 
L 297.784605 270.875505 
L 304.115942 276.253006 
L 310.169681 281.729591 
L 314.031848 285.480387 
L 317.709814 289.299311 
L 321.224236 293.253402 
L 323.078295 295.488 
L 323.078295 295.488 
" style="fill:none;stroke:#ffffff;stroke-linecap:square;"/>
   </g>
   <g id="patch_3">
    <path d="M 57.6 307.584 
L 57.6 41.472 
" style="fill:none;stroke:#000000;stroke-linecap:square;stroke-linejoin:miter;stroke-width:0.8;"/>
   </g>
   <g id="patch_4">
    <path d="M 414.72 307.584 
L 414.72 41.472 
" style="fill:none;stroke:#000000;stroke-linecap:square;stroke-linejoin:miter;stroke-width:0.8;"/>
   </g>
   <g id="patch_5">
    <path d="M 57.6 307.584 
L 414.72 307.584 
" style="fill:none;stroke:#000000;stroke-linecap:square;stroke-linejoin:miter;stroke-width:0.8;"/>
   </g>
   <g id="patch_6">
    <path d="M 57.6 41.472 
L 414.72 41.472 
" style="fill:none;stroke:#000000;stroke-linecap:square;stroke-linejoin:miter;stroke-width:0.8;"/>
   </g>
  </g>
 </g>
 <defs>
  <clipPath id="pc3f6138f0f">
   <rect height="266.112" width="357.12" x="57.6" y="41.472"/>
  </clipPath>
 </defs>
</svg>
