<?xml version="1.0" encoding="utf-8" standalone="no"?>
<!DOCTYPE svg PUBLIC "-//W3C//DTD SVG 1.1//EN"
  "http://www.w3.org/Graphics/SVG/1.1/DTD/svg11.dtd">
<!-- Created with matplotlib (https://matplotlib.org/) -->
<svg height="345.6pt" version="1.1" viewBox="0 0 460.8 345.6" width="460.8pt" xmlns="http://www.w3.org/2000/svg" xmlns:xlink="http://www.w3.org/1999/xlink">
 <metadata>
  <rdf:RDF xmlns:cc="http://creativecommons.org/ns#" xmlns:dc="http://purl.org/dc/elements/1.1/" xmlns:rdf="http://www.w3.org/1999/02/22-rdf-syntax-ns#">
   <cc:Work>
    <dc:type rdf:resource="http://purl.org/dc/dcmitype/StillImage"/>
    <dc:date>2021-01-22T11:40:41.880329</dc:date>
    <dc:format>image/svg+xml</dc:format>
    <dc:creator>
     <cc:Agent>
      <dc:title>Matplotlib v3.3.3, https://matplotlib.org/</dc:title>
     </cc:Agent>
    </dc:creator>
   </cc:Work>
  </rdf:RDF>
 </metadata>
 <defs>
  <style type="text/css">*{stroke-linecap:butt;stroke-linejoin:round;}</style>
 </defs>
 <g id="figure_1">
  <g id="patch_1">
   <path d="M 0 345.6 
L 460.8 345.6 
L 460.8 0 
L 0 0 
z
" style="fill:#ffffff;"/>
  </g>
  <g id="axes_1">
   <g id="patch_2">
    <path d="M 57.6 307.584 
L 414.72 307.584 
L 414.72 41.472 
L 57.6 41.472 
z
" style="fill:#7d9051;"/>
   </g>
   <g id="matplotlib.axis_1">
    <g id="xtick_1">
     <g id="line2d_1">
      <defs>
       <path d="M 0 0 
L 0 3.5 
" id="m378f495c26" style="stroke:#000000;stroke-width:0.8;"/>
      </defs>
      <g>
       <use style="stroke:#000000;stroke-width:0.8;" x="68.437285" xlink:href="#m378f495c26" y="307.584"/>
      </g>
     </g>
     <g id="text_1">
      <!-- −40 -->
      <g transform="translate(57.884942 322.182437)scale(0.1 -0.1)">
       <defs>
        <path d="M 10.59375 35.5 
L 73.1875 35.5 
L 73.1875 27.203125 
L 10.59375 27.203125 
z
" id="DejaVuSans-8722"/>
        <path d="M 37.796875 64.3125 
L 12.890625 25.390625 
L 37.796875 25.390625 
z
M 35.203125 72.90625 
L 47.609375 72.90625 
L 47.609375 25.390625 
L 58.015625 25.390625 
L 58.015625 17.1875 
L 47.609375 17.1875 
L 47.609375 0 
L 37.796875 0 
L 37.796875 17.1875 
L 4.890625 17.1875 
L 4.890625 26.703125 
z
" id="DejaVuSans-52"/>
        <path d="M 31.78125 66.40625 
Q 24.171875 66.40625 20.328125 58.90625 
Q 16.5 51.421875 16.5 36.375 
Q 16.5 21.390625 20.328125 13.890625 
Q 24.171875 6.390625 31.78125 6.390625 
Q 39.453125 6.390625 43.28125 13.890625 
Q 47.125 21.390625 47.125 36.375 
Q 47.125 51.421875 43.28125 58.90625 
Q 39.453125 66.40625 31.78125 66.40625 
z
M 31.78125 74.21875 
Q 44.046875 74.21875 50.515625 64.515625 
Q 56.984375 54.828125 56.984375 36.375 
Q 56.984375 17.96875 50.515625 8.265625 
Q 44.046875 -1.421875 31.78125 -1.421875 
Q 19.53125 -1.421875 13.0625 8.265625 
Q 6.59375 17.96875 6.59375 36.375 
Q 6.59375 54.828125 13.0625 64.515625 
Q 19.53125 74.21875 31.78125 74.21875 
z
" id="DejaVuSans-48"/>
       </defs>
       <use xlink:href="#DejaVuSans-8722"/>
       <use x="83.789062" xlink:href="#DejaVuSans-52"/>
       <use x="147.412109" xlink:href="#DejaVuSans-48"/>
      </g>
     </g>
    </g>
    <g id="xtick_2">
     <g id="line2d_2">
      <g>
       <use style="stroke:#000000;stroke-width:0.8;" x="109.715605" xlink:href="#m378f495c26" y="307.584"/>
      </g>
     </g>
     <g id="text_2">
      <!-- −20 -->
      <g transform="translate(99.163261 322.182437)scale(0.1 -0.1)">
       <defs>
        <path d="M 19.1875 8.296875 
L 53.609375 8.296875 
L 53.609375 0 
L 7.328125 0 
L 7.328125 8.296875 
Q 12.9375 14.109375 22.625 23.890625 
Q 32.328125 33.6875 34.8125 36.53125 
Q 39.546875 41.84375 41.421875 45.53125 
Q 43.3125 49.21875 43.3125 52.78125 
Q 43.3125 58.59375 39.234375 62.25 
Q 35.15625 65.921875 28.609375 65.921875 
Q 23.96875 65.921875 18.8125 64.3125 
Q 13.671875 62.703125 7.8125 59.421875 
L 7.8125 69.390625 
Q 13.765625 71.78125 18.9375 73 
Q 24.125 74.21875 28.421875 74.21875 
Q 39.75 74.21875 46.484375 68.546875 
Q 53.21875 62.890625 53.21875 53.421875 
Q 53.21875 48.921875 51.53125 44.890625 
Q 49.859375 40.875 45.40625 35.40625 
Q 44.1875 33.984375 37.640625 27.21875 
Q 31.109375 20.453125 19.1875 8.296875 
z
" id="DejaVuSans-50"/>
       </defs>
       <use xlink:href="#DejaVuSans-8722"/>
       <use x="83.789062" xlink:href="#DejaVuSans-50"/>
       <use x="147.412109" xlink:href="#DejaVuSans-48"/>
      </g>
     </g>
    </g>
    <g id="xtick_3">
     <g id="line2d_3">
      <g>
       <use style="stroke:#000000;stroke-width:0.8;" x="150.993925" xlink:href="#m378f495c26" y="307.584"/>
      </g>
     </g>
     <g id="text_3">
      <!-- 0 -->
      <g transform="translate(147.812675 322.182437)scale(0.1 -0.1)">
       <use xlink:href="#DejaVuSans-48"/>
      </g>
     </g>
    </g>
    <g id="xtick_4">
     <g id="line2d_4">
      <g>
       <use style="stroke:#000000;stroke-width:0.8;" x="192.272245" xlink:href="#m378f495c26" y="307.584"/>
      </g>
     </g>
     <g id="text_4">
      <!-- 20 -->
      <g transform="translate(185.909745 322.182437)scale(0.1 -0.1)">
       <use xlink:href="#DejaVuSans-50"/>
       <use x="63.623047" xlink:href="#DejaVuSans-48"/>
      </g>
     </g>
    </g>
    <g id="xtick_5">
     <g id="line2d_5">
      <g>
       <use style="stroke:#000000;stroke-width:0.8;" x="233.550565" xlink:href="#m378f495c26" y="307.584"/>
      </g>
     </g>
     <g id="text_5">
      <!-- 40 -->
      <g transform="translate(227.188065 322.182437)scale(0.1 -0.1)">
       <use xlink:href="#DejaVuSans-52"/>
       <use x="63.623047" xlink:href="#DejaVuSans-48"/>
      </g>
     </g>
    </g>
    <g id="xtick_6">
     <g id="line2d_6">
      <g>
       <use style="stroke:#000000;stroke-width:0.8;" x="274.828884" xlink:href="#m378f495c26" y="307.584"/>
      </g>
     </g>
     <g id="text_6">
      <!-- 60 -->
      <g transform="translate(268.466384 322.182437)scale(0.1 -0.1)">
       <defs>
        <path d="M 33.015625 40.375 
Q 26.375 40.375 22.484375 35.828125 
Q 18.609375 31.296875 18.609375 23.390625 
Q 18.609375 15.53125 22.484375 10.953125 
Q 26.375 6.390625 33.015625 6.390625 
Q 39.65625 6.390625 43.53125 10.953125 
Q 47.40625 15.53125 47.40625 23.390625 
Q 47.40625 31.296875 43.53125 35.828125 
Q 39.65625 40.375 33.015625 40.375 
z
M 52.59375 71.296875 
L 52.59375 62.3125 
Q 48.875 64.0625 45.09375 64.984375 
Q 41.3125 65.921875 37.59375 65.921875 
Q 27.828125 65.921875 22.671875 59.328125 
Q 17.53125 52.734375 16.796875 39.40625 
Q 19.671875 43.65625 24.015625 45.921875 
Q 28.375 48.1875 33.59375 48.1875 
Q 44.578125 48.1875 50.953125 41.515625 
Q 57.328125 34.859375 57.328125 23.390625 
Q 57.328125 12.15625 50.6875 5.359375 
Q 44.046875 -1.421875 33.015625 -1.421875 
Q 20.359375 -1.421875 13.671875 8.265625 
Q 6.984375 17.96875 6.984375 36.375 
Q 6.984375 53.65625 15.1875 63.9375 
Q 23.390625 74.21875 37.203125 74.21875 
Q 40.921875 74.21875 44.703125 73.484375 
Q 48.484375 72.75 52.59375 71.296875 
z
" id="DejaVuSans-54"/>
       </defs>
       <use xlink:href="#DejaVuSans-54"/>
       <use x="63.623047" xlink:href="#DejaVuSans-48"/>
      </g>
     </g>
    </g>
    <g id="xtick_7">
     <g id="line2d_7">
      <g>
       <use style="stroke:#000000;stroke-width:0.8;" x="316.107204" xlink:href="#m378f495c26" y="307.584"/>
      </g>
     </g>
     <g id="text_7">
      <!-- 80 -->
      <g transform="translate(309.744704 322.182437)scale(0.1 -0.1)">
       <defs>
        <path d="M 31.78125 34.625 
Q 24.75 34.625 20.71875 30.859375 
Q 16.703125 27.09375 16.703125 20.515625 
Q 16.703125 13.921875 20.71875 10.15625 
Q 24.75 6.390625 31.78125 6.390625 
Q 38.8125 6.390625 42.859375 10.171875 
Q 46.921875 13.96875 46.921875 20.515625 
Q 46.921875 27.09375 42.890625 30.859375 
Q 38.875 34.625 31.78125 34.625 
z
M 21.921875 38.8125 
Q 15.578125 40.375 12.03125 44.71875 
Q 8.5 49.078125 8.5 55.328125 
Q 8.5 64.0625 14.71875 69.140625 
Q 20.953125 74.21875 31.78125 74.21875 
Q 42.671875 74.21875 48.875 69.140625 
Q 55.078125 64.0625 55.078125 55.328125 
Q 55.078125 49.078125 51.53125 44.71875 
Q 48 40.375 41.703125 38.8125 
Q 48.828125 37.15625 52.796875 32.3125 
Q 56.78125 27.484375 56.78125 20.515625 
Q 56.78125 9.90625 50.3125 4.234375 
Q 43.84375 -1.421875 31.78125 -1.421875 
Q 19.734375 -1.421875 13.25 4.234375 
Q 6.78125 9.90625 6.78125 20.515625 
Q 6.78125 27.484375 10.78125 32.3125 
Q 14.796875 37.15625 21.921875 38.8125 
z
M 18.3125 54.390625 
Q 18.3125 48.734375 21.84375 45.5625 
Q 25.390625 42.390625 31.78125 42.390625 
Q 38.140625 42.390625 41.71875 45.5625 
Q 45.3125 48.734375 45.3125 54.390625 
Q 45.3125 60.0625 41.71875 63.234375 
Q 38.140625 66.40625 31.78125 66.40625 
Q 25.390625 66.40625 21.84375 63.234375 
Q 18.3125 60.0625 18.3125 54.390625 
z
" id="DejaVuSans-56"/>
       </defs>
       <use xlink:href="#DejaVuSans-56"/>
       <use x="63.623047" xlink:href="#DejaVuSans-48"/>
      </g>
     </g>
    </g>
    <g id="xtick_8">
     <g id="line2d_8">
      <g>
       <use style="stroke:#000000;stroke-width:0.8;" x="357.385524" xlink:href="#m378f495c26" y="307.584"/>
      </g>
     </g>
     <g id="text_8">
      <!-- 100 -->
      <g transform="translate(347.841774 322.182437)scale(0.1 -0.1)">
       <defs>
        <path d="M 12.40625 8.296875 
L 28.515625 8.296875 
L 28.515625 63.921875 
L 10.984375 60.40625 
L 10.984375 69.390625 
L 28.421875 72.90625 
L 38.28125 72.90625 
L 38.28125 8.296875 
L 54.390625 8.296875 
L 54.390625 0 
L 12.40625 0 
z
" id="DejaVuSans-49"/>
       </defs>
       <use xlink:href="#DejaVuSans-49"/>
       <use x="63.623047" xlink:href="#DejaVuSans-48"/>
       <use x="127.246094" xlink:href="#DejaVuSans-48"/>
      </g>
     </g>
    </g>
    <g id="xtick_9">
     <g id="line2d_9">
      <g>
       <use style="stroke:#000000;stroke-width:0.8;" x="398.663844" xlink:href="#m378f495c26" y="307.584"/>
      </g>
     </g>
     <g id="text_9">
      <!-- 120 -->
      <g transform="translate(389.120094 322.182437)scale(0.1 -0.1)">
       <use xlink:href="#DejaVuSans-49"/>
       <use x="63.623047" xlink:href="#DejaVuSans-50"/>
       <use x="127.246094" xlink:href="#DejaVuSans-48"/>
      </g>
     </g>
    </g>
   </g>
   <g id="matplotlib.axis_2">
    <g id="ytick_1">
     <g id="line2d_10">
      <defs>
       <path d="M 0 0 
L -3.5 0 
" id="m9718b13770" style="stroke:#000000;stroke-width:0.8;"/>
      </defs>
      <g>
       <use style="stroke:#000000;stroke-width:0.8;" x="57.6" xlink:href="#m9718b13770" y="273.189913"/>
      </g>
     </g>
     <g id="text_10">
      <!-- 20 -->
      <g transform="translate(37.875 276.989132)scale(0.1 -0.1)">
       <use xlink:href="#DejaVuSans-50"/>
       <use x="63.623047" xlink:href="#DejaVuSans-48"/>
      </g>
     </g>
    </g>
    <g id="ytick_2">
     <g id="line2d_11">
      <g>
       <use style="stroke:#000000;stroke-width:0.8;" x="57.6" xlink:href="#m9718b13770" y="231.911593"/>
      </g>
     </g>
     <g id="text_11">
      <!-- 40 -->
      <g transform="translate(37.875 235.710812)scale(0.1 -0.1)">
       <use xlink:href="#DejaVuSans-52"/>
       <use x="63.623047" xlink:href="#DejaVuSans-48"/>
      </g>
     </g>
    </g>
    <g id="ytick_3">
     <g id="line2d_12">
      <g>
       <use style="stroke:#000000;stroke-width:0.8;" x="57.6" xlink:href="#m9718b13770" y="190.633273"/>
      </g>
     </g>
     <g id="text_12">
      <!-- 60 -->
      <g transform="translate(37.875 194.432492)scale(0.1 -0.1)">
       <use xlink:href="#DejaVuSans-54"/>
       <use x="63.623047" xlink:href="#DejaVuSans-48"/>
      </g>
     </g>
    </g>
    <g id="ytick_4">
     <g id="line2d_13">
      <g>
       <use style="stroke:#000000;stroke-width:0.8;" x="57.6" xlink:href="#m9718b13770" y="149.354953"/>
      </g>
     </g>
     <g id="text_13">
      <!-- 80 -->
      <g transform="translate(37.875 153.154172)scale(0.1 -0.1)">
       <use xlink:href="#DejaVuSans-56"/>
       <use x="63.623047" xlink:href="#DejaVuSans-48"/>
      </g>
     </g>
    </g>
    <g id="ytick_5">
     <g id="line2d_14">
      <g>
       <use style="stroke:#000000;stroke-width:0.8;" x="57.6" xlink:href="#m9718b13770" y="108.076633"/>
      </g>
     </g>
     <g id="text_14">
      <!-- 100 -->
      <g transform="translate(31.5125 111.875852)scale(0.1 -0.1)">
       <use xlink:href="#DejaVuSans-49"/>
       <use x="63.623047" xlink:href="#DejaVuSans-48"/>
       <use x="127.246094" xlink:href="#DejaVuSans-48"/>
      </g>
     </g>
    </g>
    <g id="ytick_6">
     <g id="line2d_15">
      <g>
       <use style="stroke:#000000;stroke-width:0.8;" x="57.6" xlink:href="#m9718b13770" y="66.798314"/>
      </g>
     </g>
     <g id="text_15">
      <!-- 120 -->
      <g transform="translate(31.5125 70.597532)scale(0.1 -0.1)">
       <use xlink:href="#DejaVuSans-49"/>
       <use x="63.623047" xlink:href="#DejaVuSans-50"/>
       <use x="127.246094" xlink:href="#DejaVuSans-48"/>
      </g>
     </g>
    </g>
   </g>
   <g id="line2d_16">
    <path clip-path="url(#pd2c97b7b76)" d="M 171.633085 138.075652 
L 171.197599 133.881775 
L 170.997399 129.725048 
L 171.018038 125.603408 
L 171.240941 121.508599 
L 171.649596 117.436492 
L 172.225429 113.382961 
L 173.366774 107.32124 
L 174.790876 101.269839 
L 176.435817 95.212245 
L 177.678295 91.197929 
L 179.11478 87.27236 
L 180.821639 83.50365 
L 181.799935 81.697723 
L 182.873171 79.957842 
L 184.053731 78.28607 
L 185.343679 76.696855 
L 186.74095 75.186068 
L 188.235225 73.755774 
L 189.816185 72.403909 
L 193.205135 69.945786 
L 196.835563 67.809632 
L 200.633168 65.99545 
L 204.536034 64.505303 
L 208.521455 63.33919 
L 212.57705 62.503304 
L 216.690435 61.995581 
L 220.845098 61.822212 
L 225.026592 61.987325 
L 229.181254 62.513624 
L 233.257489 63.425875 
L 235.247104 64.032666 
L 237.197504 64.746781 
L 239.098371 65.572348 
L 240.945576 66.507302 
L 242.732927 67.557835 
L 244.456297 68.715692 
L 246.111557 69.97468 
L 247.698709 71.326545 
L 250.6563 74.284137 
L 253.308432 77.528613 
L 255.638594 81.004247 
L 257.630272 84.655315 
L 259.306172 88.446728 
L 260.695188 92.353721 
L 261.826214 96.343271 
L 262.724017 100.388546 
L 263.733272 106.501866 
L 265.215164 116.709994 
L 265.997388 120.765589 
L 267.006643 124.786097 
L 268.25944 128.744688 
L 269.755779 132.618659 
L 271.497724 136.379113 
L 273.485275 139.999222 
L 275.708113 143.464537 
L 278.110511 146.812209 
L 283.183616 153.342439 
L 286.960583 158.28139 
L 289.356789 161.664148 
L 291.612649 165.135655 
L 293.697204 168.704166 
L 295.577432 172.382064 
L 297.218245 176.175542 
L 298.601069 180.082535 
L 299.715583 184.08034 
L 300.547342 188.148318 
L 301.090151 192.263767 
L 301.33163 196.403982 
L 301.275904 200.552453 
L 300.937422 204.686477 
L 300.326503 208.787478 
L 299.463786 212.841009 
L 298.359591 216.824367 
L 297.049004 220.737552 
L 294.807591 226.512389 
L 285.377559 249.419792 
L 282.583017 257.213139 
L 280.733748 263.146898 
L 279.677023 267.142639 
L 278.808114 271.169339 
L 278.155917 275.226998 
L 277.755517 279.311488 
L 277.644066 283.426936 
L 277.854585 287.567152 
L 278.422162 291.736262 
L 278.851457 293.829073 
L 278.851457 293.829073 
" style="fill:none;stroke:#fea952;stroke-linecap:square;"/>
   </g>
   <g id="line2d_17">
    <path clip-path="url(#pd2c97b7b76)" d="M 163.435015 139.049123 
L 162.95798 134.396241 
L 162.741999 129.791092 
L 162.769734 125.254888 
L 163.01783 120.776176 
L 163.465193 116.35412 
L 164.088463 111.988053 
L 165.307508 105.531209 
L 166.802293 99.186926 
L 168.526543 92.845946 
L 169.882825 88.480092 
L 171.523656 84.027237 
L 173.562645 79.571349 
L 174.773513 77.363513 
L 176.129482 75.195632 
L 177.643849 73.083244 
L 179.282788 71.091359 
L 181.032391 69.222148 
L 182.869934 67.481251 
L 184.800373 65.846653 
L 186.799191 64.331114 
L 188.858056 62.927318 
L 193.124124 60.435271 
L 197.53204 58.344373 
L 202.060979 56.629384 
L 206.695736 55.287934 
L 211.400307 54.331936 
L 216.181592 53.755614 
L 220.999915 53.568 
L 225.880253 53.775916 
L 228.332213 54.039174 
L 230.78622 54.415472 
L 233.233158 54.910565 
L 235.665784 55.529287 
L 238.085538 56.280294 
L 240.486246 57.174452 
L 242.826584 58.206452 
L 245.128849 59.389984 
L 247.336936 60.705165 
L 249.454153 62.144739 
L 251.464728 63.689813 
L 253.383507 65.339972 
L 255.199787 67.079866 
L 256.916426 68.902055 
L 258.542302 70.808805 
L 260.056423 72.772499 
L 261.478794 74.806235 
L 262.799456 76.895958 
L 265.11498 81.171763 
L 267.035854 85.547071 
L 268.602454 89.980721 
L 269.862634 94.453315 
L 270.845194 98.904473 
L 271.908747 105.353996 
L 273.338981 115.240442 
L 274.033377 118.8738 
L 274.914586 122.415355 
L 276.006505 125.891801 
L 277.304297 129.275626 
L 278.804385 132.536107 
L 280.504602 135.65353 
L 282.467138 138.724119 
L 284.690193 141.82585 
L 289.689156 148.259729 
L 293.65566 153.451077 
L 296.228448 157.088529 
L 298.683811 160.874827 
L 300.990046 164.835 
L 303.097905 168.976411 
L 304.952314 173.287607 
L 306.513513 177.726859 
L 307.773302 182.283354 
L 308.710763 186.917652 
L 309.321547 191.631214 
L 309.587191 196.36291 
L 309.514252 201.086877 
L 309.121525 205.771117 
L 308.426863 210.381261 
L 307.449653 214.934312 
L 306.21681 219.358155 
L 304.789149 223.609162 
L 302.429422 229.684718 
L 293.112312 252.305894 
L 290.427274 259.786779 
L 288.693166 265.338621 
L 287.724048 268.986921 
L 286.938323 272.603107 
L 286.357167 276.173296 
L 286.002751 279.684478 
L 285.895774 283.171389 
L 286.057041 286.631356 
L 286.509433 290.077335 
L 286.938727 292.170145 
L 286.938727 292.170145 
" style="fill:none;stroke:#ffffff;stroke-linecap:square;"/>
   </g>
   <g id="line2d_18">
    <path clip-path="url(#pd2c97b7b76)" d="M 179.831154 137.102182 
L 179.437217 133.367309 
L 179.252799 129.659005 
L 179.266342 125.951928 
L 179.464051 122.241022 
L 179.833999 118.518865 
L 180.684263 112.893253 
L 181.850633 107.196583 
L 183.283443 101.418023 
L 184.901563 95.7134 
L 186.075973 92.176646 
L 187.375787 88.931342 
L 188.826357 86.031934 
L 190.463613 83.488896 
L 192.449509 81.149988 
L 194.831997 78.961166 
L 197.552214 76.964254 
L 200.547002 75.183994 
L 203.734297 73.646528 
L 207.011088 72.381222 
L 210.347174 71.390447 
L 213.753793 70.674673 
L 217.199277 70.235549 
L 220.69028 70.076424 
L 224.17293 70.198735 
L 227.576289 70.611776 
L 230.849193 71.322463 
L 233.908762 72.31911 
L 236.762302 73.624619 
L 239.45844 75.286644 
L 242.013911 77.313119 
L 244.396174 79.666219 
L 246.560442 82.284726 
L 248.477731 85.112536 
L 250.145565 88.138867 
L 251.576491 91.346386 
L 252.787922 94.726722 
L 253.789793 98.233227 
L 254.60284 101.872619 
L 255.557798 107.649735 
L 257.091347 118.179546 
L 257.961399 122.657378 
L 259.098699 127.15684 
L 260.512375 131.597576 
L 262.207261 135.961691 
L 264.191063 140.22212 
L 266.465948 144.344914 
L 268.949087 148.204955 
L 271.530829 151.798568 
L 276.678077 158.425149 
L 280.265505 163.111703 
L 283.531893 167.808057 
L 285.495079 170.973102 
L 287.25814 174.174449 
L 288.798047 177.412671 
L 290.113961 180.736149 
L 291.203435 184.149708 
L 292.05119 187.617132 
L 292.653577 191.129821 
L 292.999953 194.660461 
L 293.090467 198.215484 
L 292.926168 201.807967 
L 292.520098 205.394245 
L 291.878816 208.979358 
L 291.015685 212.523976 
L 289.927629 216.079623 
L 288.634124 219.687243 
L 286.412521 225.198321 
L 279.947695 240.610728 
L 276.897773 248.531124 
L 274.73876 254.639499 
L 272.77433 260.955174 
L 271.629998 265.298357 
L 270.677905 269.735571 
L 269.954667 274.2807 
L 269.508283 278.938497 
L 269.392358 283.682483 
L 269.65213 288.502948 
L 270.334891 293.395189 
L 270.764186 295.488 
L 270.764186 295.488 
" style="fill:none;stroke:#ffffff;stroke-linecap:square;"/>
   </g>
   <g id="patch_3">
    <path d="M 57.6 307.584 
L 57.6 41.472 
" style="fill:none;stroke:#000000;stroke-linecap:square;stroke-linejoin:miter;stroke-width:0.8;"/>
   </g>
   <g id="patch_4">
    <path d="M 414.72 307.584 
L 414.72 41.472 
" style="fill:none;stroke:#000000;stroke-linecap:square;stroke-linejoin:miter;stroke-width:0.8;"/>
   </g>
   <g id="patch_5">
    <path d="M 57.6 307.584 
L 414.72 307.584 
" style="fill:none;stroke:#000000;stroke-linecap:square;stroke-linejoin:miter;stroke-width:0.8;"/>
   </g>
   <g id="patch_6">
    <path d="M 57.6 41.472 
L 414.72 41.472 
" style="fill:none;stroke:#000000;stroke-linecap:square;stroke-linejoin:miter;stroke-width:0.8;"/>
   </g>
  </g>
 </g>
 <defs>
  <clipPath id="pd2c97b7b76">
   <rect height="266.112" width="357.12" x="57.6" y="41.472"/>
  </clipPath>
 </defs>
</svg>
