<?xml version="1.0" encoding="utf-8" standalone="no"?>
<!DOCTYPE svg PUBLIC "-//W3C//DTD SVG 1.1//EN"
  "http://www.w3.org/Graphics/SVG/1.1/DTD/svg11.dtd">
<!-- Created with matplotlib (https://matplotlib.org/) -->
<svg height="345.6pt" version="1.1" viewBox="0 0 460.8 345.6" width="460.8pt" xmlns="http://www.w3.org/2000/svg" xmlns:xlink="http://www.w3.org/1999/xlink">
 <metadata>
  <rdf:RDF xmlns:cc="http://creativecommons.org/ns#" xmlns:dc="http://purl.org/dc/elements/1.1/" xmlns:rdf="http://www.w3.org/1999/02/22-rdf-syntax-ns#">
   <cc:Work>
    <dc:type rdf:resource="http://purl.org/dc/dcmitype/StillImage"/>
    <dc:date>2021-01-23T12:15:22.108205</dc:date>
    <dc:format>image/svg+xml</dc:format>
    <dc:creator>
     <cc:Agent>
      <dc:title>Matplotlib v3.3.3, https://matplotlib.org/</dc:title>
     </cc:Agent>
    </dc:creator>
   </cc:Work>
  </rdf:RDF>
 </metadata>
 <defs>
  <style type="text/css">*{stroke-linecap:butt;stroke-linejoin:round;}</style>
 </defs>
 <g id="figure_1">
  <g id="patch_1">
   <path d="M 0 345.6 
L 460.8 345.6 
L 460.8 0 
L 0 0 
z
" style="fill:#ffffff;"/>
  </g>
  <g id="axes_1">
   <g id="patch_2">
    <path d="M 57.6 307.584 
L 414.72 307.584 
L 414.72 41.472 
L 57.6 41.472 
z
" style="fill:#7d9051;"/>
   </g>
   <g id="matplotlib.axis_1">
    <g id="xtick_1">
     <g id="line2d_1">
      <defs>
       <path d="M 0 0 
L 0 3.5 
" id="m08410be70e" style="stroke:#000000;stroke-width:0.8;"/>
      </defs>
      <g>
       <use style="stroke:#000000;stroke-width:0.8;" x="66.498243" xlink:href="#m08410be70e" y="307.584"/>
      </g>
     </g>
     <g id="text_1">
      <!-- 0 -->
      <g transform="translate(63.316993 322.182437)scale(0.1 -0.1)">
       <defs>
        <path d="M 31.78125 66.40625 
Q 24.171875 66.40625 20.328125 58.90625 
Q 16.5 51.421875 16.5 36.375 
Q 16.5 21.390625 20.328125 13.890625 
Q 24.171875 6.390625 31.78125 6.390625 
Q 39.453125 6.390625 43.28125 13.890625 
Q 47.125 21.390625 47.125 36.375 
Q 47.125 51.421875 43.28125 58.90625 
Q 39.453125 66.40625 31.78125 66.40625 
z
M 31.78125 74.21875 
Q 44.046875 74.21875 50.515625 64.515625 
Q 56.984375 54.828125 56.984375 36.375 
Q 56.984375 17.96875 50.515625 8.265625 
Q 44.046875 -1.421875 31.78125 -1.421875 
Q 19.53125 -1.421875 13.0625 8.265625 
Q 6.59375 17.96875 6.59375 36.375 
Q 6.59375 54.828125 13.0625 64.515625 
Q 19.53125 74.21875 31.78125 74.21875 
z
" id="DejaVuSans-48"/>
       </defs>
       <use xlink:href="#DejaVuSans-48"/>
      </g>
     </g>
    </g>
    <g id="xtick_2">
     <g id="line2d_2">
      <g>
       <use style="stroke:#000000;stroke-width:0.8;" x="120.939601" xlink:href="#m08410be70e" y="307.584"/>
      </g>
     </g>
     <g id="text_2">
      <!-- 20 -->
      <g transform="translate(114.577101 322.182437)scale(0.1 -0.1)">
       <defs>
        <path d="M 19.1875 8.296875 
L 53.609375 8.296875 
L 53.609375 0 
L 7.328125 0 
L 7.328125 8.296875 
Q 12.9375 14.109375 22.625 23.890625 
Q 32.328125 33.6875 34.8125 36.53125 
Q 39.546875 41.84375 41.421875 45.53125 
Q 43.3125 49.21875 43.3125 52.78125 
Q 43.3125 58.59375 39.234375 62.25 
Q 35.15625 65.921875 28.609375 65.921875 
Q 23.96875 65.921875 18.8125 64.3125 
Q 13.671875 62.703125 7.8125 59.421875 
L 7.8125 69.390625 
Q 13.765625 71.78125 18.9375 73 
Q 24.125 74.21875 28.421875 74.21875 
Q 39.75 74.21875 46.484375 68.546875 
Q 53.21875 62.890625 53.21875 53.421875 
Q 53.21875 48.921875 51.53125 44.890625 
Q 49.859375 40.875 45.40625 35.40625 
Q 44.1875 33.984375 37.640625 27.21875 
Q 31.109375 20.453125 19.1875 8.296875 
z
" id="DejaVuSans-50"/>
       </defs>
       <use xlink:href="#DejaVuSans-50"/>
       <use x="63.623047" xlink:href="#DejaVuSans-48"/>
      </g>
     </g>
    </g>
    <g id="xtick_3">
     <g id="line2d_3">
      <g>
       <use style="stroke:#000000;stroke-width:0.8;" x="175.38096" xlink:href="#m08410be70e" y="307.584"/>
      </g>
     </g>
     <g id="text_3">
      <!-- 40 -->
      <g transform="translate(169.01846 322.182437)scale(0.1 -0.1)">
       <defs>
        <path d="M 37.796875 64.3125 
L 12.890625 25.390625 
L 37.796875 25.390625 
z
M 35.203125 72.90625 
L 47.609375 72.90625 
L 47.609375 25.390625 
L 58.015625 25.390625 
L 58.015625 17.1875 
L 47.609375 17.1875 
L 47.609375 0 
L 37.796875 0 
L 37.796875 17.1875 
L 4.890625 17.1875 
L 4.890625 26.703125 
z
" id="DejaVuSans-52"/>
       </defs>
       <use xlink:href="#DejaVuSans-52"/>
       <use x="63.623047" xlink:href="#DejaVuSans-48"/>
      </g>
     </g>
    </g>
    <g id="xtick_4">
     <g id="line2d_4">
      <g>
       <use style="stroke:#000000;stroke-width:0.8;" x="229.822318" xlink:href="#m08410be70e" y="307.584"/>
      </g>
     </g>
     <g id="text_4">
      <!-- 60 -->
      <g transform="translate(223.459818 322.182437)scale(0.1 -0.1)">
       <defs>
        <path d="M 33.015625 40.375 
Q 26.375 40.375 22.484375 35.828125 
Q 18.609375 31.296875 18.609375 23.390625 
Q 18.609375 15.53125 22.484375 10.953125 
Q 26.375 6.390625 33.015625 6.390625 
Q 39.65625 6.390625 43.53125 10.953125 
Q 47.40625 15.53125 47.40625 23.390625 
Q 47.40625 31.296875 43.53125 35.828125 
Q 39.65625 40.375 33.015625 40.375 
z
M 52.59375 71.296875 
L 52.59375 62.3125 
Q 48.875 64.0625 45.09375 64.984375 
Q 41.3125 65.921875 37.59375 65.921875 
Q 27.828125 65.921875 22.671875 59.328125 
Q 17.53125 52.734375 16.796875 39.40625 
Q 19.671875 43.65625 24.015625 45.921875 
Q 28.375 48.1875 33.59375 48.1875 
Q 44.578125 48.1875 50.953125 41.515625 
Q 57.328125 34.859375 57.328125 23.390625 
Q 57.328125 12.15625 50.6875 5.359375 
Q 44.046875 -1.421875 33.015625 -1.421875 
Q 20.359375 -1.421875 13.671875 8.265625 
Q 6.984375 17.96875 6.984375 36.375 
Q 6.984375 53.65625 15.1875 63.9375 
Q 23.390625 74.21875 37.203125 74.21875 
Q 40.921875 74.21875 44.703125 73.484375 
Q 48.484375 72.75 52.59375 71.296875 
z
" id="DejaVuSans-54"/>
       </defs>
       <use xlink:href="#DejaVuSans-54"/>
       <use x="63.623047" xlink:href="#DejaVuSans-48"/>
      </g>
     </g>
    </g>
    <g id="xtick_5">
     <g id="line2d_5">
      <g>
       <use style="stroke:#000000;stroke-width:0.8;" x="284.263676" xlink:href="#m08410be70e" y="307.584"/>
      </g>
     </g>
     <g id="text_5">
      <!-- 80 -->
      <g transform="translate(277.901176 322.182437)scale(0.1 -0.1)">
       <defs>
        <path d="M 31.78125 34.625 
Q 24.75 34.625 20.71875 30.859375 
Q 16.703125 27.09375 16.703125 20.515625 
Q 16.703125 13.921875 20.71875 10.15625 
Q 24.75 6.390625 31.78125 6.390625 
Q 38.8125 6.390625 42.859375 10.171875 
Q 46.921875 13.96875 46.921875 20.515625 
Q 46.921875 27.09375 42.890625 30.859375 
Q 38.875 34.625 31.78125 34.625 
z
M 21.921875 38.8125 
Q 15.578125 40.375 12.03125 44.71875 
Q 8.5 49.078125 8.5 55.328125 
Q 8.5 64.0625 14.71875 69.140625 
Q 20.953125 74.21875 31.78125 74.21875 
Q 42.671875 74.21875 48.875 69.140625 
Q 55.078125 64.0625 55.078125 55.328125 
Q 55.078125 49.078125 51.53125 44.71875 
Q 48 40.375 41.703125 38.8125 
Q 48.828125 37.15625 52.796875 32.3125 
Q 56.78125 27.484375 56.78125 20.515625 
Q 56.78125 9.90625 50.3125 4.234375 
Q 43.84375 -1.421875 31.78125 -1.421875 
Q 19.734375 -1.421875 13.25 4.234375 
Q 6.78125 9.90625 6.78125 20.515625 
Q 6.78125 27.484375 10.78125 32.3125 
Q 14.796875 37.15625 21.921875 38.8125 
z
M 18.3125 54.390625 
Q 18.3125 48.734375 21.84375 45.5625 
Q 25.390625 42.390625 31.78125 42.390625 
Q 38.140625 42.390625 41.71875 45.5625 
Q 45.3125 48.734375 45.3125 54.390625 
Q 45.3125 60.0625 41.71875 63.234375 
Q 38.140625 66.40625 31.78125 66.40625 
Q 25.390625 66.40625 21.84375 63.234375 
Q 18.3125 60.0625 18.3125 54.390625 
z
" id="DejaVuSans-56"/>
       </defs>
       <use xlink:href="#DejaVuSans-56"/>
       <use x="63.623047" xlink:href="#DejaVuSans-48"/>
      </g>
     </g>
    </g>
    <g id="xtick_6">
     <g id="line2d_6">
      <g>
       <use style="stroke:#000000;stroke-width:0.8;" x="338.705035" xlink:href="#m08410be70e" y="307.584"/>
      </g>
     </g>
     <g id="text_6">
      <!-- 100 -->
      <g transform="translate(329.161285 322.182437)scale(0.1 -0.1)">
       <defs>
        <path d="M 12.40625 8.296875 
L 28.515625 8.296875 
L 28.515625 63.921875 
L 10.984375 60.40625 
L 10.984375 69.390625 
L 28.421875 72.90625 
L 38.28125 72.90625 
L 38.28125 8.296875 
L 54.390625 8.296875 
L 54.390625 0 
L 12.40625 0 
z
" id="DejaVuSans-49"/>
       </defs>
       <use xlink:href="#DejaVuSans-49"/>
       <use x="63.623047" xlink:href="#DejaVuSans-48"/>
       <use x="127.246094" xlink:href="#DejaVuSans-48"/>
      </g>
     </g>
    </g>
    <g id="xtick_7">
     <g id="line2d_7">
      <g>
       <use style="stroke:#000000;stroke-width:0.8;" x="393.146393" xlink:href="#m08410be70e" y="307.584"/>
      </g>
     </g>
     <g id="text_7">
      <!-- 120 -->
      <g transform="translate(383.602643 322.182437)scale(0.1 -0.1)">
       <use xlink:href="#DejaVuSans-49"/>
       <use x="63.623047" xlink:href="#DejaVuSans-50"/>
       <use x="127.246094" xlink:href="#DejaVuSans-48"/>
      </g>
     </g>
    </g>
   </g>
   <g id="matplotlib.axis_2">
    <g id="ytick_1">
     <g id="line2d_8">
      <defs>
       <path d="M 0 0 
L -3.5 0 
" id="me91fec1c90" style="stroke:#000000;stroke-width:0.8;"/>
      </defs>
      <g>
       <use style="stroke:#000000;stroke-width:0.8;" x="57.6" xlink:href="#me91fec1c90" y="267.593542"/>
      </g>
     </g>
     <g id="text_8">
      <!-- 20 -->
      <g transform="translate(37.875 271.39276)scale(0.1 -0.1)">
       <use xlink:href="#DejaVuSans-50"/>
       <use x="63.623047" xlink:href="#DejaVuSans-48"/>
      </g>
     </g>
    </g>
    <g id="ytick_2">
     <g id="line2d_9">
      <g>
       <use style="stroke:#000000;stroke-width:0.8;" x="57.6" xlink:href="#me91fec1c90" y="213.152183"/>
      </g>
     </g>
     <g id="text_9">
      <!-- 40 -->
      <g transform="translate(37.875 216.951402)scale(0.1 -0.1)">
       <use xlink:href="#DejaVuSans-52"/>
       <use x="63.623047" xlink:href="#DejaVuSans-48"/>
      </g>
     </g>
    </g>
    <g id="ytick_3">
     <g id="line2d_10">
      <g>
       <use style="stroke:#000000;stroke-width:0.8;" x="57.6" xlink:href="#me91fec1c90" y="158.710825"/>
      </g>
     </g>
     <g id="text_10">
      <!-- 60 -->
      <g transform="translate(37.875 162.510044)scale(0.1 -0.1)">
       <use xlink:href="#DejaVuSans-54"/>
       <use x="63.623047" xlink:href="#DejaVuSans-48"/>
      </g>
     </g>
    </g>
    <g id="ytick_4">
     <g id="line2d_11">
      <g>
       <use style="stroke:#000000;stroke-width:0.8;" x="57.6" xlink:href="#me91fec1c90" y="104.269466"/>
      </g>
     </g>
     <g id="text_11">
      <!-- 80 -->
      <g transform="translate(37.875 108.068685)scale(0.1 -0.1)">
       <use xlink:href="#DejaVuSans-56"/>
       <use x="63.623047" xlink:href="#DejaVuSans-48"/>
      </g>
     </g>
    </g>
    <g id="ytick_5">
     <g id="line2d_12">
      <g>
       <use style="stroke:#000000;stroke-width:0.8;" x="57.6" xlink:href="#me91fec1c90" y="49.828108"/>
      </g>
     </g>
     <g id="text_12">
      <!-- 100 -->
      <g transform="translate(31.5125 53.627327)scale(0.1 -0.1)">
       <use xlink:href="#DejaVuSans-49"/>
       <use x="63.623047" xlink:href="#DejaVuSans-48"/>
       <use x="127.246094" xlink:href="#DejaVuSans-48"/>
      </g>
     </g>
    </g>
   </g>
   <g id="line2d_13">
    <path clip-path="url(#pb897411f86)" d="M 124.804938 294.814221 
L 125.104365 289.370085 
L 125.267689 281.201159 
L 125.107087 273.032233 
L 124.633447 264.876918 
L 123.868546 256.743379 
L 122.825994 248.639783 
L 121.522124 240.574296 
L 119.973267 232.555083 
L 118.193035 224.584869 
L 116.195037 216.663651 
L 113.98744 208.788708 
L 111.523968 200.989984 
L 109.700183 195.856164 
L 107.704907 190.790395 
L 105.516364 185.806289 
L 98.585979 171.009128 
L 96.577093 165.946081 
L 94.92752 160.733321 
L 94.26878 158.065695 
L 93.727088 155.368125 
L 93.30789 152.646057 
L 93.01935 149.907657 
L 92.864193 147.161091 
L 92.853304 144.40908 
L 92.986686 141.662513 
L 93.272503 138.929557 
L 93.718922 136.212933 
L 94.325943 133.52353 
L 95.093566 130.869514 
L 96.016347 128.261773 
L 97.088842 125.711195 
L 98.308328 123.225947 
L 99.66664 120.816917 
L 101.161056 118.492271 
L 102.788852 116.26562 
L 104.541864 114.142407 
L 106.417369 112.136243 
L 108.409922 110.252572 
L 110.508637 108.494116 
L 112.708068 106.855431 
L 114.994605 105.336517 
L 117.360082 103.934652 
L 119.793611 102.644392 
L 122.287025 101.468459 
L 124.832158 100.40413 
L 130.031308 98.593955 
L 135.32573 97.194812 
L 140.685482 96.176758 
L 146.099675 95.501686 
L 151.549255 95.139651 
L 157.020611 95.052544 
L 162.49469 95.218591 
L 167.952436 95.645955 
L 173.369351 96.350971 
L 178.726381 97.34997 
L 184.001749 98.662006 
L 189.179122 100.287081 
L 194.274833 102.165308 
L 201.834016 105.28752 
L 214.404525 110.682658 
L 219.486626 112.696989 
L 224.623168 114.531662 
L 229.822318 116.12135 
L 235.10313 117.406166 
L 240.465604 118.331669 
L 245.890685 118.906026 
L 251.356597 119.14829 
L 256.830676 119.08296 
L 262.291144 118.726369 
L 267.710781 118.105738 
L 273.095032 117.251008 
L 278.438451 116.203012 
L 286.397778 114.349284 
L 294.297219 112.256014 
L 302.134052 109.974921 
L 309.916445 107.492395 
L 317.641673 104.808436 
L 325.282518 101.884935 
L 330.304733 99.761722 
L 335.245287 97.469741 
L 340.085123 94.987215 
L 344.810633 92.292368 
L 349.424538 89.398809 
L 353.924117 86.320151 
L 358.317534 83.08089 
L 362.602069 79.691915 
L 366.78861 76.177725 
L 372.880598 70.700925 
L 378.760264 65.039024 
L 382.568437 61.190019 
L 382.568437 61.190019 
" style="fill:none;stroke:#fea952;stroke-linecap:square;"/>
   </g>
   <g id="line2d_14">
    <path clip-path="url(#pb897411f86)" d="M 113.937533 294.140442 
L 114.308317 286.419642 
L 114.379684 281.277299 
L 114.23034 273.533065 
L 113.781817 265.769429 
L 113.054927 258.016209 
L 112.058986 250.260272 
L 110.811577 242.533542 
L 109.325892 234.832772 
L 107.612174 227.153884 
L 105.685675 219.511068 
L 103.565272 211.940355 
L 101.233152 204.547169 
L 99.53318 199.753152 
L 97.693628 195.071606 
L 95.660754 190.434614 
L 88.527555 175.178367 
L 86.265071 169.441314 
L 85.255272 166.434178 
L 84.356775 163.343648 
L 83.593611 160.209346 
L 82.965677 157.025383 
L 82.479562 153.787014 
L 82.148411 150.521774 
L 81.976006 147.20417 
L 81.977849 143.880936 
L 82.157474 140.529976 
L 82.528332 137.163982 
L 83.097832 133.815663 
L 83.86638 130.498303 
L 84.829002 127.237273 
L 85.979316 124.041292 
L 87.313946 120.914752 
L 88.82382 117.878185 
L 90.507661 114.929002 
L 92.371143 112.066394 
L 94.392573 109.333307 
L 96.588039 106.706606 
L 98.937417 104.223924 
L 101.417086 101.906632 
L 104.00337 99.762795 
L 106.683299 97.785887 
L 109.443442 95.969604 
L 112.259661 94.314872 
L 115.149134 92.796382 
L 118.086263 91.423158 
L 121.045601 90.195485 
L 124.043411 89.092984 
L 127.058634 88.119334 
L 130.079221 87.269586 
L 136.150628 85.909239 
L 142.203979 84.974742 
L 148.24662 84.410848 
L 154.241597 84.175247 
L 160.213647 84.225488 
L 166.213424 84.554691 
L 172.218327 85.184619 
L 178.204593 86.138993 
L 184.166876 87.440917 
L 190.00844 89.096325 
L 195.607235 91.022463 
L 200.969026 93.115176 
L 208.68763 96.390559 
L 218.48751 100.588913 
L 223.253778 102.481166 
L 227.945206 104.162548 
L 232.570756 105.58567 
L 237.131437 106.708483 
L 241.781325 107.523185 
L 246.530066 108.036543 
L 251.378244 108.260039 
L 256.256696 108.209828 
L 261.182983 107.894636 
L 266.11315 107.335314 
L 271.091735 106.548613 
L 276.100637 105.568677 
L 283.690522 103.802947 
L 291.344851 101.775652 
L 298.913622 99.573801 
L 306.437414 97.174895 
L 313.870994 94.593915 
L 321.120967 91.823327 
L 325.808978 89.844936 
L 330.384624 87.726619 
L 334.801936 85.466585 
L 339.119305 83.009952 
L 343.354722 80.359352 
L 347.538038 77.501281 
L 351.632782 74.486208 
L 355.663609 71.300715 
L 359.610192 67.990859 
L 365.413408 62.776561 
L 371.055631 57.345319 
L 374.792881 53.568 
L 374.792881 53.568 
" style="fill:none;stroke:#ffffff;stroke-linecap:square;"/>
   </g>
   <g id="line2d_15">
    <path clip-path="url(#pb897411f86)" d="M 135.672342 295.488 
L 135.986713 289.729203 
L 136.139432 283.988556 
L 136.134729 278.258647 
L 135.851839 269.681798 
L 135.251352 261.150743 
L 134.350188 252.654966 
L 133.168372 244.202611 
L 131.722168 235.827447 
L 130.030777 227.522098 
L 128.107369 219.272625 
L 125.966643 211.0948 
L 123.582713 202.90517 
L 121.814784 197.432799 
L 119.867185 191.959176 
L 117.716185 186.509185 
L 115.371975 181.177963 
L 108.644404 166.839889 
L 106.889116 162.450848 
L 105.498265 158.122994 
L 104.488499 153.710868 
L 103.89029 149.293541 
L 103.752379 147.118012 
L 103.815897 142.79505 
L 104.016673 140.695132 
L 104.340012 138.610204 
L 104.785506 136.548758 
L 105.358131 134.501756 
L 106.053379 132.482254 
L 106.863738 130.507639 
L 107.792837 128.57371 
L 108.82562 126.704833 
L 109.950968 124.918149 
L 111.185131 123.197932 
L 112.495689 121.578208 
L 113.89732 120.048561 
L 115.402759 118.598511 
L 117.013903 117.225437 
L 118.732836 115.924975 
L 120.545767 114.70343 
L 124.438087 112.492402 
L 128.618716 110.612775 
L 133.003981 109.068575 
L 137.54037 107.855479 
L 142.194904 106.959898 
L 146.967963 106.355281 
L 151.852492 106.023699 
L 156.815005 105.938875 
L 161.780469 106.083412 
L 166.694085 106.461269 
L 171.522996 107.081555 
L 176.262926 107.955904 
L 180.888065 109.095579 
L 185.520459 110.542258 
L 190.236661 112.277065 
L 197.505671 115.27851 
L 210.32154 120.776404 
L 215.719474 122.912811 
L 221.301131 124.900777 
L 227.07388 126.65703 
L 233.074823 128.10385 
L 239.149883 129.140154 
L 245.251304 129.775508 
L 251.334951 130.03654 
L 257.404656 129.956092 
L 263.399305 129.558102 
L 269.308412 128.876162 
L 275.098328 127.953403 
L 280.776265 126.837347 
L 289.105033 124.895621 
L 297.249587 122.736375 
L 305.354483 120.37604 
L 313.395475 117.809895 
L 321.412353 115.022957 
L 329.444069 111.946543 
L 334.800488 109.678508 
L 340.105949 107.212862 
L 345.36831 104.507845 
L 350.501962 101.574783 
L 355.494355 98.438267 
L 360.310195 95.13902 
L 365.002286 91.675571 
L 369.540529 88.083115 
L 373.967027 84.364592 
L 380.347787 78.625289 
L 386.464897 72.732728 
L 390.343994 68.812039 
L 390.343994 68.812039 
" style="fill:none;stroke:#ffffff;stroke-linecap:square;"/>
   </g>
   <g id="patch_3">
    <path d="M 57.6 307.584 
L 57.6 41.472 
" style="fill:none;stroke:#000000;stroke-linecap:square;stroke-linejoin:miter;stroke-width:0.8;"/>
   </g>
   <g id="patch_4">
    <path d="M 414.72 307.584 
L 414.72 41.472 
" style="fill:none;stroke:#000000;stroke-linecap:square;stroke-linejoin:miter;stroke-width:0.8;"/>
   </g>
   <g id="patch_5">
    <path d="M 57.6 307.584 
L 414.72 307.584 
" style="fill:none;stroke:#000000;stroke-linecap:square;stroke-linejoin:miter;stroke-width:0.8;"/>
   </g>
   <g id="patch_6">
    <path d="M 57.6 41.472 
L 414.72 41.472 
" style="fill:none;stroke:#000000;stroke-linecap:square;stroke-linejoin:miter;stroke-width:0.8;"/>
   </g>
  </g>
 </g>
 <defs>
  <clipPath id="pb897411f86">
   <rect height="266.112" width="357.12" x="57.6" y="41.472"/>
  </clipPath>
 </defs>
</svg>
