<?xml version="1.0" encoding="utf-8" standalone="no"?>
<!DOCTYPE svg PUBLIC "-//W3C//DTD SVG 1.1//EN"
  "http://www.w3.org/Graphics/SVG/1.1/DTD/svg11.dtd">
<!-- Created with matplotlib (https://matplotlib.org/) -->
<svg height="345.6pt" version="1.1" viewBox="0 0 460.8 345.6" width="460.8pt" xmlns="http://www.w3.org/2000/svg" xmlns:xlink="http://www.w3.org/1999/xlink">
 <metadata>
  <rdf:RDF xmlns:cc="http://creativecommons.org/ns#" xmlns:dc="http://purl.org/dc/elements/1.1/" xmlns:rdf="http://www.w3.org/1999/02/22-rdf-syntax-ns#">
   <cc:Work>
    <dc:type rdf:resource="http://purl.org/dc/dcmitype/StillImage"/>
    <dc:date>2021-01-25T12:25:46.185850</dc:date>
    <dc:format>image/svg+xml</dc:format>
    <dc:creator>
     <cc:Agent>
      <dc:title>Matplotlib v3.3.3, https://matplotlib.org/</dc:title>
     </cc:Agent>
    </dc:creator>
   </cc:Work>
  </rdf:RDF>
 </metadata>
 <defs>
  <style type="text/css">*{stroke-linecap:butt;stroke-linejoin:round;}</style>
 </defs>
 <g id="figure_1">
  <g id="patch_1">
   <path d="M 0 345.6 
L 460.8 345.6 
L 460.8 0 
L 0 0 
z
" style="fill:#ffffff;"/>
  </g>
  <g id="axes_1">
   <g id="patch_2">
    <path d="M 57.6 307.584 
L 414.72 307.584 
L 414.72 41.472 
L 57.6 41.472 
z
" style="fill:#7d9051;"/>
   </g>
   <g id="matplotlib.axis_1">
    <g id="xtick_1">
     <g id="line2d_1">
      <defs>
       <path d="M 0 0 
L 0 3.5 
" id="ma4942b5708" style="stroke:#000000;stroke-width:0.8;"/>
      </defs>
      <g>
       <use style="stroke:#000000;stroke-width:0.8;" x="83.174742" xlink:href="#ma4942b5708" y="307.584"/>
      </g>
     </g>
     <g id="text_1">
      <!-- 10 -->
      <g transform="translate(76.812242 322.182437)scale(0.1 -0.1)">
       <defs>
        <path d="M 12.40625 8.296875 
L 28.515625 8.296875 
L 28.515625 63.921875 
L 10.984375 60.40625 
L 10.984375 69.390625 
L 28.421875 72.90625 
L 38.28125 72.90625 
L 38.28125 8.296875 
L 54.390625 8.296875 
L 54.390625 0 
L 12.40625 0 
z
" id="DejaVuSans-49"/>
        <path d="M 31.78125 66.40625 
Q 24.171875 66.40625 20.328125 58.90625 
Q 16.5 51.421875 16.5 36.375 
Q 16.5 21.390625 20.328125 13.890625 
Q 24.171875 6.390625 31.78125 6.390625 
Q 39.453125 6.390625 43.28125 13.890625 
Q 47.125 21.390625 47.125 36.375 
Q 47.125 51.421875 43.28125 58.90625 
Q 39.453125 66.40625 31.78125 66.40625 
z
M 31.78125 74.21875 
Q 44.046875 74.21875 50.515625 64.515625 
Q 56.984375 54.828125 56.984375 36.375 
Q 56.984375 17.96875 50.515625 8.265625 
Q 44.046875 -1.421875 31.78125 -1.421875 
Q 19.53125 -1.421875 13.0625 8.265625 
Q 6.59375 17.96875 6.59375 36.375 
Q 6.59375 54.828125 13.0625 64.515625 
Q 19.53125 74.21875 31.78125 74.21875 
z
" id="DejaVuSans-48"/>
       </defs>
       <use xlink:href="#DejaVuSans-49"/>
       <use x="63.623047" xlink:href="#DejaVuSans-48"/>
      </g>
     </g>
    </g>
    <g id="xtick_2">
     <g id="line2d_2">
      <g>
       <use style="stroke:#000000;stroke-width:0.8;" x="124.41154" xlink:href="#ma4942b5708" y="307.584"/>
      </g>
     </g>
     <g id="text_2">
      <!-- 20 -->
      <g transform="translate(118.04904 322.182437)scale(0.1 -0.1)">
       <defs>
        <path d="M 19.1875 8.296875 
L 53.609375 8.296875 
L 53.609375 0 
L 7.328125 0 
L 7.328125 8.296875 
Q 12.9375 14.109375 22.625 23.890625 
Q 32.328125 33.6875 34.8125 36.53125 
Q 39.546875 41.84375 41.421875 45.53125 
Q 43.3125 49.21875 43.3125 52.78125 
Q 43.3125 58.59375 39.234375 62.25 
Q 35.15625 65.921875 28.609375 65.921875 
Q 23.96875 65.921875 18.8125 64.3125 
Q 13.671875 62.703125 7.8125 59.421875 
L 7.8125 69.390625 
Q 13.765625 71.78125 18.9375 73 
Q 24.125 74.21875 28.421875 74.21875 
Q 39.75 74.21875 46.484375 68.546875 
Q 53.21875 62.890625 53.21875 53.421875 
Q 53.21875 48.921875 51.53125 44.890625 
Q 49.859375 40.875 45.40625 35.40625 
Q 44.1875 33.984375 37.640625 27.21875 
Q 31.109375 20.453125 19.1875 8.296875 
z
" id="DejaVuSans-50"/>
       </defs>
       <use xlink:href="#DejaVuSans-50"/>
       <use x="63.623047" xlink:href="#DejaVuSans-48"/>
      </g>
     </g>
    </g>
    <g id="xtick_3">
     <g id="line2d_3">
      <g>
       <use style="stroke:#000000;stroke-width:0.8;" x="165.648338" xlink:href="#ma4942b5708" y="307.584"/>
      </g>
     </g>
     <g id="text_3">
      <!-- 30 -->
      <g transform="translate(159.285838 322.182437)scale(0.1 -0.1)">
       <defs>
        <path d="M 40.578125 39.3125 
Q 47.65625 37.796875 51.625 33 
Q 55.609375 28.21875 55.609375 21.1875 
Q 55.609375 10.40625 48.1875 4.484375 
Q 40.765625 -1.421875 27.09375 -1.421875 
Q 22.515625 -1.421875 17.65625 -0.515625 
Q 12.796875 0.390625 7.625 2.203125 
L 7.625 11.71875 
Q 11.71875 9.328125 16.59375 8.109375 
Q 21.484375 6.890625 26.8125 6.890625 
Q 36.078125 6.890625 40.9375 10.546875 
Q 45.796875 14.203125 45.796875 21.1875 
Q 45.796875 27.640625 41.28125 31.265625 
Q 36.765625 34.90625 28.71875 34.90625 
L 20.21875 34.90625 
L 20.21875 43.015625 
L 29.109375 43.015625 
Q 36.375 43.015625 40.234375 45.921875 
Q 44.09375 48.828125 44.09375 54.296875 
Q 44.09375 59.90625 40.109375 62.90625 
Q 36.140625 65.921875 28.71875 65.921875 
Q 24.65625 65.921875 20.015625 65.03125 
Q 15.375 64.15625 9.8125 62.3125 
L 9.8125 71.09375 
Q 15.4375 72.65625 20.34375 73.4375 
Q 25.25 74.21875 29.59375 74.21875 
Q 40.828125 74.21875 47.359375 69.109375 
Q 53.90625 64.015625 53.90625 55.328125 
Q 53.90625 49.265625 50.4375 45.09375 
Q 46.96875 40.921875 40.578125 39.3125 
z
" id="DejaVuSans-51"/>
       </defs>
       <use xlink:href="#DejaVuSans-51"/>
       <use x="63.623047" xlink:href="#DejaVuSans-48"/>
      </g>
     </g>
    </g>
    <g id="xtick_4">
     <g id="line2d_4">
      <g>
       <use style="stroke:#000000;stroke-width:0.8;" x="206.885136" xlink:href="#ma4942b5708" y="307.584"/>
      </g>
     </g>
     <g id="text_4">
      <!-- 40 -->
      <g transform="translate(200.522636 322.182437)scale(0.1 -0.1)">
       <defs>
        <path d="M 37.796875 64.3125 
L 12.890625 25.390625 
L 37.796875 25.390625 
z
M 35.203125 72.90625 
L 47.609375 72.90625 
L 47.609375 25.390625 
L 58.015625 25.390625 
L 58.015625 17.1875 
L 47.609375 17.1875 
L 47.609375 0 
L 37.796875 0 
L 37.796875 17.1875 
L 4.890625 17.1875 
L 4.890625 26.703125 
z
" id="DejaVuSans-52"/>
       </defs>
       <use xlink:href="#DejaVuSans-52"/>
       <use x="63.623047" xlink:href="#DejaVuSans-48"/>
      </g>
     </g>
    </g>
    <g id="xtick_5">
     <g id="line2d_5">
      <g>
       <use style="stroke:#000000;stroke-width:0.8;" x="248.121934" xlink:href="#ma4942b5708" y="307.584"/>
      </g>
     </g>
     <g id="text_5">
      <!-- 50 -->
      <g transform="translate(241.759434 322.182437)scale(0.1 -0.1)">
       <defs>
        <path d="M 10.796875 72.90625 
L 49.515625 72.90625 
L 49.515625 64.59375 
L 19.828125 64.59375 
L 19.828125 46.734375 
Q 21.96875 47.46875 24.109375 47.828125 
Q 26.265625 48.1875 28.421875 48.1875 
Q 40.625 48.1875 47.75 41.5 
Q 54.890625 34.8125 54.890625 23.390625 
Q 54.890625 11.625 47.5625 5.09375 
Q 40.234375 -1.421875 26.90625 -1.421875 
Q 22.3125 -1.421875 17.546875 -0.640625 
Q 12.796875 0.140625 7.71875 1.703125 
L 7.71875 11.625 
Q 12.109375 9.234375 16.796875 8.0625 
Q 21.484375 6.890625 26.703125 6.890625 
Q 35.15625 6.890625 40.078125 11.328125 
Q 45.015625 15.765625 45.015625 23.390625 
Q 45.015625 31 40.078125 35.4375 
Q 35.15625 39.890625 26.703125 39.890625 
Q 22.75 39.890625 18.8125 39.015625 
Q 14.890625 38.140625 10.796875 36.28125 
z
" id="DejaVuSans-53"/>
       </defs>
       <use xlink:href="#DejaVuSans-53"/>
       <use x="63.623047" xlink:href="#DejaVuSans-48"/>
      </g>
     </g>
    </g>
    <g id="xtick_6">
     <g id="line2d_6">
      <g>
       <use style="stroke:#000000;stroke-width:0.8;" x="289.358732" xlink:href="#ma4942b5708" y="307.584"/>
      </g>
     </g>
     <g id="text_6">
      <!-- 60 -->
      <g transform="translate(282.996232 322.182437)scale(0.1 -0.1)">
       <defs>
        <path d="M 33.015625 40.375 
Q 26.375 40.375 22.484375 35.828125 
Q 18.609375 31.296875 18.609375 23.390625 
Q 18.609375 15.53125 22.484375 10.953125 
Q 26.375 6.390625 33.015625 6.390625 
Q 39.65625 6.390625 43.53125 10.953125 
Q 47.40625 15.53125 47.40625 23.390625 
Q 47.40625 31.296875 43.53125 35.828125 
Q 39.65625 40.375 33.015625 40.375 
z
M 52.59375 71.296875 
L 52.59375 62.3125 
Q 48.875 64.0625 45.09375 64.984375 
Q 41.3125 65.921875 37.59375 65.921875 
Q 27.828125 65.921875 22.671875 59.328125 
Q 17.53125 52.734375 16.796875 39.40625 
Q 19.671875 43.65625 24.015625 45.921875 
Q 28.375 48.1875 33.59375 48.1875 
Q 44.578125 48.1875 50.953125 41.515625 
Q 57.328125 34.859375 57.328125 23.390625 
Q 57.328125 12.15625 50.6875 5.359375 
Q 44.046875 -1.421875 33.015625 -1.421875 
Q 20.359375 -1.421875 13.671875 8.265625 
Q 6.984375 17.96875 6.984375 36.375 
Q 6.984375 53.65625 15.1875 63.9375 
Q 23.390625 74.21875 37.203125 74.21875 
Q 40.921875 74.21875 44.703125 73.484375 
Q 48.484375 72.75 52.59375 71.296875 
z
" id="DejaVuSans-54"/>
       </defs>
       <use xlink:href="#DejaVuSans-54"/>
       <use x="63.623047" xlink:href="#DejaVuSans-48"/>
      </g>
     </g>
    </g>
    <g id="xtick_7">
     <g id="line2d_7">
      <g>
       <use style="stroke:#000000;stroke-width:0.8;" x="330.59553" xlink:href="#ma4942b5708" y="307.584"/>
      </g>
     </g>
     <g id="text_7">
      <!-- 70 -->
      <g transform="translate(324.23303 322.182437)scale(0.1 -0.1)">
       <defs>
        <path d="M 8.203125 72.90625 
L 55.078125 72.90625 
L 55.078125 68.703125 
L 28.609375 0 
L 18.3125 0 
L 43.21875 64.59375 
L 8.203125 64.59375 
z
" id="DejaVuSans-55"/>
       </defs>
       <use xlink:href="#DejaVuSans-55"/>
       <use x="63.623047" xlink:href="#DejaVuSans-48"/>
      </g>
     </g>
    </g>
    <g id="xtick_8">
     <g id="line2d_8">
      <g>
       <use style="stroke:#000000;stroke-width:0.8;" x="371.832328" xlink:href="#ma4942b5708" y="307.584"/>
      </g>
     </g>
     <g id="text_8">
      <!-- 80 -->
      <g transform="translate(365.469828 322.182437)scale(0.1 -0.1)">
       <defs>
        <path d="M 31.78125 34.625 
Q 24.75 34.625 20.71875 30.859375 
Q 16.703125 27.09375 16.703125 20.515625 
Q 16.703125 13.921875 20.71875 10.15625 
Q 24.75 6.390625 31.78125 6.390625 
Q 38.8125 6.390625 42.859375 10.171875 
Q 46.921875 13.96875 46.921875 20.515625 
Q 46.921875 27.09375 42.890625 30.859375 
Q 38.875 34.625 31.78125 34.625 
z
M 21.921875 38.8125 
Q 15.578125 40.375 12.03125 44.71875 
Q 8.5 49.078125 8.5 55.328125 
Q 8.5 64.0625 14.71875 69.140625 
Q 20.953125 74.21875 31.78125 74.21875 
Q 42.671875 74.21875 48.875 69.140625 
Q 55.078125 64.0625 55.078125 55.328125 
Q 55.078125 49.078125 51.53125 44.71875 
Q 48 40.375 41.703125 38.8125 
Q 48.828125 37.15625 52.796875 32.3125 
Q 56.78125 27.484375 56.78125 20.515625 
Q 56.78125 9.90625 50.3125 4.234375 
Q 43.84375 -1.421875 31.78125 -1.421875 
Q 19.734375 -1.421875 13.25 4.234375 
Q 6.78125 9.90625 6.78125 20.515625 
Q 6.78125 27.484375 10.78125 32.3125 
Q 14.796875 37.15625 21.921875 38.8125 
z
M 18.3125 54.390625 
Q 18.3125 48.734375 21.84375 45.5625 
Q 25.390625 42.390625 31.78125 42.390625 
Q 38.140625 42.390625 41.71875 45.5625 
Q 45.3125 48.734375 45.3125 54.390625 
Q 45.3125 60.0625 41.71875 63.234375 
Q 38.140625 66.40625 31.78125 66.40625 
Q 25.390625 66.40625 21.84375 63.234375 
Q 18.3125 60.0625 18.3125 54.390625 
z
" id="DejaVuSans-56"/>
       </defs>
       <use xlink:href="#DejaVuSans-56"/>
       <use x="63.623047" xlink:href="#DejaVuSans-48"/>
      </g>
     </g>
    </g>
    <g id="xtick_9">
     <g id="line2d_9">
      <g>
       <use style="stroke:#000000;stroke-width:0.8;" x="413.069126" xlink:href="#ma4942b5708" y="307.584"/>
      </g>
     </g>
     <g id="text_9">
      <!-- 90 -->
      <g transform="translate(406.706626 322.182437)scale(0.1 -0.1)">
       <defs>
        <path d="M 10.984375 1.515625 
L 10.984375 10.5 
Q 14.703125 8.734375 18.5 7.8125 
Q 22.3125 6.890625 25.984375 6.890625 
Q 35.75 6.890625 40.890625 13.453125 
Q 46.046875 20.015625 46.78125 33.40625 
Q 43.953125 29.203125 39.59375 26.953125 
Q 35.25 24.703125 29.984375 24.703125 
Q 19.046875 24.703125 12.671875 31.3125 
Q 6.296875 37.9375 6.296875 49.421875 
Q 6.296875 60.640625 12.9375 67.421875 
Q 19.578125 74.21875 30.609375 74.21875 
Q 43.265625 74.21875 49.921875 64.515625 
Q 56.59375 54.828125 56.59375 36.375 
Q 56.59375 19.140625 48.40625 8.859375 
Q 40.234375 -1.421875 26.421875 -1.421875 
Q 22.703125 -1.421875 18.890625 -0.6875 
Q 15.09375 0.046875 10.984375 1.515625 
z
M 30.609375 32.421875 
Q 37.25 32.421875 41.125 36.953125 
Q 45.015625 41.5 45.015625 49.421875 
Q 45.015625 57.28125 41.125 61.84375 
Q 37.25 66.40625 30.609375 66.40625 
Q 23.96875 66.40625 20.09375 61.84375 
Q 16.21875 57.28125 16.21875 49.421875 
Q 16.21875 41.5 20.09375 36.953125 
Q 23.96875 32.421875 30.609375 32.421875 
z
" id="DejaVuSans-57"/>
       </defs>
       <use xlink:href="#DejaVuSans-57"/>
       <use x="63.623047" xlink:href="#DejaVuSans-48"/>
      </g>
     </g>
    </g>
   </g>
   <g id="matplotlib.axis_2">
    <g id="ytick_1">
     <g id="line2d_10">
      <defs>
       <path d="M 0 0 
L -3.5 0 
" id="m1975b63bc4" style="stroke:#000000;stroke-width:0.8;"/>
      </defs>
      <g>
       <use style="stroke:#000000;stroke-width:0.8;" x="57.6" xlink:href="#m1975b63bc4" y="278.987773"/>
      </g>
     </g>
     <g id="text_10">
      <!-- 10 -->
      <g transform="translate(37.875 282.786991)scale(0.1 -0.1)">
       <use xlink:href="#DejaVuSans-49"/>
       <use x="63.623047" xlink:href="#DejaVuSans-48"/>
      </g>
     </g>
    </g>
    <g id="ytick_2">
     <g id="line2d_11">
      <g>
       <use style="stroke:#000000;stroke-width:0.8;" x="57.6" xlink:href="#m1975b63bc4" y="237.750975"/>
      </g>
     </g>
     <g id="text_11">
      <!-- 20 -->
      <g transform="translate(37.875 241.550193)scale(0.1 -0.1)">
       <use xlink:href="#DejaVuSans-50"/>
       <use x="63.623047" xlink:href="#DejaVuSans-48"/>
      </g>
     </g>
    </g>
    <g id="ytick_3">
     <g id="line2d_12">
      <g>
       <use style="stroke:#000000;stroke-width:0.8;" x="57.6" xlink:href="#m1975b63bc4" y="196.514177"/>
      </g>
     </g>
     <g id="text_12">
      <!-- 30 -->
      <g transform="translate(37.875 200.313395)scale(0.1 -0.1)">
       <use xlink:href="#DejaVuSans-51"/>
       <use x="63.623047" xlink:href="#DejaVuSans-48"/>
      </g>
     </g>
    </g>
    <g id="ytick_4">
     <g id="line2d_13">
      <g>
       <use style="stroke:#000000;stroke-width:0.8;" x="57.6" xlink:href="#m1975b63bc4" y="155.277379"/>
      </g>
     </g>
     <g id="text_13">
      <!-- 40 -->
      <g transform="translate(37.875 159.076597)scale(0.1 -0.1)">
       <use xlink:href="#DejaVuSans-52"/>
       <use x="63.623047" xlink:href="#DejaVuSans-48"/>
      </g>
     </g>
    </g>
    <g id="ytick_5">
     <g id="line2d_14">
      <g>
       <use style="stroke:#000000;stroke-width:0.8;" x="57.6" xlink:href="#m1975b63bc4" y="114.040581"/>
      </g>
     </g>
     <g id="text_14">
      <!-- 50 -->
      <g transform="translate(37.875 117.839799)scale(0.1 -0.1)">
       <use xlink:href="#DejaVuSans-53"/>
       <use x="63.623047" xlink:href="#DejaVuSans-48"/>
      </g>
     </g>
    </g>
    <g id="ytick_6">
     <g id="line2d_15">
      <g>
       <use style="stroke:#000000;stroke-width:0.8;" x="57.6" xlink:href="#m1975b63bc4" y="72.803783"/>
      </g>
     </g>
     <g id="text_15">
      <!-- 60 -->
      <g transform="translate(37.875 76.603001)scale(0.1 -0.1)">
       <use xlink:href="#DejaVuSans-54"/>
       <use x="63.623047" xlink:href="#DejaVuSans-48"/>
      </g>
     </g>
    </g>
   </g>
   <g id="line2d_16">
    <path clip-path="url(#p5229c2c8cd)" d="M 246.348752 220.056265 
L 245.202369 215.957327 
L 244.328149 211.821276 
L 243.717844 207.664607 
L 243.367331 203.495567 
L 243.268363 199.322403 
L 243.416815 195.157486 
L 243.808565 191.017311 
L 244.435364 186.906003 
L 245.29309 182.835931 
L 246.381741 178.819467 
L 247.688948 174.868981 
L 249.210585 170.992722 
L 250.942531 167.203061 
L 252.880661 163.512367 
L 255.016727 159.928889 
L 257.350729 156.464998 
L 259.870298 153.128941 
L 262.575432 149.937213 
L 265.457884 146.898061 
L 268.509407 144.023856 
L 271.734125 141.322846 
L 275.107295 138.811525 
L 278.624794 136.494017 
L 282.266003 134.39094 
L 286.022675 132.514666 
L 289.878316 130.869318 
L 293.81643 129.47139 
L 297.82877 128.333255 
L 301.902966 127.471406 
L 306.018398 126.889967 
L 310.16682 126.601309 
L 314.331737 126.601309 
L 318.496654 126.873472 
L 322.645075 127.413674 
L 326.760508 128.209544 
L 330.83058 129.248712 
L 334.834673 130.518805 
L 338.76454 132.015701 
L 342.595438 133.727028 
L 346.319121 135.640415 
L 349.91497 137.747616 
L 353.382985 140.040382 
L 356.723165 142.506342 
L 359.927265 145.145497 
L 362.995282 147.941352 
L 365.927219 150.889783 
L 368.714826 153.982543 
L 371.362229 157.207261 
L 373.865302 160.563936 
L 376.219923 164.040198 
L 378.417845 167.623676 
L 380.454943 171.310246 
L 382.314722 175.087536 
L 383.980689 178.943177 
L 385.436348 182.873044 
L 386.677575 186.856519 
L 387.67963 190.893601 
L 388.434263 194.97192 
L 388.924981 199.074982 
L 389.139412 203.198662 
L 389.065186 207.330589 
L 388.71055 211.458392 
L 388.087874 215.565577 
L 387.205406 219.639773 
L 386.075518 223.668608 
L 384.71058 227.635588 
L 383.114716 231.528342 
L 381.308544 235.338622 
L 379.292065 239.04581 
L 377.085896 242.633412 
L 374.698286 246.097303 
L 372.133357 249.425112 
L 369.399357 252.608593 
L 366.512781 255.635374 
L 363.473629 258.501331 
L 360.294272 261.194094 
L 356.982957 263.713663 
L 353.543808 266.039418 
L 349.99332 268.175484 
L 346.331492 270.105366 
L 342.570696 271.824941 
L 338.723303 273.338331 
L 334.79756 274.657909 
L 330.801714 275.783673 
L 326.756384 276.727996 
L 322.66157 277.499124 
L 318.533767 278.105305 
L 314.385345 278.546539 
L 310.224552 278.83932 
L 306.063759 278.987773 
L 301.911213 279.000144 
L 297.766915 278.880557 
L 293.634988 278.63726 
L 285.41237 277.812524 
L 277.247484 276.57542 
L 269.144454 274.98368 
L 261.111525 273.090911 
L 253.144576 270.950721 
L 245.235358 268.608471 
L 233.454005 264.806438 
L 217.854124 259.458025 
L 202.254244 254.126107 
L 190.456396 250.381806 
L 182.505941 248.08904 
L 166.551424 243.639589 
L 158.695814 241.115897 
L 154.831926 239.701475 
L 151.021646 238.150972 
L 147.277344 236.447892 
L 143.607269 234.56337 
L 140.019668 232.513901 
L 136.510417 230.299485 
L 133.09601 227.932493 
L 129.776447 225.421172 
L 126.559977 222.777893 
L 123.446599 220.00678 
L 120.448684 217.116081 
L 117.566231 214.122289 
L 114.80749 211.025406 
L 112.176582 207.841925 
L 109.665261 204.571847 
L 107.269403 201.219295 
L 104.989008 197.792517 
L 102.811705 194.291513 
L 100.733371 190.720406 
L 96.852988 183.392627 
L 93.306623 175.838046 
L 90.077782 168.097899 
L 88.622123 164.168032 
L 87.294298 160.196929 
L 86.114926 156.201083 
L 85.108748 152.172248 
L 84.292259 148.122794 
L 83.681955 144.052722 
L 83.3067 139.966155 
L 83.174742 135.867218 
L 83.3067 131.760033 
L 83.702573 127.661095 
L 84.345867 123.574528 
L 85.232458 119.516827 
L 86.349975 115.49624 
L 87.690171 111.52926 
L 89.244799 107.620011 
L 91.00561 103.789113 
L 92.964358 100.044811 
L 95.108671 96.395355 
L 97.430303 92.857237 
L 99.925129 89.438707 
L 102.576655 86.152134 
L 105.384881 83.014014 
L 108.329189 80.02847 
L 111.409578 77.211996 
L 114.6178 74.576965 
L 117.937363 72.135746 
L 121.364141 69.892465 
L 124.885763 67.867738 
L 124.885763 67.867738 
" style="fill:none;stroke:#fea952;stroke-linecap:square;"/>
   </g>
   <g id="line2d_17">
    <path clip-path="url(#p5229c2c8cd)" d="M 230.463604 224.498992 
L 229.064201 219.368385 
L 228.0084 214.21743 
L 227.281115 209.046528 
L 226.877249 203.886636 
L 226.784112 198.734845 
L 226.995445 193.603671 
L 227.502263 188.531295 
L 228.295155 183.504621 
L 229.372811 178.520783 
L 230.722072 173.637718 
L 232.334875 168.841691 
L 234.208354 164.136425 
L 236.338981 159.534157 
L 238.712158 155.0667 
L 241.337554 150.711732 
L 244.188219 146.523968 
L 247.287093 142.464106 
L 250.607449 138.586304 
L 254.148431 134.890895 
L 257.917968 131.37881 
L 261.883937 128.092216 
L 266.032333 125.037607 
L 270.375011 122.21057 
L 274.89582 119.634377 
L 279.548594 117.343574 
L 284.360454 115.324899 
L 289.315147 113.602735 
L 294.415047 112.195651 
L 299.595466 111.138886 
L 304.873423 110.435035 
L 310.16682 110.10659 
L 315.407316 110.141695 
L 320.626592 110.516849 
L 325.776911 111.219003 
L 330.841025 112.227519 
L 335.817802 113.526009 
L 340.706043 115.104436 
L 345.492246 116.955365 
L 350.134125 119.055833 
L 354.658728 121.409227 
L 359.011668 123.988043 
L 363.179927 126.770277 
L 367.210127 129.774516 
L 371.037487 132.953749 
L 374.691481 136.310587 
L 378.17952 139.846375 
L 381.463584 143.516172 
L 384.585245 147.346854 
L 387.522074 151.31362 
L 390.28055 155.416131 
L 392.855068 159.64606 
L 395.253225 164.024192 
L 397.456429 168.545023 
L 399.448395 173.213796 
L 401.184283 177.966079 
L 402.686514 182.8829 
L 403.899025 187.892439 
L 404.812265 193.013144 
L 405.397444 198.218414 
L 405.631471 203.494926 
L 405.499364 208.742516 
L 405.018914 213.930845 
L 404.20877 219.05735 
L 403.087369 224.093875 
L 401.672795 229.035239 
L 399.972577 233.89236 
L 398.019647 238.593666 
L 395.798415 243.220209 
L 393.342701 247.686144 
L 390.666905 251.994607 
L 387.762761 256.166824 
L 384.646778 260.171742 
L 381.336071 263.99238 
L 377.829356 267.635828 
L 374.134119 271.088219 
L 370.28241 274.320894 
L 366.223119 277.377307 
L 362.047164 280.173374 
L 357.683803 282.767682 
L 353.190499 285.106359 
L 348.608646 287.174824 
L 343.978791 288.973408 
L 339.270549 290.534562 
L 334.551356 291.846548 
L 329.808984 292.937789 
L 325.058167 293.818808 
L 320.278335 294.507508 
L 315.543161 295.000573 
L 310.812691 295.323551 
L 306.112899 295.482419 
L 301.435444 295.488 
L 296.797349 295.346756 
L 292.202504 295.069659 
L 287.660096 294.668075 
L 283.12121 294.147344 
L 274.231581 292.792081 
L 265.501701 291.071132 
L 256.955953 289.053585 
L 248.54568 286.791362 
L 240.291945 284.345002 
L 228.193412 280.439797 
L 212.445503 275.040791 
L 197.127261 269.803792 
L 185.786118 266.201549 
L 178.139509 263.995329 
L 161.692459 259.402401 
L 153.025688 256.605424 
L 148.614823 254.979675 
L 144.192345 253.165512 
L 139.742832 251.121231 
L 135.42537 248.88581 
L 131.217155 246.463508 
L 127.112946 243.855418 
L 123.144358 241.086975 
L 119.303812 238.164785 
L 115.593381 235.098994 
L 111.99733 231.880701 
L 108.566295 228.556562 
L 105.249695 225.094011 
L 102.092802 221.53314 
L 99.094503 217.888565 
L 96.245187 214.16233 
L 93.537345 210.357476 
L 90.982085 206.503537 
L 88.555563 202.58839 
L 86.255871 198.624694 
L 84.076003 194.620909 
L 80.038179 186.491381 
L 76.343269 178.150159 
L 74.610075 173.82728 
L 72.978738 169.398738 
L 71.47426 164.866207 
L 70.111734 160.197786 
L 68.939431 155.432456 
L 67.979911 150.56882 
L 67.256341 145.561028 
L 66.820521 140.496898 
L 66.688529 135.33754 
L 66.888375 130.174359 
L 67.408502 125.096135 
L 68.231321 120.053566 
L 69.340202 115.099595 
L 70.722957 110.216841 
L 72.362974 105.43395 
L 74.257422 100.731303 
L 76.389974 96.143268 
L 78.742866 91.68868 
L 81.317835 87.346123 
L 84.106432 83.133544 
L 87.087456 79.081588 
L 90.284954 75.152596 
L 93.640528 71.431875 
L 97.198807 67.855123 
L 100.940428 64.46552 
L 104.845541 61.288673 
L 108.903033 58.335143 
L 113.142629 55.592727 
L 116.664251 53.568 
L 116.664251 53.568 
" style="fill:none;stroke:#ffffff;stroke-linecap:square;"/>
   </g>
   <g id="line2d_18">
    <path clip-path="url(#p5229c2c8cd)" d="M 262.2339 215.613537 
L 261.340536 212.546269 
L 260.647898 209.425122 
L 260.154573 206.282686 
L 259.857414 203.104497 
L 259.752614 199.90996 
L 259.838186 196.711301 
L 260.114867 193.503327 
L 260.575574 190.307384 
L 261.213368 187.151078 
L 262.04141 184.001215 
L 263.04302 180.896271 
L 264.212817 177.84902 
L 265.546081 174.871964 
L 267.049163 171.958034 
L 268.6959 169.146047 
L 270.51324 166.406029 
L 272.453503 163.793777 
L 274.543415 161.288123 
L 276.767337 158.905228 
L 279.100846 156.668902 
L 281.584312 154.553476 
L 284.182256 152.585444 
L 286.874576 150.777464 
L 289.636185 149.147504 
L 292.496756 147.685758 
L 295.396178 146.413737 
L 298.317713 145.340045 
L 301.242494 144.470858 
L 304.210466 143.803926 
L 307.163374 143.344899 
L 310.16682 143.096028 
L 313.256158 143.060923 
L 316.366716 143.230095 
L 319.51324 143.608345 
L 322.679991 144.19157 
L 325.843358 144.971414 
L 328.963303 145.933174 
L 332.036833 147.076037 
L 335.056751 148.398223 
L 337.979514 149.871604 
L 340.818272 151.507189 
L 343.586043 153.310487 
L 346.236204 155.238169 
L 348.817042 157.337246 
L 351.299084 159.572118 
L 353.674917 161.933191 
L 355.966068 164.448915 
L 358.139213 167.067667 
L 360.208531 169.814252 
L 362.159296 172.664265 
L 363.980622 175.601291 
L 365.65666 178.5963 
L 367.173015 181.630049 
L 368.512982 184.672558 
L 369.688413 187.780009 
L 370.668637 190.830137 
L 371.460234 193.894763 
L 372.056261 196.930697 
L 372.452517 199.93155 
L 372.647354 202.902397 
L 372.631007 205.918661 
L 372.402185 208.985939 
L 371.966978 212.073804 
L 371.323444 215.185671 
L 370.478241 218.301978 
L 369.448583 221.378816 
L 368.209785 224.463018 
L 366.818674 227.457035 
L 365.241428 230.405476 
L 363.504888 233.272216 
L 361.633811 236.027782 
L 359.619936 238.678482 
L 357.462643 241.224806 
L 355.196206 243.63492 
L 352.81314 245.914444 
L 350.306134 248.067295 
L 347.742795 250.050019 
L 345.040453 251.905462 
L 342.302837 253.583286 
L 339.472486 255.104373 
L 336.532746 256.475057 
L 333.467815 257.703255 
L 330.324571 258.781255 
L 327.052073 259.720799 
L 323.703785 260.518203 
L 320.264973 261.17944 
L 316.789198 261.703103 
L 313.227529 262.092505 
L 309.636413 262.35509 
L 306.014619 262.493127 
L 302.386982 262.512287 
L 295.067472 262.20486 
L 287.703531 261.477704 
L 280.263388 260.358759 
L 272.787207 258.896228 
L 265.267098 257.128236 
L 257.743472 255.110079 
L 250.178771 252.871939 
L 238.714597 249.173078 
L 223.262746 243.87526 
L 207.381226 238.448422 
L 199.246674 235.826725 
L 190.960048 233.333363 
L 167.835999 226.779797 
L 161.049029 224.423275 
L 157.850946 223.136432 
L 154.811857 221.774553 
L 151.789169 220.24093 
L 148.822181 218.564295 
L 145.907887 216.743552 
L 143.047661 214.778011 
L 140.249083 212.677559 
L 137.526573 210.456792 
L 134.895868 208.132859 
L 132.331072 205.6756 
L 129.882768 203.150567 
L 127.522177 200.517672 
L 125.258661 197.795285 
L 123.085335 194.981363 
L 121.001461 192.081115 
L 118.995931 189.081498 
L 115.21087 182.816119 
L 111.709317 176.225673 
L 108.449133 169.297391 
L 105.545489 162.368518 
L 104.265507 158.937326 
L 103.114336 155.52765 
L 102.118117 152.20438 
L 101.278064 148.912039 
L 100.604608 145.676768 
L 100.107568 142.544417 
L 99.792878 139.435413 
L 99.660954 136.396895 
L 99.725025 133.345706 
L 99.996644 130.226055 
L 100.460413 127.095491 
L 101.124715 123.93406 
L 101.976994 120.775638 
L 103.017368 117.624569 
L 104.232175 114.508719 
L 105.621246 111.434957 
L 107.18585 108.400942 
L 108.899508 105.444586 
L 110.754174 102.580931 
L 112.762802 99.795826 
L 114.868357 97.151672 
L 117.129235 94.596152 
L 119.459571 92.201816 
L 121.878727 89.958473 
L 124.39006 87.865257 
L 126.971693 85.93635 
L 129.585653 84.192202 
L 133.107275 82.167476 
L 133.107275 82.167476 
" style="fill:none;stroke:#ffffff;stroke-linecap:square;"/>
   </g>
   <g id="patch_3">
    <path d="M 57.6 307.584 
L 57.6 41.472 
" style="fill:none;stroke:#000000;stroke-linecap:square;stroke-linejoin:miter;stroke-width:0.8;"/>
   </g>
   <g id="patch_4">
    <path d="M 414.72 307.584 
L 414.72 41.472 
" style="fill:none;stroke:#000000;stroke-linecap:square;stroke-linejoin:miter;stroke-width:0.8;"/>
   </g>
   <g id="patch_5">
    <path d="M 57.6 307.584 
L 414.72 307.584 
" style="fill:none;stroke:#000000;stroke-linecap:square;stroke-linejoin:miter;stroke-width:0.8;"/>
   </g>
   <g id="patch_6">
    <path d="M 57.6 41.472 
L 414.72 41.472 
" style="fill:none;stroke:#000000;stroke-linecap:square;stroke-linejoin:miter;stroke-width:0.8;"/>
   </g>
  </g>
 </g>
 <defs>
  <clipPath id="p5229c2c8cd">
   <rect height="266.112" width="357.12" x="57.6" y="41.472"/>
  </clipPath>
 </defs>
</svg>
