<?xml version="1.0" encoding="utf-8" standalone="no"?>
<!DOCTYPE svg PUBLIC "-//W3C//DTD SVG 1.1//EN"
  "http://www.w3.org/Graphics/SVG/1.1/DTD/svg11.dtd">
<!-- Created with matplotlib (https://matplotlib.org/) -->
<svg height="345.6pt" version="1.1" viewBox="0 0 460.8 345.6" width="460.8pt" xmlns="http://www.w3.org/2000/svg" xmlns:xlink="http://www.w3.org/1999/xlink">
 <metadata>
  <rdf:RDF xmlns:cc="http://creativecommons.org/ns#" xmlns:dc="http://purl.org/dc/elements/1.1/" xmlns:rdf="http://www.w3.org/1999/02/22-rdf-syntax-ns#">
   <cc:Work>
    <dc:type rdf:resource="http://purl.org/dc/dcmitype/StillImage"/>
    <dc:date>2021-01-23T11:27:56.378282</dc:date>
    <dc:format>image/svg+xml</dc:format>
    <dc:creator>
     <cc:Agent>
      <dc:title>Matplotlib v3.3.3, https://matplotlib.org/</dc:title>
     </cc:Agent>
    </dc:creator>
   </cc:Work>
  </rdf:RDF>
 </metadata>
 <defs>
  <style type="text/css">*{stroke-linecap:butt;stroke-linejoin:round;}</style>
 </defs>
 <g id="figure_1">
  <g id="patch_1">
   <path d="M 0 345.6 
L 460.8 345.6 
L 460.8 0 
L 0 0 
z
" style="fill:#ffffff;"/>
  </g>
  <g id="axes_1">
   <g id="patch_2">
    <path d="M 57.6 307.584 
L 414.72 307.584 
L 414.72 41.472 
L 57.6 41.472 
z
" style="fill:#7d9051;"/>
   </g>
   <g id="matplotlib.axis_1">
    <g id="xtick_1">
     <g id="line2d_1">
      <defs>
       <path d="M 0 0 
L 0 3.5 
" id="m9373fdd859" style="stroke:#000000;stroke-width:0.8;"/>
      </defs>
      <g>
       <use style="stroke:#000000;stroke-width:0.8;" x="95.619766" xlink:href="#m9373fdd859" y="307.584"/>
      </g>
     </g>
     <g id="text_1">
      <!-- 0 -->
      <g transform="translate(92.438516 322.182437)scale(0.1 -0.1)">
       <defs>
        <path d="M 31.78125 66.40625 
Q 24.171875 66.40625 20.328125 58.90625 
Q 16.5 51.421875 16.5 36.375 
Q 16.5 21.390625 20.328125 13.890625 
Q 24.171875 6.390625 31.78125 6.390625 
Q 39.453125 6.390625 43.28125 13.890625 
Q 47.125 21.390625 47.125 36.375 
Q 47.125 51.421875 43.28125 58.90625 
Q 39.453125 66.40625 31.78125 66.40625 
z
M 31.78125 74.21875 
Q 44.046875 74.21875 50.515625 64.515625 
Q 56.984375 54.828125 56.984375 36.375 
Q 56.984375 17.96875 50.515625 8.265625 
Q 44.046875 -1.421875 31.78125 -1.421875 
Q 19.53125 -1.421875 13.0625 8.265625 
Q 6.59375 17.96875 6.59375 36.375 
Q 6.59375 54.828125 13.0625 64.515625 
Q 19.53125 74.21875 31.78125 74.21875 
z
" id="DejaVuSans-48"/>
       </defs>
       <use xlink:href="#DejaVuSans-48"/>
      </g>
     </g>
    </g>
    <g id="xtick_2">
     <g id="line2d_2">
      <g>
       <use style="stroke:#000000;stroke-width:0.8;" x="148.145281" xlink:href="#m9373fdd859" y="307.584"/>
      </g>
     </g>
     <g id="text_2">
      <!-- 20 -->
      <g transform="translate(141.782781 322.182437)scale(0.1 -0.1)">
       <defs>
        <path d="M 19.1875 8.296875 
L 53.609375 8.296875 
L 53.609375 0 
L 7.328125 0 
L 7.328125 8.296875 
Q 12.9375 14.109375 22.625 23.890625 
Q 32.328125 33.6875 34.8125 36.53125 
Q 39.546875 41.84375 41.421875 45.53125 
Q 43.3125 49.21875 43.3125 52.78125 
Q 43.3125 58.59375 39.234375 62.25 
Q 35.15625 65.921875 28.609375 65.921875 
Q 23.96875 65.921875 18.8125 64.3125 
Q 13.671875 62.703125 7.8125 59.421875 
L 7.8125 69.390625 
Q 13.765625 71.78125 18.9375 73 
Q 24.125 74.21875 28.421875 74.21875 
Q 39.75 74.21875 46.484375 68.546875 
Q 53.21875 62.890625 53.21875 53.421875 
Q 53.21875 48.921875 51.53125 44.890625 
Q 49.859375 40.875 45.40625 35.40625 
Q 44.1875 33.984375 37.640625 27.21875 
Q 31.109375 20.453125 19.1875 8.296875 
z
" id="DejaVuSans-50"/>
       </defs>
       <use xlink:href="#DejaVuSans-50"/>
       <use x="63.623047" xlink:href="#DejaVuSans-48"/>
      </g>
     </g>
    </g>
    <g id="xtick_3">
     <g id="line2d_3">
      <g>
       <use style="stroke:#000000;stroke-width:0.8;" x="200.670796" xlink:href="#m9373fdd859" y="307.584"/>
      </g>
     </g>
     <g id="text_3">
      <!-- 40 -->
      <g transform="translate(194.308296 322.182437)scale(0.1 -0.1)">
       <defs>
        <path d="M 37.796875 64.3125 
L 12.890625 25.390625 
L 37.796875 25.390625 
z
M 35.203125 72.90625 
L 47.609375 72.90625 
L 47.609375 25.390625 
L 58.015625 25.390625 
L 58.015625 17.1875 
L 47.609375 17.1875 
L 47.609375 0 
L 37.796875 0 
L 37.796875 17.1875 
L 4.890625 17.1875 
L 4.890625 26.703125 
z
" id="DejaVuSans-52"/>
       </defs>
       <use xlink:href="#DejaVuSans-52"/>
       <use x="63.623047" xlink:href="#DejaVuSans-48"/>
      </g>
     </g>
    </g>
    <g id="xtick_4">
     <g id="line2d_4">
      <g>
       <use style="stroke:#000000;stroke-width:0.8;" x="253.196311" xlink:href="#m9373fdd859" y="307.584"/>
      </g>
     </g>
     <g id="text_4">
      <!-- 60 -->
      <g transform="translate(246.833811 322.182437)scale(0.1 -0.1)">
       <defs>
        <path d="M 33.015625 40.375 
Q 26.375 40.375 22.484375 35.828125 
Q 18.609375 31.296875 18.609375 23.390625 
Q 18.609375 15.53125 22.484375 10.953125 
Q 26.375 6.390625 33.015625 6.390625 
Q 39.65625 6.390625 43.53125 10.953125 
Q 47.40625 15.53125 47.40625 23.390625 
Q 47.40625 31.296875 43.53125 35.828125 
Q 39.65625 40.375 33.015625 40.375 
z
M 52.59375 71.296875 
L 52.59375 62.3125 
Q 48.875 64.0625 45.09375 64.984375 
Q 41.3125 65.921875 37.59375 65.921875 
Q 27.828125 65.921875 22.671875 59.328125 
Q 17.53125 52.734375 16.796875 39.40625 
Q 19.671875 43.65625 24.015625 45.921875 
Q 28.375 48.1875 33.59375 48.1875 
Q 44.578125 48.1875 50.953125 41.515625 
Q 57.328125 34.859375 57.328125 23.390625 
Q 57.328125 12.15625 50.6875 5.359375 
Q 44.046875 -1.421875 33.015625 -1.421875 
Q 20.359375 -1.421875 13.671875 8.265625 
Q 6.984375 17.96875 6.984375 36.375 
Q 6.984375 53.65625 15.1875 63.9375 
Q 23.390625 74.21875 37.203125 74.21875 
Q 40.921875 74.21875 44.703125 73.484375 
Q 48.484375 72.75 52.59375 71.296875 
z
" id="DejaVuSans-54"/>
       </defs>
       <use xlink:href="#DejaVuSans-54"/>
       <use x="63.623047" xlink:href="#DejaVuSans-48"/>
      </g>
     </g>
    </g>
    <g id="xtick_5">
     <g id="line2d_5">
      <g>
       <use style="stroke:#000000;stroke-width:0.8;" x="305.721826" xlink:href="#m9373fdd859" y="307.584"/>
      </g>
     </g>
     <g id="text_5">
      <!-- 80 -->
      <g transform="translate(299.359326 322.182437)scale(0.1 -0.1)">
       <defs>
        <path d="M 31.78125 34.625 
Q 24.75 34.625 20.71875 30.859375 
Q 16.703125 27.09375 16.703125 20.515625 
Q 16.703125 13.921875 20.71875 10.15625 
Q 24.75 6.390625 31.78125 6.390625 
Q 38.8125 6.390625 42.859375 10.171875 
Q 46.921875 13.96875 46.921875 20.515625 
Q 46.921875 27.09375 42.890625 30.859375 
Q 38.875 34.625 31.78125 34.625 
z
M 21.921875 38.8125 
Q 15.578125 40.375 12.03125 44.71875 
Q 8.5 49.078125 8.5 55.328125 
Q 8.5 64.0625 14.71875 69.140625 
Q 20.953125 74.21875 31.78125 74.21875 
Q 42.671875 74.21875 48.875 69.140625 
Q 55.078125 64.0625 55.078125 55.328125 
Q 55.078125 49.078125 51.53125 44.71875 
Q 48 40.375 41.703125 38.8125 
Q 48.828125 37.15625 52.796875 32.3125 
Q 56.78125 27.484375 56.78125 20.515625 
Q 56.78125 9.90625 50.3125 4.234375 
Q 43.84375 -1.421875 31.78125 -1.421875 
Q 19.734375 -1.421875 13.25 4.234375 
Q 6.78125 9.90625 6.78125 20.515625 
Q 6.78125 27.484375 10.78125 32.3125 
Q 14.796875 37.15625 21.921875 38.8125 
z
M 18.3125 54.390625 
Q 18.3125 48.734375 21.84375 45.5625 
Q 25.390625 42.390625 31.78125 42.390625 
Q 38.140625 42.390625 41.71875 45.5625 
Q 45.3125 48.734375 45.3125 54.390625 
Q 45.3125 60.0625 41.71875 63.234375 
Q 38.140625 66.40625 31.78125 66.40625 
Q 25.390625 66.40625 21.84375 63.234375 
Q 18.3125 60.0625 18.3125 54.390625 
z
" id="DejaVuSans-56"/>
       </defs>
       <use xlink:href="#DejaVuSans-56"/>
       <use x="63.623047" xlink:href="#DejaVuSans-48"/>
      </g>
     </g>
    </g>
    <g id="xtick_6">
     <g id="line2d_6">
      <g>
       <use style="stroke:#000000;stroke-width:0.8;" x="358.247341" xlink:href="#m9373fdd859" y="307.584"/>
      </g>
     </g>
     <g id="text_6">
      <!-- 100 -->
      <g transform="translate(348.703591 322.182437)scale(0.1 -0.1)">
       <defs>
        <path d="M 12.40625 8.296875 
L 28.515625 8.296875 
L 28.515625 63.921875 
L 10.984375 60.40625 
L 10.984375 69.390625 
L 28.421875 72.90625 
L 38.28125 72.90625 
L 38.28125 8.296875 
L 54.390625 8.296875 
L 54.390625 0 
L 12.40625 0 
z
" id="DejaVuSans-49"/>
       </defs>
       <use xlink:href="#DejaVuSans-49"/>
       <use x="63.623047" xlink:href="#DejaVuSans-48"/>
       <use x="127.246094" xlink:href="#DejaVuSans-48"/>
      </g>
     </g>
    </g>
    <g id="xtick_7">
     <g id="line2d_7">
      <g>
       <use style="stroke:#000000;stroke-width:0.8;" x="410.772856" xlink:href="#m9373fdd859" y="307.584"/>
      </g>
     </g>
     <g id="text_7">
      <!-- 120 -->
      <g transform="translate(401.229106 322.182437)scale(0.1 -0.1)">
       <use xlink:href="#DejaVuSans-49"/>
       <use x="63.623047" xlink:href="#DejaVuSans-50"/>
       <use x="127.246094" xlink:href="#DejaVuSans-48"/>
      </g>
     </g>
    </g>
   </g>
   <g id="matplotlib.axis_2">
    <g id="ytick_1">
     <g id="line2d_8">
      <defs>
       <path d="M 0 0 
L -3.5 0 
" id="m7cc4b6b2c2" style="stroke:#000000;stroke-width:0.8;"/>
      </defs>
      <g>
       <use style="stroke:#000000;stroke-width:0.8;" x="57.6" xlink:href="#m7cc4b6b2c2" y="259.197176"/>
      </g>
     </g>
     <g id="text_8">
      <!-- 20 -->
      <g transform="translate(37.875 262.996395)scale(0.1 -0.1)">
       <use xlink:href="#DejaVuSans-50"/>
       <use x="63.623047" xlink:href="#DejaVuSans-48"/>
      </g>
     </g>
    </g>
    <g id="ytick_2">
     <g id="line2d_9">
      <g>
       <use style="stroke:#000000;stroke-width:0.8;" x="57.6" xlink:href="#m7cc4b6b2c2" y="206.671661"/>
      </g>
     </g>
     <g id="text_9">
      <!-- 40 -->
      <g transform="translate(37.875 210.47088)scale(0.1 -0.1)">
       <use xlink:href="#DejaVuSans-52"/>
       <use x="63.623047" xlink:href="#DejaVuSans-48"/>
      </g>
     </g>
    </g>
    <g id="ytick_3">
     <g id="line2d_10">
      <g>
       <use style="stroke:#000000;stroke-width:0.8;" x="57.6" xlink:href="#m7cc4b6b2c2" y="154.146146"/>
      </g>
     </g>
     <g id="text_10">
      <!-- 60 -->
      <g transform="translate(37.875 157.945365)scale(0.1 -0.1)">
       <use xlink:href="#DejaVuSans-54"/>
       <use x="63.623047" xlink:href="#DejaVuSans-48"/>
      </g>
     </g>
    </g>
    <g id="ytick_4">
     <g id="line2d_11">
      <g>
       <use style="stroke:#000000;stroke-width:0.8;" x="57.6" xlink:href="#m7cc4b6b2c2" y="101.620631"/>
      </g>
     </g>
     <g id="text_11">
      <!-- 80 -->
      <g transform="translate(37.875 105.41985)scale(0.1 -0.1)">
       <use xlink:href="#DejaVuSans-56"/>
       <use x="63.623047" xlink:href="#DejaVuSans-48"/>
      </g>
     </g>
    </g>
    <g id="ytick_5">
     <g id="line2d_12">
      <g>
       <use style="stroke:#000000;stroke-width:0.8;" x="57.6" xlink:href="#m7cc4b6b2c2" y="49.095116"/>
      </g>
     </g>
     <g id="text_12">
      <!-- 100 -->
      <g transform="translate(31.5125 52.894335)scale(0.1 -0.1)">
       <use xlink:href="#DejaVuSans-49"/>
       <use x="63.623047" xlink:href="#DejaVuSans-48"/>
       <use x="127.246094" xlink:href="#DejaVuSans-48"/>
      </g>
     </g>
    </g>
   </g>
   <g id="line2d_13">
    <path clip-path="url(#p75ced1dcad)" d="M 121.882523 144.717816 
L 121.160298 139.56769 
L 120.792619 134.323017 
L 120.789993 129.031071 
L 121.157671 123.725994 
L 121.903534 118.455059 
L 123.035458 113.257659 
L 124.561325 108.175816 
L 126.491637 103.248922 
L 127.607805 100.859011 
L 128.829023 98.524252 
L 130.152666 96.249897 
L 131.583986 94.041199 
L 133.117731 91.900785 
L 134.753901 89.833906 
L 136.487243 87.843189 
L 138.307252 85.926007 
L 142.196766 82.333262 
L 146.380424 79.071428 
L 150.813577 76.156262 
L 155.456833 73.598269 
L 160.270796 71.405329 
L 165.229205 69.580067 
L 170.297917 68.122484 
L 175.442791 67.035206 
L 180.637565 66.305101 
L 185.86648 65.858634 
L 193.753186 65.53035 
L 209.534477 65.076004 
L 233.142069 64.135797 
L 241.01827 64.093777 
L 246.270822 64.264485 
L 251.523373 64.647921 
L 256.770672 65.293985 
L 261.986456 66.244697 
L 267.120825 67.544703 
L 269.64205 68.337839 
L 272.12388 69.238651 
L 274.558438 70.244515 
L 276.94047 71.368561 
L 279.264724 72.610789 
L 281.520695 73.976453 
L 283.711009 75.462925 
L 285.822535 77.0597 
L 287.855272 78.76678 
L 289.803969 80.573657 
L 291.660746 82.477707 
L 293.422977 84.468424 
L 295.085409 86.543182 
L 296.645417 88.694102 
L 298.095121 90.915931 
L 299.429269 93.203418 
L 300.653114 95.551308 
L 301.761402 97.951724 
L 302.756761 100.402039 
L 303.641816 102.894375 
L 304.416567 105.426105 
L 305.078389 107.991976 
L 306.073747 113.197255 
L 306.633144 118.473443 
L 306.764458 123.773267 
L 306.475567 129.062587 
L 305.771725 134.302007 
L 304.666063 139.449507 
L 303.163833 144.470946 
L 301.322814 149.366324 
L 299.240178 154.177662 
L 291.503169 170.980574 
L 289.551846 175.907467 
L 287.863151 180.902644 
L 286.510619 185.973982 
L 285.982738 188.537227 
L 285.570412 191.118856 
L 285.276269 193.718869 
L 285.029399 198.963542 
L 285.200107 204.234478 
L 285.738494 209.505413 
L 286.597286 214.739581 
L 287.734463 219.910718 
L 289.121137 224.995187 
L 290.765186 229.990364 
L 292.671862 234.890994 
L 294.841166 239.6892 
L 297.27835 244.377102 
L 299.988666 248.933691 
L 302.98262 253.301187 
L 306.268091 257.432319 
L 309.850332 261.279813 
L 311.754381 263.078812 
L 315.788341 266.411556 
L 320.090181 269.416015 
L 324.615254 272.123706 
L 329.32154 274.563516 
L 334.164392 276.772214 
L 339.104417 278.778689 
L 344.094341 280.619708 
L 351.58448 283.138306 
L 358.948557 285.459934 
L 358.948557 285.459934 
" style="fill:none;stroke:#fea952;stroke-linecap:square;"/>
   </g>
   <g id="line2d_14">
    <path clip-path="url(#p75ced1dcad)" d="M 111.506058 146.356766 
L 110.695123 140.482735 
L 110.289197 134.510951 
L 110.298758 128.491463 
L 110.731473 122.440857 
L 111.59886 116.412784 
L 112.200257 113.416487 
L 112.917483 110.432105 
L 113.748972 107.483998 
L 114.702155 104.548975 
L 115.7764 101.655378 
L 116.973427 98.803604 
L 118.299185 95.990049 
L 119.749617 93.240164 
L 121.336834 90.536903 
L 123.044845 87.922355 
L 124.881037 85.380504 
L 126.831194 82.935507 
L 128.868444 80.610548 
L 131.021076 78.358391 
L 133.247007 76.227722 
L 135.572326 74.180105 
L 137.964358 72.247515 
L 140.438683 70.40812 
L 142.971271 68.680826 
L 145.570247 67.053258 
L 148.218854 65.536462 
L 150.922135 64.122315 
L 153.670724 62.815301 
L 156.461246 61.615307 
L 162.143478 59.53838 
L 167.938043 57.885874 
L 173.813028 56.657294 
L 179.617265 55.849663 
L 185.289571 55.369384 
L 193.501639 55.028259 
L 209.09321 54.580173 
L 232.953008 53.632396 
L 241.259824 53.591452 
L 246.92089 53.779515 
L 252.662813 54.204796 
L 258.489255 54.930411 
L 264.369907 56.013551 
L 267.34098 56.71358 
L 270.273249 57.523755 
L 273.226222 58.463078 
L 276.135283 59.529592 
L 279.041566 60.744054 
L 281.892196 62.103703 
L 284.704899 63.624039 
L 287.419835 65.28408 
L 290.04737 67.083921 
L 292.578359 69.015073 
L 294.997904 71.063534 
L 297.324976 73.239379 
L 299.526654 75.514614 
L 301.621019 77.899613 
L 303.58934 80.375496 
L 305.443361 82.9536 
L 307.169585 85.623362 
L 308.744792 88.347675 
L 310.19071 91.147735 
L 311.494143 93.998124 
L 312.656213 96.886639 
L 313.687092 99.820354 
L 314.588745 102.80237 
L 315.353492 105.805784 
L 315.986682 108.82502 
L 316.495473 111.876337 
L 316.874286 114.934878 
L 317.127815 118.005395 
L 317.2563 121.071299 
L 317.263246 124.137447 
L 317.14851 127.204968 
L 316.9132 130.251288 
L 316.557422 133.299851 
L 316.08473 136.301787 
L 315.494577 139.300815 
L 314.789272 142.256254 
L 313.966115 145.192928 
L 312.056094 150.780485 
L 309.905263 156.048349 
L 306.508586 163.454332 
L 302.199138 172.708026 
L 300.308044 177.198871 
L 298.670467 181.609547 
L 297.337744 185.944774 
L 296.356364 190.194053 
L 295.756974 194.43442 
L 295.533479 198.816925 
L 295.666882 203.337921 
L 296.127143 207.945556 
L 296.885372 212.61532 
L 297.903371 217.274334 
L 299.14131 221.8403 
L 300.604004 226.308674 
L 302.302439 230.694665 
L 304.228837 234.974456 
L 306.385852 239.14159 
L 308.747024 243.132971 
L 311.322392 246.913277 
L 314.104057 250.435546 
L 317.064929 253.643926 
L 320.255877 256.550538 
L 323.764206 259.230232 
L 327.573483 261.703686 
L 331.660512 263.984011 
L 335.979046 266.088079 
L 340.485634 268.029014 
L 345.154983 269.835703 
L 352.359846 272.339349 
L 362.078266 275.431868 
L 362.078266 275.431868 
" style="fill:none;stroke:#ffffff;stroke-linecap:square;"/>
   </g>
   <g id="line2d_15">
    <path clip-path="url(#p75ced1dcad)" d="M 132.258989 143.078867 
L 131.625472 138.652644 
L 131.296041 134.135083 
L 131.281228 129.57068 
L 131.58387 125.011132 
L 132.208207 120.497333 
L 133.153434 116.083213 
L 134.420494 111.802656 
L 136.009848 107.69424 
L 137.908428 103.80834 
L 140.123127 100.160044 
L 142.676608 96.732305 
L 145.593428 93.493624 
L 148.821207 90.48642 
L 152.322165 87.734735 
L 156.056907 85.259265 
L 159.99153 83.074223 
L 164.080346 81.19535 
L 168.314931 79.621754 
L 172.657791 78.359094 
L 177.072554 77.413118 
L 181.657864 76.760539 
L 186.443388 76.347884 
L 194.004733 76.032441 
L 209.975743 75.571835 
L 235.831438 74.593438 
L 243.20372 74.650031 
L 248.017766 74.89555 
L 252.719742 75.341878 
L 257.335595 76.030814 
L 261.79519 76.978648 
L 266.057877 78.212599 
L 270.07531 79.744976 
L 273.824549 81.59754 
L 277.374648 83.841929 
L 280.71264 86.470025 
L 283.794837 89.440801 
L 286.581479 92.710868 
L 289.020657 96.208501 
L 291.115518 99.954881 
L 292.857309 103.91744 
L 294.244389 108.04984 
L 295.273131 112.343201 
L 295.940282 116.722688 
L 296.246352 121.175411 
L 296.196566 125.641391 
L 295.794921 130.083126 
L 295.045636 134.476962 
L 293.96358 138.764294 
L 292.506715 143.083049 
L 290.707628 147.511395 
L 287.52811 154.444877 
L 282.908221 164.384006 
L 280.69182 169.673412 
L 278.668368 175.179553 
L 276.938854 180.913468 
L 276.221444 183.855003 
L 275.609111 186.880402 
L 275.131897 189.937933 
L 274.795564 193.003319 
L 274.596121 196.061872 
L 274.52532 199.110159 
L 274.733332 205.131034 
L 275.349845 211.06527 
L 276.3092 216.863841 
L 277.565556 222.547101 
L 279.100964 228.150075 
L 280.926367 233.672054 
L 283.041285 239.087324 
L 285.453494 244.403944 
L 288.170847 249.612615 
L 291.230308 254.734411 
L 294.642849 259.689098 
L 296.488858 262.087652 
L 298.432126 264.429092 
L 300.482176 266.711329 
L 302.635734 268.915701 
L 304.89435 271.034763 
L 307.218563 273.026497 
L 309.613916 274.910595 
L 314.548876 278.340764 
L 319.656543 281.384827 
L 324.852992 284.070843 
L 330.118826 286.467088 
L 335.393117 288.606376 
L 340.653714 290.545395 
L 348.390096 293.145959 
L 355.818847 295.488 
L 355.818847 295.488 
" style="fill:none;stroke:#ffffff;stroke-linecap:square;"/>
   </g>
   <g id="patch_3">
    <path d="M 57.6 307.584 
L 57.6 41.472 
" style="fill:none;stroke:#000000;stroke-linecap:square;stroke-linejoin:miter;stroke-width:0.8;"/>
   </g>
   <g id="patch_4">
    <path d="M 414.72 307.584 
L 414.72 41.472 
" style="fill:none;stroke:#000000;stroke-linecap:square;stroke-linejoin:miter;stroke-width:0.8;"/>
   </g>
   <g id="patch_5">
    <path d="M 57.6 307.584 
L 414.72 307.584 
" style="fill:none;stroke:#000000;stroke-linecap:square;stroke-linejoin:miter;stroke-width:0.8;"/>
   </g>
   <g id="patch_6">
    <path d="M 57.6 41.472 
L 414.72 41.472 
" style="fill:none;stroke:#000000;stroke-linecap:square;stroke-linejoin:miter;stroke-width:0.8;"/>
   </g>
  </g>
 </g>
 <defs>
  <clipPath id="p75ced1dcad">
   <rect height="266.112" width="357.12" x="57.6" y="41.472"/>
  </clipPath>
 </defs>
</svg>
