<?xml version="1.0" encoding="utf-8" standalone="no"?>
<!DOCTYPE svg PUBLIC "-//W3C//DTD SVG 1.1//EN"
  "http://www.w3.org/Graphics/SVG/1.1/DTD/svg11.dtd">
<!-- Created with matplotlib (https://matplotlib.org/) -->
<svg height="345.6pt" version="1.1" viewBox="0 0 460.8 345.6" width="460.8pt" xmlns="http://www.w3.org/2000/svg" xmlns:xlink="http://www.w3.org/1999/xlink">
 <metadata>
  <rdf:RDF xmlns:cc="http://creativecommons.org/ns#" xmlns:dc="http://purl.org/dc/elements/1.1/" xmlns:rdf="http://www.w3.org/1999/02/22-rdf-syntax-ns#">
   <cc:Work>
    <dc:type rdf:resource="http://purl.org/dc/dcmitype/StillImage"/>
    <dc:date>2021-01-22T11:30:54.987923</dc:date>
    <dc:format>image/svg+xml</dc:format>
    <dc:creator>
     <cc:Agent>
      <dc:title>Matplotlib v3.3.3, https://matplotlib.org/</dc:title>
     </cc:Agent>
    </dc:creator>
   </cc:Work>
  </rdf:RDF>
 </metadata>
 <defs>
  <style type="text/css">*{stroke-linecap:butt;stroke-linejoin:round;}</style>
 </defs>
 <g id="figure_1">
  <g id="patch_1">
   <path d="M 0 345.6 
L 460.8 345.6 
L 460.8 0 
L 0 0 
z
" style="fill:#ffffff;"/>
  </g>
  <g id="axes_1">
   <g id="patch_2">
    <path d="M 57.6 307.584 
L 414.72 307.584 
L 414.72 41.472 
L 57.6 41.472 
z
" style="fill:#7d9051;"/>
   </g>
   <g id="matplotlib.axis_1">
    <g id="xtick_1">
     <g id="line2d_1">
      <defs>
       <path d="M 0 0 
L 0 3.5 
" id="m581fc3b1df" style="stroke:#000000;stroke-width:0.8;"/>
      </defs>
      <g>
       <use style="stroke:#000000;stroke-width:0.8;" x="59.681697" xlink:href="#m581fc3b1df" y="307.584"/>
      </g>
     </g>
     <g id="text_1">
      <!-- 0 -->
      <g transform="translate(56.500447 322.182437)scale(0.1 -0.1)">
       <defs>
        <path d="M 31.78125 66.40625 
Q 24.171875 66.40625 20.328125 58.90625 
Q 16.5 51.421875 16.5 36.375 
Q 16.5 21.390625 20.328125 13.890625 
Q 24.171875 6.390625 31.78125 6.390625 
Q 39.453125 6.390625 43.28125 13.890625 
Q 47.125 21.390625 47.125 36.375 
Q 47.125 51.421875 43.28125 58.90625 
Q 39.453125 66.40625 31.78125 66.40625 
z
M 31.78125 74.21875 
Q 44.046875 74.21875 50.515625 64.515625 
Q 56.984375 54.828125 56.984375 36.375 
Q 56.984375 17.96875 50.515625 8.265625 
Q 44.046875 -1.421875 31.78125 -1.421875 
Q 19.53125 -1.421875 13.0625 8.265625 
Q 6.59375 17.96875 6.59375 36.375 
Q 6.59375 54.828125 13.0625 64.515625 
Q 19.53125 74.21875 31.78125 74.21875 
z
" id="DejaVuSans-48"/>
       </defs>
       <use xlink:href="#DejaVuSans-48"/>
      </g>
     </g>
    </g>
    <g id="xtick_2">
     <g id="line2d_2">
      <g>
       <use style="stroke:#000000;stroke-width:0.8;" x="107.618726" xlink:href="#m581fc3b1df" y="307.584"/>
      </g>
     </g>
     <g id="text_2">
      <!-- 20 -->
      <g transform="translate(101.256226 322.182437)scale(0.1 -0.1)">
       <defs>
        <path d="M 19.1875 8.296875 
L 53.609375 8.296875 
L 53.609375 0 
L 7.328125 0 
L 7.328125 8.296875 
Q 12.9375 14.109375 22.625 23.890625 
Q 32.328125 33.6875 34.8125 36.53125 
Q 39.546875 41.84375 41.421875 45.53125 
Q 43.3125 49.21875 43.3125 52.78125 
Q 43.3125 58.59375 39.234375 62.25 
Q 35.15625 65.921875 28.609375 65.921875 
Q 23.96875 65.921875 18.8125 64.3125 
Q 13.671875 62.703125 7.8125 59.421875 
L 7.8125 69.390625 
Q 13.765625 71.78125 18.9375 73 
Q 24.125 74.21875 28.421875 74.21875 
Q 39.75 74.21875 46.484375 68.546875 
Q 53.21875 62.890625 53.21875 53.421875 
Q 53.21875 48.921875 51.53125 44.890625 
Q 49.859375 40.875 45.40625 35.40625 
Q 44.1875 33.984375 37.640625 27.21875 
Q 31.109375 20.453125 19.1875 8.296875 
z
" id="DejaVuSans-50"/>
       </defs>
       <use xlink:href="#DejaVuSans-50"/>
       <use x="63.623047" xlink:href="#DejaVuSans-48"/>
      </g>
     </g>
    </g>
    <g id="xtick_3">
     <g id="line2d_3">
      <g>
       <use style="stroke:#000000;stroke-width:0.8;" x="155.555755" xlink:href="#m581fc3b1df" y="307.584"/>
      </g>
     </g>
     <g id="text_3">
      <!-- 40 -->
      <g transform="translate(149.193255 322.182437)scale(0.1 -0.1)">
       <defs>
        <path d="M 37.796875 64.3125 
L 12.890625 25.390625 
L 37.796875 25.390625 
z
M 35.203125 72.90625 
L 47.609375 72.90625 
L 47.609375 25.390625 
L 58.015625 25.390625 
L 58.015625 17.1875 
L 47.609375 17.1875 
L 47.609375 0 
L 37.796875 0 
L 37.796875 17.1875 
L 4.890625 17.1875 
L 4.890625 26.703125 
z
" id="DejaVuSans-52"/>
       </defs>
       <use xlink:href="#DejaVuSans-52"/>
       <use x="63.623047" xlink:href="#DejaVuSans-48"/>
      </g>
     </g>
    </g>
    <g id="xtick_4">
     <g id="line2d_4">
      <g>
       <use style="stroke:#000000;stroke-width:0.8;" x="203.492783" xlink:href="#m581fc3b1df" y="307.584"/>
      </g>
     </g>
     <g id="text_4">
      <!-- 60 -->
      <g transform="translate(197.130283 322.182437)scale(0.1 -0.1)">
       <defs>
        <path d="M 33.015625 40.375 
Q 26.375 40.375 22.484375 35.828125 
Q 18.609375 31.296875 18.609375 23.390625 
Q 18.609375 15.53125 22.484375 10.953125 
Q 26.375 6.390625 33.015625 6.390625 
Q 39.65625 6.390625 43.53125 10.953125 
Q 47.40625 15.53125 47.40625 23.390625 
Q 47.40625 31.296875 43.53125 35.828125 
Q 39.65625 40.375 33.015625 40.375 
z
M 52.59375 71.296875 
L 52.59375 62.3125 
Q 48.875 64.0625 45.09375 64.984375 
Q 41.3125 65.921875 37.59375 65.921875 
Q 27.828125 65.921875 22.671875 59.328125 
Q 17.53125 52.734375 16.796875 39.40625 
Q 19.671875 43.65625 24.015625 45.921875 
Q 28.375 48.1875 33.59375 48.1875 
Q 44.578125 48.1875 50.953125 41.515625 
Q 57.328125 34.859375 57.328125 23.390625 
Q 57.328125 12.15625 50.6875 5.359375 
Q 44.046875 -1.421875 33.015625 -1.421875 
Q 20.359375 -1.421875 13.671875 8.265625 
Q 6.984375 17.96875 6.984375 36.375 
Q 6.984375 53.65625 15.1875 63.9375 
Q 23.390625 74.21875 37.203125 74.21875 
Q 40.921875 74.21875 44.703125 73.484375 
Q 48.484375 72.75 52.59375 71.296875 
z
" id="DejaVuSans-54"/>
       </defs>
       <use xlink:href="#DejaVuSans-54"/>
       <use x="63.623047" xlink:href="#DejaVuSans-48"/>
      </g>
     </g>
    </g>
    <g id="xtick_5">
     <g id="line2d_5">
      <g>
       <use style="stroke:#000000;stroke-width:0.8;" x="251.429812" xlink:href="#m581fc3b1df" y="307.584"/>
      </g>
     </g>
     <g id="text_5">
      <!-- 80 -->
      <g transform="translate(245.067312 322.182437)scale(0.1 -0.1)">
       <defs>
        <path d="M 31.78125 34.625 
Q 24.75 34.625 20.71875 30.859375 
Q 16.703125 27.09375 16.703125 20.515625 
Q 16.703125 13.921875 20.71875 10.15625 
Q 24.75 6.390625 31.78125 6.390625 
Q 38.8125 6.390625 42.859375 10.171875 
Q 46.921875 13.96875 46.921875 20.515625 
Q 46.921875 27.09375 42.890625 30.859375 
Q 38.875 34.625 31.78125 34.625 
z
M 21.921875 38.8125 
Q 15.578125 40.375 12.03125 44.71875 
Q 8.5 49.078125 8.5 55.328125 
Q 8.5 64.0625 14.71875 69.140625 
Q 20.953125 74.21875 31.78125 74.21875 
Q 42.671875 74.21875 48.875 69.140625 
Q 55.078125 64.0625 55.078125 55.328125 
Q 55.078125 49.078125 51.53125 44.71875 
Q 48 40.375 41.703125 38.8125 
Q 48.828125 37.15625 52.796875 32.3125 
Q 56.78125 27.484375 56.78125 20.515625 
Q 56.78125 9.90625 50.3125 4.234375 
Q 43.84375 -1.421875 31.78125 -1.421875 
Q 19.734375 -1.421875 13.25 4.234375 
Q 6.78125 9.90625 6.78125 20.515625 
Q 6.78125 27.484375 10.78125 32.3125 
Q 14.796875 37.15625 21.921875 38.8125 
z
M 18.3125 54.390625 
Q 18.3125 48.734375 21.84375 45.5625 
Q 25.390625 42.390625 31.78125 42.390625 
Q 38.140625 42.390625 41.71875 45.5625 
Q 45.3125 48.734375 45.3125 54.390625 
Q 45.3125 60.0625 41.71875 63.234375 
Q 38.140625 66.40625 31.78125 66.40625 
Q 25.390625 66.40625 21.84375 63.234375 
Q 18.3125 60.0625 18.3125 54.390625 
z
" id="DejaVuSans-56"/>
       </defs>
       <use xlink:href="#DejaVuSans-56"/>
       <use x="63.623047" xlink:href="#DejaVuSans-48"/>
      </g>
     </g>
    </g>
    <g id="xtick_6">
     <g id="line2d_6">
      <g>
       <use style="stroke:#000000;stroke-width:0.8;" x="299.36684" xlink:href="#m581fc3b1df" y="307.584"/>
      </g>
     </g>
     <g id="text_6">
      <!-- 100 -->
      <g transform="translate(289.82309 322.182437)scale(0.1 -0.1)">
       <defs>
        <path d="M 12.40625 8.296875 
L 28.515625 8.296875 
L 28.515625 63.921875 
L 10.984375 60.40625 
L 10.984375 69.390625 
L 28.421875 72.90625 
L 38.28125 72.90625 
L 38.28125 8.296875 
L 54.390625 8.296875 
L 54.390625 0 
L 12.40625 0 
z
" id="DejaVuSans-49"/>
       </defs>
       <use xlink:href="#DejaVuSans-49"/>
       <use x="63.623047" xlink:href="#DejaVuSans-48"/>
       <use x="127.246094" xlink:href="#DejaVuSans-48"/>
      </g>
     </g>
    </g>
    <g id="xtick_7">
     <g id="line2d_7">
      <g>
       <use style="stroke:#000000;stroke-width:0.8;" x="347.303869" xlink:href="#m581fc3b1df" y="307.584"/>
      </g>
     </g>
     <g id="text_7">
      <!-- 120 -->
      <g transform="translate(337.760119 322.182437)scale(0.1 -0.1)">
       <use xlink:href="#DejaVuSans-49"/>
       <use x="63.623047" xlink:href="#DejaVuSans-50"/>
       <use x="127.246094" xlink:href="#DejaVuSans-48"/>
      </g>
     </g>
    </g>
    <g id="xtick_8">
     <g id="line2d_8">
      <g>
       <use style="stroke:#000000;stroke-width:0.8;" x="395.240897" xlink:href="#m581fc3b1df" y="307.584"/>
      </g>
     </g>
     <g id="text_8">
      <!-- 140 -->
      <g transform="translate(385.697147 322.182437)scale(0.1 -0.1)">
       <use xlink:href="#DejaVuSans-49"/>
       <use x="63.623047" xlink:href="#DejaVuSans-52"/>
       <use x="127.246094" xlink:href="#DejaVuSans-48"/>
      </g>
     </g>
    </g>
   </g>
   <g id="matplotlib.axis_2">
    <g id="ytick_1">
     <g id="line2d_9">
      <defs>
       <path d="M 0 0 
L -3.5 0 
" id="me7e8a6987f" style="stroke:#000000;stroke-width:0.8;"/>
      </defs>
      <g>
       <use style="stroke:#000000;stroke-width:0.8;" x="57.6" xlink:href="#me7e8a6987f" y="259.840041"/>
      </g>
     </g>
     <g id="text_9">
      <!-- 0 -->
      <g transform="translate(44.2375 263.63926)scale(0.1 -0.1)">
       <use xlink:href="#DejaVuSans-48"/>
      </g>
     </g>
    </g>
    <g id="ytick_2">
     <g id="line2d_10">
      <g>
       <use style="stroke:#000000;stroke-width:0.8;" x="57.6" xlink:href="#me7e8a6987f" y="211.903012"/>
      </g>
     </g>
     <g id="text_10">
      <!-- 20 -->
      <g transform="translate(37.875 215.702231)scale(0.1 -0.1)">
       <use xlink:href="#DejaVuSans-50"/>
       <use x="63.623047" xlink:href="#DejaVuSans-48"/>
      </g>
     </g>
    </g>
    <g id="ytick_3">
     <g id="line2d_11">
      <g>
       <use style="stroke:#000000;stroke-width:0.8;" x="57.6" xlink:href="#me7e8a6987f" y="163.965984"/>
      </g>
     </g>
     <g id="text_11">
      <!-- 40 -->
      <g transform="translate(37.875 167.765203)scale(0.1 -0.1)">
       <use xlink:href="#DejaVuSans-52"/>
       <use x="63.623047" xlink:href="#DejaVuSans-48"/>
      </g>
     </g>
    </g>
    <g id="ytick_4">
     <g id="line2d_12">
      <g>
       <use style="stroke:#000000;stroke-width:0.8;" x="57.6" xlink:href="#me7e8a6987f" y="116.028955"/>
      </g>
     </g>
     <g id="text_12">
      <!-- 60 -->
      <g transform="translate(37.875 119.828174)scale(0.1 -0.1)">
       <use xlink:href="#DejaVuSans-54"/>
       <use x="63.623047" xlink:href="#DejaVuSans-48"/>
      </g>
     </g>
    </g>
    <g id="ytick_5">
     <g id="line2d_13">
      <g>
       <use style="stroke:#000000;stroke-width:0.8;" x="57.6" xlink:href="#me7e8a6987f" y="68.091927"/>
      </g>
     </g>
     <g id="text_13">
      <!-- 80 -->
      <g transform="translate(37.875 71.891146)scale(0.1 -0.1)">
       <use xlink:href="#DejaVuSans-56"/>
       <use x="63.623047" xlink:href="#DejaVuSans-48"/>
      </g>
     </g>
    </g>
   </g>
   <g id="line2d_14">
    <path clip-path="url(#p246911dd9e)" d="M 83.650212 235.871527 
L 83.436892 228.618654 
L 83.448876 221.38975 
L 83.746086 209.364747 
L 84.084042 194.92132 
L 84.050486 187.668448 
L 83.820388 175.554761 
L 83.983374 170.737089 
L 84.474729 165.957767 
L 84.88459 163.587281 
L 85.416691 161.233573 
L 86.071032 158.901437 
L 86.842818 156.598063 
L 87.729653 154.330641 
L 88.726743 152.103966 
L 89.831692 149.925228 
L 91.037308 147.801618 
L 92.343592 145.737929 
L 93.743353 143.741352 
L 95.236592 141.819077 
L 96.816117 139.973501 
L 98.479532 138.209418 
L 102.04365 134.925732 
L 105.897787 131.975208 
L 110.008387 129.372227 
L 114.346688 127.123981 
L 118.876737 125.25204 
L 121.199286 124.470666 
L 123.552994 123.801945 
L 125.930671 123.250669 
L 128.327522 122.824029 
L 130.736358 122.529216 
L 133.152384 122.373421 
L 135.56841 122.361437 
L 137.979643 122.498057 
L 140.378891 122.788076 
L 142.761362 123.221907 
L 145.119863 123.792357 
L 147.452 124.494635 
L 149.75058 125.319152 
L 152.008414 126.25632 
L 156.387462 128.449439 
L 160.541205 131.011674 
L 164.44328 133.890292 
L 168.110462 137.039755 
L 171.564325 140.421712 
L 174.82644 143.995418 
L 177.913585 147.712934 
L 183.783474 155.378065 
L 188.267983 161.044222 
L 191.465383 164.651483 
L 194.928833 168.038234 
L 198.665524 171.156538 
L 202.641901 173.965648 
L 206.831597 176.424818 
L 211.201057 178.4933 
L 215.719122 180.142334 
L 220.352236 181.43184 
L 225.071636 182.457693 
L 232.228635 183.720833 
L 241.768103 185.384248 
L 248.855593 186.827153 
L 255.880765 188.500155 
L 262.834031 190.46078 
L 269.705804 192.725804 
L 276.4841 195.266467 
L 283.156934 198.061195 
L 294.120132 203.058631 
L 300.725855 205.999567 
L 305.191189 207.837952 
L 309.721238 209.525336 
L 314.313606 211.030559 
L 318.968291 212.322461 
L 323.680501 213.367489 
L 328.450235 214.134481 
L 333.26551 214.601867 
L 338.104753 214.762456 
L 342.943996 214.606661 
L 347.764064 214.127291 
L 352.543386 213.319552 
L 357.255596 212.17865 
L 361.874328 210.711777 
L 366.375615 208.918932 
L 370.733091 206.809703 
L 374.917994 204.386486 
L 378.908751 201.651679 
L 382.674205 198.612471 
L 386.187989 195.27126 
L 389.428532 191.635237 
L 390.936152 189.708168 
L 390.936152 189.708168 
" style="fill:none;stroke:#fea952;stroke-linecap:square;"/>
   </g>
   <g id="line2d_15">
    <path clip-path="url(#p246911dd9e)" d="M 74.071085 236.269867 
L 73.849718 228.685364 
L 73.862845 221.227437 
L 74.162966 209.078113 
L 74.496712 194.883275 
L 74.46578 187.895978 
L 74.234873 175.364383 
L 74.42804 169.953552 
L 74.66508 167.162849 
L 75.027496 164.324323 
L 75.53317 161.473213 
L 76.185745 158.643596 
L 76.980361 155.855447 
L 77.914059 153.105842 
L 78.97948 150.412372 
L 80.176103 147.767503 
L 81.494206 145.19187 
L 82.936409 142.673871 
L 84.49327 140.234222 
L 86.171956 137.85983 
L 87.952618 135.585131 
L 89.840692 133.396131 
L 91.824572 131.307979 
L 93.890304 129.32981 
L 96.048672 127.443848 
L 98.279011 125.668779 
L 100.590572 123.990735 
L 102.971424 122.41944 
L 105.414799 120.956926 
L 107.923782 119.597477 
L 110.492071 118.345582 
L 113.123362 117.200206 
L 115.819625 116.165103 
L 118.57907 115.248258 
L 121.38755 114.462287 
L 124.250522 113.81163 
L 127.162829 113.307631 
L 130.119404 112.961682 
L 133.104828 112.786133 
L 136.110763 112.789384 
L 139.130185 112.979938 
L 142.096444 113.355772 
L 145.015275 113.903204 
L 147.884304 114.612149 
L 150.689109 115.470252 
L 153.426026 116.464241 
L 156.107409 117.589338 
L 158.708503 118.830283 
L 161.248059 120.185485 
L 163.698755 121.636783 
L 166.077902 123.184583 
L 170.561342 126.508717 
L 174.711786 130.086994 
L 178.563135 133.869231 
L 182.139198 137.795264 
L 185.460906 141.80055 
L 191.391179 149.543584 
L 195.538521 154.794612 
L 198.306178 157.934202 
L 201.219417 160.803119 
L 204.354373 163.439327 
L 207.668744 165.801752 
L 211.1306 167.855283 
L 214.692543 169.564254 
L 218.442467 170.949851 
L 222.495531 172.087075 
L 226.829306 173.032782 
L 233.801721 174.263363 
L 243.587847 175.971125 
L 250.955603 177.472565 
L 258.345135 179.234885 
L 263.259142 180.584063 
L 268.132965 182.076397 
L 275.336767 184.564208 
L 282.42676 187.32808 
L 289.324065 190.31215 
L 306.527203 198.04163 
L 310.705504 199.686672 
L 314.901852 201.160971 
L 319.079778 202.436339 
L 323.259668 203.489964 
L 327.440415 204.299346 
L 331.633172 204.849611 
L 335.845282 205.135662 
L 340.060528 205.147986 
L 344.247878 204.88476 
L 348.397501 204.341528 
L 352.492479 203.512003 
L 356.515064 202.401034 
L 360.432743 201.015195 
L 364.236633 199.354644 
L 367.887507 197.434176 
L 371.373163 195.249511 
L 374.653388 192.828554 
L 377.713798 190.172551 
L 380.553621 187.264196 
L 381.877412 185.727706 
L 383.385031 183.800637 
L 383.385031 183.800637 
" style="fill:none;stroke:#ffffff;stroke-linecap:square;"/>
   </g>
   <g id="line2d_16">
    <path clip-path="url(#p246911dd9e)" d="M 93.229339 235.473187 
L 93.024066 228.551944 
L 93.034908 221.552064 
L 93.329206 209.65138 
L 93.671372 194.959365 
L 93.635191 187.440918 
L 93.405904 175.745138 
L 93.538709 171.520627 
L 93.921961 167.591212 
L 94.647637 163.823551 
L 95.771577 160.090283 
L 97.277383 156.440429 
L 99.138207 152.929365 
L 101.31475 149.622873 
L 103.791541 146.550872 
L 106.558574 143.723848 
L 109.595314 141.148271 
L 112.870035 138.841708 
L 116.378562 136.807651 
L 120.05692 135.077543 
L 123.819502 133.693075 
L 127.61082 132.689707 
L 131.353312 132.096751 
L 135.026058 131.93349 
L 136.829101 132.016177 
L 138.661339 132.220381 
L 142.355423 132.972565 
L 146.075134 134.174062 
L 149.737707 135.777206 
L 153.289834 137.74044 
L 156.678774 140.013745 
L 159.932566 142.596431 
L 163.052418 145.451503 
L 166.056106 148.561844 
L 168.951178 151.887924 
L 171.793194 155.445914 
L 180.997444 167.293832 
L 184.624587 171.368765 
L 186.597067 173.366267 
L 190.772164 177.118281 
L 192.976675 178.873749 
L 195.253664 180.542542 
L 197.615058 182.129544 
L 200.035839 183.610036 
L 202.532595 184.994352 
L 205.09331 186.267744 
L 207.709571 187.422347 
L 210.363959 188.449565 
L 215.607545 190.103086 
L 220.773974 191.362356 
L 225.790194 192.343868 
L 244.496511 195.699657 
L 251.20747 197.210697 
L 257.78779 198.961704 
L 264.292437 200.998788 
L 270.750827 203.320789 
L 277.132349 205.899317 
L 283.556247 208.752212 
L 297.003267 214.834763 
L 301.757161 216.789254 
L 306.640992 218.604456 
L 311.632053 220.23532 
L 316.759665 221.652002 
L 322.01652 222.809391 
L 327.376889 223.661615 
L 332.790998 224.177523 
L 338.256613 224.348659 
L 343.731548 224.161665 
L 349.195535 223.607229 
L 354.638238 222.675295 
L 359.995725 221.366144 
L 365.259388 219.681711 
L 370.39149 217.624741 
L 375.377852 215.196869 
L 380.190007 212.394247 
L 384.783655 209.228213 
L 389.1333 205.697557 
L 391.215508 203.78788 
L 393.208528 201.800456 
L 395.134806 199.716603 
L 398.487273 195.615699 
L 398.487273 195.615699 
" style="fill:none;stroke:#ffffff;stroke-linecap:square;"/>
   </g>
   <g id="patch_3">
    <path d="M 57.6 307.584 
L 57.6 41.472 
" style="fill:none;stroke:#000000;stroke-linecap:square;stroke-linejoin:miter;stroke-width:0.8;"/>
   </g>
   <g id="patch_4">
    <path d="M 414.72 307.584 
L 414.72 41.472 
" style="fill:none;stroke:#000000;stroke-linecap:square;stroke-linejoin:miter;stroke-width:0.8;"/>
   </g>
   <g id="patch_5">
    <path d="M 57.6 307.584 
L 414.72 307.584 
" style="fill:none;stroke:#000000;stroke-linecap:square;stroke-linejoin:miter;stroke-width:0.8;"/>
   </g>
   <g id="patch_6">
    <path d="M 57.6 41.472 
L 414.72 41.472 
" style="fill:none;stroke:#000000;stroke-linecap:square;stroke-linejoin:miter;stroke-width:0.8;"/>
   </g>
  </g>
 </g>
 <defs>
  <clipPath id="p246911dd9e">
   <rect height="266.112" width="357.12" x="57.6" y="41.472"/>
  </clipPath>
 </defs>
</svg>
