<?xml version="1.0" encoding="utf-8" standalone="no"?>
<!DOCTYPE svg PUBLIC "-//W3C//DTD SVG 1.1//EN"
  "http://www.w3.org/Graphics/SVG/1.1/DTD/svg11.dtd">
<!-- Created with matplotlib (https://matplotlib.org/) -->
<svg height="345.6pt" version="1.1" viewBox="0 0 460.8 345.6" width="460.8pt" xmlns="http://www.w3.org/2000/svg" xmlns:xlink="http://www.w3.org/1999/xlink">
 <metadata>
  <rdf:RDF xmlns:cc="http://creativecommons.org/ns#" xmlns:dc="http://purl.org/dc/elements/1.1/" xmlns:rdf="http://www.w3.org/1999/02/22-rdf-syntax-ns#">
   <cc:Work>
    <dc:type rdf:resource="http://purl.org/dc/dcmitype/StillImage"/>
    <dc:date>2021-01-23T13:51:05.338624</dc:date>
    <dc:format>image/svg+xml</dc:format>
    <dc:creator>
     <cc:Agent>
      <dc:title>Matplotlib v3.3.3, https://matplotlib.org/</dc:title>
     </cc:Agent>
    </dc:creator>
   </cc:Work>
  </rdf:RDF>
 </metadata>
 <defs>
  <style type="text/css">*{stroke-linecap:butt;stroke-linejoin:round;}</style>
 </defs>
 <g id="figure_1">
  <g id="patch_1">
   <path d="M 0 345.6 
L 460.8 345.6 
L 460.8 0 
L 0 0 
z
" style="fill:#ffffff;"/>
  </g>
  <g id="axes_1">
   <g id="patch_2">
    <path d="M 57.6 307.584 
L 414.72 307.584 
L 414.72 41.472 
L 57.6 41.472 
z
" style="fill:#7d9051;"/>
   </g>
   <g id="matplotlib.axis_1">
    <g id="xtick_1">
     <g id="line2d_1">
      <defs>
       <path d="M 0 0 
L 0 3.5 
" id="m0b7df320d5" style="stroke:#000000;stroke-width:0.8;"/>
      </defs>
      <g>
       <use style="stroke:#000000;stroke-width:0.8;" x="82.704442" xlink:href="#m0b7df320d5" y="307.584"/>
      </g>
     </g>
     <g id="text_1">
      <!-- −20 -->
      <g transform="translate(72.152099 322.182437)scale(0.1 -0.1)">
       <defs>
        <path d="M 10.59375 35.5 
L 73.1875 35.5 
L 73.1875 27.203125 
L 10.59375 27.203125 
z
" id="DejaVuSans-8722"/>
        <path d="M 19.1875 8.296875 
L 53.609375 8.296875 
L 53.609375 0 
L 7.328125 0 
L 7.328125 8.296875 
Q 12.9375 14.109375 22.625 23.890625 
Q 32.328125 33.6875 34.8125 36.53125 
Q 39.546875 41.84375 41.421875 45.53125 
Q 43.3125 49.21875 43.3125 52.78125 
Q 43.3125 58.59375 39.234375 62.25 
Q 35.15625 65.921875 28.609375 65.921875 
Q 23.96875 65.921875 18.8125 64.3125 
Q 13.671875 62.703125 7.8125 59.421875 
L 7.8125 69.390625 
Q 13.765625 71.78125 18.9375 73 
Q 24.125 74.21875 28.421875 74.21875 
Q 39.75 74.21875 46.484375 68.546875 
Q 53.21875 62.890625 53.21875 53.421875 
Q 53.21875 48.921875 51.53125 44.890625 
Q 49.859375 40.875 45.40625 35.40625 
Q 44.1875 33.984375 37.640625 27.21875 
Q 31.109375 20.453125 19.1875 8.296875 
z
" id="DejaVuSans-50"/>
        <path d="M 31.78125 66.40625 
Q 24.171875 66.40625 20.328125 58.90625 
Q 16.5 51.421875 16.5 36.375 
Q 16.5 21.390625 20.328125 13.890625 
Q 24.171875 6.390625 31.78125 6.390625 
Q 39.453125 6.390625 43.28125 13.890625 
Q 47.125 21.390625 47.125 36.375 
Q 47.125 51.421875 43.28125 58.90625 
Q 39.453125 66.40625 31.78125 66.40625 
z
M 31.78125 74.21875 
Q 44.046875 74.21875 50.515625 64.515625 
Q 56.984375 54.828125 56.984375 36.375 
Q 56.984375 17.96875 50.515625 8.265625 
Q 44.046875 -1.421875 31.78125 -1.421875 
Q 19.53125 -1.421875 13.0625 8.265625 
Q 6.59375 17.96875 6.59375 36.375 
Q 6.59375 54.828125 13.0625 64.515625 
Q 19.53125 74.21875 31.78125 74.21875 
z
" id="DejaVuSans-48"/>
       </defs>
       <use xlink:href="#DejaVuSans-8722"/>
       <use x="83.789062" xlink:href="#DejaVuSans-50"/>
       <use x="147.412109" xlink:href="#DejaVuSans-48"/>
      </g>
     </g>
    </g>
    <g id="xtick_2">
     <g id="line2d_2">
      <g>
       <use style="stroke:#000000;stroke-width:0.8;" x="129.823955" xlink:href="#m0b7df320d5" y="307.584"/>
      </g>
     </g>
     <g id="text_2">
      <!-- 0 -->
      <g transform="translate(126.642705 322.182437)scale(0.1 -0.1)">
       <use xlink:href="#DejaVuSans-48"/>
      </g>
     </g>
    </g>
    <g id="xtick_3">
     <g id="line2d_3">
      <g>
       <use style="stroke:#000000;stroke-width:0.8;" x="176.943467" xlink:href="#m0b7df320d5" y="307.584"/>
      </g>
     </g>
     <g id="text_3">
      <!-- 20 -->
      <g transform="translate(170.580967 322.182437)scale(0.1 -0.1)">
       <use xlink:href="#DejaVuSans-50"/>
       <use x="63.623047" xlink:href="#DejaVuSans-48"/>
      </g>
     </g>
    </g>
    <g id="xtick_4">
     <g id="line2d_4">
      <g>
       <use style="stroke:#000000;stroke-width:0.8;" x="224.06298" xlink:href="#m0b7df320d5" y="307.584"/>
      </g>
     </g>
     <g id="text_4">
      <!-- 40 -->
      <g transform="translate(217.70048 322.182437)scale(0.1 -0.1)">
       <defs>
        <path d="M 37.796875 64.3125 
L 12.890625 25.390625 
L 37.796875 25.390625 
z
M 35.203125 72.90625 
L 47.609375 72.90625 
L 47.609375 25.390625 
L 58.015625 25.390625 
L 58.015625 17.1875 
L 47.609375 17.1875 
L 47.609375 0 
L 37.796875 0 
L 37.796875 17.1875 
L 4.890625 17.1875 
L 4.890625 26.703125 
z
" id="DejaVuSans-52"/>
       </defs>
       <use xlink:href="#DejaVuSans-52"/>
       <use x="63.623047" xlink:href="#DejaVuSans-48"/>
      </g>
     </g>
    </g>
    <g id="xtick_5">
     <g id="line2d_5">
      <g>
       <use style="stroke:#000000;stroke-width:0.8;" x="271.182492" xlink:href="#m0b7df320d5" y="307.584"/>
      </g>
     </g>
     <g id="text_5">
      <!-- 60 -->
      <g transform="translate(264.819992 322.182437)scale(0.1 -0.1)">
       <defs>
        <path d="M 33.015625 40.375 
Q 26.375 40.375 22.484375 35.828125 
Q 18.609375 31.296875 18.609375 23.390625 
Q 18.609375 15.53125 22.484375 10.953125 
Q 26.375 6.390625 33.015625 6.390625 
Q 39.65625 6.390625 43.53125 10.953125 
Q 47.40625 15.53125 47.40625 23.390625 
Q 47.40625 31.296875 43.53125 35.828125 
Q 39.65625 40.375 33.015625 40.375 
z
M 52.59375 71.296875 
L 52.59375 62.3125 
Q 48.875 64.0625 45.09375 64.984375 
Q 41.3125 65.921875 37.59375 65.921875 
Q 27.828125 65.921875 22.671875 59.328125 
Q 17.53125 52.734375 16.796875 39.40625 
Q 19.671875 43.65625 24.015625 45.921875 
Q 28.375 48.1875 33.59375 48.1875 
Q 44.578125 48.1875 50.953125 41.515625 
Q 57.328125 34.859375 57.328125 23.390625 
Q 57.328125 12.15625 50.6875 5.359375 
Q 44.046875 -1.421875 33.015625 -1.421875 
Q 20.359375 -1.421875 13.671875 8.265625 
Q 6.984375 17.96875 6.984375 36.375 
Q 6.984375 53.65625 15.1875 63.9375 
Q 23.390625 74.21875 37.203125 74.21875 
Q 40.921875 74.21875 44.703125 73.484375 
Q 48.484375 72.75 52.59375 71.296875 
z
" id="DejaVuSans-54"/>
       </defs>
       <use xlink:href="#DejaVuSans-54"/>
       <use x="63.623047" xlink:href="#DejaVuSans-48"/>
      </g>
     </g>
    </g>
    <g id="xtick_6">
     <g id="line2d_6">
      <g>
       <use style="stroke:#000000;stroke-width:0.8;" x="318.302005" xlink:href="#m0b7df320d5" y="307.584"/>
      </g>
     </g>
     <g id="text_6">
      <!-- 80 -->
      <g transform="translate(311.939505 322.182437)scale(0.1 -0.1)">
       <defs>
        <path d="M 31.78125 34.625 
Q 24.75 34.625 20.71875 30.859375 
Q 16.703125 27.09375 16.703125 20.515625 
Q 16.703125 13.921875 20.71875 10.15625 
Q 24.75 6.390625 31.78125 6.390625 
Q 38.8125 6.390625 42.859375 10.171875 
Q 46.921875 13.96875 46.921875 20.515625 
Q 46.921875 27.09375 42.890625 30.859375 
Q 38.875 34.625 31.78125 34.625 
z
M 21.921875 38.8125 
Q 15.578125 40.375 12.03125 44.71875 
Q 8.5 49.078125 8.5 55.328125 
Q 8.5 64.0625 14.71875 69.140625 
Q 20.953125 74.21875 31.78125 74.21875 
Q 42.671875 74.21875 48.875 69.140625 
Q 55.078125 64.0625 55.078125 55.328125 
Q 55.078125 49.078125 51.53125 44.71875 
Q 48 40.375 41.703125 38.8125 
Q 48.828125 37.15625 52.796875 32.3125 
Q 56.78125 27.484375 56.78125 20.515625 
Q 56.78125 9.90625 50.3125 4.234375 
Q 43.84375 -1.421875 31.78125 -1.421875 
Q 19.734375 -1.421875 13.25 4.234375 
Q 6.78125 9.90625 6.78125 20.515625 
Q 6.78125 27.484375 10.78125 32.3125 
Q 14.796875 37.15625 21.921875 38.8125 
z
M 18.3125 54.390625 
Q 18.3125 48.734375 21.84375 45.5625 
Q 25.390625 42.390625 31.78125 42.390625 
Q 38.140625 42.390625 41.71875 45.5625 
Q 45.3125 48.734375 45.3125 54.390625 
Q 45.3125 60.0625 41.71875 63.234375 
Q 38.140625 66.40625 31.78125 66.40625 
Q 25.390625 66.40625 21.84375 63.234375 
Q 18.3125 60.0625 18.3125 54.390625 
z
" id="DejaVuSans-56"/>
       </defs>
       <use xlink:href="#DejaVuSans-56"/>
       <use x="63.623047" xlink:href="#DejaVuSans-48"/>
      </g>
     </g>
    </g>
    <g id="xtick_7">
     <g id="line2d_7">
      <g>
       <use style="stroke:#000000;stroke-width:0.8;" x="365.421517" xlink:href="#m0b7df320d5" y="307.584"/>
      </g>
     </g>
     <g id="text_7">
      <!-- 100 -->
      <g transform="translate(355.877767 322.182437)scale(0.1 -0.1)">
       <defs>
        <path d="M 12.40625 8.296875 
L 28.515625 8.296875 
L 28.515625 63.921875 
L 10.984375 60.40625 
L 10.984375 69.390625 
L 28.421875 72.90625 
L 38.28125 72.90625 
L 38.28125 8.296875 
L 54.390625 8.296875 
L 54.390625 0 
L 12.40625 0 
z
" id="DejaVuSans-49"/>
       </defs>
       <use xlink:href="#DejaVuSans-49"/>
       <use x="63.623047" xlink:href="#DejaVuSans-48"/>
       <use x="127.246094" xlink:href="#DejaVuSans-48"/>
      </g>
     </g>
    </g>
    <g id="xtick_8">
     <g id="line2d_8">
      <g>
       <use style="stroke:#000000;stroke-width:0.8;" x="412.54103" xlink:href="#m0b7df320d5" y="307.584"/>
      </g>
     </g>
     <g id="text_8">
      <!-- 120 -->
      <g transform="translate(402.99728 322.182437)scale(0.1 -0.1)">
       <use xlink:href="#DejaVuSans-49"/>
       <use x="63.623047" xlink:href="#DejaVuSans-50"/>
       <use x="127.246094" xlink:href="#DejaVuSans-48"/>
      </g>
     </g>
    </g>
   </g>
   <g id="matplotlib.axis_2">
    <g id="ytick_1">
     <g id="line2d_9">
      <defs>
       <path d="M 0 0 
L -3.5 0 
" id="m5aa7d6d461" style="stroke:#000000;stroke-width:0.8;"/>
      </defs>
      <g>
       <use style="stroke:#000000;stroke-width:0.8;" x="57.6" xlink:href="#m5aa7d6d461" y="271.155228"/>
      </g>
     </g>
     <g id="text_9">
      <!-- 20 -->
      <g transform="translate(37.875 274.954446)scale(0.1 -0.1)">
       <use xlink:href="#DejaVuSans-50"/>
       <use x="63.623047" xlink:href="#DejaVuSans-48"/>
      </g>
     </g>
    </g>
    <g id="ytick_2">
     <g id="line2d_10">
      <g>
       <use style="stroke:#000000;stroke-width:0.8;" x="57.6" xlink:href="#m5aa7d6d461" y="224.035715"/>
      </g>
     </g>
     <g id="text_10">
      <!-- 40 -->
      <g transform="translate(37.875 227.834934)scale(0.1 -0.1)">
       <use xlink:href="#DejaVuSans-52"/>
       <use x="63.623047" xlink:href="#DejaVuSans-48"/>
      </g>
     </g>
    </g>
    <g id="ytick_3">
     <g id="line2d_11">
      <g>
       <use style="stroke:#000000;stroke-width:0.8;" x="57.6" xlink:href="#m5aa7d6d461" y="176.916203"/>
      </g>
     </g>
     <g id="text_11">
      <!-- 60 -->
      <g transform="translate(37.875 180.715422)scale(0.1 -0.1)">
       <use xlink:href="#DejaVuSans-54"/>
       <use x="63.623047" xlink:href="#DejaVuSans-48"/>
      </g>
     </g>
    </g>
    <g id="ytick_4">
     <g id="line2d_12">
      <g>
       <use style="stroke:#000000;stroke-width:0.8;" x="57.6" xlink:href="#m5aa7d6d461" y="129.79669"/>
      </g>
     </g>
     <g id="text_12">
      <!-- 80 -->
      <g transform="translate(37.875 133.595909)scale(0.1 -0.1)">
       <use xlink:href="#DejaVuSans-56"/>
       <use x="63.623047" xlink:href="#DejaVuSans-48"/>
      </g>
     </g>
    </g>
    <g id="ytick_5">
     <g id="line2d_13">
      <g>
       <use style="stroke:#000000;stroke-width:0.8;" x="57.6" xlink:href="#m5aa7d6d461" y="82.677178"/>
      </g>
     </g>
     <g id="text_13">
      <!-- 100 -->
      <g transform="translate(31.5125 86.476397)scale(0.1 -0.1)">
       <use xlink:href="#DejaVuSans-49"/>
       <use x="63.623047" xlink:href="#DejaVuSans-48"/>
       <use x="127.246094" xlink:href="#DejaVuSans-48"/>
      </g>
     </g>
    </g>
   </g>
   <g id="line2d_14">
    <path clip-path="url(#p4bb8b509d9)" d="M 315.189761 294.714984 
L 315.651532 287.776636 
L 315.766975 283.059973 
L 315.701008 278.303258 
L 315.43007 273.534763 
L 314.928248 268.78276 
L 314.171979 264.077877 
L 313.137706 259.448385 
L 311.797156 254.9202 
L 310.131481 250.523949 
L 308.11241 246.285549 
L 305.761146 242.212067 
L 303.138946 238.287012 
L 300.302351 234.489179 
L 295.78359 228.992688 
L 291.102266 223.687031 
L 284.684589 216.805226 
L 271.663111 203.08638 
L 268.694582 199.418126 
L 266.025262 195.537834 
L 264.828426 193.497559 
L 263.742321 191.381893 
L 262.766947 189.202616 
L 261.911728 186.964439 
L 261.181376 184.676787 
L 260.57589 182.353795 
L 260.104695 180.004887 
L 259.770146 177.634775 
L 259.576956 175.257596 
L 259.529837 172.882773 
L 259.6335 170.517373 
L 259.892657 168.173177 
L 260.293173 165.850185 
L 260.827979 163.550753 
L 261.480585 161.277237 
L 263.101496 156.807951 
L 265.059312 152.454108 
L 267.262149 148.227488 
L 270.831452 142.104307 
L 278.092569 130.008728 
L 280.311898 125.815092 
L 282.307409 121.482452 
L 283.996644 117.027302 
L 284.696368 114.758498 
L 285.287718 112.463778 
L 285.756557 110.147854 
L 286.093462 107.810726 
L 286.286652 105.452394 
L 286.32906 103.079927 
L 286.220685 100.702747 
L 285.961527 98.325568 
L 285.558655 95.96488 
L 285.012069 93.630109 
L 284.32648 91.32832 
L 283.504245 89.071296 
L 282.550075 86.870815 
L 281.46397 84.738657 
L 280.248286 82.679534 
L 278.910092 80.707582 
L 277.454099 78.825158 
L 275.889732 77.034616 
L 274.219345 75.338314 
L 272.452363 73.738606 
L 270.59821 72.235494 
L 268.661598 70.836044 
L 266.651951 69.537902 
L 264.571625 68.345778 
L 262.434755 67.264385 
L 260.241341 66.291367 
L 258.003165 65.433792 
L 255.724936 64.698728 
L 253.413724 64.086174 
L 251.07424 63.605555 
L 248.715909 63.256871 
L 246.343441 63.049545 
L 243.963906 62.985934 
L 241.582015 63.070749 
L 239.207191 63.311058 
L 236.846504 63.706862 
L 234.50702 64.255805 
L 232.205232 64.953173 
L 229.945851 65.794257 
L 227.74537 66.771986 
L 225.613212 67.884007 
L 223.561157 69.120894 
L 221.598629 70.482648 
L 219.737409 71.962201 
L 217.991631 73.552484 
L 216.363651 75.248787 
L 214.848759 77.039328 
L 213.43753 78.917041 
L 210.869516 82.877436 
L 208.567728 87.042801 
L 205.417789 93.47697 
L 197.289673 110.503606 
L 194.052562 116.756365 
L 190.61755 122.926665 
L 187.008195 129.01215 
L 181.968763 136.996552 
L 178.029572 142.877067 
L 173.923107 148.632715 
L 169.616383 154.228158 
L 165.076418 159.63041 
L 161.902919 163.110186 
L 158.599841 166.479231 
L 155.160117 169.728121 
L 153.383711 171.304269 
L 153.383711 171.304269 
" style="fill:none;stroke:#fea952;stroke-linecap:square;"/>
   </g>
   <g id="line2d_15">
    <path clip-path="url(#p4bb8b509d9)" d="M 305.797616 293.941968 
L 306.232777 287.465194 
L 306.343147 283.097369 
L 306.286825 278.731175 
L 306.046719 274.408065 
L 305.603013 270.142884 
L 304.943141 265.985357 
L 304.056129 261.965306 
L 302.922059 258.089204 
L 301.542585 254.402195 
L 299.868647 250.851762 
L 297.851141 247.334737 
L 295.525197 243.840459 
L 292.932583 240.362548 
L 288.657709 235.159677 
L 284.143667 230.042174 
L 277.881034 223.326084 
L 266.170289 211.10089 
L 262.72824 207.084441 
L 259.431971 202.671832 
L 257.896693 200.306094 
L 256.444721 197.801444 
L 255.14065 195.231722 
L 253.963807 192.566342 
L 252.934246 189.830576 
L 252.062154 187.053703 
L 251.336064 184.20732 
L 250.773294 181.322043 
L 250.377211 178.398126 
L 250.154908 175.444541 
L 250.114971 172.470169 
L 250.266664 169.481843 
L 250.605777 166.571991 
L 251.114264 163.715337 
L 251.769866 160.950652 
L 252.557265 158.246675 
L 254.444385 153.084462 
L 256.649006 148.202438 
L 259.051258 143.602425 
L 262.787408 137.194797 
L 269.812925 125.507902 
L 271.816905 121.735259 
L 273.562039 117.971265 
L 274.991297 114.249953 
L 276.051184 110.59392 
L 276.701021 107.041315 
L 276.864255 105.28397 
L 276.914935 103.509114 
L 276.85229 101.724079 
L 276.382844 98.113002 
L 275.471849 94.554068 
L 274.152864 91.148289 
L 273.348834 89.529743 
L 272.45039 87.971296 
L 271.455768 86.473255 
L 269.17493 83.646831 
L 266.517778 81.059169 
L 263.548209 78.752053 
L 260.316386 76.754279 
L 256.869533 75.091416 
L 253.310622 73.80812 
L 249.69588 72.928112 
L 246.091605 72.470082 
L 242.530779 72.446771 
L 240.765495 72.60523 
L 238.999283 72.881582 
L 237.239509 73.274864 
L 235.492981 73.784971 
L 233.772405 74.406308 
L 232.103284 75.127734 
L 228.93355 76.86346 
L 227.462891 77.859665 
L 226.083628 78.928939 
L 224.790858 80.077854 
L 223.558088 81.335659 
L 222.382206 82.701229 
L 220.129086 85.821223 
L 218.001831 89.385233 
L 215.961809 93.297673 
L 211.921993 101.782322 
L 205.701567 114.752133 
L 202.33117 121.259097 
L 198.768292 127.656923 
L 195.033817 133.951718 
L 189.844494 142.171763 
L 185.757444 148.270576 
L 181.466752 154.28102 
L 176.920581 160.182872 
L 173.736274 164.028881 
L 170.413777 167.792506 
L 166.936278 171.467845 
L 163.302138 175.031108 
L 159.638225 178.353452 
L 159.638225 178.353452 
" style="fill:none;stroke:#ffffff;stroke-linecap:square;"/>
   </g>
   <g id="line2d_16">
    <path clip-path="url(#p4bb8b509d9)" d="M 324.581906 295.488 
L 324.945664 290.586278 
L 325.151985 285.575535 
L 325.178799 280.461499 
L 324.994707 275.27796 
L 324.567391 270.049274 
L 323.865996 264.793604 
L 322.854448 259.550765 
L 321.494338 254.337279 
L 319.752158 249.195127 
L 318.720378 246.645703 
L 317.588846 244.158885 
L 315.052075 239.377037 
L 312.240249 234.88696 
L 309.227803 230.647053 
L 306.096853 226.641171 
L 301.302821 220.969934 
L 296.423474 215.539437 
L 289.82993 208.554391 
L 280.289381 198.615257 
L 277.568198 195.464829 
L 275.200702 192.34774 
L 273.212131 189.193675 
L 271.570088 185.838889 
L 270.300597 182.29987 
L 269.436096 178.687731 
L 268.999004 175.070651 
L 269.000336 171.552903 
L 269.179537 169.774363 
L 269.472081 167.985034 
L 270.403904 164.307798 
L 271.758607 160.531439 
L 273.469617 156.705778 
L 275.47304 152.852551 
L 278.875496 147.013817 
L 285.117276 136.718775 
L 287.601392 132.243469 
L 289.96581 127.470537 
L 292.070496 122.439793 
L 293.00199 119.804652 
L 293.822123 117.110207 
L 294.524253 114.333636 
L 295.084045 111.492441 
L 295.485903 108.580137 
L 295.709049 105.620818 
L 295.743184 102.65074 
L 295.589079 99.681416 
L 295.251124 96.740218 
L 294.734467 93.816759 
L 294.043856 90.939986 
L 293.181111 88.102573 
L 292.150299 85.322204 
L 290.947286 82.59334 
L 289.579105 79.94757 
L 288.046183 77.387771 
L 286.364417 74.941909 
L 284.550934 72.624765 
L 282.604533 70.422402 
L 280.544161 68.352139 
L 278.386949 66.418044 
L 276.117852 64.597202 
L 273.774987 62.920036 
L 271.337485 61.361368 
L 268.826864 59.937278 
L 266.256154 58.650046 
L 263.613149 57.491319 
L 260.896871 56.465158 
L 258.13925 55.589336 
L 255.310147 54.855057 
L 252.4526 54.282999 
L 249.536321 53.868747 
L 246.595277 53.629008 
L 243.628549 53.568 
L 240.63325 53.694727 
L 237.648887 54.016887 
L 234.693724 54.532143 
L 231.774531 55.236745 
L 228.917482 56.121376 
L 226.119297 57.182205 
L 223.387455 58.416239 
L 220.748311 59.812905 
L 218.188764 61.378328 
L 215.734368 63.105631 
L 213.391189 64.995463 
L 211.192403 67.027115 
L 209.169214 69.161914 
L 207.315312 71.377428 
L 205.643078 73.620206 
L 204.097856 75.909643 
L 201.381225 80.497308 
L 199.015573 85.047532 
L 194.866018 93.761506 
L 188.877779 106.255079 
L 185.773955 112.253633 
L 182.466807 118.196408 
L 178.982573 124.072583 
L 174.093033 131.821341 
L 170.3017 137.483558 
L 166.379461 142.984411 
L 162.312185 148.273443 
L 158.059507 153.339711 
L 155.113298 156.574822 
L 152.064112 159.689961 
L 148.905602 162.678938 
L 147.129197 164.255085 
L 147.129197 164.255085 
" style="fill:none;stroke:#ffffff;stroke-linecap:square;"/>
   </g>
   <g id="patch_3">
    <path d="M 57.6 307.584 
L 57.6 41.472 
" style="fill:none;stroke:#000000;stroke-linecap:square;stroke-linejoin:miter;stroke-width:0.8;"/>
   </g>
   <g id="patch_4">
    <path d="M 414.72 307.584 
L 414.72 41.472 
" style="fill:none;stroke:#000000;stroke-linecap:square;stroke-linejoin:miter;stroke-width:0.8;"/>
   </g>
   <g id="patch_5">
    <path d="M 57.6 307.584 
L 414.72 307.584 
" style="fill:none;stroke:#000000;stroke-linecap:square;stroke-linejoin:miter;stroke-width:0.8;"/>
   </g>
   <g id="patch_6">
    <path d="M 57.6 41.472 
L 414.72 41.472 
" style="fill:none;stroke:#000000;stroke-linecap:square;stroke-linejoin:miter;stroke-width:0.8;"/>
   </g>
  </g>
 </g>
 <defs>
  <clipPath id="p4bb8b509d9">
   <rect height="266.112" width="357.12" x="57.6" y="41.472"/>
  </clipPath>
 </defs>
</svg>
