<?xml version="1.0" encoding="utf-8" standalone="no"?>
<!DOCTYPE svg PUBLIC "-//W3C//DTD SVG 1.1//EN"
  "http://www.w3.org/Graphics/SVG/1.1/DTD/svg11.dtd">
<!-- Created with matplotlib (https://matplotlib.org/) -->
<svg height="345.6pt" version="1.1" viewBox="0 0 460.8 345.6" width="460.8pt" xmlns="http://www.w3.org/2000/svg" xmlns:xlink="http://www.w3.org/1999/xlink">
 <metadata>
  <rdf:RDF xmlns:cc="http://creativecommons.org/ns#" xmlns:dc="http://purl.org/dc/elements/1.1/" xmlns:rdf="http://www.w3.org/1999/02/22-rdf-syntax-ns#">
   <cc:Work>
    <dc:type rdf:resource="http://purl.org/dc/dcmitype/StillImage"/>
    <dc:date>2021-01-25T11:43:44.597649</dc:date>
    <dc:format>image/svg+xml</dc:format>
    <dc:creator>
     <cc:Agent>
      <dc:title>Matplotlib v3.3.3, https://matplotlib.org/</dc:title>
     </cc:Agent>
    </dc:creator>
   </cc:Work>
  </rdf:RDF>
 </metadata>
 <defs>
  <style type="text/css">*{stroke-linecap:butt;stroke-linejoin:round;}</style>
 </defs>
 <g id="figure_1">
  <g id="patch_1">
   <path d="M 0 345.6 
L 460.8 345.6 
L 460.8 0 
L 0 0 
z
" style="fill:#ffffff;"/>
  </g>
  <g id="axes_1">
   <g id="patch_2">
    <path d="M 57.6 307.584 
L 414.72 307.584 
L 414.72 41.472 
L 57.6 41.472 
z
" style="fill:#7d9051;"/>
   </g>
   <g id="matplotlib.axis_1">
    <g id="xtick_1">
     <g id="line2d_1">
      <defs>
       <path d="M 0 0 
L 0 3.5 
" id="m310ad2e5f0" style="stroke:#000000;stroke-width:0.8;"/>
      </defs>
      <g>
       <use style="stroke:#000000;stroke-width:0.8;" x="89.877642" xlink:href="#m310ad2e5f0" y="307.584"/>
      </g>
     </g>
     <g id="text_1">
      <!-- 0 -->
      <g transform="translate(86.696392 322.182437)scale(0.1 -0.1)">
       <defs>
        <path d="M 31.78125 66.40625 
Q 24.171875 66.40625 20.328125 58.90625 
Q 16.5 51.421875 16.5 36.375 
Q 16.5 21.390625 20.328125 13.890625 
Q 24.171875 6.390625 31.78125 6.390625 
Q 39.453125 6.390625 43.28125 13.890625 
Q 47.125 21.390625 47.125 36.375 
Q 47.125 51.421875 43.28125 58.90625 
Q 39.453125 66.40625 31.78125 66.40625 
z
M 31.78125 74.21875 
Q 44.046875 74.21875 50.515625 64.515625 
Q 56.984375 54.828125 56.984375 36.375 
Q 56.984375 17.96875 50.515625 8.265625 
Q 44.046875 -1.421875 31.78125 -1.421875 
Q 19.53125 -1.421875 13.0625 8.265625 
Q 6.59375 17.96875 6.59375 36.375 
Q 6.59375 54.828125 13.0625 64.515625 
Q 19.53125 74.21875 31.78125 74.21875 
z
" id="DejaVuSans-48"/>
       </defs>
       <use xlink:href="#DejaVuSans-48"/>
      </g>
     </g>
    </g>
    <g id="xtick_2">
     <g id="line2d_2">
      <g>
       <use style="stroke:#000000;stroke-width:0.8;" x="159.272462" xlink:href="#m310ad2e5f0" y="307.584"/>
      </g>
     </g>
     <g id="text_2">
      <!-- 20 -->
      <g transform="translate(152.909962 322.182437)scale(0.1 -0.1)">
       <defs>
        <path d="M 19.1875 8.296875 
L 53.609375 8.296875 
L 53.609375 0 
L 7.328125 0 
L 7.328125 8.296875 
Q 12.9375 14.109375 22.625 23.890625 
Q 32.328125 33.6875 34.8125 36.53125 
Q 39.546875 41.84375 41.421875 45.53125 
Q 43.3125 49.21875 43.3125 52.78125 
Q 43.3125 58.59375 39.234375 62.25 
Q 35.15625 65.921875 28.609375 65.921875 
Q 23.96875 65.921875 18.8125 64.3125 
Q 13.671875 62.703125 7.8125 59.421875 
L 7.8125 69.390625 
Q 13.765625 71.78125 18.9375 73 
Q 24.125 74.21875 28.421875 74.21875 
Q 39.75 74.21875 46.484375 68.546875 
Q 53.21875 62.890625 53.21875 53.421875 
Q 53.21875 48.921875 51.53125 44.890625 
Q 49.859375 40.875 45.40625 35.40625 
Q 44.1875 33.984375 37.640625 27.21875 
Q 31.109375 20.453125 19.1875 8.296875 
z
" id="DejaVuSans-50"/>
       </defs>
       <use xlink:href="#DejaVuSans-50"/>
       <use x="63.623047" xlink:href="#DejaVuSans-48"/>
      </g>
     </g>
    </g>
    <g id="xtick_3">
     <g id="line2d_3">
      <g>
       <use style="stroke:#000000;stroke-width:0.8;" x="228.667282" xlink:href="#m310ad2e5f0" y="307.584"/>
      </g>
     </g>
     <g id="text_3">
      <!-- 40 -->
      <g transform="translate(222.304782 322.182437)scale(0.1 -0.1)">
       <defs>
        <path d="M 37.796875 64.3125 
L 12.890625 25.390625 
L 37.796875 25.390625 
z
M 35.203125 72.90625 
L 47.609375 72.90625 
L 47.609375 25.390625 
L 58.015625 25.390625 
L 58.015625 17.1875 
L 47.609375 17.1875 
L 47.609375 0 
L 37.796875 0 
L 37.796875 17.1875 
L 4.890625 17.1875 
L 4.890625 26.703125 
z
" id="DejaVuSans-52"/>
       </defs>
       <use xlink:href="#DejaVuSans-52"/>
       <use x="63.623047" xlink:href="#DejaVuSans-48"/>
      </g>
     </g>
    </g>
    <g id="xtick_4">
     <g id="line2d_4">
      <g>
       <use style="stroke:#000000;stroke-width:0.8;" x="298.062102" xlink:href="#m310ad2e5f0" y="307.584"/>
      </g>
     </g>
     <g id="text_4">
      <!-- 60 -->
      <g transform="translate(291.699602 322.182437)scale(0.1 -0.1)">
       <defs>
        <path d="M 33.015625 40.375 
Q 26.375 40.375 22.484375 35.828125 
Q 18.609375 31.296875 18.609375 23.390625 
Q 18.609375 15.53125 22.484375 10.953125 
Q 26.375 6.390625 33.015625 6.390625 
Q 39.65625 6.390625 43.53125 10.953125 
Q 47.40625 15.53125 47.40625 23.390625 
Q 47.40625 31.296875 43.53125 35.828125 
Q 39.65625 40.375 33.015625 40.375 
z
M 52.59375 71.296875 
L 52.59375 62.3125 
Q 48.875 64.0625 45.09375 64.984375 
Q 41.3125 65.921875 37.59375 65.921875 
Q 27.828125 65.921875 22.671875 59.328125 
Q 17.53125 52.734375 16.796875 39.40625 
Q 19.671875 43.65625 24.015625 45.921875 
Q 28.375 48.1875 33.59375 48.1875 
Q 44.578125 48.1875 50.953125 41.515625 
Q 57.328125 34.859375 57.328125 23.390625 
Q 57.328125 12.15625 50.6875 5.359375 
Q 44.046875 -1.421875 33.015625 -1.421875 
Q 20.359375 -1.421875 13.671875 8.265625 
Q 6.984375 17.96875 6.984375 36.375 
Q 6.984375 53.65625 15.1875 63.9375 
Q 23.390625 74.21875 37.203125 74.21875 
Q 40.921875 74.21875 44.703125 73.484375 
Q 48.484375 72.75 52.59375 71.296875 
z
" id="DejaVuSans-54"/>
       </defs>
       <use xlink:href="#DejaVuSans-54"/>
       <use x="63.623047" xlink:href="#DejaVuSans-48"/>
      </g>
     </g>
    </g>
    <g id="xtick_5">
     <g id="line2d_5">
      <g>
       <use style="stroke:#000000;stroke-width:0.8;" x="367.456922" xlink:href="#m310ad2e5f0" y="307.584"/>
      </g>
     </g>
     <g id="text_5">
      <!-- 80 -->
      <g transform="translate(361.094422 322.182437)scale(0.1 -0.1)">
       <defs>
        <path d="M 31.78125 34.625 
Q 24.75 34.625 20.71875 30.859375 
Q 16.703125 27.09375 16.703125 20.515625 
Q 16.703125 13.921875 20.71875 10.15625 
Q 24.75 6.390625 31.78125 6.390625 
Q 38.8125 6.390625 42.859375 10.171875 
Q 46.921875 13.96875 46.921875 20.515625 
Q 46.921875 27.09375 42.890625 30.859375 
Q 38.875 34.625 31.78125 34.625 
z
M 21.921875 38.8125 
Q 15.578125 40.375 12.03125 44.71875 
Q 8.5 49.078125 8.5 55.328125 
Q 8.5 64.0625 14.71875 69.140625 
Q 20.953125 74.21875 31.78125 74.21875 
Q 42.671875 74.21875 48.875 69.140625 
Q 55.078125 64.0625 55.078125 55.328125 
Q 55.078125 49.078125 51.53125 44.71875 
Q 48 40.375 41.703125 38.8125 
Q 48.828125 37.15625 52.796875 32.3125 
Q 56.78125 27.484375 56.78125 20.515625 
Q 56.78125 9.90625 50.3125 4.234375 
Q 43.84375 -1.421875 31.78125 -1.421875 
Q 19.734375 -1.421875 13.25 4.234375 
Q 6.78125 9.90625 6.78125 20.515625 
Q 6.78125 27.484375 10.78125 32.3125 
Q 14.796875 37.15625 21.921875 38.8125 
z
M 18.3125 54.390625 
Q 18.3125 48.734375 21.84375 45.5625 
Q 25.390625 42.390625 31.78125 42.390625 
Q 38.140625 42.390625 41.71875 45.5625 
Q 45.3125 48.734375 45.3125 54.390625 
Q 45.3125 60.0625 41.71875 63.234375 
Q 38.140625 66.40625 31.78125 66.40625 
Q 25.390625 66.40625 21.84375 63.234375 
Q 18.3125 60.0625 18.3125 54.390625 
z
" id="DejaVuSans-56"/>
       </defs>
       <use xlink:href="#DejaVuSans-56"/>
       <use x="63.623047" xlink:href="#DejaVuSans-48"/>
      </g>
     </g>
    </g>
   </g>
   <g id="matplotlib.axis_2">
    <g id="ytick_1">
     <g id="line2d_6">
      <defs>
       <path d="M 0 0 
L -3.5 0 
" id="ma27df21224" style="stroke:#000000;stroke-width:0.8;"/>
      </defs>
      <g>
       <use style="stroke:#000000;stroke-width:0.8;" x="57.6" xlink:href="#ma27df21224" y="279.756436"/>
      </g>
     </g>
     <g id="text_6">
      <!-- 10 -->
      <g transform="translate(37.875 283.555655)scale(0.1 -0.1)">
       <defs>
        <path d="M 12.40625 8.296875 
L 28.515625 8.296875 
L 28.515625 63.921875 
L 10.984375 60.40625 
L 10.984375 69.390625 
L 28.421875 72.90625 
L 38.28125 72.90625 
L 38.28125 8.296875 
L 54.390625 8.296875 
L 54.390625 0 
L 12.40625 0 
z
" id="DejaVuSans-49"/>
       </defs>
       <use xlink:href="#DejaVuSans-49"/>
       <use x="63.623047" xlink:href="#DejaVuSans-48"/>
      </g>
     </g>
    </g>
    <g id="ytick_2">
     <g id="line2d_7">
      <g>
       <use style="stroke:#000000;stroke-width:0.8;" x="57.6" xlink:href="#ma27df21224" y="245.059026"/>
      </g>
     </g>
     <g id="text_7">
      <!-- 20 -->
      <g transform="translate(37.875 248.858245)scale(0.1 -0.1)">
       <use xlink:href="#DejaVuSans-50"/>
       <use x="63.623047" xlink:href="#DejaVuSans-48"/>
      </g>
     </g>
    </g>
    <g id="ytick_3">
     <g id="line2d_8">
      <g>
       <use style="stroke:#000000;stroke-width:0.8;" x="57.6" xlink:href="#ma27df21224" y="210.361616"/>
      </g>
     </g>
     <g id="text_8">
      <!-- 30 -->
      <g transform="translate(37.875 214.160835)scale(0.1 -0.1)">
       <defs>
        <path d="M 40.578125 39.3125 
Q 47.65625 37.796875 51.625 33 
Q 55.609375 28.21875 55.609375 21.1875 
Q 55.609375 10.40625 48.1875 4.484375 
Q 40.765625 -1.421875 27.09375 -1.421875 
Q 22.515625 -1.421875 17.65625 -0.515625 
Q 12.796875 0.390625 7.625 2.203125 
L 7.625 11.71875 
Q 11.71875 9.328125 16.59375 8.109375 
Q 21.484375 6.890625 26.8125 6.890625 
Q 36.078125 6.890625 40.9375 10.546875 
Q 45.796875 14.203125 45.796875 21.1875 
Q 45.796875 27.640625 41.28125 31.265625 
Q 36.765625 34.90625 28.71875 34.90625 
L 20.21875 34.90625 
L 20.21875 43.015625 
L 29.109375 43.015625 
Q 36.375 43.015625 40.234375 45.921875 
Q 44.09375 48.828125 44.09375 54.296875 
Q 44.09375 59.90625 40.109375 62.90625 
Q 36.140625 65.921875 28.71875 65.921875 
Q 24.65625 65.921875 20.015625 65.03125 
Q 15.375 64.15625 9.8125 62.3125 
L 9.8125 71.09375 
Q 15.4375 72.65625 20.34375 73.4375 
Q 25.25 74.21875 29.59375 74.21875 
Q 40.828125 74.21875 47.359375 69.109375 
Q 53.90625 64.015625 53.90625 55.328125 
Q 53.90625 49.265625 50.4375 45.09375 
Q 46.96875 40.921875 40.578125 39.3125 
z
" id="DejaVuSans-51"/>
       </defs>
       <use xlink:href="#DejaVuSans-51"/>
       <use x="63.623047" xlink:href="#DejaVuSans-48"/>
      </g>
     </g>
    </g>
    <g id="ytick_4">
     <g id="line2d_9">
      <g>
       <use style="stroke:#000000;stroke-width:0.8;" x="57.6" xlink:href="#ma27df21224" y="175.664206"/>
      </g>
     </g>
     <g id="text_9">
      <!-- 40 -->
      <g transform="translate(37.875 179.463425)scale(0.1 -0.1)">
       <use xlink:href="#DejaVuSans-52"/>
       <use x="63.623047" xlink:href="#DejaVuSans-48"/>
      </g>
     </g>
    </g>
    <g id="ytick_5">
     <g id="line2d_10">
      <g>
       <use style="stroke:#000000;stroke-width:0.8;" x="57.6" xlink:href="#ma27df21224" y="140.966796"/>
      </g>
     </g>
     <g id="text_10">
      <!-- 50 -->
      <g transform="translate(37.875 144.766015)scale(0.1 -0.1)">
       <defs>
        <path d="M 10.796875 72.90625 
L 49.515625 72.90625 
L 49.515625 64.59375 
L 19.828125 64.59375 
L 19.828125 46.734375 
Q 21.96875 47.46875 24.109375 47.828125 
Q 26.265625 48.1875 28.421875 48.1875 
Q 40.625 48.1875 47.75 41.5 
Q 54.890625 34.8125 54.890625 23.390625 
Q 54.890625 11.625 47.5625 5.09375 
Q 40.234375 -1.421875 26.90625 -1.421875 
Q 22.3125 -1.421875 17.546875 -0.640625 
Q 12.796875 0.140625 7.71875 1.703125 
L 7.71875 11.625 
Q 12.109375 9.234375 16.796875 8.0625 
Q 21.484375 6.890625 26.703125 6.890625 
Q 35.15625 6.890625 40.078125 11.328125 
Q 45.015625 15.765625 45.015625 23.390625 
Q 45.015625 31 40.078125 35.4375 
Q 35.15625 39.890625 26.703125 39.890625 
Q 22.75 39.890625 18.8125 39.015625 
Q 14.890625 38.140625 10.796875 36.28125 
z
" id="DejaVuSans-53"/>
       </defs>
       <use xlink:href="#DejaVuSans-53"/>
       <use x="63.623047" xlink:href="#DejaVuSans-48"/>
      </g>
     </g>
    </g>
    <g id="ytick_6">
     <g id="line2d_11">
      <g>
       <use style="stroke:#000000;stroke-width:0.8;" x="57.6" xlink:href="#ma27df21224" y="106.269386"/>
      </g>
     </g>
     <g id="text_11">
      <!-- 60 -->
      <g transform="translate(37.875 110.068605)scale(0.1 -0.1)">
       <use xlink:href="#DejaVuSans-54"/>
       <use x="63.623047" xlink:href="#DejaVuSans-48"/>
      </g>
     </g>
    </g>
    <g id="ytick_7">
     <g id="line2d_12">
      <g>
       <use style="stroke:#000000;stroke-width:0.8;" x="57.6" xlink:href="#ma27df21224" y="71.571976"/>
      </g>
     </g>
     <g id="text_12">
      <!-- 70 -->
      <g transform="translate(37.875 75.371195)scale(0.1 -0.1)">
       <defs>
        <path d="M 8.203125 72.90625 
L 55.078125 72.90625 
L 55.078125 68.703125 
L 28.609375 0 
L 18.3125 0 
L 43.21875 64.59375 
L 8.203125 64.59375 
z
" id="DejaVuSans-55"/>
       </defs>
       <use xlink:href="#DejaVuSans-55"/>
       <use x="63.623047" xlink:href="#DejaVuSans-48"/>
      </g>
     </g>
    </g>
   </g>
   <g id="line2d_13">
    <path clip-path="url(#pe770d01012)" d="M 124.575052 169.772586 
L 124.120516 156.171201 
L 124.047652 149.179673 
L 124.186441 142.12916 
L 124.60281 135.075176 
L 125.376562 128.069769 
L 125.921312 124.600028 
L 126.584032 121.161515 
L 127.375133 117.761168 
L 128.301554 114.405929 
L 129.370234 111.099266 
L 130.598523 107.851588 
L 131.989889 104.666366 
L 133.554742 101.554008 
L 135.303491 98.517985 
L 137.222258 95.572175 
L 139.311042 92.726987 
L 141.555965 89.996301 
L 143.946616 87.393995 
L 146.479527 84.933949 
L 149.140819 82.626571 
L 151.923551 80.482271 
L 154.817315 78.518398 
L 157.815171 76.74883 
L 160.91018 75.173567 
L 164.088463 73.792611 
L 167.34308 72.58861 
L 170.660152 71.547688 
L 174.032741 70.659434 
L 177.453905 69.906501 
L 180.909767 69.278478 
L 187.890886 68.341647 
L 194.896293 67.744852 
L 201.887821 67.456863 
L 208.848122 67.526258 
L 215.770255 68.001613 
L 219.212238 68.407573 
L 222.640342 68.934973 
L 226.054567 69.587284 
L 229.451444 70.371446 
L 232.824032 71.287458 
L 236.165393 72.335319 
L 239.461647 73.511562 
L 242.712794 74.812714 
L 245.908425 76.245717 
L 249.038132 77.803631 
L 252.098443 79.482986 
L 255.075481 81.287251 
L 257.965775 83.216427 
L 260.762387 85.263574 
L 263.472254 87.418283 
L 268.673396 91.998342 
L 273.655944 96.849039 
L 280.890354 104.406135 
L 302.24661 127.230092 
L 306.819729 132.438173 
L 311.267937 137.757286 
L 315.580825 143.19437 
L 319.747984 148.749425 
L 323.765944 154.422452 
L 327.624296 160.20304 
L 331.305691 166.1016 
L 334.768492 172.12854 
L 337.960654 178.301209 
L 340.82666 184.633487 
L 342.124343 187.867285 
L 343.317934 191.14966 
L 344.407433 194.477142 
L 345.37896 197.84973 
L 346.225577 201.257016 
L 346.936874 204.69206 
L 347.509381 208.147922 
L 347.92922 211.624602 
L 348.185981 215.104752 
L 348.276194 218.591842 
L 348.185981 222.071992 
L 347.911871 225.541733 
L 347.439986 228.994125 
L 346.777266 232.41876 
L 345.927179 235.805227 
L 344.893197 239.150057 
L 343.682257 242.439372 
L 342.294361 245.669701 
L 340.732977 248.823695 
L 339.005046 251.901356 
L 337.117507 254.885333 
L 335.06689 257.775627 
L 332.867074 260.55489 
L 330.51806 263.216181 
L 328.026786 265.742152 
L 325.407131 268.125864 
L 322.666036 270.349968 
L 319.806969 272.407525 
L 316.840341 274.277715 
L 313.77309 275.95707 
L 310.615625 277.42477 
L 307.371417 278.673877 
L 304.054345 279.693981 
L 300.667878 280.488552 
L 297.232834 281.067998 
L 293.752684 281.439261 
L 290.248246 281.609278 
L 286.722989 281.58846 
L 283.194262 281.387215 
L 279.669005 281.005543 
L 276.164567 280.460794 
L 272.691356 279.756436 
L 269.259782 278.89941 
L 265.876785 277.893185 
L 262.552773 276.734292 
L 259.294686 275.42273 
L 256.112934 273.958499 
L 253.014455 272.33813 
L 250.009659 270.565092 
L 247.102016 268.639386 
L 244.301935 266.554072 
L 241.619825 264.312619 
L 239.062626 261.915028 
L 236.637277 259.371708 
L 234.357658 256.689598 
L 232.223767 253.882578 
L 230.252954 250.961056 
L 228.448689 247.931972 
L 226.81791 244.812675 
L 225.377968 241.606634 
L 224.128861 238.324259 
L 223.080999 234.982898 
L 222.244792 231.586022 
L 221.613299 228.147509 
L 221.186521 224.677768 
L 220.957518 221.183738 
L 220.919351 217.67583 
L 221.075489 214.164452 
L 221.415524 210.660014 
L 221.935985 207.172924 
L 222.636872 203.713593 
L 223.507777 200.288958 
L 224.5487 196.90943 
L 225.7527 193.585419 
L 227.119778 190.330802 
L 228.639524 187.149049 
L 230.31194 184.05404 
L 232.133554 181.052714 
L 234.097427 178.15895 
L 236.20009 175.379688 
L 238.434603 172.725336 
L 240.804436 170.206304 
L 240.804436 170.206304 
" style="fill:none;stroke:#fea952;stroke-linecap:square;"/>
   </g>
   <g id="line2d_14">
    <path clip-path="url(#pe770d01012)" d="M 110.706342 170.305998 
L 110.243537 156.405936 
L 110.169503 149.02927 
L 110.32291 141.474834 
L 110.787165 133.750949 
L 111.167797 129.840641 
L 111.665551 125.91714 
L 112.29316 121.973411 
L 113.066093 118.016525 
L 113.996771 114.067246 
L 115.095177 110.137761 
L 116.388686 106.189578 
L 117.88003 102.295907 
L 119.590021 98.431873 
L 121.528181 94.626709 
L 123.673966 90.943041 
L 126.034531 87.358746 
L 128.589983 83.913105 
L 131.335217 80.606841 
L 134.276955 77.437927 
L 137.387688 74.447572 
L 140.669393 71.632909 
L 144.129819 68.998222 
L 147.762273 66.566326 
L 151.519722 64.379798 
L 155.379324 62.44426 
L 159.273071 60.775789 
L 163.187561 59.346356 
L 167.12533 58.126411 
L 171.049633 57.104852 
L 174.972367 56.251186 
L 178.872355 55.549873 
L 186.564061 54.526251 
L 194.153842 53.885761 
L 201.832527 53.57801 
L 209.583409 53.666785 
L 213.480767 53.880288 
L 217.395921 54.218186 
L 221.322634 54.689997 
L 225.244903 55.302589 
L 229.176393 56.063977 
L 233.089247 56.977715 
L 236.977089 58.044431 
L 240.829907 59.263672 
L 244.618535 60.626216 
L 248.391645 62.148738 
L 252.093238 63.820994 
L 255.715011 65.63626 
L 259.291934 67.613726 
L 262.78054 69.743521 
L 266.163649 72.017298 
L 269.400239 74.400188 
L 272.483932 76.862939 
L 275.436259 79.392049 
L 280.975145 84.554378 
L 286.127345 89.760367 
L 302.95107 107.542476 
L 310.210337 115.347262 
L 315.024677 120.720069 
L 319.757269 126.242144 
L 324.367699 131.903877 
L 328.839715 137.70359 
L 333.163468 143.633588 
L 337.314846 149.677124 
L 341.326827 155.890047 
L 345.171174 162.306331 
L 348.808136 168.972303 
L 352.164544 175.905826 
L 353.707228 179.464675 
L 355.167702 183.124246 
L 356.50787 186.830953 
L 357.744073 190.635311 
L 358.84836 194.502955 
L 359.816227 198.44279 
L 360.629223 202.423749 
L 361.288243 206.484007 
L 361.770564 210.603406 
L 362.060303 214.745815 
L 362.150497 218.951495 
L 362.021837 223.165025 
L 361.662978 227.421281 
L 361.066157 231.631003 
L 360.238587 235.797883 
L 359.187037 239.904229 
L 357.917599 243.944906 
L 356.434073 247.918133 
L 354.732616 251.827253 
L 352.835004 255.618295 
L 350.734368 259.320834 
L 348.436936 262.916284 
L 345.94946 266.389297 
L 343.272463 269.739307 
L 340.399602 272.961988 
L 337.367523 276.007446 
L 334.151911 278.903363 
L 330.773059 281.615039 
L 327.20842 284.148231 
L 323.505601 286.451455 
L 319.623367 288.542772 
L 315.602524 290.376854 
L 311.451074 291.939699 
L 307.224685 293.205997 
L 302.976462 294.174168 
L 298.705088 294.868655 
L 294.425229 295.30192 
L 290.166285 295.488 
L 285.932749 295.444908 
L 281.700349 295.185543 
L 277.537184 294.719805 
L 273.406104 294.062872 
L 269.328417 293.22181 
L 265.302996 292.202398 
L 261.30771 290.998497 
L 257.369899 289.609208 
L 253.492547 288.030696 
L 249.681233 286.257233 
L 245.961261 284.291293 
L 242.346082 282.136403 
L 238.812203 279.770632 
L 235.401941 277.203755 
L 232.126974 274.437411 
L 229.018536 271.493226 
L 226.062011 268.36 
L 223.308804 265.088912 
L 220.717989 261.644195 
L 218.329003 258.063523 
L 216.149181 254.362193 
L 214.157286 250.498994 
L 212.406509 246.542918 
L 210.885834 242.477316 
L 209.604368 238.300435 
L 208.594126 234.093006 
L 207.838146 229.841852 
L 207.337271 225.585464 
L 207.079375 221.334737 
L 207.054088 217.059292 
L 207.261401 212.824076 
L 207.688612 208.611221 
L 208.333405 204.416935 
L 209.186038 200.292965 
L 210.243733 196.203524 
L 211.499385 192.1828 
L 212.956738 188.210569 
L 214.596086 184.348929 
L 216.429181 180.551083 
L 218.447288 176.852951 
L 220.649504 173.258983 
L 223.029174 169.785216 
L 225.582476 166.44146 
L 228.325898 163.215356 
L 230.695731 160.696324 
L 230.695731 160.696324 
" style="fill:none;stroke:#ffffff;stroke-linecap:square;"/>
   </g>
   <g id="line2d_15">
    <path clip-path="url(#pe770d01012)" d="M 138.443762 169.239174 
L 137.997495 155.936466 
L 137.925801 149.330077 
L 138.049973 142.783486 
L 138.418456 136.399403 
L 139.087574 130.222398 
L 140.101972 124.306505 
L 140.753496 121.455091 
L 141.507931 118.674097 
L 142.351783 116.008954 
L 143.317015 113.407269 
L 144.389757 110.900859 
L 145.581303 108.481307 
L 146.933017 106.092929 
L 148.409985 103.785603 
L 150.032102 101.54087 
L 151.776712 99.385761 
L 153.616277 97.350064 
L 155.571366 95.420326 
L 157.612244 93.620233 
L 159.717282 91.966321 
L 161.872357 90.47047 
L 164.11062 89.117862 
L 166.441036 87.902875 
L 168.903854 86.809432 
L 171.498599 85.830865 
L 174.194974 84.968965 
L 177.015848 84.214017 
L 179.935443 83.561815 
L 186.047538 82.541523 
L 192.424124 81.845863 
L 198.793319 81.430698 
L 205.039106 81.317969 
L 211.148019 81.540021 
L 217.101842 82.125148 
L 222.932742 83.110592 
L 225.81364 83.765177 
L 228.670975 84.530484 
L 231.500879 85.406966 
L 237.033943 87.47669 
L 239.723613 88.67044 
L 242.361252 89.971002 
L 244.904952 91.352246 
L 247.370422 92.830981 
L 249.767901 94.415557 
L 252.124534 96.12696 
L 256.775316 99.941302 
L 261.402771 104.237487 
L 266.049121 108.9272 
L 282.722275 126.550328 
L 291.866446 136.443008 
L 296.2263 141.405052 
L 300.449281 146.451096 
L 304.532788 151.594759 
L 308.482363 156.855684 
L 312.277989 162.210426 
L 315.912869 167.650733 
L 319.341513 173.136093 
L 322.519664 178.654783 
L 325.400823 184.206825 
L 327.946092 189.802298 
L 330.127998 195.468367 
L 331.90956 201.196506 
L 332.634927 204.071241 
L 333.244526 206.96037 
L 333.73052 209.811836 
L 334.087876 212.645798 
L 334.311659 215.46369 
L 334.401891 218.232189 
L 334.350124 220.97896 
L 334.160764 223.662185 
L 333.813816 226.357248 
L 333.315945 229.039637 
L 332.667322 231.706225 
L 331.868794 234.355209 
L 330.930441 236.960611 
L 329.856105 239.512149 
L 328.63095 242.029096 
L 327.275724 244.481878 
L 325.798078 246.854382 
L 324.18432 249.161957 
L 322.461685 251.370472 
L 320.636517 253.470374 
L 318.686048 255.476858 
L 316.662351 257.348366 
L 314.559013 259.084898 
L 312.405518 260.666819 
L 310.17508 262.103975 
L 307.922813 263.371368 
L 305.628727 264.472686 
L 303.291761 265.408055 
L 300.884005 266.181965 
L 298.359294 266.802936 
L 295.760581 267.267342 
L 293.080139 267.576601 
L 290.330207 267.730556 
L 287.513229 267.732011 
L 284.688176 267.588886 
L 281.800826 267.291281 
L 278.92303 266.858716 
L 276.054296 266.291063 
L 273.216568 265.596422 
L 270.44586 264.787874 
L 267.735646 263.859376 
L 265.096826 262.814763 
L 262.544635 261.659765 
L 260.067649 260.384967 
L 257.673236 258.993782 
L 255.391829 257.50814 
L 253.201929 255.904389 
L 251.112677 254.187827 
L 249.106717 252.33683 
L 247.212543 250.383416 
L 245.406511 248.290284 
L 243.729545 246.12096 
L 242.176904 243.858588 
L 240.748197 241.501751 
L 239.478535 239.126355 
L 238.349426 236.67035 
L 237.371888 234.171202 
L 236.557631 231.665362 
L 235.895457 229.079038 
L 235.388452 226.453165 
L 235.035771 223.770071 
L 234.83566 221.03274 
L 234.784614 218.292369 
L 234.889577 215.504829 
L 235.142435 212.708807 
L 235.538564 209.928913 
L 236.087707 207.13422 
L 236.771822 204.374393 
L 237.598014 201.636061 
L 238.548662 198.960268 
L 239.643469 196.312674 
L 240.849868 193.747015 
L 242.176591 191.255129 
L 243.617603 188.846445 
L 245.16568 186.532684 
L 246.817705 184.317915 
L 248.543308 182.235316 
L 250.913141 179.716284 
L 250.913141 179.716284 
" style="fill:none;stroke:#ffffff;stroke-linecap:square;"/>
   </g>
   <g id="patch_3">
    <path d="M 57.6 307.584 
L 57.6 41.472 
" style="fill:none;stroke:#000000;stroke-linecap:square;stroke-linejoin:miter;stroke-width:0.8;"/>
   </g>
   <g id="patch_4">
    <path d="M 414.72 307.584 
L 414.72 41.472 
" style="fill:none;stroke:#000000;stroke-linecap:square;stroke-linejoin:miter;stroke-width:0.8;"/>
   </g>
   <g id="patch_5">
    <path d="M 57.6 307.584 
L 414.72 307.584 
" style="fill:none;stroke:#000000;stroke-linecap:square;stroke-linejoin:miter;stroke-width:0.8;"/>
   </g>
   <g id="patch_6">
    <path d="M 57.6 41.472 
L 414.72 41.472 
" style="fill:none;stroke:#000000;stroke-linecap:square;stroke-linejoin:miter;stroke-width:0.8;"/>
   </g>
  </g>
 </g>
 <defs>
  <clipPath id="pe770d01012">
   <rect height="266.112" width="357.12" x="57.6" y="41.472"/>
  </clipPath>
 </defs>
</svg>
