<?xml version="1.0" encoding="utf-8" standalone="no"?>
<!DOCTYPE svg PUBLIC "-//W3C//DTD SVG 1.1//EN"
  "http://www.w3.org/Graphics/SVG/1.1/DTD/svg11.dtd">
<!-- Created with matplotlib (https://matplotlib.org/) -->
<svg height="345.6pt" version="1.1" viewBox="0 0 460.8 345.6" width="460.8pt" xmlns="http://www.w3.org/2000/svg" xmlns:xlink="http://www.w3.org/1999/xlink">
 <metadata>
  <rdf:RDF xmlns:cc="http://creativecommons.org/ns#" xmlns:dc="http://purl.org/dc/elements/1.1/" xmlns:rdf="http://www.w3.org/1999/02/22-rdf-syntax-ns#">
   <cc:Work>
    <dc:type rdf:resource="http://purl.org/dc/dcmitype/StillImage"/>
    <dc:date>2021-01-22T11:28:35.664504</dc:date>
    <dc:format>image/svg+xml</dc:format>
    <dc:creator>
     <cc:Agent>
      <dc:title>Matplotlib v3.3.3, https://matplotlib.org/</dc:title>
     </cc:Agent>
    </dc:creator>
   </cc:Work>
  </rdf:RDF>
 </metadata>
 <defs>
  <style type="text/css">*{stroke-linecap:butt;stroke-linejoin:round;}</style>
 </defs>
 <g id="figure_1">
  <g id="patch_1">
   <path d="M 0 345.6 
L 460.8 345.6 
L 460.8 0 
L 0 0 
z
" style="fill:#ffffff;"/>
  </g>
  <g id="axes_1">
   <g id="patch_2">
    <path d="M 57.6 307.584 
L 414.72 307.584 
L 414.72 41.472 
L 57.6 41.472 
z
" style="fill:#7d9051;"/>
   </g>
   <g id="matplotlib.axis_1">
    <g id="xtick_1">
     <g id="line2d_1">
      <defs>
       <path d="M 0 0 
L 0 3.5 
" id="m4ac15083fc" style="stroke:#000000;stroke-width:0.8;"/>
      </defs>
      <g>
       <use style="stroke:#000000;stroke-width:0.8;" x="105.369143" xlink:href="#m4ac15083fc" y="307.584"/>
      </g>
     </g>
     <g id="text_1">
      <!-- 20 -->
      <g transform="translate(99.006643 322.182437)scale(0.1 -0.1)">
       <defs>
        <path d="M 19.1875 8.296875 
L 53.609375 8.296875 
L 53.609375 0 
L 7.328125 0 
L 7.328125 8.296875 
Q 12.9375 14.109375 22.625 23.890625 
Q 32.328125 33.6875 34.8125 36.53125 
Q 39.546875 41.84375 41.421875 45.53125 
Q 43.3125 49.21875 43.3125 52.78125 
Q 43.3125 58.59375 39.234375 62.25 
Q 35.15625 65.921875 28.609375 65.921875 
Q 23.96875 65.921875 18.8125 64.3125 
Q 13.671875 62.703125 7.8125 59.421875 
L 7.8125 69.390625 
Q 13.765625 71.78125 18.9375 73 
Q 24.125 74.21875 28.421875 74.21875 
Q 39.75 74.21875 46.484375 68.546875 
Q 53.21875 62.890625 53.21875 53.421875 
Q 53.21875 48.921875 51.53125 44.890625 
Q 49.859375 40.875 45.40625 35.40625 
Q 44.1875 33.984375 37.640625 27.21875 
Q 31.109375 20.453125 19.1875 8.296875 
z
" id="DejaVuSans-50"/>
        <path d="M 31.78125 66.40625 
Q 24.171875 66.40625 20.328125 58.90625 
Q 16.5 51.421875 16.5 36.375 
Q 16.5 21.390625 20.328125 13.890625 
Q 24.171875 6.390625 31.78125 6.390625 
Q 39.453125 6.390625 43.28125 13.890625 
Q 47.125 21.390625 47.125 36.375 
Q 47.125 51.421875 43.28125 58.90625 
Q 39.453125 66.40625 31.78125 66.40625 
z
M 31.78125 74.21875 
Q 44.046875 74.21875 50.515625 64.515625 
Q 56.984375 54.828125 56.984375 36.375 
Q 56.984375 17.96875 50.515625 8.265625 
Q 44.046875 -1.421875 31.78125 -1.421875 
Q 19.53125 -1.421875 13.0625 8.265625 
Q 6.59375 17.96875 6.59375 36.375 
Q 6.59375 54.828125 13.0625 64.515625 
Q 19.53125 74.21875 31.78125 74.21875 
z
" id="DejaVuSans-48"/>
       </defs>
       <use xlink:href="#DejaVuSans-50"/>
       <use x="63.623047" xlink:href="#DejaVuSans-48"/>
      </g>
     </g>
    </g>
    <g id="xtick_2">
     <g id="line2d_2">
      <g>
       <use style="stroke:#000000;stroke-width:0.8;" x="153.313225" xlink:href="#m4ac15083fc" y="307.584"/>
      </g>
     </g>
     <g id="text_2">
      <!-- 40 -->
      <g transform="translate(146.950725 322.182437)scale(0.1 -0.1)">
       <defs>
        <path d="M 37.796875 64.3125 
L 12.890625 25.390625 
L 37.796875 25.390625 
z
M 35.203125 72.90625 
L 47.609375 72.90625 
L 47.609375 25.390625 
L 58.015625 25.390625 
L 58.015625 17.1875 
L 47.609375 17.1875 
L 47.609375 0 
L 37.796875 0 
L 37.796875 17.1875 
L 4.890625 17.1875 
L 4.890625 26.703125 
z
" id="DejaVuSans-52"/>
       </defs>
       <use xlink:href="#DejaVuSans-52"/>
       <use x="63.623047" xlink:href="#DejaVuSans-48"/>
      </g>
     </g>
    </g>
    <g id="xtick_3">
     <g id="line2d_3">
      <g>
       <use style="stroke:#000000;stroke-width:0.8;" x="201.257306" xlink:href="#m4ac15083fc" y="307.584"/>
      </g>
     </g>
     <g id="text_3">
      <!-- 60 -->
      <g transform="translate(194.894806 322.182437)scale(0.1 -0.1)">
       <defs>
        <path d="M 33.015625 40.375 
Q 26.375 40.375 22.484375 35.828125 
Q 18.609375 31.296875 18.609375 23.390625 
Q 18.609375 15.53125 22.484375 10.953125 
Q 26.375 6.390625 33.015625 6.390625 
Q 39.65625 6.390625 43.53125 10.953125 
Q 47.40625 15.53125 47.40625 23.390625 
Q 47.40625 31.296875 43.53125 35.828125 
Q 39.65625 40.375 33.015625 40.375 
z
M 52.59375 71.296875 
L 52.59375 62.3125 
Q 48.875 64.0625 45.09375 64.984375 
Q 41.3125 65.921875 37.59375 65.921875 
Q 27.828125 65.921875 22.671875 59.328125 
Q 17.53125 52.734375 16.796875 39.40625 
Q 19.671875 43.65625 24.015625 45.921875 
Q 28.375 48.1875 33.59375 48.1875 
Q 44.578125 48.1875 50.953125 41.515625 
Q 57.328125 34.859375 57.328125 23.390625 
Q 57.328125 12.15625 50.6875 5.359375 
Q 44.046875 -1.421875 33.015625 -1.421875 
Q 20.359375 -1.421875 13.671875 8.265625 
Q 6.984375 17.96875 6.984375 36.375 
Q 6.984375 53.65625 15.1875 63.9375 
Q 23.390625 74.21875 37.203125 74.21875 
Q 40.921875 74.21875 44.703125 73.484375 
Q 48.484375 72.75 52.59375 71.296875 
z
" id="DejaVuSans-54"/>
       </defs>
       <use xlink:href="#DejaVuSans-54"/>
       <use x="63.623047" xlink:href="#DejaVuSans-48"/>
      </g>
     </g>
    </g>
    <g id="xtick_4">
     <g id="line2d_4">
      <g>
       <use style="stroke:#000000;stroke-width:0.8;" x="249.201388" xlink:href="#m4ac15083fc" y="307.584"/>
      </g>
     </g>
     <g id="text_4">
      <!-- 80 -->
      <g transform="translate(242.838888 322.182437)scale(0.1 -0.1)">
       <defs>
        <path d="M 31.78125 34.625 
Q 24.75 34.625 20.71875 30.859375 
Q 16.703125 27.09375 16.703125 20.515625 
Q 16.703125 13.921875 20.71875 10.15625 
Q 24.75 6.390625 31.78125 6.390625 
Q 38.8125 6.390625 42.859375 10.171875 
Q 46.921875 13.96875 46.921875 20.515625 
Q 46.921875 27.09375 42.890625 30.859375 
Q 38.875 34.625 31.78125 34.625 
z
M 21.921875 38.8125 
Q 15.578125 40.375 12.03125 44.71875 
Q 8.5 49.078125 8.5 55.328125 
Q 8.5 64.0625 14.71875 69.140625 
Q 20.953125 74.21875 31.78125 74.21875 
Q 42.671875 74.21875 48.875 69.140625 
Q 55.078125 64.0625 55.078125 55.328125 
Q 55.078125 49.078125 51.53125 44.71875 
Q 48 40.375 41.703125 38.8125 
Q 48.828125 37.15625 52.796875 32.3125 
Q 56.78125 27.484375 56.78125 20.515625 
Q 56.78125 9.90625 50.3125 4.234375 
Q 43.84375 -1.421875 31.78125 -1.421875 
Q 19.734375 -1.421875 13.25 4.234375 
Q 6.78125 9.90625 6.78125 20.515625 
Q 6.78125 27.484375 10.78125 32.3125 
Q 14.796875 37.15625 21.921875 38.8125 
z
M 18.3125 54.390625 
Q 18.3125 48.734375 21.84375 45.5625 
Q 25.390625 42.390625 31.78125 42.390625 
Q 38.140625 42.390625 41.71875 45.5625 
Q 45.3125 48.734375 45.3125 54.390625 
Q 45.3125 60.0625 41.71875 63.234375 
Q 38.140625 66.40625 31.78125 66.40625 
Q 25.390625 66.40625 21.84375 63.234375 
Q 18.3125 60.0625 18.3125 54.390625 
z
" id="DejaVuSans-56"/>
       </defs>
       <use xlink:href="#DejaVuSans-56"/>
       <use x="63.623047" xlink:href="#DejaVuSans-48"/>
      </g>
     </g>
    </g>
    <g id="xtick_5">
     <g id="line2d_5">
      <g>
       <use style="stroke:#000000;stroke-width:0.8;" x="297.14547" xlink:href="#m4ac15083fc" y="307.584"/>
      </g>
     </g>
     <g id="text_5">
      <!-- 100 -->
      <g transform="translate(287.60172 322.182437)scale(0.1 -0.1)">
       <defs>
        <path d="M 12.40625 8.296875 
L 28.515625 8.296875 
L 28.515625 63.921875 
L 10.984375 60.40625 
L 10.984375 69.390625 
L 28.421875 72.90625 
L 38.28125 72.90625 
L 38.28125 8.296875 
L 54.390625 8.296875 
L 54.390625 0 
L 12.40625 0 
z
" id="DejaVuSans-49"/>
       </defs>
       <use xlink:href="#DejaVuSans-49"/>
       <use x="63.623047" xlink:href="#DejaVuSans-48"/>
       <use x="127.246094" xlink:href="#DejaVuSans-48"/>
      </g>
     </g>
    </g>
    <g id="xtick_6">
     <g id="line2d_6">
      <g>
       <use style="stroke:#000000;stroke-width:0.8;" x="345.089552" xlink:href="#m4ac15083fc" y="307.584"/>
      </g>
     </g>
     <g id="text_6">
      <!-- 120 -->
      <g transform="translate(335.545802 322.182437)scale(0.1 -0.1)">
       <use xlink:href="#DejaVuSans-49"/>
       <use x="63.623047" xlink:href="#DejaVuSans-50"/>
       <use x="127.246094" xlink:href="#DejaVuSans-48"/>
      </g>
     </g>
    </g>
    <g id="xtick_7">
     <g id="line2d_7">
      <g>
       <use style="stroke:#000000;stroke-width:0.8;" x="393.033633" xlink:href="#m4ac15083fc" y="307.584"/>
      </g>
     </g>
     <g id="text_7">
      <!-- 140 -->
      <g transform="translate(383.489883 322.182437)scale(0.1 -0.1)">
       <use xlink:href="#DejaVuSans-49"/>
       <use x="63.623047" xlink:href="#DejaVuSans-52"/>
       <use x="127.246094" xlink:href="#DejaVuSans-48"/>
      </g>
     </g>
    </g>
   </g>
   <g id="matplotlib.axis_2">
    <g id="ytick_1">
     <g id="line2d_8">
      <defs>
       <path d="M 0 0 
L -3.5 0 
" id="m54e7435a83" style="stroke:#000000;stroke-width:0.8;"/>
      </defs>
      <g>
       <use style="stroke:#000000;stroke-width:0.8;" x="57.6" xlink:href="#m54e7435a83" y="259.893065"/>
      </g>
     </g>
     <g id="text_8">
      <!-- 0 -->
      <g transform="translate(44.2375 263.692284)scale(0.1 -0.1)">
       <use xlink:href="#DejaVuSans-48"/>
      </g>
     </g>
    </g>
    <g id="ytick_2">
     <g id="line2d_9">
      <g>
       <use style="stroke:#000000;stroke-width:0.8;" x="57.6" xlink:href="#m54e7435a83" y="211.948983"/>
      </g>
     </g>
     <g id="text_9">
      <!-- 20 -->
      <g transform="translate(37.875 215.748202)scale(0.1 -0.1)">
       <use xlink:href="#DejaVuSans-50"/>
       <use x="63.623047" xlink:href="#DejaVuSans-48"/>
      </g>
     </g>
    </g>
    <g id="ytick_3">
     <g id="line2d_10">
      <g>
       <use style="stroke:#000000;stroke-width:0.8;" x="57.6" xlink:href="#m54e7435a83" y="164.004901"/>
      </g>
     </g>
     <g id="text_10">
      <!-- 40 -->
      <g transform="translate(37.875 167.80412)scale(0.1 -0.1)">
       <use xlink:href="#DejaVuSans-52"/>
       <use x="63.623047" xlink:href="#DejaVuSans-48"/>
      </g>
     </g>
    </g>
    <g id="ytick_4">
     <g id="line2d_11">
      <g>
       <use style="stroke:#000000;stroke-width:0.8;" x="57.6" xlink:href="#m54e7435a83" y="116.06082"/>
      </g>
     </g>
     <g id="text_11">
      <!-- 60 -->
      <g transform="translate(37.875 119.860038)scale(0.1 -0.1)">
       <use xlink:href="#DejaVuSans-54"/>
       <use x="63.623047" xlink:href="#DejaVuSans-48"/>
      </g>
     </g>
    </g>
    <g id="ytick_5">
     <g id="line2d_12">
      <g>
       <use style="stroke:#000000;stroke-width:0.8;" x="57.6" xlink:href="#m54e7435a83" y="68.116738"/>
      </g>
     </g>
     <g id="text_12">
      <!-- 80 -->
      <g transform="translate(37.875 71.915957)scale(0.1 -0.1)">
       <use xlink:href="#DejaVuSans-56"/>
       <use x="63.623047" xlink:href="#DejaVuSans-48"/>
      </g>
     </g>
    </g>
   </g>
   <g id="line2d_13">
    <path clip-path="url(#pd242450f42)" d="M 81.397102 189.261844 
L 84.465523 193.030248 
L 87.819212 196.506194 
L 91.434195 199.689681 
L 95.286502 202.573518 
L 99.344969 205.15291 
L 103.58802 207.425459 
L 107.98689 209.383975 
L 112.520003 211.02606 
L 117.158592 212.346919 
L 121.87629 213.341759 
L 126.646726 214.008181 
L 131.45312 214.348584 
L 136.269103 214.374954 
L 141.0731 214.094481 
L 145.845934 213.509563 
L 150.568426 212.636981 
L 155.235782 211.500706 
L 159.843208 210.1343 
L 164.388307 208.568925 
L 168.871079 206.83335 
L 175.482568 203.997457 
L 192.986952 196.165791 
L 199.689535 193.536059 
L 206.488006 191.172415 
L 213.372776 189.096437 
L 220.331859 187.320108 
L 227.355667 185.802678 
L 234.439405 184.481819 
L 248.681195 181.998315 
L 253.353346 180.919573 
L 257.9368 179.553167 
L 260.18298 178.733323 
L 264.567466 176.774808 
L 268.781751 174.420753 
L 272.794671 171.711913 
L 276.577459 168.689038 
L 280.096554 165.388088 
L 283.342369 161.854609 
L 286.386818 158.155723 
L 296.725959 144.913568 
L 299.923829 141.320159 
L 303.306284 137.904143 
L 306.894899 134.703876 
L 310.711248 131.762506 
L 314.769714 129.11839 
L 319.063107 126.824266 
L 321.282918 125.824632 
L 323.545879 124.935269 
L 325.844797 124.163369 
L 328.177277 123.513727 
L 330.533728 122.995931 
L 332.909358 122.617173 
L 335.29937 122.382247 
L 337.701369 122.300742 
L 340.103367 122.363069 
L 342.505366 122.569229 
L 344.897775 122.907234 
L 347.275802 123.372292 
L 349.632253 123.959607 
L 354.263652 125.47464 
L 358.741629 127.399595 
L 363.023035 129.691322 
L 367.076708 132.333041 
L 370.869084 135.315163 
L 372.659796 136.930878 
L 374.3714 138.625702 
L 376.006293 140.40203 
L 377.554887 142.257466 
L 379.017181 144.189612 
L 380.385985 146.191278 
L 381.661297 148.257668 
L 382.838324 150.383988 
L 383.912272 152.563046 
L 384.878345 154.787652 
L 385.736544 157.050612 
L 386.479677 159.349531 
L 387.105348 161.672422 
L 387.611158 164.019285 
L 387.99471 166.378133 
L 388.447782 171.136584 
L 388.582025 175.930992 
L 388.454974 183.158562 
L 388.277581 192.790528 
L 388.409427 202.381742 
L 388.898456 226.308236 
L 388.759419 233.514231 
L 388.653942 235.921024 
L 388.653942 235.921024 
" style="fill:none;stroke:#fea952;stroke-linecap:square;"/>
   </g>
   <g id="line2d_14">
    <path clip-path="url(#pd242450f42)" d="M 88.961477 183.368997 
L 91.502297 186.516478 
L 94.302496 189.441322 
L 97.327108 192.125359 
L 100.583336 194.580462 
L 104.026024 196.78433 
L 107.645604 198.737455 
L 111.407992 200.426215 
L 115.313795 201.853267 
L 119.30428 203.001256 
L 123.364438 203.869124 
L 127.48646 204.456205 
L 131.663184 204.762069 
L 135.858395 204.794937 
L 140.050899 204.560305 
L 144.238519 204.056436 
L 148.42348 203.291147 
L 152.614171 202.277228 
L 156.810959 201.03755 
L 161.00259 199.597732 
L 165.202804 197.973939 
L 171.542874 195.255363 
L 189.366384 187.286778 
L 196.414161 184.523993 
L 203.585387 182.033476 
L 208.431011 180.536878 
L 215.75769 178.559106 
L 223.089027 176.886958 
L 230.39933 175.459772 
L 248.75217 172.172898 
L 252.745742 171.144112 
L 256.475255 169.89035 
L 260.07835 168.301719 
L 263.584045 166.362884 
L 266.959736 164.102778 
L 270.15342 161.570251 
L 273.141564 158.787065 
L 276.002056 155.684909 
L 278.827689 152.25615 
L 289.488951 138.623011 
L 293.01575 134.670058 
L 296.808733 130.852389 
L 300.900158 127.219995 
L 305.309219 123.840165 
L 307.643087 122.258975 
L 310.063306 120.764043 
L 312.559139 119.368937 
L 315.12584 118.081078 
L 317.775574 116.900286 
L 320.49373 115.845176 
L 323.272045 114.926143 
L 326.119369 114.148343 
L 329.024004 113.526711 
L 331.971347 113.074346 
L 334.974188 112.798946 
L 337.950097 112.715152 
L 340.923345 112.809377 
L 343.846777 113.074703 
L 346.738145 113.496685 
L 349.59475 114.068106 
L 352.405749 114.780657 
L 355.152137 115.620832 
L 357.863812 116.587332 
L 360.49636 117.662975 
L 363.090274 118.853562 
L 365.608827 120.144425 
L 368.082893 121.546186 
L 370.488352 123.051118 
L 372.837612 124.667705 
L 375.097124 126.377327 
L 377.292611 128.195914 
L 379.406631 130.117243 
L 381.426778 132.132087 
L 383.367946 134.257808 
L 385.200823 136.470839 
L 386.932296 138.777001 
L 388.545873 141.155245 
L 390.050559 143.613781 
L 391.439283 146.145012 
L 392.707545 148.743547 
L 393.844082 151.38751 
L 394.860508 154.10126 
L 395.738513 156.855665 
L 396.478927 159.652171 
L 397.075673 162.480339 
L 397.520579 165.281215 
L 398.028517 170.742986 
L 398.17067 175.988351 
L 398.039529 183.444384 
L 397.86632 192.752211 
L 397.995236 202.141616 
L 398.487273 223.913429 
L 398.417972 231.406058 
L 398.233563 236.340848 
L 398.233563 236.340848 
" style="fill:none;stroke:#ffffff;stroke-linecap:square;"/>
   </g>
   <g id="line2d_15">
    <path clip-path="url(#pd242450f42)" d="M 73.832727 195.15469 
L 75.5899 197.39576 
L 77.428749 199.544019 
L 79.346363 201.603516 
L 81.335928 203.571067 
L 83.407285 205.460971 
L 87.735024 208.954032 
L 92.302464 212.090846 
L 97.072872 214.861624 
L 102.027997 217.273016 
L 107.130863 219.31524 
L 112.368479 220.996959 
L 117.69703 222.302569 
L 123.092045 223.233545 
L 128.531339 223.794112 
L 133.964859 223.989565 
L 139.380434 223.834595 
L 144.776025 223.336819 
L 150.09121 222.510177 
L 155.298925 221.385982 
L 160.377372 220.005347 
L 165.335296 218.40911 
L 170.174988 216.63251 
L 177.176119 213.735041 
L 188.162808 208.751371 
L 194.490202 205.935461 
L 200.832234 203.354669 
L 207.233799 201.028113 
L 213.707114 198.974457 
L 220.250658 197.203002 
L 226.923787 195.67728 
L 233.7474 194.342887 
L 253.303945 190.802524 
L 258.57317 189.414927 
L 261.224515 188.560738 
L 263.890705 187.576296 
L 266.507016 186.468264 
L 269.056583 185.247896 
L 271.559057 183.911387 
L 273.979457 182.478622 
L 276.343917 180.9435 
L 278.629606 179.321047 
L 280.852102 177.607077 
L 285.064521 173.936519 
L 288.917396 170.015784 
L 292.349797 166.037712 
L 296.953777 160.158607 
L 302.573733 152.883989 
L 305.391549 149.556624 
L 308.310113 146.429214 
L 311.340122 143.533446 
L 314.484798 140.901398 
L 317.77315 138.542814 
L 321.218546 136.480228 
L 324.790261 134.748977 
L 328.41755 133.400595 
L 332.043453 132.465151 
L 335.624552 131.965548 
L 339.28339 131.916761 
L 343.057406 132.317784 
L 346.858758 133.138557 
L 350.663491 134.361948 
L 354.392984 135.945628 
L 357.963178 137.836458 
L 361.315803 139.998377 
L 364.445558 142.434412 
L 367.316021 145.119316 
L 369.90895 148.044093 
L 372.226097 151.227311 
L 374.237366 154.622964 
L 375.912608 158.187793 
L 377.220842 161.843397 
L 378.146643 165.55823 
L 378.7063 169.472096 
L 378.958325 173.672522 
L 378.98072 178.144793 
L 378.698932 195.295495 
L 378.884312 205.04307 
L 379.30964 223.913429 
L 379.249492 230.813613 
L 379.07432 235.5012 
L 379.07432 235.5012 
" style="fill:none;stroke:#ffffff;stroke-linecap:square;"/>
   </g>
   <g id="patch_3">
    <path d="M 57.6 307.584 
L 57.6 41.472 
" style="fill:none;stroke:#000000;stroke-linecap:square;stroke-linejoin:miter;stroke-width:0.8;"/>
   </g>
   <g id="patch_4">
    <path d="M 414.72 307.584 
L 414.72 41.472 
" style="fill:none;stroke:#000000;stroke-linecap:square;stroke-linejoin:miter;stroke-width:0.8;"/>
   </g>
   <g id="patch_5">
    <path d="M 57.6 307.584 
L 414.72 307.584 
" style="fill:none;stroke:#000000;stroke-linecap:square;stroke-linejoin:miter;stroke-width:0.8;"/>
   </g>
   <g id="patch_6">
    <path d="M 57.6 41.472 
L 414.72 41.472 
" style="fill:none;stroke:#000000;stroke-linecap:square;stroke-linejoin:miter;stroke-width:0.8;"/>
   </g>
  </g>
 </g>
 <defs>
  <clipPath id="pd242450f42">
   <rect height="266.112" width="357.12" x="57.6" y="41.472"/>
  </clipPath>
 </defs>
</svg>
