<?xml version="1.0" encoding="utf-8" standalone="no"?>
<!DOCTYPE svg PUBLIC "-//W3C//DTD SVG 1.1//EN"
  "http://www.w3.org/Graphics/SVG/1.1/DTD/svg11.dtd">
<!-- Created with matplotlib (https://matplotlib.org/) -->
<svg height="345.6pt" version="1.1" viewBox="0 0 460.8 345.6" width="460.8pt" xmlns="http://www.w3.org/2000/svg" xmlns:xlink="http://www.w3.org/1999/xlink">
 <metadata>
  <rdf:RDF xmlns:cc="http://creativecommons.org/ns#" xmlns:dc="http://purl.org/dc/elements/1.1/" xmlns:rdf="http://www.w3.org/1999/02/22-rdf-syntax-ns#">
   <cc:Work>
    <dc:type rdf:resource="http://purl.org/dc/dcmitype/StillImage"/>
    <dc:date>2021-01-25T09:26:10.371024</dc:date>
    <dc:format>image/svg+xml</dc:format>
    <dc:creator>
     <cc:Agent>
      <dc:title>Matplotlib v3.3.3, https://matplotlib.org/</dc:title>
     </cc:Agent>
    </dc:creator>
   </cc:Work>
  </rdf:RDF>
 </metadata>
 <defs>
  <style type="text/css">*{stroke-linecap:butt;stroke-linejoin:round;}</style>
 </defs>
 <g id="figure_1">
  <g id="patch_1">
   <path d="M 0 345.6 
L 460.8 345.6 
L 460.8 0 
L 0 0 
z
" style="fill:#ffffff;"/>
  </g>
  <g id="axes_1">
   <g id="patch_2">
    <path d="M 57.6 307.584 
L 414.72 307.584 
L 414.72 41.472 
L 57.6 41.472 
z
" style="fill:#7d9051;"/>
   </g>
   <g id="matplotlib.axis_1">
    <g id="xtick_1">
     <g id="line2d_1">
      <defs>
       <path d="M 0 0 
L 0 3.5 
" id="me0b073bba8" style="stroke:#000000;stroke-width:0.8;"/>
      </defs>
      <g>
       <use style="stroke:#000000;stroke-width:0.8;" x="59.154093" xlink:href="#me0b073bba8" y="307.584"/>
      </g>
     </g>
     <g id="text_1">
      <!-- 0 -->
      <g transform="translate(55.972843 322.182437)scale(0.1 -0.1)">
       <defs>
        <path d="M 31.78125 66.40625 
Q 24.171875 66.40625 20.328125 58.90625 
Q 16.5 51.421875 16.5 36.375 
Q 16.5 21.390625 20.328125 13.890625 
Q 24.171875 6.390625 31.78125 6.390625 
Q 39.453125 6.390625 43.28125 13.890625 
Q 47.125 21.390625 47.125 36.375 
Q 47.125 51.421875 43.28125 58.90625 
Q 39.453125 66.40625 31.78125 66.40625 
z
M 31.78125 74.21875 
Q 44.046875 74.21875 50.515625 64.515625 
Q 56.984375 54.828125 56.984375 36.375 
Q 56.984375 17.96875 50.515625 8.265625 
Q 44.046875 -1.421875 31.78125 -1.421875 
Q 19.53125 -1.421875 13.0625 8.265625 
Q 6.59375 17.96875 6.59375 36.375 
Q 6.59375 54.828125 13.0625 64.515625 
Q 19.53125 74.21875 31.78125 74.21875 
z
" id="DejaVuSans-48"/>
       </defs>
       <use xlink:href="#DejaVuSans-48"/>
      </g>
     </g>
    </g>
    <g id="xtick_2">
     <g id="line2d_2">
      <g>
       <use style="stroke:#000000;stroke-width:0.8;" x="105.069783" xlink:href="#me0b073bba8" y="307.584"/>
      </g>
     </g>
     <g id="text_2">
      <!-- 20 -->
      <g transform="translate(98.707283 322.182437)scale(0.1 -0.1)">
       <defs>
        <path d="M 19.1875 8.296875 
L 53.609375 8.296875 
L 53.609375 0 
L 7.328125 0 
L 7.328125 8.296875 
Q 12.9375 14.109375 22.625 23.890625 
Q 32.328125 33.6875 34.8125 36.53125 
Q 39.546875 41.84375 41.421875 45.53125 
Q 43.3125 49.21875 43.3125 52.78125 
Q 43.3125 58.59375 39.234375 62.25 
Q 35.15625 65.921875 28.609375 65.921875 
Q 23.96875 65.921875 18.8125 64.3125 
Q 13.671875 62.703125 7.8125 59.421875 
L 7.8125 69.390625 
Q 13.765625 71.78125 18.9375 73 
Q 24.125 74.21875 28.421875 74.21875 
Q 39.75 74.21875 46.484375 68.546875 
Q 53.21875 62.890625 53.21875 53.421875 
Q 53.21875 48.921875 51.53125 44.890625 
Q 49.859375 40.875 45.40625 35.40625 
Q 44.1875 33.984375 37.640625 27.21875 
Q 31.109375 20.453125 19.1875 8.296875 
z
" id="DejaVuSans-50"/>
       </defs>
       <use xlink:href="#DejaVuSans-50"/>
       <use x="63.623047" xlink:href="#DejaVuSans-48"/>
      </g>
     </g>
    </g>
    <g id="xtick_3">
     <g id="line2d_3">
      <g>
       <use style="stroke:#000000;stroke-width:0.8;" x="150.985474" xlink:href="#me0b073bba8" y="307.584"/>
      </g>
     </g>
     <g id="text_3">
      <!-- 40 -->
      <g transform="translate(144.622974 322.182437)scale(0.1 -0.1)">
       <defs>
        <path d="M 37.796875 64.3125 
L 12.890625 25.390625 
L 37.796875 25.390625 
z
M 35.203125 72.90625 
L 47.609375 72.90625 
L 47.609375 25.390625 
L 58.015625 25.390625 
L 58.015625 17.1875 
L 47.609375 17.1875 
L 47.609375 0 
L 37.796875 0 
L 37.796875 17.1875 
L 4.890625 17.1875 
L 4.890625 26.703125 
z
" id="DejaVuSans-52"/>
       </defs>
       <use xlink:href="#DejaVuSans-52"/>
       <use x="63.623047" xlink:href="#DejaVuSans-48"/>
      </g>
     </g>
    </g>
    <g id="xtick_4">
     <g id="line2d_4">
      <g>
       <use style="stroke:#000000;stroke-width:0.8;" x="196.901165" xlink:href="#me0b073bba8" y="307.584"/>
      </g>
     </g>
     <g id="text_4">
      <!-- 60 -->
      <g transform="translate(190.538665 322.182437)scale(0.1 -0.1)">
       <defs>
        <path d="M 33.015625 40.375 
Q 26.375 40.375 22.484375 35.828125 
Q 18.609375 31.296875 18.609375 23.390625 
Q 18.609375 15.53125 22.484375 10.953125 
Q 26.375 6.390625 33.015625 6.390625 
Q 39.65625 6.390625 43.53125 10.953125 
Q 47.40625 15.53125 47.40625 23.390625 
Q 47.40625 31.296875 43.53125 35.828125 
Q 39.65625 40.375 33.015625 40.375 
z
M 52.59375 71.296875 
L 52.59375 62.3125 
Q 48.875 64.0625 45.09375 64.984375 
Q 41.3125 65.921875 37.59375 65.921875 
Q 27.828125 65.921875 22.671875 59.328125 
Q 17.53125 52.734375 16.796875 39.40625 
Q 19.671875 43.65625 24.015625 45.921875 
Q 28.375 48.1875 33.59375 48.1875 
Q 44.578125 48.1875 50.953125 41.515625 
Q 57.328125 34.859375 57.328125 23.390625 
Q 57.328125 12.15625 50.6875 5.359375 
Q 44.046875 -1.421875 33.015625 -1.421875 
Q 20.359375 -1.421875 13.671875 8.265625 
Q 6.984375 17.96875 6.984375 36.375 
Q 6.984375 53.65625 15.1875 63.9375 
Q 23.390625 74.21875 37.203125 74.21875 
Q 40.921875 74.21875 44.703125 73.484375 
Q 48.484375 72.75 52.59375 71.296875 
z
" id="DejaVuSans-54"/>
       </defs>
       <use xlink:href="#DejaVuSans-54"/>
       <use x="63.623047" xlink:href="#DejaVuSans-48"/>
      </g>
     </g>
    </g>
    <g id="xtick_5">
     <g id="line2d_5">
      <g>
       <use style="stroke:#000000;stroke-width:0.8;" x="242.816855" xlink:href="#me0b073bba8" y="307.584"/>
      </g>
     </g>
     <g id="text_5">
      <!-- 80 -->
      <g transform="translate(236.454355 322.182437)scale(0.1 -0.1)">
       <defs>
        <path d="M 31.78125 34.625 
Q 24.75 34.625 20.71875 30.859375 
Q 16.703125 27.09375 16.703125 20.515625 
Q 16.703125 13.921875 20.71875 10.15625 
Q 24.75 6.390625 31.78125 6.390625 
Q 38.8125 6.390625 42.859375 10.171875 
Q 46.921875 13.96875 46.921875 20.515625 
Q 46.921875 27.09375 42.890625 30.859375 
Q 38.875 34.625 31.78125 34.625 
z
M 21.921875 38.8125 
Q 15.578125 40.375 12.03125 44.71875 
Q 8.5 49.078125 8.5 55.328125 
Q 8.5 64.0625 14.71875 69.140625 
Q 20.953125 74.21875 31.78125 74.21875 
Q 42.671875 74.21875 48.875 69.140625 
Q 55.078125 64.0625 55.078125 55.328125 
Q 55.078125 49.078125 51.53125 44.71875 
Q 48 40.375 41.703125 38.8125 
Q 48.828125 37.15625 52.796875 32.3125 
Q 56.78125 27.484375 56.78125 20.515625 
Q 56.78125 9.90625 50.3125 4.234375 
Q 43.84375 -1.421875 31.78125 -1.421875 
Q 19.734375 -1.421875 13.25 4.234375 
Q 6.78125 9.90625 6.78125 20.515625 
Q 6.78125 27.484375 10.78125 32.3125 
Q 14.796875 37.15625 21.921875 38.8125 
z
M 18.3125 54.390625 
Q 18.3125 48.734375 21.84375 45.5625 
Q 25.390625 42.390625 31.78125 42.390625 
Q 38.140625 42.390625 41.71875 45.5625 
Q 45.3125 48.734375 45.3125 54.390625 
Q 45.3125 60.0625 41.71875 63.234375 
Q 38.140625 66.40625 31.78125 66.40625 
Q 25.390625 66.40625 21.84375 63.234375 
Q 18.3125 60.0625 18.3125 54.390625 
z
" id="DejaVuSans-56"/>
       </defs>
       <use xlink:href="#DejaVuSans-56"/>
       <use x="63.623047" xlink:href="#DejaVuSans-48"/>
      </g>
     </g>
    </g>
    <g id="xtick_6">
     <g id="line2d_6">
      <g>
       <use style="stroke:#000000;stroke-width:0.8;" x="288.732546" xlink:href="#me0b073bba8" y="307.584"/>
      </g>
     </g>
     <g id="text_6">
      <!-- 100 -->
      <g transform="translate(279.188796 322.182437)scale(0.1 -0.1)">
       <defs>
        <path d="M 12.40625 8.296875 
L 28.515625 8.296875 
L 28.515625 63.921875 
L 10.984375 60.40625 
L 10.984375 69.390625 
L 28.421875 72.90625 
L 38.28125 72.90625 
L 38.28125 8.296875 
L 54.390625 8.296875 
L 54.390625 0 
L 12.40625 0 
z
" id="DejaVuSans-49"/>
       </defs>
       <use xlink:href="#DejaVuSans-49"/>
       <use x="63.623047" xlink:href="#DejaVuSans-48"/>
       <use x="127.246094" xlink:href="#DejaVuSans-48"/>
      </g>
     </g>
    </g>
    <g id="xtick_7">
     <g id="line2d_7">
      <g>
       <use style="stroke:#000000;stroke-width:0.8;" x="334.648237" xlink:href="#me0b073bba8" y="307.584"/>
      </g>
     </g>
     <g id="text_7">
      <!-- 120 -->
      <g transform="translate(325.104487 322.182437)scale(0.1 -0.1)">
       <use xlink:href="#DejaVuSans-49"/>
       <use x="63.623047" xlink:href="#DejaVuSans-50"/>
       <use x="127.246094" xlink:href="#DejaVuSans-48"/>
      </g>
     </g>
    </g>
    <g id="xtick_8">
     <g id="line2d_8">
      <g>
       <use style="stroke:#000000;stroke-width:0.8;" x="380.563927" xlink:href="#me0b073bba8" y="307.584"/>
      </g>
     </g>
     <g id="text_8">
      <!-- 140 -->
      <g transform="translate(371.020177 322.182437)scale(0.1 -0.1)">
       <use xlink:href="#DejaVuSans-49"/>
       <use x="63.623047" xlink:href="#DejaVuSans-52"/>
       <use x="127.246094" xlink:href="#DejaVuSans-48"/>
      </g>
     </g>
    </g>
   </g>
   <g id="matplotlib.axis_2">
    <g id="ytick_1">
     <g id="line2d_9">
      <defs>
       <path d="M 0 0 
L -3.5 0 
" id="m14b1f3e865" style="stroke:#000000;stroke-width:0.8;"/>
      </defs>
      <g>
       <use style="stroke:#000000;stroke-width:0.8;" x="57.6" xlink:href="#m14b1f3e865" y="265.210549"/>
      </g>
     </g>
     <g id="text_9">
      <!-- 0 -->
      <g transform="translate(44.2375 269.009767)scale(0.1 -0.1)">
       <use xlink:href="#DejaVuSans-48"/>
      </g>
     </g>
    </g>
    <g id="ytick_2">
     <g id="line2d_10">
      <g>
       <use style="stroke:#000000;stroke-width:0.8;" x="57.6" xlink:href="#m14b1f3e865" y="219.294858"/>
      </g>
     </g>
     <g id="text_10">
      <!-- 20 -->
      <g transform="translate(37.875 223.094077)scale(0.1 -0.1)">
       <use xlink:href="#DejaVuSans-50"/>
       <use x="63.623047" xlink:href="#DejaVuSans-48"/>
      </g>
     </g>
    </g>
    <g id="ytick_3">
     <g id="line2d_11">
      <g>
       <use style="stroke:#000000;stroke-width:0.8;" x="57.6" xlink:href="#m14b1f3e865" y="173.379167"/>
      </g>
     </g>
     <g id="text_11">
      <!-- 40 -->
      <g transform="translate(37.875 177.178386)scale(0.1 -0.1)">
       <use xlink:href="#DejaVuSans-52"/>
       <use x="63.623047" xlink:href="#DejaVuSans-48"/>
      </g>
     </g>
    </g>
    <g id="ytick_4">
     <g id="line2d_12">
      <g>
       <use style="stroke:#000000;stroke-width:0.8;" x="57.6" xlink:href="#m14b1f3e865" y="127.463477"/>
      </g>
     </g>
     <g id="text_12">
      <!-- 60 -->
      <g transform="translate(37.875 131.262695)scale(0.1 -0.1)">
       <use xlink:href="#DejaVuSans-54"/>
       <use x="63.623047" xlink:href="#DejaVuSans-48"/>
      </g>
     </g>
    </g>
    <g id="ytick_5">
     <g id="line2d_13">
      <g>
       <use style="stroke:#000000;stroke-width:0.8;" x="57.6" xlink:href="#m14b1f3e865" y="81.547786"/>
      </g>
     </g>
     <g id="text_13">
      <!-- 80 -->
      <g transform="translate(37.875 85.347005)scale(0.1 -0.1)">
       <use xlink:href="#DejaVuSans-56"/>
       <use x="63.623047" xlink:href="#DejaVuSans-48"/>
      </g>
     </g>
    </g>
   </g>
   <g id="line2d_14">
    <path clip-path="url(#pbd8bd703b7)" d="M 388.084917 242.252703 
L 388.560145 239.899524 
L 388.913696 237.562415 
L 389.281021 232.924931 
L 389.237401 228.335657 
L 388.828752 223.794596 
L 388.103284 219.294858 
L 387.111505 214.836444 
L 385.901626 210.412468 
L 383.780321 203.837341 
L 380.635097 195.168458 
L 375.69916 182.307473 
L 370.57956 169.529137 
L 367.849872 163.20425 
L 365.893864 159.046584 
L 363.78863 154.955496 
L 361.511211 150.944761 
L 359.038651 147.048814 
L 356.361767 143.295207 
L 353.466782 139.718374 
L 350.339924 136.348163 
L 346.978895 133.212121 
L 343.402063 130.310249 
L 339.641568 127.640252 
L 335.720368 125.199833 
L 331.6729 122.984401 
L 327.519826 120.993956 
L 323.270328 119.233089 
L 318.931296 117.71328 
L 314.502727 116.441415 
L 309.993806 115.43127 
L 305.411421 114.692027 
L 300.78771 114.258124 
L 296.161705 114.168588 
L 291.565544 114.457857 
L 287.038257 115.162663 
L 282.607393 116.305964 
L 278.279839 117.83266 
L 274.046412 119.67388 
L 269.907113 121.760748 
L 265.857349 124.022096 
L 257.952963 128.792736 
L 252.039022 132.307582 
L 248.023695 134.490873 
L 243.902761 136.462952 
L 239.660152 138.200861 
L 235.321119 139.718374 
L 230.904029 141.040746 
L 226.427249 142.181751 
L 219.652389 143.614321 
L 208.380087 145.871077 
L 203.946927 146.993716 
L 199.591824 148.378074 
L 195.326256 150.053996 
L 191.154816 151.991639 
L 187.079798 154.156563 
L 183.101204 156.518926 
L 179.221328 159.041993 
L 169.661681 165.479373 
L 165.717523 167.802707 
L 161.601182 169.802335 
L 159.459215 170.649479 
L 157.269036 171.386426 
L 155.032942 172.01088 
L 152.764707 172.525135 
L 150.468922 172.924602 
L 148.154772 173.209279 
L 145.831438 173.379167 
L 143.508104 173.43197 
L 141.193953 173.367688 
L 138.893577 173.186321 
L 136.616159 172.885574 
L 132.130196 171.96726 
L 127.719993 170.695395 
L 123.369482 169.150332 
L 116.929806 166.503293 
L 110.57737 163.640449 
L 106.438071 161.581131 
L 102.42504 159.35422 
L 98.575009 156.913801 
L 94.929303 154.225437 
L 91.52695 151.240917 
L 89.93138 149.62698 
L 88.409275 147.923508 
L 86.967522 146.125909 
L 85.613009 144.231887 
L 84.348032 142.229963 
L 83.179478 140.120137 
L 82.111938 137.895521 
L 82.111938 137.895521 
" style="fill:none;stroke:#fea952;stroke-linecap:square;"/>
   </g>
   <g id="line2d_15">
    <path clip-path="url(#pbd8bd703b7)" d="M 379.083503 240.434857 
L 379.778574 236.624555 
L 380.098541 232.814961 
L 380.077694 228.991241 
L 379.740143 225.108834 
L 379.111866 221.161524 
L 378.227992 217.163079 
L 377.12003 213.098279 
L 375.116165 206.880763 
L 372.03741 198.394882 
L 367.153952 185.670426 
L 362.112085 173.083272 
L 359.511687 167.051937 
L 356.735031 161.270004 
L 354.739352 157.562346 
L 352.609327 153.999368 
L 350.323335 150.587433 
L 347.891256 147.369044 
L 345.312632 144.369533 
L 342.548591 141.578348 
L 339.551896 138.959824 
L 336.341517 136.514911 
L 332.955881 134.256826 
L 329.408584 132.178326 
L 325.753172 130.294909 
L 322.008234 128.615571 
L 318.205577 127.152016 
L 314.321935 125.907714 
L 310.379413 124.893251 
L 306.393016 124.113199 
L 302.405394 123.591414 
L 298.47356 123.351726 
L 294.636047 123.412727 
L 290.92099 123.793525 
L 287.314813 124.516168 
L 283.660431 125.621098 
L 279.945471 127.081663 
L 276.199951 128.839982 
L 272.425885 130.845664 
L 266.667083 134.227792 
L 256.510485 140.328557 
L 252.104646 142.717407 
L 247.501285 144.911659 
L 242.799899 146.830577 
L 238.048751 148.487071 
L 233.257687 149.917138 
L 228.462821 151.136441 
L 221.379483 152.633588 
L 210.527017 154.799723 
L 206.578059 155.79185 
L 202.814221 156.97727 
L 199.077143 158.436173 
L 195.360076 160.155327 
L 191.681961 162.103268 
L 188.03435 164.264511 
L 184.388588 166.633399 
L 174.445762 173.317905 
L 169.919912 175.967874 
L 167.504266 177.200121 
L 164.978548 178.341856 
L 162.387799 179.353123 
L 159.739022 180.231153 
L 157.063418 180.966727 
L 154.33892 181.572338 
L 151.590142 182.039035 
L 148.824478 182.367965 
L 146.040091 182.559935 
L 143.253115 182.611568 
L 140.472173 182.522417 
L 137.691322 182.29042 
L 134.967756 181.919554 
L 132.33001 181.429679 
L 127.215423 180.147803 
L 122.352319 178.564907 
L 117.717262 176.792339 
L 111.033524 173.948989 
L 104.322665 170.810821 
L 99.856085 168.463263 
L 95.440029 165.840384 
L 91.134558 162.888605 
L 89.029341 161.262516 
L 86.987763 159.538888 
L 84.996439 157.697112 
L 83.083624 155.745662 
L 81.245595 153.669091 
L 79.497955 151.467781 
L 77.849826 149.137293 
L 76.314759 146.679294 
L 74.900267 144.093133 
L 73.832727 141.868517 
L 73.832727 141.868517 
" style="fill:none;stroke:#ffffff;stroke-linecap:square;"/>
   </g>
   <g id="line2d_16">
    <path clip-path="url(#pbd8bd703b7)" d="M 397.086332 244.07055 
L 397.639976 241.273094 
L 398.048817 238.500276 
L 398.321428 235.746679 
L 398.463501 233.0349 
L 398.487273 230.339159 
L 398.203939 225.067508 
L 397.543911 219.931585 
L 396.574431 214.94029 
L 395.361864 210.10077 
L 393.966129 205.386106 
L 391.653791 198.543956 
L 387.589864 187.587458 
L 382.547342 174.64882 
L 378.124591 163.778402 
L 375.168323 157.149128 
L 372.986491 152.713711 
L 370.606405 148.312658 
L 367.988747 143.95977 
L 365.12759 139.71756 
L 361.990096 135.598622 
L 358.553765 131.641906 
L 354.829918 127.922246 
L 350.87957 124.502856 
L 346.743438 121.378196 
L 342.442787 118.530456 
L 338.014529 115.953105 
L 333.464807 113.626053 
L 328.807174 111.554079 
L 324.019005 109.730071 
L 319.13275 108.182699 
L 314.135487 106.915152 
L 309.025985 105.936633 
L 303.80292 105.278385 
L 298.47356 104.98545 
L 295.787008 104.993098 
L 293.077427 105.112704 
L 290.371127 105.352727 
L 287.659854 105.719093 
L 284.956526 106.218591 
L 282.303287 106.846853 
L 279.728277 107.585831 
L 274.749811 109.355106 
L 270.012595 111.424132 
L 265.508474 113.699606 
L 261.202507 116.106132 
L 253.187834 120.942668 
L 247.567559 124.286607 
L 243.942743 126.264339 
L 240.304238 128.014245 
L 236.520404 129.571144 
L 232.593486 130.949677 
L 228.550372 132.164355 
L 224.391678 133.227061 
L 217.925296 134.595054 
L 206.233158 136.942431 
L 201.315796 138.195581 
L 196.369427 139.778877 
L 191.57537 141.67182 
L 186.949556 143.82795 
L 182.477635 146.209858 
L 178.168058 148.77334 
L 174.054068 151.450586 
L 164.8776 157.64084 
L 161.515135 159.637539 
L 158.223815 161.262814 
L 154.799051 162.541699 
L 151.190494 163.477933 
L 147.485065 164.050594 
L 143.763093 164.252373 
L 140.095832 164.082223 
L 136.397978 163.519577 
L 132.614104 162.592908 
L 128.721086 161.338215 
L 124.710218 159.809445 
L 118.565112 157.198011 
L 112.667523 154.449787 
L 108.970293 152.518003 
L 105.5164 150.485031 
L 102.314655 148.317211 
L 99.404208 146.005522 
L 96.779136 143.508299 
L 94.437089 140.784037 
L 92.381305 137.780631 
L 91.458688 136.147141 
L 90.391149 133.922526 
L 90.391149 133.922526 
" style="fill:none;stroke:#ffffff;stroke-linecap:square;"/>
   </g>
   <g id="patch_3">
    <path d="M 57.6 307.584 
L 57.6 41.472 
" style="fill:none;stroke:#000000;stroke-linecap:square;stroke-linejoin:miter;stroke-width:0.8;"/>
   </g>
   <g id="patch_4">
    <path d="M 414.72 307.584 
L 414.72 41.472 
" style="fill:none;stroke:#000000;stroke-linecap:square;stroke-linejoin:miter;stroke-width:0.8;"/>
   </g>
   <g id="patch_5">
    <path d="M 57.6 307.584 
L 414.72 307.584 
" style="fill:none;stroke:#000000;stroke-linecap:square;stroke-linejoin:miter;stroke-width:0.8;"/>
   </g>
   <g id="patch_6">
    <path d="M 57.6 41.472 
L 414.72 41.472 
" style="fill:none;stroke:#000000;stroke-linecap:square;stroke-linejoin:miter;stroke-width:0.8;"/>
   </g>
  </g>
 </g>
 <defs>
  <clipPath id="pbd8bd703b7">
   <rect height="266.112" width="357.12" x="57.6" y="41.472"/>
  </clipPath>
 </defs>
</svg>
