<?xml version="1.0" encoding="utf-8" standalone="no"?>
<!DOCTYPE svg PUBLIC "-//W3C//DTD SVG 1.1//EN"
  "http://www.w3.org/Graphics/SVG/1.1/DTD/svg11.dtd">
<!-- Created with matplotlib (https://matplotlib.org/) -->
<svg height="345.6pt" version="1.1" viewBox="0 0 460.8 345.6" width="460.8pt" xmlns="http://www.w3.org/2000/svg" xmlns:xlink="http://www.w3.org/1999/xlink">
 <metadata>
  <rdf:RDF xmlns:cc="http://creativecommons.org/ns#" xmlns:dc="http://purl.org/dc/elements/1.1/" xmlns:rdf="http://www.w3.org/1999/02/22-rdf-syntax-ns#">
   <cc:Work>
    <dc:type rdf:resource="http://purl.org/dc/dcmitype/StillImage"/>
    <dc:date>2021-01-25T09:48:13.896738</dc:date>
    <dc:format>image/svg+xml</dc:format>
    <dc:creator>
     <cc:Agent>
      <dc:title>Matplotlib v3.3.3, https://matplotlib.org/</dc:title>
     </cc:Agent>
    </dc:creator>
   </cc:Work>
  </rdf:RDF>
 </metadata>
 <defs>
  <style type="text/css">*{stroke-linecap:butt;stroke-linejoin:round;}</style>
 </defs>
 <g id="figure_1">
  <g id="patch_1">
   <path d="M 0 345.6 
L 460.8 345.6 
L 460.8 0 
L 0 0 
z
" style="fill:#ffffff;"/>
  </g>
  <g id="axes_1">
   <g id="patch_2">
    <path d="M 57.6 307.584 
L 414.72 307.584 
L 414.72 41.472 
L 57.6 41.472 
z
" style="fill:#7d9051;"/>
   </g>
   <g id="matplotlib.axis_1">
    <g id="xtick_1">
     <g id="line2d_1">
      <defs>
       <path d="M 0 0 
L 0 3.5 
" id="mcd9b4f4b5c" style="stroke:#000000;stroke-width:0.8;"/>
      </defs>
      <g>
       <use style="stroke:#000000;stroke-width:0.8;" x="70.559086" xlink:href="#mcd9b4f4b5c" y="307.584"/>
      </g>
     </g>
     <g id="text_1">
      <!-- −20 -->
      <g transform="translate(60.006742 322.182437)scale(0.1 -0.1)">
       <defs>
        <path d="M 10.59375 35.5 
L 73.1875 35.5 
L 73.1875 27.203125 
L 10.59375 27.203125 
z
" id="DejaVuSans-8722"/>
        <path d="M 19.1875 8.296875 
L 53.609375 8.296875 
L 53.609375 0 
L 7.328125 0 
L 7.328125 8.296875 
Q 12.9375 14.109375 22.625 23.890625 
Q 32.328125 33.6875 34.8125 36.53125 
Q 39.546875 41.84375 41.421875 45.53125 
Q 43.3125 49.21875 43.3125 52.78125 
Q 43.3125 58.59375 39.234375 62.25 
Q 35.15625 65.921875 28.609375 65.921875 
Q 23.96875 65.921875 18.8125 64.3125 
Q 13.671875 62.703125 7.8125 59.421875 
L 7.8125 69.390625 
Q 13.765625 71.78125 18.9375 73 
Q 24.125 74.21875 28.421875 74.21875 
Q 39.75 74.21875 46.484375 68.546875 
Q 53.21875 62.890625 53.21875 53.421875 
Q 53.21875 48.921875 51.53125 44.890625 
Q 49.859375 40.875 45.40625 35.40625 
Q 44.1875 33.984375 37.640625 27.21875 
Q 31.109375 20.453125 19.1875 8.296875 
z
" id="DejaVuSans-50"/>
        <path d="M 31.78125 66.40625 
Q 24.171875 66.40625 20.328125 58.90625 
Q 16.5 51.421875 16.5 36.375 
Q 16.5 21.390625 20.328125 13.890625 
Q 24.171875 6.390625 31.78125 6.390625 
Q 39.453125 6.390625 43.28125 13.890625 
Q 47.125 21.390625 47.125 36.375 
Q 47.125 51.421875 43.28125 58.90625 
Q 39.453125 66.40625 31.78125 66.40625 
z
M 31.78125 74.21875 
Q 44.046875 74.21875 50.515625 64.515625 
Q 56.984375 54.828125 56.984375 36.375 
Q 56.984375 17.96875 50.515625 8.265625 
Q 44.046875 -1.421875 31.78125 -1.421875 
Q 19.53125 -1.421875 13.0625 8.265625 
Q 6.59375 17.96875 6.59375 36.375 
Q 6.59375 54.828125 13.0625 64.515625 
Q 19.53125 74.21875 31.78125 74.21875 
z
" id="DejaVuSans-48"/>
       </defs>
       <use xlink:href="#DejaVuSans-8722"/>
       <use x="83.789062" xlink:href="#DejaVuSans-50"/>
       <use x="147.412109" xlink:href="#DejaVuSans-48"/>
      </g>
     </g>
    </g>
    <g id="xtick_2">
     <g id="line2d_2">
      <g>
       <use style="stroke:#000000;stroke-width:0.8;" x="119.443924" xlink:href="#mcd9b4f4b5c" y="307.584"/>
      </g>
     </g>
     <g id="text_2">
      <!-- 0 -->
      <g transform="translate(116.262674 322.182437)scale(0.1 -0.1)">
       <use xlink:href="#DejaVuSans-48"/>
      </g>
     </g>
    </g>
    <g id="xtick_3">
     <g id="line2d_3">
      <g>
       <use style="stroke:#000000;stroke-width:0.8;" x="168.328762" xlink:href="#mcd9b4f4b5c" y="307.584"/>
      </g>
     </g>
     <g id="text_3">
      <!-- 20 -->
      <g transform="translate(161.966262 322.182437)scale(0.1 -0.1)">
       <use xlink:href="#DejaVuSans-50"/>
       <use x="63.623047" xlink:href="#DejaVuSans-48"/>
      </g>
     </g>
    </g>
    <g id="xtick_4">
     <g id="line2d_4">
      <g>
       <use style="stroke:#000000;stroke-width:0.8;" x="217.213601" xlink:href="#mcd9b4f4b5c" y="307.584"/>
      </g>
     </g>
     <g id="text_4">
      <!-- 40 -->
      <g transform="translate(210.851101 322.182437)scale(0.1 -0.1)">
       <defs>
        <path d="M 37.796875 64.3125 
L 12.890625 25.390625 
L 37.796875 25.390625 
z
M 35.203125 72.90625 
L 47.609375 72.90625 
L 47.609375 25.390625 
L 58.015625 25.390625 
L 58.015625 17.1875 
L 47.609375 17.1875 
L 47.609375 0 
L 37.796875 0 
L 37.796875 17.1875 
L 4.890625 17.1875 
L 4.890625 26.703125 
z
" id="DejaVuSans-52"/>
       </defs>
       <use xlink:href="#DejaVuSans-52"/>
       <use x="63.623047" xlink:href="#DejaVuSans-48"/>
      </g>
     </g>
    </g>
    <g id="xtick_5">
     <g id="line2d_5">
      <g>
       <use style="stroke:#000000;stroke-width:0.8;" x="266.098439" xlink:href="#mcd9b4f4b5c" y="307.584"/>
      </g>
     </g>
     <g id="text_5">
      <!-- 60 -->
      <g transform="translate(259.735939 322.182437)scale(0.1 -0.1)">
       <defs>
        <path d="M 33.015625 40.375 
Q 26.375 40.375 22.484375 35.828125 
Q 18.609375 31.296875 18.609375 23.390625 
Q 18.609375 15.53125 22.484375 10.953125 
Q 26.375 6.390625 33.015625 6.390625 
Q 39.65625 6.390625 43.53125 10.953125 
Q 47.40625 15.53125 47.40625 23.390625 
Q 47.40625 31.296875 43.53125 35.828125 
Q 39.65625 40.375 33.015625 40.375 
z
M 52.59375 71.296875 
L 52.59375 62.3125 
Q 48.875 64.0625 45.09375 64.984375 
Q 41.3125 65.921875 37.59375 65.921875 
Q 27.828125 65.921875 22.671875 59.328125 
Q 17.53125 52.734375 16.796875 39.40625 
Q 19.671875 43.65625 24.015625 45.921875 
Q 28.375 48.1875 33.59375 48.1875 
Q 44.578125 48.1875 50.953125 41.515625 
Q 57.328125 34.859375 57.328125 23.390625 
Q 57.328125 12.15625 50.6875 5.359375 
Q 44.046875 -1.421875 33.015625 -1.421875 
Q 20.359375 -1.421875 13.671875 8.265625 
Q 6.984375 17.96875 6.984375 36.375 
Q 6.984375 53.65625 15.1875 63.9375 
Q 23.390625 74.21875 37.203125 74.21875 
Q 40.921875 74.21875 44.703125 73.484375 
Q 48.484375 72.75 52.59375 71.296875 
z
" id="DejaVuSans-54"/>
       </defs>
       <use xlink:href="#DejaVuSans-54"/>
       <use x="63.623047" xlink:href="#DejaVuSans-48"/>
      </g>
     </g>
    </g>
    <g id="xtick_6">
     <g id="line2d_6">
      <g>
       <use style="stroke:#000000;stroke-width:0.8;" x="314.983278" xlink:href="#mcd9b4f4b5c" y="307.584"/>
      </g>
     </g>
     <g id="text_6">
      <!-- 80 -->
      <g transform="translate(308.620778 322.182437)scale(0.1 -0.1)">
       <defs>
        <path d="M 31.78125 34.625 
Q 24.75 34.625 20.71875 30.859375 
Q 16.703125 27.09375 16.703125 20.515625 
Q 16.703125 13.921875 20.71875 10.15625 
Q 24.75 6.390625 31.78125 6.390625 
Q 38.8125 6.390625 42.859375 10.171875 
Q 46.921875 13.96875 46.921875 20.515625 
Q 46.921875 27.09375 42.890625 30.859375 
Q 38.875 34.625 31.78125 34.625 
z
M 21.921875 38.8125 
Q 15.578125 40.375 12.03125 44.71875 
Q 8.5 49.078125 8.5 55.328125 
Q 8.5 64.0625 14.71875 69.140625 
Q 20.953125 74.21875 31.78125 74.21875 
Q 42.671875 74.21875 48.875 69.140625 
Q 55.078125 64.0625 55.078125 55.328125 
Q 55.078125 49.078125 51.53125 44.71875 
Q 48 40.375 41.703125 38.8125 
Q 48.828125 37.15625 52.796875 32.3125 
Q 56.78125 27.484375 56.78125 20.515625 
Q 56.78125 9.90625 50.3125 4.234375 
Q 43.84375 -1.421875 31.78125 -1.421875 
Q 19.734375 -1.421875 13.25 4.234375 
Q 6.78125 9.90625 6.78125 20.515625 
Q 6.78125 27.484375 10.78125 32.3125 
Q 14.796875 37.15625 21.921875 38.8125 
z
M 18.3125 54.390625 
Q 18.3125 48.734375 21.84375 45.5625 
Q 25.390625 42.390625 31.78125 42.390625 
Q 38.140625 42.390625 41.71875 45.5625 
Q 45.3125 48.734375 45.3125 54.390625 
Q 45.3125 60.0625 41.71875 63.234375 
Q 38.140625 66.40625 31.78125 66.40625 
Q 25.390625 66.40625 21.84375 63.234375 
Q 18.3125 60.0625 18.3125 54.390625 
z
" id="DejaVuSans-56"/>
       </defs>
       <use xlink:href="#DejaVuSans-56"/>
       <use x="63.623047" xlink:href="#DejaVuSans-48"/>
      </g>
     </g>
    </g>
    <g id="xtick_7">
     <g id="line2d_7">
      <g>
       <use style="stroke:#000000;stroke-width:0.8;" x="363.868116" xlink:href="#mcd9b4f4b5c" y="307.584"/>
      </g>
     </g>
     <g id="text_7">
      <!-- 100 -->
      <g transform="translate(354.324366 322.182437)scale(0.1 -0.1)">
       <defs>
        <path d="M 12.40625 8.296875 
L 28.515625 8.296875 
L 28.515625 63.921875 
L 10.984375 60.40625 
L 10.984375 69.390625 
L 28.421875 72.90625 
L 38.28125 72.90625 
L 38.28125 8.296875 
L 54.390625 8.296875 
L 54.390625 0 
L 12.40625 0 
z
" id="DejaVuSans-49"/>
       </defs>
       <use xlink:href="#DejaVuSans-49"/>
       <use x="63.623047" xlink:href="#DejaVuSans-48"/>
       <use x="127.246094" xlink:href="#DejaVuSans-48"/>
      </g>
     </g>
    </g>
    <g id="xtick_8">
     <g id="line2d_8">
      <g>
       <use style="stroke:#000000;stroke-width:0.8;" x="412.752954" xlink:href="#mcd9b4f4b5c" y="307.584"/>
      </g>
     </g>
     <g id="text_8">
      <!-- 120 -->
      <g transform="translate(403.209204 322.182437)scale(0.1 -0.1)">
       <use xlink:href="#DejaVuSans-49"/>
       <use x="63.623047" xlink:href="#DejaVuSans-50"/>
       <use x="127.246094" xlink:href="#DejaVuSans-48"/>
      </g>
     </g>
    </g>
   </g>
   <g id="matplotlib.axis_2">
    <g id="ytick_1">
     <g id="line2d_9">
      <defs>
       <path d="M 0 0 
L -3.5 0 
" id="m7576fcc78f" style="stroke:#000000;stroke-width:0.8;"/>
      </defs>
      <g>
       <use style="stroke:#000000;stroke-width:0.8;" x="57.6" xlink:href="#m7576fcc78f" y="268.616344"/>
      </g>
     </g>
     <g id="text_9">
      <!-- 20 -->
      <g transform="translate(37.875 272.415563)scale(0.1 -0.1)">
       <use xlink:href="#DejaVuSans-50"/>
       <use x="63.623047" xlink:href="#DejaVuSans-48"/>
      </g>
     </g>
    </g>
    <g id="ytick_2">
     <g id="line2d_10">
      <g>
       <use style="stroke:#000000;stroke-width:0.8;" x="57.6" xlink:href="#m7576fcc78f" y="219.731506"/>
      </g>
     </g>
     <g id="text_10">
      <!-- 40 -->
      <g transform="translate(37.875 223.530724)scale(0.1 -0.1)">
       <use xlink:href="#DejaVuSans-52"/>
       <use x="63.623047" xlink:href="#DejaVuSans-48"/>
      </g>
     </g>
    </g>
    <g id="ytick_3">
     <g id="line2d_11">
      <g>
       <use style="stroke:#000000;stroke-width:0.8;" x="57.6" xlink:href="#m7576fcc78f" y="170.846667"/>
      </g>
     </g>
     <g id="text_11">
      <!-- 60 -->
      <g transform="translate(37.875 174.645886)scale(0.1 -0.1)">
       <use xlink:href="#DejaVuSans-54"/>
       <use x="63.623047" xlink:href="#DejaVuSans-48"/>
      </g>
     </g>
    </g>
    <g id="ytick_4">
     <g id="line2d_12">
      <g>
       <use style="stroke:#000000;stroke-width:0.8;" x="57.6" xlink:href="#m7576fcc78f" y="121.961829"/>
      </g>
     </g>
     <g id="text_12">
      <!-- 80 -->
      <g transform="translate(37.875 125.761048)scale(0.1 -0.1)">
       <use xlink:href="#DejaVuSans-56"/>
       <use x="63.623047" xlink:href="#DejaVuSans-48"/>
      </g>
     </g>
    </g>
    <g id="ytick_5">
     <g id="line2d_13">
      <g>
       <use style="stroke:#000000;stroke-width:0.8;" x="57.6" xlink:href="#m7576fcc78f" y="73.076991"/>
      </g>
     </g>
     <g id="text_13">
      <!-- 100 -->
      <g transform="translate(31.5125 76.876209)scale(0.1 -0.1)">
       <use xlink:href="#DejaVuSans-49"/>
       <use x="63.623047" xlink:href="#DejaVuSans-48"/>
       <use x="127.246094" xlink:href="#DejaVuSans-48"/>
      </g>
     </g>
    </g>
   </g>
   <g id="line2d_14">
    <path clip-path="url(#p29d1569cb4)" d="M 327.426913 293.058763 
L 328.077082 290.524084 
L 328.563486 288.011404 
L 328.893458 285.515833 
L 329.074332 283.04226 
L 329.11344 280.588241 
L 329.018115 278.153776 
L 328.798133 275.738865 
L 328.455939 273.345952 
L 327.446467 268.616344 
L 326.048361 263.967396 
L 324.32517 259.396664 
L 322.333113 254.906591 
L 320.133295 250.497179 
L 316.574479 244.02727 
L 312.812791 237.723571 
L 308.877561 231.549415 
L 304.781012 225.468142 
L 300.518254 219.477305 
L 297.538723 215.586071 
L 294.405205 211.824383 
L 291.085924 208.236236 
L 287.541774 204.858294 
L 283.772753 201.722331 
L 279.795971 198.838126 
L 275.64076 196.21301 
L 271.326673 193.861649 
L 266.880597 191.793821 
L 262.322085 189.999747 
L 257.673137 188.454986 
L 252.950862 187.135095 
L 248.179702 186.015633 
L 243.376766 185.072155 
L 236.14181 183.898919 
L 214.366059 180.684741 
L 207.160434 179.286635 
L 202.394162 178.196503 
L 197.669442 176.954828 
L 192.996052 175.549389 
L 188.37399 173.975297 
L 183.805702 172.227664 
L 179.296076 170.311378 
L 174.842667 168.221552 
L 170.457697 165.950851 
L 166.199828 163.460168 
L 162.127721 160.703063 
L 158.312259 157.633096 
L 156.52063 155.968567 
L 154.814549 154.208713 
L 153.206238 152.348644 
L 151.69814 150.395695 
L 150.295146 148.357197 
L 149.004586 146.240484 
L 147.83135 144.052887 
L 146.777881 141.804185 
L 145.851514 139.501709 
L 145.057135 137.152792 
L 144.402078 134.764768 
L 143.886343 132.344969 
L 143.517263 129.900727 
L 143.292392 127.441819 
L 143.211732 124.973135 
L 143.265506 122.502006 
L 143.456157 120.035766 
L 143.781241 117.581747 
L 144.233426 115.147282 
L 144.812711 112.73726 
L 145.514208 110.361457 
L 146.337918 108.024761 
L 147.278951 105.736951 
L 148.332419 103.498025 
L 149.49099 101.315317 
L 150.754663 99.191271 
L 152.11855 97.130775 
L 153.572874 95.136274 
L 155.115191 93.2151 
L 158.449137 89.597622 
L 162.076392 86.312561 
L 165.955404 83.345251 
L 170.037288 80.646808 
L 174.270715 78.161014 
L 180.804173 74.719521 
L 187.44029 71.512676 
L 191.930362 69.554838 
L 196.488874 67.790095 
L 201.130489 66.272221 
L 205.869874 65.040323 
L 210.70214 64.128621 
L 215.590624 63.559112 
L 220.505995 63.344019 
L 225.414032 63.505339 
L 230.285407 64.057738 
L 235.09323 64.998771 
L 239.825283 66.301552 
L 244.459566 67.941638 
L 248.983857 69.892143 
L 253.383493 72.131069 
L 257.641362 74.62664 
L 261.740356 77.356858 
L 265.665808 80.294837 
L 269.403054 83.416134 
L 271.197128 85.036666 
L 271.197128 85.036666 
" style="fill:none;stroke:#fea952;stroke-linecap:square;"/>
   </g>
   <g id="line2d_15">
    <path clip-path="url(#p29d1569cb4)" d="M 317.956543 290.629527 
L 318.478308 288.665956 
L 318.870879 286.729815 
L 319.142525 284.80282 
L 319.343959 280.970781 
L 319.119627 277.122921 
L 318.489805 273.222673 
L 317.482333 269.270435 
L 316.132222 265.266253 
L 314.467974 261.213681 
L 312.549539 257.141885 
L 310.415787 253.045212 
L 306.943562 246.919212 
L 303.279415 240.912542 
L 299.422107 234.979447 
L 294.061295 227.217649 
L 289.953967 221.755397 
L 287.135128 218.36159 
L 284.221559 215.198246 
L 281.164565 212.269117 
L 277.906572 209.543905 
L 274.444745 207.020636 
L 270.826728 204.722663 
L 267.059807 202.658407 
L 263.163907 200.836791 
L 259.113554 199.235245 
L 254.934464 197.840548 
L 250.627858 196.632082 
L 246.217239 195.59362 
L 239.414223 194.306712 
L 232.372211 193.232736 
L 215.128469 190.73454 
L 207.572661 189.356545 
L 199.988399 187.672863 
L 194.935654 186.341814 
L 189.921931 184.830492 
L 184.961436 183.137369 
L 180.065449 181.260914 
L 175.221787 179.198969 
L 170.439333 176.950798 
L 165.645593 174.461594 
L 160.868764 171.655829 
L 156.169897 168.455059 
L 153.887155 166.688397 
L 151.657637 164.795853 
L 149.500855 162.773848 
L 147.418831 160.603433 
L 145.467953 158.324266 
L 143.644328 155.938727 
L 141.947399 153.446817 
L 140.388532 150.861384 
L 138.977783 148.200591 
L 137.707518 145.453514 
L 136.589849 142.633906 
L 135.628467 139.739162 
L 134.83988 136.802772 
L 134.218967 133.804742 
L 133.780924 130.791127 
L 133.520639 127.761094 
L 133.437079 124.760432 
L 133.517621 121.748453 
L 133.763861 118.751827 
L 134.168686 115.796283 
L 134.727215 112.862321 
L 135.435949 109.968607 
L 136.293377 107.111017 
L 137.29597 104.305584 
L 138.432349 101.574412 
L 139.696598 98.914174 
L 141.088598 96.316426 
L 142.601924 93.794796 
L 144.218686 91.370458 
L 145.948766 89.015647 
L 147.778955 86.752225 
L 149.704467 84.581431 
L 151.728597 82.496675 
L 153.826426 80.524224 
L 155.990271 78.660879 
L 160.442219 75.270977 
L 164.988458 72.274328 
L 169.590353 69.577115 
L 176.443439 65.968916 
L 183.450489 62.586838 
L 188.292545 60.479851 
L 193.317965 58.541612 
L 198.511728 56.852498 
L 203.8964 55.464599 
L 209.401077 54.438609 
L 214.97894 53.801298 
L 220.642178 53.568 
L 226.319384 53.77038 
L 229.156188 54.042219 
L 231.973367 54.427583 
L 237.519478 55.527635 
L 242.928703 57.030205 
L 248.184095 58.901894 
L 253.282515 61.110877 
L 258.202928 63.624475 
L 262.945473 66.41351 
L 267.489156 69.44861 
L 271.832935 72.708293 
L 275.956597 76.160779 
L 277.750671 77.781311 
L 277.750671 77.781311 
" style="fill:none;stroke:#ffffff;stroke-linecap:square;"/>
   </g>
   <g id="line2d_16">
    <path clip-path="url(#p29d1569cb4)" d="M 336.897283 295.488 
L 337.675855 292.382213 
L 338.256093 289.292992 
L 338.644392 286.228846 
L 338.850059 283.198048 
L 338.882921 280.205701 
L 338.754769 277.266834 
L 338.476639 274.354809 
L 338.060491 271.517925 
L 337.517704 268.717625 
L 336.859798 265.974697 
L 335.25063 260.664771 
L 333.308595 255.538273 
L 331.123977 250.627595 
L 328.764854 245.905306 
L 325.020325 239.102153 
L 321.108036 232.548824 
L 317.027511 226.148729 
L 312.806179 219.883718 
L 308.332807 213.601774 
L 305.123479 209.416746 
L 301.675282 205.287176 
L 297.95029 201.274226 
L 293.918982 197.44747 
L 289.638933 193.900757 
L 285.147197 190.655615 
L 280.454792 187.703357 
L 275.593539 185.064891 
L 270.597287 182.75085 
L 265.530616 180.764249 
L 260.411811 179.069425 
L 255.273866 177.638109 
L 250.142164 176.437645 
L 245.049074 175.43927 
L 237.539533 174.222377 
L 216.114157 171.065321 
L 209.271009 169.740192 
L 202.5899 168.1605 
L 198.225128 166.935062 
L 193.9083 165.553672 
L 189.657499 164.021855 
L 185.451302 162.328921 
L 181.294099 160.473685 
L 177.22582 158.475729 
L 173.369321 156.370397 
L 169.76708 154.125156 
L 166.481942 151.730866 
L 163.540404 149.163285 
L 160.944522 146.373023 
L 158.642892 143.267578 
L 156.684917 139.905184 
L 155.113179 136.369512 
L 154.485804 134.566423 
L 153.553719 130.885195 
L 153.253601 129.010326 
L 153.064146 127.122544 
L 153.01339 123.255559 
L 153.393796 119.367212 
L 154.189473 115.505913 
L 155.379866 111.743939 
L 156.96824 108.081877 
L 158.907402 104.587746 
L 161.196982 101.2569 
L 163.781644 98.153074 
L 166.630663 95.302854 
L 169.780131 92.668654 
L 173.24355 90.202267 
L 176.988673 87.868877 
L 180.977804 85.638496 
L 187.265663 82.422515 
L 193.502181 79.510499 
L 197.619755 77.804451 
L 201.704877 76.333209 
L 205.786845 75.119722 
L 209.928867 74.180631 
L 214.102801 73.530686 
L 218.289979 73.179075 
L 222.456256 73.142093 
L 226.560361 73.423088 
L 230.630672 74.036521 
L 234.706089 74.985832 
L 238.735565 76.240904 
L 242.721847 77.79442 
L 246.632044 79.621211 
L 250.464777 81.709673 
L 254.176823 84.023104 
L 257.760268 86.546142 
L 261.193279 89.254462 
L 264.643585 92.292021 
L 264.643585 92.292021 
" style="fill:none;stroke:#ffffff;stroke-linecap:square;"/>
   </g>
   <g id="patch_3">
    <path d="M 57.6 307.584 
L 57.6 41.472 
" style="fill:none;stroke:#000000;stroke-linecap:square;stroke-linejoin:miter;stroke-width:0.8;"/>
   </g>
   <g id="patch_4">
    <path d="M 414.72 307.584 
L 414.72 41.472 
" style="fill:none;stroke:#000000;stroke-linecap:square;stroke-linejoin:miter;stroke-width:0.8;"/>
   </g>
   <g id="patch_5">
    <path d="M 57.6 307.584 
L 414.72 307.584 
" style="fill:none;stroke:#000000;stroke-linecap:square;stroke-linejoin:miter;stroke-width:0.8;"/>
   </g>
   <g id="patch_6">
    <path d="M 57.6 41.472 
L 414.72 41.472 
" style="fill:none;stroke:#000000;stroke-linecap:square;stroke-linejoin:miter;stroke-width:0.8;"/>
   </g>
  </g>
 </g>
 <defs>
  <clipPath id="p29d1569cb4">
   <rect height="266.112" width="357.12" x="57.6" y="41.472"/>
  </clipPath>
 </defs>
</svg>
