<?xml version="1.0" encoding="utf-8" standalone="no"?>
<!DOCTYPE svg PUBLIC "-//W3C//DTD SVG 1.1//EN"
  "http://www.w3.org/Graphics/SVG/1.1/DTD/svg11.dtd">
<!-- Created with matplotlib (https://matplotlib.org/) -->
<svg height="345.6pt" version="1.1" viewBox="0 0 460.8 345.6" width="460.8pt" xmlns="http://www.w3.org/2000/svg" xmlns:xlink="http://www.w3.org/1999/xlink">
 <metadata>
  <rdf:RDF xmlns:cc="http://creativecommons.org/ns#" xmlns:dc="http://purl.org/dc/elements/1.1/" xmlns:rdf="http://www.w3.org/1999/02/22-rdf-syntax-ns#">
   <cc:Work>
    <dc:type rdf:resource="http://purl.org/dc/dcmitype/StillImage"/>
    <dc:date>2021-01-22T09:55:59.185754</dc:date>
    <dc:format>image/svg+xml</dc:format>
    <dc:creator>
     <cc:Agent>
      <dc:title>Matplotlib v3.3.3, https://matplotlib.org/</dc:title>
     </cc:Agent>
    </dc:creator>
   </cc:Work>
  </rdf:RDF>
 </metadata>
 <defs>
  <style type="text/css">*{stroke-linecap:butt;stroke-linejoin:round;}</style>
 </defs>
 <g id="figure_1">
  <g id="patch_1">
   <path d="M 0 345.6 
L 460.8 345.6 
L 460.8 0 
L 0 0 
z
" style="fill:#ffffff;"/>
  </g>
  <g id="axes_1">
   <g id="patch_2">
    <path d="M 57.6 307.584 
L 414.72 307.584 
L 414.72 41.472 
L 57.6 41.472 
z
" style="fill:#7d9051;"/>
   </g>
   <g id="matplotlib.axis_1">
    <g id="xtick_1">
     <g id="line2d_1">
      <defs>
       <path d="M 0 0 
L 0 3.5 
" id="ma23fb1c6d9" style="stroke:#000000;stroke-width:0.8;"/>
      </defs>
      <g>
       <use style="stroke:#000000;stroke-width:0.8;" x="87.459905" xlink:href="#ma23fb1c6d9" y="307.584"/>
      </g>
     </g>
     <g id="text_1">
      <!-- 0 -->
      <g transform="translate(84.278655 322.182437)scale(0.1 -0.1)">
       <defs>
        <path d="M 31.78125 66.40625 
Q 24.171875 66.40625 20.328125 58.90625 
Q 16.5 51.421875 16.5 36.375 
Q 16.5 21.390625 20.328125 13.890625 
Q 24.171875 6.390625 31.78125 6.390625 
Q 39.453125 6.390625 43.28125 13.890625 
Q 47.125 21.390625 47.125 36.375 
Q 47.125 51.421875 43.28125 58.90625 
Q 39.453125 66.40625 31.78125 66.40625 
z
M 31.78125 74.21875 
Q 44.046875 74.21875 50.515625 64.515625 
Q 56.984375 54.828125 56.984375 36.375 
Q 56.984375 17.96875 50.515625 8.265625 
Q 44.046875 -1.421875 31.78125 -1.421875 
Q 19.53125 -1.421875 13.0625 8.265625 
Q 6.59375 17.96875 6.59375 36.375 
Q 6.59375 54.828125 13.0625 64.515625 
Q 19.53125 74.21875 31.78125 74.21875 
z
" id="DejaVuSans-48"/>
       </defs>
       <use xlink:href="#DejaVuSans-48"/>
      </g>
     </g>
    </g>
    <g id="xtick_2">
     <g id="line2d_2">
      <g>
       <use style="stroke:#000000;stroke-width:0.8;" x="146.980263" xlink:href="#ma23fb1c6d9" y="307.584"/>
      </g>
     </g>
     <g id="text_2">
      <!-- 20 -->
      <g transform="translate(140.617763 322.182437)scale(0.1 -0.1)">
       <defs>
        <path d="M 19.1875 8.296875 
L 53.609375 8.296875 
L 53.609375 0 
L 7.328125 0 
L 7.328125 8.296875 
Q 12.9375 14.109375 22.625 23.890625 
Q 32.328125 33.6875 34.8125 36.53125 
Q 39.546875 41.84375 41.421875 45.53125 
Q 43.3125 49.21875 43.3125 52.78125 
Q 43.3125 58.59375 39.234375 62.25 
Q 35.15625 65.921875 28.609375 65.921875 
Q 23.96875 65.921875 18.8125 64.3125 
Q 13.671875 62.703125 7.8125 59.421875 
L 7.8125 69.390625 
Q 13.765625 71.78125 18.9375 73 
Q 24.125 74.21875 28.421875 74.21875 
Q 39.75 74.21875 46.484375 68.546875 
Q 53.21875 62.890625 53.21875 53.421875 
Q 53.21875 48.921875 51.53125 44.890625 
Q 49.859375 40.875 45.40625 35.40625 
Q 44.1875 33.984375 37.640625 27.21875 
Q 31.109375 20.453125 19.1875 8.296875 
z
" id="DejaVuSans-50"/>
       </defs>
       <use xlink:href="#DejaVuSans-50"/>
       <use x="63.623047" xlink:href="#DejaVuSans-48"/>
      </g>
     </g>
    </g>
    <g id="xtick_3">
     <g id="line2d_3">
      <g>
       <use style="stroke:#000000;stroke-width:0.8;" x="206.500622" xlink:href="#ma23fb1c6d9" y="307.584"/>
      </g>
     </g>
     <g id="text_3">
      <!-- 40 -->
      <g transform="translate(200.138122 322.182437)scale(0.1 -0.1)">
       <defs>
        <path d="M 37.796875 64.3125 
L 12.890625 25.390625 
L 37.796875 25.390625 
z
M 35.203125 72.90625 
L 47.609375 72.90625 
L 47.609375 25.390625 
L 58.015625 25.390625 
L 58.015625 17.1875 
L 47.609375 17.1875 
L 47.609375 0 
L 37.796875 0 
L 37.796875 17.1875 
L 4.890625 17.1875 
L 4.890625 26.703125 
z
" id="DejaVuSans-52"/>
       </defs>
       <use xlink:href="#DejaVuSans-52"/>
       <use x="63.623047" xlink:href="#DejaVuSans-48"/>
      </g>
     </g>
    </g>
    <g id="xtick_4">
     <g id="line2d_4">
      <g>
       <use style="stroke:#000000;stroke-width:0.8;" x="266.020981" xlink:href="#ma23fb1c6d9" y="307.584"/>
      </g>
     </g>
     <g id="text_4">
      <!-- 60 -->
      <g transform="translate(259.658481 322.182437)scale(0.1 -0.1)">
       <defs>
        <path d="M 33.015625 40.375 
Q 26.375 40.375 22.484375 35.828125 
Q 18.609375 31.296875 18.609375 23.390625 
Q 18.609375 15.53125 22.484375 10.953125 
Q 26.375 6.390625 33.015625 6.390625 
Q 39.65625 6.390625 43.53125 10.953125 
Q 47.40625 15.53125 47.40625 23.390625 
Q 47.40625 31.296875 43.53125 35.828125 
Q 39.65625 40.375 33.015625 40.375 
z
M 52.59375 71.296875 
L 52.59375 62.3125 
Q 48.875 64.0625 45.09375 64.984375 
Q 41.3125 65.921875 37.59375 65.921875 
Q 27.828125 65.921875 22.671875 59.328125 
Q 17.53125 52.734375 16.796875 39.40625 
Q 19.671875 43.65625 24.015625 45.921875 
Q 28.375 48.1875 33.59375 48.1875 
Q 44.578125 48.1875 50.953125 41.515625 
Q 57.328125 34.859375 57.328125 23.390625 
Q 57.328125 12.15625 50.6875 5.359375 
Q 44.046875 -1.421875 33.015625 -1.421875 
Q 20.359375 -1.421875 13.671875 8.265625 
Q 6.984375 17.96875 6.984375 36.375 
Q 6.984375 53.65625 15.1875 63.9375 
Q 23.390625 74.21875 37.203125 74.21875 
Q 40.921875 74.21875 44.703125 73.484375 
Q 48.484375 72.75 52.59375 71.296875 
z
" id="DejaVuSans-54"/>
       </defs>
       <use xlink:href="#DejaVuSans-54"/>
       <use x="63.623047" xlink:href="#DejaVuSans-48"/>
      </g>
     </g>
    </g>
    <g id="xtick_5">
     <g id="line2d_5">
      <g>
       <use style="stroke:#000000;stroke-width:0.8;" x="325.541339" xlink:href="#ma23fb1c6d9" y="307.584"/>
      </g>
     </g>
     <g id="text_5">
      <!-- 80 -->
      <g transform="translate(319.178839 322.182437)scale(0.1 -0.1)">
       <defs>
        <path d="M 31.78125 34.625 
Q 24.75 34.625 20.71875 30.859375 
Q 16.703125 27.09375 16.703125 20.515625 
Q 16.703125 13.921875 20.71875 10.15625 
Q 24.75 6.390625 31.78125 6.390625 
Q 38.8125 6.390625 42.859375 10.171875 
Q 46.921875 13.96875 46.921875 20.515625 
Q 46.921875 27.09375 42.890625 30.859375 
Q 38.875 34.625 31.78125 34.625 
z
M 21.921875 38.8125 
Q 15.578125 40.375 12.03125 44.71875 
Q 8.5 49.078125 8.5 55.328125 
Q 8.5 64.0625 14.71875 69.140625 
Q 20.953125 74.21875 31.78125 74.21875 
Q 42.671875 74.21875 48.875 69.140625 
Q 55.078125 64.0625 55.078125 55.328125 
Q 55.078125 49.078125 51.53125 44.71875 
Q 48 40.375 41.703125 38.8125 
Q 48.828125 37.15625 52.796875 32.3125 
Q 56.78125 27.484375 56.78125 20.515625 
Q 56.78125 9.90625 50.3125 4.234375 
Q 43.84375 -1.421875 31.78125 -1.421875 
Q 19.734375 -1.421875 13.25 4.234375 
Q 6.78125 9.90625 6.78125 20.515625 
Q 6.78125 27.484375 10.78125 32.3125 
Q 14.796875 37.15625 21.921875 38.8125 
z
M 18.3125 54.390625 
Q 18.3125 48.734375 21.84375 45.5625 
Q 25.390625 42.390625 31.78125 42.390625 
Q 38.140625 42.390625 41.71875 45.5625 
Q 45.3125 48.734375 45.3125 54.390625 
Q 45.3125 60.0625 41.71875 63.234375 
Q 38.140625 66.40625 31.78125 66.40625 
Q 25.390625 66.40625 21.84375 63.234375 
Q 18.3125 60.0625 18.3125 54.390625 
z
" id="DejaVuSans-56"/>
       </defs>
       <use xlink:href="#DejaVuSans-56"/>
       <use x="63.623047" xlink:href="#DejaVuSans-48"/>
      </g>
     </g>
    </g>
    <g id="xtick_6">
     <g id="line2d_6">
      <g>
       <use style="stroke:#000000;stroke-width:0.8;" x="385.061698" xlink:href="#ma23fb1c6d9" y="307.584"/>
      </g>
     </g>
     <g id="text_6">
      <!-- 100 -->
      <g transform="translate(375.517948 322.182437)scale(0.1 -0.1)">
       <defs>
        <path d="M 12.40625 8.296875 
L 28.515625 8.296875 
L 28.515625 63.921875 
L 10.984375 60.40625 
L 10.984375 69.390625 
L 28.421875 72.90625 
L 38.28125 72.90625 
L 38.28125 8.296875 
L 54.390625 8.296875 
L 54.390625 0 
L 12.40625 0 
z
" id="DejaVuSans-49"/>
       </defs>
       <use xlink:href="#DejaVuSans-49"/>
       <use x="63.623047" xlink:href="#DejaVuSans-48"/>
       <use x="127.246094" xlink:href="#DejaVuSans-48"/>
      </g>
     </g>
    </g>
   </g>
   <g id="matplotlib.axis_2">
    <g id="ytick_1">
     <g id="line2d_7">
      <defs>
       <path d="M 0 0 
L -3.5 0 
" id="madfc2910ba" style="stroke:#000000;stroke-width:0.8;"/>
      </defs>
      <g>
       <use style="stroke:#000000;stroke-width:0.8;" x="57.6" xlink:href="#madfc2910ba" y="283.447506"/>
      </g>
     </g>
     <g id="text_7">
      <!-- 10 -->
      <g transform="translate(37.875 287.246725)scale(0.1 -0.1)">
       <use xlink:href="#DejaVuSans-49"/>
       <use x="63.623047" xlink:href="#DejaVuSans-48"/>
      </g>
     </g>
    </g>
    <g id="ytick_2">
     <g id="line2d_8">
      <g>
       <use style="stroke:#000000;stroke-width:0.8;" x="57.6" xlink:href="#madfc2910ba" y="253.687327"/>
      </g>
     </g>
     <g id="text_8">
      <!-- 20 -->
      <g transform="translate(37.875 257.486545)scale(0.1 -0.1)">
       <use xlink:href="#DejaVuSans-50"/>
       <use x="63.623047" xlink:href="#DejaVuSans-48"/>
      </g>
     </g>
    </g>
    <g id="ytick_3">
     <g id="line2d_9">
      <g>
       <use style="stroke:#000000;stroke-width:0.8;" x="57.6" xlink:href="#madfc2910ba" y="223.927147"/>
      </g>
     </g>
     <g id="text_9">
      <!-- 30 -->
      <g transform="translate(37.875 227.726366)scale(0.1 -0.1)">
       <defs>
        <path d="M 40.578125 39.3125 
Q 47.65625 37.796875 51.625 33 
Q 55.609375 28.21875 55.609375 21.1875 
Q 55.609375 10.40625 48.1875 4.484375 
Q 40.765625 -1.421875 27.09375 -1.421875 
Q 22.515625 -1.421875 17.65625 -0.515625 
Q 12.796875 0.390625 7.625 2.203125 
L 7.625 11.71875 
Q 11.71875 9.328125 16.59375 8.109375 
Q 21.484375 6.890625 26.8125 6.890625 
Q 36.078125 6.890625 40.9375 10.546875 
Q 45.796875 14.203125 45.796875 21.1875 
Q 45.796875 27.640625 41.28125 31.265625 
Q 36.765625 34.90625 28.71875 34.90625 
L 20.21875 34.90625 
L 20.21875 43.015625 
L 29.109375 43.015625 
Q 36.375 43.015625 40.234375 45.921875 
Q 44.09375 48.828125 44.09375 54.296875 
Q 44.09375 59.90625 40.109375 62.90625 
Q 36.140625 65.921875 28.71875 65.921875 
Q 24.65625 65.921875 20.015625 65.03125 
Q 15.375 64.15625 9.8125 62.3125 
L 9.8125 71.09375 
Q 15.4375 72.65625 20.34375 73.4375 
Q 25.25 74.21875 29.59375 74.21875 
Q 40.828125 74.21875 47.359375 69.109375 
Q 53.90625 64.015625 53.90625 55.328125 
Q 53.90625 49.265625 50.4375 45.09375 
Q 46.96875 40.921875 40.578125 39.3125 
z
" id="DejaVuSans-51"/>
       </defs>
       <use xlink:href="#DejaVuSans-51"/>
       <use x="63.623047" xlink:href="#DejaVuSans-48"/>
      </g>
     </g>
    </g>
    <g id="ytick_4">
     <g id="line2d_10">
      <g>
       <use style="stroke:#000000;stroke-width:0.8;" x="57.6" xlink:href="#madfc2910ba" y="194.166968"/>
      </g>
     </g>
     <g id="text_10">
      <!-- 40 -->
      <g transform="translate(37.875 197.966187)scale(0.1 -0.1)">
       <use xlink:href="#DejaVuSans-52"/>
       <use x="63.623047" xlink:href="#DejaVuSans-48"/>
      </g>
     </g>
    </g>
    <g id="ytick_5">
     <g id="line2d_11">
      <g>
       <use style="stroke:#000000;stroke-width:0.8;" x="57.6" xlink:href="#madfc2910ba" y="164.406789"/>
      </g>
     </g>
     <g id="text_11">
      <!-- 50 -->
      <g transform="translate(37.875 168.206008)scale(0.1 -0.1)">
       <defs>
        <path d="M 10.796875 72.90625 
L 49.515625 72.90625 
L 49.515625 64.59375 
L 19.828125 64.59375 
L 19.828125 46.734375 
Q 21.96875 47.46875 24.109375 47.828125 
Q 26.265625 48.1875 28.421875 48.1875 
Q 40.625 48.1875 47.75 41.5 
Q 54.890625 34.8125 54.890625 23.390625 
Q 54.890625 11.625 47.5625 5.09375 
Q 40.234375 -1.421875 26.90625 -1.421875 
Q 22.3125 -1.421875 17.546875 -0.640625 
Q 12.796875 0.140625 7.71875 1.703125 
L 7.71875 11.625 
Q 12.109375 9.234375 16.796875 8.0625 
Q 21.484375 6.890625 26.703125 6.890625 
Q 35.15625 6.890625 40.078125 11.328125 
Q 45.015625 15.765625 45.015625 23.390625 
Q 45.015625 31 40.078125 35.4375 
Q 35.15625 39.890625 26.703125 39.890625 
Q 22.75 39.890625 18.8125 39.015625 
Q 14.890625 38.140625 10.796875 36.28125 
z
" id="DejaVuSans-53"/>
       </defs>
       <use xlink:href="#DejaVuSans-53"/>
       <use x="63.623047" xlink:href="#DejaVuSans-48"/>
      </g>
     </g>
    </g>
    <g id="ytick_6">
     <g id="line2d_12">
      <g>
       <use style="stroke:#000000;stroke-width:0.8;" x="57.6" xlink:href="#madfc2910ba" y="134.64661"/>
      </g>
     </g>
     <g id="text_12">
      <!-- 60 -->
      <g transform="translate(37.875 138.445828)scale(0.1 -0.1)">
       <use xlink:href="#DejaVuSans-54"/>
       <use x="63.623047" xlink:href="#DejaVuSans-48"/>
      </g>
     </g>
    </g>
    <g id="ytick_7">
     <g id="line2d_13">
      <g>
       <use style="stroke:#000000;stroke-width:0.8;" x="57.6" xlink:href="#madfc2910ba" y="104.88643"/>
      </g>
     </g>
     <g id="text_13">
      <!-- 70 -->
      <g transform="translate(37.875 108.685649)scale(0.1 -0.1)">
       <defs>
        <path d="M 8.203125 72.90625 
L 55.078125 72.90625 
L 55.078125 68.703125 
L 28.609375 0 
L 18.3125 0 
L 43.21875 64.59375 
L 8.203125 64.59375 
z
" id="DejaVuSans-55"/>
       </defs>
       <use xlink:href="#DejaVuSans-55"/>
       <use x="63.623047" xlink:href="#DejaVuSans-48"/>
      </g>
     </g>
    </g>
    <g id="ytick_8">
     <g id="line2d_14">
      <g>
       <use style="stroke:#000000;stroke-width:0.8;" x="57.6" xlink:href="#madfc2910ba" y="75.126251"/>
      </g>
     </g>
     <g id="text_14">
      <!-- 80 -->
      <g transform="translate(37.875 78.92547)scale(0.1 -0.1)">
       <use xlink:href="#DejaVuSans-56"/>
       <use x="63.623047" xlink:href="#DejaVuSans-48"/>
      </g>
     </g>
    </g>
    <g id="ytick_9">
     <g id="line2d_15">
      <g>
       <use style="stroke:#000000;stroke-width:0.8;" x="57.6" xlink:href="#madfc2910ba" y="45.366072"/>
      </g>
     </g>
     <g id="text_15">
      <!-- 90 -->
      <g transform="translate(37.875 49.165291)scale(0.1 -0.1)">
       <defs>
        <path d="M 10.984375 1.515625 
L 10.984375 10.5 
Q 14.703125 8.734375 18.5 7.8125 
Q 22.3125 6.890625 25.984375 6.890625 
Q 35.75 6.890625 40.890625 13.453125 
Q 46.046875 20.015625 46.78125 33.40625 
Q 43.953125 29.203125 39.59375 26.953125 
Q 35.25 24.703125 29.984375 24.703125 
Q 19.046875 24.703125 12.671875 31.3125 
Q 6.296875 37.9375 6.296875 49.421875 
Q 6.296875 60.640625 12.9375 67.421875 
Q 19.578125 74.21875 30.609375 74.21875 
Q 43.265625 74.21875 49.921875 64.515625 
Q 56.59375 54.828125 56.59375 36.375 
Q 56.59375 19.140625 48.40625 8.859375 
Q 40.234375 -1.421875 26.421875 -1.421875 
Q 22.703125 -1.421875 18.890625 -0.6875 
Q 15.09375 0.046875 10.984375 1.515625 
z
M 30.609375 32.421875 
Q 37.25 32.421875 41.125 36.953125 
Q 45.015625 41.5 45.015625 49.421875 
Q 45.015625 57.28125 41.125 61.84375 
Q 37.25 66.40625 30.609375 66.40625 
Q 23.96875 66.40625 20.09375 61.84375 
Q 16.21875 57.28125 16.21875 49.421875 
Q 16.21875 41.5 20.09375 36.953125 
Q 23.96875 32.421875 30.609375 32.421875 
z
" id="DejaVuSans-57"/>
       </defs>
       <use xlink:href="#DejaVuSans-57"/>
       <use x="63.623047" xlink:href="#DejaVuSans-48"/>
      </g>
     </g>
    </g>
   </g>
   <g id="line2d_16">
    <path clip-path="url(#p79efe7ca87)" d="M 117.220084 235.741939 
L 118.609885 238.450115 
L 120.106822 241.086867 
L 121.704943 243.649218 
L 123.404249 246.137169 
L 125.195812 248.55072 
L 127.079632 250.88987 
L 129.052731 253.151643 
L 133.242965 257.443061 
L 137.736752 261.416045 
L 142.507308 265.067619 
L 147.518923 268.388855 
L 152.741834 271.370825 
L 158.149259 274.013529 
L 163.705484 276.305063 
L 169.389678 278.248403 
L 175.175057 279.86438 
L 181.034837 281.158948 
L 186.95116 282.152938 
L 192.897244 282.855278 
L 198.858208 283.301681 
L 204.837028 283.530834 
L 213.830554 283.557619 
L 222.844912 283.331441 
L 228.850517 283.042767 
L 234.835289 282.572557 
L 240.781372 281.858312 
L 246.66496 280.834562 
L 252.471171 279.43881 
L 258.191077 277.677007 
L 263.821703 275.596771 
L 269.357097 273.251669 
L 274.797257 270.692293 
L 280.13921 267.966261 
L 287.986969 263.627227 
L 295.700807 259.047135 
L 303.343221 254.279554 
L 310.896355 249.315556 
L 315.777024 245.800879 
L 320.440444 242.048121 
L 322.669482 240.060141 
L 324.815191 237.985856 
L 326.868643 235.816339 
L 328.823887 233.554565 
L 330.686874 231.203511 
L 332.451653 228.769129 
L 334.121199 226.263321 
L 337.177569 221.061242 
L 339.864913 215.650842 
L 342.183231 210.09164 
L 344.162283 204.431254 
L 345.852661 198.687539 
L 347.316862 192.881328 
L 349.22449 184.093147 
L 350.926772 175.25735 
L 351.920762 169.346979 
L 352.748095 163.415775 
L 353.361155 157.463739 
L 353.718277 151.487895 
L 353.783749 145.494195 
L 353.548644 139.497519 
L 353.009985 133.518699 
L 352.161819 127.575591 
L 350.998196 121.683075 
L 349.504235 115.86496 
L 347.673984 110.14803 
L 345.483635 104.556092 
L 342.92426 99.115932 
L 339.978002 93.851356 
L 338.356072 91.300908 
L 336.632958 88.812957 
L 334.808659 86.399407 
L 332.883175 84.072161 
L 330.850555 81.837171 
L 328.71675 79.706343 
L 326.478785 77.688602 
L 324.133683 75.795855 
L 321.681444 74.034052 
L 319.125044 72.415099 
L 316.46746 70.944946 
L 313.723572 69.632522 
L 310.902307 68.486755 
L 308.018546 67.510621 
L 305.07824 66.713048 
L 302.099246 66.105941 
L 299.087516 65.689298 
L 296.054953 65.472049 
L 293.016439 65.466097 
L 289.977925 65.671442 
L 286.960243 66.088085 
L 283.972321 66.713048 
L 281.029039 67.534429 
L 278.145278 68.549251 
L 275.335917 69.748587 
L 272.61286 71.129459 
L 269.993964 72.685916 
L 267.494109 74.406055 
L 265.122223 76.29285 
L 262.893186 78.331422 
L 260.812949 80.515819 
L 258.878538 82.831161 
L 257.095903 85.271496 
L 255.462069 87.821944 
L 253.977036 90.473575 
L 252.646756 93.211512 
L 251.468253 96.026825 
L 250.441527 98.910586 
L 249.569553 101.847916 
L 248.852333 104.82691 
L 248.289866 107.841616 
L 247.885127 110.877154 
L 247.638118 113.921621 
L 247.545861 116.966087 
L 247.617286 119.995673 
L 247.846439 123.004427 
L 248.236297 125.977469 
L 248.786861 128.902895 
L 249.501105 131.771776 
L 249.501105 131.771776 
" style="fill:none;stroke:#fea952;stroke-linecap:square;"/>
   </g>
   <g id="line2d_17">
    <path clip-path="url(#p79efe7ca87)" d="M 127.810959 230.306841 
L 130.207381 234.787215 
L 132.962748 239.041958 
L 136.050047 243.064362 
L 139.47328 246.865597 
L 143.177845 250.411507 
L 147.16513 253.708058 
L 151.389592 256.736604 
L 155.839165 259.489476 
L 160.472099 261.956474 
L 165.28527 264.129704 
L 170.212084 265.998707 
L 175.312738 267.587811 
L 180.518319 268.89354 
L 185.817554 269.929166 
L 191.176028 270.702067 
L 196.646839 271.229136 
L 202.201317 271.542782 
L 207.869342 271.671456 
L 216.538791 271.603624 
L 225.202128 271.320058 
L 230.807967 270.975839 
L 236.251851 270.450056 
L 241.512477 269.695488 
L 246.602122 268.65981 
L 251.674618 267.274835 
L 256.758427 265.555338 
L 261.841056 263.543115 
L 266.926326 261.269518 
L 271.994862 258.781387 
L 277.013001 256.131927 
L 284.492662 251.888565 
L 291.939782 247.384482 
L 301.742097 241.131536 
L 306.29644 237.999775 
L 310.53434 234.801152 
L 314.395684 231.501449 
L 317.863099 228.031283 
L 321.048933 224.216593 
L 323.968902 220.04739 
L 326.606307 215.588094 
L 328.95272 210.893642 
L 331.002081 206.006447 
L 332.781301 200.941244 
L 334.334579 195.680763 
L 335.710904 190.233941 
L 337.552497 181.754023 
L 339.199696 173.212205 
L 340.555612 164.832068 
L 341.231359 159.341503 
L 341.68491 153.910888 
L 341.882659 148.505831 
L 341.815165 143.10826 
L 341.4789 137.731383 
L 340.865388 132.381741 
L 339.974345 127.086444 
L 338.80636 121.888785 
L 337.350924 116.792884 
L 335.609433 111.852147 
L 333.56914 107.068059 
L 331.221364 102.463084 
L 328.569902 98.078651 
L 325.636836 93.987858 
L 324.076468 92.081457 
L 322.438981 90.260493 
L 320.745555 88.547551 
L 319.002299 86.951922 
L 317.187971 85.463534 
L 315.312424 84.091016 
L 313.362743 82.831567 
L 311.330971 81.683819 
L 309.244401 80.661754 
L 307.085586 79.762373 
L 304.902123 78.999522 
L 302.701098 78.377358 
L 300.467973 77.897712 
L 298.236902 77.56294 
L 296.031635 77.376098 
L 293.819095 77.343077 
L 291.60604 77.46365 
L 289.397397 77.740003 
L 287.172123 78.179006 
L 284.980647 78.763486 
L 282.81912 79.497408 
L 280.719831 80.365573 
L 278.694648 81.362678 
L 276.741927 82.492645 
L 274.904837 83.722064 
L 273.156002 85.07723 
L 271.513655 86.540834 
L 269.948278 88.148164 
L 268.491068 89.852998 
L 267.1196 91.692744 
L 265.848244 93.638668 
L 264.684192 95.675857 
L 263.62756 97.808127 
L 262.682738 100.019598 
L 261.853377 102.298299 
L 261.142925 104.634312 
L 260.554471 107.010231 
L 260.089514 109.414903 
L 259.750211 111.839815 
L 259.536728 114.282185 
L 259.446626 116.685519 
L 259.486981 119.091651 
L 259.649465 121.456683 
L 259.934994 123.775782 
L 260.338321 126.027013 
L 261.052565 128.895894 
L 261.052565 128.895894 
" style="fill:none;stroke:#ffffff;stroke-linecap:square;"/>
   </g>
   <g id="line2d_18">
    <path clip-path="url(#p79efe7ca87)" d="M 106.629209 241.177036 
L 108.257759 244.327225 
L 110.006262 247.386519 
L 111.87495 250.363245 
L 113.845751 253.23238 
L 115.924509 256.017303 
L 118.109216 258.715377 
L 120.385227 261.311379 
L 122.74504 263.806484 
L 125.199625 266.218687 
L 127.730447 268.527952 
L 130.342121 270.744837 
L 133.016434 272.855959 
L 135.763309 274.877073 
L 138.577119 276.803199 
L 141.449875 278.629636 
L 147.338269 281.977823 
L 150.374354 283.517161 
L 156.536737 286.272217 
L 162.853318 288.641063 
L 169.22819 290.605325 
L 175.676695 292.204189 
L 182.156538 293.454145 
L 188.666424 294.377573 
L 195.105637 294.987343 
L 201.490943 295.340325 
L 207.798414 295.479494 
L 217.127921 295.404477 
L 226.499254 295.092839 
L 232.886767 294.693054 
L 239.376714 294.052237 
L 245.948735 293.086668 
L 252.55484 291.71177 
L 259.011439 289.924311 
L 265.278161 287.786888 
L 271.361552 285.364844 
L 277.251836 282.72206 
L 282.962437 279.912879 
L 288.53297 276.967426 
L 296.647642 272.36011 
L 304.56868 267.567113 
L 312.4031 262.608594 
L 317.747361 259.050577 
L 323.096054 255.189102 
L 328.363793 250.932234 
L 330.943279 248.618832 
L 333.460722 246.168869 
L 335.874187 243.601395 
L 338.153871 240.947692 
L 340.324815 238.190429 
L 342.358249 235.369604 
L 344.273495 232.479253 
L 346.067048 229.53483 
L 347.748831 226.53439 
L 349.315953 223.493012 
L 350.777107 220.408041 
L 353.364382 214.176833 
L 355.543265 207.921264 
L 357.370744 201.694315 
L 358.92282 195.528716 
L 360.896483 186.432272 
L 362.653848 177.302495 
L 363.697261 171.085076 
L 364.576736 164.753749 
L 365.234673 158.316075 
L 365.619239 151.759985 
L 365.683553 145.17545 
L 365.417998 138.589029 
L 364.816421 131.99719 
L 363.870847 125.429526 
L 362.569376 118.887592 
L 360.894835 112.406468 
L 358.825439 105.98246 
L 356.341199 99.675494 
L 354.933988 96.562301 
L 353.416761 93.493268 
L 351.782083 90.459563 
L 350.022939 87.463385 
L 348.142243 84.523166 
L 346.129451 81.634967 
L 343.980481 78.810955 
L 341.689883 76.062865 
L 339.262129 73.41385 
L 336.687946 70.865134 
L 333.955271 68.425283 
L 331.079394 66.128176 
L 328.050464 63.977089 
L 324.887346 61.998631 
L 321.60395 60.206072 
L 318.202743 58.60329 
L 314.719028 57.211137 
L 311.134968 56.021721 
L 307.455382 55.048739 
L 303.730519 54.314169 
L 299.93813 53.815656 
L 296.078272 53.568 
L 292.213783 53.589116 
L 288.349809 53.879234 
L 284.523088 54.436166 
L 280.772518 55.247091 
L 277.077431 56.305373 
L 273.471435 57.601095 
L 269.952002 59.131601 
L 266.531072 60.89624 
L 263.246001 62.879188 
L 260.083382 65.090045 
L 257.088445 67.50847 
L 254.272717 70.122011 
L 251.67762 72.883475 
L 249.266007 75.809325 
L 247.072206 78.850248 
L 245.075894 82.005219 
L 243.26988 85.271294 
L 241.665952 88.614896 
L 240.253767 92.034051 
L 239.029676 95.522874 
L 237.996182 99.06152 
L 237.150195 102.643589 
L 236.490218 106.26833 
L 236.020044 109.914494 
L 235.739508 113.561057 
L 235.645096 117.246655 
L 235.74759 120.899696 
L 236.043414 124.552172 
L 236.537601 128.179157 
L 237.235401 131.778777 
L 237.949645 134.647658 
L 237.949645 134.647658 
" style="fill:none;stroke:#ffffff;stroke-linecap:square;"/>
   </g>
   <g id="patch_3">
    <path d="M 57.6 307.584 
L 57.6 41.472 
" style="fill:none;stroke:#000000;stroke-linecap:square;stroke-linejoin:miter;stroke-width:0.8;"/>
   </g>
   <g id="patch_4">
    <path d="M 414.72 307.584 
L 414.72 41.472 
" style="fill:none;stroke:#000000;stroke-linecap:square;stroke-linejoin:miter;stroke-width:0.8;"/>
   </g>
   <g id="patch_5">
    <path d="M 57.6 307.584 
L 414.72 307.584 
" style="fill:none;stroke:#000000;stroke-linecap:square;stroke-linejoin:miter;stroke-width:0.8;"/>
   </g>
   <g id="patch_6">
    <path d="M 57.6 41.472 
L 414.72 41.472 
" style="fill:none;stroke:#000000;stroke-linecap:square;stroke-linejoin:miter;stroke-width:0.8;"/>
   </g>
  </g>
 </g>
 <defs>
  <clipPath id="p79efe7ca87">
   <rect height="266.112" width="357.12" x="57.6" y="41.472"/>
  </clipPath>
 </defs>
</svg>
