<?xml version="1.0" encoding="utf-8" standalone="no"?>
<!DOCTYPE svg PUBLIC "-//W3C//DTD SVG 1.1//EN"
  "http://www.w3.org/Graphics/SVG/1.1/DTD/svg11.dtd">
<!-- Created with matplotlib (https://matplotlib.org/) -->
<svg height="345.6pt" version="1.1" viewBox="0 0 460.8 345.6" width="460.8pt" xmlns="http://www.w3.org/2000/svg" xmlns:xlink="http://www.w3.org/1999/xlink">
 <metadata>
  <rdf:RDF xmlns:cc="http://creativecommons.org/ns#" xmlns:dc="http://purl.org/dc/elements/1.1/" xmlns:rdf="http://www.w3.org/1999/02/22-rdf-syntax-ns#">
   <cc:Work>
    <dc:type rdf:resource="http://purl.org/dc/dcmitype/StillImage"/>
    <dc:date>2021-01-25T11:13:45.250069</dc:date>
    <dc:format>image/svg+xml</dc:format>
    <dc:creator>
     <cc:Agent>
      <dc:title>Matplotlib v3.3.3, https://matplotlib.org/</dc:title>
     </cc:Agent>
    </dc:creator>
   </cc:Work>
  </rdf:RDF>
 </metadata>
 <defs>
  <style type="text/css">*{stroke-linecap:butt;stroke-linejoin:round;}</style>
 </defs>
 <g id="figure_1">
  <g id="patch_1">
   <path d="M 0 345.6 
L 460.8 345.6 
L 460.8 0 
L 0 0 
z
" style="fill:#ffffff;"/>
  </g>
  <g id="axes_1">
   <g id="patch_2">
    <path d="M 57.6 307.584 
L 414.72 307.584 
L 414.72 41.472 
L 57.6 41.472 
z
" style="fill:#7d9051;"/>
   </g>
   <g id="matplotlib.axis_1">
    <g id="xtick_1">
     <g id="line2d_1">
      <defs>
       <path d="M 0 0 
L 0 3.5 
" id="m3ffe3e27d6" style="stroke:#000000;stroke-width:0.8;"/>
      </defs>
      <g>
       <use style="stroke:#000000;stroke-width:0.8;" x="83.280127" xlink:href="#m3ffe3e27d6" y="307.584"/>
      </g>
     </g>
     <g id="text_1">
      <!-- 0 -->
      <g transform="translate(80.098877 322.182437)scale(0.1 -0.1)">
       <defs>
        <path d="M 31.78125 66.40625 
Q 24.171875 66.40625 20.328125 58.90625 
Q 16.5 51.421875 16.5 36.375 
Q 16.5 21.390625 20.328125 13.890625 
Q 24.171875 6.390625 31.78125 6.390625 
Q 39.453125 6.390625 43.28125 13.890625 
Q 47.125 21.390625 47.125 36.375 
Q 47.125 51.421875 43.28125 58.90625 
Q 39.453125 66.40625 31.78125 66.40625 
z
M 31.78125 74.21875 
Q 44.046875 74.21875 50.515625 64.515625 
Q 56.984375 54.828125 56.984375 36.375 
Q 56.984375 17.96875 50.515625 8.265625 
Q 44.046875 -1.421875 31.78125 -1.421875 
Q 19.53125 -1.421875 13.0625 8.265625 
Q 6.59375 17.96875 6.59375 36.375 
Q 6.59375 54.828125 13.0625 64.515625 
Q 19.53125 74.21875 31.78125 74.21875 
z
" id="DejaVuSans-48"/>
       </defs>
       <use xlink:href="#DejaVuSans-48"/>
      </g>
     </g>
    </g>
    <g id="xtick_2">
     <g id="line2d_2">
      <g>
       <use style="stroke:#000000;stroke-width:0.8;" x="152.663556" xlink:href="#m3ffe3e27d6" y="307.584"/>
      </g>
     </g>
     <g id="text_2">
      <!-- 20 -->
      <g transform="translate(146.301056 322.182437)scale(0.1 -0.1)">
       <defs>
        <path d="M 19.1875 8.296875 
L 53.609375 8.296875 
L 53.609375 0 
L 7.328125 0 
L 7.328125 8.296875 
Q 12.9375 14.109375 22.625 23.890625 
Q 32.328125 33.6875 34.8125 36.53125 
Q 39.546875 41.84375 41.421875 45.53125 
Q 43.3125 49.21875 43.3125 52.78125 
Q 43.3125 58.59375 39.234375 62.25 
Q 35.15625 65.921875 28.609375 65.921875 
Q 23.96875 65.921875 18.8125 64.3125 
Q 13.671875 62.703125 7.8125 59.421875 
L 7.8125 69.390625 
Q 13.765625 71.78125 18.9375 73 
Q 24.125 74.21875 28.421875 74.21875 
Q 39.75 74.21875 46.484375 68.546875 
Q 53.21875 62.890625 53.21875 53.421875 
Q 53.21875 48.921875 51.53125 44.890625 
Q 49.859375 40.875 45.40625 35.40625 
Q 44.1875 33.984375 37.640625 27.21875 
Q 31.109375 20.453125 19.1875 8.296875 
z
" id="DejaVuSans-50"/>
       </defs>
       <use xlink:href="#DejaVuSans-50"/>
       <use x="63.623047" xlink:href="#DejaVuSans-48"/>
      </g>
     </g>
    </g>
    <g id="xtick_3">
     <g id="line2d_3">
      <g>
       <use style="stroke:#000000;stroke-width:0.8;" x="222.046985" xlink:href="#m3ffe3e27d6" y="307.584"/>
      </g>
     </g>
     <g id="text_3">
      <!-- 40 -->
      <g transform="translate(215.684485 322.182437)scale(0.1 -0.1)">
       <defs>
        <path d="M 37.796875 64.3125 
L 12.890625 25.390625 
L 37.796875 25.390625 
z
M 35.203125 72.90625 
L 47.609375 72.90625 
L 47.609375 25.390625 
L 58.015625 25.390625 
L 58.015625 17.1875 
L 47.609375 17.1875 
L 47.609375 0 
L 37.796875 0 
L 37.796875 17.1875 
L 4.890625 17.1875 
L 4.890625 26.703125 
z
" id="DejaVuSans-52"/>
       </defs>
       <use xlink:href="#DejaVuSans-52"/>
       <use x="63.623047" xlink:href="#DejaVuSans-48"/>
      </g>
     </g>
    </g>
    <g id="xtick_4">
     <g id="line2d_4">
      <g>
       <use style="stroke:#000000;stroke-width:0.8;" x="291.430414" xlink:href="#m3ffe3e27d6" y="307.584"/>
      </g>
     </g>
     <g id="text_4">
      <!-- 60 -->
      <g transform="translate(285.067914 322.182437)scale(0.1 -0.1)">
       <defs>
        <path d="M 33.015625 40.375 
Q 26.375 40.375 22.484375 35.828125 
Q 18.609375 31.296875 18.609375 23.390625 
Q 18.609375 15.53125 22.484375 10.953125 
Q 26.375 6.390625 33.015625 6.390625 
Q 39.65625 6.390625 43.53125 10.953125 
Q 47.40625 15.53125 47.40625 23.390625 
Q 47.40625 31.296875 43.53125 35.828125 
Q 39.65625 40.375 33.015625 40.375 
z
M 52.59375 71.296875 
L 52.59375 62.3125 
Q 48.875 64.0625 45.09375 64.984375 
Q 41.3125 65.921875 37.59375 65.921875 
Q 27.828125 65.921875 22.671875 59.328125 
Q 17.53125 52.734375 16.796875 39.40625 
Q 19.671875 43.65625 24.015625 45.921875 
Q 28.375 48.1875 33.59375 48.1875 
Q 44.578125 48.1875 50.953125 41.515625 
Q 57.328125 34.859375 57.328125 23.390625 
Q 57.328125 12.15625 50.6875 5.359375 
Q 44.046875 -1.421875 33.015625 -1.421875 
Q 20.359375 -1.421875 13.671875 8.265625 
Q 6.984375 17.96875 6.984375 36.375 
Q 6.984375 53.65625 15.1875 63.9375 
Q 23.390625 74.21875 37.203125 74.21875 
Q 40.921875 74.21875 44.703125 73.484375 
Q 48.484375 72.75 52.59375 71.296875 
z
" id="DejaVuSans-54"/>
       </defs>
       <use xlink:href="#DejaVuSans-54"/>
       <use x="63.623047" xlink:href="#DejaVuSans-48"/>
      </g>
     </g>
    </g>
    <g id="xtick_5">
     <g id="line2d_5">
      <g>
       <use style="stroke:#000000;stroke-width:0.8;" x="360.813843" xlink:href="#m3ffe3e27d6" y="307.584"/>
      </g>
     </g>
     <g id="text_5">
      <!-- 80 -->
      <g transform="translate(354.451343 322.182437)scale(0.1 -0.1)">
       <defs>
        <path d="M 31.78125 34.625 
Q 24.75 34.625 20.71875 30.859375 
Q 16.703125 27.09375 16.703125 20.515625 
Q 16.703125 13.921875 20.71875 10.15625 
Q 24.75 6.390625 31.78125 6.390625 
Q 38.8125 6.390625 42.859375 10.171875 
Q 46.921875 13.96875 46.921875 20.515625 
Q 46.921875 27.09375 42.890625 30.859375 
Q 38.875 34.625 31.78125 34.625 
z
M 21.921875 38.8125 
Q 15.578125 40.375 12.03125 44.71875 
Q 8.5 49.078125 8.5 55.328125 
Q 8.5 64.0625 14.71875 69.140625 
Q 20.953125 74.21875 31.78125 74.21875 
Q 42.671875 74.21875 48.875 69.140625 
Q 55.078125 64.0625 55.078125 55.328125 
Q 55.078125 49.078125 51.53125 44.71875 
Q 48 40.375 41.703125 38.8125 
Q 48.828125 37.15625 52.796875 32.3125 
Q 56.78125 27.484375 56.78125 20.515625 
Q 56.78125 9.90625 50.3125 4.234375 
Q 43.84375 -1.421875 31.78125 -1.421875 
Q 19.734375 -1.421875 13.25 4.234375 
Q 6.78125 9.90625 6.78125 20.515625 
Q 6.78125 27.484375 10.78125 32.3125 
Q 14.796875 37.15625 21.921875 38.8125 
z
M 18.3125 54.390625 
Q 18.3125 48.734375 21.84375 45.5625 
Q 25.390625 42.390625 31.78125 42.390625 
Q 38.140625 42.390625 41.71875 45.5625 
Q 45.3125 48.734375 45.3125 54.390625 
Q 45.3125 60.0625 41.71875 63.234375 
Q 38.140625 66.40625 31.78125 66.40625 
Q 25.390625 66.40625 21.84375 63.234375 
Q 18.3125 60.0625 18.3125 54.390625 
z
" id="DejaVuSans-56"/>
       </defs>
       <use xlink:href="#DejaVuSans-56"/>
       <use x="63.623047" xlink:href="#DejaVuSans-48"/>
      </g>
     </g>
    </g>
   </g>
   <g id="matplotlib.axis_2">
    <g id="ytick_1">
     <g id="line2d_6">
      <defs>
       <path d="M 0 0 
L -3.5 0 
" id="me60b635ae4" style="stroke:#000000;stroke-width:0.8;"/>
      </defs>
      <g>
       <use style="stroke:#000000;stroke-width:0.8;" x="57.6" xlink:href="#me60b635ae4" y="281.315516"/>
      </g>
     </g>
     <g id="text_6">
      <!-- 10 -->
      <g transform="translate(37.875 285.114735)scale(0.1 -0.1)">
       <defs>
        <path d="M 12.40625 8.296875 
L 28.515625 8.296875 
L 28.515625 63.921875 
L 10.984375 60.40625 
L 10.984375 69.390625 
L 28.421875 72.90625 
L 38.28125 72.90625 
L 38.28125 8.296875 
L 54.390625 8.296875 
L 54.390625 0 
L 12.40625 0 
z
" id="DejaVuSans-49"/>
       </defs>
       <use xlink:href="#DejaVuSans-49"/>
       <use x="63.623047" xlink:href="#DejaVuSans-48"/>
      </g>
     </g>
    </g>
    <g id="ytick_2">
     <g id="line2d_7">
      <g>
       <use style="stroke:#000000;stroke-width:0.8;" x="57.6" xlink:href="#me60b635ae4" y="246.623802"/>
      </g>
     </g>
     <g id="text_7">
      <!-- 20 -->
      <g transform="translate(37.875 250.423021)scale(0.1 -0.1)">
       <use xlink:href="#DejaVuSans-50"/>
       <use x="63.623047" xlink:href="#DejaVuSans-48"/>
      </g>
     </g>
    </g>
    <g id="ytick_3">
     <g id="line2d_8">
      <g>
       <use style="stroke:#000000;stroke-width:0.8;" x="57.6" xlink:href="#me60b635ae4" y="211.932087"/>
      </g>
     </g>
     <g id="text_8">
      <!-- 30 -->
      <g transform="translate(37.875 215.731306)scale(0.1 -0.1)">
       <defs>
        <path d="M 40.578125 39.3125 
Q 47.65625 37.796875 51.625 33 
Q 55.609375 28.21875 55.609375 21.1875 
Q 55.609375 10.40625 48.1875 4.484375 
Q 40.765625 -1.421875 27.09375 -1.421875 
Q 22.515625 -1.421875 17.65625 -0.515625 
Q 12.796875 0.390625 7.625 2.203125 
L 7.625 11.71875 
Q 11.71875 9.328125 16.59375 8.109375 
Q 21.484375 6.890625 26.8125 6.890625 
Q 36.078125 6.890625 40.9375 10.546875 
Q 45.796875 14.203125 45.796875 21.1875 
Q 45.796875 27.640625 41.28125 31.265625 
Q 36.765625 34.90625 28.71875 34.90625 
L 20.21875 34.90625 
L 20.21875 43.015625 
L 29.109375 43.015625 
Q 36.375 43.015625 40.234375 45.921875 
Q 44.09375 48.828125 44.09375 54.296875 
Q 44.09375 59.90625 40.109375 62.90625 
Q 36.140625 65.921875 28.71875 65.921875 
Q 24.65625 65.921875 20.015625 65.03125 
Q 15.375 64.15625 9.8125 62.3125 
L 9.8125 71.09375 
Q 15.4375 72.65625 20.34375 73.4375 
Q 25.25 74.21875 29.59375 74.21875 
Q 40.828125 74.21875 47.359375 69.109375 
Q 53.90625 64.015625 53.90625 55.328125 
Q 53.90625 49.265625 50.4375 45.09375 
Q 46.96875 40.921875 40.578125 39.3125 
z
" id="DejaVuSans-51"/>
       </defs>
       <use xlink:href="#DejaVuSans-51"/>
       <use x="63.623047" xlink:href="#DejaVuSans-48"/>
      </g>
     </g>
    </g>
    <g id="ytick_4">
     <g id="line2d_9">
      <g>
       <use style="stroke:#000000;stroke-width:0.8;" x="57.6" xlink:href="#me60b635ae4" y="177.240373"/>
      </g>
     </g>
     <g id="text_9">
      <!-- 40 -->
      <g transform="translate(37.875 181.039592)scale(0.1 -0.1)">
       <use xlink:href="#DejaVuSans-52"/>
       <use x="63.623047" xlink:href="#DejaVuSans-48"/>
      </g>
     </g>
    </g>
    <g id="ytick_5">
     <g id="line2d_10">
      <g>
       <use style="stroke:#000000;stroke-width:0.8;" x="57.6" xlink:href="#me60b635ae4" y="142.548658"/>
      </g>
     </g>
     <g id="text_10">
      <!-- 50 -->
      <g transform="translate(37.875 146.347877)scale(0.1 -0.1)">
       <defs>
        <path d="M 10.796875 72.90625 
L 49.515625 72.90625 
L 49.515625 64.59375 
L 19.828125 64.59375 
L 19.828125 46.734375 
Q 21.96875 47.46875 24.109375 47.828125 
Q 26.265625 48.1875 28.421875 48.1875 
Q 40.625 48.1875 47.75 41.5 
Q 54.890625 34.8125 54.890625 23.390625 
Q 54.890625 11.625 47.5625 5.09375 
Q 40.234375 -1.421875 26.90625 -1.421875 
Q 22.3125 -1.421875 17.546875 -0.640625 
Q 12.796875 0.140625 7.71875 1.703125 
L 7.71875 11.625 
Q 12.109375 9.234375 16.796875 8.0625 
Q 21.484375 6.890625 26.703125 6.890625 
Q 35.15625 6.890625 40.078125 11.328125 
Q 45.015625 15.765625 45.015625 23.390625 
Q 45.015625 31 40.078125 35.4375 
Q 35.15625 39.890625 26.703125 39.890625 
Q 22.75 39.890625 18.8125 39.015625 
Q 14.890625 38.140625 10.796875 36.28125 
z
" id="DejaVuSans-53"/>
       </defs>
       <use xlink:href="#DejaVuSans-53"/>
       <use x="63.623047" xlink:href="#DejaVuSans-48"/>
      </g>
     </g>
    </g>
    <g id="ytick_6">
     <g id="line2d_11">
      <g>
       <use style="stroke:#000000;stroke-width:0.8;" x="57.6" xlink:href="#me60b635ae4" y="107.856944"/>
      </g>
     </g>
     <g id="text_11">
      <!-- 60 -->
      <g transform="translate(37.875 111.656162)scale(0.1 -0.1)">
       <use xlink:href="#DejaVuSans-54"/>
       <use x="63.623047" xlink:href="#DejaVuSans-48"/>
      </g>
     </g>
    </g>
    <g id="ytick_7">
     <g id="line2d_12">
      <g>
       <use style="stroke:#000000;stroke-width:0.8;" x="57.6" xlink:href="#me60b635ae4" y="73.165229"/>
      </g>
     </g>
     <g id="text_12">
      <!-- 70 -->
      <g transform="translate(37.875 76.964448)scale(0.1 -0.1)">
       <defs>
        <path d="M 8.203125 72.90625 
L 55.078125 72.90625 
L 55.078125 68.703125 
L 28.609375 0 
L 18.3125 0 
L 43.21875 64.59375 
L 8.203125 64.59375 
z
" id="DejaVuSans-55"/>
       </defs>
       <use xlink:href="#DejaVuSans-55"/>
       <use x="63.623047" xlink:href="#DejaVuSans-48"/>
      </g>
     </g>
    </g>
   </g>
   <g id="line2d_13">
    <path clip-path="url(#pf10cb05e09)" d="M 233.724216 175.752098 
L 232.28451 178.92639 
L 230.980101 182.170065 
L 229.810991 185.472717 
L 228.784116 188.830875 
L 227.892539 192.234132 
L 227.143198 195.672081 
L 226.539562 199.144721 
L 226.081631 202.641646 
L 225.769406 206.155917 
L 225.606355 209.677126 
L 225.592478 213.201804 
L 225.731245 216.723013 
L 226.026124 220.233815 
L 226.477117 223.720332 
L 227.087691 227.186034 
L 227.854378 230.617045 
L 228.784116 234.006425 
L 229.876905 237.347237 
L 231.136214 240.632543 
L 232.562043 243.858872 
L 234.154393 247.012349 
L 235.909794 250.086035 
L 237.821307 253.066053 
L 239.885464 255.945466 
L 242.095327 258.710395 
L 244.443956 261.350435 
L 246.927882 263.855177 
L 249.540169 266.214213 
L 252.277345 268.413668 
L 255.132473 270.443133 
L 258.098615 272.29914 
L 261.165362 273.978219 
L 264.329246 275.487308 
L 267.572922 276.822939 
L 270.892919 277.988581 
L 274.27883 278.991172 
L 277.716779 279.830711 
L 281.203296 280.507199 
L 284.724505 281.024106 
L 288.273468 281.381431 
L 291.839776 281.582643 
L 295.406084 281.620804 
L 298.968923 281.488975 
L 302.507478 281.180219 
L 306.011342 280.687596 
L 309.466636 280.0007 
L 312.866424 279.119531 
L 316.189891 278.030211 
L 319.430097 276.732741 
L 322.573166 275.213244 
L 325.605222 273.478658 
L 328.522795 271.535922 
L 331.318947 269.402382 
L 333.98674 267.091913 
L 336.522704 264.614925 
L 338.916433 261.985293 
L 341.164456 259.220363 
L 343.259835 256.334013 
L 345.195633 253.333179 
L 346.964911 250.242148 
L 348.567668 247.060917 
L 349.993497 243.810304 
L 351.245868 240.493776 
L 352.317842 237.121741 
L 353.20595 233.704607 
L 353.910192 230.252782 
L 354.423629 226.773203 
L 354.746262 223.279747 
L 354.878091 219.779353 
L 354.808707 216.278959 
L 354.548519 212.792442 
L 354.097527 209.319801 
L 353.476545 205.867976 
L 352.689043 202.443903 
L 351.745429 199.054523 
L 350.656109 195.699834 
L 349.431491 192.390245 
L 348.081984 189.129223 
L 346.617993 185.92024 
L 345.049928 182.770232 
L 341.629325 176.650614 
L 337.865274 170.756491 
L 333.802874 165.070519 
L 329.487225 159.575352 
L 324.966894 154.253643 
L 320.276575 149.081108 
L 315.450957 144.040402 
L 308.006115 136.675351 
L 300.40863 129.47682 
L 282.590965 112.793575 
L 275.149592 105.404239 
L 265.366529 95.367926 
L 260.322353 90.535371 
L 257.720475 88.221433 
L 255.042274 85.997694 
L 252.280814 83.884969 
L 249.422217 81.890195 
L 246.466483 80.023781 
L 243.42055 78.289195 
L 240.298296 76.6795 
L 237.103189 75.205102 
L 233.849106 73.855594 
L 230.539517 72.641384 
L 227.188297 71.555534 
L 223.802386 70.601511 
L 220.388721 69.782787 
L 216.954241 69.092422 
L 213.509354 68.533885 
L 210.05059 68.0933 
L 206.577949 67.770668 
L 199.604915 67.451504 
L 192.597188 67.520887 
L 185.561709 67.930249 
L 178.52276 68.655306 
L 175.015427 69.151398 
L 171.535848 69.758503 
L 168.090961 70.490498 
L 164.687704 71.357791 
L 161.339954 72.374258 
L 158.054648 73.553776 
L 154.845665 74.913692 
L 151.719941 76.460942 
L 148.687885 78.209404 
L 145.759904 80.15214 
L 142.942937 82.282212 
L 140.25086 84.578803 
L 137.683673 87.031507 
L 135.262192 89.629917 
L 132.982946 92.356686 
L 130.866751 95.201406 
L 128.913608 98.153671 
L 127.137392 101.196135 
L 125.545042 104.318389 
L 124.126151 107.513496 
L 122.87725 110.774517 
L 121.784461 114.091045 
L 120.844315 117.463079 
L 120.039467 120.876744 
L 119.362979 124.332039 
L 118.360388 131.329358 
L 117.760222 138.402998 
L 117.486157 145.497454 
L 117.458404 152.564156 
L 117.715122 162.989016 
L 117.971841 169.746962 
L 117.971841 169.746962 
" style="fill:none;stroke:#fea952;stroke-linecap:square;"/>
   </g>
   <g id="line2d_14">
    <path clip-path="url(#pf10cb05e09)" d="M 246.361811 181.483904 
L 245.159171 184.103794 
L 244.061364 186.800722 
L 243.081129 189.530528 
L 242.207797 192.347578 
L 241.450901 195.189335 
L 240.814872 198.048576 
L 240.298774 200.946523 
L 239.903872 203.869683 
L 239.631238 206.797795 
L 239.482933 209.731758 
L 239.458401 212.655364 
L 239.55924 215.561571 
L 239.788153 218.453652 
L 240.143337 221.31267 
L 240.630379 224.159812 
L 241.236714 226.946148 
L 241.97314 229.692258 
L 242.834282 232.380471 
L 243.828681 235.023291 
L 244.949103 237.604021 
L 246.204404 240.130514 
L 247.590068 242.593799 
L 249.099443 244.981125 
L 250.725315 247.281746 
L 252.463132 249.487 
L 254.29711 251.579163 
L 256.228262 253.556374 
L 258.232252 255.397093 
L 260.316983 257.103202 
L 262.493284 258.679593 
L 264.762781 260.127398 
L 267.13941 261.453317 
L 269.612792 262.655841 
L 272.169886 263.729799 
L 274.832802 264.682953 
L 277.570754 265.510606 
L 280.359975 266.208086 
L 283.218766 266.777659 
L 286.114641 267.217226 
L 289.055151 267.526779 
L 291.988254 267.706751 
L 294.892985 267.753607 
L 297.762698 267.664814 
L 300.5755 267.438681 
L 303.305669 267.077242 
L 305.985065 266.567865 
L 308.544356 265.933093 
L 311.031463 265.147935 
L 313.39028 264.239422 
L 315.682466 263.1683 
L 317.914161 261.928333 
L 320.105091 260.503939 
L 322.234318 258.912772 
L 324.290551 257.164863 
L 326.260917 255.27372 
L 328.149436 253.231198 
L 329.93488 251.068123 
L 331.598907 248.811703 
L 333.15229 246.439683 
L 334.572203 243.998494 
L 335.859738 241.486788 
L 337.011547 238.908124 
L 338.021345 236.289684 
L 338.887341 233.631175 
L 339.609353 230.930628 
L 340.182153 228.227109 
L 340.605746 225.497073 
L 340.879407 222.757507 
L 341.00413 220.054357 
L 340.970502 217.311661 
L 340.787398 214.579601 
L 340.440085 211.776768 
L 339.952919 208.978273 
L 339.320767 206.165675 
L 338.547125 203.340218 
L 337.641784 200.515407 
L 336.609366 197.696422 
L 334.195383 192.104183 
L 331.378931 186.637886 
L 328.194707 181.304895 
L 324.668925 176.086371 
L 320.845 170.980894 
L 316.752688 165.969863 
L 312.438515 161.052554 
L 307.916463 156.204479 
L 300.844416 149.06326 
L 293.454729 141.981571 
L 270.325712 120.218597 
L 265.194171 115.071297 
L 253.378807 103.046579 
L 248.855895 98.897651 
L 246.610311 97.018783 
L 244.33975 95.264859 
L 242.0132 93.623434 
L 239.599475 92.082247 
L 237.061692 90.623187 
L 234.484025 89.279367 
L 231.787357 88.023227 
L 229.069585 86.883203 
L 226.26217 85.842396 
L 223.424905 84.912153 
L 220.566017 84.095522 
L 214.733347 82.790233 
L 208.766876 81.910481 
L 202.671386 81.429163 
L 196.42013 81.314193 
L 190.037663 81.53121 
L 183.617684 82.039648 
L 177.400552 82.821569 
L 171.517797 83.937401 
L 168.719301 84.635917 
L 166.029023 85.434696 
L 163.469219 86.330506 
L 161.001767 87.350122 
L 158.652051 88.482101 
L 156.359974 89.772339 
L 154.129472 91.220689 
L 151.949092 92.839275 
L 149.836889 94.61227 
L 147.835506 96.492094 
L 145.909221 98.529533 
L 144.116797 100.639184 
L 142.439979 102.85796 
L 140.897518 105.149979 
L 139.499236 107.500675 
L 138.227421 109.950412 
L 137.084988 112.476454 
L 136.056916 115.117189 
L 135.151343 117.81782 
L 134.350678 120.647506 
L 133.657609 123.542947 
L 133.06708 126.513786 
L 132.171917 132.672522 
L 131.620362 139.080425 
L 131.361885 145.660538 
L 131.333349 152.344355 
L 131.582474 162.480123 
L 131.837825 169.202074 
L 131.837825 169.202074 
" style="fill:none;stroke:#ffffff;stroke-linecap:square;"/>
   </g>
   <g id="line2d_15">
    <path clip-path="url(#pf10cb05e09)" d="M 221.086621 170.020293 
L 219.409849 173.748986 
L 217.898839 177.539408 
L 216.540852 181.414906 
L 215.360435 185.314171 
L 214.334177 189.278929 
L 213.471523 193.295586 
L 212.78035 197.34292 
L 212.259391 201.413609 
L 211.907573 205.514039 
L 211.729776 209.622494 
L 211.726555 213.748244 
L 211.903249 217.884455 
L 212.264096 222.013978 
L 212.810897 226.127994 
L 213.545003 230.212257 
L 214.472041 234.287942 
L 215.595091 238.320592 
L 216.919527 242.314004 
L 218.443747 246.241794 
L 220.174984 250.113724 
L 222.104382 253.894184 
L 224.22952 257.578271 
L 226.543172 261.150982 
L 229.045614 264.609186 
L 231.727522 267.933791 
L 234.590801 271.121707 
L 237.627503 274.15398 
L 240.848085 277.031333 
L 244.237707 279.724133 
L 247.771662 282.206673 
L 251.434448 284.470882 
L 255.191314 286.50312 
L 259.045701 288.318776 
L 262.975957 289.91608 
L 266.953035 291.294209 
L 270.986906 292.471737 
L 275.073583 293.453337 
L 279.187827 294.23674 
L 283.33437 294.830986 
L 287.491785 295.236083 
L 291.691299 295.458534 
L 295.919184 295.488 
L 300.175149 295.313136 
L 304.439457 294.921757 
L 308.717014 294.297951 
L 312.948208 293.433536 
L 317.188493 292.305968 
L 321.348318 290.912487 
L 325.469913 289.22606 
L 329.463866 287.258187 
L 333.296282 285.028983 
L 336.9405 282.567906 
L 340.403577 279.891992 
L 343.682929 277.018964 
L 346.784492 273.95613 
L 349.68343 270.739388 
L 352.394032 267.372604 
L 354.920764 263.856323 
L 357.238976 260.226676 
L 359.357618 256.485802 
L 361.275598 252.635047 
L 362.975448 248.712484 
L 364.470391 244.697868 
L 365.748343 240.612308 
L 366.802547 236.478586 
L 367.638231 232.278455 
L 368.241513 228.049333 
L 368.613117 223.801988 
L 368.752051 219.504349 
L 368.646913 215.246257 
L 368.309641 211.005283 
L 367.754969 206.862834 
L 367.000171 202.757679 
L 366.05732 198.722131 
L 364.943733 194.768828 
L 363.670434 190.884261 
L 362.253617 187.084067 
L 360.706895 183.369534 
L 359.040604 179.736297 
L 357.266628 176.188845 
L 355.39052 172.720515 
L 353.425253 169.341818 
L 349.247722 162.819094 
L 344.800843 156.608423 
L 340.141939 150.684937 
L 335.321706 145.015662 
L 330.360898 139.548594 
L 325.297672 134.262641 
L 317.609266 126.658271 
L 309.855273 119.312011 
L 292.271386 102.851148 
L 285.105013 95.737182 
L 275.075002 85.45289 
L 269.544096 80.166095 
L 266.585055 77.545215 
L 263.474238 74.976606 
L 260.221878 72.505079 
L 256.831233 70.156957 
L 253.333491 67.965315 
L 249.779408 65.955204 
L 246.112567 64.079632 
L 242.419021 62.386977 
L 238.628627 60.827986 
L 234.816863 59.440372 
L 230.951689 58.198914 
L 227.038754 57.107501 
L 223.123375 56.178226 
L 219.175135 55.39461 
L 215.262827 54.768431 
L 211.334304 54.27612 
L 207.420339 53.919574 
L 203.525355 53.688933 
L 195.788911 53.568 
L 188.128173 53.843605 
L 180.463315 54.466117 
L 172.630303 55.481226 
L 168.651621 56.184865 
L 164.664125 57.043595 
L 160.656107 58.079665 
L 156.650884 59.31382 
L 152.640077 60.777046 
L 148.689562 62.477261 
L 144.787831 64.439783 
L 141.015796 66.64647 
L 137.390337 69.083592 
L 133.936783 71.725148 
L 130.664832 74.545336 
L 127.53184 77.570921 
L 124.615162 80.730301 
L 121.849096 84.074187 
L 119.293524 87.544853 
L 116.929698 91.157364 
L 114.775548 94.891594 
L 112.862664 98.686366 
L 111.167315 102.550537 
L 109.697583 106.431844 
L 108.417578 110.36427 
L 107.337952 114.278652 
L 106.421326 118.210542 
L 105.658878 122.150292 
L 105.042609 126.063888 
L 104.54886 129.986193 
L 103.900081 137.725572 
L 103.61043 145.33437 
L 103.583459 152.783957 
L 103.847771 163.49791 
L 104.105857 170.291851 
L 104.105857 170.291851 
" style="fill:none;stroke:#ffffff;stroke-linecap:square;"/>
   </g>
   <g id="patch_3">
    <path d="M 57.6 307.584 
L 57.6 41.472 
" style="fill:none;stroke:#000000;stroke-linecap:square;stroke-linejoin:miter;stroke-width:0.8;"/>
   </g>
   <g id="patch_4">
    <path d="M 414.72 307.584 
L 414.72 41.472 
" style="fill:none;stroke:#000000;stroke-linecap:square;stroke-linejoin:miter;stroke-width:0.8;"/>
   </g>
   <g id="patch_5">
    <path d="M 57.6 307.584 
L 414.72 307.584 
" style="fill:none;stroke:#000000;stroke-linecap:square;stroke-linejoin:miter;stroke-width:0.8;"/>
   </g>
   <g id="patch_6">
    <path d="M 57.6 41.472 
L 414.72 41.472 
" style="fill:none;stroke:#000000;stroke-linecap:square;stroke-linejoin:miter;stroke-width:0.8;"/>
   </g>
  </g>
 </g>
 <defs>
  <clipPath id="pf10cb05e09">
   <rect height="266.112" width="357.12" x="57.6" y="41.472"/>
  </clipPath>
 </defs>
</svg>
