<?xml version="1.0" encoding="utf-8" standalone="no"?>
<!DOCTYPE svg PUBLIC "-//W3C//DTD SVG 1.1//EN"
  "http://www.w3.org/Graphics/SVG/1.1/DTD/svg11.dtd">
<!-- Created with matplotlib (https://matplotlib.org/) -->
<svg height="345.6pt" version="1.1" viewBox="0 0 460.8 345.6" width="460.8pt" xmlns="http://www.w3.org/2000/svg" xmlns:xlink="http://www.w3.org/1999/xlink">
 <metadata>
  <rdf:RDF xmlns:cc="http://creativecommons.org/ns#" xmlns:dc="http://purl.org/dc/elements/1.1/" xmlns:rdf="http://www.w3.org/1999/02/22-rdf-syntax-ns#">
   <cc:Work>
    <dc:type rdf:resource="http://purl.org/dc/dcmitype/StillImage"/>
    <dc:date>2021-01-22T11:18:04.191183</dc:date>
    <dc:format>image/svg+xml</dc:format>
    <dc:creator>
     <cc:Agent>
      <dc:title>Matplotlib v3.3.3, https://matplotlib.org/</dc:title>
     </cc:Agent>
    </dc:creator>
   </cc:Work>
  </rdf:RDF>
 </metadata>
 <defs>
  <style type="text/css">*{stroke-linecap:butt;stroke-linejoin:round;}</style>
 </defs>
 <g id="figure_1">
  <g id="patch_1">
   <path d="M 0 345.6 
L 460.8 345.6 
L 460.8 0 
L 0 0 
z
" style="fill:#ffffff;"/>
  </g>
  <g id="axes_1">
   <g id="patch_2">
    <path d="M 57.6 307.584 
L 414.72 307.584 
L 414.72 41.472 
L 57.6 41.472 
z
" style="fill:#7d9051;"/>
   </g>
   <g id="matplotlib.axis_1">
    <g id="xtick_1">
     <g id="line2d_1">
      <defs>
       <path d="M 0 0 
L 0 3.5 
" id="m70994ac127" style="stroke:#000000;stroke-width:0.8;"/>
      </defs>
      <g>
       <use style="stroke:#000000;stroke-width:0.8;" x="57.963324" xlink:href="#m70994ac127" y="307.584"/>
      </g>
     </g>
     <g id="text_1">
      <!-- −40 -->
      <g transform="translate(47.41098 322.182437)scale(0.1 -0.1)">
       <defs>
        <path d="M 10.59375 35.5 
L 73.1875 35.5 
L 73.1875 27.203125 
L 10.59375 27.203125 
z
" id="DejaVuSans-8722"/>
        <path d="M 37.796875 64.3125 
L 12.890625 25.390625 
L 37.796875 25.390625 
z
M 35.203125 72.90625 
L 47.609375 72.90625 
L 47.609375 25.390625 
L 58.015625 25.390625 
L 58.015625 17.1875 
L 47.609375 17.1875 
L 47.609375 0 
L 37.796875 0 
L 37.796875 17.1875 
L 4.890625 17.1875 
L 4.890625 26.703125 
z
" id="DejaVuSans-52"/>
        <path d="M 31.78125 66.40625 
Q 24.171875 66.40625 20.328125 58.90625 
Q 16.5 51.421875 16.5 36.375 
Q 16.5 21.390625 20.328125 13.890625 
Q 24.171875 6.390625 31.78125 6.390625 
Q 39.453125 6.390625 43.28125 13.890625 
Q 47.125 21.390625 47.125 36.375 
Q 47.125 51.421875 43.28125 58.90625 
Q 39.453125 66.40625 31.78125 66.40625 
z
M 31.78125 74.21875 
Q 44.046875 74.21875 50.515625 64.515625 
Q 56.984375 54.828125 56.984375 36.375 
Q 56.984375 17.96875 50.515625 8.265625 
Q 44.046875 -1.421875 31.78125 -1.421875 
Q 19.53125 -1.421875 13.0625 8.265625 
Q 6.59375 17.96875 6.59375 36.375 
Q 6.59375 54.828125 13.0625 64.515625 
Q 19.53125 74.21875 31.78125 74.21875 
z
" id="DejaVuSans-48"/>
       </defs>
       <use xlink:href="#DejaVuSans-8722"/>
       <use x="83.789062" xlink:href="#DejaVuSans-52"/>
       <use x="147.412109" xlink:href="#DejaVuSans-48"/>
      </g>
     </g>
    </g>
    <g id="xtick_2">
     <g id="line2d_2">
      <g>
       <use style="stroke:#000000;stroke-width:0.8;" x="99.902638" xlink:href="#m70994ac127" y="307.584"/>
      </g>
     </g>
     <g id="text_2">
      <!-- −20 -->
      <g transform="translate(89.350294 322.182437)scale(0.1 -0.1)">
       <defs>
        <path d="M 19.1875 8.296875 
L 53.609375 8.296875 
L 53.609375 0 
L 7.328125 0 
L 7.328125 8.296875 
Q 12.9375 14.109375 22.625 23.890625 
Q 32.328125 33.6875 34.8125 36.53125 
Q 39.546875 41.84375 41.421875 45.53125 
Q 43.3125 49.21875 43.3125 52.78125 
Q 43.3125 58.59375 39.234375 62.25 
Q 35.15625 65.921875 28.609375 65.921875 
Q 23.96875 65.921875 18.8125 64.3125 
Q 13.671875 62.703125 7.8125 59.421875 
L 7.8125 69.390625 
Q 13.765625 71.78125 18.9375 73 
Q 24.125 74.21875 28.421875 74.21875 
Q 39.75 74.21875 46.484375 68.546875 
Q 53.21875 62.890625 53.21875 53.421875 
Q 53.21875 48.921875 51.53125 44.890625 
Q 49.859375 40.875 45.40625 35.40625 
Q 44.1875 33.984375 37.640625 27.21875 
Q 31.109375 20.453125 19.1875 8.296875 
z
" id="DejaVuSans-50"/>
       </defs>
       <use xlink:href="#DejaVuSans-8722"/>
       <use x="83.789062" xlink:href="#DejaVuSans-50"/>
       <use x="147.412109" xlink:href="#DejaVuSans-48"/>
      </g>
     </g>
    </g>
    <g id="xtick_3">
     <g id="line2d_3">
      <g>
       <use style="stroke:#000000;stroke-width:0.8;" x="141.841951" xlink:href="#m70994ac127" y="307.584"/>
      </g>
     </g>
     <g id="text_3">
      <!-- 0 -->
      <g transform="translate(138.660701 322.182437)scale(0.1 -0.1)">
       <use xlink:href="#DejaVuSans-48"/>
      </g>
     </g>
    </g>
    <g id="xtick_4">
     <g id="line2d_4">
      <g>
       <use style="stroke:#000000;stroke-width:0.8;" x="183.781265" xlink:href="#m70994ac127" y="307.584"/>
      </g>
     </g>
     <g id="text_4">
      <!-- 20 -->
      <g transform="translate(177.418765 322.182437)scale(0.1 -0.1)">
       <use xlink:href="#DejaVuSans-50"/>
       <use x="63.623047" xlink:href="#DejaVuSans-48"/>
      </g>
     </g>
    </g>
    <g id="xtick_5">
     <g id="line2d_5">
      <g>
       <use style="stroke:#000000;stroke-width:0.8;" x="225.720578" xlink:href="#m70994ac127" y="307.584"/>
      </g>
     </g>
     <g id="text_5">
      <!-- 40 -->
      <g transform="translate(219.358078 322.182437)scale(0.1 -0.1)">
       <use xlink:href="#DejaVuSans-52"/>
       <use x="63.623047" xlink:href="#DejaVuSans-48"/>
      </g>
     </g>
    </g>
    <g id="xtick_6">
     <g id="line2d_6">
      <g>
       <use style="stroke:#000000;stroke-width:0.8;" x="267.659892" xlink:href="#m70994ac127" y="307.584"/>
      </g>
     </g>
     <g id="text_6">
      <!-- 60 -->
      <g transform="translate(261.297392 322.182437)scale(0.1 -0.1)">
       <defs>
        <path d="M 33.015625 40.375 
Q 26.375 40.375 22.484375 35.828125 
Q 18.609375 31.296875 18.609375 23.390625 
Q 18.609375 15.53125 22.484375 10.953125 
Q 26.375 6.390625 33.015625 6.390625 
Q 39.65625 6.390625 43.53125 10.953125 
Q 47.40625 15.53125 47.40625 23.390625 
Q 47.40625 31.296875 43.53125 35.828125 
Q 39.65625 40.375 33.015625 40.375 
z
M 52.59375 71.296875 
L 52.59375 62.3125 
Q 48.875 64.0625 45.09375 64.984375 
Q 41.3125 65.921875 37.59375 65.921875 
Q 27.828125 65.921875 22.671875 59.328125 
Q 17.53125 52.734375 16.796875 39.40625 
Q 19.671875 43.65625 24.015625 45.921875 
Q 28.375 48.1875 33.59375 48.1875 
Q 44.578125 48.1875 50.953125 41.515625 
Q 57.328125 34.859375 57.328125 23.390625 
Q 57.328125 12.15625 50.6875 5.359375 
Q 44.046875 -1.421875 33.015625 -1.421875 
Q 20.359375 -1.421875 13.671875 8.265625 
Q 6.984375 17.96875 6.984375 36.375 
Q 6.984375 53.65625 15.1875 63.9375 
Q 23.390625 74.21875 37.203125 74.21875 
Q 40.921875 74.21875 44.703125 73.484375 
Q 48.484375 72.75 52.59375 71.296875 
z
" id="DejaVuSans-54"/>
       </defs>
       <use xlink:href="#DejaVuSans-54"/>
       <use x="63.623047" xlink:href="#DejaVuSans-48"/>
      </g>
     </g>
    </g>
    <g id="xtick_7">
     <g id="line2d_7">
      <g>
       <use style="stroke:#000000;stroke-width:0.8;" x="309.599205" xlink:href="#m70994ac127" y="307.584"/>
      </g>
     </g>
     <g id="text_7">
      <!-- 80 -->
      <g transform="translate(303.236705 322.182437)scale(0.1 -0.1)">
       <defs>
        <path d="M 31.78125 34.625 
Q 24.75 34.625 20.71875 30.859375 
Q 16.703125 27.09375 16.703125 20.515625 
Q 16.703125 13.921875 20.71875 10.15625 
Q 24.75 6.390625 31.78125 6.390625 
Q 38.8125 6.390625 42.859375 10.171875 
Q 46.921875 13.96875 46.921875 20.515625 
Q 46.921875 27.09375 42.890625 30.859375 
Q 38.875 34.625 31.78125 34.625 
z
M 21.921875 38.8125 
Q 15.578125 40.375 12.03125 44.71875 
Q 8.5 49.078125 8.5 55.328125 
Q 8.5 64.0625 14.71875 69.140625 
Q 20.953125 74.21875 31.78125 74.21875 
Q 42.671875 74.21875 48.875 69.140625 
Q 55.078125 64.0625 55.078125 55.328125 
Q 55.078125 49.078125 51.53125 44.71875 
Q 48 40.375 41.703125 38.8125 
Q 48.828125 37.15625 52.796875 32.3125 
Q 56.78125 27.484375 56.78125 20.515625 
Q 56.78125 9.90625 50.3125 4.234375 
Q 43.84375 -1.421875 31.78125 -1.421875 
Q 19.734375 -1.421875 13.25 4.234375 
Q 6.78125 9.90625 6.78125 20.515625 
Q 6.78125 27.484375 10.78125 32.3125 
Q 14.796875 37.15625 21.921875 38.8125 
z
M 18.3125 54.390625 
Q 18.3125 48.734375 21.84375 45.5625 
Q 25.390625 42.390625 31.78125 42.390625 
Q 38.140625 42.390625 41.71875 45.5625 
Q 45.3125 48.734375 45.3125 54.390625 
Q 45.3125 60.0625 41.71875 63.234375 
Q 38.140625 66.40625 31.78125 66.40625 
Q 25.390625 66.40625 21.84375 63.234375 
Q 18.3125 60.0625 18.3125 54.390625 
z
" id="DejaVuSans-56"/>
       </defs>
       <use xlink:href="#DejaVuSans-56"/>
       <use x="63.623047" xlink:href="#DejaVuSans-48"/>
      </g>
     </g>
    </g>
    <g id="xtick_8">
     <g id="line2d_8">
      <g>
       <use style="stroke:#000000;stroke-width:0.8;" x="351.538519" xlink:href="#m70994ac127" y="307.584"/>
      </g>
     </g>
     <g id="text_8">
      <!-- 100 -->
      <g transform="translate(341.994769 322.182437)scale(0.1 -0.1)">
       <defs>
        <path d="M 12.40625 8.296875 
L 28.515625 8.296875 
L 28.515625 63.921875 
L 10.984375 60.40625 
L 10.984375 69.390625 
L 28.421875 72.90625 
L 38.28125 72.90625 
L 38.28125 8.296875 
L 54.390625 8.296875 
L 54.390625 0 
L 12.40625 0 
z
" id="DejaVuSans-49"/>
       </defs>
       <use xlink:href="#DejaVuSans-49"/>
       <use x="63.623047" xlink:href="#DejaVuSans-48"/>
       <use x="127.246094" xlink:href="#DejaVuSans-48"/>
      </g>
     </g>
    </g>
    <g id="xtick_9">
     <g id="line2d_9">
      <g>
       <use style="stroke:#000000;stroke-width:0.8;" x="393.477832" xlink:href="#m70994ac127" y="307.584"/>
      </g>
     </g>
     <g id="text_9">
      <!-- 120 -->
      <g transform="translate(383.934082 322.182437)scale(0.1 -0.1)">
       <use xlink:href="#DejaVuSans-49"/>
       <use x="63.623047" xlink:href="#DejaVuSans-50"/>
       <use x="127.246094" xlink:href="#DejaVuSans-48"/>
      </g>
     </g>
    </g>
   </g>
   <g id="matplotlib.axis_2">
    <g id="ytick_1">
     <g id="line2d_10">
      <defs>
       <path d="M 0 0 
L -3.5 0 
" id="md7459e98b3" style="stroke:#000000;stroke-width:0.8;"/>
      </defs>
      <g>
       <use style="stroke:#000000;stroke-width:0.8;" x="57.6" xlink:href="#md7459e98b3" y="273.065748"/>
      </g>
     </g>
     <g id="text_10">
      <!-- 20 -->
      <g transform="translate(37.875 276.864967)scale(0.1 -0.1)">
       <use xlink:href="#DejaVuSans-50"/>
       <use x="63.623047" xlink:href="#DejaVuSans-48"/>
      </g>
     </g>
    </g>
    <g id="ytick_2">
     <g id="line2d_11">
      <g>
       <use style="stroke:#000000;stroke-width:0.8;" x="57.6" xlink:href="#md7459e98b3" y="231.126435"/>
      </g>
     </g>
     <g id="text_11">
      <!-- 40 -->
      <g transform="translate(37.875 234.925654)scale(0.1 -0.1)">
       <use xlink:href="#DejaVuSans-52"/>
       <use x="63.623047" xlink:href="#DejaVuSans-48"/>
      </g>
     </g>
    </g>
    <g id="ytick_3">
     <g id="line2d_12">
      <g>
       <use style="stroke:#000000;stroke-width:0.8;" x="57.6" xlink:href="#md7459e98b3" y="189.187121"/>
      </g>
     </g>
     <g id="text_12">
      <!-- 60 -->
      <g transform="translate(37.875 192.98634)scale(0.1 -0.1)">
       <use xlink:href="#DejaVuSans-54"/>
       <use x="63.623047" xlink:href="#DejaVuSans-48"/>
      </g>
     </g>
    </g>
    <g id="ytick_4">
     <g id="line2d_13">
      <g>
       <use style="stroke:#000000;stroke-width:0.8;" x="57.6" xlink:href="#md7459e98b3" y="147.247808"/>
      </g>
     </g>
     <g id="text_13">
      <!-- 80 -->
      <g transform="translate(37.875 151.047026)scale(0.1 -0.1)">
       <use xlink:href="#DejaVuSans-56"/>
       <use x="63.623047" xlink:href="#DejaVuSans-48"/>
      </g>
     </g>
    </g>
    <g id="ytick_5">
     <g id="line2d_14">
      <g>
       <use style="stroke:#000000;stroke-width:0.8;" x="57.6" xlink:href="#md7459e98b3" y="105.308494"/>
      </g>
     </g>
     <g id="text_14">
      <!-- 100 -->
      <g transform="translate(31.5125 109.107713)scale(0.1 -0.1)">
       <use xlink:href="#DejaVuSans-49"/>
       <use x="63.623047" xlink:href="#DejaVuSans-48"/>
       <use x="127.246094" xlink:href="#DejaVuSans-48"/>
      </g>
     </g>
    </g>
    <g id="ytick_6">
     <g id="line2d_15">
      <g>
       <use style="stroke:#000000;stroke-width:0.8;" x="57.6" xlink:href="#md7459e98b3" y="63.369181"/>
      </g>
     </g>
     <g id="text_15">
      <!-- 120 -->
      <g transform="translate(31.5125 67.168399)scale(0.1 -0.1)">
       <use xlink:href="#DejaVuSans-49"/>
       <use x="63.623047" xlink:href="#DejaVuSans-50"/>
       <use x="127.246094" xlink:href="#DejaVuSans-48"/>
      </g>
     </g>
    </g>
   </g>
   <g id="line2d_16">
    <path clip-path="url(#p17cc2d27d0)" d="M 308.645086 294.035405 
L 309.299339 289.774371 
L 309.58872 285.548985 
L 309.555169 281.357151 
L 309.232236 277.196771 
L 308.661862 273.065748 
L 307.879693 268.95989 
L 306.399236 262.847235 
L 304.658754 256.78281 
L 300.877925 244.760906 
L 296.239437 230.83915 
L 293.412727 222.931493 
L 291.080901 217.08725 
L 289.373971 213.260287 
L 287.522351 209.500428 
L 284.492235 203.985408 
L 281.210484 198.606691 
L 277.725327 193.349598 
L 271.845435 184.653481 
L 269.660397 181.076058 
L 267.676667 177.381204 
L 265.948768 173.535369 
L 264.508152 169.559523 
L 263.367403 165.485118 
L 262.547489 161.347805 
L 262.067284 157.174843 
L 261.922594 152.997688 
L 262.037927 148.814241 
L 262.495065 142.531732 
L 263.128349 134.118706 
L 263.270943 129.899611 
L 263.226906 125.688904 
L 262.950107 121.499166 
L 262.400702 117.340883 
L 261.532558 113.232927 
L 260.330997 109.194172 
L 258.810697 105.251876 
L 256.99053 101.435399 
L 254.88308 97.776193 
L 252.507218 94.301521 
L 249.888108 91.015576 
L 247.063495 87.901582 
L 244.066931 84.94486 
L 240.938258 82.126539 
L 236.067007 78.125528 
L 232.713959 75.609169 
L 229.268644 73.220725 
L 225.722675 70.970681 
L 222.067664 68.865328 
L 218.301514 66.923537 
L 214.426321 65.204026 
L 210.452571 63.778089 
L 206.382361 62.714927 
L 204.312656 62.343764 
L 202.224078 62.087935 
L 200.116627 61.955826 
L 197.996595 61.949535 
L 195.876563 62.069062 
L 193.760724 62.314407 
L 191.659565 62.683473 
L 189.583569 63.174163 
L 187.541124 63.790671 
L 185.540619 64.528803 
L 183.588344 65.388559 
L 181.696881 66.369939 
L 179.872521 67.472942 
L 178.121554 68.689183 
L 176.448176 70.014465 
L 174.858676 71.436208 
L 173.357248 72.952314 
L 171.948087 74.552299 
L 170.637484 76.229871 
L 169.429632 77.978741 
L 168.330822 79.790519 
L 167.345248 81.658915 
L 166.475007 83.575542 
L 165.715905 85.536205 
L 164.503859 89.564476 
L 163.652491 93.701789 
L 163.10728 97.906205 
L 162.811608 102.133688 
L 162.713051 106.348589 
L 162.845159 112.64368 
L 163.354722 121.004282 
L 164.233351 133.537846 
L 164.453532 139.828743 
L 164.434659 144.03945 
L 164.434659 144.03945 
" style="fill:none;stroke:#fea952;stroke-linecap:square;"/>
   </g>
   <g id="line2d_17">
    <path clip-path="url(#p17cc2d27d0)" d="M 300.38396 292.58281 
L 300.944646 289.029155 
L 301.201276 285.465194 
L 301.183088 281.871448 
L 300.907853 278.226765 
L 300.404618 274.540256 
L 299.694348 270.791928 
L 298.312363 265.074055 
L 296.63623 259.231351 
L 292.901399 247.355376 
L 288.311829 233.579455 
L 285.5805 225.933567 
L 283.390914 220.436927 
L 280.977134 215.148929 
L 278.247563 209.965605 
L 275.226588 204.848528 
L 271.964333 199.798649 
L 263.523174 187.16569 
L 261.186098 183.093509 
L 259.068211 178.776185 
L 257.254531 174.272331 
L 255.778435 169.636504 
L 254.658436 164.891298 
L 253.913644 160.051544 
L 253.569364 155.220993 
L 253.572915 150.571096 
L 253.800897 146.103941 
L 254.835139 131.809107 
L 254.889478 127.984453 
L 254.759644 124.269064 
L 254.418889 120.664373 
L 253.838767 117.179715 
L 252.982511 113.755244 
L 251.844293 110.379404 
L 250.439355 107.084677 
L 248.783285 103.908742 
L 246.895958 100.881384 
L 244.760323 97.977806 
L 242.375443 95.167797 
L 239.772101 92.451239 
L 236.969616 89.810167 
L 232.49779 86.000867 
L 227.871219 82.457827 
L 223.090843 79.207645 
L 219.802094 77.2129 
L 216.451418 75.375356 
L 213.109537 73.754833 
L 209.780989 72.400683 
L 206.505051 71.36146 
L 203.292849 70.669402 
L 200.091738 70.343652 
L 196.842715 70.401096 
L 193.588987 70.846412 
L 190.444675 71.659955 
L 187.451348 72.833922 
L 184.657695 74.361944 
L 182.040195 76.266309 
L 179.651838 78.496173 
L 177.539277 80.996577 
L 175.749779 83.703998 
L 174.297078 86.60398 
L 173.149702 89.757156 
L 172.284916 93.143281 
L 171.680749 96.744151 
L 171.305619 100.493504 
L 171.127471 104.351834 
L 171.15209 110.246742 
L 171.436945 116.272521 
L 172.795517 137.551829 
L 172.821708 144.156285 
L 172.821708 144.156285 
" style="fill:none;stroke:#ffffff;stroke-linecap:square;"/>
   </g>
   <g id="line2d_18">
    <path clip-path="url(#p17cc2d27d0)" d="M 316.906212 295.488 
L 317.654032 290.519586 
L 317.976165 285.632776 
L 317.92725 280.842854 
L 317.556619 276.166776 
L 316.919105 271.591241 
L 316.065039 267.127851 
L 315.045511 262.768053 
L 313.298369 256.402124 
L 310.147877 246.198904 
L 305.534648 232.122743 
L 302.00592 221.973487 
L 299.631392 215.807975 
L 297.874481 211.682863 
L 295.954837 207.592913 
L 293.893885 203.606694 
L 290.580228 197.800926 
L 287.059602 192.209712 
L 282.269023 185.155821 
L 278.952194 180.198123 
L 276.985573 176.989734 
L 275.265406 173.808069 
L 273.78118 170.533776 
L 272.540207 167.14243 
L 271.561941 163.694645 
L 270.859046 160.218972 
L 270.443297 156.729132 
L 270.309507 153.12387 
L 270.410134 149.326482 
L 270.85285 143.241434 
L 271.5082 134.48522 
L 271.658789 129.916303 
L 271.603904 125.262104 
L 271.284289 120.551719 
L 270.640789 115.773339 
L 269.61847 111.002619 
L 268.214827 106.330352 
L 266.450711 101.789735 
L 264.336941 97.387376 
L 261.896692 93.175598 
L 259.157815 89.190182 
L 256.187644 85.477338 
L 253.032107 82.008204 
L 249.746531 78.772472 
L 246.373556 75.737973 
L 242.924266 72.858814 
L 239.37683 70.09934 
L 235.717349 67.46167 
L 231.927737 64.948113 
L 228.015506 62.585363 
L 223.947117 60.367376 
L 219.647655 58.305627 
L 215.12097 56.497553 
L 212.766824 55.715802 
L 210.352947 55.032999 
L 207.862948 54.458772 
L 205.332463 54.018127 
L 202.748854 53.716504 
L 200.141517 53.568 
L 197.524439 53.574972 
L 194.91041 53.737028 
L 192.309622 54.053018 
L 189.730143 54.520534 
L 187.159723 55.144143 
L 184.637573 55.921387 
L 182.160016 56.85236 
L 179.725339 57.943195 
L 177.357119 59.192006 
L 175.087346 60.583941 
L 172.913917 62.113716 
L 170.856156 63.76262 
L 168.89878 65.534015 
L 167.062658 67.408455 
L 165.338247 69.388361 
L 163.73569 71.463165 
L 162.257688 73.629089 
L 160.911865 75.87704 
L 159.707788 78.191141 
L 158.652935 80.547104 
L 157.744375 82.926428 
L 156.973603 85.312071 
L 155.787556 90.099917 
L 155.01192 94.853359 
L 154.556651 99.54639 
L 154.353151 104.134637 
L 154.337698 108.634053 
L 154.572108 115.223588 
L 155.147812 123.720596 
L 155.855173 133.940805 
L 156.065774 139.870557 
L 156.04761 143.922616 
L 156.04761 143.922616 
" style="fill:none;stroke:#ffffff;stroke-linecap:square;"/>
   </g>
   <g id="patch_3">
    <path d="M 57.6 307.584 
L 57.6 41.472 
" style="fill:none;stroke:#000000;stroke-linecap:square;stroke-linejoin:miter;stroke-width:0.8;"/>
   </g>
   <g id="patch_4">
    <path d="M 414.72 307.584 
L 414.72 41.472 
" style="fill:none;stroke:#000000;stroke-linecap:square;stroke-linejoin:miter;stroke-width:0.8;"/>
   </g>
   <g id="patch_5">
    <path d="M 57.6 307.584 
L 414.72 307.584 
" style="fill:none;stroke:#000000;stroke-linecap:square;stroke-linejoin:miter;stroke-width:0.8;"/>
   </g>
   <g id="patch_6">
    <path d="M 57.6 41.472 
L 414.72 41.472 
" style="fill:none;stroke:#000000;stroke-linecap:square;stroke-linejoin:miter;stroke-width:0.8;"/>
   </g>
  </g>
 </g>
 <defs>
  <clipPath id="p17cc2d27d0">
   <rect height="266.112" width="357.12" x="57.6" y="41.472"/>
  </clipPath>
 </defs>
</svg>
