<?xml version="1.0" encoding="utf-8" standalone="no"?>
<!DOCTYPE svg PUBLIC "-//W3C//DTD SVG 1.1//EN"
  "http://www.w3.org/Graphics/SVG/1.1/DTD/svg11.dtd">
<!-- Created with matplotlib (https://matplotlib.org/) -->
<svg height="345.6pt" version="1.1" viewBox="0 0 460.8 345.6" width="460.8pt" xmlns="http://www.w3.org/2000/svg" xmlns:xlink="http://www.w3.org/1999/xlink">
 <metadata>
  <rdf:RDF xmlns:cc="http://creativecommons.org/ns#" xmlns:dc="http://purl.org/dc/elements/1.1/" xmlns:rdf="http://www.w3.org/1999/02/22-rdf-syntax-ns#">
   <cc:Work>
    <dc:type rdf:resource="http://purl.org/dc/dcmitype/StillImage"/>
    <dc:date>2021-01-23T13:10:56.254287</dc:date>
    <dc:format>image/svg+xml</dc:format>
    <dc:creator>
     <cc:Agent>
      <dc:title>Matplotlib v3.3.3, https://matplotlib.org/</dc:title>
     </cc:Agent>
    </dc:creator>
   </cc:Work>
  </rdf:RDF>
 </metadata>
 <defs>
  <style type="text/css">*{stroke-linecap:butt;stroke-linejoin:round;}</style>
 </defs>
 <g id="figure_1">
  <g id="patch_1">
   <path d="M 0 345.6 
L 460.8 345.6 
L 460.8 0 
L 0 0 
z
" style="fill:#ffffff;"/>
  </g>
  <g id="axes_1">
   <g id="patch_2">
    <path d="M 57.6 307.584 
L 414.72 307.584 
L 414.72 41.472 
L 57.6 41.472 
z
" style="fill:#7d9051;"/>
   </g>
   <g id="matplotlib.axis_1">
    <g id="xtick_1">
     <g id="line2d_1">
      <defs>
       <path d="M 0 0 
L 0 3.5 
" id="md6ea6bd103" style="stroke:#000000;stroke-width:0.8;"/>
      </defs>
      <g>
       <use style="stroke:#000000;stroke-width:0.8;" x="57.643942" xlink:href="#md6ea6bd103" y="307.584"/>
      </g>
     </g>
     <g id="text_1">
      <!-- 0 -->
      <g transform="translate(54.462692 322.182437)scale(0.1 -0.1)">
       <defs>
        <path d="M 31.78125 66.40625 
Q 24.171875 66.40625 20.328125 58.90625 
Q 16.5 51.421875 16.5 36.375 
Q 16.5 21.390625 20.328125 13.890625 
Q 24.171875 6.390625 31.78125 6.390625 
Q 39.453125 6.390625 43.28125 13.890625 
Q 47.125 21.390625 47.125 36.375 
Q 47.125 51.421875 43.28125 58.90625 
Q 39.453125 66.40625 31.78125 66.40625 
z
M 31.78125 74.21875 
Q 44.046875 74.21875 50.515625 64.515625 
Q 56.984375 54.828125 56.984375 36.375 
Q 56.984375 17.96875 50.515625 8.265625 
Q 44.046875 -1.421875 31.78125 -1.421875 
Q 19.53125 -1.421875 13.0625 8.265625 
Q 6.59375 17.96875 6.59375 36.375 
Q 6.59375 54.828125 13.0625 64.515625 
Q 19.53125 74.21875 31.78125 74.21875 
z
" id="DejaVuSans-48"/>
       </defs>
       <use xlink:href="#DejaVuSans-48"/>
      </g>
     </g>
    </g>
    <g id="xtick_2">
     <g id="line2d_2">
      <g>
       <use style="stroke:#000000;stroke-width:0.8;" x="111.588139" xlink:href="#md6ea6bd103" y="307.584"/>
      </g>
     </g>
     <g id="text_2">
      <!-- 20 -->
      <g transform="translate(105.225639 322.182437)scale(0.1 -0.1)">
       <defs>
        <path d="M 19.1875 8.296875 
L 53.609375 8.296875 
L 53.609375 0 
L 7.328125 0 
L 7.328125 8.296875 
Q 12.9375 14.109375 22.625 23.890625 
Q 32.328125 33.6875 34.8125 36.53125 
Q 39.546875 41.84375 41.421875 45.53125 
Q 43.3125 49.21875 43.3125 52.78125 
Q 43.3125 58.59375 39.234375 62.25 
Q 35.15625 65.921875 28.609375 65.921875 
Q 23.96875 65.921875 18.8125 64.3125 
Q 13.671875 62.703125 7.8125 59.421875 
L 7.8125 69.390625 
Q 13.765625 71.78125 18.9375 73 
Q 24.125 74.21875 28.421875 74.21875 
Q 39.75 74.21875 46.484375 68.546875 
Q 53.21875 62.890625 53.21875 53.421875 
Q 53.21875 48.921875 51.53125 44.890625 
Q 49.859375 40.875 45.40625 35.40625 
Q 44.1875 33.984375 37.640625 27.21875 
Q 31.109375 20.453125 19.1875 8.296875 
z
" id="DejaVuSans-50"/>
       </defs>
       <use xlink:href="#DejaVuSans-50"/>
       <use x="63.623047" xlink:href="#DejaVuSans-48"/>
      </g>
     </g>
    </g>
    <g id="xtick_3">
     <g id="line2d_3">
      <g>
       <use style="stroke:#000000;stroke-width:0.8;" x="165.532337" xlink:href="#md6ea6bd103" y="307.584"/>
      </g>
     </g>
     <g id="text_3">
      <!-- 40 -->
      <g transform="translate(159.169837 322.182437)scale(0.1 -0.1)">
       <defs>
        <path d="M 37.796875 64.3125 
L 12.890625 25.390625 
L 37.796875 25.390625 
z
M 35.203125 72.90625 
L 47.609375 72.90625 
L 47.609375 25.390625 
L 58.015625 25.390625 
L 58.015625 17.1875 
L 47.609375 17.1875 
L 47.609375 0 
L 37.796875 0 
L 37.796875 17.1875 
L 4.890625 17.1875 
L 4.890625 26.703125 
z
" id="DejaVuSans-52"/>
       </defs>
       <use xlink:href="#DejaVuSans-52"/>
       <use x="63.623047" xlink:href="#DejaVuSans-48"/>
      </g>
     </g>
    </g>
    <g id="xtick_4">
     <g id="line2d_4">
      <g>
       <use style="stroke:#000000;stroke-width:0.8;" x="219.476534" xlink:href="#md6ea6bd103" y="307.584"/>
      </g>
     </g>
     <g id="text_4">
      <!-- 60 -->
      <g transform="translate(213.114034 322.182437)scale(0.1 -0.1)">
       <defs>
        <path d="M 33.015625 40.375 
Q 26.375 40.375 22.484375 35.828125 
Q 18.609375 31.296875 18.609375 23.390625 
Q 18.609375 15.53125 22.484375 10.953125 
Q 26.375 6.390625 33.015625 6.390625 
Q 39.65625 6.390625 43.53125 10.953125 
Q 47.40625 15.53125 47.40625 23.390625 
Q 47.40625 31.296875 43.53125 35.828125 
Q 39.65625 40.375 33.015625 40.375 
z
M 52.59375 71.296875 
L 52.59375 62.3125 
Q 48.875 64.0625 45.09375 64.984375 
Q 41.3125 65.921875 37.59375 65.921875 
Q 27.828125 65.921875 22.671875 59.328125 
Q 17.53125 52.734375 16.796875 39.40625 
Q 19.671875 43.65625 24.015625 45.921875 
Q 28.375 48.1875 33.59375 48.1875 
Q 44.578125 48.1875 50.953125 41.515625 
Q 57.328125 34.859375 57.328125 23.390625 
Q 57.328125 12.15625 50.6875 5.359375 
Q 44.046875 -1.421875 33.015625 -1.421875 
Q 20.359375 -1.421875 13.671875 8.265625 
Q 6.984375 17.96875 6.984375 36.375 
Q 6.984375 53.65625 15.1875 63.9375 
Q 23.390625 74.21875 37.203125 74.21875 
Q 40.921875 74.21875 44.703125 73.484375 
Q 48.484375 72.75 52.59375 71.296875 
z
" id="DejaVuSans-54"/>
       </defs>
       <use xlink:href="#DejaVuSans-54"/>
       <use x="63.623047" xlink:href="#DejaVuSans-48"/>
      </g>
     </g>
    </g>
    <g id="xtick_5">
     <g id="line2d_5">
      <g>
       <use style="stroke:#000000;stroke-width:0.8;" x="273.420732" xlink:href="#md6ea6bd103" y="307.584"/>
      </g>
     </g>
     <g id="text_5">
      <!-- 80 -->
      <g transform="translate(267.058232 322.182437)scale(0.1 -0.1)">
       <defs>
        <path d="M 31.78125 34.625 
Q 24.75 34.625 20.71875 30.859375 
Q 16.703125 27.09375 16.703125 20.515625 
Q 16.703125 13.921875 20.71875 10.15625 
Q 24.75 6.390625 31.78125 6.390625 
Q 38.8125 6.390625 42.859375 10.171875 
Q 46.921875 13.96875 46.921875 20.515625 
Q 46.921875 27.09375 42.890625 30.859375 
Q 38.875 34.625 31.78125 34.625 
z
M 21.921875 38.8125 
Q 15.578125 40.375 12.03125 44.71875 
Q 8.5 49.078125 8.5 55.328125 
Q 8.5 64.0625 14.71875 69.140625 
Q 20.953125 74.21875 31.78125 74.21875 
Q 42.671875 74.21875 48.875 69.140625 
Q 55.078125 64.0625 55.078125 55.328125 
Q 55.078125 49.078125 51.53125 44.71875 
Q 48 40.375 41.703125 38.8125 
Q 48.828125 37.15625 52.796875 32.3125 
Q 56.78125 27.484375 56.78125 20.515625 
Q 56.78125 9.90625 50.3125 4.234375 
Q 43.84375 -1.421875 31.78125 -1.421875 
Q 19.734375 -1.421875 13.25 4.234375 
Q 6.78125 9.90625 6.78125 20.515625 
Q 6.78125 27.484375 10.78125 32.3125 
Q 14.796875 37.15625 21.921875 38.8125 
z
M 18.3125 54.390625 
Q 18.3125 48.734375 21.84375 45.5625 
Q 25.390625 42.390625 31.78125 42.390625 
Q 38.140625 42.390625 41.71875 45.5625 
Q 45.3125 48.734375 45.3125 54.390625 
Q 45.3125 60.0625 41.71875 63.234375 
Q 38.140625 66.40625 31.78125 66.40625 
Q 25.390625 66.40625 21.84375 63.234375 
Q 18.3125 60.0625 18.3125 54.390625 
z
" id="DejaVuSans-56"/>
       </defs>
       <use xlink:href="#DejaVuSans-56"/>
       <use x="63.623047" xlink:href="#DejaVuSans-48"/>
      </g>
     </g>
    </g>
    <g id="xtick_6">
     <g id="line2d_6">
      <g>
       <use style="stroke:#000000;stroke-width:0.8;" x="327.364929" xlink:href="#md6ea6bd103" y="307.584"/>
      </g>
     </g>
     <g id="text_6">
      <!-- 100 -->
      <g transform="translate(317.821179 322.182437)scale(0.1 -0.1)">
       <defs>
        <path d="M 12.40625 8.296875 
L 28.515625 8.296875 
L 28.515625 63.921875 
L 10.984375 60.40625 
L 10.984375 69.390625 
L 28.421875 72.90625 
L 38.28125 72.90625 
L 38.28125 8.296875 
L 54.390625 8.296875 
L 54.390625 0 
L 12.40625 0 
z
" id="DejaVuSans-49"/>
       </defs>
       <use xlink:href="#DejaVuSans-49"/>
       <use x="63.623047" xlink:href="#DejaVuSans-48"/>
       <use x="127.246094" xlink:href="#DejaVuSans-48"/>
      </g>
     </g>
    </g>
    <g id="xtick_7">
     <g id="line2d_7">
      <g>
       <use style="stroke:#000000;stroke-width:0.8;" x="381.309127" xlink:href="#md6ea6bd103" y="307.584"/>
      </g>
     </g>
     <g id="text_7">
      <!-- 120 -->
      <g transform="translate(371.765377 322.182437)scale(0.1 -0.1)">
       <use xlink:href="#DejaVuSans-49"/>
       <use x="63.623047" xlink:href="#DejaVuSans-50"/>
       <use x="127.246094" xlink:href="#DejaVuSans-48"/>
      </g>
     </g>
    </g>
   </g>
   <g id="matplotlib.axis_2">
    <g id="ytick_1">
     <g id="line2d_8">
      <defs>
       <path d="M 0 0 
L -3.5 0 
" id="macf5428a6c" style="stroke:#000000;stroke-width:0.8;"/>
      </defs>
      <g>
       <use style="stroke:#000000;stroke-width:0.8;" x="57.6" xlink:href="#macf5428a6c" y="262.913894"/>
      </g>
     </g>
     <g id="text_8">
      <!-- 0 -->
      <g transform="translate(44.2375 266.713113)scale(0.1 -0.1)">
       <use xlink:href="#DejaVuSans-48"/>
      </g>
     </g>
    </g>
    <g id="ytick_2">
     <g id="line2d_9">
      <g>
       <use style="stroke:#000000;stroke-width:0.8;" x="57.6" xlink:href="#macf5428a6c" y="208.969696"/>
      </g>
     </g>
     <g id="text_9">
      <!-- 20 -->
      <g transform="translate(37.875 212.768915)scale(0.1 -0.1)">
       <use xlink:href="#DejaVuSans-50"/>
       <use x="63.623047" xlink:href="#DejaVuSans-48"/>
      </g>
     </g>
    </g>
    <g id="ytick_3">
     <g id="line2d_10">
      <g>
       <use style="stroke:#000000;stroke-width:0.8;" x="57.6" xlink:href="#macf5428a6c" y="155.025499"/>
      </g>
     </g>
     <g id="text_10">
      <!-- 40 -->
      <g transform="translate(37.875 158.824718)scale(0.1 -0.1)">
       <use xlink:href="#DejaVuSans-52"/>
       <use x="63.623047" xlink:href="#DejaVuSans-48"/>
      </g>
     </g>
    </g>
    <g id="ytick_4">
     <g id="line2d_11">
      <g>
       <use style="stroke:#000000;stroke-width:0.8;" x="57.6" xlink:href="#macf5428a6c" y="101.081301"/>
      </g>
     </g>
     <g id="text_11">
      <!-- 60 -->
      <g transform="translate(37.875 104.88052)scale(0.1 -0.1)">
       <use xlink:href="#DejaVuSans-54"/>
       <use x="63.623047" xlink:href="#DejaVuSans-48"/>
      </g>
     </g>
    </g>
    <g id="ytick_5">
     <g id="line2d_12">
      <g>
       <use style="stroke:#000000;stroke-width:0.8;" x="57.6" xlink:href="#macf5428a6c" y="47.137104"/>
      </g>
     </g>
     <g id="text_12">
      <!-- 80 -->
      <g transform="translate(37.875 50.936323)scale(0.1 -0.1)">
       <use xlink:href="#DejaVuSans-56"/>
       <use x="63.623047" xlink:href="#DejaVuSans-48"/>
      </g>
     </g>
    </g>
   </g>
   <g id="line2d_13">
    <path clip-path="url(#p93fec58421)" d="M 377.492575 115.066335 
L 379.337467 122.869363 
L 384.653667 143.875233 
L 385.764918 149.183342 
L 386.673877 154.513029 
L 387.329299 159.869688 
L 387.666451 165.253319 
L 387.636781 170.663922 
L 387.197136 176.079919 
L 386.81683 178.771735 
L 386.32324 181.450064 
L 385.719065 184.101421 
L 384.996213 186.720412 
L 384.154683 189.307036 
L 383.191779 191.847808 
L 382.102107 194.34003 
L 380.888362 196.775611 
L 379.550546 199.149155 
L 378.091356 201.45527 
L 376.516185 203.683165 
L 374.827732 205.827447 
L 373.034087 207.882721 
L 371.132554 209.840895 
L 369.133922 211.696576 
L 367.035492 213.44167 
L 364.845358 215.068088 
L 362.568913 216.573131 
L 360.208854 217.951405 
L 357.778668 219.202911 
L 355.286446 220.32495 
L 352.74028 221.317523 
L 350.148261 222.18063 
L 347.518482 222.908877 
L 344.86173 223.50496 
L 342.183401 223.963486 
L 339.496979 224.287151 
L 336.807861 224.473259 
L 334.116046 224.532597 
L 328.732415 224.322215 
L 323.354178 223.750407 
L 317.984034 222.919666 
L 309.959834 221.387651 
L 302.013854 219.610189 
L 296.79745 218.204943 
L 291.672751 216.559645 
L 286.66673 214.612259 
L 281.795569 212.322328 
L 277.06736 209.716824 
L 272.476709 206.838901 
L 268.026312 203.734412 
L 263.716171 200.441119 
L 259.538193 197.007571 
L 253.447893 191.680581 
L 239.381943 179.103491 
L 219.036889 161.407097 
L 210.983021 154.246005 
L 206.834712 150.790879 
L 202.535359 147.486797 
L 198.044505 144.395795 
L 193.362148 141.587999 
L 188.499079 139.147024 
L 186.00416 138.089718 
L 183.468783 137.153786 
L 180.895644 136.347321 
L 178.282048 135.686504 
L 175.636085 135.171337 
L 172.957756 134.804516 
L 170.260546 134.572556 
L 167.544456 134.475457 
L 164.822971 134.502429 
L 159.377304 134.909708 
L 153.980187 135.737751 
L 148.685564 136.940707 
L 143.509618 138.461933 
L 138.425378 140.247486 
L 133.413962 142.248816 
L 125.977754 145.539412 
L 118.622463 149.08894 
L 113.853796 151.686353 
L 109.279328 154.561579 
L 107.086496 156.128658 
L 104.971884 157.790139 
L 102.938187 159.562206 
L 100.998893 161.447556 
L 99.156699 163.440794 
L 97.416999 165.533829 
L 95.779792 167.718569 
L 94.253172 169.986922 
L 92.834439 172.3281 
L 91.534384 174.734011 
L 90.353006 177.196564 
L 89.2957 179.707666 
L 88.362465 182.25653 
L 87.558697 184.83776 
L 86.873605 187.445962 
L 85.832482 192.732493 
L 85.160877 198.097243 
L 84.788662 203.518635 
L 84.637618 208.969696 
L 84.66459 217.161123 
L 84.769782 230.660658 
L 84.616041 235.941795 
L 84.616041 235.941795 
" style="fill:none;stroke:#fea952;stroke-linecap:square;"/>
   </g>
   <g id="line2d_14">
    <path clip-path="url(#p93fec58421)" d="M 388.01985 112.705077 
L 389.790689 120.199305 
L 395.195588 141.580247 
L 396.380249 147.256218 
L 397.363982 153.056759 
L 398.085207 159.027358 
L 398.454382 165.113356 
L 398.487273 168.21375 
L 398.405149 171.328239 
L 398.204107 174.455565 
L 397.879885 177.589205 
L 397.426998 180.727083 
L 396.842424 183.847111 
L 396.119048 186.971859 
L 395.255744 190.058237 
L 394.243323 193.130438 
L 393.077036 196.169933 
L 391.758346 199.152109 
L 390.287084 202.073072 
L 388.667573 204.917941 
L 386.900759 207.68371 
L 384.992613 210.357686 
L 382.956405 212.921368 
L 380.774069 215.398819 
L 378.473423 217.747267 
L 376.032375 219.991779 
L 373.467761 222.103366 
L 370.795435 224.067846 
L 368.00973 225.889599 
L 365.1484 227.543066 
L 362.207797 229.040688 
L 359.205041 230.376998 
L 356.148815 231.55378 
L 353.027577 232.578159 
L 349.880405 233.436003 
L 346.682275 234.139088 
L 343.473928 234.674863 
L 340.241868 235.050246 
L 337.045634 235.259478 
L 333.89988 235.319271 
L 330.79828 235.249319 
L 324.743457 234.78702 
L 318.91317 234.007218 
L 313.276184 233.030399 
L 304.954286 231.359992 
L 299.323818 230.058288 
L 293.64283 228.522279 
L 287.924927 226.676605 
L 282.239821 224.451037 
L 276.734717 221.850541 
L 271.45978 218.933879 
L 266.403287 215.755885 
L 261.558158 212.369344 
L 256.937143 208.834201 
L 252.514244 205.196783 
L 246.223383 199.693416 
L 232.32874 187.267521 
L 211.807006 169.415084 
L 204.011635 162.48001 
L 200.156793 159.264631 
L 196.284705 156.280453 
L 192.333137 153.5489 
L 188.328919 151.130832 
L 184.289361 149.080671 
L 180.24214 147.448826 
L 178.251038 146.80701 
L 176.220186 146.276489 
L 174.172126 145.860391 
L 169.875094 145.354508 
L 165.409034 145.275339 
L 160.815055 145.602319 
L 156.194713 146.296867 
L 151.572575 147.336101 
L 146.966689 148.6819 
L 142.331586 150.304354 
L 137.662596 152.16588 
L 130.535511 155.318262 
L 123.656152 158.63153 
L 119.437799 160.917711 
L 115.552256 163.339359 
L 112.059566 165.924253 
L 110.458701 167.297898 
L 108.922047 168.770308 
L 107.453672 170.337118 
L 104.730366 173.742379 
L 102.326173 177.457042 
L 100.296382 181.383249 
L 98.663447 185.46415 
L 97.416594 189.736037 
L 96.515458 194.240171 
L 95.914706 198.965698 
L 95.570255 203.913996 
L 95.426269 209.033598 
L 95.452238 217.000751 
L 95.556389 230.880121 
L 95.39712 236.350923 
L 95.39712 236.350923 
" style="fill:none;stroke:#ffffff;stroke-linecap:square;"/>
   </g>
   <g id="line2d_15">
    <path clip-path="url(#p93fec58421)" d="M 366.9653 117.427593 
L 368.884245 125.539421 
L 374.111746 146.170219 
L 375.149587 151.110466 
L 375.983773 155.9693 
L 376.573392 160.712018 
L 376.878519 165.393282 
L 376.868414 169.999605 
L 376.514388 174.570633 
L 375.804057 179.053017 
L 374.736681 183.382588 
L 373.306523 187.525683 
L 371.489641 191.478149 
L 369.281952 195.226829 
L 368.039757 197.008644 
L 365.294105 200.366623 
L 362.235468 203.401372 
L 360.603223 204.779975 
L 358.895281 206.06833 
L 357.128096 207.256664 
L 355.269309 208.359745 
L 353.349539 209.365133 
L 351.367851 210.272902 
L 347.268946 211.783102 
L 343.041184 212.870833 
L 338.752091 213.524057 
L 334.332212 213.745924 
L 329.713077 213.578037 
L 324.897959 213.072589 
L 319.908355 212.303827 
L 312.176511 210.828986 
L 304.70389 209.162091 
L 299.95207 207.887607 
L 295.420576 206.442685 
L 291.093638 204.773482 
L 286.85642 202.794115 
L 282.674939 200.499768 
L 278.55013 197.921916 
L 274.494466 195.09948 
L 270.495199 192.048036 
L 266.562142 188.818358 
L 260.672403 183.667747 
L 246.435147 170.939462 
L 226.266772 153.399111 
L 217.954406 146.012 
L 213.51263 142.317128 
L 208.786014 138.693142 
L 203.755872 135.242689 
L 201.111334 133.600519 
L 198.395378 132.045167 
L 195.597839 130.579567 
L 192.708797 129.213378 
L 189.740405 127.968477 
L 186.695425 126.858747 
L 183.540251 125.887631 
L 180.343911 125.096519 
L 177.100044 124.482283 
L 173.882184 124.055354 
L 170.645998 123.790605 
L 167.437535 123.687147 
L 164.236907 123.729519 
L 161.073211 123.910535 
L 157.939553 124.217097 
L 154.835136 124.642045 
L 148.75192 125.816852 
L 142.885632 127.359314 
L 137.265846 129.187652 
L 131.815659 131.242769 
L 126.554345 133.451264 
L 118.842101 136.96287 
L 113.588773 139.54635 
L 108.269793 142.454995 
L 105.642377 144.051719 
L 103.0064 145.783798 
L 100.420919 147.645195 
L 97.884201 149.656025 
L 95.417674 151.826513 
L 93.07574 154.124804 
L 90.859726 156.544469 
L 88.78337 159.063936 
L 86.829219 161.694758 
L 85.026294 164.395519 
L 83.342705 167.199159 
L 81.806999 170.067424 
L 80.40963 173.009879 
L 79.164582 175.998284 
L 78.061483 179.04891 
L 77.123828 182.096853 
L 76.330617 185.155886 
L 75.677778 188.199801 
L 74.729939 194.23559 
L 74.170806 200.192832 
L 73.901927 206.037598 
L 73.846719 214.548809 
L 73.983174 230.441195 
L 73.834961 235.532667 
L 73.834961 235.532667 
" style="fill:none;stroke:#ffffff;stroke-linecap:square;"/>
   </g>
   <g id="patch_3">
    <path d="M 57.6 307.584 
L 57.6 41.472 
" style="fill:none;stroke:#000000;stroke-linecap:square;stroke-linejoin:miter;stroke-width:0.8;"/>
   </g>
   <g id="patch_4">
    <path d="M 414.72 307.584 
L 414.72 41.472 
" style="fill:none;stroke:#000000;stroke-linecap:square;stroke-linejoin:miter;stroke-width:0.8;"/>
   </g>
   <g id="patch_5">
    <path d="M 57.6 307.584 
L 414.72 307.584 
" style="fill:none;stroke:#000000;stroke-linecap:square;stroke-linejoin:miter;stroke-width:0.8;"/>
   </g>
   <g id="patch_6">
    <path d="M 57.6 41.472 
L 414.72 41.472 
" style="fill:none;stroke:#000000;stroke-linecap:square;stroke-linejoin:miter;stroke-width:0.8;"/>
   </g>
  </g>
 </g>
 <defs>
  <clipPath id="p93fec58421">
   <rect height="266.112" width="357.12" x="57.6" y="41.472"/>
  </clipPath>
 </defs>
</svg>
