<?xml version="1.0" encoding="utf-8" standalone="no"?>
<!DOCTYPE svg PUBLIC "-//W3C//DTD SVG 1.1//EN"
  "http://www.w3.org/Graphics/SVG/1.1/DTD/svg11.dtd">
<!-- Created with matplotlib (https://matplotlib.org/) -->
<svg height="345.6pt" version="1.1" viewBox="0 0 460.8 345.6" width="460.8pt" xmlns="http://www.w3.org/2000/svg" xmlns:xlink="http://www.w3.org/1999/xlink">
 <metadata>
  <rdf:RDF xmlns:cc="http://creativecommons.org/ns#" xmlns:dc="http://purl.org/dc/elements/1.1/" xmlns:rdf="http://www.w3.org/1999/02/22-rdf-syntax-ns#">
   <cc:Work>
    <dc:type rdf:resource="http://purl.org/dc/dcmitype/StillImage"/>
    <dc:date>2021-01-25T14:08:30.951591</dc:date>
    <dc:format>image/svg+xml</dc:format>
    <dc:creator>
     <cc:Agent>
      <dc:title>Matplotlib v3.3.3, https://matplotlib.org/</dc:title>
     </cc:Agent>
    </dc:creator>
   </cc:Work>
  </rdf:RDF>
 </metadata>
 <defs>
  <style type="text/css">*{stroke-linecap:butt;stroke-linejoin:round;}</style>
 </defs>
 <g id="figure_1">
  <g id="patch_1">
   <path d="M 0 345.6 
L 460.8 345.6 
L 460.8 0 
L 0 0 
z
" style="fill:#ffffff;"/>
  </g>
  <g id="axes_1">
   <g id="patch_2">
    <path d="M 57.6 307.584 
L 414.72 307.584 
L 414.72 41.472 
L 57.6 41.472 
z
" style="fill:#7d9051;"/>
   </g>
   <g id="matplotlib.axis_1">
    <g id="xtick_1">
     <g id="line2d_1">
      <defs>
       <path d="M 0 0 
L 0 3.5 
" id="mab6e32a3b1" style="stroke:#000000;stroke-width:0.8;"/>
      </defs>
      <g>
       <use style="stroke:#000000;stroke-width:0.8;" x="126.364849" xlink:href="#mab6e32a3b1" y="307.584"/>
      </g>
     </g>
     <g id="text_1">
      <!-- 20 -->
      <g transform="translate(120.002349 322.182437)scale(0.1 -0.1)">
       <defs>
        <path d="M 19.1875 8.296875 
L 53.609375 8.296875 
L 53.609375 0 
L 7.328125 0 
L 7.328125 8.296875 
Q 12.9375 14.109375 22.625 23.890625 
Q 32.328125 33.6875 34.8125 36.53125 
Q 39.546875 41.84375 41.421875 45.53125 
Q 43.3125 49.21875 43.3125 52.78125 
Q 43.3125 58.59375 39.234375 62.25 
Q 35.15625 65.921875 28.609375 65.921875 
Q 23.96875 65.921875 18.8125 64.3125 
Q 13.671875 62.703125 7.8125 59.421875 
L 7.8125 69.390625 
Q 13.765625 71.78125 18.9375 73 
Q 24.125 74.21875 28.421875 74.21875 
Q 39.75 74.21875 46.484375 68.546875 
Q 53.21875 62.890625 53.21875 53.421875 
Q 53.21875 48.921875 51.53125 44.890625 
Q 49.859375 40.875 45.40625 35.40625 
Q 44.1875 33.984375 37.640625 27.21875 
Q 31.109375 20.453125 19.1875 8.296875 
z
" id="DejaVuSans-50"/>
        <path d="M 31.78125 66.40625 
Q 24.171875 66.40625 20.328125 58.90625 
Q 16.5 51.421875 16.5 36.375 
Q 16.5 21.390625 20.328125 13.890625 
Q 24.171875 6.390625 31.78125 6.390625 
Q 39.453125 6.390625 43.28125 13.890625 
Q 47.125 21.390625 47.125 36.375 
Q 47.125 51.421875 43.28125 58.90625 
Q 39.453125 66.40625 31.78125 66.40625 
z
M 31.78125 74.21875 
Q 44.046875 74.21875 50.515625 64.515625 
Q 56.984375 54.828125 56.984375 36.375 
Q 56.984375 17.96875 50.515625 8.265625 
Q 44.046875 -1.421875 31.78125 -1.421875 
Q 19.53125 -1.421875 13.0625 8.265625 
Q 6.59375 17.96875 6.59375 36.375 
Q 6.59375 54.828125 13.0625 64.515625 
Q 19.53125 74.21875 31.78125 74.21875 
z
" id="DejaVuSans-48"/>
       </defs>
       <use xlink:href="#DejaVuSans-50"/>
       <use x="63.623047" xlink:href="#DejaVuSans-48"/>
      </g>
     </g>
    </g>
    <g id="xtick_2">
     <g id="line2d_2">
      <g>
       <use style="stroke:#000000;stroke-width:0.8;" x="200.612292" xlink:href="#mab6e32a3b1" y="307.584"/>
      </g>
     </g>
     <g id="text_2">
      <!-- 40 -->
      <g transform="translate(194.249792 322.182437)scale(0.1 -0.1)">
       <defs>
        <path d="M 37.796875 64.3125 
L 12.890625 25.390625 
L 37.796875 25.390625 
z
M 35.203125 72.90625 
L 47.609375 72.90625 
L 47.609375 25.390625 
L 58.015625 25.390625 
L 58.015625 17.1875 
L 47.609375 17.1875 
L 47.609375 0 
L 37.796875 0 
L 37.796875 17.1875 
L 4.890625 17.1875 
L 4.890625 26.703125 
z
" id="DejaVuSans-52"/>
       </defs>
       <use xlink:href="#DejaVuSans-52"/>
       <use x="63.623047" xlink:href="#DejaVuSans-48"/>
      </g>
     </g>
    </g>
    <g id="xtick_3">
     <g id="line2d_3">
      <g>
       <use style="stroke:#000000;stroke-width:0.8;" x="274.859736" xlink:href="#mab6e32a3b1" y="307.584"/>
      </g>
     </g>
     <g id="text_3">
      <!-- 60 -->
      <g transform="translate(268.497236 322.182437)scale(0.1 -0.1)">
       <defs>
        <path d="M 33.015625 40.375 
Q 26.375 40.375 22.484375 35.828125 
Q 18.609375 31.296875 18.609375 23.390625 
Q 18.609375 15.53125 22.484375 10.953125 
Q 26.375 6.390625 33.015625 6.390625 
Q 39.65625 6.390625 43.53125 10.953125 
Q 47.40625 15.53125 47.40625 23.390625 
Q 47.40625 31.296875 43.53125 35.828125 
Q 39.65625 40.375 33.015625 40.375 
z
M 52.59375 71.296875 
L 52.59375 62.3125 
Q 48.875 64.0625 45.09375 64.984375 
Q 41.3125 65.921875 37.59375 65.921875 
Q 27.828125 65.921875 22.671875 59.328125 
Q 17.53125 52.734375 16.796875 39.40625 
Q 19.671875 43.65625 24.015625 45.921875 
Q 28.375 48.1875 33.59375 48.1875 
Q 44.578125 48.1875 50.953125 41.515625 
Q 57.328125 34.859375 57.328125 23.390625 
Q 57.328125 12.15625 50.6875 5.359375 
Q 44.046875 -1.421875 33.015625 -1.421875 
Q 20.359375 -1.421875 13.671875 8.265625 
Q 6.984375 17.96875 6.984375 36.375 
Q 6.984375 53.65625 15.1875 63.9375 
Q 23.390625 74.21875 37.203125 74.21875 
Q 40.921875 74.21875 44.703125 73.484375 
Q 48.484375 72.75 52.59375 71.296875 
z
" id="DejaVuSans-54"/>
       </defs>
       <use xlink:href="#DejaVuSans-54"/>
       <use x="63.623047" xlink:href="#DejaVuSans-48"/>
      </g>
     </g>
    </g>
    <g id="xtick_4">
     <g id="line2d_4">
      <g>
       <use style="stroke:#000000;stroke-width:0.8;" x="349.10718" xlink:href="#mab6e32a3b1" y="307.584"/>
      </g>
     </g>
     <g id="text_4">
      <!-- 80 -->
      <g transform="translate(342.74468 322.182437)scale(0.1 -0.1)">
       <defs>
        <path d="M 31.78125 34.625 
Q 24.75 34.625 20.71875 30.859375 
Q 16.703125 27.09375 16.703125 20.515625 
Q 16.703125 13.921875 20.71875 10.15625 
Q 24.75 6.390625 31.78125 6.390625 
Q 38.8125 6.390625 42.859375 10.171875 
Q 46.921875 13.96875 46.921875 20.515625 
Q 46.921875 27.09375 42.890625 30.859375 
Q 38.875 34.625 31.78125 34.625 
z
M 21.921875 38.8125 
Q 15.578125 40.375 12.03125 44.71875 
Q 8.5 49.078125 8.5 55.328125 
Q 8.5 64.0625 14.71875 69.140625 
Q 20.953125 74.21875 31.78125 74.21875 
Q 42.671875 74.21875 48.875 69.140625 
Q 55.078125 64.0625 55.078125 55.328125 
Q 55.078125 49.078125 51.53125 44.71875 
Q 48 40.375 41.703125 38.8125 
Q 48.828125 37.15625 52.796875 32.3125 
Q 56.78125 27.484375 56.78125 20.515625 
Q 56.78125 9.90625 50.3125 4.234375 
Q 43.84375 -1.421875 31.78125 -1.421875 
Q 19.734375 -1.421875 13.25 4.234375 
Q 6.78125 9.90625 6.78125 20.515625 
Q 6.78125 27.484375 10.78125 32.3125 
Q 14.796875 37.15625 21.921875 38.8125 
z
M 18.3125 54.390625 
Q 18.3125 48.734375 21.84375 45.5625 
Q 25.390625 42.390625 31.78125 42.390625 
Q 38.140625 42.390625 41.71875 45.5625 
Q 45.3125 48.734375 45.3125 54.390625 
Q 45.3125 60.0625 41.71875 63.234375 
Q 38.140625 66.40625 31.78125 66.40625 
Q 25.390625 66.40625 21.84375 63.234375 
Q 18.3125 60.0625 18.3125 54.390625 
z
" id="DejaVuSans-56"/>
       </defs>
       <use xlink:href="#DejaVuSans-56"/>
       <use x="63.623047" xlink:href="#DejaVuSans-48"/>
      </g>
     </g>
    </g>
   </g>
   <g id="matplotlib.axis_2">
    <g id="ytick_1">
     <g id="line2d_5">
      <defs>
       <path d="M 0 0 
L -3.5 0 
" id="m184cdd64d8" style="stroke:#000000;stroke-width:0.8;"/>
      </defs>
      <g>
       <use style="stroke:#000000;stroke-width:0.8;" x="57.6" xlink:href="#m184cdd64d8" y="285.804992"/>
      </g>
     </g>
     <g id="text_5">
      <!-- 0 -->
      <g transform="translate(44.2375 289.60421)scale(0.1 -0.1)">
       <use xlink:href="#DejaVuSans-48"/>
      </g>
     </g>
    </g>
    <g id="ytick_2">
     <g id="line2d_6">
      <g>
       <use style="stroke:#000000;stroke-width:0.8;" x="57.6" xlink:href="#m184cdd64d8" y="248.68127"/>
      </g>
     </g>
     <g id="text_6">
      <!-- 10 -->
      <g transform="translate(37.875 252.480489)scale(0.1 -0.1)">
       <defs>
        <path d="M 12.40625 8.296875 
L 28.515625 8.296875 
L 28.515625 63.921875 
L 10.984375 60.40625 
L 10.984375 69.390625 
L 28.421875 72.90625 
L 38.28125 72.90625 
L 38.28125 8.296875 
L 54.390625 8.296875 
L 54.390625 0 
L 12.40625 0 
z
" id="DejaVuSans-49"/>
       </defs>
       <use xlink:href="#DejaVuSans-49"/>
       <use x="63.623047" xlink:href="#DejaVuSans-48"/>
      </g>
     </g>
    </g>
    <g id="ytick_3">
     <g id="line2d_7">
      <g>
       <use style="stroke:#000000;stroke-width:0.8;" x="57.6" xlink:href="#m184cdd64d8" y="211.557548"/>
      </g>
     </g>
     <g id="text_7">
      <!-- 20 -->
      <g transform="translate(37.875 215.356767)scale(0.1 -0.1)">
       <use xlink:href="#DejaVuSans-50"/>
       <use x="63.623047" xlink:href="#DejaVuSans-48"/>
      </g>
     </g>
    </g>
    <g id="ytick_4">
     <g id="line2d_8">
      <g>
       <use style="stroke:#000000;stroke-width:0.8;" x="57.6" xlink:href="#m184cdd64d8" y="174.433826"/>
      </g>
     </g>
     <g id="text_8">
      <!-- 30 -->
      <g transform="translate(37.875 178.233045)scale(0.1 -0.1)">
       <defs>
        <path d="M 40.578125 39.3125 
Q 47.65625 37.796875 51.625 33 
Q 55.609375 28.21875 55.609375 21.1875 
Q 55.609375 10.40625 48.1875 4.484375 
Q 40.765625 -1.421875 27.09375 -1.421875 
Q 22.515625 -1.421875 17.65625 -0.515625 
Q 12.796875 0.390625 7.625 2.203125 
L 7.625 11.71875 
Q 11.71875 9.328125 16.59375 8.109375 
Q 21.484375 6.890625 26.8125 6.890625 
Q 36.078125 6.890625 40.9375 10.546875 
Q 45.796875 14.203125 45.796875 21.1875 
Q 45.796875 27.640625 41.28125 31.265625 
Q 36.765625 34.90625 28.71875 34.90625 
L 20.21875 34.90625 
L 20.21875 43.015625 
L 29.109375 43.015625 
Q 36.375 43.015625 40.234375 45.921875 
Q 44.09375 48.828125 44.09375 54.296875 
Q 44.09375 59.90625 40.109375 62.90625 
Q 36.140625 65.921875 28.71875 65.921875 
Q 24.65625 65.921875 20.015625 65.03125 
Q 15.375 64.15625 9.8125 62.3125 
L 9.8125 71.09375 
Q 15.4375 72.65625 20.34375 73.4375 
Q 25.25 74.21875 29.59375 74.21875 
Q 40.828125 74.21875 47.359375 69.109375 
Q 53.90625 64.015625 53.90625 55.328125 
Q 53.90625 49.265625 50.4375 45.09375 
Q 46.96875 40.921875 40.578125 39.3125 
z
" id="DejaVuSans-51"/>
       </defs>
       <use xlink:href="#DejaVuSans-51"/>
       <use x="63.623047" xlink:href="#DejaVuSans-48"/>
      </g>
     </g>
    </g>
    <g id="ytick_5">
     <g id="line2d_9">
      <g>
       <use style="stroke:#000000;stroke-width:0.8;" x="57.6" xlink:href="#m184cdd64d8" y="137.310105"/>
      </g>
     </g>
     <g id="text_9">
      <!-- 40 -->
      <g transform="translate(37.875 141.109323)scale(0.1 -0.1)">
       <use xlink:href="#DejaVuSans-52"/>
       <use x="63.623047" xlink:href="#DejaVuSans-48"/>
      </g>
     </g>
    </g>
    <g id="ytick_6">
     <g id="line2d_10">
      <g>
       <use style="stroke:#000000;stroke-width:0.8;" x="57.6" xlink:href="#m184cdd64d8" y="100.186383"/>
      </g>
     </g>
     <g id="text_10">
      <!-- 50 -->
      <g transform="translate(37.875 103.985602)scale(0.1 -0.1)">
       <defs>
        <path d="M 10.796875 72.90625 
L 49.515625 72.90625 
L 49.515625 64.59375 
L 19.828125 64.59375 
L 19.828125 46.734375 
Q 21.96875 47.46875 24.109375 47.828125 
Q 26.265625 48.1875 28.421875 48.1875 
Q 40.625 48.1875 47.75 41.5 
Q 54.890625 34.8125 54.890625 23.390625 
Q 54.890625 11.625 47.5625 5.09375 
Q 40.234375 -1.421875 26.90625 -1.421875 
Q 22.3125 -1.421875 17.546875 -0.640625 
Q 12.796875 0.140625 7.71875 1.703125 
L 7.71875 11.625 
Q 12.109375 9.234375 16.796875 8.0625 
Q 21.484375 6.890625 26.703125 6.890625 
Q 35.15625 6.890625 40.078125 11.328125 
Q 45.015625 15.765625 45.015625 23.390625 
Q 45.015625 31 40.078125 35.4375 
Q 35.15625 39.890625 26.703125 39.890625 
Q 22.75 39.890625 18.8125 39.015625 
Q 14.890625 38.140625 10.796875 36.28125 
z
" id="DejaVuSans-53"/>
       </defs>
       <use xlink:href="#DejaVuSans-53"/>
       <use x="63.623047" xlink:href="#DejaVuSans-48"/>
      </g>
     </g>
    </g>
    <g id="ytick_7">
     <g id="line2d_11">
      <g>
       <use style="stroke:#000000;stroke-width:0.8;" x="57.6" xlink:href="#m184cdd64d8" y="63.062661"/>
      </g>
     </g>
     <g id="text_11">
      <!-- 60 -->
      <g transform="translate(37.875 66.86188)scale(0.1 -0.1)">
       <use xlink:href="#DejaVuSans-54"/>
       <use x="63.623047" xlink:href="#DejaVuSans-48"/>
      </g>
     </g>
    </g>
   </g>
   <g id="line2d_12">
    <path clip-path="url(#paea10a4360)" d="M 255.091354 187.170975 
L 254.063027 183.480877 
L 253.276004 179.76108 
L 252.726573 176.015297 
L 252.407309 172.262089 
L 252.318212 168.505168 
L 252.451858 164.755672 
L 252.804533 161.02845 
L 253.368813 157.327215 
L 254.144699 153.663104 
L 255.121053 150.047254 
L 256.297875 146.490801 
L 257.66774 143.001171 
L 259.226937 139.589501 
L 260.971752 136.266928 
L 262.898473 133.040877 
L 264.995963 129.922484 
L 267.264223 126.919175 
L 269.699539 124.045799 
L 272.294487 121.313493 
L 275.045355 118.722257 
L 277.944717 116.290653 
L 280.981438 114.029819 
L 284.148091 111.947178 
L 287.426116 110.053868 
L 290.808087 108.361026 
L 294.279155 106.87979 
L 297.828183 105.621296 
L 301.440321 104.600393 
L 305.104432 103.820795 
L 308.813092 103.297351 
L 312.547738 103.037485 
L 316.293522 103.037485 
L 320.043018 103.282501 
L 323.777664 103.768822 
L 327.482612 104.481597 
L 331.146723 105.417115 
L 334.751436 106.564238 
L 338.289327 107.911829 
L 341.738121 109.452464 
L 345.090393 111.175004 
L 348.327581 113.072027 
L 351.453399 115.136106 
L 354.46042 117.359817 
L 357.344933 119.735735 
L 360.106938 122.252723 
L 362.746435 124.907069 
L 365.255999 127.691348 
L 367.639341 130.594423 
L 369.889039 133.616294 
L 372.008804 136.742112 
L 373.987498 139.964451 
L 375.82141 143.279599 
L 377.491977 146.67642 
L 378.988063 150.143775 
L 380.302243 153.677954 
L 381.415955 157.267817 
L 382.318061 160.90223 
L 382.997425 164.573766 
L 383.44291 168.275001 
L 383.639666 171.994798 
L 383.580268 175.725732 
L 383.268428 179.456666 
L 382.715285 183.169038 
L 381.92455 186.847999 
L 380.914784 190.486124 
L 379.685989 194.061138 
L 378.249301 197.565617 
L 376.615857 200.984712 
L 374.793083 204.299861 
L 372.792114 207.499925 
L 370.616664 210.570057 
L 368.281582 213.513968 
L 365.798005 216.324234 
L 363.17707 219.000854 
L 360.42249 221.543829 
L 357.552826 223.956871 
L 354.575504 226.228843 
L 351.50166 228.367169 
L 348.338719 230.364426 
L 345.10153 232.228036 
L 341.797519 233.950577 
L 338.437822 235.539472 
L 335.018727 237.005859 
L 331.551372 238.357163 
L 324.494152 240.733081 
L 317.310712 242.730337 
L 310.034462 244.415754 
L 302.713664 245.826456 
L 295.359455 246.973579 
L 287.975547 247.838561 
L 280.573077 248.410267 
L 273.15947 248.68127 
L 265.74215 248.647859 
L 258.321118 248.354581 
L 250.907511 247.860836 
L 239.796381 246.877057 
L 213.932284 244.367493 
L 202.821154 243.569333 
L 191.661763 243.097862 
L 180.49866 242.652377 
L 173.092478 242.088097 
L 169.409804 241.661174 
L 165.745693 241.108031 
L 162.103856 240.406392 
L 158.484293 239.545122 
L 154.894429 238.516795 
L 151.349114 237.328836 
L 147.852059 235.988669 
L 144.41069 234.496296 
L 141.036144 232.85914 
L 137.732133 231.080913 
L 134.513506 229.169042 
L 131.380264 227.123525 
L 128.350968 224.948075 
L 125.421906 222.653829 
L 122.600504 220.240787 
L 119.875622 217.716374 
L 117.250975 215.088014 
L 114.72285 212.363133 
L 112.283821 209.545442 
L 109.937602 206.638655 
L 107.673055 203.653908 
L 103.39269 197.465383 
L 101.373159 194.276456 
L 99.446438 191.024418 
L 97.627376 187.716694 
L 95.930822 184.353285 
L 94.375338 180.937902 
L 92.975774 177.470547 
L 91.746978 173.95493 
L 90.703802 170.394765 
L 89.864806 166.790052 
L 89.241127 163.144503 
L 88.847616 159.461829 
L 88.680559 155.75317 
L 88.736245 152.025948 
L 89.007248 148.295014 
L 89.489856 144.571505 
L 90.172933 140.862845 
L 91.052765 137.187596 
L 92.12564 133.549472 
L 93.380422 129.96332 
L 94.81711 126.443991 
L 96.424567 122.995197 
L 98.199081 119.635501 
L 100.13694 116.372326 
L 102.230717 113.216809 
L 104.469278 110.183801 
L 106.852621 107.277014 
L 109.373321 104.518721 
L 112.023955 101.912636 
L 114.80081 99.469895 
L 117.69646 97.205348 
L 117.69646 97.205348 
" style="fill:none;stroke:#fea952;stroke-linecap:square;"/>
   </g>
   <g id="line2d_13">
    <path clip-path="url(#paea10a4360)" d="M 240.78691 191.157224 
L 239.535147 186.55464 
L 238.583726 181.916142 
L 237.93052 177.273913 
L 237.561994 172.614151 
L 237.478147 167.976215 
L 237.668401 163.356839 
L 238.124668 158.790397 
L 238.841451 154.251006 
L 239.808645 149.792075 
L 241.023324 145.382347 
L 242.475262 141.06469 
L 244.161874 136.828741 
L 246.079986 132.685516 
L 248.222913 128.652834 
L 250.576906 124.753156 
L 253.146319 120.973 
L 255.936102 117.318081 
L 258.932207 113.819759 
L 262.112622 110.504379 
L 265.503167 107.344473 
L 269.077016 104.379684 
L 272.821784 101.623072 
L 276.721166 99.088403 
L 280.779393 96.774998 
L 284.979749 94.703142 
L 289.316276 92.884178 
L 293.789465 91.331577 
L 298.350029 90.07602 
L 303.029127 89.11704 
L 307.78232 88.483681 
L 312.547738 88.187996 
L 317.261819 88.2196 
L 321.96051 88.557334 
L 326.583035 89.186737 
L 331.156126 90.093665 
L 335.649744 91.266846 
L 340.037179 92.687342 
L 344.345993 94.353654 
L 348.524878 96.244616 
L 352.598183 98.363276 
L 356.510177 100.680398 
L 360.282703 103.196646 
L 363.901382 105.897899 
L 367.34699 108.760026 
L 370.636525 111.782044 
L 373.776657 114.965162 
L 376.733159 118.268923 
L 379.550465 121.726929 
L 382.179053 125.281855 
L 384.662996 128.971737 
L 386.981306 132.776387 
L 389.146598 136.726228 
L 391.126424 140.793462 
L 392.906439 144.968245 
L 394.484886 149.277961 
L 395.828116 153.690539 
L 396.919688 158.200412 
L 397.740508 162.799272 
L 398.271669 167.490645 
L 398.487273 172.231178 
L 398.378157 176.96257 
L 397.955775 181.645081 
L 397.233218 186.289442 
L 396.233134 190.819361 
L 394.957887 195.312984 
L 393.425711 199.693842 
L 391.64824 203.966848 
L 389.628138 208.139281 
L 387.383782 212.172699 
L 384.908221 216.08522 
L 382.250711 219.798072 
L 379.408566 223.347459 
L 376.407966 226.713461 
L 373.249794 229.911746 
L 369.979424 232.90923 
L 366.561125 235.761864 
L 363.055519 238.418865 
L 359.430074 240.922948 
L 355.747414 243.233713 
L 351.966353 245.395478 
L 348.146092 247.374546 
L 344.290899 249.186773 
L 340.410875 250.841757 
L 336.486602 252.362548 
L 332.58343 253.731751 
L 324.714893 256.131444 
L 316.884119 258.10986 
L 309.057358 259.76092 
L 301.188256 261.128327 
L 293.257083 262.205702 
L 285.269976 262.977609 
L 277.251146 263.4292 
L 269.242729 263.547863 
L 261.331925 263.362144 
L 253.548706 262.939198 
L 242.103745 262.009945 
L 205.609994 258.620474 
L 198.50228 258.213388 
L 175.497827 257.204234 
L 171.382467 256.838798 
L 167.193204 256.344294 
L 162.936444 255.689369 
L 158.666413 254.852544 
L 154.395077 253.820472 
L 150.176499 252.596868 
L 146.03523 251.19498 
L 141.94408 249.612292 
L 137.929006 247.856501 
L 133.998632 245.9351 
L 130.148512 243.847902 
L 126.395867 241.603319 
L 122.718441 239.185039 
L 119.194312 236.638368 
L 115.770221 233.938876 
L 112.508683 231.134017 
L 109.36803 228.209124 
L 106.365142 225.187813 
L 103.495398 222.081757 
L 100.728741 218.872148 
L 98.107633 215.614129 
L 95.57863 212.269718 
L 93.165437 208.872382 
L 90.847339 205.410286 
L 88.597559 201.845561 
L 86.434772 198.180104 
L 84.369086 194.404374 
L 82.416876 190.508006 
L 80.605286 186.496049 
L 78.957884 182.370147 
L 77.496639 178.130473 
L 76.240892 173.761004 
L 75.227969 169.294114 
L 74.475695 164.72226 
L 74.013169 160.130048 
L 73.832727 155.531339 
L 73.925775 150.950163 
L 74.280938 146.38632 
L 74.886011 141.881707 
L 75.731495 137.405652 
L 76.80969 132.987343 
L 78.109374 128.645229 
L 79.632369 124.350982 
L 81.357794 120.170704 
L 83.294069 116.059973 
L 85.431276 112.053254 
L 87.763531 108.162205 
L 90.283037 104.398632 
L 92.986215 100.76857 
L 95.890961 97.259562 
L 98.962506 93.929943 
L 102.215985 90.76315 
L 105.652991 87.772685 
L 108.548641 85.508137 
L 108.548641 85.508137 
" style="fill:none;stroke:#ffffff;stroke-linecap:square;"/>
   </g>
   <g id="line2d_14">
    <path clip-path="url(#paea10a4360)" d="M 269.395799 183.184727 
L 268.590907 180.407114 
L 267.968282 177.606019 
L 267.522627 174.756681 
L 267.252624 171.910026 
L 267.158277 169.034121 
L 267.235314 166.154505 
L 267.484398 163.266504 
L 267.896176 160.403425 
L 268.480753 157.534133 
L 269.218782 154.71216 
L 270.120488 151.916912 
L 271.173606 149.173602 
L 272.373887 146.493486 
L 273.720591 143.881022 
L 275.22004 141.328597 
L 276.845607 138.871968 
L 278.592343 136.520269 
L 280.466871 134.271838 
L 282.476351 132.122607 
L 284.587542 130.100041 
L 286.812419 128.201622 
L 289.141092 126.436565 
L 291.575017 124.805953 
L 294.072839 123.332738 
L 296.636425 122.01891 
L 299.242034 120.875402 
L 301.866901 119.911015 
L 304.530613 119.124766 
L 307.179737 118.524551 
L 309.843864 118.111021 
L 312.547738 117.886973 
L 315.325224 117.85537 
L 318.125526 118.007668 
L 320.972293 118.350907 
L 323.809097 118.86953 
L 326.643702 119.567384 
L 329.465693 120.441134 
L 332.232661 121.470004 
L 334.951364 122.660312 
L 337.582602 123.986733 
L 340.144986 125.463655 
L 342.624095 127.075565 
L 345.019458 128.821734 
L 347.342877 130.711443 
L 349.577352 132.723403 
L 351.716213 134.848976 
L 353.778838 137.113774 
L 355.728218 139.461918 
L 357.599025 141.950734 
L 359.354611 144.512486 
L 360.99369 147.152515 
L 362.496222 149.83297 
L 363.857531 152.559377 
L 365.069687 155.319306 
L 366.119599 158.077946 
L 367.003793 160.845095 
L 367.716435 163.604047 
L 368.254342 166.348259 
L 368.614151 169.059356 
L 368.792058 171.758418 
L 368.782378 174.488893 
L 368.581082 177.268251 
L 368.197351 180.048635 
L 367.615965 182.876637 
L 366.871682 185.659263 
L 365.946267 188.428434 
L 364.850362 191.164387 
L 363.603576 193.830143 
L 362.202383 196.427022 
L 360.676008 198.914631 
L 358.982617 201.342042 
L 357.154598 203.680478 
L 355.188044 205.935007 
L 353.104347 208.089963 
L 350.865556 210.178429 
L 348.544527 212.151878 
L 346.095488 214.03882 
L 343.573246 215.811391 
L 340.930023 217.495138 
L 338.236707 219.060595 
L 335.448946 220.526608 
L 332.584745 221.892172 
L 326.616141 224.351778 
L 320.338567 226.47691 
L 313.813439 228.298553 
L 307.090955 229.860924 
L 300.286823 231.176618 
L 293.492069 232.241974 
L 286.68466 233.045288 
L 279.875224 233.577185 
L 273.085149 233.831967 
L 266.21709 233.805967 
L 259.227061 233.532753 
L 248.536283 232.770661 
L 233.886266 231.363238 
L 215.12 229.56558 
L 203.592285 228.739881 
L 192.150066 228.256404 
L 181.462804 227.834222 
L 174.802488 227.337396 
L 168.554942 226.526692 
L 165.541299 225.960241 
L 162.573509 225.269772 
L 159.612359 224.436722 
L 156.662997 223.462691 
L 153.760038 222.365047 
L 150.892374 221.13609 
L 148.073655 219.783179 
L 145.315753 218.313924 
L 142.631144 216.734764 
L 140.042087 215.06201 
L 137.507624 213.257781 
L 135.073591 211.368781 
L 132.692324 209.347556 
L 130.383215 207.223623 
L 128.136809 204.988215 
L 123.838901 200.218737 
L 119.76748 195.038097 
L 115.938041 189.520481 
L 112.458105 183.868731 
L 109.444767 178.198564 
L 108.145389 175.379755 
L 106.993663 172.570946 
L 105.997317 169.779388 
L 105.166711 167.028527 
L 104.501642 164.28599 
L 104.00656 161.566745 
L 103.682062 158.793611 
L 103.528391 155.975 
L 103.546714 153.101733 
L 103.733558 150.203708 
L 104.093702 147.261302 
L 104.614371 144.320038 
L 105.29584 141.38785 
L 106.141907 138.453714 
L 107.128476 135.575658 
L 108.276426 132.717278 
L 109.555065 129.930422 
L 110.966887 127.217747 
L 112.510348 124.582446 
L 114.178397 122.034987 
L 115.952341 119.599033 
L 117.81428 117.294465 
L 119.784137 115.1075 
L 121.831925 113.062122 
L 123.948628 111.167105 
L 126.844278 108.902558 
L 126.844278 108.902558 
" style="fill:none;stroke:#ffffff;stroke-linecap:square;"/>
   </g>
   <g id="patch_3">
    <path d="M 57.6 307.584 
L 57.6 41.472 
" style="fill:none;stroke:#000000;stroke-linecap:square;stroke-linejoin:miter;stroke-width:0.8;"/>
   </g>
   <g id="patch_4">
    <path d="M 414.72 307.584 
L 414.72 41.472 
" style="fill:none;stroke:#000000;stroke-linecap:square;stroke-linejoin:miter;stroke-width:0.8;"/>
   </g>
   <g id="patch_5">
    <path d="M 57.6 307.584 
L 414.72 307.584 
" style="fill:none;stroke:#000000;stroke-linecap:square;stroke-linejoin:miter;stroke-width:0.8;"/>
   </g>
   <g id="patch_6">
    <path d="M 57.6 41.472 
L 414.72 41.472 
" style="fill:none;stroke:#000000;stroke-linecap:square;stroke-linejoin:miter;stroke-width:0.8;"/>
   </g>
  </g>
 </g>
 <defs>
  <clipPath id="paea10a4360">
   <rect height="266.112" width="357.12" x="57.6" y="41.472"/>
  </clipPath>
 </defs>
</svg>
