<?xml version="1.0" encoding="utf-8" standalone="no"?>
<!DOCTYPE svg PUBLIC "-//W3C//DTD SVG 1.1//EN"
  "http://www.w3.org/Graphics/SVG/1.1/DTD/svg11.dtd">
<!-- Created with matplotlib (https://matplotlib.org/) -->
<svg height="345.6pt" version="1.1" viewBox="0 0 460.8 345.6" width="460.8pt" xmlns="http://www.w3.org/2000/svg" xmlns:xlink="http://www.w3.org/1999/xlink">
 <metadata>
  <rdf:RDF xmlns:cc="http://creativecommons.org/ns#" xmlns:dc="http://purl.org/dc/elements/1.1/" xmlns:rdf="http://www.w3.org/1999/02/22-rdf-syntax-ns#">
   <cc:Work>
    <dc:type rdf:resource="http://purl.org/dc/dcmitype/StillImage"/>
    <dc:date>2021-01-25T11:54:07.747314</dc:date>
    <dc:format>image/svg+xml</dc:format>
    <dc:creator>
     <cc:Agent>
      <dc:title>Matplotlib v3.3.3, https://matplotlib.org/</dc:title>
     </cc:Agent>
    </dc:creator>
   </cc:Work>
  </rdf:RDF>
 </metadata>
 <defs>
  <style type="text/css">*{stroke-linecap:butt;stroke-linejoin:round;}</style>
 </defs>
 <g id="figure_1">
  <g id="patch_1">
   <path d="M 0 345.6 
L 460.8 345.6 
L 460.8 0 
L 0 0 
z
" style="fill:#ffffff;"/>
  </g>
  <g id="axes_1">
   <g id="patch_2">
    <path d="M 57.6 307.584 
L 414.72 307.584 
L 414.72 41.472 
L 57.6 41.472 
z
" style="fill:#7d9051;"/>
   </g>
   <g id="matplotlib.axis_1">
    <g id="xtick_1">
     <g id="line2d_1">
      <defs>
       <path d="M 0 0 
L 0 3.5 
" id="m4e5b7ae0c6" style="stroke:#000000;stroke-width:0.8;"/>
      </defs>
      <g>
       <use style="stroke:#000000;stroke-width:0.8;" x="90.101729" xlink:href="#m4e5b7ae0c6" y="307.584"/>
      </g>
     </g>
     <g id="text_1">
      <!-- 10 -->
      <g transform="translate(83.739229 322.182437)scale(0.1 -0.1)">
       <defs>
        <path d="M 12.40625 8.296875 
L 28.515625 8.296875 
L 28.515625 63.921875 
L 10.984375 60.40625 
L 10.984375 69.390625 
L 28.421875 72.90625 
L 38.28125 72.90625 
L 38.28125 8.296875 
L 54.390625 8.296875 
L 54.390625 0 
L 12.40625 0 
z
" id="DejaVuSans-49"/>
        <path d="M 31.78125 66.40625 
Q 24.171875 66.40625 20.328125 58.90625 
Q 16.5 51.421875 16.5 36.375 
Q 16.5 21.390625 20.328125 13.890625 
Q 24.171875 6.390625 31.78125 6.390625 
Q 39.453125 6.390625 43.28125 13.890625 
Q 47.125 21.390625 47.125 36.375 
Q 47.125 51.421875 43.28125 58.90625 
Q 39.453125 66.40625 31.78125 66.40625 
z
M 31.78125 74.21875 
Q 44.046875 74.21875 50.515625 64.515625 
Q 56.984375 54.828125 56.984375 36.375 
Q 56.984375 17.96875 50.515625 8.265625 
Q 44.046875 -1.421875 31.78125 -1.421875 
Q 19.53125 -1.421875 13.0625 8.265625 
Q 6.59375 17.96875 6.59375 36.375 
Q 6.59375 54.828125 13.0625 64.515625 
Q 19.53125 74.21875 31.78125 74.21875 
z
" id="DejaVuSans-48"/>
       </defs>
       <use xlink:href="#DejaVuSans-49"/>
       <use x="63.623047" xlink:href="#DejaVuSans-48"/>
      </g>
     </g>
    </g>
    <g id="xtick_2">
     <g id="line2d_2">
      <g>
       <use style="stroke:#000000;stroke-width:0.8;" x="130.831893" xlink:href="#m4e5b7ae0c6" y="307.584"/>
      </g>
     </g>
     <g id="text_2">
      <!-- 20 -->
      <g transform="translate(124.469393 322.182437)scale(0.1 -0.1)">
       <defs>
        <path d="M 19.1875 8.296875 
L 53.609375 8.296875 
L 53.609375 0 
L 7.328125 0 
L 7.328125 8.296875 
Q 12.9375 14.109375 22.625 23.890625 
Q 32.328125 33.6875 34.8125 36.53125 
Q 39.546875 41.84375 41.421875 45.53125 
Q 43.3125 49.21875 43.3125 52.78125 
Q 43.3125 58.59375 39.234375 62.25 
Q 35.15625 65.921875 28.609375 65.921875 
Q 23.96875 65.921875 18.8125 64.3125 
Q 13.671875 62.703125 7.8125 59.421875 
L 7.8125 69.390625 
Q 13.765625 71.78125 18.9375 73 
Q 24.125 74.21875 28.421875 74.21875 
Q 39.75 74.21875 46.484375 68.546875 
Q 53.21875 62.890625 53.21875 53.421875 
Q 53.21875 48.921875 51.53125 44.890625 
Q 49.859375 40.875 45.40625 35.40625 
Q 44.1875 33.984375 37.640625 27.21875 
Q 31.109375 20.453125 19.1875 8.296875 
z
" id="DejaVuSans-50"/>
       </defs>
       <use xlink:href="#DejaVuSans-50"/>
       <use x="63.623047" xlink:href="#DejaVuSans-48"/>
      </g>
     </g>
    </g>
    <g id="xtick_3">
     <g id="line2d_3">
      <g>
       <use style="stroke:#000000;stroke-width:0.8;" x="171.562057" xlink:href="#m4e5b7ae0c6" y="307.584"/>
      </g>
     </g>
     <g id="text_3">
      <!-- 30 -->
      <g transform="translate(165.199557 322.182437)scale(0.1 -0.1)">
       <defs>
        <path d="M 40.578125 39.3125 
Q 47.65625 37.796875 51.625 33 
Q 55.609375 28.21875 55.609375 21.1875 
Q 55.609375 10.40625 48.1875 4.484375 
Q 40.765625 -1.421875 27.09375 -1.421875 
Q 22.515625 -1.421875 17.65625 -0.515625 
Q 12.796875 0.390625 7.625 2.203125 
L 7.625 11.71875 
Q 11.71875 9.328125 16.59375 8.109375 
Q 21.484375 6.890625 26.8125 6.890625 
Q 36.078125 6.890625 40.9375 10.546875 
Q 45.796875 14.203125 45.796875 21.1875 
Q 45.796875 27.640625 41.28125 31.265625 
Q 36.765625 34.90625 28.71875 34.90625 
L 20.21875 34.90625 
L 20.21875 43.015625 
L 29.109375 43.015625 
Q 36.375 43.015625 40.234375 45.921875 
Q 44.09375 48.828125 44.09375 54.296875 
Q 44.09375 59.90625 40.109375 62.90625 
Q 36.140625 65.921875 28.71875 65.921875 
Q 24.65625 65.921875 20.015625 65.03125 
Q 15.375 64.15625 9.8125 62.3125 
L 9.8125 71.09375 
Q 15.4375 72.65625 20.34375 73.4375 
Q 25.25 74.21875 29.59375 74.21875 
Q 40.828125 74.21875 47.359375 69.109375 
Q 53.90625 64.015625 53.90625 55.328125 
Q 53.90625 49.265625 50.4375 45.09375 
Q 46.96875 40.921875 40.578125 39.3125 
z
" id="DejaVuSans-51"/>
       </defs>
       <use xlink:href="#DejaVuSans-51"/>
       <use x="63.623047" xlink:href="#DejaVuSans-48"/>
      </g>
     </g>
    </g>
    <g id="xtick_4">
     <g id="line2d_4">
      <g>
       <use style="stroke:#000000;stroke-width:0.8;" x="212.292221" xlink:href="#m4e5b7ae0c6" y="307.584"/>
      </g>
     </g>
     <g id="text_4">
      <!-- 40 -->
      <g transform="translate(205.929721 322.182437)scale(0.1 -0.1)">
       <defs>
        <path d="M 37.796875 64.3125 
L 12.890625 25.390625 
L 37.796875 25.390625 
z
M 35.203125 72.90625 
L 47.609375 72.90625 
L 47.609375 25.390625 
L 58.015625 25.390625 
L 58.015625 17.1875 
L 47.609375 17.1875 
L 47.609375 0 
L 37.796875 0 
L 37.796875 17.1875 
L 4.890625 17.1875 
L 4.890625 26.703125 
z
" id="DejaVuSans-52"/>
       </defs>
       <use xlink:href="#DejaVuSans-52"/>
       <use x="63.623047" xlink:href="#DejaVuSans-48"/>
      </g>
     </g>
    </g>
    <g id="xtick_5">
     <g id="line2d_5">
      <g>
       <use style="stroke:#000000;stroke-width:0.8;" x="253.022385" xlink:href="#m4e5b7ae0c6" y="307.584"/>
      </g>
     </g>
     <g id="text_5">
      <!-- 50 -->
      <g transform="translate(246.659885 322.182437)scale(0.1 -0.1)">
       <defs>
        <path d="M 10.796875 72.90625 
L 49.515625 72.90625 
L 49.515625 64.59375 
L 19.828125 64.59375 
L 19.828125 46.734375 
Q 21.96875 47.46875 24.109375 47.828125 
Q 26.265625 48.1875 28.421875 48.1875 
Q 40.625 48.1875 47.75 41.5 
Q 54.890625 34.8125 54.890625 23.390625 
Q 54.890625 11.625 47.5625 5.09375 
Q 40.234375 -1.421875 26.90625 -1.421875 
Q 22.3125 -1.421875 17.546875 -0.640625 
Q 12.796875 0.140625 7.71875 1.703125 
L 7.71875 11.625 
Q 12.109375 9.234375 16.796875 8.0625 
Q 21.484375 6.890625 26.703125 6.890625 
Q 35.15625 6.890625 40.078125 11.328125 
Q 45.015625 15.765625 45.015625 23.390625 
Q 45.015625 31 40.078125 35.4375 
Q 35.15625 39.890625 26.703125 39.890625 
Q 22.75 39.890625 18.8125 39.015625 
Q 14.890625 38.140625 10.796875 36.28125 
z
" id="DejaVuSans-53"/>
       </defs>
       <use xlink:href="#DejaVuSans-53"/>
       <use x="63.623047" xlink:href="#DejaVuSans-48"/>
      </g>
     </g>
    </g>
    <g id="xtick_6">
     <g id="line2d_6">
      <g>
       <use style="stroke:#000000;stroke-width:0.8;" x="293.752549" xlink:href="#m4e5b7ae0c6" y="307.584"/>
      </g>
     </g>
     <g id="text_6">
      <!-- 60 -->
      <g transform="translate(287.390049 322.182437)scale(0.1 -0.1)">
       <defs>
        <path d="M 33.015625 40.375 
Q 26.375 40.375 22.484375 35.828125 
Q 18.609375 31.296875 18.609375 23.390625 
Q 18.609375 15.53125 22.484375 10.953125 
Q 26.375 6.390625 33.015625 6.390625 
Q 39.65625 6.390625 43.53125 10.953125 
Q 47.40625 15.53125 47.40625 23.390625 
Q 47.40625 31.296875 43.53125 35.828125 
Q 39.65625 40.375 33.015625 40.375 
z
M 52.59375 71.296875 
L 52.59375 62.3125 
Q 48.875 64.0625 45.09375 64.984375 
Q 41.3125 65.921875 37.59375 65.921875 
Q 27.828125 65.921875 22.671875 59.328125 
Q 17.53125 52.734375 16.796875 39.40625 
Q 19.671875 43.65625 24.015625 45.921875 
Q 28.375 48.1875 33.59375 48.1875 
Q 44.578125 48.1875 50.953125 41.515625 
Q 57.328125 34.859375 57.328125 23.390625 
Q 57.328125 12.15625 50.6875 5.359375 
Q 44.046875 -1.421875 33.015625 -1.421875 
Q 20.359375 -1.421875 13.671875 8.265625 
Q 6.984375 17.96875 6.984375 36.375 
Q 6.984375 53.65625 15.1875 63.9375 
Q 23.390625 74.21875 37.203125 74.21875 
Q 40.921875 74.21875 44.703125 73.484375 
Q 48.484375 72.75 52.59375 71.296875 
z
" id="DejaVuSans-54"/>
       </defs>
       <use xlink:href="#DejaVuSans-54"/>
       <use x="63.623047" xlink:href="#DejaVuSans-48"/>
      </g>
     </g>
    </g>
    <g id="xtick_7">
     <g id="line2d_7">
      <g>
       <use style="stroke:#000000;stroke-width:0.8;" x="334.482713" xlink:href="#m4e5b7ae0c6" y="307.584"/>
      </g>
     </g>
     <g id="text_7">
      <!-- 70 -->
      <g transform="translate(328.120213 322.182437)scale(0.1 -0.1)">
       <defs>
        <path d="M 8.203125 72.90625 
L 55.078125 72.90625 
L 55.078125 68.703125 
L 28.609375 0 
L 18.3125 0 
L 43.21875 64.59375 
L 8.203125 64.59375 
z
" id="DejaVuSans-55"/>
       </defs>
       <use xlink:href="#DejaVuSans-55"/>
       <use x="63.623047" xlink:href="#DejaVuSans-48"/>
      </g>
     </g>
    </g>
    <g id="xtick_8">
     <g id="line2d_8">
      <g>
       <use style="stroke:#000000;stroke-width:0.8;" x="375.212877" xlink:href="#m4e5b7ae0c6" y="307.584"/>
      </g>
     </g>
     <g id="text_8">
      <!-- 80 -->
      <g transform="translate(368.850377 322.182437)scale(0.1 -0.1)">
       <defs>
        <path d="M 31.78125 34.625 
Q 24.75 34.625 20.71875 30.859375 
Q 16.703125 27.09375 16.703125 20.515625 
Q 16.703125 13.921875 20.71875 10.15625 
Q 24.75 6.390625 31.78125 6.390625 
Q 38.8125 6.390625 42.859375 10.171875 
Q 46.921875 13.96875 46.921875 20.515625 
Q 46.921875 27.09375 42.890625 30.859375 
Q 38.875 34.625 31.78125 34.625 
z
M 21.921875 38.8125 
Q 15.578125 40.375 12.03125 44.71875 
Q 8.5 49.078125 8.5 55.328125 
Q 8.5 64.0625 14.71875 69.140625 
Q 20.953125 74.21875 31.78125 74.21875 
Q 42.671875 74.21875 48.875 69.140625 
Q 55.078125 64.0625 55.078125 55.328125 
Q 55.078125 49.078125 51.53125 44.71875 
Q 48 40.375 41.703125 38.8125 
Q 48.828125 37.15625 52.796875 32.3125 
Q 56.78125 27.484375 56.78125 20.515625 
Q 56.78125 9.90625 50.3125 4.234375 
Q 43.84375 -1.421875 31.78125 -1.421875 
Q 19.734375 -1.421875 13.25 4.234375 
Q 6.78125 9.90625 6.78125 20.515625 
Q 6.78125 27.484375 10.78125 32.3125 
Q 14.796875 37.15625 21.921875 38.8125 
z
M 18.3125 54.390625 
Q 18.3125 48.734375 21.84375 45.5625 
Q 25.390625 42.390625 31.78125 42.390625 
Q 38.140625 42.390625 41.71875 45.5625 
Q 45.3125 48.734375 45.3125 54.390625 
Q 45.3125 60.0625 41.71875 63.234375 
Q 38.140625 66.40625 31.78125 66.40625 
Q 25.390625 66.40625 21.84375 63.234375 
Q 18.3125 60.0625 18.3125 54.390625 
z
" id="DejaVuSans-56"/>
       </defs>
       <use xlink:href="#DejaVuSans-56"/>
       <use x="63.623047" xlink:href="#DejaVuSans-48"/>
      </g>
     </g>
    </g>
   </g>
   <g id="matplotlib.axis_2">
    <g id="ytick_1">
     <g id="line2d_9">
      <defs>
       <path d="M 0 0 
L -3.5 0 
" id="mbcb29f104e" style="stroke:#000000;stroke-width:0.8;"/>
      </defs>
      <g>
       <use style="stroke:#000000;stroke-width:0.8;" x="57.6" xlink:href="#mbcb29f104e" y="271.760344"/>
      </g>
     </g>
     <g id="text_9">
      <!-- 10 -->
      <g transform="translate(37.875 275.559563)scale(0.1 -0.1)">
       <use xlink:href="#DejaVuSans-49"/>
       <use x="63.623047" xlink:href="#DejaVuSans-48"/>
      </g>
     </g>
    </g>
    <g id="ytick_2">
     <g id="line2d_10">
      <g>
       <use style="stroke:#000000;stroke-width:0.8;" x="57.6" xlink:href="#mbcb29f104e" y="231.03018"/>
      </g>
     </g>
     <g id="text_10">
      <!-- 20 -->
      <g transform="translate(37.875 234.829398)scale(0.1 -0.1)">
       <use xlink:href="#DejaVuSans-50"/>
       <use x="63.623047" xlink:href="#DejaVuSans-48"/>
      </g>
     </g>
    </g>
    <g id="ytick_3">
     <g id="line2d_11">
      <g>
       <use style="stroke:#000000;stroke-width:0.8;" x="57.6" xlink:href="#mbcb29f104e" y="190.300016"/>
      </g>
     </g>
     <g id="text_11">
      <!-- 30 -->
      <g transform="translate(37.875 194.099234)scale(0.1 -0.1)">
       <use xlink:href="#DejaVuSans-51"/>
       <use x="63.623047" xlink:href="#DejaVuSans-48"/>
      </g>
     </g>
    </g>
    <g id="ytick_4">
     <g id="line2d_12">
      <g>
       <use style="stroke:#000000;stroke-width:0.8;" x="57.6" xlink:href="#mbcb29f104e" y="149.569852"/>
      </g>
     </g>
     <g id="text_12">
      <!-- 40 -->
      <g transform="translate(37.875 153.36907)scale(0.1 -0.1)">
       <use xlink:href="#DejaVuSans-52"/>
       <use x="63.623047" xlink:href="#DejaVuSans-48"/>
      </g>
     </g>
    </g>
    <g id="ytick_5">
     <g id="line2d_13">
      <g>
       <use style="stroke:#000000;stroke-width:0.8;" x="57.6" xlink:href="#mbcb29f104e" y="108.839688"/>
      </g>
     </g>
     <g id="text_13">
      <!-- 50 -->
      <g transform="translate(37.875 112.638906)scale(0.1 -0.1)">
       <use xlink:href="#DejaVuSans-53"/>
       <use x="63.623047" xlink:href="#DejaVuSans-48"/>
      </g>
     </g>
    </g>
    <g id="ytick_6">
     <g id="line2d_14">
      <g>
       <use style="stroke:#000000;stroke-width:0.8;" x="57.6" xlink:href="#mbcb29f104e" y="68.109524"/>
      </g>
     </g>
     <g id="text_14">
      <!-- 60 -->
      <g transform="translate(37.875 71.908742)scale(0.1 -0.1)">
       <use xlink:href="#DejaVuSans-54"/>
       <use x="63.623047" xlink:href="#DejaVuSans-48"/>
      </g>
     </g>
    </g>
   </g>
   <g id="line2d_15">
    <path clip-path="url(#p6bc896cf23)" d="M 232.453652 216.762403 
L 231.252113 212.640511 
L 230.339757 208.506399 
L 229.708439 204.372287 
L 229.350014 200.238176 
L 229.256335 196.124429 
L 229.419255 192.026975 
L 229.83063 187.962104 
L 230.486386 183.933891 
L 231.374303 179.954554 
L 232.486237 176.032239 
L 233.818113 172.17102 
L 235.361786 168.379041 
L 237.10911 164.672596 
L 239.047866 161.051685 
L 241.178054 157.528526 
L 243.483381 154.111265 
L 245.959775 150.808049 
L 248.603163 147.627023 
L 251.401325 144.576334 
L 254.346116 141.664127 
L 257.433462 138.898549 
L 260.651145 136.291818 
L 263.991019 133.852081 
L 267.449009 131.587484 
L 271.016972 129.514319 
L 274.682687 127.640731 
L 278.442081 125.970795 
L 282.282935 124.520801 
L 286.20525 123.302969 
L 290.192733 122.321372 
L 294.237238 121.584156 
L 298.326547 121.095394 
L 302.448439 120.851013 
L 306.582551 120.842867 
L 310.71259 121.070956 
L 314.826336 121.531207 
L 318.903426 122.219547 
L 322.935712 123.131902 
L 326.90283 124.268274 
L 330.788488 125.624588 
L 334.576393 127.1927 
L 338.270619 128.968535 
L 341.858946 130.939875 
L 345.341375 133.102646 
L 348.70976 135.440558 
L 351.968173 137.953609 
L 355.104395 140.625508 
L 358.122501 143.448108 
L 361.010269 146.417337 
L 363.771774 149.520975 
L 366.394797 152.746804 
L 368.871191 156.094824 
L 371.184664 159.552815 
L 373.318925 163.112631 
L 375.261754 166.766127 
L 376.992786 170.505156 
L 378.503875 174.321572 
L 379.770583 178.211303 
L 380.788837 182.166202 
L 381.538272 186.169977 
L 382.002596 190.222628 
L 382.198101 194.307864 
L 382.120713 198.413464 
L 381.790799 202.514992 
L 381.212431 206.608373 
L 380.389681 210.673244 
L 379.338843 214.693311 
L 378.068062 218.660429 
L 376.581411 222.55016 
L 374.891109 226.354357 
L 373.00123 230.056729 
L 370.923991 233.649129 
L 368.66754 237.119339 
L 366.235949 240.463286 
L 363.637365 243.664677 
L 360.87586 246.719439 
L 357.95958 249.615354 
L 354.900745 252.344275 
L 351.699354 254.898056 
L 348.367626 257.264478 
L 344.909635 259.443542 
L 341.3376 261.431174 
L 337.667812 263.23552 
L 333.904345 264.864727 
L 330.063491 266.322867 
L 326.157468 267.614013 
L 322.194423 268.742239 
L 318.190648 269.71569 
L 314.158362 270.542512 
L 310.101637 271.222706 
L 306.04084 271.76849 
L 301.971896 272.183937 
L 293.821791 272.652334 
L 285.667612 272.697138 
L 277.513433 272.375369 
L 269.375546 271.760344 
L 261.262098 270.900937 
L 253.17716 269.809369 
L 245.12888 268.501931 
L 237.125402 266.978623 
L 229.170801 265.251664 
L 221.265076 263.3292 
L 209.473694 260.188904 
L 178.021861 251.321947 
L 170.205743 248.922941 
L 162.519961 246.214385 
L 158.744275 244.699223 
L 155.029684 243.053724 
L 151.376188 241.257524 
L 147.80008 239.302476 
L 144.301358 237.188581 
L 140.884098 234.923983 
L 137.560516 232.516831 
L 134.334687 229.975268 
L 131.206611 227.30337 
L 128.188506 224.513353 
L 125.280372 221.613366 
L 122.490356 218.60748 
L 119.82253 215.503841 
L 117.285041 212.310596 
L 114.869742 209.035891 
L 112.572561 205.679726 
L 110.389424 202.246173 
L 108.308113 198.747452 
L 104.446893 191.546359 
L 100.935953 184.113104 
L 97.738635 176.484344 
L 96.268276 172.610905 
L 94.911962 168.696737 
L 93.677838 164.749984 
L 92.598488 160.778793 
L 91.686133 156.783164 
L 90.957063 152.76717 
L 90.43979 148.734883 
L 90.146532 144.694451 
L 90.101729 140.645873 
L 90.317599 136.593221 
L 90.785996 132.552789 
L 91.50692 128.528649 
L 92.460006 124.541166 
L 93.645253 120.594413 
L 95.050444 116.700609 
L 96.663359 112.876047 
L 98.479924 109.124799 
L 100.491994 105.46723 
L 102.683277 101.907414 
L 105.049699 98.457569 
L 107.579043 95.133987 
L 110.267233 91.940743 
L 113.09798 88.898199 
L 116.067209 86.010431 
L 119.166774 83.293729 
L 122.384457 80.752167 
L 125.712112 78.406109 
L 129.141591 76.263702 
L 132.664751 74.337166 
L 132.664751 74.337166 
" style="fill:none;stroke:#fea952;stroke-linecap:square;"/>
   </g>
   <g id="line2d_16">
    <path clip-path="url(#p6bc896cf23)" d="M 216.812577 221.321808 
L 215.342863 216.151518 
L 214.234399 210.965838 
L 213.477263 205.779522 
L 213.062171 200.609087 
L 212.977132 195.477145 
L 213.209985 190.386558 
L 213.750243 185.344367 
L 214.585352 180.385861 
L 215.699912 175.511035 
L 217.084676 170.719676 
L 218.728478 166.028193 
L 220.625195 161.431791 
L 222.7463 156.982273 
L 225.106058 152.62213 
L 227.671971 148.417152 
L 230.4478 144.338598 
L 233.42941 140.395492 
L 236.596726 136.614444 
L 239.945362 132.992192 
L 243.475632 129.528889 
L 247.177914 126.239357 
L 251.04097 123.135986 
L 255.06525 120.222626 
L 259.263918 117.500764 
L 263.602273 115.007299 
L 268.068846 112.751524 
L 272.687913 110.728716 
L 277.451947 108.961464 
L 282.310902 107.483188 
L 287.271218 106.293392 
L 292.303741 105.407228 
L 297.362307 104.831887 
L 302.416337 104.558979 
L 307.480941 104.57559 
L 312.524063 104.87991 
L 317.538562 105.466487 
L 322.498827 106.329157 
L 327.422105 107.469729 
L 332.271991 108.886352 
L 337.020171 110.571432 
L 341.634895 112.509071 
L 346.115226 114.689405 
L 350.454403 117.099733 
L 354.630965 119.718517 
L 358.659565 122.539675 
L 362.533722 125.551973 
L 366.232779 128.726327 
L 369.801827 132.089202 
L 373.181822 135.58753 
L 376.412368 139.242513 
L 379.493175 143.058466 
L 382.412268 147.03554 
L 385.157816 151.175319 
L 387.703588 155.463262 
L 390.046264 159.921446 
L 392.14068 164.507431 
L 393.995201 169.276753 
L 395.548101 174.14912 
L 396.802776 179.168679 
L 397.724446 184.315481 
L 398.276037 189.44384 
L 398.487273 194.614902 
L 398.360328 199.719729 
L 397.922633 204.794316 
L 397.180688 209.840425 
L 396.152128 214.793519 
L 394.854319 219.663361 
L 393.286477 224.476891 
L 391.469946 229.165515 
L 389.402009 233.761461 
L 387.105189 238.212079 
L 384.582504 242.530369 
L 381.844215 246.700917 
L 378.885371 250.730882 
L 375.723094 254.590176 
L 372.355654 258.279963 
L 368.805526 261.772526 
L 365.060523 265.080456 
L 361.133563 268.180642 
L 357.053422 271.048105 
L 352.831408 273.680007 
L 348.526109 276.051596 
L 344.140209 278.186757 
L 339.686777 280.096105 
L 335.176765 281.791733 
L 330.618352 283.283471 
L 326.043435 284.573111 
L 321.463253 285.675685 
L 316.852456 286.610283 
L 312.271829 287.369584 
L 307.695691 287.976293 
L 303.125729 288.435094 
L 298.614324 288.749471 
L 294.098439 288.942051 
L 285.195812 288.98237 
L 276.423221 288.630917 
L 267.765696 287.972678 
L 259.197301 287.061631 
L 250.670483 285.907443 
L 242.181514 284.525177 
L 233.767423 282.920874 
L 225.403839 281.10226 
L 217.183185 279.10163 
L 205.090537 275.880282 
L 173.36864 266.935369 
L 164.985487 264.356033 
L 160.730873 262.911386 
L 156.45237 261.334429 
L 152.145631 259.595172 
L 147.841611 257.674361 
L 143.561012 255.552783 
L 139.37495 253.246959 
L 135.301535 250.76925 
L 131.327544 248.118819 
L 127.477809 245.314113 
L 123.753221 242.363326 
L 120.147312 239.266786 
L 116.684444 236.04973 
L 113.339347 232.696837 
L 110.135388 229.227563 
L 107.0673 225.639694 
L 104.173528 221.981152 
L 101.425383 218.238098 
L 98.824216 214.421259 
L 96.387551 210.575576 
L 94.050975 206.631958 
L 91.875981 202.687718 
L 89.798043 198.676759 
L 85.972845 190.558009 
L 82.50706 182.266256 
L 80.874216 177.945164 
L 79.362368 173.558994 
L 77.956127 169.023064 
L 76.715226 164.405552 
L 75.65608 159.693285 
L 74.79742 154.840174 
L 74.190468 149.91427 
L 73.855464 144.874734 
L 73.832727 139.779283 
L 74.133918 134.717089 
L 74.749245 129.679808 
L 75.661203 124.741215 
L 76.856367 119.855243 
L 78.32055 115.064054 
L 80.038714 110.369784 
L 82.000121 105.775282 
L 84.205228 101.272126 
L 86.617811 96.926829 
L 89.24822 92.691631 
L 92.085005 88.591055 
L 95.11541 84.641644 
L 98.339325 80.843157 
L 101.739074 77.218873 
L 105.328554 73.758382 
L 109.068341 70.508853 
L 112.996777 67.436655 
L 117.080284 64.588622 
L 121.325054 61.969188 
L 124.848213 60.042651 
L 124.848213 60.042651 
" style="fill:none;stroke:#ffffff;stroke-linecap:square;"/>
   </g>
   <g id="line2d_17">
    <path clip-path="url(#p6bc896cf23)" d="M 248.094728 212.202999 
L 247.161363 209.129504 
L 246.445115 206.04696 
L 245.939616 202.965052 
L 245.637857 199.867264 
L 245.535537 196.771714 
L 245.628525 193.667392 
L 245.911017 190.579842 
L 246.38742 187.481921 
L 247.048694 184.398073 
L 247.887797 181.344803 
L 248.907748 178.313846 
L 250.098377 175.326292 
L 251.471921 172.36292 
L 252.989674 169.48124 
L 254.684136 166.6399 
L 256.518962 163.883932 
L 258.49014 161.220606 
L 260.609599 158.639602 
L 262.857287 156.160475 
L 265.216599 153.799365 
L 267.68901 151.557741 
L 270.26132 149.447651 
L 272.916787 147.481537 
L 275.634101 145.674204 
L 278.431671 144.021339 
L 281.296528 142.529939 
L 284.196248 141.212873 
L 287.113923 140.080137 
L 290.099598 139.122749 
L 293.114248 138.349352 
L 296.170736 137.761084 
L 299.290786 137.3589 
L 302.480542 137.143047 
L 305.684161 137.110144 
L 308.901116 137.262002 
L 312.114111 137.595927 
L 315.308024 138.109936 
L 318.449319 138.794076 
L 321.533669 139.650195 
L 324.556804 140.677745 
L 327.51789 141.876328 
L 330.426012 143.247664 
L 333.26349 144.780017 
L 336.051786 146.486776 
L 338.759954 148.34144 
L 341.402623 150.355245 
L 343.976012 152.524688 
L 346.443174 154.807014 
L 348.838717 157.247144 
L 351.131181 159.799438 
L 353.296419 162.435142 
L 355.330113 165.154108 
L 357.211513 167.930311 
L 358.934261 170.762001 
L 360.477243 173.610808 
L 361.844892 176.502881 
L 363.012548 179.366392 
L 363.993065 182.273486 
L 364.774897 185.163725 
L 365.352097 188.024473 
L 365.729155 191.001417 
L 365.908928 194.000826 
L 365.881099 197.107199 
L 365.658964 200.235668 
L 365.244173 203.376321 
L 364.627234 206.552969 
L 363.823367 209.723261 
L 362.849647 212.843966 
L 361.692876 215.934804 
L 360.380209 218.947253 
L 358.89727 221.901378 
L 357.265478 224.767889 
L 355.490865 227.537762 
L 353.586528 230.195689 
L 351.551635 232.739177 
L 349.396065 235.158915 
L 347.113634 237.458181 
L 344.740967 239.608093 
L 342.265145 241.615469 
L 339.681831 243.480852 
L 336.987863 245.207078 
L 334.149091 246.810752 
L 331.195415 248.284284 
L 328.121913 249.633349 
L 324.950216 250.854001 
L 321.696584 251.944555 
L 318.345411 252.911367 
L 314.918043 253.755694 
L 311.464267 254.474741 
L 307.931445 255.075828 
L 304.385989 255.560687 
L 300.818064 255.932781 
L 293.545142 256.362618 
L 286.139412 256.411905 
L 278.603645 256.119821 
L 270.985397 255.548009 
L 263.326894 254.740244 
L 255.683837 253.711295 
L 248.076245 252.478684 
L 240.483382 251.036371 
L 232.937764 249.401068 
L 225.346968 247.556769 
L 213.856851 244.497526 
L 182.675082 235.708526 
L 175.425998 233.489849 
L 168.587552 231.09434 
L 165.342919 229.803274 
L 162.217756 228.433087 
L 159.191364 226.962265 
L 156.225209 225.357994 
L 153.301182 223.607911 
L 150.440651 221.729148 
L 147.643223 219.719549 
L 144.916153 217.587211 
L 142.265909 215.339954 
L 139.692567 212.976977 
L 137.221396 210.529895 
L 134.845323 207.987396 
L 132.57776 205.367989 
L 130.396553 202.640041 
L 128.314101 199.833684 
L 126.320906 196.938192 
L 122.56525 190.862946 
L 119.095743 184.415958 
L 115.899061 177.668199 
L 112.97021 170.702432 
L 110.461555 163.83448 
L 109.399548 160.476903 
L 108.481751 157.152034 
L 107.716186 153.873043 
L 107.116705 150.694165 
L 106.689111 147.555497 
L 106.4376 144.514168 
L 106.370731 141.512463 
L 106.50128 138.469354 
L 106.822747 135.42577 
L 107.352637 132.316083 
L 108.063644 129.227088 
L 108.969957 126.124771 
L 110.062175 123.031435 
L 111.326597 119.976811 
L 112.75462 116.977471 
L 114.366177 114.007631 
L 116.118334 111.123196 
L 118.014394 108.324083 
L 120.042675 105.626331 
L 122.195142 103.038328 
L 124.456886 100.577526 
L 126.805864 98.262479 
L 129.265208 96.078604 
L 131.772138 94.067678 
L 134.343939 92.223597 
L 136.958129 90.558217 
L 140.481288 88.63168 
L 140.481288 88.63168 
" style="fill:none;stroke:#ffffff;stroke-linecap:square;"/>
   </g>
   <g id="patch_3">
    <path d="M 57.6 307.584 
L 57.6 41.472 
" style="fill:none;stroke:#000000;stroke-linecap:square;stroke-linejoin:miter;stroke-width:0.8;"/>
   </g>
   <g id="patch_4">
    <path d="M 414.72 307.584 
L 414.72 41.472 
" style="fill:none;stroke:#000000;stroke-linecap:square;stroke-linejoin:miter;stroke-width:0.8;"/>
   </g>
   <g id="patch_5">
    <path d="M 57.6 307.584 
L 414.72 307.584 
" style="fill:none;stroke:#000000;stroke-linecap:square;stroke-linejoin:miter;stroke-width:0.8;"/>
   </g>
   <g id="patch_6">
    <path d="M 57.6 41.472 
L 414.72 41.472 
" style="fill:none;stroke:#000000;stroke-linecap:square;stroke-linejoin:miter;stroke-width:0.8;"/>
   </g>
  </g>
 </g>
 <defs>
  <clipPath id="p6bc896cf23">
   <rect height="266.112" width="357.12" x="57.6" y="41.472"/>
  </clipPath>
 </defs>
</svg>
