<?xml version="1.0" encoding="utf-8" standalone="no"?>
<!DOCTYPE svg PUBLIC "-//W3C//DTD SVG 1.1//EN"
  "http://www.w3.org/Graphics/SVG/1.1/DTD/svg11.dtd">
<!-- Created with matplotlib (https://matplotlib.org/) -->
<svg height="345.6pt" version="1.1" viewBox="0 0 460.8 345.6" width="460.8pt" xmlns="http://www.w3.org/2000/svg" xmlns:xlink="http://www.w3.org/1999/xlink">
 <metadata>
  <rdf:RDF xmlns:cc="http://creativecommons.org/ns#" xmlns:dc="http://purl.org/dc/elements/1.1/" xmlns:rdf="http://www.w3.org/1999/02/22-rdf-syntax-ns#">
   <cc:Work>
    <dc:type rdf:resource="http://purl.org/dc/dcmitype/StillImage"/>
    <dc:date>2021-01-25T11:49:03.227766</dc:date>
    <dc:format>image/svg+xml</dc:format>
    <dc:creator>
     <cc:Agent>
      <dc:title>Matplotlib v3.3.3, https://matplotlib.org/</dc:title>
     </cc:Agent>
    </dc:creator>
   </cc:Work>
  </rdf:RDF>
 </metadata>
 <defs>
  <style type="text/css">*{stroke-linecap:butt;stroke-linejoin:round;}</style>
 </defs>
 <g id="figure_1">
  <g id="patch_1">
   <path d="M 0 345.6 
L 460.8 345.6 
L 460.8 0 
L 0 0 
z
" style="fill:#ffffff;"/>
  </g>
  <g id="axes_1">
   <g id="patch_2">
    <path d="M 57.6 307.584 
L 414.72 307.584 
L 414.72 41.472 
L 57.6 41.472 
z
" style="fill:#7d9051;"/>
   </g>
   <g id="matplotlib.axis_1">
    <g id="xtick_1">
     <g id="line2d_1">
      <defs>
       <path d="M 0 0 
L 0 3.5 
" id="m39081de063" style="stroke:#000000;stroke-width:0.8;"/>
      </defs>
      <g>
       <use style="stroke:#000000;stroke-width:0.8;" x="123.600996" xlink:href="#m39081de063" y="307.584"/>
      </g>
     </g>
     <g id="text_1">
      <!-- 20 -->
      <g transform="translate(117.238496 322.182437)scale(0.1 -0.1)">
       <defs>
        <path d="M 19.1875 8.296875 
L 53.609375 8.296875 
L 53.609375 0 
L 7.328125 0 
L 7.328125 8.296875 
Q 12.9375 14.109375 22.625 23.890625 
Q 32.328125 33.6875 34.8125 36.53125 
Q 39.546875 41.84375 41.421875 45.53125 
Q 43.3125 49.21875 43.3125 52.78125 
Q 43.3125 58.59375 39.234375 62.25 
Q 35.15625 65.921875 28.609375 65.921875 
Q 23.96875 65.921875 18.8125 64.3125 
Q 13.671875 62.703125 7.8125 59.421875 
L 7.8125 69.390625 
Q 13.765625 71.78125 18.9375 73 
Q 24.125 74.21875 28.421875 74.21875 
Q 39.75 74.21875 46.484375 68.546875 
Q 53.21875 62.890625 53.21875 53.421875 
Q 53.21875 48.921875 51.53125 44.890625 
Q 49.859375 40.875 45.40625 35.40625 
Q 44.1875 33.984375 37.640625 27.21875 
Q 31.109375 20.453125 19.1875 8.296875 
z
" id="DejaVuSans-50"/>
        <path d="M 31.78125 66.40625 
Q 24.171875 66.40625 20.328125 58.90625 
Q 16.5 51.421875 16.5 36.375 
Q 16.5 21.390625 20.328125 13.890625 
Q 24.171875 6.390625 31.78125 6.390625 
Q 39.453125 6.390625 43.28125 13.890625 
Q 47.125 21.390625 47.125 36.375 
Q 47.125 51.421875 43.28125 58.90625 
Q 39.453125 66.40625 31.78125 66.40625 
z
M 31.78125 74.21875 
Q 44.046875 74.21875 50.515625 64.515625 
Q 56.984375 54.828125 56.984375 36.375 
Q 56.984375 17.96875 50.515625 8.265625 
Q 44.046875 -1.421875 31.78125 -1.421875 
Q 19.53125 -1.421875 13.0625 8.265625 
Q 6.59375 17.96875 6.59375 36.375 
Q 6.59375 54.828125 13.0625 64.515625 
Q 19.53125 74.21875 31.78125 74.21875 
z
" id="DejaVuSans-48"/>
       </defs>
       <use xlink:href="#DejaVuSans-50"/>
       <use x="63.623047" xlink:href="#DejaVuSans-48"/>
      </g>
     </g>
    </g>
    <g id="xtick_2">
     <g id="line2d_2">
      <g>
       <use style="stroke:#000000;stroke-width:0.8;" x="194.217355" xlink:href="#m39081de063" y="307.584"/>
      </g>
     </g>
     <g id="text_2">
      <!-- 40 -->
      <g transform="translate(187.854855 322.182437)scale(0.1 -0.1)">
       <defs>
        <path d="M 37.796875 64.3125 
L 12.890625 25.390625 
L 37.796875 25.390625 
z
M 35.203125 72.90625 
L 47.609375 72.90625 
L 47.609375 25.390625 
L 58.015625 25.390625 
L 58.015625 17.1875 
L 47.609375 17.1875 
L 47.609375 0 
L 37.796875 0 
L 37.796875 17.1875 
L 4.890625 17.1875 
L 4.890625 26.703125 
z
" id="DejaVuSans-52"/>
       </defs>
       <use xlink:href="#DejaVuSans-52"/>
       <use x="63.623047" xlink:href="#DejaVuSans-48"/>
      </g>
     </g>
    </g>
    <g id="xtick_3">
     <g id="line2d_3">
      <g>
       <use style="stroke:#000000;stroke-width:0.8;" x="264.833713" xlink:href="#m39081de063" y="307.584"/>
      </g>
     </g>
     <g id="text_3">
      <!-- 60 -->
      <g transform="translate(258.471213 322.182437)scale(0.1 -0.1)">
       <defs>
        <path d="M 33.015625 40.375 
Q 26.375 40.375 22.484375 35.828125 
Q 18.609375 31.296875 18.609375 23.390625 
Q 18.609375 15.53125 22.484375 10.953125 
Q 26.375 6.390625 33.015625 6.390625 
Q 39.65625 6.390625 43.53125 10.953125 
Q 47.40625 15.53125 47.40625 23.390625 
Q 47.40625 31.296875 43.53125 35.828125 
Q 39.65625 40.375 33.015625 40.375 
z
M 52.59375 71.296875 
L 52.59375 62.3125 
Q 48.875 64.0625 45.09375 64.984375 
Q 41.3125 65.921875 37.59375 65.921875 
Q 27.828125 65.921875 22.671875 59.328125 
Q 17.53125 52.734375 16.796875 39.40625 
Q 19.671875 43.65625 24.015625 45.921875 
Q 28.375 48.1875 33.59375 48.1875 
Q 44.578125 48.1875 50.953125 41.515625 
Q 57.328125 34.859375 57.328125 23.390625 
Q 57.328125 12.15625 50.6875 5.359375 
Q 44.046875 -1.421875 33.015625 -1.421875 
Q 20.359375 -1.421875 13.671875 8.265625 
Q 6.984375 17.96875 6.984375 36.375 
Q 6.984375 53.65625 15.1875 63.9375 
Q 23.390625 74.21875 37.203125 74.21875 
Q 40.921875 74.21875 44.703125 73.484375 
Q 48.484375 72.75 52.59375 71.296875 
z
" id="DejaVuSans-54"/>
       </defs>
       <use xlink:href="#DejaVuSans-54"/>
       <use x="63.623047" xlink:href="#DejaVuSans-48"/>
      </g>
     </g>
    </g>
    <g id="xtick_4">
     <g id="line2d_4">
      <g>
       <use style="stroke:#000000;stroke-width:0.8;" x="335.450071" xlink:href="#m39081de063" y="307.584"/>
      </g>
     </g>
     <g id="text_4">
      <!-- 80 -->
      <g transform="translate(329.087571 322.182437)scale(0.1 -0.1)">
       <defs>
        <path d="M 31.78125 34.625 
Q 24.75 34.625 20.71875 30.859375 
Q 16.703125 27.09375 16.703125 20.515625 
Q 16.703125 13.921875 20.71875 10.15625 
Q 24.75 6.390625 31.78125 6.390625 
Q 38.8125 6.390625 42.859375 10.171875 
Q 46.921875 13.96875 46.921875 20.515625 
Q 46.921875 27.09375 42.890625 30.859375 
Q 38.875 34.625 31.78125 34.625 
z
M 21.921875 38.8125 
Q 15.578125 40.375 12.03125 44.71875 
Q 8.5 49.078125 8.5 55.328125 
Q 8.5 64.0625 14.71875 69.140625 
Q 20.953125 74.21875 31.78125 74.21875 
Q 42.671875 74.21875 48.875 69.140625 
Q 55.078125 64.0625 55.078125 55.328125 
Q 55.078125 49.078125 51.53125 44.71875 
Q 48 40.375 41.703125 38.8125 
Q 48.828125 37.15625 52.796875 32.3125 
Q 56.78125 27.484375 56.78125 20.515625 
Q 56.78125 9.90625 50.3125 4.234375 
Q 43.84375 -1.421875 31.78125 -1.421875 
Q 19.734375 -1.421875 13.25 4.234375 
Q 6.78125 9.90625 6.78125 20.515625 
Q 6.78125 27.484375 10.78125 32.3125 
Q 14.796875 37.15625 21.921875 38.8125 
z
M 18.3125 54.390625 
Q 18.3125 48.734375 21.84375 45.5625 
Q 25.390625 42.390625 31.78125 42.390625 
Q 38.140625 42.390625 41.71875 45.5625 
Q 45.3125 48.734375 45.3125 54.390625 
Q 45.3125 60.0625 41.71875 63.234375 
Q 38.140625 66.40625 31.78125 66.40625 
Q 25.390625 66.40625 21.84375 63.234375 
Q 18.3125 60.0625 18.3125 54.390625 
z
" id="DejaVuSans-56"/>
       </defs>
       <use xlink:href="#DejaVuSans-56"/>
       <use x="63.623047" xlink:href="#DejaVuSans-48"/>
      </g>
     </g>
    </g>
    <g id="xtick_5">
     <g id="line2d_5">
      <g>
       <use style="stroke:#000000;stroke-width:0.8;" x="406.06643" xlink:href="#m39081de063" y="307.584"/>
      </g>
     </g>
     <g id="text_5">
      <!-- 100 -->
      <g transform="translate(396.52268 322.182437)scale(0.1 -0.1)">
       <defs>
        <path d="M 12.40625 8.296875 
L 28.515625 8.296875 
L 28.515625 63.921875 
L 10.984375 60.40625 
L 10.984375 69.390625 
L 28.421875 72.90625 
L 38.28125 72.90625 
L 38.28125 8.296875 
L 54.390625 8.296875 
L 54.390625 0 
L 12.40625 0 
z
" id="DejaVuSans-49"/>
       </defs>
       <use xlink:href="#DejaVuSans-49"/>
       <use x="63.623047" xlink:href="#DejaVuSans-48"/>
       <use x="127.246094" xlink:href="#DejaVuSans-48"/>
      </g>
     </g>
    </g>
   </g>
   <g id="matplotlib.axis_2">
    <g id="ytick_1">
     <g id="line2d_6">
      <defs>
       <path d="M 0 0 
L -3.5 0 
" id="m65c99d48f7" style="stroke:#000000;stroke-width:0.8;"/>
      </defs>
      <g>
       <use style="stroke:#000000;stroke-width:0.8;" x="57.6" xlink:href="#m65c99d48f7" y="274.769767"/>
      </g>
     </g>
     <g id="text_6">
      <!-- 0 -->
      <g transform="translate(44.2375 278.568985)scale(0.1 -0.1)">
       <use xlink:href="#DejaVuSans-48"/>
      </g>
     </g>
    </g>
    <g id="ytick_2">
     <g id="line2d_7">
      <g>
       <use style="stroke:#000000;stroke-width:0.8;" x="57.6" xlink:href="#m65c99d48f7" y="239.461587"/>
      </g>
     </g>
     <g id="text_7">
      <!-- 10 -->
      <g transform="translate(37.875 243.260806)scale(0.1 -0.1)">
       <use xlink:href="#DejaVuSans-49"/>
       <use x="63.623047" xlink:href="#DejaVuSans-48"/>
      </g>
     </g>
    </g>
    <g id="ytick_3">
     <g id="line2d_8">
      <g>
       <use style="stroke:#000000;stroke-width:0.8;" x="57.6" xlink:href="#m65c99d48f7" y="204.153408"/>
      </g>
     </g>
     <g id="text_8">
      <!-- 20 -->
      <g transform="translate(37.875 207.952627)scale(0.1 -0.1)">
       <use xlink:href="#DejaVuSans-50"/>
       <use x="63.623047" xlink:href="#DejaVuSans-48"/>
      </g>
     </g>
    </g>
    <g id="ytick_4">
     <g id="line2d_9">
      <g>
       <use style="stroke:#000000;stroke-width:0.8;" x="57.6" xlink:href="#m65c99d48f7" y="168.845229"/>
      </g>
     </g>
     <g id="text_9">
      <!-- 30 -->
      <g transform="translate(37.875 172.644448)scale(0.1 -0.1)">
       <defs>
        <path d="M 40.578125 39.3125 
Q 47.65625 37.796875 51.625 33 
Q 55.609375 28.21875 55.609375 21.1875 
Q 55.609375 10.40625 48.1875 4.484375 
Q 40.765625 -1.421875 27.09375 -1.421875 
Q 22.515625 -1.421875 17.65625 -0.515625 
Q 12.796875 0.390625 7.625 2.203125 
L 7.625 11.71875 
Q 11.71875 9.328125 16.59375 8.109375 
Q 21.484375 6.890625 26.8125 6.890625 
Q 36.078125 6.890625 40.9375 10.546875 
Q 45.796875 14.203125 45.796875 21.1875 
Q 45.796875 27.640625 41.28125 31.265625 
Q 36.765625 34.90625 28.71875 34.90625 
L 20.21875 34.90625 
L 20.21875 43.015625 
L 29.109375 43.015625 
Q 36.375 43.015625 40.234375 45.921875 
Q 44.09375 48.828125 44.09375 54.296875 
Q 44.09375 59.90625 40.109375 62.90625 
Q 36.140625 65.921875 28.71875 65.921875 
Q 24.65625 65.921875 20.015625 65.03125 
Q 15.375 64.15625 9.8125 62.3125 
L 9.8125 71.09375 
Q 15.4375 72.65625 20.34375 73.4375 
Q 25.25 74.21875 29.59375 74.21875 
Q 40.828125 74.21875 47.359375 69.109375 
Q 53.90625 64.015625 53.90625 55.328125 
Q 53.90625 49.265625 50.4375 45.09375 
Q 46.96875 40.921875 40.578125 39.3125 
z
" id="DejaVuSans-51"/>
       </defs>
       <use xlink:href="#DejaVuSans-51"/>
       <use x="63.623047" xlink:href="#DejaVuSans-48"/>
      </g>
     </g>
    </g>
    <g id="ytick_5">
     <g id="line2d_10">
      <g>
       <use style="stroke:#000000;stroke-width:0.8;" x="57.6" xlink:href="#m65c99d48f7" y="133.53705"/>
      </g>
     </g>
     <g id="text_10">
      <!-- 40 -->
      <g transform="translate(37.875 137.336269)scale(0.1 -0.1)">
       <use xlink:href="#DejaVuSans-52"/>
       <use x="63.623047" xlink:href="#DejaVuSans-48"/>
      </g>
     </g>
    </g>
    <g id="ytick_6">
     <g id="line2d_11">
      <g>
       <use style="stroke:#000000;stroke-width:0.8;" x="57.6" xlink:href="#m65c99d48f7" y="98.228871"/>
      </g>
     </g>
     <g id="text_11">
      <!-- 50 -->
      <g transform="translate(37.875 102.028089)scale(0.1 -0.1)">
       <defs>
        <path d="M 10.796875 72.90625 
L 49.515625 72.90625 
L 49.515625 64.59375 
L 19.828125 64.59375 
L 19.828125 46.734375 
Q 21.96875 47.46875 24.109375 47.828125 
Q 26.265625 48.1875 28.421875 48.1875 
Q 40.625 48.1875 47.75 41.5 
Q 54.890625 34.8125 54.890625 23.390625 
Q 54.890625 11.625 47.5625 5.09375 
Q 40.234375 -1.421875 26.90625 -1.421875 
Q 22.3125 -1.421875 17.546875 -0.640625 
Q 12.796875 0.140625 7.71875 1.703125 
L 7.71875 11.625 
Q 12.109375 9.234375 16.796875 8.0625 
Q 21.484375 6.890625 26.703125 6.890625 
Q 35.15625 6.890625 40.078125 11.328125 
Q 45.015625 15.765625 45.015625 23.390625 
Q 45.015625 31 40.078125 35.4375 
Q 35.15625 39.890625 26.703125 39.890625 
Q 22.75 39.890625 18.8125 39.015625 
Q 14.890625 38.140625 10.796875 36.28125 
z
" id="DejaVuSans-53"/>
       </defs>
       <use xlink:href="#DejaVuSans-53"/>
       <use x="63.623047" xlink:href="#DejaVuSans-48"/>
      </g>
     </g>
    </g>
    <g id="ytick_7">
     <g id="line2d_12">
      <g>
       <use style="stroke:#000000;stroke-width:0.8;" x="57.6" xlink:href="#m65c99d48f7" y="62.920691"/>
      </g>
     </g>
     <g id="text_12">
      <!-- 60 -->
      <g transform="translate(37.875 66.71991)scale(0.1 -0.1)">
       <use xlink:href="#DejaVuSans-54"/>
       <use x="63.623047" xlink:href="#DejaVuSans-48"/>
      </g>
     </g>
    </g>
   </g>
   <g id="line2d_13">
    <path clip-path="url(#p143ce45a9d)" d="M 100.322314 117.185832 
L 98.387425 120.077572 
L 96.607893 123.096421 
L 94.987248 126.235318 
L 93.525489 129.473078 
L 92.229679 132.80264 
L 91.099817 136.209879 
L 90.139435 139.684204 
L 89.348531 143.215022 
L 88.734169 146.781148 
L 88.292817 150.379051 
L 88.031536 153.994609 
L 87.950328 157.610166 
L 88.052721 161.222193 
L 88.342248 164.809504 
L 88.818909 168.365038 
L 89.486233 171.874671 
L 90.344222 175.32428 
L 91.403468 178.703273 
L 92.656908 182.001057 
L 94.111605 185.203508 
L 95.767558 188.303567 
L 97.610645 191.2977 
L 99.619681 194.192971 
L 101.784072 196.99291 
L 104.086165 199.701047 
L 106.508307 202.324445 
L 109.032841 204.866633 
L 114.325537 209.717977 
L 119.833613 214.293917 
L 125.500576 218.590923 
L 131.351141 222.570155 
L 137.406494 226.196305 
L 140.513614 227.866381 
L 143.684288 229.430534 
L 146.914987 230.888762 
L 150.20924 232.234003 
L 153.559986 233.459197 
L 156.960164 234.557281 
L 160.402711 235.524725 
L 163.880567 236.347406 
L 167.379608 237.018261 
L 170.899833 237.537292 
L 174.42712 237.890374 
L 177.957938 238.073976 
L 181.485225 238.077507 
L 184.998389 237.900966 
L 188.49743 237.569069 
L 195.481387 236.562786 
L 212.920097 233.466259 
L 216.422668 232.993129 
L 219.939363 232.632986 
L 227.000999 232.248126 
L 234.076758 232.269311 
L 241.152517 232.657701 
L 248.210622 233.360334 
L 255.222827 234.33484 
L 265.677578 236.121434 
L 279.589001 238.515328 
L 286.57649 239.461587 
L 293.606348 240.107727 
L 300.667984 240.411377 
L 307.743743 240.344292 
L 314.819502 239.881755 
L 321.881138 238.99552 
L 325.401364 238.388219 
L 328.900404 237.66087 
L 332.371198 236.809943 
L 335.806684 235.828376 
L 339.192738 234.712637 
L 342.5223 233.455666 
L 345.781245 232.050401 
L 348.962512 230.49331 
L 352.055508 228.777332 
L 355.053172 226.895406 
L 357.941382 224.847532 
L 360.713074 222.63724 
L 363.368249 220.271592 
L 365.892784 217.761181 
L 368.286678 215.113067 
L 370.53934 212.337844 
L 372.650769 209.439043 
L 374.606842 206.427255 
L 376.407559 203.313074 
L 378.045859 200.100029 
L 379.511148 196.802245 
L 380.799897 193.426783 
L 381.905043 189.991298 
L 382.815994 186.502849 
L 383.525688 182.979093 
L 384.027064 179.434152 
L 384.316591 175.875088 
L 384.380146 172.319554 
L 384.210667 168.778144 
L 383.808154 165.26498 
L 383.158483 161.794186 
L 382.275779 158.365761 
L 381.177694 154.997361 
L 379.867761 151.685454 
L 378.367163 148.444163 
L 376.682963 145.277019 
L 374.832814 142.191085 
L 372.82731 139.19342 
L 370.680573 136.294619 
L 368.406726 133.49468 
L 366.012831 130.804197 
L 363.509481 128.230231 
L 360.893145 125.783374 
L 358.174416 123.463626 
L 355.349761 121.288642 
L 352.429775 119.261953 
L 349.410925 117.387089 
L 346.300275 115.678173 
L 343.097823 114.138736 
L 339.814162 112.779371 
L 336.445762 111.603609 
L 333.006745 110.618511 
L 329.511236 109.827608 
L 325.976887 109.230899 
L 322.410761 108.831917 
L 318.830511 108.634191 
L 315.246731 108.641253 
L 311.673544 108.853102 
L 308.128602 109.2768 
L 304.618969 109.915878 
L 301.165829 110.766805 
L 297.765652 111.82252 
L 294.43609 113.079491 
L 291.177145 114.527126 
L 287.999409 116.151302 
L 284.906413 117.948489 
L 281.908748 119.911623 
L 279.013478 122.026583 
L 276.224132 124.286307 
L 273.547772 126.683732 
L 270.99499 129.208267 
L 268.569318 131.85285 
L 266.277818 134.610418 
L 264.13108 137.473912 
L 262.132637 140.436268 
L 260.286019 143.490426 
L 258.60535 146.629323 
L 257.090629 149.842367 
L 255.752449 153.129558 
L 254.597872 156.476774 
L 253.633959 159.876952 
L 252.86424 163.326561 
L 252.295779 166.81854 
L 251.939166 170.342296 
L 251.797933 173.894299 
L 251.879142 177.460425 
L 252.189854 181.044205 
L 252.737131 184.627985 
L 253.528034 188.211765 
L 254.569625 191.784953 
L 254.569625 191.784953 
" style="fill:none;stroke:#fea952;stroke-linecap:square;"/>
   </g>
   <g id="line2d_14">
    <path clip-path="url(#p143ce45a9d)" d="M 112.06034 125.039847 
L 110.554167 127.249546 
L 109.157196 129.575758 
L 107.859462 132.046765 
L 106.687134 134.595373 
L 105.63512 137.247967 
L 104.712588 139.972759 
L 103.921182 142.771315 
L 103.266771 145.612817 
L 102.752363 148.50075 
L 102.379354 151.397024 
L 102.151247 154.311751 
L 102.067928 157.209961 
L 102.130218 160.086017 
L 102.34029 162.932905 
L 102.693598 165.726893 
L 103.191936 168.465781 
L 103.820838 171.099635 
L 104.605294 173.685448 
L 105.515717 176.16001 
L 106.568992 178.549164 
L 107.794786 180.900014 
L 109.214022 183.246089 
L 110.793664 185.555327 
L 112.544802 187.845588 
L 114.462923 190.120353 
L 116.529704 192.372641 
L 121.028554 196.778344 
L 125.959168 201.07572 
L 131.049531 205.127154 
L 136.181619 208.836609 
L 141.420248 212.203409 
L 146.76194 215.200474 
L 152.254335 217.813665 
L 155.05933 218.969636 
L 157.900355 220.019405 
L 160.78115 220.960706 
L 163.653826 221.780743 
L 166.539923 222.476767 
L 169.439704 223.046046 
L 172.306544 223.48425 
L 175.160539 223.786158 
L 177.972075 223.950711 
L 180.776407 223.972033 
L 183.664731 223.840804 
L 186.672551 223.564191 
L 193.029382 222.653995 
L 211.029487 219.470102 
L 214.983835 218.94334 
L 218.952165 218.544258 
L 222.91681 218.273264 
L 230.77846 218.088048 
L 238.561372 218.329395 
L 246.234169 218.933687 
L 253.78229 219.84689 
L 261.112086 220.981443 
L 284.844887 225.007992 
L 291.215753 225.747239 
L 297.57081 226.185418 
L 303.881762 226.305948 
L 310.160008 226.085838 
L 316.380039 225.508699 
L 322.526992 224.560537 
L 328.491237 223.230079 
L 331.386698 222.414557 
L 334.204564 221.499579 
L 336.930056 220.486718 
L 339.572353 219.365115 
L 342.110828 218.143361 
L 344.546142 216.815885 
L 346.884207 215.374348 
L 349.135809 213.8054 
L 351.317904 212.092214 
L 353.40964 210.256957 
L 355.415902 208.29008 
L 357.321143 206.212289 
L 359.123356 204.02267 
L 360.806348 201.746417 
L 362.380397 199.357542 
L 363.825489 196.8976 
L 365.13928 194.365308 
L 366.316845 191.764671 
L 367.355145 189.101802 
L 368.240003 186.422896 
L 368.970734 183.714375 
L 369.54159 181.001263 
L 369.950294 178.289018 
L 370.195575 175.622676 
L 370.27302 172.994671 
L 370.17919 170.38577 
L 369.925984 167.863473 
L 369.481263 165.315612 
L 368.848002 162.74316 
L 368.044386 160.191879 
L 367.051359 157.618973 
L 365.897381 155.075251 
L 364.569912 152.539306 
L 363.09432 150.0444 
L 361.477474 147.598658 
L 359.71719 145.198047 
L 357.855446 142.882827 
L 355.888253 140.651009 
L 353.862505 138.545396 
L 351.725996 136.527217 
L 349.557898 134.653909 
L 347.296799 132.891082 
L 344.978542 131.2597 
L 342.61059 129.765386 
L 340.181398 128.407122 
L 337.695699 127.188022 
L 335.159742 126.113657 
L 332.556596 125.18084 
L 329.889963 124.393578 
L 327.160061 123.753798 
L 324.406556 123.266599 
L 321.631964 122.9337 
L 318.85834 122.757435 
L 316.082612 122.739767 
L 313.349654 122.876563 
L 310.65874 123.17159 
L 307.998158 123.628933 
L 305.353718 124.254888 
L 302.753827 125.035578 
L 300.169499 125.986653 
L 297.604803 127.102977 
L 295.094905 128.362803 
L 292.643986 129.763596 
L 290.239621 131.316156 
L 287.903811 133.000588 
L 285.64754 134.806106 
L 283.47872 136.725797 
L 281.403134 138.754855 
L 279.431646 140.879291 
L 277.578107 143.082152 
L 275.839238 145.372383 
L 274.218516 147.743684 
L 272.736858 150.157016 
L 271.380212 152.651757 
L 270.171537 155.167463 
L 269.10376 157.734916 
L 268.185694 160.328773 
L 267.418253 162.952669 
L 266.804012 165.595826 
L 266.347276 168.240585 
L 266.051287 170.903414 
L 265.917544 173.572763 
L 265.94963 176.24052 
L 266.151273 178.912166 
L 266.528547 181.584362 
L 267.086975 184.259307 
L 268.128566 187.832495 
L 268.128566 187.832495 
" style="fill:none;stroke:#ffffff;stroke-linecap:square;"/>
   </g>
   <g id="line2d_15">
    <path clip-path="url(#p143ce45a9d)" d="M 88.584288 109.331817 
L 86.220684 112.905598 
L 84.05859 116.617085 
L 82.115034 120.423872 
L 80.363844 124.350784 
L 78.824237 128.357312 
L 77.487046 132.446999 
L 76.357688 136.597093 
L 75.430292 140.817226 
L 74.715975 145.061546 
L 74.20628 149.361079 
L 73.911826 153.677467 
L 73.832727 158.010372 
L 73.975225 162.358369 
L 74.344206 166.686104 
L 74.94422 171.003183 
L 75.780531 175.283561 
L 76.867606 179.548924 
L 78.201641 183.721098 
L 79.798099 187.842103 
L 81.654218 191.857853 
L 83.740331 195.70712 
L 86.007269 199.349312 
L 88.445697 202.830615 
L 91.023342 206.140231 
L 93.709408 209.281741 
L 96.486909 212.276249 
L 99.335063 215.134052 
L 102.255678 217.883944 
L 108.157613 223.006791 
L 114.24582 227.831834 
L 120.624198 232.412738 
L 123.909029 234.573561 
L 127.284425 236.658382 
L 130.719928 238.636427 
L 134.265288 240.532289 
L 137.873976 242.30326 
L 141.575639 243.963859 
L 145.35915 245.49837 
L 149.219617 246.898989 
L 153.139177 248.153857 
L 157.151597 249.268708 
L 161.221211 250.218045 
L 165.319512 250.990477 
L 169.493122 251.590333 
L 173.693701 251.994589 
L 177.943801 252.197241 
L 182.194043 252.18298 
L 186.332047 251.961128 
L 190.322308 251.573948 
L 197.933393 250.471577 
L 217.861502 247.042918 
L 224.01649 246.498393 
L 230.299297 246.330527 
L 236.674965 246.512878 
L 243.139563 247.010201 
L 249.665282 247.791791 
L 256.317525 248.818099 
L 281.310012 253.032479 
L 288.956492 253.903285 
L 296.696461 254.418426 
L 304.529965 254.545053 
L 312.410299 254.242603 
L 316.362223 253.920516 
L 320.327663 253.47803 
L 324.282182 252.913199 
L 328.275735 252.215901 
L 332.263381 251.37791 
L 336.251159 250.389807 
L 340.22667 249.242194 
L 344.180913 247.925696 
L 348.114544 246.424614 
L 351.990136 244.735686 
L 355.814195 242.843259 
L 359.564874 240.73878 
L 363.222138 238.416465 
L 366.746955 235.889664 
L 370.108244 233.182267 
L 373.326858 230.286227 
L 376.369665 227.232282 
L 379.252213 224.013845 
L 381.955323 220.653019 
L 384.49519 217.131668 
L 386.833287 213.496968 
L 388.98963 209.728547 
L 390.952437 205.834751 
L 392.705452 201.839819 
L 394.244648 197.751765 
L 395.570083 193.559699 
L 396.661253 189.291324 
L 397.509786 184.956924 
L 398.103835 180.579286 
L 398.437607 176.127499 
L 398.487273 171.644437 
L 398.242144 167.170517 
L 397.690323 162.666486 
L 396.835704 158.272759 
L 395.703555 153.988363 
L 394.311003 149.802844 
L 392.684163 145.751935 
L 390.836946 141.813075 
L 388.796014 138.014733 
L 386.571309 134.337769 
L 384.177146 130.788182 
L 381.643956 127.39119 
L 378.958006 124.106533 
L 376.13741 120.957384 
L 373.156458 117.915065 
L 370.060295 115.03953 
L 366.790933 112.273344 
L 363.402724 109.686203 
L 359.881007 107.264206 
L 356.211261 105.008792 
L 352.419152 102.949224 
L 348.499947 101.08945 
L 344.468583 99.445086 
L 340.334928 98.026378 
L 336.123528 96.843444 
L 331.862411 95.901417 
L 327.547218 95.1952 
L 323.189557 94.730134 
L 318.802682 94.510947 
L 314.410851 94.542738 
L 309.997433 94.829641 
L 305.598464 95.382009 
L 301.239781 96.202823 
L 296.977941 97.278722 
L 292.777477 98.609461 
L 288.702682 100.172329 
L 284.749488 101.951275 
L 280.903914 103.939802 
L 277.16884 106.133381 
L 273.577876 108.507091 
L 270.123145 111.052579 
L 266.800723 113.766508 
L 263.616823 116.641668 
L 260.586847 119.661679 
L 257.706991 122.826408 
L 254.977528 126.138685 
L 252.422922 129.575441 
L 250.046758 133.128852 
L 247.835181 136.823835 
L 245.830489 140.606888 
L 244.009721 144.517271 
L 242.401139 148.524201 
L 241.01005 152.624775 
L 239.849664 156.801234 
L 238.924468 161.057295 
L 238.244281 165.396494 
L 237.827045 169.781178 
L 237.678322 174.215834 
L 237.808654 178.680329 
L 238.228435 183.176244 
L 238.945715 187.671608 
L 239.969093 192.164223 
L 241.010684 195.737411 
L 241.010684 195.737411 
" style="fill:none;stroke:#ffffff;stroke-linecap:square;"/>
   </g>
   <g id="patch_3">
    <path d="M 57.6 307.584 
L 57.6 41.472 
" style="fill:none;stroke:#000000;stroke-linecap:square;stroke-linejoin:miter;stroke-width:0.8;"/>
   </g>
   <g id="patch_4">
    <path d="M 414.72 307.584 
L 414.72 41.472 
" style="fill:none;stroke:#000000;stroke-linecap:square;stroke-linejoin:miter;stroke-width:0.8;"/>
   </g>
   <g id="patch_5">
    <path d="M 57.6 307.584 
L 414.72 307.584 
" style="fill:none;stroke:#000000;stroke-linecap:square;stroke-linejoin:miter;stroke-width:0.8;"/>
   </g>
   <g id="patch_6">
    <path d="M 57.6 41.472 
L 414.72 41.472 
" style="fill:none;stroke:#000000;stroke-linecap:square;stroke-linejoin:miter;stroke-width:0.8;"/>
   </g>
  </g>
 </g>
 <defs>
  <clipPath id="p143ce45a9d">
   <rect height="266.112" width="357.12" x="57.6" y="41.472"/>
  </clipPath>
 </defs>
</svg>
