<?xml version="1.0" encoding="utf-8" standalone="no"?>
<!DOCTYPE svg PUBLIC "-//W3C//DTD SVG 1.1//EN"
  "http://www.w3.org/Graphics/SVG/1.1/DTD/svg11.dtd">
<!-- Created with matplotlib (https://matplotlib.org/) -->
<svg height="345.6pt" version="1.1" viewBox="0 0 460.8 345.6" width="460.8pt" xmlns="http://www.w3.org/2000/svg" xmlns:xlink="http://www.w3.org/1999/xlink">
 <metadata>
  <rdf:RDF xmlns:cc="http://creativecommons.org/ns#" xmlns:dc="http://purl.org/dc/elements/1.1/" xmlns:rdf="http://www.w3.org/1999/02/22-rdf-syntax-ns#">
   <cc:Work>
    <dc:type rdf:resource="http://purl.org/dc/dcmitype/StillImage"/>
    <dc:date>2021-01-22T10:59:34.663085</dc:date>
    <dc:format>image/svg+xml</dc:format>
    <dc:creator>
     <cc:Agent>
      <dc:title>Matplotlib v3.3.3, https://matplotlib.org/</dc:title>
     </cc:Agent>
    </dc:creator>
   </cc:Work>
  </rdf:RDF>
 </metadata>
 <defs>
  <style type="text/css">*{stroke-linecap:butt;stroke-linejoin:round;}</style>
 </defs>
 <g id="figure_1">
  <g id="patch_1">
   <path d="M 0 345.6 
L 460.8 345.6 
L 460.8 0 
L 0 0 
z
" style="fill:#ffffff;"/>
  </g>
  <g id="axes_1">
   <g id="patch_2">
    <path d="M 57.6 307.584 
L 414.72 307.584 
L 414.72 41.472 
L 57.6 41.472 
z
" style="fill:#7d9051;"/>
   </g>
   <g id="matplotlib.axis_1">
    <g id="xtick_1">
     <g id="line2d_1">
      <defs>
       <path d="M 0 0 
L 0 3.5 
" id="mdb47fb9bb5" style="stroke:#000000;stroke-width:0.8;"/>
      </defs>
      <g>
       <use style="stroke:#000000;stroke-width:0.8;" x="84.247541" xlink:href="#mdb47fb9bb5" y="307.584"/>
      </g>
     </g>
     <g id="text_1">
      <!-- −20 -->
      <g transform="translate(73.695197 322.182437)scale(0.1 -0.1)">
       <defs>
        <path d="M 10.59375 35.5 
L 73.1875 35.5 
L 73.1875 27.203125 
L 10.59375 27.203125 
z
" id="DejaVuSans-8722"/>
        <path d="M 19.1875 8.296875 
L 53.609375 8.296875 
L 53.609375 0 
L 7.328125 0 
L 7.328125 8.296875 
Q 12.9375 14.109375 22.625 23.890625 
Q 32.328125 33.6875 34.8125 36.53125 
Q 39.546875 41.84375 41.421875 45.53125 
Q 43.3125 49.21875 43.3125 52.78125 
Q 43.3125 58.59375 39.234375 62.25 
Q 35.15625 65.921875 28.609375 65.921875 
Q 23.96875 65.921875 18.8125 64.3125 
Q 13.671875 62.703125 7.8125 59.421875 
L 7.8125 69.390625 
Q 13.765625 71.78125 18.9375 73 
Q 24.125 74.21875 28.421875 74.21875 
Q 39.75 74.21875 46.484375 68.546875 
Q 53.21875 62.890625 53.21875 53.421875 
Q 53.21875 48.921875 51.53125 44.890625 
Q 49.859375 40.875 45.40625 35.40625 
Q 44.1875 33.984375 37.640625 27.21875 
Q 31.109375 20.453125 19.1875 8.296875 
z
" id="DejaVuSans-50"/>
        <path d="M 31.78125 66.40625 
Q 24.171875 66.40625 20.328125 58.90625 
Q 16.5 51.421875 16.5 36.375 
Q 16.5 21.390625 20.328125 13.890625 
Q 24.171875 6.390625 31.78125 6.390625 
Q 39.453125 6.390625 43.28125 13.890625 
Q 47.125 21.390625 47.125 36.375 
Q 47.125 51.421875 43.28125 58.90625 
Q 39.453125 66.40625 31.78125 66.40625 
z
M 31.78125 74.21875 
Q 44.046875 74.21875 50.515625 64.515625 
Q 56.984375 54.828125 56.984375 36.375 
Q 56.984375 17.96875 50.515625 8.265625 
Q 44.046875 -1.421875 31.78125 -1.421875 
Q 19.53125 -1.421875 13.0625 8.265625 
Q 6.59375 17.96875 6.59375 36.375 
Q 6.59375 54.828125 13.0625 64.515625 
Q 19.53125 74.21875 31.78125 74.21875 
z
" id="DejaVuSans-48"/>
       </defs>
       <use xlink:href="#DejaVuSans-8722"/>
       <use x="83.789062" xlink:href="#DejaVuSans-50"/>
       <use x="147.412109" xlink:href="#DejaVuSans-48"/>
      </g>
     </g>
    </g>
    <g id="xtick_2">
     <g id="line2d_2">
      <g>
       <use style="stroke:#000000;stroke-width:0.8;" x="127.096205" xlink:href="#mdb47fb9bb5" y="307.584"/>
      </g>
     </g>
     <g id="text_2">
      <!-- 0 -->
      <g transform="translate(123.914955 322.182437)scale(0.1 -0.1)">
       <use xlink:href="#DejaVuSans-48"/>
      </g>
     </g>
    </g>
    <g id="xtick_3">
     <g id="line2d_3">
      <g>
       <use style="stroke:#000000;stroke-width:0.8;" x="169.944869" xlink:href="#mdb47fb9bb5" y="307.584"/>
      </g>
     </g>
     <g id="text_3">
      <!-- 20 -->
      <g transform="translate(163.582369 322.182437)scale(0.1 -0.1)">
       <use xlink:href="#DejaVuSans-50"/>
       <use x="63.623047" xlink:href="#DejaVuSans-48"/>
      </g>
     </g>
    </g>
    <g id="xtick_4">
     <g id="line2d_4">
      <g>
       <use style="stroke:#000000;stroke-width:0.8;" x="212.793534" xlink:href="#mdb47fb9bb5" y="307.584"/>
      </g>
     </g>
     <g id="text_4">
      <!-- 40 -->
      <g transform="translate(206.431034 322.182437)scale(0.1 -0.1)">
       <defs>
        <path d="M 37.796875 64.3125 
L 12.890625 25.390625 
L 37.796875 25.390625 
z
M 35.203125 72.90625 
L 47.609375 72.90625 
L 47.609375 25.390625 
L 58.015625 25.390625 
L 58.015625 17.1875 
L 47.609375 17.1875 
L 47.609375 0 
L 37.796875 0 
L 37.796875 17.1875 
L 4.890625 17.1875 
L 4.890625 26.703125 
z
" id="DejaVuSans-52"/>
       </defs>
       <use xlink:href="#DejaVuSans-52"/>
       <use x="63.623047" xlink:href="#DejaVuSans-48"/>
      </g>
     </g>
    </g>
    <g id="xtick_5">
     <g id="line2d_5">
      <g>
       <use style="stroke:#000000;stroke-width:0.8;" x="255.642198" xlink:href="#mdb47fb9bb5" y="307.584"/>
      </g>
     </g>
     <g id="text_5">
      <!-- 60 -->
      <g transform="translate(249.279698 322.182437)scale(0.1 -0.1)">
       <defs>
        <path d="M 33.015625 40.375 
Q 26.375 40.375 22.484375 35.828125 
Q 18.609375 31.296875 18.609375 23.390625 
Q 18.609375 15.53125 22.484375 10.953125 
Q 26.375 6.390625 33.015625 6.390625 
Q 39.65625 6.390625 43.53125 10.953125 
Q 47.40625 15.53125 47.40625 23.390625 
Q 47.40625 31.296875 43.53125 35.828125 
Q 39.65625 40.375 33.015625 40.375 
z
M 52.59375 71.296875 
L 52.59375 62.3125 
Q 48.875 64.0625 45.09375 64.984375 
Q 41.3125 65.921875 37.59375 65.921875 
Q 27.828125 65.921875 22.671875 59.328125 
Q 17.53125 52.734375 16.796875 39.40625 
Q 19.671875 43.65625 24.015625 45.921875 
Q 28.375 48.1875 33.59375 48.1875 
Q 44.578125 48.1875 50.953125 41.515625 
Q 57.328125 34.859375 57.328125 23.390625 
Q 57.328125 12.15625 50.6875 5.359375 
Q 44.046875 -1.421875 33.015625 -1.421875 
Q 20.359375 -1.421875 13.671875 8.265625 
Q 6.984375 17.96875 6.984375 36.375 
Q 6.984375 53.65625 15.1875 63.9375 
Q 23.390625 74.21875 37.203125 74.21875 
Q 40.921875 74.21875 44.703125 73.484375 
Q 48.484375 72.75 52.59375 71.296875 
z
" id="DejaVuSans-54"/>
       </defs>
       <use xlink:href="#DejaVuSans-54"/>
       <use x="63.623047" xlink:href="#DejaVuSans-48"/>
      </g>
     </g>
    </g>
    <g id="xtick_6">
     <g id="line2d_6">
      <g>
       <use style="stroke:#000000;stroke-width:0.8;" x="298.490862" xlink:href="#mdb47fb9bb5" y="307.584"/>
      </g>
     </g>
     <g id="text_6">
      <!-- 80 -->
      <g transform="translate(292.128362 322.182437)scale(0.1 -0.1)">
       <defs>
        <path d="M 31.78125 34.625 
Q 24.75 34.625 20.71875 30.859375 
Q 16.703125 27.09375 16.703125 20.515625 
Q 16.703125 13.921875 20.71875 10.15625 
Q 24.75 6.390625 31.78125 6.390625 
Q 38.8125 6.390625 42.859375 10.171875 
Q 46.921875 13.96875 46.921875 20.515625 
Q 46.921875 27.09375 42.890625 30.859375 
Q 38.875 34.625 31.78125 34.625 
z
M 21.921875 38.8125 
Q 15.578125 40.375 12.03125 44.71875 
Q 8.5 49.078125 8.5 55.328125 
Q 8.5 64.0625 14.71875 69.140625 
Q 20.953125 74.21875 31.78125 74.21875 
Q 42.671875 74.21875 48.875 69.140625 
Q 55.078125 64.0625 55.078125 55.328125 
Q 55.078125 49.078125 51.53125 44.71875 
Q 48 40.375 41.703125 38.8125 
Q 48.828125 37.15625 52.796875 32.3125 
Q 56.78125 27.484375 56.78125 20.515625 
Q 56.78125 9.90625 50.3125 4.234375 
Q 43.84375 -1.421875 31.78125 -1.421875 
Q 19.734375 -1.421875 13.25 4.234375 
Q 6.78125 9.90625 6.78125 20.515625 
Q 6.78125 27.484375 10.78125 32.3125 
Q 14.796875 37.15625 21.921875 38.8125 
z
M 18.3125 54.390625 
Q 18.3125 48.734375 21.84375 45.5625 
Q 25.390625 42.390625 31.78125 42.390625 
Q 38.140625 42.390625 41.71875 45.5625 
Q 45.3125 48.734375 45.3125 54.390625 
Q 45.3125 60.0625 41.71875 63.234375 
Q 38.140625 66.40625 31.78125 66.40625 
Q 25.390625 66.40625 21.84375 63.234375 
Q 18.3125 60.0625 18.3125 54.390625 
z
" id="DejaVuSans-56"/>
       </defs>
       <use xlink:href="#DejaVuSans-56"/>
       <use x="63.623047" xlink:href="#DejaVuSans-48"/>
      </g>
     </g>
    </g>
    <g id="xtick_7">
     <g id="line2d_7">
      <g>
       <use style="stroke:#000000;stroke-width:0.8;" x="341.339527" xlink:href="#mdb47fb9bb5" y="307.584"/>
      </g>
     </g>
     <g id="text_7">
      <!-- 100 -->
      <g transform="translate(331.795777 322.182437)scale(0.1 -0.1)">
       <defs>
        <path d="M 12.40625 8.296875 
L 28.515625 8.296875 
L 28.515625 63.921875 
L 10.984375 60.40625 
L 10.984375 69.390625 
L 28.421875 72.90625 
L 38.28125 72.90625 
L 38.28125 8.296875 
L 54.390625 8.296875 
L 54.390625 0 
L 12.40625 0 
z
" id="DejaVuSans-49"/>
       </defs>
       <use xlink:href="#DejaVuSans-49"/>
       <use x="63.623047" xlink:href="#DejaVuSans-48"/>
       <use x="127.246094" xlink:href="#DejaVuSans-48"/>
      </g>
     </g>
    </g>
    <g id="xtick_8">
     <g id="line2d_8">
      <g>
       <use style="stroke:#000000;stroke-width:0.8;" x="384.188191" xlink:href="#mdb47fb9bb5" y="307.584"/>
      </g>
     </g>
     <g id="text_8">
      <!-- 120 -->
      <g transform="translate(374.644441 322.182437)scale(0.1 -0.1)">
       <use xlink:href="#DejaVuSans-49"/>
       <use x="63.623047" xlink:href="#DejaVuSans-50"/>
       <use x="127.246094" xlink:href="#DejaVuSans-48"/>
      </g>
     </g>
    </g>
   </g>
   <g id="matplotlib.axis_2">
    <g id="ytick_1">
     <g id="line2d_9">
      <defs>
       <path d="M 0 0 
L -3.5 0 
" id="mf59d762158" style="stroke:#000000;stroke-width:0.8;"/>
      </defs>
      <g>
       <use style="stroke:#000000;stroke-width:0.8;" x="57.6" xlink:href="#mf59d762158" y="273.580735"/>
      </g>
     </g>
     <g id="text_9">
      <!-- 20 -->
      <g transform="translate(37.875 277.379954)scale(0.1 -0.1)">
       <use xlink:href="#DejaVuSans-50"/>
       <use x="63.623047" xlink:href="#DejaVuSans-48"/>
      </g>
     </g>
    </g>
    <g id="ytick_2">
     <g id="line2d_10">
      <g>
       <use style="stroke:#000000;stroke-width:0.8;" x="57.6" xlink:href="#mf59d762158" y="230.73207"/>
      </g>
     </g>
     <g id="text_10">
      <!-- 40 -->
      <g transform="translate(37.875 234.531289)scale(0.1 -0.1)">
       <use xlink:href="#DejaVuSans-52"/>
       <use x="63.623047" xlink:href="#DejaVuSans-48"/>
      </g>
     </g>
    </g>
    <g id="ytick_3">
     <g id="line2d_11">
      <g>
       <use style="stroke:#000000;stroke-width:0.8;" x="57.6" xlink:href="#mf59d762158" y="187.883406"/>
      </g>
     </g>
     <g id="text_11">
      <!-- 60 -->
      <g transform="translate(37.875 191.682625)scale(0.1 -0.1)">
       <use xlink:href="#DejaVuSans-54"/>
       <use x="63.623047" xlink:href="#DejaVuSans-48"/>
      </g>
     </g>
    </g>
    <g id="ytick_4">
     <g id="line2d_12">
      <g>
       <use style="stroke:#000000;stroke-width:0.8;" x="57.6" xlink:href="#mf59d762158" y="145.034742"/>
      </g>
     </g>
     <g id="text_12">
      <!-- 80 -->
      <g transform="translate(37.875 148.83396)scale(0.1 -0.1)">
       <use xlink:href="#DejaVuSans-56"/>
       <use x="63.623047" xlink:href="#DejaVuSans-48"/>
      </g>
     </g>
    </g>
    <g id="ytick_5">
     <g id="line2d_13">
      <g>
       <use style="stroke:#000000;stroke-width:0.8;" x="57.6" xlink:href="#mf59d762158" y="102.186077"/>
      </g>
     </g>
     <g id="text_13">
      <!-- 100 -->
      <g transform="translate(31.5125 105.985296)scale(0.1 -0.1)">
       <use xlink:href="#DejaVuSans-49"/>
       <use x="63.623047" xlink:href="#DejaVuSans-48"/>
       <use x="127.246094" xlink:href="#DejaVuSans-48"/>
      </g>
     </g>
    </g>
    <g id="ytick_6">
     <g id="line2d_14">
      <g>
       <use style="stroke:#000000;stroke-width:0.8;" x="57.6" xlink:href="#mf59d762158" y="59.337413"/>
      </g>
     </g>
     <g id="text_14">
      <!-- 120 -->
      <g transform="translate(31.5125 63.136632)scale(0.1 -0.1)">
       <use xlink:href="#DejaVuSans-49"/>
       <use x="63.623047" xlink:href="#DejaVuSans-50"/>
       <use x="127.246094" xlink:href="#DejaVuSans-48"/>
      </g>
     </g>
    </g>
   </g>
   <g id="line2d_15">
    <path clip-path="url(#pc845687418)" d="M 292.267094 57.66203 
L 296.453408 65.166974 
L 306.051509 82.057917 
L 309.031634 87.799638 
L 311.771806 93.646338 
L 313.430049 97.61841 
L 315.64961 103.68578 
L 317.59494 109.858131 
L 319.308886 116.105466 
L 320.819302 122.402077 
L 322.096192 128.741537 
L 323.094566 135.125988 
L 323.771574 141.551145 
L 324.135788 148.008439 
L 324.221485 154.478587 
L 324.060803 160.950878 
L 323.677307 167.410314 
L 323.094566 173.850468 
L 322.325432 180.260629 
L 321.052827 188.761804 
L 319.208192 199.390415 
L 317.564945 207.925869 
L 316.536577 212.133608 
L 315.248975 216.244937 
L 313.605729 220.219151 
L 312.624494 222.138771 
L 311.529711 224.009115 
L 310.323521 225.819471 
L 309.014494 227.567697 
L 307.609058 229.243079 
L 306.11364 230.841335 
L 304.530382 232.356035 
L 302.867854 233.780753 
L 301.132483 235.109061 
L 299.328554 236.332391 
L 297.464637 237.448599 
L 295.542874 238.451257 
L 291.557949 240.145922 
L 287.416625 241.446379 
L 283.170323 242.393334 
L 278.861889 243.016783 
L 274.536317 243.355287 
L 270.210744 243.432415 
L 265.895883 243.26959 
L 261.598162 242.896806 
L 257.324008 242.329061 
L 253.077706 241.598492 
L 246.7511 240.29375 
L 234.102175 237.592142 
L 227.724151 236.503786 
L 221.307563 235.674664 
L 214.867409 235.124059 
L 208.4144 234.873394 
L 201.952822 234.909815 
L 195.484816 235.216183 
L 189.01681 235.781786 
L 184.725516 236.355958 
L 180.479213 237.161513 
L 176.305754 238.262723 
L 172.226561 239.728148 
L 170.231955 240.615115 
L 168.278056 241.609204 
L 166.371291 242.703987 
L 164.524513 243.901607 
L 162.746294 245.193495 
L 161.049487 246.579649 
L 159.440519 248.055785 
L 157.930104 249.617619 
L 156.531095 251.26515 
L 155.24992 252.994094 
L 154.095148 254.800165 
L 153.06678 256.676937 
L 152.156246 258.617981 
L 151.357119 260.619014 
L 150.069516 264.764622 
L 149.150412 269.062343 
L 148.550531 273.458616 
L 148.216312 277.895595 
L 148.098478 282.324005 
L 148.212027 288.828432 
L 148.520537 295.005067 
L 148.520537 295.005067 
" style="fill:none;stroke:#fea952;stroke-linecap:square;"/>
   </g>
   <g id="line2d_16">
    <path clip-path="url(#pc845687418)" d="M 299.795656 53.568 
L 303.889823 60.907859 
L 313.613509 78.025985 
L 316.732118 84.038937 
L 319.647309 90.267466 
L 321.427912 94.540341 
L 323.037841 98.83844 
L 325.180778 105.324287 
L 327.049204 111.840257 
L 328.694518 118.392355 
L 330.123179 125.047569 
L 331.280767 131.800237 
L 331.878822 136.369234 
L 332.319356 140.938157 
L 332.702436 147.778519 
L 332.790506 154.5891 
L 332.620388 161.367796 
L 332.219964 168.091004 
L 331.611884 174.796837 
L 330.813589 181.440252 
L 329.507568 190.160974 
L 327.6401 200.921182 
L 325.916216 209.848524 
L 324.761327 214.540644 
L 323.248597 219.318431 
L 322.311984 221.725767 
L 321.236363 224.119631 
L 320.020388 226.467868 
L 318.661458 228.7608 
L 317.183341 230.955929 
L 315.580018 233.075348 
L 313.866749 235.098131 
L 312.037804 237.033636 
L 310.106799 238.863253 
L 308.076657 240.585802 
L 305.94234 242.201705 
L 303.73143 243.684602 
L 301.428704 245.046394 
L 299.094802 246.25024 
L 296.725302 247.317373 
L 294.308526 248.262242 
L 291.886649 249.073873 
L 286.999444 250.363088 
L 282.099926 251.243881 
L 277.232069 251.773391 
L 272.406432 251.99351 
L 267.619851 251.937617 
L 262.902273 251.637115 
L 258.239967 251.118178 
L 253.662071 250.415359 
L 247.046547 249.124695 
L 230.543346 245.650473 
L 224.489573 244.696445 
L 218.438616 243.997342 
L 212.385911 243.571642 
L 206.312416 243.423692 
L 200.205963 243.542653 
L 194.06575 243.914731 
L 188.096763 244.52617 
L 184.328384 245.116805 
L 180.737181 245.908952 
L 177.338151 246.94141 
L 174.117963 248.25313 
L 171.03407 249.894176 
L 168.167951 251.830207 
L 165.600791 254.01325 
L 163.416458 256.367316 
L 161.610596 258.918219 
L 160.114805 261.796292 
L 158.90836 265.004673 
L 157.981934 268.515003 
L 157.323325 272.268066 
L 156.906886 276.201782 
L 156.703467 280.256442 
L 156.673131 284.357149 
L 156.860647 290.496363 
L 157.076652 294.522134 
L 157.076652 294.522134 
" style="fill:none;stroke:#ffffff;stroke-linecap:square;"/>
   </g>
   <g id="line2d_17">
    <path clip-path="url(#pc845687418)" d="M 284.738532 61.75606 
L 289.016994 69.426089 
L 298.489509 86.08985 
L 301.33115 91.560339 
L 303.896303 97.025211 
L 305.432186 100.696478 
L 307.512864 106.375332 
L 309.355257 112.21354 
L 310.998538 118.197938 
L 312.441795 124.206987 
L 313.651259 130.198735 
L 314.588156 136.16585 
L 315.223793 142.164134 
L 315.56914 148.238359 
L 315.652465 154.368074 
L 315.501218 160.53396 
L 315.134651 166.729624 
L 314.577247 172.9041 
L 313.837275 179.081006 
L 312.598086 187.362634 
L 310.776284 197.859647 
L 309.213675 206.003213 
L 308.311828 209.726571 
L 307.249353 213.171443 
L 305.975095 216.31867 
L 304.397964 219.25743 
L 302.448971 222.060045 
L 300.189476 224.649033 
L 297.659051 226.975704 
L 294.925678 228.98018 
L 291.990946 230.652275 
L 288.807371 232.029602 
L 285.381893 233.121706 
L 281.797002 233.934356 
L 278.059368 234.484709 
L 274.264937 234.789852 
L 270.423432 234.865321 
L 266.534274 234.723668 
L 262.636999 234.390271 
L 258.695551 233.869795 
L 252.703233 232.793352 
L 242.244014 230.521897 
L 235.651654 229.163652 
L 228.940859 228.020865 
L 222.167873 227.148223 
L 215.328123 226.566719 
L 208.491141 226.304005 
L 201.663354 226.344973 
L 194.848316 226.67012 
L 187.974723 227.275648 
L 183.265765 227.911465 
L 178.462863 228.832368 
L 173.598312 230.131912 
L 171.168454 230.950909 
L 168.744502 231.89772 
L 166.345948 232.9771 
L 164.010999 234.177344 
L 161.708512 235.513799 
L 159.487516 236.968428 
L 157.324636 238.556782 
L 155.256042 240.264879 
L 153.280248 242.098321 
L 151.397763 244.070651 
L 149.645731 246.162985 
L 148.029858 248.377708 
L 146.579701 250.682112 
L 145.308268 253.037458 
L 144.197687 255.43967 
L 143.239969 257.870888 
L 142.41758 260.333972 
L 141.728801 262.796682 
L 140.680044 267.761122 
L 140.014519 272.699126 
L 139.652338 277.581473 
L 139.528782 282.349111 
L 139.650121 289.194624 
L 139.964422 295.488 
L 139.964422 295.488 
" style="fill:none;stroke:#ffffff;stroke-linecap:square;"/>
   </g>
   <g id="patch_3">
    <path d="M 57.6 307.584 
L 57.6 41.472 
" style="fill:none;stroke:#000000;stroke-linecap:square;stroke-linejoin:miter;stroke-width:0.8;"/>
   </g>
   <g id="patch_4">
    <path d="M 414.72 307.584 
L 414.72 41.472 
" style="fill:none;stroke:#000000;stroke-linecap:square;stroke-linejoin:miter;stroke-width:0.8;"/>
   </g>
   <g id="patch_5">
    <path d="M 57.6 307.584 
L 414.72 307.584 
" style="fill:none;stroke:#000000;stroke-linecap:square;stroke-linejoin:miter;stroke-width:0.8;"/>
   </g>
   <g id="patch_6">
    <path d="M 57.6 41.472 
L 414.72 41.472 
" style="fill:none;stroke:#000000;stroke-linecap:square;stroke-linejoin:miter;stroke-width:0.8;"/>
   </g>
  </g>
 </g>
 <defs>
  <clipPath id="pc845687418">
   <rect height="266.112" width="357.12" x="57.6" y="41.472"/>
  </clipPath>
 </defs>
</svg>
