<?xml version="1.0" encoding="utf-8" standalone="no"?>
<!DOCTYPE svg PUBLIC "-//W3C//DTD SVG 1.1//EN"
  "http://www.w3.org/Graphics/SVG/1.1/DTD/svg11.dtd">
<!-- Created with matplotlib (https://matplotlib.org/) -->
<svg height="345.6pt" version="1.1" viewBox="0 0 460.8 345.6" width="460.8pt" xmlns="http://www.w3.org/2000/svg" xmlns:xlink="http://www.w3.org/1999/xlink">
 <metadata>
  <rdf:RDF xmlns:cc="http://creativecommons.org/ns#" xmlns:dc="http://purl.org/dc/elements/1.1/" xmlns:rdf="http://www.w3.org/1999/02/22-rdf-syntax-ns#">
   <cc:Work>
    <dc:type rdf:resource="http://purl.org/dc/dcmitype/StillImage"/>
    <dc:date>2021-01-25T12:18:27.746384</dc:date>
    <dc:format>image/svg+xml</dc:format>
    <dc:creator>
     <cc:Agent>
      <dc:title>Matplotlib v3.3.3, https://matplotlib.org/</dc:title>
     </cc:Agent>
    </dc:creator>
   </cc:Work>
  </rdf:RDF>
 </metadata>
 <defs>
  <style type="text/css">*{stroke-linecap:butt;stroke-linejoin:round;}</style>
 </defs>
 <g id="figure_1">
  <g id="patch_1">
   <path d="M 0 345.6 
L 460.8 345.6 
L 460.8 0 
L 0 0 
z
" style="fill:#ffffff;"/>
  </g>
  <g id="axes_1">
   <g id="patch_2">
    <path d="M 57.6 307.584 
L 414.72 307.584 
L 414.72 41.472 
L 57.6 41.472 
z
" style="fill:#7d9051;"/>
   </g>
   <g id="matplotlib.axis_1">
    <g id="xtick_1">
     <g id="line2d_1">
      <defs>
       <path d="M 0 0 
L 0 3.5 
" id="m2f8d3c3764" style="stroke:#000000;stroke-width:0.8;"/>
      </defs>
      <g>
       <use style="stroke:#000000;stroke-width:0.8;" x="82.184047" xlink:href="#m2f8d3c3764" y="307.584"/>
      </g>
     </g>
     <g id="text_1">
      <!-- 0 -->
      <g transform="translate(79.002797 322.182437)scale(0.1 -0.1)">
       <defs>
        <path d="M 31.78125 66.40625 
Q 24.171875 66.40625 20.328125 58.90625 
Q 16.5 51.421875 16.5 36.375 
Q 16.5 21.390625 20.328125 13.890625 
Q 24.171875 6.390625 31.78125 6.390625 
Q 39.453125 6.390625 43.28125 13.890625 
Q 47.125 21.390625 47.125 36.375 
Q 47.125 51.421875 43.28125 58.90625 
Q 39.453125 66.40625 31.78125 66.40625 
z
M 31.78125 74.21875 
Q 44.046875 74.21875 50.515625 64.515625 
Q 56.984375 54.828125 56.984375 36.375 
Q 56.984375 17.96875 50.515625 8.265625 
Q 44.046875 -1.421875 31.78125 -1.421875 
Q 19.53125 -1.421875 13.0625 8.265625 
Q 6.59375 17.96875 6.59375 36.375 
Q 6.59375 54.828125 13.0625 64.515625 
Q 19.53125 74.21875 31.78125 74.21875 
z
" id="DejaVuSans-48"/>
       </defs>
       <use xlink:href="#DejaVuSans-48"/>
      </g>
     </g>
    </g>
    <g id="xtick_2">
     <g id="line2d_2">
      <g>
       <use style="stroke:#000000;stroke-width:0.8;" x="151.601704" xlink:href="#m2f8d3c3764" y="307.584"/>
      </g>
     </g>
     <g id="text_2">
      <!-- 20 -->
      <g transform="translate(145.239204 322.182437)scale(0.1 -0.1)">
       <defs>
        <path d="M 19.1875 8.296875 
L 53.609375 8.296875 
L 53.609375 0 
L 7.328125 0 
L 7.328125 8.296875 
Q 12.9375 14.109375 22.625 23.890625 
Q 32.328125 33.6875 34.8125 36.53125 
Q 39.546875 41.84375 41.421875 45.53125 
Q 43.3125 49.21875 43.3125 52.78125 
Q 43.3125 58.59375 39.234375 62.25 
Q 35.15625 65.921875 28.609375 65.921875 
Q 23.96875 65.921875 18.8125 64.3125 
Q 13.671875 62.703125 7.8125 59.421875 
L 7.8125 69.390625 
Q 13.765625 71.78125 18.9375 73 
Q 24.125 74.21875 28.421875 74.21875 
Q 39.75 74.21875 46.484375 68.546875 
Q 53.21875 62.890625 53.21875 53.421875 
Q 53.21875 48.921875 51.53125 44.890625 
Q 49.859375 40.875 45.40625 35.40625 
Q 44.1875 33.984375 37.640625 27.21875 
Q 31.109375 20.453125 19.1875 8.296875 
z
" id="DejaVuSans-50"/>
       </defs>
       <use xlink:href="#DejaVuSans-50"/>
       <use x="63.623047" xlink:href="#DejaVuSans-48"/>
      </g>
     </g>
    </g>
    <g id="xtick_3">
     <g id="line2d_3">
      <g>
       <use style="stroke:#000000;stroke-width:0.8;" x="221.019362" xlink:href="#m2f8d3c3764" y="307.584"/>
      </g>
     </g>
     <g id="text_3">
      <!-- 40 -->
      <g transform="translate(214.656862 322.182437)scale(0.1 -0.1)">
       <defs>
        <path d="M 37.796875 64.3125 
L 12.890625 25.390625 
L 37.796875 25.390625 
z
M 35.203125 72.90625 
L 47.609375 72.90625 
L 47.609375 25.390625 
L 58.015625 25.390625 
L 58.015625 17.1875 
L 47.609375 17.1875 
L 47.609375 0 
L 37.796875 0 
L 37.796875 17.1875 
L 4.890625 17.1875 
L 4.890625 26.703125 
z
" id="DejaVuSans-52"/>
       </defs>
       <use xlink:href="#DejaVuSans-52"/>
       <use x="63.623047" xlink:href="#DejaVuSans-48"/>
      </g>
     </g>
    </g>
    <g id="xtick_4">
     <g id="line2d_4">
      <g>
       <use style="stroke:#000000;stroke-width:0.8;" x="290.437019" xlink:href="#m2f8d3c3764" y="307.584"/>
      </g>
     </g>
     <g id="text_4">
      <!-- 60 -->
      <g transform="translate(284.074519 322.182437)scale(0.1 -0.1)">
       <defs>
        <path d="M 33.015625 40.375 
Q 26.375 40.375 22.484375 35.828125 
Q 18.609375 31.296875 18.609375 23.390625 
Q 18.609375 15.53125 22.484375 10.953125 
Q 26.375 6.390625 33.015625 6.390625 
Q 39.65625 6.390625 43.53125 10.953125 
Q 47.40625 15.53125 47.40625 23.390625 
Q 47.40625 31.296875 43.53125 35.828125 
Q 39.65625 40.375 33.015625 40.375 
z
M 52.59375 71.296875 
L 52.59375 62.3125 
Q 48.875 64.0625 45.09375 64.984375 
Q 41.3125 65.921875 37.59375 65.921875 
Q 27.828125 65.921875 22.671875 59.328125 
Q 17.53125 52.734375 16.796875 39.40625 
Q 19.671875 43.65625 24.015625 45.921875 
Q 28.375 48.1875 33.59375 48.1875 
Q 44.578125 48.1875 50.953125 41.515625 
Q 57.328125 34.859375 57.328125 23.390625 
Q 57.328125 12.15625 50.6875 5.359375 
Q 44.046875 -1.421875 33.015625 -1.421875 
Q 20.359375 -1.421875 13.671875 8.265625 
Q 6.984375 17.96875 6.984375 36.375 
Q 6.984375 53.65625 15.1875 63.9375 
Q 23.390625 74.21875 37.203125 74.21875 
Q 40.921875 74.21875 44.703125 73.484375 
Q 48.484375 72.75 52.59375 71.296875 
z
" id="DejaVuSans-54"/>
       </defs>
       <use xlink:href="#DejaVuSans-54"/>
       <use x="63.623047" xlink:href="#DejaVuSans-48"/>
      </g>
     </g>
    </g>
    <g id="xtick_5">
     <g id="line2d_5">
      <g>
       <use style="stroke:#000000;stroke-width:0.8;" x="359.854677" xlink:href="#m2f8d3c3764" y="307.584"/>
      </g>
     </g>
     <g id="text_5">
      <!-- 80 -->
      <g transform="translate(353.492177 322.182437)scale(0.1 -0.1)">
       <defs>
        <path d="M 31.78125 34.625 
Q 24.75 34.625 20.71875 30.859375 
Q 16.703125 27.09375 16.703125 20.515625 
Q 16.703125 13.921875 20.71875 10.15625 
Q 24.75 6.390625 31.78125 6.390625 
Q 38.8125 6.390625 42.859375 10.171875 
Q 46.921875 13.96875 46.921875 20.515625 
Q 46.921875 27.09375 42.890625 30.859375 
Q 38.875 34.625 31.78125 34.625 
z
M 21.921875 38.8125 
Q 15.578125 40.375 12.03125 44.71875 
Q 8.5 49.078125 8.5 55.328125 
Q 8.5 64.0625 14.71875 69.140625 
Q 20.953125 74.21875 31.78125 74.21875 
Q 42.671875 74.21875 48.875 69.140625 
Q 55.078125 64.0625 55.078125 55.328125 
Q 55.078125 49.078125 51.53125 44.71875 
Q 48 40.375 41.703125 38.8125 
Q 48.828125 37.15625 52.796875 32.3125 
Q 56.78125 27.484375 56.78125 20.515625 
Q 56.78125 9.90625 50.3125 4.234375 
Q 43.84375 -1.421875 31.78125 -1.421875 
Q 19.734375 -1.421875 13.25 4.234375 
Q 6.78125 9.90625 6.78125 20.515625 
Q 6.78125 27.484375 10.78125 32.3125 
Q 14.796875 37.15625 21.921875 38.8125 
z
M 18.3125 54.390625 
Q 18.3125 48.734375 21.84375 45.5625 
Q 25.390625 42.390625 31.78125 42.390625 
Q 38.140625 42.390625 41.71875 45.5625 
Q 45.3125 48.734375 45.3125 54.390625 
Q 45.3125 60.0625 41.71875 63.234375 
Q 38.140625 66.40625 31.78125 66.40625 
Q 25.390625 66.40625 21.84375 63.234375 
Q 18.3125 60.0625 18.3125 54.390625 
z
" id="DejaVuSans-56"/>
       </defs>
       <use xlink:href="#DejaVuSans-56"/>
       <use x="63.623047" xlink:href="#DejaVuSans-48"/>
      </g>
     </g>
    </g>
   </g>
   <g id="matplotlib.axis_2">
    <g id="ytick_1">
     <g id="line2d_6">
      <defs>
       <path d="M 0 0 
L -3.5 0 
" id="m1af8d2c5df" style="stroke:#000000;stroke-width:0.8;"/>
      </defs>
      <g>
       <use style="stroke:#000000;stroke-width:0.8;" x="57.6" xlink:href="#m1af8d2c5df" y="281.430951"/>
      </g>
     </g>
     <g id="text_6">
      <!-- 10 -->
      <g transform="translate(37.875 285.23017)scale(0.1 -0.1)">
       <defs>
        <path d="M 12.40625 8.296875 
L 28.515625 8.296875 
L 28.515625 63.921875 
L 10.984375 60.40625 
L 10.984375 69.390625 
L 28.421875 72.90625 
L 38.28125 72.90625 
L 38.28125 8.296875 
L 54.390625 8.296875 
L 54.390625 0 
L 12.40625 0 
z
" id="DejaVuSans-49"/>
       </defs>
       <use xlink:href="#DejaVuSans-49"/>
       <use x="63.623047" xlink:href="#DejaVuSans-48"/>
      </g>
     </g>
    </g>
    <g id="ytick_2">
     <g id="line2d_7">
      <g>
       <use style="stroke:#000000;stroke-width:0.8;" x="57.6" xlink:href="#m1af8d2c5df" y="246.722122"/>
      </g>
     </g>
     <g id="text_7">
      <!-- 20 -->
      <g transform="translate(37.875 250.521341)scale(0.1 -0.1)">
       <use xlink:href="#DejaVuSans-50"/>
       <use x="63.623047" xlink:href="#DejaVuSans-48"/>
      </g>
     </g>
    </g>
    <g id="ytick_3">
     <g id="line2d_8">
      <g>
       <use style="stroke:#000000;stroke-width:0.8;" x="57.6" xlink:href="#m1af8d2c5df" y="212.013293"/>
      </g>
     </g>
     <g id="text_8">
      <!-- 30 -->
      <g transform="translate(37.875 215.812512)scale(0.1 -0.1)">
       <defs>
        <path d="M 40.578125 39.3125 
Q 47.65625 37.796875 51.625 33 
Q 55.609375 28.21875 55.609375 21.1875 
Q 55.609375 10.40625 48.1875 4.484375 
Q 40.765625 -1.421875 27.09375 -1.421875 
Q 22.515625 -1.421875 17.65625 -0.515625 
Q 12.796875 0.390625 7.625 2.203125 
L 7.625 11.71875 
Q 11.71875 9.328125 16.59375 8.109375 
Q 21.484375 6.890625 26.8125 6.890625 
Q 36.078125 6.890625 40.9375 10.546875 
Q 45.796875 14.203125 45.796875 21.1875 
Q 45.796875 27.640625 41.28125 31.265625 
Q 36.765625 34.90625 28.71875 34.90625 
L 20.21875 34.90625 
L 20.21875 43.015625 
L 29.109375 43.015625 
Q 36.375 43.015625 40.234375 45.921875 
Q 44.09375 48.828125 44.09375 54.296875 
Q 44.09375 59.90625 40.109375 62.90625 
Q 36.140625 65.921875 28.71875 65.921875 
Q 24.65625 65.921875 20.015625 65.03125 
Q 15.375 64.15625 9.8125 62.3125 
L 9.8125 71.09375 
Q 15.4375 72.65625 20.34375 73.4375 
Q 25.25 74.21875 29.59375 74.21875 
Q 40.828125 74.21875 47.359375 69.109375 
Q 53.90625 64.015625 53.90625 55.328125 
Q 53.90625 49.265625 50.4375 45.09375 
Q 46.96875 40.921875 40.578125 39.3125 
z
" id="DejaVuSans-51"/>
       </defs>
       <use xlink:href="#DejaVuSans-51"/>
       <use x="63.623047" xlink:href="#DejaVuSans-48"/>
      </g>
     </g>
    </g>
    <g id="ytick_4">
     <g id="line2d_9">
      <g>
       <use style="stroke:#000000;stroke-width:0.8;" x="57.6" xlink:href="#m1af8d2c5df" y="177.304465"/>
      </g>
     </g>
     <g id="text_9">
      <!-- 40 -->
      <g transform="translate(37.875 181.103683)scale(0.1 -0.1)">
       <use xlink:href="#DejaVuSans-52"/>
       <use x="63.623047" xlink:href="#DejaVuSans-48"/>
      </g>
     </g>
    </g>
    <g id="ytick_5">
     <g id="line2d_10">
      <g>
       <use style="stroke:#000000;stroke-width:0.8;" x="57.6" xlink:href="#m1af8d2c5df" y="142.595636"/>
      </g>
     </g>
     <g id="text_10">
      <!-- 50 -->
      <g transform="translate(37.875 146.394855)scale(0.1 -0.1)">
       <defs>
        <path d="M 10.796875 72.90625 
L 49.515625 72.90625 
L 49.515625 64.59375 
L 19.828125 64.59375 
L 19.828125 46.734375 
Q 21.96875 47.46875 24.109375 47.828125 
Q 26.265625 48.1875 28.421875 48.1875 
Q 40.625 48.1875 47.75 41.5 
Q 54.890625 34.8125 54.890625 23.390625 
Q 54.890625 11.625 47.5625 5.09375 
Q 40.234375 -1.421875 26.90625 -1.421875 
Q 22.3125 -1.421875 17.546875 -0.640625 
Q 12.796875 0.140625 7.71875 1.703125 
L 7.71875 11.625 
Q 12.109375 9.234375 16.796875 8.0625 
Q 21.484375 6.890625 26.703125 6.890625 
Q 35.15625 6.890625 40.078125 11.328125 
Q 45.015625 15.765625 45.015625 23.390625 
Q 45.015625 31 40.078125 35.4375 
Q 35.15625 39.890625 26.703125 39.890625 
Q 22.75 39.890625 18.8125 39.015625 
Q 14.890625 38.140625 10.796875 36.28125 
z
" id="DejaVuSans-53"/>
       </defs>
       <use xlink:href="#DejaVuSans-53"/>
       <use x="63.623047" xlink:href="#DejaVuSans-48"/>
      </g>
     </g>
    </g>
    <g id="ytick_6">
     <g id="line2d_11">
      <g>
       <use style="stroke:#000000;stroke-width:0.8;" x="57.6" xlink:href="#m1af8d2c5df" y="107.886807"/>
      </g>
     </g>
     <g id="text_11">
      <!-- 60 -->
      <g transform="translate(37.875 111.686026)scale(0.1 -0.1)">
       <use xlink:href="#DejaVuSans-54"/>
       <use x="63.623047" xlink:href="#DejaVuSans-48"/>
      </g>
     </g>
    </g>
    <g id="ytick_7">
     <g id="line2d_12">
      <g>
       <use style="stroke:#000000;stroke-width:0.8;" x="57.6" xlink:href="#m1af8d2c5df" y="73.177978"/>
      </g>
     </g>
     <g id="text_12">
      <!-- 70 -->
      <g transform="translate(37.875 76.977197)scale(0.1 -0.1)">
       <defs>
        <path d="M 8.203125 72.90625 
L 55.078125 72.90625 
L 55.078125 68.703125 
L 28.609375 0 
L 18.3125 0 
L 43.21875 64.59375 
L 8.203125 64.59375 
z
" id="DejaVuSans-55"/>
       </defs>
       <use xlink:href="#DejaVuSans-55"/>
       <use x="63.623047" xlink:href="#DejaVuSans-48"/>
      </g>
     </g>
    </g>
   </g>
   <g id="line2d_13">
    <path clip-path="url(#pd6445baf9e)" d="M 116.892875 169.803887 
L 116.434719 156.198026 
L 116.365301 149.204197 
L 116.504137 142.151363 
L 116.920642 135.095058 
L 117.694649 128.087345 
L 118.239578 124.616463 
L 118.902517 121.176818 
L 119.693878 117.775352 
L 120.620604 114.419009 
L 121.689636 111.111257 
L 122.918328 107.862511 
L 124.310152 104.679711 
L 125.87552 101.562859 
L 127.624845 98.525836 
L 129.544243 95.579056 
L 131.633715 92.732932 
L 133.879376 90.001348 
L 136.270814 87.401656 
L 138.801088 84.93733 
L 141.463255 82.629192 
L 144.246903 80.487658 
L 147.145091 78.523138 
L 150.143933 76.749517 
L 153.239961 75.173736 
L 156.41929 73.792325 
L 159.674978 72.587928 
L 162.993142 71.546663 
L 166.370311 70.654646 
L 169.792601 69.904936 
L 173.249601 69.276706 
L 180.229546 68.339568 
L 187.237259 67.742576 
L 194.224146 67.457963 
L 201.186737 67.530852 
L 208.111148 68.006363 
L 211.554264 68.412456 
L 214.986967 68.936559 
L 218.405787 69.585615 
L 221.810723 70.363092 
L 225.187892 71.272464 
L 228.537294 72.313729 
L 231.841575 73.483416 
L 235.097263 74.784997 
L 238.297417 76.215001 
L 241.428153 77.773427 
L 244.48253 79.460276 
L 247.450135 81.275548 
L 250.327497 83.219243 
L 253.104203 85.287889 
L 255.790666 87.467603 
L 260.948398 92.097761 
L 265.90829 96.974351 
L 278.118856 109.407054 
L 285.668026 116.58831 
L 295.927956 125.928456 
L 308.745926 137.628802 
L 316.26733 144.837826 
L 321.14392 149.780363 
L 325.881675 154.858265 
L 330.442415 160.102769 
L 334.791432 165.524288 
L 338.880132 171.147118 
L 342.670336 176.985143 
L 344.440486 179.990928 
L 346.116922 183.059188 
L 347.696174 186.189925 
L 349.167828 189.376195 
L 350.524944 192.614529 
L 351.753636 195.904926 
L 352.846964 199.236974 
L 353.791044 202.60373 
L 354.578935 206.008666 
L 355.200223 209.437898 
L 355.644496 212.891427 
L 355.901341 216.358839 
L 355.963817 219.843605 
L 355.831924 223.328372 
L 355.509131 226.809667 
L 354.995441 230.273608 
L 354.297793 233.709782 
L 353.41966 237.114718 
L 352.35757 240.471062 
L 351.118465 243.775343 
L 349.705815 247.017147 
L 348.123093 250.186063 
L 346.366826 253.271678 
L 344.450899 256.260108 
L 342.378782 259.13747 
L 340.150475 261.893351 
L 337.779862 264.510397 
L 335.266942 266.978195 
L 332.618659 269.282861 
L 329.845423 271.407041 
L 326.943765 273.343794 
L 323.927568 275.072294 
L 320.800303 276.589069 
L 317.572382 277.89065 
L 314.261159 278.987449 
L 310.877049 279.886408 
L 307.433933 280.590997 
L 303.945695 281.108159 
L 300.42622 281.444835 
L 296.88592 281.604495 
L 293.342148 281.597553 
L 289.805319 281.430951 
L 286.289314 281.104688 
L 282.801077 280.622235 
L 279.347548 279.980122 
L 275.935671 279.178348 
L 272.572385 278.213443 
L 269.264634 277.085406 
L 266.019358 275.790766 
L 262.8435 274.329525 
L 259.747473 272.701681 
L 256.734747 270.900292 
L 253.812263 268.928831 
L 250.993906 266.794238 
L 248.293559 264.503455 
L 245.728577 262.059954 
L 243.312842 259.481088 
L 241.056769 256.766857 
L 238.974239 253.924204 
L 237.086079 250.967012 
L 235.399229 247.902222 
L 233.931046 244.733306 
L 232.691941 241.470676 
L 231.681914 238.128216 
L 230.897494 234.719809 
L 230.33174 231.255868 
L 229.984652 227.753747 
L 229.849288 224.223859 
L 229.922176 220.683559 
L 230.196376 217.143258 
L 230.675358 213.616841 
L 231.35218 210.118191 
L 232.21643 206.664663 
L 233.275049 203.263198 
L 234.514154 199.93115 
L 235.933745 196.682404 
L 237.533822 193.530842 
L 239.303973 190.486878 
L 241.244196 187.567865 
L 243.347551 184.784217 
L 245.610567 182.149817 
L 248.033243 179.682019 
L 248.033243 179.682019 
" style="fill:none;stroke:#fea952;stroke-linecap:square;"/>
   </g>
   <g id="line2d_14">
    <path clip-path="url(#pd6445baf9e)" d="M 103.019623 170.338029 
L 102.552946 156.419029 
L 102.482585 149.053744 
L 102.636043 141.496822 
L 103.10045 133.770395 
L 103.481207 129.858801 
L 103.979126 125.934008 
L 104.606941 121.988982 
L 105.380129 118.030793 
L 106.311113 114.080215 
L 107.409881 110.149436 
L 108.703815 106.199953 
L 110.197874 102.299913 
L 111.903416 98.448712 
L 113.845001 94.63328 
L 115.991493 90.948399 
L 118.352835 87.362925 
L 120.909127 83.916149 
L 123.661511 80.602003 
L 126.584141 77.455762 
L 129.706257 74.447502 
L 132.997654 71.625282 
L 136.457003 68.995491 
L 140.077472 66.573192 
L 143.846412 64.376414 
L 147.707284 62.440239 
L 151.602313 60.771219 
L 155.518091 59.341316 
L 159.447654 58.123476 
L 163.399342 57.092722 
L 167.310247 56.245128 
L 171.20953 55.543878 
L 178.902284 54.519625 
L 186.507556 53.878234 
L 194.182661 53.574494 
L 201.922266 53.666818 
L 205.820907 53.880391 
L 209.73735 54.2184 
L 213.649712 54.687969 
L 217.576471 55.296658 
L 221.496385 56.050451 
L 225.420567 56.957069 
L 229.309441 58.014814 
L 233.170235 59.226013 
L 236.995419 60.591933 
L 240.761399 62.10943 
L 244.484264 63.786189 
L 248.140083 65.620138 
L 251.72714 67.616794 
L 255.221645 69.770937 
L 258.621946 72.085754 
L 261.851712 74.506723 
L 264.917266 77.005403 
L 270.59776 82.115663 
L 275.835415 87.268444 
L 287.782303 99.438591 
L 295.07398 106.376529 
L 305.232416 115.624114 
L 318.260344 127.518001 
L 326.091404 135.027627 
L 331.221248 140.230499 
L 336.270591 145.648332 
L 341.175927 151.296852 
L 345.914878 157.216377 
L 350.414857 163.420376 
L 352.569051 166.646542 
L 354.633474 169.939877 
L 356.624033 173.33408 
L 358.512665 176.806347 
L 360.300249 180.368435 
L 361.972406 184.010075 
L 363.531253 187.757743 
L 364.945177 191.576452 
L 366.214873 195.488446 
L 367.317174 199.47383 
L 368.24007 203.533622 
L 368.970281 207.666474 
L 369.490094 211.865827 
L 369.782642 216.109971 
L 369.837415 220.368702 
L 369.656156 224.61018 
L 369.242473 228.846275 
L 368.601377 233.036026 
L 367.741437 237.176899 
L 366.65627 241.303346 
L 365.357125 245.345896 
L 363.846082 249.321531 
L 362.126343 253.220609 
L 360.18905 257.053751 
L 358.054607 260.76489 
L 355.717088 264.373395 
L 353.17475 267.866704 
L 350.440112 271.214071 
L 347.507666 274.416066 
L 344.381098 277.451237 
L 341.060913 280.304693 
L 337.552995 282.954586 
L 333.846849 285.389535 
L 329.986286 287.564066 
L 325.992304 289.465232 
L 321.937865 291.06999 
L 317.825577 292.405623 
L 313.660452 293.488066 
L 309.470031 294.324415 
L 305.267769 294.928599 
L 301.051704 295.314269 
L 296.858724 295.488 
L 292.688889 295.465708 
L 288.522526 295.255093 
L 284.387211 294.857304 
L 280.263211 294.271839 
L 276.171506 293.495491 
L 272.107022 292.52353 
L 268.091128 291.353868 
L 264.120311 289.980691 
L 260.216215 288.403299 
L 256.382406 286.618003 
L 252.622633 284.617598 
L 248.970575 282.409857 
L 245.429898 279.996279 
L 242.012534 277.381371 
L 238.717351 274.555753 
L 235.596198 271.551388 
L 232.636035 268.355672 
L 229.857108 264.971737 
L 227.272562 261.395697 
L 224.923144 257.661447 
L 222.802041 253.738598 
L 220.952032 249.66257 
L 219.401933 245.48666 
L 218.152068 241.24201 
L 217.195514 236.957708 
L 216.515896 232.625129 
L 216.111318 228.285763 
L 215.968698 223.938083 
L 216.0801 219.611476 
L 216.439167 215.274661 
L 217.044542 210.979928 
L 217.883973 206.747756 
L 218.960072 202.53896 
L 220.262173 198.424034 
L 221.792161 194.372074 
L 223.554346 190.397268 
L 225.532101 186.551506 
L 227.741611 182.801551 
L 230.167275 179.198022 
L 232.816189 175.737513 
L 235.703272 172.423669 
L 238.125949 169.955871 
L 238.125949 169.955871 
" style="fill:none;stroke:#ffffff;stroke-linecap:square;"/>
   </g>
   <g id="line2d_15">
    <path clip-path="url(#pd6445baf9e)" d="M 130.766128 169.269745 
L 130.316491 155.977023 
L 130.248017 149.35465 
L 130.37223 142.805904 
L 130.740835 136.419721 
L 131.410173 130.240683 
L 132.424904 124.322843 
L 133.076643 121.47049 
L 133.831326 118.688581 
L 134.675456 116.022561 
L 135.638782 113.425109 
L 136.716888 110.910711 
L 137.906039 108.492437 
L 139.258198 106.103273 
L 140.735652 103.795188 
L 142.358303 101.549716 
L 144.097241 99.400692 
L 145.957488 97.34755 
L 147.895919 95.427158 
L 149.928857 93.633102 
L 152.036803 91.979825 
L 154.212709 90.473084 
L 156.441454 89.12262 
L 158.772637 87.907233 
L 161.236266 86.81343 
L 163.831864 85.834541 
L 166.538629 84.969851 
L 169.34128 84.216571 
L 172.274956 83.564744 
L 178.385592 82.544117 
L 184.764276 81.848228 
L 191.132493 81.436385 
L 197.376468 81.327101 
L 203.487391 81.549227 
L 209.458817 82.136943 
L 215.315189 83.120778 
L 218.200879 83.769116 
L 221.066343 84.530113 
L 223.904353 85.401444 
L 226.68773 86.374899 
L 229.433126 87.460564 
L 232.110569 88.643813 
L 234.716223 89.926717 
L 237.23792 91.303759 
L 239.678624 92.780159 
L 242.033048 94.352731 
L 244.356694 96.069054 
L 246.664067 97.929803 
L 251.299037 102.079859 
L 255.981165 106.680259 
L 268.455409 119.375516 
L 276.262072 126.800092 
L 286.623496 136.232799 
L 299.231509 147.739604 
L 306.443255 154.648025 
L 311.066592 159.330228 
L 315.492759 164.068199 
L 319.708904 168.908686 
L 323.667985 173.832199 
L 327.345406 178.873861 
L 330.707198 184.03041 
L 333.72118 189.31203 
L 336.363251 194.742315 
L 337.518635 197.471315 
L 338.562095 200.2334 
L 339.479055 202.985501 
L 340.264915 205.733629 
L 340.9178 208.48371 
L 341.430165 211.209323 
L 341.798898 213.917027 
L 342.02004 216.607707 
L 342.090219 219.318509 
L 342.007691 222.046563 
L 341.77579 224.773059 
L 341.389505 227.511191 
L 340.85415 230.242665 
L 340.18305 232.926091 
L 339.358014 235.596229 
L 338.390847 238.229154 
L 337.285288 240.813685 
L 336.057136 243.318376 
L 334.679045 245.778467 
L 333.184709 248.146821 
L 331.582813 250.408237 
L 329.860837 252.572632 
L 328.052057 254.604728 
L 326.152787 256.505152 
L 324.176404 258.261029 
L 322.137852 259.859497 
L 320.040682 261.298052 
L 317.86885 262.580521 
L 315.608301 263.712906 
L 313.206898 264.711311 
L 310.696742 265.569276 
L 308.093645 266.28475 
L 305.397834 266.85758 
L 302.623622 267.287719 
L 299.800736 267.5754 
L 296.913116 267.72099 
L 293.995408 267.729399 
L 291.088112 267.606809 
L 288.191417 267.352072 
L 285.338943 266.972631 
L 282.523591 266.464753 
L 279.764319 265.833166 
L 277.053642 265.073017 
L 274.408956 264.19012 
L 271.822502 263.178234 
L 269.304595 262.041046 
L 266.872313 260.785763 
L 264.498918 259.390728 
L 262.194628 257.861383 
L 259.975279 256.207105 
L 257.869767 254.451157 
L 255.860956 252.568519 
L 253.989649 250.606504 
L 252.256429 248.561978 
L 250.675916 246.452711 
L 249.249013 244.272577 
L 247.996418 242.065847 
L 246.91006 239.804042 
L 245.981949 237.454693 
L 245.21176 235.014423 
L 244.599474 232.481911 
L 244.147585 229.886607 
L 243.857987 227.221732 
L 243.729878 224.509636 
L 243.764253 221.755641 
L 243.953585 219.011856 
L 244.306173 216.253755 
L 244.820387 213.488627 
L 245.472788 210.790366 
L 246.287925 208.102361 
L 247.236148 205.490226 
L 248.313144 202.967539 
L 249.535544 200.510178 
L 250.866334 198.172205 
L 252.321117 195.937708 
L 253.878914 193.830921 
L 255.517861 191.875966 
L 257.940538 189.408168 
L 257.940538 189.408168 
" style="fill:none;stroke:#ffffff;stroke-linecap:square;"/>
   </g>
   <g id="patch_3">
    <path d="M 57.6 307.584 
L 57.6 41.472 
" style="fill:none;stroke:#000000;stroke-linecap:square;stroke-linejoin:miter;stroke-width:0.8;"/>
   </g>
   <g id="patch_4">
    <path d="M 414.72 307.584 
L 414.72 41.472 
" style="fill:none;stroke:#000000;stroke-linecap:square;stroke-linejoin:miter;stroke-width:0.8;"/>
   </g>
   <g id="patch_5">
    <path d="M 57.6 307.584 
L 414.72 307.584 
" style="fill:none;stroke:#000000;stroke-linecap:square;stroke-linejoin:miter;stroke-width:0.8;"/>
   </g>
   <g id="patch_6">
    <path d="M 57.6 41.472 
L 414.72 41.472 
" style="fill:none;stroke:#000000;stroke-linecap:square;stroke-linejoin:miter;stroke-width:0.8;"/>
   </g>
  </g>
 </g>
 <defs>
  <clipPath id="pd6445baf9e">
   <rect height="266.112" width="357.12" x="57.6" y="41.472"/>
  </clipPath>
 </defs>
</svg>
