<?xml version="1.0" encoding="utf-8" standalone="no"?>
<!DOCTYPE svg PUBLIC "-//W3C//DTD SVG 1.1//EN"
  "http://www.w3.org/Graphics/SVG/1.1/DTD/svg11.dtd">
<!-- Created with matplotlib (https://matplotlib.org/) -->
<svg height="345.6pt" version="1.1" viewBox="0 0 460.8 345.6" width="460.8pt" xmlns="http://www.w3.org/2000/svg" xmlns:xlink="http://www.w3.org/1999/xlink">
 <metadata>
  <rdf:RDF xmlns:cc="http://creativecommons.org/ns#" xmlns:dc="http://purl.org/dc/elements/1.1/" xmlns:rdf="http://www.w3.org/1999/02/22-rdf-syntax-ns#">
   <cc:Work>
    <dc:type rdf:resource="http://purl.org/dc/dcmitype/StillImage"/>
    <dc:date>2021-01-25T12:50:19.656678</dc:date>
    <dc:format>image/svg+xml</dc:format>
    <dc:creator>
     <cc:Agent>
      <dc:title>Matplotlib v3.3.3, https://matplotlib.org/</dc:title>
     </cc:Agent>
    </dc:creator>
   </cc:Work>
  </rdf:RDF>
 </metadata>
 <defs>
  <style type="text/css">*{stroke-linecap:butt;stroke-linejoin:round;}</style>
 </defs>
 <g id="figure_1">
  <g id="patch_1">
   <path d="M 0 345.6 
L 460.8 345.6 
L 460.8 0 
L 0 0 
z
" style="fill:#ffffff;"/>
  </g>
  <g id="axes_1">
   <g id="patch_2">
    <path d="M 57.6 307.584 
L 414.72 307.584 
L 414.72 41.472 
L 57.6 41.472 
z
" style="fill:#7d9051;"/>
   </g>
   <g id="matplotlib.axis_1">
    <g id="xtick_1">
     <g id="line2d_1">
      <defs>
       <path d="M 0 0 
L 0 3.5 
" id="m04b6d5a911" style="stroke:#000000;stroke-width:0.8;"/>
      </defs>
      <g>
       <use style="stroke:#000000;stroke-width:0.8;" x="123.300857" xlink:href="#m04b6d5a911" y="307.584"/>
      </g>
     </g>
     <g id="text_1">
      <!-- 20 -->
      <g transform="translate(116.938357 322.182437)scale(0.1 -0.1)">
       <defs>
        <path d="M 19.1875 8.296875 
L 53.609375 8.296875 
L 53.609375 0 
L 7.328125 0 
L 7.328125 8.296875 
Q 12.9375 14.109375 22.625 23.890625 
Q 32.328125 33.6875 34.8125 36.53125 
Q 39.546875 41.84375 41.421875 45.53125 
Q 43.3125 49.21875 43.3125 52.78125 
Q 43.3125 58.59375 39.234375 62.25 
Q 35.15625 65.921875 28.609375 65.921875 
Q 23.96875 65.921875 18.8125 64.3125 
Q 13.671875 62.703125 7.8125 59.421875 
L 7.8125 69.390625 
Q 13.765625 71.78125 18.9375 73 
Q 24.125 74.21875 28.421875 74.21875 
Q 39.75 74.21875 46.484375 68.546875 
Q 53.21875 62.890625 53.21875 53.421875 
Q 53.21875 48.921875 51.53125 44.890625 
Q 49.859375 40.875 45.40625 35.40625 
Q 44.1875 33.984375 37.640625 27.21875 
Q 31.109375 20.453125 19.1875 8.296875 
z
" id="DejaVuSans-50"/>
        <path d="M 31.78125 66.40625 
Q 24.171875 66.40625 20.328125 58.90625 
Q 16.5 51.421875 16.5 36.375 
Q 16.5 21.390625 20.328125 13.890625 
Q 24.171875 6.390625 31.78125 6.390625 
Q 39.453125 6.390625 43.28125 13.890625 
Q 47.125 21.390625 47.125 36.375 
Q 47.125 51.421875 43.28125 58.90625 
Q 39.453125 66.40625 31.78125 66.40625 
z
M 31.78125 74.21875 
Q 44.046875 74.21875 50.515625 64.515625 
Q 56.984375 54.828125 56.984375 36.375 
Q 56.984375 17.96875 50.515625 8.265625 
Q 44.046875 -1.421875 31.78125 -1.421875 
Q 19.53125 -1.421875 13.0625 8.265625 
Q 6.59375 17.96875 6.59375 36.375 
Q 6.59375 54.828125 13.0625 64.515625 
Q 19.53125 74.21875 31.78125 74.21875 
z
" id="DejaVuSans-48"/>
       </defs>
       <use xlink:href="#DejaVuSans-50"/>
       <use x="63.623047" xlink:href="#DejaVuSans-48"/>
      </g>
     </g>
    </g>
    <g id="xtick_2">
     <g id="line2d_2">
      <g>
       <use style="stroke:#000000;stroke-width:0.8;" x="193.846146" xlink:href="#m04b6d5a911" y="307.584"/>
      </g>
     </g>
     <g id="text_2">
      <!-- 40 -->
      <g transform="translate(187.483646 322.182437)scale(0.1 -0.1)">
       <defs>
        <path d="M 37.796875 64.3125 
L 12.890625 25.390625 
L 37.796875 25.390625 
z
M 35.203125 72.90625 
L 47.609375 72.90625 
L 47.609375 25.390625 
L 58.015625 25.390625 
L 58.015625 17.1875 
L 47.609375 17.1875 
L 47.609375 0 
L 37.796875 0 
L 37.796875 17.1875 
L 4.890625 17.1875 
L 4.890625 26.703125 
z
" id="DejaVuSans-52"/>
       </defs>
       <use xlink:href="#DejaVuSans-52"/>
       <use x="63.623047" xlink:href="#DejaVuSans-48"/>
      </g>
     </g>
    </g>
    <g id="xtick_3">
     <g id="line2d_3">
      <g>
       <use style="stroke:#000000;stroke-width:0.8;" x="264.391434" xlink:href="#m04b6d5a911" y="307.584"/>
      </g>
     </g>
     <g id="text_3">
      <!-- 60 -->
      <g transform="translate(258.028934 322.182437)scale(0.1 -0.1)">
       <defs>
        <path d="M 33.015625 40.375 
Q 26.375 40.375 22.484375 35.828125 
Q 18.609375 31.296875 18.609375 23.390625 
Q 18.609375 15.53125 22.484375 10.953125 
Q 26.375 6.390625 33.015625 6.390625 
Q 39.65625 6.390625 43.53125 10.953125 
Q 47.40625 15.53125 47.40625 23.390625 
Q 47.40625 31.296875 43.53125 35.828125 
Q 39.65625 40.375 33.015625 40.375 
z
M 52.59375 71.296875 
L 52.59375 62.3125 
Q 48.875 64.0625 45.09375 64.984375 
Q 41.3125 65.921875 37.59375 65.921875 
Q 27.828125 65.921875 22.671875 59.328125 
Q 17.53125 52.734375 16.796875 39.40625 
Q 19.671875 43.65625 24.015625 45.921875 
Q 28.375 48.1875 33.59375 48.1875 
Q 44.578125 48.1875 50.953125 41.515625 
Q 57.328125 34.859375 57.328125 23.390625 
Q 57.328125 12.15625 50.6875 5.359375 
Q 44.046875 -1.421875 33.015625 -1.421875 
Q 20.359375 -1.421875 13.671875 8.265625 
Q 6.984375 17.96875 6.984375 36.375 
Q 6.984375 53.65625 15.1875 63.9375 
Q 23.390625 74.21875 37.203125 74.21875 
Q 40.921875 74.21875 44.703125 73.484375 
Q 48.484375 72.75 52.59375 71.296875 
z
" id="DejaVuSans-54"/>
       </defs>
       <use xlink:href="#DejaVuSans-54"/>
       <use x="63.623047" xlink:href="#DejaVuSans-48"/>
      </g>
     </g>
    </g>
    <g id="xtick_4">
     <g id="line2d_4">
      <g>
       <use style="stroke:#000000;stroke-width:0.8;" x="334.936723" xlink:href="#m04b6d5a911" y="307.584"/>
      </g>
     </g>
     <g id="text_4">
      <!-- 80 -->
      <g transform="translate(328.574223 322.182437)scale(0.1 -0.1)">
       <defs>
        <path d="M 31.78125 34.625 
Q 24.75 34.625 20.71875 30.859375 
Q 16.703125 27.09375 16.703125 20.515625 
Q 16.703125 13.921875 20.71875 10.15625 
Q 24.75 6.390625 31.78125 6.390625 
Q 38.8125 6.390625 42.859375 10.171875 
Q 46.921875 13.96875 46.921875 20.515625 
Q 46.921875 27.09375 42.890625 30.859375 
Q 38.875 34.625 31.78125 34.625 
z
M 21.921875 38.8125 
Q 15.578125 40.375 12.03125 44.71875 
Q 8.5 49.078125 8.5 55.328125 
Q 8.5 64.0625 14.71875 69.140625 
Q 20.953125 74.21875 31.78125 74.21875 
Q 42.671875 74.21875 48.875 69.140625 
Q 55.078125 64.0625 55.078125 55.328125 
Q 55.078125 49.078125 51.53125 44.71875 
Q 48 40.375 41.703125 38.8125 
Q 48.828125 37.15625 52.796875 32.3125 
Q 56.78125 27.484375 56.78125 20.515625 
Q 56.78125 9.90625 50.3125 4.234375 
Q 43.84375 -1.421875 31.78125 -1.421875 
Q 19.734375 -1.421875 13.25 4.234375 
Q 6.78125 9.90625 6.78125 20.515625 
Q 6.78125 27.484375 10.78125 32.3125 
Q 14.796875 37.15625 21.921875 38.8125 
z
M 18.3125 54.390625 
Q 18.3125 48.734375 21.84375 45.5625 
Q 25.390625 42.390625 31.78125 42.390625 
Q 38.140625 42.390625 41.71875 45.5625 
Q 45.3125 48.734375 45.3125 54.390625 
Q 45.3125 60.0625 41.71875 63.234375 
Q 38.140625 66.40625 31.78125 66.40625 
Q 25.390625 66.40625 21.84375 63.234375 
Q 18.3125 60.0625 18.3125 54.390625 
z
" id="DejaVuSans-56"/>
       </defs>
       <use xlink:href="#DejaVuSans-56"/>
       <use x="63.623047" xlink:href="#DejaVuSans-48"/>
      </g>
     </g>
    </g>
    <g id="xtick_5">
     <g id="line2d_5">
      <g>
       <use style="stroke:#000000;stroke-width:0.8;" x="405.482012" xlink:href="#m04b6d5a911" y="307.584"/>
      </g>
     </g>
     <g id="text_5">
      <!-- 100 -->
      <g transform="translate(395.938262 322.182437)scale(0.1 -0.1)">
       <defs>
        <path d="M 12.40625 8.296875 
L 28.515625 8.296875 
L 28.515625 63.921875 
L 10.984375 60.40625 
L 10.984375 69.390625 
L 28.421875 72.90625 
L 38.28125 72.90625 
L 38.28125 8.296875 
L 54.390625 8.296875 
L 54.390625 0 
L 12.40625 0 
z
" id="DejaVuSans-49"/>
       </defs>
       <use xlink:href="#DejaVuSans-49"/>
       <use x="63.623047" xlink:href="#DejaVuSans-48"/>
       <use x="127.246094" xlink:href="#DejaVuSans-48"/>
      </g>
     </g>
    </g>
   </g>
   <g id="matplotlib.axis_2">
    <g id="ytick_1">
     <g id="line2d_6">
      <defs>
       <path d="M 0 0 
L -3.5 0 
" id="mf4cdc3d6d0" style="stroke:#000000;stroke-width:0.8;"/>
      </defs>
      <g>
       <use style="stroke:#000000;stroke-width:0.8;" x="57.6" xlink:href="#mf4cdc3d6d0" y="301.606544"/>
      </g>
     </g>
     <g id="text_6">
      <!-- 0 -->
      <g transform="translate(44.2375 305.405763)scale(0.1 -0.1)">
       <use xlink:href="#DejaVuSans-48"/>
      </g>
     </g>
    </g>
    <g id="ytick_2">
     <g id="line2d_7">
      <g>
       <use style="stroke:#000000;stroke-width:0.8;" x="57.6" xlink:href="#mf4cdc3d6d0" y="266.3339"/>
      </g>
     </g>
     <g id="text_7">
      <!-- 10 -->
      <g transform="translate(37.875 270.133118)scale(0.1 -0.1)">
       <use xlink:href="#DejaVuSans-49"/>
       <use x="63.623047" xlink:href="#DejaVuSans-48"/>
      </g>
     </g>
    </g>
    <g id="ytick_3">
     <g id="line2d_8">
      <g>
       <use style="stroke:#000000;stroke-width:0.8;" x="57.6" xlink:href="#mf4cdc3d6d0" y="231.061255"/>
      </g>
     </g>
     <g id="text_8">
      <!-- 20 -->
      <g transform="translate(37.875 234.860474)scale(0.1 -0.1)">
       <use xlink:href="#DejaVuSans-50"/>
       <use x="63.623047" xlink:href="#DejaVuSans-48"/>
      </g>
     </g>
    </g>
    <g id="ytick_4">
     <g id="line2d_9">
      <g>
       <use style="stroke:#000000;stroke-width:0.8;" x="57.6" xlink:href="#mf4cdc3d6d0" y="195.788611"/>
      </g>
     </g>
     <g id="text_9">
      <!-- 30 -->
      <g transform="translate(37.875 199.587829)scale(0.1 -0.1)">
       <defs>
        <path d="M 40.578125 39.3125 
Q 47.65625 37.796875 51.625 33 
Q 55.609375 28.21875 55.609375 21.1875 
Q 55.609375 10.40625 48.1875 4.484375 
Q 40.765625 -1.421875 27.09375 -1.421875 
Q 22.515625 -1.421875 17.65625 -0.515625 
Q 12.796875 0.390625 7.625 2.203125 
L 7.625 11.71875 
Q 11.71875 9.328125 16.59375 8.109375 
Q 21.484375 6.890625 26.8125 6.890625 
Q 36.078125 6.890625 40.9375 10.546875 
Q 45.796875 14.203125 45.796875 21.1875 
Q 45.796875 27.640625 41.28125 31.265625 
Q 36.765625 34.90625 28.71875 34.90625 
L 20.21875 34.90625 
L 20.21875 43.015625 
L 29.109375 43.015625 
Q 36.375 43.015625 40.234375 45.921875 
Q 44.09375 48.828125 44.09375 54.296875 
Q 44.09375 59.90625 40.109375 62.90625 
Q 36.140625 65.921875 28.71875 65.921875 
Q 24.65625 65.921875 20.015625 65.03125 
Q 15.375 64.15625 9.8125 62.3125 
L 9.8125 71.09375 
Q 15.4375 72.65625 20.34375 73.4375 
Q 25.25 74.21875 29.59375 74.21875 
Q 40.828125 74.21875 47.359375 69.109375 
Q 53.90625 64.015625 53.90625 55.328125 
Q 53.90625 49.265625 50.4375 45.09375 
Q 46.96875 40.921875 40.578125 39.3125 
z
" id="DejaVuSans-51"/>
       </defs>
       <use xlink:href="#DejaVuSans-51"/>
       <use x="63.623047" xlink:href="#DejaVuSans-48"/>
      </g>
     </g>
    </g>
    <g id="ytick_5">
     <g id="line2d_10">
      <g>
       <use style="stroke:#000000;stroke-width:0.8;" x="57.6" xlink:href="#mf4cdc3d6d0" y="160.515966"/>
      </g>
     </g>
     <g id="text_10">
      <!-- 40 -->
      <g transform="translate(37.875 164.315185)scale(0.1 -0.1)">
       <use xlink:href="#DejaVuSans-52"/>
       <use x="63.623047" xlink:href="#DejaVuSans-48"/>
      </g>
     </g>
    </g>
    <g id="ytick_6">
     <g id="line2d_11">
      <g>
       <use style="stroke:#000000;stroke-width:0.8;" x="57.6" xlink:href="#mf4cdc3d6d0" y="125.243322"/>
      </g>
     </g>
     <g id="text_11">
      <!-- 50 -->
      <g transform="translate(37.875 129.04254)scale(0.1 -0.1)">
       <defs>
        <path d="M 10.796875 72.90625 
L 49.515625 72.90625 
L 49.515625 64.59375 
L 19.828125 64.59375 
L 19.828125 46.734375 
Q 21.96875 47.46875 24.109375 47.828125 
Q 26.265625 48.1875 28.421875 48.1875 
Q 40.625 48.1875 47.75 41.5 
Q 54.890625 34.8125 54.890625 23.390625 
Q 54.890625 11.625 47.5625 5.09375 
Q 40.234375 -1.421875 26.90625 -1.421875 
Q 22.3125 -1.421875 17.546875 -0.640625 
Q 12.796875 0.140625 7.71875 1.703125 
L 7.71875 11.625 
Q 12.109375 9.234375 16.796875 8.0625 
Q 21.484375 6.890625 26.703125 6.890625 
Q 35.15625 6.890625 40.078125 11.328125 
Q 45.015625 15.765625 45.015625 23.390625 
Q 45.015625 31 40.078125 35.4375 
Q 35.15625 39.890625 26.703125 39.890625 
Q 22.75 39.890625 18.8125 39.015625 
Q 14.890625 38.140625 10.796875 36.28125 
z
" id="DejaVuSans-53"/>
       </defs>
       <use xlink:href="#DejaVuSans-53"/>
       <use x="63.623047" xlink:href="#DejaVuSans-48"/>
      </g>
     </g>
    </g>
    <g id="ytick_7">
     <g id="line2d_12">
      <g>
       <use style="stroke:#000000;stroke-width:0.8;" x="57.6" xlink:href="#mf4cdc3d6d0" y="89.970677"/>
      </g>
     </g>
     <g id="text_12">
      <!-- 60 -->
      <g transform="translate(37.875 93.769896)scale(0.1 -0.1)">
       <use xlink:href="#DejaVuSans-54"/>
       <use x="63.623047" xlink:href="#DejaVuSans-48"/>
      </g>
     </g>
    </g>
    <g id="ytick_8">
     <g id="line2d_13">
      <g>
       <use style="stroke:#000000;stroke-width:0.8;" x="57.6" xlink:href="#mf4cdc3d6d0" y="54.698033"/>
      </g>
     </g>
     <g id="text_13">
      <!-- 70 -->
      <g transform="translate(37.875 58.497251)scale(0.1 -0.1)">
       <defs>
        <path d="M 8.203125 72.90625 
L 55.078125 72.90625 
L 55.078125 68.703125 
L 28.609375 0 
L 18.3125 0 
L 43.21875 64.59375 
L 8.203125 64.59375 
z
" id="DejaVuSans-55"/>
       </defs>
       <use xlink:href="#DejaVuSans-55"/>
       <use x="63.623047" xlink:href="#DejaVuSans-48"/>
      </g>
     </g>
    </g>
   </g>
   <g id="line2d_14">
    <path clip-path="url(#pdf9571f0fb)" d="M 383.450719 206.430367 
L 384.015081 199.471075 
L 384.32548 192.430655 
L 384.360753 185.344381 
L 384.089154 178.243997 
L 383.478937 171.157723 
L 382.508939 164.12083 
L 381.147415 157.15801 
L 380.311453 153.718927 
L 379.366146 150.308063 
L 378.311494 146.935998 
L 377.136915 143.599206 
L 375.845936 140.308268 
L 374.431503 137.066712 
L 372.893616 133.87101 
L 371.232275 130.7388 
L 369.447479 127.666552 
L 367.546283 124.661323 
L 365.528688 121.737221 
L 363.39822 118.890718 
L 361.158407 116.135925 
L 358.809249 113.47284 
L 356.3578 110.908519 
L 353.804061 108.453543 
L 351.148031 106.111439 
L 348.400292 103.878681 
L 345.567898 101.758795 
L 342.650851 99.744727 
L 339.656203 97.843531 
L 336.594538 96.051681 
L 333.469381 94.365649 
L 330.287789 92.788961 
L 327.053287 91.318092 
L 320.453776 88.69028 
L 317.09582 87.540392 
L 313.706119 86.499849 
L 310.284672 85.579233 
L 306.83148 84.778544 
L 303.357125 84.104836 
L 299.854551 83.55811 
L 296.334341 83.14542 
L 292.800022 82.870294 
L 289.24454 82.736258 
L 285.682003 82.74684 
L 282.115938 82.909094 
L 278.556928 83.215966 
L 275.015555 83.67451 
L 271.5024 84.284727 
L 268.02099 85.050143 
L 264.588961 85.970759 
L 261.213369 87.046575 
L 257.901268 88.281117 
L 254.663239 89.674387 
L 251.506337 91.226383 
L 248.419981 92.912416 
L 242.402468 96.580771 
L 227.58443 106.234893 
L 224.543928 108.037326 
L 221.450517 109.73394 
L 215.104968 112.834405 
L 208.576002 115.557453 
L 201.909472 117.938357 
L 195.133597 120.008861 
L 188.290704 121.807766 
L 177.959346 124.163979 
L 164.206542 127.267971 
L 157.391867 129.059822 
L 150.65832 131.147962 
L 144.023535 133.567666 
L 137.51926 136.336568 
L 131.166656 139.472306 
L 124.986889 142.988989 
L 121.974605 144.897239 
L 119.022285 146.90778 
L 116.14051 149.020611 
L 113.346916 151.239261 
L 110.648559 153.563728 
L 108.059547 155.99754 
L 105.586934 158.540698 
L 103.244831 161.193201 
L 101.047345 163.958576 
L 99.001532 166.840351 
L 97.117973 169.834999 
L 95.403722 172.935464 
L 93.862307 176.134693 
L 92.490202 179.415049 
L 91.294459 182.776532 
L 90.27508 186.201506 
L 89.435591 189.682916 
L 88.779519 193.21018 
L 88.310393 196.772717 
L 88.028212 200.363473 
L 87.936503 203.968337 
L 88.035267 207.576728 
L 88.331557 211.171011 
L 88.825374 214.733548 
L 89.516718 218.257285 
L 90.405588 221.724586 
L 91.502568 225.117814 
L 92.804128 228.422861 
L 94.313797 231.629145 
L 96.031575 234.715501 
L 97.957461 237.674876 
L 100.084402 240.500215 
L 102.391233 243.195045 
L 104.863845 245.748784 
L 107.491657 248.168488 
L 110.257033 250.450628 
L 113.142335 252.58815 
L 116.14051 254.588109 
L 119.226866 256.439923 
L 122.39435 258.150646 
L 125.625324 259.713224 
L 128.916262 261.120603 
L 132.260108 262.376309 
L 135.649809 263.466234 
L 139.081838 264.390377 
L 142.552666 265.145211 
L 146.055239 265.720156 
L 149.586031 266.115209 
L 153.137987 266.31979 
L 156.704051 266.3339 
L 160.280697 266.150482 
L 163.853816 265.769537 
L 167.405771 265.191066 
L 170.918927 264.41154 
L 174.375646 263.434488 
L 177.765347 262.256382 
L 181.063339 260.873694 
L 184.262568 259.29348 
L 187.338343 257.508684 
L 190.276554 255.519307 
L 193.06662 253.328875 
L 195.701487 250.951499 
L 198.170572 248.394233 
L 200.48093 245.678239 
L 202.621979 242.810573 
L 204.590193 239.812398 
L 206.385571 236.690769 
L 208.001058 233.463322 
L 209.433127 230.144166 
L 210.681779 226.747411 
L 211.739958 223.283637 
L 212.604138 219.770482 
L 213.270791 216.218526 
L 213.739917 212.645407 
L 214.004462 209.065234 
L 214.057371 205.488588 
L 213.902171 201.929578 
L 213.531808 198.402314 
L 212.939228 194.924431 
L 212.127957 191.502984 
L 212.127957 191.502984 
" style="fill:none;stroke:#fea952;stroke-linecap:square;"/>
   </g>
   <g id="line2d_15">
    <path clip-path="url(#pdf9571f0fb)" d="M 369.397859 205.172329 
L 369.925957 198.721352 
L 370.218 192.219676 
L 370.256774 185.722917 
L 370.018113 179.279044 
L 369.477114 172.893949 
L 368.622551 166.617575 
L 367.437577 160.490556 
L 365.900336 154.51965 
L 364.002324 148.751682 
L 362.914336 145.950893 
L 360.429326 140.482137 
L 359.032487 137.826162 
L 357.524084 135.209639 
L 355.933333 132.674119 
L 354.233049 130.191454 
L 352.450985 127.791479 
L 350.577675 125.469392 
L 348.610712 123.222473 
L 346.579813 121.079874 
L 344.472457 119.035919 
L 342.250434 117.061247 
L 339.946115 115.174362 
L 337.551489 113.369251 
L 335.088757 111.656077 
L 332.52962 110.020449 
L 327.204508 107.007518 
L 321.632695 104.344323 
L 315.882884 102.038406 
L 310.040153 100.12432 
L 304.145641 98.629601 
L 298.211734 97.571199 
L 295.239344 97.211923 
L 292.268511 96.969337 
L 289.286448 96.845253 
L 286.323294 96.841316 
L 283.32798 96.965995 
L 280.368674 97.208217 
L 277.430072 97.575432 
L 274.532033 98.06467 
L 271.676412 98.677447 
L 268.873256 99.413613 
L 266.14115 100.267108 
L 263.477835 101.241342 
L 260.887976 102.336068 
L 258.27042 103.608334 
L 252.894455 106.652052 
L 247.249618 110.260444 
L 238.080886 116.304271 
L 231.328723 120.407939 
L 227.833443 122.316617 
L 224.304192 124.099846 
L 220.706934 125.783672 
L 213.482232 128.785999 
L 206.176959 131.386556 
L 198.845936 133.62077 
L 191.556748 135.533598 
L 180.964729 137.949231 
L 167.668373 140.945736 
L 161.414983 142.583137 
L 155.326791 144.462274 
L 149.375009 146.622444 
L 143.574853 149.08001 
L 137.959086 151.838729 
L 132.537298 154.907749 
L 127.364661 158.28628 
L 124.915184 160.069168 
L 122.555409 161.928937 
L 120.312291 163.843698 
L 118.175475 165.83286 
L 116.163156 167.879277 
L 114.290961 169.970929 
L 112.552096 172.125964 
L 110.944602 174.352247 
L 109.465397 176.661903 
L 108.114383 179.059564 
L 106.878587 181.579137 
L 105.783278 184.143646 
L 104.817269 186.801344 
L 103.991008 189.508893 
L 103.306745 192.262951 
L 102.767817 195.052204 
L 102.376085 197.878076 
L 102.132706 200.722295 
L 102.040279 203.58231 
L 102.09663 206.417597 
L 102.306993 209.233822 
L 102.670478 212.017191 
L 103.183824 214.753612 
L 103.830535 217.384504 
L 104.630332 219.947969 
L 105.568994 222.412561 
L 106.642012 224.767612 
L 107.857036 227.01979 
L 109.229491 229.189191 
L 110.802737 231.325096 
L 112.527549 233.380739 
L 114.421001 235.369657 
L 116.472073 237.2865 
L 118.655795 239.113684 
L 120.971818 240.850829 
L 123.39956 242.489692 
L 125.931626 244.025749 
L 128.537167 245.44902 
L 131.173084 246.740643 
L 133.87639 247.912172 
L 136.578967 248.944519 
L 139.318292 249.84244 
L 142.080183 250.603592 
L 144.838069 251.22248 
L 147.624086 251.698592 
L 150.397324 252.029496 
L 153.193808 252.210843 
L 155.981459 252.243358 
L 158.78495 252.120932 
L 161.585895 251.843948 
L 164.34948 251.417011 
L 167.081312 250.834419 
L 169.743757 250.107406 
L 172.310143 249.244608 
L 174.815019 248.223635 
L 177.181285 247.090163 
L 179.428095 245.825641 
L 181.564012 244.421689 
L 183.614994 242.853558 
L 185.55141 241.151425 
L 187.42377 239.252473 
L 189.175354 237.237299 
L 190.827325 235.067729 
L 192.359708 232.778142 
L 193.768805 230.375492 
L 195.046355 227.873939 
L 196.190472 225.27615 
L 197.188346 222.625181 
L 198.039313 219.913498 
L 198.737205 217.16785 
L 199.281788 214.381866 
L 199.66922 211.605701 
L 199.896948 208.856543 
L 199.961709 206.103265 
L 199.870252 203.402929 
L 199.623198 200.772138 
L 199.210818 198.179621 
L 198.399547 194.758174 
L 198.399547 194.758174 
" style="fill:none;stroke:#ffffff;stroke-linecap:square;"/>
   </g>
   <g id="line2d_16">
    <path clip-path="url(#pdf9571f0fb)" d="M 397.503578 207.688406 
L 398.104205 200.220797 
L 398.43296 192.641634 
L 398.464732 184.965844 
L 398.160194 177.20895 
L 397.480759 169.421497 
L 396.395327 161.624086 
L 395.685115 157.710914 
L 394.857253 153.825465 
L 393.907997 149.950702 
L 392.831957 146.096476 
L 391.620091 142.251259 
L 390.271507 138.446729 
L 388.777537 134.665644 
L 387.145007 130.948514 
L 385.357906 127.259884 
L 383.432062 123.651438 
L 381.370874 120.123465 
L 379.159234 116.648527 
L 376.824327 113.282988 
L 374.345456 109.989957 
L 371.73914 106.802457 
L 369.007786 103.723207 
L 366.135788 100.737164 
L 363.135665 97.871167 
L 360.045628 95.161632 
L 356.854469 92.583 
L 353.584308 90.148339 
L 350.212944 87.833377 
L 346.782786 85.666614 
L 343.293666 83.634468 
L 339.734255 81.723779 
L 336.128269 79.945508 
L 332.47388 78.291861 
L 328.789862 76.766081 
L 325.024667 75.342154 
L 321.236217 74.052522 
L 317.372085 72.875378 
L 313.471581 71.834811 
L 309.51732 70.927487 
L 305.533096 70.164583 
L 301.497368 69.545021 
L 297.429339 69.078918 
L 293.331534 68.771251 
L 289.202632 68.627262 
L 285.040711 68.652363 
L 280.903896 68.852193 
L 276.745183 69.223715 
L 272.601038 69.773589 
L 268.472767 70.504784 
L 264.365567 71.42284 
L 260.304666 72.527905 
L 256.285588 73.826042 
L 252.324701 75.320893 
L 248.438502 77.012706 
L 244.742255 78.844433 
L 241.238003 80.768087 
L 234.703304 84.757557 
L 217.759133 95.666712 
L 212.297147 98.563736 
L 206.600522 101.146098 
L 200.673028 103.444777 
L 194.552296 105.474007 
L 188.257538 107.262253 
L 181.735726 108.865397 
L 157.078617 114.520569 
L 149.678341 116.638312 
L 142.329839 119.121622 
L 135.053581 122.001692 
L 127.886966 125.299702 
L 124.374227 127.105883 
L 120.889949 129.026987 
L 117.43648 131.070229 
L 114.032939 133.23553 
L 110.679908 135.52928 
L 107.365835 137.972055 
L 104.138424 140.549584 
L 100.984827 143.283758 
L 97.943619 146.162221 
L 95.010713 149.202119 
L 92.198701 152.415472 
L 89.542594 155.791189 
L 87.058461 159.328455 
L 84.770548 163.008095 
L 82.693061 166.811364 
L 80.846028 170.690249 
L 79.197125 174.686452 
L 77.771648 178.75172 
L 76.559151 182.894119 
L 75.564436 187.102881 
L 74.791222 191.368157 
L 74.244701 195.667358 
L 73.923718 200.00465 
L 73.832727 204.354364 
L 73.973904 208.735859 
L 74.356121 213.1082 
L 74.980269 217.449905 
L 75.849612 221.760958 
L 76.980641 226.064668 
L 78.374803 230.28766 
L 80.039262 234.433161 
L 81.985582 238.490677 
L 84.206114 242.411212 
L 86.685432 246.160561 
L 89.366067 249.675334 
L 92.254917 253.009351 
L 95.306689 256.127911 
L 98.511242 259.050475 
L 101.85827 261.787572 
L 105.312851 264.325471 
L 108.881459 266.686526 
L 112.522106 268.854096 
L 116.251532 270.852272 
L 120.077564 272.685806 
L 123.956134 274.329033 
L 127.94125 275.808098 
L 131.981326 277.090027 
L 136.083492 278.177162 
L 140.267263 279.067943 
L 144.486393 279.741719 
L 148.774739 280.200922 
L 153.082165 280.428738 
L 157.426643 280.424441 
L 161.776444 280.180031 
L 166.121737 279.695127 
L 170.462063 278.965121 
L 174.756541 277.988662 
L 179.007535 276.76157 
L 183.220551 275.268156 
L 187.31166 273.523754 
L 191.343851 271.496797 
L 195.24859 269.191727 
L 198.989096 266.616925 
L 202.518246 263.804193 
L 205.851563 260.751573 
L 208.917373 257.535992 
L 211.786506 254.119179 
L 214.416634 250.553417 
L 216.820678 246.846654 
L 219.002337 243.006046 
L 220.95576 239.052705 
L 222.675783 235.012183 
L 224.175212 230.869641 
L 225.440603 226.653776 
L 226.47107 222.373113 
L 227.259793 218.055187 
L 227.810614 213.685114 
L 228.111976 209.273925 
L 228.153033 204.873911 
L 227.93409 200.456226 
L 227.440419 196.032489 
L 226.667638 191.669241 
L 225.856367 188.247794 
L 225.856367 188.247794 
" style="fill:none;stroke:#ffffff;stroke-linecap:square;"/>
   </g>
   <g id="patch_3">
    <path d="M 57.6 307.584 
L 57.6 41.472 
" style="fill:none;stroke:#000000;stroke-linecap:square;stroke-linejoin:miter;stroke-width:0.8;"/>
   </g>
   <g id="patch_4">
    <path d="M 414.72 307.584 
L 414.72 41.472 
" style="fill:none;stroke:#000000;stroke-linecap:square;stroke-linejoin:miter;stroke-width:0.8;"/>
   </g>
   <g id="patch_5">
    <path d="M 57.6 307.584 
L 414.72 307.584 
" style="fill:none;stroke:#000000;stroke-linecap:square;stroke-linejoin:miter;stroke-width:0.8;"/>
   </g>
   <g id="patch_6">
    <path d="M 57.6 41.472 
L 414.72 41.472 
" style="fill:none;stroke:#000000;stroke-linecap:square;stroke-linejoin:miter;stroke-width:0.8;"/>
   </g>
  </g>
 </g>
 <defs>
  <clipPath id="pdf9571f0fb">
   <rect height="266.112" width="357.12" x="57.6" y="41.472"/>
  </clipPath>
 </defs>
</svg>
