<?xml version="1.0" encoding="utf-8" standalone="no"?>
<!DOCTYPE svg PUBLIC "-//W3C//DTD SVG 1.1//EN"
  "http://www.w3.org/Graphics/SVG/1.1/DTD/svg11.dtd">
<!-- Created with matplotlib (https://matplotlib.org/) -->
<svg height="345.6pt" version="1.1" viewBox="0 0 460.8 345.6" width="460.8pt" xmlns="http://www.w3.org/2000/svg" xmlns:xlink="http://www.w3.org/1999/xlink">
 <metadata>
  <rdf:RDF xmlns:cc="http://creativecommons.org/ns#" xmlns:dc="http://purl.org/dc/elements/1.1/" xmlns:rdf="http://www.w3.org/1999/02/22-rdf-syntax-ns#">
   <cc:Work>
    <dc:type rdf:resource="http://purl.org/dc/dcmitype/StillImage"/>
    <dc:date>2021-01-23T11:31:21.194080</dc:date>
    <dc:format>image/svg+xml</dc:format>
    <dc:creator>
     <cc:Agent>
      <dc:title>Matplotlib v3.3.3, https://matplotlib.org/</dc:title>
     </cc:Agent>
    </dc:creator>
   </cc:Work>
  </rdf:RDF>
 </metadata>
 <defs>
  <style type="text/css">*{stroke-linecap:butt;stroke-linejoin:round;}</style>
 </defs>
 <g id="figure_1">
  <g id="patch_1">
   <path d="M 0 345.6 
L 460.8 345.6 
L 460.8 0 
L 0 0 
z
" style="fill:#ffffff;"/>
  </g>
  <g id="axes_1">
   <g id="patch_2">
    <path d="M 57.6 307.584 
L 414.72 307.584 
L 414.72 41.472 
L 57.6 41.472 
z
" style="fill:#7d9051;"/>
   </g>
   <g id="matplotlib.axis_1">
    <g id="xtick_1">
     <g id="line2d_1">
      <defs>
       <path d="M 0 0 
L 0 3.5 
" id="m329b27cc89" style="stroke:#000000;stroke-width:0.8;"/>
      </defs>
      <g>
       <use style="stroke:#000000;stroke-width:0.8;" x="92.262818" xlink:href="#m329b27cc89" y="307.584"/>
      </g>
     </g>
     <g id="text_1">
      <!-- 0 -->
      <g transform="translate(89.081568 322.182437)scale(0.1 -0.1)">
       <defs>
        <path d="M 31.78125 66.40625 
Q 24.171875 66.40625 20.328125 58.90625 
Q 16.5 51.421875 16.5 36.375 
Q 16.5 21.390625 20.328125 13.890625 
Q 24.171875 6.390625 31.78125 6.390625 
Q 39.453125 6.390625 43.28125 13.890625 
Q 47.125 21.390625 47.125 36.375 
Q 47.125 51.421875 43.28125 58.90625 
Q 39.453125 66.40625 31.78125 66.40625 
z
M 31.78125 74.21875 
Q 44.046875 74.21875 50.515625 64.515625 
Q 56.984375 54.828125 56.984375 36.375 
Q 56.984375 17.96875 50.515625 8.265625 
Q 44.046875 -1.421875 31.78125 -1.421875 
Q 19.53125 -1.421875 13.0625 8.265625 
Q 6.59375 17.96875 6.59375 36.375 
Q 6.59375 54.828125 13.0625 64.515625 
Q 19.53125 74.21875 31.78125 74.21875 
z
" id="DejaVuSans-48"/>
       </defs>
       <use xlink:href="#DejaVuSans-48"/>
      </g>
     </g>
    </g>
    <g id="xtick_2">
     <g id="line2d_2">
      <g>
       <use style="stroke:#000000;stroke-width:0.8;" x="143.302294" xlink:href="#m329b27cc89" y="307.584"/>
      </g>
     </g>
     <g id="text_2">
      <!-- 20 -->
      <g transform="translate(136.939794 322.182437)scale(0.1 -0.1)">
       <defs>
        <path d="M 19.1875 8.296875 
L 53.609375 8.296875 
L 53.609375 0 
L 7.328125 0 
L 7.328125 8.296875 
Q 12.9375 14.109375 22.625 23.890625 
Q 32.328125 33.6875 34.8125 36.53125 
Q 39.546875 41.84375 41.421875 45.53125 
Q 43.3125 49.21875 43.3125 52.78125 
Q 43.3125 58.59375 39.234375 62.25 
Q 35.15625 65.921875 28.609375 65.921875 
Q 23.96875 65.921875 18.8125 64.3125 
Q 13.671875 62.703125 7.8125 59.421875 
L 7.8125 69.390625 
Q 13.765625 71.78125 18.9375 73 
Q 24.125 74.21875 28.421875 74.21875 
Q 39.75 74.21875 46.484375 68.546875 
Q 53.21875 62.890625 53.21875 53.421875 
Q 53.21875 48.921875 51.53125 44.890625 
Q 49.859375 40.875 45.40625 35.40625 
Q 44.1875 33.984375 37.640625 27.21875 
Q 31.109375 20.453125 19.1875 8.296875 
z
" id="DejaVuSans-50"/>
       </defs>
       <use xlink:href="#DejaVuSans-50"/>
       <use x="63.623047" xlink:href="#DejaVuSans-48"/>
      </g>
     </g>
    </g>
    <g id="xtick_3">
     <g id="line2d_3">
      <g>
       <use style="stroke:#000000;stroke-width:0.8;" x="194.34177" xlink:href="#m329b27cc89" y="307.584"/>
      </g>
     </g>
     <g id="text_3">
      <!-- 40 -->
      <g transform="translate(187.97927 322.182437)scale(0.1 -0.1)">
       <defs>
        <path d="M 37.796875 64.3125 
L 12.890625 25.390625 
L 37.796875 25.390625 
z
M 35.203125 72.90625 
L 47.609375 72.90625 
L 47.609375 25.390625 
L 58.015625 25.390625 
L 58.015625 17.1875 
L 47.609375 17.1875 
L 47.609375 0 
L 37.796875 0 
L 37.796875 17.1875 
L 4.890625 17.1875 
L 4.890625 26.703125 
z
" id="DejaVuSans-52"/>
       </defs>
       <use xlink:href="#DejaVuSans-52"/>
       <use x="63.623047" xlink:href="#DejaVuSans-48"/>
      </g>
     </g>
    </g>
    <g id="xtick_4">
     <g id="line2d_4">
      <g>
       <use style="stroke:#000000;stroke-width:0.8;" x="245.381246" xlink:href="#m329b27cc89" y="307.584"/>
      </g>
     </g>
     <g id="text_4">
      <!-- 60 -->
      <g transform="translate(239.018746 322.182437)scale(0.1 -0.1)">
       <defs>
        <path d="M 33.015625 40.375 
Q 26.375 40.375 22.484375 35.828125 
Q 18.609375 31.296875 18.609375 23.390625 
Q 18.609375 15.53125 22.484375 10.953125 
Q 26.375 6.390625 33.015625 6.390625 
Q 39.65625 6.390625 43.53125 10.953125 
Q 47.40625 15.53125 47.40625 23.390625 
Q 47.40625 31.296875 43.53125 35.828125 
Q 39.65625 40.375 33.015625 40.375 
z
M 52.59375 71.296875 
L 52.59375 62.3125 
Q 48.875 64.0625 45.09375 64.984375 
Q 41.3125 65.921875 37.59375 65.921875 
Q 27.828125 65.921875 22.671875 59.328125 
Q 17.53125 52.734375 16.796875 39.40625 
Q 19.671875 43.65625 24.015625 45.921875 
Q 28.375 48.1875 33.59375 48.1875 
Q 44.578125 48.1875 50.953125 41.515625 
Q 57.328125 34.859375 57.328125 23.390625 
Q 57.328125 12.15625 50.6875 5.359375 
Q 44.046875 -1.421875 33.015625 -1.421875 
Q 20.359375 -1.421875 13.671875 8.265625 
Q 6.984375 17.96875 6.984375 36.375 
Q 6.984375 53.65625 15.1875 63.9375 
Q 23.390625 74.21875 37.203125 74.21875 
Q 40.921875 74.21875 44.703125 73.484375 
Q 48.484375 72.75 52.59375 71.296875 
z
" id="DejaVuSans-54"/>
       </defs>
       <use xlink:href="#DejaVuSans-54"/>
       <use x="63.623047" xlink:href="#DejaVuSans-48"/>
      </g>
     </g>
    </g>
    <g id="xtick_5">
     <g id="line2d_5">
      <g>
       <use style="stroke:#000000;stroke-width:0.8;" x="296.420722" xlink:href="#m329b27cc89" y="307.584"/>
      </g>
     </g>
     <g id="text_5">
      <!-- 80 -->
      <g transform="translate(290.058222 322.182437)scale(0.1 -0.1)">
       <defs>
        <path d="M 31.78125 34.625 
Q 24.75 34.625 20.71875 30.859375 
Q 16.703125 27.09375 16.703125 20.515625 
Q 16.703125 13.921875 20.71875 10.15625 
Q 24.75 6.390625 31.78125 6.390625 
Q 38.8125 6.390625 42.859375 10.171875 
Q 46.921875 13.96875 46.921875 20.515625 
Q 46.921875 27.09375 42.890625 30.859375 
Q 38.875 34.625 31.78125 34.625 
z
M 21.921875 38.8125 
Q 15.578125 40.375 12.03125 44.71875 
Q 8.5 49.078125 8.5 55.328125 
Q 8.5 64.0625 14.71875 69.140625 
Q 20.953125 74.21875 31.78125 74.21875 
Q 42.671875 74.21875 48.875 69.140625 
Q 55.078125 64.0625 55.078125 55.328125 
Q 55.078125 49.078125 51.53125 44.71875 
Q 48 40.375 41.703125 38.8125 
Q 48.828125 37.15625 52.796875 32.3125 
Q 56.78125 27.484375 56.78125 20.515625 
Q 56.78125 9.90625 50.3125 4.234375 
Q 43.84375 -1.421875 31.78125 -1.421875 
Q 19.734375 -1.421875 13.25 4.234375 
Q 6.78125 9.90625 6.78125 20.515625 
Q 6.78125 27.484375 10.78125 32.3125 
Q 14.796875 37.15625 21.921875 38.8125 
z
M 18.3125 54.390625 
Q 18.3125 48.734375 21.84375 45.5625 
Q 25.390625 42.390625 31.78125 42.390625 
Q 38.140625 42.390625 41.71875 45.5625 
Q 45.3125 48.734375 45.3125 54.390625 
Q 45.3125 60.0625 41.71875 63.234375 
Q 38.140625 66.40625 31.78125 66.40625 
Q 25.390625 66.40625 21.84375 63.234375 
Q 18.3125 60.0625 18.3125 54.390625 
z
" id="DejaVuSans-56"/>
       </defs>
       <use xlink:href="#DejaVuSans-56"/>
       <use x="63.623047" xlink:href="#DejaVuSans-48"/>
      </g>
     </g>
    </g>
    <g id="xtick_6">
     <g id="line2d_6">
      <g>
       <use style="stroke:#000000;stroke-width:0.8;" x="347.460198" xlink:href="#m329b27cc89" y="307.584"/>
      </g>
     </g>
     <g id="text_6">
      <!-- 100 -->
      <g transform="translate(337.916448 322.182437)scale(0.1 -0.1)">
       <defs>
        <path d="M 12.40625 8.296875 
L 28.515625 8.296875 
L 28.515625 63.921875 
L 10.984375 60.40625 
L 10.984375 69.390625 
L 28.421875 72.90625 
L 38.28125 72.90625 
L 38.28125 8.296875 
L 54.390625 8.296875 
L 54.390625 0 
L 12.40625 0 
z
" id="DejaVuSans-49"/>
       </defs>
       <use xlink:href="#DejaVuSans-49"/>
       <use x="63.623047" xlink:href="#DejaVuSans-48"/>
       <use x="127.246094" xlink:href="#DejaVuSans-48"/>
      </g>
     </g>
    </g>
    <g id="xtick_7">
     <g id="line2d_7">
      <g>
       <use style="stroke:#000000;stroke-width:0.8;" x="398.499675" xlink:href="#m329b27cc89" y="307.584"/>
      </g>
     </g>
     <g id="text_7">
      <!-- 120 -->
      <g transform="translate(388.955925 322.182437)scale(0.1 -0.1)">
       <use xlink:href="#DejaVuSans-49"/>
       <use x="63.623047" xlink:href="#DejaVuSans-50"/>
       <use x="127.246094" xlink:href="#DejaVuSans-48"/>
      </g>
     </g>
    </g>
   </g>
   <g id="matplotlib.axis_2">
    <g id="ytick_1">
     <g id="line2d_8">
      <defs>
       <path d="M 0 0 
L -3.5 0 
" id="me0f738c683" style="stroke:#000000;stroke-width:0.8;"/>
      </defs>
      <g>
       <use style="stroke:#000000;stroke-width:0.8;" x="57.6" xlink:href="#me0f738c683" y="269.037699"/>
      </g>
     </g>
     <g id="text_8">
      <!-- 20 -->
      <g transform="translate(37.875 272.836918)scale(0.1 -0.1)">
       <use xlink:href="#DejaVuSans-50"/>
       <use x="63.623047" xlink:href="#DejaVuSans-48"/>
      </g>
     </g>
    </g>
    <g id="ytick_2">
     <g id="line2d_9">
      <g>
       <use style="stroke:#000000;stroke-width:0.8;" x="57.6" xlink:href="#me0f738c683" y="217.998223"/>
      </g>
     </g>
     <g id="text_9">
      <!-- 40 -->
      <g transform="translate(37.875 221.797441)scale(0.1 -0.1)">
       <use xlink:href="#DejaVuSans-52"/>
       <use x="63.623047" xlink:href="#DejaVuSans-48"/>
      </g>
     </g>
    </g>
    <g id="ytick_3">
     <g id="line2d_10">
      <g>
       <use style="stroke:#000000;stroke-width:0.8;" x="57.6" xlink:href="#me0f738c683" y="166.958747"/>
      </g>
     </g>
     <g id="text_10">
      <!-- 60 -->
      <g transform="translate(37.875 170.757965)scale(0.1 -0.1)">
       <use xlink:href="#DejaVuSans-54"/>
       <use x="63.623047" xlink:href="#DejaVuSans-48"/>
      </g>
     </g>
    </g>
    <g id="ytick_4">
     <g id="line2d_11">
      <g>
       <use style="stroke:#000000;stroke-width:0.8;" x="57.6" xlink:href="#me0f738c683" y="115.919271"/>
      </g>
     </g>
     <g id="text_11">
      <!-- 80 -->
      <g transform="translate(37.875 119.718489)scale(0.1 -0.1)">
       <use xlink:href="#DejaVuSans-56"/>
       <use x="63.623047" xlink:href="#DejaVuSans-48"/>
      </g>
     </g>
    </g>
    <g id="ytick_5">
     <g id="line2d_12">
      <g>
       <use style="stroke:#000000;stroke-width:0.8;" x="57.6" xlink:href="#me0f738c683" y="64.879794"/>
      </g>
     </g>
     <g id="text_12">
      <!-- 100 -->
      <g transform="translate(31.5125 68.679013)scale(0.1 -0.1)">
       <use xlink:href="#DejaVuSans-49"/>
       <use x="63.623047" xlink:href="#DejaVuSans-48"/>
       <use x="127.246094" xlink:href="#DejaVuSans-48"/>
      </g>
     </g>
    </g>
   </g>
   <g id="line2d_13">
    <path clip-path="url(#p22ef4e1961)" d="M 117.782556 294.557437 
L 117.376792 289.430521 
L 117.210914 284.316366 
L 117.251746 279.21497 
L 117.461007 274.121231 
L 118.014786 266.498485 
L 119.015159 256.341629 
L 120.293698 243.640456 
L 120.875548 236.002398 
L 121.245585 228.35158 
L 121.373183 220.695659 
L 121.232825 213.034634 
L 120.763262 197.725343 
L 120.796437 192.629051 
L 121.021011 187.537863 
L 121.424223 182.454332 
L 122.289342 174.839242 
L 123.766935 164.710458 
L 125.109273 157.154063 
L 126.227037 152.170058 
L 127.599999 147.249853 
L 129.299614 142.416415 
L 131.379473 137.695263 
L 133.849783 133.147646 
L 135.230401 130.960604 
L 136.705442 128.845018 
L 138.272354 126.803439 
L 139.936241 124.851179 
L 141.691999 122.993342 
L 143.539628 121.240136 
L 145.479128 119.596665 
L 147.500291 118.055273 
L 151.754431 115.250653 
L 156.233145 112.747167 
L 160.862426 110.47591 
L 167.936497 107.344639 
L 182.013185 101.268389 
L 186.599082 99.083899 
L 191.098212 96.725876 
L 195.513126 94.191766 
L 202.035971 90.180063 
L 212.88186 83.386709 
L 219.504232 79.512812 
L 223.993154 77.073125 
L 228.548427 74.778901 
L 233.182812 72.648003 
L 237.898859 70.708503 
L 242.699122 68.97316 
L 247.578496 67.454736 
L 252.536981 66.168541 
L 257.566921 65.127336 
L 262.668317 64.354088 
L 267.802888 63.884525 
L 272.942563 63.769686 
L 278.046511 64.052955 
L 280.578069 64.359192 
L 283.086659 64.785371 
L 285.56973 65.328942 
L 290.459312 66.752943 
L 295.246814 68.562293 
L 299.93479 70.680431 
L 304.518135 73.035903 
L 309.001953 75.557253 
L 313.38114 78.213858 
L 317.655696 81.008269 
L 321.817966 83.953247 
L 325.867948 87.058999 
L 329.795436 90.328077 
L 333.585117 93.778346 
L 337.188504 97.420012 
L 340.569869 101.265837 
L 343.683277 105.331131 
L 346.490448 109.628655 
L 348.953103 114.145649 
L 351.04317 118.851488 
L 352.735128 123.710447 
L 353.419057 126.183309 
L 353.993251 128.684244 
L 354.455159 131.205594 
L 354.797123 133.742256 
L 355.016593 136.291677 
L 355.111016 138.848755 
L 355.07784 141.410937 
L 354.90941 143.970567 
L 354.608277 146.525092 
L 354.164234 149.06941 
L 353.57728 151.600968 
L 352.844863 154.112111 
L 351.96188 156.602837 
L 351.96188 156.602837 
" style="fill:none;stroke:#fea952;stroke-linecap:square;"/>
   </g>
   <g id="line2d_14">
    <path clip-path="url(#p22ef4e1961)" d="M 107.617165 295.488 
L 107.178265 289.867746 
L 107.003024 284.326574 
L 107.049426 278.877619 
L 107.272203 273.497217 
L 107.848312 265.579828 
L 108.863632 255.270362 
L 110.329639 240.321027 
L 110.827925 232.95289 
L 111.110619 225.626097 
L 111.149465 218.34525 
L 110.845616 208.305568 
L 110.555387 197.745779 
L 110.594814 192.271279 
L 110.838953 186.812034 
L 111.268515 181.423451 
L 112.173139 173.474115 
L 113.287101 165.671985 
L 114.602295 157.739738 
L 115.705419 152.309713 
L 117.086695 146.80397 
L 118.837194 141.262053 
L 119.875745 138.493173 
L 121.034155 135.732799 
L 122.308394 133.013741 
L 123.701348 130.334652 
L 125.217925 127.698596 
L 126.856868 125.122363 
L 128.607651 122.629963 
L 130.503334 120.182 
L 132.517228 117.839804 
L 134.665618 115.588539 
L 136.940406 113.452235 
L 139.288997 111.479805 
L 141.706368 109.651013 
L 144.154123 107.974134 
L 149.134819 104.9741 
L 154.133577 102.37712 
L 159.093223 100.064367 
L 168.674818 95.94103 
L 177.69978 92.016597 
L 181.956245 89.992959 
L 186.092218 87.829744 
L 190.243196 85.4494 
L 196.581964 81.551336 
L 207.629941 74.633511 
L 214.567637 70.577984 
L 219.326209 67.994538 
L 224.197017 65.544923 
L 229.198743 63.249688 
L 234.314628 61.150553 
L 239.547694 59.263906 
L 244.890036 57.607233 
L 250.344082 56.198972 
L 255.900221 55.056426 
L 261.577629 54.204629 
L 267.388029 53.685063 
L 273.298554 53.568 
L 276.278077 53.680639 
L 279.2724 53.918937 
L 282.287772 54.295493 
L 285.269583 54.813613 
L 288.220942 55.471346 
L 291.083095 56.250133 
L 293.90357 57.143666 
L 299.314372 59.199809 
L 304.503943 61.552235 
L 309.455756 64.101642 
L 314.225449 66.787064 
L 318.887216 69.618262 
L 323.47728 72.623146 
L 327.947605 75.79061 
L 332.314183 79.144002 
L 336.579086 82.700285 
L 340.741935 86.499536 
L 344.749097 90.561547 
L 348.564657 94.91883 
L 352.120111 99.584744 
L 353.779981 102.035267 
L 355.353383 104.564121 
L 356.824708 107.155379 
L 358.197633 109.8167 
L 359.455399 112.521884 
L 360.609 115.288343 
L 361.651528 118.114168 
L 362.573667 120.989365 
L 363.368101 123.89909 
L 364.034044 126.844787 
L 364.571543 129.841815 
L 364.967403 132.866736 
L 365.217536 135.914996 
L 365.318056 138.980918 
L 365.263707 142.081193 
L 365.04711 145.16562 
L 364.664177 148.280084 
L 364.108346 151.375001 
L 363.376859 154.459179 
L 362.466069 157.522907 
L 361.583086 160.013633 
L 361.583086 160.013633 
" style="fill:none;stroke:#ffffff;stroke-linecap:square;"/>
   </g>
   <g id="line2d_15">
    <path clip-path="url(#p22ef4e1961)" d="M 127.947947 293.626874 
L 127.57532 288.993296 
L 127.418804 284.306158 
L 127.454065 279.552322 
L 127.797265 272.325632 
L 128.404098 264.948152 
L 131.066283 236.594052 
L 131.449481 228.63729 
L 131.580829 220.624277 
L 131.434473 212.677576 
L 130.971136 197.704907 
L 130.998061 192.986824 
L 131.203068 188.263693 
L 131.579931 183.485213 
L 132.405544 176.204369 
L 133.839221 166.368824 
L 135.094294 159.275498 
L 136.10068 154.76087 
L 137.290155 150.459526 
L 138.723483 146.339656 
L 140.450551 142.376785 
L 142.481642 138.596695 
L 144.803233 135.060073 
L 147.355253 131.862554 
L 150.138849 129.028037 
L 153.294214 126.459532 
L 156.880178 124.078328 
L 160.826562 121.863178 
L 165.097877 119.763649 
L 171.933086 116.737636 
L 186.32659 110.520181 
L 191.241918 108.17484 
L 196.104205 105.622007 
L 200.783057 102.934131 
L 207.489978 98.80879 
L 220.230783 90.880967 
L 226.551941 87.280104 
L 230.77786 85.061482 
L 235.032477 83.005902 
L 239.311172 81.134748 
L 243.64378 79.45312 
L 248.043114 77.967583 
L 252.483779 76.693613 
L 256.988413 75.638122 
L 261.50397 74.818699 
L 266.001273 74.257422 
L 270.415865 73.987708 
L 274.72631 74.037371 
L 278.868366 74.422891 
L 282.918518 75.186538 
L 287.015053 76.36222 
L 291.179257 77.924776 
L 295.365638 79.808627 
L 299.580514 81.970164 
L 303.778457 84.327442 
L 307.875065 86.809453 
L 311.834113 89.393392 
L 315.688326 92.115884 
L 319.421713 94.973996 
L 323.011786 97.95587 
L 326.428298 101.057156 
L 329.62791 104.278478 
L 332.575082 107.612844 
L 335.246444 111.077518 
L 337.627513 114.693189 
L 339.708573 118.474597 
L 341.477339 122.414634 
L 342.89659 126.431528 
L 343.952458 130.523701 
L 344.626843 134.617775 
L 344.903976 138.716592 
L 344.771709 142.775513 
L 344.552377 144.770101 
L 343.7777 148.742758 
L 343.223658 150.701314 
L 342.340675 153.192041 
L 342.340675 153.192041 
" style="fill:none;stroke:#ffffff;stroke-linecap:square;"/>
   </g>
   <g id="patch_3">
    <path d="M 57.6 307.584 
L 57.6 41.472 
" style="fill:none;stroke:#000000;stroke-linecap:square;stroke-linejoin:miter;stroke-width:0.8;"/>
   </g>
   <g id="patch_4">
    <path d="M 414.72 307.584 
L 414.72 41.472 
" style="fill:none;stroke:#000000;stroke-linecap:square;stroke-linejoin:miter;stroke-width:0.8;"/>
   </g>
   <g id="patch_5">
    <path d="M 57.6 307.584 
L 414.72 307.584 
" style="fill:none;stroke:#000000;stroke-linecap:square;stroke-linejoin:miter;stroke-width:0.8;"/>
   </g>
   <g id="patch_6">
    <path d="M 57.6 41.472 
L 414.72 41.472 
" style="fill:none;stroke:#000000;stroke-linecap:square;stroke-linejoin:miter;stroke-width:0.8;"/>
   </g>
  </g>
 </g>
 <defs>
  <clipPath id="p22ef4e1961">
   <rect height="266.112" width="357.12" x="57.6" y="41.472"/>
  </clipPath>
 </defs>
</svg>
