<?xml version="1.0" encoding="utf-8" standalone="no"?>
<!DOCTYPE svg PUBLIC "-//W3C//DTD SVG 1.1//EN"
  "http://www.w3.org/Graphics/SVG/1.1/DTD/svg11.dtd">
<!-- Created with matplotlib (https://matplotlib.org/) -->
<svg height="345.6pt" version="1.1" viewBox="0 0 460.8 345.6" width="460.8pt" xmlns="http://www.w3.org/2000/svg" xmlns:xlink="http://www.w3.org/1999/xlink">
 <metadata>
  <rdf:RDF xmlns:cc="http://creativecommons.org/ns#" xmlns:dc="http://purl.org/dc/elements/1.1/" xmlns:rdf="http://www.w3.org/1999/02/22-rdf-syntax-ns#">
   <cc:Work>
    <dc:type rdf:resource="http://purl.org/dc/dcmitype/StillImage"/>
    <dc:date>2021-01-23T13:19:55.845168</dc:date>
    <dc:format>image/svg+xml</dc:format>
    <dc:creator>
     <cc:Agent>
      <dc:title>Matplotlib v3.3.3, https://matplotlib.org/</dc:title>
     </cc:Agent>
    </dc:creator>
   </cc:Work>
  </rdf:RDF>
 </metadata>
 <defs>
  <style type="text/css">*{stroke-linecap:butt;stroke-linejoin:round;}</style>
 </defs>
 <g id="figure_1">
  <g id="patch_1">
   <path d="M 0 345.6 
L 460.8 345.6 
L 460.8 0 
L 0 0 
z
" style="fill:#ffffff;"/>
  </g>
  <g id="axes_1">
   <g id="patch_2">
    <path d="M 57.6 307.584 
L 414.72 307.584 
L 414.72 41.472 
L 57.6 41.472 
z
" style="fill:#7d9051;"/>
   </g>
   <g id="matplotlib.axis_1">
    <g id="xtick_1">
     <g id="line2d_1">
      <defs>
       <path d="M 0 0 
L 0 3.5 
" id="mc19842c7dc" style="stroke:#000000;stroke-width:0.8;"/>
      </defs>
      <g>
       <use style="stroke:#000000;stroke-width:0.8;" x="113.100568" xlink:href="#mc19842c7dc" y="307.584"/>
      </g>
     </g>
     <g id="text_1">
      <!-- 0 -->
      <g transform="translate(109.919318 322.182437)scale(0.1 -0.1)">
       <defs>
        <path d="M 31.78125 66.40625 
Q 24.171875 66.40625 20.328125 58.90625 
Q 16.5 51.421875 16.5 36.375 
Q 16.5 21.390625 20.328125 13.890625 
Q 24.171875 6.390625 31.78125 6.390625 
Q 39.453125 6.390625 43.28125 13.890625 
Q 47.125 21.390625 47.125 36.375 
Q 47.125 51.421875 43.28125 58.90625 
Q 39.453125 66.40625 31.78125 66.40625 
z
M 31.78125 74.21875 
Q 44.046875 74.21875 50.515625 64.515625 
Q 56.984375 54.828125 56.984375 36.375 
Q 56.984375 17.96875 50.515625 8.265625 
Q 44.046875 -1.421875 31.78125 -1.421875 
Q 19.53125 -1.421875 13.0625 8.265625 
Q 6.59375 17.96875 6.59375 36.375 
Q 6.59375 54.828125 13.0625 64.515625 
Q 19.53125 74.21875 31.78125 74.21875 
z
" id="DejaVuSans-48"/>
       </defs>
       <use xlink:href="#DejaVuSans-48"/>
      </g>
     </g>
    </g>
    <g id="xtick_2">
     <g id="line2d_2">
      <g>
       <use style="stroke:#000000;stroke-width:0.8;" x="176.561861" xlink:href="#mc19842c7dc" y="307.584"/>
      </g>
     </g>
     <g id="text_2">
      <!-- 20 -->
      <g transform="translate(170.199361 322.182437)scale(0.1 -0.1)">
       <defs>
        <path d="M 19.1875 8.296875 
L 53.609375 8.296875 
L 53.609375 0 
L 7.328125 0 
L 7.328125 8.296875 
Q 12.9375 14.109375 22.625 23.890625 
Q 32.328125 33.6875 34.8125 36.53125 
Q 39.546875 41.84375 41.421875 45.53125 
Q 43.3125 49.21875 43.3125 52.78125 
Q 43.3125 58.59375 39.234375 62.25 
Q 35.15625 65.921875 28.609375 65.921875 
Q 23.96875 65.921875 18.8125 64.3125 
Q 13.671875 62.703125 7.8125 59.421875 
L 7.8125 69.390625 
Q 13.765625 71.78125 18.9375 73 
Q 24.125 74.21875 28.421875 74.21875 
Q 39.75 74.21875 46.484375 68.546875 
Q 53.21875 62.890625 53.21875 53.421875 
Q 53.21875 48.921875 51.53125 44.890625 
Q 49.859375 40.875 45.40625 35.40625 
Q 44.1875 33.984375 37.640625 27.21875 
Q 31.109375 20.453125 19.1875 8.296875 
z
" id="DejaVuSans-50"/>
       </defs>
       <use xlink:href="#DejaVuSans-50"/>
       <use x="63.623047" xlink:href="#DejaVuSans-48"/>
      </g>
     </g>
    </g>
    <g id="xtick_3">
     <g id="line2d_3">
      <g>
       <use style="stroke:#000000;stroke-width:0.8;" x="240.023155" xlink:href="#mc19842c7dc" y="307.584"/>
      </g>
     </g>
     <g id="text_3">
      <!-- 40 -->
      <g transform="translate(233.660655 322.182437)scale(0.1 -0.1)">
       <defs>
        <path d="M 37.796875 64.3125 
L 12.890625 25.390625 
L 37.796875 25.390625 
z
M 35.203125 72.90625 
L 47.609375 72.90625 
L 47.609375 25.390625 
L 58.015625 25.390625 
L 58.015625 17.1875 
L 47.609375 17.1875 
L 47.609375 0 
L 37.796875 0 
L 37.796875 17.1875 
L 4.890625 17.1875 
L 4.890625 26.703125 
z
" id="DejaVuSans-52"/>
       </defs>
       <use xlink:href="#DejaVuSans-52"/>
       <use x="63.623047" xlink:href="#DejaVuSans-48"/>
      </g>
     </g>
    </g>
    <g id="xtick_4">
     <g id="line2d_4">
      <g>
       <use style="stroke:#000000;stroke-width:0.8;" x="303.484448" xlink:href="#mc19842c7dc" y="307.584"/>
      </g>
     </g>
     <g id="text_4">
      <!-- 60 -->
      <g transform="translate(297.121948 322.182437)scale(0.1 -0.1)">
       <defs>
        <path d="M 33.015625 40.375 
Q 26.375 40.375 22.484375 35.828125 
Q 18.609375 31.296875 18.609375 23.390625 
Q 18.609375 15.53125 22.484375 10.953125 
Q 26.375 6.390625 33.015625 6.390625 
Q 39.65625 6.390625 43.53125 10.953125 
Q 47.40625 15.53125 47.40625 23.390625 
Q 47.40625 31.296875 43.53125 35.828125 
Q 39.65625 40.375 33.015625 40.375 
z
M 52.59375 71.296875 
L 52.59375 62.3125 
Q 48.875 64.0625 45.09375 64.984375 
Q 41.3125 65.921875 37.59375 65.921875 
Q 27.828125 65.921875 22.671875 59.328125 
Q 17.53125 52.734375 16.796875 39.40625 
Q 19.671875 43.65625 24.015625 45.921875 
Q 28.375 48.1875 33.59375 48.1875 
Q 44.578125 48.1875 50.953125 41.515625 
Q 57.328125 34.859375 57.328125 23.390625 
Q 57.328125 12.15625 50.6875 5.359375 
Q 44.046875 -1.421875 33.015625 -1.421875 
Q 20.359375 -1.421875 13.671875 8.265625 
Q 6.984375 17.96875 6.984375 36.375 
Q 6.984375 53.65625 15.1875 63.9375 
Q 23.390625 74.21875 37.203125 74.21875 
Q 40.921875 74.21875 44.703125 73.484375 
Q 48.484375 72.75 52.59375 71.296875 
z
" id="DejaVuSans-54"/>
       </defs>
       <use xlink:href="#DejaVuSans-54"/>
       <use x="63.623047" xlink:href="#DejaVuSans-48"/>
      </g>
     </g>
    </g>
    <g id="xtick_5">
     <g id="line2d_5">
      <g>
       <use style="stroke:#000000;stroke-width:0.8;" x="366.945742" xlink:href="#mc19842c7dc" y="307.584"/>
      </g>
     </g>
     <g id="text_5">
      <!-- 80 -->
      <g transform="translate(360.583242 322.182437)scale(0.1 -0.1)">
       <defs>
        <path d="M 31.78125 34.625 
Q 24.75 34.625 20.71875 30.859375 
Q 16.703125 27.09375 16.703125 20.515625 
Q 16.703125 13.921875 20.71875 10.15625 
Q 24.75 6.390625 31.78125 6.390625 
Q 38.8125 6.390625 42.859375 10.171875 
Q 46.921875 13.96875 46.921875 20.515625 
Q 46.921875 27.09375 42.890625 30.859375 
Q 38.875 34.625 31.78125 34.625 
z
M 21.921875 38.8125 
Q 15.578125 40.375 12.03125 44.71875 
Q 8.5 49.078125 8.5 55.328125 
Q 8.5 64.0625 14.71875 69.140625 
Q 20.953125 74.21875 31.78125 74.21875 
Q 42.671875 74.21875 48.875 69.140625 
Q 55.078125 64.0625 55.078125 55.328125 
Q 55.078125 49.078125 51.53125 44.71875 
Q 48 40.375 41.703125 38.8125 
Q 48.828125 37.15625 52.796875 32.3125 
Q 56.78125 27.484375 56.78125 20.515625 
Q 56.78125 9.90625 50.3125 4.234375 
Q 43.84375 -1.421875 31.78125 -1.421875 
Q 19.734375 -1.421875 13.25 4.234375 
Q 6.78125 9.90625 6.78125 20.515625 
Q 6.78125 27.484375 10.78125 32.3125 
Q 14.796875 37.15625 21.921875 38.8125 
z
M 18.3125 54.390625 
Q 18.3125 48.734375 21.84375 45.5625 
Q 25.390625 42.390625 31.78125 42.390625 
Q 38.140625 42.390625 41.71875 45.5625 
Q 45.3125 48.734375 45.3125 54.390625 
Q 45.3125 60.0625 41.71875 63.234375 
Q 38.140625 66.40625 31.78125 66.40625 
Q 25.390625 66.40625 21.84375 63.234375 
Q 18.3125 60.0625 18.3125 54.390625 
z
" id="DejaVuSans-56"/>
       </defs>
       <use xlink:href="#DejaVuSans-56"/>
       <use x="63.623047" xlink:href="#DejaVuSans-48"/>
      </g>
     </g>
    </g>
   </g>
   <g id="matplotlib.axis_2">
    <g id="ytick_1">
     <g id="line2d_6">
      <defs>
       <path d="M 0 0 
L -3.5 0 
" id="m72d7b4deeb" style="stroke:#000000;stroke-width:0.8;"/>
      </defs>
      <g>
       <use style="stroke:#000000;stroke-width:0.8;" x="57.6" xlink:href="#m72d7b4deeb" y="282.932981"/>
      </g>
     </g>
     <g id="text_6">
      <!-- 10 -->
      <g transform="translate(37.875 286.732199)scale(0.1 -0.1)">
       <defs>
        <path d="M 12.40625 8.296875 
L 28.515625 8.296875 
L 28.515625 63.921875 
L 10.984375 60.40625 
L 10.984375 69.390625 
L 28.421875 72.90625 
L 38.28125 72.90625 
L 38.28125 8.296875 
L 54.390625 8.296875 
L 54.390625 0 
L 12.40625 0 
z
" id="DejaVuSans-49"/>
       </defs>
       <use xlink:href="#DejaVuSans-49"/>
       <use x="63.623047" xlink:href="#DejaVuSans-48"/>
      </g>
     </g>
    </g>
    <g id="ytick_2">
     <g id="line2d_7">
      <g>
       <use style="stroke:#000000;stroke-width:0.8;" x="57.6" xlink:href="#m72d7b4deeb" y="251.202334"/>
      </g>
     </g>
     <g id="text_7">
      <!-- 20 -->
      <g transform="translate(37.875 255.001552)scale(0.1 -0.1)">
       <use xlink:href="#DejaVuSans-50"/>
       <use x="63.623047" xlink:href="#DejaVuSans-48"/>
      </g>
     </g>
    </g>
    <g id="ytick_3">
     <g id="line2d_8">
      <g>
       <use style="stroke:#000000;stroke-width:0.8;" x="57.6" xlink:href="#m72d7b4deeb" y="219.471687"/>
      </g>
     </g>
     <g id="text_8">
      <!-- 30 -->
      <g transform="translate(37.875 223.270906)scale(0.1 -0.1)">
       <defs>
        <path d="M 40.578125 39.3125 
Q 47.65625 37.796875 51.625 33 
Q 55.609375 28.21875 55.609375 21.1875 
Q 55.609375 10.40625 48.1875 4.484375 
Q 40.765625 -1.421875 27.09375 -1.421875 
Q 22.515625 -1.421875 17.65625 -0.515625 
Q 12.796875 0.390625 7.625 2.203125 
L 7.625 11.71875 
Q 11.71875 9.328125 16.59375 8.109375 
Q 21.484375 6.890625 26.8125 6.890625 
Q 36.078125 6.890625 40.9375 10.546875 
Q 45.796875 14.203125 45.796875 21.1875 
Q 45.796875 27.640625 41.28125 31.265625 
Q 36.765625 34.90625 28.71875 34.90625 
L 20.21875 34.90625 
L 20.21875 43.015625 
L 29.109375 43.015625 
Q 36.375 43.015625 40.234375 45.921875 
Q 44.09375 48.828125 44.09375 54.296875 
Q 44.09375 59.90625 40.109375 62.90625 
Q 36.140625 65.921875 28.71875 65.921875 
Q 24.65625 65.921875 20.015625 65.03125 
Q 15.375 64.15625 9.8125 62.3125 
L 9.8125 71.09375 
Q 15.4375 72.65625 20.34375 73.4375 
Q 25.25 74.21875 29.59375 74.21875 
Q 40.828125 74.21875 47.359375 69.109375 
Q 53.90625 64.015625 53.90625 55.328125 
Q 53.90625 49.265625 50.4375 45.09375 
Q 46.96875 40.921875 40.578125 39.3125 
z
" id="DejaVuSans-51"/>
       </defs>
       <use xlink:href="#DejaVuSans-51"/>
       <use x="63.623047" xlink:href="#DejaVuSans-48"/>
      </g>
     </g>
    </g>
    <g id="ytick_4">
     <g id="line2d_9">
      <g>
       <use style="stroke:#000000;stroke-width:0.8;" x="57.6" xlink:href="#m72d7b4deeb" y="187.74104"/>
      </g>
     </g>
     <g id="text_9">
      <!-- 40 -->
      <g transform="translate(37.875 191.540259)scale(0.1 -0.1)">
       <use xlink:href="#DejaVuSans-52"/>
       <use x="63.623047" xlink:href="#DejaVuSans-48"/>
      </g>
     </g>
    </g>
    <g id="ytick_5">
     <g id="line2d_10">
      <g>
       <use style="stroke:#000000;stroke-width:0.8;" x="57.6" xlink:href="#m72d7b4deeb" y="156.010393"/>
      </g>
     </g>
     <g id="text_10">
      <!-- 50 -->
      <g transform="translate(37.875 159.809612)scale(0.1 -0.1)">
       <defs>
        <path d="M 10.796875 72.90625 
L 49.515625 72.90625 
L 49.515625 64.59375 
L 19.828125 64.59375 
L 19.828125 46.734375 
Q 21.96875 47.46875 24.109375 47.828125 
Q 26.265625 48.1875 28.421875 48.1875 
Q 40.625 48.1875 47.75 41.5 
Q 54.890625 34.8125 54.890625 23.390625 
Q 54.890625 11.625 47.5625 5.09375 
Q 40.234375 -1.421875 26.90625 -1.421875 
Q 22.3125 -1.421875 17.546875 -0.640625 
Q 12.796875 0.140625 7.71875 1.703125 
L 7.71875 11.625 
Q 12.109375 9.234375 16.796875 8.0625 
Q 21.484375 6.890625 26.703125 6.890625 
Q 35.15625 6.890625 40.078125 11.328125 
Q 45.015625 15.765625 45.015625 23.390625 
Q 45.015625 31 40.078125 35.4375 
Q 35.15625 39.890625 26.703125 39.890625 
Q 22.75 39.890625 18.8125 39.015625 
Q 14.890625 38.140625 10.796875 36.28125 
z
" id="DejaVuSans-53"/>
       </defs>
       <use xlink:href="#DejaVuSans-53"/>
       <use x="63.623047" xlink:href="#DejaVuSans-48"/>
      </g>
     </g>
    </g>
    <g id="ytick_6">
     <g id="line2d_11">
      <g>
       <use style="stroke:#000000;stroke-width:0.8;" x="57.6" xlink:href="#m72d7b4deeb" y="124.279746"/>
      </g>
     </g>
     <g id="text_11">
      <!-- 60 -->
      <g transform="translate(37.875 128.078965)scale(0.1 -0.1)">
       <use xlink:href="#DejaVuSans-54"/>
       <use x="63.623047" xlink:href="#DejaVuSans-48"/>
      </g>
     </g>
    </g>
    <g id="ytick_7">
     <g id="line2d_12">
      <g>
       <use style="stroke:#000000;stroke-width:0.8;" x="57.6" xlink:href="#m72d7b4deeb" y="92.5491"/>
      </g>
     </g>
     <g id="text_12">
      <!-- 70 -->
      <g transform="translate(37.875 96.348318)scale(0.1 -0.1)">
       <defs>
        <path d="M 8.203125 72.90625 
L 55.078125 72.90625 
L 55.078125 68.703125 
L 28.609375 0 
L 18.3125 0 
L 43.21875 64.59375 
L 8.203125 64.59375 
z
" id="DejaVuSans-55"/>
       </defs>
       <use xlink:href="#DejaVuSans-55"/>
       <use x="63.623047" xlink:href="#DejaVuSans-48"/>
      </g>
     </g>
    </g>
    <g id="ytick_8">
     <g id="line2d_13">
      <g>
       <use style="stroke:#000000;stroke-width:0.8;" x="57.6" xlink:href="#m72d7b4deeb" y="60.818453"/>
      </g>
     </g>
     <g id="text_13">
      <!-- 80 -->
      <g transform="translate(37.875 64.617672)scale(0.1 -0.1)">
       <use xlink:href="#DejaVuSans-56"/>
       <use x="63.623047" xlink:href="#DejaVuSans-48"/>
      </g>
     </g>
    </g>
   </g>
   <g id="line2d_14">
    <path clip-path="url(#peaee2baeee)" d="M 144.831214 221.864178 
L 145.040637 212.313253 
L 144.983521 199.62734 
L 144.796311 180.642894 
L 144.929579 171.136393 
L 145.189771 164.783917 
L 145.630827 158.412403 
L 146.300343 152.03137 
L 147.277647 145.691587 
L 147.905914 142.556599 
L 148.648411 139.453342 
L 149.508312 136.391334 
L 150.498308 133.380096 
L 151.634265 130.4228 
L 152.922529 127.532138 
L 154.369447 124.711283 
L 155.971844 121.966582 
L 157.71703 119.301208 
L 159.598657 116.71516 
L 161.600861 114.211612 
L 163.717295 111.79691 
L 165.935268 109.467881 
L 168.248432 107.234043 
L 170.644096 105.095397 
L 173.109567 103.051944 
L 178.221374 99.253785 
L 183.533084 95.776106 
L 188.997102 92.542753 
L 197.3613 87.976713 
L 208.628853 82.074813 
L 214.314985 79.238093 
L 220.064578 76.560027 
L 225.912536 74.094555 
L 231.874725 71.905141 
L 237.960663 70.036206 
L 244.144966 68.513135 
L 250.411769 67.358139 
L 256.73886 66.599777 
L 259.915097 66.374489 
L 263.104027 66.260259 
L 269.478714 66.371316 
L 272.658125 66.606123 
L 275.828017 66.961506 
L 278.982043 67.443812 
L 282.117031 68.056213 
L 285.223461 68.801884 
L 288.304507 69.687169 
L 291.350649 70.712068 
L 294.355541 71.879756 
L 297.306492 73.193405 
L 300.19398 74.653015 
L 302.99897 76.255412 
L 305.708767 78.003771 
L 308.31068 79.894918 
L 310.78567 81.935198 
L 313.127392 84.118267 
L 315.313634 86.444123 
L 317.338049 88.919114 
L 319.181599 91.533719 
L 320.847458 94.27842 
L 322.32928 97.134178 
L 323.627063 100.091474 
L 324.743982 103.128097 
L 325.67369 106.228181 
L 326.416187 109.379035 
L 326.974646 112.564792 
L 327.342722 115.766414 
L 327.523587 118.968036 
L 327.514067 122.160139 
L 327.333203 125.336377 
L 326.993685 128.496749 
L 326.508206 131.638083 
L 325.169173 137.873156 
L 323.439852 144.032074 
L 321.443995 150.111666 
L 318.182084 159.088266 
L 308.069527 185.764221 
L 303.668486 197.685425 
L 301.253784 203.552421 
L 298.569371 209.305188 
L 295.545441 214.899301 
L 292.181992 220.312549 
L 288.494891 225.516375 
L 284.506349 230.485394 
L 280.229057 235.200569 
L 275.685229 239.639686 
L 270.906593 243.818612 
L 265.921709 247.765905 
L 260.768652 251.500602 
L 255.472807 255.048088 
L 250.065905 258.421056 
L 244.551118 261.60364 
L 238.925274 264.567282 
L 233.1852 267.280252 
L 227.334069 269.713993 
L 221.371881 271.849466 
L 215.311327 273.715228 
L 209.168274 275.34301 
L 202.961759 276.767716 
L 193.572661 278.592228 
L 184.135967 280.153376 
L 165.364116 282.932981 
L 165.364116 282.932981 
" style="fill:none;stroke:#fea952;stroke-linecap:square;"/>
   </g>
   <g id="line2d_15">
    <path clip-path="url(#peaee2baeee)" d="M 132.145792 221.447641 
L 132.348479 212.262535 
L 132.292342 199.792822 
L 132.104211 180.579307 
L 132.245087 170.692435 
L 132.521691 164.000845 
L 132.99608 157.205502 
L 133.730188 150.275061 
L 134.832833 143.197586 
L 135.562064 139.603162 
L 136.428857 136.021736 
L 137.450963 132.427274 
L 138.650079 128.828952 
L 140.041186 125.256181 
L 141.629265 121.739417 
L 143.40844 118.312083 
L 145.353266 115.013941 
L 147.453976 111.833735 
L 149.686443 108.787901 
L 152.055959 105.845713 
L 154.526052 103.043941 
L 157.1184 100.337914 
L 159.795935 97.765742 
L 162.544716 95.32332 
L 165.37157 92.991286 
L 168.239718 90.79417 
L 174.041676 86.77155 
L 179.883949 83.154892 
L 185.699238 79.846499 
L 197.099266 73.762778 
L 205.860547 69.253002 
L 211.909036 66.330957 
L 218.166597 63.550674 
L 224.657904 60.990991 
L 231.338292 58.749276 
L 238.18404 56.863875 
L 245.159244 55.372598 
L 248.692929 54.782805 
L 252.267257 54.301271 
L 255.840865 53.939325 
L 259.460741 53.690365 
L 263.104027 53.568 
L 266.735148 53.575705 
L 270.413521 53.713529 
L 274.072222 53.992885 
L 277.746583 54.415091 
L 281.415408 54.987 
L 285.079538 55.714537 
L 288.728541 56.603201 
L 292.351969 57.65756 
L 295.947896 58.881652 
L 299.517296 60.284511 
L 303.032378 61.866108 
L 306.489762 63.632281 
L 309.880069 65.590334 
L 313.171016 67.736918 
L 316.384081 70.101367 
L 319.44045 72.651437 
L 322.375449 75.425346 
L 325.138022 78.408277 
L 327.711053 81.605139 
L 330.031777 84.948351 
L 332.113363 88.432667 
L 333.951654 92.033801 
L 335.539093 95.710038 
L 336.901303 99.482145 
L 338.027573 103.316995 
L 338.917814 107.187514 
L 339.583851 111.115171 
L 340.014777 115.05055 
L 340.215789 119.005886 
L 340.185799 122.881706 
L 339.952848 126.692102 
L 339.537033 130.435267 
L 338.961701 134.088366 
L 338.254086 137.645593 
L 336.518684 144.551864 
L 334.49273 151.136569 
L 332.311923 157.458238 
L 328.889003 166.625184 
L 321.087667 187.072962 
L 316.656491 199.26807 
L 314.180237 205.568399 
L 311.379518 211.964559 
L 308.174314 218.324349 
L 304.582653 224.492829 
L 300.626448 230.425325 
L 296.31344 236.12686 
L 291.669974 241.550217 
L 286.725993 246.659756 
L 281.554156 251.421885 
L 276.200401 255.862617 
L 270.713896 260.004789 
L 265.111115 263.899733 
L 259.408609 267.583439 
L 253.56235 271.091085 
L 247.556946 274.399616 
L 241.361738 277.493367 
L 235.002429 280.312814 
L 228.498934 282.819163 
L 221.958576 284.982878 
L 215.390184 286.853586 
L 208.815327 288.471259 
L 202.253236 289.872471 
L 192.488102 291.661974 
L 179.693114 293.659862 
L 167.225545 295.488 
L 167.225545 295.488 
" style="fill:none;stroke:#ffffff;stroke-linecap:square;"/>
   </g>
   <g id="line2d_16">
    <path clip-path="url(#peaee2baeee)" d="M 157.516636 222.280714 
L 157.732794 212.363971 
L 157.674701 199.461859 
L 157.48841 180.706482 
L 157.614071 171.58035 
L 157.85785 165.566989 
L 158.265573 159.619304 
L 158.870499 153.787679 
L 159.722461 148.185588 
L 160.867966 142.884947 
L 162.346537 137.93124 
L 163.227344 135.589419 
L 164.215794 133.324858 
L 165.330453 131.110484 
L 166.590423 128.919223 
L 167.980084 126.768681 
L 169.510872 124.642419 
L 171.145763 122.577512 
L 174.752135 118.597847 
L 178.743475 114.867474 
L 183.037281 111.41954 
L 187.668359 108.188534 
L 192.614507 105.116372 
L 197.835137 102.142097 
L 208.875021 96.250671 
L 217.070598 92.028174 
L 222.451489 89.42274 
L 227.78196 87.04362 
L 233.094454 84.932552 
L 238.465365 83.112744 
L 243.899377 81.596619 
L 249.381625 80.403484 
L 254.870679 79.551933 
L 260.369454 79.058613 
L 265.850767 78.944812 
L 271.244028 79.21936 
L 276.548678 79.900624 
L 279.154524 80.39789 
L 281.718382 81.000566 
L 284.257045 81.716777 
L 286.753402 82.542485 
L 289.193787 83.475002 
L 291.580605 84.520702 
L 293.898199 85.673749 
L 296.117871 86.920491 
L 298.246518 88.270624 
L 300.237279 89.688468 
L 302.13089 91.218959 
L 303.879335 92.811188 
L 305.489245 94.479969 
L 306.965045 96.233088 
L 308.331422 98.119087 
L 309.581554 100.124173 
L 310.706905 102.234555 
L 311.715033 104.472911 
L 312.58666 106.774049 
L 313.319807 109.139368 
L 313.91456 111.570555 
L 314.365442 114.014413 
L 314.670667 116.482278 
L 314.831384 118.930187 
L 314.842336 121.438572 
L 314.713558 123.980652 
L 314.450337 126.558232 
L 314.05471 129.187801 
L 312.906305 134.5997 
L 311.349541 140.169717 
L 309.472988 145.894033 
L 306.326358 154.556688 
L 296.127056 181.466452 
L 291.887525 192.962884 
L 289.682291 198.337637 
L 287.315026 203.437212 
L 284.664149 208.365471 
L 281.721565 213.124163 
L 278.477589 217.722333 
L 274.974839 222.10424 
L 271.228959 226.251175 
L 267.205782 230.195512 
L 262.911538 233.961 
L 258.375408 237.560672 
L 253.617851 241.014445 
L 248.664366 244.336479 
L 243.61963 247.487668 
L 238.52844 250.431318 
L 233.371184 253.154767 
L 228.164005 255.623451 
L 222.906811 257.818918 
L 217.510962 259.758695 
L 211.950314 261.476068 
L 206.233048 262.994817 
L 200.397338 264.337222 
L 191.402215 266.086925 
L 182.224097 267.605939 
L 163.502687 270.377961 
L 163.502687 270.377961 
" style="fill:none;stroke:#ffffff;stroke-linecap:square;"/>
   </g>
   <g id="patch_3">
    <path d="M 57.6 307.584 
L 57.6 41.472 
" style="fill:none;stroke:#000000;stroke-linecap:square;stroke-linejoin:miter;stroke-width:0.8;"/>
   </g>
   <g id="patch_4">
    <path d="M 414.72 307.584 
L 414.72 41.472 
" style="fill:none;stroke:#000000;stroke-linecap:square;stroke-linejoin:miter;stroke-width:0.8;"/>
   </g>
   <g id="patch_5">
    <path d="M 57.6 307.584 
L 414.72 307.584 
" style="fill:none;stroke:#000000;stroke-linecap:square;stroke-linejoin:miter;stroke-width:0.8;"/>
   </g>
   <g id="patch_6">
    <path d="M 57.6 41.472 
L 414.72 41.472 
" style="fill:none;stroke:#000000;stroke-linecap:square;stroke-linejoin:miter;stroke-width:0.8;"/>
   </g>
  </g>
 </g>
 <defs>
  <clipPath id="peaee2baeee">
   <rect height="266.112" width="357.12" x="57.6" y="41.472"/>
  </clipPath>
 </defs>
</svg>
