<?xml version="1.0" encoding="utf-8" standalone="no"?>
<!DOCTYPE svg PUBLIC "-//W3C//DTD SVG 1.1//EN"
  "http://www.w3.org/Graphics/SVG/1.1/DTD/svg11.dtd">
<!-- Created with matplotlib (https://matplotlib.org/) -->
<svg height="345.6pt" version="1.1" viewBox="0 0 460.8 345.6" width="460.8pt" xmlns="http://www.w3.org/2000/svg" xmlns:xlink="http://www.w3.org/1999/xlink">
 <metadata>
  <rdf:RDF xmlns:cc="http://creativecommons.org/ns#" xmlns:dc="http://purl.org/dc/elements/1.1/" xmlns:rdf="http://www.w3.org/1999/02/22-rdf-syntax-ns#">
   <cc:Work>
    <dc:type rdf:resource="http://purl.org/dc/dcmitype/StillImage"/>
    <dc:date>2021-01-25T10:29:07.803784</dc:date>
    <dc:format>image/svg+xml</dc:format>
    <dc:creator>
     <cc:Agent>
      <dc:title>Matplotlib v3.3.3, https://matplotlib.org/</dc:title>
     </cc:Agent>
    </dc:creator>
   </cc:Work>
  </rdf:RDF>
 </metadata>
 <defs>
  <style type="text/css">*{stroke-linecap:butt;stroke-linejoin:round;}</style>
 </defs>
 <g id="figure_1">
  <g id="patch_1">
   <path d="M 0 345.6 
L 460.8 345.6 
L 460.8 0 
L 0 0 
z
" style="fill:#ffffff;"/>
  </g>
  <g id="axes_1">
   <g id="patch_2">
    <path d="M 57.6 307.584 
L 414.72 307.584 
L 414.72 41.472 
L 57.6 41.472 
z
" style="fill:#7d9051;"/>
   </g>
   <g id="matplotlib.axis_1">
    <g id="xtick_1">
     <g id="line2d_1">
      <defs>
       <path d="M 0 0 
L 0 3.5 
" id="m68822cf0c7" style="stroke:#000000;stroke-width:0.8;"/>
      </defs>
      <g>
       <use style="stroke:#000000;stroke-width:0.8;" x="93.756632" xlink:href="#m68822cf0c7" y="307.584"/>
      </g>
     </g>
     <g id="text_1">
      <!-- −50 -->
      <g transform="translate(83.204288 322.182437)scale(0.1 -0.1)">
       <defs>
        <path d="M 10.59375 35.5 
L 73.1875 35.5 
L 73.1875 27.203125 
L 10.59375 27.203125 
z
" id="DejaVuSans-8722"/>
        <path d="M 10.796875 72.90625 
L 49.515625 72.90625 
L 49.515625 64.59375 
L 19.828125 64.59375 
L 19.828125 46.734375 
Q 21.96875 47.46875 24.109375 47.828125 
Q 26.265625 48.1875 28.421875 48.1875 
Q 40.625 48.1875 47.75 41.5 
Q 54.890625 34.8125 54.890625 23.390625 
Q 54.890625 11.625 47.5625 5.09375 
Q 40.234375 -1.421875 26.90625 -1.421875 
Q 22.3125 -1.421875 17.546875 -0.640625 
Q 12.796875 0.140625 7.71875 1.703125 
L 7.71875 11.625 
Q 12.109375 9.234375 16.796875 8.0625 
Q 21.484375 6.890625 26.703125 6.890625 
Q 35.15625 6.890625 40.078125 11.328125 
Q 45.015625 15.765625 45.015625 23.390625 
Q 45.015625 31 40.078125 35.4375 
Q 35.15625 39.890625 26.703125 39.890625 
Q 22.75 39.890625 18.8125 39.015625 
Q 14.890625 38.140625 10.796875 36.28125 
z
" id="DejaVuSans-53"/>
        <path d="M 31.78125 66.40625 
Q 24.171875 66.40625 20.328125 58.90625 
Q 16.5 51.421875 16.5 36.375 
Q 16.5 21.390625 20.328125 13.890625 
Q 24.171875 6.390625 31.78125 6.390625 
Q 39.453125 6.390625 43.28125 13.890625 
Q 47.125 21.390625 47.125 36.375 
Q 47.125 51.421875 43.28125 58.90625 
Q 39.453125 66.40625 31.78125 66.40625 
z
M 31.78125 74.21875 
Q 44.046875 74.21875 50.515625 64.515625 
Q 56.984375 54.828125 56.984375 36.375 
Q 56.984375 17.96875 50.515625 8.265625 
Q 44.046875 -1.421875 31.78125 -1.421875 
Q 19.53125 -1.421875 13.0625 8.265625 
Q 6.59375 17.96875 6.59375 36.375 
Q 6.59375 54.828125 13.0625 64.515625 
Q 19.53125 74.21875 31.78125 74.21875 
z
" id="DejaVuSans-48"/>
       </defs>
       <use xlink:href="#DejaVuSans-8722"/>
       <use x="83.789062" xlink:href="#DejaVuSans-53"/>
       <use x="147.412109" xlink:href="#DejaVuSans-48"/>
      </g>
     </g>
    </g>
    <g id="xtick_2">
     <g id="line2d_2">
      <g>
       <use style="stroke:#000000;stroke-width:0.8;" x="136.876429" xlink:href="#m68822cf0c7" y="307.584"/>
      </g>
     </g>
     <g id="text_2">
      <!-- −25 -->
      <g transform="translate(126.324085 322.182437)scale(0.1 -0.1)">
       <defs>
        <path d="M 19.1875 8.296875 
L 53.609375 8.296875 
L 53.609375 0 
L 7.328125 0 
L 7.328125 8.296875 
Q 12.9375 14.109375 22.625 23.890625 
Q 32.328125 33.6875 34.8125 36.53125 
Q 39.546875 41.84375 41.421875 45.53125 
Q 43.3125 49.21875 43.3125 52.78125 
Q 43.3125 58.59375 39.234375 62.25 
Q 35.15625 65.921875 28.609375 65.921875 
Q 23.96875 65.921875 18.8125 64.3125 
Q 13.671875 62.703125 7.8125 59.421875 
L 7.8125 69.390625 
Q 13.765625 71.78125 18.9375 73 
Q 24.125 74.21875 28.421875 74.21875 
Q 39.75 74.21875 46.484375 68.546875 
Q 53.21875 62.890625 53.21875 53.421875 
Q 53.21875 48.921875 51.53125 44.890625 
Q 49.859375 40.875 45.40625 35.40625 
Q 44.1875 33.984375 37.640625 27.21875 
Q 31.109375 20.453125 19.1875 8.296875 
z
" id="DejaVuSans-50"/>
       </defs>
       <use xlink:href="#DejaVuSans-8722"/>
       <use x="83.789062" xlink:href="#DejaVuSans-50"/>
       <use x="147.412109" xlink:href="#DejaVuSans-53"/>
      </g>
     </g>
    </g>
    <g id="xtick_3">
     <g id="line2d_3">
      <g>
       <use style="stroke:#000000;stroke-width:0.8;" x="179.996226" xlink:href="#m68822cf0c7" y="307.584"/>
      </g>
     </g>
     <g id="text_3">
      <!-- 0 -->
      <g transform="translate(176.814976 322.182437)scale(0.1 -0.1)">
       <use xlink:href="#DejaVuSans-48"/>
      </g>
     </g>
    </g>
    <g id="xtick_4">
     <g id="line2d_4">
      <g>
       <use style="stroke:#000000;stroke-width:0.8;" x="223.116023" xlink:href="#m68822cf0c7" y="307.584"/>
      </g>
     </g>
     <g id="text_4">
      <!-- 25 -->
      <g transform="translate(216.753523 322.182437)scale(0.1 -0.1)">
       <use xlink:href="#DejaVuSans-50"/>
       <use x="63.623047" xlink:href="#DejaVuSans-53"/>
      </g>
     </g>
    </g>
    <g id="xtick_5">
     <g id="line2d_5">
      <g>
       <use style="stroke:#000000;stroke-width:0.8;" x="266.235821" xlink:href="#m68822cf0c7" y="307.584"/>
      </g>
     </g>
     <g id="text_5">
      <!-- 50 -->
      <g transform="translate(259.873321 322.182437)scale(0.1 -0.1)">
       <use xlink:href="#DejaVuSans-53"/>
       <use x="63.623047" xlink:href="#DejaVuSans-48"/>
      </g>
     </g>
    </g>
    <g id="xtick_6">
     <g id="line2d_6">
      <g>
       <use style="stroke:#000000;stroke-width:0.8;" x="309.355618" xlink:href="#m68822cf0c7" y="307.584"/>
      </g>
     </g>
     <g id="text_6">
      <!-- 75 -->
      <g transform="translate(302.993118 322.182437)scale(0.1 -0.1)">
       <defs>
        <path d="M 8.203125 72.90625 
L 55.078125 72.90625 
L 55.078125 68.703125 
L 28.609375 0 
L 18.3125 0 
L 43.21875 64.59375 
L 8.203125 64.59375 
z
" id="DejaVuSans-55"/>
       </defs>
       <use xlink:href="#DejaVuSans-55"/>
       <use x="63.623047" xlink:href="#DejaVuSans-53"/>
      </g>
     </g>
    </g>
    <g id="xtick_7">
     <g id="line2d_7">
      <g>
       <use style="stroke:#000000;stroke-width:0.8;" x="352.475415" xlink:href="#m68822cf0c7" y="307.584"/>
      </g>
     </g>
     <g id="text_7">
      <!-- 100 -->
      <g transform="translate(342.931665 322.182437)scale(0.1 -0.1)">
       <defs>
        <path d="M 12.40625 8.296875 
L 28.515625 8.296875 
L 28.515625 63.921875 
L 10.984375 60.40625 
L 10.984375 69.390625 
L 28.421875 72.90625 
L 38.28125 72.90625 
L 38.28125 8.296875 
L 54.390625 8.296875 
L 54.390625 0 
L 12.40625 0 
z
" id="DejaVuSans-49"/>
       </defs>
       <use xlink:href="#DejaVuSans-49"/>
       <use x="63.623047" xlink:href="#DejaVuSans-48"/>
       <use x="127.246094" xlink:href="#DejaVuSans-48"/>
      </g>
     </g>
    </g>
    <g id="xtick_8">
     <g id="line2d_8">
      <g>
       <use style="stroke:#000000;stroke-width:0.8;" x="395.595212" xlink:href="#m68822cf0c7" y="307.584"/>
      </g>
     </g>
     <g id="text_8">
      <!-- 125 -->
      <g transform="translate(386.051462 322.182437)scale(0.1 -0.1)">
       <use xlink:href="#DejaVuSans-49"/>
       <use x="63.623047" xlink:href="#DejaVuSans-50"/>
       <use x="127.246094" xlink:href="#DejaVuSans-53"/>
      </g>
     </g>
    </g>
   </g>
   <g id="matplotlib.axis_2">
    <g id="ytick_1">
     <g id="line2d_9">
      <defs>
       <path d="M 0 0 
L -3.5 0 
" id="m2c342fb183" style="stroke:#000000;stroke-width:0.8;"/>
      </defs>
      <g>
       <use style="stroke:#000000;stroke-width:0.8;" x="57.6" xlink:href="#m2c342fb183" y="277.105865"/>
      </g>
     </g>
     <g id="text_9">
      <!-- 20 -->
      <g transform="translate(37.875 280.905084)scale(0.1 -0.1)">
       <use xlink:href="#DejaVuSans-50"/>
       <use x="63.623047" xlink:href="#DejaVuSans-48"/>
      </g>
     </g>
    </g>
    <g id="ytick_2">
     <g id="line2d_10">
      <g>
       <use style="stroke:#000000;stroke-width:0.8;" x="57.6" xlink:href="#m2c342fb183" y="242.610027"/>
      </g>
     </g>
     <g id="text_10">
      <!-- 40 -->
      <g transform="translate(37.875 246.409246)scale(0.1 -0.1)">
       <defs>
        <path d="M 37.796875 64.3125 
L 12.890625 25.390625 
L 37.796875 25.390625 
z
M 35.203125 72.90625 
L 47.609375 72.90625 
L 47.609375 25.390625 
L 58.015625 25.390625 
L 58.015625 17.1875 
L 47.609375 17.1875 
L 47.609375 0 
L 37.796875 0 
L 37.796875 17.1875 
L 4.890625 17.1875 
L 4.890625 26.703125 
z
" id="DejaVuSans-52"/>
       </defs>
       <use xlink:href="#DejaVuSans-52"/>
       <use x="63.623047" xlink:href="#DejaVuSans-48"/>
      </g>
     </g>
    </g>
    <g id="ytick_3">
     <g id="line2d_11">
      <g>
       <use style="stroke:#000000;stroke-width:0.8;" x="57.6" xlink:href="#m2c342fb183" y="208.114189"/>
      </g>
     </g>
     <g id="text_11">
      <!-- 60 -->
      <g transform="translate(37.875 211.913408)scale(0.1 -0.1)">
       <defs>
        <path d="M 33.015625 40.375 
Q 26.375 40.375 22.484375 35.828125 
Q 18.609375 31.296875 18.609375 23.390625 
Q 18.609375 15.53125 22.484375 10.953125 
Q 26.375 6.390625 33.015625 6.390625 
Q 39.65625 6.390625 43.53125 10.953125 
Q 47.40625 15.53125 47.40625 23.390625 
Q 47.40625 31.296875 43.53125 35.828125 
Q 39.65625 40.375 33.015625 40.375 
z
M 52.59375 71.296875 
L 52.59375 62.3125 
Q 48.875 64.0625 45.09375 64.984375 
Q 41.3125 65.921875 37.59375 65.921875 
Q 27.828125 65.921875 22.671875 59.328125 
Q 17.53125 52.734375 16.796875 39.40625 
Q 19.671875 43.65625 24.015625 45.921875 
Q 28.375 48.1875 33.59375 48.1875 
Q 44.578125 48.1875 50.953125 41.515625 
Q 57.328125 34.859375 57.328125 23.390625 
Q 57.328125 12.15625 50.6875 5.359375 
Q 44.046875 -1.421875 33.015625 -1.421875 
Q 20.359375 -1.421875 13.671875 8.265625 
Q 6.984375 17.96875 6.984375 36.375 
Q 6.984375 53.65625 15.1875 63.9375 
Q 23.390625 74.21875 37.203125 74.21875 
Q 40.921875 74.21875 44.703125 73.484375 
Q 48.484375 72.75 52.59375 71.296875 
z
" id="DejaVuSans-54"/>
       </defs>
       <use xlink:href="#DejaVuSans-54"/>
       <use x="63.623047" xlink:href="#DejaVuSans-48"/>
      </g>
     </g>
    </g>
    <g id="ytick_4">
     <g id="line2d_12">
      <g>
       <use style="stroke:#000000;stroke-width:0.8;" x="57.6" xlink:href="#m2c342fb183" y="173.618352"/>
      </g>
     </g>
     <g id="text_12">
      <!-- 80 -->
      <g transform="translate(37.875 177.41757)scale(0.1 -0.1)">
       <defs>
        <path d="M 31.78125 34.625 
Q 24.75 34.625 20.71875 30.859375 
Q 16.703125 27.09375 16.703125 20.515625 
Q 16.703125 13.921875 20.71875 10.15625 
Q 24.75 6.390625 31.78125 6.390625 
Q 38.8125 6.390625 42.859375 10.171875 
Q 46.921875 13.96875 46.921875 20.515625 
Q 46.921875 27.09375 42.890625 30.859375 
Q 38.875 34.625 31.78125 34.625 
z
M 21.921875 38.8125 
Q 15.578125 40.375 12.03125 44.71875 
Q 8.5 49.078125 8.5 55.328125 
Q 8.5 64.0625 14.71875 69.140625 
Q 20.953125 74.21875 31.78125 74.21875 
Q 42.671875 74.21875 48.875 69.140625 
Q 55.078125 64.0625 55.078125 55.328125 
Q 55.078125 49.078125 51.53125 44.71875 
Q 48 40.375 41.703125 38.8125 
Q 48.828125 37.15625 52.796875 32.3125 
Q 56.78125 27.484375 56.78125 20.515625 
Q 56.78125 9.90625 50.3125 4.234375 
Q 43.84375 -1.421875 31.78125 -1.421875 
Q 19.734375 -1.421875 13.25 4.234375 
Q 6.78125 9.90625 6.78125 20.515625 
Q 6.78125 27.484375 10.78125 32.3125 
Q 14.796875 37.15625 21.921875 38.8125 
z
M 18.3125 54.390625 
Q 18.3125 48.734375 21.84375 45.5625 
Q 25.390625 42.390625 31.78125 42.390625 
Q 38.140625 42.390625 41.71875 45.5625 
Q 45.3125 48.734375 45.3125 54.390625 
Q 45.3125 60.0625 41.71875 63.234375 
Q 38.140625 66.40625 31.78125 66.40625 
Q 25.390625 66.40625 21.84375 63.234375 
Q 18.3125 60.0625 18.3125 54.390625 
z
" id="DejaVuSans-56"/>
       </defs>
       <use xlink:href="#DejaVuSans-56"/>
       <use x="63.623047" xlink:href="#DejaVuSans-48"/>
      </g>
     </g>
    </g>
    <g id="ytick_5">
     <g id="line2d_13">
      <g>
       <use style="stroke:#000000;stroke-width:0.8;" x="57.6" xlink:href="#m2c342fb183" y="139.122514"/>
      </g>
     </g>
     <g id="text_13">
      <!-- 100 -->
      <g transform="translate(31.5125 142.921732)scale(0.1 -0.1)">
       <use xlink:href="#DejaVuSans-49"/>
       <use x="63.623047" xlink:href="#DejaVuSans-48"/>
       <use x="127.246094" xlink:href="#DejaVuSans-48"/>
      </g>
     </g>
    </g>
    <g id="ytick_6">
     <g id="line2d_14">
      <g>
       <use style="stroke:#000000;stroke-width:0.8;" x="57.6" xlink:href="#m2c342fb183" y="104.626676"/>
      </g>
     </g>
     <g id="text_14">
      <!-- 120 -->
      <g transform="translate(31.5125 108.425895)scale(0.1 -0.1)">
       <use xlink:href="#DejaVuSans-49"/>
       <use x="63.623047" xlink:href="#DejaVuSans-50"/>
       <use x="127.246094" xlink:href="#DejaVuSans-48"/>
      </g>
     </g>
    </g>
    <g id="ytick_7">
     <g id="line2d_15">
      <g>
       <use style="stroke:#000000;stroke-width:0.8;" x="57.6" xlink:href="#m2c342fb183" y="70.130838"/>
      </g>
     </g>
     <g id="text_15">
      <!-- 140 -->
      <g transform="translate(31.5125 73.930057)scale(0.1 -0.1)">
       <use xlink:href="#DejaVuSans-49"/>
       <use x="63.623047" xlink:href="#DejaVuSans-52"/>
       <use x="127.246094" xlink:href="#DejaVuSans-48"/>
      </g>
     </g>
    </g>
   </g>
   <g id="line2d_16">
    <path clip-path="url(#p0314c491d5)" d="M 248.955131 294.353784 
L 249.463944 290.895576 
L 249.705415 287.430469 
L 249.696791 283.972261 
L 249.446696 280.526127 
L 248.968929 277.105865 
L 248.275563 273.720098 
L 247.378671 270.377452 
L 246.290327 267.089998 
L 245.02433 263.866362 
L 243.591028 260.718617 
L 242.002495 257.650212 
L 239.373912 253.189901 
L 236.502133 248.876196 
L 233.454426 244.683227 
L 229.178667 239.257032 
L 225.825671 235.315882 
L 221.172183 230.23982 
L 213.940131 222.847362 
L 207.918882 216.596716 
L 205.642157 213.978482 
L 203.532736 211.242962 
L 201.654438 208.353935 
L 200.065905 205.278631 
L 198.808531 202.025674 
L 197.897841 198.645082 
L 197.351082 195.186874 
L 197.182053 191.702794 
L 197.406276 188.244587 
L 198.008228 184.843297 
L 198.946515 181.50755 
L 200.174566 178.249418 
L 201.649264 175.07925 
L 203.325761 172.005671 
L 205.186812 169.049378 
L 207.235864 166.237967 
L 209.478094 163.60421 
L 211.922124 161.173978 
L 214.56968 158.978318 
L 217.408687 157.018954 
L 220.402926 155.276915 
L 223.516175 153.729776 
L 226.712215 152.356842 
L 231.589926 150.571682 
L 238.166557 148.51918 
L 246.428311 146.009608 
L 251.331894 144.276192 
L 254.517585 142.923955 
L 257.598063 141.361294 
L 260.540558 139.534739 
L 263.310574 137.409795 
L 265.86499 135.005435 
L 268.153789 132.35443 
L 270.13385 129.484377 
L 271.75688 126.42977 
L 272.993555 123.223382 
L 273.885273 119.892809 
L 274.48895 116.475996 
L 274.86323 113.000541 
L 275.115049 107.753724 
L 275.113325 104.267919 
L 274.944295 100.806262 
L 274.57174 97.377376 
L 273.959439 93.993334 
L 273.072896 90.662761 
L 271.903487 87.404629 
L 270.461561 84.243085 
L 268.764366 81.204002 
L 266.8257 78.311526 
L 264.661086 75.591529 
L 262.284322 73.061259 
L 259.716107 70.729341 
L 256.973688 68.602672 
L 254.077763 66.691603 
L 251.045579 65.003032 
L 247.894384 63.545583 
L 244.643151 62.329604 
L 241.312578 61.360271 
L 237.919912 60.647932 
L 236.205469 60.390938 
L 236.205469 60.390938 
" style="fill:none;stroke:#fea952;stroke-linecap:square;"/>
   </g>
   <g id="line2d_17">
    <path clip-path="url(#p0314c491d5)" d="M 242.149834 293.219568 
L 242.591725 290.286385 
L 242.807019 287.327303 
L 242.808416 284.35801 
L 242.598914 281.3666 
L 242.189808 278.387284 
L 241.585228 275.404715 
L 240.799329 272.453691 
L 239.834683 269.523756 
L 238.709621 266.645385 
L 237.427127 263.817785 
L 235.216573 259.654145 
L 232.697168 255.559826 
L 229.924468 251.525754 
L 225.949603 246.245767 
L 221.74703 241.140896 
L 217.338839 236.22844 
L 211.45926 230.150786 
L 204.040556 222.561417 
L 201.502799 219.76352 
L 199.025776 216.744267 
L 196.694968 213.450467 
L 194.605564 209.838589 
L 193.69906 207.936037 
L 192.896186 205.987251 
L 192.196784 203.996287 
L 191.60141 201.964726 
L 191.114014 199.901346 
L 190.738222 197.81958 
L 190.471877 195.711328 
L 190.320596 193.588251 
L 190.287298 191.456064 
L 190.375318 189.321338 
L 190.582783 187.225538 
L 191.324872 183.131203 
L 192.442185 179.207071 
L 193.868624 175.45056 
L 195.543623 171.866827 
L 197.427254 168.427107 
L 199.538325 165.087924 
L 201.897122 161.868031 
L 204.510783 158.816274 
L 207.398121 155.965148 
L 210.533558 153.382942 
L 213.832837 151.118801 
L 217.238322 149.146352 
L 220.712889 147.425801 
L 224.21627 145.924986 
L 229.441406 144.015588 
L 236.205644 141.90455 
L 245.781171 138.955734 
L 250.142872 137.315716 
L 252.834551 136.080253 
L 255.315306 134.70729 
L 257.615819 133.140446 
L 259.763306 131.338265 
L 261.707511 129.336617 
L 263.400964 127.183104 
L 264.805546 124.926348 
L 265.915906 122.549317 
L 266.773605 119.951309 
L 267.403814 117.126312 
L 267.831619 114.103243 
L 268.08905 110.927424 
L 268.235342 106.09028 
L 268.074314 101.440202 
L 267.760914 98.477905 
L 267.255827 95.624316 
L 266.532606 92.858921 
L 265.568545 90.137215 
L 264.370657 87.483364 
L 262.956498 84.92787 
L 261.341024 82.496839 
L 259.539108 80.213635 
L 257.544977 78.074952 
L 255.38286 76.097905 
L 253.06482 74.287676 
L 250.609147 72.655429 
L 248.037168 71.211734 
L 245.358119 69.961646 
L 242.591554 68.916672 
L 239.768752 68.08449 
L 236.897158 67.470871 
L 235.182715 67.213877 
L 235.182715 67.213877 
" style="fill:none;stroke:#ffffff;stroke-linecap:square;"/>
   </g>
   <g id="line2d_18">
    <path clip-path="url(#p0314c491d5)" d="M 255.760428 295.488 
L 256.336164 291.504767 
L 256.603811 287.533636 
L 256.585166 283.586512 
L 256.294479 279.685655 
L 255.74805 275.824446 
L 254.965898 272.035482 
L 253.958013 268.301212 
L 252.745971 264.656241 
L 251.339039 261.08734 
L 249.754929 257.619449 
L 248.017113 254.270438 
L 246.15303 251.040126 
L 243.162912 246.382104 
L 240.019211 241.947501 
L 236.740408 237.646198 
L 233.327123 233.457232 
L 229.788194 229.389677 
L 224.935933 224.196114 
L 212.023744 210.835825 
L 210.099098 208.511673 
L 208.428388 206.18955 
L 207.033714 203.843996 
L 205.893736 201.355 
L 205.015274 198.730177 
L 204.419288 196.02445 
L 204.11595 193.301417 
L 204.112972 190.61397 
L 204.420301 187.92014 
L 205.033705 185.189482 
L 205.93082 182.433636 
L 207.086561 179.672193 
L 208.471502 176.922999 
L 210.009917 174.281982 
L 211.687562 171.787639 
L 213.498444 169.471092 
L 215.434698 167.35683 
L 217.502872 165.455508 
L 219.768358 163.727742 
L 222.250736 162.146536 
L 224.922088 160.704615 
L 227.748776 159.395722 
L 232.208371 157.657024 
L 236.881453 156.115693 
L 250.366353 151.969963 
L 253.929688 150.667591 
L 257.520072 149.135523 
L 261.099988 147.305622 
L 264.602105 145.111687 
L 267.91011 142.55205 
L 270.968732 139.647669 
L 272.381985 138.080167 
L 273.723367 136.426078 
L 274.969465 134.703997 
L 276.126538 132.902886 
L 277.180047 131.030918 
L 278.118776 129.099001 
L 278.929393 127.136606 
L 280.186288 123.190754 
L 281.035951 119.261466 
L 281.57058 115.381918 
L 281.871981 111.579228 
L 282.032702 105.926188 
L 281.938528 102.101578 
L 281.631399 98.230058 
L 281.062156 94.324482 
L 280.179821 90.403089 
L 278.966935 86.560433 
L 277.431952 82.817259 
L 275.597655 79.220235 
L 273.476051 75.781057 
L 271.079748 72.52297 
L 268.429878 69.478133 
L 265.557885 66.669634 
L 262.486422 64.105982 
L 259.233618 61.78996 
L 255.820657 59.72965 
L 252.265842 57.932858 
L 248.576519 56.401688 
L 244.791033 55.154669 
L 240.9132 54.194875 
L 237.228223 53.568 
L 237.228223 53.568 
" style="fill:none;stroke:#ffffff;stroke-linecap:square;"/>
   </g>
   <g id="patch_3">
    <path d="M 57.6 307.584 
L 57.6 41.472 
" style="fill:none;stroke:#000000;stroke-linecap:square;stroke-linejoin:miter;stroke-width:0.8;"/>
   </g>
   <g id="patch_4">
    <path d="M 414.72 307.584 
L 414.72 41.472 
" style="fill:none;stroke:#000000;stroke-linecap:square;stroke-linejoin:miter;stroke-width:0.8;"/>
   </g>
   <g id="patch_5">
    <path d="M 57.6 307.584 
L 414.72 307.584 
" style="fill:none;stroke:#000000;stroke-linecap:square;stroke-linejoin:miter;stroke-width:0.8;"/>
   </g>
   <g id="patch_6">
    <path d="M 57.6 41.472 
L 414.72 41.472 
" style="fill:none;stroke:#000000;stroke-linecap:square;stroke-linejoin:miter;stroke-width:0.8;"/>
   </g>
  </g>
 </g>
 <defs>
  <clipPath id="p0314c491d5">
   <rect height="266.112" width="357.12" x="57.6" y="41.472"/>
  </clipPath>
 </defs>
</svg>
