<?xml version="1.0" encoding="utf-8" standalone="no"?>
<!DOCTYPE svg PUBLIC "-//W3C//DTD SVG 1.1//EN"
  "http://www.w3.org/Graphics/SVG/1.1/DTD/svg11.dtd">
<!-- Created with matplotlib (https://matplotlib.org/) -->
<svg height="345.6pt" version="1.1" viewBox="0 0 460.8 345.6" width="460.8pt" xmlns="http://www.w3.org/2000/svg" xmlns:xlink="http://www.w3.org/1999/xlink">
 <metadata>
  <rdf:RDF xmlns:cc="http://creativecommons.org/ns#" xmlns:dc="http://purl.org/dc/elements/1.1/" xmlns:rdf="http://www.w3.org/1999/02/22-rdf-syntax-ns#">
   <cc:Work>
    <dc:type rdf:resource="http://purl.org/dc/dcmitype/StillImage"/>
    <dc:date>2021-01-25T12:29:48.110893</dc:date>
    <dc:format>image/svg+xml</dc:format>
    <dc:creator>
     <cc:Agent>
      <dc:title>Matplotlib v3.3.3, https://matplotlib.org/</dc:title>
     </cc:Agent>
    </dc:creator>
   </cc:Work>
  </rdf:RDF>
 </metadata>
 <defs>
  <style type="text/css">*{stroke-linecap:butt;stroke-linejoin:round;}</style>
 </defs>
 <g id="figure_1">
  <g id="patch_1">
   <path d="M 0 345.6 
L 460.8 345.6 
L 460.8 0 
L 0 0 
z
" style="fill:#ffffff;"/>
  </g>
  <g id="axes_1">
   <g id="patch_2">
    <path d="M 57.6 307.584 
L 414.72 307.584 
L 414.72 41.472 
L 57.6 41.472 
z
" style="fill:#7d9051;"/>
   </g>
   <g id="matplotlib.axis_1">
    <g id="xtick_1">
     <g id="line2d_1">
      <defs>
       <path d="M 0 0 
L 0 3.5 
" id="mcac4826eb2" style="stroke:#000000;stroke-width:0.8;"/>
      </defs>
      <g>
       <use style="stroke:#000000;stroke-width:0.8;" x="126.339381" xlink:href="#mcac4826eb2" y="307.584"/>
      </g>
     </g>
     <g id="text_1">
      <!-- 20 -->
      <g transform="translate(119.976881 322.182437)scale(0.1 -0.1)">
       <defs>
        <path d="M 19.1875 8.296875 
L 53.609375 8.296875 
L 53.609375 0 
L 7.328125 0 
L 7.328125 8.296875 
Q 12.9375 14.109375 22.625 23.890625 
Q 32.328125 33.6875 34.8125 36.53125 
Q 39.546875 41.84375 41.421875 45.53125 
Q 43.3125 49.21875 43.3125 52.78125 
Q 43.3125 58.59375 39.234375 62.25 
Q 35.15625 65.921875 28.609375 65.921875 
Q 23.96875 65.921875 18.8125 64.3125 
Q 13.671875 62.703125 7.8125 59.421875 
L 7.8125 69.390625 
Q 13.765625 71.78125 18.9375 73 
Q 24.125 74.21875 28.421875 74.21875 
Q 39.75 74.21875 46.484375 68.546875 
Q 53.21875 62.890625 53.21875 53.421875 
Q 53.21875 48.921875 51.53125 44.890625 
Q 49.859375 40.875 45.40625 35.40625 
Q 44.1875 33.984375 37.640625 27.21875 
Q 31.109375 20.453125 19.1875 8.296875 
z
" id="DejaVuSans-50"/>
        <path d="M 31.78125 66.40625 
Q 24.171875 66.40625 20.328125 58.90625 
Q 16.5 51.421875 16.5 36.375 
Q 16.5 21.390625 20.328125 13.890625 
Q 24.171875 6.390625 31.78125 6.390625 
Q 39.453125 6.390625 43.28125 13.890625 
Q 47.125 21.390625 47.125 36.375 
Q 47.125 51.421875 43.28125 58.90625 
Q 39.453125 66.40625 31.78125 66.40625 
z
M 31.78125 74.21875 
Q 44.046875 74.21875 50.515625 64.515625 
Q 56.984375 54.828125 56.984375 36.375 
Q 56.984375 17.96875 50.515625 8.265625 
Q 44.046875 -1.421875 31.78125 -1.421875 
Q 19.53125 -1.421875 13.0625 8.265625 
Q 6.59375 17.96875 6.59375 36.375 
Q 6.59375 54.828125 13.0625 64.515625 
Q 19.53125 74.21875 31.78125 74.21875 
z
" id="DejaVuSans-48"/>
       </defs>
       <use xlink:href="#DejaVuSans-50"/>
       <use x="63.623047" xlink:href="#DejaVuSans-48"/>
      </g>
     </g>
    </g>
    <g id="xtick_2">
     <g id="line2d_2">
      <g>
       <use style="stroke:#000000;stroke-width:0.8;" x="200.50132" xlink:href="#mcac4826eb2" y="307.584"/>
      </g>
     </g>
     <g id="text_2">
      <!-- 40 -->
      <g transform="translate(194.13882 322.182437)scale(0.1 -0.1)">
       <defs>
        <path d="M 37.796875 64.3125 
L 12.890625 25.390625 
L 37.796875 25.390625 
z
M 35.203125 72.90625 
L 47.609375 72.90625 
L 47.609375 25.390625 
L 58.015625 25.390625 
L 58.015625 17.1875 
L 47.609375 17.1875 
L 47.609375 0 
L 37.796875 0 
L 37.796875 17.1875 
L 4.890625 17.1875 
L 4.890625 26.703125 
z
" id="DejaVuSans-52"/>
       </defs>
       <use xlink:href="#DejaVuSans-52"/>
       <use x="63.623047" xlink:href="#DejaVuSans-48"/>
      </g>
     </g>
    </g>
    <g id="xtick_3">
     <g id="line2d_3">
      <g>
       <use style="stroke:#000000;stroke-width:0.8;" x="274.66326" xlink:href="#mcac4826eb2" y="307.584"/>
      </g>
     </g>
     <g id="text_3">
      <!-- 60 -->
      <g transform="translate(268.30076 322.182437)scale(0.1 -0.1)">
       <defs>
        <path d="M 33.015625 40.375 
Q 26.375 40.375 22.484375 35.828125 
Q 18.609375 31.296875 18.609375 23.390625 
Q 18.609375 15.53125 22.484375 10.953125 
Q 26.375 6.390625 33.015625 6.390625 
Q 39.65625 6.390625 43.53125 10.953125 
Q 47.40625 15.53125 47.40625 23.390625 
Q 47.40625 31.296875 43.53125 35.828125 
Q 39.65625 40.375 33.015625 40.375 
z
M 52.59375 71.296875 
L 52.59375 62.3125 
Q 48.875 64.0625 45.09375 64.984375 
Q 41.3125 65.921875 37.59375 65.921875 
Q 27.828125 65.921875 22.671875 59.328125 
Q 17.53125 52.734375 16.796875 39.40625 
Q 19.671875 43.65625 24.015625 45.921875 
Q 28.375 48.1875 33.59375 48.1875 
Q 44.578125 48.1875 50.953125 41.515625 
Q 57.328125 34.859375 57.328125 23.390625 
Q 57.328125 12.15625 50.6875 5.359375 
Q 44.046875 -1.421875 33.015625 -1.421875 
Q 20.359375 -1.421875 13.671875 8.265625 
Q 6.984375 17.96875 6.984375 36.375 
Q 6.984375 53.65625 15.1875 63.9375 
Q 23.390625 74.21875 37.203125 74.21875 
Q 40.921875 74.21875 44.703125 73.484375 
Q 48.484375 72.75 52.59375 71.296875 
z
" id="DejaVuSans-54"/>
       </defs>
       <use xlink:href="#DejaVuSans-54"/>
       <use x="63.623047" xlink:href="#DejaVuSans-48"/>
      </g>
     </g>
    </g>
    <g id="xtick_4">
     <g id="line2d_4">
      <g>
       <use style="stroke:#000000;stroke-width:0.8;" x="348.8252" xlink:href="#mcac4826eb2" y="307.584"/>
      </g>
     </g>
     <g id="text_4">
      <!-- 80 -->
      <g transform="translate(342.4627 322.182437)scale(0.1 -0.1)">
       <defs>
        <path d="M 31.78125 34.625 
Q 24.75 34.625 20.71875 30.859375 
Q 16.703125 27.09375 16.703125 20.515625 
Q 16.703125 13.921875 20.71875 10.15625 
Q 24.75 6.390625 31.78125 6.390625 
Q 38.8125 6.390625 42.859375 10.171875 
Q 46.921875 13.96875 46.921875 20.515625 
Q 46.921875 27.09375 42.890625 30.859375 
Q 38.875 34.625 31.78125 34.625 
z
M 21.921875 38.8125 
Q 15.578125 40.375 12.03125 44.71875 
Q 8.5 49.078125 8.5 55.328125 
Q 8.5 64.0625 14.71875 69.140625 
Q 20.953125 74.21875 31.78125 74.21875 
Q 42.671875 74.21875 48.875 69.140625 
Q 55.078125 64.0625 55.078125 55.328125 
Q 55.078125 49.078125 51.53125 44.71875 
Q 48 40.375 41.703125 38.8125 
Q 48.828125 37.15625 52.796875 32.3125 
Q 56.78125 27.484375 56.78125 20.515625 
Q 56.78125 9.90625 50.3125 4.234375 
Q 43.84375 -1.421875 31.78125 -1.421875 
Q 19.734375 -1.421875 13.25 4.234375 
Q 6.78125 9.90625 6.78125 20.515625 
Q 6.78125 27.484375 10.78125 32.3125 
Q 14.796875 37.15625 21.921875 38.8125 
z
M 18.3125 54.390625 
Q 18.3125 48.734375 21.84375 45.5625 
Q 25.390625 42.390625 31.78125 42.390625 
Q 38.140625 42.390625 41.71875 45.5625 
Q 45.3125 48.734375 45.3125 54.390625 
Q 45.3125 60.0625 41.71875 63.234375 
Q 38.140625 66.40625 31.78125 66.40625 
Q 25.390625 66.40625 21.84375 63.234375 
Q 18.3125 60.0625 18.3125 54.390625 
z
" id="DejaVuSans-56"/>
       </defs>
       <use xlink:href="#DejaVuSans-56"/>
       <use x="63.623047" xlink:href="#DejaVuSans-48"/>
      </g>
     </g>
    </g>
   </g>
   <g id="matplotlib.axis_2">
    <g id="ytick_1">
     <g id="line2d_5">
      <defs>
       <path d="M 0 0 
L -3.5 0 
" id="m8f1d86eaee" style="stroke:#000000;stroke-width:0.8;"/>
      </defs>
      <g>
       <use style="stroke:#000000;stroke-width:0.8;" x="57.6" xlink:href="#m8f1d86eaee" y="304.926951"/>
      </g>
     </g>
     <g id="text_5">
      <!-- 0 -->
      <g transform="translate(44.2375 308.72617)scale(0.1 -0.1)">
       <use xlink:href="#DejaVuSans-48"/>
      </g>
     </g>
    </g>
    <g id="ytick_2">
     <g id="line2d_6">
      <g>
       <use style="stroke:#000000;stroke-width:0.8;" x="57.6" xlink:href="#m8f1d86eaee" y="267.845981"/>
      </g>
     </g>
     <g id="text_6">
      <!-- 10 -->
      <g transform="translate(37.875 271.6452)scale(0.1 -0.1)">
       <defs>
        <path d="M 12.40625 8.296875 
L 28.515625 8.296875 
L 28.515625 63.921875 
L 10.984375 60.40625 
L 10.984375 69.390625 
L 28.421875 72.90625 
L 38.28125 72.90625 
L 38.28125 8.296875 
L 54.390625 8.296875 
L 54.390625 0 
L 12.40625 0 
z
" id="DejaVuSans-49"/>
       </defs>
       <use xlink:href="#DejaVuSans-49"/>
       <use x="63.623047" xlink:href="#DejaVuSans-48"/>
      </g>
     </g>
    </g>
    <g id="ytick_3">
     <g id="line2d_7">
      <g>
       <use style="stroke:#000000;stroke-width:0.8;" x="57.6" xlink:href="#m8f1d86eaee" y="230.765012"/>
      </g>
     </g>
     <g id="text_7">
      <!-- 20 -->
      <g transform="translate(37.875 234.56423)scale(0.1 -0.1)">
       <use xlink:href="#DejaVuSans-50"/>
       <use x="63.623047" xlink:href="#DejaVuSans-48"/>
      </g>
     </g>
    </g>
    <g id="ytick_4">
     <g id="line2d_8">
      <g>
       <use style="stroke:#000000;stroke-width:0.8;" x="57.6" xlink:href="#m8f1d86eaee" y="193.684042"/>
      </g>
     </g>
     <g id="text_8">
      <!-- 30 -->
      <g transform="translate(37.875 197.483261)scale(0.1 -0.1)">
       <defs>
        <path d="M 40.578125 39.3125 
Q 47.65625 37.796875 51.625 33 
Q 55.609375 28.21875 55.609375 21.1875 
Q 55.609375 10.40625 48.1875 4.484375 
Q 40.765625 -1.421875 27.09375 -1.421875 
Q 22.515625 -1.421875 17.65625 -0.515625 
Q 12.796875 0.390625 7.625 2.203125 
L 7.625 11.71875 
Q 11.71875 9.328125 16.59375 8.109375 
Q 21.484375 6.890625 26.8125 6.890625 
Q 36.078125 6.890625 40.9375 10.546875 
Q 45.796875 14.203125 45.796875 21.1875 
Q 45.796875 27.640625 41.28125 31.265625 
Q 36.765625 34.90625 28.71875 34.90625 
L 20.21875 34.90625 
L 20.21875 43.015625 
L 29.109375 43.015625 
Q 36.375 43.015625 40.234375 45.921875 
Q 44.09375 48.828125 44.09375 54.296875 
Q 44.09375 59.90625 40.109375 62.90625 
Q 36.140625 65.921875 28.71875 65.921875 
Q 24.65625 65.921875 20.015625 65.03125 
Q 15.375 64.15625 9.8125 62.3125 
L 9.8125 71.09375 
Q 15.4375 72.65625 20.34375 73.4375 
Q 25.25 74.21875 29.59375 74.21875 
Q 40.828125 74.21875 47.359375 69.109375 
Q 53.90625 64.015625 53.90625 55.328125 
Q 53.90625 49.265625 50.4375 45.09375 
Q 46.96875 40.921875 40.578125 39.3125 
z
" id="DejaVuSans-51"/>
       </defs>
       <use xlink:href="#DejaVuSans-51"/>
       <use x="63.623047" xlink:href="#DejaVuSans-48"/>
      </g>
     </g>
    </g>
    <g id="ytick_5">
     <g id="line2d_9">
      <g>
       <use style="stroke:#000000;stroke-width:0.8;" x="57.6" xlink:href="#m8f1d86eaee" y="156.603072"/>
      </g>
     </g>
     <g id="text_9">
      <!-- 40 -->
      <g transform="translate(37.875 160.402291)scale(0.1 -0.1)">
       <use xlink:href="#DejaVuSans-52"/>
       <use x="63.623047" xlink:href="#DejaVuSans-48"/>
      </g>
     </g>
    </g>
    <g id="ytick_6">
     <g id="line2d_10">
      <g>
       <use style="stroke:#000000;stroke-width:0.8;" x="57.6" xlink:href="#m8f1d86eaee" y="119.522102"/>
      </g>
     </g>
     <g id="text_10">
      <!-- 50 -->
      <g transform="translate(37.875 123.321321)scale(0.1 -0.1)">
       <defs>
        <path d="M 10.796875 72.90625 
L 49.515625 72.90625 
L 49.515625 64.59375 
L 19.828125 64.59375 
L 19.828125 46.734375 
Q 21.96875 47.46875 24.109375 47.828125 
Q 26.265625 48.1875 28.421875 48.1875 
Q 40.625 48.1875 47.75 41.5 
Q 54.890625 34.8125 54.890625 23.390625 
Q 54.890625 11.625 47.5625 5.09375 
Q 40.234375 -1.421875 26.90625 -1.421875 
Q 22.3125 -1.421875 17.546875 -0.640625 
Q 12.796875 0.140625 7.71875 1.703125 
L 7.71875 11.625 
Q 12.109375 9.234375 16.796875 8.0625 
Q 21.484375 6.890625 26.703125 6.890625 
Q 35.15625 6.890625 40.078125 11.328125 
Q 45.015625 15.765625 45.015625 23.390625 
Q 45.015625 31 40.078125 35.4375 
Q 35.15625 39.890625 26.703125 39.890625 
Q 22.75 39.890625 18.8125 39.015625 
Q 14.890625 38.140625 10.796875 36.28125 
z
" id="DejaVuSans-53"/>
       </defs>
       <use xlink:href="#DejaVuSans-53"/>
       <use x="63.623047" xlink:href="#DejaVuSans-48"/>
      </g>
     </g>
    </g>
    <g id="ytick_7">
     <g id="line2d_11">
      <g>
       <use style="stroke:#000000;stroke-width:0.8;" x="57.6" xlink:href="#m8f1d86eaee" y="82.441132"/>
      </g>
     </g>
     <g id="text_11">
      <!-- 60 -->
      <g transform="translate(37.875 86.240351)scale(0.1 -0.1)">
       <use xlink:href="#DejaVuSans-54"/>
       <use x="63.623047" xlink:href="#DejaVuSans-48"/>
      </g>
     </g>
    </g>
    <g id="ytick_8">
     <g id="line2d_12">
      <g>
       <use style="stroke:#000000;stroke-width:0.8;" x="57.6" xlink:href="#m8f1d86eaee" y="45.360162"/>
      </g>
     </g>
     <g id="text_12">
      <!-- 70 -->
      <g transform="translate(37.875 49.159381)scale(0.1 -0.1)">
       <defs>
        <path d="M 8.203125 72.90625 
L 55.078125 72.90625 
L 55.078125 68.703125 
L 28.609375 0 
L 18.3125 0 
L 43.21875 64.59375 
L 8.203125 64.59375 
z
" id="DejaVuSans-55"/>
       </defs>
       <use xlink:href="#DejaVuSans-55"/>
       <use x="63.623047" xlink:href="#DejaVuSans-48"/>
      </g>
     </g>
    </g>
   </g>
   <g id="line2d_13">
    <path clip-path="url(#p2ea41fce88)" d="M 382.594839 217.256414 
L 383.251172 209.906966 
L 383.599733 202.498188 
L 383.62569 195.05233 
L 383.306794 187.602763 
L 382.624504 180.175444 
L 381.56028 172.80004 
L 380.095582 165.498797 
L 378.211868 158.30138 
L 377.106855 154.752732 
L 375.8906 151.237456 
L 374.559393 147.766677 
L 373.113235 144.336687 
L 371.54471 140.954903 
L 369.861234 137.625032 
L 368.062807 134.35449 
L 366.149429 131.146986 
L 364.124808 128.013644 
L 361.985236 124.954464 
L 359.738129 121.976862 
L 357.383488 119.091963 
L 354.921311 116.299766 
L 352.355308 113.607687 
L 349.685478 111.023144 
L 346.919238 108.542427 
L 344.060295 106.165537 
L 341.119774 103.888765 
L 338.097675 101.712112 
L 335.005122 99.63187 
L 328.627195 95.760617 
L 322.034199 92.260173 
L 315.27063 89.126831 
L 308.351321 86.382839 
L 304.836045 85.166584 
L 301.287396 84.061571 
L 297.701667 83.075217 
L 294.086272 82.203814 
L 290.437505 81.458487 
L 286.755364 80.839234 
L 283.047267 80.353474 
L 279.32063 80.001204 
L 275.57916 79.789843 
L 271.830274 79.723097 
L 268.085096 79.800967 
L 264.35475 80.027161 
L 260.642945 80.409095 
L 256.960805 80.946769 
L 253.315746 81.643891 
L 249.715183 82.50417 
L 246.162827 83.531313 
L 242.658675 84.703071 
L 235.761615 87.39515 
L 228.972089 90.417249 
L 212.089123 98.278414 
L 201.839943 102.63172 
L 188.075487 108.12712 
L 170.866209 115.016764 
L 160.639278 119.410859 
L 153.905374 122.525661 
L 147.260464 125.829575 
L 140.730505 129.363391 
L 134.34887 133.156775 
L 128.148932 137.246806 
L 122.167771 141.666857 
L 119.271748 144.010375 
L 116.44247 146.450302 
L 113.687354 148.986641 
L 111.021232 151.623098 
L 108.447813 154.355965 
L 105.985636 157.185243 
L 103.642119 160.107224 
L 101.435801 163.121906 
L 99.370391 166.229292 
L 97.460721 169.429379 
L 95.721624 172.714753 
L 94.164223 176.09283 
L 92.795935 179.552484 
L 91.620469 183.086301 
L 90.637823 186.690571 
L 89.851706 190.346755 
L 89.258411 194.047435 
L 88.861644 197.781489 
L 88.665115 201.541499 
L 88.665115 205.308926 
L 88.861644 209.083769 
L 89.258411 212.847487 
L 89.855414 216.588957 
L 90.652655 220.297054 
L 91.646425 223.953237 
L 92.840432 227.546383 
L 94.230969 231.054243 
L 95.818034 234.465692 
L 97.601629 237.762191 
L 99.581753 240.932614 
L 101.758406 243.954713 
L 104.124172 246.817363 
L 106.686467 249.505734 
L 109.42675 252.019824 
L 112.326482 254.359633 
L 115.374538 256.525161 
L 118.556085 258.520118 
L 121.848875 260.348209 
L 125.245492 262.002021 
L 128.723687 263.492676 
L 132.272336 264.816466 
L 135.872898 265.973393 
L 139.514249 266.967163 
L 143.185265 267.794068 
L 146.882238 268.446693 
L 150.594043 268.925038 
L 154.32068 269.221685 
L 158.051026 269.332928 
L 161.781372 269.255058 
L 165.508009 268.984367 
L 169.216106 268.517147 
L 172.909371 267.845981 
L 176.569262 266.970871 
L 180.188365 265.891814 
L 183.748138 264.608813 
L 187.230041 263.13299 
L 190.615534 261.45693 
L 193.893491 259.58805 
L 197.037958 257.526348 
L 200.037808 255.275533 
L 202.874502 252.843021 
L 205.533208 250.221397 
L 207.995384 247.421783 
L 210.261032 244.459014 
L 212.322733 241.344212 
L 214.187906 238.092211 
L 215.849134 234.717843 
L 217.310124 231.239648 
L 218.563461 227.668751 
L 219.61656 224.023691 
L 220.458298 220.315594 
L 221.096091 216.566708 
L 221.52623 212.784449 
L 221.745008 208.987358 
L 221.752424 205.186559 
L 221.548479 201.4043 
L 221.133172 197.651706 
L 220.506504 193.943609 
L 219.661057 190.294841 
L 218.600542 186.720236 
L 217.321248 183.238333 
L 215.826885 179.860256 
L 215.826885 179.860256 
" style="fill:none;stroke:#fea952;stroke-linecap:square;"/>
   </g>
   <g id="line2d_14">
    <path clip-path="url(#p2ea41fce88)" d="M 367.834883 215.79237 
L 368.442917 209.061204 
L 368.769004 202.276393 
L 368.800815 195.524365 
L 368.521362 188.782059 
L 367.918518 182.107725 
L 366.978608 175.515655 
L 365.693112 169.04402 
L 364.050182 162.711184 
L 362.041904 156.549081 
L 359.657712 150.577571 
L 356.864237 144.771906 
L 355.32469 141.953182 
L 353.691459 139.196751 
L 351.970182 136.514516 
L 350.145917 133.889243 
L 348.247315 131.355611 
L 346.258584 128.901971 
L 344.184838 126.533429 
L 342.038822 124.264603 
L 339.782777 122.065618 
L 337.436876 119.947888 
L 334.979708 117.893396 
L 332.451195 115.924357 
L 327.128067 112.199755 
L 321.497857 108.76724 
L 315.620078 105.633983 
L 309.59944 102.832207 
L 303.501522 100.399942 
L 297.353461 98.362755 
L 291.117783 96.736116 
L 284.828782 95.545968 
L 281.651423 95.120036 
L 278.484059 94.809982 
L 275.315124 94.619881 
L 272.138603 94.55228 
L 268.982826 94.606163 
L 265.872944 94.781646 
L 262.786075 95.085836 
L 259.74702 95.515116 
L 256.762612 96.070216 
L 253.835115 96.752886 
L 250.866634 97.598079 
L 247.850368 98.597173 
L 241.674049 100.998195 
L 235.260648 103.850556 
L 218.014014 111.876039 
L 207.420125 116.374402 
L 193.507249 121.929138 
L 176.601476 128.69545 
L 166.775847 132.914276 
L 160.401813 135.859677 
L 154.194229 138.941502 
L 148.169077 142.19567 
L 142.359865 145.639711 
L 136.788264 149.303408 
L 131.49816 153.196974 
L 126.488334 157.362696 
L 124.116598 159.533232 
L 119.636625 164.093018 
L 117.556316 166.465281 
L 115.61145 168.867066 
L 113.788421 171.332419 
L 112.107254 173.830085 
L 110.569766 176.368592 
L 109.191425 178.92476 
L 107.957056 181.547873 
L 106.870125 184.234035 
L 105.930559 186.987714 
L 105.138812 189.808431 
L 104.497075 192.694709 
L 104.007769 195.614646 
L 103.673813 198.555695 
L 103.497503 201.541499 
L 103.477442 204.537754 
L 103.612296 207.528774 
L 103.905508 210.510339 
L 104.356434 213.471238 
L 104.965751 216.406679 
L 105.722016 219.2759 
L 106.628981 222.080521 
L 107.679288 224.797851 
L 108.863361 227.407422 
L 110.181948 229.905009 
L 111.617344 232.264034 
L 113.191712 234.505944 
L 114.860991 236.584063 
L 116.713763 238.576276 
L 118.740991 240.476659 
L 120.916992 242.268195 
L 123.25411 243.958854 
L 125.755609 245.552212 
L 128.34199 247.012573 
L 131.088256 248.368905 
L 133.907808 249.595747 
L 136.80977 250.695155 
L 139.778023 251.664314 
L 142.773617 252.497323 
L 145.763752 253.187524 
L 148.778027 253.735958 
L 151.771008 254.13942 
L 154.762802 254.395888 
L 157.741471 254.503771 
L 160.706825 254.461645 
L 163.653789 254.268335 
L 166.564097 253.923772 
L 169.460055 253.420242 
L 172.331263 252.756825 
L 175.1592 251.938061 
L 177.959833 250.952486 
L 180.649261 249.840396 
L 183.26917 248.571641 
L 185.760719 247.184109 
L 188.136179 245.662197 
L 190.382594 244.016022 
L 192.460329 242.281547 
L 194.395408 240.426033 
L 196.213161 238.411848 
L 197.892623 236.272305 
L 199.456367 233.964757 
L 200.880723 231.540982 
L 202.174146 228.973765 
L 203.314761 226.327465 
L 204.313861 223.551878 
L 205.152159 220.740272 
L 205.836013 217.827926 
L 206.3587 214.890691 
L 206.718401 211.931264 
L 206.912648 208.958417 
L 206.941552 205.985184 
L 206.8061 203.035867 
L 206.508166 200.123332 
L 206.056931 197.29168 
L 205.441281 194.513572 
L 204.678121 191.835502 
L 203.756823 189.238841 
L 202.26246 185.860765 
L 202.26246 185.860765 
" style="fill:none;stroke:#ffffff;stroke-linecap:square;"/>
   </g>
   <g id="line2d_15">
    <path clip-path="url(#p2ea41fce88)" d="M 397.354795 218.720459 
L 398.059427 210.752728 
L 398.430463 202.719984 
L 398.450565 194.580294 
L 398.092225 186.423466 
L 397.33049 178.243163 
L 396.141952 170.084424 
L 395.378751 166.01752 
L 394.498051 161.953573 
L 393.498181 157.918183 
L 392.373555 153.891576 
L 391.123958 149.902932 
L 389.739295 145.92583 
L 388.226663 142.00426 
L 386.568758 138.095803 
L 384.781589 134.262761 
L 382.85823 130.478157 
L 380.800924 126.755798 
L 378.607399 123.097221 
L 376.279433 119.512773 
L 373.824555 116.019686 
L 371.228943 112.598113 
L 368.508391 109.281955 
L 365.657785 106.066102 
L 362.671794 102.950772 
L 359.58818 99.98067 
L 356.401599 97.136965 
L 353.140882 94.437678 
L 349.788354 91.853174 
L 346.376214 89.404979 
L 342.882177 87.063985 
L 339.359703 84.863418 
L 335.756534 82.753993 
L 328.448319 78.886363 
L 324.725085 77.106573 
L 320.94182 75.421455 
L 317.092559 73.83569 
L 313.20112 72.365736 
L 309.245849 71.004897 
L 305.221331 69.760386 
L 301.177127 68.655754 
L 297.054761 67.671512 
L 292.897429 66.831508 
L 288.681946 66.132501 
L 284.443111 65.586912 
L 280.157201 65.192427 
L 275.843196 64.959805 
L 271.521944 64.893914 
L 267.187365 64.995772 
L 262.836557 65.272676 
L 258.499816 65.732354 
L 254.17459 66.378422 
L 249.868879 67.217567 
L 245.595252 68.255454 
L 241.459019 69.464546 
L 237.466982 70.80897 
L 233.602397 72.259693 
L 226.207646 75.377346 
L 215.896554 80.181497 
L 206.164232 84.68079 
L 196.259761 88.889039 
L 182.643725 94.325102 
L 168.659962 99.8879 
L 158.05364 104.342377 
L 150.944186 107.526062 
L 143.861635 110.922053 
L 136.794427 114.588657 
L 129.80113 118.558772 
L 122.899971 122.885728 
L 116.137765 127.614182 
L 112.837383 130.136741 
L 109.585056 132.777934 
L 106.396605 135.537909 
L 103.258109 138.440049 
L 100.222868 141.454761 
L 97.259 144.618912 
L 94.414956 147.905205 
L 91.672788 151.347381 
L 89.083181 154.911394 
L 86.633528 158.628499 
L 84.351676 162.490167 
L 82.251823 166.504746 
L 80.37139 170.637787 
L 78.721746 174.870933 
L 77.310378 179.184887 
L 76.136834 183.572711 
L 75.206337 187.9988 
L 74.509052 192.480224 
L 74.049476 197.007283 
L 73.832727 201.541499 
L 73.852788 206.080098 
L 74.110993 210.638763 
L 74.611313 215.184635 
L 75.354395 219.706676 
L 76.339559 224.187429 
L 77.570835 228.630575 
L 79.051884 233.012246 
L 80.78265 237.310635 
L 82.772707 241.523963 
L 85.02131 245.619372 
L 87.546161 249.601193 
L 90.325099 253.403482 
L 93.387352 257.050664 
L 96.65917 260.435192 
L 100.112509 263.562988 
L 103.735972 266.45107 
L 107.494965 269.091468 
L 111.356561 271.488023 
L 115.35576 273.683845 
L 119.402728 275.635136 
L 123.539566 277.389604 
L 127.734901 278.937777 
L 131.967773 280.282471 
L 136.254881 281.437002 
L 140.606778 282.400612 
L 144.986449 283.157428 
L 149.417078 283.710655 
L 153.878559 284.047483 
L 158.360581 284.162086 
L 162.855918 284.048472 
L 167.362229 283.700399 
L 171.868115 283.110522 
L 176.358686 282.271721 
L 180.807262 281.184916 
L 185.21753 279.845568 
L 189.536443 278.26514 
L 193.810822 276.425584 
L 197.961898 274.342219 
L 202.026264 271.99199 
L 205.939737 269.390498 
L 209.693022 266.535043 
L 213.288675 263.404495 
L 216.671008 260.01676 
L 219.777608 256.431719 
L 222.62944 252.645722 
L 225.1891 248.723667 
L 227.49509 244.64344 
L 229.524122 240.461921 
L 231.305487 236.151832 
L 232.81306 231.785624 
L 234.080961 227.30711 
L 235.080584 222.803263 
L 235.833482 218.242725 
L 236.334059 213.637635 
L 236.577368 209.016299 
L 236.563296 204.387933 
L 236.290857 199.772732 
L 235.758178 195.18008 
L 234.956076 190.595537 
L 233.880834 186.076111 
L 232.522962 181.604969 
L 230.885673 177.237824 
L 229.39131 173.859748 
L 229.39131 173.859748 
" style="fill:none;stroke:#ffffff;stroke-linecap:square;"/>
   </g>
   <g id="patch_3">
    <path d="M 57.6 307.584 
L 57.6 41.472 
" style="fill:none;stroke:#000000;stroke-linecap:square;stroke-linejoin:miter;stroke-width:0.8;"/>
   </g>
   <g id="patch_4">
    <path d="M 414.72 307.584 
L 414.72 41.472 
" style="fill:none;stroke:#000000;stroke-linecap:square;stroke-linejoin:miter;stroke-width:0.8;"/>
   </g>
   <g id="patch_5">
    <path d="M 57.6 307.584 
L 414.72 307.584 
" style="fill:none;stroke:#000000;stroke-linecap:square;stroke-linejoin:miter;stroke-width:0.8;"/>
   </g>
   <g id="patch_6">
    <path d="M 57.6 41.472 
L 414.72 41.472 
" style="fill:none;stroke:#000000;stroke-linecap:square;stroke-linejoin:miter;stroke-width:0.8;"/>
   </g>
  </g>
 </g>
 <defs>
  <clipPath id="p2ea41fce88">
   <rect height="266.112" width="357.12" x="57.6" y="41.472"/>
  </clipPath>
 </defs>
</svg>
