<?xml version="1.0" encoding="utf-8" standalone="no"?>
<!DOCTYPE svg PUBLIC "-//W3C//DTD SVG 1.1//EN"
  "http://www.w3.org/Graphics/SVG/1.1/DTD/svg11.dtd">
<!-- Created with matplotlib (https://matplotlib.org/) -->
<svg height="345.6pt" version="1.1" viewBox="0 0 460.8 345.6" width="460.8pt" xmlns="http://www.w3.org/2000/svg" xmlns:xlink="http://www.w3.org/1999/xlink">
 <metadata>
  <rdf:RDF xmlns:cc="http://creativecommons.org/ns#" xmlns:dc="http://purl.org/dc/elements/1.1/" xmlns:rdf="http://www.w3.org/1999/02/22-rdf-syntax-ns#">
   <cc:Work>
    <dc:type rdf:resource="http://purl.org/dc/dcmitype/StillImage"/>
    <dc:date>2021-01-23T13:06:12.983088</dc:date>
    <dc:format>image/svg+xml</dc:format>
    <dc:creator>
     <cc:Agent>
      <dc:title>Matplotlib v3.3.3, https://matplotlib.org/</dc:title>
     </cc:Agent>
    </dc:creator>
   </cc:Work>
  </rdf:RDF>
 </metadata>
 <defs>
  <style type="text/css">*{stroke-linecap:butt;stroke-linejoin:round;}</style>
 </defs>
 <g id="figure_1">
  <g id="patch_1">
   <path d="M 0 345.6 
L 460.8 345.6 
L 460.8 0 
L 0 0 
z
" style="fill:#ffffff;"/>
  </g>
  <g id="axes_1">
   <g id="patch_2">
    <path d="M 57.6 307.584 
L 414.72 307.584 
L 414.72 41.472 
L 57.6 41.472 
z
" style="fill:#7d9051;"/>
   </g>
   <g id="matplotlib.axis_1">
    <g id="xtick_1">
     <g id="line2d_1">
      <defs>
       <path d="M 0 0 
L 0 3.5 
" id="mfd5ce857d0" style="stroke:#000000;stroke-width:0.8;"/>
      </defs>
      <g>
       <use style="stroke:#000000;stroke-width:0.8;" x="73.976583" xlink:href="#mfd5ce857d0" y="307.584"/>
      </g>
     </g>
     <g id="text_1">
      <!-- −20 -->
      <g transform="translate(63.424239 322.182437)scale(0.1 -0.1)">
       <defs>
        <path d="M 10.59375 35.5 
L 73.1875 35.5 
L 73.1875 27.203125 
L 10.59375 27.203125 
z
" id="DejaVuSans-8722"/>
        <path d="M 19.1875 8.296875 
L 53.609375 8.296875 
L 53.609375 0 
L 7.328125 0 
L 7.328125 8.296875 
Q 12.9375 14.109375 22.625 23.890625 
Q 32.328125 33.6875 34.8125 36.53125 
Q 39.546875 41.84375 41.421875 45.53125 
Q 43.3125 49.21875 43.3125 52.78125 
Q 43.3125 58.59375 39.234375 62.25 
Q 35.15625 65.921875 28.609375 65.921875 
Q 23.96875 65.921875 18.8125 64.3125 
Q 13.671875 62.703125 7.8125 59.421875 
L 7.8125 69.390625 
Q 13.765625 71.78125 18.9375 73 
Q 24.125 74.21875 28.421875 74.21875 
Q 39.75 74.21875 46.484375 68.546875 
Q 53.21875 62.890625 53.21875 53.421875 
Q 53.21875 48.921875 51.53125 44.890625 
Q 49.859375 40.875 45.40625 35.40625 
Q 44.1875 33.984375 37.640625 27.21875 
Q 31.109375 20.453125 19.1875 8.296875 
z
" id="DejaVuSans-50"/>
        <path d="M 31.78125 66.40625 
Q 24.171875 66.40625 20.328125 58.90625 
Q 16.5 51.421875 16.5 36.375 
Q 16.5 21.390625 20.328125 13.890625 
Q 24.171875 6.390625 31.78125 6.390625 
Q 39.453125 6.390625 43.28125 13.890625 
Q 47.125 21.390625 47.125 36.375 
Q 47.125 51.421875 43.28125 58.90625 
Q 39.453125 66.40625 31.78125 66.40625 
z
M 31.78125 74.21875 
Q 44.046875 74.21875 50.515625 64.515625 
Q 56.984375 54.828125 56.984375 36.375 
Q 56.984375 17.96875 50.515625 8.265625 
Q 44.046875 -1.421875 31.78125 -1.421875 
Q 19.53125 -1.421875 13.0625 8.265625 
Q 6.59375 17.96875 6.59375 36.375 
Q 6.59375 54.828125 13.0625 64.515625 
Q 19.53125 74.21875 31.78125 74.21875 
z
" id="DejaVuSans-48"/>
       </defs>
       <use xlink:href="#DejaVuSans-8722"/>
       <use x="83.789062" xlink:href="#DejaVuSans-50"/>
       <use x="147.412109" xlink:href="#DejaVuSans-48"/>
      </g>
     </g>
    </g>
    <g id="xtick_2">
     <g id="line2d_2">
      <g>
       <use style="stroke:#000000;stroke-width:0.8;" x="124.547536" xlink:href="#mfd5ce857d0" y="307.584"/>
      </g>
     </g>
     <g id="text_2">
      <!-- 0 -->
      <g transform="translate(121.366286 322.182437)scale(0.1 -0.1)">
       <use xlink:href="#DejaVuSans-48"/>
      </g>
     </g>
    </g>
    <g id="xtick_3">
     <g id="line2d_3">
      <g>
       <use style="stroke:#000000;stroke-width:0.8;" x="175.118489" xlink:href="#mfd5ce857d0" y="307.584"/>
      </g>
     </g>
     <g id="text_3">
      <!-- 20 -->
      <g transform="translate(168.755989 322.182437)scale(0.1 -0.1)">
       <use xlink:href="#DejaVuSans-50"/>
       <use x="63.623047" xlink:href="#DejaVuSans-48"/>
      </g>
     </g>
    </g>
    <g id="xtick_4">
     <g id="line2d_4">
      <g>
       <use style="stroke:#000000;stroke-width:0.8;" x="225.689442" xlink:href="#mfd5ce857d0" y="307.584"/>
      </g>
     </g>
     <g id="text_4">
      <!-- 40 -->
      <g transform="translate(219.326942 322.182437)scale(0.1 -0.1)">
       <defs>
        <path d="M 37.796875 64.3125 
L 12.890625 25.390625 
L 37.796875 25.390625 
z
M 35.203125 72.90625 
L 47.609375 72.90625 
L 47.609375 25.390625 
L 58.015625 25.390625 
L 58.015625 17.1875 
L 47.609375 17.1875 
L 47.609375 0 
L 37.796875 0 
L 37.796875 17.1875 
L 4.890625 17.1875 
L 4.890625 26.703125 
z
" id="DejaVuSans-52"/>
       </defs>
       <use xlink:href="#DejaVuSans-52"/>
       <use x="63.623047" xlink:href="#DejaVuSans-48"/>
      </g>
     </g>
    </g>
    <g id="xtick_5">
     <g id="line2d_5">
      <g>
       <use style="stroke:#000000;stroke-width:0.8;" x="276.260395" xlink:href="#mfd5ce857d0" y="307.584"/>
      </g>
     </g>
     <g id="text_5">
      <!-- 60 -->
      <g transform="translate(269.897895 322.182437)scale(0.1 -0.1)">
       <defs>
        <path d="M 33.015625 40.375 
Q 26.375 40.375 22.484375 35.828125 
Q 18.609375 31.296875 18.609375 23.390625 
Q 18.609375 15.53125 22.484375 10.953125 
Q 26.375 6.390625 33.015625 6.390625 
Q 39.65625 6.390625 43.53125 10.953125 
Q 47.40625 15.53125 47.40625 23.390625 
Q 47.40625 31.296875 43.53125 35.828125 
Q 39.65625 40.375 33.015625 40.375 
z
M 52.59375 71.296875 
L 52.59375 62.3125 
Q 48.875 64.0625 45.09375 64.984375 
Q 41.3125 65.921875 37.59375 65.921875 
Q 27.828125 65.921875 22.671875 59.328125 
Q 17.53125 52.734375 16.796875 39.40625 
Q 19.671875 43.65625 24.015625 45.921875 
Q 28.375 48.1875 33.59375 48.1875 
Q 44.578125 48.1875 50.953125 41.515625 
Q 57.328125 34.859375 57.328125 23.390625 
Q 57.328125 12.15625 50.6875 5.359375 
Q 44.046875 -1.421875 33.015625 -1.421875 
Q 20.359375 -1.421875 13.671875 8.265625 
Q 6.984375 17.96875 6.984375 36.375 
Q 6.984375 53.65625 15.1875 63.9375 
Q 23.390625 74.21875 37.203125 74.21875 
Q 40.921875 74.21875 44.703125 73.484375 
Q 48.484375 72.75 52.59375 71.296875 
z
" id="DejaVuSans-54"/>
       </defs>
       <use xlink:href="#DejaVuSans-54"/>
       <use x="63.623047" xlink:href="#DejaVuSans-48"/>
      </g>
     </g>
    </g>
    <g id="xtick_6">
     <g id="line2d_6">
      <g>
       <use style="stroke:#000000;stroke-width:0.8;" x="326.831347" xlink:href="#mfd5ce857d0" y="307.584"/>
      </g>
     </g>
     <g id="text_6">
      <!-- 80 -->
      <g transform="translate(320.468847 322.182437)scale(0.1 -0.1)">
       <defs>
        <path d="M 31.78125 34.625 
Q 24.75 34.625 20.71875 30.859375 
Q 16.703125 27.09375 16.703125 20.515625 
Q 16.703125 13.921875 20.71875 10.15625 
Q 24.75 6.390625 31.78125 6.390625 
Q 38.8125 6.390625 42.859375 10.171875 
Q 46.921875 13.96875 46.921875 20.515625 
Q 46.921875 27.09375 42.890625 30.859375 
Q 38.875 34.625 31.78125 34.625 
z
M 21.921875 38.8125 
Q 15.578125 40.375 12.03125 44.71875 
Q 8.5 49.078125 8.5 55.328125 
Q 8.5 64.0625 14.71875 69.140625 
Q 20.953125 74.21875 31.78125 74.21875 
Q 42.671875 74.21875 48.875 69.140625 
Q 55.078125 64.0625 55.078125 55.328125 
Q 55.078125 49.078125 51.53125 44.71875 
Q 48 40.375 41.703125 38.8125 
Q 48.828125 37.15625 52.796875 32.3125 
Q 56.78125 27.484375 56.78125 20.515625 
Q 56.78125 9.90625 50.3125 4.234375 
Q 43.84375 -1.421875 31.78125 -1.421875 
Q 19.734375 -1.421875 13.25 4.234375 
Q 6.78125 9.90625 6.78125 20.515625 
Q 6.78125 27.484375 10.78125 32.3125 
Q 14.796875 37.15625 21.921875 38.8125 
z
M 18.3125 54.390625 
Q 18.3125 48.734375 21.84375 45.5625 
Q 25.390625 42.390625 31.78125 42.390625 
Q 38.140625 42.390625 41.71875 45.5625 
Q 45.3125 48.734375 45.3125 54.390625 
Q 45.3125 60.0625 41.71875 63.234375 
Q 38.140625 66.40625 31.78125 66.40625 
Q 25.390625 66.40625 21.84375 63.234375 
Q 18.3125 60.0625 18.3125 54.390625 
z
" id="DejaVuSans-56"/>
       </defs>
       <use xlink:href="#DejaVuSans-56"/>
       <use x="63.623047" xlink:href="#DejaVuSans-48"/>
      </g>
     </g>
    </g>
    <g id="xtick_7">
     <g id="line2d_7">
      <g>
       <use style="stroke:#000000;stroke-width:0.8;" x="377.4023" xlink:href="#mfd5ce857d0" y="307.584"/>
      </g>
     </g>
     <g id="text_7">
      <!-- 100 -->
      <g transform="translate(367.85855 322.182437)scale(0.1 -0.1)">
       <defs>
        <path d="M 12.40625 8.296875 
L 28.515625 8.296875 
L 28.515625 63.921875 
L 10.984375 60.40625 
L 10.984375 69.390625 
L 28.421875 72.90625 
L 38.28125 72.90625 
L 38.28125 8.296875 
L 54.390625 8.296875 
L 54.390625 0 
L 12.40625 0 
z
" id="DejaVuSans-49"/>
       </defs>
       <use xlink:href="#DejaVuSans-49"/>
       <use x="63.623047" xlink:href="#DejaVuSans-48"/>
       <use x="127.246094" xlink:href="#DejaVuSans-48"/>
      </g>
     </g>
    </g>
   </g>
   <g id="matplotlib.axis_2">
    <g id="ytick_1">
     <g id="line2d_8">
      <defs>
       <path d="M 0 0 
L -3.5 0 
" id="m4d5383b9e5" style="stroke:#000000;stroke-width:0.8;"/>
      </defs>
      <g>
       <use style="stroke:#000000;stroke-width:0.8;" x="57.6" xlink:href="#m4d5383b9e5" y="263.649718"/>
      </g>
     </g>
     <g id="text_8">
      <!-- 20 -->
      <g transform="translate(37.875 267.448936)scale(0.1 -0.1)">
       <use xlink:href="#DejaVuSans-50"/>
       <use x="63.623047" xlink:href="#DejaVuSans-48"/>
      </g>
     </g>
    </g>
    <g id="ytick_2">
     <g id="line2d_9">
      <g>
       <use style="stroke:#000000;stroke-width:0.8;" x="57.6" xlink:href="#m4d5383b9e5" y="213.078765"/>
      </g>
     </g>
     <g id="text_9">
      <!-- 40 -->
      <g transform="translate(37.875 216.877984)scale(0.1 -0.1)">
       <use xlink:href="#DejaVuSans-52"/>
       <use x="63.623047" xlink:href="#DejaVuSans-48"/>
      </g>
     </g>
    </g>
    <g id="ytick_3">
     <g id="line2d_10">
      <g>
       <use style="stroke:#000000;stroke-width:0.8;" x="57.6" xlink:href="#m4d5383b9e5" y="162.507812"/>
      </g>
     </g>
     <g id="text_10">
      <!-- 60 -->
      <g transform="translate(37.875 166.307031)scale(0.1 -0.1)">
       <use xlink:href="#DejaVuSans-54"/>
       <use x="63.623047" xlink:href="#DejaVuSans-48"/>
      </g>
     </g>
    </g>
    <g id="ytick_4">
     <g id="line2d_11">
      <g>
       <use style="stroke:#000000;stroke-width:0.8;" x="57.6" xlink:href="#m4d5383b9e5" y="111.936859"/>
      </g>
     </g>
     <g id="text_11">
      <!-- 80 -->
      <g transform="translate(37.875 115.736078)scale(0.1 -0.1)">
       <use xlink:href="#DejaVuSans-56"/>
       <use x="63.623047" xlink:href="#DejaVuSans-48"/>
      </g>
     </g>
    </g>
    <g id="ytick_5">
     <g id="line2d_12">
      <g>
       <use style="stroke:#000000;stroke-width:0.8;" x="57.6" xlink:href="#m4d5383b9e5" y="61.365906"/>
      </g>
     </g>
     <g id="text_12">
      <!-- 100 -->
      <g transform="translate(31.5125 65.165125)scale(0.1 -0.1)">
       <use xlink:href="#DejaVuSans-49"/>
       <use x="63.623047" xlink:href="#DejaVuSans-48"/>
       <use x="127.246094" xlink:href="#DejaVuSans-48"/>
      </g>
     </g>
    </g>
   </g>
   <g id="line2d_13">
    <path clip-path="url(#p01f7138260)" d="M 321.736324 288.935194 
L 318.527597 285.063988 
L 315.500925 281.008197 
L 312.676538 276.788051 
L 310.069605 272.413664 
L 307.700356 267.902735 
L 305.589019 263.267907 
L 303.753293 258.52688 
L 302.20835 253.689769 
L 300.976948 248.774272 
L 300.074256 243.795562 
L 299.512919 238.76628 
L 299.270178 233.704128 
L 299.318221 228.629333 
L 299.621646 223.559595 
L 300.157698 218.510085 
L 300.893506 213.495975 
L 301.798726 208.517265 
L 303.424582 201.103563 
L 305.283064 193.748018 
L 307.98861 184.005524 
L 311.594319 171.886195 
L 316.689343 154.922169 
L 318.684367 147.609609 
L 320.444236 140.241421 
L 321.44807 135.293054 
L 322.292604 130.306758 
L 322.957612 125.282533 
L 323.422865 120.212795 
L 323.655492 115.102601 
L 323.589749 109.987349 
L 323.142196 104.912554 
L 322.7528 102.404234 
L 322.239505 99.921201 
L 321.592197 97.473566 
L 320.800761 95.06386 
L 319.857613 92.69714 
L 318.770338 90.383519 
L 317.541463 88.133111 
L 316.181105 85.950975 
L 314.696847 83.847223 
L 313.093748 81.831971 
L 311.379393 79.915332 
L 309.561367 78.102363 
L 307.644728 76.403179 
L 305.642118 74.825365 
L 303.553538 73.379036 
L 301.39163 72.056605 
L 299.161451 70.855545 
L 296.868058 69.765741 
L 294.524094 68.782136 
L 289.697097 67.115823 
L 284.743672 65.800979 
L 279.714391 64.792088 
L 274.652238 64.086623 
L 269.574915 63.719984 
L 264.505177 63.737684 
L 259.463253 64.175122 
L 256.95999 64.567047 
L 254.469371 65.075285 
L 251.99898 65.702365 
L 249.558931 66.445758 
L 247.149225 67.297879 
L 244.777448 68.258727 
L 242.453712 69.323245 
L 240.180548 70.488906 
L 237.96554 71.75318 
L 235.813746 73.113538 
L 233.732752 74.562396 
L 229.785689 77.715495 
L 226.071252 81.13662 
L 222.518643 84.744858 
L 208.538303 99.466062 
L 203.063997 104.715327 
L 197.415222 109.754722 
L 191.589448 114.574134 
L 181.649727 122.382289 
L 173.687331 128.739058 
L 169.816124 132.059041 
L 166.119388 135.540851 
L 162.672977 139.232531 
L 161.067349 141.171927 
L 159.552749 143.182122 
L 158.136763 145.268174 
L 156.819389 147.422497 
L 155.603158 149.64509 
L 154.48554 151.923311 
L 152.551201 156.641581 
L 151.006258 161.526735 
L 149.853241 166.53326 
L 149.087091 171.620698 
L 148.70528 176.738478 
L 148.702751 181.841087 
L 149.082034 186.883011 
L 149.833012 191.818736 
L 149.833012 191.818736 
" style="fill:none;stroke:#fea952;stroke-linecap:square;"/>
   </g>
   <g id="line2d_14">
    <path clip-path="url(#p01f7138260)" d="M 314.031936 295.488 
L 310.497331 291.213108 
L 307.168467 286.741171 
L 304.058223 282.081585 
L 301.180834 277.239283 
L 298.553859 272.219962 
L 296.211456 267.057126 
L 294.166216 261.749427 
L 292.437847 256.303984 
L 291.056457 250.744227 
L 290.041784 245.078667 
L 289.41874 239.402214 
L 289.156068 233.744463 
L 289.215592 228.145857 
L 289.553742 222.593076 
L 290.136868 217.139026 
L 290.927777 211.76939 
L 291.892781 206.475427 
L 293.595947 198.717187 
L 295.514593 191.126221 
L 298.276272 181.182876 
L 301.917603 168.943745 
L 307.617008 149.82763 
L 309.464036 142.809032 
L 311.037716 135.8362 
L 311.905805 131.207805 
L 312.609971 126.571271 
L 313.136553 121.941447 
L 313.463232 117.331855 
L 313.555874 112.841471 
L 313.363171 108.537057 
L 312.848029 104.451758 
L 311.98301 100.629574 
L 311.405133 98.808059 
L 310.703838 96.998914 
L 309.893422 95.230913 
L 308.958506 93.483784 
L 307.91676 91.781708 
L 306.781581 90.143683 
L 305.555195 88.574898 
L 304.237548 87.077098 
L 302.851786 85.670611 
L 299.883973 83.140449 
L 298.27582 82.007045 
L 296.595892 80.961534 
L 292.954423 79.092065 
L 289.018337 77.525982 
L 284.802352 76.235404 
L 280.390096 75.204309 
L 275.943662 74.437784 
L 271.560342 73.958103 
L 267.270882 73.791054 
L 263.070569 73.957171 
L 258.982227 74.477013 
L 254.946637 75.377497 
L 250.946859 76.672037 
L 247.068783 78.323133 
L 243.370226 80.302228 
L 239.881872 82.592662 
L 236.525927 85.256453 
L 233.207886 88.30358 
L 229.874027 91.687132 
L 215.613904 106.693283 
L 209.889687 112.179026 
L 203.94886 117.475372 
L 197.895361 122.481871 
L 187.889154 130.342591 
L 180.201625 136.476035 
L 176.654629 139.511 
L 173.386489 142.575486 
L 170.463688 145.682467 
L 167.921155 148.862495 
L 165.692026 152.277717 
L 163.760003 155.958305 
L 162.129233 159.890914 
L 160.816704 163.986817 
L 159.823569 168.233086 
L 159.156922 172.566923 
L 158.817685 176.928523 
L 158.801152 181.276142 
L 159.108921 185.556973 
L 159.800262 190.100954 
L 159.800262 190.100954 
" style="fill:none;stroke:#ffffff;stroke-linecap:square;"/>
   </g>
   <g id="line2d_15">
    <path clip-path="url(#p01f7138260)" d="M 329.440711 282.382388 
L 326.557863 278.914867 
L 323.833384 275.275224 
L 321.294853 271.494518 
L 318.958376 267.588044 
L 316.846853 263.585508 
L 314.966581 259.478688 
L 313.34037 255.304333 
L 311.978854 251.075553 
L 310.897438 246.804317 
L 310.106728 242.512456 
L 309.607097 238.130347 
L 309.384288 233.663793 
L 309.420849 229.112809 
L 309.68955 224.526114 
L 310.178529 219.881144 
L 310.859235 215.22256 
L 311.704671 210.559103 
L 313.253217 203.489939 
L 315.051536 196.369815 
L 317.700948 186.828172 
L 322.0012 172.42732 
L 326.424623 157.664644 
L 328.492391 150.079328 
L 330.34083 142.328114 
L 331.404257 137.073835 
L 332.305949 131.731462 
L 333.018575 126.318813 
L 333.519809 120.803201 
L 333.769603 115.142538 
L 333.680958 109.305917 
L 333.472446 106.345146 
L 333.13667 103.360992 
L 332.657572 100.35671 
L 332.017534 97.335276 
L 331.201383 94.317559 
L 330.19639 91.319662 
L 329.011388 88.395366 
L 327.647253 85.536125 
L 326.12442 82.782438 
L 324.44545 80.120241 
L 322.612114 77.550763 
L 320.632301 75.089043 
L 318.521238 72.753565 
L 316.270948 70.534115 
L 313.90412 68.458566 
L 311.400263 66.510281 
L 308.831256 64.751027 
L 306.187368 63.151677 
L 303.502451 61.720308 
L 300.781693 60.439418 
L 298.012725 59.288649 
L 295.240782 58.278421 
L 289.666231 56.600484 
L 284.08061 55.31543 
L 278.428024 54.362542 
L 272.666811 53.760005 
L 269.736237 53.60708 
L 266.80668 53.568 
L 263.848485 53.644834 
L 260.887746 53.846908 
L 257.898776 54.182662 
L 254.937754 54.657082 
L 251.980921 55.271997 
L 249.051323 56.027234 
L 246.186969 56.910208 
L 243.351592 57.923721 
L 240.565045 59.063483 
L 237.838642 60.323358 
L 235.166824 61.704862 
L 232.560854 63.204132 
L 230.034641 64.813009 
L 227.583631 66.53213 
L 225.251134 68.328986 
L 220.942296 72.060408 
L 217.001653 75.897234 
L 211.611748 81.600255 
L 204.866448 88.789688 
L 199.721573 93.944042 
L 194.46022 98.87861 
L 189.052082 103.583285 
L 183.355895 108.203771 
L 167.173036 121.002081 
L 162.977619 124.607082 
L 158.852286 128.506216 
L 154.882267 132.782594 
L 152.989429 135.085544 
L 151.184343 137.50175 
L 149.50801 139.991672 
L 147.946752 142.567277 
L 146.522745 145.190548 
L 145.211076 147.888318 
L 144.031354 150.622865 
L 142.973169 153.392249 
L 142.024949 156.214362 
L 141.195812 159.066654 
L 140.483519 161.938238 
L 139.882913 164.833433 
L 139.392123 167.757408 
L 138.748107 173.618786 
L 138.544662 179.475601 
L 138.604351 182.406033 
L 139.055146 188.209049 
L 139.865762 193.536518 
L 139.865762 193.536518 
" style="fill:none;stroke:#ffffff;stroke-linecap:square;"/>
   </g>
   <g id="patch_3">
    <path d="M 57.6 307.584 
L 57.6 41.472 
" style="fill:none;stroke:#000000;stroke-linecap:square;stroke-linejoin:miter;stroke-width:0.8;"/>
   </g>
   <g id="patch_4">
    <path d="M 414.72 307.584 
L 414.72 41.472 
" style="fill:none;stroke:#000000;stroke-linecap:square;stroke-linejoin:miter;stroke-width:0.8;"/>
   </g>
   <g id="patch_5">
    <path d="M 57.6 307.584 
L 414.72 307.584 
" style="fill:none;stroke:#000000;stroke-linecap:square;stroke-linejoin:miter;stroke-width:0.8;"/>
   </g>
   <g id="patch_6">
    <path d="M 57.6 41.472 
L 414.72 41.472 
" style="fill:none;stroke:#000000;stroke-linecap:square;stroke-linejoin:miter;stroke-width:0.8;"/>
   </g>
  </g>
 </g>
 <defs>
  <clipPath id="p01f7138260">
   <rect height="266.112" width="357.12" x="57.6" y="41.472"/>
  </clipPath>
 </defs>
</svg>
