<?xml version="1.0" encoding="utf-8" standalone="no"?>
<!DOCTYPE svg PUBLIC "-//W3C//DTD SVG 1.1//EN"
  "http://www.w3.org/Graphics/SVG/1.1/DTD/svg11.dtd">
<!-- Created with matplotlib (https://matplotlib.org/) -->
<svg height="345.6pt" version="1.1" viewBox="0 0 460.8 345.6" width="460.8pt" xmlns="http://www.w3.org/2000/svg" xmlns:xlink="http://www.w3.org/1999/xlink">
 <metadata>
  <rdf:RDF xmlns:cc="http://creativecommons.org/ns#" xmlns:dc="http://purl.org/dc/elements/1.1/" xmlns:rdf="http://www.w3.org/1999/02/22-rdf-syntax-ns#">
   <cc:Work>
    <dc:type rdf:resource="http://purl.org/dc/dcmitype/StillImage"/>
    <dc:date>2021-01-25T09:35:58.267787</dc:date>
    <dc:format>image/svg+xml</dc:format>
    <dc:creator>
     <cc:Agent>
      <dc:title>Matplotlib v3.3.3, https://matplotlib.org/</dc:title>
     </cc:Agent>
    </dc:creator>
   </cc:Work>
  </rdf:RDF>
 </metadata>
 <defs>
  <style type="text/css">*{stroke-linecap:butt;stroke-linejoin:round;}</style>
 </defs>
 <g id="figure_1">
  <g id="patch_1">
   <path d="M 0 345.6 
L 460.8 345.6 
L 460.8 0 
L 0 0 
z
" style="fill:#ffffff;"/>
  </g>
  <g id="axes_1">
   <g id="patch_2">
    <path d="M 57.6 307.584 
L 414.72 307.584 
L 414.72 41.472 
L 57.6 41.472 
z
" style="fill:#7d9051;"/>
   </g>
   <g id="matplotlib.axis_1">
    <g id="xtick_1">
     <g id="line2d_1">
      <defs>
       <path d="M 0 0 
L 0 3.5 
" id="m76b92d4d9e" style="stroke:#000000;stroke-width:0.8;"/>
      </defs>
      <g>
       <use style="stroke:#000000;stroke-width:0.8;" x="59.502018" xlink:href="#m76b92d4d9e" y="307.584"/>
      </g>
     </g>
     <g id="text_1">
      <!-- 0 -->
      <g transform="translate(56.320768 322.182437)scale(0.1 -0.1)">
       <defs>
        <path d="M 31.78125 66.40625 
Q 24.171875 66.40625 20.328125 58.90625 
Q 16.5 51.421875 16.5 36.375 
Q 16.5 21.390625 20.328125 13.890625 
Q 24.171875 6.390625 31.78125 6.390625 
Q 39.453125 6.390625 43.28125 13.890625 
Q 47.125 21.390625 47.125 36.375 
Q 47.125 51.421875 43.28125 58.90625 
Q 39.453125 66.40625 31.78125 66.40625 
z
M 31.78125 74.21875 
Q 44.046875 74.21875 50.515625 64.515625 
Q 56.984375 54.828125 56.984375 36.375 
Q 56.984375 17.96875 50.515625 8.265625 
Q 44.046875 -1.421875 31.78125 -1.421875 
Q 19.53125 -1.421875 13.0625 8.265625 
Q 6.59375 17.96875 6.59375 36.375 
Q 6.59375 54.828125 13.0625 64.515625 
Q 19.53125 74.21875 31.78125 74.21875 
z
" id="DejaVuSans-48"/>
       </defs>
       <use xlink:href="#DejaVuSans-48"/>
      </g>
     </g>
    </g>
    <g id="xtick_2">
     <g id="line2d_2">
      <g>
       <use style="stroke:#000000;stroke-width:0.8;" x="107.366762" xlink:href="#m76b92d4d9e" y="307.584"/>
      </g>
     </g>
     <g id="text_2">
      <!-- 20 -->
      <g transform="translate(101.004262 322.182437)scale(0.1 -0.1)">
       <defs>
        <path d="M 19.1875 8.296875 
L 53.609375 8.296875 
L 53.609375 0 
L 7.328125 0 
L 7.328125 8.296875 
Q 12.9375 14.109375 22.625 23.890625 
Q 32.328125 33.6875 34.8125 36.53125 
Q 39.546875 41.84375 41.421875 45.53125 
Q 43.3125 49.21875 43.3125 52.78125 
Q 43.3125 58.59375 39.234375 62.25 
Q 35.15625 65.921875 28.609375 65.921875 
Q 23.96875 65.921875 18.8125 64.3125 
Q 13.671875 62.703125 7.8125 59.421875 
L 7.8125 69.390625 
Q 13.765625 71.78125 18.9375 73 
Q 24.125 74.21875 28.421875 74.21875 
Q 39.75 74.21875 46.484375 68.546875 
Q 53.21875 62.890625 53.21875 53.421875 
Q 53.21875 48.921875 51.53125 44.890625 
Q 49.859375 40.875 45.40625 35.40625 
Q 44.1875 33.984375 37.640625 27.21875 
Q 31.109375 20.453125 19.1875 8.296875 
z
" id="DejaVuSans-50"/>
       </defs>
       <use xlink:href="#DejaVuSans-50"/>
       <use x="63.623047" xlink:href="#DejaVuSans-48"/>
      </g>
     </g>
    </g>
    <g id="xtick_3">
     <g id="line2d_3">
      <g>
       <use style="stroke:#000000;stroke-width:0.8;" x="155.231506" xlink:href="#m76b92d4d9e" y="307.584"/>
      </g>
     </g>
     <g id="text_3">
      <!-- 40 -->
      <g transform="translate(148.869006 322.182437)scale(0.1 -0.1)">
       <defs>
        <path d="M 37.796875 64.3125 
L 12.890625 25.390625 
L 37.796875 25.390625 
z
M 35.203125 72.90625 
L 47.609375 72.90625 
L 47.609375 25.390625 
L 58.015625 25.390625 
L 58.015625 17.1875 
L 47.609375 17.1875 
L 47.609375 0 
L 37.796875 0 
L 37.796875 17.1875 
L 4.890625 17.1875 
L 4.890625 26.703125 
z
" id="DejaVuSans-52"/>
       </defs>
       <use xlink:href="#DejaVuSans-52"/>
       <use x="63.623047" xlink:href="#DejaVuSans-48"/>
      </g>
     </g>
    </g>
    <g id="xtick_4">
     <g id="line2d_4">
      <g>
       <use style="stroke:#000000;stroke-width:0.8;" x="203.09625" xlink:href="#m76b92d4d9e" y="307.584"/>
      </g>
     </g>
     <g id="text_4">
      <!-- 60 -->
      <g transform="translate(196.73375 322.182437)scale(0.1 -0.1)">
       <defs>
        <path d="M 33.015625 40.375 
Q 26.375 40.375 22.484375 35.828125 
Q 18.609375 31.296875 18.609375 23.390625 
Q 18.609375 15.53125 22.484375 10.953125 
Q 26.375 6.390625 33.015625 6.390625 
Q 39.65625 6.390625 43.53125 10.953125 
Q 47.40625 15.53125 47.40625 23.390625 
Q 47.40625 31.296875 43.53125 35.828125 
Q 39.65625 40.375 33.015625 40.375 
z
M 52.59375 71.296875 
L 52.59375 62.3125 
Q 48.875 64.0625 45.09375 64.984375 
Q 41.3125 65.921875 37.59375 65.921875 
Q 27.828125 65.921875 22.671875 59.328125 
Q 17.53125 52.734375 16.796875 39.40625 
Q 19.671875 43.65625 24.015625 45.921875 
Q 28.375 48.1875 33.59375 48.1875 
Q 44.578125 48.1875 50.953125 41.515625 
Q 57.328125 34.859375 57.328125 23.390625 
Q 57.328125 12.15625 50.6875 5.359375 
Q 44.046875 -1.421875 33.015625 -1.421875 
Q 20.359375 -1.421875 13.671875 8.265625 
Q 6.984375 17.96875 6.984375 36.375 
Q 6.984375 53.65625 15.1875 63.9375 
Q 23.390625 74.21875 37.203125 74.21875 
Q 40.921875 74.21875 44.703125 73.484375 
Q 48.484375 72.75 52.59375 71.296875 
z
" id="DejaVuSans-54"/>
       </defs>
       <use xlink:href="#DejaVuSans-54"/>
       <use x="63.623047" xlink:href="#DejaVuSans-48"/>
      </g>
     </g>
    </g>
    <g id="xtick_5">
     <g id="line2d_5">
      <g>
       <use style="stroke:#000000;stroke-width:0.8;" x="250.960994" xlink:href="#m76b92d4d9e" y="307.584"/>
      </g>
     </g>
     <g id="text_5">
      <!-- 80 -->
      <g transform="translate(244.598494 322.182437)scale(0.1 -0.1)">
       <defs>
        <path d="M 31.78125 34.625 
Q 24.75 34.625 20.71875 30.859375 
Q 16.703125 27.09375 16.703125 20.515625 
Q 16.703125 13.921875 20.71875 10.15625 
Q 24.75 6.390625 31.78125 6.390625 
Q 38.8125 6.390625 42.859375 10.171875 
Q 46.921875 13.96875 46.921875 20.515625 
Q 46.921875 27.09375 42.890625 30.859375 
Q 38.875 34.625 31.78125 34.625 
z
M 21.921875 38.8125 
Q 15.578125 40.375 12.03125 44.71875 
Q 8.5 49.078125 8.5 55.328125 
Q 8.5 64.0625 14.71875 69.140625 
Q 20.953125 74.21875 31.78125 74.21875 
Q 42.671875 74.21875 48.875 69.140625 
Q 55.078125 64.0625 55.078125 55.328125 
Q 55.078125 49.078125 51.53125 44.71875 
Q 48 40.375 41.703125 38.8125 
Q 48.828125 37.15625 52.796875 32.3125 
Q 56.78125 27.484375 56.78125 20.515625 
Q 56.78125 9.90625 50.3125 4.234375 
Q 43.84375 -1.421875 31.78125 -1.421875 
Q 19.734375 -1.421875 13.25 4.234375 
Q 6.78125 9.90625 6.78125 20.515625 
Q 6.78125 27.484375 10.78125 32.3125 
Q 14.796875 37.15625 21.921875 38.8125 
z
M 18.3125 54.390625 
Q 18.3125 48.734375 21.84375 45.5625 
Q 25.390625 42.390625 31.78125 42.390625 
Q 38.140625 42.390625 41.71875 45.5625 
Q 45.3125 48.734375 45.3125 54.390625 
Q 45.3125 60.0625 41.71875 63.234375 
Q 38.140625 66.40625 31.78125 66.40625 
Q 25.390625 66.40625 21.84375 63.234375 
Q 18.3125 60.0625 18.3125 54.390625 
z
" id="DejaVuSans-56"/>
       </defs>
       <use xlink:href="#DejaVuSans-56"/>
       <use x="63.623047" xlink:href="#DejaVuSans-48"/>
      </g>
     </g>
    </g>
    <g id="xtick_6">
     <g id="line2d_6">
      <g>
       <use style="stroke:#000000;stroke-width:0.8;" x="298.825738" xlink:href="#m76b92d4d9e" y="307.584"/>
      </g>
     </g>
     <g id="text_6">
      <!-- 100 -->
      <g transform="translate(289.281988 322.182437)scale(0.1 -0.1)">
       <defs>
        <path d="M 12.40625 8.296875 
L 28.515625 8.296875 
L 28.515625 63.921875 
L 10.984375 60.40625 
L 10.984375 69.390625 
L 28.421875 72.90625 
L 38.28125 72.90625 
L 38.28125 8.296875 
L 54.390625 8.296875 
L 54.390625 0 
L 12.40625 0 
z
" id="DejaVuSans-49"/>
       </defs>
       <use xlink:href="#DejaVuSans-49"/>
       <use x="63.623047" xlink:href="#DejaVuSans-48"/>
       <use x="127.246094" xlink:href="#DejaVuSans-48"/>
      </g>
     </g>
    </g>
    <g id="xtick_7">
     <g id="line2d_7">
      <g>
       <use style="stroke:#000000;stroke-width:0.8;" x="346.690482" xlink:href="#m76b92d4d9e" y="307.584"/>
      </g>
     </g>
     <g id="text_7">
      <!-- 120 -->
      <g transform="translate(337.146732 322.182437)scale(0.1 -0.1)">
       <use xlink:href="#DejaVuSans-49"/>
       <use x="63.623047" xlink:href="#DejaVuSans-50"/>
       <use x="127.246094" xlink:href="#DejaVuSans-48"/>
      </g>
     </g>
    </g>
    <g id="xtick_8">
     <g id="line2d_8">
      <g>
       <use style="stroke:#000000;stroke-width:0.8;" x="394.555226" xlink:href="#m76b92d4d9e" y="307.584"/>
      </g>
     </g>
     <g id="text_8">
      <!-- 140 -->
      <g transform="translate(385.011476 322.182437)scale(0.1 -0.1)">
       <use xlink:href="#DejaVuSans-49"/>
       <use x="63.623047" xlink:href="#DejaVuSans-52"/>
       <use x="127.246094" xlink:href="#DejaVuSans-48"/>
      </g>
     </g>
    </g>
   </g>
   <g id="matplotlib.axis_2">
    <g id="ytick_1">
     <g id="line2d_9">
      <defs>
       <path d="M 0 0 
L -3.5 0 
" id="m79574d2deb" style="stroke:#000000;stroke-width:0.8;"/>
      </defs>
      <g>
       <use style="stroke:#000000;stroke-width:0.8;" x="57.6" xlink:href="#m79574d2deb" y="292.795524"/>
      </g>
     </g>
     <g id="text_9">
      <!-- −20 -->
      <g transform="translate(29.495313 296.594743)scale(0.1 -0.1)">
       <defs>
        <path d="M 10.59375 35.5 
L 73.1875 35.5 
L 73.1875 27.203125 
L 10.59375 27.203125 
z
" id="DejaVuSans-8722"/>
       </defs>
       <use xlink:href="#DejaVuSans-8722"/>
       <use x="83.789062" xlink:href="#DejaVuSans-50"/>
       <use x="147.412109" xlink:href="#DejaVuSans-48"/>
      </g>
     </g>
    </g>
    <g id="ytick_2">
     <g id="line2d_10">
      <g>
       <use style="stroke:#000000;stroke-width:0.8;" x="57.6" xlink:href="#m79574d2deb" y="244.93078"/>
      </g>
     </g>
     <g id="text_10">
      <!-- 0 -->
      <g transform="translate(44.2375 248.729999)scale(0.1 -0.1)">
       <use xlink:href="#DejaVuSans-48"/>
      </g>
     </g>
    </g>
    <g id="ytick_3">
     <g id="line2d_11">
      <g>
       <use style="stroke:#000000;stroke-width:0.8;" x="57.6" xlink:href="#m79574d2deb" y="197.066036"/>
      </g>
     </g>
     <g id="text_11">
      <!-- 20 -->
      <g transform="translate(37.875 200.865255)scale(0.1 -0.1)">
       <use xlink:href="#DejaVuSans-50"/>
       <use x="63.623047" xlink:href="#DejaVuSans-48"/>
      </g>
     </g>
    </g>
    <g id="ytick_4">
     <g id="line2d_12">
      <g>
       <use style="stroke:#000000;stroke-width:0.8;" x="57.6" xlink:href="#m79574d2deb" y="149.201292"/>
      </g>
     </g>
     <g id="text_12">
      <!-- 40 -->
      <g transform="translate(37.875 153.000511)scale(0.1 -0.1)">
       <use xlink:href="#DejaVuSans-52"/>
       <use x="63.623047" xlink:href="#DejaVuSans-48"/>
      </g>
     </g>
    </g>
    <g id="ytick_5">
     <g id="line2d_13">
      <g>
       <use style="stroke:#000000;stroke-width:0.8;" x="57.6" xlink:href="#m79574d2deb" y="101.336548"/>
      </g>
     </g>
     <g id="text_13">
      <!-- 60 -->
      <g transform="translate(37.875 105.135767)scale(0.1 -0.1)">
       <use xlink:href="#DejaVuSans-54"/>
       <use x="63.623047" xlink:href="#DejaVuSans-48"/>
      </g>
     </g>
    </g>
    <g id="ytick_6">
     <g id="line2d_14">
      <g>
       <use style="stroke:#000000;stroke-width:0.8;" x="57.6" xlink:href="#m79574d2deb" y="53.471804"/>
      </g>
     </g>
     <g id="text_14">
      <!-- 80 -->
      <g transform="translate(37.875 57.271023)scale(0.1 -0.1)">
       <use xlink:href="#DejaVuSans-56"/>
       <use x="63.623047" xlink:href="#DejaVuSans-48"/>
      </g>
     </g>
    </g>
   </g>
   <g id="line2d_15">
    <path clip-path="url(#pf14c52218a)" d="M 388.368708 220.998408 
L 388.804277 213.904853 
L 388.914366 209.084873 
L 388.852142 204.228995 
L 388.588886 199.36115 
L 388.098272 194.510059 
L 387.353975 189.702045 
L 386.332063 184.968222 
L 385.001423 180.334915 
L 383.338123 175.828449 
L 381.318231 171.475151 
L 378.951319 167.289379 
L 376.28286 163.266347 
L 373.353538 159.406055 
L 370.211217 155.703717 
L 366.891797 152.15694 
L 363.41203 148.789655 
L 359.752771 145.637762 
L 355.897265 142.741945 
L 351.833549 140.138103 
L 347.547261 137.866921 
L 343.059941 135.96669 
L 338.417061 134.478097 
L 336.054936 133.898933 
L 333.671272 133.439432 
L 331.275641 133.099592 
L 328.870438 132.886594 
L 326.462841 132.807617 
L 324.060031 132.857875 
L 321.662007 133.032581 
L 316.887499 133.712261 
L 312.156069 134.767678 
L 307.48447 136.119857 
L 302.887062 137.692214 
L 296.126166 140.308023 
L 282.75515 145.683233 
L 278.234325 147.293882 
L 271.348982 149.445402 
L 264.367909 151.331273 
L 257.322218 153.004146 
L 243.216478 156.211084 
L 238.578385 157.467533 
L 234.007302 158.925015 
L 229.510409 160.62182 
L 225.092493 162.52923 
L 220.743981 164.623313 
L 216.464873 166.868169 
L 210.168266 170.465205 
L 204.034399 174.303957 
L 200.049659 177.008315 
L 196.160649 179.837121 
L 192.379334 182.797556 
L 186.884461 187.450009 
L 170.519505 201.740028 
L 166.683146 204.69089 
L 162.710372 207.421573 
L 158.570072 209.872248 
L 154.235919 211.971117 
L 149.707915 213.675102 
L 147.386474 214.371534 
L 142.647865 215.443704 
L 137.823099 216.075519 
L 135.393963 216.221507 
L 132.957647 216.252619 
L 130.523725 216.164069 
L 128.096983 215.95825 
L 125.6846 215.63277 
L 123.288969 215.190021 
L 120.922058 214.627611 
L 118.586258 213.950324 
L 116.291144 213.153376 
L 114.041501 212.241553 
L 111.842116 211.210068 
L 109.702562 210.063707 
L 107.627625 208.800078 
L 105.619699 207.423967 
L 103.688356 205.944946 
L 101.833598 204.365409 
L 100.060209 202.692537 
L 98.372977 200.935901 
L 96.776687 199.095501 
L 95.276128 197.183305 
L 93.873691 195.201704 
L 92.574163 193.160273 
L 91.382331 191.061404 
L 90.293408 188.912277 
L 88.40993 184.477608 
L 86.890225 179.887379 
L 85.695999 175.182275 
L 84.796142 170.391014 
L 84.152361 165.549495 
L 83.728758 160.691224 
L 83.491828 155.852098 
L 83.408064 148.698712 
L 83.43439 146.362913 
L 83.43439 146.362913 
" style="fill:none;stroke:#fea952;stroke-linecap:square;"/>
   </g>
   <g id="line2d_16">
    <path clip-path="url(#pf14c52218a)" d="M 378.82299 220.276873 
L 379.236187 213.599894 
L 379.341459 209.113223 
L 379.28814 204.642777 
L 379.053349 200.206666 
L 378.617626 195.83622 
L 377.965837 191.574 
L 377.087723 187.454892 
L 375.959547 183.479087 
L 374.572624 179.676484 
L 372.89965 176.032435 
L 370.886746 172.447286 
L 368.569209 168.935644 
L 365.97316 165.502889 
L 363.147045 162.164276 
L 360.141635 158.944919 
L 357.052698 155.945089 
L 353.865693 153.186514 
L 350.567433 150.693941 
L 347.170869 148.49877 
L 343.623556 146.59881 
L 339.931433 145.013998 
L 336.137417 143.775654 
L 332.326732 142.917489 
L 328.556583 142.454396 
L 324.755618 142.405519 
L 320.826489 142.765526 
L 316.762003 143.503781 
L 312.599242 144.569991 
L 308.366004 145.908754 
L 304.08017 147.464476 
L 297.535297 150.072501 
L 286.041978 154.674235 
L 281.218618 156.389779 
L 273.953752 158.657162 
L 266.665113 160.624507 
L 259.399887 162.348911 
L 245.636779 165.473022 
L 241.3668 166.625376 
L 237.271127 167.924392 
L 233.206512 169.452458 
L 229.163598 171.193377 
L 225.123435 173.135758 
L 219.097743 176.353086 
L 213.185091 179.829371 
L 207.467973 183.519433 
L 201.995535 187.426288 
L 198.472958 190.180583 
L 193.211195 194.634282 
L 176.441815 209.261172 
L 172.227534 212.494806 
L 167.742914 215.564968 
L 162.938561 218.390326 
L 160.402329 219.679765 
L 157.809192 220.852169 
L 155.162203 221.906661 
L 152.458681 222.844324 
L 149.706037 223.659213 
L 146.933736 224.34184 
L 144.107037 224.904791 
L 141.268813 225.332448 
L 138.397383 225.631227 
L 135.516201 225.793675 
L 132.609599 225.819238 
L 129.714723 225.702772 
L 126.816992 225.44524 
L 123.944836 225.046301 
L 121.075922 224.503655 
L 118.256105 223.82185 
L 115.446102 222.993596 
L 112.695195 222.02527 
L 109.976725 220.908672 
L 107.32104 219.64815 
L 104.723341 218.239813 
L 102.215863 216.696544 
L 99.799368 215.024302 
L 97.48163 213.233148 
L 95.264726 211.328977 
L 93.156097 209.32387 
L 91.141287 207.208381 
L 89.245706 205.005295 
L 87.462142 202.713492 
L 85.798142 200.342411 
L 84.249695 197.887279 
L 82.842969 195.388141 
L 81.563274 192.839886 
L 80.416741 190.270589 
L 79.382732 187.663678 
L 77.652848 182.399795 
L 76.313315 177.081375 
L 75.323003 171.769778 
L 74.624626 166.478802 
L 74.171462 161.238433 
L 73.921845 156.090395 
L 73.835724 148.590827 
L 73.862049 146.255028 
L 73.862049 146.255028 
" style="fill:none;stroke:#ffffff;stroke-linecap:square;"/>
   </g>
   <g id="line2d_17">
    <path clip-path="url(#pf14c52218a)" d="M 397.914426 221.719943 
L 398.372367 214.209812 
L 398.487273 209.056523 
L 398.416144 203.815213 
L 398.124422 198.515635 
L 397.578918 193.183897 
L 396.742113 187.83009 
L 395.576403 182.481551 
L 394.0433 177.190743 
L 392.103622 171.980414 
L 390.971911 169.422985 
L 389.736812 166.917867 
L 387.015893 162.131471 
L 383.996511 157.59705 
L 380.733915 153.309222 
L 377.27539 149.243159 
L 373.64196 145.368961 
L 369.771363 141.634221 
L 365.639848 138.089009 
L 361.227098 134.789949 
L 358.891693 133.234434 
L 356.496229 131.777435 
L 354.017929 130.405382 
L 351.470965 129.135031 
L 348.867062 127.974863 
L 346.18845 126.919382 
L 343.470658 125.989986 
L 340.696705 125.180539 
L 337.866963 124.499045 
L 335.015811 123.961375 
L 332.12009 123.563961 
L 329.184292 123.318792 
L 326.262654 123.236762 
L 323.364444 123.310231 
L 320.520311 123.527957 
L 317.715838 123.874014 
L 312.269599 124.892395 
L 307.026938 126.252927 
L 301.983989 127.857846 
L 297.156375 129.614365 
L 290.260828 132.362405 
L 279.468323 136.692231 
L 275.250032 138.197985 
L 268.744212 140.233642 
L 262.070705 142.038039 
L 255.24455 143.65938 
L 240.796178 146.949146 
L 235.78997 148.30969 
L 230.743477 149.925637 
L 225.814306 151.791182 
L 221.021388 153.865083 
L 216.364527 156.110867 
L 211.823882 158.495442 
L 205.2068 162.278312 
L 198.72209 166.340244 
L 194.480994 169.221703 
L 190.325762 172.247955 
L 186.28571 175.414528 
L 180.557727 180.265736 
L 164.597196 194.218885 
L 161.138758 196.886973 
L 157.677831 199.278179 
L 154.201583 201.35417 
L 150.662647 203.090066 
L 146.957148 204.50588 
L 143.124536 205.578701 
L 139.21651 206.296864 
L 135.271725 206.649338 
L 131.332728 206.625365 
L 127.424363 206.219239 
L 123.58801 205.433371 
L 119.887092 204.281482 
L 116.363191 202.771986 
L 113.039387 200.903612 
L 109.895083 198.656744 
L 106.964321 196.061203 
L 104.307669 193.185707 
L 101.949239 190.060998 
L 99.921692 186.734667 
L 98.193261 183.159981 
L 96.750705 179.368681 
L 95.570982 175.349481 
L 94.644911 171.159135 
L 93.948606 166.829204 
L 93.460238 162.386867 
L 93.155006 157.878205 
L 92.978615 151.07292 
L 93.006731 146.470798 
L 93.006731 146.470798 
" style="fill:none;stroke:#ffffff;stroke-linecap:square;"/>
   </g>
   <g id="patch_3">
    <path d="M 57.6 307.584 
L 57.6 41.472 
" style="fill:none;stroke:#000000;stroke-linecap:square;stroke-linejoin:miter;stroke-width:0.8;"/>
   </g>
   <g id="patch_4">
    <path d="M 414.72 307.584 
L 414.72 41.472 
" style="fill:none;stroke:#000000;stroke-linecap:square;stroke-linejoin:miter;stroke-width:0.8;"/>
   </g>
   <g id="patch_5">
    <path d="M 57.6 307.584 
L 414.72 307.584 
" style="fill:none;stroke:#000000;stroke-linecap:square;stroke-linejoin:miter;stroke-width:0.8;"/>
   </g>
   <g id="patch_6">
    <path d="M 57.6 41.472 
L 414.72 41.472 
" style="fill:none;stroke:#000000;stroke-linecap:square;stroke-linejoin:miter;stroke-width:0.8;"/>
   </g>
  </g>
 </g>
 <defs>
  <clipPath id="pf14c52218a">
   <rect height="266.112" width="357.12" x="57.6" y="41.472"/>
  </clipPath>
 </defs>
</svg>
