<?xml version="1.0" encoding="utf-8" standalone="no"?>
<!DOCTYPE svg PUBLIC "-//W3C//DTD SVG 1.1//EN"
  "http://www.w3.org/Graphics/SVG/1.1/DTD/svg11.dtd">
<!-- Created with matplotlib (https://matplotlib.org/) -->
<svg height="345.6pt" version="1.1" viewBox="0 0 460.8 345.6" width="460.8pt" xmlns="http://www.w3.org/2000/svg" xmlns:xlink="http://www.w3.org/1999/xlink">
 <metadata>
  <rdf:RDF xmlns:cc="http://creativecommons.org/ns#" xmlns:dc="http://purl.org/dc/elements/1.1/" xmlns:rdf="http://www.w3.org/1999/02/22-rdf-syntax-ns#">
   <cc:Work>
    <dc:type rdf:resource="http://purl.org/dc/dcmitype/StillImage"/>
    <dc:date>2021-01-25T12:19:49.880895</dc:date>
    <dc:format>image/svg+xml</dc:format>
    <dc:creator>
     <cc:Agent>
      <dc:title>Matplotlib v3.3.3, https://matplotlib.org/</dc:title>
     </cc:Agent>
    </dc:creator>
   </cc:Work>
  </rdf:RDF>
 </metadata>
 <defs>
  <style type="text/css">*{stroke-linecap:butt;stroke-linejoin:round;}</style>
 </defs>
 <g id="figure_1">
  <g id="patch_1">
   <path d="M 0 345.6 
L 460.8 345.6 
L 460.8 0 
L 0 0 
z
" style="fill:#ffffff;"/>
  </g>
  <g id="axes_1">
   <g id="patch_2">
    <path d="M 57.6 307.584 
L 414.72 307.584 
L 414.72 41.472 
L 57.6 41.472 
z
" style="fill:#7d9051;"/>
   </g>
   <g id="matplotlib.axis_1">
    <g id="xtick_1">
     <g id="line2d_1">
      <defs>
       <path d="M 0 0 
L 0 3.5 
" id="mb52d88638a" style="stroke:#000000;stroke-width:0.8;"/>
      </defs>
      <g>
       <use style="stroke:#000000;stroke-width:0.8;" x="82.942737" xlink:href="#mb52d88638a" y="307.584"/>
      </g>
     </g>
     <g id="text_1">
      <!-- 10 -->
      <g transform="translate(76.580237 322.182437)scale(0.1 -0.1)">
       <defs>
        <path d="M 12.40625 8.296875 
L 28.515625 8.296875 
L 28.515625 63.921875 
L 10.984375 60.40625 
L 10.984375 69.390625 
L 28.421875 72.90625 
L 38.28125 72.90625 
L 38.28125 8.296875 
L 54.390625 8.296875 
L 54.390625 0 
L 12.40625 0 
z
" id="DejaVuSans-49"/>
        <path d="M 31.78125 66.40625 
Q 24.171875 66.40625 20.328125 58.90625 
Q 16.5 51.421875 16.5 36.375 
Q 16.5 21.390625 20.328125 13.890625 
Q 24.171875 6.390625 31.78125 6.390625 
Q 39.453125 6.390625 43.28125 13.890625 
Q 47.125 21.390625 47.125 36.375 
Q 47.125 51.421875 43.28125 58.90625 
Q 39.453125 66.40625 31.78125 66.40625 
z
M 31.78125 74.21875 
Q 44.046875 74.21875 50.515625 64.515625 
Q 56.984375 54.828125 56.984375 36.375 
Q 56.984375 17.96875 50.515625 8.265625 
Q 44.046875 -1.421875 31.78125 -1.421875 
Q 19.53125 -1.421875 13.0625 8.265625 
Q 6.59375 17.96875 6.59375 36.375 
Q 6.59375 54.828125 13.0625 64.515625 
Q 19.53125 74.21875 31.78125 74.21875 
z
" id="DejaVuSans-48"/>
       </defs>
       <use xlink:href="#DejaVuSans-49"/>
       <use x="63.623047" xlink:href="#DejaVuSans-48"/>
      </g>
     </g>
    </g>
    <g id="xtick_2">
     <g id="line2d_2">
      <g>
       <use style="stroke:#000000;stroke-width:0.8;" x="124.229034" xlink:href="#mb52d88638a" y="307.584"/>
      </g>
     </g>
     <g id="text_2">
      <!-- 20 -->
      <g transform="translate(117.866534 322.182437)scale(0.1 -0.1)">
       <defs>
        <path d="M 19.1875 8.296875 
L 53.609375 8.296875 
L 53.609375 0 
L 7.328125 0 
L 7.328125 8.296875 
Q 12.9375 14.109375 22.625 23.890625 
Q 32.328125 33.6875 34.8125 36.53125 
Q 39.546875 41.84375 41.421875 45.53125 
Q 43.3125 49.21875 43.3125 52.78125 
Q 43.3125 58.59375 39.234375 62.25 
Q 35.15625 65.921875 28.609375 65.921875 
Q 23.96875 65.921875 18.8125 64.3125 
Q 13.671875 62.703125 7.8125 59.421875 
L 7.8125 69.390625 
Q 13.765625 71.78125 18.9375 73 
Q 24.125 74.21875 28.421875 74.21875 
Q 39.75 74.21875 46.484375 68.546875 
Q 53.21875 62.890625 53.21875 53.421875 
Q 53.21875 48.921875 51.53125 44.890625 
Q 49.859375 40.875 45.40625 35.40625 
Q 44.1875 33.984375 37.640625 27.21875 
Q 31.109375 20.453125 19.1875 8.296875 
z
" id="DejaVuSans-50"/>
       </defs>
       <use xlink:href="#DejaVuSans-50"/>
       <use x="63.623047" xlink:href="#DejaVuSans-48"/>
      </g>
     </g>
    </g>
    <g id="xtick_3">
     <g id="line2d_3">
      <g>
       <use style="stroke:#000000;stroke-width:0.8;" x="165.515332" xlink:href="#mb52d88638a" y="307.584"/>
      </g>
     </g>
     <g id="text_3">
      <!-- 30 -->
      <g transform="translate(159.152832 322.182437)scale(0.1 -0.1)">
       <defs>
        <path d="M 40.578125 39.3125 
Q 47.65625 37.796875 51.625 33 
Q 55.609375 28.21875 55.609375 21.1875 
Q 55.609375 10.40625 48.1875 4.484375 
Q 40.765625 -1.421875 27.09375 -1.421875 
Q 22.515625 -1.421875 17.65625 -0.515625 
Q 12.796875 0.390625 7.625 2.203125 
L 7.625 11.71875 
Q 11.71875 9.328125 16.59375 8.109375 
Q 21.484375 6.890625 26.8125 6.890625 
Q 36.078125 6.890625 40.9375 10.546875 
Q 45.796875 14.203125 45.796875 21.1875 
Q 45.796875 27.640625 41.28125 31.265625 
Q 36.765625 34.90625 28.71875 34.90625 
L 20.21875 34.90625 
L 20.21875 43.015625 
L 29.109375 43.015625 
Q 36.375 43.015625 40.234375 45.921875 
Q 44.09375 48.828125 44.09375 54.296875 
Q 44.09375 59.90625 40.109375 62.90625 
Q 36.140625 65.921875 28.71875 65.921875 
Q 24.65625 65.921875 20.015625 65.03125 
Q 15.375 64.15625 9.8125 62.3125 
L 9.8125 71.09375 
Q 15.4375 72.65625 20.34375 73.4375 
Q 25.25 74.21875 29.59375 74.21875 
Q 40.828125 74.21875 47.359375 69.109375 
Q 53.90625 64.015625 53.90625 55.328125 
Q 53.90625 49.265625 50.4375 45.09375 
Q 46.96875 40.921875 40.578125 39.3125 
z
" id="DejaVuSans-51"/>
       </defs>
       <use xlink:href="#DejaVuSans-51"/>
       <use x="63.623047" xlink:href="#DejaVuSans-48"/>
      </g>
     </g>
    </g>
    <g id="xtick_4">
     <g id="line2d_4">
      <g>
       <use style="stroke:#000000;stroke-width:0.8;" x="206.801629" xlink:href="#mb52d88638a" y="307.584"/>
      </g>
     </g>
     <g id="text_4">
      <!-- 40 -->
      <g transform="translate(200.439129 322.182437)scale(0.1 -0.1)">
       <defs>
        <path d="M 37.796875 64.3125 
L 12.890625 25.390625 
L 37.796875 25.390625 
z
M 35.203125 72.90625 
L 47.609375 72.90625 
L 47.609375 25.390625 
L 58.015625 25.390625 
L 58.015625 17.1875 
L 47.609375 17.1875 
L 47.609375 0 
L 37.796875 0 
L 37.796875 17.1875 
L 4.890625 17.1875 
L 4.890625 26.703125 
z
" id="DejaVuSans-52"/>
       </defs>
       <use xlink:href="#DejaVuSans-52"/>
       <use x="63.623047" xlink:href="#DejaVuSans-48"/>
      </g>
     </g>
    </g>
    <g id="xtick_5">
     <g id="line2d_5">
      <g>
       <use style="stroke:#000000;stroke-width:0.8;" x="248.087927" xlink:href="#mb52d88638a" y="307.584"/>
      </g>
     </g>
     <g id="text_5">
      <!-- 50 -->
      <g transform="translate(241.725427 322.182437)scale(0.1 -0.1)">
       <defs>
        <path d="M 10.796875 72.90625 
L 49.515625 72.90625 
L 49.515625 64.59375 
L 19.828125 64.59375 
L 19.828125 46.734375 
Q 21.96875 47.46875 24.109375 47.828125 
Q 26.265625 48.1875 28.421875 48.1875 
Q 40.625 48.1875 47.75 41.5 
Q 54.890625 34.8125 54.890625 23.390625 
Q 54.890625 11.625 47.5625 5.09375 
Q 40.234375 -1.421875 26.90625 -1.421875 
Q 22.3125 -1.421875 17.546875 -0.640625 
Q 12.796875 0.140625 7.71875 1.703125 
L 7.71875 11.625 
Q 12.109375 9.234375 16.796875 8.0625 
Q 21.484375 6.890625 26.703125 6.890625 
Q 35.15625 6.890625 40.078125 11.328125 
Q 45.015625 15.765625 45.015625 23.390625 
Q 45.015625 31 40.078125 35.4375 
Q 35.15625 39.890625 26.703125 39.890625 
Q 22.75 39.890625 18.8125 39.015625 
Q 14.890625 38.140625 10.796875 36.28125 
z
" id="DejaVuSans-53"/>
       </defs>
       <use xlink:href="#DejaVuSans-53"/>
       <use x="63.623047" xlink:href="#DejaVuSans-48"/>
      </g>
     </g>
    </g>
    <g id="xtick_6">
     <g id="line2d_6">
      <g>
       <use style="stroke:#000000;stroke-width:0.8;" x="289.374224" xlink:href="#mb52d88638a" y="307.584"/>
      </g>
     </g>
     <g id="text_6">
      <!-- 60 -->
      <g transform="translate(283.011724 322.182437)scale(0.1 -0.1)">
       <defs>
        <path d="M 33.015625 40.375 
Q 26.375 40.375 22.484375 35.828125 
Q 18.609375 31.296875 18.609375 23.390625 
Q 18.609375 15.53125 22.484375 10.953125 
Q 26.375 6.390625 33.015625 6.390625 
Q 39.65625 6.390625 43.53125 10.953125 
Q 47.40625 15.53125 47.40625 23.390625 
Q 47.40625 31.296875 43.53125 35.828125 
Q 39.65625 40.375 33.015625 40.375 
z
M 52.59375 71.296875 
L 52.59375 62.3125 
Q 48.875 64.0625 45.09375 64.984375 
Q 41.3125 65.921875 37.59375 65.921875 
Q 27.828125 65.921875 22.671875 59.328125 
Q 17.53125 52.734375 16.796875 39.40625 
Q 19.671875 43.65625 24.015625 45.921875 
Q 28.375 48.1875 33.59375 48.1875 
Q 44.578125 48.1875 50.953125 41.515625 
Q 57.328125 34.859375 57.328125 23.390625 
Q 57.328125 12.15625 50.6875 5.359375 
Q 44.046875 -1.421875 33.015625 -1.421875 
Q 20.359375 -1.421875 13.671875 8.265625 
Q 6.984375 17.96875 6.984375 36.375 
Q 6.984375 53.65625 15.1875 63.9375 
Q 23.390625 74.21875 37.203125 74.21875 
Q 40.921875 74.21875 44.703125 73.484375 
Q 48.484375 72.75 52.59375 71.296875 
z
" id="DejaVuSans-54"/>
       </defs>
       <use xlink:href="#DejaVuSans-54"/>
       <use x="63.623047" xlink:href="#DejaVuSans-48"/>
      </g>
     </g>
    </g>
    <g id="xtick_7">
     <g id="line2d_7">
      <g>
       <use style="stroke:#000000;stroke-width:0.8;" x="330.660521" xlink:href="#mb52d88638a" y="307.584"/>
      </g>
     </g>
     <g id="text_7">
      <!-- 70 -->
      <g transform="translate(324.298021 322.182437)scale(0.1 -0.1)">
       <defs>
        <path d="M 8.203125 72.90625 
L 55.078125 72.90625 
L 55.078125 68.703125 
L 28.609375 0 
L 18.3125 0 
L 43.21875 64.59375 
L 8.203125 64.59375 
z
" id="DejaVuSans-55"/>
       </defs>
       <use xlink:href="#DejaVuSans-55"/>
       <use x="63.623047" xlink:href="#DejaVuSans-48"/>
      </g>
     </g>
    </g>
    <g id="xtick_8">
     <g id="line2d_8">
      <g>
       <use style="stroke:#000000;stroke-width:0.8;" x="371.946819" xlink:href="#mb52d88638a" y="307.584"/>
      </g>
     </g>
     <g id="text_8">
      <!-- 80 -->
      <g transform="translate(365.584319 322.182437)scale(0.1 -0.1)">
       <defs>
        <path d="M 31.78125 34.625 
Q 24.75 34.625 20.71875 30.859375 
Q 16.703125 27.09375 16.703125 20.515625 
Q 16.703125 13.921875 20.71875 10.15625 
Q 24.75 6.390625 31.78125 6.390625 
Q 38.8125 6.390625 42.859375 10.171875 
Q 46.921875 13.96875 46.921875 20.515625 
Q 46.921875 27.09375 42.890625 30.859375 
Q 38.875 34.625 31.78125 34.625 
z
M 21.921875 38.8125 
Q 15.578125 40.375 12.03125 44.71875 
Q 8.5 49.078125 8.5 55.328125 
Q 8.5 64.0625 14.71875 69.140625 
Q 20.953125 74.21875 31.78125 74.21875 
Q 42.671875 74.21875 48.875 69.140625 
Q 55.078125 64.0625 55.078125 55.328125 
Q 55.078125 49.078125 51.53125 44.71875 
Q 48 40.375 41.703125 38.8125 
Q 48.828125 37.15625 52.796875 32.3125 
Q 56.78125 27.484375 56.78125 20.515625 
Q 56.78125 9.90625 50.3125 4.234375 
Q 43.84375 -1.421875 31.78125 -1.421875 
Q 19.734375 -1.421875 13.25 4.234375 
Q 6.78125 9.90625 6.78125 20.515625 
Q 6.78125 27.484375 10.78125 32.3125 
Q 14.796875 37.15625 21.921875 38.8125 
z
M 18.3125 54.390625 
Q 18.3125 48.734375 21.84375 45.5625 
Q 25.390625 42.390625 31.78125 42.390625 
Q 38.140625 42.390625 41.71875 45.5625 
Q 45.3125 48.734375 45.3125 54.390625 
Q 45.3125 60.0625 41.71875 63.234375 
Q 38.140625 66.40625 31.78125 66.40625 
Q 25.390625 66.40625 21.84375 63.234375 
Q 18.3125 60.0625 18.3125 54.390625 
z
" id="DejaVuSans-56"/>
       </defs>
       <use xlink:href="#DejaVuSans-56"/>
       <use x="63.623047" xlink:href="#DejaVuSans-48"/>
      </g>
     </g>
    </g>
    <g id="xtick_9">
     <g id="line2d_9">
      <g>
       <use style="stroke:#000000;stroke-width:0.8;" x="413.233116" xlink:href="#mb52d88638a" y="307.584"/>
      </g>
     </g>
     <g id="text_9">
      <!-- 90 -->
      <g transform="translate(406.870616 322.182437)scale(0.1 -0.1)">
       <defs>
        <path d="M 10.984375 1.515625 
L 10.984375 10.5 
Q 14.703125 8.734375 18.5 7.8125 
Q 22.3125 6.890625 25.984375 6.890625 
Q 35.75 6.890625 40.890625 13.453125 
Q 46.046875 20.015625 46.78125 33.40625 
Q 43.953125 29.203125 39.59375 26.953125 
Q 35.25 24.703125 29.984375 24.703125 
Q 19.046875 24.703125 12.671875 31.3125 
Q 6.296875 37.9375 6.296875 49.421875 
Q 6.296875 60.640625 12.9375 67.421875 
Q 19.578125 74.21875 30.609375 74.21875 
Q 43.265625 74.21875 49.921875 64.515625 
Q 56.59375 54.828125 56.59375 36.375 
Q 56.59375 19.140625 48.40625 8.859375 
Q 40.234375 -1.421875 26.421875 -1.421875 
Q 22.703125 -1.421875 18.890625 -0.6875 
Q 15.09375 0.046875 10.984375 1.515625 
z
M 30.609375 32.421875 
Q 37.25 32.421875 41.125 36.953125 
Q 45.015625 41.5 45.015625 49.421875 
Q 45.015625 57.28125 41.125 61.84375 
Q 37.25 66.40625 30.609375 66.40625 
Q 23.96875 66.40625 20.09375 61.84375 
Q 16.21875 57.28125 16.21875 49.421875 
Q 16.21875 41.5 20.09375 36.953125 
Q 23.96875 32.421875 30.609375 32.421875 
z
" id="DejaVuSans-57"/>
       </defs>
       <use xlink:href="#DejaVuSans-57"/>
       <use x="63.623047" xlink:href="#DejaVuSans-48"/>
      </g>
     </g>
    </g>
   </g>
   <g id="matplotlib.axis_2">
    <g id="ytick_1">
     <g id="line2d_10">
      <defs>
       <path d="M 0 0 
L -3.5 0 
" id="mbf95a71ad1" style="stroke:#000000;stroke-width:0.8;"/>
      </defs>
      <g>
       <use style="stroke:#000000;stroke-width:0.8;" x="57.6" xlink:href="#mbf95a71ad1" y="278.949872"/>
      </g>
     </g>
     <g id="text_10">
      <!-- 10 -->
      <g transform="translate(37.875 282.749091)scale(0.1 -0.1)">
       <use xlink:href="#DejaVuSans-49"/>
       <use x="63.623047" xlink:href="#DejaVuSans-48"/>
      </g>
     </g>
    </g>
    <g id="ytick_2">
     <g id="line2d_11">
      <g>
       <use style="stroke:#000000;stroke-width:0.8;" x="57.6" xlink:href="#mbf95a71ad1" y="237.663575"/>
      </g>
     </g>
     <g id="text_11">
      <!-- 20 -->
      <g transform="translate(37.875 241.462794)scale(0.1 -0.1)">
       <use xlink:href="#DejaVuSans-50"/>
       <use x="63.623047" xlink:href="#DejaVuSans-48"/>
      </g>
     </g>
    </g>
    <g id="ytick_3">
     <g id="line2d_12">
      <g>
       <use style="stroke:#000000;stroke-width:0.8;" x="57.6" xlink:href="#mbf95a71ad1" y="196.377278"/>
      </g>
     </g>
     <g id="text_12">
      <!-- 30 -->
      <g transform="translate(37.875 200.176496)scale(0.1 -0.1)">
       <use xlink:href="#DejaVuSans-51"/>
       <use x="63.623047" xlink:href="#DejaVuSans-48"/>
      </g>
     </g>
    </g>
    <g id="ytick_4">
     <g id="line2d_13">
      <g>
       <use style="stroke:#000000;stroke-width:0.8;" x="57.6" xlink:href="#mbf95a71ad1" y="155.09098"/>
      </g>
     </g>
     <g id="text_13">
      <!-- 40 -->
      <g transform="translate(37.875 158.890199)scale(0.1 -0.1)">
       <use xlink:href="#DejaVuSans-52"/>
       <use x="63.623047" xlink:href="#DejaVuSans-48"/>
      </g>
     </g>
    </g>
    <g id="ytick_5">
     <g id="line2d_14">
      <g>
       <use style="stroke:#000000;stroke-width:0.8;" x="57.6" xlink:href="#mbf95a71ad1" y="113.804683"/>
      </g>
     </g>
     <g id="text_14">
      <!-- 50 -->
      <g transform="translate(37.875 117.603902)scale(0.1 -0.1)">
       <use xlink:href="#DejaVuSans-53"/>
       <use x="63.623047" xlink:href="#DejaVuSans-48"/>
      </g>
     </g>
    </g>
    <g id="ytick_6">
     <g id="line2d_15">
      <g>
       <use style="stroke:#000000;stroke-width:0.8;" x="57.6" xlink:href="#mbf95a71ad1" y="72.518386"/>
      </g>
     </g>
     <g id="text_15">
      <!-- 60 -->
      <g transform="translate(37.875 76.317604)scale(0.1 -0.1)">
       <use xlink:href="#DejaVuSans-54"/>
       <use x="63.623047" xlink:href="#DejaVuSans-48"/>
      </g>
     </g>
    </g>
   </g>
   <g id="line2d_16">
    <path clip-path="url(#p2c88cb3a2a)" d="M 225.880027 220.042583 
L 227.036044 215.918082 
L 227.91957 211.756423 
L 228.538865 207.569993 
L 228.893927 203.371176 
L 228.993014 199.17236 
L 228.844383 194.981801 
L 228.448035 190.811885 
L 227.812226 186.670869 
L 226.941085 182.575269 
L 225.84287 178.53334 
L 224.521708 174.55747 
L 222.981729 170.660043 
L 221.227062 166.845189 
L 219.270091 163.133551 
L 217.106689 159.533386 
L 214.749241 156.052951 
L 212.197748 152.704632 
L 209.464595 149.500816 
L 206.545654 146.453887 
L 203.457439 143.572103 
L 200.19995 140.87198 
L 196.789702 138.357644 
L 193.234952 136.045611 
L 189.556343 133.952396 
L 185.762132 132.086255 
L 181.872963 130.459575 
L 177.892964 129.084742 
L 173.846907 127.97414 
L 169.73892 127.144286 
L 165.589647 126.599307 
L 161.407345 126.351589 
L 157.216786 126.392875 
L 153.026227 126.71078 
L 148.852182 127.297045 
L 144.715295 128.139285 
L 140.627952 129.225115 
L 136.606666 130.550405 
L 132.667954 132.094513 
L 128.832457 133.857438 
L 125.108433 135.822665 
L 121.508267 137.97781 
L 118.044347 140.322872 
L 114.712543 142.841336 
L 111.512855 145.533203 
L 108.45354 148.381957 
L 105.534599 151.383471 
L 102.756031 154.529487 
L 100.126094 157.807619 
L 97.640659 161.213738 
L 95.307983 164.743717 
L 93.132195 168.376911 
L 91.125681 172.113321 
L 89.304956 175.936432 
L 87.682404 179.842116 
L 86.274541 183.809729 
L 85.093753 187.839271 
L 84.152426 191.914229 
L 83.471202 196.030473 
L 83.058339 200.16736 
L 82.93448 204.32489 
L 83.095496 208.48242 
L 83.541388 212.631693 
L 84.255641 216.760323 
L 85.225869 220.847666 
L 86.443815 224.885466 
L 87.897093 228.857208 
L 89.577445 232.750506 
L 91.472486 236.552974 
L 93.56983 240.243969 
L 95.857091 243.815233 
L 98.33014 247.250253 
L 100.972463 250.549029 
L 103.78406 253.695044 
L 106.752545 256.680044 
L 109.865532 259.499898 
L 113.118892 262.146349 
L 116.504368 264.602884 
L 120.013704 266.869502 
L 123.634512 268.933817 
L 127.362664 270.787571 
L 131.189904 272.434895 
L 135.099717 273.871658 
L 139.079716 275.118504 
L 143.125773 276.171305 
L 147.225502 277.046574 
L 151.362389 277.748441 
L 155.528176 278.285163 
L 159.710478 278.660868 
L 163.905166 278.887943 
L 168.091597 278.974644 
L 172.265641 278.925101 
L 176.431429 278.74757 
L 180.58483 278.450308 
L 188.846218 277.517238 
L 197.053934 276.183691 
L 205.195592 274.507467 
L 213.271192 272.542239 
L 221.276605 270.337551 
L 229.232475 267.938817 
L 241.077513 264.078548 
L 276.468127 252.126165 
L 284.428126 249.715045 
L 296.483724 246.379112 
L 304.513909 244.137267 
L 312.449136 241.664217 
L 316.354819 240.281126 
L 320.206831 238.770048 
L 324.001042 237.102081 
L 327.716808 235.264841 
L 331.35826 233.25007 
L 334.91301 231.070153 
L 338.381059 228.72922 
L 341.750021 226.243785 
L 345.019896 223.617977 
L 348.186555 220.864181 
L 351.237612 217.990654 
L 354.173068 215.001526 
L 356.984665 211.913311 
L 359.668274 208.730138 
L 362.223896 205.460263 
L 364.663916 202.103687 
L 366.992463 198.672796 
L 369.209537 195.163461 
L 371.327524 191.588067 
L 375.274494 184.239106 
L 378.887045 176.658942 
L 382.177563 168.884732 
L 383.672127 164.933634 
L 385.034575 160.945377 
L 386.248392 156.924092 
L 387.292935 152.878035 
L 388.147562 148.803077 
L 388.795757 144.707477 
L 389.212748 140.595361 
L 389.377893 136.47086 
L 389.278806 132.338102 
L 388.915487 128.209472 
L 388.300321 124.093228 
L 387.437437 120.001756 
L 386.339222 115.947442 
L 385.013932 111.9468 
L 383.469824 108.003958 
L 381.715157 104.139561 
L 379.762315 100.357736 
L 377.619556 96.674998 
L 375.295137 93.103733 
L 372.797316 89.652199 
L 370.138479 86.332781 
L 367.326882 83.161993 
L 364.366654 80.148093 
L 361.274311 77.303467 
L 358.05398 74.64463 
L 354.718047 72.175709 
L 351.270641 69.91322 
L 347.728277 67.86542 
L 347.728277 67.86542 
" style="fill:none;stroke:#fea952;stroke-linecap:square;"/>
   </g>
   <g id="line2d_17">
    <path clip-path="url(#p2c88cb3a2a)" d="M 209.978297 215.585642 
L 210.881569 212.488462 
L 211.582832 209.339746 
L 212.083077 206.178451 
L 212.384005 202.981562 
L 212.488873 199.757729 
L 212.403962 196.544455 
L 212.1248 193.318144 
L 211.659066 190.106672 
L 211.00435 186.905372 
L 210.170946 183.74104 
L 209.16269 180.626234 
L 207.9782 177.561017 
L 206.618706 174.547481 
L 205.11474 171.639748 
L 203.433524 168.794806 
L 201.613813 166.062439 
L 199.633882 163.422776 
L 197.53929 160.925194 
L 195.278647 158.527987 
L 192.918424 156.286603 
L 190.399711 154.164258 
L 187.785526 152.201565 
L 185.067492 150.399076 
L 182.267735 148.77149 
L 179.389728 147.3218 
L 176.480901 146.069028 
L 173.521586 145.010205 
L 170.576863 144.161671 
L 167.58832 143.518175 
L 164.613203 143.084933 
L 161.570042 142.865306 
L 158.466022 142.860077 
L 155.323227 143.064774 
L 152.146831 143.479586 
L 148.955416 144.100197 
L 145.79713 144.909787 
L 142.634268 145.925624 
L 139.564931 147.09988 
L 136.540047 148.462998 
L 133.59074 149.992344 
L 130.76644 151.653174 
L 128.002617 153.497173 
L 125.344108 155.478549 
L 122.767058 157.619238 
L 120.292784 159.895499 
L 117.912595 162.315742 
L 115.637447 164.863821 
L 113.466581 167.542132 
L 111.418644 170.318488 
L 109.476164 173.228525 
L 107.681519 176.190139 
L 106.035691 179.214092 
L 104.555796 182.27214 
L 103.246145 185.364733 
L 102.122647 188.453743 
L 101.18453 191.55629 
L 100.445328 194.610647 
L 99.904087 197.670481 
L 99.565534 200.659133 
L 99.436627 203.68578 
L 99.515477 206.717885 
L 99.814188 209.816499 
L 100.323676 212.946193 
L 101.036773 216.078529 
L 101.952723 219.210689 
L 103.059648 222.31303 
L 104.358096 225.384253 
L 105.830829 228.394094 
L 107.476616 231.337194 
L 109.259496 234.166146 
L 111.219515 236.925848 
L 113.286102 239.544319 
L 115.493936 242.049953 
L 117.83958 244.440477 
L 120.286808 246.688718 
L 122.81772 248.779897 
L 125.464395 250.730348 
L 128.193102 252.522837 
L 130.987259 254.146442 
L 133.891743 255.618509 
L 136.886165 256.933864 
L 140.036753 258.112375 
L 143.238383 259.136176 
L 146.573826 260.020755 
L 149.987891 260.764727 
L 153.472684 261.369308 
L 157.005762 261.836878 
L 160.603166 262.170494 
L 164.24711 262.376965 
L 167.895593 262.461288 
L 171.562489 262.425558 
L 178.944822 262.017423 
L 186.386827 261.186876 
L 193.887764 259.975523 
L 201.422263 258.429802 
L 208.984335 256.593816 
L 216.583906 254.503792 
L 224.2225 252.202569 
L 235.776452 248.437957 
L 271.596459 236.346552 
L 279.91285 233.829781 
L 292.117716 230.452176 
L 299.776018 228.316972 
L 306.93642 226.096966 
L 310.323894 224.907211 
L 313.560758 223.651878 
L 316.681392 222.298296 
L 319.7217 220.814666 
L 322.724948 219.171886 
L 325.673585 217.382116 
L 328.576886 215.439844 
L 331.409707 213.367169 
L 334.183017 211.156379 
L 336.864027 208.84213 
L 339.454778 206.41939 
L 341.961442 203.883723 
L 344.358471 201.268661 
L 346.656423 198.560522 
L 348.865877 195.749822 
L 350.99937 192.829555 
L 353.030792 189.852305 
L 356.880446 183.587364 
L 360.445387 176.970893 
L 363.754181 170.046398 
L 366.731183 163.041901 
L 368.044339 159.594948 
L 369.224599 156.173167 
L 370.25814 152.795996 
L 371.130055 149.488251 
L 371.836066 146.22152 
L 372.365499 143.041356 
L 372.711451 139.934649 
L 372.868119 136.866699 
L 372.827863 133.785785 
L 372.582359 130.650431 
L 372.141254 127.501145 
L 371.497359 124.319537 
L 370.662494 121.140661 
L 369.636569 117.968929 
L 368.43281 114.831662 
L 367.041488 111.716684 
L 365.488144 108.662999 
L 363.778549 105.683653 
L 361.91645 102.785678 
L 359.907902 99.976556 
L 357.782067 97.289442 
L 355.544917 94.734142 
L 353.186095 92.302287 
L 350.759896 90.038318 
L 348.229584 87.919064 
L 345.656888 85.982401 
L 343.005466 84.21064 
L 339.463101 82.16284 
L 339.463101 82.16284 
" style="fill:none;stroke:#ffffff;stroke-linecap:square;"/>
   </g>
   <g id="line2d_18">
    <path clip-path="url(#p2c88cb3a2a)" d="M 241.781757 224.499525 
L 243.190518 219.347703 
L 244.256308 214.173101 
L 244.994652 208.961534 
L 245.403849 203.760791 
L 245.497155 198.586991 
L 245.284805 193.419147 
L 244.77127 188.305625 
L 243.965386 183.235066 
L 242.877821 178.245165 
L 241.514793 173.32564 
L 239.880726 168.488705 
L 237.985259 163.759069 
L 235.835417 159.142897 
L 233.425442 154.627354 
L 230.779854 150.271966 
L 227.88467 146.043463 
L 224.761614 141.986489 
L 221.389901 138.076437 
L 217.812662 134.379787 
L 213.996454 130.857604 
L 210.000189 127.579702 
L 205.793878 124.513723 
L 201.402411 121.692147 
L 196.84495 119.133302 
L 192.134536 116.850711 
L 187.265025 114.850123 
L 182.264341 113.159278 
L 177.116951 111.78661 
L 171.88952 110.770396 
L 166.566091 110.11368 
L 161.244649 109.837871 
L 155.96755 109.925673 
L 150.729227 110.356785 
L 145.557533 111.114504 
L 140.475174 112.178374 
L 135.458773 113.540443 
L 130.579065 115.175186 
L 125.770977 117.089146 
L 121.124866 119.251878 
L 116.626125 121.652987 
L 112.250095 124.302446 
L 108.086078 127.148571 
L 104.080978 130.204123 
L 100.258652 133.447167 
L 96.614297 136.868415 
L 93.156603 140.451199 
L 89.874616 144.195152 
L 86.785607 148.073106 
L 83.862674 152.108988 
L 81.139802 156.258908 
L 78.582872 160.563683 
L 76.215672 165.012549 
L 74.054115 169.600723 
L 72.118663 174.319498 
L 70.426435 179.165714 
L 69.002976 184.122253 
L 67.859523 189.217811 
L 67.038317 194.390464 
L 66.551143 199.675586 
L 66.432332 204.964 
L 66.675516 210.246955 
L 67.268589 215.446887 
L 68.187606 220.574452 
L 69.414966 225.616804 
L 70.934907 230.560243 
L 72.734538 235.401386 
L 74.796794 240.116759 
L 77.114143 244.711853 
L 79.663044 249.150743 
L 82.454686 253.464321 
L 85.440765 257.574659 
L 88.658824 261.553738 
L 92.074184 265.340135 
L 95.66551 268.919611 
L 99.444255 272.311077 
L 103.420063 275.512802 
L 107.544342 278.47542 
L 111.834305 281.216166 
L 116.281764 283.721191 
L 120.833586 285.956634 
L 125.493644 287.935925 
L 130.16268 289.630941 
L 134.921049 291.100833 
L 139.67772 292.321855 
L 144.463113 293.328421 
L 149.252094 294.127574 
L 154.050591 294.733448 
L 158.817791 295.151243 
L 163.563223 295.398922 
L 168.287601 295.488 
L 172.968793 295.424644 
L 177.610367 295.219954 
L 182.224839 294.883193 
L 186.788257 294.422156 
L 195.795564 293.166916 
L 204.626892 291.527565 
L 213.277886 289.571568 
L 221.762736 287.35917 
L 230.102424 284.945599 
L 238.306576 282.380746 
L 250.367318 278.367131 
L 277.552676 269.120383 
L 285.143167 266.730575 
L 292.803033 264.50248 
L 309.251801 259.957561 
L 317.961851 257.231468 
L 322.385744 255.655042 
L 326.852903 253.888218 
L 331.320691 251.905867 
L 335.711917 249.715017 
L 339.991571 247.328254 
L 344.152435 244.758191 
L 348.185232 242.018597 
L 352.090334 239.120402 
L 355.856774 236.079574 
L 359.509082 232.886232 
L 363.020446 229.561918 
L 366.384693 226.11933 
L 369.610858 222.557962 
L 372.680124 218.899753 
L 375.581914 215.170705 
L 378.328462 211.377819 
L 380.954134 207.493287 
L 383.41817 203.580353 
L 385.774603 199.588771 
L 387.994638 195.568703 
L 392.104997 187.414902 
L 395.857274 179.055651 
L 397.623943 174.727564 
L 399.299916 170.272319 
L 400.844551 165.717588 
L 402.238644 161.052188 
L 403.455816 156.267818 
L 404.459058 151.384635 
L 405.226015 146.373597 
L 405.714045 141.256074 
L 405.887668 136.075021 
L 405.72975 130.890419 
L 405.248614 125.768513 
L 404.459388 120.685312 
L 403.377516 115.683975 
L 402.01595 110.754222 
L 400.391295 105.92467 
L 398.506838 101.176254 
L 396.388825 96.562437 
L 394.036485 92.052473 
L 391.460563 87.666343 
L 388.673825 83.421789 
L 385.686731 79.327842 
L 382.49489 75.376119 
L 379.108847 71.589844 
L 375.547214 67.9939 
L 371.788726 64.568617 
L 367.878375 61.370196 
L 363.779205 58.369017 
L 359.535816 55.6158 
L 355.993452 53.568 
L 355.993452 53.568 
" style="fill:none;stroke:#ffffff;stroke-linecap:square;"/>
   </g>
   <g id="patch_3">
    <path d="M 57.6 307.584 
L 57.6 41.472 
" style="fill:none;stroke:#000000;stroke-linecap:square;stroke-linejoin:miter;stroke-width:0.8;"/>
   </g>
   <g id="patch_4">
    <path d="M 414.72 307.584 
L 414.72 41.472 
" style="fill:none;stroke:#000000;stroke-linecap:square;stroke-linejoin:miter;stroke-width:0.8;"/>
   </g>
   <g id="patch_5">
    <path d="M 57.6 307.584 
L 414.72 307.584 
" style="fill:none;stroke:#000000;stroke-linecap:square;stroke-linejoin:miter;stroke-width:0.8;"/>
   </g>
   <g id="patch_6">
    <path d="M 57.6 41.472 
L 414.72 41.472 
" style="fill:none;stroke:#000000;stroke-linecap:square;stroke-linejoin:miter;stroke-width:0.8;"/>
   </g>
  </g>
 </g>
 <defs>
  <clipPath id="p2c88cb3a2a">
   <rect height="266.112" width="357.12" x="57.6" y="41.472"/>
  </clipPath>
 </defs>
</svg>
