<?xml version="1.0" encoding="utf-8" standalone="no"?>
<!DOCTYPE svg PUBLIC "-//W3C//DTD SVG 1.1//EN"
  "http://www.w3.org/Graphics/SVG/1.1/DTD/svg11.dtd">
<!-- Created with matplotlib (https://matplotlib.org/) -->
<svg height="345.6pt" version="1.1" viewBox="0 0 460.8 345.6" width="460.8pt" xmlns="http://www.w3.org/2000/svg" xmlns:xlink="http://www.w3.org/1999/xlink">
 <metadata>
  <rdf:RDF xmlns:cc="http://creativecommons.org/ns#" xmlns:dc="http://purl.org/dc/elements/1.1/" xmlns:rdf="http://www.w3.org/1999/02/22-rdf-syntax-ns#">
   <cc:Work>
    <dc:type rdf:resource="http://purl.org/dc/dcmitype/StillImage"/>
    <dc:date>2021-01-22T11:48:11.463300</dc:date>
    <dc:format>image/svg+xml</dc:format>
    <dc:creator>
     <cc:Agent>
      <dc:title>Matplotlib v3.3.3, https://matplotlib.org/</dc:title>
     </cc:Agent>
    </dc:creator>
   </cc:Work>
  </rdf:RDF>
 </metadata>
 <defs>
  <style type="text/css">*{stroke-linecap:butt;stroke-linejoin:round;}</style>
 </defs>
 <g id="figure_1">
  <g id="patch_1">
   <path d="M 0 345.6 
L 460.8 345.6 
L 460.8 0 
L 0 0 
z
" style="fill:#ffffff;"/>
  </g>
  <g id="axes_1">
   <g id="patch_2">
    <path d="M 57.6 307.584 
L 414.72 307.584 
L 414.72 41.472 
L 57.6 41.472 
z
" style="fill:#7d9051;"/>
   </g>
   <g id="matplotlib.axis_1">
    <g id="xtick_1">
     <g id="line2d_1">
      <defs>
       <path d="M 0 0 
L 0 3.5 
" id="m7f69e30dc8" style="stroke:#000000;stroke-width:0.8;"/>
      </defs>
      <g>
       <use style="stroke:#000000;stroke-width:0.8;" x="118.417368" xlink:href="#m7f69e30dc8" y="307.584"/>
      </g>
     </g>
     <g id="text_1">
      <!-- 20 -->
      <g transform="translate(112.054868 322.182437)scale(0.1 -0.1)">
       <defs>
        <path d="M 19.1875 8.296875 
L 53.609375 8.296875 
L 53.609375 0 
L 7.328125 0 
L 7.328125 8.296875 
Q 12.9375 14.109375 22.625 23.890625 
Q 32.328125 33.6875 34.8125 36.53125 
Q 39.546875 41.84375 41.421875 45.53125 
Q 43.3125 49.21875 43.3125 52.78125 
Q 43.3125 58.59375 39.234375 62.25 
Q 35.15625 65.921875 28.609375 65.921875 
Q 23.96875 65.921875 18.8125 64.3125 
Q 13.671875 62.703125 7.8125 59.421875 
L 7.8125 69.390625 
Q 13.765625 71.78125 18.9375 73 
Q 24.125 74.21875 28.421875 74.21875 
Q 39.75 74.21875 46.484375 68.546875 
Q 53.21875 62.890625 53.21875 53.421875 
Q 53.21875 48.921875 51.53125 44.890625 
Q 49.859375 40.875 45.40625 35.40625 
Q 44.1875 33.984375 37.640625 27.21875 
Q 31.109375 20.453125 19.1875 8.296875 
z
" id="DejaVuSans-50"/>
        <path d="M 31.78125 66.40625 
Q 24.171875 66.40625 20.328125 58.90625 
Q 16.5 51.421875 16.5 36.375 
Q 16.5 21.390625 20.328125 13.890625 
Q 24.171875 6.390625 31.78125 6.390625 
Q 39.453125 6.390625 43.28125 13.890625 
Q 47.125 21.390625 47.125 36.375 
Q 47.125 51.421875 43.28125 58.90625 
Q 39.453125 66.40625 31.78125 66.40625 
z
M 31.78125 74.21875 
Q 44.046875 74.21875 50.515625 64.515625 
Q 56.984375 54.828125 56.984375 36.375 
Q 56.984375 17.96875 50.515625 8.265625 
Q 44.046875 -1.421875 31.78125 -1.421875 
Q 19.53125 -1.421875 13.0625 8.265625 
Q 6.59375 17.96875 6.59375 36.375 
Q 6.59375 54.828125 13.0625 64.515625 
Q 19.53125 74.21875 31.78125 74.21875 
z
" id="DejaVuSans-48"/>
       </defs>
       <use xlink:href="#DejaVuSans-50"/>
       <use x="63.623047" xlink:href="#DejaVuSans-48"/>
      </g>
     </g>
    </g>
    <g id="xtick_2">
     <g id="line2d_2">
      <g>
       <use style="stroke:#000000;stroke-width:0.8;" x="186.392399" xlink:href="#m7f69e30dc8" y="307.584"/>
      </g>
     </g>
     <g id="text_2">
      <!-- 40 -->
      <g transform="translate(180.029899 322.182437)scale(0.1 -0.1)">
       <defs>
        <path d="M 37.796875 64.3125 
L 12.890625 25.390625 
L 37.796875 25.390625 
z
M 35.203125 72.90625 
L 47.609375 72.90625 
L 47.609375 25.390625 
L 58.015625 25.390625 
L 58.015625 17.1875 
L 47.609375 17.1875 
L 47.609375 0 
L 37.796875 0 
L 37.796875 17.1875 
L 4.890625 17.1875 
L 4.890625 26.703125 
z
" id="DejaVuSans-52"/>
       </defs>
       <use xlink:href="#DejaVuSans-52"/>
       <use x="63.623047" xlink:href="#DejaVuSans-48"/>
      </g>
     </g>
    </g>
    <g id="xtick_3">
     <g id="line2d_3">
      <g>
       <use style="stroke:#000000;stroke-width:0.8;" x="254.36743" xlink:href="#m7f69e30dc8" y="307.584"/>
      </g>
     </g>
     <g id="text_3">
      <!-- 60 -->
      <g transform="translate(248.00493 322.182437)scale(0.1 -0.1)">
       <defs>
        <path d="M 33.015625 40.375 
Q 26.375 40.375 22.484375 35.828125 
Q 18.609375 31.296875 18.609375 23.390625 
Q 18.609375 15.53125 22.484375 10.953125 
Q 26.375 6.390625 33.015625 6.390625 
Q 39.65625 6.390625 43.53125 10.953125 
Q 47.40625 15.53125 47.40625 23.390625 
Q 47.40625 31.296875 43.53125 35.828125 
Q 39.65625 40.375 33.015625 40.375 
z
M 52.59375 71.296875 
L 52.59375 62.3125 
Q 48.875 64.0625 45.09375 64.984375 
Q 41.3125 65.921875 37.59375 65.921875 
Q 27.828125 65.921875 22.671875 59.328125 
Q 17.53125 52.734375 16.796875 39.40625 
Q 19.671875 43.65625 24.015625 45.921875 
Q 28.375 48.1875 33.59375 48.1875 
Q 44.578125 48.1875 50.953125 41.515625 
Q 57.328125 34.859375 57.328125 23.390625 
Q 57.328125 12.15625 50.6875 5.359375 
Q 44.046875 -1.421875 33.015625 -1.421875 
Q 20.359375 -1.421875 13.671875 8.265625 
Q 6.984375 17.96875 6.984375 36.375 
Q 6.984375 53.65625 15.1875 63.9375 
Q 23.390625 74.21875 37.203125 74.21875 
Q 40.921875 74.21875 44.703125 73.484375 
Q 48.484375 72.75 52.59375 71.296875 
z
" id="DejaVuSans-54"/>
       </defs>
       <use xlink:href="#DejaVuSans-54"/>
       <use x="63.623047" xlink:href="#DejaVuSans-48"/>
      </g>
     </g>
    </g>
    <g id="xtick_4">
     <g id="line2d_4">
      <g>
       <use style="stroke:#000000;stroke-width:0.8;" x="322.342462" xlink:href="#m7f69e30dc8" y="307.584"/>
      </g>
     </g>
     <g id="text_4">
      <!-- 80 -->
      <g transform="translate(315.979962 322.182437)scale(0.1 -0.1)">
       <defs>
        <path d="M 31.78125 34.625 
Q 24.75 34.625 20.71875 30.859375 
Q 16.703125 27.09375 16.703125 20.515625 
Q 16.703125 13.921875 20.71875 10.15625 
Q 24.75 6.390625 31.78125 6.390625 
Q 38.8125 6.390625 42.859375 10.171875 
Q 46.921875 13.96875 46.921875 20.515625 
Q 46.921875 27.09375 42.890625 30.859375 
Q 38.875 34.625 31.78125 34.625 
z
M 21.921875 38.8125 
Q 15.578125 40.375 12.03125 44.71875 
Q 8.5 49.078125 8.5 55.328125 
Q 8.5 64.0625 14.71875 69.140625 
Q 20.953125 74.21875 31.78125 74.21875 
Q 42.671875 74.21875 48.875 69.140625 
Q 55.078125 64.0625 55.078125 55.328125 
Q 55.078125 49.078125 51.53125 44.71875 
Q 48 40.375 41.703125 38.8125 
Q 48.828125 37.15625 52.796875 32.3125 
Q 56.78125 27.484375 56.78125 20.515625 
Q 56.78125 9.90625 50.3125 4.234375 
Q 43.84375 -1.421875 31.78125 -1.421875 
Q 19.734375 -1.421875 13.25 4.234375 
Q 6.78125 9.90625 6.78125 20.515625 
Q 6.78125 27.484375 10.78125 32.3125 
Q 14.796875 37.15625 21.921875 38.8125 
z
M 18.3125 54.390625 
Q 18.3125 48.734375 21.84375 45.5625 
Q 25.390625 42.390625 31.78125 42.390625 
Q 38.140625 42.390625 41.71875 45.5625 
Q 45.3125 48.734375 45.3125 54.390625 
Q 45.3125 60.0625 41.71875 63.234375 
Q 38.140625 66.40625 31.78125 66.40625 
Q 25.390625 66.40625 21.84375 63.234375 
Q 18.3125 60.0625 18.3125 54.390625 
z
" id="DejaVuSans-56"/>
       </defs>
       <use xlink:href="#DejaVuSans-56"/>
       <use x="63.623047" xlink:href="#DejaVuSans-48"/>
      </g>
     </g>
    </g>
    <g id="xtick_5">
     <g id="line2d_5">
      <g>
       <use style="stroke:#000000;stroke-width:0.8;" x="390.317493" xlink:href="#m7f69e30dc8" y="307.584"/>
      </g>
     </g>
     <g id="text_5">
      <!-- 100 -->
      <g transform="translate(380.773743 322.182437)scale(0.1 -0.1)">
       <defs>
        <path d="M 12.40625 8.296875 
L 28.515625 8.296875 
L 28.515625 63.921875 
L 10.984375 60.40625 
L 10.984375 69.390625 
L 28.421875 72.90625 
L 38.28125 72.90625 
L 38.28125 8.296875 
L 54.390625 8.296875 
L 54.390625 0 
L 12.40625 0 
z
" id="DejaVuSans-49"/>
       </defs>
       <use xlink:href="#DejaVuSans-49"/>
       <use x="63.623047" xlink:href="#DejaVuSans-48"/>
       <use x="127.246094" xlink:href="#DejaVuSans-48"/>
      </g>
     </g>
    </g>
   </g>
   <g id="matplotlib.axis_2">
    <g id="ytick_1">
     <g id="line2d_6">
      <defs>
       <path d="M 0 0 
L -3.5 0 
" id="m2b5cbf2c53" style="stroke:#000000;stroke-width:0.8;"/>
      </defs>
      <g>
       <use style="stroke:#000000;stroke-width:0.8;" x="57.6" xlink:href="#m2b5cbf2c53" y="290.678335"/>
      </g>
     </g>
     <g id="text_6">
      <!-- 10 -->
      <g transform="translate(37.875 294.477554)scale(0.1 -0.1)">
       <use xlink:href="#DejaVuSans-49"/>
       <use x="63.623047" xlink:href="#DejaVuSans-48"/>
      </g>
     </g>
    </g>
    <g id="ytick_2">
     <g id="line2d_7">
      <g>
       <use style="stroke:#000000;stroke-width:0.8;" x="57.6" xlink:href="#m2b5cbf2c53" y="256.690819"/>
      </g>
     </g>
     <g id="text_7">
      <!-- 20 -->
      <g transform="translate(37.875 260.490038)scale(0.1 -0.1)">
       <use xlink:href="#DejaVuSans-50"/>
       <use x="63.623047" xlink:href="#DejaVuSans-48"/>
      </g>
     </g>
    </g>
    <g id="ytick_3">
     <g id="line2d_8">
      <g>
       <use style="stroke:#000000;stroke-width:0.8;" x="57.6" xlink:href="#m2b5cbf2c53" y="222.703304"/>
      </g>
     </g>
     <g id="text_8">
      <!-- 30 -->
      <g transform="translate(37.875 226.502522)scale(0.1 -0.1)">
       <defs>
        <path d="M 40.578125 39.3125 
Q 47.65625 37.796875 51.625 33 
Q 55.609375 28.21875 55.609375 21.1875 
Q 55.609375 10.40625 48.1875 4.484375 
Q 40.765625 -1.421875 27.09375 -1.421875 
Q 22.515625 -1.421875 17.65625 -0.515625 
Q 12.796875 0.390625 7.625 2.203125 
L 7.625 11.71875 
Q 11.71875 9.328125 16.59375 8.109375 
Q 21.484375 6.890625 26.8125 6.890625 
Q 36.078125 6.890625 40.9375 10.546875 
Q 45.796875 14.203125 45.796875 21.1875 
Q 45.796875 27.640625 41.28125 31.265625 
Q 36.765625 34.90625 28.71875 34.90625 
L 20.21875 34.90625 
L 20.21875 43.015625 
L 29.109375 43.015625 
Q 36.375 43.015625 40.234375 45.921875 
Q 44.09375 48.828125 44.09375 54.296875 
Q 44.09375 59.90625 40.109375 62.90625 
Q 36.140625 65.921875 28.71875 65.921875 
Q 24.65625 65.921875 20.015625 65.03125 
Q 15.375 64.15625 9.8125 62.3125 
L 9.8125 71.09375 
Q 15.4375 72.65625 20.34375 73.4375 
Q 25.25 74.21875 29.59375 74.21875 
Q 40.828125 74.21875 47.359375 69.109375 
Q 53.90625 64.015625 53.90625 55.328125 
Q 53.90625 49.265625 50.4375 45.09375 
Q 46.96875 40.921875 40.578125 39.3125 
z
" id="DejaVuSans-51"/>
       </defs>
       <use xlink:href="#DejaVuSans-51"/>
       <use x="63.623047" xlink:href="#DejaVuSans-48"/>
      </g>
     </g>
    </g>
    <g id="ytick_4">
     <g id="line2d_9">
      <g>
       <use style="stroke:#000000;stroke-width:0.8;" x="57.6" xlink:href="#m2b5cbf2c53" y="188.715788"/>
      </g>
     </g>
     <g id="text_9">
      <!-- 40 -->
      <g transform="translate(37.875 192.515007)scale(0.1 -0.1)">
       <use xlink:href="#DejaVuSans-52"/>
       <use x="63.623047" xlink:href="#DejaVuSans-48"/>
      </g>
     </g>
    </g>
    <g id="ytick_5">
     <g id="line2d_10">
      <g>
       <use style="stroke:#000000;stroke-width:0.8;" x="57.6" xlink:href="#m2b5cbf2c53" y="154.728273"/>
      </g>
     </g>
     <g id="text_10">
      <!-- 50 -->
      <g transform="translate(37.875 158.527491)scale(0.1 -0.1)">
       <defs>
        <path d="M 10.796875 72.90625 
L 49.515625 72.90625 
L 49.515625 64.59375 
L 19.828125 64.59375 
L 19.828125 46.734375 
Q 21.96875 47.46875 24.109375 47.828125 
Q 26.265625 48.1875 28.421875 48.1875 
Q 40.625 48.1875 47.75 41.5 
Q 54.890625 34.8125 54.890625 23.390625 
Q 54.890625 11.625 47.5625 5.09375 
Q 40.234375 -1.421875 26.90625 -1.421875 
Q 22.3125 -1.421875 17.546875 -0.640625 
Q 12.796875 0.140625 7.71875 1.703125 
L 7.71875 11.625 
Q 12.109375 9.234375 16.796875 8.0625 
Q 21.484375 6.890625 26.703125 6.890625 
Q 35.15625 6.890625 40.078125 11.328125 
Q 45.015625 15.765625 45.015625 23.390625 
Q 45.015625 31 40.078125 35.4375 
Q 35.15625 39.890625 26.703125 39.890625 
Q 22.75 39.890625 18.8125 39.015625 
Q 14.890625 38.140625 10.796875 36.28125 
z
" id="DejaVuSans-53"/>
       </defs>
       <use xlink:href="#DejaVuSans-53"/>
       <use x="63.623047" xlink:href="#DejaVuSans-48"/>
      </g>
     </g>
    </g>
    <g id="ytick_6">
     <g id="line2d_11">
      <g>
       <use style="stroke:#000000;stroke-width:0.8;" x="57.6" xlink:href="#m2b5cbf2c53" y="120.740757"/>
      </g>
     </g>
     <g id="text_11">
      <!-- 60 -->
      <g transform="translate(37.875 124.539976)scale(0.1 -0.1)">
       <use xlink:href="#DejaVuSans-54"/>
       <use x="63.623047" xlink:href="#DejaVuSans-48"/>
      </g>
     </g>
    </g>
    <g id="ytick_7">
     <g id="line2d_12">
      <g>
       <use style="stroke:#000000;stroke-width:0.8;" x="57.6" xlink:href="#m2b5cbf2c53" y="86.753241"/>
      </g>
     </g>
     <g id="text_12">
      <!-- 70 -->
      <g transform="translate(37.875 90.55246)scale(0.1 -0.1)">
       <defs>
        <path d="M 8.203125 72.90625 
L 55.078125 72.90625 
L 55.078125 68.703125 
L 28.609375 0 
L 18.3125 0 
L 43.21875 64.59375 
L 8.203125 64.59375 
z
" id="DejaVuSans-55"/>
       </defs>
       <use xlink:href="#DejaVuSans-55"/>
       <use x="63.623047" xlink:href="#DejaVuSans-48"/>
      </g>
     </g>
    </g>
    <g id="ytick_8">
     <g id="line2d_13">
      <g>
       <use style="stroke:#000000;stroke-width:0.8;" x="57.6" xlink:href="#m2b5cbf2c53" y="52.765726"/>
      </g>
     </g>
     <g id="text_13">
      <!-- 80 -->
      <g transform="translate(37.875 56.564944)scale(0.1 -0.1)">
       <use xlink:href="#DejaVuSans-56"/>
       <use x="63.623047" xlink:href="#DejaVuSans-48"/>
      </g>
     </g>
    </g>
   </g>
   <g id="line2d_14">
    <path clip-path="url(#p51fcaf68bf)" d="M 84.429852 275.761214 
L 84.290504 262.139018 
L 84.412859 245.165653 
L 84.698354 218.006229 
L 84.613385 204.370438 
L 84.531815 194.126601 
L 84.68136 187.318901 
L 85.153786 180.545189 
L 85.548042 177.180425 
L 86.071449 173.825858 
L 86.734206 170.495081 
L 87.53971 167.184697 
L 88.481164 163.901503 
L 89.551771 160.655695 
L 90.748132 157.447274 
L 92.066847 154.283036 
L 93.50112 151.16978 
L 95.050951 148.110903 
L 96.706143 145.113204 
L 98.463298 142.180082 
L 100.322415 139.318333 
L 102.273298 136.524559 
L 106.440167 131.140937 
L 110.929918 126.015619 
L 115.701765 121.138411 
L 120.721722 116.492317 
L 125.959198 112.080738 
L 131.407396 107.93766 
L 137.062919 104.114064 
L 139.968852 102.336517 
L 142.925765 100.660933 
L 145.930262 99.087311 
L 148.989138 97.625848 
L 155.249639 95.029201 
L 161.656285 92.769032 
L 171.410702 89.72375 
L 181.175316 86.70226 
L 187.605753 84.510065 
L 197.166442 81.005952 
L 213.120181 75.098922 
L 219.598202 72.896531 
L 226.144197 70.915059 
L 232.761567 69.25307 
L 236.095742 68.576718 
L 239.446911 68.012525 
L 242.815074 67.584283 
L 246.20023 67.295389 
L 249.602381 67.162837 
L 253.011328 67.179831 
L 256.427074 67.34637 
L 259.836022 67.659055 
L 263.234773 68.111089 
L 266.613132 68.702472 
L 269.9677 69.429805 
L 273.28828 70.289689 
L 276.571474 71.275327 
L 279.803687 72.38332 
L 282.988317 73.613668 
L 286.118567 74.956175 
L 292.23632 77.940279 
L 298.180737 81.271055 
L 303.972209 84.873732 
L 309.627732 88.683732 
L 317.913888 94.65194 
L 328.755906 102.849729 
L 342.330519 113.045983 
L 350.480726 119.156939 
L 355.813367 123.371391 
L 360.999862 127.789768 
L 365.982432 132.490241 
L 368.375153 134.957735 
L 370.686304 137.506798 
L 372.898891 140.134033 
L 375.006117 142.846237 
L 376.987589 145.636612 
L 378.839909 148.511956 
L 380.542683 151.465471 
L 382.085716 154.503955 
L 383.455413 157.627408 
L 384.644976 160.829032 
L 385.651007 164.105428 
L 386.476903 167.436205 
L 387.122666 170.817962 
L 387.598491 174.230309 
L 387.897582 177.666447 
L 388.030133 181.112781 
L 387.996145 184.552317 
L 387.799018 187.981658 
L 387.43875 191.380409 
L 386.92214 194.741775 
L 386.266181 198.072551 
L 385.487867 201.36934 
L 383.62875 207.898342 
L 381.494334 214.369565 
L 375.866001 230.551021 
L 373.813155 237.090219 
L 372.011817 243.670202 
L 370.543556 250.287571 
L 369.965768 253.61155 
L 369.500139 256.942327 
L 369.163663 260.279901 
L 368.963137 263.627671 
L 368.912155 266.985638 
L 369.020915 270.347003 
L 369.299613 273.718565 
L 369.758445 277.096924 
L 370.407606 280.48208 
L 371.260693 283.874034 
L 372.327901 287.272786 
L 373.616028 290.678335 
L 373.616028 290.678335 
" style="fill:none;stroke:#fea952;stroke-linecap:square;"/>
   </g>
   <g id="line2d_15">
    <path clip-path="url(#p51fcaf68bf)" d="M 70.83703 276.00491 
L 70.695524 262.111828 
L 70.819006 244.988579 
L 71.103408 214.641383 
L 70.97147 201.090094 
L 70.937953 193.950233 
L 71.107706 186.557253 
L 71.651154 178.963063 
L 72.115558 175.084577 
L 72.737839 171.172741 
L 73.524631 167.280842 
L 74.471365 163.437356 
L 75.570353 159.642963 
L 76.813519 155.905839 
L 78.199294 152.217468 
L 79.719191 148.594487 
L 81.373888 145.025315 
L 83.149632 141.53954 
L 85.043754 138.126582 
L 87.062796 134.773817 
L 89.17604 131.534855 
L 91.394038 128.371897 
L 93.696058 125.310997 
L 96.084612 122.332607 
L 101.089128 116.635692 
L 106.348874 111.271921 
L 111.843135 106.196935 
L 117.592132 101.365496 
L 123.627526 96.788767 
L 126.760814 94.609544 
L 129.968866 92.516711 
L 133.266343 90.50856 
L 136.618097 88.617781 
L 140.069445 86.820485 
L 143.577925 85.154161 
L 147.094638 83.636108 
L 154.061154 80.992131 
L 160.869584 78.740322 
L 179.935313 72.782948 
L 189.223614 69.461647 
L 208.659185 62.25666 
L 215.530843 59.924223 
L 222.653064 57.77595 
L 230.058811 55.929432 
L 233.838691 55.170379 
L 237.732188 54.526091 
L 241.659059 54.038515 
L 245.670956 53.710689 
L 249.670152 53.568 
L 253.673383 53.600955 
L 257.66886 53.808196 
L 261.628374 54.182718 
L 265.578938 54.719708 
L 269.493849 55.416176 
L 273.375792 56.268912 
L 277.19725 57.268777 
L 280.979974 58.414949 
L 284.70305 59.70182 
L 288.346927 61.119289 
L 291.88701 62.64564 
L 295.351604 64.276406 
L 302.026699 67.793837 
L 308.392292 71.572221 
L 314.485587 75.536658 
L 320.351717 79.61308 
L 328.835783 85.837818 
L 364.518013 112.928531 
L 370.19185 117.773204 
L 375.742292 123.026134 
L 378.446787 125.82612 
L 381.084927 128.749355 
L 383.634484 131.793096 
L 386.09068 134.974982 
L 388.416388 138.274088 
L 390.617737 141.721746 
L 392.664225 145.309789 
L 394.536213 149.044162 
L 396.199211 152.892451 
L 397.641128 156.838512 
L 398.846412 160.833506 
L 399.830626 164.886247 
L 400.587398 168.94041 
L 401.142288 173.051423 
L 401.482544 177.143948 
L 401.624476 181.247112 
L 401.568746 185.332507 
L 401.318285 189.4147 
L 400.875984 193.445586 
L 400.260935 197.368701 
L 399.497464 201.196225 
L 398.60948 204.925665 
L 396.572855 212.054581 
L 394.326726 218.858874 
L 387.814937 237.786847 
L 386.025818 243.823956 
L 384.542408 249.731825 
L 383.429848 255.493774 
L 382.734346 261.092764 
L 382.556576 263.834049 
L 382.500051 266.545989 
L 382.569712 269.227042 
L 382.770943 271.888957 
L 383.110165 274.536503 
L 383.592024 277.16616 
L 384.231303 279.801263 
L 385.043691 282.463121 
L 386.331818 285.86867 
L 386.331818 285.86867 
" style="fill:none;stroke:#ffffff;stroke-linecap:square;"/>
   </g>
   <g id="line2d_16">
    <path clip-path="url(#p51fcaf68bf)" d="M 98.022674 275.517518 
L 97.885483 262.166208 
L 98.006712 245.342727 
L 98.29336 218.006229 
L 98.207072 204.181073 
L 98.125677 194.302968 
L 98.255014 188.080549 
L 98.656418 182.127316 
L 99.40506 176.478974 
L 99.94378 173.70932 
L 100.608055 170.932038 
L 101.391975 168.160043 
L 102.290023 165.405552 
L 103.296969 162.677079 
L 105.628352 157.314244 
L 108.368532 152.099826 
L 111.468789 147.101811 
L 114.935838 142.286524 
L 118.740933 137.653493 
L 122.874659 133.18152 
L 127.297559 128.873415 
L 131.951736 124.755008 
L 136.747668 120.899552 
L 141.655121 117.357212 
L 146.671361 114.164474 
L 151.791079 111.354137 
L 157.103354 108.916978 
L 162.814181 106.734728 
L 168.921007 104.710908 
L 188.859351 98.466763 
L 198.746806 94.929384 
L 217.581178 87.941185 
L 223.665561 85.86884 
L 229.63533 84.054168 
L 235.464323 82.576707 
L 241.161634 81.49896 
L 243.971088 81.13005 
L 246.729504 80.880088 
L 249.53461 80.757675 
L 252.349274 80.758707 
L 255.185287 80.884544 
L 258.043669 81.135392 
L 260.890608 81.50247 
L 263.732416 81.988768 
L 266.559608 82.590698 
L 272.162975 84.135705 
L 274.904324 85.06482 
L 280.350125 87.266709 
L 285.742476 89.884071 
L 291.118506 92.887814 
L 296.452956 96.20003 
L 301.788785 99.791167 
L 309.787357 105.550733 
L 320.522896 113.668312 
L 334.23026 123.964316 
L 342.124781 129.880855 
L 347.10872 133.814251 
L 351.807874 137.806331 
L 356.222571 141.954348 
L 360.28768 146.264242 
L 363.921554 150.717492 
L 365.558791 152.999136 
L 367.06208 155.302166 
L 368.421142 157.621153 
L 369.63522 159.963748 
L 370.711616 162.362364 
L 371.648825 164.819551 
L 372.455602 167.37735 
L 373.123181 169.986162 
L 373.657935 172.695515 
L 374.054695 175.409195 
L 374.31262 178.188945 
L 374.43579 180.978449 
L 374.423544 183.772128 
L 374.279751 186.548615 
L 374.001517 189.315233 
L 373.583345 192.114849 
L 373.034898 194.948877 
L 371.57391 200.75331 
L 369.711831 206.77735 
L 366.404008 216.295704 
L 362.927517 226.377316 
L 360.740211 233.358955 
L 358.782142 240.539723 
L 357.149395 247.959343 
L 356.501689 251.729327 
L 355.973698 255.578663 
L 355.59298 259.467038 
L 355.369697 263.421293 
L 355.32426 267.425287 
L 355.472119 271.466964 
L 355.828283 275.548172 
L 356.406724 279.657344 
L 357.223189 283.798001 
L 358.290083 287.946806 
L 359.612111 292.082451 
L 360.900238 295.488 
L 360.900238 295.488 
" style="fill:none;stroke:#ffffff;stroke-linecap:square;"/>
   </g>
   <g id="patch_3">
    <path d="M 57.6 307.584 
L 57.6 41.472 
" style="fill:none;stroke:#000000;stroke-linecap:square;stroke-linejoin:miter;stroke-width:0.8;"/>
   </g>
   <g id="patch_4">
    <path d="M 414.72 307.584 
L 414.72 41.472 
" style="fill:none;stroke:#000000;stroke-linecap:square;stroke-linejoin:miter;stroke-width:0.8;"/>
   </g>
   <g id="patch_5">
    <path d="M 57.6 307.584 
L 414.72 307.584 
" style="fill:none;stroke:#000000;stroke-linecap:square;stroke-linejoin:miter;stroke-width:0.8;"/>
   </g>
   <g id="patch_6">
    <path d="M 57.6 41.472 
L 414.72 41.472 
" style="fill:none;stroke:#000000;stroke-linecap:square;stroke-linejoin:miter;stroke-width:0.8;"/>
   </g>
  </g>
 </g>
 <defs>
  <clipPath id="p51fcaf68bf">
   <rect height="266.112" width="357.12" x="57.6" y="41.472"/>
  </clipPath>
 </defs>
</svg>
