<?xml version="1.0" encoding="utf-8" standalone="no"?>
<!DOCTYPE svg PUBLIC "-//W3C//DTD SVG 1.1//EN"
  "http://www.w3.org/Graphics/SVG/1.1/DTD/svg11.dtd">
<!-- Created with matplotlib (https://matplotlib.org/) -->
<svg height="345.6pt" version="1.1" viewBox="0 0 460.8 345.6" width="460.8pt" xmlns="http://www.w3.org/2000/svg" xmlns:xlink="http://www.w3.org/1999/xlink">
 <metadata>
  <rdf:RDF xmlns:cc="http://creativecommons.org/ns#" xmlns:dc="http://purl.org/dc/elements/1.1/" xmlns:rdf="http://www.w3.org/1999/02/22-rdf-syntax-ns#">
   <cc:Work>
    <dc:type rdf:resource="http://purl.org/dc/dcmitype/StillImage"/>
    <dc:date>2021-01-23T12:08:48.524425</dc:date>
    <dc:format>image/svg+xml</dc:format>
    <dc:creator>
     <cc:Agent>
      <dc:title>Matplotlib v3.3.3, https://matplotlib.org/</dc:title>
     </cc:Agent>
    </dc:creator>
   </cc:Work>
  </rdf:RDF>
 </metadata>
 <defs>
  <style type="text/css">*{stroke-linecap:butt;stroke-linejoin:round;}</style>
 </defs>
 <g id="figure_1">
  <g id="patch_1">
   <path d="M 0 345.6 
L 460.8 345.6 
L 460.8 0 
L 0 0 
z
" style="fill:#ffffff;"/>
  </g>
  <g id="axes_1">
   <g id="patch_2">
    <path d="M 57.6 307.584 
L 414.72 307.584 
L 414.72 41.472 
L 57.6 41.472 
z
" style="fill:#7d9051;"/>
   </g>
   <g id="matplotlib.axis_1">
    <g id="xtick_1">
     <g id="line2d_1">
      <defs>
       <path d="M 0 0 
L 0 3.5 
" id="m1b76c023c8" style="stroke:#000000;stroke-width:0.8;"/>
      </defs>
      <g>
       <use style="stroke:#000000;stroke-width:0.8;" x="61.084246" xlink:href="#m1b76c023c8" y="307.584"/>
      </g>
     </g>
     <g id="text_1">
      <!-- 0 -->
      <g transform="translate(57.902996 322.182437)scale(0.1 -0.1)">
       <defs>
        <path d="M 31.78125 66.40625 
Q 24.171875 66.40625 20.328125 58.90625 
Q 16.5 51.421875 16.5 36.375 
Q 16.5 21.390625 20.328125 13.890625 
Q 24.171875 6.390625 31.78125 6.390625 
Q 39.453125 6.390625 43.28125 13.890625 
Q 47.125 21.390625 47.125 36.375 
Q 47.125 51.421875 43.28125 58.90625 
Q 39.453125 66.40625 31.78125 66.40625 
z
M 31.78125 74.21875 
Q 44.046875 74.21875 50.515625 64.515625 
Q 56.984375 54.828125 56.984375 36.375 
Q 56.984375 17.96875 50.515625 8.265625 
Q 44.046875 -1.421875 31.78125 -1.421875 
Q 19.53125 -1.421875 13.0625 8.265625 
Q 6.59375 17.96875 6.59375 36.375 
Q 6.59375 54.828125 13.0625 64.515625 
Q 19.53125 74.21875 31.78125 74.21875 
z
" id="DejaVuSans-48"/>
       </defs>
       <use xlink:href="#DejaVuSans-48"/>
      </g>
     </g>
    </g>
    <g id="xtick_2">
     <g id="line2d_2">
      <g>
       <use style="stroke:#000000;stroke-width:0.8;" x="108.649291" xlink:href="#m1b76c023c8" y="307.584"/>
      </g>
     </g>
     <g id="text_2">
      <!-- 20 -->
      <g transform="translate(102.286791 322.182437)scale(0.1 -0.1)">
       <defs>
        <path d="M 19.1875 8.296875 
L 53.609375 8.296875 
L 53.609375 0 
L 7.328125 0 
L 7.328125 8.296875 
Q 12.9375 14.109375 22.625 23.890625 
Q 32.328125 33.6875 34.8125 36.53125 
Q 39.546875 41.84375 41.421875 45.53125 
Q 43.3125 49.21875 43.3125 52.78125 
Q 43.3125 58.59375 39.234375 62.25 
Q 35.15625 65.921875 28.609375 65.921875 
Q 23.96875 65.921875 18.8125 64.3125 
Q 13.671875 62.703125 7.8125 59.421875 
L 7.8125 69.390625 
Q 13.765625 71.78125 18.9375 73 
Q 24.125 74.21875 28.421875 74.21875 
Q 39.75 74.21875 46.484375 68.546875 
Q 53.21875 62.890625 53.21875 53.421875 
Q 53.21875 48.921875 51.53125 44.890625 
Q 49.859375 40.875 45.40625 35.40625 
Q 44.1875 33.984375 37.640625 27.21875 
Q 31.109375 20.453125 19.1875 8.296875 
z
" id="DejaVuSans-50"/>
       </defs>
       <use xlink:href="#DejaVuSans-50"/>
       <use x="63.623047" xlink:href="#DejaVuSans-48"/>
      </g>
     </g>
    </g>
    <g id="xtick_3">
     <g id="line2d_3">
      <g>
       <use style="stroke:#000000;stroke-width:0.8;" x="156.214337" xlink:href="#m1b76c023c8" y="307.584"/>
      </g>
     </g>
     <g id="text_3">
      <!-- 40 -->
      <g transform="translate(149.851837 322.182437)scale(0.1 -0.1)">
       <defs>
        <path d="M 37.796875 64.3125 
L 12.890625 25.390625 
L 37.796875 25.390625 
z
M 35.203125 72.90625 
L 47.609375 72.90625 
L 47.609375 25.390625 
L 58.015625 25.390625 
L 58.015625 17.1875 
L 47.609375 17.1875 
L 47.609375 0 
L 37.796875 0 
L 37.796875 17.1875 
L 4.890625 17.1875 
L 4.890625 26.703125 
z
" id="DejaVuSans-52"/>
       </defs>
       <use xlink:href="#DejaVuSans-52"/>
       <use x="63.623047" xlink:href="#DejaVuSans-48"/>
      </g>
     </g>
    </g>
    <g id="xtick_4">
     <g id="line2d_4">
      <g>
       <use style="stroke:#000000;stroke-width:0.8;" x="203.779382" xlink:href="#m1b76c023c8" y="307.584"/>
      </g>
     </g>
     <g id="text_4">
      <!-- 60 -->
      <g transform="translate(197.416882 322.182437)scale(0.1 -0.1)">
       <defs>
        <path d="M 33.015625 40.375 
Q 26.375 40.375 22.484375 35.828125 
Q 18.609375 31.296875 18.609375 23.390625 
Q 18.609375 15.53125 22.484375 10.953125 
Q 26.375 6.390625 33.015625 6.390625 
Q 39.65625 6.390625 43.53125 10.953125 
Q 47.40625 15.53125 47.40625 23.390625 
Q 47.40625 31.296875 43.53125 35.828125 
Q 39.65625 40.375 33.015625 40.375 
z
M 52.59375 71.296875 
L 52.59375 62.3125 
Q 48.875 64.0625 45.09375 64.984375 
Q 41.3125 65.921875 37.59375 65.921875 
Q 27.828125 65.921875 22.671875 59.328125 
Q 17.53125 52.734375 16.796875 39.40625 
Q 19.671875 43.65625 24.015625 45.921875 
Q 28.375 48.1875 33.59375 48.1875 
Q 44.578125 48.1875 50.953125 41.515625 
Q 57.328125 34.859375 57.328125 23.390625 
Q 57.328125 12.15625 50.6875 5.359375 
Q 44.046875 -1.421875 33.015625 -1.421875 
Q 20.359375 -1.421875 13.671875 8.265625 
Q 6.984375 17.96875 6.984375 36.375 
Q 6.984375 53.65625 15.1875 63.9375 
Q 23.390625 74.21875 37.203125 74.21875 
Q 40.921875 74.21875 44.703125 73.484375 
Q 48.484375 72.75 52.59375 71.296875 
z
" id="DejaVuSans-54"/>
       </defs>
       <use xlink:href="#DejaVuSans-54"/>
       <use x="63.623047" xlink:href="#DejaVuSans-48"/>
      </g>
     </g>
    </g>
    <g id="xtick_5">
     <g id="line2d_5">
      <g>
       <use style="stroke:#000000;stroke-width:0.8;" x="251.344427" xlink:href="#m1b76c023c8" y="307.584"/>
      </g>
     </g>
     <g id="text_5">
      <!-- 80 -->
      <g transform="translate(244.981927 322.182437)scale(0.1 -0.1)">
       <defs>
        <path d="M 31.78125 34.625 
Q 24.75 34.625 20.71875 30.859375 
Q 16.703125 27.09375 16.703125 20.515625 
Q 16.703125 13.921875 20.71875 10.15625 
Q 24.75 6.390625 31.78125 6.390625 
Q 38.8125 6.390625 42.859375 10.171875 
Q 46.921875 13.96875 46.921875 20.515625 
Q 46.921875 27.09375 42.890625 30.859375 
Q 38.875 34.625 31.78125 34.625 
z
M 21.921875 38.8125 
Q 15.578125 40.375 12.03125 44.71875 
Q 8.5 49.078125 8.5 55.328125 
Q 8.5 64.0625 14.71875 69.140625 
Q 20.953125 74.21875 31.78125 74.21875 
Q 42.671875 74.21875 48.875 69.140625 
Q 55.078125 64.0625 55.078125 55.328125 
Q 55.078125 49.078125 51.53125 44.71875 
Q 48 40.375 41.703125 38.8125 
Q 48.828125 37.15625 52.796875 32.3125 
Q 56.78125 27.484375 56.78125 20.515625 
Q 56.78125 9.90625 50.3125 4.234375 
Q 43.84375 -1.421875 31.78125 -1.421875 
Q 19.734375 -1.421875 13.25 4.234375 
Q 6.78125 9.90625 6.78125 20.515625 
Q 6.78125 27.484375 10.78125 32.3125 
Q 14.796875 37.15625 21.921875 38.8125 
z
M 18.3125 54.390625 
Q 18.3125 48.734375 21.84375 45.5625 
Q 25.390625 42.390625 31.78125 42.390625 
Q 38.140625 42.390625 41.71875 45.5625 
Q 45.3125 48.734375 45.3125 54.390625 
Q 45.3125 60.0625 41.71875 63.234375 
Q 38.140625 66.40625 31.78125 66.40625 
Q 25.390625 66.40625 21.84375 63.234375 
Q 18.3125 60.0625 18.3125 54.390625 
z
" id="DejaVuSans-56"/>
       </defs>
       <use xlink:href="#DejaVuSans-56"/>
       <use x="63.623047" xlink:href="#DejaVuSans-48"/>
      </g>
     </g>
    </g>
    <g id="xtick_6">
     <g id="line2d_6">
      <g>
       <use style="stroke:#000000;stroke-width:0.8;" x="298.909472" xlink:href="#m1b76c023c8" y="307.584"/>
      </g>
     </g>
     <g id="text_6">
      <!-- 100 -->
      <g transform="translate(289.365722 322.182437)scale(0.1 -0.1)">
       <defs>
        <path d="M 12.40625 8.296875 
L 28.515625 8.296875 
L 28.515625 63.921875 
L 10.984375 60.40625 
L 10.984375 69.390625 
L 28.421875 72.90625 
L 38.28125 72.90625 
L 38.28125 8.296875 
L 54.390625 8.296875 
L 54.390625 0 
L 12.40625 0 
z
" id="DejaVuSans-49"/>
       </defs>
       <use xlink:href="#DejaVuSans-49"/>
       <use x="63.623047" xlink:href="#DejaVuSans-48"/>
       <use x="127.246094" xlink:href="#DejaVuSans-48"/>
      </g>
     </g>
    </g>
    <g id="xtick_7">
     <g id="line2d_7">
      <g>
       <use style="stroke:#000000;stroke-width:0.8;" x="346.474517" xlink:href="#m1b76c023c8" y="307.584"/>
      </g>
     </g>
     <g id="text_7">
      <!-- 120 -->
      <g transform="translate(336.930767 322.182437)scale(0.1 -0.1)">
       <use xlink:href="#DejaVuSans-49"/>
       <use x="63.623047" xlink:href="#DejaVuSans-50"/>
       <use x="127.246094" xlink:href="#DejaVuSans-48"/>
      </g>
     </g>
    </g>
    <g id="xtick_8">
     <g id="line2d_8">
      <g>
       <use style="stroke:#000000;stroke-width:0.8;" x="394.039562" xlink:href="#m1b76c023c8" y="307.584"/>
      </g>
     </g>
     <g id="text_8">
      <!-- 140 -->
      <g transform="translate(384.495812 322.182437)scale(0.1 -0.1)">
       <use xlink:href="#DejaVuSans-49"/>
       <use x="63.623047" xlink:href="#DejaVuSans-52"/>
       <use x="127.246094" xlink:href="#DejaVuSans-48"/>
      </g>
     </g>
    </g>
   </g>
   <g id="matplotlib.axis_2">
    <g id="ytick_1">
     <g id="line2d_9">
      <defs>
       <path d="M 0 0 
L -3.5 0 
" id="m8f28afe6fe" style="stroke:#000000;stroke-width:0.8;"/>
      </defs>
      <g>
       <use style="stroke:#000000;stroke-width:0.8;" x="57.6" xlink:href="#m8f28afe6fe" y="280.565213"/>
      </g>
     </g>
     <g id="text_9">
      <!-- 0 -->
      <g transform="translate(44.2375 284.364432)scale(0.1 -0.1)">
       <use xlink:href="#DejaVuSans-48"/>
      </g>
     </g>
    </g>
    <g id="ytick_2">
     <g id="line2d_10">
      <g>
       <use style="stroke:#000000;stroke-width:0.8;" x="57.6" xlink:href="#m8f28afe6fe" y="233.000168"/>
      </g>
     </g>
     <g id="text_10">
      <!-- 20 -->
      <g transform="translate(37.875 236.799386)scale(0.1 -0.1)">
       <use xlink:href="#DejaVuSans-50"/>
       <use x="63.623047" xlink:href="#DejaVuSans-48"/>
      </g>
     </g>
    </g>
    <g id="ytick_3">
     <g id="line2d_11">
      <g>
       <use style="stroke:#000000;stroke-width:0.8;" x="57.6" xlink:href="#m8f28afe6fe" y="185.435123"/>
      </g>
     </g>
     <g id="text_11">
      <!-- 40 -->
      <g transform="translate(37.875 189.234341)scale(0.1 -0.1)">
       <use xlink:href="#DejaVuSans-52"/>
       <use x="63.623047" xlink:href="#DejaVuSans-48"/>
      </g>
     </g>
    </g>
    <g id="ytick_4">
     <g id="line2d_12">
      <g>
       <use style="stroke:#000000;stroke-width:0.8;" x="57.6" xlink:href="#m8f28afe6fe" y="137.870077"/>
      </g>
     </g>
     <g id="text_12">
      <!-- 60 -->
      <g transform="translate(37.875 141.669296)scale(0.1 -0.1)">
       <use xlink:href="#DejaVuSans-54"/>
       <use x="63.623047" xlink:href="#DejaVuSans-48"/>
      </g>
     </g>
    </g>
    <g id="ytick_5">
     <g id="line2d_13">
      <g>
       <use style="stroke:#000000;stroke-width:0.8;" x="57.6" xlink:href="#m8f28afe6fe" y="90.305032"/>
      </g>
     </g>
     <g id="text_13">
      <!-- 80 -->
      <g transform="translate(37.875 94.104251)scale(0.1 -0.1)">
       <use xlink:href="#DejaVuSans-56"/>
       <use x="63.623047" xlink:href="#DejaVuSans-48"/>
      </g>
     </g>
    </g>
    <g id="ytick_6">
     <g id="line2d_14">
      <g>
       <use style="stroke:#000000;stroke-width:0.8;" x="57.6" xlink:href="#m8f28afe6fe" y="42.739987"/>
      </g>
     </g>
     <g id="text_14">
      <!-- 100 -->
      <g transform="translate(31.5125 46.539206)scale(0.1 -0.1)">
       <use xlink:href="#DejaVuSans-49"/>
       <use x="63.623047" xlink:href="#DejaVuSans-48"/>
       <use x="127.246094" xlink:href="#DejaVuSans-48"/>
      </g>
     </g>
    </g>
   </g>
   <g id="line2d_15">
    <path clip-path="url(#p022c834e83)" d="M 397.875683 256.78269 
L 392.955079 256.991976 
L 388.127227 256.785069 
L 383.382614 256.207153 
L 378.714105 255.303417 
L 374.109808 254.116669 
L 369.564968 252.696853 
L 365.070072 251.08202 
L 358.396696 248.404108 
L 347.394901 243.602416 
L 338.71428 239.571279 
L 332.328673 236.322586 
L 328.152462 234.006168 
L 322.014193 230.30323 
L 315.997215 226.38387 
L 308.108552 220.935294 
L 298.279235 214.10971 
L 292.233718 210.261698 
L 288.086046 207.885824 
L 283.843244 205.678806 
L 277.336346 202.627508 
L 270.71767 199.833062 
L 261.820628 196.363192 
L 250.67376 192.049042 
L 244.009897 189.242704 
L 239.629156 187.185516 
L 235.379219 184.909529 
L 231.324299 182.360042 
L 229.393159 180.96163 
L 227.535744 179.472844 
L 225.761567 177.884172 
L 224.075386 176.197991 
L 222.472444 174.421436 
L 220.952741 172.564021 
L 218.155917 168.63277 
L 215.668265 164.480342 
L 213.47076 160.168571 
L 211.546754 155.766426 
L 209.83679 151.304824 
L 207.503725 144.536318 
L 204.416753 135.453773 
L 202.716303 130.937472 
L 200.825592 126.502032 
L 198.685165 122.20453 
L 196.230809 118.104423 
L 194.86807 116.144743 
L 193.407824 114.254032 
L 191.845312 112.439426 
L 190.192427 110.698545 
L 186.636939 107.445096 
L 182.79844 104.503198 
L 178.734007 101.882364 
L 174.495962 99.592107 
L 170.124734 97.627671 
L 165.634594 95.979542 
L 161.035054 94.626317 
L 156.340384 93.556103 
L 151.55534 92.749876 
L 146.710841 92.231417 
L 141.859206 92.062561 
L 139.44528 92.13153 
L 137.048002 92.317034 
L 134.676884 92.626206 
L 132.334306 93.066183 
L 130.029779 93.648855 
L 127.768061 94.378978 
L 125.55153 95.251797 
L 123.382564 96.260176 
L 121.263541 97.389846 
L 119.194462 98.628915 
L 115.208511 101.399579 
L 111.44136 104.484172 
L 107.90252 107.794699 
L 104.589615 111.281217 
L 101.490752 114.929456 
L 98.594041 118.732281 
L 95.885212 122.682558 
L 93.352373 126.766018 
L 91.009794 130.980281 
L 88.897906 135.3087 
L 87.059517 139.746518 
L 85.542192 144.279467 
L 84.38874 148.898033 
L 83.641969 153.595081 
L 83.435061 155.968577 
L 83.344687 158.358721 
L 83.380361 160.760755 
L 83.544461 163.17706 
L 83.84412 165.605255 
L 84.281719 168.042964 
L 84.866769 170.490185 
L 84.866769 170.490185 
" style="fill:none;stroke:#fea952;stroke-linecap:square;"/>
   </g>
   <g id="line2d_16">
    <path clip-path="url(#p022c834e83)" d="M 398.487273 266.276019 
L 395.596404 266.453062 
L 392.740625 266.502568 
L 389.927664 266.431244 
L 384.416143 265.959958 
L 379.079297 265.102088 
L 373.903393 263.920396 
L 368.888743 262.480539 
L 364.019241 260.834339 
L 356.96509 258.110186 
L 347.944569 254.249787 
L 338.998163 250.232706 
L 332.260373 246.995414 
L 325.550109 243.462697 
L 319.028884 239.64663 
L 312.717684 235.629143 
L 304.599441 230.096946 
L 293.048296 222.05544 
L 287.417462 218.465418 
L 283.621124 216.285932 
L 279.672144 214.228617 
L 273.54119 211.350703 
L 267.181367 208.664364 
L 258.436801 205.254033 
L 247.087222 200.860063 
L 240.0572 197.895653 
L 235.270142 195.641067 
L 230.473723 193.0602 
L 228.104416 191.625762 
L 225.744826 190.065029 
L 223.443477 188.384475 
L 221.189742 186.559846 
L 219.034854 184.610885 
L 217.012421 182.570734 
L 215.109782 180.445433 
L 213.316489 178.237203 
L 211.653201 175.984882 
L 208.624226 171.317207 
L 205.989881 166.522992 
L 203.714347 161.674159 
L 201.7541 156.859826 
L 199.242303 149.822901 
L 194.713384 136.619085 
L 193.094778 132.546735 
L 191.349407 128.718948 
L 189.445515 125.186549 
L 187.339111 121.959562 
L 184.946504 118.989524 
L 182.192219 116.19536 
L 179.125743 113.606541 
L 175.79397 111.247107 
L 172.264723 109.147092 
L 168.586479 107.316223 
L 164.772383 105.750647 
L 160.814175 104.435119 
L 156.72943 103.362293 
L 152.505258 102.522409 
L 148.282091 101.924764 
L 144.142626 101.610213 
L 140.179212 101.616185 
L 136.432888 101.975741 
L 132.952246 102.701839 
L 131.253567 103.230452 
L 129.562012 103.878116 
L 126.151045 105.551319 
L 122.767842 107.665775 
L 119.455276 110.15962 
L 116.247411 112.962871 
L 113.210866 115.964339 
L 110.34801 119.143746 
L 107.659476 122.476796 
L 105.126522 125.97516 
L 102.736882 129.630884 
L 100.526949 133.374033 
L 98.531934 137.17268 
L 96.789323 141.008987 
L 95.333629 144.852616 
L 94.192318 148.691221 
L 93.387872 152.512953 
L 92.941277 156.328016 
L 92.871508 160.116179 
L 93.20746 163.924421 
L 93.534003 165.831047 
L 94.119053 168.278269 
L 94.119053 168.278269 
" style="fill:none;stroke:#ffffff;stroke-linecap:square;"/>
   </g>
   <g id="line2d_17">
    <path clip-path="url(#p022c834e83)" d="M 397.264094 247.289361 
L 393.169534 247.481385 
L 389.099985 247.321925 
L 385.037463 246.839186 
L 380.960819 246.059521 
L 376.83986 245.003813 
L 372.703793 243.71659 
L 368.500235 242.208952 
L 362.126993 239.652981 
L 351.305773 234.930483 
L 342.919308 231.038103 
L 336.87603 227.966817 
L 331.012732 224.659808 
L 325.186514 221.045013 
L 319.403172 217.202693 
L 299.243083 203.400975 
L 294.811785 200.746492 
L 290.288956 198.28509 
L 285.722318 196.012165 
L 278.832542 192.904814 
L 271.967207 190.086354 
L 247.962594 180.589755 
L 243.988171 178.729966 
L 240.284716 176.758857 
L 236.903773 174.655056 
L 233.881745 172.385842 
L 231.138352 169.825248 
L 228.588994 166.89084 
L 226.224507 163.593407 
L 224.073702 160.02546 
L 222.138474 156.248357 
L 220.396857 152.277442 
L 218.80115 148.120866 
L 216.528558 141.528041 
L 213.348494 132.179427 
L 211.513551 127.317283 
L 209.411901 122.406589 
L 206.950584 117.494944 
L 205.556077 115.065326 
L 204.041053 112.67327 
L 202.39703 110.329924 
L 200.616615 108.046725 
L 198.74412 105.889328 
L 196.771874 103.827722 
L 194.715629 101.872178 
L 192.583094 100.019426 
L 190.376228 98.263271 
L 188.109785 96.610989 
L 183.41032 93.598075 
L 178.552933 90.987555 
L 173.558078 88.755834 
L 168.469396 86.898725 
L 163.293553 85.385293 
L 158.049519 84.197888 
L 152.725 83.309047 
L 147.231829 82.732684 
L 144.422664 82.586256 
L 141.587517 82.553432 
L 138.711348 82.646875 
L 135.818001 82.883877 
L 132.92088 83.276672 
L 130.002436 83.8434 
L 127.107312 84.59587 
L 124.282556 85.527504 
L 121.541049 86.625478 
L 118.907321 87.865562 
L 116.376038 89.228372 
L 113.930524 90.705008 
L 111.58281 92.274724 
L 107.142273 95.655162 
L 103.03939 99.268436 
L 99.221812 103.068769 
L 95.677657 107.028875 
L 92.372996 111.149268 
L 89.307544 115.404006 
L 86.455516 119.786775 
L 83.780518 124.343726 
L 81.309175 129.087761 
L 79.094375 134.017692 
L 77.182463 139.149587 
L 75.641106 144.467253 
L 75.031008 147.186253 
L 74.533437 149.963514 
L 74.164902 152.768924 
L 73.928845 155.609138 
L 73.832727 158.499987 
L 73.889215 161.405331 
L 74.103074 164.342206 
L 74.48078 167.286089 
L 75.029434 170.25488 
L 75.614484 172.702102 
L 75.614484 172.702102 
" style="fill:none;stroke:#ffffff;stroke-linecap:square;"/>
   </g>
   <g id="patch_3">
    <path d="M 57.6 307.584 
L 57.6 41.472 
" style="fill:none;stroke:#000000;stroke-linecap:square;stroke-linejoin:miter;stroke-width:0.8;"/>
   </g>
   <g id="patch_4">
    <path d="M 414.72 307.584 
L 414.72 41.472 
" style="fill:none;stroke:#000000;stroke-linecap:square;stroke-linejoin:miter;stroke-width:0.8;"/>
   </g>
   <g id="patch_5">
    <path d="M 57.6 307.584 
L 414.72 307.584 
" style="fill:none;stroke:#000000;stroke-linecap:square;stroke-linejoin:miter;stroke-width:0.8;"/>
   </g>
   <g id="patch_6">
    <path d="M 57.6 41.472 
L 414.72 41.472 
" style="fill:none;stroke:#000000;stroke-linecap:square;stroke-linejoin:miter;stroke-width:0.8;"/>
   </g>
  </g>
 </g>
 <defs>
  <clipPath id="p022c834e83">
   <rect height="266.112" width="357.12" x="57.6" y="41.472"/>
  </clipPath>
 </defs>
</svg>
