<?xml version="1.0" encoding="utf-8" standalone="no"?>
<!DOCTYPE svg PUBLIC "-//W3C//DTD SVG 1.1//EN"
  "http://www.w3.org/Graphics/SVG/1.1/DTD/svg11.dtd">
<!-- Created with matplotlib (https://matplotlib.org/) -->
<svg height="345.6pt" version="1.1" viewBox="0 0 460.8 345.6" width="460.8pt" xmlns="http://www.w3.org/2000/svg" xmlns:xlink="http://www.w3.org/1999/xlink">
 <metadata>
  <rdf:RDF xmlns:cc="http://creativecommons.org/ns#" xmlns:dc="http://purl.org/dc/elements/1.1/" xmlns:rdf="http://www.w3.org/1999/02/22-rdf-syntax-ns#">
   <cc:Work>
    <dc:type rdf:resource="http://purl.org/dc/dcmitype/StillImage"/>
    <dc:date>2021-01-25T13:04:47.856790</dc:date>
    <dc:format>image/svg+xml</dc:format>
    <dc:creator>
     <cc:Agent>
      <dc:title>Matplotlib v3.3.3, https://matplotlib.org/</dc:title>
     </cc:Agent>
    </dc:creator>
   </cc:Work>
  </rdf:RDF>
 </metadata>
 <defs>
  <style type="text/css">*{stroke-linecap:butt;stroke-linejoin:round;}</style>
 </defs>
 <g id="figure_1">
  <g id="patch_1">
   <path d="M 0 345.6 
L 460.8 345.6 
L 460.8 0 
L 0 0 
z
" style="fill:#ffffff;"/>
  </g>
  <g id="axes_1">
   <g id="patch_2">
    <path d="M 57.6 307.584 
L 414.72 307.584 
L 414.72 41.472 
L 57.6 41.472 
z
" style="fill:#7d9051;"/>
   </g>
   <g id="matplotlib.axis_1">
    <g id="xtick_1">
     <g id="line2d_1">
      <defs>
       <path d="M 0 0 
L 0 3.5 
" id="m826435cd67" style="stroke:#000000;stroke-width:0.8;"/>
      </defs>
      <g>
       <use style="stroke:#000000;stroke-width:0.8;" x="93.838559" xlink:href="#m826435cd67" y="307.584"/>
      </g>
     </g>
     <g id="text_1">
      <!-- 0 -->
      <g transform="translate(90.657309 322.182437)scale(0.1 -0.1)">
       <defs>
        <path d="M 31.78125 66.40625 
Q 24.171875 66.40625 20.328125 58.90625 
Q 16.5 51.421875 16.5 36.375 
Q 16.5 21.390625 20.328125 13.890625 
Q 24.171875 6.390625 31.78125 6.390625 
Q 39.453125 6.390625 43.28125 13.890625 
Q 47.125 21.390625 47.125 36.375 
Q 47.125 51.421875 43.28125 58.90625 
Q 39.453125 66.40625 31.78125 66.40625 
z
M 31.78125 74.21875 
Q 44.046875 74.21875 50.515625 64.515625 
Q 56.984375 54.828125 56.984375 36.375 
Q 56.984375 17.96875 50.515625 8.265625 
Q 44.046875 -1.421875 31.78125 -1.421875 
Q 19.53125 -1.421875 13.0625 8.265625 
Q 6.59375 17.96875 6.59375 36.375 
Q 6.59375 54.828125 13.0625 64.515625 
Q 19.53125 74.21875 31.78125 74.21875 
z
" id="DejaVuSans-48"/>
       </defs>
       <use xlink:href="#DejaVuSans-48"/>
      </g>
     </g>
    </g>
    <g id="xtick_2">
     <g id="line2d_2">
      <g>
       <use style="stroke:#000000;stroke-width:0.8;" x="161.089042" xlink:href="#m826435cd67" y="307.584"/>
      </g>
     </g>
     <g id="text_2">
      <!-- 20 -->
      <g transform="translate(154.726542 322.182437)scale(0.1 -0.1)">
       <defs>
        <path d="M 19.1875 8.296875 
L 53.609375 8.296875 
L 53.609375 0 
L 7.328125 0 
L 7.328125 8.296875 
Q 12.9375 14.109375 22.625 23.890625 
Q 32.328125 33.6875 34.8125 36.53125 
Q 39.546875 41.84375 41.421875 45.53125 
Q 43.3125 49.21875 43.3125 52.78125 
Q 43.3125 58.59375 39.234375 62.25 
Q 35.15625 65.921875 28.609375 65.921875 
Q 23.96875 65.921875 18.8125 64.3125 
Q 13.671875 62.703125 7.8125 59.421875 
L 7.8125 69.390625 
Q 13.765625 71.78125 18.9375 73 
Q 24.125 74.21875 28.421875 74.21875 
Q 39.75 74.21875 46.484375 68.546875 
Q 53.21875 62.890625 53.21875 53.421875 
Q 53.21875 48.921875 51.53125 44.890625 
Q 49.859375 40.875 45.40625 35.40625 
Q 44.1875 33.984375 37.640625 27.21875 
Q 31.109375 20.453125 19.1875 8.296875 
z
" id="DejaVuSans-50"/>
       </defs>
       <use xlink:href="#DejaVuSans-50"/>
       <use x="63.623047" xlink:href="#DejaVuSans-48"/>
      </g>
     </g>
    </g>
    <g id="xtick_3">
     <g id="line2d_3">
      <g>
       <use style="stroke:#000000;stroke-width:0.8;" x="228.339525" xlink:href="#m826435cd67" y="307.584"/>
      </g>
     </g>
     <g id="text_3">
      <!-- 40 -->
      <g transform="translate(221.977025 322.182437)scale(0.1 -0.1)">
       <defs>
        <path d="M 37.796875 64.3125 
L 12.890625 25.390625 
L 37.796875 25.390625 
z
M 35.203125 72.90625 
L 47.609375 72.90625 
L 47.609375 25.390625 
L 58.015625 25.390625 
L 58.015625 17.1875 
L 47.609375 17.1875 
L 47.609375 0 
L 37.796875 0 
L 37.796875 17.1875 
L 4.890625 17.1875 
L 4.890625 26.703125 
z
" id="DejaVuSans-52"/>
       </defs>
       <use xlink:href="#DejaVuSans-52"/>
       <use x="63.623047" xlink:href="#DejaVuSans-48"/>
      </g>
     </g>
    </g>
    <g id="xtick_4">
     <g id="line2d_4">
      <g>
       <use style="stroke:#000000;stroke-width:0.8;" x="295.590008" xlink:href="#m826435cd67" y="307.584"/>
      </g>
     </g>
     <g id="text_4">
      <!-- 60 -->
      <g transform="translate(289.227508 322.182437)scale(0.1 -0.1)">
       <defs>
        <path d="M 33.015625 40.375 
Q 26.375 40.375 22.484375 35.828125 
Q 18.609375 31.296875 18.609375 23.390625 
Q 18.609375 15.53125 22.484375 10.953125 
Q 26.375 6.390625 33.015625 6.390625 
Q 39.65625 6.390625 43.53125 10.953125 
Q 47.40625 15.53125 47.40625 23.390625 
Q 47.40625 31.296875 43.53125 35.828125 
Q 39.65625 40.375 33.015625 40.375 
z
M 52.59375 71.296875 
L 52.59375 62.3125 
Q 48.875 64.0625 45.09375 64.984375 
Q 41.3125 65.921875 37.59375 65.921875 
Q 27.828125 65.921875 22.671875 59.328125 
Q 17.53125 52.734375 16.796875 39.40625 
Q 19.671875 43.65625 24.015625 45.921875 
Q 28.375 48.1875 33.59375 48.1875 
Q 44.578125 48.1875 50.953125 41.515625 
Q 57.328125 34.859375 57.328125 23.390625 
Q 57.328125 12.15625 50.6875 5.359375 
Q 44.046875 -1.421875 33.015625 -1.421875 
Q 20.359375 -1.421875 13.671875 8.265625 
Q 6.984375 17.96875 6.984375 36.375 
Q 6.984375 53.65625 15.1875 63.9375 
Q 23.390625 74.21875 37.203125 74.21875 
Q 40.921875 74.21875 44.703125 73.484375 
Q 48.484375 72.75 52.59375 71.296875 
z
" id="DejaVuSans-54"/>
       </defs>
       <use xlink:href="#DejaVuSans-54"/>
       <use x="63.623047" xlink:href="#DejaVuSans-48"/>
      </g>
     </g>
    </g>
    <g id="xtick_5">
     <g id="line2d_5">
      <g>
       <use style="stroke:#000000;stroke-width:0.8;" x="362.840491" xlink:href="#m826435cd67" y="307.584"/>
      </g>
     </g>
     <g id="text_5">
      <!-- 80 -->
      <g transform="translate(356.477991 322.182437)scale(0.1 -0.1)">
       <defs>
        <path d="M 31.78125 34.625 
Q 24.75 34.625 20.71875 30.859375 
Q 16.703125 27.09375 16.703125 20.515625 
Q 16.703125 13.921875 20.71875 10.15625 
Q 24.75 6.390625 31.78125 6.390625 
Q 38.8125 6.390625 42.859375 10.171875 
Q 46.921875 13.96875 46.921875 20.515625 
Q 46.921875 27.09375 42.890625 30.859375 
Q 38.875 34.625 31.78125 34.625 
z
M 21.921875 38.8125 
Q 15.578125 40.375 12.03125 44.71875 
Q 8.5 49.078125 8.5 55.328125 
Q 8.5 64.0625 14.71875 69.140625 
Q 20.953125 74.21875 31.78125 74.21875 
Q 42.671875 74.21875 48.875 69.140625 
Q 55.078125 64.0625 55.078125 55.328125 
Q 55.078125 49.078125 51.53125 44.71875 
Q 48 40.375 41.703125 38.8125 
Q 48.828125 37.15625 52.796875 32.3125 
Q 56.78125 27.484375 56.78125 20.515625 
Q 56.78125 9.90625 50.3125 4.234375 
Q 43.84375 -1.421875 31.78125 -1.421875 
Q 19.734375 -1.421875 13.25 4.234375 
Q 6.78125 9.90625 6.78125 20.515625 
Q 6.78125 27.484375 10.78125 32.3125 
Q 14.796875 37.15625 21.921875 38.8125 
z
M 18.3125 54.390625 
Q 18.3125 48.734375 21.84375 45.5625 
Q 25.390625 42.390625 31.78125 42.390625 
Q 38.140625 42.390625 41.71875 45.5625 
Q 45.3125 48.734375 45.3125 54.390625 
Q 45.3125 60.0625 41.71875 63.234375 
Q 38.140625 66.40625 31.78125 66.40625 
Q 25.390625 66.40625 21.84375 63.234375 
Q 18.3125 60.0625 18.3125 54.390625 
z
" id="DejaVuSans-56"/>
       </defs>
       <use xlink:href="#DejaVuSans-56"/>
       <use x="63.623047" xlink:href="#DejaVuSans-48"/>
      </g>
     </g>
    </g>
   </g>
   <g id="matplotlib.axis_2">
    <g id="ytick_1">
     <g id="line2d_6">
      <defs>
       <path d="M 0 0 
L -3.5 0 
" id="m89b8b7f8ed" style="stroke:#000000;stroke-width:0.8;"/>
      </defs>
      <g>
       <use style="stroke:#000000;stroke-width:0.8;" x="57.6" xlink:href="#m89b8b7f8ed" y="281.076325"/>
      </g>
     </g>
     <g id="text_6">
      <!-- 10 -->
      <g transform="translate(37.875 284.875544)scale(0.1 -0.1)">
       <defs>
        <path d="M 12.40625 8.296875 
L 28.515625 8.296875 
L 28.515625 63.921875 
L 10.984375 60.40625 
L 10.984375 69.390625 
L 28.421875 72.90625 
L 38.28125 72.90625 
L 38.28125 8.296875 
L 54.390625 8.296875 
L 54.390625 0 
L 12.40625 0 
z
" id="DejaVuSans-49"/>
       </defs>
       <use xlink:href="#DejaVuSans-49"/>
       <use x="63.623047" xlink:href="#DejaVuSans-48"/>
      </g>
     </g>
    </g>
    <g id="ytick_2">
     <g id="line2d_7">
      <g>
       <use style="stroke:#000000;stroke-width:0.8;" x="57.6" xlink:href="#m89b8b7f8ed" y="247.451084"/>
      </g>
     </g>
     <g id="text_7">
      <!-- 20 -->
      <g transform="translate(37.875 251.250302)scale(0.1 -0.1)">
       <use xlink:href="#DejaVuSans-50"/>
       <use x="63.623047" xlink:href="#DejaVuSans-48"/>
      </g>
     </g>
    </g>
    <g id="ytick_3">
     <g id="line2d_8">
      <g>
       <use style="stroke:#000000;stroke-width:0.8;" x="57.6" xlink:href="#m89b8b7f8ed" y="213.825842"/>
      </g>
     </g>
     <g id="text_8">
      <!-- 30 -->
      <g transform="translate(37.875 217.625061)scale(0.1 -0.1)">
       <defs>
        <path d="M 40.578125 39.3125 
Q 47.65625 37.796875 51.625 33 
Q 55.609375 28.21875 55.609375 21.1875 
Q 55.609375 10.40625 48.1875 4.484375 
Q 40.765625 -1.421875 27.09375 -1.421875 
Q 22.515625 -1.421875 17.65625 -0.515625 
Q 12.796875 0.390625 7.625 2.203125 
L 7.625 11.71875 
Q 11.71875 9.328125 16.59375 8.109375 
Q 21.484375 6.890625 26.8125 6.890625 
Q 36.078125 6.890625 40.9375 10.546875 
Q 45.796875 14.203125 45.796875 21.1875 
Q 45.796875 27.640625 41.28125 31.265625 
Q 36.765625 34.90625 28.71875 34.90625 
L 20.21875 34.90625 
L 20.21875 43.015625 
L 29.109375 43.015625 
Q 36.375 43.015625 40.234375 45.921875 
Q 44.09375 48.828125 44.09375 54.296875 
Q 44.09375 59.90625 40.109375 62.90625 
Q 36.140625 65.921875 28.71875 65.921875 
Q 24.65625 65.921875 20.015625 65.03125 
Q 15.375 64.15625 9.8125 62.3125 
L 9.8125 71.09375 
Q 15.4375 72.65625 20.34375 73.4375 
Q 25.25 74.21875 29.59375 74.21875 
Q 40.828125 74.21875 47.359375 69.109375 
Q 53.90625 64.015625 53.90625 55.328125 
Q 53.90625 49.265625 50.4375 45.09375 
Q 46.96875 40.921875 40.578125 39.3125 
z
" id="DejaVuSans-51"/>
       </defs>
       <use xlink:href="#DejaVuSans-51"/>
       <use x="63.623047" xlink:href="#DejaVuSans-48"/>
      </g>
     </g>
    </g>
    <g id="ytick_4">
     <g id="line2d_9">
      <g>
       <use style="stroke:#000000;stroke-width:0.8;" x="57.6" xlink:href="#m89b8b7f8ed" y="180.2006"/>
      </g>
     </g>
     <g id="text_9">
      <!-- 40 -->
      <g transform="translate(37.875 183.999819)scale(0.1 -0.1)">
       <use xlink:href="#DejaVuSans-52"/>
       <use x="63.623047" xlink:href="#DejaVuSans-48"/>
      </g>
     </g>
    </g>
    <g id="ytick_5">
     <g id="line2d_10">
      <g>
       <use style="stroke:#000000;stroke-width:0.8;" x="57.6" xlink:href="#m89b8b7f8ed" y="146.575359"/>
      </g>
     </g>
     <g id="text_10">
      <!-- 50 -->
      <g transform="translate(37.875 150.374578)scale(0.1 -0.1)">
       <defs>
        <path d="M 10.796875 72.90625 
L 49.515625 72.90625 
L 49.515625 64.59375 
L 19.828125 64.59375 
L 19.828125 46.734375 
Q 21.96875 47.46875 24.109375 47.828125 
Q 26.265625 48.1875 28.421875 48.1875 
Q 40.625 48.1875 47.75 41.5 
Q 54.890625 34.8125 54.890625 23.390625 
Q 54.890625 11.625 47.5625 5.09375 
Q 40.234375 -1.421875 26.90625 -1.421875 
Q 22.3125 -1.421875 17.546875 -0.640625 
Q 12.796875 0.140625 7.71875 1.703125 
L 7.71875 11.625 
Q 12.109375 9.234375 16.796875 8.0625 
Q 21.484375 6.890625 26.703125 6.890625 
Q 35.15625 6.890625 40.078125 11.328125 
Q 45.015625 15.765625 45.015625 23.390625 
Q 45.015625 31 40.078125 35.4375 
Q 35.15625 39.890625 26.703125 39.890625 
Q 22.75 39.890625 18.8125 39.015625 
Q 14.890625 38.140625 10.796875 36.28125 
z
" id="DejaVuSans-53"/>
       </defs>
       <use xlink:href="#DejaVuSans-53"/>
       <use x="63.623047" xlink:href="#DejaVuSans-48"/>
      </g>
     </g>
    </g>
    <g id="ytick_6">
     <g id="line2d_11">
      <g>
       <use style="stroke:#000000;stroke-width:0.8;" x="57.6" xlink:href="#m89b8b7f8ed" y="112.950117"/>
      </g>
     </g>
     <g id="text_11">
      <!-- 60 -->
      <g transform="translate(37.875 116.749336)scale(0.1 -0.1)">
       <use xlink:href="#DejaVuSans-54"/>
       <use x="63.623047" xlink:href="#DejaVuSans-48"/>
      </g>
     </g>
    </g>
    <g id="ytick_7">
     <g id="line2d_12">
      <g>
       <use style="stroke:#000000;stroke-width:0.8;" x="57.6" xlink:href="#m89b8b7f8ed" y="79.324876"/>
      </g>
     </g>
     <g id="text_12">
      <!-- 70 -->
      <g transform="translate(37.875 83.124094)scale(0.1 -0.1)">
       <defs>
        <path d="M 8.203125 72.90625 
L 55.078125 72.90625 
L 55.078125 68.703125 
L 28.609375 0 
L 18.3125 0 
L 43.21875 64.59375 
L 8.203125 64.59375 
z
" id="DejaVuSans-55"/>
       </defs>
       <use xlink:href="#DejaVuSans-55"/>
       <use x="63.623047" xlink:href="#DejaVuSans-48"/>
      </g>
     </g>
    </g>
    <g id="ytick_8">
     <g id="line2d_13">
      <g>
       <use style="stroke:#000000;stroke-width:0.8;" x="57.6" xlink:href="#m89b8b7f8ed" y="45.699634"/>
      </g>
     </g>
     <g id="text_13">
      <!-- 80 -->
      <g transform="translate(37.875 49.498853)scale(0.1 -0.1)">
       <use xlink:href="#DejaVuSans-56"/>
       <use x="63.623047" xlink:href="#DejaVuSans-48"/>
      </g>
     </g>
    </g>
   </g>
   <g id="line2d_14">
    <path clip-path="url(#pdd86fe4baf)" d="M 127.4638 165.916598 
L 127.02331 152.742228 
L 126.956059 145.966742 
L 127.087198 139.13073 
L 127.490701 132.291356 
L 128.240543 125.495695 
L 128.76846 122.133171 
L 129.410702 118.800909 
L 130.173995 115.502273 
L 131.071789 112.250712 
L 132.110809 109.049589 
L 133.301142 105.902267 
L 134.649515 102.818832 
L 136.166013 99.80601 
L 137.860725 96.867164 
L 139.723563 94.019106 
L 141.747803 91.268561 
L 143.919994 88.625617 
L 146.240135 86.110449 
L 148.694778 83.72642 
L 151.273834 81.486979 
L 153.967216 79.408939 
L 156.774923 77.495662 
L 159.676782 75.763963 
L 162.672791 74.223926 
L 165.752863 72.862104 
L 168.900186 71.675133 
L 172.114759 70.646201 
L 175.383132 69.771944 
L 178.698581 69.035552 
L 182.047655 68.430297 
L 188.816416 67.569491 
L 195.622165 67.108825 
L 202.411101 67.028125 
L 209.159687 67.371102 
L 212.512124 67.71408 
L 215.847748 68.181471 
L 219.159834 68.773275 
L 222.44502 69.49958 
L 225.703306 70.367111 
L 228.927967 71.372506 
L 232.11564 72.522489 
L 235.256237 73.806973 
L 238.343035 75.225959 
L 241.369306 76.776082 
L 244.321602 78.453982 
L 247.199923 80.252932 
L 249.990818 82.172934 
L 252.687563 84.207261 
L 255.283431 86.352551 
L 257.775062 88.608805 
L 260.172541 90.959209 
L 264.735487 95.88867 
L 269.089955 101.029969 
L 279.769332 114.083288 
L 286.417042 121.67923 
L 295.482408 131.605401 
L 306.807389 144.03329 
L 313.421474 151.659495 
L 317.688517 156.857958 
L 321.807609 162.177471 
L 325.741762 167.63821 
L 329.453989 173.256988 
L 332.900576 179.043892 
L 336.037811 185.015735 
L 338.821981 191.179242 
L 340.069478 194.340014 
L 341.206011 197.5445 
L 342.224856 200.792698 
L 343.119287 204.071159 
L 343.875855 207.383246 
L 344.487835 210.71887 
L 344.9485 214.067944 
L 345.24104 217.43383 
L 345.365453 220.80308 
L 345.304928 224.175691 
L 345.052739 227.541578 
L 344.615611 230.890652 
L 343.996906 234.219551 
L 343.193263 237.514825 
L 342.214768 240.769748 
L 341.064785 243.977596 
L 339.73995 247.121556 
L 338.253715 250.201628 
L 336.602715 253.201 
L 334.793677 256.116308 
L 332.826601 258.934104 
L 330.714936 261.644298 
L 328.458682 264.236804 
L 326.067927 266.698172 
L 323.546034 269.011588 
L 320.90309 271.166966 
L 318.14582 273.154218 
L 315.277587 274.959894 
L 312.308478 276.570543 
L 309.241856 277.972715 
L 306.087809 279.159686 
L 302.856423 280.134818 
L 299.561149 280.904836 
L 296.215438 281.473103 
L 292.829376 281.849706 
L 289.416414 282.038007 
L 285.990002 282.051457 
L 282.566952 281.890056 
L 279.150628 281.560529 
L 275.761203 281.076325 
L 272.405404 280.437445 
L 269.093318 279.647252 
L 265.828307 278.705746 
L 262.617096 277.616288 
L 259.466411 276.375516 
L 256.379614 274.990156 
L 253.36343 273.456845 
L 250.421221 271.775583 
L 247.563076 269.949733 
L 244.788993 267.979293 
L 242.112424 265.867628 
L 239.536731 263.614737 
L 237.082088 261.23407 
L 234.751859 258.72899 
L 232.566218 256.106221 
L 230.528528 253.369126 
L 228.658965 250.527793 
L 226.967615 247.585584 
L 225.461204 244.549225 
L 224.156545 241.428803 
L 223.063725 238.22768 
L 222.179381 234.959306 
L 221.500151 231.63377 
L 221.029398 228.267883 
L 220.760396 224.868371 
L 220.68642 221.452047 
L 220.814196 218.028997 
L 221.133636 214.612673 
L 221.641377 211.216523 
L 222.340782 207.853999 
L 223.225126 204.531825 
L 224.294409 201.270177 
L 225.541905 198.075779 
L 226.967615 194.962081 
L 228.568177 191.942535 
L 230.340227 189.033951 
L 232.283766 186.239694 
L 234.392069 183.579937 
L 236.665135 181.061407 
L 239.102965 178.700915 
L 239.102965 178.700915 
" style="fill:none;stroke:#fea952;stroke-linecap:square;"/>
   </g>
   <g id="line2d_15">
    <path clip-path="url(#pdd86fe4baf)" d="M 114.023662 166.434064 
L 113.574917 152.956332 
L 113.506615 145.834235 
L 113.652028 138.497245 
L 114.101845 131.009304 
L 114.470632 127.21684 
L 114.95321 123.409583 
L 115.561425 119.587718 
L 116.306849 115.768723 
L 117.209031 111.922495 
L 118.27871 108.098337 
L 119.530397 104.291613 
L 120.977813 100.51333 
L 122.635516 96.771607 
L 124.514402 93.087003 
L 126.604574 89.504817 
L 128.890827 86.046847 
L 131.356876 82.728436 
L 134.033777 79.505979 
L 136.869272 76.462029 
L 139.876325 73.570634 
L 143.057754 70.837982 
L 146.393173 68.29413 
L 149.88248 65.9458 
L 153.527834 63.801708 
L 157.233874 61.922574 
L 161.006652 60.277249 
L 164.79995 58.865248 
L 168.639188 57.652914 
L 172.466807 56.641821 
L 176.306589 55.799862 
L 180.138098 55.116444 
L 183.939769 54.5781 
L 191.489384 53.863487 
L 199.058305 53.568 
L 202.878764 53.586161 
L 206.692047 53.725744 
L 210.52858 53.990847 
L 214.378531 54.394109 
L 218.213545 54.941074 
L 222.063335 55.640309 
L 225.905599 56.502292 
L 229.706747 57.526645 
L 233.492282 58.720545 
L 237.20725 60.073369 
L 240.874031 61.586274 
L 244.474866 63.254921 
L 248.015153 65.082588 
L 251.450139 67.048323 
L 254.82319 69.171827 
L 258.090835 71.435391 
L 261.255762 73.839471 
L 264.311507 76.382649 
L 267.190955 79.004324 
L 269.909384 81.680254 
L 274.931424 87.116671 
L 279.516455 92.53331 
L 292.070592 107.766638 
L 298.60422 115.110657 
L 319.195511 137.740167 
L 326.017567 145.774379 
L 330.471638 151.353613 
L 334.788019 157.131944 
L 338.927642 163.133468 
L 342.861533 169.39913 
L 346.50631 175.921619 
L 348.206497 179.286145 
L 349.820132 182.72891 
L 351.332898 186.241422 
L 352.745898 189.844075 
L 354.039597 193.519058 
L 355.200715 197.252618 
L 356.231641 201.075952 
L 357.105143 204.956098 
L 357.81247 208.886063 
L 358.348083 212.903345 
L 358.681976 216.937508 
L 358.813385 221.044418 
L 358.71743 225.180624 
L 358.389711 229.282347 
L 357.839251 233.348379 
L 357.064023 237.406328 
L 356.073919 241.387005 
L 354.875874 245.308635 
L 353.459372 249.200556 
L 351.853528 252.966754 
L 350.036672 256.687538 
L 348.031272 260.292769 
L 345.822309 263.815294 
L 343.436372 267.200774 
L 340.860769 270.4742 
L 338.106724 273.608058 
L 335.160079 276.609674 
L 332.046523 279.434965 
L 328.767302 282.078395 
L 325.311502 284.536577 
L 321.690973 286.782481 
L 317.901438 288.802628 
L 313.979204 290.560909 
L 309.973558 292.036256 
L 305.916908 293.23209 
L 301.813382 294.165023 
L 297.702209 294.840773 
L 293.570323 295.279378 
L 289.469211 295.488 
L 285.356516 295.486627 
L 281.275594 295.278017 
L 277.248497 294.875445 
L 273.245744 294.289105 
L 269.284101 293.520357 
L 265.366662 292.570763 
L 261.507054 291.442773 
L 257.688708 290.130923 
L 253.959197 288.646445 
L 250.284483 286.979922 
L 246.690313 285.1348 
L 243.18036 283.110265 
L 239.774311 280.915144 
L 236.458159 278.538758 
L 233.257345 275.991495 
L 230.172676 273.269766 
L 227.233952 270.394819 
L 224.419208 267.339532 
L 221.77758 264.138057 
L 219.29257 260.762254 
L 216.998272 257.231026 
L 214.918861 253.563261 
L 213.05207 249.737527 
L 211.427749 245.774243 
L 210.080495 241.740632 
L 209.001348 237.650876 
L 208.179703 233.49677 
L 207.621213 229.328867 
L 207.313451 225.159545 
L 207.245684 220.95033 
L 207.422514 216.776822 
L 207.831382 212.62392 
L 208.47312 208.477526 
L 209.343302 204.394143 
L 210.444319 200.341829 
L 211.765798 196.377425 
L 213.312812 192.47628 
L 215.083803 188.662867 
L 217.081945 184.944565 
L 219.298431 181.353857 
L 221.74341 177.884696 
L 224.407295 174.568312 
L 227.308986 171.398717 
L 229.746816 169.038225 
L 229.746816 169.038225 
" style="fill:none;stroke:#ffffff;stroke-linecap:square;"/>
   </g>
   <g id="line2d_16">
    <path clip-path="url(#pdd86fe4baf)" d="M 140.903939 165.399131 
L 140.471702 152.528124 
L 140.405503 146.099249 
L 140.522368 139.764216 
L 140.879556 133.573408 
L 141.527877 127.581806 
L 142.514554 121.833095 
L 143.138959 119.082051 
L 143.864868 116.403088 
L 144.691221 113.807565 
L 145.624472 111.291204 
L 146.663513 108.866057 
L 147.817624 106.525017 
L 149.116877 104.229511 
L 150.5563 101.991365 
L 152.13873 99.808687 
L 153.806211 97.745256 
L 155.610999 95.75887 
L 157.513231 93.882206 
L 159.489914 92.135975 
L 161.541259 90.523747 
L 163.667367 89.045525 
L 165.82573 87.726217 
L 168.111708 86.525279 
L 170.499074 85.446959 
L 173.000421 84.485019 
L 175.590329 83.639488 
L 178.299458 82.902068 
L 181.090573 82.271241 
L 186.90749 81.314088 
L 192.949197 80.724041 
L 198.978324 80.468074 
L 204.895554 80.565882 
L 210.645717 81.034051 
L 216.256333 81.90624 
L 218.984442 82.496868 
L 221.699866 83.207577 
L 224.363652 84.024467 
L 227.024029 84.97161 
L 229.638443 86.027673 
L 232.211203 87.196996 
L 234.723459 88.469577 
L 237.193065 89.859641 
L 239.576656 91.334038 
L 241.890801 92.910476 
L 244.119363 94.57505 
L 246.255355 96.322453 
L 248.359168 98.213286 
L 252.487258 102.382747 
L 256.600764 107.054006 
L 262.878061 114.724898 
L 269.561051 122.840919 
L 276.427701 130.685792 
L 285.589431 140.717707 
L 296.730236 152.941494 
L 303.076705 160.255474 
L 307.121796 165.179587 
L 310.969075 170.141846 
L 314.598339 175.17009 
L 317.989894 180.291163 
L 321.084093 185.468518 
L 323.869126 190.745325 
L 326.311065 196.117061 
L 328.372425 201.569941 
L 330.006933 207.066367 
L 330.646567 209.810393 
L 331.163199 212.551676 
L 331.548918 215.232543 
L 331.800104 217.930152 
L 331.917522 220.561741 
L 331.892426 223.170759 
L 331.715767 225.800809 
L 331.39197 228.432925 
L 330.929789 231.032774 
L 330.312606 233.642644 
L 329.553662 236.230861 
L 328.670198 238.754636 
L 327.626373 241.276358 
L 326.470758 243.715718 
L 325.174159 246.109231 
L 323.765045 248.417323 
L 322.216829 250.667433 
L 320.569102 252.814396 
L 318.81064 254.865551 
L 316.975776 256.786669 
L 315.045545 258.588212 
L 313.038878 260.255538 
L 310.980138 261.771859 
L 308.864202 263.137306 
L 306.715519 264.338458 
L 304.504508 265.384521 
L 302.202059 266.283116 
L 299.795938 267.037546 
L 297.308917 267.64465 
L 294.728666 268.105433 
L 292.088429 268.420033 
L 289.363617 268.588014 
L 286.623487 268.616287 
L 283.858311 268.502095 
L 281.052759 268.245612 
L 278.276663 267.863545 
L 275.526708 267.354534 
L 272.819974 266.723741 
L 270.14956 265.968718 
L 267.545485 265.101653 
L 264.973625 264.104588 
L 262.474746 263.000391 
L 260.036547 261.778891 
L 257.662083 260.440901 
L 255.351841 258.984321 
L 253.119828 257.419828 
L 250.967503 255.743762 
L 248.900786 253.959709 
L 246.930224 252.073321 
L 245.084509 250.118447 
L 243.354856 248.074385 
L 241.764487 245.975998 
L 240.319658 243.82456 
L 239.01637 241.607908 
L 237.870339 239.360923 
L 236.885341 237.083363 
L 236.046955 234.714728 
L 235.357414 232.267736 
L 234.820599 229.77077 
L 234.437582 227.206899 
L 234.20734 224.577197 
L 234.127156 221.953764 
L 234.205878 219.281172 
L 234.43589 216.601425 
L 234.809634 213.955521 
L 235.338263 211.313855 
L 236.005933 208.721822 
L 236.823019 206.162929 
L 237.770998 203.675277 
L 238.851428 201.261296 
L 240.054408 198.940505 
L 241.382023 196.714045 
L 242.824122 194.594692 
L 244.376843 192.591562 
L 246.021284 190.724096 
L 248.459114 188.363604 
L 248.459114 188.363604 
" style="fill:none;stroke:#ffffff;stroke-linecap:square;"/>
   </g>
   <g id="patch_3">
    <path d="M 57.6 307.584 
L 57.6 41.472 
" style="fill:none;stroke:#000000;stroke-linecap:square;stroke-linejoin:miter;stroke-width:0.8;"/>
   </g>
   <g id="patch_4">
    <path d="M 414.72 307.584 
L 414.72 41.472 
" style="fill:none;stroke:#000000;stroke-linecap:square;stroke-linejoin:miter;stroke-width:0.8;"/>
   </g>
   <g id="patch_5">
    <path d="M 57.6 307.584 
L 414.72 307.584 
" style="fill:none;stroke:#000000;stroke-linecap:square;stroke-linejoin:miter;stroke-width:0.8;"/>
   </g>
   <g id="patch_6">
    <path d="M 57.6 41.472 
L 414.72 41.472 
" style="fill:none;stroke:#000000;stroke-linecap:square;stroke-linejoin:miter;stroke-width:0.8;"/>
   </g>
  </g>
 </g>
 <defs>
  <clipPath id="pdd86fe4baf">
   <rect height="266.112" width="357.12" x="57.6" y="41.472"/>
  </clipPath>
 </defs>
</svg>
