<?xml version="1.0" encoding="utf-8" standalone="no"?>
<!DOCTYPE svg PUBLIC "-//W3C//DTD SVG 1.1//EN"
  "http://www.w3.org/Graphics/SVG/1.1/DTD/svg11.dtd">
<!-- Created with matplotlib (https://matplotlib.org/) -->
<svg height="345.6pt" version="1.1" viewBox="0 0 460.8 345.6" width="460.8pt" xmlns="http://www.w3.org/2000/svg" xmlns:xlink="http://www.w3.org/1999/xlink">
 <metadata>
  <rdf:RDF xmlns:cc="http://creativecommons.org/ns#" xmlns:dc="http://purl.org/dc/elements/1.1/" xmlns:rdf="http://www.w3.org/1999/02/22-rdf-syntax-ns#">
   <cc:Work>
    <dc:type rdf:resource="http://purl.org/dc/dcmitype/StillImage"/>
    <dc:date>2021-01-22T10:45:27.592727</dc:date>
    <dc:format>image/svg+xml</dc:format>
    <dc:creator>
     <cc:Agent>
      <dc:title>Matplotlib v3.3.3, https://matplotlib.org/</dc:title>
     </cc:Agent>
    </dc:creator>
   </cc:Work>
  </rdf:RDF>
 </metadata>
 <defs>
  <style type="text/css">*{stroke-linecap:butt;stroke-linejoin:round;}</style>
 </defs>
 <g id="figure_1">
  <g id="patch_1">
   <path d="M 0 345.6 
L 460.8 345.6 
L 460.8 0 
L 0 0 
z
" style="fill:#ffffff;"/>
  </g>
  <g id="axes_1">
   <g id="patch_2">
    <path d="M 57.6 307.584 
L 414.72 307.584 
L 414.72 41.472 
L 57.6 41.472 
z
" style="fill:#7d9051;"/>
   </g>
   <g id="matplotlib.axis_1">
    <g id="xtick_1">
     <g id="line2d_1">
      <defs>
       <path d="M 0 0 
L 0 3.5 
" id="m896fab6ad1" style="stroke:#000000;stroke-width:0.8;"/>
      </defs>
      <g>
       <use style="stroke:#000000;stroke-width:0.8;" x="116.378893" xlink:href="#m896fab6ad1" y="307.584"/>
      </g>
     </g>
     <g id="text_1">
      <!-- 20 -->
      <g transform="translate(110.016393 322.182437)scale(0.1 -0.1)">
       <defs>
        <path d="M 19.1875 8.296875 
L 53.609375 8.296875 
L 53.609375 0 
L 7.328125 0 
L 7.328125 8.296875 
Q 12.9375 14.109375 22.625 23.890625 
Q 32.328125 33.6875 34.8125 36.53125 
Q 39.546875 41.84375 41.421875 45.53125 
Q 43.3125 49.21875 43.3125 52.78125 
Q 43.3125 58.59375 39.234375 62.25 
Q 35.15625 65.921875 28.609375 65.921875 
Q 23.96875 65.921875 18.8125 64.3125 
Q 13.671875 62.703125 7.8125 59.421875 
L 7.8125 69.390625 
Q 13.765625 71.78125 18.9375 73 
Q 24.125 74.21875 28.421875 74.21875 
Q 39.75 74.21875 46.484375 68.546875 
Q 53.21875 62.890625 53.21875 53.421875 
Q 53.21875 48.921875 51.53125 44.890625 
Q 49.859375 40.875 45.40625 35.40625 
Q 44.1875 33.984375 37.640625 27.21875 
Q 31.109375 20.453125 19.1875 8.296875 
z
" id="DejaVuSans-50"/>
        <path d="M 31.78125 66.40625 
Q 24.171875 66.40625 20.328125 58.90625 
Q 16.5 51.421875 16.5 36.375 
Q 16.5 21.390625 20.328125 13.890625 
Q 24.171875 6.390625 31.78125 6.390625 
Q 39.453125 6.390625 43.28125 13.890625 
Q 47.125 21.390625 47.125 36.375 
Q 47.125 51.421875 43.28125 58.90625 
Q 39.453125 66.40625 31.78125 66.40625 
z
M 31.78125 74.21875 
Q 44.046875 74.21875 50.515625 64.515625 
Q 56.984375 54.828125 56.984375 36.375 
Q 56.984375 17.96875 50.515625 8.265625 
Q 44.046875 -1.421875 31.78125 -1.421875 
Q 19.53125 -1.421875 13.0625 8.265625 
Q 6.59375 17.96875 6.59375 36.375 
Q 6.59375 54.828125 13.0625 64.515625 
Q 19.53125 74.21875 31.78125 74.21875 
z
" id="DejaVuSans-48"/>
       </defs>
       <use xlink:href="#DejaVuSans-50"/>
       <use x="63.623047" xlink:href="#DejaVuSans-48"/>
      </g>
     </g>
    </g>
    <g id="xtick_2">
     <g id="line2d_2">
      <g>
       <use style="stroke:#000000;stroke-width:0.8;" x="176.57871" xlink:href="#m896fab6ad1" y="307.584"/>
      </g>
     </g>
     <g id="text_2">
      <!-- 40 -->
      <g transform="translate(170.21621 322.182437)scale(0.1 -0.1)">
       <defs>
        <path d="M 37.796875 64.3125 
L 12.890625 25.390625 
L 37.796875 25.390625 
z
M 35.203125 72.90625 
L 47.609375 72.90625 
L 47.609375 25.390625 
L 58.015625 25.390625 
L 58.015625 17.1875 
L 47.609375 17.1875 
L 47.609375 0 
L 37.796875 0 
L 37.796875 17.1875 
L 4.890625 17.1875 
L 4.890625 26.703125 
z
" id="DejaVuSans-52"/>
       </defs>
       <use xlink:href="#DejaVuSans-52"/>
       <use x="63.623047" xlink:href="#DejaVuSans-48"/>
      </g>
     </g>
    </g>
    <g id="xtick_3">
     <g id="line2d_3">
      <g>
       <use style="stroke:#000000;stroke-width:0.8;" x="236.778526" xlink:href="#m896fab6ad1" y="307.584"/>
      </g>
     </g>
     <g id="text_3">
      <!-- 60 -->
      <g transform="translate(230.416026 322.182437)scale(0.1 -0.1)">
       <defs>
        <path d="M 33.015625 40.375 
Q 26.375 40.375 22.484375 35.828125 
Q 18.609375 31.296875 18.609375 23.390625 
Q 18.609375 15.53125 22.484375 10.953125 
Q 26.375 6.390625 33.015625 6.390625 
Q 39.65625 6.390625 43.53125 10.953125 
Q 47.40625 15.53125 47.40625 23.390625 
Q 47.40625 31.296875 43.53125 35.828125 
Q 39.65625 40.375 33.015625 40.375 
z
M 52.59375 71.296875 
L 52.59375 62.3125 
Q 48.875 64.0625 45.09375 64.984375 
Q 41.3125 65.921875 37.59375 65.921875 
Q 27.828125 65.921875 22.671875 59.328125 
Q 17.53125 52.734375 16.796875 39.40625 
Q 19.671875 43.65625 24.015625 45.921875 
Q 28.375 48.1875 33.59375 48.1875 
Q 44.578125 48.1875 50.953125 41.515625 
Q 57.328125 34.859375 57.328125 23.390625 
Q 57.328125 12.15625 50.6875 5.359375 
Q 44.046875 -1.421875 33.015625 -1.421875 
Q 20.359375 -1.421875 13.671875 8.265625 
Q 6.984375 17.96875 6.984375 36.375 
Q 6.984375 53.65625 15.1875 63.9375 
Q 23.390625 74.21875 37.203125 74.21875 
Q 40.921875 74.21875 44.703125 73.484375 
Q 48.484375 72.75 52.59375 71.296875 
z
" id="DejaVuSans-54"/>
       </defs>
       <use xlink:href="#DejaVuSans-54"/>
       <use x="63.623047" xlink:href="#DejaVuSans-48"/>
      </g>
     </g>
    </g>
    <g id="xtick_4">
     <g id="line2d_4">
      <g>
       <use style="stroke:#000000;stroke-width:0.8;" x="296.978342" xlink:href="#m896fab6ad1" y="307.584"/>
      </g>
     </g>
     <g id="text_4">
      <!-- 80 -->
      <g transform="translate(290.615842 322.182437)scale(0.1 -0.1)">
       <defs>
        <path d="M 31.78125 34.625 
Q 24.75 34.625 20.71875 30.859375 
Q 16.703125 27.09375 16.703125 20.515625 
Q 16.703125 13.921875 20.71875 10.15625 
Q 24.75 6.390625 31.78125 6.390625 
Q 38.8125 6.390625 42.859375 10.171875 
Q 46.921875 13.96875 46.921875 20.515625 
Q 46.921875 27.09375 42.890625 30.859375 
Q 38.875 34.625 31.78125 34.625 
z
M 21.921875 38.8125 
Q 15.578125 40.375 12.03125 44.71875 
Q 8.5 49.078125 8.5 55.328125 
Q 8.5 64.0625 14.71875 69.140625 
Q 20.953125 74.21875 31.78125 74.21875 
Q 42.671875 74.21875 48.875 69.140625 
Q 55.078125 64.0625 55.078125 55.328125 
Q 55.078125 49.078125 51.53125 44.71875 
Q 48 40.375 41.703125 38.8125 
Q 48.828125 37.15625 52.796875 32.3125 
Q 56.78125 27.484375 56.78125 20.515625 
Q 56.78125 9.90625 50.3125 4.234375 
Q 43.84375 -1.421875 31.78125 -1.421875 
Q 19.734375 -1.421875 13.25 4.234375 
Q 6.78125 9.90625 6.78125 20.515625 
Q 6.78125 27.484375 10.78125 32.3125 
Q 14.796875 37.15625 21.921875 38.8125 
z
M 18.3125 54.390625 
Q 18.3125 48.734375 21.84375 45.5625 
Q 25.390625 42.390625 31.78125 42.390625 
Q 38.140625 42.390625 41.71875 45.5625 
Q 45.3125 48.734375 45.3125 54.390625 
Q 45.3125 60.0625 41.71875 63.234375 
Q 38.140625 66.40625 31.78125 66.40625 
Q 25.390625 66.40625 21.84375 63.234375 
Q 18.3125 60.0625 18.3125 54.390625 
z
" id="DejaVuSans-56"/>
       </defs>
       <use xlink:href="#DejaVuSans-56"/>
       <use x="63.623047" xlink:href="#DejaVuSans-48"/>
      </g>
     </g>
    </g>
    <g id="xtick_5">
     <g id="line2d_5">
      <g>
       <use style="stroke:#000000;stroke-width:0.8;" x="357.178159" xlink:href="#m896fab6ad1" y="307.584"/>
      </g>
     </g>
     <g id="text_5">
      <!-- 100 -->
      <g transform="translate(347.634409 322.182437)scale(0.1 -0.1)">
       <defs>
        <path d="M 12.40625 8.296875 
L 28.515625 8.296875 
L 28.515625 63.921875 
L 10.984375 60.40625 
L 10.984375 69.390625 
L 28.421875 72.90625 
L 38.28125 72.90625 
L 38.28125 8.296875 
L 54.390625 8.296875 
L 54.390625 0 
L 12.40625 0 
z
" id="DejaVuSans-49"/>
       </defs>
       <use xlink:href="#DejaVuSans-49"/>
       <use x="63.623047" xlink:href="#DejaVuSans-48"/>
       <use x="127.246094" xlink:href="#DejaVuSans-48"/>
      </g>
     </g>
    </g>
   </g>
   <g id="matplotlib.axis_2">
    <g id="ytick_1">
     <g id="line2d_6">
      <defs>
       <path d="M 0 0 
L -3.5 0 
" id="m4460d939ed" style="stroke:#000000;stroke-width:0.8;"/>
      </defs>
      <g>
       <use style="stroke:#000000;stroke-width:0.8;" x="57.6" xlink:href="#m4460d939ed" y="283.76271"/>
      </g>
     </g>
     <g id="text_6">
      <!-- 0 -->
      <g transform="translate(44.2375 287.561929)scale(0.1 -0.1)">
       <use xlink:href="#DejaVuSans-48"/>
      </g>
     </g>
    </g>
    <g id="ytick_2">
     <g id="line2d_7">
      <g>
       <use style="stroke:#000000;stroke-width:0.8;" x="57.6" xlink:href="#m4460d939ed" y="253.662802"/>
      </g>
     </g>
     <g id="text_7">
      <!-- 10 -->
      <g transform="translate(37.875 257.46202)scale(0.1 -0.1)">
       <use xlink:href="#DejaVuSans-49"/>
       <use x="63.623047" xlink:href="#DejaVuSans-48"/>
      </g>
     </g>
    </g>
    <g id="ytick_3">
     <g id="line2d_8">
      <g>
       <use style="stroke:#000000;stroke-width:0.8;" x="57.6" xlink:href="#m4460d939ed" y="223.562894"/>
      </g>
     </g>
     <g id="text_8">
      <!-- 20 -->
      <g transform="translate(37.875 227.362112)scale(0.1 -0.1)">
       <use xlink:href="#DejaVuSans-50"/>
       <use x="63.623047" xlink:href="#DejaVuSans-48"/>
      </g>
     </g>
    </g>
    <g id="ytick_4">
     <g id="line2d_9">
      <g>
       <use style="stroke:#000000;stroke-width:0.8;" x="57.6" xlink:href="#m4460d939ed" y="193.462985"/>
      </g>
     </g>
     <g id="text_9">
      <!-- 30 -->
      <g transform="translate(37.875 197.262204)scale(0.1 -0.1)">
       <defs>
        <path d="M 40.578125 39.3125 
Q 47.65625 37.796875 51.625 33 
Q 55.609375 28.21875 55.609375 21.1875 
Q 55.609375 10.40625 48.1875 4.484375 
Q 40.765625 -1.421875 27.09375 -1.421875 
Q 22.515625 -1.421875 17.65625 -0.515625 
Q 12.796875 0.390625 7.625 2.203125 
L 7.625 11.71875 
Q 11.71875 9.328125 16.59375 8.109375 
Q 21.484375 6.890625 26.8125 6.890625 
Q 36.078125 6.890625 40.9375 10.546875 
Q 45.796875 14.203125 45.796875 21.1875 
Q 45.796875 27.640625 41.28125 31.265625 
Q 36.765625 34.90625 28.71875 34.90625 
L 20.21875 34.90625 
L 20.21875 43.015625 
L 29.109375 43.015625 
Q 36.375 43.015625 40.234375 45.921875 
Q 44.09375 48.828125 44.09375 54.296875 
Q 44.09375 59.90625 40.109375 62.90625 
Q 36.140625 65.921875 28.71875 65.921875 
Q 24.65625 65.921875 20.015625 65.03125 
Q 15.375 64.15625 9.8125 62.3125 
L 9.8125 71.09375 
Q 15.4375 72.65625 20.34375 73.4375 
Q 25.25 74.21875 29.59375 74.21875 
Q 40.828125 74.21875 47.359375 69.109375 
Q 53.90625 64.015625 53.90625 55.328125 
Q 53.90625 49.265625 50.4375 45.09375 
Q 46.96875 40.921875 40.578125 39.3125 
z
" id="DejaVuSans-51"/>
       </defs>
       <use xlink:href="#DejaVuSans-51"/>
       <use x="63.623047" xlink:href="#DejaVuSans-48"/>
      </g>
     </g>
    </g>
    <g id="ytick_5">
     <g id="line2d_10">
      <g>
       <use style="stroke:#000000;stroke-width:0.8;" x="57.6" xlink:href="#m4460d939ed" y="163.363077"/>
      </g>
     </g>
     <g id="text_10">
      <!-- 40 -->
      <g transform="translate(37.875 167.162296)scale(0.1 -0.1)">
       <use xlink:href="#DejaVuSans-52"/>
       <use x="63.623047" xlink:href="#DejaVuSans-48"/>
      </g>
     </g>
    </g>
    <g id="ytick_6">
     <g id="line2d_11">
      <g>
       <use style="stroke:#000000;stroke-width:0.8;" x="57.6" xlink:href="#m4460d939ed" y="133.263169"/>
      </g>
     </g>
     <g id="text_11">
      <!-- 50 -->
      <g transform="translate(37.875 137.062388)scale(0.1 -0.1)">
       <defs>
        <path d="M 10.796875 72.90625 
L 49.515625 72.90625 
L 49.515625 64.59375 
L 19.828125 64.59375 
L 19.828125 46.734375 
Q 21.96875 47.46875 24.109375 47.828125 
Q 26.265625 48.1875 28.421875 48.1875 
Q 40.625 48.1875 47.75 41.5 
Q 54.890625 34.8125 54.890625 23.390625 
Q 54.890625 11.625 47.5625 5.09375 
Q 40.234375 -1.421875 26.90625 -1.421875 
Q 22.3125 -1.421875 17.546875 -0.640625 
Q 12.796875 0.140625 7.71875 1.703125 
L 7.71875 11.625 
Q 12.109375 9.234375 16.796875 8.0625 
Q 21.484375 6.890625 26.703125 6.890625 
Q 35.15625 6.890625 40.078125 11.328125 
Q 45.015625 15.765625 45.015625 23.390625 
Q 45.015625 31 40.078125 35.4375 
Q 35.15625 39.890625 26.703125 39.890625 
Q 22.75 39.890625 18.8125 39.015625 
Q 14.890625 38.140625 10.796875 36.28125 
z
" id="DejaVuSans-53"/>
       </defs>
       <use xlink:href="#DejaVuSans-53"/>
       <use x="63.623047" xlink:href="#DejaVuSans-48"/>
      </g>
     </g>
    </g>
    <g id="ytick_7">
     <g id="line2d_12">
      <g>
       <use style="stroke:#000000;stroke-width:0.8;" x="57.6" xlink:href="#m4460d939ed" y="103.163261"/>
      </g>
     </g>
     <g id="text_12">
      <!-- 60 -->
      <g transform="translate(37.875 106.96248)scale(0.1 -0.1)">
       <use xlink:href="#DejaVuSans-54"/>
       <use x="63.623047" xlink:href="#DejaVuSans-48"/>
      </g>
     </g>
    </g>
    <g id="ytick_8">
     <g id="line2d_13">
      <g>
       <use style="stroke:#000000;stroke-width:0.8;" x="57.6" xlink:href="#m4460d939ed" y="73.063353"/>
      </g>
     </g>
     <g id="text_13">
      <!-- 70 -->
      <g transform="translate(37.875 76.862572)scale(0.1 -0.1)">
       <defs>
        <path d="M 8.203125 72.90625 
L 55.078125 72.90625 
L 55.078125 68.703125 
L 28.609375 0 
L 18.3125 0 
L 43.21875 64.59375 
L 8.203125 64.59375 
z
" id="DejaVuSans-55"/>
       </defs>
       <use xlink:href="#DejaVuSans-55"/>
       <use x="63.623047" xlink:href="#DejaVuSans-48"/>
      </g>
     </g>
    </g>
    <g id="ytick_9">
     <g id="line2d_14">
      <g>
       <use style="stroke:#000000;stroke-width:0.8;" x="57.6" xlink:href="#m4460d939ed" y="42.963445"/>
      </g>
     </g>
     <g id="text_14">
      <!-- 80 -->
      <g transform="translate(37.875 46.762663)scale(0.1 -0.1)">
       <use xlink:href="#DejaVuSans-56"/>
       <use x="63.623047" xlink:href="#DejaVuSans-48"/>
      </g>
     </g>
    </g>
   </g>
   <g id="line2d_15">
    <path clip-path="url(#p173caaec8c)" d="M 385.956681 234.281471 
L 386.33594 225.299658 
L 386.447309 216.254636 
L 386.31487 210.213584 
L 385.980761 204.181563 
L 385.408863 198.173621 
L 384.563055 192.201799 
L 383.413239 186.284157 
L 381.920283 180.435745 
L 380.054089 174.671613 
L 378.970492 171.824161 
L 377.781546 169.01584 
L 376.48424 166.252668 
L 375.075564 163.549697 
L 373.549499 160.912945 
L 371.909054 158.354453 
L 370.145199 155.88927 
L 368.257935 153.526427 
L 366.244251 151.274954 
L 364.098128 149.149901 
L 361.822575 147.154277 
L 359.423612 145.300122 
L 356.91328 143.587438 
L 354.300608 142.016222 
L 351.597636 140.595507 
L 348.816404 139.325291 
L 345.965943 138.205574 
L 343.061302 137.245387 
L 340.105491 136.444729 
L 337.11657 135.806611 
L 334.103569 135.334043 
L 331.069498 135.024014 
L 328.029408 134.876524 
L 324.983297 134.888564 
L 321.946216 135.057124 
L 318.921175 135.382203 
L 315.920215 135.857781 
L 312.943334 136.483859 
L 310.005583 137.260437 
L 307.109972 138.178484 
L 304.26854 139.244021 
L 301.478279 140.441997 
L 298.751227 141.775423 
L 296.087385 143.232259 
L 293.489763 144.809494 
L 290.967391 146.498099 
L 288.517258 148.295063 
L 286.151405 150.191357 
L 283.866822 152.183971 
L 281.669529 154.266885 
L 279.565546 156.431068 
L 275.613428 160.982175 
L 271.971339 165.79214 
L 268.603159 170.809795 
L 265.466749 175.983969 
L 262.525988 181.266503 
L 252.644188 199.886306 
L 249.555937 205.0364 
L 246.199797 210.029975 
L 242.575768 214.84596 
L 238.6989 219.478336 
L 234.590263 223.915063 
L 230.270926 228.14711 
L 225.75594 232.162437 
L 221.042294 235.936966 
L 216.129989 239.443605 
L 211.019025 242.655265 
L 205.706391 245.541847 
L 200.195098 248.076259 
L 197.371726 249.195975 
L 194.512235 250.210342 
L 191.613614 251.10732 
L 188.684893 251.886907 
L 185.726072 252.537065 
L 182.743171 253.054784 
L 179.74221 253.434042 
L 176.723189 253.662802 
L 173.692129 253.741062 
L 170.658058 253.665812 
L 167.626997 253.440062 
L 164.607976 253.060804 
L 161.610025 252.534055 
L 158.642175 251.856807 
L 155.710443 251.03207 
L 152.823862 250.062853 
L 149.994471 248.943136 
L 147.225279 247.67894 
L 144.525318 246.273274 
L 141.900606 244.729149 
L 139.360173 243.052584 
L 136.904021 241.2496 
L 134.541178 239.332235 
L 132.271645 237.303502 
L 130.107462 235.169418 
L 128.048628 232.936005 
L 126.101164 230.612292 
L 124.274099 228.204299 
L 122.564425 225.718047 
L 120.972139 223.159555 
L 119.485204 220.540863 
L 116.803302 215.134919 
L 114.452499 209.554396 
L 112.375606 203.862504 
L 110.503391 198.107401 
L 107.941889 189.432608 
L 103.782082 174.990672 
L 101.00687 166.412198 
L 94.180211 146.471009 
L 92.443447 140.700856 
L 90.890291 134.879534 
L 89.532785 129.004032 
L 88.379959 123.0894 
L 87.434822 117.135638 
L 86.706404 111.154787 
L 86.197716 105.152865 
L 85.920796 99.132883 
L 85.881667 93.103872 
L 86.083336 87.07185 
L 86.278985 84.058849 
L 86.278985 84.058849 
" style="fill:none;stroke:#fea952;stroke-linecap:square;"/>
   </g>
   <g id="line2d_16">
    <path clip-path="url(#p173caaec8c)" d="M 373.932013 233.674777 
L 374.299443 225.010782 
L 374.408519 216.422675 
L 374.287549 210.765186 
L 373.983051 205.18937 
L 373.4675 199.711342 
L 372.712895 194.331219 
L 371.703011 189.082601 
L 370.403708 183.947042 
L 368.801384 178.953826 
L 366.882992 174.132699 
L 364.655049 169.580748 
L 362.117391 165.360453 
L 360.737724 163.403266 
L 359.283688 161.552859 
L 357.772812 159.830387 
L 356.159589 158.20199 
L 354.459749 156.68053 
L 352.638097 155.24585 
L 350.708284 153.905322 
L 348.698908 152.673693 
L 346.595825 151.547338 
L 344.414329 150.531648 
L 342.187015 149.637128 
L 339.91341 148.866553 
L 337.591677 148.21934 
L 335.250991 147.701162 
L 332.879668 147.311638 
L 330.486068 147.049833 
L 328.076996 146.916393 
L 325.650494 146.910027 
L 323.232656 147.028163 
L 320.805696 147.273767 
L 318.398172 147.63999 
L 316.020337 148.123995 
L 313.644323 148.737383 
L 311.337485 149.451853 
L 309.018515 150.307404 
L 306.766995 151.258198 
L 304.528294 152.338861 
L 302.336174 153.52368 
L 300.187607 154.814473 
L 296.047306 157.689694 
L 292.149898 160.921898 
L 288.512388 164.488036 
L 285.102305 168.393108 
L 281.880857 172.630427 
L 278.833166 177.158628 
L 275.943155 181.917402 
L 273.162086 186.908677 
L 263.04011 205.95965 
L 259.640019 211.614547 
L 255.917671 217.137974 
L 251.909134 222.451813 
L 247.633212 227.549197 
L 243.121757 232.41061 
L 238.385977 237.041302 
L 233.40815 241.457834 
L 228.173737 245.637648 
L 222.691629 249.538435 
L 216.93428 253.141946 
L 210.932391 256.388488 
L 207.809685 257.884424 
L 204.633693 259.268202 
L 201.396982 260.543135 
L 198.071478 261.71219 
L 194.710653 262.742141 
L 191.268854 263.646323 
L 187.784972 264.399681 
L 184.252764 264.999734 
L 180.651903 265.43959 
L 177.033949 265.698754 
L 173.39361 265.777323 
L 169.763814 265.67252 
L 166.126294 265.386133 
L 162.524437 264.919116 
L 158.931426 264.272276 
L 155.381719 263.446895 
L 151.878088 262.445823 
L 148.393431 261.25803 
L 144.994366 259.895746 
L 141.665362 258.358267 
L 138.420294 256.650625 
L 135.268817 254.778035 
L 132.235537 252.758266 
L 129.317539 250.598718 
L 126.517169 248.308649 
L 123.817931 245.87645 
L 121.254968 243.329938 
L 118.820863 240.669637 
L 116.509627 237.88987 
L 114.353366 235.026305 
L 112.342414 232.079746 
L 110.50227 229.104515 
L 108.789406 226.069028 
L 107.228205 223.034163 
L 104.431356 216.883695 
L 102.030605 210.726753 
L 99.937041 204.622182 
L 97.199572 195.64856 
L 91.438054 175.835356 
L 88.658053 167.5264 
L 82.678928 150.032076 
L 80.836373 143.900319 
L 79.183439 137.692063 
L 77.7355 131.409187 
L 76.506421 125.084347 
L 75.496931 118.70008 
L 74.719706 112.286061 
L 74.175922 105.814064 
L 73.882371 99.325306 
L 73.844874 92.827578 
L 74.068676 86.291677 
L 74.264326 83.278677 
L 74.264326 83.278677 
" style="fill:none;stroke:#ffffff;stroke-linecap:square;"/>
   </g>
   <g id="line2d_17">
    <path clip-path="url(#p173caaec8c)" d="M 397.981349 234.888165 
L 398.372437 225.588534 
L 398.487273 219.273657 
L 398.439762 212.876016 
L 398.19107 206.414391 
L 397.700274 199.897406 
L 396.922289 193.342799 
L 395.815674 186.774161 
L 394.330673 180.192666 
L 392.427824 173.639207 
L 391.306794 170.3894 
L 390.057756 167.130197 
L 388.680099 163.898981 
L 387.161232 160.688267 
L 385.496079 157.518645 
L 383.684998 154.414301 
L 381.700717 151.348452 
L 379.552674 148.375274 
L 377.232182 145.499995 
L 374.71569 142.719521 
L 372.036666 140.097811 
L 369.185401 137.628023 
L 366.209127 135.354394 
L 363.118275 133.269553 
L 359.902307 131.358752 
L 356.599446 129.643675 
L 353.218479 128.118933 
L 349.744871 126.77402 
L 346.209194 125.624221 
L 342.619305 124.670119 
L 338.982149 123.912061 
L 335.32747 123.356448 
L 331.652929 122.998195 
L 327.981819 122.836655 
L 324.3161 122.867102 
L 320.659776 123.086084 
L 317.036655 123.490639 
L 313.442258 124.075572 
L 309.866331 124.843723 
L 306.366842 125.783491 
L 302.882458 126.905115 
L 299.518565 128.180637 
L 296.189563 129.625797 
L 292.974161 131.211985 
L 289.838596 132.940837 
L 286.791919 134.804515 
L 283.846877 136.789391 
L 280.98721 138.900432 
L 278.237432 141.117784 
L 275.583746 143.446044 
L 273.03677 145.874258 
L 270.618704 148.3741 
L 268.317255 150.941443 
L 266.124551 153.571241 
L 262.061821 158.953853 
L 258.373152 164.460961 
L 254.990343 170.050535 
L 251.889889 175.624329 
L 240.875813 196.168467 
L 238.012885 200.703121 
L 234.89967 205.092717 
L 231.536184 209.340378 
L 227.940921 213.431725 
L 224.136606 217.354991 
L 220.151716 221.086801 
L 216.025556 224.583568 
L 211.752583 227.828764 
L 207.352493 230.79583 
L 202.808378 233.470298 
L 198.142974 235.830001 
L 193.346471 237.848816 
L 188.516575 239.472498 
L 183.667172 240.67445 
L 178.832518 241.428495 
L 176.41243 241.62685 
L 173.990647 241.7048 
L 171.552301 241.659103 
L 169.1277 241.493992 
L 166.691515 241.202491 
L 164.288625 240.795835 
L 161.902631 240.266719 
L 159.542799 239.618316 
L 157.254294 238.867676 
L 154.994576 237.990526 
L 152.785197 236.999613 
L 150.630341 235.895924 
L 148.532394 234.680263 
L 146.48481 233.346902 
L 144.490503 231.900482 
L 142.565187 230.355822 
L 140.725359 228.730554 
L 138.959955 227.008899 
L 137.276393 225.202373 
L 135.6927 223.334714 
L 134.194833 221.382294 
L 132.786436 219.356348 
L 130.181002 215.012697 
L 127.833528 210.308447 
L 125.718972 205.308539 
L 123.795324 200.047959 
L 122.022291 194.603736 
L 119.52449 186.145653 
L 115.280194 171.41938 
L 112.392323 162.496566 
L 104.845326 140.214419 
L 103.301 134.788421 
L 101.940058 129.339786 
L 100.767788 123.849838 
L 99.787939 118.335397 
L 99.007928 112.80298 
L 98.429573 107.254573 
L 98.063896 101.6977 
L 97.912546 96.15593 
L 97.979268 90.616053 
L 98.293645 84.839022 
L 98.293645 84.839022 
" style="fill:none;stroke:#ffffff;stroke-linecap:square;"/>
   </g>
   <g id="patch_3">
    <path d="M 57.6 307.584 
L 57.6 41.472 
" style="fill:none;stroke:#000000;stroke-linecap:square;stroke-linejoin:miter;stroke-width:0.8;"/>
   </g>
   <g id="patch_4">
    <path d="M 414.72 307.584 
L 414.72 41.472 
" style="fill:none;stroke:#000000;stroke-linecap:square;stroke-linejoin:miter;stroke-width:0.8;"/>
   </g>
   <g id="patch_5">
    <path d="M 57.6 307.584 
L 414.72 307.584 
" style="fill:none;stroke:#000000;stroke-linecap:square;stroke-linejoin:miter;stroke-width:0.8;"/>
   </g>
   <g id="patch_6">
    <path d="M 57.6 41.472 
L 414.72 41.472 
" style="fill:none;stroke:#000000;stroke-linecap:square;stroke-linejoin:miter;stroke-width:0.8;"/>
   </g>
  </g>
 </g>
 <defs>
  <clipPath id="p173caaec8c">
   <rect height="266.112" width="357.12" x="57.6" y="41.472"/>
  </clipPath>
 </defs>
</svg>
