<?xml version="1.0" encoding="utf-8" standalone="no"?>
<!DOCTYPE svg PUBLIC "-//W3C//DTD SVG 1.1//EN"
  "http://www.w3.org/Graphics/SVG/1.1/DTD/svg11.dtd">
<!-- Created with matplotlib (https://matplotlib.org/) -->
<svg height="345.6pt" version="1.1" viewBox="0 0 460.8 345.6" width="460.8pt" xmlns="http://www.w3.org/2000/svg" xmlns:xlink="http://www.w3.org/1999/xlink">
 <metadata>
  <rdf:RDF xmlns:cc="http://creativecommons.org/ns#" xmlns:dc="http://purl.org/dc/elements/1.1/" xmlns:rdf="http://www.w3.org/1999/02/22-rdf-syntax-ns#">
   <cc:Work>
    <dc:type rdf:resource="http://purl.org/dc/dcmitype/StillImage"/>
    <dc:date>2021-01-22T11:12:25.643296</dc:date>
    <dc:format>image/svg+xml</dc:format>
    <dc:creator>
     <cc:Agent>
      <dc:title>Matplotlib v3.3.3, https://matplotlib.org/</dc:title>
     </cc:Agent>
    </dc:creator>
   </cc:Work>
  </rdf:RDF>
 </metadata>
 <defs>
  <style type="text/css">*{stroke-linecap:butt;stroke-linejoin:round;}</style>
 </defs>
 <g id="figure_1">
  <g id="patch_1">
   <path d="M 0 345.6 
L 460.8 345.6 
L 460.8 0 
L 0 0 
z
" style="fill:#ffffff;"/>
  </g>
  <g id="axes_1">
   <g id="patch_2">
    <path d="M 57.6 307.584 
L 414.72 307.584 
L 414.72 41.472 
L 57.6 41.472 
z
" style="fill:#7d9051;"/>
   </g>
   <g id="matplotlib.axis_1">
    <g id="xtick_1">
     <g id="line2d_1">
      <defs>
       <path d="M 0 0 
L 0 3.5 
" id="m48d740b3f4" style="stroke:#000000;stroke-width:0.8;"/>
      </defs>
      <g>
       <use style="stroke:#000000;stroke-width:0.8;" x="59.016307" xlink:href="#m48d740b3f4" y="307.584"/>
      </g>
     </g>
     <g id="text_1">
      <!-- 0 -->
      <g transform="translate(55.835057 322.182437)scale(0.1 -0.1)">
       <defs>
        <path d="M 31.78125 66.40625 
Q 24.171875 66.40625 20.328125 58.90625 
Q 16.5 51.421875 16.5 36.375 
Q 16.5 21.390625 20.328125 13.890625 
Q 24.171875 6.390625 31.78125 6.390625 
Q 39.453125 6.390625 43.28125 13.890625 
Q 47.125 21.390625 47.125 36.375 
Q 47.125 51.421875 43.28125 58.90625 
Q 39.453125 66.40625 31.78125 66.40625 
z
M 31.78125 74.21875 
Q 44.046875 74.21875 50.515625 64.515625 
Q 56.984375 54.828125 56.984375 36.375 
Q 56.984375 17.96875 50.515625 8.265625 
Q 44.046875 -1.421875 31.78125 -1.421875 
Q 19.53125 -1.421875 13.0625 8.265625 
Q 6.59375 17.96875 6.59375 36.375 
Q 6.59375 54.828125 13.0625 64.515625 
Q 19.53125 74.21875 31.78125 74.21875 
z
" id="DejaVuSans-48"/>
       </defs>
       <use xlink:href="#DejaVuSans-48"/>
      </g>
     </g>
    </g>
    <g id="xtick_2">
     <g id="line2d_2">
      <g>
       <use style="stroke:#000000;stroke-width:0.8;" x="113.142428" xlink:href="#m48d740b3f4" y="307.584"/>
      </g>
     </g>
     <g id="text_2">
      <!-- 20 -->
      <g transform="translate(106.779928 322.182437)scale(0.1 -0.1)">
       <defs>
        <path d="M 19.1875 8.296875 
L 53.609375 8.296875 
L 53.609375 0 
L 7.328125 0 
L 7.328125 8.296875 
Q 12.9375 14.109375 22.625 23.890625 
Q 32.328125 33.6875 34.8125 36.53125 
Q 39.546875 41.84375 41.421875 45.53125 
Q 43.3125 49.21875 43.3125 52.78125 
Q 43.3125 58.59375 39.234375 62.25 
Q 35.15625 65.921875 28.609375 65.921875 
Q 23.96875 65.921875 18.8125 64.3125 
Q 13.671875 62.703125 7.8125 59.421875 
L 7.8125 69.390625 
Q 13.765625 71.78125 18.9375 73 
Q 24.125 74.21875 28.421875 74.21875 
Q 39.75 74.21875 46.484375 68.546875 
Q 53.21875 62.890625 53.21875 53.421875 
Q 53.21875 48.921875 51.53125 44.890625 
Q 49.859375 40.875 45.40625 35.40625 
Q 44.1875 33.984375 37.640625 27.21875 
Q 31.109375 20.453125 19.1875 8.296875 
z
" id="DejaVuSans-50"/>
       </defs>
       <use xlink:href="#DejaVuSans-50"/>
       <use x="63.623047" xlink:href="#DejaVuSans-48"/>
      </g>
     </g>
    </g>
    <g id="xtick_3">
     <g id="line2d_3">
      <g>
       <use style="stroke:#000000;stroke-width:0.8;" x="167.268549" xlink:href="#m48d740b3f4" y="307.584"/>
      </g>
     </g>
     <g id="text_3">
      <!-- 40 -->
      <g transform="translate(160.906049 322.182437)scale(0.1 -0.1)">
       <defs>
        <path d="M 37.796875 64.3125 
L 12.890625 25.390625 
L 37.796875 25.390625 
z
M 35.203125 72.90625 
L 47.609375 72.90625 
L 47.609375 25.390625 
L 58.015625 25.390625 
L 58.015625 17.1875 
L 47.609375 17.1875 
L 47.609375 0 
L 37.796875 0 
L 37.796875 17.1875 
L 4.890625 17.1875 
L 4.890625 26.703125 
z
" id="DejaVuSans-52"/>
       </defs>
       <use xlink:href="#DejaVuSans-52"/>
       <use x="63.623047" xlink:href="#DejaVuSans-48"/>
      </g>
     </g>
    </g>
    <g id="xtick_4">
     <g id="line2d_4">
      <g>
       <use style="stroke:#000000;stroke-width:0.8;" x="221.39467" xlink:href="#m48d740b3f4" y="307.584"/>
      </g>
     </g>
     <g id="text_4">
      <!-- 60 -->
      <g transform="translate(215.03217 322.182437)scale(0.1 -0.1)">
       <defs>
        <path d="M 33.015625 40.375 
Q 26.375 40.375 22.484375 35.828125 
Q 18.609375 31.296875 18.609375 23.390625 
Q 18.609375 15.53125 22.484375 10.953125 
Q 26.375 6.390625 33.015625 6.390625 
Q 39.65625 6.390625 43.53125 10.953125 
Q 47.40625 15.53125 47.40625 23.390625 
Q 47.40625 31.296875 43.53125 35.828125 
Q 39.65625 40.375 33.015625 40.375 
z
M 52.59375 71.296875 
L 52.59375 62.3125 
Q 48.875 64.0625 45.09375 64.984375 
Q 41.3125 65.921875 37.59375 65.921875 
Q 27.828125 65.921875 22.671875 59.328125 
Q 17.53125 52.734375 16.796875 39.40625 
Q 19.671875 43.65625 24.015625 45.921875 
Q 28.375 48.1875 33.59375 48.1875 
Q 44.578125 48.1875 50.953125 41.515625 
Q 57.328125 34.859375 57.328125 23.390625 
Q 57.328125 12.15625 50.6875 5.359375 
Q 44.046875 -1.421875 33.015625 -1.421875 
Q 20.359375 -1.421875 13.671875 8.265625 
Q 6.984375 17.96875 6.984375 36.375 
Q 6.984375 53.65625 15.1875 63.9375 
Q 23.390625 74.21875 37.203125 74.21875 
Q 40.921875 74.21875 44.703125 73.484375 
Q 48.484375 72.75 52.59375 71.296875 
z
" id="DejaVuSans-54"/>
       </defs>
       <use xlink:href="#DejaVuSans-54"/>
       <use x="63.623047" xlink:href="#DejaVuSans-48"/>
      </g>
     </g>
    </g>
    <g id="xtick_5">
     <g id="line2d_5">
      <g>
       <use style="stroke:#000000;stroke-width:0.8;" x="275.520791" xlink:href="#m48d740b3f4" y="307.584"/>
      </g>
     </g>
     <g id="text_5">
      <!-- 80 -->
      <g transform="translate(269.158291 322.182437)scale(0.1 -0.1)">
       <defs>
        <path d="M 31.78125 34.625 
Q 24.75 34.625 20.71875 30.859375 
Q 16.703125 27.09375 16.703125 20.515625 
Q 16.703125 13.921875 20.71875 10.15625 
Q 24.75 6.390625 31.78125 6.390625 
Q 38.8125 6.390625 42.859375 10.171875 
Q 46.921875 13.96875 46.921875 20.515625 
Q 46.921875 27.09375 42.890625 30.859375 
Q 38.875 34.625 31.78125 34.625 
z
M 21.921875 38.8125 
Q 15.578125 40.375 12.03125 44.71875 
Q 8.5 49.078125 8.5 55.328125 
Q 8.5 64.0625 14.71875 69.140625 
Q 20.953125 74.21875 31.78125 74.21875 
Q 42.671875 74.21875 48.875 69.140625 
Q 55.078125 64.0625 55.078125 55.328125 
Q 55.078125 49.078125 51.53125 44.71875 
Q 48 40.375 41.703125 38.8125 
Q 48.828125 37.15625 52.796875 32.3125 
Q 56.78125 27.484375 56.78125 20.515625 
Q 56.78125 9.90625 50.3125 4.234375 
Q 43.84375 -1.421875 31.78125 -1.421875 
Q 19.734375 -1.421875 13.25 4.234375 
Q 6.78125 9.90625 6.78125 20.515625 
Q 6.78125 27.484375 10.78125 32.3125 
Q 14.796875 37.15625 21.921875 38.8125 
z
M 18.3125 54.390625 
Q 18.3125 48.734375 21.84375 45.5625 
Q 25.390625 42.390625 31.78125 42.390625 
Q 38.140625 42.390625 41.71875 45.5625 
Q 45.3125 48.734375 45.3125 54.390625 
Q 45.3125 60.0625 41.71875 63.234375 
Q 38.140625 66.40625 31.78125 66.40625 
Q 25.390625 66.40625 21.84375 63.234375 
Q 18.3125 60.0625 18.3125 54.390625 
z
" id="DejaVuSans-56"/>
       </defs>
       <use xlink:href="#DejaVuSans-56"/>
       <use x="63.623047" xlink:href="#DejaVuSans-48"/>
      </g>
     </g>
    </g>
    <g id="xtick_6">
     <g id="line2d_6">
      <g>
       <use style="stroke:#000000;stroke-width:0.8;" x="329.646912" xlink:href="#m48d740b3f4" y="307.584"/>
      </g>
     </g>
     <g id="text_6">
      <!-- 100 -->
      <g transform="translate(320.103162 322.182437)scale(0.1 -0.1)">
       <defs>
        <path d="M 12.40625 8.296875 
L 28.515625 8.296875 
L 28.515625 63.921875 
L 10.984375 60.40625 
L 10.984375 69.390625 
L 28.421875 72.90625 
L 38.28125 72.90625 
L 38.28125 8.296875 
L 54.390625 8.296875 
L 54.390625 0 
L 12.40625 0 
z
" id="DejaVuSans-49"/>
       </defs>
       <use xlink:href="#DejaVuSans-49"/>
       <use x="63.623047" xlink:href="#DejaVuSans-48"/>
       <use x="127.246094" xlink:href="#DejaVuSans-48"/>
      </g>
     </g>
    </g>
    <g id="xtick_7">
     <g id="line2d_7">
      <g>
       <use style="stroke:#000000;stroke-width:0.8;" x="383.773034" xlink:href="#m48d740b3f4" y="307.584"/>
      </g>
     </g>
     <g id="text_7">
      <!-- 120 -->
      <g transform="translate(374.229284 322.182437)scale(0.1 -0.1)">
       <use xlink:href="#DejaVuSans-49"/>
       <use x="63.623047" xlink:href="#DejaVuSans-50"/>
       <use x="127.246094" xlink:href="#DejaVuSans-48"/>
      </g>
     </g>
    </g>
   </g>
   <g id="matplotlib.axis_2">
    <g id="ytick_1">
     <g id="line2d_8">
      <defs>
       <path d="M 0 0 
L -3.5 0 
" id="macefe25704" style="stroke:#000000;stroke-width:0.8;"/>
      </defs>
      <g>
       <use style="stroke:#000000;stroke-width:0.8;" x="57.6" xlink:href="#macefe25704" y="303.808492"/>
      </g>
     </g>
     <g id="text_8">
      <!-- 0 -->
      <g transform="translate(44.2375 307.607711)scale(0.1 -0.1)">
       <use xlink:href="#DejaVuSans-48"/>
      </g>
     </g>
    </g>
    <g id="ytick_2">
     <g id="line2d_9">
      <g>
       <use style="stroke:#000000;stroke-width:0.8;" x="57.6" xlink:href="#macefe25704" y="249.682371"/>
      </g>
     </g>
     <g id="text_9">
      <!-- 20 -->
      <g transform="translate(37.875 253.48159)scale(0.1 -0.1)">
       <use xlink:href="#DejaVuSans-50"/>
       <use x="63.623047" xlink:href="#DejaVuSans-48"/>
      </g>
     </g>
    </g>
    <g id="ytick_3">
     <g id="line2d_10">
      <g>
       <use style="stroke:#000000;stroke-width:0.8;" x="57.6" xlink:href="#macefe25704" y="195.55625"/>
      </g>
     </g>
     <g id="text_10">
      <!-- 40 -->
      <g transform="translate(37.875 199.355469)scale(0.1 -0.1)">
       <use xlink:href="#DejaVuSans-52"/>
       <use x="63.623047" xlink:href="#DejaVuSans-48"/>
      </g>
     </g>
    </g>
    <g id="ytick_4">
     <g id="line2d_11">
      <g>
       <use style="stroke:#000000;stroke-width:0.8;" x="57.6" xlink:href="#macefe25704" y="141.430129"/>
      </g>
     </g>
     <g id="text_11">
      <!-- 60 -->
      <g transform="translate(37.875 145.229348)scale(0.1 -0.1)">
       <use xlink:href="#DejaVuSans-54"/>
       <use x="63.623047" xlink:href="#DejaVuSans-48"/>
      </g>
     </g>
    </g>
    <g id="ytick_5">
     <g id="line2d_12">
      <g>
       <use style="stroke:#000000;stroke-width:0.8;" x="57.6" xlink:href="#macefe25704" y="87.304008"/>
      </g>
     </g>
     <g id="text_12">
      <!-- 80 -->
      <g transform="translate(37.875 91.103227)scale(0.1 -0.1)">
       <use xlink:href="#DejaVuSans-56"/>
       <use x="63.623047" xlink:href="#DejaVuSans-48"/>
      </g>
     </g>
    </g>
   </g>
   <g id="line2d_13">
    <path clip-path="url(#p0f3a482b3e)" d="M 86.079368 138.726529 
L 85.570582 136.136594 
L 85.172755 133.500652 
L 84.888593 130.821409 
L 84.715389 128.112397 
L 84.655851 125.379028 
L 84.709977 122.632127 
L 84.88318 119.877108 
L 85.170049 117.124794 
L 85.575995 114.383306 
L 86.101018 111.663469 
L 86.745119 108.970694 
L 87.511003 106.313102 
L 88.395966 103.701516 
L 89.405418 101.144057 
L 90.53936 98.646137 
L 91.795086 96.221286 
L 93.178008 93.874919 
L 94.688127 91.61786 
L 96.322736 89.455521 
L 98.089954 87.401435 
L 99.981662 85.455601 
L 101.995153 83.626138 
L 104.116897 81.915752 
L 106.338775 80.319032 
L 108.64996 78.844095 
L 111.039628 77.490942 
L 113.499661 76.259573 
L 116.019231 75.152694 
L 118.590222 74.170305 
L 121.199101 73.315112 
L 123.83775 72.587116 
L 126.503461 71.983609 
L 129.188117 71.504593 
L 131.88901 71.139242 
L 137.320566 70.749534 
L 142.762948 70.787422 
L 148.180973 71.223137 
L 153.539459 72.021498 
L 158.841112 73.136496 
L 164.085933 74.516712 
L 169.276628 76.105313 
L 176.973363 78.765612 
L 184.561845 81.677598 
L 192.039369 84.843976 
L 199.392402 88.278278 
L 206.620946 91.985917 
L 213.724999 95.931712 
L 220.709975 100.07236 
L 229.857289 105.817848 
L 257.218044 123.56039 
L 261.537308 126.829608 
L 263.594101 128.575175 
L 265.564291 130.410051 
L 267.437055 132.347766 
L 269.19886 134.393733 
L 270.852413 136.545247 
L 272.389595 138.791481 
L 273.815819 141.124316 
L 275.125671 143.530222 
L 276.319152 146.003786 
L 277.396261 148.534182 
L 278.354294 151.110586 
L 279.195955 153.722171 
L 279.913126 156.360819 
L 280.51122 159.021118 
L 281.377238 164.379604 
L 281.85896 169.784097 
L 282.021339 175.210241 
L 281.929324 180.644504 
L 281.471958 188.771541 
L 280.324485 204.96337 
L 280.156694 210.370569 
L 280.221645 215.794007 
L 280.549108 221.212031 
L 281.171558 226.608406 
L 282.110647 231.956066 
L 283.396142 237.238776 
L 285.052401 242.426765 
L 286.023965 244.973399 
L 288.272906 249.936764 
L 289.552988 252.339964 
L 290.938617 254.689037 
L 292.432498 256.970453 
L 294.037337 259.181505 
L 295.755842 261.314075 
L 297.588011 263.365455 
L 299.528432 265.322114 
L 301.568987 267.17864 
L 303.706969 268.921501 
L 305.934259 270.542578 
L 308.242738 272.033753 
L 310.624287 273.3842 
L 313.076201 274.583093 
L 315.590359 275.622315 
L 318.16135 276.493745 
L 320.778348 277.189266 
L 323.438646 277.711583 
L 326.128715 278.074228 
L 328.845846 278.279907 
L 331.579215 278.339446 
L 334.323409 278.263669 
L 337.067604 278.05799 
L 339.803679 277.730527 
L 345.221704 276.745432 
L 350.526064 275.365216 
L 355.689696 273.614236 
L 360.696362 271.506023 
L 365.529824 269.048697 
L 370.173846 266.261202 
L 374.609481 263.154363 
L 378.8232 259.741711 
L 382.796057 256.034071 
L 386.514522 252.050389 
L 389.959649 247.796076 
L 389.959649 247.796076 
" style="fill:none;stroke:#fea952;stroke-linecap:square;"/>
   </g>
   <g id="line2d_14">
    <path clip-path="url(#p0f3a482b3e)" d="M 75.457167 140.813231 
L 74.86658 137.752085 
L 74.407908 134.642378 
L 74.085427 131.512121 
L 73.892732 128.348138 
L 73.832727 125.165764 
L 73.906082 121.952904 
L 74.116281 118.754894 
L 74.461586 115.539138 
L 74.946991 112.331538 
L 75.57279 109.145159 
L 76.343229 105.973001 
L 77.25842 102.83891 
L 78.326731 99.727099 
L 79.548303 96.669376 
L 80.926621 93.668111 
L 82.469159 90.72469 
L 84.180848 87.855236 
L 86.052652 85.089916 
L 88.116601 82.395434 
L 90.328173 79.855559 
L 92.701972 77.443635 
L 95.201273 75.198287 
L 97.799568 73.125028 
L 100.515228 71.193694 
L 103.31595 69.424233 
L 106.194182 67.810698 
L 109.145633 66.348572 
L 112.155323 65.040538 
L 115.218248 63.88365 
L 118.320017 62.87977 
L 121.447455 62.029087 
L 124.601975 61.326695 
L 127.736999 60.777071 
L 130.899241 60.359361 
L 134.041366 60.079499 
L 137.191448 59.92508 
L 140.323072 59.895455 
L 143.44156 59.983489 
L 149.607427 60.492308 
L 155.627086 61.399478 
L 161.479333 62.637673 
L 167.163827 64.13827 
L 172.686912 65.831295 
L 180.74473 68.61858 
L 188.662315 71.659034 
L 196.491114 74.976481 
L 201.660579 77.352508 
L 209.277926 81.148037 
L 216.723849 85.183197 
L 223.989948 89.406923 
L 231.095409 93.774528 
L 242.550286 101.140701 
L 263.61079 114.824357 
L 268.541941 118.576087 
L 270.971815 120.653382 
L 273.348226 122.88703 
L 275.640072 125.284057 
L 277.782002 127.79713 
L 279.786022 130.431645 
L 281.625503 133.144934 
L 283.323319 135.948129 
L 284.875352 138.826055 
L 286.279542 141.763962 
L 287.542708 144.761239 
L 288.657658 147.79002 
L 289.642208 150.882933 
L 290.474723 153.98634 
L 291.161142 157.080849 
L 291.717358 160.182186 
L 292.457895 166.289647 
L 292.799001 172.312364 
L 292.823706 178.218384 
L 292.620015 183.985738 
L 292.061232 192.316762 
L 291.141024 205.396899 
L 290.981912 210.359755 
L 291.034445 215.275511 
L 291.319428 220.12314 
L 291.861765 224.904013 
L 292.670686 229.57467 
L 293.768373 234.140018 
L 295.166566 238.568119 
L 296.867264 242.812595 
L 298.876985 246.840095 
L 301.193272 250.611654 
L 303.82965 254.103035 
L 305.274428 255.742825 
L 308.40888 258.788088 
L 310.077221 260.169051 
L 311.808002 261.44947 
L 313.582409 262.617098 
L 315.379413 263.65927 
L 317.211439 264.57883 
L 319.065353 265.370003 
L 320.941851 266.031705 
L 322.86393 266.566845 
L 324.8849 266.983404 
L 326.945816 267.279886 
L 329.081587 267.45725 
L 331.280408 267.518346 
L 335.781184 267.309474 
L 340.384143 266.677681 
L 344.968539 265.680514 
L 349.459348 264.352043 
L 353.832165 262.706347 
L 358.05735 260.760036 
L 362.143696 258.512736 
L 366.050926 255.99316 
L 369.789153 253.18969 
L 373.320641 250.13502 
L 376.646246 246.830382 
L 379.743291 243.287491 
L 381.432026 241.127859 
L 381.432026 241.127859 
" style="fill:none;stroke:#ffffff;stroke-linecap:square;"/>
   </g>
   <g id="line2d_15">
    <path clip-path="url(#p0f3a482b3e)" d="M 96.701569 136.639827 
L 95.937602 132.358926 
L 95.538046 127.876656 
L 95.513871 123.31135 
L 95.878511 118.71045 
L 96.629246 114.181779 
L 97.763587 109.787293 
L 99.262532 105.618738 
L 101.121013 101.717882 
L 102.175169 99.894602 
L 103.323602 98.145803 
L 104.528871 96.515608 
L 105.851734 94.947311 
L 107.261351 93.467567 
L 108.789033 92.053989 
L 110.434227 90.706477 
L 112.162321 89.444369 
L 113.983971 88.263958 
L 115.885075 87.171186 
L 117.853688 86.170573 
L 121.962196 84.45696 
L 126.228044 83.145144 
L 130.639234 82.232115 
L 135.160092 81.701024 
L 139.763148 81.538661 
L 144.420512 81.73143 
L 149.104474 82.260926 
L 153.829273 83.106916 
L 158.597804 84.234367 
L 163.428944 85.611407 
L 168.303836 87.187367 
L 175.643775 89.819629 
L 182.846766 92.67162 
L 189.921052 95.763133 
L 196.872471 99.115172 
L 203.74622 102.740284 
L 210.544261 106.604073 
L 217.283706 110.676932 
L 226.238515 116.366711 
L 250.825297 132.296423 
L 254.532675 135.083128 
L 257.780357 137.933071 
L 259.234038 139.411475 
L 260.615719 140.990336 
L 261.918805 142.658848 
L 263.153688 144.438027 
L 264.308318 146.300503 
L 266.358761 150.24361 
L 268.050929 154.431152 
L 269.351529 158.735298 
L 270.279352 163.207711 
L 270.864905 167.865936 
L 271.151662 172.679268 
L 271.181082 177.636361 
L 271.005891 182.732119 
L 270.476739 190.628106 
L 269.661213 201.677598 
L 269.393627 207.426166 
L 269.337021 213.327752 
L 269.554995 219.29038 
L 270.087068 225.307454 
L 270.967869 231.330267 
L 272.235212 237.345156 
L 273.926465 243.332131 
L 274.938236 246.28541 
L 276.076241 249.242854 
L 277.329474 252.140869 
L 278.718558 255.02596 
L 280.228991 257.839833 
L 281.88221 260.619212 
L 283.671724 263.329252 
L 285.608313 265.97393 
L 287.682033 268.525115 
L 289.901594 270.988084 
L 292.243428 273.329247 
L 294.729095 275.569191 
L 297.336717 277.67395 
L 300.060516 279.635687 
L 302.903067 281.450408 
L 305.869162 283.109129 
L 308.940962 284.587356 
L 312.115365 285.874626 
L 315.380849 286.955786 
L 318.692765 287.811687 
L 321.992393 288.439762 
L 325.311613 288.86857 
L 328.610105 289.102564 
L 331.878022 289.160545 
L 335.132498 289.058615 
L 338.354024 288.806506 
L 341.536765 288.41612 
L 344.66289 287.901117 
L 347.751652 287.27087 
L 350.811705 286.52756 
L 356.7943 284.722129 
L 362.597193 282.50322 
L 368.212138 279.881286 
L 373.608687 276.878353 
L 378.783821 273.503594 
L 383.70036 269.779453 
L 388.358155 265.711126 
L 392.729284 261.324442 
L 396.798538 256.623925 
L 398.487273 254.464293 
L 398.487273 254.464293 
" style="fill:none;stroke:#ffffff;stroke-linecap:square;"/>
   </g>
   <g id="patch_3">
    <path d="M 57.6 307.584 
L 57.6 41.472 
" style="fill:none;stroke:#000000;stroke-linecap:square;stroke-linejoin:miter;stroke-width:0.8;"/>
   </g>
   <g id="patch_4">
    <path d="M 414.72 307.584 
L 414.72 41.472 
" style="fill:none;stroke:#000000;stroke-linecap:square;stroke-linejoin:miter;stroke-width:0.8;"/>
   </g>
   <g id="patch_5">
    <path d="M 57.6 307.584 
L 414.72 307.584 
" style="fill:none;stroke:#000000;stroke-linecap:square;stroke-linejoin:miter;stroke-width:0.8;"/>
   </g>
   <g id="patch_6">
    <path d="M 57.6 41.472 
L 414.72 41.472 
" style="fill:none;stroke:#000000;stroke-linecap:square;stroke-linejoin:miter;stroke-width:0.8;"/>
   </g>
  </g>
 </g>
 <defs>
  <clipPath id="p0f3a482b3e">
   <rect height="266.112" width="357.12" x="57.6" y="41.472"/>
  </clipPath>
 </defs>
</svg>
