<?xml version="1.0" encoding="utf-8" standalone="no"?>
<!DOCTYPE svg PUBLIC "-//W3C//DTD SVG 1.1//EN"
  "http://www.w3.org/Graphics/SVG/1.1/DTD/svg11.dtd">
<!-- Created with matplotlib (https://matplotlib.org/) -->
<svg height="345.6pt" version="1.1" viewBox="0 0 460.8 345.6" width="460.8pt" xmlns="http://www.w3.org/2000/svg" xmlns:xlink="http://www.w3.org/1999/xlink">
 <metadata>
  <rdf:RDF xmlns:cc="http://creativecommons.org/ns#" xmlns:dc="http://purl.org/dc/elements/1.1/" xmlns:rdf="http://www.w3.org/1999/02/22-rdf-syntax-ns#">
   <cc:Work>
    <dc:type rdf:resource="http://purl.org/dc/dcmitype/StillImage"/>
    <dc:date>2021-01-25T09:23:46.858800</dc:date>
    <dc:format>image/svg+xml</dc:format>
    <dc:creator>
     <cc:Agent>
      <dc:title>Matplotlib v3.3.3, https://matplotlib.org/</dc:title>
     </cc:Agent>
    </dc:creator>
   </cc:Work>
  </rdf:RDF>
 </metadata>
 <defs>
  <style type="text/css">*{stroke-linecap:butt;stroke-linejoin:round;}</style>
 </defs>
 <g id="figure_1">
  <g id="patch_1">
   <path d="M 0 345.6 
L 460.8 345.6 
L 460.8 0 
L 0 0 
z
" style="fill:#ffffff;"/>
  </g>
  <g id="axes_1">
   <g id="patch_2">
    <path d="M 57.6 307.584 
L 414.72 307.584 
L 414.72 41.472 
L 57.6 41.472 
z
" style="fill:#7d9051;"/>
   </g>
   <g id="matplotlib.axis_1">
    <g id="xtick_1">
     <g id="line2d_1">
      <defs>
       <path d="M 0 0 
L 0 3.5 
" id="m34d791145d" style="stroke:#000000;stroke-width:0.8;"/>
      </defs>
      <g>
       <use style="stroke:#000000;stroke-width:0.8;" x="83.694618" xlink:href="#m34d791145d" y="307.584"/>
      </g>
     </g>
     <g id="text_1">
      <!-- 0 -->
      <g transform="translate(80.513368 322.182437)scale(0.1 -0.1)">
       <defs>
        <path d="M 31.78125 66.40625 
Q 24.171875 66.40625 20.328125 58.90625 
Q 16.5 51.421875 16.5 36.375 
Q 16.5 21.390625 20.328125 13.890625 
Q 24.171875 6.390625 31.78125 6.390625 
Q 39.453125 6.390625 43.28125 13.890625 
Q 47.125 21.390625 47.125 36.375 
Q 47.125 51.421875 43.28125 58.90625 
Q 39.453125 66.40625 31.78125 66.40625 
z
M 31.78125 74.21875 
Q 44.046875 74.21875 50.515625 64.515625 
Q 56.984375 54.828125 56.984375 36.375 
Q 56.984375 17.96875 50.515625 8.265625 
Q 44.046875 -1.421875 31.78125 -1.421875 
Q 19.53125 -1.421875 13.0625 8.265625 
Q 6.59375 17.96875 6.59375 36.375 
Q 6.59375 54.828125 13.0625 64.515625 
Q 19.53125 74.21875 31.78125 74.21875 
z
" id="DejaVuSans-48"/>
       </defs>
       <use xlink:href="#DejaVuSans-48"/>
      </g>
     </g>
    </g>
    <g id="xtick_2">
     <g id="line2d_2">
      <g>
       <use style="stroke:#000000;stroke-width:0.8;" x="132.998804" xlink:href="#m34d791145d" y="307.584"/>
      </g>
     </g>
     <g id="text_2">
      <!-- 20 -->
      <g transform="translate(126.636304 322.182437)scale(0.1 -0.1)">
       <defs>
        <path d="M 19.1875 8.296875 
L 53.609375 8.296875 
L 53.609375 0 
L 7.328125 0 
L 7.328125 8.296875 
Q 12.9375 14.109375 22.625 23.890625 
Q 32.328125 33.6875 34.8125 36.53125 
Q 39.546875 41.84375 41.421875 45.53125 
Q 43.3125 49.21875 43.3125 52.78125 
Q 43.3125 58.59375 39.234375 62.25 
Q 35.15625 65.921875 28.609375 65.921875 
Q 23.96875 65.921875 18.8125 64.3125 
Q 13.671875 62.703125 7.8125 59.421875 
L 7.8125 69.390625 
Q 13.765625 71.78125 18.9375 73 
Q 24.125 74.21875 28.421875 74.21875 
Q 39.75 74.21875 46.484375 68.546875 
Q 53.21875 62.890625 53.21875 53.421875 
Q 53.21875 48.921875 51.53125 44.890625 
Q 49.859375 40.875 45.40625 35.40625 
Q 44.1875 33.984375 37.640625 27.21875 
Q 31.109375 20.453125 19.1875 8.296875 
z
" id="DejaVuSans-50"/>
       </defs>
       <use xlink:href="#DejaVuSans-50"/>
       <use x="63.623047" xlink:href="#DejaVuSans-48"/>
      </g>
     </g>
    </g>
    <g id="xtick_3">
     <g id="line2d_3">
      <g>
       <use style="stroke:#000000;stroke-width:0.8;" x="182.30299" xlink:href="#m34d791145d" y="307.584"/>
      </g>
     </g>
     <g id="text_3">
      <!-- 40 -->
      <g transform="translate(175.94049 322.182437)scale(0.1 -0.1)">
       <defs>
        <path d="M 37.796875 64.3125 
L 12.890625 25.390625 
L 37.796875 25.390625 
z
M 35.203125 72.90625 
L 47.609375 72.90625 
L 47.609375 25.390625 
L 58.015625 25.390625 
L 58.015625 17.1875 
L 47.609375 17.1875 
L 47.609375 0 
L 37.796875 0 
L 37.796875 17.1875 
L 4.890625 17.1875 
L 4.890625 26.703125 
z
" id="DejaVuSans-52"/>
       </defs>
       <use xlink:href="#DejaVuSans-52"/>
       <use x="63.623047" xlink:href="#DejaVuSans-48"/>
      </g>
     </g>
    </g>
    <g id="xtick_4">
     <g id="line2d_4">
      <g>
       <use style="stroke:#000000;stroke-width:0.8;" x="231.607175" xlink:href="#m34d791145d" y="307.584"/>
      </g>
     </g>
     <g id="text_4">
      <!-- 60 -->
      <g transform="translate(225.244675 322.182437)scale(0.1 -0.1)">
       <defs>
        <path d="M 33.015625 40.375 
Q 26.375 40.375 22.484375 35.828125 
Q 18.609375 31.296875 18.609375 23.390625 
Q 18.609375 15.53125 22.484375 10.953125 
Q 26.375 6.390625 33.015625 6.390625 
Q 39.65625 6.390625 43.53125 10.953125 
Q 47.40625 15.53125 47.40625 23.390625 
Q 47.40625 31.296875 43.53125 35.828125 
Q 39.65625 40.375 33.015625 40.375 
z
M 52.59375 71.296875 
L 52.59375 62.3125 
Q 48.875 64.0625 45.09375 64.984375 
Q 41.3125 65.921875 37.59375 65.921875 
Q 27.828125 65.921875 22.671875 59.328125 
Q 17.53125 52.734375 16.796875 39.40625 
Q 19.671875 43.65625 24.015625 45.921875 
Q 28.375 48.1875 33.59375 48.1875 
Q 44.578125 48.1875 50.953125 41.515625 
Q 57.328125 34.859375 57.328125 23.390625 
Q 57.328125 12.15625 50.6875 5.359375 
Q 44.046875 -1.421875 33.015625 -1.421875 
Q 20.359375 -1.421875 13.671875 8.265625 
Q 6.984375 17.96875 6.984375 36.375 
Q 6.984375 53.65625 15.1875 63.9375 
Q 23.390625 74.21875 37.203125 74.21875 
Q 40.921875 74.21875 44.703125 73.484375 
Q 48.484375 72.75 52.59375 71.296875 
z
" id="DejaVuSans-54"/>
       </defs>
       <use xlink:href="#DejaVuSans-54"/>
       <use x="63.623047" xlink:href="#DejaVuSans-48"/>
      </g>
     </g>
    </g>
    <g id="xtick_5">
     <g id="line2d_5">
      <g>
       <use style="stroke:#000000;stroke-width:0.8;" x="280.911361" xlink:href="#m34d791145d" y="307.584"/>
      </g>
     </g>
     <g id="text_5">
      <!-- 80 -->
      <g transform="translate(274.548861 322.182437)scale(0.1 -0.1)">
       <defs>
        <path d="M 31.78125 34.625 
Q 24.75 34.625 20.71875 30.859375 
Q 16.703125 27.09375 16.703125 20.515625 
Q 16.703125 13.921875 20.71875 10.15625 
Q 24.75 6.390625 31.78125 6.390625 
Q 38.8125 6.390625 42.859375 10.171875 
Q 46.921875 13.96875 46.921875 20.515625 
Q 46.921875 27.09375 42.890625 30.859375 
Q 38.875 34.625 31.78125 34.625 
z
M 21.921875 38.8125 
Q 15.578125 40.375 12.03125 44.71875 
Q 8.5 49.078125 8.5 55.328125 
Q 8.5 64.0625 14.71875 69.140625 
Q 20.953125 74.21875 31.78125 74.21875 
Q 42.671875 74.21875 48.875 69.140625 
Q 55.078125 64.0625 55.078125 55.328125 
Q 55.078125 49.078125 51.53125 44.71875 
Q 48 40.375 41.703125 38.8125 
Q 48.828125 37.15625 52.796875 32.3125 
Q 56.78125 27.484375 56.78125 20.515625 
Q 56.78125 9.90625 50.3125 4.234375 
Q 43.84375 -1.421875 31.78125 -1.421875 
Q 19.734375 -1.421875 13.25 4.234375 
Q 6.78125 9.90625 6.78125 20.515625 
Q 6.78125 27.484375 10.78125 32.3125 
Q 14.796875 37.15625 21.921875 38.8125 
z
M 18.3125 54.390625 
Q 18.3125 48.734375 21.84375 45.5625 
Q 25.390625 42.390625 31.78125 42.390625 
Q 38.140625 42.390625 41.71875 45.5625 
Q 45.3125 48.734375 45.3125 54.390625 
Q 45.3125 60.0625 41.71875 63.234375 
Q 38.140625 66.40625 31.78125 66.40625 
Q 25.390625 66.40625 21.84375 63.234375 
Q 18.3125 60.0625 18.3125 54.390625 
z
" id="DejaVuSans-56"/>
       </defs>
       <use xlink:href="#DejaVuSans-56"/>
       <use x="63.623047" xlink:href="#DejaVuSans-48"/>
      </g>
     </g>
    </g>
    <g id="xtick_6">
     <g id="line2d_6">
      <g>
       <use style="stroke:#000000;stroke-width:0.8;" x="330.215547" xlink:href="#m34d791145d" y="307.584"/>
      </g>
     </g>
     <g id="text_6">
      <!-- 100 -->
      <g transform="translate(320.671797 322.182437)scale(0.1 -0.1)">
       <defs>
        <path d="M 12.40625 8.296875 
L 28.515625 8.296875 
L 28.515625 63.921875 
L 10.984375 60.40625 
L 10.984375 69.390625 
L 28.421875 72.90625 
L 38.28125 72.90625 
L 38.28125 8.296875 
L 54.390625 8.296875 
L 54.390625 0 
L 12.40625 0 
z
" id="DejaVuSans-49"/>
       </defs>
       <use xlink:href="#DejaVuSans-49"/>
       <use x="63.623047" xlink:href="#DejaVuSans-48"/>
       <use x="127.246094" xlink:href="#DejaVuSans-48"/>
      </g>
     </g>
    </g>
    <g id="xtick_7">
     <g id="line2d_7">
      <g>
       <use style="stroke:#000000;stroke-width:0.8;" x="379.519732" xlink:href="#m34d791145d" y="307.584"/>
      </g>
     </g>
     <g id="text_7">
      <!-- 120 -->
      <g transform="translate(369.975982 322.182437)scale(0.1 -0.1)">
       <use xlink:href="#DejaVuSans-49"/>
       <use x="63.623047" xlink:href="#DejaVuSans-50"/>
       <use x="127.246094" xlink:href="#DejaVuSans-48"/>
      </g>
     </g>
    </g>
   </g>
   <g id="matplotlib.axis_2">
    <g id="ytick_1">
     <g id="line2d_8">
      <defs>
       <path d="M 0 0 
L -3.5 0 
" id="m14a4e3f661" style="stroke:#000000;stroke-width:0.8;"/>
      </defs>
      <g>
       <use style="stroke:#000000;stroke-width:0.8;" x="57.6" xlink:href="#m14a4e3f661" y="260.978298"/>
      </g>
     </g>
     <g id="text_8">
      <!-- 20 -->
      <g transform="translate(37.875 264.777516)scale(0.1 -0.1)">
       <use xlink:href="#DejaVuSans-50"/>
       <use x="63.623047" xlink:href="#DejaVuSans-48"/>
      </g>
     </g>
    </g>
    <g id="ytick_2">
     <g id="line2d_9">
      <g>
       <use style="stroke:#000000;stroke-width:0.8;" x="57.6" xlink:href="#m14a4e3f661" y="211.674112"/>
      </g>
     </g>
     <g id="text_9">
      <!-- 40 -->
      <g transform="translate(37.875 215.473331)scale(0.1 -0.1)">
       <use xlink:href="#DejaVuSans-52"/>
       <use x="63.623047" xlink:href="#DejaVuSans-48"/>
      </g>
     </g>
    </g>
    <g id="ytick_3">
     <g id="line2d_10">
      <g>
       <use style="stroke:#000000;stroke-width:0.8;" x="57.6" xlink:href="#m14a4e3f661" y="162.369926"/>
      </g>
     </g>
     <g id="text_10">
      <!-- 60 -->
      <g transform="translate(37.875 166.169145)scale(0.1 -0.1)">
       <use xlink:href="#DejaVuSans-54"/>
       <use x="63.623047" xlink:href="#DejaVuSans-48"/>
      </g>
     </g>
    </g>
    <g id="ytick_4">
     <g id="line2d_11">
      <g>
       <use style="stroke:#000000;stroke-width:0.8;" x="57.6" xlink:href="#m14a4e3f661" y="113.065741"/>
      </g>
     </g>
     <g id="text_11">
      <!-- 80 -->
      <g transform="translate(37.875 116.864959)scale(0.1 -0.1)">
       <use xlink:href="#DejaVuSans-56"/>
       <use x="63.623047" xlink:href="#DejaVuSans-48"/>
      </g>
     </g>
    </g>
    <g id="ytick_5">
     <g id="line2d_12">
      <g>
       <use style="stroke:#000000;stroke-width:0.8;" x="57.6" xlink:href="#m14a4e3f661" y="63.761555"/>
      </g>
     </g>
     <g id="text_12">
      <!-- 100 -->
      <g transform="translate(31.5125 67.560774)scale(0.1 -0.1)">
       <use xlink:href="#DejaVuSans-49"/>
       <use x="63.623047" xlink:href="#DejaVuSans-48"/>
       <use x="127.246094" xlink:href="#DejaVuSans-48"/>
      </g>
     </g>
    </g>
   </g>
   <g id="line2d_13">
    <path clip-path="url(#p290268e421)" d="M 354.076307 159.665592 
L 354.345015 149.814615 
L 354.33762 142.411592 
L 354.096029 135.013499 
L 353.570939 127.632662 
L 353.040919 122.726896 
L 352.350661 117.843316 
L 351.482907 112.979458 
L 350.425332 108.145183 
L 349.150819 103.357746 
L 347.617459 98.649197 
L 345.788274 94.054047 
L 343.626285 89.604344 
L 342.406007 87.44482 
L 339.674555 83.283547 
L 338.165847 81.296588 
L 336.565926 79.378656 
L 334.877257 77.542075 
L 333.102307 75.791776 
L 331.241074 74.135156 
L 329.298489 72.582074 
L 327.277017 71.137461 
L 325.179124 69.811178 
L 323.007275 68.605691 
L 320.766399 67.528395 
L 318.468824 66.574359 
L 316.117015 65.746048 
L 313.723297 65.043464 
L 311.2926 64.466605 
L 308.834787 64.015471 
L 306.357251 63.692529 
L 303.864925 63.495312 
L 301.367668 63.426286 
L 298.875341 63.482986 
L 296.387945 63.665412 
L 293.91534 63.968632 
L 291.459992 64.390183 
L 289.029295 64.925134 
L 286.625716 65.571018 
L 281.927027 67.183265 
L 277.403368 69.202272 
L 273.084321 71.593525 
L 268.960026 74.30279 
L 265.003365 77.270902 
L 261.189687 80.438696 
L 255.684874 85.425814 
L 250.377279 90.587962 
L 243.519067 97.663113 
L 228.284073 113.807769 
L 224.731707 117.224549 
L 221.046219 120.493416 
L 217.220214 123.60451 
L 213.268483 126.565227 
L 209.210749 129.385426 
L 202.963909 133.369204 
L 196.591343 137.118788 
L 185.949034 143.326185 
L 181.77297 145.966424 
L 177.695513 148.779227 
L 173.758574 151.794178 
L 170.016386 155.035929 
L 166.513324 158.52913 
L 163.306087 162.29597 
L 161.826961 164.287859 
L 159.134953 168.473784 
L 156.822586 172.89144 
L 155.816781 175.169293 
L 154.120717 179.84333 
L 153.437854 182.224722 
L 152.865925 184.628301 
L 152.057337 189.487228 
L 151.620995 194.39546 
L 151.463221 199.33574 
L 151.542108 206.773276 
L 151.842864 221.579323 
L 151.761512 228.96509 
L 151.544573 233.900439 
L 151.15507 238.845649 
L 150.536303 243.768672 
L 149.62171 248.63746 
L 148.349662 253.415036 
L 147.560795 255.756984 
L 146.660994 258.06442 
L 145.640397 260.327482 
L 144.506401 262.543706 
L 143.25654 264.703229 
L 141.898209 266.801122 
L 140.433875 268.827524 
L 138.868467 270.775039 
L 137.206916 272.636272 
L 135.449222 274.403827 
L 133.600315 276.070309 
L 131.665126 277.630786 
L 129.646119 279.072934 
L 127.548226 280.394286 
L 125.373912 281.584982 
L 123.128106 282.635161 
L 120.813274 283.542358 
L 118.434347 284.296712 
L 115.99379 284.888363 
L 113.498998 285.314844 
L 110.947507 285.56383 
L 108.346711 285.630391 
L 108.346711 285.630391 
" style="fill:none;stroke:#fea952;stroke-linecap:square;"/>
   </g>
   <g id="line2d_14">
    <path clip-path="url(#p290268e421)" d="M 344.22224 159.300261 
L 344.484493 149.73581 
L 344.478952 142.618417 
L 344.251204 135.575216 
L 343.758456 128.607999 
L 343.265124 124.019155 
L 342.62774 119.486765 
L 341.828197 114.985121 
L 340.867051 110.5691 
L 339.730505 106.272156 
L 338.393787 102.136314 
L 336.833309 98.182571 
L 335.041259 94.455471 
L 332.9628 90.925584 
L 330.593734 87.613171 
L 327.953522 84.563328 
L 325.083442 81.837082 
L 322.007715 79.472361 
L 318.734782 77.492868 
L 315.19306 75.875191 
L 311.446341 74.637815 
L 307.560226 73.79359 
L 303.592469 73.352385 
L 299.596597 73.31741 
L 295.583902 73.687275 
L 291.588297 74.448138 
L 287.664233 75.578723 
L 283.855532 77.058709 
L 280.171857 78.880378 
L 276.554644 81.05908 
L 272.986768 83.565055 
L 269.46145 86.351797 
L 265.959617 89.373798 
L 260.773551 94.194927 
L 255.70028 99.226538 
L 249.042992 106.184609 
L 237.021769 119.000485 
L 233.296623 122.697994 
L 229.36937 126.327175 
L 225.290036 129.785023 
L 221.096929 133.049547 
L 216.809967 136.137794 
L 212.45032 139.057289 
L 205.840639 143.142741 
L 187.281237 154.145366 
L 183.579016 156.692539 
L 180.09062 159.353365 
L 176.845126 162.149608 
L 173.88232 165.081535 
L 171.222885 168.174781 
L 168.844567 171.499098 
L 166.764814 175.036626 
L 165.010241 178.7353 
L 163.599552 182.561381 
L 162.556638 186.452087 
L 161.863505 190.524134 
L 161.472319 194.828485 
L 161.324039 199.355363 
L 161.39964 206.518001 
L 161.703701 221.579323 
L 161.615978 229.319496 
L 161.382826 234.567439 
L 160.954636 239.9432 
L 160.257083 245.424732 
L 159.201272 250.975856 
L 158.508961 253.775996 
L 157.69459 256.562801 
L 156.747822 259.339532 
L 155.650002 262.118287 
L 154.418805 264.819215 
L 153.040895 267.48319 
L 151.533838 270.062561 
L 149.890647 272.576679 
L 148.119637 275.00532 
L 146.224556 277.341932 
L 144.199058 279.589406 
L 142.051168 281.728472 
L 139.790097 283.746421 
L 137.396621 285.65488 
L 134.901404 287.416679 
L 132.28453 289.043189 
L 129.550893 290.517447 
L 126.726181 291.816118 
L 123.793868 292.941942 
L 120.757561 293.879968 
L 117.655383 294.608199 
L 114.456714 295.129062 
L 111.199787 295.421439 
L 108.598991 295.488 
L 108.598991 295.488 
" style="fill:none;stroke:#ffffff;stroke-linecap:square;"/>
   </g>
   <g id="line2d_15">
    <path clip-path="url(#p290268e421)" d="M 363.930375 160.030923 
L 364.205537 149.893421 
L 364.196287 142.204767 
L 363.940854 134.451782 
L 363.383423 126.657325 
L 362.816715 121.434636 
L 362.073581 116.199867 
L 361.137617 110.973795 
L 359.983613 105.721266 
L 358.571134 100.443337 
L 356.841131 95.162079 
L 354.743239 89.925523 
L 353.533052 87.319946 
L 352.211311 84.753216 
L 350.765232 82.214194 
L 349.21144 79.748549 
L 347.528008 77.320379 
L 345.73796 74.980006 
L 343.824763 72.704423 
L 341.800993 70.520822 
L 339.658333 68.426002 
L 337.398706 66.433229 
L 335.031835 64.559303 
L 332.54632 62.802561 
L 329.964646 61.18941 
L 327.279768 59.718514 
L 324.547925 58.421465 
L 321.744589 57.273527 
L 318.894135 56.284351 
L 316.000252 55.449112 
L 313.072823 54.767795 
L 310.109347 54.237353 
L 307.135104 53.862419 
L 304.137381 53.63824 
L 301.143394 53.568 
L 298.154085 53.648562 
L 295.187681 53.877895 
L 292.246778 54.24999 
L 289.340529 54.759815 
L 286.470293 55.402129 
L 283.633856 56.175015 
L 280.849067 57.072022 
L 278.106592 58.09259 
L 275.423094 59.230685 
L 272.805444 60.479015 
L 270.266529 61.826671 
L 265.442865 64.765744 
L 260.934715 67.954402 
L 256.699554 71.315892 
L 252.69729 74.777391 
L 247.016714 80.06362 
L 241.588193 85.449984 
L 234.622735 92.730962 
L 221.385817 106.761481 
L 218.107931 109.919639 
L 214.744142 112.909226 
L 211.234633 115.768125 
L 207.571479 118.516609 
L 203.788721 121.14906 
L 197.889101 124.914476 
L 191.679892 128.568129 
L 180.750265 134.947109 
L 176.264702 137.787481 
L 171.81201 140.865916 
L 167.426528 144.234992 
L 163.187647 147.922249 
L 159.144328 151.976725 
L 157.228275 154.145219 
L 155.389289 156.417159 
L 153.653933 158.770821 
L 152.023669 161.20338 
L 150.501734 163.70895 
L 149.094116 166.279294 
L 147.802004 168.908325 
L 146.623321 171.603286 
L 145.575952 174.329733 
L 144.641882 177.125279 
L 143.844854 179.94208 
L 143.175213 182.804515 
L 142.650716 185.639094 
L 141.963215 191.225622 
L 141.653648 196.666547 
L 141.598277 201.940691 
L 141.81476 211.957307 
L 141.982026 221.579323 
L 141.907045 228.610684 
L 141.555562 235.491764 
L 141.11259 239.949247 
L 140.460675 244.229297 
L 139.56102 248.306082 
L 138.373768 252.174437 
L 136.861989 255.83575 
L 134.979241 259.343897 
L 132.748113 262.649728 
L 130.214775 265.683139 
L 127.410532 268.394196 
L 125.93363 269.606693 
L 122.811922 271.745383 
L 121.19693 272.652517 
L 119.530031 273.454204 
L 117.832681 274.142775 
L 116.111134 274.713457 
L 114.332198 275.168526 
L 112.541282 275.500625 
L 110.695227 275.70622 
L 108.094431 275.772781 
L 108.094431 275.772781 
" style="fill:none;stroke:#ffffff;stroke-linecap:square;"/>
   </g>
   <g id="patch_3">
    <path d="M 57.6 307.584 
L 57.6 41.472 
" style="fill:none;stroke:#000000;stroke-linecap:square;stroke-linejoin:miter;stroke-width:0.8;"/>
   </g>
   <g id="patch_4">
    <path d="M 414.72 307.584 
L 414.72 41.472 
" style="fill:none;stroke:#000000;stroke-linecap:square;stroke-linejoin:miter;stroke-width:0.8;"/>
   </g>
   <g id="patch_5">
    <path d="M 57.6 307.584 
L 414.72 307.584 
" style="fill:none;stroke:#000000;stroke-linecap:square;stroke-linejoin:miter;stroke-width:0.8;"/>
   </g>
   <g id="patch_6">
    <path d="M 57.6 41.472 
L 414.72 41.472 
" style="fill:none;stroke:#000000;stroke-linecap:square;stroke-linejoin:miter;stroke-width:0.8;"/>
   </g>
  </g>
 </g>
 <defs>
  <clipPath id="p290268e421">
   <rect height="266.112" width="357.12" x="57.6" y="41.472"/>
  </clipPath>
 </defs>
</svg>
