<?xml version="1.0" encoding="utf-8" standalone="no"?>
<!DOCTYPE svg PUBLIC "-//W3C//DTD SVG 1.1//EN"
  "http://www.w3.org/Graphics/SVG/1.1/DTD/svg11.dtd">
<!-- Created with matplotlib (https://matplotlib.org/) -->
<svg height="345.6pt" version="1.1" viewBox="0 0 460.8 345.6" width="460.8pt" xmlns="http://www.w3.org/2000/svg" xmlns:xlink="http://www.w3.org/1999/xlink">
 <metadata>
  <rdf:RDF xmlns:cc="http://creativecommons.org/ns#" xmlns:dc="http://purl.org/dc/elements/1.1/" xmlns:rdf="http://www.w3.org/1999/02/22-rdf-syntax-ns#">
   <cc:Work>
    <dc:type rdf:resource="http://purl.org/dc/dcmitype/StillImage"/>
    <dc:date>2021-01-23T11:57:27.939458</dc:date>
    <dc:format>image/svg+xml</dc:format>
    <dc:creator>
     <cc:Agent>
      <dc:title>Matplotlib v3.3.3, https://matplotlib.org/</dc:title>
     </cc:Agent>
    </dc:creator>
   </cc:Work>
  </rdf:RDF>
 </metadata>
 <defs>
  <style type="text/css">*{stroke-linecap:butt;stroke-linejoin:round;}</style>
 </defs>
 <g id="figure_1">
  <g id="patch_1">
   <path d="M 0 345.6 
L 460.8 345.6 
L 460.8 0 
L 0 0 
z
" style="fill:#ffffff;"/>
  </g>
  <g id="axes_1">
   <g id="patch_2">
    <path d="M 57.6 307.584 
L 414.72 307.584 
L 414.72 41.472 
L 57.6 41.472 
z
" style="fill:#7d9051;"/>
   </g>
   <g id="matplotlib.axis_1">
    <g id="xtick_1">
     <g id="line2d_1">
      <defs>
       <path d="M 0 0 
L 0 3.5 
" id="m9d8a42e893" style="stroke:#000000;stroke-width:0.8;"/>
      </defs>
      <g>
       <use style="stroke:#000000;stroke-width:0.8;" x="98.211237" xlink:href="#m9d8a42e893" y="307.584"/>
      </g>
     </g>
     <g id="text_1">
      <!-- −25 -->
      <g transform="translate(87.658893 322.182437)scale(0.1 -0.1)">
       <defs>
        <path d="M 10.59375 35.5 
L 73.1875 35.5 
L 73.1875 27.203125 
L 10.59375 27.203125 
z
" id="DejaVuSans-8722"/>
        <path d="M 19.1875 8.296875 
L 53.609375 8.296875 
L 53.609375 0 
L 7.328125 0 
L 7.328125 8.296875 
Q 12.9375 14.109375 22.625 23.890625 
Q 32.328125 33.6875 34.8125 36.53125 
Q 39.546875 41.84375 41.421875 45.53125 
Q 43.3125 49.21875 43.3125 52.78125 
Q 43.3125 58.59375 39.234375 62.25 
Q 35.15625 65.921875 28.609375 65.921875 
Q 23.96875 65.921875 18.8125 64.3125 
Q 13.671875 62.703125 7.8125 59.421875 
L 7.8125 69.390625 
Q 13.765625 71.78125 18.9375 73 
Q 24.125 74.21875 28.421875 74.21875 
Q 39.75 74.21875 46.484375 68.546875 
Q 53.21875 62.890625 53.21875 53.421875 
Q 53.21875 48.921875 51.53125 44.890625 
Q 49.859375 40.875 45.40625 35.40625 
Q 44.1875 33.984375 37.640625 27.21875 
Q 31.109375 20.453125 19.1875 8.296875 
z
" id="DejaVuSans-50"/>
        <path d="M 10.796875 72.90625 
L 49.515625 72.90625 
L 49.515625 64.59375 
L 19.828125 64.59375 
L 19.828125 46.734375 
Q 21.96875 47.46875 24.109375 47.828125 
Q 26.265625 48.1875 28.421875 48.1875 
Q 40.625 48.1875 47.75 41.5 
Q 54.890625 34.8125 54.890625 23.390625 
Q 54.890625 11.625 47.5625 5.09375 
Q 40.234375 -1.421875 26.90625 -1.421875 
Q 22.3125 -1.421875 17.546875 -0.640625 
Q 12.796875 0.140625 7.71875 1.703125 
L 7.71875 11.625 
Q 12.109375 9.234375 16.796875 8.0625 
Q 21.484375 6.890625 26.703125 6.890625 
Q 35.15625 6.890625 40.078125 11.328125 
Q 45.015625 15.765625 45.015625 23.390625 
Q 45.015625 31 40.078125 35.4375 
Q 35.15625 39.890625 26.703125 39.890625 
Q 22.75 39.890625 18.8125 39.015625 
Q 14.890625 38.140625 10.796875 36.28125 
z
" id="DejaVuSans-53"/>
       </defs>
       <use xlink:href="#DejaVuSans-8722"/>
       <use x="83.789062" xlink:href="#DejaVuSans-50"/>
       <use x="147.412109" xlink:href="#DejaVuSans-53"/>
      </g>
     </g>
    </g>
    <g id="xtick_2">
     <g id="line2d_2">
      <g>
       <use style="stroke:#000000;stroke-width:0.8;" x="144.653475" xlink:href="#m9d8a42e893" y="307.584"/>
      </g>
     </g>
     <g id="text_2">
      <!-- 0 -->
      <g transform="translate(141.472225 322.182437)scale(0.1 -0.1)">
       <defs>
        <path d="M 31.78125 66.40625 
Q 24.171875 66.40625 20.328125 58.90625 
Q 16.5 51.421875 16.5 36.375 
Q 16.5 21.390625 20.328125 13.890625 
Q 24.171875 6.390625 31.78125 6.390625 
Q 39.453125 6.390625 43.28125 13.890625 
Q 47.125 21.390625 47.125 36.375 
Q 47.125 51.421875 43.28125 58.90625 
Q 39.453125 66.40625 31.78125 66.40625 
z
M 31.78125 74.21875 
Q 44.046875 74.21875 50.515625 64.515625 
Q 56.984375 54.828125 56.984375 36.375 
Q 56.984375 17.96875 50.515625 8.265625 
Q 44.046875 -1.421875 31.78125 -1.421875 
Q 19.53125 -1.421875 13.0625 8.265625 
Q 6.59375 17.96875 6.59375 36.375 
Q 6.59375 54.828125 13.0625 64.515625 
Q 19.53125 74.21875 31.78125 74.21875 
z
" id="DejaVuSans-48"/>
       </defs>
       <use xlink:href="#DejaVuSans-48"/>
      </g>
     </g>
    </g>
    <g id="xtick_3">
     <g id="line2d_3">
      <g>
       <use style="stroke:#000000;stroke-width:0.8;" x="191.095713" xlink:href="#m9d8a42e893" y="307.584"/>
      </g>
     </g>
     <g id="text_3">
      <!-- 25 -->
      <g transform="translate(184.733213 322.182437)scale(0.1 -0.1)">
       <use xlink:href="#DejaVuSans-50"/>
       <use x="63.623047" xlink:href="#DejaVuSans-53"/>
      </g>
     </g>
    </g>
    <g id="xtick_4">
     <g id="line2d_4">
      <g>
       <use style="stroke:#000000;stroke-width:0.8;" x="237.537951" xlink:href="#m9d8a42e893" y="307.584"/>
      </g>
     </g>
     <g id="text_4">
      <!-- 50 -->
      <g transform="translate(231.175451 322.182437)scale(0.1 -0.1)">
       <use xlink:href="#DejaVuSans-53"/>
       <use x="63.623047" xlink:href="#DejaVuSans-48"/>
      </g>
     </g>
    </g>
    <g id="xtick_5">
     <g id="line2d_5">
      <g>
       <use style="stroke:#000000;stroke-width:0.8;" x="283.98019" xlink:href="#m9d8a42e893" y="307.584"/>
      </g>
     </g>
     <g id="text_5">
      <!-- 75 -->
      <g transform="translate(277.61769 322.182437)scale(0.1 -0.1)">
       <defs>
        <path d="M 8.203125 72.90625 
L 55.078125 72.90625 
L 55.078125 68.703125 
L 28.609375 0 
L 18.3125 0 
L 43.21875 64.59375 
L 8.203125 64.59375 
z
" id="DejaVuSans-55"/>
       </defs>
       <use xlink:href="#DejaVuSans-55"/>
       <use x="63.623047" xlink:href="#DejaVuSans-53"/>
      </g>
     </g>
    </g>
    <g id="xtick_6">
     <g id="line2d_6">
      <g>
       <use style="stroke:#000000;stroke-width:0.8;" x="330.422428" xlink:href="#m9d8a42e893" y="307.584"/>
      </g>
     </g>
     <g id="text_6">
      <!-- 100 -->
      <g transform="translate(320.878678 322.182437)scale(0.1 -0.1)">
       <defs>
        <path d="M 12.40625 8.296875 
L 28.515625 8.296875 
L 28.515625 63.921875 
L 10.984375 60.40625 
L 10.984375 69.390625 
L 28.421875 72.90625 
L 38.28125 72.90625 
L 38.28125 8.296875 
L 54.390625 8.296875 
L 54.390625 0 
L 12.40625 0 
z
" id="DejaVuSans-49"/>
       </defs>
       <use xlink:href="#DejaVuSans-49"/>
       <use x="63.623047" xlink:href="#DejaVuSans-48"/>
       <use x="127.246094" xlink:href="#DejaVuSans-48"/>
      </g>
     </g>
    </g>
    <g id="xtick_7">
     <g id="line2d_7">
      <g>
       <use style="stroke:#000000;stroke-width:0.8;" x="376.864666" xlink:href="#m9d8a42e893" y="307.584"/>
      </g>
     </g>
     <g id="text_7">
      <!-- 125 -->
      <g transform="translate(367.320916 322.182437)scale(0.1 -0.1)">
       <use xlink:href="#DejaVuSans-49"/>
       <use x="63.623047" xlink:href="#DejaVuSans-50"/>
       <use x="127.246094" xlink:href="#DejaVuSans-53"/>
      </g>
     </g>
    </g>
   </g>
   <g id="matplotlib.axis_2">
    <g id="ytick_1">
     <g id="line2d_8">
      <defs>
       <path d="M 0 0 
L -3.5 0 
" id="m86d5209441" style="stroke:#000000;stroke-width:0.8;"/>
      </defs>
      <g>
       <use style="stroke:#000000;stroke-width:0.8;" x="57.6" xlink:href="#m86d5209441" y="275.640404"/>
      </g>
     </g>
     <g id="text_8">
      <!-- 20 -->
      <g transform="translate(37.875 279.439623)scale(0.1 -0.1)">
       <use xlink:href="#DejaVuSans-50"/>
       <use x="63.623047" xlink:href="#DejaVuSans-48"/>
      </g>
     </g>
    </g>
    <g id="ytick_2">
     <g id="line2d_9">
      <g>
       <use style="stroke:#000000;stroke-width:0.8;" x="57.6" xlink:href="#m86d5209441" y="238.486614"/>
      </g>
     </g>
     <g id="text_9">
      <!-- 40 -->
      <g transform="translate(37.875 242.285832)scale(0.1 -0.1)">
       <defs>
        <path d="M 37.796875 64.3125 
L 12.890625 25.390625 
L 37.796875 25.390625 
z
M 35.203125 72.90625 
L 47.609375 72.90625 
L 47.609375 25.390625 
L 58.015625 25.390625 
L 58.015625 17.1875 
L 47.609375 17.1875 
L 47.609375 0 
L 37.796875 0 
L 37.796875 17.1875 
L 4.890625 17.1875 
L 4.890625 26.703125 
z
" id="DejaVuSans-52"/>
       </defs>
       <use xlink:href="#DejaVuSans-52"/>
       <use x="63.623047" xlink:href="#DejaVuSans-48"/>
      </g>
     </g>
    </g>
    <g id="ytick_3">
     <g id="line2d_10">
      <g>
       <use style="stroke:#000000;stroke-width:0.8;" x="57.6" xlink:href="#m86d5209441" y="201.332823"/>
      </g>
     </g>
     <g id="text_10">
      <!-- 60 -->
      <g transform="translate(37.875 205.132042)scale(0.1 -0.1)">
       <defs>
        <path d="M 33.015625 40.375 
Q 26.375 40.375 22.484375 35.828125 
Q 18.609375 31.296875 18.609375 23.390625 
Q 18.609375 15.53125 22.484375 10.953125 
Q 26.375 6.390625 33.015625 6.390625 
Q 39.65625 6.390625 43.53125 10.953125 
Q 47.40625 15.53125 47.40625 23.390625 
Q 47.40625 31.296875 43.53125 35.828125 
Q 39.65625 40.375 33.015625 40.375 
z
M 52.59375 71.296875 
L 52.59375 62.3125 
Q 48.875 64.0625 45.09375 64.984375 
Q 41.3125 65.921875 37.59375 65.921875 
Q 27.828125 65.921875 22.671875 59.328125 
Q 17.53125 52.734375 16.796875 39.40625 
Q 19.671875 43.65625 24.015625 45.921875 
Q 28.375 48.1875 33.59375 48.1875 
Q 44.578125 48.1875 50.953125 41.515625 
Q 57.328125 34.859375 57.328125 23.390625 
Q 57.328125 12.15625 50.6875 5.359375 
Q 44.046875 -1.421875 33.015625 -1.421875 
Q 20.359375 -1.421875 13.671875 8.265625 
Q 6.984375 17.96875 6.984375 36.375 
Q 6.984375 53.65625 15.1875 63.9375 
Q 23.390625 74.21875 37.203125 74.21875 
Q 40.921875 74.21875 44.703125 73.484375 
Q 48.484375 72.75 52.59375 71.296875 
z
" id="DejaVuSans-54"/>
       </defs>
       <use xlink:href="#DejaVuSans-54"/>
       <use x="63.623047" xlink:href="#DejaVuSans-48"/>
      </g>
     </g>
    </g>
    <g id="ytick_4">
     <g id="line2d_11">
      <g>
       <use style="stroke:#000000;stroke-width:0.8;" x="57.6" xlink:href="#m86d5209441" y="164.179032"/>
      </g>
     </g>
     <g id="text_11">
      <!-- 80 -->
      <g transform="translate(37.875 167.978251)scale(0.1 -0.1)">
       <defs>
        <path d="M 31.78125 34.625 
Q 24.75 34.625 20.71875 30.859375 
Q 16.703125 27.09375 16.703125 20.515625 
Q 16.703125 13.921875 20.71875 10.15625 
Q 24.75 6.390625 31.78125 6.390625 
Q 38.8125 6.390625 42.859375 10.171875 
Q 46.921875 13.96875 46.921875 20.515625 
Q 46.921875 27.09375 42.890625 30.859375 
Q 38.875 34.625 31.78125 34.625 
z
M 21.921875 38.8125 
Q 15.578125 40.375 12.03125 44.71875 
Q 8.5 49.078125 8.5 55.328125 
Q 8.5 64.0625 14.71875 69.140625 
Q 20.953125 74.21875 31.78125 74.21875 
Q 42.671875 74.21875 48.875 69.140625 
Q 55.078125 64.0625 55.078125 55.328125 
Q 55.078125 49.078125 51.53125 44.71875 
Q 48 40.375 41.703125 38.8125 
Q 48.828125 37.15625 52.796875 32.3125 
Q 56.78125 27.484375 56.78125 20.515625 
Q 56.78125 9.90625 50.3125 4.234375 
Q 43.84375 -1.421875 31.78125 -1.421875 
Q 19.734375 -1.421875 13.25 4.234375 
Q 6.78125 9.90625 6.78125 20.515625 
Q 6.78125 27.484375 10.78125 32.3125 
Q 14.796875 37.15625 21.921875 38.8125 
z
M 18.3125 54.390625 
Q 18.3125 48.734375 21.84375 45.5625 
Q 25.390625 42.390625 31.78125 42.390625 
Q 38.140625 42.390625 41.71875 45.5625 
Q 45.3125 48.734375 45.3125 54.390625 
Q 45.3125 60.0625 41.71875 63.234375 
Q 38.140625 66.40625 31.78125 66.40625 
Q 25.390625 66.40625 21.84375 63.234375 
Q 18.3125 60.0625 18.3125 54.390625 
z
" id="DejaVuSans-56"/>
       </defs>
       <use xlink:href="#DejaVuSans-56"/>
       <use x="63.623047" xlink:href="#DejaVuSans-48"/>
      </g>
     </g>
    </g>
    <g id="ytick_5">
     <g id="line2d_12">
      <g>
       <use style="stroke:#000000;stroke-width:0.8;" x="57.6" xlink:href="#m86d5209441" y="127.025242"/>
      </g>
     </g>
     <g id="text_12">
      <!-- 100 -->
      <g transform="translate(31.5125 130.824461)scale(0.1 -0.1)">
       <use xlink:href="#DejaVuSans-49"/>
       <use x="63.623047" xlink:href="#DejaVuSans-48"/>
       <use x="127.246094" xlink:href="#DejaVuSans-48"/>
      </g>
     </g>
    </g>
    <g id="ytick_6">
     <g id="line2d_13">
      <g>
       <use style="stroke:#000000;stroke-width:0.8;" x="57.6" xlink:href="#m86d5209441" y="89.871451"/>
      </g>
     </g>
     <g id="text_13">
      <!-- 120 -->
      <g transform="translate(31.5125 93.67067)scale(0.1 -0.1)">
       <use xlink:href="#DejaVuSans-49"/>
       <use x="63.623047" xlink:href="#DejaVuSans-50"/>
       <use x="127.246094" xlink:href="#DejaVuSans-48"/>
      </g>
     </g>
    </g>
    <g id="ytick_7">
     <g id="line2d_14">
      <g>
       <use style="stroke:#000000;stroke-width:0.8;" x="57.6" xlink:href="#m86d5209441" y="52.717661"/>
      </g>
     </g>
     <g id="text_14">
      <!-- 140 -->
      <g transform="translate(31.5125 56.516879)scale(0.1 -0.1)">
       <use xlink:href="#DejaVuSans-49"/>
       <use x="63.623047" xlink:href="#DejaVuSans-52"/>
       <use x="127.246094" xlink:href="#DejaVuSans-48"/>
      </g>
     </g>
    </g>
   </g>
   <g id="line2d_15">
    <path clip-path="url(#pf756ae7c34)" d="M 293.926259 54.512189 
L 294.457559 58.236856 
L 295.1802 61.896505 
L 296.066318 65.500422 
L 297.649069 70.826418 
L 299.451028 76.08368 
L 303.363322 86.520179 
L 305.904641 93.527384 
L 307.589566 98.855238 
L 308.523984 102.45544 
L 309.257771 106.098369 
L 309.748201 109.791456 
L 309.95812 113.523554 
L 309.867093 117.264941 
L 309.445398 120.985893 
L 308.672599 124.656688 
L 307.522689 128.245744 
L 305.991953 131.706619 
L 304.089679 134.978011 
L 303.00293 136.519893 
L 301.828871 137.991183 
L 300.569357 139.382593 
L 299.22439 140.684833 
L 297.797684 141.890473 
L 296.28924 142.993941 
L 294.710204 143.995236 
L 293.064291 144.896215 
L 289.612704 146.397228 
L 286.001356 147.511842 
L 282.295265 148.247487 
L 278.561309 148.620883 
L 274.832926 148.663609 
L 271.117547 148.429541 
L 267.41703 147.972549 
L 261.910838 146.991689 
L 247.346552 144.06397 
L 243.644177 143.610694 
L 239.893502 143.395202 
L 236.129823 143.460221 
L 232.394009 143.846621 
L 228.732503 144.595269 
L 225.189889 145.747037 
L 223.477099 146.48454 
L 220.187131 148.266064 
L 217.105224 150.417268 
L 214.257386 152.893569 
L 211.677055 155.646664 
L 209.392097 158.628256 
L 207.406227 161.80119 
L 205.704584 165.128312 
L 204.270447 168.579899 
L 203.085241 172.122513 
L 202.134104 175.724573 
L 201.387313 179.365644 
L 200.815145 183.038297 
L 200.211396 188.589073 
L 199.694958 196.025404 
L 199.15437 203.450589 
L 198.725244 207.136245 
L 198.108491 210.792178 
L 197.253954 214.410957 
L 196.165348 217.977721 
L 194.855677 221.475751 
L 193.337944 224.888326 
L 191.625155 228.202444 
L 189.735884 231.403243 
L 187.694284 234.507443 
L 184.409888 239.016055 
L 179.763807 244.845485 
L 175.078714 250.641476 
L 171.783173 255.127796 
L 169.786156 258.25243 
L 168.002775 261.516391 
L 166.449746 264.904816 
L 165.134502 268.402846 
L 164.062615 271.988187 
L 163.245232 275.640404 
L 162.687925 279.340922 
L 162.399983 283.067447 
L 162.390694 286.803261 
L 162.663775 290.52607 
L 163.23037 294.217299 
L 163.23037 294.217299 
" style="fill:none;stroke:#fea952;stroke-linecap:square;"/>
   </g>
   <g id="line2d_16">
    <path clip-path="url(#pf756ae7c34)" d="M 301.296787 53.568 
L 301.765604 56.891999 
L 302.414984 60.2012 
L 303.686665 65.167561 
L 305.258052 70.169245 
L 307.688023 76.949363 
L 312.950368 91.166474 
L 314.759348 96.903216 
L 315.784205 100.872608 
L 316.604843 104.9863 
L 317.157719 109.230017 
L 317.388845 113.54567 
L 317.267516 117.935696 
L 316.752855 122.333942 
L 316.336251 124.540895 
L 315.807685 126.731949 
L 315.159657 128.921254 
L 314.397065 131.066935 
L 313.5158 133.185762 
L 312.517608 135.260771 
L 311.401803 137.285088 
L 310.16341 139.258893 
L 308.811097 141.154693 
L 307.337824 142.977926 
L 305.738216 144.721044 
L 304.020585 146.360454 
L 302.184917 147.887836 
L 300.268595 149.269361 
L 298.278228 150.513316 
L 296.221919 151.622697 
L 294.129934 152.591274 
L 291.993163 153.436375 
L 289.822738 154.159146 
L 287.629544 154.762026 
L 283.212422 155.621427 
L 278.798026 156.047869 
L 274.491813 156.086534 
L 270.302649 155.81548 
L 266.247084 155.310627 
L 260.405079 154.268285 
L 246.338258 151.426002 
L 243.084955 151.020379 
L 239.871496 150.825927 
L 236.724432 150.867151 
L 233.692097 151.163118 
L 230.822791 151.725968 
L 228.128618 152.571994 
L 225.535166 153.754997 
L 223.03581 155.273357 
L 220.665838 157.102267 
L 218.478591 159.184338 
L 216.503176 161.485569 
L 214.751059 163.985098 
L 213.205795 166.690214 
L 211.868887 169.5664 
L 210.732957 172.583666 
L 209.79418 175.707151 
L 209.034775 178.938608 
L 208.436029 182.268766 
L 207.782928 187.422015 
L 207.342342 192.785476 
L 206.543932 204.231963 
L 206.070368 208.261107 
L 205.367162 212.382102 
L 204.395722 216.463104 
L 203.163706 220.475551 
L 201.689437 224.393951 
L 199.985695 228.208504 
L 198.075489 231.891531 
L 195.990819 235.414722 
L 193.773407 238.780665 
L 190.286144 243.564218 
L 185.510935 249.55576 
L 179.929357 256.527191 
L 177.980777 259.227292 
L 176.242885 261.930313 
L 174.701543 264.732392 
L 173.359178 267.63903 
L 172.216431 270.652834 
L 171.284761 273.736551 
L 170.571873 276.879957 
L 170.085509 280.042289 
L 169.829123 283.222528 
L 169.810728 286.404175 
L 170.029156 289.542541 
L 170.551674 292.946599 
L 170.551674 292.946599 
" style="fill:none;stroke:#ffffff;stroke-linecap:square;"/>
   </g>
   <g id="line2d_17">
    <path clip-path="url(#pf756ae7c34)" d="M 286.555732 55.456377 
L 287.149513 59.581714 
L 287.945415 63.591809 
L 288.90868 67.496517 
L 290.59443 73.160564 
L 292.469826 78.629064 
L 296.402949 89.12198 
L 298.858915 95.888295 
L 300.419783 100.807259 
L 301.263763 104.038272 
L 301.910699 107.210439 
L 302.338683 110.352895 
L 302.527395 113.501439 
L 302.466671 116.594186 
L 302.13794 119.637844 
L 301.537513 122.581426 
L 300.648313 125.424552 
L 299.466298 128.152468 
L 298.015948 130.697128 
L 296.319917 133.00444 
L 294.428194 135.009212 
L 292.309886 136.718521 
L 289.906664 138.169734 
L 287.232246 139.358082 
L 284.373167 140.261658 
L 281.378108 140.873547 
L 278.324593 141.193896 
L 275.17404 141.240685 
L 271.932445 141.043601 
L 268.586976 140.634471 
L 263.416596 139.715092 
L 248.354846 136.701939 
L 244.203398 136.201009 
L 239.915508 135.964476 
L 235.535213 136.053292 
L 231.095921 136.530123 
L 228.872745 136.934857 
L 226.642215 137.464571 
L 224.442888 138.122455 
L 222.25116 138.92208 
L 220.130343 139.85013 
L 218.082622 140.897149 
L 216.102659 142.058548 
L 214.198956 143.324521 
L 212.371956 144.689063 
L 210.635469 146.13612 
L 208.962981 147.679603 
L 207.387116 149.292733 
L 205.891816 150.983278 
L 203.187879 154.538777 
L 200.863422 158.278709 
L 198.895823 162.152249 
L 197.26345 166.106407 
L 195.93015 170.117311 
L 194.875093 174.1362 
L 194.057057 178.147648 
L 193.441654 182.117538 
L 192.805544 187.981185 
L 192.278384 195.566494 
L 191.764809 202.669215 
L 191.13707 207.620995 
L 190.50776 210.782235 
L 189.668783 213.916401 
L 188.619464 217.024453 
L 187.378096 220.07363 
L 185.950368 223.055798 
L 184.355114 225.952234 
L 182.571777 228.813047 
L 179.596167 233.05722 
L 176.330169 237.283947 
L 167.969121 247.705773 
L 165.585568 251.028301 
L 163.329428 254.574547 
L 161.304006 258.300389 
L 159.540315 262.170603 
L 158.052573 266.152858 
L 156.840469 270.239822 
L 155.91859 274.400852 
L 155.290341 278.639554 
L 154.970843 282.912365 
L 154.970661 287.202346 
L 155.298394 291.5096 
L 155.909067 295.488 
L 155.909067 295.488 
" style="fill:none;stroke:#ffffff;stroke-linecap:square;"/>
   </g>
   <g id="patch_3">
    <path d="M 57.6 307.584 
L 57.6 41.472 
" style="fill:none;stroke:#000000;stroke-linecap:square;stroke-linejoin:miter;stroke-width:0.8;"/>
   </g>
   <g id="patch_4">
    <path d="M 414.72 307.584 
L 414.72 41.472 
" style="fill:none;stroke:#000000;stroke-linecap:square;stroke-linejoin:miter;stroke-width:0.8;"/>
   </g>
   <g id="patch_5">
    <path d="M 57.6 307.584 
L 414.72 307.584 
" style="fill:none;stroke:#000000;stroke-linecap:square;stroke-linejoin:miter;stroke-width:0.8;"/>
   </g>
   <g id="patch_6">
    <path d="M 57.6 41.472 
L 414.72 41.472 
" style="fill:none;stroke:#000000;stroke-linecap:square;stroke-linejoin:miter;stroke-width:0.8;"/>
   </g>
  </g>
 </g>
 <defs>
  <clipPath id="pf756ae7c34">
   <rect height="266.112" width="357.12" x="57.6" y="41.472"/>
  </clipPath>
 </defs>
</svg>
