<?xml version="1.0" encoding="utf-8" standalone="no"?>
<!DOCTYPE svg PUBLIC "-//W3C//DTD SVG 1.1//EN"
  "http://www.w3.org/Graphics/SVG/1.1/DTD/svg11.dtd">
<!-- Created with matplotlib (https://matplotlib.org/) -->
<svg height="345.6pt" version="1.1" viewBox="0 0 460.8 345.6" width="460.8pt" xmlns="http://www.w3.org/2000/svg" xmlns:xlink="http://www.w3.org/1999/xlink">
 <metadata>
  <rdf:RDF xmlns:cc="http://creativecommons.org/ns#" xmlns:dc="http://purl.org/dc/elements/1.1/" xmlns:rdf="http://www.w3.org/1999/02/22-rdf-syntax-ns#">
   <cc:Work>
    <dc:type rdf:resource="http://purl.org/dc/dcmitype/StillImage"/>
    <dc:date>2021-01-25T09:22:41.707296</dc:date>
    <dc:format>image/svg+xml</dc:format>
    <dc:creator>
     <cc:Agent>
      <dc:title>Matplotlib v3.3.3, https://matplotlib.org/</dc:title>
     </cc:Agent>
    </dc:creator>
   </cc:Work>
  </rdf:RDF>
 </metadata>
 <defs>
  <style type="text/css">*{stroke-linecap:butt;stroke-linejoin:round;}</style>
 </defs>
 <g id="figure_1">
  <g id="patch_1">
   <path d="M 0 345.6 
L 460.8 345.6 
L 460.8 0 
L 0 0 
z
" style="fill:#ffffff;"/>
  </g>
  <g id="axes_1">
   <g id="patch_2">
    <path d="M 57.6 307.584 
L 414.72 307.584 
L 414.72 41.472 
L 57.6 41.472 
z
" style="fill:#7d9051;"/>
   </g>
   <g id="matplotlib.axis_1">
    <g id="xtick_1">
     <g id="line2d_1">
      <defs>
       <path d="M 0 0 
L 0 3.5 
" id="m76860f82a6" style="stroke:#000000;stroke-width:0.8;"/>
      </defs>
      <g>
       <use style="stroke:#000000;stroke-width:0.8;" x="58.26784" xlink:href="#m76860f82a6" y="307.584"/>
      </g>
     </g>
     <g id="text_1">
      <!-- 0 -->
      <g transform="translate(55.08659 322.182437)scale(0.1 -0.1)">
       <defs>
        <path d="M 31.78125 66.40625 
Q 24.171875 66.40625 20.328125 58.90625 
Q 16.5 51.421875 16.5 36.375 
Q 16.5 21.390625 20.328125 13.890625 
Q 24.171875 6.390625 31.78125 6.390625 
Q 39.453125 6.390625 43.28125 13.890625 
Q 47.125 21.390625 47.125 36.375 
Q 47.125 51.421875 43.28125 58.90625 
Q 39.453125 66.40625 31.78125 66.40625 
z
M 31.78125 74.21875 
Q 44.046875 74.21875 50.515625 64.515625 
Q 56.984375 54.828125 56.984375 36.375 
Q 56.984375 17.96875 50.515625 8.265625 
Q 44.046875 -1.421875 31.78125 -1.421875 
Q 19.53125 -1.421875 13.0625 8.265625 
Q 6.59375 17.96875 6.59375 36.375 
Q 6.59375 54.828125 13.0625 64.515625 
Q 19.53125 74.21875 31.78125 74.21875 
z
" id="DejaVuSans-48"/>
       </defs>
       <use xlink:href="#DejaVuSans-48"/>
      </g>
     </g>
    </g>
    <g id="xtick_2">
     <g id="line2d_2">
      <g>
       <use style="stroke:#000000;stroke-width:0.8;" x="111.044819" xlink:href="#m76860f82a6" y="307.584"/>
      </g>
     </g>
     <g id="text_2">
      <!-- 20 -->
      <g transform="translate(104.682319 322.182437)scale(0.1 -0.1)">
       <defs>
        <path d="M 19.1875 8.296875 
L 53.609375 8.296875 
L 53.609375 0 
L 7.328125 0 
L 7.328125 8.296875 
Q 12.9375 14.109375 22.625 23.890625 
Q 32.328125 33.6875 34.8125 36.53125 
Q 39.546875 41.84375 41.421875 45.53125 
Q 43.3125 49.21875 43.3125 52.78125 
Q 43.3125 58.59375 39.234375 62.25 
Q 35.15625 65.921875 28.609375 65.921875 
Q 23.96875 65.921875 18.8125 64.3125 
Q 13.671875 62.703125 7.8125 59.421875 
L 7.8125 69.390625 
Q 13.765625 71.78125 18.9375 73 
Q 24.125 74.21875 28.421875 74.21875 
Q 39.75 74.21875 46.484375 68.546875 
Q 53.21875 62.890625 53.21875 53.421875 
Q 53.21875 48.921875 51.53125 44.890625 
Q 49.859375 40.875 45.40625 35.40625 
Q 44.1875 33.984375 37.640625 27.21875 
Q 31.109375 20.453125 19.1875 8.296875 
z
" id="DejaVuSans-50"/>
       </defs>
       <use xlink:href="#DejaVuSans-50"/>
       <use x="63.623047" xlink:href="#DejaVuSans-48"/>
      </g>
     </g>
    </g>
    <g id="xtick_3">
     <g id="line2d_3">
      <g>
       <use style="stroke:#000000;stroke-width:0.8;" x="163.821799" xlink:href="#m76860f82a6" y="307.584"/>
      </g>
     </g>
     <g id="text_3">
      <!-- 40 -->
      <g transform="translate(157.459299 322.182437)scale(0.1 -0.1)">
       <defs>
        <path d="M 37.796875 64.3125 
L 12.890625 25.390625 
L 37.796875 25.390625 
z
M 35.203125 72.90625 
L 47.609375 72.90625 
L 47.609375 25.390625 
L 58.015625 25.390625 
L 58.015625 17.1875 
L 47.609375 17.1875 
L 47.609375 0 
L 37.796875 0 
L 37.796875 17.1875 
L 4.890625 17.1875 
L 4.890625 26.703125 
z
" id="DejaVuSans-52"/>
       </defs>
       <use xlink:href="#DejaVuSans-52"/>
       <use x="63.623047" xlink:href="#DejaVuSans-48"/>
      </g>
     </g>
    </g>
    <g id="xtick_4">
     <g id="line2d_4">
      <g>
       <use style="stroke:#000000;stroke-width:0.8;" x="216.598778" xlink:href="#m76860f82a6" y="307.584"/>
      </g>
     </g>
     <g id="text_4">
      <!-- 60 -->
      <g transform="translate(210.236278 322.182437)scale(0.1 -0.1)">
       <defs>
        <path d="M 33.015625 40.375 
Q 26.375 40.375 22.484375 35.828125 
Q 18.609375 31.296875 18.609375 23.390625 
Q 18.609375 15.53125 22.484375 10.953125 
Q 26.375 6.390625 33.015625 6.390625 
Q 39.65625 6.390625 43.53125 10.953125 
Q 47.40625 15.53125 47.40625 23.390625 
Q 47.40625 31.296875 43.53125 35.828125 
Q 39.65625 40.375 33.015625 40.375 
z
M 52.59375 71.296875 
L 52.59375 62.3125 
Q 48.875 64.0625 45.09375 64.984375 
Q 41.3125 65.921875 37.59375 65.921875 
Q 27.828125 65.921875 22.671875 59.328125 
Q 17.53125 52.734375 16.796875 39.40625 
Q 19.671875 43.65625 24.015625 45.921875 
Q 28.375 48.1875 33.59375 48.1875 
Q 44.578125 48.1875 50.953125 41.515625 
Q 57.328125 34.859375 57.328125 23.390625 
Q 57.328125 12.15625 50.6875 5.359375 
Q 44.046875 -1.421875 33.015625 -1.421875 
Q 20.359375 -1.421875 13.671875 8.265625 
Q 6.984375 17.96875 6.984375 36.375 
Q 6.984375 53.65625 15.1875 63.9375 
Q 23.390625 74.21875 37.203125 74.21875 
Q 40.921875 74.21875 44.703125 73.484375 
Q 48.484375 72.75 52.59375 71.296875 
z
" id="DejaVuSans-54"/>
       </defs>
       <use xlink:href="#DejaVuSans-54"/>
       <use x="63.623047" xlink:href="#DejaVuSans-48"/>
      </g>
     </g>
    </g>
    <g id="xtick_5">
     <g id="line2d_5">
      <g>
       <use style="stroke:#000000;stroke-width:0.8;" x="269.375757" xlink:href="#m76860f82a6" y="307.584"/>
      </g>
     </g>
     <g id="text_5">
      <!-- 80 -->
      <g transform="translate(263.013257 322.182437)scale(0.1 -0.1)">
       <defs>
        <path d="M 31.78125 34.625 
Q 24.75 34.625 20.71875 30.859375 
Q 16.703125 27.09375 16.703125 20.515625 
Q 16.703125 13.921875 20.71875 10.15625 
Q 24.75 6.390625 31.78125 6.390625 
Q 38.8125 6.390625 42.859375 10.171875 
Q 46.921875 13.96875 46.921875 20.515625 
Q 46.921875 27.09375 42.890625 30.859375 
Q 38.875 34.625 31.78125 34.625 
z
M 21.921875 38.8125 
Q 15.578125 40.375 12.03125 44.71875 
Q 8.5 49.078125 8.5 55.328125 
Q 8.5 64.0625 14.71875 69.140625 
Q 20.953125 74.21875 31.78125 74.21875 
Q 42.671875 74.21875 48.875 69.140625 
Q 55.078125 64.0625 55.078125 55.328125 
Q 55.078125 49.078125 51.53125 44.71875 
Q 48 40.375 41.703125 38.8125 
Q 48.828125 37.15625 52.796875 32.3125 
Q 56.78125 27.484375 56.78125 20.515625 
Q 56.78125 9.90625 50.3125 4.234375 
Q 43.84375 -1.421875 31.78125 -1.421875 
Q 19.734375 -1.421875 13.25 4.234375 
Q 6.78125 9.90625 6.78125 20.515625 
Q 6.78125 27.484375 10.78125 32.3125 
Q 14.796875 37.15625 21.921875 38.8125 
z
M 18.3125 54.390625 
Q 18.3125 48.734375 21.84375 45.5625 
Q 25.390625 42.390625 31.78125 42.390625 
Q 38.140625 42.390625 41.71875 45.5625 
Q 45.3125 48.734375 45.3125 54.390625 
Q 45.3125 60.0625 41.71875 63.234375 
Q 38.140625 66.40625 31.78125 66.40625 
Q 25.390625 66.40625 21.84375 63.234375 
Q 18.3125 60.0625 18.3125 54.390625 
z
" id="DejaVuSans-56"/>
       </defs>
       <use xlink:href="#DejaVuSans-56"/>
       <use x="63.623047" xlink:href="#DejaVuSans-48"/>
      </g>
     </g>
    </g>
    <g id="xtick_6">
     <g id="line2d_6">
      <g>
       <use style="stroke:#000000;stroke-width:0.8;" x="322.152736" xlink:href="#m76860f82a6" y="307.584"/>
      </g>
     </g>
     <g id="text_6">
      <!-- 100 -->
      <g transform="translate(312.608986 322.182437)scale(0.1 -0.1)">
       <defs>
        <path d="M 12.40625 8.296875 
L 28.515625 8.296875 
L 28.515625 63.921875 
L 10.984375 60.40625 
L 10.984375 69.390625 
L 28.421875 72.90625 
L 38.28125 72.90625 
L 38.28125 8.296875 
L 54.390625 8.296875 
L 54.390625 0 
L 12.40625 0 
z
" id="DejaVuSans-49"/>
       </defs>
       <use xlink:href="#DejaVuSans-49"/>
       <use x="63.623047" xlink:href="#DejaVuSans-48"/>
       <use x="127.246094" xlink:href="#DejaVuSans-48"/>
      </g>
     </g>
    </g>
    <g id="xtick_7">
     <g id="line2d_7">
      <g>
       <use style="stroke:#000000;stroke-width:0.8;" x="374.929715" xlink:href="#m76860f82a6" y="307.584"/>
      </g>
     </g>
     <g id="text_7">
      <!-- 120 -->
      <g transform="translate(365.385965 322.182437)scale(0.1 -0.1)">
       <use xlink:href="#DejaVuSans-49"/>
       <use x="63.623047" xlink:href="#DejaVuSans-50"/>
       <use x="127.246094" xlink:href="#DejaVuSans-48"/>
      </g>
     </g>
    </g>
   </g>
   <g id="matplotlib.axis_2">
    <g id="ytick_1">
     <g id="line2d_8">
      <defs>
       <path d="M 0 0 
L -3.5 0 
" id="mf5de66a8d5" style="stroke:#000000;stroke-width:0.8;"/>
      </defs>
      <g>
       <use style="stroke:#000000;stroke-width:0.8;" x="57.6" xlink:href="#mf5de66a8d5" y="296.659493"/>
      </g>
     </g>
     <g id="text_8">
      <!-- 0 -->
      <g transform="translate(44.2375 300.458711)scale(0.1 -0.1)">
       <use xlink:href="#DejaVuSans-48"/>
      </g>
     </g>
    </g>
    <g id="ytick_2">
     <g id="line2d_9">
      <g>
       <use style="stroke:#000000;stroke-width:0.8;" x="57.6" xlink:href="#mf5de66a8d5" y="243.882514"/>
      </g>
     </g>
     <g id="text_9">
      <!-- 20 -->
      <g transform="translate(37.875 247.681732)scale(0.1 -0.1)">
       <use xlink:href="#DejaVuSans-50"/>
       <use x="63.623047" xlink:href="#DejaVuSans-48"/>
      </g>
     </g>
    </g>
    <g id="ytick_3">
     <g id="line2d_10">
      <g>
       <use style="stroke:#000000;stroke-width:0.8;" x="57.6" xlink:href="#mf5de66a8d5" y="191.105534"/>
      </g>
     </g>
     <g id="text_10">
      <!-- 40 -->
      <g transform="translate(37.875 194.904753)scale(0.1 -0.1)">
       <use xlink:href="#DejaVuSans-52"/>
       <use x="63.623047" xlink:href="#DejaVuSans-48"/>
      </g>
     </g>
    </g>
    <g id="ytick_4">
     <g id="line2d_11">
      <g>
       <use style="stroke:#000000;stroke-width:0.8;" x="57.6" xlink:href="#mf5de66a8d5" y="138.328555"/>
      </g>
     </g>
     <g id="text_11">
      <!-- 60 -->
      <g transform="translate(37.875 142.127774)scale(0.1 -0.1)">
       <use xlink:href="#DejaVuSans-54"/>
       <use x="63.623047" xlink:href="#DejaVuSans-48"/>
      </g>
     </g>
    </g>
    <g id="ytick_5">
     <g id="line2d_12">
      <g>
       <use style="stroke:#000000;stroke-width:0.8;" x="57.6" xlink:href="#mf5de66a8d5" y="85.551576"/>
      </g>
     </g>
     <g id="text_12">
      <!-- 80 -->
      <g transform="translate(37.875 89.350795)scale(0.1 -0.1)">
       <use xlink:href="#DejaVuSans-56"/>
       <use x="63.623047" xlink:href="#DejaVuSans-48"/>
      </g>
     </g>
    </g>
   </g>
   <g id="line2d_13">
    <path clip-path="url(#p5ed8624811)" d="M 97.977239 270.271003 
L 98.146126 251.854476 
L 97.99835 243.882514 
L 97.573496 235.929023 
L 97.085309 230.653964 
L 96.399208 225.421126 
L 95.483527 220.241066 
L 94.311878 215.121699 
L 92.913288 210.060387 
L 86.896713 189.749166 
L 85.743536 184.532162 
L 84.899104 179.270297 
L 84.442583 173.995238 
L 84.384528 171.356389 
L 84.453139 168.728095 
L 84.65633 166.105079 
L 85.004658 163.497897 
L 85.492845 160.903908 
L 86.110336 158.333669 
L 86.85713 155.78718 
L 87.720034 153.272357 
L 89.775697 148.340348 
L 92.22191 143.579865 
L 95.005896 139.014656 
L 98.09071 134.676388 
L 101.463159 130.580895 
L 105.110048 126.74137 
L 109.018184 123.181562 
L 113.174371 119.914667 
L 117.55486 116.945962 
L 122.125346 114.270169 
L 126.859441 111.874095 
L 131.720201 109.75246 
L 136.678598 107.899988 
L 141.702967 106.266541 
L 149.313407 104.068379 
L 159.459781 101.199951 
L 166.988417 98.830264 
L 184.58954 93.140906 
L 189.727379 91.708011 
L 194.923272 90.502057 
L 200.161388 89.631237 
L 202.789681 89.354158 
L 205.423252 89.201104 
L 208.062101 89.18791 
L 210.698311 89.322491 
L 213.334522 89.620681 
L 215.960176 90.077202 
L 218.562081 90.686776 
L 221.134959 91.444126 
L 223.665615 92.346612 
L 226.140856 93.38368 
L 228.555402 94.555329 
L 230.8987 95.856281 
L 233.157555 97.275982 
L 235.321411 98.814431 
L 237.38763 100.461073 
L 239.361489 102.207991 
L 243.082266 105.944601 
L 246.578741 109.91343 
L 260.15298 126.179295 
L 265.483455 132.019067 
L 270.982816 137.718981 
L 276.680091 143.255286 
L 280.62517 146.786066 
L 284.723302 150.12421 
L 289.006154 153.214302 
L 293.497475 156.003566 
L 298.199904 158.460334 
L 303.076497 160.574052 
L 308.09031 162.331525 
L 313.207038 163.722199 
L 318.392376 164.738156 
L 323.622575 165.405784 
L 328.887079 165.78314 
L 334.175332 165.936193 
L 342.1341 165.872861 
L 350.09023 165.590504 
L 355.375844 165.244815 
L 360.627154 164.722323 
L 365.833603 163.986084 
L 370.984636 162.988599 
L 376.06442 161.692924 
L 381.0624 160.056838 
L 385.962743 158.040757 
L 390.754892 155.599822 
L 393.106107 154.20651 
L 393.106107 154.20651 
" style="fill:none;stroke:#fea952;stroke-linecap:square;"/>
   </g>
   <g id="line2d_14">
    <path clip-path="url(#p5ed8624811)" d="M 87.422761 270.131847 
L 87.59125 251.959291 
L 87.451288 244.30188 
L 87.05507 236.811688 
L 86.606153 231.920327 
L 85.984017 227.135822 
L 85.165706 222.467934 
L 84.114826 217.848694 
L 82.804511 213.098312 
L 76.61959 192.15689 
L 75.349492 186.370706 
L 74.403738 180.394425 
L 74.084266 177.329231 
L 73.889741 174.2274 
L 73.832727 171.08094 
L 73.929271 167.912866 
L 74.193897 164.707265 
L 74.631369 161.54565 
L 75.229486 158.438173 
L 75.981516 155.363249 
L 76.873123 152.361398 
L 77.89533 149.413397 
L 79.039201 146.525723 
L 80.295451 143.699086 
L 81.659571 140.930804 
L 84.660597 135.619465 
L 88.017102 130.552186 
L 91.713558 125.74494 
L 95.728252 121.227783 
L 97.865248 119.06483 
L 102.346169 115.002284 
L 107.107118 111.277259 
L 112.071623 107.926511 
L 117.220899 104.923364 
L 122.499504 102.261221 
L 127.900024 99.912611 
L 133.315397 97.894727 
L 138.676668 96.154276 
L 146.49594 93.895953 
L 156.389825 91.100854 
L 163.685464 88.804952 
L 181.662143 82.999568 
L 187.201713 81.459236 
L 192.996373 80.12403 
L 196.00444 79.573165 
L 199.054752 79.134011 
L 202.177275 78.816542 
L 205.370476 78.64584 
L 208.600265 78.646242 
L 211.8847 78.83398 
L 215.142654 79.221305 
L 218.3679 79.80008 
L 221.542708 80.560955 
L 224.680525 81.502027 
L 227.744536 82.611173 
L 230.748951 83.887268 
L 233.678908 85.326783 
L 236.515554 86.919429 
L 239.273884 88.673256 
L 241.899875 90.559724 
L 244.383183 92.556731 
L 246.702642 94.623543 
L 250.915961 98.870026 
L 254.693641 103.163261 
L 268.017638 119.139157 
L 273.150334 124.764045 
L 278.436073 130.244669 
L 283.799764 135.462557 
L 287.40121 138.692756 
L 291.032881 141.662201 
L 294.743885 144.354571 
L 298.559305 146.741047 
L 302.569337 148.851773 
L 306.745952 150.677008 
L 311.038568 152.196233 
L 315.4187 153.401107 
L 319.892529 154.289906 
L 324.50964 154.887729 
L 329.287494 155.235342 
L 334.206872 155.380844 
L 341.861388 155.320988 
L 349.480866 155.052712 
L 354.426859 154.732165 
L 359.272336 154.254235 
L 363.965944 153.597232 
L 368.53979 152.720244 
L 372.956501 151.605446 
L 377.23511 150.219753 
L 381.363321 148.540141 
L 385.373726 146.519104 
L 387.724941 145.125792 
L 387.724941 145.125792 
" style="fill:none;stroke:#ffffff;stroke-linecap:square;"/>
   </g>
   <g id="line2d_15">
    <path clip-path="url(#p5ed8624811)" d="M 108.531718 270.41016 
L 108.701001 251.749661 
L 108.545412 243.463147 
L 108.284158 237.861807 
L 107.853586 232.224732 
L 107.220056 226.55561 
L 106.34355 220.86455 
L 105.188661 215.190866 
L 103.78416 209.690178 
L 101.45334 201.869008 
L 98.44708 192.062764 
L 97.173835 187.341443 
L 96.137579 182.693617 
L 95.39447 178.146169 
L 94.995426 173.763075 
L 94.977006 169.543324 
L 95.118762 167.502894 
L 95.377947 165.450143 
L 96.239155 161.30409 
L 97.544738 157.131317 
L 99.255943 152.98161 
L 101.327715 148.918468 
L 103.71221 144.98261 
L 106.355553 141.242114 
L 109.240622 137.717242 
L 112.354848 134.417909 
L 115.690198 131.360841 
L 119.241623 128.552076 
L 123.038097 125.965413 
L 127.029794 123.616975 
L 131.219378 121.486968 
L 135.540378 119.592309 
L 140.0418 117.905249 
L 144.729265 116.378805 
L 152.130874 114.240806 
L 162.529737 111.299047 
L 170.291371 108.855576 
L 187.516936 103.282244 
L 192.253044 101.956786 
L 196.850171 100.880084 
L 201.268023 100.128462 
L 205.476029 99.756368 
L 209.511923 99.811002 
L 211.526389 100.020058 
L 213.552453 100.354325 
L 215.581455 100.812597 
L 217.589393 101.386225 
L 219.586694 102.082052 
L 221.532761 102.880092 
L 223.431896 103.783875 
L 227.041226 105.878709 
L 228.742947 107.069138 
L 230.392076 108.365414 
L 233.638383 111.348641 
L 236.847597 114.785016 
L 240.085576 118.612178 
L 248.686581 129.078741 
L 254.111101 135.255016 
L 259.701868 141.265651 
L 265.493205 147.150338 
L 269.560417 151.048016 
L 273.84913 154.879376 
L 278.413724 158.58622 
L 283.268424 162.074033 
L 285.824613 163.720453 
L 288.435645 165.266085 
L 291.112821 166.720718 
L 296.594966 169.318688 
L 302.254832 171.519732 
L 308.052166 173.306439 
L 313.9467 174.669006 
L 319.829593 175.602933 
L 325.628561 176.164483 
L 331.318132 176.436714 
L 336.908673 176.499172 
L 345.15616 176.353251 
L 353.505494 175.964834 
L 359.148065 175.500833 
L 364.838015 174.817817 
L 370.562642 173.856672 
L 376.30568 172.566597 
L 382.032195 170.892556 
L 384.88969 169.893922 
L 387.726643 168.781803 
L 390.562164 167.541373 
L 393.350488 166.181972 
L 398.487273 163.287227 
L 398.487273 163.287227 
" style="fill:none;stroke:#ffffff;stroke-linecap:square;"/>
   </g>
   <g id="patch_3">
    <path d="M 57.6 307.584 
L 57.6 41.472 
" style="fill:none;stroke:#000000;stroke-linecap:square;stroke-linejoin:miter;stroke-width:0.8;"/>
   </g>
   <g id="patch_4">
    <path d="M 414.72 307.584 
L 414.72 41.472 
" style="fill:none;stroke:#000000;stroke-linecap:square;stroke-linejoin:miter;stroke-width:0.8;"/>
   </g>
   <g id="patch_5">
    <path d="M 57.6 307.584 
L 414.72 307.584 
" style="fill:none;stroke:#000000;stroke-linecap:square;stroke-linejoin:miter;stroke-width:0.8;"/>
   </g>
   <g id="patch_6">
    <path d="M 57.6 41.472 
L 414.72 41.472 
" style="fill:none;stroke:#000000;stroke-linecap:square;stroke-linejoin:miter;stroke-width:0.8;"/>
   </g>
  </g>
 </g>
 <defs>
  <clipPath id="p5ed8624811">
   <rect height="266.112" width="357.12" x="57.6" y="41.472"/>
  </clipPath>
 </defs>
</svg>
