<?xml version="1.0" encoding="utf-8" standalone="no"?>
<!DOCTYPE svg PUBLIC "-//W3C//DTD SVG 1.1//EN"
  "http://www.w3.org/Graphics/SVG/1.1/DTD/svg11.dtd">
<!-- Created with matplotlib (https://matplotlib.org/) -->
<svg height="345.6pt" version="1.1" viewBox="0 0 460.8 345.6" width="460.8pt" xmlns="http://www.w3.org/2000/svg" xmlns:xlink="http://www.w3.org/1999/xlink">
 <metadata>
  <rdf:RDF xmlns:cc="http://creativecommons.org/ns#" xmlns:dc="http://purl.org/dc/elements/1.1/" xmlns:rdf="http://www.w3.org/1999/02/22-rdf-syntax-ns#">
   <cc:Work>
    <dc:type rdf:resource="http://purl.org/dc/dcmitype/StillImage"/>
    <dc:date>2021-01-23T12:36:59.583207</dc:date>
    <dc:format>image/svg+xml</dc:format>
    <dc:creator>
     <cc:Agent>
      <dc:title>Matplotlib v3.3.3, https://matplotlib.org/</dc:title>
     </cc:Agent>
    </dc:creator>
   </cc:Work>
  </rdf:RDF>
 </metadata>
 <defs>
  <style type="text/css">*{stroke-linecap:butt;stroke-linejoin:round;}</style>
 </defs>
 <g id="figure_1">
  <g id="patch_1">
   <path d="M 0 345.6 
L 460.8 345.6 
L 460.8 0 
L 0 0 
z
" style="fill:#ffffff;"/>
  </g>
  <g id="axes_1">
   <g id="patch_2">
    <path d="M 57.6 307.584 
L 414.72 307.584 
L 414.72 41.472 
L 57.6 41.472 
z
" style="fill:#7d9051;"/>
   </g>
   <g id="matplotlib.axis_1">
    <g id="xtick_1">
     <g id="line2d_1">
      <defs>
       <path d="M 0 0 
L 0 3.5 
" id="m49078a6fa2" style="stroke:#000000;stroke-width:0.8;"/>
      </defs>
      <g>
       <use style="stroke:#000000;stroke-width:0.8;" x="73.200323" xlink:href="#m49078a6fa2" y="307.584"/>
      </g>
     </g>
     <g id="text_1">
      <!-- −20 -->
      <g transform="translate(62.64798 322.182437)scale(0.1 -0.1)">
       <defs>
        <path d="M 10.59375 35.5 
L 73.1875 35.5 
L 73.1875 27.203125 
L 10.59375 27.203125 
z
" id="DejaVuSans-8722"/>
        <path d="M 19.1875 8.296875 
L 53.609375 8.296875 
L 53.609375 0 
L 7.328125 0 
L 7.328125 8.296875 
Q 12.9375 14.109375 22.625 23.890625 
Q 32.328125 33.6875 34.8125 36.53125 
Q 39.546875 41.84375 41.421875 45.53125 
Q 43.3125 49.21875 43.3125 52.78125 
Q 43.3125 58.59375 39.234375 62.25 
Q 35.15625 65.921875 28.609375 65.921875 
Q 23.96875 65.921875 18.8125 64.3125 
Q 13.671875 62.703125 7.8125 59.421875 
L 7.8125 69.390625 
Q 13.765625 71.78125 18.9375 73 
Q 24.125 74.21875 28.421875 74.21875 
Q 39.75 74.21875 46.484375 68.546875 
Q 53.21875 62.890625 53.21875 53.421875 
Q 53.21875 48.921875 51.53125 44.890625 
Q 49.859375 40.875 45.40625 35.40625 
Q 44.1875 33.984375 37.640625 27.21875 
Q 31.109375 20.453125 19.1875 8.296875 
z
" id="DejaVuSans-50"/>
        <path d="M 31.78125 66.40625 
Q 24.171875 66.40625 20.328125 58.90625 
Q 16.5 51.421875 16.5 36.375 
Q 16.5 21.390625 20.328125 13.890625 
Q 24.171875 6.390625 31.78125 6.390625 
Q 39.453125 6.390625 43.28125 13.890625 
Q 47.125 21.390625 47.125 36.375 
Q 47.125 51.421875 43.28125 58.90625 
Q 39.453125 66.40625 31.78125 66.40625 
z
M 31.78125 74.21875 
Q 44.046875 74.21875 50.515625 64.515625 
Q 56.984375 54.828125 56.984375 36.375 
Q 56.984375 17.96875 50.515625 8.265625 
Q 44.046875 -1.421875 31.78125 -1.421875 
Q 19.53125 -1.421875 13.0625 8.265625 
Q 6.59375 17.96875 6.59375 36.375 
Q 6.59375 54.828125 13.0625 64.515625 
Q 19.53125 74.21875 31.78125 74.21875 
z
" id="DejaVuSans-48"/>
       </defs>
       <use xlink:href="#DejaVuSans-8722"/>
       <use x="83.789062" xlink:href="#DejaVuSans-50"/>
       <use x="147.412109" xlink:href="#DejaVuSans-48"/>
      </g>
     </g>
    </g>
    <g id="xtick_2">
     <g id="line2d_2">
      <g>
       <use style="stroke:#000000;stroke-width:0.8;" x="122.46039" xlink:href="#m49078a6fa2" y="307.584"/>
      </g>
     </g>
     <g id="text_2">
      <!-- 0 -->
      <g transform="translate(119.27914 322.182437)scale(0.1 -0.1)">
       <use xlink:href="#DejaVuSans-48"/>
      </g>
     </g>
    </g>
    <g id="xtick_3">
     <g id="line2d_3">
      <g>
       <use style="stroke:#000000;stroke-width:0.8;" x="171.720457" xlink:href="#m49078a6fa2" y="307.584"/>
      </g>
     </g>
     <g id="text_3">
      <!-- 20 -->
      <g transform="translate(165.357957 322.182437)scale(0.1 -0.1)">
       <use xlink:href="#DejaVuSans-50"/>
       <use x="63.623047" xlink:href="#DejaVuSans-48"/>
      </g>
     </g>
    </g>
    <g id="xtick_4">
     <g id="line2d_4">
      <g>
       <use style="stroke:#000000;stroke-width:0.8;" x="220.980524" xlink:href="#m49078a6fa2" y="307.584"/>
      </g>
     </g>
     <g id="text_4">
      <!-- 40 -->
      <g transform="translate(214.618024 322.182437)scale(0.1 -0.1)">
       <defs>
        <path d="M 37.796875 64.3125 
L 12.890625 25.390625 
L 37.796875 25.390625 
z
M 35.203125 72.90625 
L 47.609375 72.90625 
L 47.609375 25.390625 
L 58.015625 25.390625 
L 58.015625 17.1875 
L 47.609375 17.1875 
L 47.609375 0 
L 37.796875 0 
L 37.796875 17.1875 
L 4.890625 17.1875 
L 4.890625 26.703125 
z
" id="DejaVuSans-52"/>
       </defs>
       <use xlink:href="#DejaVuSans-52"/>
       <use x="63.623047" xlink:href="#DejaVuSans-48"/>
      </g>
     </g>
    </g>
    <g id="xtick_5">
     <g id="line2d_5">
      <g>
       <use style="stroke:#000000;stroke-width:0.8;" x="270.240591" xlink:href="#m49078a6fa2" y="307.584"/>
      </g>
     </g>
     <g id="text_5">
      <!-- 60 -->
      <g transform="translate(263.878091 322.182437)scale(0.1 -0.1)">
       <defs>
        <path d="M 33.015625 40.375 
Q 26.375 40.375 22.484375 35.828125 
Q 18.609375 31.296875 18.609375 23.390625 
Q 18.609375 15.53125 22.484375 10.953125 
Q 26.375 6.390625 33.015625 6.390625 
Q 39.65625 6.390625 43.53125 10.953125 
Q 47.40625 15.53125 47.40625 23.390625 
Q 47.40625 31.296875 43.53125 35.828125 
Q 39.65625 40.375 33.015625 40.375 
z
M 52.59375 71.296875 
L 52.59375 62.3125 
Q 48.875 64.0625 45.09375 64.984375 
Q 41.3125 65.921875 37.59375 65.921875 
Q 27.828125 65.921875 22.671875 59.328125 
Q 17.53125 52.734375 16.796875 39.40625 
Q 19.671875 43.65625 24.015625 45.921875 
Q 28.375 48.1875 33.59375 48.1875 
Q 44.578125 48.1875 50.953125 41.515625 
Q 57.328125 34.859375 57.328125 23.390625 
Q 57.328125 12.15625 50.6875 5.359375 
Q 44.046875 -1.421875 33.015625 -1.421875 
Q 20.359375 -1.421875 13.671875 8.265625 
Q 6.984375 17.96875 6.984375 36.375 
Q 6.984375 53.65625 15.1875 63.9375 
Q 23.390625 74.21875 37.203125 74.21875 
Q 40.921875 74.21875 44.703125 73.484375 
Q 48.484375 72.75 52.59375 71.296875 
z
" id="DejaVuSans-54"/>
       </defs>
       <use xlink:href="#DejaVuSans-54"/>
       <use x="63.623047" xlink:href="#DejaVuSans-48"/>
      </g>
     </g>
    </g>
    <g id="xtick_6">
     <g id="line2d_6">
      <g>
       <use style="stroke:#000000;stroke-width:0.8;" x="319.500658" xlink:href="#m49078a6fa2" y="307.584"/>
      </g>
     </g>
     <g id="text_6">
      <!-- 80 -->
      <g transform="translate(313.138158 322.182437)scale(0.1 -0.1)">
       <defs>
        <path d="M 31.78125 34.625 
Q 24.75 34.625 20.71875 30.859375 
Q 16.703125 27.09375 16.703125 20.515625 
Q 16.703125 13.921875 20.71875 10.15625 
Q 24.75 6.390625 31.78125 6.390625 
Q 38.8125 6.390625 42.859375 10.171875 
Q 46.921875 13.96875 46.921875 20.515625 
Q 46.921875 27.09375 42.890625 30.859375 
Q 38.875 34.625 31.78125 34.625 
z
M 21.921875 38.8125 
Q 15.578125 40.375 12.03125 44.71875 
Q 8.5 49.078125 8.5 55.328125 
Q 8.5 64.0625 14.71875 69.140625 
Q 20.953125 74.21875 31.78125 74.21875 
Q 42.671875 74.21875 48.875 69.140625 
Q 55.078125 64.0625 55.078125 55.328125 
Q 55.078125 49.078125 51.53125 44.71875 
Q 48 40.375 41.703125 38.8125 
Q 48.828125 37.15625 52.796875 32.3125 
Q 56.78125 27.484375 56.78125 20.515625 
Q 56.78125 9.90625 50.3125 4.234375 
Q 43.84375 -1.421875 31.78125 -1.421875 
Q 19.734375 -1.421875 13.25 4.234375 
Q 6.78125 9.90625 6.78125 20.515625 
Q 6.78125 27.484375 10.78125 32.3125 
Q 14.796875 37.15625 21.921875 38.8125 
z
M 18.3125 54.390625 
Q 18.3125 48.734375 21.84375 45.5625 
Q 25.390625 42.390625 31.78125 42.390625 
Q 38.140625 42.390625 41.71875 45.5625 
Q 45.3125 48.734375 45.3125 54.390625 
Q 45.3125 60.0625 41.71875 63.234375 
Q 38.140625 66.40625 31.78125 66.40625 
Q 25.390625 66.40625 21.84375 63.234375 
Q 18.3125 60.0625 18.3125 54.390625 
z
" id="DejaVuSans-56"/>
       </defs>
       <use xlink:href="#DejaVuSans-56"/>
       <use x="63.623047" xlink:href="#DejaVuSans-48"/>
      </g>
     </g>
    </g>
    <g id="xtick_7">
     <g id="line2d_7">
      <g>
       <use style="stroke:#000000;stroke-width:0.8;" x="368.760725" xlink:href="#m49078a6fa2" y="307.584"/>
      </g>
     </g>
     <g id="text_7">
      <!-- 100 -->
      <g transform="translate(359.216975 322.182437)scale(0.1 -0.1)">
       <defs>
        <path d="M 12.40625 8.296875 
L 28.515625 8.296875 
L 28.515625 63.921875 
L 10.984375 60.40625 
L 10.984375 69.390625 
L 28.421875 72.90625 
L 38.28125 72.90625 
L 38.28125 8.296875 
L 54.390625 8.296875 
L 54.390625 0 
L 12.40625 0 
z
" id="DejaVuSans-49"/>
       </defs>
       <use xlink:href="#DejaVuSans-49"/>
       <use x="63.623047" xlink:href="#DejaVuSans-48"/>
       <use x="127.246094" xlink:href="#DejaVuSans-48"/>
      </g>
     </g>
    </g>
   </g>
   <g id="matplotlib.axis_2">
    <g id="ytick_1">
     <g id="line2d_8">
      <defs>
       <path d="M 0 0 
L -3.5 0 
" id="m912e86eb43" style="stroke:#000000;stroke-width:0.8;"/>
      </defs>
      <g>
       <use style="stroke:#000000;stroke-width:0.8;" x="57.6" xlink:href="#m912e86eb43" y="270.327789"/>
      </g>
     </g>
     <g id="text_8">
      <!-- 20 -->
      <g transform="translate(37.875 274.127008)scale(0.1 -0.1)">
       <use xlink:href="#DejaVuSans-50"/>
       <use x="63.623047" xlink:href="#DejaVuSans-48"/>
      </g>
     </g>
    </g>
    <g id="ytick_2">
     <g id="line2d_9">
      <g>
       <use style="stroke:#000000;stroke-width:0.8;" x="57.6" xlink:href="#m912e86eb43" y="221.067722"/>
      </g>
     </g>
     <g id="text_9">
      <!-- 40 -->
      <g transform="translate(37.875 224.866941)scale(0.1 -0.1)">
       <use xlink:href="#DejaVuSans-52"/>
       <use x="63.623047" xlink:href="#DejaVuSans-48"/>
      </g>
     </g>
    </g>
    <g id="ytick_3">
     <g id="line2d_10">
      <g>
       <use style="stroke:#000000;stroke-width:0.8;" x="57.6" xlink:href="#m912e86eb43" y="171.807655"/>
      </g>
     </g>
     <g id="text_10">
      <!-- 60 -->
      <g transform="translate(37.875 175.606874)scale(0.1 -0.1)">
       <use xlink:href="#DejaVuSans-54"/>
       <use x="63.623047" xlink:href="#DejaVuSans-48"/>
      </g>
     </g>
    </g>
    <g id="ytick_4">
     <g id="line2d_11">
      <g>
       <use style="stroke:#000000;stroke-width:0.8;" x="57.6" xlink:href="#m912e86eb43" y="122.547588"/>
      </g>
     </g>
     <g id="text_11">
      <!-- 80 -->
      <g transform="translate(37.875 126.346807)scale(0.1 -0.1)">
       <use xlink:href="#DejaVuSans-56"/>
       <use x="63.623047" xlink:href="#DejaVuSans-48"/>
      </g>
     </g>
    </g>
    <g id="ytick_5">
     <g id="line2d_12">
      <g>
       <use style="stroke:#000000;stroke-width:0.8;" x="57.6" xlink:href="#m912e86eb43" y="73.287522"/>
      </g>
     </g>
     <g id="text_12">
      <!-- 100 -->
      <g transform="translate(31.5125 77.08674)scale(0.1 -0.1)">
       <use xlink:href="#DejaVuSans-49"/>
       <use x="63.623047" xlink:href="#DejaVuSans-48"/>
       <use x="127.246094" xlink:href="#DejaVuSans-48"/>
      </g>
     </g>
    </g>
   </g>
   <g id="line2d_13">
    <path clip-path="url(#pc91a302add)" d="M 335.300824 156.610925 
L 330.463486 156.615851 
L 323.108958 156.965597 
L 308.215176 157.950798 
L 303.244836 158.081338 
L 298.299125 157.987744 
L 293.390359 157.5912 
L 288.528391 156.815354 
L 286.122036 156.261178 
L 283.732923 155.586315 
L 281.370903 154.790765 
L 279.048291 153.874528 
L 276.770013 152.84253 
L 274.545921 151.692307 
L 272.38833 150.431249 
L 270.307092 149.056893 
L 268.307133 147.574165 
L 266.400769 145.983065 
L 264.59785 144.286056 
L 262.905767 142.488063 
L 261.322056 140.594014 
L 259.839328 138.616222 
L 258.457583 136.562077 
L 255.967487 132.259211 
L 253.817285 127.761767 
L 251.965106 123.143635 
L 250.366617 118.463929 
L 247.529237 109.042941 
L 245.29283 102.011067 
L 243.546561 97.378157 
L 241.517046 92.836379 
L 239.172267 88.44977 
L 236.490056 84.279905 
L 235.014717 82.294725 
L 233.445784 80.38836 
L 231.778331 78.568201 
L 230.01482 76.839172 
L 228.155253 75.206201 
L 226.211943 73.669287 
L 224.187354 72.233356 
L 222.088876 70.895945 
L 219.923896 69.661981 
L 217.697341 68.531462 
L 215.419062 67.509316 
L 213.091524 66.593078 
L 210.724578 65.787676 
L 208.32315 65.093109 
L 205.892166 64.514304 
L 203.441477 64.053722 
L 200.973548 63.713828 
L 198.493303 63.502009 
L 196.008133 63.418267 
L 193.522963 63.465064 
L 191.045181 63.649789 
L 188.579715 63.974906 
L 186.13149 64.440414 
L 183.707894 65.053701 
L 181.316318 65.80738 
L 178.971539 66.701451 
L 176.680946 67.728523 
L 174.454391 68.888598 
L 172.301726 70.174285 
L 170.237729 71.583123 
L 168.267326 73.110185 
L 166.405296 74.753009 
L 164.659027 76.506667 
L 163.03837 78.368697 
L 161.538401 80.324322 
L 160.154193 82.371078 
L 158.880821 84.49665 
L 157.713357 86.688723 
L 155.676453 91.242816 
L 153.996685 95.957004 
L 152.634644 100.757398 
L 151.560775 105.597199 
L 150.75291 110.46902 
L 150.196271 115.365471 
L 149.873617 120.274236 
L 149.765245 125.190391 
L 149.841598 130.109009 
L 150.193808 137.49063 
L 151.504126 159.65766 
L 151.580479 167.044207 
L 151.432699 171.962825 
L 150.898227 179.332131 
L 149.607613 194.058428 
L 149.415499 198.974582 
L 149.440129 206.361129 
L 149.784949 223.607079 
L 149.612539 230.993626 
L 149.095308 240.835787 
L 146.905698 275.246407 
L 146.760381 282.630491 
L 146.858901 290.021964 
L 147.090424 294.957823 
L 147.090424 294.957823 
" style="fill:none;stroke:#fea952;stroke-linecap:square;"/>
   </g>
   <g id="line2d_14">
    <path clip-path="url(#pc91a302add)" d="M 335.190021 166.462315 
L 330.791704 166.462395 
L 323.785115 166.79438 
L 308.566114 167.79656 
L 303.186019 167.933175 
L 297.679059 167.820225 
L 292.049544 167.351547 
L 289.188737 166.949173 
L 286.317378 166.416062 
L 283.443893 165.742197 
L 280.588251 164.922974 
L 277.755565 163.955453 
L 274.983198 162.848779 
L 272.244299 161.593534 
L 269.574534 160.198039 
L 266.959392 158.65249 
L 264.439639 156.971132 
L 261.994263 155.137884 
L 259.648241 153.157014 
L 257.423326 151.037972 
L 255.347724 148.807728 
L 253.439267 146.503651 
L 251.664647 144.115018 
L 250.038991 141.679644 
L 248.535508 139.18871 
L 245.88781 134.117981 
L 243.660374 128.997834 
L 241.783778 123.894689 
L 239.478176 116.550929 
L 236.735553 107.479203 
L 235.282813 103.287495 
L 233.639277 99.255027 
L 231.782469 95.423291 
L 229.704123 91.839589 
L 227.407665 88.555309 
L 224.881021 85.603063 
L 222.043843 82.933609 
L 218.892372 80.541505 
L 215.463608 78.446513 
L 211.810348 76.676614 
L 207.987267 75.251782 
L 204.07244 74.196802 
L 200.135216 73.530108 
L 196.193619 73.268534 
L 192.333197 73.417245 
L 188.54835 73.99138 
L 184.826403 75.012893 
L 181.233197 76.465752 
L 177.855945 78.311411 
L 174.785308 80.497883 
L 173.386413 81.704711 
L 172.090447 82.974755 
L 170.855723 84.364627 
L 169.699331 85.843507 
L 168.60568 87.434135 
L 166.618579 90.902888 
L 164.896791 94.713774 
L 163.434804 98.782614 
L 162.221675 103.026981 
L 161.256688 107.344034 
L 160.527781 111.699492 
L 160.018974 116.124856 
L 159.72057 120.58997 
L 159.617017 125.12136 
L 159.686862 129.744369 
L 160.025706 136.861388 
L 161.261093 156.840214 
L 161.442265 164.623114 
L 161.375328 169.899301 
L 161.114832 175.150139 
L 160.474789 182.740247 
L 159.604275 192.273208 
L 159.334783 196.802665 
L 159.240296 201.385863 
L 159.347395 208.548384 
L 159.639421 221.153927 
L 159.540461 228.85835 
L 159.222483 236.46912 
L 158.411229 248.928737 
L 157.076871 268.382348 
L 156.684311 277.904145 
L 156.614025 284.965429 
L 156.795159 291.959716 
L 156.928161 294.427645 
L 156.928161 294.427645 
" style="fill:none;stroke:#ffffff;stroke-linecap:square;"/>
   </g>
   <g id="line2d_15">
    <path clip-path="url(#pc91a302add)" d="M 335.411627 146.759534 
L 330.135268 146.769306 
L 322.4328 147.136814 
L 305.561412 148.188854 
L 301.083679 148.219557 
L 296.805223 148.028097 
L 292.715235 147.56329 
L 288.80018 146.78016 
L 284.986241 145.626078 
L 281.295726 144.091525 
L 277.817268 142.210008 
L 274.620004 140.010447 
L 273.153297 138.809117 
L 271.772375 137.53414 
L 270.46381 136.168399 
L 268.014009 133.117426 
L 265.79843 129.689227 
L 263.815682 125.942404 
L 262.053053 121.929735 
L 260.496222 117.722727 
L 258.373344 110.96333 
L 255.416577 101.212784 
L 253.623079 96.084488 
L 251.498219 90.929953 
L 248.98566 85.816061 
L 247.569857 83.297814 
L 246.044405 80.828511 
L 244.397491 78.403288 
L 242.62177 76.03414 
L 240.710276 73.733338 
L 238.67564 71.533338 
L 236.515595 69.436329 
L 234.266663 67.478793 
L 231.911459 65.633263 
L 229.482336 63.925208 
L 226.967402 62.336614 
L 224.384183 60.877449 
L 221.730155 59.542659 
L 219.027777 58.342018 
L 216.265176 57.26623 
L 213.461889 56.323571 
L 210.605078 55.50901 
L 207.711891 54.831806 
L 204.785653 54.293837 
L 201.81188 53.897547 
L 198.825096 53.655584 
L 195.822647 53.568 
L 192.790501 53.640316 
L 189.757165 53.882334 
L 186.739416 54.296297 
L 183.714629 54.889447 
L 180.746702 55.657239 
L 177.806233 56.601867 
L 174.940682 57.71177 
L 172.128695 58.991294 
L 169.40266 60.430336 
L 166.747506 62.03716 
L 164.202665 63.795944 
L 161.749344 65.722488 
L 159.424179 67.801306 
L 157.227606 70.038579 
L 155.221018 72.372768 
L 153.377472 74.805138 
L 151.702707 77.308021 
L 150.185165 79.86548 
L 148.808135 82.474558 
L 147.569476 85.113146 
L 145.457021 90.443484 
L 143.764157 95.799214 
L 142.415943 101.173125 
L 141.381522 106.554762 
L 140.643388 111.919841 
L 140.169025 117.285793 
L 139.9435 122.613861 
L 139.93332 127.887785 
L 140.215503 135.601117 
L 141.028193 147.989001 
L 141.569822 157.549099 
L 141.738396 164.544219 
L 141.687109 169.110194 
L 141.464857 173.691665 
L 140.863546 180.830317 
L 139.945919 190.932418 
L 139.639069 196.230345 
L 139.536516 201.484382 
L 139.651087 209.099881 
L 139.935404 221.134223 
L 139.847176 228.207821 
L 139.549403 235.365219 
L 138.759704 247.491301 
L 137.399537 267.357076 
L 137.057834 274.960533 
L 136.908373 282.640343 
L 137.014729 290.414945 
L 137.252686 295.488 
L 137.252686 295.488 
" style="fill:none;stroke:#ffffff;stroke-linecap:square;"/>
   </g>
   <g id="patch_3">
    <path d="M 57.6 307.584 
L 57.6 41.472 
" style="fill:none;stroke:#000000;stroke-linecap:square;stroke-linejoin:miter;stroke-width:0.8;"/>
   </g>
   <g id="patch_4">
    <path d="M 414.72 307.584 
L 414.72 41.472 
" style="fill:none;stroke:#000000;stroke-linecap:square;stroke-linejoin:miter;stroke-width:0.8;"/>
   </g>
   <g id="patch_5">
    <path d="M 57.6 307.584 
L 414.72 307.584 
" style="fill:none;stroke:#000000;stroke-linecap:square;stroke-linejoin:miter;stroke-width:0.8;"/>
   </g>
   <g id="patch_6">
    <path d="M 57.6 41.472 
L 414.72 41.472 
" style="fill:none;stroke:#000000;stroke-linecap:square;stroke-linejoin:miter;stroke-width:0.8;"/>
   </g>
  </g>
 </g>
 <defs>
  <clipPath id="pc91a302add">
   <rect height="266.112" width="357.12" x="57.6" y="41.472"/>
  </clipPath>
 </defs>
</svg>
