<?xml version="1.0" encoding="utf-8" standalone="no"?>
<!DOCTYPE svg PUBLIC "-//W3C//DTD SVG 1.1//EN"
  "http://www.w3.org/Graphics/SVG/1.1/DTD/svg11.dtd">
<!-- Created with matplotlib (https://matplotlib.org/) -->
<svg height="345.6pt" version="1.1" viewBox="0 0 460.8 345.6" width="460.8pt" xmlns="http://www.w3.org/2000/svg" xmlns:xlink="http://www.w3.org/1999/xlink">
 <metadata>
  <rdf:RDF xmlns:cc="http://creativecommons.org/ns#" xmlns:dc="http://purl.org/dc/elements/1.1/" xmlns:rdf="http://www.w3.org/1999/02/22-rdf-syntax-ns#">
   <cc:Work>
    <dc:type rdf:resource="http://purl.org/dc/dcmitype/StillImage"/>
    <dc:date>2021-01-25T09:43:22.814478</dc:date>
    <dc:format>image/svg+xml</dc:format>
    <dc:creator>
     <cc:Agent>
      <dc:title>Matplotlib v3.3.3, https://matplotlib.org/</dc:title>
     </cc:Agent>
    </dc:creator>
   </cc:Work>
  </rdf:RDF>
 </metadata>
 <defs>
  <style type="text/css">*{stroke-linecap:butt;stroke-linejoin:round;}</style>
 </defs>
 <g id="figure_1">
  <g id="patch_1">
   <path d="M 0 345.6 
L 460.8 345.6 
L 460.8 0 
L 0 0 
z
" style="fill:#ffffff;"/>
  </g>
  <g id="axes_1">
   <g id="patch_2">
    <path d="M 57.6 307.584 
L 414.72 307.584 
L 414.72 41.472 
L 57.6 41.472 
z
" style="fill:#7d9051;"/>
   </g>
   <g id="matplotlib.axis_1">
    <g id="xtick_1">
     <g id="line2d_1">
      <defs>
       <path d="M 0 0 
L 0 3.5 
" id="m6f74ce54f3" style="stroke:#000000;stroke-width:0.8;"/>
      </defs>
      <g>
       <use style="stroke:#000000;stroke-width:0.8;" x="115.15704" xlink:href="#m6f74ce54f3" y="307.584"/>
      </g>
     </g>
     <g id="text_1">
      <!-- 20 -->
      <g transform="translate(108.79454 322.182437)scale(0.1 -0.1)">
       <defs>
        <path d="M 19.1875 8.296875 
L 53.609375 8.296875 
L 53.609375 0 
L 7.328125 0 
L 7.328125 8.296875 
Q 12.9375 14.109375 22.625 23.890625 
Q 32.328125 33.6875 34.8125 36.53125 
Q 39.546875 41.84375 41.421875 45.53125 
Q 43.3125 49.21875 43.3125 52.78125 
Q 43.3125 58.59375 39.234375 62.25 
Q 35.15625 65.921875 28.609375 65.921875 
Q 23.96875 65.921875 18.8125 64.3125 
Q 13.671875 62.703125 7.8125 59.421875 
L 7.8125 69.390625 
Q 13.765625 71.78125 18.9375 73 
Q 24.125 74.21875 28.421875 74.21875 
Q 39.75 74.21875 46.484375 68.546875 
Q 53.21875 62.890625 53.21875 53.421875 
Q 53.21875 48.921875 51.53125 44.890625 
Q 49.859375 40.875 45.40625 35.40625 
Q 44.1875 33.984375 37.640625 27.21875 
Q 31.109375 20.453125 19.1875 8.296875 
z
" id="DejaVuSans-50"/>
        <path d="M 31.78125 66.40625 
Q 24.171875 66.40625 20.328125 58.90625 
Q 16.5 51.421875 16.5 36.375 
Q 16.5 21.390625 20.328125 13.890625 
Q 24.171875 6.390625 31.78125 6.390625 
Q 39.453125 6.390625 43.28125 13.890625 
Q 47.125 21.390625 47.125 36.375 
Q 47.125 51.421875 43.28125 58.90625 
Q 39.453125 66.40625 31.78125 66.40625 
z
M 31.78125 74.21875 
Q 44.046875 74.21875 50.515625 64.515625 
Q 56.984375 54.828125 56.984375 36.375 
Q 56.984375 17.96875 50.515625 8.265625 
Q 44.046875 -1.421875 31.78125 -1.421875 
Q 19.53125 -1.421875 13.0625 8.265625 
Q 6.59375 17.96875 6.59375 36.375 
Q 6.59375 54.828125 13.0625 64.515625 
Q 19.53125 74.21875 31.78125 74.21875 
z
" id="DejaVuSans-48"/>
       </defs>
       <use xlink:href="#DejaVuSans-50"/>
       <use x="63.623047" xlink:href="#DejaVuSans-48"/>
      </g>
     </g>
    </g>
    <g id="xtick_2">
     <g id="line2d_2">
      <g>
       <use style="stroke:#000000;stroke-width:0.8;" x="176.117388" xlink:href="#m6f74ce54f3" y="307.584"/>
      </g>
     </g>
     <g id="text_2">
      <!-- 40 -->
      <g transform="translate(169.754888 322.182437)scale(0.1 -0.1)">
       <defs>
        <path d="M 37.796875 64.3125 
L 12.890625 25.390625 
L 37.796875 25.390625 
z
M 35.203125 72.90625 
L 47.609375 72.90625 
L 47.609375 25.390625 
L 58.015625 25.390625 
L 58.015625 17.1875 
L 47.609375 17.1875 
L 47.609375 0 
L 37.796875 0 
L 37.796875 17.1875 
L 4.890625 17.1875 
L 4.890625 26.703125 
z
" id="DejaVuSans-52"/>
       </defs>
       <use xlink:href="#DejaVuSans-52"/>
       <use x="63.623047" xlink:href="#DejaVuSans-48"/>
      </g>
     </g>
    </g>
    <g id="xtick_3">
     <g id="line2d_3">
      <g>
       <use style="stroke:#000000;stroke-width:0.8;" x="237.077736" xlink:href="#m6f74ce54f3" y="307.584"/>
      </g>
     </g>
     <g id="text_3">
      <!-- 60 -->
      <g transform="translate(230.715236 322.182437)scale(0.1 -0.1)">
       <defs>
        <path d="M 33.015625 40.375 
Q 26.375 40.375 22.484375 35.828125 
Q 18.609375 31.296875 18.609375 23.390625 
Q 18.609375 15.53125 22.484375 10.953125 
Q 26.375 6.390625 33.015625 6.390625 
Q 39.65625 6.390625 43.53125 10.953125 
Q 47.40625 15.53125 47.40625 23.390625 
Q 47.40625 31.296875 43.53125 35.828125 
Q 39.65625 40.375 33.015625 40.375 
z
M 52.59375 71.296875 
L 52.59375 62.3125 
Q 48.875 64.0625 45.09375 64.984375 
Q 41.3125 65.921875 37.59375 65.921875 
Q 27.828125 65.921875 22.671875 59.328125 
Q 17.53125 52.734375 16.796875 39.40625 
Q 19.671875 43.65625 24.015625 45.921875 
Q 28.375 48.1875 33.59375 48.1875 
Q 44.578125 48.1875 50.953125 41.515625 
Q 57.328125 34.859375 57.328125 23.390625 
Q 57.328125 12.15625 50.6875 5.359375 
Q 44.046875 -1.421875 33.015625 -1.421875 
Q 20.359375 -1.421875 13.671875 8.265625 
Q 6.984375 17.96875 6.984375 36.375 
Q 6.984375 53.65625 15.1875 63.9375 
Q 23.390625 74.21875 37.203125 74.21875 
Q 40.921875 74.21875 44.703125 73.484375 
Q 48.484375 72.75 52.59375 71.296875 
z
" id="DejaVuSans-54"/>
       </defs>
       <use xlink:href="#DejaVuSans-54"/>
       <use x="63.623047" xlink:href="#DejaVuSans-48"/>
      </g>
     </g>
    </g>
    <g id="xtick_4">
     <g id="line2d_4">
      <g>
       <use style="stroke:#000000;stroke-width:0.8;" x="298.038083" xlink:href="#m6f74ce54f3" y="307.584"/>
      </g>
     </g>
     <g id="text_4">
      <!-- 80 -->
      <g transform="translate(291.675583 322.182437)scale(0.1 -0.1)">
       <defs>
        <path d="M 31.78125 34.625 
Q 24.75 34.625 20.71875 30.859375 
Q 16.703125 27.09375 16.703125 20.515625 
Q 16.703125 13.921875 20.71875 10.15625 
Q 24.75 6.390625 31.78125 6.390625 
Q 38.8125 6.390625 42.859375 10.171875 
Q 46.921875 13.96875 46.921875 20.515625 
Q 46.921875 27.09375 42.890625 30.859375 
Q 38.875 34.625 31.78125 34.625 
z
M 21.921875 38.8125 
Q 15.578125 40.375 12.03125 44.71875 
Q 8.5 49.078125 8.5 55.328125 
Q 8.5 64.0625 14.71875 69.140625 
Q 20.953125 74.21875 31.78125 74.21875 
Q 42.671875 74.21875 48.875 69.140625 
Q 55.078125 64.0625 55.078125 55.328125 
Q 55.078125 49.078125 51.53125 44.71875 
Q 48 40.375 41.703125 38.8125 
Q 48.828125 37.15625 52.796875 32.3125 
Q 56.78125 27.484375 56.78125 20.515625 
Q 56.78125 9.90625 50.3125 4.234375 
Q 43.84375 -1.421875 31.78125 -1.421875 
Q 19.734375 -1.421875 13.25 4.234375 
Q 6.78125 9.90625 6.78125 20.515625 
Q 6.78125 27.484375 10.78125 32.3125 
Q 14.796875 37.15625 21.921875 38.8125 
z
M 18.3125 54.390625 
Q 18.3125 48.734375 21.84375 45.5625 
Q 25.390625 42.390625 31.78125 42.390625 
Q 38.140625 42.390625 41.71875 45.5625 
Q 45.3125 48.734375 45.3125 54.390625 
Q 45.3125 60.0625 41.71875 63.234375 
Q 38.140625 66.40625 31.78125 66.40625 
Q 25.390625 66.40625 21.84375 63.234375 
Q 18.3125 60.0625 18.3125 54.390625 
z
" id="DejaVuSans-56"/>
       </defs>
       <use xlink:href="#DejaVuSans-56"/>
       <use x="63.623047" xlink:href="#DejaVuSans-48"/>
      </g>
     </g>
    </g>
    <g id="xtick_5">
     <g id="line2d_5">
      <g>
       <use style="stroke:#000000;stroke-width:0.8;" x="358.998431" xlink:href="#m6f74ce54f3" y="307.584"/>
      </g>
     </g>
     <g id="text_5">
      <!-- 100 -->
      <g transform="translate(349.454681 322.182437)scale(0.1 -0.1)">
       <defs>
        <path d="M 12.40625 8.296875 
L 28.515625 8.296875 
L 28.515625 63.921875 
L 10.984375 60.40625 
L 10.984375 69.390625 
L 28.421875 72.90625 
L 38.28125 72.90625 
L 38.28125 8.296875 
L 54.390625 8.296875 
L 54.390625 0 
L 12.40625 0 
z
" id="DejaVuSans-49"/>
       </defs>
       <use xlink:href="#DejaVuSans-49"/>
       <use x="63.623047" xlink:href="#DejaVuSans-48"/>
       <use x="127.246094" xlink:href="#DejaVuSans-48"/>
      </g>
     </g>
    </g>
   </g>
   <g id="matplotlib.axis_2">
    <g id="ytick_1">
     <g id="line2d_6">
      <defs>
       <path d="M 0 0 
L -3.5 0 
" id="m693961b9ee" style="stroke:#000000;stroke-width:0.8;"/>
      </defs>
      <g>
       <use style="stroke:#000000;stroke-width:0.8;" x="57.6" xlink:href="#m693961b9ee" y="300.017828"/>
      </g>
     </g>
     <g id="text_6">
      <!-- −10 -->
      <g transform="translate(29.495313 303.817047)scale(0.1 -0.1)">
       <defs>
        <path d="M 10.59375 35.5 
L 73.1875 35.5 
L 73.1875 27.203125 
L 10.59375 27.203125 
z
" id="DejaVuSans-8722"/>
       </defs>
       <use xlink:href="#DejaVuSans-8722"/>
       <use x="83.789062" xlink:href="#DejaVuSans-49"/>
       <use x="147.412109" xlink:href="#DejaVuSans-48"/>
      </g>
     </g>
    </g>
    <g id="ytick_2">
     <g id="line2d_7">
      <g>
       <use style="stroke:#000000;stroke-width:0.8;" x="57.6" xlink:href="#m693961b9ee" y="269.537654"/>
      </g>
     </g>
     <g id="text_7">
      <!-- 0 -->
      <g transform="translate(44.2375 273.336873)scale(0.1 -0.1)">
       <use xlink:href="#DejaVuSans-48"/>
      </g>
     </g>
    </g>
    <g id="ytick_3">
     <g id="line2d_8">
      <g>
       <use style="stroke:#000000;stroke-width:0.8;" x="57.6" xlink:href="#m693961b9ee" y="239.05748"/>
      </g>
     </g>
     <g id="text_8">
      <!-- 10 -->
      <g transform="translate(37.875 242.856699)scale(0.1 -0.1)">
       <use xlink:href="#DejaVuSans-49"/>
       <use x="63.623047" xlink:href="#DejaVuSans-48"/>
      </g>
     </g>
    </g>
    <g id="ytick_4">
     <g id="line2d_9">
      <g>
       <use style="stroke:#000000;stroke-width:0.8;" x="57.6" xlink:href="#m693961b9ee" y="208.577306"/>
      </g>
     </g>
     <g id="text_9">
      <!-- 20 -->
      <g transform="translate(37.875 212.376525)scale(0.1 -0.1)">
       <use xlink:href="#DejaVuSans-50"/>
       <use x="63.623047" xlink:href="#DejaVuSans-48"/>
      </g>
     </g>
    </g>
    <g id="ytick_5">
     <g id="line2d_10">
      <g>
       <use style="stroke:#000000;stroke-width:0.8;" x="57.6" xlink:href="#m693961b9ee" y="178.097133"/>
      </g>
     </g>
     <g id="text_10">
      <!-- 30 -->
      <g transform="translate(37.875 181.896351)scale(0.1 -0.1)">
       <defs>
        <path d="M 40.578125 39.3125 
Q 47.65625 37.796875 51.625 33 
Q 55.609375 28.21875 55.609375 21.1875 
Q 55.609375 10.40625 48.1875 4.484375 
Q 40.765625 -1.421875 27.09375 -1.421875 
Q 22.515625 -1.421875 17.65625 -0.515625 
Q 12.796875 0.390625 7.625 2.203125 
L 7.625 11.71875 
Q 11.71875 9.328125 16.59375 8.109375 
Q 21.484375 6.890625 26.8125 6.890625 
Q 36.078125 6.890625 40.9375 10.546875 
Q 45.796875 14.203125 45.796875 21.1875 
Q 45.796875 27.640625 41.28125 31.265625 
Q 36.765625 34.90625 28.71875 34.90625 
L 20.21875 34.90625 
L 20.21875 43.015625 
L 29.109375 43.015625 
Q 36.375 43.015625 40.234375 45.921875 
Q 44.09375 48.828125 44.09375 54.296875 
Q 44.09375 59.90625 40.109375 62.90625 
Q 36.140625 65.921875 28.71875 65.921875 
Q 24.65625 65.921875 20.015625 65.03125 
Q 15.375 64.15625 9.8125 62.3125 
L 9.8125 71.09375 
Q 15.4375 72.65625 20.34375 73.4375 
Q 25.25 74.21875 29.59375 74.21875 
Q 40.828125 74.21875 47.359375 69.109375 
Q 53.90625 64.015625 53.90625 55.328125 
Q 53.90625 49.265625 50.4375 45.09375 
Q 46.96875 40.921875 40.578125 39.3125 
z
" id="DejaVuSans-51"/>
       </defs>
       <use xlink:href="#DejaVuSans-51"/>
       <use x="63.623047" xlink:href="#DejaVuSans-48"/>
      </g>
     </g>
    </g>
    <g id="ytick_6">
     <g id="line2d_11">
      <g>
       <use style="stroke:#000000;stroke-width:0.8;" x="57.6" xlink:href="#m693961b9ee" y="147.616959"/>
      </g>
     </g>
     <g id="text_11">
      <!-- 40 -->
      <g transform="translate(37.875 151.416177)scale(0.1 -0.1)">
       <use xlink:href="#DejaVuSans-52"/>
       <use x="63.623047" xlink:href="#DejaVuSans-48"/>
      </g>
     </g>
    </g>
    <g id="ytick_7">
     <g id="line2d_12">
      <g>
       <use style="stroke:#000000;stroke-width:0.8;" x="57.6" xlink:href="#m693961b9ee" y="117.136785"/>
      </g>
     </g>
     <g id="text_12">
      <!-- 50 -->
      <g transform="translate(37.875 120.936004)scale(0.1 -0.1)">
       <defs>
        <path d="M 10.796875 72.90625 
L 49.515625 72.90625 
L 49.515625 64.59375 
L 19.828125 64.59375 
L 19.828125 46.734375 
Q 21.96875 47.46875 24.109375 47.828125 
Q 26.265625 48.1875 28.421875 48.1875 
Q 40.625 48.1875 47.75 41.5 
Q 54.890625 34.8125 54.890625 23.390625 
Q 54.890625 11.625 47.5625 5.09375 
Q 40.234375 -1.421875 26.90625 -1.421875 
Q 22.3125 -1.421875 17.546875 -0.640625 
Q 12.796875 0.140625 7.71875 1.703125 
L 7.71875 11.625 
Q 12.109375 9.234375 16.796875 8.0625 
Q 21.484375 6.890625 26.703125 6.890625 
Q 35.15625 6.890625 40.078125 11.328125 
Q 45.015625 15.765625 45.015625 23.390625 
Q 45.015625 31 40.078125 35.4375 
Q 35.15625 39.890625 26.703125 39.890625 
Q 22.75 39.890625 18.8125 39.015625 
Q 14.890625 38.140625 10.796875 36.28125 
z
" id="DejaVuSans-53"/>
       </defs>
       <use xlink:href="#DejaVuSans-53"/>
       <use x="63.623047" xlink:href="#DejaVuSans-48"/>
      </g>
     </g>
    </g>
    <g id="ytick_8">
     <g id="line2d_13">
      <g>
       <use style="stroke:#000000;stroke-width:0.8;" x="57.6" xlink:href="#m693961b9ee" y="86.656611"/>
      </g>
     </g>
     <g id="text_13">
      <!-- 60 -->
      <g transform="translate(37.875 90.45583)scale(0.1 -0.1)">
       <use xlink:href="#DejaVuSans-54"/>
       <use x="63.623047" xlink:href="#DejaVuSans-48"/>
      </g>
     </g>
    </g>
    <g id="ytick_9">
     <g id="line2d_14">
      <g>
       <use style="stroke:#000000;stroke-width:0.8;" x="57.6" xlink:href="#m693961b9ee" y="56.176437"/>
      </g>
     </g>
     <g id="text_14">
      <!-- 70 -->
      <g transform="translate(37.875 59.975656)scale(0.1 -0.1)">
       <defs>
        <path d="M 8.203125 72.90625 
L 55.078125 72.90625 
L 55.078125 68.703125 
L 28.609375 0 
L 18.3125 0 
L 43.21875 64.59375 
L 8.203125 64.59375 
z
" id="DejaVuSans-55"/>
       </defs>
       <use xlink:href="#DejaVuSans-55"/>
       <use x="63.623047" xlink:href="#DejaVuSans-48"/>
      </g>
     </g>
    </g>
   </g>
   <g id="line2d_15">
    <path clip-path="url(#pd7d441b4f2)" d="M 277.07382 184.656466 
L 276.45812 181.705985 
L 275.979582 178.712832 
L 275.638204 175.680055 
L 275.433987 172.619845 
L 275.36693 169.544396 
L 275.437035 166.456754 
L 275.6443 163.366065 
L 275.991774 160.284519 
L 276.476408 157.218213 
L 277.098204 154.176292 
L 277.860208 151.170947 
L 278.759373 148.205226 
L 279.798747 145.288273 
L 280.975282 142.432281 
L 282.292026 139.646393 
L 283.748978 136.936706 
L 285.343091 134.309315 
L 287.077413 131.77946 
L 288.951944 129.35019 
L 290.963635 127.033697 
L 293.115535 124.836077 
L 295.3985 122.766473 
L 297.800338 120.827934 
L 300.314952 119.026556 
L 302.930151 117.37453 
L 305.636791 115.871858 
L 308.425727 114.524634 
L 311.284767 113.342003 
L 314.210864 112.333109 
L 317.185729 111.497953 
L 320.209362 110.842629 
L 323.263475 110.370186 
L 326.338925 110.077577 
L 329.426567 109.961752 
L 332.520304 110.022712 
L 335.60185 110.260458 
L 338.665107 110.668892 
L 341.697885 111.251063 
L 344.691038 112.003924 
L 347.632374 112.927473 
L 350.515799 114.015615 
L 353.332167 115.26835 
L 356.072335 116.673486 
L 358.736302 118.227975 
L 361.311876 119.925721 
L 363.792963 121.757579 
L 366.176512 123.717454 
L 368.453381 125.802298 
L 370.620522 128.002967 
L 372.668789 130.316412 
L 374.592088 132.730442 
L 376.384322 135.242008 
L 378.045492 137.841967 
L 379.566453 140.524222 
L 380.947204 143.282678 
L 382.178604 146.10819 
L 383.254554 148.994663 
L 384.178103 151.935999 
L 384.937059 154.923056 
L 385.531423 157.94669 
L 385.955097 161.003851 
L 386.211131 164.082349 
L 386.299523 167.173038 
L 386.217227 170.263728 
L 385.973385 173.348322 
L 385.564951 176.408531 
L 384.991924 179.441308 
L 384.260399 182.434461 
L 383.36733 185.375798 
L 382.315764 188.256175 
L 381.108749 191.069495 
L 379.75543 193.809662 
L 378.264949 196.479725 
L 376.646452 199.079684 
L 374.91213 201.612587 
L 373.071128 204.072337 
L 371.135637 206.46503 
L 367.008621 211.043153 
L 362.616428 215.350001 
L 357.998682 219.37948 
L 353.155382 223.110253 
L 348.095673 226.527081 
L 342.816507 229.611674 
L 337.320932 232.345746 
L 334.498467 233.574097 
L 331.630283 234.695768 
L 328.722475 235.707709 
L 325.77809 236.600778 
L 322.806273 237.368879 
L 319.803976 238.005914 
L 316.78339 238.505789 
L 313.744517 238.856311 
L 310.693452 239.05748 
L 307.633242 239.100153 
L 304.573033 238.987376 
L 301.515871 238.728295 
L 298.467854 238.325956 
L 295.438125 237.789505 
L 292.432779 237.125037 
L 289.454866 236.335601 
L 286.51353 235.43034 
L 283.614865 234.412302 
L 277.960793 232.071425 
L 272.489602 229.392217 
L 267.134235 226.493553 
L 253.823543 219.028958 
L 248.367592 216.249166 
L 242.80496 213.69188 
L 237.135648 211.396723 
L 231.365751 209.406367 
L 225.501366 207.763486 
L 219.551636 206.486367 
L 213.534849 205.532337 
L 207.466247 204.834341 
L 198.316099 204.118057 
L 186.120981 203.465781 
L 146.524187 201.7467 
L 140.428152 201.877764 
L 134.338214 202.368495 
L 131.29934 202.776929 
L 128.269611 203.304236 
L 125.25817 203.947368 
L 122.274161 204.706324 
L 119.32368 205.590249 
L 116.415871 206.593047 
L 113.559879 207.720814 
L 110.758751 208.970501 
L 108.027727 210.348205 
L 105.372904 211.853925 
L 102.79733 213.487663 
L 100.313195 215.252465 
L 97.929646 217.148331 
L 95.652777 219.178311 
L 93.488684 221.342403 
L 91.449561 223.640608 
L 89.538454 226.079022 
L 87.767556 228.654597 
L 86.146011 231.373429 
L 84.676866 234.232469 
L 84.676866 234.232469 
" style="fill:none;stroke:#fea952;stroke-linecap:square;"/>
   </g>
   <g id="line2d_16">
    <path clip-path="url(#pd7d441b4f2)" d="M 265.138844 187.147029 
L 264.418946 183.630782 
L 263.864025 180.076593 
L 263.473191 176.491863 
L 263.244814 172.885615 
L 263.178002 169.267648 
L 263.272288 165.640972 
L 263.529008 161.999949 
L 263.94919 158.381168 
L 264.531336 154.776535 
L 265.280096 151.179814 
L 266.192605 147.633493 
L 267.274607 144.112953 
L 268.525755 140.64433 
L 269.952431 137.222356 
L 271.553772 133.872619 
L 273.325434 130.612444 
L 275.287132 127.415531 
L 277.424953 124.331201 
L 279.746527 121.356013 
L 282.2524 118.503695 
L 284.926875 115.803225 
L 287.741134 113.279044 
L 290.700211 110.916589 
L 293.803569 108.718867 
L 297.012217 106.715046 
L 300.333616 104.893566 
L 303.765482 103.258371 
L 307.310636 101.815822 
L 310.915488 100.594836 
L 314.603252 99.582527 
L 318.345531 98.793866 
L 322.108692 98.232928 
L 325.881893 97.894076 
L 329.666758 97.772048 
L 333.458152 97.866767 
L 337.213199 98.175338 
L 340.963531 98.695429 
L 344.671891 99.42728 
L 348.34341 100.371781 
L 351.937072 101.520627 
L 355.470823 102.875853 
L 358.895366 104.419508 
L 362.217063 106.143108 
L 365.446333 108.048484 
L 368.553651 110.117394 
L 371.536371 112.340245 
L 374.410087 114.725524 
L 377.140398 117.247632 
L 379.748896 119.920928 
L 382.204447 122.71919 
L 384.516437 125.648503 
L 386.658382 128.677691 
L 388.651139 131.828083 
L 390.468961 135.066945 
L 392.123965 138.411684 
L 393.6028 141.849752 
L 394.886696 145.34229 
L 395.994712 148.933616 
L 396.900187 152.571433 
L 397.608074 156.273056 
L 398.105218 159.993346 
L 398.398217 163.733803 
L 398.487273 167.497564 
L 398.371379 171.22453 
L 398.058294 174.961248 
L 397.54505 178.672108 
L 396.835411 182.335847 
L 395.926574 185.976626 
L 394.82004 189.556946 
L 393.52016 193.063261 
L 392.040288 196.468386 
L 390.401156 199.752311 
L 388.615376 202.922957 
L 386.706279 205.967821 
L 384.673038 208.918149 
L 382.550162 211.740091 
L 380.327524 214.474759 
L 378.028836 217.102197 
L 373.248294 222.061807 
L 368.211884 226.708576 
L 362.897875 231.052571 
L 357.311609 235.072991 
L 354.420234 236.950444 
L 351.459091 238.739332 
L 348.437918 240.430468 
L 345.33312 242.035258 
L 342.186201 243.525 
L 338.938975 244.928764 
L 335.637502 246.210487 
L 332.261282 247.374903 
L 328.829014 248.404948 
L 325.336881 249.295428 
L 321.79456 250.034386 
L 318.180434 250.617553 
L 314.546648 251.021966 
L 310.863444 251.248365 
L 307.184238 251.283952 
L 303.543497 251.135899 
L 299.920358 250.815515 
L 296.342161 250.331288 
L 292.806079 249.69408 
L 289.30861 248.910033 
L 285.868503 247.988264 
L 282.473484 246.933582 
L 279.153806 245.75891 
L 275.896177 244.469679 
L 269.707237 241.647287 
L 263.918637 238.641715 
L 255.806642 234.088088 
L 248.187228 229.839994 
L 243.149377 227.268095 
L 238.093293 224.936734 
L 233.000358 222.86607 
L 227.889253 221.092279 
L 222.763434 219.644155 
L 217.501778 218.504879 
L 212.025605 217.630632 
L 206.373378 216.977331 
L 197.586614 216.288284 
L 185.560179 215.644946 
L 146.633911 213.938275 
L 141.207628 214.044891 
L 135.962264 214.451914 
L 130.815962 215.227435 
L 125.773098 216.385537 
L 120.893769 217.93302 
L 116.250052 219.855912 
L 114.042564 220.953312 
L 111.903541 222.149426 
L 109.858423 223.426853 
L 107.902706 224.794261 
L 106.043218 226.248689 
L 104.273872 227.799406 
L 102.608488 229.434112 
L 101.045559 231.161472 
L 99.584883 232.986686 
L 98.238705 234.899722 
L 96.990149 236.94579 
L 95.521005 239.80483 
L 95.521005 239.80483 
" style="fill:none;stroke:#ffffff;stroke-linecap:square;"/>
   </g>
   <g id="line2d_17">
    <path clip-path="url(#pd7d441b4f2)" d="M 289.008796 182.165903 
L 288.497295 179.781188 
L 288.095138 177.349071 
L 287.803216 174.868246 
L 287.623159 172.354075 
L 287.555858 169.821143 
L 287.601781 167.272536 
L 287.759591 164.732181 
L 288.034357 162.18787 
L 288.421481 159.659892 
L 288.916312 157.17277 
L 289.527812 154.708401 
L 290.24414 152.297499 
L 291.071739 149.932217 
L 291.998133 147.642206 
L 293.030279 145.420167 
L 294.172522 143.260967 
L 295.39905 141.203099 
L 296.729873 139.22772 
L 298.15736 137.344368 
L 299.67487 135.5637 
L 301.304195 133.868928 
L 303.055867 132.253902 
L 304.900465 130.739279 
L 306.826336 129.334244 
L 308.848086 128.034015 
L 310.939966 126.85015 
L 313.085972 125.790897 
L 315.258898 124.868184 
L 317.50624 124.071383 
L 319.768205 123.413379 
L 322.073193 122.891392 
L 324.418259 122.507444 
L 326.795957 122.261077 
L 329.186375 122.151455 
L 331.582457 122.178657 
L 333.990501 122.345577 
L 336.366684 122.642355 
L 338.723878 123.074846 
L 341.038665 123.636066 
L 343.327677 124.334319 
L 345.560775 125.155377 
L 347.768968 126.117192 
L 349.927606 127.203865 
L 352.02627 128.407466 
L 354.070102 129.734047 
L 356.049554 131.174913 
L 357.942938 132.709385 
L 359.766365 134.356964 
L 361.492148 136.085005 
L 363.133131 137.913634 
L 364.667739 139.81238 
L 366.110263 141.806325 
L 367.439844 143.855851 
L 368.663945 145.9815 
L 369.770444 148.153672 
L 370.754407 150.366629 
L 371.622411 152.647035 
L 372.361494 154.938383 
L 372.973931 157.274679 
L 373.454771 159.620323 
L 373.804976 162.014356 
L 374.024044 164.430895 
L 374.111773 166.848512 
L 374.063074 169.302925 
L 373.888476 171.735395 
L 373.584851 174.144954 
L 373.148436 176.546769 
L 372.594225 178.892296 
L 371.914621 181.19465 
L 371.111369 183.449088 
L 370.177211 185.670603 
L 369.109703 187.867014 
L 367.914523 190.036494 
L 366.586624 192.191547 
L 365.151222 194.307025 
L 361.943749 198.455301 
L 358.345399 202.464391 
L 354.461702 206.286502 
L 350.412047 209.835396 
L 346.169408 213.11812 
L 341.771112 216.103718 
L 337.195096 218.792881 
L 332.455662 221.166492 
L 327.623064 223.181048 
L 322.727166 224.796609 
L 317.813391 225.977443 
L 315.386346 226.394025 
L 312.942386 226.690657 
L 310.523459 226.866596 
L 308.082247 226.916354 
L 305.602569 226.838853 
L 303.111384 226.641074 
L 300.593546 226.320624 
L 295.556949 225.340042 
L 290.553575 223.927097 
L 285.627665 222.111584 
L 280.709629 219.886459 
L 275.683864 217.283679 
L 267.854727 212.888327 
L 259.459859 208.217922 
L 253.585807 205.230238 
L 247.516627 202.447025 
L 241.270938 199.927375 
L 234.842249 197.720456 
L 228.239298 195.882817 
L 221.601494 194.467854 
L 215.044093 193.434042 
L 208.559116 192.691351 
L 199.045583 191.947831 
L 186.681783 191.286616 
L 149.709223 189.588894 
L 143.061879 189.589103 
L 136.20491 189.937837 
L 132.714163 190.285076 
L 129.208807 190.765425 
L 125.72326 191.381038 
L 122.252906 192.131491 
L 118.775223 193.027112 
L 115.348806 194.064325 
L 111.937974 195.253074 
L 108.592478 196.586565 
L 105.26745 198.08509 
L 102.012891 199.743097 
L 98.842267 201.558424 
L 95.736236 203.548472 
L 92.723684 205.710668 
L 89.816074 208.047974 
L 87.031682 210.557216 
L 84.368881 213.250695 
L 81.853563 216.119745 
L 79.492024 219.171359 
L 77.296406 222.409472 
L 75.301872 225.801067 
L 73.832727 228.660107 
L 73.832727 228.660107 
" style="fill:none;stroke:#ffffff;stroke-linecap:square;"/>
   </g>
   <g id="patch_3">
    <path d="M 57.6 307.584 
L 57.6 41.472 
" style="fill:none;stroke:#000000;stroke-linecap:square;stroke-linejoin:miter;stroke-width:0.8;"/>
   </g>
   <g id="patch_4">
    <path d="M 414.72 307.584 
L 414.72 41.472 
" style="fill:none;stroke:#000000;stroke-linecap:square;stroke-linejoin:miter;stroke-width:0.8;"/>
   </g>
   <g id="patch_5">
    <path d="M 57.6 307.584 
L 414.72 307.584 
" style="fill:none;stroke:#000000;stroke-linecap:square;stroke-linejoin:miter;stroke-width:0.8;"/>
   </g>
   <g id="patch_6">
    <path d="M 57.6 41.472 
L 414.72 41.472 
" style="fill:none;stroke:#000000;stroke-linecap:square;stroke-linejoin:miter;stroke-width:0.8;"/>
   </g>
  </g>
 </g>
 <defs>
  <clipPath id="pd7d441b4f2">
   <rect height="266.112" width="357.12" x="57.6" y="41.472"/>
  </clipPath>
 </defs>
</svg>
