<?xml version="1.0" encoding="utf-8" standalone="no"?>
<!DOCTYPE svg PUBLIC "-//W3C//DTD SVG 1.1//EN"
  "http://www.w3.org/Graphics/SVG/1.1/DTD/svg11.dtd">
<!-- Created with matplotlib (https://matplotlib.org/) -->
<svg height="345.6pt" version="1.1" viewBox="0 0 460.8 345.6" width="460.8pt" xmlns="http://www.w3.org/2000/svg" xmlns:xlink="http://www.w3.org/1999/xlink">
 <metadata>
  <rdf:RDF xmlns:cc="http://creativecommons.org/ns#" xmlns:dc="http://purl.org/dc/elements/1.1/" xmlns:rdf="http://www.w3.org/1999/02/22-rdf-syntax-ns#">
   <cc:Work>
    <dc:type rdf:resource="http://purl.org/dc/dcmitype/StillImage"/>
    <dc:date>2021-01-25T10:24:25.437869</dc:date>
    <dc:format>image/svg+xml</dc:format>
    <dc:creator>
     <cc:Agent>
      <dc:title>Matplotlib v3.3.3, https://matplotlib.org/</dc:title>
     </cc:Agent>
    </dc:creator>
   </cc:Work>
  </rdf:RDF>
 </metadata>
 <defs>
  <style type="text/css">*{stroke-linecap:butt;stroke-linejoin:round;}</style>
 </defs>
 <g id="figure_1">
  <g id="patch_1">
   <path d="M 0 345.6 
L 460.8 345.6 
L 460.8 0 
L 0 0 
z
" style="fill:#ffffff;"/>
  </g>
  <g id="axes_1">
   <g id="patch_2">
    <path d="M 57.6 307.584 
L 414.72 307.584 
L 414.72 41.472 
L 57.6 41.472 
z
" style="fill:#7d9051;"/>
   </g>
   <g id="matplotlib.axis_1">
    <g id="xtick_1">
     <g id="line2d_1">
      <defs>
       <path d="M 0 0 
L 0 3.5 
" id="m8646a25ad6" style="stroke:#000000;stroke-width:0.8;"/>
      </defs>
      <g>
       <use style="stroke:#000000;stroke-width:0.8;" x="80.209002" xlink:href="#m8646a25ad6" y="307.584"/>
      </g>
     </g>
     <g id="text_1">
      <!-- −20 -->
      <g transform="translate(69.656658 322.182437)scale(0.1 -0.1)">
       <defs>
        <path d="M 10.59375 35.5 
L 73.1875 35.5 
L 73.1875 27.203125 
L 10.59375 27.203125 
z
" id="DejaVuSans-8722"/>
        <path d="M 19.1875 8.296875 
L 53.609375 8.296875 
L 53.609375 0 
L 7.328125 0 
L 7.328125 8.296875 
Q 12.9375 14.109375 22.625 23.890625 
Q 32.328125 33.6875 34.8125 36.53125 
Q 39.546875 41.84375 41.421875 45.53125 
Q 43.3125 49.21875 43.3125 52.78125 
Q 43.3125 58.59375 39.234375 62.25 
Q 35.15625 65.921875 28.609375 65.921875 
Q 23.96875 65.921875 18.8125 64.3125 
Q 13.671875 62.703125 7.8125 59.421875 
L 7.8125 69.390625 
Q 13.765625 71.78125 18.9375 73 
Q 24.125 74.21875 28.421875 74.21875 
Q 39.75 74.21875 46.484375 68.546875 
Q 53.21875 62.890625 53.21875 53.421875 
Q 53.21875 48.921875 51.53125 44.890625 
Q 49.859375 40.875 45.40625 35.40625 
Q 44.1875 33.984375 37.640625 27.21875 
Q 31.109375 20.453125 19.1875 8.296875 
z
" id="DejaVuSans-50"/>
        <path d="M 31.78125 66.40625 
Q 24.171875 66.40625 20.328125 58.90625 
Q 16.5 51.421875 16.5 36.375 
Q 16.5 21.390625 20.328125 13.890625 
Q 24.171875 6.390625 31.78125 6.390625 
Q 39.453125 6.390625 43.28125 13.890625 
Q 47.125 21.390625 47.125 36.375 
Q 47.125 51.421875 43.28125 58.90625 
Q 39.453125 66.40625 31.78125 66.40625 
z
M 31.78125 74.21875 
Q 44.046875 74.21875 50.515625 64.515625 
Q 56.984375 54.828125 56.984375 36.375 
Q 56.984375 17.96875 50.515625 8.265625 
Q 44.046875 -1.421875 31.78125 -1.421875 
Q 19.53125 -1.421875 13.0625 8.265625 
Q 6.59375 17.96875 6.59375 36.375 
Q 6.59375 54.828125 13.0625 64.515625 
Q 19.53125 74.21875 31.78125 74.21875 
z
" id="DejaVuSans-48"/>
       </defs>
       <use xlink:href="#DejaVuSans-8722"/>
       <use x="83.789062" xlink:href="#DejaVuSans-50"/>
       <use x="147.412109" xlink:href="#DejaVuSans-48"/>
      </g>
     </g>
    </g>
    <g id="xtick_2">
     <g id="line2d_2">
      <g>
       <use style="stroke:#000000;stroke-width:0.8;" x="126.585753" xlink:href="#m8646a25ad6" y="307.584"/>
      </g>
     </g>
     <g id="text_2">
      <!-- 0 -->
      <g transform="translate(123.404503 322.182437)scale(0.1 -0.1)">
       <use xlink:href="#DejaVuSans-48"/>
      </g>
     </g>
    </g>
    <g id="xtick_3">
     <g id="line2d_3">
      <g>
       <use style="stroke:#000000;stroke-width:0.8;" x="172.962504" xlink:href="#m8646a25ad6" y="307.584"/>
      </g>
     </g>
     <g id="text_3">
      <!-- 20 -->
      <g transform="translate(166.600004 322.182437)scale(0.1 -0.1)">
       <use xlink:href="#DejaVuSans-50"/>
       <use x="63.623047" xlink:href="#DejaVuSans-48"/>
      </g>
     </g>
    </g>
    <g id="xtick_4">
     <g id="line2d_4">
      <g>
       <use style="stroke:#000000;stroke-width:0.8;" x="219.339255" xlink:href="#m8646a25ad6" y="307.584"/>
      </g>
     </g>
     <g id="text_4">
      <!-- 40 -->
      <g transform="translate(212.976755 322.182437)scale(0.1 -0.1)">
       <defs>
        <path d="M 37.796875 64.3125 
L 12.890625 25.390625 
L 37.796875 25.390625 
z
M 35.203125 72.90625 
L 47.609375 72.90625 
L 47.609375 25.390625 
L 58.015625 25.390625 
L 58.015625 17.1875 
L 47.609375 17.1875 
L 47.609375 0 
L 37.796875 0 
L 37.796875 17.1875 
L 4.890625 17.1875 
L 4.890625 26.703125 
z
" id="DejaVuSans-52"/>
       </defs>
       <use xlink:href="#DejaVuSans-52"/>
       <use x="63.623047" xlink:href="#DejaVuSans-48"/>
      </g>
     </g>
    </g>
    <g id="xtick_5">
     <g id="line2d_5">
      <g>
       <use style="stroke:#000000;stroke-width:0.8;" x="265.716005" xlink:href="#m8646a25ad6" y="307.584"/>
      </g>
     </g>
     <g id="text_5">
      <!-- 60 -->
      <g transform="translate(259.353505 322.182437)scale(0.1 -0.1)">
       <defs>
        <path d="M 33.015625 40.375 
Q 26.375 40.375 22.484375 35.828125 
Q 18.609375 31.296875 18.609375 23.390625 
Q 18.609375 15.53125 22.484375 10.953125 
Q 26.375 6.390625 33.015625 6.390625 
Q 39.65625 6.390625 43.53125 10.953125 
Q 47.40625 15.53125 47.40625 23.390625 
Q 47.40625 31.296875 43.53125 35.828125 
Q 39.65625 40.375 33.015625 40.375 
z
M 52.59375 71.296875 
L 52.59375 62.3125 
Q 48.875 64.0625 45.09375 64.984375 
Q 41.3125 65.921875 37.59375 65.921875 
Q 27.828125 65.921875 22.671875 59.328125 
Q 17.53125 52.734375 16.796875 39.40625 
Q 19.671875 43.65625 24.015625 45.921875 
Q 28.375 48.1875 33.59375 48.1875 
Q 44.578125 48.1875 50.953125 41.515625 
Q 57.328125 34.859375 57.328125 23.390625 
Q 57.328125 12.15625 50.6875 5.359375 
Q 44.046875 -1.421875 33.015625 -1.421875 
Q 20.359375 -1.421875 13.671875 8.265625 
Q 6.984375 17.96875 6.984375 36.375 
Q 6.984375 53.65625 15.1875 63.9375 
Q 23.390625 74.21875 37.203125 74.21875 
Q 40.921875 74.21875 44.703125 73.484375 
Q 48.484375 72.75 52.59375 71.296875 
z
" id="DejaVuSans-54"/>
       </defs>
       <use xlink:href="#DejaVuSans-54"/>
       <use x="63.623047" xlink:href="#DejaVuSans-48"/>
      </g>
     </g>
    </g>
    <g id="xtick_6">
     <g id="line2d_6">
      <g>
       <use style="stroke:#000000;stroke-width:0.8;" x="312.092756" xlink:href="#m8646a25ad6" y="307.584"/>
      </g>
     </g>
     <g id="text_6">
      <!-- 80 -->
      <g transform="translate(305.730256 322.182437)scale(0.1 -0.1)">
       <defs>
        <path d="M 31.78125 34.625 
Q 24.75 34.625 20.71875 30.859375 
Q 16.703125 27.09375 16.703125 20.515625 
Q 16.703125 13.921875 20.71875 10.15625 
Q 24.75 6.390625 31.78125 6.390625 
Q 38.8125 6.390625 42.859375 10.171875 
Q 46.921875 13.96875 46.921875 20.515625 
Q 46.921875 27.09375 42.890625 30.859375 
Q 38.875 34.625 31.78125 34.625 
z
M 21.921875 38.8125 
Q 15.578125 40.375 12.03125 44.71875 
Q 8.5 49.078125 8.5 55.328125 
Q 8.5 64.0625 14.71875 69.140625 
Q 20.953125 74.21875 31.78125 74.21875 
Q 42.671875 74.21875 48.875 69.140625 
Q 55.078125 64.0625 55.078125 55.328125 
Q 55.078125 49.078125 51.53125 44.71875 
Q 48 40.375 41.703125 38.8125 
Q 48.828125 37.15625 52.796875 32.3125 
Q 56.78125 27.484375 56.78125 20.515625 
Q 56.78125 9.90625 50.3125 4.234375 
Q 43.84375 -1.421875 31.78125 -1.421875 
Q 19.734375 -1.421875 13.25 4.234375 
Q 6.78125 9.90625 6.78125 20.515625 
Q 6.78125 27.484375 10.78125 32.3125 
Q 14.796875 37.15625 21.921875 38.8125 
z
M 18.3125 54.390625 
Q 18.3125 48.734375 21.84375 45.5625 
Q 25.390625 42.390625 31.78125 42.390625 
Q 38.140625 42.390625 41.71875 45.5625 
Q 45.3125 48.734375 45.3125 54.390625 
Q 45.3125 60.0625 41.71875 63.234375 
Q 38.140625 66.40625 31.78125 66.40625 
Q 25.390625 66.40625 21.84375 63.234375 
Q 18.3125 60.0625 18.3125 54.390625 
z
" id="DejaVuSans-56"/>
       </defs>
       <use xlink:href="#DejaVuSans-56"/>
       <use x="63.623047" xlink:href="#DejaVuSans-48"/>
      </g>
     </g>
    </g>
    <g id="xtick_7">
     <g id="line2d_7">
      <g>
       <use style="stroke:#000000;stroke-width:0.8;" x="358.469507" xlink:href="#m8646a25ad6" y="307.584"/>
      </g>
     </g>
     <g id="text_7">
      <!-- 100 -->
      <g transform="translate(348.925757 322.182437)scale(0.1 -0.1)">
       <defs>
        <path d="M 12.40625 8.296875 
L 28.515625 8.296875 
L 28.515625 63.921875 
L 10.984375 60.40625 
L 10.984375 69.390625 
L 28.421875 72.90625 
L 38.28125 72.90625 
L 38.28125 8.296875 
L 54.390625 8.296875 
L 54.390625 0 
L 12.40625 0 
z
" id="DejaVuSans-49"/>
       </defs>
       <use xlink:href="#DejaVuSans-49"/>
       <use x="63.623047" xlink:href="#DejaVuSans-48"/>
       <use x="127.246094" xlink:href="#DejaVuSans-48"/>
      </g>
     </g>
    </g>
    <g id="xtick_8">
     <g id="line2d_8">
      <g>
       <use style="stroke:#000000;stroke-width:0.8;" x="404.846258" xlink:href="#m8646a25ad6" y="307.584"/>
      </g>
     </g>
     <g id="text_8">
      <!-- 120 -->
      <g transform="translate(395.302508 322.182437)scale(0.1 -0.1)">
       <use xlink:href="#DejaVuSans-49"/>
       <use x="63.623047" xlink:href="#DejaVuSans-50"/>
       <use x="127.246094" xlink:href="#DejaVuSans-48"/>
      </g>
     </g>
    </g>
   </g>
   <g id="matplotlib.axis_2">
    <g id="ytick_1">
     <g id="line2d_9">
      <defs>
       <path d="M 0 0 
L -3.5 0 
" id="m5ed2398583" style="stroke:#000000;stroke-width:0.8;"/>
      </defs>
      <g>
       <use style="stroke:#000000;stroke-width:0.8;" x="57.6" xlink:href="#m5ed2398583" y="264.38399"/>
      </g>
     </g>
     <g id="text_9">
      <!-- 20 -->
      <g transform="translate(37.875 268.183209)scale(0.1 -0.1)">
       <use xlink:href="#DejaVuSans-50"/>
       <use x="63.623047" xlink:href="#DejaVuSans-48"/>
      </g>
     </g>
    </g>
    <g id="ytick_2">
     <g id="line2d_10">
      <g>
       <use style="stroke:#000000;stroke-width:0.8;" x="57.6" xlink:href="#m5ed2398583" y="218.007239"/>
      </g>
     </g>
     <g id="text_10">
      <!-- 40 -->
      <g transform="translate(37.875 221.806458)scale(0.1 -0.1)">
       <use xlink:href="#DejaVuSans-52"/>
       <use x="63.623047" xlink:href="#DejaVuSans-48"/>
      </g>
     </g>
    </g>
    <g id="ytick_3">
     <g id="line2d_11">
      <g>
       <use style="stroke:#000000;stroke-width:0.8;" x="57.6" xlink:href="#m5ed2398583" y="171.630488"/>
      </g>
     </g>
     <g id="text_11">
      <!-- 60 -->
      <g transform="translate(37.875 175.429707)scale(0.1 -0.1)">
       <use xlink:href="#DejaVuSans-54"/>
       <use x="63.623047" xlink:href="#DejaVuSans-48"/>
      </g>
     </g>
    </g>
    <g id="ytick_4">
     <g id="line2d_12">
      <g>
       <use style="stroke:#000000;stroke-width:0.8;" x="57.6" xlink:href="#m5ed2398583" y="125.253738"/>
      </g>
     </g>
     <g id="text_12">
      <!-- 80 -->
      <g transform="translate(37.875 129.052956)scale(0.1 -0.1)">
       <use xlink:href="#DejaVuSans-56"/>
       <use x="63.623047" xlink:href="#DejaVuSans-48"/>
      </g>
     </g>
    </g>
    <g id="ytick_5">
     <g id="line2d_13">
      <g>
       <use style="stroke:#000000;stroke-width:0.8;" x="57.6" xlink:href="#m5ed2398583" y="78.876987"/>
      </g>
     </g>
     <g id="text_13">
      <!-- 100 -->
      <g transform="translate(31.5125 82.676206)scale(0.1 -0.1)">
       <use xlink:href="#DejaVuSans-49"/>
       <use x="63.623047" xlink:href="#DejaVuSans-48"/>
       <use x="127.246094" xlink:href="#DejaVuSans-48"/>
      </g>
     </g>
    </g>
   </g>
   <g id="line2d_14">
    <path clip-path="url(#p2f5d77e02b)" d="M 317.553619 156.017755 
L 317.896807 151.412544 
L 318.077676 146.777188 
L 318.08927 142.127918 
L 317.924633 137.474012 
L 317.572169 132.82938 
L 317.024924 128.205618 
L 316.27362 123.61432 
L 315.311303 119.069398 
L 314.126377 114.57781 
L 312.711886 110.158105 
L 311.060873 105.817241 
L 309.182615 101.564493 
L 307.086386 97.413774 
L 304.781461 93.37204 
L 302.277117 89.448567 
L 299.582628 85.657268 
L 296.681762 82.023649 
L 293.565244 78.575538 
L 290.214524 75.34076 
L 286.613369 72.349459 
L 282.759461 69.638738 
L 278.67367 67.278161 
L 276.554252 66.250916 
L 274.390777 65.341932 
L 272.187881 64.555846 
L 269.945565 63.906572 
L 267.673104 63.401065 
L 265.372817 63.050921 
L 263.049342 62.860776 
L 260.711954 62.830631 
L 258.367609 62.953529 
L 256.030221 63.222515 
L 253.706746 63.635268 
L 251.408778 64.187151 
L 249.143273 64.868889 
L 246.921827 65.678164 
L 244.751395 66.608017 
L 242.645891 67.653813 
L 240.609951 68.810913 
L 238.643577 70.070042 
L 234.910249 72.864241 
L 231.434311 75.97844 
L 228.194895 79.345392 
L 225.178087 82.904808 
L 222.363019 86.601035 
L 219.717225 90.406247 
L 215.990853 96.275225 
L 211.285932 104.305359 
L 207.949125 110.452598 
L 205.941011 114.645056 
L 204.201883 118.944181 
L 202.805943 123.37316 
L 201.822756 127.943589 
L 201.4958 130.267064 
L 201.280148 132.606772 
L 201.1758 134.955754 
L 201.185075 137.304736 
L 201.310293 139.646762 
L 201.551452 141.974875 
L 201.910872 144.282119 
L 202.390871 146.559217 
L 202.99145 148.799214 
L 204.519564 153.177179 
L 206.416373 157.42529 
L 208.609993 161.548183 
L 211.019265 165.564409 
L 214.870855 171.40788 
L 220.030268 179.118015 
L 222.432584 183.071633 
L 224.605335 187.173657 
L 226.474318 191.465825 
L 227.979243 195.917993 
L 229.071416 200.483784 
L 229.444749 202.795665 
L 229.692864 205.11914 
L 229.813444 207.447253 
L 229.794893 209.775366 
L 229.637212 212.096522 
L 229.34272 214.406085 
L 228.918372 216.699415 
L 228.371127 218.974195 
L 226.933447 223.437957 
L 225.083015 227.762589 
L 222.875482 231.906351 
L 220.361862 235.8391 
L 217.579257 239.57011 
L 214.564768 243.110974 
L 211.357816 246.477927 
L 207.990864 249.687198 
L 204.501013 252.750382 
L 200.899858 255.683712 
L 195.330011 259.857619 
L 189.595525 263.804281 
L 183.738142 267.558479 
L 175.798442 272.353835 
L 149.774128 287.572365 
L 149.774128 287.572365 
" style="fill:none;stroke:#fea952;stroke-linecap:square;"/>
   </g>
   <g id="line2d_15">
    <path clip-path="url(#p2f5d77e02b)" d="M 308.309859 155.252883 
L 308.736923 148.820486 
L 308.830378 144.518444 
L 308.762933 140.217435 
L 308.530283 135.944495 
L 308.125535 131.706554 
L 307.542328 127.514086 
L 306.768372 123.36368 
L 305.810726 119.297501 
L 304.654551 115.305703 
L 303.293762 111.393694 
L 301.714176 107.536246 
L 299.937624 103.765474 
L 297.961363 100.074966 
L 295.792548 96.477297 
L 293.46016 93.002569 
L 290.997069 89.712566 
L 288.36992 86.603327 
L 285.595064 83.71456 
L 282.656581 81.05995 
L 279.537906 78.65088 
L 276.290329 76.546959 
L 272.961444 74.802165 
L 269.608124 73.465222 
L 266.277309 72.570791 
L 264.616286 72.295367 
L 262.92973 72.135355 
L 261.197532 72.093262 
L 259.428012 72.168065 
L 257.652538 72.354886 
L 255.872738 72.65417 
L 252.318172 73.583942 
L 248.877486 74.915092 
L 245.611693 76.622104 
L 242.472109 78.719861 
L 239.470044 81.165886 
L 236.579254 83.949042 
L 233.820014 87.001474 
L 231.194235 90.266268 
L 228.687064 93.714882 
L 226.283193 97.304169 
L 222.785982 102.975149 
L 218.290108 110.772104 
L 216.261827 114.567339 
L 214.475484 118.277535 
L 212.984435 121.927284 
L 211.825092 125.538125 
L 211.007614 129.236069 
L 210.54636 133.0184 
L 210.447197 136.809534 
L 210.716267 140.54719 
L 211.349798 144.157186 
L 212.385061 147.741824 
L 213.821459 151.373833 
L 215.60268 155.021154 
L 217.692976 158.71056 
L 220.012419 162.40935 
L 229.235932 176.356535 
L 231.822644 180.90083 
L 234.158278 185.766124 
L 235.191765 188.297509 
L 236.128469 190.902588 
L 236.946704 193.548021 
L 237.649148 196.246372 
L 238.228143 199.005115 
L 238.667662 201.810783 
L 238.955799 204.639387 
L 239.088499 207.521158 
L 239.048915 210.404011 
L 238.838066 213.269724 
L 238.463249 216.093705 
L 237.936436 218.868898 
L 237.264593 221.608276 
L 236.464798 224.272201 
L 235.540338 226.895348 
L 234.500895 229.45815 
L 233.357058 231.954526 
L 232.115662 234.387435 
L 229.372432 239.043459 
L 226.342589 243.397184 
L 223.069933 247.482203 
L 219.615566 251.299566 
L 216.016359 254.886823 
L 212.310288 258.267424 
L 208.509713 261.473144 
L 204.626418 264.526455 
L 198.689094 268.841996 
L 192.65536 272.88686 
L 186.577789 276.704763 
L 178.461623 281.540734 
L 154.608883 295.488 
L 154.608883 295.488 
" style="fill:none;stroke:#ffffff;stroke-linecap:square;"/>
   </g>
   <g id="line2d_16">
    <path clip-path="url(#p2f5d77e02b)" d="M 326.797378 156.782627 
L 327.161447 151.858138 
L 327.352361 146.888262 
L 327.361505 141.887561 
L 327.179927 136.864381 
L 326.794665 131.840595 
L 326.196021 126.818859 
L 325.369916 121.800613 
L 324.309714 116.819795 
L 322.997951 111.870913 
L 321.426363 106.981627 
L 319.593429 102.180263 
L 317.515445 97.490666 
L 315.201467 92.921827 
L 312.657311 88.472744 
L 309.903903 84.169907 
L 306.916578 79.978774 
L 303.661027 75.914478 
L 300.123907 72.016875 
L 296.277317 68.321168 
L 292.105207 64.874712 
L 289.895214 63.260796 
L 287.585039 61.717506 
L 285.193817 60.27255 
L 282.719139 58.931527 
L 280.14706 57.699668 
L 277.508084 56.606114 
L 274.767638 55.646471 
L 271.959627 54.85253 
L 269.068899 54.231339 
L 266.129349 53.806475 
L 263.168955 53.586197 
L 260.226376 53.568 
L 257.307206 53.738994 
L 254.407903 54.090143 
L 251.540753 54.616366 
L 248.73602 55.305232 
L 245.968374 56.153837 
L 243.269187 57.152301 
L 240.625304 58.300943 
L 238.062834 59.589837 
L 235.60821 60.999722 
L 233.258497 62.51802 
L 231.01679 64.128625 
L 228.86331 65.830988 
L 224.861855 69.433599 
L 221.204793 73.248623 
L 217.868044 77.195571 
L 214.797209 81.235344 
L 211.962721 85.317064 
L 208.039757 91.499014 
L 203.200533 99.760203 
L 200.806471 104.093636 
L 198.500757 108.639169 
L 196.372291 113.457891 
L 194.549431 118.550318 
L 193.786794 121.208196 
L 193.149562 123.90735 
L 192.637898 126.651109 
L 192.259599 129.41576 
L 192.013936 132.195143 
L 191.900522 134.992379 
L 191.922954 137.799939 
L 192.084308 140.602442 
L 192.386637 143.40256 
L 192.83497 146.195267 
L 193.431944 148.961248 
L 194.163757 151.64596 
L 195.021605 154.271671 
L 197.031 159.2611 
L 199.358759 163.980145 
L 201.892225 168.429859 
L 204.549007 172.656855 
L 214.312242 187.554062 
L 216.17751 191.047143 
L 217.75687 194.634141 
L 219.011782 198.287965 
L 219.914688 201.962453 
L 220.42993 205.598894 
L 220.540871 209.146721 
L 220.22219 212.718464 
L 219.477661 216.340113 
L 218.326557 219.980566 
L 216.808973 223.570651 
L 214.96691 227.060052 
L 212.835473 230.418253 
L 210.425749 233.665921 
L 207.765546 236.802036 
L 204.88293 239.836543 
L 201.803401 242.777247 
L 198.582233 245.608943 
L 193.504897 249.679225 
L 188.181947 253.553819 
L 182.653957 257.263147 
L 176.951833 260.846974 
L 169.12831 265.508961 
L 144.939374 279.656731 
L 144.939374 279.656731 
" style="fill:none;stroke:#ffffff;stroke-linecap:square;"/>
   </g>
   <g id="patch_3">
    <path d="M 57.6 307.584 
L 57.6 41.472 
" style="fill:none;stroke:#000000;stroke-linecap:square;stroke-linejoin:miter;stroke-width:0.8;"/>
   </g>
   <g id="patch_4">
    <path d="M 414.72 307.584 
L 414.72 41.472 
" style="fill:none;stroke:#000000;stroke-linecap:square;stroke-linejoin:miter;stroke-width:0.8;"/>
   </g>
   <g id="patch_5">
    <path d="M 57.6 307.584 
L 414.72 307.584 
" style="fill:none;stroke:#000000;stroke-linecap:square;stroke-linejoin:miter;stroke-width:0.8;"/>
   </g>
   <g id="patch_6">
    <path d="M 57.6 41.472 
L 414.72 41.472 
" style="fill:none;stroke:#000000;stroke-linecap:square;stroke-linejoin:miter;stroke-width:0.8;"/>
   </g>
  </g>
 </g>
 <defs>
  <clipPath id="p2f5d77e02b">
   <rect height="266.112" width="357.12" x="57.6" y="41.472"/>
  </clipPath>
 </defs>
</svg>
