<?xml version="1.0" encoding="utf-8" standalone="no"?>
<!DOCTYPE svg PUBLIC "-//W3C//DTD SVG 1.1//EN"
  "http://www.w3.org/Graphics/SVG/1.1/DTD/svg11.dtd">
<!-- Created with matplotlib (https://matplotlib.org/) -->
<svg height="345.6pt" version="1.1" viewBox="0 0 460.8 345.6" width="460.8pt" xmlns="http://www.w3.org/2000/svg" xmlns:xlink="http://www.w3.org/1999/xlink">
 <metadata>
  <rdf:RDF xmlns:cc="http://creativecommons.org/ns#" xmlns:dc="http://purl.org/dc/elements/1.1/" xmlns:rdf="http://www.w3.org/1999/02/22-rdf-syntax-ns#">
   <cc:Work>
    <dc:type rdf:resource="http://purl.org/dc/dcmitype/StillImage"/>
    <dc:date>2021-01-22T12:00:51.804019</dc:date>
    <dc:format>image/svg+xml</dc:format>
    <dc:creator>
     <cc:Agent>
      <dc:title>Matplotlib v3.3.3, https://matplotlib.org/</dc:title>
     </cc:Agent>
    </dc:creator>
   </cc:Work>
  </rdf:RDF>
 </metadata>
 <defs>
  <style type="text/css">*{stroke-linecap:butt;stroke-linejoin:round;}</style>
 </defs>
 <g id="figure_1">
  <g id="patch_1">
   <path d="M 0 345.6 
L 460.8 345.6 
L 460.8 0 
L 0 0 
z
" style="fill:#ffffff;"/>
  </g>
  <g id="axes_1">
   <g id="patch_2">
    <path d="M 57.6 307.584 
L 414.72 307.584 
L 414.72 41.472 
L 57.6 41.472 
z
" style="fill:#7d9051;"/>
   </g>
   <g id="matplotlib.axis_1">
    <g id="xtick_1">
     <g id="line2d_1">
      <defs>
       <path d="M 0 0 
L 0 3.5 
" id="mdc234117a4" style="stroke:#000000;stroke-width:0.8;"/>
      </defs>
      <g>
       <use style="stroke:#000000;stroke-width:0.8;" x="73.127124" xlink:href="#mdc234117a4" y="307.584"/>
      </g>
     </g>
     <g id="text_1">
      <!-- 0 -->
      <g transform="translate(69.945874 322.182437)scale(0.1 -0.1)">
       <defs>
        <path d="M 31.78125 66.40625 
Q 24.171875 66.40625 20.328125 58.90625 
Q 16.5 51.421875 16.5 36.375 
Q 16.5 21.390625 20.328125 13.890625 
Q 24.171875 6.390625 31.78125 6.390625 
Q 39.453125 6.390625 43.28125 13.890625 
Q 47.125 21.390625 47.125 36.375 
Q 47.125 51.421875 43.28125 58.90625 
Q 39.453125 66.40625 31.78125 66.40625 
z
M 31.78125 74.21875 
Q 44.046875 74.21875 50.515625 64.515625 
Q 56.984375 54.828125 56.984375 36.375 
Q 56.984375 17.96875 50.515625 8.265625 
Q 44.046875 -1.421875 31.78125 -1.421875 
Q 19.53125 -1.421875 13.0625 8.265625 
Q 6.59375 17.96875 6.59375 36.375 
Q 6.59375 54.828125 13.0625 64.515625 
Q 19.53125 74.21875 31.78125 74.21875 
z
" id="DejaVuSans-48"/>
       </defs>
       <use xlink:href="#DejaVuSans-48"/>
      </g>
     </g>
    </g>
    <g id="xtick_2">
     <g id="line2d_2">
      <g>
       <use style="stroke:#000000;stroke-width:0.8;" x="130.259763" xlink:href="#mdc234117a4" y="307.584"/>
      </g>
     </g>
     <g id="text_2">
      <!-- 20 -->
      <g transform="translate(123.897263 322.182437)scale(0.1 -0.1)">
       <defs>
        <path d="M 19.1875 8.296875 
L 53.609375 8.296875 
L 53.609375 0 
L 7.328125 0 
L 7.328125 8.296875 
Q 12.9375 14.109375 22.625 23.890625 
Q 32.328125 33.6875 34.8125 36.53125 
Q 39.546875 41.84375 41.421875 45.53125 
Q 43.3125 49.21875 43.3125 52.78125 
Q 43.3125 58.59375 39.234375 62.25 
Q 35.15625 65.921875 28.609375 65.921875 
Q 23.96875 65.921875 18.8125 64.3125 
Q 13.671875 62.703125 7.8125 59.421875 
L 7.8125 69.390625 
Q 13.765625 71.78125 18.9375 73 
Q 24.125 74.21875 28.421875 74.21875 
Q 39.75 74.21875 46.484375 68.546875 
Q 53.21875 62.890625 53.21875 53.421875 
Q 53.21875 48.921875 51.53125 44.890625 
Q 49.859375 40.875 45.40625 35.40625 
Q 44.1875 33.984375 37.640625 27.21875 
Q 31.109375 20.453125 19.1875 8.296875 
z
" id="DejaVuSans-50"/>
       </defs>
       <use xlink:href="#DejaVuSans-50"/>
       <use x="63.623047" xlink:href="#DejaVuSans-48"/>
      </g>
     </g>
    </g>
    <g id="xtick_3">
     <g id="line2d_3">
      <g>
       <use style="stroke:#000000;stroke-width:0.8;" x="187.392401" xlink:href="#mdc234117a4" y="307.584"/>
      </g>
     </g>
     <g id="text_3">
      <!-- 40 -->
      <g transform="translate(181.029901 322.182437)scale(0.1 -0.1)">
       <defs>
        <path d="M 37.796875 64.3125 
L 12.890625 25.390625 
L 37.796875 25.390625 
z
M 35.203125 72.90625 
L 47.609375 72.90625 
L 47.609375 25.390625 
L 58.015625 25.390625 
L 58.015625 17.1875 
L 47.609375 17.1875 
L 47.609375 0 
L 37.796875 0 
L 37.796875 17.1875 
L 4.890625 17.1875 
L 4.890625 26.703125 
z
" id="DejaVuSans-52"/>
       </defs>
       <use xlink:href="#DejaVuSans-52"/>
       <use x="63.623047" xlink:href="#DejaVuSans-48"/>
      </g>
     </g>
    </g>
    <g id="xtick_4">
     <g id="line2d_4">
      <g>
       <use style="stroke:#000000;stroke-width:0.8;" x="244.52504" xlink:href="#mdc234117a4" y="307.584"/>
      </g>
     </g>
     <g id="text_4">
      <!-- 60 -->
      <g transform="translate(238.16254 322.182437)scale(0.1 -0.1)">
       <defs>
        <path d="M 33.015625 40.375 
Q 26.375 40.375 22.484375 35.828125 
Q 18.609375 31.296875 18.609375 23.390625 
Q 18.609375 15.53125 22.484375 10.953125 
Q 26.375 6.390625 33.015625 6.390625 
Q 39.65625 6.390625 43.53125 10.953125 
Q 47.40625 15.53125 47.40625 23.390625 
Q 47.40625 31.296875 43.53125 35.828125 
Q 39.65625 40.375 33.015625 40.375 
z
M 52.59375 71.296875 
L 52.59375 62.3125 
Q 48.875 64.0625 45.09375 64.984375 
Q 41.3125 65.921875 37.59375 65.921875 
Q 27.828125 65.921875 22.671875 59.328125 
Q 17.53125 52.734375 16.796875 39.40625 
Q 19.671875 43.65625 24.015625 45.921875 
Q 28.375 48.1875 33.59375 48.1875 
Q 44.578125 48.1875 50.953125 41.515625 
Q 57.328125 34.859375 57.328125 23.390625 
Q 57.328125 12.15625 50.6875 5.359375 
Q 44.046875 -1.421875 33.015625 -1.421875 
Q 20.359375 -1.421875 13.671875 8.265625 
Q 6.984375 17.96875 6.984375 36.375 
Q 6.984375 53.65625 15.1875 63.9375 
Q 23.390625 74.21875 37.203125 74.21875 
Q 40.921875 74.21875 44.703125 73.484375 
Q 48.484375 72.75 52.59375 71.296875 
z
" id="DejaVuSans-54"/>
       </defs>
       <use xlink:href="#DejaVuSans-54"/>
       <use x="63.623047" xlink:href="#DejaVuSans-48"/>
      </g>
     </g>
    </g>
    <g id="xtick_5">
     <g id="line2d_5">
      <g>
       <use style="stroke:#000000;stroke-width:0.8;" x="301.657678" xlink:href="#mdc234117a4" y="307.584"/>
      </g>
     </g>
     <g id="text_5">
      <!-- 80 -->
      <g transform="translate(295.295178 322.182437)scale(0.1 -0.1)">
       <defs>
        <path d="M 31.78125 34.625 
Q 24.75 34.625 20.71875 30.859375 
Q 16.703125 27.09375 16.703125 20.515625 
Q 16.703125 13.921875 20.71875 10.15625 
Q 24.75 6.390625 31.78125 6.390625 
Q 38.8125 6.390625 42.859375 10.171875 
Q 46.921875 13.96875 46.921875 20.515625 
Q 46.921875 27.09375 42.890625 30.859375 
Q 38.875 34.625 31.78125 34.625 
z
M 21.921875 38.8125 
Q 15.578125 40.375 12.03125 44.71875 
Q 8.5 49.078125 8.5 55.328125 
Q 8.5 64.0625 14.71875 69.140625 
Q 20.953125 74.21875 31.78125 74.21875 
Q 42.671875 74.21875 48.875 69.140625 
Q 55.078125 64.0625 55.078125 55.328125 
Q 55.078125 49.078125 51.53125 44.71875 
Q 48 40.375 41.703125 38.8125 
Q 48.828125 37.15625 52.796875 32.3125 
Q 56.78125 27.484375 56.78125 20.515625 
Q 56.78125 9.90625 50.3125 4.234375 
Q 43.84375 -1.421875 31.78125 -1.421875 
Q 19.734375 -1.421875 13.25 4.234375 
Q 6.78125 9.90625 6.78125 20.515625 
Q 6.78125 27.484375 10.78125 32.3125 
Q 14.796875 37.15625 21.921875 38.8125 
z
M 18.3125 54.390625 
Q 18.3125 48.734375 21.84375 45.5625 
Q 25.390625 42.390625 31.78125 42.390625 
Q 38.140625 42.390625 41.71875 45.5625 
Q 45.3125 48.734375 45.3125 54.390625 
Q 45.3125 60.0625 41.71875 63.234375 
Q 38.140625 66.40625 31.78125 66.40625 
Q 25.390625 66.40625 21.84375 63.234375 
Q 18.3125 60.0625 18.3125 54.390625 
z
" id="DejaVuSans-56"/>
       </defs>
       <use xlink:href="#DejaVuSans-56"/>
       <use x="63.623047" xlink:href="#DejaVuSans-48"/>
      </g>
     </g>
    </g>
    <g id="xtick_6">
     <g id="line2d_6">
      <g>
       <use style="stroke:#000000;stroke-width:0.8;" x="358.790316" xlink:href="#mdc234117a4" y="307.584"/>
      </g>
     </g>
     <g id="text_6">
      <!-- 100 -->
      <g transform="translate(349.246566 322.182437)scale(0.1 -0.1)">
       <defs>
        <path d="M 12.40625 8.296875 
L 28.515625 8.296875 
L 28.515625 63.921875 
L 10.984375 60.40625 
L 10.984375 69.390625 
L 28.421875 72.90625 
L 38.28125 72.90625 
L 38.28125 8.296875 
L 54.390625 8.296875 
L 54.390625 0 
L 12.40625 0 
z
" id="DejaVuSans-49"/>
       </defs>
       <use xlink:href="#DejaVuSans-49"/>
       <use x="63.623047" xlink:href="#DejaVuSans-48"/>
       <use x="127.246094" xlink:href="#DejaVuSans-48"/>
      </g>
     </g>
    </g>
   </g>
   <g id="matplotlib.axis_2">
    <g id="ytick_1">
     <g id="line2d_7">
      <defs>
       <path d="M 0 0 
L -3.5 0 
" id="m12b3f42faf" style="stroke:#000000;stroke-width:0.8;"/>
      </defs>
      <g>
       <use style="stroke:#000000;stroke-width:0.8;" x="57.6" xlink:href="#m12b3f42faf" y="265.117289"/>
      </g>
     </g>
     <g id="text_7">
      <!-- 20 -->
      <g transform="translate(37.875 268.916508)scale(0.1 -0.1)">
       <use xlink:href="#DejaVuSans-50"/>
       <use x="63.623047" xlink:href="#DejaVuSans-48"/>
      </g>
     </g>
    </g>
    <g id="ytick_2">
     <g id="line2d_8">
      <g>
       <use style="stroke:#000000;stroke-width:0.8;" x="57.6" xlink:href="#m12b3f42faf" y="207.98465"/>
      </g>
     </g>
     <g id="text_8">
      <!-- 40 -->
      <g transform="translate(37.875 211.783869)scale(0.1 -0.1)">
       <use xlink:href="#DejaVuSans-52"/>
       <use x="63.623047" xlink:href="#DejaVuSans-48"/>
      </g>
     </g>
    </g>
    <g id="ytick_3">
     <g id="line2d_9">
      <g>
       <use style="stroke:#000000;stroke-width:0.8;" x="57.6" xlink:href="#m12b3f42faf" y="150.852012"/>
      </g>
     </g>
     <g id="text_9">
      <!-- 60 -->
      <g transform="translate(37.875 154.651231)scale(0.1 -0.1)">
       <use xlink:href="#DejaVuSans-54"/>
       <use x="63.623047" xlink:href="#DejaVuSans-48"/>
      </g>
     </g>
    </g>
    <g id="ytick_4">
     <g id="line2d_10">
      <g>
       <use style="stroke:#000000;stroke-width:0.8;" x="57.6" xlink:href="#m12b3f42faf" y="93.719373"/>
      </g>
     </g>
     <g id="text_10">
      <!-- 80 -->
      <g transform="translate(37.875 97.518592)scale(0.1 -0.1)">
       <use xlink:href="#DejaVuSans-56"/>
       <use x="63.623047" xlink:href="#DejaVuSans-48"/>
      </g>
     </g>
    </g>
   </g>
   <g id="line2d_11">
    <path clip-path="url(#p6cfe44cc63)" d="M 101.693443 293.683608 
L 100.89073 288.01605 
L 100.490801 282.271363 
L 100.496515 276.486684 
L 100.913583 270.702004 
L 101.744863 264.957317 
L 102.993211 259.295473 
L 103.775928 256.504544 
L 104.664341 253.75075 
L 105.658449 251.034093 
L 106.758252 248.363143 
L 107.966607 245.740754 
L 109.283514 243.175499 
L 110.706117 240.667376 
L 112.237272 238.222099 
L 113.876979 235.845381 
L 115.619524 233.542936 
L 117.459195 231.311907 
L 119.390278 229.158006 
L 121.40706 227.081235 
L 123.503828 225.084449 
L 127.917324 221.342261 
L 132.587918 217.951439 
L 137.469902 214.911983 
L 142.528997 212.181043 
L 147.719497 209.698629 
L 153.009979 207.410467 
L 161.051398 204.222466 
L 169.15852 201.262995 
L 177.348483 198.583475 
L 182.858926 196.983761 
L 188.417932 195.549732 
L 196.827856 193.675781 
L 208.117266 191.490458 
L 227.893729 187.899671 
L 236.403635 186.525631 
L 244.970674 185.377265 
L 250.715361 184.791656 
L 256.465761 184.397441 
L 262.213304 184.240326 
L 267.940851 184.360304 
L 273.636976 184.788799 
L 279.310247 185.482961 
L 287.817296 186.817008 
L 299.252394 188.650965 
L 305.037074 189.37655 
L 310.830323 189.827898 
L 316.60072 189.890744 
L 319.465921 189.739342 
L 322.311127 189.447966 
L 325.133479 189.002331 
L 327.927265 188.385299 
L 330.683915 187.599725 
L 333.403429 186.651323 
L 336.074379 185.55152 
L 338.693911 184.303172 
L 341.25631 182.914849 
L 343.750149 181.400834 
L 346.17543 179.763984 
L 348.523581 178.015725 
L 350.786034 176.161771 
L 352.959931 174.213548 
L 355.036702 172.173913 
L 357.016348 170.045722 
L 358.890299 167.834689 
L 360.658554 165.540813 
L 362.312544 163.166952 
L 363.852268 160.718818 
L 365.269158 158.199269 
L 366.563212 155.611161 
L 367.728718 152.95735 
L 368.757105 150.237836 
L 369.651231 147.464046 
L 370.399669 144.647407 
L 371.002418 141.790775 
L 371.450909 138.908434 
L 371.745142 136.011809 
L 371.876547 133.106614 
L 371.842268 130.20142 
L 371.63659 127.313365 
L 371.256658 124.445306 
L 370.696758 121.605814 
L 369.959747 118.809172 
L 369.059908 116.055378 
L 368.000098 113.353005 
L 366.791743 110.71062 
L 365.440556 108.128225 
L 363.96082 105.617245 
L 362.35825 103.180538 
L 360.641414 100.82953 
L 358.818883 98.564221 
L 356.902083 96.393181 
L 354.893871 94.313553 
L 352.802816 92.325337 
L 348.395033 88.606002 
L 343.730153 85.20661 
L 338.862452 82.101451 
L 333.837637 79.264816 
L 328.687129 76.679564 
L 323.42807 74.345696 
L 318.066172 72.257498 
L 312.612861 70.420683 
L 307.073852 68.826683 
L 301.466284 67.486922 
L 295.801583 66.418542 
L 290.096889 65.632968 
L 284.363628 65.153054 
L 278.618942 64.993083 
L 272.874255 65.170194 
L 267.149564 65.701527 
L 261.45344 66.604223 
L 255.803022 67.895421 
L 253.000666 68.689564 
L 253.000666 68.689564 
" style="fill:none;stroke:#fea952;stroke-linecap:square;"/>
   </g>
   <g id="line2d_12">
    <path clip-path="url(#p6cfe44cc63)" d="M 90.410283 295.488 
L 89.901715 292.261724 
L 89.507929 289.014741 
L 89.227993 285.739529 
L 89.065886 282.463284 
L 89.01772 279.166172 
L 89.086759 275.867811 
L 89.27311 272.5657 
L 89.576682 269.273645 
L 89.999597 265.978659 
L 90.542401 262.705566 
L 91.205485 259.447049 
L 91.991163 256.209945 
L 92.90131 252.996238 
L 93.933694 249.824078 
L 95.092589 246.683445 
L 96.380453 243.581216 
L 97.801323 240.522274 
L 99.344449 237.538079 
L 101.021529 234.603195 
L 102.831901 231.733298 
L 104.765686 228.949739 
L 106.803605 226.273472 
L 108.951352 223.684185 
L 111.192978 221.197491 
L 113.526978 218.806584 
L 115.953113 216.508189 
L 118.451858 214.318818 
L 121.039744 212.217327 
L 123.679642 210.23681 
L 126.383734 208.355938 
L 131.906234 204.931445 
L 137.487145 201.927006 
L 143.109243 199.243435 
L 148.698067 196.82874 
L 157.025609 193.52861 
L 165.466852 190.449248 
L 171.197488 188.535085 
L 176.991896 186.767766 
L 182.858701 185.162059 
L 188.735362 183.737743 
L 197.453797 181.889894 
L 211.700483 179.210332 
L 228.896953 176.143669 
L 237.722983 174.790471 
L 243.727434 174.018573 
L 249.832931 173.399252 
L 256.034878 172.97904 
L 262.30435 172.814161 
L 268.63727 172.955019 
L 274.916376 173.434123 
L 280.97405 174.178214 
L 289.695806 175.54595 
L 300.775772 177.326441 
L 306.091815 177.998806 
L 311.168905 178.406388 
L 315.997766 178.480135 
L 320.529016 178.161265 
L 322.669215 177.844691 
L 324.795677 177.396273 
L 326.921275 176.810468 
L 329.05278 176.085463 
L 331.158675 175.236415 
L 333.250566 174.256504 
L 335.326484 173.147418 
L 337.357892 171.929583 
L 341.28119 169.177552 
L 344.953373 166.061212 
L 348.299477 162.657779 
L 351.283289 159.008589 
L 353.892583 155.117907 
L 355.048961 153.089171 
L 356.101187 151.016428 
L 357.04084 148.915715 
L 357.881642 146.732151 
L 358.607923 144.529618 
L 359.219311 142.288352 
L 359.711753 140.033952 
L 360.082879 137.753693 
L 360.330285 135.495503 
L 360.450815 133.241431 
L 360.444607 131.013123 
L 360.30902 128.813929 
L 360.045994 126.65586 
L 359.647478 124.517678 
L 359.098374 122.358272 
L 358.422192 120.227252 
L 357.608569 118.105022 
L 356.667354 116.008005 
L 355.59625 113.929533 
L 354.413957 111.896015 
L 353.130313 109.919286 
L 351.738544 107.992243 
L 348.682406 104.330589 
L 345.272785 100.919763 
L 341.513791 97.728175 
L 337.444132 94.7487 
L 333.120424 91.980452 
L 328.583099 89.411509 
L 323.924651 87.066302 
L 319.160894 84.945542 
L 314.300005 83.045524 
L 309.327394 81.364688 
L 304.286519 79.908032 
L 299.21229 78.688933 
L 294.101579 77.717901 
L 288.996962 77.006433 
L 283.886518 76.569617 
L 278.800653 76.418166 
L 273.748892 76.563198 
L 268.74649 77.015915 
L 263.8006 77.787084 
L 258.918442 78.889042 
L 256.116086 79.683185 
L 256.116086 79.683185 
" style="fill:none;stroke:#ffffff;stroke-linecap:square;"/>
   </g>
   <g id="line2d_13">
    <path clip-path="url(#p6cfe44cc63)" d="M 112.976604 291.879216 
L 112.273531 287.01736 
L 111.915717 282.079443 
L 111.906271 277.105556 
L 112.250484 272.130364 
L 112.947325 267.209068 
L 113.995259 262.381001 
L 115.394987 257.677422 
L 117.136051 253.145069 
L 119.22258 248.812919 
L 121.642642 244.7109 
L 124.435443 240.8124 
L 127.587579 237.118521 
L 131.054543 233.660709 
L 134.794905 230.467195 
L 138.792101 227.54694 
L 143.033569 224.892521 
L 147.570849 222.435079 
L 152.329751 220.153824 
L 157.321892 217.992194 
L 165.077187 214.916322 
L 172.850187 212.076742 
L 180.612045 209.534032 
L 185.793204 208.027109 
L 191.033788 206.672808 
L 199.099352 204.874256 
L 210.196286 202.726258 
L 229.790655 199.167644 
L 238.037057 197.834808 
L 246.213914 196.735958 
L 251.597791 196.184059 
L 256.896644 195.815841 
L 262.122259 195.666491 
L 267.244433 195.76559 
L 272.357575 196.143475 
L 277.646443 196.787707 
L 285.938787 198.088065 
L 297.729016 199.97549 
L 303.982332 200.754294 
L 310.491741 201.249408 
L 313.811919 201.339765 
L 317.203673 201.301352 
L 320.63002 201.106418 
L 324.093238 200.734667 
L 327.597743 200.159971 
L 331.058853 199.374325 
L 334.446555 198.388982 
L 337.754077 197.217183 
L 340.990084 195.866625 
L 344.137256 194.349839 
L 347.186136 192.682279 
L 350.142407 190.872084 
L 352.999192 188.929233 
L 355.765973 186.853898 
L 358.412045 184.671147 
L 360.966488 182.365883 
L 363.403184 179.956426 
L 365.733219 177.433664 
L 367.940112 174.810821 
L 370.033818 172.073037 
L 371.985061 169.250367 
L 373.811953 166.31973 
L 375.489355 163.309368 
L 377.025237 160.205893 
L 378.416595 156.998984 
L 379.632569 153.743521 
L 380.69454 150.398475 
L 381.580026 147.006463 
L 382.293083 143.547598 
L 382.818939 140.063175 
L 383.159999 136.528115 
L 383.30228 132.971797 
L 383.239929 129.389717 
L 382.96416 125.8128 
L 382.467322 122.234753 
L 381.746038 118.693951 
L 380.82112 115.260071 
L 379.697624 111.883505 
L 378.391626 108.600987 
L 376.916131 105.413235 
L 375.284861 102.326916 
L 373.507683 99.338476 
L 371.586186 96.44179 
L 369.544284 93.666818 
L 367.384623 91.001574 
L 365.12176 88.455773 
L 362.767452 86.032717 
L 360.332847 83.730911 
L 357.840116 81.557389 
L 355.276275 79.483829 
L 350.016174 75.664521 
L 344.60448 72.222451 
L 339.092174 69.118123 
L 333.449608 66.292826 
L 327.695246 63.745849 
L 321.832339 61.469471 
L 315.898329 59.476679 
L 309.861185 57.745333 
L 303.720278 56.284912 
L 297.501587 55.119183 
L 291.196815 54.259504 
L 284.840738 53.736492 
L 278.437231 53.568 
L 271.999617 53.77719 
L 265.552639 54.38714 
L 259.106281 55.421362 
L 255.880276 56.105809 
L 249.885247 57.695944 
L 249.885247 57.695944 
" style="fill:none;stroke:#ffffff;stroke-linecap:square;"/>
   </g>
   <g id="patch_3">
    <path d="M 57.6 307.584 
L 57.6 41.472 
" style="fill:none;stroke:#000000;stroke-linecap:square;stroke-linejoin:miter;stroke-width:0.8;"/>
   </g>
   <g id="patch_4">
    <path d="M 414.72 307.584 
L 414.72 41.472 
" style="fill:none;stroke:#000000;stroke-linecap:square;stroke-linejoin:miter;stroke-width:0.8;"/>
   </g>
   <g id="patch_5">
    <path d="M 57.6 307.584 
L 414.72 307.584 
" style="fill:none;stroke:#000000;stroke-linecap:square;stroke-linejoin:miter;stroke-width:0.8;"/>
   </g>
   <g id="patch_6">
    <path d="M 57.6 41.472 
L 414.72 41.472 
" style="fill:none;stroke:#000000;stroke-linecap:square;stroke-linejoin:miter;stroke-width:0.8;"/>
   </g>
  </g>
 </g>
 <defs>
  <clipPath id="p6cfe44cc63">
   <rect height="266.112" width="357.12" x="57.6" y="41.472"/>
  </clipPath>
 </defs>
</svg>
