<?xml version="1.0" encoding="utf-8" standalone="no"?>
<!DOCTYPE svg PUBLIC "-//W3C//DTD SVG 1.1//EN"
  "http://www.w3.org/Graphics/SVG/1.1/DTD/svg11.dtd">
<!-- Created with matplotlib (https://matplotlib.org/) -->
<svg height="345.6pt" version="1.1" viewBox="0 0 460.8 345.6" width="460.8pt" xmlns="http://www.w3.org/2000/svg" xmlns:xlink="http://www.w3.org/1999/xlink">
 <metadata>
  <rdf:RDF xmlns:cc="http://creativecommons.org/ns#" xmlns:dc="http://purl.org/dc/elements/1.1/" xmlns:rdf="http://www.w3.org/1999/02/22-rdf-syntax-ns#">
   <cc:Work>
    <dc:type rdf:resource="http://purl.org/dc/dcmitype/StillImage"/>
    <dc:date>2021-01-25T12:56:22.605369</dc:date>
    <dc:format>image/svg+xml</dc:format>
    <dc:creator>
     <cc:Agent>
      <dc:title>Matplotlib v3.3.3, https://matplotlib.org/</dc:title>
     </cc:Agent>
    </dc:creator>
   </cc:Work>
  </rdf:RDF>
 </metadata>
 <defs>
  <style type="text/css">*{stroke-linecap:butt;stroke-linejoin:round;}</style>
 </defs>
 <g id="figure_1">
  <g id="patch_1">
   <path d="M 0 345.6 
L 460.8 345.6 
L 460.8 0 
L 0 0 
z
" style="fill:#ffffff;"/>
  </g>
  <g id="axes_1">
   <g id="patch_2">
    <path d="M 57.6 307.584 
L 414.72 307.584 
L 414.72 41.472 
L 57.6 41.472 
z
" style="fill:#7d9051;"/>
   </g>
   <g id="matplotlib.axis_1">
    <g id="xtick_1">
     <g id="line2d_1">
      <defs>
       <path d="M 0 0 
L 0 3.5 
" id="m26d21e02a7" style="stroke:#000000;stroke-width:0.8;"/>
      </defs>
      <g>
       <use style="stroke:#000000;stroke-width:0.8;" x="94.015201" xlink:href="#m26d21e02a7" y="307.584"/>
      </g>
     </g>
     <g id="text_1">
      <!-- 0 -->
      <g transform="translate(90.833951 322.182437)scale(0.1 -0.1)">
       <defs>
        <path d="M 31.78125 66.40625 
Q 24.171875 66.40625 20.328125 58.90625 
Q 16.5 51.421875 16.5 36.375 
Q 16.5 21.390625 20.328125 13.890625 
Q 24.171875 6.390625 31.78125 6.390625 
Q 39.453125 6.390625 43.28125 13.890625 
Q 47.125 21.390625 47.125 36.375 
Q 47.125 51.421875 43.28125 58.90625 
Q 39.453125 66.40625 31.78125 66.40625 
z
M 31.78125 74.21875 
Q 44.046875 74.21875 50.515625 64.515625 
Q 56.984375 54.828125 56.984375 36.375 
Q 56.984375 17.96875 50.515625 8.265625 
Q 44.046875 -1.421875 31.78125 -1.421875 
Q 19.53125 -1.421875 13.0625 8.265625 
Q 6.59375 17.96875 6.59375 36.375 
Q 6.59375 54.828125 13.0625 64.515625 
Q 19.53125 74.21875 31.78125 74.21875 
z
" id="DejaVuSans-48"/>
       </defs>
       <use xlink:href="#DejaVuSans-48"/>
      </g>
     </g>
    </g>
    <g id="xtick_2">
     <g id="line2d_2">
      <g>
       <use style="stroke:#000000;stroke-width:0.8;" x="173.319042" xlink:href="#m26d21e02a7" y="307.584"/>
      </g>
     </g>
     <g id="text_2">
      <!-- 20 -->
      <g transform="translate(166.956542 322.182437)scale(0.1 -0.1)">
       <defs>
        <path d="M 19.1875 8.296875 
L 53.609375 8.296875 
L 53.609375 0 
L 7.328125 0 
L 7.328125 8.296875 
Q 12.9375 14.109375 22.625 23.890625 
Q 32.328125 33.6875 34.8125 36.53125 
Q 39.546875 41.84375 41.421875 45.53125 
Q 43.3125 49.21875 43.3125 52.78125 
Q 43.3125 58.59375 39.234375 62.25 
Q 35.15625 65.921875 28.609375 65.921875 
Q 23.96875 65.921875 18.8125 64.3125 
Q 13.671875 62.703125 7.8125 59.421875 
L 7.8125 69.390625 
Q 13.765625 71.78125 18.9375 73 
Q 24.125 74.21875 28.421875 74.21875 
Q 39.75 74.21875 46.484375 68.546875 
Q 53.21875 62.890625 53.21875 53.421875 
Q 53.21875 48.921875 51.53125 44.890625 
Q 49.859375 40.875 45.40625 35.40625 
Q 44.1875 33.984375 37.640625 27.21875 
Q 31.109375 20.453125 19.1875 8.296875 
z
" id="DejaVuSans-50"/>
       </defs>
       <use xlink:href="#DejaVuSans-50"/>
       <use x="63.623047" xlink:href="#DejaVuSans-48"/>
      </g>
     </g>
    </g>
    <g id="xtick_3">
     <g id="line2d_3">
      <g>
       <use style="stroke:#000000;stroke-width:0.8;" x="252.622883" xlink:href="#m26d21e02a7" y="307.584"/>
      </g>
     </g>
     <g id="text_3">
      <!-- 40 -->
      <g transform="translate(246.260383 322.182437)scale(0.1 -0.1)">
       <defs>
        <path d="M 37.796875 64.3125 
L 12.890625 25.390625 
L 37.796875 25.390625 
z
M 35.203125 72.90625 
L 47.609375 72.90625 
L 47.609375 25.390625 
L 58.015625 25.390625 
L 58.015625 17.1875 
L 47.609375 17.1875 
L 47.609375 0 
L 37.796875 0 
L 37.796875 17.1875 
L 4.890625 17.1875 
L 4.890625 26.703125 
z
" id="DejaVuSans-52"/>
       </defs>
       <use xlink:href="#DejaVuSans-52"/>
       <use x="63.623047" xlink:href="#DejaVuSans-48"/>
      </g>
     </g>
    </g>
    <g id="xtick_4">
     <g id="line2d_4">
      <g>
       <use style="stroke:#000000;stroke-width:0.8;" x="331.926724" xlink:href="#m26d21e02a7" y="307.584"/>
      </g>
     </g>
     <g id="text_4">
      <!-- 60 -->
      <g transform="translate(325.564224 322.182437)scale(0.1 -0.1)">
       <defs>
        <path d="M 33.015625 40.375 
Q 26.375 40.375 22.484375 35.828125 
Q 18.609375 31.296875 18.609375 23.390625 
Q 18.609375 15.53125 22.484375 10.953125 
Q 26.375 6.390625 33.015625 6.390625 
Q 39.65625 6.390625 43.53125 10.953125 
Q 47.40625 15.53125 47.40625 23.390625 
Q 47.40625 31.296875 43.53125 35.828125 
Q 39.65625 40.375 33.015625 40.375 
z
M 52.59375 71.296875 
L 52.59375 62.3125 
Q 48.875 64.0625 45.09375 64.984375 
Q 41.3125 65.921875 37.59375 65.921875 
Q 27.828125 65.921875 22.671875 59.328125 
Q 17.53125 52.734375 16.796875 39.40625 
Q 19.671875 43.65625 24.015625 45.921875 
Q 28.375 48.1875 33.59375 48.1875 
Q 44.578125 48.1875 50.953125 41.515625 
Q 57.328125 34.859375 57.328125 23.390625 
Q 57.328125 12.15625 50.6875 5.359375 
Q 44.046875 -1.421875 33.015625 -1.421875 
Q 20.359375 -1.421875 13.671875 8.265625 
Q 6.984375 17.96875 6.984375 36.375 
Q 6.984375 53.65625 15.1875 63.9375 
Q 23.390625 74.21875 37.203125 74.21875 
Q 40.921875 74.21875 44.703125 73.484375 
Q 48.484375 72.75 52.59375 71.296875 
z
" id="DejaVuSans-54"/>
       </defs>
       <use xlink:href="#DejaVuSans-54"/>
       <use x="63.623047" xlink:href="#DejaVuSans-48"/>
      </g>
     </g>
    </g>
    <g id="xtick_5">
     <g id="line2d_5">
      <g>
       <use style="stroke:#000000;stroke-width:0.8;" x="411.230565" xlink:href="#m26d21e02a7" y="307.584"/>
      </g>
     </g>
     <g id="text_5">
      <!-- 80 -->
      <g transform="translate(404.868065 322.182437)scale(0.1 -0.1)">
       <defs>
        <path d="M 31.78125 34.625 
Q 24.75 34.625 20.71875 30.859375 
Q 16.703125 27.09375 16.703125 20.515625 
Q 16.703125 13.921875 20.71875 10.15625 
Q 24.75 6.390625 31.78125 6.390625 
Q 38.8125 6.390625 42.859375 10.171875 
Q 46.921875 13.96875 46.921875 20.515625 
Q 46.921875 27.09375 42.890625 30.859375 
Q 38.875 34.625 31.78125 34.625 
z
M 21.921875 38.8125 
Q 15.578125 40.375 12.03125 44.71875 
Q 8.5 49.078125 8.5 55.328125 
Q 8.5 64.0625 14.71875 69.140625 
Q 20.953125 74.21875 31.78125 74.21875 
Q 42.671875 74.21875 48.875 69.140625 
Q 55.078125 64.0625 55.078125 55.328125 
Q 55.078125 49.078125 51.53125 44.71875 
Q 48 40.375 41.703125 38.8125 
Q 48.828125 37.15625 52.796875 32.3125 
Q 56.78125 27.484375 56.78125 20.515625 
Q 56.78125 9.90625 50.3125 4.234375 
Q 43.84375 -1.421875 31.78125 -1.421875 
Q 19.734375 -1.421875 13.25 4.234375 
Q 6.78125 9.90625 6.78125 20.515625 
Q 6.78125 27.484375 10.78125 32.3125 
Q 14.796875 37.15625 21.921875 38.8125 
z
M 18.3125 54.390625 
Q 18.3125 48.734375 21.84375 45.5625 
Q 25.390625 42.390625 31.78125 42.390625 
Q 38.140625 42.390625 41.71875 45.5625 
Q 45.3125 48.734375 45.3125 54.390625 
Q 45.3125 60.0625 41.71875 63.234375 
Q 38.140625 66.40625 31.78125 66.40625 
Q 25.390625 66.40625 21.84375 63.234375 
Q 18.3125 60.0625 18.3125 54.390625 
z
" id="DejaVuSans-56"/>
       </defs>
       <use xlink:href="#DejaVuSans-56"/>
       <use x="63.623047" xlink:href="#DejaVuSans-48"/>
      </g>
     </g>
    </g>
   </g>
   <g id="matplotlib.axis_2">
    <g id="ytick_1">
     <g id="line2d_6">
      <defs>
       <path d="M 0 0 
L -3.5 0 
" id="m1a95a4533a" style="stroke:#000000;stroke-width:0.8;"/>
      </defs>
      <g>
       <use style="stroke:#000000;stroke-width:0.8;" x="57.6" xlink:href="#m1a95a4533a" y="293.628462"/>
      </g>
     </g>
     <g id="text_6">
      <!-- 10 -->
      <g transform="translate(37.875 297.42768)scale(0.1 -0.1)">
       <defs>
        <path d="M 12.40625 8.296875 
L 28.515625 8.296875 
L 28.515625 63.921875 
L 10.984375 60.40625 
L 10.984375 69.390625 
L 28.421875 72.90625 
L 38.28125 72.90625 
L 38.28125 8.296875 
L 54.390625 8.296875 
L 54.390625 0 
L 12.40625 0 
z
" id="DejaVuSans-49"/>
       </defs>
       <use xlink:href="#DejaVuSans-49"/>
       <use x="63.623047" xlink:href="#DejaVuSans-48"/>
      </g>
     </g>
    </g>
    <g id="ytick_2">
     <g id="line2d_7">
      <g>
       <use style="stroke:#000000;stroke-width:0.8;" x="57.6" xlink:href="#m1a95a4533a" y="253.976541"/>
      </g>
     </g>
     <g id="text_7">
      <!-- 20 -->
      <g transform="translate(37.875 257.77576)scale(0.1 -0.1)">
       <use xlink:href="#DejaVuSans-50"/>
       <use x="63.623047" xlink:href="#DejaVuSans-48"/>
      </g>
     </g>
    </g>
    <g id="ytick_3">
     <g id="line2d_8">
      <g>
       <use style="stroke:#000000;stroke-width:0.8;" x="57.6" xlink:href="#m1a95a4533a" y="214.324621"/>
      </g>
     </g>
     <g id="text_8">
      <!-- 30 -->
      <g transform="translate(37.875 218.123839)scale(0.1 -0.1)">
       <defs>
        <path d="M 40.578125 39.3125 
Q 47.65625 37.796875 51.625 33 
Q 55.609375 28.21875 55.609375 21.1875 
Q 55.609375 10.40625 48.1875 4.484375 
Q 40.765625 -1.421875 27.09375 -1.421875 
Q 22.515625 -1.421875 17.65625 -0.515625 
Q 12.796875 0.390625 7.625 2.203125 
L 7.625 11.71875 
Q 11.71875 9.328125 16.59375 8.109375 
Q 21.484375 6.890625 26.8125 6.890625 
Q 36.078125 6.890625 40.9375 10.546875 
Q 45.796875 14.203125 45.796875 21.1875 
Q 45.796875 27.640625 41.28125 31.265625 
Q 36.765625 34.90625 28.71875 34.90625 
L 20.21875 34.90625 
L 20.21875 43.015625 
L 29.109375 43.015625 
Q 36.375 43.015625 40.234375 45.921875 
Q 44.09375 48.828125 44.09375 54.296875 
Q 44.09375 59.90625 40.109375 62.90625 
Q 36.140625 65.921875 28.71875 65.921875 
Q 24.65625 65.921875 20.015625 65.03125 
Q 15.375 64.15625 9.8125 62.3125 
L 9.8125 71.09375 
Q 15.4375 72.65625 20.34375 73.4375 
Q 25.25 74.21875 29.59375 74.21875 
Q 40.828125 74.21875 47.359375 69.109375 
Q 53.90625 64.015625 53.90625 55.328125 
Q 53.90625 49.265625 50.4375 45.09375 
Q 46.96875 40.921875 40.578125 39.3125 
z
" id="DejaVuSans-51"/>
       </defs>
       <use xlink:href="#DejaVuSans-51"/>
       <use x="63.623047" xlink:href="#DejaVuSans-48"/>
      </g>
     </g>
    </g>
    <g id="ytick_4">
     <g id="line2d_9">
      <g>
       <use style="stroke:#000000;stroke-width:0.8;" x="57.6" xlink:href="#m1a95a4533a" y="174.6727"/>
      </g>
     </g>
     <g id="text_9">
      <!-- 40 -->
      <g transform="translate(37.875 178.471919)scale(0.1 -0.1)">
       <use xlink:href="#DejaVuSans-52"/>
       <use x="63.623047" xlink:href="#DejaVuSans-48"/>
      </g>
     </g>
    </g>
    <g id="ytick_5">
     <g id="line2d_10">
      <g>
       <use style="stroke:#000000;stroke-width:0.8;" x="57.6" xlink:href="#m1a95a4533a" y="135.02078"/>
      </g>
     </g>
     <g id="text_10">
      <!-- 50 -->
      <g transform="translate(37.875 138.819998)scale(0.1 -0.1)">
       <defs>
        <path d="M 10.796875 72.90625 
L 49.515625 72.90625 
L 49.515625 64.59375 
L 19.828125 64.59375 
L 19.828125 46.734375 
Q 21.96875 47.46875 24.109375 47.828125 
Q 26.265625 48.1875 28.421875 48.1875 
Q 40.625 48.1875 47.75 41.5 
Q 54.890625 34.8125 54.890625 23.390625 
Q 54.890625 11.625 47.5625 5.09375 
Q 40.234375 -1.421875 26.90625 -1.421875 
Q 22.3125 -1.421875 17.546875 -0.640625 
Q 12.796875 0.140625 7.71875 1.703125 
L 7.71875 11.625 
Q 12.109375 9.234375 16.796875 8.0625 
Q 21.484375 6.890625 26.703125 6.890625 
Q 35.15625 6.890625 40.078125 11.328125 
Q 45.015625 15.765625 45.015625 23.390625 
Q 45.015625 31 40.078125 35.4375 
Q 35.15625 39.890625 26.703125 39.890625 
Q 22.75 39.890625 18.8125 39.015625 
Q 14.890625 38.140625 10.796875 36.28125 
z
" id="DejaVuSans-53"/>
       </defs>
       <use xlink:href="#DejaVuSans-53"/>
       <use x="63.623047" xlink:href="#DejaVuSans-48"/>
      </g>
     </g>
    </g>
    <g id="ytick_6">
     <g id="line2d_11">
      <g>
       <use style="stroke:#000000;stroke-width:0.8;" x="57.6" xlink:href="#m1a95a4533a" y="95.368859"/>
      </g>
     </g>
     <g id="text_11">
      <!-- 60 -->
      <g transform="translate(37.875 99.168078)scale(0.1 -0.1)">
       <use xlink:href="#DejaVuSans-54"/>
       <use x="63.623047" xlink:href="#DejaVuSans-48"/>
      </g>
     </g>
    </g>
    <g id="ytick_7">
     <g id="line2d_12">
      <g>
       <use style="stroke:#000000;stroke-width:0.8;" x="57.6" xlink:href="#m1a95a4533a" y="55.716939"/>
      </g>
     </g>
     <g id="text_12">
      <!-- 70 -->
      <g transform="translate(37.875 59.516157)scale(0.1 -0.1)">
       <defs>
        <path d="M 8.203125 72.90625 
L 55.078125 72.90625 
L 55.078125 68.703125 
L 28.609375 0 
L 18.3125 0 
L 43.21875 64.59375 
L 8.203125 64.59375 
z
" id="DejaVuSans-55"/>
       </defs>
       <use xlink:href="#DejaVuSans-55"/>
       <use x="63.623047" xlink:href="#DejaVuSans-48"/>
      </g>
     </g>
    </g>
   </g>
   <g id="line2d_13">
    <path clip-path="url(#p2df4a1289d)" d="M 133.667122 293.628462 
L 133.195264 289.631548 
L 132.846327 285.642565 
L 132.485494 277.68839 
L 132.537042 269.758006 
L 132.957352 261.855378 
L 133.698843 253.976541 
L 134.713932 246.121496 
L 135.955037 238.290241 
L 138.143823 226.584994 
L 141.423037 211.049372 
L 145.578558 191.671478 
L 147.814927 179.986057 
L 149.103614 172.142908 
L 151.554103 156.416956 
L 153.068806 148.629319 
L 153.976835 144.775152 
L 155.015716 140.956672 
L 156.205273 137.177844 
L 157.569299 133.442633 
L 159.099863 129.7669 
L 160.796966 126.150645 
L 162.652675 122.605763 
L 164.659063 119.140185 
L 166.812162 115.761842 
L 169.108008 112.478663 
L 171.534706 109.298579 
L 174.09622 106.22952 
L 176.77669 103.279417 
L 179.58008 100.4562 
L 182.490531 97.75987 
L 185.508042 95.182495 
L 188.620718 92.720111 
L 191.828559 90.372717 
L 195.123633 88.132384 
L 198.494046 85.99911 
L 201.939798 83.968932 
L 209.021631 80.198034 
L 212.645817 78.45335 
L 216.317585 76.815725 
L 220.0409 75.301022 
L 223.807832 73.9251 
L 227.618382 72.699856 
L 231.464618 71.645115 
L 235.346541 70.772773 
L 239.264151 70.102655 
L 243.209517 69.650623 
L 247.18264 69.428573 
L 251.175588 69.448399 
L 255.176467 69.714067 
L 259.169415 70.213681 
L 263.134607 70.947241 
L 267.056182 71.902853 
L 270.918279 73.080515 
L 274.705038 74.472297 
L 278.396631 76.074235 
L 281.9772 77.878397 
L 285.430882 79.880819 
L 288.745783 82.07357 
L 291.921901 84.444755 
L 294.975099 86.974548 
L 297.913307 89.647087 
L 300.744454 92.446513 
L 303.476471 95.356964 
L 306.121254 98.358614 
L 311.184804 104.58 
L 316.002513 110.983785 
L 320.58231 117.518422 
L 324.848856 124.219596 
L 326.843348 127.645522 
L 328.734744 131.126961 
L 330.511151 134.671843 
L 332.164636 138.284133 
L 333.683304 141.967796 
L 335.063191 145.722833 
L 336.292401 149.545278 
L 337.359037 153.419271 
L 338.251205 157.340846 
L 338.95701 161.298107 
L 339.468519 165.275195 
L 339.773839 169.268143 
L 339.865039 173.261092 
L 339.726257 177.24611 
L 339.345598 181.211302 
L 338.723063 185.148738 
L 337.854686 189.046521 
L 336.752363 192.888792 
L 335.424023 196.671586 
L 333.873633 200.375075 
L 332.113088 203.995295 
L 330.146353 207.516386 
L 327.981358 210.926451 
L 325.629999 214.221526 
L 323.092276 217.377819 
L 320.380085 220.39533 
L 317.501355 223.254233 
L 314.467983 225.942633 
L 311.291865 228.44467 
L 307.980929 230.752411 
L 304.543108 232.849998 
L 300.994261 234.721569 
L 297.342319 236.359193 
L 293.595213 237.743045 
L 289.764837 238.861229 
L 285.859123 239.70978 
L 281.901861 240.284733 
L 277.904948 240.597983 
L 273.884243 240.657461 
L 269.855608 240.471097 
L 265.838868 240.042856 
L 261.84592 239.384634 
L 257.900554 238.504362 
L 254.014665 237.406004 
L 250.208081 236.09749 
L 246.492696 234.590717 
L 242.872476 232.88965 
L 239.35535 231.002218 
L 235.94132 228.936353 
L 232.63435 226.699985 
L 229.438405 224.301044 
L 226.357451 221.743495 
L 223.395452 219.035269 
L 220.55241 216.188261 
L 217.832288 213.202471 
L 215.246983 210.093761 
L 212.800459 206.866094 
L 210.508578 203.523437 
L 208.395131 200.081651 
L 206.464082 196.544699 
L 204.735259 192.920514 
L 203.22452 189.217025 
L 201.943763 185.446127 
L 200.904883 181.611786 
L 200.131671 177.721933 
L 199.628091 173.788462 
L 199.394145 169.82327 
L 199.413971 165.838252 
L 199.691534 161.845304 
L 200.207009 157.864251 
L 200.960396 153.899059 
L 201.939798 149.973519 
L 203.137286 146.091596 
L 204.544929 142.273116 
L 206.154797 138.529975 
L 207.962925 134.874068 
L 209.953451 131.321255 
L 212.122411 127.879469 
L 214.46584 124.568533 
L 216.967876 121.400345 
L 219.624555 118.386799 
L 222.427946 115.539791 
L 225.366153 112.875182 
L 228.439177 110.404867 
L 231.631156 108.144708 
L 231.631156 108.144708 
" style="fill:none;stroke:#fea952;stroke-linecap:square;"/>
   </g>
   <g id="line2d_14">
    <path clip-path="url(#p2df4a1289d)" d="M 117.915738 295.488 
L 117.394832 291.013693 
L 117.012874 286.573017 
L 116.759694 282.167785 
L 116.625011 277.783457 
L 116.690328 269.090441 
L 117.152917 260.519792 
L 117.953093 252.069891 
L 119.032858 243.740766 
L 120.338816 235.515786 
L 122.602745 223.416579 
L 125.929584 207.655719 
L 130.025796 188.560926 
L 132.1786 177.327249 
L 133.423105 169.75846 
L 135.951711 153.565757 
L 137.630704 144.992153 
L 138.672376 140.611322 
L 139.886849 136.194175 
L 141.30683 131.737224 
L 142.927189 127.345703 
L 144.741616 123.0286 
L 146.745151 118.794662 
L 148.92635 114.658943 
L 151.283764 110.615788 
L 153.814091 106.672611 
L 156.499072 102.856881 
L 159.357867 99.135481 
L 162.357346 95.563555 
L 165.521984 92.103748 
L 168.800986 88.82112 
L 172.189378 85.699596 
L 175.667682 82.743392 
L 179.254273 79.920358 
L 182.910753 77.25644 
L 186.641047 74.730529 
L 190.442699 72.333834 
L 194.293183 70.073132 
L 198.187324 67.937099 
L 202.141923 65.907003 
L 206.185286 63.967995 
L 210.340822 62.124154 
L 214.599192 60.402976 
L 218.952766 58.825687 
L 223.423793 57.403798 
L 227.987124 56.170264 
L 232.672355 55.139069 
L 237.458748 54.344975 
L 242.324468 53.814568 
L 247.261391 53.568 
L 252.226466 53.622482 
L 257.145676 53.976018 
L 262.054698 54.617556 
L 266.889686 55.537395 
L 271.682286 56.731724 
L 276.389872 58.193418 
L 281.018852 59.922393 
L 285.533669 61.90996 
L 289.932712 64.157107 
L 294.181326 66.6523 
L 298.234294 69.364042 
L 302.041355 72.231622 
L 305.647359 75.241396 
L 309.065202 78.368825 
L 312.308594 81.591346 
L 315.376813 84.871458 
L 318.30969 88.209427 
L 323.790158 94.953524 
L 328.901497 101.754475 
L 333.854224 108.833939 
L 338.555953 116.239655 
L 340.780166 120.073926 
L 342.914697 124.021124 
L 344.932863 128.070466 
L 346.828124 132.238798 
L 348.570705 136.49703 
L 350.162443 140.867264 
L 351.584138 145.334964 
L 352.824625 149.90081 
L 353.865563 154.55592 
L 354.688202 159.274853 
L 355.283122 164.065935 
L 355.630472 168.905976 
L 355.716197 173.813122 
L 355.51444 178.761775 
L 355.011766 183.688229 
L 354.204285 188.597758 
L 353.100436 193.420431 
L 351.717293 198.143773 
L 350.054516 202.796342 
L 348.137189 207.311569 
L 345.960205 211.729721 
L 343.53644 216.017534 
L 340.891994 220.139456 
L 337.990901 224.159939 
L 334.888427 227.980403 
L 331.556521 231.649273 
L 328.02133 235.124116 
L 324.2829 238.401822 
L 320.361253 241.456593 
L 316.24205 244.291904 
L 311.94183 246.879355 
L 307.484006 249.193858 
L 302.837144 251.23773 
L 298.039859 252.968323 
L 293.132175 254.360423 
L 288.139599 255.405748 
L 283.141117 256.097013 
L 278.139549 256.457016 
L 273.15131 256.501286 
L 268.174157 256.242485 
L 263.259099 255.692417 
L 258.392059 254.864777 
L 253.58648 253.767151 
L 248.858651 252.40532 
L 244.247289 250.795549 
L 239.747558 248.945754 
L 235.372627 246.865208 
L 231.14412 244.572025 
L 227.05629 242.074855 
L 223.112854 239.384821 
L 219.307781 236.504913 
L 215.654849 233.448976 
L 212.172383 230.242707 
L 208.827671 226.869762 
L 205.637515 223.344043 
L 202.606981 219.674696 
L 199.719213 215.835205 
L 196.99261 211.82299 
L 194.474016 207.68208 
L 192.148656 203.373502 
L 190.049369 198.911225 
L 188.206342 194.317836 
L 186.634948 189.593914 
L 185.348472 184.704039 
L 184.399307 179.736056 
L 183.794857 174.722623 
L 183.533573 169.744362 
L 183.591385 164.73837 
L 183.962075 159.808621 
L 184.625003 154.90367 
L 185.571363 150.059573 
L 186.78376 145.298214 
L 188.255499 140.605579 
L 189.974579 136.00663 
L 191.93779 131.498569 
L 194.12589 127.121621 
L 196.534906 122.865098 
L 199.176285 118.716402 
L 202.018592 114.738479 
L 205.070304 110.911696 
L 208.323061 107.258448 
L 211.773052 103.790868 
L 215.428859 100.51338 
L 219.273609 97.460512 
L 222.465588 95.200353 
L 222.465588 95.200353 
" style="fill:none;stroke:#ffffff;stroke-linecap:square;"/>
   </g>
   <g id="line2d_15">
    <path clip-path="url(#p2df4a1289d)" d="M 149.418505 291.768923 
L 148.67978 284.712113 
L 148.345978 277.593322 
L 148.383755 270.42557 
L 148.761788 263.190964 
L 149.444593 255.883191 
L 150.395007 248.502226 
L 151.571259 241.064697 
L 153.684902 229.75341 
L 156.91649 214.443025 
L 161.131321 194.782031 
L 163.451253 182.644866 
L 164.784124 174.527356 
L 167.156495 159.268154 
L 168.506908 152.266485 
L 170.144582 145.719169 
L 171.103717 142.618465 
L 172.21141 139.539564 
L 173.458111 136.505201 
L 174.84878 133.506628 
L 176.379001 130.552583 
L 178.034361 127.664583 
L 179.810233 124.851073 
L 181.716945 122.100445 
L 183.711545 119.461677 
L 185.835093 116.895486 
L 188.031395 114.455086 
L 190.359174 112.091281 
L 192.791685 109.820144 
L 195.348403 107.621598 
L 197.987163 105.519864 
L 200.746364 103.488994 
L 203.606219 101.534238 
L 206.545394 99.664386 
L 212.710663 96.138668 
L 219.106348 92.938705 
L 222.294348 91.507297 
L 225.482607 90.199069 
L 228.662899 89.024514 
L 231.812971 87.995914 
L 234.942113 87.119966 
L 238.020727 86.406477 
L 241.069554 85.860336 
L 244.094566 85.486679 
L 247.103888 85.289145 
L 250.124709 85.274315 
L 253.207257 85.452115 
L 256.284132 85.809806 
L 259.379528 86.357087 
L 262.430078 87.073981 
L 265.446687 87.967611 
L 268.391223 89.022201 
L 271.259594 90.238509 
L 274.021687 91.599687 
L 276.680439 93.109338 
L 279.257271 94.783099 
L 281.802448 96.657888 
L 284.30284 98.707699 
L 286.761411 100.925349 
L 289.180314 103.301679 
L 291.576129 105.842469 
L 296.27408 111.31327 
L 300.876347 117.211411 
L 305.249277 123.206815 
L 309.274693 129.195788 
L 312.90653 135.217119 
L 314.554792 138.232798 
L 316.089438 141.273219 
L 317.501147 144.329468 
L 318.795904 147.438562 
L 319.963939 150.578402 
L 321.000664 153.755593 
L 321.893449 156.937731 
L 322.636848 160.125771 
L 323.225817 163.321361 
L 323.653917 166.484455 
L 323.917206 169.630311 
L 324.01388 172.709061 
L 323.938074 175.730444 
L 323.679431 178.734375 
L 323.241842 181.699717 
L 322.608937 184.672612 
L 321.787432 187.633812 
L 320.793531 190.546829 
L 319.610078 193.438581 
L 318.265972 196.26087 
L 316.756265 199.015237 
L 315.070722 201.713446 
L 313.269097 204.283112 
L 311.296126 206.775234 
L 309.203648 209.141387 
L 306.981381 211.384351 
L 304.653067 213.483445 
L 302.222476 215.432746 
L 299.719809 217.212919 
L 297.144385 218.82064 
L 294.504515 220.249279 
L 291.847494 221.480656 
L 289.150566 222.517767 
L 286.397499 223.362035 
L 283.578647 224.013813 
L 280.662605 224.472453 
L 277.670347 224.73895 
L 274.617176 224.813636 
L 271.537059 224.699709 
L 268.418637 224.393295 
L 265.299781 223.904492 
L 262.214628 223.241573 
L 259.17068 222.406688 
L 256.168873 221.399432 
L 253.237834 220.23568 
L 250.372325 218.914091 
L 247.566581 217.432411 
L 244.82635 215.797852 
L 242.155846 214.015149 
L 239.56903 212.097175 
L 237.060053 210.038014 
L 234.618522 207.82783 
L 232.277148 205.506759 
L 230.027061 203.0609 
L 227.886985 200.512826 
L 225.881706 197.896983 
L 224.024547 195.223885 
L 222.316246 192.481221 
L 220.779508 189.715897 
L 219.421148 186.929803 
L 218.242699 184.116213 
L 217.252579 181.29834 
L 216.461295 178.519533 
L 215.864035 175.70781 
L 215.461326 172.854301 
L 215.254717 169.902179 
L 215.236557 166.938134 
L 215.420994 163.881987 
L 215.789016 160.824832 
L 216.349428 157.738545 
L 217.095836 154.648824 
L 218.019073 151.577613 
L 219.11528 148.539602 
L 220.371805 145.56138 
L 221.79996 142.626514 
L 223.371997 139.777413 
L 225.068538 137.042535 
L 226.913088 134.398588 
L 228.865448 131.888994 
L 230.926049 129.51515 
L 233.08284 127.288714 
L 235.303447 125.236984 
L 237.604745 123.349222 
L 240.796725 121.089063 
L 240.796725 121.089063 
" style="fill:none;stroke:#ffffff;stroke-linecap:square;"/>
   </g>
   <g id="patch_3">
    <path d="M 57.6 307.584 
L 57.6 41.472 
" style="fill:none;stroke:#000000;stroke-linecap:square;stroke-linejoin:miter;stroke-width:0.8;"/>
   </g>
   <g id="patch_4">
    <path d="M 414.72 307.584 
L 414.72 41.472 
" style="fill:none;stroke:#000000;stroke-linecap:square;stroke-linejoin:miter;stroke-width:0.8;"/>
   </g>
   <g id="patch_5">
    <path d="M 57.6 307.584 
L 414.72 307.584 
" style="fill:none;stroke:#000000;stroke-linecap:square;stroke-linejoin:miter;stroke-width:0.8;"/>
   </g>
   <g id="patch_6">
    <path d="M 57.6 41.472 
L 414.72 41.472 
" style="fill:none;stroke:#000000;stroke-linecap:square;stroke-linejoin:miter;stroke-width:0.8;"/>
   </g>
  </g>
 </g>
 <defs>
  <clipPath id="p2df4a1289d">
   <rect height="266.112" width="357.12" x="57.6" y="41.472"/>
  </clipPath>
 </defs>
</svg>
