<?xml version="1.0" encoding="utf-8" standalone="no"?>
<!DOCTYPE svg PUBLIC "-//W3C//DTD SVG 1.1//EN"
  "http://www.w3.org/Graphics/SVG/1.1/DTD/svg11.dtd">
<!-- Created with matplotlib (https://matplotlib.org/) -->
<svg height="345.6pt" version="1.1" viewBox="0 0 460.8 345.6" width="460.8pt" xmlns="http://www.w3.org/2000/svg" xmlns:xlink="http://www.w3.org/1999/xlink">
 <metadata>
  <rdf:RDF xmlns:cc="http://creativecommons.org/ns#" xmlns:dc="http://purl.org/dc/elements/1.1/" xmlns:rdf="http://www.w3.org/1999/02/22-rdf-syntax-ns#">
   <cc:Work>
    <dc:type rdf:resource="http://purl.org/dc/dcmitype/StillImage"/>
    <dc:date>2021-01-23T13:49:38.861112</dc:date>
    <dc:format>image/svg+xml</dc:format>
    <dc:creator>
     <cc:Agent>
      <dc:title>Matplotlib v3.3.3, https://matplotlib.org/</dc:title>
     </cc:Agent>
    </dc:creator>
   </cc:Work>
  </rdf:RDF>
 </metadata>
 <defs>
  <style type="text/css">*{stroke-linecap:butt;stroke-linejoin:round;}</style>
 </defs>
 <g id="figure_1">
  <g id="patch_1">
   <path d="M 0 345.6 
L 460.8 345.6 
L 460.8 0 
L 0 0 
z
" style="fill:#ffffff;"/>
  </g>
  <g id="axes_1">
   <g id="patch_2">
    <path d="M 57.6 307.584 
L 414.72 307.584 
L 414.72 41.472 
L 57.6 41.472 
z
" style="fill:#7d9051;"/>
   </g>
   <g id="matplotlib.axis_1">
    <g id="xtick_1">
     <g id="line2d_1">
      <defs>
       <path d="M 0 0 
L 0 3.5 
" id="m93087571ef" style="stroke:#000000;stroke-width:0.8;"/>
      </defs>
      <g>
       <use style="stroke:#000000;stroke-width:0.8;" x="64.840522" xlink:href="#m93087571ef" y="307.584"/>
      </g>
     </g>
     <g id="text_1">
      <!-- −50 -->
      <g transform="translate(54.288178 322.182437)scale(0.1 -0.1)">
       <defs>
        <path d="M 10.59375 35.5 
L 73.1875 35.5 
L 73.1875 27.203125 
L 10.59375 27.203125 
z
" id="DejaVuSans-8722"/>
        <path d="M 10.796875 72.90625 
L 49.515625 72.90625 
L 49.515625 64.59375 
L 19.828125 64.59375 
L 19.828125 46.734375 
Q 21.96875 47.46875 24.109375 47.828125 
Q 26.265625 48.1875 28.421875 48.1875 
Q 40.625 48.1875 47.75 41.5 
Q 54.890625 34.8125 54.890625 23.390625 
Q 54.890625 11.625 47.5625 5.09375 
Q 40.234375 -1.421875 26.90625 -1.421875 
Q 22.3125 -1.421875 17.546875 -0.640625 
Q 12.796875 0.140625 7.71875 1.703125 
L 7.71875 11.625 
Q 12.109375 9.234375 16.796875 8.0625 
Q 21.484375 6.890625 26.703125 6.890625 
Q 35.15625 6.890625 40.078125 11.328125 
Q 45.015625 15.765625 45.015625 23.390625 
Q 45.015625 31 40.078125 35.4375 
Q 35.15625 39.890625 26.703125 39.890625 
Q 22.75 39.890625 18.8125 39.015625 
Q 14.890625 38.140625 10.796875 36.28125 
z
" id="DejaVuSans-53"/>
        <path d="M 31.78125 66.40625 
Q 24.171875 66.40625 20.328125 58.90625 
Q 16.5 51.421875 16.5 36.375 
Q 16.5 21.390625 20.328125 13.890625 
Q 24.171875 6.390625 31.78125 6.390625 
Q 39.453125 6.390625 43.28125 13.890625 
Q 47.125 21.390625 47.125 36.375 
Q 47.125 51.421875 43.28125 58.90625 
Q 39.453125 66.40625 31.78125 66.40625 
z
M 31.78125 74.21875 
Q 44.046875 74.21875 50.515625 64.515625 
Q 56.984375 54.828125 56.984375 36.375 
Q 56.984375 17.96875 50.515625 8.265625 
Q 44.046875 -1.421875 31.78125 -1.421875 
Q 19.53125 -1.421875 13.0625 8.265625 
Q 6.59375 17.96875 6.59375 36.375 
Q 6.59375 54.828125 13.0625 64.515625 
Q 19.53125 74.21875 31.78125 74.21875 
z
" id="DejaVuSans-48"/>
       </defs>
       <use xlink:href="#DejaVuSans-8722"/>
       <use x="83.789062" xlink:href="#DejaVuSans-53"/>
       <use x="147.412109" xlink:href="#DejaVuSans-48"/>
      </g>
     </g>
    </g>
    <g id="xtick_2">
     <g id="line2d_2">
      <g>
       <use style="stroke:#000000;stroke-width:0.8;" x="110.665349" xlink:href="#m93087571ef" y="307.584"/>
      </g>
     </g>
     <g id="text_2">
      <!-- −25 -->
      <g transform="translate(100.113005 322.182437)scale(0.1 -0.1)">
       <defs>
        <path d="M 19.1875 8.296875 
L 53.609375 8.296875 
L 53.609375 0 
L 7.328125 0 
L 7.328125 8.296875 
Q 12.9375 14.109375 22.625 23.890625 
Q 32.328125 33.6875 34.8125 36.53125 
Q 39.546875 41.84375 41.421875 45.53125 
Q 43.3125 49.21875 43.3125 52.78125 
Q 43.3125 58.59375 39.234375 62.25 
Q 35.15625 65.921875 28.609375 65.921875 
Q 23.96875 65.921875 18.8125 64.3125 
Q 13.671875 62.703125 7.8125 59.421875 
L 7.8125 69.390625 
Q 13.765625 71.78125 18.9375 73 
Q 24.125 74.21875 28.421875 74.21875 
Q 39.75 74.21875 46.484375 68.546875 
Q 53.21875 62.890625 53.21875 53.421875 
Q 53.21875 48.921875 51.53125 44.890625 
Q 49.859375 40.875 45.40625 35.40625 
Q 44.1875 33.984375 37.640625 27.21875 
Q 31.109375 20.453125 19.1875 8.296875 
z
" id="DejaVuSans-50"/>
       </defs>
       <use xlink:href="#DejaVuSans-8722"/>
       <use x="83.789062" xlink:href="#DejaVuSans-50"/>
       <use x="147.412109" xlink:href="#DejaVuSans-53"/>
      </g>
     </g>
    </g>
    <g id="xtick_3">
     <g id="line2d_3">
      <g>
       <use style="stroke:#000000;stroke-width:0.8;" x="156.490176" xlink:href="#m93087571ef" y="307.584"/>
      </g>
     </g>
     <g id="text_3">
      <!-- 0 -->
      <g transform="translate(153.308926 322.182437)scale(0.1 -0.1)">
       <use xlink:href="#DejaVuSans-48"/>
      </g>
     </g>
    </g>
    <g id="xtick_4">
     <g id="line2d_4">
      <g>
       <use style="stroke:#000000;stroke-width:0.8;" x="202.315003" xlink:href="#m93087571ef" y="307.584"/>
      </g>
     </g>
     <g id="text_4">
      <!-- 25 -->
      <g transform="translate(195.952503 322.182437)scale(0.1 -0.1)">
       <use xlink:href="#DejaVuSans-50"/>
       <use x="63.623047" xlink:href="#DejaVuSans-53"/>
      </g>
     </g>
    </g>
    <g id="xtick_5">
     <g id="line2d_5">
      <g>
       <use style="stroke:#000000;stroke-width:0.8;" x="248.139829" xlink:href="#m93087571ef" y="307.584"/>
      </g>
     </g>
     <g id="text_5">
      <!-- 50 -->
      <g transform="translate(241.777329 322.182437)scale(0.1 -0.1)">
       <use xlink:href="#DejaVuSans-53"/>
       <use x="63.623047" xlink:href="#DejaVuSans-48"/>
      </g>
     </g>
    </g>
    <g id="xtick_6">
     <g id="line2d_6">
      <g>
       <use style="stroke:#000000;stroke-width:0.8;" x="293.964656" xlink:href="#m93087571ef" y="307.584"/>
      </g>
     </g>
     <g id="text_6">
      <!-- 75 -->
      <g transform="translate(287.602156 322.182437)scale(0.1 -0.1)">
       <defs>
        <path d="M 8.203125 72.90625 
L 55.078125 72.90625 
L 55.078125 68.703125 
L 28.609375 0 
L 18.3125 0 
L 43.21875 64.59375 
L 8.203125 64.59375 
z
" id="DejaVuSans-55"/>
       </defs>
       <use xlink:href="#DejaVuSans-55"/>
       <use x="63.623047" xlink:href="#DejaVuSans-53"/>
      </g>
     </g>
    </g>
    <g id="xtick_7">
     <g id="line2d_7">
      <g>
       <use style="stroke:#000000;stroke-width:0.8;" x="339.789483" xlink:href="#m93087571ef" y="307.584"/>
      </g>
     </g>
     <g id="text_7">
      <!-- 100 -->
      <g transform="translate(330.245733 322.182437)scale(0.1 -0.1)">
       <defs>
        <path d="M 12.40625 8.296875 
L 28.515625 8.296875 
L 28.515625 63.921875 
L 10.984375 60.40625 
L 10.984375 69.390625 
L 28.421875 72.90625 
L 38.28125 72.90625 
L 38.28125 8.296875 
L 54.390625 8.296875 
L 54.390625 0 
L 12.40625 0 
z
" id="DejaVuSans-49"/>
       </defs>
       <use xlink:href="#DejaVuSans-49"/>
       <use x="63.623047" xlink:href="#DejaVuSans-48"/>
       <use x="127.246094" xlink:href="#DejaVuSans-48"/>
      </g>
     </g>
    </g>
    <g id="xtick_8">
     <g id="line2d_8">
      <g>
       <use style="stroke:#000000;stroke-width:0.8;" x="385.61431" xlink:href="#m93087571ef" y="307.584"/>
      </g>
     </g>
     <g id="text_8">
      <!-- 125 -->
      <g transform="translate(376.07056 322.182437)scale(0.1 -0.1)">
       <use xlink:href="#DejaVuSans-49"/>
       <use x="63.623047" xlink:href="#DejaVuSans-50"/>
       <use x="127.246094" xlink:href="#DejaVuSans-53"/>
      </g>
     </g>
    </g>
   </g>
   <g id="matplotlib.axis_2">
    <g id="ytick_1">
     <g id="line2d_9">
      <defs>
       <path d="M 0 0 
L -3.5 0 
" id="mb494cce2d6" style="stroke:#000000;stroke-width:0.8;"/>
      </defs>
      <g>
       <use style="stroke:#000000;stroke-width:0.8;" x="57.6" xlink:href="#mb494cce2d6" y="271.611503"/>
      </g>
     </g>
     <g id="text_9">
      <!-- 20 -->
      <g transform="translate(37.875 275.410722)scale(0.1 -0.1)">
       <use xlink:href="#DejaVuSans-50"/>
       <use x="63.623047" xlink:href="#DejaVuSans-48"/>
      </g>
     </g>
    </g>
    <g id="ytick_2">
     <g id="line2d_10">
      <g>
       <use style="stroke:#000000;stroke-width:0.8;" x="57.6" xlink:href="#mb494cce2d6" y="234.951642"/>
      </g>
     </g>
     <g id="text_10">
      <!-- 40 -->
      <g transform="translate(37.875 238.75086)scale(0.1 -0.1)">
       <defs>
        <path d="M 37.796875 64.3125 
L 12.890625 25.390625 
L 37.796875 25.390625 
z
M 35.203125 72.90625 
L 47.609375 72.90625 
L 47.609375 25.390625 
L 58.015625 25.390625 
L 58.015625 17.1875 
L 47.609375 17.1875 
L 47.609375 0 
L 37.796875 0 
L 37.796875 17.1875 
L 4.890625 17.1875 
L 4.890625 26.703125 
z
" id="DejaVuSans-52"/>
       </defs>
       <use xlink:href="#DejaVuSans-52"/>
       <use x="63.623047" xlink:href="#DejaVuSans-48"/>
      </g>
     </g>
    </g>
    <g id="ytick_3">
     <g id="line2d_11">
      <g>
       <use style="stroke:#000000;stroke-width:0.8;" x="57.6" xlink:href="#mb494cce2d6" y="198.29178"/>
      </g>
     </g>
     <g id="text_11">
      <!-- 60 -->
      <g transform="translate(37.875 202.090999)scale(0.1 -0.1)">
       <defs>
        <path d="M 33.015625 40.375 
Q 26.375 40.375 22.484375 35.828125 
Q 18.609375 31.296875 18.609375 23.390625 
Q 18.609375 15.53125 22.484375 10.953125 
Q 26.375 6.390625 33.015625 6.390625 
Q 39.65625 6.390625 43.53125 10.953125 
Q 47.40625 15.53125 47.40625 23.390625 
Q 47.40625 31.296875 43.53125 35.828125 
Q 39.65625 40.375 33.015625 40.375 
z
M 52.59375 71.296875 
L 52.59375 62.3125 
Q 48.875 64.0625 45.09375 64.984375 
Q 41.3125 65.921875 37.59375 65.921875 
Q 27.828125 65.921875 22.671875 59.328125 
Q 17.53125 52.734375 16.796875 39.40625 
Q 19.671875 43.65625 24.015625 45.921875 
Q 28.375 48.1875 33.59375 48.1875 
Q 44.578125 48.1875 50.953125 41.515625 
Q 57.328125 34.859375 57.328125 23.390625 
Q 57.328125 12.15625 50.6875 5.359375 
Q 44.046875 -1.421875 33.015625 -1.421875 
Q 20.359375 -1.421875 13.671875 8.265625 
Q 6.984375 17.96875 6.984375 36.375 
Q 6.984375 53.65625 15.1875 63.9375 
Q 23.390625 74.21875 37.203125 74.21875 
Q 40.921875 74.21875 44.703125 73.484375 
Q 48.484375 72.75 52.59375 71.296875 
z
" id="DejaVuSans-54"/>
       </defs>
       <use xlink:href="#DejaVuSans-54"/>
       <use x="63.623047" xlink:href="#DejaVuSans-48"/>
      </g>
     </g>
    </g>
    <g id="ytick_4">
     <g id="line2d_12">
      <g>
       <use style="stroke:#000000;stroke-width:0.8;" x="57.6" xlink:href="#mb494cce2d6" y="161.631919"/>
      </g>
     </g>
     <g id="text_12">
      <!-- 80 -->
      <g transform="translate(37.875 165.431138)scale(0.1 -0.1)">
       <defs>
        <path d="M 31.78125 34.625 
Q 24.75 34.625 20.71875 30.859375 
Q 16.703125 27.09375 16.703125 20.515625 
Q 16.703125 13.921875 20.71875 10.15625 
Q 24.75 6.390625 31.78125 6.390625 
Q 38.8125 6.390625 42.859375 10.171875 
Q 46.921875 13.96875 46.921875 20.515625 
Q 46.921875 27.09375 42.890625 30.859375 
Q 38.875 34.625 31.78125 34.625 
z
M 21.921875 38.8125 
Q 15.578125 40.375 12.03125 44.71875 
Q 8.5 49.078125 8.5 55.328125 
Q 8.5 64.0625 14.71875 69.140625 
Q 20.953125 74.21875 31.78125 74.21875 
Q 42.671875 74.21875 48.875 69.140625 
Q 55.078125 64.0625 55.078125 55.328125 
Q 55.078125 49.078125 51.53125 44.71875 
Q 48 40.375 41.703125 38.8125 
Q 48.828125 37.15625 52.796875 32.3125 
Q 56.78125 27.484375 56.78125 20.515625 
Q 56.78125 9.90625 50.3125 4.234375 
Q 43.84375 -1.421875 31.78125 -1.421875 
Q 19.734375 -1.421875 13.25 4.234375 
Q 6.78125 9.90625 6.78125 20.515625 
Q 6.78125 27.484375 10.78125 32.3125 
Q 14.796875 37.15625 21.921875 38.8125 
z
M 18.3125 54.390625 
Q 18.3125 48.734375 21.84375 45.5625 
Q 25.390625 42.390625 31.78125 42.390625 
Q 38.140625 42.390625 41.71875 45.5625 
Q 45.3125 48.734375 45.3125 54.390625 
Q 45.3125 60.0625 41.71875 63.234375 
Q 38.140625 66.40625 31.78125 66.40625 
Q 25.390625 66.40625 21.84375 63.234375 
Q 18.3125 60.0625 18.3125 54.390625 
z
" id="DejaVuSans-56"/>
       </defs>
       <use xlink:href="#DejaVuSans-56"/>
       <use x="63.623047" xlink:href="#DejaVuSans-48"/>
      </g>
     </g>
    </g>
    <g id="ytick_5">
     <g id="line2d_13">
      <g>
       <use style="stroke:#000000;stroke-width:0.8;" x="57.6" xlink:href="#mb494cce2d6" y="124.972057"/>
      </g>
     </g>
     <g id="text_13">
      <!-- 100 -->
      <g transform="translate(31.5125 128.771276)scale(0.1 -0.1)">
       <use xlink:href="#DejaVuSans-49"/>
       <use x="63.623047" xlink:href="#DejaVuSans-48"/>
       <use x="127.246094" xlink:href="#DejaVuSans-48"/>
      </g>
     </g>
    </g>
    <g id="ytick_6">
     <g id="line2d_14">
      <g>
       <use style="stroke:#000000;stroke-width:0.8;" x="57.6" xlink:href="#mb494cce2d6" y="88.312196"/>
      </g>
     </g>
     <g id="text_14">
      <!-- 120 -->
      <g transform="translate(31.5125 92.111415)scale(0.1 -0.1)">
       <use xlink:href="#DejaVuSans-49"/>
       <use x="63.623047" xlink:href="#DejaVuSans-50"/>
       <use x="127.246094" xlink:href="#DejaVuSans-48"/>
      </g>
     </g>
    </g>
    <g id="ytick_7">
     <g id="line2d_15">
      <g>
       <use style="stroke:#000000;stroke-width:0.8;" x="57.6" xlink:href="#mb494cce2d6" y="51.652334"/>
      </g>
     </g>
     <g id="text_15">
      <!-- 140 -->
      <g transform="translate(31.5125 55.451553)scale(0.1 -0.1)">
       <use xlink:href="#DejaVuSans-49"/>
       <use x="63.623047" xlink:href="#DejaVuSans-52"/>
       <use x="127.246094" xlink:href="#DejaVuSans-48"/>
      </g>
     </g>
    </g>
   </g>
   <g id="line2d_16">
    <path clip-path="url(#pbd25b20814)" d="M 293.431255 102.208116 
L 294.006815 100.353127 
L 294.443068 98.492639 
L 294.747344 96.628485 
L 294.921479 94.767997 
L 294.969137 92.913008 
L 294.893984 91.067184 
L 294.699687 89.237857 
L 294.391744 87.42686 
L 293.445919 83.878186 
L 292.085838 80.457821 
L 290.344495 77.196926 
L 288.251217 74.132161 
L 285.837165 71.296521 
L 283.1335 68.724832 
L 280.171383 66.450087 
L 276.985641 64.510781 
L 273.614767 62.949071 
L 271.869758 62.320354 
L 270.093588 61.799784 
L 268.289922 61.394693 
L 266.460595 61.106913 
L 264.614771 60.94011 
L 262.757949 60.894285 
L 260.897461 60.967605 
L 259.042472 61.156403 
L 257.198481 61.457014 
L 255.378319 61.867605 
L 253.585652 62.386342 
L 250.117629 63.737258 
L 248.460603 64.562105 
L 245.322519 66.497745 
L 242.417225 68.766991 
L 239.739222 71.314851 
L 237.277513 74.08817 
L 235.022931 77.02829 
L 232.96448 80.091222 
L 231.089328 83.253135 
L 229.375479 86.499366 
L 227.076906 91.497938 
L 225.044117 96.604656 
L 221.955523 105.230722 
L 219.413162 112.117277 
L 217.294222 117.205666 
L 214.93516 122.180409 
L 213.20848 125.413809 
L 211.342494 128.566557 
L 208.338218 133.169202 
L 202.228852 142.319504 
L 199.439037 147.055958 
L 196.865514 151.918888 
L 193.701768 158.545158 
L 191.494845 163.589555 
L 189.496882 168.716437 
L 188.327432 172.191792 
L 187.31562 175.727636 
L 186.490773 179.323968 
L 185.878554 182.967958 
L 185.50279 186.63761 
L 185.389145 190.312761 
L 185.563279 193.973249 
L 186.038024 197.602575 
L 186.77672 201.195241 
L 187.729877 204.749415 
L 189.45289 210.006439 
L 191.384865 215.16998 
L 194.158183 221.948389 
L 200.668975 237.160398 
L 201.84209 240.637586 
L 202.740257 244.19176 
L 203.277324 247.843082 
L 203.411132 251.567724 
L 203.136184 255.294199 
L 202.446978 258.956519 
L 201.946571 260.740021 
L 201.341683 262.483198 
L 200.630482 264.173217 
L 199.816633 265.808247 
L 197.901155 268.907838 
L 195.659405 271.809466 
L 193.15187 274.540626 
L 190.444539 277.125146 
L 186.148004 280.787467 
L 174.820107 289.941434 
L 174.820107 289.941434 
" style="fill:none;stroke:#fea952;stroke-linecap:square;"/>
   </g>
   <g id="line2d_17">
    <path clip-path="url(#pbd25b20814)" d="M 286.428616 100.035361 
L 287.206857 97.311508 
L 287.591925 94.579689 
L 287.603021 91.841575 
L 287.254005 89.103314 
L 286.557943 86.390873 
L 285.525016 83.730958 
L 284.182185 81.169803 
L 282.547102 78.738776 
L 280.645482 76.473803 
L 278.516513 74.420554 
L 276.189474 72.606565 
L 273.712466 71.071584 
L 271.12949 69.846984 
L 268.486898 68.95355 
L 265.800713 68.40913 
L 263.04667 68.220571 
L 260.222171 68.392848 
L 257.416334 68.910638 
L 254.69166 69.761702 
L 252.129595 70.910043 
L 249.684269 72.391213 
L 247.352141 74.189575 
L 245.126225 76.288584 
L 243.019052 78.648054 
L 241.045193 81.210417 
L 239.22108 83.913888 
L 237.53218 86.752775 
L 235.975329 89.693078 
L 233.846398 94.314281 
L 231.919753 99.150917 
L 228.861344 107.693944 
L 226.219214 114.844084 
L 223.974506 120.227524 
L 221.437927 125.567419 
L 219.559451 129.077548 
L 217.535135 132.491987 
L 214.404761 137.286832 
L 208.482734 146.146615 
L 205.872379 150.573047 
L 203.433649 155.177328 
L 200.388773 161.552116 
L 198.284075 166.357979 
L 196.420421 171.129408 
L 194.873657 175.878782 
L 194.046862 179.054234 
L 193.404636 182.238402 
L 192.964327 185.420699 
L 192.742588 188.561984 
L 192.753613 191.646839 
L 193.014899 194.698209 
L 193.536854 197.814371 
L 194.285635 200.984839 
L 195.235013 204.218563 
L 196.945214 209.164991 
L 199.521466 215.766358 
L 203.050396 224.027194 
L 206.848077 232.806327 
L 208.270048 236.66252 
L 209.478908 240.769851 
L 209.961542 242.922564 
L 210.340004 245.141736 
L 210.594249 247.373585 
L 210.728215 249.642344 
L 210.735303 251.905873 
L 210.619492 254.173942 
L 210.378259 256.438821 
L 210.007342 258.70501 
L 209.506348 260.937205 
L 208.873362 263.14364 
L 208.09964 265.32711 
L 207.194274 267.440396 
L 206.161578 269.482413 
L 205.028078 271.415883 
L 203.808785 273.250387 
L 201.1538 276.664303 
L 198.289377 279.771673 
L 195.30498 282.614585 
L 190.74829 286.496686 
L 179.615252 295.488 
L 179.615252 295.488 
" style="fill:none;stroke:#ffffff;stroke-linecap:square;"/>
   </g>
   <g id="line2d_18">
    <path clip-path="url(#pbd25b20814)" d="M 300.433894 104.380872 
L 301.145172 102.026949 
L 301.679278 99.673771 
L 302.047411 97.311743 
L 302.251032 94.956306 
L 302.295039 92.614734 
L 302.184946 90.292794 
L 301.927906 88.008767 
L 301.529483 85.750407 
L 300.997354 83.541586 
L 300.333896 81.365498 
L 299.548085 79.246509 
L 298.646661 77.184683 
L 297.630499 75.173043 
L 296.506805 73.224048 
L 295.282748 71.344498 
L 293.955332 69.525547 
L 292.539818 67.788435 
L 291.028848 66.119239 
L 289.430436 64.530854 
L 287.750487 63.02911 
L 285.992944 61.617486 
L 284.153292 60.29361 
L 282.24418 59.071839 
L 280.258817 57.949978 
L 278.209489 56.941289 
L 276.100045 56.051157 
L 273.93191 55.28435 
L 271.700277 54.646018 
L 269.429336 54.151796 
L 267.120478 53.804696 
L 264.795663 53.61037 
L 262.469229 53.568 
L 260.155058 53.673316 
L 257.862774 53.919959 
L 255.585082 54.304759 
L 253.340304 54.824572 
L 251.126952 55.47891 
L 248.967629 56.261083 
L 246.850294 57.173544 
L 244.791612 58.214167 
L 242.835676 59.358564 
L 240.96077 60.604278 
L 239.179962 61.934525 
L 235.881701 64.810771 
L 232.904217 67.91772 
L 230.23123 71.177965 
L 227.821681 74.549913 
L 225.650719 78.003701 
L 223.689269 81.520022 
L 221.914878 85.087667 
L 219.558915 90.483212 
L 217.510912 95.834792 
L 211.960399 111.006402 
L 209.91191 115.738583 
L 207.656663 120.286098 
L 206.02619 123.194788 
L 203.268792 127.56373 
L 194.95405 140.162704 
L 192.079291 145.234786 
L 189.445728 150.378177 
L 186.233355 157.276728 
L 183.972398 162.621395 
L 181.920011 168.183222 
L 180.725404 172.024149 
L 179.708208 175.982705 
L 178.906036 180.042526 
L 178.352862 184.181203 
L 178.079693 188.386555 
L 178.123658 192.64467 
L 178.514918 196.884947 
L 179.221068 200.990777 
L 180.173304 204.968982 
L 181.306207 208.80328 
L 183.214334 214.312244 
L 185.972092 221.374008 
L 189.639493 229.958378 
L 193.166452 238.083107 
L 194.299673 241.118967 
L 195.184092 244.039332 
L 195.778392 246.87111 
L 196.064722 249.757464 
L 196.030472 252.69348 
L 195.682134 255.57137 
L 195.01978 258.336403 
L 194.06669 260.906039 
L 192.779527 263.353359 
L 191.124058 265.762206 
L 189.129046 268.135068 
L 186.831885 270.475031 
L 184.29054 272.783127 
L 180.135771 276.216313 
L 171.337384 283.260245 
L 170.024961 284.394868 
L 170.024961 284.394868 
" style="fill:none;stroke:#ffffff;stroke-linecap:square;"/>
   </g>
   <g id="patch_3">
    <path d="M 57.6 307.584 
L 57.6 41.472 
" style="fill:none;stroke:#000000;stroke-linecap:square;stroke-linejoin:miter;stroke-width:0.8;"/>
   </g>
   <g id="patch_4">
    <path d="M 414.72 307.584 
L 414.72 41.472 
" style="fill:none;stroke:#000000;stroke-linecap:square;stroke-linejoin:miter;stroke-width:0.8;"/>
   </g>
   <g id="patch_5">
    <path d="M 57.6 307.584 
L 414.72 307.584 
" style="fill:none;stroke:#000000;stroke-linecap:square;stroke-linejoin:miter;stroke-width:0.8;"/>
   </g>
   <g id="patch_6">
    <path d="M 57.6 41.472 
L 414.72 41.472 
" style="fill:none;stroke:#000000;stroke-linecap:square;stroke-linejoin:miter;stroke-width:0.8;"/>
   </g>
  </g>
 </g>
 <defs>
  <clipPath id="pbd25b20814">
   <rect height="266.112" width="357.12" x="57.6" y="41.472"/>
  </clipPath>
 </defs>
</svg>
