<?xml version="1.0" encoding="utf-8" standalone="no"?>
<!DOCTYPE svg PUBLIC "-//W3C//DTD SVG 1.1//EN"
  "http://www.w3.org/Graphics/SVG/1.1/DTD/svg11.dtd">
<!-- Created with matplotlib (https://matplotlib.org/) -->
<svg height="345.6pt" version="1.1" viewBox="0 0 460.8 345.6" width="460.8pt" xmlns="http://www.w3.org/2000/svg" xmlns:xlink="http://www.w3.org/1999/xlink">
 <metadata>
  <rdf:RDF xmlns:cc="http://creativecommons.org/ns#" xmlns:dc="http://purl.org/dc/elements/1.1/" xmlns:rdf="http://www.w3.org/1999/02/22-rdf-syntax-ns#">
   <cc:Work>
    <dc:type rdf:resource="http://purl.org/dc/dcmitype/StillImage"/>
    <dc:date>2021-01-23T13:21:25.324379</dc:date>
    <dc:format>image/svg+xml</dc:format>
    <dc:creator>
     <cc:Agent>
      <dc:title>Matplotlib v3.3.3, https://matplotlib.org/</dc:title>
     </cc:Agent>
    </dc:creator>
   </cc:Work>
  </rdf:RDF>
 </metadata>
 <defs>
  <style type="text/css">*{stroke-linecap:butt;stroke-linejoin:round;}</style>
 </defs>
 <g id="figure_1">
  <g id="patch_1">
   <path d="M 0 345.6 
L 460.8 345.6 
L 460.8 0 
L 0 0 
z
" style="fill:#ffffff;"/>
  </g>
  <g id="axes_1">
   <g id="patch_2">
    <path d="M 57.6 307.584 
L 414.72 307.584 
L 414.72 41.472 
L 57.6 41.472 
z
" style="fill:#7d9051;"/>
   </g>
   <g id="matplotlib.axis_1">
    <g id="xtick_1">
     <g id="line2d_1">
      <defs>
       <path d="M 0 0 
L 0 3.5 
" id="mfb34837403" style="stroke:#000000;stroke-width:0.8;"/>
      </defs>
      <g>
       <use style="stroke:#000000;stroke-width:0.8;" x="59.147171" xlink:href="#mfb34837403" y="307.584"/>
      </g>
     </g>
     <g id="text_1">
      <!-- 0 -->
      <g transform="translate(55.965921 322.182437)scale(0.1 -0.1)">
       <defs>
        <path d="M 31.78125 66.40625 
Q 24.171875 66.40625 20.328125 58.90625 
Q 16.5 51.421875 16.5 36.375 
Q 16.5 21.390625 20.328125 13.890625 
Q 24.171875 6.390625 31.78125 6.390625 
Q 39.453125 6.390625 43.28125 13.890625 
Q 47.125 21.390625 47.125 36.375 
Q 47.125 51.421875 43.28125 58.90625 
Q 39.453125 66.40625 31.78125 66.40625 
z
M 31.78125 74.21875 
Q 44.046875 74.21875 50.515625 64.515625 
Q 56.984375 54.828125 56.984375 36.375 
Q 56.984375 17.96875 50.515625 8.265625 
Q 44.046875 -1.421875 31.78125 -1.421875 
Q 19.53125 -1.421875 13.0625 8.265625 
Q 6.59375 17.96875 6.59375 36.375 
Q 6.59375 54.828125 13.0625 64.515625 
Q 19.53125 74.21875 31.78125 74.21875 
z
" id="DejaVuSans-48"/>
       </defs>
       <use xlink:href="#DejaVuSans-48"/>
      </g>
     </g>
    </g>
    <g id="xtick_2">
     <g id="line2d_2">
      <g>
       <use style="stroke:#000000;stroke-width:0.8;" x="111.645324" xlink:href="#mfb34837403" y="307.584"/>
      </g>
     </g>
     <g id="text_2">
      <!-- 20 -->
      <g transform="translate(105.282824 322.182437)scale(0.1 -0.1)">
       <defs>
        <path d="M 19.1875 8.296875 
L 53.609375 8.296875 
L 53.609375 0 
L 7.328125 0 
L 7.328125 8.296875 
Q 12.9375 14.109375 22.625 23.890625 
Q 32.328125 33.6875 34.8125 36.53125 
Q 39.546875 41.84375 41.421875 45.53125 
Q 43.3125 49.21875 43.3125 52.78125 
Q 43.3125 58.59375 39.234375 62.25 
Q 35.15625 65.921875 28.609375 65.921875 
Q 23.96875 65.921875 18.8125 64.3125 
Q 13.671875 62.703125 7.8125 59.421875 
L 7.8125 69.390625 
Q 13.765625 71.78125 18.9375 73 
Q 24.125 74.21875 28.421875 74.21875 
Q 39.75 74.21875 46.484375 68.546875 
Q 53.21875 62.890625 53.21875 53.421875 
Q 53.21875 48.921875 51.53125 44.890625 
Q 49.859375 40.875 45.40625 35.40625 
Q 44.1875 33.984375 37.640625 27.21875 
Q 31.109375 20.453125 19.1875 8.296875 
z
" id="DejaVuSans-50"/>
       </defs>
       <use xlink:href="#DejaVuSans-50"/>
       <use x="63.623047" xlink:href="#DejaVuSans-48"/>
      </g>
     </g>
    </g>
    <g id="xtick_3">
     <g id="line2d_3">
      <g>
       <use style="stroke:#000000;stroke-width:0.8;" x="164.143477" xlink:href="#mfb34837403" y="307.584"/>
      </g>
     </g>
     <g id="text_3">
      <!-- 40 -->
      <g transform="translate(157.780977 322.182437)scale(0.1 -0.1)">
       <defs>
        <path d="M 37.796875 64.3125 
L 12.890625 25.390625 
L 37.796875 25.390625 
z
M 35.203125 72.90625 
L 47.609375 72.90625 
L 47.609375 25.390625 
L 58.015625 25.390625 
L 58.015625 17.1875 
L 47.609375 17.1875 
L 47.609375 0 
L 37.796875 0 
L 37.796875 17.1875 
L 4.890625 17.1875 
L 4.890625 26.703125 
z
" id="DejaVuSans-52"/>
       </defs>
       <use xlink:href="#DejaVuSans-52"/>
       <use x="63.623047" xlink:href="#DejaVuSans-48"/>
      </g>
     </g>
    </g>
    <g id="xtick_4">
     <g id="line2d_4">
      <g>
       <use style="stroke:#000000;stroke-width:0.8;" x="216.64163" xlink:href="#mfb34837403" y="307.584"/>
      </g>
     </g>
     <g id="text_4">
      <!-- 60 -->
      <g transform="translate(210.27913 322.182437)scale(0.1 -0.1)">
       <defs>
        <path d="M 33.015625 40.375 
Q 26.375 40.375 22.484375 35.828125 
Q 18.609375 31.296875 18.609375 23.390625 
Q 18.609375 15.53125 22.484375 10.953125 
Q 26.375 6.390625 33.015625 6.390625 
Q 39.65625 6.390625 43.53125 10.953125 
Q 47.40625 15.53125 47.40625 23.390625 
Q 47.40625 31.296875 43.53125 35.828125 
Q 39.65625 40.375 33.015625 40.375 
z
M 52.59375 71.296875 
L 52.59375 62.3125 
Q 48.875 64.0625 45.09375 64.984375 
Q 41.3125 65.921875 37.59375 65.921875 
Q 27.828125 65.921875 22.671875 59.328125 
Q 17.53125 52.734375 16.796875 39.40625 
Q 19.671875 43.65625 24.015625 45.921875 
Q 28.375 48.1875 33.59375 48.1875 
Q 44.578125 48.1875 50.953125 41.515625 
Q 57.328125 34.859375 57.328125 23.390625 
Q 57.328125 12.15625 50.6875 5.359375 
Q 44.046875 -1.421875 33.015625 -1.421875 
Q 20.359375 -1.421875 13.671875 8.265625 
Q 6.984375 17.96875 6.984375 36.375 
Q 6.984375 53.65625 15.1875 63.9375 
Q 23.390625 74.21875 37.203125 74.21875 
Q 40.921875 74.21875 44.703125 73.484375 
Q 48.484375 72.75 52.59375 71.296875 
z
" id="DejaVuSans-54"/>
       </defs>
       <use xlink:href="#DejaVuSans-54"/>
       <use x="63.623047" xlink:href="#DejaVuSans-48"/>
      </g>
     </g>
    </g>
    <g id="xtick_5">
     <g id="line2d_5">
      <g>
       <use style="stroke:#000000;stroke-width:0.8;" x="269.139783" xlink:href="#mfb34837403" y="307.584"/>
      </g>
     </g>
     <g id="text_5">
      <!-- 80 -->
      <g transform="translate(262.777283 322.182437)scale(0.1 -0.1)">
       <defs>
        <path d="M 31.78125 34.625 
Q 24.75 34.625 20.71875 30.859375 
Q 16.703125 27.09375 16.703125 20.515625 
Q 16.703125 13.921875 20.71875 10.15625 
Q 24.75 6.390625 31.78125 6.390625 
Q 38.8125 6.390625 42.859375 10.171875 
Q 46.921875 13.96875 46.921875 20.515625 
Q 46.921875 27.09375 42.890625 30.859375 
Q 38.875 34.625 31.78125 34.625 
z
M 21.921875 38.8125 
Q 15.578125 40.375 12.03125 44.71875 
Q 8.5 49.078125 8.5 55.328125 
Q 8.5 64.0625 14.71875 69.140625 
Q 20.953125 74.21875 31.78125 74.21875 
Q 42.671875 74.21875 48.875 69.140625 
Q 55.078125 64.0625 55.078125 55.328125 
Q 55.078125 49.078125 51.53125 44.71875 
Q 48 40.375 41.703125 38.8125 
Q 48.828125 37.15625 52.796875 32.3125 
Q 56.78125 27.484375 56.78125 20.515625 
Q 56.78125 9.90625 50.3125 4.234375 
Q 43.84375 -1.421875 31.78125 -1.421875 
Q 19.734375 -1.421875 13.25 4.234375 
Q 6.78125 9.90625 6.78125 20.515625 
Q 6.78125 27.484375 10.78125 32.3125 
Q 14.796875 37.15625 21.921875 38.8125 
z
M 18.3125 54.390625 
Q 18.3125 48.734375 21.84375 45.5625 
Q 25.390625 42.390625 31.78125 42.390625 
Q 38.140625 42.390625 41.71875 45.5625 
Q 45.3125 48.734375 45.3125 54.390625 
Q 45.3125 60.0625 41.71875 63.234375 
Q 38.140625 66.40625 31.78125 66.40625 
Q 25.390625 66.40625 21.84375 63.234375 
Q 18.3125 60.0625 18.3125 54.390625 
z
" id="DejaVuSans-56"/>
       </defs>
       <use xlink:href="#DejaVuSans-56"/>
       <use x="63.623047" xlink:href="#DejaVuSans-48"/>
      </g>
     </g>
    </g>
    <g id="xtick_6">
     <g id="line2d_6">
      <g>
       <use style="stroke:#000000;stroke-width:0.8;" x="321.637936" xlink:href="#mfb34837403" y="307.584"/>
      </g>
     </g>
     <g id="text_6">
      <!-- 100 -->
      <g transform="translate(312.094186 322.182437)scale(0.1 -0.1)">
       <defs>
        <path d="M 12.40625 8.296875 
L 28.515625 8.296875 
L 28.515625 63.921875 
L 10.984375 60.40625 
L 10.984375 69.390625 
L 28.421875 72.90625 
L 38.28125 72.90625 
L 38.28125 8.296875 
L 54.390625 8.296875 
L 54.390625 0 
L 12.40625 0 
z
" id="DejaVuSans-49"/>
       </defs>
       <use xlink:href="#DejaVuSans-49"/>
       <use x="63.623047" xlink:href="#DejaVuSans-48"/>
       <use x="127.246094" xlink:href="#DejaVuSans-48"/>
      </g>
     </g>
    </g>
    <g id="xtick_7">
     <g id="line2d_7">
      <g>
       <use style="stroke:#000000;stroke-width:0.8;" x="374.136088" xlink:href="#mfb34837403" y="307.584"/>
      </g>
     </g>
     <g id="text_7">
      <!-- 120 -->
      <g transform="translate(364.592338 322.182437)scale(0.1 -0.1)">
       <use xlink:href="#DejaVuSans-49"/>
       <use x="63.623047" xlink:href="#DejaVuSans-50"/>
       <use x="127.246094" xlink:href="#DejaVuSans-48"/>
      </g>
     </g>
    </g>
   </g>
   <g id="matplotlib.axis_2">
    <g id="ytick_1">
     <g id="line2d_8">
      <defs>
       <path d="M 0 0 
L -3.5 0 
" id="m3d79beb9c3" style="stroke:#000000;stroke-width:0.8;"/>
      </defs>
      <g>
       <use style="stroke:#000000;stroke-width:0.8;" x="57.6" xlink:href="#m3d79beb9c3" y="257.533757"/>
      </g>
     </g>
     <g id="text_8">
      <!-- 20 -->
      <g transform="translate(37.875 261.332975)scale(0.1 -0.1)">
       <use xlink:href="#DejaVuSans-50"/>
       <use x="63.623047" xlink:href="#DejaVuSans-48"/>
      </g>
     </g>
    </g>
    <g id="ytick_2">
     <g id="line2d_9">
      <g>
       <use style="stroke:#000000;stroke-width:0.8;" x="57.6" xlink:href="#m3d79beb9c3" y="205.035604"/>
      </g>
     </g>
     <g id="text_9">
      <!-- 40 -->
      <g transform="translate(37.875 208.834822)scale(0.1 -0.1)">
       <use xlink:href="#DejaVuSans-52"/>
       <use x="63.623047" xlink:href="#DejaVuSans-48"/>
      </g>
     </g>
    </g>
    <g id="ytick_3">
     <g id="line2d_10">
      <g>
       <use style="stroke:#000000;stroke-width:0.8;" x="57.6" xlink:href="#m3d79beb9c3" y="152.537451"/>
      </g>
     </g>
     <g id="text_10">
      <!-- 60 -->
      <g transform="translate(37.875 156.33667)scale(0.1 -0.1)">
       <use xlink:href="#DejaVuSans-54"/>
       <use x="63.623047" xlink:href="#DejaVuSans-48"/>
      </g>
     </g>
    </g>
    <g id="ytick_4">
     <g id="line2d_11">
      <g>
       <use style="stroke:#000000;stroke-width:0.8;" x="57.6" xlink:href="#m3d79beb9c3" y="100.039298"/>
      </g>
     </g>
     <g id="text_11">
      <!-- 80 -->
      <g transform="translate(37.875 103.838517)scale(0.1 -0.1)">
       <use xlink:href="#DejaVuSans-56"/>
       <use x="63.623047" xlink:href="#DejaVuSans-48"/>
      </g>
     </g>
    </g>
    <g id="ytick_5">
     <g id="line2d_12">
      <g>
       <use style="stroke:#000000;stroke-width:0.8;" x="57.6" xlink:href="#m3d79beb9c3" y="47.541145"/>
      </g>
     </g>
     <g id="text_12">
      <!-- 100 -->
      <g transform="translate(31.5125 51.340364)scale(0.1 -0.1)">
       <use xlink:href="#DejaVuSans-49"/>
       <use x="63.623047" xlink:href="#DejaVuSans-48"/>
       <use x="127.246094" xlink:href="#DejaVuSans-48"/>
      </g>
     </g>
    </g>
   </g>
   <g id="line2d_13">
    <path clip-path="url(#pa0af97cc67)" d="M 85.396247 283.782833 
L 84.965763 281.110677 
L 84.443406 275.803114 
L 84.32791 270.540174 
L 84.558902 265.316608 
L 85.073384 260.121916 
L 85.810983 254.950848 
L 87.202184 247.215245 
L 90.73531 229.14538 
L 93.037354 216.201961 
L 94.168689 211.083391 
L 95.55989 206.025194 
L 97.281829 201.056244 
L 99.337132 196.200165 
L 101.712673 191.48583 
L 104.395329 186.936866 
L 107.366724 182.584769 
L 110.61111 178.445289 
L 114.099613 174.513178 
L 117.798107 170.770059 
L 121.677721 167.205435 
L 125.701704 163.798305 
L 129.846434 160.543419 
L 134.109284 157.451278 
L 138.490254 154.54288 
L 142.994596 151.8366 
L 147.619683 149.356063 
L 152.368141 147.111767 
L 157.22947 145.106337 
L 162.185296 143.3319 
L 167.219869 141.788454 
L 172.317439 140.465501 
L 180.042542 138.824933 
L 190.33218 136.690883 
L 195.400877 135.375805 
L 200.380327 133.737862 
L 205.239031 131.729808 
L 209.963865 129.380516 
L 214.533829 126.724109 
L 218.925299 123.789462 
L 223.127777 120.608074 
L 227.15176 117.227193 
L 232.960681 111.90388 
L 246.289962 99.285949 
L 252.206503 94.112256 
L 256.27511 90.778624 
L 260.469713 87.560487 
L 264.80606 84.478845 
L 269.294652 81.622946 
L 273.943364 79.09516 
L 276.329405 77.984824 
L 278.757444 76.997859 
L 281.232732 76.142139 
L 283.750019 75.430789 
L 286.309304 74.876933 
L 288.907962 74.472697 
L 291.535495 74.218081 
L 294.181402 74.102585 
L 296.837808 74.12096 
L 299.499464 74.27058 
L 302.153246 74.54357 
L 304.791278 74.934681 
L 309.99122 76.042392 
L 315.044168 77.546464 
L 319.968494 79.370775 
L 324.795699 81.439202 
L 331.922324 84.822708 
L 343.679285 90.72875 
L 348.299123 93.232912 
L 352.819214 95.894569 
L 357.215934 98.760968 
L 361.452535 101.871483 
L 365.497517 105.241865 
L 369.324633 108.866862 
L 372.899757 112.751726 
L 376.194016 116.89383 
L 379.173286 121.287925 
L 381.795569 125.907763 
L 382.958403 128.291179 
L 384.013616 130.719218 
L 384.961208 133.186632 
L 385.790678 135.688169 
L 386.496779 138.221205 
L 387.074258 140.780489 
L 387.520493 143.363399 
L 387.824982 145.962057 
L 387.987726 148.576465 
L 387.998226 151.201373 
L 387.856481 153.83153 
L 387.549367 156.461688 
L 387.079508 159.08922 
L 386.436406 161.711503 
L 385.61481 164.320661 
L 384.60947 166.91407 
L 384.60947 166.91407 
" style="fill:none;stroke:#fea952;stroke-linecap:square;"/>
   </g>
   <g id="line2d_14">
    <path clip-path="url(#pa0af97cc67)" d="M 75.030271 285.452794 
L 74.538893 282.344626 
L 74.183241 279.269393 
L 73.952098 276.221094 
L 73.832727 270.234591 
L 74.098586 264.408851 
L 74.665213 258.739086 
L 75.456211 253.212763 
L 76.904034 245.168212 
L 80.387738 227.364928 
L 82.763165 214.037868 
L 84.005836 208.445463 
L 85.580338 202.761639 
L 87.546202 197.124347 
L 89.886189 191.626117 
L 92.582988 186.300169 
L 95.628685 181.158613 
L 99.001065 176.239851 
L 102.656977 171.59153 
L 106.540392 167.226173 
L 110.607583 163.119007 
L 114.817132 159.257192 
L 119.143913 155.59845 
L 123.602018 152.102476 
L 128.210396 148.765349 
L 132.974559 145.608713 
L 137.912472 142.648877 
L 143.012469 139.921243 
L 148.247325 137.454587 
L 153.574955 135.26323 
L 158.990964 133.329976 
L 164.466977 131.656138 
L 169.995473 130.225837 
L 178.011589 128.5236 
L 187.827759 126.49431 
L 192.30865 125.341844 
L 196.54241 123.964806 
L 200.724076 122.250492 
L 204.831169 120.220948 
L 208.828161 117.910052 
L 212.709408 115.327492 
L 216.461906 112.495836 
L 220.164471 109.390099 
L 225.706198 104.313444 
L 239.287631 91.462293 
L 245.495124 86.037628 
L 249.814519 82.50197 
L 254.291662 79.07085 
L 259.041754 75.703025 
L 264.098812 72.49905 
L 266.766466 70.989239 
L 269.513545 69.575761 
L 272.37561 68.258069 
L 275.32688 67.074478 
L 278.377496 66.038186 
L 281.5292 65.168713 
L 284.695437 64.502075 
L 287.895259 64.022019 
L 291.077614 63.728439 
L 294.254026 63.603206 
L 297.427094 63.637879 
L 300.573875 63.826065 
L 303.693077 64.157466 
L 306.76873 64.622944 
L 309.802994 65.213751 
L 312.797078 65.924616 
L 318.546333 67.648127 
L 324.006814 69.678808 
L 329.190998 71.903816 
L 336.563345 75.404473 
L 348.616479 81.46234 
L 353.53328 84.130944 
L 358.440562 87.026498 
L 363.303817 90.206442 
L 368.049842 93.703388 
L 372.585273 97.495513 
L 376.924337 101.622089 
L 380.989672 106.05878 
L 382.926887 108.412583 
L 384.768707 110.834381 
L 386.526975 113.336109 
L 388.19945 115.924101 
L 389.762966 118.571466 
L 391.232006 121.303862 
L 392.587962 124.106225 
L 393.81528 126.954962 
L 394.927248 129.882047 
L 395.904704 132.868819 
L 396.738913 135.910159 
L 397.420618 138.993009 
L 397.948781 142.141498 
L 398.304329 145.309728 
L 398.487273 148.534467 
L 398.482642 151.766401 
L 398.285257 155.049262 
L 397.885045 158.309926 
L 397.276952 161.590095 
L 396.451257 164.865073 
L 395.4046 168.115691 
L 394.39926 170.7091 
L 394.39926 170.7091 
" style="fill:none;stroke:#ffffff;stroke-linecap:square;"/>
   </g>
   <g id="line2d_15">
    <path clip-path="url(#pa0af97cc67)" d="M 95.762224 282.112872 
L 95.118306 277.628649 
L 94.837956 273.12575 
L 94.885216 268.547889 
L 95.219798 263.877133 
L 95.79697 259.116031 
L 97.02561 251.757029 
L 99.05166 241.560757 
L 101.082881 230.925833 
L 103.311542 218.366054 
L 104.331542 213.721319 
L 105.539442 209.288749 
L 107.017456 204.98814 
L 108.788075 200.774212 
L 110.842359 196.671492 
L 113.161973 192.715118 
L 115.732384 188.929687 
L 118.565243 185.299048 
L 121.658833 181.800182 
L 124.988632 178.421112 
L 128.53831 175.153678 
L 132.259496 171.998159 
L 136.090849 168.984362 
L 140.008171 166.137207 
L 144.005949 163.477048 
L 148.07672 161.024324 
L 152.226898 158.790882 
L 156.488957 156.768946 
L 160.883985 154.949444 
L 165.379628 153.333824 
L 169.97276 151.92077 
L 174.639406 150.705164 
L 182.073496 149.126267 
L 190.063936 147.509741 
L 195.644587 146.194116 
L 201.373128 144.51441 
L 204.218244 143.510919 
L 209.753986 141.209123 
L 215.096561 138.540083 
L 220.239497 135.538166 
L 225.141191 132.251432 
L 229.793647 128.720313 
L 234.139049 125.064287 
L 240.215164 119.494316 
L 253.292292 107.109606 
L 258.917883 102.186885 
L 264.678081 97.537236 
L 268.605158 94.622414 
L 272.538861 91.956376 
L 276.432177 89.631745 
L 280.283199 87.711578 
L 284.087968 86.246092 
L 285.970837 85.692865 
L 287.92317 85.251791 
L 289.920665 84.923376 
L 291.993376 84.707723 
L 296.248523 84.604041 
L 300.613416 84.929674 
L 305.008378 85.658326 
L 309.352557 86.753448 
L 313.729713 88.214005 
L 318.161783 89.990285 
L 322.66719 92.018547 
L 331.954702 96.548963 
L 338.742091 99.995161 
L 345.151751 103.532333 
L 349.188708 106.020556 
L 353.016968 108.654115 
L 356.656559 111.488219 
L 360.091769 114.518746 
L 363.296494 117.750778 
L 366.243008 121.164725 
L 368.9217 124.782648 
L 371.297761 128.571724 
L 373.328844 132.476133 
L 374.995167 136.491216 
L 376.254645 140.53225 
L 377.092204 144.585299 
L 377.48818 148.618463 
L 377.513809 150.636344 
L 377.427705 152.613799 
L 377.213688 154.613449 
L 376.882064 156.588346 
L 376.421555 158.557933 
L 375.82502 160.525631 
L 374.81968 163.11904 
L 374.81968 163.11904 
" style="fill:none;stroke:#ffffff;stroke-linecap:square;"/>
   </g>
   <g id="patch_3">
    <path d="M 57.6 307.584 
L 57.6 41.472 
" style="fill:none;stroke:#000000;stroke-linecap:square;stroke-linejoin:miter;stroke-width:0.8;"/>
   </g>
   <g id="patch_4">
    <path d="M 414.72 307.584 
L 414.72 41.472 
" style="fill:none;stroke:#000000;stroke-linecap:square;stroke-linejoin:miter;stroke-width:0.8;"/>
   </g>
   <g id="patch_5">
    <path d="M 57.6 307.584 
L 414.72 307.584 
" style="fill:none;stroke:#000000;stroke-linecap:square;stroke-linejoin:miter;stroke-width:0.8;"/>
   </g>
   <g id="patch_6">
    <path d="M 57.6 41.472 
L 414.72 41.472 
" style="fill:none;stroke:#000000;stroke-linecap:square;stroke-linejoin:miter;stroke-width:0.8;"/>
   </g>
  </g>
 </g>
 <defs>
  <clipPath id="pa0af97cc67">
   <rect height="266.112" width="357.12" x="57.6" y="41.472"/>
  </clipPath>
 </defs>
</svg>
