<?xml version="1.0" encoding="utf-8" standalone="no"?>
<!DOCTYPE svg PUBLIC "-//W3C//DTD SVG 1.1//EN"
  "http://www.w3.org/Graphics/SVG/1.1/DTD/svg11.dtd">
<!-- Created with matplotlib (https://matplotlib.org/) -->
<svg height="345.6pt" version="1.1" viewBox="0 0 460.8 345.6" width="460.8pt" xmlns="http://www.w3.org/2000/svg" xmlns:xlink="http://www.w3.org/1999/xlink">
 <metadata>
  <rdf:RDF xmlns:cc="http://creativecommons.org/ns#" xmlns:dc="http://purl.org/dc/elements/1.1/" xmlns:rdf="http://www.w3.org/1999/02/22-rdf-syntax-ns#">
   <cc:Work>
    <dc:type rdf:resource="http://purl.org/dc/dcmitype/StillImage"/>
    <dc:date>2021-01-22T11:33:12.221084</dc:date>
    <dc:format>image/svg+xml</dc:format>
    <dc:creator>
     <cc:Agent>
      <dc:title>Matplotlib v3.3.3, https://matplotlib.org/</dc:title>
     </cc:Agent>
    </dc:creator>
   </cc:Work>
  </rdf:RDF>
 </metadata>
 <defs>
  <style type="text/css">*{stroke-linecap:butt;stroke-linejoin:round;}</style>
 </defs>
 <g id="figure_1">
  <g id="patch_1">
   <path d="M 0 345.6 
L 460.8 345.6 
L 460.8 0 
L 0 0 
z
" style="fill:#ffffff;"/>
  </g>
  <g id="axes_1">
   <g id="patch_2">
    <path d="M 57.6 307.584 
L 414.72 307.584 
L 414.72 41.472 
L 57.6 41.472 
z
" style="fill:#7d9051;"/>
   </g>
   <g id="matplotlib.axis_1">
    <g id="xtick_1">
     <g id="line2d_1">
      <defs>
       <path d="M 0 0 
L 0 3.5 
" id="mae6dac2d10" style="stroke:#000000;stroke-width:0.8;"/>
      </defs>
      <g>
       <use style="stroke:#000000;stroke-width:0.8;" x="103.249098" xlink:href="#mae6dac2d10" y="307.584"/>
      </g>
     </g>
     <g id="text_1">
      <!-- 20 -->
      <g transform="translate(96.886598 322.182437)scale(0.1 -0.1)">
       <defs>
        <path d="M 19.1875 8.296875 
L 53.609375 8.296875 
L 53.609375 0 
L 7.328125 0 
L 7.328125 8.296875 
Q 12.9375 14.109375 22.625 23.890625 
Q 32.328125 33.6875 34.8125 36.53125 
Q 39.546875 41.84375 41.421875 45.53125 
Q 43.3125 49.21875 43.3125 52.78125 
Q 43.3125 58.59375 39.234375 62.25 
Q 35.15625 65.921875 28.609375 65.921875 
Q 23.96875 65.921875 18.8125 64.3125 
Q 13.671875 62.703125 7.8125 59.421875 
L 7.8125 69.390625 
Q 13.765625 71.78125 18.9375 73 
Q 24.125 74.21875 28.421875 74.21875 
Q 39.75 74.21875 46.484375 68.546875 
Q 53.21875 62.890625 53.21875 53.421875 
Q 53.21875 48.921875 51.53125 44.890625 
Q 49.859375 40.875 45.40625 35.40625 
Q 44.1875 33.984375 37.640625 27.21875 
Q 31.109375 20.453125 19.1875 8.296875 
z
" id="DejaVuSans-50"/>
        <path d="M 31.78125 66.40625 
Q 24.171875 66.40625 20.328125 58.90625 
Q 16.5 51.421875 16.5 36.375 
Q 16.5 21.390625 20.328125 13.890625 
Q 24.171875 6.390625 31.78125 6.390625 
Q 39.453125 6.390625 43.28125 13.890625 
Q 47.125 21.390625 47.125 36.375 
Q 47.125 51.421875 43.28125 58.90625 
Q 39.453125 66.40625 31.78125 66.40625 
z
M 31.78125 74.21875 
Q 44.046875 74.21875 50.515625 64.515625 
Q 56.984375 54.828125 56.984375 36.375 
Q 56.984375 17.96875 50.515625 8.265625 
Q 44.046875 -1.421875 31.78125 -1.421875 
Q 19.53125 -1.421875 13.0625 8.265625 
Q 6.59375 17.96875 6.59375 36.375 
Q 6.59375 54.828125 13.0625 64.515625 
Q 19.53125 74.21875 31.78125 74.21875 
z
" id="DejaVuSans-48"/>
       </defs>
       <use xlink:href="#DejaVuSans-50"/>
       <use x="63.623047" xlink:href="#DejaVuSans-48"/>
      </g>
     </g>
    </g>
    <g id="xtick_2">
     <g id="line2d_2">
      <g>
       <use style="stroke:#000000;stroke-width:0.8;" x="151.65598" xlink:href="#mae6dac2d10" y="307.584"/>
      </g>
     </g>
     <g id="text_2">
      <!-- 40 -->
      <g transform="translate(145.29348 322.182437)scale(0.1 -0.1)">
       <defs>
        <path d="M 37.796875 64.3125 
L 12.890625 25.390625 
L 37.796875 25.390625 
z
M 35.203125 72.90625 
L 47.609375 72.90625 
L 47.609375 25.390625 
L 58.015625 25.390625 
L 58.015625 17.1875 
L 47.609375 17.1875 
L 47.609375 0 
L 37.796875 0 
L 37.796875 17.1875 
L 4.890625 17.1875 
L 4.890625 26.703125 
z
" id="DejaVuSans-52"/>
       </defs>
       <use xlink:href="#DejaVuSans-52"/>
       <use x="63.623047" xlink:href="#DejaVuSans-48"/>
      </g>
     </g>
    </g>
    <g id="xtick_3">
     <g id="line2d_3">
      <g>
       <use style="stroke:#000000;stroke-width:0.8;" x="200.062861" xlink:href="#mae6dac2d10" y="307.584"/>
      </g>
     </g>
     <g id="text_3">
      <!-- 60 -->
      <g transform="translate(193.700361 322.182437)scale(0.1 -0.1)">
       <defs>
        <path d="M 33.015625 40.375 
Q 26.375 40.375 22.484375 35.828125 
Q 18.609375 31.296875 18.609375 23.390625 
Q 18.609375 15.53125 22.484375 10.953125 
Q 26.375 6.390625 33.015625 6.390625 
Q 39.65625 6.390625 43.53125 10.953125 
Q 47.40625 15.53125 47.40625 23.390625 
Q 47.40625 31.296875 43.53125 35.828125 
Q 39.65625 40.375 33.015625 40.375 
z
M 52.59375 71.296875 
L 52.59375 62.3125 
Q 48.875 64.0625 45.09375 64.984375 
Q 41.3125 65.921875 37.59375 65.921875 
Q 27.828125 65.921875 22.671875 59.328125 
Q 17.53125 52.734375 16.796875 39.40625 
Q 19.671875 43.65625 24.015625 45.921875 
Q 28.375 48.1875 33.59375 48.1875 
Q 44.578125 48.1875 50.953125 41.515625 
Q 57.328125 34.859375 57.328125 23.390625 
Q 57.328125 12.15625 50.6875 5.359375 
Q 44.046875 -1.421875 33.015625 -1.421875 
Q 20.359375 -1.421875 13.671875 8.265625 
Q 6.984375 17.96875 6.984375 36.375 
Q 6.984375 53.65625 15.1875 63.9375 
Q 23.390625 74.21875 37.203125 74.21875 
Q 40.921875 74.21875 44.703125 73.484375 
Q 48.484375 72.75 52.59375 71.296875 
z
" id="DejaVuSans-54"/>
       </defs>
       <use xlink:href="#DejaVuSans-54"/>
       <use x="63.623047" xlink:href="#DejaVuSans-48"/>
      </g>
     </g>
    </g>
    <g id="xtick_4">
     <g id="line2d_4">
      <g>
       <use style="stroke:#000000;stroke-width:0.8;" x="248.469743" xlink:href="#mae6dac2d10" y="307.584"/>
      </g>
     </g>
     <g id="text_4">
      <!-- 80 -->
      <g transform="translate(242.107243 322.182437)scale(0.1 -0.1)">
       <defs>
        <path d="M 31.78125 34.625 
Q 24.75 34.625 20.71875 30.859375 
Q 16.703125 27.09375 16.703125 20.515625 
Q 16.703125 13.921875 20.71875 10.15625 
Q 24.75 6.390625 31.78125 6.390625 
Q 38.8125 6.390625 42.859375 10.171875 
Q 46.921875 13.96875 46.921875 20.515625 
Q 46.921875 27.09375 42.890625 30.859375 
Q 38.875 34.625 31.78125 34.625 
z
M 21.921875 38.8125 
Q 15.578125 40.375 12.03125 44.71875 
Q 8.5 49.078125 8.5 55.328125 
Q 8.5 64.0625 14.71875 69.140625 
Q 20.953125 74.21875 31.78125 74.21875 
Q 42.671875 74.21875 48.875 69.140625 
Q 55.078125 64.0625 55.078125 55.328125 
Q 55.078125 49.078125 51.53125 44.71875 
Q 48 40.375 41.703125 38.8125 
Q 48.828125 37.15625 52.796875 32.3125 
Q 56.78125 27.484375 56.78125 20.515625 
Q 56.78125 9.90625 50.3125 4.234375 
Q 43.84375 -1.421875 31.78125 -1.421875 
Q 19.734375 -1.421875 13.25 4.234375 
Q 6.78125 9.90625 6.78125 20.515625 
Q 6.78125 27.484375 10.78125 32.3125 
Q 14.796875 37.15625 21.921875 38.8125 
z
M 18.3125 54.390625 
Q 18.3125 48.734375 21.84375 45.5625 
Q 25.390625 42.390625 31.78125 42.390625 
Q 38.140625 42.390625 41.71875 45.5625 
Q 45.3125 48.734375 45.3125 54.390625 
Q 45.3125 60.0625 41.71875 63.234375 
Q 38.140625 66.40625 31.78125 66.40625 
Q 25.390625 66.40625 21.84375 63.234375 
Q 18.3125 60.0625 18.3125 54.390625 
z
" id="DejaVuSans-56"/>
       </defs>
       <use xlink:href="#DejaVuSans-56"/>
       <use x="63.623047" xlink:href="#DejaVuSans-48"/>
      </g>
     </g>
    </g>
    <g id="xtick_5">
     <g id="line2d_5">
      <g>
       <use style="stroke:#000000;stroke-width:0.8;" x="296.876624" xlink:href="#mae6dac2d10" y="307.584"/>
      </g>
     </g>
     <g id="text_5">
      <!-- 100 -->
      <g transform="translate(287.332874 322.182437)scale(0.1 -0.1)">
       <defs>
        <path d="M 12.40625 8.296875 
L 28.515625 8.296875 
L 28.515625 63.921875 
L 10.984375 60.40625 
L 10.984375 69.390625 
L 28.421875 72.90625 
L 38.28125 72.90625 
L 38.28125 8.296875 
L 54.390625 8.296875 
L 54.390625 0 
L 12.40625 0 
z
" id="DejaVuSans-49"/>
       </defs>
       <use xlink:href="#DejaVuSans-49"/>
       <use x="63.623047" xlink:href="#DejaVuSans-48"/>
       <use x="127.246094" xlink:href="#DejaVuSans-48"/>
      </g>
     </g>
    </g>
    <g id="xtick_6">
     <g id="line2d_6">
      <g>
       <use style="stroke:#000000;stroke-width:0.8;" x="345.283506" xlink:href="#mae6dac2d10" y="307.584"/>
      </g>
     </g>
     <g id="text_6">
      <!-- 120 -->
      <g transform="translate(335.739756 322.182437)scale(0.1 -0.1)">
       <use xlink:href="#DejaVuSans-49"/>
       <use x="63.623047" xlink:href="#DejaVuSans-50"/>
       <use x="127.246094" xlink:href="#DejaVuSans-48"/>
      </g>
     </g>
    </g>
    <g id="xtick_7">
     <g id="line2d_7">
      <g>
       <use style="stroke:#000000;stroke-width:0.8;" x="393.690387" xlink:href="#mae6dac2d10" y="307.584"/>
      </g>
     </g>
     <g id="text_7">
      <!-- 140 -->
      <g transform="translate(384.146637 322.182437)scale(0.1 -0.1)">
       <use xlink:href="#DejaVuSans-49"/>
       <use x="63.623047" xlink:href="#DejaVuSans-52"/>
       <use x="127.246094" xlink:href="#DejaVuSans-48"/>
      </g>
     </g>
    </g>
   </g>
   <g id="matplotlib.axis_2">
    <g id="ytick_1">
     <g id="line2d_8">
      <defs>
       <path d="M 0 0 
L -3.5 0 
" id="m4aa1b48b97" style="stroke:#000000;stroke-width:0.8;"/>
      </defs>
      <g>
       <use style="stroke:#000000;stroke-width:0.8;" x="57.6" xlink:href="#m4aa1b48b97" y="303.285847"/>
      </g>
     </g>
     <g id="text_8">
      <!-- −20 -->
      <g transform="translate(29.495313 307.085065)scale(0.1 -0.1)">
       <defs>
        <path d="M 10.59375 35.5 
L 73.1875 35.5 
L 73.1875 27.203125 
L 10.59375 27.203125 
z
" id="DejaVuSans-8722"/>
       </defs>
       <use xlink:href="#DejaVuSans-8722"/>
       <use x="83.789062" xlink:href="#DejaVuSans-50"/>
       <use x="147.412109" xlink:href="#DejaVuSans-48"/>
      </g>
     </g>
    </g>
    <g id="ytick_2">
     <g id="line2d_9">
      <g>
       <use style="stroke:#000000;stroke-width:0.8;" x="57.6" xlink:href="#m4aa1b48b97" y="254.878965"/>
      </g>
     </g>
     <g id="text_9">
      <!-- 0 -->
      <g transform="translate(44.2375 258.678184)scale(0.1 -0.1)">
       <use xlink:href="#DejaVuSans-48"/>
      </g>
     </g>
    </g>
    <g id="ytick_3">
     <g id="line2d_10">
      <g>
       <use style="stroke:#000000;stroke-width:0.8;" x="57.6" xlink:href="#m4aa1b48b97" y="206.472083"/>
      </g>
     </g>
     <g id="text_10">
      <!-- 20 -->
      <g transform="translate(37.875 210.271302)scale(0.1 -0.1)">
       <use xlink:href="#DejaVuSans-50"/>
       <use x="63.623047" xlink:href="#DejaVuSans-48"/>
      </g>
     </g>
    </g>
    <g id="ytick_4">
     <g id="line2d_11">
      <g>
       <use style="stroke:#000000;stroke-width:0.8;" x="57.6" xlink:href="#m4aa1b48b97" y="158.065202"/>
      </g>
     </g>
     <g id="text_11">
      <!-- 40 -->
      <g transform="translate(37.875 161.864421)scale(0.1 -0.1)">
       <use xlink:href="#DejaVuSans-52"/>
       <use x="63.623047" xlink:href="#DejaVuSans-48"/>
      </g>
     </g>
    </g>
    <g id="ytick_5">
     <g id="line2d_12">
      <g>
       <use style="stroke:#000000;stroke-width:0.8;" x="57.6" xlink:href="#m4aa1b48b97" y="109.65832"/>
      </g>
     </g>
     <g id="text_12">
      <!-- 60 -->
      <g transform="translate(37.875 113.457539)scale(0.1 -0.1)">
       <use xlink:href="#DejaVuSans-54"/>
       <use x="63.623047" xlink:href="#DejaVuSans-48"/>
      </g>
     </g>
    </g>
    <g id="ytick_6">
     <g id="line2d_13">
      <g>
       <use style="stroke:#000000;stroke-width:0.8;" x="57.6" xlink:href="#m4aa1b48b97" y="61.251439"/>
      </g>
     </g>
     <g id="text_13">
      <!-- 80 -->
      <g transform="translate(37.875 65.050658)scale(0.1 -0.1)">
       <use xlink:href="#DejaVuSans-56"/>
       <use x="63.623047" xlink:href="#DejaVuSans-48"/>
      </g>
     </g>
    </g>
   </g>
   <g id="line2d_14">
    <path clip-path="url(#p29905be2da)" d="M 79.045657 195.578115 
L 83.029544 198.22113 
L 86.892413 201.10376 
L 92.539076 205.714516 
L 101.917909 213.55159 
L 105.775937 216.521352 
L 109.757403 219.287805 
L 113.903453 221.775919 
L 116.050298 222.894118 
L 118.255231 223.913083 
L 120.518253 224.825553 
L 122.834522 225.626686 
L 125.194358 226.314064 
L 127.588078 226.880425 
L 130.010843 227.323348 
L 132.448129 227.637992 
L 134.892677 227.817098 
L 137.337224 227.863084 
L 139.77209 227.76385 
L 142.187594 227.519396 
L 144.576473 227.1273 
L 146.938729 226.597244 
L 149.26952 225.936491 
L 151.571268 225.16198 
L 156.082789 223.303156 
L 160.466032 221.115165 
L 164.720997 218.682719 
L 168.840423 216.08569 
L 172.843672 213.355542 
L 178.679121 209.05217 
L 184.371771 204.552751 
L 189.962765 199.900849 
L 195.386757 195.0529 
L 198.862371 191.681361 
L 202.190344 188.171862 
L 205.356154 184.521983 
L 209.889458 178.853537 
L 218.803585 167.364164 
L 223.465168 161.787691 
L 228.305856 156.373381 
L 233.32565 151.128496 
L 238.53181 146.072397 
L 242.12118 142.829136 
L 245.821886 139.702051 
L 249.64603 136.708086 
L 253.603293 133.866602 
L 257.700935 131.206644 
L 261.934117 128.781459 
L 266.297997 126.649136 
L 270.792576 124.860501 
L 275.413013 123.468804 
L 280.139945 122.466781 
L 284.946748 121.801187 
L 289.801959 121.409091 
L 294.678952 121.229985 
L 301.971449 121.234826 
L 309.2228 121.479281 
L 318.879972 122.062584 
L 328.554088 122.863718 
L 333.375413 123.451861 
L 338.153172 124.265097 
L 342.865582 125.380875 
L 347.4957 126.879068 
L 351.99754 128.78872 
L 354.183111 129.894817 
L 356.315434 131.100149 
L 358.387249 132.404714 
L 360.391294 133.803673 
L 362.320308 135.299445 
L 364.16703 136.887191 
L 365.926621 138.56691 
L 367.586977 140.336182 
L 369.15778 142.187745 
L 372.025888 146.113543 
L 374.552727 150.283796 
L 376.767342 154.642835 
L 378.686675 159.132574 
L 380.33977 163.704604 
L 381.760512 168.337142 
L 382.987626 173.022928 
L 384.548748 180.116957 
L 385.877517 187.264233 
L 387.000556 194.442973 
L 387.881562 201.653178 
L 388.486648 208.885166 
L 388.721421 213.718594 
L 388.806133 218.556861 
L 388.731102 223.40239 
L 388.486648 228.250339 
L 388.297861 230.675524 
L 388.297861 230.675524 
" style="fill:none;stroke:#fea952;stroke-linecap:square;"/>
   </g>
   <g id="line2d_15">
    <path clip-path="url(#p29905be2da)" d="M 84.258588 187.420026 
L 88.730227 190.39609 
L 92.920241 193.527855 
L 98.790536 198.322068 
L 107.902246 205.941284 
L 111.414991 208.651783 
L 114.899834 211.085095 
L 118.375772 213.189453 
L 121.875626 214.934119 
L 125.542013 216.331605 
L 129.329144 217.356889 
L 133.155561 217.982497 
L 136.942982 218.189738 
L 140.619535 217.96585 
L 144.298218 217.282914 
L 148.060432 216.139615 
L 151.899271 214.572336 
L 155.758666 212.655274 
L 159.635754 210.444434 
L 163.459019 208.037738 
L 167.20366 205.486659 
L 172.745405 201.40233 
L 178.247482 197.054609 
L 183.61699 192.589202 
L 188.712361 188.039948 
L 191.906094 184.947917 
L 194.944768 181.75075 
L 197.874421 178.377658 
L 202.220443 172.944624 
L 211.310183 161.234077 
L 216.174993 155.417259 
L 221.231776 149.76381 
L 226.489573 144.273053 
L 231.98285 138.942168 
L 235.807098 135.490103 
L 239.781042 132.136521 
L 243.919147 128.9022 
L 248.226398 125.815636 
L 252.760877 122.880488 
L 257.531411 120.159091 
L 262.534585 117.729171 
L 265.135511 116.640676 
L 267.792295 115.655755 
L 270.504415 114.782075 
L 273.218337 114.039464 
L 278.661287 112.898991 
L 284.04159 112.162217 
L 289.350588 111.738242 
L 294.563477 111.549298 
L 302.203735 111.556237 
L 309.707231 111.810032 
L 319.586242 112.407003 
L 329.633797 113.242737 
L 334.864977 113.885762 
L 340.215411 114.80591 
L 345.642198 116.106208 
L 348.376349 116.934554 
L 351.073076 117.882879 
L 353.747631 118.957146 
L 356.369223 120.150581 
L 358.947218 121.466749 
L 361.474054 122.90761 
L 363.928853 124.466221 
L 366.323779 126.152878 
L 368.63195 127.958313 
L 370.852015 129.884333 
L 372.986231 131.941886 
L 374.969547 134.073059 
L 376.845792 136.30357 
L 378.576773 138.581019 
L 380.201999 140.928926 
L 381.710723 143.323142 
L 384.404197 148.209147 
L 386.72022 153.205139 
L 388.689716 158.235948 
L 390.361836 163.276093 
L 391.78595 168.313454 
L 392.999495 173.308466 
L 394.531627 180.726007 
L 395.841497 188.154107 
L 396.931587 195.663377 
L 397.76427 203.257426 
L 398.29542 210.90367 
L 398.462822 216.039708 
L 398.467786 221.21168 
L 398.295934 226.403841 
L 397.950037 231.426891 
L 397.950037 231.426891 
" style="fill:none;stroke:#ffffff;stroke-linecap:square;"/>
   </g>
   <g id="line2d_16">
    <path clip-path="url(#p29905be2da)" d="M 73.832727 203.736203 
L 77.328861 206.046171 
L 80.864585 208.679666 
L 86.287615 213.106964 
L 95.933572 221.161896 
L 100.136884 224.390921 
L 104.614972 227.490515 
L 109.431133 230.362385 
L 111.988956 231.682437 
L 114.634837 232.892046 
L 117.353671 233.975114 
L 120.127032 234.921768 
L 122.965263 235.735326 
L 125.847012 236.403961 
L 128.771299 236.925044 
L 131.740697 237.293488 
L 134.710584 237.496762 
L 137.731466 237.53643 
L 140.74689 237.396026 
L 143.755653 237.072941 
L 146.696126 236.573787 
L 149.57924 235.911575 
L 152.357079 235.11233 
L 155.082103 234.184346 
L 160.266307 232.033976 
L 165.173398 229.575056 
L 169.80624 226.921005 
L 174.221827 224.133643 
L 178.483684 221.224425 
L 184.612838 216.702011 
L 190.496059 212.050893 
L 196.308541 207.212496 
L 200.157593 203.818911 
L 203.948433 200.267251 
L 207.637579 196.532743 
L 211.173299 192.629206 
L 214.462802 188.686022 
L 220.525393 180.897441 
L 226.296988 173.494251 
L 230.755343 168.158123 
L 235.379937 162.982953 
L 240.161727 157.983939 
L 245.08077 153.202626 
L 250.140848 148.698764 
L 253.614346 145.8667 
L 257.175019 143.189325 
L 260.801111 140.697477 
L 264.48551 138.433173 
L 268.196554 136.447474 
L 271.923599 134.774568 
L 275.669709 133.443155 
L 279.583568 132.430496 
L 283.71316 131.706023 
L 288.023077 131.232965 
L 292.498475 130.97324 
L 299.420668 130.883923 
L 306.392552 131.04759 
L 315.796709 131.5539 
L 325.210088 132.268347 
L 329.704614 132.733175 
L 334.010066 133.344822 
L 338.119748 134.160298 
L 342.011557 135.221315 
L 345.784335 136.606568 
L 349.419004 138.322885 
L 352.845644 140.343207 
L 356.008666 142.640578 
L 358.86701 145.191934 
L 361.469768 148.07192 
L 363.849776 151.298159 
L 365.999478 154.819319 
L 367.923156 158.581037 
L 369.625286 162.541428 
L 371.115407 166.644023 
L 372.419155 170.880389 
L 373.563735 175.240884 
L 375.046923 181.972857 
L 376.328652 188.860548 
L 377.405038 195.729469 
L 378.245865 202.592538 
L 378.820477 209.427557 
L 379.101037 216.233326 
L 379.110596 220.747572 
L 378.967802 225.246468 
L 378.645685 229.924157 
L 378.645685 229.924157 
" style="fill:none;stroke:#ffffff;stroke-linecap:square;"/>
   </g>
   <g id="patch_3">
    <path d="M 57.6 307.584 
L 57.6 41.472 
" style="fill:none;stroke:#000000;stroke-linecap:square;stroke-linejoin:miter;stroke-width:0.8;"/>
   </g>
   <g id="patch_4">
    <path d="M 414.72 307.584 
L 414.72 41.472 
" style="fill:none;stroke:#000000;stroke-linecap:square;stroke-linejoin:miter;stroke-width:0.8;"/>
   </g>
   <g id="patch_5">
    <path d="M 57.6 307.584 
L 414.72 307.584 
" style="fill:none;stroke:#000000;stroke-linecap:square;stroke-linejoin:miter;stroke-width:0.8;"/>
   </g>
   <g id="patch_6">
    <path d="M 57.6 41.472 
L 414.72 41.472 
" style="fill:none;stroke:#000000;stroke-linecap:square;stroke-linejoin:miter;stroke-width:0.8;"/>
   </g>
  </g>
 </g>
 <defs>
  <clipPath id="p29905be2da">
   <rect height="266.112" width="357.12" x="57.6" y="41.472"/>
  </clipPath>
 </defs>
</svg>
