<?xml version="1.0" encoding="utf-8" standalone="no"?>
<!DOCTYPE svg PUBLIC "-//W3C//DTD SVG 1.1//EN"
  "http://www.w3.org/Graphics/SVG/1.1/DTD/svg11.dtd">
<!-- Created with matplotlib (https://matplotlib.org/) -->
<svg height="345.6pt" version="1.1" viewBox="0 0 460.8 345.6" width="460.8pt" xmlns="http://www.w3.org/2000/svg" xmlns:xlink="http://www.w3.org/1999/xlink">
 <metadata>
  <rdf:RDF xmlns:cc="http://creativecommons.org/ns#" xmlns:dc="http://purl.org/dc/elements/1.1/" xmlns:rdf="http://www.w3.org/1999/02/22-rdf-syntax-ns#">
   <cc:Work>
    <dc:type rdf:resource="http://purl.org/dc/dcmitype/StillImage"/>
    <dc:date>2021-01-22T10:17:45.812687</dc:date>
    <dc:format>image/svg+xml</dc:format>
    <dc:creator>
     <cc:Agent>
      <dc:title>Matplotlib v3.3.3, https://matplotlib.org/</dc:title>
     </cc:Agent>
    </dc:creator>
   </cc:Work>
  </rdf:RDF>
 </metadata>
 <defs>
  <style type="text/css">*{stroke-linecap:butt;stroke-linejoin:round;}</style>
 </defs>
 <g id="figure_1">
  <g id="patch_1">
   <path d="M 0 345.6 
L 460.8 345.6 
L 460.8 0 
L 0 0 
z
" style="fill:#ffffff;"/>
  </g>
  <g id="axes_1">
   <g id="patch_2">
    <path d="M 57.6 307.584 
L 414.72 307.584 
L 414.72 41.472 
L 57.6 41.472 
z
" style="fill:#7d9051;"/>
   </g>
   <g id="matplotlib.axis_1">
    <g id="xtick_1">
     <g id="line2d_1">
      <defs>
       <path d="M 0 0 
L 0 3.5 
" id="md5c5b02b84" style="stroke:#000000;stroke-width:0.8;"/>
      </defs>
      <g>
       <use style="stroke:#000000;stroke-width:0.8;" x="75.497168" xlink:href="#md5c5b02b84" y="307.584"/>
      </g>
     </g>
     <g id="text_1">
      <!-- −20 -->
      <g transform="translate(64.944825 322.182437)scale(0.1 -0.1)">
       <defs>
        <path d="M 10.59375 35.5 
L 73.1875 35.5 
L 73.1875 27.203125 
L 10.59375 27.203125 
z
" id="DejaVuSans-8722"/>
        <path d="M 19.1875 8.296875 
L 53.609375 8.296875 
L 53.609375 0 
L 7.328125 0 
L 7.328125 8.296875 
Q 12.9375 14.109375 22.625 23.890625 
Q 32.328125 33.6875 34.8125 36.53125 
Q 39.546875 41.84375 41.421875 45.53125 
Q 43.3125 49.21875 43.3125 52.78125 
Q 43.3125 58.59375 39.234375 62.25 
Q 35.15625 65.921875 28.609375 65.921875 
Q 23.96875 65.921875 18.8125 64.3125 
Q 13.671875 62.703125 7.8125 59.421875 
L 7.8125 69.390625 
Q 13.765625 71.78125 18.9375 73 
Q 24.125 74.21875 28.421875 74.21875 
Q 39.75 74.21875 46.484375 68.546875 
Q 53.21875 62.890625 53.21875 53.421875 
Q 53.21875 48.921875 51.53125 44.890625 
Q 49.859375 40.875 45.40625 35.40625 
Q 44.1875 33.984375 37.640625 27.21875 
Q 31.109375 20.453125 19.1875 8.296875 
z
" id="DejaVuSans-50"/>
        <path d="M 31.78125 66.40625 
Q 24.171875 66.40625 20.328125 58.90625 
Q 16.5 51.421875 16.5 36.375 
Q 16.5 21.390625 20.328125 13.890625 
Q 24.171875 6.390625 31.78125 6.390625 
Q 39.453125 6.390625 43.28125 13.890625 
Q 47.125 21.390625 47.125 36.375 
Q 47.125 51.421875 43.28125 58.90625 
Q 39.453125 66.40625 31.78125 66.40625 
z
M 31.78125 74.21875 
Q 44.046875 74.21875 50.515625 64.515625 
Q 56.984375 54.828125 56.984375 36.375 
Q 56.984375 17.96875 50.515625 8.265625 
Q 44.046875 -1.421875 31.78125 -1.421875 
Q 19.53125 -1.421875 13.0625 8.265625 
Q 6.59375 17.96875 6.59375 36.375 
Q 6.59375 54.828125 13.0625 64.515625 
Q 19.53125 74.21875 31.78125 74.21875 
z
" id="DejaVuSans-48"/>
       </defs>
       <use xlink:href="#DejaVuSans-8722"/>
       <use x="83.789062" xlink:href="#DejaVuSans-50"/>
       <use x="147.412109" xlink:href="#DejaVuSans-48"/>
      </g>
     </g>
    </g>
    <g id="xtick_2">
     <g id="line2d_2">
      <g>
       <use style="stroke:#000000;stroke-width:0.8;" x="120.312399" xlink:href="#md5c5b02b84" y="307.584"/>
      </g>
     </g>
     <g id="text_2">
      <!-- 0 -->
      <g transform="translate(117.131149 322.182437)scale(0.1 -0.1)">
       <use xlink:href="#DejaVuSans-48"/>
      </g>
     </g>
    </g>
    <g id="xtick_3">
     <g id="line2d_3">
      <g>
       <use style="stroke:#000000;stroke-width:0.8;" x="165.12763" xlink:href="#md5c5b02b84" y="307.584"/>
      </g>
     </g>
     <g id="text_3">
      <!-- 20 -->
      <g transform="translate(158.76513 322.182437)scale(0.1 -0.1)">
       <use xlink:href="#DejaVuSans-50"/>
       <use x="63.623047" xlink:href="#DejaVuSans-48"/>
      </g>
     </g>
    </g>
    <g id="xtick_4">
     <g id="line2d_4">
      <g>
       <use style="stroke:#000000;stroke-width:0.8;" x="209.942861" xlink:href="#md5c5b02b84" y="307.584"/>
      </g>
     </g>
     <g id="text_4">
      <!-- 40 -->
      <g transform="translate(203.580361 322.182437)scale(0.1 -0.1)">
       <defs>
        <path d="M 37.796875 64.3125 
L 12.890625 25.390625 
L 37.796875 25.390625 
z
M 35.203125 72.90625 
L 47.609375 72.90625 
L 47.609375 25.390625 
L 58.015625 25.390625 
L 58.015625 17.1875 
L 47.609375 17.1875 
L 47.609375 0 
L 37.796875 0 
L 37.796875 17.1875 
L 4.890625 17.1875 
L 4.890625 26.703125 
z
" id="DejaVuSans-52"/>
       </defs>
       <use xlink:href="#DejaVuSans-52"/>
       <use x="63.623047" xlink:href="#DejaVuSans-48"/>
      </g>
     </g>
    </g>
    <g id="xtick_5">
     <g id="line2d_5">
      <g>
       <use style="stroke:#000000;stroke-width:0.8;" x="254.758093" xlink:href="#md5c5b02b84" y="307.584"/>
      </g>
     </g>
     <g id="text_5">
      <!-- 60 -->
      <g transform="translate(248.395593 322.182437)scale(0.1 -0.1)">
       <defs>
        <path d="M 33.015625 40.375 
Q 26.375 40.375 22.484375 35.828125 
Q 18.609375 31.296875 18.609375 23.390625 
Q 18.609375 15.53125 22.484375 10.953125 
Q 26.375 6.390625 33.015625 6.390625 
Q 39.65625 6.390625 43.53125 10.953125 
Q 47.40625 15.53125 47.40625 23.390625 
Q 47.40625 31.296875 43.53125 35.828125 
Q 39.65625 40.375 33.015625 40.375 
z
M 52.59375 71.296875 
L 52.59375 62.3125 
Q 48.875 64.0625 45.09375 64.984375 
Q 41.3125 65.921875 37.59375 65.921875 
Q 27.828125 65.921875 22.671875 59.328125 
Q 17.53125 52.734375 16.796875 39.40625 
Q 19.671875 43.65625 24.015625 45.921875 
Q 28.375 48.1875 33.59375 48.1875 
Q 44.578125 48.1875 50.953125 41.515625 
Q 57.328125 34.859375 57.328125 23.390625 
Q 57.328125 12.15625 50.6875 5.359375 
Q 44.046875 -1.421875 33.015625 -1.421875 
Q 20.359375 -1.421875 13.671875 8.265625 
Q 6.984375 17.96875 6.984375 36.375 
Q 6.984375 53.65625 15.1875 63.9375 
Q 23.390625 74.21875 37.203125 74.21875 
Q 40.921875 74.21875 44.703125 73.484375 
Q 48.484375 72.75 52.59375 71.296875 
z
" id="DejaVuSans-54"/>
       </defs>
       <use xlink:href="#DejaVuSans-54"/>
       <use x="63.623047" xlink:href="#DejaVuSans-48"/>
      </g>
     </g>
    </g>
    <g id="xtick_6">
     <g id="line2d_6">
      <g>
       <use style="stroke:#000000;stroke-width:0.8;" x="299.573324" xlink:href="#md5c5b02b84" y="307.584"/>
      </g>
     </g>
     <g id="text_6">
      <!-- 80 -->
      <g transform="translate(293.210824 322.182437)scale(0.1 -0.1)">
       <defs>
        <path d="M 31.78125 34.625 
Q 24.75 34.625 20.71875 30.859375 
Q 16.703125 27.09375 16.703125 20.515625 
Q 16.703125 13.921875 20.71875 10.15625 
Q 24.75 6.390625 31.78125 6.390625 
Q 38.8125 6.390625 42.859375 10.171875 
Q 46.921875 13.96875 46.921875 20.515625 
Q 46.921875 27.09375 42.890625 30.859375 
Q 38.875 34.625 31.78125 34.625 
z
M 21.921875 38.8125 
Q 15.578125 40.375 12.03125 44.71875 
Q 8.5 49.078125 8.5 55.328125 
Q 8.5 64.0625 14.71875 69.140625 
Q 20.953125 74.21875 31.78125 74.21875 
Q 42.671875 74.21875 48.875 69.140625 
Q 55.078125 64.0625 55.078125 55.328125 
Q 55.078125 49.078125 51.53125 44.71875 
Q 48 40.375 41.703125 38.8125 
Q 48.828125 37.15625 52.796875 32.3125 
Q 56.78125 27.484375 56.78125 20.515625 
Q 56.78125 9.90625 50.3125 4.234375 
Q 43.84375 -1.421875 31.78125 -1.421875 
Q 19.734375 -1.421875 13.25 4.234375 
Q 6.78125 9.90625 6.78125 20.515625 
Q 6.78125 27.484375 10.78125 32.3125 
Q 14.796875 37.15625 21.921875 38.8125 
z
M 18.3125 54.390625 
Q 18.3125 48.734375 21.84375 45.5625 
Q 25.390625 42.390625 31.78125 42.390625 
Q 38.140625 42.390625 41.71875 45.5625 
Q 45.3125 48.734375 45.3125 54.390625 
Q 45.3125 60.0625 41.71875 63.234375 
Q 38.140625 66.40625 31.78125 66.40625 
Q 25.390625 66.40625 21.84375 63.234375 
Q 18.3125 60.0625 18.3125 54.390625 
z
" id="DejaVuSans-56"/>
       </defs>
       <use xlink:href="#DejaVuSans-56"/>
       <use x="63.623047" xlink:href="#DejaVuSans-48"/>
      </g>
     </g>
    </g>
    <g id="xtick_7">
     <g id="line2d_7">
      <g>
       <use style="stroke:#000000;stroke-width:0.8;" x="344.388555" xlink:href="#md5c5b02b84" y="307.584"/>
      </g>
     </g>
     <g id="text_7">
      <!-- 100 -->
      <g transform="translate(334.844805 322.182437)scale(0.1 -0.1)">
       <defs>
        <path d="M 12.40625 8.296875 
L 28.515625 8.296875 
L 28.515625 63.921875 
L 10.984375 60.40625 
L 10.984375 69.390625 
L 28.421875 72.90625 
L 38.28125 72.90625 
L 38.28125 8.296875 
L 54.390625 8.296875 
L 54.390625 0 
L 12.40625 0 
z
" id="DejaVuSans-49"/>
       </defs>
       <use xlink:href="#DejaVuSans-49"/>
       <use x="63.623047" xlink:href="#DejaVuSans-48"/>
       <use x="127.246094" xlink:href="#DejaVuSans-48"/>
      </g>
     </g>
    </g>
    <g id="xtick_8">
     <g id="line2d_8">
      <g>
       <use style="stroke:#000000;stroke-width:0.8;" x="389.203786" xlink:href="#md5c5b02b84" y="307.584"/>
      </g>
     </g>
     <g id="text_8">
      <!-- 120 -->
      <g transform="translate(379.660036 322.182437)scale(0.1 -0.1)">
       <use xlink:href="#DejaVuSans-49"/>
       <use x="63.623047" xlink:href="#DejaVuSans-50"/>
       <use x="127.246094" xlink:href="#DejaVuSans-48"/>
      </g>
     </g>
    </g>
   </g>
   <g id="matplotlib.axis_2">
    <g id="ytick_1">
     <g id="line2d_9">
      <defs>
       <path d="M 0 0 
L -3.5 0 
" id="m1008a2d639" style="stroke:#000000;stroke-width:0.8;"/>
      </defs>
      <g>
       <use style="stroke:#000000;stroke-width:0.8;" x="57.6" xlink:href="#m1008a2d639" y="270.570067"/>
      </g>
     </g>
     <g id="text_9">
      <!-- 20 -->
      <g transform="translate(37.875 274.369285)scale(0.1 -0.1)">
       <use xlink:href="#DejaVuSans-50"/>
       <use x="63.623047" xlink:href="#DejaVuSans-48"/>
      </g>
     </g>
    </g>
    <g id="ytick_2">
     <g id="line2d_10">
      <g>
       <use style="stroke:#000000;stroke-width:0.8;" x="57.6" xlink:href="#m1008a2d639" y="225.754836"/>
      </g>
     </g>
     <g id="text_10">
      <!-- 40 -->
      <g transform="translate(37.875 229.554054)scale(0.1 -0.1)">
       <use xlink:href="#DejaVuSans-52"/>
       <use x="63.623047" xlink:href="#DejaVuSans-48"/>
      </g>
     </g>
    </g>
    <g id="ytick_3">
     <g id="line2d_11">
      <g>
       <use style="stroke:#000000;stroke-width:0.8;" x="57.6" xlink:href="#m1008a2d639" y="180.939605"/>
      </g>
     </g>
     <g id="text_11">
      <!-- 60 -->
      <g transform="translate(37.875 184.738823)scale(0.1 -0.1)">
       <use xlink:href="#DejaVuSans-54"/>
       <use x="63.623047" xlink:href="#DejaVuSans-48"/>
      </g>
     </g>
    </g>
    <g id="ytick_4">
     <g id="line2d_12">
      <g>
       <use style="stroke:#000000;stroke-width:0.8;" x="57.6" xlink:href="#m1008a2d639" y="136.124374"/>
      </g>
     </g>
     <g id="text_12">
      <!-- 80 -->
      <g transform="translate(37.875 139.923592)scale(0.1 -0.1)">
       <use xlink:href="#DejaVuSans-56"/>
       <use x="63.623047" xlink:href="#DejaVuSans-48"/>
      </g>
     </g>
    </g>
    <g id="ytick_5">
     <g id="line2d_13">
      <g>
       <use style="stroke:#000000;stroke-width:0.8;" x="57.6" xlink:href="#m1008a2d639" y="91.309143"/>
      </g>
     </g>
     <g id="text_13">
      <!-- 100 -->
      <g transform="translate(31.5125 95.108361)scale(0.1 -0.1)">
       <use xlink:href="#DejaVuSans-49"/>
       <use x="63.623047" xlink:href="#DejaVuSans-48"/>
       <use x="127.246094" xlink:href="#DejaVuSans-48"/>
      </g>
     </g>
    </g>
    <g id="ytick_6">
     <g id="line2d_14">
      <g>
       <use style="stroke:#000000;stroke-width:0.8;" x="57.6" xlink:href="#m1008a2d639" y="46.493911"/>
      </g>
     </g>
     <g id="text_14">
      <!-- 120 -->
      <g transform="translate(31.5125 50.29313)scale(0.1 -0.1)">
       <use xlink:href="#DejaVuSans-49"/>
       <use x="63.623047" xlink:href="#DejaVuSans-50"/>
       <use x="127.246094" xlink:href="#DejaVuSans-48"/>
      </g>
     </g>
    </g>
   </g>
   <g id="line2d_15">
    <path clip-path="url(#p9adc848ec4)" d="M 328.313331 292.977682 
L 328.963152 290.750365 
L 329.460601 288.502881 
L 329.805678 286.244194 
L 330.002865 283.978784 
L 330.058884 281.713374 
L 329.973736 279.450205 
L 329.756382 277.20048 
L 329.406823 274.966441 
L 328.929541 272.754809 
L 328.331257 270.570067 
L 327.611973 268.421176 
L 326.78065 266.310379 
L 325.83729 264.244397 
L 324.788613 262.232193 
L 323.636862 260.276008 
L 322.386517 258.380324 
L 321.04206 256.556344 
L 319.605732 254.806309 
L 318.084255 253.134701 
L 316.48211 251.550483 
L 314.801539 250.058135 
L 311.229765 247.328888 
L 307.422711 244.92231 
L 303.434156 242.80479 
L 299.313395 240.947199 
L 295.109727 239.313684 
L 290.859002 237.875115 
L 284.407849 235.990634 
L 275.720417 233.783484 
L 262.663499 230.541102 
L 256.194421 228.721604 
L 249.80825 226.646659 
L 232.872574 220.760178 
L 228.561349 219.496389 
L 224.207549 218.38273 
L 219.820138 217.423684 
L 215.408079 216.623732 
L 210.978093 215.989597 
L 204.314068 215.319609 
L 188.662349 213.954985 
L 184.167381 213.309646 
L 179.712747 212.422304 
L 175.358948 211.225738 
L 173.234706 210.488527 
L 171.15752 209.648242 
L 169.134112 208.693677 
L 167.168964 207.620352 
L 165.27328 206.417063 
L 163.447059 205.095014 
L 161.697024 203.658686 
L 160.027657 202.119283 
L 158.443439 200.485768 
L 156.948851 198.762622 
L 155.546134 196.96329 
L 154.242011 195.092255 
L 153.040963 193.162959 
L 151.94523 191.179885 
L 150.071954 187.083773 
L 148.575125 182.850974 
L 147.38528 178.51286 
L 146.439679 174.107523 
L 145.326021 167.447979 
L 144.443161 160.783954 
L 143.502041 151.879168 
L 142.545235 140.677601 
L 142.316678 136.182633 
L 142.276344 131.696629 
L 142.493698 127.22855 
L 143.035962 122.789602 
L 143.921063 118.390987 
L 145.11763 114.050632 
L 146.592051 109.786462 
L 148.308474 105.614164 
L 150.233288 101.551664 
L 152.350808 97.603442 
L 154.647589 93.760536 
L 157.119149 90.018464 
L 159.761006 86.370504 
L 162.561958 82.809934 
L 165.530967 79.368124 
L 168.688201 76.11902 
L 172.051584 73.132085 
L 175.643524 70.476782 
L 177.530246 69.298142 
L 179.479708 68.227058 
L 181.48743 67.26129 
L 185.657488 65.634497 
L 189.995602 64.386392 
L 194.459199 63.483366 
L 199.003464 62.894045 
L 203.58358 62.589302 
L 208.159215 62.533283 
L 212.681072 62.699099 
L 217.111058 63.050899 
L 221.399875 63.559551 
L 221.399875 63.559551 
" style="fill:none;stroke:#fea952;stroke-linecap:square;"/>
   </g>
   <g id="line2d_16">
    <path clip-path="url(#p9adc848ec4)" d="M 319.709001 290.467365 
L 320.211903 288.813399 
L 320.600362 287.149234 
L 320.876394 285.466966 
L 321.102175 282.050359 
L 320.901081 278.586064 
L 320.284778 275.122144 
L 319.272405 271.705656 
L 317.888896 268.386767 
L 316.154756 265.211014 
L 314.113749 262.242705 
L 311.78218 259.508087 
L 309.193661 257.050124 
L 306.286825 254.805755 
L 303.079698 252.762873 
L 299.633121 250.921953 
L 295.969275 249.263031 
L 292.149577 247.773809 
L 288.216173 246.439673 
L 282.10343 244.652381 
L 273.605645 242.493475 
L 260.333988 239.196134 
L 253.538345 237.282063 
L 246.847704 235.106645 
L 230.280667 229.340284 
L 224.237218 227.623415 
L 220.176351 226.657016 
L 216.094586 225.837386 
L 212.00844 225.169642 
L 207.878567 224.653776 
L 201.413056 224.07804 
L 189.897619 223.116139 
L 185.042422 222.514658 
L 180.045829 221.662118 
L 174.96971 220.459448 
L 172.420292 219.693353 
L 169.873486 218.797462 
L 167.333301 217.754508 
L 164.83774 216.559895 
L 162.365609 215.187649 
L 160.017373 213.677342 
L 157.760699 212.023326 
L 155.620875 210.247814 
L 153.593484 208.359284 
L 151.672487 206.358622 
L 149.880017 204.273319 
L 148.192992 202.088474 
L 146.632934 199.829148 
L 145.195836 197.497724 
L 143.887902 195.106163 
L 142.716869 192.678402 
L 141.683273 190.240707 
L 139.970201 185.359256 
L 138.643285 180.491171 
L 137.621208 175.710881 
L 136.452343 168.710531 
L 135.538719 161.807247 
L 134.578647 152.721336 
L 133.598183 141.212819 
L 133.355796 136.379576 
L 133.317902 131.409384 
L 133.57675 126.320675 
L 134.217634 121.185454 
L 135.242697 116.149968 
L 136.602149 111.253706 
L 138.256628 106.491477 
L 140.162316 101.875675 
L 142.283913 97.411177 
L 144.600921 93.100614 
L 147.116234 88.901019 
L 149.804557 84.838411 
L 152.659322 80.902207 
L 155.703962 77.038965 
L 159.005637 73.223512 
L 162.604676 69.5367 
L 166.548184 66.057568 
L 168.668276 64.422034 
L 170.894743 62.87512 
L 173.214252 61.442672 
L 175.59438 60.149903 
L 178.027346 58.993036 
L 180.495221 57.971791 
L 182.992157 57.076915 
L 185.517971 56.299111 
L 190.603629 55.076223 
L 195.716243 54.245336 
L 200.827542 53.757021 
L 205.884675 53.568 
L 210.856705 53.638702 
L 215.71063 53.926439 
L 220.410444 54.397503 
L 222.534686 54.668635 
L 222.534686 54.668635 
" style="fill:none;stroke:#ffffff;stroke-linecap:square;"/>
   </g>
   <g id="line2d_17">
    <path clip-path="url(#p9adc848ec4)" d="M 336.917662 295.488 
L 337.714401 292.687332 
L 338.32084 289.856529 
L 338.734963 287.021421 
L 338.963173 284.200354 
L 339.015594 281.376389 
L 338.895241 278.588266 
L 338.611683 275.814896 
L 338.168174 273.075693 
L 337.574303 270.387474 
L 336.830798 267.725069 
L 335.951541 265.136697 
L 334.933935 262.587458 
L 333.785684 260.102027 
L 332.512349 257.684655 
L 331.118968 255.341002 
L 329.601378 253.062244 
L 327.970371 250.869983 
L 326.234229 248.773133 
L 324.38633 246.761315 
L 322.433505 244.848461 
L 320.409417 243.066147 
L 318.319896 241.402971 
L 316.172706 239.852021 
L 311.765725 237.081747 
L 307.23519 234.687627 
L 302.657516 232.631367 
L 298.069876 230.853559 
L 293.501831 229.310557 
L 286.712268 227.328888 
L 277.835188 225.073494 
L 264.993011 221.886071 
L 258.850496 220.161145 
L 252.768797 218.186673 
L 235.464481 212.180072 
L 230.850747 210.83066 
L 226.193563 209.642481 
L 221.495175 208.618546 
L 216.762213 207.763568 
L 212.003426 207.085391 
L 205.033115 206.385452 
L 189.839402 205.069562 
L 185.783953 204.493587 
L 181.913742 203.733702 
L 178.297603 202.758123 
L 174.981738 201.541976 
L 171.972319 200.053056 
L 169.13342 198.166703 
L 166.46183 195.879282 
L 164.017685 193.251925 
L 161.851087 190.355362 
L 160.002558 187.253607 
L 158.460634 183.926839 
L 157.180049 180.342692 
L 156.127276 176.534549 
L 155.258151 172.504164 
L 154.199699 166.185428 
L 153.347602 159.760662 
L 152.425434 151.037 
L 151.492287 140.142384 
L 151.230356 133.975447 
L 151.292069 130.044045 
L 151.593336 126.270769 
L 152.189603 122.515795 
L 153.084316 118.73528 
L 154.245679 114.968665 
L 155.662231 111.213381 
L 157.299614 107.50501 
L 159.115448 103.895612 
L 161.111895 100.360426 
L 163.287977 96.897486 
L 165.622215 93.516841 
L 168.128167 90.192171 
L 170.739815 87.008258 
L 173.415004 84.063384 
L 176.160966 81.40771 
L 178.966331 79.094962 
L 181.846239 77.153611 
L 184.947515 75.529543 
L 188.322818 74.192079 
L 191.93996 73.136002 
L 195.758718 72.351705 
L 199.729699 71.827621 
L 203.811306 71.549454 
L 207.929242 71.493378 
L 212.061003 71.640671 
L 216.133403 71.960466 
L 220.265064 72.450468 
L 220.265064 72.450468 
" style="fill:none;stroke:#ffffff;stroke-linecap:square;"/>
   </g>
   <g id="patch_3">
    <path d="M 57.6 307.584 
L 57.6 41.472 
" style="fill:none;stroke:#000000;stroke-linecap:square;stroke-linejoin:miter;stroke-width:0.8;"/>
   </g>
   <g id="patch_4">
    <path d="M 414.72 307.584 
L 414.72 41.472 
" style="fill:none;stroke:#000000;stroke-linecap:square;stroke-linejoin:miter;stroke-width:0.8;"/>
   </g>
   <g id="patch_5">
    <path d="M 57.6 307.584 
L 414.72 307.584 
" style="fill:none;stroke:#000000;stroke-linecap:square;stroke-linejoin:miter;stroke-width:0.8;"/>
   </g>
   <g id="patch_6">
    <path d="M 57.6 41.472 
L 414.72 41.472 
" style="fill:none;stroke:#000000;stroke-linecap:square;stroke-linejoin:miter;stroke-width:0.8;"/>
   </g>
  </g>
 </g>
 <defs>
  <clipPath id="p9adc848ec4">
   <rect height="266.112" width="357.12" x="57.6" y="41.472"/>
  </clipPath>
 </defs>
</svg>
