<?xml version="1.0" encoding="utf-8" standalone="no"?>
<!DOCTYPE svg PUBLIC "-//W3C//DTD SVG 1.1//EN"
  "http://www.w3.org/Graphics/SVG/1.1/DTD/svg11.dtd">
<!-- Created with matplotlib (https://matplotlib.org/) -->
<svg height="345.6pt" version="1.1" viewBox="0 0 460.8 345.6" width="460.8pt" xmlns="http://www.w3.org/2000/svg" xmlns:xlink="http://www.w3.org/1999/xlink">
 <metadata>
  <rdf:RDF xmlns:cc="http://creativecommons.org/ns#" xmlns:dc="http://purl.org/dc/elements/1.1/" xmlns:rdf="http://www.w3.org/1999/02/22-rdf-syntax-ns#">
   <cc:Work>
    <dc:type rdf:resource="http://purl.org/dc/dcmitype/StillImage"/>
    <dc:date>2021-01-22T10:38:13.853570</dc:date>
    <dc:format>image/svg+xml</dc:format>
    <dc:creator>
     <cc:Agent>
      <dc:title>Matplotlib v3.3.3, https://matplotlib.org/</dc:title>
     </cc:Agent>
    </dc:creator>
   </cc:Work>
  </rdf:RDF>
 </metadata>
 <defs>
  <style type="text/css">*{stroke-linecap:butt;stroke-linejoin:round;}</style>
 </defs>
 <g id="figure_1">
  <g id="patch_1">
   <path d="M 0 345.6 
L 460.8 345.6 
L 460.8 0 
L 0 0 
z
" style="fill:#ffffff;"/>
  </g>
  <g id="axes_1">
   <g id="patch_2">
    <path d="M 57.6 307.584 
L 414.72 307.584 
L 414.72 41.472 
L 57.6 41.472 
z
" style="fill:#7d9051;"/>
   </g>
   <g id="matplotlib.axis_1">
    <g id="xtick_1">
     <g id="line2d_1">
      <defs>
       <path d="M 0 0 
L 0 3.5 
" id="mf1917b77ae" style="stroke:#000000;stroke-width:0.8;"/>
      </defs>
      <g>
       <use style="stroke:#000000;stroke-width:0.8;" x="86.673356" xlink:href="#mf1917b77ae" y="307.584"/>
      </g>
     </g>
     <g id="text_1">
      <!-- 0 -->
      <g transform="translate(83.492106 322.182437)scale(0.1 -0.1)">
       <defs>
        <path d="M 31.78125 66.40625 
Q 24.171875 66.40625 20.328125 58.90625 
Q 16.5 51.421875 16.5 36.375 
Q 16.5 21.390625 20.328125 13.890625 
Q 24.171875 6.390625 31.78125 6.390625 
Q 39.453125 6.390625 43.28125 13.890625 
Q 47.125 21.390625 47.125 36.375 
Q 47.125 51.421875 43.28125 58.90625 
Q 39.453125 66.40625 31.78125 66.40625 
z
M 31.78125 74.21875 
Q 44.046875 74.21875 50.515625 64.515625 
Q 56.984375 54.828125 56.984375 36.375 
Q 56.984375 17.96875 50.515625 8.265625 
Q 44.046875 -1.421875 31.78125 -1.421875 
Q 19.53125 -1.421875 13.0625 8.265625 
Q 6.59375 17.96875 6.59375 36.375 
Q 6.59375 54.828125 13.0625 64.515625 
Q 19.53125 74.21875 31.78125 74.21875 
z
" id="DejaVuSans-48"/>
       </defs>
       <use xlink:href="#DejaVuSans-48"/>
      </g>
     </g>
    </g>
    <g id="xtick_2">
     <g id="line2d_2">
      <g>
       <use style="stroke:#000000;stroke-width:0.8;" x="130.039691" xlink:href="#mf1917b77ae" y="307.584"/>
      </g>
     </g>
     <g id="text_2">
      <!-- 20 -->
      <g transform="translate(123.677191 322.182437)scale(0.1 -0.1)">
       <defs>
        <path d="M 19.1875 8.296875 
L 53.609375 8.296875 
L 53.609375 0 
L 7.328125 0 
L 7.328125 8.296875 
Q 12.9375 14.109375 22.625 23.890625 
Q 32.328125 33.6875 34.8125 36.53125 
Q 39.546875 41.84375 41.421875 45.53125 
Q 43.3125 49.21875 43.3125 52.78125 
Q 43.3125 58.59375 39.234375 62.25 
Q 35.15625 65.921875 28.609375 65.921875 
Q 23.96875 65.921875 18.8125 64.3125 
Q 13.671875 62.703125 7.8125 59.421875 
L 7.8125 69.390625 
Q 13.765625 71.78125 18.9375 73 
Q 24.125 74.21875 28.421875 74.21875 
Q 39.75 74.21875 46.484375 68.546875 
Q 53.21875 62.890625 53.21875 53.421875 
Q 53.21875 48.921875 51.53125 44.890625 
Q 49.859375 40.875 45.40625 35.40625 
Q 44.1875 33.984375 37.640625 27.21875 
Q 31.109375 20.453125 19.1875 8.296875 
z
" id="DejaVuSans-50"/>
       </defs>
       <use xlink:href="#DejaVuSans-50"/>
       <use x="63.623047" xlink:href="#DejaVuSans-48"/>
      </g>
     </g>
    </g>
    <g id="xtick_3">
     <g id="line2d_3">
      <g>
       <use style="stroke:#000000;stroke-width:0.8;" x="173.406027" xlink:href="#mf1917b77ae" y="307.584"/>
      </g>
     </g>
     <g id="text_3">
      <!-- 40 -->
      <g transform="translate(167.043527 322.182437)scale(0.1 -0.1)">
       <defs>
        <path d="M 37.796875 64.3125 
L 12.890625 25.390625 
L 37.796875 25.390625 
z
M 35.203125 72.90625 
L 47.609375 72.90625 
L 47.609375 25.390625 
L 58.015625 25.390625 
L 58.015625 17.1875 
L 47.609375 17.1875 
L 47.609375 0 
L 37.796875 0 
L 37.796875 17.1875 
L 4.890625 17.1875 
L 4.890625 26.703125 
z
" id="DejaVuSans-52"/>
       </defs>
       <use xlink:href="#DejaVuSans-52"/>
       <use x="63.623047" xlink:href="#DejaVuSans-48"/>
      </g>
     </g>
    </g>
    <g id="xtick_4">
     <g id="line2d_4">
      <g>
       <use style="stroke:#000000;stroke-width:0.8;" x="216.772362" xlink:href="#mf1917b77ae" y="307.584"/>
      </g>
     </g>
     <g id="text_4">
      <!-- 60 -->
      <g transform="translate(210.409862 322.182437)scale(0.1 -0.1)">
       <defs>
        <path d="M 33.015625 40.375 
Q 26.375 40.375 22.484375 35.828125 
Q 18.609375 31.296875 18.609375 23.390625 
Q 18.609375 15.53125 22.484375 10.953125 
Q 26.375 6.390625 33.015625 6.390625 
Q 39.65625 6.390625 43.53125 10.953125 
Q 47.40625 15.53125 47.40625 23.390625 
Q 47.40625 31.296875 43.53125 35.828125 
Q 39.65625 40.375 33.015625 40.375 
z
M 52.59375 71.296875 
L 52.59375 62.3125 
Q 48.875 64.0625 45.09375 64.984375 
Q 41.3125 65.921875 37.59375 65.921875 
Q 27.828125 65.921875 22.671875 59.328125 
Q 17.53125 52.734375 16.796875 39.40625 
Q 19.671875 43.65625 24.015625 45.921875 
Q 28.375 48.1875 33.59375 48.1875 
Q 44.578125 48.1875 50.953125 41.515625 
Q 57.328125 34.859375 57.328125 23.390625 
Q 57.328125 12.15625 50.6875 5.359375 
Q 44.046875 -1.421875 33.015625 -1.421875 
Q 20.359375 -1.421875 13.671875 8.265625 
Q 6.984375 17.96875 6.984375 36.375 
Q 6.984375 53.65625 15.1875 63.9375 
Q 23.390625 74.21875 37.203125 74.21875 
Q 40.921875 74.21875 44.703125 73.484375 
Q 48.484375 72.75 52.59375 71.296875 
z
" id="DejaVuSans-54"/>
       </defs>
       <use xlink:href="#DejaVuSans-54"/>
       <use x="63.623047" xlink:href="#DejaVuSans-48"/>
      </g>
     </g>
    </g>
    <g id="xtick_5">
     <g id="line2d_5">
      <g>
       <use style="stroke:#000000;stroke-width:0.8;" x="260.138698" xlink:href="#mf1917b77ae" y="307.584"/>
      </g>
     </g>
     <g id="text_5">
      <!-- 80 -->
      <g transform="translate(253.776198 322.182437)scale(0.1 -0.1)">
       <defs>
        <path d="M 31.78125 34.625 
Q 24.75 34.625 20.71875 30.859375 
Q 16.703125 27.09375 16.703125 20.515625 
Q 16.703125 13.921875 20.71875 10.15625 
Q 24.75 6.390625 31.78125 6.390625 
Q 38.8125 6.390625 42.859375 10.171875 
Q 46.921875 13.96875 46.921875 20.515625 
Q 46.921875 27.09375 42.890625 30.859375 
Q 38.875 34.625 31.78125 34.625 
z
M 21.921875 38.8125 
Q 15.578125 40.375 12.03125 44.71875 
Q 8.5 49.078125 8.5 55.328125 
Q 8.5 64.0625 14.71875 69.140625 
Q 20.953125 74.21875 31.78125 74.21875 
Q 42.671875 74.21875 48.875 69.140625 
Q 55.078125 64.0625 55.078125 55.328125 
Q 55.078125 49.078125 51.53125 44.71875 
Q 48 40.375 41.703125 38.8125 
Q 48.828125 37.15625 52.796875 32.3125 
Q 56.78125 27.484375 56.78125 20.515625 
Q 56.78125 9.90625 50.3125 4.234375 
Q 43.84375 -1.421875 31.78125 -1.421875 
Q 19.734375 -1.421875 13.25 4.234375 
Q 6.78125 9.90625 6.78125 20.515625 
Q 6.78125 27.484375 10.78125 32.3125 
Q 14.796875 37.15625 21.921875 38.8125 
z
M 18.3125 54.390625 
Q 18.3125 48.734375 21.84375 45.5625 
Q 25.390625 42.390625 31.78125 42.390625 
Q 38.140625 42.390625 41.71875 45.5625 
Q 45.3125 48.734375 45.3125 54.390625 
Q 45.3125 60.0625 41.71875 63.234375 
Q 38.140625 66.40625 31.78125 66.40625 
Q 25.390625 66.40625 21.84375 63.234375 
Q 18.3125 60.0625 18.3125 54.390625 
z
" id="DejaVuSans-56"/>
       </defs>
       <use xlink:href="#DejaVuSans-56"/>
       <use x="63.623047" xlink:href="#DejaVuSans-48"/>
      </g>
     </g>
    </g>
    <g id="xtick_6">
     <g id="line2d_6">
      <g>
       <use style="stroke:#000000;stroke-width:0.8;" x="303.505034" xlink:href="#mf1917b77ae" y="307.584"/>
      </g>
     </g>
     <g id="text_6">
      <!-- 100 -->
      <g transform="translate(293.961284 322.182437)scale(0.1 -0.1)">
       <defs>
        <path d="M 12.40625 8.296875 
L 28.515625 8.296875 
L 28.515625 63.921875 
L 10.984375 60.40625 
L 10.984375 69.390625 
L 28.421875 72.90625 
L 38.28125 72.90625 
L 38.28125 8.296875 
L 54.390625 8.296875 
L 54.390625 0 
L 12.40625 0 
z
" id="DejaVuSans-49"/>
       </defs>
       <use xlink:href="#DejaVuSans-49"/>
       <use x="63.623047" xlink:href="#DejaVuSans-48"/>
       <use x="127.246094" xlink:href="#DejaVuSans-48"/>
      </g>
     </g>
    </g>
    <g id="xtick_7">
     <g id="line2d_7">
      <g>
       <use style="stroke:#000000;stroke-width:0.8;" x="346.871369" xlink:href="#mf1917b77ae" y="307.584"/>
      </g>
     </g>
     <g id="text_7">
      <!-- 120 -->
      <g transform="translate(337.327619 322.182437)scale(0.1 -0.1)">
       <use xlink:href="#DejaVuSans-49"/>
       <use x="63.623047" xlink:href="#DejaVuSans-50"/>
       <use x="127.246094" xlink:href="#DejaVuSans-48"/>
      </g>
     </g>
    </g>
    <g id="xtick_8">
     <g id="line2d_8">
      <g>
       <use style="stroke:#000000;stroke-width:0.8;" x="390.237705" xlink:href="#mf1917b77ae" y="307.584"/>
      </g>
     </g>
     <g id="text_8">
      <!-- 140 -->
      <g transform="translate(380.693955 322.182437)scale(0.1 -0.1)">
       <use xlink:href="#DejaVuSans-49"/>
       <use x="63.623047" xlink:href="#DejaVuSans-52"/>
       <use x="127.246094" xlink:href="#DejaVuSans-48"/>
      </g>
     </g>
    </g>
   </g>
   <g id="matplotlib.axis_2">
    <g id="ytick_1">
     <g id="line2d_9">
      <defs>
       <path d="M 0 0 
L -3.5 0 
" id="m87ab7435eb" style="stroke:#000000;stroke-width:0.8;"/>
      </defs>
      <g>
       <use style="stroke:#000000;stroke-width:0.8;" x="57.6" xlink:href="#m87ab7435eb" y="272.703638"/>
      </g>
     </g>
     <g id="text_9">
      <!-- 20 -->
      <g transform="translate(37.875 276.502857)scale(0.1 -0.1)">
       <use xlink:href="#DejaVuSans-50"/>
       <use x="63.623047" xlink:href="#DejaVuSans-48"/>
      </g>
     </g>
    </g>
    <g id="ytick_2">
     <g id="line2d_10">
      <g>
       <use style="stroke:#000000;stroke-width:0.8;" x="57.6" xlink:href="#m87ab7435eb" y="229.337303"/>
      </g>
     </g>
     <g id="text_10">
      <!-- 40 -->
      <g transform="translate(37.875 233.136522)scale(0.1 -0.1)">
       <use xlink:href="#DejaVuSans-52"/>
       <use x="63.623047" xlink:href="#DejaVuSans-48"/>
      </g>
     </g>
    </g>
    <g id="ytick_3">
     <g id="line2d_11">
      <g>
       <use style="stroke:#000000;stroke-width:0.8;" x="57.6" xlink:href="#m87ab7435eb" y="185.970967"/>
      </g>
     </g>
     <g id="text_11">
      <!-- 60 -->
      <g transform="translate(37.875 189.770186)scale(0.1 -0.1)">
       <use xlink:href="#DejaVuSans-54"/>
       <use x="63.623047" xlink:href="#DejaVuSans-48"/>
      </g>
     </g>
    </g>
    <g id="ytick_4">
     <g id="line2d_12">
      <g>
       <use style="stroke:#000000;stroke-width:0.8;" x="57.6" xlink:href="#m87ab7435eb" y="142.604632"/>
      </g>
     </g>
     <g id="text_12">
      <!-- 80 -->
      <g transform="translate(37.875 146.40385)scale(0.1 -0.1)">
       <use xlink:href="#DejaVuSans-56"/>
       <use x="63.623047" xlink:href="#DejaVuSans-48"/>
      </g>
     </g>
    </g>
    <g id="ytick_5">
     <g id="line2d_13">
      <g>
       <use style="stroke:#000000;stroke-width:0.8;" x="57.6" xlink:href="#m87ab7435eb" y="99.238296"/>
      </g>
     </g>
     <g id="text_13">
      <!-- 100 -->
      <g transform="translate(31.5125 103.037515)scale(0.1 -0.1)">
       <use xlink:href="#DejaVuSans-49"/>
       <use x="63.623047" xlink:href="#DejaVuSans-48"/>
       <use x="127.246094" xlink:href="#DejaVuSans-48"/>
      </g>
     </g>
    </g>
    <g id="ytick_6">
     <g id="line2d_14">
      <g>
       <use style="stroke:#000000;stroke-width:0.8;" x="57.6" xlink:href="#m87ab7435eb" y="55.871961"/>
      </g>
     </g>
     <g id="text_14">
      <!-- 120 -->
      <g transform="translate(31.5125 59.671179)scale(0.1 -0.1)">
       <use xlink:href="#DejaVuSans-49"/>
       <use x="63.623047" xlink:href="#DejaVuSans-50"/>
       <use x="127.246094" xlink:href="#DejaVuSans-48"/>
      </g>
     </g>
    </g>
   </g>
   <g id="line2d_15">
    <path clip-path="url(#p32ca7c4791)" d="M 360.284577 294.386806 
L 359.814052 290.048004 
L 359.642755 285.711371 
L 359.707804 281.374737 
L 360.115448 274.869787 
L 361.505339 257.544936 
L 361.58123 253.219144 
L 361.425111 248.893352 
L 361.019636 244.576233 
L 360.390824 240.276461 
L 359.566864 236.00054 
L 358.575943 231.761481 
L 356.839121 225.486372 
L 354.861616 219.297996 
L 351.947399 211.123442 
L 348.796834 202.985749 
L 347.075191 198.980868 
L 345.190924 195.071393 
L 343.094161 191.292017 
L 340.739369 187.681769 
L 338.135221 184.238482 
L 335.34026 180.920957 
L 330.936409 176.092116 
L 323.535944 168.091027 
L 319.281706 163.164611 
L 315.261647 158.066899 
L 312.748568 154.543384 
L 307.980439 147.296869 
L 304.335499 141.904265 
L 301.729182 138.430622 
L 298.912539 135.115266 
L 295.881232 131.982048 
L 292.654776 129.048315 
L 289.248351 126.333583 
L 285.674965 123.857365 
L 281.95847 121.626167 
L 278.120549 119.605296 
L 272.209717 116.864543 
L 264.189114 113.501484 
L 250.183956 107.660038 
L 244.244936 104.999514 
L 238.377471 102.161187 
L 232.629263 99.101692 
L 228.88458 96.918197 
L 225.228798 94.602435 
L 219.89257 90.91196 
L 212.9236 85.738356 
L 204.17661 79.218227 
L 200.588046 76.744178 
L 196.908412 74.441425 
L 193.116026 72.372851 
L 189.184868 70.599168 
L 185.119274 69.126881 
L 180.949601 67.901782 
L 176.710542 66.874 
L 170.292324 65.583851 
L 161.740483 64.133248 
L 155.307087 63.261584 
L 148.812978 62.617594 
L 144.441651 62.342218 
L 140.055146 62.240307 
L 135.692493 62.368238 
L 131.379711 62.780218 
L 127.149325 63.534792 
L 123.036028 64.681832 
L 121.030335 65.423396 
L 119.068008 66.284218 
L 117.149048 67.270802 
L 115.277791 68.391822 
L 113.458573 69.651614 
L 111.695731 71.06102 
L 109.993603 72.624376 
L 108.356524 74.348188 
L 108.356524 74.348188 
" style="fill:none;stroke:#fea952;stroke-linecap:square;"/>
   </g>
   <g id="line2d_16">
    <path clip-path="url(#p32ca7c4791)" d="M 351.6815 295.488 
L 351.153873 290.524314 
L 350.969527 285.685351 
L 351.044512 280.958899 
L 351.474141 274.125891 
L 352.835731 257.293013 
L 352.909882 253.401607 
L 352.779687 249.587763 
L 352.423134 245.727628 
L 351.858011 241.831022 
L 351.104216 237.900318 
L 349.668157 231.971071 
L 347.942369 226.056509 
L 345.980755 220.136935 
L 343.076648 212.169981 
L 340.7979 206.33875 
L 339.216507 202.650562 
L 337.538522 199.153832 
L 335.739736 195.889623 
L 333.741603 192.805912 
L 331.444575 189.757614 
L 328.867325 186.693883 
L 324.60867 182.023834 
L 317.038211 173.836027 
L 312.563557 168.650232 
L 309.661971 165.034164 
L 306.871885 161.279609 
L 303.076602 155.666093 
L 297.327863 147.014902 
L 295.032277 143.942157 
L 292.580227 141.042102 
L 289.940916 138.301716 
L 287.14142 135.743721 
L 284.190774 133.379608 
L 281.094529 131.222497 
L 277.828377 129.252955 
L 274.342586 127.412508 
L 268.779599 124.830712 
L 260.896359 121.525406 
L 246.705727 115.605319 
L 240.557721 112.849992 
L 234.412334 109.875022 
L 228.326117 106.632197 
L 224.312785 104.288696 
L 220.399678 101.806959 
L 214.794815 97.928972 
L 207.690671 92.655148 
L 199.186056 86.311882 
L 195.891355 84.035725 
L 192.621197 81.981011 
L 189.38439 80.202312 
L 186.087096 78.700364 
L 182.564329 77.415296 
L 178.825716 76.310984 
L 174.902063 75.356627 
L 168.734711 74.116108 
L 160.479826 72.714408 
L 154.335962 71.880313 
L 148.193811 71.268732 
L 142.144375 70.938983 
L 138.249222 70.937782 
L 134.509937 71.152512 
L 130.961988 71.615118 
L 127.622765 72.346247 
L 124.514569 73.366045 
L 121.606335 74.711108 
L 118.874687 76.425923 
L 117.562733 77.448809 
L 116.282704 78.597044 
L 114.645625 80.320856 
L 114.645625 80.320856 
" style="fill:none;stroke:#ffffff;stroke-linecap:square;"/>
   </g>
   <g id="line2d_17">
    <path clip-path="url(#p32ca7c4791)" d="M 368.887654 293.285612 
L 368.47423 289.571694 
L 368.315983 285.73739 
L 368.371097 281.790575 
L 368.756755 275.613683 
L 370.061923 260.134245 
L 370.24133 255.433151 
L 370.197637 250.612075 
L 369.875193 245.806352 
L 369.297468 241.064614 
L 368.500008 236.406627 
L 367.517689 231.826973 
L 365.771735 225.126943 
L 363.775421 218.618648 
L 361.595168 212.259664 
L 358.485689 203.892102 
L 355.890092 197.475861 
L 353.922088 193.150598 
L 351.685634 188.828892 
L 349.12345 184.586822 
L 346.300333 180.602487 
L 343.331 176.910105 
L 338.770656 171.778988 
L 328.659335 160.792473 
L 324.715268 156.107487 
L 322.268505 152.955196 
L 319.939706 149.694353 
L 315.226235 142.529898 
L 311.343134 136.793629 
L 308.426087 132.919086 
L 305.24485 129.188429 
L 301.821548 125.662379 
L 298.168133 122.352909 
L 294.305927 119.287557 
L 290.2554 116.492233 
L 286.088562 113.999379 
L 281.898512 111.798084 
L 277.71764 109.82096 
L 271.52197 107.145474 
L 251.743637 98.875214 
L 246.052841 96.266957 
L 240.517142 93.509946 
L 235.181417 90.57215 
L 231.756169 88.494914 
L 226.686777 85.102649 
L 219.884338 80.126054 
L 209.167164 72.124573 
L 205.284737 69.452631 
L 201.195628 66.90184 
L 196.847662 64.543391 
L 192.28264 62.497972 
L 187.674219 60.838466 
L 183.073486 59.49258 
L 178.519021 58.391373 
L 171.849937 57.051595 
L 165.216865 55.897793 
L 158.524192 54.921064 
L 151.728751 54.16251 
L 144.741437 53.674133 
L 139.926094 53.568 
L 135.02596 53.72062 
L 130.043158 54.210551 
L 127.543197 54.608822 
L 125.037468 55.122562 
L 122.530063 55.764129 
L 120.028261 56.54679 
L 117.546101 57.480747 
L 115.102292 58.570681 
L 112.691761 59.830496 
L 110.339997 61.261341 
L 108.042458 62.877304 
L 105.82873 64.67323 
L 103.704501 66.651708 
L 102.067422 68.375519 
L 102.067422 68.375519 
" style="fill:none;stroke:#ffffff;stroke-linecap:square;"/>
   </g>
   <g id="patch_3">
    <path d="M 57.6 307.584 
L 57.6 41.472 
" style="fill:none;stroke:#000000;stroke-linecap:square;stroke-linejoin:miter;stroke-width:0.8;"/>
   </g>
   <g id="patch_4">
    <path d="M 414.72 307.584 
L 414.72 41.472 
" style="fill:none;stroke:#000000;stroke-linecap:square;stroke-linejoin:miter;stroke-width:0.8;"/>
   </g>
   <g id="patch_5">
    <path d="M 57.6 307.584 
L 414.72 307.584 
" style="fill:none;stroke:#000000;stroke-linecap:square;stroke-linejoin:miter;stroke-width:0.8;"/>
   </g>
   <g id="patch_6">
    <path d="M 57.6 41.472 
L 414.72 41.472 
" style="fill:none;stroke:#000000;stroke-linecap:square;stroke-linejoin:miter;stroke-width:0.8;"/>
   </g>
  </g>
 </g>
 <defs>
  <clipPath id="p32ca7c4791">
   <rect height="266.112" width="357.12" x="57.6" y="41.472"/>
  </clipPath>
 </defs>
</svg>
