<?xml version="1.0" encoding="utf-8" standalone="no"?>
<!DOCTYPE svg PUBLIC "-//W3C//DTD SVG 1.1//EN"
  "http://www.w3.org/Graphics/SVG/1.1/DTD/svg11.dtd">
<!-- Created with matplotlib (https://matplotlib.org/) -->
<svg height="345.6pt" version="1.1" viewBox="0 0 460.8 345.6" width="460.8pt" xmlns="http://www.w3.org/2000/svg" xmlns:xlink="http://www.w3.org/1999/xlink">
 <metadata>
  <rdf:RDF xmlns:cc="http://creativecommons.org/ns#" xmlns:dc="http://purl.org/dc/elements/1.1/" xmlns:rdf="http://www.w3.org/1999/02/22-rdf-syntax-ns#">
   <cc:Work>
    <dc:type rdf:resource="http://purl.org/dc/dcmitype/StillImage"/>
    <dc:date>2021-01-25T15:01:54.223219</dc:date>
    <dc:format>image/svg+xml</dc:format>
    <dc:creator>
     <cc:Agent>
      <dc:title>Matplotlib v3.3.3, https://matplotlib.org/</dc:title>
     </cc:Agent>
    </dc:creator>
   </cc:Work>
  </rdf:RDF>
 </metadata>
 <defs>
  <style type="text/css">*{stroke-linecap:butt;stroke-linejoin:round;}</style>
 </defs>
 <g id="figure_1">
  <g id="patch_1">
   <path d="M 0 345.6 
L 460.8 345.6 
L 460.8 0 
L 0 0 
z
" style="fill:#ffffff;"/>
  </g>
  <g id="axes_1">
   <g id="patch_2">
    <path d="M 57.6 307.584 
L 414.72 307.584 
L 414.72 41.472 
L 57.6 41.472 
z
" style="fill:#7d9051;"/>
   </g>
   <g id="matplotlib.axis_1">
    <g id="xtick_1">
     <g id="line2d_1">
      <defs>
       <path d="M 0 0 
L 0 3.5 
" id="mce7c2b6947" style="stroke:#000000;stroke-width:0.8;"/>
      </defs>
      <g>
       <use style="stroke:#000000;stroke-width:0.8;" x="129.226232" xlink:href="#mce7c2b6947" y="307.584"/>
      </g>
     </g>
     <g id="text_1">
      <!-- 20 -->
      <g transform="translate(122.863732 322.182437)scale(0.1 -0.1)">
       <defs>
        <path d="M 19.1875 8.296875 
L 53.609375 8.296875 
L 53.609375 0 
L 7.328125 0 
L 7.328125 8.296875 
Q 12.9375 14.109375 22.625 23.890625 
Q 32.328125 33.6875 34.8125 36.53125 
Q 39.546875 41.84375 41.421875 45.53125 
Q 43.3125 49.21875 43.3125 52.78125 
Q 43.3125 58.59375 39.234375 62.25 
Q 35.15625 65.921875 28.609375 65.921875 
Q 23.96875 65.921875 18.8125 64.3125 
Q 13.671875 62.703125 7.8125 59.421875 
L 7.8125 69.390625 
Q 13.765625 71.78125 18.9375 73 
Q 24.125 74.21875 28.421875 74.21875 
Q 39.75 74.21875 46.484375 68.546875 
Q 53.21875 62.890625 53.21875 53.421875 
Q 53.21875 48.921875 51.53125 44.890625 
Q 49.859375 40.875 45.40625 35.40625 
Q 44.1875 33.984375 37.640625 27.21875 
Q 31.109375 20.453125 19.1875 8.296875 
z
" id="DejaVuSans-50"/>
        <path d="M 31.78125 66.40625 
Q 24.171875 66.40625 20.328125 58.90625 
Q 16.5 51.421875 16.5 36.375 
Q 16.5 21.390625 20.328125 13.890625 
Q 24.171875 6.390625 31.78125 6.390625 
Q 39.453125 6.390625 43.28125 13.890625 
Q 47.125 21.390625 47.125 36.375 
Q 47.125 51.421875 43.28125 58.90625 
Q 39.453125 66.40625 31.78125 66.40625 
z
M 31.78125 74.21875 
Q 44.046875 74.21875 50.515625 64.515625 
Q 56.984375 54.828125 56.984375 36.375 
Q 56.984375 17.96875 50.515625 8.265625 
Q 44.046875 -1.421875 31.78125 -1.421875 
Q 19.53125 -1.421875 13.0625 8.265625 
Q 6.59375 17.96875 6.59375 36.375 
Q 6.59375 54.828125 13.0625 64.515625 
Q 19.53125 74.21875 31.78125 74.21875 
z
" id="DejaVuSans-48"/>
       </defs>
       <use xlink:href="#DejaVuSans-50"/>
       <use x="63.623047" xlink:href="#DejaVuSans-48"/>
      </g>
     </g>
    </g>
    <g id="xtick_2">
     <g id="line2d_2">
      <g>
       <use style="stroke:#000000;stroke-width:0.8;" x="208.390574" xlink:href="#mce7c2b6947" y="307.584"/>
      </g>
     </g>
     <g id="text_2">
      <!-- 40 -->
      <g transform="translate(202.028074 322.182437)scale(0.1 -0.1)">
       <defs>
        <path d="M 37.796875 64.3125 
L 12.890625 25.390625 
L 37.796875 25.390625 
z
M 35.203125 72.90625 
L 47.609375 72.90625 
L 47.609375 25.390625 
L 58.015625 25.390625 
L 58.015625 17.1875 
L 47.609375 17.1875 
L 47.609375 0 
L 37.796875 0 
L 37.796875 17.1875 
L 4.890625 17.1875 
L 4.890625 26.703125 
z
" id="DejaVuSans-52"/>
       </defs>
       <use xlink:href="#DejaVuSans-52"/>
       <use x="63.623047" xlink:href="#DejaVuSans-48"/>
      </g>
     </g>
    </g>
    <g id="xtick_3">
     <g id="line2d_3">
      <g>
       <use style="stroke:#000000;stroke-width:0.8;" x="287.554916" xlink:href="#mce7c2b6947" y="307.584"/>
      </g>
     </g>
     <g id="text_3">
      <!-- 60 -->
      <g transform="translate(281.192416 322.182437)scale(0.1 -0.1)">
       <defs>
        <path d="M 33.015625 40.375 
Q 26.375 40.375 22.484375 35.828125 
Q 18.609375 31.296875 18.609375 23.390625 
Q 18.609375 15.53125 22.484375 10.953125 
Q 26.375 6.390625 33.015625 6.390625 
Q 39.65625 6.390625 43.53125 10.953125 
Q 47.40625 15.53125 47.40625 23.390625 
Q 47.40625 31.296875 43.53125 35.828125 
Q 39.65625 40.375 33.015625 40.375 
z
M 52.59375 71.296875 
L 52.59375 62.3125 
Q 48.875 64.0625 45.09375 64.984375 
Q 41.3125 65.921875 37.59375 65.921875 
Q 27.828125 65.921875 22.671875 59.328125 
Q 17.53125 52.734375 16.796875 39.40625 
Q 19.671875 43.65625 24.015625 45.921875 
Q 28.375 48.1875 33.59375 48.1875 
Q 44.578125 48.1875 50.953125 41.515625 
Q 57.328125 34.859375 57.328125 23.390625 
Q 57.328125 12.15625 50.6875 5.359375 
Q 44.046875 -1.421875 33.015625 -1.421875 
Q 20.359375 -1.421875 13.671875 8.265625 
Q 6.984375 17.96875 6.984375 36.375 
Q 6.984375 53.65625 15.1875 63.9375 
Q 23.390625 74.21875 37.203125 74.21875 
Q 40.921875 74.21875 44.703125 73.484375 
Q 48.484375 72.75 52.59375 71.296875 
z
" id="DejaVuSans-54"/>
       </defs>
       <use xlink:href="#DejaVuSans-54"/>
       <use x="63.623047" xlink:href="#DejaVuSans-48"/>
      </g>
     </g>
    </g>
    <g id="xtick_4">
     <g id="line2d_4">
      <g>
       <use style="stroke:#000000;stroke-width:0.8;" x="366.719258" xlink:href="#mce7c2b6947" y="307.584"/>
      </g>
     </g>
     <g id="text_4">
      <!-- 80 -->
      <g transform="translate(360.356758 322.182437)scale(0.1 -0.1)">
       <defs>
        <path d="M 31.78125 34.625 
Q 24.75 34.625 20.71875 30.859375 
Q 16.703125 27.09375 16.703125 20.515625 
Q 16.703125 13.921875 20.71875 10.15625 
Q 24.75 6.390625 31.78125 6.390625 
Q 38.8125 6.390625 42.859375 10.171875 
Q 46.921875 13.96875 46.921875 20.515625 
Q 46.921875 27.09375 42.890625 30.859375 
Q 38.875 34.625 31.78125 34.625 
z
M 21.921875 38.8125 
Q 15.578125 40.375 12.03125 44.71875 
Q 8.5 49.078125 8.5 55.328125 
Q 8.5 64.0625 14.71875 69.140625 
Q 20.953125 74.21875 31.78125 74.21875 
Q 42.671875 74.21875 48.875 69.140625 
Q 55.078125 64.0625 55.078125 55.328125 
Q 55.078125 49.078125 51.53125 44.71875 
Q 48 40.375 41.703125 38.8125 
Q 48.828125 37.15625 52.796875 32.3125 
Q 56.78125 27.484375 56.78125 20.515625 
Q 56.78125 9.90625 50.3125 4.234375 
Q 43.84375 -1.421875 31.78125 -1.421875 
Q 19.734375 -1.421875 13.25 4.234375 
Q 6.78125 9.90625 6.78125 20.515625 
Q 6.78125 27.484375 10.78125 32.3125 
Q 14.796875 37.15625 21.921875 38.8125 
z
M 18.3125 54.390625 
Q 18.3125 48.734375 21.84375 45.5625 
Q 25.390625 42.390625 31.78125 42.390625 
Q 38.140625 42.390625 41.71875 45.5625 
Q 45.3125 48.734375 45.3125 54.390625 
Q 45.3125 60.0625 41.71875 63.234375 
Q 38.140625 66.40625 31.78125 66.40625 
Q 25.390625 66.40625 21.84375 63.234375 
Q 18.3125 60.0625 18.3125 54.390625 
z
" id="DejaVuSans-56"/>
       </defs>
       <use xlink:href="#DejaVuSans-56"/>
       <use x="63.623047" xlink:href="#DejaVuSans-48"/>
      </g>
     </g>
    </g>
   </g>
   <g id="matplotlib.axis_2">
    <g id="ytick_1">
     <g id="line2d_5">
      <defs>
       <path d="M 0 0 
L -3.5 0 
" id="ma3887fb5b6" style="stroke:#000000;stroke-width:0.8;"/>
      </defs>
      <g>
       <use style="stroke:#000000;stroke-width:0.8;" x="57.6" xlink:href="#ma3887fb5b6" y="306.478678"/>
      </g>
     </g>
     <g id="text_5">
      <!-- 0 -->
      <g transform="translate(44.2375 310.277897)scale(0.1 -0.1)">
       <use xlink:href="#DejaVuSans-48"/>
      </g>
     </g>
    </g>
    <g id="ytick_2">
     <g id="line2d_6">
      <g>
       <use style="stroke:#000000;stroke-width:0.8;" x="57.6" xlink:href="#ma3887fb5b6" y="266.896507"/>
      </g>
     </g>
     <g id="text_6">
      <!-- 10 -->
      <g transform="translate(37.875 270.695726)scale(0.1 -0.1)">
       <defs>
        <path d="M 12.40625 8.296875 
L 28.515625 8.296875 
L 28.515625 63.921875 
L 10.984375 60.40625 
L 10.984375 69.390625 
L 28.421875 72.90625 
L 38.28125 72.90625 
L 38.28125 8.296875 
L 54.390625 8.296875 
L 54.390625 0 
L 12.40625 0 
z
" id="DejaVuSans-49"/>
       </defs>
       <use xlink:href="#DejaVuSans-49"/>
       <use x="63.623047" xlink:href="#DejaVuSans-48"/>
      </g>
     </g>
    </g>
    <g id="ytick_3">
     <g id="line2d_7">
      <g>
       <use style="stroke:#000000;stroke-width:0.8;" x="57.6" xlink:href="#ma3887fb5b6" y="227.314336"/>
      </g>
     </g>
     <g id="text_7">
      <!-- 20 -->
      <g transform="translate(37.875 231.113555)scale(0.1 -0.1)">
       <use xlink:href="#DejaVuSans-50"/>
       <use x="63.623047" xlink:href="#DejaVuSans-48"/>
      </g>
     </g>
    </g>
    <g id="ytick_4">
     <g id="line2d_8">
      <g>
       <use style="stroke:#000000;stroke-width:0.8;" x="57.6" xlink:href="#ma3887fb5b6" y="187.732165"/>
      </g>
     </g>
     <g id="text_8">
      <!-- 30 -->
      <g transform="translate(37.875 191.531384)scale(0.1 -0.1)">
       <defs>
        <path d="M 40.578125 39.3125 
Q 47.65625 37.796875 51.625 33 
Q 55.609375 28.21875 55.609375 21.1875 
Q 55.609375 10.40625 48.1875 4.484375 
Q 40.765625 -1.421875 27.09375 -1.421875 
Q 22.515625 -1.421875 17.65625 -0.515625 
Q 12.796875 0.390625 7.625 2.203125 
L 7.625 11.71875 
Q 11.71875 9.328125 16.59375 8.109375 
Q 21.484375 6.890625 26.8125 6.890625 
Q 36.078125 6.890625 40.9375 10.546875 
Q 45.796875 14.203125 45.796875 21.1875 
Q 45.796875 27.640625 41.28125 31.265625 
Q 36.765625 34.90625 28.71875 34.90625 
L 20.21875 34.90625 
L 20.21875 43.015625 
L 29.109375 43.015625 
Q 36.375 43.015625 40.234375 45.921875 
Q 44.09375 48.828125 44.09375 54.296875 
Q 44.09375 59.90625 40.109375 62.90625 
Q 36.140625 65.921875 28.71875 65.921875 
Q 24.65625 65.921875 20.015625 65.03125 
Q 15.375 64.15625 9.8125 62.3125 
L 9.8125 71.09375 
Q 15.4375 72.65625 20.34375 73.4375 
Q 25.25 74.21875 29.59375 74.21875 
Q 40.828125 74.21875 47.359375 69.109375 
Q 53.90625 64.015625 53.90625 55.328125 
Q 53.90625 49.265625 50.4375 45.09375 
Q 46.96875 40.921875 40.578125 39.3125 
z
" id="DejaVuSans-51"/>
       </defs>
       <use xlink:href="#DejaVuSans-51"/>
       <use x="63.623047" xlink:href="#DejaVuSans-48"/>
      </g>
     </g>
    </g>
    <g id="ytick_5">
     <g id="line2d_9">
      <g>
       <use style="stroke:#000000;stroke-width:0.8;" x="57.6" xlink:href="#ma3887fb5b6" y="148.149994"/>
      </g>
     </g>
     <g id="text_9">
      <!-- 40 -->
      <g transform="translate(37.875 151.949213)scale(0.1 -0.1)">
       <use xlink:href="#DejaVuSans-52"/>
       <use x="63.623047" xlink:href="#DejaVuSans-48"/>
      </g>
     </g>
    </g>
    <g id="ytick_6">
     <g id="line2d_10">
      <g>
       <use style="stroke:#000000;stroke-width:0.8;" x="57.6" xlink:href="#ma3887fb5b6" y="108.567823"/>
      </g>
     </g>
     <g id="text_10">
      <!-- 50 -->
      <g transform="translate(37.875 112.367042)scale(0.1 -0.1)">
       <defs>
        <path d="M 10.796875 72.90625 
L 49.515625 72.90625 
L 49.515625 64.59375 
L 19.828125 64.59375 
L 19.828125 46.734375 
Q 21.96875 47.46875 24.109375 47.828125 
Q 26.265625 48.1875 28.421875 48.1875 
Q 40.625 48.1875 47.75 41.5 
Q 54.890625 34.8125 54.890625 23.390625 
Q 54.890625 11.625 47.5625 5.09375 
Q 40.234375 -1.421875 26.90625 -1.421875 
Q 22.3125 -1.421875 17.546875 -0.640625 
Q 12.796875 0.140625 7.71875 1.703125 
L 7.71875 11.625 
Q 12.109375 9.234375 16.796875 8.0625 
Q 21.484375 6.890625 26.703125 6.890625 
Q 35.15625 6.890625 40.078125 11.328125 
Q 45.015625 15.765625 45.015625 23.390625 
Q 45.015625 31 40.078125 35.4375 
Q 35.15625 39.890625 26.703125 39.890625 
Q 22.75 39.890625 18.8125 39.015625 
Q 14.890625 38.140625 10.796875 36.28125 
z
" id="DejaVuSans-53"/>
       </defs>
       <use xlink:href="#DejaVuSans-53"/>
       <use x="63.623047" xlink:href="#DejaVuSans-48"/>
      </g>
     </g>
    </g>
    <g id="ytick_7">
     <g id="line2d_11">
      <g>
       <use style="stroke:#000000;stroke-width:0.8;" x="57.6" xlink:href="#ma3887fb5b6" y="68.985652"/>
      </g>
     </g>
     <g id="text_11">
      <!-- 60 -->
      <g transform="translate(37.875 72.784871)scale(0.1 -0.1)">
       <use xlink:href="#DejaVuSans-54"/>
       <use x="63.623047" xlink:href="#DejaVuSans-48"/>
      </g>
     </g>
    </g>
   </g>
   <g id="line2d_12">
    <path clip-path="url(#pd000a17783)" d="M 243.970988 214.992406 
L 243.123929 211.133145 
L 242.466865 207.222426 
L 241.999796 203.272125 
L 241.722721 199.290159 
L 241.63564 195.29236 
L 241.734595 191.286644 
L 242.019587 187.284887 
L 242.494573 183.298962 
L 243.155595 179.336787 
L 244.002654 175.410235 
L 245.035748 171.527224 
L 246.254879 167.707545 
L 247.660046 163.951197 
L 249.247291 160.274013 
L 251.020573 156.687868 
L 252.97989 153.204637 
L 255.117327 149.828278 
L 257.440801 146.578582 
L 259.946352 143.459507 
L 262.630023 140.482928 
L 265.495772 137.664677 
L 268.527767 135.008713 
L 271.71809 132.538786 
L 275.04695 130.258853 
L 278.506432 128.180789 
L 282.080702 126.324385 
L 285.757886 124.697558 
L 289.52215 123.31614 
L 293.365579 122.188048 
L 297.272339 121.333073 
L 301.226598 120.751215 
L 305.212523 120.446433 
L 309.222197 120.402892 
L 313.231871 120.612678 
L 317.22967 121.071831 
L 321.195804 121.768477 
L 325.122355 122.690742 
L 328.989533 123.834666 
L 332.781505 125.192335 
L 336.482438 126.751872 
L 340.076499 128.501404 
L 343.563688 130.440931 
L 346.940048 132.558577 
L 350.201618 134.846426 
L 353.344443 137.296563 
L 356.364562 139.905028 
L 359.261977 142.659947 
L 362.032729 145.553404 
L 364.67286 148.58144 
L 367.18237 151.732181 
L 369.553342 155.005626 
L 371.769943 158.381985 
L 373.828216 161.861258 
L 375.704411 165.43157 
L 377.390612 169.081046 
L 378.867027 172.805728 
L 380.121781 176.5977 
L 381.143001 180.441129 
L 381.914854 184.332057 
L 382.421506 188.266524 
L 382.65504 192.224741 
L 382.619416 196.198791 
L 382.32255 200.1768 
L 381.780274 204.138975 
L 380.992589 208.077401 
L 379.975327 211.976245 
L 378.736405 215.823632 
L 377.28374 219.599771 
L 375.629205 223.292787 
L 373.780718 226.890807 
L 371.750152 230.381954 
L 369.537509 233.754355 
L 367.15862 237.000093 
L 364.613487 240.111252 
L 361.917941 243.075957 
L 359.071983 245.890249 
L 356.087487 248.538296 
L 352.968412 251.020098 
L 349.722674 253.323781 
L 346.362148 255.437469 
L 342.890791 257.361162 
L 339.316521 259.094861 
L 335.655171 260.642524 
L 331.918614 262.016025 
L 328.110809 263.215365 
L 324.251547 264.252418 
L 320.344787 265.1351 
L 316.406361 265.863412 
L 312.448144 266.449229 
L 308.474094 266.896507 
L 304.500044 267.213164 
L 300.525994 267.403159 
L 296.555902 267.474407 
L 288.627593 267.284412 
L 280.719075 266.702554 
L 272.85014 265.772373 
L 265.020786 264.553243 
L 257.238932 263.088702 
L 249.496659 261.422293 
L 237.942623 258.651541 
L 218.788811 253.676062 
L 203.446761 249.785135 
L 195.728238 248.003937 
L 187.958258 246.388984 
L 172.378715 243.285742 
L 164.676025 241.445171 
L 160.872178 240.380411 
L 157.103955 239.181071 
L 153.38719 237.835277 
L 149.721881 236.31928 
L 146.115945 234.633079 
L 142.581257 232.78855 
L 139.121775 230.789651 
L 135.749374 228.640339 
L 132.47197 226.352489 
L 129.293522 223.926102 
L 126.221946 221.369094 
L 123.269116 218.689381 
L 120.442949 215.890921 
L 117.747403 212.981632 
L 115.17852 209.96547 
L 112.7363 206.854312 
L 110.412826 203.644198 
L 108.2081 200.350961 
L 106.114203 196.970644 
L 104.131136 193.519078 
L 102.247025 189.996265 
L 98.779626 182.760644 
L 97.188423 179.06367 
L 95.70805 175.315238 
L 94.346423 171.527224 
L 93.127292 167.703587 
L 92.062532 163.844325 
L 91.171933 159.957356 
L 90.467371 156.050595 
L 89.968635 152.128002 
L 89.687602 148.189576 
L 89.644061 144.247192 
L 89.849889 140.304808 
L 90.297167 136.37034 
L 90.981939 132.455663 
L 91.892329 128.572652 
L 93.024379 124.733182 
L 94.366214 120.945168 
L 95.909919 117.220486 
L 97.647576 113.571009 
L 99.575228 110.008614 
L 101.677041 106.541216 
L 103.949058 103.18069 
L 106.383361 99.93891 
L 108.972035 96.827751 
L 111.703205 93.859088 
L 114.572913 91.040838 
L 117.569283 88.384874 
L 120.688358 85.899114 
L 123.914305 83.59939 
L 127.247124 81.497576 
L 130.67494 79.597632 
L 130.67494 79.597632 
" style="fill:none;stroke:#fea952;stroke-linecap:square;"/>
   </g>
   <g id="line2d_13">
    <path clip-path="url(#pd000a17783)" d="M 228.506242 218.38672 
L 227.509915 213.756552 
L 226.743521 209.081499 
L 226.205118 204.371159 
L 225.893607 199.634952 
L 225.8076 194.901351 
L 225.941725 190.161929 
L 226.297952 185.411405 
L 226.87755 180.693524 
L 227.678759 175.998034 
L 228.702056 171.339434 
L 229.952517 166.713094 
L 231.425612 162.160243 
L 233.12358 157.676576 
L 235.054752 153.256069 
L 237.221032 148.925627 
L 239.602327 144.73584 
L 242.237834 140.619675 
L 245.097299 136.663054 
L 248.187209 132.857513 
L 251.528438 129.194237 
L 255.063153 125.75501 
L 258.835309 122.489289 
L 262.7714 119.475997 
L 266.894157 116.686392 
L 271.208755 114.130037 
L 275.674958 111.845222 
L 280.303214 109.833969 
L 285.063119 108.124143 
L 289.980743 106.721225 
L 294.967398 105.668879 
L 300.019466 104.964431 
L 305.040606 104.614498 
L 310.049438 104.59165 
L 315.038423 104.883212 
L 319.96876 105.477694 
L 324.816091 106.355066 
L 329.613409 107.508181 
L 334.326529 108.92842 
L 338.929746 110.601966 
L 343.412201 112.516069 
L 347.772286 114.664693 
L 351.976283 117.027953 
L 356.032266 119.59666 
L 359.936207 122.359733 
L 363.693529 125.314237 
L 367.274385 128.430905 
L 370.697354 131.709518 
L 373.966519 135.148387 
L 377.057475 138.717311 
L 380.005061 142.444645 
L 382.788821 146.316448 
L 385.396866 150.320552 
L 387.843726 154.496123 
L 390.077274 158.790746 
L 392.109328 163.246741 
L 393.898352 167.831897 
L 395.423708 172.531895 
L 396.673248 177.360358 
L 397.618059 182.309913 
L 398.226889 187.334007 
L 398.487273 192.366664 
L 398.40838 197.377072 
L 398.009183 202.323721 
L 397.305679 207.244056 
L 396.312581 212.074597 
L 395.046087 216.829277 
L 393.513544 221.508338 
L 391.732775 226.073186 
L 389.712241 230.527967 
L 387.466935 234.851158 
L 384.98808 239.067402 
L 382.307688 243.113962 
L 379.413279 247.025215 
L 376.328153 250.76237 
L 373.050663 254.333941 
L 369.58004 257.73341 
L 365.945572 260.927723 
L 362.132313 263.931436 
L 358.152355 266.726027 
L 354.036516 269.286071 
L 349.800575 271.606674 
L 345.481011 273.678372 
L 341.117734 275.503215 
L 336.675116 277.117529 
L 332.219623 278.505799 
L 327.740829 279.696013 
L 323.22386 280.704001 
L 318.724376 281.525677 
L 314.218949 282.182759 
L 309.731691 282.679351 
L 305.25613 283.027969 
L 300.810087 283.233478 
L 296.382099 283.306321 
L 292.004937 283.25293 
L 283.32575 282.814756 
L 274.756503 281.981972 
L 266.347741 280.81971 
L 258.087794 279.387329 
L 249.945962 277.736823 
L 241.935254 275.925649 
L 230.151782 273.008674 
L 196.09487 264.320646 
L 188.722852 262.69385 
L 164.66801 257.765292 
L 160.408187 256.691983 
L 156.070286 255.467543 
L 151.713555 254.068089 
L 147.33579 252.466076 
L 143.015188 250.661525 
L 138.791124 248.6697 
L 134.660166 246.497527 
L 130.612372 244.141421 
L 126.686665 241.622905 
L 122.864767 238.937455 
L 119.163737 236.094388 
L 115.581779 233.093708 
L 112.128873 229.939923 
L 108.828914 226.65168 
L 105.693871 223.247697 
L 102.724448 219.741759 
L 99.910521 216.137582 
L 97.256138 212.452221 
L 94.748315 208.688462 
L 92.385869 204.858138 
L 90.169652 200.986119 
L 88.063852 197.033121 
L 86.09571 193.052926 
L 84.236606 189.02006 
L 82.462376 184.879447 
L 80.808525 180.670971 
L 79.261749 176.336831 
L 77.864663 171.914507 
L 76.629581 167.380388 
L 75.590425 162.767395 
L 74.760946 158.047578 
L 74.175922 153.254919 
L 73.855699 148.364427 
L 73.832727 143.421701 
L 74.118348 138.516413 
L 74.701109 133.642212 
L 75.567073 128.841576 
L 76.705816 124.094979 
L 78.100193 119.446558 
L 79.739788 114.883206 
L 81.614761 110.414006 
L 83.722624 106.036063 
L 86.035616 101.801384 
L 88.56062 97.673341 
L 91.288331 93.67355 
L 94.212603 89.812096 
L 97.320137 86.108004 
L 100.609412 82.56274 
L 104.070653 79.192536 
L 107.70158 76.003107 
L 111.497665 73.006834 
L 115.468642 70.207209 
L 119.571584 67.649623 
L 122.9994 65.749679 
L 122.9994 65.749679 
" style="fill:none;stroke:#ffffff;stroke-linecap:square;"/>
   </g>
   <g id="line2d_14">
    <path clip-path="url(#pd000a17783)" d="M 259.435734 211.598093 
L 258.737944 208.509737 
L 258.19021 205.363353 
L 257.794474 202.173092 
L 257.551834 198.945366 
L 257.463679 195.683369 
L 257.527465 192.411359 
L 257.741221 189.158368 
L 258.111596 185.904399 
L 258.632431 182.675539 
L 259.303252 179.481037 
L 260.11898 176.341354 
L 261.084146 173.254847 
L 262.196513 170.225818 
L 263.439831 167.291957 
L 264.820113 164.45011 
L 266.357453 161.673435 
L 267.996821 159.036881 
L 269.784302 156.49411 
L 271.705495 154.0615 
L 273.731608 151.771618 
L 275.928392 149.574344 
L 278.220224 147.528138 
L 280.66478 145.601575 
L 283.199744 143.831313 
L 285.804109 142.231541 
L 288.486446 140.803548 
L 291.212557 139.561147 
L 293.981181 138.508137 
L 296.750416 137.654871 
L 299.577281 136.997267 
L 302.433731 136.537999 
L 305.384439 136.278368 
L 308.394955 136.214135 
L 311.425318 136.342143 
L 314.49058 136.665968 
L 317.575516 137.181888 
L 320.631301 137.873302 
L 323.652537 138.740913 
L 326.633264 139.782703 
L 329.552675 140.987676 
L 332.380712 142.338116 
L 335.151094 143.853909 
L 337.847829 145.520494 
L 340.46703 147.33312 
L 342.995357 149.278889 
L 345.45474 151.379151 
L 347.826601 153.610376 
L 350.098939 155.958421 
L 352.288245 158.445568 
L 354.359679 161.019716 
L 356.317862 163.694804 
L 358.143021 166.443418 
L 359.812707 169.226393 
L 361.331549 172.072394 
L 362.671896 174.915351 
L 363.835702 177.779559 
L 364.819855 180.663506 
L 365.612755 183.5219 
L 366.211648 186.3542 
L 366.616123 189.199042 
L 366.822808 192.082819 
L 366.830453 195.020511 
L 366.635917 198.029878 
L 366.25487 201.033894 
L 365.672597 204.080205 
L 364.904568 207.123212 
L 363.959267 210.138925 
L 362.834705 213.126355 
L 361.546169 216.057608 
L 360.094501 218.930456 
L 358.512225 221.696507 
L 356.76733 224.394748 
L 354.903962 226.974972 
L 352.898821 229.460134 
L 350.785219 231.817972 
L 348.563926 234.047088 
L 346.229403 236.148869 
L 343.804511 238.10876 
L 341.292993 239.921535 
L 338.68778 241.588866 
L 335.981008 243.11565 
L 333.152032 244.51135 
L 330.192607 245.781833 
L 327.162111 246.914522 
L 324.001995 247.924931 
L 320.762265 248.808823 
L 317.465714 249.5662 
L 314.088346 250.201148 
L 310.677338 250.715698 
L 307.216497 251.113663 
L 303.743957 251.398359 
L 296.729706 251.642492 
L 289.60735 251.481887 
L 282.411945 250.960448 
L 275.142349 250.106311 
L 267.839122 248.973233 
L 260.483914 247.591934 
L 253.05683 245.994885 
L 241.838528 243.305478 
L 222.781503 238.354896 
L 207.070465 234.372526 
L 199.045684 232.52252 
L 190.98745 230.848595 
L 175.890348 227.847214 
L 168.943863 226.198359 
L 165.67407 225.293279 
L 162.494356 224.294053 
L 159.438589 223.204478 
L 156.428573 221.977035 
L 153.440766 220.596459 
L 150.502348 219.079574 
L 147.631178 217.43788 
L 144.812083 215.657773 
L 142.079174 213.767523 
L 139.423307 211.757816 
L 136.862112 209.644479 
L 134.409359 207.438838 
L 132.056983 205.130163 
L 129.800934 202.715566 
L 127.632592 200.189182 
L 125.562079 197.571041 
L 123.569515 194.836174 
L 121.667884 192.01346 
L 119.842537 189.083149 
L 116.430197 182.95941 
L 113.322647 176.501229 
L 110.607575 169.959505 
L 109.431098 166.717618 
L 108.389922 163.492666 
L 107.495483 160.308262 
L 106.753442 157.147317 
L 106.173795 154.053613 
L 105.761348 151.001085 
L 105.519505 148.014726 
L 105.455395 145.072683 
L 105.581429 142.093202 
L 105.893226 139.098467 
L 106.396805 136.06975 
L 107.078841 133.050325 
L 107.948565 130.019806 
L 108.99264 127.00713 
L 110.205077 124.026966 
L 111.572529 121.105956 
L 113.11484 118.215845 
L 114.793463 115.409091 
L 116.609785 112.687829 
L 118.55412 110.065724 
L 120.623934 107.547498 
L 122.796998 105.155436 
L 125.075172 102.88914 
L 127.436986 100.766641 
L 129.879051 98.791394 
L 132.359968 96.99157 
L 134.922664 95.34553 
L 138.35048 93.445585 
L 138.35048 93.445585 
" style="fill:none;stroke:#ffffff;stroke-linecap:square;"/>
   </g>
   <g id="patch_3">
    <path d="M 57.6 307.584 
L 57.6 41.472 
" style="fill:none;stroke:#000000;stroke-linecap:square;stroke-linejoin:miter;stroke-width:0.8;"/>
   </g>
   <g id="patch_4">
    <path d="M 414.72 307.584 
L 414.72 41.472 
" style="fill:none;stroke:#000000;stroke-linecap:square;stroke-linejoin:miter;stroke-width:0.8;"/>
   </g>
   <g id="patch_5">
    <path d="M 57.6 307.584 
L 414.72 307.584 
" style="fill:none;stroke:#000000;stroke-linecap:square;stroke-linejoin:miter;stroke-width:0.8;"/>
   </g>
   <g id="patch_6">
    <path d="M 57.6 41.472 
L 414.72 41.472 
" style="fill:none;stroke:#000000;stroke-linecap:square;stroke-linejoin:miter;stroke-width:0.8;"/>
   </g>
  </g>
 </g>
 <defs>
  <clipPath id="pd000a17783">
   <rect height="266.112" width="357.12" x="57.6" y="41.472"/>
  </clipPath>
 </defs>
</svg>
