<?xml version="1.0" encoding="utf-8" standalone="no"?>
<!DOCTYPE svg PUBLIC "-//W3C//DTD SVG 1.1//EN"
  "http://www.w3.org/Graphics/SVG/1.1/DTD/svg11.dtd">
<!-- Created with matplotlib (https://matplotlib.org/) -->
<svg height="345.6pt" version="1.1" viewBox="0 0 460.8 345.6" width="460.8pt" xmlns="http://www.w3.org/2000/svg" xmlns:xlink="http://www.w3.org/1999/xlink">
 <metadata>
  <rdf:RDF xmlns:cc="http://creativecommons.org/ns#" xmlns:dc="http://purl.org/dc/elements/1.1/" xmlns:rdf="http://www.w3.org/1999/02/22-rdf-syntax-ns#">
   <cc:Work>
    <dc:type rdf:resource="http://purl.org/dc/dcmitype/StillImage"/>
    <dc:date>2021-01-23T12:48:15.463404</dc:date>
    <dc:format>image/svg+xml</dc:format>
    <dc:creator>
     <cc:Agent>
      <dc:title>Matplotlib v3.3.3, https://matplotlib.org/</dc:title>
     </cc:Agent>
    </dc:creator>
   </cc:Work>
  </rdf:RDF>
 </metadata>
 <defs>
  <style type="text/css">*{stroke-linecap:butt;stroke-linejoin:round;}</style>
 </defs>
 <g id="figure_1">
  <g id="patch_1">
   <path d="M 0 345.6 
L 460.8 345.6 
L 460.8 0 
L 0 0 
z
" style="fill:#ffffff;"/>
  </g>
  <g id="axes_1">
   <g id="patch_2">
    <path d="M 57.6 307.584 
L 414.72 307.584 
L 414.72 41.472 
L 57.6 41.472 
z
" style="fill:#7d9051;"/>
   </g>
   <g id="matplotlib.axis_1">
    <g id="xtick_1">
     <g id="line2d_1">
      <defs>
       <path d="M 0 0 
L 0 3.5 
" id="m7e9f458880" style="stroke:#000000;stroke-width:0.8;"/>
      </defs>
      <g>
       <use style="stroke:#000000;stroke-width:0.8;" x="72.099047" xlink:href="#m7e9f458880" y="307.584"/>
      </g>
     </g>
     <g id="text_1">
      <!-- −40 -->
      <g transform="translate(61.546703 322.182437)scale(0.1 -0.1)">
       <defs>
        <path d="M 10.59375 35.5 
L 73.1875 35.5 
L 73.1875 27.203125 
L 10.59375 27.203125 
z
" id="DejaVuSans-8722"/>
        <path d="M 37.796875 64.3125 
L 12.890625 25.390625 
L 37.796875 25.390625 
z
M 35.203125 72.90625 
L 47.609375 72.90625 
L 47.609375 25.390625 
L 58.015625 25.390625 
L 58.015625 17.1875 
L 47.609375 17.1875 
L 47.609375 0 
L 37.796875 0 
L 37.796875 17.1875 
L 4.890625 17.1875 
L 4.890625 26.703125 
z
" id="DejaVuSans-52"/>
        <path d="M 31.78125 66.40625 
Q 24.171875 66.40625 20.328125 58.90625 
Q 16.5 51.421875 16.5 36.375 
Q 16.5 21.390625 20.328125 13.890625 
Q 24.171875 6.390625 31.78125 6.390625 
Q 39.453125 6.390625 43.28125 13.890625 
Q 47.125 21.390625 47.125 36.375 
Q 47.125 51.421875 43.28125 58.90625 
Q 39.453125 66.40625 31.78125 66.40625 
z
M 31.78125 74.21875 
Q 44.046875 74.21875 50.515625 64.515625 
Q 56.984375 54.828125 56.984375 36.375 
Q 56.984375 17.96875 50.515625 8.265625 
Q 44.046875 -1.421875 31.78125 -1.421875 
Q 19.53125 -1.421875 13.0625 8.265625 
Q 6.59375 17.96875 6.59375 36.375 
Q 6.59375 54.828125 13.0625 64.515625 
Q 19.53125 74.21875 31.78125 74.21875 
z
" id="DejaVuSans-48"/>
       </defs>
       <use xlink:href="#DejaVuSans-8722"/>
       <use x="83.789062" xlink:href="#DejaVuSans-52"/>
       <use x="147.412109" xlink:href="#DejaVuSans-48"/>
      </g>
     </g>
    </g>
    <g id="xtick_2">
     <g id="line2d_2">
      <g>
       <use style="stroke:#000000;stroke-width:0.8;" x="116.460377" xlink:href="#m7e9f458880" y="307.584"/>
      </g>
     </g>
     <g id="text_2">
      <!-- −20 -->
      <g transform="translate(105.908033 322.182437)scale(0.1 -0.1)">
       <defs>
        <path d="M 19.1875 8.296875 
L 53.609375 8.296875 
L 53.609375 0 
L 7.328125 0 
L 7.328125 8.296875 
Q 12.9375 14.109375 22.625 23.890625 
Q 32.328125 33.6875 34.8125 36.53125 
Q 39.546875 41.84375 41.421875 45.53125 
Q 43.3125 49.21875 43.3125 52.78125 
Q 43.3125 58.59375 39.234375 62.25 
Q 35.15625 65.921875 28.609375 65.921875 
Q 23.96875 65.921875 18.8125 64.3125 
Q 13.671875 62.703125 7.8125 59.421875 
L 7.8125 69.390625 
Q 13.765625 71.78125 18.9375 73 
Q 24.125 74.21875 28.421875 74.21875 
Q 39.75 74.21875 46.484375 68.546875 
Q 53.21875 62.890625 53.21875 53.421875 
Q 53.21875 48.921875 51.53125 44.890625 
Q 49.859375 40.875 45.40625 35.40625 
Q 44.1875 33.984375 37.640625 27.21875 
Q 31.109375 20.453125 19.1875 8.296875 
z
" id="DejaVuSans-50"/>
       </defs>
       <use xlink:href="#DejaVuSans-8722"/>
       <use x="83.789062" xlink:href="#DejaVuSans-50"/>
       <use x="147.412109" xlink:href="#DejaVuSans-48"/>
      </g>
     </g>
    </g>
    <g id="xtick_3">
     <g id="line2d_3">
      <g>
       <use style="stroke:#000000;stroke-width:0.8;" x="160.821706" xlink:href="#m7e9f458880" y="307.584"/>
      </g>
     </g>
     <g id="text_3">
      <!-- 0 -->
      <g transform="translate(157.640456 322.182437)scale(0.1 -0.1)">
       <use xlink:href="#DejaVuSans-48"/>
      </g>
     </g>
    </g>
    <g id="xtick_4">
     <g id="line2d_4">
      <g>
       <use style="stroke:#000000;stroke-width:0.8;" x="205.183036" xlink:href="#m7e9f458880" y="307.584"/>
      </g>
     </g>
     <g id="text_4">
      <!-- 20 -->
      <g transform="translate(198.820536 322.182437)scale(0.1 -0.1)">
       <use xlink:href="#DejaVuSans-50"/>
       <use x="63.623047" xlink:href="#DejaVuSans-48"/>
      </g>
     </g>
    </g>
    <g id="xtick_5">
     <g id="line2d_5">
      <g>
       <use style="stroke:#000000;stroke-width:0.8;" x="249.544365" xlink:href="#m7e9f458880" y="307.584"/>
      </g>
     </g>
     <g id="text_5">
      <!-- 40 -->
      <g transform="translate(243.181865 322.182437)scale(0.1 -0.1)">
       <use xlink:href="#DejaVuSans-52"/>
       <use x="63.623047" xlink:href="#DejaVuSans-48"/>
      </g>
     </g>
    </g>
    <g id="xtick_6">
     <g id="line2d_6">
      <g>
       <use style="stroke:#000000;stroke-width:0.8;" x="293.905695" xlink:href="#m7e9f458880" y="307.584"/>
      </g>
     </g>
     <g id="text_6">
      <!-- 60 -->
      <g transform="translate(287.543195 322.182437)scale(0.1 -0.1)">
       <defs>
        <path d="M 33.015625 40.375 
Q 26.375 40.375 22.484375 35.828125 
Q 18.609375 31.296875 18.609375 23.390625 
Q 18.609375 15.53125 22.484375 10.953125 
Q 26.375 6.390625 33.015625 6.390625 
Q 39.65625 6.390625 43.53125 10.953125 
Q 47.40625 15.53125 47.40625 23.390625 
Q 47.40625 31.296875 43.53125 35.828125 
Q 39.65625 40.375 33.015625 40.375 
z
M 52.59375 71.296875 
L 52.59375 62.3125 
Q 48.875 64.0625 45.09375 64.984375 
Q 41.3125 65.921875 37.59375 65.921875 
Q 27.828125 65.921875 22.671875 59.328125 
Q 17.53125 52.734375 16.796875 39.40625 
Q 19.671875 43.65625 24.015625 45.921875 
Q 28.375 48.1875 33.59375 48.1875 
Q 44.578125 48.1875 50.953125 41.515625 
Q 57.328125 34.859375 57.328125 23.390625 
Q 57.328125 12.15625 50.6875 5.359375 
Q 44.046875 -1.421875 33.015625 -1.421875 
Q 20.359375 -1.421875 13.671875 8.265625 
Q 6.984375 17.96875 6.984375 36.375 
Q 6.984375 53.65625 15.1875 63.9375 
Q 23.390625 74.21875 37.203125 74.21875 
Q 40.921875 74.21875 44.703125 73.484375 
Q 48.484375 72.75 52.59375 71.296875 
z
" id="DejaVuSans-54"/>
       </defs>
       <use xlink:href="#DejaVuSans-54"/>
       <use x="63.623047" xlink:href="#DejaVuSans-48"/>
      </g>
     </g>
    </g>
    <g id="xtick_7">
     <g id="line2d_7">
      <g>
       <use style="stroke:#000000;stroke-width:0.8;" x="338.267024" xlink:href="#m7e9f458880" y="307.584"/>
      </g>
     </g>
     <g id="text_7">
      <!-- 80 -->
      <g transform="translate(331.904524 322.182437)scale(0.1 -0.1)">
       <defs>
        <path d="M 31.78125 34.625 
Q 24.75 34.625 20.71875 30.859375 
Q 16.703125 27.09375 16.703125 20.515625 
Q 16.703125 13.921875 20.71875 10.15625 
Q 24.75 6.390625 31.78125 6.390625 
Q 38.8125 6.390625 42.859375 10.171875 
Q 46.921875 13.96875 46.921875 20.515625 
Q 46.921875 27.09375 42.890625 30.859375 
Q 38.875 34.625 31.78125 34.625 
z
M 21.921875 38.8125 
Q 15.578125 40.375 12.03125 44.71875 
Q 8.5 49.078125 8.5 55.328125 
Q 8.5 64.0625 14.71875 69.140625 
Q 20.953125 74.21875 31.78125 74.21875 
Q 42.671875 74.21875 48.875 69.140625 
Q 55.078125 64.0625 55.078125 55.328125 
Q 55.078125 49.078125 51.53125 44.71875 
Q 48 40.375 41.703125 38.8125 
Q 48.828125 37.15625 52.796875 32.3125 
Q 56.78125 27.484375 56.78125 20.515625 
Q 56.78125 9.90625 50.3125 4.234375 
Q 43.84375 -1.421875 31.78125 -1.421875 
Q 19.734375 -1.421875 13.25 4.234375 
Q 6.78125 9.90625 6.78125 20.515625 
Q 6.78125 27.484375 10.78125 32.3125 
Q 14.796875 37.15625 21.921875 38.8125 
z
M 18.3125 54.390625 
Q 18.3125 48.734375 21.84375 45.5625 
Q 25.390625 42.390625 31.78125 42.390625 
Q 38.140625 42.390625 41.71875 45.5625 
Q 45.3125 48.734375 45.3125 54.390625 
Q 45.3125 60.0625 41.71875 63.234375 
Q 38.140625 66.40625 31.78125 66.40625 
Q 25.390625 66.40625 21.84375 63.234375 
Q 18.3125 60.0625 18.3125 54.390625 
z
" id="DejaVuSans-56"/>
       </defs>
       <use xlink:href="#DejaVuSans-56"/>
       <use x="63.623047" xlink:href="#DejaVuSans-48"/>
      </g>
     </g>
    </g>
    <g id="xtick_8">
     <g id="line2d_8">
      <g>
       <use style="stroke:#000000;stroke-width:0.8;" x="382.628354" xlink:href="#m7e9f458880" y="307.584"/>
      </g>
     </g>
     <g id="text_8">
      <!-- 100 -->
      <g transform="translate(373.084604 322.182437)scale(0.1 -0.1)">
       <defs>
        <path d="M 12.40625 8.296875 
L 28.515625 8.296875 
L 28.515625 63.921875 
L 10.984375 60.40625 
L 10.984375 69.390625 
L 28.421875 72.90625 
L 38.28125 72.90625 
L 38.28125 8.296875 
L 54.390625 8.296875 
L 54.390625 0 
L 12.40625 0 
z
" id="DejaVuSans-49"/>
       </defs>
       <use xlink:href="#DejaVuSans-49"/>
       <use x="63.623047" xlink:href="#DejaVuSans-48"/>
       <use x="127.246094" xlink:href="#DejaVuSans-48"/>
      </g>
     </g>
    </g>
   </g>
   <g id="matplotlib.axis_2">
    <g id="ytick_1">
     <g id="line2d_9">
      <defs>
       <path d="M 0 0 
L -3.5 0 
" id="m61b2f9475d" style="stroke:#000000;stroke-width:0.8;"/>
      </defs>
      <g>
       <use style="stroke:#000000;stroke-width:0.8;" x="57.6" xlink:href="#m61b2f9475d" y="265.3384"/>
      </g>
     </g>
     <g id="text_9">
      <!-- 20 -->
      <g transform="translate(37.875 269.137619)scale(0.1 -0.1)">
       <use xlink:href="#DejaVuSans-50"/>
       <use x="63.623047" xlink:href="#DejaVuSans-48"/>
      </g>
     </g>
    </g>
    <g id="ytick_2">
     <g id="line2d_10">
      <g>
       <use style="stroke:#000000;stroke-width:0.8;" x="57.6" xlink:href="#m61b2f9475d" y="220.977071"/>
      </g>
     </g>
     <g id="text_10">
      <!-- 40 -->
      <g transform="translate(37.875 224.776289)scale(0.1 -0.1)">
       <use xlink:href="#DejaVuSans-52"/>
       <use x="63.623047" xlink:href="#DejaVuSans-48"/>
      </g>
     </g>
    </g>
    <g id="ytick_3">
     <g id="line2d_11">
      <g>
       <use style="stroke:#000000;stroke-width:0.8;" x="57.6" xlink:href="#m61b2f9475d" y="176.615741"/>
      </g>
     </g>
     <g id="text_11">
      <!-- 60 -->
      <g transform="translate(37.875 180.41496)scale(0.1 -0.1)">
       <use xlink:href="#DejaVuSans-54"/>
       <use x="63.623047" xlink:href="#DejaVuSans-48"/>
      </g>
     </g>
    </g>
    <g id="ytick_4">
     <g id="line2d_12">
      <g>
       <use style="stroke:#000000;stroke-width:0.8;" x="57.6" xlink:href="#m61b2f9475d" y="132.254412"/>
      </g>
     </g>
     <g id="text_12">
      <!-- 80 -->
      <g transform="translate(37.875 136.05363)scale(0.1 -0.1)">
       <use xlink:href="#DejaVuSans-56"/>
       <use x="63.623047" xlink:href="#DejaVuSans-48"/>
      </g>
     </g>
    </g>
    <g id="ytick_5">
     <g id="line2d_13">
      <g>
       <use style="stroke:#000000;stroke-width:0.8;" x="57.6" xlink:href="#m61b2f9475d" y="87.893082"/>
      </g>
     </g>
     <g id="text_13">
      <!-- 100 -->
      <g transform="translate(31.5125 91.692301)scale(0.1 -0.1)">
       <use xlink:href="#DejaVuSans-49"/>
       <use x="63.623047" xlink:href="#DejaVuSans-48"/>
       <use x="127.246094" xlink:href="#DejaVuSans-48"/>
      </g>
     </g>
    </g>
    <g id="ytick_6">
     <g id="line2d_14">
      <g>
       <use style="stroke:#000000;stroke-width:0.8;" x="57.6" xlink:href="#m61b2f9475d" y="43.531752"/>
      </g>
     </g>
     <g id="text_14">
      <!-- 120 -->
      <g transform="translate(31.5125 47.330971)scale(0.1 -0.1)">
       <use xlink:href="#DejaVuSans-49"/>
       <use x="63.623047" xlink:href="#DejaVuSans-50"/>
       <use x="127.246094" xlink:href="#DejaVuSans-48"/>
      </g>
     </g>
    </g>
   </g>
   <g id="line2d_15">
    <path clip-path="url(#p1b70874215)" d="M 189.984844 151.096886 
L 189.783 142.204658 
L 189.789654 135.499443 
L 190.009243 128.79201 
L 190.50609 122.104539 
L 191.025117 117.668406 
L 191.719372 113.256672 
L 192.604381 108.880427 
L 193.704542 104.544107 
L 195.033163 100.265457 
L 196.601336 96.068875 
L 198.426805 91.980979 
L 200.516224 88.023948 
L 202.885119 84.226618 
L 205.535708 80.613388 
L 208.465774 77.219746 
L 211.673098 74.074528 
L 215.151026 71.211004 
L 218.897341 68.662446 
L 220.862548 67.517923 
L 222.880988 66.470996 
L 224.948226 65.528318 
L 227.055389 64.696543 
L 229.198041 63.982325 
L 231.369528 63.394538 
L 233.563196 62.937616 
L 235.774609 62.620433 
L 237.997111 62.449641 
L 240.22405 62.427461 
L 242.450989 62.547236 
L 244.673491 62.800096 
L 246.884903 63.181603 
L 249.085225 63.680668 
L 253.419327 65.011508 
L 257.63809 66.73051 
L 261.701588 68.782221 
L 265.565459 71.148898 
L 269.180908 73.834977 
L 270.879947 75.298901 
L 272.499135 76.847111 
L 274.029601 78.475172 
L 275.469126 80.187519 
L 276.808838 81.984153 
L 278.046519 83.860637 
L 279.177733 85.810318 
L 280.20248 87.82654 
L 281.116323 89.895996 
L 281.921482 92.012031 
L 282.615736 94.17021 
L 283.192434 96.357224 
L 283.65601 98.5642 
L 283.99981 100.786702 
L 284.226053 103.013641 
L 284.350264 107.469737 
L 284.141766 111.925832 
L 283.47191 118.606648 
L 282.544758 127.501095 
L 280.692673 149.75052 
L 280.009508 154.195525 
L 279.095665 158.587297 
L 277.891255 162.890346 
L 276.343044 167.069183 
L 274.402236 171.090537 
L 272.084357 174.930011 
L 269.438203 178.569858 
L 266.510356 181.992334 
L 263.347393 185.184132 
L 259.993676 188.131942 
L 256.491349 190.880127 
L 251.050432 194.768397 
L 240.002243 202.47396 
L 236.451119 205.226581 
L 233.066349 208.145556 
L 229.910041 211.279684 
L 227.044299 214.666671 
L 224.491304 218.315391 
L 222.226658 222.177045 
L 220.219308 226.202835 
L 218.442637 230.341747 
L 216.861156 234.542765 
L 214.751774 240.897526 
L 211.32708 251.495447 
L 209.781087 255.694247 
L 208.048778 259.835377 
L 206.110187 263.885567 
L 203.945355 267.807108 
L 201.536534 271.560077 
L 198.859328 275.106765 
L 195.898209 278.411684 
L 192.630997 281.434909 
L 190.878725 282.830072 
L 189.039948 284.138732 
L 187.116884 285.360886 
L 185.105098 286.489882 
L 183.002371 287.519065 
L 183.002371 287.519065 
" style="fill:none;stroke:#fea952;stroke-linecap:square;"/>
   </g>
   <g id="line2d_16">
    <path clip-path="url(#p1b70874215)" d="M 181.116576 151.363201 
L 180.911014 142.27514 
L 180.919313 135.314644 
L 181.152166 128.273075 
L 181.468272 123.527591 
L 181.943251 118.770713 
L 182.599559 113.987763 
L 183.460917 109.206826 
L 184.555125 104.412465 
L 185.902825 99.649366 
L 187.522207 94.924683 
L 189.438646 90.265777 
L 191.664976 85.703609 
L 194.226689 81.267203 
L 197.123795 77.010906 
L 200.368169 72.956378 
L 203.960311 69.146406 
L 205.884716 67.350561 
L 207.890766 65.634892 
L 209.993304 63.991932 
L 212.171073 62.447499 
L 214.432244 60.995633 
L 216.777481 59.642053 
L 219.199832 58.398438 
L 221.690627 57.275733 
L 224.249732 56.279572 
L 226.879882 55.418259 
L 229.560343 54.70869 
L 232.303536 54.155227 
L 235.094812 53.774248 
L 237.908746 53.577816 
L 240.700555 53.568 
L 243.453938 53.731841 
L 246.181832 54.056984 
L 248.847415 54.529109 
L 251.493899 55.141617 
L 254.061226 55.875507 
L 256.593271 56.72639 
L 261.481044 58.73371 
L 266.174221 61.119803 
L 268.456585 62.461324 
L 270.684342 63.902234 
L 272.869641 65.458413 
L 274.972226 67.113538 
L 277.011461 68.886285 
L 278.963538 70.77022 
L 280.820885 72.765919 
L 282.581664 74.883849 
L 284.215164 77.09913 
L 285.720624 79.408085 
L 287.087054 81.790399 
L 288.318645 84.242553 
L 289.408586 86.740764 
L 290.3675 89.29507 
L 291.194751 91.907995 
L 291.87522 94.533402 
L 292.42399 97.207875 
L 292.826641 99.889953 
L 293.087359 102.57278 
L 293.218036 107.752094 
L 292.981661 112.683034 
L 292.285429 119.625959 
L 291.388825 128.207914 
L 289.476292 151.001573 
L 288.720752 155.87818 
L 287.681929 160.821837 
L 286.277729 165.785886 
L 285.412339 168.265159 
L 284.424584 170.730579 
L 283.317244 173.149494 
L 282.096315 175.508484 
L 280.780027 177.783815 
L 279.366754 179.997929 
L 276.289748 184.206651 
L 272.922396 188.124449 
L 269.31027 191.75385 
L 265.554446 195.045331 
L 261.752258 198.024351 
L 256.068977 202.084907 
L 245.359155 209.546484 
L 242.141379 212.033785 
L 239.192434 214.563359 
L 236.545169 217.169691 
L 234.204281 219.906114 
L 232.060107 222.944682 
L 230.103583 226.260078 
L 228.325085 229.810255 
L 226.713108 233.553665 
L 225.247727 237.438024 
L 223.212748 243.567551 
L 219.681268 254.482862 
L 218.007238 259.018033 
L 216.103153 263.556148 
L 213.946902 268.045256 
L 211.492701 272.471298 
L 208.722556 276.763748 
L 205.593775 280.882951 
L 203.893816 282.852191 
L 202.082621 284.7733 
L 200.169885 286.6178 
L 198.157371 288.375823 
L 196.023245 290.058559 
L 193.798778 291.626764 
L 191.458915 293.098061 
L 189.005505 294.458817 
L 186.902778 295.488 
L 186.902778 295.488 
" style="fill:none;stroke:#ffffff;stroke-linecap:square;"/>
   </g>
   <g id="line2d_17">
    <path clip-path="url(#p1b70874215)" d="M 198.853112 150.830572 
L 198.637517 139.979867 
L 198.704032 133.545149 
L 198.988421 127.209934 
L 199.548031 120.99336 
L 200.098352 116.930662 
L 200.811821 112.923619 
L 201.696127 109.000979 
L 202.774992 105.144671 
L 204.047969 101.387468 
L 205.525172 97.755242 
L 207.207074 94.265828 
L 209.103675 90.939002 
L 211.228272 87.778085 
L 213.564554 84.819086 
L 216.107584 82.081326 
L 218.866817 79.577443 
L 221.81297 77.343882 
L 224.947614 75.393794 
L 228.205825 73.780902 
L 231.5162 72.546392 
L 234.822857 71.720005 
L 238.085476 71.321467 
L 241.448039 71.362632 
L 244.922392 71.834097 
L 248.465507 72.714638 
L 252.024305 73.96969 
L 255.53841 75.557487 
L 258.868132 77.392163 
L 261.947704 79.443394 
L 264.748432 81.711516 
L 267.238317 84.184425 
L 269.402513 86.869176 
L 271.268413 89.830236 
L 272.824061 93.051228 
L 274.036722 96.432425 
L 274.888029 99.920524 
L 275.364747 103.454502 
L 275.482493 107.18738 
L 275.301871 111.16863 
L 274.658391 117.587338 
L 273.700692 126.794277 
L 271.909053 148.499467 
L 271.298264 152.51287 
L 270.509401 156.352757 
L 269.504781 159.994805 
L 268.261505 163.407787 
L 266.708158 166.67259 
L 264.80196 169.862092 
L 262.586659 172.933064 
L 260.098315 175.860219 
L 257.384516 178.614413 
L 254.432907 181.218553 
L 251.230441 183.735902 
L 246.031888 187.451887 
L 236.587588 193.980989 
L 232.696495 196.880311 
L 228.837188 200.032888 
L 225.081403 203.51168 
L 223.274913 205.389677 
L 221.529979 207.370424 
L 219.884317 209.427229 
L 216.922502 213.6861 
L 214.349734 218.094011 
L 212.113531 222.595415 
L 210.172166 227.129829 
L 208.474584 231.647506 
L 206.290801 238.227501 
L 202.972892 248.508032 
L 201.554937 252.370461 
L 199.994402 256.114606 
L 198.273473 259.725877 
L 196.398008 263.142919 
L 194.350513 266.356406 
L 192.124881 269.330579 
L 189.713798 272.050068 
L 187.104624 274.493994 
L 184.281117 276.650699 
L 181.204691 278.520947 
L 179.101964 279.55013 
L 179.101964 279.55013 
" style="fill:none;stroke:#ffffff;stroke-linecap:square;"/>
   </g>
   <g id="patch_3">
    <path d="M 57.6 307.584 
L 57.6 41.472 
" style="fill:none;stroke:#000000;stroke-linecap:square;stroke-linejoin:miter;stroke-width:0.8;"/>
   </g>
   <g id="patch_4">
    <path d="M 414.72 307.584 
L 414.72 41.472 
" style="fill:none;stroke:#000000;stroke-linecap:square;stroke-linejoin:miter;stroke-width:0.8;"/>
   </g>
   <g id="patch_5">
    <path d="M 57.6 307.584 
L 414.72 307.584 
" style="fill:none;stroke:#000000;stroke-linecap:square;stroke-linejoin:miter;stroke-width:0.8;"/>
   </g>
   <g id="patch_6">
    <path d="M 57.6 41.472 
L 414.72 41.472 
" style="fill:none;stroke:#000000;stroke-linecap:square;stroke-linejoin:miter;stroke-width:0.8;"/>
   </g>
  </g>
 </g>
 <defs>
  <clipPath id="p1b70874215">
   <rect height="266.112" width="357.12" x="57.6" y="41.472"/>
  </clipPath>
 </defs>
</svg>
