<?xml version="1.0" encoding="utf-8" standalone="no"?>
<!DOCTYPE svg PUBLIC "-//W3C//DTD SVG 1.1//EN"
  "http://www.w3.org/Graphics/SVG/1.1/DTD/svg11.dtd">
<!-- Created with matplotlib (https://matplotlib.org/) -->
<svg height="345.6pt" version="1.1" viewBox="0 0 460.8 345.6" width="460.8pt" xmlns="http://www.w3.org/2000/svg" xmlns:xlink="http://www.w3.org/1999/xlink">
 <metadata>
  <rdf:RDF xmlns:cc="http://creativecommons.org/ns#" xmlns:dc="http://purl.org/dc/elements/1.1/" xmlns:rdf="http://www.w3.org/1999/02/22-rdf-syntax-ns#">
   <cc:Work>
    <dc:type rdf:resource="http://purl.org/dc/dcmitype/StillImage"/>
    <dc:date>2021-01-25T13:08:47.658365</dc:date>
    <dc:format>image/svg+xml</dc:format>
    <dc:creator>
     <cc:Agent>
      <dc:title>Matplotlib v3.3.3, https://matplotlib.org/</dc:title>
     </cc:Agent>
    </dc:creator>
   </cc:Work>
  </rdf:RDF>
 </metadata>
 <defs>
  <style type="text/css">*{stroke-linecap:butt;stroke-linejoin:round;}</style>
 </defs>
 <g id="figure_1">
  <g id="patch_1">
   <path d="M 0 345.6 
L 460.8 345.6 
L 460.8 0 
L 0 0 
z
" style="fill:#ffffff;"/>
  </g>
  <g id="axes_1">
   <g id="patch_2">
    <path d="M 57.6 307.584 
L 414.72 307.584 
L 414.72 41.472 
L 57.6 41.472 
z
" style="fill:#7d9051;"/>
   </g>
   <g id="matplotlib.axis_1">
    <g id="xtick_1">
     <g id="line2d_1">
      <defs>
       <path d="M 0 0 
L 0 3.5 
" id="md143010755" style="stroke:#000000;stroke-width:0.8;"/>
      </defs>
      <g>
       <use style="stroke:#000000;stroke-width:0.8;" x="86.107425" xlink:href="#md143010755" y="307.584"/>
      </g>
     </g>
     <g id="text_1">
      <!-- 10 -->
      <g transform="translate(79.744925 322.182437)scale(0.1 -0.1)">
       <defs>
        <path d="M 12.40625 8.296875 
L 28.515625 8.296875 
L 28.515625 63.921875 
L 10.984375 60.40625 
L 10.984375 69.390625 
L 28.421875 72.90625 
L 38.28125 72.90625 
L 38.28125 8.296875 
L 54.390625 8.296875 
L 54.390625 0 
L 12.40625 0 
z
" id="DejaVuSans-49"/>
        <path d="M 31.78125 66.40625 
Q 24.171875 66.40625 20.328125 58.90625 
Q 16.5 51.421875 16.5 36.375 
Q 16.5 21.390625 20.328125 13.890625 
Q 24.171875 6.390625 31.78125 6.390625 
Q 39.453125 6.390625 43.28125 13.890625 
Q 47.125 21.390625 47.125 36.375 
Q 47.125 51.421875 43.28125 58.90625 
Q 39.453125 66.40625 31.78125 66.40625 
z
M 31.78125 74.21875 
Q 44.046875 74.21875 50.515625 64.515625 
Q 56.984375 54.828125 56.984375 36.375 
Q 56.984375 17.96875 50.515625 8.265625 
Q 44.046875 -1.421875 31.78125 -1.421875 
Q 19.53125 -1.421875 13.0625 8.265625 
Q 6.59375 17.96875 6.59375 36.375 
Q 6.59375 54.828125 13.0625 64.515625 
Q 19.53125 74.21875 31.78125 74.21875 
z
" id="DejaVuSans-48"/>
       </defs>
       <use xlink:href="#DejaVuSans-49"/>
       <use x="63.623047" xlink:href="#DejaVuSans-48"/>
      </g>
     </g>
    </g>
    <g id="xtick_2">
     <g id="line2d_2">
      <g>
       <use style="stroke:#000000;stroke-width:0.8;" x="125.799163" xlink:href="#md143010755" y="307.584"/>
      </g>
     </g>
     <g id="text_2">
      <!-- 20 -->
      <g transform="translate(119.436663 322.182437)scale(0.1 -0.1)">
       <defs>
        <path d="M 19.1875 8.296875 
L 53.609375 8.296875 
L 53.609375 0 
L 7.328125 0 
L 7.328125 8.296875 
Q 12.9375 14.109375 22.625 23.890625 
Q 32.328125 33.6875 34.8125 36.53125 
Q 39.546875 41.84375 41.421875 45.53125 
Q 43.3125 49.21875 43.3125 52.78125 
Q 43.3125 58.59375 39.234375 62.25 
Q 35.15625 65.921875 28.609375 65.921875 
Q 23.96875 65.921875 18.8125 64.3125 
Q 13.671875 62.703125 7.8125 59.421875 
L 7.8125 69.390625 
Q 13.765625 71.78125 18.9375 73 
Q 24.125 74.21875 28.421875 74.21875 
Q 39.75 74.21875 46.484375 68.546875 
Q 53.21875 62.890625 53.21875 53.421875 
Q 53.21875 48.921875 51.53125 44.890625 
Q 49.859375 40.875 45.40625 35.40625 
Q 44.1875 33.984375 37.640625 27.21875 
Q 31.109375 20.453125 19.1875 8.296875 
z
" id="DejaVuSans-50"/>
       </defs>
       <use xlink:href="#DejaVuSans-50"/>
       <use x="63.623047" xlink:href="#DejaVuSans-48"/>
      </g>
     </g>
    </g>
    <g id="xtick_3">
     <g id="line2d_3">
      <g>
       <use style="stroke:#000000;stroke-width:0.8;" x="165.490902" xlink:href="#md143010755" y="307.584"/>
      </g>
     </g>
     <g id="text_3">
      <!-- 30 -->
      <g transform="translate(159.128402 322.182437)scale(0.1 -0.1)">
       <defs>
        <path d="M 40.578125 39.3125 
Q 47.65625 37.796875 51.625 33 
Q 55.609375 28.21875 55.609375 21.1875 
Q 55.609375 10.40625 48.1875 4.484375 
Q 40.765625 -1.421875 27.09375 -1.421875 
Q 22.515625 -1.421875 17.65625 -0.515625 
Q 12.796875 0.390625 7.625 2.203125 
L 7.625 11.71875 
Q 11.71875 9.328125 16.59375 8.109375 
Q 21.484375 6.890625 26.8125 6.890625 
Q 36.078125 6.890625 40.9375 10.546875 
Q 45.796875 14.203125 45.796875 21.1875 
Q 45.796875 27.640625 41.28125 31.265625 
Q 36.765625 34.90625 28.71875 34.90625 
L 20.21875 34.90625 
L 20.21875 43.015625 
L 29.109375 43.015625 
Q 36.375 43.015625 40.234375 45.921875 
Q 44.09375 48.828125 44.09375 54.296875 
Q 44.09375 59.90625 40.109375 62.90625 
Q 36.140625 65.921875 28.71875 65.921875 
Q 24.65625 65.921875 20.015625 65.03125 
Q 15.375 64.15625 9.8125 62.3125 
L 9.8125 71.09375 
Q 15.4375 72.65625 20.34375 73.4375 
Q 25.25 74.21875 29.59375 74.21875 
Q 40.828125 74.21875 47.359375 69.109375 
Q 53.90625 64.015625 53.90625 55.328125 
Q 53.90625 49.265625 50.4375 45.09375 
Q 46.96875 40.921875 40.578125 39.3125 
z
" id="DejaVuSans-51"/>
       </defs>
       <use xlink:href="#DejaVuSans-51"/>
       <use x="63.623047" xlink:href="#DejaVuSans-48"/>
      </g>
     </g>
    </g>
    <g id="xtick_4">
     <g id="line2d_4">
      <g>
       <use style="stroke:#000000;stroke-width:0.8;" x="205.182641" xlink:href="#md143010755" y="307.584"/>
      </g>
     </g>
     <g id="text_4">
      <!-- 40 -->
      <g transform="translate(198.820141 322.182437)scale(0.1 -0.1)">
       <defs>
        <path d="M 37.796875 64.3125 
L 12.890625 25.390625 
L 37.796875 25.390625 
z
M 35.203125 72.90625 
L 47.609375 72.90625 
L 47.609375 25.390625 
L 58.015625 25.390625 
L 58.015625 17.1875 
L 47.609375 17.1875 
L 47.609375 0 
L 37.796875 0 
L 37.796875 17.1875 
L 4.890625 17.1875 
L 4.890625 26.703125 
z
" id="DejaVuSans-52"/>
       </defs>
       <use xlink:href="#DejaVuSans-52"/>
       <use x="63.623047" xlink:href="#DejaVuSans-48"/>
      </g>
     </g>
    </g>
    <g id="xtick_5">
     <g id="line2d_5">
      <g>
       <use style="stroke:#000000;stroke-width:0.8;" x="244.874379" xlink:href="#md143010755" y="307.584"/>
      </g>
     </g>
     <g id="text_5">
      <!-- 50 -->
      <g transform="translate(238.511879 322.182437)scale(0.1 -0.1)">
       <defs>
        <path d="M 10.796875 72.90625 
L 49.515625 72.90625 
L 49.515625 64.59375 
L 19.828125 64.59375 
L 19.828125 46.734375 
Q 21.96875 47.46875 24.109375 47.828125 
Q 26.265625 48.1875 28.421875 48.1875 
Q 40.625 48.1875 47.75 41.5 
Q 54.890625 34.8125 54.890625 23.390625 
Q 54.890625 11.625 47.5625 5.09375 
Q 40.234375 -1.421875 26.90625 -1.421875 
Q 22.3125 -1.421875 17.546875 -0.640625 
Q 12.796875 0.140625 7.71875 1.703125 
L 7.71875 11.625 
Q 12.109375 9.234375 16.796875 8.0625 
Q 21.484375 6.890625 26.703125 6.890625 
Q 35.15625 6.890625 40.078125 11.328125 
Q 45.015625 15.765625 45.015625 23.390625 
Q 45.015625 31 40.078125 35.4375 
Q 35.15625 39.890625 26.703125 39.890625 
Q 22.75 39.890625 18.8125 39.015625 
Q 14.890625 38.140625 10.796875 36.28125 
z
" id="DejaVuSans-53"/>
       </defs>
       <use xlink:href="#DejaVuSans-53"/>
       <use x="63.623047" xlink:href="#DejaVuSans-48"/>
      </g>
     </g>
    </g>
    <g id="xtick_6">
     <g id="line2d_6">
      <g>
       <use style="stroke:#000000;stroke-width:0.8;" x="284.566118" xlink:href="#md143010755" y="307.584"/>
      </g>
     </g>
     <g id="text_6">
      <!-- 60 -->
      <g transform="translate(278.203618 322.182437)scale(0.1 -0.1)">
       <defs>
        <path d="M 33.015625 40.375 
Q 26.375 40.375 22.484375 35.828125 
Q 18.609375 31.296875 18.609375 23.390625 
Q 18.609375 15.53125 22.484375 10.953125 
Q 26.375 6.390625 33.015625 6.390625 
Q 39.65625 6.390625 43.53125 10.953125 
Q 47.40625 15.53125 47.40625 23.390625 
Q 47.40625 31.296875 43.53125 35.828125 
Q 39.65625 40.375 33.015625 40.375 
z
M 52.59375 71.296875 
L 52.59375 62.3125 
Q 48.875 64.0625 45.09375 64.984375 
Q 41.3125 65.921875 37.59375 65.921875 
Q 27.828125 65.921875 22.671875 59.328125 
Q 17.53125 52.734375 16.796875 39.40625 
Q 19.671875 43.65625 24.015625 45.921875 
Q 28.375 48.1875 33.59375 48.1875 
Q 44.578125 48.1875 50.953125 41.515625 
Q 57.328125 34.859375 57.328125 23.390625 
Q 57.328125 12.15625 50.6875 5.359375 
Q 44.046875 -1.421875 33.015625 -1.421875 
Q 20.359375 -1.421875 13.671875 8.265625 
Q 6.984375 17.96875 6.984375 36.375 
Q 6.984375 53.65625 15.1875 63.9375 
Q 23.390625 74.21875 37.203125 74.21875 
Q 40.921875 74.21875 44.703125 73.484375 
Q 48.484375 72.75 52.59375 71.296875 
z
" id="DejaVuSans-54"/>
       </defs>
       <use xlink:href="#DejaVuSans-54"/>
       <use x="63.623047" xlink:href="#DejaVuSans-48"/>
      </g>
     </g>
    </g>
    <g id="xtick_7">
     <g id="line2d_7">
      <g>
       <use style="stroke:#000000;stroke-width:0.8;" x="324.257857" xlink:href="#md143010755" y="307.584"/>
      </g>
     </g>
     <g id="text_7">
      <!-- 70 -->
      <g transform="translate(317.895357 322.182437)scale(0.1 -0.1)">
       <defs>
        <path d="M 8.203125 72.90625 
L 55.078125 72.90625 
L 55.078125 68.703125 
L 28.609375 0 
L 18.3125 0 
L 43.21875 64.59375 
L 8.203125 64.59375 
z
" id="DejaVuSans-55"/>
       </defs>
       <use xlink:href="#DejaVuSans-55"/>
       <use x="63.623047" xlink:href="#DejaVuSans-48"/>
      </g>
     </g>
    </g>
    <g id="xtick_8">
     <g id="line2d_8">
      <g>
       <use style="stroke:#000000;stroke-width:0.8;" x="363.949596" xlink:href="#md143010755" y="307.584"/>
      </g>
     </g>
     <g id="text_8">
      <!-- 80 -->
      <g transform="translate(357.587096 322.182437)scale(0.1 -0.1)">
       <defs>
        <path d="M 31.78125 34.625 
Q 24.75 34.625 20.71875 30.859375 
Q 16.703125 27.09375 16.703125 20.515625 
Q 16.703125 13.921875 20.71875 10.15625 
Q 24.75 6.390625 31.78125 6.390625 
Q 38.8125 6.390625 42.859375 10.171875 
Q 46.921875 13.96875 46.921875 20.515625 
Q 46.921875 27.09375 42.890625 30.859375 
Q 38.875 34.625 31.78125 34.625 
z
M 21.921875 38.8125 
Q 15.578125 40.375 12.03125 44.71875 
Q 8.5 49.078125 8.5 55.328125 
Q 8.5 64.0625 14.71875 69.140625 
Q 20.953125 74.21875 31.78125 74.21875 
Q 42.671875 74.21875 48.875 69.140625 
Q 55.078125 64.0625 55.078125 55.328125 
Q 55.078125 49.078125 51.53125 44.71875 
Q 48 40.375 41.703125 38.8125 
Q 48.828125 37.15625 52.796875 32.3125 
Q 56.78125 27.484375 56.78125 20.515625 
Q 56.78125 9.90625 50.3125 4.234375 
Q 43.84375 -1.421875 31.78125 -1.421875 
Q 19.734375 -1.421875 13.25 4.234375 
Q 6.78125 9.90625 6.78125 20.515625 
Q 6.78125 27.484375 10.78125 32.3125 
Q 14.796875 37.15625 21.921875 38.8125 
z
M 18.3125 54.390625 
Q 18.3125 48.734375 21.84375 45.5625 
Q 25.390625 42.390625 31.78125 42.390625 
Q 38.140625 42.390625 41.71875 45.5625 
Q 45.3125 48.734375 45.3125 54.390625 
Q 45.3125 60.0625 41.71875 63.234375 
Q 38.140625 66.40625 31.78125 66.40625 
Q 25.390625 66.40625 21.84375 63.234375 
Q 18.3125 60.0625 18.3125 54.390625 
z
" id="DejaVuSans-56"/>
       </defs>
       <use xlink:href="#DejaVuSans-56"/>
       <use x="63.623047" xlink:href="#DejaVuSans-48"/>
      </g>
     </g>
    </g>
    <g id="xtick_9">
     <g id="line2d_9">
      <g>
       <use style="stroke:#000000;stroke-width:0.8;" x="403.641334" xlink:href="#md143010755" y="307.584"/>
      </g>
     </g>
     <g id="text_9">
      <!-- 90 -->
      <g transform="translate(397.278834 322.182437)scale(0.1 -0.1)">
       <defs>
        <path d="M 10.984375 1.515625 
L 10.984375 10.5 
Q 14.703125 8.734375 18.5 7.8125 
Q 22.3125 6.890625 25.984375 6.890625 
Q 35.75 6.890625 40.890625 13.453125 
Q 46.046875 20.015625 46.78125 33.40625 
Q 43.953125 29.203125 39.59375 26.953125 
Q 35.25 24.703125 29.984375 24.703125 
Q 19.046875 24.703125 12.671875 31.3125 
Q 6.296875 37.9375 6.296875 49.421875 
Q 6.296875 60.640625 12.9375 67.421875 
Q 19.578125 74.21875 30.609375 74.21875 
Q 43.265625 74.21875 49.921875 64.515625 
Q 56.59375 54.828125 56.59375 36.375 
Q 56.59375 19.140625 48.40625 8.859375 
Q 40.234375 -1.421875 26.421875 -1.421875 
Q 22.703125 -1.421875 18.890625 -0.6875 
Q 15.09375 0.046875 10.984375 1.515625 
z
M 30.609375 32.421875 
Q 37.25 32.421875 41.125 36.953125 
Q 45.015625 41.5 45.015625 49.421875 
Q 45.015625 57.28125 41.125 61.84375 
Q 37.25 66.40625 30.609375 66.40625 
Q 23.96875 66.40625 20.09375 61.84375 
Q 16.21875 57.28125 16.21875 49.421875 
Q 16.21875 41.5 20.09375 36.953125 
Q 23.96875 32.421875 30.609375 32.421875 
z
" id="DejaVuSans-57"/>
       </defs>
       <use xlink:href="#DejaVuSans-57"/>
       <use x="63.623047" xlink:href="#DejaVuSans-48"/>
      </g>
     </g>
    </g>
   </g>
   <g id="matplotlib.axis_2">
    <g id="ytick_1">
     <g id="line2d_10">
      <defs>
       <path d="M 0 0 
L -3.5 0 
" id="m69462004f6" style="stroke:#000000;stroke-width:0.8;"/>
      </defs>
      <g>
       <use style="stroke:#000000;stroke-width:0.8;" x="57.6" xlink:href="#m69462004f6" y="279.576721"/>
      </g>
     </g>
     <g id="text_10">
      <!-- 10 -->
      <g transform="translate(37.875 283.37594)scale(0.1 -0.1)">
       <use xlink:href="#DejaVuSans-49"/>
       <use x="63.623047" xlink:href="#DejaVuSans-48"/>
      </g>
     </g>
    </g>
    <g id="ytick_2">
     <g id="line2d_11">
      <g>
       <use style="stroke:#000000;stroke-width:0.8;" x="57.6" xlink:href="#m69462004f6" y="239.884983"/>
      </g>
     </g>
     <g id="text_11">
      <!-- 20 -->
      <g transform="translate(37.875 243.684202)scale(0.1 -0.1)">
       <use xlink:href="#DejaVuSans-50"/>
       <use x="63.623047" xlink:href="#DejaVuSans-48"/>
      </g>
     </g>
    </g>
    <g id="ytick_3">
     <g id="line2d_12">
      <g>
       <use style="stroke:#000000;stroke-width:0.8;" x="57.6" xlink:href="#m69462004f6" y="200.193244"/>
      </g>
     </g>
     <g id="text_12">
      <!-- 30 -->
      <g transform="translate(37.875 203.992463)scale(0.1 -0.1)">
       <use xlink:href="#DejaVuSans-51"/>
       <use x="63.623047" xlink:href="#DejaVuSans-48"/>
      </g>
     </g>
    </g>
    <g id="ytick_4">
     <g id="line2d_13">
      <g>
       <use style="stroke:#000000;stroke-width:0.8;" x="57.6" xlink:href="#m69462004f6" y="160.501505"/>
      </g>
     </g>
     <g id="text_13">
      <!-- 40 -->
      <g transform="translate(37.875 164.300724)scale(0.1 -0.1)">
       <use xlink:href="#DejaVuSans-52"/>
       <use x="63.623047" xlink:href="#DejaVuSans-48"/>
      </g>
     </g>
    </g>
    <g id="ytick_5">
     <g id="line2d_14">
      <g>
       <use style="stroke:#000000;stroke-width:0.8;" x="57.6" xlink:href="#m69462004f6" y="120.809767"/>
      </g>
     </g>
     <g id="text_14">
      <!-- 50 -->
      <g transform="translate(37.875 124.608985)scale(0.1 -0.1)">
       <use xlink:href="#DejaVuSans-53"/>
       <use x="63.623047" xlink:href="#DejaVuSans-48"/>
      </g>
     </g>
    </g>
    <g id="ytick_6">
     <g id="line2d_15">
      <g>
       <use style="stroke:#000000;stroke-width:0.8;" x="57.6" xlink:href="#m69462004f6" y="81.118028"/>
      </g>
     </g>
     <g id="text_15">
      <!-- 60 -->
      <g transform="translate(37.875 84.917247)scale(0.1 -0.1)">
       <use xlink:href="#DejaVuSans-54"/>
       <use x="63.623047" xlink:href="#DejaVuSans-48"/>
      </g>
     </g>
    </g>
   </g>
   <g id="line2d_16">
    <path clip-path="url(#pee7fd3f6d5)" d="M 249.248409 159.394106 
L 248.148948 155.448747 
L 247.307483 151.471635 
L 246.720045 147.466738 
L 246.382666 143.453904 
L 246.287405 139.4371 
L 246.430296 135.432203 
L 246.807367 131.443183 
L 247.410682 127.485917 
L 248.23627 123.568343 
L 249.280162 119.702367 
L 250.538391 115.899899 
L 251.999047 112.168875 
L 253.6661 108.521204 
L 255.531611 104.968794 
L 257.587643 101.519582 
L 259.834196 98.185476 
L 262.259361 94.978383 
L 264.863139 91.906243 
L 267.637592 88.980961 
L 270.582719 86.210478 
L 273.682643 83.614638 
L 276.937366 81.193442 
L 280.323071 78.966736 
L 283.831821 76.942457 
L 287.447738 75.132514 
L 291.158916 73.548813 
L 294.949477 72.203264 
L 298.811483 71.111741 
L 302.729058 70.278214 
L 306.682355 69.718561 
L 310.667406 69.444688 
L 314.668333 69.440718 
L 318.665291 69.706653 
L 322.650341 70.226615 
L 326.607608 70.988696 
L 330.521213 71.988928 
L 334.37925 73.215403 
L 338.165842 74.656213 
L 341.869081 76.30342 
L 345.473091 78.141148 
L 348.965964 80.169395 
L 352.339762 82.372287 
L 355.586546 84.745853 
L 358.702348 87.282155 
L 361.679228 89.973255 
L 364.513218 92.811214 
L 367.192411 95.788095 
L 369.712836 98.895958 
L 372.066556 102.126865 
L 374.253571 105.476848 
L 376.258004 108.933998 
L 378.091762 112.486409 
L 379.746908 116.126142 
L 381.235348 119.845257 
L 382.553113 123.62788 
L 383.700205 127.47004 
L 384.688529 131.351892 
L 385.514117 135.273436 
L 386.180938 139.214826 
L 386.688993 143.168123 
L 387.046218 147.129359 
L 387.252615 151.090594 
L 387.320091 155.05183 
L 387.252615 159.017034 
L 387.058126 162.982239 
L 386.74853 166.947444 
L 385.78799 174.873884 
L 384.434502 182.796355 
L 382.71585 190.691042 
L 381.695772 194.600678 
L 380.55265 198.466653 
L 379.270607 202.269122 
L 377.841704 206.004115 
L 376.250065 209.647816 
L 374.483783 213.188319 
L 372.52698 216.617686 
L 370.371719 219.9121 
L 368.006091 223.067593 
L 365.445974 226.084165 
L 362.707244 228.957847 
L 359.801809 231.692608 
L 356.753483 234.296386 
L 353.578144 236.769181 
L 350.291668 239.110994 
L 346.909932 241.325793 
L 343.448813 243.417548 
L 339.932124 245.382289 
L 336.367806 247.231924 
L 332.763796 248.970422 
L 325.44464 252.117977 
L 317.994501 254.872583 
L 310.433224 257.273933 
L 302.784626 259.369657 
L 295.064583 261.199446 
L 287.292941 262.802993 
L 279.477637 264.227926 
L 267.709037 266.13313 
L 236.32081 270.912015 
L 228.501537 272.301226 
L 220.698141 273.869049 
L 205.107227 277.13171 
L 197.280016 278.469322 
L 193.350534 278.981345 
L 189.405175 279.358417 
L 185.443939 279.576721 
L 181.466827 279.620382 
L 177.477807 279.48543 
L 173.492757 279.171866 
L 169.515644 278.687627 
L 165.562347 278.032713 
L 161.636834 277.211094 
L 157.747044 276.22277 
L 153.912822 275.071709 
L 150.134168 273.761882 
L 146.42696 272.293287 
L 142.795166 270.669895 
L 139.242755 268.899644 
L 135.76179 266.986502 
L 132.360208 264.942377 
L 129.030071 262.771239 
L 125.771379 260.477057 
L 122.580163 258.071737 
L 119.460393 255.56322 
L 116.404129 252.955472 
L 110.494029 247.470074 
L 107.6521 244.596392 
L 104.905432 241.635388 
L 102.277839 238.587063 
L 99.77726 235.447446 
L 97.427509 232.21257 
L 95.240494 228.886402 
L 93.236061 225.464974 
L 91.430087 221.944317 
L 89.838448 218.32443 
L 88.477022 214.605314 
L 87.341838 210.798877 
L 86.432897 206.920994 
L 85.74623 202.979604 
L 85.281837 198.990584 
L 85.027809 194.969811 
L 84.988118 190.925223 
L 85.158792 186.876666 
L 85.531895 182.832078 
L 86.107425 178.807335 
L 86.881414 174.814346 
L 87.853861 170.868988 
L 89.016829 166.979197 
L 90.366348 163.164821 
L 91.906388 159.437767 
L 93.62504 155.809942 
L 95.522305 152.293254 
L 97.598183 148.89961 
L 99.844735 145.648857 
L 102.261962 142.548932 
L 102.261962 142.548932 
" style="fill:none;stroke:#fea952;stroke-linecap:square;"/>
   </g>
   <g id="line2d_17">
    <path clip-path="url(#pee7fd3f6d5)" d="M 233.954461 163.656102 
L 232.616108 158.735136 
L 231.598874 153.775772 
L 230.899167 148.796881 
L 230.510433 143.83032 
L 230.420806 138.870997 
L 230.624061 133.938082 
L 231.112029 129.050314 
L 231.875213 124.211978 
L 232.908525 119.429537 
L 234.207229 114.714768 
L 235.754261 110.112069 
L 237.558918 105.569469 
L 239.609715 101.139639 
L 241.893974 96.839569 
L 244.421001 92.647773 
L 247.170553 88.60938 
L 250.147623 84.713138 
L 253.343572 80.980629 
L 256.759182 77.416807 
L 260.389607 74.037971 
L 264.206411 70.876096 
L 268.213272 67.928465 
L 272.38913 65.214571 
L 276.725314 62.745027 
L 281.216228 60.529852 
L 285.847797 58.586812 
L 290.631382 56.925059 
L 295.507422 55.582651 
L 300.503642 54.558259 
L 305.593795 53.879227 
L 310.651655 53.568 
L 315.722347 53.599048 
L 320.71944 53.963403 
L 325.652674 54.636379 
L 330.538976 55.60644 
L 335.33123 56.85839 
L 340.025458 58.376609 
L 344.618306 60.149829 
L 349.081289 62.159393 
L 353.44572 64.411375 
L 357.646046 66.875576 
L 361.709633 69.555307 
L 365.609489 72.432848 
L 369.349299 75.504554 
L 372.913601 78.754595 
L 376.314273 82.190265 
L 379.523684 85.787637 
L 382.545389 89.547427 
L 385.360969 93.447693 
L 387.988639 97.513347 
L 390.365949 101.651461 
L 392.544294 105.914211 
L 394.486964 110.226973 
L 396.228287 114.622114 
L 397.766272 119.085935 
L 399.08606 123.552783 
L 400.224666 128.081127 
L 401.168355 132.624985 
L 401.928127 137.191091 
L 402.501521 141.742144 
L 402.901406 146.303237 
L 403.127008 150.820189 
L 403.194489 155.321965 
L 403.110247 159.794836 
L 402.886648 164.2181 
L 402.533253 168.6539 
L 402.055349 173.02543 
L 400.77719 181.698635 
L 399.09464 190.324786 
L 398.078249 194.699302 
L 396.920838 199.102546 
L 395.597242 203.539099 
L 394.099181 207.942115 
L 392.39089 212.359478 
L 390.456979 216.735346 
L 388.273523 221.056771 
L 385.813036 225.309647 
L 383.074992 229.43556 
L 380.111026 233.34086 
L 376.939116 237.037574 
L 373.589063 240.518793 
L 370.113498 243.764829 
L 366.508418 246.822787 
L 362.791508 249.699123 
L 358.990258 252.392711 
L 355.121922 254.913754 
L 351.192401 257.277789 
L 347.24502 259.474521 
L 343.26578 261.531833 
L 339.225123 263.47286 
L 335.201767 265.259513 
L 331.135542 266.939687 
L 322.967463 269.950352 
L 314.771794 272.546336 
L 306.567929 274.788999 
L 298.367352 276.728811 
L 290.226492 278.406317 
L 282.123715 279.882565 
L 270.071947 281.833006 
L 239.01837 286.557865 
L 231.542089 287.884053 
L 224.021529 289.394015 
L 207.961288 292.74977 
L 199.331455 294.212926 
L 194.861041 294.786023 
L 190.278817 295.211057 
L 185.618224 295.45246 
L 180.930012 295.488 
L 176.232395 295.313204 
L 171.573837 294.932171 
L 166.920834 294.350845 
L 162.309797 293.572674 
L 157.727086 292.598859 
L 153.182021 291.429019 
L 148.712893 290.072716 
L 144.28679 288.52256 
L 139.947972 286.787844 
L 135.713951 284.879957 
L 131.595742 282.813401 
L 127.583959 280.595048 
L 123.689215 278.242127 
L 119.890396 275.753373 
L 116.215112 273.155669 
L 112.631385 270.444743 
L 109.155129 267.640926 
L 105.754699 264.730833 
L 102.465506 261.749011 
L 99.205315 258.634051 
L 96.012206 255.393721 
L 92.879731 252.001292 
L 89.858807 248.478327 
L 86.931753 244.77817 
L 84.161551 240.935174 
L 81.54155 236.911886 
L 79.109529 232.711391 
L 76.896264 228.334737 
L 74.929283 223.782108 
L 73.262502 219.1427 
L 71.884083 214.422035 
L 70.7918 209.645978 
L 69.976042 204.815536 
L 69.436733 199.991657 
L 69.151878 195.12561 
L 69.125511 190.256505 
L 69.34922 185.418275 
L 69.815078 180.584604 
L 70.520845 175.78608 
L 71.46607 171.01479 
L 72.64248 166.321095 
L 74.049289 161.683709 
L 75.69297 157.1017 
L 77.558337 152.640495 
L 79.65215 148.27152 
L 81.978535 144.008585 
L 84.537029 139.87322 
L 87.324525 135.885978 
L 89.741752 132.786054 
L 89.741752 132.786054 
" style="fill:none;stroke:#ffffff;stroke-linecap:square;"/>
   </g>
   <g id="line2d_18">
    <path clip-path="url(#pee7fd3f6d5)" d="M 264.542357 155.13211 
L 263.681788 152.162358 
L 263.016093 149.167498 
L 262.540923 146.136595 
L 262.254898 143.077487 
L 262.154005 140.003202 
L 262.23653 136.926325 
L 262.502705 133.836053 
L 262.94615 130.759856 
L 263.564014 127.707148 
L 264.353096 124.689966 
L 265.32252 121.687728 
L 266.439175 118.768281 
L 267.722484 115.90277 
L 269.169249 113.098019 
L 270.754286 110.391391 
L 272.497838 107.761572 
L 274.371099 105.243629 
L 276.382706 102.831856 
L 278.516001 100.545116 
L 280.77583 98.382986 
L 283.158876 96.353181 
L 285.66146 94.45842 
L 288.257013 92.718901 
L 290.938328 91.139887 
L 293.679249 89.735176 
L 296.470035 88.510815 
L 299.267572 87.481468 
L 302.115545 86.640831 
L 304.954473 85.998169 
L 307.770915 85.557895 
L 310.683156 85.321375 
L 313.614319 85.282389 
L 316.611142 85.449903 
L 319.648009 85.816851 
L 322.67624 86.370953 
L 325.711196 87.119467 
L 328.733043 88.054197 
L 331.713378 89.162597 
L 334.656873 90.447448 
L 337.500462 91.87092 
L 340.285882 93.463215 
L 342.969891 95.189267 
L 345.563604 97.058857 
L 348.055396 99.059756 
L 350.444856 101.191915 
L 352.712163 103.432164 
L 354.861137 105.788553 
L 356.880283 108.244489 
L 358.772143 110.806038 
L 360.518502 113.440349 
L 362.150059 116.216535 
L 363.63923 119.058607 
L 365.006851 122.02531 
L 366.242408 125.068401 
L 367.339955 128.169825 
L 368.314349 131.387298 
L 369.152392 134.622658 
L 369.859879 137.921887 
L 370.43375 141.238561 
L 370.876465 144.594103 
L 371.19103 147.955481 
L 371.378223 151.361 
L 371.445694 154.781695 
L 371.394984 158.239233 
L 370.963808 165.240987 
L 370.106599 172.391259 
L 368.880075 179.613704 
L 367.35345 186.682781 
L 365.508058 193.394207 
L 364.442033 196.596129 
L 363.292518 199.648751 
L 362.043152 202.560287 
L 360.694043 205.319868 
L 359.240925 207.925724 
L 357.668445 210.388639 
L 355.901157 212.794326 
L 353.952833 215.130757 
L 351.825425 217.396901 
L 349.49012 219.620387 
L 346.998549 221.769985 
L 344.36478 223.83924 
L 341.593079 225.829277 
L 338.697942 227.737832 
L 335.705224 229.557306 
L 329.469832 232.932014 
L 323.038423 235.928115 
L 316.413676 238.583989 
L 309.589904 240.930739 
L 302.566604 243.006662 
L 295.394651 244.837282 
L 288.069055 246.456654 
L 280.62542 247.902661 
L 269.191781 249.834227 
L 253.605909 252.177061 
L 237.644914 254.600942 
L 225.460986 256.718399 
L 217.374754 258.344084 
L 202.253165 261.513651 
L 195.228576 262.725718 
L 188.531532 263.505776 
L 185.269655 263.700983 
L 182.003642 263.752765 
L 178.72322 263.657657 
L 175.411676 263.411561 
L 172.110455 263.024408 
L 168.814897 262.492752 
L 165.546583 261.823328 
L 162.312067 261.01652 
L 159.112751 260.070702 
L 155.981546 259.001203 
L 152.905948 257.798731 
L 149.876381 256.459834 
L 146.889769 254.985887 
L 143.939621 253.377956 
L 141.031201 251.642628 
L 138.169746 249.789106 
L 135.327647 247.798444 
L 132.528942 245.698732 
L 127.053558 241.180112 
L 121.782743 236.306097 
L 116.931134 231.269484 
L 114.696871 228.695799 
L 112.622766 226.116722 
L 110.693466 223.489965 
L 108.939438 220.860918 
L 107.362593 218.218557 
L 105.963909 215.553897 
L 104.747614 212.866753 
L 103.691541 210.067929 
L 102.799593 207.175718 
L 102.073994 204.196009 
L 101.516417 201.143672 
L 101.12694 197.989512 
L 100.90374 194.814012 
L 100.850724 191.593941 
L 100.968364 188.335056 
L 101.248711 185.079551 
L 101.694005 181.828591 
L 102.296758 178.613903 
L 103.065243 175.41688 
L 103.98437 172.274685 
L 105.039726 169.227942 
L 106.254439 166.235038 
L 107.59793 163.348363 
L 109.066076 160.577923 
L 110.659337 157.926 
L 112.364946 155.411735 
L 114.782173 152.31181 
L 114.782173 152.31181 
" style="fill:none;stroke:#ffffff;stroke-linecap:square;"/>
   </g>
   <g id="patch_3">
    <path d="M 57.6 307.584 
L 57.6 41.472 
" style="fill:none;stroke:#000000;stroke-linecap:square;stroke-linejoin:miter;stroke-width:0.8;"/>
   </g>
   <g id="patch_4">
    <path d="M 414.72 307.584 
L 414.72 41.472 
" style="fill:none;stroke:#000000;stroke-linecap:square;stroke-linejoin:miter;stroke-width:0.8;"/>
   </g>
   <g id="patch_5">
    <path d="M 57.6 307.584 
L 414.72 307.584 
" style="fill:none;stroke:#000000;stroke-linecap:square;stroke-linejoin:miter;stroke-width:0.8;"/>
   </g>
   <g id="patch_6">
    <path d="M 57.6 41.472 
L 414.72 41.472 
" style="fill:none;stroke:#000000;stroke-linecap:square;stroke-linejoin:miter;stroke-width:0.8;"/>
   </g>
  </g>
 </g>
 <defs>
  <clipPath id="pee7fd3f6d5">
   <rect height="266.112" width="357.12" x="57.6" y="41.472"/>
  </clipPath>
 </defs>
</svg>
