<?xml version="1.0" encoding="utf-8" standalone="no"?>
<!DOCTYPE svg PUBLIC "-//W3C//DTD SVG 1.1//EN"
  "http://www.w3.org/Graphics/SVG/1.1/DTD/svg11.dtd">
<!-- Created with matplotlib (https://matplotlib.org/) -->
<svg height="345.6pt" version="1.1" viewBox="0 0 460.8 345.6" width="460.8pt" xmlns="http://www.w3.org/2000/svg" xmlns:xlink="http://www.w3.org/1999/xlink">
 <metadata>
  <rdf:RDF xmlns:cc="http://creativecommons.org/ns#" xmlns:dc="http://purl.org/dc/elements/1.1/" xmlns:rdf="http://www.w3.org/1999/02/22-rdf-syntax-ns#">
   <cc:Work>
    <dc:type rdf:resource="http://purl.org/dc/dcmitype/StillImage"/>
    <dc:date>2021-01-22T10:44:38.860150</dc:date>
    <dc:format>image/svg+xml</dc:format>
    <dc:creator>
     <cc:Agent>
      <dc:title>Matplotlib v3.3.3, https://matplotlib.org/</dc:title>
     </cc:Agent>
    </dc:creator>
   </cc:Work>
  </rdf:RDF>
 </metadata>
 <defs>
  <style type="text/css">*{stroke-linecap:butt;stroke-linejoin:round;}</style>
 </defs>
 <g id="figure_1">
  <g id="patch_1">
   <path d="M 0 345.6 
L 460.8 345.6 
L 460.8 0 
L 0 0 
z
" style="fill:#ffffff;"/>
  </g>
  <g id="axes_1">
   <g id="patch_2">
    <path d="M 57.6 307.584 
L 414.72 307.584 
L 414.72 41.472 
L 57.6 41.472 
z
" style="fill:#7d9051;"/>
   </g>
   <g id="matplotlib.axis_1">
    <g id="xtick_1">
     <g id="line2d_1">
      <defs>
       <path d="M 0 0 
L 0 3.5 
" id="m648591b5de" style="stroke:#000000;stroke-width:0.8;"/>
      </defs>
      <g>
       <use style="stroke:#000000;stroke-width:0.8;" x="58.426366" xlink:href="#m648591b5de" y="307.584"/>
      </g>
     </g>
     <g id="text_1">
      <!-- 0 -->
      <g transform="translate(55.245116 322.182437)scale(0.1 -0.1)">
       <defs>
        <path d="M 31.78125 66.40625 
Q 24.171875 66.40625 20.328125 58.90625 
Q 16.5 51.421875 16.5 36.375 
Q 16.5 21.390625 20.328125 13.890625 
Q 24.171875 6.390625 31.78125 6.390625 
Q 39.453125 6.390625 43.28125 13.890625 
Q 47.125 21.390625 47.125 36.375 
Q 47.125 51.421875 43.28125 58.90625 
Q 39.453125 66.40625 31.78125 66.40625 
z
M 31.78125 74.21875 
Q 44.046875 74.21875 50.515625 64.515625 
Q 56.984375 54.828125 56.984375 36.375 
Q 56.984375 17.96875 50.515625 8.265625 
Q 44.046875 -1.421875 31.78125 -1.421875 
Q 19.53125 -1.421875 13.0625 8.265625 
Q 6.59375 17.96875 6.59375 36.375 
Q 6.59375 54.828125 13.0625 64.515625 
Q 19.53125 74.21875 31.78125 74.21875 
z
" id="DejaVuSans-48"/>
       </defs>
       <use xlink:href="#DejaVuSans-48"/>
      </g>
     </g>
    </g>
    <g id="xtick_2">
     <g id="line2d_2">
      <g>
       <use style="stroke:#000000;stroke-width:0.8;" x="112.474275" xlink:href="#m648591b5de" y="307.584"/>
      </g>
     </g>
     <g id="text_2">
      <!-- 20 -->
      <g transform="translate(106.111775 322.182437)scale(0.1 -0.1)">
       <defs>
        <path d="M 19.1875 8.296875 
L 53.609375 8.296875 
L 53.609375 0 
L 7.328125 0 
L 7.328125 8.296875 
Q 12.9375 14.109375 22.625 23.890625 
Q 32.328125 33.6875 34.8125 36.53125 
Q 39.546875 41.84375 41.421875 45.53125 
Q 43.3125 49.21875 43.3125 52.78125 
Q 43.3125 58.59375 39.234375 62.25 
Q 35.15625 65.921875 28.609375 65.921875 
Q 23.96875 65.921875 18.8125 64.3125 
Q 13.671875 62.703125 7.8125 59.421875 
L 7.8125 69.390625 
Q 13.765625 71.78125 18.9375 73 
Q 24.125 74.21875 28.421875 74.21875 
Q 39.75 74.21875 46.484375 68.546875 
Q 53.21875 62.890625 53.21875 53.421875 
Q 53.21875 48.921875 51.53125 44.890625 
Q 49.859375 40.875 45.40625 35.40625 
Q 44.1875 33.984375 37.640625 27.21875 
Q 31.109375 20.453125 19.1875 8.296875 
z
" id="DejaVuSans-50"/>
       </defs>
       <use xlink:href="#DejaVuSans-50"/>
       <use x="63.623047" xlink:href="#DejaVuSans-48"/>
      </g>
     </g>
    </g>
    <g id="xtick_3">
     <g id="line2d_3">
      <g>
       <use style="stroke:#000000;stroke-width:0.8;" x="166.522184" xlink:href="#m648591b5de" y="307.584"/>
      </g>
     </g>
     <g id="text_3">
      <!-- 40 -->
      <g transform="translate(160.159684 322.182437)scale(0.1 -0.1)">
       <defs>
        <path d="M 37.796875 64.3125 
L 12.890625 25.390625 
L 37.796875 25.390625 
z
M 35.203125 72.90625 
L 47.609375 72.90625 
L 47.609375 25.390625 
L 58.015625 25.390625 
L 58.015625 17.1875 
L 47.609375 17.1875 
L 47.609375 0 
L 37.796875 0 
L 37.796875 17.1875 
L 4.890625 17.1875 
L 4.890625 26.703125 
z
" id="DejaVuSans-52"/>
       </defs>
       <use xlink:href="#DejaVuSans-52"/>
       <use x="63.623047" xlink:href="#DejaVuSans-48"/>
      </g>
     </g>
    </g>
    <g id="xtick_4">
     <g id="line2d_4">
      <g>
       <use style="stroke:#000000;stroke-width:0.8;" x="220.570093" xlink:href="#m648591b5de" y="307.584"/>
      </g>
     </g>
     <g id="text_4">
      <!-- 60 -->
      <g transform="translate(214.207593 322.182437)scale(0.1 -0.1)">
       <defs>
        <path d="M 33.015625 40.375 
Q 26.375 40.375 22.484375 35.828125 
Q 18.609375 31.296875 18.609375 23.390625 
Q 18.609375 15.53125 22.484375 10.953125 
Q 26.375 6.390625 33.015625 6.390625 
Q 39.65625 6.390625 43.53125 10.953125 
Q 47.40625 15.53125 47.40625 23.390625 
Q 47.40625 31.296875 43.53125 35.828125 
Q 39.65625 40.375 33.015625 40.375 
z
M 52.59375 71.296875 
L 52.59375 62.3125 
Q 48.875 64.0625 45.09375 64.984375 
Q 41.3125 65.921875 37.59375 65.921875 
Q 27.828125 65.921875 22.671875 59.328125 
Q 17.53125 52.734375 16.796875 39.40625 
Q 19.671875 43.65625 24.015625 45.921875 
Q 28.375 48.1875 33.59375 48.1875 
Q 44.578125 48.1875 50.953125 41.515625 
Q 57.328125 34.859375 57.328125 23.390625 
Q 57.328125 12.15625 50.6875 5.359375 
Q 44.046875 -1.421875 33.015625 -1.421875 
Q 20.359375 -1.421875 13.671875 8.265625 
Q 6.984375 17.96875 6.984375 36.375 
Q 6.984375 53.65625 15.1875 63.9375 
Q 23.390625 74.21875 37.203125 74.21875 
Q 40.921875 74.21875 44.703125 73.484375 
Q 48.484375 72.75 52.59375 71.296875 
z
" id="DejaVuSans-54"/>
       </defs>
       <use xlink:href="#DejaVuSans-54"/>
       <use x="63.623047" xlink:href="#DejaVuSans-48"/>
      </g>
     </g>
    </g>
    <g id="xtick_5">
     <g id="line2d_5">
      <g>
       <use style="stroke:#000000;stroke-width:0.8;" x="274.618002" xlink:href="#m648591b5de" y="307.584"/>
      </g>
     </g>
     <g id="text_5">
      <!-- 80 -->
      <g transform="translate(268.255502 322.182437)scale(0.1 -0.1)">
       <defs>
        <path d="M 31.78125 34.625 
Q 24.75 34.625 20.71875 30.859375 
Q 16.703125 27.09375 16.703125 20.515625 
Q 16.703125 13.921875 20.71875 10.15625 
Q 24.75 6.390625 31.78125 6.390625 
Q 38.8125 6.390625 42.859375 10.171875 
Q 46.921875 13.96875 46.921875 20.515625 
Q 46.921875 27.09375 42.890625 30.859375 
Q 38.875 34.625 31.78125 34.625 
z
M 21.921875 38.8125 
Q 15.578125 40.375 12.03125 44.71875 
Q 8.5 49.078125 8.5 55.328125 
Q 8.5 64.0625 14.71875 69.140625 
Q 20.953125 74.21875 31.78125 74.21875 
Q 42.671875 74.21875 48.875 69.140625 
Q 55.078125 64.0625 55.078125 55.328125 
Q 55.078125 49.078125 51.53125 44.71875 
Q 48 40.375 41.703125 38.8125 
Q 48.828125 37.15625 52.796875 32.3125 
Q 56.78125 27.484375 56.78125 20.515625 
Q 56.78125 9.90625 50.3125 4.234375 
Q 43.84375 -1.421875 31.78125 -1.421875 
Q 19.734375 -1.421875 13.25 4.234375 
Q 6.78125 9.90625 6.78125 20.515625 
Q 6.78125 27.484375 10.78125 32.3125 
Q 14.796875 37.15625 21.921875 38.8125 
z
M 18.3125 54.390625 
Q 18.3125 48.734375 21.84375 45.5625 
Q 25.390625 42.390625 31.78125 42.390625 
Q 38.140625 42.390625 41.71875 45.5625 
Q 45.3125 48.734375 45.3125 54.390625 
Q 45.3125 60.0625 41.71875 63.234375 
Q 38.140625 66.40625 31.78125 66.40625 
Q 25.390625 66.40625 21.84375 63.234375 
Q 18.3125 60.0625 18.3125 54.390625 
z
" id="DejaVuSans-56"/>
       </defs>
       <use xlink:href="#DejaVuSans-56"/>
       <use x="63.623047" xlink:href="#DejaVuSans-48"/>
      </g>
     </g>
    </g>
    <g id="xtick_6">
     <g id="line2d_6">
      <g>
       <use style="stroke:#000000;stroke-width:0.8;" x="328.665911" xlink:href="#m648591b5de" y="307.584"/>
      </g>
     </g>
     <g id="text_6">
      <!-- 100 -->
      <g transform="translate(319.122161 322.182437)scale(0.1 -0.1)">
       <defs>
        <path d="M 12.40625 8.296875 
L 28.515625 8.296875 
L 28.515625 63.921875 
L 10.984375 60.40625 
L 10.984375 69.390625 
L 28.421875 72.90625 
L 38.28125 72.90625 
L 38.28125 8.296875 
L 54.390625 8.296875 
L 54.390625 0 
L 12.40625 0 
z
" id="DejaVuSans-49"/>
       </defs>
       <use xlink:href="#DejaVuSans-49"/>
       <use x="63.623047" xlink:href="#DejaVuSans-48"/>
       <use x="127.246094" xlink:href="#DejaVuSans-48"/>
      </g>
     </g>
    </g>
    <g id="xtick_7">
     <g id="line2d_7">
      <g>
       <use style="stroke:#000000;stroke-width:0.8;" x="382.71382" xlink:href="#m648591b5de" y="307.584"/>
      </g>
     </g>
     <g id="text_7">
      <!-- 120 -->
      <g transform="translate(373.17007 322.182437)scale(0.1 -0.1)">
       <use xlink:href="#DejaVuSans-49"/>
       <use x="63.623047" xlink:href="#DejaVuSans-50"/>
       <use x="127.246094" xlink:href="#DejaVuSans-48"/>
      </g>
     </g>
    </g>
   </g>
   <g id="matplotlib.axis_2">
    <g id="ytick_1">
     <g id="line2d_8">
      <defs>
       <path d="M 0 0 
L -3.5 0 
" id="m4785849a77" style="stroke:#000000;stroke-width:0.8;"/>
      </defs>
      <g>
       <use style="stroke:#000000;stroke-width:0.8;" x="57.6" xlink:href="#m4785849a77" y="273.362732"/>
      </g>
     </g>
     <g id="text_8">
      <!-- 0 -->
      <g transform="translate(44.2375 277.161951)scale(0.1 -0.1)">
       <use xlink:href="#DejaVuSans-48"/>
      </g>
     </g>
    </g>
    <g id="ytick_2">
     <g id="line2d_9">
      <g>
       <use style="stroke:#000000;stroke-width:0.8;" x="57.6" xlink:href="#m4785849a77" y="219.314823"/>
      </g>
     </g>
     <g id="text_9">
      <!-- 20 -->
      <g transform="translate(37.875 223.114042)scale(0.1 -0.1)">
       <use xlink:href="#DejaVuSans-50"/>
       <use x="63.623047" xlink:href="#DejaVuSans-48"/>
      </g>
     </g>
    </g>
    <g id="ytick_3">
     <g id="line2d_10">
      <g>
       <use style="stroke:#000000;stroke-width:0.8;" x="57.6" xlink:href="#m4785849a77" y="165.266914"/>
      </g>
     </g>
     <g id="text_10">
      <!-- 40 -->
      <g transform="translate(37.875 169.066133)scale(0.1 -0.1)">
       <use xlink:href="#DejaVuSans-52"/>
       <use x="63.623047" xlink:href="#DejaVuSans-48"/>
      </g>
     </g>
    </g>
    <g id="ytick_4">
     <g id="line2d_11">
      <g>
       <use style="stroke:#000000;stroke-width:0.8;" x="57.6" xlink:href="#m4785849a77" y="111.219005"/>
      </g>
     </g>
     <g id="text_11">
      <!-- 60 -->
      <g transform="translate(37.875 115.018224)scale(0.1 -0.1)">
       <use xlink:href="#DejaVuSans-54"/>
       <use x="63.623047" xlink:href="#DejaVuSans-48"/>
      </g>
     </g>
    </g>
    <g id="ytick_5">
     <g id="line2d_12">
      <g>
       <use style="stroke:#000000;stroke-width:0.8;" x="57.6" xlink:href="#m4785849a77" y="57.171096"/>
      </g>
     </g>
     <g id="text_12">
      <!-- 80 -->
      <g transform="translate(37.875 60.970315)scale(0.1 -0.1)">
       <use xlink:href="#DejaVuSans-56"/>
       <use x="63.623047" xlink:href="#DejaVuSans-48"/>
      </g>
     </g>
    </g>
   </g>
   <g id="line2d_13">
    <path clip-path="url(#pc416e8cddc)" d="M 386.705258 246.338778 
L 387.302487 241.060999 
L 387.626775 235.677828 
L 387.653799 230.229798 
L 387.36194 224.762852 
L 386.726877 219.314823 
L 385.732395 213.928949 
L 384.348769 208.648468 
L 383.505621 206.062276 
L 382.557081 203.516619 
L 381.503146 201.016904 
L 380.335712 198.571236 
L 379.054776 196.182318 
L 377.66034 193.858258 
L 376.146999 191.601758 
L 374.517454 189.418222 
L 372.782516 187.315759 
L 370.939483 185.297069 
L 368.999163 183.372964 
L 366.964259 181.546144 
L 364.842879 179.822016 
L 362.635021 178.208686 
L 360.346092 176.708856 
L 357.984199 175.330635 
L 355.554745 174.082128 
L 353.063137 172.957932 
L 350.51748 171.96345 
L 347.923181 171.095981 
L 345.291047 170.355525 
L 342.629188 169.744783 
L 339.940304 169.263757 
L 337.237909 168.912446 
L 334.527406 168.690849 
L 331.814201 168.598968 
L 329.106401 168.636801 
L 323.715122 169.06378 
L 318.361677 169.901522 
L 313.054172 171.068957 
L 307.800715 172.49312 
L 300.036733 174.949597 
L 274.463965 183.581048 
L 251.150399 190.58836 
L 246.034765 192.412476 
L 240.994797 194.417654 
L 236.054819 196.633618 
L 231.247257 199.087393 
L 226.596434 201.808705 
L 222.083434 204.762424 
L 206.447374 215.450398 
L 201.769527 218.196031 
L 196.953859 220.69845 
L 192.011177 222.938735 
L 186.957698 224.89527 
L 181.809635 226.554541 
L 176.575095 227.905738 
L 171.275697 228.973185 
L 165.924954 229.794713 
L 160.536378 230.402752 
L 155.126182 230.835135 
L 149.710581 231.105375 
L 144.294981 231.186446 
L 138.887488 231.018898 
L 133.496209 230.559491 
L 128.123847 229.754177 
L 122.79202 228.557016 
L 120.157185 227.803047 
L 117.560183 226.935578 
L 115.006419 225.957311 
L 112.509406 224.860139 
L 110.071845 223.641358 
L 107.709951 222.295565 
L 105.42913 220.82276 
L 103.237487 219.217537 
L 101.148535 217.479897 
L 99.164977 215.612541 
L 97.289514 213.628983 
L 95.527553 211.534627 
L 93.884496 209.340282 
L 92.36575 207.054055 
L 90.971314 204.686757 
L 89.709295 202.246494 
L 88.579694 199.744075 
L 87.590617 197.184907 
L 86.744767 194.579798 
L 86.042145 191.936855 
L 85.482749 189.261483 
L 85.063877 186.56179 
L 84.782828 183.845883 
L 84.642304 181.119166 
L 84.639601 178.387044 
L 84.774721 175.660327 
L 85.044961 172.94442 
L 85.45032 170.247429 
L 85.990799 167.572057 
L 86.658291 164.929115 
L 87.452795 162.318601 
L 88.368907 159.74592 
L 89.39852 157.221883 
L 90.538931 154.743786 
L 91.784735 152.317035 
L 93.13323 149.952439 
L 94.576309 147.649998 
L 97.73541 143.250498 
L 101.216095 139.123941 
L 104.96702 135.229789 
L 108.939541 131.535614 
L 113.079611 128.000881 
L 119.495098 122.917675 
L 136.582344 109.759712 
L 136.582344 109.759712 
" style="fill:none;stroke:#fea952;stroke-linecap:square;"/>
   </g>
   <g id="line2d_14">
    <path clip-path="url(#pc416e8cddc)" d="M 375.981372 244.980345 
L 376.522056 240.267681 
L 376.81912 235.473707 
L 376.852251 230.646475 
L 376.606004 225.838446 
L 376.064948 221.095365 
L 375.226954 216.475074 
L 374.07157 211.999028 
L 372.596616 207.716167 
L 370.809205 203.67934 
L 368.682799 199.879124 
L 367.483919 198.066903 
L 364.799566 194.604075 
L 361.777972 191.416686 
L 358.465314 188.549772 
L 354.898129 186.04517 
L 353.043358 184.944955 
L 349.129775 183.026483 
L 344.995915 181.501661 
L 340.725634 180.385438 
L 336.357113 179.686083 
L 331.965219 179.407495 
L 327.475886 179.552818 
L 322.885589 180.086121 
L 318.172042 180.970484 
L 313.360591 182.154398 
L 308.467822 183.582785 
L 301.016624 186.037119 
L 282.856859 192.301256 
L 274.884515 194.731522 
L 259.575208 199.21998 
L 252.296328 201.632944 
L 247.598841 203.394145 
L 243.054137 205.304562 
L 238.678702 207.38803 
L 234.496511 209.663258 
L 230.334985 212.248373 
L 223.874134 216.67633 
L 216.983051 221.479366 
L 212.037342 224.702387 
L 206.881508 227.720459 
L 201.549807 230.48233 
L 196.053619 232.96399 
L 190.42455 235.133824 
L 184.662051 236.980987 
L 178.846665 238.473947 
L 173.035274 239.638594 
L 167.239197 240.524103 
L 161.472343 241.171736 
L 155.750841 241.626653 
L 149.980198 241.911593 
L 144.089841 241.994081 
L 138.131159 241.801988 
L 132.074629 241.275188 
L 125.962782 240.345534 
L 122.87454 239.706956 
L 119.818177 238.94948 
L 116.732494 238.055781 
L 113.693373 237.029876 
L 110.658009 235.853694 
L 107.675214 234.528523 
L 104.720367 233.033309 
L 101.846111 231.376448 
L 99.041865 229.54342 
L 96.324766 227.527853 
L 93.739026 225.35049 
L 91.310425 223.039053 
L 89.017824 220.587876 
L 86.874775 218.013554 
L 84.880568 215.321614 
L 83.051883 212.540305 
L 81.369753 209.652348 
L 79.856988 206.693863 
L 78.496943 203.640894 
L 77.309397 200.523104 
L 76.298047 197.357044 
L 75.461379 194.149197 
L 74.800974 190.918816 
L 74.311713 187.674452 
L 73.987573 184.402229 
L 73.832727 181.129858 
L 73.843267 177.852042 
L 74.018257 174.590032 
L 74.355444 171.337779 
L 74.854789 168.106918 
L 75.510298 164.925142 
L 76.317046 161.781779 
L 77.269575 158.692433 
L 78.36004 155.663074 
L 79.57885 152.702907 
L 80.922495 149.807064 
L 82.39477 146.962073 
L 83.973978 144.211781 
L 85.670961 141.52286 
L 87.46242 138.934554 
L 89.347598 136.432019 
L 93.322689 131.73874 
L 97.508907 127.405237 
L 101.845727 123.379337 
L 106.26962 119.606175 
L 112.937569 114.324313 
L 129.780023 101.35879 
L 129.780023 101.35879 
" style="fill:none;stroke:#ffffff;stroke-linecap:square;"/>
   </g>
   <g id="line2d_15">
    <path clip-path="url(#pc416e8cddc)" d="M 397.429143 247.69721 
L 398.082919 241.854317 
L 398.434429 235.881948 
L 398.455346 229.813121 
L 398.117876 223.687259 
L 397.388806 217.534281 
L 396.237837 211.382824 
L 395.493334 208.342351 
L 394.625967 205.297908 
L 393.63488 202.287998 
L 392.517546 199.317072 
L 391.258303 196.360298 
L 389.862218 193.463131 
L 388.323916 190.620834 
L 386.637881 187.837392 
L 384.810079 185.136613 
L 382.854888 182.538232 
L 380.765467 180.027442 
L 378.550873 177.621537 
L 376.220353 175.329241 
L 373.781908 173.157657 
L 371.220443 171.09426 
L 368.559471 169.167228 
L 365.794056 167.372543 
L 362.92504 165.716315 
L 360.000389 164.229042 
L 356.996499 162.88938 
L 353.94538 161.711789 
L 350.850446 160.690301 
L 347.708403 159.819707 
L 344.532742 159.104128 
L 341.333824 158.544375 
L 338.118705 158.138808 
L 334.893258 157.88746 
L 331.663184 157.790441 
L 328.469108 157.846022 
L 325.33753 158.039667 
L 322.227184 158.357095 
L 316.190084 159.312318 
L 310.339142 160.605895 
L 304.67391 162.145649 
L 296.544154 164.71979 
L 271.388665 173.218153 
L 247.600063 180.378454 
L 242.139212 182.329236 
L 236.689864 184.502282 
L 231.27263 186.939407 
L 225.92511 189.67879 
L 220.766415 192.706072 
L 215.963166 195.852352 
L 200.857406 206.198408 
L 196.657547 208.671604 
L 192.35791 210.914569 
L 187.968736 212.913481 
L 183.490846 214.656715 
L 178.957218 216.128094 
L 174.303525 217.33753 
L 169.516121 218.307776 
L 164.610712 219.065322 
L 159.600412 219.633767 
L 151.965683 220.191776 
L 146.948842 220.363487 
L 142.054266 220.335499 
L 137.269295 220.074115 
L 132.589633 219.54114 
L 128.02241 218.70963 
L 123.581875 217.550313 
L 119.35483 216.060929 
L 115.423323 214.249407 
L 113.573792 213.214682 
L 111.816395 212.1021 
L 110.150208 210.907221 
L 108.558044 209.609304 
L 107.019529 208.18603 
L 105.561205 206.67009 
L 104.18033 205.0557 
L 102.888424 203.358949 
L 101.679617 201.567805 
L 100.572874 199.721166 
L 99.561603 197.799124 
L 98.662445 195.847257 
L 97.871838 193.84671 
L 97.191488 191.802551 
L 96.62291 189.724513 
L 96.164523 187.604151 
L 95.578084 183.289537 
L 95.435936 178.922046 
L 95.734477 174.55106 
L 96.045851 172.38794 
L 96.999535 168.07645 
L 98.377774 163.828767 
L 100.155366 159.680509 
L 102.292483 155.693097 
L 104.765525 151.895681 
L 107.572958 148.274301 
L 110.737679 144.762264 
L 114.192233 141.365473 
L 117.936683 138.034097 
L 121.907828 134.757365 
L 128.182433 129.885669 
L 141.32544 119.828011 
L 143.384665 118.160633 
L 143.384665 118.160633 
" style="fill:none;stroke:#ffffff;stroke-linecap:square;"/>
   </g>
   <g id="patch_3">
    <path d="M 57.6 307.584 
L 57.6 41.472 
" style="fill:none;stroke:#000000;stroke-linecap:square;stroke-linejoin:miter;stroke-width:0.8;"/>
   </g>
   <g id="patch_4">
    <path d="M 414.72 307.584 
L 414.72 41.472 
" style="fill:none;stroke:#000000;stroke-linecap:square;stroke-linejoin:miter;stroke-width:0.8;"/>
   </g>
   <g id="patch_5">
    <path d="M 57.6 307.584 
L 414.72 307.584 
" style="fill:none;stroke:#000000;stroke-linecap:square;stroke-linejoin:miter;stroke-width:0.8;"/>
   </g>
   <g id="patch_6">
    <path d="M 57.6 41.472 
L 414.72 41.472 
" style="fill:none;stroke:#000000;stroke-linecap:square;stroke-linejoin:miter;stroke-width:0.8;"/>
   </g>
  </g>
 </g>
 <defs>
  <clipPath id="pc416e8cddc">
   <rect height="266.112" width="357.12" x="57.6" y="41.472"/>
  </clipPath>
 </defs>
</svg>
