<?xml version="1.0" encoding="utf-8" standalone="no"?>
<!DOCTYPE svg PUBLIC "-//W3C//DTD SVG 1.1//EN"
  "http://www.w3.org/Graphics/SVG/1.1/DTD/svg11.dtd">
<!-- Created with matplotlib (https://matplotlib.org/) -->
<svg height="345.6pt" version="1.1" viewBox="0 0 460.8 345.6" width="460.8pt" xmlns="http://www.w3.org/2000/svg" xmlns:xlink="http://www.w3.org/1999/xlink">
 <metadata>
  <rdf:RDF xmlns:cc="http://creativecommons.org/ns#" xmlns:dc="http://purl.org/dc/elements/1.1/" xmlns:rdf="http://www.w3.org/1999/02/22-rdf-syntax-ns#">
   <cc:Work>
    <dc:type rdf:resource="http://purl.org/dc/dcmitype/StillImage"/>
    <dc:date>2021-01-22T10:34:41.256873</dc:date>
    <dc:format>image/svg+xml</dc:format>
    <dc:creator>
     <cc:Agent>
      <dc:title>Matplotlib v3.3.3, https://matplotlib.org/</dc:title>
     </cc:Agent>
    </dc:creator>
   </cc:Work>
  </rdf:RDF>
 </metadata>
 <defs>
  <style type="text/css">*{stroke-linecap:butt;stroke-linejoin:round;}</style>
 </defs>
 <g id="figure_1">
  <g id="patch_1">
   <path d="M 0 345.6 
L 460.8 345.6 
L 460.8 0 
L 0 0 
z
" style="fill:#ffffff;"/>
  </g>
  <g id="axes_1">
   <g id="patch_2">
    <path d="M 57.6 307.584 
L 414.72 307.584 
L 414.72 41.472 
L 57.6 41.472 
z
" style="fill:#7d9051;"/>
   </g>
   <g id="matplotlib.axis_1">
    <g id="xtick_1">
     <g id="line2d_1">
      <defs>
       <path d="M 0 0 
L 0 3.5 
" id="m424fb9b8de" style="stroke:#000000;stroke-width:0.8;"/>
      </defs>
      <g>
       <use style="stroke:#000000;stroke-width:0.8;" x="94.893055" xlink:href="#m424fb9b8de" y="307.584"/>
      </g>
     </g>
     <g id="text_1">
      <!-- 0 -->
      <g transform="translate(91.711805 322.182437)scale(0.1 -0.1)">
       <defs>
        <path d="M 31.78125 66.40625 
Q 24.171875 66.40625 20.328125 58.90625 
Q 16.5 51.421875 16.5 36.375 
Q 16.5 21.390625 20.328125 13.890625 
Q 24.171875 6.390625 31.78125 6.390625 
Q 39.453125 6.390625 43.28125 13.890625 
Q 47.125 21.390625 47.125 36.375 
Q 47.125 51.421875 43.28125 58.90625 
Q 39.453125 66.40625 31.78125 66.40625 
z
M 31.78125 74.21875 
Q 44.046875 74.21875 50.515625 64.515625 
Q 56.984375 54.828125 56.984375 36.375 
Q 56.984375 17.96875 50.515625 8.265625 
Q 44.046875 -1.421875 31.78125 -1.421875 
Q 19.53125 -1.421875 13.0625 8.265625 
Q 6.59375 17.96875 6.59375 36.375 
Q 6.59375 54.828125 13.0625 64.515625 
Q 19.53125 74.21875 31.78125 74.21875 
z
" id="DejaVuSans-48"/>
       </defs>
       <use xlink:href="#DejaVuSans-48"/>
      </g>
     </g>
    </g>
    <g id="xtick_2">
     <g id="line2d_2">
      <g>
       <use style="stroke:#000000;stroke-width:0.8;" x="146.100062" xlink:href="#m424fb9b8de" y="307.584"/>
      </g>
     </g>
     <g id="text_2">
      <!-- 20 -->
      <g transform="translate(139.737562 322.182437)scale(0.1 -0.1)">
       <defs>
        <path d="M 19.1875 8.296875 
L 53.609375 8.296875 
L 53.609375 0 
L 7.328125 0 
L 7.328125 8.296875 
Q 12.9375 14.109375 22.625 23.890625 
Q 32.328125 33.6875 34.8125 36.53125 
Q 39.546875 41.84375 41.421875 45.53125 
Q 43.3125 49.21875 43.3125 52.78125 
Q 43.3125 58.59375 39.234375 62.25 
Q 35.15625 65.921875 28.609375 65.921875 
Q 23.96875 65.921875 18.8125 64.3125 
Q 13.671875 62.703125 7.8125 59.421875 
L 7.8125 69.390625 
Q 13.765625 71.78125 18.9375 73 
Q 24.125 74.21875 28.421875 74.21875 
Q 39.75 74.21875 46.484375 68.546875 
Q 53.21875 62.890625 53.21875 53.421875 
Q 53.21875 48.921875 51.53125 44.890625 
Q 49.859375 40.875 45.40625 35.40625 
Q 44.1875 33.984375 37.640625 27.21875 
Q 31.109375 20.453125 19.1875 8.296875 
z
" id="DejaVuSans-50"/>
       </defs>
       <use xlink:href="#DejaVuSans-50"/>
       <use x="63.623047" xlink:href="#DejaVuSans-48"/>
      </g>
     </g>
    </g>
    <g id="xtick_3">
     <g id="line2d_3">
      <g>
       <use style="stroke:#000000;stroke-width:0.8;" x="197.307069" xlink:href="#m424fb9b8de" y="307.584"/>
      </g>
     </g>
     <g id="text_3">
      <!-- 40 -->
      <g transform="translate(190.944569 322.182437)scale(0.1 -0.1)">
       <defs>
        <path d="M 37.796875 64.3125 
L 12.890625 25.390625 
L 37.796875 25.390625 
z
M 35.203125 72.90625 
L 47.609375 72.90625 
L 47.609375 25.390625 
L 58.015625 25.390625 
L 58.015625 17.1875 
L 47.609375 17.1875 
L 47.609375 0 
L 37.796875 0 
L 37.796875 17.1875 
L 4.890625 17.1875 
L 4.890625 26.703125 
z
" id="DejaVuSans-52"/>
       </defs>
       <use xlink:href="#DejaVuSans-52"/>
       <use x="63.623047" xlink:href="#DejaVuSans-48"/>
      </g>
     </g>
    </g>
    <g id="xtick_4">
     <g id="line2d_4">
      <g>
       <use style="stroke:#000000;stroke-width:0.8;" x="248.514076" xlink:href="#m424fb9b8de" y="307.584"/>
      </g>
     </g>
     <g id="text_4">
      <!-- 60 -->
      <g transform="translate(242.151576 322.182437)scale(0.1 -0.1)">
       <defs>
        <path d="M 33.015625 40.375 
Q 26.375 40.375 22.484375 35.828125 
Q 18.609375 31.296875 18.609375 23.390625 
Q 18.609375 15.53125 22.484375 10.953125 
Q 26.375 6.390625 33.015625 6.390625 
Q 39.65625 6.390625 43.53125 10.953125 
Q 47.40625 15.53125 47.40625 23.390625 
Q 47.40625 31.296875 43.53125 35.828125 
Q 39.65625 40.375 33.015625 40.375 
z
M 52.59375 71.296875 
L 52.59375 62.3125 
Q 48.875 64.0625 45.09375 64.984375 
Q 41.3125 65.921875 37.59375 65.921875 
Q 27.828125 65.921875 22.671875 59.328125 
Q 17.53125 52.734375 16.796875 39.40625 
Q 19.671875 43.65625 24.015625 45.921875 
Q 28.375 48.1875 33.59375 48.1875 
Q 44.578125 48.1875 50.953125 41.515625 
Q 57.328125 34.859375 57.328125 23.390625 
Q 57.328125 12.15625 50.6875 5.359375 
Q 44.046875 -1.421875 33.015625 -1.421875 
Q 20.359375 -1.421875 13.671875 8.265625 
Q 6.984375 17.96875 6.984375 36.375 
Q 6.984375 53.65625 15.1875 63.9375 
Q 23.390625 74.21875 37.203125 74.21875 
Q 40.921875 74.21875 44.703125 73.484375 
Q 48.484375 72.75 52.59375 71.296875 
z
" id="DejaVuSans-54"/>
       </defs>
       <use xlink:href="#DejaVuSans-54"/>
       <use x="63.623047" xlink:href="#DejaVuSans-48"/>
      </g>
     </g>
    </g>
    <g id="xtick_5">
     <g id="line2d_5">
      <g>
       <use style="stroke:#000000;stroke-width:0.8;" x="299.721082" xlink:href="#m424fb9b8de" y="307.584"/>
      </g>
     </g>
     <g id="text_5">
      <!-- 80 -->
      <g transform="translate(293.358582 322.182437)scale(0.1 -0.1)">
       <defs>
        <path d="M 31.78125 34.625 
Q 24.75 34.625 20.71875 30.859375 
Q 16.703125 27.09375 16.703125 20.515625 
Q 16.703125 13.921875 20.71875 10.15625 
Q 24.75 6.390625 31.78125 6.390625 
Q 38.8125 6.390625 42.859375 10.171875 
Q 46.921875 13.96875 46.921875 20.515625 
Q 46.921875 27.09375 42.890625 30.859375 
Q 38.875 34.625 31.78125 34.625 
z
M 21.921875 38.8125 
Q 15.578125 40.375 12.03125 44.71875 
Q 8.5 49.078125 8.5 55.328125 
Q 8.5 64.0625 14.71875 69.140625 
Q 20.953125 74.21875 31.78125 74.21875 
Q 42.671875 74.21875 48.875 69.140625 
Q 55.078125 64.0625 55.078125 55.328125 
Q 55.078125 49.078125 51.53125 44.71875 
Q 48 40.375 41.703125 38.8125 
Q 48.828125 37.15625 52.796875 32.3125 
Q 56.78125 27.484375 56.78125 20.515625 
Q 56.78125 9.90625 50.3125 4.234375 
Q 43.84375 -1.421875 31.78125 -1.421875 
Q 19.734375 -1.421875 13.25 4.234375 
Q 6.78125 9.90625 6.78125 20.515625 
Q 6.78125 27.484375 10.78125 32.3125 
Q 14.796875 37.15625 21.921875 38.8125 
z
M 18.3125 54.390625 
Q 18.3125 48.734375 21.84375 45.5625 
Q 25.390625 42.390625 31.78125 42.390625 
Q 38.140625 42.390625 41.71875 45.5625 
Q 45.3125 48.734375 45.3125 54.390625 
Q 45.3125 60.0625 41.71875 63.234375 
Q 38.140625 66.40625 31.78125 66.40625 
Q 25.390625 66.40625 21.84375 63.234375 
Q 18.3125 60.0625 18.3125 54.390625 
z
" id="DejaVuSans-56"/>
       </defs>
       <use xlink:href="#DejaVuSans-56"/>
       <use x="63.623047" xlink:href="#DejaVuSans-48"/>
      </g>
     </g>
    </g>
    <g id="xtick_6">
     <g id="line2d_6">
      <g>
       <use style="stroke:#000000;stroke-width:0.8;" x="350.928089" xlink:href="#m424fb9b8de" y="307.584"/>
      </g>
     </g>
     <g id="text_6">
      <!-- 100 -->
      <g transform="translate(341.384339 322.182437)scale(0.1 -0.1)">
       <defs>
        <path d="M 12.40625 8.296875 
L 28.515625 8.296875 
L 28.515625 63.921875 
L 10.984375 60.40625 
L 10.984375 69.390625 
L 28.421875 72.90625 
L 38.28125 72.90625 
L 38.28125 8.296875 
L 54.390625 8.296875 
L 54.390625 0 
L 12.40625 0 
z
" id="DejaVuSans-49"/>
       </defs>
       <use xlink:href="#DejaVuSans-49"/>
       <use x="63.623047" xlink:href="#DejaVuSans-48"/>
       <use x="127.246094" xlink:href="#DejaVuSans-48"/>
      </g>
     </g>
    </g>
    <g id="xtick_7">
     <g id="line2d_7">
      <g>
       <use style="stroke:#000000;stroke-width:0.8;" x="402.135096" xlink:href="#m424fb9b8de" y="307.584"/>
      </g>
     </g>
     <g id="text_7">
      <!-- 120 -->
      <g transform="translate(392.591346 322.182437)scale(0.1 -0.1)">
       <use xlink:href="#DejaVuSans-49"/>
       <use x="63.623047" xlink:href="#DejaVuSans-50"/>
       <use x="127.246094" xlink:href="#DejaVuSans-48"/>
      </g>
     </g>
    </g>
   </g>
   <g id="matplotlib.axis_2">
    <g id="ytick_1">
     <g id="line2d_8">
      <defs>
       <path d="M 0 0 
L -3.5 0 
" id="maf13d0b6f3" style="stroke:#000000;stroke-width:0.8;"/>
      </defs>
      <g>
       <use style="stroke:#000000;stroke-width:0.8;" x="57.6" xlink:href="#maf13d0b6f3" y="260.975088"/>
      </g>
     </g>
     <g id="text_8">
      <!-- 20 -->
      <g transform="translate(37.875 264.774307)scale(0.1 -0.1)">
       <use xlink:href="#DejaVuSans-50"/>
       <use x="63.623047" xlink:href="#DejaVuSans-48"/>
      </g>
     </g>
    </g>
    <g id="ytick_2">
     <g id="line2d_9">
      <g>
       <use style="stroke:#000000;stroke-width:0.8;" x="57.6" xlink:href="#maf13d0b6f3" y="209.768082"/>
      </g>
     </g>
     <g id="text_9">
      <!-- 40 -->
      <g transform="translate(37.875 213.5673)scale(0.1 -0.1)">
       <use xlink:href="#DejaVuSans-52"/>
       <use x="63.623047" xlink:href="#DejaVuSans-48"/>
      </g>
     </g>
    </g>
    <g id="ytick_3">
     <g id="line2d_10">
      <g>
       <use style="stroke:#000000;stroke-width:0.8;" x="57.6" xlink:href="#maf13d0b6f3" y="158.561075"/>
      </g>
     </g>
     <g id="text_10">
      <!-- 60 -->
      <g transform="translate(37.875 162.360294)scale(0.1 -0.1)">
       <use xlink:href="#DejaVuSans-54"/>
       <use x="63.623047" xlink:href="#DejaVuSans-48"/>
      </g>
     </g>
    </g>
    <g id="ytick_4">
     <g id="line2d_11">
      <g>
       <use style="stroke:#000000;stroke-width:0.8;" x="57.6" xlink:href="#maf13d0b6f3" y="107.354068"/>
      </g>
     </g>
     <g id="text_11">
      <!-- 80 -->
      <g transform="translate(37.875 111.153287)scale(0.1 -0.1)">
       <use xlink:href="#DejaVuSans-56"/>
       <use x="63.623047" xlink:href="#DejaVuSans-48"/>
      </g>
     </g>
    </g>
    <g id="ytick_5">
     <g id="line2d_12">
      <g>
       <use style="stroke:#000000;stroke-width:0.8;" x="57.6" xlink:href="#maf13d0b6f3" y="56.147061"/>
      </g>
     </g>
     <g id="text_12">
      <!-- 100 -->
      <g transform="translate(31.5125 59.94628)scale(0.1 -0.1)">
       <use xlink:href="#DejaVuSans-49"/>
       <use x="63.623047" xlink:href="#DejaVuSans-48"/>
       <use x="127.246094" xlink:href="#DejaVuSans-48"/>
      </g>
     </g>
    </g>
   </g>
   <g id="line2d_13">
    <path clip-path="url(#p003138c623)" d="M 120.496559 188.232975 
L 120.314774 180.505838 
L 120.337817 170.208109 
L 120.609214 159.91294 
L 121.218578 147.0523 
L 122.206873 131.638991 
L 122.921211 123.95538 
L 123.604824 118.850041 
L 124.531671 113.765185 
L 125.760639 108.705933 
L 127.337815 103.720931 
L 129.299043 98.88699 
L 130.435839 96.55195 
L 131.680169 94.280919 
L 133.039715 92.089259 
L 134.514477 89.982091 
L 136.109575 87.974776 
L 137.830131 86.067315 
L 139.660781 84.259708 
L 141.591285 82.549394 
L 143.616522 80.931253 
L 145.71857 79.402724 
L 150.127493 76.606821 
L 154.728443 74.130962 
L 159.444608 71.952104 
L 164.242705 70.047203 
L 169.117612 68.403458 
L 174.07189 67.002947 
L 179.105538 65.830306 
L 184.213437 64.872735 
L 189.375104 64.17632 
L 194.557253 63.822992 
L 197.145767 63.802509 
L 199.7266 63.897242 
L 202.292071 64.119992 
L 204.84474 64.478441 
L 207.374366 64.985391 
L 209.878389 65.645961 
L 212.346567 66.449911 
L 214.771219 67.399801 
L 217.144663 68.48539 
L 219.45666 69.706677 
L 221.699527 71.055981 
L 223.865583 72.528183 
L 225.942027 74.11816 
L 227.926299 75.823354 
L 229.808156 77.638642 
L 231.579919 79.556345 
L 233.241586 81.57134 
L 234.790598 83.670828 
L 236.224394 85.849686 
L 237.540414 88.100234 
L 238.738658 90.41223 
L 239.816566 92.780554 
L 240.774137 95.194964 
L 241.60369 97.64522 
L 242.310347 100.128759 
L 243.370332 105.162408 
L 244.036023 110.270307 
L 244.402153 115.426853 
L 244.563455 120.609002 
L 244.883499 141.245426 
L 245.25987 146.373807 
L 245.899958 151.497068 
L 246.857529 156.597286 
L 248.158187 161.628375 
L 249.819854 166.539127 
L 251.870695 171.280895 
L 253.048456 173.572409 
L 254.331192 175.802474 
L 257.188543 180.080819 
L 260.378739 184.138975 
L 263.840333 187.994862 
L 267.501634 191.671525 
L 271.303754 195.194568 
L 277.149034 200.261501 
L 290.885313 211.895733 
L 296.566731 217.141891 
L 302.027958 222.61848 
L 305.522836 226.405238 
L 308.882016 230.302091 
L 312.110618 234.30904 
L 316.744852 240.484605 
L 321.197301 246.81123 
L 332.88018 263.84012 
L 335.983324 267.92644 
L 339.252892 271.861698 
L 342.729847 275.60493 
L 346.465399 279.11261 
L 350.500511 282.343772 
L 352.646084 283.841577 
L 354.88383 285.254891 
L 357.21887 286.578592 
L 357.21887 286.578592 
" style="fill:none;stroke:#fea952;stroke-linecap:square;"/>
   </g>
   <g id="line2d_14">
    <path clip-path="url(#p003138c623)" d="M 110.260335 188.558581 
L 110.073697 180.587359 
L 110.098055 170.024892 
L 110.375915 159.505644 
L 110.994223 146.46165 
L 111.998838 130.812966 
L 112.756716 122.702641 
L 113.506638 117.143306 
L 114.542768 111.50507 
L 115.941 105.797154 
L 116.797367 102.93067 
L 117.770535 100.066692 
L 118.86114 97.235704 
L 120.090904 94.40408 
L 121.454261 91.630815 
L 122.97725 88.882263 
L 124.649153 86.216886 
L 126.496376 83.610564 
L 128.50482 81.115185 
L 130.634377 78.779831 
L 132.869394 76.593981 
L 135.198468 74.548257 
L 137.59342 72.648226 
L 140.065548 70.862838 
L 142.577506 69.209426 
L 147.700627 66.236727 
L 152.909351 63.651597 
L 158.182873 61.397678 
L 163.52012 59.449604 
L 168.917819 57.785976 
L 174.369676 56.388087 
L 179.877045 55.236679 
L 185.570921 54.317434 
L 191.460796 53.722085 
L 194.476215 53.581911 
L 197.521438 53.568 
L 200.61249 53.694228 
L 203.716209 53.978093 
L 206.857153 54.436704 
L 209.986715 55.082768 
L 213.050258 55.90812 
L 216.082323 56.914167 
L 219.031081 58.086377 
L 221.928194 59.429776 
L 224.736126 60.930941 
L 227.456452 62.585792 
L 230.091932 64.396831 
L 232.616942 66.350805 
L 235.036519 68.452392 
L 237.330492 70.688767 
L 239.481217 73.040534 
L 241.482695 75.49101 
L 243.345832 78.041061 
L 245.065224 80.679963 
L 246.633179 83.387704 
L 248.060015 86.169753 
L 249.336567 89.004859 
L 250.474671 91.910771 
L 251.454103 94.842422 
L 252.284822 97.805797 
L 252.958359 100.738736 
L 253.501762 103.665604 
L 254.241838 109.417284 
L 254.635548 115.021971 
L 254.804012 120.477453 
L 255.104717 140.602774 
L 255.43888 145.245066 
L 255.994255 149.767484 
L 256.818149 154.215618 
L 257.921456 158.535662 
L 259.300528 162.665739 
L 260.979431 166.599311 
L 262.966847 170.296862 
L 265.353514 173.898624 
L 268.099972 177.410761 
L 271.17747 180.849744 
L 274.527979 184.220567 
L 278.090097 187.524375 
L 283.736461 192.419811 
L 297.740944 204.287407 
L 303.716385 209.809173 
L 307.585921 213.638314 
L 311.368883 217.610184 
L 315.034236 221.720481 
L 318.530405 225.924915 
L 321.873234 230.202238 
L 326.619992 236.684105 
L 331.136856 243.211896 
L 339.683624 255.763557 
L 342.512747 259.630162 
L 345.386982 263.271106 
L 348.362288 266.677965 
L 351.43843 269.799003 
L 354.676999 272.639323 
L 358.114921 275.182586 
L 359.934449 276.345482 
L 362.269488 277.669184 
L 362.269488 277.669184 
" style="fill:none;stroke:#ffffff;stroke-linecap:square;"/>
   </g>
   <g id="line2d_15">
    <path clip-path="url(#p003138c623)" d="M 130.732783 187.907369 
L 130.555851 180.424317 
L 130.577579 170.391325 
L 130.842513 160.320235 
L 131.442933 147.64295 
L 132.414908 132.465016 
L 133.085705 125.208118 
L 133.70301 120.556777 
L 134.520574 116.025301 
L 135.580278 111.614713 
L 136.905094 107.37517 
L 138.507182 103.369899 
L 140.383088 99.679576 
L 142.532578 96.353618 
L 143.714331 94.834368 
L 145.025884 93.3548 
L 146.452168 91.925435 
L 147.984102 90.550531 
L 151.371592 87.942609 
L 155.124142 85.546608 
L 159.150716 83.368375 
L 163.351163 81.419159 
L 167.63685 79.709816 
L 172.021177 78.22464 
L 176.510346 76.949817 
L 181.106269 75.874378 
L 185.733636 75.000682 
L 190.262312 74.37922 
L 194.63829 74.064072 
L 198.84071 74.100256 
L 202.832327 74.520179 
L 204.762018 74.888014 
L 206.70652 75.383802 
L 208.61081 75.985656 
L 210.511357 76.713226 
L 212.361133 77.541003 
L 214.177193 78.482412 
L 215.942601 79.526171 
L 217.639234 80.659534 
L 219.267112 81.885516 
L 220.816079 83.194315 
L 222.28582 84.588517 
L 223.67862 86.072155 
L 225.000477 87.651671 
L 226.235364 89.300594 
L 227.383565 91.019409 
L 229.417301 94.654707 
L 231.073602 98.479158 
L 232.335872 102.451722 
L 233.238902 106.659213 
L 233.830208 111.123331 
L 234.168758 115.831735 
L 234.322899 120.74055 
L 234.662281 141.888077 
L 235.08086 147.502549 
L 235.805661 153.226652 
L 236.896909 158.978954 
L 238.394918 164.721087 
L 239.306552 167.573144 
L 240.339181 170.412514 
L 241.482847 173.189336 
L 242.761959 175.96248 
L 244.170892 178.678792 
L 245.695537 181.308086 
L 247.319871 183.838678 
L 249.023571 186.263015 
L 252.657506 190.867188 
L 256.503196 195.139981 
L 260.475289 199.122484 
L 264.517411 202.86476 
L 270.561606 208.103191 
L 284.029683 219.504059 
L 289.417077 224.474608 
L 294.55584 229.622318 
L 297.822972 233.157897 
L 300.952885 236.784003 
L 305.486991 242.491919 
L 309.870442 248.473837 
L 315.59716 256.79832 
L 323.065763 267.738192 
L 326.314912 272.167122 
L 329.800588 276.560558 
L 333.564124 280.83987 
L 337.687687 284.979986 
L 339.899005 286.971922 
L 342.206979 288.888749 
L 344.638218 290.741381 
L 347.177248 292.500568 
L 349.833212 294.164299 
L 352.168251 295.488 
L 352.168251 295.488 
" style="fill:none;stroke:#ffffff;stroke-linecap:square;"/>
   </g>
   <g id="patch_3">
    <path d="M 57.6 307.584 
L 57.6 41.472 
" style="fill:none;stroke:#000000;stroke-linecap:square;stroke-linejoin:miter;stroke-width:0.8;"/>
   </g>
   <g id="patch_4">
    <path d="M 414.72 307.584 
L 414.72 41.472 
" style="fill:none;stroke:#000000;stroke-linecap:square;stroke-linejoin:miter;stroke-width:0.8;"/>
   </g>
   <g id="patch_5">
    <path d="M 57.6 307.584 
L 414.72 307.584 
" style="fill:none;stroke:#000000;stroke-linecap:square;stroke-linejoin:miter;stroke-width:0.8;"/>
   </g>
   <g id="patch_6">
    <path d="M 57.6 41.472 
L 414.72 41.472 
" style="fill:none;stroke:#000000;stroke-linecap:square;stroke-linejoin:miter;stroke-width:0.8;"/>
   </g>
  </g>
 </g>
 <defs>
  <clipPath id="p003138c623">
   <rect height="266.112" width="357.12" x="57.6" y="41.472"/>
  </clipPath>
 </defs>
</svg>
