<?xml version="1.0" encoding="utf-8" standalone="no"?>
<!DOCTYPE svg PUBLIC "-//W3C//DTD SVG 1.1//EN"
  "http://www.w3.org/Graphics/SVG/1.1/DTD/svg11.dtd">
<!-- Created with matplotlib (https://matplotlib.org/) -->
<svg height="345.6pt" version="1.1" viewBox="0 0 460.8 345.6" width="460.8pt" xmlns="http://www.w3.org/2000/svg" xmlns:xlink="http://www.w3.org/1999/xlink">
 <metadata>
  <rdf:RDF xmlns:cc="http://creativecommons.org/ns#" xmlns:dc="http://purl.org/dc/elements/1.1/" xmlns:rdf="http://www.w3.org/1999/02/22-rdf-syntax-ns#">
   <cc:Work>
    <dc:type rdf:resource="http://purl.org/dc/dcmitype/StillImage"/>
    <dc:date>2021-01-25T09:21:07.315500</dc:date>
    <dc:format>image/svg+xml</dc:format>
    <dc:creator>
     <cc:Agent>
      <dc:title>Matplotlib v3.3.3, https://matplotlib.org/</dc:title>
     </cc:Agent>
    </dc:creator>
   </cc:Work>
  </rdf:RDF>
 </metadata>
 <defs>
  <style type="text/css">*{stroke-linecap:butt;stroke-linejoin:round;}</style>
 </defs>
 <g id="figure_1">
  <g id="patch_1">
   <path d="M 0 345.6 
L 460.8 345.6 
L 460.8 0 
L 0 0 
z
" style="fill:#ffffff;"/>
  </g>
  <g id="axes_1">
   <g id="patch_2">
    <path d="M 57.6 307.584 
L 414.72 307.584 
L 414.72 41.472 
L 57.6 41.472 
z
" style="fill:#7d9051;"/>
   </g>
   <g id="matplotlib.axis_1">
    <g id="xtick_1">
     <g id="line2d_1">
      <defs>
       <path d="M 0 0 
L 0 3.5 
" id="m96ae2c30c3" style="stroke:#000000;stroke-width:0.8;"/>
      </defs>
      <g>
       <use style="stroke:#000000;stroke-width:0.8;" x="66.765382" xlink:href="#m96ae2c30c3" y="307.584"/>
      </g>
     </g>
     <g id="text_1">
      <!-- −50 -->
      <g transform="translate(56.213038 322.182437)scale(0.1 -0.1)">
       <defs>
        <path d="M 10.59375 35.5 
L 73.1875 35.5 
L 73.1875 27.203125 
L 10.59375 27.203125 
z
" id="DejaVuSans-8722"/>
        <path d="M 10.796875 72.90625 
L 49.515625 72.90625 
L 49.515625 64.59375 
L 19.828125 64.59375 
L 19.828125 46.734375 
Q 21.96875 47.46875 24.109375 47.828125 
Q 26.265625 48.1875 28.421875 48.1875 
Q 40.625 48.1875 47.75 41.5 
Q 54.890625 34.8125 54.890625 23.390625 
Q 54.890625 11.625 47.5625 5.09375 
Q 40.234375 -1.421875 26.90625 -1.421875 
Q 22.3125 -1.421875 17.546875 -0.640625 
Q 12.796875 0.140625 7.71875 1.703125 
L 7.71875 11.625 
Q 12.109375 9.234375 16.796875 8.0625 
Q 21.484375 6.890625 26.703125 6.890625 
Q 35.15625 6.890625 40.078125 11.328125 
Q 45.015625 15.765625 45.015625 23.390625 
Q 45.015625 31 40.078125 35.4375 
Q 35.15625 39.890625 26.703125 39.890625 
Q 22.75 39.890625 18.8125 39.015625 
Q 14.890625 38.140625 10.796875 36.28125 
z
" id="DejaVuSans-53"/>
        <path d="M 31.78125 66.40625 
Q 24.171875 66.40625 20.328125 58.90625 
Q 16.5 51.421875 16.5 36.375 
Q 16.5 21.390625 20.328125 13.890625 
Q 24.171875 6.390625 31.78125 6.390625 
Q 39.453125 6.390625 43.28125 13.890625 
Q 47.125 21.390625 47.125 36.375 
Q 47.125 51.421875 43.28125 58.90625 
Q 39.453125 66.40625 31.78125 66.40625 
z
M 31.78125 74.21875 
Q 44.046875 74.21875 50.515625 64.515625 
Q 56.984375 54.828125 56.984375 36.375 
Q 56.984375 17.96875 50.515625 8.265625 
Q 44.046875 -1.421875 31.78125 -1.421875 
Q 19.53125 -1.421875 13.0625 8.265625 
Q 6.59375 17.96875 6.59375 36.375 
Q 6.59375 54.828125 13.0625 64.515625 
Q 19.53125 74.21875 31.78125 74.21875 
z
" id="DejaVuSans-48"/>
       </defs>
       <use xlink:href="#DejaVuSans-8722"/>
       <use x="83.789062" xlink:href="#DejaVuSans-53"/>
       <use x="147.412109" xlink:href="#DejaVuSans-48"/>
      </g>
     </g>
    </g>
    <g id="xtick_2">
     <g id="line2d_2">
      <g>
       <use style="stroke:#000000;stroke-width:0.8;" x="113.165499" xlink:href="#m96ae2c30c3" y="307.584"/>
      </g>
     </g>
     <g id="text_2">
      <!-- −25 -->
      <g transform="translate(102.613156 322.182437)scale(0.1 -0.1)">
       <defs>
        <path d="M 19.1875 8.296875 
L 53.609375 8.296875 
L 53.609375 0 
L 7.328125 0 
L 7.328125 8.296875 
Q 12.9375 14.109375 22.625 23.890625 
Q 32.328125 33.6875 34.8125 36.53125 
Q 39.546875 41.84375 41.421875 45.53125 
Q 43.3125 49.21875 43.3125 52.78125 
Q 43.3125 58.59375 39.234375 62.25 
Q 35.15625 65.921875 28.609375 65.921875 
Q 23.96875 65.921875 18.8125 64.3125 
Q 13.671875 62.703125 7.8125 59.421875 
L 7.8125 69.390625 
Q 13.765625 71.78125 18.9375 73 
Q 24.125 74.21875 28.421875 74.21875 
Q 39.75 74.21875 46.484375 68.546875 
Q 53.21875 62.890625 53.21875 53.421875 
Q 53.21875 48.921875 51.53125 44.890625 
Q 49.859375 40.875 45.40625 35.40625 
Q 44.1875 33.984375 37.640625 27.21875 
Q 31.109375 20.453125 19.1875 8.296875 
z
" id="DejaVuSans-50"/>
       </defs>
       <use xlink:href="#DejaVuSans-8722"/>
       <use x="83.789062" xlink:href="#DejaVuSans-50"/>
       <use x="147.412109" xlink:href="#DejaVuSans-53"/>
      </g>
     </g>
    </g>
    <g id="xtick_3">
     <g id="line2d_3">
      <g>
       <use style="stroke:#000000;stroke-width:0.8;" x="159.565617" xlink:href="#m96ae2c30c3" y="307.584"/>
      </g>
     </g>
     <g id="text_3">
      <!-- 0 -->
      <g transform="translate(156.384367 322.182437)scale(0.1 -0.1)">
       <use xlink:href="#DejaVuSans-48"/>
      </g>
     </g>
    </g>
    <g id="xtick_4">
     <g id="line2d_4">
      <g>
       <use style="stroke:#000000;stroke-width:0.8;" x="205.965734" xlink:href="#m96ae2c30c3" y="307.584"/>
      </g>
     </g>
     <g id="text_4">
      <!-- 25 -->
      <g transform="translate(199.603234 322.182437)scale(0.1 -0.1)">
       <use xlink:href="#DejaVuSans-50"/>
       <use x="63.623047" xlink:href="#DejaVuSans-53"/>
      </g>
     </g>
    </g>
    <g id="xtick_5">
     <g id="line2d_5">
      <g>
       <use style="stroke:#000000;stroke-width:0.8;" x="252.365851" xlink:href="#m96ae2c30c3" y="307.584"/>
      </g>
     </g>
     <g id="text_5">
      <!-- 50 -->
      <g transform="translate(246.003351 322.182437)scale(0.1 -0.1)">
       <use xlink:href="#DejaVuSans-53"/>
       <use x="63.623047" xlink:href="#DejaVuSans-48"/>
      </g>
     </g>
    </g>
    <g id="xtick_6">
     <g id="line2d_6">
      <g>
       <use style="stroke:#000000;stroke-width:0.8;" x="298.765969" xlink:href="#m96ae2c30c3" y="307.584"/>
      </g>
     </g>
     <g id="text_6">
      <!-- 75 -->
      <g transform="translate(292.403469 322.182437)scale(0.1 -0.1)">
       <defs>
        <path d="M 8.203125 72.90625 
L 55.078125 72.90625 
L 55.078125 68.703125 
L 28.609375 0 
L 18.3125 0 
L 43.21875 64.59375 
L 8.203125 64.59375 
z
" id="DejaVuSans-55"/>
       </defs>
       <use xlink:href="#DejaVuSans-55"/>
       <use x="63.623047" xlink:href="#DejaVuSans-53"/>
      </g>
     </g>
    </g>
    <g id="xtick_7">
     <g id="line2d_7">
      <g>
       <use style="stroke:#000000;stroke-width:0.8;" x="345.166086" xlink:href="#m96ae2c30c3" y="307.584"/>
      </g>
     </g>
     <g id="text_7">
      <!-- 100 -->
      <g transform="translate(335.622336 322.182437)scale(0.1 -0.1)">
       <defs>
        <path d="M 12.40625 8.296875 
L 28.515625 8.296875 
L 28.515625 63.921875 
L 10.984375 60.40625 
L 10.984375 69.390625 
L 28.421875 72.90625 
L 38.28125 72.90625 
L 38.28125 8.296875 
L 54.390625 8.296875 
L 54.390625 0 
L 12.40625 0 
z
" id="DejaVuSans-49"/>
       </defs>
       <use xlink:href="#DejaVuSans-49"/>
       <use x="63.623047" xlink:href="#DejaVuSans-48"/>
       <use x="127.246094" xlink:href="#DejaVuSans-48"/>
      </g>
     </g>
    </g>
    <g id="xtick_8">
     <g id="line2d_8">
      <g>
       <use style="stroke:#000000;stroke-width:0.8;" x="391.566203" xlink:href="#m96ae2c30c3" y="307.584"/>
      </g>
     </g>
     <g id="text_8">
      <!-- 125 -->
      <g transform="translate(382.022453 322.182437)scale(0.1 -0.1)">
       <use xlink:href="#DejaVuSans-49"/>
       <use x="63.623047" xlink:href="#DejaVuSans-50"/>
       <use x="127.246094" xlink:href="#DejaVuSans-53"/>
      </g>
     </g>
    </g>
   </g>
   <g id="matplotlib.axis_2">
    <g id="ytick_1">
     <g id="line2d_9">
      <defs>
       <path d="M 0 0 
L -3.5 0 
" id="ma6c74b994c" style="stroke:#000000;stroke-width:0.8;"/>
      </defs>
      <g>
       <use style="stroke:#000000;stroke-width:0.8;" x="57.6" xlink:href="#ma6c74b994c" y="276.689074"/>
      </g>
     </g>
     <g id="text_9">
      <!-- 20 -->
      <g transform="translate(37.875 280.488293)scale(0.1 -0.1)">
       <use xlink:href="#DejaVuSans-50"/>
       <use x="63.623047" xlink:href="#DejaVuSans-48"/>
      </g>
     </g>
    </g>
    <g id="ytick_2">
     <g id="line2d_10">
      <g>
       <use style="stroke:#000000;stroke-width:0.8;" x="57.6" xlink:href="#ma6c74b994c" y="239.56898"/>
      </g>
     </g>
     <g id="text_10">
      <!-- 40 -->
      <g transform="translate(37.875 243.368199)scale(0.1 -0.1)">
       <defs>
        <path d="M 37.796875 64.3125 
L 12.890625 25.390625 
L 37.796875 25.390625 
z
M 35.203125 72.90625 
L 47.609375 72.90625 
L 47.609375 25.390625 
L 58.015625 25.390625 
L 58.015625 17.1875 
L 47.609375 17.1875 
L 47.609375 0 
L 37.796875 0 
L 37.796875 17.1875 
L 4.890625 17.1875 
L 4.890625 26.703125 
z
" id="DejaVuSans-52"/>
       </defs>
       <use xlink:href="#DejaVuSans-52"/>
       <use x="63.623047" xlink:href="#DejaVuSans-48"/>
      </g>
     </g>
    </g>
    <g id="ytick_3">
     <g id="line2d_11">
      <g>
       <use style="stroke:#000000;stroke-width:0.8;" x="57.6" xlink:href="#ma6c74b994c" y="202.448886"/>
      </g>
     </g>
     <g id="text_11">
      <!-- 60 -->
      <g transform="translate(37.875 206.248105)scale(0.1 -0.1)">
       <defs>
        <path d="M 33.015625 40.375 
Q 26.375 40.375 22.484375 35.828125 
Q 18.609375 31.296875 18.609375 23.390625 
Q 18.609375 15.53125 22.484375 10.953125 
Q 26.375 6.390625 33.015625 6.390625 
Q 39.65625 6.390625 43.53125 10.953125 
Q 47.40625 15.53125 47.40625 23.390625 
Q 47.40625 31.296875 43.53125 35.828125 
Q 39.65625 40.375 33.015625 40.375 
z
M 52.59375 71.296875 
L 52.59375 62.3125 
Q 48.875 64.0625 45.09375 64.984375 
Q 41.3125 65.921875 37.59375 65.921875 
Q 27.828125 65.921875 22.671875 59.328125 
Q 17.53125 52.734375 16.796875 39.40625 
Q 19.671875 43.65625 24.015625 45.921875 
Q 28.375 48.1875 33.59375 48.1875 
Q 44.578125 48.1875 50.953125 41.515625 
Q 57.328125 34.859375 57.328125 23.390625 
Q 57.328125 12.15625 50.6875 5.359375 
Q 44.046875 -1.421875 33.015625 -1.421875 
Q 20.359375 -1.421875 13.671875 8.265625 
Q 6.984375 17.96875 6.984375 36.375 
Q 6.984375 53.65625 15.1875 63.9375 
Q 23.390625 74.21875 37.203125 74.21875 
Q 40.921875 74.21875 44.703125 73.484375 
Q 48.484375 72.75 52.59375 71.296875 
z
" id="DejaVuSans-54"/>
       </defs>
       <use xlink:href="#DejaVuSans-54"/>
       <use x="63.623047" xlink:href="#DejaVuSans-48"/>
      </g>
     </g>
    </g>
    <g id="ytick_4">
     <g id="line2d_12">
      <g>
       <use style="stroke:#000000;stroke-width:0.8;" x="57.6" xlink:href="#ma6c74b994c" y="165.328793"/>
      </g>
     </g>
     <g id="text_12">
      <!-- 80 -->
      <g transform="translate(37.875 169.128011)scale(0.1 -0.1)">
       <defs>
        <path d="M 31.78125 34.625 
Q 24.75 34.625 20.71875 30.859375 
Q 16.703125 27.09375 16.703125 20.515625 
Q 16.703125 13.921875 20.71875 10.15625 
Q 24.75 6.390625 31.78125 6.390625 
Q 38.8125 6.390625 42.859375 10.171875 
Q 46.921875 13.96875 46.921875 20.515625 
Q 46.921875 27.09375 42.890625 30.859375 
Q 38.875 34.625 31.78125 34.625 
z
M 21.921875 38.8125 
Q 15.578125 40.375 12.03125 44.71875 
Q 8.5 49.078125 8.5 55.328125 
Q 8.5 64.0625 14.71875 69.140625 
Q 20.953125 74.21875 31.78125 74.21875 
Q 42.671875 74.21875 48.875 69.140625 
Q 55.078125 64.0625 55.078125 55.328125 
Q 55.078125 49.078125 51.53125 44.71875 
Q 48 40.375 41.703125 38.8125 
Q 48.828125 37.15625 52.796875 32.3125 
Q 56.78125 27.484375 56.78125 20.515625 
Q 56.78125 9.90625 50.3125 4.234375 
Q 43.84375 -1.421875 31.78125 -1.421875 
Q 19.734375 -1.421875 13.25 4.234375 
Q 6.78125 9.90625 6.78125 20.515625 
Q 6.78125 27.484375 10.78125 32.3125 
Q 14.796875 37.15625 21.921875 38.8125 
z
M 18.3125 54.390625 
Q 18.3125 48.734375 21.84375 45.5625 
Q 25.390625 42.390625 31.78125 42.390625 
Q 38.140625 42.390625 41.71875 45.5625 
Q 45.3125 48.734375 45.3125 54.390625 
Q 45.3125 60.0625 41.71875 63.234375 
Q 38.140625 66.40625 31.78125 66.40625 
Q 25.390625 66.40625 21.84375 63.234375 
Q 18.3125 60.0625 18.3125 54.390625 
z
" id="DejaVuSans-56"/>
       </defs>
       <use xlink:href="#DejaVuSans-56"/>
       <use x="63.623047" xlink:href="#DejaVuSans-48"/>
      </g>
     </g>
    </g>
    <g id="ytick_5">
     <g id="line2d_13">
      <g>
       <use style="stroke:#000000;stroke-width:0.8;" x="57.6" xlink:href="#ma6c74b994c" y="128.208699"/>
      </g>
     </g>
     <g id="text_13">
      <!-- 100 -->
      <g transform="translate(31.5125 132.007917)scale(0.1 -0.1)">
       <use xlink:href="#DejaVuSans-49"/>
       <use x="63.623047" xlink:href="#DejaVuSans-48"/>
       <use x="127.246094" xlink:href="#DejaVuSans-48"/>
      </g>
     </g>
    </g>
    <g id="ytick_6">
     <g id="line2d_14">
      <g>
       <use style="stroke:#000000;stroke-width:0.8;" x="57.6" xlink:href="#ma6c74b994c" y="91.088605"/>
      </g>
     </g>
     <g id="text_14">
      <!-- 120 -->
      <g transform="translate(31.5125 94.887824)scale(0.1 -0.1)">
       <use xlink:href="#DejaVuSans-49"/>
       <use x="63.623047" xlink:href="#DejaVuSans-50"/>
       <use x="127.246094" xlink:href="#DejaVuSans-48"/>
      </g>
     </g>
    </g>
    <g id="ytick_7">
     <g id="line2d_15">
      <g>
       <use style="stroke:#000000;stroke-width:0.8;" x="57.6" xlink:href="#ma6c74b994c" y="53.968511"/>
      </g>
     </g>
     <g id="text_15">
      <!-- 140 -->
      <g transform="translate(31.5125 57.76773)scale(0.1 -0.1)">
       <use xlink:href="#DejaVuSans-49"/>
       <use x="63.623047" xlink:href="#DejaVuSans-52"/>
       <use x="127.246094" xlink:href="#DejaVuSans-48"/>
      </g>
     </g>
    </g>
   </g>
   <g id="line2d_16">
    <path clip-path="url(#pb01316de15)" d="M 178.125664 295.249121 
L 177.936351 285.99137 
L 177.997599 280.410364 
L 178.246304 274.831214 
L 178.728865 269.272479 
L 179.487971 263.752721 
L 180.170981 260.10196 
L 181.008039 256.482751 
L 182.008425 252.900662 
L 183.161004 249.363117 
L 184.465776 245.879396 
L 185.913459 242.453212 
L 187.498487 239.097555 
L 189.222716 235.812427 
L 191.082432 232.601539 
L 193.079493 229.468603 
L 195.215755 226.409907 
L 197.493073 223.432876 
L 199.913303 220.55978 
L 202.491293 217.840733 
L 205.23818 215.322135 
L 208.166956 213.055953 
L 211.285043 211.086732 
L 214.579452 209.412616 
L 218.011204 207.97978 
L 221.537613 206.732545 
L 226.912603 205.088125 
L 239.399803 201.450356 
L 244.65972 199.650031 
L 248.117457 198.272876 
L 251.515801 196.736104 
L 254.830626 195.02858 
L 258.035946 193.137311 
L 261.107633 191.053018 
L 264.030841 188.771988 
L 266.81856 186.320206 
L 269.491207 183.732935 
L 273.333136 179.671997 
L 278.232989 174.068719 
L 281.703718 169.714532 
L 283.882667 166.707804 
L 285.927984 163.598996 
L 287.819253 160.376972 
L 289.524921 157.045444 
L 291.009725 153.617403 
L 292.242112 150.103986 
L 293.190531 146.520041 
L 293.832708 142.874848 
L 294.207621 139.183254 
L 294.369094 135.461965 
L 294.320837 129.856831 
L 293.955205 122.41054 
L 293.496771 116.862942 
L 292.849026 111.341328 
L 291.984128 105.841986 
L 290.855677 100.385332 
L 289.931386 96.782827 
L 288.84748 93.22301 
L 287.589108 89.711449 
L 286.137713 86.270417 
L 284.476589 82.929608 
L 282.583464 79.71872 
L 280.441634 76.667448 
L 278.03254 73.807345 
L 275.36175 71.171818 
L 272.457102 68.788708 
L 269.348294 66.693279 
L 266.06131 64.917083 
L 262.629557 63.487959 
L 259.07902 62.411476 
L 255.433827 61.657938 
L 251.718106 61.195793 
L 247.961552 60.999057 
L 244.186439 61.036177 
L 240.418749 61.277457 
L 236.684468 61.695058 
L 231.20183 62.585941 
L 227.660573 63.313495 
L 227.660573 63.313495 
" style="fill:none;stroke:#fea952;stroke-linecap:square;"/>
   </g>
   <g id="line2d_17">
    <path clip-path="url(#pb01316de15)" d="M 170.705489 295.488 
L 170.525506 287.901145 
L 170.577356 280.173626 
L 170.841454 274.298064 
L 171.357484 268.38999 
L 172.177144 262.461266 
L 172.920447 258.506398 
L 173.836294 254.563865 
L 174.92499 250.677827 
L 176.182664 246.829579 
L 177.596506 243.063514 
L 179.168415 239.35153 
L 180.888218 235.718148 
L 182.760471 232.157916 
L 184.781463 228.675493 
L 186.951672 225.277439 
L 189.269482 221.964921 
L 191.752102 218.72572 
L 194.447981 215.53521 
L 197.372385 212.463667 
L 200.567001 209.551854 
L 204.050575 206.877647 
L 207.784028 204.540058 
L 211.611163 202.607815 
L 215.458703 201.008354 
L 219.273886 199.662072 
L 224.863334 197.952542 
L 238.758158 193.855565 
L 243.575464 192.112278 
L 246.685304 190.79833 
L 249.695621 189.352372 
L 252.580505 187.769717 
L 255.320075 186.046611 
L 257.928311 184.155228 
L 260.463726 182.055844 
L 262.948001 179.762312 
L 266.604544 176.022161 
L 271.366729 170.688892 
L 274.689861 166.654395 
L 277.72842 162.555541 
L 279.578285 159.75226 
L 281.261938 156.895928 
L 282.762816 153.981135 
L 284.051435 151.029304 
L 285.106549 148.054646 
L 285.906703 145.084108 
L 286.459793 142.00526 
L 286.795193 138.768573 
L 286.94531 135.402929 
L 286.901835 130.129697 
L 286.550431 122.944752 
L 286.113912 117.643607 
L 285.500367 112.396444 
L 284.688192 107.215077 
L 283.645972 102.156267 
L 282.332787 97.240394 
L 281.282894 94.051421 
L 280.092232 90.967391 
L 278.741791 87.999547 
L 277.236487 85.195688 
L 275.557335 82.561107 
L 273.700251 80.120337 
L 271.634575 77.861314 
L 269.359667 75.792379 
L 266.923954 73.955984 
L 264.356992 72.379867 
L 261.686575 71.082748 
L 258.879685 70.061635 
L 255.919433 69.296663 
L 252.804679 68.775596 
L 249.572825 68.48681 
L 246.256438 68.411553 
L 242.870134 68.53484 
L 239.449694 68.835587 
L 234.329706 69.564988 
L 229.210879 70.573839 
L 229.210879 70.573839 
" style="fill:none;stroke:#ffffff;stroke-linecap:square;"/>
   </g>
   <g id="line2d_18">
    <path clip-path="url(#pb01316de15)" d="M 185.545838 295.010242 
L 185.360366 285.998779 
L 185.473535 278.881869 
L 185.776598 273.611958 
L 186.304948 268.435987 
L 187.094168 263.363407 
L 188.179784 258.401637 
L 189.598586 253.502856 
L 190.721491 250.28876 
L 192.658504 245.554893 
L 194.879126 240.966323 
L 197.383402 236.527585 
L 200.176509 232.24021 
L 202.183079 229.485937 
L 204.298508 226.837648 
L 206.490951 224.369259 
L 208.757683 222.118179 
L 211.092857 220.125082 
L 213.511606 218.405263 
L 216.137221 216.903486 
L 219.033517 215.565282 
L 222.163512 214.363541 
L 227.206017 212.738983 
L 243.560432 207.90556 
L 247.33372 206.575765 
L 251.093531 205.074276 
L 254.824103 203.382245 
L 258.506799 201.478526 
L 262.102533 199.348504 
L 265.582236 196.977035 
L 268.859881 194.41082 
L 271.925417 191.708718 
L 274.803291 188.919246 
L 278.84916 184.640854 
L 282.697578 180.28452 
L 286.453248 175.71458 
L 288.86272 172.518455 
L 291.171036 169.175559 
L 293.348961 165.671886 
L 295.354969 162.007996 
L 297.158017 158.177609 
L 298.70974 154.196354 
L 299.969661 150.0684 
L 300.884786 145.84252 
L 301.447045 141.664344 
L 301.73204 137.554512 
L 301.807664 133.528475 
L 301.669065 127.664647 
L 301.219947 119.941716 
L 300.675667 114.157673 
L 299.919784 108.355114 
L 298.910764 102.513141 
L 297.583837 96.660553 
L 296.486911 92.754307 
L 295.198238 88.871903 
L 293.686557 84.995914 
L 291.926334 81.170782 
L 289.882957 77.41552 
L 287.530867 73.780517 
L 284.84074 70.304344 
L 281.820963 67.058458 
L 278.513009 64.101332 
L 274.927843 61.449907 
L 271.091589 59.146975 
L 269.090916 58.139359 
L 267.039556 57.233206 
L 262.856733 55.756136 
L 258.611975 54.694799 
L 254.362102 54.009464 
L 250.114257 53.648648 
L 245.891553 53.568 
L 241.731342 53.730538 
L 237.642387 54.097953 
L 233.640166 54.633676 
L 227.866047 55.678237 
L 226.110267 56.05315 
L 226.110267 56.05315 
" style="fill:none;stroke:#ffffff;stroke-linecap:square;"/>
   </g>
   <g id="patch_3">
    <path d="M 57.6 307.584 
L 57.6 41.472 
" style="fill:none;stroke:#000000;stroke-linecap:square;stroke-linejoin:miter;stroke-width:0.8;"/>
   </g>
   <g id="patch_4">
    <path d="M 414.72 307.584 
L 414.72 41.472 
" style="fill:none;stroke:#000000;stroke-linecap:square;stroke-linejoin:miter;stroke-width:0.8;"/>
   </g>
   <g id="patch_5">
    <path d="M 57.6 307.584 
L 414.72 307.584 
" style="fill:none;stroke:#000000;stroke-linecap:square;stroke-linejoin:miter;stroke-width:0.8;"/>
   </g>
   <g id="patch_6">
    <path d="M 57.6 41.472 
L 414.72 41.472 
" style="fill:none;stroke:#000000;stroke-linecap:square;stroke-linejoin:miter;stroke-width:0.8;"/>
   </g>
  </g>
 </g>
 <defs>
  <clipPath id="pb01316de15">
   <rect height="266.112" width="357.12" x="57.6" y="41.472"/>
  </clipPath>
 </defs>
</svg>
