<?xml version="1.0" encoding="utf-8" standalone="no"?>
<!DOCTYPE svg PUBLIC "-//W3C//DTD SVG 1.1//EN"
  "http://www.w3.org/Graphics/SVG/1.1/DTD/svg11.dtd">
<!-- Created with matplotlib (https://matplotlib.org/) -->
<svg height="345.6pt" version="1.1" viewBox="0 0 460.8 345.6" width="460.8pt" xmlns="http://www.w3.org/2000/svg" xmlns:xlink="http://www.w3.org/1999/xlink">
 <metadata>
  <rdf:RDF xmlns:cc="http://creativecommons.org/ns#" xmlns:dc="http://purl.org/dc/elements/1.1/" xmlns:rdf="http://www.w3.org/1999/02/22-rdf-syntax-ns#">
   <cc:Work>
    <dc:type rdf:resource="http://purl.org/dc/dcmitype/StillImage"/>
    <dc:date>2021-01-25T10:10:20.961035</dc:date>
    <dc:format>image/svg+xml</dc:format>
    <dc:creator>
     <cc:Agent>
      <dc:title>Matplotlib v3.3.3, https://matplotlib.org/</dc:title>
     </cc:Agent>
    </dc:creator>
   </cc:Work>
  </rdf:RDF>
 </metadata>
 <defs>
  <style type="text/css">*{stroke-linecap:butt;stroke-linejoin:round;}</style>
 </defs>
 <g id="figure_1">
  <g id="patch_1">
   <path d="M 0 345.6 
L 460.8 345.6 
L 460.8 0 
L 0 0 
z
" style="fill:#ffffff;"/>
  </g>
  <g id="axes_1">
   <g id="patch_2">
    <path d="M 57.6 307.584 
L 414.72 307.584 
L 414.72 41.472 
L 57.6 41.472 
z
" style="fill:#7d9051;"/>
   </g>
   <g id="matplotlib.axis_1">
    <g id="xtick_1">
     <g id="line2d_1">
      <defs>
       <path d="M 0 0 
L 0 3.5 
" id="mcb9e7e7be2" style="stroke:#000000;stroke-width:0.8;"/>
      </defs>
      <g>
       <use style="stroke:#000000;stroke-width:0.8;" x="69.505771" xlink:href="#mcb9e7e7be2" y="307.584"/>
      </g>
     </g>
     <g id="text_1">
      <!-- −20 -->
      <g transform="translate(58.953427 322.182437)scale(0.1 -0.1)">
       <defs>
        <path d="M 10.59375 35.5 
L 73.1875 35.5 
L 73.1875 27.203125 
L 10.59375 27.203125 
z
" id="DejaVuSans-8722"/>
        <path d="M 19.1875 8.296875 
L 53.609375 8.296875 
L 53.609375 0 
L 7.328125 0 
L 7.328125 8.296875 
Q 12.9375 14.109375 22.625 23.890625 
Q 32.328125 33.6875 34.8125 36.53125 
Q 39.546875 41.84375 41.421875 45.53125 
Q 43.3125 49.21875 43.3125 52.78125 
Q 43.3125 58.59375 39.234375 62.25 
Q 35.15625 65.921875 28.609375 65.921875 
Q 23.96875 65.921875 18.8125 64.3125 
Q 13.671875 62.703125 7.8125 59.421875 
L 7.8125 69.390625 
Q 13.765625 71.78125 18.9375 73 
Q 24.125 74.21875 28.421875 74.21875 
Q 39.75 74.21875 46.484375 68.546875 
Q 53.21875 62.890625 53.21875 53.421875 
Q 53.21875 48.921875 51.53125 44.890625 
Q 49.859375 40.875 45.40625 35.40625 
Q 44.1875 33.984375 37.640625 27.21875 
Q 31.109375 20.453125 19.1875 8.296875 
z
" id="DejaVuSans-50"/>
        <path d="M 31.78125 66.40625 
Q 24.171875 66.40625 20.328125 58.90625 
Q 16.5 51.421875 16.5 36.375 
Q 16.5 21.390625 20.328125 13.890625 
Q 24.171875 6.390625 31.78125 6.390625 
Q 39.453125 6.390625 43.28125 13.890625 
Q 47.125 21.390625 47.125 36.375 
Q 47.125 51.421875 43.28125 58.90625 
Q 39.453125 66.40625 31.78125 66.40625 
z
M 31.78125 74.21875 
Q 44.046875 74.21875 50.515625 64.515625 
Q 56.984375 54.828125 56.984375 36.375 
Q 56.984375 17.96875 50.515625 8.265625 
Q 44.046875 -1.421875 31.78125 -1.421875 
Q 19.53125 -1.421875 13.0625 8.265625 
Q 6.59375 17.96875 6.59375 36.375 
Q 6.59375 54.828125 13.0625 64.515625 
Q 19.53125 74.21875 31.78125 74.21875 
z
" id="DejaVuSans-48"/>
       </defs>
       <use xlink:href="#DejaVuSans-8722"/>
       <use x="83.789062" xlink:href="#DejaVuSans-50"/>
       <use x="147.412109" xlink:href="#DejaVuSans-48"/>
      </g>
     </g>
    </g>
    <g id="xtick_2">
     <g id="line2d_2">
      <g>
       <use style="stroke:#000000;stroke-width:0.8;" x="118.838299" xlink:href="#mcb9e7e7be2" y="307.584"/>
      </g>
     </g>
     <g id="text_2">
      <!-- 0 -->
      <g transform="translate(115.657049 322.182437)scale(0.1 -0.1)">
       <use xlink:href="#DejaVuSans-48"/>
      </g>
     </g>
    </g>
    <g id="xtick_3">
     <g id="line2d_3">
      <g>
       <use style="stroke:#000000;stroke-width:0.8;" x="168.170828" xlink:href="#mcb9e7e7be2" y="307.584"/>
      </g>
     </g>
     <g id="text_3">
      <!-- 20 -->
      <g transform="translate(161.808328 322.182437)scale(0.1 -0.1)">
       <use xlink:href="#DejaVuSans-50"/>
       <use x="63.623047" xlink:href="#DejaVuSans-48"/>
      </g>
     </g>
    </g>
    <g id="xtick_4">
     <g id="line2d_4">
      <g>
       <use style="stroke:#000000;stroke-width:0.8;" x="217.503357" xlink:href="#mcb9e7e7be2" y="307.584"/>
      </g>
     </g>
     <g id="text_4">
      <!-- 40 -->
      <g transform="translate(211.140857 322.182437)scale(0.1 -0.1)">
       <defs>
        <path d="M 37.796875 64.3125 
L 12.890625 25.390625 
L 37.796875 25.390625 
z
M 35.203125 72.90625 
L 47.609375 72.90625 
L 47.609375 25.390625 
L 58.015625 25.390625 
L 58.015625 17.1875 
L 47.609375 17.1875 
L 47.609375 0 
L 37.796875 0 
L 37.796875 17.1875 
L 4.890625 17.1875 
L 4.890625 26.703125 
z
" id="DejaVuSans-52"/>
       </defs>
       <use xlink:href="#DejaVuSans-52"/>
       <use x="63.623047" xlink:href="#DejaVuSans-48"/>
      </g>
     </g>
    </g>
    <g id="xtick_5">
     <g id="line2d_5">
      <g>
       <use style="stroke:#000000;stroke-width:0.8;" x="266.835885" xlink:href="#mcb9e7e7be2" y="307.584"/>
      </g>
     </g>
     <g id="text_5">
      <!-- 60 -->
      <g transform="translate(260.473385 322.182437)scale(0.1 -0.1)">
       <defs>
        <path d="M 33.015625 40.375 
Q 26.375 40.375 22.484375 35.828125 
Q 18.609375 31.296875 18.609375 23.390625 
Q 18.609375 15.53125 22.484375 10.953125 
Q 26.375 6.390625 33.015625 6.390625 
Q 39.65625 6.390625 43.53125 10.953125 
Q 47.40625 15.53125 47.40625 23.390625 
Q 47.40625 31.296875 43.53125 35.828125 
Q 39.65625 40.375 33.015625 40.375 
z
M 52.59375 71.296875 
L 52.59375 62.3125 
Q 48.875 64.0625 45.09375 64.984375 
Q 41.3125 65.921875 37.59375 65.921875 
Q 27.828125 65.921875 22.671875 59.328125 
Q 17.53125 52.734375 16.796875 39.40625 
Q 19.671875 43.65625 24.015625 45.921875 
Q 28.375 48.1875 33.59375 48.1875 
Q 44.578125 48.1875 50.953125 41.515625 
Q 57.328125 34.859375 57.328125 23.390625 
Q 57.328125 12.15625 50.6875 5.359375 
Q 44.046875 -1.421875 33.015625 -1.421875 
Q 20.359375 -1.421875 13.671875 8.265625 
Q 6.984375 17.96875 6.984375 36.375 
Q 6.984375 53.65625 15.1875 63.9375 
Q 23.390625 74.21875 37.203125 74.21875 
Q 40.921875 74.21875 44.703125 73.484375 
Q 48.484375 72.75 52.59375 71.296875 
z
" id="DejaVuSans-54"/>
       </defs>
       <use xlink:href="#DejaVuSans-54"/>
       <use x="63.623047" xlink:href="#DejaVuSans-48"/>
      </g>
     </g>
    </g>
    <g id="xtick_6">
     <g id="line2d_6">
      <g>
       <use style="stroke:#000000;stroke-width:0.8;" x="316.168414" xlink:href="#mcb9e7e7be2" y="307.584"/>
      </g>
     </g>
     <g id="text_6">
      <!-- 80 -->
      <g transform="translate(309.805914 322.182437)scale(0.1 -0.1)">
       <defs>
        <path d="M 31.78125 34.625 
Q 24.75 34.625 20.71875 30.859375 
Q 16.703125 27.09375 16.703125 20.515625 
Q 16.703125 13.921875 20.71875 10.15625 
Q 24.75 6.390625 31.78125 6.390625 
Q 38.8125 6.390625 42.859375 10.171875 
Q 46.921875 13.96875 46.921875 20.515625 
Q 46.921875 27.09375 42.890625 30.859375 
Q 38.875 34.625 31.78125 34.625 
z
M 21.921875 38.8125 
Q 15.578125 40.375 12.03125 44.71875 
Q 8.5 49.078125 8.5 55.328125 
Q 8.5 64.0625 14.71875 69.140625 
Q 20.953125 74.21875 31.78125 74.21875 
Q 42.671875 74.21875 48.875 69.140625 
Q 55.078125 64.0625 55.078125 55.328125 
Q 55.078125 49.078125 51.53125 44.71875 
Q 48 40.375 41.703125 38.8125 
Q 48.828125 37.15625 52.796875 32.3125 
Q 56.78125 27.484375 56.78125 20.515625 
Q 56.78125 9.90625 50.3125 4.234375 
Q 43.84375 -1.421875 31.78125 -1.421875 
Q 19.734375 -1.421875 13.25 4.234375 
Q 6.78125 9.90625 6.78125 20.515625 
Q 6.78125 27.484375 10.78125 32.3125 
Q 14.796875 37.15625 21.921875 38.8125 
z
M 18.3125 54.390625 
Q 18.3125 48.734375 21.84375 45.5625 
Q 25.390625 42.390625 31.78125 42.390625 
Q 38.140625 42.390625 41.71875 45.5625 
Q 45.3125 48.734375 45.3125 54.390625 
Q 45.3125 60.0625 41.71875 63.234375 
Q 38.140625 66.40625 31.78125 66.40625 
Q 25.390625 66.40625 21.84375 63.234375 
Q 18.3125 60.0625 18.3125 54.390625 
z
" id="DejaVuSans-56"/>
       </defs>
       <use xlink:href="#DejaVuSans-56"/>
       <use x="63.623047" xlink:href="#DejaVuSans-48"/>
      </g>
     </g>
    </g>
    <g id="xtick_7">
     <g id="line2d_7">
      <g>
       <use style="stroke:#000000;stroke-width:0.8;" x="365.500943" xlink:href="#mcb9e7e7be2" y="307.584"/>
      </g>
     </g>
     <g id="text_7">
      <!-- 100 -->
      <g transform="translate(355.957193 322.182437)scale(0.1 -0.1)">
       <defs>
        <path d="M 12.40625 8.296875 
L 28.515625 8.296875 
L 28.515625 63.921875 
L 10.984375 60.40625 
L 10.984375 69.390625 
L 28.421875 72.90625 
L 38.28125 72.90625 
L 38.28125 8.296875 
L 54.390625 8.296875 
L 54.390625 0 
L 12.40625 0 
z
" id="DejaVuSans-49"/>
       </defs>
       <use xlink:href="#DejaVuSans-49"/>
       <use x="63.623047" xlink:href="#DejaVuSans-48"/>
       <use x="127.246094" xlink:href="#DejaVuSans-48"/>
      </g>
     </g>
    </g>
   </g>
   <g id="matplotlib.axis_2">
    <g id="ytick_1">
     <g id="line2d_8">
      <defs>
       <path d="M 0 0 
L -3.5 0 
" id="m4d502c8c36" style="stroke:#000000;stroke-width:0.8;"/>
      </defs>
      <g>
       <use style="stroke:#000000;stroke-width:0.8;" x="57.6" xlink:href="#m4d502c8c36" y="261.641109"/>
      </g>
     </g>
     <g id="text_8">
      <!-- 20 -->
      <g transform="translate(37.875 265.440328)scale(0.1 -0.1)">
       <use xlink:href="#DejaVuSans-50"/>
       <use x="63.623047" xlink:href="#DejaVuSans-48"/>
      </g>
     </g>
    </g>
    <g id="ytick_2">
     <g id="line2d_9">
      <g>
       <use style="stroke:#000000;stroke-width:0.8;" x="57.6" xlink:href="#m4d502c8c36" y="212.30858"/>
      </g>
     </g>
     <g id="text_9">
      <!-- 40 -->
      <g transform="translate(37.875 216.107799)scale(0.1 -0.1)">
       <use xlink:href="#DejaVuSans-52"/>
       <use x="63.623047" xlink:href="#DejaVuSans-48"/>
      </g>
     </g>
    </g>
    <g id="ytick_3">
     <g id="line2d_10">
      <g>
       <use style="stroke:#000000;stroke-width:0.8;" x="57.6" xlink:href="#m4d502c8c36" y="162.976052"/>
      </g>
     </g>
     <g id="text_10">
      <!-- 60 -->
      <g transform="translate(37.875 166.77527)scale(0.1 -0.1)">
       <use xlink:href="#DejaVuSans-54"/>
       <use x="63.623047" xlink:href="#DejaVuSans-48"/>
      </g>
     </g>
    </g>
    <g id="ytick_4">
     <g id="line2d_11">
      <g>
       <use style="stroke:#000000;stroke-width:0.8;" x="57.6" xlink:href="#m4d502c8c36" y="113.643523"/>
      </g>
     </g>
     <g id="text_11">
      <!-- 80 -->
      <g transform="translate(37.875 117.442742)scale(0.1 -0.1)">
       <use xlink:href="#DejaVuSans-56"/>
       <use x="63.623047" xlink:href="#DejaVuSans-48"/>
      </g>
     </g>
    </g>
    <g id="ytick_5">
     <g id="line2d_12">
      <g>
       <use style="stroke:#000000;stroke-width:0.8;" x="57.6" xlink:href="#m4d502c8c36" y="64.310994"/>
      </g>
     </g>
     <g id="text_12">
      <!-- 100 -->
      <g transform="translate(31.5125 68.110213)scale(0.1 -0.1)">
       <use xlink:href="#DejaVuSans-49"/>
       <use x="63.623047" xlink:href="#DejaVuSans-48"/>
       <use x="127.246094" xlink:href="#DejaVuSans-48"/>
      </g>
     </g>
    </g>
   </g>
   <g id="line2d_13">
    <path clip-path="url(#pf59715d51c)" d="M 143.504564 136.452418 
L 142.964372 134.022791 
L 142.549979 131.570964 
L 142.258917 129.101871 
L 142.08872 126.622911 
L 142.039387 124.134085 
L 142.108453 121.647726 
L 142.29345 119.161366 
L 142.591912 116.68734 
L 143.001372 114.225647 
L 144.153286 109.371326 
L 145.731927 104.635403 
L 147.722495 100.067211 
L 148.864543 97.857114 
L 150.105256 95.703749 
L 151.442167 93.614516 
L 152.872811 91.591883 
L 154.392253 89.643248 
L 156.00296 87.771078 
L 159.466103 84.251202 
L 163.212909 81.017455 
L 167.19651 78.047637 
L 171.367576 75.326948 
L 175.676772 72.833189 
L 180.099433 70.573759 
L 184.633093 68.575792 
L 189.27035 66.868886 
L 194.011206 65.480175 
L 198.850727 64.439259 
L 203.766714 63.763403 
L 208.7271 63.450142 
L 213.692419 63.501941 
L 218.630605 63.923734 
L 223.502192 64.713055 
L 228.302247 65.82797 
L 233.04557 67.187081 
L 240.100121 69.485977 
L 254.174692 74.142967 
L 263.518273 77.295316 
L 270.439626 79.907473 
L 274.990552 81.828975 
L 279.474879 83.908341 
L 283.872874 86.162838 
L 288.169737 88.602332 
L 292.348202 91.241622 
L 296.39347 94.088109 
L 300.28334 97.146725 
L 303.993146 100.422405 
L 307.503155 103.915148 
L 310.791168 107.629888 
L 313.832519 111.56169 
L 316.600074 115.688356 
L 319.064233 119.99262 
L 321.192932 124.454747 
L 322.96397 129.055005 
L 324.392146 133.771195 
L 325.539128 138.576183 
L 326.461646 143.442837 
L 327.566695 150.798317 
L 328.750675 160.60809 
L 329.441331 167.97097 
L 329.942056 175.34865 
L 330.233118 182.750996 
L 330.247918 190.160742 
L 330.072787 195.093995 
L 329.72006 200.014914 
L 329.177402 204.913634 
L 328.062487 212.229648 
L 326.676243 219.508663 
L 324.567277 229.160572 
L 322.72224 236.328589 
L 321.259531 241.042312 
L 319.537826 245.682036 
L 317.500392 250.228029 
L 315.112698 254.638357 
L 312.377209 258.834088 
L 310.875034 260.824656 
L 309.288993 262.736291 
L 307.611687 264.554195 
L 305.845582 266.2685 
L 303.993146 267.871807 
L 302.051911 269.359183 
L 300.031744 270.730628 
L 297.935111 272.00094 
L 293.554383 274.262837 
L 288.971391 276.216405 
L 284.242868 277.935643 
L 277.013186 280.222206 
L 265.104313 283.848147 
L 260.563254 285.444054 
L 258.370423 286.307373 
L 258.370423 286.307373 
" style="fill:none;stroke:#fea952;stroke-linecap:square;"/>
   </g>
   <g id="line2d_14">
    <path clip-path="url(#pf59715d51c)" d="M 133.873238 138.593799 
L 133.23584 135.66705 
L 132.751321 132.726051 
L 132.415584 129.777682 
L 132.224152 126.818443 
L 132.176686 123.860121 
L 132.269145 120.915634 
L 132.497966 117.979658 
L 132.859124 115.06846 
L 133.354021 112.157661 
L 133.976364 109.299205 
L 134.727101 106.456714 
L 135.601092 103.662076 
L 136.601725 100.895438 
L 137.721119 98.188276 
L 138.957101 95.537772 
L 140.315548 92.931404 
L 141.794624 90.38573 
L 143.386998 87.916957 
L 145.092093 85.524893 
L 146.912881 83.208426 
L 148.822226 81.004617 
L 150.812558 78.905789 
L 152.878825 76.905748 
L 157.18536 73.206144 
L 161.689747 69.86085 
L 166.314317 66.852722 
L 171.073411 64.106391 
L 175.987831 61.604775 
L 181.079353 59.371506 
L 186.334152 57.449402 
L 191.757423 55.874531 
L 197.329064 54.690799 
L 202.95383 53.930441 
L 208.648719 53.583947 
L 214.34938 53.657331 
L 220.028696 54.156786 
L 225.594443 55.070937 
L 230.917498 56.314379 
L 236.008674 57.776026 
L 243.267358 60.141644 
L 257.244371 64.766134 
L 266.877387 68.018232 
L 274.202241 70.786581 
L 279.057014 72.839436 
L 283.887315 75.08347 
L 288.651918 77.530997 
L 293.341297 80.199778 
L 297.922831 83.100894 
L 302.383958 86.24834 
L 306.708427 89.65899 
L 310.84584 93.323919 
L 314.786876 97.259673 
L 318.493705 101.463944 
L 321.928791 105.922691 
L 325.075211 110.636625 
L 327.887136 115.57625 
L 330.327672 120.725879 
L 331.402401 123.379728 
L 333.209728 128.704581 
L 334.622435 133.998472 
L 335.737245 139.265166 
L 336.616263 144.427089 
L 337.680592 152.029988 
L 338.566739 159.611686 
L 339.279238 167.220287 
L 339.796252 174.85594 
L 340.098366 182.593467 
L 340.110836 190.426774 
L 339.919693 195.715593 
L 339.536023 201.012311 
L 338.952289 206.255092 
L 338.200941 211.421928 
L 336.835934 219.0271 
L 334.735794 228.964824 
L 332.889487 236.566011 
L 331.406685 241.731194 
L 329.63344 246.935036 
L 327.492414 252.161274 
L 324.932943 257.323373 
L 323.489823 259.851006 
L 321.937215 262.329445 
L 320.252813 264.777387 
L 318.468328 267.124641 
L 316.540444 269.426911 
L 314.483765 271.633918 
L 312.30254 273.72877 
L 309.993941 275.703691 
L 307.593674 277.52232 
L 305.14447 279.169108 
L 302.645835 280.670255 
L 300.11576 282.035081 
L 295.006451 284.411953 
L 289.885262 286.412699 
L 284.797827 288.141037 
L 275.028735 291.104909 
L 268.278568 293.190098 
L 264.177674 294.624681 
L 261.984843 295.488 
L 261.984843 295.488 
" style="fill:none;stroke:#ffffff;stroke-linecap:square;"/>
   </g>
   <g id="line2d_15">
    <path clip-path="url(#pf59715d51c)" d="M 153.135889 134.311037 
L 152.348638 130.415877 
L 151.953288 126.42738 
L 151.947761 122.379817 
L 152.3247 118.306221 
L 153.072229 114.273102 
L 154.180523 110.31012 
L 155.632171 106.46994 
L 157.413538 102.782824 
L 159.497337 99.312075 
L 161.871624 96.07807 
L 164.577572 93.044959 
L 167.610025 90.191142 
L 170.944114 87.507303 
L 174.53413 84.998162 
L 178.335878 82.655282 
L 182.247707 80.518269 
L 186.198957 78.6267 
L 190.200987 76.997155 
L 194.23866 75.648804 
L 198.31394 74.598073 
L 202.465976 73.854311 
L 206.673904 73.415774 
L 210.926689 73.292818 
L 215.146276 73.480571 
L 219.319478 73.982615 
L 223.540042 74.813105 
L 227.860336 75.936625 
L 234.616597 78.053394 
L 264.53335 88.187114 
L 268.810963 89.907221 
L 273.008286 91.759408 
L 277.096181 93.747856 
L 281.070766 95.886627 
L 284.908064 98.177234 
L 288.610228 100.636173 
L 292.15393 103.261036 
L 295.525959 106.060279 
L 298.709508 109.029327 
L 301.68501 112.167229 
L 304.441373 115.476913 
L 306.963368 118.951827 
L 309.222918 122.57023 
L 311.187589 126.283519 
L 312.848233 130.097957 
L 314.227787 134.096953 
L 315.370505 138.329172 
L 316.312861 142.741521 
L 317.453157 149.695667 
L 318.674099 159.231757 
L 319.400896 166.353182 
L 319.947216 173.469231 
L 320.301404 180.557781 
L 320.41172 187.573377 
L 320.225881 194.472396 
L 319.904096 199.017518 
L 319.402514 203.572177 
L 318.351521 210.484632 
L 317.016799 217.497922 
L 314.976532 226.844205 
L 313.264545 233.517907 
L 311.961162 237.742573 
L 310.464526 241.806063 
L 308.732556 245.70332 
L 306.735573 249.425708 
L 304.501606 252.890789 
L 302.037542 256.045671 
L 299.388624 258.80823 
L 297.992351 260.039924 
L 296.510148 261.196047 
L 293.224388 263.331625 
L 289.538128 265.250754 
L 285.493231 266.983294 
L 281.151709 268.565869 
L 274.202005 270.764659 
L 261.930059 274.506196 
L 256.948834 276.263428 
L 254.756003 277.126747 
L 254.756003 277.126747 
" style="fill:none;stroke:#ffffff;stroke-linecap:square;"/>
   </g>
   <g id="patch_3">
    <path d="M 57.6 307.584 
L 57.6 41.472 
" style="fill:none;stroke:#000000;stroke-linecap:square;stroke-linejoin:miter;stroke-width:0.8;"/>
   </g>
   <g id="patch_4">
    <path d="M 414.72 307.584 
L 414.72 41.472 
" style="fill:none;stroke:#000000;stroke-linecap:square;stroke-linejoin:miter;stroke-width:0.8;"/>
   </g>
   <g id="patch_5">
    <path d="M 57.6 307.584 
L 414.72 307.584 
" style="fill:none;stroke:#000000;stroke-linecap:square;stroke-linejoin:miter;stroke-width:0.8;"/>
   </g>
   <g id="patch_6">
    <path d="M 57.6 41.472 
L 414.72 41.472 
" style="fill:none;stroke:#000000;stroke-linecap:square;stroke-linejoin:miter;stroke-width:0.8;"/>
   </g>
  </g>
 </g>
 <defs>
  <clipPath id="pf59715d51c">
   <rect height="266.112" width="357.12" x="57.6" y="41.472"/>
  </clipPath>
 </defs>
</svg>
