<?xml version="1.0" encoding="utf-8" standalone="no"?>
<!DOCTYPE svg PUBLIC "-//W3C//DTD SVG 1.1//EN"
  "http://www.w3.org/Graphics/SVG/1.1/DTD/svg11.dtd">
<!-- Created with matplotlib (https://matplotlib.org/) -->
<svg height="345.6pt" version="1.1" viewBox="0 0 460.8 345.6" width="460.8pt" xmlns="http://www.w3.org/2000/svg" xmlns:xlink="http://www.w3.org/1999/xlink">
 <metadata>
  <rdf:RDF xmlns:cc="http://creativecommons.org/ns#" xmlns:dc="http://purl.org/dc/elements/1.1/" xmlns:rdf="http://www.w3.org/1999/02/22-rdf-syntax-ns#">
   <cc:Work>
    <dc:type rdf:resource="http://purl.org/dc/dcmitype/StillImage"/>
    <dc:date>2021-01-23T13:27:01.675041</dc:date>
    <dc:format>image/svg+xml</dc:format>
    <dc:creator>
     <cc:Agent>
      <dc:title>Matplotlib v3.3.3, https://matplotlib.org/</dc:title>
     </cc:Agent>
    </dc:creator>
   </cc:Work>
  </rdf:RDF>
 </metadata>
 <defs>
  <style type="text/css">*{stroke-linecap:butt;stroke-linejoin:round;}</style>
 </defs>
 <g id="figure_1">
  <g id="patch_1">
   <path d="M 0 345.6 
L 460.8 345.6 
L 460.8 0 
L 0 0 
z
" style="fill:#ffffff;"/>
  </g>
  <g id="axes_1">
   <g id="patch_2">
    <path d="M 57.6 307.584 
L 414.72 307.584 
L 414.72 41.472 
L 57.6 41.472 
z
" style="fill:#7d9051;"/>
   </g>
   <g id="matplotlib.axis_1">
    <g id="xtick_1">
     <g id="line2d_1">
      <defs>
       <path d="M 0 0 
L 0 3.5 
" id="mc81b63b107" style="stroke:#000000;stroke-width:0.8;"/>
      </defs>
      <g>
       <use style="stroke:#000000;stroke-width:0.8;" x="97.944558" xlink:href="#mc81b63b107" y="307.584"/>
      </g>
     </g>
     <g id="text_1">
      <!-- 20 -->
      <g transform="translate(91.582058 322.182437)scale(0.1 -0.1)">
       <defs>
        <path d="M 19.1875 8.296875 
L 53.609375 8.296875 
L 53.609375 0 
L 7.328125 0 
L 7.328125 8.296875 
Q 12.9375 14.109375 22.625 23.890625 
Q 32.328125 33.6875 34.8125 36.53125 
Q 39.546875 41.84375 41.421875 45.53125 
Q 43.3125 49.21875 43.3125 52.78125 
Q 43.3125 58.59375 39.234375 62.25 
Q 35.15625 65.921875 28.609375 65.921875 
Q 23.96875 65.921875 18.8125 64.3125 
Q 13.671875 62.703125 7.8125 59.421875 
L 7.8125 69.390625 
Q 13.765625 71.78125 18.9375 73 
Q 24.125 74.21875 28.421875 74.21875 
Q 39.75 74.21875 46.484375 68.546875 
Q 53.21875 62.890625 53.21875 53.421875 
Q 53.21875 48.921875 51.53125 44.890625 
Q 49.859375 40.875 45.40625 35.40625 
Q 44.1875 33.984375 37.640625 27.21875 
Q 31.109375 20.453125 19.1875 8.296875 
z
" id="DejaVuSans-50"/>
        <path d="M 31.78125 66.40625 
Q 24.171875 66.40625 20.328125 58.90625 
Q 16.5 51.421875 16.5 36.375 
Q 16.5 21.390625 20.328125 13.890625 
Q 24.171875 6.390625 31.78125 6.390625 
Q 39.453125 6.390625 43.28125 13.890625 
Q 47.125 21.390625 47.125 36.375 
Q 47.125 51.421875 43.28125 58.90625 
Q 39.453125 66.40625 31.78125 66.40625 
z
M 31.78125 74.21875 
Q 44.046875 74.21875 50.515625 64.515625 
Q 56.984375 54.828125 56.984375 36.375 
Q 56.984375 17.96875 50.515625 8.265625 
Q 44.046875 -1.421875 31.78125 -1.421875 
Q 19.53125 -1.421875 13.0625 8.265625 
Q 6.59375 17.96875 6.59375 36.375 
Q 6.59375 54.828125 13.0625 64.515625 
Q 19.53125 74.21875 31.78125 74.21875 
z
" id="DejaVuSans-48"/>
       </defs>
       <use xlink:href="#DejaVuSans-50"/>
       <use x="63.623047" xlink:href="#DejaVuSans-48"/>
      </g>
     </g>
    </g>
    <g id="xtick_2">
     <g id="line2d_2">
      <g>
       <use style="stroke:#000000;stroke-width:0.8;" x="145.184457" xlink:href="#mc81b63b107" y="307.584"/>
      </g>
     </g>
     <g id="text_2">
      <!-- 40 -->
      <g transform="translate(138.821957 322.182437)scale(0.1 -0.1)">
       <defs>
        <path d="M 37.796875 64.3125 
L 12.890625 25.390625 
L 37.796875 25.390625 
z
M 35.203125 72.90625 
L 47.609375 72.90625 
L 47.609375 25.390625 
L 58.015625 25.390625 
L 58.015625 17.1875 
L 47.609375 17.1875 
L 47.609375 0 
L 37.796875 0 
L 37.796875 17.1875 
L 4.890625 17.1875 
L 4.890625 26.703125 
z
" id="DejaVuSans-52"/>
       </defs>
       <use xlink:href="#DejaVuSans-52"/>
       <use x="63.623047" xlink:href="#DejaVuSans-48"/>
      </g>
     </g>
    </g>
    <g id="xtick_3">
     <g id="line2d_3">
      <g>
       <use style="stroke:#000000;stroke-width:0.8;" x="192.424357" xlink:href="#mc81b63b107" y="307.584"/>
      </g>
     </g>
     <g id="text_3">
      <!-- 60 -->
      <g transform="translate(186.061857 322.182437)scale(0.1 -0.1)">
       <defs>
        <path d="M 33.015625 40.375 
Q 26.375 40.375 22.484375 35.828125 
Q 18.609375 31.296875 18.609375 23.390625 
Q 18.609375 15.53125 22.484375 10.953125 
Q 26.375 6.390625 33.015625 6.390625 
Q 39.65625 6.390625 43.53125 10.953125 
Q 47.40625 15.53125 47.40625 23.390625 
Q 47.40625 31.296875 43.53125 35.828125 
Q 39.65625 40.375 33.015625 40.375 
z
M 52.59375 71.296875 
L 52.59375 62.3125 
Q 48.875 64.0625 45.09375 64.984375 
Q 41.3125 65.921875 37.59375 65.921875 
Q 27.828125 65.921875 22.671875 59.328125 
Q 17.53125 52.734375 16.796875 39.40625 
Q 19.671875 43.65625 24.015625 45.921875 
Q 28.375 48.1875 33.59375 48.1875 
Q 44.578125 48.1875 50.953125 41.515625 
Q 57.328125 34.859375 57.328125 23.390625 
Q 57.328125 12.15625 50.6875 5.359375 
Q 44.046875 -1.421875 33.015625 -1.421875 
Q 20.359375 -1.421875 13.671875 8.265625 
Q 6.984375 17.96875 6.984375 36.375 
Q 6.984375 53.65625 15.1875 63.9375 
Q 23.390625 74.21875 37.203125 74.21875 
Q 40.921875 74.21875 44.703125 73.484375 
Q 48.484375 72.75 52.59375 71.296875 
z
" id="DejaVuSans-54"/>
       </defs>
       <use xlink:href="#DejaVuSans-54"/>
       <use x="63.623047" xlink:href="#DejaVuSans-48"/>
      </g>
     </g>
    </g>
    <g id="xtick_4">
     <g id="line2d_4">
      <g>
       <use style="stroke:#000000;stroke-width:0.8;" x="239.664256" xlink:href="#mc81b63b107" y="307.584"/>
      </g>
     </g>
     <g id="text_4">
      <!-- 80 -->
      <g transform="translate(233.301756 322.182437)scale(0.1 -0.1)">
       <defs>
        <path d="M 31.78125 34.625 
Q 24.75 34.625 20.71875 30.859375 
Q 16.703125 27.09375 16.703125 20.515625 
Q 16.703125 13.921875 20.71875 10.15625 
Q 24.75 6.390625 31.78125 6.390625 
Q 38.8125 6.390625 42.859375 10.171875 
Q 46.921875 13.96875 46.921875 20.515625 
Q 46.921875 27.09375 42.890625 30.859375 
Q 38.875 34.625 31.78125 34.625 
z
M 21.921875 38.8125 
Q 15.578125 40.375 12.03125 44.71875 
Q 8.5 49.078125 8.5 55.328125 
Q 8.5 64.0625 14.71875 69.140625 
Q 20.953125 74.21875 31.78125 74.21875 
Q 42.671875 74.21875 48.875 69.140625 
Q 55.078125 64.0625 55.078125 55.328125 
Q 55.078125 49.078125 51.53125 44.71875 
Q 48 40.375 41.703125 38.8125 
Q 48.828125 37.15625 52.796875 32.3125 
Q 56.78125 27.484375 56.78125 20.515625 
Q 56.78125 9.90625 50.3125 4.234375 
Q 43.84375 -1.421875 31.78125 -1.421875 
Q 19.734375 -1.421875 13.25 4.234375 
Q 6.78125 9.90625 6.78125 20.515625 
Q 6.78125 27.484375 10.78125 32.3125 
Q 14.796875 37.15625 21.921875 38.8125 
z
M 18.3125 54.390625 
Q 18.3125 48.734375 21.84375 45.5625 
Q 25.390625 42.390625 31.78125 42.390625 
Q 38.140625 42.390625 41.71875 45.5625 
Q 45.3125 48.734375 45.3125 54.390625 
Q 45.3125 60.0625 41.71875 63.234375 
Q 38.140625 66.40625 31.78125 66.40625 
Q 25.390625 66.40625 21.84375 63.234375 
Q 18.3125 60.0625 18.3125 54.390625 
z
" id="DejaVuSans-56"/>
       </defs>
       <use xlink:href="#DejaVuSans-56"/>
       <use x="63.623047" xlink:href="#DejaVuSans-48"/>
      </g>
     </g>
    </g>
    <g id="xtick_5">
     <g id="line2d_5">
      <g>
       <use style="stroke:#000000;stroke-width:0.8;" x="286.904156" xlink:href="#mc81b63b107" y="307.584"/>
      </g>
     </g>
     <g id="text_5">
      <!-- 100 -->
      <g transform="translate(277.360406 322.182437)scale(0.1 -0.1)">
       <defs>
        <path d="M 12.40625 8.296875 
L 28.515625 8.296875 
L 28.515625 63.921875 
L 10.984375 60.40625 
L 10.984375 69.390625 
L 28.421875 72.90625 
L 38.28125 72.90625 
L 38.28125 8.296875 
L 54.390625 8.296875 
L 54.390625 0 
L 12.40625 0 
z
" id="DejaVuSans-49"/>
       </defs>
       <use xlink:href="#DejaVuSans-49"/>
       <use x="63.623047" xlink:href="#DejaVuSans-48"/>
       <use x="127.246094" xlink:href="#DejaVuSans-48"/>
      </g>
     </g>
    </g>
    <g id="xtick_6">
     <g id="line2d_6">
      <g>
       <use style="stroke:#000000;stroke-width:0.8;" x="334.144055" xlink:href="#mc81b63b107" y="307.584"/>
      </g>
     </g>
     <g id="text_6">
      <!-- 120 -->
      <g transform="translate(324.600305 322.182437)scale(0.1 -0.1)">
       <use xlink:href="#DejaVuSans-49"/>
       <use x="63.623047" xlink:href="#DejaVuSans-50"/>
       <use x="127.246094" xlink:href="#DejaVuSans-48"/>
      </g>
     </g>
    </g>
    <g id="xtick_7">
     <g id="line2d_7">
      <g>
       <use style="stroke:#000000;stroke-width:0.8;" x="381.383955" xlink:href="#mc81b63b107" y="307.584"/>
      </g>
     </g>
     <g id="text_7">
      <!-- 140 -->
      <g transform="translate(371.840205 322.182437)scale(0.1 -0.1)">
       <use xlink:href="#DejaVuSans-49"/>
       <use x="63.623047" xlink:href="#DejaVuSans-52"/>
       <use x="127.246094" xlink:href="#DejaVuSans-48"/>
      </g>
     </g>
    </g>
   </g>
   <g id="matplotlib.axis_2">
    <g id="ytick_1">
     <g id="line2d_8">
      <defs>
       <path d="M 0 0 
L -3.5 0 
" id="me50b2ca23d" style="stroke:#000000;stroke-width:0.8;"/>
      </defs>
      <g>
       <use style="stroke:#000000;stroke-width:0.8;" x="57.6" xlink:href="#me50b2ca23d" y="265.08346"/>
      </g>
     </g>
     <g id="text_8">
      <!-- 0 -->
      <g transform="translate(44.2375 268.882678)scale(0.1 -0.1)">
       <use xlink:href="#DejaVuSans-48"/>
      </g>
     </g>
    </g>
    <g id="ytick_2">
     <g id="line2d_9">
      <g>
       <use style="stroke:#000000;stroke-width:0.8;" x="57.6" xlink:href="#me50b2ca23d" y="217.84356"/>
      </g>
     </g>
     <g id="text_9">
      <!-- 20 -->
      <g transform="translate(37.875 221.642779)scale(0.1 -0.1)">
       <use xlink:href="#DejaVuSans-50"/>
       <use x="63.623047" xlink:href="#DejaVuSans-48"/>
      </g>
     </g>
    </g>
    <g id="ytick_3">
     <g id="line2d_10">
      <g>
       <use style="stroke:#000000;stroke-width:0.8;" x="57.6" xlink:href="#me50b2ca23d" y="170.603661"/>
      </g>
     </g>
     <g id="text_10">
      <!-- 40 -->
      <g transform="translate(37.875 174.40288)scale(0.1 -0.1)">
       <use xlink:href="#DejaVuSans-52"/>
       <use x="63.623047" xlink:href="#DejaVuSans-48"/>
      </g>
     </g>
    </g>
    <g id="ytick_4">
     <g id="line2d_11">
      <g>
       <use style="stroke:#000000;stroke-width:0.8;" x="57.6" xlink:href="#me50b2ca23d" y="123.363761"/>
      </g>
     </g>
     <g id="text_11">
      <!-- 60 -->
      <g transform="translate(37.875 127.16298)scale(0.1 -0.1)">
       <use xlink:href="#DejaVuSans-54"/>
       <use x="63.623047" xlink:href="#DejaVuSans-48"/>
      </g>
     </g>
    </g>
    <g id="ytick_5">
     <g id="line2d_12">
      <g>
       <use style="stroke:#000000;stroke-width:0.8;" x="57.6" xlink:href="#me50b2ca23d" y="76.123862"/>
      </g>
     </g>
     <g id="text_12">
      <!-- 80 -->
      <g transform="translate(37.875 79.923081)scale(0.1 -0.1)">
       <use xlink:href="#DejaVuSans-56"/>
       <use x="63.623047" xlink:href="#DejaVuSans-48"/>
      </g>
     </g>
    </g>
   </g>
   <g id="line2d_13">
    <path clip-path="url(#p75d0ec233c)" d="M 74.324608 241.46351 
L 76.816513 241.59342 
L 79.272987 241.567438 
L 81.689308 241.395012 
L 84.067837 241.078505 
L 86.40385 240.625002 
L 88.697347 240.041589 
L 90.948329 239.335353 
L 93.15207 238.508654 
L 95.310933 237.56858 
L 97.422557 236.522217 
L 101.494636 234.129516 
L 105.361222 231.380153 
L 109.012866 228.32137 
L 112.433035 225.000405 
L 115.617004 221.459775 
L 118.562412 217.751442 
L 121.314136 213.910839 
L 125.199618 207.982231 
L 136.445076 189.927142 
L 140.042394 183.826109 
L 143.424771 177.602252 
L 146.556776 171.246123 
L 149.43841 164.764809 
L 152.076759 158.172481 
L 156.297644 147.123069 
L 158.16362 142.786446 
L 160.253985 138.556113 
L 162.637238 134.462776 
L 165.322826 130.544226 
L 168.29894 126.835894 
L 171.556131 123.368485 
L 175.087314 120.175068 
L 178.878316 117.28871 
L 182.900793 114.733032 
L 187.126402 112.534014 
L 191.519713 110.712916 
L 196.052381 109.295719 
L 200.691339 108.291871 
L 205.403519 107.689563 
L 210.153491 107.462811 
L 214.910549 107.585635 
L 219.639263 108.034414 
L 224.313651 108.771356 
L 231.25083 110.226345 
L 242.775004 112.793834 
L 249.754699 113.972469 
L 259.124733 115.224327 
L 268.492405 116.497442 
L 275.48391 117.654819 
L 282.439985 119.003519 
L 289.362992 120.543539 
L 307.760571 124.920316 
L 312.397167 125.76591 
L 317.066831 126.415459 
L 326.465209 127.388601 
L 333.515764 128.172783 
L 338.194876 128.881382 
L 342.840921 129.804922 
L 347.432639 130.967023 
L 351.951135 132.393668 
L 356.375152 134.106114 
L 360.685793 136.127982 
L 364.845266 138.468719 
L 368.803969 141.13305 
L 372.507577 144.120973 
L 374.248368 145.736578 
L 375.904126 147.43249 
L 377.472491 149.20871 
L 378.941652 151.065238 
L 380.316333 152.999712 
L 381.59181 155.000322 
L 382.768084 157.067068 
L 383.847515 159.192863 
L 385.704043 163.59326 
L 387.15667 168.156634 
L 388.200672 172.838108 
L 388.831325 177.58808 
L 389.041542 182.364034 
L 388.831325 187.116368 
L 388.191224 191.802566 
L 387.709377 194.105511 
L 387.709377 194.105511 
" style="fill:none;stroke:#fea952;stroke-linecap:square;"/>
   </g>
   <g id="line2d_14">
    <path clip-path="url(#p75d0ec233c)" d="M 74.816489 232.028343 
L 76.716588 232.145968 
L 78.600501 232.143421 
L 80.443065 232.029586 
L 84.074679 231.468622 
L 87.629882 230.489323 
L 91.115997 229.102953 
L 94.510291 227.341804 
L 97.817922 225.215356 
L 101.009107 222.763722 
L 104.051877 220.029602 
L 106.926834 217.054631 
L 109.635101 213.858042 
L 112.219294 210.429155 
L 115.961857 204.89726 
L 123.457891 192.936939 
L 129.529096 183.097722 
L 132.899461 177.248887 
L 136.022164 171.321651 
L 138.913145 165.253388 
L 141.573187 159.06871 
L 144.064162 152.645726 
L 147.579232 143.482517 
L 149.627822 138.736201 
L 152.002538 133.954163 
L 154.748668 129.263277 
L 157.842862 124.772359 
L 161.284711 120.506209 
L 165.070302 116.49838 
L 167.101844 114.592394 
L 169.203507 112.782833 
L 171.390554 111.053243 
L 173.644004 109.423197 
L 175.965695 107.888337 
L 178.360218 106.447653 
L 180.810942 105.114559 
L 183.318822 103.887243 
L 185.877964 102.770188 
L 188.495394 101.76206 
L 191.15776 100.872877 
L 193.851747 100.1076 
L 196.565019 99.46712 
L 199.299936 98.946909 
L 202.034959 98.547835 
L 207.502988 98.087245 
L 212.947219 98.042751 
L 218.322985 98.382039 
L 223.586059 99.058938 
L 228.596637 99.978438 
L 237.960885 102.081455 
L 244.487586 103.502365 
L 251.086877 104.61888 
L 260.32451 105.852835 
L 269.947496 107.162184 
L 277.203947 108.364728 
L 284.412521 109.763744 
L 291.570036 111.356958 
L 309.549713 115.643285 
L 313.788962 116.421006 
L 318.135085 117.028065 
L 327.418399 117.988827 
L 334.836065 118.81751 
L 339.918963 119.592041 
L 345.036911 120.615691 
L 350.144904 121.916722 
L 355.216916 123.528061 
L 360.232357 125.481366 
L 365.163406 127.808409 
L 369.958111 130.523712 
L 372.288589 132.03297 
L 374.566768 133.646096 
L 376.790266 135.370016 
L 378.934664 137.195882 
L 381.00865 139.136358 
L 382.98638 141.179011 
L 384.881287 143.34577 
L 386.643109 145.592408 
L 388.282967 147.920631 
L 389.803027 150.326967 
L 391.192243 152.789467 
L 392.464906 155.319248 
L 393.612966 157.898004 
L 394.639767 160.52452 
L 395.54639 163.194181 
L 396.332326 165.904597 
L 396.991346 168.625506 
L 397.537817 171.395179 
L 397.956975 174.163834 
L 398.258626 176.963323 
L 398.435322 179.770511 
L 398.487273 182.570191 
L 398.416591 185.374018 
L 398.219199 188.18039 
L 397.893621 190.964705 
L 396.957104 196.04042 
L 396.957104 196.04042 
" style="fill:none;stroke:#ffffff;stroke-linecap:square;"/>
   </g>
   <g id="line2d_15">
    <path clip-path="url(#p75d0ec233c)" d="M 73.832727 250.898677 
L 76.916438 251.040871 
L 79.945474 250.991454 
L 82.935552 250.760438 
L 85.868409 250.353324 
L 88.733022 249.781381 
L 91.525675 249.056293 
L 94.266775 248.181382 
L 96.924077 247.171003 
L 99.505869 246.034207 
L 102.018125 244.777219 
L 104.458866 243.40677 
L 106.804754 241.944051 
L 109.092262 240.379345 
L 113.421669 237.011023 
L 117.450712 233.353584 
L 121.184617 229.455151 
L 124.603365 225.390967 
L 127.702132 221.26147 
L 130.539001 217.127979 
L 134.477598 210.973763 
L 147.049979 190.588599 
L 150.690206 184.087137 
L 154.071326 177.441009 
L 157.187044 170.66528 
L 160.037928 163.783941 
L 165.844966 148.772849 
L 167.577295 144.975446 
L 169.482356 141.393154 
L 171.639161 137.96193 
L 174.029745 134.71478 
L 176.648655 131.674371 
L 179.473103 128.875575 
L 182.511301 126.330228 
L 185.759088 124.048373 
L 189.171375 122.060369 
L 192.730358 120.379901 
L 196.383628 119.031831 
L 200.155081 118.018905 
L 204.043365 117.336757 
L 208.046936 116.975374 
L 212.121545 116.920663 
L 216.236275 117.162426 
L 220.378664 117.680697 
L 224.669623 118.461833 
L 233.747832 120.501755 
L 241.062421 122.085302 
L 248.422521 123.326058 
L 257.924955 124.595818 
L 267.037314 125.8327 
L 273.763873 126.944911 
L 280.467449 128.243293 
L 287.155949 129.730121 
L 305.97143 134.197347 
L 311.005373 135.110814 
L 315.998578 135.802852 
L 325.51202 136.788375 
L 332.195464 137.528056 
L 336.47079 138.170722 
L 340.64493 138.994152 
L 344.720374 140.017324 
L 348.685354 141.259276 
L 352.517946 142.730863 
L 356.208179 144.447556 
L 359.73242 146.413726 
L 363.04117 148.620003 
L 366.080491 151.046064 
L 368.821872 153.68597 
L 371.240194 156.538069 
L 373.380594 159.673677 
L 375.230124 163.066479 
L 376.76832 166.662 
L 377.981015 170.408671 
L 378.863527 174.281037 
L 379.404024 178.212837 
L 379.595812 182.157877 
L 379.443451 186.052346 
L 378.943497 189.867657 
L 378.46165 192.170602 
L 378.46165 192.170602 
" style="fill:none;stroke:#ffffff;stroke-linecap:square;"/>
   </g>
   <g id="patch_3">
    <path d="M 57.6 307.584 
L 57.6 41.472 
" style="fill:none;stroke:#000000;stroke-linecap:square;stroke-linejoin:miter;stroke-width:0.8;"/>
   </g>
   <g id="patch_4">
    <path d="M 414.72 307.584 
L 414.72 41.472 
" style="fill:none;stroke:#000000;stroke-linecap:square;stroke-linejoin:miter;stroke-width:0.8;"/>
   </g>
   <g id="patch_5">
    <path d="M 57.6 307.584 
L 414.72 307.584 
" style="fill:none;stroke:#000000;stroke-linecap:square;stroke-linejoin:miter;stroke-width:0.8;"/>
   </g>
   <g id="patch_6">
    <path d="M 57.6 41.472 
L 414.72 41.472 
" style="fill:none;stroke:#000000;stroke-linecap:square;stroke-linejoin:miter;stroke-width:0.8;"/>
   </g>
  </g>
 </g>
 <defs>
  <clipPath id="p75d0ec233c">
   <rect height="266.112" width="357.12" x="57.6" y="41.472"/>
  </clipPath>
 </defs>
</svg>
