<?xml version="1.0" encoding="utf-8" standalone="no"?>
<!DOCTYPE svg PUBLIC "-//W3C//DTD SVG 1.1//EN"
  "http://www.w3.org/Graphics/SVG/1.1/DTD/svg11.dtd">
<!-- Created with matplotlib (https://matplotlib.org/) -->
<svg height="345.6pt" version="1.1" viewBox="0 0 460.8 345.6" width="460.8pt" xmlns="http://www.w3.org/2000/svg" xmlns:xlink="http://www.w3.org/1999/xlink">
 <metadata>
  <rdf:RDF xmlns:cc="http://creativecommons.org/ns#" xmlns:dc="http://purl.org/dc/elements/1.1/" xmlns:rdf="http://www.w3.org/1999/02/22-rdf-syntax-ns#">
   <cc:Work>
    <dc:type rdf:resource="http://purl.org/dc/dcmitype/StillImage"/>
    <dc:date>2021-01-23T11:28:58.804661</dc:date>
    <dc:format>image/svg+xml</dc:format>
    <dc:creator>
     <cc:Agent>
      <dc:title>Matplotlib v3.3.3, https://matplotlib.org/</dc:title>
     </cc:Agent>
    </dc:creator>
   </cc:Work>
  </rdf:RDF>
 </metadata>
 <defs>
  <style type="text/css">*{stroke-linecap:butt;stroke-linejoin:round;}</style>
 </defs>
 <g id="figure_1">
  <g id="patch_1">
   <path d="M 0 345.6 
L 460.8 345.6 
L 460.8 0 
L 0 0 
z
" style="fill:#ffffff;"/>
  </g>
  <g id="axes_1">
   <g id="patch_2">
    <path d="M 57.6 307.584 
L 414.72 307.584 
L 414.72 41.472 
L 57.6 41.472 
z
" style="fill:#7d9051;"/>
   </g>
   <g id="matplotlib.axis_1">
    <g id="xtick_1">
     <g id="line2d_1">
      <defs>
       <path d="M 0 0 
L 0 3.5 
" id="m1a1a673d1a" style="stroke:#000000;stroke-width:0.8;"/>
      </defs>
      <g>
       <use style="stroke:#000000;stroke-width:0.8;" x="105.072317" xlink:href="#m1a1a673d1a" y="307.584"/>
      </g>
     </g>
     <g id="text_1">
      <!-- −25 -->
      <g transform="translate(94.519974 322.182437)scale(0.1 -0.1)">
       <defs>
        <path d="M 10.59375 35.5 
L 73.1875 35.5 
L 73.1875 27.203125 
L 10.59375 27.203125 
z
" id="DejaVuSans-8722"/>
        <path d="M 19.1875 8.296875 
L 53.609375 8.296875 
L 53.609375 0 
L 7.328125 0 
L 7.328125 8.296875 
Q 12.9375 14.109375 22.625 23.890625 
Q 32.328125 33.6875 34.8125 36.53125 
Q 39.546875 41.84375 41.421875 45.53125 
Q 43.3125 49.21875 43.3125 52.78125 
Q 43.3125 58.59375 39.234375 62.25 
Q 35.15625 65.921875 28.609375 65.921875 
Q 23.96875 65.921875 18.8125 64.3125 
Q 13.671875 62.703125 7.8125 59.421875 
L 7.8125 69.390625 
Q 13.765625 71.78125 18.9375 73 
Q 24.125 74.21875 28.421875 74.21875 
Q 39.75 74.21875 46.484375 68.546875 
Q 53.21875 62.890625 53.21875 53.421875 
Q 53.21875 48.921875 51.53125 44.890625 
Q 49.859375 40.875 45.40625 35.40625 
Q 44.1875 33.984375 37.640625 27.21875 
Q 31.109375 20.453125 19.1875 8.296875 
z
" id="DejaVuSans-50"/>
        <path d="M 10.796875 72.90625 
L 49.515625 72.90625 
L 49.515625 64.59375 
L 19.828125 64.59375 
L 19.828125 46.734375 
Q 21.96875 47.46875 24.109375 47.828125 
Q 26.265625 48.1875 28.421875 48.1875 
Q 40.625 48.1875 47.75 41.5 
Q 54.890625 34.8125 54.890625 23.390625 
Q 54.890625 11.625 47.5625 5.09375 
Q 40.234375 -1.421875 26.90625 -1.421875 
Q 22.3125 -1.421875 17.546875 -0.640625 
Q 12.796875 0.140625 7.71875 1.703125 
L 7.71875 11.625 
Q 12.109375 9.234375 16.796875 8.0625 
Q 21.484375 6.890625 26.703125 6.890625 
Q 35.15625 6.890625 40.078125 11.328125 
Q 45.015625 15.765625 45.015625 23.390625 
Q 45.015625 31 40.078125 35.4375 
Q 35.15625 39.890625 26.703125 39.890625 
Q 22.75 39.890625 18.8125 39.015625 
Q 14.890625 38.140625 10.796875 36.28125 
z
" id="DejaVuSans-53"/>
       </defs>
       <use xlink:href="#DejaVuSans-8722"/>
       <use x="83.789062" xlink:href="#DejaVuSans-50"/>
       <use x="147.412109" xlink:href="#DejaVuSans-53"/>
      </g>
     </g>
    </g>
    <g id="xtick_2">
     <g id="line2d_2">
      <g>
       <use style="stroke:#000000;stroke-width:0.8;" x="153.420608" xlink:href="#m1a1a673d1a" y="307.584"/>
      </g>
     </g>
     <g id="text_2">
      <!-- 0 -->
      <g transform="translate(150.239358 322.182437)scale(0.1 -0.1)">
       <defs>
        <path d="M 31.78125 66.40625 
Q 24.171875 66.40625 20.328125 58.90625 
Q 16.5 51.421875 16.5 36.375 
Q 16.5 21.390625 20.328125 13.890625 
Q 24.171875 6.390625 31.78125 6.390625 
Q 39.453125 6.390625 43.28125 13.890625 
Q 47.125 21.390625 47.125 36.375 
Q 47.125 51.421875 43.28125 58.90625 
Q 39.453125 66.40625 31.78125 66.40625 
z
M 31.78125 74.21875 
Q 44.046875 74.21875 50.515625 64.515625 
Q 56.984375 54.828125 56.984375 36.375 
Q 56.984375 17.96875 50.515625 8.265625 
Q 44.046875 -1.421875 31.78125 -1.421875 
Q 19.53125 -1.421875 13.0625 8.265625 
Q 6.59375 17.96875 6.59375 36.375 
Q 6.59375 54.828125 13.0625 64.515625 
Q 19.53125 74.21875 31.78125 74.21875 
z
" id="DejaVuSans-48"/>
       </defs>
       <use xlink:href="#DejaVuSans-48"/>
      </g>
     </g>
    </g>
    <g id="xtick_3">
     <g id="line2d_3">
      <g>
       <use style="stroke:#000000;stroke-width:0.8;" x="201.768898" xlink:href="#m1a1a673d1a" y="307.584"/>
      </g>
     </g>
     <g id="text_3">
      <!-- 25 -->
      <g transform="translate(195.406398 322.182437)scale(0.1 -0.1)">
       <use xlink:href="#DejaVuSans-50"/>
       <use x="63.623047" xlink:href="#DejaVuSans-53"/>
      </g>
     </g>
    </g>
    <g id="xtick_4">
     <g id="line2d_4">
      <g>
       <use style="stroke:#000000;stroke-width:0.8;" x="250.117189" xlink:href="#m1a1a673d1a" y="307.584"/>
      </g>
     </g>
     <g id="text_4">
      <!-- 50 -->
      <g transform="translate(243.754689 322.182437)scale(0.1 -0.1)">
       <use xlink:href="#DejaVuSans-53"/>
       <use x="63.623047" xlink:href="#DejaVuSans-48"/>
      </g>
     </g>
    </g>
    <g id="xtick_5">
     <g id="line2d_5">
      <g>
       <use style="stroke:#000000;stroke-width:0.8;" x="298.465479" xlink:href="#m1a1a673d1a" y="307.584"/>
      </g>
     </g>
     <g id="text_5">
      <!-- 75 -->
      <g transform="translate(292.102979 322.182437)scale(0.1 -0.1)">
       <defs>
        <path d="M 8.203125 72.90625 
L 55.078125 72.90625 
L 55.078125 68.703125 
L 28.609375 0 
L 18.3125 0 
L 43.21875 64.59375 
L 8.203125 64.59375 
z
" id="DejaVuSans-55"/>
       </defs>
       <use xlink:href="#DejaVuSans-55"/>
       <use x="63.623047" xlink:href="#DejaVuSans-53"/>
      </g>
     </g>
    </g>
    <g id="xtick_6">
     <g id="line2d_6">
      <g>
       <use style="stroke:#000000;stroke-width:0.8;" x="346.813769" xlink:href="#m1a1a673d1a" y="307.584"/>
      </g>
     </g>
     <g id="text_6">
      <!-- 100 -->
      <g transform="translate(337.270019 322.182437)scale(0.1 -0.1)">
       <defs>
        <path d="M 12.40625 8.296875 
L 28.515625 8.296875 
L 28.515625 63.921875 
L 10.984375 60.40625 
L 10.984375 69.390625 
L 28.421875 72.90625 
L 38.28125 72.90625 
L 38.28125 8.296875 
L 54.390625 8.296875 
L 54.390625 0 
L 12.40625 0 
z
" id="DejaVuSans-49"/>
       </defs>
       <use xlink:href="#DejaVuSans-49"/>
       <use x="63.623047" xlink:href="#DejaVuSans-48"/>
       <use x="127.246094" xlink:href="#DejaVuSans-48"/>
      </g>
     </g>
    </g>
    <g id="xtick_7">
     <g id="line2d_7">
      <g>
       <use style="stroke:#000000;stroke-width:0.8;" x="395.16206" xlink:href="#m1a1a673d1a" y="307.584"/>
      </g>
     </g>
     <g id="text_7">
      <!-- 125 -->
      <g transform="translate(385.61831 322.182437)scale(0.1 -0.1)">
       <use xlink:href="#DejaVuSans-49"/>
       <use x="63.623047" xlink:href="#DejaVuSans-50"/>
       <use x="127.246094" xlink:href="#DejaVuSans-53"/>
      </g>
     </g>
    </g>
   </g>
   <g id="matplotlib.axis_2">
    <g id="ytick_1">
     <g id="line2d_8">
      <defs>
       <path d="M 0 0 
L -3.5 0 
" id="m8db33b9721" style="stroke:#000000;stroke-width:0.8;"/>
      </defs>
      <g>
       <use style="stroke:#000000;stroke-width:0.8;" x="57.6" xlink:href="#m8db33b9721" y="275.191133"/>
      </g>
     </g>
     <g id="text_8">
      <!-- 20 -->
      <g transform="translate(37.875 278.990352)scale(0.1 -0.1)">
       <use xlink:href="#DejaVuSans-50"/>
       <use x="63.623047" xlink:href="#DejaVuSans-48"/>
      </g>
     </g>
    </g>
    <g id="ytick_2">
     <g id="line2d_9">
      <g>
       <use style="stroke:#000000;stroke-width:0.8;" x="57.6" xlink:href="#m8db33b9721" y="236.512501"/>
      </g>
     </g>
     <g id="text_9">
      <!-- 40 -->
      <g transform="translate(37.875 240.31172)scale(0.1 -0.1)">
       <defs>
        <path d="M 37.796875 64.3125 
L 12.890625 25.390625 
L 37.796875 25.390625 
z
M 35.203125 72.90625 
L 47.609375 72.90625 
L 47.609375 25.390625 
L 58.015625 25.390625 
L 58.015625 17.1875 
L 47.609375 17.1875 
L 47.609375 0 
L 37.796875 0 
L 37.796875 17.1875 
L 4.890625 17.1875 
L 4.890625 26.703125 
z
" id="DejaVuSans-52"/>
       </defs>
       <use xlink:href="#DejaVuSans-52"/>
       <use x="63.623047" xlink:href="#DejaVuSans-48"/>
      </g>
     </g>
    </g>
    <g id="ytick_3">
     <g id="line2d_10">
      <g>
       <use style="stroke:#000000;stroke-width:0.8;" x="57.6" xlink:href="#m8db33b9721" y="197.833869"/>
      </g>
     </g>
     <g id="text_10">
      <!-- 60 -->
      <g transform="translate(37.875 201.633087)scale(0.1 -0.1)">
       <defs>
        <path d="M 33.015625 40.375 
Q 26.375 40.375 22.484375 35.828125 
Q 18.609375 31.296875 18.609375 23.390625 
Q 18.609375 15.53125 22.484375 10.953125 
Q 26.375 6.390625 33.015625 6.390625 
Q 39.65625 6.390625 43.53125 10.953125 
Q 47.40625 15.53125 47.40625 23.390625 
Q 47.40625 31.296875 43.53125 35.828125 
Q 39.65625 40.375 33.015625 40.375 
z
M 52.59375 71.296875 
L 52.59375 62.3125 
Q 48.875 64.0625 45.09375 64.984375 
Q 41.3125 65.921875 37.59375 65.921875 
Q 27.828125 65.921875 22.671875 59.328125 
Q 17.53125 52.734375 16.796875 39.40625 
Q 19.671875 43.65625 24.015625 45.921875 
Q 28.375 48.1875 33.59375 48.1875 
Q 44.578125 48.1875 50.953125 41.515625 
Q 57.328125 34.859375 57.328125 23.390625 
Q 57.328125 12.15625 50.6875 5.359375 
Q 44.046875 -1.421875 33.015625 -1.421875 
Q 20.359375 -1.421875 13.671875 8.265625 
Q 6.984375 17.96875 6.984375 36.375 
Q 6.984375 53.65625 15.1875 63.9375 
Q 23.390625 74.21875 37.203125 74.21875 
Q 40.921875 74.21875 44.703125 73.484375 
Q 48.484375 72.75 52.59375 71.296875 
z
" id="DejaVuSans-54"/>
       </defs>
       <use xlink:href="#DejaVuSans-54"/>
       <use x="63.623047" xlink:href="#DejaVuSans-48"/>
      </g>
     </g>
    </g>
    <g id="ytick_4">
     <g id="line2d_11">
      <g>
       <use style="stroke:#000000;stroke-width:0.8;" x="57.6" xlink:href="#m8db33b9721" y="159.155236"/>
      </g>
     </g>
     <g id="text_11">
      <!-- 80 -->
      <g transform="translate(37.875 162.954455)scale(0.1 -0.1)">
       <defs>
        <path d="M 31.78125 34.625 
Q 24.75 34.625 20.71875 30.859375 
Q 16.703125 27.09375 16.703125 20.515625 
Q 16.703125 13.921875 20.71875 10.15625 
Q 24.75 6.390625 31.78125 6.390625 
Q 38.8125 6.390625 42.859375 10.171875 
Q 46.921875 13.96875 46.921875 20.515625 
Q 46.921875 27.09375 42.890625 30.859375 
Q 38.875 34.625 31.78125 34.625 
z
M 21.921875 38.8125 
Q 15.578125 40.375 12.03125 44.71875 
Q 8.5 49.078125 8.5 55.328125 
Q 8.5 64.0625 14.71875 69.140625 
Q 20.953125 74.21875 31.78125 74.21875 
Q 42.671875 74.21875 48.875 69.140625 
Q 55.078125 64.0625 55.078125 55.328125 
Q 55.078125 49.078125 51.53125 44.71875 
Q 48 40.375 41.703125 38.8125 
Q 48.828125 37.15625 52.796875 32.3125 
Q 56.78125 27.484375 56.78125 20.515625 
Q 56.78125 9.90625 50.3125 4.234375 
Q 43.84375 -1.421875 31.78125 -1.421875 
Q 19.734375 -1.421875 13.25 4.234375 
Q 6.78125 9.90625 6.78125 20.515625 
Q 6.78125 27.484375 10.78125 32.3125 
Q 14.796875 37.15625 21.921875 38.8125 
z
M 18.3125 54.390625 
Q 18.3125 48.734375 21.84375 45.5625 
Q 25.390625 42.390625 31.78125 42.390625 
Q 38.140625 42.390625 41.71875 45.5625 
Q 45.3125 48.734375 45.3125 54.390625 
Q 45.3125 60.0625 41.71875 63.234375 
Q 38.140625 66.40625 31.78125 66.40625 
Q 25.390625 66.40625 21.84375 63.234375 
Q 18.3125 60.0625 18.3125 54.390625 
z
" id="DejaVuSans-56"/>
       </defs>
       <use xlink:href="#DejaVuSans-56"/>
       <use x="63.623047" xlink:href="#DejaVuSans-48"/>
      </g>
     </g>
    </g>
    <g id="ytick_5">
     <g id="line2d_12">
      <g>
       <use style="stroke:#000000;stroke-width:0.8;" x="57.6" xlink:href="#m8db33b9721" y="120.476604"/>
      </g>
     </g>
     <g id="text_12">
      <!-- 100 -->
      <g transform="translate(31.5125 124.275823)scale(0.1 -0.1)">
       <use xlink:href="#DejaVuSans-49"/>
       <use x="63.623047" xlink:href="#DejaVuSans-48"/>
       <use x="127.246094" xlink:href="#DejaVuSans-48"/>
      </g>
     </g>
    </g>
    <g id="ytick_6">
     <g id="line2d_13">
      <g>
       <use style="stroke:#000000;stroke-width:0.8;" x="57.6" xlink:href="#m8db33b9721" y="81.797972"/>
      </g>
     </g>
     <g id="text_13">
      <!-- 120 -->
      <g transform="translate(31.5125 85.59719)scale(0.1 -0.1)">
       <use xlink:href="#DejaVuSans-49"/>
       <use x="63.623047" xlink:href="#DejaVuSans-50"/>
       <use x="127.246094" xlink:href="#DejaVuSans-48"/>
      </g>
     </g>
    </g>
    <g id="ytick_7">
     <g id="line2d_14">
      <g>
       <use style="stroke:#000000;stroke-width:0.8;" x="57.6" xlink:href="#m8db33b9721" y="43.119339"/>
      </g>
     </g>
     <g id="text_14">
      <!-- 140 -->
      <g transform="translate(31.5125 46.918558)scale(0.1 -0.1)">
       <use xlink:href="#DejaVuSans-49"/>
       <use x="63.623047" xlink:href="#DejaVuSans-52"/>
       <use x="127.246094" xlink:href="#DejaVuSans-48"/>
      </g>
     </g>
    </g>
   </g>
   <g id="line2d_15">
    <path clip-path="url(#pc4c31ce03d)" d="M 172.759924 294.530449 
L 172.336393 290.751547 
L 172.106255 286.88175 
L 172.092718 282.955869 
L 172.313186 279.010648 
L 172.792801 275.082833 
L 173.548968 271.2053 
L 174.602961 267.416728 
L 175.974118 263.749994 
L 177.687582 260.243776 
L 179.760756 256.930951 
L 180.936587 255.358664 
L 183.553196 252.413287 
L 186.485037 249.765734 
L 188.057323 248.570564 
L 189.693429 247.468223 
L 191.387553 246.462579 
L 193.135827 245.563301 
L 194.93245 244.772323 
L 196.771619 244.095447 
L 200.556323 243.068529 
L 204.437724 242.453539 
L 208.369407 242.221467 
L 212.299156 242.341371 
L 216.182491 242.780373 
L 220.009741 243.476589 
L 225.687764 244.818737 
L 235.140822 247.139455 
L 240.884599 248.218589 
L 244.742793 248.75042 
L 248.620325 249.113999 
L 252.517198 249.291921 
L 256.42374 249.262912 
L 260.322546 249.003765 
L 264.194277 248.487405 
L 268.01766 247.688692 
L 271.773355 246.582483 
L 275.432353 245.149439 
L 278.950175 243.387628 
L 282.274603 241.295114 
L 285.361158 238.873831 
L 286.800003 237.539418 
L 288.159557 236.121847 
L 289.437886 234.624984 
L 290.627254 233.056565 
L 292.73524 229.720533 
L 293.644187 227.968391 
L 294.452571 226.167901 
L 295.156522 224.324864 
L 295.752173 222.447016 
L 296.23759 220.54016 
L 296.606971 218.610096 
L 297.003427 214.703554 
L 296.972484 210.771871 
L 296.543151 206.861461 
L 295.746371 203.011003 
L 294.613087 199.266912 
L 293.191647 195.646592 
L 291.557475 192.117167 
L 287.975834 185.195625 
L 285.32248 179.989481 
L 282.852849 174.702112 
L 280.568876 169.331584 
L 278.472494 163.881765 
L 276.581109 158.352655 
L 274.964342 152.740385 
L 274.076667 148.949879 
L 273.36498 145.120694 
L 272.846687 141.254765 
L 272.52372 137.365629 
L 272.399949 133.466823 
L 272.47924 129.568016 
L 272.765462 125.684682 
L 273.252812 121.824554 
L 273.920019 117.989568 
L 274.751609 114.181657 
L 276.260076 108.52684 
L 278.035425 102.951316 
L 280.083459 97.480223 
L 281.611265 93.900516 
L 283.278314 90.388496 
L 286.024497 85.246172 
L 290.927013 76.841305 
L 293.814373 71.774404 
L 296.477397 66.595335 
L 298.051618 63.042703 
L 299.413105 59.38177 
L 300.51738 55.591264 
L 300.51738 55.591264 
" style="fill:none;stroke:#fea952;stroke-linecap:square;"/>
   </g>
   <g id="line2d_16">
    <path clip-path="url(#pc4c31ce03d)" d="M 165.083691 295.488 
L 164.621361 291.317006 
L 164.37175 287.019184 
L 164.363233 282.645174 
L 164.619839 278.202015 
L 165.173872 273.743657 
L 166.054151 269.289789 
L 167.296901 264.874494 
L 168.942567 260.525284 
L 169.923782 258.408161 
L 171.020683 256.320267 
L 172.234194 254.280835 
L 173.56578 252.298054 
L 175.0157 250.380255 
L 176.561704 248.559333 
L 178.213486 246.816059 
L 179.95676 245.16899 
L 181.803702 243.607279 
L 183.734866 242.155128 
L 185.744743 240.816206 
L 187.849118 239.583557 
L 190.018819 238.483348 
L 192.260644 237.512645 
L 194.536882 236.689543 
L 196.834352 236.009043 
L 199.14773 235.462128 
L 201.476405 235.041495 
L 203.799707 234.744168 
L 208.437795 234.486043 
L 213.016721 234.638997 
L 217.457974 235.150523 
L 221.678896 235.923087 
L 227.616337 237.32727 
L 236.706601 239.563849 
L 242.0216 240.566877 
L 247.308364 241.245363 
L 250.818727 241.496509 
L 254.302008 241.571566 
L 257.739629 241.454698 
L 261.106949 241.130756 
L 264.38279 240.585949 
L 267.562197 239.803825 
L 270.635484 238.770026 
L 273.585834 237.476702 
L 276.35804 235.938448 
L 278.915743 234.167981 
L 281.216962 232.184878 
L 283.274017 229.95078 
L 285.075021 227.470888 
L 286.58712 224.799912 
L 287.782857 221.985946 
L 288.639756 219.086065 
L 289.145147 216.099031 
L 289.309022 213.004747 
L 289.139901 209.845202 
L 288.652517 206.668939 
L 287.867918 203.528341 
L 286.785211 200.398264 
L 285.417358 197.209166 
L 282.946746 192.245799 
L 278.353467 183.347209 
L 275.768711 177.809595 
L 273.382197 172.193945 
L 271.190918 166.493301 
L 269.187464 160.627622 
L 267.998025 156.626288 
L 266.949951 152.532813 
L 266.075612 148.360712 
L 265.403722 144.126521 
L 264.941991 139.84954 
L 264.702341 135.562012 
L 264.682165 131.254448 
L 264.889152 126.948305 
L 265.322519 122.681528 
L 265.95895 118.487301 
L 266.776143 114.353104 
L 267.748937 110.287975 
L 269.451781 104.311579 
L 271.441454 98.40655 
L 272.939834 94.512043 
L 274.590697 90.651963 
L 276.393487 86.86137 
L 279.303278 81.416461 
L 284.241989 72.948759 
L 287.859583 66.519229 
L 289.446701 63.368762 
L 290.846647 60.226702 
L 292.028563 57.077428 
L 293.050931 53.568 
L 293.050931 53.568 
" style="fill:none;stroke:#ffffff;stroke-linecap:square;"/>
   </g>
   <g id="line2d_17">
    <path clip-path="url(#pc4c31ce03d)" d="M 180.436157 293.572898 
L 180.051425 290.186088 
L 179.840761 286.744315 
L 179.822202 283.266563 
L 180.006532 279.819281 
L 180.411729 276.422009 
L 181.043785 273.120811 
L 181.909021 269.958962 
L 183.00567 266.974703 
L 184.354481 264.167284 
L 185.955732 261.563848 
L 187.84492 259.144931 
L 190.007984 256.930739 
L 192.37978 254.986001 
L 194.925988 253.341601 
L 197.604256 252.032 
L 200.464581 251.048567 
L 203.500237 250.380008 
L 206.674056 250.021982 
L 209.934368 249.964053 
L 213.229619 250.191229 
L 216.609477 250.69161 
L 220.116069 251.421367 
L 227.575507 253.290582 
L 233.575043 254.715061 
L 237.673779 255.521025 
L 241.835226 256.178775 
L 246.048953 256.665471 
L 250.312994 256.959694 
L 254.63893 257.03935 
L 259.010524 256.873864 
L 263.421477 256.428102 
L 267.842683 255.665571 
L 272.248157 254.548574 
L 276.601168 253.045055 
L 280.837307 251.143524 
L 282.908882 250.033687 
L 284.918955 248.825519 
L 286.885498 247.506484 
L 288.785772 246.082189 
L 290.621432 244.545779 
L 292.383045 242.893959 
L 294.042069 241.145542 
L 295.601755 239.299188 
L 297.048565 237.370291 
L 298.380301 235.366162 
L 299.601977 233.282748 
L 300.701255 231.13687 
L 301.679107 228.928089 
L 302.530187 226.663781 
L 303.24881 224.355389 
L 303.835423 221.994254 
L 304.27806 219.608023 
L 304.575484 217.226222 
L 304.737801 214.848193 
L 304.771321 212.472612 
L 304.680537 210.118131 
L 304.47243 207.776527 
L 303.725966 203.182252 
L 302.572765 198.718631 
L 301.083343 194.488164 
L 299.376245 190.537187 
L 296.640713 185.04572 
L 292.291492 176.631754 
L 289.936987 171.594629 
L 287.755555 166.469224 
L 285.75407 161.270229 
L 283.974754 156.077687 
L 282.477162 150.896748 
L 281.664525 147.444596 
L 281.019234 144.000934 
L 280.546561 140.510853 
L 280.25175 137.020627 
L 280.135489 133.520488 
L 280.201217 130.02903 
L 280.452267 126.553291 
L 280.88902 123.061405 
L 281.4941 119.562705 
L 282.694173 114.2887 
L 284.19392 109.005746 
L 285.932867 103.825479 
L 287.915334 98.788256 
L 290.163141 93.915622 
L 292.745716 89.075882 
L 297.612038 80.733851 
L 300.625457 75.441911 
L 302.574121 71.737489 
L 304.400753 67.870403 
L 306.05538 63.803346 
L 307.465536 59.527187 
L 307.98383 57.614529 
L 307.98383 57.614529 
" style="fill:none;stroke:#ffffff;stroke-linecap:square;"/>
   </g>
   <g id="patch_3">
    <path d="M 57.6 307.584 
L 57.6 41.472 
" style="fill:none;stroke:#000000;stroke-linecap:square;stroke-linejoin:miter;stroke-width:0.8;"/>
   </g>
   <g id="patch_4">
    <path d="M 414.72 307.584 
L 414.72 41.472 
" style="fill:none;stroke:#000000;stroke-linecap:square;stroke-linejoin:miter;stroke-width:0.8;"/>
   </g>
   <g id="patch_5">
    <path d="M 57.6 307.584 
L 414.72 307.584 
" style="fill:none;stroke:#000000;stroke-linecap:square;stroke-linejoin:miter;stroke-width:0.8;"/>
   </g>
   <g id="patch_6">
    <path d="M 57.6 41.472 
L 414.72 41.472 
" style="fill:none;stroke:#000000;stroke-linecap:square;stroke-linejoin:miter;stroke-width:0.8;"/>
   </g>
  </g>
 </g>
 <defs>
  <clipPath id="pc4c31ce03d">
   <rect height="266.112" width="357.12" x="57.6" y="41.472"/>
  </clipPath>
 </defs>
</svg>
