<?xml version="1.0" encoding="utf-8" standalone="no"?>
<!DOCTYPE svg PUBLIC "-//W3C//DTD SVG 1.1//EN"
  "http://www.w3.org/Graphics/SVG/1.1/DTD/svg11.dtd">
<!-- Created with matplotlib (https://matplotlib.org/) -->
<svg height="345.6pt" version="1.1" viewBox="0 0 460.8 345.6" width="460.8pt" xmlns="http://www.w3.org/2000/svg" xmlns:xlink="http://www.w3.org/1999/xlink">
 <metadata>
  <rdf:RDF xmlns:cc="http://creativecommons.org/ns#" xmlns:dc="http://purl.org/dc/elements/1.1/" xmlns:rdf="http://www.w3.org/1999/02/22-rdf-syntax-ns#">
   <cc:Work>
    <dc:type rdf:resource="http://purl.org/dc/dcmitype/StillImage"/>
    <dc:date>2021-01-25T11:42:02.407521</dc:date>
    <dc:format>image/svg+xml</dc:format>
    <dc:creator>
     <cc:Agent>
      <dc:title>Matplotlib v3.3.3, https://matplotlib.org/</dc:title>
     </cc:Agent>
    </dc:creator>
   </cc:Work>
  </rdf:RDF>
 </metadata>
 <defs>
  <style type="text/css">*{stroke-linecap:butt;stroke-linejoin:round;}</style>
 </defs>
 <g id="figure_1">
  <g id="patch_1">
   <path d="M 0 345.6 
L 460.8 345.6 
L 460.8 0 
L 0 0 
z
" style="fill:#ffffff;"/>
  </g>
  <g id="axes_1">
   <g id="patch_2">
    <path d="M 57.6 307.584 
L 414.72 307.584 
L 414.72 41.472 
L 57.6 41.472 
z
" style="fill:#7d9051;"/>
   </g>
   <g id="matplotlib.axis_1">
    <g id="xtick_1">
     <g id="line2d_1">
      <defs>
       <path d="M 0 0 
L 0 3.5 
" id="mb23717d392" style="stroke:#000000;stroke-width:0.8;"/>
      </defs>
      <g>
       <use style="stroke:#000000;stroke-width:0.8;" x="108.942504" xlink:href="#mb23717d392" y="307.584"/>
      </g>
     </g>
     <g id="text_1">
      <!-- 0 -->
      <g transform="translate(105.761254 322.182437)scale(0.1 -0.1)">
       <defs>
        <path d="M 31.78125 66.40625 
Q 24.171875 66.40625 20.328125 58.90625 
Q 16.5 51.421875 16.5 36.375 
Q 16.5 21.390625 20.328125 13.890625 
Q 24.171875 6.390625 31.78125 6.390625 
Q 39.453125 6.390625 43.28125 13.890625 
Q 47.125 21.390625 47.125 36.375 
Q 47.125 51.421875 43.28125 58.90625 
Q 39.453125 66.40625 31.78125 66.40625 
z
M 31.78125 74.21875 
Q 44.046875 74.21875 50.515625 64.515625 
Q 56.984375 54.828125 56.984375 36.375 
Q 56.984375 17.96875 50.515625 8.265625 
Q 44.046875 -1.421875 31.78125 -1.421875 
Q 19.53125 -1.421875 13.0625 8.265625 
Q 6.59375 17.96875 6.59375 36.375 
Q 6.59375 54.828125 13.0625 64.515625 
Q 19.53125 74.21875 31.78125 74.21875 
z
" id="DejaVuSans-48"/>
       </defs>
       <use xlink:href="#DejaVuSans-48"/>
      </g>
     </g>
    </g>
    <g id="xtick_2">
     <g id="line2d_2">
      <g>
       <use style="stroke:#000000;stroke-width:0.8;" x="176.395181" xlink:href="#mb23717d392" y="307.584"/>
      </g>
     </g>
     <g id="text_2">
      <!-- 20 -->
      <g transform="translate(170.032681 322.182437)scale(0.1 -0.1)">
       <defs>
        <path d="M 19.1875 8.296875 
L 53.609375 8.296875 
L 53.609375 0 
L 7.328125 0 
L 7.328125 8.296875 
Q 12.9375 14.109375 22.625 23.890625 
Q 32.328125 33.6875 34.8125 36.53125 
Q 39.546875 41.84375 41.421875 45.53125 
Q 43.3125 49.21875 43.3125 52.78125 
Q 43.3125 58.59375 39.234375 62.25 
Q 35.15625 65.921875 28.609375 65.921875 
Q 23.96875 65.921875 18.8125 64.3125 
Q 13.671875 62.703125 7.8125 59.421875 
L 7.8125 69.390625 
Q 13.765625 71.78125 18.9375 73 
Q 24.125 74.21875 28.421875 74.21875 
Q 39.75 74.21875 46.484375 68.546875 
Q 53.21875 62.890625 53.21875 53.421875 
Q 53.21875 48.921875 51.53125 44.890625 
Q 49.859375 40.875 45.40625 35.40625 
Q 44.1875 33.984375 37.640625 27.21875 
Q 31.109375 20.453125 19.1875 8.296875 
z
" id="DejaVuSans-50"/>
       </defs>
       <use xlink:href="#DejaVuSans-50"/>
       <use x="63.623047" xlink:href="#DejaVuSans-48"/>
      </g>
     </g>
    </g>
    <g id="xtick_3">
     <g id="line2d_3">
      <g>
       <use style="stroke:#000000;stroke-width:0.8;" x="243.847858" xlink:href="#mb23717d392" y="307.584"/>
      </g>
     </g>
     <g id="text_3">
      <!-- 40 -->
      <g transform="translate(237.485358 322.182437)scale(0.1 -0.1)">
       <defs>
        <path d="M 37.796875 64.3125 
L 12.890625 25.390625 
L 37.796875 25.390625 
z
M 35.203125 72.90625 
L 47.609375 72.90625 
L 47.609375 25.390625 
L 58.015625 25.390625 
L 58.015625 17.1875 
L 47.609375 17.1875 
L 47.609375 0 
L 37.796875 0 
L 37.796875 17.1875 
L 4.890625 17.1875 
L 4.890625 26.703125 
z
" id="DejaVuSans-52"/>
       </defs>
       <use xlink:href="#DejaVuSans-52"/>
       <use x="63.623047" xlink:href="#DejaVuSans-48"/>
      </g>
     </g>
    </g>
    <g id="xtick_4">
     <g id="line2d_4">
      <g>
       <use style="stroke:#000000;stroke-width:0.8;" x="311.300534" xlink:href="#mb23717d392" y="307.584"/>
      </g>
     </g>
     <g id="text_4">
      <!-- 60 -->
      <g transform="translate(304.938034 322.182437)scale(0.1 -0.1)">
       <defs>
        <path d="M 33.015625 40.375 
Q 26.375 40.375 22.484375 35.828125 
Q 18.609375 31.296875 18.609375 23.390625 
Q 18.609375 15.53125 22.484375 10.953125 
Q 26.375 6.390625 33.015625 6.390625 
Q 39.65625 6.390625 43.53125 10.953125 
Q 47.40625 15.53125 47.40625 23.390625 
Q 47.40625 31.296875 43.53125 35.828125 
Q 39.65625 40.375 33.015625 40.375 
z
M 52.59375 71.296875 
L 52.59375 62.3125 
Q 48.875 64.0625 45.09375 64.984375 
Q 41.3125 65.921875 37.59375 65.921875 
Q 27.828125 65.921875 22.671875 59.328125 
Q 17.53125 52.734375 16.796875 39.40625 
Q 19.671875 43.65625 24.015625 45.921875 
Q 28.375 48.1875 33.59375 48.1875 
Q 44.578125 48.1875 50.953125 41.515625 
Q 57.328125 34.859375 57.328125 23.390625 
Q 57.328125 12.15625 50.6875 5.359375 
Q 44.046875 -1.421875 33.015625 -1.421875 
Q 20.359375 -1.421875 13.671875 8.265625 
Q 6.984375 17.96875 6.984375 36.375 
Q 6.984375 53.65625 15.1875 63.9375 
Q 23.390625 74.21875 37.203125 74.21875 
Q 40.921875 74.21875 44.703125 73.484375 
Q 48.484375 72.75 52.59375 71.296875 
z
" id="DejaVuSans-54"/>
       </defs>
       <use xlink:href="#DejaVuSans-54"/>
       <use x="63.623047" xlink:href="#DejaVuSans-48"/>
      </g>
     </g>
    </g>
    <g id="xtick_5">
     <g id="line2d_5">
      <g>
       <use style="stroke:#000000;stroke-width:0.8;" x="378.753211" xlink:href="#mb23717d392" y="307.584"/>
      </g>
     </g>
     <g id="text_5">
      <!-- 80 -->
      <g transform="translate(372.390711 322.182437)scale(0.1 -0.1)">
       <defs>
        <path d="M 31.78125 34.625 
Q 24.75 34.625 20.71875 30.859375 
Q 16.703125 27.09375 16.703125 20.515625 
Q 16.703125 13.921875 20.71875 10.15625 
Q 24.75 6.390625 31.78125 6.390625 
Q 38.8125 6.390625 42.859375 10.171875 
Q 46.921875 13.96875 46.921875 20.515625 
Q 46.921875 27.09375 42.890625 30.859375 
Q 38.875 34.625 31.78125 34.625 
z
M 21.921875 38.8125 
Q 15.578125 40.375 12.03125 44.71875 
Q 8.5 49.078125 8.5 55.328125 
Q 8.5 64.0625 14.71875 69.140625 
Q 20.953125 74.21875 31.78125 74.21875 
Q 42.671875 74.21875 48.875 69.140625 
Q 55.078125 64.0625 55.078125 55.328125 
Q 55.078125 49.078125 51.53125 44.71875 
Q 48 40.375 41.703125 38.8125 
Q 48.828125 37.15625 52.796875 32.3125 
Q 56.78125 27.484375 56.78125 20.515625 
Q 56.78125 9.90625 50.3125 4.234375 
Q 43.84375 -1.421875 31.78125 -1.421875 
Q 19.734375 -1.421875 13.25 4.234375 
Q 6.78125 9.90625 6.78125 20.515625 
Q 6.78125 27.484375 10.78125 32.3125 
Q 14.796875 37.15625 21.921875 38.8125 
z
M 18.3125 54.390625 
Q 18.3125 48.734375 21.84375 45.5625 
Q 25.390625 42.390625 31.78125 42.390625 
Q 38.140625 42.390625 41.71875 45.5625 
Q 45.3125 48.734375 45.3125 54.390625 
Q 45.3125 60.0625 41.71875 63.234375 
Q 38.140625 66.40625 31.78125 66.40625 
Q 25.390625 66.40625 21.84375 63.234375 
Q 18.3125 60.0625 18.3125 54.390625 
z
" id="DejaVuSans-56"/>
       </defs>
       <use xlink:href="#DejaVuSans-56"/>
       <use x="63.623047" xlink:href="#DejaVuSans-48"/>
      </g>
     </g>
    </g>
   </g>
   <g id="matplotlib.axis_2">
    <g id="ytick_1">
     <g id="line2d_6">
      <defs>
       <path d="M 0 0 
L -3.5 0 
" id="m948cc94673" style="stroke:#000000;stroke-width:0.8;"/>
      </defs>
      <g>
       <use style="stroke:#000000;stroke-width:0.8;" x="57.6" xlink:href="#m948cc94673" y="281.674959"/>
      </g>
     </g>
     <g id="text_6">
      <!-- 10 -->
      <g transform="translate(37.875 285.474178)scale(0.1 -0.1)">
       <defs>
        <path d="M 12.40625 8.296875 
L 28.515625 8.296875 
L 28.515625 63.921875 
L 10.984375 60.40625 
L 10.984375 69.390625 
L 28.421875 72.90625 
L 38.28125 72.90625 
L 38.28125 8.296875 
L 54.390625 8.296875 
L 54.390625 0 
L 12.40625 0 
z
" id="DejaVuSans-49"/>
       </defs>
       <use xlink:href="#DejaVuSans-49"/>
       <use x="63.623047" xlink:href="#DejaVuSans-48"/>
      </g>
     </g>
    </g>
    <g id="ytick_2">
     <g id="line2d_7">
      <g>
       <use style="stroke:#000000;stroke-width:0.8;" x="57.6" xlink:href="#m948cc94673" y="247.94862"/>
      </g>
     </g>
     <g id="text_7">
      <!-- 20 -->
      <g transform="translate(37.875 251.747839)scale(0.1 -0.1)">
       <use xlink:href="#DejaVuSans-50"/>
       <use x="63.623047" xlink:href="#DejaVuSans-48"/>
      </g>
     </g>
    </g>
    <g id="ytick_3">
     <g id="line2d_8">
      <g>
       <use style="stroke:#000000;stroke-width:0.8;" x="57.6" xlink:href="#m948cc94673" y="214.222282"/>
      </g>
     </g>
     <g id="text_8">
      <!-- 30 -->
      <g transform="translate(37.875 218.021501)scale(0.1 -0.1)">
       <defs>
        <path d="M 40.578125 39.3125 
Q 47.65625 37.796875 51.625 33 
Q 55.609375 28.21875 55.609375 21.1875 
Q 55.609375 10.40625 48.1875 4.484375 
Q 40.765625 -1.421875 27.09375 -1.421875 
Q 22.515625 -1.421875 17.65625 -0.515625 
Q 12.796875 0.390625 7.625 2.203125 
L 7.625 11.71875 
Q 11.71875 9.328125 16.59375 8.109375 
Q 21.484375 6.890625 26.8125 6.890625 
Q 36.078125 6.890625 40.9375 10.546875 
Q 45.796875 14.203125 45.796875 21.1875 
Q 45.796875 27.640625 41.28125 31.265625 
Q 36.765625 34.90625 28.71875 34.90625 
L 20.21875 34.90625 
L 20.21875 43.015625 
L 29.109375 43.015625 
Q 36.375 43.015625 40.234375 45.921875 
Q 44.09375 48.828125 44.09375 54.296875 
Q 44.09375 59.90625 40.109375 62.90625 
Q 36.140625 65.921875 28.71875 65.921875 
Q 24.65625 65.921875 20.015625 65.03125 
Q 15.375 64.15625 9.8125 62.3125 
L 9.8125 71.09375 
Q 15.4375 72.65625 20.34375 73.4375 
Q 25.25 74.21875 29.59375 74.21875 
Q 40.828125 74.21875 47.359375 69.109375 
Q 53.90625 64.015625 53.90625 55.328125 
Q 53.90625 49.265625 50.4375 45.09375 
Q 46.96875 40.921875 40.578125 39.3125 
z
" id="DejaVuSans-51"/>
       </defs>
       <use xlink:href="#DejaVuSans-51"/>
       <use x="63.623047" xlink:href="#DejaVuSans-48"/>
      </g>
     </g>
    </g>
    <g id="ytick_4">
     <g id="line2d_9">
      <g>
       <use style="stroke:#000000;stroke-width:0.8;" x="57.6" xlink:href="#m948cc94673" y="180.495944"/>
      </g>
     </g>
     <g id="text_9">
      <!-- 40 -->
      <g transform="translate(37.875 184.295162)scale(0.1 -0.1)">
       <use xlink:href="#DejaVuSans-52"/>
       <use x="63.623047" xlink:href="#DejaVuSans-48"/>
      </g>
     </g>
    </g>
    <g id="ytick_5">
     <g id="line2d_10">
      <g>
       <use style="stroke:#000000;stroke-width:0.8;" x="57.6" xlink:href="#m948cc94673" y="146.769605"/>
      </g>
     </g>
     <g id="text_10">
      <!-- 50 -->
      <g transform="translate(37.875 150.568824)scale(0.1 -0.1)">
       <defs>
        <path d="M 10.796875 72.90625 
L 49.515625 72.90625 
L 49.515625 64.59375 
L 19.828125 64.59375 
L 19.828125 46.734375 
Q 21.96875 47.46875 24.109375 47.828125 
Q 26.265625 48.1875 28.421875 48.1875 
Q 40.625 48.1875 47.75 41.5 
Q 54.890625 34.8125 54.890625 23.390625 
Q 54.890625 11.625 47.5625 5.09375 
Q 40.234375 -1.421875 26.90625 -1.421875 
Q 22.3125 -1.421875 17.546875 -0.640625 
Q 12.796875 0.140625 7.71875 1.703125 
L 7.71875 11.625 
Q 12.109375 9.234375 16.796875 8.0625 
Q 21.484375 6.890625 26.703125 6.890625 
Q 35.15625 6.890625 40.078125 11.328125 
Q 45.015625 15.765625 45.015625 23.390625 
Q 45.015625 31 40.078125 35.4375 
Q 35.15625 39.890625 26.703125 39.890625 
Q 22.75 39.890625 18.8125 39.015625 
Q 14.890625 38.140625 10.796875 36.28125 
z
" id="DejaVuSans-53"/>
       </defs>
       <use xlink:href="#DejaVuSans-53"/>
       <use x="63.623047" xlink:href="#DejaVuSans-48"/>
      </g>
     </g>
    </g>
    <g id="ytick_6">
     <g id="line2d_11">
      <g>
       <use style="stroke:#000000;stroke-width:0.8;" x="57.6" xlink:href="#m948cc94673" y="113.043267"/>
      </g>
     </g>
     <g id="text_11">
      <!-- 60 -->
      <g transform="translate(37.875 116.842486)scale(0.1 -0.1)">
       <use xlink:href="#DejaVuSans-54"/>
       <use x="63.623047" xlink:href="#DejaVuSans-48"/>
      </g>
     </g>
    </g>
    <g id="ytick_7">
     <g id="line2d_12">
      <g>
       <use style="stroke:#000000;stroke-width:0.8;" x="57.6" xlink:href="#m948cc94673" y="79.316929"/>
      </g>
     </g>
     <g id="text_12">
      <!-- 70 -->
      <g transform="translate(37.875 83.116147)scale(0.1 -0.1)">
       <defs>
        <path d="M 8.203125 72.90625 
L 55.078125 72.90625 
L 55.078125 68.703125 
L 28.609375 0 
L 18.3125 0 
L 43.21875 64.59375 
L 8.203125 64.59375 
z
" id="DejaVuSans-55"/>
       </defs>
       <use xlink:href="#DejaVuSans-55"/>
       <use x="63.623047" xlink:href="#DejaVuSans-48"/>
      </g>
     </g>
    </g>
    <g id="ytick_8">
     <g id="line2d_13">
      <g>
       <use style="stroke:#000000;stroke-width:0.8;" x="57.6" xlink:href="#m948cc94673" y="45.59059"/>
      </g>
     </g>
     <g id="text_13">
      <!-- 80 -->
      <g transform="translate(37.875 49.389809)scale(0.1 -0.1)">
       <use xlink:href="#DejaVuSans-56"/>
       <use x="63.623047" xlink:href="#DejaVuSans-48"/>
      </g>
     </g>
    </g>
   </g>
   <g id="line2d_14">
    <path clip-path="url(#p2ad10108ad)" d="M 142.668842 166.711989 
L 142.227027 153.484519 
L 142.159575 146.688662 
L 142.291107 139.838843 
L 142.695824 132.985651 
L 143.447921 126.179676 
L 143.977424 122.807042 
L 144.621597 119.468134 
L 145.387185 116.162953 
L 146.287679 112.901616 
L 147.329822 109.687496 
L 148.523735 106.530711 
L 149.876161 103.431261 
L 151.397219 100.402635 
L 153.097026 97.448208 
L 154.965465 94.581469 
L 156.995791 91.812537 
L 159.177885 89.154902 
L 161.50163 86.625426 
L 163.963653 84.230856 
L 166.550463 81.988055 
L 169.251942 79.90714 
L 172.068092 78.004974 
L 174.978675 76.291676 
L 177.983691 74.773991 
L 181.069651 73.445173 
L 184.229809 72.28836 
L 187.454047 71.29006 
L 190.732247 70.433411 
L 194.054292 69.704922 
L 200.799559 68.581835 
L 207.619025 67.792639 
L 214.441863 67.263135 
L 221.244466 67.057405 
L 224.63059 67.101249 
L 228.003224 67.266508 
L 231.358994 67.556554 
L 234.697902 67.991624 
L 238.016574 68.578462 
L 241.308264 69.33056 
L 244.576346 70.258034 
L 247.803957 71.357513 
L 250.980978 72.628996 
L 254.093919 74.062365 
L 257.132662 75.654248 
L 260.080344 77.3979 
L 262.926847 79.29332 
L 265.658681 81.330391 
L 268.265727 83.509112 
L 270.731122 85.819367 
L 273.048121 88.257781 
L 275.233588 90.810865 
L 277.29764 93.465128 
L 279.263885 96.203706 
L 282.953547 101.876476 
L 288.154148 110.65207 
L 295.07142 122.314637 
L 303.671637 136.793354 
L 306.956582 142.66511 
L 310.093131 148.627927 
L 313.067794 154.685177 
L 315.877198 160.823371 
L 318.514598 167.04588 
L 320.979993 173.339215 
L 323.253149 179.706747 
L 325.296965 186.145105 
L 327.054107 192.667779 
L 328.467241 199.274769 
L 329.489149 205.976192 
L 329.833157 209.358944 
L 330.059124 212.761932 
L 330.160303 216.171664 
L 330.129949 219.58477 
L 329.954572 222.987757 
L 329.634172 226.373882 
L 329.162003 229.733025 
L 328.524575 233.061815 
L 327.721888 236.350133 
L 326.740452 239.587861 
L 325.580266 242.768255 
L 324.244703 245.884569 
L 322.737136 248.930057 
L 321.064309 251.891229 
L 319.232969 254.764713 
L 317.246488 257.543764 
L 315.111611 260.218262 
L 312.835083 262.784837 
L 310.42365 265.229996 
L 307.880684 267.550368 
L 305.216303 269.735835 
L 302.43388 271.776279 
L 299.546905 273.661581 
L 296.56887 275.384997 
L 293.503146 276.929663 
L 290.363223 278.292207 
L 287.155849 279.455766 
L 283.897884 280.416966 
L 280.592703 281.158946 
L 277.257168 281.674959 
L 273.89128 281.95826 
L 270.515273 282.012222 
L 267.129149 281.853708 
L 263.74977 281.486091 
L 260.383881 280.922861 
L 257.041601 280.174137 
L 253.729675 279.253408 
L 250.464965 278.164047 
L 247.247472 276.919545 
L 244.09406 275.533393 
L 241.011473 274.012335 
L 238.006456 272.356372 
L 235.089127 270.565503 
L 232.266233 268.649847 
L 229.54789 266.599286 
L 226.937472 264.420564 
L 224.448468 262.117055 
L 222.087624 259.685386 
L 219.858313 257.125557 
L 217.774025 254.440941 
L 215.841506 251.638282 
L 214.064128 248.720954 
L 212.452009 245.702446 
L 211.005149 242.596251 
L 209.737039 239.412484 
L 208.647678 236.164638 
L 207.747185 232.862829 
L 207.038932 229.517177 
L 206.533037 226.144543 
L 206.2295 222.755046 
L 206.135066 219.355431 
L 206.246363 215.959189 
L 206.560018 212.573064 
L 207.06254 209.207176 
L 207.75393 205.868268 
L 208.627442 202.56646 
L 209.672959 199.308495 
L 210.89048 196.104493 
L 212.269887 192.961198 
L 213.807808 189.888729 
L 215.494125 186.897203 
L 217.325465 183.989992 
L 219.295083 181.177216 
L 221.396234 178.472363 
L 223.625545 175.878808 
L 225.972898 173.403295 
L 228.434921 171.062687 
L 231.008241 168.856984 
L 233.679367 166.796305 
L 236.448299 164.89414 
L 236.448299 164.89414 
" style="fill:none;stroke:#fea952;stroke-linecap:square;"/>
   </g>
   <g id="line2d_15">
    <path clip-path="url(#p2ad10108ad)" d="M 129.188274 167.230473 
L 128.738205 153.699481 
L 128.669695 146.555626 
L 128.815602 139.202205 
L 129.266955 131.697223 
L 129.636814 127.900987 
L 130.120638 124.087292 
L 130.731161 120.25145 
L 131.479029 116.423886 
L 132.383241 112.572412 
L 133.454853 108.740711 
L 134.711587 104.915215 
L 136.159038 101.135452 
L 137.820618 97.376639 
L 139.70392 93.674984 
L 141.795095 90.082008 
L 144.086209 86.604231 
L 146.569446 83.25182 
L 149.243184 80.028223 
L 152.095778 76.95462 
L 155.126265 74.03796 
L 158.318047 71.300591 
L 161.700905 68.727856 
L 165.224587 66.379098 
L 168.896919 64.2498 
L 172.648271 62.383356 
L 176.432226 60.776754 
L 180.239706 59.401404 
L 184.043275 58.237812 
L 187.84258 57.255992 
L 191.642204 56.431777 
L 199.116478 55.196702 
L 206.450345 54.35282 
L 213.854714 53.785383 
L 221.419129 53.568 
L 225.290834 53.62688 
L 229.164909 53.826083 
L 233.102116 54.179108 
L 237.04698 54.707183 
L 241.021502 55.426848 
L 244.991398 56.352537 
L 248.926402 57.488086 
L 252.816508 58.832782 
L 256.62335 60.375091 
L 260.354118 62.112283 
L 264.001063 64.043064 
L 267.557405 66.169004 
L 270.99123 68.478503 
L 274.309592 70.978759 
L 277.490219 73.665166 
L 280.510739 76.526701 
L 283.296631 79.484948 
L 285.883101 82.529414 
L 288.256158 85.597127 
L 290.478323 88.704977 
L 294.487207 94.878675 
L 299.807473 103.855412 
L 306.628736 115.355974 
L 315.407928 130.140986 
L 318.853635 136.304711 
L 322.162129 142.60017 
L 325.299228 148.994256 
L 328.263687 155.478331 
L 331.040246 162.035621 
L 333.646083 168.695431 
L 336.067472 175.489205 
L 338.280565 182.481683 
L 340.205721 189.662851 
L 341.769839 197.030795 
L 342.397218 200.790329 
L 342.910462 204.611313 
L 343.294049 208.465109 
L 343.543724 212.361795 
L 343.650305 216.291635 
L 343.602605 220.279099 
L 343.385118 224.258576 
L 342.993379 228.251682 
L 342.411802 232.270221 
L 341.630301 236.260956 
L 340.632321 240.263607 
L 339.414053 244.211105 
L 337.980024 248.082437 
L 336.335009 251.869471 
L 334.482989 255.565528 
L 332.440803 259.141742 
L 330.207969 262.609707 
L 327.7899 265.95988 
L 325.204069 269.17018 
L 322.440345 272.257613 
L 319.51677 275.195422 
L 316.436336 277.98087 
L 313.194115 280.61467 
L 309.810166 283.071629 
L 306.304068 285.337852 
L 302.639103 287.432686 
L 298.873424 289.30523 
L 294.963883 290.974024 
L 290.9733 292.394916 
L 286.852829 293.579901 
L 282.655178 294.49089 
L 278.388643 295.117961 
L 274.106885 295.447072 
L 269.884435 295.488 
L 265.670222 295.265124 
L 261.523292 294.791629 
L 257.434873 294.087127 
L 253.428212 293.17175 
L 249.459627 292.050331 
L 245.598292 290.746178 
L 241.81874 289.269582 
L 238.124526 287.631294 
L 234.500461 285.827633 
L 230.948712 283.853449 
L 227.513847 281.728373 
L 224.142012 279.419785 
L 220.903565 276.956418 
L 217.774301 274.321618 
L 214.769301 271.514304 
L 211.914231 268.545218 
L 209.202325 265.398674 
L 206.667798 262.099025 
L 204.32074 258.657292 
L 202.164397 255.076341 
L 200.223046 251.398673 
L 198.47219 247.588192 
L 196.946785 243.702466 
L 195.632498 239.714232 
L 194.549138 235.656771 
L 193.697651 231.518369 
L 193.096273 227.347835 
L 192.744166 223.129638 
L 192.651769 218.913575 
L 192.813334 214.714894 
L 193.217367 210.581025 
L 193.85225 206.471711 
L 194.712075 202.417971 
L 195.782132 198.444258 
L 197.062228 194.516417 
L 198.537119 190.683329 
L 200.206235 186.922751 
L 202.055807 183.264151 
L 204.079539 179.706808 
L 206.274833 176.2519 
L 208.641294 172.901267 
L 211.165674 169.678605 
L 213.836261 166.596326 
L 216.67778 163.626009 
L 219.655397 160.819909 
L 222.767933 158.175604 
L 226.040614 155.676773 
L 228.809546 153.774607 
L 228.809546 153.774607 
" style="fill:none;stroke:#ffffff;stroke-linecap:square;"/>
   </g>
   <g id="line2d_16">
    <path clip-path="url(#p2ad10108ad)" d="M 156.149411 166.193506 
L 155.71585 153.269558 
L 155.649454 146.821698 
L 155.766613 140.475481 
L 156.124692 134.274078 
L 156.775204 128.272059 
L 157.764166 122.512382 
L 158.391129 119.753494 
L 159.120504 117.062522 
L 159.948058 114.459778 
L 160.888431 111.92597 
L 161.931704 109.485882 
L 163.090518 107.130287 
L 164.398957 104.814408 
L 165.844722 102.558707 
L 167.422136 100.373254 
L 169.112586 98.28158 
L 170.907482 96.296232 
L 172.80104 94.423752 
L 174.782878 92.675518 
L 176.802979 91.086423 
L 178.911597 89.63085 
L 181.06043 88.333553 
L 183.319112 87.164626 
L 185.707077 86.113592 
L 188.219913 85.175315 
L 190.86482 84.342308 
L 193.621915 83.61083 
L 196.466379 82.978067 
L 202.48264 81.966968 
L 208.787705 81.232458 
L 215.029013 80.740887 
L 221.069802 80.546809 
L 226.841539 80.706933 
L 229.615873 80.934001 
L 232.348824 81.276065 
L 235.011645 81.730076 
L 237.625131 82.308582 
L 240.226291 83.027982 
L 242.791406 83.882243 
L 245.338606 84.8829 
L 247.833721 86.012447 
L 250.264261 87.265433 
L 252.603283 88.626796 
L 254.862465 90.108138 
L 257.00777 91.682023 
L 259.041235 93.353059 
L 260.951505 95.112032 
L 262.799612 97.030614 
L 264.584075 99.092315 
L 266.339122 101.333128 
L 269.741134 106.224539 
L 273.097748 111.637695 
L 295.059529 149.025509 
L 298.024134 154.655683 
L 300.836361 160.376098 
L 303.49071 166.16841 
L 305.98895 172.056139 
L 308.313904 177.982999 
L 310.438825 183.92429 
L 312.313364 189.808528 
L 313.902493 195.672707 
L 315.164642 201.518743 
L 316.067835 207.341072 
L 316.574524 213.162068 
L 316.657293 218.890441 
L 316.524026 221.716939 
L 316.274965 224.496082 
L 315.912204 227.195829 
L 315.41885 229.862674 
L 314.811456 232.436658 
L 314.066851 234.964618 
L 313.180507 237.454073 
L 312.154397 239.899666 
L 310.991282 242.294586 
L 309.687815 244.640717 
L 308.257969 246.91972 
L 306.703076 249.127648 
L 305.019152 251.266345 
L 303.22982 253.312061 
L 301.330529 255.264571 
L 299.325032 257.119867 
L 297.23849 258.857 
L 295.057594 260.480928 
L 292.789743 261.98531 
L 290.498637 263.337307 
L 288.132867 264.554096 
L 285.762564 265.61039 
L 283.338397 266.516615 
L 280.94294 267.254032 
L 278.530229 267.827001 
L 276.125693 268.231957 
L 273.675674 268.469448 
L 271.146112 268.536444 
L 268.588075 268.442292 
L 265.976248 268.180553 
L 263.332889 267.758596 
L 260.654991 267.176523 
L 257.999722 266.456485 
L 255.331639 265.581916 
L 252.676205 264.569508 
L 250.063593 263.435491 
L 247.522484 262.197037 
L 245.064199 260.859294 
L 242.664408 259.402633 
L 240.390454 257.879909 
L 238.192215 256.242153 
L 236.100642 254.519511 
L 234.127634 252.719806 
L 232.261017 250.825554 
L 230.514301 248.852441 
L 228.880253 246.782856 
L 227.362272 244.619272 
L 225.963859 242.365567 
L 224.680972 240.006219 
L 223.538108 237.604309 
L 222.527293 235.122503 
L 221.662859 232.615043 
L 220.945232 230.068888 
L 220.380213 227.515984 
L 219.969801 224.94125 
L 219.714833 222.380453 
L 219.618363 219.797287 
L 219.679392 217.203483 
L 219.902668 214.565103 
L 220.272831 211.94264 
L 220.795786 209.318565 
L 221.472753 206.688661 
L 222.28369 204.100573 
L 223.243841 201.525657 
L 224.333539 198.999645 
L 225.559809 196.513306 
L 226.908711 194.087597 
L 228.376097 191.728085 
L 229.948872 189.453164 
L 231.626794 187.266122 
L 233.414829 185.16129 
L 235.268017 183.180581 
L 237.214445 181.305465 
L 239.248548 179.538364 
L 241.31812 177.915837 
L 244.087052 176.013672 
L 244.087052 176.013672 
" style="fill:none;stroke:#ffffff;stroke-linecap:square;"/>
   </g>
   <g id="patch_3">
    <path d="M 57.6 307.584 
L 57.6 41.472 
" style="fill:none;stroke:#000000;stroke-linecap:square;stroke-linejoin:miter;stroke-width:0.8;"/>
   </g>
   <g id="patch_4">
    <path d="M 414.72 307.584 
L 414.72 41.472 
" style="fill:none;stroke:#000000;stroke-linecap:square;stroke-linejoin:miter;stroke-width:0.8;"/>
   </g>
   <g id="patch_5">
    <path d="M 57.6 307.584 
L 414.72 307.584 
" style="fill:none;stroke:#000000;stroke-linecap:square;stroke-linejoin:miter;stroke-width:0.8;"/>
   </g>
   <g id="patch_6">
    <path d="M 57.6 41.472 
L 414.72 41.472 
" style="fill:none;stroke:#000000;stroke-linecap:square;stroke-linejoin:miter;stroke-width:0.8;"/>
   </g>
  </g>
 </g>
 <defs>
  <clipPath id="p2ad10108ad">
   <rect height="266.112" width="357.12" x="57.6" y="41.472"/>
  </clipPath>
 </defs>
</svg>
