<?xml version="1.0" encoding="utf-8" standalone="no"?>
<!DOCTYPE svg PUBLIC "-//W3C//DTD SVG 1.1//EN"
  "http://www.w3.org/Graphics/SVG/1.1/DTD/svg11.dtd">
<!-- Created with matplotlib (https://matplotlib.org/) -->
<svg height="345.6pt" version="1.1" viewBox="0 0 460.8 345.6" width="460.8pt" xmlns="http://www.w3.org/2000/svg" xmlns:xlink="http://www.w3.org/1999/xlink">
 <metadata>
  <rdf:RDF xmlns:cc="http://creativecommons.org/ns#" xmlns:dc="http://purl.org/dc/elements/1.1/" xmlns:rdf="http://www.w3.org/1999/02/22-rdf-syntax-ns#">
   <cc:Work>
    <dc:type rdf:resource="http://purl.org/dc/dcmitype/StillImage"/>
    <dc:date>2021-01-25T13:20:07.270744</dc:date>
    <dc:format>image/svg+xml</dc:format>
    <dc:creator>
     <cc:Agent>
      <dc:title>Matplotlib v3.3.3, https://matplotlib.org/</dc:title>
     </cc:Agent>
    </dc:creator>
   </cc:Work>
  </rdf:RDF>
 </metadata>
 <defs>
  <style type="text/css">*{stroke-linecap:butt;stroke-linejoin:round;}</style>
 </defs>
 <g id="figure_1">
  <g id="patch_1">
   <path d="M 0 345.6 
L 460.8 345.6 
L 460.8 0 
L 0 0 
z
" style="fill:#ffffff;"/>
  </g>
  <g id="axes_1">
   <g id="patch_2">
    <path d="M 57.6 307.584 
L 414.72 307.584 
L 414.72 41.472 
L 57.6 41.472 
z
" style="fill:#7d9051;"/>
   </g>
   <g id="matplotlib.axis_1">
    <g id="xtick_1">
     <g id="line2d_1">
      <defs>
       <path d="M 0 0 
L 0 3.5 
" id="meeb82a5767" style="stroke:#000000;stroke-width:0.8;"/>
      </defs>
      <g>
       <use style="stroke:#000000;stroke-width:0.8;" x="77.139425" xlink:href="#meeb82a5767" y="307.584"/>
      </g>
     </g>
     <g id="text_1">
      <!-- 0 -->
      <g transform="translate(73.958175 322.182437)scale(0.1 -0.1)">
       <defs>
        <path d="M 31.78125 66.40625 
Q 24.171875 66.40625 20.328125 58.90625 
Q 16.5 51.421875 16.5 36.375 
Q 16.5 21.390625 20.328125 13.890625 
Q 24.171875 6.390625 31.78125 6.390625 
Q 39.453125 6.390625 43.28125 13.890625 
Q 47.125 21.390625 47.125 36.375 
Q 47.125 51.421875 43.28125 58.90625 
Q 39.453125 66.40625 31.78125 66.40625 
z
M 31.78125 74.21875 
Q 44.046875 74.21875 50.515625 64.515625 
Q 56.984375 54.828125 56.984375 36.375 
Q 56.984375 17.96875 50.515625 8.265625 
Q 44.046875 -1.421875 31.78125 -1.421875 
Q 19.53125 -1.421875 13.0625 8.265625 
Q 6.59375 17.96875 6.59375 36.375 
Q 6.59375 54.828125 13.0625 64.515625 
Q 19.53125 74.21875 31.78125 74.21875 
z
" id="DejaVuSans-48"/>
       </defs>
       <use xlink:href="#DejaVuSans-48"/>
      </g>
     </g>
    </g>
    <g id="xtick_2">
     <g id="line2d_2">
      <g>
       <use style="stroke:#000000;stroke-width:0.8;" x="155.531233" xlink:href="#meeb82a5767" y="307.584"/>
      </g>
     </g>
     <g id="text_2">
      <!-- 20 -->
      <g transform="translate(149.168733 322.182437)scale(0.1 -0.1)">
       <defs>
        <path d="M 19.1875 8.296875 
L 53.609375 8.296875 
L 53.609375 0 
L 7.328125 0 
L 7.328125 8.296875 
Q 12.9375 14.109375 22.625 23.890625 
Q 32.328125 33.6875 34.8125 36.53125 
Q 39.546875 41.84375 41.421875 45.53125 
Q 43.3125 49.21875 43.3125 52.78125 
Q 43.3125 58.59375 39.234375 62.25 
Q 35.15625 65.921875 28.609375 65.921875 
Q 23.96875 65.921875 18.8125 64.3125 
Q 13.671875 62.703125 7.8125 59.421875 
L 7.8125 69.390625 
Q 13.765625 71.78125 18.9375 73 
Q 24.125 74.21875 28.421875 74.21875 
Q 39.75 74.21875 46.484375 68.546875 
Q 53.21875 62.890625 53.21875 53.421875 
Q 53.21875 48.921875 51.53125 44.890625 
Q 49.859375 40.875 45.40625 35.40625 
Q 44.1875 33.984375 37.640625 27.21875 
Q 31.109375 20.453125 19.1875 8.296875 
z
" id="DejaVuSans-50"/>
       </defs>
       <use xlink:href="#DejaVuSans-50"/>
       <use x="63.623047" xlink:href="#DejaVuSans-48"/>
      </g>
     </g>
    </g>
    <g id="xtick_3">
     <g id="line2d_3">
      <g>
       <use style="stroke:#000000;stroke-width:0.8;" x="233.92304" xlink:href="#meeb82a5767" y="307.584"/>
      </g>
     </g>
     <g id="text_3">
      <!-- 40 -->
      <g transform="translate(227.56054 322.182437)scale(0.1 -0.1)">
       <defs>
        <path d="M 37.796875 64.3125 
L 12.890625 25.390625 
L 37.796875 25.390625 
z
M 35.203125 72.90625 
L 47.609375 72.90625 
L 47.609375 25.390625 
L 58.015625 25.390625 
L 58.015625 17.1875 
L 47.609375 17.1875 
L 47.609375 0 
L 37.796875 0 
L 37.796875 17.1875 
L 4.890625 17.1875 
L 4.890625 26.703125 
z
" id="DejaVuSans-52"/>
       </defs>
       <use xlink:href="#DejaVuSans-52"/>
       <use x="63.623047" xlink:href="#DejaVuSans-48"/>
      </g>
     </g>
    </g>
    <g id="xtick_4">
     <g id="line2d_4">
      <g>
       <use style="stroke:#000000;stroke-width:0.8;" x="312.314848" xlink:href="#meeb82a5767" y="307.584"/>
      </g>
     </g>
     <g id="text_4">
      <!-- 60 -->
      <g transform="translate(305.952348 322.182437)scale(0.1 -0.1)">
       <defs>
        <path d="M 33.015625 40.375 
Q 26.375 40.375 22.484375 35.828125 
Q 18.609375 31.296875 18.609375 23.390625 
Q 18.609375 15.53125 22.484375 10.953125 
Q 26.375 6.390625 33.015625 6.390625 
Q 39.65625 6.390625 43.53125 10.953125 
Q 47.40625 15.53125 47.40625 23.390625 
Q 47.40625 31.296875 43.53125 35.828125 
Q 39.65625 40.375 33.015625 40.375 
z
M 52.59375 71.296875 
L 52.59375 62.3125 
Q 48.875 64.0625 45.09375 64.984375 
Q 41.3125 65.921875 37.59375 65.921875 
Q 27.828125 65.921875 22.671875 59.328125 
Q 17.53125 52.734375 16.796875 39.40625 
Q 19.671875 43.65625 24.015625 45.921875 
Q 28.375 48.1875 33.59375 48.1875 
Q 44.578125 48.1875 50.953125 41.515625 
Q 57.328125 34.859375 57.328125 23.390625 
Q 57.328125 12.15625 50.6875 5.359375 
Q 44.046875 -1.421875 33.015625 -1.421875 
Q 20.359375 -1.421875 13.671875 8.265625 
Q 6.984375 17.96875 6.984375 36.375 
Q 6.984375 53.65625 15.1875 63.9375 
Q 23.390625 74.21875 37.203125 74.21875 
Q 40.921875 74.21875 44.703125 73.484375 
Q 48.484375 72.75 52.59375 71.296875 
z
" id="DejaVuSans-54"/>
       </defs>
       <use xlink:href="#DejaVuSans-54"/>
       <use x="63.623047" xlink:href="#DejaVuSans-48"/>
      </g>
     </g>
    </g>
    <g id="xtick_5">
     <g id="line2d_5">
      <g>
       <use style="stroke:#000000;stroke-width:0.8;" x="390.706655" xlink:href="#meeb82a5767" y="307.584"/>
      </g>
     </g>
     <g id="text_5">
      <!-- 80 -->
      <g transform="translate(384.344155 322.182437)scale(0.1 -0.1)">
       <defs>
        <path d="M 31.78125 34.625 
Q 24.75 34.625 20.71875 30.859375 
Q 16.703125 27.09375 16.703125 20.515625 
Q 16.703125 13.921875 20.71875 10.15625 
Q 24.75 6.390625 31.78125 6.390625 
Q 38.8125 6.390625 42.859375 10.171875 
Q 46.921875 13.96875 46.921875 20.515625 
Q 46.921875 27.09375 42.890625 30.859375 
Q 38.875 34.625 31.78125 34.625 
z
M 21.921875 38.8125 
Q 15.578125 40.375 12.03125 44.71875 
Q 8.5 49.078125 8.5 55.328125 
Q 8.5 64.0625 14.71875 69.140625 
Q 20.953125 74.21875 31.78125 74.21875 
Q 42.671875 74.21875 48.875 69.140625 
Q 55.078125 64.0625 55.078125 55.328125 
Q 55.078125 49.078125 51.53125 44.71875 
Q 48 40.375 41.703125 38.8125 
Q 48.828125 37.15625 52.796875 32.3125 
Q 56.78125 27.484375 56.78125 20.515625 
Q 56.78125 9.90625 50.3125 4.234375 
Q 43.84375 -1.421875 31.78125 -1.421875 
Q 19.734375 -1.421875 13.25 4.234375 
Q 6.78125 9.90625 6.78125 20.515625 
Q 6.78125 27.484375 10.78125 32.3125 
Q 14.796875 37.15625 21.921875 38.8125 
z
M 18.3125 54.390625 
Q 18.3125 48.734375 21.84375 45.5625 
Q 25.390625 42.390625 31.78125 42.390625 
Q 38.140625 42.390625 41.71875 45.5625 
Q 45.3125 48.734375 45.3125 54.390625 
Q 45.3125 60.0625 41.71875 63.234375 
Q 38.140625 66.40625 31.78125 66.40625 
Q 25.390625 66.40625 21.84375 63.234375 
Q 18.3125 60.0625 18.3125 54.390625 
z
" id="DejaVuSans-56"/>
       </defs>
       <use xlink:href="#DejaVuSans-56"/>
       <use x="63.623047" xlink:href="#DejaVuSans-48"/>
      </g>
     </g>
    </g>
   </g>
   <g id="matplotlib.axis_2">
    <g id="ytick_1">
     <g id="line2d_6">
      <defs>
       <path d="M 0 0 
L -3.5 0 
" id="m1f3846a0eb" style="stroke:#000000;stroke-width:0.8;"/>
      </defs>
      <g>
       <use style="stroke:#000000;stroke-width:0.8;" x="57.6" xlink:href="#m1f3846a0eb" y="279.809708"/>
      </g>
     </g>
     <g id="text_6">
      <!-- 10 -->
      <g transform="translate(37.875 283.608927)scale(0.1 -0.1)">
       <defs>
        <path d="M 12.40625 8.296875 
L 28.515625 8.296875 
L 28.515625 63.921875 
L 10.984375 60.40625 
L 10.984375 69.390625 
L 28.421875 72.90625 
L 38.28125 72.90625 
L 38.28125 8.296875 
L 54.390625 8.296875 
L 54.390625 0 
L 12.40625 0 
z
" id="DejaVuSans-49"/>
       </defs>
       <use xlink:href="#DejaVuSans-49"/>
       <use x="63.623047" xlink:href="#DejaVuSans-48"/>
      </g>
     </g>
    </g>
    <g id="ytick_2">
     <g id="line2d_7">
      <g>
       <use style="stroke:#000000;stroke-width:0.8;" x="57.6" xlink:href="#m1f3846a0eb" y="240.613805"/>
      </g>
     </g>
     <g id="text_7">
      <!-- 20 -->
      <g transform="translate(37.875 244.413023)scale(0.1 -0.1)">
       <use xlink:href="#DejaVuSans-50"/>
       <use x="63.623047" xlink:href="#DejaVuSans-48"/>
      </g>
     </g>
    </g>
    <g id="ytick_3">
     <g id="line2d_8">
      <g>
       <use style="stroke:#000000;stroke-width:0.8;" x="57.6" xlink:href="#m1f3846a0eb" y="201.417901"/>
      </g>
     </g>
     <g id="text_8">
      <!-- 30 -->
      <g transform="translate(37.875 205.21712)scale(0.1 -0.1)">
       <defs>
        <path d="M 40.578125 39.3125 
Q 47.65625 37.796875 51.625 33 
Q 55.609375 28.21875 55.609375 21.1875 
Q 55.609375 10.40625 48.1875 4.484375 
Q 40.765625 -1.421875 27.09375 -1.421875 
Q 22.515625 -1.421875 17.65625 -0.515625 
Q 12.796875 0.390625 7.625 2.203125 
L 7.625 11.71875 
Q 11.71875 9.328125 16.59375 8.109375 
Q 21.484375 6.890625 26.8125 6.890625 
Q 36.078125 6.890625 40.9375 10.546875 
Q 45.796875 14.203125 45.796875 21.1875 
Q 45.796875 27.640625 41.28125 31.265625 
Q 36.765625 34.90625 28.71875 34.90625 
L 20.21875 34.90625 
L 20.21875 43.015625 
L 29.109375 43.015625 
Q 36.375 43.015625 40.234375 45.921875 
Q 44.09375 48.828125 44.09375 54.296875 
Q 44.09375 59.90625 40.109375 62.90625 
Q 36.140625 65.921875 28.71875 65.921875 
Q 24.65625 65.921875 20.015625 65.03125 
Q 15.375 64.15625 9.8125 62.3125 
L 9.8125 71.09375 
Q 15.4375 72.65625 20.34375 73.4375 
Q 25.25 74.21875 29.59375 74.21875 
Q 40.828125 74.21875 47.359375 69.109375 
Q 53.90625 64.015625 53.90625 55.328125 
Q 53.90625 49.265625 50.4375 45.09375 
Q 46.96875 40.921875 40.578125 39.3125 
z
" id="DejaVuSans-51"/>
       </defs>
       <use xlink:href="#DejaVuSans-51"/>
       <use x="63.623047" xlink:href="#DejaVuSans-48"/>
      </g>
     </g>
    </g>
    <g id="ytick_4">
     <g id="line2d_9">
      <g>
       <use style="stroke:#000000;stroke-width:0.8;" x="57.6" xlink:href="#m1f3846a0eb" y="162.221997"/>
      </g>
     </g>
     <g id="text_9">
      <!-- 40 -->
      <g transform="translate(37.875 166.021216)scale(0.1 -0.1)">
       <use xlink:href="#DejaVuSans-52"/>
       <use x="63.623047" xlink:href="#DejaVuSans-48"/>
      </g>
     </g>
    </g>
    <g id="ytick_5">
     <g id="line2d_10">
      <g>
       <use style="stroke:#000000;stroke-width:0.8;" x="57.6" xlink:href="#m1f3846a0eb" y="123.026093"/>
      </g>
     </g>
     <g id="text_10">
      <!-- 50 -->
      <g transform="translate(37.875 126.825312)scale(0.1 -0.1)">
       <defs>
        <path d="M 10.796875 72.90625 
L 49.515625 72.90625 
L 49.515625 64.59375 
L 19.828125 64.59375 
L 19.828125 46.734375 
Q 21.96875 47.46875 24.109375 47.828125 
Q 26.265625 48.1875 28.421875 48.1875 
Q 40.625 48.1875 47.75 41.5 
Q 54.890625 34.8125 54.890625 23.390625 
Q 54.890625 11.625 47.5625 5.09375 
Q 40.234375 -1.421875 26.90625 -1.421875 
Q 22.3125 -1.421875 17.546875 -0.640625 
Q 12.796875 0.140625 7.71875 1.703125 
L 7.71875 11.625 
Q 12.109375 9.234375 16.796875 8.0625 
Q 21.484375 6.890625 26.703125 6.890625 
Q 35.15625 6.890625 40.078125 11.328125 
Q 45.015625 15.765625 45.015625 23.390625 
Q 45.015625 31 40.078125 35.4375 
Q 35.15625 39.890625 26.703125 39.890625 
Q 22.75 39.890625 18.8125 39.015625 
Q 14.890625 38.140625 10.796875 36.28125 
z
" id="DejaVuSans-53"/>
       </defs>
       <use xlink:href="#DejaVuSans-53"/>
       <use x="63.623047" xlink:href="#DejaVuSans-48"/>
      </g>
     </g>
    </g>
    <g id="ytick_6">
     <g id="line2d_11">
      <g>
       <use style="stroke:#000000;stroke-width:0.8;" x="57.6" xlink:href="#m1f3846a0eb" y="83.83019"/>
      </g>
     </g>
     <g id="text_11">
      <!-- 60 -->
      <g transform="translate(37.875 87.629408)scale(0.1 -0.1)">
       <use xlink:href="#DejaVuSans-54"/>
       <use x="63.623047" xlink:href="#DejaVuSans-48"/>
      </g>
     </g>
    </g>
    <g id="ytick_7">
     <g id="line2d_12">
      <g>
       <use style="stroke:#000000;stroke-width:0.8;" x="57.6" xlink:href="#m1f3846a0eb" y="44.634286"/>
      </g>
     </g>
     <g id="text_12">
      <!-- 70 -->
      <g transform="translate(37.875 48.433505)scale(0.1 -0.1)">
       <defs>
        <path d="M 8.203125 72.90625 
L 55.078125 72.90625 
L 55.078125 68.703125 
L 28.609375 0 
L 18.3125 0 
L 43.21875 64.59375 
L 8.203125 64.59375 
z
" id="DejaVuSans-55"/>
       </defs>
       <use xlink:href="#DejaVuSans-55"/>
       <use x="63.623047" xlink:href="#DejaVuSans-48"/>
      </g>
     </g>
    </g>
   </g>
   <g id="line2d_13">
    <path clip-path="url(#p1e0a3426e2)" d="M 220.674825 223.794842 
L 219.589098 219.898769 
L 218.758145 215.96742 
L 218.178046 212.016473 
L 217.840961 208.053767 
L 217.746891 204.087142 
L 217.887996 200.128356 
L 218.260357 196.193087 
L 218.856135 192.285255 
L 219.675329 188.41662 
L 220.706182 184.598939 
L 221.948692 180.843971 
L 223.395021 177.159556 
L 225.041249 173.557452 
L 226.883456 170.049419 
L 228.913804 166.643295 
L 231.132292 163.350839 
L 233.527162 160.179891 
L 236.098413 157.146128 
L 238.838207 154.257389 
L 241.742623 151.525435 
L 244.803823 148.958103 
L 248.010048 146.571073 
L 251.353459 144.368263 
L 254.814457 142.369272 
L 258.385204 140.585858 
L 262.050021 139.021942 
L 265.79323 137.693201 
L 269.610911 136.611394 
L 273.479546 135.792199 
L 277.395217 135.239537 
L 281.334406 134.965166 
L 285.293192 134.965166 
L 289.251978 135.223859 
L 293.195086 135.737325 
L 297.106837 136.493806 
L 300.975473 137.481543 
L 304.781395 138.688776 
L 308.516765 140.111588 
L 312.158064 141.738218 
L 315.697454 143.556908 
L 319.115337 145.559818 
L 322.415632 147.739111 
L 325.586581 150.083026 
L 328.632103 152.591564 
L 331.548278 155.249046 
L 334.335107 158.051553 
L 336.988669 160.991246 
L 339.501127 164.056365 
L 341.880318 167.246912 
L 344.118404 170.551127 
L 346.211466 173.957251 
L 348.143824 177.461364 
L 349.911559 181.051709 
L 351.495073 184.716526 
L 352.882608 188.447976 
L 354.058485 192.23822 
L 355.010946 196.075499 
L 355.728231 199.951974 
L 356.194662 203.851966 
L 356.398481 207.771557 
L 356.327928 211.698986 
L 355.990843 215.622496 
L 355.398985 219.526408 
L 354.560193 223.398964 
L 353.486225 227.228403 
L 352.188841 231.002969 
L 350.671959 234.703062 
L 348.955179 238.320844 
L 347.042419 241.844556 
L 344.945438 245.2546 
L 342.672075 248.547056 
L 340.23409 251.706245 
L 337.639321 254.72825 
L 334.895608 257.605229 
L 332.00687 260.329344 
L 328.984866 262.888837 
L 325.837435 265.279787 
L 322.568496 267.498275 
L 319.189809 269.528623 
L 315.709213 271.366911 
L 312.134547 273.005299 
L 308.473649 274.451628 
L 304.73828 275.713736 
L 300.940197 276.791624 
L 297.091159 277.69313 
L 293.199006 278.430013 
L 289.275496 279.002273 
L 285.332388 279.417749 
L 281.381441 279.684281 
L 277.434413 279.809708 
L 273.495225 279.79795 
L 269.571715 279.656844 
L 261.752132 279.037549 
L 253.971745 278.022375 
L 246.230554 276.697554 
L 238.5168 275.137557 
L 230.838323 273.397258 
L 223.21472 271.449222 
L 215.677347 269.234654 
L 208.261482 266.706518 
L 200.994562 263.80994 
L 193.904023 260.505726 
L 186.985946 256.82915 
L 180.224652 252.827248 
L 173.616223 248.550975 
L 167.144979 244.047366 
L 160.814841 239.347777 
L 154.672843 234.424771 
L 148.785618 229.227395 
L 145.955674 226.511118 
L 143.21588 223.708611 
L 140.566237 220.812034 
L 138.018503 217.817467 
L 135.580518 214.720991 
L 133.26012 211.526524 
L 131.06123 208.237988 
L 128.991686 204.86714 
L 127.055409 201.413981 
L 125.264156 197.89027 
L 123.617928 194.303844 
L 122.128484 190.654706 
L 120.795823 186.950693 
L 119.631705 183.203564 
L 118.640048 179.41332 
L 117.813015 175.5878 
L 117.142765 171.730923 
L 116.629298 167.84269 
L 116.256937 163.930938 
L 116.025682 159.999589 
L 115.923772 156.052562 
L 115.94729 152.089856 
L 116.084475 148.119311 
L 116.692012 140.170382 
L 117.162363 136.203756 
L 117.76206 132.264568 
L 118.498943 128.356736 
L 119.38477 124.49202 
L 120.435221 120.690017 
L 121.658133 116.954648 
L 123.065266 113.30159 
L 124.672298 109.742602 
L 126.487068 106.285523 
L 128.517416 102.946032 
L 130.759422 99.731968 
L 133.197407 96.643331 
L 135.815693 93.687959 
L 138.610361 90.869774 
L 141.557893 88.200533 
L 144.658289 85.680236 
L 147.888032 83.320643 
L 151.243201 81.117833 
L 154.708119 79.087485 
L 158.267107 77.22568 
L 161.912326 75.548095 
L 165.632017 74.050812 
L 169.410502 72.749508 
L 173.236023 71.640264 
L 177.096819 70.734838 
L 180.981133 70.037151 
L 184.877206 69.551122 
L 188.769359 69.288509 
L 192.649754 69.245394 
L 192.649754 69.245394 
" style="fill:none;stroke:#fea952;stroke-linecap:square;"/>
   </g>
   <g id="line2d_14">
    <path clip-path="url(#p1e0a3426e2)" d="M 205.571931 228.003596 
L 204.249642 223.141007 
L 203.246094 218.244983 
L 202.556102 213.345343 
L 202.167007 208.425482 
L 202.078479 203.528664 
L 202.279353 198.651442 
L 202.761088 193.830109 
L 203.517881 189.037337 
L 204.539061 184.329516 
L 205.821542 179.673645 
L 207.354524 175.114984 
L 209.135281 170.642591 
L 211.160458 166.268099 
L 213.416182 162.021746 
L 215.911641 157.882314 
L 218.621222 153.901811 
L 221.566726 150.04288 
L 224.72275 146.356998 
L 228.096177 142.83724 
L 231.667807 139.512563 
L 235.441142 136.382285 
L 239.384225 133.478854 
L 243.511975 130.791733 
L 247.80904 128.343041 
L 252.231539 126.165615 
L 256.80525 124.246848 
L 261.51879 122.608765 
L 266.362993 121.273139 
L 271.288402 120.267706 
L 276.305831 119.599068 
L 281.334406 119.286804 
L 286.315538 119.320172 
L 291.276501 119.676758 
L 296.17192 120.344162 
L 300.985401 121.302764 
L 305.715867 122.536989 
L 310.362179 124.037296 
L 314.911503 125.796619 
L 319.323646 127.793131 
L 323.624317 130.03005 
L 327.754671 132.476511 
L 331.735148 135.13127 
L 335.554521 137.981324 
L 339.192457 141.00321 
L 342.665607 144.193911 
L 345.973297 147.546147 
L 349.114066 151.052142 
L 352.069708 154.683971 
L 354.861188 158.454413 
L 357.476286 162.342716 
L 359.940657 166.386231 
L 362.209709 170.535912 
L 364.303871 174.832999 
L 366.190349 179.252106 
L 367.856903 183.802383 
L 369.275109 188.461265 
L 370.42761 193.222871 
L 371.295652 198.090142 
L 371.851869 203.037792 
L 372.074313 208.053159 
L 371.948745 213.041035 
L 371.492073 217.972582 
L 370.722025 222.845366 
L 369.656124 227.632623 
L 368.31319 232.324691 
L 366.69549 236.950081 
L 364.836397 241.424648 
L 362.734344 245.800525 
L 360.39766 250.057262 
L 357.847113 254.162899 
L 355.084221 258.125659 
L 352.129273 261.919749 
L 348.985263 265.54863 
L 345.652102 269.011756 
L 342.13975 272.29328 
L 338.46882 275.373452 
L 334.641618 278.252735 
L 330.644116 280.936854 
L 326.51189 283.392178 
L 322.241676 285.619558 
L 317.895382 287.586925 
L 313.492326 289.305042 
L 309.018725 290.796469 
L 304.51556 292.056872 
L 300.00766 293.097838 
L 295.461817 293.944222 
L 290.918395 294.594319 
L 286.387657 295.060557 
L 281.879409 295.354733 
L 277.387612 295.488 
L 272.931732 295.466182 
L 268.553754 295.302124 
L 264.198441 295.012529 
L 255.647576 294.097074 
L 247.316573 292.824695 
L 239.168972 291.289232 
L 231.112055 289.55985 
L 223.015916 287.611943 
L 214.861149 285.376356 
L 206.714334 282.792659 
L 198.6073 279.791613 
L 194.567251 278.110314 
L 190.611581 276.326002 
L 186.717251 274.439904 
L 179.148408 270.407958 
L 171.836656 266.073098 
L 164.761787 261.489676 
L 157.905818 256.714209 
L 151.135308 251.681376 
L 144.455333 246.316513 
L 141.160797 243.478359 
L 137.928832 240.538505 
L 134.74467 237.471247 
L 131.647471 234.29081 
L 128.624906 230.971543 
L 125.700066 227.516287 
L 122.895479 223.935154 
L 120.226897 220.241231 
L 117.700096 216.441103 
L 115.316459 212.535202 
L 113.079205 208.518681 
L 111.015198 204.430775 
L 109.102154 200.22865 
L 107.375916 195.962508 
L 105.823359 191.60218 
L 104.463887 187.17198 
L 103.315708 182.726267 
L 102.366163 178.272162 
L 101.599348 173.783532 
L 101.02149 169.328403 
L 100.605631 164.851604 
L 100.352543 160.404258 
L 100.245687 155.959517 
L 100.278278 151.548478 
L 100.43725 147.131715 
L 100.719725 142.743446 
L 101.122724 138.324221 
L 101.662589 133.844089 
L 102.355217 129.359366 
L 103.216878 124.853951 
L 104.2726 120.316699 
L 105.535055 115.811894 
L 107.027637 111.319081 
L 108.776087 106.849427 
L 110.790386 102.455385 
L 113.090385 98.140591 
L 115.658485 93.976143 
L 118.452947 90.017973 
L 121.462095 86.246529 
L 124.683064 82.648231 
L 128.08628 79.248469 
L 131.668339 76.03469 
L 135.409337 73.02054 
L 139.283322 70.214538 
L 143.316704 67.590761 
L 147.440683 65.195207 
L 151.712504 62.983201 
L 156.057834 61.00382 
L 160.526705 59.226952 
L 165.044265 57.691387 
L 169.656291 56.376039 
L 174.325082 55.303426 
L 179.040325 54.479379 
L 183.821751 53.908327 
L 188.595166 53.611115 
L 192.475561 53.568 
L 192.475561 53.568 
" style="fill:none;stroke:#ffffff;stroke-linecap:square;"/>
   </g>
   <g id="line2d_15">
    <path clip-path="url(#p1e0a3426e2)" d="M 235.777719 219.586088 
L 234.928554 216.656531 
L 234.270196 213.689857 
L 233.79999 210.687604 
L 233.514916 207.682053 
L 233.415303 204.64562 
L 233.49664 201.605269 
L 233.759627 198.556065 
L 234.194389 195.533173 
L 234.811597 192.503723 
L 235.590822 189.524232 
L 236.542859 186.572958 
L 237.654761 183.676521 
L 238.922039 180.846806 
L 240.350731 178.077092 
L 241.915967 175.404276 
L 243.643362 172.799868 
L 245.487598 170.316901 
L 247.474076 167.935257 
L 249.580237 165.677539 
L 251.817439 163.538307 
L 254.166505 161.533922 
L 256.635871 159.663292 
L 259.194942 157.944792 
L 261.819874 156.395503 
L 264.538869 155.006102 
L 267.294792 153.797035 
L 270.067669 152.777636 
L 272.858829 151.949648 
L 275.670691 151.316693 
L 278.484603 150.880006 
L 281.334406 150.643527 
L 284.270846 150.610159 
L 287.227455 150.770959 
L 290.218252 151.130488 
L 293.228273 151.684848 
L 296.235079 152.426096 
L 299.200611 153.340257 
L 302.122026 154.426557 
L 304.992482 155.683305 
L 307.770592 157.083765 
L 310.476004 158.643126 
L 313.096116 160.346951 
L 315.618641 162.184728 
L 318.071748 164.179917 
L 320.430948 166.304181 
L 322.696917 168.556959 
L 324.863273 170.930349 
L 326.932545 173.42876 
L 328.899448 176.039411 
L 330.760522 178.759537 
L 332.482274 181.52827 
L 334.077938 184.386817 
L 335.519246 187.27042 
L 336.799797 190.180946 
L 337.908314 193.093569 
L 338.841862 196.015176 
L 339.594282 198.928128 
L 340.16081 201.813806 
L 340.537455 204.666141 
L 340.722649 207.489955 
L 340.707111 210.356938 
L 340.489614 213.27241 
L 340.075946 216.20745 
L 339.464262 219.165304 
L 338.659261 222.132116 
L 337.682191 225.055857 
L 336.507521 227.981476 
L 335.176013 230.841164 
L 333.687177 233.63185 
L 332.043763 236.3463 
L 330.259929 238.968452 
L 328.338907 241.492742 
L 326.29338 243.907869 
L 324.139114 246.198702 
L 321.87399 248.365408 
L 319.500911 250.404221 
L 317.033252 252.306839 
L 314.492877 254.059696 
L 311.867729 255.665068 
L 309.17675 257.114264 
L 306.373712 258.423674 
L 303.454972 259.598215 
L 300.457835 260.631004 
L 297.364833 261.526376 
L 294.174658 262.288421 
L 290.936194 262.915803 
L 287.632596 263.410227 
L 284.277119 263.774942 
L 280.883472 264.01383 
L 277.481214 264.131417 
L 274.058718 264.129718 
L 267.113647 263.791613 
L 260.064543 263.053001 
L 252.881807 261.965786 
L 245.570544 260.592914 
L 238.231309 259.022 
L 231.017529 257.293331 
L 224.003481 255.381992 
L 217.193139 253.238663 
L 210.609548 250.822835 
L 204.243887 248.087654 
L 197.950813 244.957391 
L 191.716794 241.461538 
L 185.547142 237.643725 
L 179.419704 233.52674 
L 173.410229 229.21413 
L 167.649046 224.785336 
L 162.227111 220.252199 
L 157.166678 215.55099 
L 152.507568 210.652525 
L 150.336941 208.118647 
L 148.265557 205.506827 
L 146.293344 202.811818 
L 144.422365 200.034873 
L 142.666914 197.199079 
L 141.031612 194.309282 
L 139.513114 191.349764 
L 138.133702 188.379039 
L 136.881052 185.346904 
L 135.768287 182.299205 
L 134.799522 179.235149 
L 133.964389 176.100374 
L 133.259866 172.903439 
L 132.686182 169.678315 
L 132.237107 166.356976 
L 131.908244 163.010273 
L 131.69882 159.59492 
L 131.601858 156.145607 
L 131.731701 149.106907 
L 132.261299 142.016542 
L 132.662137 138.563423 
L 133.168903 135.16977 
L 133.781008 131.859522 
L 134.496941 128.667342 
L 135.335386 125.568141 
L 136.288629 122.590214 
L 137.354444 119.753752 
L 138.55421 117.029819 
L 139.883751 114.430454 
L 141.376347 111.915921 
L 143.065897 109.445962 
L 144.932719 107.040132 
L 146.948322 104.727687 
L 149.134442 102.491079 
L 151.447447 100.366376 
L 153.907242 98.339932 
L 156.492741 96.426748 
L 159.169698 94.644905 
L 161.975555 92.979763 
L 164.82171 91.468158 
L 167.766818 90.09237 
L 170.73733 88.874671 
L 173.77674 87.807628 
L 176.815754 86.904488 
L 179.868556 86.166251 
L 182.921942 85.594923 
L 185.932662 85.193917 
L 188.943553 84.965903 
L 192.823947 84.922788 
L 192.823947 84.922788 
" style="fill:none;stroke:#ffffff;stroke-linecap:square;"/>
   </g>
   <g id="patch_3">
    <path d="M 57.6 307.584 
L 57.6 41.472 
" style="fill:none;stroke:#000000;stroke-linecap:square;stroke-linejoin:miter;stroke-width:0.8;"/>
   </g>
   <g id="patch_4">
    <path d="M 414.72 307.584 
L 414.72 41.472 
" style="fill:none;stroke:#000000;stroke-linecap:square;stroke-linejoin:miter;stroke-width:0.8;"/>
   </g>
   <g id="patch_5">
    <path d="M 57.6 307.584 
L 414.72 307.584 
" style="fill:none;stroke:#000000;stroke-linecap:square;stroke-linejoin:miter;stroke-width:0.8;"/>
   </g>
   <g id="patch_6">
    <path d="M 57.6 41.472 
L 414.72 41.472 
" style="fill:none;stroke:#000000;stroke-linecap:square;stroke-linejoin:miter;stroke-width:0.8;"/>
   </g>
  </g>
 </g>
 <defs>
  <clipPath id="p1e0a3426e2">
   <rect height="266.112" width="357.12" x="57.6" y="41.472"/>
  </clipPath>
 </defs>
</svg>
