<?xml version="1.0" encoding="utf-8" standalone="no"?>
<!DOCTYPE svg PUBLIC "-//W3C//DTD SVG 1.1//EN"
  "http://www.w3.org/Graphics/SVG/1.1/DTD/svg11.dtd">
<!-- Created with matplotlib (https://matplotlib.org/) -->
<svg height="345.6pt" version="1.1" viewBox="0 0 460.8 345.6" width="460.8pt" xmlns="http://www.w3.org/2000/svg" xmlns:xlink="http://www.w3.org/1999/xlink">
 <metadata>
  <rdf:RDF xmlns:cc="http://creativecommons.org/ns#" xmlns:dc="http://purl.org/dc/elements/1.1/" xmlns:rdf="http://www.w3.org/1999/02/22-rdf-syntax-ns#">
   <cc:Work>
    <dc:type rdf:resource="http://purl.org/dc/dcmitype/StillImage"/>
    <dc:date>2021-01-25T10:45:57.654141</dc:date>
    <dc:format>image/svg+xml</dc:format>
    <dc:creator>
     <cc:Agent>
      <dc:title>Matplotlib v3.3.3, https://matplotlib.org/</dc:title>
     </cc:Agent>
    </dc:creator>
   </cc:Work>
  </rdf:RDF>
 </metadata>
 <defs>
  <style type="text/css">*{stroke-linecap:butt;stroke-linejoin:round;}</style>
 </defs>
 <g id="figure_1">
  <g id="patch_1">
   <path d="M 0 345.6 
L 460.8 345.6 
L 460.8 0 
L 0 0 
z
" style="fill:#ffffff;"/>
  </g>
  <g id="axes_1">
   <g id="patch_2">
    <path d="M 57.6 307.584 
L 414.72 307.584 
L 414.72 41.472 
L 57.6 41.472 
z
" style="fill:#7d9051;"/>
   </g>
   <g id="matplotlib.axis_1">
    <g id="xtick_1">
     <g id="line2d_1">
      <defs>
       <path d="M 0 0 
L 0 3.5 
" id="mcf292db37d" style="stroke:#000000;stroke-width:0.8;"/>
      </defs>
      <g>
       <use style="stroke:#000000;stroke-width:0.8;" x="64.024148" xlink:href="#mcf292db37d" y="307.584"/>
      </g>
     </g>
     <g id="text_1">
      <!-- −20 -->
      <g transform="translate(53.471804 322.182437)scale(0.1 -0.1)">
       <defs>
        <path d="M 10.59375 35.5 
L 73.1875 35.5 
L 73.1875 27.203125 
L 10.59375 27.203125 
z
" id="DejaVuSans-8722"/>
        <path d="M 19.1875 8.296875 
L 53.609375 8.296875 
L 53.609375 0 
L 7.328125 0 
L 7.328125 8.296875 
Q 12.9375 14.109375 22.625 23.890625 
Q 32.328125 33.6875 34.8125 36.53125 
Q 39.546875 41.84375 41.421875 45.53125 
Q 43.3125 49.21875 43.3125 52.78125 
Q 43.3125 58.59375 39.234375 62.25 
Q 35.15625 65.921875 28.609375 65.921875 
Q 23.96875 65.921875 18.8125 64.3125 
Q 13.671875 62.703125 7.8125 59.421875 
L 7.8125 69.390625 
Q 13.765625 71.78125 18.9375 73 
Q 24.125 74.21875 28.421875 74.21875 
Q 39.75 74.21875 46.484375 68.546875 
Q 53.21875 62.890625 53.21875 53.421875 
Q 53.21875 48.921875 51.53125 44.890625 
Q 49.859375 40.875 45.40625 35.40625 
Q 44.1875 33.984375 37.640625 27.21875 
Q 31.109375 20.453125 19.1875 8.296875 
z
" id="DejaVuSans-50"/>
        <path d="M 31.78125 66.40625 
Q 24.171875 66.40625 20.328125 58.90625 
Q 16.5 51.421875 16.5 36.375 
Q 16.5 21.390625 20.328125 13.890625 
Q 24.171875 6.390625 31.78125 6.390625 
Q 39.453125 6.390625 43.28125 13.890625 
Q 47.125 21.390625 47.125 36.375 
Q 47.125 51.421875 43.28125 58.90625 
Q 39.453125 66.40625 31.78125 66.40625 
z
M 31.78125 74.21875 
Q 44.046875 74.21875 50.515625 64.515625 
Q 56.984375 54.828125 56.984375 36.375 
Q 56.984375 17.96875 50.515625 8.265625 
Q 44.046875 -1.421875 31.78125 -1.421875 
Q 19.53125 -1.421875 13.0625 8.265625 
Q 6.59375 17.96875 6.59375 36.375 
Q 6.59375 54.828125 13.0625 64.515625 
Q 19.53125 74.21875 31.78125 74.21875 
z
" id="DejaVuSans-48"/>
       </defs>
       <use xlink:href="#DejaVuSans-8722"/>
       <use x="83.789062" xlink:href="#DejaVuSans-50"/>
       <use x="147.412109" xlink:href="#DejaVuSans-48"/>
      </g>
     </g>
    </g>
    <g id="xtick_2">
     <g id="line2d_2">
      <g>
       <use style="stroke:#000000;stroke-width:0.8;" x="118.06416" xlink:href="#mcf292db37d" y="307.584"/>
      </g>
     </g>
     <g id="text_2">
      <!-- 0 -->
      <g transform="translate(114.88291 322.182437)scale(0.1 -0.1)">
       <use xlink:href="#DejaVuSans-48"/>
      </g>
     </g>
    </g>
    <g id="xtick_3">
     <g id="line2d_3">
      <g>
       <use style="stroke:#000000;stroke-width:0.8;" x="172.104173" xlink:href="#mcf292db37d" y="307.584"/>
      </g>
     </g>
     <g id="text_3">
      <!-- 20 -->
      <g transform="translate(165.741673 322.182437)scale(0.1 -0.1)">
       <use xlink:href="#DejaVuSans-50"/>
       <use x="63.623047" xlink:href="#DejaVuSans-48"/>
      </g>
     </g>
    </g>
    <g id="xtick_4">
     <g id="line2d_4">
      <g>
       <use style="stroke:#000000;stroke-width:0.8;" x="226.144186" xlink:href="#mcf292db37d" y="307.584"/>
      </g>
     </g>
     <g id="text_4">
      <!-- 40 -->
      <g transform="translate(219.781686 322.182437)scale(0.1 -0.1)">
       <defs>
        <path d="M 37.796875 64.3125 
L 12.890625 25.390625 
L 37.796875 25.390625 
z
M 35.203125 72.90625 
L 47.609375 72.90625 
L 47.609375 25.390625 
L 58.015625 25.390625 
L 58.015625 17.1875 
L 47.609375 17.1875 
L 47.609375 0 
L 37.796875 0 
L 37.796875 17.1875 
L 4.890625 17.1875 
L 4.890625 26.703125 
z
" id="DejaVuSans-52"/>
       </defs>
       <use xlink:href="#DejaVuSans-52"/>
       <use x="63.623047" xlink:href="#DejaVuSans-48"/>
      </g>
     </g>
    </g>
    <g id="xtick_5">
     <g id="line2d_5">
      <g>
       <use style="stroke:#000000;stroke-width:0.8;" x="280.184199" xlink:href="#mcf292db37d" y="307.584"/>
      </g>
     </g>
     <g id="text_5">
      <!-- 60 -->
      <g transform="translate(273.821699 322.182437)scale(0.1 -0.1)">
       <defs>
        <path d="M 33.015625 40.375 
Q 26.375 40.375 22.484375 35.828125 
Q 18.609375 31.296875 18.609375 23.390625 
Q 18.609375 15.53125 22.484375 10.953125 
Q 26.375 6.390625 33.015625 6.390625 
Q 39.65625 6.390625 43.53125 10.953125 
Q 47.40625 15.53125 47.40625 23.390625 
Q 47.40625 31.296875 43.53125 35.828125 
Q 39.65625 40.375 33.015625 40.375 
z
M 52.59375 71.296875 
L 52.59375 62.3125 
Q 48.875 64.0625 45.09375 64.984375 
Q 41.3125 65.921875 37.59375 65.921875 
Q 27.828125 65.921875 22.671875 59.328125 
Q 17.53125 52.734375 16.796875 39.40625 
Q 19.671875 43.65625 24.015625 45.921875 
Q 28.375 48.1875 33.59375 48.1875 
Q 44.578125 48.1875 50.953125 41.515625 
Q 57.328125 34.859375 57.328125 23.390625 
Q 57.328125 12.15625 50.6875 5.359375 
Q 44.046875 -1.421875 33.015625 -1.421875 
Q 20.359375 -1.421875 13.671875 8.265625 
Q 6.984375 17.96875 6.984375 36.375 
Q 6.984375 53.65625 15.1875 63.9375 
Q 23.390625 74.21875 37.203125 74.21875 
Q 40.921875 74.21875 44.703125 73.484375 
Q 48.484375 72.75 52.59375 71.296875 
z
" id="DejaVuSans-54"/>
       </defs>
       <use xlink:href="#DejaVuSans-54"/>
       <use x="63.623047" xlink:href="#DejaVuSans-48"/>
      </g>
     </g>
    </g>
    <g id="xtick_6">
     <g id="line2d_6">
      <g>
       <use style="stroke:#000000;stroke-width:0.8;" x="334.224211" xlink:href="#mcf292db37d" y="307.584"/>
      </g>
     </g>
     <g id="text_6">
      <!-- 80 -->
      <g transform="translate(327.861711 322.182437)scale(0.1 -0.1)">
       <defs>
        <path d="M 31.78125 34.625 
Q 24.75 34.625 20.71875 30.859375 
Q 16.703125 27.09375 16.703125 20.515625 
Q 16.703125 13.921875 20.71875 10.15625 
Q 24.75 6.390625 31.78125 6.390625 
Q 38.8125 6.390625 42.859375 10.171875 
Q 46.921875 13.96875 46.921875 20.515625 
Q 46.921875 27.09375 42.890625 30.859375 
Q 38.875 34.625 31.78125 34.625 
z
M 21.921875 38.8125 
Q 15.578125 40.375 12.03125 44.71875 
Q 8.5 49.078125 8.5 55.328125 
Q 8.5 64.0625 14.71875 69.140625 
Q 20.953125 74.21875 31.78125 74.21875 
Q 42.671875 74.21875 48.875 69.140625 
Q 55.078125 64.0625 55.078125 55.328125 
Q 55.078125 49.078125 51.53125 44.71875 
Q 48 40.375 41.703125 38.8125 
Q 48.828125 37.15625 52.796875 32.3125 
Q 56.78125 27.484375 56.78125 20.515625 
Q 56.78125 9.90625 50.3125 4.234375 
Q 43.84375 -1.421875 31.78125 -1.421875 
Q 19.734375 -1.421875 13.25 4.234375 
Q 6.78125 9.90625 6.78125 20.515625 
Q 6.78125 27.484375 10.78125 32.3125 
Q 14.796875 37.15625 21.921875 38.8125 
z
M 18.3125 54.390625 
Q 18.3125 48.734375 21.84375 45.5625 
Q 25.390625 42.390625 31.78125 42.390625 
Q 38.140625 42.390625 41.71875 45.5625 
Q 45.3125 48.734375 45.3125 54.390625 
Q 45.3125 60.0625 41.71875 63.234375 
Q 38.140625 66.40625 31.78125 66.40625 
Q 25.390625 66.40625 21.84375 63.234375 
Q 18.3125 60.0625 18.3125 54.390625 
z
" id="DejaVuSans-56"/>
       </defs>
       <use xlink:href="#DejaVuSans-56"/>
       <use x="63.623047" xlink:href="#DejaVuSans-48"/>
      </g>
     </g>
    </g>
    <g id="xtick_7">
     <g id="line2d_7">
      <g>
       <use style="stroke:#000000;stroke-width:0.8;" x="388.264224" xlink:href="#mcf292db37d" y="307.584"/>
      </g>
     </g>
     <g id="text_7">
      <!-- 100 -->
      <g transform="translate(378.720474 322.182437)scale(0.1 -0.1)">
       <defs>
        <path d="M 12.40625 8.296875 
L 28.515625 8.296875 
L 28.515625 63.921875 
L 10.984375 60.40625 
L 10.984375 69.390625 
L 28.421875 72.90625 
L 38.28125 72.90625 
L 38.28125 8.296875 
L 54.390625 8.296875 
L 54.390625 0 
L 12.40625 0 
z
" id="DejaVuSans-49"/>
       </defs>
       <use xlink:href="#DejaVuSans-49"/>
       <use x="63.623047" xlink:href="#DejaVuSans-48"/>
       <use x="127.246094" xlink:href="#DejaVuSans-48"/>
      </g>
     </g>
    </g>
   </g>
   <g id="matplotlib.axis_2">
    <g id="ytick_1">
     <g id="line2d_8">
      <defs>
       <path d="M 0 0 
L -3.5 0 
" id="m0b17049d56" style="stroke:#000000;stroke-width:0.8;"/>
      </defs>
      <g>
       <use style="stroke:#000000;stroke-width:0.8;" x="57.6" xlink:href="#m0b17049d56" y="264.030997"/>
      </g>
     </g>
     <g id="text_8">
      <!-- 20 -->
      <g transform="translate(37.875 267.830216)scale(0.1 -0.1)">
       <use xlink:href="#DejaVuSans-50"/>
       <use x="63.623047" xlink:href="#DejaVuSans-48"/>
      </g>
     </g>
    </g>
    <g id="ytick_2">
     <g id="line2d_9">
      <g>
       <use style="stroke:#000000;stroke-width:0.8;" x="57.6" xlink:href="#m0b17049d56" y="209.990985"/>
      </g>
     </g>
     <g id="text_9">
      <!-- 40 -->
      <g transform="translate(37.875 213.790203)scale(0.1 -0.1)">
       <use xlink:href="#DejaVuSans-52"/>
       <use x="63.623047" xlink:href="#DejaVuSans-48"/>
      </g>
     </g>
    </g>
    <g id="ytick_3">
     <g id="line2d_10">
      <g>
       <use style="stroke:#000000;stroke-width:0.8;" x="57.6" xlink:href="#m0b17049d56" y="155.950972"/>
      </g>
     </g>
     <g id="text_10">
      <!-- 60 -->
      <g transform="translate(37.875 159.750191)scale(0.1 -0.1)">
       <use xlink:href="#DejaVuSans-54"/>
       <use x="63.623047" xlink:href="#DejaVuSans-48"/>
      </g>
     </g>
    </g>
    <g id="ytick_4">
     <g id="line2d_11">
      <g>
       <use style="stroke:#000000;stroke-width:0.8;" x="57.6" xlink:href="#m0b17049d56" y="101.910959"/>
      </g>
     </g>
     <g id="text_11">
      <!-- 80 -->
      <g transform="translate(37.875 105.710178)scale(0.1 -0.1)">
       <use xlink:href="#DejaVuSans-56"/>
       <use x="63.623047" xlink:href="#DejaVuSans-48"/>
      </g>
     </g>
    </g>
    <g id="ytick_5">
     <g id="line2d_12">
      <g>
       <use style="stroke:#000000;stroke-width:0.8;" x="57.6" xlink:href="#m0b17049d56" y="47.870946"/>
      </g>
     </g>
     <g id="text_12">
      <!-- 100 -->
      <g transform="translate(31.5125 51.670165)scale(0.1 -0.1)">
       <use xlink:href="#DejaVuSans-49"/>
       <use x="63.623047" xlink:href="#DejaVuSans-48"/>
       <use x="127.246094" xlink:href="#DejaVuSans-48"/>
      </g>
     </g>
    </g>
   </g>
   <g id="line2d_13">
    <path clip-path="url(#p2495f8fbef)" d="M 325.915559 179.774511 
L 326.423535 177.007663 
L 326.80722 174.254324 
L 327.066612 171.517197 
L 327.23954 166.088878 
L 326.993658 160.717301 
L 326.374899 155.397062 
L 325.423795 150.122756 
L 324.188981 144.891683 
L 322.713689 139.695736 
L 321.043852 134.534915 
L 318.274302 126.845021 
L 315.256167 119.233485 
L 313.03242 114.275314 
L 310.562792 109.465753 
L 307.777029 104.858842 
L 306.244995 102.648605 
L 304.612986 100.508621 
L 301.067961 96.431302 
L 297.198697 92.624183 
L 293.061934 89.073754 
L 288.717117 85.777313 
L 284.22369 82.721351 
L 279.611374 79.895058 
L 274.888277 77.276819 
L 270.059802 74.855827 
L 265.125949 72.607762 
L 260.097526 70.516414 
L 254.979937 68.616907 
L 249.783989 66.976793 
L 244.523194 65.674429 
L 241.872532 65.174558 
L 239.208359 64.78547 
L 236.533378 64.520674 
L 233.84759 64.385574 
L 228.4598 64.463932 
L 223.063905 64.939484 
L 217.676116 65.725767 
L 212.318049 66.739017 
L 204.371465 68.508827 
L 199.143093 69.846318 
L 193.963358 71.345928 
L 188.832259 73.042784 
L 183.747094 74.974715 
L 178.721373 77.174143 
L 173.833453 79.684302 
L 171.474607 81.07313 
L 169.186012 82.553826 
L 166.98118 84.137199 
L 164.870917 85.825949 
L 162.871437 87.625482 
L 160.990844 89.543902 
L 159.24265 91.581211 
L 157.62145 93.729301 
L 156.121839 95.980068 
L 154.741117 98.317298 
L 153.473879 100.735589 
L 152.31472 103.216025 
L 150.296326 108.333615 
L 148.65351 113.5809 
L 147.343039 118.879523 
L 146.348703 124.21057 
L 145.651587 129.568638 
L 145.235479 134.956427 
L 145.084167 140.36313 
L 145.186843 145.786045 
L 145.557017 151.203557 
L 146.213603 156.588644 
L 147.175515 161.919691 
L 148.461668 167.17238 
L 150.08557 172.325096 
L 152.014798 177.375135 
L 154.214227 182.3252 
L 156.643325 187.180695 
L 159.264266 191.938918 
L 162.047327 196.602571 
L 164.995209 201.155442 
L 168.118722 205.575915 
L 171.431375 209.845077 
L 174.941274 213.946713 
L 178.653823 217.861912 
L 182.544704 221.614991 
L 186.576088 225.227566 
L 192.815008 230.434321 
L 201.32631 237.119071 
L 211.950576 245.452041 
L 218.162476 250.6642 
L 222.185755 254.290285 
L 226.087444 258.046066 
L 229.845927 261.939649 
L 233.44229 265.976438 
L 236.854916 270.164539 
L 240.059489 274.512058 
L 243.039796 279.018995 
L 245.771518 283.69886 
L 248.233041 288.554355 
L 249.357073 291.051004 
L 249.357073 291.051004 
" style="fill:none;stroke:#fea952;stroke-linecap:square;"/>
   </g>
   <g id="line2d_14">
    <path clip-path="url(#p2495f8fbef)" d="M 315.285229 177.822849 
L 316.047426 173.23464 
L 316.399888 168.666855 
L 316.381006 164.093529 
L 316.015763 159.479567 
L 315.329123 154.823838 
L 314.348337 150.107809 
L 313.111423 145.345742 
L 311.643794 140.520736 
L 309.09591 133.170228 
L 306.305621 125.877136 
L 304.363849 121.278267 
L 302.296858 116.933458 
L 300.069877 112.899195 
L 297.650957 109.202644 
L 294.872767 105.691376 
L 291.735627 102.337807 
L 288.250112 99.128255 
L 284.495095 96.093356 
L 280.519914 93.23089 
L 276.390796 90.560388 
L 272.125078 88.068751 
L 267.739408 85.75184 
L 263.21684 83.586656 
L 258.554576 81.555843 
L 253.901541 79.712032 
L 249.290685 78.111335 
L 244.747732 76.814341 
L 240.31065 75.86911 
L 235.990403 75.315029 
L 231.535202 75.170724 
L 226.882313 75.408384 
L 222.060657 75.973376 
L 217.092054 76.811642 
L 209.466932 78.416854 
L 202.056451 80.25426 
L 197.254233 81.640736 
L 192.555177 83.18935 
L 187.938831 84.936756 
L 183.491016 86.872773 
L 179.317058 88.997894 
L 175.490405 91.332639 
L 172.10109 93.859474 
L 170.589564 95.191421 
L 169.193051 96.582135 
L 167.86948 98.092026 
L 166.615912 99.72201 
L 165.427378 101.477328 
L 164.314349 103.333886 
L 162.288508 107.379736 
L 160.557101 111.729114 
L 159.104685 116.335142 
L 157.939084 121.009489 
L 157.047213 125.745104 
L 156.415733 130.541301 
L 156.034845 135.388402 
L 155.891907 140.287777 
L 155.978665 145.19486 
L 156.303553 150.052526 
L 156.878024 154.832785 
L 157.711989 159.51228 
L 158.818013 164.080611 
L 160.233995 168.607249 
L 161.94221 173.102031 
L 163.930186 177.590956 
L 166.157387 182.052777 
L 168.592186 186.479721 
L 171.17359 190.81256 
L 173.883794 195.006786 
L 176.736531 199.053163 
L 179.729877 202.920642 
L 182.875557 206.607772 
L 186.236594 210.160322 
L 189.822474 213.624561 
L 193.596513 217.010111 
L 199.564084 221.992586 
L 207.940064 228.570903 
L 218.792846 237.085664 
L 225.332878 242.577281 
L 229.615012 246.440504 
L 233.788951 250.46321 
L 237.841248 254.667252 
L 241.739911 259.050949 
L 245.47399 263.643458 
L 248.990271 268.424854 
L 252.297093 273.44088 
L 255.337581 278.668616 
L 258.088293 284.117359 
L 259.212325 286.614007 
L 259.212325 286.614007 
" style="fill:none;stroke:#ffffff;stroke-linecap:square;"/>
   </g>
   <g id="line2d_15">
    <path clip-path="url(#p2495f8fbef)" d="M 336.54589 181.726174 
L 337.128101 178.499369 
L 337.567013 175.274008 
L 337.860233 172.074564 
L 338.014343 168.925711 
L 338.043573 165.795998 
L 337.952165 162.701842 
L 337.44196 156.621286 
L 336.545228 150.685172 
L 335.326585 144.895822 
L 333.845286 139.233572 
L 332.156979 133.70451 
L 329.354902 125.631999 
L 326.287253 117.631768 
L 323.98148 112.20081 
L 321.368606 106.758973 
L 318.353706 101.368657 
L 316.659765 98.701738 
L 314.839033 96.094566 
L 312.911488 93.584186 
L 310.894645 91.180996 
L 308.790728 88.870099 
L 306.606687 86.650128 
L 302.06726 82.504834 
L 297.327187 78.698267 
L 292.450614 75.205628 
L 287.47399 72.00198 
L 282.401594 69.051788 
L 277.232989 66.33217 
L 271.995931 63.833701 
L 266.693217 61.530504 
L 261.197537 59.364547 
L 255.492155 57.404007 
L 249.578366 55.745012 
L 246.526096 55.053633 
L 243.434413 54.480006 
L 240.273038 54.030036 
L 237.076354 53.726319 
L 233.912697 53.577768 
L 230.777592 53.568 
L 224.644094 53.908569 
L 218.67396 54.624325 
L 212.894004 55.607207 
L 204.544899 57.368688 
L 198.999427 58.708006 
L 193.448765 60.218585 
L 187.898388 61.94015 
L 182.331306 63.918503 
L 176.750241 66.197722 
L 171.150676 68.860304 
L 168.349849 70.370709 
L 165.60359 71.998766 
L 162.88162 73.775014 
L 160.228157 75.698621 
L 157.640745 77.792424 
L 155.15331 80.059543 
L 152.788638 82.505669 
L 150.61582 85.070395 
L 148.626987 87.736592 
L 146.816301 90.482807 
L 145.167885 93.300711 
L 143.682303 96.159787 
L 142.340933 99.052314 
L 141.124831 101.98734 
L 140.035551 104.938115 
L 138.202334 110.826657 
L 136.746995 116.749557 
L 135.650193 122.676037 
L 134.887441 128.595974 
L 134.436112 134.524452 
L 134.276427 140.438483 
L 134.395021 146.377231 
L 134.81048 152.354587 
L 135.549182 158.344503 
L 136.639041 164.327103 
L 138.105322 170.264149 
L 139.937145 176.042943 
L 142.087386 181.648238 
L 144.498268 187.059444 
L 147.129263 192.308613 
L 149.936346 197.398115 
L 152.921063 202.392583 
L 156.106625 207.304099 
L 159.500914 212.098668 
L 163.132873 216.769511 
L 167.00699 221.285655 
L 171.071051 225.563503 
L 175.266933 229.605422 
L 179.555664 233.445021 
L 186.065932 238.876057 
L 194.712556 245.667239 
L 205.108307 253.818418 
L 210.992074 258.751119 
L 214.756498 262.140066 
L 218.385937 265.628922 
L 221.850606 269.212046 
L 225.144668 272.901927 
L 228.235843 276.685619 
L 231.128707 280.599262 
L 233.782499 284.59711 
L 236.205455 288.729104 
L 238.37779 292.991351 
L 239.501822 295.488 
L 239.501822 295.488 
" style="fill:none;stroke:#ffffff;stroke-linecap:square;"/>
   </g>
   <g id="patch_3">
    <path d="M 57.6 307.584 
L 57.6 41.472 
" style="fill:none;stroke:#000000;stroke-linecap:square;stroke-linejoin:miter;stroke-width:0.8;"/>
   </g>
   <g id="patch_4">
    <path d="M 414.72 307.584 
L 414.72 41.472 
" style="fill:none;stroke:#000000;stroke-linecap:square;stroke-linejoin:miter;stroke-width:0.8;"/>
   </g>
   <g id="patch_5">
    <path d="M 57.6 307.584 
L 414.72 307.584 
" style="fill:none;stroke:#000000;stroke-linecap:square;stroke-linejoin:miter;stroke-width:0.8;"/>
   </g>
   <g id="patch_6">
    <path d="M 57.6 41.472 
L 414.72 41.472 
" style="fill:none;stroke:#000000;stroke-linecap:square;stroke-linejoin:miter;stroke-width:0.8;"/>
   </g>
  </g>
 </g>
 <defs>
  <clipPath id="p2495f8fbef">
   <rect height="266.112" width="357.12" x="57.6" y="41.472"/>
  </clipPath>
 </defs>
</svg>
