<?xml version="1.0" encoding="utf-8" standalone="no"?>
<!DOCTYPE svg PUBLIC "-//W3C//DTD SVG 1.1//EN"
  "http://www.w3.org/Graphics/SVG/1.1/DTD/svg11.dtd">
<!-- Created with matplotlib (https://matplotlib.org/) -->
<svg height="345.6pt" version="1.1" viewBox="0 0 460.8 345.6" width="460.8pt" xmlns="http://www.w3.org/2000/svg" xmlns:xlink="http://www.w3.org/1999/xlink">
 <metadata>
  <rdf:RDF xmlns:cc="http://creativecommons.org/ns#" xmlns:dc="http://purl.org/dc/elements/1.1/" xmlns:rdf="http://www.w3.org/1999/02/22-rdf-syntax-ns#">
   <cc:Work>
    <dc:type rdf:resource="http://purl.org/dc/dcmitype/StillImage"/>
    <dc:date>2021-01-22T11:53:54.763056</dc:date>
    <dc:format>image/svg+xml</dc:format>
    <dc:creator>
     <cc:Agent>
      <dc:title>Matplotlib v3.3.3, https://matplotlib.org/</dc:title>
     </cc:Agent>
    </dc:creator>
   </cc:Work>
  </rdf:RDF>
 </metadata>
 <defs>
  <style type="text/css">*{stroke-linecap:butt;stroke-linejoin:round;}</style>
 </defs>
 <g id="figure_1">
  <g id="patch_1">
   <path d="M 0 345.6 
L 460.8 345.6 
L 460.8 0 
L 0 0 
z
" style="fill:#ffffff;"/>
  </g>
  <g id="axes_1">
   <g id="patch_2">
    <path d="M 57.6 307.584 
L 414.72 307.584 
L 414.72 41.472 
L 57.6 41.472 
z
" style="fill:#7d9051;"/>
   </g>
   <g id="matplotlib.axis_1">
    <g id="xtick_1">
     <g id="line2d_1">
      <defs>
       <path d="M 0 0 
L 0 3.5 
" id="m14439c0d26" style="stroke:#000000;stroke-width:0.8;"/>
      </defs>
      <g>
       <use style="stroke:#000000;stroke-width:0.8;" x="69.39077" xlink:href="#m14439c0d26" y="307.584"/>
      </g>
     </g>
     <g id="text_1">
      <!-- 0 -->
      <g transform="translate(66.20952 322.182437)scale(0.1 -0.1)">
       <defs>
        <path d="M 31.78125 66.40625 
Q 24.171875 66.40625 20.328125 58.90625 
Q 16.5 51.421875 16.5 36.375 
Q 16.5 21.390625 20.328125 13.890625 
Q 24.171875 6.390625 31.78125 6.390625 
Q 39.453125 6.390625 43.28125 13.890625 
Q 47.125 21.390625 47.125 36.375 
Q 47.125 51.421875 43.28125 58.90625 
Q 39.453125 66.40625 31.78125 66.40625 
z
M 31.78125 74.21875 
Q 44.046875 74.21875 50.515625 64.515625 
Q 56.984375 54.828125 56.984375 36.375 
Q 56.984375 17.96875 50.515625 8.265625 
Q 44.046875 -1.421875 31.78125 -1.421875 
Q 19.53125 -1.421875 13.0625 8.265625 
Q 6.59375 17.96875 6.59375 36.375 
Q 6.59375 54.828125 13.0625 64.515625 
Q 19.53125 74.21875 31.78125 74.21875 
z
" id="DejaVuSans-48"/>
       </defs>
       <use xlink:href="#DejaVuSans-48"/>
      </g>
     </g>
    </g>
    <g id="xtick_2">
     <g id="line2d_2">
      <g>
       <use style="stroke:#000000;stroke-width:0.8;" x="119.445554" xlink:href="#m14439c0d26" y="307.584"/>
      </g>
     </g>
     <g id="text_2">
      <!-- 20 -->
      <g transform="translate(113.083054 322.182437)scale(0.1 -0.1)">
       <defs>
        <path d="M 19.1875 8.296875 
L 53.609375 8.296875 
L 53.609375 0 
L 7.328125 0 
L 7.328125 8.296875 
Q 12.9375 14.109375 22.625 23.890625 
Q 32.328125 33.6875 34.8125 36.53125 
Q 39.546875 41.84375 41.421875 45.53125 
Q 43.3125 49.21875 43.3125 52.78125 
Q 43.3125 58.59375 39.234375 62.25 
Q 35.15625 65.921875 28.609375 65.921875 
Q 23.96875 65.921875 18.8125 64.3125 
Q 13.671875 62.703125 7.8125 59.421875 
L 7.8125 69.390625 
Q 13.765625 71.78125 18.9375 73 
Q 24.125 74.21875 28.421875 74.21875 
Q 39.75 74.21875 46.484375 68.546875 
Q 53.21875 62.890625 53.21875 53.421875 
Q 53.21875 48.921875 51.53125 44.890625 
Q 49.859375 40.875 45.40625 35.40625 
Q 44.1875 33.984375 37.640625 27.21875 
Q 31.109375 20.453125 19.1875 8.296875 
z
" id="DejaVuSans-50"/>
       </defs>
       <use xlink:href="#DejaVuSans-50"/>
       <use x="63.623047" xlink:href="#DejaVuSans-48"/>
      </g>
     </g>
    </g>
    <g id="xtick_3">
     <g id="line2d_3">
      <g>
       <use style="stroke:#000000;stroke-width:0.8;" x="169.500338" xlink:href="#m14439c0d26" y="307.584"/>
      </g>
     </g>
     <g id="text_3">
      <!-- 40 -->
      <g transform="translate(163.137838 322.182437)scale(0.1 -0.1)">
       <defs>
        <path d="M 37.796875 64.3125 
L 12.890625 25.390625 
L 37.796875 25.390625 
z
M 35.203125 72.90625 
L 47.609375 72.90625 
L 47.609375 25.390625 
L 58.015625 25.390625 
L 58.015625 17.1875 
L 47.609375 17.1875 
L 47.609375 0 
L 37.796875 0 
L 37.796875 17.1875 
L 4.890625 17.1875 
L 4.890625 26.703125 
z
" id="DejaVuSans-52"/>
       </defs>
       <use xlink:href="#DejaVuSans-52"/>
       <use x="63.623047" xlink:href="#DejaVuSans-48"/>
      </g>
     </g>
    </g>
    <g id="xtick_4">
     <g id="line2d_4">
      <g>
       <use style="stroke:#000000;stroke-width:0.8;" x="219.555121" xlink:href="#m14439c0d26" y="307.584"/>
      </g>
     </g>
     <g id="text_4">
      <!-- 60 -->
      <g transform="translate(213.192621 322.182437)scale(0.1 -0.1)">
       <defs>
        <path d="M 33.015625 40.375 
Q 26.375 40.375 22.484375 35.828125 
Q 18.609375 31.296875 18.609375 23.390625 
Q 18.609375 15.53125 22.484375 10.953125 
Q 26.375 6.390625 33.015625 6.390625 
Q 39.65625 6.390625 43.53125 10.953125 
Q 47.40625 15.53125 47.40625 23.390625 
Q 47.40625 31.296875 43.53125 35.828125 
Q 39.65625 40.375 33.015625 40.375 
z
M 52.59375 71.296875 
L 52.59375 62.3125 
Q 48.875 64.0625 45.09375 64.984375 
Q 41.3125 65.921875 37.59375 65.921875 
Q 27.828125 65.921875 22.671875 59.328125 
Q 17.53125 52.734375 16.796875 39.40625 
Q 19.671875 43.65625 24.015625 45.921875 
Q 28.375 48.1875 33.59375 48.1875 
Q 44.578125 48.1875 50.953125 41.515625 
Q 57.328125 34.859375 57.328125 23.390625 
Q 57.328125 12.15625 50.6875 5.359375 
Q 44.046875 -1.421875 33.015625 -1.421875 
Q 20.359375 -1.421875 13.671875 8.265625 
Q 6.984375 17.96875 6.984375 36.375 
Q 6.984375 53.65625 15.1875 63.9375 
Q 23.390625 74.21875 37.203125 74.21875 
Q 40.921875 74.21875 44.703125 73.484375 
Q 48.484375 72.75 52.59375 71.296875 
z
" id="DejaVuSans-54"/>
       </defs>
       <use xlink:href="#DejaVuSans-54"/>
       <use x="63.623047" xlink:href="#DejaVuSans-48"/>
      </g>
     </g>
    </g>
    <g id="xtick_5">
     <g id="line2d_5">
      <g>
       <use style="stroke:#000000;stroke-width:0.8;" x="269.609905" xlink:href="#m14439c0d26" y="307.584"/>
      </g>
     </g>
     <g id="text_5">
      <!-- 80 -->
      <g transform="translate(263.247405 322.182437)scale(0.1 -0.1)">
       <defs>
        <path d="M 31.78125 34.625 
Q 24.75 34.625 20.71875 30.859375 
Q 16.703125 27.09375 16.703125 20.515625 
Q 16.703125 13.921875 20.71875 10.15625 
Q 24.75 6.390625 31.78125 6.390625 
Q 38.8125 6.390625 42.859375 10.171875 
Q 46.921875 13.96875 46.921875 20.515625 
Q 46.921875 27.09375 42.890625 30.859375 
Q 38.875 34.625 31.78125 34.625 
z
M 21.921875 38.8125 
Q 15.578125 40.375 12.03125 44.71875 
Q 8.5 49.078125 8.5 55.328125 
Q 8.5 64.0625 14.71875 69.140625 
Q 20.953125 74.21875 31.78125 74.21875 
Q 42.671875 74.21875 48.875 69.140625 
Q 55.078125 64.0625 55.078125 55.328125 
Q 55.078125 49.078125 51.53125 44.71875 
Q 48 40.375 41.703125 38.8125 
Q 48.828125 37.15625 52.796875 32.3125 
Q 56.78125 27.484375 56.78125 20.515625 
Q 56.78125 9.90625 50.3125 4.234375 
Q 43.84375 -1.421875 31.78125 -1.421875 
Q 19.734375 -1.421875 13.25 4.234375 
Q 6.78125 9.90625 6.78125 20.515625 
Q 6.78125 27.484375 10.78125 32.3125 
Q 14.796875 37.15625 21.921875 38.8125 
z
M 18.3125 54.390625 
Q 18.3125 48.734375 21.84375 45.5625 
Q 25.390625 42.390625 31.78125 42.390625 
Q 38.140625 42.390625 41.71875 45.5625 
Q 45.3125 48.734375 45.3125 54.390625 
Q 45.3125 60.0625 41.71875 63.234375 
Q 38.140625 66.40625 31.78125 66.40625 
Q 25.390625 66.40625 21.84375 63.234375 
Q 18.3125 60.0625 18.3125 54.390625 
z
" id="DejaVuSans-56"/>
       </defs>
       <use xlink:href="#DejaVuSans-56"/>
       <use x="63.623047" xlink:href="#DejaVuSans-48"/>
      </g>
     </g>
    </g>
    <g id="xtick_6">
     <g id="line2d_6">
      <g>
       <use style="stroke:#000000;stroke-width:0.8;" x="319.664688" xlink:href="#m14439c0d26" y="307.584"/>
      </g>
     </g>
     <g id="text_6">
      <!-- 100 -->
      <g transform="translate(310.120938 322.182437)scale(0.1 -0.1)">
       <defs>
        <path d="M 12.40625 8.296875 
L 28.515625 8.296875 
L 28.515625 63.921875 
L 10.984375 60.40625 
L 10.984375 69.390625 
L 28.421875 72.90625 
L 38.28125 72.90625 
L 38.28125 8.296875 
L 54.390625 8.296875 
L 54.390625 0 
L 12.40625 0 
z
" id="DejaVuSans-49"/>
       </defs>
       <use xlink:href="#DejaVuSans-49"/>
       <use x="63.623047" xlink:href="#DejaVuSans-48"/>
       <use x="127.246094" xlink:href="#DejaVuSans-48"/>
      </g>
     </g>
    </g>
    <g id="xtick_7">
     <g id="line2d_7">
      <g>
       <use style="stroke:#000000;stroke-width:0.8;" x="369.719472" xlink:href="#m14439c0d26" y="307.584"/>
      </g>
     </g>
     <g id="text_7">
      <!-- 120 -->
      <g transform="translate(360.175722 322.182437)scale(0.1 -0.1)">
       <use xlink:href="#DejaVuSans-49"/>
       <use x="63.623047" xlink:href="#DejaVuSans-50"/>
       <use x="127.246094" xlink:href="#DejaVuSans-48"/>
      </g>
     </g>
    </g>
   </g>
   <g id="matplotlib.axis_2">
    <g id="ytick_1">
     <g id="line2d_8">
      <defs>
       <path d="M 0 0 
L -3.5 0 
" id="m4c23b6ba1b" style="stroke:#000000;stroke-width:0.8;"/>
      </defs>
      <g>
       <use style="stroke:#000000;stroke-width:0.8;" x="57.6" xlink:href="#m4c23b6ba1b" y="269.21164"/>
      </g>
     </g>
     <g id="text_8">
      <!-- 20 -->
      <g transform="translate(37.875 273.010859)scale(0.1 -0.1)">
       <use xlink:href="#DejaVuSans-50"/>
       <use x="63.623047" xlink:href="#DejaVuSans-48"/>
      </g>
     </g>
    </g>
    <g id="ytick_2">
     <g id="line2d_9">
      <g>
       <use style="stroke:#000000;stroke-width:0.8;" x="57.6" xlink:href="#m4c23b6ba1b" y="219.156856"/>
      </g>
     </g>
     <g id="text_9">
      <!-- 40 -->
      <g transform="translate(37.875 222.956075)scale(0.1 -0.1)">
       <use xlink:href="#DejaVuSans-52"/>
       <use x="63.623047" xlink:href="#DejaVuSans-48"/>
      </g>
     </g>
    </g>
    <g id="ytick_3">
     <g id="line2d_10">
      <g>
       <use style="stroke:#000000;stroke-width:0.8;" x="57.6" xlink:href="#m4c23b6ba1b" y="169.102073"/>
      </g>
     </g>
     <g id="text_10">
      <!-- 60 -->
      <g transform="translate(37.875 172.901292)scale(0.1 -0.1)">
       <use xlink:href="#DejaVuSans-54"/>
       <use x="63.623047" xlink:href="#DejaVuSans-48"/>
      </g>
     </g>
    </g>
    <g id="ytick_4">
     <g id="line2d_11">
      <g>
       <use style="stroke:#000000;stroke-width:0.8;" x="57.6" xlink:href="#m4c23b6ba1b" y="119.047289"/>
      </g>
     </g>
     <g id="text_11">
      <!-- 80 -->
      <g transform="translate(37.875 122.846508)scale(0.1 -0.1)">
       <use xlink:href="#DejaVuSans-56"/>
       <use x="63.623047" xlink:href="#DejaVuSans-48"/>
      </g>
     </g>
    </g>
    <g id="ytick_5">
     <g id="line2d_12">
      <g>
       <use style="stroke:#000000;stroke-width:0.8;" x="57.6" xlink:href="#m4c23b6ba1b" y="68.992506"/>
      </g>
     </g>
     <g id="text_12">
      <!-- 100 -->
      <g transform="translate(31.5125 72.791725)scale(0.1 -0.1)">
       <use xlink:href="#DejaVuSans-49"/>
       <use x="63.623047" xlink:href="#DejaVuSans-48"/>
       <use x="127.246094" xlink:href="#DejaVuSans-48"/>
      </g>
     </g>
    </g>
   </g>
   <g id="line2d_13">
    <path clip-path="url(#pbb6da905d5)" d="M 368.530671 294.239032 
L 367.975062 289.188504 
L 367.732297 284.160501 
L 367.769838 279.157525 
L 368.052647 274.174572 
L 368.550692 269.21164 
L 369.228935 264.263725 
L 370.51284 256.870633 
L 372.014483 249.500066 
L 375.655969 232.336281 
L 376.481873 227.400879 
L 377.095044 222.430439 
L 377.427908 217.412447 
L 377.430411 212.366925 
L 377.060006 207.331414 
L 376.719633 204.83368 
L 376.26914 202.353466 
L 375.706024 199.900781 
L 375.020273 197.47813 
L 374.209386 195.093019 
L 373.270859 192.747953 
L 372.204692 190.455443 
L 371.015891 188.215492 
L 369.709461 186.040612 
L 368.290408 183.938311 
L 366.763737 181.911092 
L 365.131951 179.968966 
L 363.402558 178.121945 
L 361.578061 176.37253 
L 359.660963 174.728231 
L 357.661274 173.196554 
L 355.581498 171.774998 
L 353.429142 170.463563 
L 351.214218 169.257243 
L 346.624195 167.152439 
L 341.866487 165.440565 
L 337.003665 164.1016 
L 332.080777 163.10551 
L 327.122851 162.412251 
L 322.132389 161.966763 
L 317.121905 161.718992 
L 309.586157 161.608872 
L 302.055415 161.764042 
L 297.049937 162.06437 
L 292.071989 162.55741 
L 287.126576 163.275696 
L 282.22371 164.244256 
L 277.360888 165.440565 
L 272.543115 166.829586 
L 265.397795 169.209691 
L 256.002512 172.733547 
L 248.959804 175.336396 
L 244.207102 176.895603 
L 239.374313 178.217049 
L 234.441414 179.220647 
L 229.435935 179.863851 
L 224.395419 180.104114 
L 221.872658 180.06407 
L 219.359907 179.908901 
L 216.854665 179.633599 
L 214.366943 179.233161 
L 211.901745 178.707586 
L 209.461574 178.056874 
L 207.053939 177.28603 
L 204.683845 176.40006 
L 202.356297 175.401467 
L 200.078805 174.295257 
L 197.858875 173.088936 
L 195.696508 171.782507 
L 193.601716 170.380973 
L 189.632371 167.315117 
L 185.940831 163.941425 
L 182.469532 160.332475 
L 179.158408 156.555841 
L 172.77392 148.777328 
L 166.38693 141.043864 
L 161.454031 135.397684 
L 158.047803 131.746188 
L 154.523946 128.202309 
L 149.037942 123.079202 
L 143.364232 118.141298 
L 135.618255 111.769324 
L 127.872277 105.417372 
L 124.095643 102.138783 
L 120.431633 98.732555 
L 116.917787 95.163649 
L 113.569122 91.42706 
L 110.403157 87.532798 
L 107.4274 83.488371 
L 104.661874 79.298786 
L 102.116588 74.974052 
L 99.80656 70.521679 
L 97.744303 65.946672 
L 95.94233 61.259042 
L 94.418162 56.463793 
L 94.418162 56.463793 
" style="fill:none;stroke:#fea952;stroke-linecap:square;"/>
   </g>
   <g id="line2d_14">
    <path clip-path="url(#pbb6da905d5)" d="M 358.59793 295.488 
L 357.984303 289.824099 
L 357.72152 284.220566 
L 357.769083 278.705684 
L 358.082639 273.270035 
L 358.622541 267.926702 
L 359.345656 262.669971 
L 360.687547 254.951552 
L 362.229856 247.383392 
L 365.797949 230.593094 
L 366.562532 226.049607 
L 367.117575 221.612287 
L 367.418733 217.223595 
L 367.433789 212.902458 
L 367.140727 208.683139 
L 366.512041 204.593616 
L 365.542112 200.700506 
L 364.193536 196.969502 
L 362.434181 193.370443 
L 360.293505 189.960669 
L 357.824264 186.811259 
L 355.060566 183.971314 
L 352.012171 181.461352 
L 348.640943 179.255173 
L 344.969645 177.344176 
L 341.060207 175.734217 
L 336.966697 174.424423 
L 332.721658 173.406376 
L 328.354004 172.657507 
L 323.860023 172.140767 
L 319.230329 171.822091 
L 312.068994 171.627292 
L 304.912631 171.681301 
L 300.239977 171.878844 
L 295.649534 172.235796 
L 291.158701 172.773233 
L 286.724678 173.528795 
L 282.286955 174.508419 
L 277.812968 175.703621 
L 273.316239 177.085143 
L 266.542942 179.442867 
L 249.607305 185.688402 
L 244.300555 187.286148 
L 238.738808 188.606833 
L 233.037551 189.53984 
L 230.120285 189.85139 
L 227.183997 190.043901 
L 224.236535 190.11381 
L 221.255626 190.055994 
L 218.266385 189.859954 
L 215.263723 189.517331 
L 212.27954 189.024075 
L 209.322295 188.380522 
L 206.409039 187.59109 
L 203.548626 186.663238 
L 200.736754 185.600046 
L 197.982471 184.406405 
L 195.298939 183.0914 
L 192.682053 181.65747 
L 190.129672 180.102939 
L 187.659145 178.437343 
L 185.285521 176.674265 
L 183.018854 174.830478 
L 178.82208 170.980078 
L 175.002691 167.000723 
L 171.480037 162.979382 
L 165.013438 155.101423 
L 158.778267 147.549822 
L 154.075663 142.163698 
L 150.894139 138.749354 
L 145.89024 133.790308 
L 140.590952 128.966192 
L 135.064786 124.246318 
L 117.355067 109.540397 
L 113.382919 105.841344 
L 109.54107 101.931463 
L 105.88013 97.837882 
L 102.414783 93.566464 
L 99.142583 89.108073 
L 96.103209 84.491908 
L 93.296143 79.708923 
L 90.739652 74.765551 
L 88.451429 69.669811 
L 86.4461 64.427773 
L 84.835176 59.359587 
L 84.835176 59.359587 
" style="fill:none;stroke:#ffffff;stroke-linecap:square;"/>
   </g>
   <g id="line2d_15">
    <path clip-path="url(#pbb6da905d5)" d="M 378.463411 292.990063 
L 377.965822 288.552909 
L 377.743073 284.100436 
L 377.770592 279.609367 
L 378.022656 275.079109 
L 378.478844 270.496578 
L 379.490297 263.508355 
L 380.80058 256.41987 
L 382.856031 246.75618 
L 385.013847 236.686646 
L 385.979898 231.43492 
L 386.770078 226.020702 
L 387.29836 220.435066 
L 387.484824 214.713627 
L 387.262629 208.910964 
L 386.979284 205.979688 
L 386.56943 203.044615 
L 386.026239 200.113315 
L 385.338528 197.174225 
L 384.498435 194.255754 
L 383.503641 191.373333 
L 382.348181 188.526403 
L 381.047443 185.762363 
L 379.5976 183.060541 
L 378.007029 180.439753 
L 376.28731 177.915952 
L 374.428397 175.471197 
L 372.439638 173.126674 
L 370.33113 170.896009 
L 368.095556 168.773746 
L 365.748394 166.780751 
L 363.310378 164.931756 
L 360.790448 163.225958 
L 358.217341 161.671953 
L 355.583682 160.250188 
L 352.918822 158.967898 
L 350.199991 157.801881 
L 347.46301 156.763684 
L 341.920975 155.025141 
L 336.375298 153.720646 
L 330.857132 152.79268 
L 325.400222 152.178182 
L 320.028971 151.816112 
L 312.128821 151.605468 
L 304.213689 151.671591 
L 298.860369 151.904518 
L 293.464883 152.333427 
L 288.029853 152.997305 
L 282.613095 153.933594 
L 277.285129 155.121342 
L 272.083527 156.518978 
L 266.984754 158.090688 
L 259.532481 160.688388 
L 243.57712 166.596155 
L 239.30839 167.896581 
L 235.099443 168.91846 
L 230.854815 169.63726 
L 226.647356 170.02918 
L 222.489689 170.072147 
L 218.445608 169.749867 
L 214.481194 169.03465 
L 210.559252 167.908822 
L 206.730124 166.39653 
L 203.035697 164.520403 
L 199.544286 162.324602 
L 196.245889 159.799757 
L 193.059583 156.902772 
L 189.936373 153.664226 
L 186.836779 150.132301 
L 180.534402 142.453233 
L 173.995593 134.537905 
L 168.832399 128.631671 
L 165.201467 124.743021 
L 161.456018 120.979731 
L 155.684516 115.593061 
L 149.796639 110.470353 
L 141.918281 103.989291 
L 134.378235 97.808708 
L 129.137211 93.192752 
L 125.872069 90.033144 
L 122.753705 86.72045 
L 119.807768 83.281519 
L 117.026471 79.697081 
L 114.441953 76.001633 
L 112.055464 72.192489 
L 109.880362 68.279108 
L 107.927291 64.26596 
L 106.204663 60.156243 
L 104.729446 55.978138 
L 104.001149 53.568 
L 104.001149 53.568 
" style="fill:none;stroke:#ffffff;stroke-linecap:square;"/>
   </g>
   <g id="patch_3">
    <path d="M 57.6 307.584 
L 57.6 41.472 
" style="fill:none;stroke:#000000;stroke-linecap:square;stroke-linejoin:miter;stroke-width:0.8;"/>
   </g>
   <g id="patch_4">
    <path d="M 414.72 307.584 
L 414.72 41.472 
" style="fill:none;stroke:#000000;stroke-linecap:square;stroke-linejoin:miter;stroke-width:0.8;"/>
   </g>
   <g id="patch_5">
    <path d="M 57.6 307.584 
L 414.72 307.584 
" style="fill:none;stroke:#000000;stroke-linecap:square;stroke-linejoin:miter;stroke-width:0.8;"/>
   </g>
   <g id="patch_6">
    <path d="M 57.6 41.472 
L 414.72 41.472 
" style="fill:none;stroke:#000000;stroke-linecap:square;stroke-linejoin:miter;stroke-width:0.8;"/>
   </g>
  </g>
 </g>
 <defs>
  <clipPath id="pbb6da905d5">
   <rect height="266.112" width="357.12" x="57.6" y="41.472"/>
  </clipPath>
 </defs>
</svg>
