<?xml version="1.0" encoding="utf-8" standalone="no"?>
<!DOCTYPE svg PUBLIC "-//W3C//DTD SVG 1.1//EN"
  "http://www.w3.org/Graphics/SVG/1.1/DTD/svg11.dtd">
<!-- Created with matplotlib (https://matplotlib.org/) -->
<svg height="345.6pt" version="1.1" viewBox="0 0 460.8 345.6" width="460.8pt" xmlns="http://www.w3.org/2000/svg" xmlns:xlink="http://www.w3.org/1999/xlink">
 <metadata>
  <rdf:RDF xmlns:cc="http://creativecommons.org/ns#" xmlns:dc="http://purl.org/dc/elements/1.1/" xmlns:rdf="http://www.w3.org/1999/02/22-rdf-syntax-ns#">
   <cc:Work>
    <dc:type rdf:resource="http://purl.org/dc/dcmitype/StillImage"/>
    <dc:date>2021-01-22T10:29:20.955384</dc:date>
    <dc:format>image/svg+xml</dc:format>
    <dc:creator>
     <cc:Agent>
      <dc:title>Matplotlib v3.3.3, https://matplotlib.org/</dc:title>
     </cc:Agent>
    </dc:creator>
   </cc:Work>
  </rdf:RDF>
 </metadata>
 <defs>
  <style type="text/css">*{stroke-linecap:butt;stroke-linejoin:round;}</style>
 </defs>
 <g id="figure_1">
  <g id="patch_1">
   <path d="M 0 345.6 
L 460.8 345.6 
L 460.8 0 
L 0 0 
z
" style="fill:#ffffff;"/>
  </g>
  <g id="axes_1">
   <g id="patch_2">
    <path d="M 57.6 307.584 
L 414.72 307.584 
L 414.72 41.472 
L 57.6 41.472 
z
" style="fill:#7d9051;"/>
   </g>
   <g id="matplotlib.axis_1">
    <g id="xtick_1">
     <g id="line2d_1">
      <defs>
       <path d="M 0 0 
L 0 3.5 
" id="m958f186aec" style="stroke:#000000;stroke-width:0.8;"/>
      </defs>
      <g>
       <use style="stroke:#000000;stroke-width:0.8;" x="58.622696" xlink:href="#m958f186aec" y="307.584"/>
      </g>
     </g>
     <g id="text_1">
      <!-- 0 -->
      <g transform="translate(55.441446 322.182437)scale(0.1 -0.1)">
       <defs>
        <path d="M 31.78125 66.40625 
Q 24.171875 66.40625 20.328125 58.90625 
Q 16.5 51.421875 16.5 36.375 
Q 16.5 21.390625 20.328125 13.890625 
Q 24.171875 6.390625 31.78125 6.390625 
Q 39.453125 6.390625 43.28125 13.890625 
Q 47.125 21.390625 47.125 36.375 
Q 47.125 51.421875 43.28125 58.90625 
Q 39.453125 66.40625 31.78125 66.40625 
z
M 31.78125 74.21875 
Q 44.046875 74.21875 50.515625 64.515625 
Q 56.984375 54.828125 56.984375 36.375 
Q 56.984375 17.96875 50.515625 8.265625 
Q 44.046875 -1.421875 31.78125 -1.421875 
Q 19.53125 -1.421875 13.0625 8.265625 
Q 6.59375 17.96875 6.59375 36.375 
Q 6.59375 54.828125 13.0625 64.515625 
Q 19.53125 74.21875 31.78125 74.21875 
z
" id="DejaVuSans-48"/>
       </defs>
       <use xlink:href="#DejaVuSans-48"/>
      </g>
     </g>
    </g>
    <g id="xtick_2">
     <g id="line2d_2">
      <g>
       <use style="stroke:#000000;stroke-width:0.8;" x="109.50365" xlink:href="#m958f186aec" y="307.584"/>
      </g>
     </g>
     <g id="text_2">
      <!-- 20 -->
      <g transform="translate(103.14115 322.182437)scale(0.1 -0.1)">
       <defs>
        <path d="M 19.1875 8.296875 
L 53.609375 8.296875 
L 53.609375 0 
L 7.328125 0 
L 7.328125 8.296875 
Q 12.9375 14.109375 22.625 23.890625 
Q 32.328125 33.6875 34.8125 36.53125 
Q 39.546875 41.84375 41.421875 45.53125 
Q 43.3125 49.21875 43.3125 52.78125 
Q 43.3125 58.59375 39.234375 62.25 
Q 35.15625 65.921875 28.609375 65.921875 
Q 23.96875 65.921875 18.8125 64.3125 
Q 13.671875 62.703125 7.8125 59.421875 
L 7.8125 69.390625 
Q 13.765625 71.78125 18.9375 73 
Q 24.125 74.21875 28.421875 74.21875 
Q 39.75 74.21875 46.484375 68.546875 
Q 53.21875 62.890625 53.21875 53.421875 
Q 53.21875 48.921875 51.53125 44.890625 
Q 49.859375 40.875 45.40625 35.40625 
Q 44.1875 33.984375 37.640625 27.21875 
Q 31.109375 20.453125 19.1875 8.296875 
z
" id="DejaVuSans-50"/>
       </defs>
       <use xlink:href="#DejaVuSans-50"/>
       <use x="63.623047" xlink:href="#DejaVuSans-48"/>
      </g>
     </g>
    </g>
    <g id="xtick_3">
     <g id="line2d_3">
      <g>
       <use style="stroke:#000000;stroke-width:0.8;" x="160.384604" xlink:href="#m958f186aec" y="307.584"/>
      </g>
     </g>
     <g id="text_3">
      <!-- 40 -->
      <g transform="translate(154.022104 322.182437)scale(0.1 -0.1)">
       <defs>
        <path d="M 37.796875 64.3125 
L 12.890625 25.390625 
L 37.796875 25.390625 
z
M 35.203125 72.90625 
L 47.609375 72.90625 
L 47.609375 25.390625 
L 58.015625 25.390625 
L 58.015625 17.1875 
L 47.609375 17.1875 
L 47.609375 0 
L 37.796875 0 
L 37.796875 17.1875 
L 4.890625 17.1875 
L 4.890625 26.703125 
z
" id="DejaVuSans-52"/>
       </defs>
       <use xlink:href="#DejaVuSans-52"/>
       <use x="63.623047" xlink:href="#DejaVuSans-48"/>
      </g>
     </g>
    </g>
    <g id="xtick_4">
     <g id="line2d_4">
      <g>
       <use style="stroke:#000000;stroke-width:0.8;" x="211.265559" xlink:href="#m958f186aec" y="307.584"/>
      </g>
     </g>
     <g id="text_4">
      <!-- 60 -->
      <g transform="translate(204.903059 322.182437)scale(0.1 -0.1)">
       <defs>
        <path d="M 33.015625 40.375 
Q 26.375 40.375 22.484375 35.828125 
Q 18.609375 31.296875 18.609375 23.390625 
Q 18.609375 15.53125 22.484375 10.953125 
Q 26.375 6.390625 33.015625 6.390625 
Q 39.65625 6.390625 43.53125 10.953125 
Q 47.40625 15.53125 47.40625 23.390625 
Q 47.40625 31.296875 43.53125 35.828125 
Q 39.65625 40.375 33.015625 40.375 
z
M 52.59375 71.296875 
L 52.59375 62.3125 
Q 48.875 64.0625 45.09375 64.984375 
Q 41.3125 65.921875 37.59375 65.921875 
Q 27.828125 65.921875 22.671875 59.328125 
Q 17.53125 52.734375 16.796875 39.40625 
Q 19.671875 43.65625 24.015625 45.921875 
Q 28.375 48.1875 33.59375 48.1875 
Q 44.578125 48.1875 50.953125 41.515625 
Q 57.328125 34.859375 57.328125 23.390625 
Q 57.328125 12.15625 50.6875 5.359375 
Q 44.046875 -1.421875 33.015625 -1.421875 
Q 20.359375 -1.421875 13.671875 8.265625 
Q 6.984375 17.96875 6.984375 36.375 
Q 6.984375 53.65625 15.1875 63.9375 
Q 23.390625 74.21875 37.203125 74.21875 
Q 40.921875 74.21875 44.703125 73.484375 
Q 48.484375 72.75 52.59375 71.296875 
z
" id="DejaVuSans-54"/>
       </defs>
       <use xlink:href="#DejaVuSans-54"/>
       <use x="63.623047" xlink:href="#DejaVuSans-48"/>
      </g>
     </g>
    </g>
    <g id="xtick_5">
     <g id="line2d_5">
      <g>
       <use style="stroke:#000000;stroke-width:0.8;" x="262.146513" xlink:href="#m958f186aec" y="307.584"/>
      </g>
     </g>
     <g id="text_5">
      <!-- 80 -->
      <g transform="translate(255.784013 322.182437)scale(0.1 -0.1)">
       <defs>
        <path d="M 31.78125 34.625 
Q 24.75 34.625 20.71875 30.859375 
Q 16.703125 27.09375 16.703125 20.515625 
Q 16.703125 13.921875 20.71875 10.15625 
Q 24.75 6.390625 31.78125 6.390625 
Q 38.8125 6.390625 42.859375 10.171875 
Q 46.921875 13.96875 46.921875 20.515625 
Q 46.921875 27.09375 42.890625 30.859375 
Q 38.875 34.625 31.78125 34.625 
z
M 21.921875 38.8125 
Q 15.578125 40.375 12.03125 44.71875 
Q 8.5 49.078125 8.5 55.328125 
Q 8.5 64.0625 14.71875 69.140625 
Q 20.953125 74.21875 31.78125 74.21875 
Q 42.671875 74.21875 48.875 69.140625 
Q 55.078125 64.0625 55.078125 55.328125 
Q 55.078125 49.078125 51.53125 44.71875 
Q 48 40.375 41.703125 38.8125 
Q 48.828125 37.15625 52.796875 32.3125 
Q 56.78125 27.484375 56.78125 20.515625 
Q 56.78125 9.90625 50.3125 4.234375 
Q 43.84375 -1.421875 31.78125 -1.421875 
Q 19.734375 -1.421875 13.25 4.234375 
Q 6.78125 9.90625 6.78125 20.515625 
Q 6.78125 27.484375 10.78125 32.3125 
Q 14.796875 37.15625 21.921875 38.8125 
z
M 18.3125 54.390625 
Q 18.3125 48.734375 21.84375 45.5625 
Q 25.390625 42.390625 31.78125 42.390625 
Q 38.140625 42.390625 41.71875 45.5625 
Q 45.3125 48.734375 45.3125 54.390625 
Q 45.3125 60.0625 41.71875 63.234375 
Q 38.140625 66.40625 31.78125 66.40625 
Q 25.390625 66.40625 21.84375 63.234375 
Q 18.3125 60.0625 18.3125 54.390625 
z
" id="DejaVuSans-56"/>
       </defs>
       <use xlink:href="#DejaVuSans-56"/>
       <use x="63.623047" xlink:href="#DejaVuSans-48"/>
      </g>
     </g>
    </g>
    <g id="xtick_6">
     <g id="line2d_6">
      <g>
       <use style="stroke:#000000;stroke-width:0.8;" x="313.027467" xlink:href="#m958f186aec" y="307.584"/>
      </g>
     </g>
     <g id="text_6">
      <!-- 100 -->
      <g transform="translate(303.483717 322.182437)scale(0.1 -0.1)">
       <defs>
        <path d="M 12.40625 8.296875 
L 28.515625 8.296875 
L 28.515625 63.921875 
L 10.984375 60.40625 
L 10.984375 69.390625 
L 28.421875 72.90625 
L 38.28125 72.90625 
L 38.28125 8.296875 
L 54.390625 8.296875 
L 54.390625 0 
L 12.40625 0 
z
" id="DejaVuSans-49"/>
       </defs>
       <use xlink:href="#DejaVuSans-49"/>
       <use x="63.623047" xlink:href="#DejaVuSans-48"/>
       <use x="127.246094" xlink:href="#DejaVuSans-48"/>
      </g>
     </g>
    </g>
    <g id="xtick_7">
     <g id="line2d_7">
      <g>
       <use style="stroke:#000000;stroke-width:0.8;" x="363.908422" xlink:href="#m958f186aec" y="307.584"/>
      </g>
     </g>
     <g id="text_7">
      <!-- 120 -->
      <g transform="translate(354.364672 322.182437)scale(0.1 -0.1)">
       <use xlink:href="#DejaVuSans-49"/>
       <use x="63.623047" xlink:href="#DejaVuSans-50"/>
       <use x="127.246094" xlink:href="#DejaVuSans-48"/>
      </g>
     </g>
    </g>
   </g>
   <g id="matplotlib.axis_2">
    <g id="ytick_1">
     <g id="line2d_8">
      <defs>
       <path d="M 0 0 
L -3.5 0 
" id="mb5a6b27d36" style="stroke:#000000;stroke-width:0.8;"/>
      </defs>
      <g>
       <use style="stroke:#000000;stroke-width:0.8;" x="57.6" xlink:href="#mb5a6b27d36" y="297.77351"/>
      </g>
     </g>
     <g id="text_8">
      <!-- 0 -->
      <g transform="translate(44.2375 301.572729)scale(0.1 -0.1)">
       <use xlink:href="#DejaVuSans-48"/>
      </g>
     </g>
    </g>
    <g id="ytick_2">
     <g id="line2d_9">
      <g>
       <use style="stroke:#000000;stroke-width:0.8;" x="57.6" xlink:href="#mb5a6b27d36" y="246.892556"/>
      </g>
     </g>
     <g id="text_9">
      <!-- 20 -->
      <g transform="translate(37.875 250.691775)scale(0.1 -0.1)">
       <use xlink:href="#DejaVuSans-50"/>
       <use x="63.623047" xlink:href="#DejaVuSans-48"/>
      </g>
     </g>
    </g>
    <g id="ytick_3">
     <g id="line2d_10">
      <g>
       <use style="stroke:#000000;stroke-width:0.8;" x="57.6" xlink:href="#mb5a6b27d36" y="196.011602"/>
      </g>
     </g>
     <g id="text_10">
      <!-- 40 -->
      <g transform="translate(37.875 199.81082)scale(0.1 -0.1)">
       <use xlink:href="#DejaVuSans-52"/>
       <use x="63.623047" xlink:href="#DejaVuSans-48"/>
      </g>
     </g>
    </g>
    <g id="ytick_4">
     <g id="line2d_11">
      <g>
       <use style="stroke:#000000;stroke-width:0.8;" x="57.6" xlink:href="#mb5a6b27d36" y="145.130647"/>
      </g>
     </g>
     <g id="text_11">
      <!-- 60 -->
      <g transform="translate(37.875 148.929866)scale(0.1 -0.1)">
       <use xlink:href="#DejaVuSans-54"/>
       <use x="63.623047" xlink:href="#DejaVuSans-48"/>
      </g>
     </g>
    </g>
    <g id="ytick_5">
     <g id="line2d_12">
      <g>
       <use style="stroke:#000000;stroke-width:0.8;" x="57.6" xlink:href="#mb5a6b27d36" y="94.249693"/>
      </g>
     </g>
     <g id="text_12">
      <!-- 80 -->
      <g transform="translate(37.875 98.048912)scale(0.1 -0.1)">
       <use xlink:href="#DejaVuSans-56"/>
       <use x="63.623047" xlink:href="#DejaVuSans-48"/>
      </g>
     </g>
    </g>
    <g id="ytick_6">
     <g id="line2d_13">
      <g>
       <use style="stroke:#000000;stroke-width:0.8;" x="57.6" xlink:href="#mb5a6b27d36" y="43.368739"/>
      </g>
     </g>
     <g id="text_13">
      <!-- 100 -->
      <g transform="translate(31.5125 47.167957)scale(0.1 -0.1)">
       <use xlink:href="#DejaVuSans-49"/>
       <use x="63.623047" xlink:href="#DejaVuSans-48"/>
       <use x="127.246094" xlink:href="#DejaVuSans-48"/>
      </g>
     </g>
    </g>
   </g>
   <g id="line2d_14">
    <path clip-path="url(#p786e267f8b)" d="M 384.237907 272.333033 
L 383.586631 267.120279 
L 383.327138 261.968583 
L 383.398371 256.865223 
L 383.73673 251.79748 
L 384.276068 246.752633 
L 385.324215 239.199356 
L 387.176282 226.535086 
L 387.766501 221.403742 
L 388.171005 216.231693 
L 388.313471 211.046924 
L 388.107404 205.897771 
L 387.847911 203.348635 
L 387.471392 200.827484 
L 386.96767 198.334317 
L 386.324026 195.876767 
L 385.540459 193.459922 
L 384.619514 191.083781 
L 383.573911 188.750889 
L 382.413825 186.458702 
L 379.793456 182.009163 
L 376.834728 177.740251 
L 373.621596 173.657054 
L 370.215116 169.767205 
L 366.617832 166.093601 
L 362.824657 162.651504 
L 358.827958 159.458724 
L 354.625192 156.535613 
L 350.213813 153.89998 
L 345.621807 151.572176 
L 340.879702 149.567467 
L 336.012938 147.906203 
L 331.052045 146.603651 
L 326.022463 145.659809 
L 320.944544 145.016165 
L 315.831008 144.614206 
L 308.135264 144.326728 
L 297.887839 144.258039 
L 287.665856 144.479371 
L 279.993008 144.853346 
L 272.317616 145.443565 
L 267.221888 146.010888 
L 262.156689 146.756294 
L 257.137283 147.712856 
L 252.178934 148.908558 
L 247.268922 150.30524 
L 237.520131 153.436963 
L 227.723003 156.550878 
L 222.774831 157.94756 
L 217.791041 159.171247 
L 212.774179 160.171057 
L 207.724244 160.901199 
L 202.643781 161.326055 
L 197.537877 161.49905 
L 189.852309 161.501594 
L 179.594709 161.519403 
L 166.808325 161.997684 
L 159.140565 162.14015 
L 154.019397 162.015492 
L 148.900773 161.649149 
L 143.802501 161.028402 
L 138.74239 160.143073 
L 133.748425 158.990619 
L 128.835869 157.555776 
L 124.025074 155.838544 
L 119.316042 153.841467 
L 114.718948 151.564544 
L 110.236336 149.01032 
L 105.878382 146.183883 
L 101.69088 143.080145 
L 97.76287 139.678753 
L 95.926067 137.859759 
L 94.193571 135.961899 
L 92.573013 133.98263 
L 91.077112 131.916864 
L 89.721135 129.762055 
L 88.512712 127.520749 
L 87.451845 125.200578 
L 86.538531 122.804085 
L 85.770229 120.349079 
L 85.141849 117.838103 
L 84.655936 115.286424 
L 84.304857 112.699127 
L 84.091157 110.088934 
L 84.007204 107.460933 
L 84.055541 104.827843 
L 84.233624 102.199842 
L 84.536366 99.584561 
L 84.961222 96.992176 
L 85.508192 94.43032 
L 86.174733 91.911713 
L 86.958299 89.441443 
L 87.853804 87.034774 
L 88.863791 84.696794 
L 89.983172 82.437679 
L 91.209403 80.265063 
L 91.209403 80.265063 
" style="fill:none;stroke:#fea952;stroke-linecap:square;"/>
   </g>
   <g id="line2d_15">
    <path clip-path="url(#p786e267f8b)" d="M 374.166952 273.792734 
L 373.738079 270.7784 
L 373.240328 264.870383 
L 373.152671 259.117124 
L 373.393227 253.533516 
L 373.875145 248.100766 
L 374.885697 240.229277 
L 377.371642 222.884959 
L 377.844446 218.143299 
L 378.105038 213.506823 
L 378.098664 209.05874 
L 377.783339 204.85172 
L 377.123506 200.912551 
L 376.643878 199.015173 
L 376.052014 197.137456 
L 374.494327 193.346106 
L 372.490151 189.553434 
L 370.085103 185.787308 
L 367.345715 182.077612 
L 364.373084 178.489603 
L 361.268974 175.12324 
L 358.02502 171.982163 
L 354.63773 169.078376 
L 351.081649 166.412783 
L 347.375162 164.004486 
L 343.497366 161.852129 
L 339.468429 159.96913 
L 335.342782 158.380024 
L 331.138798 157.097323 
L 326.837137 156.121408 
L 322.345954 155.415479 
L 317.693987 154.942084 
L 312.903764 154.654179 
L 305.46727 154.459169 
L 295.503353 154.460756 
L 288.080659 154.647104 
L 280.659198 155.007707 
L 273.367147 155.565489 
L 268.605841 156.092531 
L 263.939608 156.775079 
L 259.401758 157.633895 
L 254.877925 158.720302 
L 250.276536 160.02682 
L 240.695753 163.104966 
L 230.561127 166.323283 
L 225.295069 167.806731 
L 219.895601 169.127435 
L 214.376383 170.220326 
L 208.719714 171.028583 
L 203.090209 171.492449 
L 197.628913 171.674834 
L 187.244984 171.654809 
L 179.887936 171.691368 
L 169.759693 172.067003 
L 161.74796 172.303495 
L 156.217689 172.276772 
L 150.61333 172.00375 
L 144.99502 171.455345 
L 139.380993 170.618874 
L 133.811237 169.484153 
L 128.28518 168.034128 
L 122.853695 166.265224 
L 117.54805 164.184289 
L 112.356049 161.790307 
L 107.300654 159.090423 
L 102.387167 156.090894 
L 97.563298 152.740163 
L 95.187007 150.90667 
L 92.871832 148.971798 
L 90.602353 146.909373 
L 88.410444 144.720536 
L 86.319889 142.408603 
L 84.330887 139.951066 
L 82.464327 137.336715 
L 80.763906 134.591435 
L 79.258055 131.752319 
L 77.942799 128.824513 
L 76.826815 125.843399 
L 75.898462 122.819521 
L 75.145297 119.741734 
L 74.572156 116.654724 
L 74.162601 113.529487 
L 73.920155 110.413855 
L 73.832727 107.274155 
L 73.902634 104.139844 
L 74.124937 101.029673 
L 74.494142 97.93878 
L 75.00933 94.867393 
L 75.670671 91.826855 
L 76.474827 88.834915 
L 77.420951 85.892662 
L 78.512015 82.999202 
L 79.745559 80.178751 
L 81.121068 77.435883 
L 82.347299 75.263266 
L 82.347299 75.263266 
" style="fill:none;stroke:#ffffff;stroke-linecap:square;"/>
   </g>
   <g id="line2d_16">
    <path clip-path="url(#p786e267f8b)" d="M 394.308862 270.873332 
L 393.739389 266.430092 
L 393.503324 261.958457 
L 393.559113 257.425745 
L 393.864617 252.787808 
L 394.368254 248.057482 
L 395.385801 240.7223 
L 397.277253 227.770096 
L 397.902039 222.312445 
L 398.338165 216.660308 
L 398.487273 210.826408 
L 398.416341 207.87069 
L 398.231275 204.867197 
L 397.912482 201.845551 
L 397.446034 198.812199 
L 396.811835 195.756084 
L 396.004174 192.738361 
L 395.028905 189.782387 
L 393.905644 186.921732 
L 392.653494 184.155673 
L 391.286094 181.474959 
L 389.813803 178.871182 
L 386.616858 173.916313 
L 383.164034 169.271356 
L 379.506877 164.881232 
L 375.609768 160.681597 
L 371.465807 156.69934 
L 367.06831 152.963162 
L 362.422382 149.512865 
L 357.509635 146.354786 
L 352.381502 143.541161 
L 347.068696 141.089103 
L 341.572755 139.004605 
L 335.946538 137.320946 
L 330.25518 136.058098 
L 324.631229 135.191806 
L 319.086653 134.637406 
L 313.629452 134.314739 
L 305.669369 134.10779 
L 295.15879 134.111291 
L 287.251053 134.311638 
L 279.326817 134.698985 
L 271.268084 135.321641 
L 265.837935 135.929244 
L 260.373771 136.737508 
L 254.872808 137.791817 
L 249.479944 139.096815 
L 244.261308 140.58366 
L 234.34451 143.76896 
L 224.884879 146.778472 
L 220.254593 148.088388 
L 215.686481 149.215058 
L 211.171975 150.121789 
L 206.728774 150.773815 
L 202.197353 151.159661 
L 197.446841 151.323267 
L 189.943074 151.325808 
L 181.994898 151.303791 
L 174.061282 151.519577 
L 161.646706 151.951365 
L 156.944817 151.937383 
L 152.30684 151.721949 
L 147.698079 151.283263 
L 143.151179 150.618746 
L 138.66177 149.718229 
L 134.276217 148.583501 
L 129.984351 147.202874 
L 125.765082 145.564412 
L 121.650956 143.684393 
L 117.624101 141.550586 
L 113.699567 139.171998 
L 109.955082 136.595098 
L 106.505596 133.860877 
L 103.441691 130.998982 
L 100.815138 128.014194 
L 99.689898 126.497012 
L 98.678364 124.932675 
L 97.767369 123.289179 
L 96.96089 121.576642 
L 96.250247 119.76477 
L 95.641996 117.878636 
L 95.138401 115.934473 
L 94.447114 111.868767 
L 94.181681 107.647711 
L 94.342312 103.370011 
L 94.913114 99.11696 
L 95.874638 94.988511 
L 97.195593 91.070345 
L 98.845276 87.439476 
L 100.071507 85.266859 
L 100.071507 85.266859 
" style="fill:none;stroke:#ffffff;stroke-linecap:square;"/>
   </g>
   <g id="patch_3">
    <path d="M 57.6 307.584 
L 57.6 41.472 
" style="fill:none;stroke:#000000;stroke-linecap:square;stroke-linejoin:miter;stroke-width:0.8;"/>
   </g>
   <g id="patch_4">
    <path d="M 414.72 307.584 
L 414.72 41.472 
" style="fill:none;stroke:#000000;stroke-linecap:square;stroke-linejoin:miter;stroke-width:0.8;"/>
   </g>
   <g id="patch_5">
    <path d="M 57.6 307.584 
L 414.72 307.584 
" style="fill:none;stroke:#000000;stroke-linecap:square;stroke-linejoin:miter;stroke-width:0.8;"/>
   </g>
   <g id="patch_6">
    <path d="M 57.6 41.472 
L 414.72 41.472 
" style="fill:none;stroke:#000000;stroke-linecap:square;stroke-linejoin:miter;stroke-width:0.8;"/>
   </g>
  </g>
 </g>
 <defs>
  <clipPath id="p786e267f8b">
   <rect height="266.112" width="357.12" x="57.6" y="41.472"/>
  </clipPath>
 </defs>
</svg>
