<?xml version="1.0" encoding="utf-8" standalone="no"?>
<!DOCTYPE svg PUBLIC "-//W3C//DTD SVG 1.1//EN"
  "http://www.w3.org/Graphics/SVG/1.1/DTD/svg11.dtd">
<!-- Created with matplotlib (https://matplotlib.org/) -->
<svg height="345.6pt" version="1.1" viewBox="0 0 460.8 345.6" width="460.8pt" xmlns="http://www.w3.org/2000/svg" xmlns:xlink="http://www.w3.org/1999/xlink">
 <metadata>
  <rdf:RDF xmlns:cc="http://creativecommons.org/ns#" xmlns:dc="http://purl.org/dc/elements/1.1/" xmlns:rdf="http://www.w3.org/1999/02/22-rdf-syntax-ns#">
   <cc:Work>
    <dc:type rdf:resource="http://purl.org/dc/dcmitype/StillImage"/>
    <dc:date>2021-01-22T10:30:08.170638</dc:date>
    <dc:format>image/svg+xml</dc:format>
    <dc:creator>
     <cc:Agent>
      <dc:title>Matplotlib v3.3.3, https://matplotlib.org/</dc:title>
     </cc:Agent>
    </dc:creator>
   </cc:Work>
  </rdf:RDF>
 </metadata>
 <defs>
  <style type="text/css">*{stroke-linecap:butt;stroke-linejoin:round;}</style>
 </defs>
 <g id="figure_1">
  <g id="patch_1">
   <path d="M 0 345.6 
L 460.8 345.6 
L 460.8 0 
L 0 0 
z
" style="fill:#ffffff;"/>
  </g>
  <g id="axes_1">
   <g id="patch_2">
    <path d="M 57.6 307.584 
L 414.72 307.584 
L 414.72 41.472 
L 57.6 41.472 
z
" style="fill:#7d9051;"/>
   </g>
   <g id="matplotlib.axis_1">
    <g id="xtick_1">
     <g id="line2d_1">
      <defs>
       <path d="M 0 0 
L 0 3.5 
" id="m2eeaf73140" style="stroke:#000000;stroke-width:0.8;"/>
      </defs>
      <g>
       <use style="stroke:#000000;stroke-width:0.8;" x="106.98029" xlink:href="#m2eeaf73140" y="307.584"/>
      </g>
     </g>
     <g id="text_1">
      <!-- 20 -->
      <g transform="translate(100.61779 322.182437)scale(0.1 -0.1)">
       <defs>
        <path d="M 19.1875 8.296875 
L 53.609375 8.296875 
L 53.609375 0 
L 7.328125 0 
L 7.328125 8.296875 
Q 12.9375 14.109375 22.625 23.890625 
Q 32.328125 33.6875 34.8125 36.53125 
Q 39.546875 41.84375 41.421875 45.53125 
Q 43.3125 49.21875 43.3125 52.78125 
Q 43.3125 58.59375 39.234375 62.25 
Q 35.15625 65.921875 28.609375 65.921875 
Q 23.96875 65.921875 18.8125 64.3125 
Q 13.671875 62.703125 7.8125 59.421875 
L 7.8125 69.390625 
Q 13.765625 71.78125 18.9375 73 
Q 24.125 74.21875 28.421875 74.21875 
Q 39.75 74.21875 46.484375 68.546875 
Q 53.21875 62.890625 53.21875 53.421875 
Q 53.21875 48.921875 51.53125 44.890625 
Q 49.859375 40.875 45.40625 35.40625 
Q 44.1875 33.984375 37.640625 27.21875 
Q 31.109375 20.453125 19.1875 8.296875 
z
" id="DejaVuSans-50"/>
        <path d="M 31.78125 66.40625 
Q 24.171875 66.40625 20.328125 58.90625 
Q 16.5 51.421875 16.5 36.375 
Q 16.5 21.390625 20.328125 13.890625 
Q 24.171875 6.390625 31.78125 6.390625 
Q 39.453125 6.390625 43.28125 13.890625 
Q 47.125 21.390625 47.125 36.375 
Q 47.125 51.421875 43.28125 58.90625 
Q 39.453125 66.40625 31.78125 66.40625 
z
M 31.78125 74.21875 
Q 44.046875 74.21875 50.515625 64.515625 
Q 56.984375 54.828125 56.984375 36.375 
Q 56.984375 17.96875 50.515625 8.265625 
Q 44.046875 -1.421875 31.78125 -1.421875 
Q 19.53125 -1.421875 13.0625 8.265625 
Q 6.59375 17.96875 6.59375 36.375 
Q 6.59375 54.828125 13.0625 64.515625 
Q 19.53125 74.21875 31.78125 74.21875 
z
" id="DejaVuSans-48"/>
       </defs>
       <use xlink:href="#DejaVuSans-50"/>
       <use x="63.623047" xlink:href="#DejaVuSans-48"/>
      </g>
     </g>
    </g>
    <g id="xtick_2">
     <g id="line2d_2">
      <g>
       <use style="stroke:#000000;stroke-width:0.8;" x="160.781143" xlink:href="#m2eeaf73140" y="307.584"/>
      </g>
     </g>
     <g id="text_2">
      <!-- 40 -->
      <g transform="translate(154.418643 322.182437)scale(0.1 -0.1)">
       <defs>
        <path d="M 37.796875 64.3125 
L 12.890625 25.390625 
L 37.796875 25.390625 
z
M 35.203125 72.90625 
L 47.609375 72.90625 
L 47.609375 25.390625 
L 58.015625 25.390625 
L 58.015625 17.1875 
L 47.609375 17.1875 
L 47.609375 0 
L 37.796875 0 
L 37.796875 17.1875 
L 4.890625 17.1875 
L 4.890625 26.703125 
z
" id="DejaVuSans-52"/>
       </defs>
       <use xlink:href="#DejaVuSans-52"/>
       <use x="63.623047" xlink:href="#DejaVuSans-48"/>
      </g>
     </g>
    </g>
    <g id="xtick_3">
     <g id="line2d_3">
      <g>
       <use style="stroke:#000000;stroke-width:0.8;" x="214.581996" xlink:href="#m2eeaf73140" y="307.584"/>
      </g>
     </g>
     <g id="text_3">
      <!-- 60 -->
      <g transform="translate(208.219496 322.182437)scale(0.1 -0.1)">
       <defs>
        <path d="M 33.015625 40.375 
Q 26.375 40.375 22.484375 35.828125 
Q 18.609375 31.296875 18.609375 23.390625 
Q 18.609375 15.53125 22.484375 10.953125 
Q 26.375 6.390625 33.015625 6.390625 
Q 39.65625 6.390625 43.53125 10.953125 
Q 47.40625 15.53125 47.40625 23.390625 
Q 47.40625 31.296875 43.53125 35.828125 
Q 39.65625 40.375 33.015625 40.375 
z
M 52.59375 71.296875 
L 52.59375 62.3125 
Q 48.875 64.0625 45.09375 64.984375 
Q 41.3125 65.921875 37.59375 65.921875 
Q 27.828125 65.921875 22.671875 59.328125 
Q 17.53125 52.734375 16.796875 39.40625 
Q 19.671875 43.65625 24.015625 45.921875 
Q 28.375 48.1875 33.59375 48.1875 
Q 44.578125 48.1875 50.953125 41.515625 
Q 57.328125 34.859375 57.328125 23.390625 
Q 57.328125 12.15625 50.6875 5.359375 
Q 44.046875 -1.421875 33.015625 -1.421875 
Q 20.359375 -1.421875 13.671875 8.265625 
Q 6.984375 17.96875 6.984375 36.375 
Q 6.984375 53.65625 15.1875 63.9375 
Q 23.390625 74.21875 37.203125 74.21875 
Q 40.921875 74.21875 44.703125 73.484375 
Q 48.484375 72.75 52.59375 71.296875 
z
" id="DejaVuSans-54"/>
       </defs>
       <use xlink:href="#DejaVuSans-54"/>
       <use x="63.623047" xlink:href="#DejaVuSans-48"/>
      </g>
     </g>
    </g>
    <g id="xtick_4">
     <g id="line2d_4">
      <g>
       <use style="stroke:#000000;stroke-width:0.8;" x="268.382849" xlink:href="#m2eeaf73140" y="307.584"/>
      </g>
     </g>
     <g id="text_4">
      <!-- 80 -->
      <g transform="translate(262.020349 322.182437)scale(0.1 -0.1)">
       <defs>
        <path d="M 31.78125 34.625 
Q 24.75 34.625 20.71875 30.859375 
Q 16.703125 27.09375 16.703125 20.515625 
Q 16.703125 13.921875 20.71875 10.15625 
Q 24.75 6.390625 31.78125 6.390625 
Q 38.8125 6.390625 42.859375 10.171875 
Q 46.921875 13.96875 46.921875 20.515625 
Q 46.921875 27.09375 42.890625 30.859375 
Q 38.875 34.625 31.78125 34.625 
z
M 21.921875 38.8125 
Q 15.578125 40.375 12.03125 44.71875 
Q 8.5 49.078125 8.5 55.328125 
Q 8.5 64.0625 14.71875 69.140625 
Q 20.953125 74.21875 31.78125 74.21875 
Q 42.671875 74.21875 48.875 69.140625 
Q 55.078125 64.0625 55.078125 55.328125 
Q 55.078125 49.078125 51.53125 44.71875 
Q 48 40.375 41.703125 38.8125 
Q 48.828125 37.15625 52.796875 32.3125 
Q 56.78125 27.484375 56.78125 20.515625 
Q 56.78125 9.90625 50.3125 4.234375 
Q 43.84375 -1.421875 31.78125 -1.421875 
Q 19.734375 -1.421875 13.25 4.234375 
Q 6.78125 9.90625 6.78125 20.515625 
Q 6.78125 27.484375 10.78125 32.3125 
Q 14.796875 37.15625 21.921875 38.8125 
z
M 18.3125 54.390625 
Q 18.3125 48.734375 21.84375 45.5625 
Q 25.390625 42.390625 31.78125 42.390625 
Q 38.140625 42.390625 41.71875 45.5625 
Q 45.3125 48.734375 45.3125 54.390625 
Q 45.3125 60.0625 41.71875 63.234375 
Q 38.140625 66.40625 31.78125 66.40625 
Q 25.390625 66.40625 21.84375 63.234375 
Q 18.3125 60.0625 18.3125 54.390625 
z
" id="DejaVuSans-56"/>
       </defs>
       <use xlink:href="#DejaVuSans-56"/>
       <use x="63.623047" xlink:href="#DejaVuSans-48"/>
      </g>
     </g>
    </g>
    <g id="xtick_5">
     <g id="line2d_5">
      <g>
       <use style="stroke:#000000;stroke-width:0.8;" x="322.183701" xlink:href="#m2eeaf73140" y="307.584"/>
      </g>
     </g>
     <g id="text_5">
      <!-- 100 -->
      <g transform="translate(312.639951 322.182437)scale(0.1 -0.1)">
       <defs>
        <path d="M 12.40625 8.296875 
L 28.515625 8.296875 
L 28.515625 63.921875 
L 10.984375 60.40625 
L 10.984375 69.390625 
L 28.421875 72.90625 
L 38.28125 72.90625 
L 38.28125 8.296875 
L 54.390625 8.296875 
L 54.390625 0 
L 12.40625 0 
z
" id="DejaVuSans-49"/>
       </defs>
       <use xlink:href="#DejaVuSans-49"/>
       <use x="63.623047" xlink:href="#DejaVuSans-48"/>
       <use x="127.246094" xlink:href="#DejaVuSans-48"/>
      </g>
     </g>
    </g>
    <g id="xtick_6">
     <g id="line2d_6">
      <g>
       <use style="stroke:#000000;stroke-width:0.8;" x="375.984554" xlink:href="#m2eeaf73140" y="307.584"/>
      </g>
     </g>
     <g id="text_6">
      <!-- 120 -->
      <g transform="translate(366.440804 322.182437)scale(0.1 -0.1)">
       <use xlink:href="#DejaVuSans-49"/>
       <use x="63.623047" xlink:href="#DejaVuSans-50"/>
       <use x="127.246094" xlink:href="#DejaVuSans-48"/>
      </g>
     </g>
    </g>
   </g>
   <g id="matplotlib.axis_2">
    <g id="ytick_1">
     <g id="line2d_7">
      <defs>
       <path d="M 0 0 
L -3.5 0 
" id="m9769545c34" style="stroke:#000000;stroke-width:0.8;"/>
      </defs>
      <g>
       <use style="stroke:#000000;stroke-width:0.8;" x="57.6" xlink:href="#m9769545c34" y="276.702878"/>
      </g>
     </g>
     <g id="text_7">
      <!-- 0 -->
      <g transform="translate(44.2375 280.502096)scale(0.1 -0.1)">
       <use xlink:href="#DejaVuSans-48"/>
      </g>
     </g>
    </g>
    <g id="ytick_2">
     <g id="line2d_8">
      <g>
       <use style="stroke:#000000;stroke-width:0.8;" x="57.6" xlink:href="#m9769545c34" y="222.902025"/>
      </g>
     </g>
     <g id="text_8">
      <!-- 20 -->
      <g transform="translate(37.875 226.701244)scale(0.1 -0.1)">
       <use xlink:href="#DejaVuSans-50"/>
       <use x="63.623047" xlink:href="#DejaVuSans-48"/>
      </g>
     </g>
    </g>
    <g id="ytick_3">
     <g id="line2d_9">
      <g>
       <use style="stroke:#000000;stroke-width:0.8;" x="57.6" xlink:href="#m9769545c34" y="169.101172"/>
      </g>
     </g>
     <g id="text_9">
      <!-- 40 -->
      <g transform="translate(37.875 172.900391)scale(0.1 -0.1)">
       <use xlink:href="#DejaVuSans-52"/>
       <use x="63.623047" xlink:href="#DejaVuSans-48"/>
      </g>
     </g>
    </g>
    <g id="ytick_4">
     <g id="line2d_10">
      <g>
       <use style="stroke:#000000;stroke-width:0.8;" x="57.6" xlink:href="#m9769545c34" y="115.300319"/>
      </g>
     </g>
     <g id="text_10">
      <!-- 60 -->
      <g transform="translate(37.875 119.099538)scale(0.1 -0.1)">
       <use xlink:href="#DejaVuSans-54"/>
       <use x="63.623047" xlink:href="#DejaVuSans-48"/>
      </g>
     </g>
    </g>
    <g id="ytick_5">
     <g id="line2d_11">
      <g>
       <use style="stroke:#000000;stroke-width:0.8;" x="57.6" xlink:href="#m9769545c34" y="61.499467"/>
      </g>
     </g>
     <g id="text_11">
      <!-- 80 -->
      <g transform="translate(37.875 65.298685)scale(0.1 -0.1)">
       <use xlink:href="#DejaVuSans-56"/>
       <use x="63.623047" xlink:href="#DejaVuSans-48"/>
      </g>
     </g>
    </g>
   </g>
   <g id="line2d_12">
    <path clip-path="url(#p829e6477f1)" d="M 386.505311 249.802451 
L 386.997589 247.058608 
L 387.355364 244.328214 
L 387.592088 241.613961 
L 387.73197 236.220426 
L 387.481796 230.867241 
L 386.911507 225.549027 
L 386.088354 220.260403 
L 384.530819 212.354368 
L 380.073419 191.267123 
L 377.587819 178.050944 
L 376.428411 172.799981 
L 375.067249 167.586678 
L 373.463984 162.429866 
L 371.613235 157.356446 
L 369.506931 152.387937 
L 367.137004 147.548551 
L 364.498072 142.859806 
L 361.590136 138.340535 
L 358.421266 133.990736 
L 354.994151 129.82117 
L 351.314173 125.834526 
L 347.392091 122.041566 
L 343.227905 118.49071 
L 341.05435 116.839024 
L 338.818925 115.284179 
L 336.521628 113.839626 
L 334.165151 112.518815 
L 331.746803 111.332507 
L 329.266584 110.29415 
L 326.724493 109.414506 
L 324.123222 108.707025 
L 321.46815 108.169016 
L 318.778107 107.7951 
L 316.058474 107.585277 
L 313.325391 107.531476 
L 310.586927 107.633698 
L 307.856534 107.886562 
L 305.144971 108.290068 
L 302.462999 108.833457 
L 299.824067 109.519418 
L 297.236246 110.339881 
L 294.702226 111.292156 
L 292.222006 112.362793 
L 289.792898 113.549102 
L 285.093393 116.223004 
L 280.598332 119.257372 
L 276.307714 122.582265 
L 272.224229 126.149261 
L 268.361328 129.936841 
L 264.740531 133.945005 
L 261.388738 138.162992 
L 258.324779 142.590802 
L 255.564795 147.212295 
L 253.087266 152.000571 
L 250.870671 156.923349 
L 248.882729 161.948349 
L 247.101921 167.035219 
L 244.726614 174.734121 
L 240.156231 190.207247 
L 238.402323 195.350608 
L 236.417072 200.429409 
L 234.141296 205.373707 
L 232.879666 207.767845 
L 231.523884 210.100112 
L 230.068571 212.357058 
L 228.505657 214.533302 
L 226.82976 216.615395 
L 225.035502 218.597957 
L 223.128261 220.478296 
L 221.121489 222.267175 
L 219.023256 223.961902 
L 214.590066 227.093111 
L 209.909392 229.901516 
L 205.061935 232.419396 
L 200.109566 234.665581 
L 195.068427 236.632002 
L 189.941205 238.291759 
L 184.733283 239.62871 
L 179.441969 240.624026 
L 174.078024 241.253496 
L 168.671038 241.51712 
L 163.255982 241.404138 
L 157.870517 240.91186 
L 152.546923 240.037596 
L 147.31748 238.786727 
L 142.171428 237.215742 
L 137.100698 235.389203 
L 132.089148 233.377051 
L 124.656561 230.15169 
L 117.307364 226.786446 
L 110.052319 223.25711 
L 102.907566 219.534091 
L 95.886555 215.585109 
L 89.008116 211.375192 
L 84.507674 208.408075 
L 80.079864 205.303766 
L 80.079864 205.303766 
" style="fill:none;stroke:#fea952;stroke-linecap:square;"/>
   </g>
   <g id="line2d_13">
    <path clip-path="url(#p829e6477f1)" d="M 375.914246 247.90229 
L 376.635885 243.393314 
L 376.953233 238.835149 
L 376.912689 234.219753 
L 376.548817 229.492097 
L 375.911898 224.663974 
L 375.048809 219.710997 
L 373.455833 212.054303 
L 370.532068 198.630829 
L 368.522728 187.921636 
L 367.063046 180.289342 
L 365.98699 175.399594 
L 364.756167 170.662853 
L 363.309747 165.989747 
L 361.654021 161.430183 
L 359.781902 156.992835 
L 357.68413 152.689021 
L 355.363796 148.547185 
L 352.800913 144.547856 
L 350.01689 140.709943 
L 346.985569 137.007537 
L 343.726866 133.464339 
L 340.268386 130.105938 
L 336.717643 127.05796 
L 333.091139 124.393172 
L 329.426267 122.179263 
L 327.591465 121.257951 
L 325.747927 120.462745 
L 323.900574 119.797509 
L 321.986274 119.252864 
L 319.986729 118.826721 
L 317.950405 118.523389 
L 315.846701 118.343364 
L 313.726768 118.284158 
L 311.57919 118.348019 
L 309.44031 118.529537 
L 305.170025 119.247547 
L 303.076026 119.776417 
L 301.021424 120.412303 
L 296.943949 122.031533 
L 292.926885 124.08041 
L 288.996586 126.510902 
L 285.146691 129.2919 
L 281.430749 132.342677 
L 277.909166 135.587168 
L 274.614509 139.001922 
L 271.562426 142.582495 
L 268.766823 146.331277 
L 266.235651 150.240165 
L 263.91874 154.395404 
L 261.813284 158.747886 
L 259.89775 163.271248 
L 258.156599 167.945704 
L 256.564744 172.75525 
L 254.323959 180.280059 
L 251.231332 190.855535 
L 249.457076 196.343347 
L 247.41415 201.942681 
L 245.017084 207.585566 
L 243.660613 210.390067 
L 242.182236 213.175567 
L 240.567045 215.93128 
L 238.808394 218.633742 
L 236.887826 221.280191 
L 234.807786 223.835671 
L 232.589862 226.260391 
L 230.288283 228.510441 
L 227.882504 230.637955 
L 225.402169 232.627393 
L 222.876453 234.476403 
L 220.281487 236.224869 
L 215.003207 239.379613 
L 209.630277 242.16165 
L 204.159161 244.634636 
L 198.535426 246.818326 
L 192.783323 248.669795 
L 186.895211 250.169456 
L 180.879531 251.287734 
L 174.783842 251.990492 
L 168.628297 252.277206 
L 162.464263 252.135142 
L 156.326282 251.560645 
L 153.256523 251.107824 
L 147.240851 249.877474 
L 141.45521 248.284326 
L 135.874712 246.414569 
L 130.505283 244.357412 
L 122.773811 241.084556 
L 112.685378 236.503366 
L 105.179954 232.850927 
L 97.745222 228.975038 
L 90.388588 224.834629 
L 83.151504 220.401896 
L 78.401274 217.267711 
L 73.832727 214.064733 
L 73.832727 214.064733 
" style="fill:none;stroke:#ffffff;stroke-linecap:square;"/>
   </g>
   <g id="line2d_14">
    <path clip-path="url(#p829e6477f1)" d="M 397.096376 251.702613 
L 397.666556 248.45661 
L 398.074843 245.263114 
L 398.341488 242.095278 
L 398.473047 238.985788 
L 398.487273 235.896796 
L 398.194801 229.860868 
L 397.559822 224.001558 
L 396.671841 218.318479 
L 395.04676 210.074839 
L 390.656047 189.320522 
L 388.112592 175.812546 
L 386.869832 170.200368 
L 385.378332 164.510503 
L 383.618221 158.869986 
L 381.572449 153.282709 
L 379.23196 147.783039 
L 376.589878 142.40808 
L 373.632347 137.172427 
L 370.379358 132.133213 
L 366.825641 127.271529 
L 363.002733 122.634802 
L 358.90148 118.204714 
L 354.515796 113.977194 
L 352.176938 111.919933 
L 349.738166 109.92346 
L 347.198479 108.005511 
L 344.546711 106.175187 
L 341.782673 104.453323 
L 338.904036 102.858368 
L 335.902141 101.407063 
L 332.78524 100.125555 
L 329.548412 99.031503 
L 326.26017 98.161186 
L 322.949571 97.511312 
L 319.605809 97.066812 
L 316.270248 96.827191 
L 312.924014 96.778794 
L 309.594665 96.919376 
L 306.272758 97.243587 
L 303.008291 97.744175 
L 299.755972 98.419367 
L 296.572108 99.262419 
L 293.451068 100.267458 
L 290.437738 101.413117 
L 287.500064 102.694053 
L 284.662145 104.090949 
L 281.908296 105.594854 
L 279.231103 107.199988 
L 274.137113 110.653076 
L 269.342932 114.380248 
L 264.805024 118.355889 
L 260.489709 122.600706 
L 256.426994 127.113726 
L 252.640821 131.897592 
L 249.179681 136.920841 
L 246.079761 142.13141 
L 243.329744 147.464932 
L 240.909923 152.853366 
L 238.760401 158.298729 
L 236.857932 163.742508 
L 234.389869 171.745313 
L 229.941851 186.8238 
L 228.33251 191.558495 
L 226.568596 196.094804 
L 224.621978 200.357348 
L 222.480724 204.268944 
L 220.123487 207.786414 
L 218.851734 209.39512 
L 217.481141 210.935522 
L 214.360475 213.896395 
L 210.80681 216.659311 
L 206.897086 219.21608 
L 202.676988 221.577608 
L 198.275574 223.721045 
L 193.829826 225.606968 
L 189.355694 227.215148 
L 184.839722 228.538193 
L 180.281049 229.563587 
L 175.69739 230.277722 
L 171.035122 230.676308 
L 166.368323 230.753857 
L 161.724976 230.508387 
L 157.142086 229.941164 
L 152.602031 229.035621 
L 148.014868 227.788083 
L 143.383963 226.246866 
L 138.671113 224.446503 
L 131.478229 221.403138 
L 121.92935 217.069527 
L 114.924685 213.663293 
L 108.06991 210.093145 
L 101.384521 206.335588 
L 94.864727 202.348489 
L 88.530146 198.113783 
L 86.327001 196.542798 
L 86.327001 196.542798 
" style="fill:none;stroke:#ffffff;stroke-linecap:square;"/>
   </g>
   <g id="patch_3">
    <path d="M 57.6 307.584 
L 57.6 41.472 
" style="fill:none;stroke:#000000;stroke-linecap:square;stroke-linejoin:miter;stroke-width:0.8;"/>
   </g>
   <g id="patch_4">
    <path d="M 414.72 307.584 
L 414.72 41.472 
" style="fill:none;stroke:#000000;stroke-linecap:square;stroke-linejoin:miter;stroke-width:0.8;"/>
   </g>
   <g id="patch_5">
    <path d="M 57.6 307.584 
L 414.72 307.584 
" style="fill:none;stroke:#000000;stroke-linecap:square;stroke-linejoin:miter;stroke-width:0.8;"/>
   </g>
   <g id="patch_6">
    <path d="M 57.6 41.472 
L 414.72 41.472 
" style="fill:none;stroke:#000000;stroke-linecap:square;stroke-linejoin:miter;stroke-width:0.8;"/>
   </g>
  </g>
 </g>
 <defs>
  <clipPath id="p829e6477f1">
   <rect height="266.112" width="357.12" x="57.6" y="41.472"/>
  </clipPath>
 </defs>
</svg>
