<?xml version="1.0" encoding="utf-8" standalone="no"?>
<!DOCTYPE svg PUBLIC "-//W3C//DTD SVG 1.1//EN"
  "http://www.w3.org/Graphics/SVG/1.1/DTD/svg11.dtd">
<!-- Created with matplotlib (https://matplotlib.org/) -->
<svg height="345.6pt" version="1.1" viewBox="0 0 460.8 345.6" width="460.8pt" xmlns="http://www.w3.org/2000/svg" xmlns:xlink="http://www.w3.org/1999/xlink">
 <metadata>
  <rdf:RDF xmlns:cc="http://creativecommons.org/ns#" xmlns:dc="http://purl.org/dc/elements/1.1/" xmlns:rdf="http://www.w3.org/1999/02/22-rdf-syntax-ns#">
   <cc:Work>
    <dc:type rdf:resource="http://purl.org/dc/dcmitype/StillImage"/>
    <dc:date>2021-01-23T13:03:03.730418</dc:date>
    <dc:format>image/svg+xml</dc:format>
    <dc:creator>
     <cc:Agent>
      <dc:title>Matplotlib v3.3.3, https://matplotlib.org/</dc:title>
     </cc:Agent>
    </dc:creator>
   </cc:Work>
  </rdf:RDF>
 </metadata>
 <defs>
  <style type="text/css">*{stroke-linecap:butt;stroke-linejoin:round;}</style>
 </defs>
 <g id="figure_1">
  <g id="patch_1">
   <path d="M 0 345.6 
L 460.8 345.6 
L 460.8 0 
L 0 0 
z
" style="fill:#ffffff;"/>
  </g>
  <g id="axes_1">
   <g id="patch_2">
    <path d="M 57.6 307.584 
L 414.72 307.584 
L 414.72 41.472 
L 57.6 41.472 
z
" style="fill:#7d9051;"/>
   </g>
   <g id="matplotlib.axis_1">
    <g id="xtick_1">
     <g id="line2d_1">
      <defs>
       <path d="M 0 0 
L 0 3.5 
" id="m218b25a71f" style="stroke:#000000;stroke-width:0.8;"/>
      </defs>
      <g>
       <use style="stroke:#000000;stroke-width:0.8;" x="106.42081" xlink:href="#m218b25a71f" y="307.584"/>
      </g>
     </g>
     <g id="text_1">
      <!-- 0 -->
      <g transform="translate(103.23956 322.182437)scale(0.1 -0.1)">
       <defs>
        <path d="M 31.78125 66.40625 
Q 24.171875 66.40625 20.328125 58.90625 
Q 16.5 51.421875 16.5 36.375 
Q 16.5 21.390625 20.328125 13.890625 
Q 24.171875 6.390625 31.78125 6.390625 
Q 39.453125 6.390625 43.28125 13.890625 
Q 47.125 21.390625 47.125 36.375 
Q 47.125 51.421875 43.28125 58.90625 
Q 39.453125 66.40625 31.78125 66.40625 
z
M 31.78125 74.21875 
Q 44.046875 74.21875 50.515625 64.515625 
Q 56.984375 54.828125 56.984375 36.375 
Q 56.984375 17.96875 50.515625 8.265625 
Q 44.046875 -1.421875 31.78125 -1.421875 
Q 19.53125 -1.421875 13.0625 8.265625 
Q 6.59375 17.96875 6.59375 36.375 
Q 6.59375 54.828125 13.0625 64.515625 
Q 19.53125 74.21875 31.78125 74.21875 
z
" id="DejaVuSans-48"/>
       </defs>
       <use xlink:href="#DejaVuSans-48"/>
      </g>
     </g>
    </g>
    <g id="xtick_2">
     <g id="line2d_2">
      <g>
       <use style="stroke:#000000;stroke-width:0.8;" x="167.691677" xlink:href="#m218b25a71f" y="307.584"/>
      </g>
     </g>
     <g id="text_2">
      <!-- 20 -->
      <g transform="translate(161.329177 322.182437)scale(0.1 -0.1)">
       <defs>
        <path d="M 19.1875 8.296875 
L 53.609375 8.296875 
L 53.609375 0 
L 7.328125 0 
L 7.328125 8.296875 
Q 12.9375 14.109375 22.625 23.890625 
Q 32.328125 33.6875 34.8125 36.53125 
Q 39.546875 41.84375 41.421875 45.53125 
Q 43.3125 49.21875 43.3125 52.78125 
Q 43.3125 58.59375 39.234375 62.25 
Q 35.15625 65.921875 28.609375 65.921875 
Q 23.96875 65.921875 18.8125 64.3125 
Q 13.671875 62.703125 7.8125 59.421875 
L 7.8125 69.390625 
Q 13.765625 71.78125 18.9375 73 
Q 24.125 74.21875 28.421875 74.21875 
Q 39.75 74.21875 46.484375 68.546875 
Q 53.21875 62.890625 53.21875 53.421875 
Q 53.21875 48.921875 51.53125 44.890625 
Q 49.859375 40.875 45.40625 35.40625 
Q 44.1875 33.984375 37.640625 27.21875 
Q 31.109375 20.453125 19.1875 8.296875 
z
" id="DejaVuSans-50"/>
       </defs>
       <use xlink:href="#DejaVuSans-50"/>
       <use x="63.623047" xlink:href="#DejaVuSans-48"/>
      </g>
     </g>
    </g>
    <g id="xtick_3">
     <g id="line2d_3">
      <g>
       <use style="stroke:#000000;stroke-width:0.8;" x="228.962544" xlink:href="#m218b25a71f" y="307.584"/>
      </g>
     </g>
     <g id="text_3">
      <!-- 40 -->
      <g transform="translate(222.600044 322.182437)scale(0.1 -0.1)">
       <defs>
        <path d="M 37.796875 64.3125 
L 12.890625 25.390625 
L 37.796875 25.390625 
z
M 35.203125 72.90625 
L 47.609375 72.90625 
L 47.609375 25.390625 
L 58.015625 25.390625 
L 58.015625 17.1875 
L 47.609375 17.1875 
L 47.609375 0 
L 37.796875 0 
L 37.796875 17.1875 
L 4.890625 17.1875 
L 4.890625 26.703125 
z
" id="DejaVuSans-52"/>
       </defs>
       <use xlink:href="#DejaVuSans-52"/>
       <use x="63.623047" xlink:href="#DejaVuSans-48"/>
      </g>
     </g>
    </g>
    <g id="xtick_4">
     <g id="line2d_4">
      <g>
       <use style="stroke:#000000;stroke-width:0.8;" x="290.233411" xlink:href="#m218b25a71f" y="307.584"/>
      </g>
     </g>
     <g id="text_4">
      <!-- 60 -->
      <g transform="translate(283.870911 322.182437)scale(0.1 -0.1)">
       <defs>
        <path d="M 33.015625 40.375 
Q 26.375 40.375 22.484375 35.828125 
Q 18.609375 31.296875 18.609375 23.390625 
Q 18.609375 15.53125 22.484375 10.953125 
Q 26.375 6.390625 33.015625 6.390625 
Q 39.65625 6.390625 43.53125 10.953125 
Q 47.40625 15.53125 47.40625 23.390625 
Q 47.40625 31.296875 43.53125 35.828125 
Q 39.65625 40.375 33.015625 40.375 
z
M 52.59375 71.296875 
L 52.59375 62.3125 
Q 48.875 64.0625 45.09375 64.984375 
Q 41.3125 65.921875 37.59375 65.921875 
Q 27.828125 65.921875 22.671875 59.328125 
Q 17.53125 52.734375 16.796875 39.40625 
Q 19.671875 43.65625 24.015625 45.921875 
Q 28.375 48.1875 33.59375 48.1875 
Q 44.578125 48.1875 50.953125 41.515625 
Q 57.328125 34.859375 57.328125 23.390625 
Q 57.328125 12.15625 50.6875 5.359375 
Q 44.046875 -1.421875 33.015625 -1.421875 
Q 20.359375 -1.421875 13.671875 8.265625 
Q 6.984375 17.96875 6.984375 36.375 
Q 6.984375 53.65625 15.1875 63.9375 
Q 23.390625 74.21875 37.203125 74.21875 
Q 40.921875 74.21875 44.703125 73.484375 
Q 48.484375 72.75 52.59375 71.296875 
z
" id="DejaVuSans-54"/>
       </defs>
       <use xlink:href="#DejaVuSans-54"/>
       <use x="63.623047" xlink:href="#DejaVuSans-48"/>
      </g>
     </g>
    </g>
    <g id="xtick_5">
     <g id="line2d_5">
      <g>
       <use style="stroke:#000000;stroke-width:0.8;" x="351.504277" xlink:href="#m218b25a71f" y="307.584"/>
      </g>
     </g>
     <g id="text_5">
      <!-- 80 -->
      <g transform="translate(345.141777 322.182437)scale(0.1 -0.1)">
       <defs>
        <path d="M 31.78125 34.625 
Q 24.75 34.625 20.71875 30.859375 
Q 16.703125 27.09375 16.703125 20.515625 
Q 16.703125 13.921875 20.71875 10.15625 
Q 24.75 6.390625 31.78125 6.390625 
Q 38.8125 6.390625 42.859375 10.171875 
Q 46.921875 13.96875 46.921875 20.515625 
Q 46.921875 27.09375 42.890625 30.859375 
Q 38.875 34.625 31.78125 34.625 
z
M 21.921875 38.8125 
Q 15.578125 40.375 12.03125 44.71875 
Q 8.5 49.078125 8.5 55.328125 
Q 8.5 64.0625 14.71875 69.140625 
Q 20.953125 74.21875 31.78125 74.21875 
Q 42.671875 74.21875 48.875 69.140625 
Q 55.078125 64.0625 55.078125 55.328125 
Q 55.078125 49.078125 51.53125 44.71875 
Q 48 40.375 41.703125 38.8125 
Q 48.828125 37.15625 52.796875 32.3125 
Q 56.78125 27.484375 56.78125 20.515625 
Q 56.78125 9.90625 50.3125 4.234375 
Q 43.84375 -1.421875 31.78125 -1.421875 
Q 19.734375 -1.421875 13.25 4.234375 
Q 6.78125 9.90625 6.78125 20.515625 
Q 6.78125 27.484375 10.78125 32.3125 
Q 14.796875 37.15625 21.921875 38.8125 
z
M 18.3125 54.390625 
Q 18.3125 48.734375 21.84375 45.5625 
Q 25.390625 42.390625 31.78125 42.390625 
Q 38.140625 42.390625 41.71875 45.5625 
Q 45.3125 48.734375 45.3125 54.390625 
Q 45.3125 60.0625 41.71875 63.234375 
Q 38.140625 66.40625 31.78125 66.40625 
Q 25.390625 66.40625 21.84375 63.234375 
Q 18.3125 60.0625 18.3125 54.390625 
z
" id="DejaVuSans-56"/>
       </defs>
       <use xlink:href="#DejaVuSans-56"/>
       <use x="63.623047" xlink:href="#DejaVuSans-48"/>
      </g>
     </g>
    </g>
    <g id="xtick_6">
     <g id="line2d_6">
      <g>
       <use style="stroke:#000000;stroke-width:0.8;" x="412.775144" xlink:href="#m218b25a71f" y="307.584"/>
      </g>
     </g>
     <g id="text_6">
      <!-- 100 -->
      <g transform="translate(403.231394 322.182437)scale(0.1 -0.1)">
       <defs>
        <path d="M 12.40625 8.296875 
L 28.515625 8.296875 
L 28.515625 63.921875 
L 10.984375 60.40625 
L 10.984375 69.390625 
L 28.421875 72.90625 
L 38.28125 72.90625 
L 38.28125 8.296875 
L 54.390625 8.296875 
L 54.390625 0 
L 12.40625 0 
z
" id="DejaVuSans-49"/>
       </defs>
       <use xlink:href="#DejaVuSans-49"/>
       <use x="63.623047" xlink:href="#DejaVuSans-48"/>
       <use x="127.246094" xlink:href="#DejaVuSans-48"/>
      </g>
     </g>
    </g>
   </g>
   <g id="matplotlib.axis_2">
    <g id="ytick_1">
     <g id="line2d_7">
      <defs>
       <path d="M 0 0 
L -3.5 0 
" id="mf9a66d886b" style="stroke:#000000;stroke-width:0.8;"/>
      </defs>
      <g>
       <use style="stroke:#000000;stroke-width:0.8;" x="57.6" xlink:href="#mf9a66d886b" y="284.246191"/>
      </g>
     </g>
     <g id="text_7">
      <!-- 10 -->
      <g transform="translate(37.875 288.04541)scale(0.1 -0.1)">
       <use xlink:href="#DejaVuSans-49"/>
       <use x="63.623047" xlink:href="#DejaVuSans-48"/>
      </g>
     </g>
    </g>
    <g id="ytick_2">
     <g id="line2d_8">
      <g>
       <use style="stroke:#000000;stroke-width:0.8;" x="57.6" xlink:href="#mf9a66d886b" y="253.610758"/>
      </g>
     </g>
     <g id="text_8">
      <!-- 20 -->
      <g transform="translate(37.875 257.409977)scale(0.1 -0.1)">
       <use xlink:href="#DejaVuSans-50"/>
       <use x="63.623047" xlink:href="#DejaVuSans-48"/>
      </g>
     </g>
    </g>
    <g id="ytick_3">
     <g id="line2d_9">
      <g>
       <use style="stroke:#000000;stroke-width:0.8;" x="57.6" xlink:href="#mf9a66d886b" y="222.975324"/>
      </g>
     </g>
     <g id="text_9">
      <!-- 30 -->
      <g transform="translate(37.875 226.774543)scale(0.1 -0.1)">
       <defs>
        <path d="M 40.578125 39.3125 
Q 47.65625 37.796875 51.625 33 
Q 55.609375 28.21875 55.609375 21.1875 
Q 55.609375 10.40625 48.1875 4.484375 
Q 40.765625 -1.421875 27.09375 -1.421875 
Q 22.515625 -1.421875 17.65625 -0.515625 
Q 12.796875 0.390625 7.625 2.203125 
L 7.625 11.71875 
Q 11.71875 9.328125 16.59375 8.109375 
Q 21.484375 6.890625 26.8125 6.890625 
Q 36.078125 6.890625 40.9375 10.546875 
Q 45.796875 14.203125 45.796875 21.1875 
Q 45.796875 27.640625 41.28125 31.265625 
Q 36.765625 34.90625 28.71875 34.90625 
L 20.21875 34.90625 
L 20.21875 43.015625 
L 29.109375 43.015625 
Q 36.375 43.015625 40.234375 45.921875 
Q 44.09375 48.828125 44.09375 54.296875 
Q 44.09375 59.90625 40.109375 62.90625 
Q 36.140625 65.921875 28.71875 65.921875 
Q 24.65625 65.921875 20.015625 65.03125 
Q 15.375 64.15625 9.8125 62.3125 
L 9.8125 71.09375 
Q 15.4375 72.65625 20.34375 73.4375 
Q 25.25 74.21875 29.59375 74.21875 
Q 40.828125 74.21875 47.359375 69.109375 
Q 53.90625 64.015625 53.90625 55.328125 
Q 53.90625 49.265625 50.4375 45.09375 
Q 46.96875 40.921875 40.578125 39.3125 
z
" id="DejaVuSans-51"/>
       </defs>
       <use xlink:href="#DejaVuSans-51"/>
       <use x="63.623047" xlink:href="#DejaVuSans-48"/>
      </g>
     </g>
    </g>
    <g id="ytick_4">
     <g id="line2d_10">
      <g>
       <use style="stroke:#000000;stroke-width:0.8;" x="57.6" xlink:href="#mf9a66d886b" y="192.339891"/>
      </g>
     </g>
     <g id="text_10">
      <!-- 40 -->
      <g transform="translate(37.875 196.13911)scale(0.1 -0.1)">
       <use xlink:href="#DejaVuSans-52"/>
       <use x="63.623047" xlink:href="#DejaVuSans-48"/>
      </g>
     </g>
    </g>
    <g id="ytick_5">
     <g id="line2d_11">
      <g>
       <use style="stroke:#000000;stroke-width:0.8;" x="57.6" xlink:href="#mf9a66d886b" y="161.704458"/>
      </g>
     </g>
     <g id="text_11">
      <!-- 50 -->
      <g transform="translate(37.875 165.503676)scale(0.1 -0.1)">
       <defs>
        <path d="M 10.796875 72.90625 
L 49.515625 72.90625 
L 49.515625 64.59375 
L 19.828125 64.59375 
L 19.828125 46.734375 
Q 21.96875 47.46875 24.109375 47.828125 
Q 26.265625 48.1875 28.421875 48.1875 
Q 40.625 48.1875 47.75 41.5 
Q 54.890625 34.8125 54.890625 23.390625 
Q 54.890625 11.625 47.5625 5.09375 
Q 40.234375 -1.421875 26.90625 -1.421875 
Q 22.3125 -1.421875 17.546875 -0.640625 
Q 12.796875 0.140625 7.71875 1.703125 
L 7.71875 11.625 
Q 12.109375 9.234375 16.796875 8.0625 
Q 21.484375 6.890625 26.703125 6.890625 
Q 35.15625 6.890625 40.078125 11.328125 
Q 45.015625 15.765625 45.015625 23.390625 
Q 45.015625 31 40.078125 35.4375 
Q 35.15625 39.890625 26.703125 39.890625 
Q 22.75 39.890625 18.8125 39.015625 
Q 14.890625 38.140625 10.796875 36.28125 
z
" id="DejaVuSans-53"/>
       </defs>
       <use xlink:href="#DejaVuSans-53"/>
       <use x="63.623047" xlink:href="#DejaVuSans-48"/>
      </g>
     </g>
    </g>
    <g id="ytick_6">
     <g id="line2d_12">
      <g>
       <use style="stroke:#000000;stroke-width:0.8;" x="57.6" xlink:href="#mf9a66d886b" y="131.069024"/>
      </g>
     </g>
     <g id="text_12">
      <!-- 60 -->
      <g transform="translate(37.875 134.868243)scale(0.1 -0.1)">
       <use xlink:href="#DejaVuSans-54"/>
       <use x="63.623047" xlink:href="#DejaVuSans-48"/>
      </g>
     </g>
    </g>
    <g id="ytick_7">
     <g id="line2d_13">
      <g>
       <use style="stroke:#000000;stroke-width:0.8;" x="57.6" xlink:href="#mf9a66d886b" y="100.433591"/>
      </g>
     </g>
     <g id="text_13">
      <!-- 70 -->
      <g transform="translate(37.875 104.23281)scale(0.1 -0.1)">
       <defs>
        <path d="M 8.203125 72.90625 
L 55.078125 72.90625 
L 55.078125 68.703125 
L 28.609375 0 
L 18.3125 0 
L 43.21875 64.59375 
L 8.203125 64.59375 
z
" id="DejaVuSans-55"/>
       </defs>
       <use xlink:href="#DejaVuSans-55"/>
       <use x="63.623047" xlink:href="#DejaVuSans-48"/>
      </g>
     </g>
    </g>
    <g id="ytick_8">
     <g id="line2d_14">
      <g>
       <use style="stroke:#000000;stroke-width:0.8;" x="57.6" xlink:href="#mf9a66d886b" y="69.798157"/>
      </g>
     </g>
     <g id="text_14">
      <!-- 80 -->
      <g transform="translate(37.875 73.597376)scale(0.1 -0.1)">
       <use xlink:href="#DejaVuSans-56"/>
       <use x="63.623047" xlink:href="#DejaVuSans-48"/>
      </g>
     </g>
    </g>
   </g>
   <g id="line2d_15">
    <path clip-path="url(#pa49a9eff93)" d="M 154.46636 251.144605 
L 155.137276 247.983029 
L 155.636634 244.842897 
L 155.973624 241.730337 
L 156.151309 238.642285 
L 156.185008 235.572615 
L 156.083911 232.524389 
L 155.851082 229.497608 
L 155.504902 226.486145 
L 154.487805 220.509172 
L 153.112274 214.587343 
L 151.451834 208.708403 
L 149.573882 202.863162 
L 146.525656 194.132064 
L 142.417444 182.49979 
L 140.536429 176.648422 
L 138.891306 170.751101 
L 137.567855 164.786382 
L 137.056244 161.774919 
L 136.657983 158.738948 
L 136.37001 155.681531 
L 136.12799 149.536063 
L 136.308739 143.372214 
L 136.896939 137.22981 
L 137.87421 131.148676 
L 139.225232 125.162513 
L 140.940817 119.280509 
L 143.008708 113.50573 
L 145.416653 107.841239 
L 148.152398 102.290098 
L 151.219005 96.873753 
L 152.879445 94.239106 
L 154.631792 91.671857 
L 156.482172 89.18426 
L 158.430586 86.788569 
L 160.48316 84.497038 
L 162.639894 82.321923 
L 164.90998 80.275476 
L 167.29648 78.369952 
L 169.796331 76.617605 
L 172.403407 75.015372 
L 175.108515 73.557125 
L 177.899403 72.239801 
L 180.760753 71.060337 
L 183.683373 70.015669 
L 186.658074 69.096606 
L 189.672601 68.300085 
L 192.711636 67.626105 
L 198.829532 66.615136 
L 204.962745 66.026935 
L 211.102086 65.821678 
L 217.232236 65.959538 
L 223.350132 66.400688 
L 229.44352 67.102239 
L 235.506272 68.033556 
L 241.535326 69.176258 
L 247.524553 70.502772 
L 253.470891 71.994718 
L 262.303086 74.500696 
L 268.129945 76.35414 
L 273.904725 78.379142 
L 279.630487 80.597148 
L 285.304169 83.026537 
L 290.913517 85.69182 
L 296.378879 88.642012 
L 299.028844 90.244246 
L 301.605284 91.935322 
L 304.102071 93.724431 
L 306.503889 95.617701 
L 308.798483 97.624322 
L 310.973599 99.747357 
L 313.026173 101.992934 
L 314.953142 104.354926 
L 316.76676 106.814952 
L 318.47009 109.369947 
L 320.072323 112.004594 
L 322.994943 117.469955 
L 325.592828 123.119129 
L 327.918057 128.866336 
L 329.992076 134.671751 
L 331.79344 140.535373 
L 333.312957 146.463329 
L 334.532247 152.464811 
L 335.432929 158.542881 
L 335.996621 164.682222 
L 336.192688 170.846071 
L 335.996621 177.000729 
L 335.742347 180.061209 
L 335.377785 183.106371 
L 334.902936 186.130089 
L 333.625439 192.103998 
L 331.983379 197.995192 
L 330.074792 203.828178 
L 326.931596 212.51026 
L 321.521379 226.911978 
L 319.20534 232.588723 
L 316.690171 238.164372 
L 313.890092 243.599098 
L 310.753024 248.865329 
L 307.275902 253.935493 
L 303.474045 258.778955 
L 299.36277 263.371207 
L 294.963522 267.690803 
L 290.291618 271.707108 
L 285.359313 275.395614 
L 280.188052 278.734877 
L 274.793152 281.691196 
L 272.014518 283.020774 
L 269.189931 284.246191 
L 269.189931 284.246191 
" style="fill:none;stroke:#fea952;stroke-linecap:square;"/>
   </g>
   <g id="line2d_16">
    <path clip-path="url(#pa49a9eff93)" d="M 142.479124 248.600802 
L 143.035171 246.058499 
L 143.453656 243.523874 
L 143.739686 241.0264 
L 143.897874 238.507766 
L 143.937569 235.978811 
L 143.865833 233.464241 
L 143.392366 228.343896 
L 142.51477 223.118997 
L 141.28649 217.799132 
L 139.757433 212.369791 
L 137.97442 206.815029 
L 134.990903 198.269 
L 130.778751 186.334574 
L 128.772422 180.079591 
L 126.970502 173.589973 
L 125.486784 166.838812 
L 124.906166 163.368774 
L 124.457807 159.888062 
L 124.135656 156.378193 
L 123.94415 152.883111 
L 123.874688 149.389901 
L 123.923931 145.882252 
L 124.092326 142.410963 
L 124.373928 138.921809 
L 125.271365 132.043357 
L 126.593621 125.266419 
L 128.327324 118.6072 
L 130.457407 112.073926 
L 132.963263 105.702028 
L 135.829119 99.47825 
L 139.072149 93.364235 
L 140.85194 90.340092 
L 142.758291 87.330633 
L 144.799469 84.358158 
L 146.975256 81.452292 
L 149.302739 78.612556 
L 151.781461 75.868875 
L 154.434822 73.220189 
L 157.263856 70.699382 
L 160.262572 68.335566 
L 163.380112 66.177447 
L 166.588607 64.228673 
L 169.87784 62.475392 
L 173.229359 60.910395 
L 176.636164 59.521164 
L 180.06604 58.307566 
L 183.527617 57.249032 
L 187.019405 56.336585 
L 190.501477 55.572891 
L 193.985095 54.941853 
L 197.454924 54.438305 
L 200.932024 54.052767 
L 207.800093 53.627915 
L 214.609558 53.60301 
L 221.324583 53.93244 
L 227.931913 54.561074 
L 234.45038 55.445684 
L 240.901909 56.560108 
L 247.2757 57.872889 
L 253.558158 59.364069 
L 259.764511 61.006387 
L 265.937917 62.798014 
L 272.097049 64.759881 
L 278.239643 66.917325 
L 284.357468 69.291379 
L 290.443215 71.902016 
L 296.576516 74.824658 
L 302.719218 78.1556 
L 305.752973 79.999693 
L 308.742899 81.974437 
L 311.688134 84.100688 
L 314.570703 86.393207 
L 317.357871 88.854963 
L 320.018585 91.479771 
L 322.521345 94.246549 
L 324.816583 97.083249 
L 326.962848 100.017559 
L 328.940172 103.002676 
L 330.776955 106.040065 
L 332.483816 109.118411 
L 335.53818 115.313837 
L 338.19438 121.508842 
L 340.570443 127.76213 
L 342.680541 134.129365 
L 344.496792 140.594773 
L 346.002954 147.175079 
L 347.16695 153.85911 
L 347.975024 160.657267 
L 348.393032 167.557097 
L 348.445312 171.040944 
L 348.383836 174.513766 
L 348.208718 178.015348 
L 347.909637 181.517857 
L 347.483591 185.007486 
L 346.927578 188.490755 
L 346.253229 191.889774 
L 344.603975 198.503017 
L 342.668173 204.829576 
L 340.570449 210.907218 
L 335.178207 225.493692 
L 331.694535 234.478566 
L 329.092342 240.550432 
L 326.141784 246.66806 
L 322.791561 252.692587 
L 319.050487 258.516685 
L 317.032212 261.350289 
L 312.73238 266.806906 
L 308.0945 271.968977 
L 305.636763 274.455075 
L 303.107778 276.846995 
L 300.493348 279.163134 
L 297.797226 281.393729 
L 295.025906 283.53199 
L 292.190449 285.569127 
L 289.266107 287.523213 
L 286.265196 289.37598 
L 283.215428 291.108959 
L 280.082439 292.745074 
L 274.067072 295.488 
L 274.067072 295.488 
" style="fill:none;stroke:#ffffff;stroke-linecap:square;"/>
   </g>
   <g id="line2d_17">
    <path clip-path="url(#pa49a9eff93)" d="M 166.453597 253.688408 
L 167.239382 249.907559 
L 167.819612 246.16192 
L 168.207562 242.434274 
L 168.404744 238.776804 
L 168.432448 235.166418 
L 168.30199 231.584537 
L 168.025083 228.098155 
L 167.617438 224.628394 
L 166.460841 217.899347 
L 164.938059 211.375553 
L 163.146234 205.047015 
L 161.173343 198.911295 
L 158.060409 189.995127 
L 154.056138 178.665005 
L 152.300435 173.217253 
L 150.81211 167.912229 
L 149.648927 162.733952 
L 148.858159 157.589833 
L 148.446626 152.346738 
L 148.405574 147.026026 
L 148.72759 141.671024 
L 149.404814 136.313684 
L 150.416978 131.020262 
L 151.752946 125.811314 
L 153.403276 120.684742 
L 155.376319 115.617369 
L 157.657217 110.622451 
L 160.216538 105.756727 
L 163.000599 101.147579 
L 165.989088 96.916227 
L 167.558432 94.964581 
L 169.184858 93.125202 
L 170.844966 91.423656 
L 172.556103 89.851569 
L 174.330388 88.404338 
L 176.212551 87.057763 
L 178.218207 85.80207 
L 180.339191 84.638858 
L 182.569448 83.569208 
L 184.885342 82.599511 
L 187.300707 81.723771 
L 192.325796 80.263584 
L 197.553008 79.189101 
L 202.860253 78.485143 
L 208.264739 78.131856 
L 213.727828 78.09549 
L 219.266977 78.35426 
L 224.87093 78.877518 
L 230.508604 79.634968 
L 236.151943 80.603753 
L 241.793369 81.760189 
L 247.452603 83.099722 
L 255.884992 85.378441 
L 261.428664 87.059565 
L 266.87945 88.876428 
L 272.254816 90.854773 
L 277.554107 93.009205 
L 282.744158 95.339302 
L 287.692859 97.825823 
L 292.304714 100.488798 
L 296.516009 103.348173 
L 298.437076 104.842194 
L 300.239096 106.39368 
L 301.928613 108.014944 
L 303.531002 109.739319 
L 305.089701 111.626604 
L 306.570671 113.612344 
L 309.36769 117.969123 
L 311.934931 122.746402 
L 314.281283 127.832273 
L 316.422765 133.111688 
L 318.319912 138.403418 
L 319.961209 143.723332 
L 321.338026 149.064442 
L 322.435355 154.421841 
L 323.247025 159.834587 
L 323.7558 165.254109 
L 323.940064 170.651198 
L 323.784524 175.986111 
L 323.27198 181.205257 
L 322.376243 186.362694 
L 321.084495 191.611491 
L 319.442078 197.006049 
L 317.532688 202.545363 
L 312.245417 216.848103 
L 309.075073 225.043579 
L 306.861376 230.233299 
L 304.518131 235.132173 
L 301.937334 239.817794 
L 299.061155 244.336218 
L 295.893318 248.670415 
L 292.455898 252.789924 
L 288.763053 256.68046 
L 284.832253 260.311366 
L 280.686296 263.656512 
L 276.342529 266.699184 
L 271.817857 269.412083 
L 267.137378 271.778965 
L 264.312791 273.004382 
L 264.312791 273.004382 
" style="fill:none;stroke:#ffffff;stroke-linecap:square;"/>
   </g>
   <g id="patch_3">
    <path d="M 57.6 307.584 
L 57.6 41.472 
" style="fill:none;stroke:#000000;stroke-linecap:square;stroke-linejoin:miter;stroke-width:0.8;"/>
   </g>
   <g id="patch_4">
    <path d="M 414.72 307.584 
L 414.72 41.472 
" style="fill:none;stroke:#000000;stroke-linecap:square;stroke-linejoin:miter;stroke-width:0.8;"/>
   </g>
   <g id="patch_5">
    <path d="M 57.6 307.584 
L 414.72 307.584 
" style="fill:none;stroke:#000000;stroke-linecap:square;stroke-linejoin:miter;stroke-width:0.8;"/>
   </g>
   <g id="patch_6">
    <path d="M 57.6 41.472 
L 414.72 41.472 
" style="fill:none;stroke:#000000;stroke-linecap:square;stroke-linejoin:miter;stroke-width:0.8;"/>
   </g>
  </g>
 </g>
 <defs>
  <clipPath id="pa49a9eff93">
   <rect height="266.112" width="357.12" x="57.6" y="41.472"/>
  </clipPath>
 </defs>
</svg>
