<?xml version="1.0" encoding="utf-8" standalone="no"?>
<!DOCTYPE svg PUBLIC "-//W3C//DTD SVG 1.1//EN"
  "http://www.w3.org/Graphics/SVG/1.1/DTD/svg11.dtd">
<!-- Created with matplotlib (https://matplotlib.org/) -->
<svg height="345.6pt" version="1.1" viewBox="0 0 460.8 345.6" width="460.8pt" xmlns="http://www.w3.org/2000/svg" xmlns:xlink="http://www.w3.org/1999/xlink">
 <metadata>
  <rdf:RDF xmlns:cc="http://creativecommons.org/ns#" xmlns:dc="http://purl.org/dc/elements/1.1/" xmlns:rdf="http://www.w3.org/1999/02/22-rdf-syntax-ns#">
   <cc:Work>
    <dc:type rdf:resource="http://purl.org/dc/dcmitype/StillImage"/>
    <dc:date>2021-01-23T12:46:11.057627</dc:date>
    <dc:format>image/svg+xml</dc:format>
    <dc:creator>
     <cc:Agent>
      <dc:title>Matplotlib v3.3.3, https://matplotlib.org/</dc:title>
     </cc:Agent>
    </dc:creator>
   </cc:Work>
  </rdf:RDF>
 </metadata>
 <defs>
  <style type="text/css">*{stroke-linecap:butt;stroke-linejoin:round;}</style>
 </defs>
 <g id="figure_1">
  <g id="patch_1">
   <path d="M 0 345.6 
L 460.8 345.6 
L 460.8 0 
L 0 0 
z
" style="fill:#ffffff;"/>
  </g>
  <g id="axes_1">
   <g id="patch_2">
    <path d="M 57.6 307.584 
L 414.72 307.584 
L 414.72 41.472 
L 57.6 41.472 
z
" style="fill:#7d9051;"/>
   </g>
   <g id="matplotlib.axis_1">
    <g id="xtick_1">
     <g id="line2d_1">
      <defs>
       <path d="M 0 0 
L 0 3.5 
" id="m2bea4c2f84" style="stroke:#000000;stroke-width:0.8;"/>
      </defs>
      <g>
       <use style="stroke:#000000;stroke-width:0.8;" x="57.713928" xlink:href="#m2bea4c2f84" y="307.584"/>
      </g>
     </g>
     <g id="text_1">
      <!-- 0 -->
      <g transform="translate(54.532678 322.182437)scale(0.1 -0.1)">
       <defs>
        <path d="M 31.78125 66.40625 
Q 24.171875 66.40625 20.328125 58.90625 
Q 16.5 51.421875 16.5 36.375 
Q 16.5 21.390625 20.328125 13.890625 
Q 24.171875 6.390625 31.78125 6.390625 
Q 39.453125 6.390625 43.28125 13.890625 
Q 47.125 21.390625 47.125 36.375 
Q 47.125 51.421875 43.28125 58.90625 
Q 39.453125 66.40625 31.78125 66.40625 
z
M 31.78125 74.21875 
Q 44.046875 74.21875 50.515625 64.515625 
Q 56.984375 54.828125 56.984375 36.375 
Q 56.984375 17.96875 50.515625 8.265625 
Q 44.046875 -1.421875 31.78125 -1.421875 
Q 19.53125 -1.421875 13.0625 8.265625 
Q 6.59375 17.96875 6.59375 36.375 
Q 6.59375 54.828125 13.0625 64.515625 
Q 19.53125 74.21875 31.78125 74.21875 
z
" id="DejaVuSans-48"/>
       </defs>
       <use xlink:href="#DejaVuSans-48"/>
      </g>
     </g>
    </g>
    <g id="xtick_2">
     <g id="line2d_2">
      <g>
       <use style="stroke:#000000;stroke-width:0.8;" x="120.165546" xlink:href="#m2bea4c2f84" y="307.584"/>
      </g>
     </g>
     <g id="text_2">
      <!-- 20 -->
      <g transform="translate(113.803046 322.182437)scale(0.1 -0.1)">
       <defs>
        <path d="M 19.1875 8.296875 
L 53.609375 8.296875 
L 53.609375 0 
L 7.328125 0 
L 7.328125 8.296875 
Q 12.9375 14.109375 22.625 23.890625 
Q 32.328125 33.6875 34.8125 36.53125 
Q 39.546875 41.84375 41.421875 45.53125 
Q 43.3125 49.21875 43.3125 52.78125 
Q 43.3125 58.59375 39.234375 62.25 
Q 35.15625 65.921875 28.609375 65.921875 
Q 23.96875 65.921875 18.8125 64.3125 
Q 13.671875 62.703125 7.8125 59.421875 
L 7.8125 69.390625 
Q 13.765625 71.78125 18.9375 73 
Q 24.125 74.21875 28.421875 74.21875 
Q 39.75 74.21875 46.484375 68.546875 
Q 53.21875 62.890625 53.21875 53.421875 
Q 53.21875 48.921875 51.53125 44.890625 
Q 49.859375 40.875 45.40625 35.40625 
Q 44.1875 33.984375 37.640625 27.21875 
Q 31.109375 20.453125 19.1875 8.296875 
z
" id="DejaVuSans-50"/>
       </defs>
       <use xlink:href="#DejaVuSans-50"/>
       <use x="63.623047" xlink:href="#DejaVuSans-48"/>
      </g>
     </g>
    </g>
    <g id="xtick_3">
     <g id="line2d_3">
      <g>
       <use style="stroke:#000000;stroke-width:0.8;" x="182.617165" xlink:href="#m2bea4c2f84" y="307.584"/>
      </g>
     </g>
     <g id="text_3">
      <!-- 40 -->
      <g transform="translate(176.254665 322.182437)scale(0.1 -0.1)">
       <defs>
        <path d="M 37.796875 64.3125 
L 12.890625 25.390625 
L 37.796875 25.390625 
z
M 35.203125 72.90625 
L 47.609375 72.90625 
L 47.609375 25.390625 
L 58.015625 25.390625 
L 58.015625 17.1875 
L 47.609375 17.1875 
L 47.609375 0 
L 37.796875 0 
L 37.796875 17.1875 
L 4.890625 17.1875 
L 4.890625 26.703125 
z
" id="DejaVuSans-52"/>
       </defs>
       <use xlink:href="#DejaVuSans-52"/>
       <use x="63.623047" xlink:href="#DejaVuSans-48"/>
      </g>
     </g>
    </g>
    <g id="xtick_4">
     <g id="line2d_4">
      <g>
       <use style="stroke:#000000;stroke-width:0.8;" x="245.068783" xlink:href="#m2bea4c2f84" y="307.584"/>
      </g>
     </g>
     <g id="text_4">
      <!-- 60 -->
      <g transform="translate(238.706283 322.182437)scale(0.1 -0.1)">
       <defs>
        <path d="M 33.015625 40.375 
Q 26.375 40.375 22.484375 35.828125 
Q 18.609375 31.296875 18.609375 23.390625 
Q 18.609375 15.53125 22.484375 10.953125 
Q 26.375 6.390625 33.015625 6.390625 
Q 39.65625 6.390625 43.53125 10.953125 
Q 47.40625 15.53125 47.40625 23.390625 
Q 47.40625 31.296875 43.53125 35.828125 
Q 39.65625 40.375 33.015625 40.375 
z
M 52.59375 71.296875 
L 52.59375 62.3125 
Q 48.875 64.0625 45.09375 64.984375 
Q 41.3125 65.921875 37.59375 65.921875 
Q 27.828125 65.921875 22.671875 59.328125 
Q 17.53125 52.734375 16.796875 39.40625 
Q 19.671875 43.65625 24.015625 45.921875 
Q 28.375 48.1875 33.59375 48.1875 
Q 44.578125 48.1875 50.953125 41.515625 
Q 57.328125 34.859375 57.328125 23.390625 
Q 57.328125 12.15625 50.6875 5.359375 
Q 44.046875 -1.421875 33.015625 -1.421875 
Q 20.359375 -1.421875 13.671875 8.265625 
Q 6.984375 17.96875 6.984375 36.375 
Q 6.984375 53.65625 15.1875 63.9375 
Q 23.390625 74.21875 37.203125 74.21875 
Q 40.921875 74.21875 44.703125 73.484375 
Q 48.484375 72.75 52.59375 71.296875 
z
" id="DejaVuSans-54"/>
       </defs>
       <use xlink:href="#DejaVuSans-54"/>
       <use x="63.623047" xlink:href="#DejaVuSans-48"/>
      </g>
     </g>
    </g>
    <g id="xtick_5">
     <g id="line2d_5">
      <g>
       <use style="stroke:#000000;stroke-width:0.8;" x="307.520401" xlink:href="#m2bea4c2f84" y="307.584"/>
      </g>
     </g>
     <g id="text_5">
      <!-- 80 -->
      <g transform="translate(301.157901 322.182437)scale(0.1 -0.1)">
       <defs>
        <path d="M 31.78125 34.625 
Q 24.75 34.625 20.71875 30.859375 
Q 16.703125 27.09375 16.703125 20.515625 
Q 16.703125 13.921875 20.71875 10.15625 
Q 24.75 6.390625 31.78125 6.390625 
Q 38.8125 6.390625 42.859375 10.171875 
Q 46.921875 13.96875 46.921875 20.515625 
Q 46.921875 27.09375 42.890625 30.859375 
Q 38.875 34.625 31.78125 34.625 
z
M 21.921875 38.8125 
Q 15.578125 40.375 12.03125 44.71875 
Q 8.5 49.078125 8.5 55.328125 
Q 8.5 64.0625 14.71875 69.140625 
Q 20.953125 74.21875 31.78125 74.21875 
Q 42.671875 74.21875 48.875 69.140625 
Q 55.078125 64.0625 55.078125 55.328125 
Q 55.078125 49.078125 51.53125 44.71875 
Q 48 40.375 41.703125 38.8125 
Q 48.828125 37.15625 52.796875 32.3125 
Q 56.78125 27.484375 56.78125 20.515625 
Q 56.78125 9.90625 50.3125 4.234375 
Q 43.84375 -1.421875 31.78125 -1.421875 
Q 19.734375 -1.421875 13.25 4.234375 
Q 6.78125 9.90625 6.78125 20.515625 
Q 6.78125 27.484375 10.78125 32.3125 
Q 14.796875 37.15625 21.921875 38.8125 
z
M 18.3125 54.390625 
Q 18.3125 48.734375 21.84375 45.5625 
Q 25.390625 42.390625 31.78125 42.390625 
Q 38.140625 42.390625 41.71875 45.5625 
Q 45.3125 48.734375 45.3125 54.390625 
Q 45.3125 60.0625 41.71875 63.234375 
Q 38.140625 66.40625 31.78125 66.40625 
Q 25.390625 66.40625 21.84375 63.234375 
Q 18.3125 60.0625 18.3125 54.390625 
z
" id="DejaVuSans-56"/>
       </defs>
       <use xlink:href="#DejaVuSans-56"/>
       <use x="63.623047" xlink:href="#DejaVuSans-48"/>
      </g>
     </g>
    </g>
    <g id="xtick_6">
     <g id="line2d_6">
      <g>
       <use style="stroke:#000000;stroke-width:0.8;" x="369.97202" xlink:href="#m2bea4c2f84" y="307.584"/>
      </g>
     </g>
     <g id="text_6">
      <!-- 100 -->
      <g transform="translate(360.42827 322.182437)scale(0.1 -0.1)">
       <defs>
        <path d="M 12.40625 8.296875 
L 28.515625 8.296875 
L 28.515625 63.921875 
L 10.984375 60.40625 
L 10.984375 69.390625 
L 28.421875 72.90625 
L 38.28125 72.90625 
L 38.28125 8.296875 
L 54.390625 8.296875 
L 54.390625 0 
L 12.40625 0 
z
" id="DejaVuSans-49"/>
       </defs>
       <use xlink:href="#DejaVuSans-49"/>
       <use x="63.623047" xlink:href="#DejaVuSans-48"/>
       <use x="127.246094" xlink:href="#DejaVuSans-48"/>
      </g>
     </g>
    </g>
   </g>
   <g id="matplotlib.axis_2">
    <g id="ytick_1">
     <g id="line2d_7">
      <defs>
       <path d="M 0 0 
L -3.5 0 
" id="m8e2a7f8179" style="stroke:#000000;stroke-width:0.8;"/>
      </defs>
      <g>
       <use style="stroke:#000000;stroke-width:0.8;" x="57.6" xlink:href="#m8e2a7f8179" y="278.859166"/>
      </g>
     </g>
     <g id="text_7">
      <!-- 10 -->
      <g transform="translate(37.875 282.658384)scale(0.1 -0.1)">
       <use xlink:href="#DejaVuSans-49"/>
       <use x="63.623047" xlink:href="#DejaVuSans-48"/>
      </g>
     </g>
    </g>
    <g id="ytick_2">
     <g id="line2d_8">
      <g>
       <use style="stroke:#000000;stroke-width:0.8;" x="57.6" xlink:href="#m8e2a7f8179" y="247.633356"/>
      </g>
     </g>
     <g id="text_8">
      <!-- 20 -->
      <g transform="translate(37.875 251.432575)scale(0.1 -0.1)">
       <use xlink:href="#DejaVuSans-50"/>
       <use x="63.623047" xlink:href="#DejaVuSans-48"/>
      </g>
     </g>
    </g>
    <g id="ytick_3">
     <g id="line2d_9">
      <g>
       <use style="stroke:#000000;stroke-width:0.8;" x="57.6" xlink:href="#m8e2a7f8179" y="216.407547"/>
      </g>
     </g>
     <g id="text_9">
      <!-- 30 -->
      <g transform="translate(37.875 220.206766)scale(0.1 -0.1)">
       <defs>
        <path d="M 40.578125 39.3125 
Q 47.65625 37.796875 51.625 33 
Q 55.609375 28.21875 55.609375 21.1875 
Q 55.609375 10.40625 48.1875 4.484375 
Q 40.765625 -1.421875 27.09375 -1.421875 
Q 22.515625 -1.421875 17.65625 -0.515625 
Q 12.796875 0.390625 7.625 2.203125 
L 7.625 11.71875 
Q 11.71875 9.328125 16.59375 8.109375 
Q 21.484375 6.890625 26.8125 6.890625 
Q 36.078125 6.890625 40.9375 10.546875 
Q 45.796875 14.203125 45.796875 21.1875 
Q 45.796875 27.640625 41.28125 31.265625 
Q 36.765625 34.90625 28.71875 34.90625 
L 20.21875 34.90625 
L 20.21875 43.015625 
L 29.109375 43.015625 
Q 36.375 43.015625 40.234375 45.921875 
Q 44.09375 48.828125 44.09375 54.296875 
Q 44.09375 59.90625 40.109375 62.90625 
Q 36.140625 65.921875 28.71875 65.921875 
Q 24.65625 65.921875 20.015625 65.03125 
Q 15.375 64.15625 9.8125 62.3125 
L 9.8125 71.09375 
Q 15.4375 72.65625 20.34375 73.4375 
Q 25.25 74.21875 29.59375 74.21875 
Q 40.828125 74.21875 47.359375 69.109375 
Q 53.90625 64.015625 53.90625 55.328125 
Q 53.90625 49.265625 50.4375 45.09375 
Q 46.96875 40.921875 40.578125 39.3125 
z
" id="DejaVuSans-51"/>
       </defs>
       <use xlink:href="#DejaVuSans-51"/>
       <use x="63.623047" xlink:href="#DejaVuSans-48"/>
      </g>
     </g>
    </g>
    <g id="ytick_4">
     <g id="line2d_10">
      <g>
       <use style="stroke:#000000;stroke-width:0.8;" x="57.6" xlink:href="#m8e2a7f8179" y="185.181738"/>
      </g>
     </g>
     <g id="text_10">
      <!-- 40 -->
      <g transform="translate(37.875 188.980957)scale(0.1 -0.1)">
       <use xlink:href="#DejaVuSans-52"/>
       <use x="63.623047" xlink:href="#DejaVuSans-48"/>
      </g>
     </g>
    </g>
    <g id="ytick_5">
     <g id="line2d_11">
      <g>
       <use style="stroke:#000000;stroke-width:0.8;" x="57.6" xlink:href="#m8e2a7f8179" y="153.955929"/>
      </g>
     </g>
     <g id="text_11">
      <!-- 50 -->
      <g transform="translate(37.875 157.755148)scale(0.1 -0.1)">
       <defs>
        <path d="M 10.796875 72.90625 
L 49.515625 72.90625 
L 49.515625 64.59375 
L 19.828125 64.59375 
L 19.828125 46.734375 
Q 21.96875 47.46875 24.109375 47.828125 
Q 26.265625 48.1875 28.421875 48.1875 
Q 40.625 48.1875 47.75 41.5 
Q 54.890625 34.8125 54.890625 23.390625 
Q 54.890625 11.625 47.5625 5.09375 
Q 40.234375 -1.421875 26.90625 -1.421875 
Q 22.3125 -1.421875 17.546875 -0.640625 
Q 12.796875 0.140625 7.71875 1.703125 
L 7.71875 11.625 
Q 12.109375 9.234375 16.796875 8.0625 
Q 21.484375 6.890625 26.703125 6.890625 
Q 35.15625 6.890625 40.078125 11.328125 
Q 45.015625 15.765625 45.015625 23.390625 
Q 45.015625 31 40.078125 35.4375 
Q 35.15625 39.890625 26.703125 39.890625 
Q 22.75 39.890625 18.8125 39.015625 
Q 14.890625 38.140625 10.796875 36.28125 
z
" id="DejaVuSans-53"/>
       </defs>
       <use xlink:href="#DejaVuSans-53"/>
       <use x="63.623047" xlink:href="#DejaVuSans-48"/>
      </g>
     </g>
    </g>
    <g id="ytick_6">
     <g id="line2d_12">
      <g>
       <use style="stroke:#000000;stroke-width:0.8;" x="57.6" xlink:href="#m8e2a7f8179" y="122.73012"/>
      </g>
     </g>
     <g id="text_12">
      <!-- 60 -->
      <g transform="translate(37.875 126.529338)scale(0.1 -0.1)">
       <use xlink:href="#DejaVuSans-54"/>
       <use x="63.623047" xlink:href="#DejaVuSans-48"/>
      </g>
     </g>
    </g>
    <g id="ytick_7">
     <g id="line2d_13">
      <g>
       <use style="stroke:#000000;stroke-width:0.8;" x="57.6" xlink:href="#m8e2a7f8179" y="91.50431"/>
      </g>
     </g>
     <g id="text_13">
      <!-- 70 -->
      <g transform="translate(37.875 95.303529)scale(0.1 -0.1)">
       <defs>
        <path d="M 8.203125 72.90625 
L 55.078125 72.90625 
L 55.078125 68.703125 
L 28.609375 0 
L 18.3125 0 
L 43.21875 64.59375 
L 8.203125 64.59375 
z
" id="DejaVuSans-55"/>
       </defs>
       <use xlink:href="#DejaVuSans-55"/>
       <use x="63.623047" xlink:href="#DejaVuSans-48"/>
      </g>
     </g>
    </g>
    <g id="ytick_8">
     <g id="line2d_14">
      <g>
       <use style="stroke:#000000;stroke-width:0.8;" x="57.6" xlink:href="#m8e2a7f8179" y="60.278501"/>
      </g>
     </g>
     <g id="text_14">
      <!-- 80 -->
      <g transform="translate(37.875 64.07772)scale(0.1 -0.1)">
       <use xlink:href="#DejaVuSans-56"/>
       <use x="63.623047" xlink:href="#DejaVuSans-48"/>
      </g>
     </g>
    </g>
   </g>
   <g id="line2d_15">
    <path clip-path="url(#p3ae42e93fc)" d="M 88.939737 278.859166 
L 87.940511 275.664765 
L 87.184847 272.470365 
L 86.669621 269.28221 
L 86.379221 266.109668 
L 86.310524 262.955861 
L 86.45104 259.82079 
L 86.797647 256.720067 
L 87.33473 253.647447 
L 88.062292 250.618544 
L 88.964718 247.633356 
L 90.038886 244.69813 
L 91.272305 241.819111 
L 92.658731 238.99942 
L 94.188796 236.245304 
L 95.853131 233.566129 
L 97.648615 230.958774 
L 99.559635 228.438851 
L 101.583067 226.003238 
L 103.709545 223.661303 
L 105.9297 221.416167 
L 108.234165 219.277199 
L 110.616694 217.231909 
L 113.074165 215.283418 
L 118.179585 211.648734 
L 123.494218 208.332553 
L 128.974347 205.294282 
L 134.563767 202.499572 
L 143.063432 198.602591 
L 154.451485 193.484681 
L 160.093989 190.7493 
L 165.652183 187.782848 
L 171.060493 184.538486 
L 176.2471 180.988112 
L 178.732674 179.083337 
L 181.137061 177.091131 
L 183.447771 175.005247 
L 185.658558 172.81944 
L 187.760055 170.530588 
L 189.758507 168.151182 
L 191.666404 165.687465 
L 195.235514 160.55082 
L 198.536082 155.201839 
L 201.639928 149.715464 
L 213.668109 127.757475 
L 217.034252 122.508416 
L 220.728265 117.446713 
L 222.714226 115.001732 
L 224.790743 112.62857 
L 226.954691 110.333473 
L 229.206072 108.122686 
L 231.544885 106.008699 
L 233.961763 103.997757 
L 236.46295 102.10235 
L 239.039079 100.325601 
L 241.696396 98.680001 
L 244.425531 97.168672 
L 247.220241 95.785369 
L 250.077403 94.520724 
L 255.935365 92.306814 
L 261.940088 90.445755 
L 268.032243 88.856362 
L 277.200141 86.814194 
L 286.374283 85.021832 
L 311.048918 80.50658 
L 317.275344 79.588542 
L 320.39168 79.257548 
L 323.508016 79.038967 
L 326.621229 78.954658 
L 329.728197 79.0296 
L 332.832042 79.276283 
L 335.929643 79.71969 
L 339.008507 80.353574 
L 342.056146 81.174813 
L 345.060069 82.170916 
L 348.014031 83.335639 
L 350.902418 84.668981 
L 353.712741 86.155329 
L 356.435632 87.794684 
L 359.0586 89.577678 
L 361.569155 91.498065 
L 363.957929 93.546478 
L 366.224923 95.719795 
L 368.370136 98.005524 
L 370.396691 100.400543 
L 372.304588 102.895486 
L 374.096949 105.484105 
L 375.773775 108.157034 
L 377.335066 110.908028 
L 378.783943 113.730841 
L 380.120408 116.616106 
L 381.34446 119.557577 
L 382.449853 122.545887 
L 383.424098 125.577913 
L 384.26095 128.644288 
L 384.944795 131.73252 
L 385.469389 134.845734 
L 385.822241 137.965192 
L 385.997105 141.090895 
L 385.981492 144.213476 
L 385.766034 147.326689 
L 385.341363 150.421167 
L 384.71997 153.487542 
L 383.904976 156.52269 
L 382.911995 159.514123 
L 381.750395 162.458717 
L 380.426421 165.343981 
L 378.955685 168.160549 
L 377.344433 170.905298 
L 375.602033 173.56886 
L 373.740975 176.144989 
L 371.767504 178.621195 
L 369.69411 181.000602 
L 367.520794 183.283209 
L 365.2538 185.465893 
L 362.899374 187.548654 
L 360.466884 189.531493 
L 357.956329 191.414409 
L 355.373954 193.197403 
L 352.732251 194.880474 
L 350.028096 196.4605 
L 344.466779 199.320784 
L 338.72123 201.793868 
L 332.819552 203.901611 
L 326.792971 205.662746 
L 320.66959 207.102256 
L 314.477512 208.235753 
L 308.24484 209.085095 
L 302.002801 209.675263 
L 295.776375 210.021869 
L 289.593664 210.146772 
L 289.593664 210.146772 
" style="fill:none;stroke:#fea952;stroke-linecap:square;"/>
   </g>
   <g id="line2d_16">
    <path clip-path="url(#p3ae42e93fc)" d="M 77.01901 282.588034 
L 75.785653 278.540108 
L 74.854498 274.463027 
L 74.231297 270.420757 
L 73.891859 266.38167 
L 73.832727 262.396597 
L 74.038028 258.433232 
L 74.493873 254.569407 
L 75.189867 250.730176 
L 76.106331 247.004242 
L 77.235162 243.340838 
L 78.557823 239.779454 
L 80.06363 236.307869 
L 81.740224 232.933583 
L 83.578999 229.65437 
L 85.565976 226.48216 
L 87.696455 223.411411 
L 89.952198 220.457289 
L 92.335957 217.606862 
L 94.828281 214.878857 
L 97.432549 212.261572 
L 100.098412 209.799978 
L 102.856589 207.444725 
L 105.66789 205.22582 
L 108.517386 203.135474 
L 114.350399 199.265957 
L 120.290251 195.786061 
L 126.275841 192.646757 
L 132.194493 189.812439 
L 154.330373 179.668284 
L 159.375579 176.984124 
L 164.180813 174.113603 
L 168.649685 171.074108 
L 172.76764 167.819617 
L 174.666102 166.123216 
L 176.458041 164.372034 
L 178.195659 162.4975 
L 181.52037 158.402812 
L 184.685136 153.865185 
L 187.712822 148.967641 
L 190.660096 143.76135 
L 201.334078 124.073173 
L 204.889762 118.236284 
L 208.870625 112.421091 
L 211.033214 109.571805 
L 213.3143 106.776796 
L 215.702915 104.060048 
L 218.203408 101.421502 
L 220.830684 98.856562 
L 223.556098 96.407268 
L 226.417949 94.042905 
L 229.37149 91.820357 
L 232.463022 89.706578 
L 235.645425 87.753248 
L 238.884761 85.974564 
L 242.164819 84.363859 
L 245.464419 82.91346 
L 248.767029 81.60863 
L 255.389256 79.355872 
L 261.943181 77.505459 
L 268.386313 75.943812 
L 277.865415 73.93673 
L 290.271596 71.605927 
L 312.47397 67.637499 
L 319.517752 66.797835 
L 323.169886 66.553221 
L 326.922416 66.467966 
L 330.717768 66.578538 
L 334.601931 66.911993 
L 338.448353 67.485954 
L 342.258319 68.293437 
L 345.987443 69.319304 
L 349.641623 70.551211 
L 353.248981 71.995291 
L 356.741977 73.627797 
L 360.155194 75.454722 
L 363.457384 77.464961 
L 366.647222 79.656942 
L 369.699791 82.016454 
L 372.601669 84.530163 
L 375.332421 87.172183 
L 377.905078 89.937496 
L 380.318477 92.813295 
L 382.573588 95.785225 
L 384.677597 98.846479 
L 386.636577 101.991994 
L 388.447125 105.204493 
L 390.117459 108.481118 
L 391.652109 111.817351 
L 393.059016 115.224293 
L 394.34138 118.724923 
L 395.473744 122.289415 
L 396.45587 125.943896 
L 397.261482 129.657091 
L 397.880567 133.441867 
L 398.293064 137.267523 
L 398.487273 141.153346 
L 398.442011 145.075839 
L 398.140375 149.024884 
L 397.582861 152.901878 
L 396.782977 156.726683 
L 395.759278 160.457626 
L 394.530931 164.097627 
L 393.102581 167.667945 
L 391.498182 171.125356 
L 389.727189 174.483753 
L 387.796943 177.742931 
L 385.726708 180.88317 
L 383.508683 183.929593 
L 381.184253 186.826866 
L 378.740004 189.613382 
L 376.183889 192.280929 
L 373.529562 194.821102 
L 370.79111 197.230012 
L 367.961078 199.523752 
L 365.053014 201.692796 
L 362.085342 203.731418 
L 359.033504 205.664833 
L 355.93563 207.465464 
L 352.786706 209.147012 
L 349.593923 210.710279 
L 346.364028 212.156789 
L 339.806006 214.719803 
L 333.159713 216.858844 
L 326.443867 218.616173 
L 319.686957 220.016479 
L 312.915059 221.088453 
L 306.168804 221.859368 
L 299.472681 222.35152 
L 292.827499 222.598702 
L 289.745511 222.636173 
L 289.745511 222.636173 
" style="fill:none;stroke:#ffffff;stroke-linecap:square;"/>
   </g>
   <g id="line2d_17">
    <path clip-path="url(#p3ae42e93fc)" d="M 100.860464 275.130297 
L 100.09537 272.789422 
L 99.515195 270.477703 
L 99.107944 268.143663 
L 98.866582 265.837666 
L 98.788321 263.515125 
L 98.864052 261.208347 
L 99.10142 258.870727 
L 99.479594 256.564719 
L 100.018253 254.232846 
L 100.694273 251.925875 
L 101.519948 249.616807 
L 102.48098 247.330353 
L 103.577238 245.065258 
L 104.798592 242.836238 
L 106.140287 240.650099 
L 107.600776 238.506137 
L 109.167072 236.420414 
L 110.830178 234.399615 
L 112.590808 232.443748 
L 114.426851 230.570762 
L 118.376799 227.019092 
L 122.677035 223.715491 
L 127.279687 220.640387 
L 132.143965 217.775199 
L 137.237293 215.094013 
L 142.578667 212.532511 
L 165.857604 201.830316 
L 171.928786 198.581572 
L 177.940172 194.96337 
L 180.915854 192.991024 
L 183.844515 190.902116 
L 186.701724 188.701156 
L 189.506482 186.362645 
L 192.22944 183.887278 
L 194.859076 181.266846 
L 197.324452 178.563677 
L 199.633925 175.798685 
L 201.812439 172.972118 
L 205.785892 167.236454 
L 209.359342 161.436036 
L 212.61976 155.669578 
L 224.267609 134.364955 
L 227.245005 129.702073 
L 230.423316 125.32162 
L 233.87857 121.197093 
L 237.58146 117.38881 
L 241.505576 113.952608 
L 245.615137 110.944625 
L 247.747367 109.606755 
L 249.966302 108.36278 
L 252.275664 107.206879 
L 257.202022 105.122107 
L 262.458093 103.31551 
L 268.013537 101.737329 
L 273.792187 100.332524 
L 282.64888 98.455115 
L 294.742468 96.183234 
L 315.850293 92.388927 
L 321.265608 91.717261 
L 326.320042 91.441349 
L 328.738626 91.480661 
L 331.062154 91.640574 
L 333.410932 91.953425 
L 335.758696 92.413711 
L 338.12485 93.030322 
L 340.478515 93.790621 
L 342.779081 94.675986 
L 345.062859 95.710164 
L 347.270288 96.855936 
L 349.413879 98.124407 
L 351.469977 99.498414 
L 353.438519 100.979676 
L 355.314189 102.562794 
L 357.117424 104.267406 
L 358.835194 106.073552 
L 360.474904 107.987792 
L 362.035587 110.005747 
L 363.516302 112.121731 
L 364.910974 114.322075 
L 366.223006 116.611563 
L 368.588706 121.414861 
L 370.558326 126.366852 
L 371.374453 128.866411 
L 372.06603 131.34468 
L 372.628108 133.80795 
L 373.058211 136.249601 
L 373.351417 138.66286 
L 373.506938 141.028445 
L 373.520974 143.351113 
L 373.391693 145.628495 
L 373.099866 147.940456 
L 372.656962 150.248401 
L 372.050674 152.587755 
L 371.293059 154.930619 
L 370.398209 157.249488 
L 369.35466 159.562607 
L 368.184182 161.837346 
L 366.891923 164.067665 
L 365.477358 166.254549 
L 363.973267 168.360384 
L 362.350755 170.415525 
L 360.648216 172.387822 
L 358.857699 174.285488 
L 356.978038 176.110683 
L 352.972689 179.539234 
L 348.662567 182.663389 
L 344.120561 185.455537 
L 339.339635 187.93129 
L 334.33695 190.098302 
L 329.150695 191.962278 
L 323.77822 193.541712 
L 318.277272 194.843178 
L 312.655606 195.87902 
L 306.940527 196.66306 
L 301.204257 197.210492 
L 295.42432 197.536508 
L 289.441818 197.657372 
L 289.441818 197.657372 
" style="fill:none;stroke:#ffffff;stroke-linecap:square;"/>
   </g>
   <g id="patch_3">
    <path d="M 57.6 307.584 
L 57.6 41.472 
" style="fill:none;stroke:#000000;stroke-linecap:square;stroke-linejoin:miter;stroke-width:0.8;"/>
   </g>
   <g id="patch_4">
    <path d="M 414.72 307.584 
L 414.72 41.472 
" style="fill:none;stroke:#000000;stroke-linecap:square;stroke-linejoin:miter;stroke-width:0.8;"/>
   </g>
   <g id="patch_5">
    <path d="M 57.6 307.584 
L 414.72 307.584 
" style="fill:none;stroke:#000000;stroke-linecap:square;stroke-linejoin:miter;stroke-width:0.8;"/>
   </g>
   <g id="patch_6">
    <path d="M 57.6 41.472 
L 414.72 41.472 
" style="fill:none;stroke:#000000;stroke-linecap:square;stroke-linejoin:miter;stroke-width:0.8;"/>
   </g>
  </g>
 </g>
 <defs>
  <clipPath id="p3ae42e93fc">
   <rect height="266.112" width="357.12" x="57.6" y="41.472"/>
  </clipPath>
 </defs>
</svg>
