<?xml version="1.0" encoding="utf-8" standalone="no"?>
<!DOCTYPE svg PUBLIC "-//W3C//DTD SVG 1.1//EN"
  "http://www.w3.org/Graphics/SVG/1.1/DTD/svg11.dtd">
<!-- Created with matplotlib (https://matplotlib.org/) -->
<svg height="345.6pt" version="1.1" viewBox="0 0 460.8 345.6" width="460.8pt" xmlns="http://www.w3.org/2000/svg" xmlns:xlink="http://www.w3.org/1999/xlink">
 <metadata>
  <rdf:RDF xmlns:cc="http://creativecommons.org/ns#" xmlns:dc="http://purl.org/dc/elements/1.1/" xmlns:rdf="http://www.w3.org/1999/02/22-rdf-syntax-ns#">
   <cc:Work>
    <dc:type rdf:resource="http://purl.org/dc/dcmitype/StillImage"/>
    <dc:date>2021-01-22T09:25:36.318002</dc:date>
    <dc:format>image/svg+xml</dc:format>
    <dc:creator>
     <cc:Agent>
      <dc:title>Matplotlib v3.3.3, https://matplotlib.org/</dc:title>
     </cc:Agent>
    </dc:creator>
   </cc:Work>
  </rdf:RDF>
 </metadata>
 <defs>
  <style type="text/css">*{stroke-linecap:butt;stroke-linejoin:round;}</style>
 </defs>
 <g id="figure_1">
  <g id="patch_1">
   <path d="M 0 345.6 
L 460.8 345.6 
L 460.8 0 
L 0 0 
z
" style="fill:#ffffff;"/>
  </g>
  <g id="axes_1">
   <g id="patch_2">
    <path d="M 57.6 307.584 
L 414.72 307.584 
L 414.72 41.472 
L 57.6 41.472 
z
" style="fill:#7d9051;"/>
   </g>
   <g id="matplotlib.axis_1">
    <g id="xtick_1">
     <g id="line2d_1">
      <defs>
       <path d="M 0 0 
L 0 3.5 
" id="mb864a77c52" style="stroke:#000000;stroke-width:0.8;"/>
      </defs>
      <g>
       <use style="stroke:#000000;stroke-width:0.8;" x="101.375956" xlink:href="#mb864a77c52" y="307.584"/>
      </g>
     </g>
     <g id="text_1">
      <!-- 0 -->
      <g transform="translate(98.194706 322.182437)scale(0.1 -0.1)">
       <defs>
        <path d="M 31.78125 66.40625 
Q 24.171875 66.40625 20.328125 58.90625 
Q 16.5 51.421875 16.5 36.375 
Q 16.5 21.390625 20.328125 13.890625 
Q 24.171875 6.390625 31.78125 6.390625 
Q 39.453125 6.390625 43.28125 13.890625 
Q 47.125 21.390625 47.125 36.375 
Q 47.125 51.421875 43.28125 58.90625 
Q 39.453125 66.40625 31.78125 66.40625 
z
M 31.78125 74.21875 
Q 44.046875 74.21875 50.515625 64.515625 
Q 56.984375 54.828125 56.984375 36.375 
Q 56.984375 17.96875 50.515625 8.265625 
Q 44.046875 -1.421875 31.78125 -1.421875 
Q 19.53125 -1.421875 13.0625 8.265625 
Q 6.59375 17.96875 6.59375 36.375 
Q 6.59375 54.828125 13.0625 64.515625 
Q 19.53125 74.21875 31.78125 74.21875 
z
" id="DejaVuSans-48"/>
       </defs>
       <use xlink:href="#DejaVuSans-48"/>
      </g>
     </g>
    </g>
    <g id="xtick_2">
     <g id="line2d_2">
      <g>
       <use style="stroke:#000000;stroke-width:0.8;" x="147.364269" xlink:href="#mb864a77c52" y="307.584"/>
      </g>
     </g>
     <g id="text_2">
      <!-- 20 -->
      <g transform="translate(141.001769 322.182437)scale(0.1 -0.1)">
       <defs>
        <path d="M 19.1875 8.296875 
L 53.609375 8.296875 
L 53.609375 0 
L 7.328125 0 
L 7.328125 8.296875 
Q 12.9375 14.109375 22.625 23.890625 
Q 32.328125 33.6875 34.8125 36.53125 
Q 39.546875 41.84375 41.421875 45.53125 
Q 43.3125 49.21875 43.3125 52.78125 
Q 43.3125 58.59375 39.234375 62.25 
Q 35.15625 65.921875 28.609375 65.921875 
Q 23.96875 65.921875 18.8125 64.3125 
Q 13.671875 62.703125 7.8125 59.421875 
L 7.8125 69.390625 
Q 13.765625 71.78125 18.9375 73 
Q 24.125 74.21875 28.421875 74.21875 
Q 39.75 74.21875 46.484375 68.546875 
Q 53.21875 62.890625 53.21875 53.421875 
Q 53.21875 48.921875 51.53125 44.890625 
Q 49.859375 40.875 45.40625 35.40625 
Q 44.1875 33.984375 37.640625 27.21875 
Q 31.109375 20.453125 19.1875 8.296875 
z
" id="DejaVuSans-50"/>
       </defs>
       <use xlink:href="#DejaVuSans-50"/>
       <use x="63.623047" xlink:href="#DejaVuSans-48"/>
      </g>
     </g>
    </g>
    <g id="xtick_3">
     <g id="line2d_3">
      <g>
       <use style="stroke:#000000;stroke-width:0.8;" x="193.352583" xlink:href="#mb864a77c52" y="307.584"/>
      </g>
     </g>
     <g id="text_3">
      <!-- 40 -->
      <g transform="translate(186.990083 322.182437)scale(0.1 -0.1)">
       <defs>
        <path d="M 37.796875 64.3125 
L 12.890625 25.390625 
L 37.796875 25.390625 
z
M 35.203125 72.90625 
L 47.609375 72.90625 
L 47.609375 25.390625 
L 58.015625 25.390625 
L 58.015625 17.1875 
L 47.609375 17.1875 
L 47.609375 0 
L 37.796875 0 
L 37.796875 17.1875 
L 4.890625 17.1875 
L 4.890625 26.703125 
z
" id="DejaVuSans-52"/>
       </defs>
       <use xlink:href="#DejaVuSans-52"/>
       <use x="63.623047" xlink:href="#DejaVuSans-48"/>
      </g>
     </g>
    </g>
    <g id="xtick_4">
     <g id="line2d_4">
      <g>
       <use style="stroke:#000000;stroke-width:0.8;" x="239.340896" xlink:href="#mb864a77c52" y="307.584"/>
      </g>
     </g>
     <g id="text_4">
      <!-- 60 -->
      <g transform="translate(232.978396 322.182437)scale(0.1 -0.1)">
       <defs>
        <path d="M 33.015625 40.375 
Q 26.375 40.375 22.484375 35.828125 
Q 18.609375 31.296875 18.609375 23.390625 
Q 18.609375 15.53125 22.484375 10.953125 
Q 26.375 6.390625 33.015625 6.390625 
Q 39.65625 6.390625 43.53125 10.953125 
Q 47.40625 15.53125 47.40625 23.390625 
Q 47.40625 31.296875 43.53125 35.828125 
Q 39.65625 40.375 33.015625 40.375 
z
M 52.59375 71.296875 
L 52.59375 62.3125 
Q 48.875 64.0625 45.09375 64.984375 
Q 41.3125 65.921875 37.59375 65.921875 
Q 27.828125 65.921875 22.671875 59.328125 
Q 17.53125 52.734375 16.796875 39.40625 
Q 19.671875 43.65625 24.015625 45.921875 
Q 28.375 48.1875 33.59375 48.1875 
Q 44.578125 48.1875 50.953125 41.515625 
Q 57.328125 34.859375 57.328125 23.390625 
Q 57.328125 12.15625 50.6875 5.359375 
Q 44.046875 -1.421875 33.015625 -1.421875 
Q 20.359375 -1.421875 13.671875 8.265625 
Q 6.984375 17.96875 6.984375 36.375 
Q 6.984375 53.65625 15.1875 63.9375 
Q 23.390625 74.21875 37.203125 74.21875 
Q 40.921875 74.21875 44.703125 73.484375 
Q 48.484375 72.75 52.59375 71.296875 
z
" id="DejaVuSans-54"/>
       </defs>
       <use xlink:href="#DejaVuSans-54"/>
       <use x="63.623047" xlink:href="#DejaVuSans-48"/>
      </g>
     </g>
    </g>
    <g id="xtick_5">
     <g id="line2d_5">
      <g>
       <use style="stroke:#000000;stroke-width:0.8;" x="285.32921" xlink:href="#mb864a77c52" y="307.584"/>
      </g>
     </g>
     <g id="text_5">
      <!-- 80 -->
      <g transform="translate(278.96671 322.182437)scale(0.1 -0.1)">
       <defs>
        <path d="M 31.78125 34.625 
Q 24.75 34.625 20.71875 30.859375 
Q 16.703125 27.09375 16.703125 20.515625 
Q 16.703125 13.921875 20.71875 10.15625 
Q 24.75 6.390625 31.78125 6.390625 
Q 38.8125 6.390625 42.859375 10.171875 
Q 46.921875 13.96875 46.921875 20.515625 
Q 46.921875 27.09375 42.890625 30.859375 
Q 38.875 34.625 31.78125 34.625 
z
M 21.921875 38.8125 
Q 15.578125 40.375 12.03125 44.71875 
Q 8.5 49.078125 8.5 55.328125 
Q 8.5 64.0625 14.71875 69.140625 
Q 20.953125 74.21875 31.78125 74.21875 
Q 42.671875 74.21875 48.875 69.140625 
Q 55.078125 64.0625 55.078125 55.328125 
Q 55.078125 49.078125 51.53125 44.71875 
Q 48 40.375 41.703125 38.8125 
Q 48.828125 37.15625 52.796875 32.3125 
Q 56.78125 27.484375 56.78125 20.515625 
Q 56.78125 9.90625 50.3125 4.234375 
Q 43.84375 -1.421875 31.78125 -1.421875 
Q 19.734375 -1.421875 13.25 4.234375 
Q 6.78125 9.90625 6.78125 20.515625 
Q 6.78125 27.484375 10.78125 32.3125 
Q 14.796875 37.15625 21.921875 38.8125 
z
M 18.3125 54.390625 
Q 18.3125 48.734375 21.84375 45.5625 
Q 25.390625 42.390625 31.78125 42.390625 
Q 38.140625 42.390625 41.71875 45.5625 
Q 45.3125 48.734375 45.3125 54.390625 
Q 45.3125 60.0625 41.71875 63.234375 
Q 38.140625 66.40625 31.78125 66.40625 
Q 25.390625 66.40625 21.84375 63.234375 
Q 18.3125 60.0625 18.3125 54.390625 
z
" id="DejaVuSans-56"/>
       </defs>
       <use xlink:href="#DejaVuSans-56"/>
       <use x="63.623047" xlink:href="#DejaVuSans-48"/>
      </g>
     </g>
    </g>
    <g id="xtick_6">
     <g id="line2d_6">
      <g>
       <use style="stroke:#000000;stroke-width:0.8;" x="331.317523" xlink:href="#mb864a77c52" y="307.584"/>
      </g>
     </g>
     <g id="text_6">
      <!-- 100 -->
      <g transform="translate(321.773773 322.182437)scale(0.1 -0.1)">
       <defs>
        <path d="M 12.40625 8.296875 
L 28.515625 8.296875 
L 28.515625 63.921875 
L 10.984375 60.40625 
L 10.984375 69.390625 
L 28.421875 72.90625 
L 38.28125 72.90625 
L 38.28125 8.296875 
L 54.390625 8.296875 
L 54.390625 0 
L 12.40625 0 
z
" id="DejaVuSans-49"/>
       </defs>
       <use xlink:href="#DejaVuSans-49"/>
       <use x="63.623047" xlink:href="#DejaVuSans-48"/>
       <use x="127.246094" xlink:href="#DejaVuSans-48"/>
      </g>
     </g>
    </g>
    <g id="xtick_7">
     <g id="line2d_7">
      <g>
       <use style="stroke:#000000;stroke-width:0.8;" x="377.305837" xlink:href="#mb864a77c52" y="307.584"/>
      </g>
     </g>
     <g id="text_7">
      <!-- 120 -->
      <g transform="translate(367.762087 322.182437)scale(0.1 -0.1)">
       <use xlink:href="#DejaVuSans-49"/>
       <use x="63.623047" xlink:href="#DejaVuSans-50"/>
       <use x="127.246094" xlink:href="#DejaVuSans-48"/>
      </g>
     </g>
    </g>
   </g>
   <g id="matplotlib.axis_2">
    <g id="ytick_1">
     <g id="line2d_8">
      <defs>
       <path d="M 0 0 
L -3.5 0 
" id="m0c492cb46f" style="stroke:#000000;stroke-width:0.8;"/>
      </defs>
      <g>
       <use style="stroke:#000000;stroke-width:0.8;" x="57.6" xlink:href="#m0c492cb46f" y="270.992612"/>
      </g>
     </g>
     <g id="text_8">
      <!-- 20 -->
      <g transform="translate(37.875 274.791831)scale(0.1 -0.1)">
       <use xlink:href="#DejaVuSans-50"/>
       <use x="63.623047" xlink:href="#DejaVuSans-48"/>
      </g>
     </g>
    </g>
    <g id="ytick_2">
     <g id="line2d_9">
      <g>
       <use style="stroke:#000000;stroke-width:0.8;" x="57.6" xlink:href="#m0c492cb46f" y="225.004299"/>
      </g>
     </g>
     <g id="text_9">
      <!-- 40 -->
      <g transform="translate(37.875 228.803517)scale(0.1 -0.1)">
       <use xlink:href="#DejaVuSans-52"/>
       <use x="63.623047" xlink:href="#DejaVuSans-48"/>
      </g>
     </g>
    </g>
    <g id="ytick_3">
     <g id="line2d_10">
      <g>
       <use style="stroke:#000000;stroke-width:0.8;" x="57.6" xlink:href="#m0c492cb46f" y="179.015985"/>
      </g>
     </g>
     <g id="text_10">
      <!-- 60 -->
      <g transform="translate(37.875 182.815204)scale(0.1 -0.1)">
       <use xlink:href="#DejaVuSans-54"/>
       <use x="63.623047" xlink:href="#DejaVuSans-48"/>
      </g>
     </g>
    </g>
    <g id="ytick_4">
     <g id="line2d_11">
      <g>
       <use style="stroke:#000000;stroke-width:0.8;" x="57.6" xlink:href="#m0c492cb46f" y="133.027672"/>
      </g>
     </g>
     <g id="text_11">
      <!-- 80 -->
      <g transform="translate(37.875 136.82689)scale(0.1 -0.1)">
       <use xlink:href="#DejaVuSans-56"/>
       <use x="63.623047" xlink:href="#DejaVuSans-48"/>
      </g>
     </g>
    </g>
    <g id="ytick_5">
     <g id="line2d_12">
      <g>
       <use style="stroke:#000000;stroke-width:0.8;" x="57.6" xlink:href="#m0c492cb46f" y="87.039358"/>
      </g>
     </g>
     <g id="text_12">
      <!-- 100 -->
      <g transform="translate(31.5125 90.838577)scale(0.1 -0.1)">
       <use xlink:href="#DejaVuSans-49"/>
       <use x="63.623047" xlink:href="#DejaVuSans-48"/>
       <use x="127.246094" xlink:href="#DejaVuSans-48"/>
      </g>
     </g>
    </g>
   </g>
   <g id="line2d_13">
    <path clip-path="url(#pfa0470311b)" d="M 124.370113 293.986769 
L 123.723977 289.57649 
L 123.385963 285.014449 
L 123.376765 280.358132 
L 123.705581 275.665025 
L 124.388508 270.992612 
L 125.44164 266.39838 
L 126.878775 261.937513 
L 127.745655 259.776062 
L 128.713709 257.669798 
L 129.785236 255.625617 
L 130.962537 253.652718 
L 132.247911 251.755701 
L 133.639057 249.941462 
L 135.140576 248.2169 
L 136.743268 246.582015 
L 138.437938 245.02761 
L 142.061817 242.157939 
L 145.938632 239.573396 
L 149.987903 237.248687 
L 154.138348 235.147021 
L 158.343979 233.238506 
L 164.727157 230.635568 
L 173.324672 227.43708 
L 181.924487 224.222497 
L 188.291569 221.566672 
L 192.45811 219.579977 
L 196.544172 217.36334 
L 200.496867 214.882271 
L 204.240316 212.111475 
L 206.010866 210.612256 
L 207.700937 209.034857 
L 209.29903 207.374679 
L 210.798249 205.629422 
L 212.189396 203.796788 
L 213.460973 201.876776 
L 214.615279 199.876284 
L 215.654615 197.804511 
L 216.576681 195.670653 
L 217.386075 193.486208 
L 218.082798 191.255775 
L 218.669149 188.99315 
L 219.513035 184.401217 
L 219.931529 179.781691 
L 219.970619 175.171362 
L 219.699288 170.57713 
L 219.200314 165.994394 
L 218.186272 159.151333 
L 213.437979 129.633734 
L 212.964299 125.055597 
L 212.704465 120.459066 
L 212.720561 115.844138 
L 213.07927 111.208516 
L 213.82428 106.59129 
L 214.983186 102.06374 
L 215.725897 99.858601 
L 216.58128 97.701749 
L 217.553933 95.604682 
L 218.646155 93.576597 
L 219.862546 91.628992 
L 221.203105 89.764166 
L 222.658636 87.986717 
L 224.219939 86.289749 
L 225.875518 84.675559 
L 229.430415 81.677121 
L 233.238247 78.973008 
L 237.216236 76.542526 
L 241.290801 74.364979 
L 245.445845 72.403577 
L 249.672171 70.619231 
L 256.140427 68.193347 
L 262.744349 65.974411 
L 267.212114 64.677541 
L 271.721268 63.642804 
L 276.267213 62.969075 
L 278.552832 62.798918 
L 280.84305 62.757529 
L 283.137867 62.854104 
L 285.430384 63.086345 
L 287.718303 63.445054 
L 289.987826 63.930231 
L 292.238954 64.532678 
L 296.649233 66.068687 
L 300.893954 68.011693 
L 304.92483 70.315708 
L 308.723465 72.934742 
L 312.32205 75.81591 
L 315.741281 78.910924 
L 319.011051 82.173795 
L 323.69496 87.267 
L 337.355789 102.781158 
L 340.568072 106.03943 
L 343.934417 109.150539 
L 347.493912 112.077695 
L 351.283349 114.781808 
L 353.279242 116.037289 
L 353.279242 116.037289 
" style="fill:none;stroke:#fea952;stroke-linecap:square;"/>
   </g>
   <g id="line2d_14">
    <path clip-path="url(#pfa0470311b)" d="M 115.295791 295.488 
L 114.565316 290.42262 
L 114.190106 285.196725 
L 114.191031 279.88984 
L 114.580746 274.509869 
L 115.381723 269.128521 
L 115.947454 266.436147 
L 116.625213 263.777766 
L 117.422876 261.127734 
L 118.342095 258.513759 
L 119.388419 255.935019 
L 120.567385 253.399621 
L 121.886957 250.912425 
L 123.348173 248.49341 
L 124.949034 246.15897 
L 126.702235 243.901801 
L 128.572503 241.778156 
L 130.526099 239.803829 
L 132.562369 237.951263 
L 134.671144 236.213121 
L 139.015883 233.083426 
L 143.488476 230.334673 
L 147.992842 227.920576 
L 152.511808 225.761852 
L 156.993537 223.823016 
L 163.653831 221.200022 
L 182.498926 214.060126 
L 186.329399 212.342898 
L 190.009274 210.484726 
L 193.515678 208.454387 
L 196.774338 206.25704 
L 199.735133 203.888256 
L 202.322137 201.381353 
L 204.520972 198.718179 
L 205.494395 197.279969 
L 207.211491 194.156135 
L 208.606768 190.743806 
L 209.664291 187.119777 
L 210.37398 183.364548 
L 210.737197 179.534186 
L 210.782254 175.584838 
L 210.545739 171.476877 
L 210.087551 167.241211 
L 209.109572 160.638113 
L 204.299062 130.671621 
L 203.789133 125.698502 
L 203.507575 120.578268 
L 203.538117 115.315259 
L 203.969227 109.941976 
L 204.355082 107.230184 
L 204.862769 104.520466 
L 205.496561 101.822867 
L 206.266649 99.12793 
L 207.176061 96.467834 
L 208.23742 93.831735 
L 209.455951 91.243524 
L 210.845001 88.704329 
L 212.394312 86.260335 
L 214.086969 83.936851 
L 215.889973 81.759181 
L 217.799049 79.704221 
L 219.784727 77.783588 
L 221.849424 75.971947 
L 226.127936 72.688722 
L 230.5406 69.800853 
L 235.022644 67.24996 
L 239.534611 64.992497 
L 244.056149 62.9824 
L 248.589451 61.167941 
L 255.388153 58.717561 
L 260.073934 57.172941 
L 265.00284 55.749153 
L 270.16898 54.577077 
L 272.847692 54.127849 
L 275.584367 53.796795 
L 278.386636 53.602757 
L 281.229783 53.568 
L 284.064881 53.703277 
L 286.855026 53.999685 
L 289.641124 54.450625 
L 292.365627 55.04524 
L 295.05763 55.777561 
L 297.689704 56.635756 
L 300.288753 57.621741 
L 302.80973 58.718052 
L 305.284893 59.929821 
L 307.674319 61.237797 
L 309.997157 62.643127 
L 314.348658 65.657779 
L 318.404692 68.916745 
L 322.171321 72.33433 
L 325.691007 75.851202 
L 330.607231 81.199257 
L 343.974034 96.393997 
L 346.898833 99.367214 
L 349.887529 102.139301 
L 352.974501 104.691211 
L 356.180655 106.996348 
L 358.176548 108.251829 
L 358.176548 108.251829 
" style="fill:none;stroke:#ffffff;stroke-linecap:square;"/>
   </g>
   <g id="line2d_15">
    <path clip-path="url(#pfa0470311b)" d="M 133.444434 292.485538 
L 132.882637 288.730359 
L 132.581819 284.832172 
L 132.562499 280.826424 
L 132.830416 276.82018 
L 133.395292 272.856703 
L 134.258067 269.018993 
L 135.415455 265.361267 
L 136.860033 261.939974 
L 138.576901 258.812027 
L 140.57588 255.981122 
L 142.960438 253.360201 
L 145.755029 250.894248 
L 148.929379 248.578928 
L 152.403567 246.425326 
L 156.117312 244.424545 
L 159.959022 242.582286 
L 165.954432 240.035481 
L 174.328992 236.862522 
L 185.330887 232.766117 
L 189.862485 230.91735 
L 194.438675 228.854338 
L 199.018301 226.522975 
L 203.564451 223.862506 
L 208.02263 220.812586 
L 210.183926 219.130769 
L 212.286599 217.336256 
L 214.327388 215.413504 
L 216.275924 213.368005 
L 218.124268 211.190578 
L 219.85782 208.875397 
L 221.427551 206.473583 
L 222.836437 204.00055 
L 224.09774 201.452887 
L 225.20134 198.866316 
L 226.165382 196.22861 
L 226.986351 193.563098 
L 227.674008 190.866522 
L 228.227726 188.155546 
L 228.652089 185.437885 
L 228.951807 182.711829 
L 229.190817 177.383588 
L 229.0403 172.200964 
L 228.606654 167.193455 
L 227.631422 159.987138 
L 225.342959 146.252966 
L 223.497399 135.090676 
L 222.576895 128.595847 
L 222.139465 124.412693 
L 221.901355 120.339864 
L 221.903005 116.373018 
L 222.189312 112.475056 
L 222.785792 108.662113 
L 223.699723 104.99955 
L 224.925139 101.571762 
L 226.447309 98.448864 
L 227.33078 96.997649 
L 228.319242 95.591481 
L 230.640828 92.875276 
L 233.382928 90.302553 
L 236.490138 87.887826 
L 239.881692 85.647998 
L 243.461399 83.595461 
L 247.18134 81.723173 
L 251.043471 79.999019 
L 257.086505 77.628646 
L 263.356641 75.442081 
L 267.429487 74.161798 
L 271.364983 73.119506 
L 275.13389 72.380556 
L 278.719027 71.995079 
L 282.210852 72.004932 
L 285.795481 72.439483 
L 289.420278 73.287794 
L 293.009713 74.515633 
L 296.503016 76.093566 
L 299.852503 77.988289 
L 303.098271 80.211706 
L 306.239409 82.715075 
L 309.311241 85.487517 
L 312.331094 88.496387 
L 316.78269 93.334744 
L 330.737544 109.168319 
L 334.237312 112.711646 
L 337.981305 116.161777 
L 342.013324 119.464179 
L 346.386044 122.567269 
L 348.381937 123.82275 
L 348.381937 123.82275 
" style="fill:none;stroke:#ffffff;stroke-linecap:square;"/>
   </g>
   <g id="patch_3">
    <path d="M 57.6 307.584 
L 57.6 41.472 
" style="fill:none;stroke:#000000;stroke-linecap:square;stroke-linejoin:miter;stroke-width:0.8;"/>
   </g>
   <g id="patch_4">
    <path d="M 414.72 307.584 
L 414.72 41.472 
" style="fill:none;stroke:#000000;stroke-linecap:square;stroke-linejoin:miter;stroke-width:0.8;"/>
   </g>
   <g id="patch_5">
    <path d="M 57.6 307.584 
L 414.72 307.584 
" style="fill:none;stroke:#000000;stroke-linecap:square;stroke-linejoin:miter;stroke-width:0.8;"/>
   </g>
   <g id="patch_6">
    <path d="M 57.6 41.472 
L 414.72 41.472 
" style="fill:none;stroke:#000000;stroke-linecap:square;stroke-linejoin:miter;stroke-width:0.8;"/>
   </g>
  </g>
 </g>
 <defs>
  <clipPath id="pfa0470311b">
   <rect height="266.112" width="357.12" x="57.6" y="41.472"/>
  </clipPath>
 </defs>
</svg>
