<?xml version="1.0" encoding="utf-8" standalone="no"?>
<!DOCTYPE svg PUBLIC "-//W3C//DTD SVG 1.1//EN"
  "http://www.w3.org/Graphics/SVG/1.1/DTD/svg11.dtd">
<!-- Created with matplotlib (https://matplotlib.org/) -->
<svg height="345.6pt" version="1.1" viewBox="0 0 460.8 345.6" width="460.8pt" xmlns="http://www.w3.org/2000/svg" xmlns:xlink="http://www.w3.org/1999/xlink">
 <metadata>
  <rdf:RDF xmlns:cc="http://creativecommons.org/ns#" xmlns:dc="http://purl.org/dc/elements/1.1/" xmlns:rdf="http://www.w3.org/1999/02/22-rdf-syntax-ns#">
   <cc:Work>
    <dc:type rdf:resource="http://purl.org/dc/dcmitype/StillImage"/>
    <dc:date>2021-01-25T12:08:38.895220</dc:date>
    <dc:format>image/svg+xml</dc:format>
    <dc:creator>
     <cc:Agent>
      <dc:title>Matplotlib v3.3.3, https://matplotlib.org/</dc:title>
     </cc:Agent>
    </dc:creator>
   </cc:Work>
  </rdf:RDF>
 </metadata>
 <defs>
  <style type="text/css">*{stroke-linecap:butt;stroke-linejoin:round;}</style>
 </defs>
 <g id="figure_1">
  <g id="patch_1">
   <path d="M 0 345.6 
L 460.8 345.6 
L 460.8 0 
L 0 0 
z
" style="fill:#ffffff;"/>
  </g>
  <g id="axes_1">
   <g id="patch_2">
    <path d="M 57.6 307.584 
L 414.72 307.584 
L 414.72 41.472 
L 57.6 41.472 
z
" style="fill:#7d9051;"/>
   </g>
   <g id="matplotlib.axis_1">
    <g id="xtick_1">
     <g id="line2d_1">
      <defs>
       <path d="M 0 0 
L 0 3.5 
" id="mc680f1d9e5" style="stroke:#000000;stroke-width:0.8;"/>
      </defs>
      <g>
       <use style="stroke:#000000;stroke-width:0.8;" x="123.085072" xlink:href="#mc680f1d9e5" y="307.584"/>
      </g>
     </g>
     <g id="text_1">
      <!-- 20 -->
      <g transform="translate(116.722572 322.182437)scale(0.1 -0.1)">
       <defs>
        <path d="M 19.1875 8.296875 
L 53.609375 8.296875 
L 53.609375 0 
L 7.328125 0 
L 7.328125 8.296875 
Q 12.9375 14.109375 22.625 23.890625 
Q 32.328125 33.6875 34.8125 36.53125 
Q 39.546875 41.84375 41.421875 45.53125 
Q 43.3125 49.21875 43.3125 52.78125 
Q 43.3125 58.59375 39.234375 62.25 
Q 35.15625 65.921875 28.609375 65.921875 
Q 23.96875 65.921875 18.8125 64.3125 
Q 13.671875 62.703125 7.8125 59.421875 
L 7.8125 69.390625 
Q 13.765625 71.78125 18.9375 73 
Q 24.125 74.21875 28.421875 74.21875 
Q 39.75 74.21875 46.484375 68.546875 
Q 53.21875 62.890625 53.21875 53.421875 
Q 53.21875 48.921875 51.53125 44.890625 
Q 49.859375 40.875 45.40625 35.40625 
Q 44.1875 33.984375 37.640625 27.21875 
Q 31.109375 20.453125 19.1875 8.296875 
z
" id="DejaVuSans-50"/>
        <path d="M 31.78125 66.40625 
Q 24.171875 66.40625 20.328125 58.90625 
Q 16.5 51.421875 16.5 36.375 
Q 16.5 21.390625 20.328125 13.890625 
Q 24.171875 6.390625 31.78125 6.390625 
Q 39.453125 6.390625 43.28125 13.890625 
Q 47.125 21.390625 47.125 36.375 
Q 47.125 51.421875 43.28125 58.90625 
Q 39.453125 66.40625 31.78125 66.40625 
z
M 31.78125 74.21875 
Q 44.046875 74.21875 50.515625 64.515625 
Q 56.984375 54.828125 56.984375 36.375 
Q 56.984375 17.96875 50.515625 8.265625 
Q 44.046875 -1.421875 31.78125 -1.421875 
Q 19.53125 -1.421875 13.0625 8.265625 
Q 6.59375 17.96875 6.59375 36.375 
Q 6.59375 54.828125 13.0625 64.515625 
Q 19.53125 74.21875 31.78125 74.21875 
z
" id="DejaVuSans-48"/>
       </defs>
       <use xlink:href="#DejaVuSans-50"/>
       <use x="63.623047" xlink:href="#DejaVuSans-48"/>
      </g>
     </g>
    </g>
    <g id="xtick_2">
     <g id="line2d_2">
      <g>
       <use style="stroke:#000000;stroke-width:0.8;" x="192.640745" xlink:href="#mc680f1d9e5" y="307.584"/>
      </g>
     </g>
     <g id="text_2">
      <!-- 40 -->
      <g transform="translate(186.278245 322.182437)scale(0.1 -0.1)">
       <defs>
        <path d="M 37.796875 64.3125 
L 12.890625 25.390625 
L 37.796875 25.390625 
z
M 35.203125 72.90625 
L 47.609375 72.90625 
L 47.609375 25.390625 
L 58.015625 25.390625 
L 58.015625 17.1875 
L 47.609375 17.1875 
L 47.609375 0 
L 37.796875 0 
L 37.796875 17.1875 
L 4.890625 17.1875 
L 4.890625 26.703125 
z
" id="DejaVuSans-52"/>
       </defs>
       <use xlink:href="#DejaVuSans-52"/>
       <use x="63.623047" xlink:href="#DejaVuSans-48"/>
      </g>
     </g>
    </g>
    <g id="xtick_3">
     <g id="line2d_3">
      <g>
       <use style="stroke:#000000;stroke-width:0.8;" x="262.196417" xlink:href="#mc680f1d9e5" y="307.584"/>
      </g>
     </g>
     <g id="text_3">
      <!-- 60 -->
      <g transform="translate(255.833917 322.182437)scale(0.1 -0.1)">
       <defs>
        <path d="M 33.015625 40.375 
Q 26.375 40.375 22.484375 35.828125 
Q 18.609375 31.296875 18.609375 23.390625 
Q 18.609375 15.53125 22.484375 10.953125 
Q 26.375 6.390625 33.015625 6.390625 
Q 39.65625 6.390625 43.53125 10.953125 
Q 47.40625 15.53125 47.40625 23.390625 
Q 47.40625 31.296875 43.53125 35.828125 
Q 39.65625 40.375 33.015625 40.375 
z
M 52.59375 71.296875 
L 52.59375 62.3125 
Q 48.875 64.0625 45.09375 64.984375 
Q 41.3125 65.921875 37.59375 65.921875 
Q 27.828125 65.921875 22.671875 59.328125 
Q 17.53125 52.734375 16.796875 39.40625 
Q 19.671875 43.65625 24.015625 45.921875 
Q 28.375 48.1875 33.59375 48.1875 
Q 44.578125 48.1875 50.953125 41.515625 
Q 57.328125 34.859375 57.328125 23.390625 
Q 57.328125 12.15625 50.6875 5.359375 
Q 44.046875 -1.421875 33.015625 -1.421875 
Q 20.359375 -1.421875 13.671875 8.265625 
Q 6.984375 17.96875 6.984375 36.375 
Q 6.984375 53.65625 15.1875 63.9375 
Q 23.390625 74.21875 37.203125 74.21875 
Q 40.921875 74.21875 44.703125 73.484375 
Q 48.484375 72.75 52.59375 71.296875 
z
" id="DejaVuSans-54"/>
       </defs>
       <use xlink:href="#DejaVuSans-54"/>
       <use x="63.623047" xlink:href="#DejaVuSans-48"/>
      </g>
     </g>
    </g>
    <g id="xtick_4">
     <g id="line2d_4">
      <g>
       <use style="stroke:#000000;stroke-width:0.8;" x="331.75209" xlink:href="#mc680f1d9e5" y="307.584"/>
      </g>
     </g>
     <g id="text_4">
      <!-- 80 -->
      <g transform="translate(325.38959 322.182437)scale(0.1 -0.1)">
       <defs>
        <path d="M 31.78125 34.625 
Q 24.75 34.625 20.71875 30.859375 
Q 16.703125 27.09375 16.703125 20.515625 
Q 16.703125 13.921875 20.71875 10.15625 
Q 24.75 6.390625 31.78125 6.390625 
Q 38.8125 6.390625 42.859375 10.171875 
Q 46.921875 13.96875 46.921875 20.515625 
Q 46.921875 27.09375 42.890625 30.859375 
Q 38.875 34.625 31.78125 34.625 
z
M 21.921875 38.8125 
Q 15.578125 40.375 12.03125 44.71875 
Q 8.5 49.078125 8.5 55.328125 
Q 8.5 64.0625 14.71875 69.140625 
Q 20.953125 74.21875 31.78125 74.21875 
Q 42.671875 74.21875 48.875 69.140625 
Q 55.078125 64.0625 55.078125 55.328125 
Q 55.078125 49.078125 51.53125 44.71875 
Q 48 40.375 41.703125 38.8125 
Q 48.828125 37.15625 52.796875 32.3125 
Q 56.78125 27.484375 56.78125 20.515625 
Q 56.78125 9.90625 50.3125 4.234375 
Q 43.84375 -1.421875 31.78125 -1.421875 
Q 19.734375 -1.421875 13.25 4.234375 
Q 6.78125 9.90625 6.78125 20.515625 
Q 6.78125 27.484375 10.78125 32.3125 
Q 14.796875 37.15625 21.921875 38.8125 
z
M 18.3125 54.390625 
Q 18.3125 48.734375 21.84375 45.5625 
Q 25.390625 42.390625 31.78125 42.390625 
Q 38.140625 42.390625 41.71875 45.5625 
Q 45.3125 48.734375 45.3125 54.390625 
Q 45.3125 60.0625 41.71875 63.234375 
Q 38.140625 66.40625 31.78125 66.40625 
Q 25.390625 66.40625 21.84375 63.234375 
Q 18.3125 60.0625 18.3125 54.390625 
z
" id="DejaVuSans-56"/>
       </defs>
       <use xlink:href="#DejaVuSans-56"/>
       <use x="63.623047" xlink:href="#DejaVuSans-48"/>
      </g>
     </g>
    </g>
    <g id="xtick_5">
     <g id="line2d_5">
      <g>
       <use style="stroke:#000000;stroke-width:0.8;" x="401.307762" xlink:href="#mc680f1d9e5" y="307.584"/>
      </g>
     </g>
     <g id="text_5">
      <!-- 100 -->
      <g transform="translate(391.764012 322.182437)scale(0.1 -0.1)">
       <defs>
        <path d="M 12.40625 8.296875 
L 28.515625 8.296875 
L 28.515625 63.921875 
L 10.984375 60.40625 
L 10.984375 69.390625 
L 28.421875 72.90625 
L 38.28125 72.90625 
L 38.28125 8.296875 
L 54.390625 8.296875 
L 54.390625 0 
L 12.40625 0 
z
" id="DejaVuSans-49"/>
       </defs>
       <use xlink:href="#DejaVuSans-49"/>
       <use x="63.623047" xlink:href="#DejaVuSans-48"/>
       <use x="127.246094" xlink:href="#DejaVuSans-48"/>
      </g>
     </g>
    </g>
   </g>
   <g id="matplotlib.axis_2">
    <g id="ytick_1">
     <g id="line2d_6">
      <defs>
       <path d="M 0 0 
L -3.5 0 
" id="m22601db1a0" style="stroke:#000000;stroke-width:0.8;"/>
      </defs>
      <g>
       <use style="stroke:#000000;stroke-width:0.8;" x="57.6" xlink:href="#m22601db1a0" y="284.401178"/>
      </g>
     </g>
     <g id="text_6">
      <!-- 0 -->
      <g transform="translate(44.2375 288.200397)scale(0.1 -0.1)">
       <use xlink:href="#DejaVuSans-48"/>
      </g>
     </g>
    </g>
    <g id="ytick_2">
     <g id="line2d_7">
      <g>
       <use style="stroke:#000000;stroke-width:0.8;" x="57.6" xlink:href="#m22601db1a0" y="249.623342"/>
      </g>
     </g>
     <g id="text_7">
      <!-- 10 -->
      <g transform="translate(37.875 253.422561)scale(0.1 -0.1)">
       <use xlink:href="#DejaVuSans-49"/>
       <use x="63.623047" xlink:href="#DejaVuSans-48"/>
      </g>
     </g>
    </g>
    <g id="ytick_3">
     <g id="line2d_8">
      <g>
       <use style="stroke:#000000;stroke-width:0.8;" x="57.6" xlink:href="#m22601db1a0" y="214.845506"/>
      </g>
     </g>
     <g id="text_8">
      <!-- 20 -->
      <g transform="translate(37.875 218.644724)scale(0.1 -0.1)">
       <use xlink:href="#DejaVuSans-50"/>
       <use x="63.623047" xlink:href="#DejaVuSans-48"/>
      </g>
     </g>
    </g>
    <g id="ytick_4">
     <g id="line2d_9">
      <g>
       <use style="stroke:#000000;stroke-width:0.8;" x="57.6" xlink:href="#m22601db1a0" y="180.067669"/>
      </g>
     </g>
     <g id="text_9">
      <!-- 30 -->
      <g transform="translate(37.875 183.866888)scale(0.1 -0.1)">
       <defs>
        <path d="M 40.578125 39.3125 
Q 47.65625 37.796875 51.625 33 
Q 55.609375 28.21875 55.609375 21.1875 
Q 55.609375 10.40625 48.1875 4.484375 
Q 40.765625 -1.421875 27.09375 -1.421875 
Q 22.515625 -1.421875 17.65625 -0.515625 
Q 12.796875 0.390625 7.625 2.203125 
L 7.625 11.71875 
Q 11.71875 9.328125 16.59375 8.109375 
Q 21.484375 6.890625 26.8125 6.890625 
Q 36.078125 6.890625 40.9375 10.546875 
Q 45.796875 14.203125 45.796875 21.1875 
Q 45.796875 27.640625 41.28125 31.265625 
Q 36.765625 34.90625 28.71875 34.90625 
L 20.21875 34.90625 
L 20.21875 43.015625 
L 29.109375 43.015625 
Q 36.375 43.015625 40.234375 45.921875 
Q 44.09375 48.828125 44.09375 54.296875 
Q 44.09375 59.90625 40.109375 62.90625 
Q 36.140625 65.921875 28.71875 65.921875 
Q 24.65625 65.921875 20.015625 65.03125 
Q 15.375 64.15625 9.8125 62.3125 
L 9.8125 71.09375 
Q 15.4375 72.65625 20.34375 73.4375 
Q 25.25 74.21875 29.59375 74.21875 
Q 40.828125 74.21875 47.359375 69.109375 
Q 53.90625 64.015625 53.90625 55.328125 
Q 53.90625 49.265625 50.4375 45.09375 
Q 46.96875 40.921875 40.578125 39.3125 
z
" id="DejaVuSans-51"/>
       </defs>
       <use xlink:href="#DejaVuSans-51"/>
       <use x="63.623047" xlink:href="#DejaVuSans-48"/>
      </g>
     </g>
    </g>
    <g id="ytick_5">
     <g id="line2d_10">
      <g>
       <use style="stroke:#000000;stroke-width:0.8;" x="57.6" xlink:href="#m22601db1a0" y="145.289833"/>
      </g>
     </g>
     <g id="text_10">
      <!-- 40 -->
      <g transform="translate(37.875 149.089052)scale(0.1 -0.1)">
       <use xlink:href="#DejaVuSans-52"/>
       <use x="63.623047" xlink:href="#DejaVuSans-48"/>
      </g>
     </g>
    </g>
    <g id="ytick_6">
     <g id="line2d_11">
      <g>
       <use style="stroke:#000000;stroke-width:0.8;" x="57.6" xlink:href="#m22601db1a0" y="110.511997"/>
      </g>
     </g>
     <g id="text_11">
      <!-- 50 -->
      <g transform="translate(37.875 114.311216)scale(0.1 -0.1)">
       <defs>
        <path d="M 10.796875 72.90625 
L 49.515625 72.90625 
L 49.515625 64.59375 
L 19.828125 64.59375 
L 19.828125 46.734375 
Q 21.96875 47.46875 24.109375 47.828125 
Q 26.265625 48.1875 28.421875 48.1875 
Q 40.625 48.1875 47.75 41.5 
Q 54.890625 34.8125 54.890625 23.390625 
Q 54.890625 11.625 47.5625 5.09375 
Q 40.234375 -1.421875 26.90625 -1.421875 
Q 22.3125 -1.421875 17.546875 -0.640625 
Q 12.796875 0.140625 7.71875 1.703125 
L 7.71875 11.625 
Q 12.109375 9.234375 16.796875 8.0625 
Q 21.484375 6.890625 26.703125 6.890625 
Q 35.15625 6.890625 40.078125 11.328125 
Q 45.015625 15.765625 45.015625 23.390625 
Q 45.015625 31 40.078125 35.4375 
Q 35.15625 39.890625 26.703125 39.890625 
Q 22.75 39.890625 18.8125 39.015625 
Q 14.890625 38.140625 10.796875 36.28125 
z
" id="DejaVuSans-53"/>
       </defs>
       <use xlink:href="#DejaVuSans-53"/>
       <use x="63.623047" xlink:href="#DejaVuSans-48"/>
      </g>
     </g>
    </g>
    <g id="ytick_7">
     <g id="line2d_12">
      <g>
       <use style="stroke:#000000;stroke-width:0.8;" x="57.6" xlink:href="#m22601db1a0" y="75.734161"/>
      </g>
     </g>
     <g id="text_12">
      <!-- 60 -->
      <g transform="translate(37.875 79.533379)scale(0.1 -0.1)">
       <use xlink:href="#DejaVuSans-54"/>
       <use x="63.623047" xlink:href="#DejaVuSans-48"/>
      </g>
     </g>
    </g>
   </g>
   <g id="line2d_13">
    <path clip-path="url(#pdc08f0e5e6)" d="M 266.088057 197.971299 
L 265.072544 194.524816 
L 264.296999 191.043554 
L 263.757942 187.537949 
L 263.444942 184.018432 
L 263.357997 180.495437 
L 263.493631 176.979397 
L 263.837931 173.480747 
L 264.394377 170.009919 
L 265.156011 166.577347 
L 266.115879 163.193463 
L 267.267026 159.868702 
L 268.60945 156.613497 
L 270.136197 153.43828 
L 271.840311 150.353486 
L 273.718314 147.369548 
L 275.763251 144.496898 
L 277.971644 141.745972 
L 280.336537 139.130678 
L 282.854452 136.654496 
L 285.521912 134.331337 
L 288.331961 132.175111 
L 291.267211 130.189297 
L 294.320705 128.380849 
L 297.478532 126.767158 
L 300.723304 125.348222 
L 304.048065 124.134475 
L 307.435427 123.136351 
L 310.874955 122.360806 
L 314.352738 121.818271 
L 317.851389 121.512226 
L 321.36395 121.456582 
L 324.873034 121.637427 
L 328.371684 122.047805 
L 331.842512 122.680762 
L 335.275085 123.525863 
L 338.65549 124.576154 
L 341.973296 125.817723 
L 345.21459 127.243614 
L 348.365462 128.846872 
L 351.415478 130.617064 
L 354.354206 132.547234 
L 357.178166 134.623471 
L 359.883881 136.845774 
L 362.467875 139.203712 
L 364.933623 141.690327 
L 367.274172 144.302143 
L 369.492998 147.025247 
L 371.583146 149.859641 
L 373.548093 152.79489 
L 375.380885 155.820562 
L 377.081521 158.936656 
L 378.636091 162.129261 
L 380.041115 165.391422 
L 381.275729 168.712706 
L 382.336453 172.082678 
L 383.209376 175.494384 
L 383.880588 178.93739 
L 384.339656 182.401262 
L 384.576145 185.879046 
L 384.579623 189.360307 
L 384.339656 192.838091 
L 383.8632 196.298486 
L 383.160687 199.731058 
L 382.242552 203.125375 
L 381.119228 206.471003 
L 379.79767 209.75403 
L 378.288312 212.967502 
L 376.59811 216.09403 
L 374.744451 219.130135 
L 372.730814 222.058429 
L 370.571111 224.871956 
L 368.26534 227.56376 
L 365.830891 230.126887 
L 363.264287 232.550902 
L 360.582916 234.835806 
L 357.790256 236.967687 
L 354.893262 238.943068 
L 351.895412 240.758471 
L 348.810618 242.403463 
L 345.645835 243.874565 
L 342.404541 245.161345 
L 339.097169 246.274236 
L 335.734152 247.216716 
L 332.322446 247.995739 
L 328.869007 248.62174 
L 325.391223 249.094719 
L 321.889095 249.425108 
L 318.373056 249.619864 
L 314.857017 249.682464 
L 311.344455 249.623342 
L 304.364544 249.160797 
L 297.447232 248.284395 
L 290.589043 247.049782 
L 283.796931 245.512602 
L 277.070898 243.721543 
L 270.41442 241.728773 
L 263.817064 239.548203 
L 257.275353 237.193743 
L 250.785809 234.668872 
L 244.334521 231.987501 
L 225.05021 223.70342 
L 218.532844 221.331572 
L 215.239383 220.302148 
L 211.914622 219.401402 
L 208.555083 218.639767 
L 201.752538 217.478188 
L 194.859571 216.657431 
L 173.916358 214.61945 
L 166.957313 213.586548 
L 160.081735 212.219779 
L 156.694373 211.392066 
L 153.345268 210.456543 
L 150.041373 209.402774 
L 146.789646 208.227283 
L 143.593562 206.912681 
L 140.463557 205.462445 
L 137.396152 203.876576 
L 134.387869 202.168984 
L 131.435231 200.343148 
L 125.689932 196.381952 
L 120.13939 192.062545 
L 114.769692 187.45796 
L 109.577361 182.620363 
L 104.670208 177.528887 
L 102.367915 174.875338 
L 100.183867 172.145278 
L 98.135453 169.331751 
L 96.243538 166.43128 
L 94.522036 163.436908 
L 92.988333 160.345158 
L 91.652864 157.156031 
L 90.515629 153.873003 
L 89.576627 150.516942 
L 88.835859 147.094803 
L 88.282892 143.620497 
L 87.921202 140.104458 
L 87.743835 136.560596 
L 87.750791 132.999346 
L 87.942069 129.438095 
L 88.307236 125.883801 
L 88.84977 122.350372 
L 89.562716 118.851722 
L 90.446073 115.401761 
L 91.496364 112.007444 
L 92.713588 108.682683 
L 94.087313 105.444866 
L 95.624493 102.30095 
L 97.314696 99.264845 
L 99.157921 96.346984 
L 101.150691 93.564757 
L 101.150691 93.564757 
" style="fill:none;stroke:#fea952;stroke-linecap:square;"/>
   </g>
   <g id="line2d_14">
    <path clip-path="url(#pdc08f0e5e6)" d="M 252.744126 201.903114 
L 251.494273 197.549746 
L 250.547469 193.157817 
L 249.901495 188.770241 
L 249.538042 184.361642 
L 249.457201 179.959204 
L 249.649372 175.61699 
L 250.102199 171.278626 
L 250.813536 166.996541 
L 251.77288 162.781104 
L 252.970378 158.64204 
L 254.406552 154.565131 
L 256.072316 150.585236 
L 257.959524 146.711595 
L 260.066878 142.943633 
L 262.385395 139.302046 
L 264.915214 135.788297 
L 267.65344 132.415681 
L 270.58242 129.212167 
L 273.718138 126.164147 
L 277.053352 123.294891 
L 280.536871 120.653122 
L 284.178271 118.219894 
L 287.990555 115.993401 
L 291.904837 114.021429 
L 295.952812 112.280626 
L 300.116137 110.790578 
L 304.37556 109.56591 
L 308.730752 108.615914 
L 313.140489 107.960057 
L 317.631042 107.602837 
L 322.079927 107.563885 
L 326.493647 107.821013 
L 330.867423 108.362377 
L 335.168134 109.17299 
L 339.402633 110.241172 
L 343.531035 111.547388 
L 347.574931 113.084249 
L 351.523267 114.845216 
L 355.34842 116.815332 
L 359.05242 118.989649 
L 362.594502 121.339327 
L 366.007522 123.873488 
L 369.260781 126.569909 
L 372.345891 129.408588 
L 375.293557 132.406392 
L 378.05857 135.514855 
L 380.689129 138.768959 
L 383.143138 142.12102 
L 385.446518 145.587453 
L 387.591846 149.156321 
L 389.588728 152.846546 
L 391.412557 156.626391 
L 393.080491 160.544325 
L 394.545072 164.536081 
L 395.813444 168.634437 
L 396.863466 172.832526 
L 397.67114 177.109726 
L 398.218739 181.457485 
L 398.487273 185.865149 
L 398.45776 190.317899 
L 398.120772 194.735591 
L 397.491838 199.087731 
L 396.589238 203.363371 
L 395.430186 207.553239 
L 394.024048 211.665739 
L 392.389045 215.668161 
L 390.52572 219.583053 
L 388.471253 223.343039 
L 386.207014 227.012349 
L 383.765728 230.528987 
L 381.136121 233.921829 
L 378.35193 237.143968 
L 375.382604 240.240465 
L 372.28696 243.139152 
L 369.024033 245.893256 
L 365.627338 248.461155 
L 362.099143 250.842435 
L 358.44111 253.033385 
L 354.674456 255.018338 
L 350.778797 256.804081 
L 346.841043 258.346076 
L 342.85111 259.669295 
L 338.830895 260.778789 
L 334.803667 261.683807 
L 330.743664 262.405982 
L 326.697793 262.944359 
L 322.658464 263.314951 
L 318.620693 263.528794 
L 314.622902 263.591628 
L 310.639424 263.516599 
L 306.71464 263.310759 
L 302.811577 262.984977 
L 295.155752 262.005502 
L 287.658131 260.648658 
L 280.321685 258.982655 
L 273.172037 257.07514 
L 266.140816 254.967201 
L 259.192988 252.668324 
L 252.31323 250.189781 
L 245.519136 247.544501 
L 238.791327 244.746524 
L 220.119927 236.71157 
L 214.382702 234.609222 
L 208.838905 232.96826 
L 205.999897 232.314221 
L 199.965223 231.274027 
L 193.528895 230.504776 
L 172.020226 228.400754 
L 164.433628 227.26685 
L 156.779656 225.733326 
L 152.951773 224.790298 
L 149.118149 223.709887 
L 145.312064 222.485331 
L 141.497913 221.092633 
L 137.745318 219.534792 
L 134.07475 217.819743 
L 130.528967 215.974569 
L 127.071437 214.0007 
L 123.718722 211.917911 
L 120.460871 209.737871 
L 117.288261 207.469404 
L 111.196034 202.717875 
L 105.407303 197.747048 
L 99.713417 192.429658 
L 96.913694 189.60464 
L 94.162715 186.64548 
L 91.505144 183.565555 
L 88.93764 180.333199 
L 86.483895 176.931808 
L 84.183434 173.364789 
L 82.059975 169.618875 
L 80.156828 165.718439 
L 78.508029 161.709379 
L 77.118986 157.621287 
L 75.980382 153.460032 
L 75.097642 149.281366 
L 74.444781 145.044002 
L 74.027458 140.799827 
L 73.832727 136.533426 
L 73.859679 132.253241 
L 74.103777 128.016353 
L 74.557239 123.772581 
L 75.218772 119.572684 
L 76.08633 115.401115 
L 77.156596 111.289648 
L 78.433175 107.224896 
L 79.907401 103.249338 
L 81.590009 99.334459 
L 83.469889 95.534469 
L 85.553652 91.835342 
L 87.848482 88.246598 
L 89.841252 85.464372 
L 89.841252 85.464372 
" style="fill:none;stroke:#ffffff;stroke-linecap:square;"/>
   </g>
   <g id="line2d_15">
    <path clip-path="url(#pdc08f0e5e6)" d="M 279.431988 194.039485 
L 278.650816 191.499886 
L 278.046528 188.929292 
L 277.614389 186.305656 
L 277.351842 183.675221 
L 277.258793 181.031669 
L 277.33789 178.341805 
L 277.573663 175.682868 
L 277.975217 173.023297 
L 278.539142 170.373589 
L 279.261381 167.744887 
L 280.1275 165.172274 
L 281.146585 162.641757 
L 282.31287 160.164965 
L 283.613745 157.763339 
L 285.051234 155.43705 
L 286.611289 153.2055 
L 288.289848 151.076262 
L 290.090653 149.04919 
L 291.990766 147.144845 
L 293.990472 145.367783 
L 296.127051 143.6971 
L 298.356151 142.158699 
L 300.650854 140.768297 
L 303.052227 139.512886 
L 305.493797 138.415818 
L 307.979994 137.478373 
L 310.495294 136.706793 
L 313.019158 136.105698 
L 315.564988 135.676486 
L 318.071735 135.421616 
L 320.647974 135.349279 
L 323.252421 135.45384 
L 325.875945 135.733233 
L 328.51689 136.188534 
L 331.147537 136.810554 
L 333.779946 137.604919 
L 336.371661 138.551196 
L 338.905913 139.642011 
L 341.382504 140.878412 
L 343.778537 142.244479 
L 346.113909 143.755141 
L 348.34881 145.373454 
L 350.506981 147.12164 
L 352.589858 148.998836 
L 354.57369 150.974262 
L 356.489774 153.08943 
L 358.296866 155.281536 
L 360.023153 157.598261 
L 361.649668 160.002327 
L 363.169925 162.484803 
L 364.574315 165.026766 
L 365.859625 167.632132 
L 367.00174 170.23852 
L 368.006385 172.889331 
L 368.859461 175.53092 
L 369.555286 178.156242 
L 370.090037 180.765053 
L 370.460573 183.34504 
L 370.665018 185.892943 
L 370.701486 188.402716 
L 370.55854 190.94059 
L 370.234562 193.50924 
L 369.732137 196.098745 
L 369.054919 198.69751 
L 368.214409 201.276266 
L 367.206296 203.8399 
L 366.050905 206.351952 
L 364.724967 208.84502 
L 363.281887 211.247921 
L 361.695901 213.587871 
L 360.0061 215.822082 
L 358.17875 217.983553 
L 356.279179 220.013309 
L 354.241615 221.962652 
L 352.141799 223.778356 
L 349.953173 225.474219 
L 347.687381 227.043701 
L 345.349715 228.483558 
L 342.946781 229.788588 
L 340.512873 230.94505 
L 337.968039 231.976615 
L 335.343228 232.879178 
L 332.637409 233.654642 
L 329.841225 234.307671 
L 326.99435 234.837498 
L 324.084654 235.245078 
L 321.119727 235.535265 
L 318.125419 235.710934 
L 312.049486 235.730085 
L 305.917511 235.336616 
L 299.738713 234.563288 
L 293.519955 233.450906 
L 287.272177 232.042549 
L 280.969758 230.367946 
L 274.688024 228.490345 
L 268.441141 226.428082 
L 262.237477 224.197706 
L 256.052482 221.793243 
L 249.877715 219.228478 
L 229.980494 210.695271 
L 222.682986 208.053922 
L 218.877059 206.87505 
L 214.990338 205.834544 
L 211.110268 204.965314 
L 207.295632 204.259387 
L 199.819116 203.203289 
L 192.616039 202.466982 
L 179.047292 201.218678 
L 172.616841 200.401639 
L 166.407988 199.344748 
L 160.436974 197.993835 
L 154.770683 196.320217 
L 152.081378 195.361933 
L 149.441807 194.29057 
L 146.852364 193.105148 
L 144.263337 191.778583 
L 141.704301 190.337269 
L 136.608647 187.081129 
L 131.573829 183.392373 
L 126.600022 179.327436 
L 121.746022 175.00293 
L 117.24693 170.614165 
L 113.230686 166.185122 
L 111.430094 163.957358 
L 109.78701 161.731694 
L 108.303643 159.49777 
L 106.984096 157.254941 
L 105.819838 154.971878 
L 104.797699 152.602682 
L 103.912271 150.12472 
L 103.172872 147.573852 
L 102.574076 144.90824 
L 102.121002 142.196992 
L 101.814946 139.409089 
L 101.654943 136.587766 
L 101.641903 133.74545 
L 101.78036 130.859838 
L 102.057233 127.99502 
L 102.480769 125.128061 
L 103.039102 122.302329 
L 103.73555 119.513873 
L 104.559552 116.789992 
L 105.519775 114.116027 
L 106.584616 111.555273 
L 107.779097 109.06743 
L 109.075739 106.694348 
L 110.46736 104.44737 
L 112.46013 101.665143 
L 112.46013 101.665143 
" style="fill:none;stroke:#ffffff;stroke-linecap:square;"/>
   </g>
   <g id="patch_3">
    <path d="M 57.6 307.584 
L 57.6 41.472 
" style="fill:none;stroke:#000000;stroke-linecap:square;stroke-linejoin:miter;stroke-width:0.8;"/>
   </g>
   <g id="patch_4">
    <path d="M 414.72 307.584 
L 414.72 41.472 
" style="fill:none;stroke:#000000;stroke-linecap:square;stroke-linejoin:miter;stroke-width:0.8;"/>
   </g>
   <g id="patch_5">
    <path d="M 57.6 307.584 
L 414.72 307.584 
" style="fill:none;stroke:#000000;stroke-linecap:square;stroke-linejoin:miter;stroke-width:0.8;"/>
   </g>
   <g id="patch_6">
    <path d="M 57.6 41.472 
L 414.72 41.472 
" style="fill:none;stroke:#000000;stroke-linecap:square;stroke-linejoin:miter;stroke-width:0.8;"/>
   </g>
  </g>
 </g>
 <defs>
  <clipPath id="pdc08f0e5e6">
   <rect height="266.112" width="357.12" x="57.6" y="41.472"/>
  </clipPath>
 </defs>
</svg>
