<?xml version="1.0" encoding="utf-8" standalone="no"?>
<!DOCTYPE svg PUBLIC "-//W3C//DTD SVG 1.1//EN"
  "http://www.w3.org/Graphics/SVG/1.1/DTD/svg11.dtd">
<!-- Created with matplotlib (https://matplotlib.org/) -->
<svg height="345.6pt" version="1.1" viewBox="0 0 460.8 345.6" width="460.8pt" xmlns="http://www.w3.org/2000/svg" xmlns:xlink="http://www.w3.org/1999/xlink">
 <metadata>
  <rdf:RDF xmlns:cc="http://creativecommons.org/ns#" xmlns:dc="http://purl.org/dc/elements/1.1/" xmlns:rdf="http://www.w3.org/1999/02/22-rdf-syntax-ns#">
   <cc:Work>
    <dc:type rdf:resource="http://purl.org/dc/dcmitype/StillImage"/>
    <dc:date>2021-01-23T12:35:04.381913</dc:date>
    <dc:format>image/svg+xml</dc:format>
    <dc:creator>
     <cc:Agent>
      <dc:title>Matplotlib v3.3.3, https://matplotlib.org/</dc:title>
     </cc:Agent>
    </dc:creator>
   </cc:Work>
  </rdf:RDF>
 </metadata>
 <defs>
  <style type="text/css">*{stroke-linecap:butt;stroke-linejoin:round;}</style>
 </defs>
 <g id="figure_1">
  <g id="patch_1">
   <path d="M 0 345.6 
L 460.8 345.6 
L 460.8 0 
L 0 0 
z
" style="fill:#ffffff;"/>
  </g>
  <g id="axes_1">
   <g id="patch_2">
    <path d="M 57.6 307.584 
L 414.72 307.584 
L 414.72 41.472 
L 57.6 41.472 
z
" style="fill:#7d9051;"/>
   </g>
   <g id="matplotlib.axis_1">
    <g id="xtick_1">
     <g id="line2d_1">
      <defs>
       <path d="M 0 0 
L 0 3.5 
" id="m98739e3429" style="stroke:#000000;stroke-width:0.8;"/>
      </defs>
      <g>
       <use style="stroke:#000000;stroke-width:0.8;" x="90.018681" xlink:href="#m98739e3429" y="307.584"/>
      </g>
     </g>
     <g id="text_1">
      <!-- −20 -->
      <g transform="translate(79.466337 322.182437)scale(0.1 -0.1)">
       <defs>
        <path d="M 10.59375 35.5 
L 73.1875 35.5 
L 73.1875 27.203125 
L 10.59375 27.203125 
z
" id="DejaVuSans-8722"/>
        <path d="M 19.1875 8.296875 
L 53.609375 8.296875 
L 53.609375 0 
L 7.328125 0 
L 7.328125 8.296875 
Q 12.9375 14.109375 22.625 23.890625 
Q 32.328125 33.6875 34.8125 36.53125 
Q 39.546875 41.84375 41.421875 45.53125 
Q 43.3125 49.21875 43.3125 52.78125 
Q 43.3125 58.59375 39.234375 62.25 
Q 35.15625 65.921875 28.609375 65.921875 
Q 23.96875 65.921875 18.8125 64.3125 
Q 13.671875 62.703125 7.8125 59.421875 
L 7.8125 69.390625 
Q 13.765625 71.78125 18.9375 73 
Q 24.125 74.21875 28.421875 74.21875 
Q 39.75 74.21875 46.484375 68.546875 
Q 53.21875 62.890625 53.21875 53.421875 
Q 53.21875 48.921875 51.53125 44.890625 
Q 49.859375 40.875 45.40625 35.40625 
Q 44.1875 33.984375 37.640625 27.21875 
Q 31.109375 20.453125 19.1875 8.296875 
z
" id="DejaVuSans-50"/>
        <path d="M 31.78125 66.40625 
Q 24.171875 66.40625 20.328125 58.90625 
Q 16.5 51.421875 16.5 36.375 
Q 16.5 21.390625 20.328125 13.890625 
Q 24.171875 6.390625 31.78125 6.390625 
Q 39.453125 6.390625 43.28125 13.890625 
Q 47.125 21.390625 47.125 36.375 
Q 47.125 51.421875 43.28125 58.90625 
Q 39.453125 66.40625 31.78125 66.40625 
z
M 31.78125 74.21875 
Q 44.046875 74.21875 50.515625 64.515625 
Q 56.984375 54.828125 56.984375 36.375 
Q 56.984375 17.96875 50.515625 8.265625 
Q 44.046875 -1.421875 31.78125 -1.421875 
Q 19.53125 -1.421875 13.0625 8.265625 
Q 6.59375 17.96875 6.59375 36.375 
Q 6.59375 54.828125 13.0625 64.515625 
Q 19.53125 74.21875 31.78125 74.21875 
z
" id="DejaVuSans-48"/>
       </defs>
       <use xlink:href="#DejaVuSans-8722"/>
       <use x="83.789062" xlink:href="#DejaVuSans-50"/>
       <use x="147.412109" xlink:href="#DejaVuSans-48"/>
      </g>
     </g>
    </g>
    <g id="xtick_2">
     <g id="line2d_2">
      <g>
       <use style="stroke:#000000;stroke-width:0.8;" x="134.629933" xlink:href="#m98739e3429" y="307.584"/>
      </g>
     </g>
     <g id="text_2">
      <!-- 0 -->
      <g transform="translate(131.448683 322.182437)scale(0.1 -0.1)">
       <use xlink:href="#DejaVuSans-48"/>
      </g>
     </g>
    </g>
    <g id="xtick_3">
     <g id="line2d_3">
      <g>
       <use style="stroke:#000000;stroke-width:0.8;" x="179.241186" xlink:href="#m98739e3429" y="307.584"/>
      </g>
     </g>
     <g id="text_3">
      <!-- 20 -->
      <g transform="translate(172.878686 322.182437)scale(0.1 -0.1)">
       <use xlink:href="#DejaVuSans-50"/>
       <use x="63.623047" xlink:href="#DejaVuSans-48"/>
      </g>
     </g>
    </g>
    <g id="xtick_4">
     <g id="line2d_4">
      <g>
       <use style="stroke:#000000;stroke-width:0.8;" x="223.852439" xlink:href="#m98739e3429" y="307.584"/>
      </g>
     </g>
     <g id="text_4">
      <!-- 40 -->
      <g transform="translate(217.489939 322.182437)scale(0.1 -0.1)">
       <defs>
        <path d="M 37.796875 64.3125 
L 12.890625 25.390625 
L 37.796875 25.390625 
z
M 35.203125 72.90625 
L 47.609375 72.90625 
L 47.609375 25.390625 
L 58.015625 25.390625 
L 58.015625 17.1875 
L 47.609375 17.1875 
L 47.609375 0 
L 37.796875 0 
L 37.796875 17.1875 
L 4.890625 17.1875 
L 4.890625 26.703125 
z
" id="DejaVuSans-52"/>
       </defs>
       <use xlink:href="#DejaVuSans-52"/>
       <use x="63.623047" xlink:href="#DejaVuSans-48"/>
      </g>
     </g>
    </g>
    <g id="xtick_5">
     <g id="line2d_5">
      <g>
       <use style="stroke:#000000;stroke-width:0.8;" x="268.463692" xlink:href="#m98739e3429" y="307.584"/>
      </g>
     </g>
     <g id="text_5">
      <!-- 60 -->
      <g transform="translate(262.101192 322.182437)scale(0.1 -0.1)">
       <defs>
        <path d="M 33.015625 40.375 
Q 26.375 40.375 22.484375 35.828125 
Q 18.609375 31.296875 18.609375 23.390625 
Q 18.609375 15.53125 22.484375 10.953125 
Q 26.375 6.390625 33.015625 6.390625 
Q 39.65625 6.390625 43.53125 10.953125 
Q 47.40625 15.53125 47.40625 23.390625 
Q 47.40625 31.296875 43.53125 35.828125 
Q 39.65625 40.375 33.015625 40.375 
z
M 52.59375 71.296875 
L 52.59375 62.3125 
Q 48.875 64.0625 45.09375 64.984375 
Q 41.3125 65.921875 37.59375 65.921875 
Q 27.828125 65.921875 22.671875 59.328125 
Q 17.53125 52.734375 16.796875 39.40625 
Q 19.671875 43.65625 24.015625 45.921875 
Q 28.375 48.1875 33.59375 48.1875 
Q 44.578125 48.1875 50.953125 41.515625 
Q 57.328125 34.859375 57.328125 23.390625 
Q 57.328125 12.15625 50.6875 5.359375 
Q 44.046875 -1.421875 33.015625 -1.421875 
Q 20.359375 -1.421875 13.671875 8.265625 
Q 6.984375 17.96875 6.984375 36.375 
Q 6.984375 53.65625 15.1875 63.9375 
Q 23.390625 74.21875 37.203125 74.21875 
Q 40.921875 74.21875 44.703125 73.484375 
Q 48.484375 72.75 52.59375 71.296875 
z
" id="DejaVuSans-54"/>
       </defs>
       <use xlink:href="#DejaVuSans-54"/>
       <use x="63.623047" xlink:href="#DejaVuSans-48"/>
      </g>
     </g>
    </g>
    <g id="xtick_6">
     <g id="line2d_6">
      <g>
       <use style="stroke:#000000;stroke-width:0.8;" x="313.074945" xlink:href="#m98739e3429" y="307.584"/>
      </g>
     </g>
     <g id="text_6">
      <!-- 80 -->
      <g transform="translate(306.712445 322.182437)scale(0.1 -0.1)">
       <defs>
        <path d="M 31.78125 34.625 
Q 24.75 34.625 20.71875 30.859375 
Q 16.703125 27.09375 16.703125 20.515625 
Q 16.703125 13.921875 20.71875 10.15625 
Q 24.75 6.390625 31.78125 6.390625 
Q 38.8125 6.390625 42.859375 10.171875 
Q 46.921875 13.96875 46.921875 20.515625 
Q 46.921875 27.09375 42.890625 30.859375 
Q 38.875 34.625 31.78125 34.625 
z
M 21.921875 38.8125 
Q 15.578125 40.375 12.03125 44.71875 
Q 8.5 49.078125 8.5 55.328125 
Q 8.5 64.0625 14.71875 69.140625 
Q 20.953125 74.21875 31.78125 74.21875 
Q 42.671875 74.21875 48.875 69.140625 
Q 55.078125 64.0625 55.078125 55.328125 
Q 55.078125 49.078125 51.53125 44.71875 
Q 48 40.375 41.703125 38.8125 
Q 48.828125 37.15625 52.796875 32.3125 
Q 56.78125 27.484375 56.78125 20.515625 
Q 56.78125 9.90625 50.3125 4.234375 
Q 43.84375 -1.421875 31.78125 -1.421875 
Q 19.734375 -1.421875 13.25 4.234375 
Q 6.78125 9.90625 6.78125 20.515625 
Q 6.78125 27.484375 10.78125 32.3125 
Q 14.796875 37.15625 21.921875 38.8125 
z
M 18.3125 54.390625 
Q 18.3125 48.734375 21.84375 45.5625 
Q 25.390625 42.390625 31.78125 42.390625 
Q 38.140625 42.390625 41.71875 45.5625 
Q 45.3125 48.734375 45.3125 54.390625 
Q 45.3125 60.0625 41.71875 63.234375 
Q 38.140625 66.40625 31.78125 66.40625 
Q 25.390625 66.40625 21.84375 63.234375 
Q 18.3125 60.0625 18.3125 54.390625 
z
" id="DejaVuSans-56"/>
       </defs>
       <use xlink:href="#DejaVuSans-56"/>
       <use x="63.623047" xlink:href="#DejaVuSans-48"/>
      </g>
     </g>
    </g>
    <g id="xtick_7">
     <g id="line2d_7">
      <g>
       <use style="stroke:#000000;stroke-width:0.8;" x="357.686197" xlink:href="#m98739e3429" y="307.584"/>
      </g>
     </g>
     <g id="text_7">
      <!-- 100 -->
      <g transform="translate(348.142447 322.182437)scale(0.1 -0.1)">
       <defs>
        <path d="M 12.40625 8.296875 
L 28.515625 8.296875 
L 28.515625 63.921875 
L 10.984375 60.40625 
L 10.984375 69.390625 
L 28.421875 72.90625 
L 38.28125 72.90625 
L 38.28125 8.296875 
L 54.390625 8.296875 
L 54.390625 0 
L 12.40625 0 
z
" id="DejaVuSans-49"/>
       </defs>
       <use xlink:href="#DejaVuSans-49"/>
       <use x="63.623047" xlink:href="#DejaVuSans-48"/>
       <use x="127.246094" xlink:href="#DejaVuSans-48"/>
      </g>
     </g>
    </g>
    <g id="xtick_8">
     <g id="line2d_8">
      <g>
       <use style="stroke:#000000;stroke-width:0.8;" x="402.29745" xlink:href="#m98739e3429" y="307.584"/>
      </g>
     </g>
     <g id="text_8">
      <!-- 120 -->
      <g transform="translate(392.7537 322.182437)scale(0.1 -0.1)">
       <use xlink:href="#DejaVuSans-49"/>
       <use x="63.623047" xlink:href="#DejaVuSans-50"/>
       <use x="127.246094" xlink:href="#DejaVuSans-48"/>
      </g>
     </g>
    </g>
   </g>
   <g id="matplotlib.axis_2">
    <g id="ytick_1">
     <g id="line2d_9">
      <defs>
       <path d="M 0 0 
L -3.5 0 
" id="m00f0606d4e" style="stroke:#000000;stroke-width:0.8;"/>
      </defs>
      <g>
       <use style="stroke:#000000;stroke-width:0.8;" x="57.6" xlink:href="#m00f0606d4e" y="269.138634"/>
      </g>
     </g>
     <g id="text_9">
      <!-- 20 -->
      <g transform="translate(37.875 272.937853)scale(0.1 -0.1)">
       <use xlink:href="#DejaVuSans-50"/>
       <use x="63.623047" xlink:href="#DejaVuSans-48"/>
      </g>
     </g>
    </g>
    <g id="ytick_2">
     <g id="line2d_10">
      <g>
       <use style="stroke:#000000;stroke-width:0.8;" x="57.6" xlink:href="#m00f0606d4e" y="224.527381"/>
      </g>
     </g>
     <g id="text_10">
      <!-- 40 -->
      <g transform="translate(37.875 228.3266)scale(0.1 -0.1)">
       <use xlink:href="#DejaVuSans-52"/>
       <use x="63.623047" xlink:href="#DejaVuSans-48"/>
      </g>
     </g>
    </g>
    <g id="ytick_3">
     <g id="line2d_11">
      <g>
       <use style="stroke:#000000;stroke-width:0.8;" x="57.6" xlink:href="#m00f0606d4e" y="179.916129"/>
      </g>
     </g>
     <g id="text_11">
      <!-- 60 -->
      <g transform="translate(37.875 183.715347)scale(0.1 -0.1)">
       <use xlink:href="#DejaVuSans-54"/>
       <use x="63.623047" xlink:href="#DejaVuSans-48"/>
      </g>
     </g>
    </g>
    <g id="ytick_4">
     <g id="line2d_12">
      <g>
       <use style="stroke:#000000;stroke-width:0.8;" x="57.6" xlink:href="#m00f0606d4e" y="135.304876"/>
      </g>
     </g>
     <g id="text_12">
      <!-- 80 -->
      <g transform="translate(37.875 139.104095)scale(0.1 -0.1)">
       <use xlink:href="#DejaVuSans-56"/>
       <use x="63.623047" xlink:href="#DejaVuSans-48"/>
      </g>
     </g>
    </g>
    <g id="ytick_5">
     <g id="line2d_13">
      <g>
       <use style="stroke:#000000;stroke-width:0.8;" x="57.6" xlink:href="#m00f0606d4e" y="90.693623"/>
      </g>
     </g>
     <g id="text_13">
      <!-- 100 -->
      <g transform="translate(31.5125 94.492842)scale(0.1 -0.1)">
       <use xlink:href="#DejaVuSans-49"/>
       <use x="63.623047" xlink:href="#DejaVuSans-48"/>
       <use x="127.246094" xlink:href="#DejaVuSans-48"/>
      </g>
     </g>
    </g>
    <g id="ytick_6">
     <g id="line2d_14">
      <g>
       <use style="stroke:#000000;stroke-width:0.8;" x="57.6" xlink:href="#m00f0606d4e" y="46.08237"/>
      </g>
     </g>
     <g id="text_14">
      <!-- 120 -->
      <g transform="translate(31.5125 49.881589)scale(0.1 -0.1)">
       <use xlink:href="#DejaVuSans-49"/>
       <use x="63.623047" xlink:href="#DejaVuSans-50"/>
       <use x="127.246094" xlink:href="#DejaVuSans-48"/>
      </g>
     </g>
    </g>
   </g>
   <g id="line2d_15">
    <path clip-path="url(#pb2fa03d677)" d="M 314.397668 153.343436 
L 314.243759 148.92023 
L 314.24822 142.208467 
L 314.408821 128.651107 
L 314.303985 124.136449 
L 314.025164 119.646326 
L 313.518826 115.187431 
L 312.729207 110.777609 
L 311.602773 106.428012 
L 310.12168 102.160946 
L 308.30154 98.01656 
L 306.1602 94.032775 
L 303.713273 90.24528 
L 300.978603 86.687533 
L 297.980727 83.363994 
L 294.753103 80.250129 
L 291.33365 77.314708 
L 287.751367 74.535427 
L 284.039711 71.88998 
L 280.209835 69.418517 
L 276.257278 67.201337 
L 272.173117 65.325434 
L 270.078619 64.542507 
L 267.950662 63.877799 
L 265.787017 63.340233 
L 263.587682 62.936502 
L 261.36158 62.662142 
L 259.115404 62.514925 
L 256.853613 62.483697 
L 252.316649 62.766979 
L 247.804221 63.469606 
L 243.372093 64.55589 
L 239.064876 65.990142 
L 234.902646 67.758978 
L 230.909939 69.846785 
L 227.100138 72.237948 
L 223.493318 74.919084 
L 220.102863 77.872349 
L 216.937695 81.070976 
L 213.997813 84.490428 
L 211.285449 88.101709 
L 208.809525 91.882513 
L 206.574501 95.810534 
L 204.609375 99.872388 
L 202.938684 104.056924 
L 201.593654 108.352987 
L 200.596593 112.749426 
L 199.969805 117.226166 
L 199.71329 121.747516 
L 199.827049 126.268867 
L 200.30885 130.754528 
L 201.156464 135.16212 
L 202.347585 139.471567 
L 203.808603 143.707405 
L 206.335831 149.966364 
L 211.664645 162.432979 
L 213.248344 166.644281 
L 214.611218 170.911347 
L 215.679657 175.249792 
L 216.393438 179.670767 
L 216.743636 184.156428 
L 216.754789 188.673318 
L 216.446971 193.187976 
L 215.842489 197.669177 
L 214.963647 202.087921 
L 213.830521 206.435288 
L 212.460956 210.713507 
L 210.872795 214.920348 
L 209.090575 219.058042 
L 207.12545 223.119896 
L 204.972957 227.085837 
L 202.624174 230.926866 
L 200.063488 234.618447 
L 197.279746 238.129352 
L 194.272948 241.446199 
L 189.48616 246.174992 
L 183.010837 252.409414 
L 179.917047 255.657114 
L 176.983857 259.047569 
L 174.200115 262.569627 
L 171.556898 266.205444 
L 167.825167 271.833154 
L 164.338797 277.623694 
L 161.05987 283.519072 
L 156.93556 291.444261 
L 156.93556 291.444261 
" style="fill:none;stroke:#fea952;stroke-linecap:square;"/>
   </g>
   <g id="line2d_16">
    <path clip-path="url(#pb2fa03d677)" d="M 305.484252 153.74039 
L 305.321956 149.009538 
L 305.327089 142.067142 
L 305.487548 128.783209 
L 305.292064 122.54323 
L 304.954723 118.547462 
L 304.411445 114.707959 
L 303.622488 111.00878 
L 302.539372 107.379317 
L 301.159393 103.823779 
L 299.499546 100.385368 
L 297.578448 97.10417 
L 295.422321 94.019717 
L 292.996516 91.095672 
L 290.306667 88.304889 
L 287.35231 85.612207 
L 284.169209 83.016521 
L 280.795862 80.508941 
L 277.401849 78.188128 
L 274.024907 76.130897 
L 270.691596 74.405216 
L 267.418352 73.058934 
L 264.176077 72.115849 
L 260.778057 71.565291 
L 257.195513 71.399395 
L 253.492993 71.611343 
L 249.746182 72.177955 
L 246.014439 73.077895 
L 242.395175 74.267561 
L 238.882206 75.744569 
L 235.506898 77.493648 
L 232.277715 79.504257 
L 229.224349 81.757347 
L 226.331714 84.260461 
L 223.60237 87.002978 
L 221.04251 89.965718 
L 218.673798 93.103595 
L 216.490401 96.422413 
L 214.535315 99.839429 
L 212.832437 103.33473 
L 211.397755 106.894293 
L 210.251584 110.508635 
L 209.405407 114.167646 
L 208.865671 117.911815 
L 208.635432 121.703521 
L 208.716317 125.502398 
L 209.103156 129.248957 
L 209.796926 132.93749 
L 210.821705 136.679464 
L 212.13363 140.49797 
L 214.527523 146.430445 
L 219.984195 159.209374 
L 221.706501 163.804186 
L 223.232504 168.613525 
L 224.455563 173.640431 
L 225.273402 178.803133 
L 225.663962 183.97114 
L 225.665307 189.130718 
L 225.307568 194.235058 
L 224.618838 199.276114 
L 223.629304 204.212291 
L 222.363948 209.040509 
L 220.847062 213.75978 
L 219.105314 218.360144 
L 217.162195 222.860083 
L 215.017466 227.281943 
L 212.64855 231.634664 
L 210.031557 235.90052 
L 207.143386 240.048143 
L 203.980092 244.021035 
L 200.639383 247.697204 
L 195.629262 252.645607 
L 189.39917 258.638039 
L 186.59639 261.572596 
L 183.926676 264.651479 
L 181.366514 267.884633 
L 178.913332 271.254151 
L 175.410504 276.530941 
L 172.093629 282.036079 
L 168.93269 287.717317 
L 164.888844 295.488 
L 164.888844 295.488 
" style="fill:none;stroke:#ffffff;stroke-linecap:square;"/>
   </g>
   <g id="line2d_17">
    <path clip-path="url(#pb2fa03d677)" d="M 323.311084 152.946482 
L 323.165563 148.830923 
L 323.169352 142.349792 
L 323.330094 128.519006 
L 323.214837 123.685602 
L 322.904182 118.769058 
L 322.328408 113.773987 
L 321.411012 108.720225 
L 320.089822 103.675456 
L 318.36202 98.739929 
L 316.244558 93.952691 
L 313.750422 89.342882 
L 310.898632 84.955935 
L 307.712532 80.834263 
L 304.280819 77.046131 
L 300.660936 73.564019 
L 296.880494 70.326212 
L 292.995024 67.316659 
L 288.976801 64.458177 
L 284.713668 61.716436 
L 280.162387 59.179076 
L 277.772257 58.025641 
L 275.297149 56.967983 
L 272.738887 56.02608 
L 270.102021 55.218803 
L 267.397956 54.564618 
L 264.67906 54.081252 
L 261.945103 53.758994 
L 259.238579 53.593525 
L 256.511713 53.568 
L 253.815972 53.681654 
L 251.140305 53.922615 
L 248.48418 54.284795 
L 245.862259 54.761257 
L 240.729746 56.033886 
L 235.734577 57.712723 
L 230.923087 59.773387 
L 226.312981 62.199921 
L 221.922561 64.971639 
L 217.762287 68.080821 
L 213.874012 71.484237 
L 210.273019 75.138973 
L 206.953116 79.015138 
L 203.8971 83.099824 
L 201.128648 87.342613 
L 198.613687 91.781639 
L 196.386313 96.410047 
L 194.479612 101.219555 
L 192.935725 106.19734 
L 191.787779 111.331207 
L 191.073938 116.540516 
L 190.791148 121.791511 
L 190.937781 127.035335 
L 191.514545 132.260099 
L 192.516002 137.38675 
L 193.873464 142.263669 
L 195.483576 146.916841 
L 198.144138 153.502283 
L 203.345094 165.656584 
L 204.790187 169.484376 
L 205.989932 173.209169 
L 206.903752 176.859152 
L 207.513473 180.5384 
L 207.823309 184.341717 
L 207.84427 188.215917 
L 207.586374 192.140895 
L 207.066139 196.062239 
L 206.29799 199.963552 
L 205.297094 203.830067 
L 204.074849 207.667234 
L 202.640276 211.480553 
L 201.018956 215.256 
L 199.233433 218.95785 
L 197.297364 222.53701 
L 195.216792 225.953211 
L 192.983591 229.188751 
L 190.579401 232.237669 
L 187.906513 235.195194 
L 183.343059 239.704377 
L 176.622504 246.18079 
L 173.237703 249.741631 
L 170.041037 253.443658 
L 167.033716 257.254622 
L 164.200464 261.156738 
L 161.523636 265.127603 
L 157.774663 271.174197 
L 154.293544 277.284381 
L 149.99049 285.417551 
L 148.982276 287.400521 
L 148.982276 287.400521 
" style="fill:none;stroke:#ffffff;stroke-linecap:square;"/>
   </g>
   <g id="patch_3">
    <path d="M 57.6 307.584 
L 57.6 41.472 
" style="fill:none;stroke:#000000;stroke-linecap:square;stroke-linejoin:miter;stroke-width:0.8;"/>
   </g>
   <g id="patch_4">
    <path d="M 414.72 307.584 
L 414.72 41.472 
" style="fill:none;stroke:#000000;stroke-linecap:square;stroke-linejoin:miter;stroke-width:0.8;"/>
   </g>
   <g id="patch_5">
    <path d="M 57.6 307.584 
L 414.72 307.584 
" style="fill:none;stroke:#000000;stroke-linecap:square;stroke-linejoin:miter;stroke-width:0.8;"/>
   </g>
   <g id="patch_6">
    <path d="M 57.6 41.472 
L 414.72 41.472 
" style="fill:none;stroke:#000000;stroke-linecap:square;stroke-linejoin:miter;stroke-width:0.8;"/>
   </g>
  </g>
 </g>
 <defs>
  <clipPath id="pb2fa03d677">
   <rect height="266.112" width="357.12" x="57.6" y="41.472"/>
  </clipPath>
 </defs>
</svg>
