<?xml version="1.0" encoding="utf-8" standalone="no"?>
<!DOCTYPE svg PUBLIC "-//W3C//DTD SVG 1.1//EN"
  "http://www.w3.org/Graphics/SVG/1.1/DTD/svg11.dtd">
<!-- Created with matplotlib (https://matplotlib.org/) -->
<svg height="345.6pt" version="1.1" viewBox="0 0 460.8 345.6" width="460.8pt" xmlns="http://www.w3.org/2000/svg" xmlns:xlink="http://www.w3.org/1999/xlink">
 <metadata>
  <rdf:RDF xmlns:cc="http://creativecommons.org/ns#" xmlns:dc="http://purl.org/dc/elements/1.1/" xmlns:rdf="http://www.w3.org/1999/02/22-rdf-syntax-ns#">
   <cc:Work>
    <dc:type rdf:resource="http://purl.org/dc/dcmitype/StillImage"/>
    <dc:date>2021-01-23T13:47:59.663418</dc:date>
    <dc:format>image/svg+xml</dc:format>
    <dc:creator>
     <cc:Agent>
      <dc:title>Matplotlib v3.3.3, https://matplotlib.org/</dc:title>
     </cc:Agent>
    </dc:creator>
   </cc:Work>
  </rdf:RDF>
 </metadata>
 <defs>
  <style type="text/css">*{stroke-linecap:butt;stroke-linejoin:round;}</style>
 </defs>
 <g id="figure_1">
  <g id="patch_1">
   <path d="M 0 345.6 
L 460.8 345.6 
L 460.8 0 
L 0 0 
z
" style="fill:#ffffff;"/>
  </g>
  <g id="axes_1">
   <g id="patch_2">
    <path d="M 57.6 307.584 
L 414.72 307.584 
L 414.72 41.472 
L 57.6 41.472 
z
" style="fill:#7d9051;"/>
   </g>
   <g id="matplotlib.axis_1">
    <g id="xtick_1">
     <g id="line2d_1">
      <defs>
       <path d="M 0 0 
L 0 3.5 
" id="m932c0bdd1d" style="stroke:#000000;stroke-width:0.8;"/>
      </defs>
      <g>
       <use style="stroke:#000000;stroke-width:0.8;" x="100.376656" xlink:href="#m932c0bdd1d" y="307.584"/>
      </g>
     </g>
     <g id="text_1">
      <!-- −20 -->
      <g transform="translate(89.824313 322.182437)scale(0.1 -0.1)">
       <defs>
        <path d="M 10.59375 35.5 
L 73.1875 35.5 
L 73.1875 27.203125 
L 10.59375 27.203125 
z
" id="DejaVuSans-8722"/>
        <path d="M 19.1875 8.296875 
L 53.609375 8.296875 
L 53.609375 0 
L 7.328125 0 
L 7.328125 8.296875 
Q 12.9375 14.109375 22.625 23.890625 
Q 32.328125 33.6875 34.8125 36.53125 
Q 39.546875 41.84375 41.421875 45.53125 
Q 43.3125 49.21875 43.3125 52.78125 
Q 43.3125 58.59375 39.234375 62.25 
Q 35.15625 65.921875 28.609375 65.921875 
Q 23.96875 65.921875 18.8125 64.3125 
Q 13.671875 62.703125 7.8125 59.421875 
L 7.8125 69.390625 
Q 13.765625 71.78125 18.9375 73 
Q 24.125 74.21875 28.421875 74.21875 
Q 39.75 74.21875 46.484375 68.546875 
Q 53.21875 62.890625 53.21875 53.421875 
Q 53.21875 48.921875 51.53125 44.890625 
Q 49.859375 40.875 45.40625 35.40625 
Q 44.1875 33.984375 37.640625 27.21875 
Q 31.109375 20.453125 19.1875 8.296875 
z
" id="DejaVuSans-50"/>
        <path d="M 31.78125 66.40625 
Q 24.171875 66.40625 20.328125 58.90625 
Q 16.5 51.421875 16.5 36.375 
Q 16.5 21.390625 20.328125 13.890625 
Q 24.171875 6.390625 31.78125 6.390625 
Q 39.453125 6.390625 43.28125 13.890625 
Q 47.125 21.390625 47.125 36.375 
Q 47.125 51.421875 43.28125 58.90625 
Q 39.453125 66.40625 31.78125 66.40625 
z
M 31.78125 74.21875 
Q 44.046875 74.21875 50.515625 64.515625 
Q 56.984375 54.828125 56.984375 36.375 
Q 56.984375 17.96875 50.515625 8.265625 
Q 44.046875 -1.421875 31.78125 -1.421875 
Q 19.53125 -1.421875 13.0625 8.265625 
Q 6.59375 17.96875 6.59375 36.375 
Q 6.59375 54.828125 13.0625 64.515625 
Q 19.53125 74.21875 31.78125 74.21875 
z
" id="DejaVuSans-48"/>
       </defs>
       <use xlink:href="#DejaVuSans-8722"/>
       <use x="83.789062" xlink:href="#DejaVuSans-50"/>
       <use x="147.412109" xlink:href="#DejaVuSans-48"/>
      </g>
     </g>
    </g>
    <g id="xtick_2">
     <g id="line2d_2">
      <g>
       <use style="stroke:#000000;stroke-width:0.8;" x="147.496156" xlink:href="#m932c0bdd1d" y="307.584"/>
      </g>
     </g>
     <g id="text_2">
      <!-- 0 -->
      <g transform="translate(144.314906 322.182437)scale(0.1 -0.1)">
       <use xlink:href="#DejaVuSans-48"/>
      </g>
     </g>
    </g>
    <g id="xtick_3">
     <g id="line2d_3">
      <g>
       <use style="stroke:#000000;stroke-width:0.8;" x="194.615656" xlink:href="#m932c0bdd1d" y="307.584"/>
      </g>
     </g>
     <g id="text_3">
      <!-- 20 -->
      <g transform="translate(188.253156 322.182437)scale(0.1 -0.1)">
       <use xlink:href="#DejaVuSans-50"/>
       <use x="63.623047" xlink:href="#DejaVuSans-48"/>
      </g>
     </g>
    </g>
    <g id="xtick_4">
     <g id="line2d_4">
      <g>
       <use style="stroke:#000000;stroke-width:0.8;" x="241.735155" xlink:href="#m932c0bdd1d" y="307.584"/>
      </g>
     </g>
     <g id="text_4">
      <!-- 40 -->
      <g transform="translate(235.372655 322.182437)scale(0.1 -0.1)">
       <defs>
        <path d="M 37.796875 64.3125 
L 12.890625 25.390625 
L 37.796875 25.390625 
z
M 35.203125 72.90625 
L 47.609375 72.90625 
L 47.609375 25.390625 
L 58.015625 25.390625 
L 58.015625 17.1875 
L 47.609375 17.1875 
L 47.609375 0 
L 37.796875 0 
L 37.796875 17.1875 
L 4.890625 17.1875 
L 4.890625 26.703125 
z
" id="DejaVuSans-52"/>
       </defs>
       <use xlink:href="#DejaVuSans-52"/>
       <use x="63.623047" xlink:href="#DejaVuSans-48"/>
      </g>
     </g>
    </g>
    <g id="xtick_5">
     <g id="line2d_5">
      <g>
       <use style="stroke:#000000;stroke-width:0.8;" x="288.854655" xlink:href="#m932c0bdd1d" y="307.584"/>
      </g>
     </g>
     <g id="text_5">
      <!-- 60 -->
      <g transform="translate(282.492155 322.182437)scale(0.1 -0.1)">
       <defs>
        <path d="M 33.015625 40.375 
Q 26.375 40.375 22.484375 35.828125 
Q 18.609375 31.296875 18.609375 23.390625 
Q 18.609375 15.53125 22.484375 10.953125 
Q 26.375 6.390625 33.015625 6.390625 
Q 39.65625 6.390625 43.53125 10.953125 
Q 47.40625 15.53125 47.40625 23.390625 
Q 47.40625 31.296875 43.53125 35.828125 
Q 39.65625 40.375 33.015625 40.375 
z
M 52.59375 71.296875 
L 52.59375 62.3125 
Q 48.875 64.0625 45.09375 64.984375 
Q 41.3125 65.921875 37.59375 65.921875 
Q 27.828125 65.921875 22.671875 59.328125 
Q 17.53125 52.734375 16.796875 39.40625 
Q 19.671875 43.65625 24.015625 45.921875 
Q 28.375 48.1875 33.59375 48.1875 
Q 44.578125 48.1875 50.953125 41.515625 
Q 57.328125 34.859375 57.328125 23.390625 
Q 57.328125 12.15625 50.6875 5.359375 
Q 44.046875 -1.421875 33.015625 -1.421875 
Q 20.359375 -1.421875 13.671875 8.265625 
Q 6.984375 17.96875 6.984375 36.375 
Q 6.984375 53.65625 15.1875 63.9375 
Q 23.390625 74.21875 37.203125 74.21875 
Q 40.921875 74.21875 44.703125 73.484375 
Q 48.484375 72.75 52.59375 71.296875 
z
" id="DejaVuSans-54"/>
       </defs>
       <use xlink:href="#DejaVuSans-54"/>
       <use x="63.623047" xlink:href="#DejaVuSans-48"/>
      </g>
     </g>
    </g>
    <g id="xtick_6">
     <g id="line2d_6">
      <g>
       <use style="stroke:#000000;stroke-width:0.8;" x="335.974155" xlink:href="#m932c0bdd1d" y="307.584"/>
      </g>
     </g>
     <g id="text_6">
      <!-- 80 -->
      <g transform="translate(329.611655 322.182437)scale(0.1 -0.1)">
       <defs>
        <path d="M 31.78125 34.625 
Q 24.75 34.625 20.71875 30.859375 
Q 16.703125 27.09375 16.703125 20.515625 
Q 16.703125 13.921875 20.71875 10.15625 
Q 24.75 6.390625 31.78125 6.390625 
Q 38.8125 6.390625 42.859375 10.171875 
Q 46.921875 13.96875 46.921875 20.515625 
Q 46.921875 27.09375 42.890625 30.859375 
Q 38.875 34.625 31.78125 34.625 
z
M 21.921875 38.8125 
Q 15.578125 40.375 12.03125 44.71875 
Q 8.5 49.078125 8.5 55.328125 
Q 8.5 64.0625 14.71875 69.140625 
Q 20.953125 74.21875 31.78125 74.21875 
Q 42.671875 74.21875 48.875 69.140625 
Q 55.078125 64.0625 55.078125 55.328125 
Q 55.078125 49.078125 51.53125 44.71875 
Q 48 40.375 41.703125 38.8125 
Q 48.828125 37.15625 52.796875 32.3125 
Q 56.78125 27.484375 56.78125 20.515625 
Q 56.78125 9.90625 50.3125 4.234375 
Q 43.84375 -1.421875 31.78125 -1.421875 
Q 19.734375 -1.421875 13.25 4.234375 
Q 6.78125 9.90625 6.78125 20.515625 
Q 6.78125 27.484375 10.78125 32.3125 
Q 14.796875 37.15625 21.921875 38.8125 
z
M 18.3125 54.390625 
Q 18.3125 48.734375 21.84375 45.5625 
Q 25.390625 42.390625 31.78125 42.390625 
Q 38.140625 42.390625 41.71875 45.5625 
Q 45.3125 48.734375 45.3125 54.390625 
Q 45.3125 60.0625 41.71875 63.234375 
Q 38.140625 66.40625 31.78125 66.40625 
Q 25.390625 66.40625 21.84375 63.234375 
Q 18.3125 60.0625 18.3125 54.390625 
z
" id="DejaVuSans-56"/>
       </defs>
       <use xlink:href="#DejaVuSans-56"/>
       <use x="63.623047" xlink:href="#DejaVuSans-48"/>
      </g>
     </g>
    </g>
    <g id="xtick_7">
     <g id="line2d_7">
      <g>
       <use style="stroke:#000000;stroke-width:0.8;" x="383.093654" xlink:href="#m932c0bdd1d" y="307.584"/>
      </g>
     </g>
     <g id="text_7">
      <!-- 100 -->
      <g transform="translate(373.549904 322.182437)scale(0.1 -0.1)">
       <defs>
        <path d="M 12.40625 8.296875 
L 28.515625 8.296875 
L 28.515625 63.921875 
L 10.984375 60.40625 
L 10.984375 69.390625 
L 28.421875 72.90625 
L 38.28125 72.90625 
L 38.28125 8.296875 
L 54.390625 8.296875 
L 54.390625 0 
L 12.40625 0 
z
" id="DejaVuSans-49"/>
       </defs>
       <use xlink:href="#DejaVuSans-49"/>
       <use x="63.623047" xlink:href="#DejaVuSans-48"/>
       <use x="127.246094" xlink:href="#DejaVuSans-48"/>
      </g>
     </g>
    </g>
   </g>
   <g id="matplotlib.axis_2">
    <g id="ytick_1">
     <g id="line2d_8">
      <defs>
       <path d="M 0 0 
L -3.5 0 
" id="mabefcc3044" style="stroke:#000000;stroke-width:0.8;"/>
      </defs>
      <g>
       <use style="stroke:#000000;stroke-width:0.8;" x="57.6" xlink:href="#mabefcc3044" y="271.164833"/>
      </g>
     </g>
     <g id="text_8">
      <!-- 20 -->
      <g transform="translate(37.875 274.964052)scale(0.1 -0.1)">
       <use xlink:href="#DejaVuSans-50"/>
       <use x="63.623047" xlink:href="#DejaVuSans-48"/>
      </g>
     </g>
    </g>
    <g id="ytick_2">
     <g id="line2d_9">
      <g>
       <use style="stroke:#000000;stroke-width:0.8;" x="57.6" xlink:href="#mabefcc3044" y="224.045334"/>
      </g>
     </g>
     <g id="text_9">
      <!-- 40 -->
      <g transform="translate(37.875 227.844552)scale(0.1 -0.1)">
       <use xlink:href="#DejaVuSans-52"/>
       <use x="63.623047" xlink:href="#DejaVuSans-48"/>
      </g>
     </g>
    </g>
    <g id="ytick_3">
     <g id="line2d_10">
      <g>
       <use style="stroke:#000000;stroke-width:0.8;" x="57.6" xlink:href="#mabefcc3044" y="176.925834"/>
      </g>
     </g>
     <g id="text_10">
      <!-- 60 -->
      <g transform="translate(37.875 180.725053)scale(0.1 -0.1)">
       <use xlink:href="#DejaVuSans-54"/>
       <use x="63.623047" xlink:href="#DejaVuSans-48"/>
      </g>
     </g>
    </g>
    <g id="ytick_4">
     <g id="line2d_11">
      <g>
       <use style="stroke:#000000;stroke-width:0.8;" x="57.6" xlink:href="#mabefcc3044" y="129.806334"/>
      </g>
     </g>
     <g id="text_11">
      <!-- 80 -->
      <g transform="translate(37.875 133.605553)scale(0.1 -0.1)">
       <use xlink:href="#DejaVuSans-56"/>
       <use x="63.623047" xlink:href="#DejaVuSans-48"/>
      </g>
     </g>
    </g>
    <g id="ytick_5">
     <g id="line2d_12">
      <g>
       <use style="stroke:#000000;stroke-width:0.8;" x="57.6" xlink:href="#mabefcc3044" y="82.686835"/>
      </g>
     </g>
     <g id="text_12">
      <!-- 100 -->
      <g transform="translate(31.5125 86.486053)scale(0.1 -0.1)">
       <use xlink:href="#DejaVuSans-49"/>
       <use x="63.623047" xlink:href="#DejaVuSans-48"/>
       <use x="127.246094" xlink:href="#DejaVuSans-48"/>
      </g>
     </g>
    </g>
   </g>
   <g id="line2d_13">
    <path clip-path="url(#pae011fc901)" d="M 171.055906 185.419124 
L 173.630987 178.831818 
L 175.913926 172.136137 
L 177.900013 165.346217 
L 179.591603 158.47855 
L 180.993408 151.544915 
L 182.100717 144.55945 
L 182.91824 137.536288 
L 183.888902 125.794109 
L 184.541507 118.756812 
L 185.125789 114.082557 
L 185.879701 109.427151 
L 186.826802 104.807084 
L 187.995366 100.234136 
L 189.411307 95.717732 
L 191.095829 91.274363 
L 193.077204 86.937013 
L 195.388416 82.776362 
L 196.674778 80.780851 
L 198.055379 78.853663 
L 199.532576 77.004223 
L 201.108723 75.234886 
L 202.790889 73.562143 
L 204.576718 71.985996 
L 206.463854 70.518224 
L 208.438161 69.161182 
L 210.494927 67.924295 
L 212.620017 66.809919 
L 214.811073 65.827478 
L 217.051606 64.981683 
L 219.339257 64.277246 
L 221.659893 63.721236 
L 224.0088 63.32072 
L 226.371843 63.075699 
L 228.746665 62.988528 
L 231.123844 63.052139 
L 233.493955 63.259465 
L 235.854642 63.605793 
L 238.196481 64.088768 
L 240.512404 64.703678 
L 242.795344 65.441098 
L 245.038232 66.298673 
L 247.234001 67.274046 
L 249.375582 68.357795 
L 251.455908 69.549918 
L 253.467911 70.84806 
L 255.404522 72.247509 
L 257.258675 73.748265 
L 259.0233 75.350328 
L 260.69133 77.04663 
L 262.258053 78.837171 
L 263.71169 80.719595 
L 265.049884 82.689191 
L 266.263211 84.748313 
L 267.349315 86.88047 
L 268.303485 89.080951 
L 269.125721 91.337975 
L 269.811309 93.637406 
L 270.357895 95.974533 
L 270.760767 98.33522 
L 271.019924 100.712399 
L 271.128299 103.089578 
L 271.088248 105.462045 
L 270.892702 107.820376 
L 270.555797 110.157503 
L 270.086958 112.475782 
L 269.497965 114.768146 
L 267.997209 119.279838 
L 266.143056 123.676087 
L 264.025035 127.938046 
L 261.725603 132.06807 
L 256.858159 140.106657 
L 253.225245 146.170936 
L 250.937594 150.333944 
L 248.845488 154.626531 
L 247.043167 159.039272 
L 246.279831 161.286872 
L 245.627226 163.560388 
L 245.09242 165.859819 
L 244.691904 168.182811 
L 244.435103 170.527006 
L 244.329084 172.892405 
L 244.376203 175.267228 
L 244.569393 177.644406 
L 244.903942 180.014517 
L 245.375137 182.363424 
L 245.980622 184.686415 
L 246.713331 186.974067 
L 247.568549 189.212243 
L 248.541567 191.39152 
L 249.630028 193.507186 
L 250.824507 195.54746 
L 253.496183 199.427751 
L 256.462355 203.096004 
L 259.633497 206.608763 
L 277.475296 225.447139 
L 282.114211 230.811694 
L 285.101587 234.498795 
L 287.938181 238.296626 
L 290.562737 242.221681 
L 292.911644 246.295161 
L 294.930715 250.53356 
L 296.596389 254.92981 
L 297.936939 259.457994 
L 298.971212 264.087484 
L 299.72748 268.792366 
L 300.229302 273.544368 
L 300.500239 278.312861 
L 300.566207 283.069575 
L 300.450764 287.786237 
L 299.991349 294.724583 
L 299.991349 294.724583 
" style="fill:none;stroke:#fea952;stroke-linecap:square;"/>
   </g>
   <g id="line2d_14">
    <path clip-path="url(#pae011fc901)" d="M 162.330945 181.857531 
L 164.757811 175.657444 
L 166.909004 169.357421 
L 168.782386 162.963201 
L 170.381603 156.482108 
L 171.706259 149.945305 
L 172.755345 143.345398 
L 173.533429 136.678841 
L 174.497489 125.012276 
L 175.181257 117.663369 
L 175.808233 112.670806 
L 176.627392 107.636989 
L 177.668446 102.585735 
L 178.964784 97.539981 
L 180.547704 92.516727 
L 182.45523 87.512723 
L 184.743492 82.537112 
L 186.050413 80.080021 
L 187.467621 77.670395 
L 189.013836 75.292694 
L 190.691976 72.972321 
L 192.495789 70.735768 
L 194.463764 68.55249 
L 196.554908 66.496563 
L 198.791003 64.54722 
L 201.12573 62.751994 
L 203.581444 61.085156 
L 206.118369 59.578301 
L 208.764318 58.21088 
L 211.482825 57.010865 
L 214.278215 55.975119 
L 217.143493 55.112722 
L 220.075871 54.431415 
L 223.036856 53.947075 
L 226.026158 53.658141 
L 228.998751 53.568 
L 231.945065 53.664089 
L 234.861861 53.935371 
L 237.758143 54.376136 
L 240.614863 54.980458 
L 243.409083 55.736005 
L 246.160972 56.638687 
L 248.863926 57.686242 
L 251.489149 58.865503 
L 254.061115 60.181263 
L 256.565069 61.631183 
L 258.987551 63.209771 
L 261.333488 64.922398 
L 263.593238 66.770931 
L 265.742764 68.742856 
L 267.783538 70.840949 
L 269.716892 73.077343 
L 271.506643 75.423503 
L 273.169081 77.904995 
L 274.66042 80.47084 
L 275.995367 83.131379 
L 277.158114 85.855204 
L 278.156751 88.645321 
L 278.987598 91.491339 
L 279.647489 94.389184 
L 280.129159 97.313889 
L 280.434046 100.283212 
L 280.550857 103.248648 
L 280.479918 106.240775 
L 280.220187 109.164963 
L 279.792699 112.025535 
L 279.214391 114.82096 
L 278.500672 117.55403 
L 277.673716 120.198278 
L 275.727562 125.303973 
L 273.492893 130.132416 
L 271.082724 134.678719 
L 267.350134 141.02865 
L 261.436134 150.795998 
L 259.347897 154.585613 
L 257.499216 158.357869 
L 255.966484 162.069832 
L 254.806132 165.695236 
L 254.059761 169.209038 
L 253.849551 170.948968 
L 253.751129 172.705459 
L 253.769136 174.503877 
L 254.143765 178.160992 
L 254.955421 181.811892 
L 256.173684 185.370167 
L 257.76269 188.745916 
L 259.757697 192.001807 
L 262.177076 195.239212 
L 264.959183 198.481498 
L 269.663001 203.450933 
L 279.630067 213.829563 
L 284.540045 219.210216 
L 289.38367 224.814624 
L 292.583015 228.768339 
L 295.694542 232.944174 
L 298.640336 237.367581 
L 301.331166 242.061777 
L 302.559561 244.523952 
L 303.674052 247.017321 
L 305.58442 252.096933 
L 307.100024 257.25623 
L 308.25293 262.45666 
L 309.085172 267.677249 
L 309.631374 272.903318 
L 309.921485 278.089212 
L 309.989055 283.210354 
L 309.862692 288.261107 
L 309.384276 295.488 
L 309.384276 295.488 
" style="fill:none;stroke:#ffffff;stroke-linecap:square;"/>
   </g>
   <g id="line2d_15">
    <path clip-path="url(#pae011fc901)" d="M 179.780867 188.980717 
L 181.635672 184.336228 
L 184.149486 177.288415 
L 186.353622 170.132757 
L 188.244074 162.894679 
L 189.818867 155.603812 
L 191.090913 148.239113 
L 192.049384 140.850837 
L 192.724243 133.594588 
L 193.901756 119.850255 
L 194.766062 113.351328 
L 195.537758 109.108077 
L 196.48413 104.959289 
L 197.623939 100.911203 
L 198.975259 96.965657 
L 200.548005 93.156647 
L 202.328036 89.581523 
L 204.33572 86.269007 
L 206.569362 83.272678 
L 209.02687 80.627724 
L 210.362433 79.424773 
L 213.294878 77.237208 
L 216.475715 75.408959 
L 219.824996 73.988246 
L 223.243914 73.011056 
L 224.980743 72.694365 
L 226.717527 72.493256 
L 228.49458 72.409055 
L 230.302623 72.440189 
L 233.951141 72.835451 
L 237.615726 73.67135 
L 241.212539 74.911103 
L 244.69005 76.534327 
L 247.948271 78.48635 
L 250.924112 80.7256 
L 253.599123 83.252312 
L 255.916737 86.015688 
L 256.930686 87.473386 
L 258.703264 90.629561 
L 260.09469 94.030628 
L 261.068302 97.559883 
L 261.605803 101.141586 
L 261.696578 104.683315 
L 261.565217 106.475789 
L 260.959526 110.130604 
L 259.918053 113.875621 
L 258.49045 117.680224 
L 256.729386 121.517057 
L 254.700898 125.358025 
L 251.280748 131.179061 
L 245.014357 141.545875 
L 242.52729 146.082275 
L 240.19176 150.895192 
L 238.11985 156.008711 
L 237.22172 158.686772 
L 236.44832 161.42554 
L 235.805542 164.258634 
L 235.324047 167.156583 
L 235.020654 170.105044 
L 234.907038 173.07935 
L 234.983271 176.030578 
L 235.237995 178.961562 
L 235.664118 181.868042 
L 236.255918 184.74034 
L 237.005824 187.560939 
L 237.910192 190.337793 
L 238.963415 193.05432 
L 240.161659 195.702787 
L 241.497365 198.268456 
L 242.944461 200.716093 
L 244.478177 203.037016 
L 247.71785 207.329306 
L 251.098974 211.253896 
L 256.16774 216.608344 
L 265.802386 226.637169 
L 271.916079 233.388833 
L 276.250066 238.509928 
L 278.925239 241.928546 
L 281.371083 245.36533 
L 283.528297 248.799723 
L 285.374681 252.264718 
L 286.929058 255.873471 
L 288.223963 259.696686 
L 289.261757 263.669617 
L 290.058275 267.794159 
L 290.625995 272.028923 
L 290.977685 276.356532 
L 291.132957 280.732148 
L 291.112431 285.114105 
L 290.784543 291.671158 
L 290.598421 293.961166 
L 290.598421 293.961166 
" style="fill:none;stroke:#ffffff;stroke-linecap:square;"/>
   </g>
   <g id="patch_3">
    <path d="M 57.6 307.584 
L 57.6 41.472 
" style="fill:none;stroke:#000000;stroke-linecap:square;stroke-linejoin:miter;stroke-width:0.8;"/>
   </g>
   <g id="patch_4">
    <path d="M 414.72 307.584 
L 414.72 41.472 
" style="fill:none;stroke:#000000;stroke-linecap:square;stroke-linejoin:miter;stroke-width:0.8;"/>
   </g>
   <g id="patch_5">
    <path d="M 57.6 307.584 
L 414.72 307.584 
" style="fill:none;stroke:#000000;stroke-linecap:square;stroke-linejoin:miter;stroke-width:0.8;"/>
   </g>
   <g id="patch_6">
    <path d="M 57.6 41.472 
L 414.72 41.472 
" style="fill:none;stroke:#000000;stroke-linecap:square;stroke-linejoin:miter;stroke-width:0.8;"/>
   </g>
  </g>
 </g>
 <defs>
  <clipPath id="pae011fc901">
   <rect height="266.112" width="357.12" x="57.6" y="41.472"/>
  </clipPath>
 </defs>
</svg>
