<?xml version="1.0" encoding="utf-8" standalone="no"?>
<!DOCTYPE svg PUBLIC "-//W3C//DTD SVG 1.1//EN"
  "http://www.w3.org/Graphics/SVG/1.1/DTD/svg11.dtd">
<!-- Created with matplotlib (https://matplotlib.org/) -->
<svg height="345.6pt" version="1.1" viewBox="0 0 460.8 345.6" width="460.8pt" xmlns="http://www.w3.org/2000/svg" xmlns:xlink="http://www.w3.org/1999/xlink">
 <metadata>
  <rdf:RDF xmlns:cc="http://creativecommons.org/ns#" xmlns:dc="http://purl.org/dc/elements/1.1/" xmlns:rdf="http://www.w3.org/1999/02/22-rdf-syntax-ns#">
   <cc:Work>
    <dc:type rdf:resource="http://purl.org/dc/dcmitype/StillImage"/>
    <dc:date>2021-01-22T10:47:05.879467</dc:date>
    <dc:format>image/svg+xml</dc:format>
    <dc:creator>
     <cc:Agent>
      <dc:title>Matplotlib v3.3.3, https://matplotlib.org/</dc:title>
     </cc:Agent>
    </dc:creator>
   </cc:Work>
  </rdf:RDF>
 </metadata>
 <defs>
  <style type="text/css">*{stroke-linecap:butt;stroke-linejoin:round;}</style>
 </defs>
 <g id="figure_1">
  <g id="patch_1">
   <path d="M 0 345.6 
L 460.8 345.6 
L 460.8 0 
L 0 0 
z
" style="fill:#ffffff;"/>
  </g>
  <g id="axes_1">
   <g id="patch_2">
    <path d="M 57.6 307.584 
L 414.72 307.584 
L 414.72 41.472 
L 57.6 41.472 
z
" style="fill:#7d9051;"/>
   </g>
   <g id="matplotlib.axis_1">
    <g id="xtick_1">
     <g id="line2d_1">
      <defs>
       <path d="M 0 0 
L 0 3.5 
" id="me1275a4d43" style="stroke:#000000;stroke-width:0.8;"/>
      </defs>
      <g>
       <use style="stroke:#000000;stroke-width:0.8;" x="122.34267" xlink:href="#me1275a4d43" y="307.584"/>
      </g>
     </g>
     <g id="text_1">
      <!-- 20 -->
      <g transform="translate(115.98017 322.182437)scale(0.1 -0.1)">
       <defs>
        <path d="M 19.1875 8.296875 
L 53.609375 8.296875 
L 53.609375 0 
L 7.328125 0 
L 7.328125 8.296875 
Q 12.9375 14.109375 22.625 23.890625 
Q 32.328125 33.6875 34.8125 36.53125 
Q 39.546875 41.84375 41.421875 45.53125 
Q 43.3125 49.21875 43.3125 52.78125 
Q 43.3125 58.59375 39.234375 62.25 
Q 35.15625 65.921875 28.609375 65.921875 
Q 23.96875 65.921875 18.8125 64.3125 
Q 13.671875 62.703125 7.8125 59.421875 
L 7.8125 69.390625 
Q 13.765625 71.78125 18.9375 73 
Q 24.125 74.21875 28.421875 74.21875 
Q 39.75 74.21875 46.484375 68.546875 
Q 53.21875 62.890625 53.21875 53.421875 
Q 53.21875 48.921875 51.53125 44.890625 
Q 49.859375 40.875 45.40625 35.40625 
Q 44.1875 33.984375 37.640625 27.21875 
Q 31.109375 20.453125 19.1875 8.296875 
z
" id="DejaVuSans-50"/>
        <path d="M 31.78125 66.40625 
Q 24.171875 66.40625 20.328125 58.90625 
Q 16.5 51.421875 16.5 36.375 
Q 16.5 21.390625 20.328125 13.890625 
Q 24.171875 6.390625 31.78125 6.390625 
Q 39.453125 6.390625 43.28125 13.890625 
Q 47.125 21.390625 47.125 36.375 
Q 47.125 51.421875 43.28125 58.90625 
Q 39.453125 66.40625 31.78125 66.40625 
z
M 31.78125 74.21875 
Q 44.046875 74.21875 50.515625 64.515625 
Q 56.984375 54.828125 56.984375 36.375 
Q 56.984375 17.96875 50.515625 8.265625 
Q 44.046875 -1.421875 31.78125 -1.421875 
Q 19.53125 -1.421875 13.0625 8.265625 
Q 6.59375 17.96875 6.59375 36.375 
Q 6.59375 54.828125 13.0625 64.515625 
Q 19.53125 74.21875 31.78125 74.21875 
z
" id="DejaVuSans-48"/>
       </defs>
       <use xlink:href="#DejaVuSans-50"/>
       <use x="63.623047" xlink:href="#DejaVuSans-48"/>
      </g>
     </g>
    </g>
    <g id="xtick_2">
     <g id="line2d_2">
      <g>
       <use style="stroke:#000000;stroke-width:0.8;" x="190.883778" xlink:href="#me1275a4d43" y="307.584"/>
      </g>
     </g>
     <g id="text_2">
      <!-- 40 -->
      <g transform="translate(184.521278 322.182437)scale(0.1 -0.1)">
       <defs>
        <path d="M 37.796875 64.3125 
L 12.890625 25.390625 
L 37.796875 25.390625 
z
M 35.203125 72.90625 
L 47.609375 72.90625 
L 47.609375 25.390625 
L 58.015625 25.390625 
L 58.015625 17.1875 
L 47.609375 17.1875 
L 47.609375 0 
L 37.796875 0 
L 37.796875 17.1875 
L 4.890625 17.1875 
L 4.890625 26.703125 
z
" id="DejaVuSans-52"/>
       </defs>
       <use xlink:href="#DejaVuSans-52"/>
       <use x="63.623047" xlink:href="#DejaVuSans-48"/>
      </g>
     </g>
    </g>
    <g id="xtick_3">
     <g id="line2d_3">
      <g>
       <use style="stroke:#000000;stroke-width:0.8;" x="259.424887" xlink:href="#me1275a4d43" y="307.584"/>
      </g>
     </g>
     <g id="text_3">
      <!-- 60 -->
      <g transform="translate(253.062387 322.182437)scale(0.1 -0.1)">
       <defs>
        <path d="M 33.015625 40.375 
Q 26.375 40.375 22.484375 35.828125 
Q 18.609375 31.296875 18.609375 23.390625 
Q 18.609375 15.53125 22.484375 10.953125 
Q 26.375 6.390625 33.015625 6.390625 
Q 39.65625 6.390625 43.53125 10.953125 
Q 47.40625 15.53125 47.40625 23.390625 
Q 47.40625 31.296875 43.53125 35.828125 
Q 39.65625 40.375 33.015625 40.375 
z
M 52.59375 71.296875 
L 52.59375 62.3125 
Q 48.875 64.0625 45.09375 64.984375 
Q 41.3125 65.921875 37.59375 65.921875 
Q 27.828125 65.921875 22.671875 59.328125 
Q 17.53125 52.734375 16.796875 39.40625 
Q 19.671875 43.65625 24.015625 45.921875 
Q 28.375 48.1875 33.59375 48.1875 
Q 44.578125 48.1875 50.953125 41.515625 
Q 57.328125 34.859375 57.328125 23.390625 
Q 57.328125 12.15625 50.6875 5.359375 
Q 44.046875 -1.421875 33.015625 -1.421875 
Q 20.359375 -1.421875 13.671875 8.265625 
Q 6.984375 17.96875 6.984375 36.375 
Q 6.984375 53.65625 15.1875 63.9375 
Q 23.390625 74.21875 37.203125 74.21875 
Q 40.921875 74.21875 44.703125 73.484375 
Q 48.484375 72.75 52.59375 71.296875 
z
" id="DejaVuSans-54"/>
       </defs>
       <use xlink:href="#DejaVuSans-54"/>
       <use x="63.623047" xlink:href="#DejaVuSans-48"/>
      </g>
     </g>
    </g>
    <g id="xtick_4">
     <g id="line2d_4">
      <g>
       <use style="stroke:#000000;stroke-width:0.8;" x="327.965995" xlink:href="#me1275a4d43" y="307.584"/>
      </g>
     </g>
     <g id="text_4">
      <!-- 80 -->
      <g transform="translate(321.603495 322.182437)scale(0.1 -0.1)">
       <defs>
        <path d="M 31.78125 34.625 
Q 24.75 34.625 20.71875 30.859375 
Q 16.703125 27.09375 16.703125 20.515625 
Q 16.703125 13.921875 20.71875 10.15625 
Q 24.75 6.390625 31.78125 6.390625 
Q 38.8125 6.390625 42.859375 10.171875 
Q 46.921875 13.96875 46.921875 20.515625 
Q 46.921875 27.09375 42.890625 30.859375 
Q 38.875 34.625 31.78125 34.625 
z
M 21.921875 38.8125 
Q 15.578125 40.375 12.03125 44.71875 
Q 8.5 49.078125 8.5 55.328125 
Q 8.5 64.0625 14.71875 69.140625 
Q 20.953125 74.21875 31.78125 74.21875 
Q 42.671875 74.21875 48.875 69.140625 
Q 55.078125 64.0625 55.078125 55.328125 
Q 55.078125 49.078125 51.53125 44.71875 
Q 48 40.375 41.703125 38.8125 
Q 48.828125 37.15625 52.796875 32.3125 
Q 56.78125 27.484375 56.78125 20.515625 
Q 56.78125 9.90625 50.3125 4.234375 
Q 43.84375 -1.421875 31.78125 -1.421875 
Q 19.734375 -1.421875 13.25 4.234375 
Q 6.78125 9.90625 6.78125 20.515625 
Q 6.78125 27.484375 10.78125 32.3125 
Q 14.796875 37.15625 21.921875 38.8125 
z
M 18.3125 54.390625 
Q 18.3125 48.734375 21.84375 45.5625 
Q 25.390625 42.390625 31.78125 42.390625 
Q 38.140625 42.390625 41.71875 45.5625 
Q 45.3125 48.734375 45.3125 54.390625 
Q 45.3125 60.0625 41.71875 63.234375 
Q 38.140625 66.40625 31.78125 66.40625 
Q 25.390625 66.40625 21.84375 63.234375 
Q 18.3125 60.0625 18.3125 54.390625 
z
" id="DejaVuSans-56"/>
       </defs>
       <use xlink:href="#DejaVuSans-56"/>
       <use x="63.623047" xlink:href="#DejaVuSans-48"/>
      </g>
     </g>
    </g>
    <g id="xtick_5">
     <g id="line2d_5">
      <g>
       <use style="stroke:#000000;stroke-width:0.8;" x="396.507104" xlink:href="#me1275a4d43" y="307.584"/>
      </g>
     </g>
     <g id="text_5">
      <!-- 100 -->
      <g transform="translate(386.963354 322.182437)scale(0.1 -0.1)">
       <defs>
        <path d="M 12.40625 8.296875 
L 28.515625 8.296875 
L 28.515625 63.921875 
L 10.984375 60.40625 
L 10.984375 69.390625 
L 28.421875 72.90625 
L 38.28125 72.90625 
L 38.28125 8.296875 
L 54.390625 8.296875 
L 54.390625 0 
L 12.40625 0 
z
" id="DejaVuSans-49"/>
       </defs>
       <use xlink:href="#DejaVuSans-49"/>
       <use x="63.623047" xlink:href="#DejaVuSans-48"/>
       <use x="127.246094" xlink:href="#DejaVuSans-48"/>
      </g>
     </g>
    </g>
   </g>
   <g id="matplotlib.axis_2">
    <g id="ytick_1">
     <g id="line2d_6">
      <defs>
       <path d="M 0 0 
L -3.5 0 
" id="m945e4b5bfe" style="stroke:#000000;stroke-width:0.8;"/>
      </defs>
      <g>
       <use style="stroke:#000000;stroke-width:0.8;" x="57.6" xlink:href="#m945e4b5bfe" y="284.559256"/>
      </g>
     </g>
     <g id="text_6">
      <!-- 10 -->
      <g transform="translate(37.875 288.358475)scale(0.1 -0.1)">
       <use xlink:href="#DejaVuSans-49"/>
       <use x="63.623047" xlink:href="#DejaVuSans-48"/>
      </g>
     </g>
    </g>
    <g id="ytick_2">
     <g id="line2d_7">
      <g>
       <use style="stroke:#000000;stroke-width:0.8;" x="57.6" xlink:href="#m945e4b5bfe" y="250.12783"/>
      </g>
     </g>
     <g id="text_7">
      <!-- 20 -->
      <g transform="translate(37.875 253.927049)scale(0.1 -0.1)">
       <use xlink:href="#DejaVuSans-50"/>
       <use x="63.623047" xlink:href="#DejaVuSans-48"/>
      </g>
     </g>
    </g>
    <g id="ytick_3">
     <g id="line2d_8">
      <g>
       <use style="stroke:#000000;stroke-width:0.8;" x="57.6" xlink:href="#m945e4b5bfe" y="215.696404"/>
      </g>
     </g>
     <g id="text_8">
      <!-- 30 -->
      <g transform="translate(37.875 219.495623)scale(0.1 -0.1)">
       <defs>
        <path d="M 40.578125 39.3125 
Q 47.65625 37.796875 51.625 33 
Q 55.609375 28.21875 55.609375 21.1875 
Q 55.609375 10.40625 48.1875 4.484375 
Q 40.765625 -1.421875 27.09375 -1.421875 
Q 22.515625 -1.421875 17.65625 -0.515625 
Q 12.796875 0.390625 7.625 2.203125 
L 7.625 11.71875 
Q 11.71875 9.328125 16.59375 8.109375 
Q 21.484375 6.890625 26.8125 6.890625 
Q 36.078125 6.890625 40.9375 10.546875 
Q 45.796875 14.203125 45.796875 21.1875 
Q 45.796875 27.640625 41.28125 31.265625 
Q 36.765625 34.90625 28.71875 34.90625 
L 20.21875 34.90625 
L 20.21875 43.015625 
L 29.109375 43.015625 
Q 36.375 43.015625 40.234375 45.921875 
Q 44.09375 48.828125 44.09375 54.296875 
Q 44.09375 59.90625 40.109375 62.90625 
Q 36.140625 65.921875 28.71875 65.921875 
Q 24.65625 65.921875 20.015625 65.03125 
Q 15.375 64.15625 9.8125 62.3125 
L 9.8125 71.09375 
Q 15.4375 72.65625 20.34375 73.4375 
Q 25.25 74.21875 29.59375 74.21875 
Q 40.828125 74.21875 47.359375 69.109375 
Q 53.90625 64.015625 53.90625 55.328125 
Q 53.90625 49.265625 50.4375 45.09375 
Q 46.96875 40.921875 40.578125 39.3125 
z
" id="DejaVuSans-51"/>
       </defs>
       <use xlink:href="#DejaVuSans-51"/>
       <use x="63.623047" xlink:href="#DejaVuSans-48"/>
      </g>
     </g>
    </g>
    <g id="ytick_4">
     <g id="line2d_9">
      <g>
       <use style="stroke:#000000;stroke-width:0.8;" x="57.6" xlink:href="#m945e4b5bfe" y="181.264978"/>
      </g>
     </g>
     <g id="text_9">
      <!-- 40 -->
      <g transform="translate(37.875 185.064197)scale(0.1 -0.1)">
       <use xlink:href="#DejaVuSans-52"/>
       <use x="63.623047" xlink:href="#DejaVuSans-48"/>
      </g>
     </g>
    </g>
    <g id="ytick_5">
     <g id="line2d_10">
      <g>
       <use style="stroke:#000000;stroke-width:0.8;" x="57.6" xlink:href="#m945e4b5bfe" y="146.833552"/>
      </g>
     </g>
     <g id="text_10">
      <!-- 50 -->
      <g transform="translate(37.875 150.63277)scale(0.1 -0.1)">
       <defs>
        <path d="M 10.796875 72.90625 
L 49.515625 72.90625 
L 49.515625 64.59375 
L 19.828125 64.59375 
L 19.828125 46.734375 
Q 21.96875 47.46875 24.109375 47.828125 
Q 26.265625 48.1875 28.421875 48.1875 
Q 40.625 48.1875 47.75 41.5 
Q 54.890625 34.8125 54.890625 23.390625 
Q 54.890625 11.625 47.5625 5.09375 
Q 40.234375 -1.421875 26.90625 -1.421875 
Q 22.3125 -1.421875 17.546875 -0.640625 
Q 12.796875 0.140625 7.71875 1.703125 
L 7.71875 11.625 
Q 12.109375 9.234375 16.796875 8.0625 
Q 21.484375 6.890625 26.703125 6.890625 
Q 35.15625 6.890625 40.078125 11.328125 
Q 45.015625 15.765625 45.015625 23.390625 
Q 45.015625 31 40.078125 35.4375 
Q 35.15625 39.890625 26.703125 39.890625 
Q 22.75 39.890625 18.8125 39.015625 
Q 14.890625 38.140625 10.796875 36.28125 
z
" id="DejaVuSans-53"/>
       </defs>
       <use xlink:href="#DejaVuSans-53"/>
       <use x="63.623047" xlink:href="#DejaVuSans-48"/>
      </g>
     </g>
    </g>
    <g id="ytick_6">
     <g id="line2d_11">
      <g>
       <use style="stroke:#000000;stroke-width:0.8;" x="57.6" xlink:href="#m945e4b5bfe" y="112.402126"/>
      </g>
     </g>
     <g id="text_11">
      <!-- 60 -->
      <g transform="translate(37.875 116.201344)scale(0.1 -0.1)">
       <use xlink:href="#DejaVuSans-54"/>
       <use x="63.623047" xlink:href="#DejaVuSans-48"/>
      </g>
     </g>
    </g>
    <g id="ytick_7">
     <g id="line2d_12">
      <g>
       <use style="stroke:#000000;stroke-width:0.8;" x="57.6" xlink:href="#m945e4b5bfe" y="77.970699"/>
      </g>
     </g>
     <g id="text_12">
      <!-- 70 -->
      <g transform="translate(37.875 81.769918)scale(0.1 -0.1)">
       <defs>
        <path d="M 8.203125 72.90625 
L 55.078125 72.90625 
L 55.078125 68.703125 
L 28.609375 0 
L 18.3125 0 
L 43.21875 64.59375 
L 8.203125 64.59375 
z
" id="DejaVuSans-55"/>
       </defs>
       <use xlink:href="#DejaVuSans-55"/>
       <use x="63.623047" xlink:href="#DejaVuSans-48"/>
      </g>
     </g>
    </g>
    <g id="ytick_8">
     <g id="line2d_13">
      <g>
       <use style="stroke:#000000;stroke-width:0.8;" x="57.6" xlink:href="#m945e4b5bfe" y="43.539273"/>
      </g>
     </g>
     <g id="text_13">
      <!-- 80 -->
      <g transform="translate(37.875 47.338492)scale(0.1 -0.1)">
       <use xlink:href="#DejaVuSans-56"/>
       <use x="63.623047" xlink:href="#DejaVuSans-48"/>
      </g>
     </g>
    </g>
   </g>
   <g id="line2d_14">
    <path clip-path="url(#p846e9202bc)" d="M 88.072116 284.559256 
L 87.657442 274.226385 
L 87.540922 267.295339 
L 87.602609 260.347077 
L 87.883628 253.402259 
L 88.414821 246.474656 
L 89.244169 239.584927 
L 90.40594 232.750289 
L 91.941261 225.987957 
L 93.891256 219.315147 
L 95.032465 216.016616 
L 96.293622 212.749074 
L 97.674725 209.526292 
L 99.182629 206.358601 
L 100.817335 203.259773 
L 102.585695 200.240137 
L 104.491138 197.316909 
L 106.533663 194.500418 
L 108.720125 191.804437 
L 111.053949 189.239296 
L 113.538564 186.82221 
L 116.17397 184.563508 
L 118.946458 182.459748 
L 121.845747 180.524702 
L 124.858129 178.754927 
L 127.973322 177.157309 
L 131.177619 175.735291 
L 134.453884 174.492316 
L 137.79869 173.428385 
L 141.191475 172.553827 
L 144.625384 171.865199 
L 148.083283 171.369386 
L 151.558317 171.062946 
L 155.043633 170.942436 
L 158.528948 171.004413 
L 162.007409 171.248876 
L 165.461881 171.668939 
L 168.892364 172.268046 
L 172.285149 173.042753 
L 175.633382 173.986174 
L 178.926782 175.098309 
L 182.158495 176.375715 
L 185.321667 177.808063 
L 188.416298 179.391908 
L 191.438961 181.116923 
L 194.379375 182.97622 
L 197.240966 184.966356 
L 200.013454 187.073559 
L 202.696838 189.290943 
L 205.284265 191.615065 
L 207.772308 194.035594 
L 210.164392 196.549088 
L 212.457092 199.145217 
L 214.653835 201.820539 
L 216.764901 204.57161 
L 220.719723 210.270011 
L 224.352402 216.19566 
L 227.6835 222.307238 
L 232.296316 231.665699 
L 235.366958 237.887458 
L 238.64665 243.964605 
L 240.418438 246.918821 
L 242.313599 249.793845 
L 244.34927 252.582791 
L 246.535731 255.271885 
L 248.862702 257.857685 
L 251.323328 260.329862 
L 253.907328 262.681528 
L 256.60442 264.912684 
L 259.404325 267.009558 
L 262.300186 268.968706 
L 265.281725 270.783243 
L 268.342085 272.449724 
L 271.46756 273.95782 
L 274.651294 275.310975 
L 277.889862 276.516075 
L 281.179835 277.576563 
L 284.510933 278.499325 
L 287.883155 279.291248 
L 291.286221 279.959218 
L 294.716704 280.513564 
L 301.635929 281.295157 
L 308.603132 281.684232 
L 315.566909 281.642914 
L 319.035089 281.439769 
L 322.486134 281.109227 
L 325.913189 280.637517 
L 329.309401 280.014308 
L 332.671342 279.236158 
L 335.992159 278.29618 
L 339.268424 277.180602 
L 342.486429 275.892866 
L 345.642747 274.436417 
L 348.727097 272.814697 
L 351.732625 271.041478 
L 354.645622 269.109875 
L 357.459234 267.037103 
L 360.166608 264.81972 
L 362.754035 262.468053 
L 365.218088 259.982104 
L 367.548486 257.372202 
L 369.741801 254.645233 
L 371.79118 251.811527 
L 373.693196 248.874526 
L 375.451275 245.851447 
L 377.058564 242.745732 
L 378.511636 239.567712 
L 379.81049 236.327715 
L 380.951699 233.03607 
L 381.931837 229.699665 
L 382.747476 226.325385 
L 383.412325 222.927003 
L 383.926383 219.501077 
L 384.310214 216.054491 
L 384.574097 212.590689 
L 384.77972 205.632098 
L 384.635784 198.659734 
L 384.234818 191.708029 
L 383.330076 181.340727 
L 381.681662 164.1319 
L 381.19502 157.235286 
L 380.711805 146.867983 
L 380.112071 133.023107 
L 379.649418 126.109276 
L 378.977715 119.209219 
L 378.079827 112.336706 
L 376.948899 105.495181 
L 375.581503 98.698418 
L 373.974214 91.960188 
L 372.120177 85.283934 
L 370.015965 78.68343 
L 367.654724 72.169004 
L 365.036454 65.747543 
L 362.1543 59.436263 
L 362.1543 59.436263 
" style="fill:none;stroke:#fea952;stroke-linecap:square;"/>
   </g>
   <g id="line2d_15">
    <path clip-path="url(#p846e9202bc)" d="M 74.379753 285.221562 
L 73.952809 274.541496 
L 73.832727 267.26804 
L 73.901276 259.910506 
L 74.205647 252.487932 
L 74.786996 244.985229 
L 75.701712 237.449575 
L 76.999028 229.878545 
L 77.805365 226.105369 
L 78.728679 222.318 
L 79.772896 218.549171 
L 80.942973 214.793207 
L 82.251542 211.037208 
L 83.702841 207.302596 
L 85.308069 203.584041 
L 87.070416 199.908994 
L 89.002442 196.275619 
L 91.117806 192.694699 
L 93.411837 189.206566 
L 95.90657 185.800658 
L 98.602096 182.512193 
L 101.518243 179.344938 
L 104.641968 176.344164 
L 107.912305 173.573228 
L 111.361203 170.987775 
L 114.926019 168.635612 
L 118.625756 166.488073 
L 122.43452 164.559028 
L 126.334952 162.850743 
L 130.316297 161.362085 
L 134.391969 160.087893 
L 138.508232 159.047675 
L 142.688632 158.230779 
L 146.884704 157.649561 
L 151.086829 157.298525 
L 155.286218 157.172023 
L 159.485511 157.265415 
L 163.654519 157.576086 
L 167.809525 158.099842 
L 171.930395 158.83796 
L 175.986807 159.781815 
L 180.00074 160.931275 
L 183.945503 162.281948 
L 187.791183 163.819523 
L 191.54398 165.536055 
L 195.186896 167.416461 
L 198.740732 169.46076 
L 202.18153 171.652032 
L 205.511234 173.982608 
L 208.721233 176.436608 
L 211.833453 179.023499 
L 214.820193 181.720922 
L 217.680211 184.517539 
L 220.418294 187.408423 
L 223.031415 190.380792 
L 225.510202 193.411385 
L 227.889336 196.523872 
L 230.145321 199.682487 
L 234.339213 206.139115 
L 238.149211 212.754128 
L 241.545715 219.3246 
L 248.931158 234.224938 
L 251.847478 239.314117 
L 253.367978 241.649248 
L 254.965507 243.869662 
L 256.704075 246.035247 
L 258.555879 248.119007 
L 260.526353 250.122462 
L 262.620801 252.049285 
L 264.797031 253.870348 
L 267.060987 255.585569 
L 269.402493 257.188798 
L 271.813763 258.674789 
L 274.276701 260.034709 
L 276.808388 261.273545 
L 279.412356 262.395764 
L 282.077661 263.401922 
L 284.823506 264.299424 
L 287.630992 265.088236 
L 290.511605 265.774224 
L 296.458538 266.852628 
L 302.591554 267.556093 
L 308.737916 267.912327 
L 314.769069 267.893691 
L 320.625487 267.464114 
L 323.450212 267.089072 
L 326.23195 266.593285 
L 328.953988 265.979653 
L 331.592107 265.252367 
L 334.196031 264.385587 
L 336.765055 263.377215 
L 339.286575 262.233852 
L 341.78559 260.938429 
L 344.181558 259.546761 
L 346.539661 258.003176 
L 348.797727 256.362086 
L 350.970285 254.606225 
L 353.040699 252.749671 
L 355.014134 250.785191 
L 356.88632 248.715867 
L 358.651972 246.549428 
L 360.300996 244.300405 
L 361.857216 241.926508 
L 363.28889 239.49786 
L 364.601806 236.99659 
L 365.796023 234.422292 
L 366.865129 231.797337 
L 367.804183 229.13737 
L 368.610822 226.449375 
L 369.296622 223.669139 
L 369.857269 220.873935 
L 370.303171 217.969646 
L 370.878891 211.990672 
L 371.072168 205.768184 
L 370.944971 199.353611 
L 370.56867 192.786254 
L 369.688409 182.696236 
L 368.013818 165.188208 
L 367.506623 157.975708 
L 367.013894 147.402039 
L 366.429081 133.858346 
L 365.996052 127.340155 
L 365.370585 120.878751 
L 364.537044 114.469964 
L 363.489379 108.106745 
L 362.223186 101.790315 
L 360.738392 95.544616 
L 359.025822 89.359231 
L 357.089496 83.267934 
L 354.915728 77.255705 
L 352.520405 71.365199 
L 349.752693 65.304525 
L 349.752693 65.304525 
" style="fill:none;stroke:#ffffff;stroke-linecap:square;"/>
   </g>
   <g id="line2d_16">
    <path clip-path="url(#p846e9202bc)" d="M 101.764478 283.896951 
L 101.362075 273.911275 
L 101.249117 267.322639 
L 101.303942 260.783649 
L 101.561608 254.316585 
L 102.042647 247.964083 
L 102.786625 241.72028 
L 103.812853 235.622033 
L 105.153843 229.657915 
L 106.839539 223.837087 
L 108.884403 218.195552 
L 110.041381 215.468544 
L 111.294843 212.808208 
L 112.632227 210.243926 
L 114.053584 207.785575 
L 115.570439 205.427251 
L 117.160756 203.200178 
L 118.838153 201.096682 
L 120.589655 199.133654 
L 122.435161 197.300256 
L 124.435635 195.553789 
L 126.531713 193.931721 
L 128.765474 192.413793 
L 131.090501 191.021781 
L 133.512124 189.755589 
L 136.020286 188.619839 
L 138.591471 187.622547 
L 141.20541 186.768878 
L 143.874718 186.059979 
L 146.562137 185.499618 
L 149.281862 185.089211 
L 152.029806 184.827368 
L 154.801047 184.71285 
L 157.572385 184.743411 
L 160.3603 184.921666 
L 163.114237 185.238037 
L 165.854333 185.698132 
L 168.58349 186.303691 
L 171.266024 187.041073 
L 173.908061 187.91467 
L 176.525807 188.931907 
L 179.099355 190.080071 
L 181.645701 191.367355 
L 184.137191 192.773085 
L 186.57722 194.300408 
L 188.970698 195.950104 
L 191.305675 197.710511 
L 193.560224 199.558388 
L 195.748337 201.509207 
L 197.864404 203.553649 
L 199.91049 205.689753 
L 203.797468 210.229694 
L 207.421553 215.093714 
L 210.808306 220.274908 
L 213.955232 225.710895 
L 216.953613 231.501305 
L 225.003628 247.671886 
L 226.90525 251.072762 
L 228.989397 254.523525 
L 231.259221 257.938443 
L 233.733033 261.29592 
L 236.367388 264.508524 
L 239.169526 267.596363 
L 242.120303 270.537261 
L 245.193854 273.313772 
L 248.411809 275.955021 
L 251.747662 278.433548 
L 255.19788 280.748615 
L 258.749686 282.891697 
L 262.407469 284.864739 
L 266.126732 286.642095 
L 269.890232 288.226186 
L 273.702062 289.630228 
L 277.536164 290.853702 
L 281.390873 291.910415 
L 285.254705 292.808272 
L 289.109379 293.557029 
L 292.97487 294.174499 
L 296.846453 294.666173 
L 304.552178 295.300461 
L 308.468348 295.456137 
L 312.385502 295.488 
L 316.364749 295.392138 
L 320.336032 295.150178 
L 324.34678 294.754341 
L 328.376167 294.185961 
L 332.386852 293.435331 
L 336.388697 292.492663 
L 340.392211 291.339993 
L 344.340817 289.975616 
L 348.207803 288.408518 
L 351.998919 286.638982 
L 355.668604 284.690965 
L 359.283692 282.536195 
L 362.751582 280.216575 
L 366.120742 277.712121 
L 369.362932 275.033214 
L 372.467371 272.186435 
L 375.422042 269.179017 
L 378.210651 266.028538 
L 380.83163 262.741039 
L 383.281365 259.322649 
L 385.529176 255.822545 
L 387.613661 252.205034 
L 389.515323 248.494875 
L 391.227249 244.713131 
L 392.755851 240.858092 
L 394.099215 236.93477 
L 395.252852 232.949955 
L 396.19833 228.981631 
L 396.967381 224.980072 
L 397.549596 221.032507 
L 397.978456 217.105579 
L 398.269303 213.190707 
L 398.487273 205.496012 
L 398.326597 197.965858 
L 397.900967 190.629805 
L 396.971742 179.985218 
L 395.349506 163.075592 
L 394.883418 156.494864 
L 394.409717 146.333927 
L 393.795061 132.187867 
L 393.302784 124.878398 
L 392.584846 117.539686 
L 391.62261 110.203448 
L 390.408418 102.883618 
L 388.939821 95.606521 
L 387.210037 88.37576 
L 385.214533 81.208638 
L 382.942435 74.098926 
L 380.393721 67.082303 
L 377.552503 60.129887 
L 374.555908 53.568 
L 374.555908 53.568 
" style="fill:none;stroke:#ffffff;stroke-linecap:square;"/>
   </g>
   <g id="patch_3">
    <path d="M 57.6 307.584 
L 57.6 41.472 
" style="fill:none;stroke:#000000;stroke-linecap:square;stroke-linejoin:miter;stroke-width:0.8;"/>
   </g>
   <g id="patch_4">
    <path d="M 414.72 307.584 
L 414.72 41.472 
" style="fill:none;stroke:#000000;stroke-linecap:square;stroke-linejoin:miter;stroke-width:0.8;"/>
   </g>
   <g id="patch_5">
    <path d="M 57.6 307.584 
L 414.72 307.584 
" style="fill:none;stroke:#000000;stroke-linecap:square;stroke-linejoin:miter;stroke-width:0.8;"/>
   </g>
   <g id="patch_6">
    <path d="M 57.6 41.472 
L 414.72 41.472 
" style="fill:none;stroke:#000000;stroke-linecap:square;stroke-linejoin:miter;stroke-width:0.8;"/>
   </g>
  </g>
 </g>
 <defs>
  <clipPath id="p846e9202bc">
   <rect height="266.112" width="357.12" x="57.6" y="41.472"/>
  </clipPath>
 </defs>
</svg>
