<?xml version="1.0" encoding="utf-8" standalone="no"?>
<!DOCTYPE svg PUBLIC "-//W3C//DTD SVG 1.1//EN"
  "http://www.w3.org/Graphics/SVG/1.1/DTD/svg11.dtd">
<!-- Created with matplotlib (https://matplotlib.org/) -->
<svg height="345.6pt" version="1.1" viewBox="0 0 460.8 345.6" width="460.8pt" xmlns="http://www.w3.org/2000/svg" xmlns:xlink="http://www.w3.org/1999/xlink">
 <metadata>
  <rdf:RDF xmlns:cc="http://creativecommons.org/ns#" xmlns:dc="http://purl.org/dc/elements/1.1/" xmlns:rdf="http://www.w3.org/1999/02/22-rdf-syntax-ns#">
   <cc:Work>
    <dc:type rdf:resource="http://purl.org/dc/dcmitype/StillImage"/>
    <dc:date>2021-01-25T11:29:08.987787</dc:date>
    <dc:format>image/svg+xml</dc:format>
    <dc:creator>
     <cc:Agent>
      <dc:title>Matplotlib v3.3.3, https://matplotlib.org/</dc:title>
     </cc:Agent>
    </dc:creator>
   </cc:Work>
  </rdf:RDF>
 </metadata>
 <defs>
  <style type="text/css">*{stroke-linecap:butt;stroke-linejoin:round;}</style>
 </defs>
 <g id="figure_1">
  <g id="patch_1">
   <path d="M 0 345.6 
L 460.8 345.6 
L 460.8 0 
L 0 0 
z
" style="fill:#ffffff;"/>
  </g>
  <g id="axes_1">
   <g id="patch_2">
    <path d="M 57.6 307.584 
L 414.72 307.584 
L 414.72 41.472 
L 57.6 41.472 
z
" style="fill:#7d9051;"/>
   </g>
   <g id="matplotlib.axis_1">
    <g id="xtick_1">
     <g id="line2d_1">
      <defs>
       <path d="M 0 0 
L 0 3.5 
" id="mc83a3aa072" style="stroke:#000000;stroke-width:0.8;"/>
      </defs>
      <g>
       <use style="stroke:#000000;stroke-width:0.8;" x="90.054665" xlink:href="#mc83a3aa072" y="307.584"/>
      </g>
     </g>
     <g id="text_1">
      <!-- 10 -->
      <g transform="translate(83.692165 322.182437)scale(0.1 -0.1)">
       <defs>
        <path d="M 12.40625 8.296875 
L 28.515625 8.296875 
L 28.515625 63.921875 
L 10.984375 60.40625 
L 10.984375 69.390625 
L 28.421875 72.90625 
L 38.28125 72.90625 
L 38.28125 8.296875 
L 54.390625 8.296875 
L 54.390625 0 
L 12.40625 0 
z
" id="DejaVuSans-49"/>
        <path d="M 31.78125 66.40625 
Q 24.171875 66.40625 20.328125 58.90625 
Q 16.5 51.421875 16.5 36.375 
Q 16.5 21.390625 20.328125 13.890625 
Q 24.171875 6.390625 31.78125 6.390625 
Q 39.453125 6.390625 43.28125 13.890625 
Q 47.125 21.390625 47.125 36.375 
Q 47.125 51.421875 43.28125 58.90625 
Q 39.453125 66.40625 31.78125 66.40625 
z
M 31.78125 74.21875 
Q 44.046875 74.21875 50.515625 64.515625 
Q 56.984375 54.828125 56.984375 36.375 
Q 56.984375 17.96875 50.515625 8.265625 
Q 44.046875 -1.421875 31.78125 -1.421875 
Q 19.53125 -1.421875 13.0625 8.265625 
Q 6.59375 17.96875 6.59375 36.375 
Q 6.59375 54.828125 13.0625 64.515625 
Q 19.53125 74.21875 31.78125 74.21875 
z
" id="DejaVuSans-48"/>
       </defs>
       <use xlink:href="#DejaVuSans-49"/>
       <use x="63.623047" xlink:href="#DejaVuSans-48"/>
      </g>
     </g>
    </g>
    <g id="xtick_2">
     <g id="line2d_2">
      <g>
       <use style="stroke:#000000;stroke-width:0.8;" x="130.647362" xlink:href="#mc83a3aa072" y="307.584"/>
      </g>
     </g>
     <g id="text_2">
      <!-- 20 -->
      <g transform="translate(124.284862 322.182437)scale(0.1 -0.1)">
       <defs>
        <path d="M 19.1875 8.296875 
L 53.609375 8.296875 
L 53.609375 0 
L 7.328125 0 
L 7.328125 8.296875 
Q 12.9375 14.109375 22.625 23.890625 
Q 32.328125 33.6875 34.8125 36.53125 
Q 39.546875 41.84375 41.421875 45.53125 
Q 43.3125 49.21875 43.3125 52.78125 
Q 43.3125 58.59375 39.234375 62.25 
Q 35.15625 65.921875 28.609375 65.921875 
Q 23.96875 65.921875 18.8125 64.3125 
Q 13.671875 62.703125 7.8125 59.421875 
L 7.8125 69.390625 
Q 13.765625 71.78125 18.9375 73 
Q 24.125 74.21875 28.421875 74.21875 
Q 39.75 74.21875 46.484375 68.546875 
Q 53.21875 62.890625 53.21875 53.421875 
Q 53.21875 48.921875 51.53125 44.890625 
Q 49.859375 40.875 45.40625 35.40625 
Q 44.1875 33.984375 37.640625 27.21875 
Q 31.109375 20.453125 19.1875 8.296875 
z
" id="DejaVuSans-50"/>
       </defs>
       <use xlink:href="#DejaVuSans-50"/>
       <use x="63.623047" xlink:href="#DejaVuSans-48"/>
      </g>
     </g>
    </g>
    <g id="xtick_3">
     <g id="line2d_3">
      <g>
       <use style="stroke:#000000;stroke-width:0.8;" x="171.240059" xlink:href="#mc83a3aa072" y="307.584"/>
      </g>
     </g>
     <g id="text_3">
      <!-- 30 -->
      <g transform="translate(164.877559 322.182437)scale(0.1 -0.1)">
       <defs>
        <path d="M 40.578125 39.3125 
Q 47.65625 37.796875 51.625 33 
Q 55.609375 28.21875 55.609375 21.1875 
Q 55.609375 10.40625 48.1875 4.484375 
Q 40.765625 -1.421875 27.09375 -1.421875 
Q 22.515625 -1.421875 17.65625 -0.515625 
Q 12.796875 0.390625 7.625 2.203125 
L 7.625 11.71875 
Q 11.71875 9.328125 16.59375 8.109375 
Q 21.484375 6.890625 26.8125 6.890625 
Q 36.078125 6.890625 40.9375 10.546875 
Q 45.796875 14.203125 45.796875 21.1875 
Q 45.796875 27.640625 41.28125 31.265625 
Q 36.765625 34.90625 28.71875 34.90625 
L 20.21875 34.90625 
L 20.21875 43.015625 
L 29.109375 43.015625 
Q 36.375 43.015625 40.234375 45.921875 
Q 44.09375 48.828125 44.09375 54.296875 
Q 44.09375 59.90625 40.109375 62.90625 
Q 36.140625 65.921875 28.71875 65.921875 
Q 24.65625 65.921875 20.015625 65.03125 
Q 15.375 64.15625 9.8125 62.3125 
L 9.8125 71.09375 
Q 15.4375 72.65625 20.34375 73.4375 
Q 25.25 74.21875 29.59375 74.21875 
Q 40.828125 74.21875 47.359375 69.109375 
Q 53.90625 64.015625 53.90625 55.328125 
Q 53.90625 49.265625 50.4375 45.09375 
Q 46.96875 40.921875 40.578125 39.3125 
z
" id="DejaVuSans-51"/>
       </defs>
       <use xlink:href="#DejaVuSans-51"/>
       <use x="63.623047" xlink:href="#DejaVuSans-48"/>
      </g>
     </g>
    </g>
    <g id="xtick_4">
     <g id="line2d_4">
      <g>
       <use style="stroke:#000000;stroke-width:0.8;" x="211.832757" xlink:href="#mc83a3aa072" y="307.584"/>
      </g>
     </g>
     <g id="text_4">
      <!-- 40 -->
      <g transform="translate(205.470257 322.182437)scale(0.1 -0.1)">
       <defs>
        <path d="M 37.796875 64.3125 
L 12.890625 25.390625 
L 37.796875 25.390625 
z
M 35.203125 72.90625 
L 47.609375 72.90625 
L 47.609375 25.390625 
L 58.015625 25.390625 
L 58.015625 17.1875 
L 47.609375 17.1875 
L 47.609375 0 
L 37.796875 0 
L 37.796875 17.1875 
L 4.890625 17.1875 
L 4.890625 26.703125 
z
" id="DejaVuSans-52"/>
       </defs>
       <use xlink:href="#DejaVuSans-52"/>
       <use x="63.623047" xlink:href="#DejaVuSans-48"/>
      </g>
     </g>
    </g>
    <g id="xtick_5">
     <g id="line2d_5">
      <g>
       <use style="stroke:#000000;stroke-width:0.8;" x="252.425454" xlink:href="#mc83a3aa072" y="307.584"/>
      </g>
     </g>
     <g id="text_5">
      <!-- 50 -->
      <g transform="translate(246.062954 322.182437)scale(0.1 -0.1)">
       <defs>
        <path d="M 10.796875 72.90625 
L 49.515625 72.90625 
L 49.515625 64.59375 
L 19.828125 64.59375 
L 19.828125 46.734375 
Q 21.96875 47.46875 24.109375 47.828125 
Q 26.265625 48.1875 28.421875 48.1875 
Q 40.625 48.1875 47.75 41.5 
Q 54.890625 34.8125 54.890625 23.390625 
Q 54.890625 11.625 47.5625 5.09375 
Q 40.234375 -1.421875 26.90625 -1.421875 
Q 22.3125 -1.421875 17.546875 -0.640625 
Q 12.796875 0.140625 7.71875 1.703125 
L 7.71875 11.625 
Q 12.109375 9.234375 16.796875 8.0625 
Q 21.484375 6.890625 26.703125 6.890625 
Q 35.15625 6.890625 40.078125 11.328125 
Q 45.015625 15.765625 45.015625 23.390625 
Q 45.015625 31 40.078125 35.4375 
Q 35.15625 39.890625 26.703125 39.890625 
Q 22.75 39.890625 18.8125 39.015625 
Q 14.890625 38.140625 10.796875 36.28125 
z
" id="DejaVuSans-53"/>
       </defs>
       <use xlink:href="#DejaVuSans-53"/>
       <use x="63.623047" xlink:href="#DejaVuSans-48"/>
      </g>
     </g>
    </g>
    <g id="xtick_6">
     <g id="line2d_6">
      <g>
       <use style="stroke:#000000;stroke-width:0.8;" x="293.018151" xlink:href="#mc83a3aa072" y="307.584"/>
      </g>
     </g>
     <g id="text_6">
      <!-- 60 -->
      <g transform="translate(286.655651 322.182437)scale(0.1 -0.1)">
       <defs>
        <path d="M 33.015625 40.375 
Q 26.375 40.375 22.484375 35.828125 
Q 18.609375 31.296875 18.609375 23.390625 
Q 18.609375 15.53125 22.484375 10.953125 
Q 26.375 6.390625 33.015625 6.390625 
Q 39.65625 6.390625 43.53125 10.953125 
Q 47.40625 15.53125 47.40625 23.390625 
Q 47.40625 31.296875 43.53125 35.828125 
Q 39.65625 40.375 33.015625 40.375 
z
M 52.59375 71.296875 
L 52.59375 62.3125 
Q 48.875 64.0625 45.09375 64.984375 
Q 41.3125 65.921875 37.59375 65.921875 
Q 27.828125 65.921875 22.671875 59.328125 
Q 17.53125 52.734375 16.796875 39.40625 
Q 19.671875 43.65625 24.015625 45.921875 
Q 28.375 48.1875 33.59375 48.1875 
Q 44.578125 48.1875 50.953125 41.515625 
Q 57.328125 34.859375 57.328125 23.390625 
Q 57.328125 12.15625 50.6875 5.359375 
Q 44.046875 -1.421875 33.015625 -1.421875 
Q 20.359375 -1.421875 13.671875 8.265625 
Q 6.984375 17.96875 6.984375 36.375 
Q 6.984375 53.65625 15.1875 63.9375 
Q 23.390625 74.21875 37.203125 74.21875 
Q 40.921875 74.21875 44.703125 73.484375 
Q 48.484375 72.75 52.59375 71.296875 
z
" id="DejaVuSans-54"/>
       </defs>
       <use xlink:href="#DejaVuSans-54"/>
       <use x="63.623047" xlink:href="#DejaVuSans-48"/>
      </g>
     </g>
    </g>
    <g id="xtick_7">
     <g id="line2d_7">
      <g>
       <use style="stroke:#000000;stroke-width:0.8;" x="333.610848" xlink:href="#mc83a3aa072" y="307.584"/>
      </g>
     </g>
     <g id="text_7">
      <!-- 70 -->
      <g transform="translate(327.248348 322.182437)scale(0.1 -0.1)">
       <defs>
        <path d="M 8.203125 72.90625 
L 55.078125 72.90625 
L 55.078125 68.703125 
L 28.609375 0 
L 18.3125 0 
L 43.21875 64.59375 
L 8.203125 64.59375 
z
" id="DejaVuSans-55"/>
       </defs>
       <use xlink:href="#DejaVuSans-55"/>
       <use x="63.623047" xlink:href="#DejaVuSans-48"/>
      </g>
     </g>
    </g>
    <g id="xtick_8">
     <g id="line2d_8">
      <g>
       <use style="stroke:#000000;stroke-width:0.8;" x="374.203546" xlink:href="#mc83a3aa072" y="307.584"/>
      </g>
     </g>
     <g id="text_8">
      <!-- 80 -->
      <g transform="translate(367.841046 322.182437)scale(0.1 -0.1)">
       <defs>
        <path d="M 31.78125 34.625 
Q 24.75 34.625 20.71875 30.859375 
Q 16.703125 27.09375 16.703125 20.515625 
Q 16.703125 13.921875 20.71875 10.15625 
Q 24.75 6.390625 31.78125 6.390625 
Q 38.8125 6.390625 42.859375 10.171875 
Q 46.921875 13.96875 46.921875 20.515625 
Q 46.921875 27.09375 42.890625 30.859375 
Q 38.875 34.625 31.78125 34.625 
z
M 21.921875 38.8125 
Q 15.578125 40.375 12.03125 44.71875 
Q 8.5 49.078125 8.5 55.328125 
Q 8.5 64.0625 14.71875 69.140625 
Q 20.953125 74.21875 31.78125 74.21875 
Q 42.671875 74.21875 48.875 69.140625 
Q 55.078125 64.0625 55.078125 55.328125 
Q 55.078125 49.078125 51.53125 44.71875 
Q 48 40.375 41.703125 38.8125 
Q 48.828125 37.15625 52.796875 32.3125 
Q 56.78125 27.484375 56.78125 20.515625 
Q 56.78125 9.90625 50.3125 4.234375 
Q 43.84375 -1.421875 31.78125 -1.421875 
Q 19.734375 -1.421875 13.25 4.234375 
Q 6.78125 9.90625 6.78125 20.515625 
Q 6.78125 27.484375 10.78125 32.3125 
Q 14.796875 37.15625 21.921875 38.8125 
z
M 18.3125 54.390625 
Q 18.3125 48.734375 21.84375 45.5625 
Q 25.390625 42.390625 31.78125 42.390625 
Q 38.140625 42.390625 41.71875 45.5625 
Q 45.3125 48.734375 45.3125 54.390625 
Q 45.3125 60.0625 41.71875 63.234375 
Q 38.140625 66.40625 31.78125 66.40625 
Q 25.390625 66.40625 21.84375 63.234375 
Q 18.3125 60.0625 18.3125 54.390625 
z
" id="DejaVuSans-56"/>
       </defs>
       <use xlink:href="#DejaVuSans-56"/>
       <use x="63.623047" xlink:href="#DejaVuSans-48"/>
      </g>
     </g>
    </g>
   </g>
   <g id="matplotlib.axis_2">
    <g id="ytick_1">
     <g id="line2d_9">
      <defs>
       <path d="M 0 0 
L -3.5 0 
" id="m0cc49b7551" style="stroke:#000000;stroke-width:0.8;"/>
      </defs>
      <g>
       <use style="stroke:#000000;stroke-width:0.8;" x="57.6" xlink:href="#m0cc49b7551" y="271.192321"/>
      </g>
     </g>
     <g id="text_9">
      <!-- 10 -->
      <g transform="translate(37.875 274.99154)scale(0.1 -0.1)">
       <use xlink:href="#DejaVuSans-49"/>
       <use x="63.623047" xlink:href="#DejaVuSans-48"/>
      </g>
     </g>
    </g>
    <g id="ytick_2">
     <g id="line2d_10">
      <g>
       <use style="stroke:#000000;stroke-width:0.8;" x="57.6" xlink:href="#m0cc49b7551" y="230.599624"/>
      </g>
     </g>
     <g id="text_10">
      <!-- 20 -->
      <g transform="translate(37.875 234.398842)scale(0.1 -0.1)">
       <use xlink:href="#DejaVuSans-50"/>
       <use x="63.623047" xlink:href="#DejaVuSans-48"/>
      </g>
     </g>
    </g>
    <g id="ytick_3">
     <g id="line2d_11">
      <g>
       <use style="stroke:#000000;stroke-width:0.8;" x="57.6" xlink:href="#m0cc49b7551" y="190.006926"/>
      </g>
     </g>
     <g id="text_11">
      <!-- 30 -->
      <g transform="translate(37.875 193.806145)scale(0.1 -0.1)">
       <use xlink:href="#DejaVuSans-51"/>
       <use x="63.623047" xlink:href="#DejaVuSans-48"/>
      </g>
     </g>
    </g>
    <g id="ytick_4">
     <g id="line2d_12">
      <g>
       <use style="stroke:#000000;stroke-width:0.8;" x="57.6" xlink:href="#m0cc49b7551" y="149.414229"/>
      </g>
     </g>
     <g id="text_12">
      <!-- 40 -->
      <g transform="translate(37.875 153.213448)scale(0.1 -0.1)">
       <use xlink:href="#DejaVuSans-52"/>
       <use x="63.623047" xlink:href="#DejaVuSans-48"/>
      </g>
     </g>
    </g>
    <g id="ytick_5">
     <g id="line2d_13">
      <g>
       <use style="stroke:#000000;stroke-width:0.8;" x="57.6" xlink:href="#m0cc49b7551" y="108.821532"/>
      </g>
     </g>
     <g id="text_13">
      <!-- 50 -->
      <g transform="translate(37.875 112.620751)scale(0.1 -0.1)">
       <use xlink:href="#DejaVuSans-53"/>
       <use x="63.623047" xlink:href="#DejaVuSans-48"/>
      </g>
     </g>
    </g>
    <g id="ytick_6">
     <g id="line2d_14">
      <g>
       <use style="stroke:#000000;stroke-width:0.8;" x="57.6" xlink:href="#m0cc49b7551" y="68.228835"/>
      </g>
     </g>
     <g id="text_14">
      <!-- 60 -->
      <g transform="translate(37.875 72.028053)scale(0.1 -0.1)">
       <use xlink:href="#DejaVuSans-54"/>
       <use x="63.623047" xlink:href="#DejaVuSans-48"/>
      </g>
     </g>
    </g>
   </g>
   <g id="line2d_15">
    <path clip-path="url(#pb57f7f3749)" d="M 233.014026 216.380002 
L 231.816542 212.272021 
L 230.907265 208.151862 
L 230.278078 204.031703 
L 229.920863 199.911544 
L 229.827499 195.811682 
L 229.98987 191.728057 
L 230.399856 187.676905 
L 231.053399 183.662288 
L 231.93832 179.696381 
L 233.0465 175.787304 
L 234.373881 171.939117 
L 235.912345 168.159937 
L 237.653771 164.466001 
L 239.585984 160.85731 
L 241.708982 157.346042 
L 244.006529 153.940315 
L 246.474565 150.648247 
L 249.109031 147.477957 
L 251.897749 144.437564 
L 254.832601 141.535187 
L 257.909527 138.778942 
L 261.11635 136.18101 
L 264.444952 133.749507 
L 267.891272 131.492553 
L 271.447192 129.426385 
L 275.100535 127.559121 
L 278.847241 125.89482 
L 282.675132 124.44972 
L 286.580149 123.235999 
L 290.554174 122.257715 
L 294.589089 121.522987 
L 298.664595 121.035874 
L 302.772576 120.792318 
L 306.892735 120.7842 
L 311.008835 121.011519 
L 315.108697 121.470216 
L 319.172026 122.156233 
L 323.190703 123.065509 
L 327.144432 124.198046 
L 331.016975 125.549782 
L 334.792096 127.112601 
L 338.473854 128.882443 
L 342.05007 130.847129 
L 345.520746 133.002602 
L 348.877762 135.332622 
L 352.125178 137.837192 
L 355.250815 140.500073 
L 358.254675 143.313147 
L 361.136756 146.272354 
L 363.888941 149.365518 
L 366.503111 152.580459 
L 368.971147 155.917179 
L 371.276812 159.363499 
L 373.40387 162.911301 
L 375.340141 166.552466 
L 377.065331 170.278875 
L 378.57132 174.082411 
L 379.833753 177.959014 
L 380.84857 181.900565 
L 381.591417 185.890827 
L 382.058233 189.9298 
L 382.253078 194.001248 
L 382.175951 198.092992 
L 381.847151 202.180676 
L 381.270734 206.260242 
L 380.450762 210.311393 
L 379.40347 214.317893 
L 378.136978 218.271621 
L 376.655345 222.148224 
L 374.970748 225.939582 
L 373.087246 229.629458 
L 371.017019 233.209734 
L 368.768183 236.668232 
L 366.344799 240.000892 
L 363.750926 243.191478 
L 361.002801 246.235931 
L 358.096363 249.122071 
L 355.047852 251.841782 
L 351.857266 254.386944 
L 348.536783 256.74538 
L 345.090463 258.917089 
L 341.530484 260.898013 
L 337.869022 262.700329 
L 334.122316 264.319977 
L 330.294425 265.773196 
L 326.401585 267.059984 
L 322.451916 268.184402 
L 318.461654 269.154567 
L 314.438918 269.978599 
L 310.399944 270.656497 
L 306.352852 271.200439 
L 302.297642 271.614485 
L 294.175043 272.081301 
L 286.048385 272.121894 
L 277.921727 271.805271 
L 269.811306 271.192321 
L 261.725241 270.335815 
L 253.66759 269.25199 
L 245.646473 267.944905 
L 237.670008 266.426738 
L 229.742255 264.705608 
L 221.863212 262.785573 
L 210.115686 259.647758 
L 174.84875 249.706606 
L 167.103664 247.218274 
L 163.283891 245.846241 
L 159.512829 244.360548 
L 155.798597 242.749018 
L 152.145255 240.991354 
L 148.560919 239.071319 
L 145.05371 236.997033 
L 141.627687 234.772553 
L 138.290967 232.405999 
L 135.047611 229.905488 
L 131.901677 227.279141 
L 128.865343 224.531015 
L 125.938609 221.66923 
L 123.125535 218.705963 
L 120.438299 215.641215 
L 117.87284 212.491221 
L 115.433219 209.251924 
L 113.111317 205.931441 
L 110.899015 202.533833 
L 108.792254 199.063157 
L 106.782915 195.527533 
L 103.040269 188.2655 
L 99.626423 180.792384 
L 96.5292 173.136601 
L 95.132811 169.247821 
L 93.866319 165.330626 
L 92.745961 161.380956 
L 91.796092 157.406931 
L 91.032949 153.41261 
L 90.47277 149.402051 
L 90.13991 145.379315 
L 90.054665 141.344401 
L 90.229214 137.305427 
L 90.655437 133.270513 
L 91.329276 129.255896 
L 92.242611 125.269693 
L 93.383266 121.324083 
L 94.743121 117.431243 
L 96.314059 113.603352 
L 98.0839 109.848527 
L 100.048587 106.178947 
L 102.2 102.610849 
L 104.521902 99.148292 
L 107.010235 95.807513 
L 109.652819 92.60069 
L 112.445597 89.540001 
L 115.376389 86.629504 
L 118.437079 83.889497 
L 121.619546 81.328098 
L 124.911614 78.957484 
L 128.309223 76.785775 
L 131.796136 74.829207 
L 131.796136 74.829207 
" style="fill:none;stroke:#fea952;stroke-linecap:square;"/>
   </g>
   <g id="line2d_16">
    <path clip-path="url(#pb57f7f3749)" d="M 217.42574 220.924018 
L 215.960986 215.771178 
L 214.856264 210.603 
L 214.101683 205.434189 
L 213.687992 200.281204 
L 213.60324 195.166582 
L 213.835307 190.093176 
L 214.373741 185.068003 
L 215.206032 180.126232 
L 216.31683 175.267859 
L 217.696921 170.492671 
L 219.335175 165.817022 
L 221.22549 161.236134 
L 223.339436 156.801633 
L 225.691231 152.456205 
L 228.248483 148.26542 
L 231.014943 144.200631 
L 233.98649 140.270833 
L 237.143117 136.502547 
L 240.480451 132.89252 
L 243.998806 129.440906 
L 247.688593 126.162476 
L 251.53861 123.069579 
L 255.549308 120.166052 
L 259.733805 117.453377 
L 264.057518 114.968327 
L 268.509016 112.720165 
L 273.112494 110.704185 
L 277.855884 108.944315 
L 282.698945 107.469611 
L 287.645355 106.283313 
L 292.662117 105.400657 
L 297.70361 104.827258 
L 302.740582 104.555271 
L 307.788093 104.571826 
L 312.814194 104.875119 
L 317.811769 105.459715 
L 322.755293 106.319474 
L 327.661954 107.456196 
L 332.495472 108.868039 
L 337.227626 110.547431 
L 341.826776 112.478531 
L 346.291984 114.651506 
L 350.616517 117.053699 
L 354.778982 119.663644 
L 358.793986 122.475281 
L 362.655068 125.477412 
L 366.349627 128.648528 
L 369.886605 131.984381 
L 373.267229 135.479099 
L 376.486872 139.121746 
L 379.557281 142.92482 
L 382.466522 146.888471 
L 385.202804 151.014278 
L 387.739984 155.287748 
L 390.074753 159.730886 
L 392.1621 164.301393 
L 394.010362 169.054618 
L 395.558021 173.910541 
L 396.811391 178.928849 
L 397.721121 184.02659 
L 398.27675 189.15364 
L 398.487273 194.307249 
L 398.360756 199.394848 
L 397.924539 204.452307 
L 397.185098 209.481386 
L 396.16001 214.417762 
L 394.866581 219.271168 
L 393.30403 224.068453 
L 391.49363 228.741252 
L 389.432672 233.321686 
L 387.143604 237.757284 
L 384.629434 242.060999 
L 381.900387 246.217471 
L 378.943681 250.243495 
L 375.803857 254.071257 
L 372.44385 257.757437 
L 368.905704 261.238213 
L 365.17334 264.534978 
L 361.259634 267.624701 
L 357.193263 270.482486 
L 352.985499 273.105505 
L 348.701342 275.465838 
L 344.311862 277.60444 
L 339.885232 279.499949 
L 335.390442 281.189854 
L 330.847413 282.676557 
L 326.287937 283.961844 
L 321.720055 285.061344 
L 317.126543 285.9917 
L 312.562812 286.748878 
L 308.002118 287.35354 
L 303.44758 287.810792 
L 298.951401 288.124108 
L 294.450758 288.316039 
L 285.578177 288.352163 
L 276.835195 288.005955 
L 268.222939 287.351523 
L 259.667413 286.441965 
L 251.169374 285.295731 
L 242.724757 283.916953 
L 234.323363 282.315183 
L 225.988006 280.502707 
L 217.779852 278.500817 
L 205.747322 275.286176 
L 170.040676 265.215479 
L 161.614776 262.499466 
L 157.332177 260.953187 
L 153.049994 259.256 
L 148.759099 257.380771 
L 144.478208 255.304255 
L 140.295192 253.04703 
L 136.211499 250.61533 
L 132.234329 248.016704 
L 128.377051 245.26512 
L 124.641816 242.369925 
L 121.005897 239.317609 
L 117.513532 236.140456 
L 114.16271 232.848269 
L 110.916913 229.410742 
L 107.848394 225.894849 
L 104.902707 222.259454 
L 102.126702 218.556726 
L 99.504503 214.791314 
L 97.018991 210.959251 
L 94.67561 207.085819 
L 92.44893 203.155088 
L 90.337618 199.175514 
L 86.451216 191.136455 
L 82.905294 182.888333 
L 81.247468 178.623987 
L 79.683167 174.242939 
L 78.245526 169.761601 
L 76.953724 165.155607 
L 75.847488 160.454022 
L 74.951978 155.658737 
L 74.290992 150.741008 
L 73.906453 145.722275 
L 73.832727 140.643352 
L 74.081974 135.599733 
L 74.642355 130.582777 
L 75.502324 125.629557 
L 76.644275 120.760297 
L 78.054527 115.969413 
L 79.721803 111.266608 
L 81.626767 106.680477 
L 83.769358 102.184546 
L 86.143585 97.794816 
L 88.714306 93.567687 
L 91.500033 89.449135 
L 94.479548 85.481593 
L 97.658529 81.656298 
L 101.004211 78.018828 
L 104.546306 74.5319 
L 108.256516 71.240431 
L 112.131288 68.151767 
L 116.166843 65.276413 
L 120.363687 62.625578 
L 123.8506 60.66901 
L 123.8506 60.66901 
" style="fill:none;stroke:#ffffff;stroke-linecap:square;"/>
   </g>
   <g id="line2d_17">
    <path clip-path="url(#pb57f7f3749)" d="M 248.602312 211.835986 
L 247.672097 208.772864 
L 246.958267 205.700724 
L 246.454474 202.629218 
L 246.153733 199.541885 
L 246.051758 196.456782 
L 246.144433 193.362937 
L 246.425971 190.285808 
L 246.900766 187.198343 
L 247.559809 184.124903 
L 248.39608 181.081938 
L 249.412588 178.061211 
L 250.599199 175.083739 
L 251.968106 172.13037 
L 253.480737 169.258415 
L 255.169481 166.426665 
L 256.998114 163.679999 
L 258.962639 161.025661 
L 261.074944 158.453368 
L 263.315047 155.982608 
L 265.666396 153.629467 
L 268.130462 151.395409 
L 270.694091 149.292441 
L 273.340595 147.332963 
L 276.048738 145.531729 
L 278.836866 143.884443 
L 281.692053 142.398077 
L 284.581987 141.085456 
L 287.494379 139.955125 
L 290.461354 139.002386 
L 293.462994 138.232116 
L 296.51606 137.645316 
L 299.625581 137.244491 
L 302.80457 137.029366 
L 305.997377 136.996574 
L 309.203475 137.147919 
L 312.405625 137.480717 
L 315.588759 137.992992 
L 318.719452 138.674822 
L 321.793392 139.528052 
L 324.806324 140.552134 
L 327.757416 141.746671 
L 330.655723 143.11338 
L 333.483624 144.64056 
L 336.262509 146.341559 
L 338.961537 148.189964 
L 341.595288 150.196971 
L 344.152004 152.351618 
L 346.622745 154.641913 
L 349.006284 157.06561 
L 351.29101 159.60929 
L 353.448941 162.236099 
L 355.475772 164.945887 
L 357.350821 167.71272 
L 359.067755 170.534853 
L 360.605529 173.374045 
L 361.968562 176.256358 
L 363.132277 179.110204 
L 364.109485 182.007486 
L 364.88575 184.87228 
L 365.461713 187.755064 
L 365.839715 190.705961 
L 366.018882 193.695246 
L 365.991147 196.791135 
L 365.769762 199.909045 
L 365.356371 203.039099 
L 364.741514 206.205025 
L 363.94036 209.364617 
L 362.969926 212.47479 
L 361.817059 215.555196 
L 360.508823 218.557477 
L 359.030889 221.501632 
L 357.404604 224.358469 
L 355.63598 227.118993 
L 353.745918 229.75829 
L 351.697995 232.311699 
L 349.561751 234.714424 
L 347.287023 237.00593 
L 344.922364 239.148586 
L 342.454898 241.149187 
L 339.880303 243.008274 
L 337.195427 244.728674 
L 334.359625 246.330188 
L 331.426183 247.796217 
L 328.3594 249.140006 
L 325.198408 250.356538 
L 321.955757 251.443411 
L 318.615895 252.40696 
L 315.203252 253.24779 
L 311.751292 253.965498 
L 308.237076 254.564116 
L 304.703587 255.047339 
L 301.147704 255.418177 
L 293.899328 255.846563 
L 286.518593 255.891624 
L 279.008259 255.604586 
L 271.399673 255.033118 
L 263.783069 254.229665 
L 256.165807 253.208248 
L 248.56819 251.972857 
L 241.016654 250.538293 
L 233.496504 248.908508 
L 225.946573 247.070329 
L 214.48405 244.009339 
L 179.656825 234.197733 
L 172.592551 231.937081 
L 165.975665 229.465096 
L 162.838096 228.117265 
L 159.812301 226.678453 
L 156.826647 225.095609 
L 153.895922 223.378735 
L 151.021045 221.528401 
L 148.204883 219.546877 
L 145.453405 217.441052 
L 142.797456 215.240673 
L 140.217154 212.921574 
L 137.714509 210.490191 
L 135.334157 208.001185 
L 133.028204 205.38758 
L 130.842973 202.722988 
L 128.739736 199.947122 
L 126.718131 197.071569 
L 124.779039 194.108415 
L 121.116901 187.899978 
L 117.73261 181.353348 
L 114.602186 174.517891 
L 111.810932 167.649215 
L 109.487113 160.89965 
L 108.538197 157.606305 
L 107.744696 154.35984 
L 107.11392 151.166482 
L 106.654547 148.063095 
L 106.373366 145.036355 
L 106.276603 142.045449 
L 106.376453 139.011122 
L 106.668519 135.95825 
L 107.156227 132.882234 
L 107.840947 129.779088 
L 108.712005 126.678752 
L 109.76444 123.595877 
L 111.001351 120.526226 
L 112.398443 117.512508 
L 113.953589 114.563078 
L 115.685694 111.654011 
L 117.543772 108.847449 
L 119.540921 106.133433 
L 121.64711 103.545082 
L 123.886983 101.061173 
L 126.206473 98.727108 
L 128.617641 96.538564 
L 131.107804 94.504429 
L 133.656385 92.638556 
L 136.254759 90.945973 
L 139.741671 88.989405 
L 139.741671 88.989405 
" style="fill:none;stroke:#ffffff;stroke-linecap:square;"/>
   </g>
   <g id="patch_3">
    <path d="M 57.6 307.584 
L 57.6 41.472 
" style="fill:none;stroke:#000000;stroke-linecap:square;stroke-linejoin:miter;stroke-width:0.8;"/>
   </g>
   <g id="patch_4">
    <path d="M 414.72 307.584 
L 414.72 41.472 
" style="fill:none;stroke:#000000;stroke-linecap:square;stroke-linejoin:miter;stroke-width:0.8;"/>
   </g>
   <g id="patch_5">
    <path d="M 57.6 307.584 
L 414.72 307.584 
" style="fill:none;stroke:#000000;stroke-linecap:square;stroke-linejoin:miter;stroke-width:0.8;"/>
   </g>
   <g id="patch_6">
    <path d="M 57.6 41.472 
L 414.72 41.472 
" style="fill:none;stroke:#000000;stroke-linecap:square;stroke-linejoin:miter;stroke-width:0.8;"/>
   </g>
  </g>
 </g>
 <defs>
  <clipPath id="pb57f7f3749">
   <rect height="266.112" width="357.12" x="57.6" y="41.472"/>
  </clipPath>
 </defs>
</svg>
