<?xml version="1.0" encoding="utf-8" standalone="no"?>
<!DOCTYPE svg PUBLIC "-//W3C//DTD SVG 1.1//EN"
  "http://www.w3.org/Graphics/SVG/1.1/DTD/svg11.dtd">
<!-- Created with matplotlib (https://matplotlib.org/) -->
<svg height="345.6pt" version="1.1" viewBox="0 0 460.8 345.6" width="460.8pt" xmlns="http://www.w3.org/2000/svg" xmlns:xlink="http://www.w3.org/1999/xlink">
 <metadata>
  <rdf:RDF xmlns:cc="http://creativecommons.org/ns#" xmlns:dc="http://purl.org/dc/elements/1.1/" xmlns:rdf="http://www.w3.org/1999/02/22-rdf-syntax-ns#">
   <cc:Work>
    <dc:type rdf:resource="http://purl.org/dc/dcmitype/StillImage"/>
    <dc:date>2021-01-23T12:49:49.309651</dc:date>
    <dc:format>image/svg+xml</dc:format>
    <dc:creator>
     <cc:Agent>
      <dc:title>Matplotlib v3.3.3, https://matplotlib.org/</dc:title>
     </cc:Agent>
    </dc:creator>
   </cc:Work>
  </rdf:RDF>
 </metadata>
 <defs>
  <style type="text/css">*{stroke-linecap:butt;stroke-linejoin:round;}</style>
 </defs>
 <g id="figure_1">
  <g id="patch_1">
   <path d="M 0 345.6 
L 460.8 345.6 
L 460.8 0 
L 0 0 
z
" style="fill:#ffffff;"/>
  </g>
  <g id="axes_1">
   <g id="patch_2">
    <path d="M 57.6 307.584 
L 414.72 307.584 
L 414.72 41.472 
L 57.6 41.472 
z
" style="fill:#7d9051;"/>
   </g>
   <g id="matplotlib.axis_1">
    <g id="xtick_1">
     <g id="line2d_1">
      <defs>
       <path d="M 0 0 
L 0 3.5 
" id="m16bc3bc27c" style="stroke:#000000;stroke-width:0.8;"/>
      </defs>
      <g>
       <use style="stroke:#000000;stroke-width:0.8;" x="62.498741" xlink:href="#m16bc3bc27c" y="307.584"/>
      </g>
     </g>
     <g id="text_1">
      <!-- −20 -->
      <g transform="translate(51.946397 322.182437)scale(0.1 -0.1)">
       <defs>
        <path d="M 10.59375 35.5 
L 73.1875 35.5 
L 73.1875 27.203125 
L 10.59375 27.203125 
z
" id="DejaVuSans-8722"/>
        <path d="M 19.1875 8.296875 
L 53.609375 8.296875 
L 53.609375 0 
L 7.328125 0 
L 7.328125 8.296875 
Q 12.9375 14.109375 22.625 23.890625 
Q 32.328125 33.6875 34.8125 36.53125 
Q 39.546875 41.84375 41.421875 45.53125 
Q 43.3125 49.21875 43.3125 52.78125 
Q 43.3125 58.59375 39.234375 62.25 
Q 35.15625 65.921875 28.609375 65.921875 
Q 23.96875 65.921875 18.8125 64.3125 
Q 13.671875 62.703125 7.8125 59.421875 
L 7.8125 69.390625 
Q 13.765625 71.78125 18.9375 73 
Q 24.125 74.21875 28.421875 74.21875 
Q 39.75 74.21875 46.484375 68.546875 
Q 53.21875 62.890625 53.21875 53.421875 
Q 53.21875 48.921875 51.53125 44.890625 
Q 49.859375 40.875 45.40625 35.40625 
Q 44.1875 33.984375 37.640625 27.21875 
Q 31.109375 20.453125 19.1875 8.296875 
z
" id="DejaVuSans-50"/>
        <path d="M 31.78125 66.40625 
Q 24.171875 66.40625 20.328125 58.90625 
Q 16.5 51.421875 16.5 36.375 
Q 16.5 21.390625 20.328125 13.890625 
Q 24.171875 6.390625 31.78125 6.390625 
Q 39.453125 6.390625 43.28125 13.890625 
Q 47.125 21.390625 47.125 36.375 
Q 47.125 51.421875 43.28125 58.90625 
Q 39.453125 66.40625 31.78125 66.40625 
z
M 31.78125 74.21875 
Q 44.046875 74.21875 50.515625 64.515625 
Q 56.984375 54.828125 56.984375 36.375 
Q 56.984375 17.96875 50.515625 8.265625 
Q 44.046875 -1.421875 31.78125 -1.421875 
Q 19.53125 -1.421875 13.0625 8.265625 
Q 6.59375 17.96875 6.59375 36.375 
Q 6.59375 54.828125 13.0625 64.515625 
Q 19.53125 74.21875 31.78125 74.21875 
z
" id="DejaVuSans-48"/>
       </defs>
       <use xlink:href="#DejaVuSans-8722"/>
       <use x="83.789062" xlink:href="#DejaVuSans-50"/>
       <use x="147.412109" xlink:href="#DejaVuSans-48"/>
      </g>
     </g>
    </g>
    <g id="xtick_2">
     <g id="line2d_2">
      <g>
       <use style="stroke:#000000;stroke-width:0.8;" x="110.642251" xlink:href="#m16bc3bc27c" y="307.584"/>
      </g>
     </g>
     <g id="text_2">
      <!-- 0 -->
      <g transform="translate(107.461001 322.182437)scale(0.1 -0.1)">
       <use xlink:href="#DejaVuSans-48"/>
      </g>
     </g>
    </g>
    <g id="xtick_3">
     <g id="line2d_3">
      <g>
       <use style="stroke:#000000;stroke-width:0.8;" x="158.785761" xlink:href="#m16bc3bc27c" y="307.584"/>
      </g>
     </g>
     <g id="text_3">
      <!-- 20 -->
      <g transform="translate(152.423261 322.182437)scale(0.1 -0.1)">
       <use xlink:href="#DejaVuSans-50"/>
       <use x="63.623047" xlink:href="#DejaVuSans-48"/>
      </g>
     </g>
    </g>
    <g id="xtick_4">
     <g id="line2d_4">
      <g>
       <use style="stroke:#000000;stroke-width:0.8;" x="206.929271" xlink:href="#m16bc3bc27c" y="307.584"/>
      </g>
     </g>
     <g id="text_4">
      <!-- 40 -->
      <g transform="translate(200.566771 322.182437)scale(0.1 -0.1)">
       <defs>
        <path d="M 37.796875 64.3125 
L 12.890625 25.390625 
L 37.796875 25.390625 
z
M 35.203125 72.90625 
L 47.609375 72.90625 
L 47.609375 25.390625 
L 58.015625 25.390625 
L 58.015625 17.1875 
L 47.609375 17.1875 
L 47.609375 0 
L 37.796875 0 
L 37.796875 17.1875 
L 4.890625 17.1875 
L 4.890625 26.703125 
z
" id="DejaVuSans-52"/>
       </defs>
       <use xlink:href="#DejaVuSans-52"/>
       <use x="63.623047" xlink:href="#DejaVuSans-48"/>
      </g>
     </g>
    </g>
    <g id="xtick_5">
     <g id="line2d_5">
      <g>
       <use style="stroke:#000000;stroke-width:0.8;" x="255.07278" xlink:href="#m16bc3bc27c" y="307.584"/>
      </g>
     </g>
     <g id="text_5">
      <!-- 60 -->
      <g transform="translate(248.71028 322.182437)scale(0.1 -0.1)">
       <defs>
        <path d="M 33.015625 40.375 
Q 26.375 40.375 22.484375 35.828125 
Q 18.609375 31.296875 18.609375 23.390625 
Q 18.609375 15.53125 22.484375 10.953125 
Q 26.375 6.390625 33.015625 6.390625 
Q 39.65625 6.390625 43.53125 10.953125 
Q 47.40625 15.53125 47.40625 23.390625 
Q 47.40625 31.296875 43.53125 35.828125 
Q 39.65625 40.375 33.015625 40.375 
z
M 52.59375 71.296875 
L 52.59375 62.3125 
Q 48.875 64.0625 45.09375 64.984375 
Q 41.3125 65.921875 37.59375 65.921875 
Q 27.828125 65.921875 22.671875 59.328125 
Q 17.53125 52.734375 16.796875 39.40625 
Q 19.671875 43.65625 24.015625 45.921875 
Q 28.375 48.1875 33.59375 48.1875 
Q 44.578125 48.1875 50.953125 41.515625 
Q 57.328125 34.859375 57.328125 23.390625 
Q 57.328125 12.15625 50.6875 5.359375 
Q 44.046875 -1.421875 33.015625 -1.421875 
Q 20.359375 -1.421875 13.671875 8.265625 
Q 6.984375 17.96875 6.984375 36.375 
Q 6.984375 53.65625 15.1875 63.9375 
Q 23.390625 74.21875 37.203125 74.21875 
Q 40.921875 74.21875 44.703125 73.484375 
Q 48.484375 72.75 52.59375 71.296875 
z
" id="DejaVuSans-54"/>
       </defs>
       <use xlink:href="#DejaVuSans-54"/>
       <use x="63.623047" xlink:href="#DejaVuSans-48"/>
      </g>
     </g>
    </g>
    <g id="xtick_6">
     <g id="line2d_6">
      <g>
       <use style="stroke:#000000;stroke-width:0.8;" x="303.21629" xlink:href="#m16bc3bc27c" y="307.584"/>
      </g>
     </g>
     <g id="text_6">
      <!-- 80 -->
      <g transform="translate(296.85379 322.182437)scale(0.1 -0.1)">
       <defs>
        <path d="M 31.78125 34.625 
Q 24.75 34.625 20.71875 30.859375 
Q 16.703125 27.09375 16.703125 20.515625 
Q 16.703125 13.921875 20.71875 10.15625 
Q 24.75 6.390625 31.78125 6.390625 
Q 38.8125 6.390625 42.859375 10.171875 
Q 46.921875 13.96875 46.921875 20.515625 
Q 46.921875 27.09375 42.890625 30.859375 
Q 38.875 34.625 31.78125 34.625 
z
M 21.921875 38.8125 
Q 15.578125 40.375 12.03125 44.71875 
Q 8.5 49.078125 8.5 55.328125 
Q 8.5 64.0625 14.71875 69.140625 
Q 20.953125 74.21875 31.78125 74.21875 
Q 42.671875 74.21875 48.875 69.140625 
Q 55.078125 64.0625 55.078125 55.328125 
Q 55.078125 49.078125 51.53125 44.71875 
Q 48 40.375 41.703125 38.8125 
Q 48.828125 37.15625 52.796875 32.3125 
Q 56.78125 27.484375 56.78125 20.515625 
Q 56.78125 9.90625 50.3125 4.234375 
Q 43.84375 -1.421875 31.78125 -1.421875 
Q 19.734375 -1.421875 13.25 4.234375 
Q 6.78125 9.90625 6.78125 20.515625 
Q 6.78125 27.484375 10.78125 32.3125 
Q 14.796875 37.15625 21.921875 38.8125 
z
M 18.3125 54.390625 
Q 18.3125 48.734375 21.84375 45.5625 
Q 25.390625 42.390625 31.78125 42.390625 
Q 38.140625 42.390625 41.71875 45.5625 
Q 45.3125 48.734375 45.3125 54.390625 
Q 45.3125 60.0625 41.71875 63.234375 
Q 38.140625 66.40625 31.78125 66.40625 
Q 25.390625 66.40625 21.84375 63.234375 
Q 18.3125 60.0625 18.3125 54.390625 
z
" id="DejaVuSans-56"/>
       </defs>
       <use xlink:href="#DejaVuSans-56"/>
       <use x="63.623047" xlink:href="#DejaVuSans-48"/>
      </g>
     </g>
    </g>
    <g id="xtick_7">
     <g id="line2d_7">
      <g>
       <use style="stroke:#000000;stroke-width:0.8;" x="351.3598" xlink:href="#m16bc3bc27c" y="307.584"/>
      </g>
     </g>
     <g id="text_7">
      <!-- 100 -->
      <g transform="translate(341.81605 322.182437)scale(0.1 -0.1)">
       <defs>
        <path d="M 12.40625 8.296875 
L 28.515625 8.296875 
L 28.515625 63.921875 
L 10.984375 60.40625 
L 10.984375 69.390625 
L 28.421875 72.90625 
L 38.28125 72.90625 
L 38.28125 8.296875 
L 54.390625 8.296875 
L 54.390625 0 
L 12.40625 0 
z
" id="DejaVuSans-49"/>
       </defs>
       <use xlink:href="#DejaVuSans-49"/>
       <use x="63.623047" xlink:href="#DejaVuSans-48"/>
       <use x="127.246094" xlink:href="#DejaVuSans-48"/>
      </g>
     </g>
    </g>
    <g id="xtick_8">
     <g id="line2d_8">
      <g>
       <use style="stroke:#000000;stroke-width:0.8;" x="399.50331" xlink:href="#m16bc3bc27c" y="307.584"/>
      </g>
     </g>
     <g id="text_8">
      <!-- 120 -->
      <g transform="translate(389.95956 322.182437)scale(0.1 -0.1)">
       <use xlink:href="#DejaVuSans-49"/>
       <use x="63.623047" xlink:href="#DejaVuSans-50"/>
       <use x="127.246094" xlink:href="#DejaVuSans-48"/>
      </g>
     </g>
    </g>
   </g>
   <g id="matplotlib.axis_2">
    <g id="ytick_1">
     <g id="line2d_9">
      <defs>
       <path d="M 0 0 
L -3.5 0 
" id="m2d26135101" style="stroke:#000000;stroke-width:0.8;"/>
      </defs>
      <g>
       <use style="stroke:#000000;stroke-width:0.8;" x="57.6" xlink:href="#m2d26135101" y="269.261676"/>
      </g>
     </g>
     <g id="text_9">
      <!-- 20 -->
      <g transform="translate(37.875 273.060894)scale(0.1 -0.1)">
       <use xlink:href="#DejaVuSans-50"/>
       <use x="63.623047" xlink:href="#DejaVuSans-48"/>
      </g>
     </g>
    </g>
    <g id="ytick_2">
     <g id="line2d_10">
      <g>
       <use style="stroke:#000000;stroke-width:0.8;" x="57.6" xlink:href="#m2d26135101" y="221.118166"/>
      </g>
     </g>
     <g id="text_10">
      <!-- 40 -->
      <g transform="translate(37.875 224.917385)scale(0.1 -0.1)">
       <use xlink:href="#DejaVuSans-52"/>
       <use x="63.623047" xlink:href="#DejaVuSans-48"/>
      </g>
     </g>
    </g>
    <g id="ytick_3">
     <g id="line2d_11">
      <g>
       <use style="stroke:#000000;stroke-width:0.8;" x="57.6" xlink:href="#m2d26135101" y="172.974656"/>
      </g>
     </g>
     <g id="text_11">
      <!-- 60 -->
      <g transform="translate(37.875 176.773875)scale(0.1 -0.1)">
       <use xlink:href="#DejaVuSans-54"/>
       <use x="63.623047" xlink:href="#DejaVuSans-48"/>
      </g>
     </g>
    </g>
    <g id="ytick_4">
     <g id="line2d_12">
      <g>
       <use style="stroke:#000000;stroke-width:0.8;" x="57.6" xlink:href="#m2d26135101" y="124.831146"/>
      </g>
     </g>
     <g id="text_12">
      <!-- 80 -->
      <g transform="translate(37.875 128.630365)scale(0.1 -0.1)">
       <use xlink:href="#DejaVuSans-56"/>
       <use x="63.623047" xlink:href="#DejaVuSans-48"/>
      </g>
     </g>
    </g>
    <g id="ytick_5">
     <g id="line2d_13">
      <g>
       <use style="stroke:#000000;stroke-width:0.8;" x="57.6" xlink:href="#m2d26135101" y="76.687636"/>
      </g>
     </g>
     <g id="text_13">
      <!-- 100 -->
      <g transform="translate(31.5125 80.486855)scale(0.1 -0.1)">
       <use xlink:href="#DejaVuSans-49"/>
       <use x="63.623047" xlink:href="#DejaVuSans-48"/>
       <use x="127.246094" xlink:href="#DejaVuSans-48"/>
      </g>
     </g>
    </g>
   </g>
   <g id="line2d_14">
    <path clip-path="url(#pf05b9a4f96)" d="M 145.51741 293.33343 
L 144.942095 290.827561 
L 144.518432 288.343356 
L 144.234385 285.878408 
L 144.08514 283.435125 
L 144.061068 281.008692 
L 144.361965 276.211191 
L 145.074489 271.476277 
L 146.136054 266.801542 
L 147.486479 262.174951 
L 149.063179 257.594096 
L 151.713479 250.789011 
L 158.140638 235.04849 
L 159.743817 230.486893 
L 161.123128 225.845858 
L 162.211172 221.101316 
L 162.959803 216.267707 
L 163.332915 211.388362 
L 163.299215 206.511425 
L 163.11627 204.087399 
L 162.820187 201.682631 
L 162.401338 199.301934 
L 161.866945 196.947717 
L 160.470784 192.321125 
L 158.708731 187.795635 
L 156.662632 183.366433 
L 154.409516 179.026295 
L 150.810788 172.659316 
L 145.996437 164.248645 
L 143.748136 159.98313 
L 141.699629 155.616514 
L 139.906283 151.124724 
L 138.365691 146.524612 
L 137.068224 141.837841 
L 136.004252 137.090891 
L 135.164148 132.303019 
L 134.550318 127.491075 
L 134.186834 122.662281 
L 134.100176 117.816637 
L 134.316822 112.958957 
L 134.865658 108.089241 
L 135.777977 103.233968 
L 137.092295 98.477389 
L 137.913142 96.161686 
L 138.847126 93.903755 
L 139.901469 91.713226 
L 141.083392 89.602133 
L 142.392896 87.580105 
L 143.837201 85.659179 
L 145.411494 83.839355 
L 147.106145 82.120631 
L 148.906713 80.495788 
L 150.80116 78.962417 
L 154.825957 76.150836 
L 159.084251 73.652188 
L 163.474939 71.427958 
L 167.935435 69.461296 
L 172.470553 67.747387 
L 177.080295 66.293453 
L 181.774287 65.099494 
L 186.559752 64.167917 
L 191.419839 63.517979 
L 196.313627 63.205046 
L 201.192971 63.277262 
L 203.612183 63.477057 
L 206.007322 63.78999 
L 208.37839 64.228096 
L 210.713351 64.796189 
L 213.01461 65.487049 
L 217.532879 67.1817 
L 221.950046 69.206135 
L 226.29259 71.449623 
L 241.217078 79.68457 
L 253.955851 86.557056 
L 262.554282 90.95978 
L 269.121057 94.079479 
L 275.832262 96.975311 
L 280.398674 98.730142 
L 285.034894 100.258699 
L 289.731293 101.486358 
L 294.485465 102.340906 
L 296.883012 102.603288 
L 299.290187 102.745311 
L 301.706991 102.766976 
L 304.126203 102.673096 
L 308.959811 102.150739 
L 313.762126 101.21194 
L 318.494633 99.887994 
L 323.126039 98.207785 
L 327.62505 96.200201 
L 331.955558 93.901348 
L 336.086272 91.335299 
L 339.983489 88.540568 
L 341.832199 87.062563 
L 341.832199 87.062563 
" style="fill:none;stroke:#fea952;stroke-linecap:square;"/>
   </g>
   <g id="line2d_15">
    <path clip-path="url(#pf05b9a4f96)" d="M 136.132862 295.488 
L 135.450435 292.446293 
L 134.95303 289.445619 
L 134.623596 286.465471 
L 134.456912 283.530643 
L 134.44006 280.623852 
L 134.563737 277.78031 
L 134.813226 274.972854 
L 135.650277 269.502417 
L 136.856699 264.23143 
L 138.349021 259.13871 
L 140.045196 254.219502 
L 142.812 247.118102 
L 149.090808 231.760258 
L 150.554266 227.612164 
L 151.777998 223.526281 
L 152.725 219.450722 
L 153.375933 215.339625 
L 153.705267 211.245942 
L 153.697819 207.236059 
L 153.337132 203.351035 
L 152.590481 199.528243 
L 151.438371 195.656905 
L 149.913052 191.713279 
L 148.073333 187.717965 
L 145.983133 183.685477 
L 142.486803 177.499064 
L 137.522966 168.821629 
L 135.088443 164.192836 
L 132.807345 159.309641 
L 130.8186 154.306847 
L 129.119792 149.212595 
L 127.699117 144.058596 
L 126.540145 138.863624 
L 125.62881 133.640641 
L 124.959375 128.342965 
L 124.563319 122.978277 
L 124.475187 117.549276 
L 124.731237 112.048753 
L 125.370259 106.492586 
L 125.847477 103.697011 
L 126.441753 100.8788 
L 127.161368 98.066005 
L 128.016885 95.26043 
L 129.015597 92.481252 
L 130.171098 89.727821 
L 131.499879 87.009485 
L 133.001487 84.368137 
L 134.696884 81.79363 
L 136.555178 79.359652 
L 138.555129 77.079017 
L 140.655385 74.972233 
L 142.848898 73.011486 
L 145.118169 71.189675 
L 147.436641 69.505591 
L 152.203641 66.477777 
L 157.040904 63.854939 
L 161.932603 61.54968 
L 166.911276 59.520988 
L 171.994287 57.767558 
L 177.179267 56.297865 
L 182.456766 55.12104 
L 187.859296 54.241617 
L 193.421019 53.699748 
L 196.256765 53.576512 
L 199.101962 53.568 
L 201.98548 53.68123 
L 204.859602 53.9295 
L 207.756819 54.32156 
L 210.654641 54.872318 
L 213.481908 55.574097 
L 216.209168 56.403729 
L 218.853075 57.342245 
L 223.893845 59.466519 
L 228.626728 61.792801 
L 235.262306 65.385328 
L 252.142375 74.673417 
L 262.597996 80.200984 
L 268.871184 83.326093 
L 275.164377 86.234401 
L 281.471283 88.853744 
L 285.599964 90.342285 
L 289.640181 91.557474 
L 293.601118 92.454044 
L 297.450119 92.991301 
L 301.333621 93.145515 
L 305.298418 92.918466 
L 309.324313 92.322353 
L 313.368629 91.373858 
L 317.382147 90.096582 
L 321.318669 88.518584 
L 325.154758 86.658872 
L 328.830463 84.556686 
L 332.323501 82.23597 
L 335.819586 79.541899 
L 335.819586 79.541899 
" style="fill:none;stroke:#ffffff;stroke-linecap:square;"/>
   </g>
   <g id="line2d_16">
    <path clip-path="url(#pf05b9a4f96)" d="M 154.901957 291.178861 
L 154.433754 289.208828 
L 153.845174 285.291345 
L 153.682077 281.393532 
L 153.910705 277.449528 
L 154.498702 273.450137 
L 155.415408 269.371654 
L 156.623937 265.211192 
L 158.081162 260.96869 
L 160.614958 254.45992 
L 167.190468 238.336723 
L 168.933367 233.361622 
L 170.468259 228.165436 
L 171.697343 222.751909 
L 172.543673 217.195789 
L 172.809261 214.37152 
L 172.960564 211.530783 
L 172.993774 208.671678 
L 172.900611 205.786791 
L 172.672809 202.910768 
L 172.303242 200.014227 
L 171.791168 197.170501 
L 171.14341 194.36719 
L 170.374876 191.638461 
L 168.540824 186.39652 
L 166.40191 181.411619 
L 164.059155 176.664711 
L 160.36824 169.959071 
L 153.412191 157.719675 
L 151.466665 153.845813 
L 149.76347 149.938185 
L 148.275857 145.902639 
L 146.998787 141.74015 
L 145.927997 137.480774 
L 145.058811 133.145471 
L 144.392925 128.801692 
L 143.946474 124.485615 
L 143.736057 120.214413 
L 143.778188 115.980162 
L 144.095736 111.770671 
L 144.702279 107.614162 
L 145.602989 103.611651 
L 146.810687 99.84212 
L 148.30306 96.416967 
L 150.088908 93.366581 
L 151.119224 91.958707 
L 152.267859 90.599692 
L 153.556906 89.269029 
L 156.48415 86.735159 
L 159.841904 84.36985 
L 163.558708 82.178098 
L 167.478614 80.184812 
L 171.46033 78.421598 
L 175.492383 76.889621 
L 179.588651 75.589691 
L 183.75598 74.522062 
L 187.987615 73.690159 
L 192.203824 73.114711 
L 196.370488 72.833581 
L 200.400463 72.873294 
L 204.257826 73.25842 
L 207.944793 74.018282 
L 211.720893 75.230218 
L 215.610744 76.851508 
L 219.630351 78.819627 
L 225.906862 82.217538 
L 243.011297 91.628388 
L 253.878437 97.371217 
L 260.589553 100.711782 
L 267.516567 103.908071 
L 272.288945 105.928345 
L 277.260099 107.832958 
L 282.43128 109.528709 
L 287.824526 110.924374 
L 290.603604 111.476728 
L 293.437975 111.912461 
L 296.315904 112.215275 
L 299.203877 112.373626 
L 302.080361 112.388436 
L 304.947151 112.266737 
L 307.79241 112.013691 
L 310.610405 111.63691 
L 313.40966 111.141427 
L 316.179549 110.532239 
L 321.618418 108.995895 
L 326.897393 107.067175 
L 331.9952 104.780043 
L 336.899694 102.163759 
L 341.566524 99.25229 
L 345.996102 96.061232 
L 347.844813 94.583226 
L 347.844813 94.583226 
" style="fill:none;stroke:#ffffff;stroke-linecap:square;"/>
   </g>
   <g id="patch_3">
    <path d="M 57.6 307.584 
L 57.6 41.472 
" style="fill:none;stroke:#000000;stroke-linecap:square;stroke-linejoin:miter;stroke-width:0.8;"/>
   </g>
   <g id="patch_4">
    <path d="M 414.72 307.584 
L 414.72 41.472 
" style="fill:none;stroke:#000000;stroke-linecap:square;stroke-linejoin:miter;stroke-width:0.8;"/>
   </g>
   <g id="patch_5">
    <path d="M 57.6 307.584 
L 414.72 307.584 
" style="fill:none;stroke:#000000;stroke-linecap:square;stroke-linejoin:miter;stroke-width:0.8;"/>
   </g>
   <g id="patch_6">
    <path d="M 57.6 41.472 
L 414.72 41.472 
" style="fill:none;stroke:#000000;stroke-linecap:square;stroke-linejoin:miter;stroke-width:0.8;"/>
   </g>
  </g>
 </g>
 <defs>
  <clipPath id="pf05b9a4f96">
   <rect height="266.112" width="357.12" x="57.6" y="41.472"/>
  </clipPath>
 </defs>
</svg>
