<?xml version="1.0" encoding="utf-8" standalone="no"?>
<!DOCTYPE svg PUBLIC "-//W3C//DTD SVG 1.1//EN"
  "http://www.w3.org/Graphics/SVG/1.1/DTD/svg11.dtd">
<!-- Created with matplotlib (https://matplotlib.org/) -->
<svg height="345.6pt" version="1.1" viewBox="0 0 460.8 345.6" width="460.8pt" xmlns="http://www.w3.org/2000/svg" xmlns:xlink="http://www.w3.org/1999/xlink">
 <metadata>
  <rdf:RDF xmlns:cc="http://creativecommons.org/ns#" xmlns:dc="http://purl.org/dc/elements/1.1/" xmlns:rdf="http://www.w3.org/1999/02/22-rdf-syntax-ns#">
   <cc:Work>
    <dc:type rdf:resource="http://purl.org/dc/dcmitype/StillImage"/>
    <dc:date>2021-01-25T10:13:20.306482</dc:date>
    <dc:format>image/svg+xml</dc:format>
    <dc:creator>
     <cc:Agent>
      <dc:title>Matplotlib v3.3.3, https://matplotlib.org/</dc:title>
     </cc:Agent>
    </dc:creator>
   </cc:Work>
  </rdf:RDF>
 </metadata>
 <defs>
  <style type="text/css">*{stroke-linecap:butt;stroke-linejoin:round;}</style>
 </defs>
 <g id="figure_1">
  <g id="patch_1">
   <path d="M 0 345.6 
L 460.8 345.6 
L 460.8 0 
L 0 0 
z
" style="fill:#ffffff;"/>
  </g>
  <g id="axes_1">
   <g id="patch_2">
    <path d="M 57.6 307.584 
L 414.72 307.584 
L 414.72 41.472 
L 57.6 41.472 
z
" style="fill:#7d9051;"/>
   </g>
   <g id="matplotlib.axis_1">
    <g id="xtick_1">
     <g id="line2d_1">
      <defs>
       <path d="M 0 0 
L 0 3.5 
" id="md2ac02c323" style="stroke:#000000;stroke-width:0.8;"/>
      </defs>
      <g>
       <use style="stroke:#000000;stroke-width:0.8;" x="65.30686" xlink:href="#md2ac02c323" y="307.584"/>
      </g>
     </g>
     <g id="text_1">
      <!-- −20 -->
      <g transform="translate(54.754516 322.182437)scale(0.1 -0.1)">
       <defs>
        <path d="M 10.59375 35.5 
L 73.1875 35.5 
L 73.1875 27.203125 
L 10.59375 27.203125 
z
" id="DejaVuSans-8722"/>
        <path d="M 19.1875 8.296875 
L 53.609375 8.296875 
L 53.609375 0 
L 7.328125 0 
L 7.328125 8.296875 
Q 12.9375 14.109375 22.625 23.890625 
Q 32.328125 33.6875 34.8125 36.53125 
Q 39.546875 41.84375 41.421875 45.53125 
Q 43.3125 49.21875 43.3125 52.78125 
Q 43.3125 58.59375 39.234375 62.25 
Q 35.15625 65.921875 28.609375 65.921875 
Q 23.96875 65.921875 18.8125 64.3125 
Q 13.671875 62.703125 7.8125 59.421875 
L 7.8125 69.390625 
Q 13.765625 71.78125 18.9375 73 
Q 24.125 74.21875 28.421875 74.21875 
Q 39.75 74.21875 46.484375 68.546875 
Q 53.21875 62.890625 53.21875 53.421875 
Q 53.21875 48.921875 51.53125 44.890625 
Q 49.859375 40.875 45.40625 35.40625 
Q 44.1875 33.984375 37.640625 27.21875 
Q 31.109375 20.453125 19.1875 8.296875 
z
" id="DejaVuSans-50"/>
        <path d="M 31.78125 66.40625 
Q 24.171875 66.40625 20.328125 58.90625 
Q 16.5 51.421875 16.5 36.375 
Q 16.5 21.390625 20.328125 13.890625 
Q 24.171875 6.390625 31.78125 6.390625 
Q 39.453125 6.390625 43.28125 13.890625 
Q 47.125 21.390625 47.125 36.375 
Q 47.125 51.421875 43.28125 58.90625 
Q 39.453125 66.40625 31.78125 66.40625 
z
M 31.78125 74.21875 
Q 44.046875 74.21875 50.515625 64.515625 
Q 56.984375 54.828125 56.984375 36.375 
Q 56.984375 17.96875 50.515625 8.265625 
Q 44.046875 -1.421875 31.78125 -1.421875 
Q 19.53125 -1.421875 13.0625 8.265625 
Q 6.59375 17.96875 6.59375 36.375 
Q 6.59375 54.828125 13.0625 64.515625 
Q 19.53125 74.21875 31.78125 74.21875 
z
" id="DejaVuSans-48"/>
       </defs>
       <use xlink:href="#DejaVuSans-8722"/>
       <use x="83.789062" xlink:href="#DejaVuSans-50"/>
       <use x="147.412109" xlink:href="#DejaVuSans-48"/>
      </g>
     </g>
    </g>
    <g id="xtick_2">
     <g id="line2d_2">
      <g>
       <use style="stroke:#000000;stroke-width:0.8;" x="119.34661" xlink:href="#md2ac02c323" y="307.584"/>
      </g>
     </g>
     <g id="text_2">
      <!-- 0 -->
      <g transform="translate(116.16536 322.182437)scale(0.1 -0.1)">
       <use xlink:href="#DejaVuSans-48"/>
      </g>
     </g>
    </g>
    <g id="xtick_3">
     <g id="line2d_3">
      <g>
       <use style="stroke:#000000;stroke-width:0.8;" x="173.38636" xlink:href="#md2ac02c323" y="307.584"/>
      </g>
     </g>
     <g id="text_3">
      <!-- 20 -->
      <g transform="translate(167.02386 322.182437)scale(0.1 -0.1)">
       <use xlink:href="#DejaVuSans-50"/>
       <use x="63.623047" xlink:href="#DejaVuSans-48"/>
      </g>
     </g>
    </g>
    <g id="xtick_4">
     <g id="line2d_4">
      <g>
       <use style="stroke:#000000;stroke-width:0.8;" x="227.42611" xlink:href="#md2ac02c323" y="307.584"/>
      </g>
     </g>
     <g id="text_4">
      <!-- 40 -->
      <g transform="translate(221.06361 322.182437)scale(0.1 -0.1)">
       <defs>
        <path d="M 37.796875 64.3125 
L 12.890625 25.390625 
L 37.796875 25.390625 
z
M 35.203125 72.90625 
L 47.609375 72.90625 
L 47.609375 25.390625 
L 58.015625 25.390625 
L 58.015625 17.1875 
L 47.609375 17.1875 
L 47.609375 0 
L 37.796875 0 
L 37.796875 17.1875 
L 4.890625 17.1875 
L 4.890625 26.703125 
z
" id="DejaVuSans-52"/>
       </defs>
       <use xlink:href="#DejaVuSans-52"/>
       <use x="63.623047" xlink:href="#DejaVuSans-48"/>
      </g>
     </g>
    </g>
    <g id="xtick_5">
     <g id="line2d_5">
      <g>
       <use style="stroke:#000000;stroke-width:0.8;" x="281.465859" xlink:href="#md2ac02c323" y="307.584"/>
      </g>
     </g>
     <g id="text_5">
      <!-- 60 -->
      <g transform="translate(275.103359 322.182437)scale(0.1 -0.1)">
       <defs>
        <path d="M 33.015625 40.375 
Q 26.375 40.375 22.484375 35.828125 
Q 18.609375 31.296875 18.609375 23.390625 
Q 18.609375 15.53125 22.484375 10.953125 
Q 26.375 6.390625 33.015625 6.390625 
Q 39.65625 6.390625 43.53125 10.953125 
Q 47.40625 15.53125 47.40625 23.390625 
Q 47.40625 31.296875 43.53125 35.828125 
Q 39.65625 40.375 33.015625 40.375 
z
M 52.59375 71.296875 
L 52.59375 62.3125 
Q 48.875 64.0625 45.09375 64.984375 
Q 41.3125 65.921875 37.59375 65.921875 
Q 27.828125 65.921875 22.671875 59.328125 
Q 17.53125 52.734375 16.796875 39.40625 
Q 19.671875 43.65625 24.015625 45.921875 
Q 28.375 48.1875 33.59375 48.1875 
Q 44.578125 48.1875 50.953125 41.515625 
Q 57.328125 34.859375 57.328125 23.390625 
Q 57.328125 12.15625 50.6875 5.359375 
Q 44.046875 -1.421875 33.015625 -1.421875 
Q 20.359375 -1.421875 13.671875 8.265625 
Q 6.984375 17.96875 6.984375 36.375 
Q 6.984375 53.65625 15.1875 63.9375 
Q 23.390625 74.21875 37.203125 74.21875 
Q 40.921875 74.21875 44.703125 73.484375 
Q 48.484375 72.75 52.59375 71.296875 
z
" id="DejaVuSans-54"/>
       </defs>
       <use xlink:href="#DejaVuSans-54"/>
       <use x="63.623047" xlink:href="#DejaVuSans-48"/>
      </g>
     </g>
    </g>
    <g id="xtick_6">
     <g id="line2d_6">
      <g>
       <use style="stroke:#000000;stroke-width:0.8;" x="335.505609" xlink:href="#md2ac02c323" y="307.584"/>
      </g>
     </g>
     <g id="text_6">
      <!-- 80 -->
      <g transform="translate(329.143109 322.182437)scale(0.1 -0.1)">
       <defs>
        <path d="M 31.78125 34.625 
Q 24.75 34.625 20.71875 30.859375 
Q 16.703125 27.09375 16.703125 20.515625 
Q 16.703125 13.921875 20.71875 10.15625 
Q 24.75 6.390625 31.78125 6.390625 
Q 38.8125 6.390625 42.859375 10.171875 
Q 46.921875 13.96875 46.921875 20.515625 
Q 46.921875 27.09375 42.890625 30.859375 
Q 38.875 34.625 31.78125 34.625 
z
M 21.921875 38.8125 
Q 15.578125 40.375 12.03125 44.71875 
Q 8.5 49.078125 8.5 55.328125 
Q 8.5 64.0625 14.71875 69.140625 
Q 20.953125 74.21875 31.78125 74.21875 
Q 42.671875 74.21875 48.875 69.140625 
Q 55.078125 64.0625 55.078125 55.328125 
Q 55.078125 49.078125 51.53125 44.71875 
Q 48 40.375 41.703125 38.8125 
Q 48.828125 37.15625 52.796875 32.3125 
Q 56.78125 27.484375 56.78125 20.515625 
Q 56.78125 9.90625 50.3125 4.234375 
Q 43.84375 -1.421875 31.78125 -1.421875 
Q 19.734375 -1.421875 13.25 4.234375 
Q 6.78125 9.90625 6.78125 20.515625 
Q 6.78125 27.484375 10.78125 32.3125 
Q 14.796875 37.15625 21.921875 38.8125 
z
M 18.3125 54.390625 
Q 18.3125 48.734375 21.84375 45.5625 
Q 25.390625 42.390625 31.78125 42.390625 
Q 38.140625 42.390625 41.71875 45.5625 
Q 45.3125 48.734375 45.3125 54.390625 
Q 45.3125 60.0625 41.71875 63.234375 
Q 38.140625 66.40625 31.78125 66.40625 
Q 25.390625 66.40625 21.84375 63.234375 
Q 18.3125 60.0625 18.3125 54.390625 
z
" id="DejaVuSans-56"/>
       </defs>
       <use xlink:href="#DejaVuSans-56"/>
       <use x="63.623047" xlink:href="#DejaVuSans-48"/>
      </g>
     </g>
    </g>
    <g id="xtick_7">
     <g id="line2d_7">
      <g>
       <use style="stroke:#000000;stroke-width:0.8;" x="389.545359" xlink:href="#md2ac02c323" y="307.584"/>
      </g>
     </g>
     <g id="text_7">
      <!-- 100 -->
      <g transform="translate(380.001609 322.182437)scale(0.1 -0.1)">
       <defs>
        <path d="M 12.40625 8.296875 
L 28.515625 8.296875 
L 28.515625 63.921875 
L 10.984375 60.40625 
L 10.984375 69.390625 
L 28.421875 72.90625 
L 38.28125 72.90625 
L 38.28125 8.296875 
L 54.390625 8.296875 
L 54.390625 0 
L 12.40625 0 
z
" id="DejaVuSans-49"/>
       </defs>
       <use xlink:href="#DejaVuSans-49"/>
       <use x="63.623047" xlink:href="#DejaVuSans-48"/>
       <use x="127.246094" xlink:href="#DejaVuSans-48"/>
      </g>
     </g>
    </g>
   </g>
   <g id="matplotlib.axis_2">
    <g id="ytick_1">
     <g id="line2d_8">
      <defs>
       <path d="M 0 0 
L -3.5 0 
" id="mff42124dd0" style="stroke:#000000;stroke-width:0.8;"/>
      </defs>
      <g>
       <use style="stroke:#000000;stroke-width:0.8;" x="57.6" xlink:href="#mff42124dd0" y="264.011758"/>
      </g>
     </g>
     <g id="text_8">
      <!-- 20 -->
      <g transform="translate(37.875 267.810976)scale(0.1 -0.1)">
       <use xlink:href="#DejaVuSans-50"/>
       <use x="63.623047" xlink:href="#DejaVuSans-48"/>
      </g>
     </g>
    </g>
    <g id="ytick_2">
     <g id="line2d_9">
      <g>
       <use style="stroke:#000000;stroke-width:0.8;" x="57.6" xlink:href="#mff42124dd0" y="209.972008"/>
      </g>
     </g>
     <g id="text_9">
      <!-- 40 -->
      <g transform="translate(37.875 213.771227)scale(0.1 -0.1)">
       <use xlink:href="#DejaVuSans-52"/>
       <use x="63.623047" xlink:href="#DejaVuSans-48"/>
      </g>
     </g>
    </g>
    <g id="ytick_3">
     <g id="line2d_10">
      <g>
       <use style="stroke:#000000;stroke-width:0.8;" x="57.6" xlink:href="#mff42124dd0" y="155.932258"/>
      </g>
     </g>
     <g id="text_10">
      <!-- 60 -->
      <g transform="translate(37.875 159.731477)scale(0.1 -0.1)">
       <use xlink:href="#DejaVuSans-54"/>
       <use x="63.623047" xlink:href="#DejaVuSans-48"/>
      </g>
     </g>
    </g>
    <g id="ytick_4">
     <g id="line2d_11">
      <g>
       <use style="stroke:#000000;stroke-width:0.8;" x="57.6" xlink:href="#mff42124dd0" y="101.892508"/>
      </g>
     </g>
     <g id="text_11">
      <!-- 80 -->
      <g transform="translate(37.875 105.691727)scale(0.1 -0.1)">
       <use xlink:href="#DejaVuSans-56"/>
       <use x="63.623047" xlink:href="#DejaVuSans-48"/>
      </g>
     </g>
    </g>
    <g id="ytick_5">
     <g id="line2d_12">
      <g>
       <use style="stroke:#000000;stroke-width:0.8;" x="57.6" xlink:href="#mff42124dd0" y="47.852758"/>
      </g>
     </g>
     <g id="text_12">
      <!-- 100 -->
      <g transform="translate(31.5125 51.651977)scale(0.1 -0.1)">
       <use xlink:href="#DejaVuSans-49"/>
       <use x="63.623047" xlink:href="#DejaVuSans-48"/>
       <use x="127.246094" xlink:href="#DejaVuSans-48"/>
      </g>
     </g>
    </g>
   </g>
   <g id="line2d_13">
    <path clip-path="url(#p84bb69b83d)" d="M 146.366485 179.634092 
L 145.858511 176.848343 
L 145.480233 174.081508 
L 145.226246 171.330885 
L 145.064127 165.87287 
L 145.32622 160.471597 
L 145.966591 155.121662 
L 146.939306 149.823064 
L 148.198432 144.564997 
L 149.700737 139.344757 
L 151.394884 134.156941 
L 154.202249 126.431959 
L 157.258196 118.788036 
L 159.517058 113.813677 
L 162.032608 108.996033 
L 164.866993 104.386443 
L 166.42604 102.176217 
L 168.087762 100.038945 
L 169.846756 97.969222 
L 173.618731 94.03783 
L 177.68252 90.371233 
L 181.981382 86.964027 
L 186.453171 83.802702 
L 191.049252 80.881853 
L 195.761518 78.179866 
L 200.581864 75.680527 
L 205.507587 73.364924 
L 210.533284 71.214142 
L 215.65355 69.233585 
L 220.852174 67.493505 
L 226.123752 66.066856 
L 228.782507 65.494035 
L 231.454773 65.031995 
L 234.137847 64.68614 
L 236.831728 64.464577 
L 239.533716 64.375412 
L 244.953902 64.537531 
L 250.379493 65.088736 
L 255.791574 65.937161 
L 261.171231 66.99634 
L 269.142095 68.822883 
L 274.386652 70.203599 
L 279.582574 71.759944 
L 284.72986 73.524341 
L 289.831213 75.529216 
L 294.856909 77.815098 
L 299.720487 80.427919 
L 302.060408 81.870781 
L 304.321972 83.413616 
L 306.488966 85.059126 
L 308.555986 86.812716 
L 310.506821 88.685193 
L 312.327961 90.676558 
L 314.016703 92.78681 
L 315.581154 95.00244 
L 317.021313 97.315341 
L 318.347989 99.712004 
L 319.561181 102.178919 
L 321.671433 107.285675 
L 323.398003 112.543743 
L 324.778719 117.863956 
L 325.837898 123.219295 
L 326.591753 128.607058 
L 327.056494 134.019139 
L 327.251038 139.452836 
L 327.188892 144.905447 
L 326.861951 150.352654 
L 326.245898 155.775543 
L 325.32452 161.147094 
L 324.078904 166.440287 
L 322.492838 171.636209 
L 320.590638 176.726754 
L 318.410134 181.717325 
L 315.991856 186.610624 
L 313.37363 191.40395 
L 310.590583 196.105408 
L 307.642714 200.693383 
L 304.516515 205.151662 
L 301.201176 209.45863 
L 297.688592 213.598075 
L 293.970658 217.551083 
L 290.068988 221.333865 
L 286.02141 224.97074 
L 279.750097 230.209894 
L 271.187499 236.929737 
L 260.484927 245.284282 
L 254.22172 250.507224 
L 250.166036 254.138695 
L 246.231943 257.905266 
L 242.438352 261.809638 
L 238.809583 265.857215 
L 235.367251 270.058806 
L 232.13027 274.419814 
L 229.122958 278.945643 
L 226.366931 283.644399 
L 223.883804 288.524188 
L 222.748969 291.031633 
L 222.748969 291.031633 
" style="fill:none;stroke:#fea952;stroke-linecap:square;"/>
   </g>
   <g id="line2d_14">
    <path clip-path="url(#p84bb69b83d)" d="M 135.733859 181.572922 
L 135.150178 178.312373 
L 134.718066 175.075264 
L 134.431438 171.863699 
L 134.28373 168.701094 
L 134.261018 165.549424 
L 134.361559 162.440801 
L 134.893376 156.328027 
L 135.813731 150.362674 
L 137.056932 144.544465 
L 138.566885 138.85566 
L 140.279025 133.307945 
L 143.119152 125.203126 
L 146.226277 117.166675 
L 148.570729 111.706686 
L 151.238206 106.228353 
L 154.3124 100.819218 
L 156.035151 98.156647 
L 157.893599 95.542271 
L 159.85223 93.039817 
L 161.904626 90.638851 
L 164.039143 88.338088 
L 168.516228 84.023748 
L 173.218102 80.06873 
L 178.074449 76.447128 
L 183.046797 73.124741 
L 188.12025 70.068706 
L 193.286039 67.25704 
L 198.527906 64.675309 
L 203.836055 62.301012 
L 209.286333 60.078396 
L 214.94882 58.035286 
L 220.834692 56.255328 
L 223.847441 55.501337 
L 226.941114 54.844103 
L 230.073035 54.312732 
L 233.251919 53.914561 
L 236.47526 53.662508 
L 239.641574 53.568 
L 242.778685 53.607859 
L 248.928272 54.035834 
L 254.890592 54.823688 
L 260.658298 55.857852 
L 269.034834 57.678829 
L 274.604858 59.063127 
L 280.18874 60.633278 
L 285.776336 62.427733 
L 291.356656 64.482309 
L 296.974313 66.862048 
L 302.601356 69.652337 
L 305.393201 71.228349 
L 308.151241 72.942537 
L 310.858143 74.806047 
L 313.480896 76.817482 
L 316.040161 79.01535 
L 318.482476 81.391311 
L 320.766497 83.923568 
L 322.845555 86.552779 
L 324.755898 89.289661 
L 326.477196 92.081025 
L 328.046571 94.942384 
L 329.464906 97.85133 
L 330.735784 100.781511 
L 331.881782 103.741587 
L 333.817256 109.671294 
L 335.351424 115.621261 
L 336.520542 121.578287 
L 337.347124 127.542277 
L 337.852114 133.503014 
L 338.058982 139.442114 
L 337.984633 145.41902 
L 337.616897 151.421734 
L 336.923925 157.446327 
L 335.883367 163.454159 
L 334.465308 169.429335 
L 332.671866 175.269273 
L 330.550617 180.923253 
L 328.152915 186.396001 
L 325.524726 191.703381 
L 322.725162 196.822495 
L 319.735194 201.866299 
L 316.555485 206.806836 
L 313.152552 211.650173 
L 309.530475 216.345906 
L 305.652143 220.905171 
L 301.575293 225.231011 
L 297.360021 229.312124 
L 293.056897 233.175234 
L 286.504385 238.647393 
L 277.788647 245.487577 
L 267.308428 253.665906 
L 261.366105 258.617067 
L 257.574427 262.0081 
L 253.911766 265.510007 
L 250.406369 269.111863 
L 247.093955 272.798466 
L 243.966951 276.605327 
L 241.054631 280.516335 
L 238.367909 284.544094 
L 235.922499 288.694437 
L 233.730254 292.980556 
L 232.595419 295.488 
L 232.595419 295.488 
" style="fill:none;stroke:#ffffff;stroke-linecap:square;"/>
   </g>
   <g id="line2d_15">
    <path clip-path="url(#p84bb69b83d)" d="M 156.99911 177.695262 
L 156.2424 173.087752 
L 155.898564 168.486448 
L 155.928814 163.890156 
L 156.310269 159.254424 
L 157.01651 154.568542 
L 158.015958 149.832788 
L 159.278245 145.043286 
L 160.770662 140.188349 
L 163.356126 132.799971 
L 166.182565 125.472921 
L 168.150485 120.865305 
L 170.238506 116.535424 
L 172.498036 112.503814 
L 174.958481 108.810163 
L 177.788886 105.299594 
L 180.995094 101.937264 
L 184.519561 98.741816 
L 188.335776 95.70665 
L 192.356552 92.855982 
L 196.5291 90.197595 
L 200.838677 87.721052 
L 205.273103 85.417265 
L 209.838495 83.267198 
L 214.53624 81.253471 
L 219.217799 79.436914 
L 223.850933 77.877109 
L 228.400063 76.632375 
L 232.836511 75.751257 
L 237.188196 75.266647 
L 241.703529 75.197004 
L 246.405124 75.50397 
L 251.288581 76.137361 
L 256.312613 77.032416 
L 263.964268 78.691599 
L 271.381937 80.585481 
L 276.187372 82.020761 
L 280.895165 83.629137 
L 285.499738 85.431242 
L 289.913915 87.426476 
L 294.047773 89.62749 
L 297.7858 92.021185 
L 301.071811 94.610081 
L 302.531167 95.979075 
L 303.889424 97.429548 
L 305.18785 99.020842 
L 306.406409 100.715219 
L 307.56543 102.549657 
L 308.649406 104.481625 
L 310.596804 108.634447 
L 312.255471 113.099686 
L 313.628904 117.755903 
L 314.715619 122.489281 
L 315.528474 127.264259 
L 316.079812 132.093591 
L 316.381308 136.989449 
L 316.44884 141.91969 
L 316.279534 146.850307 
L 315.871095 151.69998 
L 315.19998 156.486058 
L 314.264057 161.161782 
L 313.042645 165.729511 
L 311.512364 170.262659 
L 309.688006 174.777179 
L 307.594734 179.278618 
L 305.268973 183.749339 
L 302.754904 188.176129 
L 300.096653 192.489607 
L 297.317949 196.642545 
L 294.390041 200.638134 
L 291.320797 204.452699 
L 288.072942 208.096359 
L 284.600291 211.62295 
L 280.905671 215.068689 
L 277.028984 218.445622 
L 270.941513 223.41738 
L 249.259439 240.527629 
L 244.904532 244.313398 
L 240.642971 248.262184 
L 236.493616 252.382112 
L 232.475184 256.688301 
L 228.628708 261.183528 
L 224.965636 265.884591 
L 221.520466 270.796822 
L 218.314118 275.937921 
L 215.381815 281.310366 
L 212.90252 286.575265 
L 212.90252 286.575265 
" style="fill:none;stroke:#ffffff;stroke-linecap:square;"/>
   </g>
   <g id="patch_3">
    <path d="M 57.6 307.584 
L 57.6 41.472 
" style="fill:none;stroke:#000000;stroke-linecap:square;stroke-linejoin:miter;stroke-width:0.8;"/>
   </g>
   <g id="patch_4">
    <path d="M 414.72 307.584 
L 414.72 41.472 
" style="fill:none;stroke:#000000;stroke-linecap:square;stroke-linejoin:miter;stroke-width:0.8;"/>
   </g>
   <g id="patch_5">
    <path d="M 57.6 307.584 
L 414.72 307.584 
" style="fill:none;stroke:#000000;stroke-linecap:square;stroke-linejoin:miter;stroke-width:0.8;"/>
   </g>
   <g id="patch_6">
    <path d="M 57.6 41.472 
L 414.72 41.472 
" style="fill:none;stroke:#000000;stroke-linecap:square;stroke-linejoin:miter;stroke-width:0.8;"/>
   </g>
  </g>
 </g>
 <defs>
  <clipPath id="p84bb69b83d">
   <rect height="266.112" width="357.12" x="57.6" y="41.472"/>
  </clipPath>
 </defs>
</svg>
