<?xml version="1.0" encoding="utf-8" standalone="no"?>
<!DOCTYPE svg PUBLIC "-//W3C//DTD SVG 1.1//EN"
  "http://www.w3.org/Graphics/SVG/1.1/DTD/svg11.dtd">
<!-- Created with matplotlib (https://matplotlib.org/) -->
<svg height="345.6pt" version="1.1" viewBox="0 0 460.8 345.6" width="460.8pt" xmlns="http://www.w3.org/2000/svg" xmlns:xlink="http://www.w3.org/1999/xlink">
 <metadata>
  <rdf:RDF xmlns:cc="http://creativecommons.org/ns#" xmlns:dc="http://purl.org/dc/elements/1.1/" xmlns:rdf="http://www.w3.org/1999/02/22-rdf-syntax-ns#">
   <cc:Work>
    <dc:type rdf:resource="http://purl.org/dc/dcmitype/StillImage"/>
    <dc:date>2021-01-25T12:45:45.880363</dc:date>
    <dc:format>image/svg+xml</dc:format>
    <dc:creator>
     <cc:Agent>
      <dc:title>Matplotlib v3.3.3, https://matplotlib.org/</dc:title>
     </cc:Agent>
    </dc:creator>
   </cc:Work>
  </rdf:RDF>
 </metadata>
 <defs>
  <style type="text/css">*{stroke-linecap:butt;stroke-linejoin:round;}</style>
 </defs>
 <g id="figure_1">
  <g id="patch_1">
   <path d="M 0 345.6 
L 460.8 345.6 
L 460.8 0 
L 0 0 
z
" style="fill:#ffffff;"/>
  </g>
  <g id="axes_1">
   <g id="patch_2">
    <path d="M 57.6 307.584 
L 414.72 307.584 
L 414.72 41.472 
L 57.6 41.472 
z
" style="fill:#7d9051;"/>
   </g>
   <g id="matplotlib.axis_1">
    <g id="xtick_1">
     <g id="line2d_1">
      <defs>
       <path d="M 0 0 
L 0 3.5 
" id="m72901eef28" style="stroke:#000000;stroke-width:0.8;"/>
      </defs>
      <g>
       <use style="stroke:#000000;stroke-width:0.8;" x="88.847323" xlink:href="#m72901eef28" y="307.584"/>
      </g>
     </g>
     <g id="text_1">
      <!-- 10 -->
      <g transform="translate(82.484823 322.182437)scale(0.1 -0.1)">
       <defs>
        <path d="M 12.40625 8.296875 
L 28.515625 8.296875 
L 28.515625 63.921875 
L 10.984375 60.40625 
L 10.984375 69.390625 
L 28.421875 72.90625 
L 38.28125 72.90625 
L 38.28125 8.296875 
L 54.390625 8.296875 
L 54.390625 0 
L 12.40625 0 
z
" id="DejaVuSans-49"/>
        <path d="M 31.78125 66.40625 
Q 24.171875 66.40625 20.328125 58.90625 
Q 16.5 51.421875 16.5 36.375 
Q 16.5 21.390625 20.328125 13.890625 
Q 24.171875 6.390625 31.78125 6.390625 
Q 39.453125 6.390625 43.28125 13.890625 
Q 47.125 21.390625 47.125 36.375 
Q 47.125 51.421875 43.28125 58.90625 
Q 39.453125 66.40625 31.78125 66.40625 
z
M 31.78125 74.21875 
Q 44.046875 74.21875 50.515625 64.515625 
Q 56.984375 54.828125 56.984375 36.375 
Q 56.984375 17.96875 50.515625 8.265625 
Q 44.046875 -1.421875 31.78125 -1.421875 
Q 19.53125 -1.421875 13.0625 8.265625 
Q 6.59375 17.96875 6.59375 36.375 
Q 6.59375 54.828125 13.0625 64.515625 
Q 19.53125 74.21875 31.78125 74.21875 
z
" id="DejaVuSans-48"/>
       </defs>
       <use xlink:href="#DejaVuSans-49"/>
       <use x="63.623047" xlink:href="#DejaVuSans-48"/>
      </g>
     </g>
    </g>
    <g id="xtick_2">
     <g id="line2d_2">
      <g>
       <use style="stroke:#000000;stroke-width:0.8;" x="129.271232" xlink:href="#m72901eef28" y="307.584"/>
      </g>
     </g>
     <g id="text_2">
      <!-- 20 -->
      <g transform="translate(122.908732 322.182437)scale(0.1 -0.1)">
       <defs>
        <path d="M 19.1875 8.296875 
L 53.609375 8.296875 
L 53.609375 0 
L 7.328125 0 
L 7.328125 8.296875 
Q 12.9375 14.109375 22.625 23.890625 
Q 32.328125 33.6875 34.8125 36.53125 
Q 39.546875 41.84375 41.421875 45.53125 
Q 43.3125 49.21875 43.3125 52.78125 
Q 43.3125 58.59375 39.234375 62.25 
Q 35.15625 65.921875 28.609375 65.921875 
Q 23.96875 65.921875 18.8125 64.3125 
Q 13.671875 62.703125 7.8125 59.421875 
L 7.8125 69.390625 
Q 13.765625 71.78125 18.9375 73 
Q 24.125 74.21875 28.421875 74.21875 
Q 39.75 74.21875 46.484375 68.546875 
Q 53.21875 62.890625 53.21875 53.421875 
Q 53.21875 48.921875 51.53125 44.890625 
Q 49.859375 40.875 45.40625 35.40625 
Q 44.1875 33.984375 37.640625 27.21875 
Q 31.109375 20.453125 19.1875 8.296875 
z
" id="DejaVuSans-50"/>
       </defs>
       <use xlink:href="#DejaVuSans-50"/>
       <use x="63.623047" xlink:href="#DejaVuSans-48"/>
      </g>
     </g>
    </g>
    <g id="xtick_3">
     <g id="line2d_3">
      <g>
       <use style="stroke:#000000;stroke-width:0.8;" x="169.695141" xlink:href="#m72901eef28" y="307.584"/>
      </g>
     </g>
     <g id="text_3">
      <!-- 30 -->
      <g transform="translate(163.332641 322.182437)scale(0.1 -0.1)">
       <defs>
        <path d="M 40.578125 39.3125 
Q 47.65625 37.796875 51.625 33 
Q 55.609375 28.21875 55.609375 21.1875 
Q 55.609375 10.40625 48.1875 4.484375 
Q 40.765625 -1.421875 27.09375 -1.421875 
Q 22.515625 -1.421875 17.65625 -0.515625 
Q 12.796875 0.390625 7.625 2.203125 
L 7.625 11.71875 
Q 11.71875 9.328125 16.59375 8.109375 
Q 21.484375 6.890625 26.8125 6.890625 
Q 36.078125 6.890625 40.9375 10.546875 
Q 45.796875 14.203125 45.796875 21.1875 
Q 45.796875 27.640625 41.28125 31.265625 
Q 36.765625 34.90625 28.71875 34.90625 
L 20.21875 34.90625 
L 20.21875 43.015625 
L 29.109375 43.015625 
Q 36.375 43.015625 40.234375 45.921875 
Q 44.09375 48.828125 44.09375 54.296875 
Q 44.09375 59.90625 40.109375 62.90625 
Q 36.140625 65.921875 28.71875 65.921875 
Q 24.65625 65.921875 20.015625 65.03125 
Q 15.375 64.15625 9.8125 62.3125 
L 9.8125 71.09375 
Q 15.4375 72.65625 20.34375 73.4375 
Q 25.25 74.21875 29.59375 74.21875 
Q 40.828125 74.21875 47.359375 69.109375 
Q 53.90625 64.015625 53.90625 55.328125 
Q 53.90625 49.265625 50.4375 45.09375 
Q 46.96875 40.921875 40.578125 39.3125 
z
" id="DejaVuSans-51"/>
       </defs>
       <use xlink:href="#DejaVuSans-51"/>
       <use x="63.623047" xlink:href="#DejaVuSans-48"/>
      </g>
     </g>
    </g>
    <g id="xtick_4">
     <g id="line2d_4">
      <g>
       <use style="stroke:#000000;stroke-width:0.8;" x="210.11905" xlink:href="#m72901eef28" y="307.584"/>
      </g>
     </g>
     <g id="text_4">
      <!-- 40 -->
      <g transform="translate(203.75655 322.182437)scale(0.1 -0.1)">
       <defs>
        <path d="M 37.796875 64.3125 
L 12.890625 25.390625 
L 37.796875 25.390625 
z
M 35.203125 72.90625 
L 47.609375 72.90625 
L 47.609375 25.390625 
L 58.015625 25.390625 
L 58.015625 17.1875 
L 47.609375 17.1875 
L 47.609375 0 
L 37.796875 0 
L 37.796875 17.1875 
L 4.890625 17.1875 
L 4.890625 26.703125 
z
" id="DejaVuSans-52"/>
       </defs>
       <use xlink:href="#DejaVuSans-52"/>
       <use x="63.623047" xlink:href="#DejaVuSans-48"/>
      </g>
     </g>
    </g>
    <g id="xtick_5">
     <g id="line2d_5">
      <g>
       <use style="stroke:#000000;stroke-width:0.8;" x="250.54296" xlink:href="#m72901eef28" y="307.584"/>
      </g>
     </g>
     <g id="text_5">
      <!-- 50 -->
      <g transform="translate(244.18046 322.182437)scale(0.1 -0.1)">
       <defs>
        <path d="M 10.796875 72.90625 
L 49.515625 72.90625 
L 49.515625 64.59375 
L 19.828125 64.59375 
L 19.828125 46.734375 
Q 21.96875 47.46875 24.109375 47.828125 
Q 26.265625 48.1875 28.421875 48.1875 
Q 40.625 48.1875 47.75 41.5 
Q 54.890625 34.8125 54.890625 23.390625 
Q 54.890625 11.625 47.5625 5.09375 
Q 40.234375 -1.421875 26.90625 -1.421875 
Q 22.3125 -1.421875 17.546875 -0.640625 
Q 12.796875 0.140625 7.71875 1.703125 
L 7.71875 11.625 
Q 12.109375 9.234375 16.796875 8.0625 
Q 21.484375 6.890625 26.703125 6.890625 
Q 35.15625 6.890625 40.078125 11.328125 
Q 45.015625 15.765625 45.015625 23.390625 
Q 45.015625 31 40.078125 35.4375 
Q 35.15625 39.890625 26.703125 39.890625 
Q 22.75 39.890625 18.8125 39.015625 
Q 14.890625 38.140625 10.796875 36.28125 
z
" id="DejaVuSans-53"/>
       </defs>
       <use xlink:href="#DejaVuSans-53"/>
       <use x="63.623047" xlink:href="#DejaVuSans-48"/>
      </g>
     </g>
    </g>
    <g id="xtick_6">
     <g id="line2d_6">
      <g>
       <use style="stroke:#000000;stroke-width:0.8;" x="290.966869" xlink:href="#m72901eef28" y="307.584"/>
      </g>
     </g>
     <g id="text_6">
      <!-- 60 -->
      <g transform="translate(284.604369 322.182437)scale(0.1 -0.1)">
       <defs>
        <path d="M 33.015625 40.375 
Q 26.375 40.375 22.484375 35.828125 
Q 18.609375 31.296875 18.609375 23.390625 
Q 18.609375 15.53125 22.484375 10.953125 
Q 26.375 6.390625 33.015625 6.390625 
Q 39.65625 6.390625 43.53125 10.953125 
Q 47.40625 15.53125 47.40625 23.390625 
Q 47.40625 31.296875 43.53125 35.828125 
Q 39.65625 40.375 33.015625 40.375 
z
M 52.59375 71.296875 
L 52.59375 62.3125 
Q 48.875 64.0625 45.09375 64.984375 
Q 41.3125 65.921875 37.59375 65.921875 
Q 27.828125 65.921875 22.671875 59.328125 
Q 17.53125 52.734375 16.796875 39.40625 
Q 19.671875 43.65625 24.015625 45.921875 
Q 28.375 48.1875 33.59375 48.1875 
Q 44.578125 48.1875 50.953125 41.515625 
Q 57.328125 34.859375 57.328125 23.390625 
Q 57.328125 12.15625 50.6875 5.359375 
Q 44.046875 -1.421875 33.015625 -1.421875 
Q 20.359375 -1.421875 13.671875 8.265625 
Q 6.984375 17.96875 6.984375 36.375 
Q 6.984375 53.65625 15.1875 63.9375 
Q 23.390625 74.21875 37.203125 74.21875 
Q 40.921875 74.21875 44.703125 73.484375 
Q 48.484375 72.75 52.59375 71.296875 
z
" id="DejaVuSans-54"/>
       </defs>
       <use xlink:href="#DejaVuSans-54"/>
       <use x="63.623047" xlink:href="#DejaVuSans-48"/>
      </g>
     </g>
    </g>
    <g id="xtick_7">
     <g id="line2d_7">
      <g>
       <use style="stroke:#000000;stroke-width:0.8;" x="331.390778" xlink:href="#m72901eef28" y="307.584"/>
      </g>
     </g>
     <g id="text_7">
      <!-- 70 -->
      <g transform="translate(325.028278 322.182437)scale(0.1 -0.1)">
       <defs>
        <path d="M 8.203125 72.90625 
L 55.078125 72.90625 
L 55.078125 68.703125 
L 28.609375 0 
L 18.3125 0 
L 43.21875 64.59375 
L 8.203125 64.59375 
z
" id="DejaVuSans-55"/>
       </defs>
       <use xlink:href="#DejaVuSans-55"/>
       <use x="63.623047" xlink:href="#DejaVuSans-48"/>
      </g>
     </g>
    </g>
    <g id="xtick_8">
     <g id="line2d_8">
      <g>
       <use style="stroke:#000000;stroke-width:0.8;" x="371.814688" xlink:href="#m72901eef28" y="307.584"/>
      </g>
     </g>
     <g id="text_8">
      <!-- 80 -->
      <g transform="translate(365.452188 322.182437)scale(0.1 -0.1)">
       <defs>
        <path d="M 31.78125 34.625 
Q 24.75 34.625 20.71875 30.859375 
Q 16.703125 27.09375 16.703125 20.515625 
Q 16.703125 13.921875 20.71875 10.15625 
Q 24.75 6.390625 31.78125 6.390625 
Q 38.8125 6.390625 42.859375 10.171875 
Q 46.921875 13.96875 46.921875 20.515625 
Q 46.921875 27.09375 42.890625 30.859375 
Q 38.875 34.625 31.78125 34.625 
z
M 21.921875 38.8125 
Q 15.578125 40.375 12.03125 44.71875 
Q 8.5 49.078125 8.5 55.328125 
Q 8.5 64.0625 14.71875 69.140625 
Q 20.953125 74.21875 31.78125 74.21875 
Q 42.671875 74.21875 48.875 69.140625 
Q 55.078125 64.0625 55.078125 55.328125 
Q 55.078125 49.078125 51.53125 44.71875 
Q 48 40.375 41.703125 38.8125 
Q 48.828125 37.15625 52.796875 32.3125 
Q 56.78125 27.484375 56.78125 20.515625 
Q 56.78125 9.90625 50.3125 4.234375 
Q 43.84375 -1.421875 31.78125 -1.421875 
Q 19.734375 -1.421875 13.25 4.234375 
Q 6.78125 9.90625 6.78125 20.515625 
Q 6.78125 27.484375 10.78125 32.3125 
Q 14.796875 37.15625 21.921875 38.8125 
z
M 18.3125 54.390625 
Q 18.3125 48.734375 21.84375 45.5625 
Q 25.390625 42.390625 31.78125 42.390625 
Q 38.140625 42.390625 41.71875 45.5625 
Q 45.3125 48.734375 45.3125 54.390625 
Q 45.3125 60.0625 41.71875 63.234375 
Q 38.140625 66.40625 31.78125 66.40625 
Q 25.390625 66.40625 21.84375 63.234375 
Q 18.3125 60.0625 18.3125 54.390625 
z
" id="DejaVuSans-56"/>
       </defs>
       <use xlink:href="#DejaVuSans-56"/>
       <use x="63.623047" xlink:href="#DejaVuSans-48"/>
      </g>
     </g>
    </g>
    <g id="xtick_9">
     <g id="line2d_9">
      <g>
       <use style="stroke:#000000;stroke-width:0.8;" x="412.238597" xlink:href="#m72901eef28" y="307.584"/>
      </g>
     </g>
     <g id="text_9">
      <!-- 90 -->
      <g transform="translate(405.876097 322.182437)scale(0.1 -0.1)">
       <defs>
        <path d="M 10.984375 1.515625 
L 10.984375 10.5 
Q 14.703125 8.734375 18.5 7.8125 
Q 22.3125 6.890625 25.984375 6.890625 
Q 35.75 6.890625 40.890625 13.453125 
Q 46.046875 20.015625 46.78125 33.40625 
Q 43.953125 29.203125 39.59375 26.953125 
Q 35.25 24.703125 29.984375 24.703125 
Q 19.046875 24.703125 12.671875 31.3125 
Q 6.296875 37.9375 6.296875 49.421875 
Q 6.296875 60.640625 12.9375 67.421875 
Q 19.578125 74.21875 30.609375 74.21875 
Q 43.265625 74.21875 49.921875 64.515625 
Q 56.59375 54.828125 56.59375 36.375 
Q 56.59375 19.140625 48.40625 8.859375 
Q 40.234375 -1.421875 26.421875 -1.421875 
Q 22.703125 -1.421875 18.890625 -0.6875 
Q 15.09375 0.046875 10.984375 1.515625 
z
M 30.609375 32.421875 
Q 37.25 32.421875 41.125 36.953125 
Q 45.015625 41.5 45.015625 49.421875 
Q 45.015625 57.28125 41.125 61.84375 
Q 37.25 66.40625 30.609375 66.40625 
Q 23.96875 66.40625 20.09375 61.84375 
Q 16.21875 57.28125 16.21875 49.421875 
Q 16.21875 41.5 20.09375 36.953125 
Q 23.96875 32.421875 30.609375 32.421875 
z
" id="DejaVuSans-57"/>
       </defs>
       <use xlink:href="#DejaVuSans-57"/>
       <use x="63.623047" xlink:href="#DejaVuSans-48"/>
      </g>
     </g>
    </g>
   </g>
   <g id="matplotlib.axis_2">
    <g id="ytick_1">
     <g id="line2d_10">
      <defs>
       <path d="M 0 0 
L -3.5 0 
" id="mbec9459e14" style="stroke:#000000;stroke-width:0.8;"/>
      </defs>
      <g>
       <use style="stroke:#000000;stroke-width:0.8;" x="57.6" xlink:href="#mbec9459e14" y="279.31305"/>
      </g>
     </g>
     <g id="text_10">
      <!-- 10 -->
      <g transform="translate(37.875 283.112269)scale(0.1 -0.1)">
       <use xlink:href="#DejaVuSans-49"/>
       <use x="63.623047" xlink:href="#DejaVuSans-48"/>
      </g>
     </g>
    </g>
    <g id="ytick_2">
     <g id="line2d_11">
      <g>
       <use style="stroke:#000000;stroke-width:0.8;" x="57.6" xlink:href="#mbec9459e14" y="238.889141"/>
      </g>
     </g>
     <g id="text_11">
      <!-- 20 -->
      <g transform="translate(37.875 242.68836)scale(0.1 -0.1)">
       <use xlink:href="#DejaVuSans-50"/>
       <use x="63.623047" xlink:href="#DejaVuSans-48"/>
      </g>
     </g>
    </g>
    <g id="ytick_3">
     <g id="line2d_12">
      <g>
       <use style="stroke:#000000;stroke-width:0.8;" x="57.6" xlink:href="#mbec9459e14" y="198.465232"/>
      </g>
     </g>
     <g id="text_12">
      <!-- 30 -->
      <g transform="translate(37.875 202.26445)scale(0.1 -0.1)">
       <use xlink:href="#DejaVuSans-51"/>
       <use x="63.623047" xlink:href="#DejaVuSans-48"/>
      </g>
     </g>
    </g>
    <g id="ytick_4">
     <g id="line2d_13">
      <g>
       <use style="stroke:#000000;stroke-width:0.8;" x="57.6" xlink:href="#mbec9459e14" y="158.041322"/>
      </g>
     </g>
     <g id="text_13">
      <!-- 40 -->
      <g transform="translate(37.875 161.840541)scale(0.1 -0.1)">
       <use xlink:href="#DejaVuSans-52"/>
       <use x="63.623047" xlink:href="#DejaVuSans-48"/>
      </g>
     </g>
    </g>
    <g id="ytick_5">
     <g id="line2d_14">
      <g>
       <use style="stroke:#000000;stroke-width:0.8;" x="57.6" xlink:href="#mbec9459e14" y="117.617413"/>
      </g>
     </g>
     <g id="text_14">
      <!-- 50 -->
      <g transform="translate(37.875 121.416632)scale(0.1 -0.1)">
       <use xlink:href="#DejaVuSans-53"/>
       <use x="63.623047" xlink:href="#DejaVuSans-48"/>
      </g>
     </g>
    </g>
    <g id="ytick_6">
     <g id="line2d_15">
      <g>
       <use style="stroke:#000000;stroke-width:0.8;" x="57.6" xlink:href="#mbec9459e14" y="77.193504"/>
      </g>
     </g>
     <g id="text_15">
      <!-- 60 -->
      <g transform="translate(37.875 80.992722)scale(0.1 -0.1)">
       <use xlink:href="#DejaVuSans-54"/>
       <use x="63.623047" xlink:href="#DejaVuSans-48"/>
      </g>
     </g>
    </g>
   </g>
   <g id="line2d_16">
    <path clip-path="url(#ped693d338e)" d="M 243.561751 221.543241 
L 242.442008 217.525105 
L 241.585021 213.470587 
L 240.986748 209.395857 
L 240.639102 205.308999 
L 240.542085 201.2181 
L 240.687611 197.135285 
L 241.071638 193.076724 
L 241.686081 189.046461 
L 242.530941 185.056621 
L 243.59409 181.119332 
L 244.875528 177.246722 
L 246.36717 173.446874 
L 248.069016 169.731917 
L 249.964898 166.113977 
L 252.062899 162.601139 
L 254.34685 159.205531 
L 256.81675 155.935237 
L 259.468559 152.806426 
L 262.29419 149.827184 
L 265.289602 147.009637 
L 268.446709 144.361871 
L 271.757427 141.900055 
L 275.201544 139.628232 
L 278.770976 137.566612 
L 282.453594 135.727324 
L 286.233229 134.11441 
L 290.097755 132.74404 
L 294.031001 131.62834 
L 298.020841 130.78348 
L 302.05919 130.213503 
L 306.125835 129.930536 
L 310.20865 129.930536 
L 314.287422 130.197333 
L 318.354068 130.726887 
L 322.388374 131.507068 
L 326.378214 132.525751 
L 330.307418 133.770807 
L 334.155774 135.238195 
L 337.911155 136.915787 
L 341.561434 138.791457 
L 345.090441 140.857118 
L 348.490092 143.104688 
L 351.760386 145.522038 
L 354.901324 148.109168 
L 357.912905 150.849909 
L 360.783003 153.740218 
L 363.519701 156.772011 
L 366.114916 159.933161 
L 368.564605 163.223667 
L 370.872811 166.631403 
L 373.031447 170.144241 
L 375.028388 173.758138 
L 376.847464 177.460968 
L 378.48059 181.240604 
L 379.911597 185.093002 
L 381.124314 188.997952 
L 382.106615 192.955453 
L 382.846372 196.953377 
L 383.327417 200.975556 
L 383.537621 205.017947 
L 383.468901 209.068423 
L 383.121255 213.114856 
L 382.510854 217.141078 
L 381.645782 221.13496 
L 380.538167 225.084376 
L 379.196093 228.973156 
L 377.635731 232.789173 
L 375.861121 236.524342 
L 373.888434 240.158452 
L 371.725755 243.675332 
L 369.381168 247.07094 
L 366.866801 250.33315 
L 364.190738 253.453875 
L 361.357022 256.42099 
L 358.381823 259.230452 
L 355.265139 261.870133 
L 352.015057 264.340034 
L 348.647745 266.619943 
L 345.163204 268.713901 
L 341.573561 270.60574 
L 337.890943 272.291417 
L 334.11535 273.774975 
L 330.266994 275.06854 
L 326.353959 276.172112 
L 322.384331 277.09782 
L 318.37428 277.853747 
L 314.327846 278.447978 
L 310.261201 278.880514 
L 306.178386 279.167524 
L 302.099614 279.31305 
L 298.028926 279.325177 
L 293.970366 279.207948 
L 289.91989 278.969447 
L 281.859362 278.160969 
L 273.855428 276.948251 
L 265.91213 275.387889 
L 258.037553 273.532431 
L 250.227653 271.43443 
L 242.470305 269.13431 
L 230.925237 265.411268 
L 211.80877 258.846425 
L 196.492151 253.688334 
L 188.771184 251.270984 
L 180.981497 249.019372 
L 165.353613 244.641463 
L 157.652859 242.16752 
L 153.865138 240.785022 
L 150.125927 239.273168 
L 146.447351 237.611745 
L 142.837496 235.780542 
L 139.304446 233.783601 
L 135.856287 231.633049 
L 132.49706 229.324844 
L 129.23485 226.875155 
L 126.073701 224.288025 
L 123.025738 221.567496 
L 120.095004 218.725695 
L 117.289585 215.762622 
L 114.617565 212.690405 
L 112.078943 209.517128 
L 109.673721 206.242792 
L 107.405939 202.879522 
L 105.271557 199.427321 
L 103.266531 195.898313 
L 101.394904 192.292501 
L 99.644549 188.62201 
L 98.02355 184.890883 
L 96.523823 181.103162 
L 95.145368 177.266933 
L 93.888184 173.386238 
L 92.752272 169.469161 
L 91.753802 165.519745 
L 90.884688 161.53799 
L 90.1611 157.536023 
L 89.583038 153.513844 
L 89.158587 149.479538 
L 88.891789 145.433105 
L 88.782644 141.386672 
L 88.847323 137.336196 
L 89.081781 133.293805 
L 89.48602 129.259499 
L 90.055997 125.245405 
L 90.78767 121.251522 
L 91.676996 117.285937 
L 92.723975 113.348648 
L 93.916481 109.451783 
L 95.254512 105.599385 
L 96.73807 101.795495 
L 98.359068 98.048198 
L 100.109424 94.357496 
L 101.993178 90.735513 
L 104.006289 87.182252 
L 106.136629 83.701753 
L 108.38824 80.310187 
L 110.753039 76.999469 
L 113.226982 73.785768 
L 115.81007 70.665042 
L 118.494218 67.653461 
L 121.275383 64.746982 
L 121.275383 64.746982 
" style="fill:none;stroke:#fea952;stroke-linecap:square;"/>
   </g>
   <g id="line2d_17">
    <path clip-path="url(#ped693d338e)" d="M 227.985684 225.883856 
L 226.621968 220.868922 
L 225.586979 215.819506 
L 224.875369 210.76636 
L 224.474083 205.692359 
L 224.382783 200.642125 
L 224.589949 195.6121 
L 225.086777 190.639715 
L 225.86728 185.696785 
L 226.920455 180.841469 
L 228.243115 176.03973 
L 229.824126 171.338246 
L 231.666726 166.712503 
L 233.74676 162.226734 
L 236.082725 157.823013 
L 238.645982 153.576665 
L 241.443808 149.460465 
L 244.481594 145.480634 
L 247.736497 141.679274 
L 251.215613 138.049242 
L 254.899142 134.620402 
L 258.798286 131.386405 
L 262.854081 128.402455 
L 267.114388 125.62635 
L 271.546079 123.10094 
L 276.107134 120.855295 
L 280.829165 118.874631 
L 285.685204 117.188199 
L 290.681326 115.809539 
L 295.761048 114.772605 
L 300.936785 114.082942 
L 306.125835 113.760972 
L 311.264067 113.795453 
L 316.375374 114.163143 
L 321.424166 114.851456 
L 326.388453 115.840091 
L 331.262553 117.111536 
L 336.068326 118.662309 
L 340.750859 120.474739 
L 345.301234 122.533801 
L 349.729671 124.836719 
L 354.007818 127.368784 
L 358.101588 130.101844 
L 362.040621 133.04119 
L 365.78454 136.150472 
L 369.386561 139.456489 
L 372.785817 142.905678 
L 376.017147 146.51196 
L 379.084903 150.277373 
L 381.952165 154.1557 
L 384.649194 158.165823 
L 387.184074 162.323886 
L 389.54123 166.628467 
L 391.690687 171.047426 
L 393.6382 175.61018 
L 395.353631 180.29734 
L 396.817673 185.102665 
L 398.006282 190.013452 
L 398.90152 195.033214 
L 399.475164 200.135873 
L 399.704858 205.292242 
L 399.579117 210.452517 
L 399.108137 215.53857 
L 398.313963 220.564018 
L 397.214669 225.50126 
L 395.823085 230.35942 
L 394.162794 235.093014 
L 392.240721 239.728124 
L 390.071987 244.238361 
L 387.662095 248.628461 
L 385.031639 252.862728 
L 382.188107 256.941964 
L 379.141404 260.858781 
L 375.884188 264.621598 
L 372.458487 268.177362 
L 368.832165 271.569218 
L 365.048666 274.744037 
L 361.080528 277.729285 
L 356.976373 280.479551 
L 352.702087 283.018447 
L 348.303461 285.308231 
L 343.804379 287.340871 
L 339.267238 289.101841 
L 334.656004 290.631039 
L 330.026135 291.919173 
L 325.379669 292.987525 
L 320.723633 293.851726 
L 316.038024 294.526849 
L 311.395075 295.010273 
L 306.754931 295.326806 
L 302.147785 295.482542 
L 297.562072 295.488 
L 293.019912 295.349553 
L 288.517039 295.078041 
L 284.056928 294.684046 
L 279.615587 294.174097 
L 270.901878 292.845777 
L 262.341186 291.158213 
L 253.948764 289.176491 
L 245.719414 286.96281 
L 237.634437 284.5638 
L 225.75383 280.73156 
L 206.550111 274.136987 
L 191.592817 269.09779 
L 184.188589 266.777583 
L 176.682057 264.606855 
L 160.590432 260.093547 
L 152.108804 257.356932 
L 147.804072 255.775628 
L 143.470315 254.009437 
L 139.132254 252.032014 
L 134.881145 249.857163 
L 130.74761 247.50349 
L 126.699166 244.959787 
L 122.787633 242.254725 
L 118.993929 239.388281 
L 115.306424 236.351214 
L 111.769613 233.175874 
L 108.353299 229.842671 
L 105.08898 226.373938 
L 101.991257 222.791452 
L 99.047403 219.08968 
L 96.267117 215.282581 
L 93.65272 211.382684 
L 91.212666 207.41496 
L 88.915094 203.347545 
L 86.799908 199.252449 
L 84.814138 195.065124 
L 82.989555 190.843511 
L 81.306816 186.571023 
L 79.762858 182.250226 
L 78.358421 177.889709 
L 77.075928 173.432372 
L 75.956187 168.967956 
L 74.973119 164.414931 
L 74.155984 159.836256 
L 73.50223 155.205713 
L 73.024056 150.543353 
L 72.728104 145.869088 
L 72.615142 141.128508 
L 72.704888 136.399935 
L 72.992784 131.681681 
L 73.47704 126.98632 
L 74.151128 122.331658 
L 75.009993 117.713205 
L 76.050473 113.130629 
L 77.262181 108.617082 
L 78.642003 104.146587 
L 80.190119 99.724111 
L 81.89751 95.375792 
L 83.749282 91.119351 
L 85.764039 86.896615 
L 87.924612 82.764927 
L 90.215036 78.740916 
L 92.665472 74.758446 
L 95.230525 70.911819 
L 97.940251 67.136039 
L 100.770862 63.475586 
L 103.739101 59.906487 
L 106.811532 56.474479 
L 109.592697 53.568 
L 109.592697 53.568 
" style="fill:none;stroke:#ffffff;stroke-linecap:square;"/>
   </g>
   <g id="line2d_18">
    <path clip-path="url(#ped693d338e)" d="M 259.137817 217.202627 
L 258.262049 214.181288 
L 257.583064 211.121668 
L 257.098126 208.025354 
L 256.804121 204.925639 
L 256.701387 201.794075 
L 256.785272 198.65847 
L 257.056499 195.513734 
L 257.504882 192.396136 
L 258.141427 189.271773 
L 258.945065 186.198934 
L 259.92693 183.155197 
L 261.067613 180.181245 
L 262.391273 177.237099 
L 263.84707 174.404941 
L 265.479816 171.625613 
L 267.249891 168.950597 
L 269.151907 166.389839 
L 271.200621 163.933578 
L 273.372767 161.605126 
L 275.680061 159.398872 
L 278.095133 157.337337 
L 280.660774 155.397655 
L 283.288701 153.630113 
L 285.995872 152.032284 
L 288.800053 150.599353 
L 291.637293 149.35419 
L 294.510306 148.299881 
L 297.380677 147.447141 
L 300.280634 146.794355 
L 303.181595 146.344064 
L 306.125835 146.100099 
L 309.153233 146.065618 
L 312.199471 146.231524 
L 315.283969 146.602317 
L 318.388295 147.174045 
L 321.493874 147.939965 
L 324.546509 148.879305 
L 327.560688 150.001651 
L 330.521076 151.297773 
L 333.393197 152.746194 
L 336.173064 154.345453 
L 338.878596 156.107531 
L 341.480151 158.002885 
L 344.018108 160.067864 
L 346.43925 162.243329 
L 348.780189 164.574758 
L 351.022256 167.032063 
L 353.14493 169.588949 
L 355.177046 172.291635 
L 357.096427 175.096983 
L 358.878821 177.964596 
L 360.515547 180.887809 
L 362.004241 183.874511 
L 363.322981 186.871027 
L 364.469563 189.888665 
L 365.430955 192.893239 
L 366.206948 195.897454 
L 366.791225 198.873541 
L 367.17967 201.815239 
L 367.370384 204.743653 
L 367.358684 207.684328 
L 367.134373 210.691142 
L 366.707745 213.718137 
L 366.076896 216.76866 
L 365.25325 219.809332 
L 364.229393 222.853297 
L 363.03074 225.850222 
L 361.650255 228.810324 
L 360.114774 231.688442 
L 358.419871 234.487936 
L 356.574229 237.199916 
L 354.592198 239.807518 
L 352.497289 242.286153 
L 350.255557 244.664619 
L 347.93148 246.891686 
L 345.481613 248.996229 
L 342.949586 250.950784 
L 340.319117 252.760334 
L 337.624322 254.409355 
L 334.843661 255.903249 
L 331.977507 257.241963 
L 328.963462 258.448108 
L 325.877983 259.506041 
L 322.681783 260.425052 
L 319.388994 261.208114 
L 316.024926 261.855768 
L 312.617668 262.369108 
L 309.127327 262.750755 
L 305.601841 263.008242 
L 302.051442 263.143558 
L 298.49578 263.162355 
L 291.32274 262.860853 
L 284.103137 262.147841 
L 276.808979 261.050726 
L 269.483075 259.617564 
L 262.126341 257.888371 
L 254.735892 255.906051 
L 247.306173 253.704819 
L 236.096643 250.090976 
L 217.067429 243.555863 
L 201.391484 238.278878 
L 193.353779 235.764385 
L 185.280936 233.43189 
L 170.116795 229.189379 
L 163.196913 226.978107 
L 159.926205 225.794416 
L 156.781538 224.536899 
L 153.762448 223.191477 
L 150.793847 221.703921 
L 147.861282 220.063712 
L 145.013407 218.306312 
L 142.206487 216.394963 
L 139.475772 214.362029 
L 136.840977 212.224835 
L 134.281862 209.959117 
L 131.83671 207.608719 
L 129.49019 205.151306 
L 127.243873 202.589359 
L 125.110484 199.944577 
L 123.080324 197.203003 
L 121.159159 194.376361 
L 119.330447 191.439681 
L 117.617968 188.449081 
L 115.9899 185.332552 
L 114.474959 182.178895 
L 113.057545 178.938255 
L 111.74083 175.635302 
L 110.527877 172.283641 
L 108.428616 165.505951 
L 107.551417 162.071535 
L 106.796256 158.66105 
L 106.166215 155.235791 
L 105.663845 151.821976 
L 105.293118 148.415723 
L 105.055474 144.997121 
L 104.950147 141.644835 
L 104.989757 138.272457 
L 105.170779 134.905929 
L 105.495001 131.532677 
L 105.960867 128.159151 
L 106.565348 124.789839 
L 107.303519 121.441244 
L 108.18577 118.080214 
L 109.190959 114.75698 
L 110.318906 111.474658 
L 111.578629 108.215197 
L 112.968855 104.977046 
L 114.454808 101.818376 
L 116.061743 98.7061 
L 117.797541 95.623587 
L 119.607785 92.64506 
L 121.545956 89.708555 
L 123.565827 86.862898 
L 125.683102 84.09595 
L 127.881039 81.423597 
L 130.176904 78.832443 
L 132.958069 75.925964 
L 132.958069 75.925964 
" style="fill:none;stroke:#ffffff;stroke-linecap:square;"/>
   </g>
   <g id="patch_3">
    <path d="M 57.6 307.584 
L 57.6 41.472 
" style="fill:none;stroke:#000000;stroke-linecap:square;stroke-linejoin:miter;stroke-width:0.8;"/>
   </g>
   <g id="patch_4">
    <path d="M 414.72 307.584 
L 414.72 41.472 
" style="fill:none;stroke:#000000;stroke-linecap:square;stroke-linejoin:miter;stroke-width:0.8;"/>
   </g>
   <g id="patch_5">
    <path d="M 57.6 307.584 
L 414.72 307.584 
" style="fill:none;stroke:#000000;stroke-linecap:square;stroke-linejoin:miter;stroke-width:0.8;"/>
   </g>
   <g id="patch_6">
    <path d="M 57.6 41.472 
L 414.72 41.472 
" style="fill:none;stroke:#000000;stroke-linecap:square;stroke-linejoin:miter;stroke-width:0.8;"/>
   </g>
  </g>
 </g>
 <defs>
  <clipPath id="ped693d338e">
   <rect height="266.112" width="357.12" x="57.6" y="41.472"/>
  </clipPath>
 </defs>
</svg>
