<?xml version="1.0" encoding="utf-8" standalone="no"?>
<!DOCTYPE svg PUBLIC "-//W3C//DTD SVG 1.1//EN"
  "http://www.w3.org/Graphics/SVG/1.1/DTD/svg11.dtd">
<!-- Created with matplotlib (https://matplotlib.org/) -->
<svg height="345.6pt" version="1.1" viewBox="0 0 460.8 345.6" width="460.8pt" xmlns="http://www.w3.org/2000/svg" xmlns:xlink="http://www.w3.org/1999/xlink">
 <metadata>
  <rdf:RDF xmlns:cc="http://creativecommons.org/ns#" xmlns:dc="http://purl.org/dc/elements/1.1/" xmlns:rdf="http://www.w3.org/1999/02/22-rdf-syntax-ns#">
   <cc:Work>
    <dc:type rdf:resource="http://purl.org/dc/dcmitype/StillImage"/>
    <dc:date>2021-01-25T14:51:37.985714</dc:date>
    <dc:format>image/svg+xml</dc:format>
    <dc:creator>
     <cc:Agent>
      <dc:title>Matplotlib v3.3.3, https://matplotlib.org/</dc:title>
     </cc:Agent>
    </dc:creator>
   </cc:Work>
  </rdf:RDF>
 </metadata>
 <defs>
  <style type="text/css">*{stroke-linecap:butt;stroke-linejoin:round;}</style>
 </defs>
 <g id="figure_1">
  <g id="patch_1">
   <path d="M 0 345.6 
L 460.8 345.6 
L 460.8 0 
L 0 0 
z
" style="fill:#ffffff;"/>
  </g>
  <g id="axes_1">
   <g id="patch_2">
    <path d="M 57.6 307.584 
L 414.72 307.584 
L 414.72 41.472 
L 57.6 41.472 
z
" style="fill:#7d9051;"/>
   </g>
   <g id="matplotlib.axis_1">
    <g id="xtick_1">
     <g id="line2d_1">
      <defs>
       <path d="M 0 0 
L 0 3.5 
" id="m8fb6a2d2ed" style="stroke:#000000;stroke-width:0.8;"/>
      </defs>
      <g>
       <use style="stroke:#000000;stroke-width:0.8;" x="93.915711" xlink:href="#m8fb6a2d2ed" y="307.584"/>
      </g>
     </g>
     <g id="text_1">
      <!-- 0 -->
      <g transform="translate(90.734461 322.182437)scale(0.1 -0.1)">
       <defs>
        <path d="M 31.78125 66.40625 
Q 24.171875 66.40625 20.328125 58.90625 
Q 16.5 51.421875 16.5 36.375 
Q 16.5 21.390625 20.328125 13.890625 
Q 24.171875 6.390625 31.78125 6.390625 
Q 39.453125 6.390625 43.28125 13.890625 
Q 47.125 21.390625 47.125 36.375 
Q 47.125 51.421875 43.28125 58.90625 
Q 39.453125 66.40625 31.78125 66.40625 
z
M 31.78125 74.21875 
Q 44.046875 74.21875 50.515625 64.515625 
Q 56.984375 54.828125 56.984375 36.375 
Q 56.984375 17.96875 50.515625 8.265625 
Q 44.046875 -1.421875 31.78125 -1.421875 
Q 19.53125 -1.421875 13.0625 8.265625 
Q 6.59375 17.96875 6.59375 36.375 
Q 6.59375 54.828125 13.0625 64.515625 
Q 19.53125 74.21875 31.78125 74.21875 
z
" id="DejaVuSans-48"/>
       </defs>
       <use xlink:href="#DejaVuSans-48"/>
      </g>
     </g>
    </g>
    <g id="xtick_2">
     <g id="line2d_2">
      <g>
       <use style="stroke:#000000;stroke-width:0.8;" x="161.129738" xlink:href="#m8fb6a2d2ed" y="307.584"/>
      </g>
     </g>
     <g id="text_2">
      <!-- 20 -->
      <g transform="translate(154.767238 322.182437)scale(0.1 -0.1)">
       <defs>
        <path d="M 19.1875 8.296875 
L 53.609375 8.296875 
L 53.609375 0 
L 7.328125 0 
L 7.328125 8.296875 
Q 12.9375 14.109375 22.625 23.890625 
Q 32.328125 33.6875 34.8125 36.53125 
Q 39.546875 41.84375 41.421875 45.53125 
Q 43.3125 49.21875 43.3125 52.78125 
Q 43.3125 58.59375 39.234375 62.25 
Q 35.15625 65.921875 28.609375 65.921875 
Q 23.96875 65.921875 18.8125 64.3125 
Q 13.671875 62.703125 7.8125 59.421875 
L 7.8125 69.390625 
Q 13.765625 71.78125 18.9375 73 
Q 24.125 74.21875 28.421875 74.21875 
Q 39.75 74.21875 46.484375 68.546875 
Q 53.21875 62.890625 53.21875 53.421875 
Q 53.21875 48.921875 51.53125 44.890625 
Q 49.859375 40.875 45.40625 35.40625 
Q 44.1875 33.984375 37.640625 27.21875 
Q 31.109375 20.453125 19.1875 8.296875 
z
" id="DejaVuSans-50"/>
       </defs>
       <use xlink:href="#DejaVuSans-50"/>
       <use x="63.623047" xlink:href="#DejaVuSans-48"/>
      </g>
     </g>
    </g>
    <g id="xtick_3">
     <g id="line2d_3">
      <g>
       <use style="stroke:#000000;stroke-width:0.8;" x="228.343765" xlink:href="#m8fb6a2d2ed" y="307.584"/>
      </g>
     </g>
     <g id="text_3">
      <!-- 40 -->
      <g transform="translate(221.981265 322.182437)scale(0.1 -0.1)">
       <defs>
        <path d="M 37.796875 64.3125 
L 12.890625 25.390625 
L 37.796875 25.390625 
z
M 35.203125 72.90625 
L 47.609375 72.90625 
L 47.609375 25.390625 
L 58.015625 25.390625 
L 58.015625 17.1875 
L 47.609375 17.1875 
L 47.609375 0 
L 37.796875 0 
L 37.796875 17.1875 
L 4.890625 17.1875 
L 4.890625 26.703125 
z
" id="DejaVuSans-52"/>
       </defs>
       <use xlink:href="#DejaVuSans-52"/>
       <use x="63.623047" xlink:href="#DejaVuSans-48"/>
      </g>
     </g>
    </g>
    <g id="xtick_4">
     <g id="line2d_4">
      <g>
       <use style="stroke:#000000;stroke-width:0.8;" x="295.557791" xlink:href="#m8fb6a2d2ed" y="307.584"/>
      </g>
     </g>
     <g id="text_4">
      <!-- 60 -->
      <g transform="translate(289.195291 322.182437)scale(0.1 -0.1)">
       <defs>
        <path d="M 33.015625 40.375 
Q 26.375 40.375 22.484375 35.828125 
Q 18.609375 31.296875 18.609375 23.390625 
Q 18.609375 15.53125 22.484375 10.953125 
Q 26.375 6.390625 33.015625 6.390625 
Q 39.65625 6.390625 43.53125 10.953125 
Q 47.40625 15.53125 47.40625 23.390625 
Q 47.40625 31.296875 43.53125 35.828125 
Q 39.65625 40.375 33.015625 40.375 
z
M 52.59375 71.296875 
L 52.59375 62.3125 
Q 48.875 64.0625 45.09375 64.984375 
Q 41.3125 65.921875 37.59375 65.921875 
Q 27.828125 65.921875 22.671875 59.328125 
Q 17.53125 52.734375 16.796875 39.40625 
Q 19.671875 43.65625 24.015625 45.921875 
Q 28.375 48.1875 33.59375 48.1875 
Q 44.578125 48.1875 50.953125 41.515625 
Q 57.328125 34.859375 57.328125 23.390625 
Q 57.328125 12.15625 50.6875 5.359375 
Q 44.046875 -1.421875 33.015625 -1.421875 
Q 20.359375 -1.421875 13.671875 8.265625 
Q 6.984375 17.96875 6.984375 36.375 
Q 6.984375 53.65625 15.1875 63.9375 
Q 23.390625 74.21875 37.203125 74.21875 
Q 40.921875 74.21875 44.703125 73.484375 
Q 48.484375 72.75 52.59375 71.296875 
z
" id="DejaVuSans-54"/>
       </defs>
       <use xlink:href="#DejaVuSans-54"/>
       <use x="63.623047" xlink:href="#DejaVuSans-48"/>
      </g>
     </g>
    </g>
    <g id="xtick_5">
     <g id="line2d_5">
      <g>
       <use style="stroke:#000000;stroke-width:0.8;" x="362.771818" xlink:href="#m8fb6a2d2ed" y="307.584"/>
      </g>
     </g>
     <g id="text_5">
      <!-- 80 -->
      <g transform="translate(356.409318 322.182437)scale(0.1 -0.1)">
       <defs>
        <path d="M 31.78125 34.625 
Q 24.75 34.625 20.71875 30.859375 
Q 16.703125 27.09375 16.703125 20.515625 
Q 16.703125 13.921875 20.71875 10.15625 
Q 24.75 6.390625 31.78125 6.390625 
Q 38.8125 6.390625 42.859375 10.171875 
Q 46.921875 13.96875 46.921875 20.515625 
Q 46.921875 27.09375 42.890625 30.859375 
Q 38.875 34.625 31.78125 34.625 
z
M 21.921875 38.8125 
Q 15.578125 40.375 12.03125 44.71875 
Q 8.5 49.078125 8.5 55.328125 
Q 8.5 64.0625 14.71875 69.140625 
Q 20.953125 74.21875 31.78125 74.21875 
Q 42.671875 74.21875 48.875 69.140625 
Q 55.078125 64.0625 55.078125 55.328125 
Q 55.078125 49.078125 51.53125 44.71875 
Q 48 40.375 41.703125 38.8125 
Q 48.828125 37.15625 52.796875 32.3125 
Q 56.78125 27.484375 56.78125 20.515625 
Q 56.78125 9.90625 50.3125 4.234375 
Q 43.84375 -1.421875 31.78125 -1.421875 
Q 19.734375 -1.421875 13.25 4.234375 
Q 6.78125 9.90625 6.78125 20.515625 
Q 6.78125 27.484375 10.78125 32.3125 
Q 14.796875 37.15625 21.921875 38.8125 
z
M 18.3125 54.390625 
Q 18.3125 48.734375 21.84375 45.5625 
Q 25.390625 42.390625 31.78125 42.390625 
Q 38.140625 42.390625 41.71875 45.5625 
Q 45.3125 48.734375 45.3125 54.390625 
Q 45.3125 60.0625 41.71875 63.234375 
Q 38.140625 66.40625 31.78125 66.40625 
Q 25.390625 66.40625 21.84375 63.234375 
Q 18.3125 60.0625 18.3125 54.390625 
z
" id="DejaVuSans-56"/>
       </defs>
       <use xlink:href="#DejaVuSans-56"/>
       <use x="63.623047" xlink:href="#DejaVuSans-48"/>
      </g>
     </g>
    </g>
   </g>
   <g id="matplotlib.axis_2">
    <g id="ytick_1">
     <g id="line2d_6">
      <defs>
       <path d="M 0 0 
L -3.5 0 
" id="mb8fc99ba06" style="stroke:#000000;stroke-width:0.8;"/>
      </defs>
      <g>
       <use style="stroke:#000000;stroke-width:0.8;" x="57.6" xlink:href="#mb8fc99ba06" y="280.952993"/>
      </g>
     </g>
     <g id="text_6">
      <!-- 10 -->
      <g transform="translate(37.875 284.752211)scale(0.1 -0.1)">
       <defs>
        <path d="M 12.40625 8.296875 
L 28.515625 8.296875 
L 28.515625 63.921875 
L 10.984375 60.40625 
L 10.984375 69.390625 
L 28.421875 72.90625 
L 38.28125 72.90625 
L 38.28125 8.296875 
L 54.390625 8.296875 
L 54.390625 0 
L 12.40625 0 
z
" id="DejaVuSans-49"/>
       </defs>
       <use xlink:href="#DejaVuSans-49"/>
       <use x="63.623047" xlink:href="#DejaVuSans-48"/>
      </g>
     </g>
    </g>
    <g id="ytick_2">
     <g id="line2d_7">
      <g>
       <use style="stroke:#000000;stroke-width:0.8;" x="57.6" xlink:href="#mb8fc99ba06" y="247.345979"/>
      </g>
     </g>
     <g id="text_7">
      <!-- 20 -->
      <g transform="translate(37.875 251.145198)scale(0.1 -0.1)">
       <use xlink:href="#DejaVuSans-50"/>
       <use x="63.623047" xlink:href="#DejaVuSans-48"/>
      </g>
     </g>
    </g>
    <g id="ytick_3">
     <g id="line2d_8">
      <g>
       <use style="stroke:#000000;stroke-width:0.8;" x="57.6" xlink:href="#mb8fc99ba06" y="213.738966"/>
      </g>
     </g>
     <g id="text_8">
      <!-- 30 -->
      <g transform="translate(37.875 217.538185)scale(0.1 -0.1)">
       <defs>
        <path d="M 40.578125 39.3125 
Q 47.65625 37.796875 51.625 33 
Q 55.609375 28.21875 55.609375 21.1875 
Q 55.609375 10.40625 48.1875 4.484375 
Q 40.765625 -1.421875 27.09375 -1.421875 
Q 22.515625 -1.421875 17.65625 -0.515625 
Q 12.796875 0.390625 7.625 2.203125 
L 7.625 11.71875 
Q 11.71875 9.328125 16.59375 8.109375 
Q 21.484375 6.890625 26.8125 6.890625 
Q 36.078125 6.890625 40.9375 10.546875 
Q 45.796875 14.203125 45.796875 21.1875 
Q 45.796875 27.640625 41.28125 31.265625 
Q 36.765625 34.90625 28.71875 34.90625 
L 20.21875 34.90625 
L 20.21875 43.015625 
L 29.109375 43.015625 
Q 36.375 43.015625 40.234375 45.921875 
Q 44.09375 48.828125 44.09375 54.296875 
Q 44.09375 59.90625 40.109375 62.90625 
Q 36.140625 65.921875 28.71875 65.921875 
Q 24.65625 65.921875 20.015625 65.03125 
Q 15.375 64.15625 9.8125 62.3125 
L 9.8125 71.09375 
Q 15.4375 72.65625 20.34375 73.4375 
Q 25.25 74.21875 29.59375 74.21875 
Q 40.828125 74.21875 47.359375 69.109375 
Q 53.90625 64.015625 53.90625 55.328125 
Q 53.90625 49.265625 50.4375 45.09375 
Q 46.96875 40.921875 40.578125 39.3125 
z
" id="DejaVuSans-51"/>
       </defs>
       <use xlink:href="#DejaVuSans-51"/>
       <use x="63.623047" xlink:href="#DejaVuSans-48"/>
      </g>
     </g>
    </g>
    <g id="ytick_4">
     <g id="line2d_9">
      <g>
       <use style="stroke:#000000;stroke-width:0.8;" x="57.6" xlink:href="#mb8fc99ba06" y="180.131953"/>
      </g>
     </g>
     <g id="text_9">
      <!-- 40 -->
      <g transform="translate(37.875 183.931171)scale(0.1 -0.1)">
       <use xlink:href="#DejaVuSans-52"/>
       <use x="63.623047" xlink:href="#DejaVuSans-48"/>
      </g>
     </g>
    </g>
    <g id="ytick_5">
     <g id="line2d_10">
      <g>
       <use style="stroke:#000000;stroke-width:0.8;" x="57.6" xlink:href="#mb8fc99ba06" y="146.524939"/>
      </g>
     </g>
     <g id="text_10">
      <!-- 50 -->
      <g transform="translate(37.875 150.324158)scale(0.1 -0.1)">
       <defs>
        <path d="M 10.796875 72.90625 
L 49.515625 72.90625 
L 49.515625 64.59375 
L 19.828125 64.59375 
L 19.828125 46.734375 
Q 21.96875 47.46875 24.109375 47.828125 
Q 26.265625 48.1875 28.421875 48.1875 
Q 40.625 48.1875 47.75 41.5 
Q 54.890625 34.8125 54.890625 23.390625 
Q 54.890625 11.625 47.5625 5.09375 
Q 40.234375 -1.421875 26.90625 -1.421875 
Q 22.3125 -1.421875 17.546875 -0.640625 
Q 12.796875 0.140625 7.71875 1.703125 
L 7.71875 11.625 
Q 12.109375 9.234375 16.796875 8.0625 
Q 21.484375 6.890625 26.703125 6.890625 
Q 35.15625 6.890625 40.078125 11.328125 
Q 45.015625 15.765625 45.015625 23.390625 
Q 45.015625 31 40.078125 35.4375 
Q 35.15625 39.890625 26.703125 39.890625 
Q 22.75 39.890625 18.8125 39.015625 
Q 14.890625 38.140625 10.796875 36.28125 
z
" id="DejaVuSans-53"/>
       </defs>
       <use xlink:href="#DejaVuSans-53"/>
       <use x="63.623047" xlink:href="#DejaVuSans-48"/>
      </g>
     </g>
    </g>
    <g id="ytick_6">
     <g id="line2d_11">
      <g>
       <use style="stroke:#000000;stroke-width:0.8;" x="57.6" xlink:href="#mb8fc99ba06" y="112.917926"/>
      </g>
     </g>
     <g id="text_11">
      <!-- 60 -->
      <g transform="translate(37.875 116.717145)scale(0.1 -0.1)">
       <use xlink:href="#DejaVuSans-54"/>
       <use x="63.623047" xlink:href="#DejaVuSans-48"/>
      </g>
     </g>
    </g>
    <g id="ytick_7">
     <g id="line2d_12">
      <g>
       <use style="stroke:#000000;stroke-width:0.8;" x="57.6" xlink:href="#mb8fc99ba06" y="79.310913"/>
      </g>
     </g>
     <g id="text_12">
      <!-- 70 -->
      <g transform="translate(37.875 83.110132)scale(0.1 -0.1)">
       <defs>
        <path d="M 8.203125 72.90625 
L 55.078125 72.90625 
L 55.078125 68.703125 
L 28.609375 0 
L 18.3125 0 
L 43.21875 64.59375 
L 8.203125 64.59375 
z
" id="DejaVuSans-55"/>
       </defs>
       <use xlink:href="#DejaVuSans-55"/>
       <use x="63.623047" xlink:href="#DejaVuSans-48"/>
      </g>
     </g>
    </g>
    <g id="ytick_8">
     <g id="line2d_13">
      <g>
       <use style="stroke:#000000;stroke-width:0.8;" x="57.6" xlink:href="#mb8fc99ba06" y="45.703899"/>
      </g>
     </g>
     <g id="text_13">
      <!-- 80 -->
      <g transform="translate(37.875 49.503118)scale(0.1 -0.1)">
       <use xlink:href="#DejaVuSans-56"/>
       <use x="63.623047" xlink:href="#DejaVuSans-48"/>
      </g>
     </g>
    </g>
   </g>
   <g id="line2d_14">
    <path clip-path="url(#p3ebd5e75f0)" d="M 127.522725 165.855693 
L 127.082473 152.688466 
L 127.015259 145.916652 
L 127.146326 139.084347 
L 127.54961 132.24868 
L 128.299047 125.456703 
L 128.826677 122.096001 
L 129.468571 118.765546 
L 130.23145 115.468698 
L 131.128757 112.2189 
L 132.167214 109.019513 
L 133.356902 105.873896 
L 134.704543 102.792133 
L 136.22022 99.780945 
L 137.914013 96.843692 
L 139.775842 93.997178 
L 141.798984 91.248124 
L 143.969997 88.606613 
L 146.288881 86.092808 
L 148.742193 83.710071 
L 151.319851 81.471844 
L 154.011773 79.39493 
L 156.817958 77.482691 
L 159.718243 75.75193 
L 162.712628 74.212729 
L 165.791031 72.851645 
L 168.936647 71.665317 
L 172.149478 70.636943 
L 175.416079 69.76316 
L 178.729731 69.027167 
L 182.076989 68.42224 
L 188.842081 67.561901 
L 195.644141 67.101485 
L 202.429397 67.020828 
L 209.174324 67.36362 
L 212.524943 67.706411 
L 215.858759 68.173549 
L 219.16905 68.765032 
L 222.452455 69.490943 
L 225.708975 70.358004 
L 228.931887 71.362854 
L 232.117832 72.512214 
L 235.256727 73.796002 
L 238.341851 75.214218 
L 241.366482 76.763501 
L 244.317178 78.440491 
L 247.193938 80.238466 
L 249.98332 82.157427 
L 252.678603 84.190651 
L 255.273064 86.334779 
L 257.763344 88.589809 
L 260.159524 90.938939 
L 264.719996 95.865728 
L 269.072104 101.00424 
L 279.745691 114.050482 
L 286.389798 121.642307 
L 295.450249 131.563097 
L 306.769091 143.984249 
L 313.37959 151.60632 
L 317.64432 156.801964 
L 321.76118 162.118594 
L 325.6932 167.579733 
L 329.403414 173.192104 
L 332.848133 178.979232 
L 335.983668 184.944477 
L 338.766328 191.104643 
L 340.013148 194.263702 
L 341.149066 197.46645 
L 342.167358 200.709527 
L 343.061305 203.989571 
L 343.817462 207.296502 
L 344.42911 210.630317 
L 344.889526 213.980937 
L 345.181907 217.341638 
L 345.306253 220.712421 
L 345.24576 224.083205 
L 344.993708 227.447267 
L 344.556817 230.797886 
L 343.938448 234.128341 
L 343.13524 237.425189 
L 342.157276 240.678348 
L 341.004555 243.881096 
L 339.6838 247.026713 
L 338.19837 250.101754 
L 336.548265 253.096139 
L 334.740208 256.006507 
L 332.777558 258.816053 
L 330.663677 261.518057 
L 328.408647 264.102436 
L 326.019188 266.552387 
L 323.502023 268.861189 
L 320.860512 271.015399 
L 318.101376 273.001573 
L 315.238058 274.812991 
L 312.267198 276.432849 
L 309.202239 277.851065 
L 306.049901 279.064279 
L 302.816906 280.062407 
L 299.523419 280.858893 
L 296.17616 281.453737 
L 292.791934 281.846939 
L 289.380822 282.045221 
L 285.959628 282.051942 
L 282.535074 281.870464 
L 279.123962 281.504148 
L 275.739735 280.952993 
L 272.389116 280.22372 
L 269.092268 279.316331 
L 265.852552 278.234185 
L 262.683411 276.973922 
L 259.591566 275.542264 
L 256.59382 273.939209 
L 253.696895 272.168119 
L 250.910874 270.225634 
L 248.249199 268.115114 
L 245.721951 265.839919 
L 243.335853 263.40341 
L 241.104348 260.81231 
L 239.034156 258.086781 
L 237.135359 255.233545 
L 235.41468 252.269407 
L 233.885561 249.204447 
L 232.551363 246.05547 
L 231.428888 242.832557 
L 230.521499 239.552513 
L 229.835916 236.225419 
L 229.385582 232.861357 
L 229.163776 229.480491 
L 229.163776 226.086183 
L 229.378861 222.691874 
L 229.802309 219.311009 
L 230.434121 215.953668 
L 231.260853 212.633295 
L 232.275785 209.359972 
L 233.478916 206.14042 
L 234.863525 202.994804 
L 236.416169 199.929844 
L 238.136848 196.955624 
L 240.018841 194.085585 
L 242.055426 191.32981 
L 244.239882 188.701741 
L 246.565487 186.211461 
L 249.028881 183.869053 
L 251.619982 181.691318 
L 254.335429 179.681619 
L 257.1685 177.860119 
L 257.1685 177.860119 
" style="fill:none;stroke:#fea952;stroke-linecap:square;"/>
   </g>
   <g id="line2d_15">
    <path clip-path="url(#p3ebd5e75f0)" d="M 114.089872 166.372879 
L 113.641371 152.902453 
L 113.573106 145.784217 
L 113.718439 138.451205 
L 114.168013 130.967323 
L 114.5366 127.176915 
L 115.018916 123.371722 
L 115.626801 119.551929 
L 116.371822 115.735004 
L 117.273514 111.890861 
L 118.342613 108.068776 
L 119.593622 104.264116 
L 121.040253 100.48788 
L 122.697057 96.748186 
L 124.574925 93.06558 
L 126.663964 89.485336 
L 128.948977 86.029241 
L 131.41369 82.712628 
L 134.089139 79.491918 
L 136.923098 76.449618 
L 139.92852 73.55979 
L 143.108225 70.82862 
L 146.441835 68.286147 
L 149.929251 65.93909 
L 153.572629 63.79616 
L 157.27666 61.918045 
L 161.047392 60.273612 
L 164.838635 58.862376 
L 168.675791 57.650699 
L 172.501335 56.640155 
L 176.339036 55.798652 
L 180.168468 55.115605 
L 183.968077 54.577553 
L 191.5136 53.863327 
L 199.078418 53.568 
L 202.896806 53.586151 
L 206.708022 53.725659 
L 210.542475 53.990618 
L 214.390339 54.393661 
L 218.223273 54.940329 
L 222.070977 55.639186 
L 225.911157 56.500701 
L 229.710245 57.524499 
L 233.493728 58.717751 
L 237.206682 60.069842 
L 240.871476 61.581928 
L 244.470359 63.24967 
L 248.008727 65.076346 
L 251.441851 67.041015 
L 254.813073 69.163368 
L 258.078946 71.425705 
L 261.242157 73.828482 
L 264.296246 76.370281 
L 267.174133 78.990535 
L 269.891088 81.665015 
L 274.910406 87.098484 
L 279.492951 92.512187 
L 292.040283 107.737257 
L 298.570369 115.077294 
L 319.150498 137.694537 
L 325.968855 145.724394 
L 330.420512 151.300603 
L 334.73902 157.082131 
L 338.871932 163.074073 
L 342.807046 169.34215 
L 346.446491 175.855291 
L 348.145756 179.217993 
L 349.758517 182.658892 
L 351.270463 186.1695 
L 352.682697 189.7702 
L 353.974503 193.439396 
L 355.137103 197.17474 
L 356.16589 200.993096 
L 357.039579 204.87067 
L 357.74677 208.800308 
L 358.281744 212.815814 
L 358.615575 216.846079 
L 358.746894 220.953629 
L 358.650992 225.087593 
L 358.323674 229.185377 
L 357.773734 233.251885 
L 356.999228 237.310325 
L 356.008914 241.295271 
L 354.805781 245.230748 
L 353.399149 249.085236 
L 351.788311 252.873919 
L 349.971865 256.58973 
L 347.96696 260.18997 
L 345.76041 263.704829 
L 343.365224 267.099189 
L 340.792649 270.35621 
L 338.032212 273.488383 
L 335.105817 276.459061 
L 331.997904 279.278916 
L 328.714156 281.925453 
L 325.288266 284.361927 
L 321.673303 286.615391 
L 317.912389 288.632883 
L 314.030613 290.396814 
L 310.015435 291.908871 
L 305.976781 293.128554 
L 301.875499 294.094328 
L 297.727599 294.806716 
L 293.572022 295.267091 
L 289.407232 295.488 
L 285.24825 295.475911 
L 281.099715 295.236419 
L 276.963135 294.772148 
L 272.880803 294.08827 
L 268.821906 293.184586 
L 264.833345 292.066648 
L 260.885152 290.72554 
L 257.034963 289.172449 
L 253.252438 287.396565 
L 249.581916 285.408395 
L 246.008499 283.195248 
L 242.558712 280.758934 
L 239.254968 278.105751 
L 236.117616 275.245543 
L 233.149859 272.175784 
L 230.399405 268.943314 
L 227.842985 265.534379 
L 225.509431 261.982383 
L 223.385798 258.270658 
L 221.507914 254.448765 
L 219.856463 250.476843 
L 218.472708 246.416747 
L 217.355312 242.265545 
L 216.511964 238.009045 
L 215.971614 233.741398 
L 215.72097 229.480491 
L 215.747878 225.236066 
L 216.040271 221.021236 
L 216.591399 216.824872 
L 217.389583 212.705737 
L 218.421083 208.652176 
L 219.683501 204.654296 
L 221.17529 200.724722 
L 222.871638 196.919966 
L 224.780312 193.198139 
L 226.895378 189.584168 
L 229.20791 186.096043 
L 231.717549 182.736945 
L 234.415094 179.526636 
L 237.302223 176.46975 
L 240.379758 173.578198 
L 243.622932 170.88594 
L 247.065452 168.374256 
L 249.898523 166.552756 
L 249.898523 166.552756 
" style="fill:none;stroke:#ffffff;stroke-linecap:square;"/>
   </g>
   <g id="line2d_16">
    <path clip-path="url(#p3ebd5e75f0)" d="M 140.955577 165.338508 
L 140.523575 152.474478 
L 140.457412 146.049087 
L 140.574213 139.717489 
L 140.931207 133.530037 
L 141.579177 127.541683 
L 142.56532 121.796089 
L 143.189386 119.046536 
L 143.914901 116.369025 
L 144.740806 113.77491 
L 145.673551 111.259912 
L 146.71203 108.83608 
L 147.865515 106.496309 
L 149.164063 104.202048 
L 150.602706 101.965115 
L 152.184278 99.78362 
L 153.850855 97.721308 
L 155.654664 95.735998 
L 157.555865 93.860351 
L 159.531477 92.115068 
L 161.58171 90.503714 
L 163.706666 89.026292 
L 165.863858 87.7077 
L 168.148597 86.507413 
L 170.534669 85.429678 
L 173.03466 84.468259 
L 175.623164 83.623186 
L 178.330824 82.886166 
L 181.120426 82.255681 
L 186.93419 81.299046 
L 192.972622 80.70932 
L 198.99848 80.453492 
L 204.912503 80.551247 
L 210.659548 81.019161 
L 216.267123 81.890878 
L 218.993753 82.481186 
L 221.707705 83.19151 
L 224.370046 84.007957 
L 227.028982 84.954586 
L 229.641978 86.010076 
L 232.213344 87.178766 
L 234.724238 88.450657 
L 237.192505 89.839967 
L 239.574804 91.313565 
L 241.887695 92.889149 
L 244.115049 94.55282 
L 246.249883 96.299276 
L 248.352555 98.189083 
L 252.478407 102.356285 
L 256.589683 107.025012 
L 262.863577 114.691745 
L 269.542944 122.803366 
L 276.405872 130.643987 
L 285.562636 140.670463 
L 296.697401 152.887623 
L 303.040429 160.197639 
L 307.083328 165.119082 
L 310.928521 170.078651 
L 314.560031 175.11376 
L 317.945534 180.222467 
L 321.041118 185.406005 
L 323.821579 190.670961 
L 326.262194 196.039785 
L 328.323628 201.493505 
L 329.956719 206.986047 
L 330.595346 209.722333 
L 331.11145 212.460327 
L 331.497308 215.14606 
L 331.748239 217.837197 
L 331.865612 220.471213 
L 331.840529 223.078817 
L 331.663742 225.709157 
L 331.339899 228.343887 
L 330.877667 230.946357 
L 330.261566 233.555107 
L 329.508771 236.125948 
L 328.609962 238.676956 
L 327.579289 241.179506 
L 326.424875 243.613779 
L 325.129571 246.002308 
L 323.720006 248.308184 
L 322.189893 250.532917 
L 320.534706 252.679904 
L 318.785081 254.716489 
L 316.932559 256.645713 
L 315.006142 258.443463 
L 313.006867 260.105345 
L 310.914486 261.64122 
L 308.802813 263.010592 
L 306.622007 264.232815 
L 304.373864 265.305317 
L 302.084367 266.219686 
L 299.657032 266.996259 
L 297.171339 267.623458 
L 294.624722 268.100758 
L 292.011846 268.426787 
L 289.354412 268.602441 
L 286.671006 268.627973 
L 283.970432 268.504509 
L 281.284788 268.236147 
L 278.598668 267.817715 
L 275.956327 267.262855 
L 273.351192 266.566014 
L 270.819952 265.74283 
L 268.331859 264.775396 
L 265.930693 263.687962 
L 263.605724 262.470023 
L 261.385292 261.14099 
L 259.263036 259.692334 
L 257.243429 258.124476 
L 255.326286 256.434294 
L 253.521847 254.631037 
L 251.80929 252.681305 
L 250.225326 250.639182 
L 248.761287 248.484707 
L 247.443562 246.268155 
L 246.263208 243.960129 
L 245.246262 241.634097 
L 244.385069 239.248368 
L 243.687686 236.839481 
L 243.159868 234.441793 
L 242.79955 231.981315 
L 242.606581 229.480491 
L 242.579674 226.936299 
L 242.717451 224.362513 
L 243.013219 221.797146 
L 243.478658 219.2016 
L 244.100624 216.614415 
L 244.86807 214.065648 
L 245.782543 211.556119 
L 246.855413 209.069642 
L 248.052026 206.661549 
L 249.378319 204.327079 
L 250.829772 202.075127 
L 252.393303 199.922674 
L 254.06467 197.876847 
L 255.828752 195.953173 
L 257.678004 194.159907 
L 259.617032 192.496697 
L 261.605406 190.988981 
L 264.438477 189.167481 
L 264.438477 189.167481 
" style="fill:none;stroke:#ffffff;stroke-linecap:square;"/>
   </g>
   <g id="patch_3">
    <path d="M 57.6 307.584 
L 57.6 41.472 
" style="fill:none;stroke:#000000;stroke-linecap:square;stroke-linejoin:miter;stroke-width:0.8;"/>
   </g>
   <g id="patch_4">
    <path d="M 414.72 307.584 
L 414.72 41.472 
" style="fill:none;stroke:#000000;stroke-linecap:square;stroke-linejoin:miter;stroke-width:0.8;"/>
   </g>
   <g id="patch_5">
    <path d="M 57.6 307.584 
L 414.72 307.584 
" style="fill:none;stroke:#000000;stroke-linecap:square;stroke-linejoin:miter;stroke-width:0.8;"/>
   </g>
   <g id="patch_6">
    <path d="M 57.6 41.472 
L 414.72 41.472 
" style="fill:none;stroke:#000000;stroke-linecap:square;stroke-linejoin:miter;stroke-width:0.8;"/>
   </g>
  </g>
 </g>
 <defs>
  <clipPath id="p3ebd5e75f0">
   <rect height="266.112" width="357.12" x="57.6" y="41.472"/>
  </clipPath>
 </defs>
</svg>
