<?xml version="1.0" encoding="utf-8" standalone="no"?>
<!DOCTYPE svg PUBLIC "-//W3C//DTD SVG 1.1//EN"
  "http://www.w3.org/Graphics/SVG/1.1/DTD/svg11.dtd">
<!-- Created with matplotlib (https://matplotlib.org/) -->
<svg height="345.6pt" version="1.1" viewBox="0 0 460.8 345.6" width="460.8pt" xmlns="http://www.w3.org/2000/svg" xmlns:xlink="http://www.w3.org/1999/xlink">
 <metadata>
  <rdf:RDF xmlns:cc="http://creativecommons.org/ns#" xmlns:dc="http://purl.org/dc/elements/1.1/" xmlns:rdf="http://www.w3.org/1999/02/22-rdf-syntax-ns#">
   <cc:Work>
    <dc:type rdf:resource="http://purl.org/dc/dcmitype/StillImage"/>
    <dc:date>2021-01-25T11:35:45.008063</dc:date>
    <dc:format>image/svg+xml</dc:format>
    <dc:creator>
     <cc:Agent>
      <dc:title>Matplotlib v3.3.3, https://matplotlib.org/</dc:title>
     </cc:Agent>
    </dc:creator>
   </cc:Work>
  </rdf:RDF>
 </metadata>
 <defs>
  <style type="text/css">*{stroke-linecap:butt;stroke-linejoin:round;}</style>
 </defs>
 <g id="figure_1">
  <g id="patch_1">
   <path d="M 0 345.6 
L 460.8 345.6 
L 460.8 0 
L 0 0 
z
" style="fill:#ffffff;"/>
  </g>
  <g id="axes_1">
   <g id="patch_2">
    <path d="M 57.6 307.584 
L 414.72 307.584 
L 414.72 41.472 
L 57.6 41.472 
z
" style="fill:#7d9051;"/>
   </g>
   <g id="matplotlib.axis_1">
    <g id="xtick_1">
     <g id="line2d_1">
      <defs>
       <path d="M 0 0 
L 0 3.5 
" id="mec7dc410a9" style="stroke:#000000;stroke-width:0.8;"/>
      </defs>
      <g>
       <use style="stroke:#000000;stroke-width:0.8;" x="96.274579" xlink:href="#mec7dc410a9" y="307.584"/>
      </g>
     </g>
     <g id="text_1">
      <!-- 0 -->
      <g transform="translate(93.093329 322.182437)scale(0.1 -0.1)">
       <defs>
        <path d="M 31.78125 66.40625 
Q 24.171875 66.40625 20.328125 58.90625 
Q 16.5 51.421875 16.5 36.375 
Q 16.5 21.390625 20.328125 13.890625 
Q 24.171875 6.390625 31.78125 6.390625 
Q 39.453125 6.390625 43.28125 13.890625 
Q 47.125 21.390625 47.125 36.375 
Q 47.125 51.421875 43.28125 58.90625 
Q 39.453125 66.40625 31.78125 66.40625 
z
M 31.78125 74.21875 
Q 44.046875 74.21875 50.515625 64.515625 
Q 56.984375 54.828125 56.984375 36.375 
Q 56.984375 17.96875 50.515625 8.265625 
Q 44.046875 -1.421875 31.78125 -1.421875 
Q 19.53125 -1.421875 13.0625 8.265625 
Q 6.59375 17.96875 6.59375 36.375 
Q 6.59375 54.828125 13.0625 64.515625 
Q 19.53125 74.21875 31.78125 74.21875 
z
" id="DejaVuSans-48"/>
       </defs>
       <use xlink:href="#DejaVuSans-48"/>
      </g>
     </g>
    </g>
    <g id="xtick_2">
     <g id="line2d_2">
      <g>
       <use style="stroke:#000000;stroke-width:0.8;" x="163.276882" xlink:href="#mec7dc410a9" y="307.584"/>
      </g>
     </g>
     <g id="text_2">
      <!-- 20 -->
      <g transform="translate(156.914382 322.182437)scale(0.1 -0.1)">
       <defs>
        <path d="M 19.1875 8.296875 
L 53.609375 8.296875 
L 53.609375 0 
L 7.328125 0 
L 7.328125 8.296875 
Q 12.9375 14.109375 22.625 23.890625 
Q 32.328125 33.6875 34.8125 36.53125 
Q 39.546875 41.84375 41.421875 45.53125 
Q 43.3125 49.21875 43.3125 52.78125 
Q 43.3125 58.59375 39.234375 62.25 
Q 35.15625 65.921875 28.609375 65.921875 
Q 23.96875 65.921875 18.8125 64.3125 
Q 13.671875 62.703125 7.8125 59.421875 
L 7.8125 69.390625 
Q 13.765625 71.78125 18.9375 73 
Q 24.125 74.21875 28.421875 74.21875 
Q 39.75 74.21875 46.484375 68.546875 
Q 53.21875 62.890625 53.21875 53.421875 
Q 53.21875 48.921875 51.53125 44.890625 
Q 49.859375 40.875 45.40625 35.40625 
Q 44.1875 33.984375 37.640625 27.21875 
Q 31.109375 20.453125 19.1875 8.296875 
z
" id="DejaVuSans-50"/>
       </defs>
       <use xlink:href="#DejaVuSans-50"/>
       <use x="63.623047" xlink:href="#DejaVuSans-48"/>
      </g>
     </g>
    </g>
    <g id="xtick_3">
     <g id="line2d_3">
      <g>
       <use style="stroke:#000000;stroke-width:0.8;" x="230.279184" xlink:href="#mec7dc410a9" y="307.584"/>
      </g>
     </g>
     <g id="text_3">
      <!-- 40 -->
      <g transform="translate(223.916684 322.182437)scale(0.1 -0.1)">
       <defs>
        <path d="M 37.796875 64.3125 
L 12.890625 25.390625 
L 37.796875 25.390625 
z
M 35.203125 72.90625 
L 47.609375 72.90625 
L 47.609375 25.390625 
L 58.015625 25.390625 
L 58.015625 17.1875 
L 47.609375 17.1875 
L 47.609375 0 
L 37.796875 0 
L 37.796875 17.1875 
L 4.890625 17.1875 
L 4.890625 26.703125 
z
" id="DejaVuSans-52"/>
       </defs>
       <use xlink:href="#DejaVuSans-52"/>
       <use x="63.623047" xlink:href="#DejaVuSans-48"/>
      </g>
     </g>
    </g>
    <g id="xtick_4">
     <g id="line2d_4">
      <g>
       <use style="stroke:#000000;stroke-width:0.8;" x="297.281487" xlink:href="#mec7dc410a9" y="307.584"/>
      </g>
     </g>
     <g id="text_4">
      <!-- 60 -->
      <g transform="translate(290.918987 322.182437)scale(0.1 -0.1)">
       <defs>
        <path d="M 33.015625 40.375 
Q 26.375 40.375 22.484375 35.828125 
Q 18.609375 31.296875 18.609375 23.390625 
Q 18.609375 15.53125 22.484375 10.953125 
Q 26.375 6.390625 33.015625 6.390625 
Q 39.65625 6.390625 43.53125 10.953125 
Q 47.40625 15.53125 47.40625 23.390625 
Q 47.40625 31.296875 43.53125 35.828125 
Q 39.65625 40.375 33.015625 40.375 
z
M 52.59375 71.296875 
L 52.59375 62.3125 
Q 48.875 64.0625 45.09375 64.984375 
Q 41.3125 65.921875 37.59375 65.921875 
Q 27.828125 65.921875 22.671875 59.328125 
Q 17.53125 52.734375 16.796875 39.40625 
Q 19.671875 43.65625 24.015625 45.921875 
Q 28.375 48.1875 33.59375 48.1875 
Q 44.578125 48.1875 50.953125 41.515625 
Q 57.328125 34.859375 57.328125 23.390625 
Q 57.328125 12.15625 50.6875 5.359375 
Q 44.046875 -1.421875 33.015625 -1.421875 
Q 20.359375 -1.421875 13.671875 8.265625 
Q 6.984375 17.96875 6.984375 36.375 
Q 6.984375 53.65625 15.1875 63.9375 
Q 23.390625 74.21875 37.203125 74.21875 
Q 40.921875 74.21875 44.703125 73.484375 
Q 48.484375 72.75 52.59375 71.296875 
z
" id="DejaVuSans-54"/>
       </defs>
       <use xlink:href="#DejaVuSans-54"/>
       <use x="63.623047" xlink:href="#DejaVuSans-48"/>
      </g>
     </g>
    </g>
    <g id="xtick_5">
     <g id="line2d_5">
      <g>
       <use style="stroke:#000000;stroke-width:0.8;" x="364.28379" xlink:href="#mec7dc410a9" y="307.584"/>
      </g>
     </g>
     <g id="text_5">
      <!-- 80 -->
      <g transform="translate(357.92129 322.182437)scale(0.1 -0.1)">
       <defs>
        <path d="M 31.78125 34.625 
Q 24.75 34.625 20.71875 30.859375 
Q 16.703125 27.09375 16.703125 20.515625 
Q 16.703125 13.921875 20.71875 10.15625 
Q 24.75 6.390625 31.78125 6.390625 
Q 38.8125 6.390625 42.859375 10.171875 
Q 46.921875 13.96875 46.921875 20.515625 
Q 46.921875 27.09375 42.890625 30.859375 
Q 38.875 34.625 31.78125 34.625 
z
M 21.921875 38.8125 
Q 15.578125 40.375 12.03125 44.71875 
Q 8.5 49.078125 8.5 55.328125 
Q 8.5 64.0625 14.71875 69.140625 
Q 20.953125 74.21875 31.78125 74.21875 
Q 42.671875 74.21875 48.875 69.140625 
Q 55.078125 64.0625 55.078125 55.328125 
Q 55.078125 49.078125 51.53125 44.71875 
Q 48 40.375 41.703125 38.8125 
Q 48.828125 37.15625 52.796875 32.3125 
Q 56.78125 27.484375 56.78125 20.515625 
Q 56.78125 9.90625 50.3125 4.234375 
Q 43.84375 -1.421875 31.78125 -1.421875 
Q 19.734375 -1.421875 13.25 4.234375 
Q 6.78125 9.90625 6.78125 20.515625 
Q 6.78125 27.484375 10.78125 32.3125 
Q 14.796875 37.15625 21.921875 38.8125 
z
M 18.3125 54.390625 
Q 18.3125 48.734375 21.84375 45.5625 
Q 25.390625 42.390625 31.78125 42.390625 
Q 38.140625 42.390625 41.71875 45.5625 
Q 45.3125 48.734375 45.3125 54.390625 
Q 45.3125 60.0625 41.71875 63.234375 
Q 38.140625 66.40625 31.78125 66.40625 
Q 25.390625 66.40625 21.84375 63.234375 
Q 18.3125 60.0625 18.3125 54.390625 
z
" id="DejaVuSans-56"/>
       </defs>
       <use xlink:href="#DejaVuSans-56"/>
       <use x="63.623047" xlink:href="#DejaVuSans-48"/>
      </g>
     </g>
    </g>
   </g>
   <g id="matplotlib.axis_2">
    <g id="ytick_1">
     <g id="line2d_6">
      <defs>
       <path d="M 0 0 
L -3.5 0 
" id="m910cbc089a" style="stroke:#000000;stroke-width:0.8;"/>
      </defs>
      <g>
       <use style="stroke:#000000;stroke-width:0.8;" x="57.6" xlink:href="#m910cbc089a" y="280.873312"/>
      </g>
     </g>
     <g id="text_6">
      <!-- 10 -->
      <g transform="translate(37.875 284.672531)scale(0.1 -0.1)">
       <defs>
        <path d="M 12.40625 8.296875 
L 28.515625 8.296875 
L 28.515625 63.921875 
L 10.984375 60.40625 
L 10.984375 69.390625 
L 28.421875 72.90625 
L 38.28125 72.90625 
L 38.28125 8.296875 
L 54.390625 8.296875 
L 54.390625 0 
L 12.40625 0 
z
" id="DejaVuSans-49"/>
       </defs>
       <use xlink:href="#DejaVuSans-49"/>
       <use x="63.623047" xlink:href="#DejaVuSans-48"/>
      </g>
     </g>
    </g>
    <g id="ytick_2">
     <g id="line2d_7">
      <g>
       <use style="stroke:#000000;stroke-width:0.8;" x="57.6" xlink:href="#m910cbc089a" y="247.372161"/>
      </g>
     </g>
     <g id="text_7">
      <!-- 20 -->
      <g transform="translate(37.875 251.171379)scale(0.1 -0.1)">
       <use xlink:href="#DejaVuSans-50"/>
       <use x="63.623047" xlink:href="#DejaVuSans-48"/>
      </g>
     </g>
    </g>
    <g id="ytick_3">
     <g id="line2d_8">
      <g>
       <use style="stroke:#000000;stroke-width:0.8;" x="57.6" xlink:href="#m910cbc089a" y="213.871009"/>
      </g>
     </g>
     <g id="text_8">
      <!-- 30 -->
      <g transform="translate(37.875 217.670228)scale(0.1 -0.1)">
       <defs>
        <path d="M 40.578125 39.3125 
Q 47.65625 37.796875 51.625 33 
Q 55.609375 28.21875 55.609375 21.1875 
Q 55.609375 10.40625 48.1875 4.484375 
Q 40.765625 -1.421875 27.09375 -1.421875 
Q 22.515625 -1.421875 17.65625 -0.515625 
Q 12.796875 0.390625 7.625 2.203125 
L 7.625 11.71875 
Q 11.71875 9.328125 16.59375 8.109375 
Q 21.484375 6.890625 26.8125 6.890625 
Q 36.078125 6.890625 40.9375 10.546875 
Q 45.796875 14.203125 45.796875 21.1875 
Q 45.796875 27.640625 41.28125 31.265625 
Q 36.765625 34.90625 28.71875 34.90625 
L 20.21875 34.90625 
L 20.21875 43.015625 
L 29.109375 43.015625 
Q 36.375 43.015625 40.234375 45.921875 
Q 44.09375 48.828125 44.09375 54.296875 
Q 44.09375 59.90625 40.109375 62.90625 
Q 36.140625 65.921875 28.71875 65.921875 
Q 24.65625 65.921875 20.015625 65.03125 
Q 15.375 64.15625 9.8125 62.3125 
L 9.8125 71.09375 
Q 15.4375 72.65625 20.34375 73.4375 
Q 25.25 74.21875 29.59375 74.21875 
Q 40.828125 74.21875 47.359375 69.109375 
Q 53.90625 64.015625 53.90625 55.328125 
Q 53.90625 49.265625 50.4375 45.09375 
Q 46.96875 40.921875 40.578125 39.3125 
z
" id="DejaVuSans-51"/>
       </defs>
       <use xlink:href="#DejaVuSans-51"/>
       <use x="63.623047" xlink:href="#DejaVuSans-48"/>
      </g>
     </g>
    </g>
    <g id="ytick_4">
     <g id="line2d_9">
      <g>
       <use style="stroke:#000000;stroke-width:0.8;" x="57.6" xlink:href="#m910cbc089a" y="180.369858"/>
      </g>
     </g>
     <g id="text_9">
      <!-- 40 -->
      <g transform="translate(37.875 184.169077)scale(0.1 -0.1)">
       <use xlink:href="#DejaVuSans-52"/>
       <use x="63.623047" xlink:href="#DejaVuSans-48"/>
      </g>
     </g>
    </g>
    <g id="ytick_5">
     <g id="line2d_10">
      <g>
       <use style="stroke:#000000;stroke-width:0.8;" x="57.6" xlink:href="#m910cbc089a" y="146.868707"/>
      </g>
     </g>
     <g id="text_10">
      <!-- 50 -->
      <g transform="translate(37.875 150.667925)scale(0.1 -0.1)">
       <defs>
        <path d="M 10.796875 72.90625 
L 49.515625 72.90625 
L 49.515625 64.59375 
L 19.828125 64.59375 
L 19.828125 46.734375 
Q 21.96875 47.46875 24.109375 47.828125 
Q 26.265625 48.1875 28.421875 48.1875 
Q 40.625 48.1875 47.75 41.5 
Q 54.890625 34.8125 54.890625 23.390625 
Q 54.890625 11.625 47.5625 5.09375 
Q 40.234375 -1.421875 26.90625 -1.421875 
Q 22.3125 -1.421875 17.546875 -0.640625 
Q 12.796875 0.140625 7.71875 1.703125 
L 7.71875 11.625 
Q 12.109375 9.234375 16.796875 8.0625 
Q 21.484375 6.890625 26.703125 6.890625 
Q 35.15625 6.890625 40.078125 11.328125 
Q 45.015625 15.765625 45.015625 23.390625 
Q 45.015625 31 40.078125 35.4375 
Q 35.15625 39.890625 26.703125 39.890625 
Q 22.75 39.890625 18.8125 39.015625 
Q 14.890625 38.140625 10.796875 36.28125 
z
" id="DejaVuSans-53"/>
       </defs>
       <use xlink:href="#DejaVuSans-53"/>
       <use x="63.623047" xlink:href="#DejaVuSans-48"/>
      </g>
     </g>
    </g>
    <g id="ytick_6">
     <g id="line2d_11">
      <g>
       <use style="stroke:#000000;stroke-width:0.8;" x="57.6" xlink:href="#m910cbc089a" y="113.367555"/>
      </g>
     </g>
     <g id="text_11">
      <!-- 60 -->
      <g transform="translate(37.875 117.166774)scale(0.1 -0.1)">
       <use xlink:href="#DejaVuSans-54"/>
       <use x="63.623047" xlink:href="#DejaVuSans-48"/>
      </g>
     </g>
    </g>
    <g id="ytick_7">
     <g id="line2d_12">
      <g>
       <use style="stroke:#000000;stroke-width:0.8;" x="57.6" xlink:href="#m910cbc089a" y="79.866404"/>
      </g>
     </g>
     <g id="text_12">
      <!-- 70 -->
      <g transform="translate(37.875 83.665623)scale(0.1 -0.1)">
       <defs>
        <path d="M 8.203125 72.90625 
L 55.078125 72.90625 
L 55.078125 68.703125 
L 28.609375 0 
L 18.3125 0 
L 43.21875 64.59375 
L 8.203125 64.59375 
z
" id="DejaVuSans-55"/>
       </defs>
       <use xlink:href="#DejaVuSans-55"/>
       <use x="63.623047" xlink:href="#DejaVuSans-48"/>
      </g>
     </g>
    </g>
    <g id="ytick_8">
     <g id="line2d_13">
      <g>
       <use style="stroke:#000000;stroke-width:0.8;" x="57.6" xlink:href="#m910cbc089a" y="46.365252"/>
      </g>
     </g>
     <g id="text_13">
      <!-- 80 -->
      <g transform="translate(37.875 50.164471)scale(0.1 -0.1)">
       <use xlink:href="#DejaVuSans-56"/>
       <use x="63.623047" xlink:href="#DejaVuSans-48"/>
      </g>
     </g>
    </g>
   </g>
   <g id="line2d_14">
    <path clip-path="url(#pd994a6a89f)" d="M 129.77573 163.033012 
L 129.343565 146.563846 
L 129.350266 139.773163 
L 129.578074 132.942278 
L 130.110742 126.131494 
L 131.028673 119.394412 
L 131.658495 116.067748 
L 132.415621 112.781285 
L 133.306752 109.538374 
L 134.345287 106.352414 
L 135.541278 103.220056 
L 136.904775 100.158051 
L 138.445828 97.166398 
L 140.171138 94.255148 
L 142.074003 91.434351 
L 144.144374 88.720758 
L 146.372201 86.127769 
L 148.747432 83.668785 
L 151.256669 81.353855 
L 153.896559 79.196381 
L 156.650354 77.213113 
L 159.514702 75.417451 
L 162.472854 73.819446 
L 165.521459 72.429148 
L 168.643766 71.236507 
L 171.836426 70.224772 
L 175.086038 69.383894 
L 178.385901 68.69712 
L 181.725966 68.147701 
L 185.092831 67.722236 
L 191.883515 67.182868 
L 198.677548 66.968461 
L 205.434731 67.042163 
L 212.145011 67.450877 
L 218.79164 68.248205 
L 222.091503 68.804324 
L 225.367916 69.477697 
L 228.627578 70.275024 
L 231.863789 71.196306 
L 235.069849 72.244892 
L 238.239058 73.417432 
L 241.361365 74.713927 
L 244.433421 76.131025 
L 247.441824 77.668728 
L 250.386575 79.323685 
L 253.250924 81.095896 
L 256.03487 82.985361 
L 258.725012 84.98873 
L 261.321351 87.099302 
L 263.827237 89.313729 
L 268.617902 93.987139 
L 273.180759 98.911808 
L 279.783836 106.550071 
L 299.274806 129.598863 
L 303.408848 134.855194 
L 307.405535 140.225428 
L 311.264868 145.702867 
L 316.816009 154.094905 
L 322.10584 162.654449 
L 327.134363 171.358048 
L 330.283471 177.271001 
L 333.214822 183.297859 
L 335.884864 189.465421 
L 338.243345 195.797138 
L 340.223263 202.279611 
L 341.040691 205.569424 
L 341.734165 208.879338 
L 342.286934 212.209352 
L 342.692298 215.552767 
L 342.933506 218.902882 
L 343.003859 222.256348 
L 342.889955 225.606463 
L 342.585094 228.949878 
L 342.089277 232.276542 
L 341.405854 235.579755 
L 340.541524 238.846118 
L 339.499638 242.068928 
L 338.283546 245.238137 
L 336.896599 248.347044 
L 335.348846 251.382249 
L 333.636937 254.3404 
L 331.770923 257.211449 
L 329.754153 259.978644 
L 327.589979 262.638635 
L 325.28845 265.178023 
L 322.852916 267.580055 
L 320.296778 269.834683 
L 317.620036 271.928505 
L 314.83274 273.851471 
L 311.941591 275.590181 
L 308.953288 277.131233 
L 305.874533 278.464579 
L 302.715374 279.576818 
L 299.482513 280.477999 
L 296.18935 281.171472 
L 292.849285 281.667289 
L 289.472369 281.9688 
L 286.072002 282.089404 
L 282.658235 282.032452 
L 279.244467 281.804644 
L 275.84075 281.416031 
L 272.460484 280.873312 
L 269.113719 280.183188 
L 265.813856 279.34566 
L 262.560894 278.357376 
L 259.368234 277.221687 
L 256.239227 275.931892 
L 253.187272 274.494693 
L 250.21572 272.900038 
L 247.334621 271.154628 
L 244.554025 269.255113 
L 241.877283 267.198142 
L 239.317795 264.987066 
L 236.878911 262.628585 
L 234.570682 260.129399 
L 232.403157 257.506259 
L 230.386388 254.765865 
L 228.523724 251.914917 
L 226.831916 248.966816 
L 225.310964 245.931611 
L 223.977618 242.816004 
L 222.838579 239.633395 
L 221.893846 236.390483 
L 221.150121 233.09732 
L 220.600702 229.767306 
L 220.242239 226.40379 
L 220.071384 223.023524 
L 220.081434 219.629857 
L 220.272391 216.236191 
L 220.637553 212.852574 
L 221.176922 209.485709 
L 221.883796 206.145644 
L 222.754826 202.84578 
L 223.786661 199.592819 
L 224.972602 196.396809 
L 226.315998 193.267801 
L 227.806799 190.215846 
L 229.445006 187.250994 
L 231.223917 184.379946 
L 233.143533 181.616101 
L 235.197153 178.96951 
L 237.381429 176.446873 
L 237.381429 176.446873 
" style="fill:none;stroke:#fea952;stroke-linecap:square;"/>
   </g>
   <g id="line2d_15">
    <path clip-path="url(#pd994a6a89f)" d="M 116.381405 163.438477 
L 115.943341 146.643373 
L 115.95352 139.457636 
L 116.206542 132.062226 
L 116.807175 124.522936 
L 117.270569 120.741417 
L 117.862107 116.901649 
L 118.600083 113.059388 
L 119.494142 109.230548 
L 120.566105 105.385271 
L 121.826331 101.572449 
L 123.299652 97.768916 
L 124.991942 94.021541 
L 126.917741 90.334448 
L 129.062043 86.761127 
L 131.420289 83.305962 
L 133.98019 79.987964 
L 136.733926 76.817774 
L 139.660898 73.81956 
L 142.776728 70.977779 
L 146.065213 68.322451 
L 149.532613 65.859254 
L 153.145627 63.627318 
L 156.912566 61.627008 
L 160.739788 59.910843 
L 164.595639 58.462118 
L 168.479452 57.251605 
L 172.355616 56.264551 
L 176.210843 55.474357 
L 180.045935 54.852971 
L 183.85346 54.379212 
L 191.329487 53.793865 
L 198.677548 53.568 
L 206.075296 53.657021 
L 213.53946 54.123167 
L 217.272435 54.519919 
L 221.018588 55.034082 
L 224.789201 55.678213 
L 228.55186 56.460983 
L 232.296631 57.386642 
L 236.029451 58.45976 
L 239.719694 59.677025 
L 243.377991 61.0415 
L 246.974413 62.545688 
L 250.532353 64.19891 
L 254.007133 65.986731 
L 257.437216 67.928037 
L 260.77628 70.008004 
L 264.038694 72.23775 
L 267.177769 74.590497 
L 270.194931 77.057793 
L 273.037372 79.579985 
L 278.357612 84.783314 
L 283.244107 90.063002 
L 289.994831 97.872058 
L 309.757114 121.250597 
L 314.101784 126.778471 
L 318.312654 132.440372 
L 322.362968 138.192572 
L 328.15167 146.948219 
L 333.635448 155.825065 
L 337.171962 161.869735 
L 340.608948 168.096415 
L 343.892567 174.535104 
L 346.944384 181.18456 
L 349.72258 188.099914 
L 350.995305 191.678904 
L 352.162065 195.313923 
L 353.22828 199.048222 
L 354.156379 202.821502 
L 354.953733 206.684943 
L 355.589976 210.596458 
L 356.058159 214.590425 
L 356.331019 218.621816 
L 356.39658 222.7117 
L 356.235053 226.8233 
L 355.839151 230.925306 
L 355.211818 234.99155 
L 354.360439 239.007738 
L 353.292232 242.968228 
L 352.010645 246.869664 
L 350.521417 250.697705 
L 348.834524 254.434596 
L 346.947155 258.094294 
L 344.872767 261.643034 
L 342.600416 265.10413 
L 340.14883 268.435774 
L 337.519138 271.637754 
L 334.69816 274.718971 
L 331.717208 277.629765 
L 328.553099 280.389563 
L 325.229778 282.958653 
L 321.738958 285.33522 
L 318.083536 287.500212 
L 314.278782 289.42804 
L 310.324658 291.104545 
L 306.313652 292.485138 
L 302.24382 293.590875 
L 298.157024 294.426683 
L 294.041014 295.014653 
L 289.947357 295.360839 
L 285.848473 295.488 
L 281.765978 295.403174 
L 277.724369 295.118608 
L 273.716445 294.647042 
L 269.754165 293.997647 
L 265.817111 293.171826 
L 261.918462 292.167448 
L 258.069781 290.982836 
L 254.261342 289.610875 
L 250.530146 288.055371 
L 246.850793 286.302376 
L 243.272306 284.361336 
L 239.775723 282.219681 
L 236.388762 279.880593 
L 233.117094 277.338725 
L 230.002355 274.620078 
L 227.034737 271.720591 
L 224.240566 268.665268 
L 221.610397 265.449097 
L 219.168056 262.095351 
L 216.901077 258.584731 
L 214.851474 254.97026 
L 212.991258 251.203915 
L 211.36085 247.331479 
L 209.972946 243.381441 
L 208.82258 239.342489 
L 207.92841 235.278769 
L 207.2757 231.1874 
L 206.858864 227.080254 
L 206.670982 222.983839 
L 206.702137 218.877024 
L 206.949292 214.798351 
L 207.405805 210.732861 
L 208.066841 206.711158 
L 208.927111 202.725605 
L 209.981559 198.794116 
L 211.223258 194.930927 
L 212.659047 191.110154 
L 214.275265 187.386213 
L 216.077717 183.735031 
L 218.053895 180.193025 
L 220.217702 176.735629 
L 222.556476 173.40108 
L 225.066578 170.19775 
L 227.250853 167.675113 
L 227.250853 167.675113 
" style="fill:none;stroke:#ffffff;stroke-linecap:square;"/>
   </g>
   <g id="line2d_16">
    <path clip-path="url(#pd994a6a89f)" d="M 143.170055 162.627547 
L 142.74379 146.48432 
L 142.747011 140.08869 
L 142.949605 133.82233 
L 143.414308 127.740052 
L 144.19524 121.887176 
L 145.3371 116.332022 
L 146.047399 113.691476 
L 146.864244 111.132379 
L 147.782905 108.671196 
L 148.817608 106.294561 
L 149.973916 103.998349 
L 151.280232 101.74917 
L 152.727717 99.562741 
L 154.308559 97.453552 
L 156.010475 95.437764 
L 157.833967 93.518009 
L 159.736609 91.729931 
L 161.727906 90.070311 
L 163.768095 88.566971 
L 165.883777 87.207584 
L 168.033142 86.011884 
L 170.303129 84.947454 
L 172.691894 84.010896 
L 175.1934 83.19794 
L 177.816459 82.503236 
L 180.560959 81.919883 
L 183.405996 81.442431 
L 189.36579 80.778686 
L 195.57484 80.439465 
L 201.768474 80.365724 
L 207.805966 80.566889 
L 213.677616 81.078659 
L 219.393806 81.930434 
L 224.958525 83.163406 
L 227.698127 83.932852 
L 233.100125 85.793365 
L 238.334489 88.063141 
L 243.335935 90.719334 
L 245.725568 92.183788 
L 248.031045 93.732972 
L 250.272255 95.386963 
L 252.447771 97.140812 
L 256.753747 101.060621 
L 261.000874 105.433475 
L 265.252015 110.187223 
L 282.61458 130.489012 
L 288.792497 137.947129 
L 292.715911 142.931916 
L 296.498416 148.010485 
L 300.166768 153.213161 
L 305.480347 161.241591 
L 310.576233 169.483833 
L 315.356359 177.749525 
L 318.295057 183.258511 
L 320.980933 188.76634 
L 323.390335 194.30888 
L 325.491385 199.915372 
L 327.218246 205.511 
L 328.514597 211.073733 
L 328.983892 213.822246 
L 329.326437 216.515109 
L 329.535994 219.183949 
L 329.611137 221.800995 
L 329.544856 224.389625 
L 329.331037 226.974449 
L 328.966737 229.561534 
L 328.451268 232.151773 
L 327.790816 234.724007 
L 326.988632 237.268193 
L 326.045676 239.77857 
L 324.958673 242.259493 
L 323.750536 244.670203 
L 322.401107 247.037766 
L 320.941429 249.318767 
L 319.359477 251.521514 
L 317.66082 253.639516 
L 315.878739 255.637075 
L 313.988624 257.530345 
L 312.040457 259.279802 
L 310.010294 260.898356 
L 307.926523 262.367721 
L 305.799646 263.680149 
L 303.627794 264.834427 
L 301.424407 265.824614 
L 299.117096 266.668497 
L 296.721205 267.365122 
L 294.221676 267.916262 
L 291.657556 268.319925 
L 288.99738 268.57676 
L 286.295531 268.690808 
L 283.550491 268.661729 
L 280.764566 268.49068 
L 277.965055 268.185019 
L 275.166804 267.748977 
L 272.410328 267.19455 
L 269.70925 266.523872 
L 267.052007 265.731915 
L 264.475127 264.832498 
L 261.948307 263.808413 
L 259.523751 262.68701 
L 257.159134 261.43874 
L 254.893518 260.089575 
L 252.719288 258.629633 
L 250.637473 257.057559 
L 248.633235 255.354054 
L 246.723086 253.536579 
L 244.900798 251.593531 
L 243.195917 249.563421 
L 241.60472 247.436379 
L 240.146371 245.245102 
L 238.812358 242.963371 
L 237.63067 240.659307 
L 236.594386 238.300529 
L 235.704211 235.885349 
L 234.965113 233.438478 
L 234.371831 230.915871 
L 233.925704 228.347211 
L 233.625615 225.727326 
L 233.471785 223.063209 
L 233.460731 220.38269 
L 233.595489 217.67403 
L 233.869301 214.972287 
L 234.287002 212.260259 
L 234.840481 209.565682 
L 235.528093 206.897445 
L 236.350065 204.25471 
L 237.286157 201.683463 
L 238.356732 199.149389 
L 239.535882 196.696661 
L 240.836117 194.308964 
L 242.230132 192.024262 
L 243.73059 189.831121 
L 245.327729 187.74127 
L 247.512004 185.218633 
L 247.512004 185.218633 
" style="fill:none;stroke:#ffffff;stroke-linecap:square;"/>
   </g>
   <g id="patch_3">
    <path d="M 57.6 307.584 
L 57.6 41.472 
" style="fill:none;stroke:#000000;stroke-linecap:square;stroke-linejoin:miter;stroke-width:0.8;"/>
   </g>
   <g id="patch_4">
    <path d="M 414.72 307.584 
L 414.72 41.472 
" style="fill:none;stroke:#000000;stroke-linecap:square;stroke-linejoin:miter;stroke-width:0.8;"/>
   </g>
   <g id="patch_5">
    <path d="M 57.6 307.584 
L 414.72 307.584 
" style="fill:none;stroke:#000000;stroke-linecap:square;stroke-linejoin:miter;stroke-width:0.8;"/>
   </g>
   <g id="patch_6">
    <path d="M 57.6 41.472 
L 414.72 41.472 
" style="fill:none;stroke:#000000;stroke-linecap:square;stroke-linejoin:miter;stroke-width:0.8;"/>
   </g>
  </g>
 </g>
 <defs>
  <clipPath id="pd994a6a89f">
   <rect height="266.112" width="357.12" x="57.6" y="41.472"/>
  </clipPath>
 </defs>
</svg>
