<?xml version="1.0" encoding="utf-8" standalone="no"?>
<!DOCTYPE svg PUBLIC "-//W3C//DTD SVG 1.1//EN"
  "http://www.w3.org/Graphics/SVG/1.1/DTD/svg11.dtd">
<!-- Created with matplotlib (https://matplotlib.org/) -->
<svg height="345.6pt" version="1.1" viewBox="0 0 460.8 345.6" width="460.8pt" xmlns="http://www.w3.org/2000/svg" xmlns:xlink="http://www.w3.org/1999/xlink">
 <metadata>
  <rdf:RDF xmlns:cc="http://creativecommons.org/ns#" xmlns:dc="http://purl.org/dc/elements/1.1/" xmlns:rdf="http://www.w3.org/1999/02/22-rdf-syntax-ns#">
   <cc:Work>
    <dc:type rdf:resource="http://purl.org/dc/dcmitype/StillImage"/>
    <dc:date>2021-01-22T10:13:01.469370</dc:date>
    <dc:format>image/svg+xml</dc:format>
    <dc:creator>
     <cc:Agent>
      <dc:title>Matplotlib v3.3.3, https://matplotlib.org/</dc:title>
     </cc:Agent>
    </dc:creator>
   </cc:Work>
  </rdf:RDF>
 </metadata>
 <defs>
  <style type="text/css">*{stroke-linecap:butt;stroke-linejoin:round;}</style>
 </defs>
 <g id="figure_1">
  <g id="patch_1">
   <path d="M 0 345.6 
L 460.8 345.6 
L 460.8 0 
L 0 0 
z
" style="fill:#ffffff;"/>
  </g>
  <g id="axes_1">
   <g id="patch_2">
    <path d="M 57.6 307.584 
L 414.72 307.584 
L 414.72 41.472 
L 57.6 41.472 
z
" style="fill:#7d9051;"/>
   </g>
   <g id="matplotlib.axis_1">
    <g id="xtick_1">
     <g id="line2d_1">
      <defs>
       <path d="M 0 0 
L 0 3.5 
" id="m7b38d88054" style="stroke:#000000;stroke-width:0.8;"/>
      </defs>
      <g>
       <use style="stroke:#000000;stroke-width:0.8;" x="104.432585" xlink:href="#m7b38d88054" y="307.584"/>
      </g>
     </g>
     <g id="text_1">
      <!-- 20 -->
      <g transform="translate(98.070085 322.182437)scale(0.1 -0.1)">
       <defs>
        <path d="M 19.1875 8.296875 
L 53.609375 8.296875 
L 53.609375 0 
L 7.328125 0 
L 7.328125 8.296875 
Q 12.9375 14.109375 22.625 23.890625 
Q 32.328125 33.6875 34.8125 36.53125 
Q 39.546875 41.84375 41.421875 45.53125 
Q 43.3125 49.21875 43.3125 52.78125 
Q 43.3125 58.59375 39.234375 62.25 
Q 35.15625 65.921875 28.609375 65.921875 
Q 23.96875 65.921875 18.8125 64.3125 
Q 13.671875 62.703125 7.8125 59.421875 
L 7.8125 69.390625 
Q 13.765625 71.78125 18.9375 73 
Q 24.125 74.21875 28.421875 74.21875 
Q 39.75 74.21875 46.484375 68.546875 
Q 53.21875 62.890625 53.21875 53.421875 
Q 53.21875 48.921875 51.53125 44.890625 
Q 49.859375 40.875 45.40625 35.40625 
Q 44.1875 33.984375 37.640625 27.21875 
Q 31.109375 20.453125 19.1875 8.296875 
z
" id="DejaVuSans-50"/>
        <path d="M 31.78125 66.40625 
Q 24.171875 66.40625 20.328125 58.90625 
Q 16.5 51.421875 16.5 36.375 
Q 16.5 21.390625 20.328125 13.890625 
Q 24.171875 6.390625 31.78125 6.390625 
Q 39.453125 6.390625 43.28125 13.890625 
Q 47.125 21.390625 47.125 36.375 
Q 47.125 51.421875 43.28125 58.90625 
Q 39.453125 66.40625 31.78125 66.40625 
z
M 31.78125 74.21875 
Q 44.046875 74.21875 50.515625 64.515625 
Q 56.984375 54.828125 56.984375 36.375 
Q 56.984375 17.96875 50.515625 8.265625 
Q 44.046875 -1.421875 31.78125 -1.421875 
Q 19.53125 -1.421875 13.0625 8.265625 
Q 6.59375 17.96875 6.59375 36.375 
Q 6.59375 54.828125 13.0625 64.515625 
Q 19.53125 74.21875 31.78125 74.21875 
z
" id="DejaVuSans-48"/>
       </defs>
       <use xlink:href="#DejaVuSans-50"/>
       <use x="63.623047" xlink:href="#DejaVuSans-48"/>
      </g>
     </g>
    </g>
    <g id="xtick_2">
     <g id="line2d_2">
      <g>
       <use style="stroke:#000000;stroke-width:0.8;" x="151.808036" xlink:href="#m7b38d88054" y="307.584"/>
      </g>
     </g>
     <g id="text_2">
      <!-- 40 -->
      <g transform="translate(145.445536 322.182437)scale(0.1 -0.1)">
       <defs>
        <path d="M 37.796875 64.3125 
L 12.890625 25.390625 
L 37.796875 25.390625 
z
M 35.203125 72.90625 
L 47.609375 72.90625 
L 47.609375 25.390625 
L 58.015625 25.390625 
L 58.015625 17.1875 
L 47.609375 17.1875 
L 47.609375 0 
L 37.796875 0 
L 37.796875 17.1875 
L 4.890625 17.1875 
L 4.890625 26.703125 
z
" id="DejaVuSans-52"/>
       </defs>
       <use xlink:href="#DejaVuSans-52"/>
       <use x="63.623047" xlink:href="#DejaVuSans-48"/>
      </g>
     </g>
    </g>
    <g id="xtick_3">
     <g id="line2d_3">
      <g>
       <use style="stroke:#000000;stroke-width:0.8;" x="199.183487" xlink:href="#m7b38d88054" y="307.584"/>
      </g>
     </g>
     <g id="text_3">
      <!-- 60 -->
      <g transform="translate(192.820987 322.182437)scale(0.1 -0.1)">
       <defs>
        <path d="M 33.015625 40.375 
Q 26.375 40.375 22.484375 35.828125 
Q 18.609375 31.296875 18.609375 23.390625 
Q 18.609375 15.53125 22.484375 10.953125 
Q 26.375 6.390625 33.015625 6.390625 
Q 39.65625 6.390625 43.53125 10.953125 
Q 47.40625 15.53125 47.40625 23.390625 
Q 47.40625 31.296875 43.53125 35.828125 
Q 39.65625 40.375 33.015625 40.375 
z
M 52.59375 71.296875 
L 52.59375 62.3125 
Q 48.875 64.0625 45.09375 64.984375 
Q 41.3125 65.921875 37.59375 65.921875 
Q 27.828125 65.921875 22.671875 59.328125 
Q 17.53125 52.734375 16.796875 39.40625 
Q 19.671875 43.65625 24.015625 45.921875 
Q 28.375 48.1875 33.59375 48.1875 
Q 44.578125 48.1875 50.953125 41.515625 
Q 57.328125 34.859375 57.328125 23.390625 
Q 57.328125 12.15625 50.6875 5.359375 
Q 44.046875 -1.421875 33.015625 -1.421875 
Q 20.359375 -1.421875 13.671875 8.265625 
Q 6.984375 17.96875 6.984375 36.375 
Q 6.984375 53.65625 15.1875 63.9375 
Q 23.390625 74.21875 37.203125 74.21875 
Q 40.921875 74.21875 44.703125 73.484375 
Q 48.484375 72.75 52.59375 71.296875 
z
" id="DejaVuSans-54"/>
       </defs>
       <use xlink:href="#DejaVuSans-54"/>
       <use x="63.623047" xlink:href="#DejaVuSans-48"/>
      </g>
     </g>
    </g>
    <g id="xtick_4">
     <g id="line2d_4">
      <g>
       <use style="stroke:#000000;stroke-width:0.8;" x="246.558938" xlink:href="#m7b38d88054" y="307.584"/>
      </g>
     </g>
     <g id="text_4">
      <!-- 80 -->
      <g transform="translate(240.196438 322.182437)scale(0.1 -0.1)">
       <defs>
        <path d="M 31.78125 34.625 
Q 24.75 34.625 20.71875 30.859375 
Q 16.703125 27.09375 16.703125 20.515625 
Q 16.703125 13.921875 20.71875 10.15625 
Q 24.75 6.390625 31.78125 6.390625 
Q 38.8125 6.390625 42.859375 10.171875 
Q 46.921875 13.96875 46.921875 20.515625 
Q 46.921875 27.09375 42.890625 30.859375 
Q 38.875 34.625 31.78125 34.625 
z
M 21.921875 38.8125 
Q 15.578125 40.375 12.03125 44.71875 
Q 8.5 49.078125 8.5 55.328125 
Q 8.5 64.0625 14.71875 69.140625 
Q 20.953125 74.21875 31.78125 74.21875 
Q 42.671875 74.21875 48.875 69.140625 
Q 55.078125 64.0625 55.078125 55.328125 
Q 55.078125 49.078125 51.53125 44.71875 
Q 48 40.375 41.703125 38.8125 
Q 48.828125 37.15625 52.796875 32.3125 
Q 56.78125 27.484375 56.78125 20.515625 
Q 56.78125 9.90625 50.3125 4.234375 
Q 43.84375 -1.421875 31.78125 -1.421875 
Q 19.734375 -1.421875 13.25 4.234375 
Q 6.78125 9.90625 6.78125 20.515625 
Q 6.78125 27.484375 10.78125 32.3125 
Q 14.796875 37.15625 21.921875 38.8125 
z
M 18.3125 54.390625 
Q 18.3125 48.734375 21.84375 45.5625 
Q 25.390625 42.390625 31.78125 42.390625 
Q 38.140625 42.390625 41.71875 45.5625 
Q 45.3125 48.734375 45.3125 54.390625 
Q 45.3125 60.0625 41.71875 63.234375 
Q 38.140625 66.40625 31.78125 66.40625 
Q 25.390625 66.40625 21.84375 63.234375 
Q 18.3125 60.0625 18.3125 54.390625 
z
" id="DejaVuSans-56"/>
       </defs>
       <use xlink:href="#DejaVuSans-56"/>
       <use x="63.623047" xlink:href="#DejaVuSans-48"/>
      </g>
     </g>
    </g>
    <g id="xtick_5">
     <g id="line2d_5">
      <g>
       <use style="stroke:#000000;stroke-width:0.8;" x="293.934389" xlink:href="#m7b38d88054" y="307.584"/>
      </g>
     </g>
     <g id="text_5">
      <!-- 100 -->
      <g transform="translate(284.390639 322.182437)scale(0.1 -0.1)">
       <defs>
        <path d="M 12.40625 8.296875 
L 28.515625 8.296875 
L 28.515625 63.921875 
L 10.984375 60.40625 
L 10.984375 69.390625 
L 28.421875 72.90625 
L 38.28125 72.90625 
L 38.28125 8.296875 
L 54.390625 8.296875 
L 54.390625 0 
L 12.40625 0 
z
" id="DejaVuSans-49"/>
       </defs>
       <use xlink:href="#DejaVuSans-49"/>
       <use x="63.623047" xlink:href="#DejaVuSans-48"/>
       <use x="127.246094" xlink:href="#DejaVuSans-48"/>
      </g>
     </g>
    </g>
    <g id="xtick_6">
     <g id="line2d_6">
      <g>
       <use style="stroke:#000000;stroke-width:0.8;" x="341.309841" xlink:href="#m7b38d88054" y="307.584"/>
      </g>
     </g>
     <g id="text_6">
      <!-- 120 -->
      <g transform="translate(331.766091 322.182437)scale(0.1 -0.1)">
       <use xlink:href="#DejaVuSans-49"/>
       <use x="63.623047" xlink:href="#DejaVuSans-50"/>
       <use x="127.246094" xlink:href="#DejaVuSans-48"/>
      </g>
     </g>
    </g>
    <g id="xtick_7">
     <g id="line2d_7">
      <g>
       <use style="stroke:#000000;stroke-width:0.8;" x="388.685292" xlink:href="#m7b38d88054" y="307.584"/>
      </g>
     </g>
     <g id="text_7">
      <!-- 140 -->
      <g transform="translate(379.141542 322.182437)scale(0.1 -0.1)">
       <use xlink:href="#DejaVuSans-49"/>
       <use x="63.623047" xlink:href="#DejaVuSans-52"/>
       <use x="127.246094" xlink:href="#DejaVuSans-48"/>
      </g>
     </g>
    </g>
   </g>
   <g id="matplotlib.axis_2">
    <g id="ytick_1">
     <g id="line2d_8">
      <defs>
       <path d="M 0 0 
L -3.5 0 
" id="m51c8f007ed" style="stroke:#000000;stroke-width:0.8;"/>
      </defs>
      <g>
       <use style="stroke:#000000;stroke-width:0.8;" x="57.6" xlink:href="#m51c8f007ed" y="266.921955"/>
      </g>
     </g>
     <g id="text_8">
      <!-- 0 -->
      <g transform="translate(44.2375 270.721174)scale(0.1 -0.1)">
       <use xlink:href="#DejaVuSans-48"/>
      </g>
     </g>
    </g>
    <g id="ytick_2">
     <g id="line2d_9">
      <g>
       <use style="stroke:#000000;stroke-width:0.8;" x="57.6" xlink:href="#m51c8f007ed" y="219.546504"/>
      </g>
     </g>
     <g id="text_9">
      <!-- 20 -->
      <g transform="translate(37.875 223.345722)scale(0.1 -0.1)">
       <use xlink:href="#DejaVuSans-50"/>
       <use x="63.623047" xlink:href="#DejaVuSans-48"/>
      </g>
     </g>
    </g>
    <g id="ytick_3">
     <g id="line2d_10">
      <g>
       <use style="stroke:#000000;stroke-width:0.8;" x="57.6" xlink:href="#m51c8f007ed" y="172.171053"/>
      </g>
     </g>
     <g id="text_10">
      <!-- 40 -->
      <g transform="translate(37.875 175.970271)scale(0.1 -0.1)">
       <use xlink:href="#DejaVuSans-52"/>
       <use x="63.623047" xlink:href="#DejaVuSans-48"/>
      </g>
     </g>
    </g>
    <g id="ytick_4">
     <g id="line2d_11">
      <g>
       <use style="stroke:#000000;stroke-width:0.8;" x="57.6" xlink:href="#m51c8f007ed" y="124.795601"/>
      </g>
     </g>
     <g id="text_11">
      <!-- 60 -->
      <g transform="translate(37.875 128.59482)scale(0.1 -0.1)">
       <use xlink:href="#DejaVuSans-54"/>
       <use x="63.623047" xlink:href="#DejaVuSans-48"/>
      </g>
     </g>
    </g>
    <g id="ytick_5">
     <g id="line2d_12">
      <g>
       <use style="stroke:#000000;stroke-width:0.8;" x="57.6" xlink:href="#m51c8f007ed" y="77.42015"/>
      </g>
     </g>
     <g id="text_12">
      <!-- 80 -->
      <g transform="translate(37.875 81.219369)scale(0.1 -0.1)">
       <use xlink:href="#DejaVuSans-56"/>
       <use x="63.623047" xlink:href="#DejaVuSans-48"/>
      </g>
     </g>
    </g>
   </g>
   <g id="line2d_13">
    <path clip-path="url(#pe49a4bd9f0)" d="M 388.983757 243.234229 
L 388.912694 233.714132 
L 388.936382 207.750016 
L 388.699505 200.634224 
L 388.232856 193.473424 
L 387.728308 188.690872 
L 386.972669 183.962802 
L 385.875928 179.33659 
L 385.172402 177.081518 
L 384.350438 174.871453 
L 383.40056 172.71587 
L 382.313294 170.619507 
L 381.093376 168.584731 
L 379.755019 166.613912 
L 378.302962 164.714157 
L 376.749047 162.885464 
L 375.10275 161.130204 
L 371.563804 157.858929 
L 367.766661 154.919282 
L 363.780017 152.31837 
L 359.655984 149.980391 
L 353.324255 146.756492 
L 344.867737 142.487964 
L 338.652078 139.050875 
L 330.477444 134.249373 
L 318.235627 127.022248 
L 314.0808 124.748226 
L 309.847804 122.611593 
L 305.515319 120.657356 
L 301.064395 118.925783 
L 296.513983 117.46425 
L 291.883032 116.317764 
L 287.195232 115.533701 
L 282.474268 115.159435 
L 277.74146 115.22576 
L 273.018128 115.697146 
L 268.325589 116.521479 
L 263.680426 117.651383 
L 259.103958 119.032378 
L 254.615134 120.624193 
L 250.213954 122.407879 
L 245.902788 124.381066 
L 241.679267 126.529543 
L 237.545759 128.848571 
L 233.502264 131.328676 
L 229.555889 133.967489 
L 225.716109 136.757903 
L 221.990029 139.69755 
L 218.391864 142.78406 
L 214.916874 146.003222 
L 209.866651 150.998963 
L 201.514359 159.405737 
L 198.07727 162.669906 
L 194.531218 165.810898 
L 190.847776 168.793183 
L 186.993784 171.571753 
L 182.943182 174.108709 
L 178.674654 176.354305 
L 174.226099 178.239848 
L 171.949709 179.02628 
L 169.644893 179.696643 
L 167.321127 180.239092 
L 164.983149 180.646521 
L 162.635695 180.909455 
L 160.285873 181.018418 
L 157.938419 180.968674 
L 155.595703 180.769697 
L 153.262462 180.433331 
L 148.619668 179.414759 
L 144.026618 178.021921 
L 139.495156 176.36378 
L 132.838905 173.611266 
L 128.508789 171.633341 
L 124.271055 169.522765 
L 120.13044 167.260587 
L 116.096421 164.825489 
L 112.168996 162.207995 
L 108.343428 159.41995 
L 104.617349 156.482672 
L 99.197597 151.839878 
L 93.960241 146.974419 
L 88.888699 141.952621 
L 82.346149 135.135294 
L 80.744859 133.427409 
L 80.744859 133.427409 
" style="fill:none;stroke:#fea952;stroke-linecap:square;"/>
   </g>
   <g id="line2d_14">
    <path clip-path="url(#pe49a4bd9f0)" d="M 379.509858 243.38446 
L 379.437646 233.685707 
L 379.464257 207.987057 
L 379.238062 201.1426 
L 378.799322 194.359859 
L 378.349573 190.038714 
L 377.710531 185.960334 
L 376.830792 182.158444 
L 375.679854 178.692227 
L 374.989438 177.078249 
L 374.186802 175.491617 
L 372.227075 172.367815 
L 369.838071 169.367419 
L 367.098252 166.556731 
L 364.060828 163.963368 
L 360.766591 161.610231 
L 357.16335 159.423564 
L 353.276811 157.330828 
L 338.192984 149.65414 
L 331.805885 146.042571 
L 309.733911 133.167364 
L 305.850241 131.202101 
L 301.949364 129.435813 
L 298.02309 127.899511 
L 294.070266 126.618789 
L 290.128339 125.628961 
L 286.238356 124.96035 
L 282.398394 124.634221 
L 278.498558 124.670554 
L 274.497823 125.055983 
L 270.428716 125.760212 
L 266.308215 126.754793 
L 262.17359 127.996456 
L 258.083524 129.441653 
L 254.068303 131.06359 
L 250.109829 132.870951 
L 246.228382 134.841155 
L 242.422045 136.972558 
L 238.690301 139.257207 
L 235.047069 141.689165 
L 231.510974 144.25436 
L 228.08744 146.95006 
L 224.771631 149.78948 
L 221.516472 152.801946 
L 216.618432 157.646579 
L 208.089954 166.227679 
L 204.427283 169.702308 
L 200.586763 173.098401 
L 196.502526 176.395889 
L 192.160243 179.514362 
L 187.520137 182.405022 
L 185.079793 183.742836 
L 182.563283 184.99467 
L 179.973858 186.149979 
L 177.32006 187.195558 
L 174.595911 188.124354 
L 171.798806 188.923668 
L 168.947793 189.573506 
L 166.03784 190.062728 
L 163.074593 190.374374 
L 160.085134 190.491382 
L 157.136546 190.409772 
L 154.243728 190.147836 
L 151.444325 189.732348 
L 148.695914 189.184931 
L 143.424704 187.779027 
L 138.39614 186.07958 
L 133.631648 184.227354 
L 126.656677 181.224592 
L 122.075052 179.038064 
L 117.56398 176.681479 
L 113.118065 174.12374 
L 108.775225 171.364 
L 104.58546 168.4346 
L 100.542621 165.360235 
L 96.62235 162.158314 
L 90.982276 157.178853 
L 85.580825 152.042059 
L 80.408445 146.831997 
L 73.832727 139.908131 
L 73.832727 139.908131 
" style="fill:none;stroke:#ffffff;stroke-linecap:square;"/>
   </g>
   <g id="line2d_15">
    <path clip-path="url(#pe49a4bd9f0)" d="M 398.457656 243.083999 
L 398.387742 233.742558 
L 398.408507 207.512976 
L 398.160947 200.125848 
L 397.666391 192.586989 
L 397.107042 187.34303 
L 396.234807 181.965271 
L 395.643453 179.260677 
L 394.921063 176.514735 
L 394.05317 173.778596 
L 393.021022 171.05068 
L 391.811683 168.353491 
L 390.439786 165.747396 
L 388.931907 163.26169 
L 387.282963 160.86001 
L 385.523329 158.578715 
L 383.660023 156.403509 
L 381.689913 154.319431 
L 379.644103 152.354232 
L 377.527124 150.495768 
L 375.328856 148.727198 
L 370.820357 145.546883 
L 366.298708 142.820715 
L 361.84243 140.426996 
L 345.384249 131.975141 
L 337.368594 127.327234 
L 322.847587 118.745342 
L 318.427689 116.329088 
L 313.845367 114.021085 
L 309.081273 111.878899 
L 304.1057 109.952055 
L 298.9577 108.309711 
L 293.637726 107.006568 
L 290.915459 106.501709 
L 288.152108 106.107051 
L 285.378585 105.834781 
L 282.550142 105.684648 
L 279.766641 105.67154 
L 276.984363 105.780966 
L 271.538432 106.338309 
L 266.222463 107.282745 
L 261.052638 108.547974 
L 256.034326 110.0683 
L 251.146744 111.806733 
L 246.359606 113.752168 
L 241.695747 115.891182 
L 237.130152 118.217931 
L 232.669473 120.724584 
L 228.314226 123.400145 
L 224.064709 126.245813 
L 219.921243 129.261446 
L 215.892618 132.445039 
L 212.012097 135.77864 
L 208.317277 139.204498 
L 203.114871 144.351348 
L 193.335054 154.131039 
L 190.105104 157.104581 
L 186.841515 159.885287 
L 183.516645 162.442538 
L 180.10312 164.757325 
L 176.590157 166.800716 
L 172.964796 168.543662 
L 169.303507 169.928206 
L 165.694461 170.904677 
L 162.196798 171.444535 
L 160.486612 171.545454 
L 158.740292 171.527576 
L 156.947679 171.391558 
L 153.176741 170.772122 
L 149.209738 169.733454 
L 145.109053 168.358233 
L 138.771812 165.846027 
L 132.655057 163.113612 
L 128.731402 161.163181 
L 124.940745 159.097358 
L 121.261906 156.882247 
L 117.671792 154.494593 
L 114.147452 151.930581 
L 110.670141 149.192882 
L 105.564667 144.822915 
L 100.565256 140.180958 
L 95.663872 135.328848 
L 89.258281 128.654571 
L 87.656991 126.946686 
L 87.656991 126.946686 
" style="fill:none;stroke:#ffffff;stroke-linecap:square;"/>
   </g>
   <g id="patch_3">
    <path d="M 57.6 307.584 
L 57.6 41.472 
" style="fill:none;stroke:#000000;stroke-linecap:square;stroke-linejoin:miter;stroke-width:0.8;"/>
   </g>
   <g id="patch_4">
    <path d="M 414.72 307.584 
L 414.72 41.472 
" style="fill:none;stroke:#000000;stroke-linecap:square;stroke-linejoin:miter;stroke-width:0.8;"/>
   </g>
   <g id="patch_5">
    <path d="M 57.6 307.584 
L 414.72 307.584 
" style="fill:none;stroke:#000000;stroke-linecap:square;stroke-linejoin:miter;stroke-width:0.8;"/>
   </g>
   <g id="patch_6">
    <path d="M 57.6 41.472 
L 414.72 41.472 
" style="fill:none;stroke:#000000;stroke-linecap:square;stroke-linejoin:miter;stroke-width:0.8;"/>
   </g>
  </g>
 </g>
 <defs>
  <clipPath id="pe49a4bd9f0">
   <rect height="266.112" width="357.12" x="57.6" y="41.472"/>
  </clipPath>
 </defs>
</svg>
