<?xml version="1.0" encoding="utf-8" standalone="no"?>
<!DOCTYPE svg PUBLIC "-//W3C//DTD SVG 1.1//EN"
  "http://www.w3.org/Graphics/SVG/1.1/DTD/svg11.dtd">
<!-- Created with matplotlib (https://matplotlib.org/) -->
<svg height="345.6pt" version="1.1" viewBox="0 0 460.8 345.6" width="460.8pt" xmlns="http://www.w3.org/2000/svg" xmlns:xlink="http://www.w3.org/1999/xlink">
 <metadata>
  <rdf:RDF xmlns:cc="http://creativecommons.org/ns#" xmlns:dc="http://purl.org/dc/elements/1.1/" xmlns:rdf="http://www.w3.org/1999/02/22-rdf-syntax-ns#">
   <cc:Work>
    <dc:type rdf:resource="http://purl.org/dc/dcmitype/StillImage"/>
    <dc:date>2021-01-25T14:49:44.342899</dc:date>
    <dc:format>image/svg+xml</dc:format>
    <dc:creator>
     <cc:Agent>
      <dc:title>Matplotlib v3.3.3, https://matplotlib.org/</dc:title>
     </cc:Agent>
    </dc:creator>
   </cc:Work>
  </rdf:RDF>
 </metadata>
 <defs>
  <style type="text/css">*{stroke-linecap:butt;stroke-linejoin:round;}</style>
 </defs>
 <g id="figure_1">
  <g id="patch_1">
   <path d="M 0 345.6 
L 460.8 345.6 
L 460.8 0 
L 0 0 
z
" style="fill:#ffffff;"/>
  </g>
  <g id="axes_1">
   <g id="patch_2">
    <path d="M 57.6 307.584 
L 414.72 307.584 
L 414.72 41.472 
L 57.6 41.472 
z
" style="fill:#7d9051;"/>
   </g>
   <g id="matplotlib.axis_1">
    <g id="xtick_1">
     <g id="line2d_1">
      <defs>
       <path d="M 0 0 
L 0 3.5 
" id="m671275a3b7" style="stroke:#000000;stroke-width:0.8;"/>
      </defs>
      <g>
       <use style="stroke:#000000;stroke-width:0.8;" x="84.936876" xlink:href="#m671275a3b7" y="307.584"/>
      </g>
     </g>
     <g id="text_1">
      <!-- 10 -->
      <g transform="translate(78.574376 322.182437)scale(0.1 -0.1)">
       <defs>
        <path d="M 12.40625 8.296875 
L 28.515625 8.296875 
L 28.515625 63.921875 
L 10.984375 60.40625 
L 10.984375 69.390625 
L 28.421875 72.90625 
L 38.28125 72.90625 
L 38.28125 8.296875 
L 54.390625 8.296875 
L 54.390625 0 
L 12.40625 0 
z
" id="DejaVuSans-49"/>
        <path d="M 31.78125 66.40625 
Q 24.171875 66.40625 20.328125 58.90625 
Q 16.5 51.421875 16.5 36.375 
Q 16.5 21.390625 20.328125 13.890625 
Q 24.171875 6.390625 31.78125 6.390625 
Q 39.453125 6.390625 43.28125 13.890625 
Q 47.125 21.390625 47.125 36.375 
Q 47.125 51.421875 43.28125 58.90625 
Q 39.453125 66.40625 31.78125 66.40625 
z
M 31.78125 74.21875 
Q 44.046875 74.21875 50.515625 64.515625 
Q 56.984375 54.828125 56.984375 36.375 
Q 56.984375 17.96875 50.515625 8.265625 
Q 44.046875 -1.421875 31.78125 -1.421875 
Q 19.53125 -1.421875 13.0625 8.265625 
Q 6.59375 17.96875 6.59375 36.375 
Q 6.59375 54.828125 13.0625 64.515625 
Q 19.53125 74.21875 31.78125 74.21875 
z
" id="DejaVuSans-48"/>
       </defs>
       <use xlink:href="#DejaVuSans-49"/>
       <use x="63.623047" xlink:href="#DejaVuSans-48"/>
      </g>
     </g>
    </g>
    <g id="xtick_2">
     <g id="line2d_2">
      <g>
       <use style="stroke:#000000;stroke-width:0.8;" x="126.465435" xlink:href="#m671275a3b7" y="307.584"/>
      </g>
     </g>
     <g id="text_2">
      <!-- 20 -->
      <g transform="translate(120.102935 322.182437)scale(0.1 -0.1)">
       <defs>
        <path d="M 19.1875 8.296875 
L 53.609375 8.296875 
L 53.609375 0 
L 7.328125 0 
L 7.328125 8.296875 
Q 12.9375 14.109375 22.625 23.890625 
Q 32.328125 33.6875 34.8125 36.53125 
Q 39.546875 41.84375 41.421875 45.53125 
Q 43.3125 49.21875 43.3125 52.78125 
Q 43.3125 58.59375 39.234375 62.25 
Q 35.15625 65.921875 28.609375 65.921875 
Q 23.96875 65.921875 18.8125 64.3125 
Q 13.671875 62.703125 7.8125 59.421875 
L 7.8125 69.390625 
Q 13.765625 71.78125 18.9375 73 
Q 24.125 74.21875 28.421875 74.21875 
Q 39.75 74.21875 46.484375 68.546875 
Q 53.21875 62.890625 53.21875 53.421875 
Q 53.21875 48.921875 51.53125 44.890625 
Q 49.859375 40.875 45.40625 35.40625 
Q 44.1875 33.984375 37.640625 27.21875 
Q 31.109375 20.453125 19.1875 8.296875 
z
" id="DejaVuSans-50"/>
       </defs>
       <use xlink:href="#DejaVuSans-50"/>
       <use x="63.623047" xlink:href="#DejaVuSans-48"/>
      </g>
     </g>
    </g>
    <g id="xtick_3">
     <g id="line2d_3">
      <g>
       <use style="stroke:#000000;stroke-width:0.8;" x="167.993993" xlink:href="#m671275a3b7" y="307.584"/>
      </g>
     </g>
     <g id="text_3">
      <!-- 30 -->
      <g transform="translate(161.631493 322.182437)scale(0.1 -0.1)">
       <defs>
        <path d="M 40.578125 39.3125 
Q 47.65625 37.796875 51.625 33 
Q 55.609375 28.21875 55.609375 21.1875 
Q 55.609375 10.40625 48.1875 4.484375 
Q 40.765625 -1.421875 27.09375 -1.421875 
Q 22.515625 -1.421875 17.65625 -0.515625 
Q 12.796875 0.390625 7.625 2.203125 
L 7.625 11.71875 
Q 11.71875 9.328125 16.59375 8.109375 
Q 21.484375 6.890625 26.8125 6.890625 
Q 36.078125 6.890625 40.9375 10.546875 
Q 45.796875 14.203125 45.796875 21.1875 
Q 45.796875 27.640625 41.28125 31.265625 
Q 36.765625 34.90625 28.71875 34.90625 
L 20.21875 34.90625 
L 20.21875 43.015625 
L 29.109375 43.015625 
Q 36.375 43.015625 40.234375 45.921875 
Q 44.09375 48.828125 44.09375 54.296875 
Q 44.09375 59.90625 40.109375 62.90625 
Q 36.140625 65.921875 28.71875 65.921875 
Q 24.65625 65.921875 20.015625 65.03125 
Q 15.375 64.15625 9.8125 62.3125 
L 9.8125 71.09375 
Q 15.4375 72.65625 20.34375 73.4375 
Q 25.25 74.21875 29.59375 74.21875 
Q 40.828125 74.21875 47.359375 69.109375 
Q 53.90625 64.015625 53.90625 55.328125 
Q 53.90625 49.265625 50.4375 45.09375 
Q 46.96875 40.921875 40.578125 39.3125 
z
" id="DejaVuSans-51"/>
       </defs>
       <use xlink:href="#DejaVuSans-51"/>
       <use x="63.623047" xlink:href="#DejaVuSans-48"/>
      </g>
     </g>
    </g>
    <g id="xtick_4">
     <g id="line2d_4">
      <g>
       <use style="stroke:#000000;stroke-width:0.8;" x="209.522551" xlink:href="#m671275a3b7" y="307.584"/>
      </g>
     </g>
     <g id="text_4">
      <!-- 40 -->
      <g transform="translate(203.160051 322.182437)scale(0.1 -0.1)">
       <defs>
        <path d="M 37.796875 64.3125 
L 12.890625 25.390625 
L 37.796875 25.390625 
z
M 35.203125 72.90625 
L 47.609375 72.90625 
L 47.609375 25.390625 
L 58.015625 25.390625 
L 58.015625 17.1875 
L 47.609375 17.1875 
L 47.609375 0 
L 37.796875 0 
L 37.796875 17.1875 
L 4.890625 17.1875 
L 4.890625 26.703125 
z
" id="DejaVuSans-52"/>
       </defs>
       <use xlink:href="#DejaVuSans-52"/>
       <use x="63.623047" xlink:href="#DejaVuSans-48"/>
      </g>
     </g>
    </g>
    <g id="xtick_5">
     <g id="line2d_5">
      <g>
       <use style="stroke:#000000;stroke-width:0.8;" x="251.051109" xlink:href="#m671275a3b7" y="307.584"/>
      </g>
     </g>
     <g id="text_5">
      <!-- 50 -->
      <g transform="translate(244.688609 322.182437)scale(0.1 -0.1)">
       <defs>
        <path d="M 10.796875 72.90625 
L 49.515625 72.90625 
L 49.515625 64.59375 
L 19.828125 64.59375 
L 19.828125 46.734375 
Q 21.96875 47.46875 24.109375 47.828125 
Q 26.265625 48.1875 28.421875 48.1875 
Q 40.625 48.1875 47.75 41.5 
Q 54.890625 34.8125 54.890625 23.390625 
Q 54.890625 11.625 47.5625 5.09375 
Q 40.234375 -1.421875 26.90625 -1.421875 
Q 22.3125 -1.421875 17.546875 -0.640625 
Q 12.796875 0.140625 7.71875 1.703125 
L 7.71875 11.625 
Q 12.109375 9.234375 16.796875 8.0625 
Q 21.484375 6.890625 26.703125 6.890625 
Q 35.15625 6.890625 40.078125 11.328125 
Q 45.015625 15.765625 45.015625 23.390625 
Q 45.015625 31 40.078125 35.4375 
Q 35.15625 39.890625 26.703125 39.890625 
Q 22.75 39.890625 18.8125 39.015625 
Q 14.890625 38.140625 10.796875 36.28125 
z
" id="DejaVuSans-53"/>
       </defs>
       <use xlink:href="#DejaVuSans-53"/>
       <use x="63.623047" xlink:href="#DejaVuSans-48"/>
      </g>
     </g>
    </g>
    <g id="xtick_6">
     <g id="line2d_6">
      <g>
       <use style="stroke:#000000;stroke-width:0.8;" x="292.579667" xlink:href="#m671275a3b7" y="307.584"/>
      </g>
     </g>
     <g id="text_6">
      <!-- 60 -->
      <g transform="translate(286.217167 322.182437)scale(0.1 -0.1)">
       <defs>
        <path d="M 33.015625 40.375 
Q 26.375 40.375 22.484375 35.828125 
Q 18.609375 31.296875 18.609375 23.390625 
Q 18.609375 15.53125 22.484375 10.953125 
Q 26.375 6.390625 33.015625 6.390625 
Q 39.65625 6.390625 43.53125 10.953125 
Q 47.40625 15.53125 47.40625 23.390625 
Q 47.40625 31.296875 43.53125 35.828125 
Q 39.65625 40.375 33.015625 40.375 
z
M 52.59375 71.296875 
L 52.59375 62.3125 
Q 48.875 64.0625 45.09375 64.984375 
Q 41.3125 65.921875 37.59375 65.921875 
Q 27.828125 65.921875 22.671875 59.328125 
Q 17.53125 52.734375 16.796875 39.40625 
Q 19.671875 43.65625 24.015625 45.921875 
Q 28.375 48.1875 33.59375 48.1875 
Q 44.578125 48.1875 50.953125 41.515625 
Q 57.328125 34.859375 57.328125 23.390625 
Q 57.328125 12.15625 50.6875 5.359375 
Q 44.046875 -1.421875 33.015625 -1.421875 
Q 20.359375 -1.421875 13.671875 8.265625 
Q 6.984375 17.96875 6.984375 36.375 
Q 6.984375 53.65625 15.1875 63.9375 
Q 23.390625 74.21875 37.203125 74.21875 
Q 40.921875 74.21875 44.703125 73.484375 
Q 48.484375 72.75 52.59375 71.296875 
z
" id="DejaVuSans-54"/>
       </defs>
       <use xlink:href="#DejaVuSans-54"/>
       <use x="63.623047" xlink:href="#DejaVuSans-48"/>
      </g>
     </g>
    </g>
    <g id="xtick_7">
     <g id="line2d_7">
      <g>
       <use style="stroke:#000000;stroke-width:0.8;" x="334.108226" xlink:href="#m671275a3b7" y="307.584"/>
      </g>
     </g>
     <g id="text_7">
      <!-- 70 -->
      <g transform="translate(327.745726 322.182437)scale(0.1 -0.1)">
       <defs>
        <path d="M 8.203125 72.90625 
L 55.078125 72.90625 
L 55.078125 68.703125 
L 28.609375 0 
L 18.3125 0 
L 43.21875 64.59375 
L 8.203125 64.59375 
z
" id="DejaVuSans-55"/>
       </defs>
       <use xlink:href="#DejaVuSans-55"/>
       <use x="63.623047" xlink:href="#DejaVuSans-48"/>
      </g>
     </g>
    </g>
    <g id="xtick_8">
     <g id="line2d_8">
      <g>
       <use style="stroke:#000000;stroke-width:0.8;" x="375.636784" xlink:href="#m671275a3b7" y="307.584"/>
      </g>
     </g>
     <g id="text_8">
      <!-- 80 -->
      <g transform="translate(369.274284 322.182437)scale(0.1 -0.1)">
       <defs>
        <path d="M 31.78125 34.625 
Q 24.75 34.625 20.71875 30.859375 
Q 16.703125 27.09375 16.703125 20.515625 
Q 16.703125 13.921875 20.71875 10.15625 
Q 24.75 6.390625 31.78125 6.390625 
Q 38.8125 6.390625 42.859375 10.171875 
Q 46.921875 13.96875 46.921875 20.515625 
Q 46.921875 27.09375 42.890625 30.859375 
Q 38.875 34.625 31.78125 34.625 
z
M 21.921875 38.8125 
Q 15.578125 40.375 12.03125 44.71875 
Q 8.5 49.078125 8.5 55.328125 
Q 8.5 64.0625 14.71875 69.140625 
Q 20.953125 74.21875 31.78125 74.21875 
Q 42.671875 74.21875 48.875 69.140625 
Q 55.078125 64.0625 55.078125 55.328125 
Q 55.078125 49.078125 51.53125 44.71875 
Q 48 40.375 41.703125 38.8125 
Q 48.828125 37.15625 52.796875 32.3125 
Q 56.78125 27.484375 56.78125 20.515625 
Q 56.78125 9.90625 50.3125 4.234375 
Q 43.84375 -1.421875 31.78125 -1.421875 
Q 19.734375 -1.421875 13.25 4.234375 
Q 6.78125 9.90625 6.78125 20.515625 
Q 6.78125 27.484375 10.78125 32.3125 
Q 14.796875 37.15625 21.921875 38.8125 
z
M 18.3125 54.390625 
Q 18.3125 48.734375 21.84375 45.5625 
Q 25.390625 42.390625 31.78125 42.390625 
Q 38.140625 42.390625 41.71875 45.5625 
Q 45.3125 48.734375 45.3125 54.390625 
Q 45.3125 60.0625 41.71875 63.234375 
Q 38.140625 66.40625 31.78125 66.40625 
Q 25.390625 66.40625 21.84375 63.234375 
Q 18.3125 60.0625 18.3125 54.390625 
z
" id="DejaVuSans-56"/>
       </defs>
       <use xlink:href="#DejaVuSans-56"/>
       <use x="63.623047" xlink:href="#DejaVuSans-48"/>
      </g>
     </g>
    </g>
   </g>
   <g id="matplotlib.axis_2">
    <g id="ytick_1">
     <g id="line2d_9">
      <defs>
       <path d="M 0 0 
L -3.5 0 
" id="meed20987b7" style="stroke:#000000;stroke-width:0.8;"/>
      </defs>
      <g>
       <use style="stroke:#000000;stroke-width:0.8;" x="57.6" xlink:href="#meed20987b7" y="278.87103"/>
      </g>
     </g>
     <g id="text_9">
      <!-- 10 -->
      <g transform="translate(37.875 282.670248)scale(0.1 -0.1)">
       <use xlink:href="#DejaVuSans-49"/>
       <use x="63.623047" xlink:href="#DejaVuSans-48"/>
      </g>
     </g>
    </g>
    <g id="ytick_2">
     <g id="line2d_10">
      <g>
       <use style="stroke:#000000;stroke-width:0.8;" x="57.6" xlink:href="#meed20987b7" y="237.342471"/>
      </g>
     </g>
     <g id="text_10">
      <!-- 20 -->
      <g transform="translate(37.875 241.14169)scale(0.1 -0.1)">
       <use xlink:href="#DejaVuSans-50"/>
       <use x="63.623047" xlink:href="#DejaVuSans-48"/>
      </g>
     </g>
    </g>
    <g id="ytick_3">
     <g id="line2d_11">
      <g>
       <use style="stroke:#000000;stroke-width:0.8;" x="57.6" xlink:href="#meed20987b7" y="195.813913"/>
      </g>
     </g>
     <g id="text_11">
      <!-- 30 -->
      <g transform="translate(37.875 199.613132)scale(0.1 -0.1)">
       <use xlink:href="#DejaVuSans-51"/>
       <use x="63.623047" xlink:href="#DejaVuSans-48"/>
      </g>
     </g>
    </g>
    <g id="ytick_4">
     <g id="line2d_12">
      <g>
       <use style="stroke:#000000;stroke-width:0.8;" x="57.6" xlink:href="#meed20987b7" y="154.285355"/>
      </g>
     </g>
     <g id="text_12">
      <!-- 40 -->
      <g transform="translate(37.875 158.084574)scale(0.1 -0.1)">
       <use xlink:href="#DejaVuSans-52"/>
       <use x="63.623047" xlink:href="#DejaVuSans-48"/>
      </g>
     </g>
    </g>
    <g id="ytick_5">
     <g id="line2d_13">
      <g>
       <use style="stroke:#000000;stroke-width:0.8;" x="57.6" xlink:href="#meed20987b7" y="112.756797"/>
      </g>
     </g>
     <g id="text_13">
      <!-- 50 -->
      <g transform="translate(37.875 116.556016)scale(0.1 -0.1)">
       <use xlink:href="#DejaVuSans-53"/>
       <use x="63.623047" xlink:href="#DejaVuSans-48"/>
      </g>
     </g>
    </g>
    <g id="ytick_6">
     <g id="line2d_14">
      <g>
       <use style="stroke:#000000;stroke-width:0.8;" x="57.6" xlink:href="#meed20987b7" y="71.228239"/>
      </g>
     </g>
     <g id="text_14">
      <!-- 60 -->
      <g transform="translate(37.875 75.027457)scale(0.1 -0.1)">
       <use xlink:href="#DejaVuSans-54"/>
       <use x="63.623047" xlink:href="#DejaVuSans-48"/>
      </g>
     </g>
    </g>
   </g>
   <g id="line2d_15">
    <path clip-path="url(#p70838f6f90)" d="M 243.879127 219.522567 
L 242.728786 215.394628 
L 241.848381 211.229314 
L 241.233758 207.043235 
L 240.876613 202.844698 
L 240.776944 198.642008 
L 240.926447 194.447624 
L 241.320968 190.278156 
L 241.952202 186.137759 
L 242.820149 182.03889 
L 243.91235 177.994009 
L 245.228805 174.015573 
L 246.761209 170.111888 
L 248.509562 166.295414 
L 250.457251 162.578608 
L 252.612583 158.969776 
L 254.958947 155.481377 
L 257.496342 152.121717 
L 260.220615 148.907407 
L 263.123461 145.846752 
L 266.200727 142.952211 
L 269.444108 140.232091 
L 272.845297 137.703002 
L 276.38353 135.369097 
L 280.050501 133.25114 
L 283.833753 131.361591 
L 287.716673 129.704601 
L 291.686803 128.296783 
L 295.727532 127.150595 
L 299.826401 126.282648 
L 303.975104 125.697095 
L 308.152877 125.406396 
L 312.347261 125.406396 
L 316.537493 125.680484 
L 320.715266 126.224508 
L 324.859816 127.026009 
L 328.958684 128.072529 
L 332.99526 129.351609 
L 336.948779 130.859095 
L 340.806782 132.58253 
L 344.556811 134.509456 
L 348.182254 136.631565 
L 351.674806 138.940553 
L 355.034466 141.42396 
L 358.261235 144.081788 
L 361.355113 146.897424 
L 364.30364 149.866716 
L 367.115124 152.981358 
L 369.781257 156.228891 
L 372.297888 159.609316 
L 374.669169 163.110174 
L 376.886794 166.719005 
L 378.938304 170.431658 
L 380.807089 174.235674 
L 382.484843 178.118595 
L 383.954954 182.076266 
L 385.200811 186.087925 
L 386.209955 190.153571 
L 386.969927 194.260745 
L 387.464117 198.392837 
L 387.680066 202.545692 
L 387.609467 206.706854 
L 387.252322 210.863863 
L 386.62524 215.000107 
L 385.736529 219.103129 
L 384.598647 223.160469 
L 383.219899 227.155516 
L 381.616896 231.075812 
L 379.793793 234.913051 
L 377.767199 238.646468 
L 375.545421 242.259453 
L 373.136765 245.747852 
L 370.553688 249.099206 
L 367.804498 252.305211 
L 364.893346 255.353407 
L 361.836844 258.239642 
L 358.634992 260.951457 
L 355.296096 263.488852 
L 351.836767 265.831062 
L 348.257005 267.982242 
L 344.56927 269.925778 
L 340.786018 271.657519 
L 336.907251 273.181617 
L 332.953732 274.510531 
L 328.933767 275.644261 
L 324.855663 276.595265 
L 320.73603 277.371849 
L 316.579021 277.982318 
L 312.401248 278.426674 
L 308.206864 278.721527 
L 304.016632 278.87103 
L 299.834707 278.883488 
L 295.661087 278.763055 
L 291.504078 278.518037 
L 283.223283 277.687466 
L 275.000629 276.441609 
L 266.840267 274.838607 
L 258.750504 272.932446 
L 250.727187 270.777114 
L 242.762009 268.414139 
L 230.8973 264.589358 
L 211.258445 257.845121 
L 195.519121 252.546077 
L 187.587167 250.062669 
L 179.588766 247.749528 
L 163.542131 243.251985 
L 155.630941 240.71459 
L 151.735562 239.290161 
L 147.894171 237.736993 
L 144.110919 236.030169 
L 140.398266 234.148925 
L 136.760364 232.097414 
L 133.209672 229.883942 
L 129.754496 227.516815 
L 126.398989 224.996031 
L 123.151456 222.338203 
L 120.020202 219.543331 
L 117.017688 216.623874 
L 114.143911 213.583983 
L 111.411332 210.427813 
L 108.824103 207.171974 
L 106.378071 203.812313 
L 104.073236 200.357137 
L 101.901292 196.814751 
L 99.858087 193.193461 
L 97.939468 189.489114 
L 96.137129 185.718321 
L 94.451069 181.881082 
L 92.877137 177.985703 
L 90.036583 170.04129 
L 88.786574 166.000561 
L 87.669456 161.930763 
L 86.697687 157.827741 
L 85.896186 153.708108 
L 85.273258 149.571864 
L 84.849666 145.427313 
L 84.642024 141.282763 
L 84.666941 137.142366 
L 84.936876 133.014427 
L 85.468442 128.907253 
L 86.253332 124.824996 
L 87.28324 120.784267 
L 88.545708 116.797525 
L 90.036583 112.868924 
L 91.74756 109.015074 
L 93.662027 105.244281 
L 95.771677 101.56485 
L 98.072359 97.989241 
L 100.551614 94.534065 
L 103.196983 91.203475 
L 106.004314 88.005776 
L 108.961147 84.961733 
L 112.055025 82.071345 
L 115.281794 79.351225 
L 118.633149 76.81383 
L 122.092477 74.467466 
L 125.655628 72.32044 
L 129.310141 70.385209 
L 133.047711 68.678385 
L 133.047711 68.678385 
" style="fill:none;stroke:#fea952;stroke-linecap:square;"/>
   </g>
   <g id="line2d_16">
    <path clip-path="url(#p70838f6f90)" d="M 227.877419 223.981796 
L 226.476438 218.829821 
L 225.413166 213.642421 
L 224.68211 208.45119 
L 224.269859 203.238534 
L 224.176063 198.050293 
L 224.388891 192.882815 
L 224.899295 187.774551 
L 225.701127 182.696549 
L 226.783081 177.708553 
L 228.141885 172.775598 
L 229.766099 167.945638 
L 231.659052 163.19349 
L 233.795926 158.58514 
L 236.195726 154.06108 
L 238.829027 149.698694 
L 241.703309 145.470012 
L 244.824107 141.381426 
L 248.167956 137.476187 
L 251.742144 133.746958 
L 255.526332 130.224421 
L 259.532025 126.902049 
L 263.698652 123.836558 
L 268.075378 120.984591 
L 272.628173 118.39017 
L 277.313866 116.08316 
L 282.164934 114.04837 
L 287.153672 112.315854 
L 292.286322 110.89952 
L 297.504855 109.83425 
L 302.822027 109.125741 
L 308.152877 108.794972 
L 313.431519 108.830396 
L 318.682501 109.208134 
L 323.869259 109.915256 
L 328.969204 110.930907 
L 333.976497 112.237096 
L 338.913595 113.830246 
L 343.724086 115.692204 
L 348.398807 117.807533 
L 352.948258 120.173382 
L 357.343313 122.774639 
L 361.548952 125.582386 
L 365.595625 128.602053 
L 369.441852 131.796302 
L 373.142304 135.192661 
L 376.63445 138.736105 
L 379.954082 142.440935 
L 383.105669 146.309243 
L 386.051284 150.293552 
L 388.822014 154.413258 
L 391.426163 158.684946 
L 393.847733 163.107157 
L 396.055927 167.646872 
L 398.056659 172.33431 
L 399.818967 177.149554 
L 401.323017 182.086192 
L 402.544106 187.131175 
L 403.463808 192.28811 
L 404.053127 197.530208 
L 404.289099 202.827482 
L 404.159921 208.128771 
L 403.676071 213.353809 
L 402.860195 218.516585 
L 401.730861 223.588745 
L 400.301249 228.579662 
L 398.595589 233.44261 
L 396.620992 238.204381 
L 394.392993 242.837867 
L 391.917247 247.347935 
L 389.21491 251.697909 
L 386.293674 255.888617 
L 383.163715 259.912467 
L 379.81749 263.778109 
L 376.298176 267.43104 
L 372.572759 270.915584 
L 368.685869 274.177161 
L 364.609296 277.243985 
L 360.392988 280.069407 
L 356.0019 282.677683 
L 351.483075 285.030039 
L 346.861048 287.118224 
L 342.199922 288.927315 
L 337.462679 290.498301 
L 332.706292 291.821635 
L 327.932853 292.919182 
L 323.149583 293.806998 
L 318.335933 294.50057 
L 313.566107 294.997205 
L 308.799164 295.322387 
L 304.06612 295.482379 
L 299.355571 295.488 
L 294.683688 295.345699 
L 290.062892 295.066824 
L 285.480901 294.662063 
L 280.918194 294.138178 
L 271.966368 292.773561 
L 263.171741 291.039881 
L 254.549983 289.004005 
L 246.095752 286.729831 
L 237.798731 284.266749 
L 225.584576 280.328302 
L 205.856084 273.553522 
L 190.485905 268.37662 
L 182.874835 265.991677 
L 175.167593 263.761792 
L 158.648788 259.126322 
L 149.926067 256.315674 
L 145.508867 254.690409 
L 141.062919 252.878769 
L 136.602613 250.847886 
L 132.23865 248.618205 
L 127.972635 246.194053 
L 123.821204 243.587812 
L 119.777126 240.798059 
L 115.878218 237.851098 
L 112.089946 234.731039 
L 108.440032 231.452951 
L 104.946454 228.035477 
L 101.58539 224.457019 
L 98.406074 220.762349 
L 95.394872 216.949251 
L 92.559087 213.030506 
L 89.911748 209.039973 
L 87.433829 204.977586 
L 85.107719 200.833226 
L 82.952059 196.652699 
L 80.929047 192.400659 
L 79.049359 188.104161 
L 77.309295 183.780673 
L 75.694377 179.426331 
L 74.167157 174.950537 
L 72.767662 170.397589 
L 71.505207 165.759137 
L 70.392001 161.000117 
L 69.47 156.181931 
L 68.74792 151.260826 
L 68.259052 146.258507 
L 68.030901 141.182797 
L 68.090921 136.058421 
L 68.462854 130.882299 
L 69.155799 125.770845 
L 70.156543 120.722217 
L 71.446869 115.769416 
L 73.015007 110.903739 
L 74.854176 106.128458 
L 76.935807 101.49501 
L 79.251298 96.981696 
L 81.802197 92.576358 
L 84.575945 88.304915 
L 87.543958 84.202548 
L 90.713708 80.244132 
L 94.088818 76.431652 
L 97.621066 72.823284 
L 101.348471 69.370594 
L 105.25465 66.107518 
L 109.308636 63.066363 
L 113.519161 60.239408 
L 117.881814 57.640276 
L 122.409732 55.274824 
L 126.147302 53.568 
L 126.147302 53.568 
" style="fill:none;stroke:#ffffff;stroke-linecap:square;"/>
   </g>
   <g id="line2d_17">
    <path clip-path="url(#p70838f6f90)" d="M 259.880835 215.063339 
L 258.981135 211.959436 
L 258.283596 208.816207 
L 257.785406 205.635281 
L 257.483366 202.450862 
L 257.377825 199.233723 
L 257.464003 196.012432 
L 257.742641 192.781761 
L 258.203278 189.57897 
L 258.857217 186.369228 
L 259.682815 183.21242 
L 260.691511 180.085508 
L 261.863366 177.030287 
L 263.223197 174.005688 
L 264.718776 171.096136 
L 266.396139 168.240859 
L 268.214585 165.492743 
L 270.168576 162.862009 
L 272.273274 160.338626 
L 274.504778 157.946545 
L 276.875123 155.680002 
L 279.35619 153.562132 
L 281.991942 151.569446 
L 284.691681 149.753602 
L 287.47283 148.11211 
L 290.35364 146.640022 
L 293.268412 145.360833 
L 296.219935 144.277713 
L 299.168743 143.40167 
L 302.147947 142.731047 
L 305.12818 142.26845 
L 308.152877 142.017819 
L 311.263004 141.982395 
L 314.392485 142.152834 
L 317.561272 142.53376 
L 320.750428 143.121112 
L 323.940872 143.907962 
L 327.076926 144.872971 
L 330.173472 146.025987 
L 333.214757 147.357528 
L 336.165364 148.845529 
L 339.021195 150.48849 
L 341.80066 152.29872 
L 344.473307 154.245868 
L 347.080618 156.367275 
L 349.567921 158.602188 
L 351.97283 160.997328 
L 354.276165 163.521782 
L 356.456845 166.14854 
L 358.544491 168.925081 
L 360.516323 171.807089 
L 362.347424 174.753064 
L 364.028875 177.756159 
L 365.558251 180.824477 
L 366.913028 183.902879 
L 368.090942 187.002978 
L 369.078605 190.089657 
L 369.875803 193.175967 
L 370.476047 196.23338 
L 370.875107 199.255465 
L 371.071033 202.263902 
L 371.059013 205.284937 
L 370.828572 208.373917 
L 370.390285 211.483629 
L 369.742198 214.617513 
L 368.896044 217.741275 
L 367.844209 220.868423 
L 366.612801 223.947243 
L 365.194592 226.988234 
L 363.617151 229.945002 
L 361.875932 232.820996 
L 359.979855 235.607086 
L 357.943662 238.285945 
L 355.791506 240.832312 
L 353.488516 243.275774 
L 351.100929 245.5637 
L 348.584115 247.725753 
L 345.982896 249.733718 
L 343.280546 251.592717 
L 340.512111 253.2868 
L 337.655464 254.821518 
L 334.710987 256.196814 
L 331.614579 257.435919 
L 328.444784 258.522761 
L 325.161243 259.466886 
L 321.778473 260.271347 
L 318.322477 260.936699 
L 314.82211 261.464067 
L 311.236389 261.856143 
L 307.614564 262.120666 
L 303.967145 262.25968 
L 300.313842 262.278976 
L 296.638485 262.180412 
L 289.229849 261.651414 
L 281.775332 260.715052 
L 274.279475 259.415522 
L 266.737779 257.786038 
L 259.149063 255.868778 
L 251.553728 253.720929 
L 243.909365 251.367587 
L 232.322832 247.53837 
L 196.454793 235.413424 
L 188.118018 232.897929 
L 164.820842 226.267913 
L 157.962257 223.889912 
L 154.725422 222.595216 
L 151.619225 221.212452 
L 148.557882 219.679646 
L 145.548093 218.000776 
L 142.598141 216.180073 
L 139.731867 214.23557 
L 136.91976 212.140964 
L 134.212966 209.945367 
L 131.600372 207.633711 
L 129.088922 205.21227 
L 126.702433 202.710947 
L 124.416591 200.093277 
L 122.253334 197.394697 
L 120.197055 194.594121 
L 118.234725 191.674302 
L 116.368756 188.651916 
L 114.608456 185.553696 
L 112.926877 182.325528 
L 111.34521 179.035982 
L 109.852779 175.658003 
L 107.119675 168.646343 
L 105.906009 165.132043 
L 104.805485 161.603533 
L 103.833704 158.102388 
L 103.003374 154.655364 
L 102.322372 151.234285 
L 101.798596 147.882901 
L 101.440281 144.59612 
L 101.253146 141.38273 
L 101.242961 138.226311 
L 101.410899 135.146556 
L 101.781085 132.043662 
L 102.35012 128.927774 
L 103.119611 125.799118 
L 104.076409 122.691312 
L 105.218991 119.609389 
L 106.559313 116.535138 
L 108.072755 113.506865 
L 109.741158 110.553343 
L 111.568774 107.673568 
L 113.559271 104.865583 
L 115.680259 102.162818 
L 117.91981 99.5799 
L 120.301229 97.100182 
L 122.761579 94.772097 
L 125.308938 92.594931 
L 127.957661 90.561297 
L 130.665794 88.695524 
L 133.429442 87.000603 
L 136.21055 85.495594 
L 139.94812 83.78877 
L 139.94812 83.78877 
" style="fill:none;stroke:#ffffff;stroke-linecap:square;"/>
   </g>
   <g id="patch_3">
    <path d="M 57.6 307.584 
L 57.6 41.472 
" style="fill:none;stroke:#000000;stroke-linecap:square;stroke-linejoin:miter;stroke-width:0.8;"/>
   </g>
   <g id="patch_4">
    <path d="M 414.72 307.584 
L 414.72 41.472 
" style="fill:none;stroke:#000000;stroke-linecap:square;stroke-linejoin:miter;stroke-width:0.8;"/>
   </g>
   <g id="patch_5">
    <path d="M 57.6 307.584 
L 414.72 307.584 
" style="fill:none;stroke:#000000;stroke-linecap:square;stroke-linejoin:miter;stroke-width:0.8;"/>
   </g>
   <g id="patch_6">
    <path d="M 57.6 41.472 
L 414.72 41.472 
" style="fill:none;stroke:#000000;stroke-linecap:square;stroke-linejoin:miter;stroke-width:0.8;"/>
   </g>
  </g>
 </g>
 <defs>
  <clipPath id="p70838f6f90">
   <rect height="266.112" width="357.12" x="57.6" y="41.472"/>
  </clipPath>
 </defs>
</svg>
