<?xml version="1.0" encoding="utf-8" standalone="no"?>
<!DOCTYPE svg PUBLIC "-//W3C//DTD SVG 1.1//EN"
  "http://www.w3.org/Graphics/SVG/1.1/DTD/svg11.dtd">
<!-- Created with matplotlib (https://matplotlib.org/) -->
<svg height="345.6pt" version="1.1" viewBox="0 0 460.8 345.6" width="460.8pt" xmlns="http://www.w3.org/2000/svg" xmlns:xlink="http://www.w3.org/1999/xlink">
 <metadata>
  <rdf:RDF xmlns:cc="http://creativecommons.org/ns#" xmlns:dc="http://purl.org/dc/elements/1.1/" xmlns:rdf="http://www.w3.org/1999/02/22-rdf-syntax-ns#">
   <cc:Work>
    <dc:type rdf:resource="http://purl.org/dc/dcmitype/StillImage"/>
    <dc:date>2021-01-23T12:45:23.821700</dc:date>
    <dc:format>image/svg+xml</dc:format>
    <dc:creator>
     <cc:Agent>
      <dc:title>Matplotlib v3.3.3, https://matplotlib.org/</dc:title>
     </cc:Agent>
    </dc:creator>
   </cc:Work>
  </rdf:RDF>
 </metadata>
 <defs>
  <style type="text/css">*{stroke-linecap:butt;stroke-linejoin:round;}</style>
 </defs>
 <g id="figure_1">
  <g id="patch_1">
   <path d="M 0 345.6 
L 460.8 345.6 
L 460.8 0 
L 0 0 
z
" style="fill:#ffffff;"/>
  </g>
  <g id="axes_1">
   <g id="patch_2">
    <path d="M 57.6 307.584 
L 414.72 307.584 
L 414.72 41.472 
L 57.6 41.472 
z
" style="fill:#7d9051;"/>
   </g>
   <g id="matplotlib.axis_1">
    <g id="xtick_1">
     <g id="line2d_1">
      <defs>
       <path d="M 0 0 
L 0 3.5 
" id="m4a05963604" style="stroke:#000000;stroke-width:0.8;"/>
      </defs>
      <g>
       <use style="stroke:#000000;stroke-width:0.8;" x="93.269306" xlink:href="#m4a05963604" y="307.584"/>
      </g>
     </g>
     <g id="text_1">
      <!-- −20 -->
      <g transform="translate(82.716962 322.182437)scale(0.1 -0.1)">
       <defs>
        <path d="M 10.59375 35.5 
L 73.1875 35.5 
L 73.1875 27.203125 
L 10.59375 27.203125 
z
" id="DejaVuSans-8722"/>
        <path d="M 19.1875 8.296875 
L 53.609375 8.296875 
L 53.609375 0 
L 7.328125 0 
L 7.328125 8.296875 
Q 12.9375 14.109375 22.625 23.890625 
Q 32.328125 33.6875 34.8125 36.53125 
Q 39.546875 41.84375 41.421875 45.53125 
Q 43.3125 49.21875 43.3125 52.78125 
Q 43.3125 58.59375 39.234375 62.25 
Q 35.15625 65.921875 28.609375 65.921875 
Q 23.96875 65.921875 18.8125 64.3125 
Q 13.671875 62.703125 7.8125 59.421875 
L 7.8125 69.390625 
Q 13.765625 71.78125 18.9375 73 
Q 24.125 74.21875 28.421875 74.21875 
Q 39.75 74.21875 46.484375 68.546875 
Q 53.21875 62.890625 53.21875 53.421875 
Q 53.21875 48.921875 51.53125 44.890625 
Q 49.859375 40.875 45.40625 35.40625 
Q 44.1875 33.984375 37.640625 27.21875 
Q 31.109375 20.453125 19.1875 8.296875 
z
" id="DejaVuSans-50"/>
        <path d="M 31.78125 66.40625 
Q 24.171875 66.40625 20.328125 58.90625 
Q 16.5 51.421875 16.5 36.375 
Q 16.5 21.390625 20.328125 13.890625 
Q 24.171875 6.390625 31.78125 6.390625 
Q 39.453125 6.390625 43.28125 13.890625 
Q 47.125 21.390625 47.125 36.375 
Q 47.125 51.421875 43.28125 58.90625 
Q 39.453125 66.40625 31.78125 66.40625 
z
M 31.78125 74.21875 
Q 44.046875 74.21875 50.515625 64.515625 
Q 56.984375 54.828125 56.984375 36.375 
Q 56.984375 17.96875 50.515625 8.265625 
Q 44.046875 -1.421875 31.78125 -1.421875 
Q 19.53125 -1.421875 13.0625 8.265625 
Q 6.59375 17.96875 6.59375 36.375 
Q 6.59375 54.828125 13.0625 64.515625 
Q 19.53125 74.21875 31.78125 74.21875 
z
" id="DejaVuSans-48"/>
       </defs>
       <use xlink:href="#DejaVuSans-8722"/>
       <use x="83.789062" xlink:href="#DejaVuSans-50"/>
       <use x="147.412109" xlink:href="#DejaVuSans-48"/>
      </g>
     </g>
    </g>
    <g id="xtick_2">
     <g id="line2d_2">
      <g>
       <use style="stroke:#000000;stroke-width:0.8;" x="140.936181" xlink:href="#m4a05963604" y="307.584"/>
      </g>
     </g>
     <g id="text_2">
      <!-- 0 -->
      <g transform="translate(137.754931 322.182437)scale(0.1 -0.1)">
       <use xlink:href="#DejaVuSans-48"/>
      </g>
     </g>
    </g>
    <g id="xtick_3">
     <g id="line2d_3">
      <g>
       <use style="stroke:#000000;stroke-width:0.8;" x="188.603056" xlink:href="#m4a05963604" y="307.584"/>
      </g>
     </g>
     <g id="text_3">
      <!-- 20 -->
      <g transform="translate(182.240556 322.182437)scale(0.1 -0.1)">
       <use xlink:href="#DejaVuSans-50"/>
       <use x="63.623047" xlink:href="#DejaVuSans-48"/>
      </g>
     </g>
    </g>
    <g id="xtick_4">
     <g id="line2d_4">
      <g>
       <use style="stroke:#000000;stroke-width:0.8;" x="236.269931" xlink:href="#m4a05963604" y="307.584"/>
      </g>
     </g>
     <g id="text_4">
      <!-- 40 -->
      <g transform="translate(229.907431 322.182437)scale(0.1 -0.1)">
       <defs>
        <path d="M 37.796875 64.3125 
L 12.890625 25.390625 
L 37.796875 25.390625 
z
M 35.203125 72.90625 
L 47.609375 72.90625 
L 47.609375 25.390625 
L 58.015625 25.390625 
L 58.015625 17.1875 
L 47.609375 17.1875 
L 47.609375 0 
L 37.796875 0 
L 37.796875 17.1875 
L 4.890625 17.1875 
L 4.890625 26.703125 
z
" id="DejaVuSans-52"/>
       </defs>
       <use xlink:href="#DejaVuSans-52"/>
       <use x="63.623047" xlink:href="#DejaVuSans-48"/>
      </g>
     </g>
    </g>
    <g id="xtick_5">
     <g id="line2d_5">
      <g>
       <use style="stroke:#000000;stroke-width:0.8;" x="283.936807" xlink:href="#m4a05963604" y="307.584"/>
      </g>
     </g>
     <g id="text_5">
      <!-- 60 -->
      <g transform="translate(277.574307 322.182437)scale(0.1 -0.1)">
       <defs>
        <path d="M 33.015625 40.375 
Q 26.375 40.375 22.484375 35.828125 
Q 18.609375 31.296875 18.609375 23.390625 
Q 18.609375 15.53125 22.484375 10.953125 
Q 26.375 6.390625 33.015625 6.390625 
Q 39.65625 6.390625 43.53125 10.953125 
Q 47.40625 15.53125 47.40625 23.390625 
Q 47.40625 31.296875 43.53125 35.828125 
Q 39.65625 40.375 33.015625 40.375 
z
M 52.59375 71.296875 
L 52.59375 62.3125 
Q 48.875 64.0625 45.09375 64.984375 
Q 41.3125 65.921875 37.59375 65.921875 
Q 27.828125 65.921875 22.671875 59.328125 
Q 17.53125 52.734375 16.796875 39.40625 
Q 19.671875 43.65625 24.015625 45.921875 
Q 28.375 48.1875 33.59375 48.1875 
Q 44.578125 48.1875 50.953125 41.515625 
Q 57.328125 34.859375 57.328125 23.390625 
Q 57.328125 12.15625 50.6875 5.359375 
Q 44.046875 -1.421875 33.015625 -1.421875 
Q 20.359375 -1.421875 13.671875 8.265625 
Q 6.984375 17.96875 6.984375 36.375 
Q 6.984375 53.65625 15.1875 63.9375 
Q 23.390625 74.21875 37.203125 74.21875 
Q 40.921875 74.21875 44.703125 73.484375 
Q 48.484375 72.75 52.59375 71.296875 
z
" id="DejaVuSans-54"/>
       </defs>
       <use xlink:href="#DejaVuSans-54"/>
       <use x="63.623047" xlink:href="#DejaVuSans-48"/>
      </g>
     </g>
    </g>
    <g id="xtick_6">
     <g id="line2d_6">
      <g>
       <use style="stroke:#000000;stroke-width:0.8;" x="331.603682" xlink:href="#m4a05963604" y="307.584"/>
      </g>
     </g>
     <g id="text_6">
      <!-- 80 -->
      <g transform="translate(325.241182 322.182437)scale(0.1 -0.1)">
       <defs>
        <path d="M 31.78125 34.625 
Q 24.75 34.625 20.71875 30.859375 
Q 16.703125 27.09375 16.703125 20.515625 
Q 16.703125 13.921875 20.71875 10.15625 
Q 24.75 6.390625 31.78125 6.390625 
Q 38.8125 6.390625 42.859375 10.171875 
Q 46.921875 13.96875 46.921875 20.515625 
Q 46.921875 27.09375 42.890625 30.859375 
Q 38.875 34.625 31.78125 34.625 
z
M 21.921875 38.8125 
Q 15.578125 40.375 12.03125 44.71875 
Q 8.5 49.078125 8.5 55.328125 
Q 8.5 64.0625 14.71875 69.140625 
Q 20.953125 74.21875 31.78125 74.21875 
Q 42.671875 74.21875 48.875 69.140625 
Q 55.078125 64.0625 55.078125 55.328125 
Q 55.078125 49.078125 51.53125 44.71875 
Q 48 40.375 41.703125 38.8125 
Q 48.828125 37.15625 52.796875 32.3125 
Q 56.78125 27.484375 56.78125 20.515625 
Q 56.78125 9.90625 50.3125 4.234375 
Q 43.84375 -1.421875 31.78125 -1.421875 
Q 19.734375 -1.421875 13.25 4.234375 
Q 6.78125 9.90625 6.78125 20.515625 
Q 6.78125 27.484375 10.78125 32.3125 
Q 14.796875 37.15625 21.921875 38.8125 
z
M 18.3125 54.390625 
Q 18.3125 48.734375 21.84375 45.5625 
Q 25.390625 42.390625 31.78125 42.390625 
Q 38.140625 42.390625 41.71875 45.5625 
Q 45.3125 48.734375 45.3125 54.390625 
Q 45.3125 60.0625 41.71875 63.234375 
Q 38.140625 66.40625 31.78125 66.40625 
Q 25.390625 66.40625 21.84375 63.234375 
Q 18.3125 60.0625 18.3125 54.390625 
z
" id="DejaVuSans-56"/>
       </defs>
       <use xlink:href="#DejaVuSans-56"/>
       <use x="63.623047" xlink:href="#DejaVuSans-48"/>
      </g>
     </g>
    </g>
    <g id="xtick_7">
     <g id="line2d_7">
      <g>
       <use style="stroke:#000000;stroke-width:0.8;" x="379.270557" xlink:href="#m4a05963604" y="307.584"/>
      </g>
     </g>
     <g id="text_7">
      <!-- 100 -->
      <g transform="translate(369.726807 322.182437)scale(0.1 -0.1)">
       <defs>
        <path d="M 12.40625 8.296875 
L 28.515625 8.296875 
L 28.515625 63.921875 
L 10.984375 60.40625 
L 10.984375 69.390625 
L 28.421875 72.90625 
L 38.28125 72.90625 
L 38.28125 8.296875 
L 54.390625 8.296875 
L 54.390625 0 
L 12.40625 0 
z
" id="DejaVuSans-49"/>
       </defs>
       <use xlink:href="#DejaVuSans-49"/>
       <use x="63.623047" xlink:href="#DejaVuSans-48"/>
       <use x="127.246094" xlink:href="#DejaVuSans-48"/>
      </g>
     </g>
    </g>
   </g>
   <g id="matplotlib.axis_2">
    <g id="ytick_1">
     <g id="line2d_8">
      <defs>
       <path d="M 0 0 
L -3.5 0 
" id="mbd247e9e14" style="stroke:#000000;stroke-width:0.8;"/>
      </defs>
      <g>
       <use style="stroke:#000000;stroke-width:0.8;" x="57.6" xlink:href="#mbd247e9e14" y="262.552242"/>
      </g>
     </g>
     <g id="text_8">
      <!-- 20 -->
      <g transform="translate(37.875 266.351461)scale(0.1 -0.1)">
       <use xlink:href="#DejaVuSans-50"/>
       <use x="63.623047" xlink:href="#DejaVuSans-48"/>
      </g>
     </g>
    </g>
    <g id="ytick_2">
     <g id="line2d_9">
      <g>
       <use style="stroke:#000000;stroke-width:0.8;" x="57.6" xlink:href="#mbd247e9e14" y="214.885367"/>
      </g>
     </g>
     <g id="text_9">
      <!-- 40 -->
      <g transform="translate(37.875 218.684586)scale(0.1 -0.1)">
       <use xlink:href="#DejaVuSans-52"/>
       <use x="63.623047" xlink:href="#DejaVuSans-48"/>
      </g>
     </g>
    </g>
    <g id="ytick_3">
     <g id="line2d_10">
      <g>
       <use style="stroke:#000000;stroke-width:0.8;" x="57.6" xlink:href="#mbd247e9e14" y="167.218492"/>
      </g>
     </g>
     <g id="text_10">
      <!-- 60 -->
      <g transform="translate(37.875 171.01771)scale(0.1 -0.1)">
       <use xlink:href="#DejaVuSans-54"/>
       <use x="63.623047" xlink:href="#DejaVuSans-48"/>
      </g>
     </g>
    </g>
    <g id="ytick_4">
     <g id="line2d_11">
      <g>
       <use style="stroke:#000000;stroke-width:0.8;" x="57.6" xlink:href="#mbd247e9e14" y="119.551616"/>
      </g>
     </g>
     <g id="text_11">
      <!-- 80 -->
      <g transform="translate(37.875 123.350835)scale(0.1 -0.1)">
       <use xlink:href="#DejaVuSans-56"/>
       <use x="63.623047" xlink:href="#DejaVuSans-48"/>
      </g>
     </g>
    </g>
    <g id="ytick_5">
     <g id="line2d_12">
      <g>
       <use style="stroke:#000000;stroke-width:0.8;" x="57.6" xlink:href="#mbd247e9e14" y="71.884741"/>
      </g>
     </g>
     <g id="text_12">
      <!-- 100 -->
      <g transform="translate(31.5125 75.68396)scale(0.1 -0.1)">
       <use xlink:href="#DejaVuSans-49"/>
       <use x="63.623047" xlink:href="#DejaVuSans-48"/>
       <use x="127.246094" xlink:href="#DejaVuSans-48"/>
      </g>
     </g>
    </g>
   </g>
   <g id="line2d_13">
    <path clip-path="url(#p7fec653245)" d="M 164.769619 286.38568 
L 167.157729 285.642076 
L 169.467189 284.779306 
L 171.697999 283.804518 
L 173.854925 282.720097 
L 175.935584 281.535575 
L 177.944743 280.253336 
L 181.750943 277.421924 
L 185.290208 274.266377 
L 188.576839 270.827212 
L 191.625136 267.152095 
L 194.447015 263.279162 
L 197.061543 259.253694 
L 199.478254 255.113826 
L 202.803018 248.783665 
L 209.221363 236.016093 
L 211.559423 231.830941 
L 214.092918 227.73874 
L 216.848063 223.796689 
L 219.841543 220.061989 
L 223.10434 216.594224 
L 224.839415 214.978317 
L 228.528831 211.994371 
L 232.456581 209.308342 
L 236.570233 206.858265 
L 240.807818 204.591705 
L 247.276213 201.409941 
L 255.868167 197.236706 
L 260.077152 195.020197 
L 264.186037 192.617786 
L 268.161454 189.957974 
L 271.962888 187.009778 
L 275.53552 183.782731 
L 278.829301 180.283982 
L 281.789414 176.527832 
L 283.12647 174.554424 
L 284.365808 172.519048 
L 286.560868 168.290996 
L 288.431793 163.891344 
L 290.038167 159.370141 
L 291.439573 154.775054 
L 293.281897 147.846674 
L 295.46504 138.587383 
L 299.623975 119.870984 
L 300.393795 115.14243 
L 300.815647 110.404343 
L 300.858547 108.030533 
L 300.765597 105.654339 
L 300.524879 103.280529 
L 300.136394 100.911485 
L 299.607292 98.561508 
L 298.939956 96.237748 
L 298.141535 93.949738 
L 297.216798 91.707011 
L 296.17051 89.516718 
L 295.005055 87.388392 
L 293.727583 85.33395 
L 292.340477 83.358158 
L 290.85327 81.472933 
L 289.268347 79.675892 
L 287.590473 77.969418 
L 285.826798 76.348744 
L 283.984473 74.816254 
L 280.080556 72.008675 
L 275.924005 69.537148 
L 271.560102 67.401672 
L 267.031749 65.628464 
L 264.722289 64.896777 
L 262.384229 64.277108 
L 260.029485 63.781372 
L 257.660442 63.411954 
L 255.281865 63.183153 
L 252.898521 63.097353 
L 250.519944 63.16647 
L 248.146133 63.392887 
L 245.786623 63.771839 
L 243.448563 64.298558 
L 241.134336 64.961128 
L 238.853476 65.757164 
L 236.613133 66.674752 
L 234.418073 67.711506 
L 232.273064 68.855511 
L 230.187638 70.099617 
L 228.166563 71.436673 
L 224.336529 74.370569 
L 220.79488 77.616683 
L 217.546383 81.139265 
L 214.591037 84.907331 
L 211.933608 88.887516 
L 209.576481 93.048834 
L 207.507739 97.360303 
L 205.715464 101.798089 
L 204.185358 106.335975 
L 202.905502 110.945362 
L 201.859214 115.602416 
L 201.027427 120.299986 
L 200.388691 125.02854 
L 199.926322 129.780928 
L 199.506854 136.938109 
L 199.359087 144.107207 
L 199.46157 153.642966 
L 199.595038 158.383436 
L 199.595038 158.383436 
" style="fill:none;stroke:#fea952;stroke-linecap:square;"/>
   </g>
   <g id="line2d_14">
    <path clip-path="url(#p7fec653245)" d="M 161.935363 277.283359 
L 165.64995 276.043522 
L 169.138339 274.435228 
L 172.43349 272.474433 
L 175.562498 270.170139 
L 178.525249 267.549192 
L 181.345291 264.615131 
L 184.001855 261.427515 
L 186.516224 257.988813 
L 188.880899 254.358564 
L 191.104949 250.556084 
L 194.268485 244.535491 
L 200.851693 231.451681 
L 203.392964 226.912183 
L 206.19568 222.398433 
L 209.30403 217.96807 
L 212.761604 213.677657 
L 214.63545 211.612442 
L 216.60706 209.617793 
L 218.681834 207.700306 
L 220.821053 205.902632 
L 225.222412 202.657719 
L 229.726743 199.801467 
L 234.263095 197.254773 
L 240.976516 193.862973 
L 253.463095 187.754578 
L 257.224192 185.682906 
L 260.758926 183.490488 
L 264.112195 181.089801 
L 267.251073 178.486477 
L 270.142917 175.679827 
L 272.733653 172.709257 
L 274.983811 169.596365 
L 276.955877 166.215047 
L 278.696891 162.532024 
L 280.239487 158.569605 
L 281.615836 154.38463 
L 283.455338 147.81031 
L 285.641417 138.785736 
L 290.237482 118.203958 
L 290.918265 114.09383 
L 291.283829 110.232081 
L 291.280863 106.616144 
L 291.117155 104.823244 
L 290.444278 101.192937 
L 289.327979 97.583808 
L 287.808729 94.095566 
L 285.925062 90.811715 
L 283.703401 87.778852 
L 281.13995 84.989104 
L 278.244799 82.428178 
L 275.038029 80.099297 
L 271.570917 78.018649 
L 267.900712 76.204745 
L 264.152424 74.716628 
L 260.420254 73.60599 
L 256.747617 72.901527 
L 253.175426 72.626705 
L 251.425143 72.656773 
L 249.657878 72.805638 
L 247.881797 73.072134 
L 244.275729 73.962066 
L 240.684582 75.294992 
L 237.157289 77.042671 
L 233.798953 79.128318 
L 230.623666 81.536959 
L 227.667399 84.22378 
L 224.927344 87.173058 
L 222.421094 90.345662 
L 220.143413 93.733581 
L 218.101489 97.31609 
L 216.292246 101.064041 
L 214.706046 104.969001 
L 213.337823 109.003862 
L 212.179935 113.152201 
L 211.22844 117.363906 
L 210.463073 121.661538 
L 209.869528 126.028026 
L 209.26975 132.71573 
L 208.962063 139.518852 
L 208.892157 146.419129 
L 209.052565 155.72889 
L 209.124065 158.09555 
L 209.124065 158.09555 
" style="fill:none;stroke:#ffffff;stroke-linecap:square;"/>
   </g>
   <g id="line2d_15">
    <path clip-path="url(#p7fec653245)" d="M 167.603874 295.488 
L 170.494008 294.572613 
L 173.284428 293.51509 
L 175.980267 292.321996 
L 178.571511 291.004966 
L 181.064301 289.571837 
L 183.455995 288.032239 
L 185.74859 286.395387 
L 187.939388 284.673709 
L 190.052414 282.858715 
L 193.982557 279.032569 
L 197.572312 274.977182 
L 200.84734 270.74084 
L 203.837416 266.376237 
L 206.578601 261.911072 
L 209.065213 257.439324 
L 212.411424 250.874336 
L 217.591033 240.580505 
L 219.725883 236.749699 
L 221.990156 233.079046 
L 224.392097 229.625308 
L 226.921482 226.446322 
L 229.601621 223.570655 
L 232.480459 220.989023 
L 235.710567 218.580644 
L 239.261937 216.312707 
L 243.091123 214.154681 
L 249.252525 211.039952 
L 262.506058 204.540458 
L 267.067597 202.012277 
L 271.626699 199.156772 
L 276.062197 195.947069 
L 280.311684 192.377532 
L 282.337763 190.462156 
L 284.298171 188.453619 
L 286.180181 186.354386 
L 287.975629 184.164524 
L 289.681845 181.87524 
L 291.269128 179.512483 
L 292.732563 177.088803 
L 294.058983 174.642664 
L 296.369654 169.688449 
L 298.287673 164.718096 
L 299.904804 159.774864 
L 301.935852 152.501957 
L 304.230459 143.027017 
L 308.495746 124.108663 
L 309.474044 118.905162 
L 310.167755 113.414524 
L 310.347466 110.576605 
L 310.384637 107.657897 
L 310.25033 104.692534 
L 309.932603 101.737813 
L 309.436945 98.817446 
L 308.770305 95.930078 
L 307.941031 93.096747 
L 306.955092 90.315668 
L 305.819082 87.597759 
L 304.532292 84.93787 
L 303.100928 82.3543 
L 301.530104 79.856185 
L 299.825238 77.453618 
L 298.003139 75.167014 
L 296.066185 72.991984 
L 294.040995 70.949731 
L 291.923386 69.019565 
L 289.724148 67.20433 
L 287.455991 65.506234 
L 285.123083 63.918053 
L 282.731428 62.437223 
L 280.277093 61.055646 
L 275.219493 58.598598 
L 272.603582 57.520069 
L 269.911075 56.5403 
L 267.164649 55.681566 
L 264.348204 54.948226 
L 261.498327 54.361832 
L 258.573266 53.922381 
L 255.624844 53.65595 
L 252.621616 53.568 
L 249.614744 53.676167 
L 246.634389 53.980137 
L 243.69145 54.471544 
L 240.824557 55.133416 
L 237.992943 55.960189 
L 235.240173 56.935074 
L 232.541684 58.054511 
L 229.931779 59.299705 
L 227.388838 60.668352 
L 224.927635 62.148667 
L 222.534172 63.745027 
L 220.256936 65.423662 
L 218.049392 67.204178 
L 215.937049 69.069359 
L 213.922362 71.009586 
L 211.992682 73.028656 
L 208.411853 77.262861 
L 205.200869 81.726507 
L 202.34046 86.396962 
L 199.843505 91.206719 
L 197.685448 96.129262 
L 195.844468 101.134439 
L 194.297879 106.200791 
L 193.025406 111.296985 
L 192.013861 116.384984 
L 191.227881 121.471204 
L 190.642749 126.555541 
L 190.234926 131.612813 
L 189.89911 139.138354 
L 189.826016 146.571506 
L 189.99451 156.304662 
L 190.06601 158.671322 
L 190.06601 158.671322 
" style="fill:none;stroke:#ffffff;stroke-linecap:square;"/>
   </g>
   <g id="patch_3">
    <path d="M 57.6 307.584 
L 57.6 41.472 
" style="fill:none;stroke:#000000;stroke-linecap:square;stroke-linejoin:miter;stroke-width:0.8;"/>
   </g>
   <g id="patch_4">
    <path d="M 414.72 307.584 
L 414.72 41.472 
" style="fill:none;stroke:#000000;stroke-linecap:square;stroke-linejoin:miter;stroke-width:0.8;"/>
   </g>
   <g id="patch_5">
    <path d="M 57.6 307.584 
L 414.72 307.584 
" style="fill:none;stroke:#000000;stroke-linecap:square;stroke-linejoin:miter;stroke-width:0.8;"/>
   </g>
   <g id="patch_6">
    <path d="M 57.6 41.472 
L 414.72 41.472 
" style="fill:none;stroke:#000000;stroke-linecap:square;stroke-linejoin:miter;stroke-width:0.8;"/>
   </g>
  </g>
 </g>
 <defs>
  <clipPath id="p7fec653245">
   <rect height="266.112" width="357.12" x="57.6" y="41.472"/>
  </clipPath>
 </defs>
</svg>
