<?xml version="1.0" encoding="utf-8" standalone="no"?>
<!DOCTYPE svg PUBLIC "-//W3C//DTD SVG 1.1//EN"
  "http://www.w3.org/Graphics/SVG/1.1/DTD/svg11.dtd">
<!-- Created with matplotlib (https://matplotlib.org/) -->
<svg height="345.6pt" version="1.1" viewBox="0 0 460.8 345.6" width="460.8pt" xmlns="http://www.w3.org/2000/svg" xmlns:xlink="http://www.w3.org/1999/xlink">
 <metadata>
  <rdf:RDF xmlns:cc="http://creativecommons.org/ns#" xmlns:dc="http://purl.org/dc/elements/1.1/" xmlns:rdf="http://www.w3.org/1999/02/22-rdf-syntax-ns#">
   <cc:Work>
    <dc:type rdf:resource="http://purl.org/dc/dcmitype/StillImage"/>
    <dc:date>2021-01-23T12:13:54.058548</dc:date>
    <dc:format>image/svg+xml</dc:format>
    <dc:creator>
     <cc:Agent>
      <dc:title>Matplotlib v3.3.3, https://matplotlib.org/</dc:title>
     </cc:Agent>
    </dc:creator>
   </cc:Work>
  </rdf:RDF>
 </metadata>
 <defs>
  <style type="text/css">*{stroke-linecap:butt;stroke-linejoin:round;}</style>
 </defs>
 <g id="figure_1">
  <g id="patch_1">
   <path d="M 0 345.6 
L 460.8 345.6 
L 460.8 0 
L 0 0 
z
" style="fill:#ffffff;"/>
  </g>
  <g id="axes_1">
   <g id="patch_2">
    <path d="M 57.6 307.584 
L 414.72 307.584 
L 414.72 41.472 
L 57.6 41.472 
z
" style="fill:#7d9051;"/>
   </g>
   <g id="matplotlib.axis_1">
    <g id="xtick_1">
     <g id="line2d_1">
      <defs>
       <path d="M 0 0 
L 0 3.5 
" id="m8dd44a1728" style="stroke:#000000;stroke-width:0.8;"/>
      </defs>
      <g>
       <use style="stroke:#000000;stroke-width:0.8;" x="106.905967" xlink:href="#m8dd44a1728" y="307.584"/>
      </g>
     </g>
     <g id="text_1">
      <!-- 20 -->
      <g transform="translate(100.543467 322.182437)scale(0.1 -0.1)">
       <defs>
        <path d="M 19.1875 8.296875 
L 53.609375 8.296875 
L 53.609375 0 
L 7.328125 0 
L 7.328125 8.296875 
Q 12.9375 14.109375 22.625 23.890625 
Q 32.328125 33.6875 34.8125 36.53125 
Q 39.546875 41.84375 41.421875 45.53125 
Q 43.3125 49.21875 43.3125 52.78125 
Q 43.3125 58.59375 39.234375 62.25 
Q 35.15625 65.921875 28.609375 65.921875 
Q 23.96875 65.921875 18.8125 64.3125 
Q 13.671875 62.703125 7.8125 59.421875 
L 7.8125 69.390625 
Q 13.765625 71.78125 18.9375 73 
Q 24.125 74.21875 28.421875 74.21875 
Q 39.75 74.21875 46.484375 68.546875 
Q 53.21875 62.890625 53.21875 53.421875 
Q 53.21875 48.921875 51.53125 44.890625 
Q 49.859375 40.875 45.40625 35.40625 
Q 44.1875 33.984375 37.640625 27.21875 
Q 31.109375 20.453125 19.1875 8.296875 
z
" id="DejaVuSans-50"/>
        <path d="M 31.78125 66.40625 
Q 24.171875 66.40625 20.328125 58.90625 
Q 16.5 51.421875 16.5 36.375 
Q 16.5 21.390625 20.328125 13.890625 
Q 24.171875 6.390625 31.78125 6.390625 
Q 39.453125 6.390625 43.28125 13.890625 
Q 47.125 21.390625 47.125 36.375 
Q 47.125 51.421875 43.28125 58.90625 
Q 39.453125 66.40625 31.78125 66.40625 
z
M 31.78125 74.21875 
Q 44.046875 74.21875 50.515625 64.515625 
Q 56.984375 54.828125 56.984375 36.375 
Q 56.984375 17.96875 50.515625 8.265625 
Q 44.046875 -1.421875 31.78125 -1.421875 
Q 19.53125 -1.421875 13.0625 8.265625 
Q 6.59375 17.96875 6.59375 36.375 
Q 6.59375 54.828125 13.0625 64.515625 
Q 19.53125 74.21875 31.78125 74.21875 
z
" id="DejaVuSans-48"/>
       </defs>
       <use xlink:href="#DejaVuSans-50"/>
       <use x="63.623047" xlink:href="#DejaVuSans-48"/>
      </g>
     </g>
    </g>
    <g id="xtick_2">
     <g id="line2d_2">
      <g>
       <use style="stroke:#000000;stroke-width:0.8;" x="164.809575" xlink:href="#m8dd44a1728" y="307.584"/>
      </g>
     </g>
     <g id="text_2">
      <!-- 40 -->
      <g transform="translate(158.447075 322.182437)scale(0.1 -0.1)">
       <defs>
        <path d="M 37.796875 64.3125 
L 12.890625 25.390625 
L 37.796875 25.390625 
z
M 35.203125 72.90625 
L 47.609375 72.90625 
L 47.609375 25.390625 
L 58.015625 25.390625 
L 58.015625 17.1875 
L 47.609375 17.1875 
L 47.609375 0 
L 37.796875 0 
L 37.796875 17.1875 
L 4.890625 17.1875 
L 4.890625 26.703125 
z
" id="DejaVuSans-52"/>
       </defs>
       <use xlink:href="#DejaVuSans-52"/>
       <use x="63.623047" xlink:href="#DejaVuSans-48"/>
      </g>
     </g>
    </g>
    <g id="xtick_3">
     <g id="line2d_3">
      <g>
       <use style="stroke:#000000;stroke-width:0.8;" x="222.713183" xlink:href="#m8dd44a1728" y="307.584"/>
      </g>
     </g>
     <g id="text_3">
      <!-- 60 -->
      <g transform="translate(216.350683 322.182437)scale(0.1 -0.1)">
       <defs>
        <path d="M 33.015625 40.375 
Q 26.375 40.375 22.484375 35.828125 
Q 18.609375 31.296875 18.609375 23.390625 
Q 18.609375 15.53125 22.484375 10.953125 
Q 26.375 6.390625 33.015625 6.390625 
Q 39.65625 6.390625 43.53125 10.953125 
Q 47.40625 15.53125 47.40625 23.390625 
Q 47.40625 31.296875 43.53125 35.828125 
Q 39.65625 40.375 33.015625 40.375 
z
M 52.59375 71.296875 
L 52.59375 62.3125 
Q 48.875 64.0625 45.09375 64.984375 
Q 41.3125 65.921875 37.59375 65.921875 
Q 27.828125 65.921875 22.671875 59.328125 
Q 17.53125 52.734375 16.796875 39.40625 
Q 19.671875 43.65625 24.015625 45.921875 
Q 28.375 48.1875 33.59375 48.1875 
Q 44.578125 48.1875 50.953125 41.515625 
Q 57.328125 34.859375 57.328125 23.390625 
Q 57.328125 12.15625 50.6875 5.359375 
Q 44.046875 -1.421875 33.015625 -1.421875 
Q 20.359375 -1.421875 13.671875 8.265625 
Q 6.984375 17.96875 6.984375 36.375 
Q 6.984375 53.65625 15.1875 63.9375 
Q 23.390625 74.21875 37.203125 74.21875 
Q 40.921875 74.21875 44.703125 73.484375 
Q 48.484375 72.75 52.59375 71.296875 
z
" id="DejaVuSans-54"/>
       </defs>
       <use xlink:href="#DejaVuSans-54"/>
       <use x="63.623047" xlink:href="#DejaVuSans-48"/>
      </g>
     </g>
    </g>
    <g id="xtick_4">
     <g id="line2d_4">
      <g>
       <use style="stroke:#000000;stroke-width:0.8;" x="280.61679" xlink:href="#m8dd44a1728" y="307.584"/>
      </g>
     </g>
     <g id="text_4">
      <!-- 80 -->
      <g transform="translate(274.25429 322.182437)scale(0.1 -0.1)">
       <defs>
        <path d="M 31.78125 34.625 
Q 24.75 34.625 20.71875 30.859375 
Q 16.703125 27.09375 16.703125 20.515625 
Q 16.703125 13.921875 20.71875 10.15625 
Q 24.75 6.390625 31.78125 6.390625 
Q 38.8125 6.390625 42.859375 10.171875 
Q 46.921875 13.96875 46.921875 20.515625 
Q 46.921875 27.09375 42.890625 30.859375 
Q 38.875 34.625 31.78125 34.625 
z
M 21.921875 38.8125 
Q 15.578125 40.375 12.03125 44.71875 
Q 8.5 49.078125 8.5 55.328125 
Q 8.5 64.0625 14.71875 69.140625 
Q 20.953125 74.21875 31.78125 74.21875 
Q 42.671875 74.21875 48.875 69.140625 
Q 55.078125 64.0625 55.078125 55.328125 
Q 55.078125 49.078125 51.53125 44.71875 
Q 48 40.375 41.703125 38.8125 
Q 48.828125 37.15625 52.796875 32.3125 
Q 56.78125 27.484375 56.78125 20.515625 
Q 56.78125 9.90625 50.3125 4.234375 
Q 43.84375 -1.421875 31.78125 -1.421875 
Q 19.734375 -1.421875 13.25 4.234375 
Q 6.78125 9.90625 6.78125 20.515625 
Q 6.78125 27.484375 10.78125 32.3125 
Q 14.796875 37.15625 21.921875 38.8125 
z
M 18.3125 54.390625 
Q 18.3125 48.734375 21.84375 45.5625 
Q 25.390625 42.390625 31.78125 42.390625 
Q 38.140625 42.390625 41.71875 45.5625 
Q 45.3125 48.734375 45.3125 54.390625 
Q 45.3125 60.0625 41.71875 63.234375 
Q 38.140625 66.40625 31.78125 66.40625 
Q 25.390625 66.40625 21.84375 63.234375 
Q 18.3125 60.0625 18.3125 54.390625 
z
" id="DejaVuSans-56"/>
       </defs>
       <use xlink:href="#DejaVuSans-56"/>
       <use x="63.623047" xlink:href="#DejaVuSans-48"/>
      </g>
     </g>
    </g>
    <g id="xtick_5">
     <g id="line2d_5">
      <g>
       <use style="stroke:#000000;stroke-width:0.8;" x="338.520398" xlink:href="#m8dd44a1728" y="307.584"/>
      </g>
     </g>
     <g id="text_5">
      <!-- 100 -->
      <g transform="translate(328.976648 322.182437)scale(0.1 -0.1)">
       <defs>
        <path d="M 12.40625 8.296875 
L 28.515625 8.296875 
L 28.515625 63.921875 
L 10.984375 60.40625 
L 10.984375 69.390625 
L 28.421875 72.90625 
L 38.28125 72.90625 
L 38.28125 8.296875 
L 54.390625 8.296875 
L 54.390625 0 
L 12.40625 0 
z
" id="DejaVuSans-49"/>
       </defs>
       <use xlink:href="#DejaVuSans-49"/>
       <use x="63.623047" xlink:href="#DejaVuSans-48"/>
       <use x="127.246094" xlink:href="#DejaVuSans-48"/>
      </g>
     </g>
    </g>
    <g id="xtick_6">
     <g id="line2d_6">
      <g>
       <use style="stroke:#000000;stroke-width:0.8;" x="396.424005" xlink:href="#m8dd44a1728" y="307.584"/>
      </g>
     </g>
     <g id="text_6">
      <!-- 120 -->
      <g transform="translate(386.880255 322.182437)scale(0.1 -0.1)">
       <use xlink:href="#DejaVuSans-49"/>
       <use x="63.623047" xlink:href="#DejaVuSans-50"/>
       <use x="127.246094" xlink:href="#DejaVuSans-48"/>
      </g>
     </g>
    </g>
   </g>
   <g id="matplotlib.axis_2">
    <g id="ytick_1">
     <g id="line2d_7">
      <defs>
       <path d="M 0 0 
L -3.5 0 
" id="m34bcfd3da1" style="stroke:#000000;stroke-width:0.8;"/>
      </defs>
      <g>
       <use style="stroke:#000000;stroke-width:0.8;" x="57.6" xlink:href="#m34bcfd3da1" y="266.373757"/>
      </g>
     </g>
     <g id="text_7">
      <!-- 20 -->
      <g transform="translate(37.875 270.172976)scale(0.1 -0.1)">
       <use xlink:href="#DejaVuSans-50"/>
       <use x="63.623047" xlink:href="#DejaVuSans-48"/>
      </g>
     </g>
    </g>
    <g id="ytick_2">
     <g id="line2d_8">
      <g>
       <use style="stroke:#000000;stroke-width:0.8;" x="57.6" xlink:href="#m34bcfd3da1" y="208.47015"/>
      </g>
     </g>
     <g id="text_8">
      <!-- 40 -->
      <g transform="translate(37.875 212.269368)scale(0.1 -0.1)">
       <use xlink:href="#DejaVuSans-52"/>
       <use x="63.623047" xlink:href="#DejaVuSans-48"/>
      </g>
     </g>
    </g>
    <g id="ytick_3">
     <g id="line2d_9">
      <g>
       <use style="stroke:#000000;stroke-width:0.8;" x="57.6" xlink:href="#m34bcfd3da1" y="150.566542"/>
      </g>
     </g>
     <g id="text_9">
      <!-- 60 -->
      <g transform="translate(37.875 154.365761)scale(0.1 -0.1)">
       <use xlink:href="#DejaVuSans-54"/>
       <use x="63.623047" xlink:href="#DejaVuSans-48"/>
      </g>
     </g>
    </g>
    <g id="ytick_4">
     <g id="line2d_10">
      <g>
       <use style="stroke:#000000;stroke-width:0.8;" x="57.6" xlink:href="#m34bcfd3da1" y="92.662934"/>
      </g>
     </g>
     <g id="text_10">
      <!-- 80 -->
      <g transform="translate(37.875 96.462153)scale(0.1 -0.1)">
       <use xlink:href="#DejaVuSans-56"/>
       <use x="63.623047" xlink:href="#DejaVuSans-48"/>
      </g>
     </g>
    </g>
   </g>
   <g id="line2d_11">
    <path clip-path="url(#p95161aa0db)" d="M 363.621612 295.325561 
L 363.485538 277.966059 
L 363.644773 266.373757 
L 363.960348 257.685321 
L 364.490166 249.01136 
L 365.266074 240.363457 
L 366.328605 231.7474 
L 367.674864 223.166085 
L 369.273004 214.625303 
L 371.094072 206.119263 
L 373.158336 197.665336 
L 374.713048 192.083429 
L 376.438575 186.553634 
L 378.366765 181.096219 
L 381.603577 173.033142 
L 384.886711 164.98454 
L 386.872805 159.547392 
L 388.534639 153.988645 
L 389.203425 151.154264 
L 389.750614 148.282245 
L 390.16752 145.387064 
L 390.454143 142.471618 
L 390.604693 139.547486 
L 390.607588 136.617563 
L 390.459934 133.696326 
L 390.158835 130.78667 
L 389.695606 127.900175 
L 389.064457 125.042632 
L 388.262492 122.222726 
L 387.295502 119.449143 
L 386.163486 116.733464 
L 384.878026 114.084374 
L 383.439121 111.516349 
L 381.855458 109.035179 
L 380.132825 106.655341 
L 378.277015 104.382625 
L 376.290921 102.231506 
L 374.18323 100.207775 
L 371.959731 98.323012 
L 369.626216 96.577218 
L 367.197159 94.964603 
L 364.681248 93.482271 
L 362.087166 92.130221 
L 359.426495 90.90556 
L 356.710816 89.799601 
L 353.945919 88.81524 
L 351.146279 87.949581 
L 345.477516 86.554104 
L 339.747954 85.581323 
L 333.974964 84.999392 
L 328.173023 84.767778 
L 322.359501 84.851738 
L 316.545979 85.213635 
L 310.755618 85.841889 
L 305.01158 86.756766 
L 299.337026 87.972742 
L 293.755119 89.504293 
L 288.291913 91.371684 
L 282.94162 93.540174 
L 277.672392 95.931593 
L 269.852509 99.764812 
L 259.415384 104.926919 
L 254.134575 107.35887 
L 248.787177 109.60553 
L 243.355819 111.594519 
L 237.823129 113.265038 
L 232.183318 114.559184 
L 226.45086 115.482746 
L 220.663395 116.058887 
L 214.844082 116.304977 
L 209.02477 116.244179 
L 203.231514 115.896757 
L 197.46721 115.303245 
L 191.728962 114.50128 
L 183.167914 112.989996 
L 174.661874 111.226831 
L 166.202157 109.258108 
L 157.794553 107.075142 
L 149.436167 104.672143 
L 141.150161 102.008577 
L 135.695641 100.045644 
L 130.316396 97.897421 
L 125.029797 95.540744 
L 119.856109 92.952452 
L 114.789544 90.147023 
L 109.8301 87.13893 
L 104.977777 83.951337 
L 100.229681 80.604508 
L 95.582917 77.112921 
L 88.793719 71.65261 
L 82.221659 65.978057 
L 77.954164 62.110096 
L 77.954164 62.110096 
" style="fill:none;stroke:#fea952;stroke-linecap:square;"/>
   </g>
   <g id="line2d_12">
    <path clip-path="url(#p95161aa0db)" d="M 352.042029 295.488 
L 351.905025 277.896646 
L 352.068908 266.038392 
L 352.395283 257.083336 
L 352.945629 248.096598 
L 353.757034 239.076948 
L 354.870378 230.067478 
L 356.272698 221.14032 
L 357.927973 212.300786 
L 359.814416 203.495818 
L 361.981413 194.633914 
L 363.629042 188.728145 
L 365.483839 182.797724 
L 367.567835 176.913372 
L 370.909576 168.588882 
L 374.056251 160.884024 
L 375.838757 156.031301 
L 377.263429 151.329146 
L 378.288126 146.631646 
L 378.88874 141.876171 
L 379.023977 139.536042 
L 379.041631 137.202165 
L 378.940725 134.888363 
L 378.72442 132.621681 
L 378.38743 130.397827 
L 377.92544 128.210504 
L 377.327312 126.0352 
L 376.606279 123.904885 
L 375.744615 121.789178 
L 374.775137 119.745181 
L 373.677364 117.747016 
L 372.474435 115.825579 
L 371.162718 113.979977 
L 369.768339 112.238549 
L 368.270186 110.585003 
L 366.695021 109.041791 
L 365.022348 107.595866 
L 363.220975 106.225327 
L 361.318477 104.942288 
L 359.328709 103.75181 
L 357.245061 102.650066 
L 352.826655 100.709523 
L 348.165215 99.140039 
L 343.334977 97.934905 
L 338.408251 97.084293 
L 333.351137 96.563299 
L 328.196092 96.348476 
L 322.947007 96.417547 
L 317.662954 96.740364 
L 312.438552 97.299675 
L 307.284966 98.112154 
L 302.230094 99.186273 
L 297.330096 100.519403 
L 292.510606 102.156662 
L 287.637465 104.126115 
L 282.679594 106.373865 
L 275.049996 110.113688 
L 264.334767 115.410848 
L 258.728464 117.989453 
L 252.911787 120.426838 
L 246.881974 122.625355 
L 240.604589 124.506772 
L 234.205103 125.962056 
L 227.766463 126.988497 
L 221.308329 127.621636 
L 214.867128 127.885676 
L 208.470088 127.811609 
L 202.166343 127.428388 
L 195.962441 126.785788 
L 189.855121 125.929396 
L 180.910109 124.348492 
L 172.137403 122.52905 
L 163.38797 120.491695 
L 154.692656 118.232711 
L 146.028005 115.740004 
L 140.224568 113.911048 
L 134.410162 111.91387 
L 128.593819 109.709623 
L 122.832765 107.274015 
L 117.135337 104.575087 
L 111.59015 101.647758 
L 106.196455 98.511314 
L 100.952558 95.191924 
L 95.844635 91.710105 
L 90.867556 88.082194 
L 86.037407 84.344658 
L 81.315314 80.494928 
L 74.486783 74.59692 
L 70.134591 70.652192 
L 70.134591 70.652192 
" style="fill:none;stroke:#ffffff;stroke-linecap:square;"/>
   </g>
   <g id="line2d_13">
    <path clip-path="url(#p95161aa0db)" d="M 375.201194 295.163122 
L 375.066052 278.035473 
L 375.220638 266.709122 
L 375.525412 258.287306 
L 376.034702 249.926123 
L 376.775114 241.649966 
L 377.786832 233.427322 
L 379.07703 225.191851 
L 380.618035 216.94982 
L 382.373729 208.742708 
L 384.335258 200.696758 
L 385.797053 195.438712 
L 387.393312 190.309544 
L 389.165696 185.279067 
L 392.297578 177.477402 
L 395.717172 169.085057 
L 397.906853 163.063482 
L 398.906196 159.902759 
L 399.805849 156.648144 
L 400.579514 153.321684 
L 401.213103 149.932843 
L 401.692679 146.520124 
L 402.019547 143.067064 
L 402.185409 139.558929 
L 402.173544 136.032961 
L 401.979142 132.504289 
L 401.59325 128.951658 
L 401.003782 125.402523 
L 400.203474 121.874759 
L 399.197671 118.410252 
L 397.984724 114.993401 
L 396.582357 111.67775 
L 394.980915 108.423567 
L 393.200879 105.285683 
L 391.23648 102.24478 
L 389.102933 99.330706 
L 386.785691 96.5267 
L 384.311656 93.878008 
L 381.671438 91.373759 
L 378.897114 89.050158 
L 376.031456 86.929109 
L 373.075842 84.986917 
L 370.033786 83.212731 
L 366.929271 81.610377 
L 363.794412 80.18015 
L 360.594977 78.889679 
L 357.366918 77.75134 
L 354.127344 76.759122 
L 350.874187 75.901161 
L 347.620056 75.173303 
L 344.350221 74.565302 
L 337.84713 73.706537 
L 331.376986 73.26622 
L 324.954941 73.197032 
L 318.60149 73.449999 
L 312.266754 73.996401 
L 305.917886 74.850918 
L 299.583193 76.037337 
L 293.296565 77.57684 
L 287.091972 79.497337 
L 281.124701 81.74376 
L 275.422568 84.20843 
L 267.290061 88.10275 
L 252.012133 95.60981 
L 247.091389 97.789333 
L 242.243953 99.710363 
L 237.434828 101.335581 
L 232.616795 102.630157 
L 227.663779 103.604999 
L 222.585485 104.27352 
L 217.422934 104.645104 
L 212.199388 104.733078 
L 206.958353 104.554389 
L 201.654711 104.123646 
L 196.296104 103.471742 
L 190.883065 102.628107 
L 182.676739 101.085448 
L 174.464732 99.317215 
L 166.300557 97.344581 
L 158.204906 95.16978 
L 150.210132 92.79409 
L 142.418269 90.180884 
L 137.395057 88.285556 
L 132.490266 86.222053 
L 127.724512 83.976013 
L 123.026551 81.506726 
L 118.397132 78.823858 
L 113.832157 75.941771 
L 109.339662 72.886272 
L 104.918986 69.669976 
L 98.403358 64.568236 
L 92.046449 59.200136 
L 85.773736 53.568 
L 85.773736 53.568 
" style="fill:none;stroke:#ffffff;stroke-linecap:square;"/>
   </g>
   <g id="patch_3">
    <path d="M 57.6 307.584 
L 57.6 41.472 
" style="fill:none;stroke:#000000;stroke-linecap:square;stroke-linejoin:miter;stroke-width:0.8;"/>
   </g>
   <g id="patch_4">
    <path d="M 414.72 307.584 
L 414.72 41.472 
" style="fill:none;stroke:#000000;stroke-linecap:square;stroke-linejoin:miter;stroke-width:0.8;"/>
   </g>
   <g id="patch_5">
    <path d="M 57.6 307.584 
L 414.72 307.584 
" style="fill:none;stroke:#000000;stroke-linecap:square;stroke-linejoin:miter;stroke-width:0.8;"/>
   </g>
   <g id="patch_6">
    <path d="M 57.6 41.472 
L 414.72 41.472 
" style="fill:none;stroke:#000000;stroke-linecap:square;stroke-linejoin:miter;stroke-width:0.8;"/>
   </g>
  </g>
 </g>
 <defs>
  <clipPath id="p95161aa0db">
   <rect height="266.112" width="357.12" x="57.6" y="41.472"/>
  </clipPath>
 </defs>
</svg>
