<?xml version="1.0" encoding="utf-8" standalone="no"?>
<!DOCTYPE svg PUBLIC "-//W3C//DTD SVG 1.1//EN"
  "http://www.w3.org/Graphics/SVG/1.1/DTD/svg11.dtd">
<!-- Created with matplotlib (https://matplotlib.org/) -->
<svg height="345.6pt" version="1.1" viewBox="0 0 460.8 345.6" width="460.8pt" xmlns="http://www.w3.org/2000/svg" xmlns:xlink="http://www.w3.org/1999/xlink">
 <metadata>
  <rdf:RDF xmlns:cc="http://creativecommons.org/ns#" xmlns:dc="http://purl.org/dc/elements/1.1/" xmlns:rdf="http://www.w3.org/1999/02/22-rdf-syntax-ns#">
   <cc:Work>
    <dc:type rdf:resource="http://purl.org/dc/dcmitype/StillImage"/>
    <dc:date>2021-01-23T11:25:26.035025</dc:date>
    <dc:format>image/svg+xml</dc:format>
    <dc:creator>
     <cc:Agent>
      <dc:title>Matplotlib v3.3.3, https://matplotlib.org/</dc:title>
     </cc:Agent>
    </dc:creator>
   </cc:Work>
  </rdf:RDF>
 </metadata>
 <defs>
  <style type="text/css">*{stroke-linecap:butt;stroke-linejoin:round;}</style>
 </defs>
 <g id="figure_1">
  <g id="patch_1">
   <path d="M 0 345.6 
L 460.8 345.6 
L 460.8 0 
L 0 0 
z
" style="fill:#ffffff;"/>
  </g>
  <g id="axes_1">
   <g id="patch_2">
    <path d="M 57.6 307.584 
L 414.72 307.584 
L 414.72 41.472 
L 57.6 41.472 
z
" style="fill:#7d9051;"/>
   </g>
   <g id="matplotlib.axis_1">
    <g id="xtick_1">
     <g id="line2d_1">
      <defs>
       <path d="M 0 0 
L 0 3.5 
" id="m23efda86ec" style="stroke:#000000;stroke-width:0.8;"/>
      </defs>
      <g>
       <use style="stroke:#000000;stroke-width:0.8;" x="82.628914" xlink:href="#m23efda86ec" y="307.584"/>
      </g>
     </g>
     <g id="text_1">
      <!-- 0 -->
      <g transform="translate(79.447664 322.182437)scale(0.1 -0.1)">
       <defs>
        <path d="M 31.78125 66.40625 
Q 24.171875 66.40625 20.328125 58.90625 
Q 16.5 51.421875 16.5 36.375 
Q 16.5 21.390625 20.328125 13.890625 
Q 24.171875 6.390625 31.78125 6.390625 
Q 39.453125 6.390625 43.28125 13.890625 
Q 47.125 21.390625 47.125 36.375 
Q 47.125 51.421875 43.28125 58.90625 
Q 39.453125 66.40625 31.78125 66.40625 
z
M 31.78125 74.21875 
Q 44.046875 74.21875 50.515625 64.515625 
Q 56.984375 54.828125 56.984375 36.375 
Q 56.984375 17.96875 50.515625 8.265625 
Q 44.046875 -1.421875 31.78125 -1.421875 
Q 19.53125 -1.421875 13.0625 8.265625 
Q 6.59375 17.96875 6.59375 36.375 
Q 6.59375 54.828125 13.0625 64.515625 
Q 19.53125 74.21875 31.78125 74.21875 
z
" id="DejaVuSans-48"/>
       </defs>
       <use xlink:href="#DejaVuSans-48"/>
      </g>
     </g>
    </g>
    <g id="xtick_2">
     <g id="line2d_2">
      <g>
       <use style="stroke:#000000;stroke-width:0.8;" x="136.351557" xlink:href="#m23efda86ec" y="307.584"/>
      </g>
     </g>
     <g id="text_2">
      <!-- 20 -->
      <g transform="translate(129.989057 322.182437)scale(0.1 -0.1)">
       <defs>
        <path d="M 19.1875 8.296875 
L 53.609375 8.296875 
L 53.609375 0 
L 7.328125 0 
L 7.328125 8.296875 
Q 12.9375 14.109375 22.625 23.890625 
Q 32.328125 33.6875 34.8125 36.53125 
Q 39.546875 41.84375 41.421875 45.53125 
Q 43.3125 49.21875 43.3125 52.78125 
Q 43.3125 58.59375 39.234375 62.25 
Q 35.15625 65.921875 28.609375 65.921875 
Q 23.96875 65.921875 18.8125 64.3125 
Q 13.671875 62.703125 7.8125 59.421875 
L 7.8125 69.390625 
Q 13.765625 71.78125 18.9375 73 
Q 24.125 74.21875 28.421875 74.21875 
Q 39.75 74.21875 46.484375 68.546875 
Q 53.21875 62.890625 53.21875 53.421875 
Q 53.21875 48.921875 51.53125 44.890625 
Q 49.859375 40.875 45.40625 35.40625 
Q 44.1875 33.984375 37.640625 27.21875 
Q 31.109375 20.453125 19.1875 8.296875 
z
" id="DejaVuSans-50"/>
       </defs>
       <use xlink:href="#DejaVuSans-50"/>
       <use x="63.623047" xlink:href="#DejaVuSans-48"/>
      </g>
     </g>
    </g>
    <g id="xtick_3">
     <g id="line2d_3">
      <g>
       <use style="stroke:#000000;stroke-width:0.8;" x="190.0742" xlink:href="#m23efda86ec" y="307.584"/>
      </g>
     </g>
     <g id="text_3">
      <!-- 40 -->
      <g transform="translate(183.7117 322.182437)scale(0.1 -0.1)">
       <defs>
        <path d="M 37.796875 64.3125 
L 12.890625 25.390625 
L 37.796875 25.390625 
z
M 35.203125 72.90625 
L 47.609375 72.90625 
L 47.609375 25.390625 
L 58.015625 25.390625 
L 58.015625 17.1875 
L 47.609375 17.1875 
L 47.609375 0 
L 37.796875 0 
L 37.796875 17.1875 
L 4.890625 17.1875 
L 4.890625 26.703125 
z
" id="DejaVuSans-52"/>
       </defs>
       <use xlink:href="#DejaVuSans-52"/>
       <use x="63.623047" xlink:href="#DejaVuSans-48"/>
      </g>
     </g>
    </g>
    <g id="xtick_4">
     <g id="line2d_4">
      <g>
       <use style="stroke:#000000;stroke-width:0.8;" x="243.796844" xlink:href="#m23efda86ec" y="307.584"/>
      </g>
     </g>
     <g id="text_4">
      <!-- 60 -->
      <g transform="translate(237.434344 322.182437)scale(0.1 -0.1)">
       <defs>
        <path d="M 33.015625 40.375 
Q 26.375 40.375 22.484375 35.828125 
Q 18.609375 31.296875 18.609375 23.390625 
Q 18.609375 15.53125 22.484375 10.953125 
Q 26.375 6.390625 33.015625 6.390625 
Q 39.65625 6.390625 43.53125 10.953125 
Q 47.40625 15.53125 47.40625 23.390625 
Q 47.40625 31.296875 43.53125 35.828125 
Q 39.65625 40.375 33.015625 40.375 
z
M 52.59375 71.296875 
L 52.59375 62.3125 
Q 48.875 64.0625 45.09375 64.984375 
Q 41.3125 65.921875 37.59375 65.921875 
Q 27.828125 65.921875 22.671875 59.328125 
Q 17.53125 52.734375 16.796875 39.40625 
Q 19.671875 43.65625 24.015625 45.921875 
Q 28.375 48.1875 33.59375 48.1875 
Q 44.578125 48.1875 50.953125 41.515625 
Q 57.328125 34.859375 57.328125 23.390625 
Q 57.328125 12.15625 50.6875 5.359375 
Q 44.046875 -1.421875 33.015625 -1.421875 
Q 20.359375 -1.421875 13.671875 8.265625 
Q 6.984375 17.96875 6.984375 36.375 
Q 6.984375 53.65625 15.1875 63.9375 
Q 23.390625 74.21875 37.203125 74.21875 
Q 40.921875 74.21875 44.703125 73.484375 
Q 48.484375 72.75 52.59375 71.296875 
z
" id="DejaVuSans-54"/>
       </defs>
       <use xlink:href="#DejaVuSans-54"/>
       <use x="63.623047" xlink:href="#DejaVuSans-48"/>
      </g>
     </g>
    </g>
    <g id="xtick_5">
     <g id="line2d_5">
      <g>
       <use style="stroke:#000000;stroke-width:0.8;" x="297.519487" xlink:href="#m23efda86ec" y="307.584"/>
      </g>
     </g>
     <g id="text_5">
      <!-- 80 -->
      <g transform="translate(291.156987 322.182437)scale(0.1 -0.1)">
       <defs>
        <path d="M 31.78125 34.625 
Q 24.75 34.625 20.71875 30.859375 
Q 16.703125 27.09375 16.703125 20.515625 
Q 16.703125 13.921875 20.71875 10.15625 
Q 24.75 6.390625 31.78125 6.390625 
Q 38.8125 6.390625 42.859375 10.171875 
Q 46.921875 13.96875 46.921875 20.515625 
Q 46.921875 27.09375 42.890625 30.859375 
Q 38.875 34.625 31.78125 34.625 
z
M 21.921875 38.8125 
Q 15.578125 40.375 12.03125 44.71875 
Q 8.5 49.078125 8.5 55.328125 
Q 8.5 64.0625 14.71875 69.140625 
Q 20.953125 74.21875 31.78125 74.21875 
Q 42.671875 74.21875 48.875 69.140625 
Q 55.078125 64.0625 55.078125 55.328125 
Q 55.078125 49.078125 51.53125 44.71875 
Q 48 40.375 41.703125 38.8125 
Q 48.828125 37.15625 52.796875 32.3125 
Q 56.78125 27.484375 56.78125 20.515625 
Q 56.78125 9.90625 50.3125 4.234375 
Q 43.84375 -1.421875 31.78125 -1.421875 
Q 19.734375 -1.421875 13.25 4.234375 
Q 6.78125 9.90625 6.78125 20.515625 
Q 6.78125 27.484375 10.78125 32.3125 
Q 14.796875 37.15625 21.921875 38.8125 
z
M 18.3125 54.390625 
Q 18.3125 48.734375 21.84375 45.5625 
Q 25.390625 42.390625 31.78125 42.390625 
Q 38.140625 42.390625 41.71875 45.5625 
Q 45.3125 48.734375 45.3125 54.390625 
Q 45.3125 60.0625 41.71875 63.234375 
Q 38.140625 66.40625 31.78125 66.40625 
Q 25.390625 66.40625 21.84375 63.234375 
Q 18.3125 60.0625 18.3125 54.390625 
z
" id="DejaVuSans-56"/>
       </defs>
       <use xlink:href="#DejaVuSans-56"/>
       <use x="63.623047" xlink:href="#DejaVuSans-48"/>
      </g>
     </g>
    </g>
    <g id="xtick_6">
     <g id="line2d_6">
      <g>
       <use style="stroke:#000000;stroke-width:0.8;" x="351.24213" xlink:href="#m23efda86ec" y="307.584"/>
      </g>
     </g>
     <g id="text_6">
      <!-- 100 -->
      <g transform="translate(341.69838 322.182437)scale(0.1 -0.1)">
       <defs>
        <path d="M 12.40625 8.296875 
L 28.515625 8.296875 
L 28.515625 63.921875 
L 10.984375 60.40625 
L 10.984375 69.390625 
L 28.421875 72.90625 
L 38.28125 72.90625 
L 38.28125 8.296875 
L 54.390625 8.296875 
L 54.390625 0 
L 12.40625 0 
z
" id="DejaVuSans-49"/>
       </defs>
       <use xlink:href="#DejaVuSans-49"/>
       <use x="63.623047" xlink:href="#DejaVuSans-48"/>
       <use x="127.246094" xlink:href="#DejaVuSans-48"/>
      </g>
     </g>
    </g>
    <g id="xtick_7">
     <g id="line2d_7">
      <g>
       <use style="stroke:#000000;stroke-width:0.8;" x="404.964774" xlink:href="#m23efda86ec" y="307.584"/>
      </g>
     </g>
     <g id="text_7">
      <!-- 120 -->
      <g transform="translate(395.421024 322.182437)scale(0.1 -0.1)">
       <use xlink:href="#DejaVuSans-49"/>
       <use x="63.623047" xlink:href="#DejaVuSans-50"/>
       <use x="127.246094" xlink:href="#DejaVuSans-48"/>
      </g>
     </g>
    </g>
   </g>
   <g id="matplotlib.axis_2">
    <g id="ytick_1">
     <g id="line2d_8">
      <defs>
       <path d="M 0 0 
L -3.5 0 
" id="m00be0f5737" style="stroke:#000000;stroke-width:0.8;"/>
      </defs>
      <g>
       <use style="stroke:#000000;stroke-width:0.8;" x="57.6" xlink:href="#m00be0f5737" y="267.93878"/>
      </g>
     </g>
     <g id="text_8">
      <!-- 20 -->
      <g transform="translate(37.875 271.737998)scale(0.1 -0.1)">
       <use xlink:href="#DejaVuSans-50"/>
       <use x="63.623047" xlink:href="#DejaVuSans-48"/>
      </g>
     </g>
    </g>
    <g id="ytick_2">
     <g id="line2d_9">
      <g>
       <use style="stroke:#000000;stroke-width:0.8;" x="57.6" xlink:href="#m00be0f5737" y="214.216136"/>
      </g>
     </g>
     <g id="text_9">
      <!-- 40 -->
      <g transform="translate(37.875 218.015355)scale(0.1 -0.1)">
       <use xlink:href="#DejaVuSans-52"/>
       <use x="63.623047" xlink:href="#DejaVuSans-48"/>
      </g>
     </g>
    </g>
    <g id="ytick_3">
     <g id="line2d_10">
      <g>
       <use style="stroke:#000000;stroke-width:0.8;" x="57.6" xlink:href="#m00be0f5737" y="160.493493"/>
      </g>
     </g>
     <g id="text_10">
      <!-- 60 -->
      <g transform="translate(37.875 164.292712)scale(0.1 -0.1)">
       <use xlink:href="#DejaVuSans-54"/>
       <use x="63.623047" xlink:href="#DejaVuSans-48"/>
      </g>
     </g>
    </g>
    <g id="ytick_4">
     <g id="line2d_11">
      <g>
       <use style="stroke:#000000;stroke-width:0.8;" x="57.6" xlink:href="#m00be0f5737" y="106.77085"/>
      </g>
     </g>
     <g id="text_11">
      <!-- 80 -->
      <g transform="translate(37.875 110.570068)scale(0.1 -0.1)">
       <use xlink:href="#DejaVuSans-56"/>
       <use x="63.623047" xlink:href="#DejaVuSans-48"/>
      </g>
     </g>
    </g>
    <g id="ytick_5">
     <g id="line2d_12">
      <g>
       <use style="stroke:#000000;stroke-width:0.8;" x="57.6" xlink:href="#m00be0f5737" y="53.048206"/>
      </g>
     </g>
     <g id="text_12">
      <!-- 100 -->
      <g transform="translate(31.5125 56.847425)scale(0.1 -0.1)">
       <use xlink:href="#DejaVuSans-49"/>
       <use x="63.623047" xlink:href="#DejaVuSans-48"/>
       <use x="127.246094" xlink:href="#DejaVuSans-48"/>
      </g>
     </g>
    </g>
   </g>
   <g id="line2d_13">
    <path clip-path="url(#p2ed4c5aae0)" d="M 109.490235 294.800101 
L 109.079257 286.838406 
L 108.97987 281.460769 
L 109.047023 276.056271 
L 109.304892 270.641029 
L 109.774965 265.241903 
L 110.478732 259.875011 
L 111.437681 254.564528 
L 112.678674 249.329256 
L 114.220514 244.193371 
L 116.082004 239.17299 
L 118.236282 234.268113 
L 120.594706 229.438447 
L 130.385657 210.254091 
L 133.705717 202.912892 
L 136.757163 195.453503 
L 139.53731 187.870552 
L 142.304026 180.284915 
L 144.353545 175.31557 
L 146.711969 170.488591 
L 148.046976 168.146283 
L 149.505546 165.857699 
L 151.082306 163.638954 
L 152.779941 161.500792 
L 154.587708 159.451274 
L 156.505607 157.503828 
L 158.525578 155.671886 
L 160.647622 153.963506 
L 162.866368 152.389432 
L 165.176441 150.965782 
L 167.575157 149.700614 
L 170.054457 148.601986 
L 172.606283 147.672584 
L 175.219889 146.909723 
L 177.87916 146.308029 
L 180.576037 145.867503 
L 183.294403 145.585459 
L 186.026199 145.461897 
L 188.760682 145.488759 
L 191.481734 145.666043 
L 194.17861 145.993751 
L 196.843253 146.466511 
L 199.472977 147.073577 
L 202.065094 147.806891 
L 207.149942 149.609285 
L 212.097798 151.790425 
L 216.911347 154.269725 
L 221.590589 156.963915 
L 226.151641 159.813901 
L 232.834738 164.305114 
L 254.920117 179.624126 
L 259.518775 182.401587 
L 264.246368 184.964157 
L 269.121698 187.255428 
L 274.142079 189.237793 
L 279.286022 190.876334 
L 284.540096 192.130758 
L 289.888185 192.968831 
L 292.590434 193.218641 
L 295.306114 193.352948 
L 298.027166 193.366378 
L 300.742846 193.256247 
L 303.450467 193.022553 
L 306.139285 192.659926 
L 308.803928 192.162991 
L 311.433652 191.534436 
L 314.025769 190.768889 
L 316.569536 189.863662 
L 319.056895 188.81607 
L 321.487844 187.631486 
L 323.857013 186.32334 
L 326.161714 184.894317 
L 328.399262 183.355164 
L 330.564285 181.713937 
L 332.654096 179.978696 
L 334.668695 178.157498 
L 338.453455 174.286782 
L 341.902449 170.166255 
L 345.06134 165.833524 
L 347.983852 161.326194 
L 350.726393 156.681871 
L 354.621285 149.531388 
L 357.065665 144.669488 
L 359.262921 139.716261 
L 360.232615 137.202041 
L 361.094863 134.655588 
L 361.838922 132.082273 
L 362.448674 129.474039 
L 362.908002 126.830885 
L 363.203477 124.152811 
L 363.34047 121.450562 
L 363.316294 118.732196 
L 363.13901 116.011144 
L 362.808615 113.298151 
L 362.330484 110.60396 
L 361.704615 107.942003 
L 360.936381 105.323024 
L 360.031155 102.757768 
L 358.988936 100.256979 
L 357.81241 97.828716 
L 356.515008 95.475664 
L 355.099416 93.192451 
L 353.576379 90.976392 
L 351.956641 88.822114 
L 348.453925 84.698902 
L 344.661107 80.793265 
L 340.648025 77.081031 
L 336.481834 73.540708 
L 330.099584 68.493466 
L 321.705421 62.132705 
L 321.705421 62.132705 
" style="fill:none;stroke:#fea952;stroke-linecap:square;"/>
   </g>
   <g id="line2d_14">
    <path clip-path="url(#p2ed4c5aae0)" d="M 98.76775 295.488 
L 98.338365 287.117948 
L 98.235427 281.418005 
L 98.310528 275.640871 
L 98.591699 269.821033 
L 99.105566 263.973513 
L 99.881551 258.101692 
L 100.947752 252.239385 
L 102.340277 246.403091 
L 104.085942 240.624708 
L 106.1929 234.971737 
L 108.545821 229.627006 
L 111.034372 224.534886 
L 120.64394 205.721561 
L 123.811693 198.72324 
L 126.709585 191.64679 
L 129.414861 184.267646 
L 132.320595 176.313012 
L 134.609628 170.787768 
L 135.924072 167.978374 
L 137.377182 165.168191 
L 138.986175 162.371617 
L 140.747344 159.63365 
L 142.667543 156.957886 
L 144.722054 154.393377 
L 146.932326 151.912042 
L 149.287542 149.544906 
L 151.787717 147.30253 
L 154.430624 145.200297 
L 157.229255 143.242419 
L 160.163883 141.462143 
L 163.222256 139.877318 
L 166.37747 138.506211 
L 169.59578 137.35843 
L 172.848742 136.430097 
L 176.147034 135.704037 
L 179.467191 135.180345 
L 182.808913 134.851905 
L 186.131739 134.717887 
L 189.459239 134.766962 
L 192.77781 134.999972 
L 196.055585 135.414439 
L 199.260044 135.997317 
L 202.39783 136.734808 
L 205.446756 137.608398 
L 208.421061 138.604109 
L 211.312751 139.703937 
L 216.885828 142.17171 
L 222.176437 144.903631 
L 227.214581 147.808829 
L 232.049512 150.832809 
L 238.994156 155.501339 
L 260.569262 170.484539 
L 264.769569 173.02747 
L 268.961245 175.309374 
L 273.239017 177.331085 
L 277.584667 179.059705 
L 281.979895 180.47499 
L 286.418907 181.551771 
L 290.87725 182.269922 
L 295.359147 182.60855 
L 299.818925 182.551516 
L 304.169479 182.097504 
L 308.390347 181.229913 
L 310.423507 180.646211 
L 312.399091 179.961527 
L 314.350235 179.157279 
L 318.194987 177.191727 
L 321.908438 174.792799 
L 325.448788 172.008223 
L 328.768838 168.904809 
L 331.85236 165.513894 
L 334.739775 161.821461 
L 337.463547 157.863583 
L 340.073501 153.640888 
L 343.856984 146.891421 
L 347.307271 140.172973 
L 349.238155 135.849871 
L 350.773145 131.671124 
L 351.862801 127.63442 
L 352.228279 125.65258 
L 352.472729 123.608807 
L 352.596366 121.546112 
L 352.594498 119.430753 
L 352.473281 117.31004 
L 352.22939 115.17562 
L 351.87116 113.063115 
L 351.394499 110.966304 
L 350.804199 108.898465 
L 350.113444 106.891035 
L 349.319585 104.941908 
L 348.40333 103.016598 
L 347.383204 101.137382 
L 344.988472 97.433385 
L 342.18395 93.835479 
L 338.997517 90.322044 
L 335.481707 86.890917 
L 331.693955 83.540179 
L 327.707721 80.260424 
L 321.485468 75.436533 
L 315.217685 70.69741 
L 315.217685 70.69741 
" style="fill:none;stroke:#ffffff;stroke-linecap:square;"/>
   </g>
   <g id="line2d_15">
    <path clip-path="url(#p2ed4c5aae0)" d="M 120.212721 294.112202 
L 119.820149 286.558863 
L 119.724314 281.503533 
L 119.783519 276.471671 
L 120.018085 271.461024 
L 120.444365 266.510293 
L 121.075913 261.648329 
L 121.92761 256.88967 
L 123.017071 252.25542 
L 124.355086 247.762034 
L 125.971107 243.374243 
L 127.926742 238.90922 
L 130.15504 234.342008 
L 140.127375 214.786622 
L 143.599741 207.102544 
L 146.804741 199.260216 
L 149.659758 191.473457 
L 152.287456 184.256817 
L 154.097461 179.843372 
L 156.046755 175.808991 
L 158.263748 172.081748 
L 159.497068 170.320021 
L 162.243091 166.990505 
L 163.723671 165.46275 
L 165.263439 164.041242 
L 166.864621 162.726715 
L 168.50348 161.536446 
L 170.188999 160.469421 
L 171.928059 159.52391 
L 173.731445 158.69776 
L 175.616786 157.986738 
L 177.591037 157.389348 
L 179.611286 156.91202 
L 181.684882 156.554662 
L 183.779893 156.319014 
L 185.920659 156.205908 
L 188.062124 156.210555 
L 190.185657 156.332115 
L 192.301635 156.573064 
L 194.426463 156.935705 
L 198.683432 158.005384 
L 202.987134 159.514634 
L 207.309768 161.409139 
L 211.646256 163.635819 
L 215.966597 166.119002 
L 220.253771 168.794994 
L 226.67532 173.10889 
L 246.840586 187.199673 
L 251.746116 190.290917 
L 256.875025 193.231267 
L 262.242258 195.937395 
L 267.840601 198.349565 
L 273.620686 200.396764 
L 276.592149 201.277677 
L 279.603875 202.049639 
L 282.661285 202.709745 
L 285.754127 203.250038 
L 288.899121 203.66774 
L 292.059702 203.950054 
L 295.253082 204.097345 
L 298.462541 204.102083 
L 301.666766 203.960978 
L 304.886528 203.670681 
L 308.109092 203.222348 
L 311.30172 202.613155 
L 314.476956 201.838959 
L 317.628031 200.891566 
L 320.739982 199.765797 
L 323.763554 198.474862 
L 326.681384 197.037444 
L 329.519039 195.454953 
L 332.251054 193.746709 
L 334.890087 191.917528 
L 337.428122 189.980292 
L 339.859403 187.949169 
L 342.196698 185.823923 
L 344.436582 183.611996 
L 346.563414 181.334722 
L 348.584128 178.998237 
L 352.288481 174.223982 
L 355.635368 169.33374 
L 358.677036 164.396725 
L 361.486631 159.451941 
L 365.513657 151.843987 
L 368.084841 146.419345 
L 369.287687 143.58265 
L 370.409552 140.648029 
L 371.416582 137.640051 
L 372.301352 134.528176 
L 373.034546 131.313657 
L 373.587726 128.009189 
L 373.934225 124.696815 
L 374.084573 121.355011 
L 374.038091 118.033639 
L 373.804738 114.712249 
L 373.387841 111.420681 
L 372.789808 108.144805 
L 372.014732 104.917702 
L 371.068564 101.747584 
L 369.948866 98.624501 
L 368.658286 95.57205 
L 367.221489 92.640833 
L 365.646812 89.813945 
L 363.954298 87.106733 
L 362.164286 84.5194 
L 360.270067 82.015364 
L 356.276221 77.332995 
L 352.055285 72.997688 
L 347.676906 68.954547 
L 343.242882 65.190072 
L 336.615132 59.9499 
L 328.193157 53.568 
L 328.193157 53.568 
" style="fill:none;stroke:#ffffff;stroke-linecap:square;"/>
   </g>
   <g id="patch_3">
    <path d="M 57.6 307.584 
L 57.6 41.472 
" style="fill:none;stroke:#000000;stroke-linecap:square;stroke-linejoin:miter;stroke-width:0.8;"/>
   </g>
   <g id="patch_4">
    <path d="M 414.72 307.584 
L 414.72 41.472 
" style="fill:none;stroke:#000000;stroke-linecap:square;stroke-linejoin:miter;stroke-width:0.8;"/>
   </g>
   <g id="patch_5">
    <path d="M 57.6 307.584 
L 414.72 307.584 
" style="fill:none;stroke:#000000;stroke-linecap:square;stroke-linejoin:miter;stroke-width:0.8;"/>
   </g>
   <g id="patch_6">
    <path d="M 57.6 41.472 
L 414.72 41.472 
" style="fill:none;stroke:#000000;stroke-linecap:square;stroke-linejoin:miter;stroke-width:0.8;"/>
   </g>
  </g>
 </g>
 <defs>
  <clipPath id="p2ed4c5aae0">
   <rect height="266.112" width="357.12" x="57.6" y="41.472"/>
  </clipPath>
 </defs>
</svg>
