<?xml version="1.0" encoding="utf-8" standalone="no"?>
<!DOCTYPE svg PUBLIC "-//W3C//DTD SVG 1.1//EN"
  "http://www.w3.org/Graphics/SVG/1.1/DTD/svg11.dtd">
<!-- Created with matplotlib (https://matplotlib.org/) -->
<svg height="345.6pt" version="1.1" viewBox="0 0 460.8 345.6" width="460.8pt" xmlns="http://www.w3.org/2000/svg" xmlns:xlink="http://www.w3.org/1999/xlink">
 <metadata>
  <rdf:RDF xmlns:cc="http://creativecommons.org/ns#" xmlns:dc="http://purl.org/dc/elements/1.1/" xmlns:rdf="http://www.w3.org/1999/02/22-rdf-syntax-ns#">
   <cc:Work>
    <dc:type rdf:resource="http://purl.org/dc/dcmitype/StillImage"/>
    <dc:date>2021-01-25T09:27:49.097332</dc:date>
    <dc:format>image/svg+xml</dc:format>
    <dc:creator>
     <cc:Agent>
      <dc:title>Matplotlib v3.3.3, https://matplotlib.org/</dc:title>
     </cc:Agent>
    </dc:creator>
   </cc:Work>
  </rdf:RDF>
 </metadata>
 <defs>
  <style type="text/css">*{stroke-linecap:butt;stroke-linejoin:round;}</style>
 </defs>
 <g id="figure_1">
  <g id="patch_1">
   <path d="M 0 345.6 
L 460.8 345.6 
L 460.8 0 
L 0 0 
z
" style="fill:#ffffff;"/>
  </g>
  <g id="axes_1">
   <g id="patch_2">
    <path d="M 57.6 307.584 
L 414.72 307.584 
L 414.72 41.472 
L 57.6 41.472 
z
" style="fill:#7d9051;"/>
   </g>
   <g id="matplotlib.axis_1">
    <g id="xtick_1">
     <g id="line2d_1">
      <defs>
       <path d="M 0 0 
L 0 3.5 
" id="m1fb71c1037" style="stroke:#000000;stroke-width:0.8;"/>
      </defs>
      <g>
       <use style="stroke:#000000;stroke-width:0.8;" x="61.50042" xlink:href="#m1fb71c1037" y="307.584"/>
      </g>
     </g>
     <g id="text_1">
      <!-- −20 -->
      <g transform="translate(50.948076 322.182437)scale(0.1 -0.1)">
       <defs>
        <path d="M 10.59375 35.5 
L 73.1875 35.5 
L 73.1875 27.203125 
L 10.59375 27.203125 
z
" id="DejaVuSans-8722"/>
        <path d="M 19.1875 8.296875 
L 53.609375 8.296875 
L 53.609375 0 
L 7.328125 0 
L 7.328125 8.296875 
Q 12.9375 14.109375 22.625 23.890625 
Q 32.328125 33.6875 34.8125 36.53125 
Q 39.546875 41.84375 41.421875 45.53125 
Q 43.3125 49.21875 43.3125 52.78125 
Q 43.3125 58.59375 39.234375 62.25 
Q 35.15625 65.921875 28.609375 65.921875 
Q 23.96875 65.921875 18.8125 64.3125 
Q 13.671875 62.703125 7.8125 59.421875 
L 7.8125 69.390625 
Q 13.765625 71.78125 18.9375 73 
Q 24.125 74.21875 28.421875 74.21875 
Q 39.75 74.21875 46.484375 68.546875 
Q 53.21875 62.890625 53.21875 53.421875 
Q 53.21875 48.921875 51.53125 44.890625 
Q 49.859375 40.875 45.40625 35.40625 
Q 44.1875 33.984375 37.640625 27.21875 
Q 31.109375 20.453125 19.1875 8.296875 
z
" id="DejaVuSans-50"/>
        <path d="M 31.78125 66.40625 
Q 24.171875 66.40625 20.328125 58.90625 
Q 16.5 51.421875 16.5 36.375 
Q 16.5 21.390625 20.328125 13.890625 
Q 24.171875 6.390625 31.78125 6.390625 
Q 39.453125 6.390625 43.28125 13.890625 
Q 47.125 21.390625 47.125 36.375 
Q 47.125 51.421875 43.28125 58.90625 
Q 39.453125 66.40625 31.78125 66.40625 
z
M 31.78125 74.21875 
Q 44.046875 74.21875 50.515625 64.515625 
Q 56.984375 54.828125 56.984375 36.375 
Q 56.984375 17.96875 50.515625 8.265625 
Q 44.046875 -1.421875 31.78125 -1.421875 
Q 19.53125 -1.421875 13.0625 8.265625 
Q 6.59375 17.96875 6.59375 36.375 
Q 6.59375 54.828125 13.0625 64.515625 
Q 19.53125 74.21875 31.78125 74.21875 
z
" id="DejaVuSans-48"/>
       </defs>
       <use xlink:href="#DejaVuSans-8722"/>
       <use x="83.789062" xlink:href="#DejaVuSans-50"/>
       <use x="147.412109" xlink:href="#DejaVuSans-48"/>
      </g>
     </g>
    </g>
    <g id="xtick_2">
     <g id="line2d_2">
      <g>
       <use style="stroke:#000000;stroke-width:0.8;" x="106.896582" xlink:href="#m1fb71c1037" y="307.584"/>
      </g>
     </g>
     <g id="text_2">
      <!-- 0 -->
      <g transform="translate(103.715332 322.182437)scale(0.1 -0.1)">
       <use xlink:href="#DejaVuSans-48"/>
      </g>
     </g>
    </g>
    <g id="xtick_3">
     <g id="line2d_3">
      <g>
       <use style="stroke:#000000;stroke-width:0.8;" x="152.292743" xlink:href="#m1fb71c1037" y="307.584"/>
      </g>
     </g>
     <g id="text_3">
      <!-- 20 -->
      <g transform="translate(145.930243 322.182437)scale(0.1 -0.1)">
       <use xlink:href="#DejaVuSans-50"/>
       <use x="63.623047" xlink:href="#DejaVuSans-48"/>
      </g>
     </g>
    </g>
    <g id="xtick_4">
     <g id="line2d_4">
      <g>
       <use style="stroke:#000000;stroke-width:0.8;" x="197.688905" xlink:href="#m1fb71c1037" y="307.584"/>
      </g>
     </g>
     <g id="text_4">
      <!-- 40 -->
      <g transform="translate(191.326405 322.182437)scale(0.1 -0.1)">
       <defs>
        <path d="M 37.796875 64.3125 
L 12.890625 25.390625 
L 37.796875 25.390625 
z
M 35.203125 72.90625 
L 47.609375 72.90625 
L 47.609375 25.390625 
L 58.015625 25.390625 
L 58.015625 17.1875 
L 47.609375 17.1875 
L 47.609375 0 
L 37.796875 0 
L 37.796875 17.1875 
L 4.890625 17.1875 
L 4.890625 26.703125 
z
" id="DejaVuSans-52"/>
       </defs>
       <use xlink:href="#DejaVuSans-52"/>
       <use x="63.623047" xlink:href="#DejaVuSans-48"/>
      </g>
     </g>
    </g>
    <g id="xtick_5">
     <g id="line2d_5">
      <g>
       <use style="stroke:#000000;stroke-width:0.8;" x="243.085067" xlink:href="#m1fb71c1037" y="307.584"/>
      </g>
     </g>
     <g id="text_5">
      <!-- 60 -->
      <g transform="translate(236.722567 322.182437)scale(0.1 -0.1)">
       <defs>
        <path d="M 33.015625 40.375 
Q 26.375 40.375 22.484375 35.828125 
Q 18.609375 31.296875 18.609375 23.390625 
Q 18.609375 15.53125 22.484375 10.953125 
Q 26.375 6.390625 33.015625 6.390625 
Q 39.65625 6.390625 43.53125 10.953125 
Q 47.40625 15.53125 47.40625 23.390625 
Q 47.40625 31.296875 43.53125 35.828125 
Q 39.65625 40.375 33.015625 40.375 
z
M 52.59375 71.296875 
L 52.59375 62.3125 
Q 48.875 64.0625 45.09375 64.984375 
Q 41.3125 65.921875 37.59375 65.921875 
Q 27.828125 65.921875 22.671875 59.328125 
Q 17.53125 52.734375 16.796875 39.40625 
Q 19.671875 43.65625 24.015625 45.921875 
Q 28.375 48.1875 33.59375 48.1875 
Q 44.578125 48.1875 50.953125 41.515625 
Q 57.328125 34.859375 57.328125 23.390625 
Q 57.328125 12.15625 50.6875 5.359375 
Q 44.046875 -1.421875 33.015625 -1.421875 
Q 20.359375 -1.421875 13.671875 8.265625 
Q 6.984375 17.96875 6.984375 36.375 
Q 6.984375 53.65625 15.1875 63.9375 
Q 23.390625 74.21875 37.203125 74.21875 
Q 40.921875 74.21875 44.703125 73.484375 
Q 48.484375 72.75 52.59375 71.296875 
z
" id="DejaVuSans-54"/>
       </defs>
       <use xlink:href="#DejaVuSans-54"/>
       <use x="63.623047" xlink:href="#DejaVuSans-48"/>
      </g>
     </g>
    </g>
    <g id="xtick_6">
     <g id="line2d_6">
      <g>
       <use style="stroke:#000000;stroke-width:0.8;" x="288.481228" xlink:href="#m1fb71c1037" y="307.584"/>
      </g>
     </g>
     <g id="text_6">
      <!-- 80 -->
      <g transform="translate(282.118728 322.182437)scale(0.1 -0.1)">
       <defs>
        <path d="M 31.78125 34.625 
Q 24.75 34.625 20.71875 30.859375 
Q 16.703125 27.09375 16.703125 20.515625 
Q 16.703125 13.921875 20.71875 10.15625 
Q 24.75 6.390625 31.78125 6.390625 
Q 38.8125 6.390625 42.859375 10.171875 
Q 46.921875 13.96875 46.921875 20.515625 
Q 46.921875 27.09375 42.890625 30.859375 
Q 38.875 34.625 31.78125 34.625 
z
M 21.921875 38.8125 
Q 15.578125 40.375 12.03125 44.71875 
Q 8.5 49.078125 8.5 55.328125 
Q 8.5 64.0625 14.71875 69.140625 
Q 20.953125 74.21875 31.78125 74.21875 
Q 42.671875 74.21875 48.875 69.140625 
Q 55.078125 64.0625 55.078125 55.328125 
Q 55.078125 49.078125 51.53125 44.71875 
Q 48 40.375 41.703125 38.8125 
Q 48.828125 37.15625 52.796875 32.3125 
Q 56.78125 27.484375 56.78125 20.515625 
Q 56.78125 9.90625 50.3125 4.234375 
Q 43.84375 -1.421875 31.78125 -1.421875 
Q 19.734375 -1.421875 13.25 4.234375 
Q 6.78125 9.90625 6.78125 20.515625 
Q 6.78125 27.484375 10.78125 32.3125 
Q 14.796875 37.15625 21.921875 38.8125 
z
M 18.3125 54.390625 
Q 18.3125 48.734375 21.84375 45.5625 
Q 25.390625 42.390625 31.78125 42.390625 
Q 38.140625 42.390625 41.71875 45.5625 
Q 45.3125 48.734375 45.3125 54.390625 
Q 45.3125 60.0625 41.71875 63.234375 
Q 38.140625 66.40625 31.78125 66.40625 
Q 25.390625 66.40625 21.84375 63.234375 
Q 18.3125 60.0625 18.3125 54.390625 
z
" id="DejaVuSans-56"/>
       </defs>
       <use xlink:href="#DejaVuSans-56"/>
       <use x="63.623047" xlink:href="#DejaVuSans-48"/>
      </g>
     </g>
    </g>
    <g id="xtick_7">
     <g id="line2d_7">
      <g>
       <use style="stroke:#000000;stroke-width:0.8;" x="333.87739" xlink:href="#m1fb71c1037" y="307.584"/>
      </g>
     </g>
     <g id="text_7">
      <!-- 100 -->
      <g transform="translate(324.33364 322.182437)scale(0.1 -0.1)">
       <defs>
        <path d="M 12.40625 8.296875 
L 28.515625 8.296875 
L 28.515625 63.921875 
L 10.984375 60.40625 
L 10.984375 69.390625 
L 28.421875 72.90625 
L 38.28125 72.90625 
L 38.28125 8.296875 
L 54.390625 8.296875 
L 54.390625 0 
L 12.40625 0 
z
" id="DejaVuSans-49"/>
       </defs>
       <use xlink:href="#DejaVuSans-49"/>
       <use x="63.623047" xlink:href="#DejaVuSans-48"/>
       <use x="127.246094" xlink:href="#DejaVuSans-48"/>
      </g>
     </g>
    </g>
    <g id="xtick_8">
     <g id="line2d_8">
      <g>
       <use style="stroke:#000000;stroke-width:0.8;" x="379.273552" xlink:href="#m1fb71c1037" y="307.584"/>
      </g>
     </g>
     <g id="text_8">
      <!-- 120 -->
      <g transform="translate(369.729802 322.182437)scale(0.1 -0.1)">
       <use xlink:href="#DejaVuSans-49"/>
       <use x="63.623047" xlink:href="#DejaVuSans-50"/>
       <use x="127.246094" xlink:href="#DejaVuSans-48"/>
      </g>
     </g>
    </g>
   </g>
   <g id="matplotlib.axis_2">
    <g id="ytick_1">
     <g id="line2d_9">
      <defs>
       <path d="M 0 0 
L -3.5 0 
" id="mb3957ebc00" style="stroke:#000000;stroke-width:0.8;"/>
      </defs>
      <g>
       <use style="stroke:#000000;stroke-width:0.8;" x="57.6" xlink:href="#mb3957ebc00" y="269.546678"/>
      </g>
     </g>
     <g id="text_9">
      <!-- 20 -->
      <g transform="translate(37.875 273.345897)scale(0.1 -0.1)">
       <use xlink:href="#DejaVuSans-50"/>
       <use x="63.623047" xlink:href="#DejaVuSans-48"/>
      </g>
     </g>
    </g>
    <g id="ytick_2">
     <g id="line2d_10">
      <g>
       <use style="stroke:#000000;stroke-width:0.8;" x="57.6" xlink:href="#mb3957ebc00" y="224.150516"/>
      </g>
     </g>
     <g id="text_10">
      <!-- 40 -->
      <g transform="translate(37.875 227.949735)scale(0.1 -0.1)">
       <use xlink:href="#DejaVuSans-52"/>
       <use x="63.623047" xlink:href="#DejaVuSans-48"/>
      </g>
     </g>
    </g>
    <g id="ytick_3">
     <g id="line2d_11">
      <g>
       <use style="stroke:#000000;stroke-width:0.8;" x="57.6" xlink:href="#mb3957ebc00" y="178.754355"/>
      </g>
     </g>
     <g id="text_11">
      <!-- 60 -->
      <g transform="translate(37.875 182.553573)scale(0.1 -0.1)">
       <use xlink:href="#DejaVuSans-54"/>
       <use x="63.623047" xlink:href="#DejaVuSans-48"/>
      </g>
     </g>
    </g>
    <g id="ytick_4">
     <g id="line2d_12">
      <g>
       <use style="stroke:#000000;stroke-width:0.8;" x="57.6" xlink:href="#mb3957ebc00" y="133.358193"/>
      </g>
     </g>
     <g id="text_12">
      <!-- 80 -->
      <g transform="translate(37.875 137.157412)scale(0.1 -0.1)">
       <use xlink:href="#DejaVuSans-56"/>
       <use x="63.623047" xlink:href="#DejaVuSans-48"/>
      </g>
     </g>
    </g>
    <g id="ytick_5">
     <g id="line2d_13">
      <g>
       <use style="stroke:#000000;stroke-width:0.8;" x="57.6" xlink:href="#mb3957ebc00" y="87.962031"/>
      </g>
     </g>
     <g id="text_13">
      <!-- 100 -->
      <g transform="translate(31.5125 91.76125)scale(0.1 -0.1)">
       <use xlink:href="#DejaVuSans-49"/>
       <use x="63.623047" xlink:href="#DejaVuSans-48"/>
       <use x="127.246094" xlink:href="#DejaVuSans-48"/>
      </g>
     </g>
    </g>
    <g id="ytick_6">
     <g id="line2d_14">
      <g>
       <use style="stroke:#000000;stroke-width:0.8;" x="57.6" xlink:href="#mb3957ebc00" y="42.56587"/>
      </g>
     </g>
     <g id="text_14">
      <!-- 120 -->
      <g transform="translate(31.5125 46.365088)scale(0.1 -0.1)">
       <use xlink:href="#DejaVuSans-49"/>
       <use x="63.623047" xlink:href="#DejaVuSans-50"/>
       <use x="127.246094" xlink:href="#DejaVuSans-48"/>
      </g>
     </g>
    </g>
   </g>
   <g id="line2d_15">
    <path clip-path="url(#p3605a05a28)" d="M 341.370026 114.450692 
L 341.876194 112.289834 
L 342.26887 110.081311 
L 342.552596 107.836471 
L 342.722832 105.559853 
L 342.727372 100.952143 
L 342.282489 96.326274 
L 341.892082 94.029228 
L 341.388185 91.752611 
L 340.773067 89.505501 
L 340.044458 87.299247 
L 339.20236 85.13839 
L 338.24677 83.032008 
L 337.179961 80.989181 
L 335.99966 79.021257 
L 334.7036 77.132777 
L 333.296319 75.332819 
L 331.775548 73.632733 
L 330.139016 72.039328 
L 328.391264 70.557143 
L 326.54137 69.195258 
L 324.600684 67.953673 
L 322.578285 66.836928 
L 320.485522 65.842752 
L 318.336014 64.980225 
L 316.13884 64.247077 
L 313.905349 63.650117 
L 311.64689 63.189346 
L 309.374812 62.869303 
L 307.100464 62.689988 
L 304.823846 62.642322 
L 302.547229 62.717226 
L 298.014422 63.196155 
L 293.515663 64.049603 
L 289.071378 65.198126 
L 284.699728 66.562281 
L 278.255743 68.841168 
L 269.728074 71.907679 
L 265.422248 73.274103 
L 261.059677 74.445324 
L 256.64036 75.43723 
L 249.928538 76.658387 
L 240.885623 77.968066 
L 231.849517 79.289095 
L 227.393883 80.151622 
L 223.013154 81.261558 
L 218.736835 82.698346 
L 214.574007 84.482416 
L 210.531479 86.575179 
L 206.61379 88.933509 
L 202.820941 91.514281 
L 199.159741 94.276637 
L 195.650617 97.213769 
L 192.336698 100.343834 
L 189.258838 103.694071 
L 186.460164 107.282638 
L 183.981534 111.134502 
L 181.866073 115.231506 
L 180.95815 117.356046 
L 180.156907 119.519173 
L 179.469156 121.716347 
L 178.894894 123.938489 
L 178.445472 126.17879 
L 178.125429 128.43044 
L 177.934765 130.686629 
L 177.88256 132.942818 
L 177.952924 135.194468 
L 178.413695 139.690958 
L 179.208128 144.178368 
L 180.222732 148.656699 
L 183.509414 162.059916 
L 184.328815 166.533708 
L 184.834982 171.025658 
L 184.934853 173.281847 
L 184.918965 175.542576 
L 184.775967 177.810114 
L 184.50359 180.077653 
L 184.106373 182.338382 
L 183.588857 184.578682 
L 182.953311 186.796285 
L 182.202004 188.97757 
L 181.341747 191.117999 
L 180.372539 193.206223 
L 179.29892 195.237701 
L 178.125429 197.198815 
L 176.854337 199.089565 
L 174.053393 202.664513 
L 170.968724 206.003401 
L 167.668423 209.156164 
L 162.470563 213.636765 
L 151.952272 222.32786 
L 148.588417 225.362594 
L 145.374368 228.565293 
L 142.353254 231.985894 
L 139.570469 235.617587 
L 137.064601 239.446753 
L 134.878776 243.455234 
L 133.05158 247.627141 
L 131.614792 251.946586 
L 130.56614 256.379521 
L 129.887468 260.896439 
L 129.569695 265.467833 
L 129.594663 270.061924 
L 129.951022 274.644667 
L 130.622886 279.184283 
L 131.598903 283.653535 
L 132.863186 288.016106 
L 134.399846 292.244759 
L 134.399846 292.244759 
" style="fill:none;stroke:#fea952;stroke-linecap:square;"/>
   </g>
   <g id="line2d_16">
    <path clip-path="url(#p3605a05a28)" d="M 332.53008 112.37999 
L 333.261299 108.942841 
L 333.646369 105.335632 
L 333.671939 101.609106 
L 333.331616 97.847569 
L 332.631119 94.149747 
L 331.584908 90.595984 
L 330.198856 87.234808 
L 328.513794 84.158793 
L 326.529391 81.386012 
L 325.441846 80.13786 
L 324.2667 78.963804 
L 323.008533 77.868686 
L 321.648446 76.843248 
L 320.211883 75.901685 
L 317.104377 74.26892 
L 313.794468 73.018415 
L 310.380498 72.179825 
L 306.910412 71.767231 
L 303.298223 71.765345 
L 299.544985 72.145448 
L 295.660637 72.871822 
L 291.685221 73.892969 
L 287.633035 75.154613 
L 281.38691 77.363389 
L 272.563597 80.532774 
L 267.87671 82.015274 
L 263.135119 83.284159 
L 258.391276 84.346032 
L 251.330162 85.628778 
L 242.101494 86.965517 
L 233.472861 88.222023 
L 229.479985 88.987947 
L 225.727506 89.92555 
L 222.151119 91.111142 
L 218.608955 92.615782 
L 215.096141 94.423511 
L 211.618895 96.50856 
L 208.202135 98.826956 
L 204.889439 101.319579 
L 201.775035 103.916303 
L 198.904416 106.612609 
L 196.297869 109.428572 
L 193.976896 112.374908 
L 191.94839 115.489001 
L 190.214891 118.799376 
L 188.821578 122.231358 
L 187.796772 125.724276 
L 187.172415 129.194974 
L 187.011568 130.896655 
L 187.002716 134.463909 
L 187.376396 138.240976 
L 188.081192 142.254522 
L 189.031407 146.456766 
L 192.415794 160.296724 
L 193.328244 165.332571 
L 193.669547 167.947496 
L 193.905332 170.624154 
L 194.013861 173.345656 
L 193.980197 176.114005 
L 193.790398 178.892929 
L 193.445841 181.648831 
L 192.952644 184.381897 
L 192.316731 187.080018 
L 191.537616 189.753001 
L 190.626304 192.36337 
L 189.577181 194.940315 
L 188.399707 197.448514 
L 187.089861 199.899642 
L 185.660268 202.264253 
L 184.120987 204.532749 
L 182.516154 206.660947 
L 179.10057 210.638093 
L 175.52236 214.251655 
L 171.879067 217.560853 
L 166.447861 222.118684 
L 157.964401 229.131298 
L 154.903066 231.886217 
L 152.077291 234.689286 
L 149.461363 237.634543 
L 147.071789 240.732532 
L 144.943135 243.959087 
L 143.113598 247.278867 
L 141.599413 250.6877 
L 140.40289 254.227328 
L 139.514662 257.914585 
L 138.931307 261.697336 
L 138.648178 265.584454 
L 138.657414 269.515111 
L 138.953793 273.468831 
L 139.524072 277.395055 
L 140.360512 281.273057 
L 141.446835 285.057487 
L 142.880049 289.001517 
L 142.880049 289.001517 
" style="fill:none;stroke:#ffffff;stroke-linecap:square;"/>
   </g>
   <g id="line2d_17">
    <path clip-path="url(#p3605a05a28)" d="M 350.209973 116.521393 
L 350.81523 113.879201 
L 351.276442 111.219781 
L 351.606552 108.513487 
L 351.799295 105.784074 
L 351.856493 103.05773 
L 351.782804 100.29518 
L 351.574133 97.556588 
L 351.233362 94.80498 
L 350.756772 92.067153 
L 350.14525 89.355475 
L 349.394332 86.658355 
L 348.504009 84.002511 
L 347.470532 81.38742 
L 346.294685 78.829208 
L 344.96613 76.319275 
L 343.485526 73.883722 
L 341.856205 71.540577 
L 340.063247 69.279626 
L 338.10925 67.127606 
L 336.011331 65.114851 
L 333.773995 63.2456 
L 331.434295 61.547268 
L 328.989485 60.005662 
L 326.474155 58.636034 
L 323.866667 57.416583 
L 321.209788 56.367799 
L 318.483212 55.475738 
L 315.720306 54.754141 
L 312.913281 54.198867 
L 310.088425 53.818159 
L 307.290516 53.612745 
L 304.525289 53.568 
L 301.796235 53.669106 
L 299.121272 53.9003 
L 293.905048 54.693932 
L 288.886419 55.835264 
L 284.078952 57.22041 
L 277.295502 59.530705 
L 264.924237 63.931715 
L 260.994251 65.089563 
L 256.954572 66.084879 
L 250.665437 67.32658 
L 244.153629 68.352847 
L 230.226172 70.356166 
L 225.307782 71.315297 
L 220.298802 72.597566 
L 215.322551 74.285551 
L 210.539059 76.349049 
L 205.966817 78.726846 
L 201.608686 81.358459 
L 197.439747 84.201606 
L 193.430043 87.233696 
L 189.526199 90.511235 
L 185.768979 94.07506 
L 182.219806 97.959571 
L 180.545652 100.027565 
L 178.943433 102.190368 
L 177.429026 104.443834 
L 176.014678 106.780003 
L 174.713008 109.182511 
L 173.517255 111.663635 
L 172.444219 114.202407 
L 171.492237 116.806988 
L 170.678712 119.44466 
L 169.993016 122.152702 
L 169.456587 124.901136 
L 169.078444 127.665906 
L 168.857962 130.476602 
L 168.807757 133.226406 
L 168.903131 135.925026 
L 169.450994 141.14094 
L 170.335063 146.102214 
L 171.414057 150.856632 
L 174.603033 163.823108 
L 175.329385 167.734845 
L 175.764632 171.427163 
L 175.857733 174.971147 
L 175.561339 178.506474 
L 174.860983 182.077347 
L 173.777705 185.59177 
L 172.345371 188.963932 
L 170.59059 192.133377 
L 168.468749 195.154416 
L 165.982833 198.082026 
L 163.160184 200.951036 
L 160.039449 203.793018 
L 154.965982 208.051122 
L 145.940143 215.524423 
L 142.273767 218.83897 
L 138.671446 222.4413 
L 135.245144 226.337244 
L 132.06915 230.502641 
L 129.186066 234.934419 
L 127.869431 237.249232 
L 126.643954 239.631601 
L 125.524218 242.063836 
L 124.503748 244.566583 
L 123.60645 247.100402 
L 122.826693 249.665844 
L 122.164312 252.251911 
L 121.175802 257.466162 
L 120.617798 262.719271 
L 120.463507 267.980136 
L 120.694786 273.217494 
L 121.290974 278.403702 
L 122.238001 283.516428 
L 123.519304 288.524617 
L 125.118401 293.392967 
L 125.919643 295.488 
L 125.919643 295.488 
" style="fill:none;stroke:#ffffff;stroke-linecap:square;"/>
   </g>
   <g id="patch_3">
    <path d="M 57.6 307.584 
L 57.6 41.472 
" style="fill:none;stroke:#000000;stroke-linecap:square;stroke-linejoin:miter;stroke-width:0.8;"/>
   </g>
   <g id="patch_4">
    <path d="M 414.72 307.584 
L 414.72 41.472 
" style="fill:none;stroke:#000000;stroke-linecap:square;stroke-linejoin:miter;stroke-width:0.8;"/>
   </g>
   <g id="patch_5">
    <path d="M 57.6 307.584 
L 414.72 307.584 
" style="fill:none;stroke:#000000;stroke-linecap:square;stroke-linejoin:miter;stroke-width:0.8;"/>
   </g>
   <g id="patch_6">
    <path d="M 57.6 41.472 
L 414.72 41.472 
" style="fill:none;stroke:#000000;stroke-linecap:square;stroke-linejoin:miter;stroke-width:0.8;"/>
   </g>
  </g>
 </g>
 <defs>
  <clipPath id="p3605a05a28">
   <rect height="266.112" width="357.12" x="57.6" y="41.472"/>
  </clipPath>
 </defs>
</svg>
