<?xml version="1.0" encoding="utf-8" standalone="no"?>
<!DOCTYPE svg PUBLIC "-//W3C//DTD SVG 1.1//EN"
  "http://www.w3.org/Graphics/SVG/1.1/DTD/svg11.dtd">
<!-- Created with matplotlib (https://matplotlib.org/) -->
<svg height="345.6pt" version="1.1" viewBox="0 0 460.8 345.6" width="460.8pt" xmlns="http://www.w3.org/2000/svg" xmlns:xlink="http://www.w3.org/1999/xlink">
 <metadata>
  <rdf:RDF xmlns:cc="http://creativecommons.org/ns#" xmlns:dc="http://purl.org/dc/elements/1.1/" xmlns:rdf="http://www.w3.org/1999/02/22-rdf-syntax-ns#">
   <cc:Work>
    <dc:type rdf:resource="http://purl.org/dc/dcmitype/StillImage"/>
    <dc:date>2021-01-25T11:45:05.291153</dc:date>
    <dc:format>image/svg+xml</dc:format>
    <dc:creator>
     <cc:Agent>
      <dc:title>Matplotlib v3.3.3, https://matplotlib.org/</dc:title>
     </cc:Agent>
    </dc:creator>
   </cc:Work>
  </rdf:RDF>
 </metadata>
 <defs>
  <style type="text/css">*{stroke-linecap:butt;stroke-linejoin:round;}</style>
 </defs>
 <g id="figure_1">
  <g id="patch_1">
   <path d="M 0 345.6 
L 460.8 345.6 
L 460.8 0 
L 0 0 
z
" style="fill:#ffffff;"/>
  </g>
  <g id="axes_1">
   <g id="patch_2">
    <path d="M 57.6 307.584 
L 414.72 307.584 
L 414.72 41.472 
L 57.6 41.472 
z
" style="fill:#7d9051;"/>
   </g>
   <g id="matplotlib.axis_1">
    <g id="xtick_1">
     <g id="line2d_1">
      <defs>
       <path d="M 0 0 
L 0 3.5 
" id="md7ca2b1174" style="stroke:#000000;stroke-width:0.8;"/>
      </defs>
      <g>
       <use style="stroke:#000000;stroke-width:0.8;" x="90.790397" xlink:href="#md7ca2b1174" y="307.584"/>
      </g>
     </g>
     <g id="text_1">
      <!-- 10 -->
      <g transform="translate(84.427897 322.182437)scale(0.1 -0.1)">
       <defs>
        <path d="M 12.40625 8.296875 
L 28.515625 8.296875 
L 28.515625 63.921875 
L 10.984375 60.40625 
L 10.984375 69.390625 
L 28.421875 72.90625 
L 38.28125 72.90625 
L 38.28125 8.296875 
L 54.390625 8.296875 
L 54.390625 0 
L 12.40625 0 
z
" id="DejaVuSans-49"/>
        <path d="M 31.78125 66.40625 
Q 24.171875 66.40625 20.328125 58.90625 
Q 16.5 51.421875 16.5 36.375 
Q 16.5 21.390625 20.328125 13.890625 
Q 24.171875 6.390625 31.78125 6.390625 
Q 39.453125 6.390625 43.28125 13.890625 
Q 47.125 21.390625 47.125 36.375 
Q 47.125 51.421875 43.28125 58.90625 
Q 39.453125 66.40625 31.78125 66.40625 
z
M 31.78125 74.21875 
Q 44.046875 74.21875 50.515625 64.515625 
Q 56.984375 54.828125 56.984375 36.375 
Q 56.984375 17.96875 50.515625 8.265625 
Q 44.046875 -1.421875 31.78125 -1.421875 
Q 19.53125 -1.421875 13.0625 8.265625 
Q 6.59375 17.96875 6.59375 36.375 
Q 6.59375 54.828125 13.0625 64.515625 
Q 19.53125 74.21875 31.78125 74.21875 
z
" id="DejaVuSans-48"/>
       </defs>
       <use xlink:href="#DejaVuSans-49"/>
       <use x="63.623047" xlink:href="#DejaVuSans-48"/>
      </g>
     </g>
    </g>
    <g id="xtick_2">
     <g id="line2d_2">
      <g>
       <use style="stroke:#000000;stroke-width:0.8;" x="131.510025" xlink:href="#md7ca2b1174" y="307.584"/>
      </g>
     </g>
     <g id="text_2">
      <!-- 20 -->
      <g transform="translate(125.147525 322.182437)scale(0.1 -0.1)">
       <defs>
        <path d="M 19.1875 8.296875 
L 53.609375 8.296875 
L 53.609375 0 
L 7.328125 0 
L 7.328125 8.296875 
Q 12.9375 14.109375 22.625 23.890625 
Q 32.328125 33.6875 34.8125 36.53125 
Q 39.546875 41.84375 41.421875 45.53125 
Q 43.3125 49.21875 43.3125 52.78125 
Q 43.3125 58.59375 39.234375 62.25 
Q 35.15625 65.921875 28.609375 65.921875 
Q 23.96875 65.921875 18.8125 64.3125 
Q 13.671875 62.703125 7.8125 59.421875 
L 7.8125 69.390625 
Q 13.765625 71.78125 18.9375 73 
Q 24.125 74.21875 28.421875 74.21875 
Q 39.75 74.21875 46.484375 68.546875 
Q 53.21875 62.890625 53.21875 53.421875 
Q 53.21875 48.921875 51.53125 44.890625 
Q 49.859375 40.875 45.40625 35.40625 
Q 44.1875 33.984375 37.640625 27.21875 
Q 31.109375 20.453125 19.1875 8.296875 
z
" id="DejaVuSans-50"/>
       </defs>
       <use xlink:href="#DejaVuSans-50"/>
       <use x="63.623047" xlink:href="#DejaVuSans-48"/>
      </g>
     </g>
    </g>
    <g id="xtick_3">
     <g id="line2d_3">
      <g>
       <use style="stroke:#000000;stroke-width:0.8;" x="172.229653" xlink:href="#md7ca2b1174" y="307.584"/>
      </g>
     </g>
     <g id="text_3">
      <!-- 30 -->
      <g transform="translate(165.867153 322.182437)scale(0.1 -0.1)">
       <defs>
        <path d="M 40.578125 39.3125 
Q 47.65625 37.796875 51.625 33 
Q 55.609375 28.21875 55.609375 21.1875 
Q 55.609375 10.40625 48.1875 4.484375 
Q 40.765625 -1.421875 27.09375 -1.421875 
Q 22.515625 -1.421875 17.65625 -0.515625 
Q 12.796875 0.390625 7.625 2.203125 
L 7.625 11.71875 
Q 11.71875 9.328125 16.59375 8.109375 
Q 21.484375 6.890625 26.8125 6.890625 
Q 36.078125 6.890625 40.9375 10.546875 
Q 45.796875 14.203125 45.796875 21.1875 
Q 45.796875 27.640625 41.28125 31.265625 
Q 36.765625 34.90625 28.71875 34.90625 
L 20.21875 34.90625 
L 20.21875 43.015625 
L 29.109375 43.015625 
Q 36.375 43.015625 40.234375 45.921875 
Q 44.09375 48.828125 44.09375 54.296875 
Q 44.09375 59.90625 40.109375 62.90625 
Q 36.140625 65.921875 28.71875 65.921875 
Q 24.65625 65.921875 20.015625 65.03125 
Q 15.375 64.15625 9.8125 62.3125 
L 9.8125 71.09375 
Q 15.4375 72.65625 20.34375 73.4375 
Q 25.25 74.21875 29.59375 74.21875 
Q 40.828125 74.21875 47.359375 69.109375 
Q 53.90625 64.015625 53.90625 55.328125 
Q 53.90625 49.265625 50.4375 45.09375 
Q 46.96875 40.921875 40.578125 39.3125 
z
" id="DejaVuSans-51"/>
       </defs>
       <use xlink:href="#DejaVuSans-51"/>
       <use x="63.623047" xlink:href="#DejaVuSans-48"/>
      </g>
     </g>
    </g>
    <g id="xtick_4">
     <g id="line2d_4">
      <g>
       <use style="stroke:#000000;stroke-width:0.8;" x="212.949281" xlink:href="#md7ca2b1174" y="307.584"/>
      </g>
     </g>
     <g id="text_4">
      <!-- 40 -->
      <g transform="translate(206.586781 322.182437)scale(0.1 -0.1)">
       <defs>
        <path d="M 37.796875 64.3125 
L 12.890625 25.390625 
L 37.796875 25.390625 
z
M 35.203125 72.90625 
L 47.609375 72.90625 
L 47.609375 25.390625 
L 58.015625 25.390625 
L 58.015625 17.1875 
L 47.609375 17.1875 
L 47.609375 0 
L 37.796875 0 
L 37.796875 17.1875 
L 4.890625 17.1875 
L 4.890625 26.703125 
z
" id="DejaVuSans-52"/>
       </defs>
       <use xlink:href="#DejaVuSans-52"/>
       <use x="63.623047" xlink:href="#DejaVuSans-48"/>
      </g>
     </g>
    </g>
    <g id="xtick_5">
     <g id="line2d_5">
      <g>
       <use style="stroke:#000000;stroke-width:0.8;" x="253.668909" xlink:href="#md7ca2b1174" y="307.584"/>
      </g>
     </g>
     <g id="text_5">
      <!-- 50 -->
      <g transform="translate(247.306409 322.182437)scale(0.1 -0.1)">
       <defs>
        <path d="M 10.796875 72.90625 
L 49.515625 72.90625 
L 49.515625 64.59375 
L 19.828125 64.59375 
L 19.828125 46.734375 
Q 21.96875 47.46875 24.109375 47.828125 
Q 26.265625 48.1875 28.421875 48.1875 
Q 40.625 48.1875 47.75 41.5 
Q 54.890625 34.8125 54.890625 23.390625 
Q 54.890625 11.625 47.5625 5.09375 
Q 40.234375 -1.421875 26.90625 -1.421875 
Q 22.3125 -1.421875 17.546875 -0.640625 
Q 12.796875 0.140625 7.71875 1.703125 
L 7.71875 11.625 
Q 12.109375 9.234375 16.796875 8.0625 
Q 21.484375 6.890625 26.703125 6.890625 
Q 35.15625 6.890625 40.078125 11.328125 
Q 45.015625 15.765625 45.015625 23.390625 
Q 45.015625 31 40.078125 35.4375 
Q 35.15625 39.890625 26.703125 39.890625 
Q 22.75 39.890625 18.8125 39.015625 
Q 14.890625 38.140625 10.796875 36.28125 
z
" id="DejaVuSans-53"/>
       </defs>
       <use xlink:href="#DejaVuSans-53"/>
       <use x="63.623047" xlink:href="#DejaVuSans-48"/>
      </g>
     </g>
    </g>
    <g id="xtick_6">
     <g id="line2d_6">
      <g>
       <use style="stroke:#000000;stroke-width:0.8;" x="294.388537" xlink:href="#md7ca2b1174" y="307.584"/>
      </g>
     </g>
     <g id="text_6">
      <!-- 60 -->
      <g transform="translate(288.026037 322.182437)scale(0.1 -0.1)">
       <defs>
        <path d="M 33.015625 40.375 
Q 26.375 40.375 22.484375 35.828125 
Q 18.609375 31.296875 18.609375 23.390625 
Q 18.609375 15.53125 22.484375 10.953125 
Q 26.375 6.390625 33.015625 6.390625 
Q 39.65625 6.390625 43.53125 10.953125 
Q 47.40625 15.53125 47.40625 23.390625 
Q 47.40625 31.296875 43.53125 35.828125 
Q 39.65625 40.375 33.015625 40.375 
z
M 52.59375 71.296875 
L 52.59375 62.3125 
Q 48.875 64.0625 45.09375 64.984375 
Q 41.3125 65.921875 37.59375 65.921875 
Q 27.828125 65.921875 22.671875 59.328125 
Q 17.53125 52.734375 16.796875 39.40625 
Q 19.671875 43.65625 24.015625 45.921875 
Q 28.375 48.1875 33.59375 48.1875 
Q 44.578125 48.1875 50.953125 41.515625 
Q 57.328125 34.859375 57.328125 23.390625 
Q 57.328125 12.15625 50.6875 5.359375 
Q 44.046875 -1.421875 33.015625 -1.421875 
Q 20.359375 -1.421875 13.671875 8.265625 
Q 6.984375 17.96875 6.984375 36.375 
Q 6.984375 53.65625 15.1875 63.9375 
Q 23.390625 74.21875 37.203125 74.21875 
Q 40.921875 74.21875 44.703125 73.484375 
Q 48.484375 72.75 52.59375 71.296875 
z
" id="DejaVuSans-54"/>
       </defs>
       <use xlink:href="#DejaVuSans-54"/>
       <use x="63.623047" xlink:href="#DejaVuSans-48"/>
      </g>
     </g>
    </g>
    <g id="xtick_7">
     <g id="line2d_7">
      <g>
       <use style="stroke:#000000;stroke-width:0.8;" x="335.108165" xlink:href="#md7ca2b1174" y="307.584"/>
      </g>
     </g>
     <g id="text_7">
      <!-- 70 -->
      <g transform="translate(328.745665 322.182437)scale(0.1 -0.1)">
       <defs>
        <path d="M 8.203125 72.90625 
L 55.078125 72.90625 
L 55.078125 68.703125 
L 28.609375 0 
L 18.3125 0 
L 43.21875 64.59375 
L 8.203125 64.59375 
z
" id="DejaVuSans-55"/>
       </defs>
       <use xlink:href="#DejaVuSans-55"/>
       <use x="63.623047" xlink:href="#DejaVuSans-48"/>
      </g>
     </g>
    </g>
    <g id="xtick_8">
     <g id="line2d_8">
      <g>
       <use style="stroke:#000000;stroke-width:0.8;" x="375.827794" xlink:href="#md7ca2b1174" y="307.584"/>
      </g>
     </g>
     <g id="text_8">
      <!-- 80 -->
      <g transform="translate(369.465294 322.182437)scale(0.1 -0.1)">
       <defs>
        <path d="M 31.78125 34.625 
Q 24.75 34.625 20.71875 30.859375 
Q 16.703125 27.09375 16.703125 20.515625 
Q 16.703125 13.921875 20.71875 10.15625 
Q 24.75 6.390625 31.78125 6.390625 
Q 38.8125 6.390625 42.859375 10.171875 
Q 46.921875 13.96875 46.921875 20.515625 
Q 46.921875 27.09375 42.890625 30.859375 
Q 38.875 34.625 31.78125 34.625 
z
M 21.921875 38.8125 
Q 15.578125 40.375 12.03125 44.71875 
Q 8.5 49.078125 8.5 55.328125 
Q 8.5 64.0625 14.71875 69.140625 
Q 20.953125 74.21875 31.78125 74.21875 
Q 42.671875 74.21875 48.875 69.140625 
Q 55.078125 64.0625 55.078125 55.328125 
Q 55.078125 49.078125 51.53125 44.71875 
Q 48 40.375 41.703125 38.8125 
Q 48.828125 37.15625 52.796875 32.3125 
Q 56.78125 27.484375 56.78125 20.515625 
Q 56.78125 9.90625 50.3125 4.234375 
Q 43.84375 -1.421875 31.78125 -1.421875 
Q 19.734375 -1.421875 13.25 4.234375 
Q 6.78125 9.90625 6.78125 20.515625 
Q 6.78125 27.484375 10.78125 32.3125 
Q 14.796875 37.15625 21.921875 38.8125 
z
M 18.3125 54.390625 
Q 18.3125 48.734375 21.84375 45.5625 
Q 25.390625 42.390625 31.78125 42.390625 
Q 38.140625 42.390625 41.71875 45.5625 
Q 45.3125 48.734375 45.3125 54.390625 
Q 45.3125 60.0625 41.71875 63.234375 
Q 38.140625 66.40625 31.78125 66.40625 
Q 25.390625 66.40625 21.84375 63.234375 
Q 18.3125 60.0625 18.3125 54.390625 
z
" id="DejaVuSans-56"/>
       </defs>
       <use xlink:href="#DejaVuSans-56"/>
       <use x="63.623047" xlink:href="#DejaVuSans-48"/>
      </g>
     </g>
    </g>
   </g>
   <g id="matplotlib.axis_2">
    <g id="ytick_1">
     <g id="line2d_9">
      <defs>
       <path d="M 0 0 
L -3.5 0 
" id="mf79d147e56" style="stroke:#000000;stroke-width:0.8;"/>
      </defs>
      <g>
       <use style="stroke:#000000;stroke-width:0.8;" x="57.6" xlink:href="#mf79d147e56" y="271.632735"/>
      </g>
     </g>
     <g id="text_9">
      <!-- 10 -->
      <g transform="translate(37.875 275.431953)scale(0.1 -0.1)">
       <use xlink:href="#DejaVuSans-49"/>
       <use x="63.623047" xlink:href="#DejaVuSans-48"/>
      </g>
     </g>
    </g>
    <g id="ytick_2">
     <g id="line2d_10">
      <g>
       <use style="stroke:#000000;stroke-width:0.8;" x="57.6" xlink:href="#mf79d147e56" y="230.913107"/>
      </g>
     </g>
     <g id="text_10">
      <!-- 20 -->
      <g transform="translate(37.875 234.712325)scale(0.1 -0.1)">
       <use xlink:href="#DejaVuSans-50"/>
       <use x="63.623047" xlink:href="#DejaVuSans-48"/>
      </g>
     </g>
    </g>
    <g id="ytick_3">
     <g id="line2d_11">
      <g>
       <use style="stroke:#000000;stroke-width:0.8;" x="57.6" xlink:href="#mf79d147e56" y="190.193478"/>
      </g>
     </g>
     <g id="text_11">
      <!-- 30 -->
      <g transform="translate(37.875 193.992697)scale(0.1 -0.1)">
       <use xlink:href="#DejaVuSans-51"/>
       <use x="63.623047" xlink:href="#DejaVuSans-48"/>
      </g>
     </g>
    </g>
    <g id="ytick_4">
     <g id="line2d_12">
      <g>
       <use style="stroke:#000000;stroke-width:0.8;" x="57.6" xlink:href="#mf79d147e56" y="149.47385"/>
      </g>
     </g>
     <g id="text_12">
      <!-- 40 -->
      <g transform="translate(37.875 153.273069)scale(0.1 -0.1)">
       <use xlink:href="#DejaVuSans-52"/>
       <use x="63.623047" xlink:href="#DejaVuSans-48"/>
      </g>
     </g>
    </g>
    <g id="ytick_5">
     <g id="line2d_13">
      <g>
       <use style="stroke:#000000;stroke-width:0.8;" x="57.6" xlink:href="#mf79d147e56" y="108.754222"/>
      </g>
     </g>
     <g id="text_13">
      <!-- 50 -->
      <g transform="translate(37.875 112.553441)scale(0.1 -0.1)">
       <use xlink:href="#DejaVuSans-53"/>
       <use x="63.623047" xlink:href="#DejaVuSans-48"/>
      </g>
     </g>
    </g>
    <g id="ytick_6">
     <g id="line2d_14">
      <g>
       <use style="stroke:#000000;stroke-width:0.8;" x="57.6" xlink:href="#mf79d147e56" y="68.034594"/>
      </g>
     </g>
     <g id="text_14">
      <!-- 60 -->
      <g transform="translate(37.875 71.833813)scale(0.1 -0.1)">
       <use xlink:href="#DejaVuSans-54"/>
       <use x="63.623047" xlink:href="#DejaVuSans-48"/>
      </g>
     </g>
    </g>
   </g>
   <g id="line2d_15">
    <path clip-path="url(#pd5194807d2)" d="M 239.783516 216.706028 
L 240.992889 212.589274 
L 241.913153 208.456232 
L 242.548379 204.323189 
L 242.914855 200.194219 
L 243.016655 196.077465 
L 242.86192 191.985142 
L 242.454724 187.917251 
L 241.807282 183.894152 
L 240.923666 179.911772 
L 239.816092 175.9864 
L 238.488632 172.126179 
L 236.953502 168.335182 
L 235.214774 164.625624 
L 233.280591 161.001577 
L 231.159099 157.475257 
L 228.85844 154.054809 
L 226.386758 150.748375 
L 223.748127 147.5641 
L 220.958832 144.510128 
L 218.018875 141.594602 
L 214.936399 138.825668 
L 211.72362 136.211468 
L 208.388683 133.76829 
L 204.935658 131.500207 
L 201.372691 129.423505 
L 197.707924 127.542259 
L 193.953575 125.868682 
L 190.113714 124.410919 
L 186.200557 123.185258 
L 182.214106 122.199843 
L 178.170647 121.458746 
L 174.082396 120.961967 
L 169.96157 120.709505 
L 165.828527 120.693217 
L 161.699557 120.917175 
L 157.586875 121.369163 
L 153.506768 122.053253 
L 149.475525 122.957229 
L 145.509433 124.089234 
L 141.624781 125.437054 
L 137.829711 127.000688 
L 134.136441 128.767919 
L 130.54497 130.734678 
L 127.05937 132.888746 
L 123.687784 135.221981 
L 120.430214 137.726238 
L 117.286659 140.393373 
L 114.269334 143.211172 
L 111.374169 146.175561 
L 108.609306 149.274324 
L 105.978818 152.499319 
L 103.498993 155.838328 
L 101.182046 159.291353 
L 99.040193 162.846176 
L 97.093795 166.494655 
L 95.355067 170.232717 
L 93.844369 174.048146 
L 92.565773 177.932798 
L 91.54371 181.882602 
L 90.790397 185.885342 
L 90.318049 189.936945 
L 90.118523 194.021124 
L 90.183674 198.12159 
L 90.509431 202.226129 
L 91.083578 206.318451 
L 91.897971 210.38227 
L 92.940393 214.405369 
L 94.206774 218.371461 
L 95.688968 222.264258 
L 97.370689 226.071543 
L 99.251936 229.777029 
L 101.320493 233.372572 
L 103.572288 236.845956 
L 105.999178 240.189038 
L 108.59709 243.393673 
L 111.349737 246.451717 
L 114.26119 249.350954 
L 117.315163 252.083241 
L 120.511653 254.644506 
L 123.838447 257.01846 
L 127.291471 259.19696 
L 130.858511 261.192222 
L 134.527349 263.004246 
L 138.285771 264.637103 
L 142.12156 266.098937 
L 146.026572 267.393821 
L 149.98452 268.529899 
L 153.98726 269.511242 
L 158.018503 270.341922 
L 162.070106 271.030084 
L 166.129853 271.583871 
L 170.197744 272.003283 
L 174.269706 272.300537 
L 182.417704 272.561142 
L 190.573845 272.430839 
L 198.717771 271.966636 
L 206.845409 271.237754 
L 214.944543 270.272699 
L 223.011101 269.087758 
L 231.041012 267.682931 
L 239.022059 266.070434 
L 246.950171 264.25841 
L 258.762935 261.224798 
L 274.460351 256.867798 
L 298.069592 250.181635 
L 305.830753 247.657018 
L 309.654326 246.260334 
L 313.429035 244.753708 
L 317.146738 243.116779 
L 320.80336 241.329187 
L 324.382615 239.378717 
L 327.884503 237.269441 
L 331.30088 235.009501 
L 334.627674 232.611115 
L 337.860812 230.074282 
L 340.98808 227.407147 
L 344.013548 224.621924 
L 346.925002 221.726758 
L 349.718368 218.725722 
L 352.385504 215.626958 
L 354.93048 212.442683 
L 357.349226 209.168825 
L 359.649885 205.8176 
L 361.840601 202.393079 
L 363.925446 198.895263 
L 365.908492 195.328224 
L 369.601762 188.014978 
L 372.961132 180.489991 
L 376.002888 172.781766 
L 377.371067 168.872681 
L 378.604872 164.931021 
L 379.696158 160.960857 
L 380.61235 156.966262 
L 381.345303 152.955379 
L 381.870586 148.924135 
L 382.16784 144.884748 
L 382.220775 140.837217 
L 382.013105 136.785614 
L 381.548901 132.746227 
L 380.836308 128.723128 
L 379.88754 124.732604 
L 378.710743 120.786872 
L 377.31406 116.890004 
L 375.705635 113.062359 
L 373.893611 109.312081 
L 371.890206 105.651387 
L 369.707633 102.088419 
L 367.345895 98.635395 
L 364.821278 95.308601 
L 362.141927 92.116182 
L 359.311912 89.066282 
L 356.347523 86.175188 
L 353.252832 83.451045 
L 350.040053 80.910141 
L 346.717331 78.560618 
L 343.292811 76.410622 
L 339.778707 74.476439 
L 339.778707 74.476439 
" style="fill:none;stroke:#fea952;stroke-linecap:square;"/>
   </g>
   <g id="line2d_16">
    <path clip-path="url(#pd5194807d2)" d="M 224.156037 212.115167 
L 225.094375 209.049309 
L 225.814335 205.981931 
L 226.324308 202.883183 
L 226.631982 199.791576 
L 226.740434 196.692884 
L 226.655063 193.60745 
L 226.37378 190.505176 
L 225.906145 187.422318 
L 225.247864 184.33482 
L 224.413514 181.283067 
L 223.3916 178.239585 
L 222.205327 175.247883 
L 220.845376 172.294685 
L 219.323838 169.398192 
L 217.644031 166.565749 
L 215.812752 163.806942 
L 213.845212 161.140858 
L 211.721521 158.5484 
L 209.489737 156.075332 
L 207.134378 153.711608 
L 204.65636 151.459547 
L 202.097838 149.350661 
L 199.446638 147.382031 
L 196.733682 145.572224 
L 193.93439 143.913702 
L 191.076338 142.418957 
L 188.172638 141.09612 
L 185.245326 139.954178 
L 182.29199 138.997191 
L 179.277733 138.220824 
L 176.205898 137.627663 
L 173.086391 137.219337 
L 169.897382 136.99723 
L 166.710694 136.957161 
L 163.478895 137.107544 
L 160.280178 137.432793 
L 157.070689 137.946414 
L 153.945894 138.619601 
L 150.84844 139.477187 
L 147.829627 140.496734 
L 144.86006 141.693145 
L 141.959734 143.053933 
L 139.107565 144.59022 
L 136.328053 146.282237 
L 133.614762 148.135122 
L 130.967803 150.146114 
L 128.403591 152.297487 
L 125.921833 154.591565 
L 123.527573 157.0194 
L 121.231014 159.569303 
L 119.054881 162.210687 
L 117.024252 164.91365 
L 115.133228 167.69722 
L 113.410939 170.512712 
L 111.862191 173.36405 
L 110.499043 176.228891 
L 109.315732 179.140397 
L 108.334262 182.013098 
L 107.550554 184.895081 
L 106.968675 187.771453 
L 106.586498 190.731715 
L 106.404319 193.762362 
L 106.42047 196.832956 
L 106.639309 199.963131 
L 107.053898 203.117986 
L 107.665134 206.296851 
L 108.456477 209.451055 
L 109.42858 212.575711 
L 110.588069 215.683157 
L 111.894024 218.698157 
L 113.370076 221.654701 
L 114.987544 224.512221 
L 116.753187 227.277362 
L 118.65171 229.931966 
L 120.702953 232.496784 
L 122.842749 234.910279 
L 125.121373 237.212151 
L 127.499973 239.372469 
L 129.972633 241.386152 
L 132.529321 243.243018 
L 135.242852 244.98184 
L 138.071255 246.588441 
L 141.017598 248.065344 
L 144.086186 249.417073 
L 147.248043 250.638883 
L 150.520332 251.738144 
L 153.862919 252.71054 
L 157.27448 253.558553 
L 160.74592 254.284049 
L 164.271532 254.891688 
L 167.800325 255.381908 
L 175.001919 256.029152 
L 182.336428 256.273494 
L 189.792928 256.161719 
L 197.385312 255.733378 
L 205.041365 255.050119 
L 212.684354 254.142428 
L 220.309647 253.025497 
L 227.912532 251.698353 
L 235.483548 250.171596 
L 243.034347 248.448273 
L 254.491115 245.507112 
L 270.04155 241.190799 
L 293.182683 234.644189 
L 300.242259 232.357905 
L 306.865459 229.846879 
L 309.99324 228.483885 
L 313.009588 227.027047 
L 315.978739 225.426335 
L 318.898261 223.684833 
L 321.775719 221.797181 
L 324.573244 219.796962 
L 327.291416 217.681463 
L 329.956441 215.423948 
L 332.52865 213.072413 
L 335.00263 210.629409 
L 337.373492 208.100369 
L 339.662068 205.457972 
L 341.830148 202.764079 
L 343.921168 199.950292 
L 345.929317 197.040351 
L 347.849512 194.053803 
L 351.462152 187.805102 
L 354.802692 181.21192 
L 357.883922 174.327862 
L 360.629463 167.401067 
L 361.826927 164.007108 
L 362.899524 160.614064 
L 363.820524 157.319657 
L 364.589832 154.038289 
L 365.19399 150.850814 
L 365.626659 147.728766 
L 365.881381 144.671746 
L 365.954278 141.670977 
L 365.831753 138.645165 
L 365.510694 135.587003 
L 364.990171 132.490628 
L 364.279092 129.387756 
L 363.377963 126.28232 
L 362.298094 123.199905 
L 361.039949 120.148385 
L 359.605526 117.13159 
L 358.00111 114.159449 
L 356.263596 111.283633 
L 354.371088 108.481637 
L 352.345203 105.779592 
L 350.202322 103.194988 
L 347.939719 100.726785 
L 345.585502 98.401103 
L 343.149137 96.226391 
L 340.636248 94.209109 
L 338.056792 92.355152 
L 335.438947 90.679852 
L 331.924843 88.745669 
L 331.924843 88.745669 
" style="fill:none;stroke:#ffffff;stroke-linecap:square;"/>
   </g>
   <g id="line2d_17">
    <path clip-path="url(#pd5194807d2)" d="M 255.410995 221.29689 
L 256.891403 216.129239 
L 258.01197 210.930533 
L 258.77245 205.763196 
L 259.197729 200.596862 
L 259.292875 195.462045 
L 259.068777 190.362834 
L 258.535667 185.329326 
L 257.708418 180.365986 
L 256.599467 175.488725 
L 255.21867 170.689733 
L 253.585664 166.012774 
L 251.701677 161.422481 
L 249.584172 156.956563 
L 247.237345 152.604962 
L 244.674167 148.384765 
L 241.904128 144.302675 
L 238.928305 140.355891 
L 235.774732 136.5798 
L 232.427927 132.944923 
L 228.903371 129.477596 
L 225.216438 126.191788 
L 221.349403 123.072274 
L 217.330727 120.154549 
L 213.137634 117.428189 
L 208.810992 114.933309 
L 204.339511 112.66556 
L 199.734511 110.641244 
L 194.982102 108.86766 
L 190.109125 107.373326 
L 185.150479 106.178863 
L 180.135396 105.28983 
L 175.078401 104.704597 
L 170.025758 104.42178 
L 164.946361 104.429273 
L 159.92022 104.726806 
L 154.893571 105.305533 
L 149.942847 106.160092 
L 145.005156 107.294856 
L 140.170426 108.701281 
L 135.419934 110.377374 
L 130.799362 112.308231 
L 126.313148 114.481906 
L 121.982374 116.879135 
L 117.790686 119.495255 
L 113.760807 122.308839 
L 109.892625 125.306362 
L 106.169727 128.48926 
L 102.616835 131.830778 
L 99.220764 135.331721 
L 95.987598 138.979345 
L 92.902755 142.78795 
L 89.973733 146.763007 
L 87.230863 150.885486 
L 84.669448 155.17964 
L 82.3254 159.62526 
L 80.211092 164.236543 
L 78.373006 168.955894 
L 76.797283 173.852499 
L 75.536865 178.870124 
L 74.612119 183.999231 
L 74.0496 189.142175 
L 73.832727 194.279885 
L 73.946879 199.410225 
L 74.379554 204.489126 
L 75.113258 209.518916 
L 76.130807 214.467689 
L 77.424309 219.359684 
L 78.984968 224.167212 
L 80.789867 228.845358 
L 82.847353 233.444929 
L 85.133795 237.899357 
L 87.653442 242.232923 
L 90.391389 246.414551 
L 93.346646 250.44611 
L 96.491227 254.290561 
L 99.856725 257.993154 
L 103.401008 261.489757 
L 107.130352 264.794014 
L 111.050674 267.90286 
L 115.147573 270.793902 
L 119.340091 273.412081 
L 123.645767 275.796003 
L 128.037101 277.943147 
L 132.485357 279.857132 
L 136.995077 281.558991 
L 141.532813 283.049499 
L 146.106122 284.349258 
L 150.700039 285.463931 
L 155.291085 286.399796 
L 159.86868 287.16848 
L 164.45938 287.785835 
L 169.011886 288.247908 
L 173.537494 288.571921 
L 178.032565 288.768693 
L 186.936984 288.822712 
L 195.718473 288.487877 
L 204.36289 287.844041 
L 212.951381 286.944058 
L 221.458168 285.805524 
L 229.942356 284.437199 
L 238.358234 282.846466 
L 246.711869 281.044255 
L 254.942188 279.058391 
L 267.035892 275.854841 
L 298.785416 266.96003 
L 307.156159 264.394922 
L 311.419246 262.95613 
L 315.692226 261.387722 
L 319.992612 259.660538 
L 324.300235 257.749673 
L 328.597132 255.631328 
L 332.786492 253.331099 
L 336.870745 250.854048 
L 340.826041 248.221821 
L 344.682104 245.425269 
L 348.430209 242.467101 
L 352.019719 239.390345 
L 355.498447 236.171435 
L 358.847373 232.824108 
L 362.063244 229.351075 
L 365.108939 225.795945 
L 368.030813 222.121287 
L 370.777284 218.387358 
L 373.370454 214.594848 
L 375.831691 210.732355 
L 378.16129 206.809482 
L 380.354832 202.851346 
L 382.427088 198.861141 
L 386.26514 190.753087 
L 389.751156 182.448607 
L 391.376312 178.162464 
L 392.915208 173.738254 
L 394.310221 169.247979 
L 395.571792 164.602058 
L 396.634868 159.894235 
L 397.496616 155.059944 
L 398.114514 150.119505 
L 398.454298 145.09775 
L 398.487273 140.003457 
L 398.194458 134.926064 
L 397.587109 129.905452 
L 396.682444 124.955628 
L 395.495989 120.077453 
L 394.043524 115.291424 
L 392.330027 110.580103 
L 390.37132 105.976333 
L 388.181697 101.492573 
L 385.779301 97.143324 
L 383.151671 92.893205 
L 380.320702 88.789152 
L 377.297353 84.83761 
L 374.081531 81.037377 
L 370.684106 77.40578 
L 367.109545 73.949274 
L 363.356527 70.6757 
L 359.443858 67.611172 
L 355.377871 64.766085 
L 351.146674 62.141392 
L 347.63257 60.207209 
L 347.63257 60.207209 
" style="fill:none;stroke:#ffffff;stroke-linecap:square;"/>
   </g>
   <g id="patch_3">
    <path d="M 57.6 307.584 
L 57.6 41.472 
" style="fill:none;stroke:#000000;stroke-linecap:square;stroke-linejoin:miter;stroke-width:0.8;"/>
   </g>
   <g id="patch_4">
    <path d="M 414.72 307.584 
L 414.72 41.472 
" style="fill:none;stroke:#000000;stroke-linecap:square;stroke-linejoin:miter;stroke-width:0.8;"/>
   </g>
   <g id="patch_5">
    <path d="M 57.6 307.584 
L 414.72 307.584 
" style="fill:none;stroke:#000000;stroke-linecap:square;stroke-linejoin:miter;stroke-width:0.8;"/>
   </g>
   <g id="patch_6">
    <path d="M 57.6 41.472 
L 414.72 41.472 
" style="fill:none;stroke:#000000;stroke-linecap:square;stroke-linejoin:miter;stroke-width:0.8;"/>
   </g>
  </g>
 </g>
 <defs>
  <clipPath id="pd5194807d2">
   <rect height="266.112" width="357.12" x="57.6" y="41.472"/>
  </clipPath>
 </defs>
</svg>
