<?xml version="1.0" encoding="utf-8" standalone="no"?>
<!DOCTYPE svg PUBLIC "-//W3C//DTD SVG 1.1//EN"
  "http://www.w3.org/Graphics/SVG/1.1/DTD/svg11.dtd">
<!-- Created with matplotlib (https://matplotlib.org/) -->
<svg height="345.6pt" version="1.1" viewBox="0 0 460.8 345.6" width="460.8pt" xmlns="http://www.w3.org/2000/svg" xmlns:xlink="http://www.w3.org/1999/xlink">
 <metadata>
  <rdf:RDF xmlns:cc="http://creativecommons.org/ns#" xmlns:dc="http://purl.org/dc/elements/1.1/" xmlns:rdf="http://www.w3.org/1999/02/22-rdf-syntax-ns#">
   <cc:Work>
    <dc:type rdf:resource="http://purl.org/dc/dcmitype/StillImage"/>
    <dc:date>2021-01-25T10:43:42.755420</dc:date>
    <dc:format>image/svg+xml</dc:format>
    <dc:creator>
     <cc:Agent>
      <dc:title>Matplotlib v3.3.3, https://matplotlib.org/</dc:title>
     </cc:Agent>
    </dc:creator>
   </cc:Work>
  </rdf:RDF>
 </metadata>
 <defs>
  <style type="text/css">*{stroke-linecap:butt;stroke-linejoin:round;}</style>
 </defs>
 <g id="figure_1">
  <g id="patch_1">
   <path d="M 0 345.6 
L 460.8 345.6 
L 460.8 0 
L 0 0 
z
" style="fill:#ffffff;"/>
  </g>
  <g id="axes_1">
   <g id="patch_2">
    <path d="M 57.6 307.584 
L 414.72 307.584 
L 414.72 41.472 
L 57.6 41.472 
z
" style="fill:#7d9051;"/>
   </g>
   <g id="matplotlib.axis_1">
    <g id="xtick_1">
     <g id="line2d_1">
      <defs>
       <path d="M 0 0 
L 0 3.5 
" id="mb8e6f7f5f2" style="stroke:#000000;stroke-width:0.8;"/>
      </defs>
      <g>
       <use style="stroke:#000000;stroke-width:0.8;" x="65.297373" xlink:href="#mb8e6f7f5f2" y="307.584"/>
      </g>
     </g>
     <g id="text_1">
      <!-- −20 -->
      <g transform="translate(54.745029 322.182437)scale(0.1 -0.1)">
       <defs>
        <path d="M 10.59375 35.5 
L 73.1875 35.5 
L 73.1875 27.203125 
L 10.59375 27.203125 
z
" id="DejaVuSans-8722"/>
        <path d="M 19.1875 8.296875 
L 53.609375 8.296875 
L 53.609375 0 
L 7.328125 0 
L 7.328125 8.296875 
Q 12.9375 14.109375 22.625 23.890625 
Q 32.328125 33.6875 34.8125 36.53125 
Q 39.546875 41.84375 41.421875 45.53125 
Q 43.3125 49.21875 43.3125 52.78125 
Q 43.3125 58.59375 39.234375 62.25 
Q 35.15625 65.921875 28.609375 65.921875 
Q 23.96875 65.921875 18.8125 64.3125 
Q 13.671875 62.703125 7.8125 59.421875 
L 7.8125 69.390625 
Q 13.765625 71.78125 18.9375 73 
Q 24.125 74.21875 28.421875 74.21875 
Q 39.75 74.21875 46.484375 68.546875 
Q 53.21875 62.890625 53.21875 53.421875 
Q 53.21875 48.921875 51.53125 44.890625 
Q 49.859375 40.875 45.40625 35.40625 
Q 44.1875 33.984375 37.640625 27.21875 
Q 31.109375 20.453125 19.1875 8.296875 
z
" id="DejaVuSans-50"/>
        <path d="M 31.78125 66.40625 
Q 24.171875 66.40625 20.328125 58.90625 
Q 16.5 51.421875 16.5 36.375 
Q 16.5 21.390625 20.328125 13.890625 
Q 24.171875 6.390625 31.78125 6.390625 
Q 39.453125 6.390625 43.28125 13.890625 
Q 47.125 21.390625 47.125 36.375 
Q 47.125 51.421875 43.28125 58.90625 
Q 39.453125 66.40625 31.78125 66.40625 
z
M 31.78125 74.21875 
Q 44.046875 74.21875 50.515625 64.515625 
Q 56.984375 54.828125 56.984375 36.375 
Q 56.984375 17.96875 50.515625 8.265625 
Q 44.046875 -1.421875 31.78125 -1.421875 
Q 19.53125 -1.421875 13.0625 8.265625 
Q 6.59375 17.96875 6.59375 36.375 
Q 6.59375 54.828125 13.0625 64.515625 
Q 19.53125 74.21875 31.78125 74.21875 
z
" id="DejaVuSans-48"/>
       </defs>
       <use xlink:href="#DejaVuSans-8722"/>
       <use x="83.789062" xlink:href="#DejaVuSans-50"/>
       <use x="147.412109" xlink:href="#DejaVuSans-48"/>
      </g>
     </g>
    </g>
    <g id="xtick_2">
     <g id="line2d_2">
      <g>
       <use style="stroke:#000000;stroke-width:0.8;" x="119.339688" xlink:href="#mb8e6f7f5f2" y="307.584"/>
      </g>
     </g>
     <g id="text_2">
      <!-- 0 -->
      <g transform="translate(116.158438 322.182437)scale(0.1 -0.1)">
       <use xlink:href="#DejaVuSans-48"/>
      </g>
     </g>
    </g>
    <g id="xtick_3">
     <g id="line2d_3">
      <g>
       <use style="stroke:#000000;stroke-width:0.8;" x="173.382003" xlink:href="#mb8e6f7f5f2" y="307.584"/>
      </g>
     </g>
     <g id="text_3">
      <!-- 20 -->
      <g transform="translate(167.019503 322.182437)scale(0.1 -0.1)">
       <use xlink:href="#DejaVuSans-50"/>
       <use x="63.623047" xlink:href="#DejaVuSans-48"/>
      </g>
     </g>
    </g>
    <g id="xtick_4">
     <g id="line2d_4">
      <g>
       <use style="stroke:#000000;stroke-width:0.8;" x="227.424318" xlink:href="#mb8e6f7f5f2" y="307.584"/>
      </g>
     </g>
     <g id="text_4">
      <!-- 40 -->
      <g transform="translate(221.061818 322.182437)scale(0.1 -0.1)">
       <defs>
        <path d="M 37.796875 64.3125 
L 12.890625 25.390625 
L 37.796875 25.390625 
z
M 35.203125 72.90625 
L 47.609375 72.90625 
L 47.609375 25.390625 
L 58.015625 25.390625 
L 58.015625 17.1875 
L 47.609375 17.1875 
L 47.609375 0 
L 37.796875 0 
L 37.796875 17.1875 
L 4.890625 17.1875 
L 4.890625 26.703125 
z
" id="DejaVuSans-52"/>
       </defs>
       <use xlink:href="#DejaVuSans-52"/>
       <use x="63.623047" xlink:href="#DejaVuSans-48"/>
      </g>
     </g>
    </g>
    <g id="xtick_5">
     <g id="line2d_5">
      <g>
       <use style="stroke:#000000;stroke-width:0.8;" x="281.466632" xlink:href="#mb8e6f7f5f2" y="307.584"/>
      </g>
     </g>
     <g id="text_5">
      <!-- 60 -->
      <g transform="translate(275.104132 322.182437)scale(0.1 -0.1)">
       <defs>
        <path d="M 33.015625 40.375 
Q 26.375 40.375 22.484375 35.828125 
Q 18.609375 31.296875 18.609375 23.390625 
Q 18.609375 15.53125 22.484375 10.953125 
Q 26.375 6.390625 33.015625 6.390625 
Q 39.65625 6.390625 43.53125 10.953125 
Q 47.40625 15.53125 47.40625 23.390625 
Q 47.40625 31.296875 43.53125 35.828125 
Q 39.65625 40.375 33.015625 40.375 
z
M 52.59375 71.296875 
L 52.59375 62.3125 
Q 48.875 64.0625 45.09375 64.984375 
Q 41.3125 65.921875 37.59375 65.921875 
Q 27.828125 65.921875 22.671875 59.328125 
Q 17.53125 52.734375 16.796875 39.40625 
Q 19.671875 43.65625 24.015625 45.921875 
Q 28.375 48.1875 33.59375 48.1875 
Q 44.578125 48.1875 50.953125 41.515625 
Q 57.328125 34.859375 57.328125 23.390625 
Q 57.328125 12.15625 50.6875 5.359375 
Q 44.046875 -1.421875 33.015625 -1.421875 
Q 20.359375 -1.421875 13.671875 8.265625 
Q 6.984375 17.96875 6.984375 36.375 
Q 6.984375 53.65625 15.1875 63.9375 
Q 23.390625 74.21875 37.203125 74.21875 
Q 40.921875 74.21875 44.703125 73.484375 
Q 48.484375 72.75 52.59375 71.296875 
z
" id="DejaVuSans-54"/>
       </defs>
       <use xlink:href="#DejaVuSans-54"/>
       <use x="63.623047" xlink:href="#DejaVuSans-48"/>
      </g>
     </g>
    </g>
    <g id="xtick_6">
     <g id="line2d_6">
      <g>
       <use style="stroke:#000000;stroke-width:0.8;" x="335.508947" xlink:href="#mb8e6f7f5f2" y="307.584"/>
      </g>
     </g>
     <g id="text_6">
      <!-- 80 -->
      <g transform="translate(329.146447 322.182437)scale(0.1 -0.1)">
       <defs>
        <path d="M 31.78125 34.625 
Q 24.75 34.625 20.71875 30.859375 
Q 16.703125 27.09375 16.703125 20.515625 
Q 16.703125 13.921875 20.71875 10.15625 
Q 24.75 6.390625 31.78125 6.390625 
Q 38.8125 6.390625 42.859375 10.171875 
Q 46.921875 13.96875 46.921875 20.515625 
Q 46.921875 27.09375 42.890625 30.859375 
Q 38.875 34.625 31.78125 34.625 
z
M 21.921875 38.8125 
Q 15.578125 40.375 12.03125 44.71875 
Q 8.5 49.078125 8.5 55.328125 
Q 8.5 64.0625 14.71875 69.140625 
Q 20.953125 74.21875 31.78125 74.21875 
Q 42.671875 74.21875 48.875 69.140625 
Q 55.078125 64.0625 55.078125 55.328125 
Q 55.078125 49.078125 51.53125 44.71875 
Q 48 40.375 41.703125 38.8125 
Q 48.828125 37.15625 52.796875 32.3125 
Q 56.78125 27.484375 56.78125 20.515625 
Q 56.78125 9.90625 50.3125 4.234375 
Q 43.84375 -1.421875 31.78125 -1.421875 
Q 19.734375 -1.421875 13.25 4.234375 
Q 6.78125 9.90625 6.78125 20.515625 
Q 6.78125 27.484375 10.78125 32.3125 
Q 14.796875 37.15625 21.921875 38.8125 
z
M 18.3125 54.390625 
Q 18.3125 48.734375 21.84375 45.5625 
Q 25.390625 42.390625 31.78125 42.390625 
Q 38.140625 42.390625 41.71875 45.5625 
Q 45.3125 48.734375 45.3125 54.390625 
Q 45.3125 60.0625 41.71875 63.234375 
Q 38.140625 66.40625 31.78125 66.40625 
Q 25.390625 66.40625 21.84375 63.234375 
Q 18.3125 60.0625 18.3125 54.390625 
z
" id="DejaVuSans-56"/>
       </defs>
       <use xlink:href="#DejaVuSans-56"/>
       <use x="63.623047" xlink:href="#DejaVuSans-48"/>
      </g>
     </g>
    </g>
    <g id="xtick_7">
     <g id="line2d_7">
      <g>
       <use style="stroke:#000000;stroke-width:0.8;" x="389.551262" xlink:href="#mb8e6f7f5f2" y="307.584"/>
      </g>
     </g>
     <g id="text_7">
      <!-- 100 -->
      <g transform="translate(380.007512 322.182437)scale(0.1 -0.1)">
       <defs>
        <path d="M 12.40625 8.296875 
L 28.515625 8.296875 
L 28.515625 63.921875 
L 10.984375 60.40625 
L 10.984375 69.390625 
L 28.421875 72.90625 
L 38.28125 72.90625 
L 38.28125 8.296875 
L 54.390625 8.296875 
L 54.390625 0 
L 12.40625 0 
z
" id="DejaVuSans-49"/>
       </defs>
       <use xlink:href="#DejaVuSans-49"/>
       <use x="63.623047" xlink:href="#DejaVuSans-48"/>
       <use x="127.246094" xlink:href="#DejaVuSans-48"/>
      </g>
     </g>
    </g>
   </g>
   <g id="matplotlib.axis_2">
    <g id="ytick_1">
     <g id="line2d_8">
      <defs>
       <path d="M 0 0 
L -3.5 0 
" id="m1ba3d28280" style="stroke:#000000;stroke-width:0.8;"/>
      </defs>
      <g>
       <use style="stroke:#000000;stroke-width:0.8;" x="57.6" xlink:href="#m1ba3d28280" y="264.016793"/>
      </g>
     </g>
     <g id="text_8">
      <!-- 20 -->
      <g transform="translate(37.875 267.816012)scale(0.1 -0.1)">
       <use xlink:href="#DejaVuSans-50"/>
       <use x="63.623047" xlink:href="#DejaVuSans-48"/>
      </g>
     </g>
    </g>
    <g id="ytick_2">
     <g id="line2d_9">
      <g>
       <use style="stroke:#000000;stroke-width:0.8;" x="57.6" xlink:href="#m1ba3d28280" y="209.974478"/>
      </g>
     </g>
     <g id="text_9">
      <!-- 40 -->
      <g transform="translate(37.875 213.773697)scale(0.1 -0.1)">
       <use xlink:href="#DejaVuSans-52"/>
       <use x="63.623047" xlink:href="#DejaVuSans-48"/>
      </g>
     </g>
    </g>
    <g id="ytick_3">
     <g id="line2d_10">
      <g>
       <use style="stroke:#000000;stroke-width:0.8;" x="57.6" xlink:href="#m1ba3d28280" y="155.932163"/>
      </g>
     </g>
     <g id="text_10">
      <!-- 60 -->
      <g transform="translate(37.875 159.731382)scale(0.1 -0.1)">
       <use xlink:href="#DejaVuSans-54"/>
       <use x="63.623047" xlink:href="#DejaVuSans-48"/>
      </g>
     </g>
    </g>
    <g id="ytick_4">
     <g id="line2d_11">
      <g>
       <use style="stroke:#000000;stroke-width:0.8;" x="57.6" xlink:href="#m1ba3d28280" y="101.889849"/>
      </g>
     </g>
     <g id="text_11">
      <!-- 80 -->
      <g transform="translate(37.875 105.689067)scale(0.1 -0.1)">
       <use xlink:href="#DejaVuSans-56"/>
       <use x="63.623047" xlink:href="#DejaVuSans-48"/>
      </g>
     </g>
    </g>
    <g id="ytick_5">
     <g id="line2d_12">
      <g>
       <use style="stroke:#000000;stroke-width:0.8;" x="57.6" xlink:href="#m1ba3d28280" y="47.847534"/>
      </g>
     </g>
     <g id="text_12">
      <!-- 100 -->
      <g transform="translate(31.5125 51.646753)scale(0.1 -0.1)">
       <use xlink:href="#DejaVuSans-49"/>
       <use x="63.623047" xlink:href="#DejaVuSans-48"/>
       <use x="127.246094" xlink:href="#DejaVuSans-48"/>
      </g>
     </g>
    </g>
   </g>
   <g id="line2d_13">
    <path clip-path="url(#p98c5e0fe4a)" d="M 222.746955 291.037951 
L 225.073477 286.095781 
L 227.681019 281.331951 
L 230.545261 276.743758 
L 233.64729 272.323097 
L 236.96819 268.06186 
L 240.480941 263.954644 
L 244.166627 259.996045 
L 248.006333 256.177955 
L 251.975741 252.494972 
L 256.055936 248.938987 
L 262.335653 243.810372 
L 275.138277 233.869288 
L 281.488249 228.800119 
L 287.667988 223.525589 
L 291.640098 219.850711 
L 295.450081 216.027218 
L 299.070916 212.022682 
L 302.486391 207.842509 
L 305.710015 203.497507 
L 308.752597 199.014697 
L 311.624946 194.40759 
L 314.335168 189.700504 
L 316.872455 184.896142 
L 319.198977 179.997206 
L 321.276904 175.000994 
L 323.065704 169.902102 
L 324.530251 164.700529 
L 325.662437 159.409786 
L 326.478476 154.048789 
L 326.997283 148.644557 
L 327.240473 143.221411 
L 327.22426 137.803669 
L 326.951347 132.404842 
L 326.405519 127.030334 
L 325.570566 121.682846 
L 324.427571 116.365083 
L 322.963024 111.085149 
L 321.1445 105.88898 
L 320.090675 103.351693 
L 318.936871 100.865747 
L 317.672281 98.447353 
L 316.294202 96.107321 
L 314.799932 93.853756 
L 313.181365 91.702872 
L 311.435798 89.662775 
L 309.557828 87.741571 
L 307.560964 85.936557 
L 305.456016 84.245033 
L 303.253792 82.658891 
L 300.967802 81.175429 
L 296.190461 78.48142 
L 291.223972 76.125175 
L 286.165612 74.055354 
L 281.061315 72.23683 
L 275.90838 70.634476 
L 270.706808 69.213163 
L 262.805821 67.343299 
L 257.469143 66.243538 
L 252.094634 65.324818 
L 246.701211 64.673609 
L 241.307788 64.376376 
L 238.616481 64.387184 
L 235.930578 64.519588 
L 233.255483 64.781693 
L 230.591197 65.162691 
L 225.297752 66.25975 
L 220.066456 67.732404 
L 214.905415 69.502289 
L 209.82814 71.499153 
L 204.842736 73.658143 
L 199.957311 75.984665 
L 195.174566 78.494931 
L 190.502608 81.205153 
L 185.944139 84.13965 
L 181.512669 87.30653 
L 177.259539 90.722004 
L 173.244195 94.39418 
L 169.523381 98.32846 
L 167.791325 100.398281 
L 166.156545 102.538356 
L 164.621744 104.745985 
L 161.827756 109.347688 
L 159.349916 114.15205 
L 157.117968 119.10773 
L 155.067062 124.166091 
L 152.20282 131.831993 
L 150.446444 136.976822 
L 148.8576 142.151373 
L 147.49033 147.363754 
L 146.382462 152.613965 
L 145.582636 157.910112 
L 145.134085 163.254897 
L 145.085447 168.653724 
L 145.223255 171.377457 
L 145.479956 174.111998 
L 145.85555 176.865454 
L 146.360845 179.635123 
L 146.360845 179.635123 
" style="fill:none;stroke:#fea952;stroke-linecap:square;"/>
   </g>
   <g id="line2d_14">
    <path clip-path="url(#p98c5e0fe4a)" d="M 212.897086 286.587901 
L 215.515869 281.048505 
L 218.435761 275.733014 
L 221.619131 270.648919 
L 225.042209 265.782803 
L 228.674657 261.130759 
L 232.495072 256.671186 
L 236.475502 252.402003 
L 240.587838 248.31737 
L 244.81643 244.397618 
L 249.12379 240.646327 
L 255.649832 235.317865 
L 278.50025 217.19356 
L 282.254784 213.846176 
L 285.827169 210.414535 
L 289.173461 206.908897 
L 292.35349 203.212749 
L 295.368229 199.351607 
L 298.248155 195.29562 
L 300.984778 191.092541 
L 303.588274 186.751081 
L 306.0209 182.359582 
L 308.248551 177.933559 
L 310.237801 173.493373 
L 311.958574 169.036041 
L 313.390023 164.557474 
L 314.534298 159.973227 
L 315.401044 155.258945 
L 316.001509 150.456234 
L 316.348674 145.579269 
L 316.454682 140.662191 
L 316.331212 135.771729 
L 315.975488 130.947766 
L 315.369006 126.164406 
L 314.504594 121.443039 
L 313.364363 116.762008 
L 311.96517 112.225446 
L 310.286721 107.902007 
L 308.358863 103.932161 
L 306.163589 100.352713 
L 304.968829 98.729758 
L 303.706588 97.21805 
L 302.30998 95.759773 
L 300.790522 94.361756 
L 299.139163 93.015451 
L 297.370087 91.725583 
L 293.48393 89.300038 
L 289.243957 87.100761 
L 284.72486 85.108689 
L 280.096056 83.336438 
L 275.373898 81.761733 
L 270.553009 80.351981 
L 263.086427 78.483757 
L 255.530954 76.876802 
L 250.644336 76.035538 
L 245.901976 75.452481 
L 241.351195 75.184752 
L 236.984542 75.276541 
L 232.581767 75.786274 
L 228.063262 76.708426 
L 223.439387 78.001104 
L 218.766071 79.597744 
L 214.037798 81.454134 
L 209.393985 83.461663 
L 204.877315 85.608408 
L 200.499724 87.900544 
L 196.241745 90.364038 
L 192.114267 93.013905 
L 188.161016 95.828405 
L 184.421638 98.816892 
L 180.951244 101.97206 
L 177.812463 105.264885 
L 175.03104 108.708139 
L 172.526276 112.4497 
L 170.234805 116.531696 
L 168.112373 120.938593 
L 166.120885 125.609733 
L 163.292571 132.95722 
L 160.749781 140.242419 
L 159.281458 145.009004 
L 158.03523 149.736085 
L 157.043864 154.390866 
L 156.336047 158.999617 
L 155.938288 163.558325 
L 155.880102 168.107566 
L 156.189243 172.651163 
L 156.488507 174.925588 
L 156.993803 177.695256 
L 156.993803 177.695256 
" style="fill:none;stroke:#ffffff;stroke-linecap:square;"/>
   </g>
   <g id="line2d_15">
    <path clip-path="url(#p98c5e0fe4a)" d="M 232.596825 295.488 
L 234.631085 291.143057 
L 236.926276 286.930887 
L 239.471392 282.838598 
L 242.252371 278.863391 
L 245.261724 274.992962 
L 248.46681 271.238103 
L 251.857751 267.590087 
L 255.424828 264.038541 
L 259.135052 260.592325 
L 264.955445 255.585877 
L 271.088074 250.675642 
L 288.392815 237.115757 
L 292.771744 233.429814 
L 297.091132 229.567953 
L 301.306244 225.503926 
L 305.401579 221.189641 
L 309.252455 216.692974 
L 312.879517 212.026238 
L 316.257691 207.251711 
L 319.433297 202.359469 
L 322.412373 197.378629 
L 325.238063 192.258681 
L 327.879625 186.984109 
L 330.305632 181.529146 
L 332.459693 175.891374 
L 334.292399 170.069476 
L 335.742156 164.158705 
L 336.815529 158.210439 
L 337.544505 152.242516 
L 337.953933 146.289402 
L 338.069498 140.360187 
L 337.906544 134.431378 
L 337.451633 128.484707 
L 336.680036 122.540668 
L 335.571903 116.599486 
L 334.107295 110.677415 
L 332.236927 104.718959 
L 331.126254 101.743204 
L 329.894629 98.80138 
L 328.514907 95.857344 
L 326.985699 92.962546 
L 325.302314 90.134316 
L 323.436276 87.354799 
L 321.393901 84.675987 
L 319.165008 82.107499 
L 316.805675 79.723368 
L 314.331407 77.511358 
L 311.772869 75.474615 
L 309.137496 73.592199 
L 306.459556 71.866106 
L 303.733779 70.267642 
L 298.208306 67.430175 
L 292.675532 65.00699 
L 287.138977 62.899003 
L 281.609308 61.063637 
L 276.07569 59.452424 
L 270.569745 58.040094 
L 262.253654 56.17523 
L 256.489814 55.081138 
L 250.541067 54.211904 
L 244.394131 53.672214 
L 241.264381 53.568 
L 238.084316 53.59183 
L 234.876614 53.762635 
L 231.725417 54.082078 
L 228.600628 54.539109 
L 225.542802 55.120087 
L 219.582982 56.597144 
L 213.836458 58.405999 
L 208.303527 60.457198 
L 202.942536 62.677493 
L 197.643784 65.086104 
L 192.426848 67.698283 
L 187.305293 70.532442 
L 182.247861 73.626387 
L 177.312183 76.981458 
L 172.476138 80.653233 
L 167.794626 84.672401 
L 165.537146 86.816299 
L 163.345757 89.056722 
L 161.234299 91.392035 
L 159.202153 93.837108 
L 157.282051 96.368573 
L 155.492347 98.960054 
L 153.836755 101.587229 
L 150.869909 106.924808 
L 148.301469 112.288762 
L 146.023614 117.647875 
L 142.972124 125.583555 
L 140.143108 133.711224 
L 138.433742 139.293742 
L 136.94543 144.991424 
L 135.72106 150.837065 
L 134.829225 156.820608 
L 134.329882 162.951469 
L 134.250502 166.056878 
L 134.290791 169.199883 
L 134.462103 172.387644 
L 134.770668 175.572833 
L 135.222592 178.805321 
L 135.727888 181.574989 
L 135.727888 181.574989 
" style="fill:none;stroke:#ffffff;stroke-linecap:square;"/>
   </g>
   <g id="patch_3">
    <path d="M 57.6 307.584 
L 57.6 41.472 
" style="fill:none;stroke:#000000;stroke-linecap:square;stroke-linejoin:miter;stroke-width:0.8;"/>
   </g>
   <g id="patch_4">
    <path d="M 414.72 307.584 
L 414.72 41.472 
" style="fill:none;stroke:#000000;stroke-linecap:square;stroke-linejoin:miter;stroke-width:0.8;"/>
   </g>
   <g id="patch_5">
    <path d="M 57.6 307.584 
L 414.72 307.584 
" style="fill:none;stroke:#000000;stroke-linecap:square;stroke-linejoin:miter;stroke-width:0.8;"/>
   </g>
   <g id="patch_6">
    <path d="M 57.6 41.472 
L 414.72 41.472 
" style="fill:none;stroke:#000000;stroke-linecap:square;stroke-linejoin:miter;stroke-width:0.8;"/>
   </g>
  </g>
 </g>
 <defs>
  <clipPath id="p98c5e0fe4a">
   <rect height="266.112" width="357.12" x="57.6" y="41.472"/>
  </clipPath>
 </defs>
</svg>
