<?xml version="1.0" encoding="utf-8" standalone="no"?>
<!DOCTYPE svg PUBLIC "-//W3C//DTD SVG 1.1//EN"
  "http://www.w3.org/Graphics/SVG/1.1/DTD/svg11.dtd">
<!-- Created with matplotlib (https://matplotlib.org/) -->
<svg height="345.6pt" version="1.1" viewBox="0 0 460.8 345.6" width="460.8pt" xmlns="http://www.w3.org/2000/svg" xmlns:xlink="http://www.w3.org/1999/xlink">
 <metadata>
  <rdf:RDF xmlns:cc="http://creativecommons.org/ns#" xmlns:dc="http://purl.org/dc/elements/1.1/" xmlns:rdf="http://www.w3.org/1999/02/22-rdf-syntax-ns#">
   <cc:Work>
    <dc:type rdf:resource="http://purl.org/dc/dcmitype/StillImage"/>
    <dc:date>2021-01-25T12:40:20.880423</dc:date>
    <dc:format>image/svg+xml</dc:format>
    <dc:creator>
     <cc:Agent>
      <dc:title>Matplotlib v3.3.3, https://matplotlib.org/</dc:title>
     </cc:Agent>
    </dc:creator>
   </cc:Work>
  </rdf:RDF>
 </metadata>
 <defs>
  <style type="text/css">*{stroke-linecap:butt;stroke-linejoin:round;}</style>
 </defs>
 <g id="figure_1">
  <g id="patch_1">
   <path d="M 0 345.6 
L 460.8 345.6 
L 460.8 0 
L 0 0 
z
" style="fill:#ffffff;"/>
  </g>
  <g id="axes_1">
   <g id="patch_2">
    <path d="M 57.6 307.584 
L 414.72 307.584 
L 414.72 41.472 
L 57.6 41.472 
z
" style="fill:#7d9051;"/>
   </g>
   <g id="matplotlib.axis_1">
    <g id="xtick_1">
     <g id="line2d_1">
      <defs>
       <path d="M 0 0 
L 0 3.5 
" id="m8f0956bca6" style="stroke:#000000;stroke-width:0.8;"/>
      </defs>
      <g>
       <use style="stroke:#000000;stroke-width:0.8;" x="93.229385" xlink:href="#m8f0956bca6" y="307.584"/>
      </g>
     </g>
     <g id="text_1">
      <!-- 0 -->
      <g transform="translate(90.048135 322.182437)scale(0.1 -0.1)">
       <defs>
        <path d="M 31.78125 66.40625 
Q 24.171875 66.40625 20.328125 58.90625 
Q 16.5 51.421875 16.5 36.375 
Q 16.5 21.390625 20.328125 13.890625 
Q 24.171875 6.390625 31.78125 6.390625 
Q 39.453125 6.390625 43.28125 13.890625 
Q 47.125 21.390625 47.125 36.375 
Q 47.125 51.421875 43.28125 58.90625 
Q 39.453125 66.40625 31.78125 66.40625 
z
M 31.78125 74.21875 
Q 44.046875 74.21875 50.515625 64.515625 
Q 56.984375 54.828125 56.984375 36.375 
Q 56.984375 17.96875 50.515625 8.265625 
Q 44.046875 -1.421875 31.78125 -1.421875 
Q 19.53125 -1.421875 13.0625 8.265625 
Q 6.59375 17.96875 6.59375 36.375 
Q 6.59375 54.828125 13.0625 64.515625 
Q 19.53125 74.21875 31.78125 74.21875 
z
" id="DejaVuSans-48"/>
       </defs>
       <use xlink:href="#DejaVuSans-48"/>
      </g>
     </g>
    </g>
    <g id="xtick_2">
     <g id="line2d_2">
      <g>
       <use style="stroke:#000000;stroke-width:0.8;" x="160.524616" xlink:href="#m8f0956bca6" y="307.584"/>
      </g>
     </g>
     <g id="text_2">
      <!-- 20 -->
      <g transform="translate(154.162116 322.182437)scale(0.1 -0.1)">
       <defs>
        <path d="M 19.1875 8.296875 
L 53.609375 8.296875 
L 53.609375 0 
L 7.328125 0 
L 7.328125 8.296875 
Q 12.9375 14.109375 22.625 23.890625 
Q 32.328125 33.6875 34.8125 36.53125 
Q 39.546875 41.84375 41.421875 45.53125 
Q 43.3125 49.21875 43.3125 52.78125 
Q 43.3125 58.59375 39.234375 62.25 
Q 35.15625 65.921875 28.609375 65.921875 
Q 23.96875 65.921875 18.8125 64.3125 
Q 13.671875 62.703125 7.8125 59.421875 
L 7.8125 69.390625 
Q 13.765625 71.78125 18.9375 73 
Q 24.125 74.21875 28.421875 74.21875 
Q 39.75 74.21875 46.484375 68.546875 
Q 53.21875 62.890625 53.21875 53.421875 
Q 53.21875 48.921875 51.53125 44.890625 
Q 49.859375 40.875 45.40625 35.40625 
Q 44.1875 33.984375 37.640625 27.21875 
Q 31.109375 20.453125 19.1875 8.296875 
z
" id="DejaVuSans-50"/>
       </defs>
       <use xlink:href="#DejaVuSans-50"/>
       <use x="63.623047" xlink:href="#DejaVuSans-48"/>
      </g>
     </g>
    </g>
    <g id="xtick_3">
     <g id="line2d_3">
      <g>
       <use style="stroke:#000000;stroke-width:0.8;" x="227.819847" xlink:href="#m8f0956bca6" y="307.584"/>
      </g>
     </g>
     <g id="text_3">
      <!-- 40 -->
      <g transform="translate(221.457347 322.182437)scale(0.1 -0.1)">
       <defs>
        <path d="M 37.796875 64.3125 
L 12.890625 25.390625 
L 37.796875 25.390625 
z
M 35.203125 72.90625 
L 47.609375 72.90625 
L 47.609375 25.390625 
L 58.015625 25.390625 
L 58.015625 17.1875 
L 47.609375 17.1875 
L 47.609375 0 
L 37.796875 0 
L 37.796875 17.1875 
L 4.890625 17.1875 
L 4.890625 26.703125 
z
" id="DejaVuSans-52"/>
       </defs>
       <use xlink:href="#DejaVuSans-52"/>
       <use x="63.623047" xlink:href="#DejaVuSans-48"/>
      </g>
     </g>
    </g>
    <g id="xtick_4">
     <g id="line2d_4">
      <g>
       <use style="stroke:#000000;stroke-width:0.8;" x="295.115078" xlink:href="#m8f0956bca6" y="307.584"/>
      </g>
     </g>
     <g id="text_4">
      <!-- 60 -->
      <g transform="translate(288.752578 322.182437)scale(0.1 -0.1)">
       <defs>
        <path d="M 33.015625 40.375 
Q 26.375 40.375 22.484375 35.828125 
Q 18.609375 31.296875 18.609375 23.390625 
Q 18.609375 15.53125 22.484375 10.953125 
Q 26.375 6.390625 33.015625 6.390625 
Q 39.65625 6.390625 43.53125 10.953125 
Q 47.40625 15.53125 47.40625 23.390625 
Q 47.40625 31.296875 43.53125 35.828125 
Q 39.65625 40.375 33.015625 40.375 
z
M 52.59375 71.296875 
L 52.59375 62.3125 
Q 48.875 64.0625 45.09375 64.984375 
Q 41.3125 65.921875 37.59375 65.921875 
Q 27.828125 65.921875 22.671875 59.328125 
Q 17.53125 52.734375 16.796875 39.40625 
Q 19.671875 43.65625 24.015625 45.921875 
Q 28.375 48.1875 33.59375 48.1875 
Q 44.578125 48.1875 50.953125 41.515625 
Q 57.328125 34.859375 57.328125 23.390625 
Q 57.328125 12.15625 50.6875 5.359375 
Q 44.046875 -1.421875 33.015625 -1.421875 
Q 20.359375 -1.421875 13.671875 8.265625 
Q 6.984375 17.96875 6.984375 36.375 
Q 6.984375 53.65625 15.1875 63.9375 
Q 23.390625 74.21875 37.203125 74.21875 
Q 40.921875 74.21875 44.703125 73.484375 
Q 48.484375 72.75 52.59375 71.296875 
z
" id="DejaVuSans-54"/>
       </defs>
       <use xlink:href="#DejaVuSans-54"/>
       <use x="63.623047" xlink:href="#DejaVuSans-48"/>
      </g>
     </g>
    </g>
    <g id="xtick_5">
     <g id="line2d_5">
      <g>
       <use style="stroke:#000000;stroke-width:0.8;" x="362.410309" xlink:href="#m8f0956bca6" y="307.584"/>
      </g>
     </g>
     <g id="text_5">
      <!-- 80 -->
      <g transform="translate(356.047809 322.182437)scale(0.1 -0.1)">
       <defs>
        <path d="M 31.78125 34.625 
Q 24.75 34.625 20.71875 30.859375 
Q 16.703125 27.09375 16.703125 20.515625 
Q 16.703125 13.921875 20.71875 10.15625 
Q 24.75 6.390625 31.78125 6.390625 
Q 38.8125 6.390625 42.859375 10.171875 
Q 46.921875 13.96875 46.921875 20.515625 
Q 46.921875 27.09375 42.890625 30.859375 
Q 38.875 34.625 31.78125 34.625 
z
M 21.921875 38.8125 
Q 15.578125 40.375 12.03125 44.71875 
Q 8.5 49.078125 8.5 55.328125 
Q 8.5 64.0625 14.71875 69.140625 
Q 20.953125 74.21875 31.78125 74.21875 
Q 42.671875 74.21875 48.875 69.140625 
Q 55.078125 64.0625 55.078125 55.328125 
Q 55.078125 49.078125 51.53125 44.71875 
Q 48 40.375 41.703125 38.8125 
Q 48.828125 37.15625 52.796875 32.3125 
Q 56.78125 27.484375 56.78125 20.515625 
Q 56.78125 9.90625 50.3125 4.234375 
Q 43.84375 -1.421875 31.78125 -1.421875 
Q 19.734375 -1.421875 13.25 4.234375 
Q 6.78125 9.90625 6.78125 20.515625 
Q 6.78125 27.484375 10.78125 32.3125 
Q 14.796875 37.15625 21.921875 38.8125 
z
M 18.3125 54.390625 
Q 18.3125 48.734375 21.84375 45.5625 
Q 25.390625 42.390625 31.78125 42.390625 
Q 38.140625 42.390625 41.71875 45.5625 
Q 45.3125 48.734375 45.3125 54.390625 
Q 45.3125 60.0625 41.71875 63.234375 
Q 38.140625 66.40625 31.78125 66.40625 
Q 25.390625 66.40625 21.84375 63.234375 
Q 18.3125 60.0625 18.3125 54.390625 
z
" id="DejaVuSans-56"/>
       </defs>
       <use xlink:href="#DejaVuSans-56"/>
       <use x="63.623047" xlink:href="#DejaVuSans-48"/>
      </g>
     </g>
    </g>
   </g>
   <g id="matplotlib.axis_2">
    <g id="ytick_1">
     <g id="line2d_6">
      <defs>
       <path d="M 0 0 
L -3.5 0 
" id="m44245c48ed" style="stroke:#000000;stroke-width:0.8;"/>
      </defs>
      <g>
       <use style="stroke:#000000;stroke-width:0.8;" x="57.6" xlink:href="#m44245c48ed" y="281.103264"/>
      </g>
     </g>
     <g id="text_6">
      <!-- 10 -->
      <g transform="translate(37.875 284.902483)scale(0.1 -0.1)">
       <defs>
        <path d="M 12.40625 8.296875 
L 28.515625 8.296875 
L 28.515625 63.921875 
L 10.984375 60.40625 
L 10.984375 69.390625 
L 28.421875 72.90625 
L 38.28125 72.90625 
L 38.28125 8.296875 
L 54.390625 8.296875 
L 54.390625 0 
L 12.40625 0 
z
" id="DejaVuSans-49"/>
       </defs>
       <use xlink:href="#DejaVuSans-49"/>
       <use x="63.623047" xlink:href="#DejaVuSans-48"/>
      </g>
     </g>
    </g>
    <g id="ytick_2">
     <g id="line2d_7">
      <g>
       <use style="stroke:#000000;stroke-width:0.8;" x="57.6" xlink:href="#m44245c48ed" y="247.455649"/>
      </g>
     </g>
     <g id="text_7">
      <!-- 20 -->
      <g transform="translate(37.875 251.254867)scale(0.1 -0.1)">
       <use xlink:href="#DejaVuSans-50"/>
       <use x="63.623047" xlink:href="#DejaVuSans-48"/>
      </g>
     </g>
    </g>
    <g id="ytick_3">
     <g id="line2d_8">
      <g>
       <use style="stroke:#000000;stroke-width:0.8;" x="57.6" xlink:href="#m44245c48ed" y="213.808033"/>
      </g>
     </g>
     <g id="text_8">
      <!-- 30 -->
      <g transform="translate(37.875 217.607252)scale(0.1 -0.1)">
       <defs>
        <path d="M 40.578125 39.3125 
Q 47.65625 37.796875 51.625 33 
Q 55.609375 28.21875 55.609375 21.1875 
Q 55.609375 10.40625 48.1875 4.484375 
Q 40.765625 -1.421875 27.09375 -1.421875 
Q 22.515625 -1.421875 17.65625 -0.515625 
Q 12.796875 0.390625 7.625 2.203125 
L 7.625 11.71875 
Q 11.71875 9.328125 16.59375 8.109375 
Q 21.484375 6.890625 26.8125 6.890625 
Q 36.078125 6.890625 40.9375 10.546875 
Q 45.796875 14.203125 45.796875 21.1875 
Q 45.796875 27.640625 41.28125 31.265625 
Q 36.765625 34.90625 28.71875 34.90625 
L 20.21875 34.90625 
L 20.21875 43.015625 
L 29.109375 43.015625 
Q 36.375 43.015625 40.234375 45.921875 
Q 44.09375 48.828125 44.09375 54.296875 
Q 44.09375 59.90625 40.109375 62.90625 
Q 36.140625 65.921875 28.71875 65.921875 
Q 24.65625 65.921875 20.015625 65.03125 
Q 15.375 64.15625 9.8125 62.3125 
L 9.8125 71.09375 
Q 15.4375 72.65625 20.34375 73.4375 
Q 25.25 74.21875 29.59375 74.21875 
Q 40.828125 74.21875 47.359375 69.109375 
Q 53.90625 64.015625 53.90625 55.328125 
Q 53.90625 49.265625 50.4375 45.09375 
Q 46.96875 40.921875 40.578125 39.3125 
z
" id="DejaVuSans-51"/>
       </defs>
       <use xlink:href="#DejaVuSans-51"/>
       <use x="63.623047" xlink:href="#DejaVuSans-48"/>
      </g>
     </g>
    </g>
    <g id="ytick_4">
     <g id="line2d_9">
      <g>
       <use style="stroke:#000000;stroke-width:0.8;" x="57.6" xlink:href="#m44245c48ed" y="180.160418"/>
      </g>
     </g>
     <g id="text_9">
      <!-- 40 -->
      <g transform="translate(37.875 183.959636)scale(0.1 -0.1)">
       <use xlink:href="#DejaVuSans-52"/>
       <use x="63.623047" xlink:href="#DejaVuSans-48"/>
      </g>
     </g>
    </g>
    <g id="ytick_5">
     <g id="line2d_10">
      <g>
       <use style="stroke:#000000;stroke-width:0.8;" x="57.6" xlink:href="#m44245c48ed" y="146.512802"/>
      </g>
     </g>
     <g id="text_10">
      <!-- 50 -->
      <g transform="translate(37.875 150.312021)scale(0.1 -0.1)">
       <defs>
        <path d="M 10.796875 72.90625 
L 49.515625 72.90625 
L 49.515625 64.59375 
L 19.828125 64.59375 
L 19.828125 46.734375 
Q 21.96875 47.46875 24.109375 47.828125 
Q 26.265625 48.1875 28.421875 48.1875 
Q 40.625 48.1875 47.75 41.5 
Q 54.890625 34.8125 54.890625 23.390625 
Q 54.890625 11.625 47.5625 5.09375 
Q 40.234375 -1.421875 26.90625 -1.421875 
Q 22.3125 -1.421875 17.546875 -0.640625 
Q 12.796875 0.140625 7.71875 1.703125 
L 7.71875 11.625 
Q 12.109375 9.234375 16.796875 8.0625 
Q 21.484375 6.890625 26.703125 6.890625 
Q 35.15625 6.890625 40.078125 11.328125 
Q 45.015625 15.765625 45.015625 23.390625 
Q 45.015625 31 40.078125 35.4375 
Q 35.15625 39.890625 26.703125 39.890625 
Q 22.75 39.890625 18.8125 39.015625 
Q 14.890625 38.140625 10.796875 36.28125 
z
" id="DejaVuSans-53"/>
       </defs>
       <use xlink:href="#DejaVuSans-53"/>
       <use x="63.623047" xlink:href="#DejaVuSans-48"/>
      </g>
     </g>
    </g>
    <g id="ytick_6">
     <g id="line2d_11">
      <g>
       <use style="stroke:#000000;stroke-width:0.8;" x="57.6" xlink:href="#m44245c48ed" y="112.865186"/>
      </g>
     </g>
     <g id="text_11">
      <!-- 60 -->
      <g transform="translate(37.875 116.664405)scale(0.1 -0.1)">
       <use xlink:href="#DejaVuSans-54"/>
       <use x="63.623047" xlink:href="#DejaVuSans-48"/>
      </g>
     </g>
    </g>
    <g id="ytick_7">
     <g id="line2d_12">
      <g>
       <use style="stroke:#000000;stroke-width:0.8;" x="57.6" xlink:href="#m44245c48ed" y="79.217571"/>
      </g>
     </g>
     <g id="text_12">
      <!-- 70 -->
      <g transform="translate(37.875 83.01679)scale(0.1 -0.1)">
       <defs>
        <path d="M 8.203125 72.90625 
L 55.078125 72.90625 
L 55.078125 68.703125 
L 28.609375 0 
L 18.3125 0 
L 43.21875 64.59375 
L 8.203125 64.59375 
z
" id="DejaVuSans-55"/>
       </defs>
       <use xlink:href="#DejaVuSans-55"/>
       <use x="63.623047" xlink:href="#DejaVuSans-48"/>
      </g>
     </g>
    </g>
    <g id="ytick_8">
     <g id="line2d_13">
      <g>
       <use style="stroke:#000000;stroke-width:0.8;" x="57.6" xlink:href="#m44245c48ed" y="45.569955"/>
      </g>
     </g>
     <g id="text_13">
      <!-- 80 -->
      <g transform="translate(37.875 49.369174)scale(0.1 -0.1)">
       <use xlink:href="#DejaVuSans-56"/>
       <use x="63.623047" xlink:href="#DejaVuSans-48"/>
      </g>
     </g>
    </g>
   </g>
   <g id="line2d_14">
    <path clip-path="url(#paa97209871)" d="M 344.953926 166.102444 
L 345.418263 152.919308 
L 345.495653 146.139313 
L 345.374522 139.302118 
L 344.980844 132.454828 
L 344.240597 125.654645 
L 343.719059 122.289883 
L 343.083119 118.95204 
L 342.322683 115.651209 
L 341.427656 112.397484 
L 340.394674 109.190867 
L 339.210278 106.038085 
L 337.864374 102.952599 
L 336.350231 99.934408 
L 334.661121 96.993606 
L 332.800408 94.136924 
L 330.781551 91.381184 
L 328.607915 88.736481 
L 326.292959 86.21291 
L 323.843412 83.823929 
L 321.266005 81.579633 
L 318.570831 79.493481 
L 315.76462 77.578932 
L 312.860831 75.83935 
L 309.866193 74.29156 
L 306.790801 72.925467 
L 303.638019 71.730976 
L 300.424672 70.697994 
L 297.154124 69.816427 
L 293.839833 69.076179 
L 290.491896 68.463793 
L 283.718631 67.59232 
L 276.908353 67.121253 
L 270.1149 67.030404 
L 266.72995 67.141442 
L 263.361823 67.363516 
L 260.003791 67.699992 
L 256.669313 68.160964 
L 253.355022 68.749798 
L 250.064286 69.473221 
L 246.800467 70.331235 
L 243.573661 71.337299 
L 240.380502 72.481318 
L 237.23445 73.763292 
L 234.145599 75.176492 
L 231.117313 76.724282 
L 228.156323 78.396569 
L 225.276087 80.193352 
L 222.47997 82.107901 
L 219.778067 84.140217 
L 217.177106 86.28357 
L 214.680453 88.53796 
L 212.278013 90.883199 
L 207.701938 95.80921 
L 203.337842 100.947201 
L 192.631171 113.995746 
L 185.968943 121.583284 
L 176.880722 131.502601 
L 165.524651 143.921936 
L 158.896071 151.539756 
L 154.616094 156.734948 
L 150.487532 162.051271 
L 146.540667 167.512279 
L 142.815876 173.128066 
L 139.360266 178.912091 
L 136.210849 184.881178 
L 133.414732 191.045421 
L 132.163041 194.204932 
L 131.019022 197.41155 
L 129.992769 200.658545 
L 129.094378 203.942552 
L 128.330577 207.253478 
L 127.714826 210.587956 
L 127.250489 213.942624 
L 126.951025 217.307385 
L 126.823164 220.678876 
L 126.877 224.053732 
L 127.122628 227.421858 
L 127.553317 230.776526 
L 128.169069 234.10764 
L 128.966517 237.405106 
L 129.938933 240.66556 
L 131.086317 243.872178 
L 132.405303 247.021594 
L 133.889163 250.107081 
L 135.537896 253.111813 
L 137.344773 256.032426 
L 139.306429 258.855461 
L 141.416135 261.574188 
L 143.670525 264.171784 
L 146.059506 266.638154 
L 148.579712 268.95984 
L 151.22105 271.120017 
L 153.97679 273.11532 
L 156.843567 274.925562 
L 159.811286 276.537283 
L 162.876584 277.947118 
L 166.029366 279.134879 
L 169.259537 280.11066 
L 172.550274 280.88119 
L 175.898211 281.4532 
L 179.283161 281.830053 
L 182.69503 282.025209 
L 186.123722 282.042033 
L 189.555778 281.890619 
L 192.974376 281.574331 
L 196.37615 281.103264 
L 199.744276 280.480783 
L 203.068661 279.710253 
L 206.349303 278.788308 
L 209.572745 277.718314 
L 212.735621 276.493541 
L 215.827837 275.113989 
L 218.849393 273.579657 
L 221.786829 271.893912 
L 224.633418 270.050023 
L 227.385793 268.047989 
L 230.037225 265.887813 
L 232.57089 263.579586 
L 234.976695 261.133404 
L 237.237815 258.552632 
L 239.34752 255.847364 
L 241.288987 253.031059 
L 243.048758 250.107081 
L 244.616737 247.085525 
L 245.9761 243.976485 
L 247.116754 240.790056 
L 248.028605 237.532967 
L 248.711651 234.215312 
L 249.169259 230.85728 
L 249.414887 227.4656 
L 249.445169 224.050367 
L 249.266837 220.63177 
L 248.886619 217.219901 
L 248.311245 213.828222 
L 247.540714 210.46346 
L 246.581757 207.145805 
L 245.444468 203.885351 
L 244.128846 200.695557 
L 242.638257 197.586518 
L 240.982794 194.575056 
L 239.165823 191.671267 
L 237.190708 188.885244 
L 235.060814 186.237177 
L 232.786235 183.733794 
L 230.370336 181.388556 
L 227.816482 179.218284 
L 227.816482 179.218284 
" style="fill:none;stroke:#fea952;stroke-linecap:square;"/>
   </g>
   <g id="line2d_15">
    <path clip-path="url(#paa97209871)" d="M 331.505973 165.556121 
L 331.961146 152.691448 
L 332.037136 146.25865 
L 331.929797 139.922847 
L 331.581832 133.724626 
L 330.940371 127.71618 
L 329.967617 121.973552 
L 329.345655 119.220898 
L 328.61692 116.524343 
L 327.795342 113.92402 
L 326.873815 111.419312 
L 325.834294 108.987756 
L 324.679327 106.637833 
L 323.383455 104.339365 
L 321.943174 102.090941 
L 320.38371 99.926992 
L 318.689817 97.834683 
L 316.89584 95.848266 
L 315.004985 93.974207 
L 313.02781 92.22285 
L 310.985546 90.611456 
L 308.847869 89.124688 
L 306.681091 87.795802 
L 304.402454 86.591701 
L 302.022352 85.511484 
L 299.518993 84.544233 
L 296.921841 83.693228 
L 294.220328 82.951828 
L 291.418156 82.315568 
L 288.568069 81.784634 
L 282.605305 81.00524 
L 276.535375 80.57513 
L 270.556162 80.482215 
L 264.703706 80.755501 
L 259.023645 81.412494 
L 256.244806 81.894952 
L 250.806571 83.180245 
L 248.113112 84.00771 
L 245.459405 84.945293 
L 242.83396 86.002222 
L 240.270959 87.160894 
L 237.735985 88.44346 
L 235.280008 89.815809 
L 232.880026 91.298577 
L 230.570392 92.863876 
L 228.337377 94.526946 
L 226.197085 96.27286 
L 224.082091 98.168907 
L 219.945618 102.332536 
L 215.826588 106.993128 
L 209.531916 114.65917 
L 202.821517 122.787945 
L 195.945479 130.617367 
L 186.760664 140.642221 
L 175.596687 152.849422 
L 169.228977 160.163965 
L 165.184691 165.068656 
L 161.32214 170.036081 
L 157.676809 175.070868 
L 154.28392 180.172914 
L 151.175903 185.356984 
L 148.382465 190.625538 
L 145.927616 196.002602 
L 143.852329 201.467673 
L 142.974804 204.209983 
L 141.565853 209.69753 
L 141.046766 212.4333 
L 140.656545 215.135763 
L 140.400403 217.817441 
L 140.280498 220.464203 
L 140.300399 223.074803 
L 140.472106 225.707984 
L 140.788152 228.330086 
L 141.251002 230.943948 
L 141.864156 233.558442 
L 142.611171 236.131212 
L 143.500614 238.673028 
L 144.534606 241.188418 
L 145.688604 243.632583 
L 146.983621 246.03076 
L 148.397401 248.352233 
L 149.939563 250.604255 
L 151.580905 252.752432 
L 153.337971 254.807682 
L 155.178624 256.739285 
L 157.100321 258.541339 
L 159.114311 260.218532 
L 161.162821 261.735211 
L 163.266839 263.098158 
L 165.435233 264.309562 
L 167.621515 265.352216 
L 169.921412 266.250862 
L 172.327996 267.006062 
L 174.816963 267.614388 
L 177.387433 268.076797 
L 180.051752 268.39297 
L 182.761069 268.566325 
L 185.530517 268.596066 
L 188.315847 268.488809 
L 191.128228 268.242502 
L 193.930137 267.86835 
L 196.705284 267.369321 
L 199.427378 266.753132 
L 202.109183 266.014613 
L 204.71261 265.167417 
L 207.252017 264.202243 
L 209.734049 263.113502 
L 212.150247 261.906296 
L 214.46965 260.597682 
L 216.716397 259.165782 
L 218.884667 257.613586 
L 220.973173 255.938496 
L 222.975041 254.142128 
L 224.853456 252.264022 
L 226.624557 250.275876 
L 228.266368 248.208386 
L 229.757328 246.090831 
L 231.102443 243.907768 
L 232.284908 241.693686 
L 233.304486 239.440395 
L 234.156038 237.161591 
L 234.846047 234.818911 
L 235.37586 232.39801 
L 235.745369 229.885113 
L 235.956369 227.346264 
L 236.004398 224.75151 
L 235.890593 222.122416 
L 235.617157 219.470971 
L 235.191802 216.832574 
L 234.610962 214.200762 
L 233.873629 211.578568 
L 233.002175 209.017141 
L 231.992542 206.514153 
L 230.843836 204.070155 
L 229.573261 201.714277 
L 228.18604 199.455243 
L 226.703097 197.320642 
L 225.099503 195.288045 
L 223.411526 193.390955 
L 221.654783 191.644532 
L 219.100929 189.474261 
L 219.100929 189.474261 
" style="fill:none;stroke:#ffffff;stroke-linecap:square;"/>
   </g>
   <g id="line2d_16">
    <path clip-path="url(#paa97209871)" d="M 358.40188 166.648767 
L 358.875381 153.147168 
L 358.95417 146.019977 
L 358.819246 138.681389 
L 358.379857 131.18503 
L 357.540822 123.59311 
L 356.940282 119.770921 
L 356.198621 115.930528 
L 355.29971 112.08152 
L 354.238393 108.270626 
L 352.994007 104.457713 
L 351.546741 100.656858 
L 349.894453 96.917442 
L 348.021135 93.230982 
L 345.938787 89.647847 
L 343.657642 86.182906 
L 341.179391 82.835376 
L 338.526012 79.63828 
L 335.690078 76.577554 
L 332.681839 73.673652 
L 329.5042 70.936417 
L 326.156116 68.375506 
L 322.681371 66.033176 
L 319.04057 63.882898 
L 315.329932 61.991418 
L 311.559249 60.33945 
L 307.757045 58.917719 
L 303.927502 57.702761 
L 300.087919 56.681026 
L 296.261511 55.836791 
L 292.415722 55.142951 
L 288.624707 54.601946 
L 284.831956 54.179399 
L 277.281332 53.667376 
L 269.673638 53.578594 
L 265.844463 53.711556 
L 262.019941 53.97153 
L 258.160685 54.367742 
L 254.31498 54.909434 
L 250.465239 55.604643 
L 246.642351 56.456452 
L 242.794363 57.482226 
L 239.034209 58.666889 
L 235.301599 60.017343 
L 231.634939 61.524362 
L 228.020238 63.192091 
L 224.498642 65.005105 
L 221.032638 66.977329 
L 217.672148 69.088126 
L 214.389548 71.351926 
L 211.218757 73.753488 
L 208.157127 76.29428 
L 205.278815 78.907014 
L 202.547847 81.584286 
L 197.511591 87.017011 
L 192.916336 92.430269 
L 182.440824 105.203547 
L 175.992407 112.5492 
L 167.000779 122.362981 
L 155.452615 134.994449 
L 148.563165 142.915547 
L 144.047498 148.401239 
L 139.652924 154.06646 
L 135.404525 159.95369 
L 131.347831 166.083218 
L 127.544628 172.467198 
L 124.039232 179.136818 
L 122.427881 182.565453 
L 120.901847 186.08824 
L 119.486589 189.682379 
L 118.185714 193.355427 
L 117.010735 197.107107 
L 115.979777 200.917131 
L 115.095301 204.809426 
L 114.382885 208.742613 
L 113.844432 212.749485 
L 113.501647 216.797329 
L 113.36583 220.89355 
L 113.453602 225.032661 
L 113.77315 229.135733 
L 114.318482 233.222965 
L 115.087135 237.271332 
L 116.068878 241.25177 
L 117.266695 245.199907 
L 118.67202 249.071328 
L 120.276001 252.854771 
L 122.089722 256.581578 
L 124.092172 260.192866 
L 126.292146 263.712619 
L 128.673296 267.106667 
L 131.251365 270.395944 
L 134.003079 273.535886 
L 136.940388 276.537023 
L 140.059104 279.378341 
L 143.32779 282.021501 
L 146.790758 284.495429 
L 150.420294 286.752966 
L 154.18734 288.765004 
L 158.131653 290.54202 
L 162.137319 292.018896 
L 166.191078 293.215258 
L 170.283584 294.147992 
L 174.40899 294.829602 
L 178.514571 295.267136 
L 182.62899 295.484093 
L 186.716926 295.488 
L 190.79571 295.292428 
L 194.820525 294.90616 
L 198.822163 294.338178 
L 202.783269 293.592246 
L 206.709944 292.667374 
L 210.589424 291.562004 
L 214.43288 290.269211 
L 218.219225 288.784839 
L 221.921625 287.114475 
L 225.548538 285.253019 
L 229.104009 283.190142 
L 232.550439 280.934264 
L 235.886919 278.482393 
L 239.101276 275.837129 
L 242.166739 273.017044 
L 245.099934 270.002787 
L 247.851072 266.829389 
L 250.428672 263.486342 
L 252.820647 259.971286 
L 254.995073 256.306394 
L 256.948565 252.477364 
L 258.647715 248.512575 
L 260.077471 244.418521 
L 261.211162 240.247023 
L 262.047443 236.032614 
L 262.593149 231.829447 
L 262.873404 227.584937 
L 262.88594 223.349225 
L 262.643081 219.141123 
L 262.156081 214.968832 
L 261.430688 210.823869 
L 260.470467 206.726158 
L 259.289886 202.713042 
L 257.886761 198.753562 
L 256.26515 194.876962 
L 254.432678 191.10288 
L 252.392327 187.435835 
L 250.145606 183.88729 
L 247.678319 180.449847 
L 245.022124 177.186309 
L 242.160944 174.076633 
L 239.085889 171.132579 
L 236.532035 168.962308 
L 236.532035 168.962308 
" style="fill:none;stroke:#ffffff;stroke-linecap:square;"/>
   </g>
   <g id="patch_3">
    <path d="M 57.6 307.584 
L 57.6 41.472 
" style="fill:none;stroke:#000000;stroke-linecap:square;stroke-linejoin:miter;stroke-width:0.8;"/>
   </g>
   <g id="patch_4">
    <path d="M 414.72 307.584 
L 414.72 41.472 
" style="fill:none;stroke:#000000;stroke-linecap:square;stroke-linejoin:miter;stroke-width:0.8;"/>
   </g>
   <g id="patch_5">
    <path d="M 57.6 307.584 
L 414.72 307.584 
" style="fill:none;stroke:#000000;stroke-linecap:square;stroke-linejoin:miter;stroke-width:0.8;"/>
   </g>
   <g id="patch_6">
    <path d="M 57.6 41.472 
L 414.72 41.472 
" style="fill:none;stroke:#000000;stroke-linecap:square;stroke-linejoin:miter;stroke-width:0.8;"/>
   </g>
  </g>
 </g>
 <defs>
  <clipPath id="paa97209871">
   <rect height="266.112" width="357.12" x="57.6" y="41.472"/>
  </clipPath>
 </defs>
</svg>
