<?xml version="1.0" encoding="utf-8" standalone="no"?>
<!DOCTYPE svg PUBLIC "-//W3C//DTD SVG 1.1//EN"
  "http://www.w3.org/Graphics/SVG/1.1/DTD/svg11.dtd">
<!-- Created with matplotlib (https://matplotlib.org/) -->
<svg height="345.6pt" version="1.1" viewBox="0 0 460.8 345.6" width="460.8pt" xmlns="http://www.w3.org/2000/svg" xmlns:xlink="http://www.w3.org/1999/xlink">
 <metadata>
  <rdf:RDF xmlns:cc="http://creativecommons.org/ns#" xmlns:dc="http://purl.org/dc/elements/1.1/" xmlns:rdf="http://www.w3.org/1999/02/22-rdf-syntax-ns#">
   <cc:Work>
    <dc:type rdf:resource="http://purl.org/dc/dcmitype/StillImage"/>
    <dc:date>2021-01-23T12:27:16.253723</dc:date>
    <dc:format>image/svg+xml</dc:format>
    <dc:creator>
     <cc:Agent>
      <dc:title>Matplotlib v3.3.3, https://matplotlib.org/</dc:title>
     </cc:Agent>
    </dc:creator>
   </cc:Work>
  </rdf:RDF>
 </metadata>
 <defs>
  <style type="text/css">*{stroke-linecap:butt;stroke-linejoin:round;}</style>
 </defs>
 <g id="figure_1">
  <g id="patch_1">
   <path d="M 0 345.6 
L 460.8 345.6 
L 460.8 0 
L 0 0 
z
" style="fill:#ffffff;"/>
  </g>
  <g id="axes_1">
   <g id="patch_2">
    <path d="M 57.6 307.584 
L 414.72 307.584 
L 414.72 41.472 
L 57.6 41.472 
z
" style="fill:#7d9051;"/>
   </g>
   <g id="matplotlib.axis_1">
    <g id="xtick_1">
     <g id="line2d_1">
      <defs>
       <path d="M 0 0 
L 0 3.5 
" id="mc624c85a23" style="stroke:#000000;stroke-width:0.8;"/>
      </defs>
      <g>
       <use style="stroke:#000000;stroke-width:0.8;" x="72.868136" xlink:href="#mc624c85a23" y="307.584"/>
      </g>
     </g>
     <g id="text_1">
      <!-- 0 -->
      <g transform="translate(69.686886 322.182437)scale(0.1 -0.1)">
       <defs>
        <path d="M 31.78125 66.40625 
Q 24.171875 66.40625 20.328125 58.90625 
Q 16.5 51.421875 16.5 36.375 
Q 16.5 21.390625 20.328125 13.890625 
Q 24.171875 6.390625 31.78125 6.390625 
Q 39.453125 6.390625 43.28125 13.890625 
Q 47.125 21.390625 47.125 36.375 
Q 47.125 51.421875 43.28125 58.90625 
Q 39.453125 66.40625 31.78125 66.40625 
z
M 31.78125 74.21875 
Q 44.046875 74.21875 50.515625 64.515625 
Q 56.984375 54.828125 56.984375 36.375 
Q 56.984375 17.96875 50.515625 8.265625 
Q 44.046875 -1.421875 31.78125 -1.421875 
Q 19.53125 -1.421875 13.0625 8.265625 
Q 6.59375 17.96875 6.59375 36.375 
Q 6.59375 54.828125 13.0625 64.515625 
Q 19.53125 74.21875 31.78125 74.21875 
z
" id="DejaVuSans-48"/>
       </defs>
       <use xlink:href="#DejaVuSans-48"/>
      </g>
     </g>
    </g>
    <g id="xtick_2">
     <g id="line2d_2">
      <g>
       <use style="stroke:#000000;stroke-width:0.8;" x="127.960134" xlink:href="#mc624c85a23" y="307.584"/>
      </g>
     </g>
     <g id="text_2">
      <!-- 20 -->
      <g transform="translate(121.597634 322.182437)scale(0.1 -0.1)">
       <defs>
        <path d="M 19.1875 8.296875 
L 53.609375 8.296875 
L 53.609375 0 
L 7.328125 0 
L 7.328125 8.296875 
Q 12.9375 14.109375 22.625 23.890625 
Q 32.328125 33.6875 34.8125 36.53125 
Q 39.546875 41.84375 41.421875 45.53125 
Q 43.3125 49.21875 43.3125 52.78125 
Q 43.3125 58.59375 39.234375 62.25 
Q 35.15625 65.921875 28.609375 65.921875 
Q 23.96875 65.921875 18.8125 64.3125 
Q 13.671875 62.703125 7.8125 59.421875 
L 7.8125 69.390625 
Q 13.765625 71.78125 18.9375 73 
Q 24.125 74.21875 28.421875 74.21875 
Q 39.75 74.21875 46.484375 68.546875 
Q 53.21875 62.890625 53.21875 53.421875 
Q 53.21875 48.921875 51.53125 44.890625 
Q 49.859375 40.875 45.40625 35.40625 
Q 44.1875 33.984375 37.640625 27.21875 
Q 31.109375 20.453125 19.1875 8.296875 
z
" id="DejaVuSans-50"/>
       </defs>
       <use xlink:href="#DejaVuSans-50"/>
       <use x="63.623047" xlink:href="#DejaVuSans-48"/>
      </g>
     </g>
    </g>
    <g id="xtick_3">
     <g id="line2d_3">
      <g>
       <use style="stroke:#000000;stroke-width:0.8;" x="183.052132" xlink:href="#mc624c85a23" y="307.584"/>
      </g>
     </g>
     <g id="text_3">
      <!-- 40 -->
      <g transform="translate(176.689632 322.182437)scale(0.1 -0.1)">
       <defs>
        <path d="M 37.796875 64.3125 
L 12.890625 25.390625 
L 37.796875 25.390625 
z
M 35.203125 72.90625 
L 47.609375 72.90625 
L 47.609375 25.390625 
L 58.015625 25.390625 
L 58.015625 17.1875 
L 47.609375 17.1875 
L 47.609375 0 
L 37.796875 0 
L 37.796875 17.1875 
L 4.890625 17.1875 
L 4.890625 26.703125 
z
" id="DejaVuSans-52"/>
       </defs>
       <use xlink:href="#DejaVuSans-52"/>
       <use x="63.623047" xlink:href="#DejaVuSans-48"/>
      </g>
     </g>
    </g>
    <g id="xtick_4">
     <g id="line2d_4">
      <g>
       <use style="stroke:#000000;stroke-width:0.8;" x="238.144131" xlink:href="#mc624c85a23" y="307.584"/>
      </g>
     </g>
     <g id="text_4">
      <!-- 60 -->
      <g transform="translate(231.781631 322.182437)scale(0.1 -0.1)">
       <defs>
        <path d="M 33.015625 40.375 
Q 26.375 40.375 22.484375 35.828125 
Q 18.609375 31.296875 18.609375 23.390625 
Q 18.609375 15.53125 22.484375 10.953125 
Q 26.375 6.390625 33.015625 6.390625 
Q 39.65625 6.390625 43.53125 10.953125 
Q 47.40625 15.53125 47.40625 23.390625 
Q 47.40625 31.296875 43.53125 35.828125 
Q 39.65625 40.375 33.015625 40.375 
z
M 52.59375 71.296875 
L 52.59375 62.3125 
Q 48.875 64.0625 45.09375 64.984375 
Q 41.3125 65.921875 37.59375 65.921875 
Q 27.828125 65.921875 22.671875 59.328125 
Q 17.53125 52.734375 16.796875 39.40625 
Q 19.671875 43.65625 24.015625 45.921875 
Q 28.375 48.1875 33.59375 48.1875 
Q 44.578125 48.1875 50.953125 41.515625 
Q 57.328125 34.859375 57.328125 23.390625 
Q 57.328125 12.15625 50.6875 5.359375 
Q 44.046875 -1.421875 33.015625 -1.421875 
Q 20.359375 -1.421875 13.671875 8.265625 
Q 6.984375 17.96875 6.984375 36.375 
Q 6.984375 53.65625 15.1875 63.9375 
Q 23.390625 74.21875 37.203125 74.21875 
Q 40.921875 74.21875 44.703125 73.484375 
Q 48.484375 72.75 52.59375 71.296875 
z
" id="DejaVuSans-54"/>
       </defs>
       <use xlink:href="#DejaVuSans-54"/>
       <use x="63.623047" xlink:href="#DejaVuSans-48"/>
      </g>
     </g>
    </g>
    <g id="xtick_5">
     <g id="line2d_5">
      <g>
       <use style="stroke:#000000;stroke-width:0.8;" x="293.236129" xlink:href="#mc624c85a23" y="307.584"/>
      </g>
     </g>
     <g id="text_5">
      <!-- 80 -->
      <g transform="translate(286.873629 322.182437)scale(0.1 -0.1)">
       <defs>
        <path d="M 31.78125 34.625 
Q 24.75 34.625 20.71875 30.859375 
Q 16.703125 27.09375 16.703125 20.515625 
Q 16.703125 13.921875 20.71875 10.15625 
Q 24.75 6.390625 31.78125 6.390625 
Q 38.8125 6.390625 42.859375 10.171875 
Q 46.921875 13.96875 46.921875 20.515625 
Q 46.921875 27.09375 42.890625 30.859375 
Q 38.875 34.625 31.78125 34.625 
z
M 21.921875 38.8125 
Q 15.578125 40.375 12.03125 44.71875 
Q 8.5 49.078125 8.5 55.328125 
Q 8.5 64.0625 14.71875 69.140625 
Q 20.953125 74.21875 31.78125 74.21875 
Q 42.671875 74.21875 48.875 69.140625 
Q 55.078125 64.0625 55.078125 55.328125 
Q 55.078125 49.078125 51.53125 44.71875 
Q 48 40.375 41.703125 38.8125 
Q 48.828125 37.15625 52.796875 32.3125 
Q 56.78125 27.484375 56.78125 20.515625 
Q 56.78125 9.90625 50.3125 4.234375 
Q 43.84375 -1.421875 31.78125 -1.421875 
Q 19.734375 -1.421875 13.25 4.234375 
Q 6.78125 9.90625 6.78125 20.515625 
Q 6.78125 27.484375 10.78125 32.3125 
Q 14.796875 37.15625 21.921875 38.8125 
z
M 18.3125 54.390625 
Q 18.3125 48.734375 21.84375 45.5625 
Q 25.390625 42.390625 31.78125 42.390625 
Q 38.140625 42.390625 41.71875 45.5625 
Q 45.3125 48.734375 45.3125 54.390625 
Q 45.3125 60.0625 41.71875 63.234375 
Q 38.140625 66.40625 31.78125 66.40625 
Q 25.390625 66.40625 21.84375 63.234375 
Q 18.3125 60.0625 18.3125 54.390625 
z
" id="DejaVuSans-56"/>
       </defs>
       <use xlink:href="#DejaVuSans-56"/>
       <use x="63.623047" xlink:href="#DejaVuSans-48"/>
      </g>
     </g>
    </g>
    <g id="xtick_6">
     <g id="line2d_6">
      <g>
       <use style="stroke:#000000;stroke-width:0.8;" x="348.328128" xlink:href="#mc624c85a23" y="307.584"/>
      </g>
     </g>
     <g id="text_6">
      <!-- 100 -->
      <g transform="translate(338.784378 322.182437)scale(0.1 -0.1)">
       <defs>
        <path d="M 12.40625 8.296875 
L 28.515625 8.296875 
L 28.515625 63.921875 
L 10.984375 60.40625 
L 10.984375 69.390625 
L 28.421875 72.90625 
L 38.28125 72.90625 
L 38.28125 8.296875 
L 54.390625 8.296875 
L 54.390625 0 
L 12.40625 0 
z
" id="DejaVuSans-49"/>
       </defs>
       <use xlink:href="#DejaVuSans-49"/>
       <use x="63.623047" xlink:href="#DejaVuSans-48"/>
       <use x="127.246094" xlink:href="#DejaVuSans-48"/>
      </g>
     </g>
    </g>
    <g id="xtick_7">
     <g id="line2d_7">
      <g>
       <use style="stroke:#000000;stroke-width:0.8;" x="403.420126" xlink:href="#mc624c85a23" y="307.584"/>
      </g>
     </g>
     <g id="text_7">
      <!-- 120 -->
      <g transform="translate(393.876376 322.182437)scale(0.1 -0.1)">
       <use xlink:href="#DejaVuSans-49"/>
       <use x="63.623047" xlink:href="#DejaVuSans-50"/>
       <use x="127.246094" xlink:href="#DejaVuSans-48"/>
      </g>
     </g>
    </g>
   </g>
   <g id="matplotlib.axis_2">
    <g id="ytick_1">
     <g id="line2d_8">
      <defs>
       <path d="M 0 0 
L -3.5 0 
" id="m4780b8e4d2" style="stroke:#000000;stroke-width:0.8;"/>
      </defs>
      <g>
       <use style="stroke:#000000;stroke-width:0.8;" x="57.6" xlink:href="#m4780b8e4d2" y="258.488"/>
      </g>
     </g>
     <g id="text_8">
      <!-- 20 -->
      <g transform="translate(37.875 262.287218)scale(0.1 -0.1)">
       <use xlink:href="#DejaVuSans-50"/>
       <use x="63.623047" xlink:href="#DejaVuSans-48"/>
      </g>
     </g>
    </g>
    <g id="ytick_2">
     <g id="line2d_9">
      <g>
       <use style="stroke:#000000;stroke-width:0.8;" x="57.6" xlink:href="#m4780b8e4d2" y="203.396001"/>
      </g>
     </g>
     <g id="text_9">
      <!-- 40 -->
      <g transform="translate(37.875 207.19522)scale(0.1 -0.1)">
       <use xlink:href="#DejaVuSans-52"/>
       <use x="63.623047" xlink:href="#DejaVuSans-48"/>
      </g>
     </g>
    </g>
    <g id="ytick_3">
     <g id="line2d_10">
      <g>
       <use style="stroke:#000000;stroke-width:0.8;" x="57.6" xlink:href="#m4780b8e4d2" y="148.304003"/>
      </g>
     </g>
     <g id="text_10">
      <!-- 60 -->
      <g transform="translate(37.875 152.103222)scale(0.1 -0.1)">
       <use xlink:href="#DejaVuSans-54"/>
       <use x="63.623047" xlink:href="#DejaVuSans-48"/>
      </g>
     </g>
    </g>
    <g id="ytick_4">
     <g id="line2d_11">
      <g>
       <use style="stroke:#000000;stroke-width:0.8;" x="57.6" xlink:href="#m4780b8e4d2" y="93.212005"/>
      </g>
     </g>
     <g id="text_11">
      <!-- 80 -->
      <g transform="translate(37.875 97.011223)scale(0.1 -0.1)">
       <use xlink:href="#DejaVuSans-56"/>
       <use x="63.623047" xlink:href="#DejaVuSans-48"/>
      </g>
     </g>
    </g>
   </g>
   <g id="line2d_12">
    <path clip-path="url(#p6ae7cff1a5)" d="M 366.268837 154.959116 
L 365.742708 149.593156 
L 365.599469 144.130784 
L 365.720671 138.596793 
L 366.547051 119.019851 
L 366.42034 113.472087 
L 366.224763 110.720242 
L 365.919003 107.990433 
L 365.489285 105.279907 
L 364.924592 102.599681 
L 364.205642 99.944247 
L 363.32417 97.324622 
L 362.282931 94.749071 
L 361.087434 92.225858 
L 359.74319 89.768755 
L 358.25846 87.38878 
L 356.636001 85.099708 
L 354.881321 82.907046 
L 353.005438 80.827323 
L 351.011108 78.866048 
L 348.903839 77.039748 
L 346.691895 75.356688 
L 344.38354 73.811357 
L 341.987039 72.403757 
L 339.516162 71.131132 
L 336.979176 69.985218 
L 334.384343 68.968771 
L 331.742681 68.070771 
L 329.062456 67.293974 
L 326.357439 66.630115 
L 320.900576 65.630196 
L 315.416168 65.01592 
L 309.912477 64.699141 
L 301.640414 64.586202 
L 282.369233 64.781779 
L 274.108187 65.002147 
L 265.819596 65.42911 
L 260.28836 65.886373 
L 254.787424 66.550232 
L 249.349843 67.484041 
L 244.00041 68.748403 
L 238.777689 70.401163 
L 233.687188 72.44783 
L 228.71789 74.82505 
L 223.853266 77.474975 
L 219.085054 80.339759 
L 214.39397 83.356046 
L 209.821334 86.5321 
L 205.444275 89.931276 
L 203.353534 91.735539 
L 201.342676 93.619685 
L 199.419965 95.591979 
L 197.59642 97.663438 
L 195.885813 99.839572 
L 194.293655 102.128644 
L 192.828208 104.516883 
L 191.50049 106.993268 
L 190.313258 109.549537 
L 189.280283 112.169161 
L 188.401565 114.838368 
L 187.693633 117.548895 
L 187.156486 120.284213 
L 186.801143 123.036058 
L 186.635867 125.787903 
L 186.663413 128.531485 
L 186.867253 131.264048 
L 187.230861 133.982838 
L 187.732198 136.693364 
L 189.070933 142.075852 
L 190.731957 147.408758 
L 194.412102 157.920311 
L 198.001346 168.329944 
L 200.450186 176.194327 
L 201.89635 181.516214 
L 203.133166 186.909721 
L 204.075239 192.363829 
L 204.65095 197.864765 
L 204.774907 200.630383 
L 204.774907 203.398756 
L 204.642687 206.175393 
L 204.372736 208.952029 
L 203.959546 211.720402 
L 203.403117 214.466738 
L 202.708957 217.185528 
L 201.871559 219.860245 
L 200.896431 222.47987 
L 199.780818 225.036138 
L 198.527475 227.515278 
L 197.133647 229.903516 
L 195.60209 232.195343 
L 193.935557 234.376987 
L 192.142312 236.45671 
L 190.236129 238.440021 
L 188.23078 240.332432 
L 183.974923 243.88862 
L 179.468398 247.180367 
L 174.815879 250.271028 
L 170.102758 253.210186 
L 162.932535 257.353104 
L 158.07893 259.934165 
L 153.161969 262.371986 
L 148.167879 264.661058 
L 140.565183 267.875676 
L 117.572538 277.219279 
L 112.559166 279.505597 
L 107.622923 281.954436 
L 102.7886 284.612625 
L 100.414135 286.033999 
L 100.414135 286.033999 
" style="fill:none;stroke:#fea952;stroke-linecap:square;"/>
   </g>
   <g id="line2d_13">
    <path clip-path="url(#p6ae7cff1a5)" d="M 355.327223 156.257657 
L 354.96671 153.142704 
L 354.612043 146.993415 
L 354.619684 141.020714 
L 354.986134 132.410175 
L 355.491137 121.660902 
L 355.514483 116.656778 
L 355.274837 111.946722 
L 354.707585 107.551488 
L 354.28911 105.479205 
L 353.762595 103.458206 
L 353.108981 101.454399 
L 352.325629 99.466832 
L 351.421064 97.514186 
L 350.394746 95.600712 
L 349.26909 93.760307 
L 348.033131 91.984165 
L 346.699496 90.286943 
L 345.27963 88.683341 
L 343.794821 87.192532 
L 342.231807 85.808393 
L 340.562348 84.512767 
L 338.803195 83.31214 
L 336.941874 82.199238 
L 334.980551 81.172713 
L 332.960383 80.244576 
L 328.675493 78.653658 
L 324.16297 77.427774 
L 319.505525 76.559924 
L 314.656946 76.008131 
L 309.615386 75.713534 
L 301.706391 75.604404 
L 282.589777 75.797971 
L 274.569631 76.01088 
L 266.640397 76.416895 
L 261.482294 76.839896 
L 256.500805 77.434599 
L 251.699178 78.249066 
L 247.11363 79.317839 
L 242.710782 80.69368 
L 238.298941 82.454671 
L 233.876794 84.561109 
L 229.446499 86.968177 
L 224.984355 89.645853 
L 218.472023 93.901422 
L 214.492371 96.80103 
L 210.887272 99.775932 
L 207.690318 102.872528 
L 206.258868 104.47278 
L 204.931319 106.131151 
L 203.684997 107.891267 
L 202.538939 109.723304 
L 201.49369 111.634506 
L 200.563532 113.591443 
L 199.746143 115.614579 
L 199.062353 117.622741 
L 198.505535 119.672078 
L 198.084157 121.695293 
L 197.799723 123.696633 
L 197.653711 125.677282 
L 197.651283 127.711825 
L 197.788418 129.803467 
L 198.065492 131.978871 
L 198.995623 136.540897 
L 200.351667 141.351505 
L 202.941101 149.009045 
L 208.479488 164.922059 
L 211.0558 173.206675 
L 212.606104 178.926561 
L 213.961353 184.871216 
L 215.010733 191.014716 
L 215.391933 194.166067 
L 215.658299 197.371407 
L 215.793307 200.630383 
L 215.780836 203.922848 
L 215.609379 207.241599 
L 215.270422 210.57855 
L 214.758526 213.90836 
L 214.079039 217.192506 
L 213.224064 220.477591 
L 212.197749 223.704063 
L 210.99501 226.887116 
L 209.614026 230.007371 
L 208.043741 233.069178 
L 206.294728 236.025585 
L 204.358092 238.883957 
L 202.280248 241.572211 
L 200.086435 244.091894 
L 197.798389 246.453595 
L 195.454576 248.652402 
L 193.044474 250.734558 
L 188.124017 254.548504 
L 183.168222 257.980323 
L 178.232981 261.147305 
L 173.24659 264.161412 
L 168.175434 267.04419 
L 163.046295 269.769327 
L 157.826936 272.35413 
L 152.562818 274.765 
L 144.697178 278.089968 
L 122.067971 287.278912 
L 117.362958 289.421681 
L 112.817189 291.671675 
L 108.44784 294.066626 
L 106.073375 295.488 
L 106.073375 295.488 
" style="fill:none;stroke:#ffffff;stroke-linecap:square;"/>
   </g>
   <g id="line2d_14">
    <path clip-path="url(#p6ae7cff1a5)" d="M 377.210451 153.660576 
L 376.751633 149.136308 
L 376.617079 144.262731 
L 376.728672 139.075401 
L 377.565105 118.932493 
L 377.411017 112.690968 
L 377.174689 109.493761 
L 376.801492 106.26516 
L 376.270985 103.008326 
L 375.560074 99.720157 
L 374.648688 96.430288 
L 373.539358 93.194845 
L 372.240233 90.03131 
L 370.753805 86.93753 
L 369.091634 83.936797 
L 367.24783 81.017253 
L 365.238871 78.21525 
L 363.063145 75.527149 
L 360.731246 72.971305 
L 358.227394 70.539564 
L 355.575871 68.271104 
L 352.821442 66.200609 
L 349.963886 64.310574 
L 347.032203 62.608276 
L 344.051774 61.08955 
L 340.997969 59.72586 
L 337.930611 58.536651 
L 334.80987 57.487884 
L 331.688633 56.593118 
L 328.551907 55.832456 
L 325.408991 55.202091 
L 319.216865 54.312789 
L 313.171139 53.819115 
L 307.287202 53.607159 
L 298.781143 53.584776 
L 279.319999 53.822485 
L 270.787987 54.113685 
L 262.059375 54.662287 
L 256.087575 55.263545 
L 250.041024 56.14766 
L 243.94221 57.393159 
L 240.88719 58.178966 
L 237.838383 59.086211 
L 234.844596 60.108645 
L 229.075436 62.440989 
L 223.558986 65.088991 
L 218.260034 67.981773 
L 213.185753 71.033666 
L 208.206857 74.238768 
L 203.194558 77.729204 
L 198.245578 81.58958 
L 195.819796 83.695146 
L 193.452949 85.928304 
L 191.149613 88.311429 
L 188.933972 90.854096 
L 186.840308 93.547993 
L 184.902312 96.366022 
L 183.117476 99.310461 
L 181.507291 102.35203 
L 180.062983 105.50763 
L 178.814423 108.723744 
L 177.740777 112.053996 
L 176.881731 115.425712 
L 176.228816 118.873132 
L 175.802562 122.375482 
L 175.618023 125.898524 
L 175.675543 129.351144 
L 175.946089 132.724629 
L 176.396229 135.986804 
L 176.993752 139.161342 
L 178.51423 145.23198 
L 180.300897 150.95814 
L 184.020032 161.582279 
L 187.523205 171.73783 
L 189.844571 179.181979 
L 191.186597 184.105868 
L 192.304979 188.948226 
L 193.139745 193.712942 
L 193.643601 198.358122 
L 193.768979 202.874664 
L 193.47505 207.325509 
L 193.160566 209.532444 
L 192.193851 213.893466 
L 191.545369 216.016427 
L 190.797851 218.072623 
L 189.94761 220.064905 
L 189.011208 221.961379 
L 187.972566 223.781448 
L 186.846087 225.50673 
L 185.590865 227.181762 
L 184.198189 228.821525 
L 182.673869 230.426448 
L 179.235604 233.560868 
L 175.368887 236.578329 
L 171.140846 239.515146 
L 164.464518 243.743646 
L 157.689635 247.662019 
L 150.808951 251.263319 
L 146.157595 253.484446 
L 138.916827 256.638157 
L 128.83501 260.700114 
L 118.386006 264.898313 
L 110.409527 268.353128 
L 105.090868 270.882477 
L 99.76784 273.663013 
L 94.754895 276.579998 
L 94.754895 276.579998 
" style="fill:none;stroke:#ffffff;stroke-linecap:square;"/>
   </g>
   <g id="patch_3">
    <path d="M 57.6 307.584 
L 57.6 41.472 
" style="fill:none;stroke:#000000;stroke-linecap:square;stroke-linejoin:miter;stroke-width:0.8;"/>
   </g>
   <g id="patch_4">
    <path d="M 414.72 307.584 
L 414.72 41.472 
" style="fill:none;stroke:#000000;stroke-linecap:square;stroke-linejoin:miter;stroke-width:0.8;"/>
   </g>
   <g id="patch_5">
    <path d="M 57.6 307.584 
L 414.72 307.584 
" style="fill:none;stroke:#000000;stroke-linecap:square;stroke-linejoin:miter;stroke-width:0.8;"/>
   </g>
   <g id="patch_6">
    <path d="M 57.6 41.472 
L 414.72 41.472 
" style="fill:none;stroke:#000000;stroke-linecap:square;stroke-linejoin:miter;stroke-width:0.8;"/>
   </g>
  </g>
 </g>
 <defs>
  <clipPath id="p6ae7cff1a5">
   <rect height="266.112" width="357.12" x="57.6" y="41.472"/>
  </clipPath>
 </defs>
</svg>
