<?xml version="1.0" encoding="utf-8" standalone="no"?>
<!DOCTYPE svg PUBLIC "-//W3C//DTD SVG 1.1//EN"
  "http://www.w3.org/Graphics/SVG/1.1/DTD/svg11.dtd">
<!-- Created with matplotlib (https://matplotlib.org/) -->
<svg height="345.6pt" version="1.1" viewBox="0 0 460.8 345.6" width="460.8pt" xmlns="http://www.w3.org/2000/svg" xmlns:xlink="http://www.w3.org/1999/xlink">
 <metadata>
  <rdf:RDF xmlns:cc="http://creativecommons.org/ns#" xmlns:dc="http://purl.org/dc/elements/1.1/" xmlns:rdf="http://www.w3.org/1999/02/22-rdf-syntax-ns#">
   <cc:Work>
    <dc:type rdf:resource="http://purl.org/dc/dcmitype/StillImage"/>
    <dc:date>2021-01-22T11:31:41.380748</dc:date>
    <dc:format>image/svg+xml</dc:format>
    <dc:creator>
     <cc:Agent>
      <dc:title>Matplotlib v3.3.3, https://matplotlib.org/</dc:title>
     </cc:Agent>
    </dc:creator>
   </cc:Work>
  </rdf:RDF>
 </metadata>
 <defs>
  <style type="text/css">*{stroke-linecap:butt;stroke-linejoin:round;}</style>
 </defs>
 <g id="figure_1">
  <g id="patch_1">
   <path d="M 0 345.6 
L 460.8 345.6 
L 460.8 0 
L 0 0 
z
" style="fill:#ffffff;"/>
  </g>
  <g id="axes_1">
   <g id="patch_2">
    <path d="M 57.6 307.584 
L 414.72 307.584 
L 414.72 41.472 
L 57.6 41.472 
z
" style="fill:#7d9051;"/>
   </g>
   <g id="matplotlib.axis_1">
    <g id="xtick_1">
     <g id="line2d_1">
      <defs>
       <path d="M 0 0 
L 0 3.5 
" id="m3ef8f0a624" style="stroke:#000000;stroke-width:0.8;"/>
      </defs>
      <g>
       <use style="stroke:#000000;stroke-width:0.8;" x="106.877765" xlink:href="#m3ef8f0a624" y="307.584"/>
      </g>
     </g>
     <g id="text_1">
      <!-- 20 -->
      <g transform="translate(100.515265 322.182437)scale(0.1 -0.1)">
       <defs>
        <path d="M 19.1875 8.296875 
L 53.609375 8.296875 
L 53.609375 0 
L 7.328125 0 
L 7.328125 8.296875 
Q 12.9375 14.109375 22.625 23.890625 
Q 32.328125 33.6875 34.8125 36.53125 
Q 39.546875 41.84375 41.421875 45.53125 
Q 43.3125 49.21875 43.3125 52.78125 
Q 43.3125 58.59375 39.234375 62.25 
Q 35.15625 65.921875 28.609375 65.921875 
Q 23.96875 65.921875 18.8125 64.3125 
Q 13.671875 62.703125 7.8125 59.421875 
L 7.8125 69.390625 
Q 13.765625 71.78125 18.9375 73 
Q 24.125 74.21875 28.421875 74.21875 
Q 39.75 74.21875 46.484375 68.546875 
Q 53.21875 62.890625 53.21875 53.421875 
Q 53.21875 48.921875 51.53125 44.890625 
Q 49.859375 40.875 45.40625 35.40625 
Q 44.1875 33.984375 37.640625 27.21875 
Q 31.109375 20.453125 19.1875 8.296875 
z
" id="DejaVuSans-50"/>
        <path d="M 31.78125 66.40625 
Q 24.171875 66.40625 20.328125 58.90625 
Q 16.5 51.421875 16.5 36.375 
Q 16.5 21.390625 20.328125 13.890625 
Q 24.171875 6.390625 31.78125 6.390625 
Q 39.453125 6.390625 43.28125 13.890625 
Q 47.125 21.390625 47.125 36.375 
Q 47.125 51.421875 43.28125 58.90625 
Q 39.453125 66.40625 31.78125 66.40625 
z
M 31.78125 74.21875 
Q 44.046875 74.21875 50.515625 64.515625 
Q 56.984375 54.828125 56.984375 36.375 
Q 56.984375 17.96875 50.515625 8.265625 
Q 44.046875 -1.421875 31.78125 -1.421875 
Q 19.53125 -1.421875 13.0625 8.265625 
Q 6.59375 17.96875 6.59375 36.375 
Q 6.59375 54.828125 13.0625 64.515625 
Q 19.53125 74.21875 31.78125 74.21875 
z
" id="DejaVuSans-48"/>
       </defs>
       <use xlink:href="#DejaVuSans-50"/>
       <use x="63.623047" xlink:href="#DejaVuSans-48"/>
      </g>
     </g>
    </g>
    <g id="xtick_2">
     <g id="line2d_2">
      <g>
       <use style="stroke:#000000;stroke-width:0.8;" x="157.761929" xlink:href="#m3ef8f0a624" y="307.584"/>
      </g>
     </g>
     <g id="text_2">
      <!-- 40 -->
      <g transform="translate(151.399429 322.182437)scale(0.1 -0.1)">
       <defs>
        <path d="M 37.796875 64.3125 
L 12.890625 25.390625 
L 37.796875 25.390625 
z
M 35.203125 72.90625 
L 47.609375 72.90625 
L 47.609375 25.390625 
L 58.015625 25.390625 
L 58.015625 17.1875 
L 47.609375 17.1875 
L 47.609375 0 
L 37.796875 0 
L 37.796875 17.1875 
L 4.890625 17.1875 
L 4.890625 26.703125 
z
" id="DejaVuSans-52"/>
       </defs>
       <use xlink:href="#DejaVuSans-52"/>
       <use x="63.623047" xlink:href="#DejaVuSans-48"/>
      </g>
     </g>
    </g>
    <g id="xtick_3">
     <g id="line2d_3">
      <g>
       <use style="stroke:#000000;stroke-width:0.8;" x="208.646094" xlink:href="#m3ef8f0a624" y="307.584"/>
      </g>
     </g>
     <g id="text_3">
      <!-- 60 -->
      <g transform="translate(202.283594 322.182437)scale(0.1 -0.1)">
       <defs>
        <path d="M 33.015625 40.375 
Q 26.375 40.375 22.484375 35.828125 
Q 18.609375 31.296875 18.609375 23.390625 
Q 18.609375 15.53125 22.484375 10.953125 
Q 26.375 6.390625 33.015625 6.390625 
Q 39.65625 6.390625 43.53125 10.953125 
Q 47.40625 15.53125 47.40625 23.390625 
Q 47.40625 31.296875 43.53125 35.828125 
Q 39.65625 40.375 33.015625 40.375 
z
M 52.59375 71.296875 
L 52.59375 62.3125 
Q 48.875 64.0625 45.09375 64.984375 
Q 41.3125 65.921875 37.59375 65.921875 
Q 27.828125 65.921875 22.671875 59.328125 
Q 17.53125 52.734375 16.796875 39.40625 
Q 19.671875 43.65625 24.015625 45.921875 
Q 28.375 48.1875 33.59375 48.1875 
Q 44.578125 48.1875 50.953125 41.515625 
Q 57.328125 34.859375 57.328125 23.390625 
Q 57.328125 12.15625 50.6875 5.359375 
Q 44.046875 -1.421875 33.015625 -1.421875 
Q 20.359375 -1.421875 13.671875 8.265625 
Q 6.984375 17.96875 6.984375 36.375 
Q 6.984375 53.65625 15.1875 63.9375 
Q 23.390625 74.21875 37.203125 74.21875 
Q 40.921875 74.21875 44.703125 73.484375 
Q 48.484375 72.75 52.59375 71.296875 
z
" id="DejaVuSans-54"/>
       </defs>
       <use xlink:href="#DejaVuSans-54"/>
       <use x="63.623047" xlink:href="#DejaVuSans-48"/>
      </g>
     </g>
    </g>
    <g id="xtick_4">
     <g id="line2d_4">
      <g>
       <use style="stroke:#000000;stroke-width:0.8;" x="259.530258" xlink:href="#m3ef8f0a624" y="307.584"/>
      </g>
     </g>
     <g id="text_4">
      <!-- 80 -->
      <g transform="translate(253.167758 322.182437)scale(0.1 -0.1)">
       <defs>
        <path d="M 31.78125 34.625 
Q 24.75 34.625 20.71875 30.859375 
Q 16.703125 27.09375 16.703125 20.515625 
Q 16.703125 13.921875 20.71875 10.15625 
Q 24.75 6.390625 31.78125 6.390625 
Q 38.8125 6.390625 42.859375 10.171875 
Q 46.921875 13.96875 46.921875 20.515625 
Q 46.921875 27.09375 42.890625 30.859375 
Q 38.875 34.625 31.78125 34.625 
z
M 21.921875 38.8125 
Q 15.578125 40.375 12.03125 44.71875 
Q 8.5 49.078125 8.5 55.328125 
Q 8.5 64.0625 14.71875 69.140625 
Q 20.953125 74.21875 31.78125 74.21875 
Q 42.671875 74.21875 48.875 69.140625 
Q 55.078125 64.0625 55.078125 55.328125 
Q 55.078125 49.078125 51.53125 44.71875 
Q 48 40.375 41.703125 38.8125 
Q 48.828125 37.15625 52.796875 32.3125 
Q 56.78125 27.484375 56.78125 20.515625 
Q 56.78125 9.90625 50.3125 4.234375 
Q 43.84375 -1.421875 31.78125 -1.421875 
Q 19.734375 -1.421875 13.25 4.234375 
Q 6.78125 9.90625 6.78125 20.515625 
Q 6.78125 27.484375 10.78125 32.3125 
Q 14.796875 37.15625 21.921875 38.8125 
z
M 18.3125 54.390625 
Q 18.3125 48.734375 21.84375 45.5625 
Q 25.390625 42.390625 31.78125 42.390625 
Q 38.140625 42.390625 41.71875 45.5625 
Q 45.3125 48.734375 45.3125 54.390625 
Q 45.3125 60.0625 41.71875 63.234375 
Q 38.140625 66.40625 31.78125 66.40625 
Q 25.390625 66.40625 21.84375 63.234375 
Q 18.3125 60.0625 18.3125 54.390625 
z
" id="DejaVuSans-56"/>
       </defs>
       <use xlink:href="#DejaVuSans-56"/>
       <use x="63.623047" xlink:href="#DejaVuSans-48"/>
      </g>
     </g>
    </g>
    <g id="xtick_5">
     <g id="line2d_5">
      <g>
       <use style="stroke:#000000;stroke-width:0.8;" x="310.414422" xlink:href="#m3ef8f0a624" y="307.584"/>
      </g>
     </g>
     <g id="text_5">
      <!-- 100 -->
      <g transform="translate(300.870672 322.182437)scale(0.1 -0.1)">
       <defs>
        <path d="M 12.40625 8.296875 
L 28.515625 8.296875 
L 28.515625 63.921875 
L 10.984375 60.40625 
L 10.984375 69.390625 
L 28.421875 72.90625 
L 38.28125 72.90625 
L 38.28125 8.296875 
L 54.390625 8.296875 
L 54.390625 0 
L 12.40625 0 
z
" id="DejaVuSans-49"/>
       </defs>
       <use xlink:href="#DejaVuSans-49"/>
       <use x="63.623047" xlink:href="#DejaVuSans-48"/>
       <use x="127.246094" xlink:href="#DejaVuSans-48"/>
      </g>
     </g>
    </g>
    <g id="xtick_6">
     <g id="line2d_6">
      <g>
       <use style="stroke:#000000;stroke-width:0.8;" x="361.298586" xlink:href="#m3ef8f0a624" y="307.584"/>
      </g>
     </g>
     <g id="text_6">
      <!-- 120 -->
      <g transform="translate(351.754836 322.182437)scale(0.1 -0.1)">
       <use xlink:href="#DejaVuSans-49"/>
       <use x="63.623047" xlink:href="#DejaVuSans-50"/>
       <use x="127.246094" xlink:href="#DejaVuSans-48"/>
      </g>
     </g>
    </g>
    <g id="xtick_7">
     <g id="line2d_7">
      <g>
       <use style="stroke:#000000;stroke-width:0.8;" x="412.182751" xlink:href="#m3ef8f0a624" y="307.584"/>
      </g>
     </g>
     <g id="text_7">
      <!-- 140 -->
      <g transform="translate(402.639001 322.182437)scale(0.1 -0.1)">
       <use xlink:href="#DejaVuSans-49"/>
       <use x="63.623047" xlink:href="#DejaVuSans-52"/>
       <use x="127.246094" xlink:href="#DejaVuSans-48"/>
      </g>
     </g>
    </g>
   </g>
   <g id="matplotlib.axis_2">
    <g id="ytick_1">
     <g id="line2d_8">
      <defs>
       <path d="M 0 0 
L -3.5 0 
" id="m7dce16dc70" style="stroke:#000000;stroke-width:0.8;"/>
      </defs>
      <g>
       <use style="stroke:#000000;stroke-width:0.8;" x="57.6" xlink:href="#m7dce16dc70" y="269.484681"/>
      </g>
     </g>
     <g id="text_8">
      <!-- 0 -->
      <g transform="translate(44.2375 273.2839)scale(0.1 -0.1)">
       <use xlink:href="#DejaVuSans-48"/>
      </g>
     </g>
    </g>
    <g id="ytick_2">
     <g id="line2d_9">
      <g>
       <use style="stroke:#000000;stroke-width:0.8;" x="57.6" xlink:href="#m7dce16dc70" y="218.600517"/>
      </g>
     </g>
     <g id="text_9">
      <!-- 20 -->
      <g transform="translate(37.875 222.399736)scale(0.1 -0.1)">
       <use xlink:href="#DejaVuSans-50"/>
       <use x="63.623047" xlink:href="#DejaVuSans-48"/>
      </g>
     </g>
    </g>
    <g id="ytick_3">
     <g id="line2d_10">
      <g>
       <use style="stroke:#000000;stroke-width:0.8;" x="57.6" xlink:href="#m7dce16dc70" y="167.716353"/>
      </g>
     </g>
     <g id="text_10">
      <!-- 40 -->
      <g transform="translate(37.875 171.515571)scale(0.1 -0.1)">
       <use xlink:href="#DejaVuSans-52"/>
       <use x="63.623047" xlink:href="#DejaVuSans-48"/>
      </g>
     </g>
    </g>
    <g id="ytick_4">
     <g id="line2d_11">
      <g>
       <use style="stroke:#000000;stroke-width:0.8;" x="57.6" xlink:href="#m7dce16dc70" y="116.832188"/>
      </g>
     </g>
     <g id="text_11">
      <!-- 60 -->
      <g transform="translate(37.875 120.631407)scale(0.1 -0.1)">
       <use xlink:href="#DejaVuSans-54"/>
       <use x="63.623047" xlink:href="#DejaVuSans-48"/>
      </g>
     </g>
    </g>
    <g id="ytick_5">
     <g id="line2d_12">
      <g>
       <use style="stroke:#000000;stroke-width:0.8;" x="57.6" xlink:href="#m7dce16dc70" y="65.948024"/>
      </g>
     </g>
     <g id="text_12">
      <!-- 80 -->
      <g transform="translate(37.875 69.747243)scale(0.1 -0.1)">
       <use xlink:href="#DejaVuSans-56"/>
       <use x="63.623047" xlink:href="#DejaVuSans-48"/>
      </g>
     </g>
    </g>
   </g>
   <g id="line2d_13">
    <path clip-path="url(#p35107d75f0)" d="M 388.022949 220.691856 
L 388.285003 213.031245 
L 388.285003 205.401165 
L 388.043303 195.249774 
L 387.592978 177.468303 
L 387.63623 169.810236 
L 387.936446 157.00778 
L 387.778705 151.919364 
L 387.246966 146.879287 
L 386.799185 144.383419 
L 386.208929 141.90536 
L 385.476197 139.455288 
L 384.608622 137.040834 
L 383.608748 134.667088 
L 382.484208 132.34677 
L 381.237546 130.082425 
L 379.873851 127.886773 
L 378.39821 125.762359 
L 376.818256 123.721904 
L 375.136535 121.770497 
L 373.355589 119.918313 
L 371.485596 118.162809 
L 369.5291 116.509074 
L 367.491189 114.957107 
L 365.376952 113.509453 
L 363.191477 112.166111 
L 360.937309 110.929625 
L 358.622079 109.799997 
L 356.250877 108.779769 
L 353.828791 107.868943 
L 351.358365 107.070062 
L 348.849776 106.390758 
L 346.3132 105.836121 
L 343.756271 105.411238 
L 341.18662 105.123742 
L 338.611882 104.978722 
L 336.044776 104.986355 
L 333.490391 105.149184 
L 330.958903 105.472299 
L 328.457947 105.968419 
L 325.995153 106.635002 
L 323.578155 107.466958 
L 321.214586 108.456655 
L 318.904445 109.588828 
L 316.655365 110.858388 
L 314.474978 112.252614 
L 312.368374 113.761329 
L 310.338096 115.376901 
L 308.391777 117.084065 
L 306.534505 118.877732 
L 304.768824 120.747725 
L 301.507149 124.691248 
L 298.571133 128.868838 
L 295.927701 133.239787 
L 293.546322 137.758301 
L 291.383745 142.383672 
L 284.178547 158.674237 
L 281.718298 163.134234 
L 278.88405 167.405959 
L 275.678347 171.435985 
L 273.943197 173.341597 
L 272.126633 175.165794 
L 270.233742 176.900944 
L 268.264525 178.539414 
L 266.221526 180.076116 
L 264.114921 181.500873 
L 261.942167 182.813684 
L 257.43383 185.136546 
L 252.76012 187.149015 
L 247.974464 188.955403 
L 233.52845 194.148132 
L 226.440286 196.979836 
L 219.476788 200.068504 
L 214.912479 202.304863 
L 210.414318 204.686242 
L 205.987396 207.207553 
L 199.486944 211.229946 
L 193.164587 215.514392 
L 182.863088 222.971467 
L 176.624689 227.370403 
L 172.360596 230.169032 
L 167.992191 232.80992 
L 163.509296 235.25236 
L 158.911912 237.460732 
L 154.197494 239.399419 
L 149.360954 241.030257 
L 144.417557 242.325258 
L 139.392746 243.274248 
L 134.309418 243.864504 
L 129.19556 244.078218 
L 124.079157 243.907756 
L 118.985652 243.345486 
L 113.950664 242.396496 
L 109.009812 241.058243 
L 104.193626 239.338358 
L 99.53518 237.236842 
L 95.070095 234.756239 
L 92.920239 233.377278 
L 90.8289 231.901637 
L 88.80371 230.334405 
L 86.849758 228.675581 
L 84.967044 226.922622 
L 83.160656 225.078071 
L 81.435683 223.139384 
L 81.435683 223.139384 
" style="fill:none;stroke:#fea952;stroke-linecap:square;"/>
   </g>
   <g id="line2d_14">
    <path clip-path="url(#p35107d75f0)" d="M 377.857704 220.206352 
L 378.108678 212.929584 
L 378.109475 205.564136 
L 377.871386 195.566052 
L 377.416272 177.519085 
L 377.46306 169.537199 
L 377.761078 157.180416 
L 377.637237 152.767039 
L 377.230066 148.676407 
L 376.458787 144.821291 
L 375.229861 140.991374 
L 373.569221 137.255021 
L 371.515557 133.692534 
L 369.109194 130.365569 
L 367.800737 128.824148 
L 364.916028 125.935113 
L 361.741598 123.354138 
L 358.297125 121.088736 
L 354.599916 119.148266 
L 350.697483 117.552064 
L 346.67591 116.332701 
L 342.624735 115.524969 
L 338.64214 115.15551 
L 336.692184 115.142574 
L 334.77889 115.244119 
L 332.939119 115.454617 
L 331.116753 115.791793 
L 329.307399 116.257733 
L 327.508818 116.854067 
L 325.693197 117.595034 
L 323.907073 118.4512 
L 322.137817 119.432222 
L 318.705081 121.724624 
L 315.461444 124.404429 
L 312.475653 127.393981 
L 309.723462 130.696256 
L 307.193082 134.275307 
L 304.864222 138.108721 
L 302.718598 142.167074 
L 300.714998 146.445153 
L 294.436285 160.865688 
L 291.811336 165.998653 
L 290.317404 168.576962 
L 288.707015 171.103712 
L 286.980641 173.571438 
L 285.153208 175.956237 
L 283.203136 178.287662 
L 281.154375 180.522603 
L 279.003369 182.667689 
L 276.742825 184.723972 
L 274.381962 186.672365 
L 271.922879 188.505974 
L 269.377832 190.211194 
L 266.785271 191.76423 
L 264.191074 193.158497 
L 259.006738 195.577281 
L 253.887348 197.624512 
L 244.15336 201.091217 
L 237.2008 203.639274 
L 230.436829 206.339086 
L 223.876646 209.24506 
L 219.601502 211.337083 
L 215.383349 213.567496 
L 209.155396 217.172774 
L 203.063597 221.060135 
L 197.049497 225.24018 
L 182.281493 235.830219 
L 177.71687 238.822254 
L 172.960303 241.691687 
L 168.044274 244.362897 
L 162.923214 246.813667 
L 157.610037 248.98704 
L 152.109823 250.82881 
L 146.483459 252.290196 
L 140.748356 253.36039 
L 134.926594 254.022606 
L 129.053947 254.254065 
L 126.100142 254.20531 
L 123.159612 254.04296 
L 120.214076 253.767979 
L 114.377997 252.882345 
L 111.48242 252.269474 
L 108.615674 251.544789 
L 105.782511 250.709795 
L 102.966052 249.759171 
L 100.193332 248.696006 
L 97.474891 247.525213 
L 94.782414 246.235683 
L 92.146221 244.833039 
L 89.575608 243.322367 
L 87.053019 241.692545 
L 84.600547 239.949963 
L 82.217393 238.092521 
L 79.91489 236.123771 
L 77.696113 234.04312 
L 75.5577 231.842906 
L 73.832727 229.904219 
L 73.832727 229.904219 
" style="fill:none;stroke:#ffffff;stroke-linecap:square;"/>
   </g>
   <g id="line2d_15">
    <path clip-path="url(#p35107d75f0)" d="M 398.188195 221.17736 
L 398.461328 213.132907 
L 398.460531 205.238193 
L 398.21522 194.933496 
L 397.769684 177.417521 
L 397.809399 170.083273 
L 398.111815 156.835144 
L 397.920173 151.071688 
L 397.662607 148.105537 
L 397.263866 145.082168 
L 396.699053 142.02534 
L 395.959071 138.98943 
L 395.053508 136.013915 
L 393.987383 133.090295 
L 392.766723 130.228684 
L 391.399195 127.438519 
L 389.882644 124.713048 
L 388.232144 122.081012 
L 386.444803 119.531768 
L 384.527319 117.07824 
L 382.472332 114.716845 
L 380.320979 112.498659 
L 378.055164 110.390505 
L 375.694873 108.412706 
L 373.240781 106.560076 
L 370.706098 104.839497 
L 368.085829 103.243485 
L 365.399865 101.783396 
L 362.644242 100.451728 
L 359.832973 99.254198 
L 356.960099 98.185822 
L 354.01836 97.247009 
L 351.023641 96.448815 
L 347.981401 95.796946 
L 344.887807 95.297507 
L 341.758914 94.963014 
L 338.581624 94.801935 
L 335.397367 94.830136 
L 332.201891 95.05425 
L 328.978688 95.489981 
L 325.799141 96.145045 
L 322.682908 97.012271 
L 319.647493 98.079849 
L 316.735975 99.318276 
L 313.901816 100.726456 
L 311.172913 102.284553 
L 308.549422 103.978818 
L 306.031667 105.798034 
L 303.627405 107.726114 
L 301.32211 109.763701 
L 299.134976 111.890966 
L 297.061995 114.101469 
L 295.12036 116.366198 
L 293.290836 118.686239 
L 289.949183 123.462368 
L 286.991179 128.370854 
L 284.374046 133.349528 
L 282.052491 138.32219 
L 275.180179 153.920574 
L 273.119191 157.691505 
L 270.787458 161.24048 
L 268.153558 164.584308 
L 265.249896 167.6639 
L 262.147087 170.406464 
L 258.85201 172.790551 
L 255.235808 174.880781 
L 251.220287 176.771886 
L 246.865046 178.520613 
L 237.293582 181.928358 
L 229.8561 184.65699 
L 222.443743 187.620585 
L 217.526864 189.762944 
L 212.629163 192.067205 
L 207.819286 194.522242 
L 203.08691 197.125847 
L 198.448446 199.862866 
L 193.886497 202.732716 
L 187.263867 207.222864 
L 176.921006 214.709531 
L 170.967885 218.910586 
L 167.004322 221.515809 
L 163.024079 223.928152 
L 158.974318 226.141822 
L 154.90061 228.107798 
L 150.784951 229.811798 
L 146.612084 231.231703 
L 142.351656 232.360321 
L 138.037136 233.188107 
L 133.692243 233.706403 
L 129.337172 233.90237 
L 124.998702 233.772552 
L 120.673462 233.309589 
L 116.418909 232.523518 
L 112.237113 231.406691 
L 108.193919 229.98071 
L 104.287947 228.238001 
L 100.564582 226.190111 
L 97.057253 223.853312 
L 93.784627 221.227392 
L 90.763612 218.313236 
L 89.038639 216.37455 
L 89.038639 216.37455 
" style="fill:none;stroke:#ffffff;stroke-linecap:square;"/>
   </g>
   <g id="patch_3">
    <path d="M 57.6 307.584 
L 57.6 41.472 
" style="fill:none;stroke:#000000;stroke-linecap:square;stroke-linejoin:miter;stroke-width:0.8;"/>
   </g>
   <g id="patch_4">
    <path d="M 414.72 307.584 
L 414.72 41.472 
" style="fill:none;stroke:#000000;stroke-linecap:square;stroke-linejoin:miter;stroke-width:0.8;"/>
   </g>
   <g id="patch_5">
    <path d="M 57.6 307.584 
L 414.72 307.584 
" style="fill:none;stroke:#000000;stroke-linecap:square;stroke-linejoin:miter;stroke-width:0.8;"/>
   </g>
   <g id="patch_6">
    <path d="M 57.6 41.472 
L 414.72 41.472 
" style="fill:none;stroke:#000000;stroke-linecap:square;stroke-linejoin:miter;stroke-width:0.8;"/>
   </g>
  </g>
 </g>
 <defs>
  <clipPath id="p35107d75f0">
   <rect height="266.112" width="357.12" x="57.6" y="41.472"/>
  </clipPath>
 </defs>
</svg>
