<?xml version="1.0" encoding="utf-8" standalone="no"?>
<!DOCTYPE svg PUBLIC "-//W3C//DTD SVG 1.1//EN"
  "http://www.w3.org/Graphics/SVG/1.1/DTD/svg11.dtd">
<!-- Created with matplotlib (https://matplotlib.org/) -->
<svg height="345.6pt" version="1.1" viewBox="0 0 460.8 345.6" width="460.8pt" xmlns="http://www.w3.org/2000/svg" xmlns:xlink="http://www.w3.org/1999/xlink">
 <metadata>
  <rdf:RDF xmlns:cc="http://creativecommons.org/ns#" xmlns:dc="http://purl.org/dc/elements/1.1/" xmlns:rdf="http://www.w3.org/1999/02/22-rdf-syntax-ns#">
   <cc:Work>
    <dc:type rdf:resource="http://purl.org/dc/dcmitype/StillImage"/>
    <dc:date>2021-01-25T11:45:59.138987</dc:date>
    <dc:format>image/svg+xml</dc:format>
    <dc:creator>
     <cc:Agent>
      <dc:title>Matplotlib v3.3.3, https://matplotlib.org/</dc:title>
     </cc:Agent>
    </dc:creator>
   </cc:Work>
  </rdf:RDF>
 </metadata>
 <defs>
  <style type="text/css">*{stroke-linecap:butt;stroke-linejoin:round;}</style>
 </defs>
 <g id="figure_1">
  <g id="patch_1">
   <path d="M 0 345.6 
L 460.8 345.6 
L 460.8 0 
L 0 0 
z
" style="fill:#ffffff;"/>
  </g>
  <g id="axes_1">
   <g id="patch_2">
    <path d="M 57.6 307.584 
L 414.72 307.584 
L 414.72 41.472 
L 57.6 41.472 
z
" style="fill:#7d9051;"/>
   </g>
   <g id="matplotlib.axis_1">
    <g id="xtick_1">
     <g id="line2d_1">
      <defs>
       <path d="M 0 0 
L 0 3.5 
" id="mcfe9921ef7" style="stroke:#000000;stroke-width:0.8;"/>
      </defs>
      <g>
       <use style="stroke:#000000;stroke-width:0.8;" x="123.600654" xlink:href="#mcfe9921ef7" y="307.584"/>
      </g>
     </g>
     <g id="text_1">
      <!-- 20 -->
      <g transform="translate(117.238154 322.182437)scale(0.1 -0.1)">
       <defs>
        <path d="M 19.1875 8.296875 
L 53.609375 8.296875 
L 53.609375 0 
L 7.328125 0 
L 7.328125 8.296875 
Q 12.9375 14.109375 22.625 23.890625 
Q 32.328125 33.6875 34.8125 36.53125 
Q 39.546875 41.84375 41.421875 45.53125 
Q 43.3125 49.21875 43.3125 52.78125 
Q 43.3125 58.59375 39.234375 62.25 
Q 35.15625 65.921875 28.609375 65.921875 
Q 23.96875 65.921875 18.8125 64.3125 
Q 13.671875 62.703125 7.8125 59.421875 
L 7.8125 69.390625 
Q 13.765625 71.78125 18.9375 73 
Q 24.125 74.21875 28.421875 74.21875 
Q 39.75 74.21875 46.484375 68.546875 
Q 53.21875 62.890625 53.21875 53.421875 
Q 53.21875 48.921875 51.53125 44.890625 
Q 49.859375 40.875 45.40625 35.40625 
Q 44.1875 33.984375 37.640625 27.21875 
Q 31.109375 20.453125 19.1875 8.296875 
z
" id="DejaVuSans-50"/>
        <path d="M 31.78125 66.40625 
Q 24.171875 66.40625 20.328125 58.90625 
Q 16.5 51.421875 16.5 36.375 
Q 16.5 21.390625 20.328125 13.890625 
Q 24.171875 6.390625 31.78125 6.390625 
Q 39.453125 6.390625 43.28125 13.890625 
Q 47.125 21.390625 47.125 36.375 
Q 47.125 51.421875 43.28125 58.90625 
Q 39.453125 66.40625 31.78125 66.40625 
z
M 31.78125 74.21875 
Q 44.046875 74.21875 50.515625 64.515625 
Q 56.984375 54.828125 56.984375 36.375 
Q 56.984375 17.96875 50.515625 8.265625 
Q 44.046875 -1.421875 31.78125 -1.421875 
Q 19.53125 -1.421875 13.0625 8.265625 
Q 6.59375 17.96875 6.59375 36.375 
Q 6.59375 54.828125 13.0625 64.515625 
Q 19.53125 74.21875 31.78125 74.21875 
z
" id="DejaVuSans-48"/>
       </defs>
       <use xlink:href="#DejaVuSans-50"/>
       <use x="63.623047" xlink:href="#DejaVuSans-48"/>
      </g>
     </g>
    </g>
    <g id="xtick_2">
     <g id="line2d_2">
      <g>
       <use style="stroke:#000000;stroke-width:0.8;" x="194.213532" xlink:href="#mcfe9921ef7" y="307.584"/>
      </g>
     </g>
     <g id="text_2">
      <!-- 40 -->
      <g transform="translate(187.851032 322.182437)scale(0.1 -0.1)">
       <defs>
        <path d="M 37.796875 64.3125 
L 12.890625 25.390625 
L 37.796875 25.390625 
z
M 35.203125 72.90625 
L 47.609375 72.90625 
L 47.609375 25.390625 
L 58.015625 25.390625 
L 58.015625 17.1875 
L 47.609375 17.1875 
L 47.609375 0 
L 37.796875 0 
L 37.796875 17.1875 
L 4.890625 17.1875 
L 4.890625 26.703125 
z
" id="DejaVuSans-52"/>
       </defs>
       <use xlink:href="#DejaVuSans-52"/>
       <use x="63.623047" xlink:href="#DejaVuSans-48"/>
      </g>
     </g>
    </g>
    <g id="xtick_3">
     <g id="line2d_3">
      <g>
       <use style="stroke:#000000;stroke-width:0.8;" x="264.826411" xlink:href="#mcfe9921ef7" y="307.584"/>
      </g>
     </g>
     <g id="text_3">
      <!-- 60 -->
      <g transform="translate(258.463911 322.182437)scale(0.1 -0.1)">
       <defs>
        <path d="M 33.015625 40.375 
Q 26.375 40.375 22.484375 35.828125 
Q 18.609375 31.296875 18.609375 23.390625 
Q 18.609375 15.53125 22.484375 10.953125 
Q 26.375 6.390625 33.015625 6.390625 
Q 39.65625 6.390625 43.53125 10.953125 
Q 47.40625 15.53125 47.40625 23.390625 
Q 47.40625 31.296875 43.53125 35.828125 
Q 39.65625 40.375 33.015625 40.375 
z
M 52.59375 71.296875 
L 52.59375 62.3125 
Q 48.875 64.0625 45.09375 64.984375 
Q 41.3125 65.921875 37.59375 65.921875 
Q 27.828125 65.921875 22.671875 59.328125 
Q 17.53125 52.734375 16.796875 39.40625 
Q 19.671875 43.65625 24.015625 45.921875 
Q 28.375 48.1875 33.59375 48.1875 
Q 44.578125 48.1875 50.953125 41.515625 
Q 57.328125 34.859375 57.328125 23.390625 
Q 57.328125 12.15625 50.6875 5.359375 
Q 44.046875 -1.421875 33.015625 -1.421875 
Q 20.359375 -1.421875 13.671875 8.265625 
Q 6.984375 17.96875 6.984375 36.375 
Q 6.984375 53.65625 15.1875 63.9375 
Q 23.390625 74.21875 37.203125 74.21875 
Q 40.921875 74.21875 44.703125 73.484375 
Q 48.484375 72.75 52.59375 71.296875 
z
" id="DejaVuSans-54"/>
       </defs>
       <use xlink:href="#DejaVuSans-54"/>
       <use x="63.623047" xlink:href="#DejaVuSans-48"/>
      </g>
     </g>
    </g>
    <g id="xtick_4">
     <g id="line2d_4">
      <g>
       <use style="stroke:#000000;stroke-width:0.8;" x="335.439289" xlink:href="#mcfe9921ef7" y="307.584"/>
      </g>
     </g>
     <g id="text_4">
      <!-- 80 -->
      <g transform="translate(329.076789 322.182437)scale(0.1 -0.1)">
       <defs>
        <path d="M 31.78125 34.625 
Q 24.75 34.625 20.71875 30.859375 
Q 16.703125 27.09375 16.703125 20.515625 
Q 16.703125 13.921875 20.71875 10.15625 
Q 24.75 6.390625 31.78125 6.390625 
Q 38.8125 6.390625 42.859375 10.171875 
Q 46.921875 13.96875 46.921875 20.515625 
Q 46.921875 27.09375 42.890625 30.859375 
Q 38.875 34.625 31.78125 34.625 
z
M 21.921875 38.8125 
Q 15.578125 40.375 12.03125 44.71875 
Q 8.5 49.078125 8.5 55.328125 
Q 8.5 64.0625 14.71875 69.140625 
Q 20.953125 74.21875 31.78125 74.21875 
Q 42.671875 74.21875 48.875 69.140625 
Q 55.078125 64.0625 55.078125 55.328125 
Q 55.078125 49.078125 51.53125 44.71875 
Q 48 40.375 41.703125 38.8125 
Q 48.828125 37.15625 52.796875 32.3125 
Q 56.78125 27.484375 56.78125 20.515625 
Q 56.78125 9.90625 50.3125 4.234375 
Q 43.84375 -1.421875 31.78125 -1.421875 
Q 19.734375 -1.421875 13.25 4.234375 
Q 6.78125 9.90625 6.78125 20.515625 
Q 6.78125 27.484375 10.78125 32.3125 
Q 14.796875 37.15625 21.921875 38.8125 
z
M 18.3125 54.390625 
Q 18.3125 48.734375 21.84375 45.5625 
Q 25.390625 42.390625 31.78125 42.390625 
Q 38.140625 42.390625 41.71875 45.5625 
Q 45.3125 48.734375 45.3125 54.390625 
Q 45.3125 60.0625 41.71875 63.234375 
Q 38.140625 66.40625 31.78125 66.40625 
Q 25.390625 66.40625 21.84375 63.234375 
Q 18.3125 60.0625 18.3125 54.390625 
z
" id="DejaVuSans-56"/>
       </defs>
       <use xlink:href="#DejaVuSans-56"/>
       <use x="63.623047" xlink:href="#DejaVuSans-48"/>
      </g>
     </g>
    </g>
    <g id="xtick_5">
     <g id="line2d_5">
      <g>
       <use style="stroke:#000000;stroke-width:0.8;" x="406.052168" xlink:href="#mcfe9921ef7" y="307.584"/>
      </g>
     </g>
     <g id="text_5">
      <!-- 100 -->
      <g transform="translate(396.508418 322.182437)scale(0.1 -0.1)">
       <defs>
        <path d="M 12.40625 8.296875 
L 28.515625 8.296875 
L 28.515625 63.921875 
L 10.984375 60.40625 
L 10.984375 69.390625 
L 28.421875 72.90625 
L 38.28125 72.90625 
L 38.28125 8.296875 
L 54.390625 8.296875 
L 54.390625 0 
L 12.40625 0 
z
" id="DejaVuSans-49"/>
       </defs>
       <use xlink:href="#DejaVuSans-49"/>
       <use x="63.623047" xlink:href="#DejaVuSans-48"/>
       <use x="127.246094" xlink:href="#DejaVuSans-48"/>
      </g>
     </g>
    </g>
   </g>
   <g id="matplotlib.axis_2">
    <g id="ytick_1">
     <g id="line2d_6">
      <defs>
       <path d="M 0 0 
L -3.5 0 
" id="mba6bfdd62f" style="stroke:#000000;stroke-width:0.8;"/>
      </defs>
      <g>
       <use style="stroke:#000000;stroke-width:0.8;" x="57.6" xlink:href="#mba6bfdd62f" y="274.759493"/>
      </g>
     </g>
     <g id="text_6">
      <!-- 0 -->
      <g transform="translate(44.2375 278.558712)scale(0.1 -0.1)">
       <use xlink:href="#DejaVuSans-48"/>
      </g>
     </g>
    </g>
    <g id="ytick_2">
     <g id="line2d_7">
      <g>
       <use style="stroke:#000000;stroke-width:0.8;" x="57.6" xlink:href="#mba6bfdd62f" y="239.453054"/>
      </g>
     </g>
     <g id="text_7">
      <!-- 10 -->
      <g transform="translate(37.875 243.252272)scale(0.1 -0.1)">
       <use xlink:href="#DejaVuSans-49"/>
       <use x="63.623047" xlink:href="#DejaVuSans-48"/>
      </g>
     </g>
    </g>
    <g id="ytick_3">
     <g id="line2d_8">
      <g>
       <use style="stroke:#000000;stroke-width:0.8;" x="57.6" xlink:href="#mba6bfdd62f" y="204.146614"/>
      </g>
     </g>
     <g id="text_8">
      <!-- 20 -->
      <g transform="translate(37.875 207.945833)scale(0.1 -0.1)">
       <use xlink:href="#DejaVuSans-50"/>
       <use x="63.623047" xlink:href="#DejaVuSans-48"/>
      </g>
     </g>
    </g>
    <g id="ytick_4">
     <g id="line2d_9">
      <g>
       <use style="stroke:#000000;stroke-width:0.8;" x="57.6" xlink:href="#mba6bfdd62f" y="168.840175"/>
      </g>
     </g>
     <g id="text_9">
      <!-- 30 -->
      <g transform="translate(37.875 172.639394)scale(0.1 -0.1)">
       <defs>
        <path d="M 40.578125 39.3125 
Q 47.65625 37.796875 51.625 33 
Q 55.609375 28.21875 55.609375 21.1875 
Q 55.609375 10.40625 48.1875 4.484375 
Q 40.765625 -1.421875 27.09375 -1.421875 
Q 22.515625 -1.421875 17.65625 -0.515625 
Q 12.796875 0.390625 7.625 2.203125 
L 7.625 11.71875 
Q 11.71875 9.328125 16.59375 8.109375 
Q 21.484375 6.890625 26.8125 6.890625 
Q 36.078125 6.890625 40.9375 10.546875 
Q 45.796875 14.203125 45.796875 21.1875 
Q 45.796875 27.640625 41.28125 31.265625 
Q 36.765625 34.90625 28.71875 34.90625 
L 20.21875 34.90625 
L 20.21875 43.015625 
L 29.109375 43.015625 
Q 36.375 43.015625 40.234375 45.921875 
Q 44.09375 48.828125 44.09375 54.296875 
Q 44.09375 59.90625 40.109375 62.90625 
Q 36.140625 65.921875 28.71875 65.921875 
Q 24.65625 65.921875 20.015625 65.03125 
Q 15.375 64.15625 9.8125 62.3125 
L 9.8125 71.09375 
Q 15.4375 72.65625 20.34375 73.4375 
Q 25.25 74.21875 29.59375 74.21875 
Q 40.828125 74.21875 47.359375 69.109375 
Q 53.90625 64.015625 53.90625 55.328125 
Q 53.90625 49.265625 50.4375 45.09375 
Q 46.96875 40.921875 40.578125 39.3125 
z
" id="DejaVuSans-51"/>
       </defs>
       <use xlink:href="#DejaVuSans-51"/>
       <use x="63.623047" xlink:href="#DejaVuSans-48"/>
      </g>
     </g>
    </g>
    <g id="ytick_5">
     <g id="line2d_10">
      <g>
       <use style="stroke:#000000;stroke-width:0.8;" x="57.6" xlink:href="#mba6bfdd62f" y="133.533736"/>
      </g>
     </g>
     <g id="text_10">
      <!-- 40 -->
      <g transform="translate(37.875 137.332955)scale(0.1 -0.1)">
       <use xlink:href="#DejaVuSans-52"/>
       <use x="63.623047" xlink:href="#DejaVuSans-48"/>
      </g>
     </g>
    </g>
    <g id="ytick_6">
     <g id="line2d_11">
      <g>
       <use style="stroke:#000000;stroke-width:0.8;" x="57.6" xlink:href="#mba6bfdd62f" y="98.227297"/>
      </g>
     </g>
     <g id="text_11">
      <!-- 50 -->
      <g transform="translate(37.875 102.026515)scale(0.1 -0.1)">
       <defs>
        <path d="M 10.796875 72.90625 
L 49.515625 72.90625 
L 49.515625 64.59375 
L 19.828125 64.59375 
L 19.828125 46.734375 
Q 21.96875 47.46875 24.109375 47.828125 
Q 26.265625 48.1875 28.421875 48.1875 
Q 40.625 48.1875 47.75 41.5 
Q 54.890625 34.8125 54.890625 23.390625 
Q 54.890625 11.625 47.5625 5.09375 
Q 40.234375 -1.421875 26.90625 -1.421875 
Q 22.3125 -1.421875 17.546875 -0.640625 
Q 12.796875 0.140625 7.71875 1.703125 
L 7.71875 11.625 
Q 12.109375 9.234375 16.796875 8.0625 
Q 21.484375 6.890625 26.703125 6.890625 
Q 35.15625 6.890625 40.078125 11.328125 
Q 45.015625 15.765625 45.015625 23.390625 
Q 45.015625 31 40.078125 35.4375 
Q 35.15625 39.890625 26.703125 39.890625 
Q 22.75 39.890625 18.8125 39.015625 
Q 14.890625 38.140625 10.796875 36.28125 
z
" id="DejaVuSans-53"/>
       </defs>
       <use xlink:href="#DejaVuSans-53"/>
       <use x="63.623047" xlink:href="#DejaVuSans-48"/>
      </g>
     </g>
    </g>
    <g id="ytick_7">
     <g id="line2d_12">
      <g>
       <use style="stroke:#000000;stroke-width:0.8;" x="57.6" xlink:href="#mba6bfdd62f" y="62.920857"/>
      </g>
     </g>
     <g id="text_12">
      <!-- 60 -->
      <g transform="translate(37.875 66.720076)scale(0.1 -0.1)">
       <use xlink:href="#DejaVuSans-54"/>
       <use x="63.623047" xlink:href="#DejaVuSans-48"/>
      </g>
     </g>
    </g>
   </g>
   <g id="line2d_13">
    <path clip-path="url(#pb7fef50366)" d="M 254.562829 191.778769 
L 253.521289 188.205757 
L 252.730425 184.622154 
L 252.183175 181.03855 
L 251.872478 177.454946 
L 251.791273 173.888996 
L 251.932499 170.337168 
L 252.289094 166.813586 
L 252.857528 163.321779 
L 253.627208 159.87234 
L 254.591074 156.47233 
L 255.745594 153.125279 
L 257.083709 149.83825 
L 258.598355 146.625364 
L 260.278941 143.486621 
L 262.125468 140.432614 
L 264.123813 137.470404 
L 266.270444 134.607052 
L 268.561832 131.849619 
L 270.987384 129.205166 
L 273.54004 126.680756 
L 276.216268 124.283449 
L 279.005477 122.023837 
L 281.900605 119.908981 
L 284.898121 117.945943 
L 287.990965 116.148845 
L 291.168545 114.524749 
L 294.427329 113.077185 
L 297.756727 111.820276 
L 301.156737 110.764613 
L 304.609706 109.913728 
L 308.119166 109.274682 
L 311.663933 108.851004 
L 315.236945 108.639166 
L 318.820548 108.632104 
L 322.400621 108.82982 
L 325.966571 109.228783 
L 329.500746 109.825462 
L 332.996084 110.616326 
L 336.434931 111.601376 
L 339.803165 112.77708 
L 343.086664 114.136378 
L 346.288958 115.675739 
L 349.399455 117.384571 
L 352.418156 119.259343 
L 355.337998 121.285932 
L 358.162513 123.460809 
L 360.881109 125.780442 
L 363.497316 128.227178 
L 366.000543 130.801018 
L 368.39432 133.491368 
L 370.668054 136.291169 
L 372.814686 139.189828 
L 374.820091 142.187344 
L 376.670149 145.273127 
L 378.354266 148.440115 
L 379.85479 151.681246 
L 381.164659 154.99299 
L 382.262689 158.361224 
L 383.14535 161.789479 
L 383.794988 165.260102 
L 384.197482 168.773093 
L 384.366953 172.314329 
L 384.303401 175.869687 
L 384.013888 179.428576 
L 383.512537 182.973343 
L 382.802877 186.496925 
L 381.891971 189.985202 
L 380.78688 193.420518 
L 379.498195 196.795814 
L 378.032977 200.093435 
L 376.394759 203.306321 
L 374.59413 206.420349 
L 372.638154 209.431988 
L 370.526828 212.330647 
L 368.274278 215.105733 
L 365.880501 217.753716 
L 363.356091 220.264004 
L 360.701046 222.629535 
L 357.929491 224.839718 
L 355.041424 226.887492 
L 352.043908 228.769325 
L 348.951063 230.485218 
L 345.769953 232.042232 
L 342.511169 233.447428 
L 339.181772 234.704338 
L 335.795884 235.820021 
L 332.360568 236.80154 
L 328.889945 237.652425 
L 325.391077 238.379738 
L 318.343911 239.484829 
L 311.275562 240.155652 
L 304.196621 240.416919 
L 297.124741 240.293347 
L 290.077576 239.81671 
L 283.069248 239.011723 
L 276.099757 237.948999 
L 251.71713 233.811085 
L 244.680556 232.96373 
L 237.612207 232.41295 
L 230.533266 232.201111 
L 223.461386 232.377643 
L 219.934273 232.624788 
L 216.417752 232.984914 
L 209.416485 234.022923 
L 191.989226 237.105175 
L 188.493889 237.560629 
L 184.995021 237.892509 
L 181.48203 238.069041 
L 177.954917 238.065511 
L 174.424273 237.881917 
L 170.89716 237.528853 
L 167.377108 237.009848 
L 163.87824 236.339026 
L 160.400555 235.516386 
L 156.958177 234.548989 
L 153.558167 233.450959 
L 150.207586 232.225826 
L 146.913495 230.88065 
L 143.682956 229.422494 
L 140.512438 227.858419 
L 134.351464 224.423103 
L 128.402329 220.617068 
L 122.64738 216.472092 
L 117.05837 212.034073 
L 111.642363 207.324194 
L 109.033217 204.859805 
L 106.508806 202.317741 
L 104.086785 199.694472 
L 101.784805 196.986469 
L 99.62052 194.186668 
L 97.611584 191.29154 
L 95.768588 188.297554 
L 94.112716 185.197648 
L 92.65809 181.995354 
L 91.404712 178.697733 
L 90.345519 175.318907 
L 89.487572 171.869468 
L 88.82028 168.360008 
L 88.343643 164.804649 
L 88.054131 161.217515 
L 87.951742 157.605666 
L 88.032947 153.990287 
L 88.294214 150.374907 
L 88.735545 146.777181 
L 89.349877 143.211231 
L 90.140741 139.680587 
L 91.101076 136.206433 
L 92.230882 132.799362 
L 93.526629 129.469965 
L 94.988315 126.232364 
L 96.608881 123.093622 
L 98.388325 120.074921 
L 100.323118 117.183324 
L 100.323118 117.183324 
" style="fill:none;stroke:#fea952;stroke-linecap:square;"/>
   </g>
   <g id="line2d_14">
    <path clip-path="url(#pb7fef50366)" d="M 241.004556 195.731032 
L 239.730552 191.24923 
L 238.769694 186.754088 
L 238.11338 182.258394 
L 237.753563 177.776466 
L 237.679848 173.327906 
L 237.881694 168.915193 
L 238.350009 164.544432 
L 239.073913 160.246213 
L 240.040056 156.02053 
L 241.240421 151.867199 
L 242.665331 147.800446 
L 244.309477 143.816112 
L 246.14813 139.959102 
L 248.193658 136.179565 
L 250.417887 132.534532 
L 252.82408 128.999088 
L 255.408652 125.581055 
L 258.154201 122.303501 
L 261.056925 119.163597 
L 264.117096 116.161475 
L 267.326373 113.309985 
L 270.675015 110.619866 
L 274.163413 108.094456 
L 277.802976 105.735044 
L 281.563625 103.573614 
L 285.435419 101.618223 
L 289.4394 99.864778 
L 293.569044 98.332857 
L 297.777715 97.052234 
L 302.079693 96.019622 
L 306.443138 95.251912 
L 310.828094 94.753185 
L 315.209117 94.516617 
L 319.599306 94.531016 
L 323.970874 94.794812 
L 328.317631 95.303279 
L 332.617375 96.051074 
L 336.885058 97.039765 
L 341.089122 98.267747 
L 345.205023 99.728437 
L 349.20524 101.408056 
L 353.088959 103.298052 
L 356.85032 105.387415 
L 360.470722 107.657475 
L 363.954091 110.096201 
L 367.329211 112.717495 
L 370.527611 115.465785 
L 373.621396 118.380851 
L 376.551303 121.413334 
L 379.357162 124.588379 
L 382.017331 127.886345 
L 384.552601 131.336899 
L 386.932545 134.925415 
L 389.139317 138.642366 
L 391.170036 142.506888 
L 392.987451 146.486984 
L 394.591773 150.615807 
L 395.939235 154.839971 
L 397.026835 159.191114 
L 397.825774 163.652555 
L 398.303913 168.09801 
L 398.487273 172.566728 
L 398.379478 177.014765 
L 397.997297 181.406309 
L 397.357114 185.76168 
L 396.467244 190.065151 
L 395.33606 194.30997 
L 393.980533 198.457844 
L 392.404137 202.530253 
L 390.614428 206.508592 
L 388.620601 210.375686 
L 386.437968 214.112595 
L 384.053574 217.746753 
L 381.491823 221.230986 
L 378.750643 224.576367 
L 375.838619 227.767857 
L 372.750798 230.808511 
L 369.506186 233.671124 
L 366.098054 236.36021 
L 362.55042 238.84835 
L 358.895254 241.118665 
L 355.159649 243.169879 
L 351.361922 245.010541 
L 347.499098 246.659836 
L 343.60154 248.117495 
L 339.675654 249.399216 
L 335.723379 250.517904 
L 331.764175 251.479426 
L 327.792002 252.296731 
L 323.844739 252.970985 
L 319.886556 253.522899 
L 315.934827 253.950889 
L 311.992733 254.260006 
L 304.140244 254.539383 
L 296.348398 254.394568 
L 288.621964 253.864071 
L 281.04627 252.988658 
L 273.711591 251.868188 
L 249.887519 247.814644 
L 243.429837 247.030814 
L 237.007309 246.522565 
L 230.688295 246.322836 
L 224.448536 246.465676 
L 218.308268 246.980381 
L 211.893257 247.926619 
L 193.814015 251.109364 
L 189.827481 251.620098 
L 185.703804 251.997287 
L 181.467893 252.19161 
L 177.221534 252.169031 
L 173.017631 251.934266 
L 168.837165 251.50038 
L 164.717883 250.879804 
L 160.627285 250.082331 
L 156.579757 249.112291 
L 152.618022 247.988119 
L 148.708316 246.714672 
L 144.868501 245.300278 
L 141.103469 243.752742 
L 137.434938 242.087778 
L 133.826202 240.297928 
L 130.337908 238.415309 
L 126.909719 236.425918 
L 120.297899 232.182766 
L 113.98471 227.625805 
L 107.9111 222.793933 
L 101.945062 217.591107 
L 99.012314 214.811118 
L 96.13256 211.897963 
L 93.326585 208.841344 
L 90.611372 205.623687 
L 88.017715 202.237883 
L 85.584949 198.694728 
L 83.311814 194.951571 
L 81.25454 191.038407 
L 79.456914 187.012932 
L 77.92876 182.922169 
L 76.640492 178.727629 
L 75.613567 174.507483 
L 74.822928 170.236515 
L 74.266841 165.940769 
L 73.937226 161.617701 
L 73.832727 157.28854 
L 73.947104 152.972365 
L 74.276711 148.65539 
L 74.817992 144.379504 
L 75.568809 140.124272 
L 76.528641 135.917893 
L 77.696295 131.761325 
L 79.069886 127.67732 
L 80.655049 123.658805 
L 82.439631 119.753347 
L 84.442739 115.922001 
L 86.650878 112.221293 
L 88.585671 109.329696 
L 88.585671 109.329696 
" style="fill:none;stroke:#ffffff;stroke-linecap:square;"/>
   </g>
   <g id="line2d_15">
    <path clip-path="url(#pb7fef50366)" d="M 268.121101 187.826505 
L 267.312025 185.162284 
L 266.691155 182.490219 
L 266.252969 179.818706 
L 265.991393 177.133427 
L 265.902698 174.450086 
L 265.983304 171.759144 
L 266.228179 169.082739 
L 266.641143 166.397345 
L 267.21436 163.724149 
L 267.941726 161.07746 
L 268.825858 158.450112 
L 269.85794 155.860387 
L 271.048579 153.291626 
L 272.364225 150.793677 
L 273.833049 148.330696 
L 275.423545 145.94172 
L 277.132236 143.633048 
L 278.969463 141.395737 
L 280.917844 139.246736 
L 282.962984 137.200037 
L 285.106163 135.256913 
L 287.335938 133.427808 
L 289.637797 131.723506 
L 291.993267 130.156842 
L 294.418306 128.724076 
L 296.901671 127.431275 
L 299.415258 126.289592 
L 301.944409 125.307694 
L 304.535759 124.476993 
L 307.13972 123.807834 
L 309.795195 123.297451 
L 312.499772 122.948824 
L 315.264772 122.761714 
L 318.04179 122.733192 
L 320.830368 122.864828 
L 323.615512 123.154287 
L 326.384117 123.59985 
L 329.10711 124.192888 
L 331.78074 124.935004 
L 334.401308 125.825723 
L 336.968088 126.8647 
L 339.488957 128.053426 
L 341.94859 129.381727 
L 344.36559 130.86121 
L 346.721905 132.475663 
L 348.995816 134.204123 
L 351.234608 136.095099 
L 353.373237 138.073505 
L 355.449783 140.188702 
L 357.431477 142.394358 
L 359.318777 144.695993 
L 361.07677 147.042756 
L 362.707638 149.449273 
L 364.200981 151.903888 
L 365.538496 154.373341 
L 366.722128 156.875507 
L 367.737544 159.370173 
L 368.586142 161.882477 
L 369.263864 164.387845 
L 369.764203 166.86765 
L 370.09105 169.448176 
L 370.246633 172.06193 
L 370.227324 174.72461 
L 370.03048 177.450843 
L 369.667959 180.185006 
L 369.138511 182.9287 
L 368.447883 185.660433 
L 367.593226 188.383192 
L 366.592252 191.061375 
L 365.451527 193.678278 
L 364.168916 196.236956 
L 362.750293 198.728103 
L 361.222733 201.117224 
L 359.561834 203.430308 
L 357.797912 205.635099 
L 355.922383 207.739575 
L 353.961384 209.719497 
L 351.895907 211.587947 
L 349.760928 213.319227 
L 347.532428 214.926634 
L 345.192561 216.419985 
L 342.742478 217.800558 
L 340.177985 219.073923 
L 337.52324 220.235021 
L 334.762003 221.29118 
L 331.916114 222.240826 
L 328.997756 223.085176 
L 322.990151 224.462745 
L 316.801266 225.44676 
L 310.558392 226.051298 
L 304.252998 226.294456 
L 297.901085 226.192126 
L 291.533188 225.769349 
L 285.092225 225.034788 
L 278.487922 224.029811 
L 253.54674 219.807526 
L 245.931276 218.896646 
L 238.217106 218.303334 
L 230.378237 218.079386 
L 226.445748 218.128079 
L 222.474237 218.28961 
L 218.49551 218.575692 
L 214.527235 218.989447 
L 206.939713 220.119228 
L 190.164438 223.100987 
L 184.286238 223.787731 
L 181.496167 223.946473 
L 178.6883 223.96199 
L 175.830914 223.829568 
L 172.957154 223.557326 
L 170.036332 223.139892 
L 167.129194 222.59572 
L 164.221353 221.92048 
L 161.298332 221.10986 
L 158.408018 220.187246 
L 155.546671 219.151373 
L 152.723522 218.008559 
L 147.198674 215.41891 
L 141.79321 212.420287 
L 136.50676 209.051371 
L 131.31005 205.31838 
L 126.205641 201.274213 
L 121.339663 197.057281 
L 116.885053 192.737519 
L 114.846984 190.547601 
L 112.958238 188.34925 
L 111.223325 186.135453 
L 109.638219 183.888352 
L 108.225361 181.643537 
L 106.970891 179.35689 
L 105.859267 176.977777 
L 104.880664 174.473297 
L 104.050545 171.910185 
L 103.361577 169.231453 
L 102.817632 166.483501 
L 102.420446 163.668529 
L 102.171035 160.817329 
L 102.070757 157.922793 
L 102.11879 155.008209 
L 102.311718 152.094425 
L 102.653098 149.174859 
L 103.130945 146.29819 
L 103.752842 143.443281 
L 104.505857 140.651542 
L 105.391879 137.921404 
L 106.398208 135.281125 
L 107.537 132.711381 
L 108.775023 130.265242 
L 110.125773 127.928549 
L 112.060566 125.036952 
L 112.060566 125.036952 
" style="fill:none;stroke:#ffffff;stroke-linecap:square;"/>
   </g>
   <g id="patch_3">
    <path d="M 57.6 307.584 
L 57.6 41.472 
" style="fill:none;stroke:#000000;stroke-linecap:square;stroke-linejoin:miter;stroke-width:0.8;"/>
   </g>
   <g id="patch_4">
    <path d="M 414.72 307.584 
L 414.72 41.472 
" style="fill:none;stroke:#000000;stroke-linecap:square;stroke-linejoin:miter;stroke-width:0.8;"/>
   </g>
   <g id="patch_5">
    <path d="M 57.6 307.584 
L 414.72 307.584 
" style="fill:none;stroke:#000000;stroke-linecap:square;stroke-linejoin:miter;stroke-width:0.8;"/>
   </g>
   <g id="patch_6">
    <path d="M 57.6 41.472 
L 414.72 41.472 
" style="fill:none;stroke:#000000;stroke-linecap:square;stroke-linejoin:miter;stroke-width:0.8;"/>
   </g>
  </g>
 </g>
 <defs>
  <clipPath id="pb7fef50366">
   <rect height="266.112" width="357.12" x="57.6" y="41.472"/>
  </clipPath>
 </defs>
</svg>
