<?xml version="1.0" encoding="utf-8" standalone="no"?>
<!DOCTYPE svg PUBLIC "-//W3C//DTD SVG 1.1//EN"
  "http://www.w3.org/Graphics/SVG/1.1/DTD/svg11.dtd">
<!-- Created with matplotlib (https://matplotlib.org/) -->
<svg height="345.6pt" version="1.1" viewBox="0 0 460.8 345.6" width="460.8pt" xmlns="http://www.w3.org/2000/svg" xmlns:xlink="http://www.w3.org/1999/xlink">
 <metadata>
  <rdf:RDF xmlns:cc="http://creativecommons.org/ns#" xmlns:dc="http://purl.org/dc/elements/1.1/" xmlns:rdf="http://www.w3.org/1999/02/22-rdf-syntax-ns#">
   <cc:Work>
    <dc:type rdf:resource="http://purl.org/dc/dcmitype/StillImage"/>
    <dc:date>2021-01-22T09:40:02.772421</dc:date>
    <dc:format>image/svg+xml</dc:format>
    <dc:creator>
     <cc:Agent>
      <dc:title>Matplotlib v3.3.3, https://matplotlib.org/</dc:title>
     </cc:Agent>
    </dc:creator>
   </cc:Work>
  </rdf:RDF>
 </metadata>
 <defs>
  <style type="text/css">*{stroke-linecap:butt;stroke-linejoin:round;}</style>
 </defs>
 <g id="figure_1">
  <g id="patch_1">
   <path d="M 0 345.6 
L 460.8 345.6 
L 460.8 0 
L 0 0 
z
" style="fill:#ffffff;"/>
  </g>
  <g id="axes_1">
   <g id="patch_2">
    <path d="M 57.6 307.584 
L 414.72 307.584 
L 414.72 41.472 
L 57.6 41.472 
z
" style="fill:#7d9051;"/>
   </g>
   <g id="matplotlib.axis_1">
    <g id="xtick_1">
     <g id="line2d_1">
      <defs>
       <path d="M 0 0 
L 0 3.5 
" id="mf328a2ca08" style="stroke:#000000;stroke-width:0.8;"/>
      </defs>
      <g>
       <use style="stroke:#000000;stroke-width:0.8;" x="60.941075" xlink:href="#mf328a2ca08" y="307.584"/>
      </g>
     </g>
     <g id="text_1">
      <!-- 0 -->
      <g transform="translate(57.759825 322.182437)scale(0.1 -0.1)">
       <defs>
        <path d="M 31.78125 66.40625 
Q 24.171875 66.40625 20.328125 58.90625 
Q 16.5 51.421875 16.5 36.375 
Q 16.5 21.390625 20.328125 13.890625 
Q 24.171875 6.390625 31.78125 6.390625 
Q 39.453125 6.390625 43.28125 13.890625 
Q 47.125 21.390625 47.125 36.375 
Q 47.125 51.421875 43.28125 58.90625 
Q 39.453125 66.40625 31.78125 66.40625 
z
M 31.78125 74.21875 
Q 44.046875 74.21875 50.515625 64.515625 
Q 56.984375 54.828125 56.984375 36.375 
Q 56.984375 17.96875 50.515625 8.265625 
Q 44.046875 -1.421875 31.78125 -1.421875 
Q 19.53125 -1.421875 13.0625 8.265625 
Q 6.59375 17.96875 6.59375 36.375 
Q 6.59375 54.828125 13.0625 64.515625 
Q 19.53125 74.21875 31.78125 74.21875 
z
" id="DejaVuSans-48"/>
       </defs>
       <use xlink:href="#DejaVuSans-48"/>
      </g>
     </g>
    </g>
    <g id="xtick_2">
     <g id="line2d_2">
      <g>
       <use style="stroke:#000000;stroke-width:0.8;" x="110.049074" xlink:href="#mf328a2ca08" y="307.584"/>
      </g>
     </g>
     <g id="text_2">
      <!-- 20 -->
      <g transform="translate(103.686574 322.182437)scale(0.1 -0.1)">
       <defs>
        <path d="M 19.1875 8.296875 
L 53.609375 8.296875 
L 53.609375 0 
L 7.328125 0 
L 7.328125 8.296875 
Q 12.9375 14.109375 22.625 23.890625 
Q 32.328125 33.6875 34.8125 36.53125 
Q 39.546875 41.84375 41.421875 45.53125 
Q 43.3125 49.21875 43.3125 52.78125 
Q 43.3125 58.59375 39.234375 62.25 
Q 35.15625 65.921875 28.609375 65.921875 
Q 23.96875 65.921875 18.8125 64.3125 
Q 13.671875 62.703125 7.8125 59.421875 
L 7.8125 69.390625 
Q 13.765625 71.78125 18.9375 73 
Q 24.125 74.21875 28.421875 74.21875 
Q 39.75 74.21875 46.484375 68.546875 
Q 53.21875 62.890625 53.21875 53.421875 
Q 53.21875 48.921875 51.53125 44.890625 
Q 49.859375 40.875 45.40625 35.40625 
Q 44.1875 33.984375 37.640625 27.21875 
Q 31.109375 20.453125 19.1875 8.296875 
z
" id="DejaVuSans-50"/>
       </defs>
       <use xlink:href="#DejaVuSans-50"/>
       <use x="63.623047" xlink:href="#DejaVuSans-48"/>
      </g>
     </g>
    </g>
    <g id="xtick_3">
     <g id="line2d_3">
      <g>
       <use style="stroke:#000000;stroke-width:0.8;" x="159.157074" xlink:href="#mf328a2ca08" y="307.584"/>
      </g>
     </g>
     <g id="text_3">
      <!-- 40 -->
      <g transform="translate(152.794574 322.182437)scale(0.1 -0.1)">
       <defs>
        <path d="M 37.796875 64.3125 
L 12.890625 25.390625 
L 37.796875 25.390625 
z
M 35.203125 72.90625 
L 47.609375 72.90625 
L 47.609375 25.390625 
L 58.015625 25.390625 
L 58.015625 17.1875 
L 47.609375 17.1875 
L 47.609375 0 
L 37.796875 0 
L 37.796875 17.1875 
L 4.890625 17.1875 
L 4.890625 26.703125 
z
" id="DejaVuSans-52"/>
       </defs>
       <use xlink:href="#DejaVuSans-52"/>
       <use x="63.623047" xlink:href="#DejaVuSans-48"/>
      </g>
     </g>
    </g>
    <g id="xtick_4">
     <g id="line2d_4">
      <g>
       <use style="stroke:#000000;stroke-width:0.8;" x="208.265073" xlink:href="#mf328a2ca08" y="307.584"/>
      </g>
     </g>
     <g id="text_4">
      <!-- 60 -->
      <g transform="translate(201.902573 322.182437)scale(0.1 -0.1)">
       <defs>
        <path d="M 33.015625 40.375 
Q 26.375 40.375 22.484375 35.828125 
Q 18.609375 31.296875 18.609375 23.390625 
Q 18.609375 15.53125 22.484375 10.953125 
Q 26.375 6.390625 33.015625 6.390625 
Q 39.65625 6.390625 43.53125 10.953125 
Q 47.40625 15.53125 47.40625 23.390625 
Q 47.40625 31.296875 43.53125 35.828125 
Q 39.65625 40.375 33.015625 40.375 
z
M 52.59375 71.296875 
L 52.59375 62.3125 
Q 48.875 64.0625 45.09375 64.984375 
Q 41.3125 65.921875 37.59375 65.921875 
Q 27.828125 65.921875 22.671875 59.328125 
Q 17.53125 52.734375 16.796875 39.40625 
Q 19.671875 43.65625 24.015625 45.921875 
Q 28.375 48.1875 33.59375 48.1875 
Q 44.578125 48.1875 50.953125 41.515625 
Q 57.328125 34.859375 57.328125 23.390625 
Q 57.328125 12.15625 50.6875 5.359375 
Q 44.046875 -1.421875 33.015625 -1.421875 
Q 20.359375 -1.421875 13.671875 8.265625 
Q 6.984375 17.96875 6.984375 36.375 
Q 6.984375 53.65625 15.1875 63.9375 
Q 23.390625 74.21875 37.203125 74.21875 
Q 40.921875 74.21875 44.703125 73.484375 
Q 48.484375 72.75 52.59375 71.296875 
z
" id="DejaVuSans-54"/>
       </defs>
       <use xlink:href="#DejaVuSans-54"/>
       <use x="63.623047" xlink:href="#DejaVuSans-48"/>
      </g>
     </g>
    </g>
    <g id="xtick_5">
     <g id="line2d_5">
      <g>
       <use style="stroke:#000000;stroke-width:0.8;" x="257.373072" xlink:href="#mf328a2ca08" y="307.584"/>
      </g>
     </g>
     <g id="text_5">
      <!-- 80 -->
      <g transform="translate(251.010572 322.182437)scale(0.1 -0.1)">
       <defs>
        <path d="M 31.78125 34.625 
Q 24.75 34.625 20.71875 30.859375 
Q 16.703125 27.09375 16.703125 20.515625 
Q 16.703125 13.921875 20.71875 10.15625 
Q 24.75 6.390625 31.78125 6.390625 
Q 38.8125 6.390625 42.859375 10.171875 
Q 46.921875 13.96875 46.921875 20.515625 
Q 46.921875 27.09375 42.890625 30.859375 
Q 38.875 34.625 31.78125 34.625 
z
M 21.921875 38.8125 
Q 15.578125 40.375 12.03125 44.71875 
Q 8.5 49.078125 8.5 55.328125 
Q 8.5 64.0625 14.71875 69.140625 
Q 20.953125 74.21875 31.78125 74.21875 
Q 42.671875 74.21875 48.875 69.140625 
Q 55.078125 64.0625 55.078125 55.328125 
Q 55.078125 49.078125 51.53125 44.71875 
Q 48 40.375 41.703125 38.8125 
Q 48.828125 37.15625 52.796875 32.3125 
Q 56.78125 27.484375 56.78125 20.515625 
Q 56.78125 9.90625 50.3125 4.234375 
Q 43.84375 -1.421875 31.78125 -1.421875 
Q 19.734375 -1.421875 13.25 4.234375 
Q 6.78125 9.90625 6.78125 20.515625 
Q 6.78125 27.484375 10.78125 32.3125 
Q 14.796875 37.15625 21.921875 38.8125 
z
M 18.3125 54.390625 
Q 18.3125 48.734375 21.84375 45.5625 
Q 25.390625 42.390625 31.78125 42.390625 
Q 38.140625 42.390625 41.71875 45.5625 
Q 45.3125 48.734375 45.3125 54.390625 
Q 45.3125 60.0625 41.71875 63.234375 
Q 38.140625 66.40625 31.78125 66.40625 
Q 25.390625 66.40625 21.84375 63.234375 
Q 18.3125 60.0625 18.3125 54.390625 
z
" id="DejaVuSans-56"/>
       </defs>
       <use xlink:href="#DejaVuSans-56"/>
       <use x="63.623047" xlink:href="#DejaVuSans-48"/>
      </g>
     </g>
    </g>
    <g id="xtick_6">
     <g id="line2d_6">
      <g>
       <use style="stroke:#000000;stroke-width:0.8;" x="306.481071" xlink:href="#mf328a2ca08" y="307.584"/>
      </g>
     </g>
     <g id="text_6">
      <!-- 100 -->
      <g transform="translate(296.937321 322.182437)scale(0.1 -0.1)">
       <defs>
        <path d="M 12.40625 8.296875 
L 28.515625 8.296875 
L 28.515625 63.921875 
L 10.984375 60.40625 
L 10.984375 69.390625 
L 28.421875 72.90625 
L 38.28125 72.90625 
L 38.28125 8.296875 
L 54.390625 8.296875 
L 54.390625 0 
L 12.40625 0 
z
" id="DejaVuSans-49"/>
       </defs>
       <use xlink:href="#DejaVuSans-49"/>
       <use x="63.623047" xlink:href="#DejaVuSans-48"/>
       <use x="127.246094" xlink:href="#DejaVuSans-48"/>
      </g>
     </g>
    </g>
    <g id="xtick_7">
     <g id="line2d_7">
      <g>
       <use style="stroke:#000000;stroke-width:0.8;" x="355.58907" xlink:href="#mf328a2ca08" y="307.584"/>
      </g>
     </g>
     <g id="text_7">
      <!-- 120 -->
      <g transform="translate(346.04532 322.182437)scale(0.1 -0.1)">
       <use xlink:href="#DejaVuSans-49"/>
       <use x="63.623047" xlink:href="#DejaVuSans-50"/>
       <use x="127.246094" xlink:href="#DejaVuSans-48"/>
      </g>
     </g>
    </g>
    <g id="xtick_8">
     <g id="line2d_8">
      <g>
       <use style="stroke:#000000;stroke-width:0.8;" x="404.697069" xlink:href="#mf328a2ca08" y="307.584"/>
      </g>
     </g>
     <g id="text_8">
      <!-- 140 -->
      <g transform="translate(395.153319 322.182437)scale(0.1 -0.1)">
       <use xlink:href="#DejaVuSans-49"/>
       <use x="63.623047" xlink:href="#DejaVuSans-52"/>
       <use x="127.246094" xlink:href="#DejaVuSans-48"/>
      </g>
     </g>
    </g>
   </g>
   <g id="matplotlib.axis_2">
    <g id="ytick_1">
     <g id="line2d_9">
      <defs>
       <path d="M 0 0 
L -3.5 0 
" id="m2c27749b1a" style="stroke:#000000;stroke-width:0.8;"/>
      </defs>
      <g>
       <use style="stroke:#000000;stroke-width:0.8;" x="57.6" xlink:href="#m2c27749b1a" y="301.881519"/>
      </g>
     </g>
     <g id="text_9">
      <!-- −20 -->
      <g transform="translate(29.495313 305.680738)scale(0.1 -0.1)">
       <defs>
        <path d="M 10.59375 35.5 
L 73.1875 35.5 
L 73.1875 27.203125 
L 10.59375 27.203125 
z
" id="DejaVuSans-8722"/>
       </defs>
       <use xlink:href="#DejaVuSans-8722"/>
       <use x="83.789062" xlink:href="#DejaVuSans-50"/>
       <use x="147.412109" xlink:href="#DejaVuSans-48"/>
      </g>
     </g>
    </g>
    <g id="ytick_2">
     <g id="line2d_10">
      <g>
       <use style="stroke:#000000;stroke-width:0.8;" x="57.6" xlink:href="#m2c27749b1a" y="252.77352"/>
      </g>
     </g>
     <g id="text_10">
      <!-- 0 -->
      <g transform="translate(44.2375 256.572739)scale(0.1 -0.1)">
       <use xlink:href="#DejaVuSans-48"/>
      </g>
     </g>
    </g>
    <g id="ytick_3">
     <g id="line2d_11">
      <g>
       <use style="stroke:#000000;stroke-width:0.8;" x="57.6" xlink:href="#m2c27749b1a" y="203.665521"/>
      </g>
     </g>
     <g id="text_11">
      <!-- 20 -->
      <g transform="translate(37.875 207.46474)scale(0.1 -0.1)">
       <use xlink:href="#DejaVuSans-50"/>
       <use x="63.623047" xlink:href="#DejaVuSans-48"/>
      </g>
     </g>
    </g>
    <g id="ytick_4">
     <g id="line2d_12">
      <g>
       <use style="stroke:#000000;stroke-width:0.8;" x="57.6" xlink:href="#m2c27749b1a" y="154.557522"/>
      </g>
     </g>
     <g id="text_12">
      <!-- 40 -->
      <g transform="translate(37.875 158.35674)scale(0.1 -0.1)">
       <use xlink:href="#DejaVuSans-52"/>
       <use x="63.623047" xlink:href="#DejaVuSans-48"/>
      </g>
     </g>
    </g>
    <g id="ytick_5">
     <g id="line2d_13">
      <g>
       <use style="stroke:#000000;stroke-width:0.8;" x="57.6" xlink:href="#m2c27749b1a" y="105.449522"/>
      </g>
     </g>
     <g id="text_13">
      <!-- 60 -->
      <g transform="translate(37.875 109.248741)scale(0.1 -0.1)">
       <use xlink:href="#DejaVuSans-54"/>
       <use x="63.623047" xlink:href="#DejaVuSans-48"/>
      </g>
     </g>
    </g>
    <g id="ytick_6">
     <g id="line2d_14">
      <g>
       <use style="stroke:#000000;stroke-width:0.8;" x="57.6" xlink:href="#m2c27749b1a" y="56.341523"/>
      </g>
     </g>
     <g id="text_14">
      <!-- 80 -->
      <g transform="translate(37.875 60.140742)scale(0.1 -0.1)">
       <use xlink:href="#DejaVuSans-56"/>
       <use x="63.623047" xlink:href="#DejaVuSans-48"/>
      </g>
     </g>
    </g>
   </g>
   <g id="line2d_15">
    <path clip-path="url(#pf75c591e61)" d="M 387.442974 197.610505 
L 388.240979 192.684972 
L 388.626477 187.72752 
L 388.611744 182.765156 
L 388.209059 177.822436 
L 387.435608 172.921458 
L 386.301213 168.091686 
L 384.820607 163.350309 
L 383.006066 158.729246 
L 380.874779 154.248141 
L 378.436567 149.931548 
L 375.706162 145.804021 
L 372.688476 141.880292 
L 369.395784 138.180004 
L 365.830544 134.712979 
L 362.00012 131.501316 
L 357.919245 128.569568 
L 353.610018 125.993854 
L 351.375604 124.86437 
L 349.096993 123.855201 
L 346.774184 122.973712 
L 344.409634 122.232181 
L 342.010709 121.64043 
L 339.577407 121.208279 
L 337.114641 120.940641 
L 334.632232 120.832603 
L 332.140001 120.881711 
L 329.645314 121.083054 
L 327.16045 121.42681 
L 324.695228 121.910524 
L 322.25456 122.529285 
L 319.850724 123.278182 
L 317.49354 124.149849 
L 315.19283 125.139375 
L 312.95105 126.241849 
L 310.77311 127.452362 
L 308.659011 128.763545 
L 306.608752 130.168034 
L 302.702211 133.242195 
L 299.060852 136.625736 
L 295.687133 140.272005 
L 292.578597 144.136804 
L 289.730333 148.19067 
L 287.122698 152.404136 
L 284.743415 156.747738 
L 282.580208 161.194468 
L 280.603611 165.717314 
L 276.952431 174.885778 
L 273.252143 184.059152 
L 271.216617 188.581999 
L 268.992025 193.009085 
L 266.524348 197.298669 
L 263.766933 201.413919 
L 260.673129 205.305728 
L 258.99118 207.154644 
L 257.220837 208.929898 
L 255.371921 210.621669 
L 253.444432 212.225045 
L 251.443281 213.732661 
L 249.37829 215.132239 
L 247.249458 216.423779 
L 245.061697 217.592549 
L 242.824827 218.633639 
L 240.536394 219.542137 
L 238.20622 220.320499 
L 233.440289 221.545743 
L 228.568775 222.434598 
L 221.158378 223.39466 
L 206.391603 225.187101 
L 194.161255 226.655431 
L 186.7926 227.365041 
L 179.399391 227.885586 
L 171.991449 228.175323 
L 164.581052 228.197422 
L 157.180477 227.944516 
L 149.787267 227.428882 
L 142.40388 226.667708 
L 137.495535 226.007205 
L 132.616655 225.182191 
L 127.781973 224.141101 
L 123.011131 222.84465 
L 118.321317 221.246185 
L 113.73954 219.31624 
L 109.31491 217.04254 
L 105.094077 214.412806 
L 103.073283 212.96412 
L 101.123696 211.422129 
L 99.24777 209.786833 
L 97.450417 208.058231 
L 95.741459 206.23878 
L 94.120895 204.33339 
L 92.598547 202.349426 
L 91.174415 200.294257 
L 89.85832 198.170336 
L 88.655175 195.982574 
L 87.567432 193.740794 
L 86.600005 191.444995 
L 85.762713 189.104999 
L 85.055558 186.725717 
L 84.485905 184.312058 
L 84.058666 181.868935 
L 83.77875 179.401258 
L 83.653525 176.916394 
L 83.685445 174.419252 
L 83.879422 171.917199 
L 84.242821 169.412691 
L 84.780553 166.913094 
L 85.495075 164.420863 
L 85.495075 164.420863 
" style="fill:none;stroke:#fea952;stroke-linecap:square;"/>
   </g>
   <g id="line2d_16">
    <path clip-path="url(#pf75c591e61)" d="M 377.783212 195.834884 
L 378.466316 191.725912 
L 378.806265 187.562393 
L 378.808671 183.368123 
L 378.480803 179.173313 
L 377.834591 174.991313 
L 376.877165 170.857756 
L 375.617585 166.780791 
L 374.064145 162.791988 
L 372.238725 158.926004 
L 370.152466 155.207673 
L 367.813945 151.650108 
L 365.232737 148.273709 
L 362.421827 145.095764 
L 359.38558 142.124205 
L 356.114843 139.364353 
L 352.699152 136.889091 
L 349.179178 134.759211 
L 345.612258 133.037817 
L 342.057413 131.76795 
L 340.293283 131.310708 
L 338.516302 130.972391 
L 336.687597 130.752952 
L 334.825723 130.652297 
L 332.93012 130.671478 
L 330.991216 130.811999 
L 329.051536 131.064632 
L 325.175916 131.906358 
L 321.374076 133.172335 
L 317.722484 134.826559 
L 314.209632 136.866287 
L 310.857912 139.253629 
L 307.670933 141.964761 
L 304.671257 144.953534 
L 301.856785 148.203236 
L 299.247904 151.65787 
L 296.821577 155.326639 
L 294.579815 159.165222 
L 292.516151 163.156155 
L 290.604504 167.309184 
L 287.892758 173.882977 
L 282.245582 188.006542 
L 280.045644 192.884568 
L 277.581779 197.771432 
L 274.782267 202.615678 
L 271.586707 207.356558 
L 269.820559 209.665225 
L 267.938341 211.914852 
L 265.945713 214.089938 
L 263.850995 216.17592 
L 261.652931 218.172347 
L 259.354319 220.069601 
L 256.953631 221.862843 
L 254.472705 223.529307 
L 251.877442 225.086665 
L 249.20601 226.496958 
L 246.448823 227.762192 
L 243.648146 228.85776 
L 240.855145 229.778142 
L 238.080563 230.545893 
L 232.639347 231.711197 
L 227.356445 232.530166 
L 214.955414 234.01097 
L 192.656555 236.68651 
L 185.022659 237.358606 
L 177.310109 237.825024 
L 169.550606 238.036166 
L 161.781292 237.959387 
L 154.03214 237.599917 
L 146.310541 236.972105 
L 138.562497 236.079538 
L 133.317773 235.286457 
L 128.008916 234.266748 
L 122.667874 232.96713 
L 117.32718 231.326951 
L 112.036913 229.303636 
L 106.851021 226.870012 
L 104.301723 225.488354 
L 101.804527 223.995528 
L 99.371635 222.395129 
L 96.980467 220.667458 
L 94.669859 218.82563 
L 92.43956 216.865823 
L 90.291525 214.782373 
L 88.259899 212.601962 
L 86.328895 210.3124 
L 84.525735 207.943489 
L 82.825714 205.467556 
L 81.252275 202.903178 
L 79.818827 200.27009 
L 78.516592 197.554731 
L 77.35257 194.753888 
L 76.348138 191.903139 
L 75.496577 188.981753 
L 74.811124 186.00393 
L 74.29965 182.975928 
L 73.969599 179.895593 
L 73.832727 176.790857 
L 73.893229 173.660091 
L 74.159607 170.506873 
L 74.640896 167.347051 
L 75.339311 164.206295 
L 76.053832 161.714064 
L 76.053832 161.714064 
" style="fill:none;stroke:#ffffff;stroke-linecap:square;"/>
   </g>
   <g id="line2d_17">
    <path clip-path="url(#pf75c591e61)" d="M 397.102736 199.386125 
L 397.621109 196.51724 
L 398.015641 193.644032 
L 398.289509 190.770559 
L 398.446688 187.892647 
L 398.487273 185.021508 
L 398.414818 182.16219 
L 398.230912 179.298389 
L 397.539222 173.65385 
L 396.431157 168.074564 
L 394.924822 162.619117 
L 393.032247 157.277173 
L 390.774111 152.097371 
L 388.158304 147.086297 
L 385.201995 142.281924 
L 381.908951 137.687961 
L 378.294306 133.339711 
L 374.363448 129.250256 
L 370.121442 125.436955 
L 365.562727 121.909189 
L 363.139337 120.250046 
L 360.645679 118.696254 
L 358.040858 117.228497 
L 355.352858 115.884099 
L 352.581728 114.672584 
L 349.713141 113.60214 
L 346.761856 112.696413 
L 343.728134 111.970152 
L 340.638512 111.444168 
L 337.541685 111.128329 
L 334.43874 111.01291 
L 331.349882 111.091944 
L 328.299413 111.354109 
L 325.269363 111.788988 
L 322.281603 112.390112 
L 319.333205 113.152211 
L 316.44423 114.066253 
L 313.613004 115.127362 
L 310.858493 116.3259 
L 308.179616 117.65714 
L 305.596459 119.105739 
L 303.10839 120.660803 
L 300.697171 122.324754 
L 298.391666 124.073115 
L 296.156054 125.920197 
L 291.976645 129.822955 
L 288.138783 133.988198 
L 284.63341 138.362912 
L 281.453462 142.90321 
L 278.57129 147.573272 
L 275.96066 152.351487 
L 273.612382 157.18923 
L 271.519971 161.982169 
L 267.803978 171.312316 
L 264.258705 180.111762 
L 262.38759 184.27943 
L 260.40227 188.246738 
L 258.266428 191.981659 
L 255.94716 195.47128 
L 253.407917 198.696604 
L 250.590679 201.683877 
L 247.534545 204.380489 
L 244.283874 206.73517 
L 240.917383 208.688141 
L 239.200831 209.505086 
L 237.424643 210.226514 
L 233.597865 211.421021 
L 229.394271 212.337896 
L 224.860483 213.046186 
L 212.540548 214.516773 
L 190.760066 217.135075 
L 183.637009 217.76434 
L 176.548408 218.196598 
L 169.492028 218.393053 
L 162.445458 218.327419 
L 155.39837 218.004287 
L 148.338462 217.433865 
L 141.329552 216.632206 
L 136.787052 215.952047 
L 132.377435 215.115473 
L 128.108042 214.092283 
L 123.980714 212.844912 
L 119.989569 211.342273 
L 116.159232 209.572252 
L 112.547985 207.550668 
L 109.166099 205.260783 
L 106.055979 202.707842 
L 103.223018 199.875598 
L 100.671358 196.755364 
L 98.464366 193.437493 
L 96.618273 189.926857 
L 95.177289 186.306859 
L 94.160687 182.620187 
L 93.587902 178.906924 
L 93.474322 177.04193 
L 93.477661 175.178413 
L 93.599237 173.327525 
L 93.844745 171.478331 
L 94.221796 169.619894 
L 94.936317 167.127663 
L 94.936317 167.127663 
" style="fill:none;stroke:#ffffff;stroke-linecap:square;"/>
   </g>
   <g id="patch_3">
    <path d="M 57.6 307.584 
L 57.6 41.472 
" style="fill:none;stroke:#000000;stroke-linecap:square;stroke-linejoin:miter;stroke-width:0.8;"/>
   </g>
   <g id="patch_4">
    <path d="M 414.72 307.584 
L 414.72 41.472 
" style="fill:none;stroke:#000000;stroke-linecap:square;stroke-linejoin:miter;stroke-width:0.8;"/>
   </g>
   <g id="patch_5">
    <path d="M 57.6 307.584 
L 414.72 307.584 
" style="fill:none;stroke:#000000;stroke-linecap:square;stroke-linejoin:miter;stroke-width:0.8;"/>
   </g>
   <g id="patch_6">
    <path d="M 57.6 41.472 
L 414.72 41.472 
" style="fill:none;stroke:#000000;stroke-linecap:square;stroke-linejoin:miter;stroke-width:0.8;"/>
   </g>
  </g>
 </g>
 <defs>
  <clipPath id="pf75c591e61">
   <rect height="266.112" width="357.12" x="57.6" y="41.472"/>
  </clipPath>
 </defs>
</svg>
