<?xml version="1.0" encoding="utf-8" standalone="no"?>
<!DOCTYPE svg PUBLIC "-//W3C//DTD SVG 1.1//EN"
  "http://www.w3.org/Graphics/SVG/1.1/DTD/svg11.dtd">
<!-- Created with matplotlib (https://matplotlib.org/) -->
<svg height="345.6pt" version="1.1" viewBox="0 0 460.8 345.6" width="460.8pt" xmlns="http://www.w3.org/2000/svg" xmlns:xlink="http://www.w3.org/1999/xlink">
 <metadata>
  <rdf:RDF xmlns:cc="http://creativecommons.org/ns#" xmlns:dc="http://purl.org/dc/elements/1.1/" xmlns:rdf="http://www.w3.org/1999/02/22-rdf-syntax-ns#">
   <cc:Work>
    <dc:type rdf:resource="http://purl.org/dc/dcmitype/StillImage"/>
    <dc:date>2021-01-22T11:58:27.881996</dc:date>
    <dc:format>image/svg+xml</dc:format>
    <dc:creator>
     <cc:Agent>
      <dc:title>Matplotlib v3.3.3, https://matplotlib.org/</dc:title>
     </cc:Agent>
    </dc:creator>
   </cc:Work>
  </rdf:RDF>
 </metadata>
 <defs>
  <style type="text/css">*{stroke-linecap:butt;stroke-linejoin:round;}</style>
 </defs>
 <g id="figure_1">
  <g id="patch_1">
   <path d="M 0 345.6 
L 460.8 345.6 
L 460.8 0 
L 0 0 
z
" style="fill:#ffffff;"/>
  </g>
  <g id="axes_1">
   <g id="patch_2">
    <path d="M 57.6 307.584 
L 414.72 307.584 
L 414.72 41.472 
L 57.6 41.472 
z
" style="fill:#7d9051;"/>
   </g>
   <g id="matplotlib.axis_1">
    <g id="xtick_1">
     <g id="line2d_1">
      <defs>
       <path d="M 0 0 
L 0 3.5 
" id="md44b8dde6a" style="stroke:#000000;stroke-width:0.8;"/>
      </defs>
      <g>
       <use style="stroke:#000000;stroke-width:0.8;" x="103.974348" xlink:href="#md44b8dde6a" y="307.584"/>
      </g>
     </g>
     <g id="text_1">
      <!-- 0 -->
      <g transform="translate(100.793098 322.182437)scale(0.1 -0.1)">
       <defs>
        <path d="M 31.78125 66.40625 
Q 24.171875 66.40625 20.328125 58.90625 
Q 16.5 51.421875 16.5 36.375 
Q 16.5 21.390625 20.328125 13.890625 
Q 24.171875 6.390625 31.78125 6.390625 
Q 39.453125 6.390625 43.28125 13.890625 
Q 47.125 21.390625 47.125 36.375 
Q 47.125 51.421875 43.28125 58.90625 
Q 39.453125 66.40625 31.78125 66.40625 
z
M 31.78125 74.21875 
Q 44.046875 74.21875 50.515625 64.515625 
Q 56.984375 54.828125 56.984375 36.375 
Q 56.984375 17.96875 50.515625 8.265625 
Q 44.046875 -1.421875 31.78125 -1.421875 
Q 19.53125 -1.421875 13.0625 8.265625 
Q 6.59375 17.96875 6.59375 36.375 
Q 6.59375 54.828125 13.0625 64.515625 
Q 19.53125 74.21875 31.78125 74.21875 
z
" id="DejaVuSans-48"/>
       </defs>
       <use xlink:href="#DejaVuSans-48"/>
      </g>
     </g>
    </g>
    <g id="xtick_2">
     <g id="line2d_2">
      <g>
       <use style="stroke:#000000;stroke-width:0.8;" x="153.069174" xlink:href="#md44b8dde6a" y="307.584"/>
      </g>
     </g>
     <g id="text_2">
      <!-- 20 -->
      <g transform="translate(146.706674 322.182437)scale(0.1 -0.1)">
       <defs>
        <path d="M 19.1875 8.296875 
L 53.609375 8.296875 
L 53.609375 0 
L 7.328125 0 
L 7.328125 8.296875 
Q 12.9375 14.109375 22.625 23.890625 
Q 32.328125 33.6875 34.8125 36.53125 
Q 39.546875 41.84375 41.421875 45.53125 
Q 43.3125 49.21875 43.3125 52.78125 
Q 43.3125 58.59375 39.234375 62.25 
Q 35.15625 65.921875 28.609375 65.921875 
Q 23.96875 65.921875 18.8125 64.3125 
Q 13.671875 62.703125 7.8125 59.421875 
L 7.8125 69.390625 
Q 13.765625 71.78125 18.9375 73 
Q 24.125 74.21875 28.421875 74.21875 
Q 39.75 74.21875 46.484375 68.546875 
Q 53.21875 62.890625 53.21875 53.421875 
Q 53.21875 48.921875 51.53125 44.890625 
Q 49.859375 40.875 45.40625 35.40625 
Q 44.1875 33.984375 37.640625 27.21875 
Q 31.109375 20.453125 19.1875 8.296875 
z
" id="DejaVuSans-50"/>
       </defs>
       <use xlink:href="#DejaVuSans-50"/>
       <use x="63.623047" xlink:href="#DejaVuSans-48"/>
      </g>
     </g>
    </g>
    <g id="xtick_3">
     <g id="line2d_3">
      <g>
       <use style="stroke:#000000;stroke-width:0.8;" x="202.163999" xlink:href="#md44b8dde6a" y="307.584"/>
      </g>
     </g>
     <g id="text_3">
      <!-- 40 -->
      <g transform="translate(195.801499 322.182437)scale(0.1 -0.1)">
       <defs>
        <path d="M 37.796875 64.3125 
L 12.890625 25.390625 
L 37.796875 25.390625 
z
M 35.203125 72.90625 
L 47.609375 72.90625 
L 47.609375 25.390625 
L 58.015625 25.390625 
L 58.015625 17.1875 
L 47.609375 17.1875 
L 47.609375 0 
L 37.796875 0 
L 37.796875 17.1875 
L 4.890625 17.1875 
L 4.890625 26.703125 
z
" id="DejaVuSans-52"/>
       </defs>
       <use xlink:href="#DejaVuSans-52"/>
       <use x="63.623047" xlink:href="#DejaVuSans-48"/>
      </g>
     </g>
    </g>
    <g id="xtick_4">
     <g id="line2d_4">
      <g>
       <use style="stroke:#000000;stroke-width:0.8;" x="251.258825" xlink:href="#md44b8dde6a" y="307.584"/>
      </g>
     </g>
     <g id="text_4">
      <!-- 60 -->
      <g transform="translate(244.896325 322.182437)scale(0.1 -0.1)">
       <defs>
        <path d="M 33.015625 40.375 
Q 26.375 40.375 22.484375 35.828125 
Q 18.609375 31.296875 18.609375 23.390625 
Q 18.609375 15.53125 22.484375 10.953125 
Q 26.375 6.390625 33.015625 6.390625 
Q 39.65625 6.390625 43.53125 10.953125 
Q 47.40625 15.53125 47.40625 23.390625 
Q 47.40625 31.296875 43.53125 35.828125 
Q 39.65625 40.375 33.015625 40.375 
z
M 52.59375 71.296875 
L 52.59375 62.3125 
Q 48.875 64.0625 45.09375 64.984375 
Q 41.3125 65.921875 37.59375 65.921875 
Q 27.828125 65.921875 22.671875 59.328125 
Q 17.53125 52.734375 16.796875 39.40625 
Q 19.671875 43.65625 24.015625 45.921875 
Q 28.375 48.1875 33.59375 48.1875 
Q 44.578125 48.1875 50.953125 41.515625 
Q 57.328125 34.859375 57.328125 23.390625 
Q 57.328125 12.15625 50.6875 5.359375 
Q 44.046875 -1.421875 33.015625 -1.421875 
Q 20.359375 -1.421875 13.671875 8.265625 
Q 6.984375 17.96875 6.984375 36.375 
Q 6.984375 53.65625 15.1875 63.9375 
Q 23.390625 74.21875 37.203125 74.21875 
Q 40.921875 74.21875 44.703125 73.484375 
Q 48.484375 72.75 52.59375 71.296875 
z
" id="DejaVuSans-54"/>
       </defs>
       <use xlink:href="#DejaVuSans-54"/>
       <use x="63.623047" xlink:href="#DejaVuSans-48"/>
      </g>
     </g>
    </g>
    <g id="xtick_5">
     <g id="line2d_5">
      <g>
       <use style="stroke:#000000;stroke-width:0.8;" x="300.35365" xlink:href="#md44b8dde6a" y="307.584"/>
      </g>
     </g>
     <g id="text_5">
      <!-- 80 -->
      <g transform="translate(293.99115 322.182437)scale(0.1 -0.1)">
       <defs>
        <path d="M 31.78125 34.625 
Q 24.75 34.625 20.71875 30.859375 
Q 16.703125 27.09375 16.703125 20.515625 
Q 16.703125 13.921875 20.71875 10.15625 
Q 24.75 6.390625 31.78125 6.390625 
Q 38.8125 6.390625 42.859375 10.171875 
Q 46.921875 13.96875 46.921875 20.515625 
Q 46.921875 27.09375 42.890625 30.859375 
Q 38.875 34.625 31.78125 34.625 
z
M 21.921875 38.8125 
Q 15.578125 40.375 12.03125 44.71875 
Q 8.5 49.078125 8.5 55.328125 
Q 8.5 64.0625 14.71875 69.140625 
Q 20.953125 74.21875 31.78125 74.21875 
Q 42.671875 74.21875 48.875 69.140625 
Q 55.078125 64.0625 55.078125 55.328125 
Q 55.078125 49.078125 51.53125 44.71875 
Q 48 40.375 41.703125 38.8125 
Q 48.828125 37.15625 52.796875 32.3125 
Q 56.78125 27.484375 56.78125 20.515625 
Q 56.78125 9.90625 50.3125 4.234375 
Q 43.84375 -1.421875 31.78125 -1.421875 
Q 19.734375 -1.421875 13.25 4.234375 
Q 6.78125 9.90625 6.78125 20.515625 
Q 6.78125 27.484375 10.78125 32.3125 
Q 14.796875 37.15625 21.921875 38.8125 
z
M 18.3125 54.390625 
Q 18.3125 48.734375 21.84375 45.5625 
Q 25.390625 42.390625 31.78125 42.390625 
Q 38.140625 42.390625 41.71875 45.5625 
Q 45.3125 48.734375 45.3125 54.390625 
Q 45.3125 60.0625 41.71875 63.234375 
Q 38.140625 66.40625 31.78125 66.40625 
Q 25.390625 66.40625 21.84375 63.234375 
Q 18.3125 60.0625 18.3125 54.390625 
z
" id="DejaVuSans-56"/>
       </defs>
       <use xlink:href="#DejaVuSans-56"/>
       <use x="63.623047" xlink:href="#DejaVuSans-48"/>
      </g>
     </g>
    </g>
    <g id="xtick_6">
     <g id="line2d_6">
      <g>
       <use style="stroke:#000000;stroke-width:0.8;" x="349.448476" xlink:href="#md44b8dde6a" y="307.584"/>
      </g>
     </g>
     <g id="text_6">
      <!-- 100 -->
      <g transform="translate(339.904726 322.182437)scale(0.1 -0.1)">
       <defs>
        <path d="M 12.40625 8.296875 
L 28.515625 8.296875 
L 28.515625 63.921875 
L 10.984375 60.40625 
L 10.984375 69.390625 
L 28.421875 72.90625 
L 38.28125 72.90625 
L 38.28125 8.296875 
L 54.390625 8.296875 
L 54.390625 0 
L 12.40625 0 
z
" id="DejaVuSans-49"/>
       </defs>
       <use xlink:href="#DejaVuSans-49"/>
       <use x="63.623047" xlink:href="#DejaVuSans-48"/>
       <use x="127.246094" xlink:href="#DejaVuSans-48"/>
      </g>
     </g>
    </g>
    <g id="xtick_7">
     <g id="line2d_7">
      <g>
       <use style="stroke:#000000;stroke-width:0.8;" x="398.543301" xlink:href="#md44b8dde6a" y="307.584"/>
      </g>
     </g>
     <g id="text_7">
      <!-- 120 -->
      <g transform="translate(388.999551 322.182437)scale(0.1 -0.1)">
       <use xlink:href="#DejaVuSans-49"/>
       <use x="63.623047" xlink:href="#DejaVuSans-50"/>
       <use x="127.246094" xlink:href="#DejaVuSans-48"/>
      </g>
     </g>
    </g>
   </g>
   <g id="matplotlib.axis_2">
    <g id="ytick_1">
     <g id="line2d_8">
      <defs>
       <path d="M 0 0 
L -3.5 0 
" id="meb15addaeb" style="stroke:#000000;stroke-width:0.8;"/>
      </defs>
      <g>
       <use style="stroke:#000000;stroke-width:0.8;" x="57.6" xlink:href="#meb15addaeb" y="261.222647"/>
      </g>
     </g>
     <g id="text_8">
      <!-- 20 -->
      <g transform="translate(37.875 265.021865)scale(0.1 -0.1)">
       <use xlink:href="#DejaVuSans-50"/>
       <use x="63.623047" xlink:href="#DejaVuSans-48"/>
      </g>
     </g>
    </g>
    <g id="ytick_2">
     <g id="line2d_9">
      <g>
       <use style="stroke:#000000;stroke-width:0.8;" x="57.6" xlink:href="#meb15addaeb" y="212.127821"/>
      </g>
     </g>
     <g id="text_9">
      <!-- 40 -->
      <g transform="translate(37.875 215.92704)scale(0.1 -0.1)">
       <use xlink:href="#DejaVuSans-52"/>
       <use x="63.623047" xlink:href="#DejaVuSans-48"/>
      </g>
     </g>
    </g>
    <g id="ytick_3">
     <g id="line2d_10">
      <g>
       <use style="stroke:#000000;stroke-width:0.8;" x="57.6" xlink:href="#meb15addaeb" y="163.032996"/>
      </g>
     </g>
     <g id="text_10">
      <!-- 60 -->
      <g transform="translate(37.875 166.832214)scale(0.1 -0.1)">
       <use xlink:href="#DejaVuSans-54"/>
       <use x="63.623047" xlink:href="#DejaVuSans-48"/>
      </g>
     </g>
    </g>
    <g id="ytick_4">
     <g id="line2d_11">
      <g>
       <use style="stroke:#000000;stroke-width:0.8;" x="57.6" xlink:href="#meb15addaeb" y="113.93817"/>
      </g>
     </g>
     <g id="text_11">
      <!-- 80 -->
      <g transform="translate(37.875 117.737389)scale(0.1 -0.1)">
       <use xlink:href="#DejaVuSans-56"/>
       <use x="63.623047" xlink:href="#DejaVuSans-48"/>
      </g>
     </g>
    </g>
    <g id="ytick_5">
     <g id="line2d_12">
      <g>
       <use style="stroke:#000000;stroke-width:0.8;" x="57.6" xlink:href="#meb15addaeb" y="64.843344"/>
      </g>
     </g>
     <g id="text_12">
      <!-- 100 -->
      <g transform="translate(31.5125 68.642563)scale(0.1 -0.1)">
       <use xlink:href="#DejaVuSans-49"/>
       <use x="63.623047" xlink:href="#DejaVuSans-48"/>
       <use x="127.246094" xlink:href="#DejaVuSans-48"/>
      </g>
     </g>
    </g>
   </g>
   <g id="line2d_13">
    <path clip-path="url(#pce69284691)" d="M 335.056328 186.578874 
L 334.724938 181.713577 
L 334.621838 176.818823 
L 334.766668 169.437416 
L 335.380354 152.163401 
L 335.348442 147.246554 
L 335.107877 142.354255 
L 334.594836 137.488958 
L 333.767589 132.662936 
L 332.643317 127.8811 
L 331.253933 123.153269 
L 329.636259 118.486806 
L 327.82466 113.893985 
L 325.848593 109.379715 
L 323.703149 104.953817 
L 321.388328 100.621199 
L 318.894311 96.389225 
L 316.216188 92.265259 
L 313.346596 88.261576 
L 310.26835 84.412542 
L 306.966723 80.754977 
L 303.424532 77.330613 
L 299.624592 74.173816 
L 295.561995 71.328771 
L 291.261289 68.842118 
L 289.032383 67.747303 
L 286.754384 66.762952 
L 284.437108 65.893974 
L 282.080556 65.142823 
L 279.689638 64.521773 
L 277.271718 64.03328 
L 274.826796 63.682252 
L 272.36469 63.466235 
L 269.890311 63.385228 
L 267.411022 63.431868 
L 264.934188 63.606155 
L 262.467173 63.903179 
L 260.014887 64.31803 
L 257.587148 64.848254 
L 255.186411 65.491396 
L 252.822495 66.245002 
L 248.227219 68.063965 
L 243.818504 70.283051 
L 239.618442 72.880167 
L 235.644215 75.825857 
L 231.910554 79.100482 
L 228.444459 82.679495 
L 225.292571 86.535893 
L 223.849184 88.561055 
L 222.50644 90.642675 
L 221.264341 92.780755 
L 220.137615 94.967929 
L 219.126261 97.206653 
L 218.2401 99.489563 
L 217.481585 101.811748 
L 216.843352 104.170754 
L 215.888458 108.982047 
L 215.289501 113.881711 
L 214.965475 118.832924 
L 214.805917 126.2757 
L 214.717546 141.023785 
L 214.4868 145.903811 
L 214.040037 150.771563 
L 213.35271 155.624586 
L 212.461639 160.457972 
L 211.396281 165.26681 
L 209.545406 172.422381 
L 207.488333 179.50431 
L 204.542643 188.866693 
L 198.415609 207.530091 
L 195.94614 214.46719 
L 193.245924 221.311008 
L 190.273232 228.041909 
L 187.06734 234.67462 
L 183.672433 241.228779 
L 180.103239 247.701932 
L 177.577311 251.924087 
L 174.884459 256.033324 
L 171.98541 259.995276 
L 168.840886 263.773123 
L 165.438615 267.337407 
L 161.793324 270.666036 
L 157.924652 273.736918 
L 153.849781 276.523049 
L 149.585896 279.004792 
L 145.150178 281.157601 
L 140.559812 282.959381 
L 135.83198 284.385585 
L 130.983866 285.414122 
L 128.521761 285.770059 
L 128.521761 285.770059 
" style="fill:none;stroke:#fea952;stroke-linecap:square;"/>
   </g>
   <g id="line2d_14">
    <path clip-path="url(#pce69284691)" d="M 325.270129 187.380372 
L 324.910725 182.019039 
L 324.803113 176.75016 
L 324.954715 169.066416 
L 325.561408 152.143803 
L 325.536218 147.610334 
L 325.328114 143.23079 
L 324.890733 138.986444 
L 324.176018 134.763854 
L 323.186788 130.52423 
L 321.938845 126.258298 
L 320.468002 122.001792 
L 318.792544 117.745342 
L 316.970438 113.573811 
L 314.992562 109.485676 
L 312.878221 105.519173 
L 310.599949 101.644282 
L 308.17034 97.893438 
L 305.59229 94.285098 
L 302.876404 90.875606 
L 300.018775 87.69314 
L 296.997511 84.75392 
L 293.817591 82.091569 
L 290.460347 79.718363 
L 286.932343 77.655307 
L 283.306715 75.956736 
L 279.611966 74.646408 
L 275.876276 73.752581 
L 272.043408 73.279942 
L 268.100246 73.226614 
L 264.104969 73.584589 
L 260.127991 74.332778 
L 256.232762 75.452724 
L 252.453647 76.926774 
L 248.801186 78.743841 
L 245.296951 80.890573 
L 241.969261 83.336241 
L 238.829377 86.067688 
L 235.916605 89.049668 
L 233.288482 92.234796 
L 230.99668 95.575008 
L 229.085856 99.010337 
L 227.573764 102.538297 
L 226.431957 106.285165 
L 225.614326 110.330962 
L 225.079142 114.639995 
L 224.778573 119.17231 
L 224.624862 126.29522 
L 224.529729 141.38866 
L 224.275553 146.673491 
L 223.777947 152.030606 
L 223.025604 157.311947 
L 222.065075 162.503964 
L 220.930642 167.61373 
L 218.998679 175.077134 
L 216.876273 182.381576 
L 213.882979 191.894928 
L 207.694745 210.740966 
L 205.127747 217.947156 
L 202.277572 225.163463 
L 199.155388 232.227526 
L 195.820088 239.124505 
L 192.317748 245.883949 
L 188.574335 252.667071 
L 185.852704 257.208965 
L 182.892344 261.715389 
L 179.638354 266.147066 
L 176.057397 270.431505 
L 172.188575 274.468334 
L 168.030178 278.249817 
L 163.614256 281.739448 
L 158.948923 284.914165 
L 154.043416 287.753654 
L 148.921153 290.223571 
L 146.274802 291.315681 
L 143.585667 292.300488 
L 140.855216 293.176471 
L 138.071141 293.945828 
L 135.257333 294.595979 
L 129.926648 295.488 
L 129.926648 295.488 
" style="fill:none;stroke:#ffffff;stroke-linecap:square;"/>
   </g>
   <g id="line2d_15">
    <path clip-path="url(#pce69284691)" d="M 344.842526 185.777375 
L 344.53915 181.408114 
L 344.440564 176.887485 
L 344.578622 169.808415 
L 345.199299 152.183 
L 345.160666 146.882775 
L 344.88764 141.47772 
L 344.298939 135.991472 
L 343.359159 130.562019 
L 342.099846 125.237971 
L 340.569022 120.048239 
L 338.804516 114.971819 
L 336.856776 110.042628 
L 334.726748 105.18562 
L 332.413736 100.421958 
L 329.898436 95.723225 
L 327.188674 91.134168 
L 324.262037 86.637081 
L 321.100902 82.238055 
L 317.660297 77.949478 
L 313.914671 73.816815 
L 309.851552 69.907307 
L 307.678516 68.036675 
L 305.431593 66.256063 
L 303.081972 64.544441 
L 300.663643 62.939178 
L 298.164254 61.430563 
L 295.590234 60.028929 
L 292.927207 58.733846 
L 290.202052 57.569169 
L 287.41908 56.538766 
L 284.549147 55.639237 
L 281.634083 54.897262 
L 278.66716 54.313979 
L 275.684983 53.900862 
L 272.685972 53.652527 
L 269.70563 53.568 
L 266.721798 53.637122 
L 263.760481 53.857592 
L 260.829377 54.221769 
L 257.919787 54.725187 
L 255.046304 55.36373 
L 252.204052 56.136311 
L 249.412227 57.037279 
L 246.686775 58.057046 
L 244.000792 59.201156 
L 241.39741 60.452552 
L 238.835822 61.822262 
L 236.350046 63.296756 
L 233.939932 64.869761 
L 231.591015 66.54565 
L 229.31917 68.315473 
L 227.125843 70.17294 
L 224.991731 72.133275 
L 222.957863 74.163547 
L 220.972313 76.309321 
L 219.09655 78.522628 
L 217.296661 80.83699 
L 215.597911 83.238595 
L 214.0162 85.710343 
L 212.535531 88.284095 
L 211.189374 90.925522 
L 209.972725 93.653507 
L 208.906435 96.440829 
L 208.003387 99.247407 
L 207.254747 102.056344 
L 206.646324 104.856055 
L 205.785332 110.390526 
L 205.29307 115.82941 
L 205.062711 121.113212 
L 204.982047 128.754949 
L 204.905363 140.65891 
L 204.698048 145.134131 
L 204.302128 149.51252 
L 203.679815 153.937225 
L 202.858202 158.41198 
L 201.86192 162.91989 
L 200.092134 169.767628 
L 198.100393 176.627043 
L 195.202308 185.838458 
L 189.136474 204.319215 
L 186.764532 210.987223 
L 184.214276 217.458553 
L 181.391077 223.856291 
L 178.314592 230.224734 
L 173.898583 238.67021 
L 170.478161 244.708752 
L 168.105539 248.517629 
L 165.624525 252.123033 
L 163.007801 255.500528 
L 160.184771 258.683323 
L 157.156672 261.665308 
L 153.915305 264.439554 
L 150.519406 266.962269 
L 146.963525 269.226178 
L 143.273565 271.209219 
L 139.469555 272.894581 
L 135.566034 274.26423 
L 131.585516 275.304373 
L 129.57898 275.696181 
L 127.116874 276.052119 
L 127.116874 276.052119 
" style="fill:none;stroke:#ffffff;stroke-linecap:square;"/>
   </g>
   <g id="patch_3">
    <path d="M 57.6 307.584 
L 57.6 41.472 
" style="fill:none;stroke:#000000;stroke-linecap:square;stroke-linejoin:miter;stroke-width:0.8;"/>
   </g>
   <g id="patch_4">
    <path d="M 414.72 307.584 
L 414.72 41.472 
" style="fill:none;stroke:#000000;stroke-linecap:square;stroke-linejoin:miter;stroke-width:0.8;"/>
   </g>
   <g id="patch_5">
    <path d="M 57.6 307.584 
L 414.72 307.584 
" style="fill:none;stroke:#000000;stroke-linecap:square;stroke-linejoin:miter;stroke-width:0.8;"/>
   </g>
   <g id="patch_6">
    <path d="M 57.6 41.472 
L 414.72 41.472 
" style="fill:none;stroke:#000000;stroke-linecap:square;stroke-linejoin:miter;stroke-width:0.8;"/>
   </g>
  </g>
 </g>
 <defs>
  <clipPath id="pce69284691">
   <rect height="266.112" width="357.12" x="57.6" y="41.472"/>
  </clipPath>
 </defs>
</svg>
