<?xml version="1.0" encoding="utf-8" standalone="no"?>
<!DOCTYPE svg PUBLIC "-//W3C//DTD SVG 1.1//EN"
  "http://www.w3.org/Graphics/SVG/1.1/DTD/svg11.dtd">
<!-- Created with matplotlib (https://matplotlib.org/) -->
<svg height="345.6pt" version="1.1" viewBox="0 0 460.8 345.6" width="460.8pt" xmlns="http://www.w3.org/2000/svg" xmlns:xlink="http://www.w3.org/1999/xlink">
 <metadata>
  <rdf:RDF xmlns:cc="http://creativecommons.org/ns#" xmlns:dc="http://purl.org/dc/elements/1.1/" xmlns:rdf="http://www.w3.org/1999/02/22-rdf-syntax-ns#">
   <cc:Work>
    <dc:type rdf:resource="http://purl.org/dc/dcmitype/StillImage"/>
    <dc:date>2021-01-23T13:58:14.375993</dc:date>
    <dc:format>image/svg+xml</dc:format>
    <dc:creator>
     <cc:Agent>
      <dc:title>Matplotlib v3.3.3, https://matplotlib.org/</dc:title>
     </cc:Agent>
    </dc:creator>
   </cc:Work>
  </rdf:RDF>
 </metadata>
 <defs>
  <style type="text/css">*{stroke-linecap:butt;stroke-linejoin:round;}</style>
 </defs>
 <g id="figure_1">
  <g id="patch_1">
   <path d="M 0 345.6 
L 460.8 345.6 
L 460.8 0 
L 0 0 
z
" style="fill:#ffffff;"/>
  </g>
  <g id="axes_1">
   <g id="patch_2">
    <path d="M 57.6 307.584 
L 414.72 307.584 
L 414.72 41.472 
L 57.6 41.472 
z
" style="fill:#7d9051;"/>
   </g>
   <g id="matplotlib.axis_1">
    <g id="xtick_1">
     <g id="line2d_1">
      <defs>
       <path d="M 0 0 
L 0 3.5 
" id="mca016d5874" style="stroke:#000000;stroke-width:0.8;"/>
      </defs>
      <g>
       <use style="stroke:#000000;stroke-width:0.8;" x="92.02978" xlink:href="#mca016d5874" y="307.584"/>
      </g>
     </g>
     <g id="text_1">
      <!-- −20 -->
      <g transform="translate(81.477437 322.182437)scale(0.1 -0.1)">
       <defs>
        <path d="M 10.59375 35.5 
L 73.1875 35.5 
L 73.1875 27.203125 
L 10.59375 27.203125 
z
" id="DejaVuSans-8722"/>
        <path d="M 19.1875 8.296875 
L 53.609375 8.296875 
L 53.609375 0 
L 7.328125 0 
L 7.328125 8.296875 
Q 12.9375 14.109375 22.625 23.890625 
Q 32.328125 33.6875 34.8125 36.53125 
Q 39.546875 41.84375 41.421875 45.53125 
Q 43.3125 49.21875 43.3125 52.78125 
Q 43.3125 58.59375 39.234375 62.25 
Q 35.15625 65.921875 28.609375 65.921875 
Q 23.96875 65.921875 18.8125 64.3125 
Q 13.671875 62.703125 7.8125 59.421875 
L 7.8125 69.390625 
Q 13.765625 71.78125 18.9375 73 
Q 24.125 74.21875 28.421875 74.21875 
Q 39.75 74.21875 46.484375 68.546875 
Q 53.21875 62.890625 53.21875 53.421875 
Q 53.21875 48.921875 51.53125 44.890625 
Q 49.859375 40.875 45.40625 35.40625 
Q 44.1875 33.984375 37.640625 27.21875 
Q 31.109375 20.453125 19.1875 8.296875 
z
" id="DejaVuSans-50"/>
        <path d="M 31.78125 66.40625 
Q 24.171875 66.40625 20.328125 58.90625 
Q 16.5 51.421875 16.5 36.375 
Q 16.5 21.390625 20.328125 13.890625 
Q 24.171875 6.390625 31.78125 6.390625 
Q 39.453125 6.390625 43.28125 13.890625 
Q 47.125 21.390625 47.125 36.375 
Q 47.125 51.421875 43.28125 58.90625 
Q 39.453125 66.40625 31.78125 66.40625 
z
M 31.78125 74.21875 
Q 44.046875 74.21875 50.515625 64.515625 
Q 56.984375 54.828125 56.984375 36.375 
Q 56.984375 17.96875 50.515625 8.265625 
Q 44.046875 -1.421875 31.78125 -1.421875 
Q 19.53125 -1.421875 13.0625 8.265625 
Q 6.59375 17.96875 6.59375 36.375 
Q 6.59375 54.828125 13.0625 64.515625 
Q 19.53125 74.21875 31.78125 74.21875 
z
" id="DejaVuSans-48"/>
       </defs>
       <use xlink:href="#DejaVuSans-8722"/>
       <use x="83.789062" xlink:href="#DejaVuSans-50"/>
       <use x="147.412109" xlink:href="#DejaVuSans-48"/>
      </g>
     </g>
    </g>
    <g id="xtick_2">
     <g id="line2d_2">
      <g>
       <use style="stroke:#000000;stroke-width:0.8;" x="132.273973" xlink:href="#mca016d5874" y="307.584"/>
      </g>
     </g>
     <g id="text_2">
      <!-- 0 -->
      <g transform="translate(129.092723 322.182437)scale(0.1 -0.1)">
       <use xlink:href="#DejaVuSans-48"/>
      </g>
     </g>
    </g>
    <g id="xtick_3">
     <g id="line2d_3">
      <g>
       <use style="stroke:#000000;stroke-width:0.8;" x="172.518166" xlink:href="#mca016d5874" y="307.584"/>
      </g>
     </g>
     <g id="text_3">
      <!-- 20 -->
      <g transform="translate(166.155666 322.182437)scale(0.1 -0.1)">
       <use xlink:href="#DejaVuSans-50"/>
       <use x="63.623047" xlink:href="#DejaVuSans-48"/>
      </g>
     </g>
    </g>
    <g id="xtick_4">
     <g id="line2d_4">
      <g>
       <use style="stroke:#000000;stroke-width:0.8;" x="212.762359" xlink:href="#mca016d5874" y="307.584"/>
      </g>
     </g>
     <g id="text_4">
      <!-- 40 -->
      <g transform="translate(206.399859 322.182437)scale(0.1 -0.1)">
       <defs>
        <path d="M 37.796875 64.3125 
L 12.890625 25.390625 
L 37.796875 25.390625 
z
M 35.203125 72.90625 
L 47.609375 72.90625 
L 47.609375 25.390625 
L 58.015625 25.390625 
L 58.015625 17.1875 
L 47.609375 17.1875 
L 47.609375 0 
L 37.796875 0 
L 37.796875 17.1875 
L 4.890625 17.1875 
L 4.890625 26.703125 
z
" id="DejaVuSans-52"/>
       </defs>
       <use xlink:href="#DejaVuSans-52"/>
       <use x="63.623047" xlink:href="#DejaVuSans-48"/>
      </g>
     </g>
    </g>
    <g id="xtick_5">
     <g id="line2d_5">
      <g>
       <use style="stroke:#000000;stroke-width:0.8;" x="253.006552" xlink:href="#mca016d5874" y="307.584"/>
      </g>
     </g>
     <g id="text_5">
      <!-- 60 -->
      <g transform="translate(246.644052 322.182437)scale(0.1 -0.1)">
       <defs>
        <path d="M 33.015625 40.375 
Q 26.375 40.375 22.484375 35.828125 
Q 18.609375 31.296875 18.609375 23.390625 
Q 18.609375 15.53125 22.484375 10.953125 
Q 26.375 6.390625 33.015625 6.390625 
Q 39.65625 6.390625 43.53125 10.953125 
Q 47.40625 15.53125 47.40625 23.390625 
Q 47.40625 31.296875 43.53125 35.828125 
Q 39.65625 40.375 33.015625 40.375 
z
M 52.59375 71.296875 
L 52.59375 62.3125 
Q 48.875 64.0625 45.09375 64.984375 
Q 41.3125 65.921875 37.59375 65.921875 
Q 27.828125 65.921875 22.671875 59.328125 
Q 17.53125 52.734375 16.796875 39.40625 
Q 19.671875 43.65625 24.015625 45.921875 
Q 28.375 48.1875 33.59375 48.1875 
Q 44.578125 48.1875 50.953125 41.515625 
Q 57.328125 34.859375 57.328125 23.390625 
Q 57.328125 12.15625 50.6875 5.359375 
Q 44.046875 -1.421875 33.015625 -1.421875 
Q 20.359375 -1.421875 13.671875 8.265625 
Q 6.984375 17.96875 6.984375 36.375 
Q 6.984375 53.65625 15.1875 63.9375 
Q 23.390625 74.21875 37.203125 74.21875 
Q 40.921875 74.21875 44.703125 73.484375 
Q 48.484375 72.75 52.59375 71.296875 
z
" id="DejaVuSans-54"/>
       </defs>
       <use xlink:href="#DejaVuSans-54"/>
       <use x="63.623047" xlink:href="#DejaVuSans-48"/>
      </g>
     </g>
    </g>
    <g id="xtick_6">
     <g id="line2d_6">
      <g>
       <use style="stroke:#000000;stroke-width:0.8;" x="293.250745" xlink:href="#mca016d5874" y="307.584"/>
      </g>
     </g>
     <g id="text_6">
      <!-- 80 -->
      <g transform="translate(286.888245 322.182437)scale(0.1 -0.1)">
       <defs>
        <path d="M 31.78125 34.625 
Q 24.75 34.625 20.71875 30.859375 
Q 16.703125 27.09375 16.703125 20.515625 
Q 16.703125 13.921875 20.71875 10.15625 
Q 24.75 6.390625 31.78125 6.390625 
Q 38.8125 6.390625 42.859375 10.171875 
Q 46.921875 13.96875 46.921875 20.515625 
Q 46.921875 27.09375 42.890625 30.859375 
Q 38.875 34.625 31.78125 34.625 
z
M 21.921875 38.8125 
Q 15.578125 40.375 12.03125 44.71875 
Q 8.5 49.078125 8.5 55.328125 
Q 8.5 64.0625 14.71875 69.140625 
Q 20.953125 74.21875 31.78125 74.21875 
Q 42.671875 74.21875 48.875 69.140625 
Q 55.078125 64.0625 55.078125 55.328125 
Q 55.078125 49.078125 51.53125 44.71875 
Q 48 40.375 41.703125 38.8125 
Q 48.828125 37.15625 52.796875 32.3125 
Q 56.78125 27.484375 56.78125 20.515625 
Q 56.78125 9.90625 50.3125 4.234375 
Q 43.84375 -1.421875 31.78125 -1.421875 
Q 19.734375 -1.421875 13.25 4.234375 
Q 6.78125 9.90625 6.78125 20.515625 
Q 6.78125 27.484375 10.78125 32.3125 
Q 14.796875 37.15625 21.921875 38.8125 
z
M 18.3125 54.390625 
Q 18.3125 48.734375 21.84375 45.5625 
Q 25.390625 42.390625 31.78125 42.390625 
Q 38.140625 42.390625 41.71875 45.5625 
Q 45.3125 48.734375 45.3125 54.390625 
Q 45.3125 60.0625 41.71875 63.234375 
Q 38.140625 66.40625 31.78125 66.40625 
Q 25.390625 66.40625 21.84375 63.234375 
Q 18.3125 60.0625 18.3125 54.390625 
z
" id="DejaVuSans-56"/>
       </defs>
       <use xlink:href="#DejaVuSans-56"/>
       <use x="63.623047" xlink:href="#DejaVuSans-48"/>
      </g>
     </g>
    </g>
    <g id="xtick_7">
     <g id="line2d_7">
      <g>
       <use style="stroke:#000000;stroke-width:0.8;" x="333.494938" xlink:href="#mca016d5874" y="307.584"/>
      </g>
     </g>
     <g id="text_7">
      <!-- 100 -->
      <g transform="translate(323.951188 322.182437)scale(0.1 -0.1)">
       <defs>
        <path d="M 12.40625 8.296875 
L 28.515625 8.296875 
L 28.515625 63.921875 
L 10.984375 60.40625 
L 10.984375 69.390625 
L 28.421875 72.90625 
L 38.28125 72.90625 
L 38.28125 8.296875 
L 54.390625 8.296875 
L 54.390625 0 
L 12.40625 0 
z
" id="DejaVuSans-49"/>
       </defs>
       <use xlink:href="#DejaVuSans-49"/>
       <use x="63.623047" xlink:href="#DejaVuSans-48"/>
       <use x="127.246094" xlink:href="#DejaVuSans-48"/>
      </g>
     </g>
    </g>
    <g id="xtick_8">
     <g id="line2d_8">
      <g>
       <use style="stroke:#000000;stroke-width:0.8;" x="373.739131" xlink:href="#mca016d5874" y="307.584"/>
      </g>
     </g>
     <g id="text_8">
      <!-- 120 -->
      <g transform="translate(364.195381 322.182437)scale(0.1 -0.1)">
       <use xlink:href="#DejaVuSans-49"/>
       <use x="63.623047" xlink:href="#DejaVuSans-50"/>
       <use x="127.246094" xlink:href="#DejaVuSans-48"/>
      </g>
     </g>
    </g>
    <g id="xtick_9">
     <g id="line2d_9">
      <g>
       <use style="stroke:#000000;stroke-width:0.8;" x="413.983324" xlink:href="#mca016d5874" y="307.584"/>
      </g>
     </g>
     <g id="text_9">
      <!-- 140 -->
      <g transform="translate(404.439574 322.182437)scale(0.1 -0.1)">
       <use xlink:href="#DejaVuSans-49"/>
       <use x="63.623047" xlink:href="#DejaVuSans-52"/>
       <use x="127.246094" xlink:href="#DejaVuSans-48"/>
      </g>
     </g>
    </g>
   </g>
   <g id="matplotlib.axis_2">
    <g id="ytick_1">
     <g id="line2d_10">
      <defs>
       <path d="M 0 0 
L -3.5 0 
" id="m3bca519762" style="stroke:#000000;stroke-width:0.8;"/>
      </defs>
      <g>
       <use style="stroke:#000000;stroke-width:0.8;" x="57.6" xlink:href="#m3bca519762" y="273.22879"/>
      </g>
     </g>
     <g id="text_10">
      <!-- 20 -->
      <g transform="translate(37.875 277.028009)scale(0.1 -0.1)">
       <use xlink:href="#DejaVuSans-50"/>
       <use x="63.623047" xlink:href="#DejaVuSans-48"/>
      </g>
     </g>
    </g>
    <g id="ytick_2">
     <g id="line2d_11">
      <g>
       <use style="stroke:#000000;stroke-width:0.8;" x="57.6" xlink:href="#m3bca519762" y="232.984597"/>
      </g>
     </g>
     <g id="text_11">
      <!-- 40 -->
      <g transform="translate(37.875 236.783816)scale(0.1 -0.1)">
       <use xlink:href="#DejaVuSans-52"/>
       <use x="63.623047" xlink:href="#DejaVuSans-48"/>
      </g>
     </g>
    </g>
    <g id="ytick_3">
     <g id="line2d_12">
      <g>
       <use style="stroke:#000000;stroke-width:0.8;" x="57.6" xlink:href="#m3bca519762" y="192.740404"/>
      </g>
     </g>
     <g id="text_12">
      <!-- 60 -->
      <g transform="translate(37.875 196.539623)scale(0.1 -0.1)">
       <use xlink:href="#DejaVuSans-54"/>
       <use x="63.623047" xlink:href="#DejaVuSans-48"/>
      </g>
     </g>
    </g>
    <g id="ytick_4">
     <g id="line2d_13">
      <g>
       <use style="stroke:#000000;stroke-width:0.8;" x="57.6" xlink:href="#m3bca519762" y="152.496212"/>
      </g>
     </g>
     <g id="text_13">
      <!-- 80 -->
      <g transform="translate(37.875 156.29543)scale(0.1 -0.1)">
       <use xlink:href="#DejaVuSans-56"/>
       <use x="63.623047" xlink:href="#DejaVuSans-48"/>
      </g>
     </g>
    </g>
    <g id="ytick_5">
     <g id="line2d_14">
      <g>
       <use style="stroke:#000000;stroke-width:0.8;" x="57.6" xlink:href="#m3bca519762" y="112.252019"/>
      </g>
     </g>
     <g id="text_14">
      <!-- 100 -->
      <g transform="translate(31.5125 116.051237)scale(0.1 -0.1)">
       <use xlink:href="#DejaVuSans-49"/>
       <use x="63.623047" xlink:href="#DejaVuSans-48"/>
       <use x="127.246094" xlink:href="#DejaVuSans-48"/>
      </g>
     </g>
    </g>
    <g id="ytick_6">
     <g id="line2d_15">
      <g>
       <use style="stroke:#000000;stroke-width:0.8;" x="57.6" xlink:href="#m3bca519762" y="72.007826"/>
      </g>
     </g>
     <g id="text_15">
      <!-- 120 -->
      <g transform="translate(31.5125 75.807045)scale(0.1 -0.1)">
       <use xlink:href="#DejaVuSans-49"/>
       <use x="63.623047" xlink:href="#DejaVuSans-50"/>
       <use x="127.246094" xlink:href="#DejaVuSans-48"/>
      </g>
     </g>
    </g>
   </g>
   <g id="line2d_16">
    <path clip-path="url(#p8812b5f0ff)" d="M 170.220223 293.350887 
L 170.803764 291.23203 
L 171.232364 289.141344 
L 171.516086 287.076817 
L 171.667002 285.038449 
L 171.689136 283.022215 
L 171.395353 279.052125 
L 170.707178 275.154475 
L 169.695036 271.317191 
L 168.433381 267.524176 
L 166.232023 261.889989 
L 160.881558 248.780443 
L 158.84319 243.099975 
L 156.995981 237.361153 
L 155.352006 231.549892 
L 153.959557 225.668203 
L 153.20699 221.708174 
L 152.619425 217.721987 
L 152.221008 213.707629 
L 152.021799 209.675161 
L 152.023811 205.638668 
L 152.233081 201.608212 
L 152.649608 197.595866 
L 153.27943 193.617728 
L 154.110472 189.679834 
L 155.124626 185.782183 
L 156.299757 181.924778 
L 158.322027 176.214127 
L 160.60991 170.606098 
L 163.171452 165.126852 
L 165.042807 161.563228 
L 167.053005 158.08613 
L 170.316809 153.02341 
L 180.474443 137.990192 
L 182.518848 134.501021 
L 184.410325 130.933373 
L 186.118691 127.289261 
L 187.613763 123.564661 
L 188.881455 119.759573 
L 189.966036 115.894118 
L 191.372571 110.012429 
L 194.107164 98.194722 
L 195.193757 94.309145 
L 196.455412 90.485947 
L 197.938411 86.747261 
L 199.69507 83.111199 
L 201.751548 79.613978 
L 204.101809 76.301881 
L 206.747865 73.221188 
L 209.687703 70.41818 
L 211.267287 69.13439 
L 214.633714 66.832423 
L 216.410495 65.822293 
L 218.239594 64.910762 
L 220.114973 64.101854 
L 222.032609 63.397581 
L 223.984452 62.805991 
L 225.962454 62.327085 
L 227.962591 61.968912 
L 229.976813 61.731471 
L 231.999083 61.616775 
L 234.027391 61.624824 
L 238.06992 61.978973 
L 242.06818 62.749649 
L 245.981928 63.890572 
L 249.768907 65.359485 
L 253.406982 67.106083 
L 256.924324 69.057926 
L 262.079605 72.20301 
L 268.955326 76.400479 
L 274.261522 79.288 
L 277.887524 81.042647 
L 281.58999 82.638329 
L 285.372944 84.056937 
L 289.238399 85.278348 
L 293.170257 86.278417 
L 297.148395 87.024946 
L 301.156717 87.491779 
L 305.171075 87.650744 
L 309.177384 87.475681 
L 313.15351 86.936409 
L 317.081344 86.006768 
L 320.942774 84.656576 
L 322.840288 83.817484 
L 324.715667 82.861685 
L 324.715667 82.861685 
" style="fill:none;stroke:#fea952;stroke-linecap:square;"/>
   </g>
   <g id="line2d_17">
    <path clip-path="url(#p8812b5f0ff)" d="M 162.460291 291.213773 
L 163.258472 288.045517 
L 163.618648 284.950093 
L 163.589231 281.842346 
L 163.203314 278.674326 
L 162.491962 275.421667 
L 161.48938 272.060176 
L 160.2402 268.580097 
L 158.038818 263.152625 
L 154.079522 253.532227 
L 151.895717 247.634021 
L 149.899991 241.65861 
L 148.102397 235.585589 
L 146.527364 229.356635 
L 145.640947 225.114353 
L 144.915748 220.803451 
L 144.377581 216.416133 
L 144.052883 211.990122 
L 143.94949 207.552601 
L 144.070398 203.098349 
L 144.420416 198.658045 
L 145.005313 194.237571 
L 145.81624 189.881528 
L 146.82926 185.61159 
L 148.016788 181.431227 
L 149.357018 177.317258 
L 151.60397 171.292342 
L 154.140002 165.357419 
L 156.008115 161.456647 
L 158.033238 157.607253 
L 160.216756 153.837659 
L 163.672267 148.48096 
L 173.569799 133.853806 
L 175.449136 130.653558 
L 177.168345 127.420892 
L 178.695449 124.178109 
L 180.015919 120.908242 
L 181.154299 117.506828 
L 182.626797 112.079084 
L 184.843819 102.291421 
L 186.335311 96.101375 
L 187.517916 91.887313 
L 188.925357 87.643049 
L 190.622889 83.390634 
L 192.671592 79.179969 
L 195.082869 75.107036 
L 197.872351 71.205052 
L 199.408922 69.341554 
L 201.044524 67.541778 
L 202.779025 65.815278 
L 204.611266 64.172094 
L 206.545486 62.616078 
L 208.555614 61.174561 
L 210.655742 59.835313 
L 212.820458 58.618445 
L 215.051783 57.520115 
L 217.340163 56.546443 
L 219.697945 55.694779 
L 222.090424 54.983175 
L 224.543682 54.404277 
L 227.020301 53.975421 
L 229.521044 53.695547 
L 232.031023 53.568 
L 234.514547 53.590742 
L 236.968515 53.751119 
L 239.3983 54.040509 
L 241.795508 54.451531 
L 246.461511 55.601495 
L 250.959727 57.144874 
L 255.221665 59.009541 
L 259.171068 61.071522 
L 264.622088 64.305032 
L 272.920054 69.395857 
L 277.838548 72.077682 
L 281.158704 73.68852 
L 284.509971 75.137829 
L 287.90622 76.417152 
L 291.338615 77.508349 
L 294.785656 78.393349 
L 298.222661 79.04812 
L 301.640225 79.457476 
L 304.993511 79.603864 
L 308.289425 79.475973 
L 311.497796 79.059709 
L 314.631716 78.339753 
L 317.687598 77.295351 
L 319.185445 76.646297 
L 321.060824 75.690498 
L 321.060824 75.690498 
" style="fill:none;stroke:#ffffff;stroke-linecap:square;"/>
   </g>
   <g id="line2d_18">
    <path clip-path="url(#p8812b5f0ff)" d="M 177.980155 295.488 
L 178.688619 292.848463 
L 179.206257 290.237171 
L 179.542955 287.671106 
L 179.715355 285.126804 
L 179.729335 282.649383 
L 179.603918 280.20986 
L 179.351446 277.833772 
L 178.525686 273.242739 
L 177.366579 268.88178 
L 175.977663 264.71925 
L 173.661957 258.79485 
L 168.427792 245.980774 
L 166.475758 240.545039 
L 164.712867 235.073475 
L 163.153857 229.571278 
L 161.851164 224.08506 
L 161.156289 220.446253 
L 160.618741 216.830497 
L 160.254451 213.210053 
L 160.070061 209.578871 
L 160.066572 205.951398 
L 160.249454 202.330408 
L 160.615772 198.746534 
L 161.175352 195.179205 
L 161.922294 191.61871 
L 162.845636 188.055904 
L 164.526285 182.705074 
L 166.508997 177.373079 
L 168.725804 172.16841 
L 171.177081 167.149539 
L 172.956723 163.913267 
L 174.875547 160.745289 
L 178.067066 155.948168 
L 185.070951 145.771141 
L 188.498659 140.254767 
L 190.636651 136.418612 
L 192.622013 132.440074 
L 194.409625 128.320507 
L 195.94869 124.102273 
L 197.214012 119.929842 
L 198.771272 113.769711 
L 202.362646 98.486838 
L 203.409099 95.011856 
L 204.597086 91.696236 
L 205.956048 88.558472 
L 207.535004 85.568848 
L 209.344693 82.738088 
L 211.3663 80.119137 
L 213.582091 77.749639 
L 215.989089 75.652702 
L 218.611686 73.829532 
L 221.427405 72.301409 
L 224.367272 71.100382 
L 227.381227 70.249893 
L 230.432581 69.767395 
L 233.540235 69.658907 
L 236.74154 69.917437 
L 239.987376 70.52487 
L 243.227459 71.453422 
L 246.418357 72.677792 
L 249.590068 74.192336 
L 252.81285 75.977434 
L 257.807946 79.024794 
L 264.990597 83.405101 
L 270.684497 86.498319 
L 274.616344 88.396774 
L 278.670009 90.13883 
L 282.839668 91.696722 
L 287.138183 93.048348 
L 291.554857 94.163484 
L 296.074129 95.001772 
L 300.673208 95.526082 
L 305.348639 95.697623 
L 310.065344 95.475389 
L 312.446271 95.201584 
L 314.809225 94.81311 
L 317.175428 94.305306 
L 319.530971 93.673784 
L 321.880893 92.910668 
L 324.19795 92.017801 
L 328.37051 90.032872 
L 328.37051 90.032872 
" style="fill:none;stroke:#ffffff;stroke-linecap:square;"/>
   </g>
   <g id="patch_3">
    <path d="M 57.6 307.584 
L 57.6 41.472 
" style="fill:none;stroke:#000000;stroke-linecap:square;stroke-linejoin:miter;stroke-width:0.8;"/>
   </g>
   <g id="patch_4">
    <path d="M 414.72 307.584 
L 414.72 41.472 
" style="fill:none;stroke:#000000;stroke-linecap:square;stroke-linejoin:miter;stroke-width:0.8;"/>
   </g>
   <g id="patch_5">
    <path d="M 57.6 307.584 
L 414.72 307.584 
" style="fill:none;stroke:#000000;stroke-linecap:square;stroke-linejoin:miter;stroke-width:0.8;"/>
   </g>
   <g id="patch_6">
    <path d="M 57.6 41.472 
L 414.72 41.472 
" style="fill:none;stroke:#000000;stroke-linecap:square;stroke-linejoin:miter;stroke-width:0.8;"/>
   </g>
  </g>
 </g>
 <defs>
  <clipPath id="p8812b5f0ff">
   <rect height="266.112" width="357.12" x="57.6" y="41.472"/>
  </clipPath>
 </defs>
</svg>
