<?xml version="1.0" encoding="utf-8" standalone="no"?>
<!DOCTYPE svg PUBLIC "-//W3C//DTD SVG 1.1//EN"
  "http://www.w3.org/Graphics/SVG/1.1/DTD/svg11.dtd">
<!-- Created with matplotlib (https://matplotlib.org/) -->
<svg height="345.6pt" version="1.1" viewBox="0 0 460.8 345.6" width="460.8pt" xmlns="http://www.w3.org/2000/svg" xmlns:xlink="http://www.w3.org/1999/xlink">
 <metadata>
  <rdf:RDF xmlns:cc="http://creativecommons.org/ns#" xmlns:dc="http://purl.org/dc/elements/1.1/" xmlns:rdf="http://www.w3.org/1999/02/22-rdf-syntax-ns#">
   <cc:Work>
    <dc:type rdf:resource="http://purl.org/dc/dcmitype/StillImage"/>
    <dc:date>2021-01-23T13:56:42.011776</dc:date>
    <dc:format>image/svg+xml</dc:format>
    <dc:creator>
     <cc:Agent>
      <dc:title>Matplotlib v3.3.3, https://matplotlib.org/</dc:title>
     </cc:Agent>
    </dc:creator>
   </cc:Work>
  </rdf:RDF>
 </metadata>
 <defs>
  <style type="text/css">*{stroke-linecap:butt;stroke-linejoin:round;}</style>
 </defs>
 <g id="figure_1">
  <g id="patch_1">
   <path d="M 0 345.6 
L 460.8 345.6 
L 460.8 0 
L 0 0 
z
" style="fill:#ffffff;"/>
  </g>
  <g id="axes_1">
   <g id="patch_2">
    <path d="M 57.6 307.584 
L 414.72 307.584 
L 414.72 41.472 
L 57.6 41.472 
z
" style="fill:#7d9051;"/>
   </g>
   <g id="matplotlib.axis_1">
    <g id="xtick_1">
     <g id="line2d_1">
      <defs>
       <path d="M 0 0 
L 0 3.5 
" id="m73d9185cac" style="stroke:#000000;stroke-width:0.8;"/>
      </defs>
      <g>
       <use style="stroke:#000000;stroke-width:0.8;" x="105.071412" xlink:href="#m73d9185cac" y="307.584"/>
      </g>
     </g>
     <g id="text_1">
      <!-- −25 -->
      <g transform="translate(94.519068 322.182437)scale(0.1 -0.1)">
       <defs>
        <path d="M 10.59375 35.5 
L 73.1875 35.5 
L 73.1875 27.203125 
L 10.59375 27.203125 
z
" id="DejaVuSans-8722"/>
        <path d="M 19.1875 8.296875 
L 53.609375 8.296875 
L 53.609375 0 
L 7.328125 0 
L 7.328125 8.296875 
Q 12.9375 14.109375 22.625 23.890625 
Q 32.328125 33.6875 34.8125 36.53125 
Q 39.546875 41.84375 41.421875 45.53125 
Q 43.3125 49.21875 43.3125 52.78125 
Q 43.3125 58.59375 39.234375 62.25 
Q 35.15625 65.921875 28.609375 65.921875 
Q 23.96875 65.921875 18.8125 64.3125 
Q 13.671875 62.703125 7.8125 59.421875 
L 7.8125 69.390625 
Q 13.765625 71.78125 18.9375 73 
Q 24.125 74.21875 28.421875 74.21875 
Q 39.75 74.21875 46.484375 68.546875 
Q 53.21875 62.890625 53.21875 53.421875 
Q 53.21875 48.921875 51.53125 44.890625 
Q 49.859375 40.875 45.40625 35.40625 
Q 44.1875 33.984375 37.640625 27.21875 
Q 31.109375 20.453125 19.1875 8.296875 
z
" id="DejaVuSans-50"/>
        <path d="M 10.796875 72.90625 
L 49.515625 72.90625 
L 49.515625 64.59375 
L 19.828125 64.59375 
L 19.828125 46.734375 
Q 21.96875 47.46875 24.109375 47.828125 
Q 26.265625 48.1875 28.421875 48.1875 
Q 40.625 48.1875 47.75 41.5 
Q 54.890625 34.8125 54.890625 23.390625 
Q 54.890625 11.625 47.5625 5.09375 
Q 40.234375 -1.421875 26.90625 -1.421875 
Q 22.3125 -1.421875 17.546875 -0.640625 
Q 12.796875 0.140625 7.71875 1.703125 
L 7.71875 11.625 
Q 12.109375 9.234375 16.796875 8.0625 
Q 21.484375 6.890625 26.703125 6.890625 
Q 35.15625 6.890625 40.078125 11.328125 
Q 45.015625 15.765625 45.015625 23.390625 
Q 45.015625 31 40.078125 35.4375 
Q 35.15625 39.890625 26.703125 39.890625 
Q 22.75 39.890625 18.8125 39.015625 
Q 14.890625 38.140625 10.796875 36.28125 
z
" id="DejaVuSans-53"/>
       </defs>
       <use xlink:href="#DejaVuSans-8722"/>
       <use x="83.789062" xlink:href="#DejaVuSans-50"/>
       <use x="147.412109" xlink:href="#DejaVuSans-53"/>
      </g>
     </g>
    </g>
    <g id="xtick_2">
     <g id="line2d_2">
      <g>
       <use style="stroke:#000000;stroke-width:0.8;" x="153.419638" xlink:href="#m73d9185cac" y="307.584"/>
      </g>
     </g>
     <g id="text_2">
      <!-- 0 -->
      <g transform="translate(150.238388 322.182437)scale(0.1 -0.1)">
       <defs>
        <path d="M 31.78125 66.40625 
Q 24.171875 66.40625 20.328125 58.90625 
Q 16.5 51.421875 16.5 36.375 
Q 16.5 21.390625 20.328125 13.890625 
Q 24.171875 6.390625 31.78125 6.390625 
Q 39.453125 6.390625 43.28125 13.890625 
Q 47.125 21.390625 47.125 36.375 
Q 47.125 51.421875 43.28125 58.90625 
Q 39.453125 66.40625 31.78125 66.40625 
z
M 31.78125 74.21875 
Q 44.046875 74.21875 50.515625 64.515625 
Q 56.984375 54.828125 56.984375 36.375 
Q 56.984375 17.96875 50.515625 8.265625 
Q 44.046875 -1.421875 31.78125 -1.421875 
Q 19.53125 -1.421875 13.0625 8.265625 
Q 6.59375 17.96875 6.59375 36.375 
Q 6.59375 54.828125 13.0625 64.515625 
Q 19.53125 74.21875 31.78125 74.21875 
z
" id="DejaVuSans-48"/>
       </defs>
       <use xlink:href="#DejaVuSans-48"/>
      </g>
     </g>
    </g>
    <g id="xtick_3">
     <g id="line2d_3">
      <g>
       <use style="stroke:#000000;stroke-width:0.8;" x="201.767864" xlink:href="#m73d9185cac" y="307.584"/>
      </g>
     </g>
     <g id="text_3">
      <!-- 25 -->
      <g transform="translate(195.405364 322.182437)scale(0.1 -0.1)">
       <use xlink:href="#DejaVuSans-50"/>
       <use x="63.623047" xlink:href="#DejaVuSans-53"/>
      </g>
     </g>
    </g>
    <g id="xtick_4">
     <g id="line2d_4">
      <g>
       <use style="stroke:#000000;stroke-width:0.8;" x="250.116089" xlink:href="#m73d9185cac" y="307.584"/>
      </g>
     </g>
     <g id="text_4">
      <!-- 50 -->
      <g transform="translate(243.753589 322.182437)scale(0.1 -0.1)">
       <use xlink:href="#DejaVuSans-53"/>
       <use x="63.623047" xlink:href="#DejaVuSans-48"/>
      </g>
     </g>
    </g>
    <g id="xtick_5">
     <g id="line2d_5">
      <g>
       <use style="stroke:#000000;stroke-width:0.8;" x="298.464315" xlink:href="#m73d9185cac" y="307.584"/>
      </g>
     </g>
     <g id="text_5">
      <!-- 75 -->
      <g transform="translate(292.101815 322.182437)scale(0.1 -0.1)">
       <defs>
        <path d="M 8.203125 72.90625 
L 55.078125 72.90625 
L 55.078125 68.703125 
L 28.609375 0 
L 18.3125 0 
L 43.21875 64.59375 
L 8.203125 64.59375 
z
" id="DejaVuSans-55"/>
       </defs>
       <use xlink:href="#DejaVuSans-55"/>
       <use x="63.623047" xlink:href="#DejaVuSans-53"/>
      </g>
     </g>
    </g>
    <g id="xtick_6">
     <g id="line2d_6">
      <g>
       <use style="stroke:#000000;stroke-width:0.8;" x="346.812541" xlink:href="#m73d9185cac" y="307.584"/>
      </g>
     </g>
     <g id="text_6">
      <!-- 100 -->
      <g transform="translate(337.268791 322.182437)scale(0.1 -0.1)">
       <defs>
        <path d="M 12.40625 8.296875 
L 28.515625 8.296875 
L 28.515625 63.921875 
L 10.984375 60.40625 
L 10.984375 69.390625 
L 28.421875 72.90625 
L 38.28125 72.90625 
L 38.28125 8.296875 
L 54.390625 8.296875 
L 54.390625 0 
L 12.40625 0 
z
" id="DejaVuSans-49"/>
       </defs>
       <use xlink:href="#DejaVuSans-49"/>
       <use x="63.623047" xlink:href="#DejaVuSans-48"/>
       <use x="127.246094" xlink:href="#DejaVuSans-48"/>
      </g>
     </g>
    </g>
    <g id="xtick_7">
     <g id="line2d_7">
      <g>
       <use style="stroke:#000000;stroke-width:0.8;" x="395.160766" xlink:href="#m73d9185cac" y="307.584"/>
      </g>
     </g>
     <g id="text_7">
      <!-- 125 -->
      <g transform="translate(385.617016 322.182437)scale(0.1 -0.1)">
       <use xlink:href="#DejaVuSans-49"/>
       <use x="63.623047" xlink:href="#DejaVuSans-50"/>
       <use x="127.246094" xlink:href="#DejaVuSans-53"/>
      </g>
     </g>
    </g>
   </g>
   <g id="matplotlib.axis_2">
    <g id="ytick_1">
     <g id="line2d_8">
      <defs>
       <path d="M 0 0 
L -3.5 0 
" id="m359750cdac" style="stroke:#000000;stroke-width:0.8;"/>
      </defs>
      <g>
       <use style="stroke:#000000;stroke-width:0.8;" x="57.6" xlink:href="#m359750cdac" y="275.186275"/>
      </g>
     </g>
     <g id="text_8">
      <!-- 20 -->
      <g transform="translate(37.875 278.985494)scale(0.1 -0.1)">
       <use xlink:href="#DejaVuSans-50"/>
       <use x="63.623047" xlink:href="#DejaVuSans-48"/>
      </g>
     </g>
    </g>
    <g id="ytick_2">
     <g id="line2d_9">
      <g>
       <use style="stroke:#000000;stroke-width:0.8;" x="57.6" xlink:href="#m359750cdac" y="236.507695"/>
      </g>
     </g>
     <g id="text_9">
      <!-- 40 -->
      <g transform="translate(37.875 240.306914)scale(0.1 -0.1)">
       <defs>
        <path d="M 37.796875 64.3125 
L 12.890625 25.390625 
L 37.796875 25.390625 
z
M 35.203125 72.90625 
L 47.609375 72.90625 
L 47.609375 25.390625 
L 58.015625 25.390625 
L 58.015625 17.1875 
L 47.609375 17.1875 
L 47.609375 0 
L 37.796875 0 
L 37.796875 17.1875 
L 4.890625 17.1875 
L 4.890625 26.703125 
z
" id="DejaVuSans-52"/>
       </defs>
       <use xlink:href="#DejaVuSans-52"/>
       <use x="63.623047" xlink:href="#DejaVuSans-48"/>
      </g>
     </g>
    </g>
    <g id="ytick_3">
     <g id="line2d_10">
      <g>
       <use style="stroke:#000000;stroke-width:0.8;" x="57.6" xlink:href="#m359750cdac" y="197.829114"/>
      </g>
     </g>
     <g id="text_10">
      <!-- 60 -->
      <g transform="translate(37.875 201.628333)scale(0.1 -0.1)">
       <defs>
        <path d="M 33.015625 40.375 
Q 26.375 40.375 22.484375 35.828125 
Q 18.609375 31.296875 18.609375 23.390625 
Q 18.609375 15.53125 22.484375 10.953125 
Q 26.375 6.390625 33.015625 6.390625 
Q 39.65625 6.390625 43.53125 10.953125 
Q 47.40625 15.53125 47.40625 23.390625 
Q 47.40625 31.296875 43.53125 35.828125 
Q 39.65625 40.375 33.015625 40.375 
z
M 52.59375 71.296875 
L 52.59375 62.3125 
Q 48.875 64.0625 45.09375 64.984375 
Q 41.3125 65.921875 37.59375 65.921875 
Q 27.828125 65.921875 22.671875 59.328125 
Q 17.53125 52.734375 16.796875 39.40625 
Q 19.671875 43.65625 24.015625 45.921875 
Q 28.375 48.1875 33.59375 48.1875 
Q 44.578125 48.1875 50.953125 41.515625 
Q 57.328125 34.859375 57.328125 23.390625 
Q 57.328125 12.15625 50.6875 5.359375 
Q 44.046875 -1.421875 33.015625 -1.421875 
Q 20.359375 -1.421875 13.671875 8.265625 
Q 6.984375 17.96875 6.984375 36.375 
Q 6.984375 53.65625 15.1875 63.9375 
Q 23.390625 74.21875 37.203125 74.21875 
Q 40.921875 74.21875 44.703125 73.484375 
Q 48.484375 72.75 52.59375 71.296875 
z
" id="DejaVuSans-54"/>
       </defs>
       <use xlink:href="#DejaVuSans-54"/>
       <use x="63.623047" xlink:href="#DejaVuSans-48"/>
      </g>
     </g>
    </g>
    <g id="ytick_4">
     <g id="line2d_11">
      <g>
       <use style="stroke:#000000;stroke-width:0.8;" x="57.6" xlink:href="#m359750cdac" y="159.150534"/>
      </g>
     </g>
     <g id="text_11">
      <!-- 80 -->
      <g transform="translate(37.875 162.949753)scale(0.1 -0.1)">
       <defs>
        <path d="M 31.78125 34.625 
Q 24.75 34.625 20.71875 30.859375 
Q 16.703125 27.09375 16.703125 20.515625 
Q 16.703125 13.921875 20.71875 10.15625 
Q 24.75 6.390625 31.78125 6.390625 
Q 38.8125 6.390625 42.859375 10.171875 
Q 46.921875 13.96875 46.921875 20.515625 
Q 46.921875 27.09375 42.890625 30.859375 
Q 38.875 34.625 31.78125 34.625 
z
M 21.921875 38.8125 
Q 15.578125 40.375 12.03125 44.71875 
Q 8.5 49.078125 8.5 55.328125 
Q 8.5 64.0625 14.71875 69.140625 
Q 20.953125 74.21875 31.78125 74.21875 
Q 42.671875 74.21875 48.875 69.140625 
Q 55.078125 64.0625 55.078125 55.328125 
Q 55.078125 49.078125 51.53125 44.71875 
Q 48 40.375 41.703125 38.8125 
Q 48.828125 37.15625 52.796875 32.3125 
Q 56.78125 27.484375 56.78125 20.515625 
Q 56.78125 9.90625 50.3125 4.234375 
Q 43.84375 -1.421875 31.78125 -1.421875 
Q 19.734375 -1.421875 13.25 4.234375 
Q 6.78125 9.90625 6.78125 20.515625 
Q 6.78125 27.484375 10.78125 32.3125 
Q 14.796875 37.15625 21.921875 38.8125 
z
M 18.3125 54.390625 
Q 18.3125 48.734375 21.84375 45.5625 
Q 25.390625 42.390625 31.78125 42.390625 
Q 38.140625 42.390625 41.71875 45.5625 
Q 45.3125 48.734375 45.3125 54.390625 
Q 45.3125 60.0625 41.71875 63.234375 
Q 38.140625 66.40625 31.78125 66.40625 
Q 25.390625 66.40625 21.84375 63.234375 
Q 18.3125 60.0625 18.3125 54.390625 
z
" id="DejaVuSans-56"/>
       </defs>
       <use xlink:href="#DejaVuSans-56"/>
       <use x="63.623047" xlink:href="#DejaVuSans-48"/>
      </g>
     </g>
    </g>
    <g id="ytick_5">
     <g id="line2d_12">
      <g>
       <use style="stroke:#000000;stroke-width:0.8;" x="57.6" xlink:href="#m359750cdac" y="120.471953"/>
      </g>
     </g>
     <g id="text_12">
      <!-- 100 -->
      <g transform="translate(31.5125 124.271172)scale(0.1 -0.1)">
       <use xlink:href="#DejaVuSans-49"/>
       <use x="63.623047" xlink:href="#DejaVuSans-48"/>
       <use x="127.246094" xlink:href="#DejaVuSans-48"/>
      </g>
     </g>
    </g>
    <g id="ytick_6">
     <g id="line2d_13">
      <g>
       <use style="stroke:#000000;stroke-width:0.8;" x="57.6" xlink:href="#m359750cdac" y="81.793373"/>
      </g>
     </g>
     <g id="text_13">
      <!-- 120 -->
      <g transform="translate(31.5125 85.592591)scale(0.1 -0.1)">
       <use xlink:href="#DejaVuSans-49"/>
       <use x="63.623047" xlink:href="#DejaVuSans-50"/>
       <use x="127.246094" xlink:href="#DejaVuSans-48"/>
      </g>
     </g>
    </g>
    <g id="ytick_7">
     <g id="line2d_14">
      <g>
       <use style="stroke:#000000;stroke-width:0.8;" x="57.6" xlink:href="#m359750cdac" y="43.114792"/>
      </g>
     </g>
     <g id="text_14">
      <!-- 140 -->
      <g transform="translate(31.5125 46.914011)scale(0.1 -0.1)">
       <use xlink:href="#DejaVuSans-49"/>
       <use x="63.623047" xlink:href="#DejaVuSans-52"/>
       <use x="127.246094" xlink:href="#DejaVuSans-48"/>
      </g>
     </g>
    </g>
   </g>
   <g id="line2d_15">
    <path clip-path="url(#pa48033500d)" d="M 300.516214 55.5867 
L 299.419676 59.355928 
L 298.067859 62.997516 
L 296.503311 66.532739 
L 294.774378 69.982868 
L 291.962446 75.051696 
L 284.257672 88.473164 
L 282.522938 91.927161 
L 280.179016 97.233862 
L 278.129051 102.67207 
L 276.349836 108.210843 
L 274.833636 113.828907 
L 273.994311 117.611672 
L 273.311634 121.423446 
L 272.806878 125.260362 
L 272.499384 129.120484 
L 272.396886 132.996078 
L 272.495516 136.873605 
L 272.791407 140.743397 
L 273.282625 144.591916 
L 273.963368 148.405624 
L 274.822033 152.180654 
L 276.398185 157.769708 
L 278.252823 163.277538 
L 280.318259 168.706077 
L 282.567418 174.055325 
L 285.000301 179.323347 
L 287.616907 184.510145 
L 292.045604 193.123865 
L 293.617889 196.657153 
L 294.958102 200.289072 
L 295.996621 204.044762 
L 296.692836 207.895215 
L 297.01967 211.794016 
L 296.944247 215.700552 
L 296.745052 217.644151 
L 296.435623 219.572278 
L 296.010159 221.481066 
L 295.474461 223.364713 
L 294.078164 227.029509 
L 292.275742 230.514449 
L 290.096204 233.775053 
L 287.564691 236.757172 
L 284.71408 239.422126 
L 281.590784 241.760246 
L 278.239285 243.771532 
L 274.709865 245.457918 
L 271.048937 246.817471 
L 267.299049 247.857924 
L 263.487275 248.598619 
L 259.63102 249.062762 
L 255.749624 249.279362 
L 251.864361 249.271626 
L 247.992635 249.062762 
L 244.140249 248.674042 
L 240.307201 248.119005 
L 234.602111 247.018599 
L 228.953104 245.655179 
L 221.443657 243.78507 
L 217.65509 243.0173 
L 213.816241 242.471932 
L 209.921308 242.224389 
L 206.007036 242.311416 
L 202.119839 242.765889 
L 198.311932 243.616818 
L 196.451493 244.198931 
L 194.629731 244.891277 
L 192.850517 245.695792 
L 191.11965 246.606672 
L 189.442934 247.621985 
L 186.27129 249.934964 
L 183.376198 252.588315 
L 180.794403 255.535623 
L 178.568451 258.730473 
L 176.706077 262.136122 
L 175.189877 265.713891 
L 173.998577 269.430903 
L 173.110903 273.248479 
L 172.507517 277.135676 
L 172.167146 281.05575 
L 172.070449 284.97389 
L 172.196155 288.853352 
L 172.524923 292.659324 
L 172.758928 294.525566 
L 172.758928 294.525566 
" style="fill:none;stroke:#fea952;stroke-linecap:square;"/>
   </g>
   <g id="line2d_16">
    <path clip-path="url(#pa48033500d)" d="M 307.983887 57.605401 
L 306.714239 61.930932 
L 305.184491 66.02982 
L 303.454587 69.927007 
L 301.588186 73.64529 
L 298.649715 78.940363 
L 291.13596 92.013003 
L 288.785374 96.803841 
L 286.704437 101.761545 
L 284.872802 106.874819 
L 283.28118 112.096189 
L 281.963351 117.31512 
L 280.968049 122.528257 
L 280.509158 125.978829 
L 280.228931 129.429357 
L 280.132048 132.903533 
L 280.215501 136.380512 
L 280.47617 139.85699 
L 280.913922 143.325183 
L 281.523502 146.766822 
L 282.304446 150.217293 
L 283.764252 155.407008 
L 285.512369 160.605407 
L 287.482947 165.789136 
L 289.630011 170.899205 
L 291.948456 175.922693 
L 294.461881 180.906309 
L 299.069547 189.88264 
L 300.822517 193.840306 
L 302.36588 198.060591 
L 303.574974 202.492385 
L 304.382718 207.054373 
L 304.628119 209.389628 
L 304.755201 211.740456 
L 304.760897 214.101521 
L 304.639653 216.489236 
L 304.383038 218.869906 
L 303.986048 221.25525 
L 303.450824 223.597149 
L 302.778139 225.91375 
L 301.976832 228.172351 
L 301.045296 230.391112 
L 299.995072 232.540315 
L 298.824886 234.631489 
L 297.539604 236.653207 
L 296.133054 238.612175 
L 294.624982 240.474396 
L 293.003939 242.257707 
L 291.298303 243.927212 
L 289.509959 245.491791 
L 287.65742 246.942161 
L 285.730523 248.295065 
L 283.758227 249.53379 
L 279.668048 251.709417 
L 275.423196 253.489144 
L 271.098687 254.871059 
L 266.732855 255.884064 
L 262.356386 256.558492 
L 258.006927 256.929345 
L 253.690465 257.035488 
L 249.417115 256.909324 
L 245.199218 256.577812 
L 241.029649 256.060436 
L 236.93038 255.381511 
L 230.881948 254.103302 
L 216.434728 250.656149 
L 213.16366 250.180073 
L 209.921308 249.960105 
L 206.717729 250.014417 
L 203.598608 250.358948 
L 200.621925 250.999584 
L 197.816934 251.939897 
L 195.126548 253.223777 
L 192.554853 254.856155 
L 190.171576 256.774154 
L 188.001462 258.961389 
L 186.104672 261.343415 
L 184.475032 263.939373 
L 183.098425 266.752093 
L 181.970836 269.75377 
L 181.085353 272.928639 
L 180.438624 276.235544 
L 180.021277 279.635076 
L 179.825127 283.09319 
L 179.834739 286.563956 
L 180.035278 290.004444 
L 180.43454 293.563131 
L 180.43454 293.563131 
" style="fill:none;stroke:#ffffff;stroke-linecap:square;"/>
   </g>
   <g id="line2d_17">
    <path clip-path="url(#pa48033500d)" d="M 293.04854 53.568 
L 292.125112 56.780924 
L 290.951228 59.965213 
L 289.552034 63.13847 
L 287.097397 67.92793 
L 283.344681 74.465957 
L 278.358613 83.108884 
L 276.427208 86.786784 
L 274.632134 90.55476 
L 272.987563 94.383544 
L 270.801188 100.193415 
L 268.91497 106.074476 
L 267.299026 112.076493 
L 266.396031 116.159968 
L 265.655219 120.318636 
L 265.104599 124.541894 
L 264.769836 128.811611 
L 264.661723 133.088622 
L 264.775531 137.366698 
L 265.106644 141.629804 
L 265.651328 145.85865 
L 266.403234 150.044426 
L 267.339619 154.144014 
L 268.43322 158.151191 
L 270.312837 164.020942 
L 272.411771 169.742541 
L 274.700329 175.357058 
L 277.184439 180.902854 
L 279.858066 186.351991 
L 285.746076 197.928054 
L 287.014543 200.99629 
L 288.018727 204.047606 
L 288.747105 207.161096 
L 289.183017 210.291867 
L 289.305518 213.396915 
L 289.107066 216.418396 
L 288.569494 219.364984 
L 287.680225 222.258616 
L 286.455531 225.053925 
L 284.923237 227.69818 
L 283.119072 230.131318 
L 281.053956 232.33331 
L 278.711264 234.319502 
L 276.120191 236.079214 
L 273.317846 237.601258 
L 270.360747 238.869404 
L 267.266704 239.881693 
L 264.067006 240.644035 
L 260.769645 241.168643 
L 257.375652 241.470797 
L 253.921586 241.565782 
L 250.436013 241.471479 
L 246.929797 241.203473 
L 243.410065 240.773224 
L 238.096059 239.850206 
L 232.723489 238.628352 
L 221.001299 235.779785 
L 216.698138 235.035286 
L 212.203621 234.578833 
L 207.620532 234.496309 
L 205.296342 234.608415 
L 202.972202 234.832085 
L 200.641069 235.17283 
L 198.309089 235.638923 
L 196.00194 236.234052 
L 193.703361 236.967812 
L 191.442529 237.842657 
L 189.24795 238.85015 
L 187.112753 239.989567 
L 185.059134 241.248321 
L 183.097485 242.611833 
L 181.207543 244.086907 
L 179.400489 245.667899 
L 177.700457 247.332151 
L 176.085981 249.092927 
L 174.575597 250.93478 
L 173.16342 252.864663 
L 171.882037 254.840336 
L 170.708602 256.878875 
L 169.658212 258.947252 
L 167.877637 263.189519 
L 166.500622 267.527752 
L 165.48925 271.924958 
L 164.813025 276.338122 
L 164.437442 280.750831 
L 164.336113 285.119966 
L 164.481384 289.422219 
L 164.84931 293.621758 
L 165.083316 295.488 
L 165.083316 295.488 
" style="fill:none;stroke:#ffffff;stroke-linecap:square;"/>
   </g>
   <g id="patch_3">
    <path d="M 57.6 307.584 
L 57.6 41.472 
" style="fill:none;stroke:#000000;stroke-linecap:square;stroke-linejoin:miter;stroke-width:0.8;"/>
   </g>
   <g id="patch_4">
    <path d="M 414.72 307.584 
L 414.72 41.472 
" style="fill:none;stroke:#000000;stroke-linecap:square;stroke-linejoin:miter;stroke-width:0.8;"/>
   </g>
   <g id="patch_5">
    <path d="M 57.6 307.584 
L 414.72 307.584 
" style="fill:none;stroke:#000000;stroke-linecap:square;stroke-linejoin:miter;stroke-width:0.8;"/>
   </g>
   <g id="patch_6">
    <path d="M 57.6 41.472 
L 414.72 41.472 
" style="fill:none;stroke:#000000;stroke-linecap:square;stroke-linejoin:miter;stroke-width:0.8;"/>
   </g>
  </g>
 </g>
 <defs>
  <clipPath id="pa48033500d">
   <rect height="266.112" width="357.12" x="57.6" y="41.472"/>
  </clipPath>
 </defs>
</svg>
