<?xml version="1.0" encoding="utf-8" standalone="no"?>
<!DOCTYPE svg PUBLIC "-//W3C//DTD SVG 1.1//EN"
  "http://www.w3.org/Graphics/SVG/1.1/DTD/svg11.dtd">
<!-- Created with matplotlib (https://matplotlib.org/) -->
<svg height="345.6pt" version="1.1" viewBox="0 0 460.8 345.6" width="460.8pt" xmlns="http://www.w3.org/2000/svg" xmlns:xlink="http://www.w3.org/1999/xlink">
 <metadata>
  <rdf:RDF xmlns:cc="http://creativecommons.org/ns#" xmlns:dc="http://purl.org/dc/elements/1.1/" xmlns:rdf="http://www.w3.org/1999/02/22-rdf-syntax-ns#">
   <cc:Work>
    <dc:type rdf:resource="http://purl.org/dc/dcmitype/StillImage"/>
    <dc:date>2021-01-23T12:11:43.453748</dc:date>
    <dc:format>image/svg+xml</dc:format>
    <dc:creator>
     <cc:Agent>
      <dc:title>Matplotlib v3.3.3, https://matplotlib.org/</dc:title>
     </cc:Agent>
    </dc:creator>
   </cc:Work>
  </rdf:RDF>
 </metadata>
 <defs>
  <style type="text/css">*{stroke-linecap:butt;stroke-linejoin:round;}</style>
 </defs>
 <g id="figure_1">
  <g id="patch_1">
   <path d="M 0 345.6 
L 460.8 345.6 
L 460.8 0 
L 0 0 
z
" style="fill:#ffffff;"/>
  </g>
  <g id="axes_1">
   <g id="patch_2">
    <path d="M 57.6 307.584 
L 414.72 307.584 
L 414.72 41.472 
L 57.6 41.472 
z
" style="fill:#7d9051;"/>
   </g>
   <g id="matplotlib.axis_1">
    <g id="xtick_1">
     <g id="line2d_1">
      <defs>
       <path d="M 0 0 
L 0 3.5 
" id="mf9466ffd08" style="stroke:#000000;stroke-width:0.8;"/>
      </defs>
      <g>
       <use style="stroke:#000000;stroke-width:0.8;" x="111.963108" xlink:href="#mf9466ffd08" y="307.584"/>
      </g>
     </g>
     <g id="text_1">
      <!-- 20 -->
      <g transform="translate(105.600608 322.182437)scale(0.1 -0.1)">
       <defs>
        <path d="M 19.1875 8.296875 
L 53.609375 8.296875 
L 53.609375 0 
L 7.328125 0 
L 7.328125 8.296875 
Q 12.9375 14.109375 22.625 23.890625 
Q 32.328125 33.6875 34.8125 36.53125 
Q 39.546875 41.84375 41.421875 45.53125 
Q 43.3125 49.21875 43.3125 52.78125 
Q 43.3125 58.59375 39.234375 62.25 
Q 35.15625 65.921875 28.609375 65.921875 
Q 23.96875 65.921875 18.8125 64.3125 
Q 13.671875 62.703125 7.8125 59.421875 
L 7.8125 69.390625 
Q 13.765625 71.78125 18.9375 73 
Q 24.125 74.21875 28.421875 74.21875 
Q 39.75 74.21875 46.484375 68.546875 
Q 53.21875 62.890625 53.21875 53.421875 
Q 53.21875 48.921875 51.53125 44.890625 
Q 49.859375 40.875 45.40625 35.40625 
Q 44.1875 33.984375 37.640625 27.21875 
Q 31.109375 20.453125 19.1875 8.296875 
z
" id="DejaVuSans-50"/>
        <path d="M 31.78125 66.40625 
Q 24.171875 66.40625 20.328125 58.90625 
Q 16.5 51.421875 16.5 36.375 
Q 16.5 21.390625 20.328125 13.890625 
Q 24.171875 6.390625 31.78125 6.390625 
Q 39.453125 6.390625 43.28125 13.890625 
Q 47.125 21.390625 47.125 36.375 
Q 47.125 51.421875 43.28125 58.90625 
Q 39.453125 66.40625 31.78125 66.40625 
z
M 31.78125 74.21875 
Q 44.046875 74.21875 50.515625 64.515625 
Q 56.984375 54.828125 56.984375 36.375 
Q 56.984375 17.96875 50.515625 8.265625 
Q 44.046875 -1.421875 31.78125 -1.421875 
Q 19.53125 -1.421875 13.0625 8.265625 
Q 6.59375 17.96875 6.59375 36.375 
Q 6.59375 54.828125 13.0625 64.515625 
Q 19.53125 74.21875 31.78125 74.21875 
z
" id="DejaVuSans-48"/>
       </defs>
       <use xlink:href="#DejaVuSans-50"/>
       <use x="63.623047" xlink:href="#DejaVuSans-48"/>
      </g>
     </g>
    </g>
    <g id="xtick_2">
     <g id="line2d_2">
      <g>
       <use style="stroke:#000000;stroke-width:0.8;" x="169.964688" xlink:href="#mf9466ffd08" y="307.584"/>
      </g>
     </g>
     <g id="text_2">
      <!-- 40 -->
      <g transform="translate(163.602188 322.182437)scale(0.1 -0.1)">
       <defs>
        <path d="M 37.796875 64.3125 
L 12.890625 25.390625 
L 37.796875 25.390625 
z
M 35.203125 72.90625 
L 47.609375 72.90625 
L 47.609375 25.390625 
L 58.015625 25.390625 
L 58.015625 17.1875 
L 47.609375 17.1875 
L 47.609375 0 
L 37.796875 0 
L 37.796875 17.1875 
L 4.890625 17.1875 
L 4.890625 26.703125 
z
" id="DejaVuSans-52"/>
       </defs>
       <use xlink:href="#DejaVuSans-52"/>
       <use x="63.623047" xlink:href="#DejaVuSans-48"/>
      </g>
     </g>
    </g>
    <g id="xtick_3">
     <g id="line2d_3">
      <g>
       <use style="stroke:#000000;stroke-width:0.8;" x="227.966268" xlink:href="#mf9466ffd08" y="307.584"/>
      </g>
     </g>
     <g id="text_3">
      <!-- 60 -->
      <g transform="translate(221.603768 322.182437)scale(0.1 -0.1)">
       <defs>
        <path d="M 33.015625 40.375 
Q 26.375 40.375 22.484375 35.828125 
Q 18.609375 31.296875 18.609375 23.390625 
Q 18.609375 15.53125 22.484375 10.953125 
Q 26.375 6.390625 33.015625 6.390625 
Q 39.65625 6.390625 43.53125 10.953125 
Q 47.40625 15.53125 47.40625 23.390625 
Q 47.40625 31.296875 43.53125 35.828125 
Q 39.65625 40.375 33.015625 40.375 
z
M 52.59375 71.296875 
L 52.59375 62.3125 
Q 48.875 64.0625 45.09375 64.984375 
Q 41.3125 65.921875 37.59375 65.921875 
Q 27.828125 65.921875 22.671875 59.328125 
Q 17.53125 52.734375 16.796875 39.40625 
Q 19.671875 43.65625 24.015625 45.921875 
Q 28.375 48.1875 33.59375 48.1875 
Q 44.578125 48.1875 50.953125 41.515625 
Q 57.328125 34.859375 57.328125 23.390625 
Q 57.328125 12.15625 50.6875 5.359375 
Q 44.046875 -1.421875 33.015625 -1.421875 
Q 20.359375 -1.421875 13.671875 8.265625 
Q 6.984375 17.96875 6.984375 36.375 
Q 6.984375 53.65625 15.1875 63.9375 
Q 23.390625 74.21875 37.203125 74.21875 
Q 40.921875 74.21875 44.703125 73.484375 
Q 48.484375 72.75 52.59375 71.296875 
z
" id="DejaVuSans-54"/>
       </defs>
       <use xlink:href="#DejaVuSans-54"/>
       <use x="63.623047" xlink:href="#DejaVuSans-48"/>
      </g>
     </g>
    </g>
    <g id="xtick_4">
     <g id="line2d_4">
      <g>
       <use style="stroke:#000000;stroke-width:0.8;" x="285.967848" xlink:href="#mf9466ffd08" y="307.584"/>
      </g>
     </g>
     <g id="text_4">
      <!-- 80 -->
      <g transform="translate(279.605348 322.182437)scale(0.1 -0.1)">
       <defs>
        <path d="M 31.78125 34.625 
Q 24.75 34.625 20.71875 30.859375 
Q 16.703125 27.09375 16.703125 20.515625 
Q 16.703125 13.921875 20.71875 10.15625 
Q 24.75 6.390625 31.78125 6.390625 
Q 38.8125 6.390625 42.859375 10.171875 
Q 46.921875 13.96875 46.921875 20.515625 
Q 46.921875 27.09375 42.890625 30.859375 
Q 38.875 34.625 31.78125 34.625 
z
M 21.921875 38.8125 
Q 15.578125 40.375 12.03125 44.71875 
Q 8.5 49.078125 8.5 55.328125 
Q 8.5 64.0625 14.71875 69.140625 
Q 20.953125 74.21875 31.78125 74.21875 
Q 42.671875 74.21875 48.875 69.140625 
Q 55.078125 64.0625 55.078125 55.328125 
Q 55.078125 49.078125 51.53125 44.71875 
Q 48 40.375 41.703125 38.8125 
Q 48.828125 37.15625 52.796875 32.3125 
Q 56.78125 27.484375 56.78125 20.515625 
Q 56.78125 9.90625 50.3125 4.234375 
Q 43.84375 -1.421875 31.78125 -1.421875 
Q 19.734375 -1.421875 13.25 4.234375 
Q 6.78125 9.90625 6.78125 20.515625 
Q 6.78125 27.484375 10.78125 32.3125 
Q 14.796875 37.15625 21.921875 38.8125 
z
M 18.3125 54.390625 
Q 18.3125 48.734375 21.84375 45.5625 
Q 25.390625 42.390625 31.78125 42.390625 
Q 38.140625 42.390625 41.71875 45.5625 
Q 45.3125 48.734375 45.3125 54.390625 
Q 45.3125 60.0625 41.71875 63.234375 
Q 38.140625 66.40625 31.78125 66.40625 
Q 25.390625 66.40625 21.84375 63.234375 
Q 18.3125 60.0625 18.3125 54.390625 
z
" id="DejaVuSans-56"/>
       </defs>
       <use xlink:href="#DejaVuSans-56"/>
       <use x="63.623047" xlink:href="#DejaVuSans-48"/>
      </g>
     </g>
    </g>
    <g id="xtick_5">
     <g id="line2d_5">
      <g>
       <use style="stroke:#000000;stroke-width:0.8;" x="343.969428" xlink:href="#mf9466ffd08" y="307.584"/>
      </g>
     </g>
     <g id="text_5">
      <!-- 100 -->
      <g transform="translate(334.425678 322.182437)scale(0.1 -0.1)">
       <defs>
        <path d="M 12.40625 8.296875 
L 28.515625 8.296875 
L 28.515625 63.921875 
L 10.984375 60.40625 
L 10.984375 69.390625 
L 28.421875 72.90625 
L 38.28125 72.90625 
L 38.28125 8.296875 
L 54.390625 8.296875 
L 54.390625 0 
L 12.40625 0 
z
" id="DejaVuSans-49"/>
       </defs>
       <use xlink:href="#DejaVuSans-49"/>
       <use x="63.623047" xlink:href="#DejaVuSans-48"/>
       <use x="127.246094" xlink:href="#DejaVuSans-48"/>
      </g>
     </g>
    </g>
    <g id="xtick_6">
     <g id="line2d_6">
      <g>
       <use style="stroke:#000000;stroke-width:0.8;" x="401.971009" xlink:href="#mf9466ffd08" y="307.584"/>
      </g>
     </g>
     <g id="text_6">
      <!-- 120 -->
      <g transform="translate(392.427259 322.182437)scale(0.1 -0.1)">
       <use xlink:href="#DejaVuSans-49"/>
       <use x="63.623047" xlink:href="#DejaVuSans-50"/>
       <use x="127.246094" xlink:href="#DejaVuSans-48"/>
      </g>
     </g>
    </g>
   </g>
   <g id="matplotlib.axis_2">
    <g id="ytick_1">
     <g id="line2d_7">
      <defs>
       <path d="M 0 0 
L -3.5 0 
" id="md6de6f0547" style="stroke:#000000;stroke-width:0.8;"/>
      </defs>
      <g>
       <use style="stroke:#000000;stroke-width:0.8;" x="57.6" xlink:href="#md6de6f0547" y="266.289638"/>
      </g>
     </g>
     <g id="text_7">
      <!-- 20 -->
      <g transform="translate(37.875 270.088857)scale(0.1 -0.1)">
       <use xlink:href="#DejaVuSans-50"/>
       <use x="63.623047" xlink:href="#DejaVuSans-48"/>
      </g>
     </g>
    </g>
    <g id="ytick_2">
     <g id="line2d_8">
      <g>
       <use style="stroke:#000000;stroke-width:0.8;" x="57.6" xlink:href="#md6de6f0547" y="208.288058"/>
      </g>
     </g>
     <g id="text_8">
      <!-- 40 -->
      <g transform="translate(37.875 212.087276)scale(0.1 -0.1)">
       <use xlink:href="#DejaVuSans-52"/>
       <use x="63.623047" xlink:href="#DejaVuSans-48"/>
      </g>
     </g>
    </g>
    <g id="ytick_3">
     <g id="line2d_9">
      <g>
       <use style="stroke:#000000;stroke-width:0.8;" x="57.6" xlink:href="#md6de6f0547" y="150.286478"/>
      </g>
     </g>
     <g id="text_9">
      <!-- 60 -->
      <g transform="translate(37.875 154.085696)scale(0.1 -0.1)">
       <use xlink:href="#DejaVuSans-54"/>
       <use x="63.623047" xlink:href="#DejaVuSans-48"/>
      </g>
     </g>
    </g>
    <g id="ytick_4">
     <g id="line2d_10">
      <g>
       <use style="stroke:#000000;stroke-width:0.8;" x="57.6" xlink:href="#md6de6f0547" y="92.284897"/>
      </g>
     </g>
     <g id="text_10">
      <!-- 80 -->
      <g transform="translate(37.875 96.084116)scale(0.1 -0.1)">
       <use xlink:href="#DejaVuSans-56"/>
       <use x="63.623047" xlink:href="#DejaVuSans-48"/>
      </g>
     </g>
    </g>
   </g>
   <g id="line2d_11">
    <path clip-path="url(#p41f0980cf0)" d="M 394.700511 62.135676 
L 388.244935 67.915533 
L 381.580553 73.524286 
L 377.018729 77.137785 
L 372.358302 80.62658 
L 367.593472 83.973271 
L 362.73004 87.157558 
L 357.759304 90.162039 
L 352.678366 92.966416 
L 347.490124 95.550386 
L 342.19168 97.90235 
L 336.800433 100.042609 
L 331.333784 102.000162 
L 323.027958 104.656634 
L 314.65253 107.0492 
L 306.2278 109.224259 
L 297.750869 111.181812 
L 289.227537 112.93636 
L 280.649103 114.432801 
L 274.901147 115.230322 
L 269.124189 115.816138 
L 263.321131 116.152548 
L 257.491972 116.204749 
L 251.662814 115.949542 
L 245.865556 115.363726 
L 240.126299 114.427001 
L 234.476945 113.121965 
L 228.940695 111.442819 
L 223.503046 109.438865 
L 218.149501 107.179703 
L 212.862657 104.734936 
L 202.416572 99.549595 
L 194.589259 95.69539 
L 189.316915 93.291225 
L 183.960469 91.110365 
L 178.49092 89.234014 
L 172.902468 87.688272 
L 167.218313 86.461539 
L 161.464556 85.539313 
L 155.667298 84.898396 
L 149.84394 84.527186 
L 144.020581 84.434383 
L 138.211723 84.654789 
L 132.426065 85.231905 
L 126.686809 86.194731 
L 123.836031 86.832749 
L 121.002654 87.583869 
L 118.198277 88.448093 
L 115.428702 89.428319 
L 112.705528 90.530349 
L 110.037455 91.754183 
L 107.438984 93.10562 
L 104.915916 94.58466 
L 102.479849 96.197104 
L 100.139485 97.942951 
L 97.909325 99.825103 
L 95.795167 101.849358 
L 93.802813 104.001216 
L 91.938062 106.274878 
L 90.209615 108.655843 
L 88.620372 111.138311 
L 87.176132 113.710681 
L 85.882697 116.358453 
L 84.745866 119.078727 
L 83.768539 121.854103 
L 82.962317 124.67878 
L 82.3272 127.541158 
L 81.857387 130.432537 
L 81.549979 133.344216 
L 81.399175 136.273296 
L 81.399175 139.205276 
L 81.541279 142.134355 
L 81.825486 145.054735 
L 82.240198 147.957714 
L 82.782513 150.834592 
L 83.446631 153.67667 
L 85.102576 159.244822 
L 87.08333 164.69697 
L 91.465349 175.447563 
L 93.588207 180.84461 
L 95.510959 186.314159 
L 97.233606 191.85621 
L 98.779348 197.450462 
L 100.832604 205.918693 
L 102.645154 214.442025 
L 104.234397 223.003059 
L 105.565533 231.598893 
L 106.618262 240.232428 
L 107.380983 248.897864 
L 107.897197 257.586501 
L 108.198805 266.289638 
L 108.340909 277.901554 
L 108.224906 292.396149 
L 108.175604 295.290428 
L 108.175604 295.290428 
" style="fill:none;stroke:#fea952;stroke-linecap:square;"/>
   </g>
   <g id="line2d_12">
    <path clip-path="url(#p41f0980cf0)" d="M 402.521141 70.703352 
L 395.809597 76.710033 
L 388.844127 82.569054 
L 384.036127 86.374854 
L 379.096475 90.069268 
L 374.02817 93.625317 
L 368.818775 97.031495 
L 363.464649 100.262355 
L 357.95882 103.295217 
L 352.307856 106.102959 
L 346.565863 108.646365 
L 340.7973 110.932622 
L 335.002126 113.005188 
L 326.318738 115.780397 
L 317.642941 118.257445 
L 308.929299 120.505626 
L 300.186225 122.52361 
L 291.359745 124.339036 
L 285.368816 125.419919 
L 279.273939 126.359671 
L 273.06999 127.104526 
L 266.75663 127.607231 
L 260.360382 127.816573 
L 253.905471 127.698754 
L 247.431912 127.221295 
L 240.936131 126.35812 
L 234.49292 125.078928 
L 231.290093 124.275947 
L 225.074411 122.379875 
L 219.099055 120.170696 
L 213.353609 117.74222 
L 207.799765 115.172104 
L 197.219516 109.92061 
L 189.69128 106.210956 
L 184.814811 103.982267 
L 180.02792 102.02377 
L 175.229016 100.366279 
L 170.296564 98.992103 
L 165.230701 97.890306 
L 160.045594 97.052518 
L 154.790824 96.465553 
L 149.50901 96.122666 
L 144.298353 96.031373 
L 139.183695 96.214314 
L 134.139501 96.704981 
L 129.220339 97.515003 
L 124.418976 98.669719 
L 119.780354 100.18148 
L 115.390016 102.045802 
L 113.30549 103.113189 
L 111.318688 104.257914 
L 109.41605 105.4953 
L 107.621244 106.808086 
L 105.9319 108.203982 
L 104.307235 109.730477 
L 102.77229 111.357561 
L 101.325586 113.089695 
L 99.9794 114.910332 
L 98.735488 116.817373 
L 97.599276 118.802381 
L 96.585949 120.831454 
L 95.687593 122.93177 
L 94.923385 125.037929 
L 94.287205 127.191597 
L 93.777347 129.401663 
L 93.393587 131.650502 
L 93.134951 133.94067 
L 92.999491 136.273296 
L 92.985863 138.643149 
L 93.087049 141.010735 
L 93.639739 145.808809 
L 94.621752 150.564757 
L 96.04946 155.406454 
L 97.865905 160.418723 
L 102.228758 171.121322 
L 104.493153 176.888667 
L 106.559246 182.778244 
L 108.393261 188.689281 
L 110.021635 194.590684 
L 112.158042 203.408356 
L 114.03033 212.218268 
L 115.679686 221.112904 
L 117.064293 230.067272 
L 118.162718 239.095386 
L 118.953672 248.097748 
L 119.487295 257.099717 
L 119.796569 266.046328 
L 119.941219 277.913143 
L 119.823539 292.593721 
L 119.774238 295.488 
L 119.774238 295.488 
" style="fill:none;stroke:#ffffff;stroke-linecap:square;"/>
   </g>
   <g id="line2d_13">
    <path clip-path="url(#p41f0980cf0)" d="M 386.87988 53.568 
L 380.680273 59.121034 
L 374.31698 64.479518 
L 367.815541 69.562716 
L 363.392531 72.775064 
L 358.901262 75.828155 
L 354.34431 78.702216 
L 349.728099 81.378114 
L 345.035245 83.848376 
L 340.259171 86.102379 
L 335.320188 88.176966 
L 330.249934 90.091373 
L 325.043256 91.870125 
L 317.05856 94.325838 
L 308.947384 96.56564 
L 300.79504 98.597318 
L 292.583862 100.427069 
L 284.380378 102.042229 
L 276.282112 103.352753 
L 270.961146 103.999936 
L 265.691591 104.431057 
L 260.452722 104.616125 
L 255.243515 104.536739 
L 250.087757 104.173175 
L 245.035424 103.522509 
L 240.087124 102.56284 
L 235.241809 101.282302 
L 230.364533 99.646701 
L 225.433191 97.694307 
L 220.440433 95.481034 
L 212.826769 91.799658 
L 199.487238 85.179824 
L 193.819019 82.600182 
L 187.893018 80.196961 
L 181.752824 78.10175 
L 175.508372 76.384441 
L 169.205925 75.032771 
L 162.883518 74.026109 
L 156.543773 73.331239 
L 150.178869 72.931706 
L 143.742809 72.837393 
L 137.239751 73.095265 
L 130.712629 73.758829 
L 127.428222 74.256884 
L 124.153279 74.874459 
L 120.863496 75.619749 
L 117.586332 76.498019 
L 114.327877 77.512493 
L 111.07705 78.675159 
L 107.869045 79.986358 
L 104.684894 81.462564 
L 101.572478 83.098051 
L 98.513143 84.911406 
L 95.543648 86.898908 
L 92.657727 89.077817 
L 89.886749 91.446224 
L 87.2831 93.968239 
L 84.833335 96.644872 
L 82.550538 99.460062 
L 80.43983 102.401355 
L 78.505255 105.459249 
L 76.752989 108.618981 
L 75.179445 111.885452 
L 73.804139 115.225684 
L 72.613694 118.670276 
L 71.63743 122.165963 
L 70.877054 125.680653 
L 70.321188 129.214571 
L 69.965007 132.747762 
L 69.798859 136.273296 
L 69.812487 139.767402 
L 69.995508 143.257976 
L 70.341759 146.695267 
L 70.840657 150.106619 
L 71.486498 153.474171 
L 72.27151 156.788582 
L 73.167347 159.979132 
L 75.204606 166.065807 
L 77.413499 171.778174 
L 82.683261 184.800553 
L 84.462673 189.850074 
L 86.073952 195.023139 
L 87.537062 200.310241 
L 89.507167 208.42903 
L 91.259978 216.665783 
L 92.789108 224.893213 
L 94.066774 233.130514 
L 95.073806 241.36947 
L 95.808293 249.69798 
L 96.307099 258.073285 
L 96.601041 266.532948 
L 96.740599 277.889966 
L 96.626272 292.198577 
L 96.576971 295.092856 
L 96.576971 295.092856 
" style="fill:none;stroke:#ffffff;stroke-linecap:square;"/>
   </g>
   <g id="patch_3">
    <path d="M 57.6 307.584 
L 57.6 41.472 
" style="fill:none;stroke:#000000;stroke-linecap:square;stroke-linejoin:miter;stroke-width:0.8;"/>
   </g>
   <g id="patch_4">
    <path d="M 414.72 307.584 
L 414.72 41.472 
" style="fill:none;stroke:#000000;stroke-linecap:square;stroke-linejoin:miter;stroke-width:0.8;"/>
   </g>
   <g id="patch_5">
    <path d="M 57.6 307.584 
L 414.72 307.584 
" style="fill:none;stroke:#000000;stroke-linecap:square;stroke-linejoin:miter;stroke-width:0.8;"/>
   </g>
   <g id="patch_6">
    <path d="M 57.6 41.472 
L 414.72 41.472 
" style="fill:none;stroke:#000000;stroke-linecap:square;stroke-linejoin:miter;stroke-width:0.8;"/>
   </g>
  </g>
 </g>
 <defs>
  <clipPath id="p41f0980cf0">
   <rect height="266.112" width="357.12" x="57.6" y="41.472"/>
  </clipPath>
 </defs>
</svg>
