<?xml version="1.0" encoding="utf-8" standalone="no"?>
<!DOCTYPE svg PUBLIC "-//W3C//DTD SVG 1.1//EN"
  "http://www.w3.org/Graphics/SVG/1.1/DTD/svg11.dtd">
<!-- Created with matplotlib (https://matplotlib.org/) -->
<svg height="345.6pt" version="1.1" viewBox="0 0 460.8 345.6" width="460.8pt" xmlns="http://www.w3.org/2000/svg" xmlns:xlink="http://www.w3.org/1999/xlink">
 <metadata>
  <rdf:RDF xmlns:cc="http://creativecommons.org/ns#" xmlns:dc="http://purl.org/dc/elements/1.1/" xmlns:rdf="http://www.w3.org/1999/02/22-rdf-syntax-ns#">
   <cc:Work>
    <dc:type rdf:resource="http://purl.org/dc/dcmitype/StillImage"/>
    <dc:date>2021-01-22T11:15:44.572689</dc:date>
    <dc:format>image/svg+xml</dc:format>
    <dc:creator>
     <cc:Agent>
      <dc:title>Matplotlib v3.3.3, https://matplotlib.org/</dc:title>
     </cc:Agent>
    </dc:creator>
   </cc:Work>
  </rdf:RDF>
 </metadata>
 <defs>
  <style type="text/css">*{stroke-linecap:butt;stroke-linejoin:round;}</style>
 </defs>
 <g id="figure_1">
  <g id="patch_1">
   <path d="M 0 345.6 
L 460.8 345.6 
L 460.8 0 
L 0 0 
z
" style="fill:#ffffff;"/>
  </g>
  <g id="axes_1">
   <g id="patch_2">
    <path d="M 57.6 307.584 
L 414.72 307.584 
L 414.72 41.472 
L 57.6 41.472 
z
" style="fill:#7d9051;"/>
   </g>
   <g id="matplotlib.axis_1">
    <g id="xtick_1">
     <g id="line2d_1">
      <defs>
       <path d="M 0 0 
L 0 3.5 
" id="mbcf7c4e46d" style="stroke:#000000;stroke-width:0.8;"/>
      </defs>
      <g>
       <use style="stroke:#000000;stroke-width:0.8;" x="58.532051" xlink:href="#mbcf7c4e46d" y="307.584"/>
      </g>
     </g>
     <g id="text_1">
      <!-- −40 -->
      <g transform="translate(47.979707 322.182437)scale(0.1 -0.1)">
       <defs>
        <path d="M 10.59375 35.5 
L 73.1875 35.5 
L 73.1875 27.203125 
L 10.59375 27.203125 
z
" id="DejaVuSans-8722"/>
        <path d="M 37.796875 64.3125 
L 12.890625 25.390625 
L 37.796875 25.390625 
z
M 35.203125 72.90625 
L 47.609375 72.90625 
L 47.609375 25.390625 
L 58.015625 25.390625 
L 58.015625 17.1875 
L 47.609375 17.1875 
L 47.609375 0 
L 37.796875 0 
L 37.796875 17.1875 
L 4.890625 17.1875 
L 4.890625 26.703125 
z
" id="DejaVuSans-52"/>
        <path d="M 31.78125 66.40625 
Q 24.171875 66.40625 20.328125 58.90625 
Q 16.5 51.421875 16.5 36.375 
Q 16.5 21.390625 20.328125 13.890625 
Q 24.171875 6.390625 31.78125 6.390625 
Q 39.453125 6.390625 43.28125 13.890625 
Q 47.125 21.390625 47.125 36.375 
Q 47.125 51.421875 43.28125 58.90625 
Q 39.453125 66.40625 31.78125 66.40625 
z
M 31.78125 74.21875 
Q 44.046875 74.21875 50.515625 64.515625 
Q 56.984375 54.828125 56.984375 36.375 
Q 56.984375 17.96875 50.515625 8.265625 
Q 44.046875 -1.421875 31.78125 -1.421875 
Q 19.53125 -1.421875 13.0625 8.265625 
Q 6.59375 17.96875 6.59375 36.375 
Q 6.59375 54.828125 13.0625 64.515625 
Q 19.53125 74.21875 31.78125 74.21875 
z
" id="DejaVuSans-48"/>
       </defs>
       <use xlink:href="#DejaVuSans-8722"/>
       <use x="83.789062" xlink:href="#DejaVuSans-52"/>
       <use x="147.412109" xlink:href="#DejaVuSans-48"/>
      </g>
     </g>
    </g>
    <g id="xtick_2">
     <g id="line2d_2">
      <g>
       <use style="stroke:#000000;stroke-width:0.8;" x="100.503924" xlink:href="#mbcf7c4e46d" y="307.584"/>
      </g>
     </g>
     <g id="text_2">
      <!-- −20 -->
      <g transform="translate(89.95158 322.182437)scale(0.1 -0.1)">
       <defs>
        <path d="M 19.1875 8.296875 
L 53.609375 8.296875 
L 53.609375 0 
L 7.328125 0 
L 7.328125 8.296875 
Q 12.9375 14.109375 22.625 23.890625 
Q 32.328125 33.6875 34.8125 36.53125 
Q 39.546875 41.84375 41.421875 45.53125 
Q 43.3125 49.21875 43.3125 52.78125 
Q 43.3125 58.59375 39.234375 62.25 
Q 35.15625 65.921875 28.609375 65.921875 
Q 23.96875 65.921875 18.8125 64.3125 
Q 13.671875 62.703125 7.8125 59.421875 
L 7.8125 69.390625 
Q 13.765625 71.78125 18.9375 73 
Q 24.125 74.21875 28.421875 74.21875 
Q 39.75 74.21875 46.484375 68.546875 
Q 53.21875 62.890625 53.21875 53.421875 
Q 53.21875 48.921875 51.53125 44.890625 
Q 49.859375 40.875 45.40625 35.40625 
Q 44.1875 33.984375 37.640625 27.21875 
Q 31.109375 20.453125 19.1875 8.296875 
z
" id="DejaVuSans-50"/>
       </defs>
       <use xlink:href="#DejaVuSans-8722"/>
       <use x="83.789062" xlink:href="#DejaVuSans-50"/>
       <use x="147.412109" xlink:href="#DejaVuSans-48"/>
      </g>
     </g>
    </g>
    <g id="xtick_3">
     <g id="line2d_3">
      <g>
       <use style="stroke:#000000;stroke-width:0.8;" x="142.475797" xlink:href="#mbcf7c4e46d" y="307.584"/>
      </g>
     </g>
     <g id="text_3">
      <!-- 0 -->
      <g transform="translate(139.294547 322.182437)scale(0.1 -0.1)">
       <use xlink:href="#DejaVuSans-48"/>
      </g>
     </g>
    </g>
    <g id="xtick_4">
     <g id="line2d_4">
      <g>
       <use style="stroke:#000000;stroke-width:0.8;" x="184.44767" xlink:href="#mbcf7c4e46d" y="307.584"/>
      </g>
     </g>
     <g id="text_4">
      <!-- 20 -->
      <g transform="translate(178.08517 322.182437)scale(0.1 -0.1)">
       <use xlink:href="#DejaVuSans-50"/>
       <use x="63.623047" xlink:href="#DejaVuSans-48"/>
      </g>
     </g>
    </g>
    <g id="xtick_5">
     <g id="line2d_5">
      <g>
       <use style="stroke:#000000;stroke-width:0.8;" x="226.419544" xlink:href="#mbcf7c4e46d" y="307.584"/>
      </g>
     </g>
     <g id="text_5">
      <!-- 40 -->
      <g transform="translate(220.057044 322.182437)scale(0.1 -0.1)">
       <use xlink:href="#DejaVuSans-52"/>
       <use x="63.623047" xlink:href="#DejaVuSans-48"/>
      </g>
     </g>
    </g>
    <g id="xtick_6">
     <g id="line2d_6">
      <g>
       <use style="stroke:#000000;stroke-width:0.8;" x="268.391417" xlink:href="#mbcf7c4e46d" y="307.584"/>
      </g>
     </g>
     <g id="text_6">
      <!-- 60 -->
      <g transform="translate(262.028917 322.182437)scale(0.1 -0.1)">
       <defs>
        <path d="M 33.015625 40.375 
Q 26.375 40.375 22.484375 35.828125 
Q 18.609375 31.296875 18.609375 23.390625 
Q 18.609375 15.53125 22.484375 10.953125 
Q 26.375 6.390625 33.015625 6.390625 
Q 39.65625 6.390625 43.53125 10.953125 
Q 47.40625 15.53125 47.40625 23.390625 
Q 47.40625 31.296875 43.53125 35.828125 
Q 39.65625 40.375 33.015625 40.375 
z
M 52.59375 71.296875 
L 52.59375 62.3125 
Q 48.875 64.0625 45.09375 64.984375 
Q 41.3125 65.921875 37.59375 65.921875 
Q 27.828125 65.921875 22.671875 59.328125 
Q 17.53125 52.734375 16.796875 39.40625 
Q 19.671875 43.65625 24.015625 45.921875 
Q 28.375 48.1875 33.59375 48.1875 
Q 44.578125 48.1875 50.953125 41.515625 
Q 57.328125 34.859375 57.328125 23.390625 
Q 57.328125 12.15625 50.6875 5.359375 
Q 44.046875 -1.421875 33.015625 -1.421875 
Q 20.359375 -1.421875 13.671875 8.265625 
Q 6.984375 17.96875 6.984375 36.375 
Q 6.984375 53.65625 15.1875 63.9375 
Q 23.390625 74.21875 37.203125 74.21875 
Q 40.921875 74.21875 44.703125 73.484375 
Q 48.484375 72.75 52.59375 71.296875 
z
" id="DejaVuSans-54"/>
       </defs>
       <use xlink:href="#DejaVuSans-54"/>
       <use x="63.623047" xlink:href="#DejaVuSans-48"/>
      </g>
     </g>
    </g>
    <g id="xtick_7">
     <g id="line2d_7">
      <g>
       <use style="stroke:#000000;stroke-width:0.8;" x="310.36329" xlink:href="#mbcf7c4e46d" y="307.584"/>
      </g>
     </g>
     <g id="text_7">
      <!-- 80 -->
      <g transform="translate(304.00079 322.182437)scale(0.1 -0.1)">
       <defs>
        <path d="M 31.78125 34.625 
Q 24.75 34.625 20.71875 30.859375 
Q 16.703125 27.09375 16.703125 20.515625 
Q 16.703125 13.921875 20.71875 10.15625 
Q 24.75 6.390625 31.78125 6.390625 
Q 38.8125 6.390625 42.859375 10.171875 
Q 46.921875 13.96875 46.921875 20.515625 
Q 46.921875 27.09375 42.890625 30.859375 
Q 38.875 34.625 31.78125 34.625 
z
M 21.921875 38.8125 
Q 15.578125 40.375 12.03125 44.71875 
Q 8.5 49.078125 8.5 55.328125 
Q 8.5 64.0625 14.71875 69.140625 
Q 20.953125 74.21875 31.78125 74.21875 
Q 42.671875 74.21875 48.875 69.140625 
Q 55.078125 64.0625 55.078125 55.328125 
Q 55.078125 49.078125 51.53125 44.71875 
Q 48 40.375 41.703125 38.8125 
Q 48.828125 37.15625 52.796875 32.3125 
Q 56.78125 27.484375 56.78125 20.515625 
Q 56.78125 9.90625 50.3125 4.234375 
Q 43.84375 -1.421875 31.78125 -1.421875 
Q 19.734375 -1.421875 13.25 4.234375 
Q 6.78125 9.90625 6.78125 20.515625 
Q 6.78125 27.484375 10.78125 32.3125 
Q 14.796875 37.15625 21.921875 38.8125 
z
M 18.3125 54.390625 
Q 18.3125 48.734375 21.84375 45.5625 
Q 25.390625 42.390625 31.78125 42.390625 
Q 38.140625 42.390625 41.71875 45.5625 
Q 45.3125 48.734375 45.3125 54.390625 
Q 45.3125 60.0625 41.71875 63.234375 
Q 38.140625 66.40625 31.78125 66.40625 
Q 25.390625 66.40625 21.84375 63.234375 
Q 18.3125 60.0625 18.3125 54.390625 
z
" id="DejaVuSans-56"/>
       </defs>
       <use xlink:href="#DejaVuSans-56"/>
       <use x="63.623047" xlink:href="#DejaVuSans-48"/>
      </g>
     </g>
    </g>
    <g id="xtick_8">
     <g id="line2d_8">
      <g>
       <use style="stroke:#000000;stroke-width:0.8;" x="352.335163" xlink:href="#mbcf7c4e46d" y="307.584"/>
      </g>
     </g>
     <g id="text_8">
      <!-- 100 -->
      <g transform="translate(342.791413 322.182437)scale(0.1 -0.1)">
       <defs>
        <path d="M 12.40625 8.296875 
L 28.515625 8.296875 
L 28.515625 63.921875 
L 10.984375 60.40625 
L 10.984375 69.390625 
L 28.421875 72.90625 
L 38.28125 72.90625 
L 38.28125 8.296875 
L 54.390625 8.296875 
L 54.390625 0 
L 12.40625 0 
z
" id="DejaVuSans-49"/>
       </defs>
       <use xlink:href="#DejaVuSans-49"/>
       <use x="63.623047" xlink:href="#DejaVuSans-48"/>
       <use x="127.246094" xlink:href="#DejaVuSans-48"/>
      </g>
     </g>
    </g>
    <g id="xtick_9">
     <g id="line2d_9">
      <g>
       <use style="stroke:#000000;stroke-width:0.8;" x="394.307036" xlink:href="#mbcf7c4e46d" y="307.584"/>
      </g>
     </g>
     <g id="text_9">
      <!-- 120 -->
      <g transform="translate(384.763286 322.182437)scale(0.1 -0.1)">
       <use xlink:href="#DejaVuSans-49"/>
       <use x="63.623047" xlink:href="#DejaVuSans-50"/>
       <use x="127.246094" xlink:href="#DejaVuSans-48"/>
      </g>
     </g>
    </g>
   </g>
   <g id="matplotlib.axis_2">
    <g id="ytick_1">
     <g id="line2d_10">
      <defs>
       <path d="M 0 0 
L -3.5 0 
" id="m7d6c7f10aa" style="stroke:#000000;stroke-width:0.8;"/>
      </defs>
      <g>
       <use style="stroke:#000000;stroke-width:0.8;" x="57.6" xlink:href="#m7d6c7f10aa" y="273.064104"/>
      </g>
     </g>
     <g id="text_10">
      <!-- 20 -->
      <g transform="translate(37.875 276.863323)scale(0.1 -0.1)">
       <use xlink:href="#DejaVuSans-50"/>
       <use x="63.623047" xlink:href="#DejaVuSans-48"/>
      </g>
     </g>
    </g>
    <g id="ytick_2">
     <g id="line2d_11">
      <g>
       <use style="stroke:#000000;stroke-width:0.8;" x="57.6" xlink:href="#m7d6c7f10aa" y="231.092231"/>
      </g>
     </g>
     <g id="text_11">
      <!-- 40 -->
      <g transform="translate(37.875 234.89145)scale(0.1 -0.1)">
       <use xlink:href="#DejaVuSans-52"/>
       <use x="63.623047" xlink:href="#DejaVuSans-48"/>
      </g>
     </g>
    </g>
    <g id="ytick_3">
     <g id="line2d_12">
      <g>
       <use style="stroke:#000000;stroke-width:0.8;" x="57.6" xlink:href="#m7d6c7f10aa" y="189.120358"/>
      </g>
     </g>
     <g id="text_12">
      <!-- 60 -->
      <g transform="translate(37.875 192.919576)scale(0.1 -0.1)">
       <use xlink:href="#DejaVuSans-54"/>
       <use x="63.623047" xlink:href="#DejaVuSans-48"/>
      </g>
     </g>
    </g>
    <g id="ytick_4">
     <g id="line2d_13">
      <g>
       <use style="stroke:#000000;stroke-width:0.8;" x="57.6" xlink:href="#m7d6c7f10aa" y="147.148484"/>
      </g>
     </g>
     <g id="text_13">
      <!-- 80 -->
      <g transform="translate(37.875 150.947703)scale(0.1 -0.1)">
       <use xlink:href="#DejaVuSans-56"/>
       <use x="63.623047" xlink:href="#DejaVuSans-48"/>
      </g>
     </g>
    </g>
    <g id="ytick_5">
     <g id="line2d_14">
      <g>
       <use style="stroke:#000000;stroke-width:0.8;" x="57.6" xlink:href="#m7d6c7f10aa" y="105.176611"/>
      </g>
     </g>
     <g id="text_14">
      <!-- 100 -->
      <g transform="translate(31.5125 108.97583)scale(0.1 -0.1)">
       <use xlink:href="#DejaVuSans-49"/>
       <use x="63.623047" xlink:href="#DejaVuSans-48"/>
       <use x="127.246094" xlink:href="#DejaVuSans-48"/>
      </g>
     </g>
    </g>
    <g id="ytick_6">
     <g id="line2d_15">
      <g>
       <use style="stroke:#000000;stroke-width:0.8;" x="57.6" xlink:href="#m7d6c7f10aa" y="63.204738"/>
      </g>
     </g>
     <g id="text_15">
      <!-- 120 -->
      <g transform="translate(31.5125 67.003957)scale(0.1 -0.1)">
       <use xlink:href="#DejaVuSans-49"/>
       <use x="63.623047" xlink:href="#DejaVuSans-50"/>
       <use x="127.246094" xlink:href="#DejaVuSans-48"/>
      </g>
     </g>
    </g>
   </g>
   <g id="line2d_16">
    <path clip-path="url(#pd3ed1d4a6c)" d="M 308.023358 144.168481 
L 308.010767 139.952407 
L 308.241612 133.656626 
L 308.818725 125.29373 
L 309.559529 114.842734 
L 309.792473 108.553248 
L 309.78198 104.34347 
L 309.597303 100.114803 
L 309.188078 95.890334 
L 308.503936 91.709936 
L 307.486118 87.617678 
L 306.077962 83.653435 
L 305.209144 81.73532 
L 304.227002 79.863374 
L 303.129438 78.048091 
L 301.922746 76.295765 
L 300.615322 74.614792 
L 299.207166 73.011466 
L 297.706672 71.492084 
L 296.118036 70.065041 
L 294.445457 68.738729 
L 292.69523 67.517348 
L 290.871552 66.411389 
L 288.978621 65.42505 
L 287.026928 64.560429 
L 285.026969 63.819626 
L 282.982938 63.200541 
L 280.905331 62.705273 
L 278.804639 62.331723 
L 276.687158 62.084089 
L 274.565479 61.962371 
L 272.443801 61.964469 
L 270.334714 62.092483 
L 268.242417 62.344315 
L 266.173203 62.713667 
L 262.097734 63.771358 
L 258.116702 65.192106 
L 254.236403 66.904559 
L 250.463131 68.843659 
L 246.803184 70.944351 
L 243.250265 73.191945 
L 239.798078 75.575948 
L 236.43823 78.090063 
L 231.558999 82.083687 
L 228.421602 84.899999 
L 225.420613 87.854819 
L 222.587511 90.964935 
L 219.960072 94.249234 
L 217.578168 97.724505 
L 215.462786 101.384452 
L 213.634911 105.199696 
L 212.109233 109.140855 
L 210.900443 113.182746 
L 210.023231 117.293891 
L 209.467104 121.451205 
L 209.183794 125.646294 
L 209.133428 129.86027 
L 209.267738 134.08264 
L 209.712639 140.401506 
L 210.335922 148.791683 
L 210.445049 152.976279 
L 210.29395 157.158776 
L 209.804977 161.332879 
L 208.978132 165.473404 
L 207.832299 169.546775 
L 206.382171 173.52361 
L 204.648733 177.370332 
L 202.655069 181.065955 
L 200.464137 184.641959 
L 196.955288 189.873753 
L 192.216664 196.826394 
L 188.848421 202.161019 
L 185.717319 207.629954 
L 183.788712 211.354958 
L 182.002809 215.149215 
L 179.574736 220.956024 
L 177.367015 226.859368 
L 173.948406 236.787814 
L 169.388162 250.747659 
L 166.320018 260.814613 
L 164.727186 266.913126 
L 163.847875 271.007482 
L 163.161635 275.127022 
L 162.702043 279.275941 
L 162.513169 283.454241 
L 162.628592 287.666119 
L 163.090283 291.913672 
L 163.461734 294.050041 
L 163.461734 294.050041 
" style="fill:none;stroke:#fea952;stroke-linecap:square;"/>
   </g>
   <g id="line2d_17">
    <path clip-path="url(#pd3ed1d4a6c)" d="M 299.629686 144.277056 
L 299.618607 139.75958 
L 299.861897 133.160735 
L 300.449324 124.646698 
L 301.17569 114.42228 
L 301.398303 108.494607 
L 301.392118 104.618684 
L 301.231298 100.804355 
L 300.880581 97.094921 
L 300.314794 93.554788 
L 299.505926 90.221917 
L 298.431427 87.116964 
L 297.043582 84.206645 
L 295.296628 81.449413 
L 293.23444 78.909946 
L 290.90234 76.642429 
L 288.342398 74.694978 
L 285.578533 73.100005 
L 282.593683 71.853594 
L 279.43568 70.969996 
L 276.206372 70.464684 
L 272.952374 70.343424 
L 269.717489 70.608072 
L 266.431088 71.263539 
L 263.082304 72.28381 
L 259.675902 73.640791 
L 256.266327 75.269063 
L 252.874126 77.113069 
L 249.574394 79.098651 
L 246.349567 81.227884 
L 241.641116 84.677589 
L 237.102107 88.387613 
L 234.234799 90.955762 
L 231.537571 93.603588 
L 229.054064 96.317431 
L 226.793116 99.1252 
L 224.762276 102.066639 
L 222.960919 105.158513 
L 221.402173 108.383273 
L 220.100744 111.71015 
L 219.072878 115.100254 
L 218.322502 118.553902 
L 217.832598 122.146933 
L 217.575766 125.847099 
L 217.525796 129.676739 
L 217.647684 133.590683 
L 218.077613 139.69955 
L 218.724206 148.471969 
L 218.838055 153.127808 
L 218.649524 157.964942 
L 218.068063 162.811712 
L 217.101381 167.589615 
L 215.771466 172.273525 
L 214.096093 176.834341 
L 212.10075 181.234651 
L 209.863543 185.367516 
L 207.491009 189.234192 
L 203.861595 194.645383 
L 198.167983 203.074163 
L 195.05716 208.147423 
L 192.225178 213.27733 
L 190.506299 216.747032 
L 188.14903 222.119682 
L 185.975179 227.747176 
L 183.243217 235.513302 
L 178.660774 249.311953 
L 174.96898 261.125286 
L 173.379688 266.873768 
L 172.110066 272.491304 
L 171.490536 276.173409 
L 171.080136 279.798519 
L 170.907276 283.387223 
L 170.991284 286.937488 
L 171.360579 290.475713 
L 171.73203 292.612082 
L 171.73203 292.612082 
" style="fill:none;stroke:#ffffff;stroke-linecap:square;"/>
   </g>
   <g id="line2d_18">
    <path clip-path="url(#pd3ed1d4a6c)" d="M 316.417031 144.059907 
L 316.402926 140.145234 
L 316.621326 134.152517 
L 317.188126 125.940762 
L 317.943367 115.263187 
L 318.186642 108.61189 
L 318.171841 104.068255 
L 317.963309 99.425252 
L 317.495574 94.685747 
L 316.693078 89.865083 
L 316.139314 87.444631 
L 315.46631 85.013439 
L 314.668308 82.604313 
L 313.724496 80.189906 
L 312.642534 77.83529 
L 311.410423 75.520104 
L 310.043128 73.287166 
L 308.548865 71.142118 
L 306.922494 69.075378 
L 305.179893 67.112986 
L 303.316285 65.247265 
L 301.333732 63.487652 
L 299.249338 61.854817 
L 297.048062 60.339718 
L 294.750555 58.967005 
L 292.378708 57.750095 
L 289.942684 56.688715 
L 287.460255 55.785658 
L 284.929478 55.034972 
L 282.374982 54.440549 
L 279.779694 53.99417 
L 277.167943 53.703494 
L 274.557176 53.568 
L 271.935228 53.585515 
L 269.331598 53.75826 
L 266.767344 54.080557 
L 264.263635 54.539374 
L 261.818864 55.120754 
L 257.109048 56.593612 
L 252.649921 58.392916 
L 248.408024 60.432986 
L 244.367006 62.639265 
L 240.45597 65.001969 
L 236.675691 67.506432 
L 233.012433 70.14427 
L 229.470637 72.898038 
L 226.015892 75.77976 
L 222.608404 78.844237 
L 219.303655 82.10605 
L 216.120959 85.612438 
L 213.127029 89.373268 
L 210.394061 93.382371 
L 207.964653 97.610392 
L 205.867649 102.016118 
L 204.117723 106.571559 
L 202.728009 111.265238 
L 201.72396 116.03388 
L 201.10161 120.755478 
L 200.791821 125.445489 
L 200.741059 130.043801 
L 200.887791 134.574597 
L 201.347666 141.103462 
L 201.947638 149.111397 
L 202.052042 152.82475 
L 201.938375 156.35261 
L 201.541892 159.854046 
L 200.854882 163.357194 
L 199.893133 166.820024 
L 198.66825 170.212878 
L 197.196716 173.506012 
L 195.446594 176.764395 
L 193.437265 180.049726 
L 190.048982 185.102123 
L 185.175969 192.255383 
L 181.627492 197.880398 
L 178.296838 203.705418 
L 176.227557 207.708801 
L 174.30993 211.789879 
L 171.742046 217.937 
L 169.45337 224.059413 
L 165.988172 234.123195 
L 161.384446 248.216641 
L 158.842072 256.457851 
L 157.073613 262.877016 
L 156.043762 267.27367 
L 155.181468 271.789582 
L 154.545418 276.396496 
L 154.180864 281.126287 
L 154.144748 285.949176 
L 154.489128 290.869314 
L 155.191437 295.488 
L 155.191437 295.488 
" style="fill:none;stroke:#ffffff;stroke-linecap:square;"/>
   </g>
   <g id="patch_3">
    <path d="M 57.6 307.584 
L 57.6 41.472 
" style="fill:none;stroke:#000000;stroke-linecap:square;stroke-linejoin:miter;stroke-width:0.8;"/>
   </g>
   <g id="patch_4">
    <path d="M 414.72 307.584 
L 414.72 41.472 
" style="fill:none;stroke:#000000;stroke-linecap:square;stroke-linejoin:miter;stroke-width:0.8;"/>
   </g>
   <g id="patch_5">
    <path d="M 57.6 307.584 
L 414.72 307.584 
" style="fill:none;stroke:#000000;stroke-linecap:square;stroke-linejoin:miter;stroke-width:0.8;"/>
   </g>
   <g id="patch_6">
    <path d="M 57.6 41.472 
L 414.72 41.472 
" style="fill:none;stroke:#000000;stroke-linecap:square;stroke-linejoin:miter;stroke-width:0.8;"/>
   </g>
  </g>
 </g>
 <defs>
  <clipPath id="pd3ed1d4a6c">
   <rect height="266.112" width="357.12" x="57.6" y="41.472"/>
  </clipPath>
 </defs>
</svg>
