<?xml version="1.0" encoding="utf-8" standalone="no"?>
<!DOCTYPE svg PUBLIC "-//W3C//DTD SVG 1.1//EN"
  "http://www.w3.org/Graphics/SVG/1.1/DTD/svg11.dtd">
<!-- Created with matplotlib (https://matplotlib.org/) -->
<svg height="345.6pt" version="1.1" viewBox="0 0 460.8 345.6" width="460.8pt" xmlns="http://www.w3.org/2000/svg" xmlns:xlink="http://www.w3.org/1999/xlink">
 <metadata>
  <rdf:RDF xmlns:cc="http://creativecommons.org/ns#" xmlns:dc="http://purl.org/dc/elements/1.1/" xmlns:rdf="http://www.w3.org/1999/02/22-rdf-syntax-ns#">
   <cc:Work>
    <dc:type rdf:resource="http://purl.org/dc/dcmitype/StillImage"/>
    <dc:date>2021-01-22T10:35:25.149576</dc:date>
    <dc:format>image/svg+xml</dc:format>
    <dc:creator>
     <cc:Agent>
      <dc:title>Matplotlib v3.3.3, https://matplotlib.org/</dc:title>
     </cc:Agent>
    </dc:creator>
   </cc:Work>
  </rdf:RDF>
 </metadata>
 <defs>
  <style type="text/css">*{stroke-linecap:butt;stroke-linejoin:round;}</style>
 </defs>
 <g id="figure_1">
  <g id="patch_1">
   <path d="M 0 345.6 
L 460.8 345.6 
L 460.8 0 
L 0 0 
z
" style="fill:#ffffff;"/>
  </g>
  <g id="axes_1">
   <g id="patch_2">
    <path d="M 57.6 307.584 
L 414.72 307.584 
L 414.72 41.472 
L 57.6 41.472 
z
" style="fill:#7d9051;"/>
   </g>
   <g id="matplotlib.axis_1">
    <g id="xtick_1">
     <g id="line2d_1">
      <defs>
       <path d="M 0 0 
L 0 3.5 
" id="mae7ff938f8" style="stroke:#000000;stroke-width:0.8;"/>
      </defs>
      <g>
       <use style="stroke:#000000;stroke-width:0.8;" x="113.391673" xlink:href="#mae7ff938f8" y="307.584"/>
      </g>
     </g>
     <g id="text_1">
      <!-- 20 -->
      <g transform="translate(107.029173 322.182437)scale(0.1 -0.1)">
       <defs>
        <path d="M 19.1875 8.296875 
L 53.609375 8.296875 
L 53.609375 0 
L 7.328125 0 
L 7.328125 8.296875 
Q 12.9375 14.109375 22.625 23.890625 
Q 32.328125 33.6875 34.8125 36.53125 
Q 39.546875 41.84375 41.421875 45.53125 
Q 43.3125 49.21875 43.3125 52.78125 
Q 43.3125 58.59375 39.234375 62.25 
Q 35.15625 65.921875 28.609375 65.921875 
Q 23.96875 65.921875 18.8125 64.3125 
Q 13.671875 62.703125 7.8125 59.421875 
L 7.8125 69.390625 
Q 13.765625 71.78125 18.9375 73 
Q 24.125 74.21875 28.421875 74.21875 
Q 39.75 74.21875 46.484375 68.546875 
Q 53.21875 62.890625 53.21875 53.421875 
Q 53.21875 48.921875 51.53125 44.890625 
Q 49.859375 40.875 45.40625 35.40625 
Q 44.1875 33.984375 37.640625 27.21875 
Q 31.109375 20.453125 19.1875 8.296875 
z
" id="DejaVuSans-50"/>
        <path d="M 31.78125 66.40625 
Q 24.171875 66.40625 20.328125 58.90625 
Q 16.5 51.421875 16.5 36.375 
Q 16.5 21.390625 20.328125 13.890625 
Q 24.171875 6.390625 31.78125 6.390625 
Q 39.453125 6.390625 43.28125 13.890625 
Q 47.125 21.390625 47.125 36.375 
Q 47.125 51.421875 43.28125 58.90625 
Q 39.453125 66.40625 31.78125 66.40625 
z
M 31.78125 74.21875 
Q 44.046875 74.21875 50.515625 64.515625 
Q 56.984375 54.828125 56.984375 36.375 
Q 56.984375 17.96875 50.515625 8.265625 
Q 44.046875 -1.421875 31.78125 -1.421875 
Q 19.53125 -1.421875 13.0625 8.265625 
Q 6.59375 17.96875 6.59375 36.375 
Q 6.59375 54.828125 13.0625 64.515625 
Q 19.53125 74.21875 31.78125 74.21875 
z
" id="DejaVuSans-48"/>
       </defs>
       <use xlink:href="#DejaVuSans-50"/>
       <use x="63.623047" xlink:href="#DejaVuSans-48"/>
      </g>
     </g>
    </g>
    <g id="xtick_2">
     <g id="line2d_2">
      <g>
       <use style="stroke:#000000;stroke-width:0.8;" x="171.640737" xlink:href="#mae7ff938f8" y="307.584"/>
      </g>
     </g>
     <g id="text_2">
      <!-- 40 -->
      <g transform="translate(165.278237 322.182437)scale(0.1 -0.1)">
       <defs>
        <path d="M 37.796875 64.3125 
L 12.890625 25.390625 
L 37.796875 25.390625 
z
M 35.203125 72.90625 
L 47.609375 72.90625 
L 47.609375 25.390625 
L 58.015625 25.390625 
L 58.015625 17.1875 
L 47.609375 17.1875 
L 47.609375 0 
L 37.796875 0 
L 37.796875 17.1875 
L 4.890625 17.1875 
L 4.890625 26.703125 
z
" id="DejaVuSans-52"/>
       </defs>
       <use xlink:href="#DejaVuSans-52"/>
       <use x="63.623047" xlink:href="#DejaVuSans-48"/>
      </g>
     </g>
    </g>
    <g id="xtick_3">
     <g id="line2d_3">
      <g>
       <use style="stroke:#000000;stroke-width:0.8;" x="229.889801" xlink:href="#mae7ff938f8" y="307.584"/>
      </g>
     </g>
     <g id="text_3">
      <!-- 60 -->
      <g transform="translate(223.527301 322.182437)scale(0.1 -0.1)">
       <defs>
        <path d="M 33.015625 40.375 
Q 26.375 40.375 22.484375 35.828125 
Q 18.609375 31.296875 18.609375 23.390625 
Q 18.609375 15.53125 22.484375 10.953125 
Q 26.375 6.390625 33.015625 6.390625 
Q 39.65625 6.390625 43.53125 10.953125 
Q 47.40625 15.53125 47.40625 23.390625 
Q 47.40625 31.296875 43.53125 35.828125 
Q 39.65625 40.375 33.015625 40.375 
z
M 52.59375 71.296875 
L 52.59375 62.3125 
Q 48.875 64.0625 45.09375 64.984375 
Q 41.3125 65.921875 37.59375 65.921875 
Q 27.828125 65.921875 22.671875 59.328125 
Q 17.53125 52.734375 16.796875 39.40625 
Q 19.671875 43.65625 24.015625 45.921875 
Q 28.375 48.1875 33.59375 48.1875 
Q 44.578125 48.1875 50.953125 41.515625 
Q 57.328125 34.859375 57.328125 23.390625 
Q 57.328125 12.15625 50.6875 5.359375 
Q 44.046875 -1.421875 33.015625 -1.421875 
Q 20.359375 -1.421875 13.671875 8.265625 
Q 6.984375 17.96875 6.984375 36.375 
Q 6.984375 53.65625 15.1875 63.9375 
Q 23.390625 74.21875 37.203125 74.21875 
Q 40.921875 74.21875 44.703125 73.484375 
Q 48.484375 72.75 52.59375 71.296875 
z
" id="DejaVuSans-54"/>
       </defs>
       <use xlink:href="#DejaVuSans-54"/>
       <use x="63.623047" xlink:href="#DejaVuSans-48"/>
      </g>
     </g>
    </g>
    <g id="xtick_4">
     <g id="line2d_4">
      <g>
       <use style="stroke:#000000;stroke-width:0.8;" x="288.138865" xlink:href="#mae7ff938f8" y="307.584"/>
      </g>
     </g>
     <g id="text_4">
      <!-- 80 -->
      <g transform="translate(281.776365 322.182437)scale(0.1 -0.1)">
       <defs>
        <path d="M 31.78125 34.625 
Q 24.75 34.625 20.71875 30.859375 
Q 16.703125 27.09375 16.703125 20.515625 
Q 16.703125 13.921875 20.71875 10.15625 
Q 24.75 6.390625 31.78125 6.390625 
Q 38.8125 6.390625 42.859375 10.171875 
Q 46.921875 13.96875 46.921875 20.515625 
Q 46.921875 27.09375 42.890625 30.859375 
Q 38.875 34.625 31.78125 34.625 
z
M 21.921875 38.8125 
Q 15.578125 40.375 12.03125 44.71875 
Q 8.5 49.078125 8.5 55.328125 
Q 8.5 64.0625 14.71875 69.140625 
Q 20.953125 74.21875 31.78125 74.21875 
Q 42.671875 74.21875 48.875 69.140625 
Q 55.078125 64.0625 55.078125 55.328125 
Q 55.078125 49.078125 51.53125 44.71875 
Q 48 40.375 41.703125 38.8125 
Q 48.828125 37.15625 52.796875 32.3125 
Q 56.78125 27.484375 56.78125 20.515625 
Q 56.78125 9.90625 50.3125 4.234375 
Q 43.84375 -1.421875 31.78125 -1.421875 
Q 19.734375 -1.421875 13.25 4.234375 
Q 6.78125 9.90625 6.78125 20.515625 
Q 6.78125 27.484375 10.78125 32.3125 
Q 14.796875 37.15625 21.921875 38.8125 
z
M 18.3125 54.390625 
Q 18.3125 48.734375 21.84375 45.5625 
Q 25.390625 42.390625 31.78125 42.390625 
Q 38.140625 42.390625 41.71875 45.5625 
Q 45.3125 48.734375 45.3125 54.390625 
Q 45.3125 60.0625 41.71875 63.234375 
Q 38.140625 66.40625 31.78125 66.40625 
Q 25.390625 66.40625 21.84375 63.234375 
Q 18.3125 60.0625 18.3125 54.390625 
z
" id="DejaVuSans-56"/>
       </defs>
       <use xlink:href="#DejaVuSans-56"/>
       <use x="63.623047" xlink:href="#DejaVuSans-48"/>
      </g>
     </g>
    </g>
    <g id="xtick_5">
     <g id="line2d_5">
      <g>
       <use style="stroke:#000000;stroke-width:0.8;" x="346.387929" xlink:href="#mae7ff938f8" y="307.584"/>
      </g>
     </g>
     <g id="text_5">
      <!-- 100 -->
      <g transform="translate(336.844179 322.182437)scale(0.1 -0.1)">
       <defs>
        <path d="M 12.40625 8.296875 
L 28.515625 8.296875 
L 28.515625 63.921875 
L 10.984375 60.40625 
L 10.984375 69.390625 
L 28.421875 72.90625 
L 38.28125 72.90625 
L 38.28125 8.296875 
L 54.390625 8.296875 
L 54.390625 0 
L 12.40625 0 
z
" id="DejaVuSans-49"/>
       </defs>
       <use xlink:href="#DejaVuSans-49"/>
       <use x="63.623047" xlink:href="#DejaVuSans-48"/>
       <use x="127.246094" xlink:href="#DejaVuSans-48"/>
      </g>
     </g>
    </g>
    <g id="xtick_6">
     <g id="line2d_6">
      <g>
       <use style="stroke:#000000;stroke-width:0.8;" x="404.636993" xlink:href="#mae7ff938f8" y="307.584"/>
      </g>
     </g>
     <g id="text_6">
      <!-- 120 -->
      <g transform="translate(395.093243 322.182437)scale(0.1 -0.1)">
       <use xlink:href="#DejaVuSans-49"/>
       <use x="63.623047" xlink:href="#DejaVuSans-50"/>
       <use x="127.246094" xlink:href="#DejaVuSans-48"/>
      </g>
     </g>
    </g>
   </g>
   <g id="matplotlib.axis_2">
    <g id="ytick_1">
     <g id="line2d_7">
      <defs>
       <path d="M 0 0 
L -3.5 0 
" id="md46ec66922" style="stroke:#000000;stroke-width:0.8;"/>
      </defs>
      <g>
       <use style="stroke:#000000;stroke-width:0.8;" x="57.6" xlink:href="#md46ec66922" y="255.801437"/>
      </g>
     </g>
     <g id="text_7">
      <!-- 20 -->
      <g transform="translate(37.875 259.600656)scale(0.1 -0.1)">
       <use xlink:href="#DejaVuSans-50"/>
       <use x="63.623047" xlink:href="#DejaVuSans-48"/>
      </g>
     </g>
    </g>
    <g id="ytick_2">
     <g id="line2d_8">
      <g>
       <use style="stroke:#000000;stroke-width:0.8;" x="57.6" xlink:href="#md46ec66922" y="197.552373"/>
      </g>
     </g>
     <g id="text_8">
      <!-- 40 -->
      <g transform="translate(37.875 201.351592)scale(0.1 -0.1)">
       <use xlink:href="#DejaVuSans-52"/>
       <use x="63.623047" xlink:href="#DejaVuSans-48"/>
      </g>
     </g>
    </g>
    <g id="ytick_3">
     <g id="line2d_9">
      <g>
       <use style="stroke:#000000;stroke-width:0.8;" x="57.6" xlink:href="#md46ec66922" y="139.303309"/>
      </g>
     </g>
     <g id="text_9">
      <!-- 60 -->
      <g transform="translate(37.875 143.102528)scale(0.1 -0.1)">
       <use xlink:href="#DejaVuSans-54"/>
       <use x="63.623047" xlink:href="#DejaVuSans-48"/>
      </g>
     </g>
    </g>
    <g id="ytick_4">
     <g id="line2d_10">
      <g>
       <use style="stroke:#000000;stroke-width:0.8;" x="57.6" xlink:href="#md46ec66922" y="81.054245"/>
      </g>
     </g>
     <g id="text_10">
      <!-- 80 -->
      <g transform="translate(37.875 84.853464)scale(0.1 -0.1)">
       <use xlink:href="#DejaVuSans-56"/>
       <use x="63.623047" xlink:href="#DejaVuSans-48"/>
      </g>
     </g>
    </g>
   </g>
   <g id="line2d_11">
    <path clip-path="url(#pdb76a6d18e)" d="M 84.267141 215.32125 
L 84.080744 206.583891 
L 84.104044 194.934078 
L 84.380727 183.284265 
L 85.001079 168.733649 
L 86.017525 151.293879 
L 86.742726 142.591469 
L 87.430065 136.807337 
L 88.36205 131.04068 
L 89.594018 125.297322 
L 91.181305 119.615126 
L 92.119115 116.822083 
L 93.161773 114.069815 
L 94.312192 111.367058 
L 95.579109 108.728376 
L 96.962525 106.159592 
L 98.471175 103.669444 
L 100.107974 101.269583 
L 101.875833 98.96292 
L 103.766015 96.752368 
L 105.769783 94.635015 
L 107.878399 92.605035 
L 110.077301 90.662428 
L 114.705189 87.024774 
L 119.577724 83.701665 
L 124.60753 80.666889 
L 129.750923 77.902971 
L 135.004988 75.395349 
L 140.366815 73.126548 
L 145.836402 71.082006 
L 151.405012 69.244248 
L 157.066821 67.656961 
L 162.801442 66.395868 
L 165.690595 65.918226 
L 168.588486 65.554169 
L 171.495114 65.318261 
L 174.407568 65.216325 
L 177.322933 65.262924 
L 180.238299 65.466796 
L 183.14784 65.825028 
L 186.039906 66.337619 
L 188.90576 66.998746 
L 191.742489 67.805496 
L 194.535532 68.757868 
L 197.279063 69.850038 
L 199.961432 71.082006 
L 202.579727 72.447946 
L 205.122299 73.944947 
L 207.583322 75.570096 
L 209.954059 77.317568 
L 212.237422 79.181538 
L 214.424675 81.153269 
L 216.515816 83.226935 
L 218.505021 85.393801 
L 220.389379 87.648039 
L 222.165975 89.983827 
L 223.828986 92.392426 
L 225.381323 94.870923 
L 226.81425 97.40767 
L 229.374297 102.635524 
L 231.584849 108.029387 
L 233.536192 113.542661 
L 236.160313 121.927614 
L 240.392107 135.878264 
L 242.244428 141.394451 
L 244.294795 146.843651 
L 246.613107 152.214214 
L 249.237228 157.46828 
L 252.18463 162.547598 
L 255.466965 167.396833 
L 257.240649 169.715146 
L 259.098794 171.957735 
L 261.05305 174.11295 
L 263.09468 176.177879 
L 265.220771 178.158348 
L 269.691386 181.886288 
L 274.392086 185.357932 
L 279.261708 188.628617 
L 286.7205 193.285629 
L 304.113671 203.921909 
L 308.957081 207.137257 
L 313.698554 210.51279 
L 318.332267 214.051421 
L 322.852395 217.738586 
L 327.258936 221.562638 
L 331.54898 225.514837 
L 335.722525 229.580621 
L 341.789165 235.862783 
L 347.678146 242.319692 
L 355.355372 251.121125 
L 363.050074 259.899259 
L 367.01101 264.160178 
L 371.100094 268.272562 
L 375.363926 272.189812 
L 379.843279 275.862415 
L 384.58184 279.240861 
L 387.060338 280.804848 
L 389.617472 282.278549 
L 392.261979 283.653227 
L 394.996773 284.925969 
L 394.996773 284.925969 
" style="fill:none;stroke:#fea952;stroke-linecap:square;"/>
   </g>
   <g id="line2d_12">
    <path clip-path="url(#pdb76a6d18e)" d="M 72.621892 215.647317 
L 72.431217 206.665437 
L 72.455722 194.747705 
L 72.738057 182.876364 
L 73.222545 171.072464 
L 74.022444 156.393487 
L 74.616692 147.434276 
L 75.16247 141.320323 
L 75.908036 135.08659 
L 76.937579 128.760415 
L 78.322436 122.352909 
L 79.173856 119.119841 
L 80.13741 115.906957 
L 81.224856 112.694946 
L 82.442587 109.50723 
L 83.81016 106.324692 
L 85.322159 103.204508 
L 86.998691 100.123024 
L 88.84677 97.105226 
L 90.861481 94.18294 
L 93.021584 91.391896 
L 95.304522 88.744793 
L 97.690101 86.242347 
L 100.165278 83.87429 
L 102.712779 81.635694 
L 105.32267 79.516295 
L 107.998235 77.499288 
L 113.430313 73.805834 
L 118.965658 70.474371 
L 124.611016 67.448331 
L 130.342862 64.71908 
L 136.170759 62.258648 
L 142.082972 60.053411 
L 148.117827 58.067819 
L 154.377329 56.321848 
L 157.613221 55.560598 
L 160.901257 54.902069 
L 164.238465 54.35927 
L 167.646059 53.942539 
L 171.08762 53.675577 
L 174.593755 53.568 
L 178.135621 53.641492 
L 181.66191 53.904293 
L 185.180973 54.353999 
L 188.658634 54.98595 
L 192.092532 55.793273 
L 195.502282 56.779069 
L 198.844328 57.934171 
L 202.141322 59.263416 
L 205.349847 60.753253 
L 208.490437 62.40894 
L 211.541912 64.223491 
L 214.495552 66.192505 
L 217.321127 68.29291 
L 220.037736 70.528605 
L 222.6277 72.881116 
L 225.097776 75.348604 
L 227.443286 77.92215 
L 229.661845 80.595415 
L 231.752699 83.364698 
L 233.702137 86.208654 
L 235.524736 89.141235 
L 237.179972 92.09072 
L 238.6983 95.068391 
L 241.355663 101.046564 
L 243.605809 106.994547 
L 245.564772 112.865588 
L 248.989885 124.185274 
L 251.462613 132.250312 
L 253.185675 137.393547 
L 255.051902 142.371203 
L 257.110445 147.162082 
L 259.405698 151.783181 
L 261.946782 156.190041 
L 264.719435 160.317996 
L 267.728977 164.132258 
L 271.035235 167.65346 
L 274.734191 170.987616 
L 278.819361 174.19261 
L 283.212776 177.282944 
L 287.888999 180.315816 
L 297.716674 186.314326 
L 307.909082 192.530922 
L 313.064124 195.853804 
L 318.175621 199.369987 
L 323.171947 203.060482 
L 328.040864 206.907902 
L 332.775218 210.895388 
L 337.373419 215.013235 
L 341.83396 219.243278 
L 348.264344 225.750159 
L 354.406323 232.372694 
L 362.258777 241.292699 
L 371.641168 252.030889 
L 375.353154 256.028341 
L 379.088118 259.792608 
L 382.887456 263.295171 
L 386.769465 266.495127 
L 390.798838 269.388598 
L 394.990711 271.941894 
L 397.177429 273.091197 
L 399.912223 274.363939 
L 399.912223 274.363939 
" style="fill:none;stroke:#ffffff;stroke-linecap:square;"/>
   </g>
   <g id="line2d_13">
    <path clip-path="url(#pdb76a6d18e)" d="M 95.91239 214.995183 
L 95.730271 206.502344 
L 95.752366 195.120451 
L 96.023396 183.692166 
L 96.634499 169.351456 
L 97.637078 152.133004 
L 98.322982 143.862615 
L 98.952095 138.528084 
L 99.786521 133.320944 
L 100.8656 128.241735 
L 102.2252 123.323295 
L 103.88096 118.6324 
L 105.836059 114.252243 
L 106.926358 112.19616 
L 108.095581 110.233663 
L 109.354467 108.356226 
L 110.730082 106.533945 
L 112.227509 104.759944 
L 113.849465 103.027683 
L 117.441824 99.689163 
L 121.412144 96.550261 
L 125.725134 93.597497 
L 130.249402 90.859407 
L 134.890829 88.357611 
L 139.667114 86.071618 
L 144.56287 83.994448 
L 149.589831 82.110601 
L 154.692197 80.420676 
L 159.756313 78.992073 
L 164.701626 77.889668 
L 169.530913 77.1658 
L 174.221381 76.86465 
L 176.510246 76.884356 
L 178.814687 77.029299 
L 181.114707 77.296057 
L 183.421177 77.689289 
L 185.718988 78.204219 
L 187.982696 78.831923 
L 190.226735 79.581565 
L 192.416803 80.43666 
L 194.573017 81.410758 
L 196.669018 82.486953 
L 198.702686 83.666403 
L 200.671092 84.947687 
L 202.586991 86.342226 
L 204.437109 87.834471 
L 206.221649 89.425421 
L 207.933856 91.105267 
L 209.566757 92.865451 
L 212.579251 96.602955 
L 215.237911 100.600612 
L 217.586358 104.925291 
L 219.676294 109.583397 
L 221.567657 114.557113 
L 223.319159 119.794169 
L 226.668412 130.865423 
L 229.321602 139.506217 
L 231.30318 145.395355 
L 233.537687 151.316098 
L 236.11577 157.266347 
L 239.068757 163.153379 
L 242.422479 168.905156 
L 244.253851 171.70374 
L 246.214495 174.47567 
L 248.270042 177.147934 
L 250.468611 179.783211 
L 252.768783 182.303741 
L 255.154125 184.702299 
L 257.6123 186.98044 
L 262.651414 191.168363 
L 267.804911 194.96664 
L 272.992996 198.448056 
L 280.696023 203.256778 
L 297.74619 213.67759 
L 302.281052 216.684444 
L 306.701217 219.827049 
L 311.039094 223.1359 
L 315.285166 226.59608 
L 319.425896 230.185955 
L 323.476023 233.913974 
L 329.390794 239.748052 
L 335.16213 245.848027 
L 340.84104 252.171374 
L 356.542529 270.040659 
L 360.859212 274.535711 
L 365.43485 278.935562 
L 370.326922 283.180521 
L 372.917092 285.229703 
L 375.580593 287.190452 
L 378.364843 289.093123 
L 381.24331 290.898426 
L 384.244233 292.615204 
L 387.34653 294.215258 
L 390.081323 295.488 
L 390.081323 295.488 
" style="fill:none;stroke:#ffffff;stroke-linecap:square;"/>
   </g>
   <g id="patch_3">
    <path d="M 57.6 307.584 
L 57.6 41.472 
" style="fill:none;stroke:#000000;stroke-linecap:square;stroke-linejoin:miter;stroke-width:0.8;"/>
   </g>
   <g id="patch_4">
    <path d="M 414.72 307.584 
L 414.72 41.472 
" style="fill:none;stroke:#000000;stroke-linecap:square;stroke-linejoin:miter;stroke-width:0.8;"/>
   </g>
   <g id="patch_5">
    <path d="M 57.6 307.584 
L 414.72 307.584 
" style="fill:none;stroke:#000000;stroke-linecap:square;stroke-linejoin:miter;stroke-width:0.8;"/>
   </g>
   <g id="patch_6">
    <path d="M 57.6 41.472 
L 414.72 41.472 
" style="fill:none;stroke:#000000;stroke-linecap:square;stroke-linejoin:miter;stroke-width:0.8;"/>
   </g>
  </g>
 </g>
 <defs>
  <clipPath id="pdb76a6d18e">
   <rect height="266.112" width="357.12" x="57.6" y="41.472"/>
  </clipPath>
 </defs>
</svg>
