<?xml version="1.0" encoding="utf-8" standalone="no"?>
<!DOCTYPE svg PUBLIC "-//W3C//DTD SVG 1.1//EN"
  "http://www.w3.org/Graphics/SVG/1.1/DTD/svg11.dtd">
<!-- Created with matplotlib (https://matplotlib.org/) -->
<svg height="345.6pt" version="1.1" viewBox="0 0 460.8 345.6" width="460.8pt" xmlns="http://www.w3.org/2000/svg" xmlns:xlink="http://www.w3.org/1999/xlink">
 <metadata>
  <rdf:RDF xmlns:cc="http://creativecommons.org/ns#" xmlns:dc="http://purl.org/dc/elements/1.1/" xmlns:rdf="http://www.w3.org/1999/02/22-rdf-syntax-ns#">
   <cc:Work>
    <dc:type rdf:resource="http://purl.org/dc/dcmitype/StillImage"/>
    <dc:date>2021-01-25T09:50:32.917338</dc:date>
    <dc:format>image/svg+xml</dc:format>
    <dc:creator>
     <cc:Agent>
      <dc:title>Matplotlib v3.3.3, https://matplotlib.org/</dc:title>
     </cc:Agent>
    </dc:creator>
   </cc:Work>
  </rdf:RDF>
 </metadata>
 <defs>
  <style type="text/css">*{stroke-linecap:butt;stroke-linejoin:round;}</style>
 </defs>
 <g id="figure_1">
  <g id="patch_1">
   <path d="M 0 345.6 
L 460.8 345.6 
L 460.8 0 
L 0 0 
z
" style="fill:#ffffff;"/>
  </g>
  <g id="axes_1">
   <g id="patch_2">
    <path d="M 57.6 307.584 
L 414.72 307.584 
L 414.72 41.472 
L 57.6 41.472 
z
" style="fill:#7d9051;"/>
   </g>
   <g id="matplotlib.axis_1">
    <g id="xtick_1">
     <g id="line2d_1">
      <defs>
       <path d="M 0 0 
L 0 3.5 
" id="m2051d65930" style="stroke:#000000;stroke-width:0.8;"/>
      </defs>
      <g>
       <use style="stroke:#000000;stroke-width:0.8;" x="115.535501" xlink:href="#m2051d65930" y="307.584"/>
      </g>
     </g>
     <g id="text_1">
      <!-- 20 -->
      <g transform="translate(109.173001 322.182437)scale(0.1 -0.1)">
       <defs>
        <path d="M 19.1875 8.296875 
L 53.609375 8.296875 
L 53.609375 0 
L 7.328125 0 
L 7.328125 8.296875 
Q 12.9375 14.109375 22.625 23.890625 
Q 32.328125 33.6875 34.8125 36.53125 
Q 39.546875 41.84375 41.421875 45.53125 
Q 43.3125 49.21875 43.3125 52.78125 
Q 43.3125 58.59375 39.234375 62.25 
Q 35.15625 65.921875 28.609375 65.921875 
Q 23.96875 65.921875 18.8125 64.3125 
Q 13.671875 62.703125 7.8125 59.421875 
L 7.8125 69.390625 
Q 13.765625 71.78125 18.9375 73 
Q 24.125 74.21875 28.421875 74.21875 
Q 39.75 74.21875 46.484375 68.546875 
Q 53.21875 62.890625 53.21875 53.421875 
Q 53.21875 48.921875 51.53125 44.890625 
Q 49.859375 40.875 45.40625 35.40625 
Q 44.1875 33.984375 37.640625 27.21875 
Q 31.109375 20.453125 19.1875 8.296875 
z
" id="DejaVuSans-50"/>
        <path d="M 31.78125 66.40625 
Q 24.171875 66.40625 20.328125 58.90625 
Q 16.5 51.421875 16.5 36.375 
Q 16.5 21.390625 20.328125 13.890625 
Q 24.171875 6.390625 31.78125 6.390625 
Q 39.453125 6.390625 43.28125 13.890625 
Q 47.125 21.390625 47.125 36.375 
Q 47.125 51.421875 43.28125 58.90625 
Q 39.453125 66.40625 31.78125 66.40625 
z
M 31.78125 74.21875 
Q 44.046875 74.21875 50.515625 64.515625 
Q 56.984375 54.828125 56.984375 36.375 
Q 56.984375 17.96875 50.515625 8.265625 
Q 44.046875 -1.421875 31.78125 -1.421875 
Q 19.53125 -1.421875 13.0625 8.265625 
Q 6.59375 17.96875 6.59375 36.375 
Q 6.59375 54.828125 13.0625 64.515625 
Q 19.53125 74.21875 31.78125 74.21875 
z
" id="DejaVuSans-48"/>
       </defs>
       <use xlink:href="#DejaVuSans-50"/>
       <use x="63.623047" xlink:href="#DejaVuSans-48"/>
      </g>
     </g>
    </g>
    <g id="xtick_2">
     <g id="line2d_2">
      <g>
       <use style="stroke:#000000;stroke-width:0.8;" x="175.144962" xlink:href="#m2051d65930" y="307.584"/>
      </g>
     </g>
     <g id="text_2">
      <!-- 40 -->
      <g transform="translate(168.782462 322.182437)scale(0.1 -0.1)">
       <defs>
        <path d="M 37.796875 64.3125 
L 12.890625 25.390625 
L 37.796875 25.390625 
z
M 35.203125 72.90625 
L 47.609375 72.90625 
L 47.609375 25.390625 
L 58.015625 25.390625 
L 58.015625 17.1875 
L 47.609375 17.1875 
L 47.609375 0 
L 37.796875 0 
L 37.796875 17.1875 
L 4.890625 17.1875 
L 4.890625 26.703125 
z
" id="DejaVuSans-52"/>
       </defs>
       <use xlink:href="#DejaVuSans-52"/>
       <use x="63.623047" xlink:href="#DejaVuSans-48"/>
      </g>
     </g>
    </g>
    <g id="xtick_3">
     <g id="line2d_3">
      <g>
       <use style="stroke:#000000;stroke-width:0.8;" x="234.754423" xlink:href="#m2051d65930" y="307.584"/>
      </g>
     </g>
     <g id="text_3">
      <!-- 60 -->
      <g transform="translate(228.391923 322.182437)scale(0.1 -0.1)">
       <defs>
        <path d="M 33.015625 40.375 
Q 26.375 40.375 22.484375 35.828125 
Q 18.609375 31.296875 18.609375 23.390625 
Q 18.609375 15.53125 22.484375 10.953125 
Q 26.375 6.390625 33.015625 6.390625 
Q 39.65625 6.390625 43.53125 10.953125 
Q 47.40625 15.53125 47.40625 23.390625 
Q 47.40625 31.296875 43.53125 35.828125 
Q 39.65625 40.375 33.015625 40.375 
z
M 52.59375 71.296875 
L 52.59375 62.3125 
Q 48.875 64.0625 45.09375 64.984375 
Q 41.3125 65.921875 37.59375 65.921875 
Q 27.828125 65.921875 22.671875 59.328125 
Q 17.53125 52.734375 16.796875 39.40625 
Q 19.671875 43.65625 24.015625 45.921875 
Q 28.375 48.1875 33.59375 48.1875 
Q 44.578125 48.1875 50.953125 41.515625 
Q 57.328125 34.859375 57.328125 23.390625 
Q 57.328125 12.15625 50.6875 5.359375 
Q 44.046875 -1.421875 33.015625 -1.421875 
Q 20.359375 -1.421875 13.671875 8.265625 
Q 6.984375 17.96875 6.984375 36.375 
Q 6.984375 53.65625 15.1875 63.9375 
Q 23.390625 74.21875 37.203125 74.21875 
Q 40.921875 74.21875 44.703125 73.484375 
Q 48.484375 72.75 52.59375 71.296875 
z
" id="DejaVuSans-54"/>
       </defs>
       <use xlink:href="#DejaVuSans-54"/>
       <use x="63.623047" xlink:href="#DejaVuSans-48"/>
      </g>
     </g>
    </g>
    <g id="xtick_4">
     <g id="line2d_4">
      <g>
       <use style="stroke:#000000;stroke-width:0.8;" x="294.363884" xlink:href="#m2051d65930" y="307.584"/>
      </g>
     </g>
     <g id="text_4">
      <!-- 80 -->
      <g transform="translate(288.001384 322.182437)scale(0.1 -0.1)">
       <defs>
        <path d="M 31.78125 34.625 
Q 24.75 34.625 20.71875 30.859375 
Q 16.703125 27.09375 16.703125 20.515625 
Q 16.703125 13.921875 20.71875 10.15625 
Q 24.75 6.390625 31.78125 6.390625 
Q 38.8125 6.390625 42.859375 10.171875 
Q 46.921875 13.96875 46.921875 20.515625 
Q 46.921875 27.09375 42.890625 30.859375 
Q 38.875 34.625 31.78125 34.625 
z
M 21.921875 38.8125 
Q 15.578125 40.375 12.03125 44.71875 
Q 8.5 49.078125 8.5 55.328125 
Q 8.5 64.0625 14.71875 69.140625 
Q 20.953125 74.21875 31.78125 74.21875 
Q 42.671875 74.21875 48.875 69.140625 
Q 55.078125 64.0625 55.078125 55.328125 
Q 55.078125 49.078125 51.53125 44.71875 
Q 48 40.375 41.703125 38.8125 
Q 48.828125 37.15625 52.796875 32.3125 
Q 56.78125 27.484375 56.78125 20.515625 
Q 56.78125 9.90625 50.3125 4.234375 
Q 43.84375 -1.421875 31.78125 -1.421875 
Q 19.734375 -1.421875 13.25 4.234375 
Q 6.78125 9.90625 6.78125 20.515625 
Q 6.78125 27.484375 10.78125 32.3125 
Q 14.796875 37.15625 21.921875 38.8125 
z
M 18.3125 54.390625 
Q 18.3125 48.734375 21.84375 45.5625 
Q 25.390625 42.390625 31.78125 42.390625 
Q 38.140625 42.390625 41.71875 45.5625 
Q 45.3125 48.734375 45.3125 54.390625 
Q 45.3125 60.0625 41.71875 63.234375 
Q 38.140625 66.40625 31.78125 66.40625 
Q 25.390625 66.40625 21.84375 63.234375 
Q 18.3125 60.0625 18.3125 54.390625 
z
" id="DejaVuSans-56"/>
       </defs>
       <use xlink:href="#DejaVuSans-56"/>
       <use x="63.623047" xlink:href="#DejaVuSans-48"/>
      </g>
     </g>
    </g>
    <g id="xtick_5">
     <g id="line2d_5">
      <g>
       <use style="stroke:#000000;stroke-width:0.8;" x="353.973345" xlink:href="#m2051d65930" y="307.584"/>
      </g>
     </g>
     <g id="text_5">
      <!-- 100 -->
      <g transform="translate(344.429595 322.182437)scale(0.1 -0.1)">
       <defs>
        <path d="M 12.40625 8.296875 
L 28.515625 8.296875 
L 28.515625 63.921875 
L 10.984375 60.40625 
L 10.984375 69.390625 
L 28.421875 72.90625 
L 38.28125 72.90625 
L 38.28125 8.296875 
L 54.390625 8.296875 
L 54.390625 0 
L 12.40625 0 
z
" id="DejaVuSans-49"/>
       </defs>
       <use xlink:href="#DejaVuSans-49"/>
       <use x="63.623047" xlink:href="#DejaVuSans-48"/>
       <use x="127.246094" xlink:href="#DejaVuSans-48"/>
      </g>
     </g>
    </g>
    <g id="xtick_6">
     <g id="line2d_6">
      <g>
       <use style="stroke:#000000;stroke-width:0.8;" x="413.582807" xlink:href="#m2051d65930" y="307.584"/>
      </g>
     </g>
     <g id="text_6">
      <!-- 120 -->
      <g transform="translate(404.039057 322.182437)scale(0.1 -0.1)">
       <use xlink:href="#DejaVuSans-49"/>
       <use x="63.623047" xlink:href="#DejaVuSans-50"/>
       <use x="127.246094" xlink:href="#DejaVuSans-48"/>
      </g>
     </g>
    </g>
   </g>
   <g id="matplotlib.axis_2">
    <g id="ytick_1">
     <g id="line2d_7">
      <defs>
       <path d="M 0 0 
L -3.5 0 
" id="m1ddca270e7" style="stroke:#000000;stroke-width:0.8;"/>
      </defs>
      <g>
       <use style="stroke:#000000;stroke-width:0.8;" x="57.6" xlink:href="#m1ddca270e7" y="287.423785"/>
      </g>
     </g>
     <g id="text_7">
      <!-- 10 -->
      <g transform="translate(37.875 291.223004)scale(0.1 -0.1)">
       <use xlink:href="#DejaVuSans-49"/>
       <use x="63.623047" xlink:href="#DejaVuSans-48"/>
      </g>
     </g>
    </g>
    <g id="ytick_2">
     <g id="line2d_8">
      <g>
       <use style="stroke:#000000;stroke-width:0.8;" x="57.6" xlink:href="#m1ddca270e7" y="257.619054"/>
      </g>
     </g>
     <g id="text_8">
      <!-- 20 -->
      <g transform="translate(37.875 261.418273)scale(0.1 -0.1)">
       <use xlink:href="#DejaVuSans-50"/>
       <use x="63.623047" xlink:href="#DejaVuSans-48"/>
      </g>
     </g>
    </g>
    <g id="ytick_3">
     <g id="line2d_9">
      <g>
       <use style="stroke:#000000;stroke-width:0.8;" x="57.6" xlink:href="#m1ddca270e7" y="227.814324"/>
      </g>
     </g>
     <g id="text_9">
      <!-- 30 -->
      <g transform="translate(37.875 231.613543)scale(0.1 -0.1)">
       <defs>
        <path d="M 40.578125 39.3125 
Q 47.65625 37.796875 51.625 33 
Q 55.609375 28.21875 55.609375 21.1875 
Q 55.609375 10.40625 48.1875 4.484375 
Q 40.765625 -1.421875 27.09375 -1.421875 
Q 22.515625 -1.421875 17.65625 -0.515625 
Q 12.796875 0.390625 7.625 2.203125 
L 7.625 11.71875 
Q 11.71875 9.328125 16.59375 8.109375 
Q 21.484375 6.890625 26.8125 6.890625 
Q 36.078125 6.890625 40.9375 10.546875 
Q 45.796875 14.203125 45.796875 21.1875 
Q 45.796875 27.640625 41.28125 31.265625 
Q 36.765625 34.90625 28.71875 34.90625 
L 20.21875 34.90625 
L 20.21875 43.015625 
L 29.109375 43.015625 
Q 36.375 43.015625 40.234375 45.921875 
Q 44.09375 48.828125 44.09375 54.296875 
Q 44.09375 59.90625 40.109375 62.90625 
Q 36.140625 65.921875 28.71875 65.921875 
Q 24.65625 65.921875 20.015625 65.03125 
Q 15.375 64.15625 9.8125 62.3125 
L 9.8125 71.09375 
Q 15.4375 72.65625 20.34375 73.4375 
Q 25.25 74.21875 29.59375 74.21875 
Q 40.828125 74.21875 47.359375 69.109375 
Q 53.90625 64.015625 53.90625 55.328125 
Q 53.90625 49.265625 50.4375 45.09375 
Q 46.96875 40.921875 40.578125 39.3125 
z
" id="DejaVuSans-51"/>
       </defs>
       <use xlink:href="#DejaVuSans-51"/>
       <use x="63.623047" xlink:href="#DejaVuSans-48"/>
      </g>
     </g>
    </g>
    <g id="ytick_4">
     <g id="line2d_10">
      <g>
       <use style="stroke:#000000;stroke-width:0.8;" x="57.6" xlink:href="#m1ddca270e7" y="198.009593"/>
      </g>
     </g>
     <g id="text_10">
      <!-- 40 -->
      <g transform="translate(37.875 201.808812)scale(0.1 -0.1)">
       <use xlink:href="#DejaVuSans-52"/>
       <use x="63.623047" xlink:href="#DejaVuSans-48"/>
      </g>
     </g>
    </g>
    <g id="ytick_5">
     <g id="line2d_11">
      <g>
       <use style="stroke:#000000;stroke-width:0.8;" x="57.6" xlink:href="#m1ddca270e7" y="168.204863"/>
      </g>
     </g>
     <g id="text_11">
      <!-- 50 -->
      <g transform="translate(37.875 172.004081)scale(0.1 -0.1)">
       <defs>
        <path d="M 10.796875 72.90625 
L 49.515625 72.90625 
L 49.515625 64.59375 
L 19.828125 64.59375 
L 19.828125 46.734375 
Q 21.96875 47.46875 24.109375 47.828125 
Q 26.265625 48.1875 28.421875 48.1875 
Q 40.625 48.1875 47.75 41.5 
Q 54.890625 34.8125 54.890625 23.390625 
Q 54.890625 11.625 47.5625 5.09375 
Q 40.234375 -1.421875 26.90625 -1.421875 
Q 22.3125 -1.421875 17.546875 -0.640625 
Q 12.796875 0.140625 7.71875 1.703125 
L 7.71875 11.625 
Q 12.109375 9.234375 16.796875 8.0625 
Q 21.484375 6.890625 26.703125 6.890625 
Q 35.15625 6.890625 40.078125 11.328125 
Q 45.015625 15.765625 45.015625 23.390625 
Q 45.015625 31 40.078125 35.4375 
Q 35.15625 39.890625 26.703125 39.890625 
Q 22.75 39.890625 18.8125 39.015625 
Q 14.890625 38.140625 10.796875 36.28125 
z
" id="DejaVuSans-53"/>
       </defs>
       <use xlink:href="#DejaVuSans-53"/>
       <use x="63.623047" xlink:href="#DejaVuSans-48"/>
      </g>
     </g>
    </g>
    <g id="ytick_6">
     <g id="line2d_12">
      <g>
       <use style="stroke:#000000;stroke-width:0.8;" x="57.6" xlink:href="#m1ddca270e7" y="138.400132"/>
      </g>
     </g>
     <g id="text_12">
      <!-- 60 -->
      <g transform="translate(37.875 142.199351)scale(0.1 -0.1)">
       <use xlink:href="#DejaVuSans-54"/>
       <use x="63.623047" xlink:href="#DejaVuSans-48"/>
      </g>
     </g>
    </g>
    <g id="ytick_7">
     <g id="line2d_13">
      <g>
       <use style="stroke:#000000;stroke-width:0.8;" x="57.6" xlink:href="#m1ddca270e7" y="108.595401"/>
      </g>
     </g>
     <g id="text_13">
      <!-- 70 -->
      <g transform="translate(37.875 112.39462)scale(0.1 -0.1)">
       <defs>
        <path d="M 8.203125 72.90625 
L 55.078125 72.90625 
L 55.078125 68.703125 
L 28.609375 0 
L 18.3125 0 
L 43.21875 64.59375 
L 8.203125 64.59375 
z
" id="DejaVuSans-55"/>
       </defs>
       <use xlink:href="#DejaVuSans-55"/>
       <use x="63.623047" xlink:href="#DejaVuSans-48"/>
      </g>
     </g>
    </g>
    <g id="ytick_8">
     <g id="line2d_14">
      <g>
       <use style="stroke:#000000;stroke-width:0.8;" x="57.6" xlink:href="#m1ddca270e7" y="78.790671"/>
      </g>
     </g>
     <g id="text_14">
      <!-- 80 -->
      <g transform="translate(37.875 82.58989)scale(0.1 -0.1)">
       <use xlink:href="#DejaVuSans-56"/>
       <use x="63.623047" xlink:href="#DejaVuSans-48"/>
      </g>
     </g>
    </g>
    <g id="ytick_9">
     <g id="line2d_15">
      <g>
       <use style="stroke:#000000;stroke-width:0.8;" x="57.6" xlink:href="#m1ddca270e7" y="48.98594"/>
      </g>
     </g>
     <g id="text_15">
      <!-- 90 -->
      <g transform="translate(37.875 52.785159)scale(0.1 -0.1)">
       <defs>
        <path d="M 10.984375 1.515625 
L 10.984375 10.5 
Q 14.703125 8.734375 18.5 7.8125 
Q 22.3125 6.890625 25.984375 6.890625 
Q 35.75 6.890625 40.890625 13.453125 
Q 46.046875 20.015625 46.78125 33.40625 
Q 43.953125 29.203125 39.59375 26.953125 
Q 35.25 24.703125 29.984375 24.703125 
Q 19.046875 24.703125 12.671875 31.3125 
Q 6.296875 37.9375 6.296875 49.421875 
Q 6.296875 60.640625 12.9375 67.421875 
Q 19.578125 74.21875 30.609375 74.21875 
Q 43.265625 74.21875 49.921875 64.515625 
Q 56.59375 54.828125 56.59375 36.375 
Q 56.59375 19.140625 48.40625 8.859375 
Q 40.234375 -1.421875 26.421875 -1.421875 
Q 22.703125 -1.421875 18.890625 -0.6875 
Q 15.09375 0.046875 10.984375 1.515625 
z
M 30.609375 32.421875 
Q 37.25 32.421875 41.125 36.953125 
Q 45.015625 41.5 45.015625 49.421875 
Q 45.015625 57.28125 41.125 61.84375 
Q 37.25 66.40625 30.609375 66.40625 
Q 23.96875 66.40625 20.09375 61.84375 
Q 16.21875 57.28125 16.21875 49.421875 
Q 16.21875 41.5 20.09375 36.953125 
Q 23.96875 32.421875 30.609375 32.421875 
z
" id="DejaVuSans-57"/>
       </defs>
       <use xlink:href="#DejaVuSans-57"/>
       <use x="63.623047" xlink:href="#DejaVuSans-48"/>
      </g>
     </g>
    </g>
   </g>
   <g id="line2d_16">
    <path clip-path="url(#p54690a038f)" d="M 85.73077 287.423785 
L 86.061603 281.662531 
L 86.121212 275.764174 
L 85.85893 263.70518 
L 85.757594 254.578972 
L 85.939403 248.522651 
L 86.449064 242.5319 
L 86.86335 239.575271 
L 87.396854 236.648446 
L 88.067461 233.757387 
L 88.887091 230.905074 
L 89.870647 228.100449 
L 91.027071 225.343512 
L 92.356362 222.649164 
L 93.846598 220.026348 
L 95.4948 217.486985 
L 97.292025 215.042997 
L 99.229332 212.706306 
L 101.306722 210.488834 
L 103.512272 208.402503 
L 105.840022 206.456254 
L 108.281029 204.662009 
L 110.832314 203.03169 
L 113.481955 201.568278 
L 116.215048 200.268792 
L 119.022654 199.139193 
L 121.89285 198.1765 
L 124.813713 197.380713 
L 127.773323 196.757795 
L 130.762737 196.307743 
L 133.767054 196.027579 
L 136.777332 195.920282 
L 139.778668 195.985852 
L 142.771063 196.215348 
L 145.748556 196.60281 
L 148.702205 197.139295 
L 151.63201 197.812882 
L 154.53201 198.62059 
L 157.396245 199.550498 
L 160.218753 200.596644 
L 165.729647 202.992944 
L 171.04085 205.73796 
L 176.211971 208.709492 
L 189.025025 216.297776 
L 194.303443 219.060674 
L 199.730884 221.546389 
L 205.289466 223.75492 
L 210.952365 225.683286 
L 216.698717 227.340429 
L 222.504679 228.723368 
L 228.355347 229.849987 
L 234.250723 230.732207 
L 240.178884 231.393872 
L 246.142811 231.852865 
L 252.136542 232.121107 
L 258.139215 232.186678 
L 264.132946 231.992947 
L 270.08197 231.480306 
L 275.965424 230.595105 
L 281.756483 229.283697 
L 287.446206 227.558003 
L 293.046515 225.498496 
L 298.572312 223.18863 
L 306.744769 219.439195 
L 317.486394 214.217406 
L 328.084956 208.789964 
L 335.962347 204.560673 
L 343.738401 200.122749 
L 348.805205 196.966428 
L 353.728947 193.595513 
L 358.47386 189.962316 
L 362.995237 186.028092 
L 367.248372 181.789859 
L 369.257211 179.560465 
L 371.182597 177.256559 
L 373.012607 174.884103 
L 374.744262 172.440115 
L 376.3716 169.927576 
L 377.888661 167.349467 
L 379.289484 164.705787 
L 380.571087 161.999518 
L 381.733471 159.236619 
L 382.773657 156.426033 
L 383.691642 153.567759 
L 384.484448 150.67074 
L 385.155055 147.737954 
L 385.697501 144.775364 
L 386.111786 141.78893 
L 386.397912 138.784613 
L 386.552896 135.768374 
L 386.57376 132.743194 
L 386.460502 129.723975 
L 386.207162 126.713697 
L 385.813739 123.724283 
L 385.274273 120.764673 
L 384.588765 117.840829 
L 383.751252 114.958711 
L 382.761735 112.133223 
L 381.614253 109.367344 
L 380.311786 106.670016 
L 378.860295 104.0472 
L 377.262762 101.504856 
L 375.534088 99.042985 
L 373.674272 96.670529 
L 371.698219 94.390467 
L 369.611888 92.208761 
L 367.42124 90.12541 
L 365.135217 88.149356 
L 362.75978 86.28358 
L 360.309831 84.531062 
L 357.78239 82.897763 
L 355.186398 81.377721 
L 352.527816 79.976899 
L 349.812605 78.698276 
L 347.043746 77.535892 
L 344.227199 76.498687 
L 341.371905 75.580701 
L 338.477866 74.787895 
L 335.551041 74.12027 
L 332.600373 73.577823 
L 329.628841 73.163538 
L 326.639427 72.877412 
L 323.644052 72.719447 
L 320.639735 72.692623 
L 317.641379 72.793959 
L 314.646003 73.032397 
L 311.66255 73.401976 
L 308.693999 73.905675 
L 305.749291 74.543497 
L 305.749291 74.543497 
" style="fill:none;stroke:#fea952;stroke-linecap:square;"/>
   </g>
   <g id="line2d_17">
    <path clip-path="url(#p54690a038f)" d="M 73.839553 286.569104 
L 74.141932 281.432374 
L 74.200321 275.918682 
L 73.939805 263.962008 
L 73.837778 254.3565 
L 74.046154 247.696731 
L 74.642513 240.877554 
L 75.134715 237.437363 
L 75.783302 233.954581 
L 76.609259 230.4648 
L 77.636939 226.95975 
L 78.876755 223.488957 
L 80.335573 220.068724 
L 81.990794 216.759637 
L 83.846475 213.535658 
L 85.890244 210.424122 
L 88.114212 207.43384 
L 90.528952 204.555546 
L 93.114 201.827956 
L 95.865099 199.256342 
L 98.779174 196.850217 
L 101.861484 194.616067 
L 105.068464 192.595717 
L 108.362714 190.801436 
L 111.76511 189.208522 
L 115.2315 187.836155 
L 118.758972 186.673877 
L 122.358271 185.714424 
L 125.998502 184.968752 
L 129.655777 184.437353 
L 133.342385 184.113252 
L 137.037728 184.001233 
L 140.69032 184.098867 
L 144.30949 184.393134 
L 147.879126 184.87284 
L 151.373459 185.520521 
L 154.830744 186.328126 
L 158.213432 187.281338 
L 161.53958 188.371755 
L 164.776414 189.580327 
L 167.948901 190.901126 
L 171.051774 192.324932 
L 176.890216 195.349676 
L 182.338721 198.482349 
L 194.69284 205.809335 
L 199.410112 208.287864 
L 204.273132 210.523708 
L 209.269116 212.516864 
L 214.385724 214.266475 
L 219.590201 215.774494 
L 224.88858 217.04225 
L 230.239823 218.077975 
L 235.681029 218.896425 
L 241.188604 219.514816 
L 246.770655 219.947516 
L 252.385107 220.201807 
L 257.902481 220.267136 
L 263.276786 220.101837 
L 268.506329 219.662993 
L 273.549191 218.920632 
L 278.478127 217.821416 
L 283.465896 216.320181 
L 288.547291 214.458184 
L 293.714989 212.301117 
L 301.613615 208.678025 
L 312.140447 203.561311 
L 322.511237 198.251218 
L 332.668585 192.755206 
L 337.526063 189.947368 
L 342.186636 187.050478 
L 346.627304 184.019596 
L 350.798562 180.839744 
L 354.726398 177.439855 
L 358.391611 173.809301 
L 361.742726 169.975051 
L 364.737864 165.959103 
L 367.35426 161.767541 
L 368.514735 159.603208 
L 370.552731 155.098678 
L 372.192566 150.420893 
L 373.428115 145.590768 
L 374.243597 140.658626 
L 374.631288 135.686156 
L 374.580606 130.723768 
L 374.38719 128.269267 
L 374.085094 125.862132 
L 373.66713 123.486022 
L 373.140439 121.167592 
L 372.499415 118.899228 
L 371.749903 116.701709 
L 370.878454 114.551371 
L 369.880686 112.442681 
L 368.765872 110.390237 
L 367.505966 108.355875 
L 366.15151 106.398171 
L 364.665029 104.47854 
L 363.081938 102.63008 
L 361.396058 100.847723 
L 359.624875 99.144734 
L 357.771174 97.524983 
L 353.839124 94.544127 
L 349.628946 91.925055 
L 347.448659 90.762708 
L 342.923929 88.723323 
L 338.222024 87.078952 
L 333.395463 85.845669 
L 328.492954 85.031194 
L 323.53761 84.640864 
L 318.587393 84.678258 
L 313.656935 85.155866 
L 311.217748 85.557379 
L 308.273041 86.195201 
L 308.273041 86.195201 
" style="fill:none;stroke:#ffffff;stroke-linecap:square;"/>
   </g>
   <g id="line2d_18">
    <path clip-path="url(#p54690a038f)" d="M 97.621987 288.278466 
L 97.981273 281.892687 
L 98.042103 275.609666 
L 97.778056 263.448353 
L 97.677411 254.801444 
L 97.832652 249.348571 
L 98.255615 244.186245 
L 99.010407 239.342311 
L 99.525663 237.049974 
L 100.137243 234.850399 
L 100.864539 232.711941 
L 101.718569 230.618299 
L 102.721929 228.538691 
L 103.846721 226.517038 
L 105.099355 224.549847 
L 106.469838 222.652153 
L 107.929713 220.857066 
L 109.499445 219.149712 
L 111.159446 217.548663 
L 112.900869 216.062291 
L 114.700574 214.707951 
L 116.596165 213.467664 
L 118.601195 212.33512 
L 120.664987 211.329061 
L 122.813808 210.44223 
L 125.026727 209.679122 
L 127.269156 209.047003 
L 129.548144 208.546837 
L 131.869698 208.178133 
L 134.191723 207.941905 
L 136.516936 207.83933 
L 138.867017 207.872837 
L 141.232637 208.037563 
L 143.617986 208.33278 
L 146.030951 208.758069 
L 148.433275 209.297638 
L 153.252909 210.72924 
L 158.050168 212.593087 
L 162.78162 214.839932 
L 167.609772 217.485826 
L 186.256079 228.347999 
L 192.179825 231.242966 
L 198.232373 233.819197 
L 204.403161 236.084676 
L 210.643557 238.036523 
L 216.962864 239.692215 
L 223.301291 241.050578 
L 229.652778 242.128857 
L 235.995769 242.949727 
L 242.339514 243.540882 
L 248.700003 243.924667 
L 255.126039 244.105584 
L 261.674363 244.037004 
L 268.304408 243.640607 
L 275.004211 242.844622 
L 278.381657 242.269579 
L 281.723578 241.56947 
L 285.034839 240.745978 
L 291.426516 238.795825 
L 297.545739 236.538809 
L 303.429635 234.076142 
L 311.875923 230.200364 
L 322.832341 224.873501 
L 333.658676 219.32871 
L 341.746066 214.985648 
L 347.205165 211.913102 
L 352.681112 208.628904 
L 358.138282 205.066555 
L 363.520568 201.169502 
L 368.73986 196.896601 
L 371.264077 194.616328 
L 373.71833 192.243562 
L 376.105134 189.770416 
L 378.405183 187.205471 
L 380.622467 184.538067 
L 382.740231 181.77648 
L 384.75066 178.921127 
L 386.646571 175.973773 
L 388.423063 172.931393 
L 390.064232 169.808366 
L 391.560063 166.622712 
L 392.914212 163.37456 
L 394.1245 160.07156 
L 395.190718 156.714626 
L 396.106386 153.328195 
L 396.881994 149.88514 
L 397.50631 146.413512 
L 397.979976 142.919234 
L 398.304097 139.396393 
L 398.474505 135.850592 
L 398.487273 132.29629 
L 398.340398 128.724182 
L 398.027133 125.158128 
L 397.542384 121.586433 
L 396.881417 118.043324 
L 396.037091 114.514066 
L 395.003089 111.018195 
L 393.773567 107.564737 
L 392.350052 104.183317 
L 390.742886 100.89735 
L 388.954719 97.704162 
L 387.019557 94.653837 
L 384.916665 91.687799 
L 382.683516 88.862517 
L 380.3145 86.150854 
L 377.827717 83.569798 
L 375.217605 81.106086 
L 372.49926 78.773729 
L 369.695933 76.587122 
L 366.780538 74.517997 
L 363.806369 72.609751 
L 360.74385 70.830388 
L 357.606973 69.19109 
L 354.427338 67.705745 
L 351.163562 66.34846 
L 347.876174 65.148952 
L 344.521786 64.082451 
L 341.129217 63.164563 
L 337.70662 62.39487 
L 334.24658 61.770135 
L 330.764729 61.295881 
L 327.267271 60.972064 
L 323.750493 60.79803 
L 320.237038 60.777534 
L 316.695365 60.90966 
L 313.180368 61.200938 
L 309.668165 61.648085 
L 306.170249 62.253972 
L 303.225542 62.891793 
L 303.225542 62.891793 
" style="fill:none;stroke:#ffffff;stroke-linecap:square;"/>
   </g>
   <g id="patch_3">
    <path d="M 57.6 307.584 
L 57.6 41.472 
" style="fill:none;stroke:#000000;stroke-linecap:square;stroke-linejoin:miter;stroke-width:0.8;"/>
   </g>
   <g id="patch_4">
    <path d="M 414.72 307.584 
L 414.72 41.472 
" style="fill:none;stroke:#000000;stroke-linecap:square;stroke-linejoin:miter;stroke-width:0.8;"/>
   </g>
   <g id="patch_5">
    <path d="M 57.6 307.584 
L 414.72 307.584 
" style="fill:none;stroke:#000000;stroke-linecap:square;stroke-linejoin:miter;stroke-width:0.8;"/>
   </g>
   <g id="patch_6">
    <path d="M 57.6 41.472 
L 414.72 41.472 
" style="fill:none;stroke:#000000;stroke-linecap:square;stroke-linejoin:miter;stroke-width:0.8;"/>
   </g>
  </g>
 </g>
 <defs>
  <clipPath id="p54690a038f">
   <rect height="266.112" width="357.12" x="57.6" y="41.472"/>
  </clipPath>
 </defs>
</svg>
